<?xml version='1.0' encoding='utf-8'?>
<svg xmlns="http://www.w3.org/2000/svg" version="1.1" width="69.480" height="126.961" viewBox="383.637 229.616 69.480 126.961"><g id="object"><path id="path128" d="m 2922.28,2801.77 v 0 -215.55 c 0,-119.05 96.5,-215.55 215.55,-215.55 v 0 215.55 c 0,119.05 -96.51,215.55 -215.55,215.55" style="fill:#f36717;fill-opacity:1;fill-rule:nonzero;stroke:none" transform="matrix(0.13333333,0,0,-0.13333333,0,666.66667)" />
      <path id="path129" d="m 3353.38,2801.77 v 0 -215.55 c 0,-119.05 -96.5,-215.55 -215.55,-215.55 v 0 215.55 c 0,119.05 96.51,215.55 215.55,215.55" style="fill:#2c3491;fill-opacity:1;fill-rule:nonzero;stroke:none" transform="matrix(0.13333333,0,0,-0.13333333,0,666.66667)" />
      <path id="path130" d="m 2922.28,3232.88 v 0 -215.55 c 0,-119.05 96.5,-215.56 215.55,-215.56 v 0 215.56 c 0,119.04 -96.51,215.55 -215.55,215.55" style="fill:#f36717;fill-opacity:1;fill-rule:nonzero;stroke:none" transform="matrix(0.13333333,0,0,-0.13333333,0,666.66667)" />
      <path id="path131" d="m 3353.38,3232.88 v 0 -215.55 c 0,-119.05 -96.5,-215.56 -215.55,-215.56 v 0 215.56 c 0,119.04 96.51,215.55 215.55,215.55" style="fill:#2c3491;fill-opacity:1;fill-rule:nonzero;stroke:none" transform="matrix(0.13333333,0,0,-0.13333333,0,666.66667)" />
      </g></svg>