<?xml version='1.0' encoding='utf-8'?>
<svg xmlns="http://www.w3.org/2000/svg" version="1.1" width="142.227" height="273.006" viewBox="695.825 43.053 142.227 273.006"><g id="object"><path id="path98" d="m 5485.1,3742.3 v 0 0 c 0,-147.43 119.52,-266.94 266.94,-266.94 v 0 0 c 0,147.43 -119.51,266.94 -266.94,266.94" style="fill:#1b527c;fill-opacity:1;fill-rule:nonzero;stroke:none" transform="matrix(0.13333333,0,0,-0.13333333,0,666.66667)" />
      <path id="path99" d="m 6018.98,3742.3 v 0 0 c 0,-147.43 -119.51,-266.94 -266.94,-266.94 v 0 0 c 0,147.43 119.51,266.94 266.94,266.94" style="fill:#286aaa;fill-opacity:1;fill-rule:nonzero;stroke:none" transform="matrix(0.13333333,0,0,-0.13333333,0,666.66667)" />
      <path id="path100" d="m 5485.1,3475.36 v 0 0 c 0,-147.42 119.52,-266.94 266.94,-266.94 v 0 0 c 0,147.43 -119.51,266.94 -266.94,266.94" style="fill:#1b527c;fill-opacity:1;fill-rule:nonzero;stroke:none" transform="matrix(0.13333333,0,0,-0.13333333,0,666.66667)" />
      <path id="path101" d="m 6018.98,3475.36 v 0 0 c 0,-147.42 -119.51,-266.94 -266.94,-266.94 v 0 0 c 0,147.43 119.51,266.94 266.94,266.94" style="fill:#286aaa;fill-opacity:1;fill-rule:nonzero;stroke:none" transform="matrix(0.13333333,0,0,-0.13333333,0,666.66667)" />
      <path id="path102" d="m 5401.7,4265.84 h -138.01 v -138 c 0,-193.5 156.85,-350.35 350.35,-350.35 h 138 v 138 c 0,193.49 -156.86,350.35 -350.34,350.35" style="fill:#fab20b;fill-opacity:1;fill-rule:nonzero;stroke:none" transform="matrix(0.13333333,0,0,-0.13333333,0,666.66667)" />
      <path id="path103" d="m 6102.38,4265.84 h 138.01 v -138 c 0,-193.5 -156.86,-350.35 -350.34,-350.35 h -138.01 v 138 c 0,193.49 156.85,350.35 350.34,350.35" style="fill:#fab20b;fill-opacity:1;fill-rule:nonzero;stroke:none" transform="matrix(0.13333333,0,0,-0.13333333,0,666.66667)" />
      <path id="path104" d="m 5883.82,4235.19 -131.78,131.79 -131.79,-131.79 c -90,-90 -90,-235.92 0,-325.91 l 131.79,-131.79 131.78,131.79 c 90,89.99 90,235.91 0,325.91" style="fill:#f57515;fill-opacity:1;fill-rule:nonzero;stroke:none" transform="matrix(0.13333333,0,0,-0.13333333,0,666.66667)" />
      <path id="path105" d="m 5820.28,4014.47 -68.24,68.24 -68.24,-68.24 c -46.6,-46.6 -46.6,-122.14 0,-168.75 l 68.24,-68.23 68.24,68.23 c 46.59,46.61 46.59,122.15 0,168.75" style="fill:#286aaa;fill-opacity:1;fill-rule:nonzero;stroke:none" transform="matrix(0.13333333,0,0,-0.13333333,0,666.66667)" />
      <path id="path106" d="m 5843.6,4540.54 c 0,50.56 -40.99,91.56 -91.56,91.56 -50.57,0 -91.57,-41 -91.57,-91.56 0,-50.58 41,-91.57 91.57,-91.57 50.57,0 91.56,40.99 91.56,91.57" style="fill:#286aaa;fill-opacity:1;fill-rule:nonzero;stroke:none" transform="matrix(0.13333333,0,0,-0.13333333,0,666.66667)" />
      <path id="path107" d="m 5446.82,4479.49 c 0,-50.57 41,-91.57 91.57,-91.57 50.57,0 91.56,41 91.56,91.57 h -183.13" style="fill:#3ebeb9;fill-opacity:1;fill-rule:nonzero;stroke:none" transform="matrix(0.13333333,0,0,-0.13333333,0,666.66667)" />
      <path id="path108" d="m 5874.13,4479.49 c 0,-50.57 40.99,-91.57 91.56,-91.57 50.58,0 91.56,41 91.56,91.57 h -183.12" style="fill:#3ebeb9;fill-opacity:1;fill-rule:nonzero;stroke:none" transform="matrix(0.13333333,0,0,-0.13333333,0,666.66667)" />
      <path id="path109" d="M 6018.98,3208.42 H 5485.1 v -533.87 h 533.88 v 533.87" style="fill:#fab20b;fill-opacity:1;fill-rule:nonzero;stroke:none" transform="matrix(0.13333333,0,0,-0.13333333,0,666.66667)" />
      <path id="path110" d="M 6018.98,3208.42 H 5485.1 v -133.46 h 533.88 v 133.46" style="fill:#286aaa;fill-opacity:1;fill-rule:nonzero;stroke:none" transform="matrix(0.13333333,0,0,-0.13333333,0,666.66667)" />
      <path id="path111" d="m 5885.5,2874.75 -133.46,-133.47 -133.47,133.47 133.47,133.47 133.46,-133.47" style="fill:#286aaa;fill-opacity:1;fill-rule:nonzero;stroke:none" transform="matrix(0.13333333,0,0,-0.13333333,0,666.66667)" />
      </g></svg>