<?xml version='1.0' encoding='utf-8'?>
<svg xmlns="http://www.w3.org/2000/svg" version="1.1" width="212.458" height="141.463" viewBox="459.023 90.509 212.458 141.463"><g id="object"><path id="path165" d="m 3487.67,3886.39 v 0 0 c 207.58,-207.58 544.13,-207.58 751.72,0 v 0 0 c -207.59,207.59 -544.14,207.59 -751.72,0" style="fill:#3ebeb9;fill-opacity:1;fill-rule:nonzero;stroke:none" transform="matrix(0.13333333,0,0,-0.13333333,0,666.66667)" />
      <path id="path166" d="m 3963.19,3886.39 c 0,55.05 -44.62,99.67 -99.66,99.67 -55.05,0 -99.67,-44.62 -99.67,-99.67 0,-55.04 44.62,-99.66 99.67,-99.66 55.04,0 99.66,44.62 99.66,99.66" style="fill:#286aaa;fill-opacity:1;fill-rule:nonzero;stroke:none" transform="matrix(0.13333333,0,0,-0.13333333,0,666.66667)" />
      <path id="path167" d="m 3891.54,3886.39 c 0,15.47 -12.54,28.02 -28.01,28.02 -15.47,0 -28.02,-12.55 -28.02,-28.02 0,-15.47 12.55,-28.01 28.02,-28.01 15.47,0 28.01,12.54 28.01,28.01" style="fill:#fefefe;fill-opacity:1;fill-rule:nonzero;stroke:none" transform="matrix(0.13333333,0,0,-0.13333333,0,666.66667)" />
      <path id="path168" d="m 4239.39,3886.39 v 0 0 c 207.58,-207.58 544.13,-207.58 751.72,0 v 0 0 c -207.59,207.59 -544.14,207.59 -751.72,0" style="fill:#3ebeb9;fill-opacity:1;fill-rule:nonzero;stroke:none" transform="matrix(0.13333333,0,0,-0.13333333,0,666.66667)" />
      <path id="path169" d="m 4714.91,3886.39 c 0,55.05 -44.62,99.67 -99.66,99.67 -55.05,0 -99.67,-44.62 -99.67,-99.67 0,-55.04 44.62,-99.66 99.67,-99.66 55.04,0 99.66,44.62 99.66,99.66" style="fill:#286aaa;fill-opacity:1;fill-rule:nonzero;stroke:none" transform="matrix(0.13333333,0,0,-0.13333333,0,666.66667)" />
      <path id="path170" d="m 4643.26,3886.39 c 0,15.47 -12.54,28.02 -28.01,28.02 -15.48,0 -28.02,-12.55 -28.02,-28.02 0,-15.47 12.54,-28.01 28.02,-28.01 15.47,0 28.01,12.54 28.01,28.01" style="fill:#fefefe;fill-opacity:1;fill-rule:nonzero;stroke:none" transform="matrix(0.13333333,0,0,-0.13333333,0,666.66667)" />
      <path id="path171" d="M 4352.41,3418.02 4239.6,3305.21 4127.4,3417.4 c -75.68,75.69 -75.68,198.39 0,274.08 l 112.81,112.81 112.2,-112.19 c 75.68,-75.69 75.68,-198.39 0,-274.08" style="fill:#fab20b;fill-opacity:1;fill-rule:nonzero;stroke:none" transform="matrix(0.13333333,0,0,-0.13333333,0,666.66667)" />
      <path id="path172" d="m 4240.21,3804.29 112.36,-112.36 c 75.6,-75.6 75.44,-198.3 -0.33,-274.08 l -112.64,-112.64 0.61,499.08" style="fill:#f57515;fill-opacity:1;fill-rule:nonzero;stroke:none" transform="matrix(0.13333333,0,0,-0.13333333,0,666.66667)" />
      <path id="path173" d="m 4051.46,3618.42 h -563.79 v 0 c 0,-155.68 126.21,-281.89 281.9,-281.89 v 0 c 155.68,0 281.89,126.21 281.89,281.89 v 0" style="fill:#286aaa;fill-opacity:1;fill-rule:nonzero;stroke:none" transform="matrix(0.13333333,0,0,-0.13333333,0,666.66667)" />
      <path id="path174" d="m 3769.57,3618.42 v -281.89 c 155.68,0 281.89,126.21 281.89,281.89 h -281.89" style="fill:#3ebeb9;fill-opacity:1;fill-rule:nonzero;stroke:none" transform="matrix(0.13333333,0,0,-0.13333333,0,666.66667)" />
      <path id="path175" d="M 3863.53,3618.42 H 3675.6 v 0 c 0,-51.89 42.07,-93.96 93.97,-93.96 v 0 c 51.89,0 93.96,42.07 93.96,93.96 v 0" style="fill:#fab20b;fill-opacity:1;fill-rule:nonzero;stroke:none" transform="matrix(0.13333333,0,0,-0.13333333,0,666.66667)" />
      <path id="path176" d="m 4991.11,3618.42 h -563.79 v 0 c 0,-155.68 126.2,-281.89 281.9,-281.89 v 0 c 155.68,0 281.89,126.21 281.89,281.89 v 0" style="fill:#286aaa;fill-opacity:1;fill-rule:nonzero;stroke:none" transform="matrix(0.13333333,0,0,-0.13333333,0,666.66667)" />
      <path id="path177" d="m 4709.22,3618.42 v -281.89 c 155.68,0 281.89,126.21 281.89,281.89 h -281.89" style="fill:#3ebeb9;fill-opacity:1;fill-rule:nonzero;stroke:none" transform="matrix(0.13333333,0,0,-0.13333333,0,666.66667)" />
      <path id="path178" d="m 4803.18,3618.42 h -187.93 v 0 c 0,-51.89 42.07,-93.96 93.97,-93.96 v 0 c 51.89,0 93.96,42.07 93.96,93.96 v 0" style="fill:#fab20b;fill-opacity:1;fill-rule:nonzero;stroke:none" transform="matrix(0.13333333,0,0,-0.13333333,0,666.66667)" />
      <path id="path179" d="M 4051.46,4276.18 H 3675.6 c -51.9,0 -93.97,-42.07 -93.97,-93.97 h 563.8 c 0,51.9 -42.07,93.97 -93.97,93.97" style="fill:#286aaa;fill-opacity:1;fill-rule:nonzero;stroke:none" transform="matrix(0.13333333,0,0,-0.13333333,0,666.66667)" />
      <path id="path180" d="m 3675.6,4088.25 h 375.86 c 51.9,0 93.97,42.07 93.97,93.96 h -563.8 c 0,-51.89 42.07,-93.96 93.97,-93.96" style="fill:#f57515;fill-opacity:1;fill-rule:nonzero;stroke:none" transform="matrix(0.13333333,0,0,-0.13333333,0,666.66667)" />
      <path id="path181" d="m 4803.18,4276.18 h -375.86 c -51.89,0 -93.96,-42.07 -93.96,-93.97 h 563.78 c 0,51.9 -42.07,93.97 -93.96,93.97" style="fill:#286aaa;fill-opacity:1;fill-rule:nonzero;stroke:none" transform="matrix(0.13333333,0,0,-0.13333333,0,666.66667)" />
      <path id="path182" d="m 4427.32,4088.25 h 375.86 c 51.89,0 93.96,42.07 93.96,93.96 h -563.78 c 0,-51.89 42.07,-93.96 93.96,-93.96" style="fill:#f57515;fill-opacity:1;fill-rule:nonzero;stroke:none" transform="matrix(0.13333333,0,0,-0.13333333,0,666.66667)" />
      </g></svg>