<?xml version='1.0' encoding='utf-8'?>
<svg xmlns="http://www.w3.org/2000/svg" version="1.1" width="72.013" height="72.014" viewBox="78.192 267.320 72.013 72.014"><g id="object"><path id="path255" d="m 631.441,2725.05 v 0 0 c 0,-124.29 100.758,-225.05 225.051,-225.05 h 0.004 v 0 c 0,124.29 -100.762,225.05 -225.055,225.05" style="fill:#ed1b29;fill-opacity:1;fill-rule:nonzero;stroke:none" transform="matrix(0.13333333,0,0,-0.13333333,0,666.66667)" />
      <path id="path256" d="m 1081.54,2725.05 v 0 0 C 1081.54,2600.76 980.785,2500 856.496,2500 v 0 0 c 0,124.29 100.758,225.05 225.044,225.05" style="fill:#b91d23;fill-opacity:1;fill-rule:nonzero;stroke:none" transform="matrix(0.13333333,0,0,-0.13333333,0,666.66667)" />
      <path id="path257" d="m 631.441,2950.1 v 0 0 c 0,-124.29 100.758,-225.05 225.051,-225.05 h 0.004 v 0 c 0,124.29 -100.762,225.05 -225.055,225.05" style="fill:#f9aa0c;fill-opacity:1;fill-rule:nonzero;stroke:none" transform="matrix(0.13333333,0,0,-0.13333333,0,666.66667)" />
      <path id="path258" d="m 1081.54,2950.1 v 0 0 c 0,-124.29 -100.755,-225.05 -225.044,-225.05 v 0 0 c 0,124.29 100.758,225.05 225.044,225.05" style="fill:#f57930;fill-opacity:1;fill-rule:nonzero;stroke:none" transform="matrix(0.13333333,0,0,-0.13333333,0,666.66667)" />
      </g></svg>