<?xml version='1.0' encoding='utf-8'?>
<svg xmlns="http://www.w3.org/2000/svg" version="1.1" width="253.683" height="326.144" viewBox="671.917 30.641 253.683 326.144"><g id="object"><path id="path90" d="m 5504.76,4288.88 h -67.87 v 236.55 c 0,80.75 65.69,146.43 146.43,146.43 h 149.29 v -67.87 h -149.29 c -43.31,0 -78.56,-35.24 -78.56,-78.56 v -236.55" style="fill:#f68b11;fill-opacity:1;fill-rule:nonzero;stroke:none" transform="matrix(0.13333333,0,0,-0.13333333,0,666.66667)" />
      <path id="path91" d="M 5645.36,4064.49 H 5333.7 c -137.7,0 -249.32,111.62 -249.32,249.31 v 0 h 560.98 v -249.31" style="fill:#1f3662;fill-opacity:1;fill-rule:nonzero;stroke:none" transform="matrix(0.13333333,0,0,-0.13333333,0,666.66667)" />
      <path id="path92" d="m 5645.36,4064.49 v -498.64 h -498.64 v 0 c 0,275.39 223.24,498.64 498.63,498.64 h 0.01" style="fill:#1f3662;fill-opacity:1;fill-rule:nonzero;stroke:none" transform="matrix(0.13333333,0,0,-0.13333333,0,666.66667)" />
      <path id="path93" d="m 5146.72,3565.85 h 498.64 V 3067.2 h -0.01 c -275.39,0 -498.63,223.26 -498.63,498.65 v 0" style="fill:#f68b11;fill-opacity:1;fill-rule:nonzero;stroke:none" transform="matrix(0.13333333,0,0,-0.13333333,0,666.66667)" />
      <path id="path94" d="m 5321.24,3565.85 h 324.12 v -324.12 h -0.01 c -179.01,0 -324.11,145.11 -324.11,324.12 v 0" style="fill:#ee1a7c;fill-opacity:1;fill-rule:nonzero;stroke:none" transform="matrix(0.13333333,0,0,-0.13333333,0,666.66667)" />
      <path id="path95" d="M 6404.31,3565.85 H 5645.36 V 3067.2 H 6692.5 v 210.45 c 0,159.17 -129.03,288.2 -288.19,288.2" style="fill:#f68b11;fill-opacity:1;fill-rule:nonzero;stroke:none" transform="matrix(0.13333333,0,0,-0.13333333,0,666.66667)" />
      <path id="path96" d="m 5770.02,4189.15 h -124.66 v 124.65 h 249.31 v 0 c 0,-68.84 -55.81,-124.65 -124.65,-124.65" style="fill:#f68b11;fill-opacity:1;fill-rule:nonzero;stroke:none" transform="matrix(0.13333333,0,0,-0.13333333,0,666.66667)" />
      <path id="path97" d="m 5520.69,4251.48 v 0 c 0,-34.43 -27.9,-62.33 -62.32,-62.33 v 0 c -34.43,0 -62.34,27.9 -62.34,62.33 v 0" style="fill:#f68b11;fill-opacity:1;fill-rule:nonzero;stroke:none" transform="matrix(0.13333333,0,0,-0.13333333,0,666.66667)" />
      <path id="path98" d="m 5907.14,3067.2 -85.51,-342.16 -89.02,-355.93 h -87.25 v 872.62 l 261.78,-174.53" style="fill:#f68b11;fill-opacity:1;fill-rule:nonzero;stroke:none" transform="matrix(0.13333333,0,0,-0.13333333,0,666.66667)" />
      <path id="path99" d="m 6890.8,2813.23 -111.04,-444.12 h -87.26 v 698.09 c 132.97,0 230.54,-124.96 198.3,-253.97" style="fill:#f68b11;fill-opacity:1;fill-rule:nonzero;stroke:none" transform="matrix(0.13333333,0,0,-0.13333333,0,666.66667)" />
      <path id="path100" d="m 5821.63,2725.04 -89.02,-355.93 h -87.25 v 355.93 h 176.27" style="fill:#1f3662;fill-opacity:1;fill-rule:nonzero;stroke:none" transform="matrix(0.13333333,0,0,-0.13333333,0,666.66667)" />
      <path id="path101" d="m 6692.5,2725.02 v -355.91 h 87.26 l 88.98,355.91 H 6692.5" style="fill:#1f3662;fill-opacity:1;fill-rule:nonzero;stroke:none" transform="matrix(0.13333333,0,0,-0.13333333,0,666.66667)" />
      <path id="path102" d="m 6692.5,3067.2 h -349.05 v 0 c 0,-192.77 156.27,-349.04 349.05,-349.04 v 0 349.04" style="fill:#f68b11;fill-opacity:1;fill-rule:nonzero;stroke:none" transform="matrix(0.13333333,0,0,-0.13333333,0,666.66667)" />
      <path id="path103" d="m 6692.5,3067.2 -246.86,-246.85 c -63.11,63.22 -102.19,150.48 -102.19,246.85 h 349.05" style="fill:#1f3662;fill-opacity:1;fill-rule:nonzero;stroke:none" transform="matrix(0.13333333,0,0,-0.13333333,0,666.66667)" />
      <path id="path104" d="m 6692.5,3067.2 -246.86,-246.85 c -63.11,63.22 -102.19,150.48 -102.19,246.85 h 349.05" style="fill:#1f3662;fill-opacity:1;fill-rule:nonzero;stroke:none" transform="matrix(0.13333333,0,0,-0.13333333,0,666.66667)" />
      <path id="path105" d="m 5470.83,4516.73 h -99.24 c -60.23,0 -109.23,48.99 -109.23,109.22 v 99.24 h 67.87 v -99.24 c 0,-22.81 18.56,-41.35 41.36,-41.35 h 99.24 v -67.87" style="fill:#f68b11;fill-opacity:1;fill-rule:nonzero;stroke:none" transform="matrix(0.13333333,0,0,-0.13333333,0,666.66667)" />
      <path id="path106" d="M 6343.45,3067.2 6125.3,3285.36 5907.14,3067.2 Z" style="fill:#ee1a7c;fill-opacity:1;fill-rule:nonzero;stroke:none" transform="matrix(0.13333333,0,0,-0.13333333,0,666.66667)" />
      </g></svg>