<?xml version='1.0' encoding='utf-8'?>
<svg xmlns="http://www.w3.org/2000/svg" version="1.1" width="82.972" height="162.815" viewBox="361.300 452.579 82.972 162.815"><g id="object"><path id="path3" d="M 3287.04,695.68 H 2754.75 V 429.539 h 532.29 V 695.68" style="fill:#f9aa0c;fill-opacity:1;fill-rule:nonzero;stroke:none" transform="matrix(0.13333333,0,0,-0.13333333,0,666.66667)" />
      <path id="path4" d="M 3287.04,695.68 H 2754.75 V 562.602 h 532.29 V 695.68" style="fill:#ed1b29;fill-opacity:1;fill-rule:nonzero;stroke:none" transform="matrix(0.13333333,0,0,-0.13333333,0,666.66667)" />
      <path id="path5" d="m 2754.75,1227.98 c 0,-147 119.15,-266.148 266.14,-266.148 v 266.148 h -266.14" style="fill:#f57930;fill-opacity:1;fill-rule:nonzero;stroke:none" transform="matrix(0.13333333,0,0,-0.13333333,0,666.66667)" />
      <path id="path6" d="m 3020.89,1227.98 v 0 -266.148 c 146.99,0 266.15,119.148 266.15,266.148 h -266.15" style="fill:#f9aa0c;fill-opacity:1;fill-rule:nonzero;stroke:none" transform="matrix(0.13333333,0,0,-0.13333333,0,666.66667)" />
      <path id="path7" d="m 2754.75,1494.12 v 0 -266.14 h 266.14 v 0 c 0,146.99 -119.16,266.14 -266.14,266.14" style="fill:#ed1b29;fill-opacity:1;fill-rule:nonzero;stroke:none" transform="matrix(0.13333333,0,0,-0.13333333,0,666.66667)" />
      <path id="path8" d="m 3287.04,1494.12 v 0 -266.14 h -266.15 v 0 c 0,146.99 119.16,266.14 266.15,266.14" style="fill:#782d99;fill-opacity:1;fill-rule:nonzero;stroke:none" transform="matrix(0.13333333,0,0,-0.13333333,0,666.66667)" />
      <path id="path10" d="m 2887.82,1560.66 c 0,-73.5 59.58,-133.08 133.07,-133.08 v 133.08 h -133.07" style="fill:#f57930;fill-opacity:1;fill-rule:nonzero;stroke:none" transform="matrix(0.13333333,0,0,-0.13333333,0,666.66667)" />
      <path id="path11" d="m 3020.89,1560.66 v -133.08 c 73.5,0 133.08,59.58 133.08,133.08 h -133.08" style="fill:#782d99;fill-opacity:1;fill-rule:nonzero;stroke:none" transform="matrix(0.13333333,0,0,-0.13333333,0,666.66667)" />
      <path id="path12" d="m 2754.75,961.832 v 0 0 c 0,-146.992 119.15,-266.152 266.14,-266.152 v 0 0 c 0,146.992 -119.16,266.152 -266.14,266.152" style="fill:#f57930;fill-opacity:1;fill-rule:nonzero;stroke:none" transform="matrix(0.13333333,0,0,-0.13333333,0,666.66667)" />
      <path id="path13" d="m 3020.89,695.68 v 0 c 146.99,0 266.15,119.16 266.15,266.152 v 0 0 c -146.99,0 -266.15,-119.16 -266.15,-266.152 v 0" style="fill:#f9aa0c;fill-opacity:1;fill-rule:nonzero;stroke:none" transform="matrix(0.13333333,0,0,-0.13333333,0,666.66667)" />
      </g></svg>