<?xml version='1.0' encoding='utf-8'?>
<svg xmlns="http://www.w3.org/2000/svg" version="1.1" width="105.080" height="209.794" viewBox="401.661 426.231 105.080 209.794"><g id="object"><path id="path76" d="m 3406.51,1321.96 h -349.05 v 0 c 0,-192.77 156.27,-349.05 349.05,-349.05 v 0 349.05" style="fill:#1f3662;fill-opacity:1;fill-rule:nonzero;stroke:none" transform="matrix(0.13333333,0,0,-0.13333333,0,666.66667)" />
      <path id="path77" d="m 3406.51,1321.96 h 349.05 v 0 c 0,-192.77 -156.28,-349.05 -349.05,-349.05 v 0 349.05" style="fill:#ee1a7c;fill-opacity:1;fill-rule:nonzero;stroke:none" transform="matrix(0.13333333,0,0,-0.13333333,0,666.66667)" />
      <path id="path78" d="m 3057.46,1321.96 v 349.05 h 13.51 c 185.32,0 335.54,-150.22 335.54,-335.53 v -13.52 h -349.05" style="fill:#ee1a7c;fill-opacity:1;fill-rule:nonzero;stroke:none" transform="matrix(0.13333333,0,0,-0.13333333,0,666.66667)" />
      <path id="path79" d="m 3755.56,1321.96 v 349.05 h -13.52 c -185.31,0 -335.53,-150.22 -335.53,-335.53 v -13.52 h 349.05" style="fill:#f68b11;fill-opacity:1;fill-rule:nonzero;stroke:none" transform="matrix(0.13333333,0,0,-0.13333333,0,666.66667)" />
      <path id="path80" d="m 3493.77,1671.01 c 0,48.2 -39.07,87.26 -87.26,87.26 -48.19,0 -87.27,-39.06 -87.27,-87.26 0,-48.19 39.08,-87.26 87.27,-87.26 48.19,0 87.26,39.07 87.26,87.26" style="fill:#1f3662;fill-opacity:1;fill-rule:nonzero;stroke:none" transform="matrix(0.13333333,0,0,-0.13333333,0,666.66667)" />
      <path id="path81" d="m 3406.51,1583.75 c 48.19,0 87.26,39.07 87.26,87.26 0,48.2 -39.07,87.26 -87.26,87.26 v -174.52" style="fill:#f68b11;fill-opacity:1;fill-rule:nonzero;stroke:none" transform="matrix(0.13333333,0,0,-0.13333333,0,666.66667)" />
      <path id="path84" d="m 3406.51,623.859 v 0 c -192.78,0 -349.05,156.27 -349.05,349.051 v 0 0 c 192.78,0 349.05,-156.269 349.05,-349.051 v 0" style="fill:#1f3662;fill-opacity:1;fill-rule:nonzero;stroke:none" transform="matrix(0.13333333,0,0,-0.13333333,0,666.66667)" />
      <path id="path85" d="m 3406.51,623.859 v 0 c 192.77,0 349.05,156.27 349.05,349.051 v 0 0 c -192.78,0 -349.05,-156.269 -349.05,-349.051 v 0" style="fill:#ee1a7c;fill-opacity:1;fill-rule:nonzero;stroke:none" transform="matrix(0.13333333,0,0,-0.13333333,0,666.66667)" />
      <path id="path86" d="m 3406.51,274.809 v 0 c -192.78,0 -349.05,156.281 -349.05,349.05 v 0 0 c 192.78,0 349.05,-156.277 349.05,-349.05 v 0" style="fill:#1f3662;fill-opacity:1;fill-rule:nonzero;stroke:none" transform="matrix(0.13333333,0,0,-0.13333333,0,666.66667)" />
      <path id="path87" d="m 3406.51,274.809 v 0 c 192.77,0 349.05,156.281 349.05,349.05 v 0 0 c -192.78,0 -349.05,-156.277 -349.05,-349.05 v 0" style="fill:#1f3662;fill-opacity:1;fill-rule:nonzero;stroke:none" transform="matrix(0.13333333,0,0,-0.13333333,0,666.66667)" />
      <path id="path88" d="m 3406.51,623.859 v 0 c -192.78,0 -349.05,156.27 -349.05,349.051 v 0 0 c 192.78,0 349.05,-156.269 349.05,-349.051 v 0" style="fill:#ee1a7c;fill-opacity:1;fill-rule:nonzero;stroke:none" transform="matrix(0.13333333,0,0,-0.13333333,0,666.66667)" />
      <path id="path89" d="m 3406.51,623.859 v 0 c 192.77,0 349.05,156.27 349.05,349.051 v 0 0 c -192.78,0 -349.05,-156.269 -349.05,-349.051 v 0" style="fill:#ee1a7c;fill-opacity:1;fill-rule:nonzero;stroke:none" transform="matrix(0.13333333,0,0,-0.13333333,0,666.66667)" />
      </g></svg>