<?xml version='1.0' encoding='utf-8'?>
<svg xmlns="http://www.w3.org/2000/svg" version="1.1" width="127.713" height="69.856" viewBox="140.940 194.752 127.713 69.856"><g id="object"><path id="path89" d="m 1319.01,3494.36 v 0 c -119.82,0 -216.96,-97.14 -216.96,-216.96 v 0 h 433.92 v 0 c 0,119.82 -97.14,216.96 -216.96,216.96" style="fill:#3f7cc8;fill-opacity:1;fill-rule:nonzero;stroke:none" transform="matrix(0.13333333,0,0,-0.13333333,0,666.66667)" />
      <path id="path90" d="m 1752.94,3494.36 v 0 c -119.83,0 -216.97,-97.14 -216.97,-216.96 v 0 h 433.93 v 0 c 0,119.82 -97.14,216.96 -216.96,216.96" style="fill:#3f7cc8;fill-opacity:1;fill-rule:nonzero;stroke:none" transform="matrix(0.13333333,0,0,-0.13333333,0,666.66667)" />
      <path id="path91" d="m 1319.01,3060.44 h 433.93 c 119.82,0 216.96,97.14 216.96,216.96 v 0 h -867.85 v 0 c 0,-119.82 97.14,-216.96 216.96,-216.96" style="fill:#f36717;fill-opacity:1;fill-rule:nonzero;stroke:none" transform="matrix(0.13333333,0,0,-0.13333333,0,666.66667)" />
      </g></svg>