<?xml version='1.0' encoding='utf-8'?>
<svg xmlns="http://www.w3.org/2000/svg" version="1.1" width="82.973" height="189.430" viewBox="864.369 425.964 82.973 189.430"><g id="object"><path id="path90" d="m 7060.06,1760.27 h -532.29 v 0 c 0,-146.99 119.15,-266.15 266.14,-266.15 v 0 c 146.99,0 266.15,119.16 266.15,266.15 v 0" style="fill:#ed1b29;fill-opacity:1;fill-rule:nonzero;stroke:none" transform="matrix(0.13333333,0,0,-0.13333333,0,666.66667)" />
      <path id="path91" d="m 6926.99,1760.27 h -266.15 v 0 c 0,-73.5 59.58,-133.08 133.07,-133.08 v 0 c 73.5,0 133.08,59.58 133.08,133.08 v 0" style="fill:#f57930;fill-opacity:1;fill-rule:nonzero;stroke:none" transform="matrix(0.13333333,0,0,-0.13333333,0,666.66667)" />
      <path id="path92" d="m 6527.77,1494.12 v 0 0 c 0,-146.98 119.15,-266.14 266.14,-266.14 v 0 0 c 0,146.99 -119.16,266.14 -266.14,266.14" style="fill:#f57930;fill-opacity:1;fill-rule:nonzero;stroke:none" transform="matrix(0.13333333,0,0,-0.13333333,0,666.66667)" />
      <path id="path93" d="m 6793.91,1227.98 c -146.97,0 -266.14,119.17 -266.14,266.14 l 266.14,-266.14" style="fill:#f57930;fill-opacity:1;fill-rule:nonzero;stroke:none" transform="matrix(0.13333333,0,0,-0.13333333,0,666.66667)" />
      <path id="path94" d="m 6793.91,1227.98 c -146.97,0 -266.14,119.17 -266.14,266.14 l 266.14,-266.14" style="fill:#f9aa0c;fill-opacity:1;fill-rule:nonzero;stroke:none" transform="matrix(0.13333333,0,0,-0.13333333,0,666.66667)" />
      <path id="path95" d="m 7060.05,1494.12 h 0.01 v 0 c 0,-146.98 -119.16,-266.14 -266.15,-266.14 v 0 0 c 0,146.99 119.16,266.14 266.14,266.14" style="fill:#f57930;fill-opacity:1;fill-rule:nonzero;stroke:none" transform="matrix(0.13333333,0,0,-0.13333333,0,666.66667)" />
      <path id="path96" d="m 6793.91,1227.98 c 146.97,0 266.15,119.17 266.15,266.14 l -266.15,-266.14" style="fill:#f57930;fill-opacity:1;fill-rule:nonzero;stroke:none" transform="matrix(0.13333333,0,0,-0.13333333,0,666.66667)" />
      <path id="path97" d="m 6793.91,1227.98 c 146.97,0 266.15,119.17 266.15,266.14 l -266.15,-266.14" style="fill:#f9aa0c;fill-opacity:1;fill-rule:nonzero;stroke:none" transform="matrix(0.13333333,0,0,-0.13333333,0,666.66667)" />
      <path id="path98" d="m 6527.77,1227.98 v 0 0 c 0,-147 119.15,-266.148 266.14,-266.148 v 0 0 c 0,146.988 -119.16,266.148 -266.14,266.148" style="fill:#592587;fill-opacity:1;fill-rule:nonzero;stroke:none" transform="matrix(0.13333333,0,0,-0.13333333,0,666.66667)" />
      <path id="path99" d="m 6793.91,961.832 c -146.97,0 -266.14,119.168 -266.14,266.148 l 266.14,-266.148" style="fill:#f57930;fill-opacity:1;fill-rule:nonzero;stroke:none" transform="matrix(0.13333333,0,0,-0.13333333,0,666.66667)" />
      <path id="path100" d="m 6793.91,961.832 c -146.97,0 -266.14,119.168 -266.14,266.148 l 266.14,-266.148" style="fill:#782d99;fill-opacity:1;fill-rule:nonzero;stroke:none" transform="matrix(0.13333333,0,0,-0.13333333,0,666.66667)" />
      <path id="path101" d="m 7060.05,1227.98 h 0.01 v 0 c 0,-147 -119.16,-266.148 -266.15,-266.148 v 0 0 c 0,146.988 119.16,266.148 266.14,266.148" style="fill:#592587;fill-opacity:1;fill-rule:nonzero;stroke:none" transform="matrix(0.13333333,0,0,-0.13333333,0,666.66667)" />
      <path id="path102" d="m 6793.91,961.832 c 146.97,0 266.15,119.168 266.15,266.148 L 6793.91,961.832" style="fill:#f57930;fill-opacity:1;fill-rule:nonzero;stroke:none" transform="matrix(0.13333333,0,0,-0.13333333,0,666.66667)" />
      <path id="path103" d="m 6793.91,961.832 c 146.97,0 266.15,119.168 266.15,266.148 L 6793.91,961.832" style="fill:#782d99;fill-opacity:1;fill-rule:nonzero;stroke:none" transform="matrix(0.13333333,0,0,-0.13333333,0,666.66667)" />
      <path id="path104" d="m 6527.77,961.832 v 0 0 c 0,-146.992 119.15,-266.152 266.14,-266.152 v 0 0 c 0,146.992 -119.16,266.152 -266.14,266.152" style="fill:#f57930;fill-opacity:1;fill-rule:nonzero;stroke:none" transform="matrix(0.13333333,0,0,-0.13333333,0,666.66667)" />
      <path id="path105" d="m 6793.91,695.68 c -146.97,0 -266.14,119.179 -266.14,266.152 L 6793.91,695.68" style="fill:#f57930;fill-opacity:1;fill-rule:nonzero;stroke:none" transform="matrix(0.13333333,0,0,-0.13333333,0,666.66667)" />
      <path id="path106" d="m 6793.91,695.68 c -146.97,0 -266.14,119.179 -266.14,266.152 L 6793.91,695.68" style="fill:#f9aa0c;fill-opacity:1;fill-rule:nonzero;stroke:none" transform="matrix(0.13333333,0,0,-0.13333333,0,666.66667)" />
      <path id="path107" d="m 7060.05,961.832 h 0.01 v 0 C 7060.06,814.84 6940.9,695.68 6793.91,695.68 v 0 0 c 0,146.992 119.16,266.152 266.14,266.152" style="fill:#f57930;fill-opacity:1;fill-rule:nonzero;stroke:none" transform="matrix(0.13333333,0,0,-0.13333333,0,666.66667)" />
      <path id="path108" d="m 6793.91,695.68 c 146.97,0 266.15,119.179 266.15,266.152 L 6793.91,695.68" style="fill:#f57930;fill-opacity:1;fill-rule:nonzero;stroke:none" transform="matrix(0.13333333,0,0,-0.13333333,0,666.66667)" />
      <path id="path109" d="m 6793.91,695.68 c 146.97,0 266.15,119.179 266.15,266.152 L 6793.91,695.68" style="fill:#f9aa0c;fill-opacity:1;fill-rule:nonzero;stroke:none" transform="matrix(0.13333333,0,0,-0.13333333,0,666.66667)" />
      <path id="path110" d="m 6527.77,695.68 v 0 0 c 0,-146.989 119.15,-266.141 266.14,-266.141 v 0 0 c 0,146.981 -119.16,266.141 -266.14,266.141" style="fill:#592587;fill-opacity:1;fill-rule:nonzero;stroke:none" transform="matrix(0.13333333,0,0,-0.13333333,0,666.66667)" />
      <path id="path111" d="m 6793.91,429.539 c -146.97,0 -266.14,119.172 -266.14,266.141 l 266.14,-266.141" style="fill:#f57930;fill-opacity:1;fill-rule:nonzero;stroke:none" transform="matrix(0.13333333,0,0,-0.13333333,0,666.66667)" />
      <path id="path112" d="m 6793.91,429.539 c -146.97,0 -266.14,119.172 -266.14,266.141 l 266.14,-266.141" style="fill:#782d99;fill-opacity:1;fill-rule:nonzero;stroke:none" transform="matrix(0.13333333,0,0,-0.13333333,0,666.66667)" />
      <path id="path113" d="m 7060.05,695.68 h 0.01 v 0 c 0,-146.989 -119.16,-266.141 -266.15,-266.141 v 0 0 c 0,146.981 119.16,266.141 266.14,266.141" style="fill:#592587;fill-opacity:1;fill-rule:nonzero;stroke:none" transform="matrix(0.13333333,0,0,-0.13333333,0,666.66667)" />
      <path id="path114" d="m 6793.91,429.539 c 146.97,0 266.15,119.172 266.15,266.141 L 6793.91,429.539" style="fill:#f57930;fill-opacity:1;fill-rule:nonzero;stroke:none" transform="matrix(0.13333333,0,0,-0.13333333,0,666.66667)" />
      <path id="path115" d="m 6793.91,429.539 c 146.97,0 266.15,119.172 266.15,266.141 L 6793.91,429.539" style="fill:#782d99;fill-opacity:1;fill-rule:nonzero;stroke:none" transform="matrix(0.13333333,0,0,-0.13333333,0,666.66667)" />
      </g></svg>