<?xml version='1.0' encoding='utf-8'?>
<svg xmlns="http://www.w3.org/2000/svg" version="1.1" width="232.727" height="195.939" viewBox="705.529 34.181 232.727 195.939"><g id="object"><path id="path34" d="m 5888.29,4698.64 v 0 c -152.39,0 -275.91,-123.53 -275.91,-275.91 v -275.9 h 551.82 v 275.9 c 0,152.38 -123.53,275.91 -275.91,275.91" style="fill:#2c3491;fill-opacity:1;fill-rule:nonzero;stroke:none" transform="matrix(0.13333333,0,0,-0.13333333,0,666.66667)" />
      <path id="path35" d="m 5693.19,4469.06 v 0 0 c 107.75,107.75 282.44,107.75 390.2,0 v 0 0 c -107.76,-107.75 -282.45,-107.75 -390.2,0" style="fill:#fafdff;fill-opacity:1;fill-rule:nonzero;stroke:none" transform="matrix(0.13333333,0,0,-0.13333333,0,666.66667)" />
      <path id="path36" d="m 5940.02,4474.47 c 0,28.57 -23.16,51.73 -51.73,51.73 -28.58,0 -51.73,-23.16 -51.73,-51.73 0,-28.58 23.15,-51.74 51.73,-51.74 28.57,0 51.73,23.16 51.73,51.74" style="fill:#f36717;fill-opacity:1;fill-rule:nonzero;stroke:none" transform="matrix(0.13333333,0,0,-0.13333333,0,666.66667)" />
      <path id="path37" d="m 5612.38,4422.73 -275.91,-275.9 h 275.91 z" style="fill:#f36717;fill-opacity:1;fill-rule:nonzero;stroke:none" transform="matrix(0.13333333,0,0,-0.13333333,0,666.66667)" />
      <path id="path38" d="m 6164.22,3319.1 h -235.63 c -174.64,0 -316.21,141.58 -316.21,316.22 v 511.51 h 1379.54 v -0.02 c 0,-457.13 -370.58,-827.71 -827.7,-827.71" style="fill:#f36717;fill-opacity:1;fill-rule:nonzero;stroke:none" transform="matrix(0.13333333,0,0,-0.13333333,0,666.66667)" />
      <path id="path39" d="M 6164.2,4146.83 V 3319.1 h -235.6 c -174.67,0 -316.22,141.56 -316.22,316.22 v 511.51 h 551.82" style="fill:#f36717;fill-opacity:1;fill-rule:nonzero;stroke:none" transform="matrix(0.13333333,0,0,-0.13333333,0,666.66667)" />
      <path id="path40" d="M 6164.2,4146.83 V 3319.1 h -235.6 c -174.67,0 -316.22,141.56 -316.22,316.22 v 511.51 h 551.82" style="fill:#3f7cc8;fill-opacity:1;fill-rule:nonzero;stroke:none" transform="matrix(0.13333333,0,0,-0.13333333,0,666.66667)" />
      <path id="path41" d="m 6164.2,4146.83 v -586.31 h 0.01 c 323.8,0 586.29,262.49 586.29,586.29 v 0.02 h -586.3" style="fill:#2c3491;fill-opacity:1;fill-rule:nonzero;stroke:none" transform="matrix(0.13333333,0,0,-0.13333333,0,666.66667)" />
      <path id="path42" d="m 6164.2,4146.83 v -379.38 h 0.01 c 209.52,0 379.36,169.85 379.36,379.37 v 0.01 H 6164.2" style="fill:#f36717;fill-opacity:1;fill-rule:nonzero;stroke:none" transform="matrix(0.13333333,0,0,-0.13333333,0,666.66667)" />
      <path id="path43" d="m 6164.2,4146.83 v -379.38 h -0.01 c -209.52,0 -379.37,169.85 -379.37,379.37 v 0.01 h 379.38" style="fill:#fafdff;fill-opacity:1;fill-rule:nonzero;stroke:none" transform="matrix(0.13333333,0,0,-0.13333333,0,666.66667)" />
      </g></svg>