<?xml version='1.0' encoding='utf-8'?>
<svg xmlns="http://www.w3.org/2000/svg" version="1.1" width="80.218" height="102.957" viewBox="66.177 521.565 80.218 102.957"><g id="object"><path id="path148" d="M 1052.96,1043.26 H 541.324 l 85.274,-682.178 h 341.09 l 85.272,682.178" style="fill:#3ebeb9;fill-opacity:1;fill-rule:nonzero;stroke:none" transform="matrix(0.13333333,0,0,-0.13333333,0,666.66667)" />
      <path id="path149" d="M 1052.96,1043.26 H 541.324 L 562.383,874.789 H 1031.9 l 21.06,168.471" style="fill:#286aaa;fill-opacity:1;fill-rule:nonzero;stroke:none" transform="matrix(0.13333333,0,0,-0.13333333,0,666.66667)" />
      <path id="path150" d="m 562.383,874.789 64.215,-513.707 h 341.09 L 1031.9,874.789 H 562.383" style="fill:#fab20b;fill-opacity:1;fill-rule:nonzero;stroke:none" transform="matrix(0.13333333,0,0,-0.13333333,0,666.66667)" />
      <path id="path151" d="m 920.422,647.102 c 0,67.687 -54.879,122.57 -122.578,122.57 -67.696,0 -122.578,-54.883 -122.578,-122.57 0,-67.704 54.882,-122.582 122.578,-122.582 67.699,0 122.578,54.878 122.578,122.582" style="fill:#fefefe;fill-opacity:1;fill-rule:nonzero;stroke:none" transform="matrix(0.13333333,0,0,-0.13333333,0,666.66667)" />
      <path id="path152" d="m 838.703,647.102 c 0,22.558 -18.293,40.859 -40.859,40.859 -22.563,0 -40.86,-18.301 -40.86,-40.859 0,-22.571 18.297,-40.864 40.86,-40.864 22.566,0 40.859,18.293 40.859,40.864" style="fill:#286aaa;fill-opacity:1;fill-rule:nonzero;stroke:none" transform="matrix(0.13333333,0,0,-0.13333333,0,666.66667)" />
      </g></svg>