<?xml version='1.0' encoding='utf-8'?>
<svg xmlns="http://www.w3.org/2000/svg" version="1.1" width="195.938" height="218.931" viewBox="349.148 413.555 195.938 218.931"><g id="object"><path id="path63" d="m 2663.61,646.25 c 0,190.469 154.41,344.879 344.89,344.879 190.47,0 344.88,-154.41 344.88,-344.879 h -689.77" style="fill:#f36717;fill-opacity:1;fill-rule:nonzero;stroke:none" transform="matrix(0.13333333,0,0,-0.13333333,0,666.66667)" />
      <path id="path64" d="M 3008.5,991.129 V 646.25 h -344.89 c 0,190.449 154.43,344.879 344.89,344.879" style="fill:#2c3491;fill-opacity:1;fill-rule:nonzero;stroke:none" transform="matrix(0.13333333,0,0,-0.13333333,0,666.66667)" />
      <path id="path65" d="M 3008.5,991.129 V 646.25 h -344.89 c 0,190.449 154.43,344.879 344.89,344.879" style="fill:#2c3491;fill-opacity:1;fill-rule:nonzero;stroke:none" transform="matrix(0.13333333,0,0,-0.13333333,0,666.66667)" />
      <path id="path66" d="m 2836.06,646.25 c 0,95.23 77.2,172.441 172.44,172.441 95.23,0 172.44,-77.211 172.44,-172.441 h -344.88" style="fill:#3f7cc8;fill-opacity:1;fill-rule:nonzero;stroke:none" transform="matrix(0.13333333,0,0,-0.13333333,0,666.66667)" />
      <path id="path67" d="M 3094.72,301.352 H 2922.28 V 646.25 h 172.44 V 301.352" style="fill:#3f7cc8;fill-opacity:1;fill-rule:nonzero;stroke:none" transform="matrix(0.13333333,0,0,-0.13333333,0,666.66667)" />
      <path id="path68" d="M 3094.72,301.352 H 3008.5 V 646.25 h 86.22 V 301.352" style="fill:#2c3491;fill-opacity:1;fill-rule:nonzero;stroke:none" transform="matrix(0.13333333,0,0,-0.13333333,0,666.66667)" />
      <path id="path69" d="m 3353.38,646.25 c 0,190.469 154.41,344.879 344.89,344.879 190.48,0 344.88,-154.41 344.88,-344.879 h -689.77" style="fill:#f36717;fill-opacity:1;fill-rule:nonzero;stroke:none" transform="matrix(0.13333333,0,0,-0.13333333,0,666.66667)" />
      <path id="path70" d="M 3698.27,991.129 V 646.25 h -344.89 c 0,190.449 154.43,344.879 344.89,344.879" style="fill:#2c3491;fill-opacity:1;fill-rule:nonzero;stroke:none" transform="matrix(0.13333333,0,0,-0.13333333,0,666.66667)" />
      <path id="path71" d="M 3698.27,991.129 V 646.25 h -344.89 c 0,190.449 154.43,344.879 344.89,344.879" style="fill:#2c3491;fill-opacity:1;fill-rule:nonzero;stroke:none" transform="matrix(0.13333333,0,0,-0.13333333,0,666.66667)" />
      <path id="path72" d="m 3525.83,646.25 c 0,95.23 77.2,172.441 172.44,172.441 95.23,0 172.44,-77.211 172.44,-172.441 h -344.88" style="fill:#3f7cc8;fill-opacity:1;fill-rule:nonzero;stroke:none" transform="matrix(0.13333333,0,0,-0.13333333,0,666.66667)" />
      <path id="path73" d="M 3784.49,301.352 H 3612.05 V 646.25 h 172.44 V 301.352" style="fill:#3f7cc8;fill-opacity:1;fill-rule:nonzero;stroke:none" transform="matrix(0.13333333,0,0,-0.13333333,0,666.66667)" />
      <path id="path74" d="m 3784.49,301.352 h -86.22 V 646.25 h 86.22 V 301.352" style="fill:#2c3491;fill-opacity:1;fill-rule:nonzero;stroke:none" transform="matrix(0.13333333,0,0,-0.13333333,0,666.66667)" />
      <path id="path75" d="m 3107.38,1680.9 h -98.88 v -98.88 c 0,-135.87 110.13,-246.01 246,-246.01 h 98.88 v 98.89 c 0,135.86 -110.14,246 -246,246" style="fill:#f36717;fill-opacity:1;fill-rule:nonzero;stroke:none" transform="matrix(0.13333333,0,0,-0.13333333,0,666.66667)" />
      <path id="path76" d="m 3599.39,1680.9 h 98.88 v -98.88 c 0,-135.87 -110.14,-246.01 -246,-246.01 h -98.89 v 98.89 c 0,135.86 110.14,246 246.01,246" style="fill:#3f7cc8;fill-opacity:1;fill-rule:nonzero;stroke:none" transform="matrix(0.13333333,0,0,-0.13333333,0,666.66667)" />
      <path id="path77" d="m 3439.6,1767.12 c 0,47.61 -38.6,86.22 -86.22,86.22 -47.62,0 -86.22,-38.61 -86.22,-86.22 0,-47.62 38.6,-86.22 86.22,-86.22 47.62,0 86.22,38.6 86.22,86.22" style="fill:#2c3491;fill-opacity:1;fill-rule:nonzero;stroke:none" transform="matrix(0.13333333,0,0,-0.13333333,0,666.66667)" />
      <path id="path78" d="m 3224.05,1724.01 c 0,47.62 -38.6,86.22 -86.22,86.22 -47.62,0 -86.22,-38.6 -86.22,-86.22 h 172.44" style="fill:#f36717;fill-opacity:1;fill-rule:nonzero;stroke:none" transform="matrix(0.13333333,0,0,-0.13333333,0,666.66667)" />
      <path id="path79" d="m 3655.16,1724.01 c 0,47.62 -38.61,86.22 -86.22,86.22 -47.63,0 -86.22,-38.6 -86.22,-86.22 h 172.44" style="fill:#f36717;fill-opacity:1;fill-rule:nonzero;stroke:none" transform="matrix(0.13333333,0,0,-0.13333333,0,666.66667)" />
      <path id="path80" d="m 3008.5,1336.01 v 0 0 c 0,-190.48 154.41,-344.881 344.88,-344.881 v 0 0 c 0,190.471 -154.41,344.881 -344.88,344.881" style="fill:#f36717;fill-opacity:1;fill-rule:nonzero;stroke:none" transform="matrix(0.13333333,0,0,-0.13333333,0,666.66667)" />
      <path id="path81" d="m 3698.27,1336.01 v 0 0 c 0,-190.48 -154.41,-344.881 -344.89,-344.881 v 0 0 c 0,190.471 154.41,344.881 344.89,344.881" style="fill:#3f7cc8;fill-opacity:1;fill-rule:nonzero;stroke:none" transform="matrix(0.13333333,0,0,-0.13333333,0,666.66667)" />
      </g></svg>