<?xml version='1.0' encoding='utf-8'?>
<svg xmlns="http://www.w3.org/2000/svg" version="1.1" width="287.908" height="160.998" viewBox="61.744 34.181 287.908 160.998"><g id="object"><path id="path82" d="m 1491.31,4218.42 v 0 c -271.14,271.13 -710.732,271.13 -981.865,0 v 0 0 c 271.133,-271.13 710.725,-271.13 981.865,0 v 0" style="fill:#2c3491;fill-opacity:1;fill-rule:nonzero;stroke:none" transform="matrix(0.13333333,0,0,-0.13333333,0,666.66667)" />
      <path id="path83" d="m 1173.94,4218.42 c 0,95.86 -77.71,173.57 -173.57,173.57 -95.858,0 -173.565,-77.71 -173.565,-173.57 0,-95.86 77.707,-173.57 173.565,-173.57 95.86,0 173.57,77.71 173.57,173.57" style="fill:#f36717;fill-opacity:1;fill-rule:nonzero;stroke:none" transform="matrix(0.13333333,0,0,-0.13333333,0,666.66667)" />
      <path id="path84" d="m 1087.16,4218.42 c 0,47.93 -38.86,86.79 -86.79,86.79 -47.929,0 -86.78,-38.86 -86.78,-86.79 0,-47.93 38.851,-86.78 86.78,-86.78 47.93,0 86.79,38.85 86.79,86.78" style="fill:#2c3491;fill-opacity:1;fill-rule:nonzero;stroke:none" transform="matrix(0.13333333,0,0,-0.13333333,0,666.66667)" />
      <path id="path85" d="m 2577.39,4218.42 v 0 c -271.13,271.13 -710.72,271.13 -981.86,0 v 0 0 c 271.14,-271.13 710.73,-271.13 981.86,0 v 0" style="fill:#2c3491;fill-opacity:1;fill-rule:nonzero;stroke:none" transform="matrix(0.13333333,0,0,-0.13333333,0,666.66667)" />
      <path id="path86" d="m 2260.03,4218.42 c 0,95.86 -77.71,173.57 -173.57,173.57 -95.86,0 -173.57,-77.71 -173.57,-173.57 0,-95.86 77.71,-173.57 173.57,-173.57 95.86,0 173.57,77.71 173.57,173.57" style="fill:#f36717;fill-opacity:1;fill-rule:nonzero;stroke:none" transform="matrix(0.13333333,0,0,-0.13333333,0,666.66667)" />
      <path id="path87" d="m 2173.25,4218.42 c 0,47.93 -38.86,86.79 -86.79,86.79 -47.93,0 -86.78,-38.86 -86.78,-86.79 0,-47.93 38.85,-86.78 86.78,-86.78 47.93,0 86.79,38.85 86.79,86.78" style="fill:#2c3491;fill-opacity:1;fill-rule:nonzero;stroke:none" transform="matrix(0.13333333,0,0,-0.13333333,0,666.66667)" />
      <path id="path88" d="m 1535.97,4188.64 -347.14,-433.92 h 694.28 z" style="fill:#3f7cc8;fill-opacity:1;fill-rule:nonzero;stroke:none" transform="matrix(0.13333333,0,0,-0.13333333,0,666.66667)" />
      <path id="path100" d="m 1188.83,3754.72 347.14,-173.57 347.14,173.57 z" style="fill:#2c3491;fill-opacity:1;fill-rule:nonzero;stroke:none" transform="matrix(0.13333333,0,0,-0.13333333,0,666.66667)" />
      <path id="path101" d="m 1284.07,4439.98 c 0,142.86 115.81,258.66 258.67,258.66 142.85,0 258.66,-115.8 258.66,-258.66 h -517.33" style="fill:#2c3491;fill-opacity:1;fill-rule:nonzero;stroke:none" transform="matrix(0.13333333,0,0,-0.13333333,0,666.66667)" />
      <path id="path102" d="m 1456.52,4439.98 c 0,47.62 38.6,86.22 86.22,86.22 47.61,0 86.22,-38.6 86.22,-86.22 h -172.44" style="fill:#3f7cc8;fill-opacity:1;fill-rule:nonzero;stroke:none" transform="matrix(0.13333333,0,0,-0.13333333,0,666.66667)" />
      <path id="path103" d="m 508.078,4698.64 v 0 -258.66 h 258.668 v 0 c 0,142.86 -115.812,258.66 -258.668,258.66" style="fill:#f36717;fill-opacity:1;fill-rule:nonzero;stroke:none" transform="matrix(0.13333333,0,0,-0.13333333,0,666.66667)" />
      <path id="path104" d="m 2577.39,4698.64 v 0 -258.66 h -258.66 v 0 c 0,142.86 115.8,258.66 258.66,258.66" style="fill:#f36717;fill-opacity:1;fill-rule:nonzero;stroke:none" transform="matrix(0.13333333,0,0,-0.13333333,0,666.66667)" />
      </g></svg>