<?xml version='1.0' encoding='utf-8'?>
<svg xmlns="http://www.w3.org/2000/svg" version="1.1" width="268.917" height="276.059" viewBox="48.186 39.269 268.917 276.059"><g id="object"><path id="path131" d="m 1947.9,3836.17 h -770.76 v -770.75 h 770.76 v 770.75" style="fill:#f57930;fill-opacity:1;fill-rule:nonzero;stroke:none" transform="matrix(0.13333333,0,0,-0.13333333,0,666.66667)" />
      <path id="path132" d="m 1947.9,3065.42 h -770.76 v -385.38 h 385.38 c 212.84,0 385.38,172.54 385.38,385.38 v 0" style="fill:#782d99;fill-opacity:1;fill-rule:nonzero;stroke:none" transform="matrix(0.13333333,0,0,-0.13333333,0,666.66667)" />
      <path id="path133" d="m 1947.9,4467.8 h -381.52 c -214.97,0 -389.24,-174.27 -389.24,-389.24 v -381.51 h 770.76 v 770.75" style="fill:#f57930;fill-opacity:1;fill-rule:nonzero;stroke:none" transform="matrix(0.13333333,0,0,-0.13333333,0,666.66667)" />
      <path id="path134" d="m 1947.9,4082.43 h 385.37 v 0 c 0,212.83 -172.54,385.37 -385.37,385.37 v 0 -385.37" style="fill:#782d99;fill-opacity:1;fill-rule:nonzero;stroke:none" transform="matrix(0.13333333,0,0,-0.13333333,0,666.66667)" />
      <path id="path135" d="M 2236.93,4082.43 H 1947.9 v -192.7 h 96.34 c 106.42,0 192.69,86.27 192.69,192.7 v 0" style="fill:#ed1b29;fill-opacity:1;fill-rule:nonzero;stroke:none" transform="matrix(0.13333333,0,0,-0.13333333,0,666.66667)" />
      <path id="path136" d="m 1755.21,4106.51 c 0,93.12 -75.49,168.6 -168.6,168.6 -93.12,0 -168.61,-75.48 -168.61,-168.6 0,-93.12 75.49,-168.6 168.61,-168.6 93.11,0 168.6,75.48 168.6,168.6" style="fill:#fffbf4;fill-opacity:1;fill-rule:nonzero;stroke:none" transform="matrix(0.13333333,0,0,-0.13333333,0,666.66667)" />
      <path id="path137" d="m 1658.86,4106.51 c 0,39.9 -32.35,72.26 -72.25,72.26 -39.91,0 -72.26,-32.36 -72.26,-72.26 0,-39.91 32.35,-72.26 72.26,-72.26 39.9,0 72.25,32.35 72.25,72.26" style="fill:#ed1b29;fill-opacity:1;fill-rule:nonzero;stroke:none" transform="matrix(0.13333333,0,0,-0.13333333,0,666.66667)" />
      <path id="path138" d="m 1947.9,3836.17 h -770.76 v -770.75 c 425.68,0 770.76,345.07 770.76,770.75 v 0" style="fill:#ed1b29;fill-opacity:1;fill-rule:nonzero;stroke:none" transform="matrix(0.13333333,0,0,-0.13333333,0,666.66667)" />
      <path id="path139" d="m 1670.9,3836.17 h -493.76 v -493.76 c 272.7,0 493.76,221.06 493.76,493.76 v 0" style="fill:#782d99;fill-opacity:1;fill-rule:nonzero;stroke:none" transform="matrix(0.13333333,0,0,-0.13333333,0,666.66667)" />
      <path id="path140" d="m 406.395,3065.42 h 770.745 v 770.75 c -425.667,0 -770.745,-345.08 -770.745,-770.75 v 0" style="fill:#f57930;fill-opacity:1;fill-rule:nonzero;stroke:none" transform="matrix(0.13333333,0,0,-0.13333333,0,666.66667)" />
      <path id="path141" d="m 1177.14,3065.42 v -385.38 h 385.38 z" style="fill:#f57930;fill-opacity:1;fill-rule:nonzero;stroke:none" transform="matrix(0.13333333,0,0,-0.13333333,0,666.66667)" />
      <path id="path142" d="m 1177.14,3065.42 v -385.38 h 385.38 z" style="fill:#f57930;fill-opacity:1;fill-rule:nonzero;stroke:none" transform="matrix(0.13333333,0,0,-0.13333333,0,666.66667)" />
      <path id="path143" d="M 1755.21,4660.48 H 1562.52 V 4467.8 h 385.38 v 0 c 0,106.41 -86.27,192.68 -192.69,192.68" style="fill:#ed1b29;fill-opacity:1;fill-rule:nonzero;stroke:none" transform="matrix(0.13333333,0,0,-0.13333333,0,666.66667)" />
      <path id="path209" d="m 792.48,4295.73 c 47.141,-47.13 47.141,-123.55 0,-170.69 -47.136,-47.14 -123.558,-47.14 -170.695,0 -47.137,47.14 -47.137,123.56 0,170.69 47.137,47.14 123.559,47.14 170.695,0" style="fill:#782d99;fill-opacity:1;fill-rule:nonzero;stroke:none" transform="matrix(0.13333333,0,0,-0.13333333,0,666.66667)" />
      <path id="path210" d="m 1091.2,4295.73 c 47.14,-47.13 47.14,-123.55 0,-170.69 -47.14,-47.14 -123.555,-47.14 -170.696,0 -47.137,47.14 -47.137,123.56 0,170.69 47.141,47.14 123.556,47.14 170.696,0" style="fill:#782d99;fill-opacity:1;fill-rule:nonzero;stroke:none" transform="matrix(0.13333333,0,0,-0.13333333,0,666.66667)" />
      <path id="path211" d="m 771.145,4146.38 c 47.136,47.13 123.558,47.13 170.699,0 47.133,-47.15 47.133,-123.57 0,-170.7 -47.141,-47.14 -123.563,-47.14 -170.699,0 -47.133,47.13 -47.133,123.55 0,170.7" style="fill:#782d99;fill-opacity:1;fill-rule:nonzero;stroke:none" transform="matrix(0.13333333,0,0,-0.13333333,0,666.66667)" />
      <path id="path212" d="m 771.145,4445.09 c 47.136,47.14 123.558,47.14 170.699,0 47.133,-47.13 47.133,-123.56 0,-170.7 -47.141,-47.13 -123.563,-47.13 -170.699,0 -47.133,47.14 -47.133,123.57 0,170.7" style="fill:#782d99;fill-opacity:1;fill-rule:nonzero;stroke:none" transform="matrix(0.13333333,0,0,-0.13333333,0,666.66667)" />
      <path id="path213" d="m 931.172,4285.07 c 41.246,-41.25 41.246,-108.12 0,-149.36 -41.242,-41.25 -108.113,-41.25 -149.359,0 -41.247,41.24 -41.247,108.11 0,149.36 41.246,41.24 108.117,41.24 149.359,0" style="fill:#fffbf4;fill-opacity:1;fill-rule:nonzero;stroke:none" transform="matrix(0.13333333,0,0,-0.13333333,0,666.66667)" />
      <path id="path214" d="m 888.496,4242.39 c 17.676,-17.68 17.676,-46.34 0,-64.01 -17.676,-17.68 -46.332,-17.68 -64.008,0 -17.675,17.67 -17.675,46.33 0,64.01 17.676,17.68 46.332,17.68 64.008,0" style="fill:#ed1b29;fill-opacity:1;fill-rule:nonzero;stroke:none" transform="matrix(0.13333333,0,0,-0.13333333,0,666.66667)" />
      </g></svg>