<?xml version='1.0' encoding='utf-8'?>
<svg xmlns="http://www.w3.org/2000/svg" version="1.1" width="65.231" height="38.615" viewBox="477.151 541.295 65.231 38.615"><g id="object"><path id="path53" d="m 3954.26,895.289 h 68.6 v -68.59 c 0,-72.359 -58.66,-131.019 -131.03,-131.019 h -68.58 v 68.59 c 0,72.359 58.65,131.019 131.01,131.019" style="fill:#f9aa0c;fill-opacity:1;fill-rule:nonzero;stroke:none" transform="matrix(0.13333333,0,0,-0.13333333,0,666.66667)" />
      <path id="path54" d="M 4022.86,895.289 3823.25,695.68 v 68.601 c 0,72.391 58.62,131.008 130.99,131.008 h 68.62" style="fill:#f57930;fill-opacity:1;fill-rule:nonzero;stroke:none" transform="matrix(0.13333333,0,0,-0.13333333,0,666.66667)" />
      <path id="path55" d="m 3692.23,895.289 h -68.6 v -68.59 c 0,-72.359 58.67,-131.019 131.02,-131.019 h 68.6 v 68.59 c 0,72.359 -58.66,131.019 -131.02,131.019" style="fill:#f9aa0c;fill-opacity:1;fill-rule:nonzero;stroke:none" transform="matrix(0.13333333,0,0,-0.13333333,0,666.66667)" />
      <path id="path56" d="M 3823.25,764.281 V 695.68 l -199.62,199.609 h 68.61 c 72.38,0 131.01,-58.617 131.01,-131.008" style="fill:#782d99;fill-opacity:1;fill-rule:nonzero;stroke:none" transform="matrix(0.13333333,0,0,-0.13333333,0,666.66667)" />
      <path id="path57" d="M 3823.25,764.281 V 695.68 l -199.62,199.609 h 68.61 c 72.38,0 131.01,-58.617 131.01,-131.008" style="fill:#f57930;fill-opacity:1;fill-rule:nonzero;stroke:none" transform="matrix(0.13333333,0,0,-0.13333333,0,666.66667)" />
      <path id="path58" d="M 4022.86,895.289 3823.25,695.68 v 68.601 c 0,72.391 58.62,131.008 130.99,131.008 h 68.62" style="fill:#f57930;fill-opacity:1;fill-rule:nonzero;stroke:none" transform="matrix(0.13333333,0,0,-0.13333333,0,666.66667)" />
      </g></svg>