<?xml version='1.0' encoding='utf-8'?>
<svg xmlns="http://www.w3.org/2000/svg" version="1.1" width="115.078" height="218.156" viewBox="522.669 412.313 115.078 218.156"><g id="object"><path id="path33" d="m 4158.29,896.301 h 193.27 v 0 c 0,106.729 -86.53,193.269 -193.27,193.269 h -193.27 v 0 c 0,-106.742 86.53,-193.269 193.27,-193.269" style="fill:#f89b0f;fill-opacity:1;fill-rule:nonzero;stroke:none" transform="matrix(0.13333333,0,0,-0.13333333,0,666.66667)" />
      <path id="path34" d="m 4544.83,896.301 h -193.27 v 0 c 0,106.729 86.53,193.269 193.27,193.269 h 193.27 v 0 c 0,-106.742 -86.53,-193.269 -193.27,-193.269" style="fill:#2e71ab;fill-opacity:1;fill-rule:nonzero;stroke:none" transform="matrix(0.13333333,0,0,-0.13333333,0,666.66667)" />
      <path id="path35" d="m 4158.29,606.391 h 193.27 v 0 c 0,106.738 -86.53,193.269 -193.27,193.269 h -193.27 v 0 c 0,-106.738 86.53,-193.269 193.27,-193.269" style="fill:#2e71ab;fill-opacity:1;fill-rule:nonzero;stroke:none" transform="matrix(0.13333333,0,0,-0.13333333,0,666.66667)" />
      <path id="path36" d="m 4544.83,606.391 h -193.27 v 0 c 0,106.738 86.53,193.269 193.27,193.269 h 193.27 v 0 c 0,-106.738 -86.53,-193.269 -193.27,-193.269" style="fill:#ef304d;fill-opacity:1;fill-rule:nonzero;stroke:none" transform="matrix(0.13333333,0,0,-0.13333333,0,666.66667)" />
      <path id="path37" d="m 4158.29,316.48 h 193.27 v 0 c 0,106.739 -86.53,193.27 -193.27,193.27 h -193.27 v 0 c 0,-106.738 86.53,-193.27 193.27,-193.27" style="fill:#f89b0f;fill-opacity:1;fill-rule:nonzero;stroke:none" transform="matrix(0.13333333,0,0,-0.13333333,0,666.66667)" />
      <path id="path38" d="m 4544.83,316.48 h -193.27 v 0 c 0,106.739 86.53,193.27 193.27,193.27 h 193.27 v 0 c 0,-106.738 -86.53,-193.27 -193.27,-193.27" style="fill:#2e71ab;fill-opacity:1;fill-rule:nonzero;stroke:none" transform="matrix(0.13333333,0,0,-0.13333333,0,666.66667)" />
      <path id="path39" d="m 4369.45,316.48 h -35.79 v 966.36 h 35.79 V 316.48" style="fill:#2e71ab;fill-opacity:1;fill-rule:nonzero;stroke:none" transform="matrix(0.13333333,0,0,-0.13333333,0,666.66667)" />
      <path id="path40" d="m 3965.02,1862.65 v 0 -386.54 c 0,-213.49 173.05,-386.54 386.54,-386.54 v 0 386.54 c 0,213.49 -173.07,386.54 -386.54,386.54" style="fill:#ef304d;fill-opacity:1;fill-rule:nonzero;stroke:none" transform="matrix(0.13333333,0,0,-0.13333333,0,666.66667)" />
      <path id="path41" d="m 4738.1,1862.65 v 0 -386.54 c 0,-213.49 -173.06,-386.54 -386.54,-386.54 v 0 386.54 c 0,213.49 173.06,386.54 386.54,386.54" style="fill:#f89b0f;fill-opacity:1;fill-rule:nonzero;stroke:none" transform="matrix(0.13333333,0,0,-0.13333333,0,666.66667)" />
      </g></svg>