<?xml version='1.0' encoding='utf-8'?>
<svg xmlns="http://www.w3.org/2000/svg" version="1.1" width="467.287" height="288.062" viewBox="484.528 51.272 467.287 288.062"><g id="object"><path id="path71" d="m 3945.1,4061.66 v 0 c -146.99,0 -266.14,-119.16 -266.14,-266.15 v 0 c 0,-146.99 119.15,-266.15 266.14,-266.15 h 266.15 v 266.15 c 0,146.99 -119.15,266.15 -266.15,266.15" style="fill:#f57930;fill-opacity:1;fill-rule:nonzero;stroke:none" transform="matrix(0.13333333,0,0,-0.13333333,0,666.66667)" />
      <path id="path72" d="m 3945.1,3603.29 c -105.98,0 -192.21,86.23 -192.21,192.22 0,105.99 86.23,192.22 192.21,192.22 105.99,0 192.22,-86.23 192.22,-192.22 V 3603.29 H 3945.1" style="fill:#ed1b29;fill-opacity:1;fill-rule:nonzero;stroke:none" transform="matrix(0.13333333,0,0,-0.13333333,0,666.66667)" />
      <path id="path73" d="m 4477.4,4061.66 v 0 c 146.99,0 266.14,-119.16 266.14,-266.15 v 0 c 0,-146.99 -119.15,-266.15 -266.14,-266.15 h -266.15 v 266.15 c 0,146.99 119.16,266.15 266.15,266.15" style="fill:#ed1b29;fill-opacity:1;fill-rule:nonzero;stroke:none" transform="matrix(0.13333333,0,0,-0.13333333,0,666.66667)" />
      <path id="path74" d="m 4285.18,3603.29 v 192.22 c 0,105.99 86.23,192.22 192.22,192.22 105.99,0 192.22,-86.23 192.22,-192.22 0,-105.99 -86.23,-192.22 -192.22,-192.22 h -192.22" style="fill:#782d99;fill-opacity:1;fill-rule:nonzero;stroke:none" transform="matrix(0.13333333,0,0,-0.13333333,0,666.66667)" />
      <path id="path75" d="m 4477.4,2997.07 v 0 c 146.99,0 266.14,119.16 266.14,266.14 v 0 c 0,146.99 -119.15,266.15 -266.14,266.15 h -266.15 v -266.15 c 0,-146.98 119.16,-266.14 266.15,-266.14" style="fill:#f57930;fill-opacity:1;fill-rule:nonzero;stroke:none" transform="matrix(0.13333333,0,0,-0.13333333,0,666.66667)" />
      <path id="path76" d="m 4477.4,3071 c -105.99,0 -192.22,86.22 -192.22,192.21 v 192.22 h 192.22 c 105.99,0 192.22,-86.22 192.22,-192.22 0,-105.99 -86.23,-192.21 -192.22,-192.21" style="fill:#ed1b29;fill-opacity:1;fill-rule:nonzero;stroke:none" transform="matrix(0.13333333,0,0,-0.13333333,0,666.66667)" />
      <path id="path77" d="m 3945.1,2997.07 v 0 c -146.99,0 -266.14,119.16 -266.14,266.14 v 0 c 0,146.99 119.15,266.15 266.14,266.15 h 266.15 v -266.15 c 0,-146.98 -119.15,-266.14 -266.15,-266.14" style="fill:#ed1b29;fill-opacity:1;fill-rule:nonzero;stroke:none" transform="matrix(0.13333333,0,0,-0.13333333,0,666.66667)" />
      <path id="path78" d="m 3945.1,3071 c -105.98,0 -192.21,86.22 -192.21,192.21 0,106 86.23,192.22 192.21,192.22 h 192.22 v -192.22 c 0,-105.99 -86.23,-192.21 -192.22,-192.21" style="fill:#782d99;fill-opacity:1;fill-rule:nonzero;stroke:none" transform="matrix(0.13333333,0,0,-0.13333333,0,666.66667)" />
      <path id="path79" d="m 4543.93,3529.36 c 0,183.74 -148.94,332.68 -332.68,332.68 -183.73,0 -332.68,-148.94 -332.68,-332.68 0,-183.73 148.95,-332.68 332.68,-332.68 183.74,0 332.68,148.95 332.68,332.68" style="fill:#f9aa0c;fill-opacity:1;fill-rule:nonzero;stroke:none" transform="matrix(0.13333333,0,0,-0.13333333,0,666.66667)" />
      <path id="path80" d="m 4410.87,3529.36 c 0,110.24 -89.38,199.61 -199.62,199.61 -110.24,0 -199.61,-89.37 -199.61,-199.61 0,-110.24 89.37,-199.61 199.61,-199.61 110.24,0 199.62,89.37 199.62,199.61" style="fill:#fffbf4;fill-opacity:1;fill-rule:nonzero;stroke:none" transform="matrix(0.13333333,0,0,-0.13333333,0,666.66667)" />
      <path id="path81" d="m 4322.14,3529.36 c 0,61.25 -49.64,110.9 -110.89,110.9 -61.24,0 -110.89,-49.65 -110.89,-110.9 0,-61.24 49.65,-110.89 110.89,-110.89 61.25,0 110.89,49.65 110.89,110.89" style="fill:#ed1b29;fill-opacity:1;fill-rule:nonzero;stroke:none" transform="matrix(0.13333333,0,0,-0.13333333,0,666.66667)" />
      <path id="path144" d="M 6723.88,4052.85 H 5097.09 v -996.96 c 0,-225.33 182.66,-408 407.99,-408 h 810.8 c 225.34,0 408,182.67 408,408 v 996.96" style="fill:#f9aa0c;fill-opacity:1;fill-rule:nonzero;stroke:none" transform="matrix(0.13333333,0,0,-0.13333333,0,666.66667)" />
      <path id="path145" d="M 6723.88,3904.96 H 5097.09 v 0 c 0,204.19 165.53,369.72 369.72,369.72 h 887.35 c 204.19,0 369.72,-165.53 369.72,-369.72 v 0" style="fill:#f57930;fill-opacity:1;fill-rule:nonzero;stroke:none" transform="matrix(0.13333333,0,0,-0.13333333,0,666.66667)" />
      <path id="path146" d="m 4727.36,4570.46 h 282.67 c 211.43,0 382.84,-171.4 382.84,-382.84 v -282.66 h -282.66 c -211.44,0 -382.85,171.4 -382.85,382.84 v 282.66" style="fill:#f57930;fill-opacity:1;fill-rule:nonzero;stroke:none" transform="matrix(0.13333333,0,0,-0.13333333,0,666.66667)" />
      <path id="path147" d="m 5023.14,4274.68 h 157.04 c 117.46,0 212.69,-95.22 212.69,-212.68 v -157.04 h -157.03 c -117.47,0 -212.7,95.22 -212.7,212.69 v 157.03" style="fill:#592587;fill-opacity:1;fill-rule:nonzero;stroke:none" transform="matrix(0.13333333,0,0,-0.13333333,0,666.66667)" />
      <path id="path148" d="m 7093.61,4570.46 h -282.67 c -211.43,0 -382.84,-171.4 -382.84,-382.84 v -282.66 h 282.67 c 211.43,0 382.84,171.4 382.84,382.84 v 282.66" style="fill:#f57930;fill-opacity:1;fill-rule:nonzero;stroke:none" transform="matrix(0.13333333,0,0,-0.13333333,0,666.66667)" />
      <path id="path149" d="M 6797.83,4274.68 H 6640.8 c -117.47,0 -212.7,-95.22 -212.7,-212.68 v -157.04 h 157.03 c 117.47,0 212.7,95.22 212.7,212.69 v 157.03" style="fill:#592587;fill-opacity:1;fill-rule:nonzero;stroke:none" transform="matrix(0.13333333,0,0,-0.13333333,0,666.66667)" />
      <path id="path150" d="m 6058.37,2761.44 v -113.55 c 0,-40.83 -16.59,-77.81 -43.3,-104.59 -26.78,-26.7 -63.76,-43.3 -104.59,-43.3 -81.67,0 -147.89,66.22 -147.89,147.89 v 113.55 c 22.44,12.98 43.06,28.75 61.29,46.99 53.49,53.57 86.6,127.52 86.6,209.18 0,-109.43 59.49,-205.07 147.89,-256.17" style="fill:#ed1b29;fill-opacity:1;fill-rule:nonzero;stroke:none" transform="matrix(0.13333333,0,0,-0.13333333,0,666.66667)" />
      <path id="path151" d="m 5910.48,3683.12 -517.61,591.56 h 517.61 z" style="fill:#592587;fill-opacity:1;fill-rule:nonzero;stroke:none" transform="matrix(0.13333333,0,0,-0.13333333,0,666.66667)" />
      <path id="path152" d="m 5910.48,3683.12 517.62,591.56 h -517.62 z" style="fill:#782d99;fill-opacity:1;fill-rule:nonzero;stroke:none" transform="matrix(0.13333333,0,0,-0.13333333,0,666.66667)" />
      <path id="path153" d="m 5762.59,3609.18 c 0,-122.52 -99.31,-221.84 -221.83,-221.84 -122.52,0 -221.84,99.32 -221.84,221.84 0,122.52 99.32,221.83 221.84,221.83 122.52,0 221.83,-99.31 221.83,-221.83" style="fill:#782d99;fill-opacity:1;fill-rule:nonzero;stroke:none" transform="matrix(0.13333333,0,0,-0.13333333,0,666.66667)" />
      <path id="path154" d="m 5596.22,3609.18 c 0,-30.63 -24.83,-55.46 -55.46,-55.46 -30.63,0 -55.46,24.83 -55.46,55.46 0,30.63 24.83,55.46 55.46,55.46 30.63,0 55.46,-24.83 55.46,-55.46" style="fill:#fffbf4;fill-opacity:1;fill-rule:nonzero;stroke:none" transform="matrix(0.13333333,0,0,-0.13333333,0,666.66667)" />
      <path id="path155" d="m 6520.53,3609.18 c 0,-122.52 -99.31,-221.84 -221.83,-221.84 -122.52,0 -221.84,99.32 -221.84,221.84 0,122.52 99.32,221.83 221.84,221.83 122.52,0 221.83,-99.31 221.83,-221.83" style="fill:#782d99;fill-opacity:1;fill-rule:nonzero;stroke:none" transform="matrix(0.13333333,0,0,-0.13333333,0,666.66667)" />
      <path id="path156" d="m 6354.16,3609.18 c 0,-30.63 -24.84,-55.46 -55.46,-55.46 -30.63,0 -55.46,24.83 -55.46,55.46 0,30.63 24.83,55.46 55.46,55.46 30.62,0 55.46,-24.83 55.46,-55.46" style="fill:#fffbf4;fill-opacity:1;fill-rule:nonzero;stroke:none" transform="matrix(0.13333333,0,0,-0.13333333,0,666.66667)" />
      <path id="path157" d="m 5836.54,3017.61 c 0,-122.51 -99.32,-221.83 -221.84,-221.83 -122.52,0 -221.83,99.32 -221.83,221.83 h -73.95 c 0,-163.35 132.43,-295.77 295.78,-295.77 v 0 c 163.36,0 295.78,132.42 295.78,295.77 h -73.94" style="fill:#782d99;fill-opacity:1;fill-rule:nonzero;stroke:none" transform="matrix(0.13333333,0,0,-0.13333333,0,666.66667)" />
      <path id="path158" d="m 6428.1,3017.61 c 0,-122.51 -99.32,-221.83 -221.83,-221.83 -122.52,0 -221.84,99.32 -221.84,221.83 h -73.95 c 0,-163.35 132.43,-295.77 295.79,-295.77 v 0 c 163.35,0 295.78,132.42 295.78,295.77 h -73.95" style="fill:#782d99;fill-opacity:1;fill-rule:nonzero;stroke:none" transform="matrix(0.13333333,0,0,-0.13333333,0,666.66667)" />
      <path id="path159" d="m 5910.48,3461.29 v 0 c -190.57,0 -345.07,-154.5 -345.07,-345.08 v 0 h 345.07 v 345.08" style="fill:#782d99;fill-opacity:1;fill-rule:nonzero;stroke:none" transform="matrix(0.13333333,0,0,-0.13333333,0,666.66667)" />
      <path id="path160" d="m 5910.48,3461.29 v 0 c 190.59,0 345.08,-154.5 345.08,-345.08 v 0 h -345.08 v 345.08" style="fill:#592587;fill-opacity:1;fill-rule:nonzero;stroke:none" transform="matrix(0.13333333,0,0,-0.13333333,0,666.66667)" />
      <path id="path161" d="m 5565.41,3116.21 345.07,-172.54 v 172.54 z" style="fill:#592587;fill-opacity:1;fill-rule:nonzero;stroke:none" transform="matrix(0.13333333,0,0,-0.13333333,0,666.66667)" />
      <path id="path162" d="m 6255.56,3116.21 -345.08,-172.54 v 172.54 z" style="fill:#782d99;fill-opacity:1;fill-rule:nonzero;stroke:none" transform="matrix(0.13333333,0,0,-0.13333333,0,666.66667)" />
      <path id="path163" d="m 5540.76,2980.64 c 0,20.42 -16.55,36.97 -36.97,36.97 -20.42,0 -36.98,-16.55 -36.98,-36.97 0,-20.41 16.56,-36.97 36.98,-36.97 20.42,0 36.97,16.56 36.97,36.97" style="fill:#fffbf4;fill-opacity:1;fill-rule:nonzero;stroke:none" transform="matrix(0.13333333,0,0,-0.13333333,0,666.66667)" />
      <path id="path164" d="m 5688.65,2980.64 c 0,20.42 -16.55,36.97 -36.97,36.97 -20.42,0 -36.98,-16.55 -36.98,-36.97 0,-20.41 16.56,-36.97 36.98,-36.97 20.42,0 36.97,16.56 36.97,36.97" style="fill:#fffbf4;fill-opacity:1;fill-rule:nonzero;stroke:none" transform="matrix(0.13333333,0,0,-0.13333333,0,666.66667)" />
      <path id="path165" d="m 5614.7,2906.7 c 0,20.42 -16.55,36.97 -36.97,36.97 -20.42,0 -36.97,-16.55 -36.97,-36.97 0,-20.42 16.55,-36.98 36.97,-36.98 20.42,0 36.97,16.56 36.97,36.98" style="fill:#fffbf4;fill-opacity:1;fill-rule:nonzero;stroke:none" transform="matrix(0.13333333,0,0,-0.13333333,0,666.66667)" />
      <path id="path166" d="m 6206.27,2980.64 c 0,20.42 -16.56,36.97 -36.98,36.97 -20.42,0 -36.97,-16.55 -36.97,-36.97 0,-20.41 16.55,-36.97 36.97,-36.97 20.42,0 36.98,16.56 36.98,36.97" style="fill:#fffbf4;fill-opacity:1;fill-rule:nonzero;stroke:none" transform="matrix(0.13333333,0,0,-0.13333333,0,666.66667)" />
      <path id="path167" d="m 6354.16,2980.64 c 0,20.42 -16.56,36.97 -36.98,36.97 -20.42,0 -36.97,-16.55 -36.97,-36.97 0,-20.41 16.55,-36.97 36.97,-36.97 20.42,0 36.98,16.56 36.98,36.97" style="fill:#fffbf4;fill-opacity:1;fill-rule:nonzero;stroke:none" transform="matrix(0.13333333,0,0,-0.13333333,0,666.66667)" />
      <path id="path168" d="m 6280.21,2906.7 c 0,20.42 -16.55,36.97 -36.97,36.97 -20.42,0 -36.97,-16.55 -36.97,-36.97 0,-20.42 16.55,-36.98 36.97,-36.98 20.42,0 36.97,16.56 36.97,36.98" style="fill:#fffbf4;fill-opacity:1;fill-rule:nonzero;stroke:none" transform="matrix(0.13333333,0,0,-0.13333333,0,666.66667)" />
      </g></svg>