<?xml version='1.0' encoding='utf-8'?>
<svg xmlns="http://www.w3.org/2000/svg" version="1.1" width="159.804" height="159.806" viewBox="624.999 339.652 159.804 159.806"><g id="object"><path id="path16" d="m 5286.75,1853.34 h -277.13 c -153.06,0 -277.13,124.08 -277.13,277.14 v 0 c 0,153.05 124.07,277.13 277.13,277.13 v 0 c 153.05,0 277.13,-124.08 277.13,-277.13 v -277.14" style="fill:#3ebeb9;fill-opacity:1;fill-rule:nonzero;stroke:none" transform="matrix(0.13333333,0,0,-0.13333333,0,666.66667)" />
      <path id="path17" d="m 5286.75,1853.34 h 277.13 c 153.06,0 277.14,124.08 277.14,277.14 v 0 c 0,153.05 -124.08,277.13 -277.14,277.13 v 0 c -153.05,0 -277.13,-124.08 -277.13,-277.13 v -277.14" style="fill:#fab20b;fill-opacity:1;fill-rule:nonzero;stroke:none" transform="matrix(0.13333333,0,0,-0.13333333,0,666.66667)" />
      <path id="path18" d="m 5286.75,1853.34 h 277.13 c 153.06,0 277.14,-124.08 277.14,-277.13 v 0 c 0,-153.06 -124.08,-277.14 -277.14,-277.14 v 0 c -153.05,0 -277.13,124.08 -277.13,277.14 v 277.13" style="fill:#3ebeb9;fill-opacity:1;fill-rule:nonzero;stroke:none" transform="matrix(0.13333333,0,0,-0.13333333,0,666.66667)" />
      <path id="path19" d="m 5286.75,1853.34 h -277.13 c -153.06,0 -277.13,-124.08 -277.13,-277.13 v 0 c 0,-153.06 124.07,-277.14 277.13,-277.14 v 0 c 153.05,0 277.13,124.08 277.13,277.14 v 277.13" style="fill:#fab20b;fill-opacity:1;fill-rule:nonzero;stroke:none" transform="matrix(0.13333333,0,0,-0.13333333,0,666.66667)" />
      <path id="path20" d="m 5286.75,1853.34 h -191.86 c -105.97,0 -191.87,85.9 -191.87,191.86 v 0 c 0,105.97 85.9,191.87 191.87,191.87 v 0 c 105.97,0 191.86,-85.9 191.86,-191.87 v -191.86" style="fill:#286aaa;fill-opacity:1;fill-rule:nonzero;stroke:none" transform="matrix(0.13333333,0,0,-0.13333333,0,666.66667)" />
      <path id="path21" d="m 5286.75,1853.34 h 191.86 c 105.97,0 191.86,85.9 191.86,191.86 v 0 c 0,105.97 -85.89,191.87 -191.86,191.87 v 0 c -105.96,0 -191.86,-85.9 -191.86,-191.87 v -191.86" style="fill:#286aaa;fill-opacity:1;fill-rule:nonzero;stroke:none" transform="matrix(0.13333333,0,0,-0.13333333,0,666.66667)" />
      <path id="path22" d="m 5286.75,1853.34 h 191.86 c 105.97,0 191.86,-85.9 191.86,-191.86 v 0 c 0,-105.97 -85.89,-191.86 -191.86,-191.86 v 0 c -105.96,0 -191.86,85.89 -191.86,191.86 v 191.86" style="fill:#286aaa;fill-opacity:1;fill-rule:nonzero;stroke:none" transform="matrix(0.13333333,0,0,-0.13333333,0,666.66667)" />
      <path id="path23" d="m 5286.75,1853.34 h -191.86 c -105.97,0 -191.87,-85.9 -191.87,-191.86 v 0 c 0,-105.97 85.9,-191.86 191.87,-191.86 v 0 c 105.97,0 191.86,85.89 191.86,191.86 v 191.86" style="fill:#286aaa;fill-opacity:1;fill-rule:nonzero;stroke:none" transform="matrix(0.13333333,0,0,-0.13333333,0,666.66667)" />
      <path id="path24" d="m 5286.75,1853.34 h -147.22 c -81.32,0 -147.24,65.91 -147.24,147.23 v 0 c 0,81.31 65.92,147.23 147.24,147.23 v 0 c 81.31,0 147.22,-65.92 147.22,-147.23 v -147.23" style="fill:#f57515;fill-opacity:1;fill-rule:nonzero;stroke:none" transform="matrix(0.13333333,0,0,-0.13333333,0,666.66667)" />
      <path id="path25" d="m 5286.75,1853.34 h 147.23 c 81.31,0 147.23,65.91 147.23,147.23 v 0 c 0,81.31 -65.92,147.23 -147.23,147.23 v 0 c -81.32,0 -147.23,-65.92 -147.23,-147.23 v -147.23" style="fill:#20b1a4;fill-opacity:1;fill-rule:nonzero;stroke:none" transform="matrix(0.13333333,0,0,-0.13333333,0,666.66667)" />
      <path id="path26" d="m 5286.75,1853.34 h 147.23 c 81.31,0 147.23,-65.91 147.23,-147.23 v 0 c 0,-81.31 -65.92,-147.23 -147.23,-147.23 v 0 c -81.32,0 -147.23,65.92 -147.23,147.23 v 147.23" style="fill:#f57515;fill-opacity:1;fill-rule:nonzero;stroke:none" transform="matrix(0.13333333,0,0,-0.13333333,0,666.66667)" />
      <path id="path27" d="m 5286.75,1853.34 h -147.22 c -81.32,0 -147.24,-65.91 -147.24,-147.23 v 0 c 0,-81.31 65.92,-147.23 147.24,-147.23 v 0 c 81.31,0 147.22,65.92 147.22,147.23 v 147.23" style="fill:#20b1a4;fill-opacity:1;fill-rule:nonzero;stroke:none" transform="matrix(0.13333333,0,0,-0.13333333,0,666.66667)" />
      <path id="path28" d="m 5529.24,1853.34 c 0,-133.92 -108.56,-242.49 -242.49,-242.49 -133.92,0 -242.5,108.57 -242.5,242.49 0,133.92 108.58,242.5 242.5,242.5 133.93,0 242.49,-108.58 242.49,-242.5" style="fill:#fefefe;fill-opacity:1;fill-rule:nonzero;stroke:none" transform="matrix(0.13333333,0,0,-0.13333333,0,666.66667)" />
      <path id="path29" d="m 5286.75,2095.84 c 133.93,0 242.49,-108.58 242.49,-242.5 0,-133.92 -108.56,-242.49 -242.49,-242.49 v 484.99" style="fill:#fefefe;fill-opacity:1;fill-rule:nonzero;stroke:none" transform="matrix(0.13333333,0,0,-0.13333333,0,666.66667)" />
      <path id="path30" d="m 5373.36,1853.34 c 0,-47.83 -38.78,-86.6 -86.61,-86.6 -47.83,0 -86.61,38.77 -86.61,86.6 0,47.83 38.78,86.61 86.61,86.61 47.83,0 86.61,-38.78 86.61,-86.61" style="fill:#fab20b;fill-opacity:1;fill-rule:nonzero;stroke:none" transform="matrix(0.13333333,0,0,-0.13333333,0,666.66667)" />
      </g></svg>