<?xml version='1.0' encoding='utf-8'?>
<svg xmlns="http://www.w3.org/2000/svg" version="1.1" width="69.378" height="270.204" viewBox="392.617 360.861 69.378 270.204"><g id="object"><path id="path46" d="m 2989.63,742.352 v 0 -215.172 c 0,-118.828 96.33,-215.168 215.16,-215.168 h 0.01 V 527.18 c 0,118.832 -96.34,215.172 -215.17,215.172" style="fill:#423f9f;fill-opacity:1;fill-rule:nonzero;stroke:none" transform="matrix(0.13333333,0,0,-0.13333333,0,666.66667)" />
      <path id="path47" d="m 3419.96,742.352 v 0 -215.172 c 0,-118.828 -96.33,-215.168 -215.16,-215.168 v 0 215.168 c 0,118.832 96.33,215.172 215.16,215.172" style="fill:#ee2238;fill-opacity:1;fill-rule:nonzero;stroke:none" transform="matrix(0.13333333,0,0,-0.13333333,0,666.66667)" />
      <path id="path48" d="m 2989.63,1172.69 v 0 -215.17 c 0,-118.829 96.33,-215.168 215.16,-215.168 h 0.01 V 957.52 c 0,118.83 -96.34,215.17 -215.17,215.17" style="fill:#f8a020;fill-opacity:1;fill-rule:nonzero;stroke:none" transform="matrix(0.13333333,0,0,-0.13333333,0,666.66667)" />
      <path id="path49" d="m 3419.96,1172.69 v 0 -215.17 c 0,-118.829 -96.33,-215.168 -215.16,-215.168 v 0 215.168 c 0,118.83 96.33,215.17 215.16,215.17" style="fill:#ee2238;fill-opacity:1;fill-rule:nonzero;stroke:none" transform="matrix(0.13333333,0,0,-0.13333333,0,666.66667)" />
      <path id="path50" d="m 2989.63,1603.03 v 0 -215.17 c 0,-118.83 96.33,-215.17 215.16,-215.17 h 0.01 v 215.17 c 0,118.84 -96.34,215.17 -215.17,215.17" style="fill:#423f9f;fill-opacity:1;fill-rule:nonzero;stroke:none" transform="matrix(0.13333333,0,0,-0.13333333,0,666.66667)" />
      <path id="path51" d="m 3419.96,1603.03 v 0 -215.17 c 0,-118.83 -96.33,-215.17 -215.16,-215.17 v 0 215.17 c 0,118.84 96.33,215.17 215.16,215.17" style="fill:#ee2238;fill-opacity:1;fill-rule:nonzero;stroke:none" transform="matrix(0.13333333,0,0,-0.13333333,0,666.66667)" />
      <path id="path52" d="m 2989.63,2033.37 v 0 -215.17 c 0,-118.84 96.33,-215.17 215.16,-215.17 h 0.01 v 215.17 c 0,118.84 -96.34,215.17 -215.17,215.17" style="fill:#f8a020;fill-opacity:1;fill-rule:nonzero;stroke:none" transform="matrix(0.13333333,0,0,-0.13333333,0,666.66667)" />
      <path id="path53" d="m 3419.96,2033.37 v 0 -215.17 c 0,-118.84 -96.33,-215.17 -215.16,-215.17 v 0 215.17 c 0,118.84 96.33,215.17 215.16,215.17" style="fill:#ee2238;fill-opacity:1;fill-rule:nonzero;stroke:none" transform="matrix(0.13333333,0,0,-0.13333333,0,666.66667)" />
      <path id="path54" d="m 3276.51,2033.37 c 0,39.62 -32.1,71.72 -71.71,71.72 -39.62,0 -71.73,-32.1 -71.73,-71.72 h 143.44" style="fill:#f8a020;fill-opacity:1;fill-rule:nonzero;stroke:none" transform="matrix(0.13333333,0,0,-0.13333333,0,666.66667)" />
      <path id="path55" d="m 3133.07,2176.81 c 0,39.62 -32.11,71.73 -71.72,71.73 -39.62,0 -71.72,-32.11 -71.72,-71.73 0,-39.61 32.1,-71.72 71.72,-71.72 39.61,0 71.72,32.11 71.72,71.72" style="fill:#423f9f;fill-opacity:1;fill-rule:nonzero;stroke:none" transform="matrix(0.13333333,0,0,-0.13333333,0,666.66667)" />
      <path id="path56" d="m 3419.96,2176.81 c 0,39.62 -32.11,71.73 -71.72,71.73 -39.61,0 -71.73,-32.11 -71.73,-71.73 0,-39.61 32.12,-71.72 71.73,-71.72 39.61,0 71.72,32.11 71.72,71.72" style="fill:#423f9f;fill-opacity:1;fill-rule:nonzero;stroke:none" transform="matrix(0.13333333,0,0,-0.13333333,0,666.66667)" />
      </g></svg>