<?xml version='1.0' encoding='utf-8'?>
<svg xmlns="http://www.w3.org/2000/svg" version="1.1" width="149.283" height="183.604" viewBox="155.761 442.389 149.283 183.604"><g id="object"><path id="path87" d="m 1985.43,1379.67 c 0,142.16 -115.25,257.41 -257.41,257.41 -142.16,0 -257.4,-115.25 -257.4,-257.41 -142.17,0 -257.41,-115.25 -257.41,-257.41 0,-142.158 115.24,-257.401 257.41,-257.401 0,-142.168 115.24,-257.41 257.4,-257.41 142.16,0 257.41,115.242 257.41,257.41 142.16,0 257.4,115.243 257.4,257.401 0,142.16 -115.24,257.41 -257.4,257.41" style="fill:#f68b11;fill-opacity:1;fill-rule:nonzero;stroke:none" transform="matrix(0.13333333,0,0,-0.13333333,0,666.66667)" />
      <path id="path88" d="m 1728.02,607.449 c 142.16,0 257.41,115.242 257.41,257.41 142.16,0 257.4,115.243 257.4,257.401 0,142.16 -115.24,257.41 -257.4,257.41 0,142.16 -115.25,257.41 -257.41,257.41 V 607.449" style="fill:#39b7ed;fill-opacity:1;fill-rule:nonzero;stroke:none" transform="matrix(0.13333333,0,0,-0.13333333,0,666.66667)" />
      <path id="path89" d="m 1985.43,1122.26 c 0,-142.158 -115.25,-257.401 -257.41,-257.401 -142.16,0 -257.4,115.243 -257.4,257.401 0,142.16 115.24,257.41 257.4,257.41 142.16,0 257.41,-115.25 257.41,-257.41" style="fill:#1f254c;fill-opacity:1;fill-rule:nonzero;stroke:none" transform="matrix(0.13333333,0,0,-0.13333333,0,666.66667)" />
      <path id="path90" d="m 1856.72,1122.26 c 0,-71.08 -57.62,-128.701 -128.7,-128.701 -71.08,0 -128.7,57.621 -128.7,128.701 0,71.09 57.62,128.7 128.7,128.7 71.08,0 128.7,-57.61 128.7,-128.7" style="fill:#feffff;fill-opacity:1;fill-rule:nonzero;stroke:none" transform="matrix(0.13333333,0,0,-0.13333333,0,666.66667)" />
      <path id="path91" d="m 1470.62,607.449 h -257.41 v 0 c 0,-142.16 115.24,-257.398 257.41,-257.398 h 257.4 v 0 c 0,142.148 -115.25,257.398 -257.4,257.398" style="fill:#ee2238;fill-opacity:1;fill-rule:nonzero;stroke:none" transform="matrix(0.13333333,0,0,-0.13333333,0,666.66667)" />
      <path id="path92" d="m 1985.43,607.449 h 257.4 v 0 c 0,-142.16 -115.24,-257.398 -257.4,-257.398 h -257.41 v 0 c 0,142.148 115.24,257.398 257.41,257.398" style="fill:#ee2238;fill-opacity:1;fill-rule:nonzero;stroke:none" transform="matrix(0.13333333,0,0,-0.13333333,0,666.66667)" />
      </g></svg>