<?xml version='1.0' encoding='utf-8'?>
<svg xmlns="http://www.w3.org/2000/svg" version="1.1" width="362.351" height="250.193" viewBox="587.443 39.491 362.351 250.193"><g id="object"><path id="path79" d="M 6946.73,3701.49 H 5288.49 v 0 c 0,-457.91 371.21,-829.12 829.12,-829.12 v 0 c 457.91,0 829.12,371.21 829.12,829.12 v 0" style="fill:#517ec8;fill-opacity:1;fill-rule:nonzero;stroke:none" transform="matrix(0.13333333,0,0,-0.13333333,0,666.66667)" />
      <path id="path80" d="m 6496.65,3701.49 h -758.06 v 0 c 0,-209.33 169.7,-379.03 379.02,-379.03 v 0 c 209.34,0 379.04,169.7 379.04,379.03 v 0" style="fill:#1e4470;fill-opacity:1;fill-rule:nonzero;stroke:none" transform="matrix(0.13333333,0,0,-0.13333333,0,666.66667)" />
      <path id="path81" d="m 5527.83,4658.82 v 0 c -132.19,0 -239.34,-107.15 -239.34,-239.32 v -718.01 h 478.67 v 718.01 c 0,132.17 -107.15,239.32 -239.33,239.32" style="fill:#f46e1b;fill-opacity:1;fill-rule:nonzero;stroke:none" transform="matrix(0.13333333,0,0,-0.13333333,0,666.66667)" />
      <path id="path82" d="m 5288.49,4419.5 h -523.54 c -173.49,0 -314.13,-140.64 -314.13,-314.14 v 0 h 837.67 v 314.14" style="fill:#1e4470;fill-opacity:1;fill-rule:nonzero;stroke:none" transform="matrix(0.13333333,0,0,-0.13333333,0,666.66667)" />
      <path id="path83" d="m 5408.16,4474.19 v 0 0 c 66.08,-66.09 173.24,-66.09 239.34,0 v 0 0 c -66.1,66.1 -173.26,66.1 -239.34,0" style="fill:#fbfcfc;fill-opacity:1;fill-rule:nonzero;stroke:none" transform="matrix(0.13333333,0,0,-0.13333333,0,666.66667)" />
      <path id="path84" d="m 5557.74,4474.19 c 0,16.52 -13.39,29.92 -29.91,29.92 -16.53,0 -29.92,-13.4 -29.92,-29.92 0,-16.52 13.39,-29.92 29.92,-29.92 16.52,0 29.91,13.4 29.91,29.92" style="fill:#1e4470;fill-opacity:1;fill-rule:nonzero;stroke:none" transform="matrix(0.13333333,0,0,-0.13333333,0,666.66667)" />
      <path id="path85" d="m 5616.8,2872.37 c 0,134.54 -109.06,243.6 -243.6,243.6 v 0 c -134.54,0 -243.61,-109.06 -243.61,-243.6 h 487.21" style="fill:#1e4470;fill-opacity:1;fill-rule:nonzero;stroke:none" transform="matrix(0.13333333,0,0,-0.13333333,0,666.66667)" />
      <path id="path86" d="m 6104.02,2872.37 c 0,134.54 -109.06,243.6 -243.6,243.6 v 0 c -134.54,0 -243.62,-109.06 -243.62,-243.6 h 487.22" style="fill:#1e4470;fill-opacity:1;fill-rule:nonzero;stroke:none" transform="matrix(0.13333333,0,0,-0.13333333,0,666.66667)" />
      <path id="path87" d="m 6591.25,2872.37 c 0,134.54 -109.08,243.6 -243.62,243.6 v 0 c -134.54,0 -243.61,-109.06 -243.61,-243.6 h 487.23" style="fill:#1e4470;fill-opacity:1;fill-rule:nonzero;stroke:none" transform="matrix(0.13333333,0,0,-0.13333333,0,666.66667)" />
      <path id="path88" d="m 7078.46,2872.37 c 0,134.54 -109.07,243.6 -243.61,243.6 v 0 c -134.54,0 -243.6,-109.06 -243.6,-243.6 h 487.21" style="fill:#1e4470;fill-opacity:1;fill-rule:nonzero;stroke:none" transform="matrix(0.13333333,0,0,-0.13333333,0,666.66667)" />
      </g></svg>