<?xml version='1.0' encoding='utf-8'?>
<svg xmlns="http://www.w3.org/2000/svg" version="1.1" width="123.112" height="206.446" viewBox="601.640 420.032 123.112 206.446"><g id="object"><path id="path64" d="M 5390.64,867.25 H 4557.3 l 213.21,-520.84 h 406.91 l 213.22,520.84" style="fill:#2c314f;fill-opacity:1;fill-rule:nonzero;stroke:none" transform="matrix(0.13333333,0,0,-0.13333333,0,666.66667)" />
      <path id="path65" d="M 5282.2,602.352 5390.64,867.25 H 4557.3 l 108.44,-264.898 h 616.46" style="fill:#37b5e5;fill-opacity:1;fill-rule:nonzero;stroke:none" transform="matrix(0.13333333,0,0,-0.13333333,0,666.66667)" />
      <path id="path66" d="m 4989.16,867.25 h -30.38 v 729.17 h 30.38 V 867.25" style="fill:#2c314f;fill-opacity:1;fill-rule:nonzero;stroke:none" transform="matrix(0.13333333,0,0,-0.13333333,0,666.66667)" />
      <path id="path67" d="m 5390.64,1700.59 c 0,-230.11 -186.55,-416.67 -416.67,-416.67 v 0 c -230.13,0 -416.67,186.56 -416.67,416.67 h 833.34" style="fill:#f68712;fill-opacity:1;fill-rule:nonzero;stroke:none" transform="matrix(0.13333333,0,0,-0.13333333,0,666.66667)" />
      <path id="path68" d="m 4973.97,1700.59 v -416.67 c 230.12,0 416.67,186.56 416.67,416.67 h -416.67" style="fill:#37b5e5;fill-opacity:1;fill-rule:nonzero;stroke:none" transform="matrix(0.13333333,0,0,-0.13333333,0,666.66667)" />
      <path id="path69" d="m 4557.3,1700.59 c 0,57.53 46.63,104.17 104.17,104.17 57.53,0 104.16,-46.64 104.16,-104.17 H 4557.3" style="fill:#37b5e5;fill-opacity:1;fill-rule:nonzero;stroke:none" transform="matrix(0.13333333,0,0,-0.13333333,0,666.66667)" />
      <path id="path70" d="m 4765.63,1700.59 c 0,57.53 46.64,104.17 104.17,104.17 57.53,0 104.17,-46.64 104.17,-104.17 h -208.34" style="fill:#2c314f;fill-opacity:1;fill-rule:nonzero;stroke:none" transform="matrix(0.13333333,0,0,-0.13333333,0,666.66667)" />
      <path id="path71" d="m 4973.97,1700.59 c 0,57.53 46.64,104.17 104.17,104.17 57.53,0 104.16,-46.64 104.16,-104.17 h -208.33" style="fill:#37b5e5;fill-opacity:1;fill-rule:nonzero;stroke:none" transform="matrix(0.13333333,0,0,-0.13333333,0,666.66667)" />
      <path id="path72" d="m 5182.3,1700.59 c 0,57.53 46.64,104.17 104.17,104.17 57.53,0 104.17,-46.64 104.17,-104.17 H 5182.3" style="fill:#2c314f;fill-opacity:1;fill-rule:nonzero;stroke:none" transform="matrix(0.13333333,0,0,-0.13333333,0,666.66667)" />
      </g></svg>