<?xml version='1.0' encoding='utf-8'?>
<svg xmlns="http://www.w3.org/2000/svg" version="1.1" width="352.282" height="291.516" viewBox="591.224 74.621 352.282 291.516"><g id="object"><path id="path111" d="m 4479.18,2298.97 c 0,151.02 122.42,273.44 273.43,273.44 151.02,0 273.44,-122.42 273.44,-273.44 h -546.87" style="fill:#37b5e5;fill-opacity:1;fill-rule:nonzero;stroke:none" transform="matrix(0.13333333,0,0,-0.13333333,0,666.66667)" />
      <path id="path112" d="m 4661.47,2298.97 c 0,50.33 40.8,91.14 91.14,91.14 50.35,0 91.15,-40.81 91.15,-91.14 h -182.29" style="fill:#2c314f;fill-opacity:1;fill-rule:nonzero;stroke:none" transform="matrix(0.13333333,0,0,-0.13333333,0,666.66667)" />
      <path id="path113" d="m 6484.4,2298.97 c 0,151.02 122.42,273.44 273.44,273.44 151.01,0 273.45,-122.42 273.45,-273.44 H 6484.4" style="fill:#2c314f;fill-opacity:1;fill-rule:nonzero;stroke:none" transform="matrix(0.13333333,0,0,-0.13333333,0,666.66667)" />
      <path id="path114" d="m 6666.7,2298.97 c 0,50.33 40.81,91.14 91.14,91.14 50.34,0 91.15,-40.81 91.15,-91.14 H 6666.7" style="fill:#37b5e5;fill-opacity:1;fill-rule:nonzero;stroke:none" transform="matrix(0.13333333,0,0,-0.13333333,0,666.66667)" />
      <path id="path121" d="m 4570.32,3848.46 273.44,273.44 h -273.44 z" style="fill:#ef2c8f;fill-opacity:1;fill-rule:nonzero;stroke:none" transform="matrix(0.13333333,0,0,-0.13333333,0,666.66667)" />
      <path id="path122" d="m 7031.29,3848.46 -273.45,273.44 h 273.45 z" style="fill:#ef2c8f;fill-opacity:1;fill-rule:nonzero;stroke:none" transform="matrix(0.13333333,0,0,-0.13333333,0,666.66667)" />
      <path id="path125" d="m 5755.23,2577.14 c 0,201.35 -163.23,364.58 -364.59,364.58 -201.36,0 -364.59,-163.23 -364.59,-364.58 h 729.18" style="fill:#2c314f;fill-opacity:1;fill-rule:nonzero;stroke:none" transform="matrix(0.13333333,0,0,-0.13333333,0,666.66667)" />
      <path id="path126" d="m 6484.4,2577.14 c 0,201.35 -163.23,364.58 -364.59,364.58 -201.35,0 -364.58,-163.23 -364.58,-364.58 h 729.17" style="fill:#2c314f;fill-opacity:1;fill-rule:nonzero;stroke:none" transform="matrix(0.13333333,0,0,-0.13333333,0,666.66667)" />
      <path id="path127" d="m 5026.05,2577.14 401.75,-200.87 c 206.12,-103.07 448.73,-103.07 654.85,0 l 401.75,200.87 H 5026.05" style="fill:#ef2c8f;fill-opacity:1;fill-rule:nonzero;stroke:none" transform="matrix(0.13333333,0,0,-0.13333333,0,666.66667)" />
      <path id="path128" d="m 5026.05,3757.32 v 182.29 c -201.33,0 -364.58,-163.26 -364.58,-364.59 0,-201.33 163.25,-364.58 364.58,-364.58 v 182.29 c -100.66,0 -182.29,81.62 -182.29,182.29 0,100.67 81.63,182.3 182.29,182.3" style="fill:#f68712;fill-opacity:1;fill-rule:nonzero;stroke:none" transform="matrix(0.13333333,0,0,-0.13333333,0,666.66667)" />
      <path id="path129" d="m 6484.4,3392.73 v -182.29 c 201.34,0 364.59,163.25 364.59,364.58 0,201.33 -163.25,364.59 -364.59,364.59 v -182.29 c 100.66,0 182.3,-81.63 182.3,-182.3 0,-100.67 -81.64,-182.29 -182.3,-182.29" style="fill:#f68712;fill-opacity:1;fill-rule:nonzero;stroke:none" transform="matrix(0.13333333,0,0,-0.13333333,0,666.66667)" />
      <path id="path130" d="m 5755.23,3848.46 c 0,201.36 -163.23,364.59 -364.59,364.59 -201.36,0 -364.59,-163.23 -364.59,-364.59 0,-201.35 163.23,-364.59 364.59,-364.59 201.36,0 364.59,163.24 364.59,364.59" style="fill:#2c314f;fill-opacity:1;fill-rule:nonzero;stroke:none" transform="matrix(0.13333333,0,0,-0.13333333,0,666.66667)" />
      <path id="path131" d="m 5390.64,3955.99 c 111.85,0 202.51,-107.53 202.51,-107.53 0,0 -90.66,-107.53 -202.51,-107.53 -111.84,0 -202.51,107.53 -202.51,107.53 0,0 90.67,107.53 202.51,107.53" style="fill:#f9fcfb;fill-opacity:1;fill-rule:nonzero;stroke:none" transform="matrix(0.13333333,0,0,-0.13333333,0,666.66667)" />
      <path id="path132" d="m 5481.78,3848.46 c 0,50.34 -40.8,91.15 -91.14,91.15 -50.34,0 -91.14,-40.81 -91.14,-91.15 0,-50.34 40.8,-91.14 91.14,-91.14 50.34,0 91.14,40.8 91.14,91.14" style="fill:#37b5e5;fill-opacity:1;fill-rule:nonzero;stroke:none" transform="matrix(0.13333333,0,0,-0.13333333,0,666.66667)" />
      <path id="path133" d="m 5026.05,4030.75 h 364.59 v 364.59 c -201.36,0 -364.59,-163.23 -364.59,-364.59" style="fill:#f68712;fill-opacity:1;fill-rule:nonzero;stroke:none" transform="matrix(0.13333333,0,0,-0.13333333,0,666.66667)" />
      <path id="path134" d="m 5390.64,4395.34 v -364.59 h 364.59 c 0,201.36 -163.23,364.59 -364.59,364.59" style="fill:#37b5e5;fill-opacity:1;fill-rule:nonzero;stroke:none" transform="matrix(0.13333333,0,0,-0.13333333,0,666.66667)" />
      <path id="path135" d="m 6484.4,3848.46 c 0,201.36 -163.23,364.59 -364.59,364.59 -201.35,0 -364.58,-163.23 -364.58,-364.59 0,-201.35 163.23,-364.59 364.58,-364.59 201.36,0 364.59,163.24 364.59,364.59" style="fill:#2c314f;fill-opacity:1;fill-rule:nonzero;stroke:none" transform="matrix(0.13333333,0,0,-0.13333333,0,666.66667)" />
      <path id="path136" d="m 6119.81,3955.99 c 111.85,0 202.51,-107.53 202.51,-107.53 0,0 -90.66,-107.53 -202.51,-107.53 -111.84,0 -202.51,107.53 -202.51,107.53 0,0 90.67,107.53 202.51,107.53" style="fill:#f9fcfb;fill-opacity:1;fill-rule:nonzero;stroke:none" transform="matrix(0.13333333,0,0,-0.13333333,0,666.66667)" />
      <path id="path137" d="m 6210.96,3848.46 c 0,50.34 -40.81,91.15 -91.15,91.15 -50.33,0 -91.14,-40.81 -91.14,-91.15 0,-50.34 40.81,-91.14 91.14,-91.14 50.34,0 91.15,40.8 91.15,91.14" style="fill:#37b5e5;fill-opacity:1;fill-rule:nonzero;stroke:none" transform="matrix(0.13333333,0,0,-0.13333333,0,666.66667)" />
      <path id="path138" d="m 5755.23,4030.75 h 364.58 v 364.59 c -201.35,0 -364.58,-163.23 -364.58,-364.59" style="fill:#f68712;fill-opacity:1;fill-rule:nonzero;stroke:none" transform="matrix(0.13333333,0,0,-0.13333333,0,666.66667)" />
      <path id="path139" d="m 6119.81,4395.34 v -364.59 h 364.59 c 0,201.36 -163.23,364.59 -364.59,364.59" style="fill:#37b5e5;fill-opacity:1;fill-rule:nonzero;stroke:none" transform="matrix(0.13333333,0,0,-0.13333333,0,666.66667)" />
      <path id="path140" d="M 5755.69,3935.12 5503.97,3331 c -74.83,-179.62 57.13,-377.57 251.72,-377.57 v 0 c 194.59,0 326.56,197.95 251.72,377.57 l -251.72,604.12" style="fill:#f68712;fill-opacity:1;fill-rule:nonzero;stroke:none" transform="matrix(0.13333333,0,0,-0.13333333,0,666.66667)" />
      <path id="path141" d="m 5755.69,2953.43 c 194.59,0 326.56,197.95 251.72,377.57 l -251.72,604.12 v -981.69 0" style="fill:#ef2c8f;fill-opacity:1;fill-rule:nonzero;stroke:none" transform="matrix(0.13333333,0,0,-0.13333333,0,666.66667)" />
    </g></svg>