<?xml version='1.0' encoding='utf-8'?>
<svg xmlns="http://www.w3.org/2000/svg" version="1.1" width="59.192" height="59.192" viewBox="894.731 40.672 59.192 59.192"><g id="object"><path id="path20" d="m 6755.48,4472.99 c 0,-97.73 79.23,-176.97 176.97,-176.97 97.74,0 176.97,79.24 176.97,176.97 0,97.73 -79.23,176.97 -176.97,176.97 -97.74,0 -176.97,-79.24 -176.97,-176.97" style="fill:#f68b11;fill-opacity:1;fill-rule:nonzero;stroke:none" transform="matrix(0.13333333,0,0,-0.13333333,0,666.66667)" />
      <path id="path21" d="m 6843.97,4472.99 c 0,-48.86 39.61,-88.48 88.48,-88.48 48.87,0 88.48,39.62 88.48,88.48 0,48.87 -39.61,88.48 -88.48,88.48 -48.87,0 -88.48,-39.61 -88.48,-88.48" style="fill:#1f254c;fill-opacity:1;fill-rule:nonzero;stroke:none" transform="matrix(0.13333333,0,0,-0.13333333,0,666.66667)" />
      </g></svg>