<?xml version='1.0' encoding='utf-8'?>
<svg xmlns="http://www.w3.org/2000/svg" version="1.1" width="135.656" height="197.482" viewBox="625.384 415.649 135.656 197.482"><g id="object"><path id="path78" d="m 5228.07,446.512 h -51.52 v 927.408 h 51.52 V 446.512" style="fill:#30286c;fill-opacity:1;fill-rule:nonzero;stroke:none" transform="matrix(0.13333333,0,0,-0.13333333,0,666.66667)" />
      <path id="path79" d="M 5199.09,1373.92 V 910.211 c 256.1,0 463.71,207.619 463.71,463.709 v 0 h -463.71" style="fill:#f46f1f;fill-opacity:1;fill-rule:nonzero;stroke:none" transform="matrix(0.13333333,0,0,-0.13333333,0,666.66667)" />
      <path id="path80" d="m 5199.09,1373.92 h -463.71 v 0 c 0,256.11 207.61,463.71 463.71,463.71 v 0 -463.71" style="fill:#ef2f48;fill-opacity:1;fill-rule:nonzero;stroke:none" transform="matrix(0.13333333,0,0,-0.13333333,0,666.66667)" />
      <path id="path81" d="m 5199.09,1373.92 h -463.71 v 0 c 0,-256.09 207.61,-463.709 463.71,-463.709 v 0 463.709" style="fill:#fabb34;fill-opacity:1;fill-rule:nonzero;stroke:none" transform="matrix(0.13333333,0,0,-0.13333333,0,666.66667)" />
      <path id="path82" d="m 5199.09,1373.92 h -289.82 v 0 c 0,-160.06 129.76,-289.81 289.82,-289.81 v 0 289.81" style="fill:#ef2f48;fill-opacity:1;fill-rule:nonzero;stroke:none" transform="matrix(0.13333333,0,0,-0.13333333,0,666.66667)" />
      <path id="path83" d="m 5199.09,1373.92 h 463.71 v 0 c 0,256.11 -207.61,463.71 -463.71,463.71 v 0 -463.71" style="fill:#30286c;fill-opacity:1;fill-rule:nonzero;stroke:none" transform="matrix(0.13333333,0,0,-0.13333333,0,666.66667)" />
      <path id="path84" d="m 5199.09,1373.92 h 289.82 v 0 c 0,160.07 -129.75,289.83 -289.82,289.83 v 0 -289.83" style="fill:#ef2f48;fill-opacity:1;fill-rule:nonzero;stroke:none" transform="matrix(0.13333333,0,0,-0.13333333,0,666.66667)" />
      <path id="path85" d="m 5199.09,1373.92 v 289.83 c -160.06,0 -289.82,-129.76 -289.82,-289.83 v 0 h 289.82" style="fill:#30286c;fill-opacity:1;fill-rule:nonzero;stroke:none" transform="matrix(0.13333333,0,0,-0.13333333,0,666.66667)" />
      <path id="path86" d="m 5199.09,1373.92 v -289.81 c 160.07,0 289.82,129.75 289.82,289.81 v 0 h -289.82" style="fill:#4e3d9f;fill-opacity:1;fill-rule:nonzero;stroke:none" transform="matrix(0.13333333,0,0,-0.13333333,0,666.66667)" />
      <path id="path218" d="m 5032.45,794.289 h -173.9 v 0 c 0,-96.039 77.86,-173.891 173.9,-173.891 h 173.88 v 0 c 0,96.032 -77.85,173.891 -173.88,173.891" style="fill:#ef2f48;fill-opacity:1;fill-rule:nonzero;stroke:none" transform="matrix(0.13333333,0,0,-0.13333333,0,666.66667)" />
      <path id="path219" d="m 5084.62,620.398 h -52.17 c -48,0 -91.51,19.473 -122.96,50.934 -31.46,31.449 -50.94,74.887 -50.94,122.957 h 52.17 l 173.9,-173.891" style="fill:#ef2f48;fill-opacity:1;fill-rule:nonzero;stroke:none" transform="matrix(0.13333333,0,0,-0.13333333,0,666.66667)" />
      <path id="path220" d="m 5084.62,620.398 h -52.17 c -48,0 -91.51,19.473 -122.96,50.934 -31.46,31.449 -50.94,74.887 -50.94,122.957 h 52.17 l 173.9,-173.891" style="fill:#fabb34;fill-opacity:1;fill-rule:nonzero;stroke:none" transform="matrix(0.13333333,0,0,-0.13333333,0,666.66667)" />
      <path id="path221" d="m 5380.23,794.289 h 173.89 v 0 c 0,-96.039 -77.85,-173.891 -173.89,-173.891 h -173.9 v 0 c 0,96.032 77.86,173.891 173.9,173.891" style="fill:#ef2f48;fill-opacity:1;fill-rule:nonzero;stroke:none" transform="matrix(0.13333333,0,0,-0.13333333,0,666.66667)" />
      <path id="path222" d="m 5328.06,620.398 h 52.17 c 47.99,0 91.5,19.473 122.96,50.934 31.45,31.449 50.93,74.887 50.93,122.957 h -52.17 L 5328.06,620.398" style="fill:#fabb34;fill-opacity:1;fill-rule:nonzero;stroke:none" transform="matrix(0.13333333,0,0,-0.13333333,0,666.66667)" />
      </g></svg>