<?xml version='1.0' encoding='utf-8'?>
<svg xmlns="http://www.w3.org/2000/svg" version="1.1" width="270.669" height="192.772" viewBox="178.025 435.732 270.669 192.772"><g id="object"><path id="path89" d="m 3182.54,619.852 v 0 c -151.02,0 -273.44,-122.422 -273.44,-273.442 v 0 h 273.44 v 273.442" style="fill:#37b5e5;fill-opacity:1;fill-rule:nonzero;stroke:none" transform="matrix(0.13333333,0,0,-0.13333333,0,666.66667)" />
      <path id="path91" d="m 2537.23,331.219 h -140.84 v 30.383 h 140.84 c 66.78,0 121.12,54.328 121.12,121.109 v 233.23 h 30.38 v -233.23 c 0,-83.52 -67.96,-151.492 -151.5,-151.492" style="fill:#2c314f;fill-opacity:1;fill-rule:nonzero;stroke:none" transform="matrix(0.13333333,0,0,-0.13333333,0,666.66667)" />
      <path id="path92" d="m 2260.08,331.219 h -140.84 v 30.383 h 140.84 c 66.79,0 121.12,54.328 121.12,121.109 v 233.23 h 30.38 v -233.23 c 0,-83.52 -67.96,-151.492 -151.5,-151.492" style="fill:#2c314f;fill-opacity:1;fill-rule:nonzero;stroke:none" transform="matrix(0.13333333,0,0,-0.13333333,0,666.66667)" />
      <path id="path93" d="m 1980.15,1687.01 h 323.86 V 625.672 c -15.32,-0.652 -30.71,-1.051 -46.19,-1.051 h -4.51 c -290.88,0 -526.69,235.801 -526.69,526.689 v 282.16 c 0,140.03 113.51,253.54 253.53,253.54" style="fill:#ef2c8f;fill-opacity:1;fill-rule:nonzero;stroke:none" transform="matrix(0.13333333,0,0,-0.13333333,0,666.66667)" />
      <path id="path94" d="m 2304.01,1687.01 h 1016.2 v 0 c 0,-571.26 -450.9,-1037.139 -1016.2,-1061.338 v 1014.088 47.25" style="fill:#2c314f;fill-opacity:1;fill-rule:nonzero;stroke:none" transform="matrix(0.13333333,0,0,-0.13333333,0,666.66667)" />
      <path id="path95" d="m 2191.42,1421.41 c 0,110.01 -89.19,199.2 -199.2,199.2 -110.02,0 -199.2,-89.19 -199.2,-199.2 0,-110.02 89.18,-199.2 199.2,-199.2 110.01,0 199.2,89.18 199.2,199.2" style="fill:#f9fcfb;fill-opacity:1;fill-rule:nonzero;stroke:none" transform="matrix(0.13333333,0,0,-0.13333333,0,666.66667)" />
      <path id="path96" d="m 2058.62,1421.41 c 0,36.67 -29.73,66.4 -66.4,66.4 -36.67,0 -66.4,-29.73 -66.4,-66.4 0,-36.67 29.73,-66.4 66.4,-66.4 36.67,0 66.4,29.73 66.4,66.4" style="fill:#2c314f;fill-opacity:1;fill-rule:nonzero;stroke:none" transform="matrix(0.13333333,0,0,-0.13333333,0,666.66667)" />
      <path id="path97" d="m 1726.62,1455 -346.43,-346.44 h 346.43 z" style="fill:#37b5e5;fill-opacity:1;fill-rule:nonzero;stroke:none" transform="matrix(0.13333333,0,0,-0.13333333,0,666.66667)" />
      <path id="path98" d="m 2698.46,1577.1 h 439.17 c 58.23,0 87.39,-70.4 46.21,-111.58 L 2653.7,935.371 c -94.96,-94.949 -257.31,-27.699 -257.31,106.579 v 233.08 c 0,166.82 135.24,302.07 302.07,302.07" style="fill:#f68712;fill-opacity:1;fill-rule:nonzero;stroke:none" transform="matrix(0.13333333,0,0,-0.13333333,0,666.66667)" />
      </g></svg>