<?xml version='1.0' encoding='utf-8'?>
<svg xmlns="http://www.w3.org/2000/svg" version="1.1" width="60.010" height="60.012" viewBox="384.261 351.338 60.010 60.012"><g id="object"><path id="path221" d="m 3064.32,2196.81 c 31.43,-31.41 31.43,-82.37 0,-113.79 -31.42,-31.42 -82.37,-31.42 -113.79,0 -31.43,31.42 -31.43,82.38 0,113.79 31.42,31.43 82.37,31.43 113.79,0" style="fill:#ed1b29;fill-opacity:1;fill-rule:nonzero;stroke:none" transform="matrix(0.13333333,0,0,-0.13333333,0,666.66667)" />
      <path id="path222" d="m 3263.47,2196.81 c 31.42,-31.41 31.42,-82.37 0,-113.79 -31.42,-31.42 -82.38,-31.42 -113.8,0 -31.42,31.42 -31.42,82.38 0,113.79 31.42,31.43 82.38,31.43 113.8,0" style="fill:#ed1b29;fill-opacity:1;fill-rule:nonzero;stroke:none" transform="matrix(0.13333333,0,0,-0.13333333,0,666.66667)" />
      <path id="path223" d="m 3050.1,2097.24 c 31.42,31.43 82.37,31.43 113.8,0 31.42,-31.42 31.42,-82.37 0,-113.8 -31.43,-31.42 -82.38,-31.42 -113.8,0 -31.43,31.43 -31.43,82.38 0,113.8" style="fill:#ed1b29;fill-opacity:1;fill-rule:nonzero;stroke:none" transform="matrix(0.13333333,0,0,-0.13333333,0,666.66667)" />
      <path id="path224" d="m 3050.1,2296.39 c 31.42,31.43 82.37,31.43 113.8,0 31.42,-31.42 31.42,-82.37 0,-113.8 -31.43,-31.42 -82.38,-31.42 -113.8,0 -31.43,31.43 -31.43,82.38 0,113.8" style="fill:#ed1b29;fill-opacity:1;fill-rule:nonzero;stroke:none" transform="matrix(0.13333333,0,0,-0.13333333,0,666.66667)" />
      <path id="path225" d="m 3156.78,2189.7 c 27.5,-27.49 27.5,-72.07 0,-99.57 -27.49,-27.5 -72.07,-27.5 -99.57,0 -27.5,27.5 -27.5,72.08 0,99.57 27.5,27.5 72.08,27.5 99.57,0" style="fill:#fffbf4;fill-opacity:1;fill-rule:nonzero;stroke:none" transform="matrix(0.13333333,0,0,-0.13333333,0,666.66667)" />
      <path id="path226" d="m 3128.34,2161.26 c 11.78,-11.79 11.78,-30.89 0,-42.68 -11.79,-11.79 -30.89,-11.79 -42.68,0 -11.78,11.79 -11.78,30.89 0,42.68 11.79,11.78 30.89,11.78 42.68,0" style="fill:#ed1b29;fill-opacity:1;fill-rule:nonzero;stroke:none" transform="matrix(0.13333333,0,0,-0.13333333,0,666.66667)" />
      <path id="path227" d="m 3064.32,2196.81 c 31.43,-31.41 31.43,-82.37 0,-113.79 -31.42,-31.42 -82.37,-31.42 -113.79,0 -31.43,31.42 -31.43,82.38 0,113.79 31.42,31.43 82.37,31.43 113.79,0" style="fill:#ed1b29;fill-opacity:1;fill-rule:nonzero;stroke:none" transform="matrix(0.13333333,0,0,-0.13333333,0,666.66667)" />
      <path id="path228" d="m 3263.47,2196.81 c 31.42,-31.41 31.42,-82.37 0,-113.79 -31.42,-31.42 -82.38,-31.42 -113.8,0 -31.42,31.42 -31.42,82.38 0,113.79 31.42,31.43 82.38,31.43 113.8,0" style="fill:#ed1b29;fill-opacity:1;fill-rule:nonzero;stroke:none" transform="matrix(0.13333333,0,0,-0.13333333,0,666.66667)" />
      <path id="path229" d="m 3050.1,2097.24 c 31.42,31.43 82.37,31.43 113.8,0 31.42,-31.42 31.42,-82.37 0,-113.8 -31.43,-31.42 -82.38,-31.42 -113.8,0 -31.43,31.43 -31.43,82.38 0,113.8" style="fill:#ed1b29;fill-opacity:1;fill-rule:nonzero;stroke:none" transform="matrix(0.13333333,0,0,-0.13333333,0,666.66667)" />
      <path id="path230" d="m 3050.1,2296.39 c 31.42,31.43 82.37,31.43 113.8,0 31.42,-31.42 31.42,-82.37 0,-113.8 -31.43,-31.42 -82.38,-31.42 -113.8,0 -31.43,31.43 -31.43,82.38 0,113.8" style="fill:#ed1b29;fill-opacity:1;fill-rule:nonzero;stroke:none" transform="matrix(0.13333333,0,0,-0.13333333,0,666.66667)" />
      <path id="path231" d="m 3156.78,2189.7 c 27.5,-27.49 27.5,-72.07 0,-99.57 -27.49,-27.5 -72.07,-27.5 -99.57,0 -27.5,27.5 -27.5,72.08 0,99.57 27.5,27.5 72.08,27.5 99.57,0" style="fill:#fffbf4;fill-opacity:1;fill-rule:nonzero;stroke:none" transform="matrix(0.13333333,0,0,-0.13333333,0,666.66667)" />
      <path id="path232" d="m 3128.34,2161.26 c 11.78,-11.79 11.78,-30.89 0,-42.68 -11.79,-11.79 -30.89,-11.79 -42.68,0 -11.78,11.79 -11.78,30.89 0,42.68 11.79,11.78 30.89,11.78 42.68,0" style="fill:#ed1b29;fill-opacity:1;fill-rule:nonzero;stroke:none" transform="matrix(0.13333333,0,0,-0.13333333,0,666.66667)" />
      </g></svg>