<?xml version='1.0' encoding='utf-8'?>
<svg xmlns="http://www.w3.org/2000/svg" version="1.1" width="223.920" height="247.954" viewBox="435.491 378.039 223.920 247.954"><g id="object"><path id="path66" d="M 4384.43,1234.88 H 4236.96 V 350.051 h 147.47 v 884.829" style="fill:#1f254c;fill-opacity:1;fill-rule:nonzero;stroke:none" transform="matrix(0.13333333,0,0,-0.13333333,0,666.66667)" />
      <path id="path67" d="m 4310.69,939.93 v 0 c -325.78,0 -589.89,264.1 -589.89,589.89 v 0 h 589.89 V 939.93" style="fill:#ee2238;fill-opacity:1;fill-rule:nonzero;stroke:none" transform="matrix(0.13333333,0,0,-0.13333333,0,666.66667)" />
      <path id="path68" d="m 4900.58,1529.82 v 0 c 0,-325.79 -264.1,-589.89 -589.89,-589.89 v 0 589.89 h 589.89" style="fill:#f68b11;fill-opacity:1;fill-rule:nonzero;stroke:none" transform="matrix(0.13333333,0,0,-0.13333333,0,666.66667)" />
      <path id="path69" d="m 4310.69,2119.71 v 0 c 325.79,0 589.89,-264.1 589.89,-589.89 v 0 h -589.89 v 589.89" style="fill:#ee2238;fill-opacity:1;fill-rule:nonzero;stroke:none" transform="matrix(0.13333333,0,0,-0.13333333,0,666.66667)" />
      <path id="path70" d="m 3720.8,1529.82 v 0 c 0,325.79 264.11,589.89 589.89,589.89 v 0 -589.89 H 3720.8" style="fill:#f68b11;fill-opacity:1;fill-rule:nonzero;stroke:none" transform="matrix(0.13333333,0,0,-0.13333333,0,666.66667)" />
      <path id="path71" d="m 4310.69,1234.88 v 0 c -162.89,0 -294.94,132.05 -294.94,294.94 v 0 h 294.94 v -294.94" style="fill:#feffff;fill-opacity:1;fill-rule:nonzero;stroke:none" transform="matrix(0.13333333,0,0,-0.13333333,0,666.66667)" />
      <path id="path72" d="m 4605.64,1529.82 v 0 c 0,-162.89 -132.05,-294.94 -294.95,-294.94 v 0 294.94 h 294.95" style="fill:#39b7ed;fill-opacity:1;fill-rule:nonzero;stroke:none" transform="matrix(0.13333333,0,0,-0.13333333,0,666.66667)" />
      <path id="path73" d="m 4310.69,1824.76 v 0 c 162.9,0 294.95,-132.05 294.95,-294.94 v 0 h -294.95 v 294.94" style="fill:#feffff;fill-opacity:1;fill-rule:nonzero;stroke:none" transform="matrix(0.13333333,0,0,-0.13333333,0,666.66667)" />
      <path id="path74" d="m 4015.75,1529.82 v 0 c 0,162.89 132.05,294.94 294.94,294.94 v 0 -294.94 h -294.94" style="fill:#39b7ed;fill-opacity:1;fill-rule:nonzero;stroke:none" transform="matrix(0.13333333,0,0,-0.13333333,0,666.66667)" />
      <path id="path103" d="M 3435.06,615.5 H 3311.18 V 491.609 c 0,-78.187 63.38,-141.558 141.57,-141.558 h 123.88 v 123.871 c 0,78.199 -63.38,141.578 -141.57,141.578" style="fill:#ee2238;fill-opacity:1;fill-rule:nonzero;stroke:none" transform="matrix(0.13333333,0,0,-0.13333333,0,666.66667)" />
      <path id="path104" d="m 3718.2,615.5 h 123.89 V 491.609 c 0,-78.187 -63.39,-141.558 -141.58,-141.558 h -123.88 v 123.871 c 0,78.199 63.39,141.578 141.57,141.578" style="fill:#1f254c;fill-opacity:1;fill-rule:nonzero;stroke:none" transform="matrix(0.13333333,0,0,-0.13333333,0,666.66667)" />
      <path id="path105" d="m 3709.36,790.621 c 0,-73.301 -59.43,-132.723 -132.73,-132.723 -73.3,0 -132.72,59.422 -132.72,132.723 0,73.301 59.42,132.731 132.72,132.731 73.3,0 132.73,-59.43 132.73,-132.731" style="fill:#f68b11;fill-opacity:1;fill-rule:nonzero;stroke:none" transform="matrix(0.13333333,0,0,-0.13333333,0,666.66667)" />
      <path id="path107" d="m 3620.88,790.621 c 0,-24.43 -19.81,-44.242 -44.25,-44.242 -24.43,0 -44.24,19.812 -44.24,44.242 0,24.438 19.81,44.25 44.24,44.25 24.44,0 44.25,-19.812 44.25,-44.25" style="fill:#1f254c;fill-opacity:1;fill-rule:nonzero;stroke:none" transform="matrix(0.13333333,0,0,-0.13333333,0,666.66667)" />
      </g></svg>