<?xml version='1.0' encoding='utf-8'?>
<svg xmlns="http://www.w3.org/2000/svg" version="1.1" width="337.567" height="247.955" viewBox="50.062 94.892 337.567 247.955"><g id="object"><path id="path75" d="m 650.133,2871.82 c 0,-24.44 19.805,-44.24 44.242,-44.24 24.434,0 44.238,19.8 44.238,44.24 0,24.43 -19.804,44.24 -44.238,44.24 -24.437,0 -44.242,-19.81 -44.242,-44.24" style="fill:#1f254c;fill-opacity:1;fill-rule:nonzero;stroke:none" transform="matrix(0.13333333,0,0,-0.13333333,0,666.66667)" />
      <path id="path76" d="m 738.613,2960.3 c 0,-24.43 19.813,-44.24 44.246,-44.24 24.434,0 44.243,19.81 44.243,44.24 0,24.44 -19.809,44.24 -44.243,44.24 -24.433,0 -44.246,-19.8 -44.246,-44.24" style="fill:#ee2238;fill-opacity:1;fill-rule:nonzero;stroke:none" transform="matrix(0.13333333,0,0,-0.13333333,0,666.66667)" />
      <path id="path77" d="m 561.648,2960.3 c 0,-24.43 19.809,-44.24 44.243,-44.24 24.433,0 44.242,19.81 44.242,44.24 0,24.44 -19.809,44.24 -44.242,44.24 -24.434,0 -44.243,-19.8 -44.243,-44.24" style="fill:#ee2238;fill-opacity:1;fill-rule:nonzero;stroke:none" transform="matrix(0.13333333,0,0,-0.13333333,0,666.66667)" />
      <path id="path78" d="m 420.469,2827.58 v 0 -88.49 c 0,-146.6 118.844,-265.44 265.449,-265.44 v 0 88.48 c 0,146.6 -118.848,265.45 -265.449,265.45" style="fill:#39b7ed;fill-opacity:1;fill-rule:nonzero;stroke:none" transform="matrix(0.13333333,0,0,-0.13333333,0,666.66667)" />
      <path id="path79" d="m 685.918,2473.65 v 0 c 146.602,0 265.449,118.84 265.449,265.44 v 88.49 0 c -146.601,0 -265.449,-118.85 -265.449,-265.45 v -88.48" style="fill:#1f254c;fill-opacity:1;fill-rule:nonzero;stroke:none" transform="matrix(0.13333333,0,0,-0.13333333,0,666.66667)" />
      <path id="path108" d="m 1446.48,2916.06 v -442.41 h 176.97 v 88.48 h -88.48 v 353.93 h -88.49" style="fill:#1f254c;fill-opacity:1;fill-rule:nonzero;stroke:none" transform="matrix(0.13333333,0,0,-0.13333333,0,666.66667)" />
      <path id="path109" d="m 1711.93,2916.06 v -442.41 h 176.97 v 88.48 h -88.48 v 353.93 h -88.49" style="fill:#1f254c;fill-opacity:1;fill-rule:nonzero;stroke:none" transform="matrix(0.13333333,0,0,-0.13333333,0,666.66667)" />
      <path id="path110" d="m 2154.35,3535.45 h -707.87 v 349.89 c 0,197.7 160.27,357.97 357.97,357.97 h 349.9 v -707.86" style="fill:#ee2238;fill-opacity:1;fill-rule:nonzero;stroke:none" transform="matrix(0.13333333,0,0,-0.13333333,0,666.66667)" />
      <path id="path111" d="m 2862.22,3889.38 h -707.87 v 353.93 h 353.93 c 195.48,0 353.94,-158.46 353.94,-353.93 v 0" style="fill:#39b7ed;fill-opacity:1;fill-rule:nonzero;stroke:none" transform="matrix(0.13333333,0,0,-0.13333333,0,666.66667)" />
      <path id="path112" d="m 2862.22,3889.38 h -353.94 v 353.93 c 195.45,0 353.94,-158.48 353.94,-353.93" style="fill:#f68b11;fill-opacity:1;fill-rule:nonzero;stroke:none" transform="matrix(0.13333333,0,0,-0.13333333,0,666.66667)" />
      <path id="path113" d="m 2510.98,4243.25 c -0.91,0 -1.79,0.06 -2.7,0.06 h -353.93 v -353.93 l 356.63,353.87" style="fill:#1f254c;fill-opacity:1;fill-rule:nonzero;stroke:none" transform="matrix(0.13333333,0,0,-0.13333333,0,666.66667)" />
      <path id="path114" d="m 1977.38,3889.38 c 0,97.74 -79.23,176.96 -176.96,176.96 -97.74,0 -176.97,-79.22 -176.97,-176.96 0,-97.74 79.23,-176.97 176.97,-176.97 97.73,0 176.96,79.23 176.96,176.97" style="fill:#feffff;fill-opacity:1;fill-rule:nonzero;stroke:none" transform="matrix(0.13333333,0,0,-0.13333333,0,666.66667)" />
      <path id="path115" d="m 1888.9,3889.38 c 0,48.87 -39.62,88.48 -88.48,88.48 -48.87,0 -88.49,-39.61 -88.49,-88.48 0,-48.87 39.62,-88.48 88.49,-88.48 48.86,0 88.48,39.61 88.48,88.48" style="fill:#1f254c;fill-opacity:1;fill-rule:nonzero;stroke:none" transform="matrix(0.13333333,0,0,-0.13333333,0,666.66667)" />
      <path id="path116" d="m 2154.35,3535.45 v -315.3 c 0,-216.78 -175.79,-392.57 -392.57,-392.57 h -315.3 v 707.87 h 707.87" style="fill:#f68b11;fill-opacity:1;fill-rule:nonzero;stroke:none" transform="matrix(0.13333333,0,0,-0.13333333,0,666.66667)" />
      <path id="path117" d="m 1446.48,2827.58 v 0 707.87 H 738.613 v 0 c 0,-390.95 316.927,-707.87 707.867,-707.87" style="fill:#39b7ed;fill-opacity:1;fill-rule:nonzero;stroke:none" transform="matrix(0.13333333,0,0,-0.13333333,0,666.66667)" />
      <path id="path118" d="m 1446.48,3181.51 v 0 353.94 h -353.93 v 0 c 0,-195.48 158.46,-353.94 353.93,-353.94" style="fill:#1f254c;fill-opacity:1;fill-rule:nonzero;stroke:none" transform="matrix(0.13333333,0,0,-0.13333333,0,666.66667)" />
      <path id="path119" d="m 1446.48,3181.51 v 0 353.94 h 353.94 v 0 c 0,-195.48 -158.47,-353.94 -353.94,-353.94" style="fill:#feffff;fill-opacity:1;fill-rule:nonzero;stroke:none" transform="matrix(0.13333333,0,0,-0.13333333,0,666.66667)" />
      <path id="path120" d="m 2862.22,3889.38 h -353.94 v 353.93 c 195.45,0 353.94,-158.48 353.94,-353.93" style="fill:#f68b11;fill-opacity:1;fill-rule:nonzero;stroke:none" transform="matrix(0.13333333,0,0,-0.13333333,0,666.66667)" />
      </g></svg>