<?xml version='1.0' encoding='utf-8'?>
<svg xmlns="http://www.w3.org/2000/svg" version="1.1" width="76.352" height="54.900" viewBox="56.016 388.764 76.352 54.900"><g id="object"><path id="path54" d="m 786.883,1958.84 c 0,44.42 -36.016,80.43 -80.442,80.43 -44.429,0 -80.437,-36.01 -80.437,-80.43 0,-44.43 36.008,-80.44 80.437,-80.44 44.426,0 80.442,36.01 80.442,80.44" style="fill:#1f254c;fill-opacity:1;fill-rule:nonzero;stroke:none" transform="matrix(0.13333333,0,0,-0.13333333,0,666.66667)" />
      <path id="path55" d="m 626.004,1797.96 c 0,44.42 -36.016,80.44 -80.441,80.44 -44.43,0 -80.442,-36.02 -80.442,-80.44 0,-44.43 36.012,-80.44 80.442,-80.44 44.425,0 80.441,36.01 80.441,80.44" style="fill:#f68b11;fill-opacity:1;fill-rule:nonzero;stroke:none" transform="matrix(0.13333333,0,0,-0.13333333,0,666.66667)" />
      <path id="path56" d="m 947.762,1797.96 c 0,44.42 -36.016,80.44 -80.442,80.44 -44.429,0 -80.437,-36.02 -80.437,-80.44 0,-44.43 36.008,-80.44 80.437,-80.44 44.426,0 80.442,36.01 80.442,80.44" style="fill:#f68b11;fill-opacity:1;fill-rule:nonzero;stroke:none" transform="matrix(0.13333333,0,0,-0.13333333,0,666.66667)" />
      </g></svg>