<?xml version='1.0' encoding='utf-8'?>
<svg xmlns="http://www.w3.org/2000/svg" version="1.1" width="154.368" height="35.728" viewBox="488.068 54.917 154.368 35.728"><g id="object"><path id="path183" d="m 4061.43,4543.12 c 0,-98.28 79.67,-177.96 177.96,-177.96 98.28,0 177.96,79.68 177.96,177.96 h -355.92" style="fill:#fab20b;fill-opacity:1;fill-rule:nonzero;stroke:none" transform="matrix(0.13333333,0,0,-0.13333333,0,666.66667)" />
      <path id="path184" d="m 4150.41,4543.12 c 0,-49.14 39.83,-88.98 88.98,-88.98 49.14,0 88.98,39.84 88.98,88.98 h -177.96" style="fill:#286aaa;fill-opacity:1;fill-rule:nonzero;stroke:none" transform="matrix(0.13333333,0,0,-0.13333333,0,666.66667)" />
      <path id="path185" d="m 3824.15,4543.12 c 0,-65.53 53.11,-118.64 118.64,-118.64 65.52,0 118.64,53.11 118.64,118.64 h -237.28" style="fill:#3ebeb9;fill-opacity:1;fill-rule:nonzero;stroke:none" transform="matrix(0.13333333,0,0,-0.13333333,0,666.66667)" />
      <path id="path186" d="m 3883.47,4543.12 c 0,-32.76 26.56,-59.32 59.32,-59.32 32.76,0 59.32,26.56 59.32,59.32 h -118.64" style="fill:#fab20b;fill-opacity:1;fill-rule:nonzero;stroke:none" transform="matrix(0.13333333,0,0,-0.13333333,0,666.66667)" />
      <path id="path187" d="m 4417.35,4543.12 c 0,-65.53 53.12,-118.64 118.63,-118.64 65.53,0 118.65,53.11 118.65,118.64 h -237.28" style="fill:#3ebeb9;fill-opacity:1;fill-rule:nonzero;stroke:none" transform="matrix(0.13333333,0,0,-0.13333333,0,666.66667)" />
      <path id="path188" d="m 4476.67,4543.12 c 0,-32.76 26.56,-59.32 59.31,-59.32 32.77,0 59.33,26.56 59.33,59.32 h -118.64" style="fill:#fab20b;fill-opacity:1;fill-rule:nonzero;stroke:none" transform="matrix(0.13333333,0,0,-0.13333333,0,666.66667)" />
      <path id="path198" d="m 3705.51,4424.48 v 0 118.64 h 118.64 v 0 c 0,-65.53 -53.12,-118.64 -118.64,-118.64" style="fill:#f57515;fill-opacity:1;fill-rule:nonzero;stroke:none" transform="matrix(0.13333333,0,0,-0.13333333,0,666.66667)" />
      <path id="path199" d="m 4654.63,4543.12 v 0 h 118.64 v -118.64 c -65.53,0 -118.64,53.11 -118.64,118.64" style="fill:#f57515;fill-opacity:1;fill-rule:nonzero;stroke:none" transform="matrix(0.13333333,0,0,-0.13333333,0,666.66667)" />
      </g></svg>