<?xml version='1.0' encoding='utf-8'?>
<svg xmlns="http://www.w3.org/2000/svg" version="1.1" width="82.786" height="135.876" viewBox="303.587 206.971 82.786 135.876"><g id="object"><path id="path80" d="m 2543.11,3270 c 0,-24.44 19.81,-44.25 44.24,-44.25 24.43,0 44.24,19.81 44.24,44.25 0,24.43 -19.81,44.24 -44.24,44.24 -24.43,0 -44.24,-19.81 -44.24,-44.24" style="fill:#1f254c;fill-opacity:1;fill-rule:nonzero;stroke:none" transform="matrix(0.13333333,0,0,-0.13333333,0,666.66667)" />
      <path id="path81" d="m 2631.59,3358.48 c 0,-24.44 19.81,-44.24 44.24,-44.24 24.43,0 44.24,19.8 44.24,44.24 0,24.43 -19.81,44.24 -44.24,44.24 -24.43,0 -44.24,-19.81 -44.24,-44.24" style="fill:#39b7ed;fill-opacity:1;fill-rule:nonzero;stroke:none" transform="matrix(0.13333333,0,0,-0.13333333,0,666.66667)" />
      <path id="path82" d="m 2454.63,3358.48 c 0,-24.44 19.8,-44.24 44.24,-44.24 24.43,0 44.24,19.8 44.24,44.24 0,24.43 -19.81,44.24 -44.24,44.24 -24.44,0 -44.24,-19.81 -44.24,-44.24" style="fill:#39b7ed;fill-opacity:1;fill-rule:nonzero;stroke:none" transform="matrix(0.13333333,0,0,-0.13333333,0,666.66667)" />
      <path id="path83" d="m 2321.9,2827.58 v 0 -88.49 c 0,-146.6 118.84,-265.44 265.45,-265.44 v 0 88.48 c 0,146.6 -118.85,265.45 -265.45,265.45" style="fill:#ee2238;fill-opacity:1;fill-rule:nonzero;stroke:none" transform="matrix(0.13333333,0,0,-0.13333333,0,666.66667)" />
      <path id="path84" d="m 2587.35,2473.65 v 0 c 146.6,0 265.45,118.84 265.45,265.44 v 88.49 0 c -146.6,0 -265.45,-118.85 -265.45,-265.45 v -88.48" style="fill:#1f254c;fill-opacity:1;fill-rule:nonzero;stroke:none" transform="matrix(0.13333333,0,0,-0.13333333,0,666.66667)" />
      <path id="path85" d="m 2321.9,3181.51 v 0 -88.48 c 0,-146.61 118.84,-265.45 265.45,-265.45 v 0 88.48 c 0,146.61 -118.85,265.45 -265.45,265.45" style="fill:#ee2238;fill-opacity:1;fill-rule:nonzero;stroke:none" transform="matrix(0.13333333,0,0,-0.13333333,0,666.66667)" />
      <path id="path86" d="m 2587.35,2827.58 v 0 c 146.6,0 265.45,118.84 265.45,265.45 v 88.48 0 c -146.6,0 -265.45,-118.84 -265.45,-265.45 v -88.48" style="fill:#1f254c;fill-opacity:1;fill-rule:nonzero;stroke:none" transform="matrix(0.13333333,0,0,-0.13333333,0,666.66667)" />
      </g></svg>