<?xml version='1.0' encoding='utf-8'?>
<svg xmlns="http://www.w3.org/2000/svg" version="1.1" width="286.656" height="327.974" viewBox="32.190 38.163 286.656 327.974"><g id="object"><path id="path73" d="m 1763,3903.15 h -583.34 v 291.67 c 0,161.09 130.59,291.66 291.67,291.66 v 0 c 161.09,0 291.67,-130.57 291.67,-291.66 v -291.67" style="fill:#ef2c8f;fill-opacity:1;fill-rule:nonzero;stroke:none" transform="matrix(0.13333333,0,0,-0.13333333,0,666.66667)" />
      <path id="path74" d="m 1454.87,4266.53 c 111.85,0 202.51,-107.52 202.51,-107.52 0,0 -90.66,-107.53 -202.51,-107.53 -111.84,0 -202.51,107.53 -202.51,107.53 0,0 90.67,107.52 202.51,107.52" style="fill:#f9fcfb;fill-opacity:1;fill-rule:nonzero;stroke:none" transform="matrix(0.13333333,0,0,-0.13333333,0,666.66667)" />
      <path id="path75" d="m 1522.97,4159.01 c 0,37.61 -30.49,68.1 -68.1,68.1 -37.61,0 -68.1,-30.49 -68.1,-68.1 0,-37.62 30.49,-68.1 68.1,-68.1 37.61,0 68.1,30.48 68.1,68.1" style="fill:#2c314f;fill-opacity:1;fill-rule:nonzero;stroke:none" transform="matrix(0.13333333,0,0,-0.13333333,0,666.66667)" />
      <path id="path76" d="m 1763,4194.82 583.34,-291.67 H 1763 Z" style="fill:#2c314f;fill-opacity:1;fill-rule:nonzero;stroke:none" transform="matrix(0.13333333,0,0,-0.13333333,0,666.66667)" />
      <path id="path77" d="M 1179.66,3903.15 286.426,2736.47 H 1284.9 c 264.05,0 478.1,214.05 478.1,478.1 v 688.58 h -583.34" style="fill:#ef2c8f;fill-opacity:1;fill-rule:nonzero;stroke:none" transform="matrix(0.13333333,0,0,-0.13333333,0,666.66667)" />
      <path id="path78" d="m 1762.9,3210.44 c -2.13,-260.69 -213.18,-471.74 -473.86,-473.87 v 0 c 0,261.71 212.15,473.87 473.86,473.87 v 0" style="fill:#37b5e5;fill-opacity:1;fill-rule:nonzero;stroke:none" transform="matrix(0.13333333,0,0,-0.13333333,0,666.66667)" />
      <path id="path79" d="M 815.074,2444.8 H 742.16 v 291.67 h 72.914 V 2444.8" style="fill:#2c314f;fill-opacity:1;fill-rule:nonzero;stroke:none" transform="matrix(0.13333333,0,0,-0.13333333,0,666.66667)" />
      <path id="path80" d="M 887.996,2444.8 H 742.16 v -68.24 c 0,-42.85 34.742,-77.59 77.598,-77.59 h 68.238 c 40.266,0 72.914,32.64 72.914,72.91 v 0 c 0,40.28 -32.648,72.92 -72.914,72.92" style="fill:#2c314f;fill-opacity:1;fill-rule:nonzero;stroke:none" transform="matrix(0.13333333,0,0,-0.13333333,0,666.66667)" />
      <path id="path81" d="m 1179.66,2444.8 h -72.92 v 291.67 h 72.92 V 2444.8" style="fill:#2c314f;fill-opacity:1;fill-rule:nonzero;stroke:none" transform="matrix(0.13333333,0,0,-0.13333333,0,666.66667)" />
      <path id="path82" d="m 1252.58,2444.8 h -145.84 v -68.24 c 0,-42.85 34.75,-77.59 77.6,-77.59 h 68.24 c 40.27,0 72.92,32.64 72.92,72.91 v 0 c 0,40.28 -32.65,72.92 -72.92,72.92" style="fill:#2c314f;fill-opacity:1;fill-rule:nonzero;stroke:none" transform="matrix(0.13333333,0,0,-0.13333333,0,666.66667)" />
      <path id="path83" d="M 1223.84,3281.49 815.074,2736.47 H 286.426 l 893.234,1166.68 v 0 c 167.36,-167.36 186.19,-432.31 44.18,-621.66" style="fill:#2c314f;fill-opacity:1;fill-rule:nonzero;stroke:none" transform="matrix(0.13333333,0,0,-0.13333333,0,666.66667)" />
      <path id="path84" d="m 1289.04,4395.34 h 364.58 v 273.44 l -91.14,-91.15 -91.15,91.15 -91.14,-91.15 -91.15,91.15 v -273.44" style="fill:#f68712;fill-opacity:1;fill-rule:nonzero;stroke:none" transform="matrix(0.13333333,0,0,-0.13333333,0,666.66667)" />
      <path id="path86" d="m 2109.36,2754.7 v 0 c -201.36,0 -364.59,-163.23 -364.59,-364.59 v 0 h 364.59 v 364.59" style="fill:#f68712;fill-opacity:1;fill-rule:nonzero;stroke:none" transform="matrix(0.13333333,0,0,-0.13333333,0,666.66667)" />
      </g></svg>