<?xml version='1.0' encoding='utf-8'?>
<svg xmlns="http://www.w3.org/2000/svg" version="1.1" width="65.231" height="38.616" viewBox="477.151 579.344 65.231 38.616"><g id="object"><path id="path65" d="m 3954.26,609.922 h 68.6 v -68.59 c 0,-72.371 -58.66,-131.031 -131.03,-131.031 h -68.58 v 68.59 c 0,72.371 58.65,131.031 131.01,131.031" style="fill:#782d99;fill-opacity:1;fill-rule:nonzero;stroke:none" transform="matrix(0.13333333,0,0,-0.13333333,0,666.66667)" />
      <path id="path66" d="M 4022.86,609.922 3823.25,410.301 v 68.609 c 0,72.379 58.62,131.012 130.99,131.012 h 68.62" style="fill:#f57930;fill-opacity:1;fill-rule:nonzero;stroke:none" transform="matrix(0.13333333,0,0,-0.13333333,0,666.66667)" />
      <path id="path67" d="m 3692.23,609.922 h -68.6 v -68.59 c 0,-72.371 58.67,-131.031 131.02,-131.031 h 68.6 v 68.59 c 0,72.371 -58.66,131.031 -131.02,131.031" style="fill:#782d99;fill-opacity:1;fill-rule:nonzero;stroke:none" transform="matrix(0.13333333,0,0,-0.13333333,0,666.66667)" />
      <path id="path68" d="m 3823.25,478.91 v -68.609 l -199.62,199.621 h 68.61 c 72.38,0 131.01,-58.633 131.01,-131.012" style="fill:#782d99;fill-opacity:1;fill-rule:nonzero;stroke:none" transform="matrix(0.13333333,0,0,-0.13333333,0,666.66667)" />
      <path id="path69" d="m 3823.25,478.91 v -68.609 l -199.62,199.621 h 68.61 c 72.38,0 131.01,-58.633 131.01,-131.012" style="fill:#592587;fill-opacity:1;fill-rule:nonzero;stroke:none" transform="matrix(0.13333333,0,0,-0.13333333,0,666.66667)" />
      <path id="path70" d="M 4022.86,609.922 3823.25,410.301 v 68.609 c 0,72.379 58.62,131.012 130.99,131.012 h 68.62" style="fill:#592587;fill-opacity:1;fill-rule:nonzero;stroke:none" transform="matrix(0.13333333,0,0,-0.13333333,0,666.66667)" />
      </g></svg>