<?xml version='1.0' encoding='utf-8'?>
<svg xmlns="http://www.w3.org/2000/svg" version="1.1" width="121.741" height="60.012" viewBox="136.491 567.386 121.741 60.012"><g id="object"><path id="path175" d="M 1325.89,699.602 H 1223 c -85.23,0 -154.32,-69.102 -154.32,-154.321 v 0 h 411.53 v 0 c 0,85.219 -69.1,154.321 -154.32,154.321" style="fill:#f9aa0c;fill-opacity:1;fill-rule:nonzero;stroke:none" transform="matrix(0.13333333,0,0,-0.13333333,0,666.66667)" />
      <path id="path176" d="m 1737.4,699.602 h -102.88 c -85.22,0 -154.31,-69.102 -154.31,-154.321 v 0 h 411.52 v 0 c 0,85.219 -69.1,154.321 -154.33,154.321" style="fill:#f57930;fill-opacity:1;fill-rule:nonzero;stroke:none" transform="matrix(0.13333333,0,0,-0.13333333,0,666.66667)" />
      <path id="path177" d="m 1891.73,545.281 h -823.05 v -0.011 c 0,-113.629 92.13,-205.75 205.76,-205.75 h 411.52 c 113.65,0 205.77,92.121 205.77,205.75 v 0.011" style="fill:#ed1b29;fill-opacity:1;fill-rule:nonzero;stroke:none" transform="matrix(0.13333333,0,0,-0.13333333,0,666.66667)" />
      <path id="path178" d="m 1891.74,545.262 c 0,-113.621 -92.12,-205.742 -205.75,-205.742 h -205.74 v 205.742 h 411.49" style="fill:#b91d23;fill-opacity:1;fill-rule:nonzero;stroke:none" transform="matrix(0.13333333,0,0,-0.13333333,0,666.66667)" />
      </g></svg>