<?xml version='1.0' encoding='utf-8'?>
<svg xmlns="http://www.w3.org/2000/svg" version="1.1" width="65.229" height="29.744" viewBox="873.240 399.349 65.229 29.744"><g id="object"><path id="path116" d="m 6727.38,1959.88 c 0,-36.75 29.78,-66.53 66.53,-66.53 36.75,0 66.53,29.78 66.53,66.53 h -133.06" style="fill:#f57930;fill-opacity:1;fill-rule:nonzero;stroke:none" transform="matrix(0.13333333,0,0,-0.13333333,0,666.66667)" />
      <path id="path117" d="m 6594.3,1893.35 c 0,-36.75 29.79,-66.55 66.54,-66.55 36.74,0 66.54,29.8 66.54,66.55 H 6594.3" style="fill:#f9aa0c;fill-opacity:1;fill-rule:nonzero;stroke:none" transform="matrix(0.13333333,0,0,-0.13333333,0,666.66667)" />
      <path id="path118" d="m 6860.44,1893.35 c 0,-36.75 29.8,-66.55 66.55,-66.55 36.75,0 66.53,29.8 66.53,66.55 h -133.08" style="fill:#f9aa0c;fill-opacity:1;fill-rule:nonzero;stroke:none" transform="matrix(0.13333333,0,0,-0.13333333,0,666.66667)" />
      </g></svg>