<?xml version='1.0' encoding='utf-8'?>
<svg xmlns="http://www.w3.org/2000/svg" version="1.1" width="100.716" height="100.717" viewBox="365.608 150.945 100.716 100.717"><g id="object"><path id="path14" d="m 3141.92,3645.48 c 0,-98 -79.44,-177.44 -177.43,-177.44 -97.99,0 -177.43,79.44 -177.43,177.44 0,97.99 79.44,177.43 177.43,177.43 97.99,0 177.43,-79.44 177.43,-177.43" style="fill:#ed1b29;fill-opacity:1;fill-rule:nonzero;stroke:none" transform="matrix(0.13333333,0,0,-0.13333333,0,666.66667)" />
      <path id="path15" d="m 3053.2,3645.48 c 0,-49 -39.71,-88.72 -88.71,-88.72 -49,0 -88.71,39.72 -88.71,88.72 0,48.99 39.71,88.71 88.71,88.71 49,0 88.71,-39.72 88.71,-88.71" style="fill:#f9aa0c;fill-opacity:1;fill-rule:nonzero;stroke:none" transform="matrix(0.13333333,0,0,-0.13333333,0,666.66667)" />
      <path id="path16" d="m 3452.43,3334.97 c 0,-97.99 -79.44,-177.43 -177.43,-177.43 -98,0 -177.44,79.44 -177.44,177.43 0,97.99 79.44,177.43 177.44,177.43 97.99,0 177.43,-79.44 177.43,-177.43" style="fill:#ed1b29;fill-opacity:1;fill-rule:nonzero;stroke:none" transform="matrix(0.13333333,0,0,-0.13333333,0,666.66667)" />
      <path id="path17" d="m 3363.71,3334.97 c 0,-49 -39.72,-88.71 -88.71,-88.71 -49,0 -88.72,39.71 -88.72,88.71 0,49 39.72,88.71 88.72,88.71 48.99,0 88.71,-39.71 88.71,-88.71" style="fill:#f9aa0c;fill-opacity:1;fill-rule:nonzero;stroke:none" transform="matrix(0.13333333,0,0,-0.13333333,0,666.66667)" />
      <path id="path18" d="m 2964.49,3512.4 c 97.99,0 177.43,-79.44 177.43,-177.43 0,-97.99 -79.44,-177.43 -177.43,-177.43 -97.99,0 -177.43,79.44 -177.43,177.43 0,97.99 79.44,177.43 177.43,177.43" style="fill:#ed1b29;fill-opacity:1;fill-rule:nonzero;stroke:none" transform="matrix(0.13333333,0,0,-0.13333333,0,666.66667)" />
      <path id="path19" d="m 2964.49,3423.68 c 49,0 88.71,-39.71 88.71,-88.71 0,-49 -39.71,-88.71 -88.71,-88.71 -49,0 -88.71,39.71 -88.71,88.71 0,49 39.71,88.71 88.71,88.71" style="fill:#f9aa0c;fill-opacity:1;fill-rule:nonzero;stroke:none" transform="matrix(0.13333333,0,0,-0.13333333,0,666.66667)" />
      <path id="path20" d="m 3275,3822.91 c 97.99,0 177.43,-79.44 177.43,-177.43 0,-98 -79.44,-177.44 -177.43,-177.44 -98,0 -177.44,79.44 -177.44,177.44 0,97.99 79.44,177.43 177.44,177.43" style="fill:#ed1b29;fill-opacity:1;fill-rule:nonzero;stroke:none" transform="matrix(0.13333333,0,0,-0.13333333,0,666.66667)" />
      <path id="path21" d="m 3275,3734.19 c 48.99,0 88.71,-39.72 88.71,-88.71 0,-49 -39.72,-88.72 -88.71,-88.72 -49,0 -88.72,39.72 -88.72,88.72 0,48.99 39.72,88.71 88.72,88.71" style="fill:#f9aa0c;fill-opacity:1;fill-rule:nonzero;stroke:none" transform="matrix(0.13333333,0,0,-0.13333333,0,666.66667)" />
      <path id="path22" d="m 3275,3490.22 c 0,-85.74 -69.52,-155.25 -155.26,-155.25 -85.74,0 -155.25,69.51 -155.25,155.25 0,85.74 69.51,155.26 155.25,155.26 85.74,0 155.26,-69.52 155.26,-155.26" style="fill:#fffbf4;fill-opacity:1;fill-rule:nonzero;stroke:none" transform="matrix(0.13333333,0,0,-0.13333333,0,666.66667)" />
      <path id="path23" d="m 3186.28,3490.22 c 0,-36.75 -29.79,-66.54 -66.54,-66.54 -36.75,0 -66.54,29.79 -66.54,66.54 0,36.75 29.79,66.54 66.54,66.54 36.75,0 66.54,-29.79 66.54,-66.54" style="fill:#ed1b29;fill-opacity:1;fill-rule:nonzero;stroke:none" transform="matrix(0.13333333,0,0,-0.13333333,0,666.66667)" />
      </g></svg>