<?xml version='1.0' encoding='utf-8'?>
<svg xmlns="http://www.w3.org/2000/svg" version="1.1" width="94.400" height="94.401" viewBox="577.134 339.336 94.400 94.401"><g id="object"><path id="path215" d="m 4609.25,2198.63 c 53.94,-53.93 53.94,-141.38 0,-195.31 -53.92,-53.93 -141.37,-53.93 -195.3,0 -53.93,53.93 -53.93,141.38 0,195.31 53.93,53.94 141.38,53.94 195.3,0" style="fill:#ed1b29;fill-opacity:1;fill-rule:nonzero;stroke:none" transform="matrix(0.13333333,0,0,-0.13333333,0,666.66667)" />
      <path id="path216" d="m 4951.05,2198.63 c 53.94,-53.93 53.94,-141.38 0,-195.31 -53.93,-53.93 -141.38,-53.93 -195.31,0 -53.93,53.93 -53.93,141.38 0,195.31 53.93,53.94 141.38,53.94 195.31,0" style="fill:#ed1b29;fill-opacity:1;fill-rule:nonzero;stroke:none" transform="matrix(0.13333333,0,0,-0.13333333,0,666.66667)" />
      <path id="path217" d="m 4584.84,2027.73 c 53.94,53.94 141.38,53.94 195.31,0 53.94,-53.92 53.94,-141.38 0,-195.3 -53.93,-53.94 -141.37,-53.94 -195.31,0 -53.93,53.92 -53.93,141.38 0,195.3" style="fill:#ed1b29;fill-opacity:1;fill-rule:nonzero;stroke:none" transform="matrix(0.13333333,0,0,-0.13333333,0,666.66667)" />
      <path id="path218" d="m 4584.84,2369.53 c 53.94,53.93 141.38,53.93 195.31,0 53.94,-53.94 53.94,-141.38 0,-195.31 -53.93,-53.93 -141.37,-53.93 -195.31,0 -53.93,53.93 -53.93,141.37 0,195.31" style="fill:#ed1b29;fill-opacity:1;fill-rule:nonzero;stroke:none" transform="matrix(0.13333333,0,0,-0.13333333,0,666.66667)" />
      <path id="path219" d="m 4767.95,2186.42 c 47.19,-47.18 47.19,-123.7 0,-170.9 -47.19,-47.18 -123.71,-47.18 -170.9,0 -47.19,47.2 -47.19,123.72 0,170.9 47.19,47.2 123.71,47.2 170.9,0" style="fill:#fffbf4;fill-opacity:1;fill-rule:nonzero;stroke:none" transform="matrix(0.13333333,0,0,-0.13333333,0,666.66667)" />
      <path id="path220" d="m 4719.12,2137.59 c 20.22,-20.22 20.22,-53.01 0,-73.24 -20.23,-20.22 -53.02,-20.22 -73.24,0 -20.23,20.23 -20.23,53.02 0,73.24 20.22,20.23 53.01,20.23 73.24,0" style="fill:#ed1b29;fill-opacity:1;fill-rule:nonzero;stroke:none" transform="matrix(0.13333333,0,0,-0.13333333,0,666.66667)" />
      </g></svg>