<?xml version='1.0' encoding='utf-8'?>
<svg xmlns="http://www.w3.org/2000/svg" version="1.1" width="252.912" height="216.045" viewBox="71.333 351.339 252.912 216.045"><g id="object"><path id="path169" d="M 812.32,1779.84 H 580 v -232.32 c 0,-269.43 218.418,-487.85 487.85,-487.85 h 232.31 V 1292 c 0,269.42 -218.41,487.84 -487.84,487.84" style="fill:#ed1b29;fill-opacity:1;fill-rule:nonzero;stroke:none" transform="matrix(0.13333333,0,0,-0.13333333,0,666.66667)" />
      <path id="path170" d="m 1120.12,1419.75 c 0,99.44 -80.6,180.05 -180.034,180.05 -99.434,0 -180.039,-80.61 -180.039,-180.05 0,-99.43 80.605,-180.04 180.039,-180.04 99.434,0 180.034,80.61 180.034,180.04" style="fill:#fffbf4;fill-opacity:1;fill-rule:nonzero;stroke:none" transform="matrix(0.13333333,0,0,-0.13333333,0,666.66667)" />
      <path id="path171" d="m 1030.1,1419.75 c 0,49.72 -40.299,90.03 -90.014,90.03 -49.719,0 -90.02,-40.31 -90.02,-90.03 0,-49.71 40.301,-90.02 90.02,-90.02 49.715,0 90.014,40.31 90.014,90.02" style="fill:#782d99;fill-opacity:1;fill-rule:nonzero;stroke:none" transform="matrix(0.13333333,0,0,-0.13333333,0,666.66667)" />
      <path id="path172" d="m 2148.09,1779.84 h 232.32 v -232.32 c 0,-269.43 -218.42,-487.85 -487.85,-487.85 H 1660.25 V 1292 c 0,269.42 218.41,487.84 487.84,487.84" style="fill:#ed1b29;fill-opacity:1;fill-rule:nonzero;stroke:none" transform="matrix(0.13333333,0,0,-0.13333333,0,666.66667)" />
      <path id="path173" d="m 1840.28,1419.75 c 0,99.44 80.61,180.05 180.04,180.05 99.44,0 180.05,-80.61 180.05,-180.05 0,-99.43 -80.61,-180.04 -180.05,-180.04 -99.43,0 -180.04,80.61 -180.04,180.04" style="fill:#fffbf4;fill-opacity:1;fill-rule:nonzero;stroke:none" transform="matrix(0.13333333,0,0,-0.13333333,0,666.66667)" />
      <path id="path174" d="m 1930.3,1419.75 c 0,49.72 40.31,90.03 90.02,90.03 49.72,0 90.03,-40.31 90.03,-90.03 0,-49.71 -40.31,-90.02 -90.03,-90.02 -49.71,0 -90.02,40.31 -90.02,90.02" style="fill:#782d99;fill-opacity:1;fill-rule:nonzero;stroke:none" transform="matrix(0.13333333,0,0,-0.13333333,0,666.66667)" />
      <path id="path179" d="M 1300.16,1599.8 V 959.219 c 0,-48.77 27.56,-93.36 71.18,-115.168 l 108.87,-54.43 v 990.219 0 c -99.44,0 -180.05,-80.6 -180.05,-180.04" style="fill:#782d99;fill-opacity:1;fill-rule:nonzero;stroke:none" transform="matrix(0.13333333,0,0,-0.13333333,0,666.66667)" />
      <path id="path180" d="m 1480.21,1779.84 v 0 -990.219 l 108.85,54.43 c 43.63,21.808 71.19,66.398 71.19,115.168 V 1599.8 c 0,99.44 -80.61,180.04 -180.04,180.04" style="fill:#592587;fill-opacity:1;fill-rule:nonzero;stroke:none" transform="matrix(0.13333333,0,0,-0.13333333,0,666.66667)" />
      <path id="path181" d="m 1480.21,1600.04 v 179.8 c -99.36,0 -179.91,-80.48 -180.03,-179.8 h 180.03" style="fill:#f57930;fill-opacity:1;fill-rule:nonzero;stroke:none" transform="matrix(0.13333333,0,0,-0.13333333,0,666.66667)" />
      <path id="path182" d="m 1660.23,1600.04 c -0.13,99.32 -80.67,179.8 -180.02,179.8 v -179.8 h 180.02" style="fill:#ed1b29;fill-opacity:1;fill-rule:nonzero;stroke:none" transform="matrix(0.13333333,0,0,-0.13333333,0,666.66667)" />
      <path id="path183" d="m 1306.59,1905.3 c 0,55.37 -44.89,100.27 -100.27,100.27 H 586.434 v 0 l 584.676,-219.25 c 65.56,-24.58 135.48,23.87 135.48,93.88 v 25.1" style="fill:#f9aa0c;fill-opacity:1;fill-rule:nonzero;stroke:none" transform="matrix(0.13333333,0,0,-0.13333333,0,666.66667)" />
      <path id="path184" d="m 1666.68,1905.3 c 0,55.37 44.89,100.27 100.27,100.27 h 619.89 v 0 l -584.69,-219.25 c -65.55,-24.58 -135.47,23.87 -135.47,93.88 v 25.1" style="fill:#f9aa0c;fill-opacity:1;fill-rule:nonzero;stroke:none" transform="matrix(0.13333333,0,0,-0.13333333,0,666.66667)" />
      <path id="path187" d="m 1756.7,2319.96 h -540.13 v 0 c 0,-149.15 120.91,-270.06 270.06,-270.06 h 0.01 c 149.15,0 270.06,120.91 270.06,270.06 v 0" style="fill:#f57930;fill-opacity:1;fill-rule:nonzero;stroke:none" transform="matrix(0.13333333,0,0,-0.13333333,0,666.66667)" />
      <path id="path188" d="m 1666.68,2319.96 h -360.09 v 0 c 0,-99.44 80.61,-180.04 180.04,-180.04 h 0.01 c 99.43,0 180.04,80.6 180.04,180.04 v 0" style="fill:#ed1b29;fill-opacity:1;fill-rule:nonzero;stroke:none" transform="matrix(0.13333333,0,0,-0.13333333,0,666.66667)" />
      </g></svg>