<?xml version='1.0' encoding='utf-8'?>
<svg xmlns="http://www.w3.org/2000/svg" version="1.1" width="119.429" height="197.483" viewBox="354.113 415.649 119.429 197.483"><g id="object"><path id="path3" d="m 3506.57,1736.92 -402.86,-402.86 -402.86,402.86 z" style="fill:#ef2f48;fill-opacity:1;fill-rule:nonzero;stroke:none" transform="matrix(0.13333333,0,0,-0.13333333,0,666.66667)" />
      <path id="path4" d="m 3305.14,1736.92 -201.43,-201.43 -201.43,201.43 z" style="fill:#fabb34;fill-opacity:1;fill-rule:nonzero;stroke:none" transform="matrix(0.13333333,0,0,-0.13333333,0,666.66667)" />
      <path id="path5" d="m 2770.13,1434.74 v 0 0 c 0,-184.24 149.35,-333.58 333.58,-333.58 v 0 0 c 0,184.23 -149.35,333.58 -333.58,333.58" style="fill:#30286c;fill-opacity:1;fill-rule:nonzero;stroke:none" transform="matrix(0.13333333,0,0,-0.13333333,0,666.66667)" />
      <path id="path6" d="m 3103.69,1101.17 -333.6,333.6 c 92.16,0 175.58,-37.34 235.96,-97.72 60.3,-60.38 97.64,-143.8 97.64,-235.88" style="fill:#4e3d9f;fill-opacity:1;fill-rule:nonzero;stroke:none" transform="matrix(0.13333333,0,0,-0.13333333,0,666.66667)" />
      <path id="path7" d="m 3431,1434.74 v 0 0 c 0,-184.24 -149.35,-333.58 -333.58,-333.58 v 0 0 c 0,184.23 149.35,333.58 333.58,333.58" style="fill:#30286c;fill-opacity:1;fill-rule:nonzero;stroke:none" transform="matrix(0.13333333,0,0,-0.13333333,0,666.66667)" />
      <path id="path8" d="m 3097.43,1101.17 333.61,333.6 c -92.16,0 -175.57,-37.34 -235.96,-97.72 -60.3,-60.38 -97.65,-143.8 -97.65,-235.88" style="fill:#4e3d9f;fill-opacity:1;fill-rule:nonzero;stroke:none" transform="matrix(0.13333333,0,0,-0.13333333,0,666.66667)" />
      <path id="path9" d="m 2770.13,1107.42 v 0 0 c 0,-184.24 149.35,-333.588 333.58,-333.588 v 0 0 c 0,184.227 -149.35,333.588 -333.58,333.588" style="fill:#fabb34;fill-opacity:1;fill-rule:nonzero;stroke:none" transform="matrix(0.13333333,0,0,-0.13333333,0,666.66667)" />
      <path id="path10" d="m 3103.69,773.84 -333.6,333.61 c 92.16,0 175.58,-37.35 235.96,-97.73 60.3,-60.38 97.64,-143.798 97.64,-235.88" style="fill:#f46f1f;fill-opacity:1;fill-rule:nonzero;stroke:none" transform="matrix(0.13333333,0,0,-0.13333333,0,666.66667)" />
      <path id="path11" d="m 3431,1107.42 v 0 0 c 0,-184.24 -149.35,-333.588 -333.58,-333.588 v 0 0 c 0,184.227 149.35,333.588 333.58,333.588" style="fill:#fabb34;fill-opacity:1;fill-rule:nonzero;stroke:none" transform="matrix(0.13333333,0,0,-0.13333333,0,666.66667)" />
      <path id="path12" d="m 3097.43,773.84 333.61,333.61 c -92.16,0 -175.57,-37.35 -235.96,-97.73 -60.3,-60.38 -97.65,-143.798 -97.65,-235.88" style="fill:#f46f1f;fill-opacity:1;fill-rule:nonzero;stroke:none" transform="matrix(0.13333333,0,0,-0.13333333,0,666.66667)" />
      <path id="path13" d="m 2770.13,780.09 v 0 0 c 0,-184.231 149.35,-333.578 333.58,-333.578 v 0 0 c 0,184.23 -149.35,333.578 -333.58,333.578" style="fill:#30286c;fill-opacity:1;fill-rule:nonzero;stroke:none" transform="matrix(0.13333333,0,0,-0.13333333,0,666.66667)" />
      <path id="path14" d="m 3103.69,446.52 -333.6,333.601 c 92.16,0 175.58,-37.34 235.96,-97.723 60.3,-60.378 97.64,-143.796 97.64,-235.878" style="fill:#4e3d9f;fill-opacity:1;fill-rule:nonzero;stroke:none" transform="matrix(0.13333333,0,0,-0.13333333,0,666.66667)" />
      <path id="path15" d="m 3431,780.09 v 0 0 c 0,-184.231 -149.35,-333.578 -333.58,-333.578 v 0 0 c 0,184.23 149.35,333.578 333.58,333.578" style="fill:#30286c;fill-opacity:1;fill-rule:nonzero;stroke:none" transform="matrix(0.13333333,0,0,-0.13333333,0,666.66667)" />
      <path id="path16" d="m 3097.43,446.52 333.61,333.601 c -92.16,0 -175.57,-37.34 -235.96,-97.723 -60.3,-60.378 -97.65,-143.796 -97.65,-235.878" style="fill:#4e3d9f;fill-opacity:1;fill-rule:nonzero;stroke:none" transform="matrix(0.13333333,0,0,-0.13333333,0,666.66667)" />
      <path id="path17" d="m 2902.28,1736.92 c 0,55.63 -45.09,100.71 -100.71,100.71 v 0 c -55.63,0 -100.72,-45.08 -100.72,-100.71 h 201.43" style="fill:#30286c;fill-opacity:1;fill-rule:nonzero;stroke:none" transform="matrix(0.13333333,0,0,-0.13333333,0,666.66667)" />
      <path id="path18" d="m 3103.71,1736.92 c 0,55.63 -45.09,100.71 -100.71,100.71 v 0 c -55.63,0 -100.72,-45.08 -100.72,-100.71 h 201.43" style="fill:#ef2f48;fill-opacity:1;fill-rule:nonzero;stroke:none" transform="matrix(0.13333333,0,0,-0.13333333,0,666.66667)" />
      <path id="path19" d="m 3305.14,1736.92 c 0,55.63 -45.09,100.71 -100.71,100.71 v 0 c -55.63,0 -100.72,-45.08 -100.72,-100.71 h 201.43" style="fill:#ef2f48;fill-opacity:1;fill-rule:nonzero;stroke:none" transform="matrix(0.13333333,0,0,-0.13333333,0,666.66667)" />
      <path id="path20" d="m 3506.57,1736.92 c 0,55.63 -45.09,100.71 -100.71,100.71 v 0 c -55.62,0 -100.72,-45.08 -100.72,-100.71 h 201.43" style="fill:#30286c;fill-opacity:1;fill-rule:nonzero;stroke:none" transform="matrix(0.13333333,0,0,-0.13333333,0,666.66667)" />
      </g></svg>