<?xml version='1.0' encoding='utf-8'?>
<svg xmlns="http://www.w3.org/2000/svg" version="1.1" width="318.357" height="270.204" viewBox="479.243 360.861 318.357 270.204"><g id="object"><path id="path57" d="m 4284.83,2248.54 v 0 c -178.25,0 -322.76,-144.5 -322.76,-322.75 v -322.76 -322.75 c 0,-178.26 144.51,-322.76 322.76,-322.76 v 0 c 178.25,0 322.75,144.5 322.75,322.76 v 322.75 322.76 c 0,178.25 -144.5,322.75 -322.75,322.75" style="fill:#ee2238;fill-opacity:1;fill-rule:nonzero;stroke:none" transform="matrix(0.13333333,0,0,-0.13333333,0,666.66667)" />
      <path id="path58" d="m 4607.58,1925.79 h -645.51 c -178.26,0 -322.75,-144.5 -322.75,-322.76 v 0 c 0,-178.25 144.49,-322.75 322.75,-322.75 h 322.76 322.75 c 178.26,0 322.76,144.5 322.76,322.75 v 0 c 0,178.26 -144.5,322.76 -322.76,322.76" style="fill:#423f9f;fill-opacity:1;fill-rule:nonzero;stroke:none" transform="matrix(0.13333333,0,0,-0.13333333,0,666.66667)" />
      <path id="path59" d="m 3962.07,1459.59 c -79.1,0 -143.44,64.34 -143.44,143.44 0,79.1 64.34,143.45 143.44,143.45 h 645.51 c 79.1,0 143.45,-64.35 143.45,-143.45 0,-79.1 -64.35,-143.44 -143.45,-143.44 h -645.51" style="fill:#fbf5f7;fill-opacity:1;fill-rule:nonzero;stroke:none" transform="matrix(0.13333333,0,0,-0.13333333,0,666.66667)" />
      <path id="path60" d="m 4428.28,1280.28 c 0,-79.1 -64.36,-143.45 -143.45,-143.45 -79.1,0 -143.45,64.35 -143.45,143.45 v 645.51 c 0,79.09 64.35,143.45 143.45,143.45 79.09,0 143.45,-64.36 143.45,-143.45 v -645.51" style="fill:#fbf5f7;fill-opacity:1;fill-rule:nonzero;stroke:none" transform="matrix(0.13333333,0,0,-0.13333333,0,666.66667)" />
      <path id="path61" d="m 4446.21,1603.03 c 0,89.13 -72.26,161.38 -161.38,161.38 -89.13,0 -161.38,-72.25 -161.38,-161.38 0,-89.13 72.25,-161.37 161.38,-161.37 89.12,0 161.38,72.24 161.38,161.37" style="fill:#ee2238;fill-opacity:1;fill-rule:nonzero;stroke:none" transform="matrix(0.13333333,0,0,-0.13333333,0,666.66667)" />
      <path id="path62" d="m 4688.27,1038.21 v 0 0 c 0,-222.812 -180.63,-403.448 -403.44,-403.448 v 0 0 c 0,222.82 180.63,403.448 403.44,403.448" style="fill:#f8a020;fill-opacity:1;fill-rule:nonzero;stroke:none" transform="matrix(0.13333333,0,0,-0.13333333,0,666.66667)" />
      <path id="path63" d="m 3881.38,1038.21 v 0 0 c 0,-222.812 180.63,-403.448 403.45,-403.448 v 0 0 c 0,222.82 -180.63,403.448 -403.45,403.448" style="fill:#f8a020;fill-opacity:1;fill-rule:nonzero;stroke:none" transform="matrix(0.13333333,0,0,-0.13333333,0,666.66667)" />
      <path id="path64" d="m 4688.27,715.461 v 0 0 c 0,-222.82 -180.63,-403.449 -403.44,-403.449 v 0 0 c 0,222.82 180.63,403.449 403.44,403.449" style="fill:#ee2238;fill-opacity:1;fill-rule:nonzero;stroke:none" transform="matrix(0.13333333,0,0,-0.13333333,0,666.66667)" />
      <path id="path65" d="m 3881.38,715.461 v 0 0 c 0,-222.82 180.63,-403.449 403.45,-403.449 v 0 0 c 0,222.82 -180.63,403.449 -403.45,403.449" style="fill:#ee2238;fill-opacity:1;fill-rule:nonzero;stroke:none" transform="matrix(0.13333333,0,0,-0.13333333,0,666.66667)" />
      <path id="path66" d="m 5115.93,658.082 v 0 -0.012 c 0,-190.922 154.79,-345.699 345.72,-345.699 v 0 0 c 0,190.93 -154.78,345.711 -345.72,345.711" style="fill:#f8a020;fill-opacity:1;fill-rule:nonzero;stroke:none" transform="matrix(0.13333333,0,0,-0.13333333,0,666.66667)" />
      <path id="path67" d="m 5461.65,312.371 v 0 c 190.92,0 345.7,154.777 345.7,345.699 v 0.012 0 c -190.93,0 -345.7,-154.781 -345.7,-345.711 v 0" style="fill:#ee2238;fill-opacity:1;fill-rule:nonzero;stroke:none" transform="matrix(0.13333333,0,0,-0.13333333,0,666.66667)" />
      <path id="path68" d="m 5699.32,1371.1 c 0,131.27 -106.41,237.68 -237.67,237.68 -131.27,0 -237.68,-106.41 -237.68,-237.68 -131.26,0 -237.67,-106.41 -237.67,-237.68 0,-131.26 106.41,-237.67 237.67,-237.67 0,-131.258 106.41,-237.668 237.68,-237.668 131.26,0 237.67,106.41 237.67,237.668 131.26,0 237.68,106.41 237.68,237.67 0,131.27 -106.42,237.68 -237.68,237.68" style="fill:#423f9f;fill-opacity:1;fill-rule:nonzero;stroke:none" transform="matrix(0.13333333,0,0,-0.13333333,0,666.66667)" />
      <path id="path69" d="m 5656.11,1327.89 c 0,107.4 -87.07,194.46 -194.46,194.46 -107.41,0 -194.47,-87.06 -194.47,-194.46 -107.39,0 -194.46,-87.06 -194.46,-194.47 0,-107.39 87.07,-194.459 194.46,-194.459 0,-107.391 87.06,-194.449 194.47,-194.449 107.39,0 194.46,87.058 194.46,194.449 107.39,0 194.46,87.069 194.46,194.459 0,107.41 -87.07,194.47 -194.46,194.47" style="fill:#fbf5f7;fill-opacity:1;fill-rule:nonzero;stroke:none" transform="matrix(0.13333333,0,0,-0.13333333,0,666.66667)" />
      <path id="path70" d="m 5461.65,1414.31 c -77.57,77.57 -203.32,77.57 -280.89,0 -77.57,-77.56 -77.57,-203.32 0,-280.89 -77.57,-77.55 -77.57,-203.318 0,-280.881 77.57,-77.559 203.32,-77.559 280.89,0 77.57,-77.559 203.32,-77.559 280.89,0 77.56,77.563 77.56,203.331 0,280.881 77.56,77.57 77.56,203.33 0,280.89 -77.57,77.57 -203.32,77.57 -280.89,0" style="fill:#f8a020;fill-opacity:1;fill-rule:nonzero;stroke:none" transform="matrix(0.13333333,0,0,-0.13333333,0,666.66667)" />
      <path id="path71" d="m 5665.37,1133.42 c 0,-112.51 -91.21,-203.721 -203.72,-203.721 -112.51,0 -203.72,91.211 -203.72,203.721 0,112.52 91.21,203.73 203.72,203.73 112.51,0 203.72,-91.21 203.72,-203.73" style="fill:#ee2238;fill-opacity:1;fill-rule:nonzero;stroke:none" transform="matrix(0.13333333,0,0,-0.13333333,0,666.66667)" />
      <path id="path72" d="m 5591.29,1133.42 c 0,-71.59 -58.04,-129.63 -129.64,-129.63 -71.6,0 -129.64,58.04 -129.64,129.63 0,71.61 58.04,129.65 129.64,129.65 71.6,0 129.64,-58.04 129.64,-129.65" style="fill:#fbf5f7;fill-opacity:1;fill-rule:nonzero;stroke:none" transform="matrix(0.13333333,0,0,-0.13333333,0,666.66667)" />
      </g></svg>