<?xml version='1.0' encoding='utf-8'?>
<svg xmlns="http://www.w3.org/2000/svg" version="1.1" width="81.300" height="46.651" viewBox="499.556 339.652 81.300 46.651"><g id="object"><path id="path204" d="m 3964.92,2407.61 c 0,-47.84 38.78,-86.63 86.62,-86.63 47.84,0 86.63,38.79 86.63,86.63 h -173.25" style="fill:#3ebeb9;fill-opacity:1;fill-rule:nonzero;stroke:none" transform="matrix(0.13333333,0,0,-0.13333333,0,666.66667)" />
      <path id="path205" d="m 3964.92,2234.36 c 0,47.84 -38.79,86.62 -86.63,86.62 -47.84,0 -86.62,-38.78 -86.62,-86.62 0,-47.84 38.78,-86.63 86.62,-86.63 47.84,0 86.63,38.79 86.63,86.63" style="fill:#286aaa;fill-opacity:1;fill-rule:nonzero;stroke:none" transform="matrix(0.13333333,0,0,-0.13333333,0,666.66667)" />
      <path id="path206" d="m 4311.42,2234.36 c 0,47.84 -38.79,86.62 -86.63,86.62 -47.84,0 -86.62,-38.78 -86.62,-86.62 0,-47.84 38.78,-86.63 86.62,-86.63 47.84,0 86.63,38.79 86.63,86.63" style="fill:#286aaa;fill-opacity:1;fill-rule:nonzero;stroke:none" transform="matrix(0.13333333,0,0,-0.13333333,0,666.66667)" />
      </g></svg>