<?xml version='1.0' encoding='utf-8'?>
<svg xmlns="http://www.w3.org/2000/svg" version="1.1" width="76.353" height="54.900" viewBox="335.945 378.039 76.353 54.900"><g id="object"><path id="path41" d="m 2886.35,2039.27 c 0,44.43 -36.02,80.44 -80.44,80.44 -44.42,0 -80.44,-36.01 -80.44,-80.44 0,-44.42 36.02,-80.43 80.44,-80.43 44.42,0 80.44,36.01 80.44,80.43" style="fill:#1f254c;fill-opacity:1;fill-rule:nonzero;stroke:none" transform="matrix(0.13333333,0,0,-0.13333333,0,666.66667)" />
      <path id="path42" d="m 2725.47,1878.4 c 0,44.42 -36.02,80.44 -80.44,80.44 -44.42,0 -80.44,-36.02 -80.44,-80.44 0,-44.43 36.02,-80.44 80.44,-80.44 44.42,0 80.44,36.01 80.44,80.44" style="fill:#39b7ed;fill-opacity:1;fill-rule:nonzero;stroke:none" transform="matrix(0.13333333,0,0,-0.13333333,0,666.66667)" />
      <path id="path43" d="m 3047.23,1878.4 c 0,44.42 -36.02,80.44 -80.44,80.44 -44.43,0 -80.44,-36.02 -80.44,-80.44 0,-44.43 36.01,-80.44 80.44,-80.44 44.42,0 80.44,36.01 80.44,80.44" style="fill:#39b7ed;fill-opacity:1;fill-rule:nonzero;stroke:none" transform="matrix(0.13333333,0,0,-0.13333333,0,666.66667)" />
      </g></svg>