<?xml version='1.0' encoding='utf-8'?>
<svg xmlns="http://www.w3.org/2000/svg" version="1.1" width="108.020" height="108.023" viewBox="747.772 375.344 108.020 108.023"><g id="object"><path id="path193" d="m 6133.39,2019.89 c 0,-66.29 -120.03,-240.05 -120.03,-240.05 0,0 -120.02,173.76 -120.02,240.05 0,66.29 53.74,120.03 120.02,120.03 66.29,0 120.03,-53.74 120.03,-120.03" style="fill:#f9aa0c;fill-opacity:1;fill-rule:nonzero;stroke:none" transform="matrix(0.13333333,0,0,-0.13333333,0,666.66667)" />
      <path id="path194" d="m 5893.34,1539.78 c 0,66.29 120.02,240.06 120.02,240.06 0,0 120.03,-173.77 120.03,-240.06 0,-66.29 -53.74,-120.03 -120.03,-120.03 -66.28,0 -120.02,53.74 -120.02,120.03" style="fill:#f9aa0c;fill-opacity:1;fill-rule:nonzero;stroke:none" transform="matrix(0.13333333,0,0,-0.13333333,0,666.66667)" />
      <path id="path195" d="m 5773.31,1899.87 c 66.29,0 240.05,-120.03 240.05,-120.03 0,0 -173.76,-120.03 -240.05,-120.03 -66.29,0 -120.02,53.74 -120.02,120.03 0,66.29 53.73,120.03 120.02,120.03" style="fill:#f57930;fill-opacity:1;fill-rule:nonzero;stroke:none" transform="matrix(0.13333333,0,0,-0.13333333,0,666.66667)" />
      <path id="path196" d="m 6253.41,1659.81 c -66.29,0 -240.05,120.03 -240.05,120.03 0,0 173.76,120.03 240.05,120.03 66.29,0 120.03,-53.74 120.03,-120.03 0,-66.29 -53.74,-120.03 -120.03,-120.03" style="fill:#f57930;fill-opacity:1;fill-rule:nonzero;stroke:none" transform="matrix(0.13333333,0,0,-0.13333333,0,666.66667)" />
      <path id="path197" d="m 5928.49,2034.45 c 46.88,-46.87 84.87,-254.61 84.87,-254.61 0,0 -207.74,38 -254.61,84.87 -46.88,46.87 -46.88,122.87 0,169.74 46.87,46.88 122.87,46.88 169.74,0" style="fill:#782d99;fill-opacity:1;fill-rule:nonzero;stroke:none" transform="matrix(0.13333333,0,0,-0.13333333,0,666.66667)" />
      <path id="path198" d="m 6098.24,1525.22 c -46.88,46.88 -84.88,254.62 -84.88,254.62 0,0 207.75,-38 254.62,-84.87 46.87,-46.88 46.87,-122.87 0,-169.75 -46.87,-46.87 -122.87,-46.87 -169.74,0" style="fill:#782d99;fill-opacity:1;fill-rule:nonzero;stroke:none" transform="matrix(0.13333333,0,0,-0.13333333,0,666.66667)" />
      <path id="path199" d="m 5758.75,1694.97 c 46.87,46.87 254.61,84.87 254.61,84.87 0,0 -37.99,-207.74 -84.87,-254.62 -46.87,-46.87 -122.87,-46.87 -169.74,0 -46.88,46.88 -46.88,122.87 0,169.75" style="fill:#ed1b29;fill-opacity:1;fill-rule:nonzero;stroke:none" transform="matrix(0.13333333,0,0,-0.13333333,0,666.66667)" />
      <path id="path200" d="m 6267.98,1864.71 c -46.87,-46.87 -254.62,-84.87 -254.62,-84.87 0,0 38,207.74 84.88,254.61 46.87,46.88 122.87,46.88 169.74,0 46.87,-46.87 46.87,-122.87 0,-169.74" style="fill:#ed1b29;fill-opacity:1;fill-rule:nonzero;stroke:none" transform="matrix(0.13333333,0,0,-0.13333333,0,666.66667)" />
      <path id="path201" d="m 6148.39,1779.84 c 0,-74.58 -60.45,-135.03 -135.03,-135.03 -74.58,0 -135.02,60.45 -135.02,135.03 0,74.57 60.44,135.03 135.02,135.03 74.58,0 135.03,-60.46 135.03,-135.03" style="fill:#fffbf4;fill-opacity:1;fill-rule:nonzero;stroke:none" transform="matrix(0.13333333,0,0,-0.13333333,0,666.66667)" />
      <path id="path202" d="m 6103.38,1779.84 c 0,-49.72 -40.3,-90.02 -90.02,-90.02 -49.71,0 -90.01,40.3 -90.01,90.02 0,49.72 40.3,90.02 90.01,90.02 49.72,0 90.02,-40.3 90.02,-90.02" style="fill:#782d99;fill-opacity:1;fill-rule:nonzero;stroke:none" transform="matrix(0.13333333,0,0,-0.13333333,0,666.66667)" />
      </g></svg>