<?xml version='1.0' encoding='utf-8'?>
<svg xmlns="http://www.w3.org/2000/svg" version="1.1" width="125.731" height="177.427" viewBox="335.411 445.731 125.731 177.427"><g id="object"><path id="path59" d="m 2599.36,759.031 v 0 0 c 0,-214.133 173.59,-387.711 387.72,-387.711 v 0 0 c 0,214.129 -173.59,387.711 -387.72,387.711" style="fill:#1e4470;fill-opacity:1;fill-rule:nonzero;stroke:none" transform="matrix(0.13333333,0,0,-0.13333333,0,666.66667)" />
      <path id="path60" d="m 2987.08,371.32 v 0 c 214.13,0 387.72,173.578 387.72,387.711 v 0 0 c -214.13,0 -387.72,-173.582 -387.72,-387.711 v 0" style="fill:#f46e1b;fill-opacity:1;fill-rule:nonzero;stroke:none" transform="matrix(0.13333333,0,0,-0.13333333,0,666.66667)" />
      <path id="path61" d="m 2987.08,1612.02 c -117.78,0 -213.25,-95.48 -213.25,-213.25 h 426.49 c 0,117.77 -95.47,213.25 -213.24,213.25" style="fill:#517ec8;fill-opacity:1;fill-rule:nonzero;stroke:none" transform="matrix(0.13333333,0,0,-0.13333333,0,666.66667)" />
      <path id="path62" d="m 2987.08,759.031 c 117.77,0 213.24,95.481 213.24,213.25 h -426.49 c 0,-117.769 95.47,-213.25 213.25,-213.25" style="fill:#517ec8;fill-opacity:1;fill-rule:nonzero;stroke:none" transform="matrix(0.13333333,0,0,-0.13333333,0,666.66667)" />
      <path id="path63" d="m 2560.58,1185.52 c 0,-117.77 95.48,-213.239 213.25,-213.239 v 426.489 c -117.77,0 -213.25,-95.47 -213.25,-213.25" style="fill:#517ec8;fill-opacity:1;fill-rule:nonzero;stroke:none" transform="matrix(0.13333333,0,0,-0.13333333,0,666.66667)" />
      <path id="path64" d="M 3200.32,1398.77 V 972.281 c 117.77,0 213.25,95.469 213.25,213.239 0,117.78 -95.48,213.25 -213.25,213.25" style="fill:#517ec8;fill-opacity:1;fill-rule:nonzero;stroke:none" transform="matrix(0.13333333,0,0,-0.13333333,0,666.66667)" />
      <path id="path65" d="m 2987.08,1185.52 c 0,117.78 95.47,213.25 213.24,213.25 h -426.49 c 117.77,0 213.25,-95.47 213.25,-213.25" style="fill:#1e4470;fill-opacity:1;fill-rule:nonzero;stroke:none" transform="matrix(0.13333333,0,0,-0.13333333,0,666.66667)" />
      <path id="path66" d="m 2987.08,1185.52 c 0,-117.77 -95.48,-213.239 -213.25,-213.239 h 426.49 c -117.77,0 -213.24,95.469 -213.24,213.239" style="fill:#1e4470;fill-opacity:1;fill-rule:nonzero;stroke:none" transform="matrix(0.13333333,0,0,-0.13333333,0,666.66667)" />
      <path id="path67" d="m 2987.08,1185.52 c -117.78,0 -213.25,95.47 -213.25,213.25 V 972.281 c 0,117.769 95.47,213.239 213.25,213.239" style="fill:#1e4470;fill-opacity:1;fill-rule:nonzero;stroke:none" transform="matrix(0.13333333,0,0,-0.13333333,0,666.66667)" />
      <path id="path68" d="m 2987.08,1185.52 c 0,117.78 -95.48,213.25 -213.25,213.25 0,-117.78 95.47,-213.25 213.25,-213.25" style="fill:#f46e1b;fill-opacity:1;fill-rule:nonzero;stroke:none" transform="matrix(0.13333333,0,0,-0.13333333,0,666.66667)" />
      <path id="path69" d="m 2987.08,1185.52 c -117.78,0 -213.25,-95.47 -213.25,-213.239 117.77,0 213.25,95.469 213.25,213.239" style="fill:#f46e1b;fill-opacity:1;fill-rule:nonzero;stroke:none" transform="matrix(0.13333333,0,0,-0.13333333,0,666.66667)" />
      <path id="path70" d="m 2987.08,1185.52 c 117.77,0 213.24,-95.47 213.24,-213.239 v 426.489 c 0,-117.78 -95.47,-213.25 -213.24,-213.25" style="fill:#1e4470;fill-opacity:1;fill-rule:nonzero;stroke:none" transform="matrix(0.13333333,0,0,-0.13333333,0,666.66667)" />
      <path id="path71" d="m 2987.08,1185.52 c 117.77,0 213.24,95.47 213.24,213.25 -117.77,0 -213.24,-95.47 -213.24,-213.25" style="fill:#f46e1b;fill-opacity:1;fill-rule:nonzero;stroke:none" transform="matrix(0.13333333,0,0,-0.13333333,0,666.66667)" />
      <path id="path72" d="m 2987.08,1185.52 c 0,-117.77 95.47,-213.239 213.24,-213.239 0,117.769 -95.47,213.239 -213.24,213.239" style="fill:#f46e1b;fill-opacity:1;fill-rule:nonzero;stroke:none" transform="matrix(0.13333333,0,0,-0.13333333,0,666.66667)" />
      <path id="path73" d="m 2987.08,1505.39 c -58.89,0 -106.62,-47.74 -106.62,-106.62 h 213.24 c 0,58.88 -47.74,106.62 -106.62,106.62" style="fill:#1e4470;fill-opacity:1;fill-rule:nonzero;stroke:none" transform="matrix(0.13333333,0,0,-0.13333333,0,666.66667)" />
      <path id="path74" d="m 2987.08,865.648 c 58.88,0 106.62,47.75 106.62,106.633 h -213.24 c 0,-58.883 47.73,-106.633 106.62,-106.633" style="fill:#1e4470;fill-opacity:1;fill-rule:nonzero;stroke:none" transform="matrix(0.13333333,0,0,-0.13333333,0,666.66667)" />
      <path id="path75" d="m 2667.21,1185.52 c 0,-58.88 47.73,-106.62 106.62,-106.62 v 213.25 c -58.89,0 -106.62,-47.74 -106.62,-106.63" style="fill:#1e4470;fill-opacity:1;fill-rule:nonzero;stroke:none" transform="matrix(0.13333333,0,0,-0.13333333,0,666.66667)" />
      <path id="path76" d="m 3306.94,1185.52 c 0,58.89 -47.73,106.63 -106.62,106.63 V 1078.9 c 58.89,0 106.62,47.74 106.62,106.62" style="fill:#1e4470;fill-opacity:1;fill-rule:nonzero;stroke:none" transform="matrix(0.13333333,0,0,-0.13333333,0,666.66667)" />
      <path id="path77" d="m 3093.7,1185.52 c 0,58.89 -47.74,106.63 -106.62,106.63 -58.89,0 -106.62,-47.74 -106.62,-106.63 0,-58.88 47.73,-106.62 106.62,-106.62 58.88,0 106.62,47.74 106.62,106.62" style="fill:#517ec8;fill-opacity:1;fill-rule:nonzero;stroke:none" transform="matrix(0.13333333,0,0,-0.13333333,0,666.66667)" />
      <path id="path78" d="m 3040.39,1185.52 c 0,29.45 -23.87,53.31 -53.31,53.31 -29.45,0 -53.31,-23.86 -53.31,-53.31 0,-29.44 23.86,-53.31 53.31,-53.31 29.44,0 53.31,23.87 53.31,53.31" style="fill:#f46e1b;fill-opacity:1;fill-rule:nonzero;stroke:none" transform="matrix(0.13333333,0,0,-0.13333333,0,666.66667)" />
      </g></svg>