<?xml version='1.0' encoding='utf-8'?>
<svg xmlns="http://www.w3.org/2000/svg" version="1.1" width="310.155" height="272.801" viewBox="627.161 359.685 310.155 272.801"><g id="object"><path id="path12" d="M 6553.76,387.582 V 902.809 H 5179.82 V 387.582 h 1373.94" style="fill:#2c3491;fill-opacity:1;fill-rule:nonzero;stroke:none" transform="matrix(0.13333333,0,0,-0.13333333,0,666.66667)" />
      <path id="path13" d="m 5857.93,1454 v 341.84 c 0,127.38 -103.27,230.64 -230.65,230.64 h -456.33 l -171.74,171.75 v -240.55 c 0,-88.46 71.72,-160.19 160.19,-160.19 h 355.04 L 5857.93,1454" style="fill:#3f7cc8;fill-opacity:1;fill-rule:nonzero;stroke:none" transform="matrix(0.13333333,0,0,-0.13333333,0,666.66667)" />
      <path id="path14" d="m 5842.92,1454 v 341.84 c 0,127.38 103.26,230.64 230.64,230.64 h 456.33 l 171.74,171.75 v -240.55 c 0,-88.46 -71.72,-160.19 -160.2,-160.19 H 6186.4 L 5842.92,1454" style="fill:#3f7cc8;fill-opacity:1;fill-rule:nonzero;stroke:none" transform="matrix(0.13333333,0,0,-0.13333333,0,666.66667)" />
      <path id="path15" d="m 5541.26,1797.49 h -361.44 v -686.97 h 686.97 v 361.44 c 0,179.78 -145.75,325.53 -325.53,325.53" style="fill:#2c3491;fill-opacity:1;fill-rule:nonzero;stroke:none" transform="matrix(0.13333333,0,0,-0.13333333,0,666.66667)" />
      <path id="path16" d="m 5780.91,1454 c 0,142.29 -115.33,257.62 -257.6,257.62 -142.29,0 -257.62,-115.33 -257.62,-257.62 0,-142.27 115.33,-257.61 257.62,-257.61 142.27,0 257.6,115.34 257.6,257.61" style="fill:#f36717;fill-opacity:1;fill-rule:nonzero;stroke:none" transform="matrix(0.13333333,0,0,-0.13333333,0,666.66667)" />
      <path id="path17" d="m 5652.11,1454 c 0,71.14 -57.67,128.81 -128.8,128.81 -71.15,0 -128.81,-57.67 -128.81,-128.81 0,-71.13 57.66,-128.8 128.81,-128.8 71.13,0 128.8,57.67 128.8,128.8" style="fill:#fafdff;fill-opacity:1;fill-rule:nonzero;stroke:none" transform="matrix(0.13333333,0,0,-0.13333333,0,666.66667)" />
      <path id="path18" d="m 6192.32,1797.49 h 361.44 v -686.97 h -686.97 v 361.44 c 0,179.78 145.75,325.53 325.53,325.53" style="fill:#2c3491;fill-opacity:1;fill-rule:nonzero;stroke:none" transform="matrix(0.13333333,0,0,-0.13333333,0,666.66667)" />
      <path id="path19" d="m 5952.66,1454 c 0,142.29 115.33,257.62 257.61,257.62 142.28,0 257.62,-115.33 257.62,-257.62 0,-142.27 -115.34,-257.61 -257.62,-257.61 -142.28,0 -257.61,115.34 -257.61,257.61" style="fill:#f36717;fill-opacity:1;fill-rule:nonzero;stroke:none" transform="matrix(0.13333333,0,0,-0.13333333,0,666.66667)" />
      <path id="path20" d="m 6081.47,1454 c 0,71.14 57.67,128.81 128.8,128.81 71.14,0 128.81,-57.67 128.81,-128.81 0,-71.13 -57.67,-128.8 -128.81,-128.8 -71.13,0 -128.8,57.67 -128.8,128.8" style="fill:#fafdff;fill-opacity:1;fill-rule:nonzero;stroke:none" transform="matrix(0.13333333,0,0,-0.13333333,0,666.66667)" />
      <path id="path21" d="M 5179.82,1110.52 V 595.289 l 171.74,171.75 171.75,-171.75 171.74,171.75 171.74,-171.75 171.74,171.75 171.74,-171.75 171.75,171.75 171.74,-171.75 V 1110.52 H 5179.82" style="fill:#f36717;fill-opacity:1;fill-rule:nonzero;stroke:none" transform="matrix(0.13333333,0,0,-0.13333333,0,666.66667)" />
      <path id="path22" d="m 5235.96,387.582 h 172.4 l -86.18,-86.23 z" style="fill:#f36717;fill-opacity:1;fill-rule:nonzero;stroke:none" transform="matrix(0.13333333,0,0,-0.13333333,0,666.66667)" />
      <path id="path23" d="m 5408.36,387.582 h 172.44 l -86.22,-86.23 z" style="fill:#f36717;fill-opacity:1;fill-rule:nonzero;stroke:none" transform="matrix(0.13333333,0,0,-0.13333333,0,666.66667)" />
      <path id="path24" d="m 5753.2,387.582 -86.23,-86.23 -86.17,86.23 z" style="fill:#f36717;fill-opacity:1;fill-rule:nonzero;stroke:none" transform="matrix(0.13333333,0,0,-0.13333333,0,666.66667)" />
      <path id="path25" d="m 5925.64,387.582 h 172.39 l -86.17,-86.23 z" style="fill:#f36717;fill-opacity:1;fill-rule:nonzero;stroke:none" transform="matrix(0.13333333,0,0,-0.13333333,0,666.66667)" />
      <path id="path26" d="m 6098.03,387.582 h 172.44 l -86.22,-86.23 z" style="fill:#f36717;fill-opacity:1;fill-rule:nonzero;stroke:none" transform="matrix(0.13333333,0,0,-0.13333333,0,666.66667)" />
      <path id="path27" d="m 6442.87,387.582 -86.22,-86.23 -86.18,86.23 z" style="fill:#f36717;fill-opacity:1;fill-rule:nonzero;stroke:none" transform="matrix(0.13333333,0,0,-0.13333333,0,666.66667)" />
      <path id="path28" d="m 5664.39,1110.52 202.4,202.4 202.4,-202.4 z" style="fill:#fafdff;fill-opacity:1;fill-rule:nonzero;stroke:none" transform="matrix(0.13333333,0,0,-0.13333333,0,666.66667)" />
      <path id="path29" d="m 6069.19,1110.52 -202.4,-202.399 -202.4,202.399 z" style="fill:#2c3491;fill-opacity:1;fill-rule:nonzero;stroke:none" transform="matrix(0.13333333,0,0,-0.13333333,0,666.66667)" />
      <path id="path30" d="M 5179.82,1110.52 V 656.582 c 0,-130.293 -105.54,-235.832 -235.83,-235.832 h -195.28 v 453.941 c 0,116.5 84.3,213.149 195.28,232.379 13.18,2.3 26.75,3.45 40.55,3.45 h 195.28" style="fill:#2c3491;fill-opacity:1;fill-rule:nonzero;stroke:none" transform="matrix(0.13333333,0,0,-0.13333333,0,666.66667)" />
      <path id="path31" d="M 4943.99,1107.07 V 420.75 h -195.28 v 453.941 c 0,116.5 84.3,213.149 195.28,232.379" style="fill:#f36717;fill-opacity:1;fill-rule:nonzero;stroke:none" transform="matrix(0.13333333,0,0,-0.13333333,0,666.66667)" />
      <path id="path32" d="M 6553.76,1110.52 V 656.582 c 0,-130.293 105.53,-235.832 235.83,-235.832 h 195.28 v 453.941 c 0,116.5 -84.31,213.149 -195.28,232.379 -13.19,2.3 -26.75,3.45 -40.55,3.45 h -195.28" style="fill:#2c3491;fill-opacity:1;fill-rule:nonzero;stroke:none" transform="matrix(0.13333333,0,0,-0.13333333,0,666.66667)" />
      <path id="path33" d="M 6789.59,1107.07 V 420.75 h 195.28 v 453.941 c 0,116.5 -84.31,213.149 -195.28,232.379" style="fill:#f36717;fill-opacity:1;fill-rule:nonzero;stroke:none" transform="matrix(0.13333333,0,0,-0.13333333,0,666.66667)" />
      <path id="path138" d="m 5954.65,2257.36 -121.93,-121.93 -121.93,121.93 z" style="fill:#2c3491;fill-opacity:1;fill-rule:nonzero;stroke:none" transform="matrix(0.13333333,0,0,-0.13333333,0,666.66667)" />
      </g></svg>