<?xml version='1.0' encoding='utf-8'?>
<svg xmlns="http://www.w3.org/2000/svg" version="1.1" width="84.918" height="182.142" viewBox="473.761 183.997 84.918 182.142"><g id="object"><path id="path39" d="m 3598.21,3575.02 v -273.44 c 0,-151.02 122.43,-273.44 273.45,-273.44 v 0 273.44 c 0,151.02 -122.43,273.44 -273.44,273.44 h -0.01" style="fill:#f68712;fill-opacity:1;fill-rule:nonzero;stroke:none" transform="matrix(0.13333333,0,0,-0.13333333,0,666.66667)" />
      <path id="path40" d="m 4145.09,3575.02 v 0 c -151.01,0 -273.43,-122.42 -273.43,-273.44 v -273.44 0 c 151.01,0 273.43,122.42 273.43,273.44 v 273.44" style="fill:#37b5e5;fill-opacity:1;fill-rule:nonzero;stroke:none" transform="matrix(0.13333333,0,0,-0.13333333,0,666.66667)" />
      <path id="path41" d="m 4145.09,3027.6 v 0 c -150.72,0 -272.9,-122.18 -272.9,-272.9 v 0 0 c 150.73,0 272.9,122.19 272.9,272.9 v 0" style="fill:#2c314f;fill-opacity:1;fill-rule:nonzero;stroke:none" transform="matrix(0.13333333,0,0,-0.13333333,0,666.66667)" />
      <path id="path42" d="m 3603.02,3027.6 v 0 c 150.73,0 272.9,-122.18 272.9,-272.9 v 0 0 c -150.71,0 -272.9,122.19 -272.9,272.9 v 0" style="fill:#f68712;fill-opacity:1;fill-rule:nonzero;stroke:none" transform="matrix(0.13333333,0,0,-0.13333333,0,666.66667)" />
      <path id="path43" d="m 4145.09,2754.7 v 0 c -150.72,0 -272.9,-122.18 -272.9,-272.91 v 0 0 c 150.73,0 272.9,122.19 272.9,272.91 v 0" style="fill:#f68712;fill-opacity:1;fill-rule:nonzero;stroke:none" transform="matrix(0.13333333,0,0,-0.13333333,0,666.66667)" />
      <path id="path44" d="m 3603.02,2754.7 v 0 c 150.73,0 272.9,-122.18 272.9,-272.91 v 0 0 c -150.71,0 -272.9,122.19 -272.9,272.91 v 0" style="fill:#2c314f;fill-opacity:1;fill-rule:nonzero;stroke:none" transform="matrix(0.13333333,0,0,-0.13333333,0,666.66667)" />
      <path id="path45" d="m 3886.84,2298.96 h -30.38 v 729.18 h 30.38 v -729.18" style="fill:#2c314f;fill-opacity:1;fill-rule:nonzero;stroke:none" transform="matrix(0.13333333,0,0,-0.13333333,0,666.66667)" />
      <path id="path46" d="m 3598.22,2298.97 h -0.01 546.88 v 0 c -151.01,151.02 -395.86,151.02 -546.87,0" style="fill:#f68712;fill-opacity:1;fill-rule:nonzero;stroke:none" transform="matrix(0.13333333,0,0,-0.13333333,0,666.66667)" />
      </g></svg>