<?xml version='1.0' encoding='utf-8'?>
<svg xmlns="http://www.w3.org/2000/svg" version="1.1" width="70.584" height="41.293" viewBox="254.396 308.081 70.584 41.293"><g id="object"><path id="path140" d="m 2172.66,2644.39 v 0 c -121.34,0 -219.69,-98.36 -219.69,-219.7 v 0 h 439.38 v 0 c 0,121.34 -98.36,219.7 -219.69,219.7" style="fill:#423f9f;fill-opacity:1;fill-rule:nonzero;stroke:none" transform="matrix(0.13333333,0,0,-0.13333333,0,666.66667)" />
      <path id="path141" d="m 2172.66,2479.63 v 0 c -30.21,0 -54.92,24.71 -54.92,54.92 v 0 c 0,30.2 24.71,54.92 54.92,54.92 v 0 c 30.21,0 54.92,-24.72 54.92,-54.92 v 0 c 0,-30.21 -24.71,-54.92 -54.92,-54.92" style="fill:#fbf5f7;fill-opacity:1;fill-rule:nonzero;stroke:none" transform="matrix(0.13333333,0,0,-0.13333333,0,666.66667)" />
      </g></svg>