<?xml version='1.0' encoding='utf-8'?>
<svg xmlns="http://www.w3.org/2000/svg" version="1.1" width="94.713" height="177.427" viewBox="44.562 445.731 94.713 177.427"><g id="object"><path id="path48" d="m 689.391,991.672 v 0 c -171.305,0 -310.172,138.858 -310.172,310.168 v 310.18 0 c 171.304,0 310.172,-138.88 310.172,-310.18 V 991.672" style="fill:#f46e1b;fill-opacity:1;fill-rule:nonzero;stroke:none" transform="matrix(0.13333333,0,0,-0.13333333,0,666.66667)" />
      <path id="path49" d="m 689.391,991.672 h 0.004 c 171.304,0 310.171,138.858 310.171,310.168 v 310.18 0 c -171.304,0 -310.175,-138.88 -310.175,-310.18 V 991.672" style="fill:#1e4470;fill-opacity:1;fill-rule:nonzero;stroke:none" transform="matrix(0.13333333,0,0,-0.13333333,0,666.66667)" />
      <path id="path50" d="m 379.219,991.672 v 0 0 c 0,-171.313 138.867,-310.184 310.172,-310.184 v 0 0 c 0,171.301 -138.868,310.184 -310.172,310.184" style="fill:#517ec8;fill-opacity:1;fill-rule:nonzero;stroke:none" transform="matrix(0.13333333,0,0,-0.13333333,0,666.66667)" />
      <path id="path51" d="m 689.391,681.488 h 0.004 c 171.304,0 310.171,138.871 310.171,310.184 v 0 0 c -171.304,0 -310.175,-138.883 -310.175,-310.184 v 0" style="fill:#517ec8;fill-opacity:1;fill-rule:nonzero;stroke:none" transform="matrix(0.13333333,0,0,-0.13333333,0,666.66667)" />
      <path id="path52" d="m 379.219,681.488 v 0 0 c 0,-171.308 138.867,-310.168 310.172,-310.168 v 0 0 c 0,171.289 -138.868,310.168 -310.172,310.168" style="fill:#f46e1b;fill-opacity:1;fill-rule:nonzero;stroke:none" transform="matrix(0.13333333,0,0,-0.13333333,0,666.66667)" />
      <path id="path53" d="m 689.391,371.32 h 0.004 c 171.304,0 310.171,138.86 310.171,310.168 v 0 0 c -171.304,0 -310.175,-138.879 -310.175,-310.168 v 0" style="fill:#f46e1b;fill-opacity:1;fill-rule:nonzero;stroke:none" transform="matrix(0.13333333,0,0,-0.13333333,0,666.66667)" />
      </g></svg>