<?xml version='1.0' encoding='utf-8'?>
<svg xmlns="http://www.w3.org/2000/svg" version="1.1" width="109.223" height="206.447" viewBox="858.587 420.032 109.223 206.447"><g id="object"><path id="path56" d="m 7122.43,1077.47 v 0 c -152.06,0 -275.32,-123.259 -275.32,-275.322 v 0 0 c 152.05,0 275.32,123.274 275.32,275.322 v 0" style="fill:#ef2c8f;fill-opacity:1;fill-rule:nonzero;stroke:none" transform="matrix(0.13333333,0,0,-0.13333333,0,666.66667)" />
      <path id="path57" d="m 6575.54,1077.47 v 0 c 152.06,0 275.34,-123.259 275.34,-275.322 v 0 0 c -152.07,0 -275.34,123.274 -275.34,275.322 v 0" style="fill:#f68712;fill-opacity:1;fill-rule:nonzero;stroke:none" transform="matrix(0.13333333,0,0,-0.13333333,0,666.66667)" />
      <path id="path58" d="m 6864.18,619.852 h -30.38 v 820.318 h 30.38 V 619.852" style="fill:#2c314f;fill-opacity:1;fill-rule:nonzero;stroke:none" transform="matrix(0.13333333,0,0,-0.13333333,0,666.66667)" />
      <path id="path59" d="m 7213.57,1440.17 c 0,57.53 -46.63,104.17 -104.16,104.17 -3.44,0 -6.83,-0.19 -10.18,-0.51 2.6,2.13 5.13,4.4 7.56,6.83 40.68,40.68 40.68,106.63 0,147.32 -40.68,40.68 -106.64,40.68 -147.31,0 -2.43,-2.44 -4.7,-4.97 -6.84,-7.56 0.33,3.35 0.51,6.74 0.51,10.17 0,57.53 -46.63,104.17 -104.16,104.17 -57.53,0 -104.17,-46.64 -104.17,-104.17 0,-3.43 0.19,-6.82 0.52,-10.17 -2.14,2.59 -4.41,5.12 -6.84,7.56 -40.68,40.68 -106.64,40.68 -147.31,0 -40.69,-40.69 -40.69,-106.64 0,-147.32 2.43,-2.43 4.96,-4.7 7.56,-6.83 -3.35,0.32 -6.74,0.51 -10.18,0.51 -57.53,0 -104.17,-46.64 -104.17,-104.17 0,-57.53 46.64,-104.17 104.17,-104.17 3.44,0 6.83,0.2 10.18,0.52 -2.6,-2.14 -5.13,-4.4 -7.56,-6.84 -40.69,-40.67 -40.69,-106.63 0,-147.31 40.67,-40.67 106.63,-40.67 147.31,0 2.43,2.43 4.7,4.96 6.84,7.56 -0.33,-3.35 -0.52,-6.74 -0.52,-10.18 0,-57.53 46.64,-104.17 104.17,-104.17 57.53,0 104.16,46.64 104.16,104.17 0,3.44 -0.18,6.83 -0.51,10.18 2.14,-2.6 4.41,-5.13 6.84,-7.56 40.67,-40.67 106.63,-40.67 147.31,0 40.68,40.68 40.68,106.64 0,147.31 -2.43,2.44 -4.96,4.7 -7.56,6.84 3.35,-0.32 6.74,-0.52 10.18,-0.52 57.53,0 104.16,46.64 104.16,104.17" style="fill:#2c314f;fill-opacity:1;fill-rule:nonzero;stroke:none" transform="matrix(0.13333333,0,0,-0.13333333,0,666.66667)" />
      <path id="path60" d="m 7067.74,1440.17 c 0,-120.81 -97.94,-218.75 -218.75,-218.75 -120.82,0 -218.75,97.94 -218.75,218.75 0,120.81 97.93,218.75 218.75,218.75 120.81,0 218.75,-97.94 218.75,-218.75" style="fill:#f68712;fill-opacity:1;fill-rule:nonzero;stroke:none" transform="matrix(0.13333333,0,0,-0.13333333,0,666.66667)" />
      <path id="path61" d="m 6848.99,1658.92 c 120.81,0 218.75,-97.94 218.75,-218.75 0,-120.81 -97.94,-218.75 -218.75,-218.75 v 437.5" style="fill:#ef2c8f;fill-opacity:1;fill-rule:nonzero;stroke:none" transform="matrix(0.13333333,0,0,-0.13333333,0,666.66667)" />
      <path id="path62" d="m 6921.9,1440.17 c 0,-40.27 -32.65,-72.92 -72.91,-72.92 -40.27,0 -72.92,32.65 -72.92,72.92 0,40.28 32.65,72.92 72.92,72.92 40.26,0 72.91,-32.64 72.91,-72.92" style="fill:#f9fcfb;fill-opacity:1;fill-rule:nonzero;stroke:none" transform="matrix(0.13333333,0,0,-0.13333333,0,666.66667)" />
      <path id="path63" d="M 7031.29,711 H 6666.7 V 346.41 h 364.59 V 711" style="fill:#37b5e5;fill-opacity:1;fill-rule:nonzero;stroke:none" transform="matrix(0.13333333,0,0,-0.13333333,0,666.66667)" />
      </g></svg>