<?xml version='1.0' encoding='utf-8'?>
<svg xmlns="http://www.w3.org/2000/svg" version="1.1" width="78.887" height="62.165" viewBox="682.537 241.112 78.887 62.165"><g id="object"><path id="path115" d="m 5164.03,3021.25 v 0 0 c 0,-138.53 112.29,-250.83 250.82,-250.83 v 0 0 c 0,138.53 -112.3,250.83 -250.82,250.83" style="fill:#2c3491;fill-opacity:1;fill-rule:nonzero;stroke:none" transform="matrix(0.13333333,0,0,-0.13333333,0,666.66667)" />
      <path id="path116" d="m 5665.68,3021.25 v 0 0 c 0,-138.53 -112.29,-250.83 -250.82,-250.83 h -0.01 v 0 c 0,138.53 112.3,250.83 250.83,250.83" style="fill:#2c3491;fill-opacity:1;fill-rule:nonzero;stroke:none" transform="matrix(0.13333333,0,0,-0.13333333,0,666.66667)" />
      <path id="path117" d="m 5485.09,3076.42 c 0,38.79 -31.44,70.24 -70.24,70.24 -38.79,0 -70.23,-31.45 -70.23,-70.24 0,-38.79 31.44,-70.24 70.23,-70.24 38.8,0 70.24,31.45 70.24,70.24" style="fill:#f36717;fill-opacity:1;fill-rule:nonzero;stroke:none" transform="matrix(0.13333333,0,0,-0.13333333,0,666.66667)" />
      </g></svg>