<?xml version='1.0' encoding='utf-8'?>
<svg xmlns="http://www.w3.org/2000/svg" version="1.1" width="119.585" height="119.585" viewBox="54.975 511.480 119.585 119.585"><g id="object"><path id="path6" d="m 457.313,1118.9 v 0 -0.01 c 0,-222.808 180.628,-403.429 403.441,-403.429 v 0 0 c 0,222.809 -180.625,403.439 -403.441,403.439" style="fill:#423f9f;fill-opacity:1;fill-rule:nonzero;stroke:none" transform="matrix(0.13333333,0,0,-0.13333333,0,666.66667)" />
      <path id="path7" d="m 1264.2,1118.9 v 0 -0.01 c 0,-222.808 -180.63,-403.429 -403.446,-403.429 v 0 0 c 0,222.809 180.626,403.439 403.446,403.439" style="fill:#ee2238;fill-opacity:1;fill-rule:nonzero;stroke:none" transform="matrix(0.13333333,0,0,-0.13333333,0,666.66667)" />
      <path id="path8" d="m 457.313,715.461 v 0 0 c 0,-222.82 180.628,-403.449 403.441,-403.449 v 0 0 c 0,222.82 -180.625,403.449 -403.441,403.449" style="fill:#f8a020;fill-opacity:1;fill-rule:nonzero;stroke:none" transform="matrix(0.13333333,0,0,-0.13333333,0,666.66667)" />
      <path id="path9" d="m 1264.2,715.461 v 0 0 c 0,-222.82 -180.63,-403.449 -403.446,-403.449 v 0 0 c 0,222.82 180.626,403.449 403.446,403.449" style="fill:#ee2238;fill-opacity:1;fill-rule:nonzero;stroke:none" transform="matrix(0.13333333,0,0,-0.13333333,0,666.66667)" />
      </g></svg>