<?xml version='1.0' encoding='utf-8'?>
<svg xmlns="http://www.w3.org/2000/svg" version="1.1" width="106.529" height="177.427" viewBox="492.208 445.731 106.529 177.427"><g id="object"><path id="path89" d="m 3736.56,1080.29 v 0 -0.01 c 0,-195.768 158.71,-354.479 354.49,-354.479 v 0 0 c 0,195.777 -158.71,354.489 -354.49,354.489" style="fill:#1e4470;fill-opacity:1;fill-rule:nonzero;stroke:none" transform="matrix(0.13333333,0,0,-0.13333333,0,666.66667)" />
      <path id="path90" d="m 4091.05,725.801 v 0 c 195.77,0 354.48,158.711 354.48,354.479 v 0.01 0 c -195.78,0 -354.48,-158.712 -354.48,-354.489 v 0" style="fill:#f46e1b;fill-opacity:1;fill-rule:nonzero;stroke:none" transform="matrix(0.13333333,0,0,-0.13333333,0,666.66667)" />
      <path id="path91" d="m 3736.56,725.801 v 0 0 c 0,-195.781 158.71,-354.481 354.49,-354.481 v 0 0 c 0,195.77 -158.71,354.481 -354.49,354.481" style="fill:#517ec8;fill-opacity:1;fill-rule:nonzero;stroke:none" transform="matrix(0.13333333,0,0,-0.13333333,0,666.66667)" />
      <path id="path92" d="m 4091.05,371.32 v 0 c 195.77,0 354.48,158.7 354.48,354.481 v 0 0 c -195.78,0 -354.48,-158.711 -354.48,-354.481 v 0" style="fill:#1e4470;fill-opacity:1;fill-rule:nonzero;stroke:none" transform="matrix(0.13333333,0,0,-0.13333333,0,666.66667)" />
      <path id="path93" d="m 4105.45,371.32 h -28.79 v 852.98 h 28.79 V 371.32" style="fill:#f46e1b;fill-opacity:1;fill-rule:nonzero;stroke:none" transform="matrix(0.13333333,0,0,-0.13333333,0,666.66667)" />
      <path id="path94" d="m 4445.53,1523.4 h -708.97 v 0 c 0,-195.79 158.71,-354.5 354.49,-354.5 v 0 c 195.77,0 354.48,158.71 354.48,354.5 v 0" style="fill:#1e4470;fill-opacity:1;fill-rule:nonzero;stroke:none" transform="matrix(0.13333333,0,0,-0.13333333,0,666.66667)" />
      <path id="path95" d="m 3825.18,1612.02 v 0 c -48.94,0 -88.62,-39.68 -88.62,-88.62 v 0 h 177.24 v 0 c 0,48.94 -39.67,88.62 -88.62,88.62" style="fill:#f46e1b;fill-opacity:1;fill-rule:nonzero;stroke:none" transform="matrix(0.13333333,0,0,-0.13333333,0,666.66667)" />
      <path id="path96" d="m 4002.43,1612.02 v 0 c -48.95,0 -88.63,-39.68 -88.63,-88.62 v 0 h 177.25 v 0 c 0,48.94 -39.68,88.62 -88.62,88.62" style="fill:#f46e1b;fill-opacity:1;fill-rule:nonzero;stroke:none" transform="matrix(0.13333333,0,0,-0.13333333,0,666.66667)" />
      <path id="path97" d="m 4179.67,1612.02 v 0 c -48.94,0 -88.62,-39.68 -88.62,-88.62 v 0 h 177.24 v 0 c 0,48.94 -39.68,88.62 -88.62,88.62" style="fill:#f46e1b;fill-opacity:1;fill-rule:nonzero;stroke:none" transform="matrix(0.13333333,0,0,-0.13333333,0,666.66667)" />
      <path id="path98" d="m 4356.91,1612.02 v 0 c -48.94,0 -88.62,-39.68 -88.62,-88.62 v 0 h 177.24 v 0 c 0,48.94 -39.67,88.62 -88.62,88.62" style="fill:#f46e1b;fill-opacity:1;fill-rule:nonzero;stroke:none" transform="matrix(0.13333333,0,0,-0.13333333,0,666.66667)" />
      </g></svg>