<?xml version='1.0' encoding='utf-8'?>
<svg xmlns="http://www.w3.org/2000/svg" version="1.1" width="70.584" height="41.292" viewBox="811.944 446.248 70.584 41.292"><g id="object"><path id="path134" d="m 6354.27,1608.14 v 0 c -121.33,0 -219.69,-98.36 -219.69,-219.69 v 0 h 439.38 v 0 c 0,121.33 -98.36,219.69 -219.69,219.69" style="fill:#f8a020;fill-opacity:1;fill-rule:nonzero;stroke:none" transform="matrix(0.13333333,0,0,-0.13333333,0,666.66667)" />
      <path id="path135" d="m 6354.27,1443.38 v 0 c -30.21,0 -54.93,24.71 -54.93,54.92 v 0 c 0,30.2 24.72,54.92 54.93,54.92 v 0 c 30.21,0 54.93,-24.72 54.93,-54.92 v 0 c 0,-30.21 -24.72,-54.92 -54.93,-54.92" style="fill:#423f9f;fill-opacity:1;fill-rule:nonzero;stroke:none" transform="matrix(0.13333333,0,0,-0.13333333,0,666.66667)" />
      </g></svg>