<?xml version='1.0' encoding='utf-8'?>
<svg xmlns="http://www.w3.org/2000/svg" version="1.1" width="296.487" height="284.871" viewBox="179.605 339.652 296.487 284.871"><g id="object"><path id="path3" d="m 3106.92,1749.98 v -728.02 c 0,-178.671 -72.44,-340.46 -189.55,-457.569 -117.11,-117.11 -278.9,-189.551 -457.57,-189.551 -357.36,0 -647.13,289.769 -647.13,647.12 v 728.02 l 242.67,-161.79 h 808.91 l 242.67,161.79" style="fill:#fab20b;fill-opacity:1;fill-rule:nonzero;stroke:none" transform="matrix(0.13333333,0,0,-0.13333333,0,666.66667)" />
      <path id="path4" d="M 2864.25,1588.19 H 2457.39 V 374.898 c 0.81,0 1.6,-0.058 2.41,-0.058 178.67,0 340.46,72.441 457.57,189.551 117.11,117.109 189.55,278.898 189.55,457.569 v 728.02 l -242.67,-161.79" style="fill:#f57515;fill-opacity:1;fill-rule:nonzero;stroke:none" transform="matrix(0.13333333,0,0,-0.13333333,0,666.66667)" />
      <path id="path5" d="m 2459.8,1183.75 c 0,178.69 -144.87,323.55 -323.56,323.55 -178.7,0 -323.57,-144.86 -323.57,-323.55 0,-178.7 144.87,-323.57 323.57,-323.57 178.69,0 323.56,144.87 323.56,323.57" style="fill:#286aaa;fill-opacity:1;fill-rule:nonzero;stroke:none" transform="matrix(0.13333333,0,0,-0.13333333,0,666.66667)" />
      <path id="path6" d="m 2298.01,1183.75 c 0,89.34 -72.43,161.77 -161.77,161.77 -89.35,0 -161.79,-72.43 -161.79,-161.77 0,-89.36 72.44,-161.79 161.79,-161.79 89.34,0 161.77,72.43 161.77,161.79" style="fill:#fefefe;fill-opacity:1;fill-rule:nonzero;stroke:none" transform="matrix(0.13333333,0,0,-0.13333333,0,666.66667)" />
      <path id="path7" d="m 2136.24,1111.84 c -39.65,0 -71.91,32.26 -71.91,71.91 0,39.64 32.26,71.89 71.91,71.89 39.64,0 71.9,-32.25 71.9,-71.89 0,-39.65 -32.26,-71.91 -71.9,-71.91" style="fill:#286aaa;fill-opacity:1;fill-rule:nonzero;stroke:none" transform="matrix(0.13333333,0,0,-0.13333333,0,666.66667)" />
      <path id="path8" d="m 3106.92,1183.75 c 0,178.69 -144.86,323.55 -323.56,323.55 -178.7,0 -323.56,-144.86 -323.56,-323.55 0,-178.7 144.86,-323.57 323.56,-323.57 178.7,0 323.56,144.87 323.56,323.57" style="fill:#1b527c;fill-opacity:1;fill-rule:nonzero;stroke:none" transform="matrix(0.13333333,0,0,-0.13333333,0,666.66667)" />
      <path id="path9" d="m 2945.14,1183.75 c 0,89.34 -72.43,161.77 -161.78,161.77 -89.35,0 -161.78,-72.43 -161.78,-161.77 0,-89.36 72.43,-161.79 161.78,-161.79 89.35,0 161.78,72.43 161.78,161.79" style="fill:#fefefe;fill-opacity:1;fill-rule:nonzero;stroke:none" transform="matrix(0.13333333,0,0,-0.13333333,0,666.66667)" />
      <path id="path10" d="m 2783.36,1111.84 c -39.65,0 -71.9,32.26 -71.9,71.91 0,39.64 32.25,71.89 71.9,71.89 39.64,0 71.9,-32.25 71.9,-71.89 0,-39.65 -32.26,-71.91 -71.9,-71.91" style="fill:#286aaa;fill-opacity:1;fill-rule:nonzero;stroke:none" transform="matrix(0.13333333,0,0,-0.13333333,0,666.66667)" />
      <path id="path11" d="M 2459.8,1021.96 2329.31,891.469 c -39.62,-39.617 -39.62,-103.86 0,-143.477 l 130.49,-130.48 130.48,130.48 c 39.62,39.617 39.62,103.86 0,143.477 L 2459.8,1021.96" style="fill:#fefefe;fill-opacity:1;fill-rule:nonzero;stroke:none" transform="matrix(0.13333333,0,0,-0.13333333,0,666.66667)" />
      <path id="path12" d="m 2459.8,1183.75 v 404.44 H 1570 l 197.68,-131.79 c 29.34,-19.55 63.81,-29.99 99.06,-29.99 h 273.52 c 49.22,0 96.42,-19.55 131.22,-54.34 l 188.32,-188.32" style="fill:#3ebeb9;fill-opacity:1;fill-rule:nonzero;stroke:none" transform="matrix(0.13333333,0,0,-0.13333333,0,666.66667)" />
      <path id="path13" d="m 2459.8,1183.75 v 404.44 h 889.79 L 3151.91,1456.4 c -29.34,-19.55 -63.8,-29.99 -99.06,-29.99 h -273.52 c -49.21,0 -96.41,-19.55 -131.21,-54.34 L 2459.8,1183.75" style="fill:#20b1a4;fill-opacity:1;fill-rule:nonzero;stroke:none" transform="matrix(0.13333333,0,0,-0.13333333,0,666.66667)" />
      <path id="path14" d="m 2156.46,799.512 h -121.34 c -33.5,0 -60.67,-27.16 -60.67,-60.672 v 0 c 0,-33.5 27.17,-60.66 60.67,-60.66 h 121.34 c 33.5,0 60.67,27.16 60.67,60.66 v 0 c 0,33.512 -27.17,60.672 -60.67,60.672" style="fill:#3ebeb9;fill-opacity:1;fill-rule:nonzero;stroke:none" transform="matrix(0.13333333,0,0,-0.13333333,0,666.66667)" />
      <path id="path15" d="m 2884.47,799.512 h -121.33 c -33.51,0 -60.67,-27.16 -60.67,-60.672 v 0 c 0,-33.5 27.16,-60.66 60.67,-60.66 h 121.33 c 33.51,0 60.67,27.16 60.67,60.66 v 0 c 0,33.512 -27.16,60.672 -60.67,60.672" style="fill:#3ebeb9;fill-opacity:1;fill-rule:nonzero;stroke:none" transform="matrix(0.13333333,0,0,-0.13333333,0,666.66667)" />
      <path id="path222" d="m 2793.47,2073.93 c 0,184.29 -149.39,333.68 -333.67,333.68 -184.29,0 -333.68,-149.39 -333.68,-333.68 0,-184.27 149.39,-333.67 333.68,-333.67 184.28,0 333.67,149.4 333.67,333.67" style="fill:#1b527c;fill-opacity:1;fill-rule:nonzero;stroke:none" transform="matrix(0.13333333,0,0,-0.13333333,0,666.66667)" />
      <path id="path223" d="m 2682.25,2073.93 c 0,122.86 -99.6,222.45 -222.45,222.45 -122.86,0 -222.45,-99.59 -222.45,-222.45 0,-122.85 99.59,-222.44 222.45,-222.44 122.85,0 222.45,99.59 222.45,222.44" style="fill:#3ebeb9;fill-opacity:1;fill-rule:nonzero;stroke:none" transform="matrix(0.13333333,0,0,-0.13333333,0,666.66667)" />
      <path id="path224" d="m 2316.79,2073.93 c 0,-78.97 64.03,-143 143.01,-143 78.98,0 143,64.03 143,143 h -286.01" style="fill:#fefefe;fill-opacity:1;fill-rule:nonzero;stroke:none" transform="matrix(0.13333333,0,0,-0.13333333,0,666.66667)" />
      <path id="path233" d="m 1392.04,941.309 c 98.29,0 177.96,79.671 177.96,177.951 0,98.3 -79.67,177.96 -177.96,177.96 V 941.309" style="fill:#3ebeb9;fill-opacity:1;fill-rule:nonzero;stroke:none" transform="matrix(0.13333333,0,0,-0.13333333,0,666.66667)" />
      <path id="path234" d="m 3525.69,1071.05 c 0,70.64 -57.26,127.88 -127.88,127.88 -70.63,0 -127.89,-57.24 -127.89,-127.88 h 255.77" style="fill:#fab20b;fill-opacity:1;fill-rule:nonzero;stroke:none" transform="matrix(0.13333333,0,0,-0.13333333,0,666.66667)" />
      <path id="path242" d="m 2014.9,361.082 c 0,98.277 -79.67,177.957 -177.96,177.957 -98.28,0 -177.96,-79.68 -177.96,-177.957 h 355.92" style="fill:#f57515;fill-opacity:1;fill-rule:nonzero;stroke:none" transform="matrix(0.13333333,0,0,-0.13333333,0,666.66667)" />
      <path id="path243" d="m 1945.63,361.082 c 0,60.027 -48.67,108.68 -108.69,108.68 -60.02,0 -108.69,-48.653 -108.69,-108.68 h 217.38" style="fill:#286aaa;fill-opacity:1;fill-rule:nonzero;stroke:none" transform="matrix(0.13333333,0,0,-0.13333333,0,666.66667)" />
      <path id="path244" d="m 3260.61,361.082 c 0,98.277 -79.67,177.957 -177.96,177.957 -98.28,0 -177.96,-79.68 -177.96,-177.957 h 355.92" style="fill:#f57515;fill-opacity:1;fill-rule:nonzero;stroke:none" transform="matrix(0.13333333,0,0,-0.13333333,0,666.66667)" />
      <path id="path245" d="m 3191.34,361.082 c 0,60.027 -48.66,108.68 -108.69,108.68 -60.02,0 -108.68,-48.653 -108.68,-108.68 h 217.37" style="fill:#286aaa;fill-opacity:1;fill-rule:nonzero;stroke:none" transform="matrix(0.13333333,0,0,-0.13333333,0,666.66667)" />
    </g></svg>