<?xml version='1.0' encoding='utf-8'?>
<svg xmlns="http://www.w3.org/2000/svg" version="1.1" width="92.224" height="212.562" viewBox="432.079 130.285 92.224 212.562"><g id="object"><path id="path93" d="m 3887.27,2473.65 h -601.68 v 376.05 h 601.68 v -376.05" style="fill:#39b7ed;fill-opacity:1;fill-rule:nonzero;stroke:none" transform="matrix(0.13333333,0,0,-0.13333333,0,666.66667)" />
      <path id="path94" d="m 3887.27,2473.65 h -601.68 v 176.96 h 601.68 v -176.96" style="fill:#ee2238;fill-opacity:1;fill-rule:nonzero;stroke:none" transform="matrix(0.13333333,0,0,-0.13333333,0,666.66667)" />
      <path id="path95" d="M 3786.99,3000.12 H 3385.87 V 2849.7 h 401.12 v 150.42" style="fill:#1f254c;fill-opacity:1;fill-rule:nonzero;stroke:none" transform="matrix(0.13333333,0,0,-0.13333333,0,666.66667)" />
      <path id="path96" d="m 3586.43,3000.12 v 676.9" style="fill:none;stroke:#1f161b;stroke-width:30;stroke-linecap:butt;stroke-linejoin:miter;stroke-miterlimit:10;stroke-dasharray:none;stroke-opacity:1" transform="matrix(0.13333333,0,0,-0.13333333,0,666.66667)" />
      <path id="path97" d="m 3586.43,3075.33 v 0 c -166.15,0 -300.84,134.69 -300.84,300.84 v 0 0 c 166.15,0 300.84,-134.69 300.84,-300.84 v 0" style="fill:#ee2238;fill-opacity:1;fill-rule:nonzero;stroke:none" transform="matrix(0.13333333,0,0,-0.13333333,0,666.66667)" />
      <path id="path98" d="m 3586.43,3376.17 v 0 c -166.15,0 -300.84,134.7 -300.84,300.85 v 0 0 c 166.15,0 300.84,-134.69 300.84,-300.85 v 0" style="fill:#f68b11;fill-opacity:1;fill-rule:nonzero;stroke:none" transform="matrix(0.13333333,0,0,-0.13333333,0,666.66667)" />
      <path id="path99" d="m 3586.43,3677.02 v 0 c -166.15,0 -300.84,134.69 -300.84,300.84 v 0 0 c 166.15,0 300.84,-134.69 300.84,-300.84 v 0" style="fill:#39b7ed;fill-opacity:1;fill-rule:nonzero;stroke:none" transform="matrix(0.13333333,0,0,-0.13333333,0,666.66667)" />
      <path id="path100" d="m 3586.43,3075.33 v 0 c 166.15,0 300.84,134.69 300.84,300.84 v 0 0 c -166.15,0 -300.84,-134.69 -300.84,-300.84 v 0" style="fill:#ee2238;fill-opacity:1;fill-rule:nonzero;stroke:none" transform="matrix(0.13333333,0,0,-0.13333333,0,666.66667)" />
      <path id="path101" d="m 3586.43,3376.17 v 0 c 166.15,0 300.84,134.7 300.84,300.85 v 0 0 c -166.15,0 -300.84,-134.69 -300.84,-300.85 v 0" style="fill:#f68b11;fill-opacity:1;fill-rule:nonzero;stroke:none" transform="matrix(0.13333333,0,0,-0.13333333,0,666.66667)" />
      <path id="path102" d="m 3586.43,3677.02 v 0 c 166.15,0 300.84,134.69 300.84,300.84 v 0 0 c -166.15,0 -300.84,-134.69 -300.84,-300.84 v 0" style="fill:#39b7ed;fill-opacity:1;fill-rule:nonzero;stroke:none" transform="matrix(0.13333333,0,0,-0.13333333,0,666.66667)" />
      </g></svg>