<?xml version='1.0' encoding='utf-8'?>
<svg xmlns="http://www.w3.org/2000/svg" version="1.1" width="104.742" height="104.742" viewBox="505.593 415.649 104.742 104.742"><g id="object"><path id="path21" d="m 4012.87,1837.63 h -175.92 v -175.92 c 0,-94.92 76.94,-171.86 171.85,-171.86 h 175.92 v 175.93 c 0,94.91 -76.94,171.85 -171.85,171.85" style="fill:#ef2f48;fill-opacity:1;fill-rule:nonzero;stroke:none" transform="matrix(0.13333333,0,0,-0.13333333,0,666.66667)" />
      <path id="path22" d="M 4184.72,1489.85 H 4008.8 c -94.91,0 -171.85,76.95 -171.85,171.87 v 175.91 l 347.77,-347.78" style="fill:#ef2f48;fill-opacity:1;fill-rule:nonzero;stroke:none" transform="matrix(0.13333333,0,0,-0.13333333,0,666.66667)" />
      <path id="path23" d="M 4184.72,1489.85 H 4008.8 c -94.91,0 -171.85,76.95 -171.85,171.87 v 175.91 l 347.77,-347.78" style="fill:#fabb34;fill-opacity:1;fill-rule:nonzero;stroke:none" transform="matrix(0.13333333,0,0,-0.13333333,0,666.66667)" />
      <path id="path24" d="m 4098.8,1663.75 h -87.96 v -87.97 c 0,-47.45 38.46,-85.93 85.92,-85.93 h 87.96 v 87.97 c 0,47.45 -38.46,85.93 -85.92,85.93" style="fill:#f46f1f;fill-opacity:1;fill-rule:nonzero;stroke:none" transform="matrix(0.13333333,0,0,-0.13333333,0,666.66667)" />
      <path id="path25" d="m 4184.72,1489.85 h -87.96 c -47.45,0 -85.92,38.48 -85.92,85.94 v 87.96 l 173.88,-173.9" style="fill:#f03754;fill-opacity:1;fill-rule:nonzero;stroke:none" transform="matrix(0.13333333,0,0,-0.13333333,0,666.66667)" />
      <path id="path26" d="m 4184.72,1489.85 h -87.96 c -47.45,0 -85.92,38.48 -85.92,85.94 v 87.96 l 173.88,-173.9" style="fill:#ef2f48;fill-opacity:1;fill-rule:nonzero;stroke:none" transform="matrix(0.13333333,0,0,-0.13333333,0,666.66667)" />
      <path id="path27" d="m 4356.59,1837.63 h 175.92 v -175.92 c 0,-94.92 -76.95,-171.86 -171.86,-171.86 h -175.93 v 175.93 c 0,94.91 76.95,171.85 171.87,171.85" style="fill:#ef2f48;fill-opacity:1;fill-rule:nonzero;stroke:none" transform="matrix(0.13333333,0,0,-0.13333333,0,666.66667)" />
      <path id="path28" d="m 4184.72,1489.85 h 175.93 c 94.91,0 171.86,76.95 171.86,171.87 v 175.91 l -347.79,-347.78" style="fill:#ef2f48;fill-opacity:1;fill-rule:nonzero;stroke:none" transform="matrix(0.13333333,0,0,-0.13333333,0,666.66667)" />
      <path id="path29" d="m 4184.72,1489.85 h 175.93 c 94.91,0 171.86,76.95 171.86,171.87 v 175.91 l -347.79,-347.78" style="fill:#fabb34;fill-opacity:1;fill-rule:nonzero;stroke:none" transform="matrix(0.13333333,0,0,-0.13333333,0,666.66667)" />
      <path id="path30" d="m 4270.66,1663.75 h 87.96 v -87.97 c 0,-47.45 -38.48,-85.93 -85.93,-85.93 h -87.97 v 87.97 c 0,47.45 38.48,85.93 85.94,85.93" style="fill:#f46f1f;fill-opacity:1;fill-rule:nonzero;stroke:none" transform="matrix(0.13333333,0,0,-0.13333333,0,666.66667)" />
      <path id="path31" d="m 4184.72,1489.85 h 87.96 c 47.46,0 85.94,38.48 85.94,85.94 v 87.96 l -173.9,-173.9" style="fill:#f03754;fill-opacity:1;fill-rule:nonzero;stroke:none" transform="matrix(0.13333333,0,0,-0.13333333,0,666.66667)" />
      <path id="path32" d="m 4184.72,1489.85 h 87.96 c 47.46,0 85.94,38.48 85.94,85.94 v 87.96 l -173.9,-173.9" style="fill:#ef2f48;fill-opacity:1;fill-rule:nonzero;stroke:none" transform="matrix(0.13333333,0,0,-0.13333333,0,666.66667)" />
      <path id="path33" d="m 4012.87,1489.85 h -175.92 v -175.92 c 0,-94.92 76.94,-171.86 171.85,-171.86 h 175.92 v 175.92 c 0,94.92 -76.94,171.86 -171.85,171.86" style="fill:#ef2f48;fill-opacity:1;fill-rule:nonzero;stroke:none" transform="matrix(0.13333333,0,0,-0.13333333,0,666.66667)" />
      <path id="path34" d="M 4184.72,1142.07 H 4008.8 c -94.91,0 -171.85,76.95 -171.85,171.86 v 175.92 l 347.77,-347.78" style="fill:#ef2f48;fill-opacity:1;fill-rule:nonzero;stroke:none" transform="matrix(0.13333333,0,0,-0.13333333,0,666.66667)" />
      <path id="path35" d="M 4184.72,1142.07 H 4008.8 c -94.91,0 -171.85,76.95 -171.85,171.86 v 175.92 l 347.77,-347.78" style="fill:#fabb34;fill-opacity:1;fill-rule:nonzero;stroke:none" transform="matrix(0.13333333,0,0,-0.13333333,0,666.66667)" />
      <path id="path36" d="m 4098.8,1315.96 h -87.96 v -87.97 c 0,-47.45 38.46,-85.92 85.92,-85.92 h 87.96 v 87.97 c 0,47.45 -38.46,85.92 -85.92,85.92" style="fill:#f46f1f;fill-opacity:1;fill-rule:nonzero;stroke:none" transform="matrix(0.13333333,0,0,-0.13333333,0,666.66667)" />
      <path id="path37" d="m 4184.72,1142.07 h -87.96 c -47.45,0 -85.92,38.47 -85.92,85.93 v 87.96 l 173.88,-173.89" style="fill:#f03754;fill-opacity:1;fill-rule:nonzero;stroke:none" transform="matrix(0.13333333,0,0,-0.13333333,0,666.66667)" />
      <path id="path38" d="m 4184.72,1142.07 h -87.96 c -47.45,0 -85.92,38.47 -85.92,85.93 v 87.96 l 173.88,-173.89" style="fill:#ef2f48;fill-opacity:1;fill-rule:nonzero;stroke:none" transform="matrix(0.13333333,0,0,-0.13333333,0,666.66667)" />
      <path id="path39" d="m 4356.59,1489.85 h 175.92 v -175.92 c 0,-94.92 -76.95,-171.86 -171.86,-171.86 h -175.93 v 175.92 c 0,94.92 76.95,171.86 171.87,171.86" style="fill:#ef2f48;fill-opacity:1;fill-rule:nonzero;stroke:none" transform="matrix(0.13333333,0,0,-0.13333333,0,666.66667)" />
      <path id="path40" d="m 4184.72,1142.07 h 175.93 c 94.91,0 171.86,76.95 171.86,171.86 v 175.92 l -347.79,-347.78" style="fill:#ef2f48;fill-opacity:1;fill-rule:nonzero;stroke:none" transform="matrix(0.13333333,0,0,-0.13333333,0,666.66667)" />
      <path id="path41" d="m 4184.72,1142.07 h 175.93 c 94.91,0 171.86,76.95 171.86,171.86 v 175.92 l -347.79,-347.78" style="fill:#fabb34;fill-opacity:1;fill-rule:nonzero;stroke:none" transform="matrix(0.13333333,0,0,-0.13333333,0,666.66667)" />
      <path id="path42" d="m 4270.66,1315.96 h 87.96 v -87.97 c 0,-47.45 -38.48,-85.92 -85.93,-85.92 h -87.97 v 87.97 c 0,47.45 38.48,85.92 85.94,85.92" style="fill:#f46f1f;fill-opacity:1;fill-rule:nonzero;stroke:none" transform="matrix(0.13333333,0,0,-0.13333333,0,666.66667)" />
      <path id="path43" d="m 4184.72,1142.07 h 87.96 c 47.46,0 85.94,38.47 85.94,85.93 v 87.96 l -173.9,-173.89" style="fill:#f03754;fill-opacity:1;fill-rule:nonzero;stroke:none" transform="matrix(0.13333333,0,0,-0.13333333,0,666.66667)" />
      <path id="path44" d="m 4184.72,1142.07 h 87.96 c 47.46,0 85.94,38.47 85.94,85.93 v 87.96 l -173.9,-173.89" style="fill:#ef2f48;fill-opacity:1;fill-rule:nonzero;stroke:none" transform="matrix(0.13333333,0,0,-0.13333333,0,666.66667)" />
      </g></svg>