<?xml version='1.0' encoding='utf-8'?>
<svg xmlns="http://www.w3.org/2000/svg" version="1.1" width="133.676" height="121.901" viewBox="828.111 509.076 133.676 121.901"><g id="object"><path id="path117" d="m 7168.4,860.211 v 0 -547.539 h -547.54 v 0 c 0,302.41 245.14,547.539 547.54,547.539" style="fill:#423f9f;fill-opacity:1;fill-rule:nonzero;stroke:none" transform="matrix(0.13333333,0,0,-0.13333333,0,666.66667)" />
      <path id="path118" d="m 7168.4,654.891 v 0 -342.219 h -342.21 v 0 c 0,189.008 153.21,342.219 342.21,342.219" style="fill:#ee2238;fill-opacity:1;fill-rule:nonzero;stroke:none" transform="matrix(0.13333333,0,0,-0.13333333,0,666.66667)" />
      <path id="path128" d="m 6255.83,771.898 v 0 0 c 201.6,0 365.03,163.43 365.03,365.032 v 0 0 c -201.6,0 -365.03,-163.43 -365.03,-365.032" style="fill:#ee2238;fill-opacity:1;fill-rule:nonzero;stroke:none" transform="matrix(0.13333333,0,0,-0.13333333,0,666.66667)" />
      </g></svg>