<?xml version='1.0' encoding='utf-8'?>
<svg xmlns="http://www.w3.org/2000/svg" version="1.1" width="97.802" height="97.802" viewBox="325.220 431.664 97.802 97.802"><g id="object"><path id="path48" d="m 2484.15,1395.76 v 0 0 c 0,-177.71 144.06,-321.76 321.76,-321.76 v 0 0 c 0,177.7 -144.06,321.76 -321.76,321.76" style="fill:#ee2238;fill-opacity:1;fill-rule:nonzero;stroke:none" transform="matrix(0.13333333,0,0,-0.13333333,0,666.66667)" />
      <path id="path49" d="m 3127.67,1395.76 v 0 0 c 0,-177.71 -144.06,-321.76 -321.76,-321.76 v 0 0 c 0,177.7 144.06,321.76 321.76,321.76" style="fill:#ee2238;fill-opacity:1;fill-rule:nonzero;stroke:none" transform="matrix(0.13333333,0,0,-0.13333333,0,666.66667)" />
      <path id="path50" d="m 2484.15,1717.52 v 0 0 c 0,-177.71 144.06,-321.76 321.76,-321.76 v 0 0 c 0,177.69 -144.06,321.76 -321.76,321.76" style="fill:#1f254c;fill-opacity:1;fill-rule:nonzero;stroke:none" transform="matrix(0.13333333,0,0,-0.13333333,0,666.66667)" />
      <path id="path51" d="m 3127.67,1717.52 v 0 0 c 0,-177.71 -144.06,-321.76 -321.76,-321.76 v 0 0 c 0,177.69 144.06,321.76 321.76,321.76" style="fill:#1f254c;fill-opacity:1;fill-rule:nonzero;stroke:none" transform="matrix(0.13333333,0,0,-0.13333333,0,666.66667)" />
      </g></svg>