<?xml version='1.0' encoding='utf-8'?>
<svg xmlns="http://www.w3.org/2000/svg" version="1.1" width="122.570" height="218.208" viewBox="186.364 412.313 122.570 218.208"><g id="object"><path id="path21" d="m 1857.37,316.09 v 0 0 c 0,182.98 148.33,331.308 331.31,331.308 v 0 0 c 0,-182.976 -148.33,-331.308 -331.31,-331.308" style="fill:#2e71ab;fill-opacity:1;fill-rule:nonzero;stroke:none" transform="matrix(0.13333333,0,0,-0.13333333,0,666.66667)" />
      <path id="path22" d="m 1857.37,647.398 v 0 0 c 0,182.981 148.33,331.313 331.31,331.313 v 0 0 c 0,-182.981 -148.33,-331.313 -331.31,-331.313" style="fill:#2e71ab;fill-opacity:1;fill-rule:nonzero;stroke:none" transform="matrix(0.13333333,0,0,-0.13333333,0,666.66667)" />
      <path id="path23" d="m 1857.37,316.09 v 0 0 c -182.98,0 -331.31,148.332 -331.31,331.308 v 0 0 c 182.98,0 331.31,-148.328 331.31,-331.308" style="fill:#ef304d;fill-opacity:1;fill-rule:nonzero;stroke:none" transform="matrix(0.13333333,0,0,-0.13333333,0,666.66667)" />
      <path id="path24" d="m 1857.37,647.398 v 0 0 c -182.98,0 -331.31,148.332 -331.31,331.313 v 0 0 c 182.98,0 331.31,-148.332 331.31,-331.313" style="fill:#ef304d;fill-opacity:1;fill-rule:nonzero;stroke:none" transform="matrix(0.13333333,0,0,-0.13333333,0,666.66667)" />
      <path id="path25" d="m 1442.73,1623.26 c 0,0 152.67,50.07 267.17,-16.04 114.5,-66.1 147.47,-223.36 147.47,-223.36 0,0 -152.67,-50.06 -267.17,16.05 -114.5,66.1 -147.47,223.35 -147.47,223.35" style="fill:#f89b0f;fill-opacity:1;fill-rule:nonzero;stroke:none" transform="matrix(0.13333333,0,0,-0.13333333,0,666.66667)" />
      <path id="path26" d="m 1857.37,1383.86 c 0,0 152.67,50.08 267.17,-16.03 114.5,-66.1 147.47,-223.35 147.47,-223.35 0,0 -152.67,-50.07 -267.17,16.03 -114.5,66.11 -147.47,223.35 -147.47,223.35" style="fill:#2e71ab;fill-opacity:1;fill-rule:nonzero;stroke:none" transform="matrix(0.13333333,0,0,-0.13333333,0,666.66667)" />
      <path id="path27" d="m 1442.73,1144.48 c 0,0 32.97,157.25 147.47,223.35 114.5,66.11 267.17,16.03 267.17,16.03 0,0 -32.97,-157.24 -147.47,-223.35 -114.5,-66.1 -267.17,-16.03 -267.17,-16.03" style="fill:#2e71ab;fill-opacity:1;fill-rule:nonzero;stroke:none" transform="matrix(0.13333333,0,0,-0.13333333,0,666.66667)" />
      <path id="path28" d="m 1857.37,1383.86 c 0,0 32.97,157.26 147.47,223.36 114.5,66.11 267.17,16.04 267.17,16.04 0,0 -32.97,-157.25 -147.47,-223.35 -114.5,-66.11 -267.17,-16.05 -267.17,-16.05" style="fill:#f89b0f;fill-opacity:1;fill-rule:nonzero;stroke:none" transform="matrix(0.13333333,0,0,-0.13333333,0,666.66667)" />
      <path id="path29" d="m 1857.37,1862.65 c 0,0 119.7,-107.17 119.7,-239.39 0,-132.21 -119.7,-239.4 -119.7,-239.4 0,0 -119.69,107.19 -119.69,239.4 0,132.22 119.69,239.39 119.69,239.39" style="fill:#2e71ab;fill-opacity:1;fill-rule:nonzero;stroke:none" transform="matrix(0.13333333,0,0,-0.13333333,0,666.66667)" />
      <path id="path30" d="m 1857.37,1383.86 c 0,0 119.7,-107.17 119.7,-239.38 0,-132.22 -119.7,-239.398 -119.7,-239.398 0,0 -119.69,107.178 -119.69,239.398 0,132.21 119.69,239.38 119.69,239.38" style="fill:#f89b0f;fill-opacity:1;fill-rule:nonzero;stroke:none" transform="matrix(0.13333333,0,0,-0.13333333,0,666.66667)" />
      <path id="path31" d="m 1977.07,1383.86 c 0,-66.1 -53.59,-119.68 -119.7,-119.68 -66.1,0 -119.69,53.58 -119.69,119.68 0,66.12 53.59,119.7 119.69,119.7 66.11,0 119.7,-53.58 119.7,-119.7" style="fill:#fffcf6;fill-opacity:1;fill-rule:nonzero;stroke:none" transform="matrix(0.13333333,0,0,-0.13333333,0,666.66667)" />
      <path id="path32" d="m 1917.22,1383.86 c 0,-33.04 -26.79,-59.84 -59.85,-59.84 -33.05,0 -59.85,26.8 -59.85,59.84 0,33.06 26.8,59.86 59.85,59.86 33.06,0 59.85,-26.8 59.85,-59.86" style="fill:#2e71ab;fill-opacity:1;fill-rule:nonzero;stroke:none" transform="matrix(0.13333333,0,0,-0.13333333,0,666.66667)" />
      </g></svg>