<?xml version='1.0' encoding='utf-8'?>
<svg xmlns="http://www.w3.org/2000/svg" version="1.1" width="116.859" height="177.242" viewBox="181.874 445.916 116.859 177.242"><g id="object"><path id="path54" d="m 2171.03,1397.73 c -40.44,70.05 -120.31,103.1 -195.38,87.38 -23.94,72.88 -92.49,125.52 -173.37,125.52 -80.89,0 -149.44,-52.64 -173.37,-125.52 -75.08,15.72 -154.94,-17.33 -195.39,-87.38 -40.44,-70.05 -29.12,-155.73 22.02,-212.9 -51.14,-57.17 -62.46,-142.85 -22.02,-212.9 40.45,-70.051 120.31,-103.09 195.39,-87.379 23.93,-72.871 92.48,-125.52 173.37,-125.52 80.88,0 149.43,52.649 173.37,125.52 75.07,-15.711 154.94,17.328 195.38,87.379 40.45,70.05 29.13,155.73 -22.01,212.9 51.14,57.17 62.46,142.85 22.01,212.9" style="fill:#f46e1b;fill-opacity:1;fill-rule:nonzero;stroke:none" transform="matrix(0.13333333,0,0,-0.13333333,0,666.66667)" />
      <path id="path55" d="m 2074.37,1184.83 c 0,-150.27 -121.82,-272.092 -272.09,-272.092 -150.28,0 -272.1,121.822 -272.1,272.092 0,150.27 121.82,272.1 272.1,272.1 150.27,0 272.09,-121.83 272.09,-272.1" style="fill:#517ec8;fill-opacity:1;fill-rule:nonzero;stroke:none" transform="matrix(0.13333333,0,0,-0.13333333,0,666.66667)" />
      <path id="path56" d="m 1954.35,1184.83 c 0,-83.98 -68.08,-152.07 -152.07,-152.07 -83.99,0 -152.07,68.09 -152.07,152.07 0,83.99 68.08,152.07 152.07,152.07 83.99,0 152.07,-68.08 152.07,-152.07" style="fill:#1e4470;fill-opacity:1;fill-rule:nonzero;stroke:none" transform="matrix(0.13333333,0,0,-0.13333333,0,666.66667)" />
      <path id="path57" d="m 1420.06,759.031 v 0 0 c 0,-214.133 173.58,-387.711 387.71,-387.711 v 0 0 c 0,214.129 -173.58,387.711 -387.71,387.711" style="fill:#1e4470;fill-opacity:1;fill-rule:nonzero;stroke:none" transform="matrix(0.13333333,0,0,-0.13333333,0,666.66667)" />
      <path id="path58" d="m 1807.77,371.32 h 0.01 c 214.13,0 387.71,173.578 387.71,387.711 v 0 0 c -214.13,0 -387.72,-173.582 -387.72,-387.711 v 0" style="fill:#517ec8;fill-opacity:1;fill-rule:nonzero;stroke:none" transform="matrix(0.13333333,0,0,-0.13333333,0,666.66667)" />
      </g></svg>