<?xml version='1.0' encoding='utf-8'?>
<svg xmlns="http://www.w3.org/2000/svg" version="1.1" width="82.974" height="82.973" viewBox="564.301 448.404 82.974 82.973"><g id="object"><path id="path82" d="m 4277.26,1325.83 c 0,-147 119.16,-266.16 266.14,-266.16 v 0 266.16 h -266.14" style="fill:#f57930;fill-opacity:1;fill-rule:nonzero;stroke:none" transform="matrix(0.13333333,0,0,-0.13333333,0,666.66667)" />
      <path id="path83" d="m 4543.4,1059.67 v 0 c 147,0 266.16,119.16 266.16,266.16 H 4543.4 v -266.16" style="fill:#f9aa0c;fill-opacity:1;fill-rule:nonzero;stroke:none" transform="matrix(0.13333333,0,0,-0.13333333,0,666.66667)" />
      <path id="path84" d="m 4543.4,1325.83 c 0,146.98 -119.15,266.14 -266.14,266.14 v 0 -266.14 h 266.14 v 0" style="fill:#f9aa0c;fill-opacity:1;fill-rule:nonzero;stroke:none" transform="matrix(0.13333333,0,0,-0.13333333,0,666.66667)" />
      <path id="path85" d="m 4809.56,1591.97 c -147,0 -266.16,-119.16 -266.16,-266.14 v 0 h 266.16 v 266.14 0" style="fill:#782d99;fill-opacity:1;fill-rule:nonzero;stroke:none" transform="matrix(0.13333333,0,0,-0.13333333,0,666.66667)" />
      </g></svg>