<?xml version='1.0' encoding='utf-8'?>
<svg xmlns="http://www.w3.org/2000/svg" version="1.1" width="82.972" height="127.330" viewBox="660.323 452.579 82.972 127.330"><g id="object"><path id="path119" d="m 5529.71,1294.51 h -532.29 v -66.53 c 0,-147 119.16,-266.148 266.15,-266.148 v 0 c 146.99,0 266.14,119.148 266.14,266.148 v 66.53" style="fill:#ed1b29;fill-opacity:1;fill-rule:nonzero;stroke:none" transform="matrix(0.13333333,0,0,-0.13333333,0,666.66667)" />
      <path id="path120" d="M 5263.57,1294.51 V 961.832 c -146.97,0 -266.15,119.168 -266.15,266.148 v 66.53 h 266.15" style="fill:#f57930;fill-opacity:1;fill-rule:nonzero;stroke:none" transform="matrix(0.13333333,0,0,-0.13333333,0,666.66667)" />
      <path id="path121" d="m 5141.59,1372.14 121.98,-77.63 121.98,77.63" style="fill:none;stroke:#f36418;stroke-width:22.1789;stroke-linecap:butt;stroke-linejoin:miter;stroke-miterlimit:10;stroke-dasharray:none;stroke-opacity:1" transform="matrix(0.13333333,0,0,-0.13333333,0,666.66667)" />
      <path id="path122" d="m 5263.57,1294.51 v 133.07" style="fill:none;stroke:#f36418;stroke-width:22.1789;stroke-linecap:butt;stroke-linejoin:miter;stroke-miterlimit:10;stroke-dasharray:none;stroke-opacity:1" transform="matrix(0.13333333,0,0,-0.13333333,0,666.66667)" />
      <path id="path123" d="m 5330.1,1494.12 c 0,36.75 -29.78,66.54 -66.53,66.54 -36.75,0 -66.53,-29.79 -66.53,-66.54 0,-36.74 29.78,-66.54 66.53,-66.54 36.75,0 66.53,29.8 66.53,66.54" style="fill:#ed1b29;fill-opacity:1;fill-rule:nonzero;stroke:none" transform="matrix(0.13333333,0,0,-0.13333333,0,666.66667)" />
      <path id="path124" d="M 5263.57,1294.51 V 961.832 c -146.97,0 -266.15,119.168 -266.15,266.148 v 66.53 h 266.15" style="fill:#782d99;fill-opacity:1;fill-rule:nonzero;stroke:none" transform="matrix(0.13333333,0,0,-0.13333333,0,666.66667)" />
      <path id="path125" d="m 4997.42,961.832 v 0 0 c 0,-146.992 119.16,-266.152 266.15,-266.152 v 0 0 c 0,146.992 -119.16,266.152 -266.15,266.152" style="fill:#f9aa0c;fill-opacity:1;fill-rule:nonzero;stroke:none" transform="matrix(0.13333333,0,0,-0.13333333,0,666.66667)" />
      <path id="path126" d="m 4997.43,961.832 h -0.01 L 5263.57,695.68 c 0,146.992 -119.16,266.152 -266.14,266.152" style="fill:#f57930;fill-opacity:1;fill-rule:nonzero;stroke:none" transform="matrix(0.13333333,0,0,-0.13333333,0,666.66667)" />
      <path id="path127" d="m 5529.71,961.832 v 0 0 c 0,-146.992 -119.15,-266.152 -266.14,-266.152 v 0 0 c 0,146.992 119.16,266.152 266.14,266.152" style="fill:#f9aa0c;fill-opacity:1;fill-rule:nonzero;stroke:none" transform="matrix(0.13333333,0,0,-0.13333333,0,666.66667)" />
      <path id="path128" d="m 5529.71,961.832 v 0 L 5263.57,695.68 c 0,146.992 119.16,266.152 266.14,266.152" style="fill:#f57930;fill-opacity:1;fill-rule:nonzero;stroke:none" transform="matrix(0.13333333,0,0,-0.13333333,0,666.66667)" />
      </g></svg>