<?xml version='1.0' encoding='utf-8'?>
<svg xmlns="http://www.w3.org/2000/svg" version="1.1" width="110.250" height="233.065" viewBox="256.871 402.960 110.250 233.065"><g id="object"><path id="path63" d="m 1971.53,1564.35 184.22,184.22 184.22,-184.22 z" style="fill:#f68b11;fill-opacity:1;fill-rule:nonzero;stroke:none" transform="matrix(0.13333333,0,0,-0.13333333,0,666.66667)" />
      <path id="path64" d="m 2339.97,1564.35 184.22,184.22 184.22,-184.22 z" style="fill:#f68b11;fill-opacity:1;fill-rule:nonzero;stroke:none" transform="matrix(0.13333333,0,0,-0.13333333,0,666.66667)" />
      <path id="path65" d="m 2432.08,1748.57 c 0,50.88 -41.24,92.12 -92.11,92.12 -50.87,0 -92.11,-41.24 -92.11,-92.12 h 184.22" style="fill:#f68b11;fill-opacity:1;fill-rule:nonzero;stroke:none" transform="matrix(0.13333333,0,0,-0.13333333,0,666.66667)" />
      <path id="path66" d="m 2247.86,1840.69 c 0,50.87 -41.24,92.11 -92.11,92.11 -50.87,0 -92.11,-41.24 -92.11,-92.11 h 184.22" style="fill:#1f3662;fill-opacity:1;fill-rule:nonzero;stroke:none" transform="matrix(0.13333333,0,0,-0.13333333,0,666.66667)" />
      <path id="path67" d="m 2616.3,1840.69 c 0,50.87 -41.24,92.11 -92.11,92.11 -50.87,0 -92.11,-41.24 -92.11,-92.11 h 184.22" style="fill:#1f3662;fill-opacity:1;fill-rule:nonzero;stroke:none" transform="matrix(0.13333333,0,0,-0.13333333,0,666.66667)" />
      <path id="path68" d="m 1971.53,1564.35 v -184.22 c 0,-203.48 164.96,-368.43 368.44,-368.43 v 0 552.65 h -368.44" style="fill:#1f3662;fill-opacity:1;fill-rule:nonzero;stroke:none" transform="matrix(0.13333333,0,0,-0.13333333,0,666.66667)" />
      <path id="path69" d="M 2339.97,1564.35 V 1011.7 c 203.48,0 368.44,164.95 368.44,368.43 v 184.22 h -368.44" style="fill:#ee1a7c;fill-opacity:1;fill-rule:nonzero;stroke:none" transform="matrix(0.13333333,0,0,-0.13333333,0,666.66667)" />
      <path id="path70" d="m 2339.97,643.262 v 0 c -203.48,0 -368.44,164.949 -368.44,368.438 v 0 0 c 203.49,0 368.44,-164.958 368.44,-368.438 v 0" style="fill:#1f3662;fill-opacity:1;fill-rule:nonzero;stroke:none" transform="matrix(0.13333333,0,0,-0.13333333,0,666.66667)" />
      <path id="path71" d="m 2339.97,643.262 v 0 c 203.48,0 368.44,164.949 368.44,368.438 v 0 0 c -203.48,0 -368.44,-164.958 -368.44,-368.438 v 0" style="fill:#ee1a7c;fill-opacity:1;fill-rule:nonzero;stroke:none" transform="matrix(0.13333333,0,0,-0.13333333,0,666.66667)" />
      <path id="path72" d="m 2339.97,274.809 v 0 c -203.48,0 -368.44,164.961 -368.44,368.441 v 0.012 0 c 203.49,0 368.44,-164.961 368.44,-368.453 v 0" style="fill:#f68b11;fill-opacity:1;fill-rule:nonzero;stroke:none" transform="matrix(0.13333333,0,0,-0.13333333,0,666.66667)" />
      <path id="path73" d="m 2339.97,274.809 v 0 c 203.48,0 368.44,164.961 368.44,368.441 v 0.012 0 c -203.48,0 -368.44,-164.961 -368.44,-368.453 v 0" style="fill:#f68b11;fill-opacity:1;fill-rule:nonzero;stroke:none" transform="matrix(0.13333333,0,0,-0.13333333,0,666.66667)" />
      <path id="path74" d="m 2339.97,643.262 v 0 c -203.48,0 -368.44,164.949 -368.44,368.438 v 0 0 c 203.49,0 368.44,-164.958 368.44,-368.438 v 0" style="fill:#ee1a7c;fill-opacity:1;fill-rule:nonzero;stroke:none" transform="matrix(0.13333333,0,0,-0.13333333,0,666.66667)" />
      <path id="path75" d="m 2339.97,643.262 v 0 c 203.48,0 368.44,164.949 368.44,368.438 v 0 0 c -203.48,0 -368.44,-164.958 -368.44,-368.438 v 0" style="fill:#ee1a7c;fill-opacity:1;fill-rule:nonzero;stroke:none" transform="matrix(0.13333333,0,0,-0.13333333,0,666.66667)" />
      </g></svg>