<?xml version='1.0' encoding='utf-8'?>
<svg xmlns="http://www.w3.org/2000/svg" version="1.1" width="169.932" height="273.501" viewBox="792.829 351.021 169.932 273.501"><g id="object"><path id="path37" d="m 6738.2,2167.59 -154.74,154.75 -154.73,-154.75 c -80.38,-80.38 -80.38,-210.7 0,-291.09 l 154.73,-154.74 154.74,154.74 c 80.39,80.39 80.39,210.71 0,291.09" style="fill:#fab20b;fill-opacity:1;fill-rule:nonzero;stroke:none" transform="matrix(0.13333333,0,0,-0.13333333,0,666.66667)" />
      <path id="path38" d="m 6738.2,1583.68 -154.74,154.73 -154.73,-154.73 c -80.38,-80.38 -80.38,-210.71 0,-291.1 l 154.73,-154.73 154.74,154.73 c 80.39,80.39 80.39,210.72 0,291.1" style="fill:#fab20b;fill-opacity:1;fill-rule:nonzero;stroke:none" transform="matrix(0.13333333,0,0,-0.13333333,0,666.66667)" />
      <path id="path39" d="m 6145.95,1884.83 -154.73,-154.74 154.73,-154.74 c 80.39,-80.38 210.72,-80.38 291.1,0 l 154.74,154.74 -154.74,154.74 c -80.38,80.38 -210.71,80.38 -291.1,0" style="fill:#fab20b;fill-opacity:1;fill-rule:nonzero;stroke:none" transform="matrix(0.13333333,0,0,-0.13333333,0,666.66667)" />
      <path id="path40" d="m 6729.88,1884.83 -154.74,-154.74 154.74,-154.74 c 80.38,-80.38 210.71,-80.38 291.09,0 l 154.74,154.74 -154.74,154.74 c -80.38,80.38 -210.71,80.38 -291.09,0" style="fill:#fab20b;fill-opacity:1;fill-rule:nonzero;stroke:none" transform="matrix(0.13333333,0,0,-0.13333333,0,666.66667)" />
      <path id="path41" d="m 6700.48,2060.95 -117.02,117.03 -117.02,-117.03 c -60.79,-60.79 -60.79,-159.34 0,-220.13 l 117.02,-117.02 117.02,117.02 c 60.8,60.79 60.8,159.34 0,220.13" style="fill:#f57515;fill-opacity:1;fill-rule:nonzero;stroke:none" transform="matrix(0.13333333,0,0,-0.13333333,0,666.66667)" />
      <path id="path42" d="m 6700.48,1619.36 -117.02,117.02 -117.02,-117.02 c -60.79,-60.79 -60.79,-159.34 0,-220.13 l 117.02,-117.03 117.02,117.03 c 60.8,60.79 60.8,159.34 0,220.13" style="fill:#f57515;fill-opacity:1;fill-rule:nonzero;stroke:none" transform="matrix(0.13333333,0,0,-0.13333333,0,666.66667)" />
      <path id="path43" d="m 6252.59,1847.12 -117.02,-117.03 117.02,-117.02 c 60.8,-60.79 159.36,-60.79 220.15,0 l 117.02,117.02 -117.02,117.03 c -60.79,60.79 -159.35,60.79 -220.15,0" style="fill:#f57515;fill-opacity:1;fill-rule:nonzero;stroke:none" transform="matrix(0.13333333,0,0,-0.13333333,0,666.66667)" />
      <path id="path44" d="m 6694.19,1847.12 -117.03,-117.03 117.03,-117.02 c 60.79,-60.79 159.35,-60.79 220.14,0 l 117.02,117.02 -117.02,117.03 c -60.79,60.79 -159.35,60.79 -220.14,0" style="fill:#f57515;fill-opacity:1;fill-rule:nonzero;stroke:none" transform="matrix(0.13333333,0,0,-0.13333333,0,666.66667)" />
      <path id="path45" d="m 6678.38,1998.44 -94.92,94.91 -94.91,-94.91 c -49.3,-49.3 -49.3,-129.24 0,-178.55 l 94.91,-94.9 94.92,94.9 c 49.3,49.31 49.3,129.25 0,178.55" style="fill:#286aaa;fill-opacity:1;fill-rule:nonzero;stroke:none" transform="matrix(0.13333333,0,0,-0.13333333,0,666.66667)" />
      <path id="path46" d="m 6678.38,1640.29 -94.92,94.91 -94.91,-94.91 c -49.3,-49.31 -49.3,-129.25 0,-178.55 l 94.91,-94.91 94.92,94.91 c 49.3,49.3 49.3,129.24 0,178.55" style="fill:#286aaa;fill-opacity:1;fill-rule:nonzero;stroke:none" transform="matrix(0.13333333,0,0,-0.13333333,0,666.66667)" />
      <path id="path47" d="m 6315.11,1825 -94.91,-94.91 94.91,-94.91 c 49.31,-49.3 129.25,-49.3 178.55,0 l 94.91,94.91 -94.91,94.91 c -49.3,49.3 -129.24,49.3 -178.55,0" style="fill:#286aaa;fill-opacity:1;fill-rule:nonzero;stroke:none" transform="matrix(0.13333333,0,0,-0.13333333,0,666.66667)" />
      <path id="path48" d="m 6673.27,1825 -94.91,-94.91 94.91,-94.91 c 49.3,-49.3 129.24,-49.3 178.54,0 l 94.91,94.91 -94.91,94.91 c -49.3,49.3 -129.24,49.3 -178.54,0" style="fill:#286aaa;fill-opacity:1;fill-rule:nonzero;stroke:none" transform="matrix(0.13333333,0,0,-0.13333333,0,666.66667)" />
      <path id="path49" d="m 6158.8,2146.43 v 0 0 c 0,-234.54 190.12,-424.67 424.66,-424.67 v 0 0 c 0,234.55 -190.12,424.67 -424.66,424.67" style="fill:#20b1a4;fill-opacity:1;fill-rule:nonzero;stroke:none" transform="matrix(0.13333333,0,0,-0.13333333,0,666.66667)" />
      <path id="path50" d="m 6583.46,1721.76 v 0 0 c 234.54,0 424.67,190.13 424.67,424.67 v 0 0 c -234.53,0 -424.67,-190.12 -424.67,-424.67" style="fill:#3ebeb9;fill-opacity:1;fill-rule:nonzero;stroke:none" transform="matrix(0.13333333,0,0,-0.13333333,0,666.66667)" />
      <path id="path51" d="m 7008.13,1297.1 v 0 0 c 0,234.54 -190.13,424.66 -424.67,424.66 v 0 0 c 0,-234.54 190.14,-424.66 424.67,-424.66" style="fill:#20b1a4;fill-opacity:1;fill-rule:nonzero;stroke:none" transform="matrix(0.13333333,0,0,-0.13333333,0,666.66667)" />
      <path id="path52" d="m 6583.46,1721.76 v 0 0 c -234.54,0 -424.66,-190.12 -424.66,-424.66 v 0 0 c 234.54,0 424.66,190.12 424.66,424.66" style="fill:#3ebeb9;fill-opacity:1;fill-rule:nonzero;stroke:none" transform="matrix(0.13333333,0,0,-0.13333333,0,666.66667)" />
      <path id="path53" d="m 6796.7,1721.76 c 0,-117.76 -95.47,-213.23 -213.24,-213.23 -117.76,0 -213.23,95.47 -213.23,213.23 0,117.77 95.47,213.24 213.23,213.24 117.77,0 213.24,-95.47 213.24,-213.24" style="fill:#fefefe;fill-opacity:1;fill-rule:nonzero;stroke:none" transform="matrix(0.13333333,0,0,-0.13333333,0,666.66667)" />
      <path id="path54" d="m 6689.64,1721.76 c 0,-58.63 -47.54,-106.17 -106.18,-106.17 -58.63,0 -106.16,47.54 -106.16,106.17 0,58.64 47.53,106.18 106.16,106.18 58.64,0 106.18,-47.54 106.18,-106.18" style="fill:#fab20b;fill-opacity:1;fill-rule:nonzero;stroke:none" transform="matrix(0.13333333,0,0,-0.13333333,0,666.66667)" />
      <path id="path55" d="m 6171.51,1114.54 v 0 0 c 0,-223.739 181.38,-405.13 405.13,-405.13 v 0 0 c 0,223.75 -181.38,405.13 -405.13,405.13" style="fill:#3ebeb9;fill-opacity:1;fill-rule:nonzero;stroke:none" transform="matrix(0.13333333,0,0,-0.13333333,0,666.66667)" />
      <path id="path56" d="m 6576.56,709.41 c -223.81,0.102 -405.04,181.43 -405.04,405.13 l 405.04,-405.13" style="fill:#e41c2a;fill-opacity:1;fill-rule:nonzero;stroke:none" transform="matrix(0.13333333,0,0,-0.13333333,0,666.66667)" />
      <path id="path57" d="m 6576.56,709.41 c -223.81,0.102 -405.04,181.43 -405.04,405.13 l 405.04,-405.13" style="fill:#20b1a4;fill-opacity:1;fill-rule:nonzero;stroke:none" transform="matrix(0.13333333,0,0,-0.13333333,0,666.66667)" />
      <path id="path58" d="m 6995.42,1114.54 v 0 0 c 0,-223.739 -181.38,-405.13 -405.12,-405.13 h -0.01 v 0 c 0,223.75 181.39,405.13 405.13,405.13" style="fill:#3ebeb9;fill-opacity:1;fill-rule:nonzero;stroke:none" transform="matrix(0.13333333,0,0,-0.13333333,0,666.66667)" />
      <path id="path59" d="m 6590.38,709.41 c 223.8,0.102 405.03,181.43 405.03,405.13 L 6590.38,709.41" style="fill:#e41c2a;fill-opacity:1;fill-rule:nonzero;stroke:none" transform="matrix(0.13333333,0,0,-0.13333333,0,666.66667)" />
      <path id="path60" d="m 6590.38,709.41 c 223.8,0.102 405.03,181.43 405.03,405.13 L 6590.38,709.41" style="fill:#20b1a4;fill-opacity:1;fill-rule:nonzero;stroke:none" transform="matrix(0.13333333,0,0,-0.13333333,0,666.66667)" />
      <path id="path61" d="m 6171.51,766.211 v 0 0 c 0,-223.742 181.38,-405.129 405.13,-405.129 v 0 0 c 0,223.75 -181.38,405.129 -405.13,405.129" style="fill:#286aaa;fill-opacity:1;fill-rule:nonzero;stroke:none" transform="matrix(0.13333333,0,0,-0.13333333,0,666.66667)" />
      <path id="path62" d="m 6576.56,361.082 c -223.81,0.098 -405.04,181.43 -405.04,405.129 l 405.04,-405.129" style="fill:#e41c2a;fill-opacity:1;fill-rule:nonzero;stroke:none" transform="matrix(0.13333333,0,0,-0.13333333,0,666.66667)" />
      <path id="path63" d="m 6576.56,361.082 c -223.81,0.098 -405.04,181.43 -405.04,405.129 l 405.04,-405.129" style="fill:#1b527c;fill-opacity:1;fill-rule:nonzero;stroke:none" transform="matrix(0.13333333,0,0,-0.13333333,0,666.66667)" />
      <path id="path64" d="m 6995.42,766.211 v 0 0 c 0,-223.742 -181.38,-405.129 -405.12,-405.129 h -0.01 v 0 c 0,223.75 181.39,405.129 405.13,405.129" style="fill:#286aaa;fill-opacity:1;fill-rule:nonzero;stroke:none" transform="matrix(0.13333333,0,0,-0.13333333,0,666.66667)" />
      <path id="path65" d="m 6590.38,361.082 c 223.8,0.098 405.03,181.43 405.03,405.129 L 6590.38,361.082" style="fill:#e41c2a;fill-opacity:1;fill-rule:nonzero;stroke:none" transform="matrix(0.13333333,0,0,-0.13333333,0,666.66667)" />
      <path id="path66" d="m 6590.38,361.082 c 223.8,0.098 405.03,181.43 405.03,405.129 L 6590.38,361.082" style="fill:#1b527c;fill-opacity:1;fill-rule:nonzero;stroke:none" transform="matrix(0.13333333,0,0,-0.13333333,0,666.66667)" />
      </g></svg>