<?xml version='1.0' encoding='utf-8'?>
<svg xmlns="http://www.w3.org/2000/svg" version="1.1" width="81.428" height="170.497" viewBox="61.744 183.180 81.428 170.497"><g id="object"><path id="path92" d="m 508.078,3581.15 v 0 -520.71 h 520.712 v 0 c 0,287.58 -233.13,520.71 -520.712,520.71" style="fill:#f36717;fill-opacity:1;fill-rule:nonzero;stroke:none" transform="matrix(0.13333333,0,0,-0.13333333,0,666.66667)" />
      <path id="path93" d="m 508.078,3407.58 v 0 -347.14 h 347.137 v 0 c 0,191.72 -155.414,347.14 -347.137,347.14" style="fill:#2c3491;fill-opacity:1;fill-rule:nonzero;stroke:none" transform="matrix(0.13333333,0,0,-0.13333333,0,666.66667)" />
      <path id="path105" d="m 508.078,3060.44 h 517.332 v -668.02 c -121.191,31.23 -229.445,94.45 -315.289,180.29 -124.828,124.83 -202.043,297.28 -202.043,487.73" style="fill:#3f7cc8;fill-opacity:1;fill-rule:nonzero;stroke:none" transform="matrix(0.13333333,0,0,-0.13333333,0,666.66667)" />
      <path id="path106" d="m 852.965,3060.44 h 172.445 v -222.67 c -40.398,10.41 -76.484,31.48 -105.097,60.09 -41.61,41.61 -67.348,99.09 -67.348,162.58" style="fill:#2c3491;fill-opacity:1;fill-rule:nonzero;stroke:none" transform="matrix(0.13333333,0,0,-0.13333333,0,666.66667)" />
      </g></svg>