<?xml version='1.0' encoding='utf-8'?>
<svg xmlns="http://www.w3.org/2000/svg" version="1.1" width="405.739" height="446.734" viewBox="549.699 180.443 405.739 446.734"><g id="object"><path id="path25" d="m 4928.81,2038.59 -248.95,-565.81 h 248.95 V 669.211 c 0,-181.18 146.87,-328.039 328.03,-328.039 h 803.59 V 2038.59 c 0,312.48 -253.32,565.8 -565.81,565.8 v 0 c -312.48,0 -565.81,-253.32 -565.81,-565.8 v 0" style="fill:#1e4470;fill-opacity:1;fill-rule:nonzero;stroke:none" transform="matrix(0.13333333,0,0,-0.13333333,0,666.66667)" />
      <path id="path26" d="m 5220.12,2106.59 v 0 0 c 154.67,-154.67 405.42,-154.67 560.08,0 v 0 0 c -154.66,154.66 -405.41,154.66 -560.08,0" style="fill:#f46e1b;fill-opacity:1;fill-rule:nonzero;stroke:none" transform="matrix(0.13333333,0,0,-0.13333333,0,666.66667)" />
      <path id="path27" d="m 5562.05,2106.59 c 0,34.17 -27.71,61.87 -61.89,61.87 -34.17,0 -61.87,-27.7 -61.87,-61.87 0,-34.18 27.7,-61.89 61.87,-61.89 34.18,0 61.89,27.71 61.89,61.89" style="fill:#1e4470;fill-opacity:1;fill-rule:nonzero;stroke:none" transform="matrix(0.13333333,0,0,-0.13333333,0,666.66667)" />
      <path id="path28" d="m 5248.21,1133.76 -312.1,156.04 V 977.699 Z" style="fill:#517ec8;fill-opacity:1;fill-rule:nonzero;stroke:none" transform="matrix(0.13333333,0,0,-0.13333333,0,666.66667)" />
      <path id="path29" d="m 5248.21,1133.76 -312.1,156.04 v -156.04 z" style="fill:#f46e1b;fill-opacity:1;fill-rule:nonzero;stroke:none" transform="matrix(0.13333333,0,0,-0.13333333,0,666.66667)" />
      <path id="path30" d="m 4936.11,977.699 v 0 156.061 c -43.09,0 -78.03,-34.93 -78.03,-78.03 v 0 c 0,-43.1 34.94,-78.031 78.03,-78.031" style="fill:#517ec8;fill-opacity:1;fill-rule:nonzero;stroke:none" transform="matrix(0.13333333,0,0,-0.13333333,0,666.66667)" />
      <path id="path31" d="m 4936.11,1133.76 v 0 156.04 c -43.09,0 -78.03,-34.93 -78.03,-78.03 v 0 c 0,-43.08 34.94,-78.01 78.03,-78.01" style="fill:#f46e1b;fill-opacity:1;fill-rule:nonzero;stroke:none" transform="matrix(0.13333333,0,0,-0.13333333,0,666.66667)" />
      <path id="path32" d="m 6894.46,1291.73 v -643 c 0,-169.871 -137.7,-307.558 -307.55,-307.558 H 5672.32 V 1608.58 c 0,262.48 273.58,475.27 611.07,475.27 v 0 c 337.49,0 611.07,-212.79 611.07,-475.27 v 0 -316.85" style="fill:#517ec8;fill-opacity:1;fill-rule:nonzero;stroke:none" transform="matrix(0.13333333,0,0,-0.13333333,0,666.66667)" />
      <path id="path33" d="m 6893.36,1495.42 227.42,-384.75 H 6893.36 V 648.73 c 0,-169.871 -137.7,-307.558 -307.55,-307.558 H 6123.86 V 1495.42 c 0,212.49 172.26,384.74 384.75,384.74 v 0 c 212.49,0 384.75,-172.25 384.75,-384.74 v 0" style="fill:#f46e1b;fill-opacity:1;fill-rule:nonzero;stroke:none" transform="matrix(0.13333333,0,0,-0.13333333,0,666.66667)" />
      <path id="path34" d="m 6741.53,1541.66 v 0 0 c -130.72,-130.73 -342.67,-130.73 -473.39,0 v 0 0 c 130.72,130.72 342.67,130.72 473.39,0" style="fill:#fbfcfc;fill-opacity:1;fill-rule:nonzero;stroke:none" transform="matrix(0.13333333,0,0,-0.13333333,0,666.66667)" />
      <path id="path35" d="m 6452.54,1541.66 c 0,28.88 23.41,52.29 52.29,52.29 28.89,0 52.31,-23.41 52.31,-52.29 0,-28.89 -23.42,-52.31 -52.31,-52.31 -28.88,0 -52.29,23.42 -52.29,52.31" style="fill:#1e4470;fill-opacity:1;fill-rule:nonzero;stroke:none" transform="matrix(0.13333333,0,0,-0.13333333,0,666.66667)" />
      <path id="path36" d="m 6676.16,880.121 212.23,106.117 V 774.012 Z" style="fill:#1e4470;fill-opacity:1;fill-rule:nonzero;stroke:none" transform="matrix(0.13333333,0,0,-0.13333333,0,666.66667)" />
      <path id="path37" d="m 6676.16,880.121 212.23,106.117 V 880.121 Z" style="fill:#1e4470;fill-opacity:1;fill-rule:nonzero;stroke:none" transform="matrix(0.13333333,0,0,-0.13333333,0,666.66667)" />
      <path id="path38" d="m 6888.39,774.012 v 0 106.109 c 29.3,0 53.06,-23.75 53.06,-53.051 v 0 c 0,-29.3 -23.76,-53.058 -53.06,-53.058" style="fill:#1e4470;fill-opacity:1;fill-rule:nonzero;stroke:none" transform="matrix(0.13333333,0,0,-0.13333333,0,666.66667)" />
      <path id="path39" d="m 6888.39,880.121 v 0 106.117 c 29.3,0 53.06,-23.75 53.06,-53.058 v 0 c 0,-29.301 -23.76,-53.059 -53.06,-53.059" style="fill:#1e4470;fill-opacity:1;fill-rule:nonzero;stroke:none" transform="matrix(0.13333333,0,0,-0.13333333,0,666.66667)" />
      <path id="path40" d="M 6124.97,1341.1 V 946.07 h -74.08 c -54.53,0 -103.91,22.11 -139.65,57.85 -35.75,35.75 -57.86,85.13 -57.86,139.67 0,109.07 88.44,197.51 197.51,197.51 h 74.08" style="fill:#f46e1b;fill-opacity:1;fill-rule:nonzero;stroke:none" transform="matrix(0.13333333,0,0,-0.13333333,0,666.66667)" />
      <path id="path41" d="m 6124.97,1242.35 v -197.52 h -74.08 c -54.53,0 -98.75,44.22 -98.75,98.76 0,54.53 44.22,98.76 98.75,98.76 h 74.08" style="fill:#1e4470;fill-opacity:1;fill-rule:nonzero;stroke:none" transform="matrix(0.13333333,0,0,-0.13333333,0,666.66667)" />
      <path id="path42" d="m 6061.87,1725.16 c -24.2,41.93 -71.99,61.7 -116.93,52.3 -14.33,43.61 -55.35,75.12 -103.75,75.12 -48.41,0 -89.44,-31.51 -103.76,-75.12 -44.93,9.4 -92.74,-10.37 -116.94,-52.3 -24.2,-41.92 -17.43,-93.2 13.18,-127.42 -30.61,-34.21 -37.38,-85.49 -13.18,-127.41 24.2,-41.92 72.01,-61.7 116.94,-52.3 14.32,-43.61 55.35,-75.12 103.76,-75.12 48.4,0 89.42,31.51 103.75,75.12 44.94,-9.4 92.73,10.38 116.93,52.3 24.21,41.92 17.43,93.2 -13.17,127.41 30.6,34.22 37.38,85.5 13.17,127.42" style="fill:#f46e1b;fill-opacity:1;fill-rule:nonzero;stroke:none" transform="matrix(0.13333333,0,0,-0.13333333,0,666.66667)" />
      <path id="path43" d="m 6004.03,1597.74 c 0,-89.93 -72.91,-162.84 -162.84,-162.84 -89.94,0 -162.85,72.91 -162.85,162.84 0,89.94 72.91,162.84 162.85,162.84 89.93,0 162.84,-72.9 162.84,-162.84" style="fill:#517ec8;fill-opacity:1;fill-rule:nonzero;stroke:none" transform="matrix(0.13333333,0,0,-0.13333333,0,666.66667)" />
      <path id="path44" d="m 5932.19,1597.74 c 0,-50.26 -40.74,-91 -91,-91 -50.28,0 -91.02,40.74 -91.02,91 0,50.26 40.74,91.02 91.02,91.02 50.26,0 91,-40.76 91,-91.02" style="fill:#1e4470;fill-opacity:1;fill-rule:nonzero;stroke:none" transform="matrix(0.13333333,0,0,-0.13333333,0,666.66667)" />
      <path id="path99" d="m 4167.74,3601.68 v 0 -316.32 c 0,-174.69 141.62,-316.31 316.32,-316.31 v 0 316.31 c 0,174.7 -141.62,316.32 -316.32,316.32" style="fill:#f46e1b;fill-opacity:1;fill-rule:nonzero;stroke:none" transform="matrix(0.13333333,0,0,-0.13333333,0,666.66667)" />
      <path id="path100" d="m 4800.37,3601.68 v 0 -316.32 c 0,-174.69 -141.61,-316.31 -316.31,-316.31 v 0 316.31 c 0,174.7 141.62,316.32 316.31,316.32" style="fill:#1e4470;fill-opacity:1;fill-rule:nonzero;stroke:none" transform="matrix(0.13333333,0,0,-0.13333333,0,666.66667)" />
      <path id="path101" d="m 4167.74,2969.05 v 0 0 c 0,-174.69 141.62,-316.31 316.32,-316.31 v 0 0 c 0,174.69 -141.62,316.31 -316.32,316.31" style="fill:#f46e1b;fill-opacity:1;fill-rule:nonzero;stroke:none" transform="matrix(0.13333333,0,0,-0.13333333,0,666.66667)" />
      <path id="path102" d="m 4800.37,2969.05 v 0 0 c 0,-174.69 -141.61,-316.31 -316.31,-316.31 v 0 0 c 0,174.69 141.62,316.31 316.31,316.31" style="fill:#1e4470;fill-opacity:1;fill-rule:nonzero;stroke:none" transform="matrix(0.13333333,0,0,-0.13333333,0,666.66667)" />
      <path id="path103" d="m 4167.74,2652.74 v 0 0 c 0,-174.7 141.62,-316.32 316.32,-316.32 v 0 0 c 0,174.7 -141.62,316.32 -316.32,316.32" style="fill:#f46e1b;fill-opacity:1;fill-rule:nonzero;stroke:none" transform="matrix(0.13333333,0,0,-0.13333333,0,666.66667)" />
      <path id="path104" d="m 4800.37,2652.74 v 0 0 c 0,-174.7 -141.61,-316.32 -316.31,-316.32 v 0 0 c 0,174.7 141.62,316.32 316.31,316.32" style="fill:#1e4470;fill-opacity:1;fill-rule:nonzero;stroke:none" transform="matrix(0.13333333,0,0,-0.13333333,0,666.66667)" />
      </g></svg>