<?xml version='1.0' encoding='utf-8'?>
<svg xmlns="http://www.w3.org/2000/svg" version="1.1" width="82.972" height="132.026" viewBox="760.817 483.369 82.972 132.026"><g id="object"><path id="path191" d="M 6283.42,789.621 H 5751.13 V 429.539 h 532.29 v 360.082" style="fill:#782d99;fill-opacity:1;fill-rule:nonzero;stroke:none" transform="matrix(0.13333333,0,0,-0.13333333,0,666.66667)" />
      <path id="path192" d="M 6283.42,789.621 H 6013.36 V 429.539 h 270.06 v 360.082" style="fill:#592587;fill-opacity:1;fill-rule:nonzero;stroke:none" transform="matrix(0.13333333,0,0,-0.13333333,0,666.66667)" />
      <path id="path203" d="m 5751.13,1329.73 v 0 0 c 0,-146.98 119.16,-266.14 266.15,-266.14 v 0 0 c 0,146.99 -119.16,266.14 -266.15,266.14" style="fill:#f57930;fill-opacity:1;fill-rule:nonzero;stroke:none" transform="matrix(0.13333333,0,0,-0.13333333,0,666.66667)" />
      <path id="path204" d="m 6017.28,1063.59 v 0 c 146.98,0 266.14,119.16 266.14,266.14 v 0 0 c -146.98,0 -266.14,-119.15 -266.14,-266.14 v 0" style="fill:#f9aa0c;fill-opacity:1;fill-rule:nonzero;stroke:none" transform="matrix(0.13333333,0,0,-0.13333333,0,666.66667)" />
      <path id="path205" d="m 5751.13,1055.76 v 0 0 c 0,-146.979 119.16,-266.139 266.15,-266.139 v 0 0 c 0,146.988 -119.16,266.139 -266.15,266.139" style="fill:#b91d23;fill-opacity:1;fill-rule:nonzero;stroke:none" transform="matrix(0.13333333,0,0,-0.13333333,0,666.66667)" />
      <path id="path206" d="m 6017.28,789.621 v 0 c 146.98,0 266.14,119.16 266.14,266.139 v 0 0 c -146.98,0 -266.14,-119.151 -266.14,-266.139 v 0" style="fill:#ed1b29;fill-opacity:1;fill-rule:nonzero;stroke:none" transform="matrix(0.13333333,0,0,-0.13333333,0,666.66667)" />
      </g></svg>