<?xml version='1.0' encoding='utf-8'?>
<svg xmlns="http://www.w3.org/2000/svg" version="1.1" width="72.014" height="72.013" viewBox="525.493 39.269 72.014 72.013"><g id="object"><path id="path243" d="m 3986.2,4435.44 c 0,-124.3 100.76,-225.06 225.05,-225.06 v 0 225.06 H 3986.2" style="fill:#f57930;fill-opacity:1;fill-rule:nonzero;stroke:none" transform="matrix(0.13333333,0,0,-0.13333333,0,666.66667)" />
      <path id="path244" d="m 4211.25,4210.38 v 0 c 124.29,0 225.05,100.76 225.05,225.06 h -225.05 v -225.06" style="fill:#ed1b29;fill-opacity:1;fill-rule:nonzero;stroke:none" transform="matrix(0.13333333,0,0,-0.13333333,0,666.66667)" />
      <path id="path245" d="m 4211.25,4435.44 c 0,124.29 -100.76,225.04 -225.05,225.04 v 0 -225.04 h 225.05 v 0" style="fill:#f9aa0c;fill-opacity:1;fill-rule:nonzero;stroke:none" transform="matrix(0.13333333,0,0,-0.13333333,0,666.66667)" />
      <path id="path246" d="m 4436.3,4660.48 c -124.29,0 -225.05,-100.75 -225.05,-225.04 v 0 h 225.05 v 225.04 0" style="fill:#782d99;fill-opacity:1;fill-rule:nonzero;stroke:none" transform="matrix(0.13333333,0,0,-0.13333333,0,666.66667)" />
      </g></svg>