<?xml version='1.0' encoding='utf-8'?>
<svg xmlns="http://www.w3.org/2000/svg" version="1.1" width="209.037" height="197.504" viewBox="451.357 73.949 209.037 197.504"><g id="object"><path id="path73" d="m 4222.85,4318.55 h -107.56 c -331.9,0 -600.94,-269.05 -600.94,-600.95 v -465.31 c 0,-134.31 108.87,-243.19 243.19,-243.19 h 824.18 c 133.69,0 242.07,108.38 242.07,242.08 v 466.42 c 0,331.9 -269.05,600.95 -600.94,600.95" style="fill:#f8a020;fill-opacity:1;fill-rule:nonzero;stroke:none" transform="matrix(0.13333333,0,0,-0.13333333,0,666.66667)" />
      <path id="path74" d="m 4115.29,4318.55 c -331.9,0 -600.94,-269.05 -600.94,-600.95 v -465.31 c 0,-134.31 108.87,-243.19 243.19,-243.19 h 413.85 v 1309.45 h -56.1" style="fill:#ee2238;fill-opacity:1;fill-rule:nonzero;stroke:none" transform="matrix(0.13333333,0,0,-0.13333333,0,666.66667)" />
      <path id="path75" d="m 3506.89,4323.68 h -0.01 c -102.27,-102.27 -102.27,-268.09 0,-370.36 l 46.3,-46.3 370.37,370.37 -46.3,46.29 c -102.27,102.27 -268.09,102.27 -370.36,0" style="fill:#ee2238;fill-opacity:1;fill-rule:nonzero;stroke:none" transform="matrix(0.13333333,0,0,-0.13333333,0,666.66667)" />
      <path id="path76" d="m 3656.06,4009.9 -36.01,36.01 c -45.38,45.38 -45.38,119.22 0,164.61 45.38,45.37 119.23,45.37 164.6,0 l 36.02,-36.01 -164.61,-164.61" style="fill:#423f9f;fill-opacity:1;fill-rule:nonzero;stroke:none" transform="matrix(0.13333333,0,0,-0.13333333,0,666.66667)" />
      <path id="path77" d="m 4831.25,4323.68 v 0 c 102.27,-102.27 102.27,-268.09 0,-370.36 l -46.29,-46.3 -370.37,370.37 46.3,46.29 c 102.27,102.27 268.09,102.27 370.36,0" style="fill:#f8a020;fill-opacity:1;fill-rule:nonzero;stroke:none" transform="matrix(0.13333333,0,0,-0.13333333,0,666.66667)" />
      <path id="path78" d="m 4682.08,4009.9 36,36.01 c 45.38,45.38 45.38,119.22 0,164.61 -45.38,45.37 -119.23,45.37 -164.61,0 l -36,-36.01 164.61,-164.61" style="fill:#423f9f;fill-opacity:1;fill-rule:nonzero;stroke:none" transform="matrix(0.13333333,0,0,-0.13333333,0,666.66667)" />
      <path id="path79" d="m 4046.3,3745.67 c 0,90.39 -73.28,163.68 -163.68,163.68 -90.39,0 -163.67,-73.29 -163.67,-163.68 0,-90.4 73.28,-163.69 163.67,-163.69 90.4,0 163.68,73.29 163.68,163.69" style="fill:#423f9f;fill-opacity:1;fill-rule:nonzero;stroke:none" transform="matrix(0.13333333,0,0,-0.13333333,0,666.66667)" />
      <path id="path80" d="m 3964.47,3745.67 c 0,45.2 -36.64,81.84 -81.85,81.84 -45.19,0 -81.83,-36.64 -81.83,-81.84 0,-45.2 36.64,-81.84 81.83,-81.84 45.21,0 81.85,36.64 81.85,81.84" style="fill:#f8a020;fill-opacity:1;fill-rule:nonzero;stroke:none" transform="matrix(0.13333333,0,0,-0.13333333,0,666.66667)" />
      <path id="path81" d="m 4580.59,3745.67 c 0,90.39 -73.28,163.68 -163.68,163.68 -90.39,0 -163.67,-73.29 -163.67,-163.68 0,-90.4 73.28,-163.69 163.67,-163.69 90.4,0 163.68,73.29 163.68,163.69" style="fill:#423f9f;fill-opacity:1;fill-rule:nonzero;stroke:none" transform="matrix(0.13333333,0,0,-0.13333333,0,666.66667)" />
      <path id="path82" d="m 4498.76,3745.67 c 0,45.2 -36.64,81.84 -81.85,81.84 -45.19,0 -81.84,-36.64 -81.84,-81.84 0,-45.2 36.65,-81.84 81.84,-81.84 45.21,0 81.85,36.64 81.85,81.84" style="fill:#f8a020;fill-opacity:1;fill-rule:nonzero;stroke:none" transform="matrix(0.13333333,0,0,-0.13333333,0,666.66667)" />
      <path id="path83" d="m 4397.56,3403.61 -206.28,-206.29 c -12.27,-12.26 -32.15,-12.26 -44.42,0 l -206.29,206.29 c -19.78,19.79 -5.77,53.62 22.21,53.62 h 412.58 c 27.98,0 41.99,-33.83 22.2,-53.62" style="fill:#423f9f;fill-opacity:1;fill-rule:nonzero;stroke:none" transform="matrix(0.13333333,0,0,-0.13333333,0,666.66667)" />
      </g></svg>