<?xml version='1.0' encoding='utf-8'?>
<svg xmlns="http://www.w3.org/2000/svg" version="1.1" width="187.282" height="233.538" viewBox="575.149 76.719 187.282 233.538"><g id="object"><path id="path163" d="m 5673.23,3704.04 h -547.76 v 383.42 h 164.33 c 211.74,0 383.43,-171.69 383.43,-383.42" style="fill:#fabb34;fill-opacity:1;fill-rule:nonzero;stroke:none" transform="matrix(0.13333333,0,0,-0.13333333,0,666.66667)" />
      <path id="path164" d="m 5563.68,3704.04 h -438.21 v 164.32 h 41.49 c 148.8,0 291.5,-59.11 396.72,-164.32 v 0" style="fill:#30286c;fill-opacity:1;fill-rule:nonzero;stroke:none" transform="matrix(0.13333333,0,0,-0.13333333,0,666.66667)" />
      <path id="path165" d="m 4764.57,3046.73 h -405.95 v 747.98 c 0,161.68 131.07,292.75 292.75,292.75 h 474.1 v -679.82 c 0,-199.32 -161.58,-360.91 -360.9,-360.91" style="fill:#ef2f48;fill-opacity:1;fill-rule:nonzero;stroke:none" transform="matrix(0.13333333,0,0,-0.13333333,0,666.66667)" />
      <path id="path166" d="m 4358.62,3565.26 v -518.53 h 405.95 c 199.32,0 360.9,161.59 360.9,360.91 v 157.62 h -766.85" style="fill:#ef2f48;fill-opacity:1;fill-rule:nonzero;stroke:none" transform="matrix(0.13333333,0,0,-0.13333333,0,666.66667)" />
      <path id="path167" d="m 4358.62,3565.26 v -354.2 h 328.65 c 136.16,0 246.53,110.37 246.53,246.53 v 107.67 h -575.18" style="fill:#30286c;fill-opacity:1;fill-rule:nonzero;stroke:none" transform="matrix(0.13333333,0,0,-0.13333333,0,666.66667)" />
      <path id="path168" d="m 4961.15,3868.36 c 0,90.76 -73.58,164.33 -164.33,164.33 -90.75,0 -164.32,-73.57 -164.32,-164.33 0,-90.75 73.57,-164.32 164.32,-164.32 90.75,0 164.33,73.57 164.33,164.32" style="fill:#faf4eb;fill-opacity:1;fill-rule:nonzero;stroke:none" transform="matrix(0.13333333,0,0,-0.13333333,0,666.66667)" />
      <path id="path169" d="m 4851.6,3868.36 c 0,30.26 -24.52,54.78 -54.78,54.78 -30.25,0 -54.77,-24.52 -54.77,-54.78 0,-30.25 24.52,-54.77 54.77,-54.77 30.26,0 54.78,24.52 54.78,54.77" style="fill:#30286c;fill-opacity:1;fill-rule:nonzero;stroke:none" transform="matrix(0.13333333,0,0,-0.13333333,0,666.66667)" />
      <path id="path170" d="m 4577.72,3046.73 h -219.1 v -328.66 h 328.65 l -109.55,328.66" style="fill:#30286c;fill-opacity:1;fill-rule:nonzero;stroke:none" transform="matrix(0.13333333,0,0,-0.13333333,0,666.66667)" />
      <path id="path171" d="m 5128.04,4087.46 -395.35,282.4 c -34.3,24.5 -81.93,-0.02 -81.93,-42.17 v -240.23 h 477.28" style="fill:#30286c;fill-opacity:1;fill-rule:nonzero;stroke:none" transform="matrix(0.13333333,0,0,-0.13333333,0,666.66667)" />
      </g></svg>