<?xml version='1.0' encoding='utf-8'?>
<svg xmlns="http://www.w3.org/2000/svg" version="1.1" width="126.177" height="61.953" viewBox="502.163 244.740 126.177 61.953"><g id="object"><path id="path189" d="m 4078.82,3119.45 h -107.04 c -88.68,0 -160.56,-71.89 -160.56,-160.57 v 0 h 428.17 v 0 c 0,88.68 -71.89,160.57 -160.57,160.57" style="fill:#fab20b;fill-opacity:1;fill-rule:nonzero;stroke:none" transform="matrix(0.13333333,0,0,-0.13333333,0,666.66667)" />
      <path id="path190" d="m 4507,3119.45 h -107.05 c -88.67,0 -160.56,-71.89 -160.56,-160.57 v 0 h 428.16 v 0 c 0,88.68 -71.88,160.57 -160.55,160.57" style="fill:#fab20b;fill-opacity:1;fill-rule:nonzero;stroke:none" transform="matrix(0.13333333,0,0,-0.13333333,0,666.66667)" />
      <path id="path191" d="m 4667.55,2958.88 h -856.33 v 0 c 0,-118.23 95.85,-214.08 214.08,-214.08 h 428.17 c 118.24,0 214.08,95.85 214.08,214.08 v 0" style="fill:#3ebeb9;fill-opacity:1;fill-rule:nonzero;stroke:none" transform="matrix(0.13333333,0,0,-0.13333333,0,666.66667)" />
      <path id="path192" d="m 4025.3,2744.8 214.09,214.08 214.08,-214.08 z" style="fill:#286aaa;fill-opacity:1;fill-rule:nonzero;stroke:none" transform="matrix(0.13333333,0,0,-0.13333333,0,666.66667)" />
      <path id="path193" d="m 4132.34,2744.8 107.05,107.04 107.04,-107.04 z" style="fill:#fab20b;fill-opacity:1;fill-rule:nonzero;stroke:none" transform="matrix(0.13333333,0,0,-0.13333333,0,666.66667)" />
      <path id="path194" d="m 3918.26,2958.88 107.04,160.57 107.04,-160.57 z" style="fill:#f57515;fill-opacity:1;fill-rule:nonzero;stroke:none" transform="matrix(0.13333333,0,0,-0.13333333,0,666.66667)" />
      <path id="path195" d="m 4560.51,2958.88 h -214.08 l 107.04,160.57" style="fill:#f57515;fill-opacity:1;fill-rule:nonzero;stroke:none" transform="matrix(0.13333333,0,0,-0.13333333,0,666.66667)" />
      </g></svg>