<?xml version='1.0' encoding='utf-8'?>
<svg xmlns="http://www.w3.org/2000/svg" version="1.1" width="97.802" height="183.604" viewBox="45.291 442.389 97.802 183.604"><g id="object"><path id="path52" d="m 384.684,1637.08 v 0 -321.76 c 0,-177.71 144.054,-321.761 321.757,-321.761 v 0 321.761 c 0,177.69 -144.058,321.76 -321.757,321.76" style="fill:#ee2238;fill-opacity:1;fill-rule:nonzero;stroke:none" transform="matrix(0.13333333,0,0,-0.13333333,0,666.66667)" />
      <path id="path53" d="m 1028.2,1637.08 v 0 -321.76 c 0,-177.71 -144.059,-321.761 -321.759,-321.761 v 0 321.761 c 0,177.69 144.055,321.76 321.759,321.76" style="fill:#f68b11;fill-opacity:1;fill-rule:nonzero;stroke:none" transform="matrix(0.13333333,0,0,-0.13333333,0,666.66667)" />
      <path id="path57" d="m 384.684,671.801 v 0 0 c 0,-177.699 144.054,-321.75 321.757,-321.75 v 0 0 c 0,177.687 -144.058,321.75 -321.757,321.75" style="fill:#1f254c;fill-opacity:1;fill-rule:nonzero;stroke:none" transform="matrix(0.13333333,0,0,-0.13333333,0,666.66667)" />
      <path id="path58" d="m 1028.2,671.801 v 0 0 c 0,-177.699 -144.059,-321.75 -321.759,-321.75 v 0 0 c 0,177.687 144.055,321.75 321.759,321.75" style="fill:#1f254c;fill-opacity:1;fill-rule:nonzero;stroke:none" transform="matrix(0.13333333,0,0,-0.13333333,0,666.66667)" />
      <path id="path59" d="m 384.684,993.559 v 0 0 c 0,-177.7 144.054,-321.758 321.757,-321.758 v 0 0 c 0,177.699 -144.058,321.758 -321.757,321.758" style="fill:#39b7ed;fill-opacity:1;fill-rule:nonzero;stroke:none" transform="matrix(0.13333333,0,0,-0.13333333,0,666.66667)" />
      <path id="path60" d="m 1028.2,993.559 v 0 0 c 0,-177.7 -144.059,-321.758 -321.759,-321.758 v 0 0 c 0,177.699 144.055,321.758 321.759,321.758" style="fill:#39b7ed;fill-opacity:1;fill-rule:nonzero;stroke:none" transform="matrix(0.13333333,0,0,-0.13333333,0,666.66667)" />
      </g></svg>