<?xml version='1.0' encoding='utf-8'?>
<svg xmlns="http://www.w3.org/2000/svg" version="1.1" width="106.912" height="225.551" viewBox="855.849 90.509 106.912 225.551"><g id="object"><path id="path112" d="m 6523.2,2971.14 v 0 0 c 0,-163.8 132.78,-296.59 296.59,-296.59 v 0 0 c 0,163.81 -132.79,296.59 -296.59,296.59" style="fill:#fab20b;fill-opacity:1;fill-rule:nonzero;stroke:none" transform="matrix(0.13333333,0,0,-0.13333333,0,666.66667)" />
      <path id="path113" d="m 6819.79,2674.55 -296.59,296.59 c 81.89,0 156.03,-33.19 209.76,-86.83 53.63,-53.72 86.83,-127.87 86.83,-209.76" style="fill:#f57515;fill-opacity:1;fill-rule:nonzero;stroke:none" transform="matrix(0.13333333,0,0,-0.13333333,0,666.66667)" />
      <path id="path114" d="m 6819.79,2674.55 -296.59,296.59 c 81.89,0 156.03,-33.19 209.76,-86.83 53.63,-53.72 86.83,-127.87 86.83,-209.76" style="fill:#f57515;fill-opacity:1;fill-rule:nonzero;stroke:none" transform="matrix(0.13333333,0,0,-0.13333333,0,666.66667)" />
      <path id="path115" d="m 7116.39,2971.14 v 0 0 c 0,-163.8 -132.79,-296.59 -296.6,-296.59 v 0 0 c 0,163.81 132.79,296.59 296.6,296.59" style="fill:#fab20b;fill-opacity:1;fill-rule:nonzero;stroke:none" transform="matrix(0.13333333,0,0,-0.13333333,0,666.66667)" />
      <path id="path116" d="m 6819.79,2674.55 296.6,296.59 c -81.89,0 -156.04,-33.19 -209.76,-86.83 -53.64,-53.72 -86.84,-127.87 -86.84,-209.76" style="fill:#f57515;fill-opacity:1;fill-rule:nonzero;stroke:none" transform="matrix(0.13333333,0,0,-0.13333333,0,666.66667)" />
      <path id="path117" d="m 6819.79,2674.55 296.6,296.59 c -81.89,0 -156.04,-33.19 -209.76,-86.83 -53.64,-53.72 -86.84,-127.87 -86.84,-209.76" style="fill:#f57515;fill-opacity:1;fill-rule:nonzero;stroke:none" transform="matrix(0.13333333,0,0,-0.13333333,0,666.66667)" />
      <path id="path118" d="m 6523.2,3267.75 v 0 0 c 0,-163.81 132.78,-296.61 296.59,-296.61 v 0 0.01 c 0,163.8 -132.79,296.6 -296.59,296.6" style="fill:#3ebeb9;fill-opacity:1;fill-rule:nonzero;stroke:none" transform="matrix(0.13333333,0,0,-0.13333333,0,666.66667)" />
      <path id="path119" d="m 6819.79,2971.14 -296.59,296.61 c 81.89,0 156.03,-33.21 209.76,-86.84 53.63,-53.72 86.83,-127.87 86.83,-209.77" style="fill:#f57515;fill-opacity:1;fill-rule:nonzero;stroke:none" transform="matrix(0.13333333,0,0,-0.13333333,0,666.66667)" />
      <path id="path120" d="m 6819.79,2971.14 -296.59,296.61 c 81.89,0 156.03,-33.21 209.76,-86.84 53.63,-53.72 86.83,-127.87 86.83,-209.77" style="fill:#20b1a4;fill-opacity:1;fill-rule:nonzero;stroke:none" transform="matrix(0.13333333,0,0,-0.13333333,0,666.66667)" />
      <path id="path121" d="m 7116.39,3267.75 v 0 0 c 0,-163.81 -132.79,-296.61 -296.6,-296.61 v 0 0.01 c 0,163.8 132.79,296.6 296.6,296.6" style="fill:#3ebeb9;fill-opacity:1;fill-rule:nonzero;stroke:none" transform="matrix(0.13333333,0,0,-0.13333333,0,666.66667)" />
      <path id="path122" d="m 6819.79,2971.14 296.6,296.61 c -81.89,0 -156.04,-33.21 -209.76,-86.84 -53.64,-53.72 -86.84,-127.87 -86.84,-209.77" style="fill:#f57515;fill-opacity:1;fill-rule:nonzero;stroke:none" transform="matrix(0.13333333,0,0,-0.13333333,0,666.66667)" />
      <path id="path123" d="m 6819.79,2971.14 296.6,296.61 c -81.89,0 -156.04,-33.21 -209.76,-86.84 -53.64,-53.72 -86.84,-127.87 -86.84,-209.77" style="fill:#20b1a4;fill-opacity:1;fill-rule:nonzero;stroke:none" transform="matrix(0.13333333,0,0,-0.13333333,0,666.66667)" />
      <path id="path124" d="m 6523.2,3564.34 v 0 0 c 0,-163.8 132.78,-296.59 296.59,-296.59 v 0 0 c 0,163.8 -132.79,296.59 -296.59,296.59" style="fill:#fab20b;fill-opacity:1;fill-rule:nonzero;stroke:none" transform="matrix(0.13333333,0,0,-0.13333333,0,666.66667)" />
      <path id="path125" d="m 6819.79,3267.75 -296.59,296.59 c 81.89,0 156.03,-33.2 209.76,-86.83 53.63,-53.72 86.83,-127.87 86.83,-209.76" style="fill:#f57515;fill-opacity:1;fill-rule:nonzero;stroke:none" transform="matrix(0.13333333,0,0,-0.13333333,0,666.66667)" />
      <path id="path126" d="m 6819.79,3267.75 -296.59,296.59 c 81.89,0 156.03,-33.2 209.76,-86.83 53.63,-53.72 86.83,-127.87 86.83,-209.76" style="fill:#f57515;fill-opacity:1;fill-rule:nonzero;stroke:none" transform="matrix(0.13333333,0,0,-0.13333333,0,666.66667)" />
      <path id="path127" d="m 7116.39,3564.34 v 0 0 c 0,-163.8 -132.79,-296.59 -296.6,-296.59 v 0 0 c 0,163.8 132.79,296.59 296.6,296.59" style="fill:#fab20b;fill-opacity:1;fill-rule:nonzero;stroke:none" transform="matrix(0.13333333,0,0,-0.13333333,0,666.66667)" />
      <path id="path128" d="m 6819.79,3267.75 296.6,296.59 c -81.89,0 -156.04,-33.2 -209.76,-86.83 -53.64,-53.72 -86.84,-127.87 -86.84,-209.76" style="fill:#f57515;fill-opacity:1;fill-rule:nonzero;stroke:none" transform="matrix(0.13333333,0,0,-0.13333333,0,666.66667)" />
      <path id="path129" d="m 6819.79,3267.75 296.6,296.59 c -81.89,0 -156.04,-33.2 -209.76,-86.83 -53.64,-53.72 -86.84,-127.87 -86.84,-209.76" style="fill:#f57515;fill-opacity:1;fill-rule:nonzero;stroke:none" transform="matrix(0.13333333,0,0,-0.13333333,0,666.66667)" />
      <path id="path130" d="m 7086.73,3920.26 c 0,147.43 -119.51,266.94 -266.94,266.94 -147.42,0 -266.93,-119.51 -266.93,-266.94 0,-147.43 119.51,-266.94 266.93,-266.94 147.43,0 266.94,119.51 266.94,266.94" style="fill:#3ebeb9;fill-opacity:1;fill-rule:nonzero;stroke:none" transform="matrix(0.13333333,0,0,-0.13333333,0,666.66667)" />
      <path id="path131" d="m 6997.75,3920.26 c 0,98.29 -79.67,177.96 -177.96,177.96 -98.28,0 -177.96,-79.67 -177.96,-177.96 0,-98.28 79.68,-177.96 177.96,-177.96 98.29,0 177.96,79.68 177.96,177.96" style="fill:#fefefe;fill-opacity:1;fill-rule:nonzero;stroke:none" transform="matrix(0.13333333,0,0,-0.13333333,0,666.66667)" />
      <path id="path132" d="m 6908.78,3920.26 c 0,49.14 -39.85,88.98 -88.99,88.98 -49.14,0 -88.97,-39.84 -88.97,-88.98 0,-49.14 39.83,-88.98 88.97,-88.98 49.14,0 88.99,39.84 88.99,88.98" style="fill:#286aaa;fill-opacity:1;fill-rule:nonzero;stroke:none" transform="matrix(0.13333333,0,0,-0.13333333,0,666.66667)" />
      <path id="path133" d="m 6908.78,4187.2 c 0,49.14 -39.85,88.98 -88.99,88.98 -49.14,0 -88.97,-39.84 -88.97,-88.98 0,-49.14 39.83,-88.98 88.97,-88.98 49.14,0 88.99,39.84 88.99,88.98" style="fill:#f57515;fill-opacity:1;fill-rule:nonzero;stroke:none" transform="matrix(0.13333333,0,0,-0.13333333,0,666.66667)" />
      <path id="path134" d="m 6908.78,3653.32 c 0,49.14 -39.85,88.98 -88.99,88.98 -49.14,0 -88.97,-39.84 -88.97,-88.98 0,-49.14 39.83,-88.98 88.97,-88.98 49.14,0 88.99,39.84 88.99,88.98" style="fill:#f57515;fill-opacity:1;fill-rule:nonzero;stroke:none" transform="matrix(0.13333333,0,0,-0.13333333,0,666.66667)" />
      <path id="path135" d="m 6552.86,4009.24 c -49.14,0 -88.99,-39.84 -88.99,-88.98 0,-49.14 39.85,-88.98 88.99,-88.98 49.14,0 88.97,39.84 88.97,88.98 0,49.14 -39.83,88.98 -88.97,88.98" style="fill:#f57515;fill-opacity:1;fill-rule:nonzero;stroke:none" transform="matrix(0.13333333,0,0,-0.13333333,0,666.66667)" />
      <path id="path136" d="m 7086.73,4009.24 c -49.14,0 -88.98,-39.84 -88.98,-88.98 0,-49.14 39.84,-88.98 88.98,-88.98 49.15,0 88.98,39.84 88.98,88.98 0,49.14 -39.83,88.98 -88.98,88.98" style="fill:#f57515;fill-opacity:1;fill-rule:nonzero;stroke:none" transform="matrix(0.13333333,0,0,-0.13333333,0,666.66667)" />
      <path id="path137" d="m 6568.12,3794.43 c -34.74,-34.76 -34.74,-91.09 0,-125.84 34.75,-34.75 91.09,-34.75 125.84,0 34.75,34.75 34.75,91.08 0,125.84 -34.75,34.75 -91.09,34.75 -125.84,0" style="fill:#286aaa;fill-opacity:1;fill-rule:nonzero;stroke:none" transform="matrix(0.13333333,0,0,-0.13333333,0,666.66667)" />
      <path id="path138" d="m 6945.63,4171.93 c -34.74,-34.75 -34.74,-91.08 0,-125.83 34.75,-34.75 91.09,-34.75 125.83,0 34.76,34.75 34.76,91.08 0,125.83 -34.74,34.75 -91.08,34.75 -125.83,0" style="fill:#286aaa;fill-opacity:1;fill-rule:nonzero;stroke:none" transform="matrix(0.13333333,0,0,-0.13333333,0,666.66667)" />
      <path id="path139" d="m 6693.96,4171.93 c -34.75,34.75 -91.09,34.75 -125.84,0 -34.74,-34.75 -34.74,-91.08 0,-125.83 34.75,-34.75 91.09,-34.75 125.84,0 34.75,34.75 34.75,91.08 0,125.83" style="fill:#286aaa;fill-opacity:1;fill-rule:nonzero;stroke:none" transform="matrix(0.13333333,0,0,-0.13333333,0,666.66667)" />
      <path id="path140" d="m 7071.46,3794.43 c -34.74,34.75 -91.08,34.75 -125.83,0 -34.74,-34.76 -34.74,-91.09 0,-125.84 34.75,-34.75 91.09,-34.75 125.83,0 34.76,34.75 34.76,91.08 0,125.84" style="fill:#286aaa;fill-opacity:1;fill-rule:nonzero;stroke:none" transform="matrix(0.13333333,0,0,-0.13333333,0,666.66667)" />
      </g></svg>