<?xml version='1.0' encoding='utf-8'?>
<svg xmlns="http://www.w3.org/2000/svg" version="1.1" width="82.972" height="91.844" viewBox="468.280 413.195 82.972 91.844"><g id="object"><path id="path42" d="m 3956.31,1856.04 h -266.14 l 133.08,-133.06 z" style="fill:#f57930;fill-opacity:1;fill-rule:nonzero;stroke:none" transform="matrix(0.13333333,0,0,-0.13333333,0,666.66667)" />
      <path id="path43" d="M 3690.17,1856.04 3557.1,1722.98 h 266.15 z" style="fill:#782d99;fill-opacity:1;fill-rule:nonzero;stroke:none" transform="matrix(0.13333333,0,0,-0.13333333,0,666.66667)" />
      <path id="path44" d="m 4089.39,1722.98 -133.08,133.06 -133.06,-133.06 z" style="fill:#782d99;fill-opacity:1;fill-rule:nonzero;stroke:none" transform="matrix(0.13333333,0,0,-0.13333333,0,666.66667)" />
      <path id="path45" d="m 3557.1,1722.98 c 0,-147 119.16,-266.16 266.15,-266.16 v 266.16 H 3557.1" style="fill:#f57930;fill-opacity:1;fill-rule:nonzero;stroke:none" transform="matrix(0.13333333,0,0,-0.13333333,0,666.66667)" />
      <path id="path46" d="m 3823.25,1722.98 v 0 -266.16 c 146.98,0 266.14,119.16 266.14,266.16 h -266.14" style="fill:#f9aa0c;fill-opacity:1;fill-rule:nonzero;stroke:none" transform="matrix(0.13333333,0,0,-0.13333333,0,666.66667)" />
      <path id="path47" d="m 3954.26,1456.82 h 68.6 v -68.58 c 0,-72.36 -58.66,-131.03 -131.03,-131.03 h -68.58 v 68.6 c 0,72.36 58.65,131.01 131.01,131.01" style="fill:#f9aa0c;fill-opacity:1;fill-rule:nonzero;stroke:none" transform="matrix(0.13333333,0,0,-0.13333333,0,666.66667)" />
      <path id="path48" d="m 4022.86,1456.82 -199.61,-199.61 v 68.62 c 0,72.37 58.62,130.99 130.99,130.99 h 68.62" style="fill:#f57930;fill-opacity:1;fill-rule:nonzero;stroke:none" transform="matrix(0.13333333,0,0,-0.13333333,0,666.66667)" />
      <path id="path49" d="m 3692.23,1456.82 h -68.6 v -68.58 c 0,-72.36 58.67,-131.03 131.02,-131.03 h 68.6 v 68.6 c 0,72.36 -58.66,131.01 -131.02,131.01" style="fill:#f9aa0c;fill-opacity:1;fill-rule:nonzero;stroke:none" transform="matrix(0.13333333,0,0,-0.13333333,0,666.66667)" />
      <path id="path50" d="m 3823.25,1325.83 v -68.62 l -199.62,199.61 h 68.61 c 72.38,0 131.01,-58.62 131.01,-130.99" style="fill:#782d99;fill-opacity:1;fill-rule:nonzero;stroke:none" transform="matrix(0.13333333,0,0,-0.13333333,0,666.66667)" />
      <path id="path51" d="m 3823.25,1325.83 v -68.62 l -199.62,199.61 h 68.61 c 72.38,0 131.01,-58.62 131.01,-130.99" style="fill:#f57930;fill-opacity:1;fill-rule:nonzero;stroke:none" transform="matrix(0.13333333,0,0,-0.13333333,0,666.66667)" />
      <path id="path52" d="m 4022.86,1456.82 -199.61,-199.61 v 68.62 c 0,72.37 58.62,130.99 130.99,130.99 h 68.62" style="fill:#f57930;fill-opacity:1;fill-rule:nonzero;stroke:none" transform="matrix(0.13333333,0,0,-0.13333333,0,666.66667)" />
      </g></svg>