<?xml version='1.0' encoding='utf-8'?>
<svg xmlns="http://www.w3.org/2000/svg" version="1.1" width="72.013" height="72.014" viewBox="273.991 267.320 72.013 72.014"><g id="object"><path id="path239" d="m 2099.93,2725.05 v 0 0 c 0,-124.29 100.75,-225.05 225.05,-225.05 v 0 0 c 0,124.29 -100.76,225.05 -225.05,225.05" style="fill:#ed1b29;fill-opacity:1;fill-rule:nonzero;stroke:none" transform="matrix(0.13333333,0,0,-0.13333333,0,666.66667)" />
      <path id="path240" d="m 2550.03,2725.05 v 0 0 c 0,-124.29 -100.76,-225.05 -225.05,-225.05 v 0 0 c 0,124.29 100.76,225.05 225.05,225.05" style="fill:#b91d23;fill-opacity:1;fill-rule:nonzero;stroke:none" transform="matrix(0.13333333,0,0,-0.13333333,0,666.66667)" />
      <path id="path241" d="m 2099.93,2950.1 v 0 0 c 0,-124.29 100.75,-225.05 225.05,-225.05 v 0 0 c 0,124.29 -100.76,225.05 -225.05,225.05" style="fill:#f9aa0c;fill-opacity:1;fill-rule:nonzero;stroke:none" transform="matrix(0.13333333,0,0,-0.13333333,0,666.66667)" />
      <path id="path242" d="m 2550.03,2950.1 v 0 0 c 0,-124.29 -100.76,-225.05 -225.05,-225.05 v 0 0 c 0,124.29 100.76,225.05 225.05,225.05" style="fill:#f57930;fill-opacity:1;fill-rule:nonzero;stroke:none" transform="matrix(0.13333333,0,0,-0.13333333,0,666.66667)" />
      </g></svg>