<?xml version='1.0' encoding='utf-8'?>
<svg xmlns="http://www.w3.org/2000/svg" version="1.1" width="184.777" height="273.007" viewBox="255.971 43.053 184.777 273.007"><g id="object"><path id="path67" d="m 2748.8,4495.99 -136.1,136.11 -136.11,-136.11 c -103.75,-103.75 -103.75,-271.95 0,-375.7 l 136.11,-136.11 136.1,136.11 c 103.75,103.75 103.75,271.95 0,375.7" style="fill:#fab20b;fill-opacity:1;fill-rule:nonzero;stroke:none" transform="matrix(0.13333333,0,0,-0.13333333,0,666.66667)" />
      <path id="path68" d="m 2748.8,3848.07 -136.1,136.11 -136.11,-136.11 c -103.75,-103.75 -103.75,-271.95 0,-375.7 l 136.11,-136.11 136.1,136.11 c 103.75,103.75 103.75,271.95 0,375.7" style="fill:#fab20b;fill-opacity:1;fill-rule:nonzero;stroke:none" transform="matrix(0.13333333,0,0,-0.13333333,0,666.66667)" />
      <path id="path69" d="m 2100.89,4120.29 -136.11,-136.11 136.11,-136.11 c 103.74,-103.75 271.95,-103.75 375.7,0 l 136.11,136.11 -136.11,136.11 c -103.75,103.75 -271.96,103.75 -375.7,0" style="fill:#3ebeb9;fill-opacity:1;fill-rule:nonzero;stroke:none" transform="matrix(0.13333333,0,0,-0.13333333,0,666.66667)" />
      <path id="path70" d="m 2748.8,4120.29 -136.1,-136.11 136.1,-136.11 c 103.75,-103.75 271.96,-103.75 375.7,0 l 136.11,136.11 -136.11,136.11 c -103.74,103.75 -271.95,103.75 -375.7,0" style="fill:#3ebeb9;fill-opacity:1;fill-rule:nonzero;stroke:none" transform="matrix(0.13333333,0,0,-0.13333333,0,666.66667)" />
      <path id="path71" d="m 2347.03,4442.33 h -192.48 v -192.49 c 0,-146.72 118.94,-265.66 265.66,-265.66 h 192.49 v 192.49 c 0,146.72 -118.94,265.66 -265.67,265.66" style="fill:#1b527c;fill-opacity:1;fill-rule:nonzero;stroke:none" transform="matrix(0.13333333,0,0,-0.13333333,0,666.66667)" />
      <path id="path72" d="M 2805.18,3984.18 H 2612.7 V 3791.7 c 0,-146.73 118.94,-265.67 265.66,-265.67 h 192.48 v 192.49 c 0,146.72 -118.94,265.66 -265.66,265.66" style="fill:#1b527c;fill-opacity:1;fill-rule:nonzero;stroke:none" transform="matrix(0.13333333,0,0,-0.13333333,0,666.66667)" />
      <path id="path73" d="m 2154.55,3718.52 v -192.49 h 192.48 c 146.73,0 265.67,118.94 265.67,265.67 v 192.48 h -192.49 c -146.72,0 -265.66,-118.94 -265.66,-265.66" style="fill:#286aaa;fill-opacity:1;fill-rule:nonzero;stroke:none" transform="matrix(0.13333333,0,0,-0.13333333,0,666.66667)" />
      <path id="path74" d="m 2612.7,4176.67 v -192.49 h 192.48 c 146.72,0 265.66,118.94 265.66,265.66 v 192.49 h -192.48 c -146.72,0 -265.66,-118.94 -265.66,-265.66" style="fill:#286aaa;fill-opacity:1;fill-rule:nonzero;stroke:none" transform="matrix(0.13333333,0,0,-0.13333333,0,666.66667)" />
      <path id="path75" d="m 2855.67,3984.18 c 0,134.19 -108.79,242.97 -242.97,242.97 -134.19,0 -242.97,-108.78 -242.97,-242.97 0,-134.19 108.78,-242.97 242.97,-242.97 134.18,0 242.97,108.78 242.97,242.97" style="fill:#fefefe;fill-opacity:1;fill-rule:nonzero;stroke:none" transform="matrix(0.13333333,0,0,-0.13333333,0,666.66667)" />
      <path id="path76" d="m 2774.67,3984.18 c 0,89.46 -72.52,161.98 -161.97,161.98 -89.46,0 -161.99,-72.52 -161.99,-161.98 0,-89.46 72.53,-161.98 161.99,-161.98 89.45,0 161.97,72.52 161.97,161.98" style="fill:#3ebeb9;fill-opacity:1;fill-rule:nonzero;stroke:none" transform="matrix(0.13333333,0,0,-0.13333333,0,666.66667)" />
      <path id="path77" d="m 2693.68,3984.18 c 0,44.73 -36.26,80.99 -80.98,80.99 -44.73,0 -80.99,-36.26 -80.99,-80.99 0,-44.73 36.26,-80.99 80.99,-80.99 44.72,0 80.98,36.26 80.98,80.99" style="fill:#fab20b;fill-opacity:1;fill-rule:nonzero;stroke:none" transform="matrix(0.13333333,0,0,-0.13333333,0,666.66667)" />
      <path id="path78" d="m 2207.75,3336.26 v 0 0 c 0,-208.08 168.69,-376.78 376.77,-376.78 v 0 0 c 0,208.1 -168.68,376.78 -376.77,376.78" style="fill:#3ebeb9;fill-opacity:1;fill-rule:nonzero;stroke:none" transform="matrix(0.13333333,0,0,-0.13333333,0,666.66667)" />
      <path id="path79" d="m 2584.45,2959.48 c -208.14,0.09 -376.69,168.73 -376.69,376.78 l 376.69,-376.78" style="fill:#e41c2a;fill-opacity:1;fill-rule:nonzero;stroke:none" transform="matrix(0.13333333,0,0,-0.13333333,0,666.66667)" />
      <path id="path80" d="m 2584.45,2959.48 c -208.14,0.09 -376.69,168.73 -376.69,376.78 l 376.69,-376.78" style="fill:#20b1a4;fill-opacity:1;fill-rule:nonzero;stroke:none" transform="matrix(0.13333333,0,0,-0.13333333,0,666.66667)" />
      <path id="path81" d="m 2974.01,3336.26 v 0 0 c 0,-208.08 -168.69,-376.78 -376.78,-376.78 v 0 0 c 0,208.1 168.69,376.78 376.78,376.78" style="fill:#3ebeb9;fill-opacity:1;fill-rule:nonzero;stroke:none" transform="matrix(0.13333333,0,0,-0.13333333,0,666.66667)" />
      <path id="path82" d="m 2597.3,2959.48 c 208.15,0.09 376.7,168.73 376.7,376.78 l -376.7,-376.78" style="fill:#e41c2a;fill-opacity:1;fill-rule:nonzero;stroke:none" transform="matrix(0.13333333,0,0,-0.13333333,0,666.66667)" />
      <path id="path83" d="m 2597.3,2959.48 c 208.15,0.09 376.7,168.73 376.7,376.78 l -376.7,-376.78" style="fill:#20b1a4;fill-opacity:1;fill-rule:nonzero;stroke:none" transform="matrix(0.13333333,0,0,-0.13333333,0,666.66667)" />
      <path id="path220" d="m 2596.21,3014.99 v 0 c -94.01,0 -170.22,-76.21 -170.22,-170.22 v 0 c 0,-94.01 76.21,-170.22 170.22,-170.22 v 0 c 94.01,0 170.22,76.21 170.22,170.22 v 0 c 0,94.01 -76.21,170.22 -170.22,170.22" style="fill:#286aaa;fill-opacity:1;fill-rule:nonzero;stroke:none" transform="matrix(0.13333333,0,0,-0.13333333,0,666.66667)" />
      <path id="path221" d="m 2596.21,2901.51 v 0 c -31.34,0 -56.74,-25.4 -56.74,-56.74 v 0 c 0,-31.34 25.4,-56.74 56.74,-56.74 v 0 c 31.34,0 56.74,25.4 56.74,56.74 v 0 c 0,31.34 -25.4,56.74 -56.74,56.74" style="fill:#fab20b;fill-opacity:1;fill-rule:nonzero;stroke:none" transform="matrix(0.13333333,0,0,-0.13333333,0,666.66667)" />
      <path id="path235" d="m 1998.03,3183 c 84.24,0 152.53,-68.29 152.53,-152.53 0,-84.25 -68.29,-152.54 -152.53,-152.54 V 3183" style="fill:#fab20b;fill-opacity:1;fill-rule:nonzero;stroke:none" transform="matrix(0.13333333,0,0,-0.13333333,0,666.66667)" />
      <path id="path236" d="m 1998.03,3106.74 c 42.12,0 76.26,-34.15 76.26,-76.27 0,-42.12 -34.14,-76.27 -76.26,-76.27 v 152.54" style="fill:#286aaa;fill-opacity:1;fill-rule:nonzero;stroke:none" transform="matrix(0.13333333,0,0,-0.13333333,0,666.66667)" />
      </g></svg>