<?xml version='1.0' encoding='utf-8'?>
<svg xmlns="http://www.w3.org/2000/svg" version="1.1" width="228.728" height="291.239" viewBox="392.512 65.547 228.728 291.239"><g id="object"><path id="path56" d="m 3698.05,2369.11 h 349.06 L 3872.57,3765.3 Z" style="fill:#1f3662;fill-opacity:1;fill-rule:nonzero;stroke:none" transform="matrix(0.13333333,0,0,-0.13333333,0,666.66667)" />
      <path id="path57" d="m 4570.68,3765.3 c 0,-385.55 -312.56,-698.1 -698.11,-698.1 -385.54,0 -698.09,312.55 -698.09,698.1 0,385.55 312.55,698.1 698.09,698.1 385.55,0 698.11,-312.55 698.11,-698.1" style="fill:#f68b11;fill-opacity:1;fill-rule:nonzero;stroke:none" transform="matrix(0.13333333,0,0,-0.13333333,0,666.66667)" />
      <path id="path58" d="m 3872.57,4463.4 c 385.55,0 698.11,-312.55 698.11,-698.1 0,-385.55 -312.56,-698.1 -698.11,-698.1 v 1396.2" style="fill:#ee1a7c;fill-opacity:1;fill-rule:nonzero;stroke:none" transform="matrix(0.13333333,0,0,-0.13333333,0,666.66667)" />
      <path id="path59" d="m 4361.25,3765.3 c 0,-269.88 -218.79,-488.67 -488.68,-488.67 -269.88,0 -488.66,218.79 -488.66,488.67 0,269.89 218.78,488.67 488.66,488.67 269.89,0 488.68,-218.78 488.68,-488.67" style="fill:#1f3662;fill-opacity:1;fill-rule:nonzero;stroke:none" transform="matrix(0.13333333,0,0,-0.13333333,0,666.66667)" />
      <path id="path60" d="m 3872.57,4253.97 c 269.89,0 488.68,-218.78 488.68,-488.67 0,-269.88 -218.79,-488.67 -488.68,-488.67 v 977.34" style="fill:#f68b11;fill-opacity:1;fill-rule:nonzero;stroke:none" transform="matrix(0.13333333,0,0,-0.13333333,0,666.66667)" />
      <path id="path61" d="m 4151.81,3765.3 c 0,-154.22 -125.02,-279.24 -279.24,-279.24 -154.21,0 -279.23,125.02 -279.23,279.24 0,154.22 125.02,279.24 279.23,279.24 154.22,0 279.24,-125.02 279.24,-279.24" style="fill:#f68b11;fill-opacity:1;fill-rule:nonzero;stroke:none" transform="matrix(0.13333333,0,0,-0.13333333,0,666.66667)" />
      <path id="path62" d="m 3872.57,4044.54 c 154.22,0 279.24,-125.02 279.24,-279.24 0,-154.22 -125.02,-279.24 -279.24,-279.24 v 558.48" style="fill:#ee1a7c;fill-opacity:1;fill-rule:nonzero;stroke:none" transform="matrix(0.13333333,0,0,-0.13333333,0,666.66667)" />
      <path id="path107" d="m 3130.85,2369.11 h 281.08 l -140.55,140.54 z" style="fill:#f68b11;fill-opacity:1;fill-rule:nonzero;stroke:none" transform="matrix(0.13333333,0,0,-0.13333333,0,666.66667)" />
      <path id="path108" d="m 3443.16,2369.11 h 281.07 l -140.54,140.54 z" style="fill:#f68b11;fill-opacity:1;fill-rule:nonzero;stroke:none" transform="matrix(0.13333333,0,0,-0.13333333,0,666.66667)" />
      <path id="path109" d="M 4020.92,2369.11 H 4302 l -140.54,140.54 z" style="fill:#f68b11;fill-opacity:1;fill-rule:nonzero;stroke:none" transform="matrix(0.13333333,0,0,-0.13333333,0,666.66667)" />
      <path id="path110" d="m 3724.23,2369.11 h 281.08 l -140.54,140.54 z" style="fill:#f68b11;fill-opacity:1;fill-rule:nonzero;stroke:none" transform="matrix(0.13333333,0,0,-0.13333333,0,666.66667)" />
      <path id="path111" d="m 4333.23,2369.11 h 281.07 l -140.53,140.54 z" style="fill:#f68b11;fill-opacity:1;fill-rule:nonzero;stroke:none" transform="matrix(0.13333333,0,0,-0.13333333,0,666.66667)" />
      <path id="path143" d="m 3163.37,2892.68 v 0 174.52 h 174.52 v 0 c 0,-96.38 -78.14,-174.52 -174.52,-174.52" style="fill:#f68b11;fill-opacity:1;fill-rule:nonzero;stroke:none" transform="matrix(0.13333333,0,0,-0.13333333,0,666.66667)" />
      <path id="path145" d="m 3163.37,4376.14 c 0,-48.19 -39.07,-87.26 -87.27,-87.26 -48.19,0 -87.26,39.07 -87.26,87.26 0,48.19 39.07,87.26 87.26,87.26 48.2,0 87.27,-39.07 87.27,-87.26" style="fill:#ee1a7c;fill-opacity:1;fill-rule:nonzero;stroke:none" transform="matrix(0.13333333,0,0,-0.13333333,0,666.66667)" />
      </g></svg>