<?xml version='1.0' encoding='utf-8'?>
<svg xmlns="http://www.w3.org/2000/svg" version="1.1" width="153.320" height="197.482" viewBox="782.715 415.649 153.320 197.482"><g id="object"><path id="path144" d="m 6114.09,777.73 v 0 0 c 0,-182.929 148.29,-331.218 331.22,-331.218 v 0 0 c 0,182.929 -148.29,331.218 -331.22,331.218" style="fill:#ef2f48;fill-opacity:1;fill-rule:nonzero;stroke:none" transform="matrix(0.13333333,0,0,-0.13333333,0,666.66667)" />
      <path id="path145" d="m 6776.53,777.73 v 0 0 c 0,-182.929 -148.29,-331.218 -331.22,-331.218 v 0 0 c 0,182.929 148.29,331.218 331.22,331.218" style="fill:#f46f1f;fill-opacity:1;fill-rule:nonzero;stroke:none" transform="matrix(0.13333333,0,0,-0.13333333,0,666.66667)" />
      <path id="path146" d="m 6373.56,1098.95 c 0,-96.23 -78.02,-174.251 -174.25,-174.251 -96.23,0 -174.24,78.021 -174.24,174.251 0,96.23 78.01,174.24 174.24,174.24 96.23,0 174.25,-78.01 174.25,-174.24" style="fill:#ef2f48;fill-opacity:1;fill-rule:nonzero;stroke:none" transform="matrix(0.13333333,0,0,-0.13333333,0,666.66667)" />
      <path id="path147" d="m 6851.05,1576.44 c 0,-96.23 -78.01,-174.24 -174.24,-174.24 -96.23,0 -174.25,78.01 -174.25,174.24 0,96.23 78.02,174.25 174.25,174.25 96.23,0 174.24,-78.02 174.24,-174.25" style="fill:#ef2f48;fill-opacity:1;fill-rule:nonzero;stroke:none" transform="matrix(0.13333333,0,0,-0.13333333,0,666.66667)" />
      <path id="path148" d="m 6676.81,1273.19 c 96.23,0 174.24,-78.01 174.24,-174.24 0,-96.23 -78.01,-174.251 -174.24,-174.251 -96.23,0 -174.25,78.021 -174.25,174.251 0,96.23 78.02,174.24 174.25,174.24" style="fill:#ef2f48;fill-opacity:1;fill-rule:nonzero;stroke:none" transform="matrix(0.13333333,0,0,-0.13333333,0,666.66667)" />
      <path id="path149" d="m 6199.31,1750.69 c 96.23,0 174.25,-78.02 174.25,-174.25 0,-96.23 -78.02,-174.24 -174.25,-174.24 -96.23,0 -174.24,78.01 -174.24,174.24 0,96.23 78.01,174.25 174.24,174.25" style="fill:#ef2f48;fill-opacity:1;fill-rule:nonzero;stroke:none" transform="matrix(0.13333333,0,0,-0.13333333,0,666.66667)" />
      <path id="path150" d="m 6710.29,1572.65 c 146.34,0 264.97,-118.63 264.97,-264.97 0,-146.35 -118.63,-264.98 -264.97,-264.98 -146.35,0 -264.98,118.63 -264.98,264.98 0,146.34 118.63,264.97 264.98,264.97" style="fill:#30286c;fill-opacity:1;fill-rule:nonzero;stroke:none" transform="matrix(0.13333333,0,0,-0.13333333,0,666.66667)" />
      <path id="path151" d="m 6180.33,1572.65 c 146.35,0 264.98,-118.63 264.98,-264.97 0,-146.35 -118.63,-264.98 -264.98,-264.98 -146.34,0 -264.97,118.63 -264.97,264.98 0,146.34 118.63,264.97 264.97,264.97" style="fill:#30286c;fill-opacity:1;fill-rule:nonzero;stroke:none" transform="matrix(0.13333333,0,0,-0.13333333,0,666.66667)" />
      <path id="path152" d="m 6710.29,1042.7 c 0,-146.341 -118.64,-264.97 -264.98,-264.97 -146.35,0 -264.98,118.629 -264.98,264.97 0,146.35 118.63,264.98 264.98,264.98 146.34,0 264.98,-118.63 264.98,-264.98" style="fill:#30286c;fill-opacity:1;fill-rule:nonzero;stroke:none" transform="matrix(0.13333333,0,0,-0.13333333,0,666.66667)" />
      <path id="path153" d="m 6710.29,1572.65 c 0,-146.33 -118.64,-264.97 -264.98,-264.97 -146.35,0 -264.98,118.64 -264.98,264.97 0,146.35 118.63,264.98 264.98,264.98 146.34,0 264.98,-118.63 264.98,-264.98" style="fill:#30286c;fill-opacity:1;fill-rule:nonzero;stroke:none" transform="matrix(0.13333333,0,0,-0.13333333,0,666.66667)" />
      <path id="path154" d="m 6710.29,1572.65 c 146.34,0 264.97,-118.63 264.97,-264.97 0,-146.35 -118.63,-264.98 -264.97,-264.98 -146.35,0 -264.98,118.63 -264.98,264.98 0,146.34 118.63,264.97 264.98,264.97" style="fill:#30286c;fill-opacity:1;fill-rule:nonzero;stroke:none" transform="matrix(0.13333333,0,0,-0.13333333,0,666.66667)" />
      <path id="path155" d="m 6180.33,1572.65 c 146.35,0 264.98,-118.63 264.98,-264.97 0,-146.35 -118.63,-264.98 -264.98,-264.98 -146.34,0 -264.97,118.63 -264.97,264.98 0,146.34 118.63,264.97 264.97,264.97" style="fill:#30286c;fill-opacity:1;fill-rule:nonzero;stroke:none" transform="matrix(0.13333333,0,0,-0.13333333,0,666.66667)" />
      <path id="path156" d="m 6710.29,1042.7 c 0,-146.341 -118.64,-264.97 -264.98,-264.97 -146.35,0 -264.98,118.629 -264.98,264.97 0,146.35 118.63,264.98 264.98,264.98 146.34,0 264.98,-118.63 264.98,-264.98" style="fill:#30286c;fill-opacity:1;fill-rule:nonzero;stroke:none" transform="matrix(0.13333333,0,0,-0.13333333,0,666.66667)" />
      <path id="path157" d="m 6710.29,1572.65 c 0,-146.33 -118.64,-264.97 -264.98,-264.97 -146.35,0 -264.98,118.64 -264.98,264.97 0,146.35 118.63,264.98 264.98,264.98 146.34,0 264.98,-118.63 264.98,-264.98" style="fill:#30286c;fill-opacity:1;fill-rule:nonzero;stroke:none" transform="matrix(0.13333333,0,0,-0.13333333,0,666.66667)" />
      <path id="path158" d="m 6710.29,1440.17 c 73.16,0 132.48,-59.31 132.48,-132.49 0,-73.17 -59.32,-132.49 -132.48,-132.49 -73.17,0 -132.49,59.32 -132.49,132.49 0,73.18 59.32,132.49 132.49,132.49" style="fill:#fabb34;fill-opacity:1;fill-rule:nonzero;stroke:none" transform="matrix(0.13333333,0,0,-0.13333333,0,666.66667)" />
      <path id="path159" d="m 6180.33,1440.17 c 73.17,0 132.49,-59.31 132.49,-132.49 0,-73.17 -59.32,-132.49 -132.49,-132.49 -73.17,0 -132.48,59.32 -132.48,132.49 0,73.18 59.31,132.49 132.48,132.49" style="fill:#fabb34;fill-opacity:1;fill-rule:nonzero;stroke:none" transform="matrix(0.13333333,0,0,-0.13333333,0,666.66667)" />
      <path id="path160" d="m 6577.8,1042.7 c 0,-73.161 -59.32,-132.489 -132.49,-132.489 -73.17,0 -132.49,59.328 -132.49,132.489 0,73.18 59.32,132.49 132.49,132.49 73.17,0 132.49,-59.31 132.49,-132.49" style="fill:#fabb34;fill-opacity:1;fill-rule:nonzero;stroke:none" transform="matrix(0.13333333,0,0,-0.13333333,0,666.66667)" />
      <path id="path161" d="m 6577.8,1572.65 c 0,-73.16 -59.32,-132.48 -132.49,-132.48 -73.17,0 -132.49,59.32 -132.49,132.48 0,73.18 59.32,132.49 132.49,132.49 73.17,0 132.49,-59.31 132.49,-132.49" style="fill:#fabb34;fill-opacity:1;fill-rule:nonzero;stroke:none" transform="matrix(0.13333333,0,0,-0.13333333,0,666.66667)" />
      <path id="path162" d="m 6511.55,1307.68 c 0,-36.58 -29.66,-66.25 -66.24,-66.25 -36.58,0 -66.24,29.67 -66.24,66.25 0,36.58 29.66,66.24 66.24,66.24 36.58,0 66.24,-29.66 66.24,-66.24" style="fill:#ef2f48;fill-opacity:1;fill-rule:nonzero;stroke:none" transform="matrix(0.13333333,0,0,-0.13333333,0,666.66667)" />
      </g></svg>