<?xml version='1.0' encoding='utf-8'?>
<svg xmlns="http://www.w3.org/2000/svg" version="1.1" width="143.791" height="110.844" viewBox="216.032 520.893 143.791 110.844"><g id="object"><path id="path34" d="m 2159.45,1048.3 c 0,-136.48 -110.63,-247.109 -247.11,-247.109 v 0 c -136.47,0 -247.1,110.629 -247.1,247.109 h 494.21" style="fill:#ee2238;fill-opacity:1;fill-rule:nonzero;stroke:none" transform="matrix(0.13333333,0,0,-0.13333333,0,666.66667)" />
      <path id="path35" d="m 2159.45,801.191 c 0,-136.48 -110.63,-247.109 -247.11,-247.109 v 0 c -136.47,0 -247.1,110.629 -247.1,247.109 h 494.21" style="fill:#f8a020;fill-opacity:1;fill-rule:nonzero;stroke:none" transform="matrix(0.13333333,0,0,-0.13333333,0,666.66667)" />
      <path id="path36" d="m 2035.9,801.191 c 0,-68.242 -55.32,-123.562 -123.56,-123.562 v 0 c -68.23,0 -123.55,55.32 -123.55,123.562 h 247.11" style="fill:#423f9f;fill-opacity:1;fill-rule:nonzero;stroke:none" transform="matrix(0.13333333,0,0,-0.13333333,0,666.66667)" />
      <path id="path37" d="m 2035.9,1048.3 c 0,-68.241 -55.32,-123.562 -123.56,-123.562 v 0 c -68.23,0 -123.55,55.321 -123.55,123.562 h 247.11" style="fill:#423f9f;fill-opacity:1;fill-rule:nonzero;stroke:none" transform="matrix(0.13333333,0,0,-0.13333333,0,666.66667)" />
      <path id="path38" d="m 2653.67,1048.3 c 0,-136.48 -110.63,-247.109 -247.11,-247.109 v 0 c -136.47,0 -247.11,110.629 -247.11,247.109 h 494.22" style="fill:#423f9f;fill-opacity:1;fill-rule:nonzero;stroke:none" transform="matrix(0.13333333,0,0,-0.13333333,0,666.66667)" />
      <path id="path39" d="m 2653.67,801.191 c 0,-136.48 -110.63,-247.109 -247.11,-247.109 v 0 c -136.47,0 -247.11,110.629 -247.11,247.109 h 494.22" style="fill:#ee2238;fill-opacity:1;fill-rule:nonzero;stroke:none" transform="matrix(0.13333333,0,0,-0.13333333,0,666.66667)" />
      <path id="path40" d="m 2530.12,801.191 c 0,-68.242 -55.32,-123.562 -123.56,-123.562 v 0 c -68.23,0 -123.55,55.32 -123.55,123.562 h 247.11" style="fill:#f8a020;fill-opacity:1;fill-rule:nonzero;stroke:none" transform="matrix(0.13333333,0,0,-0.13333333,0,666.66667)" />
      <path id="path41" d="m 2159.45,554.082 c 0,-136.48 -110.63,-247.113 -247.11,-247.113 v 0 c -136.47,0 -247.1,110.633 -247.1,247.113 h 494.21" style="fill:#ee2238;fill-opacity:1;fill-rule:nonzero;stroke:none" transform="matrix(0.13333333,0,0,-0.13333333,0,666.66667)" />
      <path id="path42" d="m 2035.9,554.082 c 0,-68.242 -55.32,-123.562 -123.56,-123.562 v 0 c -68.23,0 -123.55,55.32 -123.55,123.562 h 247.11" style="fill:#423f9f;fill-opacity:1;fill-rule:nonzero;stroke:none" transform="matrix(0.13333333,0,0,-0.13333333,0,666.66667)" />
      <path id="path43" d="m 2653.67,554.082 c 0,-136.48 -110.63,-247.113 -247.11,-247.113 v 0 c -136.47,0 -247.11,110.633 -247.11,247.113 h 494.22" style="fill:#f8a020;fill-opacity:1;fill-rule:nonzero;stroke:none" transform="matrix(0.13333333,0,0,-0.13333333,0,666.66667)" />
      <path id="path44" d="m 2530.12,554.082 c 0,-68.242 -55.32,-123.562 -123.56,-123.562 v 0 c -68.23,0 -123.55,55.32 -123.55,123.562 h 247.11" style="fill:#423f9f;fill-opacity:1;fill-rule:nonzero;stroke:none" transform="matrix(0.13333333,0,0,-0.13333333,0,666.66667)" />
      <path id="path45" d="m 2530.12,1048.3 c 0,-68.241 -55.32,-123.562 -123.56,-123.562 v 0 c -68.23,0 -123.55,55.321 -123.55,123.562 h 247.11" style="fill:#ee2238;fill-opacity:1;fill-rule:nonzero;stroke:none" transform="matrix(0.13333333,0,0,-0.13333333,0,666.66667)" />
      </g></svg>