<?xml version='1.0' encoding='utf-8'?>
<svg xmlns="http://www.w3.org/2000/svg" version="1.1" width="84.918" height="103.213" viewBox="44.343 523.265 84.918 103.213"><g id="object"><path id="path99" d="M 377.57,893.289 V 619.852 C 377.57,468.84 499.996,346.41 651.012,346.41 v 0 273.442 c 0,151.019 -122.422,273.437 -273.438,273.437 h -0.004" style="fill:#ef2c8f;fill-opacity:1;fill-rule:nonzero;stroke:none" transform="matrix(0.13333333,0,0,-0.13333333,0,666.66667)" />
      <path id="path100" d="m 924.453,893.289 h -0.004 c -151.015,0 -273.437,-122.418 -273.437,-273.437 v -273.442 0 c 151.015,0 273.441,122.43 273.441,273.442 v 273.437" style="fill:#2c314f;fill-opacity:1;fill-rule:nonzero;stroke:none" transform="matrix(0.13333333,0,0,-0.13333333,0,666.66667)" />
      <path id="path101" d="m 714.836,966.66 c 0,-35.262 -28.586,-63.84 -63.844,-63.84 -35.262,0 -63.847,28.578 -63.847,63.84 0,35.26 28.585,63.85 63.847,63.85 35.258,0 63.844,-28.59 63.844,-63.85" style="fill:#37b5e5;fill-opacity:1;fill-rule:nonzero;stroke:none" transform="matrix(0.13333333,0,0,-0.13333333,0,666.66667)" />
      </g></svg>