<?xml version='1.0' encoding='utf-8'?>
<svg xmlns="http://www.w3.org/2000/svg" version="1.1" width="78.887" height="62.165" viewBox="765.101 241.112 78.887 62.165"><g id="object"><path id="path125" d="m 5783.26,3021.25 v 0 0 c 0,-138.53 112.29,-250.83 250.82,-250.83 v 0 0 c 0,138.53 -112.3,250.83 -250.82,250.83" style="fill:#3f7cc8;fill-opacity:1;fill-rule:nonzero;stroke:none" transform="matrix(0.13333333,0,0,-0.13333333,0,666.66667)" />
      <path id="path126" d="m 6284.91,3021.25 v 0 0 c 0,-138.53 -112.31,-250.83 -250.83,-250.83 v 0 0 c 0,138.53 112.3,250.83 250.83,250.83" style="fill:#3f7cc8;fill-opacity:1;fill-rule:nonzero;stroke:none" transform="matrix(0.13333333,0,0,-0.13333333,0,666.66667)" />
      <path id="path127" d="m 6104.32,3076.42 c 0,38.79 -31.45,70.24 -70.24,70.24 -38.79,0 -70.24,-31.45 -70.24,-70.24 0,-38.79 31.45,-70.24 70.24,-70.24 38.79,0 70.24,31.45 70.24,70.24" style="fill:#2c3491;fill-opacity:1;fill-rule:nonzero;stroke:none" transform="matrix(0.13333333,0,0,-0.13333333,0,666.66667)" />
      </g></svg>