<?xml version='1.0' encoding='utf-8'?>
<svg xmlns="http://www.w3.org/2000/svg" version="1.1" width="89.424" height="82.972" viewBox="371.253 248.533 89.424 82.972"><g id="object"><path id="path24" d="m 3119.74,2800.66 c -160.33,0 -290.34,130.01 -290.34,290.34 80.17,0 152.75,-32.5 205.3,-85.04 52.54,-52.55 85.04,-125.13 85.04,-205.3" style="fill:#592587;fill-opacity:1;fill-rule:nonzero;stroke:none" transform="matrix(0.13333333,0,0,-0.13333333,0,666.66667)" />
      <path id="path25" d="m 3119.74,2800.66 c -160.33,0 -290.34,130.01 -290.34,290.34 l 290.34,-290.34" style="fill:#782d99;fill-opacity:1;fill-rule:nonzero;stroke:none" transform="matrix(0.13333333,0,0,-0.13333333,0,666.66667)" />
      <path id="path26" d="m 3119.74,2800.66 c 160.33,0 290.34,130.01 290.34,290.34 -80.16,0 -152.74,-32.5 -205.29,-85.04 -52.54,-52.55 -85.05,-125.13 -85.05,-205.3" style="fill:#592587;fill-opacity:1;fill-rule:nonzero;stroke:none" transform="matrix(0.13333333,0,0,-0.13333333,0,666.66667)" />
      <path id="path27" d="m 3119.74,2800.66 c 160.33,0 290.34,130.01 290.34,290.34 l -290.34,-290.34" style="fill:#782d99;fill-opacity:1;fill-rule:nonzero;stroke:none" transform="matrix(0.13333333,0,0,-0.13333333,0,666.66667)" />
      <path id="path28" d="m 3119.74,2558.71 c -160.33,0 -290.34,130.01 -290.34,290.34 80.17,0 152.75,-32.5 205.3,-85.04 52.54,-52.55 85.04,-125.14 85.04,-205.3" style="fill:#592587;fill-opacity:1;fill-rule:nonzero;stroke:none" transform="matrix(0.13333333,0,0,-0.13333333,0,666.66667)" />
      <path id="path29" d="m 3119.74,2558.71 c -160.33,0 -290.34,130.01 -290.34,290.34 l 290.34,-290.34" style="fill:#782d99;fill-opacity:1;fill-rule:nonzero;stroke:none" transform="matrix(0.13333333,0,0,-0.13333333,0,666.66667)" />
      <path id="path30" d="m 3119.74,2558.71 c 160.33,0 290.34,130.01 290.34,290.34 -80.16,0 -152.74,-32.5 -205.29,-85.04 -52.54,-52.55 -85.05,-125.14 -85.05,-205.3" style="fill:#592587;fill-opacity:1;fill-rule:nonzero;stroke:none" transform="matrix(0.13333333,0,0,-0.13333333,0,666.66667)" />
      <path id="path31" d="m 3119.74,2558.71 c 160.33,0 290.34,130.01 290.34,290.34 l -290.34,-290.34" style="fill:#782d99;fill-opacity:1;fill-rule:nonzero;stroke:none" transform="matrix(0.13333333,0,0,-0.13333333,0,666.66667)" />
      </g></svg>