<?xml version='1.0' encoding='utf-8'?>
<svg xmlns="http://www.w3.org/2000/svg" version="1.1" width="98.238" height="119.798" viewBox="331.033 160.317 98.238 119.798"><g id="object"><path id="path102" d="m 2931.98,3590.92 c 0,-44.65 -36.19,-80.84 -80.85,-80.84 -44.64,0 -80.84,36.19 -80.84,80.84 0,44.65 36.2,80.85 80.84,80.85 44.66,0 80.85,-36.2 80.85,-80.85" style="fill:#ee2238;fill-opacity:1;fill-rule:nonzero;stroke:none" transform="matrix(0.13333333,0,0,-0.13333333,0,666.66667)" />
      <path id="path103" d="m 3093.68,3752.62 c 0,-44.65 -36.2,-80.85 -80.85,-80.85 -44.65,0 -80.85,36.2 -80.85,80.85 h 161.7" style="fill:#423f9f;fill-opacity:1;fill-rule:nonzero;stroke:none" transform="matrix(0.13333333,0,0,-0.13333333,0,666.66667)" />
      <path id="path104" d="m 2770.29,3752.62 c 0,-44.65 -36.2,-80.85 -80.85,-80.85 -44.65,0 -80.85,36.2 -80.85,80.85 h 161.7" style="fill:#423f9f;fill-opacity:1;fill-rule:nonzero;stroke:none" transform="matrix(0.13333333,0,0,-0.13333333,0,666.66667)" />
      <path id="path105" d="m 2527.75,3267.53 v 0 0 c 0,-178.6 144.78,-323.39 323.38,-323.39 v 0 0 c 0,178.61 -144.78,323.39 -323.38,323.39" style="fill:#f8a020;fill-opacity:1;fill-rule:nonzero;stroke:none" transform="matrix(0.13333333,0,0,-0.13333333,0,666.66667)" />
      <path id="path106" d="m 2851.13,2944.14 v 0 c 178.61,0 323.4,144.79 323.4,323.39 v 0 0 c -178.61,0 -323.4,-144.78 -323.4,-323.39 v 0" style="fill:#ee2238;fill-opacity:1;fill-rule:nonzero;stroke:none" transform="matrix(0.13333333,0,0,-0.13333333,0,666.66667)" />
      <path id="path107" d="m 2527.75,3590.92 v 0 0 c 0,-178.6 144.78,-323.39 323.38,-323.39 v 0 0 c 0,178.6 -144.78,323.39 -323.38,323.39" style="fill:#ee2238;fill-opacity:1;fill-rule:nonzero;stroke:none" transform="matrix(0.13333333,0,0,-0.13333333,0,666.66667)" />
      <path id="path108" d="m 2851.13,3267.53 v 0 c 178.61,0 323.4,144.79 323.4,323.39 v 0 0 c -178.61,0 -323.4,-144.79 -323.4,-323.39 v 0" style="fill:#423f9f;fill-opacity:1;fill-rule:nonzero;stroke:none" transform="matrix(0.13333333,0,0,-0.13333333,0,666.66667)" />
      </g></svg>