<?xml version='1.0' encoding='utf-8'?>
<svg xmlns="http://www.w3.org/2000/svg" version="1.1" width="291.894" height="351.178" viewBox="661.731 66.876 291.894 351.178"><g id="object"><path id="path7" d="m 6055.14,4008.71 v 0 l 250.27,250.27 250.27,-250.27 v 0 c -138.22,-138.22 -362.32,-138.22 -500.54,0" style="fill:#39b7ed;fill-opacity:1;fill-rule:nonzero;stroke:none" transform="matrix(0.13333333,0,0,-0.13333333,0,666.66667)" />
      <path id="path8" d="m 6180.27,4133.84 v 0 l 125.14,125.14 125.13,-125.14 v 0 c -69.11,-69.1 -181.16,-69.1 -250.27,0" style="fill:#1f254c;fill-opacity:1;fill-rule:nonzero;stroke:none" transform="matrix(0.13333333,0,0,-0.13333333,0,666.66667)" />
      <path id="path22" d="M 5580.35,4453.43 H 5325.96 V 3435.9 h 254.39 v 1017.53" style="fill:#1f254c;fill-opacity:1;fill-rule:nonzero;stroke:none" transform="matrix(0.13333333,0,0,-0.13333333,0,666.66667)" />
      <path id="path23" d="m 5325.96,4453.43 h -253.79 c -35.45,0 -64.19,-28.74 -64.19,-64.19 v -190.19 h 317.98 v 254.38" style="fill:#1f254c;fill-opacity:1;fill-rule:nonzero;stroke:none" transform="matrix(0.13333333,0,0,-0.13333333,0,666.66667)" />
      <path id="path24" d="m 5580.35,4453.43 c 0,-52.68 42.7,-95.39 95.39,-95.39 v 0 c 52.68,0 95.39,42.71 95.39,95.39 h -190.78" style="fill:#1f254c;fill-opacity:1;fill-rule:nonzero;stroke:none" transform="matrix(0.13333333,0,0,-0.13333333,0,666.66667)" />
      <path id="path25" d="m 5007.98,4199.05 v 0 c 0,-43.83 46.13,-72.34 85.33,-52.73 l 105.46,52.73 h -190.79" style="fill:#1f254c;fill-opacity:1;fill-rule:nonzero;stroke:none" transform="matrix(0.13333333,0,0,-0.13333333,0,666.66667)" />
      <path id="path26" d="M 6342.83,3435.94 H 5575.9 l 383.47,564.24 z" style="fill:#ee2238;fill-opacity:1;fill-rule:nonzero;stroke:none" transform="matrix(0.13333333,0,0,-0.13333333,0,666.66667)" />
      <path id="path27" d="m 6128.58,3420 h -338.43 l 169.22,248.98 z" style="fill:#f68b11;fill-opacity:1;fill-rule:nonzero;stroke:none" transform="matrix(0.13333333,0,0,-0.13333333,0,666.66667)" />
      <path id="path28" d="m 7107.19,3435.94 h -766.93 l 383.47,564.24 z" style="fill:#ee2238;fill-opacity:1;fill-rule:nonzero;stroke:none" transform="matrix(0.13333333,0,0,-0.13333333,0,666.66667)" />
      <path id="path29" d="m 6936.3,3420 h -338.42 l 169.22,248.98 z" style="fill:#f68b11;fill-opacity:1;fill-rule:nonzero;stroke:none" transform="matrix(0.13333333,0,0,-0.13333333,0,666.66667)" />
      <path id="path30" d="m 5721.31,2799.94 -190.79,63.59 63.6,-953.93 h 127.19 v 890.34" style="fill:#1f254c;fill-opacity:1;fill-rule:nonzero;stroke:none" transform="matrix(0.13333333,0,0,-0.13333333,0,666.66667)" />
      <path id="path31" d="m 6677.38,2799.94 -190.79,63.59 63.59,-953.93 h 127.2 v 890.34" style="fill:#1f254c;fill-opacity:1;fill-rule:nonzero;stroke:none" transform="matrix(0.13333333,0,0,-0.13333333,0,666.66667)" />
      <path id="path32" d="m 7106.65,3435.9 v -592.77 c 0,-59 -47.79,-106.79 -106.79,-106.79 H 5841.88 c -284.94,0 -515.92,230.98 -515.92,515.92 v 183.64 h 1780.69" style="fill:#ee2238;fill-opacity:1;fill-rule:nonzero;stroke:none" transform="matrix(0.13333333,0,0,-0.13333333,0,666.66667)" />
      <path id="path33" d="m 6025.51,2799.94 h -190.78 l 63.6,-890.34 h 127.18 v 890.34" style="fill:#ee2238;fill-opacity:1;fill-rule:nonzero;stroke:none" transform="matrix(0.13333333,0,0,-0.13333333,0,666.66667)" />
      <path id="path34" d="m 6995.36,2799.94 h -190.79 l 63.59,-890.34 h 127.2 v 890.34" style="fill:#ee2238;fill-opacity:1;fill-rule:nonzero;stroke:none" transform="matrix(0.13333333,0,0,-0.13333333,0,666.66667)" />
      <path id="path35" d="M 5721.31,1909.6 H 5485.5 l 123.09,140.57 z" style="fill:#1f254c;fill-opacity:1;fill-rule:nonzero;stroke:none" transform="matrix(0.13333333,0,0,-0.13333333,0,666.66667)" />
      <path id="path36" d="m 6001.19,1909.6 h -235.81 l 123.09,140.57 z" style="fill:#ee2238;fill-opacity:1;fill-rule:nonzero;stroke:none" transform="matrix(0.13333333,0,0,-0.13333333,0,666.66667)" />
      <path id="path37" d="m 6653.6,1909.6 h -235.81 l 123.09,140.57 z" style="fill:#1f254c;fill-opacity:1;fill-rule:nonzero;stroke:none" transform="matrix(0.13333333,0,0,-0.13333333,0,666.66667)" />
      <path id="path38" d="m 6972.55,1909.6 h -235.81 l 123.09,140.57 z" style="fill:#ee2238;fill-opacity:1;fill-rule:nonzero;stroke:none" transform="matrix(0.13333333,0,0,-0.13333333,0,666.66667)" />
      <path id="path39" d="m 6836.36,2736.34 h -991.03 l 495.52,656.85 z" style="fill:#f68b11;fill-opacity:1;fill-rule:nonzero;stroke:none" transform="matrix(0.13333333,0,0,-0.13333333,0,666.66667)" />
      <path id="path40" d="m 5435.82,4381.93 h -132.16 v -10.8 c 0,-36.5 29.58,-66.09 66.08,-66.09 v 0 c 36.5,0 66.08,29.59 66.08,66.09 v 10.8" style="fill:#ee2238;fill-opacity:1;fill-rule:nonzero;stroke:none" transform="matrix(0.13333333,0,0,-0.13333333,0,666.66667)" />
      </g></svg>