<?xml version='1.0' encoding='utf-8'?>
<svg xmlns="http://www.w3.org/2000/svg" version="1.1" width="81.428" height="170.497" viewBox="268.224 183.180 81.428 170.497"><g id="object"><path id="path94" d="m 2577.39,3581.15 v 0 -520.71 h -520.71 v 0 c 0,287.58 233.13,520.71 520.71,520.71" style="fill:#f36717;fill-opacity:1;fill-rule:nonzero;stroke:none" transform="matrix(0.13333333,0,0,-0.13333333,0,666.66667)" />
      <path id="path95" d="m 2577.39,3407.58 v 0 -347.14 h -347.14 v 0 c 0,191.72 155.42,347.14 347.14,347.14" style="fill:#2c3491;fill-opacity:1;fill-rule:nonzero;stroke:none" transform="matrix(0.13333333,0,0,-0.13333333,0,666.66667)" />
      <path id="path107" d="m 2577.39,3060.44 c 0,-321.32 -219.86,-591.48 -517.33,-668.02 v 668.02 h 517.33" style="fill:#3f7cc8;fill-opacity:1;fill-rule:nonzero;stroke:none" transform="matrix(0.13333333,0,0,-0.13333333,0,666.66667)" />
      <path id="path108" d="m 2232.51,3060.44 c 0,-107.11 -73.29,-197.16 -172.45,-222.67 v 222.67 h 172.45" style="fill:#2c3491;fill-opacity:1;fill-rule:nonzero;stroke:none" transform="matrix(0.13333333,0,0,-0.13333333,0,666.66667)" />
      </g></svg>