<?xml version='1.0' encoding='utf-8'?>
<svg xmlns="http://www.w3.org/2000/svg" version="1.1" width="94.229" height="98.086" viewBox="493.091 464.717 94.229 98.086"><g id="object"><path id="path207" d="m 3743.18,1469.62 v 0 0 c 0,-170.31 138.06,-308.36 308.36,-308.36 v 0 0 c 0,170.3 -138.06,308.36 -308.36,308.36" style="fill:#286aaa;fill-opacity:1;fill-rule:nonzero;stroke:none" transform="matrix(0.13333333,0,0,-0.13333333,0,666.66667)" />
      <path id="path208" d="m 4359.9,1469.62 v 0 0 c 0,-170.31 -138.06,-308.36 -308.36,-308.36 v 0 0 c 0,170.3 138.06,308.36 308.36,308.36" style="fill:#286aaa;fill-opacity:1;fill-rule:nonzero;stroke:none" transform="matrix(0.13333333,0,0,-0.13333333,0,666.66667)" />
      <path id="path209" d="m 3743.18,1132.35 v 0 0 c 0,-170.299 138.06,-308.37 308.36,-308.37 v 0 0.008 c 0,170.301 -138.06,308.362 -308.36,308.362" style="fill:#fab20b;fill-opacity:1;fill-rule:nonzero;stroke:none" transform="matrix(0.13333333,0,0,-0.13333333,0,666.66667)" />
      <path id="path210" d="m 4359.9,1132.35 v 0 0 c 0,-170.299 -138.06,-308.37 -308.36,-308.37 v 0 0.008 c 0,170.301 138.06,308.362 308.36,308.362" style="fill:#fab20b;fill-opacity:1;fill-rule:nonzero;stroke:none" transform="matrix(0.13333333,0,0,-0.13333333,0,666.66667)" />
      </g></svg>