<?xml version='1.0' encoding='utf-8'?>
<svg xmlns="http://www.w3.org/2000/svg" version="1.1" width="84.918" height="182.142" viewBox="303.621 183.997 84.918 182.142"><g id="object"><path id="path23" d="m 2322.16,3575.02 v -273.44 c 0,-151.02 122.43,-273.44 273.44,-273.44 v 0 273.44 c 0,151.02 -122.42,273.44 -273.44,273.44 v 0" style="fill:#ef2c8f;fill-opacity:1;fill-rule:nonzero;stroke:none" transform="matrix(0.13333333,0,0,-0.13333333,0,666.66667)" />
      <path id="path24" d="m 2869.04,3575.02 v 0 c -151.02,0 -273.44,-122.42 -273.44,-273.44 v -273.44 0 c 151.02,0 273.44,122.42 273.44,273.44 v 273.44" style="fill:#2c314f;fill-opacity:1;fill-rule:nonzero;stroke:none" transform="matrix(0.13333333,0,0,-0.13333333,0,666.66667)" />
      <path id="path25" d="m 2869.04,3027.6 v 0 c -150.72,0 -272.91,-122.18 -272.91,-272.9 v 0 h 0.01 c 150.72,0 272.9,122.19 272.9,272.9 v 0" style="fill:#f68712;fill-opacity:1;fill-rule:nonzero;stroke:none" transform="matrix(0.13333333,0,0,-0.13333333,0,666.66667)" />
      <path id="path26" d="m 2326.97,3027.6 v 0 c 150.72,0 272.9,-122.18 272.9,-272.9 v 0 0 c -150.72,0 -272.9,122.19 -272.9,272.9 v 0" style="fill:#ef2c8f;fill-opacity:1;fill-rule:nonzero;stroke:none" transform="matrix(0.13333333,0,0,-0.13333333,0,666.66667)" />
      <path id="path27" d="m 2869.04,2754.7 v 0 c -150.72,0 -272.91,-122.18 -272.91,-272.91 v 0 h 0.01 c 150.72,0 272.9,122.19 272.9,272.91 v 0" style="fill:#ef2c8f;fill-opacity:1;fill-rule:nonzero;stroke:none" transform="matrix(0.13333333,0,0,-0.13333333,0,666.66667)" />
      <path id="path28" d="m 2326.97,2754.7 v 0 c 150.72,0 272.9,-122.18 272.9,-272.91 v 0 0 c -150.72,0 -272.9,122.19 -272.9,272.91 v 0" style="fill:#f68712;fill-opacity:1;fill-rule:nonzero;stroke:none" transform="matrix(0.13333333,0,0,-0.13333333,0,666.66667)" />
      <path id="path29" d="m 2610.8,2298.96 h -30.39 v 729.18 h 30.39 v -729.18" style="fill:#2c314f;fill-opacity:1;fill-rule:nonzero;stroke:none" transform="matrix(0.13333333,0,0,-0.13333333,0,666.66667)" />
      <path id="path30" d="m 2322.16,2298.97 v 0 h 546.88 v 0 c -151.02,151.02 -395.86,151.02 -546.88,0" style="fill:#37b5e5;fill-opacity:1;fill-rule:nonzero;stroke:none" transform="matrix(0.13333333,0,0,-0.13333333,0,666.66667)" />
      </g></svg>