<?xml version='1.0' encoding='utf-8'?>
<svg xmlns="http://www.w3.org/2000/svg" version="1.1" width="65.231" height="38.615" viewBox="477.151 504.473 65.231 38.615"><g id="object"><path id="path59" d="m 3954.26,1171.45 h 68.6 v -68.59 c 0,-72.37 -58.66,-131.02 -131.03,-131.02 h -68.58 v 68.59 c 0,72.36 58.65,131.02 131.01,131.02" style="fill:#782d99;fill-opacity:1;fill-rule:nonzero;stroke:none" transform="matrix(0.13333333,0,0,-0.13333333,0,666.66667)" />
      <path id="path60" d="M 4022.86,1171.45 3823.25,971.84 v 68.61 c 0,72.37 58.62,131 130.99,131 h 68.62" style="fill:#f57930;fill-opacity:1;fill-rule:nonzero;stroke:none" transform="matrix(0.13333333,0,0,-0.13333333,0,666.66667)" />
      <path id="path61" d="m 3692.23,1171.45 h -68.6 v -68.59 c 0,-72.37 58.67,-131.02 131.02,-131.02 h 68.6 v 68.59 c 0,72.36 -58.66,131.02 -131.02,131.02" style="fill:#782d99;fill-opacity:1;fill-rule:nonzero;stroke:none" transform="matrix(0.13333333,0,0,-0.13333333,0,666.66667)" />
      <path id="path62" d="m 3823.25,1040.45 v -68.61 l -199.62,199.61 h 68.61 c 72.38,0 131.01,-58.63 131.01,-131" style="fill:#782d99;fill-opacity:1;fill-rule:nonzero;stroke:none" transform="matrix(0.13333333,0,0,-0.13333333,0,666.66667)" />
      <path id="path63" d="m 3823.25,1040.45 v -68.61 l -199.62,199.61 h 68.61 c 72.38,0 131.01,-58.63 131.01,-131" style="fill:#592587;fill-opacity:1;fill-rule:nonzero;stroke:none" transform="matrix(0.13333333,0,0,-0.13333333,0,666.66667)" />
      <path id="path64" d="M 4022.86,1171.45 3823.25,971.84 v 68.61 c 0,72.37 58.62,131 130.99,131 h 68.62" style="fill:#592587;fill-opacity:1;fill-rule:nonzero;stroke:none" transform="matrix(0.13333333,0,0,-0.13333333,0,666.66667)" />
      </g></svg>