<?xml version='1.0' encoding='utf-8'?>
<svg xmlns="http://www.w3.org/2000/svg" version="1.1" width="70.585" height="41.293" viewBox="177.164 308.081 70.585 41.293"><g id="object"><path id="path138" d="m 1593.42,2644.39 v 0 c -121.33,0 -219.69,-98.36 -219.69,-219.7 v 0 h 439.39 v 0 c 0,121.34 -98.36,219.7 -219.7,219.7" style="fill:#f8a020;fill-opacity:1;fill-rule:nonzero;stroke:none" transform="matrix(0.13333333,0,0,-0.13333333,0,666.66667)" />
      <path id="path139" d="m 1593.42,2479.63 v 0 c -30.2,0 -54.92,24.71 -54.92,54.92 v 0 c 0,30.2 24.72,54.92 54.92,54.92 v 0 c 30.21,0 54.93,-24.72 54.93,-54.92 v 0 c 0,-30.21 -24.72,-54.92 -54.93,-54.92" style="fill:#423f9f;fill-opacity:1;fill-rule:nonzero;stroke:none" transform="matrix(0.13333333,0,0,-0.13333333,0,666.66667)" />
      </g></svg>