<?xml version='1.0' encoding='utf-8'?>
<svg xmlns="http://www.w3.org/2000/svg" version="1.1" width="133.274" height="81.300" viewBox="473.568 382.965 133.274 81.300"><g id="object"><path id="path200" d="m 4051.54,2082.76 h -454.78 v -256.82 c 0,-145.21 117.72,-262.93 262.93,-262.93 h 191.85 v 519.75" style="fill:#3ebeb9;fill-opacity:1;fill-rule:nonzero;stroke:none" transform="matrix(0.13333333,0,0,-0.13333333,0,666.66667)" />
      <path id="path201" d="m 4051.54,2082.76 h 454.78 v -256.82 c 0,-145.21 -117.71,-262.93 -262.93,-262.93 h -191.85 v 519.75" style="fill:#3ebeb9;fill-opacity:1;fill-rule:nonzero;stroke:none" transform="matrix(0.13333333,0,0,-0.13333333,0,666.66667)" />
      <path id="path202" d="m 4311.42,1822.89 c 0,143.52 -259.88,259.87 -259.88,259.87 0,0 -259.87,-116.35 -259.87,-259.87 0,-143.53 116.34,-259.88 259.87,-259.88 143.52,0 259.88,116.35 259.88,259.88" style="fill:#286aaa;fill-opacity:1;fill-rule:nonzero;stroke:none" transform="matrix(0.13333333,0,0,-0.13333333,0,666.66667)" />
      <path id="path203" d="m 4213.96,1725.44 c 0,89.69 -162.42,162.42 -162.42,162.42 0,0 -162.42,-72.73 -162.42,-162.42 0,-89.71 72.72,-162.43 162.42,-162.43 89.71,0 162.42,72.72 162.42,162.43" style="fill:#fab20b;fill-opacity:1;fill-rule:nonzero;stroke:none" transform="matrix(0.13333333,0,0,-0.13333333,0,666.66667)" />
      </g></svg>