<?xml version='1.0' encoding='utf-8'?>
<svg xmlns="http://www.w3.org/2000/svg" version="1.1" width="93.150" height="93.147" viewBox="511.389 519.984 93.150 93.147"><g id="object"><path id="path45" d="m 3880.42,1055.12 v 0 0 c 0,-168.061 136.25,-304.3 304.3,-304.3 v 0 0 c 0,168.059 -136.24,304.3 -304.3,304.3" style="fill:#30286c;fill-opacity:1;fill-rule:nonzero;stroke:none" transform="matrix(0.13333333,0,0,-0.13333333,0,666.66667)" />
      <path id="path46" d="m 4184.72,750.82 c -168.04,0 -304.3,136.262 -304.3,304.3 l 304.3,-304.3" style="fill:#30286c;fill-opacity:1;fill-rule:nonzero;stroke:none" transform="matrix(0.13333333,0,0,-0.13333333,0,666.66667)" />
      <path id="path47" d="m 4184.72,750.82 c -168.04,0 -304.3,136.262 -304.3,304.3 l 304.3,-304.3" style="fill:#4e3d9f;fill-opacity:1;fill-rule:nonzero;stroke:none" transform="matrix(0.13333333,0,0,-0.13333333,0,666.66667)" />
      <path id="path48" d="m 4489.04,1055.12 v 0 0 c 0,-168.061 -136.25,-304.3 -304.32,-304.3 v 0 0 c 0,168.059 136.25,304.3 304.32,304.3" style="fill:#30286c;fill-opacity:1;fill-rule:nonzero;stroke:none" transform="matrix(0.13333333,0,0,-0.13333333,0,666.66667)" />
      <path id="path49" d="m 4184.72,750.82 c 168.05,0 304.32,136.262 304.32,304.3 l -304.32,-304.3" style="fill:#30286c;fill-opacity:1;fill-rule:nonzero;stroke:none" transform="matrix(0.13333333,0,0,-0.13333333,0,666.66667)" />
      <path id="path50" d="m 4184.72,750.82 c 168.05,0 304.32,136.262 304.32,304.3 l -304.32,-304.3" style="fill:#4e3d9f;fill-opacity:1;fill-rule:nonzero;stroke:none" transform="matrix(0.13333333,0,0,-0.13333333,0,666.66667)" />
      <path id="path51" d="m 3880.42,750.82 v 0 0 c 0,-168.07 136.25,-304.308 304.3,-304.308 v 0 0 c 0,168.07 -136.24,304.308 -304.3,304.308" style="fill:#ef2f48;fill-opacity:1;fill-rule:nonzero;stroke:none" transform="matrix(0.13333333,0,0,-0.13333333,0,666.66667)" />
      <path id="path52" d="m 4184.72,446.512 c -168.04,0 -304.3,136.258 -304.3,304.308 l 304.3,-304.308" style="fill:#f46f1f;fill-opacity:1;fill-rule:nonzero;stroke:none" transform="matrix(0.13333333,0,0,-0.13333333,0,666.66667)" />
      <path id="path53" d="m 4184.72,446.512 c -168.04,0 -304.3,136.258 -304.3,304.308 l 304.3,-304.308" style="fill:#f46f1f;fill-opacity:1;fill-rule:nonzero;stroke:none" transform="matrix(0.13333333,0,0,-0.13333333,0,666.66667)" />
      <path id="path54" d="m 4489.04,750.82 v 0 0 c 0,-168.07 -136.25,-304.308 -304.32,-304.308 v 0 0 c 0,168.07 136.25,304.308 304.32,304.308" style="fill:#ef2f48;fill-opacity:1;fill-rule:nonzero;stroke:none" transform="matrix(0.13333333,0,0,-0.13333333,0,666.66667)" />
      <path id="path55" d="m 4184.72,446.512 c 168.05,0 304.32,136.258 304.32,304.308 L 4184.72,446.512" style="fill:#f46f1f;fill-opacity:1;fill-rule:nonzero;stroke:none" transform="matrix(0.13333333,0,0,-0.13333333,0,666.66667)" />
      <path id="path56" d="m 4184.72,446.512 c 168.05,0 304.32,136.258 304.32,304.308 L 4184.72,446.512" style="fill:#f46f1f;fill-opacity:1;fill-rule:nonzero;stroke:none" transform="matrix(0.13333333,0,0,-0.13333333,0,666.66667)" />
      </g></svg>