<?xml version='1.0' encoding='utf-8'?>
<svg xmlns="http://www.w3.org/2000/svg" version="1.1" width="247.743" height="371.229" viewBox="714.044 34.928 247.743 371.229"><g id="object"><path id="path10" d="m 6494.85,2335.59 v -336.77 h -168.39 v 84.19 h 84.2 v 294.68 l 84.19,-42.1" style="fill:#f8a020;fill-opacity:1;fill-rule:nonzero;stroke:none" transform="matrix(0.13333333,0,0,-0.13333333,0,666.66667)" />
      <path id="path11" d="m 6242.27,2503.99 v -505.17 h -168.39 v 84.19 h 84.19 v 463.07 l 84.2,-42.09" style="fill:#f8a020;fill-opacity:1;fill-rule:nonzero;stroke:none" transform="matrix(0.13333333,0,0,-0.13333333,0,666.66667)" />
      <path id="path12" d="M 6093.69,4693.04 H 5821.3 V 3345.92 h 682.84 v 936.67 c 0,226.68 -183.76,410.45 -410.45,410.45" style="fill:#f8a020;fill-opacity:1;fill-rule:nonzero;stroke:none" transform="matrix(0.13333333,0,0,-0.13333333,0,666.66667)" />
      <path id="path13" d="M 5821.3,4693.04 5400.33,4272.06 H 5821.3 Z" style="fill:#423f9f;fill-opacity:1;fill-rule:nonzero;stroke:none" transform="matrix(0.13333333,0,0,-0.13333333,0,666.66667)" />
      <path id="path14" d="m 6158.07,4524.64 c 0,-46.5 -37.69,-84.19 -84.19,-84.19 -46.5,0 -84.2,37.69 -84.2,84.19 0,46.5 37.7,84.2 84.2,84.2 46.5,0 84.19,-37.7 84.19,-84.2" style="fill:#423f9f;fill-opacity:1;fill-rule:nonzero;stroke:none" transform="matrix(0.13333333,0,0,-0.13333333,0,666.66667)" />
      <path id="path15" d="m 7168.4,1998.82 -983.24,491.62 c -223,111.5 -363.86,339.42 -363.86,588.74 v 266.74 c 0,372 301.56,673.56 673.55,673.56 v 0 c 371.99,0 673.55,-301.56 673.55,-673.56 v -1347.1" style="fill:#423f9f;fill-opacity:1;fill-rule:nonzero;stroke:none" transform="matrix(0.13333333,0,0,-0.13333333,0,666.66667)" />
      <path id="path16" d="M 6831.63,3345.92 V 2167.2 l -646.43,323.22 c -9.16,4.58 -18.24,9.35 -27.13,14.41 v 841.09 h 673.56" style="fill:#423f9f;fill-opacity:1;fill-rule:nonzero;stroke:none" transform="matrix(0.13333333,0,0,-0.13333333,0,666.66667)" />
      <path id="path17" d="M 7168.4,3345.92 H 5821.3 c 0,371.96 301.6,673.56 673.55,673.56 185.98,0 354.37,-75.4 476.26,-197.3 C 7093,3700.29 7168.4,3531.9 7168.4,3345.92" style="fill:#423f9f;fill-opacity:1;fill-rule:nonzero;stroke:none" transform="matrix(0.13333333,0,0,-0.13333333,0,666.66667)" />
      <path id="path18" d="M 7168.4,3345.92 H 5821.3 c 0,371.96 301.6,673.56 673.55,673.56 185.98,0 354.37,-75.4 476.26,-197.3 C 7093,3700.29 7168.4,3531.9 7168.4,3345.92" style="fill:#ee2238;fill-opacity:1;fill-rule:nonzero;stroke:none" transform="matrix(0.13333333,0,0,-0.13333333,0,666.66667)" />
      <path id="path19" d="m 6831.63,3345.92 h -673.56 c 0,185.98 150.8,336.78 336.78,336.78 92.99,0 177.19,-37.7 238.13,-98.65 60.95,-60.94 98.65,-145.14 98.65,-238.13" style="fill:#fbf5f7;fill-opacity:1;fill-rule:nonzero;stroke:none" transform="matrix(0.13333333,0,0,-0.13333333,0,666.66667)" />
      <path id="path20" d="M 7168.4,3345.92 V 1998.82 L 6831.63,2167.2 V 3345.92 H 7168.4" style="fill:#ee2238;fill-opacity:1;fill-rule:nonzero;stroke:none" transform="matrix(0.13333333,0,0,-0.13333333,0,666.66667)" />
      <path id="path21" d="m 6158.07,3345.92 h 673.56 c 0,-185.97 -150.8,-336.77 -336.78,-336.77 -92.99,0 -177.18,37.7 -238.13,98.64 -60.94,60.95 -98.65,145.15 -98.65,238.13" style="fill:#f8a020;fill-opacity:1;fill-rule:nonzero;stroke:none" transform="matrix(0.13333333,0,0,-0.13333333,0,666.66667)" />
      <path id="path22" d="m 6663.24,3345.92 h -336.78 c 0,92.99 75.4,168.39 168.39,168.39 46.49,0 88.59,-18.84 119.06,-49.32 30.48,-30.47 49.33,-72.57 49.33,-119.07" style="fill:#423f9f;fill-opacity:1;fill-rule:nonzero;stroke:none" transform="matrix(0.13333333,0,0,-0.13333333,0,666.66667)" />
      <path id="path23" d="m 6326.46,3345.92 h 336.78 c 0,-92.98 -75.4,-168.38 -168.39,-168.38 -46.49,0 -88.59,18.85 -119.06,49.32 -30.48,30.48 -49.33,72.57 -49.33,119.06" style="fill:#ee2238;fill-opacity:1;fill-rule:nonzero;stroke:none" transform="matrix(0.13333333,0,0,-0.13333333,0,666.66667)" />
      <path id="path120" d="m 5890.35,2285.44 v 0 h -121.34 v 121.33 c 67.01,0 121.34,-54.32 121.34,-121.33" style="fill:#ee2238;fill-opacity:1;fill-rule:nonzero;stroke:none" transform="matrix(0.13333333,0,0,-0.13333333,0,666.66667)" />
      </g></svg>