<?xml version='1.0' encoding='utf-8'?>
<svg xmlns="http://www.w3.org/2000/svg" version="1.1" width="84.015" height="84.016" viewBox="267.990 171.298 84.015 84.016"><g id="object"><path id="path233" d="m 2260.97,3485.55 c 47.13,-47.14 47.13,-123.56 0,-170.69 -47.14,-47.14 -123.56,-47.14 -170.7,0 -47.13,47.13 -47.13,123.55 0,170.69 47.14,47.14 123.56,47.14 170.7,0" style="fill:#ed1b29;fill-opacity:1;fill-rule:nonzero;stroke:none" transform="matrix(0.13333333,0,0,-0.13333333,0,666.66667)" />
      <path id="path234" d="m 2559.69,3485.55 c 47.13,-47.14 47.13,-123.56 0,-170.69 -47.14,-47.14 -123.57,-47.14 -170.7,0 -47.14,47.13 -47.14,123.55 0,170.69 47.13,47.14 123.56,47.14 170.7,0" style="fill:#ed1b29;fill-opacity:1;fill-rule:nonzero;stroke:none" transform="matrix(0.13333333,0,0,-0.13333333,0,666.66667)" />
      <path id="path235" d="m 2239.63,3336.19 c 47.14,47.14 123.56,47.14 170.7,0 47.13,-47.14 47.13,-123.56 0,-170.7 -47.14,-47.13 -123.56,-47.13 -170.7,0 -47.14,47.14 -47.14,123.56 0,170.7" style="fill:#ed1b29;fill-opacity:1;fill-rule:nonzero;stroke:none" transform="matrix(0.13333333,0,0,-0.13333333,0,666.66667)" />
      <path id="path236" d="m 2239.63,3634.91 c 47.14,47.14 123.56,47.14 170.7,0 47.13,-47.13 47.13,-123.56 0,-170.69 -47.14,-47.14 -123.56,-47.14 -170.7,0 -47.14,47.13 -47.14,123.56 0,170.69" style="fill:#ed1b29;fill-opacity:1;fill-rule:nonzero;stroke:none" transform="matrix(0.13333333,0,0,-0.13333333,0,666.66667)" />
      <path id="path237" d="m 2399.66,3474.88 c 41.24,-41.24 41.24,-108.12 0,-149.36 -41.25,-41.24 -108.12,-41.24 -149.36,0 -41.25,41.24 -41.25,108.12 0,149.36 41.24,41.24 108.11,41.24 149.36,0" style="fill:#fffbf4;fill-opacity:1;fill-rule:nonzero;stroke:none" transform="matrix(0.13333333,0,0,-0.13333333,0,666.66667)" />
      <path id="path238" d="m 2356.98,3432.21 c 17.68,-17.68 17.68,-46.34 0,-64.01 -17.67,-17.68 -46.33,-17.68 -64,0 -17.68,17.67 -17.68,46.33 0,64.01 17.67,17.67 46.33,17.67 64,0" style="fill:#ed1b29;fill-opacity:1;fill-rule:nonzero;stroke:none" transform="matrix(0.13333333,0,0,-0.13333333,0,666.66667)" />
      </g></svg>