<?xml version='1.0' encoding='utf-8'?>
<svg xmlns="http://www.w3.org/2000/svg" version="1.1" width="105.211" height="77.911" viewBox="401.725 283.233 105.211 77.911"><g id="object"><path id="path45" d="m 3057.94,2685.97 v 0 0 c 0,-193.05 156.49,-349.55 349.54,-349.55 v 0 0 c 0,193.05 -156.5,349.55 -349.54,349.55" style="fill:#517ec8;fill-opacity:1;fill-rule:nonzero;stroke:none" transform="matrix(0.13333333,0,0,-0.13333333,0,666.66667)" />
      <path id="path46" d="m 3757.02,2685.97 v 0 0 c 0,-193.05 -156.49,-349.55 -349.54,-349.55 v 0 0 c 0,193.05 156.5,349.55 349.54,349.55" style="fill:#1e4470;fill-opacity:1;fill-rule:nonzero;stroke:none" transform="matrix(0.13333333,0,0,-0.13333333,0,666.66667)" />
      <path id="path47" d="m 3407.48,2830.75 v 0 0 c -136.51,-136.5 -136.51,-357.82 0,-494.33 v 0 0 c 136.51,136.51 136.51,357.83 0,494.33" style="fill:#f46e1b;fill-opacity:1;fill-rule:nonzero;stroke:none" transform="matrix(0.13333333,0,0,-0.13333333,0,666.66667)" />
      </g></svg>