<?xml version='1.0' encoding='utf-8'?>
<svg xmlns="http://www.w3.org/2000/svg" version="1.1" width="104.741" height="104.743" viewBox="212.403 427.241 104.741 104.743"><g id="object"><path id="path87" d="m 1985.8,1055.12 v 0 c -192.07,0 -347.78,155.72 -347.78,347.79 v 347.78 0 c 192.07,0 347.78,-155.71 347.78,-347.78 v -347.79" style="fill:#ef2f48;fill-opacity:1;fill-rule:nonzero;stroke:none" transform="matrix(0.13333333,0,0,-0.13333333,0,666.66667)" />
      <path id="path88" d="m 1985.8,1055.12 v 0 c 192.08,0 347.78,155.72 347.78,347.79 v 347.78 0 c -192.07,0 -347.78,-155.71 -347.78,-347.78 v -347.79" style="fill:#fabb34;fill-opacity:1;fill-rule:nonzero;stroke:none" transform="matrix(0.13333333,0,0,-0.13333333,0,666.66667)" />
      <path id="path89" d="m 2333.58,1402.91 c 0,-192.05 -155.73,-347.79 -347.78,-347.79 v 347.79 h 347.78" style="fill:#fabb34;fill-opacity:1;fill-rule:nonzero;stroke:none" transform="matrix(0.13333333,0,0,-0.13333333,0,666.66667)" />
      <path id="path102" d="m 2333.58,1402.91 c 0,-192.05 -155.73,-347.79 -347.78,-347.79 v 347.79 h 347.78" style="fill:#ef2f48;fill-opacity:1;fill-rule:nonzero;stroke:none" transform="matrix(0.13333333,0,0,-0.13333333,0,666.66667)" />
      <path id="path103" d="m 1638.02,1402.91 c 0,-192.05 155.73,-347.79 347.78,-347.79 v 347.79 h -347.78" style="fill:#f46f1f;fill-opacity:1;fill-rule:nonzero;stroke:none" transform="matrix(0.13333333,0,0,-0.13333333,0,666.66667)" />
      </g></svg>