<?xml version='1.0' encoding='utf-8'?>
<svg xmlns="http://www.w3.org/2000/svg" version="1.1" width="46.714" height="46.715" viewBox="83.083 136.895 46.714 46.715"><g id="object"><path id="path96" d="m 928.477,3798.11 c 0,71.89 -58.282,130.18 -130.176,130.18 -71.895,0 -130.176,-58.29 -130.176,-130.18 0,-71.9 58.281,-130.18 130.176,-130.18 71.894,0 130.176,58.28 130.176,130.18" style="fill:#3f7cc8;fill-opacity:1;fill-rule:nonzero;stroke:none" transform="matrix(0.13333333,0,0,-0.13333333,0,666.66667)" />
      <path id="path98" d="m 928.465,3797.78 c 0,0.11 0.012,0.22 0.012,0.33 0,71.9 -58.282,130.18 -130.176,130.18 -71.895,0 -130.176,-58.28 -130.176,-130.18 0,-0.11 0.016,-0.22 0.016,-0.33 h 260.324" style="fill:#f36717;fill-opacity:1;fill-rule:nonzero;stroke:none" transform="matrix(0.13333333,0,0,-0.13333333,0,666.66667)" />
      </g></svg>