<?xml version='1.0' encoding='utf-8'?>
<svg xmlns="http://www.w3.org/2000/svg" version="1.1" width="109.224" height="227.093" viewBox="469.694 399.385 109.224 227.093"><g id="object"><path id="path47" d="M 4296.88,681.512 H 3567.71 V 346.41 h 729.17 v 335.102" style="fill:#f68712;fill-opacity:1;fill-rule:nonzero;stroke:none" transform="matrix(0.13333333,0,0,-0.13333333,0,666.66667)" />
      <path id="path48" d="M 4296.88,681.512 H 3567.71 V 528.711 h 729.17 v 152.801" style="fill:#2c314f;fill-opacity:1;fill-rule:nonzero;stroke:none" transform="matrix(0.13333333,0,0,-0.13333333,0,666.66667)" />
      <path id="path49" d="m 4296.88,1169.25 v 0 c -202.74,0 -367.1,-164.36 -367.1,-367.102 v 0 0 c 202.75,0 367.1,164.352 367.1,367.102 v 0" style="fill:#f68712;fill-opacity:1;fill-rule:nonzero;stroke:none" transform="matrix(0.13333333,0,0,-0.13333333,0,666.66667)" />
      <path id="path50" d="m 3567.71,1169.25 v 0 c 202.75,0 367.1,-164.36 367.1,-367.102 v 0 0 c -202.75,0 -367.1,164.352 -367.1,367.102 v 0" style="fill:#2c314f;fill-opacity:1;fill-rule:nonzero;stroke:none" transform="matrix(0.13333333,0,0,-0.13333333,0,666.66667)" />
      <path id="path51" d="m 3947.48,528.711 h -30.38 v 729.169 h 30.38 V 528.711" style="fill:#2c314f;fill-opacity:1;fill-rule:nonzero;stroke:none" transform="matrix(0.13333333,0,0,-0.13333333,0,666.66667)" />
      <path id="path52" d="m 4243.18,1563.17 c 55.55,48.89 70.85,131.67 32.43,198.21 -38.41,66.55 -117.76,94.68 -187.88,71.02 -14.56,72.55 -78.6,127.21 -155.44,127.21 -76.83,0 -140.88,-54.66 -155.44,-127.21 -70.11,23.66 -149.46,-4.47 -187.88,-71.02 -38.42,-66.54 -23.1,-149.32 32.44,-198.21 -55.54,-48.89 -70.86,-131.68 -32.44,-198.22 38.42,-66.54 117.77,-94.68 187.88,-71.02 14.56,-72.55 78.61,-127.19 155.44,-127.19 76.84,0 140.88,54.64 155.44,127.19 70.12,-23.66 149.47,4.48 187.88,71.02 38.42,66.54 23.12,149.33 -32.43,198.22" style="fill:#d51a73;fill-opacity:1;fill-rule:nonzero;stroke:none" transform="matrix(0.13333333,0,0,-0.13333333,0,666.66667)" />
      <path id="path53" d="m 4275.6,1364.95 c -38.41,-66.52 -117.78,-94.7 -187.91,-71.01 -14.53,-72.59 -78.57,-127.2 -155.4,-127.2 v 792.87 c 76.83,0 140.87,-54.63 155.4,-127.22 70.13,23.7 149.5,-4.49 187.91,-71.01 38.42,-66.51 23.09,-149.32 -32.41,-198.21 55.5,-48.9 70.83,-131.71 32.41,-198.22" style="fill:#2c314f;fill-opacity:1;fill-rule:nonzero;stroke:none" transform="matrix(0.13333333,0,0,-0.13333333,0,666.66667)" />
      <path id="path54" d="m 4275.6,1364.95 c -38.41,-66.52 -117.78,-94.7 -187.91,-71.01 -14.53,-72.59 -78.57,-127.2 -155.4,-127.2 v 792.87 c 76.83,0 140.87,-54.63 155.4,-127.22 70.13,23.7 149.5,-4.49 187.91,-71.01 38.42,-66.51 23.09,-149.32 -32.41,-198.21 55.5,-48.9 70.83,-131.71 32.41,-198.22" style="fill:#ef2c8f;fill-opacity:1;fill-rule:nonzero;stroke:none" transform="matrix(0.13333333,0,0,-0.13333333,0,666.66667)" />
      <path id="path55" d="m 4090.87,1563.17 c 0,-87.58 -71,-158.57 -158.58,-158.57 -87.58,0 -158.57,70.99 -158.57,158.57 0,87.58 70.99,158.58 158.57,158.58 87.58,0 158.58,-71 158.58,-158.58" style="fill:#f9fcfb;fill-opacity:1;fill-rule:nonzero;stroke:none" transform="matrix(0.13333333,0,0,-0.13333333,0,666.66667)" />
      </g></svg>