<?xml version='1.0' encoding='utf-8'?>
<svg xmlns="http://www.w3.org/2000/svg" version="1.1" width="292.502" height="183.921" viewBox="395.133 46.199 292.502 183.921"><g id="object"><path id="path3" d="m 3452.75,4083.2 v 0 c 0,-422 342.1,-764.1 764.09,-764.1 v 0 c 4.42,0 8.8,0.1 13.2,0.17 v 763.93 h -777.29" style="fill:#3f7cc8;fill-opacity:1;fill-rule:nonzero;stroke:none" transform="matrix(0.13333333,0,0,-0.13333333,0,666.66667)" />
      <path id="path4" d="m 4230.04,4083.2 v -763.93 c 415.9,7.05 750.89,346.34 750.89,763.93 v 0 h -750.89" style="fill:#2c3491;fill-opacity:1;fill-rule:nonzero;stroke:none" transform="matrix(0.13333333,0,0,-0.13333333,0,666.66667)" />
      <path id="path5" d="m 4980.93,4083.2 h -525.31 v 262.65 c 0,145.06 117.6,262.66 262.66,262.66 v 0 c 145.06,0 262.65,-117.6 262.65,-262.66 V 4083.2" style="fill:#f36717;fill-opacity:1;fill-rule:nonzero;stroke:none" transform="matrix(0.13333333,0,0,-0.13333333,0,666.66667)" />
      <path id="path6" d="M 4980.93,4345.85 5112.26,4214.52 4980.93,4083.2 Z" style="fill:#2c3491;fill-opacity:1;fill-rule:nonzero;stroke:none" transform="matrix(0.13333333,0,0,-0.13333333,0,666.66667)" />
      <path id="path7" d="m 4783.94,4345.85 c 0,-36.26 -29.39,-65.66 -65.66,-65.66 -36.26,0 -65.67,29.4 -65.67,65.66 0,36.27 29.41,65.67 65.67,65.67 36.27,0 65.66,-29.4 65.66,-65.67" style="fill:#2c3491;fill-opacity:1;fill-rule:nonzero;stroke:none" transform="matrix(0.13333333,0,0,-0.13333333,0,666.66667)" />
      <path id="path8" d="m 4641.62,4083.2 h -849.55 v 0 c 0,-234.6 190.17,-424.78 424.77,-424.78 v 0 c 234.6,0 424.78,190.18 424.78,424.78 v 0" style="fill:#f36717;fill-opacity:1;fill-rule:nonzero;stroke:none" transform="matrix(0.13333333,0,0,-0.13333333,0,666.66667)" />
      <path id="path9" d="m 4641.62,4083.2 h -849.55 v 0 c 0,-234.6 190.17,-424.78 424.77,-424.78 v 0 c 234.6,0 424.78,190.18 424.78,424.78 v 0" style="fill:#f36717;fill-opacity:1;fill-rule:nonzero;stroke:none" transform="matrix(0.13333333,0,0,-0.13333333,0,666.66667)" />
      <path id="path10" d="m 4434.46,4083.2 h -435.23 v 0 c 0,-120.19 97.43,-217.62 217.61,-217.62 v 0 c 120.19,0 217.62,97.43 217.62,217.62 v 0" style="fill:#2c3491;fill-opacity:1;fill-rule:nonzero;stroke:none" transform="matrix(0.13333333,0,0,-0.13333333,0,666.66667)" />
      <path id="path11" d="m 3772.59,4083.2 v 14.1 c 0,203.21 -164.73,367.94 -367.94,367.94 H 3008.5 v 0 c 0,-210.99 171.04,-382.04 382.04,-382.04 h 382.05" style="fill:#f36717;fill-opacity:1;fill-rule:nonzero;stroke:none" transform="matrix(0.13333333,0,0,-0.13333333,0,666.66667)" />
      </g></svg>