<?xml version='1.0' encoding='utf-8'?>
<svg xmlns="http://www.w3.org/2000/svg" version="1.1" width="221.481" height="231.806" viewBox="61.359 77.176 221.481 231.806"><g id="object"><path id="path128" d="M 2007.61,2727.64 H 908.625 v 1098.99 h 565.405 c 294.69,0 533.58,-238.89 533.58,-533.58 v -565.41" style="fill:#fabb34;fill-opacity:1;fill-rule:nonzero;stroke:none" transform="matrix(0.13333333,0,0,-0.13333333,0,666.66667)" />
      <path id="path129" d="m 2007.61,3293.08 v -565.44 h -686.87 v 1098.99 h 153.33 c 294.67,0 533.54,-238.88 533.54,-533.55" style="fill:#fabb34;fill-opacity:1;fill-rule:nonzero;stroke:none" transform="matrix(0.13333333,0,0,-0.13333333,0,666.66667)" />
      <path id="path130" d="M 908.625,3826.63 505.195,3423.2 h 403.43 z" style="fill:#30286c;fill-opacity:1;fill-rule:nonzero;stroke:none" transform="matrix(0.13333333,0,0,-0.13333333,0,666.66667)" />
      <path id="path131" d="m 1252.06,3586.22 c 0,-56.9 -46.13,-103.02 -103.03,-103.02 -56.9,0 -103.03,46.12 -103.03,103.02 0,56.91 46.13,103.03 103.03,103.03 56.9,0 103.03,-46.12 103.03,-103.03" style="fill:#ef2f48;fill-opacity:1;fill-rule:nonzero;stroke:none" transform="matrix(0.13333333,0,0,-0.13333333,0,666.66667)" />
      <path id="path132" d="m 1320.74,4376.13 h -185.93 c -124.92,0 -226.185,-101.27 -226.185,-226.19 v -323.31 h 412.115 v 549.5" style="fill:#ef2f48;fill-opacity:1;fill-rule:nonzero;stroke:none" transform="matrix(0.13333333,0,0,-0.13333333,0,666.66667)" />
      <path id="path133" d="m 2076.3,4376.13 h -529.37 c -124.92,0 -226.19,-101.27 -226.19,-226.19 v -323.31 h 444.73 c 171.67,0 310.83,139.16 310.83,310.83 v 238.67" style="fill:#4e3d9f;fill-opacity:1;fill-rule:nonzero;stroke:none" transform="matrix(0.13333333,0,0,-0.13333333,0,666.66667)" />
      <path id="path134" d="m 2076.3,4376.18 v -238.72 c 0,-171.67 -139.21,-310.78 -310.88,-310.78 h -444.68 l 755.56,549.5" style="fill:#30286c;fill-opacity:1;fill-rule:nonzero;stroke:none" transform="matrix(0.13333333,0,0,-0.13333333,0,666.66667)" />
      <path id="path135" d="m 2007.61,3293.08 v -565.44 h -686.87 v 1098.99 h 153.33 c 294.67,0 533.54,-238.88 533.54,-533.55" style="fill:#ef2f48;fill-opacity:1;fill-rule:nonzero;stroke:none" transform="matrix(0.13333333,0,0,-0.13333333,0,666.66667)" />
      <path id="path136" d="m 1996.21,3403.11 -675.47,-675.47 v 675.47 z" style="fill:#faf4eb;fill-opacity:1;fill-rule:nonzero;stroke:none" transform="matrix(0.13333333,0,0,-0.13333333,0,666.66667)" />
      <path id="path137" d="m 2007.61,3293.08 v -565.44 h -686.87 l 675.5,675.5 c 7.48,-35.49 11.37,-72.35 11.37,-110.06" style="fill:#ef2f48;fill-opacity:1;fill-rule:nonzero;stroke:none" transform="matrix(0.13333333,0,0,-0.13333333,0,666.66667)" />
      <path id="path138" d="m 2007.61,3293.08 v -565.44 h -686.87 l 675.5,675.5 c 7.48,-35.49 11.37,-72.35 11.37,-110.06" style="fill:#30286c;fill-opacity:1;fill-rule:nonzero;stroke:none" transform="matrix(0.13333333,0,0,-0.13333333,0,666.66667)" />
      <path id="path139" d="m 1996.21,3403.11 -675.47,-675.47 v 675.47 z" style="fill:#faf4eb;fill-opacity:1;fill-rule:nonzero;stroke:none" transform="matrix(0.13333333,0,0,-0.13333333,0,666.66667)" />
      <path id="path140" d="M 1320.74,3400.6 V 2988.47 H 908.625 Z" style="fill:#ef2f48;fill-opacity:1;fill-rule:nonzero;stroke:none" transform="matrix(0.13333333,0,0,-0.13333333,0,666.66667)" />
      <path id="path141" d="M 1473.77,2880.66 V 2727.64 H 1320.74 Z" style="fill:#ef2f48;fill-opacity:1;fill-rule:nonzero;stroke:none" transform="matrix(0.13333333,0,0,-0.13333333,0,666.66667)" />
      <path id="path142" d="m 1489.42,2896.32 338.12,338.12 v -338.12 z" style="fill:#fabb34;fill-opacity:1;fill-rule:nonzero;stroke:none" transform="matrix(0.13333333,0,0,-0.13333333,0,666.66667)" />
      <path id="path143" d="m 1827.54,3234.44 -338.12,-338.12 v 338.12 z" style="fill:#ef2f48;fill-opacity:1;fill-rule:nonzero;stroke:none" transform="matrix(0.13333333,0,0,-0.13333333,0,666.66667)" />
      </g></svg>