<?xml version='1.0' encoding='utf-8'?>
<svg xmlns="http://www.w3.org/2000/svg" version="1.1" width="254.288" height="232.262" viewBox="303.300 76.720 254.288 232.262"><g id="object"><path id="path104" d="m 2567.54,3223.23 v 0 c 0,-273.71 221.89,-495.59 495.59,-495.59 h 165.2 v 495.59 h -660.79" style="fill:#30286c;fill-opacity:1;fill-rule:nonzero;stroke:none" transform="matrix(0.13333333,0,0,-0.13333333,0,666.66667)" />
      <path id="path105" d="m 3063.13,2727.64 c -273.68,0 -495.59,221.91 -495.59,495.59 l 495.59,-495.59" style="fill:#ef2f48;fill-opacity:1;fill-rule:nonzero;stroke:none" transform="matrix(0.13333333,0,0,-0.13333333,0,666.66667)" />
      <path id="path106" d="m 3228.33,3223.23 v -495.59 h 165.2 c 273.7,0 495.58,221.88 495.58,495.59 v 0 h -660.78" style="fill:#4e3d9f;fill-opacity:1;fill-rule:nonzero;stroke:none" transform="matrix(0.13333333,0,0,-0.13333333,0,666.66667)" />
      <path id="path107" d="m 3393.52,2727.64 c 273.68,0 495.59,221.91 495.59,495.59 l -495.59,-495.59" style="fill:#ef2f48;fill-opacity:1;fill-rule:nonzero;stroke:none" transform="matrix(0.13333333,0,0,-0.13333333,0,666.66667)" />
      <path id="path108" d="m 3228.33,3223.23 h -660.79 v 660.78 h 660.79 v -660.78" style="fill:#fabb34;fill-opacity:1;fill-rule:nonzero;stroke:none" transform="matrix(0.13333333,0,0,-0.13333333,0,666.66667)" />
      <path id="path109" d="m 3889.11,3223.23 h -660.78 v 660.78 h 660.78 v -660.78" style="fill:#fabb34;fill-opacity:1;fill-rule:nonzero;stroke:none" transform="matrix(0.13333333,0,0,-0.13333333,0,666.66667)" />
      <path id="path110" d="m 3228.33,3223.23 v 0 c -364.94,0 -660.79,295.84 -660.79,660.78 v 0 h 0.01 c 364.93,0 660.78,-295.84 660.78,-660.78 v 0" style="fill:#ef2f48;fill-opacity:1;fill-rule:nonzero;stroke:none" transform="matrix(0.13333333,0,0,-0.13333333,0,666.66667)" />
      <path id="path111" d="m 3063.13,3553.62 c 0,91.24 -73.96,165.2 -165.19,165.2 -91.24,0 -165.2,-73.96 -165.2,-165.2 0,-91.24 73.96,-165.2 165.2,-165.2 91.23,0 165.19,73.96 165.19,165.2" style="fill:#faf4eb;fill-opacity:1;fill-rule:nonzero;stroke:none" transform="matrix(0.13333333,0,0,-0.13333333,0,666.66667)" />
      <path id="path112" d="m 2980.53,3553.62 c 0,45.62 -36.98,82.6 -82.59,82.6 -45.62,0 -82.6,-36.98 -82.6,-82.6 0,-45.62 36.98,-82.6 82.6,-82.6 45.61,0 82.59,36.98 82.59,82.6" style="fill:#30286c;fill-opacity:1;fill-rule:nonzero;stroke:none" transform="matrix(0.13333333,0,0,-0.13333333,0,666.66667)" />
      <path id="path113" d="m 3228.33,3223.23 v 0 c 364.94,0 660.78,295.84 660.78,660.78 v 0 0 c -364.94,0 -660.78,-295.84 -660.78,-660.78 v 0" style="fill:#ef2f48;fill-opacity:1;fill-rule:nonzero;stroke:none" transform="matrix(0.13333333,0,0,-0.13333333,0,666.66667)" />
      <path id="path114" d="m 3393.52,3553.62 c 0,91.24 73.97,165.2 165.2,165.2 91.24,0 165.2,-73.96 165.2,-165.2 0,-91.24 -73.96,-165.2 -165.2,-165.2 -91.23,0 -165.2,73.96 -165.2,165.2" style="fill:#faf4eb;fill-opacity:1;fill-rule:nonzero;stroke:none" transform="matrix(0.13333333,0,0,-0.13333333,0,666.66667)" />
      <path id="path115" d="m 3476.12,3553.62 c 0,45.62 36.98,82.6 82.6,82.6 45.62,0 82.6,-36.98 82.6,-82.6 0,-45.62 -36.98,-82.6 -82.6,-82.6 -45.62,0 -82.6,36.98 -82.6,82.6" style="fill:#30286c;fill-opacity:1;fill-rule:nonzero;stroke:none" transform="matrix(0.13333333,0,0,-0.13333333,0,666.66667)" />
      <path id="path116" d="m 3063.13,3884.01 h -495.59 v 495.59 c 0,0 371.69,0 495.59,-495.59" style="fill:#ef2f48;fill-opacity:1;fill-rule:nonzero;stroke:none" transform="matrix(0.13333333,0,0,-0.13333333,0,666.66667)" />
      <path id="path117" d="m 2815.34,3884.01 h -247.8 v 247.8 c 0,0 185.85,0 247.8,-247.8" style="fill:#30286c;fill-opacity:1;fill-rule:nonzero;stroke:none" transform="matrix(0.13333333,0,0,-0.13333333,0,666.66667)" />
      <path id="path118" d="m 3393.52,3884.01 h 495.59 v 495.59 c 0,0 -371.69,0 -495.59,-495.59" style="fill:#ef2f48;fill-opacity:1;fill-rule:nonzero;stroke:none" transform="matrix(0.13333333,0,0,-0.13333333,0,666.66667)" />
      <path id="path119" d="m 3641.32,3884.01 h 247.79 v 247.8 c 0,0 -185.84,0 -247.79,-247.8" style="fill:#30286c;fill-opacity:1;fill-rule:nonzero;stroke:none" transform="matrix(0.13333333,0,0,-0.13333333,0,666.66667)" />
      <path id="path120" d="m 3306.92,2892.83 h 86.6 l -165.19,165.2 -165.19,-165.2 h 86.61 157.17" style="fill:#fabb34;fill-opacity:1;fill-rule:nonzero;stroke:none" transform="matrix(0.13333333,0,0,-0.13333333,0,666.66667)" />
      <path id="path121" d="m 3228.33,3223.23 h -660.79 v 660.78 c 0,-364.9 295.89,-660.78 660.79,-660.78" style="fill:#f46f1f;fill-opacity:1;fill-rule:nonzero;stroke:none" transform="matrix(0.13333333,0,0,-0.13333333,0,666.66667)" />
      <path id="path122" d="m 3889.11,3884.01 v -660.78 h -660.78 c 364.9,0 660.78,295.88 660.78,660.78" style="fill:#f46f1f;fill-opacity:1;fill-rule:nonzero;stroke:none" transform="matrix(0.13333333,0,0,-0.13333333,0,666.66667)" />
      <path id="path123" d="m 3063.13,3223.23 v 0 l 165.2,165.19 165.19,-165.19 v 0 c -91.23,-91.24 -239.15,-91.24 -330.39,0" style="fill:#faf4eb;fill-opacity:1;fill-rule:nonzero;stroke:none" transform="matrix(0.13333333,0,0,-0.13333333,0,666.66667)" />
      <path id="path124" d="m 2567.54,3471.02 -247.79,247.8 h 247.79 z" style="fill:#ef2f48;fill-opacity:1;fill-rule:nonzero;stroke:none" transform="matrix(0.13333333,0,0,-0.13333333,0,666.66667)" />
      <path id="path125" d="m 2567.54,3223.23 -247.79,247.79 h 247.79 z" style="fill:#ef2f48;fill-opacity:1;fill-rule:nonzero;stroke:none" transform="matrix(0.13333333,0,0,-0.13333333,0,666.66667)" />
      <path id="path126" d="m 3889.11,3471.02 247.8,247.8 h -247.8 z" style="fill:#ef2f48;fill-opacity:1;fill-rule:nonzero;stroke:none" transform="matrix(0.13333333,0,0,-0.13333333,0,666.66667)" />
      <path id="path127" d="m 3889.11,3223.23 247.8,247.79 h -247.8 z" style="fill:#ef2f48;fill-opacity:1;fill-rule:nonzero;stroke:none" transform="matrix(0.13333333,0,0,-0.13333333,0,666.66667)" />
      <path id="path211" d="m 3141.38,4118.77 v 0 0 c 144.06,0 260.84,116.77 260.84,260.83 v 0 0 c -144.06,0 -260.84,-116.78 -260.84,-260.83" style="fill:#30286c;fill-opacity:1;fill-rule:nonzero;stroke:none" transform="matrix(0.13333333,0,0,-0.13333333,0,666.66667)" />
      </g></svg>