<?xml version='1.0' encoding='utf-8'?>
<svg xmlns="http://www.w3.org/2000/svg" version="1.1" width="197.486" height="255.447" viewBox="760.632 53.535 197.486 255.447"><g id="object"><path id="path172" d="m 5907.12,4066.09 c -122.57,0 -197.84,-134.22 -133.92,-238.8 l 672.11,-1099.65 v 1338.45 h -538.19" style="fill:#30286c;fill-opacity:1;fill-rule:nonzero;stroke:none" transform="matrix(0.13333333,0,0,-0.13333333,0,666.66667)" />
      <path id="path173" d="M 6983.5,4066.09 H 6445.31 V 2727.64 l 672.11,1099.65 c 63.91,104.58 -11.35,238.8 -133.92,238.8" style="fill:#30286c;fill-opacity:1;fill-rule:nonzero;stroke:none" transform="matrix(0.13333333,0,0,-0.13333333,0,666.66667)" />
      <path id="path174" d="m 5907.12,4066.09 c -122.57,0 -197.84,-134.22 -133.92,-238.8 l 672.11,-1099.65 v 1338.45 h -538.19" style="fill:#30286c;fill-opacity:1;fill-rule:nonzero;stroke:none" transform="matrix(0.13333333,0,0,-0.13333333,0,666.66667)" />
      <path id="path175" d="M 6983.5,4066.09 H 6445.31 V 2727.64 l 672.11,1099.65 c 63.91,104.58 -11.35,238.8 -133.92,238.8" style="fill:#fabb34;fill-opacity:1;fill-rule:nonzero;stroke:none" transform="matrix(0.13333333,0,0,-0.13333333,0,666.66667)" />
      <path id="path176" d="m 6841.1,3375.19 -395.79,-647.55 -395.79,647.55 395.79,221.9 395.79,-221.9" style="fill:#ef2f48;fill-opacity:1;fill-rule:nonzero;stroke:none" transform="matrix(0.13333333,0,0,-0.13333333,0,666.66667)" />
      <path id="path177" d="m 5749.74,4553.49 v 0 0 c 0,-267.23 216.64,-483.87 483.87,-483.87 h 0.01 v 0 c 0,267.24 -216.64,483.87 -483.88,483.87" style="fill:#fabb34;fill-opacity:1;fill-rule:nonzero;stroke:none" transform="matrix(0.13333333,0,0,-0.13333333,0,666.66667)" />
      <path id="path178" d="m 7140.88,4553.49 v 0 0 c 0,-267.23 -216.65,-483.87 -483.88,-483.87 v 0 0 c 0,267.24 216.64,483.87 483.88,483.87" style="fill:#ef2f48;fill-opacity:1;fill-rule:nonzero;stroke:none" transform="matrix(0.13333333,0,0,-0.13333333,0,666.66667)" />
      <path id="path179" d="m 6358.37,3770.98 h -365.88 v 0 c 0,-67.35 54.6,-121.95 121.96,-121.95 h 121.95 c 67.36,0 121.97,54.6 121.97,121.95 v 0" style="fill:#fabb34;fill-opacity:1;fill-rule:nonzero;stroke:none" transform="matrix(0.13333333,0,0,-0.13333333,0,666.66667)" />
      <path id="path180" d="m 6966.98,3770.98 h -365.87 v 0 c 0,-67.35 54.6,-121.95 121.95,-121.95 h 121.97 c 67.35,0 121.95,54.6 121.95,121.95 v 0" style="fill:#ef2f48;fill-opacity:1;fill-rule:nonzero;stroke:none" transform="matrix(0.13333333,0,0,-0.13333333,0,666.66667)" />
      <path id="path181" d="m 6322.35,3300.24 122.96,-122.96 v 245.92 z" style="fill:#fabb34;fill-opacity:1;fill-rule:nonzero;stroke:none" transform="matrix(0.13333333,0,0,-0.13333333,0,666.66667)" />
      <path id="path182" d="m 6445.31,3423.2 v -245.92 l 122.96,122.96 z" style="fill:#30286c;fill-opacity:1;fill-rule:nonzero;stroke:none" transform="matrix(0.13333333,0,0,-0.13333333,0,666.66667)" />
      <path id="path207" d="m 5749.74,2727.64 c 0,111.4 90.31,201.71 201.72,201.71 111.4,0 201.71,-90.31 201.71,-201.71 h -403.43" style="fill:#30286c;fill-opacity:1;fill-rule:nonzero;stroke:none" transform="matrix(0.13333333,0,0,-0.13333333,0,666.66667)" />
      <path id="path208" d="m 5850.6,2727.64 c 0,55.7 45.16,100.85 100.86,100.85 55.7,0 100.85,-45.15 100.85,-100.85 H 5850.6" style="fill:#ef2f48;fill-opacity:1;fill-rule:nonzero;stroke:none" transform="matrix(0.13333333,0,0,-0.13333333,0,666.66667)" />
      <path id="path209" d="m 6737.45,2727.64 c 0,111.4 90.3,201.71 201.71,201.71 111.4,0 201.72,-90.31 201.72,-201.71 h -403.43" style="fill:#30286c;fill-opacity:1;fill-rule:nonzero;stroke:none" transform="matrix(0.13333333,0,0,-0.13333333,0,666.66667)" />
      <path id="path210" d="m 6838.3,2727.64 c 0,55.7 45.15,100.85 100.86,100.85 55.7,0 100.86,-45.15 100.86,-100.85 H 6838.3" style="fill:#ef2f48;fill-opacity:1;fill-rule:nonzero;stroke:none" transform="matrix(0.13333333,0,0,-0.13333333,0,666.66667)" />
      </g></svg>