<?xml version='1.0' encoding='utf-8'?>
<svg xmlns="http://www.w3.org/2000/svg" version="1.1" width="84.917" height="103.213" viewBox="141.565 523.265 84.917 103.213"><g id="object"><path id="path102" d="M 1106.74,893.289 V 619.852 c 0,-151.012 122.43,-273.442 273.45,-273.442 v 0 273.442 c 0,151.019 -122.43,273.437 -273.45,273.437 v 0" style="fill:#ef2c8f;fill-opacity:1;fill-rule:nonzero;stroke:none" transform="matrix(0.13333333,0,0,-0.13333333,0,666.66667)" />
      <path id="path103" d="m 1653.62,893.289 v 0 c -151.01,0 -273.43,-122.418 -273.43,-273.437 v -273.442 0 c 151.01,0 273.43,122.43 273.43,273.442 v 273.437" style="fill:#2c314f;fill-opacity:1;fill-rule:nonzero;stroke:none" transform="matrix(0.13333333,0,0,-0.13333333,0,666.66667)" />
      <path id="path104" d="m 1445.46,966.66 c 0,-35.262 -28.58,-63.84 -63.84,-63.84 -35.27,0 -63.85,28.578 -63.85,63.84 0,35.26 28.58,63.85 63.85,63.85 35.26,0 63.84,-28.59 63.84,-63.85" style="fill:#37b5e5;fill-opacity:1;fill-rule:nonzero;stroke:none" transform="matrix(0.13333333,0,0,-0.13333333,0,666.66667)" />
      </g></svg>