<?xml version='1.0' encoding='utf-8'?>
<svg xmlns="http://www.w3.org/2000/svg" version="1.1" width="108.022" height="108.021" viewBox="361.955 39.269 108.022 108.021"><g id="object"><path id="path32" d="m 3239.77,4540.46 c 0,-66.29 -120.03,-240.06 -120.03,-240.06 0,0 -120.02,173.77 -120.02,240.06 0,66.29 53.73,120.02 120.02,120.02 66.29,0 120.03,-53.73 120.03,-120.02" style="fill:#f9aa0c;fill-opacity:1;fill-rule:nonzero;stroke:none" transform="matrix(0.13333333,0,0,-0.13333333,0,666.66667)" />
      <path id="path33" d="m 2999.72,4060.35 c 0,66.29 120.02,240.05 120.02,240.05 0,0 120.03,-173.76 120.03,-240.05 0,-66.29 -53.74,-120.03 -120.03,-120.03 -66.29,0 -120.02,53.74 -120.02,120.03" style="fill:#f9aa0c;fill-opacity:1;fill-rule:nonzero;stroke:none" transform="matrix(0.13333333,0,0,-0.13333333,0,666.66667)" />
      <path id="path34" d="m 2879.69,4420.43 c 66.29,0 240.05,-120.03 240.05,-120.03 0,0 -173.76,-120.02 -240.05,-120.02 -66.29,0 -120.03,53.73 -120.03,120.02 0,66.29 53.74,120.03 120.03,120.03" style="fill:#f57930;fill-opacity:1;fill-rule:nonzero;stroke:none" transform="matrix(0.13333333,0,0,-0.13333333,0,666.66667)" />
      <path id="path35" d="m 3359.8,4180.38 c -66.29,0 -240.06,120.02 -240.06,120.02 0,0 173.77,120.03 240.06,120.03 66.29,0 120.03,-53.74 120.03,-120.03 0,-66.29 -53.74,-120.02 -120.03,-120.02" style="fill:#f57930;fill-opacity:1;fill-rule:nonzero;stroke:none" transform="matrix(0.13333333,0,0,-0.13333333,0,666.66667)" />
      <path id="path36" d="m 3034.87,4555.02 c 46.87,-46.88 84.87,-254.62 84.87,-254.62 0,0 -207.74,38.01 -254.61,84.87 -46.88,46.88 -46.88,122.87 0,169.75 46.87,46.87 122.87,46.87 169.74,0" style="fill:#782d99;fill-opacity:1;fill-rule:nonzero;stroke:none" transform="matrix(0.13333333,0,0,-0.13333333,0,666.66667)" />
      <path id="path37" d="m 3204.62,4045.79 c -46.88,46.87 -84.88,254.61 -84.88,254.61 0,0 207.75,-37.99 254.62,-84.86 46.87,-46.88 46.87,-122.88 0,-169.75 -46.87,-46.88 -122.87,-46.88 -169.74,0" style="fill:#782d99;fill-opacity:1;fill-rule:nonzero;stroke:none" transform="matrix(0.13333333,0,0,-0.13333333,0,666.66667)" />
      <path id="path38" d="m 2865.13,4215.54 c 46.87,46.87 254.61,84.86 254.61,84.86 0,0 -38,-207.74 -84.87,-254.61 -46.87,-46.88 -122.87,-46.88 -169.74,0 -46.88,46.87 -46.88,122.87 0,169.75" style="fill:#ed1b29;fill-opacity:1;fill-rule:nonzero;stroke:none" transform="matrix(0.13333333,0,0,-0.13333333,0,666.66667)" />
      <path id="path39" d="m 3374.36,4385.27 c -46.87,-46.86 -254.62,-84.87 -254.62,-84.87 0,0 38,207.74 84.88,254.62 46.87,46.87 122.87,46.87 169.74,0 46.87,-46.88 46.87,-122.87 0,-169.75" style="fill:#ed1b29;fill-opacity:1;fill-rule:nonzero;stroke:none" transform="matrix(0.13333333,0,0,-0.13333333,0,666.66667)" />
      <path id="path40" d="m 3254.77,4300.4 c 0,-74.57 -60.45,-135.02 -135.03,-135.02 -74.57,0 -135.03,60.45 -135.03,135.02 0,74.58 60.46,135.04 135.03,135.04 74.58,0 135.03,-60.46 135.03,-135.04" style="fill:#fffbf4;fill-opacity:1;fill-rule:nonzero;stroke:none" transform="matrix(0.13333333,0,0,-0.13333333,0,666.66667)" />
      <path id="path41" d="m 3209.76,4300.4 c 0,-49.72 -40.3,-90.02 -90.02,-90.02 -49.71,0 -90.02,40.3 -90.02,90.02 0,49.72 40.31,90.03 90.02,90.03 49.72,0 90.02,-40.31 90.02,-90.03" style="fill:#782d99;fill-opacity:1;fill-rule:nonzero;stroke:none" transform="matrix(0.13333333,0,0,-0.13333333,0,666.66667)" />
      </g></svg>