<?xml version='1.0' encoding='utf-8'?>
<svg xmlns="http://www.w3.org/2000/svg" version="1.1" width="97.802" height="97.801" viewBox="325.220 528.192 97.802 97.801"><g id="object"><path id="path44" d="m 2484.15,671.801 v 0 0 c 0,-177.699 144.06,-321.75 321.76,-321.75 v 0 0 c 0,177.687 -144.06,321.75 -321.76,321.75" style="fill:#39b7ed;fill-opacity:1;fill-rule:nonzero;stroke:none" transform="matrix(0.13333333,0,0,-0.13333333,0,666.66667)" />
      <path id="path45" d="m 3127.67,671.801 v 0 0 c 0,-177.699 -144.06,-321.75 -321.76,-321.75 v 0 0 c 0,177.687 144.06,321.75 321.76,321.75" style="fill:#39b7ed;fill-opacity:1;fill-rule:nonzero;stroke:none" transform="matrix(0.13333333,0,0,-0.13333333,0,666.66667)" />
      <path id="path46" d="m 2484.15,993.559 v 0 0 c 0,-177.7 144.06,-321.758 321.76,-321.758 v 0 0 c 0,177.699 -144.06,321.758 -321.76,321.758" style="fill:#1f254c;fill-opacity:1;fill-rule:nonzero;stroke:none" transform="matrix(0.13333333,0,0,-0.13333333,0,666.66667)" />
      <path id="path47" d="m 3127.67,993.559 v 0 0 c 0,-177.7 -144.06,-321.758 -321.76,-321.758 v 0 0 c 0,177.699 144.06,321.758 321.76,321.758" style="fill:#1f254c;fill-opacity:1;fill-rule:nonzero;stroke:none" transform="matrix(0.13333333,0,0,-0.13333333,0,666.66667)" />
      </g></svg>