<?xml version='1.0' encoding='utf-8'?>
<svg xmlns="http://www.w3.org/2000/svg" version="1.1" width="100.312" height="100.312" viewBox="329.996 50.447 100.312 100.312"><g id="object"><path id="path109" d="m 2685.55,4411.07 c -91.45,0 -165.58,-74.14 -165.58,-165.59 0,-91.44 74.13,-165.58 165.58,-165.58 0,-91.45 74.13,-165.59 165.58,-165.59 91.45,0 165.59,74.14 165.59,165.59 91.45,0 165.59,74.14 165.59,165.58 0,91.45 -74.14,165.59 -165.59,165.59 0,91.45 -74.14,165.58 -165.59,165.58 -91.45,0 -165.58,-74.13 -165.58,-165.58" style="fill:#423f9f;fill-opacity:1;fill-rule:nonzero;stroke:none" transform="matrix(0.13333333,0,0,-0.13333333,0,666.66667)" />
      <path id="path110" d="m 3017.18,4079.51 c -2.6,-2.6 -5.3,-5.12 -7.99,-7.63 -92.08,-83.99 -235,-81.48 -324.02,7.63 -87.77,87.68 -91.54,227.63 -11.23,319.9 0.08,0.09 0.18,0.27 0.27,0.35 1.52,1.71 2.96,3.42 4.58,5.03 1.97,2.34 4.13,4.5 6.38,6.74 91.62,91.63 240.3,91.63 332.01,0 91.63,-91.72 91.63,-240.39 0,-332.02" style="fill:#f8a020;fill-opacity:1;fill-rule:nonzero;stroke:none" transform="matrix(0.13333333,0,0,-0.13333333,0,666.66667)" />
      <path id="path111" d="m 3017.18,4079.51 c -2.6,-2.6 -5.3,-5.12 -7.99,-7.63 l -327.53,327.53 h -7.72 c 0.08,0.09 0.18,0.27 0.27,0.35 1.52,1.71 2.96,3.42 4.58,5.03 1.97,2.34 4.13,4.5 6.38,6.74 91.62,91.63 240.3,91.63 332.01,0 91.63,-91.72 91.63,-240.39 0,-332.02" style="fill:#ee2238;fill-opacity:1;fill-rule:nonzero;stroke:none" transform="matrix(0.13333333,0,0,-0.13333333,0,666.66667)" />
      <path id="path112" d="m 2902.8,4297.16 c 28.54,-28.54 28.54,-74.81 0,-103.34 -28.53,-28.54 -74.8,-28.54 -103.34,0 -28.53,28.53 -28.53,74.8 0,103.34 28.54,28.53 74.81,28.53 103.34,0" style="fill:#fbf5f7;fill-opacity:1;fill-rule:nonzero;stroke:none" transform="matrix(0.13333333,0,0,-0.13333333,0,666.66667)" />
      </g></svg>