<?xml version='1.0' encoding='utf-8'?>
<svg xmlns="http://www.w3.org/2000/svg" version="1.1" width="140.073" height="171.175" viewBox="37.239 351.021 140.073 171.175"><g id="object"><path id="path144" d="M 1044.69,2082.2 804.559,2322.34 564.422,2082.2 804.559,1601.94 1044.69,2082.2" style="fill:#3ebeb9;fill-opacity:1;fill-rule:nonzero;stroke:none" transform="matrix(0.13333333,0,0,-0.13333333,0,666.66667)" />
      <path id="path145" d="m 964.645,1922.12 -160.086,160.08 -160.09,-160.08 160.09,-320.18 160.086,320.18" style="fill:#fab20b;fill-opacity:1;fill-rule:nonzero;stroke:none" transform="matrix(0.13333333,0,0,-0.13333333,0,666.66667)" />
      <path id="path146" d="M 804.559,1601.94 324.289,2082.2 H 564.422 Z" style="fill:#1b527c;fill-opacity:1;fill-rule:nonzero;stroke:none" transform="matrix(0.13333333,0,0,-0.13333333,0,666.66667)" />
      <path id="path147" d="M 1044.69,2082.2 804.559,1601.94 1284.83,2082.2" style="fill:#1b527c;fill-opacity:1;fill-rule:nonzero;stroke:none" transform="matrix(0.13333333,0,0,-0.13333333,0,666.66667)" />
      <path id="path153" d="m 521.539,1680.84 v 0 0 c 0,-152.52 123.637,-276.16 276.156,-276.16 v 0 0 c 0,152.51 -123.636,276.16 -276.156,276.16" style="fill:#3ebeb9;fill-opacity:1;fill-rule:nonzero;stroke:none" transform="matrix(0.13333333,0,0,-0.13333333,0,666.66667)" />
      <path id="path154" d="m 797.695,1404.68 c -152.5,0 -276.156,123.66 -276.156,276.16 76.25,0 145.289,-30.92 195.305,-80.85 49.941,-50.02 80.851,-119.06 80.851,-195.31" style="fill:#3ebeb9;fill-opacity:1;fill-rule:nonzero;stroke:none" transform="matrix(0.13333333,0,0,-0.13333333,0,666.66667)" />
      <path id="path155" d="m 797.695,1404.68 -276.156,276.16 c 76.25,0 145.289,-30.92 195.305,-80.85 49.941,-50.02 80.851,-119.06 80.851,-195.31" style="fill:#286aaa;fill-opacity:1;fill-rule:nonzero;stroke:none" transform="matrix(0.13333333,0,0,-0.13333333,0,666.66667)" />
      <path id="path156" d="m 521.539,1404.68 v 0 0 c 0,-152.52 123.637,-276.15 276.156,-276.15 v 0 0 c 0,152.51 -123.636,276.15 -276.156,276.15" style="fill:#3ebeb9;fill-opacity:1;fill-rule:nonzero;stroke:none" transform="matrix(0.13333333,0,0,-0.13333333,0,666.66667)" />
      <path id="path157" d="m 797.695,1128.53 c -152.5,0 -276.156,123.65 -276.156,276.15 76.25,0 145.289,-30.91 195.305,-80.85 49.941,-50.01 80.851,-119.05 80.851,-195.3" style="fill:#3ebeb9;fill-opacity:1;fill-rule:nonzero;stroke:none" transform="matrix(0.13333333,0,0,-0.13333333,0,666.66667)" />
      <path id="path158" d="m 797.695,1128.53 -276.156,276.15 c 76.25,0 145.289,-30.91 195.305,-80.85 49.941,-50.01 80.851,-119.05 80.851,-195.3" style="fill:#286aaa;fill-opacity:1;fill-rule:nonzero;stroke:none" transform="matrix(0.13333333,0,0,-0.13333333,0,666.66667)" />
      <path id="path159" d="m 1073.85,1680.84 v 0 0 c 0,-152.52 -123.639,-276.16 -276.155,-276.16 v 0 0 c 0,152.51 123.641,276.16 276.155,276.16" style="fill:#3ebeb9;fill-opacity:1;fill-rule:nonzero;stroke:none" transform="matrix(0.13333333,0,0,-0.13333333,0,666.66667)" />
      <path id="path160" d="m 797.695,1404.68 c 152.496,0 276.155,123.66 276.155,276.16 -76.252,0 -145.287,-30.92 -195.303,-80.85 -49.938,-50.02 -80.852,-119.06 -80.852,-195.31" style="fill:#3ebeb9;fill-opacity:1;fill-rule:nonzero;stroke:none" transform="matrix(0.13333333,0,0,-0.13333333,0,666.66667)" />
      <path id="path161" d="m 797.695,1404.68 276.155,276.16 c -76.252,0 -145.287,-30.92 -195.303,-80.85 -49.938,-50.02 -80.852,-119.06 -80.852,-195.31" style="fill:#286aaa;fill-opacity:1;fill-rule:nonzero;stroke:none" transform="matrix(0.13333333,0,0,-0.13333333,0,666.66667)" />
      <path id="path162" d="m 1073.85,1404.68 v 0 0 c 0,-152.52 -123.639,-276.15 -276.155,-276.15 v 0 0 c 0,152.51 123.641,276.15 276.155,276.15" style="fill:#3ebeb9;fill-opacity:1;fill-rule:nonzero;stroke:none" transform="matrix(0.13333333,0,0,-0.13333333,0,666.66667)" />
      <path id="path163" d="m 797.695,1128.53 c 152.496,0 276.155,123.65 276.155,276.15 -76.252,0 -145.287,-30.91 -195.303,-80.85 -49.938,-50.01 -80.852,-119.05 -80.852,-195.3" style="fill:#3ebeb9;fill-opacity:1;fill-rule:nonzero;stroke:none" transform="matrix(0.13333333,0,0,-0.13333333,0,666.66667)" />
      <path id="path164" d="m 797.695,1128.53 276.155,276.15 c -76.252,0 -145.287,-30.91 -195.303,-80.85 -49.938,-50.01 -80.852,-119.05 -80.852,-195.3" style="fill:#286aaa;fill-opacity:1;fill-rule:nonzero;stroke:none" transform="matrix(0.13333333,0,0,-0.13333333,0,666.66667)" />
      </g></svg>