<?xml version='1.0' encoding='utf-8'?>
<svg xmlns="http://www.w3.org/2000/svg" version="1.1" width="46.715" height="46.715" viewBox="268.224 136.895 46.715 46.715"><g id="object"><path id="path97" d="m 2317.04,3798.11 c 0,71.89 -58.29,130.18 -130.18,130.18 -71.9,0 -130.18,-58.29 -130.18,-130.18 0,-71.9 58.28,-130.18 130.18,-130.18 71.89,0 130.18,58.28 130.18,130.18" style="fill:#3f7cc8;fill-opacity:1;fill-rule:nonzero;stroke:none" transform="matrix(0.13333333,0,0,-0.13333333,0,666.66667)" />
      <path id="path99" d="m 2317.02,3797.78 c 0,0.11 0.02,0.22 0.02,0.33 0,71.9 -58.29,130.18 -130.18,130.18 -71.9,0 -130.18,-58.28 -130.18,-130.18 0,-0.11 0.02,-0.22 0.02,-0.33 h 260.32" style="fill:#f36717;fill-opacity:1;fill-rule:nonzero;stroke:none" transform="matrix(0.13333333,0,0,-0.13333333,0,666.66667)" />
      </g></svg>