<?xml version='1.0' encoding='utf-8'?>
<svg xmlns="http://www.w3.org/2000/svg" version="1.1" width="127.397" height="153.574" viewBox="561.423 189.273 127.397 153.574"><g id="object"><path id="path61" d="m 4688.4,3535.45 v 0 0 c -252.23,-252.25 -252.23,-661.21 0,-913.44 v -0.01 0.01 c 252.24,252.23 252.24,661.19 0,913.44" style="fill:#f68b11;fill-opacity:1;fill-rule:nonzero;stroke:none" transform="matrix(0.13333333,0,0,-0.13333333,0,666.66667)" />
      <path id="path62" d="m 4688.4,3171.83 v 0 0 c -151.82,-151.83 -151.82,-398 0,-549.82 v -0.01 0.01 c 151.84,151.82 151.84,397.99 0,549.82" style="fill:#1f254c;fill-opacity:1;fill-rule:nonzero;stroke:none" transform="matrix(0.13333333,0,0,-0.13333333,0,666.66667)" />
      <path id="path63" d="m 4255.67,3027.37 v 0 0 c 0,-209.89 170.15,-380.03 380.04,-380.03 v 0 0 c 0,209.88 -170.16,380.03 -380.04,380.03" style="fill:#39b7ed;fill-opacity:1;fill-rule:nonzero;stroke:none" transform="matrix(0.13333333,0,0,-0.13333333,0,666.66667)" />
      <path id="path64" d="m 5121.15,3027.37 v 0 0 c 0,-209.89 -170.16,-380.03 -380.04,-380.03 v 0 0 c 0,209.88 170.15,380.03 380.04,380.03" style="fill:#39b7ed;fill-opacity:1;fill-rule:nonzero;stroke:none" transform="matrix(0.13333333,0,0,-0.13333333,0,666.66667)" />
      <path id="path65" d="m 4762.58,2473.65 h -148.36 c -122.91,0 -222.53,99.63 -222.53,222.54 v 0 h 593.44 v 0 c 0,-122.91 -99.64,-222.54 -222.55,-222.54" style="fill:#ee2238;fill-opacity:1;fill-rule:nonzero;stroke:none" transform="matrix(0.13333333,0,0,-0.13333333,0,666.66667)" />
      </g></svg>