<?xml version='1.0' encoding='utf-8'?>
<svg xmlns="http://www.w3.org/2000/svg" version="1.1" width="129.803" height="218.156" viewBox="35.558 412.313 129.803 218.156"><g id="object"><path id="path42" d="m 863.895,1641.77 c 0,121.99 -49.45,220.88 -110.446,220.88 -60.992,0 -110.441,-98.89 -110.441,-220.88 0,-121.99 49.449,-220.88 110.441,-220.88 60.996,0 110.446,98.89 110.446,220.88" style="fill:#ef304d;fill-opacity:1;fill-rule:nonzero;stroke:none" transform="matrix(0.13333333,0,0,-0.13333333,0,666.66667)" />
      <path id="path43" d="m 863.895,1200.01 c 0,121.99 -49.45,220.88 -110.446,220.88 -60.992,0 -110.441,-98.89 -110.441,-220.88 0,-122 49.449,-220.881 110.441,-220.881 60.996,0 110.446,98.881 110.446,220.881" style="fill:#ef304d;fill-opacity:1;fill-rule:nonzero;stroke:none" transform="matrix(0.13333333,0,0,-0.13333333,0,666.66667)" />
      <path id="path44" d="m 532.57,1531.33 c -121.992,0 -220.882,-49.45 -220.882,-110.44 0,-60.99 98.89,-110.44 220.882,-110.44 121.989,0 220.879,49.45 220.879,110.44 0,60.99 -98.89,110.44 -220.879,110.44" style="fill:#ef304d;fill-opacity:1;fill-rule:nonzero;stroke:none" transform="matrix(0.13333333,0,0,-0.13333333,0,666.66667)" />
      <path id="path45" d="m 974.332,1531.33 c -121.992,0 -220.883,-49.45 -220.883,-110.44 0,-60.99 98.891,-110.44 220.883,-110.44 121.988,0 220.878,49.45 220.878,110.44 0,60.99 -98.89,110.44 -220.878,110.44" style="fill:#ef304d;fill-opacity:1;fill-rule:nonzero;stroke:none" transform="matrix(0.13333333,0,0,-0.13333333,0,666.66667)" />
      <path id="path46" d="m 519.172,1342.8 c -86.262,-86.26 -121.227,-191.15 -78.098,-234.29 43.129,-43.12 148.024,-8.16 234.285,78.1 86.258,86.26 121.219,191.15 78.09,234.28 -43.129,43.13 -148.019,8.17 -234.277,-78.09" style="fill:#2e71ab;fill-opacity:1;fill-rule:nonzero;stroke:none" transform="matrix(0.13333333,0,0,-0.13333333,0,666.66667)" />
      <path id="path47" d="m 831.543,1655.17 c -86.258,-86.26 -121.223,-191.15 -78.094,-234.28 43.129,-43.13 148.024,-8.17 234.281,78.09 86.26,86.26 121.22,191.15 78.09,234.28 -43.13,43.13 -148.015,8.17 -234.277,-78.09" style="fill:#2e71ab;fill-opacity:1;fill-rule:nonzero;stroke:none" transform="matrix(0.13333333,0,0,-0.13333333,0,666.66667)" />
      <path id="path48" d="m 675.359,1655.17 c -86.261,86.26 -191.156,121.22 -234.285,78.09 -43.129,-43.13 -8.164,-148.02 78.098,-234.28 86.258,-86.26 191.148,-121.22 234.277,-78.09 43.129,43.13 8.168,148.02 -78.09,234.28" style="fill:#2e71ab;fill-opacity:1;fill-rule:nonzero;stroke:none" transform="matrix(0.13333333,0,0,-0.13333333,0,666.66667)" />
      <path id="path49" d="m 987.73,1342.8 c -86.257,86.26 -191.152,121.22 -234.281,78.09 -43.129,-43.13 -8.164,-148.02 78.094,-234.28 86.262,-86.26 191.147,-121.22 234.277,-78.1 43.13,43.14 8.17,148.03 -78.09,234.29" style="fill:#2e71ab;fill-opacity:1;fill-rule:nonzero;stroke:none" transform="matrix(0.13333333,0,0,-0.13333333,0,666.66667)" />
      <path id="path50" d="m 919.113,1420.89 c 0,91.49 -74.172,165.66 -165.664,165.66 -91.488,0 -165.66,-74.17 -165.66,-165.66 0,-91.49 74.172,-165.66 165.66,-165.66 91.492,0 165.664,74.17 165.664,165.66" style="fill:#fffcf6;fill-opacity:1;fill-rule:nonzero;stroke:none" transform="matrix(0.13333333,0,0,-0.13333333,0,666.66667)" />
      <path id="path51" d="m 808.668,1420.89 c 0,30.49 -24.723,55.22 -55.219,55.22 -30.5,0 -55.219,-24.73 -55.219,-55.22 0,-30.5 24.719,-55.22 55.219,-55.22 30.496,0 55.219,24.72 55.219,55.22" style="fill:#2e71ab;fill-opacity:1;fill-rule:nonzero;stroke:none" transform="matrix(0.13333333,0,0,-0.13333333,0,666.66667)" />
      <path id="path52" d="m 753.449,647.809 v 0 c -182.984,0 -331.32,148.332 -331.32,331.32 v 0 0 c 182.984,0 331.32,-148.34 331.32,-331.32 v 0" style="fill:#ef304d;fill-opacity:1;fill-rule:nonzero;stroke:none" transform="matrix(0.13333333,0,0,-0.13333333,0,666.66667)" />
      <path id="path53" d="m 753.449,647.809 v 0 c 182.985,0 331.321,148.332 331.321,331.32 v 0 0 c -182.981,0 -331.321,-148.34 -331.321,-331.32 v 0" style="fill:#f89b0f;fill-opacity:1;fill-rule:nonzero;stroke:none" transform="matrix(0.13333333,0,0,-0.13333333,0,666.66667)" />
      <path id="path54" d="m 753.449,316.48 v 0 c -182.984,0 -331.32,148.34 -331.32,331.321 v 0.008 0 c 182.984,0 331.32,-148.34 331.32,-331.329 v 0" style="fill:#ef304d;fill-opacity:1;fill-rule:nonzero;stroke:none" transform="matrix(0.13333333,0,0,-0.13333333,0,666.66667)" />
      <path id="path55" d="m 753.449,316.48 v 0 c 182.985,0 331.321,148.34 331.321,331.321 v 0.008 0 c -182.981,0 -331.321,-148.34 -331.321,-331.329 v 0" style="fill:#f89b0f;fill-opacity:1;fill-rule:nonzero;stroke:none" transform="matrix(0.13333333,0,0,-0.13333333,0,666.66667)" />
      </g></svg>