<?xml version='1.0' encoding='utf-8'?>
<svg xmlns="http://www.w3.org/2000/svg" version="1.1" width="110.925" height="197.482" viewBox="61.359 415.649 110.925 197.482"><g id="object"><path id="path57" d="M 876.164,1188.44 H 720.832 c -119.094,0 -215.637,96.55 -215.637,215.64 v 155.33 h 155.332 c 119.094,0 215.637,-96.54 215.637,-215.63 v -155.34" style="fill:#f46f1f;fill-opacity:1;fill-rule:nonzero;stroke:none" transform="matrix(0.13333333,0,0,-0.13333333,0,666.66667)" />
      <path id="path58" d="M 876.164,1188.44 H 720.82 c -119.07,0 -215.625,96.56 -215.625,215.63 v 155.34 l 370.969,-370.97" style="fill:#ef2f48;fill-opacity:1;fill-rule:nonzero;stroke:none" transform="matrix(0.13333333,0,0,-0.13333333,0,666.66667)" />
      <path id="path59" d="M 876.164,1188.44 H 720.82 c -119.07,0 -215.625,96.56 -215.625,215.63 v 155.34 l 370.969,-370.97" style="fill:#fabb34;fill-opacity:1;fill-rule:nonzero;stroke:none" transform="matrix(0.13333333,0,0,-0.13333333,0,666.66667)" />
      <path id="path60" d="M 876.164,1188.44 H 1031.5 c 119.09,0 215.63,96.55 215.63,215.64 v 155.33 H 1091.8 c -119.093,0 -215.636,-96.54 -215.636,-215.63 v -155.34" style="fill:#f46f1f;fill-opacity:1;fill-rule:nonzero;stroke:none" transform="matrix(0.13333333,0,0,-0.13333333,0,666.66667)" />
      <path id="path61" d="M 1247.13,1559.41 876.164,1188.44 v 155.35 c 0,119.07 96.551,215.62 215.626,215.62 h 155.34" style="fill:#f03754;fill-opacity:1;fill-rule:nonzero;stroke:none" transform="matrix(0.13333333,0,0,-0.13333333,0,666.66667)" />
      <path id="path62" d="M 1247.13,1559.41 876.164,1188.44 v 155.35 c 0,119.07 96.551,215.62 215.626,215.62 h 155.34" style="fill:#fabb34;fill-opacity:1;fill-rule:nonzero;stroke:none" transform="matrix(0.13333333,0,0,-0.13333333,0,666.66667)" />
      <path id="path63" d="M 876.164,446.512 H 720.832 c -119.094,0 -215.637,96.539 -215.637,215.636 V 817.48 h 155.332 c 119.094,0 215.637,-96.55 215.637,-215.64 V 446.512" style="fill:#ef2f48;fill-opacity:1;fill-rule:nonzero;stroke:none" transform="matrix(0.13333333,0,0,-0.13333333,0,666.66667)" />
      <path id="path64" d="M 876.164,446.512 H 720.82 c -119.07,0 -215.625,96.547 -215.625,215.629 V 817.48 L 876.164,446.512" style="fill:#ef2f48;fill-opacity:1;fill-rule:nonzero;stroke:none" transform="matrix(0.13333333,0,0,-0.13333333,0,666.66667)" />
      <path id="path65" d="M 876.164,446.512 H 720.82 c -119.07,0 -215.625,96.547 -215.625,215.629 V 817.48 L 876.164,446.512" style="fill:#f46f1f;fill-opacity:1;fill-rule:nonzero;stroke:none" transform="matrix(0.13333333,0,0,-0.13333333,0,666.66667)" />
      <path id="path66" d="M 876.164,446.512 H 1031.5 c 119.09,0 215.63,96.539 215.63,215.636 V 817.48 H 1091.8 c -119.093,0 -215.636,-96.55 -215.636,-215.64 V 446.512" style="fill:#f46f1f;fill-opacity:1;fill-rule:nonzero;stroke:none" transform="matrix(0.13333333,0,0,-0.13333333,0,666.66667)" />
      <path id="path67" d="M 1247.13,817.48 876.164,446.512 v 155.34 c 0,119.07 96.551,215.628 215.626,215.628 h 155.34" style="fill:#f03754;fill-opacity:1;fill-rule:nonzero;stroke:none" transform="matrix(0.13333333,0,0,-0.13333333,0,666.66667)" />
      <path id="path68" d="M 1247.13,817.48 876.164,446.512 v 155.34 c 0,119.07 96.551,215.628 215.626,215.628 h 155.34" style="fill:#ef2f48;fill-opacity:1;fill-rule:nonzero;stroke:none" transform="matrix(0.13333333,0,0,-0.13333333,0,666.66667)" />
      <path id="path69" d="M 876.164,817.48 H 720.832 c -119.094,0 -215.637,96.54 -215.637,215.63 v 155.33 h 155.332 c 119.094,0 215.637,-96.54 215.637,-215.631 V 817.48" style="fill:#30286c;fill-opacity:1;fill-rule:nonzero;stroke:none" transform="matrix(0.13333333,0,0,-0.13333333,0,666.66667)" />
      <path id="path70" d="M 876.164,817.48 H 720.82 c -119.07,0 -215.625,96.551 -215.625,215.62 v 155.34 L 876.164,817.48" style="fill:#ef2f48;fill-opacity:1;fill-rule:nonzero;stroke:none" transform="matrix(0.13333333,0,0,-0.13333333,0,666.66667)" />
      <path id="path71" d="M 876.164,817.48 H 720.82 c -119.07,0 -215.625,96.551 -215.625,215.62 v 155.34 L 876.164,817.48" style="fill:#4e3d9f;fill-opacity:1;fill-rule:nonzero;stroke:none" transform="matrix(0.13333333,0,0,-0.13333333,0,666.66667)" />
      <path id="path72" d="M 876.164,817.48 H 1031.5 c 119.09,0 215.63,96.54 215.63,215.63 v 155.33 H 1091.8 c -119.093,0 -215.636,-96.54 -215.636,-215.631 V 817.48" style="fill:#30286c;fill-opacity:1;fill-rule:nonzero;stroke:none" transform="matrix(0.13333333,0,0,-0.13333333,0,666.66667)" />
      <path id="path73" d="M 1247.13,1188.44 876.164,817.48 v 155.34 c 0,119.07 96.551,215.62 215.626,215.62 h 155.34" style="fill:#f03754;fill-opacity:1;fill-rule:nonzero;stroke:none" transform="matrix(0.13333333,0,0,-0.13333333,0,666.66667)" />
      <path id="path74" d="M 1247.13,1188.44 876.164,817.48 v 155.34 c 0,119.07 96.551,215.62 215.626,215.62 h 155.34" style="fill:#4e3d9f;fill-opacity:1;fill-rule:nonzero;stroke:none" transform="matrix(0.13333333,0,0,-0.13333333,0,666.66667)" />
      <path id="path75" d="m 968.906,1652.16 c 0,51.21 -41.523,92.73 -92.742,92.73 -51.223,0 -92.738,-41.52 -92.738,-92.73 0,-51.23 41.515,-92.75 92.738,-92.75 51.219,0 92.742,41.52 92.742,92.75" style="fill:#4e3d9f;fill-opacity:1;fill-rule:nonzero;stroke:none" transform="matrix(0.13333333,0,0,-0.13333333,0,666.66667)" />
      <path id="path76" d="m 597.941,1744.89 c 0,51.22 41.524,92.74 92.739,92.74 51.215,0 92.746,-41.52 92.746,-92.74 H 597.941" style="fill:#f46f1f;fill-opacity:1;fill-rule:nonzero;stroke:none" transform="matrix(0.13333333,0,0,-0.13333333,0,666.66667)" />
      <path id="path77" d="m 1154.39,1744.89 c 0,51.22 -41.53,92.74 -92.74,92.74 -51.22,0 -92.744,-41.52 -92.744,-92.74 h 185.484" style="fill:#f46f1f;fill-opacity:1;fill-rule:nonzero;stroke:none" transform="matrix(0.13333333,0,0,-0.13333333,0,666.66667)" />
      </g></svg>