<?xml version='1.0' encoding='utf-8'?>
<svg xmlns="http://www.w3.org/2000/svg" version="1.1" width="104.741" height="81.556" viewBox="212.403 531.576 104.741 81.556"><g id="object"><path id="path90" d="m 1724.96,968.18 h -86.94 v 0 c 0,-144.051 116.78,-260.84 260.83,-260.84 h 86.95 v 0 c 0,144.062 -116.78,260.84 -260.84,260.84" style="fill:#fabb34;fill-opacity:1;fill-rule:nonzero;stroke:none" transform="matrix(0.13333333,0,0,-0.13333333,0,666.66667)" />
      <path id="path91" d="m 1985.8,707.34 h -86.95 c -72.06,0 -137.17,29.18 -184.42,76.422 -47.24,47.238 -76.41,112.347 -76.41,184.418 L 1985.8,707.34" style="fill:#f46f1f;fill-opacity:1;fill-rule:nonzero;stroke:none" transform="matrix(0.13333333,0,0,-0.13333333,0,666.66667)" />
      <path id="path92" d="m 1985.8,707.34 h -86.95 c -72.06,0 -137.17,29.18 -184.42,76.422 -47.24,47.238 -76.41,112.347 -76.41,184.418 L 1985.8,707.34" style="fill:#f46f1f;fill-opacity:1;fill-rule:nonzero;stroke:none" transform="matrix(0.13333333,0,0,-0.13333333,0,666.66667)" />
      <path id="path93" d="m 2246.64,968.18 h 86.94 v 0 c 0,-144.051 -116.78,-260.84 -260.83,-260.84 h -86.95 v 0 c 0,144.062 116.78,260.84 260.84,260.84" style="fill:#fabb34;fill-opacity:1;fill-rule:nonzero;stroke:none" transform="matrix(0.13333333,0,0,-0.13333333,0,666.66667)" />
      <path id="path94" d="M 2333.58,968.18 1985.8,707.34 c 0,72.07 29.18,137.191 76.41,184.422 47.24,47.238 112.36,76.418 184.43,76.418 h 86.94" style="fill:#fabb34;fill-opacity:1;fill-rule:nonzero;stroke:none" transform="matrix(0.13333333,0,0,-0.13333333,0,666.66667)" />
      <path id="path95" d="M 2333.58,968.18 1985.8,707.34 c 0,72.07 29.18,137.191 76.41,184.422 47.24,47.238 112.36,76.418 184.43,76.418 h 86.94" style="fill:#f46f1f;fill-opacity:1;fill-rule:nonzero;stroke:none" transform="matrix(0.13333333,0,0,-0.13333333,0,666.66667)" />
      <path id="path96" d="m 1724.96,707.34 h -86.94 v 0 c 0,-144.051 116.78,-260.828 260.83,-260.828 h 86.95 v 0 c 0,144.047 -116.78,260.828 -260.84,260.828" style="fill:#f46f1f;fill-opacity:1;fill-rule:nonzero;stroke:none" transform="matrix(0.13333333,0,0,-0.13333333,0,666.66667)" />
      <path id="path97" d="m 1985.8,446.512 h -86.95 c -72.06,0 -137.17,29.168 -184.42,76.418 -47.24,47.23 -76.41,112.351 -76.41,184.41 L 1985.8,446.512" style="fill:#f46f1f;fill-opacity:1;fill-rule:nonzero;stroke:none" transform="matrix(0.13333333,0,0,-0.13333333,0,666.66667)" />
      <path id="path98" d="m 1985.8,446.512 h -86.95 c -72.06,0 -137.17,29.168 -184.42,76.418 -47.24,47.23 -76.41,112.351 -76.41,184.41 L 1985.8,446.512" style="fill:#ef2f48;fill-opacity:1;fill-rule:nonzero;stroke:none" transform="matrix(0.13333333,0,0,-0.13333333,0,666.66667)" />
      <path id="path99" d="m 2246.64,707.34 h 86.94 v 0 c 0,-144.051 -116.78,-260.828 -260.83,-260.828 h -86.95 v 0 c 0,144.047 116.78,260.828 260.84,260.828" style="fill:#f46f1f;fill-opacity:1;fill-rule:nonzero;stroke:none" transform="matrix(0.13333333,0,0,-0.13333333,0,666.66667)" />
      <path id="path100" d="M 2333.58,707.34 1985.8,446.512 c 0,72.058 29.18,137.179 76.41,184.41 47.24,47.25 112.36,76.418 184.43,76.418 h 86.94" style="fill:#fabb34;fill-opacity:1;fill-rule:nonzero;stroke:none" transform="matrix(0.13333333,0,0,-0.13333333,0,666.66667)" />
      <path id="path101" d="M 2333.58,707.34 1985.8,446.512 c 0,72.058 29.18,137.179 76.41,184.41 47.24,47.25 112.36,76.418 184.43,76.418 h 86.94" style="fill:#ef2f48;fill-opacity:1;fill-rule:nonzero;stroke:none" transform="matrix(0.13333333,0,0,-0.13333333,0,666.66667)" />
      </g></svg>