<?xml version='1.0' encoding='utf-8'?>
<svg xmlns="http://www.w3.org/2000/svg" version="1.1" width="283.361" height="197.772" viewBox="677.893 380.687 283.361 197.772"><g id="object"><path id="path10" d="m 7164.41,1894.11 v 0 c -98.43,0 -178.21,79.78 -178.21,178.21 v 0 h 178.21 v -178.21" style="fill:#f89b0f;fill-opacity:1;fill-rule:nonzero;stroke:none" transform="matrix(0.13333333,0,0,-0.13333333,0,666.66667)" />
      <path id="path79" d="m 6066.82,1550.03 c 0,-258.92 -209.89,-468.81 -468.81,-468.81 -258.92,0 -468.81,209.89 -468.81,468.81 0,258.92 209.89,468.81 468.81,468.81 258.92,0 468.81,-209.89 468.81,-468.81" style="fill:#2e71ab;fill-opacity:1;fill-rule:nonzero;stroke:none" transform="matrix(0.13333333,0,0,-0.13333333,0,666.66667)" />
      <path id="path80" d="m 5930.09,1550.03 c 0,-183.4 -148.68,-332.07 -332.08,-332.07 -183.4,0 -332.08,148.67 -332.08,332.07 0,183.4 148.68,332.08 332.08,332.08 183.4,0 332.08,-148.68 332.08,-332.08" style="fill:#f89b0f;fill-opacity:1;fill-rule:nonzero;stroke:none" transform="matrix(0.13333333,0,0,-0.13333333,0,666.66667)" />
      <path id="path81" d="m 5598.01,1725.84 c 194.19,0 351.62,-175.81 351.62,-175.81 0,0 -157.43,-175.8 -351.62,-175.8 -194.19,0 -351.61,175.8 -351.61,175.8 0,0 157.42,175.81 351.61,175.81" style="fill:#fffcf6;fill-opacity:1;fill-rule:nonzero;stroke:none" transform="matrix(0.13333333,0,0,-0.13333333,0,666.66667)" />
      <path id="path82" d="m 5715.21,1550.03 c 0,64.73 -52.47,117.2 -117.2,117.2 -64.73,0 -117.2,-52.47 -117.2,-117.2 0,-64.73 52.47,-117.2 117.2,-117.2 64.73,0 117.2,52.47 117.2,117.2" style="fill:#2e71ab;fill-opacity:1;fill-rule:nonzero;stroke:none" transform="matrix(0.13333333,0,0,-0.13333333,0,666.66667)" />
      <path id="path83" d="m 5656.62,1550.03 c 0,32.36 -26.24,58.6 -58.61,58.6 -32.36,0 -58.6,-26.24 -58.6,-58.6 0,-32.37 26.24,-58.61 58.6,-58.61 32.37,0 58.61,26.24 58.61,58.61" style="fill:#f89b0f;fill-opacity:1;fill-rule:nonzero;stroke:none" transform="matrix(0.13333333,0,0,-0.13333333,0,666.66667)" />
      <path id="path84" d="m 7004.46,1550.03 c 0,-258.92 -209.89,-468.81 -468.82,-468.81 -258.92,0 -468.82,209.89 -468.82,468.81 0,258.92 209.9,468.81 468.82,468.81 258.93,0 468.82,-209.89 468.82,-468.81" style="fill:#2e71ab;fill-opacity:1;fill-rule:nonzero;stroke:none" transform="matrix(0.13333333,0,0,-0.13333333,0,666.66667)" />
      <path id="path85" d="m 7004.46,1550.03 c 0,-258.92 -209.89,-468.81 -468.82,-468.81 -258.92,0 -468.82,209.89 -468.82,468.81 0,258.92 209.9,468.81 468.82,468.81 258.93,0 468.82,-209.89 468.82,-468.81" style="fill:#2e71ab;fill-opacity:1;fill-rule:nonzero;stroke:none" transform="matrix(0.13333333,0,0,-0.13333333,0,666.66667)" />
      <path id="path86" d="m 6867.72,1550.03 c 0,-183.4 -148.67,-332.07 -332.08,-332.07 -183.4,0 -332.08,148.67 -332.08,332.07 0,183.4 148.68,332.08 332.08,332.08 183.41,0 332.08,-148.68 332.08,-332.08" style="fill:#ef304d;fill-opacity:1;fill-rule:nonzero;stroke:none" transform="matrix(0.13333333,0,0,-0.13333333,0,666.66667)" />
      <path id="path87" d="m 6535.64,1725.84 c 194.19,0 351.61,-175.81 351.61,-175.81 0,0 -157.42,-175.8 -351.61,-175.8 -194.19,0 -351.61,175.8 -351.61,175.8 0,0 157.42,175.81 351.61,175.81" style="fill:#fffcf6;fill-opacity:1;fill-rule:nonzero;stroke:none" transform="matrix(0.13333333,0,0,-0.13333333,0,666.66667)" />
      <path id="path88" d="m 6652.85,1550.03 c 0,64.73 -52.47,117.2 -117.21,117.2 -64.73,0 -117.2,-52.47 -117.2,-117.2 0,-64.73 52.47,-117.2 117.2,-117.2 64.74,0 117.21,52.47 117.21,117.2" style="fill:#2e71ab;fill-opacity:1;fill-rule:nonzero;stroke:none" transform="matrix(0.13333333,0,0,-0.13333333,0,666.66667)" />
      <path id="path89" d="m 6594.24,1550.03 c 0,32.36 -26.24,58.6 -58.6,58.6 -32.36,0 -58.6,-26.24 -58.6,-58.6 0,-32.37 26.24,-58.61 58.6,-58.61 32.36,0 58.6,26.24 58.6,58.61" style="fill:#ef304d;fill-opacity:1;fill-rule:nonzero;stroke:none" transform="matrix(0.13333333,0,0,-0.13333333,0,666.66667)" />
      <path id="path93" d="m 6066.82,1546.87 -212.27,-495.33 c -65.33,-152.399 46.47,-321.931 212.27,-321.931 h 0.01 c 165.8,0 277.6,169.532 212.28,321.931 l -212.29,495.33" style="fill:#ef304d;fill-opacity:1;fill-rule:nonzero;stroke:none" transform="matrix(0.13333333,0,0,-0.13333333,0,666.66667)" />
      <path id="path94" d="m 5138.05,1030.58 c 0,-178.951 145.07,-324.021 324.03,-324.021 178.94,0 324.01,145.07 324.01,324.021 h -648.04" style="fill:#ef304d;fill-opacity:1;fill-rule:nonzero;stroke:none" transform="matrix(0.13333333,0,0,-0.13333333,0,666.66667)" />
      <path id="path95" d="m 5300.06,1030.58 c 0,-89.471 72.53,-162.01 162.02,-162.01 89.47,0 162,72.539 162,162.01 h -324.02" style="fill:#2e71ab;fill-opacity:1;fill-rule:nonzero;stroke:none" transform="matrix(0.13333333,0,0,-0.13333333,0,666.66667)" />
      <path id="path96" d="m 6361.23,1030.58 c 0,-178.951 145.07,-324.021 324.02,-324.021 178.95,0 324.02,145.07 324.02,324.021 h -648.04" style="fill:#f89b0f;fill-opacity:1;fill-rule:nonzero;stroke:none" transform="matrix(0.13333333,0,0,-0.13333333,0,666.66667)" />
      <path id="path97" d="m 6523.24,1030.58 c 0,-89.471 72.54,-162.01 162.01,-162.01 89.47,0 162.01,72.539 162.01,162.01 h -324.02" style="fill:#2e71ab;fill-opacity:1;fill-rule:nonzero;stroke:none" transform="matrix(0.13333333,0,0,-0.13333333,0,666.66667)" />
      <path id="path98" d="m 5888.56,2008.98 178.26,-476.17 178.27,476.17 c 16.47,43.99 -16.04,90.87 -63,90.87 h -230.52 c -46.96,0 -79.47,-46.88 -63.01,-90.87" style="fill:#f89b0f;fill-opacity:1;fill-rule:nonzero;stroke:none" transform="matrix(0.13333333,0,0,-0.13333333,0,666.66667)" />
      </g></svg>