<?xml version='1.0' encoding='utf-8'?>
<svg xmlns="http://www.w3.org/2000/svg" version="1.1" width="121.885" height="218.035" viewBox="84.736 414.451 121.885 218.035"><g id="object"><path id="path44" d="M 1092.59,1125.49 H 879.813 c -110.067,0 -199.29,89.23 -199.29,199.3 v 212.78 h 212.778 c 110.069,0 199.289,-89.22 199.289,-199.29 v -212.79" style="fill:#3f7cc8;fill-opacity:1;fill-rule:nonzero;stroke:none" transform="matrix(0.13333333,0,0,-0.13333333,0,666.66667)" />
      <path id="path45" d="m 1092.59,1125.49 h 212.78 c 110.07,0 199.29,89.23 199.29,199.3 v 212.78 h -212.78 c -110.06,0 -199.29,-89.22 -199.29,-199.29 v -212.79" style="fill:#f36717;fill-opacity:1;fill-rule:nonzero;stroke:none" transform="matrix(0.13333333,0,0,-0.13333333,0,666.66667)" />
      <path id="path46" d="m 938.066,1692.1 c 0,85.34 69.184,154.52 154.524,154.52 v 0 c 85.35,0 154.53,-69.18 154.53,-154.52 H 938.066" style="fill:#3f7cc8;fill-opacity:1;fill-rule:nonzero;stroke:none" transform="matrix(0.13333333,0,0,-0.13333333,0,666.66667)" />
      <path id="path47" d="m 732.031,1589.08 c 0,56.89 46.121,103.02 103.02,103.02 v 0 c 56.894,0 103.015,-46.13 103.015,-103.02 H 732.031" style="fill:#f36717;fill-opacity:1;fill-rule:nonzero;stroke:none" transform="matrix(0.13333333,0,0,-0.13333333,0,666.66667)" />
      <path id="path48" d="m 1247.12,1589.08 c 0,56.89 46.12,103.02 103.02,103.02 v 0 c 56.89,0 103.02,-46.13 103.02,-103.02 h -206.04" style="fill:#f36717;fill-opacity:1;fill-rule:nonzero;stroke:none" transform="matrix(0.13333333,0,0,-0.13333333,0,666.66667)" />
      <path id="path49" d="m 1117.59,301.352 h -50 v 824.138 h 50 V 301.352" style="fill:#f2521b;fill-opacity:1;fill-rule:nonzero;stroke:none" transform="matrix(0.13333333,0,0,-0.13333333,0,666.66667)" />
      <path id="path50" d="m 1092.59,558.902 v 0 c -227.578,0 -412.067,184.496 -412.067,412.067 v 0 0 c 227.579,0 412.067,-184.489 412.067,-412.067 v 0" style="fill:#3f7cc8;fill-opacity:1;fill-rule:nonzero;stroke:none" transform="matrix(0.13333333,0,0,-0.13333333,0,666.66667)" />
      <path id="path51" d="m 1504.66,970.969 v 0 c -227.58,0 -412.07,-184.489 -412.07,-412.067 v 0" style="fill:#3f7cc8;fill-opacity:1;fill-rule:nonzero;stroke:none" transform="matrix(0.13333333,0,0,-0.13333333,0,666.66667)" />
      <path id="path52" d="m 1092.59,558.902 v 0 c 227.58,0 412.07,184.496 412.07,412.067 v 0" style="fill:#3f7cc8;fill-opacity:1;fill-rule:nonzero;stroke:none" transform="matrix(0.13333333,0,0,-0.13333333,0,666.66667)" />
      </g></svg>