<?xml version='1.0' encoding='utf-8'?>
<svg xmlns="http://www.w3.org/2000/svg" version="1.1" width="149.437" height="218.157" viewBox="343.412 412.313 149.437 218.157"><g id="object"><path id="path17" d="m 3393.67,1604.96 c 0,142.32 -115.37,257.69 -257.69,257.69 -142.32,0 -257.7,-115.37 -257.7,-257.69 -142.32,0 -257.69,-115.37 -257.69,-257.7 0,-142.32 115.37,-257.69 257.69,-257.69 0,-142.332 115.38,-257.699 257.7,-257.699 142.32,0 257.69,115.367 257.69,257.699 142.33,0 257.7,115.37 257.7,257.69 0,142.33 -115.37,257.7 -257.7,257.7" style="fill:#2e71ab;fill-opacity:1;fill-rule:nonzero;stroke:none" transform="matrix(0.13333333,0,0,-0.13333333,0,666.66667)" />
      <path id="path18" d="m 3393.67,1347.26 c 0,142.33 -115.37,257.7 -257.69,257.7 -142.32,0 -257.7,-115.37 -257.7,-257.7 0,-142.32 115.38,-257.69 257.7,-257.69 142.32,0 257.69,115.37 257.69,257.69" style="fill:#f89b0f;fill-opacity:1;fill-rule:nonzero;stroke:none" transform="matrix(0.13333333,0,0,-0.13333333,0,666.66667)" />
      <path id="path19" d="m 3153.87,316.48 h -35.79 v 958.95 l -123.6,123.6 25.31,25.31 134.08,-134.09 V 316.48" style="fill:#ef304d;fill-opacity:1;fill-rule:nonzero;stroke:none" transform="matrix(0.13333333,0,0,-0.13333333,0,666.66667)" />
      <path id="path20" d="m 3148.63,1270.18 -25.31,25.31 128.85,128.85 25.31,-25.31 -128.85,-128.85" style="fill:#ef304d;fill-opacity:1;fill-rule:nonzero;stroke:none" transform="matrix(0.13333333,0,0,-0.13333333,0,666.66667)" />
      </g></svg>