<?xml version='1.0' encoding='utf-8'?>
<svg xmlns="http://www.w3.org/2000/svg" version="1.1" width="126.882" height="47.682" viewBox="745.469 576.409 126.882 47.682"><g id="object"><path id="path90" d="m 5636.02,522.242 c 0,60.59 96.45,109.688 215.4,109.688 118.97,0 215.4,-49.098 215.4,-109.688 h -430.8" style="fill:#f89b0f;fill-opacity:1;fill-rule:nonzero;stroke:none" transform="matrix(0.13333333,0,0,-0.13333333,0,666.66667)" />
      <path id="path91" d="m 6066.82,522.242 c 0,60.59 96.45,109.688 215.41,109.688 118.96,0 215.4,-49.098 215.4,-109.688 h -430.81" style="fill:#f89b0f;fill-opacity:1;fill-rule:nonzero;stroke:none" transform="matrix(0.13333333,0,0,-0.13333333,0,666.66667)" />
      <path id="path92" d="m 6497.63,524.879 c 0,-88.668 -191.7,-160.559 -428.16,-160.559 -236.46,0 -428.16,71.891 -428.16,160.559 h 856.32" style="fill:#2e71ab;fill-opacity:1;fill-rule:nonzero;stroke:none" transform="matrix(0.13333333,0,0,-0.13333333,0,666.66667)" />
      </g></svg>