<?xml version='1.0' encoding='utf-8'?>
<svg xmlns="http://www.w3.org/2000/svg" version="1.1" width="70.587" height="41.292" viewBox="889.173 446.248 70.587 41.292"><g id="object"><path id="path136" d="m 6933.5,1608.14 v 0 c -121.34,0 -219.7,-98.36 -219.7,-219.69 v 0 h 439.4 v 0 c 0,121.33 -98.37,219.69 -219.7,219.69" style="fill:#423f9f;fill-opacity:1;fill-rule:nonzero;stroke:none" transform="matrix(0.13333333,0,0,-0.13333333,0,666.66667)" />
      <path id="path137" d="m 6933.5,1443.38 v 0 c -30.2,0 -54.92,24.71 -54.92,54.92 v 0 c 0,30.2 24.72,54.92 54.92,54.92 v 0 c 30.21,0 54.92,-24.72 54.92,-54.92 v 0 c 0,-30.21 -24.71,-54.92 -54.92,-54.92" style="fill:#fbf5f7;fill-opacity:1;fill-rule:nonzero;stroke:none" transform="matrix(0.13333333,0,0,-0.13333333,0,666.66667)" />
      </g></svg>