<?xml version='1.0' encoding='utf-8'?>
<svg xmlns="http://www.w3.org/2000/svg" version="1.1" width="206.447" height="28.203" viewBox="664.140 50.316 206.447 28.203"><g id="object"><path id="path105" d="m 5026.05,4456.11 121.53,121.52 121.53,-121.52 z" style="fill:#37b5e5;fill-opacity:1;fill-rule:nonzero;stroke:none" transform="matrix(0.13333333,0,0,-0.13333333,0,666.66667)" />
      <path id="path106" d="m 5512.17,4456.11 h -243.06 l 121.53,121.52" style="fill:#37b5e5;fill-opacity:1;fill-rule:nonzero;stroke:none" transform="matrix(0.13333333,0,0,-0.13333333,0,666.66667)" />
      <path id="path107" d="m 5755.23,4456.11 h -243.06 l 121.53,121.52" style="fill:#37b5e5;fill-opacity:1;fill-rule:nonzero;stroke:none" transform="matrix(0.13333333,0,0,-0.13333333,0,666.66667)" />
      <path id="path108" d="m 5755.23,4456.11 121.52,121.52 121.54,-121.52 z" style="fill:#ef2c8f;fill-opacity:1;fill-rule:nonzero;stroke:none" transform="matrix(0.13333333,0,0,-0.13333333,0,666.66667)" />
      <path id="path109" d="m 6241.34,4456.11 h -243.05 l 121.52,121.52" style="fill:#ef2c8f;fill-opacity:1;fill-rule:nonzero;stroke:none" transform="matrix(0.13333333,0,0,-0.13333333,0,666.66667)" />
      <path id="path110" d="m 6484.4,4456.11 h -243.06 l 121.53,121.52" style="fill:#ef2c8f;fill-opacity:1;fill-rule:nonzero;stroke:none" transform="matrix(0.13333333,0,0,-0.13333333,0,666.66667)" />
      </g></svg>