<?xml version='1.0' encoding='utf-8'?>
<svg xmlns="http://www.w3.org/2000/svg" version="1.1" width="242.238" height="190.288" viewBox="658.776 435.705 242.238 190.288"><g id="object"><path id="path122" d="m 5708.54,350.051 h -450.07 v 396.898 c 125.25,0 238.65,-50.777 320.74,-132.867 69.49,-69.492 116.55,-161.48 129.33,-264.031" style="fill:#39b7ed;fill-opacity:1;fill-rule:nonzero;stroke:none" transform="matrix(0.13333333,0,0,-0.13333333,0,666.66667)" />
      <path id="path123" d="m 5535.44,350.051 h -276.97 v 244.238 c 77.07,0 146.86,-31.25 197.38,-81.758 42.76,-42.769 71.71,-99.371 79.59,-162.48" style="fill:#ee2238;fill-opacity:1;fill-rule:nonzero;stroke:none" transform="matrix(0.13333333,0,0,-0.13333333,0,666.66667)" />
      <path id="path124" d="m 5989.89,350.051 h 450.07 v 396.898 c -125.25,0 -238.65,-50.777 -320.74,-132.867 -69.49,-69.492 -116.55,-161.48 -129.33,-264.031" style="fill:#f68b11;fill-opacity:1;fill-rule:nonzero;stroke:none" transform="matrix(0.13333333,0,0,-0.13333333,0,666.66667)" />
      <path id="path125" d="m 6162.99,350.051 h 276.97 v 244.238 c -77.07,0 -146.86,-31.25 -197.38,-81.758 -42.76,-42.769 -71.71,-99.371 -79.59,-162.48" style="fill:#1f254c;fill-opacity:1;fill-rule:nonzero;stroke:none" transform="matrix(0.13333333,0,0,-0.13333333,0,666.66667)" />
      <path id="path126" d="M 6439.96,1389.75 V 866.969 c -163.09,0 -310.82,-66.137 -417.66,-173.09 -90.58,-90.469 -151.87,-210.238 -168.54,-343.828 h -9.09 c -16.66,133.59 -77.95,253.359 -168.54,343.828 -106.84,106.953 -254.57,173.09 -417.66,173.09 v 522.781 c 0,78.26 63.52,141.79 141.78,141.79 h 897.93 c 78.26,0 141.78,-63.53 141.78,-141.79" style="fill:#1f254c;fill-opacity:1;fill-rule:nonzero;stroke:none" transform="matrix(0.13333333,0,0,-0.13333333,0,666.66667)" />
      <path id="path127" d="m 5849.22,1162.32 c 0,-163.129 -132.25,-295.371 -295.38,-295.371 -163.13,0 -295.37,132.242 -295.37,295.371 0,163.13 132.24,295.37 295.37,295.37 163.13,0 295.38,-132.24 295.38,-295.37" style="fill:#ee2238;fill-opacity:1;fill-rule:nonzero;stroke:none" transform="matrix(0.13333333,0,0,-0.13333333,0,666.66667)" />
      <path id="path128" d="m 5738.45,1162.32 c 0,-101.96 -82.65,-184.609 -184.61,-184.609 -101.95,0 -184.61,82.649 -184.61,184.609 0,101.95 82.66,184.61 184.61,184.61 101.96,0 184.61,-82.66 184.61,-184.61" style="fill:#feffff;fill-opacity:1;fill-rule:nonzero;stroke:none" transform="matrix(0.13333333,0,0,-0.13333333,0,666.66667)" />
      <path id="path129" d="m 5664.61,1162.32 c 0,-61.17 -49.59,-110.77 -110.77,-110.77 -61.17,0 -110.76,49.6 -110.76,110.77 0,61.17 49.59,110.76 110.76,110.76 61.18,0 110.77,-49.59 110.77,-110.76" style="fill:#1f254c;fill-opacity:1;fill-rule:nonzero;stroke:none" transform="matrix(0.13333333,0,0,-0.13333333,0,666.66667)" />
      <path id="path130" d="m 6439.96,1162.32 c 0,-163.129 -132.24,-295.371 -295.37,-295.371 -163.13,0 -295.37,132.242 -295.37,295.371 0,163.13 132.24,295.37 295.37,295.37 163.13,0 295.37,-132.24 295.37,-295.37" style="fill:#39b7ed;fill-opacity:1;fill-rule:nonzero;stroke:none" transform="matrix(0.13333333,0,0,-0.13333333,0,666.66667)" />
      <path id="path131" d="m 6329.2,1162.32 c 0,-101.96 -82.65,-184.609 -184.61,-184.609 -101.96,0 -184.61,82.649 -184.61,184.609 0,101.95 82.65,184.61 184.61,184.61 101.96,0 184.61,-82.66 184.61,-184.61" style="fill:#feffff;fill-opacity:1;fill-rule:nonzero;stroke:none" transform="matrix(0.13333333,0,0,-0.13333333,0,666.66667)" />
      <path id="path132" d="m 6255.36,1162.32 c 0,-61.17 -49.6,-110.77 -110.77,-110.77 -61.18,0 -110.77,49.6 -110.77,110.77 0,61.17 49.59,110.76 110.77,110.76 61.17,0 110.77,-49.59 110.77,-110.76" style="fill:#1f254c;fill-opacity:1;fill-rule:nonzero;stroke:none" transform="matrix(0.13333333,0,0,-0.13333333,0,666.66667)" />
      <path id="path133" d="M 5849.22,901.34 5740.98,793.102 5849.22,684.871 5957.45,793.102 5849.22,901.34" style="fill:#feffff;fill-opacity:1;fill-rule:nonzero;stroke:none" transform="matrix(0.13333333,0,0,-0.13333333,0,666.66667)" />
      <path id="path134" d="m 6004.83,1531.54 -155.67,155.67 -155.68,-155.67 z" style="fill:#f68b11;fill-opacity:1;fill-rule:nonzero;stroke:none" transform="matrix(0.13333333,0,0,-0.13333333,0,666.66667)" />
      <path id="path135" d="m 5689.32,1531.54 -155.67,155.67 -155.68,-155.67 z" style="fill:#39b7ed;fill-opacity:1;fill-rule:nonzero;stroke:none" transform="matrix(0.13333333,0,0,-0.13333333,0,666.66667)" />
      <path id="path136" d="m 6322.69,1531.54 -155.67,155.67 -155.68,-155.67 z" style="fill:#39b7ed;fill-opacity:1;fill-rule:nonzero;stroke:none" transform="matrix(0.13333333,0,0,-0.13333333,0,666.66667)" />
      <path id="path137" d="m 5258.47,1349.76 h -45.45 c -125.47,0 -227.2,-101.72 -227.2,-227.2 v 0 c 0,-125.478 101.73,-227.208 227.2,-227.208 h 45.45 v 454.408" style="fill:#f68b11;fill-opacity:1;fill-rule:nonzero;stroke:none" transform="matrix(0.13333333,0,0,-0.13333333,0,666.66667)" />
      <path id="path138" d="m 5258.47,1274.03 h -30.3 c -83.65,0 -151.46,-67.81 -151.46,-151.47 v 0 c 0,-83.66 67.81,-151.478 151.46,-151.478 h 30.3" style="fill:#1f254c;fill-opacity:1;fill-rule:nonzero;stroke:none" transform="matrix(0.13333333,0,0,-0.13333333,0,666.66667)" />
      <path id="path139" d="m 6439.96,1349.76 h 45.45 c 125.48,0 227.2,-101.72 227.2,-227.2 v 0 c 0,-125.478 -101.72,-227.208 -227.2,-227.208 h -45.45 v 454.408" style="fill:#ee2238;fill-opacity:1;fill-rule:nonzero;stroke:none" transform="matrix(0.13333333,0,0,-0.13333333,0,666.66667)" />
      <path id="path140" d="m 6439.96,1274.03 h 30.3 c 83.65,0 151.46,-67.81 151.46,-151.47 v 0 c 0,-83.66 -67.81,-151.478 -151.46,-151.478 h -30.3" style="fill:#1f254c;fill-opacity:1;fill-rule:nonzero;stroke:none" transform="matrix(0.13333333,0,0,-0.13333333,0,666.66667)" />
      </g></svg>