<?xml version='1.0' encoding='utf-8'?>
<svg xmlns="http://www.w3.org/2000/svg" version="1.1" width="82.974" height="82.972" viewBox="564.301 532.422 82.974 82.972"><g id="object"><path id="path86" d="m 4277.26,961.832 v 0 0 c 0,-146.992 119.16,-266.152 266.14,-266.152 v 0 0 c 0,146.992 -119.15,266.152 -266.14,266.152" style="fill:#ed1b29;fill-opacity:1;fill-rule:nonzero;stroke:none" transform="matrix(0.13333333,0,0,-0.13333333,0,666.66667)" />
      <path id="path87" d="m 4543.4,695.68 v 0 c 147,0 266.16,119.16 266.16,266.152 v 0 0 c -147,0 -266.16,-119.16 -266.16,-266.152 v 0" style="fill:#782d99;fill-opacity:1;fill-rule:nonzero;stroke:none" transform="matrix(0.13333333,0,0,-0.13333333,0,666.66667)" />
      <path id="path88" d="m 4277.26,695.68 v 0 0 c 0,-146.989 119.16,-266.141 266.14,-266.141 v 0 0 c 0,146.981 -119.15,266.141 -266.14,266.141" style="fill:#ed1b29;fill-opacity:1;fill-rule:nonzero;stroke:none" transform="matrix(0.13333333,0,0,-0.13333333,0,666.66667)" />
      <path id="path89" d="m 4543.4,429.539 v 0 c 147,0 266.16,119.152 266.16,266.141 v 0 0 c -147,0 -266.16,-119.16 -266.16,-266.141 v 0" style="fill:#782d99;fill-opacity:1;fill-rule:nonzero;stroke:none" transform="matrix(0.13333333,0,0,-0.13333333,0,666.66667)" />
      </g></svg>