<?xml version='1.0' encoding='utf-8'?>
<svg xmlns="http://www.w3.org/2000/svg" version="1.1" width="151.762" height="139.175" viewBox="38.212 364.715 151.762 139.175"><g id="object"><path id="path3" d="m 1141.36,1981.19 c 0,131.69 -106.76,238.45 -238.454,238.45 -131.695,0 -238.457,-106.76 -238.457,-238.45 -131.687,0 -238.453,-106.77 -238.453,-238.46 0,-131.7 106.766,-238.46 238.453,-238.46 0,-131.69 106.762,-238.44 238.457,-238.44 131.694,0 238.454,106.75 238.454,238.44 131.69,0 238.45,106.76 238.45,238.46 0,131.69 -106.76,238.46 -238.45,238.46" style="fill:#f8a020;fill-opacity:1;fill-rule:nonzero;stroke:none" transform="matrix(0.13333333,0,0,-0.13333333,0,666.66667)" />
      <path id="path4" d="m 1051.94,1891.76 c 0,82.31 -66.725,149.04 -149.034,149.04 -82.308,0 -149.035,-66.73 -149.035,-149.04 -82.308,0 -149.031,-66.72 -149.031,-149.03 0,-82.3 66.723,-149.03 149.031,-149.03 0,-82.31 66.727,-149.04 149.035,-149.04 82.309,0 149.034,66.73 149.034,149.04 82.31,0 149.03,66.73 149.03,149.03 0,82.31 -66.72,149.03 -149.03,149.03" style="fill:#423f9f;fill-opacity:1;fill-rule:nonzero;stroke:none" transform="matrix(0.13333333,0,0,-0.13333333,0,666.66667)" />
      <path id="path5" d="m 1022.13,1742.73 c 0,65.85 -53.38,119.23 -119.224,119.23 -65.847,0 -119.226,-53.38 -119.226,-119.23 0,-65.85 53.379,-119.23 119.226,-119.23 65.844,0 119.224,53.38 119.224,119.23" style="fill:#fbf5f7;fill-opacity:1;fill-rule:nonzero;stroke:none" transform="matrix(0.13333333,0,0,-0.13333333,0,666.66667)" />
      <path id="path130" d="m 331.594,1420.91 c 39.445,0 71.422,-31.97 71.422,-71.41 0,-39.44 -31.977,-71.43 -71.422,-71.43 v 142.84" style="fill:#ee2238;fill-opacity:1;fill-rule:nonzero;stroke:none" transform="matrix(0.13333333,0,0,-0.13333333,0,666.66667)" />
      </g></svg>