<?xml version='1.0' encoding='utf-8'?>
<svg xmlns="http://www.w3.org/2000/svg" version="1.1" width="182.248" height="273.916" viewBox="44.950 42.144 182.248 273.916"><g id="object"><path id="path84" d="M 1658.98,4252.84 V 3191.25 h -360.17 c -284.69,0 -517.267,223.59 -531.642,504.78 -0.473,9.18 -0.664,18.35 -0.664,27.62 v 796.66 c 0,65.55 53.062,118.61 118.609,118.61 H 1272.9 c 213.19,0 386.08,-172.8 386.08,-386.08" style="fill:#fab20b;fill-opacity:1;fill-rule:nonzero;stroke:none" transform="matrix(0.13333333,0,0,-0.13333333,0,666.66667)" />
      <path id="path85" d="m 1318.49,3696.03 v -504.78 h -19.68 c -284.69,0 -517.267,223.59 -531.642,504.78 h 551.322" style="fill:#286aaa;fill-opacity:1;fill-rule:nonzero;stroke:none" transform="matrix(0.13333333,0,0,-0.13333333,0,666.66667)" />
      <path id="path86" d="m 830.52,4303.71 c 0,-121.46 98.464,-219.92 219.93,-219.92 121.46,0 219.92,98.46 219.92,219.92 0,121.47 -98.46,219.93 -219.92,219.93 -121.466,0 -219.93,-98.46 -219.93,-219.93" style="fill:#fefefe;fill-opacity:1;fill-rule:nonzero;stroke:none" transform="matrix(0.13333333,0,0,-0.13333333,0,666.66667)" />
      <path id="path87" d="m 977.137,4303.71 c 0,-40.49 32.823,-73.3 73.313,-73.3 40.48,0 73.31,32.81 73.31,73.3 0,40.49 -32.83,73.31 -73.31,73.31 -40.49,0 -73.313,-32.82 -73.313,-73.31" style="fill:#286aaa;fill-opacity:1;fill-rule:nonzero;stroke:none" transform="matrix(0.13333333,0,0,-0.13333333,0,666.66667)" />
      <path id="path88" d="m 682.824,4510.83 h 83.637 V 4190.55 H 382.125 v 19.58 c 0,166.07 134.629,300.7 300.699,300.7" style="fill:#286aaa;fill-opacity:1;fill-rule:nonzero;stroke:none" transform="matrix(0.13333333,0,0,-0.13333333,0,666.66667)" />
      <path id="path89" d="m 382.125,4210.12 v -19.57 h 384.336 v 128.11 H 402.34 C 389.246,4285 382.125,4248.41 382.125,4210.12" style="fill:#3ebeb9;fill-opacity:1;fill-rule:nonzero;stroke:none" transform="matrix(0.13333333,0,0,-0.13333333,0,666.66667)" />
      <path id="path90" d="m 382.125,4210.12 v -19.57 h 384.336 v 128.11 H 402.34 C 389.246,4285 382.125,4248.41 382.125,4210.12" style="fill:#3ebeb9;fill-opacity:1;fill-rule:nonzero;stroke:none" transform="matrix(0.13333333,0,0,-0.13333333,0,666.66667)" />
      <path id="path91" d="m 1658.98,3191.25 v -516.7 h -510.74 l 295.28,516.7 h 215.46" style="fill:#3ebeb9;fill-opacity:1;fill-rule:nonzero;stroke:none" transform="matrix(0.13333333,0,0,-0.13333333,0,666.66667)" />
      <path id="path92" d="m 1318.49,3696.03 v -504.78 h -19.68 c -284.69,0 -517.267,223.59 -531.642,504.78 h 551.322" style="fill:#286aaa;fill-opacity:1;fill-rule:nonzero;stroke:none" transform="matrix(0.13333333,0,0,-0.13333333,0,666.66667)" />
      <path id="path93" d="m 1318.49,3696.03 v -311.75 h -12.16 c -175.82,0 -319.459,138.09 -328.342,311.75 h 340.502" style="fill:#3ebeb9;fill-opacity:1;fill-rule:nonzero;stroke:none" transform="matrix(0.13333333,0,0,-0.13333333,0,666.66667)" />
      <path id="path94" d="m 1318.49,3696.03 v -311.75 h -12.16 c -175.82,0 -319.459,138.09 -328.342,311.75 h 340.502" style="fill:#fefefe;fill-opacity:1;fill-rule:nonzero;stroke:none" transform="matrix(0.13333333,0,0,-0.13333333,0,666.66667)" />
      <path id="path95" d="m 1318.49,3696.03 v 311.76 h 12.15 c 175.82,0 319.46,-138.09 328.34,-311.76 h -340.49" style="fill:#3ebeb9;fill-opacity:1;fill-rule:nonzero;stroke:none" transform="matrix(0.13333333,0,0,-0.13333333,0,666.66667)" />
      <path id="path96" d="M 1318.49,4007.77 V 3696.03 H 767.168 c -0.473,9.18 -0.664,18.35 -0.664,27.62 v 284.12 h 551.986" style="fill:#fab20b;fill-opacity:1;fill-rule:nonzero;stroke:none" transform="matrix(0.13333333,0,0,-0.13333333,0,666.66667)" />
      <path id="path97" d="m 1392.04,2674.55 266.94,533.87 v -533.87 z" style="fill:#286aaa;fill-opacity:1;fill-rule:nonzero;stroke:none" transform="matrix(0.13333333,0,0,-0.13333333,0,666.66667)" />
      </g></svg>