<?xml version='1.0' encoding='utf-8'?>
<svg xmlns="http://www.w3.org/2000/svg" version="1.1" width="115.017" height="192.281" viewBox="224.519 440.205 115.017 192.281"><g id="object"><path id="path53" d="m 2115.21,687.672 v 0 0 c 0,213.359 172.96,386.318 386.31,386.318 v 0 0 c 0,-213.361 -172.95,-386.318 -386.31,-386.318" style="fill:#3f7cc8;fill-opacity:1;fill-rule:nonzero;stroke:none" transform="matrix(0.13333333,0,0,-0.13333333,0,666.66667)" />
      <path id="path54" d="m 1728.89,1073.99 v 0 0 c 0,-213.361 172.96,-386.318 386.32,-386.318 v 0 0 c 0,213.359 -172.96,386.318 -386.32,386.318" style="fill:#3f7cc8;fill-opacity:1;fill-rule:nonzero;stroke:none" transform="matrix(0.13333333,0,0,-0.13333333,0,666.66667)" />
      <path id="path55" d="m 2115.21,301.352 v 0 0 c 0,213.359 172.96,386.32 386.31,386.32 v 0 0 c 0,-213.363 -172.95,-386.32 -386.31,-386.32" style="fill:#2c3491;fill-opacity:1;fill-rule:nonzero;stroke:none" transform="matrix(0.13333333,0,0,-0.13333333,0,666.66667)" />
      <path id="path56" d="m 1728.89,687.672 v 0 0 c 0,-213.363 172.96,-386.32 386.32,-386.32 v 0 0 c 0,213.359 -172.96,386.32 -386.32,386.32" style="fill:#2c3491;fill-opacity:1;fill-rule:nonzero;stroke:none" transform="matrix(0.13333333,0,0,-0.13333333,0,666.66667)" />
      <path id="path57" d="m 2115.21,1073.99 v 0 0 c 0,213.36 172.96,386.32 386.31,386.32 v 0 0 c 0,-213.36 -172.95,-386.32 -386.31,-386.32" style="fill:#2c3491;fill-opacity:1;fill-rule:nonzero;stroke:none" transform="matrix(0.13333333,0,0,-0.13333333,0,666.66667)" />
      <path id="path58" d="m 1728.89,1460.31 v 0 0 c 0,-213.36 172.96,-386.32 386.32,-386.32 v 0 0 c 0,213.36 -172.96,386.32 -386.32,386.32" style="fill:#2c3491;fill-opacity:1;fill-rule:nonzero;stroke:none" transform="matrix(0.13333333,0,0,-0.13333333,0,666.66667)" />
      <path id="path59" d="m 2211.79,1556.88 c 0,53.34 -43.24,96.58 -96.58,96.58 -53.34,0 -96.58,-43.24 -96.58,-96.58 0,-53.34 43.24,-96.57 96.58,-96.57 53.34,0 96.58,43.23 96.58,96.57" style="fill:#3f7cc8;fill-opacity:1;fill-rule:nonzero;stroke:none" transform="matrix(0.13333333,0,0,-0.13333333,0,666.66667)" />
      </g></svg>