<?xml version='1.0' encoding='utf-8'?>
<svg xmlns="http://www.w3.org/2000/svg" version="1.1" width="274.661" height="293.177" viewBox="69.297 63.608 274.661 293.177"><g id="object"><path id="path3" d="m 1830.77,2369.11 h -98.4 c -58.29,0 -105.55,47.25 -105.55,105.55 v 280.47 h 85.78 v -280.47 c 0,-10.92 8.85,-19.77 19.77,-19.77 h 98.4 c 23.69,0 42.89,-19.2 42.89,-42.89 v 0 c 0,-23.69 -19.2,-42.89 -42.89,-42.89" style="fill:#1f3662;fill-opacity:1;fill-rule:nonzero;stroke:none" transform="matrix(0.13333333,0,0,-0.13333333,0,666.66667)" />
      <path id="path4" d="m 2349.56,3963.24 h -243.79 v 343.14 h 243.79 c 54.87,0 99.35,-44.48 99.35,-99.34 v -144.45 c 0,-54.87 -44.48,-99.35 -99.35,-99.35" style="fill:#f68b11;fill-opacity:1;fill-rule:nonzero;stroke:none" transform="matrix(0.13333333,0,0,-0.13333333,0,666.66667)" />
      <path id="path5" d="m 2105.77,3620.11 h -343.13 v 343.13 h 343.13 v -343.13" style="fill:#f68b11;fill-opacity:1;fill-rule:nonzero;stroke:none" transform="matrix(0.13333333,0,0,-0.13333333,0,666.66667)" />
      <path id="path6" d="m 2105.77,3620.11 h -343.13 v 343.13 c 189.51,0 343.13,-153.62 343.13,-343.13 v 0" style="fill:#ee1a7c;fill-opacity:1;fill-rule:nonzero;stroke:none" transform="matrix(0.13333333,0,0,-0.13333333,0,666.66667)" />
      <path id="path7" d="m 2277.34,3620.11 h -171.57 v 343.13 h 171.57 v -343.13" style="fill:#f68b11;fill-opacity:1;fill-rule:nonzero;stroke:none" transform="matrix(0.13333333,0,0,-0.13333333,0,666.66667)" />
      <path id="path8" d="m 2320.23,3791.68 v 0 c 23.69,0 42.9,19.2 42.9,42.89 v 128.67 h -85.79 v -128.67 c 0,-23.69 19.2,-42.89 42.89,-42.89" style="fill:#ee1a7c;fill-opacity:1;fill-rule:nonzero;stroke:none" transform="matrix(0.13333333,0,0,-0.13333333,0,666.66667)" />
      <path id="path9" d="m 2105.77,3963.24 h -343.13 v 12.83 c 0,182.42 147.88,330.31 330.31,330.31 h 12.82 v -343.14" style="fill:#f68b11;fill-opacity:1;fill-rule:nonzero;stroke:none" transform="matrix(0.13333333,0,0,-0.13333333,0,666.66667)" />
      <path id="path10" d="m 2363.13,4134.81 c 0,-47.38 -38.41,-85.78 -85.79,-85.78 -47.38,0 -85.78,38.4 -85.78,85.78 0,47.38 38.4,85.78 85.78,85.78 47.38,0 85.79,-38.4 85.79,-85.78" style="fill:#fef9f4;fill-opacity:1;fill-rule:nonzero;stroke:none" transform="matrix(0.13333333,0,0,-0.13333333,0,666.66667)" />
      <path id="path11" d="m 2320.23,4134.81 c 0,-23.68 -19.2,-42.89 -42.89,-42.89 -23.69,0 -42.89,19.21 -42.89,42.89 0,23.69 19.2,42.89 42.89,42.89 23.69,0 42.89,-19.2 42.89,-42.89" style="fill:#1f3662;fill-opacity:1;fill-rule:nonzero;stroke:none" transform="matrix(0.13333333,0,0,-0.13333333,0,666.66667)" />
      <path id="path12" d="m 2448.91,4220.59 85.78,-85.78 h -85.78 z" style="fill:#1f3662;fill-opacity:1;fill-rule:nonzero;stroke:none" transform="matrix(0.13333333,0,0,-0.13333333,0,666.66667)" />
      <path id="path13" d="m 2448.91,4049.03 85.78,85.78 h -85.78 z" style="fill:#1f3662;fill-opacity:1;fill-rule:nonzero;stroke:none" transform="matrix(0.13333333,0,0,-0.13333333,0,666.66667)" />
      <path id="path14" d="m 2363.13,4306.38 v 100.96 c 0,39 -31.61,70.6 -70.61,70.6 h -379.76 c -35.53,0 -64.34,-28.8 -64.34,-64.33 v 0 c 0,-35.54 28.81,-64.34 64.34,-64.34 h 194.46 c 22.89,0 41.45,-18.56 41.45,-41.45 v -1.44 h 214.46" style="fill:#ee1a7c;fill-opacity:1;fill-rule:nonzero;stroke:none" transform="matrix(0.13333333,0,0,-0.13333333,0,666.66667)" />
      <path id="path15" d="M 2277.34,3620.11 H 1033.48 v -150.12 c 0,-343.48 278.45,-621.93 621.93,-621.93 v 0 c 343.48,0 621.93,278.45 621.93,621.93 v 150.12" style="fill:#ee1a7c;fill-opacity:1;fill-rule:nonzero;stroke:none" transform="matrix(0.13333333,0,0,-0.13333333,0,666.66667)" />
      <path id="path16" d="m 564.727,3620.11 h 829.243 v 100.08 c 0,228.99 -185.63,414.62 -414.622,414.62 v 0 c -228.989,0 -414.621,-185.63 -414.621,-414.62 v -100.08" style="fill:#ee1a7c;fill-opacity:1;fill-rule:nonzero;stroke:none" transform="matrix(0.13333333,0,0,-0.13333333,0,666.66667)" />
      <path id="path17" d="m 743.242,3620.11 h 472.208 v 56.99 c 0,130.4 -105.71,236.1 -236.102,236.1 v 0 c -130.395,0 -236.106,-105.7 -236.106,-236.1 v -56.99" style="fill:#1f3662;fill-opacity:1;fill-rule:nonzero;stroke:none" transform="matrix(0.13333333,0,0,-0.13333333,0,666.66667)" />
      <path id="path18" d="m 1841.28,3098.26 h -343.13 v -246.21 c 0,-53.53 43.38,-96.92 96.91,-96.92 h 149.3 c 53.53,0 96.92,43.39 96.92,96.92 v 246.21" style="fill:#ee1a7c;fill-opacity:1;fill-rule:nonzero;stroke:none" transform="matrix(0.13333333,0,0,-0.13333333,0,666.66667)" />
      <path id="path19" d="m 2067.6,3698.99 h -851.03 v -116.81 c 0,-267.26 216.66,-483.92 483.92,-483.92 v 0 c 267.26,0 483.92,216.66 483.92,483.92 v 0 c 0,64.52 -52.3,116.81 -116.81,116.81" style="fill:#f68b11;fill-opacity:1;fill-rule:nonzero;stroke:none" transform="matrix(0.13333333,0,0,-0.13333333,0,666.66667)" />
      <path id="path20" d="m 1977.1,3698.99 h -553.22 v -66.77 c 0,-152.77 123.84,-276.61 276.61,-276.61 v 0 c 152.77,0 276.61,123.84 276.61,276.61 v 66.77" style="fill:#1f3662;fill-opacity:1;fill-rule:nonzero;stroke:none" transform="matrix(0.13333333,0,0,-0.13333333,0,666.66667)" />
      <path id="path21" d="m 1629.95,2456.36 -105.34,105.35 105.34,105.33 z" style="fill:#f68b11;fill-opacity:1;fill-rule:nonzero;stroke:none" transform="matrix(0.13333333,0,0,-0.13333333,0,666.66667)" />
      </g></svg>