<?xml version='1.0' encoding='utf-8'?>
<svg xmlns="http://www.w3.org/2000/svg" version="1.1" width="153.481" height="233.065" viewBox="71.228 402.960 153.481 233.065"><g id="object"><path id="path37" d="M 1375.05,1667.52 H 844.488 v -530.56 h 530.562 v 530.56" style="fill:#f68b11;fill-opacity:1;fill-rule:nonzero;stroke:none" transform="matrix(0.13333333,0,0,-0.13333333,0,666.66667)" />
      <path id="path38" d="M 1375.05,1667.52 H 844.488 c 0,146.49 118.785,265.28 265.282,265.28 146.49,0 265.28,-118.79 265.28,-265.28" style="fill:#1f3662;fill-opacity:1;fill-rule:nonzero;stroke:none" transform="matrix(0.13333333,0,0,-0.13333333,0,666.66667)" />
      <path id="path39" d="M 1242.4,1667.52 H 977.129 c 0,73.25 59.391,132.63 132.641,132.63 73.24,0 132.63,-59.38 132.63,-132.63" style="fill:#fef9f4;fill-opacity:1;fill-rule:nonzero;stroke:none" transform="matrix(0.13333333,0,0,-0.13333333,0,666.66667)" />
      <path id="path40" d="m 844.488,1667.52 v -530.56 c -146.488,0 -265.277,118.79 -265.277,265.28 0,146.5 118.789,265.28 265.277,265.28" style="fill:#1f3662;fill-opacity:1;fill-rule:nonzero;stroke:none" transform="matrix(0.13333333,0,0,-0.13333333,0,666.66667)" />
      <path id="path41" d="m 844.488,1534.88 v -265.27 c -73.246,0 -132.636,59.38 -132.636,132.63 0,73.25 59.39,132.64 132.636,132.64" style="fill:#fef9f4;fill-opacity:1;fill-rule:nonzero;stroke:none" transform="matrix(0.13333333,0,0,-0.13333333,0,666.66667)" />
      <path id="path42" d="m 844.488,1136.96 h 530.562 c 0,-146.48 -118.79,-265.269 -265.28,-265.269 -146.497,0 -265.282,118.789 -265.282,265.269" style="fill:#1f3662;fill-opacity:1;fill-rule:nonzero;stroke:none" transform="matrix(0.13333333,0,0,-0.13333333,0,666.66667)" />
      <path id="path43" d="M 977.129,1136.96 H 1242.4 c 0,-73.24 -59.39,-132.64 -132.63,-132.64 -73.25,0 -132.641,59.4 -132.641,132.64" style="fill:#fef9f4;fill-opacity:1;fill-rule:nonzero;stroke:none" transform="matrix(0.13333333,0,0,-0.13333333,0,666.66667)" />
      <path id="path44" d="m 1375.05,1136.96 v 530.56 c 146.48,0 265.27,-118.78 265.27,-265.28 0,-146.49 -118.79,-265.28 -265.27,-265.28" style="fill:#1f3662;fill-opacity:1;fill-rule:nonzero;stroke:none" transform="matrix(0.13333333,0,0,-0.13333333,0,666.66667)" />
      <path id="path45" d="m 1375.05,1269.61 v 265.27 c 73.24,0 132.63,-59.39 132.63,-132.64 0,-73.25 -59.39,-132.63 -132.63,-132.63" style="fill:#fef9f4;fill-opacity:1;fill-rule:nonzero;stroke:none" transform="matrix(0.13333333,0,0,-0.13333333,0,666.66667)" />
      <path id="path46" d="m 977.129,1402.24 c 0,73.25 -59.383,132.64 -132.641,132.64 -73.25,0 -132.636,-59.39 -132.636,-132.64 0,-73.25 59.386,-132.63 132.636,-132.63 73.258,0 132.641,59.38 132.641,132.63" style="fill:#f68b11;fill-opacity:1;fill-rule:nonzero;stroke:none" transform="matrix(0.13333333,0,0,-0.13333333,0,666.66667)" />
      <path id="path47" d="m 1507.68,1402.24 c 0,73.25 -59.38,132.64 -132.63,132.64 -73.26,0 -132.65,-59.39 -132.65,-132.64 0,-73.25 59.39,-132.63 132.65,-132.63 73.25,0 132.63,59.38 132.63,132.63" style="fill:#f68b11;fill-opacity:1;fill-rule:nonzero;stroke:none" transform="matrix(0.13333333,0,0,-0.13333333,0,666.66667)" />
      <path id="path48" d="m 1109.77,1269.61 c -73.26,0 -132.641,-59.39 -132.641,-132.65 0,-73.25 59.381,-132.64 132.641,-132.64 73.25,0 132.63,59.39 132.63,132.64 0,73.26 -59.38,132.65 -132.63,132.65" style="fill:#f68b11;fill-opacity:1;fill-rule:nonzero;stroke:none" transform="matrix(0.13333333,0,0,-0.13333333,0,666.66667)" />
      <path id="path49" d="m 1109.77,1800.15 c -73.26,0 -132.641,-59.38 -132.641,-132.63 0,-73.26 59.381,-132.64 132.641,-132.64 73.25,0 132.63,59.38 132.63,132.64 0,73.25 -59.38,132.63 -132.63,132.63" style="fill:#f68b11;fill-opacity:1;fill-rule:nonzero;stroke:none" transform="matrix(0.13333333,0,0,-0.13333333,0,666.66667)" />
      <path id="path50" d="m 1375.05,1402.24 c 0,-146.51 -118.77,-265.28 -265.28,-265.28 -146.512,0 -265.282,118.77 -265.282,265.28 0,146.51 118.77,265.28 265.282,265.28 146.51,0 265.28,-118.77 265.28,-265.28" style="fill:#ee1a7c;fill-opacity:1;fill-rule:nonzero;stroke:none" transform="matrix(0.13333333,0,0,-0.13333333,0,666.66667)" />
      <path id="path51" d="m 1242.4,1402.24 c 0,-73.25 -59.38,-132.63 -132.63,-132.63 -73.26,0 -132.641,59.38 -132.641,132.63 0,73.25 59.381,132.64 132.641,132.64 73.25,0 132.63,-59.39 132.63,-132.64" style="fill:#fef9f4;fill-opacity:1;fill-rule:nonzero;stroke:none" transform="matrix(0.13333333,0,0,-0.13333333,0,666.66667)" />
      <path id="path52" d="m 1109.77,585.691 v -0.011 c -183.137,0 -331.598,148.468 -331.598,331.601 v 0 0 c 183.133,0 331.598,-148.449 331.598,-331.59" style="fill:#f68b11;fill-opacity:1;fill-rule:nonzero;stroke:none" transform="matrix(0.13333333,0,0,-0.13333333,0,666.66667)" />
      <path id="path53" d="m 1441.36,917.281 v 0 0 c -183.13,0 -331.59,-148.449 -331.59,-331.59 v -0.011 0 c 183.13,0 331.59,148.468 331.59,331.601" style="fill:#f68b11;fill-opacity:1;fill-rule:nonzero;stroke:none" transform="matrix(0.13333333,0,0,-0.13333333,0,666.66667)" />
      <path id="path54" d="m 1109.77,274.809 v 0 0 c -183.137,0 -331.598,148.472 -331.598,331.601 v 0 0 c 183.133,0 331.598,-148.461 331.598,-331.601" style="fill:#1f3662;fill-opacity:1;fill-rule:nonzero;stroke:none" transform="matrix(0.13333333,0,0,-0.13333333,0,666.66667)" />
      <path id="path55" d="m 1441.36,606.41 v 0 0 c -183.13,0 -331.59,-148.461 -331.59,-331.601 v 0 0 c 183.13,0 331.59,148.472 331.59,331.601" style="fill:#1f3662;fill-opacity:1;fill-rule:nonzero;stroke:none" transform="matrix(0.13333333,0,0,-0.13333333,0,666.66667)" />
      </g></svg>