<?xml version='1.0' encoding='utf-8'?>
<svg xmlns="http://www.w3.org/2000/svg" version="1.1" width="189.009" height="209.795" viewBox="746.743 426.231 189.009 209.795"><g id="object"><path id="path112" d="m 6720.74,274.809 h 80.74 c 94.81,0 171.66,76.863 171.66,171.671 v 1131.93 c 0,99.34 -80.52,179.86 -179.85,179.86 h -618.33 c -112.65,0 -184.59,-120.16 -131.39,-219.45 L 6720.74,274.809" style="fill:#1f3662;fill-opacity:1;fill-rule:nonzero;stroke:none" transform="matrix(0.13333333,0,0,-0.13333333,0,666.66667)" />
      <path id="path113" d="M 6720.77,1277.8 V 274.809 h -420.62 c -1.05,0 -2.18,0 -3.23,0.062 -234.41,1.711 -423.85,192.211 -423.85,427.02 V 1277.8 c 0,148.34 120.21,268.54 268.56,268.54 h 310.58 c 148.34,0 268.56,-120.2 268.56,-268.54" style="fill:#f68b11;fill-opacity:1;fill-rule:nonzero;stroke:none" transform="matrix(0.13333333,0,0,-0.13333333,0,666.66667)" />
      <path id="path114" d="M 5883.67,952.969 V 698.66 l 127.16,127.149 z" style="fill:#ee1a7c;fill-opacity:1;fill-rule:nonzero;stroke:none" transform="matrix(0.13333333,0,0,-0.13333333,0,666.66667)" />
      <path id="path115" d="M 6137.97,825.809 5883.67,698.66 v 254.309 z" style="fill:#ee1a7c;fill-opacity:1;fill-rule:nonzero;stroke:none" transform="matrix(0.13333333,0,0,-0.13333333,0,666.66667)" />
      <path id="path116" d="M 6137.97,825.809 5883.67,698.66 v 127.149 z" style="fill:#ee1a7c;fill-opacity:1;fill-rule:nonzero;stroke:none" transform="matrix(0.13333333,0,0,-0.13333333,0,666.66667)" />
      <path id="path117" d="M 6137.97,825.809 5883.67,698.66 v 127.149 z" style="fill:#1f3662;fill-opacity:1;fill-rule:nonzero;stroke:none" transform="matrix(0.13333333,0,0,-0.13333333,0,666.66667)" />
      <path id="path118" d="m 5883.67,952.969 v 0 -127.16 c -35.11,0 -63.58,28.461 -63.58,63.582 v 0 c 0,35.109 28.47,63.578 63.58,63.578" style="fill:#ee1a7c;fill-opacity:1;fill-rule:nonzero;stroke:none" transform="matrix(0.13333333,0,0,-0.13333333,0,666.66667)" />
      <path id="path119" d="m 5883.67,825.809 v 0 -127.149 c -35.11,0 -63.58,28.469 -63.58,63.57 v 0 c 0,35.122 28.47,63.579 63.58,63.579" style="fill:#1f3662;fill-opacity:1;fill-rule:nonzero;stroke:none" transform="matrix(0.13333333,0,0,-0.13333333,0,666.66667)" />
      <path id="path120" d="M 6720.77,1016.54 V 274.809 h -420.62 c -1.05,0 -2.18,0 -3.23,0.062 v 545.82 c 0,137.45 111.38,248.829 248.83,248.829 h 122.03 l 52.99,-52.98" style="fill:#ee1a7c;fill-opacity:1;fill-rule:nonzero;stroke:none" transform="matrix(0.13333333,0,0,-0.13333333,0,666.66667)" />
      <path id="path121" d="m 6694.27,857.602 v 0 c -73.15,0 -132.45,59.296 -132.45,132.457 v 132.451 h 132.45 c 73.16,0 132.45,-59.31 132.45,-132.451 v 0 c 0,-73.161 -59.29,-132.457 -132.45,-132.457" style="fill:#f68b11;fill-opacity:1;fill-rule:nonzero;stroke:none" transform="matrix(0.13333333,0,0,-0.13333333,0,666.66667)" />
      <path id="path122" d="m 6694.27,910.582 v 0 c -43.88,0 -79.47,35.578 -79.47,79.477 v 79.461 h 79.47 c 43.89,0 79.48,-35.58 79.48,-79.461 v 0 c 0,-43.899 -35.59,-79.477 -79.48,-79.477" style="fill:#1f3662;fill-opacity:1;fill-rule:nonzero;stroke:none" transform="matrix(0.13333333,0,0,-0.13333333,0,666.66667)" />
      <path id="path123" d="m 6163.66,1060.17 v 0 c -73.01,0 -132.2,59.19 -132.2,132.2 v 0 c 0,73.01 59.19,132.19 132.2,132.19 v 0 c 73.01,0 132.2,-59.18 132.2,-132.19 v 0 c 0,-73.01 -59.19,-132.2 -132.2,-132.2" style="fill:#1f3662;fill-opacity:1;fill-rule:nonzero;stroke:none" transform="matrix(0.13333333,0,0,-0.13333333,0,666.66667)" />
      <path id="path124" d="m 6163.66,1148.3 v 0 c -24.34,0 -44.06,19.73 -44.06,44.07 v 0 c 0,24.34 19.72,44.06 44.06,44.06 v 0 c 24.33,0 44.06,-19.72 44.06,-44.06 v 0 c 0,-24.34 -19.73,-44.07 -44.06,-44.07" style="fill:#f68b11;fill-opacity:1;fill-rule:nonzero;stroke:none" transform="matrix(0.13333333,0,0,-0.13333333,0,666.66667)" />
      <path id="path125" d="m 6296.92,274.871 423.82,423.82 V 274.809 Z" style="fill:#1f3662;fill-opacity:1;fill-rule:nonzero;stroke:none" transform="matrix(0.13333333,0,0,-0.13333333,0,666.66667)" />
      <path id="path126" d="m 6074.97,1470.92 61.7,-61.69 h -123.41 z" style="fill:#1f3662;fill-opacity:1;fill-rule:nonzero;stroke:none" transform="matrix(0.13333333,0,0,-0.13333333,0,666.66667)" />
      <path id="path127" d="m 6213.35,1470.92 61.7,-61.69 h -123.41 z" style="fill:#1f3662;fill-opacity:1;fill-rule:nonzero;stroke:none" transform="matrix(0.13333333,0,0,-0.13333333,0,666.66667)" />
      <path id="path133" d="m 5820.09,1666.33 c 0,-48.2 -39.07,-87.26 -87.26,-87.26 -48.19,0 -87.26,39.06 -87.26,87.26 0,48.19 39.07,87.26 87.26,87.26 48.19,0 87.26,-39.07 87.26,-87.26" style="fill:#1f3662;fill-opacity:1;fill-rule:nonzero;stroke:none" transform="matrix(0.13333333,0,0,-0.13333333,0,666.66667)" />
      </g></svg>