<?xml version='1.0' encoding='utf-8'?>
<svg xmlns="http://www.w3.org/2000/svg" version="1.1" width="65.973" height="124.132" viewBox="766.319 395.725 65.973 124.132"><g id="object"><path id="path3" d="m 6197.19,1757.47 h -0.01 c -112.54,0 -203.79,-91.24 -203.79,-203.8 v 0 0 c 112.55,0 203.8,91.24 203.8,203.8 v 0" style="fill:#f68712;fill-opacity:1;fill-rule:nonzero;stroke:none" transform="matrix(0.13333333,0,0,-0.13333333,0,666.66667)" />
      <path id="path4" d="m 5792.39,1757.47 v 0 c 112.55,0 203.8,-91.24 203.8,-203.8 v 0 0 c -112.56,0 -203.8,91.24 -203.8,203.8 v 0" style="fill:#f68712;fill-opacity:1;fill-rule:nonzero;stroke:none" transform="matrix(0.13333333,0,0,-0.13333333,0,666.66667)" />
      <path id="path5" d="m 6197.19,1556.46 h -0.01 c -112.54,0 -203.79,-91.24 -203.79,-203.8 v 0 0 c 112.55,0 203.8,91.24 203.8,203.8 v 0" style="fill:#2c314f;fill-opacity:1;fill-rule:nonzero;stroke:none" transform="matrix(0.13333333,0,0,-0.13333333,0,666.66667)" />
      <path id="path6" d="m 5792.39,1556.46 v 0 c 112.55,0 203.8,-91.24 203.8,-203.8 v 0 0 c -112.56,0 -203.8,91.24 -203.8,203.8 v 0" style="fill:#2c314f;fill-opacity:1;fill-rule:nonzero;stroke:none" transform="matrix(0.13333333,0,0,-0.13333333,0,666.66667)" />
      <path id="path7" d="m 6197.19,1349.87 h -0.01 c -112.54,0 -203.79,-91.24 -203.79,-203.8 v 0 0 c 112.55,0 203.8,91.25 203.8,203.8 v 0" style="fill:#f68712;fill-opacity:1;fill-rule:nonzero;stroke:none" transform="matrix(0.13333333,0,0,-0.13333333,0,666.66667)" />
      <path id="path8" d="m 5792.39,1349.87 v 0 c 112.55,0 203.8,-91.24 203.8,-203.8 v 0 0 c -112.56,0 -203.8,91.25 -203.8,203.8 v 0" style="fill:#f68712;fill-opacity:1;fill-rule:nonzero;stroke:none" transform="matrix(0.13333333,0,0,-0.13333333,0,666.66667)" />
      <path id="path9" d="m 5994.79,1987.06 v 0 c -79.59,-79.59 -79.59,-208.64 0,-288.22 v 0 0 c 79.58,79.58 79.58,208.63 0,288.22 v 0" style="fill:#2c314f;fill-opacity:1;fill-rule:nonzero;stroke:none" transform="matrix(0.13333333,0,0,-0.13333333,0,666.66667)" />
      </g></svg>