<?xml version='1.0' encoding='utf-8'?>
<svg xmlns="http://www.w3.org/2000/svg" version="1.1" width="202.519" height="209.795" viewBox="560.583 426.231 202.519 209.795"><g id="object"><path id="path22" d="M 4249.37,1499.41 V 592.68 c 0,-175.551 142.32,-317.871 317.87,-317.871 v 0 1002.991 c 0,148.33 120.26,268.58 268.6,268.58 h 310.53 c 87.85,0 165.81,-42.11 214.69,-107.3 l 0.91,1.32 c 43.84,0 83.65,17.8 112.41,46.56 29.17,29.09 47.06,69.53 46.55,114.2 -1,87.75 -75.29,157.11 -163.04,157.11 h -849.65 c -142.97,0 -258.87,-115.9 -258.87,-258.86" style="fill:#1f3662;fill-opacity:1;fill-rule:nonzero;stroke:none" transform="matrix(0.13333333,0,0,-0.13333333,0,666.66667)" />
      <path id="path23" d="M 4567.25,1277.8 V 274.809 h 420.62 c 1.05,0 2.18,0 3.23,0.062 234.41,1.711 423.85,192.211 423.85,427.02 V 1277.8 c 0,148.34 -120.21,268.54 -268.56,268.54 h -310.58 c -148.34,0 -268.56,-120.2 -268.56,-268.54" style="fill:#f68b11;fill-opacity:1;fill-rule:nonzero;stroke:none" transform="matrix(0.13333333,0,0,-0.13333333,0,666.66667)" />
      <path id="path24" d="m 5262.43,1201.97 v 0.01 c -105.96,105.96 -277.76,105.96 -383.71,0 v 0 -0.01 c 105.95,-105.96 277.75,-105.96 383.71,0" style="fill:#1f3662;fill-opacity:1;fill-rule:nonzero;stroke:none" transform="matrix(0.13333333,0,0,-0.13333333,0,666.66667)" />
      <path id="path25" d="m 5022.14,1201.98 c 0,26.75 21.68,48.43 48.43,48.43 26.75,0 48.44,-21.68 48.44,-48.43 0,-26.76 -21.69,-48.44 -48.44,-48.44 -26.75,0 -48.43,21.68 -48.43,48.44" style="fill:#f68b11;fill-opacity:1;fill-rule:nonzero;stroke:none" transform="matrix(0.13333333,0,0,-0.13333333,0,666.66667)" />
      <path id="path26" d="M 5277.19,825.809 5404.35,698.66 v 254.309 z" style="fill:#ee1a7c;fill-opacity:1;fill-rule:nonzero;stroke:none" transform="matrix(0.13333333,0,0,-0.13333333,0,666.66667)" />
      <path id="path27" d="M 5150.05,825.809 5404.35,698.66 V 952.969 Z" style="fill:#ee1a7c;fill-opacity:1;fill-rule:nonzero;stroke:none" transform="matrix(0.13333333,0,0,-0.13333333,0,666.66667)" />
      <path id="path28" d="M 5150.05,825.809 5404.35,698.66 V 825.809 Z" style="fill:#ee1a7c;fill-opacity:1;fill-rule:nonzero;stroke:none" transform="matrix(0.13333333,0,0,-0.13333333,0,666.66667)" />
      <path id="path29" d="M 5150.05,825.809 5404.35,698.66 V 825.809 Z" style="fill:#1f3662;fill-opacity:1;fill-rule:nonzero;stroke:none" transform="matrix(0.13333333,0,0,-0.13333333,0,666.66667)" />
      <path id="path30" d="m 5404.35,952.969 v 0 -127.16 c 35.11,0 63.58,28.461 63.58,63.582 v 0 c 0,35.109 -28.47,63.578 -63.58,63.578" style="fill:#ee1a7c;fill-opacity:1;fill-rule:nonzero;stroke:none" transform="matrix(0.13333333,0,0,-0.13333333,0,666.66667)" />
      <path id="path31" d="m 5404.35,825.809 v 0 -127.149 c 35.11,0 63.58,28.469 63.58,63.57 v 0 c 0,35.122 -28.47,63.579 -63.58,63.579" style="fill:#1f3662;fill-opacity:1;fill-rule:nonzero;stroke:none" transform="matrix(0.13333333,0,0,-0.13333333,0,666.66667)" />
      <path id="path32" d="M 4567.25,1016.54 V 274.809 h 420.62 c 1.05,0 2.18,0 3.23,0.062 v 545.82 c 0,137.45 -111.38,248.829 -248.83,248.829 h -122.03 l -52.99,-52.98" style="fill:#ee1a7c;fill-opacity:1;fill-rule:nonzero;stroke:none" transform="matrix(0.13333333,0,0,-0.13333333,0,666.66667)" />
      <path id="path33" d="m 4593.75,857.602 v 0 c 73.15,0 132.45,59.296 132.45,132.457 v 132.451 h -132.45 c -73.16,0 -132.45,-59.31 -132.45,-132.451 v 0 c 0,-73.161 59.29,-132.457 132.45,-132.457" style="fill:#f68b11;fill-opacity:1;fill-rule:nonzero;stroke:none" transform="matrix(0.13333333,0,0,-0.13333333,0,666.66667)" />
      <path id="path34" d="m 4593.75,910.582 v 0 c 43.88,0 79.47,35.578 79.47,79.477 v 79.461 h -79.47 c -43.89,0 -79.48,-35.58 -79.48,-79.461 v 0 c 0,-43.899 35.59,-79.477 79.48,-79.477" style="fill:#1f3662;fill-opacity:1;fill-rule:nonzero;stroke:none" transform="matrix(0.13333333,0,0,-0.13333333,0,666.66667)" />
      <path id="path35" d="m 4991.1,1387.41 h 185.43 c 14.64,0 26.49,11.85 26.49,26.48 v 0 c 0,14.64 -11.85,26.5 -26.49,26.5 H 4991.1 c -14.63,0 -26.48,-11.86 -26.48,-26.5 v 0 c 0,-14.63 11.85,-26.48 26.48,-26.48" style="fill:#1f3662;fill-opacity:1;fill-rule:nonzero;stroke:none" transform="matrix(0.13333333,0,0,-0.13333333,0,666.66667)" />
      <path id="path36" d="m 4991.1,274.871 -423.82,423.82 V 274.809 Z" style="fill:#1f3662;fill-opacity:1;fill-rule:nonzero;stroke:none" transform="matrix(0.13333333,0,0,-0.13333333,0,666.66667)" />
      <path id="path135" d="m 5678.27,449.34 v 0 c -96.39,0 -174.52,-78.141 -174.52,-174.531 v 0 h 174.52 V 449.34" style="fill:#ee1a7c;fill-opacity:1;fill-rule:nonzero;stroke:none" transform="matrix(0.13333333,0,0,-0.13333333,0,666.66667)" />
      </g></svg>