<?xml version='1.0' encoding='utf-8'?>
<svg xmlns="http://www.w3.org/2000/svg" version="1.1" width="421.668" height="612.481" viewBox="743.356 1711.620 421.668 612.481"><g id="object"><path id="path60" d="m 0,0 c 6.143,9.508 10.132,16.251 14.667,22.605 23.178,32.473 47.499,64.181 69.525,97.412 30.552,46.092 40.572,95.999 17.367,148.277 -37.19,83.784 -159.023,105.811 -231.157,42.169 -32.121,-28.339 -42.936,-65.031 -41.172,-108.191 h 92.54 c 2.281,6.731 3.947,13.026 6.502,18.936 8.188,18.938 31.907,28.267 53.918,20.891 C 2.582,235.265 7.336,219.274 1.652,200.998 -3.329,184.98 -9.831,168.719 -19.106,154.873 -69.847,79.128 -121.863,4.238 -172.749,-71.411 c -4.9,-7.285 -5.048,-17.767 -7.401,-26.765 7.507,-1.662 15.009,-4.746 22.521,-4.77 87.174,-0.281 174.349,-0.143 261.523,0.03 7.757,0.015 15.513,1.044 23.207,1.598 V 0 Z" style="fill:#231916;fill-opacity:1;fill-rule:nonzero;stroke:none" transform="matrix(1.3333333,0,0,-1.3333333,989.55587,2180.6264)" />
      </g></svg>