<?xml version='1.0' encoding='utf-8'?>
<svg xmlns="http://www.w3.org/2000/svg" version="1.1" width="2170.730" height="2804.550" viewBox="545.479 606.176 2170.730 2804.550"><g id="object"><path id="path9" d="m 0,0 c 4.359,-12.236 10.434,-24.21 12.364,-36.818 0.987,-6.438 -5.458,-14.015 -8.543,-21.077 -2.355,0.696 -4.709,1.393 -7.063,2.089 1.301,18.591 2.602,37.181 3.895,55.787 C 0.645,-0.003 0,0 0,0" style="fill:#ffffff;fill-opacity:1;fill-rule:nonzero;stroke:none" transform="matrix(1.3333333,0,0,-1.3333333,1016.1768,3295.1139)" />
      <path id="path10" d="M 0,0 C -14.706,11.07 -14.697,42.434 0.016,53.273 0.01,35.515 0.005,17.758 0,0" style="fill:#ffffff;fill-opacity:1;fill-rule:nonzero;stroke:none" transform="matrix(1.3333333,0,0,-1.3333333,969.602,3373.7761)" />
      <path id="path12" d="m 0,0 c -14.203,-31.067 -29.06,-61.926 -45.431,-91.894 -73.562,-134.662 -147.264,-269.253 -222.138,-403.187 -15.27,-27.313 -35.805,-51.682 -53.913,-77.408 -3.732,1.348 -7.463,2.696 -11.195,4.045 6.681,39.61 7.456,81.419 21.219,118.393 33.213,89.23 72.218,176.321 110.055,263.768 2.164,5 15.217,8.552 22.465,7.533 35,-4.922 38.907,-4.691 53.705,27.16 21.042,45.292 40.386,91.381 59.906,137.363 2.342,5.515 1.989,12.528 1.629,18.774 -1.305,22.653 24.09,44.435 45.93,39.002 C 1.926,38.65 9.836,21.514 0,0 m 572.273,-1275.009 c -33.299,230.035 -127.87,425.328 -319.338,566.753 -59.093,43.649 -111.815,94.363 -152.48,156.855 -16.36,25.14 -19.337,45.852 -4.869,74.048 40.735,79.385 75.28,161.434 97.235,248.576 34.165,135.597 -7.744,255.252 -120.811,336.703 -77.638,55.928 -165.981,82.681 -259.648,95.521 -100.491,13.775 -197.861,-5.595 -296.335,-21.851 -83.744,-13.825 -144.379,-56.156 -188.055,-125.483 -45.998,-73.013 -73.806,-152.157 -65.668,-239.936 2.646,-28.537 -8.199,-49.4 -25.878,-68.653 -17.239,-18.773 -37.97,-34.959 -52.244,-55.673 -16.365,-23.748 -29.83,-50.302 -39.814,-77.384 -7.989,-21.671 2.176,-32.692 25.719,-35.138 12.65,-1.314 25.499,-0.602 38.196,-1.592 18.239,-1.421 27.458,-7.855 21.123,-29.413 -5.989,-20.384 -6.468,-42.327 -10.867,-63.269 -1.673,-7.965 -5.68,-17.595 -11.825,-22.034 -14.526,-10.495 -12.951,-20.269 -2.851,-31.761 4.557,-5.186 9.44,-10.086 13.856,-14.777 -26.732,-43.63 -26.731,-43.631 51.952,-61.051 1.729,-14.483 3.339,-29.407 5.323,-44.281 3.509,-26.322 18.253,-41.731 44.897,-44.795 24.563,-2.824 51.829,0.468 73.03,-9.404 21.97,-10.23 38.013,-33.116 56.811,-50.29 4.096,-3.742 8.64,-7.127 13.386,-10.005 31.776,-19.273 63.662,-38.364 97.076,-58.454 -15.508,-10.401 -30.822,-21.536 -46.951,-31.329 -51.45,-31.239 -85.638,-75.591 -101.689,-133.468 -29.823,-107.537 -79.31,-206.744 -132.508,-303.752 -101.332,-184.784 -205.765,-367.868 -311.082,-555.527 13.632,0 23.897,0 34.162,10e-4 114.757,0.045 229.515,0.136 344.273,0.131 396.926,-0.02 793.852,0.063 1190.778,-0.529 19.125,-0.028 26.586,5.187 27.893,24.575 4.499,66.773 11.022,133.409 15.655,200.175 8.956,129.062 10.141,258.065 -8.452,386.511" style="fill:#ffffff;fill-opacity:1;fill-rule:nonzero;stroke:none" transform="matrix(1.3333333,0,0,-1.3333333,1927.5265,889.69413)" />
      <path id="path13" d="M 20.355977,-10.173715 23.813008,3.3787749e-4 h 4.464844 L 17.22707,-32.351642 H 12.188008 L 1.1958203,3.3787749e-4 H 5.5200391 L 8.8833203,-10.173715 Z M 9.7387891,-13.443497 12.91457,-22.800105 c 0.621094,-1.968157 1.148438,-3.936315 1.628907,-5.854168 h 0.09375 c 0.480468,1.867549 0.960937,3.79169 1.6875,5.898184 l 3.164062,9.312592 z M 33.021016,3.3787749e-4 h 18 V -3.5021019 H 37.204609 V -32.351642 h -4.183593 z m 22.655273,0 h 4.183594 V -14.638225 h 12.234375 v -3.458424 H 59.859883 V -28.849202 H 73.10207 v -3.50244 H 55.676289 Z m 23.375977,0 h 4.183593 V -14.015709 h 3.9375 c 3.785157,0.144625 5.519532,1.823532 6.46875,6.2880425 0.914063,4.0306353 1.640625,6.81623819 2.167969,7.72800437749 h 4.312502 C 99.454609,-1.2446946 98.692891,-4.3698518 97.626484,-8.8783784 c -0.761718,-3.3641026 -2.25,-5.6655266 -4.746093,-6.5332766 v -0.138337 c 3.410156,-1.156999 6.09375,-3.986619 6.09375,-8.2562 0,-2.496353 -0.914063,-4.709744 -2.542969,-6.149705 -2.015625,-1.823533 -4.898438,-2.63469 -9.363281,-2.63469 -2.871094,0 -5.894532,0.238945 -8.015625,0.666532 z M 83.235859,-28.993827 c 0.667969,-0.188641 2.109375,-0.38357 4.125,-0.38357 4.417969,0.0503 7.441407,1.873836 7.441407,6.049097 0,3.697369 -2.835938,6.143417 -7.300782,6.143417 h -4.265625 z m 38.399411,10.368983 h -12.57422 v -10.224358 h 13.28907 v -3.50244 H 104.87746 V 3.3787749e-4 h 18.19922 V -3.5021019 H 109.06105 V -15.166421 h 12.57422 z m 6.8584,18.53086124 c 2.1211,0.23894562 4.61719,0.3835706 7.58203,0.3835706 6.29297,0 11.28516,-1.63489114 14.3086,-4.65943964 3.02343,-2.9742441 4.65234,-7.2941292 4.65234,-12.5760852 0,-5.231652 -1.67578,-8.973037 -4.55859,-11.614015 -2.82422,-2.640978 -7.10157,-4.030635 -13.10157,-4.030635 -3.3164,0 -6.33984,0.282962 -8.88281,0.666532 z m 4.1836,-28.75521924 c 1.10156,-0.238945 2.73046,-0.433875 4.88671,-0.433875 8.83594,0 13.16016,4.848081 13.11329,12.481765 0,8.7340911 -4.85157,13.726797 -13.78125,13.726797 -1.62891,0 -3.16407,-0.044016 -4.21875,-0.2389456 z m 37.95996,-3.50244 V 3.3787749e-4 h 4.18359 V -15.166421 h 15.64453 V 3.3787749e-4 h 4.21875 V -32.351642 h -4.21875 v 13.531868 H 174.82082 V -32.351642 Z M 208.08449,3.3787749e-4 h 4.21875 V -28.798897 h 9.89063 v -3.552745 h -23.95313 v 3.552745 h 9.84375 z M 246.24367,-4.3698518 c -1.6875,0.8174456 -4.27734,1.3456412 -6.82031,1.3456412 -7.875,0 -12.43359,-5.0870266 -12.43359,-13.0099604 0,-8.495146 5.03906,-13.343226 12.63281,-13.343226 2.68359,0 4.93359,0.5785 6.52734,1.345641 l 1.00781,-3.408119 c -1.11328,-0.5785 -3.65625,-1.439962 -7.6875,-1.439962 -10.03125,0 -16.89843,6.860254 -16.89843,16.990291 0,10.607928 6.86718,16.36777512 15.98437,16.36777512 3.9375,0 7.00781,-0.7671412 8.55469,-1.53428242 z m 6.08789,-27.9817902 V 3.3787749e-4 h 4.1836 V -15.166421 h 15.64453 V 3.3787749e-4 h 4.21875 V -32.351642 h -4.21875 v 13.531868 h -15.64453 v -13.531868 z m 53.04785,27.9817902 c -1.6875,0.8174456 -4.27734,1.3456412 -6.82031,1.3456412 -7.875,0 -12.43359,-5.0870266 -12.43359,-13.0099604 0,-8.495146 5.03906,-13.343226 12.63281,-13.343226 2.68359,0 4.93359,0.5785 6.52734,1.345641 l 1.00782,-3.408119 c -1.11328,-0.5785 -3.65625,-1.439962 -7.6875,-1.439962 -10.03125,0 -16.89844,6.860254 -16.89844,16.990291 0,10.607928 6.86719,16.36777512 15.98437,16.36777512 3.9375,0 7.00782,-0.7671412 8.55469,-1.53428242 z m 18.19336,-28.5099852 c -8.64843,0 -15.03515,6.715629 -15.03515,16.990291 0,9.7904825 6,16.41807946 14.55468,16.41807946 8.25,0 15.02344,-5.90447206 15.02344,-17.04059546 0,-9.601841 -5.71875,-16.367775 -14.54297,-16.367775 z m -0.19922,3.408119 c 6.96094,0 10.32422,6.715629 10.32422,13.148297 0,7.344434 -3.75,13.4438353 -10.37109,13.4438353 -6.57422,0 -10.32422,-6.193722 -10.32422,-13.1042813 0,-7.105488 3.45703,-13.487851 10.37109,-13.487851 z m 41.90918,25.1018662 c -1.6875,0.8174456 -4.27734,1.3456412 -6.82031,1.3456412 -7.875,0 -12.43359,-5.0870266 -12.43359,-13.0099604 0,-8.495146 5.03906,-13.343226 12.63281,-13.343226 2.68359,0 4.93359,0.5785 6.52734,1.345641 l 1.00782,-3.408119 c -1.11328,-0.5785 -3.65625,-1.439962 -7.6875,-1.439962 -10.03125,0 -16.89844,6.860254 -16.89844,16.990291 0,10.607928 6.86719,16.36777512 15.98437,16.36777512 3.9375,0 7.00782,-0.7671412 8.55469,-1.53428242 z m 6.09082,4.37018967749 h 4.1836 V -12.336802 l 3.07031,-3.552744 10.65234,15.88988387749 h 4.94532 L 381.60402,-18.624844 393.31105,-32.351642 h -5.17968 l -9.89063,12.142211 c -0.82031,1.056391 -1.67578,2.207103 -2.54297,3.458423 h -0.14062 v -15.600634 h -4.1836 z m 36.19043,0 h 4.1836 V -12.959318 c 0.96094,0.238946 2.10937,0.28925 3.35156,0.28925 4.08984,0 7.6875,-1.201016 9.89063,-3.552744 1.6289,-1.678908 2.49609,-3.986619 2.49609,-6.916847 0,-2.879924 -1.05469,-5.231652 -2.83594,-6.765934 -1.91015,-1.729212 -4.93359,-2.684994 -9.07031,-2.684994 -3.35156,0 -6,0.282962 -8.01563,0.622516 z M 411.74758,-28.943522 c 0.71484,-0.19493 2.10937,-0.339555 3.9375,-0.339555 4.60547,0 7.6289,2.068766 7.6289,6.338347 0,4.464511 -3.07031,6.910559 -8.10937,6.910559 -1.39453,0 -2.55469,-0.09432 -3.45703,-0.333266 z M 433.09914,3.3787749e-4 h 4.18359 V -14.015709 h 3.9375 c 3.78516,0.144625 5.51954,1.823532 6.46875,6.2880425 0.91407,4.0306353 1.64063,6.81623819 2.16797,7.72800437749 h 4.3125 C 453.50148,-1.2446946 452.73977,-4.3698518 451.67336,-8.8783784 c -0.76172,-3.3641026 -2.25,-5.6655266 -4.74609,-6.5332766 v -0.138337 c 3.41015,-1.156999 6.09375,-3.986619 6.09375,-8.2562 0,-2.496353 -0.91407,-4.709744 -2.54297,-6.149705 -2.01563,-1.823533 -4.89844,-2.63469 -9.36328,-2.63469 -2.8711,0 -5.89454,0.238945 -8.01563,0.666532 z M 437.28273,-28.993827 c 0.66797,-0.188641 2.10938,-0.38357 4.125,-0.38357 4.41797,0.0503 7.44141,1.873836 7.44141,6.049097 0,3.697369 -2.83594,6.143417 -7.30078,6.143417 h -4.26563 z m 38.39942,10.368983 h -12.57422 v -10.224358 h 13.28906 v -3.50244 H 458.92434 V 3.3787749e-4 h 18.19921 V -3.5021019 H 463.10793 V -15.166421 h 12.57422 z m 5.22949,17.0405951 c 1.72266,1.15071183 5.13281,2.06247802 8.26172,2.06247802 7.62891,0 11.32031,-4.31988532 11.32031,-9.31259122 0,-4.7474719 -2.77734,-7.3884499 -8.25,-9.5012329 -4.46484,-1.729211 -6.43359,-3.219477 -6.43359,-6.244026 0,-2.207103 1.67578,-4.848081 6.09375,-4.848081 2.92969,0 5.08594,0.962071 6.14062,1.540571 l 1.16016,-3.408119 c -1.44141,-0.817446 -3.84375,-1.584587 -7.16016,-1.584587 -6.28125,0 -10.46484,3.741385 -10.46484,8.784395 0,4.558831 3.26953,7.29413 8.54297,9.167967 4.37109,1.678907 6.10547,3.408119 6.10547,6.4326672 0,3.2634942 -2.4961,5.5209015 -6.77344,5.5209015 -2.88281,0 -5.61328,-0.9620705 -7.48828,-2.1127823 z m 42.04981,-17.0405951 h -12.57422 v -10.224358 h 13.28906 v -3.50244 H 506.20363 V 3.3787749e-4 h 18.19922 V -3.5021019 H 510.38723 V -15.166421 h 12.57422 z M 533.75734,3.3787749e-4 V -13.827068 c 0,-5.376276 -0.0937,-9.262287 -0.33984,-13.343226 l 0.15234,-0.04402 c 1.62891,3.50244 3.78516,7.199809 6.04688,10.796569 L 549.88234,3.3787749e-4 h 4.23047 V -32.351642 h -3.9375 v 13.531868 c 0,5.04301 0.0937,8.9793251 0.48047,13.2992104 l -0.0937,0.050304 c -1.53515,-3.3137985 -3.41015,-6.7219174 -5.8125,-10.5136074 l -10.37109,-16.367775 h -4.5586 V 3.3787749e-4 Z m 33.79981,0 h 4.21875 V -28.798897 h 9.89062 v -3.552745 H 557.7134 v 3.552745 h 9.84375 z M 583.3423,-1.5842489 c 1.72266,1.15071183 5.13282,2.06247802 8.26172,2.06247802 7.62891,0 11.32032,-4.31988532 11.32032,-9.31259122 0,-4.7474719 -2.77735,-7.3884499 -8.25,-9.5012329 -4.46485,-1.729211 -6.4336,-3.219477 -6.4336,-6.244026 0,-2.207103 1.67578,-4.848081 6.09375,-4.848081 2.92969,0 5.08594,0.962071 6.14063,1.540571 l 1.16015,-3.408119 c -1.4414,-0.817446 -3.84375,-1.584587 -7.16015,-1.584587 -6.28125,0 -10.46485,3.741385 -10.46485,8.784395 0,4.558831 3.26953,7.29413 8.54297,9.167967 4.3711,1.678907 6.10547,3.408119 6.10547,6.4326672 0,3.2634942 -2.49609,5.5209015 -6.77344,5.5209015 -2.88281,0 -5.61328,-0.9620705 -7.48828,-2.1127823 z m 0,0" style="fill:#c0272a;fill-opacity:1;fill-rule:nonzero;stroke:none" aria-label="ALFRED HTCHCOCK PRESENTS" transform="matrix(1.3333333,0,0,2.484875,660.02667,3372.5031)" />
    </g></svg>