<?xml version='1.0' encoding='utf-8'?>
<svg xmlns="http://www.w3.org/2000/svg" version="1.1" width="3184.980" height="1777.220" viewBox="-0.397 2722.640 3184.980 1777.220"><defs id="defs1"><clipPath clipPathUnits="userSpaceOnUse" id="clipPath3">
      <path d="M -1490.7273,3121.9783 H 893.21272 V -248.41181 H -1490.7273 Z" id="path3" />
    </clipPath>
    <clipPath clipPathUnits="userSpaceOnUse" id="clipPath5">
      <path d="M -2387.0094,4.2025001 H -3.0693251 V -3366.1876 H -2387.0094 Z" id="path5" />
    </clipPath>
  </defs><g id="object"><path id="path2" d="m 0,0 c 13.813,3.218 23.852,5.557 33.892,7.897 -5.551,4.513 -11.103,9.027 -18.336,14.909 0,8.982 0.727,20.19 -0.372,31.216 -0.417,4.183 -5.038,7.947 -7.743,11.902 C 4.961,61.727 0.574,57.633 0.341,53.315 -0.517,37.41 0,21.431 0,0 m 74.724,4.005 c 0.797,2.19 1.593,4.379 2.389,6.568 -6.278,3.199 -12.555,6.399 -21.04,10.723 V 65.389 C 39.055,62.225 34.81,35.486 44.342,4.005 Z M -28.422,22.347 c 5.485,4.121 10.827,8.135 16.17,12.149 -5.353,3.883 -10.706,7.766 -16.069,11.702 6.077,4.641 12.154,9.283 18.231,13.925 -1.03,1.59 -2.06,3.18 -3.09,4.77 H -44.648 V 0.58 c 12.141,2.548 22.307,4.681 32.474,6.814 -5.148,4.738 -10.295,9.475 -16.248,14.953 M -338.501,0.045 c 12.795,2.962 22.824,5.284 32.853,7.606 -5.506,4.932 -11.012,9.864 -16.523,14.76 5.442,3.829 10.883,7.657 16.325,11.485 -5.585,4.289 -11.171,8.578 -14.925,11.46 5.58,5.697 10.482,10.702 15.385,15.708 -10.57,2.122 -21.141,4.244 -33.115,6.648 z M -581.275,68.197 V 0.368 c 12.175,2.92 22.181,5.32 32.187,7.721 -5.769,4.733 -11.538,9.467 -16.876,13.846 5.791,4.423 11.084,8.464 16.378,12.506 -5.682,4.068 -11.364,8.136 -15.096,10.808 5.708,5.896 10.588,10.936 15.467,15.976 -10.011,2.177 -20.022,4.354 -32.06,6.972 m 390.841,2.836 V 3.892 c 1.823,-1.046 3.646,-2.092 5.469,-3.139 4.373,5.396 8.747,10.792 11.71,14.449 7.719,-4.534 16.447,-9.662 25.175,-14.789 1.214,1.716 2.428,3.433 3.641,5.15 -4.297,6.943 -8.593,13.886 -12.89,20.829 5.541,9.601 11.217,25.005 7.057,28.419 -9.808,8.046 -24.304,10.377 -40.162,16.222 M -429.539,25.266 c 1.599,0.533 3.199,1.067 4.798,1.602 0.805,9.995 5.828,25.712 1.575,28.847 -10.282,7.581 -24.892,9.29 -41.588,14.581 0,-21.126 -0.617,-35.643 0.299,-50.063 0.374,-5.888 4.068,-11.565 6.251,-17.338 4.513,4.329 9.025,8.658 12.498,11.989 7.399,-4.208 16.022,-9.113 24.644,-14.017 1.177,1.738 2.354,3.476 3.531,5.214 -4.003,6.395 -8.005,12.79 -12.008,19.185 m -163.612,23.316 c -16.401,20.086 -32.115,23.814 -47.005,14.809 -13.567,-8.205 -19.63,-28.952 -11.985,-44.705 7.726,-15.92 21.347,-22.303 38.238,-17.288 16.901,5.017 23.32,17.535 20.689,37.524 -10.547,-1.614 -19.729,-3.019 -28.911,-4.424 3.027,-4.954 6.053,-9.909 12.821,-20.989 -11.33,3.344 -21.844,3.514 -23.776,7.672 -3.29,7.079 -3.206,17.445 -0.364,24.821 1.162,3.017 13.182,2.051 20.287,2.512 5.297,0.344 10.634,0.068 20.006,0.068 m 223.436,-28.13 c -0.676,-2.091 -1.353,-4.182 -2.03,-6.273 -6.425,2.623 -16.664,3.754 -18.408,8.21 -2.833,7.238 -1.759,17.3 1.172,24.8 1.033,2.642 12.355,1.412 18.99,1.669 5.725,0.223 11.466,0.047 19.618,0.047 -14.461,19.007 -30.408,23.296 -45.522,14.848 -13.491,-7.54 -20.016,-28.631 -12.94,-44.517 6.879,-15.441 19.973,-21.735 35.966,-18.449 18.503,3.803 25.175,17.042 24.214,38.836 -11.46,-2.463 -20.908,-4.494 -30.356,-6.525 3.099,-4.215 6.197,-8.431 9.296,-12.646 M -506.319,-0.134 c 19.414,0.163 33.154,15.116 32.775,35.669 -0.351,18.995 -14.551,32.62 -33.657,32.296 -18.942,-0.322 -33.283,-14.65 -33.22,-33.188 0.068,-19.963 14.755,-34.94 34.102,-34.777 m 305.663,33.243 c 0.496,19.426 -12.525,33.866 -31.378,34.799 -19.769,0.977 -35.371,-13.468 -35.507,-32.875 -0.14,-19.988 14.437,-35.224 33.646,-35.168 18.638,0.054 32.753,14.17 33.239,33.244 m 119.457,0.787 c -2.226,7.221 -3.611,14.592 -6.808,21.069 -2.096,4.246 -6.812,7.199 -10.355,10.731 -3.031,-3.335 -7.083,-6.203 -8.869,-10.108 -3.146,-6.882 -4.91,-14.397 -7.601,-22.723 -11.83,10.51 -2.261,34.58 -28.562,32.666 5.555,-20.089 9.938,-37.597 15.51,-54.718 1.132,-3.477 6.696,-7.535 10.298,-7.612 3.543,-0.077 8.525,3.811 10.498,7.302 3.681,6.519 5.641,14.011 9.558,24.386 3.403,-10.244 4.977,-17.663 8.368,-24.128 1.851,-3.531 6.762,-7.488 10.323,-7.517 3.538,-0.029 9.149,3.923 10.33,7.345 6.016,17.421 10.889,35.237 16.619,54.446 C -79.246,67.522 -67.666,41.13 -81.199,33.896 M -1486.525,1075.37 c 122.741,-78.121 253.224,-140.031 390.995,-186.658 171.031,-57.884 346.615,-94.115 526.208,-112.176 197.948,-19.908 395.706,-19.026 593.115,4.984 284.727,34.629 556.811,110.141 806.799,255.036 20.985,12.163 41.504,25.128 64.252,38.944 V -252.398 h -26.159 c -775.266,0.001 -1550.533,0.003 -2325.799,-0.006 -9.804,0 -19.607,-0.137 -29.411,-0.21 0,442.661 0,885.323 0,1327.984" style="fill:#2a2123;fill-opacity:1;fill-rule:nonzero;stroke:none" transform="matrix(1.3333333,0,0,-1.3333333,1987.6364,4162.6376)" clip-path="url(#clipPath3)" />
      <path id="path10" d="M 1648.335,195.89 H 771.447 v 217.052 h 876.888 z" style="fill:#2a2123;fill-opacity:1;fill-rule:nonzero;stroke:none" transform="matrix(1.3333333,0,0,-1.3333333,0,4493.8533)" />
      <path id="path11" d="M 61.991217,-37.265047 H 38.62403 v 7.371094 h 14.425781 v 21.1523436 c -2.109375,1.0546875 -6.210938,1.8984375 -12.210938,1.8984375 -16.523437,0 -27.363281,-10.6289061 -27.363281,-28.6289061 0,-17.789063 11.261719,-28.523438 28.523438,-28.523438 7.160156,0 11.894531,1.371094 15.679687,3.046875 l 2.214844,-7.464843 c -3.058594,-1.476563 -9.480469,-3.269532 -17.683594,-3.269532 -23.789062,0 -38.3203123,15.480469 -38.4257811,36.632813 0,11.050781 3.796875,20.519531 9.9023441,26.4140624 6.9375,6.6328125 15.785156,9.37499998 26.519531,9.37499998 9.574219,0 17.683594,-2.42578128 21.785156,-3.89062498 z m 50.739253,-3.574219 H 85.156256 v -22.417968 h 29.156254 v -7.6875 H 76.003912 V 5.78125e-4 H 115.89454 V -7.6869219 H 85.156256 V -33.257234 h 27.574214 z m 43.7959,-31.265625 c -18.94922,0 -32.95312,14.742188 -32.95312,37.265625 0,21.46875 13.16015,36.0000004 31.89844,36.0000004 18.10546,0 32.9414,-12.9492184 32.9414,-37.3710934 0,-21.046875 -12.52734,-35.894532 -31.88672,-35.894532 z m -0.42187,7.476563 c 15.25781,0 22.6289,14.742187 22.6289,28.839844 0,16.101562 -8.21484,29.4726559 -22.73437,29.4726559 -14.42578,0 -22.62891,-13.5820309 -22.62891,-28.7343749 0,-15.574219 7.57032,-29.578125 22.73438,-29.578125 z M 200.31934,5.78125e-4 h 9.15235 V -30.737703 h 8.63671 c 8.3086,0.316406 12.10547,4.007812 14.20313,13.792969 2.00391,8.8359371 3.58594,14.9414059 4.73437,16.945312125 h 9.48047 C 245.04981,-2.7416094 243.36231,-9.5736406 241.05372,-19.475984 c -1.6875,-7.359375 -4.94532,-12.421875 -10.42969,-14.308594 v -0.316406 c 7.47656,-2.53125 13.37109,-8.742188 13.37109,-18.105469 0,-5.472656 -1.99218,-10.3125 -5.57812,-13.476563 -4.41797,-3.996093 -10.73438,-5.789062 -20.51953,-5.789062 -6.31641,0 -12.94922,0.527344 -17.57813,1.476562 z M 209.47169,-63.573641 c 1.47656,-0.421875 4.6289,-0.84375 9.05859,-0.84375 9.67969,0.105469 16.3125,4.101563 16.3125,13.265625 0,8.097657 -6.21094,13.464844 -16.00781,13.464844 h -9.36328 z m 101.7832,26.308594 H 287.8877 v 7.371094 h 14.42578 v 21.1523436 c -2.10937,1.0546875 -6.21093,1.8984375 -12.21093,1.8984375 -16.52344,0 -27.36329,-10.6289061 -27.36329,-28.6289061 0,-17.789063 11.26172,-28.523438 28.52344,-28.523438 7.16016,0 11.89453,1.371094 15.67969,3.046875 l 2.21484,-7.464843 c -3.05859,-1.476563 -9.48047,-3.269532 -17.68359,-3.269532 -23.78906,0 -38.32031,15.480469 -38.42578,36.632813 0,11.050781 3.79687,20.519531 9.90234,26.4140624 6.9375,6.6328125 15.78516,9.37499998 26.51953,9.37499998 9.57422,0 17.6836,-2.42578128 21.78516,-3.89062498 z m 50.73633,-3.574219 H 334.417 v -22.417968 h 29.15625 v -7.6875 h -38.3086 V 5.78125e-4 h 39.89063 V -7.6869219 H 334.417 V -33.257234 h 27.57422 z m 66.11133,-31.265625 c -18.94922,0 -32.95313,14.742188 -32.95313,37.265625 0,21.46875 13.16016,36.0000004 31.89844,36.0000004 18.10547,0 32.9414,-12.9492184 32.9414,-37.3710934 0,-21.046875 -12.52734,-35.894532 -31.88671,-35.894532 z m -0.42188,7.476563 c 15.25781,0 22.62891,14.742187 22.62891,28.839844 0,16.101562 -8.21485,29.4726559 -22.73438,29.4726559 -14.42578,0 -22.6289,-13.5820309 -22.6289,-28.7343749 0,-15.574219 7.57031,-29.578125 22.73437,-29.578125 z M 471.89551,5.78125e-4 h 9.15235 V -30.737703 h 8.63672 c 8.30859,0.316406 12.10547,4.007812 14.20312,13.792969 2.00391,8.8359371 3.58594,14.9414059 4.73438,16.945312125 h 9.48047 C 516.62598,-2.7416094 514.93848,-9.5736406 512.62989,-19.475984 c -1.6875,-7.359375 -4.94531,-12.421875 -10.42969,-14.308594 v -0.316406 c 7.47656,-2.53125 13.3711,-8.742188 13.3711,-18.105469 0,-5.472656 -1.99219,-10.3125 -5.57813,-13.476563 -4.41797,-3.996093 -10.73437,-5.789062 -20.51953,-5.789062 -6.31641,0 -12.94922,0.527344 -17.57813,1.476562 z M 481.04786,-63.573641 c 1.47656,-0.421875 4.6289,-0.84375 9.05859,-0.84375 9.67969,0.105469 16.3125,4.101563 16.3125,13.265625 0,8.097657 -6.21094,13.464844 -16.00781,13.464844 h -9.36328 z M 551.36329,5.78125e-4 561.46485,-36.948641 c 2.63672,-9.152343 4.21875,-16.101562 5.47266,-23.15625 h 0.21093 c 0.94922,7.160157 2.42578,14.109375 4.64063,23.15625 l 8.9414,36.949219125 h 9.57422 L 610.41407,-70.944734 h -9.36328 l -9.375,35.789062 c -2.21485,8.847656 -4.20703,16.734375 -5.6836,24.527344 h -0.21093 c -1.05469,-7.476563 -2.94141,-15.890625 -4.94532,-24.316406 l -8.63672,-36 h -9.57421 l -9.46875,35.789062 c -2.42579,9.152344 -4.64063,17.578125 -5.78907,24.632813 h -0.21093 c -1.26563,-6.84375 -3.16407,-15.691407 -5.26172,-24.527344 l -8.42578,-35.894531 h -9.67969 l 18,70.945312125 z M 655.98829,-40.839266 h -27.57422 v -22.417968 h 29.15625 v -7.6875 h -38.3086 V 5.78125e-4 h 39.89063 V -7.6869219 H 628.41407 V -33.257234 h 27.57422 z M 671.05274,5.78125e-4 h 39.46875 V -7.6869219 H 680.20508 V -70.944734 h -9.15234 z m 49.68164,0 h 39.46875 V -7.6869219 H 729.88672 V -70.944734 h -9.15234 z m 0,0" style="fill:#ffffff;fill-opacity:1;fill-rule:nonzero;stroke:none" aria-label="GEORGE ORWELL" transform="matrix(1.3333333,0,0,1.3333333,1090.0052,4154.0227)" />
      <path id="path12" d="m 0,0 h -23.368 v -7.368 h 14.421 v -21.158 c -2.106,-1.052 -6.211,-1.895 -12.211,-1.895 -16.526,0 -27.368,10.632 -27.368,28.632 0,17.789 11.263,28.526 28.526,28.526 7.158,0 11.895,-1.369 15.684,-3.052 l 2.211,7.473 c -3.053,1.474 -9.474,3.263 -17.684,3.263 -23.79,0 -38.316,-15.474 -38.421,-36.631 0,-11.053 3.79,-20.526 9.895,-26.421 6.947,-6.632 15.789,-9.369 26.526,-9.369 9.579,0 17.684,2.422 21.789,3.896 z" style="fill:none;stroke:#ffffff;stroke-width:5;stroke-linecap:butt;stroke-linejoin:miter;stroke-miterlimit:10;stroke-dasharray:none;stroke-opacity:1" transform="matrix(1.3333333,0,0,-1.3333333,1172.6712,4104.3391)" />
      <path id="path13" d="M 0,0 H -27.579 V 22.421 H 1.579 v 7.684 H -36.736 V -40.842 H 3.158 v 7.685 h -30.737 v 25.578 l 27.579,0 z" style="fill:none;stroke:#ffffff;stroke-width:5;stroke-linecap:butt;stroke-linejoin:miter;stroke-miterlimit:10;stroke-dasharray:none;stroke-opacity:1" transform="matrix(1.3333333,0,0,-1.3333333,1240.3191,4099.5669)" />
      <path id="path14" d="m 0,0 c -18.947,0 -32.947,-14.736 -32.947,-37.263 0,-21.473 13.158,-36 31.895,-36 18.105,0 32.947,12.948 32.947,37.368 C 31.895,-14.842 19.369,0 0,0 Z m -0.421,-7.474 c 15.263,0 22.631,-14.736 22.631,-28.841 0,-16.106 -8.21,-29.474 -22.736,-29.474 -14.421,0 -22.632,13.579 -22.632,28.737 0,15.578 7.579,29.578 22.737,29.578 z" style="fill:none;stroke:#ffffff;stroke-width:5;stroke-linecap:butt;stroke-linejoin:miter;stroke-miterlimit:10;stroke-dasharray:none;stroke-opacity:1" transform="matrix(1.3333333,0,0,-1.3333333,1298.7031,4057.8833)" />
      <path id="path15" d="m 0,0 h 9.158 v 30.736 h 8.631 C 26.105,30.421 29.895,26.736 32,16.947 34,8.105 35.579,2 36.736,0 h 9.474 c -1.474,2.737 -3.158,9.579 -5.474,19.474 -1.684,7.368 -4.947,12.421 -10.421,14.315 v 0.316 c 7.474,2.526 13.369,8.737 13.369,18.105 0,5.474 -2,10.315 -5.579,13.474 -4.421,4 -10.737,5.79 -20.526,5.79 C 11.263,71.474 4.631,70.947 0,69.999 Z m 9.158,63.578 c 1.473,0.422 4.632,0.843 9.052,0.843 9.685,-0.106 16.316,-4.106 16.316,-13.264 0,-8.104 -6.211,-13.473 -16,-13.473 H 9.158 Z" style="fill:none;stroke:#ffffff;stroke-width:5;stroke-linecap:butt;stroke-linejoin:miter;stroke-miterlimit:10;stroke-dasharray:none;stroke-opacity:1" transform="matrix(1.3333333,0,0,-1.3333333,1357.0885,4154.0227)" />
      <path id="path16" d="m 0,0 h -23.368 v -7.368 h 14.421 v -21.158 c -2.106,-1.052 -6.211,-1.895 -12.211,-1.895 -16.526,0 -27.368,10.632 -27.368,28.632 0,17.789 11.263,28.526 28.526,28.526 7.158,0 11.895,-1.369 15.684,-3.052 l 2.211,7.473 c -3.053,1.474 -9.474,3.263 -17.684,3.263 -23.79,0 -38.316,-15.474 -38.421,-36.631 0,-11.053 3.79,-20.526 9.895,-26.421 6.947,-6.632 15.789,-9.369 26.526,-9.369 9.579,0 17.684,2.422 21.789,3.896 z" style="fill:none;stroke:#ffffff;stroke-width:5;stroke-linecap:butt;stroke-linejoin:miter;stroke-miterlimit:10;stroke-dasharray:none;stroke-opacity:1" transform="matrix(1.3333333,0,0,-1.3333333,1505.0149,4104.3391)" />
      <path id="path17" d="M 0,0 H -27.579 V 22.421 H 1.579 v 7.684 H -36.736 V -40.842 H 3.158 v 7.685 h -30.737 v 25.578 l 27.579,0 z" style="fill:none;stroke:#ffffff;stroke-width:5;stroke-linecap:butt;stroke-linejoin:miter;stroke-miterlimit:10;stroke-dasharray:none;stroke-opacity:1" transform="matrix(1.3333333,0,0,-1.3333333,1572.6628,4099.5669)" />
      <path id="path18" d="m 0,0 c -18.947,0 -32.947,-14.736 -32.947,-37.263 0,-21.473 13.158,-36 31.895,-36 18.105,0 32.947,12.948 32.947,37.368 C 31.895,-14.842 19.369,0 0,0 Z m -0.421,-7.474 c 15.263,0 22.631,-14.736 22.631,-28.841 0,-16.106 -8.21,-29.474 -22.736,-29.474 -14.421,0 -22.632,13.579 -22.632,28.737 0,15.578 7.579,29.578 22.737,29.578 z" style="fill:none;stroke:#ffffff;stroke-width:5;stroke-linecap:butt;stroke-linejoin:miter;stroke-miterlimit:10;stroke-dasharray:none;stroke-opacity:1" transform="matrix(1.3333333,0,0,-1.3333333,1660.7995,4057.8833)" />
      <path id="path19" d="m 0,0 h 9.158 v 30.736 h 8.631 C 26.105,30.421 29.895,26.736 32,16.947 34,8.105 35.579,2 36.736,0 h 9.474 c -1.474,2.737 -3.158,9.579 -5.474,19.474 -1.684,7.368 -4.947,12.421 -10.421,14.315 v 0.316 c 7.474,2.526 13.369,8.737 13.369,18.105 0,5.474 -2,10.315 -5.579,13.474 -4.421,4 -10.737,5.79 -20.526,5.79 C 11.263,71.474 4.631,70.947 0,69.999 Z m 9.158,63.578 c 1.473,0.422 4.632,0.843 9.052,0.843 9.685,-0.106 16.316,-4.106 16.316,-13.264 0,-8.104 -6.211,-13.473 -16,-13.473 H 9.158 Z" style="fill:none;stroke:#ffffff;stroke-width:5;stroke-linecap:butt;stroke-linejoin:miter;stroke-miterlimit:10;stroke-dasharray:none;stroke-opacity:1" transform="matrix(1.3333333,0,0,-1.3333333,1719.1849,4154.0227)" />
      <path id="path20" d="m 0,0 10.105,36.947 c 2.632,9.157 4.21,16.105 5.474,23.157 H 15.79 C 16.737,52.947 18.21,46 20.421,36.947 L 29.368,0 h 9.579 l 20.105,70.947 h -9.368 l -9.369,-35.79 c -2.21,-8.842 -4.21,-16.736 -5.684,-24.525 h -0.21 c -1.053,7.473 -2.947,15.894 -4.947,24.315 l -8.632,36 H 11.263 L 1.79,35.157 C -0.632,26 -2.842,17.579 -4,10.526 h -0.21 c -1.264,6.842 -3.158,15.684 -5.264,24.527 l -8.421,35.894 h -9.684 L -9.579,0 Z" style="fill:none;stroke:#ffffff;stroke-width:5;stroke-linecap:butt;stroke-linejoin:miter;stroke-miterlimit:10;stroke-dasharray:none;stroke-opacity:1" transform="matrix(1.3333333,0,0,-1.3333333,1825.1465,4154.0227)" />
      <path id="path21" d="M 0,0 H -27.579 V 22.421 H 1.579 v 7.684 H -36.736 V -40.842 H 3.158 v 7.685 h -30.737 v 25.578 l 27.579,0 z" style="fill:none;stroke:#ffffff;stroke-width:5;stroke-linecap:butt;stroke-linejoin:miter;stroke-miterlimit:10;stroke-dasharray:none;stroke-opacity:1" transform="matrix(1.3333333,0,0,-1.3333333,1964.6529,4099.5669)" />
      <path id="path22" d="M 0,0 H 39.473 V 7.685 H 9.158 V 70.947 H 0 Z" style="fill:none;stroke:#ffffff;stroke-width:5;stroke-linecap:butt;stroke-linejoin:miter;stroke-miterlimit:10;stroke-dasharray:none;stroke-opacity:1" transform="matrix(1.3333333,0,0,-1.3333333,1984.722,4154.0227)" />
      <path id="path23" d="M 0,0 H 39.473 V 7.685 H 9.158 V 70.947 H 0 Z" style="fill:none;stroke:#ffffff;stroke-width:5;stroke-linecap:butt;stroke-linejoin:miter;stroke-miterlimit:10;stroke-dasharray:none;stroke-opacity:1" transform="matrix(1.3333333,0,0,-1.3333333,2050.9648,4154.0227)" />
    </g></svg>