<?xml version='1.0' encoding='utf-8'?>
<svg xmlns="http://www.w3.org/2000/svg" version="1.1" width="173.692" height="157.161" viewBox="2885.810 2540.230 173.692 157.161"><g id="object"><path id="path44" d="m 0,0 c -8.797,-13.97 -16.723,-28.603 -26.681,-41.69 -7.296,-9.588 -8.942,-9.199 -19.65,0.304 -8.039,7.134 -11.029,-9.632 -18.235,-2.242 -6.228,6.841 5.416,14.323 -0.298,22.134 -9.877,2.166 -9.065,-12.083 -19.353,-11.762 -4.804,12.006 -2.679,23.953 6.115,33.38 9.982,10.7 17.723,0.835 26.378,-4.656 8.503,-5.395 16.691,-0.602 22.649,6.144 5.167,5.85 9.225,12.679 13.902,19.256 C -7.141,21.559 -10.9,11.256 -5.1,10.179 -5.04,5.965 -3.903,2.289 0,0" style="fill:#342a1a;fill-opacity:1;fill-rule:nonzero;stroke:none" transform="matrix(1.3333333,0,0,-1.3333333,3007.4483,2626.4605)" />
      <path id="path132" d="M 0,0 C -3.903,2.289 -5.04,5.965 -5.1,10.179 11.524,24.031 18.74,45.432 34.539,60.173 31.193,35.195 17.708,16.371 0,0" style="fill:#534124;fill-opacity:1;fill-rule:nonzero;stroke:none" transform="matrix(1.3333333,0,0,-1.3333333,3007.4483,2626.4605)" />
      </g></svg>