<?xml version='1.0' encoding='utf-8'?>
<svg xmlns="http://www.w3.org/2000/svg" version="1.1" width="369.600" height="454.674" viewBox="192.443 3880.280 369.600 454.674"><defs id="defs1"><clipPath clipPathUnits="userSpaceOnUse" id="clipPath4">
      <path d="M -2384.1568,2286.7354 H -0.21670001 V -1083.6547 H -2384.1568 Z" id="path4" />
    </clipPath>
    <clipPath clipPathUnits="userSpaceOnUse" id="clipPath6">
      <path d="M -2384.0266,1933.815 H -0.086575 v -3370.39 H -2384.0266 Z" id="path6" />
    </clipPath>
    <clipPath clipPathUnits="userSpaceOnUse" id="clipPath8">
      <path d="M -2384.1847,2520.3537 H -0.24460001 V -850.0364 H -2384.1847 Z" id="path8" />
    </clipPath>
    <clipPath clipPathUnits="userSpaceOnUse" id="clipPath10">
      <path d="M -1378.8652,3371.3417 H 1005.0749 V 0.95157502 h -2383.9401 z" id="path10" />
    </clipPath>
    <clipPath clipPathUnits="userSpaceOnUse" id="clipPath12">
      <path d="M -2383.8391,1819.185 H 0.100925 v -3370.39 H -2383.8391 Z" id="path12" />
    </clipPath>
    <clipPath clipPathUnits="userSpaceOnUse" id="clipPath14">
      <path d="M -2384.2639,1767.3618 H -0.32387501 V -1603.0283 H -2384.2639 Z" id="path14" />
    </clipPath>
  </defs><g id="object"><path id="path29" d="m 0,0 c -76.095,-1.226 -152.189,-3.122 -228.286,-3.272 -23.25,-0.046 -17.522,-15.361 -17.894,-27.422 -0.391,-12.71 -4.211,-28.3 18.424,-27.046 20.541,1.138 41.211,-0.161 61.824,-0.196 10.126,-0.016 17.23,-3.331 16.781,-14.814 -0.955,-24.424 4.59,-48.927 -0.914,-73.288 -5.563,-50.585 -1.499,-101.322 -2.276,-151.982 -0.501,-32.684 0.706,-33.331 33.127,-33.555 38.65,-0.267 42.856,3.972 43.282,43.551 0.128,11.917 0.027,23.803 -3.975,35.258 -0.283,42.614 -2.124,85.291 -0.519,127.839 2.999,79.513 -13.831,65.229 70.989,63.972 31.305,2.191 30.562,2.199 30.974,40.041 C 21.716,-4.497 16.157,2.245 0,0" style="fill:#9e998f;fill-opacity:1;fill-rule:nonzero;stroke:none" transform="matrix(1.3333333,0,0,-1.3333333,527.32213,3886.8392)" />
      </g></svg>