<?xml version='1.0' encoding='utf-8'?>
<svg xmlns="http://www.w3.org/2000/svg" version="1.1" width="69.649" height="102.053" viewBox="2152.080 4068.000 69.649 102.053"><g id="object"><path id="path94" d="m 0,0 c -1.757,-7.382 -3.52,-12.925 -4.268,-18.6 -0.481,-3.645 3.35,-3.312 5.721,-3.72 3.093,-0.532 4.746,1.367 3.991,4.162 C 3.982,-12.751 4.108,-6.884 0,0 m 16.433,-43.059 c -3.791,-0.53 -6.532,0.705 -7.818,4.929 -1.307,4.287 -4.235,6.351 -9.073,6.063 -4.478,-0.266 -6.141,-2.815 -7.093,-6.541 -1.555,-6.085 -6.503,-4.893 -10.391,-4.095 -4.766,0.978 -1.546,4.556 -1.141,6.908 3.003,17.445 9.089,34.236 11.069,51.903 0.652,5.807 4.229,7.78 9.669,8.054 5.526,0.278 6.558,-3.279 7.559,-7.456 4.27,-17.826 8.558,-35.649 13.084,-53.411 1.389,-5.451 -0.721,-6.971 -5.865,-6.354" style="fill:#494f57;fill-opacity:1;fill-rule:nonzero;stroke:none" transform="matrix(1.3333333,0,0,-1.3333333,2185.4423,4106.2377)" />
      </g></svg>