<?xml version='1.0' encoding='utf-8'?>
<svg xmlns="http://www.w3.org/2000/svg" version="1.1" width="203.907" height="207.553" viewBox="1487.260 2680.980 203.907 207.553"><defs id="defs1"><clipPath clipPathUnits="userSpaceOnUse" id="clipPath59">
      <path d="M 0,3370.3901 H 2383.9401 V -2.5000001e-5 H 0 Z" id="path59" />
    </clipPath>
  </defs><g id="object"><path id="path6" d="M 0,0 C -6.639,7.942 -14.025,21.026 -26.668,19.399 -38.375,17.892 -53.46,14.344 -59.006,1.108 -62.201,-6.516 -37.017,-39.257 -29.842,-39.79 -21.365,-40.419 -0.463,-14.154 0,0 m -100.615,38.659 c 0.319,28.198 20.638,48.192 42.372,39.104 22.559,-9.432 43.711,-4.965 65.5,-6.081 C 39.214,70.045 47.291,59.638 41.66,28.386 34.625,-10.658 6.091,-35.086 -18.745,-62.01 c -4.407,-4.777 -10.876,-6.817 -17.122,-1.629 -33.83,28.097 -60.685,60.428 -64.748,102.298" style="fill:#d04c3c;fill-opacity:1;fill-rule:nonzero;stroke:none" transform="matrix(1.3333333,0,0,-1.3333333,1627.41,2793.6247)" />
      </g></svg>