<?xml version='1.0' encoding='utf-8'?>
<svg xmlns="http://www.w3.org/2000/svg" version="1.1" width="425.879" height="609.134" viewBox="224.499 222.176 425.879 609.134"><g id="object"><path id="path62" d="m 0,0 c 29.613,41.403 56.563,78.885 83.301,116.518 27.287,38.405 38.393,81.051 28.016,127.207 C 94.277,319.52 20.908,361.35 -61,343.597 c -71.398,-15.475 -112.385,-67.305 -108.447,-141.32 25.063,0 48.549,0.557 71.992,-0.205 14.495,-0.471 23.334,1.36 27.467,18.895 4.768,20.228 33.54,29.574 55.659,20.326 19.263,-8.054 23.62,-24.327 16.868,-42.517 -5.875,-15.826 -12.827,-31.755 -22.19,-45.7 C -69.128,79.389 -119.715,6.448 -169.339,-67.142 c -6.093,-9.035 -8.729,-20.403 -13.941,-33.055 h 310.409 l 0,100.197 z" style="fill:#231916;fill-opacity:1;fill-rule:nonzero;stroke:none" transform="matrix(1.3333333,0,0,-1.3333333,474.87267,691.71373)" />
      </g></svg>