<?xml version='1.0' encoding='utf-8'?>
<svg xmlns="http://www.w3.org/2000/svg" version="1.1" width="55.099" height="99.213" viewBox="1605.040 4361.920 55.099 99.213"><g id="object"><path id="path173" d="m 0,0 c 0,6.598 -0.124,13.199 0.043,19.792 0.111,4.372 -0.917,7.309 -6.01,7.677 -3.136,0.227 -5.47,2.336 -4.934,5.623 0.576,3.527 3.15,4.524 6.855,4.266 6.92,-0.48 13.885,-0.395 20.83,-0.353 2.624,0.016 4.758,0.085 4.548,-3.509 -0.163,-2.794 0.595,-6.006 -3.857,-5.892 -5.963,0.153 -6.935,-3.711 -6.819,-8.442 0.322,-13.198 0.685,-26.395 0.97,-39.594 0.082,-3.782 0.643,-7.581 -5.426,-7.581 -5.776,-10e-4 -5.938,3.655 -6.036,7.483 C -0.011,-13.691 0.115,-6.844 0.115,0 0.076,0 0.038,0 0,0" style="fill:#c33c36;fill-opacity:1;fill-rule:nonzero;stroke:none" transform="matrix(1.3333333,0,0,-1.3333333,1625.676,4417.7816)" />
      </g></svg>