<?xml version='1.0' encoding='utf-8'?>
<svg xmlns="http://www.w3.org/2000/svg" version="1.1" width="861.832" height="86.766" viewBox="1176.730 4061.010 861.832 86.766"><g id="object"><path id="path1337" d="M 12.726097,5.828125e-4 V -23.202542 c 0,-9.023438 -0.164063,-15.539063 -0.5625,-22.394531 l 0.246094,-0.08203 c 2.730468,5.882813 6.363281,12.09375 10.148437,18.128907 L 39.796409,5.828125e-4 h 7.089844 V -54.292386 h -6.609375 v 22.710938 c 0,8.460937 0.164063,15.070312 0.808594,22.3124996 l -0.164063,0.082031 c -2.578125,-5.5546876 -5.71875,-11.2734376 -9.75,-17.6367186 L 13.769066,-54.292386 H 6.1167219 V 5.828125e-4 Z M 90.459495,-31.253323 H 69.354027 v -17.15625 h 22.324218 v -5.882813 H 62.346214 V 5.828125e-4 H 92.885277 V -5.8822297 H 69.354027 V -25.452542 H 90.459495 Z M 105.20168,-54.292386 V 5.828125e-4 h 7.00782 V -54.292386 Z M 127.67825,5.828125e-4 h 30.21093 V -5.8822297 H 134.68606 V -54.292386 h -7.00781 z m 41.24707,0 h 30.21093 V -5.8822297 H 175.93313 V -54.292386 h -7.00781 z M 230.46926,-0.16347969 c 2.34375,0.328125 6.04688,0.64453125 10.875,0.64453125 8.87109,0 14.98828,-1.60546876 18.77344,-5.07421876 2.74219,-2.6601562 4.59375,-6.1992188 4.59375,-10.8749998 0,-8.050781 -6.04688,-12.328125 -11.20313,-13.617188 v -0.152343 c 5.71875,-2.097657 9.1875,-6.691407 9.1875,-11.929688 0,-4.265625 -1.6875,-7.488281 -4.51172,-9.585937 -3.38671,-2.730469 -7.89843,-3.9375 -14.90625,-3.9375 -4.91015,0 -9.73828,0.480468 -12.80859,1.125 z M 237.47707,-48.81973 c 1.13672,-0.234375 2.98828,-0.480468 6.21094,-0.480468 7.08984,0 11.91797,2.496093 11.91797,8.859375 0,5.238281 -4.34766,9.105468 -11.75391,9.105468 h -6.375 z m 0,22.804688 h 5.80078 c 7.65235,0 14.01563,3.058594 14.01563,10.464844 0,7.8984371 -6.67969,10.5585933 -13.93359,10.5585933 -2.4961,0 -4.51172,-0.082031 -5.88282,-0.328125 z M 277.35598,5.828125e-4 h 30.21094 V -5.8822297 H 284.36379 V -54.292386 h -7.00781 z M 337.45559,-55.183011 c -14.49609,0 -25.21875,11.285156 -25.21875,28.523438 0,16.429687 10.07812,27.55078081 24.41016,27.55078081 13.86328,0 25.21875,-9.91406251 25.21875,-28.60546881 0,-16.101562 -9.58594,-27.46875 -24.41016,-27.46875 z m -0.31641,5.71875 c 11.67188,0 17.3086,11.285156 17.3086,22.078125 0,12.328125 -6.28125,22.5585938 -17.39063,22.5585938 -11.03906,0 -17.32031,-10.3945308 -17.32031,-21.9960938 0,-11.917969 5.80078,-22.640625 17.40234,-22.640625 z M 421.31789,5.828125e-4 h 6.84375 L 424.77493,-54.292386 h -8.94141 l -9.66797,26.261719 c -2.41406,6.84375 -4.34766,12.808594 -5.71875,18.2812498 h -0.23437 c -1.3711,-5.6367188 -3.22266,-11.6015628 -5.48438,-18.2812498 l -9.25781,-26.261719 h -8.94141 L 372.74368,5.828125e-4 h 6.67968 L 380.87649,-23.284573 c 0.48047,-8.132813 0.89062,-17.238282 1.04297,-24 h 0.16406 c 1.53516,6.445312 3.70312,13.453125 6.28125,21.105468 l 8.78906,25.86328156 h 5.3086 l 9.58593,-26.34374956 c 2.74219,-7.5 4.99219,-14.261719 6.84375,-20.625 h 0.2461 c -0.082,6.761718 0.39843,15.867187 0.80859,23.4375 z m 20.85645,0 h 7.00781 V -20.706448 l 5.15625,-5.953125 17.88281,26.6601558125 h 8.29688 L 459.34231,-31.253323 478.99465,-54.292386 h -8.70703 l -16.59375,20.378906 c -1.35937,1.769532 -2.8125,3.703125 -4.26562,5.800782 h -0.2461 v -26.179688 h -7.00781 z M 517.90969,-17.073636 523.71047,5.828125e-4 h 7.48828 L 512.67141,-54.292386 h -8.46094 L 485.76516,5.828125e-4 h 7.25391 L 498.65578,-17.073636 Z m -17.8125,-5.484375 5.32031,-15.703125 c 1.04297,-3.304687 1.9336,-6.609375 2.74219,-9.832031 h 0.16406 c 0.79688,3.140625 1.60547,6.363281 2.8125,9.914062 l 5.32032,15.621094 z M 589.20071,5.828125e-4 h 6.84375 L 592.65774,-54.292386 h -8.94141 l -9.66797,26.261719 c -2.41406,6.84375 -4.34765,12.808594 -5.71875,18.2812498 h -0.23437 c -1.3711,-5.6367188 -3.22266,-11.6015628 -5.48438,-18.2812498 l -9.25781,-26.261719 h -8.94141 L 540.62649,5.828125e-4 h 6.67969 L 548.7593,-23.284573 c 0.48047,-8.132813 0.89063,-17.238282 1.04297,-24 h 0.16406 c 1.53516,6.445312 3.70313,13.453125 6.28125,21.105468 l 8.78906,25.86328156 h 5.3086 l 9.58594,-26.34374956 c 2.74218,-7.5 4.99218,-14.261719 6.84375,-20.625 h 0.24609 c -0.082,6.761718 0.39844,15.867187 0.80859,23.4375 z m 20.85644,0 h 7.00781 V -21.749417 c 1.61719,0.398437 3.55079,0.480469 5.64844,0.480469 6.84375,0 12.87891,-2.015625 16.59375,-5.953125 2.73047,-2.824219 4.1836,-6.691407 4.1836,-11.601563 0,-4.839844 -1.76954,-8.789062 -4.7461,-11.355469 -3.22265,-2.90625 -8.29687,-4.511718 -15.23437,-4.511718 -5.63672,0 -10.06641,0.480468 -13.45313,1.042968 z M 617.06496,-48.573636 c 1.21875,-0.328125 3.55079,-0.5625 6.60938,-0.5625 7.73437,0 12.80859,3.457031 12.80859,10.628906 0,7.5 -5.15625,11.601563 -13.61718,11.601563 -2.33204,0 -4.26563,-0.164063 -5.80079,-0.5625 z m 0,0" style="fill:#9f9fa0;fill-opacity:1;fill-rule:nonzero;stroke:none" aria-label="NEILL BLOMKAMP" transform="matrix(1.3333333,0,0,1.3333333,1174.5709,4140.5891)" />
      </g></svg>