<?xml version='1.0' encoding='utf-8'?>
<svg xmlns="http://www.w3.org/2000/svg" version="1.1" width="325.147" height="396.500" viewBox="325.436 2652.370 325.147 396.500"><g id="object"><path id="path136" d="m 0,0 c 0,-3.632 0.054,-7.159 -0.012,-10.685 -0.105,-5.551 -2.699,-8.696 -7.269,-8.949 -5.454,-0.302 -9.652,3.556 -9.941,9.233 -0.316,6.235 -0.34,12.493 -0.867,18.709 -1.496,17.673 -5.261,34.827 -12.247,51.206 -1.994,4.674 -3.539,9.555 -5.76,14.112 -3.587,7.362 -6.86,14.917 -12.91,20.85 -2.768,2.716 -4.904,6.113 -7.132,9.335 -3.81,5.508 -7.76,10.841 -13.186,14.936 -10.906,8.229 -19.903,18.67 -30.968,26.748 -3.129,2.283 -5.421,5.696 -8.496,8.075 -4.624,3.576 -4.114,8.086 -3.088,12.812 1.226,5.643 3.631,6.799 8.178,3.376 12.203,-9.188 24.674,-18.056 35.674,-28.752 4.777,-4.645 9.916,-8.925 14.586,-13.671 8.02,-8.15 14.06,-17.881 20.84,-27.015 1.371,-1.846 2.138,-4.172 3.02,-6.343 1.186,-2.92 2.648,-5.537 4.747,-8.011 9.082,-10.701 14.495,-23.098 16.05,-37.102 0.171,-1.541 -0.543,-3.663 0.243,-4.579 7.041,-8.201 4.905,-18.659 7.04,-28.02 C -0.291,10.971 -0.449,5.366 0,0" style="fill:#1e4a94;fill-opacity:1;fill-rule:nonzero;stroke:none" transform="matrix(1.3333333,0,0,-1.3333333,534.91213,2887.2805)" />
      <path id="path143" d="m 0,0 c 0.048,1.245 0.096,2.491 0.146,3.734 1.364,5.63 0.648,11.299 0.301,16.959 -0.122,1.99 -0.993,3.61 -2.597,4.818 0.18,1.747 0.36,3.494 0.537,5.231 0.505,1.008 1.627,2.173 1.425,3.022 -2.092,8.786 -1.344,17.451 0.497,26.158 0.82,3.882 0.27,7.655 -2.475,10.822 -0.047,1.126 -0.094,2.252 -0.138,3.379 -0.296,1.875 -1.293,3.974 -0.774,5.584 2.667,8.28 0.742,16.843 1.908,25.202 0.516,3.7 0.893,7.741 -3.05,10.296 -1.719,0.808 -3.32,1.368 -5.056,-0.211 -2.861,-2.603 -4.137,-6.124 -5.855,-9.399 -1.481,-0.725 -2.641,-1.843 -2.763,-3.495 -0.252,-3.429 0.364,-7.028 -4.865,-7.557 -1.542,-0.155 -3.028,-2.339 -4.259,-3.826 -3.727,-4.5 -7.407,-9.045 -10.892,-13.731 -0.854,-1.149 -0.891,-2.905 -1.304,-4.382 0,0 -0.003,-0.013 -0.003,-0.012 -3.868,-0.754 -6.835,0.452 -9.181,3.719 -1.485,2.069 -2.79,3.96 -0.596,6.148 3.614,3.604 5.252,8.509 8.898,12.295 3.536,3.671 5.014,9.22 10.471,11.457 1.026,0.421 1.832,2.684 1.819,4.088 -0.041,4.19 5.534,5.906 4.386,10.511 -0.12,0.48 0.699,1.406 1.294,1.822 6.451,4.514 9.004,11.809 12.371,18.296 2.35,4.528 5.378,8.638 7.492,13.263 1.521,3.327 3.883,3.291 6.789,1.974 1.032,-0.467 2.288,-0.437 3.441,-0.634 0,0 0.01,-0.026 0.009,-0.026 0.033,-12.135 -0.613,-24.29 1.812,-36.323 0.873,-4.331 4.523,-8.442 1.362,-13.204 3.095,-3.799 -0.045,-8.098 0.837,-11.746 1.046,-4.328 1.433,-8.298 0.865,-12.678 -0.496,-3.835 -0.444,-7.778 1.079,-11.629 0.83,-2.099 1.118,-4.732 0.703,-6.946 -1.7,-9.069 0.825,-17.892 1.131,-26.831 -0.034,-1.127 -0.067,-2.255 -0.101,-3.383 -1.36,-0.932 -2.569,-2.178 -1.977,-3.848 1.074,-3.033 2.038,-6.351 0.977,-9.187 -1.75,-4.678 -0.905,-9.156 -0.622,-13.783 0.34,-5.575 -0.089,-11.036 1.103,-16.752 1.097,-5.262 -1.387,-11.264 -2.247,-16.947 -0.174,-1.154 0.126,-2.436 -0.256,-3.492 -1.051,-2.905 0.607,-3.885 2.676,-5.456 2.539,-1.929 1.685,-7.383 -1.004,-9.107 -0.501,-0.321 -1.574,-0.151 -2.181,0.172 -1.374,0.731 -2.623,1.698 -3.922,2.569 0,0 -0.057,0.619 -0.057,0.616 0.221,9.053 -1.678,17.574 -6.41,25.38 -0.038,1.696 -0.077,3.392 -0.115,5.086 C 4.378,-7.544 1.116,-3.918 0,0" style="fill:#1e4a94;fill-opacity:1;fill-rule:nonzero;stroke:none" transform="matrix(1.3333333,0,0,-1.3333333,613.3088,2916.8291)" />
      <path id="path153" d="m 0,0 c 0.549,10.483 0.489,21.016 3.735,31.212 0.807,2.537 0.587,5.427 0.682,8.16 0.382,10.941 1.135,21.894 0.883,32.822 -0.153,6.601 1.556,13.053 0.983,19.541 -0.548,6.212 -1.972,12.354 -3.15,18.501 -0.68,3.547 -0.199,6.998 0.166,10.516 0.304,2.925 0.063,5.908 0.063,9.591 5.918,-2.153 10.175,-5.201 12.841,-10.304 0.159,-1.951 -0.019,-4.012 0.541,-5.848 2.584,-8.465 2.099,-16.838 0.959,-25.544 -0.734,-5.596 -0.84,-11.47 0.096,-17.456 1.176,-7.524 -1.525,-15.426 -0.203,-23.226 0.057,-0.338 -0.149,-0.815 -0.388,-1.094 -3.897,-4.561 -2.821,-9.77 -2.296,-15.068 0.95,-9.608 1.304,-19.159 -2.822,-28.401 -1.007,-2.255 -0.709,-5.694 0.231,-8.104 2.825,-7.233 0.787,-13.858 -1.88,-20.372 -0.747,-1.825 -0.663,-2.678 0.621,-3.807 1.702,-1.495 1.435,-3.32 1.18,-5.371 -0.386,-3.097 -0.707,-6.327 -0.249,-9.379 1.018,-6.785 -3.335,-12.883 -2.012,-19.791 0.431,-2.249 -2.011,-4.919 -2.559,-7.519 -0.655,-3.107 -3.751,-5.766 -1.156,-9.664 0.997,-1.497 -0.158,-4.522 -0.536,-6.817 -0.552,-3.352 -5.427,-5.387 -8.326,-3.541 -2.839,1.808 -4.478,4.348 -4.577,7.78 0,0 0.174,0.707 0.173,0.705 2.145,0.481 4.843,0.083 4.312,3.863 -0.54,3.85 -1.053,7.804 -0.758,11.649 0.63,8.186 0.997,16.529 2.959,24.439 1.928,7.771 -4.437,16.337 2.629,23.373 0.14,0.141 -0.06,0.811 -0.28,1.098 -2.586,3.382 0.091,6.854 -0.187,10.278 C 1.456,-5.094 2.329,-2.217 0,0" style="fill:#1e4a94;fill-opacity:1;fill-rule:nonzero;stroke:none" transform="matrix(1.3333333,0,0,-1.3333333,347.0304,2861.1787)" />
      <path id="path154" d="m 0,0 c 0.099,-3.433 1.738,-5.972 4.577,-7.78 2.899,-1.846 7.774,0.189 8.326,3.541 0.378,2.295 1.533,5.32 0.536,6.817 -2.595,3.898 0.501,6.557 1.156,9.664 0.548,2.6 2.99,5.27 2.559,7.519 -1.323,6.907 3.03,13.005 2.012,19.79 -0.458,3.053 -0.137,6.283 0.249,9.38 0.255,2.051 0.522,3.876 -1.18,5.371 -1.284,1.129 -1.367,1.982 -0.621,3.807 2.667,6.514 4.705,13.139 1.881,20.372 -0.941,2.41 -1.239,5.849 -0.232,8.103 4.126,9.243 3.772,18.793 2.822,28.402 -0.525,5.298 -1.601,10.507 2.296,15.067 0.239,0.28 0.445,0.757 0.388,1.095 -1.322,7.8 1.379,15.702 0.203,23.226 -0.936,5.986 -0.83,11.86 -0.096,17.456 1.14,8.706 1.625,17.079 -0.959,25.544 -0.56,1.836 -0.382,3.896 -0.541,5.848 4.889,-4.073 5.582,-10.185 7.623,-15.639 0.739,-1.976 0.043,-3.79 -0.501,-5.707 -3.051,-10.755 -3.211,-21.672 -1.82,-32.711 0.686,-5.446 0.509,-10.863 -0.203,-16.418 C 27.182,122.651 27.076,112.408 26.311,102.239 24.752,81.477 25.79,60.649 24.704,39.89 24.07,27.767 23.392,15.571 20.131,3.726 c -1.037,-3.765 -0.66,-7.795 -1.072,-11.587 -1.366,-12.547 1.774,-24.973 0.26,-37.449 -0.139,-1.147 0.332,-2.376 0.155,-3.509 -0.437,-2.791 -4.157,-4.595 -7.048,-4.213 -8.576,1.13 -12.099,7.973 -16.358,14.012 -0.42,0.597 -0.61,1.494 -0.589,2.243 0.198,7.057 -0.078,14.191 0.914,21.141 0.607,4.247 1.394,8.459 1.7,12.762 C -1.836,-1.876 -0.665,-0.956 0,0" style="fill:#3675ba;fill-opacity:1;fill-rule:nonzero;stroke:none" transform="matrix(1.3333333,0,0,-1.3333333,337.4664,2972.0892)" />
      <path id="path179" d="m 0,0 c -1.153,0.197 -2.41,0.167 -3.441,0.634 -2.906,1.317 -5.268,1.353 -6.789,-1.974 -2.114,-4.626 -5.142,-8.735 -7.493,-13.263 -3.366,-6.487 -5.919,-13.782 -12.37,-18.296 -0.596,-0.416 -1.415,-1.342 -1.295,-1.823 1.149,-4.604 -4.426,-6.32 -4.385,-10.51 0.013,-1.404 -0.793,-3.668 -1.819,-4.088 -5.457,-2.237 -6.935,-7.786 -10.471,-11.457 -3.646,-3.786 -5.284,-8.691 -8.898,-12.295 -2.194,-2.188 -0.89,-4.079 0.596,-6.148 2.345,-3.268 5.312,-4.473 9.181,-3.719 -0.506,-1.473 -0.802,-3.063 -1.552,-4.399 -4.117,-7.326 -5.353,-7.574 -12.598,-2.862 -8.538,5.553 -8.356,5.471 -4.301,14.534 4.881,10.906 12.549,19.937 20.439,28.453 6.012,6.488 9.709,14.069 14.05,21.357 1.957,3.284 3.29,6.841 5.823,9.956 2.667,3.281 5.178,7.264 6.034,11.306 1.209,5.704 4.846,8.626 9.647,11.75 C -6.581,4.825 -1.523,5.04 0,0" style="fill:#3675ba;fill-opacity:1;fill-rule:nonzero;stroke:none" transform="matrix(1.3333333,0,0,-1.3333333,623.93173,2709.4543)" />
      <path id="path194" d="m 0,0 c 1.3,-0.871 2.548,-1.838 3.922,-2.569 0.608,-0.323 1.68,-0.493 2.181,-0.172 2.689,1.725 3.544,7.178 1.004,9.107 -2.068,1.571 -3.727,2.551 -2.676,5.456 0.382,1.056 0.082,2.338 0.256,3.492 0.86,5.683 3.345,11.685 2.247,16.947 -1.192,5.717 -0.763,11.177 -1.103,16.752 -0.283,4.627 -1.128,9.105 0.622,13.783 1.061,2.836 0.097,6.154 -0.977,9.187 -0.591,1.67 0.617,2.916 1.977,3.848 1.841,-1.728 2.791,-3.978 2.35,-6.353 -1.966,-10.575 1.295,-20.942 1.05,-31.432 -0.365,-15.667 2.281,-31.144 2.937,-46.748 0.146,-3.486 1.044,-6.935 1.448,-10.419 0.07,-0.599 -0.45,-1.545 -0.978,-1.859 -0.564,-0.334 -1.794,-0.445 -2.162,-0.079 C 6.158,-15.151 -1.604,-10.244 0,0" style="fill:#3675ba;fill-opacity:1;fill-rule:nonzero;stroke:none" transform="matrix(1.3333333,0,0,-1.3333333,624.25653,2974.2505)" />
      <path id="path200" d="m 0,0 c -0.306,8.939 -2.832,17.762 -1.131,26.831 0.415,2.214 0.127,4.847 -0.703,6.946 -1.523,3.851 -1.575,7.794 -1.079,11.629 0.568,4.38 0.181,8.35 -0.865,12.678 -0.882,3.648 2.258,7.947 -0.837,11.746 3.161,4.763 -0.489,8.873 -1.362,13.205 -2.425,12.032 -1.779,24.188 -1.812,36.322 2.096,-1.463 3.071,-3.896 3.233,-6.031 0.677,-8.918 3.731,-17.554 3.091,-26.609 C -1.52,85.94 -1.732,85.1 -1.527,84.39 2.787,69.49 0.686,54.101 1.629,38.968 2.28,28.529 1.944,17.962 2.567,7.462 2.735,4.638 2.272,2 0,0" style="fill:#3675ba;fill-opacity:1;fill-rule:nonzero;stroke:none" transform="matrix(1.3333333,0,0,-1.3333333,634.3288,2868.6319)" />
      <path id="path208" d="m 0,0 c 3.944,-2.555 3.567,-6.597 3.051,-10.296 -1.167,-8.36 0.759,-16.922 -1.909,-25.202 -0.519,-1.611 0.478,-3.71 0.774,-5.584 -3.607,3.581 -7.121,7.261 -10.84,10.72 -4.573,4.254 -7.649,4.3 -12.285,0.244 -4.665,-4.081 -9.196,-8.317 -13.785,-12.484 0.413,1.477 0.45,3.234 1.305,4.383 3.484,4.686 7.165,9.231 10.891,13.73 1.231,1.487 2.717,3.671 4.26,3.827 5.228,0.528 4.612,4.128 4.865,7.556 0.121,1.653 1.281,2.771 2.76,3.494 -1.199,-4.054 -0.258,-7.758 1.837,-11.273 -1.141,-3.234 -0.985,-3.454 3.565,-5.026 4.603,-1.428 5.594,-1.151 5.607,1.819 C 0.129,-16.061 0.04,-8.031 0,0" style="fill:#3675ba;fill-opacity:1;fill-rule:nonzero;stroke:none" transform="matrix(1.3333333,0,0,-1.3333333,607.68173,2763.2219)" />
      <path id="path210" d="m 0,0 c 2.329,-2.217 1.456,-5.094 1.675,-7.778 0.278,-3.424 -2.399,-6.896 0.187,-10.278 0.22,-0.287 0.42,-0.957 0.28,-1.098 -7.066,-7.036 -0.701,-15.602 -2.629,-23.373 -1.962,-7.91 -2.329,-16.253 -2.959,-24.439 -0.295,-3.845 0.218,-7.799 0.758,-11.649 0.531,-3.78 -2.167,-3.382 -4.312,-3.863 -1.098,7.447 0.441,14.78 1.072,22.134 0.7,8.148 1.488,16.27 1.165,24.465 -0.342,8.649 1.483,17.08 2.81,25.553 C -1.412,-6.867 -0.658,-3.441 0,0" style="fill:#3675ba;fill-opacity:1;fill-rule:nonzero;stroke:none" transform="matrix(1.3333333,0,0,-1.3333333,347.0304,2861.1787)" />
      <path id="path234" d="m 0,0 c 2.745,-3.167 3.295,-6.94 2.475,-10.822 -1.84,-8.707 -2.588,-17.372 -0.496,-26.159 0.202,-0.849 -0.921,-2.013 -1.426,-3.021 -2.451,3.38 -2.403,7.283 -2.208,11.149 C -1.168,-19.232 -0.56,-9.617 0,0" style="fill:#3675ba;fill-opacity:1;fill-rule:nonzero;stroke:none" transform="matrix(1.3333333,0,0,-1.3333333,610.42053,2822.5032)" />
      <path id="path238" d="m 0,0 c 4.733,-7.806 6.631,-16.327 6.41,-25.38 -1.842,1.354 -4.382,2.335 -4.548,4.918 C 1.423,-13.621 -1.405,-6.998 0,0" style="fill:#3675ba;fill-opacity:1;fill-rule:nonzero;stroke:none" transform="matrix(1.3333333,0,0,-1.3333333,615.6336,2939.5888)" />
      <path id="path242" d="M 0,0 C 1.604,-1.208 2.475,-2.828 2.597,-4.818 2.943,-10.478 3.66,-16.148 2.296,-21.777 0.655,-14.609 -1.85,-7.534 0,0" style="fill:#3675ba;fill-opacity:1;fill-rule:nonzero;stroke:none" transform="matrix(1.3333333,0,0,-1.3333333,610.44213,2882.814)" />
      <path id="path257" d="M 0,0 C 1.116,-3.918 4.378,-7.544 1.629,-11.984 -2.002,-8.408 -1.512,-4.274 0,0" style="fill:#3675ba;fill-opacity:1;fill-rule:nonzero;stroke:none" transform="matrix(1.3333333,0,0,-1.3333333,613.3088,2916.8291)" />
      </g></svg>