<?xml version='1.0' encoding='utf-8'?>
<svg xmlns="http://www.w3.org/2000/svg" version="1.1" width="375.300" height="71.681" viewBox="1416.850 2247.390 375.300 71.681"><defs id="defs1"><clipPath clipPathUnits="userSpaceOnUse" id="clipPath4">
      <path d="M -1894.0401,2218.9927 H 489.89999 V -1151.3974 H -1894.0401 Z" id="path4" />
    </clipPath>
  </defs><g id="object"><path id="path22" d="m 2.5200547,-1.9798141 c 2.15625,1.44140629 6.421875,2.57812504 10.3242183,2.57812504 9.539063,0 14.15625,-5.40234374 14.15625,-11.63671894 0,-5.941406 -3.480468,-9.246094 -10.324218,-11.882812 -5.578125,-2.15625 -8.0390628,-4.019532 -8.0390628,-7.792969 0,-2.765625 2.0976558,-6.070313 7.6289058,-6.070313 3.65625,0 6.351563,1.207032 7.675782,1.921875 l 1.441406,-4.253906 c -1.804688,-1.019531 -4.804688,-1.980469 -8.941406,-1.980469 -7.8632816,0 -13.0781253,4.675782 -13.0781253,10.980469 0,5.695313 4.078125,9.117188 10.6757813,11.460938 5.460937,2.097656 7.617187,4.253906 7.617187,8.039062 0,4.0781252 -3.117187,6.9023439 -8.460937,6.9023439 -3.5976563,0 -7.0195313,-1.2070312 -9.3515626,-2.6484375 z M 55.078648,-23.284502 H 39.363805 v -12.773437 h 16.617187 v -4.382813 H 34.137242 V 6.546875e-4 H 56.883336 V -4.3821578 H 39.363805 V -18.960283 H 55.078648 Z M 68.581578,6.546875e-4 V -17.284502 c 0,-6.714843 -0.117187,-11.578125 -0.421875,-16.675781 l 0.175781,-0.05859 c 2.050782,4.382813 4.746094,9 7.570313,13.5 L 88.737828,6.546875e-4 h 5.285156 V -40.440752 h -4.921875 v 16.921875 c 0,6.304688 0.117188,11.214844 0.597657,16.6171879 l -0.117188,0.058594 C 87.659703,-10.979814 85.315953,-15.23372 82.315953,-19.979814 L 69.366734,-40.440752 H 63.659703 V 6.546875e-4 Z m 42.231442,0 h 5.28516 V -35.999345 h 12.36328 v -4.441407 H 98.520055 v 4.441407 H 110.81302 Z M 153.89994,-23.284502 h -15.71485 v -12.773437 h 16.61719 v -4.382813 H 132.95853 V 6.546875e-4 h 22.7461 V -4.3821578 H 138.18509 V -18.960283 h 15.71485 z m 13.5,23.2851566875 V -17.284502 c 0,-6.714843 -0.11719,-11.578125 -0.42188,-16.675781 l 0.17578,-0.05859 c 2.05079,4.382813 4.7461,9 7.57032,13.5 L 187.55619,6.546875e-4 h 5.28515 V -40.440752 h -4.92187 v 16.921875 c 0,6.304688 0.11719,11.214844 0.59766,16.6171879 l -0.11719,0.058594 c -1.92188,-4.1367189 -4.26563,-8.3906249 -7.26563,-13.1367189 l -12.94922,-20.460938 h -5.70703 V 6.546875e-4 Z M 229.13431,-5.4602828 c -2.09765,1.0195312 -5.33203,1.6757812 -8.51953,1.6757812 -9.83203,0 -15.53906,-6.3515624 -15.53906,-16.2539064 0,-10.617187 6.30469,-16.675781 15.78516,-16.675781 3.36328,0 6.17578,0.714844 8.15625,1.675781 l 1.26562,-4.265625 c -1.38281,-0.714844 -4.55859,-1.792969 -9.59766,-1.792969 -12.55078,0 -21.1289,8.578125 -21.1289,21.234375 0,13.2656254 8.57812,20.46093794 19.98047,20.46093794 4.92187,0 8.76562,-0.9609375 10.6875,-1.92187504 z m 28.56446,-17.8242192 h -15.71485 v -12.773437 h 16.61719 v -4.382813 H 236.75736 V 6.546875e-4 h 22.74609 V -4.3821578 H 241.98392 V -18.960283 h 15.71485 z m 10.43847,23.94140669 c 2.22656,0 3.60938,-1.6171875 3.60938,-3.77343749 0,-2.2265625 -1.44141,-3.7851563 -3.55078,-3.7851563 -2.09766,0 -3.59766,1.5585938 -3.59766,3.7851563 0,2.15624999 1.44141,3.77343749 3.53906,3.77343749 z m 0,0" style="fill:#231916;fill-opacity:1;fill-rule:nonzero;stroke:none" aria-label="SENTENCE." transform="matrix(1.3333333,0,0,1.3333333,1421.8313,2310.1905)" />
      <path id="path23" d="m 0,0 c 2.16,-1.44 6.42,-2.58 10.32,-2.58 9.54,0 14.16,5.399 14.16,11.64 0,5.94 -3.48,9.24 -10.32,11.879 -5.58,2.161 -8.04,4.021 -8.04,7.8 0,2.761 2.1,6.061 7.62,6.061 3.66,0 6.36,-1.2 7.68,-1.92 l 1.44,4.26 c -1.8,1.019 -4.8,1.979 -8.94,1.979 -7.86,0 -13.08,-4.68 -13.08,-10.979 0,-5.701 4.08,-9.12 10.68,-11.46 5.46,-2.101 7.62,-4.26 7.62,-8.04 0,-4.08 -3.12,-6.901 -8.46,-6.901 -3.6,0 -7.02,1.2 -9.36,2.641 z" style="fill:none;stroke:#231916;stroke-width:3;stroke-linecap:butt;stroke-linejoin:miter;stroke-miterlimit:10;stroke-dasharray:none;stroke-opacity:1" transform="matrix(1.3333333,0,0,-1.3333333,1425.1915,2307.55)" />
      <path id="path24" d="M 0,0 H -15.72 V 12.779 H 0.9 V 17.16 H -20.94 V -23.28 H 1.8 v 4.38 h -17.52 v 14.58 l 15.72,0 z" style="fill:none;stroke:#231916;stroke-width:3;stroke-linecap:butt;stroke-linejoin:miter;stroke-miterlimit:10;stroke-dasharray:none;stroke-opacity:1" transform="matrix(1.3333333,0,0,-1.3333333,1495.2708,2279.1503)" />
      <path id="path25" d="M 0,0 V 17.28 C 0,24 -0.12,28.86 -0.42,33.96 l 0.18,0.06 c 2.04,-4.38 4.74,-9 7.56,-13.5 L 20.16,0 h 5.28 V 40.44 H 20.52 V 23.52 c 0,-6.3 0.12,-11.22 0.6,-16.62 L 21,6.84 c -1.92,4.14 -4.26,8.4 -7.26,13.14 L 0.78,40.44 h -5.7 L -4.92,0 Z" style="fill:none;stroke:#231916;stroke-width:3;stroke-linecap:butt;stroke-linejoin:miter;stroke-miterlimit:10;stroke-dasharray:none;stroke-opacity:1" transform="matrix(1.3333333,0,0,-1.3333333,1513.2701,2310.1905)" />
      <path id="path26" d="m 0,0 h 5.28 v 36 h 12.36 v 4.44 H -12.3 V 36 H 0 Z" style="fill:none;stroke:#231916;stroke-width:3;stroke-linecap:butt;stroke-linejoin:miter;stroke-miterlimit:10;stroke-dasharray:none;stroke-opacity:1" transform="matrix(1.3333333,0,0,-1.3333333,1569.5899,2310.1905)" />
      <path id="path27" d="M 0,0 H -15.72 V 12.779 H 0.9 V 17.16 H -20.94 V -23.28 H 1.8 v 4.38 h -17.52 v 14.58 l 15.72,0 z" style="fill:none;stroke:#231916;stroke-width:3;stroke-linecap:butt;stroke-linejoin:miter;stroke-miterlimit:10;stroke-dasharray:none;stroke-opacity:1" transform="matrix(1.3333333,0,0,-1.3333333,1627.0287,2279.1503)" />
      <path id="path28" d="M 0,0 V 17.28 C 0,24 -0.12,28.86 -0.42,33.96 l 0.18,0.06 c 2.04,-4.38 4.74,-9 7.56,-13.5 L 20.16,0 h 5.28 V 40.44 H 20.52 V 23.52 c 0,-6.3 0.12,-11.22 0.6,-16.62 L 21,6.84 c -1.92,4.14 -4.26,8.4 -7.26,13.14 L 0.78,40.44 h -5.7 L -4.92,0 Z" style="fill:none;stroke:#231916;stroke-width:3;stroke-linecap:butt;stroke-linejoin:miter;stroke-miterlimit:10;stroke-dasharray:none;stroke-opacity:1" transform="matrix(1.3333333,0,0,-1.3333333,1645.028,2310.1905)" />
      <path id="path29" d="m 0,0 c -2.1,-1.02 -5.34,-1.68 -8.52,-1.68 -9.84,0 -15.54,6.36 -15.54,16.26 0,10.62 6.3,16.68 15.78,16.68 3.36,0 6.18,-0.72 8.16,-1.68 l 1.26,4.26 c -1.38,0.72 -4.56,1.8 -9.6,1.8 -12.54,0 -21.12,-8.58 -21.12,-21.24 0,-13.26 8.58,-20.46 19.98,-20.46 4.92,0 8.76,0.96 10.68,1.92 z" style="fill:none;stroke:#231916;stroke-width:3;stroke-linecap:butt;stroke-linejoin:miter;stroke-miterlimit:10;stroke-dasharray:none;stroke-opacity:1" transform="matrix(1.3333333,0,0,-1.3333333,1727.3476,2302.9107)" />
      <path id="path30" d="M 0,0 H -15.72 V 12.779 H 0.9 V 17.16 H -20.94 V -23.28 H 1.8 v 4.38 h -17.52 v 14.58 l 15.72,0 z" style="fill:none;stroke:#231916;stroke-width:3;stroke-linecap:butt;stroke-linejoin:miter;stroke-miterlimit:10;stroke-dasharray:none;stroke-opacity:1" transform="matrix(1.3333333,0,0,-1.3333333,1765.4257,2279.1503)" />
      <path id="path31" d="M 0,0 C 2.22,0 3.6,1.62 3.6,3.78 3.6,6 2.16,7.561 0.06,7.561 -2.04,7.561 -3.54,6 -3.54,3.78 -3.54,1.62 -2.1,0 0,0 Z" style="fill:none;stroke:#231916;stroke-width:3;stroke-linecap:butt;stroke-linejoin:miter;stroke-miterlimit:10;stroke-dasharray:none;stroke-opacity:1" transform="matrix(1.3333333,0,0,-1.3333333,1779.3457,2311.0708)" />
    </g></svg>