<?xml version='1.0' encoding='utf-8'?>
<svg xmlns="http://www.w3.org/2000/svg" version="1.1" width="1525.470" height="645.839" viewBox="863.996 1666.870 1525.470 645.839"><defs id="defs1"><clipPath clipPathUnits="userSpaceOnUse" id="clipPath6">
      <path d="M -2394.4488,3086.5223 H -10.508725 V -283.86783 H -2394.4488 Z" id="path6" />
    </clipPath>
  </defs><g id="object"><path id="path4" d="m 0,0 c 0,-3.526 -0.483,-5.594 0.081,-7.319 2.901,-8.863 -7.764,-25.924 8.629,-25.522 15.235,0.375 5.312,17.149 7.989,26.255 3.831,13.029 -9.066,30.63 11,39.412 2.374,1.039 1.19,4.507 -0.847,6.455 -2.905,2.779 -34.735,2.52 -37.105,-0.38 -1.726,-2.113 -2.563,-5.684 -0.035,-6.543 C 9.244,25.716 -4.376,9.357 0,0 m -22.644,-85.476 c 0,-10.55 0.139,-18.825 -0.042,-27.094 -0.153,-6.948 3.78,-8.485 9.727,-8.426 5.908,0.059 7.675,3.236 7.639,8.485 -0.096,13.995 -0.392,27.999 0.014,41.982 0.162,5.565 -2.878,13.438 7.606,14.274 3.335,0.266 4.992,3.67 3.837,7.293 -0.966,3.033 -3.803,3.079 -6.279,3.095 -9.54,0.062 -19.087,0.138 -28.62,-0.155 -5.13,-0.158 -7.173,-6.433 -4.609,-7.479 17.949,-7.322 8.046,-22.721 10.727,-31.975 m 86.031,4.864 c 0,-8.236 -0.234,-16.481 0.084,-24.705 0.202,-5.222 -2.056,-12.804 6.76,-12.881 10.586,-0.093 21.384,-2.329 31.742,1.634 0.622,0.238 1.004,3.258 0.717,3.4 -8.878,4.379 -7.329,17.058 -14.482,20.836 -14.696,7.76 -5.569,19.8 -6.817,29.479 -1.301,10.1 8.594,6.065 14.083,6.945 4.05,0.65 7.695,1.543 7.249,6.586 -0.393,4.448 -4.348,3.549 -7.24,4.049 -27.995,4.835 -32.093,1.537 -32.149,-25.839 -0.007,-3.168 -0.001,-6.336 0.053,-9.504 M 76.932,2.36 c 0,8.911 -0.014,17.822 0.006,26.733 0.01,4.597 -0.253,9.997 -5.136,11.272 C 61.295,43.108 50.055,44.074 39.946,40.037 30.669,36.332 35.208,26.626 34.785,19.558 34.102,8.14 35.523,-3.44 34.385,-14.785 c -1.538,-15.332 4.613,-19.272 19.427,-19.913 18.562,-0.803 26.088,5.18 23.241,23.704 -0.669,4.354 -0.099,8.898 -0.121,13.354 M 30.95,-97.325 c -6.086,18.158 -2.956,31.324 -3.806,44.095 -0.353,5.298 -1.684,8.166 -7.667,8.15 -5.895,-0.017 -7.804,-2.77 -7.781,-8.114 0.081,-19.108 0.023,-38.217 0.129,-57.325 0.02,-3.757 -0.135,-8.094 5.14,-8.642 3.649,-0.38 9.095,-1.719 10.062,2.689 3.123,14.23 7.826,9.427 12.54,1.395 3.474,-5.916 8.52,-5 13.256,-3.71 5.747,1.565 4.364,7.02 4.398,11.255 0.129,15.926 0.241,31.856 -0.022,47.779 -0.105,6.358 2.852,14.988 -8.996,14.668 -10.305,-0.278 -12.295,-6.393 -12.591,-15.156 -0.353,-10.455 2.279,-21.286 -4.662,-37.084 m 362.74,45.997 h -0.095 c 0,-19.111 0.946,-38.286 -0.308,-57.315 -0.952,-14.454 6.548,-16.144 17.244,-14.457 9.38,1.479 23.741,-6.524 23.076,14.288 -1.179,36.912 0.166,73.898 -0.497,110.836 -0.229,12.788 1.058,21.524 16.928,19.12 9.888,-1.498 13.027,3.194 13.346,13.087 0.378,11.717 -6.115,11.802 -14.389,11.743 -23.57,-0.169 -47.143,-0.19 -70.712,0.005 -8.257,0.068 -14.535,0.156 -14.547,-11.591 -0.013,-11.595 5.004,-14.863 14.898,-13.438 13.901,2.002 15.555,-5.683 15.211,-16.859 -0.569,-18.457 -0.155,-36.944 -0.155,-55.419 M 133.187,-37.99 c -0.06,0 -0.12,0 -0.179,0 0,-21.625 1.085,-43.323 -0.355,-64.852 -1.092,-16.33 4.655,-20.126 20.255,-20.083 15.18,0.043 22.717,3.083 19.994,19.588 -2.262,13.712 1.545,22.296 17.882,19.833 8.352,-1.26 12.668,1.874 12.701,11.504 0.033,9.776 -4.298,12.792 -12.695,11.054 -16.475,-3.408 -19.715,4.886 -18.113,18.837 0.722,6.28 0.002,12.715 0.137,19.076 0.297,13.961 -4.157,31.155 2.387,41.023 7.406,11.17 25.889,2.781 39.413,4.498 0.626,0.08 1.275,0.062 1.907,0.009 9.706,-0.822 9.244,5.717 9.46,12.408 0.24,7.439 -1.134,11.88 -10.222,11.703 -23.533,-0.46 -47.088,-0.445 -70.62,0.029 -9.107,0.184 -12.247,-3.079 -12.093,-12.087 0.413,-24.174 0.141,-48.359 0.141,-72.54 m 573.663,0.569 h -0.205 c 0,-12.088 -0.052,-24.176 0.014,-36.263 0.066,-12.079 0.789,-24.184 0.202,-36.228 -0.418,-8.575 1.222,-12.877 11.103,-12.659 23.532,0.52 47.092,0.441 70.625,-0.076 9.454,-0.208 11.665,3.647 11.772,12.397 0.114,9.381 -3.425,12.269 -12.298,11.802 -10.15,-0.533 -20.354,-0.118 -30.533,-0.03 -5.212,0.045 -10.577,-0.056 -10.409,7.587 0.173,7.86 6.116,6.627 10.94,7.054 3.164,0.28 6.382,0.553 9.531,0.295 9.515,-0.779 9.474,5.363 9.876,12.229 0.506,8.627 -3.36,12.152 -11.212,10.344 -19.536,-4.498 -20.629,6.833 -19.349,21.223 0.617,6.944 0.074,13.99 0.079,20.99 0.033,39.86 0.029,40.161 39.979,41 9.366,0.197 13.783,1.79 13.479,12.474 -0.266,9.331 -3.545,11.963 -12.364,11.804 -22.899,-0.412 -45.821,-0.513 -68.711,0.106 -10.337,0.279 -12.929,-3.808 -12.701,-13.443 0.557,-23.523 0.182,-47.069 0.182,-70.606 M 231.566,179.71 c 0,-25.502 -0.241,-51.008 0.136,-76.505 0.126,-8.552 -0.929,-19.819 10.083,-22.033 31.343,-6.3 63.001,-6.413 94.472,-0.172 5.016,0.995 10.315,3.961 11.432,9.147 1.28,5.949 5.777,16.325 -4.287,16.666 -12.983,0.44 -26.484,5.123 -39.64,-4.831 -14.091,-10.662 -27.907,-2.088 -27.909,15.371 -0.004,41.443 0.016,82.886 0.111,124.328 0.013,5.407 -1.725,13.115 7.394,11.888 7.602,-1.024 17.505,5.739 22.384,-6.953 7.733,-20.114 25.038,-7.62 37.405,-8.315 10.893,-0.612 5.411,12.01 5.54,18.434 0.285,14.202 -11.203,18.118 -22.134,18.605 -23.541,1.048 -47.186,1.074 -70.735,0.162 -16.167,-0.627 -25.38,-8.706 -24.527,-26.946 1.072,-22.903 0.258,-45.893 0.275,-68.846 M 577.821,-34.779 c 0,19.117 -0.507,38.251 0.165,57.343 0.509,14.441 1.257,24.115 -19.786,24.284 -22.797,0.182 -18.52,-12.634 -18.55,-25.297 -0.089,-37.595 -0.178,-75.191 0.062,-112.785 0.054,-8.565 -0.345,-14.503 -11.796,-14.353 -10.914,0.143 -13.896,3.791 -13.749,14.552 0.557,40.767 -0.631,81.565 0.38,122.313 0.457,18.41 -11.03,14.222 -21.251,14.646 -10.153,0.422 -18.281,1.046 -17.947,-14.13 0.968,-43.946 0.713,-87.931 0.149,-131.891 -0.187,-14.586 6.73,-22.029 19.932,-22.58 20.971,-0.876 42.035,-0.631 63.016,0.219 13.605,0.552 20.081,8.31 19.608,22.69 -0.71,21.641 -0.185,43.324 -0.233,64.989 m -328.55,1.165 c -0.022,-0.001 -0.043,-0.001 -0.065,-0.001 0,-22.268 0.469,-44.55 -0.168,-66.8 -0.411,-14.342 5.93,-21.806 19.759,-22.214 20.329,-0.599 40.693,-0.778 61.024,-0.329 14.445,0.319 21.637,7.937 21.514,23.143 -0.351,43.26 -0.831,86.547 0.363,129.778 0.47,17.005 -8.603,15.911 -20.098,16.152 -12.098,0.253 -20.064,0.038 -19.488,-16.521 1.325,-38.105 0.643,-76.29 0.258,-114.438 -0.088,-8.741 5.643,-21.151 -12.572,-20.894 -18.557,0.262 -11.801,13.325 -11.941,21.61 -0.636,37.526 -1.301,75.11 0.199,112.588 0.686,17.152 -7.086,17.809 -20.136,17.813 -12.506,0.003 -20.27,-0.706 -19.035,-16.936 1.588,-20.873 0.386,-41.958 0.386,-62.951 m 384.223,-62.418 c 7.818,-11.148 14.751,-20.664 21.266,-30.458 4.334,-6.515 8.879,-9.078 17.375,-6.882 29.478,7.621 29.607,7.315 10.442,31.562 -1.968,2.491 -3.686,5.238 -5.948,7.425 -6.762,6.541 -6.531,10.878 2.841,14.817 9.312,3.915 12.062,12.612 12,22.029 -0.173,26.093 -1.713,52.072 -6.814,77.755 -3.351,16.87 -13.489,25.192 -30.576,25.313 -14.624,0.104 -29.338,-0.738 -43.846,0.618 -15.542,1.452 -20.866,-3.212 -20.374,-19.603 1.238,-41.294 0.416,-82.648 0.524,-123.978 0.073,-28.007 -4.406,-23.727 24.999,-26.14 23.362,-1.917 12.325,16.266 18.111,27.542 M 146.028,276.68 c -4.453,0 -9.03,-0.674 -13.337,0.12 -16.337,3.012 -21.289,-3.957 -23.229,-19.97 C 102.889,202.583 94.403,148.569 86.817,94.442 86.185,89.933 82.855,81.222 89.39,81.807 c 14.959,1.34 32.045,-10.362 45.037,7.605 6.421,8.88 42.123,4.137 50.087,-4.221 9.306,-9.767 21.872,-4.913 32.086,-3.278 8.004,1.28 2.317,11.149 1.189,16.455 -10.443,49.084 -21.313,98.08 -32.518,146.997 -7.164,31.273 -7.511,31.194 -39.243,31.315 M 490.416,94.829 c -14.378,18.652 -28.628,38.178 -44.07,56.712 -7.152,8.585 -7.976,15.317 -2.575,25.224 14.31,26.247 27.515,53.101 40.948,79.82 1.792,3.565 6.24,7.103 2.09,11.876 -7.622,8.766 -34.703,5.32 -40.16,-5.169 -7.049,-13.55 -14.174,-27.066 -20.876,-40.787 -2.051,-4.199 -5.056,-5.655 -9.08,-5.195 -5.183,0.593 -5.081,4.949 -5.057,8.715 0.074,11.389 -0.128,22.811 0.671,34.157 0.884,12.537 -4.121,17.531 -16.588,15.724 -4.363,-0.632 -8.993,-0.594 -13.349,0.098 -14.565,2.317 -18.164,-3.782 -17.911,-17.95 0.875,-49.049 0.152,-98.125 0.386,-147.188 0.168,-35.188 -5.764,-30.095 31.603,-31.144 11.633,-0.326 15.792,2.965 15.461,14.823 -0.229,8.234 -3.455,17.75 6.304,27.15 16.642,-26.47 31.44,-60.558 72.203,-26.866 m -539.614,84.242 c 0,-28.035 -0.13,-56.071 0.108,-84.103 0.048,-5.656 -3.013,-14.091 7.469,-14.109 30.564,-0.051 61.229,-1.125 91.642,1.101 11.144,0.816 28.769,14.109 20.698,23.122 -15.549,17.364 -6.891,30.497 -4.677,47.587 4.248,32.792 0.408,65.98 -7.107,98.539 -3.96,17.152 -14.586,24.634 -31.144,24.973 -20.382,0.418 -40.803,-0.275 -61.15,0.71 -12.13,0.587 -16.65,-2.579 -16.143,-15.638 1.062,-27.357 0.322,-54.784 0.304,-82.182 m 430.586,-321.724 c -144.081,1.923 -288.161,4.133 -432.249,5.357 -15.7,0.134 -19.123,4.801 -17.834,19.285 2.315,26.012 2.944,52.173 4.363,78.268 0.268,4.93 -0.483,12.12 6.463,11.718 15.814,-0.917 14.935,9.561 15.815,19.946 1.613,19.05 3.032,38.166 5.957,57.034 1.641,10.584 -1.728,13.801 -11.602,13.826 -9.547,0.024 -19.168,2.048 -28.618,1.341 -15.965,-1.195 -20.458,3.776 -18.108,20.47 8.329,59.172 16.047,118.481 21.618,177.961 1.874,20.009 9.263,25.731 27.935,25.802 84.785,0.321 169.567,1.624 254.351,2.444 100.736,0.975 201.479,1.474 302.206,3.078 15.592,0.248 20.591,-2.599 19.731,-19.502 -3.271,-64.292 -4.332,-128.695 -7.22,-193.011 -0.612,-13.645 3.055,-17.247 16.486,-17.155 82.249,0.564 164.503,0.205 246.756,0.382 14.776,0.031 23.219,2.137 26.034,-21.051 7.202,-59.311 11.455,-118.893 18.887,-178.127 1.572,-12.527 -0.904,-15.092 -12.981,-14.896 -145.995,2.377 -291.997,4.289 -437.997,6.322 0.002,0.169 0.005,0.339 0.007,0.508" style="fill:#d5c22b;fill-opacity:1;fill-rule:nonzero;stroke:none" transform="matrix(1.3333333,0,0,-1.3333333,1213.5229,2107.3816)" />
      <path id="path7" d="m 0,0 c -3.524,-98.785 -7.016,-196.662 -10.504,-294.449 -6.238,-1.644 -6.363,3.315 -7.923,6.382 -20.453,40.234 -40.391,80.739 -61.567,120.587 -5.84,10.989 -5.479,19.261 0.601,29.689 C -52.948,-92.428 -30.941,-44.538 0,0" style="fill:#d5c22b;fill-opacity:1;fill-rule:nonzero;stroke:none" transform="matrix(1.3333333,0,0,-1.3333333,982.22333,1672.8651)" />
      <path id="path9" d="m 0,0 c -6.711,-47.094 -5.064,-94.931 -13.834,-142.029 -2.695,-14.477 -2.068,-31.064 -1.593,-46.682 0.268,-8.783 -2.47,-12.825 -11.974,-12.082 -11.332,0.885 -7.048,8.728 -6.534,14.053 6.292,65.184 12.876,130.34 19.426,195.499 0.318,3.158 1.103,6.267 1.534,9.417 0.767,5.596 4.527,7.493 9.46,7.148 C 3.747,24.816 1.242,19.323 1.065,15.248 0.845,10.159 0.367,5.082 0,0" style="fill:#d5c22b;fill-opacity:1;fill-rule:nonzero;stroke:none" transform="matrix(1.3333333,0,0,-1.3333333,1056.1929,1758.3868)" />
      <path id="path10" d="m 0,0 c 3.942,61.615 7.843,123.233 11.892,184.842 0.373,5.676 0.921,11.555 2.765,16.862 1.873,5.388 7.677,4.148 11.65,3.338 7.326,-1.493 4.895,-7.853 4.5,-12.493 C 27.706,156.136 24.482,119.732 21.096,83.343 18.325,53.564 15.482,23.787 12.169,-5.936 c -0.61,-5.477 2.144,-14.987 -7.692,-14.533 -11.1,0.512 -3.272,9.771 -4.952,14.8 -0.564,1.688 0.081,3.781 0.174,5.689 C -0.201,0.013 -0.1,0.007 0,0" style="fill:#d5c22b;fill-opacity:1;fill-rule:nonzero;stroke:none" transform="matrix(1.3333333,0,0,-1.3333333,980.46387,1999.1813)" />
      <path id="path11" d="m 0,0 c 6.259,67.523 12.449,134.02 18.543,200.526 0.542,5.908 0.259,12.075 9.064,10.802 9.054,-1.31 6.372,-8.309 5.818,-13.402 C 28.13,149.252 22.566,100.607 17.036,51.959 15.097,34.902 13.095,17.852 10.996,0.814 10.278,-5.014 12.681,-14.488 3.229,-13.355 -4.867,-12.384 1.243,-3.861 0,0" style="fill:#d5c22b;fill-opacity:1;fill-rule:nonzero;stroke:none" transform="matrix(1.3333333,0,0,-1.3333333,1051.5559,2006.3464)" />
      <path id="path13" d="m 0,0 c 0,-29.303 0.154,-58.608 -0.166,-87.908 -0.048,-4.393 3.246,-11.878 -4.18,-12.582 -7.734,-0.733 -5.809,7.071 -6.02,11.456 -2.885,59.792 -5.458,119.599 -8.191,179.398 -0.307,6.724 -0.945,12.165 9.04,12.486 C 1.228,103.195 1.23,97.56 1.171,89.82 0.944,59.881 1.079,29.94 1.079,0 0.719,0 0.359,0 0,0" style="fill:#d5c22b;fill-opacity:1;fill-rule:nonzero;stroke:none" transform="matrix(1.3333333,0,0,-1.3333333,2381.8947,2161.4033)" />
      <path id="path14" d="m 0,0 c -0.255,3.173 -1.083,6.431 -0.633,9.5 0.722,4.925 -5.284,12.834 3.773,14.221 10.525,1.611 9.809,-7.492 10.239,-14.233 3.363,-52.727 6.57,-105.464 9.879,-158.195 0.597,-9.527 1.664,-19.029 2.062,-28.562 0.16,-3.829 3.737,-9.802 -3.361,-10.767 -6.656,-0.905 -5.955,4.958 -6.36,9.245 -0.958,10.136 -1.911,20.273 -2.798,30.415 C 8.479,-98.922 4.178,-49.466 -0.13,-0.011 -0.087,-0.007 -0.043,-0.004 0,0" style="fill:#d5c22b;fill-opacity:1;fill-rule:nonzero;stroke:none" transform="matrix(1.3333333,0,0,-1.3333333,2321.2772,2054.9344)" />
      <path id="path21" d="m 0,0 c -0.003,12.108 -0.123,24.217 0.057,36.322 0.071,4.804 -1.401,10.974 6.112,11.789 4.907,0.533 8.958,-1.995 10.718,-6.457 C 27.223,15.446 28.239,-11.84 23.584,-39.111 22.2,-47.219 12.225,-49.947 4.737,-48.842 -3.267,-47.661 0.426,-39.485 0.178,-34.401 -0.381,-22.958 0.003,-11.47 0,0" style="fill:#d5c22b;fill-opacity:1;fill-rule:nonzero;stroke:none" transform="matrix(1.3333333,0,0,-1.3333333,1210.2568,1837.2359)" />
      <path id="path22" d="m 0,0 c -7.681,-6.435 -12.176,-4.948 -16.247,-4.653 -5.05,0.367 -11.865,-3.147 -14.245,4.576 -0.497,1.614 1.376,5.233 3.048,6.009 5.651,2.623 11.481,4.435 17.268,-0.715 C -7.555,2.884 -3.765,1.865 0,0" style="fill:#d5c22b;fill-opacity:1;fill-rule:nonzero;stroke:none" transform="matrix(1.3333333,0,0,-1.3333333,1252.1643,1963.2639)" />
      <path id="path23" d="m 0,0 c 6.568,-30.178 13.111,-60.362 19.75,-90.524 0.592,-2.689 0.872,-5.832 -2.082,-6.153 -10.066,-1.092 -20.814,-3.836 -30.152,-1.451 -8.995,2.297 -2.988,12.068 -2.226,18.234 3.279,26.515 7.29,52.94 11.034,79.398 C -2.451,-0.331 -1.225,-0.165 0,0" style="fill:#d5c22b;fill-opacity:1;fill-rule:nonzero;stroke:none" transform="matrix(1.3333333,0,0,-1.3333333,1419.8513,1816.4697)" />
      <path id="path24" d="m 0,0 c 0,9.516 -0.146,19.035 0.077,28.546 0.081,3.477 -1.241,8.117 3.887,9.372 4.062,0.994 7.728,-0.534 9.453,-4.444 9.004,-20.399 10.165,-41.839 6.099,-63.308 -1.245,-6.575 -9.56,-8.593 -15.76,-7.779 -5.936,0.779 -3.429,7.035 -3.575,10.97 C -0.147,-17.773 0.078,-8.882 0.078,0 0.052,0 0.026,0 0,0" style="fill:#d5c22b;fill-opacity:1;fill-rule:nonzero;stroke:none" transform="matrix(1.3333333,0,0,-1.3333333,2054.8645,2137.1995)" />
    </g></svg>