<?xml version='1.0' encoding='utf-8'?>
<svg xmlns="http://www.w3.org/2000/svg" version="1.1" width="899.619" height="1182.386" viewBox="2055.480 2617.800 899.619 1182.386"><g id="object"><path id="path5" d="M 0,0 C -0.858,2.367 -2.93,3.609 -5.149,4.093 -7.048,4.507 -8.367,2.914 -8.026,1.066 -7.608,-1.203 -6.817,-3.8 -3.823,-3.741 -1.787,-3.701 -0.617,-2.071 0,0 m -47.52,-8.195 c 2.68,0.529 4.456,2.273 4.911,5.072 0.305,1.876 -0.659,3.43 -2.743,3.132 -3.259,-0.465 -4.497,-3.2 -5.129,-5.932 -0.402,-1.736 1.218,-2.264 2.961,-2.272 m 261.341,-345.7 c -0.219,1.721 0.04,4.164 -2.255,3.541 -3.31,-0.897 -5.164,-3.828 -6.078,-7.016 -0.526,-1.837 1.195,-2.363 2.611,-2.23 3.496,0.326 5.173,2.589 5.722,5.705 m -240.248,-68.793 c 1.173,-3.809 4.806,-3.834 7.827,-4.389 2.079,-0.381 5.394,1.069 4.934,2.67 -0.975,3.394 -4.65,4.486 -8.018,4.943 -2.214,0.301 -4.181,-0.403 -4.743,-3.224 m 61.104,158.453 c -1.438,-0.046 -3.099,-0.434 -3.182,-3.012 -0.125,-3.888 4.613,-8.516 8.802,-8.391 1.581,0.048 3.278,-0.095 3.347,2.427 0.103,3.785 -4.574,8.951 -8.967,8.976 m 6.835,-47.281 c -0.236,2.563 -1.479,6.273 -2.717,5.016 -3.048,-3.095 -9.342,-1.535 -10.094,-7.032 -0.423,-3.092 1.691,-5.051 4.767,-4.73 4.212,0.439 7.72,2.155 8.044,6.746 m 188.741,8.382 c 0.16,2.629 -0.263,5.353 -3.471,5.796 -3.799,0.526 -4.727,-2.168 -4.687,-5.371 0.035,-2.812 0.041,-5.624 0.113,-8.435 0.037,-1.464 0.412,-2.983 1.893,-3.487 1.725,-0.588 2.249,1.195 3.219,2.121 2.687,2.565 1.559,6.266 2.933,9.376 M -11.279,-65.891 c -0.33,2.015 -1.476,3.908 -3.721,4.359 -2.147,0.432 -3.525,-1.348 -4.201,-3.11 -0.659,-1.715 -0.376,-3.817 -1.128,-5.464 -1.26,-2.758 -4.002,-5.877 0.629,-7.425 4.536,-1.518 6.117,2.166 7.028,5.873 0.449,1.828 0.884,3.659 1.393,5.767 m 38.535,-590.537 c -1.722,-3.641 -3.952,-5.403 -7.013,-6.246 -2.409,-0.662 -3.15,-2.681 -2.683,-5.047 0.496,-2.518 2.294,-3.409 4.664,-3.362 3.035,0.059 6.13,-0.245 8.061,3.057 2.696,4.614 -1.162,7.196 -3.029,11.598 m 74.135,619.514 c 2.507,5.947 2.827,11.366 5.737,16.085 2.157,3.496 -2.613,4.332 -4.577,5.692 -2.61,1.807 -3.623,-0.552 -4.087,-2.819 -1.272,-6.215 -2.014,-12.367 2.927,-18.958 M 59.276,-383.09 c -1.314,-0.103 -2.181,-0.886 -1.84,-1.796 1.419,-3.786 -0.376,-9.764 6.332,-10.092 2.631,-0.128 4.336,-0.408 4.785,-3.66 0.18,-1.302 1.453,-3.874 3.658,-3.566 1.085,0.151 2.257,1.743 2.84,2.949 0.93,1.926 0.066,3.756 -1.478,5.047 -3.779,3.162 -7.638,6.229 -11.499,9.292 -0.911,0.723 -1.953,1.281 -2.798,1.826 m 103.894,169.174 c -0.5,1.236 -1.254,2.955 -1.889,4.717 -0.67,1.86 -0.209,4.618 -3.413,4.407 -3.247,-0.215 -2.695,-3.7 -2.624,-4.886 0.286,-4.799 -1.846,-7.323 -5.829,-9.394 -3.622,-1.882 -2.398,-3.992 0.563,-5.569 4.289,-2.286 13.15,4.536 13.192,10.725 M 17.234,-695.158 c 3.347,-0.232 5.506,0.958 5.672,4.632 0.074,1.645 -0.412,3.999 0.475,4.814 6.268,5.759 1.874,6.125 -3.07,7.873 -3.607,1.275 -4.213,0.558 -4.309,-2.51 -0.072,-2.333 -1.365,-3.924 -2.862,-5.477 -1.654,-1.715 -3.297,-3.327 -1.678,-6.119 1.362,-2.349 3.203,-3.317 5.772,-3.213 M 1.615,-342.193 c 0.634,-2.561 2.855,-4.977 6.234,-5.618 3.352,-0.636 7.714,-1.561 9.478,2.346 3.2,7.088 -6.728,7.04 -7.549,12.422 -0.232,1.517 -2.671,2.694 -4.714,1.499 -0.734,-0.429 -1.442,-1.32 -1.659,-2.135 -0.66,-2.467 -1.075,-5 -1.79,-8.514 M 227.55,-713.217 c -0.416,-2.481 -2.215,-5.56 1.232,-6.842 4.699,-1.748 10.292,-0.656 13.256,2.165 1.947,1.853 0.985,8.033 -0.364,11.644 -0.938,2.509 -6.65,6.013 -7.238,5.039 -2.38,-3.949 -10.914,-4.671 -6.886,-12.006 m -9.44,-59.909 c 0.252,1.43 0.039,5.338 4.89,1.674 2.718,-2.053 3.937,-0.734 4.982,2.145 2.193,6.046 -2.119,11.051 -5.058,13.548 -2.912,2.474 -4.893,-3.576 -6.346,-6.751 -1.267,-2.769 -2.805,-5.461 -3.68,-8.352 -1.397,-4.614 -1.765,-9.274 2.033,-13.178 1.825,-1.875 3.897,-3.067 6.012,-0.654 1.578,1.798 1.771,4.048 -0.622,5.375 -1.98,1.099 -2.61,2.539 -2.211,6.193 m 43.781,26.983 c -0.014,4.405 -3.681,8.771 -6.735,7.57 -8.134,-3.198 -12.814,-0.334 -16.101,7.224 -1.271,2.922 -4.396,4.212 -7.856,3.427 -1.437,-0.326 -3.023,-0.927 -2.945,-2.55 0.156,-3.196 2.855,-5.623 5.096,-6.262 8.197,-2.338 12.919,-9.076 19.195,-13.812 1.86,-1.404 3.754,-3.444 6.273,-2.063 2.509,1.377 2.856,4.155 3.073,6.466 m -54.149,21.007 c 0.008,7.778 -3.181,10.481 -7.928,8.286 -0.93,-0.43 -1.675,-1.095 -1.367,-2.131 0.147,-0.49 1.037,-1.156 1.496,-1.09 2.563,0.367 5.537,0.604 4.114,-3.113 -1.148,-2.997 -3.822,-1.663 -5.939,-0.213 -1.996,1.366 -4.005,0.545 -4.82,-1.215 -0.98,-2.116 1.115,-2.802 2.739,-3.102 4.446,-0.822 2.363,-2.878 1.053,-4.899 -3.331,-5.14 -7.045,-10.113 -8.967,-15.987 -1.348,-4.12 -3.607,-6.504 -8.089,-6.364 -3.055,0.096 -5.371,-0.499 -4.031,-4.411 0.577,-1.688 -0.039,-3.207 -0.445,-4.827 -1.538,-6.137 -2.04,-13.805 -0.518,-18.387 1.744,-5.25 2.589,-11.327 5.466,-16.322 2.53,-4.393 7.244,-5.967 11.562,-4.417 2.818,1.012 4.99,2.606 8.332,1.911 1.903,-0.396 4.186,0.971 5.174,3.088 0.734,1.576 -0.52,2.666 -1.574,3.6 -1.988,1.764 -3.719,0.95 -5.718,-0.34 -5.897,-3.804 -8.876,-2.382 -11.565,4.064 -1.693,4.057 1.196,8.613 -0.91,11.672 -3.87,5.619 -0.107,7.283 3.62,8.611 3.883,1.383 4.616,3.511 3.535,7.034 -0.553,1.801 -0.984,3.646 -1.349,5.496 -1.073,5.439 1.459,8.117 6.929,7.142 3.474,-0.619 6.856,-1.766 10.336,-2.332 2.113,-0.344 4.53,-0.043 5.494,2.287 1.095,2.646 -1.068,3.451 -2.922,4.733 -5.37,3.714 -6.923,10.36 -4.558,16.546 0.736,1.924 0.756,4.123 0.85,4.68 M 71.665,-246.835 c 10.964,-3.446 9.067,-10.562 7.663,-17.63 -0.195,-0.986 1.123,-2.206 1.093,-3.301 -0.302,-11.134 5.333,-23.14 -5.308,-32.839 5.926,-0.448 6.075,-0.442 6.27,-5.426 0.277,-7.065 0.226,-14.142 0.464,-21.209 0.284,-8.453 2.183,-9.833 10.313,-11.46 24.409,-4.885 47.752,19.162 47.048,42.875 -0.475,16.025 5.787,32.013 0.142,48.03 -0.215,0.608 -0.187,1.664 0.196,2.065 4.213,4.427 1.446,9.327 1.154,14.086 -0.142,2.312 -0.218,4.734 -0.449,6.945 -1.745,16.719 -2.4,33.484 -1.386,50.214 0.648,10.675 -1.175,21.133 -1.462,31.704 -0.207,7.625 0.312,15.402 -1.225,23.134 -2.475,12.45 -12.446,19.725 -18.772,29.486 -1.129,1.742 -2.308,2.233 -3.445,-0.246 -0.873,-1.904 -2.825,-1.322 -4.436,-1.215 -6.138,0.408 -12.282,0.761 -18.409,1.305 -8.453,0.749 -11.13,-1.485 -10.864,-10.117 1.45,-47.02 -1.52,-94.038 0.004,-141.057 0.163,-5.021 -1.107,-8.276 -8.591,-5.344 m 130.55,193.008 c -1.627,-0.141 -4.571,-0.085 -4.405,-1.328 0.903,-6.786 -13.015,-9.805 -4.587,-18.352 0.431,-0.437 -0.101,-2.389 -0.735,-3.21 -2.544,-3.289 -2.066,-6.122 -0.174,-9.742 3.159,-6.044 -0.669,-14.778 -6.843,-16.847 -1.408,-0.472 -2.807,-0.715 -2.925,-2.481 -0.106,-1.575 0.91,-2.531 2.064,-3.468 5.242,-4.258 8.522,-3.377 12.747,2.714 4.211,6.07 9.641,12.503 7.26,19.812 -3.591,11.022 -1.86,21.978 -2.471,32.955 2.766,-0.013 5.25,0.476 5.584,3.865 0.22,2.235 -0.589,4.245 -2.499,5.434 -1.502,0.934 -3.266,0.639 -4.475,-0.696 -2.436,-2.688 -1.142,-5.123 0.759,-7.45 0.29,-0.356 0.469,-0.802 0.7,-1.206 m -42.929,-496.776 c -0.088,0.516 0.123,0.833 0.633,0.952 3.93,-2.339 5.186,-0.8 4.712,3.249 2.355,0.094 4.709,0.189 7.064,0.283 -0.633,-0.983 -0.932,-2.192 0.133,-2.821 1.246,-0.735 1.849,0.29 2.079,1.458 2.893,0.004 2.968,2.91 4.471,4.345 3.731,0.233 6.356,1.654 3.587,5.538 -1.514,2.124 -3.584,4.025 -5.419,5.974 -2.938,3.121 -10.666,-0.526 -11.692,-5.193 -0.094,-0.281 -0.285,-0.387 -0.573,-0.318 -2.623,1.562 -7.171,2.1 -7.613,0.128 -1.063,-4.739 -5.341,-8.256 -4.746,-13.299 0.136,-1.154 1.897,-0.983 3.045,-0.453 0.953,-0.422 1.905,-0.843 2.858,-1.265 0.348,-0.805 0.706,-1.987 1.798,-1.272 1.332,0.872 0.476,1.872 -0.337,2.694 M -53.906,-801.671 c -0.008,0.83 -0.016,1.66 -0.024,2.49 0.831,2.539 0.684,5.069 -0.06,7.595 -0.01,1.223 -0.019,2.445 -0.028,3.668 0.902,3.13 0.964,6.247 -0.134,9.348 -0.002,0.609 -0.004,1.217 -0.006,1.827 1.187,5.098 0.956,10.194 -0.004,15.291 -0.023,2.473 -0.046,4.947 -0.068,7.42 1.958,7.95 0.221,15.98 0.5,23.971 1.056,30.231 0.467,60.501 0.683,90.73 0.136,19.181 -0.351,38.627 -1.48,57.953 -1.054,18.038 -3.107,36.153 -1.96,54.315 0.085,1.354 0.29,2.882 -1.145,3.848 -1.664,2.816 -0.834,5.753 -0.422,8.669 2.834,0.984 3.543,3.304 2.689,5.695 -2.065,5.789 -0.628,11.72 -1.188,17.55 -0.618,6.425 1.698,13.028 -1.177,19.313 -0.871,1.052 -0.895,2.076 0.1,3.066 1.588,8.511 2.507,17.012 -0.387,25.456 -0.139,1.245 -0.279,2.491 -0.418,3.737 -0.039,0.861 -0.077,1.721 -0.115,2.58 -0.264,2.661 -0.425,5.31 0.89,7.791 2.79,1.239 6.108,-4.37 7.943,-0.289 1.923,4.279 -0.635,9.196 -0.746,13.868 -6.049,-0.8 -5.442,5.656 -8.659,7.943 -0.353,3.275 -0.53,6.545 0.275,9.786 3.377,1.959 3.421,3.918 0.001,5.878 -0.063,5.623 -0.127,11.246 -0.19,16.87 2.358,0.58 2.96,1.509 0.602,3.027 -0.346,2.825 -0.692,5.65 -1.038,8.475 2.402,9.459 2.595,18.925 0.089,28.4 -0.651,8.538 -0.591,17.077 -0.064,25.618 0.466,1.024 1.334,2.047 1.339,3.073 0.099,21.227 0.108,42.455 0.102,63.683 0,1.87 0.055,3.897 -2.42,4.493 -2.43,9.563 -2.533,19.605 -0.559,28.809 1.284,5.984 1.5,10.237 -0.698,15.906 -1.649,4.253 -0.006,9.782 0.172,14.744 2.648,2.027 2.653,4.006 -0.105,5.937 -0.371,1.928 -0.485,3.838 0.409,5.675 1.202,-0.06 2.482,0.045 2.26,1.627 -0.135,0.962 -1.226,1.169 -2.196,1.044 -0.092,1.398 -0.185,2.797 -0.278,4.196 2.273,1.465 2.492,2.965 0.076,4.509 0.485,3.258 0.969,6.515 1.454,9.773 1.829,3.726 0.748,7.022 -1.496,10.147 -0.022,1.815 -0.044,3.63 -0.066,5.445 2.62,2.567 3.114,5.056 -0.273,7.401 -2.006,23.578 -0.608,47.212 -1.187,70.814 2.872,3.425 2.931,6.826 -0.085,10.201 0.023,1.341 0.046,2.682 0.069,4.024 2.688,1.874 2.53,3.368 -0.596,4.467 -0.542,10.371 -1.418,20.746 0.498,31.077 2.855,2.054 2.631,3.527 -0.827,4.39 -0.142,8.663 2.621,10.686 14.174,10.38 1.831,-2.496 3.366,-2.485 4.545,0.536 3.275,0.608 6.506,0.307 9.717,-0.456 3.569,-4.793 8.428,-5.535 11.385,-1.739 0.95,1.688 2.465,2.013 4.224,1.753 5.976,-2.823 12.381,-3.785 18.88,-4.183 0.898,-0.055 1.319,1.157 1.202,2.187 0.051,0.44 0.294,0.614 0.728,0.525 2.86,-0.351 6.046,-2.031 7.852,1.922 7.985,0.395 15.969,0.882 23.961,0.139 0.113,-1.728 1.209,-2.615 2.763,-2.476 12.682,1.129 25.648,-2.092 38.104,2.467 0.66,-0.294 1.32,-0.588 1.98,-0.883 0.054,-2.186 -1.308,-5.771 1.163,-6.097 3.184,-0.419 2.884,3.284 3.157,5.706 1.465,0.522 2.931,1.043 4.398,1.561 1.04,-0.551 2.021,-1.34 3.127,-1.607 9.17,-2.213 18.58,-1.038 27.864,-1.736 1.683,-0.127 4.523,0.396 4.281,3.567 6.256,-0.813 12.513,-1.627 18.769,-2.441 0.139,-0.374 0.279,-0.747 0.418,-1.12 0.207,0.333 0.414,0.665 0.621,0.998 2.931,0.647 5.869,1.44 8.675,-0.429 -0.514,-3.723 1.895,-3.905 4.711,-4.425 7.108,-1.313 14.124,-2.978 21.082,-5.117 4.874,-1.499 9.07,-6.706 15.07,-3.698 0.404,0.067 0.626,-0.103 0.669,-0.509 2.137,-3.967 7.111,-6.803 4.301,-12.733 -0.701,-1.48 1.598,-3.13 3.755,-3.164 1.297,-0.021 2.648,0.605 2.264,1.919 -1.749,5.982 3.691,4.483 6.119,6.099 0.627,-0.291 1.253,-0.582 1.88,-0.873 0.093,-0.576 -0.015,-1.376 0.322,-1.678 0.608,-0.544 1.027,0 1.193,0.664 3.864,-1.301 6.427,-4.108 8.57,-7.402 -0.605,-3.773 1.018,-5.1 4.642,-4.23 10.192,-11.877 21.824,-22.257 31.007,-35.348 7.425,-10.586 10.378,-22.267 15.361,-33.43 0.802,-1.796 0.313,-4.17 0.421,-6.278 -0.655,-2.9 -0.677,-5.716 -3.142,-8.309 -3.294,-3.465 -0.611,-14.907 3.162,-18.426 3.332,-3.107 5.607,-8.771 1.726,-10.836 -4.012,-2.135 -9.192,-8.716 -15.851,-1.996 5.849,-6.216 6.081,-14.326 9.763,-20.901 1.06,-1.893 2.83,-1.267 3.771,0.683 0.893,1.852 2.302,3.421 4.349,2.7 2.287,-0.806 1.229,-3.246 1.438,-5.009 0.861,-7.23 -1.739,-14.528 0.411,-21.737 -0.005,-0.536 -0.01,-1.072 -0.016,-1.608 -0.579,-6.391 -1.341,-12.773 -1.65,-19.176 -0.13,-2.68 -1.48,-6.415 3.213,-7.131 -1.428,-4.666 -1.2,-9.33 -0.418,-14.106 0.431,-2.635 0.875,-5.557 -1.164,-7.962 -0.258,-3.654 -1.245,-7.401 1.367,-10.688 -0.094,-3.271 -0.187,-6.543 -0.281,-9.814 -3.243,0.065 -3.392,-2.523 -3.12,-4.464 1.076,-7.689 -1.58,-14.891 -2.629,-22.276 -2.102,-14.785 -3.691,-29.795 -13.641,-42.11 -1.102,-1.365 -3.242,-3.443 -0.217,-5.32 -0.121,-1.986 -1.393,-3.176 -2.902,-4.202 -7.674,-4.444 -13.195,-10.871 -17.214,-18.682 l -0.16,-0.43 c 0,0 -0.456,-0.051 -0.457,-0.05 -2.473,0.649 -5.307,1.804 -4.005,-2.85 -0.055,-0.285 -0.227,-0.419 -0.516,-0.399 -4.879,2.431 -5.835,-4.056 -9.406,-4.193 -5.276,-0.203 -6.678,-3.333 -6.731,-7.821 -0.658,-0.265 -1.316,-0.531 -1.974,-0.794 -2.356,1.375 -3.62,0.73 -3.746,-2.022 -0.648,-0.273 -1.297,-0.546 -1.945,-0.817 -1.33,0.387 -2.636,0.925 -3.992,1.125 -3.883,0.571 -7.481,-4.638 -11.632,-0.629 -0.131,0.127 -1.406,-0.483 -1.65,-0.99 -3.586,-7.445 -10.463,-8.41 -17.562,-9.436 -2.939,-0.425 -5.095,-3.004 -4.099,-6.142 0.8,-2.517 2.971,-3.772 5.255,-0.871 0.914,-0.106 1.828,-0.212 2.742,-0.318 -0.042,-1.013 0.278,-2.008 1.322,-2.102 1.065,-0.096 1.526,0.822 1.572,1.855 2.372,-0.761 4.743,-1.521 7.114,-2.282 1.491,-2.684 3.8,-1.974 6.061,-1.462 5.955,-0.832 11.286,-3.406 16.622,-5.965 0.241,-0.958 0.846,-1.366 1.825,-1.209 16.224,-5.37 27.128,-18.017 39.282,-28.906 2.191,-1.962 4.409,-4.323 4.862,-7.596 0.365,-6.99 5.938,-11.316 8.811,-17.024 0.239,-0.475 1.7,-0.334 2.593,-0.48 1.112,-1.282 1.578,-2.763 1.363,-4.452 -5.621,-1.375 -1.404,-5.078 -1.362,-7.399 0.057,-3.133 2.652,-2.485 4.712,-1.236 0.344,-0.106 0.476,-0.335 0.394,-0.686 -2.953,-7.157 -0.095,-14.253 0.621,-21.268 0.555,-5.43 3.779,-10.431 -0.042,-16.141 -0.972,-1.452 -3.471,-5.669 1.037,-7.86 1.625,-0.79 0.52,-2.494 -0.056,-3.76 -2.8,-6.154 0.18,-8.263 5.911,-8.447 0.083,-0.953 0.166,-1.907 0.249,-2.86 -2.216,-1.167 -6.536,-1.212 -6.411,-3.33 0.257,-4.337 2.274,-8.57 -0.291,-12.852 5.654,-1.96 4.734,-6.499 4.614,-10.981 -0.045,-1.67 2.039,-1.373 3.414,-1.205 0.087,-3.802 0.173,-7.604 0.26,-11.406 -2.76,-4.497 -4.213,-8.915 0.777,-12.946 0.411,-3.737 1.221,-7.461 0.399,-11.242 -2.677,-2.953 -2.809,-5.882 0.083,-8.782 -0.025,-0.867 -0.048,-1.734 -0.072,-2.601 -3.639,-4.239 -5.729,-8.496 -0.156,-12.846 -0.001,-0.995 -0.003,-1.989 -0.004,-2.984 -4.678,-1.957 -4.188,-3.867 0.051,-5.743 -0.016,-0.929 -0.032,-1.857 -0.048,-2.787 -0.973,0.11 -2.081,-0.082 -2.204,-1.067 -0.2,-1.599 1.084,-1.697 2.303,-1.602 -0.093,-0.974 -0.186,-1.949 -0.28,-2.924 -2.027,-1.64 -1.861,-3.112 0.338,-4.429 0.055,-1.332 0.109,-2.665 0.163,-3.997 -7.377,-7.648 -1.834,-15.344 -0.086,-23.026 -0.029,-0.961 -0.058,-1.922 -0.087,-2.884 -0.687,-0.1 -1.759,0.047 -2.005,-0.336 -4.763,-7.418 -13.316,-10.124 -19.966,-14.973 -3.339,-2.434 -10.36,-0.009 -11.984,-6.996 -0.038,-0.164 -0.892,-0.102 -1.349,-0.211 -2.256,-0.539 -5.482,-0.759 -3.709,-4.209 1.386,-2.697 4.61,-5.985 7.361,-3.686 6.872,5.745 14.514,6.743 23.012,7.732 6.156,0.716 7.561,-1.348 7.142,-5.723 -0.877,-9.182 -10e-4,-18.327 -0.345,-27.477 -0.05,-1.331 -0.578,-3.624 -1.285,-3.793 -5.424,-1.294 -5.787,-7.09 -9.309,-10 -1.274,-1.052 -2.544,-2.559 -1.394,-4.286 0.952,-1.433 2.52,-0.62 3.893,-0.273 2.802,0.709 6.96,1.455 7.25,-1.767 0.339,-3.78 3.069,-6.791 2.403,-10.734 -0.464,-2.75 0.381,-6.48 -2.713,-7.42 -3.41,-1.036 -2.588,2.984 -3.711,4.76 -1.043,1.65 -2.795,2.997 -4.747,2.303 -1.397,-0.497 -2.651,-1.928 -3.513,-3.241 -0.755,-1.151 0.154,-2.487 1.353,-2.75 8.195,-1.8 9.081,-9.84 12.099,-15.396 2.302,-4.238 4.786,-9.753 2.645,-15.478 -2.072,-5.541 0.555,-8.423 5.95,-9.397 1.16,-3.359 2.325,-6.717 1.737,-10.369 -1.567,0.224 -3.433,-0.504 -3.036,-1.854 1.786,-6.08 1.905,-12.83 6.615,-17.827 0.338,-0.909 0.677,-1.818 1.015,-2.728 -3.841,-0.916 -3.76,-0.87 -2.293,-3.42 2.543,-4.422 0.123,-10.506 4.704,-14.322 0.179,-0.149 -0.43,-1.713 -0.558,-1.697 -4.349,0.535 -7.722,-5.487 -12.507,-1.859 -2.063,1.564 -4.566,1.484 -6.853,1.104 -20.769,-3.448 -41.724,-2.278 -62.618,-2.853 -15.819,-0.435 -31.503,1.125 -47.24,1.935 -2.325,0.12 -3.622,2.044 -4.292,4.224 -4.44,14.46 -8.951,28.764 -10.308,44.103 -1.347,15.235 -3.984,30.357 -4.331,45.723 -0.195,8.689 -0.525,17.422 -1.6,26.034 -2.226,17.846 -0.536,35.736 -1.142,53.598 -0.72,21.226 -0.145,42.493 -0.333,63.741 -0.121,13.858 -0.699,27.713 -0.854,41.572 -0.042,3.727 1.876,7.355 0.829,11.22 -2.923,10.789 -1.907,21.928 -2.183,32.852 -0.535,21.204 0.788,42.464 -4.197,63.375 -0.771,3.238 -0.976,6.259 3.78,7.625 3.737,1.072 7.837,14.193 5.36,15.592 -6.056,3.419 -3.762,4.555 0.99,5.959 2.113,0.625 2.323,2.828 2.321,4.77 -0.002,2.198 0.481,4.083 1.929,5.895 7.952,9.951 7.351,20.909 3.595,32.219 -0.587,1.766 -1.556,2.941 -3.4,3.139 -2.005,0.215 -2.96,-0.892 -3.386,-2.805 -0.906,-4.065 -5.192,-6.727 -7.406,-5.065 -3.639,2.733 1.67,4.153 3.021,6.175 1.311,1.963 2.01,3.991 0.402,5.849 -2.222,2.567 -3.684,0.066 -5.216,-1.216 -0.907,-0.759 -1.696,-1.66 -2.604,-2.417 -2.431,-2.025 -3.728,-1.508 -4.029,1.724 -0.142,1.532 1.185,3.204 -0.352,4.613 -8.314,-2.418 -9.281,-4.778 -4.866,-11.911 0.796,-1.286 1.461,-2.662 0.211,-3.831 -1.657,-1.551 -3.656,-1.132 -5.148,0.228 -2.411,2.198 -6.586,4.772 -7.961,2.513 -3.699,-6.075 -9.199,-3.73 -13.983,-4.761 -1.363,-0.294 -2.95,-0.518 -3.941,-1.356 -1.68,-1.423 -2.766,-3.641 -1.635,-5.721 1.349,-2.479 3.112,-0.598 4.806,0.094 4.405,1.798 8.968,2.94 13.804,2.423 1.418,-0.151 2.98,-0.136 3.165,-2.04 0.135,-1.384 -0.896,-2.339 -2.001,-2.612 -4.058,-1.002 -5.821,-4.67 -8.272,-7.325 -1.779,-1.927 -5.406,-4.64 -2.34,-7.834 3.145,-3.276 5.86,-0.409 8.535,1.708 6.44,5.099 12.91,10.179 19.607,14.93 3.587,2.544 8.844,0.94 12.076,5.88 2.091,3.196 4.513,0.24 4.19,-2.992 -0.726,-7.26 -1.884,-14.382 -5.712,-20.889 -3.466,-5.893 -7.511,-10.268 -15.081,-8.813 -7.94,1.525 -15.565,4.635 -23.798,4.712 -0.418,0.003 -0.88,0.356 -1.242,0.646 -8.594,6.889 -18.317,9.017 -29.157,7.491 -7.175,-1.011 -14.442,-0.391 -21.674,-0.368 -5.831,0.018 -11.466,-3.978 -17.811,-1.625 -2.579,0.957 -5.288,-0.103 -7.149,-1.992 -1.242,-1.26 -0.53,-3.076 0.464,-4.576 1.96,-2.958 4.51,-1.375 7.021,-1.195 6.477,0.466 12.844,5.014 19.064,2.68 7.365,-2.764 14.688,-2.574 22.136,-2.763 3.453,-0.088 4.605,-1.78 4.256,-4.95 l -0.041,-0.384 c 0,0 -0.377,-0.081 -0.377,-0.08 -3.541,-1.203 -4.126,-2.859 -4.008,-7.17 0.342,-12.527 3.284,-24.777 3.133,-37.302 -0.214,-17.829 -1.523,-35.656 -0.195,-53.492 0.121,-1.619 -0.256,-3.358 1.258,-4.588 -0.056,-1.041 -0.112,-2.082 -0.169,-3.124 -0.37,-1.081 -1.062,-2.162 -1.063,-3.243 -0.018,-16.506 0.042,-33.012 0.119,-49.518 0.011,-2.396 0.537,-4.683 2.183,-6.566 -0.046,-2.853 -0.093,-5.707 -0.139,-8.561 -3.587,-2.662 -0.739,-5.291 0.042,-7.93 -0.068,-1.083 -0.136,-2.166 -0.204,-3.25 0.065,-0.803 0.13,-1.606 0.195,-2.41 0.103,-0.365 0.249,-0.725 0.29,-1.097 0.017,-0.155 -0.186,-0.334 -0.29,-0.503 -1.287,-3.741 -1.199,-7.486 -0.038,-11.235 0.006,-1.642 0.011,-3.285 0.016,-4.927 -4.414,-3.405 -0.756,-6.617 0.235,-9.893 0.7,-2.26 0.197,-4.471 -0.265,-6.685 -1.022,-3.955 -1.447,-7.896 0.264,-11.79 0.581,-1.796 0.328,-3.549 -0.273,-5.285 -0.961,-9.62 -1.284,-19.234 0.243,-28.832 0.036,-1.081 0.072,-2.163 0.109,-3.244 -1.443,-1.585 -0.913,-3.535 -0.997,-5.373 -0.45,-9.818 1.299,-19.533 1.156,-29.416 -0.103,-7.097 -1.916,-14.949 1.948,-21.92 0.838,-1.842 0.5,-3.721 0.175,-5.6 -3.006,-3.301 -2.563,-6.656 -0.159,-10.042 0.086,-0.792 0.172,-1.585 0.258,-2.378 -0.226,-3.764 -0.488,-7.527 -0.672,-11.293 -0.874,-17.945 1.496,-35.84 0.781,-53.811 -0.184,-4.615 -2.013,-5.255 -5.511,-6.392 -6.225,-2.022 -12.188,0.243 -18.264,0.219 -33.605,-0.129 -67.211,-0.088 -100.817,-0.05 -11.874,0.014 -12.421,1.548 -13.641,13.59 -1.411,13.941 -0.373,27.897 -1.622,41.792" style="fill:#08282e;fill-opacity:1;fill-rule:nonzero;stroke:none" transform="matrix(1.3333333,0,0,-1.3333333,2544.3097,2645.4376)" />
      <path id="path16" d="M 0,0 C 2.441,-0.227 3.455,1.855 3.873,3.381 4.614,6.087 1.808,6.866 0.1,7.244 -1.919,7.69 -3.478,5.944 -3.548,3.891 -3.621,1.768 -1.849,0.75 0,0 m -56.315,119.795 c -0.674,-0.378 -1.367,-0.558 -1.399,-0.819 -0.134,-1.107 -0.504,-2.505 -0.005,-3.314 1.85,-3 5.252,-3.737 8.267,-4.943 1.134,-0.453 2.419,-0.169 3.108,0.941 0.286,0.46 0.219,1.714 -0.08,1.875 -3.485,1.871 -7.064,3.569 -9.891,6.26 m 197.101,308.743 c -1.216,2.904 -0.426,6.987 -3.249,9.776 -0.846,0.835 -2.247,0.012 -3.133,-0.795 -3.777,-3.445 -0.339,-6.95 0.063,-10.388 0.245,-2.101 1.179,-4.33 4.033,-3.659 2.348,0.552 2.192,2.694 2.286,5.066 M -64.105,87.154 c 2.787,-0.416 4.263,-0.988 5.125,0.65 0.704,1.337 0.589,2.926 -0.351,3.992 -2.907,3.297 -5.822,6.634 -9.112,9.526 -1.329,1.17 -3.667,0.768 -5.279,-0.405 -0.624,-0.455 -1.208,-2.17 -1.122,-2.224 4.848,-3.069 2.437,-13.791 10.739,-11.539 m 25.401,36.431 c 0.931,-1.893 -2.349,-4.689 0.902,-5.493 2.587,-0.64 4.916,1.412 6.505,3.503 3.242,4.267 0.045,13.039 -5.763,16.284 -1.288,0.719 -2.689,1.328 -4.001,0.59 -2.171,-1.221 -0.542,-2.966 -0.127,-4.328 1.073,-3.518 3.878,-6.588 2.484,-10.556 m -15.509,27.709 c -2.5,0.819 -4.257,-0.516 -5.34,-2.363 -1.582,-2.698 1.131,-3.777 2.646,-4.806 8.46,-5.752 16.945,-3.32 20.74,5.813 0.555,1.337 0.657,2.849 -0.582,3.886 -1.017,0.852 -2.381,0.626 -3.195,-0.266 -4.199,-4.606 -9.179,-3.717 -14.269,-2.264 m 202.016,361.68 c 2.322,0.081 4.644,0.163 6.967,0.245 1.099,-2.088 2.135,-1.899 3.121,0.086 3.42,-0.502 3.86,-3.248 3.938,-5.811 0.64,-20.918 1.136,-41.839 0.068,-62.76 -5.446,-3.362 -5.866,-7.17 -1.264,-11.462 2.566,-4.268 3.28,-8.614 0.554,-13.107 -8.831,-0.578 -17.896,0.513 -26.225,-3.66 -1.377,-0.048 -2.755,-0.096 -4.133,-0.143 -2.185,4.747 -7.378,4.604 -11.441,-0.316 -0.951,0.031 -1.902,0.061 -2.854,0.092 -5.983,3.637 -12.55,2.473 -19.03,2.469 -12.956,-0.009 -25.912,0.256 -38.868,0.361 -2.127,0.018 -4.449,0.099 -4.642,-2.993 -2.386,0.02 -4.772,0.04 -7.159,0.06 -0.006,1.953 -1.109,3.483 -2.832,2.436 -1.599,-0.972 -5.409,-1.756 -2.619,-5.262 0.226,-25.889 0.333,-51.78 0.734,-77.667 0.17,-10.989 0.957,-21.968 1.464,-32.952 -3.469,-2.538 -4.222,-5.006 0.189,-7.341 1.023,-3.253 0.929,-6.512 0.056,-9.777 -1.255,-0.053 -2.243,-0.527 -2.356,-1.897 -0.14,-1.689 0.841,-2.44 2.437,-2.529 0.514,-27.547 1.043,-55.094 1.539,-82.641 0.47,-26.176 0.905,-52.352 1.362,-78.528 0.021,-1.182 0.155,-2.362 0.172,-3.544 0.232,-16.528 0.251,-16.241 17.16,-17.548 13.153,-1.016 26.616,-1.289 39.438,-0.71 24.929,1.126 49.846,-1.341 74.694,0.957 1.6,0.149 3.257,-0.315 4.888,-0.493 0.39,-2.601 -1.989,-5.204 0.009,-7.803 0.179,-0.392 0.066,-0.663 -0.34,-0.812 -2.299,1.087 -4.283,0.366 -5.614,-1.505 -1.035,-1.457 0.265,-2.672 1.36,-3.554 1.619,-1.305 3.017,-1.29 3.655,1.06 4.571,0.058 6.05,-2.675 6.047,-6.723 -0.006,-9.292 -0.021,-18.583 -0.033,-27.874 -1.237,-2.252 -3.693,-4.603 0.521,-6.411 -0.004,-0.861 -0.008,-1.721 -0.012,-2.581 -3.088,-1.16 -2.999,-2.714 -0.568,-4.56 -0.016,-0.841 -0.032,-1.682 -0.048,-2.524 -2.232,-1.657 -1.527,-2.576 0.777,-3.093 2.069,-5.065 0.054,-10.28 0.567,-15.403 -2.661,-4.58 -3.588,-9.787 -2.665,-14.697 0.904,-4.81 -0.288,-6.079 -4.852,-7.031 -18.103,-3.776 -36.22,0.471 -54.376,-0.153 C 109.815,-5.736 91.55,-4.972 73.623,-2.296 67.648,-1.404 61.059,-1.347 55.322,-2.952 47.891,-5.03 40.349,-5.96 32.941,-5.97 22.705,-5.984 12.772,-3.067 2.094,-4.474 c -9.688,-1.277 -19.731,-1.71 -29.652,-1.835 -2.602,-0.032 -5.28,-0.271 -6.546,-3.203 -16.911,-1.08 -33.8,0.007 -50.692,0.55 -3.862,0.124 -6.002,2.362 -6.197,6.316 -0.302,6.102 -0.623,12.203 -0.933,18.306 -0.038,1.099 -0.079,2.196 -0.12,3.292 -0.119,0.4 -0.278,0.794 -0.342,1.203 -0.029,0.187 0.127,0.403 0.2,0.606 2.934,1.452 3.282,2.95 0.081,4.512 -1.394,2.726 -0.578,5.575 -0.464,8.385 1.221,-0.057 2.254,0.298 2.546,1.598 0.356,1.585 -0.396,2.53 -1.976,2.833 -3.245,10.797 -0.736,21.672 -0.439,32.518 0.873,0.612 1.048,1.37 0.479,2.284 -1.157,2.241 -0.035,4.221 0.718,6.243 1.196,0.576 2.015,1.695 1.606,2.83 -2.49,6.907 -1.214,14.024 -1.392,21.057 -0.047,1.849 0.365,3.903 -2.069,4.702 -0.085,0.619 -0.17,1.238 -0.253,1.857 1.592,2.903 2.391,5.952 2.53,9.315 0.168,4.092 2.113,7.074 6.59,7.669 0.675,-1.341 2.688,-1.953 2.153,-3.953 0.078,-3.354 -0.213,-7.07 5.145,-5.223 l -0.308,-0.252 -0.094,0.387 c 0.313,-2.08 0.381,-4.236 1.006,-6.217 0.639,-2.021 1.814,-4.123 4.524,-3.316 2.861,0.852 2.49,3.507 1.647,5.242 -1.461,3.008 -1.335,7.058 -5.115,8.712 0.149,1.622 0.298,3.244 0.447,4.866 0.602,0.851 1.594,1.764 0.744,2.774 -0.335,0.398 -1.529,0.074 -2.332,0.079 -1.957,-0.019 -3.914,-0.038 -5.871,-0.057 -8.833,1.74 -9.55,8.72 -10.291,15.764 -0.08,0.753 -1.013,1.416 -1.55,2.121 0.04,0.921 0.08,1.841 0.12,2.761 1.789,0.968 1.668,2.704 1.669,4.334 0.007,7.722 -1.095,15.596 6.01,21.584 1.01,0.851 4.166,6.086 -1.893,7.254 -2.533,0.489 -2.728,2.952 -2.742,5.146 -0.073,11.537 -0.085,23.074 -0.207,34.611 -0.216,20.559 0.948,41.166 -2.074,61.632 -0.314,0.378 -0.314,0.756 10e-4,1.134 0.818,10.281 2.606,20.587 -0.78,30.76 -0.037,0.913 -0.075,1.825 -0.112,2.738 1.834,0.945 1.722,2.676 1.654,4.316 -0.615,14.83 -1.261,29.659 -1.897,44.488 0,0 -0.081,-0.011 -0.08,-0.012 0.352,0.038 0.701,0.077 1.051,0.116 -0.312,0.275 -0.623,0.55 -0.935,0.825 -0.334,0.248 -0.364,0.528 -0.091,0.842 1.442,22.344 0.443,44.701 0.248,67.051 -0.018,2.1 -0.22,4.816 -2.689,6.179 -0.379,2.374 -0.908,4.749 0.035,7.116 2.556,3.305 2.582,6.612 0.011,9.923 -0.011,0.949 -0.022,1.898 -0.033,2.846 1.376,4.27 5.033,8.535 0.031,12.82 -0.9,3.313 -0.702,6.627 -0.011,9.942 3.296,7.931 0.542,16.205 1.399,24.241 0.86,8.061 -3.667,17.685 6.104,23.463 0.823,-0.223 1.646,-0.446 2.469,-0.669 0.934,-4.067 4.607,-3.831 7.37,-4.051 4.907,-0.391 9.917,0.411 14.809,-0.059 2.477,-0.238 5.985,-0.049 7.017,-3.599 0.884,-3.043 -1.826,-3.287 -3.533,-4.352 -0.512,-0.319 -0.961,-1.097 -1.027,-1.709 -0.208,-1.914 2.378,-4.529 -0.455,-5.632 -3.237,-1.259 -2.362,2.648 -3.66,3.958 -1.347,1.361 -3.01,1.246 -4.613,0.695 -1.147,-0.394 -0.951,-1.376 -0.637,-2.34 1.624,-4.992 7.948,-8.288 13.096,-6.934 4.304,1.132 5.117,4.624 5.486,8.185 0.349,3.364 1.311,6.216 4.869,6.926 4.65,0.929 3.559,-3.201 4.448,-5.565 1.006,-2.671 3.462,-5.476 5.689,-3.95 5.61,3.844 11.697,1.596 18.325,3.196 -3.994,-6.434 -1.979,-8.548 4.348,-7.619 4.4,0.646 7.357,-2.205 7.628,-5.721 0.513,-6.638 5.36,-10.885 7.675,-16.474 2.03,-4.9 10.943,-7.294 12.854,-3.811 2.375,4.33 6.096,4.675 9.713,6.009 0.287,0.001 0.508,-0.119 0.662,-0.362 1.432,-8.306 7.901,-12.903 13.442,-18.161 1.195,-1.134 2.592,-0.328 3.993,-0.036 11.418,2.379 22.639,5.314 33.351,10.08 2.545,1.132 4.256,1.973 3.023,5.058 -0.69,1.726 -0.822,3.889 -3.044,4.434 -2.721,0.668 -3.741,-1.477 -4.791,-3.317 -2.892,-5.069 -7.239,-1.372 -10.884,-1.807 -1.581,-0.188 -3.184,1.035 -2.506,2.523 1.374,3.013 -0.52,7.313 3.86,9.197 2.331,1.002 4.616,2.466 6.434,4.225 3.151,3.051 5.789,5.839 9.577,0.641 1.03,-1.412 3.834,-0.889 3.394,1.375 -2.027,10.431 5.108,5.734 9.007,5.385 3.605,-0.323 6.795,-1.177 7,3.969 2.843,-0.03 5.686,-0.06 8.529,-0.09 5.343,-2.655 10.654,-2.844 15.922,0.208 1.318,-0.022 2.636,-0.043 3.954,-0.065 2.78,-2.147 5.553,-4.356 8.812,-0.734 3.703,0.406 7.48,2.143 11.008,-0.61 -0.02,-1.88 0.729,-3.307 2.776,-2.896 2.022,0.407 1.942,2.22 1.75,3.872" style="fill:#08282e;fill-opacity:1;fill-rule:nonzero;stroke:none" transform="matrix(1.3333333,0,0,-1.3333333,2201.5567,3780.2884)" />
      <path id="path19" d="m 0,0 c -2.966,-0.183 -6.341,0.105 -6.851,-3.645 -0.348,-2.552 1.835,-4.143 4.176,-3.309 2.836,1.011 7.593,-0.317 7.941,4.271 C 5.535,0.884 1.98,-0.365 0,0 m 176.688,201.09 c -0.474,2.771 0.576,6.211 -2.71,6.909 -2.887,0.614 -4.337,-2.3 -5.648,-4.478 -0.712,-1.182 -1.148,-2.6 -1.409,-3.969 -0.813,-4.264 -0.045,-10.185 2.958,-11.064 3.575,-1.048 4.733,4.701 6.019,8.091 0.57,1.5 0.578,3.213 0.79,4.511 m 11.792,-13.773 c 2.555,2.172 3.902,5.824 7.859,5.578 1.49,-0.093 3.44,-1.526 4.015,1.08 0.498,2.259 -0.463,4.408 -2.333,5.529 -1.98,1.187 -4.413,1.592 -6.569,2.522 -2.421,1.046 -4.543,1.34 -6.085,-1.341 -1.352,-2.348 -2.505,-4.768 -0.004,-7.028 1.844,-1.667 2.311,-3.938 3.117,-6.34 M 89.336,10.408 c -0.747,2.956 -1.868,6.699 -2.59,10.518 -0.409,2.165 -0.648,4.961 -2.649,5.454 -9.466,2.329 -13.429,12.124 -21.987,15.699 -2.864,1.196 -5.844,3.89 -7.832,0.383 -1.898,-3.35 1.154,-6.115 3.95,-8.026 1.125,-0.769 2.972,-0.589 3.947,-1.454 4.811,-4.267 12.961,-5.862 12.245,-14.688 -0.545,-6.711 4.326,-7.288 9.006,-8.084 2.075,-0.353 4.168,1.111 5.91,0.198 m 165.332,206.911 c 0.022,-2.817 0.044,-5.633 0.066,-8.45 -1.309,-3.347 -5.876,-6.694 0.003,-10.038 0.39,-2.301 1.147,-4.583 0.336,-6.942 -2.642,-3.898 -2.887,-7.796 -0.002,-11.694 1.754,-5.048 2.074,-10.188 0.998,-15.419 -8.425,-2.751 -17.182,-2.781 -25.885,-2.957 -14.064,-0.286 -14.066,-0.177 -13.811,12.59 0.573,0.816 1.147,1.632 1.722,2.448 2.39,-0.879 4.096,-0.171 4.922,2.257 0.387,1.137 0.243,2.287 -0.641,3.228 -3.575,3.801 -11.184,1.488 -12.951,-3.936 -0.551,-0.761 -1.102,-1.523 -1.653,-2.284 -3.752,-0.699 -2.871,-3.529 -2.762,-6.003 l -0.119,-0.406 c 0,0 -0.417,-0.076 -0.417,-0.075 -4.228,0.563 -6.204,3.555 -8.255,6.915 -1.816,2.976 -4.366,6.679 -7.404,0.571 -1.063,-2.138 -2.901,-3.423 -4.917,-0.853 -1.028,1.309 -2.186,3.55 -3.601,1.596 -1.839,-2.54 -4.16,-5.269 -3.63,-8.916 0.412,-2.837 1.838,-1.829 3.477,-1.033 1.043,0.507 1.699,-0.401 1.743,-1.48 0.051,-1.222 -0.091,-2.526 -1.585,-2.73 -1.613,-0.221 -3.27,-0.086 -4.901,-0.206 -7.678,-0.564 -7.979,-0.162 -4.865,6.521 1.013,2.173 2.243,5.676 -1.3,5.253 -4.479,-0.533 -10.865,-2.095 -12.542,-5.268 -2.78,-5.259 -6.628,-4.268 -10.548,-5.706 -4.706,-1.725 -11.929,0.717 -13.801,-6.827 -0.981,-0.612 -1.864,-0.335 -2.709,0.298 -1.527,3.982 -4.303,4.362 -7.93,2.963 -8.418,-3.247 -11.254,-15.612 -5.234,-23.128 0.652,-1.83 0.985,-3.68 0.346,-5.59 -5.395,-3.072 -2.289,-5.844 0.304,-8.635 -0.009,-0.961 -0.018,-1.923 -0.028,-2.885 -1.564,0.049 -2.883,-0.416 -2.821,-2.215 0.067,-1.908 1.312,-2.857 3.207,-2.937 0.075,-0.571 0.15,-1.141 0.225,-1.712 -3.16,-2.024 -3.449,-3.999 0.1,-5.909 -0.056,-1.804 -0.113,-3.608 -0.17,-5.413 -2.488,-1.06 -2.419,-2.111 0.011,-3.153 0.09,-0.864 0.179,-1.729 0.269,-2.594 -4.071,-3.364 -3.861,-6.757 -0.068,-10.173 0.088,-0.892 0.177,-1.784 0.265,-2.677 -1.031,0.052 -1.931,-0.282 -2.011,-1.39 -0.08,-1.118 0.755,-1.567 1.802,-1.609 0.137,-6.572 0.274,-13.143 0.411,-19.715 -2.427,-3.98 -2.053,-8.307 -1.945,-12.737 0.283,-11.485 1.263,-22.978 -0.667,-34.46 -0.76,-4.524 -0.616,-9.257 3.309,-12.78 0.121,-3.736 0.242,-7.472 0.364,-11.208 -2.032,-2.33 -1.964,-4.717 -0.196,-7.151 -0.047,-0.883 -0.093,-1.766 -0.14,-2.649 -0.227,-0.065 -0.52,-0.061 -0.673,-0.205 -4.711,-4.437 -8.153,-12.876 -16.678,-5.066 -0.901,0.825 -2.152,-0.322 -3.111,-1.04 -6.537,-4.889 -14.665,-3.249 -21.937,-5.185 -2.416,-0.643 -4.412,0.232 -2.976,4.121 2.315,6.269 -1.693,10.46 -8.101,9.273 -1.848,-0.343 -3.727,-0.541 -5.599,-0.734 -2.458,-0.253 -5.58,0.642 -5.723,-3.428 -0.138,-3.914 1.731,-4.787 5.394,-4.077 2.04,0.395 3.647,-1.45 3.782,-3.44 0.134,-1.992 -1.893,-2.538 -3.469,-2.952 -5.502,-1.447 -9.173,0.943 -9.573,6.327 -0.486,6.535 -3.617,10.23 -9.4,12.262 -1.587,-1.457 -1.099,-3.177 -1.067,-4.772 0.078,-3.993 -0.09,-6.677 -5.497,-3.961 -4.117,2.067 -8.965,2.718 -13.527,3.835 -2.126,0.521 -4.245,0.108 -6.12,-1.137 -1.697,-1.126 -2.129,-2.598 -0.693,-4.135 1.48,-1.584 2.415,-0.541 3.124,0.944 0.942,1.972 2.465,1.86 4.178,1.155 2.081,-0.855 2.03,-2.332 2.268,-4.431 0.502,-4.413 -1.67,-6.656 -4.978,-8.293 -3.602,-1.781 -7.026,-3.781 -9.956,-6.522 -3.662,-3.424 -6.8,-3.295 -10.227,0.56 -2.002,2.253 -4.637,5.108 -7.256,5.416 -6.401,0.755 -6.65,4.863 -6.705,9.475 -0.23,19.106 0.157,38.241 -0.831,57.306 -0.535,10.295 0.907,20.713 -1.524,30.906 -0.076,1.012 -0.152,2.024 -0.228,3.036 0.515,6.243 5.749,12.71 -0.888,18.611 -0.956,2.865 -0.885,5.729 0.008,8.591 1.628,3.254 1.77,6.535 1.372,10.221 -1.802,16.698 -1.172,33.555 -1.221,50.266 -0.037,12.74 -2.022,25.409 -1.029,38.144 0.147,1.882 -0.294,3.814 -2.315,4.817 0.048,0.935 0.096,1.871 0.144,2.806 3.148,1.111 2.543,3.985 2.163,6.009 -3.194,17.009 0.524,34.157 -1.237,51.167 -0.491,4.744 0.588,8.726 4.28,11.866 0.944,-0.022 1.887,-0.043 2.831,-0.064 2.017,-2.876 5.165,-2.511 7.762,-1.945 7.67,1.671 15.399,0.894 23.078,0.967 13.114,0.126 26.295,-1.235 39.337,-0.348 16.211,1.104 32.313,-0.842 48.409,-0.21 7.769,0.305 15.939,-0.857 23.499,2.392 1.367,-0.095 2.734,-0.19 4.101,-0.285 3.371,-4.178 6.771,-4.218 10.202,-0.073 2.756,0.639 5.512,0.81 8.268,-0.006 3.43,-5.102 6.776,-2.024 10.132,0.104 0.932,-0.053 1.865,-0.106 2.797,-0.159 9.152,-3.529 18.767,-0.95 28.109,-2.07 1.367,-0.164 2.595,0.977 3.21,2.397 6.628,-1.55 13.249,-1.176 19.868,0.07 2.051,-2.364 4.815,-1.113 7.272,-1.453 10.403,-1.441 20.974,1.282 31.329,-1.279 2.915,-3.017 1.101,-6.71 1.445,-10.095 -2.924,-2.449 -3.109,-7.238 -0.442,-11.431 0.381,-2.829 1.026,-5.685 -0.832,-8.289 -2.168,-6.366 -4.037,-12.713 1.08,-18.656" style="fill:#08282e;fill-opacity:1;fill-rule:nonzero;stroke:none" transform="matrix(1.3333333,0,0,-1.3333333,2093.2141,2984.21)" />
      <path id="path25" d="m 0,0 c 0.296,2.304 -0.277,3.704 -2.233,4.22 -2.548,0.671 -10.841,-5.347 -10.6,-8.12 0.22,-2.52 2.089,-5.917 4.552,-5.129 C -4.097,-7.689 -2.655,-2.854 0,0 m -82.354,37.644 c 2.422,0.291 7.394,0.436 6.015,2.35 -2.478,3.437 -2.692,9.57 -7.277,10.258 -4.251,0.638 -5.325,-4.424 -5.529,-7.673 -0.259,-4.126 2.972,-5.418 6.791,-4.935 m 29.041,-11.03 c 2.145,-1.826 2.655,-6.454 5.519,-2.24 0.732,1.077 2,0.811 3.238,0.543 8.609,-1.864 9.98,-0.435 9.232,8.667 -0.24,2.916 -1.264,7.179 4.632,5.327 2.968,-0.933 4.077,1.194 4.968,3.674 0.663,1.844 0.8,4.204 3.639,4.656 2.969,0.472 4.575,2.354 3.97,5.528 -0.25,1.309 0.313,3.773 -1.084,3.688 -2.893,-0.178 -6.901,0.462 -8.367,-2.394 -2.303,-4.489 -5.368,-3.363 -8.209,-1.855 -5.262,2.794 -9.318,5.077 -10.131,-4.09 -0.221,-2.483 -4.054,-5.468 -6.889,-6.679 -3.27,-1.396 -5.872,-5.003 -7.427,-5.528 -10.776,-3.64 -8.181,-8.11 -3.943,-15.715 2.115,-3.798 2.299,-4.281 6.345,-3.634 6.293,1.005 5.961,4.602 4.507,10.052 m -69.529,128.873 c 2.431,-10.193 0.99,-20.611 1.524,-30.906 0.989,-19.065 0.601,-38.2 0.831,-57.306 0.056,-4.612 0.305,-8.72 6.706,-9.475 2.618,-0.308 5.253,-3.164 7.256,-5.416 3.426,-3.855 6.565,-3.984 10.226,-0.56 2.93,2.74 6.354,4.741 9.956,6.522 3.308,1.636 5.48,3.88 4.978,8.293 -0.238,2.099 -0.186,3.575 -2.268,4.431 -1.713,0.705 -3.236,0.817 -4.178,-1.155 -0.709,-1.485 -1.644,-2.528 -3.123,-0.944 -1.437,1.537 -1.004,3.009 0.692,4.135 1.876,1.245 3.995,1.658 6.12,1.137 4.562,-1.117 9.411,-1.768 13.527,-3.835 5.408,-2.716 5.576,-0.032 5.497,3.961 -0.031,1.595 -0.52,3.315 1.067,4.772 5.783,-2.032 8.914,-5.727 9.4,-12.262 0.4,-5.384 4.071,-7.774 9.573,-6.327 1.576,0.414 3.604,0.96 3.469,2.952 -0.134,1.99 -1.742,3.835 -3.781,3.439 -3.663,-0.709 -5.533,0.164 -5.395,4.078 0.144,4.07 3.266,3.174 5.724,3.428 1.872,0.193 3.75,0.391 5.598,0.734 6.408,1.187 10.417,-3.004 8.101,-9.273 -1.436,-3.889 0.56,-4.764 2.976,-4.121 7.272,1.936 15.401,0.296 21.937,5.185 0.959,0.718 2.211,1.865 3.111,1.04 8.525,-7.811 11.968,0.629 16.678,5.066 0.153,0.144 0.446,0.14 0.674,0.205 0.776,-8.384 3.967,-17.119 -3.677,-24.248 -1.626,-1.516 -0.41,-3.03 0.293,-4.497 1.726,-3.602 3.574,-7.152 5.125,-10.828 1.519,-3.602 -0.085,-6.59 -2.837,-8.747 -2.748,-2.154 -5.988,-1.498 -8.668,0.196 -3.04,1.92 -1.989,5.201 -1.164,7.721 0.773,2.359 0.972,4.521 0.246,7.064 1.398,-6.637 -8.152,-7.604 -6.936,-14.358 0.239,-1.326 -2.399,-1.339 -3.574,-0.716 -3.939,2.089 -9.099,0.564 -12.443,4.375 -1.747,1.991 -3.423,0.173 -5.124,-0.354 -4.935,-1.53 -7.102,-6.986 -13.07,-7.938 -3.86,-0.616 -2.077,-6.964 -1.488,-10.119 0.516,-2.762 4.181,-1.375 6.5,0.133 1.148,0.746 2.57,1.071 3.865,1.594 6.178,2.497 12.94,-1.272 19.537,2.403 2.064,1.15 9.731,0.445 12.491,-5.483 1.56,-3.35 5.08,-4.703 9.083,-5.512 5.522,-1.116 11.191,-1.312 16.711,-3.619 -3.5,6.256 1.197,8.512 4.308,7.389 12.411,-4.482 23.526,3.866 35.43,2.536 0.905,-0.101 1.775,-0.512 2.661,-0.778 -0.205,-5.146 -3.395,-4.291 -6.999,-3.969 -3.9,0.349 -11.035,5.046 -9.008,-5.385 0.44,-2.264 -2.364,-2.787 -3.394,-1.375 -3.788,5.198 -6.425,2.41 -9.577,-0.641 -1.818,-1.759 -4.103,-3.223 -6.434,-4.225 -4.38,-1.884 -2.486,-6.184 -3.86,-9.197 -0.678,-1.488 0.925,-2.711 2.506,-2.523 3.645,0.435 7.992,-3.262 10.884,1.807 1.05,1.84 2.07,3.985 4.791,3.317 2.222,-0.545 2.354,-2.708 3.044,-4.434 1.233,-3.085 -0.478,-3.926 -3.023,-5.058 -10.712,-4.766 -21.933,-7.701 -33.351,-10.08 -1.401,-0.291 -2.798,-1.098 -3.993,0.036 -5.541,5.259 -12.01,9.856 -13.442,18.161 8.077,5.463 16.479,3.909 24.967,1.22 2.419,-0.767 4.976,-0.901 5.624,2.278 0.569,2.79 -1.133,4.313 -3.844,4.916 -6.224,1.384 -11.916,4.731 -18.971,1.878 -4.921,-1.991 -9.618,-5.842 -8.438,-9.93 -3.617,-1.334 -7.338,-1.679 -9.713,-6.009 -1.911,-3.483 -10.824,-1.089 -12.854,3.811 -2.315,5.589 -7.162,9.836 -7.674,16.474 -0.272,3.516 -3.229,6.367 -7.628,5.721 -6.328,-0.929 -8.343,1.185 -4.349,7.619 -6.628,-1.599 -12.715,0.648 -18.325,-3.196 -2.227,-1.526 -4.683,1.279 -5.689,3.95 -0.889,2.364 0.202,6.494 -4.448,5.565 -3.558,-0.71 -4.52,-3.562 -4.868,-6.925 -0.37,-3.562 -1.183,-7.054 -5.487,-8.186 -5.148,-1.354 -11.472,1.943 -13.096,6.934 -0.314,0.964 -0.51,1.947 0.637,2.34 1.603,0.551 3.266,0.666 4.613,-0.695 1.298,-1.31 0.423,-5.217 3.66,-3.958 2.834,1.103 0.247,3.718 0.455,5.632 0.066,0.612 0.515,1.39 1.027,1.71 1.707,1.064 4.417,1.308 3.533,4.351 -1.032,3.55 -4.54,3.361 -7.017,3.599 -4.892,0.47 -9.901,-0.332 -14.809,0.059 -2.763,0.22 -6.436,-0.016 -7.369,4.051 3.341,2.301 6.107,-0.885 9.224,-1.089 4.111,-0.27 6.21,0.822 6.302,5.035 1.438,0.887 4.004,0.386 3.973,3.078 -0.029,2.544 -2.254,2.696 -3.929,3.157 -1.755,0.484 -3.814,0.141 -5.407,0.879 -3.448,1.597 -8.815,-0.49 -10.199,5.146 1.467,0.674 3.532,1.376 2.016,3.353 -1.025,1.337 -3.133,2.886 -4.525,2.691 -3.302,-0.462 -0.831,-3.365 -1.395,-5.1 -3.518,0.563 -5.685,-0.988 -6.724,-4.301 -1.597,1.092 -2.414,3.106 -1.306,4.274 4.388,4.622 1.924,8.974 0.284,13.627 -0.84,2.384 -1.107,5.106 -1.025,7.656 0.81,24.995 -1.021,49.948 -1.035,74.926 -0.003,4.36 -1.394,8.963 1.52,13.013" style="fill:#494f57;fill-opacity:1;fill-rule:nonzero;stroke:none" transform="matrix(1.3333333,0,0,-1.3333333,2233.2219,3108.5685)" />
      <path id="path28" d="m 0,0 c 0.349,3.17 -0.803,4.862 -4.256,4.95 -7.448,0.189 -14.771,-0.001 -22.136,2.763 -6.22,2.334 -12.587,-2.213 -19.064,-2.68 -2.511,-0.18 -5.061,-1.762 -7.021,1.195 -0.994,1.5 -1.706,3.316 -0.464,4.576 1.86,1.889 4.57,2.949 7.149,1.993 6.344,-2.353 11.98,1.642 17.811,1.624 7.232,-0.023 14.499,-0.642 21.674,0.368 C 4.533,16.315 14.256,14.188 22.85,7.299 23.211,7.008 23.674,6.656 24.092,6.652 32.325,6.575 39.95,3.466 47.89,1.94 c 7.569,-1.455 11.615,2.92 15.081,8.813 3.828,6.507 4.986,13.63 5.712,20.89 0.323,3.231 -2.099,6.187 -4.19,2.991 C 61.261,29.695 56.004,31.299 52.417,28.755 45.72,24.003 39.25,18.923 32.81,13.824 30.135,11.707 27.42,8.84 24.275,12.117 c -3.067,3.194 0.561,5.906 2.34,7.834 2.45,2.654 4.214,6.322 8.272,7.325 1.104,0.272 2.136,1.227 2.001,2.611 -0.185,1.905 -1.747,1.889 -3.165,2.041 -4.837,0.516 -9.399,-0.625 -13.805,-2.424 -1.693,-0.692 -3.457,-2.573 -4.805,-0.094 -1.131,2.081 -0.045,4.298 1.635,5.721 0.991,0.839 2.578,1.062 3.941,1.356 4.784,1.031 10.284,-1.314 13.983,4.762 1.375,2.258 5.55,-0.316 7.961,-2.514 1.492,-1.36 3.491,-1.779 5.148,-0.228 1.25,1.17 0.585,2.545 -0.211,3.832 -4.415,7.133 -3.448,9.493 4.865,11.911 1.538,-1.409 0.211,-3.082 0.353,-4.613 0.301,-3.232 1.598,-3.75 4.029,-1.725 0.908,0.758 1.697,1.658 2.604,2.417 1.532,1.282 2.994,3.784 5.216,1.216 1.608,-1.858 0.909,-3.885 -0.402,-5.849 -1.351,-2.022 -6.66,-3.441 -3.021,-6.175 2.214,-1.662 6.5,1 7.406,5.065 0.426,1.913 1.381,3.021 3.385,2.805 1.844,-0.198 2.814,-1.372 3.401,-3.139 C 79.162,32.942 79.763,21.984 71.811,12.033 70.363,10.222 69.88,8.336 69.882,6.139 69.883,4.196 69.674,1.993 67.56,1.368 c -4.752,-1.404 -7.045,-2.539 -0.99,-5.959 2.478,-1.398 -1.622,-14.519 -5.359,-15.592 -4.756,-1.366 -4.551,-4.387 -3.78,-7.624 4.985,-20.912 3.662,-42.171 4.197,-63.376 0.276,-10.924 -0.74,-22.063 2.183,-32.852 1.047,-3.864 -0.871,-7.493 -0.829,-11.22 0.155,-13.859 0.732,-27.713 0.854,-41.572 0.188,-21.248 -0.387,-42.515 0.333,-63.74 0.606,-17.863 -1.084,-35.753 1.142,-53.599 1.075,-8.612 1.404,-17.345 1.6,-26.034 0.347,-15.366 2.984,-30.487 4.331,-45.723 1.357,-15.339 5.868,-29.643 10.308,-44.103 0.67,-2.18 1.967,-4.104 4.292,-4.223 15.737,-0.81 31.421,-2.371 47.24,-1.936 20.894,0.575 41.849,-0.595 62.618,2.853 2.287,0.38 4.79,0.46 6.853,-1.104 4.785,-3.628 8.158,2.394 12.506,1.859 0.129,-0.015 0.738,1.548 0.559,1.697 -4.581,3.816 -2.162,9.9 -4.705,14.322 -1.466,2.551 -1.547,2.504 2.293,3.42 4.158,-6.646 5.238,-14.416 7.582,-21.689 1.436,-4.458 -1.414,-7.156 -6.355,-6.819 -39.947,2.727 -79.952,0.155 -119.918,1.287 -12.432,0.352 -14.778,2.815 -18.603,14.649 -5.924,18.324 -8.406,37.289 -11.313,56.125 -1.97,12.766 -1.652,25.885 -2.34,38.848 -1.691,31.852 -1.79,63.74 -2.003,95.623 -0.187,28.126 0.433,56.269 -0.382,84.374 -0.374,12.91 -2.081,25.8 -2.051,38.795 0.032,13.685 -0.259,27.388 -0.961,41.055 -0.758,14.772 -0.883,29.857 -12.774,41.33 -2.963,2.859 -3.153,8.645 -7.886,9.493 C 26.274,1.712 16.466,4.964 6.081,3.091 3.572,2.638 2.714,-0.393 0,0" style="fill:#494f57;fill-opacity:1;fill-rule:nonzero;stroke:none" transform="matrix(1.3333333,0,0,-1.3333333,2654.2219,3231.9553)" />
      <path id="path159" d="M 0,0 C 0.263,-0.896 0.427,-1.514 0.627,-2.121 0.984,-3.21 1.136,-5.56 2.536,-2.741 3.595,-0.61 1.356,-0.794 0,0 m 14.607,-121.055 c -5.395,0.974 -8.021,3.856 -5.949,9.397 2.141,5.725 -0.343,11.24 -2.645,15.478 -3.018,5.556 -3.904,13.597 -12.1,15.396 -1.198,0.263 -2.107,1.599 -1.352,2.75 0.862,1.314 2.116,2.745 3.513,3.241 1.952,0.694 3.704,-0.653 4.747,-2.303 1.122,-1.776 0.301,-5.796 3.711,-4.76 3.094,0.94 2.248,4.671 2.713,7.42 0.666,3.944 -2.064,6.954 -2.404,10.734 -0.289,3.222 -4.448,2.476 -7.25,1.767 -1.372,-0.347 -2.94,-1.159 -3.893,0.273 -1.15,1.727 0.121,3.235 1.395,4.287 3.522,2.909 3.884,8.705 9.309,9.999 0.707,0.169 1.234,2.462 1.284,3.793 0.345,9.15 -0.531,18.295 0.346,27.477 0.418,4.375 -0.986,6.439 -7.142,5.723 -8.499,-0.989 -16.14,-1.987 -23.013,-7.732 -2.75,-2.299 -5.974,0.989 -7.361,3.686 -1.773,3.45 1.454,3.671 3.709,4.209 0.458,0.109 1.312,0.047 1.35,0.211 1.623,6.987 8.645,4.563 11.984,6.996 6.65,4.849 15.203,7.555 19.966,14.973 0.246,0.383 1.317,0.236 2.005,0.336 -1.425,-12.889 2.764,-25.397 2.145,-38.369 -1.05,-22.021 1.986,-44.048 0.563,-66.191 -0.416,-6.472 3.817,-13.318 3.978,-20.436 0.063,-2.782 1.289,-5.516 0.391,-8.355" style="fill:#494f57;fill-opacity:1;fill-rule:nonzero;stroke:none" transform="matrix(1.3333333,0,0,-1.3333333,2910.5795,3551.0284)" />
      <path id="path167" d="M 0,0 C 1.266,2.932 3.944,3.17 6.546,3.203 16.467,3.328 26.51,3.76 36.198,5.037 46.876,6.445 56.809,3.528 67.045,3.541 c 7.408,0.01 14.95,0.94 22.381,3.019 5.737,1.605 12.326,1.548 18.301,0.656 17.927,-2.676 36.192,-3.441 53.966,-2.83 18.156,0.625 36.274,-3.623 54.376,0.153 4.564,0.952 5.756,2.222 4.852,7.032 -0.923,4.909 0.004,10.116 2.665,14.697 3.143,-6.997 1.051,-14.333 1.06,-21.476 C 224.65,1.536 221.354,0.148 217.777,0.146 196.532,0.13 175.287,-0.051 154.042,-0.142 123.837,-0.272 93.621,-0.894 63.43,-0.303 43.167,0.094 22.948,-1.231 2.707,-0.616 1.799,-0.589 0.902,-0.214 0,0" style="fill:#494f57;fill-opacity:1;fill-rule:nonzero;stroke:none" transform="matrix(1.3333333,0,0,-1.3333333,2156.0845,3792.9704)" />
      <path id="path195" d="m 0,0 c 1.248,-13.896 0.211,-27.851 1.622,-41.792 1.219,-12.042 1.767,-13.576 13.641,-13.59 33.606,-0.038 67.212,-0.079 100.817,0.05 6.076,0.024 12.039,-2.241 18.263,-0.219 3.499,1.137 5.328,1.777 5.512,6.392 0.715,17.97 -1.655,35.866 -0.781,53.81 0.183,3.767 0.446,7.529 0.672,11.294 3.94,-7.254 1.472,-15.125 1.926,-22.67 0.904,-15.048 0.67,-30.161 1.281,-45.232 0.249,-6.167 -3.236,-7.207 -7.983,-7.16 -13.693,0.136 -27.383,0.443 -41.076,0.518 -25.986,0.143 -51.973,0.212 -77.96,0.177 -2.385,-0.004 -4.729,0.491 -7.014,0.424 -7.612,-0.224 -9.837,4.069 -9.887,10.664 -0.102,13.667 -2.113,27.29 -0.959,40.986 C -1.737,-4.111 -2.631,-1.51 0,0" style="fill:#494f57;fill-opacity:1;fill-rule:nonzero;stroke:none" transform="matrix(1.3333333,0,0,-1.3333333,2472.4353,3714.3321)" />
      <path id="path205" d="m 0,0 c 1.434,-0.966 1.23,-2.494 1.145,-3.848 -1.147,-18.163 0.906,-36.277 1.96,-54.315 1.129,-19.326 1.616,-38.772 1.479,-57.954 -0.216,-30.228 0.374,-60.498 -0.682,-90.729 -0.279,-7.991 1.457,-16.021 -0.5,-23.971 -3.896,6.06 -1.853,12.928 -1.939,19.257 -0.406,29.941 0.441,59.9 0.022,89.84 -0.481,34.382 -1.915,68.749 -2.71,103.128 C -1.368,-12.408 -1.839,-6.099 0,0" style="fill:#494f57;fill-opacity:1;fill-rule:nonzero;stroke:none" transform="matrix(1.3333333,0,0,-1.3333333,2467.4675,3343.0573)" />
      <path id="path212" d="M 0,0 C -0.159,-0.366 -0.318,-0.732 -0.478,-1.098 -0.11,-1.258 0.257,-1.417 0.624,-1.576 0.783,-1.209 1.145,-0.764 1.042,-0.5 0.94,-0.237 0.369,-0.158 0,0 M 3.651,-61.101 C 1.5,-53.892 4.1,-46.594 3.24,-39.364 c -0.21,1.763 0.849,4.203 -1.438,5.009 -2.047,0.722 -3.457,-0.848 -4.35,-2.7 -0.94,-1.949 -2.71,-2.575 -3.77,-0.682 -3.683,6.574 -3.914,14.685 -9.764,20.9 6.659,-6.72 11.84,-0.138 15.852,1.996 3.88,2.065 1.605,7.729 -1.726,10.836 -3.773,3.519 -6.457,14.961 -3.163,18.426 2.465,2.593 2.488,5.409 3.143,8.31 C 4.821,19.491 3.91,11.969 4.33,7.068 6.172,-14.39 7.25,-35.974 6.172,-57.563 6.09,-59.207 5.946,-60.961 3.651,-61.101" style="fill:#494f57;fill-opacity:1;fill-rule:nonzero;stroke:none" transform="matrix(1.3333333,0,0,-1.3333333,2906.2796,2809.0459)" />
      <path id="path216" d="m 0,0 c 1.872,7.544 9.095,5.102 13.801,6.827 3.92,1.438 7.768,0.447 10.548,5.706 1.677,3.173 8.064,4.735 12.543,5.268 3.542,0.423 2.312,-3.08 1.299,-5.253 -3.113,-6.683 -2.813,-7.085 4.865,-6.522 1.631,0.12 3.288,-0.014 4.901,0.206 1.494,0.205 1.637,1.509 1.586,2.731 -0.045,1.078 -0.701,1.986 -1.743,1.48 -1.64,-0.797 -3.066,-1.804 -3.478,1.032 -0.53,3.648 1.792,6.377 3.631,8.917 1.414,1.954 2.572,-0.287 3.6,-1.597 2.017,-2.569 3.854,-1.284 4.918,0.853 3.038,6.109 5.587,2.406 7.404,-0.57 2.051,-3.36 4.026,-6.352 8.254,-6.915 C 72.176,8.572 69.858,7.25 66.812,6.739 64.059,6.276 62.787,8.311 62.315,10.324 61.262,14.81 58.256,10.983 56.281,11.928 53.668,13.179 54.158,10.386 53.772,9.027 51.626,1.457 46.097,-1.761 38.935,0.994 35.396,2.357 32.221,3.099 28.842,1.037 25.247,-1.156 21.238,0.102 17.797,0.706 11.677,1.782 5.98,-2.152 0,0" style="fill:#494f57;fill-opacity:1;fill-rule:nonzero;stroke:none" transform="matrix(1.3333333,0,0,-1.3333333,2269.674,2774.2429)" />
      <path id="path225" d="m 0,0 c -7.56,-3.248 -15.73,-2.087 -23.499,-2.392 -16.096,-0.632 -32.198,1.315 -48.409,0.211 -13.042,-0.888 -26.223,0.473 -39.337,0.348 -7.679,-0.074 -15.408,0.703 -23.078,-0.967 -2.597,-0.566 -5.745,-0.931 -7.762,1.944 1.895,2.778 4.821,1.496 7.191,1.519 22.188,0.217 44.379,0.225 66.569,0.288 21.459,0.061 42.919,0.121 64.379,0.16 C -2.552,1.114 -1.079,1.203 0,0" style="fill:#494f57;fill-opacity:1;fill-rule:nonzero;stroke:none" transform="matrix(1.3333333,0,0,-1.3333333,2264.0529,2626.1519)" />
      <path id="path226" d="m 0,0 c 3.022,-20.465 1.857,-41.073 2.074,-61.632 0.121,-11.536 0.134,-23.074 0.207,-34.61 0.013,-2.195 0.208,-4.658 2.742,-5.147 6.059,-1.168 2.902,-6.403 1.893,-7.253 -7.106,-5.988 -6.003,-13.863 -6.01,-21.584 -0.002,-1.631 0.119,-3.366 -1.67,-4.335 -0.844,6.045 -1.555,12.168 0.144,18.105 3.206,11.214 -0.763,22.247 -0.459,33.415 0.638,23.406 0.286,46.839 0.279,70.26 C -0.802,-8.495 -3.761,-4.047 0,0" style="fill:#494f57;fill-opacity:1;fill-rule:nonzero;stroke:none" transform="matrix(1.3333333,0,0,-1.3333333,2077.2331,3400.538)" />
      <path id="path247" d="m 0,0 c -1.514,1.23 -1.137,2.969 -1.258,4.588 -1.328,17.836 -0.019,35.663 0.195,53.492 0.151,12.524 -2.79,24.774 -3.133,37.302 -0.118,4.311 0.467,5.967 4.009,7.17 C -2.508,89.809 1.463,77.337 1.43,64.678 1.379,44.895 0.179,25.112 1.4,5.324 1.51,3.54 1.481,1.503 0,0" style="fill:#494f57;fill-opacity:1;fill-rule:nonzero;stroke:none" transform="matrix(1.3333333,0,0,-1.3333333,2653.9147,3369.3093)" />
      <path id="path250" d="M 0,0 C 2.021,-1.002 2.462,-2.935 2.315,-4.817 1.322,-17.552 3.307,-30.221 3.344,-42.96 3.393,-59.672 2.763,-76.528 4.565,-93.227 4.963,-96.913 4.821,-100.193 3.194,-103.448 0.958,-97.179 1.77,-90.549 1.516,-84.163 0.547,-59.766 0.213,-35.338 0.041,-10.92 0.016,-7.299 -2.501,-3.613 0,0" style="fill:#494f57;fill-opacity:1;fill-rule:nonzero;stroke:none" transform="matrix(1.3333333,0,0,-1.3333333,2063.6979,2723.0048)" />
      <path id="path259" d="m 0,0 c -3.025,1.877 -0.885,3.955 0.218,5.32 9.949,12.316 11.539,27.325 13.64,42.11 1.049,7.386 3.705,14.587 2.629,22.276 -0.271,1.942 -0.123,4.53 3.12,4.464 C 21.379,60.996 18.585,48.163 16.781,35.242 15.427,25.537 10.703,17.083 7.15,8.198 5.766,4.735 3.855,1.444 0,0" style="fill:#494f57;fill-opacity:1;fill-rule:nonzero;stroke:none" transform="matrix(1.3333333,0,0,-1.3333333,2886.4056,3083.3875)" />
      <path id="path262" d="m 0,0 c 1.04,3.313 3.206,4.863 6.724,4.301 1.301,-0.315 2.603,-0.63 3.905,-0.945 1.383,-5.635 6.75,-3.549 10.198,-5.145 1.593,-0.738 3.652,-0.395 5.407,-0.879 1.675,-0.462 3.9,-0.613 3.929,-3.158 0.031,-2.691 -2.535,-2.19 -3.973,-3.077 0,0 -0.03,0.037 -0.03,0.037 -0.214,1.457 -0.688,1.282 -1.305,0.208 -2.275,0.413 -4.55,0.825 -6.826,1.238 -1.356,0.252 -2.525,0.087 -3.11,-1.389 -0.945,-0.037 -1.891,-0.074 -2.837,-0.111 -0.074,1.052 -0.036,2.423 -1.554,2.141 C 9.139,-7.038 9.438,-8.339 9.643,-9.392 9.492,-9.765 9.243,-9.851 8.894,-9.651 5.079,-8.728 1.935,-6.891 0.146,-3.214 0.098,-2.143 0.049,-1.071 0,0" style="fill:#08282e;fill-opacity:1;fill-rule:nonzero;stroke:none" transform="matrix(1.3333333,0,0,-1.3333333,2071.5148,3052.5799)" />
      <path id="path264" d="m 0,0 c -5.731,0.184 -8.71,2.293 -5.911,8.447 0.576,1.266 1.681,2.971 0.057,3.76 -4.509,2.191 -2.009,6.408 -1.038,7.861 3.821,5.71 0.597,10.71 0.043,16.14 -0.716,7.016 -3.575,14.112 -0.621,21.268 2.885,-1.673 3.047,-4.966 3.182,-7.423 C -3.666,38.735 -0.477,27.848 0.8,16.651 1.446,10.998 -0.139,5.564 0,0" style="fill:#494f57;fill-opacity:1;fill-rule:nonzero;stroke:none" transform="matrix(1.3333333,0,0,-1.3333333,2916.6025,3344.642)" />
      <path id="path276" d="m 0,0 c -0.255,-12.766 -0.252,-12.875 13.812,-12.59 8.702,0.177 17.459,0.206 25.884,2.957 0.407,-4.832 -2.001,-6.752 -6.648,-6.807 -9.684,-0.115 -19.366,-0.491 -29.05,-0.579 -3.342,-0.03 -8.185,-1.352 -8.783,3.431 C -5.393,-8.729 -7.747,-2.3 0,0" style="fill:#494f57;fill-opacity:1;fill-rule:nonzero;stroke:none" transform="matrix(1.3333333,0,0,-1.3333333,2381.7109,2751.6652)" />
      <path id="path278" d="m 0,0 c -3.692,-3.139 -4.771,-7.122 -4.28,-11.866 1.761,-17.01 -1.957,-34.158 1.237,-51.167 0.38,-2.024 0.985,-4.898 -2.163,-6.008 -1.511,11.478 -2.355,22.908 -1.377,34.565 0.742,8.851 -0.578,17.855 -0.413,26.781 C -6.922,-3.686 -6.642,1.388 0,0" style="fill:#494f57;fill-opacity:1;fill-rule:nonzero;stroke:none" transform="matrix(1.3333333,0,0,-1.3333333,2070.8316,2627.2076)" />
      <path id="path279" d="M 0,0 C 2.469,-1.363 2.672,-4.079 2.69,-6.179 2.884,-28.529 3.883,-50.886 2.442,-73.23 -1.41,-66.907 0.938,-59.962 0.719,-53.349 0.131,-35.577 0.195,-17.784 0,0" style="fill:#494f57;fill-opacity:1;fill-rule:nonzero;stroke:none" transform="matrix(1.3333333,0,0,-1.3333333,2072.3923,3189.288)" />
      <path id="path282" d="M 0,0 C 2.475,-0.596 2.42,-2.622 2.42,-4.493 2.426,-25.72 2.417,-46.948 2.318,-68.175 c -0.005,-1.027 -0.873,-2.049 -1.34,-3.074 -1.987,2.11 -1.669,4.846 -1.68,7.33 -0.094,20.413 -0.059,40.828 -0.015,61.242 C -0.715,-1.784 -0.25,-0.892 0,0" style="fill:#494f57;fill-opacity:1;fill-rule:nonzero;stroke:none" transform="matrix(1.3333333,0,0,-1.3333333,2463.742,2963.4821)" />
      <path id="path286" d="M 0,0 C 1.789,-3.677 4.932,-5.514 8.747,-6.437 8.513,-7.28 8.281,-8.123 8.048,-8.966 -1.723,-14.745 2.804,-24.368 1.944,-32.43 1.087,-40.465 3.841,-48.74 0.545,-56.671 -1.419,-41.723 -2.225,-26.646 0.301,-11.818 1.037,-7.501 -2.64,-3.9 0,0" style="fill:#494f57;fill-opacity:1;fill-rule:nonzero;stroke:none" transform="matrix(1.3333333,0,0,-1.3333333,2071.71,3056.8651)" />
      <path id="path295" d="m 0,0 c -3.926,3.523 -4.069,8.256 -3.309,12.78 1.93,11.482 0.95,22.975 0.667,34.46 -0.109,4.43 -0.482,8.757 1.944,12.737 C 2.039,53.443 0.038,46.596 0.448,39.913 1.262,26.633 0.919,13.297 0,0" style="fill:#494f57;fill-opacity:1;fill-rule:nonzero;stroke:none" transform="matrix(1.3333333,0,0,-1.3333333,2251.8959,2982.8449)" />
      <path id="path305" d="m 0,0 c -3.864,6.97 -2.05,14.823 -1.948,21.92 0.143,9.883 -1.606,19.598 -1.156,29.416 0.084,1.837 -0.446,3.788 0.997,5.373 C 1.009,49.664 0.029,41.95 0.183,34.754 0.431,23.214 3.318,11.536 0,0" style="fill:#494f57;fill-opacity:1;fill-rule:nonzero;stroke:none" transform="matrix(1.3333333,0,0,-1.3333333,2658.3975,3669.0449)" />
      <path id="path307" d="m 0,0 c -1.646,1.883 -2.172,4.169 -2.183,6.566 -0.077,16.506 -0.137,33.011 -0.119,49.517 10e-4,1.082 0.693,2.163 1.063,3.244 C 2.401,52.282 0.004,44.67 0.512,37.368 1.321,25.735 -0.013,13.991 1.13,2.306 1.201,1.581 0.397,0.77 0,0" style="fill:#494f57;fill-opacity:1;fill-rule:nonzero;stroke:none" transform="matrix(1.3333333,0,0,-1.3333333,2655.3416,3452.5776)" />
      <path id="path312" d="m 0,0 c 3.217,-2.287 2.609,-8.744 8.659,-7.943 0.111,-4.672 2.669,-9.589 0.746,-13.869 -1.835,-4.08 -5.153,1.528 -7.943,0.289 C 0.087,-14.409 -1.405,-7.303 0,0" style="fill:#494f57;fill-opacity:1;fill-rule:nonzero;stroke:none" transform="matrix(1.3333333,0,0,-1.3333333,2465.4807,3189.2184)" />
      <path id="path315" d="M 0,0 C 0.192,3.092 2.515,3.011 4.641,2.993 17.598,2.888 30.554,2.623 43.51,2.632 49.989,2.636 56.557,3.799 62.54,0.162 53.523,-2.433 44.295,-0.766 35.231,-0.667 23.497,-0.54 11.704,-1.828 0,0" style="fill:#494f57;fill-opacity:1;fill-rule:nonzero;stroke:none" transform="matrix(1.3333333,0,0,-1.3333333,2273.5492,3225.6548)" />
      <path id="path316" d="m 0,0 c -2.285,-2.901 -4.456,-1.646 -5.255,0.87 -0.996,3.138 1.159,5.718 4.099,6.143 7.099,1.026 13.976,1.991 17.561,9.436 0.244,0.507 1.52,1.116 1.651,0.99 4.151,-4.009 7.749,1.2 11.631,0.629 1.356,-0.2 2.663,-0.739 3.992,-1.125 C 24.616,10.42 13.658,8.34 3.607,4.135 1.678,3.328 -1.584,3.819 0,0" style="fill:#494f57;fill-opacity:1;fill-rule:nonzero;stroke:none" transform="matrix(1.3333333,0,0,-1.3333333,2776.0915,3162.324)" />
      <path id="path319" d="m 0,0 c -4.477,-0.595 -6.422,-3.577 -6.59,-7.669 -0.139,-3.362 -0.938,-6.412 -2.53,-9.315 -1.821,1.049 -1.731,2.875 -1.255,4.367 3.316,10.38 1.402,20.665 -0.245,30.985 -0.127,0.794 0.466,1.703 0.725,2.559 0.537,-0.704 1.47,-1.368 1.55,-2.121 C -7.604,11.762 -6.887,4.782 1.944,3.042 1.295,2.028 0.647,1.014 0,0" style="fill:#494f57;fill-opacity:1;fill-rule:nonzero;stroke:none" transform="matrix(1.3333333,0,0,-1.3333333,2089.2487,3611.5367)" />
      <path id="path321" d="m 0,0 c 0.637,-14.829 1.282,-29.658 1.898,-44.489 0.067,-1.639 0.179,-3.37 -1.654,-4.316 -2.939,9.097 -1.292,18.55 -1.842,27.814 -0.273,4.612 -0.818,9.334 -0.491,14 C -1.919,-4.561 -2.703,-1.72 0,0" style="fill:#494f57;fill-opacity:1;fill-rule:nonzero;stroke:none" transform="matrix(1.3333333,0,0,-1.3333333,2075.72,3289.2891)" />
      <path id="path328" d="m 0,0 c -1.375,-0.168 -3.458,-0.465 -3.414,1.205 0.12,4.482 1.04,9.021 -4.614,10.981 2.565,4.282 0.548,8.515 0.291,12.852 -0.125,2.118 4.195,2.163 6.411,3.33 C 0.219,18.964 0.582,9.504 0,0" style="fill:#494f57;fill-opacity:1;fill-rule:nonzero;stroke:none" transform="matrix(1.3333333,0,0,-1.3333333,2918.7028,3386.2788)" />
      <path id="path336" d="m 0,0 c -6,-3.009 -10.196,2.198 -15.07,3.698 -6.958,2.139 -13.974,3.804 -21.082,5.117 -2.816,0.519 -5.225,0.702 -4.711,4.425 C -28.347,12.551 -16.809,7.913 -5.048,4.233 -2.989,3.588 -0.359,2.97 0,0" style="fill:#494f57;fill-opacity:1;fill-rule:nonzero;stroke:none" transform="matrix(1.3333333,0,0,-1.3333333,2796.306,2649.4549)" />
      <path id="path341" d="m 0,0 c 2.875,-6.285 0.559,-12.888 1.177,-19.313 0.56,-5.83 -0.877,-11.762 1.188,-17.55 0.854,-2.391 0.145,-4.712 -2.689,-5.695 C -2.11,-28.358 -2.149,-14.17 0,0" style="fill:#494f57;fill-opacity:1;fill-rule:nonzero;stroke:none" transform="matrix(1.3333333,0,0,-1.3333333,2467.3364,3274.7547)" />
      <path id="path346" d="m 0,0 c -10.355,2.561 -20.926,-0.162 -31.33,1.279 -2.456,0.34 -5.22,-0.911 -7.272,1.453 4.671,3.348 9.907,0.866 14.855,1.323 5.575,0.515 11.23,0.097 16.846,0.246 C -3.556,4.389 -0.867,3.739 0,0" style="fill:#494f57;fill-opacity:1;fill-rule:nonzero;stroke:none" transform="matrix(1.3333333,0,0,-1.3333333,2431.104,2629.8233)" />
      <path id="path358" d="m 0,0 c 0.242,-3.171 -2.598,-3.694 -4.281,-3.567 -9.284,0.698 -18.694,-0.477 -27.864,1.736 -1.106,0.267 -2.087,1.056 -3.127,1.607 4.364,3.575 9.306,0.503 13.963,0.969 C -14.301,1.447 -7.112,0.339 0,0" style="fill:#494f57;fill-opacity:1;fill-rule:nonzero;stroke:none" transform="matrix(1.3333333,0,0,-1.3333333,2703.8444,2627.8125)" />
      <path id="path359" d="m 0,0 c -2.428,-1.617 -7.868,-0.117 -6.119,-6.099 0.384,-1.314 -0.967,-1.94 -2.264,-1.919 -2.157,0.034 -4.456,1.684 -3.755,3.164 2.81,5.929 -2.164,8.766 -4.301,12.732 C -10.032,7.186 -4.221,5.251 0,0" style="fill:#494f57;fill-opacity:1;fill-rule:nonzero;stroke:none" transform="matrix(1.3333333,0,0,-1.3333333,2819.1163,2660.6388)" />
      <path id="path360" d="m 0,0 c -12.456,-4.56 -25.422,-1.338 -38.104,-2.468 -1.554,-0.138 -2.65,0.749 -2.763,2.477 5.408,3.354 11.712,1.43 17.015,1.113 C -15.93,0.649 -7.734,3.471 0,0" style="fill:#494f57;fill-opacity:1;fill-rule:nonzero;stroke:none" transform="matrix(1.3333333,0,0,-1.3333333,2642.5508,2628.4932)" />
      <path id="path362" d="m 0,0 c -0.615,-1.42 -1.843,-2.561 -3.211,-2.397 -9.341,1.12 -18.956,-1.459 -28.108,2.07 C -20.9,1.811 -10.466,2.393 0,0" style="fill:#494f57;fill-opacity:1;fill-rule:nonzero;stroke:none" transform="matrix(1.3333333,0,0,-1.3333333,2353.1452,2626.2739)" />
      <path id="path365" d="m 0,0 c -6.021,7.516 -3.185,19.882 5.234,23.128 3.626,1.399 6.403,1.019 7.93,-2.963 C 12.513,19.914 11.876,19.502 11.206,19.437 0.293,18.376 0.287,18.385 0.958,7.568 1.119,4.98 1.643,2.356 0,0" style="fill:#494f57;fill-opacity:1;fill-rule:nonzero;stroke:none" transform="matrix(1.3333333,0,0,-1.3333333,2248.5108,2800.7332)" />
      <path id="path378" d="m 0,0 c -4.693,0.716 -3.343,4.451 -3.214,7.13 0.31,6.404 1.072,12.786 1.651,19.177 1.366,0.132 2.435,-0.554 2.43,-1.815 C 0.837,16.321 2.754,8.072 0,0" style="fill:#494f57;fill-opacity:1;fill-rule:nonzero;stroke:none" transform="matrix(1.3333333,0,0,-1.3333333,2913.21,2927.7333)" />
      <path id="path386" d="m 0,0 c 2.434,-0.799 2.023,-2.853 2.069,-4.702 0.178,-7.033 -1.098,-14.15 1.392,-21.057 0.409,-1.135 -0.409,-2.254 -1.606,-2.83 -3.706,3.063 -2.516,7.34 -2.722,11.237 C -1.175,-11.545 -1.328,-5.732 0,0" style="fill:#494f57;fill-opacity:1;fill-rule:nonzero;stroke:none" transform="matrix(1.3333333,0,0,-1.3333333,2077.4255,3636.6577)" />
      <path id="path388" d="M 0,0 C 3.386,-10.174 1.598,-20.479 0.78,-30.76 -2,-20.571 -0.799,-10.28 0,0" style="fill:#494f57;fill-opacity:1;fill-rule:nonzero;stroke:none" transform="matrix(1.3333333,0,0,-1.3333333,2076.194,3358.0121)" />
      <path id="path391" d="M 0,0 C -1.527,9.598 -1.204,19.212 -0.243,28.832 2.022,19.24 2.903,9.636 0,0" style="fill:#494f57;fill-opacity:1;fill-rule:nonzero;stroke:none" transform="matrix(1.3333333,0,0,-1.3333333,2655.4425,3589.1083)" />
      <path id="path397" d="M 0,0 C 2.506,-9.475 2.313,-18.941 -0.089,-28.401 -1.784,-18.928 -1.975,-9.461 0,0" style="fill:#494f57;fill-opacity:1;fill-rule:nonzero;stroke:none" transform="matrix(1.3333333,0,0,-1.3333333,2465.1325,3092.6371)" />
      <path id="path404" d="M 0,0 C 2.894,-8.444 1.975,-16.945 0.387,-25.456 -1.737,-17.001 -1.908,-8.516 0,0" style="fill:#494f57;fill-opacity:1;fill-rule:nonzero;stroke:none" transform="matrix(1.3333333,0,0,-1.3333333,2466.9543,3236.7256)" />
      <path id="path405" d="M 0,0 C 4.019,7.811 9.54,14.238 17.214,18.682 13.813,10.301 8.341,3.829 0,0" style="fill:#494f57;fill-opacity:1;fill-rule:nonzero;stroke:none" transform="matrix(1.3333333,0,0,-1.3333333,2859.584,3113.8991)" />
      <path id="path410" d="m 0,0 c 0.117,-1.03 -0.303,-2.242 -1.201,-2.187 -6.5,0.398 -12.905,1.359 -18.88,4.183 2.891,3.677 6.458,3.028 10.175,1.627 C -6.616,2.383 -3.303,1.205 0,0" style="fill:#494f57;fill-opacity:1;fill-rule:nonzero;stroke:none" transform="matrix(1.3333333,0,0,-1.3333333,2544.6732,2631.9295)" />
      <path id="path411" d="M 0,0 C -1.748,7.682 -7.291,15.378 0.086,23.026 0.321,15.349 2.594,7.666 0,0" style="fill:#494f57;fill-opacity:1;fill-rule:nonzero;stroke:none" transform="matrix(1.3333333,0,0,-1.3333333,2920.7351,3530.7877)" />
      <path id="path420" d="M 0,0 C 8.329,4.174 17.393,3.082 26.225,3.661 26.31,1.764 25.448,0.09 23.615,0.106 15.742,0.173 7.875,-3.021 0,0" style="fill:#494f57;fill-opacity:1;fill-rule:nonzero;stroke:none" transform="matrix(1.3333333,0,0,-1.3333333,2381.5061,3224.9491)" />
      <path id="path421" d="m 0,0 c 0.053,4.488 1.455,7.618 6.73,7.821 3.571,0.137 4.528,6.624 9.406,4.193 C 12.32,5.91 7.105,1.685 0,0" style="fill:#494f57;fill-opacity:1;fill-rule:nonzero;stroke:none" transform="matrix(1.3333333,0,0,-1.3333333,2831.2181,3134.8896)" />
      <path id="path427" d="M 0,0 C 1.767,5.424 9.376,7.737 12.951,3.936 13.835,2.995 13.979,1.845 13.592,0.708 12.766,-1.72 11.061,-2.428 8.671,-1.549 8.272,-0.461 9.526,1.783 6.65,1.116 4.465,0.608 2.219,0.362 0,0" style="fill:#494f57;fill-opacity:1;fill-rule:nonzero;stroke:none" transform="matrix(1.3333333,0,0,-1.3333333,2372.4475,2746.3353)" />
      <path id="path429" d="m 0,0 c -4.71,4.996 -4.829,11.747 -6.615,17.826 -0.397,1.351 1.47,2.079 3.036,1.854 C -1.735,13.239 1.286,7.011 0,0" style="fill:#494f57;fill-opacity:1;fill-rule:nonzero;stroke:none" transform="matrix(1.3333333,0,0,-1.3333333,2937.1439,3752.5013)" />
      <path id="path433" d="M 0,0 C 6.638,-5.901 1.403,-12.369 0.888,-18.611 -2.076,-12.535 -1.193,-6.275 0,0" style="fill:#494f57;fill-opacity:1;fill-rule:nonzero;stroke:none" transform="matrix(1.3333333,0,0,-1.3333333,2067.9445,2872.3895)" />
      <path id="path435" d="M 0,0 C -0.893,0.145 -2.354,0.005 -2.592,0.48 -5.466,6.188 -11.039,10.514 -11.404,17.503 -5.704,12.906 -1.269,7.484 0,0" style="fill:#494f57;fill-opacity:1;fill-rule:nonzero;stroke:none" transform="matrix(1.3333333,0,0,-1.3333333,2899.832,3249.6428)" />
      <path id="path445" d="M 0,0 C -5.117,5.943 -3.248,12.29 -1.08,18.656 2.336,12.614 0.411,6.263 0,0" style="fill:#494f57;fill-opacity:1;fill-rule:nonzero;stroke:none" transform="matrix(1.3333333,0,0,-1.3333333,2432.7715,2694.4512)" />
      <path id="path477" d="M 0,0 C -5.268,-3.052 -10.579,-2.863 -15.922,-0.207 -10.652,2.731 -5.334,1.988 0,0" style="fill:#494f57;fill-opacity:1;fill-rule:nonzero;stroke:none" transform="matrix(1.3333333,0,0,-1.3333333,2360.8939,3095.7463)" />
      <path id="path485" d="M 0,0 C -2.061,-1.249 -4.655,-1.898 -4.712,1.236 -4.754,3.557 -8.971,7.26 -3.35,8.635 -0.891,6.277 -0.338,3.18 0,0" style="fill:#494f57;fill-opacity:1;fill-rule:nonzero;stroke:none" transform="matrix(1.3333333,0,0,-1.3333333,2906.1165,3267.0919)" />
      <path id="path486" d="M 0,0 C 5.003,-4.285 1.346,-8.549 -0.031,-12.819 -1.248,-8.543 -1.263,-4.27 0,0" style="fill:#494f57;fill-opacity:1;fill-rule:nonzero;stroke:none" transform="matrix(1.3333333,0,0,-1.3333333,2072.4507,3145.6821)" />
      <path id="path487" d="M 0,0 C 0.96,-5.096 1.191,-10.193 0.004,-15.291 -2.63,-10.195 -3.083,-5.098 0,0" style="fill:#494f57;fill-opacity:1;fill-rule:nonzero;stroke:none" transform="matrix(1.3333333,0,0,-1.3333333,2472.0935,3660.7072)" />
      <path id="path493" d="M 0,0 C -4.603,4.291 -4.183,8.1 1.264,11.462 2.935,7.411 0.219,3.843 0,0" style="fill:#494f57;fill-opacity:1;fill-rule:nonzero;stroke:none" transform="matrix(1.3333333,0,0,-1.3333333,2415.7345,3202.5919)" />
      <path id="path498" d="M 0,0 C 4.063,4.92 9.256,5.063 11.441,0.315 7.667,-1.205 3.842,-0.925 0,0" style="fill:#494f57;fill-opacity:1;fill-rule:nonzero;stroke:none" transform="matrix(1.3333333,0,0,-1.3333333,2360.7404,3225.5603)" />
      <path id="path503" d="M 0,0 C -4.99,4.031 -3.536,8.449 -0.777,12.946 1.327,8.741 1.415,4.416 0,0" style="fill:#494f57;fill-opacity:1;fill-rule:nonzero;stroke:none" transform="matrix(1.3333333,0,0,-1.3333333,2920.0853,3418.7484)" />
      <path id="path508" d="M 0,0 C -5.573,4.35 -3.482,8.608 0.156,12.846 1.775,8.544 0.519,4.277 0,0" style="fill:#494f57;fill-opacity:1;fill-rule:nonzero;stroke:none" transform="matrix(1.3333333,0,0,-1.3333333,2920.4239,3466.0433)" />
      <path id="path510" d="M 0,0 C -2.957,-3.796 -7.816,-3.054 -11.385,1.739 -6.806,6.291 -4.061,-1.16 0,0" style="fill:#494f57;fill-opacity:1;fill-rule:nonzero;stroke:none" transform="matrix(1.3333333,0,0,-1.3333333,2512.2652,2631.6055)" />
      <path id="path519" d="M 0,0 C -5.88,3.344 -1.312,6.691 -0.003,10.038 2.738,6.693 2.637,3.347 0,0" style="fill:#494f57;fill-opacity:1;fill-rule:nonzero;stroke:none" transform="matrix(1.3333333,0,0,-1.3333333,2432.8637,2719.1024)" />
      <path id="path535" d="M 0,0 C -1.711,3.893 -1.285,7.835 -0.264,11.79 1.767,7.904 2.389,3.985 0,0" style="fill:#494f57;fill-opacity:1;fill-rule:nonzero;stroke:none" transform="matrix(1.3333333,0,0,-1.3333333,2655.4825,3543.6185)" />
      <path id="path541" d="M 0,0 C -2.404,3.386 -2.847,6.741 0.159,10.041 2.895,6.65 1.052,3.331 0,0" style="fill:#494f57;fill-opacity:1;fill-rule:nonzero;stroke:none" transform="matrix(1.3333333,0,0,-1.3333333,2658.4195,3689.9011)" />
      <path id="path544" d="M 0,0 C -2.885,3.898 -2.64,7.796 0.002,11.694 2.345,7.796 2.203,3.898 0,0" style="fill:#494f57;fill-opacity:1;fill-rule:nonzero;stroke:none" transform="matrix(1.3333333,0,0,-1.3333333,2433.3089,2743.9504)" />
      <path id="path546" d="M 0,0 C -1.998,2.599 0.381,5.202 -0.009,7.802 2.861,9.313 4.686,7.925 5.068,5.267 5.571,1.776 3.04,0.471 0,0" style="fill:#494f57;fill-opacity:1;fill-rule:nonzero;stroke:none" transform="matrix(1.3333333,0,0,-1.3333333,2445.7833,3659.3068)" />
      <path id="path547" d="M 0,0 C -2.594,2.791 -5.699,5.563 -0.304,8.635 1.541,5.818 1.938,2.95 0,0" style="fill:#494f57;fill-opacity:1;fill-rule:nonzero;stroke:none" transform="matrix(1.3333333,0,0,-1.3333333,2249.3773,2819.6991)" />
      <path id="path550" d="M 0,0 C -2.667,4.193 -2.482,8.982 0.442,11.431 2.302,7.543 2.074,3.736 0,0" style="fill:#494f57;fill-opacity:1;fill-rule:nonzero;stroke:none" transform="matrix(1.3333333,0,0,-1.3333333,2432.4404,2658.5249)" />
      <path id="path555" d="M 0,0 C -3.792,3.416 -4.002,6.808 0.068,10.172 1.247,6.774 1.215,3.383 0,0" style="fill:#494f57;fill-opacity:1;fill-rule:nonzero;stroke:none" transform="matrix(1.3333333,0,0,-1.3333333,2250.3429,2869.0201)" />
      <path id="path560" d="M 0,0 C -1.161,3.749 -1.249,7.494 0.038,11.235 2.2,7.483 2.431,3.737 0,0" style="fill:#494f57;fill-opacity:1;fill-rule:nonzero;stroke:none" transform="matrix(1.3333333,0,0,-1.3333333,2655.1497,3499.2256)" />
      <path id="path563" d="M 0,0 C 3.017,-3.375 2.958,-6.776 0.086,-10.201 -1.877,-6.817 -1.562,-3.414 0,0" style="fill:#494f57;fill-opacity:1;fill-rule:nonzero;stroke:none" transform="matrix(1.3333333,0,0,-1.3333333,2460.3115,2701.8443)" />
      <path id="path567" d="M 0,0 C -0.991,3.276 -4.648,6.489 -0.235,9.893 0.19,6.604 2.512,3.359 0,0" style="fill:#494f57;fill-opacity:1;fill-rule:nonzero;stroke:none" transform="matrix(1.3333333,0,0,-1.3333333,2655.484,3518.9863)" />
      <path id="path571" d="M 0,0 C 2.57,-3.311 2.545,-6.619 -0.011,-9.923 -0.877,-6.614 -1.64,-3.306 0,0" style="fill:#494f57;fill-opacity:1;fill-rule:nonzero;stroke:none" transform="matrix(1.3333333,0,0,-1.3333333,2072.4543,3166.5693)" />
      <path id="path574" d="m 0,0 c -0.638,-2.35 -2.036,-2.365 -3.655,-1.061 -1.095,0.882 -2.396,2.098 -1.36,3.554 1.33,1.872 3.314,2.593 5.613,1.506 C 1.579,2.488 0.171,1.337 0,0" style="fill:#494f57;fill-opacity:1;fill-rule:nonzero;stroke:none" transform="matrix(1.3333333,0,0,-1.3333333,2444.5316,3665.7213)" />
      <path id="path576" d="M 0,0 C -3.431,-4.145 -6.831,-4.105 -10.203,0.073 -6.796,0.888 -3.393,1.2 0,0" style="fill:#494f57;fill-opacity:1;fill-rule:nonzero;stroke:none" transform="matrix(1.3333333,0,0,-1.3333333,2283.1239,2626.6289)" />
      <path id="path579" d="M 0,0 C -2.612,3.287 -1.625,7.034 -1.367,10.688 3.548,7.696 1.336,3.792 0,0" style="fill:#494f57;fill-opacity:1;fill-rule:nonzero;stroke:none" transform="matrix(1.3333333,0,0,-1.3333333,2912.9232,2971.4085)" />
      <path id="path582" d="M 0,0 C 2.244,-3.125 3.325,-6.422 1.496,-10.148 -1.723,-7.166 -2.059,-3.76 0,0" style="fill:#494f57;fill-opacity:1;fill-rule:nonzero;stroke:none" transform="matrix(1.3333333,0,0,-1.3333333,2462.4604,2826.9917)" />
      <path id="path583" d="M 0,0 C -0.273,-2.422 0.027,-6.126 -3.156,-5.706 -5.628,-5.38 -4.265,-1.796 -4.32,0.391 -2.805,1.09 -1.366,0.949 0,0" style="fill:#494f57;fill-opacity:1;fill-rule:nonzero;stroke:none" transform="matrix(1.3333333,0,0,-1.3333333,2650.9505,2630.192)" />
      <path id="path587" d="M 0,0 C -0.781,2.639 -3.629,5.267 -0.042,7.93 2.324,5.299 1.964,2.654 0,0" style="fill:#494f57;fill-opacity:1;fill-rule:nonzero;stroke:none" transform="matrix(1.3333333,0,0,-1.3333333,2655.2117,3474.5653)" />
      <path id="path589" d="M 0,0 C -2.79,3.506 1.02,4.29 2.62,5.262 4.342,6.309 5.445,4.779 5.451,2.826 3.635,1.884 1.818,0.942 0,0" style="fill:#494f57;fill-opacity:1;fill-rule:nonzero;stroke:none" transform="matrix(1.3333333,0,0,-1.3333333,2256.7348,3229.3427)" />
      <path id="path594" d="M 0,0 C 1.097,-3.101 1.036,-6.218 0.133,-9.348 -2.369,-6.267 -2.53,-3.153 0,0" style="fill:#494f57;fill-opacity:1;fill-rule:nonzero;stroke:none" transform="matrix(1.3333333,0,0,-1.3333333,2472.1075,3683.5315)" />
      <path id="path595" d="M 0,0 C -2.892,2.9 -2.76,5.829 -0.083,8.781 2.343,5.877 1.611,2.943 0,0" style="fill:#494f57;fill-opacity:1;fill-rule:nonzero;stroke:none" transform="matrix(1.3333333,0,0,-1.3333333,2920.7279,3445.4467)" />
      <path id="path604" d="M 0,0 C -3.356,-2.128 -6.701,-5.206 -10.132,-0.104 -6.763,0.749 -3.396,1.737 0,0" style="fill:#494f57;fill-opacity:1;fill-rule:nonzero;stroke:none" transform="matrix(1.3333333,0,0,-1.3333333,2307.6563,2626.4979)" />
      <path id="path621" d="M 0,0 C -3.259,-3.622 -6.033,-1.413 -8.812,0.734 -5.625,3.491 -2.862,1.156 0,0" style="fill:#494f57;fill-opacity:1;fill-rule:nonzero;stroke:none" transform="matrix(1.3333333,0,0,-1.3333333,2377.9159,3096.8107)" />
      <path id="path639" d="M 0,0 C -4.411,2.335 -3.658,4.802 -0.189,7.34 0.921,4.921 0.837,2.47 0,0" style="fill:#494f57;fill-opacity:1;fill-rule:nonzero;stroke:none" transform="matrix(1.3333333,0,0,-1.3333333,2259.9183,3386.6225)" />
      <path id="path647" d="M 0,0 C 3.388,-2.345 2.893,-4.834 0.273,-7.402 -2.115,-5.019 -1.189,-2.514 0,0" style="fill:#494f57;fill-opacity:1;fill-rule:nonzero;stroke:none" transform="matrix(1.3333333,0,0,-1.3333333,2462.0081,2809.8639)" />
      <path id="path648" d="M 0,0 C -4.24,1.876 -4.729,3.786 -0.051,5.743 0.618,3.835 2.552,1.937 0,0" style="fill:#494f57;fill-opacity:1;fill-rule:nonzero;stroke:none" transform="matrix(1.3333333,0,0,-1.3333333,2920.4873,3477.6795)" />
      <path id="path661" d="M 0,0 C -1.806,-3.952 -4.991,-2.273 -7.852,-1.922 -6.123,2.349 -3.238,1.895 0,0" style="fill:#494f57;fill-opacity:1;fill-rule:nonzero;stroke:none" transform="matrix(1.3333333,0,0,-1.3333333,2556.1135,2628.6676)" />
      <path id="path672" d="M 0,0 C -1.767,2.434 -1.836,4.821 0.196,7.151 3.506,4.675 1.251,2.351 0,0" style="fill:#494f57;fill-opacity:1;fill-rule:nonzero;stroke:none" transform="matrix(1.3333333,0,0,-1.3333333,2252.1189,3007.3233)" />
      <path id="path870" d="m 0,0 c -0.094,-0.557 -0.114,-2.755 -0.85,-4.68 -2.365,-6.186 -0.812,-12.832 4.558,-16.546 1.854,-1.282 4.018,-2.087 2.922,-4.733 -0.964,-2.33 -3.38,-2.631 -5.494,-2.287 -3.48,0.566 -6.862,1.713 -10.336,2.332 -5.469,0.975 -8.002,-1.703 -6.928,-7.142 0.364,-1.849 0.796,-3.695 1.348,-5.496 1.082,-3.523 0.348,-5.651 -3.535,-7.034 -3.726,-1.328 -7.49,-2.992 -3.62,-8.611 2.106,-3.059 -0.783,-7.615 0.91,-11.672 2.689,-6.446 5.669,-7.868 11.566,-4.064 1.999,1.29 3.73,2.104 5.718,0.34 1.053,-0.934 2.308,-2.024 1.573,-3.6 -0.988,-2.117 -3.27,-3.484 -5.173,-3.088 -3.343,0.695 -5.515,-0.899 -8.333,-1.911 -4.317,-1.55 -9.032,0.024 -11.562,4.418 -2.877,4.994 -3.722,11.071 -5.466,16.321 -1.522,4.582 -1.02,12.25 0.519,18.387 0.406,1.62 1.022,3.139 0.444,4.827 -1.339,3.912 0.977,4.507 4.031,4.411 4.482,-0.14 6.741,2.244 8.089,6.364 1.923,5.874 5.636,10.847 8.967,15.987 1.31,2.021 3.393,4.077 -1.053,4.899 -1.623,0.3 -3.718,0.986 -2.739,3.102 0.815,1.76 2.824,2.581 4.82,1.215 2.117,-1.45 4.792,-2.784 5.939,0.213 1.423,3.717 -1.551,3.48 -4.114,3.113 -0.459,-0.066 -1.349,0.6 -1.495,1.09 -0.309,1.036 0.437,1.701 1.367,2.131 C -3.181,10.481 0.009,7.778 0,0" style="fill:#494f57;fill-opacity:1;fill-rule:nonzero;stroke:none" transform="matrix(1.3333333,0,0,-1.3333333,2821.2985,3612.2857)" />
      <path id="path871" d="m 0,0 c 0.611,-10.977 -1.121,-21.933 2.47,-32.955 2.381,-7.31 -3.049,-13.742 -7.26,-19.813 -4.224,-6.09 -7.504,-6.972 -12.747,-2.714 -1.153,0.937 -2.17,1.893 -2.064,3.469 0.118,1.766 1.518,2.009 2.925,2.481 6.175,2.069 10.002,10.803 6.843,16.846 -1.891,3.621 -2.369,6.454 0.174,9.743 0.635,0.82 1.166,2.773 0.735,3.209 -8.428,8.548 5.491,11.567 4.587,18.353 -0.166,1.243 2.778,1.186 4.405,1.327 z" style="fill:#494f57;fill-opacity:1;fill-rule:nonzero;stroke:none" transform="matrix(1.3333333,0,0,-1.3333333,2813.8385,2717.1359)" />
      <path id="path872" d="m 0,0 c -0.216,-2.31 -0.563,-5.089 -3.073,-6.466 -2.518,-1.381 -4.413,0.659 -6.273,2.063 -6.276,4.736 -10.997,11.474 -19.194,13.812 -2.241,0.64 -4.94,3.066 -5.096,6.262 -0.079,1.623 1.507,2.224 2.944,2.55 3.461,0.785 6.586,-0.505 7.856,-3.426 C -19.548,7.236 -14.869,4.372 -6.734,7.571 -3.681,8.771 -0.014,4.405 0,0" style="fill:#494f57;fill-opacity:1;fill-rule:nonzero;stroke:none" transform="matrix(1.3333333,0,0,-1.3333333,2893.4971,3640.2952)" />
      <path id="path873" d="m 0,0 c -0.399,-3.654 0.231,-5.094 2.212,-6.193 2.392,-1.327 2.199,-3.576 0.621,-5.375 -2.115,-2.413 -4.186,-1.221 -6.011,0.654 -3.799,3.904 -3.431,8.565 -2.034,13.179 0.875,2.89 2.413,5.582 3.68,8.351 1.453,3.175 3.434,9.225 6.346,6.751 C 7.753,14.87 12.065,9.866 9.872,3.819 8.827,0.94 7.609,-0.379 4.89,1.675 0.04,5.338 0.252,1.43 0,0" style="fill:#494f57;fill-opacity:1;fill-rule:nonzero;stroke:none" transform="matrix(1.3333333,0,0,-1.3333333,2835.1227,3676.2727)" />
      <path id="path874" d="m 0,0 c -4.028,7.336 4.506,8.058 6.886,12.006 0.587,0.975 6.3,-2.53 7.238,-5.039 1.349,-3.611 2.311,-9.791 0.364,-11.644 C 11.524,-7.497 5.931,-8.59 1.232,-6.842 -2.215,-5.559 -0.416,-2.481 0,0" style="fill:#494f57;fill-opacity:1;fill-rule:nonzero;stroke:none" transform="matrix(1.3333333,0,0,-1.3333333,2847.71,3596.3941)" />
      <path id="path875" d="m 0,0 c -0.952,0.422 -1.905,0.843 -2.86,1.264 4.601,3.517 6.19,9.097 9.317,13.625 0.288,-0.069 0.479,0.037 0.569,0.322 0.627,-0.156 1.513,-0.668 1.85,-0.424 5.429,3.934 8.514,2.385 9.86,-3.941 0.159,-0.747 1.19,-1.31 1.817,-1.958 C 19.05,7.453 18.975,4.548 16.081,4.542 15.923,5.933 15.271,6.525 13.87,5.906 11.516,5.812 9.161,5.717 6.807,5.621 3.825,6.587 2.438,5.238 2.094,2.374 1.584,2.256 1.373,1.938 1.465,1.42 0.261,1.689 -0.33,1.322 0,0" style="fill:#dedbe1;fill-opacity:1;fill-rule:nonzero;stroke:none" transform="matrix(1.3333333,0,0,-1.3333333,2754.7428,3381.4711)" />
      <path id="path876" d="m 0,0 c 0.715,3.514 1.129,6.047 1.789,8.514 0.218,0.814 0.926,1.706 1.659,2.135 2.044,1.195 4.483,0.018 4.714,-1.5 C 8.984,3.768 18.912,3.816 15.711,-3.273 13.947,-7.179 9.585,-6.255 6.233,-5.619 2.855,-4.977 0.634,-2.562 0,0" style="fill:#494f57;fill-opacity:1;fill-rule:nonzero;stroke:none" transform="matrix(1.3333333,0,0,-1.3333333,2546.4637,3101.6945)" />
      <path id="path877" d="m 0,0 c -2.579,-0.107 -4.419,0.861 -5.781,3.209 -1.619,2.793 0.024,4.405 1.677,6.12 1.498,1.553 2.79,3.144 2.863,5.476 0.095,3.069 0.702,3.786 4.309,2.511 C 8.011,15.568 12.406,15.202 6.137,9.443 5.25,8.628 5.736,6.274 5.662,4.629 5.497,0.954 3.337,-0.235 0,0" style="fill:#494f57;fill-opacity:1;fill-rule:nonzero;stroke:none" transform="matrix(1.3333333,0,0,-1.3333333,2567.3011,3572.3108)" />
      <path id="path878" d="m 0,0 c -0.041,-6.189 -8.902,-13.011 -13.192,-10.725 -2.96,1.577 -4.184,3.686 -0.563,5.569 3.984,2.071 6.115,4.595 5.829,9.394 -0.071,1.185 -0.623,4.671 2.624,4.885 3.205,0.212 2.744,-2.547 3.413,-4.406 C -1.254,2.954 -0.499,1.236 0,0" style="fill:#494f57;fill-opacity:1;fill-rule:nonzero;stroke:none" transform="matrix(1.3333333,0,0,-1.3333333,2761.8692,2930.6587)" />
      <path id="path879" d="m 0,0 c 0.845,-0.545 1.887,-1.103 2.798,-1.826 3.861,-3.064 7.72,-6.13 11.5,-9.292 1.543,-1.291 2.408,-3.121 1.477,-5.047 -0.583,-1.206 -1.755,-2.798 -2.84,-2.949 -2.205,-0.309 -3.478,2.264 -3.658,3.566 -0.449,3.252 -2.153,3.532 -4.785,3.66 -6.708,0.328 -4.913,6.306 -6.331,10.092 C -2.18,-0.886 -1.313,-0.103 0,0" style="fill:#494f57;fill-opacity:1;fill-rule:nonzero;stroke:none" transform="matrix(1.3333333,0,0,-1.3333333,2623.3441,3156.2241)" />
      <path id="path880" d="m 0,0 c -4.941,6.592 -4.199,12.744 -2.927,18.958 0.464,2.267 1.477,4.626 4.087,2.819 1.964,-1.36 6.734,-2.196 4.577,-5.692 C 2.827,11.366 2.507,5.948 0,0" style="fill:#494f57;fill-opacity:1;fill-rule:nonzero;stroke:none" transform="matrix(1.3333333,0,0,-1.3333333,2679.4977,2694.6567)" />
      <path id="path881" d="m 0,0 c 1.867,-4.402 5.726,-6.985 3.029,-11.598 -1.931,-3.303 -5.025,-2.999 -8.061,-3.058 -2.37,-0.046 -4.168,0.844 -4.664,3.363 -0.466,2.366 0.274,4.384 2.683,5.047 C -3.952,-5.403 -1.721,-3.641 0,0" style="fill:#494f57;fill-opacity:1;fill-rule:nonzero;stroke:none" transform="matrix(1.3333333,0,0,-1.3333333,2580.6507,3520.6744)" />
      <path id="path882" d="m 0,0 c -0.509,-2.108 -0.944,-3.939 -1.393,-5.767 -0.911,-3.707 -2.492,-7.391 -7.028,-5.873 -4.631,1.549 -1.889,4.667 -0.63,7.425 0.753,1.648 0.47,3.749 1.129,5.464 0.676,1.762 2.053,3.543 4.201,3.111 C -1.476,3.908 -0.33,2.015 0,0" style="fill:#494f57;fill-opacity:1;fill-rule:nonzero;stroke:none" transform="matrix(1.3333333,0,0,-1.3333333,2529.2715,2733.2928)" />
      <path id="path883" d="m 0,0 c -1.375,-3.11 -0.246,-6.811 -2.933,-9.376 -0.97,-0.926 -1.494,-2.709 -3.219,-2.121 -1.482,0.504 -1.856,2.023 -1.894,3.487 -0.071,2.811 -0.078,5.623 -0.112,8.435 -0.04,3.203 0.888,5.897 4.687,5.371 C -0.263,5.353 0.16,2.629 0,0" style="fill:#494f57;fill-opacity:1;fill-rule:nonzero;stroke:none" transform="matrix(1.3333333,0,0,-1.3333333,2851.3141,3049.6161)" />
      <path id="path884" d="m 0,0 c -0.324,-4.591 -3.832,-6.307 -8.044,-6.746 -3.076,-0.321 -5.19,1.638 -4.766,4.73 0.752,5.497 7.045,3.938 10.093,7.032 C -1.479,6.273 -0.236,2.563 0,0" style="fill:#494f57;fill-opacity:1;fill-rule:nonzero;stroke:none" transform="matrix(1.3333333,0,0,-1.3333333,2599.6587,3060.7927)" />
      <path id="path885" d="M 0,0 C 4.393,-0.025 9.07,-5.192 8.967,-8.977 8.898,-11.499 7.201,-11.356 5.619,-11.403 1.431,-11.529 -3.307,-6.901 -3.182,-3.012 -3.099,-0.435 -1.439,-0.047 0,0" style="fill:#494f57;fill-opacity:1;fill-rule:nonzero;stroke:none" transform="matrix(1.3333333,0,0,-1.3333333,2590.5463,2997.7505)" />
      <path id="path886" d="m 0,0 c -0.627,0.648 -1.658,1.211 -1.817,1.958 -1.346,6.326 -4.431,7.875 -9.86,3.941 -0.338,-0.245 -1.223,0.267 -1.851,0.424 1.03,4.663 8.757,8.31 11.696,5.189 C 0.003,9.563 2.073,7.662 3.587,5.538 6.356,1.654 3.731,0.233 0,0" style="fill:#494f57;fill-opacity:1;fill-rule:nonzero;stroke:none" transform="matrix(1.3333333,0,0,-1.3333333,2782.1472,3369.6203)" />
      <path id="path887" d="M 0,0 C 0.562,2.821 2.529,3.525 4.743,3.224 8.111,2.767 11.786,1.675 12.761,-1.719 13.221,-3.32 9.906,-4.77 7.827,-4.389 4.806,-3.834 1.173,-3.809 0,0" style="fill:#494f57;fill-opacity:1;fill-rule:nonzero;stroke:none" transform="matrix(1.3333333,0,0,-1.3333333,2509.0737,3209.0216)" />
      <path id="path888" d="m 0,0 c -3.126,-4.529 -4.715,-10.109 -9.317,-13.625 -1.145,-0.53 -2.907,-0.701 -3.043,0.454 -0.594,5.043 3.684,8.56 4.746,13.299 C -7.171,2.099 -2.624,1.562 0,0" style="fill:#494f57;fill-opacity:1;fill-rule:nonzero;stroke:none" transform="matrix(1.3333333,0,0,-1.3333333,2763.3516,3361.6185)" />
      <path id="path889" d="M 0,0 C -0.231,0.404 -0.41,0.85 -0.7,1.206 -2.601,3.533 -3.895,5.969 -1.459,8.656 -0.25,9.991 1.514,10.287 3.016,9.352 4.926,8.163 5.735,6.153 5.515,3.919 5.181,0.529 2.697,0.04 -0.069,0.054 -0.068,0.054 0,0 0,0" style="fill:#494f57;fill-opacity:1;fill-rule:nonzero;stroke:none" transform="matrix(1.3333333,0,0,-1.3333333,2813.9297,2717.2073)" />
      <path id="path890" d="m 0,0 c -0.549,-3.116 -2.226,-5.379 -5.722,-5.705 -1.416,-0.133 -3.137,0.393 -2.611,2.23 0.914,3.188 2.768,6.119 6.078,7.017 C 0.04,4.164 -0.219,1.721 0,0" style="fill:#494f57;fill-opacity:1;fill-rule:nonzero;stroke:none" transform="matrix(1.3333333,0,0,-1.3333333,2829.4043,3117.2979)" />
      <path id="path891" d="M 0,0 C -1.743,0.008 -3.363,0.536 -2.962,2.271 -2.33,5.004 -1.091,7.738 2.168,8.204 4.251,8.501 5.216,6.948 4.911,5.071 4.456,2.272 2.68,0.529 0,0" style="fill:#494f57;fill-opacity:1;fill-rule:nonzero;stroke:none" transform="matrix(1.3333333,0,0,-1.3333333,2480.9499,2656.3637)" />
      <path id="path892" d="M 0,0 C -0.617,-2.071 -1.787,-3.701 -3.823,-3.741 -6.817,-3.8 -7.608,-1.203 -8.026,1.066 -8.367,2.914 -7.048,4.507 -5.149,4.093 -2.93,3.609 -0.858,2.367 0,0" style="fill:#494f57;fill-opacity:1;fill-rule:nonzero;stroke:none" transform="matrix(1.3333333,0,0,-1.3333333,2544.3097,2645.4376)" />
      <path id="path1045" d="M 0,0 C -1.18,4.088 3.517,7.939 8.438,9.93 15.493,12.783 21.185,9.436 27.409,8.052 30.12,7.448 31.822,5.926 31.253,3.136 30.605,-0.043 28.049,0.091 25.629,0.858 17.142,3.547 8.739,5.101 0.662,-0.362 0.508,-0.119 0.287,0.001 0,0" style="fill:#dedbe1;fill-opacity:1;fill-rule:nonzero;stroke:none" transform="matrix(1.3333333,0,0,-1.3333333,2231.6013,3126.8417)" />
      <path id="path1046" d="m 0,0 c 5.097,-1.462 10.076,-2.35 14.276,2.256 0.813,0.892 2.177,1.118 3.195,0.266 1.238,-1.038 1.137,-2.549 0.581,-3.887 -3.794,-9.132 -12.28,-11.564 -20.74,-5.813 -1.515,1.03 -4.227,2.109 -2.645,4.807 C -4.251,-0.524 -2.494,0.81 0,0" style="fill:#494f57;fill-opacity:1;fill-rule:nonzero;stroke:none" transform="matrix(1.3333333,0,0,-1.3333333,2129.2641,3578.5519)" />
      <path id="path1047" d="m 0,0 c 1.394,3.968 -1.411,7.038 -2.484,10.556 -0.415,1.362 -2.044,3.107 0.127,4.328 1.312,0.738 2.713,0.129 4.001,-0.59 C 7.452,11.049 10.648,2.277 7.407,-1.99 5.818,-4.081 3.488,-6.133 0.902,-5.493 -2.349,-4.689 0.931,-1.893 0,0" style="fill:#494f57;fill-opacity:1;fill-rule:nonzero;stroke:none" transform="matrix(1.3333333,0,0,-1.3333333,2149.9515,3615.5084)" />
      <path id="path1048" d="m 0,0 c -8.302,-2.251 -5.891,8.471 -10.739,11.539 -0.085,0.055 0.498,1.769 1.123,2.224 1.611,1.174 3.949,1.575 5.279,0.406 C -1.048,11.276 1.867,7.94 4.774,4.642 5.714,3.577 5.829,1.988 5.125,0.65 4.263,-0.988 2.788,-0.415 0,0" style="fill:#494f57;fill-opacity:1;fill-rule:nonzero;stroke:none" transform="matrix(1.3333333,0,0,-1.3333333,2116.0827,3664.0836)" />
      <path id="path1049" d="M 0,0 C 0.233,0.844 0.465,1.687 0.699,2.53 1.048,2.329 1.298,2.416 1.449,2.788 2.411,2.169 3.222,2.339 3.887,3.26 4.833,3.297 5.779,3.334 6.725,3.372 8.426,2.348 9.453,2.833 9.835,4.76 12.11,4.347 14.386,3.935 16.662,3.522 c 0.435,-0.069 0.869,-0.138 1.304,-0.208 0,0 0.029,-0.037 0.03,-0.037 C 17.904,-0.936 15.805,-2.028 11.694,-1.759 8.577,-1.554 5.811,1.631 2.47,-0.669 1.646,-0.446 0.823,-0.223 0,0" style="fill:#dedbe1;fill-opacity:1;fill-rule:nonzero;stroke:none" transform="matrix(1.3333333,0,0,-1.3333333,2082.4405,3068.8201)" />
      <path id="path1050" d="m 0,0 c -0.094,-2.371 0.063,-4.514 -2.285,-5.066 -2.855,-0.67 -3.788,1.558 -4.034,3.659 -0.402,3.438 -3.839,6.943 -0.062,10.388 0.885,0.807 2.287,1.63 3.132,0.795 C -0.425,6.987 -1.215,2.905 0,0" style="fill:#494f57;fill-opacity:1;fill-rule:nonzero;stroke:none" transform="matrix(1.3333333,0,0,-1.3333333,2389.2707,3208.9049)" />
      <path id="path1051" d="M 0,0 C 0.647,1.014 1.295,2.028 1.944,3.042 3.903,3.061 5.86,3.08 7.818,3.1 7.716,1.798 8.265,0.858 9.405,0.246 9.256,-1.376 9.107,-2.998 8.958,-4.62 7.817,-5.882 6.434,-7.031 6.896,-9.041 L 6.99,-9.428 c 0,0 0.308,0.252 0.299,0.238 C 6.397,-6.647 5.602,-4.005 2.153,-3.953 2.688,-1.953 0.675,-1.341 0,0" style="fill:#dedbe1;fill-opacity:1;fill-rule:nonzero;stroke:none" transform="matrix(1.3333333,0,0,-1.3333333,2089.2487,3611.5367)" />
      <path id="path1052" d="M 0,0 C -0.463,2.01 0.921,3.159 2.062,4.421 5.842,2.767 5.716,-1.283 7.177,-4.29 8.019,-6.025 8.391,-8.681 5.53,-9.533 2.82,-10.34 1.645,-8.238 1.006,-6.216 0.38,-4.236 0.313,-2.079 0,0" style="fill:#494f57;fill-opacity:1;fill-rule:nonzero;stroke:none" transform="matrix(1.3333333,0,0,-1.3333333,2098.4437,3623.5915)" />
      <path id="path1053" d="m 0,0 c 2.827,-2.69 6.406,-4.389 9.891,-6.26 0.299,-0.16 0.365,-1.414 0.08,-1.875 -0.689,-1.109 -1.974,-1.394 -3.108,-0.941 -3.016,1.207 -6.417,1.943 -8.268,4.944 -0.498,0.809 -0.128,2.206 0.006,3.314 C -1.367,-0.558 -0.674,-0.377 0,0" style="fill:#494f57;fill-opacity:1;fill-rule:nonzero;stroke:none" transform="matrix(1.3333333,0,0,-1.3333333,2126.4703,3620.5621)" />
      <path id="path1054" d="M 0,0 C -1.849,0.75 -3.621,1.768 -3.548,3.891 -3.478,5.944 -1.919,7.69 0.1,7.244 1.808,6.866 4.614,6.087 3.873,3.381 3.455,1.855 2.441,-0.227 0,0" style="fill:#494f57;fill-opacity:1;fill-rule:nonzero;stroke:none" transform="matrix(1.3333333,0,0,-1.3333333,2201.5567,3780.2884)" />
      <path id="path1055" d="M 0,0 C 3.448,-0.052 4.244,-2.694 5.135,-5.237 -0.213,-7.07 0.078,-3.354 0,0" style="fill:#494f57;fill-opacity:1;fill-rule:nonzero;stroke:none" transform="matrix(1.3333333,0,0,-1.3333333,2092.1197,3616.8073)" />
      <path id="path1070" d="m 0,0 c -1.742,0.913 -3.835,-0.551 -5.91,-0.198 -4.679,0.796 -9.55,1.373 -9.006,8.084 0.716,8.826 -7.433,10.421 -12.244,14.688 -0.976,0.865 -2.822,0.685 -3.948,1.454 -2.795,1.911 -5.848,4.676 -3.949,8.026 1.988,3.508 4.967,0.813 7.832,-0.383 8.557,-3.575 12.52,-13.369 21.987,-15.699 2,-0.493 2.239,-3.289 2.648,-5.454 C -1.868,6.699 -0.747,2.956 0,0" style="fill:#dedbe1;fill-opacity:1;fill-rule:nonzero;stroke:none" transform="matrix(1.3333333,0,0,-1.3333333,2212.3283,2970.3327)" />
      <path id="path1071" d="m 0,0 c -0.805,2.402 -1.273,4.672 -3.117,6.339 -2.5,2.261 -1.348,4.68 0.004,7.029 1.543,2.681 3.664,2.386 6.086,1.341 2.155,-0.931 4.588,-1.336 6.568,-2.523 1.87,-1.12 2.832,-3.27 2.333,-5.528 C 11.299,4.052 9.35,5.484 7.859,5.577 3.903,5.824 2.555,2.172 0,0" style="fill:#494f57;fill-opacity:1;fill-rule:nonzero;stroke:none" transform="matrix(1.3333333,0,0,-1.3333333,2344.5204,2734.4535)" />
      <path id="path1072" d="m 0,0 c -0.211,-1.298 -0.22,-3.011 -0.789,-4.511 -1.287,-3.39 -2.445,-9.138 -6.019,-8.091 -3.004,0.88 -3.772,6.801 -2.959,11.064 0.261,1.369 0.697,2.787 1.409,3.969 1.311,2.178 2.761,5.092 5.648,4.478 C 0.577,6.212 -0.474,2.771 0,0" style="fill:#494f57;fill-opacity:1;fill-rule:nonzero;stroke:none" transform="matrix(1.3333333,0,0,-1.3333333,2328.798,2716.0901)" />
      <path id="path1073" d="M 0,0 C 1.98,-0.365 5.535,0.884 5.266,-2.683 4.918,-7.271 0.161,-5.943 -2.675,-6.954 -5.016,-7.788 -7.199,-6.197 -6.851,-3.645 -6.341,0.105 -2.966,-0.183 0,0" style="fill:#494f57;fill-opacity:1;fill-rule:nonzero;stroke:none" transform="matrix(1.3333333,0,0,-1.3333333,2093.2141,2984.21)" />
      <path id="path1085" d="m 0,0 c 1.454,-5.45 1.786,-9.047 -4.507,-10.052 -4.046,-0.647 -4.229,-0.164 -6.345,3.634 -4.238,7.605 -6.833,12.076 3.944,15.715 1.555,0.526 4.156,4.132 7.426,5.528 2.835,1.211 6.668,4.197 6.889,6.679 0.813,9.167 4.869,6.885 10.131,4.091 2.841,-1.509 5.907,-2.635 8.21,1.854 1.465,2.857 5.473,2.217 8.367,2.394 1.396,0.085 0.833,-2.379 1.083,-3.688 0.605,-3.174 -1.001,-5.056 -3.97,-5.528 -2.839,-0.452 -2.976,-2.812 -3.639,-4.656 -0.891,-2.48 -2,-4.607 -4.968,-3.674 C 16.726,14.149 17.749,9.886 17.989,6.97 18.737,-2.132 17.366,-3.561 8.757,-1.697 7.519,-1.429 6.251,-1.163 5.519,-2.24 2.655,-6.454 2.145,-1.826 0,0" style="fill:#dedbe1;fill-opacity:1;fill-rule:nonzero;stroke:none" transform="matrix(1.3333333,0,0,-1.3333333,2162.1377,3073.0833)" />
      <path id="path1086" d="m 0,0 c -3.819,-0.483 -7.05,0.809 -6.791,4.935 0.204,3.249 1.278,8.311 5.529,7.673 C 3.323,11.92 3.537,5.787 6.015,2.35 7.394,0.436 2.422,0.291 0,0" style="fill:#dedbe1;fill-opacity:1;fill-rule:nonzero;stroke:none" transform="matrix(1.3333333,0,0,-1.3333333,2123.4165,3058.3767)" />
      <path id="path1087" d="m 0,0 c -2.655,-2.854 -4.097,-7.689 -8.281,-9.029 -2.463,-0.788 -4.332,2.609 -4.552,5.129 -0.241,2.773 8.052,8.791 10.6,8.12 C -0.277,3.704 0.296,2.304 0,0" style="fill:#dedbe1;fill-opacity:1;fill-rule:nonzero;stroke:none" transform="matrix(1.3333333,0,0,-1.3333333,2233.2219,3108.5685)" />
      <path id="path1088" d="M 0,0 C -1.302,0.315 -2.603,0.63 -3.905,0.945 -3.34,2.68 -5.811,5.582 -2.51,6.045 -1.117,6.24 0.99,4.691 2.015,3.354 3.531,1.377 1.467,0.674 0,0" style="fill:#dedbe1;fill-opacity:1;fill-rule:nonzero;stroke:none" transform="matrix(1.3333333,0,0,-1.3333333,2085.6864,3048.1051)" />
      </g></svg>