<?xml version='1.0' encoding='utf-8'?>
<svg xmlns="http://www.w3.org/2000/svg" version="1.1" width="377.352" height="463.966" viewBox="183.986 164.867 377.352 463.966"><defs id="defs1"><clipPath clipPathUnits="userSpaceOnUse" id="clipPath4">
      <path d="M -2384.1568,2286.7354 H -0.21670001 V -1083.6547 H -2384.1568 Z" id="path4" />
    </clipPath>
    <clipPath clipPathUnits="userSpaceOnUse" id="clipPath6">
      <path d="M -2384.0266,1933.815 H -0.086575 v -3370.39 H -2384.0266 Z" id="path6" />
    </clipPath>
    <clipPath clipPathUnits="userSpaceOnUse" id="clipPath8">
      <path d="M -2384.1847,2520.3537 H -0.24460001 V -850.0364 H -2384.1847 Z" id="path8" />
    </clipPath>
    <clipPath clipPathUnits="userSpaceOnUse" id="clipPath10">
      <path d="M -1378.8652,3371.3417 H 1005.0749 V 0.95157502 h -2383.9401 z" id="path10" />
    </clipPath>
    <clipPath clipPathUnits="userSpaceOnUse" id="clipPath12">
      <path d="M -2383.8391,1819.185 H 0.100925 v -3370.39 H -2383.8391 Z" id="path12" />
    </clipPath>
    <clipPath clipPathUnits="userSpaceOnUse" id="clipPath14">
      <path d="M -2384.2639,1767.3618 H -0.32387501 V -1603.0283 H -2384.2639 Z" id="path14" />
    </clipPath>
  </defs><g id="object"><path id="path49" d="M 0,0 C -0.64,3.858 -0.551,7.943 -0.132,11.853 1.701,28.94 -4.03,35.092 -22.74,34.226 c -40.264,-1.863 -80.67,-0.641 -121.018,-0.681 -34.067,11.2 -69.158,2.242 -103.623,5.301 -22.399,1.989 -26.696,-10.367 -25.827,-29.258 0.864,-18.799 -1.141,-38.153 26.764,-37.507 25.369,0.587 50.756,0.428 76.131,0.596 0.419,-7.84 1.256,-15.685 1.185,-23.523 -0.663,-74.079 -1.243,-148.16 -2.496,-222.23 -0.201,-11.913 1.922,-20.912 13.58,-25.764 20.009,0.608 40.44,-4.195 59.803,4.673 -0.594,81.535 -0.354,163.091 -2.328,244.592 -0.542,22.408 6.06,29.548 27.769,27.072 16.437,-1.874 33.335,0.393 49.803,-1.333 C -3.746,-25.854 3.062,-18.459 0,0" style="fill:#9e998f;fill-opacity:1;fill-rule:nonzero;stroke:none" transform="matrix(1.3333333,0,0,-1.3333333,554.40093,223.36467)" />
      </g></svg>