<?xml version='1.0' encoding='utf-8'?>
<svg xmlns="http://www.w3.org/2000/svg" version="1.1" width="143.481" height="165.728" viewBox="1488.050 512.661 143.481 165.728"><g id="object"><path id="path8" d="m 0,0 c 1.382,2.264 1.363,4.659 0.666,7.118 1.137,1.791 0.925,3.658 0.313,5.547 0.676,1.743 1.102,3.64 2.069,5.203 5.929,9.592 7.028,23.008 22.569,24.658 9.252,0.982 14.881,-0.746 18.028,-9.82 0.542,-1.563 0.963,-3.168 1.511,-4.728 0.383,-1.091 0.665,-2.385 2.08,-2.592 1.86,-0.271 2.273,1.2 2.811,2.512 3.553,8.669 9.33,15.651 16.441,21.617 0.711,-0.092 1.004,0.22 0.891,0.923 4.057,2.807 8.648,-0.174 12.911,1.267 9.605,3.248 12.973,1.984 18.001,-6.224 -0.739,-1.453 -0.502,-2.832 0.32,-4.166 C 95.125,31.509 90.075,22.3 87.482,12.153 85.492,9.929 84.255,7.303 83.387,4.479 82.096,3.746 81.783,2.617 82.085,1.241 c -3.067,-3.15 -6.241,-6.22 -7.735,-10.526 -1.134,0.039 -1.658,-0.594 -1.804,-1.642 -4.963,-2.374 -9.469,-5.976 -15.407,-5.725 -1.947,0.746 -3.846,0.517 -5.717,-0.281 -5.395,0.48 -4.435,-4.089 -3.976,-6.353 2.101,-10.366 -1.469,-20.273 -1.725,-30.406 -0.131,-5.156 -2.677,-7.012 -7.581,-7.127 -6.588,-0.155 -13.16,-0.923 -19.748,-1.114 -6.329,-0.184 -7.547,6.487 -11.72,9.253 -10e-4,-10e-4 -0.07,0.106 -0.07,0.106 C 0.575,-38.827 1.242,-24.225 1.067,-9.72 1.045,-7.883 0.518,-6.052 0.225,-4.218 0.15,-2.812 0.075,-1.406 0,0" style="fill:#d2d5d9;fill-opacity:1;fill-rule:nonzero;stroke:none" transform="matrix(1.3333333,0,0,-1.3333333,1494.0515,589.80613)" />
      </g></svg>