<?xml version='1.0' encoding='utf-8'?>
<svg xmlns="http://www.w3.org/2000/svg" version="1.1" width="3184.823" height="4926.167" viewBox="-0.232 -0.227 3184.823 4926.167"><defs id="defs1"><clipPath clipPathUnits="userSpaceOnUse" id="clipPath3">
      <path d="M -4.3263001,2500.5703 H 2379.6138 V -1189.3768 H -4.3263001 Z" id="path3" />
    </clipPath>
    <clipPath clipPathUnits="userSpaceOnUse" id="clipPath5">
      <path d="M -4.3262001,2448.6552 H 2379.6139 V -1241.2919 H -4.3262001 Z" id="path5" />
    </clipPath>
    <clipPath clipPathUnits="userSpaceOnUse" id="clipPath7">
      <path d="M -4.3262001,2396.7403 H 2379.6139 V -1293.2068 H -4.3262001 Z" id="path7" />
    </clipPath>
    <clipPath clipPathUnits="userSpaceOnUse" id="clipPath9">
      <path d="M -4.3263001,2349.1516 H 2379.6138 V -1340.7955 H -4.3263001 Z" id="path9" />
    </clipPath>
    <clipPath clipPathUnits="userSpaceOnUse" id="clipPath11">
      <path d="M -4.3262001,2297.2366 H 2379.6139 V -1392.7105 H -4.3262001 Z" id="path11" />
    </clipPath>
    <clipPath clipPathUnits="userSpaceOnUse" id="clipPath13">
      <path d="M -4.3262001,2245.3216 H 2379.6139 V -1444.6255 H -4.3262001 Z" id="path13" />
    </clipPath>
    <clipPath clipPathUnits="userSpaceOnUse" id="clipPath15">
      <path d="M -4.3262001,2193.4068 H 2379.6139 V -1496.5403 H -4.3262001 Z" id="path15" />
    </clipPath>
    <clipPath clipPathUnits="userSpaceOnUse" id="clipPath17">
      <path d="M -4.3262001,2141.4918 H 2379.6139 V -1548.4553 H -4.3262001 Z" id="path17" />
    </clipPath>
    <clipPath clipPathUnits="userSpaceOnUse" id="clipPath19">
      <path d="M -4.3262001,2089.5769 H 2379.6139 V -1600.3702 H -4.3262001 Z" id="path19" />
    </clipPath>
    <clipPath clipPathUnits="userSpaceOnUse" id="clipPath21">
      <path d="M -4.3262001,2037.6619 H 2379.6139 V -1652.2852 H -4.3262001 Z" id="path21" />
    </clipPath>
    <clipPath clipPathUnits="userSpaceOnUse" id="clipPath23">
      <path d="M -4.3262001,1985.7469 H 2379.6139 V -1704.2002 H -4.3262001 Z" id="path23" />
    </clipPath>
    <clipPath clipPathUnits="userSpaceOnUse" id="clipPath25">
      <path d="M -4.3262001,1933.8319 H 2379.6139 V -1756.1152 H -4.3262001 Z" id="path25" />
    </clipPath>
    <clipPath clipPathUnits="userSpaceOnUse" id="clipPath27">
      <path d="M -4.3262001,1886.2434 H 2379.6139 V -1803.7037 H -4.3262001 Z" id="path27" />
    </clipPath>
    <clipPath clipPathUnits="userSpaceOnUse" id="clipPath29">
      <path d="M -4.3262001,1834.3282 H 2379.6139 V -1855.6189 H -4.3262001 Z" id="path29" />
    </clipPath>
    <clipPath clipPathUnits="userSpaceOnUse" id="clipPath31">
      <path d="M -4.3262001,1782.4134 H 2379.6139 V -1907.5337 H -4.3262001 Z" id="path31" />
    </clipPath>
    <clipPath clipPathUnits="userSpaceOnUse" id="clipPath33">
      <path d="M -4.3262001,1730.4984 H 2379.6139 v -3689.947 H -4.3262001 Z" id="path33" />
    </clipPath>
    <clipPath clipPathUnits="userSpaceOnUse" id="clipPath35">
      <path d="M -4.3262001,1678.5835 H 2379.6139 V -2011.3636 H -4.3262001 Z" id="path35" />
    </clipPath>
    <clipPath clipPathUnits="userSpaceOnUse" id="clipPath37">
      <path d="M -4.3262001,1626.6684 H 2379.6139 V -2063.2787 H -4.3262001 Z" id="path37" />
    </clipPath>
    <clipPath clipPathUnits="userSpaceOnUse" id="clipPath39">
      <path d="M -4.3262001,1574.7537 H 2379.6139 V -2115.1934 H -4.3262001 Z" id="path39" />
    </clipPath>
    <clipPath clipPathUnits="userSpaceOnUse" id="clipPath41">
      <path d="M -4.3263001,1522.8387 H 2379.6138 V -2167.1084 H -4.3263001 Z" id="path41" />
    </clipPath>
    <clipPath clipPathUnits="userSpaceOnUse" id="clipPath43">
      <path d="M -4.3262001,1470.9237 H 2379.6139 V -2219.0234 H -4.3262001 Z" id="path43" />
    </clipPath>
    <clipPath clipPathUnits="userSpaceOnUse" id="clipPath45">
      <path d="M -4.3262001,1419.0088 H 2379.6139 V -2270.9383 H -4.3262001 Z" id="path45" />
    </clipPath>
    <clipPath clipPathUnits="userSpaceOnUse" id="clipPath47">
      <path d="M -4.3262001,1367.0937 H 2379.6139 V -2322.8534 H -4.3262001 Z" id="path47" />
    </clipPath>
    <clipPath clipPathUnits="userSpaceOnUse" id="clipPath49">
      <path d="M -4.3262001,1319.5051 H 2379.6139 V -2370.442 H -4.3262001 Z" id="path49" />
    </clipPath>
    <clipPath clipPathUnits="userSpaceOnUse" id="clipPath51">
      <path d="M -4.3262001,1267.5901 H 2379.6139 V -2422.357 H -4.3262001 Z" id="path51" />
    </clipPath>
    <clipPath clipPathUnits="userSpaceOnUse" id="clipPath53">
      <path d="M -4.3262001,1215.675 H 2379.6139 V -2474.2721 H -4.3262001 Z" id="path53" />
    </clipPath>
    <clipPath clipPathUnits="userSpaceOnUse" id="clipPath55">
      <path d="M -4.3262001,1163.7603 H 2379.6139 V -2526.1868 H -4.3262001 Z" id="path55" />
    </clipPath>
    <clipPath clipPathUnits="userSpaceOnUse" id="clipPath57">
      <path d="M -4.3262001,1111.8453 H 2379.6139 V -2578.1018 H -4.3262001 Z" id="path57" />
    </clipPath>
    <clipPath clipPathUnits="userSpaceOnUse" id="clipPath59">
      <path d="M -4.3262001,1059.9303 H 2379.6139 V -2630.0168 H -4.3262001 Z" id="path59" />
    </clipPath>
    <clipPath clipPathUnits="userSpaceOnUse" id="clipPath61">
      <path d="M -4.3262001,1008.0154 H 2379.6139 V -2681.9317 H -4.3262001 Z" id="path61" />
    </clipPath>
    <clipPath clipPathUnits="userSpaceOnUse" id="clipPath63">
      <path d="M -4.3262001,956.10032 H 2379.6139 V -2733.8468 H -4.3262001 Z" id="path63" />
    </clipPath>
    <clipPath clipPathUnits="userSpaceOnUse" id="clipPath65">
      <path d="M -4.3262001,904.18555 H 2379.6139 V -2785.7615 H -4.3262001 Z" id="path65" />
    </clipPath>
    <clipPath clipPathUnits="userSpaceOnUse" id="clipPath67">
      <path d="M -4.3262001,856.5967 H 2379.6139 V -2833.3504 H -4.3262001 Z" id="path67" />
    </clipPath>
    <clipPath clipPathUnits="userSpaceOnUse" id="clipPath69">
      <path d="M -4.3262001,804.68192 H 2379.6139 V -2885.2652 H -4.3262001 Z" id="path69" />
    </clipPath>
    <clipPath clipPathUnits="userSpaceOnUse" id="clipPath71">
      <path d="M -4.3262001,752.76684 H 2379.6139 V -2937.1802 H -4.3262001 Z" id="path71" />
    </clipPath>
    <clipPath clipPathUnits="userSpaceOnUse" id="clipPath73">
      <path d="M -4.3262001,700.85182 H 2379.6139 V -2989.0953 H -4.3262001 Z" id="path73" />
    </clipPath>
    <clipPath clipPathUnits="userSpaceOnUse" id="clipPath75">
      <path d="M -4.3262001,648.93701 H 2379.6139 V -3041.0101 H -4.3262001 Z" id="path75" />
    </clipPath>
    <clipPath clipPathUnits="userSpaceOnUse" id="clipPath77">
      <path d="M -4.3262001,597.02201 H 2379.6139 V -3092.9251 H -4.3262001 Z" id="path77" />
    </clipPath>
    <clipPath clipPathUnits="userSpaceOnUse" id="clipPath79">
      <path d="M -4.3262001,545.10691 H 2379.6139 V -3144.8402 H -4.3262001 Z" id="path79" />
    </clipPath>
    <clipPath clipPathUnits="userSpaceOnUse" id="clipPath81">
      <path d="M -4.3262001,493.19211 H 2379.6139 V -3196.755 H -4.3262001 Z" id="path81" />
    </clipPath>
    <clipPath clipPathUnits="userSpaceOnUse" id="clipPath83">
      <path d="M -4.3262001,441.27711 H 2379.6139 V -3248.67 H -4.3262001 Z" id="path83" />
    </clipPath>
    <clipPath clipPathUnits="userSpaceOnUse" id="clipPath85">
      <path d="M -4.3262001,389.36231 H 2379.6139 V -3300.5848 H -4.3262001 Z" id="path85" />
    </clipPath>
    <clipPath clipPathUnits="userSpaceOnUse" id="clipPath87">
      <path d="M -4.3262001,341.77341 H 2379.6139 V -3348.1737 H -4.3262001 Z" id="path87" />
    </clipPath>
    <clipPath clipPathUnits="userSpaceOnUse" id="clipPath89">
      <path d="M -4.3262001,289.8586 H 2379.6139 V -3400.0885 H -4.3262001 Z" id="path89" />
    </clipPath>
    <clipPath clipPathUnits="userSpaceOnUse" id="clipPath91">
      <path d="M -4.3262001,237.9436 H 2379.6139 V -3452.0035 H -4.3262001 Z" id="path91" />
    </clipPath>
    <clipPath clipPathUnits="userSpaceOnUse" id="clipPath93">
      <path d="M -4.3262001,186.0285 H 2379.6139 V -3503.9186 H -4.3262001 Z" id="path93" />
    </clipPath>
    <clipPath clipPathUnits="userSpaceOnUse" id="clipPath95">
      <path d="M -4.3262001,134.11371 H 2379.6139 V -3555.8334 H -4.3262001 Z" id="path95" />
    </clipPath>
    <clipPath clipPathUnits="userSpaceOnUse" id="clipPath97">
      <path d="M -4.3262001,82.198705 H 2379.6139 V -3607.7484 H -4.3262001 Z" id="path97" />
    </clipPath>
    <clipPath clipPathUnits="userSpaceOnUse" id="clipPath99">
      <path d="M -4.3262001,30.283701 H 2379.6139 V -3659.6634 H -4.3262001 Z" id="path99" />
    </clipPath>
    <clipPath clipPathUnits="userSpaceOnUse" id="clipPath101">
      <path d="M -134.1136,4.3264001 H 2249.8265 V -3685.6207 H -134.1136 Z" id="path101" />
    </clipPath>
    <clipPath clipPathUnits="userSpaceOnUse" id="clipPath103">
      <path d="M -376.38341,4.3264001 H 2007.5567 V -3685.6207 H -376.38341 Z" id="path103" />
    </clipPath>
    <clipPath clipPathUnits="userSpaceOnUse" id="clipPath105">
      <path d="M -618.65312,4.3264001 H 1765.2869 V -3685.6207 H -618.65312 Z" id="path105" />
    </clipPath>
    <clipPath clipPathUnits="userSpaceOnUse" id="clipPath107">
      <path d="M -860.92292,4.3264001 H 1523.0171 V -3685.6207 H -860.92292 Z" id="path107" />
    </clipPath>
    <clipPath clipPathUnits="userSpaceOnUse" id="clipPath113">
      <path d="M -2262.9259,254.04271 H 121.0142 V -3435.9044 h -2383.9401 z" id="path113" />
    </clipPath>
    <clipPath clipPathUnits="userSpaceOnUse" id="clipPath120">
      <path d="m -1119.0156,2938.4865 h 2383.94 V -751.46059 h -2383.94 z" id="path120" />
    </clipPath>
  </defs><g id="object"><path id="path2" d="m 0,0 c 141.416,-30.263 282.817,-60.595 424.25,-90.776 376.495,-80.341 752.997,-160.647 1129.509,-240.907 266.015,-56.705 532.047,-113.334 798.084,-169.936 33.485,-7.125 33.522,-6.953 30.085,-48.944 -32.213,6.556 -64.153,12.802 -95.981,19.571 -406.041,86.353 -812.077,172.728 -1218.092,259.207 C 715.342,-196.703 362.857,-121.485 10.367,-46.288 6.856,-45.54 3.453,-44.282 0,-43.262 0,-28.842 0,-14.421 0,0" style="fill:#231916;fill-opacity:1;fill-rule:nonzero;stroke:none" transform="matrix(1.3333333,0,0,-1.3333333,5.7684,3334.0976)" clip-path="url(#clipPath3)" />
      <path id="path4" d="m 0,0 c 113.254,-24.468 226.455,-49.183 339.771,-73.358 409.698,-87.404 819.434,-174.629 1229.157,-261.916 260.456,-55.487 520.905,-111.008 781.383,-166.393 36.091,-7.674 36.159,-7.351 31.115,-48.855 -38.655,8.024 -77.182,15.845 -115.632,24.032 -316.061,67.303 -632.116,134.633 -948.156,202.034 C 948.103,-245.647 578.584,-166.76 209.058,-87.903 139.37,-73.032 69.686,-58.143 0,-43.263 0,-28.842 0,-14.421 0,0" style="fill:#231916;fill-opacity:1;fill-rule:nonzero;stroke:none" transform="matrix(1.3333333,0,0,-1.3333333,5.7682667,3264.8775)" clip-path="url(#clipPath5)" />
      <path id="path6" d="m 0,0 c 80.134,-17.416 160.216,-35.079 240.412,-52.205 381.478,-81.466 762.977,-162.832 1144.489,-244.141 321.683,-68.558 643.388,-137.018 965.1,-205.443 36.299,-7.721 36.349,-7.487 31.42,-48.839 C 1587.454,-381.472 793.727,-212.367 0,-43.262 0,-28.842 0,-14.421 0,0" style="fill:#231916;fill-opacity:1;fill-rule:nonzero;stroke:none" transform="matrix(1.3333333,0,0,-1.3333333,5.7682667,3195.6576)" clip-path="url(#clipPath7)" />
      <path id="path8" d="m 0,0 c 47.237,-9.171 94.625,-17.629 141.686,-27.627 369.65,-78.535 739.238,-157.362 1108.844,-236.103 373.132,-79.493 746.265,-158.985 1119.385,-238.541 4.142,-0.883 8.102,-2.621 12.725,-4.152 v -39.412 c -38.935,8.106 -76.643,15.803 -114.282,23.818 -397.072,84.549 -794.13,169.163 -1191.198,253.73 C 718.11,-191.818 359.053,-115.385 0,-38.936 0,-25.957 0,-12.979 0,0" style="fill:#231916;fill-opacity:1;fill-rule:nonzero;stroke:none" transform="matrix(1.3333333,0,0,-1.3333333,5.7684,3132.2061)" clip-path="url(#clipPath9)" />
      <path id="path10" d="m 0,0 c 46.503,-9.22 93.123,-17.894 139.492,-27.748 369.603,-78.539 739.162,-157.29 1108.73,-235.999 373.802,-79.609 747.601,-159.24 1121.387,-238.925 4.182,-0.892 8.182,-2.637 12.985,-4.22 v -38.817 c -44.652,9.338 -88.039,18.272 -131.365,27.494 -310.442,66.079 -620.882,132.168 -931.302,198.346 C 881.379,-226.376 442.848,-132.803 4.305,-39.288 2.908,-38.99 1.437,-39.046 0,-38.936 0,-25.958 0,-12.979 0,0" style="fill:#231916;fill-opacity:1;fill-rule:nonzero;stroke:none" transform="matrix(1.3333333,0,0,-1.3333333,5.7682667,3062.9861)" clip-path="url(#clipPath11)" />
      <path id="path12" d="m 0,0 c 57.79,-11.689 115.683,-22.895 173.352,-35.151 283.018,-60.145 565.971,-120.594 848.956,-180.89 446.953,-95.234 893.914,-190.429 1340.866,-285.67 6.301,-1.342 12.521,-3.063 19.346,-4.748 v -39.291 c -51.745,11.077 -102.137,21.921 -152.554,32.648 C 1791.428,-419.8 1352.868,-326.606 914.353,-233.201 614.5,-169.331 314.71,-105.172 14.882,-41.187 9.984,-40.142 4.963,-39.674 0,-38.936 0,-25.958 0,-12.979 0,0" style="fill:#231916;fill-opacity:1;fill-rule:nonzero;stroke:none" transform="matrix(1.3333333,0,0,-1.3333333,5.7682667,2993.7661)" clip-path="url(#clipPath13)" />
      <path id="path14" d="m 0,0 c 77.478,-16.024 155.037,-31.672 232.421,-48.137 343.49,-73.086 686.922,-146.444 1030.39,-219.629 366.654,-78.126 733.327,-156.163 1099.984,-234.277 6.318,-1.346 12.533,-3.181 19.647,-5.006 v -37.941 c -71.409,15.007 -141.715,29.611 -211.944,44.569 -356.116,75.847 -712.213,151.778 -1068.314,227.696 C 739.761,-195.46 377.343,-118.172 14.911,-40.95 10.02,-39.908 4.974,-39.591 0,-38.936 0,-25.957 0,-12.979 0,0" style="fill:#231916;fill-opacity:1;fill-rule:nonzero;stroke:none" transform="matrix(1.3333333,0,0,-1.3333333,5.7682667,2924.5463)" clip-path="url(#clipPath15)" />
      <path id="path16" d="m 0,0 c 99.273,-20.948 198.573,-41.766 297.813,-62.866 389.373,-82.787 778.732,-165.634 1168.085,-248.514 299.907,-63.839 599.798,-127.755 899.685,-191.688 5.517,-1.176 10.901,-2.985 16.967,-4.671 v -37.106 c -50.679,10.63 -100.358,20.916 -149.978,31.481 -295.694,62.953 -591.378,125.948 -887.056,188.974 C 942.814,-238.55 540.13,-152.626 137.41,-66.867 91.697,-57.132 45.808,-48.227 0,-38.936 0,-25.958 0,-12.979 0,0" style="fill:#231916;fill-opacity:1;fill-rule:nonzero;stroke:none" transform="matrix(1.3333333,0,0,-1.3333333,5.7682667,2855.3263)" clip-path="url(#clipPath17)" />
      <path id="path18" d="m 0,0 c 218.248,-46.322 436.521,-92.527 654.739,-138.99 363.987,-77.501 727.931,-155.207 1091.91,-232.746 204.837,-43.636 409.711,-87.102 614.559,-130.689 6.937,-1.476 13.77,-3.433 21.272,-5.322 v -37.056 c -56.986,12.181 -112.987,24.189 -169.005,36.12 -382.961,81.565 -765.927,163.107 -1148.889,244.67 C 716.795,-189.94 369.009,-115.842 21.203,-41.836 14.245,-40.356 7.073,-39.88 0,-38.936 0,-25.958 0,-12.979 0,0" style="fill:#231916;fill-opacity:1;fill-rule:nonzero;stroke:none" transform="matrix(1.3333333,0,0,-1.3333333,5.7682667,2786.1064)" clip-path="url(#clipPath19)" />
      <path id="path20" d="m 0,0 c 290.683,-61.97 581.362,-123.964 872.051,-185.906 395.547,-84.284 791.106,-168.513 1186.652,-252.801 104.147,-22.193 208.267,-44.513 312.396,-66.787 3.431,-0.734 6.831,-1.607 11.19,-2.638 v -35.991 c -76.044,16.022 -151.237,31.717 -226.364,47.718 -349.796,74.5 -699.575,149.082 -1049.358,223.641 C 744.094,-195.501 381.625,-118.221 19.134,-41.045 12.889,-39.715 6.384,-39.612 0,-38.936 0,-25.958 0,-12.979 0,0" style="fill:#231916;fill-opacity:1;fill-rule:nonzero;stroke:none" transform="matrix(1.3333333,0,0,-1.3333333,5.7682667,2716.8864)" clip-path="url(#clipPath21)" />
      <path id="path22" d="m 0,0 c 175.272,-37.513 350.524,-75.125 525.822,-112.519 382.224,-81.537 764.466,-162.987 1146.711,-244.424 235.839,-50.246 471.696,-100.402 709.149,-150.939 v -35.853 c -54.785,11.486 -109.427,22.787 -164.001,34.412 -288.647,61.485 -577.274,123.07 -865.914,184.586 C 907.565,-230.067 463.36,-135.416 19.134,-40.86 12.902,-39.533 6.384,-39.547 0,-38.936 0,-25.957 0,-12.979 0,0" style="fill:#231916;fill-opacity:1;fill-rule:nonzero;stroke:none" transform="matrix(1.3333333,0,0,-1.3333333,5.7682667,2647.6665)" clip-path="url(#clipPath23)" />
      <path id="path24" d="m 0,0 c 92.843,-20.098 185.639,-40.413 278.537,-60.255 363.242,-77.582 726.493,-155.124 1089.785,-232.47 328.804,-70.003 657.662,-139.747 986.507,-209.558 30.896,-6.559 30.929,-6.406 26.633,-41.363 -54.876,11.732 -109.59,23.475 -164.325,35.124 -390.046,83.017 -780.104,165.976 -1170.142,249.029 C 701.312,-185.885 355.649,-112.186 9.994,-38.448 6.546,-37.713 3.326,-35.913 0,-34.61 0,-23.073 0,-11.537 0,0" style="fill:#231916;fill-opacity:1;fill-rule:nonzero;stroke:none" transform="matrix(1.3333333,0,0,-1.3333333,5.7682667,2578.4465)" clip-path="url(#clipPath25)" />
      <path id="path26" d="m 0,0 c 38.774,-7.296 77.715,-13.808 116.296,-22.009 384.468,-81.722 768.876,-163.728 1153.302,-245.644 366.079,-78.007 732.16,-155.998 1098.231,-234.037 4.831,-1.03 9.548,-2.597 14.798,-4.046 v -33.129 c -41.871,8.777 -82.471,17.181 -123.024,25.804 -377.417,80.244 -754.841,160.452 -1132.231,240.817 C 754.921,-192.931 382.506,-113.452 10.09,-33.975 6.622,-33.235 3.359,-31.535 0,-30.284 0,-20.189 0,-10.095 0,0" style="fill:#231916;fill-opacity:1;fill-rule:nonzero;stroke:none" transform="matrix(1.3333333,0,0,-1.3333333,5.7682667,2514.9951)" clip-path="url(#clipPath27)" />
      <path id="path28" d="m 0,0 c 47.193,-9.257 94.521,-17.878 141.557,-27.87 437.877,-93.009 875.713,-186.212 1313.542,-279.446 305.471,-65.049 610.913,-130.23 916.355,-195.413 3.464,-0.74 6.754,-2.299 10.957,-3.765 v -32.107 c -40.709,8.472 -79.982,16.483 -119.183,24.828 -506.792,107.89 -1013.575,215.82 -1520.356,323.757 C 498.628,-137.996 254.39,-85.946 10.163,-33.843 6.681,-33.1 3.384,-31.489 0,-30.284 0,-20.189 0,-10.095 0,0" style="fill:#231916;fill-opacity:1;fill-rule:nonzero;stroke:none" transform="matrix(1.3333333,0,0,-1.3333333,5.7682667,2445.7749)" clip-path="url(#clipPath29)" />
      <path id="path30" d="m 0,0 c 52.862,-10.518 105.85,-20.446 158.566,-31.654 287.862,-61.204 575.638,-122.813 863.479,-184.114 449.004,-95.624 898.037,-191.109 1347.046,-286.706 4.184,-0.89 8.212,-2.511 13.258,-4.085 v -31.938 c -40.014,8.463 -78.523,16.559 -117.009,24.757 -458.18,97.589 -916.354,195.198 -1374.532,292.792 C 598.024,-158.584 305.237,-96.241 12.46,-33.845 8.245,-32.947 4.151,-31.484 0,-30.284 0,-20.189 0,-10.095 0,0" style="fill:#231916;fill-opacity:1;fill-rule:nonzero;stroke:none" transform="matrix(1.3333333,0,0,-1.3333333,5.7682667,2376.5551)" clip-path="url(#clipPath31)" />
      <path id="path32" d="m 0,0 c 68.341,-14.082 136.755,-27.818 205.011,-42.304 354.861,-75.312 709.699,-150.735 1064.511,-226.274 365.375,-77.788 730.713,-155.75 1096.056,-233.69 5.562,-1.186 10.976,-3.071 16.985,-4.78 v -30.913 c -39.812,8.239 -78.278,15.997 -116.655,24.173 -376.621,80.237 -753.217,160.591 -1129.841,240.817 C 761.549,-193.193 387.008,-113.526 12.485,-33.772 8.267,-32.874 4.159,-31.458 0,-30.284 0,-20.189 0,-10.095 0,0" style="fill:#231916;fill-opacity:1;fill-rule:nonzero;stroke:none" transform="matrix(1.3333333,0,0,-1.3333333,5.7682667,2307.3352)" clip-path="url(#clipPath33)" />
      <path id="path34" d="m 0,0 c 65.492,-13.573 131.046,-26.852 196.464,-40.768 409.694,-87.153 819.358,-174.45 1229.032,-261.696 313.229,-66.706 626.462,-133.401 939.681,-200.156 5.559,-1.185 10.972,-3.052 17.257,-4.829 v -30.35 c -39.824,8.266 -78.332,16.083 -116.761,24.263 -296.341,63.083 -592.68,126.179 -888.995,189.383 C 987.445,-241.129 598.233,-158.003 209.012,-74.919 139.34,-60.046 69.671,-45.162 0,-30.284 0,-20.189 0,-10.095 0,0" style="fill:#231916;fill-opacity:1;fill-rule:nonzero;stroke:none" transform="matrix(1.3333333,0,0,-1.3333333,5.7682667,2238.1153)" clip-path="url(#clipPath35)" />
      <path id="path36" d="m 0,0 c 114.731,-24.338 229.467,-48.653 344.193,-73.018 230.913,-49.04 461.833,-98.047 692.728,-147.174 441.333,-93.903 882.65,-187.877 1323.965,-281.858 6.972,-1.485 13.842,-3.447 21.555,-5.386 v -30.382 C 1587.325,-368.434 793.662,-199.359 0,-30.284 0,-20.189 0,-10.095 0,0" style="fill:#231916;fill-opacity:1;fill-rule:nonzero;stroke:none" transform="matrix(1.3333333,0,0,-1.3333333,5.7682667,2168.8952)" clip-path="url(#clipPath37)" />
      <path id="path38" d="m 0,0 c 449.895,-95.763 899.793,-191.511 1349.683,-287.293 335.83,-71.499 671.651,-143.038 1007.469,-214.592 8.324,-1.774 16.567,-3.931 25.378,-6.037 v -29.499 C 1587.521,-368.198 793.761,-199.241 0,-30.284 0,-20.189 0,-10.094 0,0" style="fill:#231916;fill-opacity:1;fill-rule:nonzero;stroke:none" transform="matrix(1.3333333,0,0,-1.3333333,5.7682667,2099.6755)" clip-path="url(#clipPath39)" />
      <path id="path40" d="m 0,0 c 473.768,-100.914 947.551,-201.758 1421.299,-302.766 316.754,-67.535 633.459,-135.302 950.183,-202.976 3.396,-0.726 6.758,-1.611 10.903,-2.605 v -28.696 c -45.066,9.445 -89.101,18.544 -133.079,27.909 -371.012,79.01 -742.019,158.04 -1113.016,237.121 C 758.957,-191.581 381.637,-111.084 4.306,-30.64 2.909,-30.342 1.437,-30.395 0,-30.284 0,-20.189 0,-10.094 0,0" style="fill:#231916;fill-opacity:1;fill-rule:nonzero;stroke:none" transform="matrix(1.3333333,0,0,-1.3333333,5.7684,2030.4555)" clip-path="url(#clipPath41)" />
      <path id="path42" d="m 0,0 c 140.02,-30.123 279.987,-60.491 420.069,-90.321 368.869,-78.548 737.805,-156.776 1106.679,-235.299 281.575,-59.94 563.096,-120.134 844.638,-180.226 3.405,-0.727 6.777,-1.612 10.954,-2.612 v -28.3 c -44.317,9.376 -87.656,18.495 -130.973,27.719 -444.204,94.587 -888.419,189.124 -1332.601,283.814 C 616.061,-160.695 313.403,-95.941 10.712,-31.344 7.225,-30.6 3.574,-30.62 0,-30.284 0,-20.189 0,-10.095 0,0" style="fill:#231916;fill-opacity:1;fill-rule:nonzero;stroke:none" transform="matrix(1.3333333,0,0,-1.3333333,5.7682667,1961.2355)" clip-path="url(#clipPath43)" />
      <path id="path44" d="m 0,0 c 86.48,-18.754 172.909,-37.746 259.447,-56.223 416.602,-88.953 833.225,-177.804 1249.856,-266.618 284.345,-60.615 568.665,-121.344 853.176,-181.166 20.327,-4.274 25.046,-12.479 18.627,-32.097 -62.344,13.12 -124.807,26.123 -187.208,39.421 -342.755,73.042 -685.494,146.158 -1028.239,219.245 C 781.388,-195.496 397.118,-113.554 12.834,-31.674 8.647,-30.782 4.282,-30.729 0,-30.284 0,-20.189 0,-10.094 0,0" style="fill:#231916;fill-opacity:1;fill-rule:nonzero;stroke:none" transform="matrix(1.3333333,0,0,-1.3333333,5.7682667,1892.0157)" clip-path="url(#clipPath45)" />
      <path id="path46" d="m 0,0 c 78.655,-17.274 157.223,-34.957 235.98,-51.753 368.763,-78.642 737.586,-157.002 1106.373,-235.535 301.212,-64.144 602.406,-128.375 903.599,-192.606 44.972,-9.591 89.9,-19.39 136.053,-29.353 v -26.933 c -78.134,16.525 -155.41,32.767 -232.64,49.22 -437.041,93.106 -874.069,186.275 -1311.107,279.397 C 564.508,-149.235 290.75,-90.946 16.983,-32.7 11.403,-31.513 5.665,-31.073 0,-30.284 0,-20.189 0,-10.095 0,0" style="fill:#231916;fill-opacity:1;fill-rule:nonzero;stroke:none" transform="matrix(1.3333333,0,0,-1.3333333,5.7682667,1822.7956)" clip-path="url(#clipPath47)" />
      <path id="path48" d="m 0,0 c 45.118,-8.752 90.382,-16.818 135.331,-26.368 303.434,-64.47 606.794,-129.291 910.193,-193.93 440.653,-93.881 881.318,-187.7 1321.968,-281.589 4.871,-1.038 9.618,-2.654 15.082,-4.185 v -25.417 c -70.557,14.92 -140.013,29.525 -209.434,44.3 -410.424,87.352 -820.85,174.69 -1231.254,262.137 C 634.289,-159.51 326.727,-93.802 19.129,-28.258 12.874,-26.925 6.382,-26.699 0,-25.957 0,-17.305 0,-8.652 0,0" style="fill:#231916;fill-opacity:1;fill-rule:nonzero;stroke:none" transform="matrix(1.3333333,0,0,-1.3333333,5.7682667,1759.3441)" clip-path="url(#clipPath49)" />
      <path id="path50" d="m 0,0 c 57.8,-11.639 115.714,-22.743 173.382,-35.005 371.054,-78.893 742.054,-158.037 1113.07,-237.104 359.032,-76.513 718.064,-153.03 1077.09,-229.578 6.219,-1.326 12.351,-3.058 19.039,-4.73 v -24.755 c -50.028,10.54 -98.962,20.765 -147.858,31.164 -349.931,74.424 -699.872,148.794 -1049.773,223.356 C 850.547,-205.393 516.212,-133.82 181.792,-62.643 121.331,-49.774 60.604,-38.154 0,-25.958 0,-17.305 0,-8.653 0,0" style="fill:#231916;fill-opacity:1;fill-rule:nonzero;stroke:none" transform="matrix(1.3333333,0,0,-1.3333333,5.7682667,1690.1241)" clip-path="url(#clipPath51)" />
      <path id="path52" d="m 0,0 c 59.18,-12.113 118.441,-23.844 177.526,-36.4 417.502,-88.728 834.977,-177.583 1252.442,-266.484 312.564,-66.561 625.102,-133.244 937.64,-199.931 4.834,-1.032 9.51,-2.808 14.913,-4.432 v -23.886 c -64.042,13.632 -127.049,27.039 -190.053,40.454 -416.084,88.595 -832.169,177.18 -1248.249,265.79 C 636.553,-159.367 328.897,-93.798 21.214,-28.36 14.285,-26.886 7.077,-26.729 0,-25.958 0,-17.305 0,-8.653 0,0" style="fill:#231916;fill-opacity:1;fill-rule:nonzero;stroke:none" transform="matrix(1.3333333,0,0,-1.3333333,5.7682667,1620.904)" clip-path="url(#clipPath53)" />
      <path id="path54" d="m 0,0 c 85.254,-17.688 170.583,-35.026 255.748,-53.131 261.889,-55.672 523.703,-111.696 785.569,-167.475 441.396,-94.021 882.81,-187.956 1324.206,-281.976 5.548,-1.182 10.956,-3.024 16.969,-4.709 v -23.195 c -75.692,15.948 -150.21,31.51 -224.668,47.361 -370.3,78.83 -740.585,157.732 -1110.874,236.617 C 700.579,-172.718 354.208,-98.922 7.854,-25.051 5.117,-24.467 2.613,-22.795 0,-21.631 0,-14.421 0,-7.21 0,0" style="fill:#231916;fill-opacity:1;fill-rule:nonzero;stroke:none" transform="matrix(1.3333333,0,0,-1.3333333,5.7682667,1551.6843)" clip-path="url(#clipPath55)" />
      <path id="path56" d="m 0,0 c 166.228,-35.088 332.498,-69.977 498.674,-105.31 261.207,-55.539 522.34,-111.427 783.523,-167.079 360.472,-76.809 720.962,-153.53 1081.43,-230.351 6.235,-1.329 12.302,-3.442 18.964,-5.335 v -22.071 c -41.211,8.567 -81.143,16.699 -121,25.179 -357.673,76.099 -715.341,152.221 -1072.994,228.41 C 795.75,-192.871 402.919,-109.11 10.096,-25.313 6.627,-24.573 3.361,-22.88 0,-21.631 0,-14.421 0,-7.21 0,0" style="fill:#231916;fill-opacity:1;fill-rule:nonzero;stroke:none" transform="matrix(1.3333333,0,0,-1.3333333,5.7682667,1482.4643)" clip-path="url(#clipPath57)" />
      <path id="path58" d="m 0,0 c 254.127,-54.017 508.266,-107.976 762.378,-162.064 451.19,-96.035 902.37,-192.119 1353.539,-288.255 88.581,-18.875 177.091,-38.08 266.409,-57.3 v -22.308 c -40.669,8.452 -79.902,16.42 -119.053,24.771 -274.491,58.549 -548.956,117.222 -823.447,175.769 -411.754,87.824 -823.53,175.542 -1235.278,263.393 C 136.317,-51.436 68.18,-36.43 0,-21.631 0,-14.421 0,-7.21 0,0" style="fill:#231916;fill-opacity:1;fill-rule:nonzero;stroke:none" transform="matrix(1.3333333,0,0,-1.3333333,5.7682667,1413.2443)" clip-path="url(#clipPath59)" />
      <path id="path60" d="m 0,0 c 223.065,-47.603 446.12,-95.257 669.199,-142.799 381.423,-81.288 762.857,-162.528 1144.295,-243.746 181.592,-38.666 363.224,-77.152 544.769,-116.04 12.287,-2.632 31.745,-0.712 22.548,-26.545 -39.272,8.187 -78.514,16.219 -117.69,24.559 -430.725,91.694 -861.44,183.427 -1292.155,275.166 C 651.461,-161.352 331.961,-93.281 12.468,-25.175 8.252,-24.277 4.153,-22.825 0,-21.631 0,-14.421 0,-7.21 0,0" style="fill:#231916;fill-opacity:1;fill-rule:nonzero;stroke:none" transform="matrix(1.3333333,0,0,-1.3333333,5.7682667,1344.0245)" clip-path="url(#clipPath61)" />
      <path id="path62" d="m 0,0 c 99.896,-21.54 199.751,-43.271 299.696,-64.582 294.971,-62.896 589.981,-125.611 884.969,-188.424 273.854,-58.313 547.707,-116.626 821.545,-175.011 120.383,-25.666 240.684,-51.723 361.153,-76.974 13.452,-2.82 19.502,-7.278 13.623,-23.95 -38.844,8.085 -77.983,16.063 -117.046,24.387 -348.491,74.264 -696.953,148.66 -1045.453,222.877 C 816.506,-196.071 414.495,-110.61 12.505,-25.05 8.285,-24.152 4.166,-22.781 0,-21.631 0,-14.421 0,-7.21 0,0" style="fill:#231916;fill-opacity:1;fill-rule:nonzero;stroke:none" transform="matrix(1.3333333,0,0,-1.3333333,5.7682667,1274.8044)" clip-path="url(#clipPath63)" />
      <path id="path64" d="m 0,0 c 99.138,-21.578 198.202,-43.505 297.427,-64.674 430.063,-91.749 860.179,-183.251 1290.264,-274.896 259.729,-55.344 519.417,-110.878 779.214,-165.9 13.053,-2.764 20.242,-6.352 14.036,-23.291 -38.186,7.928 -76.66,15.73 -115.054,23.913 C 1754.143,-395.788 1242.419,-286.635 730.671,-177.59 492.022,-126.738 253.333,-76.073 14.668,-25.295 9.742,-24.247 4.888,-22.86 0,-21.631 0,-14.421 0,-7.21 0,0" style="fill:#231916;fill-opacity:1;fill-rule:nonzero;stroke:none" transform="matrix(1.3333333,0,0,-1.3333333,5.7682667,1205.5847)" clip-path="url(#clipPath65)" />
      <path id="path66" d="m 0,0 c 46.514,-8.917 93.196,-17.045 139.516,-26.878 303.357,-64.397 606.64,-129.141 909.939,-193.812 438.406,-93.481 876.797,-187.032 1315.244,-280.318 12.323,-2.622 23.581,-3.897 15.942,-23.272 C 1587.204,-355.312 793.602,-186.308 0,-17.305 0,-11.537 0,-5.768 0,0" style="fill:#231916;fill-opacity:1;fill-rule:nonzero;stroke:none" transform="matrix(1.3333333,0,0,-1.3333333,5.7682667,1142.1329)" clip-path="url(#clipPath67)" />
      <path id="path68" d="m 0,0 c 52.874,-10.448 105.889,-20.238 158.601,-31.45 375.933,-79.957 751.8,-160.229 1127.698,-240.355 359.702,-76.673 719.411,-153.31 1079.145,-229.834 11.163,-2.375 22.249,-3.638 15.657,-22.186 -43.845,9.15 -87.932,18.186 -131.945,27.563 -342.816,73.041 -685.618,146.148 -1028.423,219.234 C 815.258,-190.581 409.783,-104.134 4.303,-17.709 2.904,-17.411 1.436,-17.433 0,-17.305 0,-11.537 0,-5.768 0,0" style="fill:#231916;fill-opacity:1;fill-rule:nonzero;stroke:none" transform="matrix(1.3333333,0,0,-1.3333333,5.7682667,1072.9132)" clip-path="url(#clipPath69)" />
      <path id="path70" d="m 0,0 c 52.837,-10.632 105.78,-20.765 158.494,-31.975 457.566,-97.306 915.096,-194.789 1372.628,-292.255 278.046,-59.232 556.077,-118.535 834.124,-177.759 10.703,-2.279 22.296,-3.399 16.087,-21.821 -43.524,9.098 -86.93,18.025 -130.271,27.253 -500.487,106.57 -1000.976,213.129 -1501.439,319.813 C 501.16,-123.778 252.75,-70.558 4.309,-17.486 2.923,-17.19 1.439,-17.355 0,-17.305 0,-11.537 0,-5.768 0,0" style="fill:#231916;fill-opacity:1;fill-rule:nonzero;stroke:none" transform="matrix(1.3333333,0,0,-1.3333333,5.7682667,1003.6931)" clip-path="url(#clipPath71)" />
      <path id="path72" d="m 0,0 c 64.824,-13.215 129.747,-25.96 194.454,-39.726 288.589,-61.395 577.101,-123.153 865.67,-184.648 434.25,-92.539 868.527,-184.956 1302.771,-277.525 10.233,-2.182 25.206,-0.813 18.241,-21.597 -58.222,12.448 -116.342,24.927 -174.485,37.298 -368.127,78.331 -736.272,156.582 -1104.388,234.969 C 739.794,-174.044 377.354,-96.724 14.892,-19.51 9.993,-18.466 4.967,-18.027 0,-17.305 0,-11.537 0,-5.768 0,0" style="fill:#231916;fill-opacity:1;fill-rule:nonzero;stroke:none" transform="matrix(1.3333333,0,0,-1.3333333,5.7682667,934.47307)" clip-path="url(#clipPath73)" />
      <path id="path74" d="m 0,0 c 102.113,-21.478 204.266,-42.765 306.332,-64.468 331.644,-70.518 663.254,-141.194 994.88,-211.799 353.434,-75.248 706.879,-150.45 1060.27,-225.901 10.057,-2.147 27.087,0.195 19.557,-21.06 -125.237,26.566 -249.824,52.904 -374.372,79.431 -423.849,90.274 -847.685,180.608 -1271.523,270.932 C 495.063,-121.701 254.988,-70.503 14.899,-19.377 10.007,-18.336 4.969,-17.98 0,-17.305 0,-11.537 0,-5.768 0,0" style="fill:#231916;fill-opacity:1;fill-rule:nonzero;stroke:none" transform="matrix(1.3333333,0,0,-1.3333333,5.7682667,865.25333)" clip-path="url(#clipPath75)" />
      <path id="path76" d="m 0,0 c 126.018,-26.701 252.053,-53.326 378.052,-80.116 383.017,-81.44 766.028,-162.906 1149.026,-244.435 278.763,-59.34 557.516,-118.733 836.185,-178.515 8.36,-1.794 24.573,0.923 18.131,-19.902 -49.659,10.424 -99.35,20.72 -148.982,31.294 -417.456,88.939 -834.91,177.888 -1252.347,266.918 C 659.047,-156.291 338.056,-87.697 17.034,-19.244 11.471,-18.057 5.683,-17.928 0,-17.305 0,-11.537 0,-5.768 0,0" style="fill:#231916;fill-opacity:1;fill-rule:nonzero;stroke:none" transform="matrix(1.3333333,0,0,-1.3333333,5.7682667,796.03333)" clip-path="url(#clipPath77)" />
      <path id="path78" d="m 0,0 c 423.703,-90.294 847.393,-180.649 1271.114,-270.862 362.481,-77.174 725.011,-154.112 1087.41,-231.672 9.086,-1.944 26.752,2.566 24.029,-20.169 -56.635,11.909 -111.994,23.418 -167.295,35.199 -403.324,85.92 -806.633,171.907 -1209.952,257.849 C 676.587,-159.61 347.861,-89.589 19.12,-19.644 12.864,-18.313 6.378,-18.061 0,-17.305 0,-11.537 0,-5.769 0,0" style="fill:#231916;fill-opacity:1;fill-rule:nonzero;stroke:none" transform="matrix(1.3333333,0,0,-1.3333333,5.7682667,726.8132)" clip-path="url(#clipPath79)" />
      <path id="path80" d="m 0,0 c 175.947,-37.53 351.893,-75.061 527.84,-112.591 341.306,-72.803 682.601,-145.659 1023.923,-218.39 268.146,-57.139 536.346,-114.027 804.408,-171.561 9.742,-2.092 26.514,1.523 27.881,-20.45 -66.124,14.068 -129.226,27.491 -192.327,40.918 -314.6,66.944 -629.212,133.827 -943.795,200.849 C 838.331,-193.96 428.757,-106.577 19.152,-19.343 12.906,-18.013 6.39,-17.956 0,-17.305 Z" style="fill:#231916;fill-opacity:1;fill-rule:nonzero;stroke:none" transform="matrix(1.3333333,0,0,-1.3333333,5.7682667,657.59347)" clip-path="url(#clipPath81)" />
      <path id="path82" d="m 0,0 c 132.941,-28.652 265.829,-57.55 398.833,-85.906 329.38,-70.222 658.821,-140.156 988.221,-210.281 294.224,-62.635 588.428,-125.361 882.634,-188.074 33.071,-7.05 66.16,-14.032 99.098,-21.664 5.784,-1.34 10.856,-5.756 16.256,-8.751 -1.055,-2.468 -2.11,-4.935 -3.165,-7.402 -41.144,8.578 -82.32,17.007 -123.428,25.756 -493.39,105.021 -986.786,210.014 -1480.145,315.176 C 522.845,-126.693 267.453,-71.926 12.048,-17.219 7.919,-16.335 4.011,-14.415 0,-12.979 0,-8.653 0,-4.326 0,0" style="fill:#231916;fill-opacity:1;fill-rule:nonzero;stroke:none" transform="matrix(1.3333333,0,0,-1.3333333,5.7682667,588.37347)" clip-path="url(#clipPath83)" />
      <path id="path84" d="m 0,0 c 78.713,-17.171 157.355,-34.678 236.151,-51.46 516.686,-110.044 1033.417,-219.873 1550.107,-329.899 193.582,-41.221 387.101,-82.741 580.599,-124.355 6.22,-1.338 11.895,-5.211 17.825,-7.901 -0.789,-2.361 -1.578,-4.721 -2.367,-7.081 -12.957,2.213 -26.012,3.965 -38.857,6.705 -449.777,95.954 -899.515,192.089 -1349.299,288.005 C 667.564,-156.34 340.91,-86.971 14.297,-17.412 9.437,-16.377 4.761,-14.476 0,-12.979 0,-8.652 0,-4.326 0,0" style="fill:#231916;fill-opacity:1;fill-rule:nonzero;stroke:none" transform="matrix(1.3333333,0,0,-1.3333333,5.7682667,519.15373)" clip-path="url(#clipPath85)" />
      <path id="path86" d="m 0,0 c 45.832,-8.839 91.821,-16.934 137.47,-26.634 391.482,-83.188 782.91,-166.63 1174.339,-250.067 351.285,-74.881 702.555,-149.833 1053.795,-224.924 6.556,-1.402 12.659,-4.921 18.974,-7.453 l -2.309,-7.513 c -19.809,3.81 -39.691,7.28 -59.417,11.48 -594.207,126.54 -1188.401,253.148 -1782.594,379.757 C 364.236,-87.848 188.218,-50.315 12.215,-12.718 8.044,-11.827 4.067,-10.028 0,-8.653 0,-5.768 0,-2.884 0,0" style="fill:#231916;fill-opacity:1;fill-rule:nonzero;stroke:none" transform="matrix(1.3333333,0,0,-1.3333333,5.7682667,455.70187)" clip-path="url(#clipPath87)" />
      <path id="path88" d="m 0,0 c 46.5,-9.163 93.128,-17.728 139.481,-27.581 437.795,-93.057 875.55,-186.303 1313.303,-279.559 304.72,-64.916 609.421,-129.923 914.108,-194.998 5.763,-1.231 11.237,-3.813 16.846,-5.764 -0.279,-2.135 -0.558,-4.269 -0.837,-6.404 -6.88,0.348 -13.959,-0.242 -20.611,1.176 -455.336,97.034 -910.618,194.32 -1365.948,291.382 C 667.682,-151.689 338.962,-81.914 10.279,-11.96 6.777,-11.215 3.423,-9.771 0,-8.652 0,-5.768 0,-2.884 0,0" style="fill:#231916;fill-opacity:1;fill-rule:nonzero;stroke:none" transform="matrix(1.3333333,0,0,-1.3333333,5.7682667,386.48213)" clip-path="url(#clipPath89)" />
      <path id="path90" d="m 0,0 c 59.218,-11.931 118.549,-23.336 177.636,-35.884 296.406,-62.943 592.751,-126.175 889.112,-189.326 432.945,-92.256 865.889,-184.52 1298.81,-276.891 6.317,-1.348 12.327,-4.131 18.48,-6.244 l -1.469,-6.105 c -5.766,0.34 -11.69,-0.064 -17.275,1.125 -318.937,67.885 -637.834,135.961 -956.761,203.893 C 1045.971,-232.206 683.368,-155.17 320.817,-77.894 213.819,-55.088 106.936,-31.748 0,-8.653 Z" style="fill:#231916;fill-opacity:1;fill-rule:nonzero;stroke:none" transform="matrix(1.3333333,0,0,-1.3333333,5.7682667,317.26213)" clip-path="url(#clipPath91)" />
      <path id="path92" d="m 0,0 c 78.914,-16.303 157.912,-32.212 236.728,-48.975 356.206,-75.76 712.356,-151.785 1068.535,-227.669 353.351,-75.281 706.716,-150.495 1060.05,-225.854 6.354,-1.356 12.399,-4.159 18.588,-6.286 -0.558,-2.077 -1.115,-4.153 -1.673,-6.229 -6.46,0.861 -13.012,1.293 -19.368,2.645 -361.81,76.962 -723.601,154.014 -1085.401,231.028 C 855.804,-191.585 434.143,-101.861 12.493,-12.087 8.276,-11.19 4.162,-9.808 0,-8.653 0,-5.768 0,-2.884 0,0" style="fill:#231916;fill-opacity:1;fill-rule:nonzero;stroke:none" transform="matrix(1.3333333,0,0,-1.3333333,5.7682667,248.042)" clip-path="url(#clipPath93)" />
      <path id="path94" d="m 0,0 c 92.234,-19.344 184.516,-38.463 276.695,-58.072 423.723,-90.137 847.421,-180.397 1271.121,-270.643 271.687,-57.867 543.366,-115.769 815.026,-173.761 7.062,-1.507 13.864,-4.233 20.787,-6.39 -0.529,-2.091 -1.059,-4.181 -1.589,-6.272 -12.112,2.104 -24.308,3.81 -36.323,6.368 C 1833.301,-399.684 1320.89,-290.574 808.504,-181.35 538.979,-123.896 269.5,-66.225 0,-8.652 0,-5.768 0,-2.884 0,0" style="fill:#231916;fill-opacity:1;fill-rule:nonzero;stroke:none" transform="matrix(1.3333333,0,0,-1.3333333,5.7682667,178.82227)" clip-path="url(#clipPath95)" />
      <path id="path96" d="m 0,0 c 186.498,-39.603 373.007,-79.152 559.491,-118.819 410.332,-87.281 820.652,-174.618 1230.976,-261.937 191.448,-40.741 382.898,-81.479 574.328,-122.307 6.36,-1.357 12.513,-3.689 18.763,-5.566 -0.633,-2.385 -1.267,-4.771 -1.901,-7.157 C 1587.771,-346.741 793.886,-177.697 0,-8.653 0,-5.768 0,-2.884 0,0" style="fill:#231916;fill-opacity:1;fill-rule:nonzero;stroke:none" transform="matrix(1.3333333,0,0,-1.3333333,5.7682667,109.60227)" clip-path="url(#clipPath97)" />
      <path id="path98" d="m 0,0 c 372.977,-79.375 745.966,-158.691 1118.927,-238.14 353.952,-75.4 707.872,-150.949 1061.812,-226.407 59.11,-12.602 118.255,-25.038 177.36,-37.659 8.547,-1.825 16.965,-4.256 25.442,-6.406 -0.565,-2.159 -1.131,-4.318 -1.697,-6.478 -30.456,6.203 -60.963,12.168 -91.362,18.642 C 1716.276,-374.17 1142.085,-251.821 567.886,-129.511 378.598,-89.191 189.296,-48.937 0,-8.653 0,-5.768 0,-2.884 0,0" style="fill:#231916;fill-opacity:1;fill-rule:nonzero;stroke:none" transform="matrix(1.3333333,0,0,-1.3333333,5.7682667,40.382267)" clip-path="url(#clipPath99)" />
      <path id="path100" d="m 0,0 c 50.287,-11.481 100.441,-23.583 150.881,-34.343 349.014,-74.454 698.095,-148.594 1047.14,-222.902 314.533,-66.96 629.051,-133.989 943.565,-201.035 36.991,-7.885 73.918,-16.066 110.382,-28.871 -3.932,0 -8.013,-0.702 -11.774,0.1 -420.817,89.729 -841.579,179.711 -1262.413,269.36 -328.62,70.004 -657.332,139.582 -985.973,209.49 -8.981,1.91 -17.62,5.431 -26.418,8.201 z" style="fill:#231916;fill-opacity:1;fill-rule:nonzero;stroke:none" transform="matrix(1.3333333,0,0,-1.3333333,178.81813,5.7725333)" clip-path="url(#clipPath101)" />
      <path id="path102" d="m 0,0 c 49.514,-11.395 98.883,-23.473 148.567,-34.072 308.777,-65.873 617.63,-131.385 926.445,-197.075 302.478,-64.343 604.944,-128.745 907.402,-193.181 9.46,-2.015 18.779,-4.698 26.963,-12.083 -21.874,4.344 -43.805,8.418 -65.613,13.072 -436.103,93.07 -872.166,186.327 -1308.294,279.277 C 421.611,-98.484 207.629,-53.485 -6.259,-8.048 -14.467,-6.304 -22.284,-2.724 -30.284,0 Z" style="fill:#231916;fill-opacity:1;fill-rule:nonzero;stroke:none" transform="matrix(1.3333333,0,0,-1.3333333,501.84453,5.7725333)" clip-path="url(#clipPath103)" />
      <path id="path104" d="m 0,0 c 50.917,-11.608 101.709,-23.805 152.773,-34.727 315.02,-67.38 630.097,-134.492 945.164,-201.656 218.715,-46.624 437.443,-93.182 656.152,-139.834 4.634,-0.989 9.101,-2.76 12.677,-8.345 -35.921,7.456 -71.877,14.751 -107.758,22.392 -322.831,68.754 -645.654,137.541 -968.468,206.374 C 454.227,-105.408 217.929,-54.945 -18.356,-4.423 -22.46,-3.546 -26.313,-1.5 -30.284,0 Z" style="fill:#231916;fill-opacity:1;fill-rule:nonzero;stroke:none" transform="matrix(1.3333333,0,0,-1.3333333,824.8708,5.7725333)" clip-path="url(#clipPath105)" />
      <path id="path106" d="m 0,0 c 49.454,-11.422 98.761,-23.53 148.386,-34.151 255.187,-54.616 510.455,-108.857 765.697,-163.216 199.009,-42.382 398.024,-84.736 597.02,-127.178 4.701,-1.003 9.21,-2.902 12.911,-8.103 -40.247,8.595 -80.49,17.209 -120.741,25.782 C 1167.027,-256.551 930.79,-206.19 694.528,-155.951 461.748,-106.452 228.935,-57.106 -3.829,-7.532 -11.397,-5.92 -18.59,-2.55 -25.957,0 Z" style="fill:#231916;fill-opacity:1;fill-rule:nonzero;stroke:none" transform="matrix(1.3333333,0,0,-1.3333333,1147.8972,5.7725333)" clip-path="url(#clipPath107)" />
      <path id="path108" d="m 0,0 c 113.161,-24.43 226.29,-49.011 339.492,-73.253 148.366,-31.772 296.791,-63.275 445.186,-94.91 2.661,-0.567 5.278,-1.343 7.671,-6.777 -5.214,0.472 -10.541,0.413 -15.626,1.494 C 529.08,-120.808 281.459,-68.065 33.829,-15.367 22.586,-12.974 11.278,-10.884 0,-8.652 0,-5.768 0,-2.884 0,0" style="fill:#ffffff;fill-opacity:1;fill-rule:nonzero;stroke:none" transform="matrix(1.3333333,0,0,-1.3333333,5.7682667,3461.0007)" />
      <path id="path109" d="m 0,0 c 64.655,-13.237 129.381,-26.134 193.948,-39.787 107.417,-22.713 214.737,-45.88 322.059,-69.036 3.611,-0.779 6.801,-3.509 10.188,-5.329 l 0.355,0.423 c -57.663,11.732 -115.4,23.115 -172.974,35.268 C 239.021,-54.283 124.549,-29.713 10.084,-5.11 6.614,-4.364 3.608,-1.458 0.385,0.441 Z" style="fill:#231916;fill-opacity:1;fill-rule:nonzero;stroke:none" transform="matrix(1.3333333,0,0,-1.3333333,1846.8339,91.3044)" />
      <path id="path110" d="m 0,0 c -30.843,5.317 -61.837,9.889 -92.496,16.108 -63.144,12.808 -126.108,26.496 -189.147,39.822 0.372,1.781 0.744,3.562 1.116,5.343 C -187.162,40.682 -93.798,20.092 -0.409,-0.469 -0.385,-0.441 0,0 0,0" style="fill:#231916;fill-opacity:1;fill-rule:nonzero;stroke:none" transform="matrix(1.3333333,0,0,-1.3333333,1847.3472,90.7168)" />
      <path id="path111" d="m 0,0 c 33.776,-5.871 67.586,-11.552 101.309,-17.71 12.622,-2.306 25.041,-5.724 36.5,-13.573 C 92.003,-20.701 46.196,-10.119 0.372,0.443 0.356,0.423 0,0 0,0" style="fill:#231916;fill-opacity:1;fill-rule:nonzero;stroke:none" transform="matrix(1.3333333,0,0,-1.3333333,2548.4265,243.50693)" />
      <path id="path112" d="m 0,0 c 40.8,-8.628 81.6,-17.256 122.399,-25.884 -0.319,-1.515 -0.638,-3.03 -0.957,-4.544 C 80.654,-21.748 39.865,-13.067 -0.923,-4.386 -0.615,-2.924 -0.308,-1.462 0,0" style="fill:#231916;fill-opacity:1;fill-rule:nonzero;stroke:none" transform="matrix(1.3333333,0,0,-1.3333333,3017.2344,338.7276)" clip-path="url(#clipPath113)" />
      <path id="path114" d="m 0,0 c 328.001,-69.872 656.002,-139.743 984.003,-209.615 -0.407,-1.909 -0.815,-3.817 -1.223,-5.726 -328,69.88 -655.999,139.76 -983.999,209.639 C -0.812,-3.801 -0.406,-1.901 0,0" style="fill:#ffffff;fill-opacity:1;fill-rule:nonzero;stroke:none" transform="matrix(1.3333333,0,0,-1.3333333,1492.0207,3917.9859)" />
      <path id="path115" d="m 0,0 c 249.953,-53.328 499.905,-106.655 749.858,-159.983 -0.357,-1.663 -0.713,-3.327 -1.069,-4.99 C 498.638,-111.625 248.487,-58.276 -1.664,-4.928 -1.109,-3.285 -0.555,-1.643 0,0" style="fill:#ffffff;fill-opacity:1;fill-rule:nonzero;stroke:none" transform="matrix(1.3333333,0,0,-1.3333333,1564.3625,4002.8693)" />
      <path id="path116" d="m 0,0 c -179.552,38.352 -359.105,76.703 -538.657,115.055 0.447,2.097 0.894,4.195 1.342,6.292 C -357.751,83.049 -178.188,44.751 1.376,6.453 0.917,4.302 0.459,2.151 0,0" style="fill:#ffffff;fill-opacity:1;fill-rule:nonzero;stroke:none" transform="matrix(1.3333333,0,0,-1.3333333,956.07227,3743.2767)" />
      <path id="path117" d="m 0,0 c 69.565,-14.827 139.13,-29.655 208.695,-44.482 -0.403,-1.862 -0.805,-3.724 -1.208,-5.586 C 137.929,-35.213 68.37,-20.358 -1.189,-5.503 -0.793,-3.669 -0.396,-1.834 0,0" style="fill:#ffffff;fill-opacity:1;fill-rule:nonzero;stroke:none" transform="matrix(1.3333333,0,0,-1.3333333,514.282,3709.8584)" />
      <path id="path118" d="m 0,0 c -27.568,6.045 -55.135,12.091 -82.703,18.136 0.27,1.295 0.541,2.59 0.811,3.884 C -54.239,16 -26.587,9.98 1.066,3.961 Z" style="fill:#ffffff;fill-opacity:1;fill-rule:nonzero;stroke:none" transform="matrix(1.3333333,0,0,-1.3333333,1756.0259,4119.5939)" />
      <path id="path119" d="m 0,0 c 328.001,-69.872 656.002,-139.743 984.003,-209.615 -0.408,-1.909 -0.816,-3.817 -1.223,-5.726 -328,69.88 -655.999,139.759 -983.999,209.639 z M 803.045,-228.636 C 552.894,-175.287 302.743,-121.939 52.593,-68.59 l 1.663,4.927 c 249.953,-53.327 499.905,-106.655 749.858,-159.983 -0.356,-1.663 -0.713,-3.327 -1.069,-4.99 m -605.041,77.43 c -27.568,6.045 -55.136,12.091 -82.703,18.136 0.27,1.295 0.54,2.59 0.811,3.884 27.652,-6.02 55.305,-12.04 82.958,-18.059 -0.355,-1.32 -0.711,-2.641 -1.066,-3.961 m -599.965,282.238 c -179.553,38.352 -359.105,76.703 -538.658,115.055 0.448,2.097 0.895,4.195 1.342,6.292 179.564,-38.298 359.128,-76.596 538.692,-114.894 -0.459,-2.151 -0.918,-4.302 -1.376,-6.453 m -123.856,-25.004 c -69.558,14.855 -139.117,29.709 -208.676,44.564 0.396,1.835 0.793,3.669 1.189,5.503 69.565,-14.827 139.13,-29.655 208.694,-44.482 -0.402,-1.862 -0.804,-3.723 -1.207,-5.585 M 1267.63,-165.57 v 43.999 C 472.936,47.745 -320.877,216.873 -1114.689,386.001 v -43.262 c 113.161,-24.43 226.29,-49.011 339.492,-73.253 148.366,-31.772 296.79,-63.275 445.186,-94.91 2.661,-0.568 5.277,-1.343 7.671,-6.778 -5.215,0.473 -10.542,0.414 -15.627,1.495 -247.643,52.638 -495.263,105.381 -742.893,158.079 -11.244,2.393 -22.551,4.483 -33.829,6.714 V -751.801 c 11.526,0.114 23.053,0.327 34.58,0.327 773.587,0.016 1547.174,0.015 2320.761,0.015 h 26.686 v 244.726 282.267 C 825.92,-130.432 386.044,-36.726 -53.833,56.98 c 0.453,2.139 0.906,4.277 1.358,6.416 439.669,-93.639 879.338,-187.279 1319.968,-281.123 v 44.649 C 801.998,-73.866 337.57,25.119 -126.858,124.103 c 0.499,2.325 0.997,4.649 1.495,6.974 C 338.54,32.286 802.444,-66.506 1267.63,-165.57" style="fill:#222120;fill-opacity:1;fill-rule:nonzero;stroke:none" transform="matrix(1.3333333,0,0,-1.3333333,1492.0208,3917.9859)" clip-path="url(#clipPath120)" />
      <path id="path121" d="m 5.4374656,-4.2654312 c 4.6523434,3.1054687 13.8281254,5.5546875 22.2421874,5.5546875 20.554688,0 30.515625,-11.6367183 30.515625,-25.0898433 0,-12.796875 -7.5,-19.910157 -22.242187,-25.605469 -12.023438,-4.652344 -17.332032,-8.660156 -17.332032,-16.804688 0,-5.953125 4.523438,-13.066406 16.429688,-13.066406 7.886719,0 13.710937,2.589844 16.546875,4.136719 l 3.105469,-9.175781 c -3.878907,-2.203125 -10.347657,-4.277344 -19.265625,-4.277344 -16.945313,0 -28.1953129,10.089844 -28.1953129,23.671875 0,12.28125 8.7890629,19.652344 23.0156249,24.703125 11.777344,4.523437 16.429688,9.175781 16.429688,17.332031 0,8.789063 -6.726563,14.8710938 -18.234375,14.8710938 -7.757813,0 -15.128907,-2.5898438 -20.1796879,-5.6953128 z M 118.58786,-27.421681 127.90426,1.9375e-4 H 139.9277 L 110.18551,-87.163869 H 96.603481 L 66.9902,1.9375e-4 H 78.626919 L 87.685512,-27.421681 Z m -28.582035,-8.789063 8.542969,-25.21875 c 1.675776,-5.308593 3.105466,-10.605468 4.394526,-15.773437 h 0.25782 c 1.28906,5.039062 2.58984,10.207031 4.52343,15.902344 l 8.54297,25.089843 z M 159.32516,1.9375e-4 h 11.39063 V -77.601369 h 26.63671 v -9.5625 h -64.53515 v 9.5625 h 26.50781 z m 47.5957,-87.16406275 v 51.339844 c 0,27.0351563 13.44141,37.2421875 31.28907,37.2421875 18.89062,0 32.98828,-10.9921875 32.98828,-37.7578125 v -50.824219 h -11.39063 v 51.597657 c 0,19.265625 -8.27343,27.8085933 -21.19922,27.8085933 -11.64843,0 -20.30859,-8.2734373 -20.30859,-27.8085933 V -87.163869 Z M 290.72457,1.9375e-4 h 11.25 V -37.769337 h 10.60547 c 10.21875,0.398437 14.8711,4.921875 17.46094,16.945312 2.44922,10.8632813 4.39453,18.3632813 5.8125,20.82421875 h 11.64844 c -1.81641,-3.36328125 -3.89063,-11.76562475 -6.72656,-23.92968775 -2.07422,-9.046875 -6.08204,-15.257812 -12.8086,-17.589843 v -0.386719 c 9.1875,-3.105469 16.42969,-10.734375 16.42969,-22.242188 0,-6.726562 -2.46094,-12.667968 -6.85547,-16.546875 -5.4375,-4.921875 -13.19531,-7.113281 -25.21875,-7.113281 -7.75781,0 -15.91406,0.644531 -21.59766,1.804688 z m 11.25,-78.11718775 c 1.80469,-0.515625 5.6836,-1.03125 11.1211,-1.03125 11.89453,0.128907 20.05078,5.039063 20.05078,16.300782 0,9.949218 -7.64063,16.546875 -19.66406,16.546875 h -11.50782 z m 58.32422,77.85937525 c 5.6836,0.64453125 12.41016,1.03125 20.42578,1.03125 16.94532,0 30.39844,-4.39453125 38.54297,-12.53906225 8.14453,-8.027344 12.55078,-19.664063 12.55078,-33.890625 0,-14.097656 -4.53515,-24.175781 -12.29296,-31.289063 -7.62891,-7.113281 -19.13672,-10.863281 -35.3086,-10.863281 -8.91797,0 -17.0625,0.773438 -23.91797,1.804688 z m 11.25,-77.47265625 c 2.97657,-0.644531 7.3711,-1.160156 13.19532,-1.160156 23.78906,0 35.42578,13.066406 35.29687,33.621094 0,23.542968 -13.05469,36.9960933 -37.11328,36.9960933 -4.39453,0 -8.53125,-0.1289063 -11.37891,-0.6445313 z m 118.06934,50.308594 9.31641,27.42187475 h 12.02343 L 481.21579,-87.163869 H 467.63375 L 438.02047,1.9375e-4 h 11.63672 l 9.0586,-27.42187475 z m -28.58203,-8.789063 8.54297,-25.21875 c 1.67578,-5.308593 3.10547,-10.605468 4.39453,-15.773437 h 0.25781 c 1.28906,5.039062 2.58984,10.207031 4.52344,15.902344 l 8.54297,25.089843 z M 544.32125,1.9375e-4 V -37.113087 l 29.22657,-50.050782 h -12.79688 l -12.55078,24.046875 c -3.36328,6.597657 -6.32812,12.292969 -8.78906,17.976563 h -0.25781 c -2.71875,-6.070313 -5.3086,-11.378906 -8.67188,-17.976563 l -12.28125,-24.046875 h -12.80859 l 27.55078,50.179688 V 1.9375e-4 Z M 45.140591,26.633983 c -23.285157,0 -40.4882816,18.105469 -40.4882816,45.785156 0,26.378906 16.1718746,44.226561 39.1874996,44.226561 22.242188,0 40.476563,-15.90234 40.476563,-45.902342 0,-25.875 -15.386719,-44.109375 -39.175781,-44.109375 z m -0.527344,9.1875 c 18.761719,0 27.808594,18.105469 27.808594,35.4375 0,19.78125 -10.089844,36.210937 -27.9375,36.210937 -17.71875,0 -27.796875,-16.6875 -27.796875,-35.308593 0,-19.136719 9.304687,-36.339844 27.925781,-36.339844 z M 157.51754,103.46211 c -4.52343,2.1914 -11.50781,3.62109 -18.36328,3.62109 -21.21094,0 -33.49219,-13.710936 -33.49219,-35.05078 0,-22.886718 13.57032,-35.953125 34.00782,-35.953125 7.24218,0 13.32422,1.546875 17.58984,3.621094 l 2.71875,-9.1875 c -2.97656,-1.546875 -9.83203,-3.878906 -20.69531,-3.878906 -27.03516,0 -45.527345,18.492187 -45.527345,45.785156 0,28.582031 18.492185,44.097661 43.066405,44.097661 10.60547,0 18.89063,-2.0625 23.02734,-4.13672 z m 36.59473,11.76562 H 205.5029 V 37.62617 h 26.63671 v -9.5625 h -64.53515 v 9.5625 h 26.50781 z m 124.80762,0 v -9.44531 h -37.76953 v -0.25781 l 6.72656,-6.199221 c 17.71875,-17.074219 28.96875,-29.625 28.96875,-45.140625 0,-12.023437 -7.62891,-24.445312 -25.73438,-24.445312 -9.70312,0 -17.97656,3.621093 -23.80078,8.542968 l 3.6211,8.015625 c 3.8789,-3.234375 10.21875,-7.113281 17.84765,-7.113281 12.55078,0 16.6875,7.886719 16.6875,16.417969 -0.1289,12.679687 -9.83203,23.542969 -31.30078,43.980469 l -8.91797,8.660158 v 6.98437 z m 17.06543,15.12891 c 3.62109,-6.07031 9.30468,-20.42578 12.28125,-31.429688 l -12.66797,1.300778 c -1.42969,9.4336 -4.92188,23.27344 -7.75781,30.90235 z m 76.04883,-15.12891 v -9.44531 h -37.76954 v -0.25781 l 6.72657,-6.199221 c 17.71875,-17.074219 28.96875,-29.625 28.96875,-45.140625 0,-12.023437 -7.62891,-24.445312 -25.73438,-24.445312 -9.70312,0 -17.97656,3.621093 -23.80078,8.542968 l 3.62109,8.015625 c 3.87891,-3.234375 10.21875,-7.113281 17.84766,-7.113281 12.55078,0 16.6875,7.886719 16.6875,16.417969 -0.12891,12.679687 -9.83203,23.542969 -31.30078,43.980469 l -8.91797,8.660158 v 6.98437 z m 40.72558,-85.488278 c -17.0625,0 -29.22656,15.527343 -29.22656,43.710937 0.25781,27.808591 11.3789,43.195311 27.80859,43.195311 18.6211,0 29.22656,-15.77344 29.22656,-44.355467 0,-26.765625 -10.08984,-42.550781 -27.80859,-42.550781 z m -0.64453,8.800781 c 11.77734,0 17.07422,13.570312 17.07422,34.265625 0,21.46875 -5.56641,35.050782 -17.20313,35.050782 -10.34765,0 -17.07422,-12.421876 -17.07422,-34.277345 0,-22.886718 7.24219,-35.039062 17.20313,-35.039062 z m 63.62402,76.687497 h 11.00391 V 31.169139 H 517.04 l -18.36328,9.820313 2.19141,8.671875 14.61328,-7.886719 h 0.25781 z m 69.70606,-85.488278 c -17.0625,0 -29.22656,15.527343 -29.22656,43.710937 0.25781,27.808591 11.3789,43.195311 27.80859,43.195311 18.62109,0 29.22656,-15.77344 29.22656,-44.355467 0,-26.765625 -10.08984,-42.550781 -27.80859,-42.550781 z m -0.64453,8.800781 c 11.77734,0 17.07422,13.570312 17.07422,34.265625 0,21.46875 -5.56641,35.050782 -17.20313,35.050782 -10.34766,0 -17.07422,-12.421876 -17.07422,-34.277345 0,-22.886718 7.24219,-35.039062 17.20313,-35.039062 z m 0,0" style="fill:#b5b5b6;fill-opacity:1;fill-rule:nonzero;stroke:none" aria-label="SATURDAY&#10;OCT 2,2010" transform="matrix(1.3333333,0,0,1.3333333,98.929733,3929.8279)" />
      <path id="path122" d="m 5.4374656,-4.2653647 c 4.6523434,3.1054687 13.8281254,5.5546875 22.2421874,5.5546875 20.554688,0 30.515625,-11.6367188 30.515625,-25.0898438 0,-12.796875 -7.5,-19.910156 -22.242187,-25.605469 -12.023438,-4.652343 -17.332032,-8.660156 -17.332032,-16.804687 0,-5.953125 4.523438,-13.066406 16.429688,-13.066406 7.886719,0 13.710937,2.589843 16.546875,4.136718 l 3.105469,-9.175781 c -3.878907,-2.203125 -10.347657,-4.277344 -19.265625,-4.277344 -16.945313,0 -28.1953129,10.089844 -28.1953129,23.671875 0,12.28125 8.7890629,19.652344 23.0156249,24.703125 11.777344,4.523438 16.429688,9.175782 16.429688,17.332032 0,8.789062 -6.726563,14.8710933 -18.234375,14.8710933 -7.757813,0 -15.128907,-2.5898433 -20.1796879,-5.6953123 z M 108.89645,-88.59349 c -23.285156,0 -40.488281,18.105469 -40.488281,45.785157 0,26.378906 16.171875,44.226562 39.187501,44.226562 22.24219,0 40.47656,-15.902344 40.47656,-45.902344 0,-25.875 -15.38672,-44.109375 -39.17578,-44.109375 z m -0.52734,9.1875 c 18.76171,0 27.80859,18.105469 27.80859,35.4375 0,19.78125 -10.08984,36.2109378 -27.9375,36.2109378 -17.71875,0 -27.796875,-16.6874998 -27.796875,-35.3085938 0,-19.136719 9.304687,-36.339844 27.925785,-36.339844 z m 54.19336,-7.757812 v 51.339844 c 0,27.0351558 13.4414,37.242187 31.28906,37.242187 18.89062,0 32.98828,-10.9921875 32.98828,-37.757812 v -50.824219 h -11.39063 v 51.597656 c 0,19.265625 -8.27343,27.8085938 -21.19921,27.8085938 -11.64844,0 -20.3086,-8.2734378 -20.3086,-27.8085938 V -87.163802 Z M 256.97165,2.60275e-4 V -37.241927 c 0,-14.484375 -0.25782,-24.960938 -0.91407,-35.953125 l 0.39844,-0.128906 c 4.39453,9.433593 10.20703,19.394531 16.28906,29.097656 L 300.42477,2.60275e-4 h 11.37891 V -87.163802 h -10.60547 v 36.46875 c 0,13.582031 0.25781,24.1875 1.28906,35.824219 l -0.25781,0.128906 c -4.13672,-8.929688 -9.17578,-18.105469 -15.64453,-28.324219 l -27.9375,-44.097656 H 246.36618 V 2.60275e-4 Z m 74.4873,-0.257812495 c 5.68359,0.64453125 12.41016,1.03125 20.42578,1.03125 16.94531,0 30.39844,-4.39453128 38.54297,-12.53906278 8.14453,-8.027343 12.55078,-19.664062 12.55078,-33.890625 0,-14.097656 -4.53516,-24.175781 -12.29297,-31.289062 -7.6289,-7.113281 -19.13672,-10.863281 -35.30859,-10.863281 -8.91797,0 -17.0625,0.773437 -23.91797,1.804687 z m 11.25,-77.47265578 c 2.97656,-0.644532 7.37109,-1.160157 13.19531,-1.160157 23.78906,0 35.42578,13.066407 35.29688,33.621094 0,23.542969 -13.05469,36.9960938 -37.11328,36.9960938 -4.39454,0 -8.53125,-0.1289063 -11.37891,-0.6445313 z M 417.58883,2.60275e-4 h 11.25 V -34.921615 c 2.58985,0.644532 5.6836,0.773438 9.04688,0.773438 10.99219,0 20.69531,-3.222656 26.64844,-9.5625 4.39453,-4.523438 6.72656,-10.734375 6.72656,-18.621094 0,-7.769531 -2.84766,-14.097656 -7.62891,-18.234375 -5.17969,-4.664062 -13.32422,-7.242187 -24.44531,-7.242187 -9.05859,0 -16.17188,0.773437 -21.59766,1.675781 z m 11.25,-77.988281275 c 1.9336,-0.515625 5.6836,-0.902344 10.60547,-0.902344 12.41016,0 20.56641,5.566407 20.56641,17.074219 0,12.023438 -8.28516,18.621094 -21.86719,18.621094 -3.75,0 -6.84375,-0.257813 -9.30469,-0.902344 z m 92.85938,-10.605469 c -23.28516,0 -40.48828,18.105469 -40.48828,45.785157 0,26.378906 16.17187,44.226562 39.1875,44.226562 22.24218,0 40.47656,-15.902344 40.47656,-45.902344 0,-25.875 -15.38672,-44.109375 -39.17578,-44.109375 z m -0.52735,9.1875 c 18.76172,0 27.8086,18.105469 27.8086,35.4375 0,19.78125 -10.08985,36.2109378 -27.9375,36.2109378 -17.71875,0 -27.79688,-16.6874998 -27.79688,-35.3085938 0,-19.136719 9.30469,-36.339844 27.92578,-36.339844 z M 586.0986,2.60275e-4 V -37.241927 c 0,-14.484375 -0.25781,-24.960938 -0.91406,-35.953125 l 0.39843,-0.128906 c 4.39453,9.433593 10.20703,19.394531 16.28907,29.097656 L 629.55172,2.60275e-4 h 11.37891 V -87.163802 h -10.60547 v 36.46875 c 0,13.582031 0.25781,24.1875 1.28906,35.824219 l -0.25781,0.128906 c -4.13672,-8.929688 -9.17578,-18.105469 -15.64453,-28.324219 l -27.9375,-44.097656 H 575.49313 V 2.60275e-4 Z m 104.34668,0 V -37.113021 l 29.22656,-50.050781 h -12.79687 l -12.55079,24.046875 c -3.36328,6.597656 -6.32812,12.292969 -8.78906,17.976562 h -0.25781 c -2.71875,-6.070312 -5.30859,-11.378906 -8.67188,-17.976562 l -12.28125,-24.046875 h -12.80859 l 27.55078,50.179687 V 2.60275e-4 Z M 9.8319969,115.2278 H 21.081997 V 81.993424 L 29.355434,72.419206 58.066372,115.2278 H 71.390591 L 37.371059,65.048112 68.929653,28.063737 h -13.96875 l -26.636719,32.71875 c -2.203125,2.847656 -4.523437,5.953125 -6.855468,9.304687 H 21.081997 V 28.063737 H 9.8319969 Z m 99.9609331,0 V 78.114518 L 139.0195,28.063737 h -12.79688 l -12.55078,24.046875 c -3.36328,6.597656 -6.32812,12.292969 -8.78906,17.976562 h -0.25781 C 101.90622,64.016862 99.316372,58.708268 95.953091,52.110612 L 83.671841,28.063737 H 70.863247 L 98.414028,78.243424 V 115.2278 Z m 38.28516,0 h 48.49219 v -9.44531 H 159.32809 V 28.063737 h -11.25 z M 209.12106,28.063737 V 115.2278 h 11.25 V 28.063737 Z m 76.03711,36.984375 H 251.27926 V 37.497331 h 35.82422 V 28.063737 H 240.02926 V 115.2278 h 49.00781 v -9.44531 H 251.27926 V 74.364518 h 33.87891 z m 18.36621,65.308598 c 3.62109,-6.07032 9.30469,-20.42579 12.28125,-31.429692 l -12.66797,1.300782 c -1.42969,9.43359 -4.92187,23.27344 -7.75781,30.90234 z m 53.80078,-15.12891 h 11.25 V 81.993424 l 8.27344,-9.574218 28.71094,42.808594 h 13.32421 l -34.01953,-50.179688 31.5586,-36.984375 h -13.96875 l -26.63672,32.71875 c -2.20313,2.847656 -4.52344,5.953125 -6.85547,9.304687 h -0.38672 V 28.063737 h -11.25 z m 116.37305,-27.421876 9.3164,27.421876 h 12.02344 L 465.29586,28.063737 H 451.71383 L 422.10055,115.2278 h 11.63672 l 9.05859,-27.421876 z m -28.58203,-8.789062 8.54297,-25.21875 c 1.67578,-5.308594 3.10546,-10.605469 4.39453,-15.773438 h 0.25781 c 1.28906,5.039063 2.58984,10.207032 4.52344,15.902344 l 8.54297,25.089844 z m 69.3164,36.210938 h 11.39063 V 37.626237 h 26.63672 v -9.5625 h -64.53516 v 9.5625 h 26.50781 z M 562.16012,28.063737 V 115.2278 h 11.25 V 28.063737 Z m 76.03711,36.984375 H 604.31832 V 37.497331 h 35.82422 V 28.063737 H 593.06832 V 115.2278 h 49.00782 v -9.44531 H 604.31832 V 74.364518 h 33.87891 z m 67.25391,50.179688 12.41015,-45.398438 c 3.23438,-11.25 5.17969,-19.78125 6.72657,-28.453125 h 0.25781 c 1.17187,8.800781 2.97656,17.332031 5.69531,28.453125 l 10.99219,45.398438 h 11.76562 l 24.70313,-87.164063 h -11.50781 l -11.50782,43.96875 c -2.71875,10.863281 -5.17968,20.566406 -6.98437,30.128903 h -0.25781 c -1.30079,-9.175778 -3.6211,-19.523434 -6.08204,-29.871091 L 731.05661,28.063737 h -11.76563 l -11.63672,43.96875 c -2.97656,11.25 -5.69531,21.597656 -7.11328,30.257813 h -0.25781 c -1.5586,-8.402344 -3.89063,-19.265626 -6.46875,-30.128907 L 683.46676,28.063737 H 671.57223 L 693.68551,115.2278 Z M 788.8652,28.063737 V 115.2278 h 11.25 V 28.063737 Z m 89.49023,75.398433 c -4.52343,2.19141 -11.50781,3.6211 -18.36328,3.6211 -21.21093,0 -33.49218,-13.710939 -33.49218,-35.050783 0,-22.886719 13.57031,-35.953125 34.00781,-35.953125 7.24219,0 13.32422,1.546875 17.58984,3.621094 l 2.71875,-9.1875 c -2.97656,-1.546875 -9.83203,-3.878907 -20.69531,-3.878907 -27.03516,0 -45.52734,18.492188 -45.52734,45.785157 0,28.582034 18.49218,44.097654 43.0664,44.097654 10.60547,0 18.89063,-2.0625 23.02735,-4.13672 z m 16.42676,11.76563 h 11.25 V 81.993424 l 8.27344,-9.574218 28.71094,42.808594 h 13.32422 L 922.32125,65.048112 953.87985,28.063737 H 939.9111 l -26.63672,32.71875 c -2.20313,2.847656 -4.52344,5.953125 -6.85547,9.304687 h -0.38672 V 28.063737 h -11.25 z m 65.69824,-4.26563 c 4.65235,3.10547 13.82813,5.55469 22.24219,5.55469 20.55468,0 30.51558,-11.63672 30.51558,-25.089842 0,-12.796875 -7.5,-19.910156 -22.24214,-25.605469 -12.02344,-4.652343 -17.33203,-8.660156 -17.33203,-16.804687 0,-5.953125 4.52344,-13.066406 16.42969,-13.066406 7.88671,0 13.71098,2.589843 16.54688,4.136718 l 3.1055,-9.175781 c -3.8789,-2.203125 -10.3477,-4.277344 -19.26567,-4.277344 -16.94531,0 -28.19531,10.089844 -28.19531,23.671875 0,12.28125 8.78906,19.652344 23.01563,24.703125 11.77734,4.523438 16.42965,9.175782 16.42965,17.332032 0,8.789059 -6.72653,14.871089 -18.23434,14.871089 -7.75781,0 -15.12891,-2.58984 -20.17969,-5.69531 z m 163.59667,4.26563 c -5.1797,-5.56641 -9.7031,-10.47656 -14.3555,-15.386719 6.4571,-7.628907 10.2188,-18.492188 12.5391,-32.203125 h -10.3476 c -1.6758,10.992187 -4.3946,19.394531 -8.4024,25.476562 -5.5664,-6.210937 -13.8398,-15.785156 -21.2109,-24.316406 v -0.386719 c 13.8398,-6.855469 19.1367,-14.097656 19.1367,-23.285156 0,-11.25 -8.4024,-18.492188 -19.2656,-18.492188 -14.4844,0 -22.1133,10.863282 -22.1133,21.46875 0,6.210938 2.7187,12.550782 7.2422,18.234375 v 0.398438 c -9.961,5.425781 -17.0742,13.570312 -17.0742,25.476562 0,13.054686 9.832,24.433596 26.7773,24.433596 9.5625,0 17.9766,-2.96485 25.4766,-9.94922 3.3632,3.62109 5.6836,6.07031 8.1445,8.53125 z m -45.1406,-7.11328 c -10.4766,0 -17.8477,-7.62891 -17.8477,-17.589846 0,-9.175781 6.5977,-14.742187 11.25,-17.71875 9.7032,11.121094 19.4063,21.726563 24.5743,27.421876 -4.1368,4.52344 -10.4766,7.88672 -17.9766,7.88672 z m 2.4609,-73.710939 c 7.1133,0 10.0899,5.941406 10.0899,11.25 0,7.371093 -5.6953,12.023437 -14.4844,17.0625 -3.75,-4.652344 -6.5977,-9.433594 -6.5977,-15.644532 0,-6.726562 3.75,-12.667968 10.9922,-12.667968 z m 80.3086,80.566409 c 3.75,0.51562 9.6914,1.03125 17.461,1.03125 14.2265,0 24.0468,-2.58985 30.1289,-8.14453 4.3945,-4.26563 7.3711,-9.960942 7.3711,-17.460942 0,-12.9375 -9.7032,-19.78125 -17.9766,-21.855469 v -0.257812 c 9.1875,-3.363281 14.7422,-10.734375 14.7422,-19.136719 0,-6.855469 -2.7188,-12.035156 -7.2422,-15.398437 -5.4258,-4.394532 -12.668,-6.328125 -23.9297,-6.328125 -7.8867,0 -15.6445,0.773437 -20.5547,1.804687 z m 11.25,-78.117191 c 1.8047,-0.386718 4.7813,-0.773437 9.961,-0.773437 11.3789,0 19.1367,4.007812 19.1367,14.226562 0,8.402344 -6.9844,14.613282 -18.8789,14.613282 h -10.2188 z m 0,36.597657 h 9.3047 c 12.293,0 22.5117,4.921875 22.5117,16.816406 0,12.679688 -10.7343,16.945308 -22.3828,16.945308 -4.0078,0 -7.2422,-0.1289 -9.4336,-0.51562 z m 61.6846,43.195314 c 4.7812,0 7.7578,-3.49219 7.7578,-8.14453 0,-4.78125 -3.1055,-8.14453 -7.6289,-8.14453 -4.5234,0 -7.7578,3.36328 -7.7578,8.14453 0,4.65234 3.1055,8.14453 7.6289,8.14453 z m 0,0" style="fill:#ffffff;fill-opacity:1;fill-rule:nonzero;stroke:none" aria-label="SOUNDPONY &#10;KYLIE, KATIE WICKS &amp; B." transform="matrix(1.3333333,0,0,1.3333333,98.929733,4237.1012)" />
      <path id="path123" d="M 51.726528,3.268e-4 V -22.886392 h 11.777344 v -8.929687 H 51.726528 V -84.058267 H 39.445278 L 1.9452781,-30.386392 v 7.5 H 40.992153 V 3.268e-4 Z M 13.453091,-31.816079 v -0.257813 l 20.554687,-28.582031 c 2.332031,-3.878906 4.40625,-7.5 6.984375,-12.410156 h 0.398438 c -0.269532,4.394531 -0.398438,8.789062 -0.398438,13.183593 v 28.066407 z m 86.768559,-53.671875 c -17.062505,0 -29.226567,15.527343 -29.226567,43.710937 0.257812,27.808594 11.378906,43.1953126 27.808594,43.1953126 18.621093,0 29.226563,-15.7734376 29.226563,-44.3554686 0,-26.765625 -10.08984,-42.550781 -27.80859,-42.550781 z m -0.644536,8.800781 c 11.777346,0 17.074216,13.570312 17.074216,34.265625 0,21.46875 -5.5664,35.0507811 -17.203122,35.0507811 -10.347656,0 -17.074219,-12.4218751 -17.074219,-34.2773441 0,-22.886718 7.242188,-35.039062 17.203125,-35.039062 z M 145.09567,1.2893893 c 2.71875,0.1289063 6.33984,0 10.47656,-0.64453125 9.05859,-1.03125 17.97656,-4.91015625 24.44531,-11.25000005 8.27344,-8.015625 14.48438,-20.953125 14.48438,-39.445312 0,-21.46875 -10.60547,-35.4375 -27.8086,-35.4375 -17.1914,0 -28.71093,13.96875 -28.71093,29.882812 0,14.355469 9.70312,25.734375 24.83203,25.734375 8.41406,0 15.14062,-3.363281 19.79297,-9.058594 h 0.38672 c -1.54688,9.960938 -5.56641,17.332032 -11.1211,22.371094 -4.78125,4.535156 -10.99219,7.2421876 -17.58984,8.1562501 -3.87891,0.3867187 -6.72656,0.6445312 -9.1875,0.3867187 z m 20.69531,-78.1054683 c 11.90625,0 17.20313,10.992187 17.20313,25.347656 0,1.804687 -0.38672,3.105469 -1.03125,4.136719 -2.97657,5.039062 -8.92969,8.789062 -16.5586,8.789062 -9.83203,0 -16.16015,-7.371094 -16.16015,-17.847656 0,-11.894531 6.85546,-20.425781 16.54687,-20.425781 z M 246.88473,3.268e-4 V -37.241861 c 0,-14.484375 -0.25781,-24.960937 -0.91406,-35.953125 l 0.39844,-0.128906 c 4.39453,9.433594 10.20703,19.394531 16.28906,29.097656 L 290.33786,3.268e-4 h 11.3789 V -87.163736 h -10.60547 v 36.46875 c 0,13.582032 0.25782,24.1875 1.28907,35.824219 l -0.25782,0.128906 c -4.13672,-8.929687 -9.17578,-18.105468 -15.64453,-28.324218 l -27.9375,-44.097657 H 236.27926 V 3.268e-4 Z m 177.5625,0 h 10.99219 l -5.4375,-87.1640628 h -14.35547 l -15.51563,42.152344 c -3.8789,11.003906 -6.98437,20.566406 -9.1875,29.367188 h -0.38671 c -2.19141,-9.058594 -5.16797,-18.632813 -8.78907,-29.367188 L 366.89645,-87.163736 H 352.54098 L 346.45895,3.268e-4 h 10.73437 l 2.33204,-37.3710938 c 0.77343,-13.066406 1.41796,-27.679687 1.67578,-38.542969 h 0.25781 c 2.46094,10.347657 5.95312,21.597657 10.08984,33.878907 l 14.09766,41.5195308 h 8.53125 l 15.39844,-42.2929688 c 4.39453,-12.023437 8.01562,-22.886719 10.99218,-33.105469 h 0.38672 c -0.1289,10.863282 0.64453,25.476563 1.28907,37.628907 z M 496.4736,-27.421548 505.79,3.268e-4 h 12.02344 L 488.07125,-87.163736 H 474.48922 L 444.87594,3.268e-4 h 11.63672 l 9.05859,-27.4218748 z m -28.58203,-8.789063 8.54297,-25.21875 c 1.67578,-5.308593 3.10546,-10.605468 4.39453,-15.773437 h 0.25781 c 1.28906,5.039062 2.58984,10.207031 4.52344,15.902344 l 8.54297,25.089843 z m 62.72754,-50.953125 V 3.268e-4 h 11.25 V -87.163736 Z M 572.13278,3.268e-4 V -37.241861 c 0,-14.484375 -0.25781,-24.960937 -0.91406,-35.953125 l 0.39843,-0.128906 c 4.39453,9.433594 10.20703,19.394531 16.28907,29.097656 L 615.5859,3.268e-4 h 11.37891 V -87.163736 h -10.60547 v 36.46875 c 0,13.582032 0.25781,24.1875 1.28906,35.824219 l -0.25781,0.128906 c -4.13672,-8.929687 -9.17578,-18.105468 -15.64453,-28.324218 l -27.9375,-44.097657 H 561.52731 V 3.268e-4 Z m 113.15039,0 h 11.39062 V -77.601236 h 26.63672 v -9.5625 h -64.53515 v 9.5625 h 26.50781 z M 732.8818,-87.163736 v 51.339844 c 0,27.0351563 13.44141,37.2421876 31.28906,37.2421876 18.89063,0 32.98829,-10.9921875 32.98829,-37.7578126 v -50.824219 h -11.39063 v 51.597657 c 0,19.265625 -8.27344,27.8085933 -21.19922,27.8085933 -11.64844,0 -20.30859,-8.2734373 -20.30859,-27.8085933 V -87.163736 Z M 816.68258,3.268e-4 h 48.49219 V -9.4449857 H 827.93258 V -87.163736 h -11.25 z m 56.64551,-4.265625 c 4.65234,3.1054688 13.82813,5.5546875 22.24219,5.5546875 20.55469,0 30.51562,-11.6367183 30.51562,-25.0898433 0,-12.796875 -7.5,-19.910157 -22.24218,-25.605469 -12.02344,-4.652344 -17.33204,-8.660156 -17.33204,-16.804688 0,-5.953125 4.52344,-13.066406 16.42969,-13.066406 7.88672,0 13.71094,2.589844 16.54688,4.136719 l 3.10547,-9.175781 c -3.87891,-2.203125 -10.34766,-4.277344 -19.26563,-4.277344 -16.94531,0 -28.19531,10.089844 -28.19531,23.671875 0,12.28125 8.78906,19.652344 23.01562,24.703125 11.77735,4.523437 16.42969,9.175781 16.42969,17.332031 0,8.789063 -6.72656,14.8710938 -18.23437,14.8710938 -7.75782,0 -15.12891,-2.5898438 -20.17969,-5.6953128 z M 986.48141,-27.421548 995.79782,3.268e-4 h 12.02348 L 978.07907,-87.163736 H 964.49704 L 934.88375,3.268e-4 h 11.63672 l 9.0586,-27.4218748 z m -28.58203,-8.789063 8.54297,-25.21875 c 1.67578,-5.308593 3.10547,-10.605468 4.39453,-15.773437 h 0.25781 c 1.28906,5.039062 2.58985,10.207031 4.52344,15.902344 l 8.54297,25.089843 z M 30.515591,115.22787 H 41.519497 V 31.169272 h -9.703125 l -18.363281,9.820313 2.191406,8.671875 14.613281,-7.886719 h 0.257813 z M 100.22165,29.739585 c -17.062505,0 -29.226567,15.527343 -29.226567,43.710937 0.257812,27.808598 11.378906,43.195308 27.808594,43.195308 18.621093,0 29.226563,-15.77343 29.226563,-44.355464 0,-26.765625 -10.08984,-42.550781 -27.80859,-42.550781 z m -0.644536,8.800781 c 11.777346,0 17.074216,13.570312 17.074216,34.265625 0,21.46875 -5.5664,35.050779 -17.203122,35.050779 -10.347656,0 -17.074219,-12.421873 -17.074219,-34.277342 0,-22.886718 7.242188,-35.039062 17.203125,-35.039062 z m 42.940426,76.687504 h 11.25 V 80.305991 c 2.58985,0.644531 5.6836,0.773437 9.04688,0.773437 10.99219,0 20.69531,-3.222656 26.64844,-9.5625 4.39453,-4.523437 6.72656,-10.734375 6.72656,-18.621093 0,-7.769532 -2.84766,-14.097657 -7.62891,-18.234375 -5.17969,-4.664063 -13.32422,-7.242188 -24.44531,-7.242188 -9.05859,0 -16.17188,0.773438 -21.59766,1.675781 z m 11.25,-77.988285 c 1.9336,-0.515625 5.6836,-0.902344 10.60547,-0.902344 12.41016,0 20.56641,5.566406 20.56641,17.074219 0,12.023437 -8.28516,18.621093 -21.86719,18.621093 -3.75,0 -6.84375,-0.257812 -9.30469,-0.902343 z m 131.6543,77.988285 h 10.99219 l -5.4375,-87.164067 h -14.35547 l -15.51563,42.152344 c -3.8789,11.003906 -6.98437,20.566406 -9.1875,29.367188 h -0.38671 c -2.19141,-9.058594 -5.16797,-18.632813 -8.78907,-29.367188 L 227.87106,28.063803 h -14.35547 l -6.08203,87.164067 h 10.73437 l 2.33204,-37.371098 c 0.77343,-13.066406 1.41796,-27.679687 1.67578,-38.542969 h 0.25781 c 2.46094,10.347657 5.95312,21.597657 10.08984,33.878907 l 14.09766,41.51953 h 8.53125 l 15.39844,-42.292968 c 4.39453,-12.023437 8.01562,-22.886719 10.99218,-33.105469 h 0.38672 c -0.1289,10.863282 0.64453,25.476563 1.28907,37.628907 z M 9.8319969,230.4554 H 21.081997 v -39.44531 h 32.976562 v -9.3164 H 21.081997 v -28.96875 h 35.695312 v -9.4336 H 9.8319969 Z m 62.9794921,0 h 11.25 v -37.76953 h 10.605469 c 10.218752,0.39844 14.871092,4.92188 17.460942,16.94532 2.44921,10.86328 4.39453,18.36328 5.8125,20.82421 h 11.64843 c -1.8164,-3.36328 -3.89062,-11.76562 -6.72656,-23.92968 -2.07422,-9.04688 -6.08203,-15.25782 -12.80859,-17.58985 v -0.38672 c 9.1875,-3.10546 16.42968,-10.73437 16.42968,-22.24218 0,-6.72657 -2.46093,-12.66797 -6.85546,-16.54688 -5.4375,-4.92187 -13.19532,-7.11328 -25.218755,-7.11328 -7.757812,0 -15.914062,0.64453 -21.597656,1.80469 z m 11.25,-78.11718 c 1.804688,-0.51563 5.683594,-1.03125 11.121094,-1.03125 11.894527,0.1289 20.050777,5.03906 20.050777,16.30078 0,9.94922 -7.64062,16.54687 -19.664058,16.54687 H 84.061489 Z m 103.456051,27.9375 h -33.8789 v -27.55078 h 35.82422 v -9.4336 h -47.07422 v 87.16406 h 49.00781 v -9.44531 h -37.75781 v -31.41797 h 33.8789 z m 63.62696,0 h -33.87891 v -27.55078 h 35.82422 v -9.4336 h -47.07422 v 87.16406 h 49.00781 v -9.44531 h -37.75781 v -31.41797 h 33.87891 z m 0,0" style="fill:#b5b5b6;fill-opacity:1;fill-rule:nonzero;stroke:none" aria-label="409 N MAIN TULSA&#10;10PM&#10;FREE" transform="matrix(1.3333333,0,0,1.3333333,98.929733,4544.3746)" />
      <path id="path124" d="m 4.5585247,-0.12165436 c 2.6418261,0.29984537 5.7621463,0.48204087 9.4830423,0.47581504 7.857726,6.558e-4 14.084689,-2.02978628 17.884652,-5.82322638 3.758257,-3.7062685 5.806325,-9.1129953 5.811244,-15.7020683 -0.0045,-6.543144 -2.098342,-11.228226 -5.6961,-14.521814 -3.535661,-3.304837 -8.886138,-5.042423 -16.385341,-5.041685 -4.136829,-0.0069 -7.9188724,0.357634 -11.1015001,0.832497 z M 9.7865039,-36.059811 c 1.3754961,-0.293428 3.4103921,-0.536031 6.1246151,-0.532379 11.040839,-0.0077 16.429666,6.055388 16.374238,15.588327 -0.0034,10.918989 -6.074342,17.1673319 -17.232346,17.1630451 -2.033968,0.00359 -3.959678,-0.054457 -5.2733307,-0.2985795 z m 54.7714651,23.345322 4.331074,12.71238055 5.573261,9.7198e-4 -13.804782,-40.43165453 -6.301787,-0.0061 -13.739788,40.43264125 5.405482,0.00261828 4.195424,-12.70682753 z m -13.265697,-4.094175 3.963945,-11.689601 c 0.791003,-2.469847 1.446331,-4.919537 2.044016,-7.321187 l 0.119508,4.64e-4 c 0.597621,2.346541 1.197352,4.741353 2.106405,7.378683 l 3.953767,11.630736 z M 85.32558,-0.00316596 85.323789,-17.286038 c 0.0077,-6.720062 -0.113595,-11.576743 -0.424731,-16.675478 l 0.179493,-0.05906 c 2.049122,4.376942 4.743124,8.99311 7.56858,13.492577 l 12.831839,20.52270205 5.28598,0.00215391 -0.001,-40.43777296 -4.92745,-7.6e-4 0.003,16.924349 c -0.006,6.301787 0.11733,11.206739 0.59274,16.6140785 l -0.11974,0.059289 c -1.90785,-4.1327735 -4.2562,-8.3913695 -7.257647,-13.1420305 l -12.953924,-20.45193 -5.70425,-0.0038 0.0014,40.43777226 z m 61.72816,-5.45865934 c -2.09767,1.0191682 -5.34309,1.6845421 -8.52386,1.6813754 -9.83194,0.00316 -15.52985,-6.3621551 -15.53279,-16.2538491 0.002,-10.62022 6.3115,-16.688373 15.79406,-16.679106 3.36238,-0.0076 6.17035,0.708856 8.13851,1.672577 l 1.26452,-4.262942 c -1.37389,-0.710903 -4.55048,-1.789636 -9.58596,-1.788518 -12.55765,-0.0028 -21.13586,8.568497 -21.13447,21.222685 -0.003,13.2632073 8.5734,20.4670843 19.98424,20.46316057 4.91597,-0.001582 8.76923,-0.94957746 10.67826,-1.92351357 z m 28.56818,-17.8251347 -15.71545,-0.0013 -9.2e-4,-12.773695 16.61175,0.0048 -0.004,-4.378187 -21.83798,-0.0067 0.001,40.43777283 22.74811,0.00105965 -0.004,-4.37818678 -17.52189,8.62e-4 0.008,-14.5777877 15.71545,0.0013 z m 0,0" style="fill:#ffffff;fill-opacity:1;fill-rule:nonzero;stroke:none" aria-label="D&#10;ANCE" transform="matrix(1.306415,-0.26656655,0.26656655,1.306415,2823.1787,4761.0108)" />
      <path id="path125" d="m 4.5524467,-0.11894928 c 2.6472973,0.30241836 5.7673073,0.48427769 9.4894633,0.48467822 7.860451,0.001289 14.098995,-2.03745034 17.879704,-5.82051924 3.78229,-3.7233357 5.80959,-9.1291267 5.818971,-15.7276187 -5.88e-4,-6.540753 -2.094616,-11.219085 -5.699386,-14.517115 -3.533489,-3.297616 -8.883194,-5.029824 -16.375692,-5.027051 -4.138295,-8.88e-4 -7.9318063,0.343156 -11.1077099,0.829497 z M 9.7931589,-36.055926 c 1.3619771,-0.311912 3.4112631,-0.540846 6.1103931,-0.538674 11.035454,0.0024 16.446751,6.062038 16.383779,15.588626 0.004,10.929529 -6.077721,17.1575694 -17.232642,17.1583614 -2.034504,0.00554 -3.962669,-0.053813 -5.2655918,-0.2906354 z m 54.7582141,23.34611 4.334279,12.7116936 5.57746,-3.96e-4 -13.804354,-40.4497026 -6.303814,0.0058 -13.736095,40.44020885 5.398261,0.00434418 4.192792,-12.71424403 z m -13.25425,-4.095742 3.957624,-11.696446 c 0.792585,-2.455649 1.442608,-4.912124 2.036472,-7.318835 l 0.131014,-0.0012 c 0.593241,2.350019 1.201603,4.750218 2.103404,7.379456 l 3.96098,11.636421 z m 34.02135,16.80210158 -0.0019,-17.27953458 c 0.0062,-6.717959 -0.117777,-11.579447 -0.415747,-16.673135 l 0.17762,-0.06447 c 2.04949,4.385233 4.748825,9.001573 7.562472,13.506834 l 12.833392,20.51742141 5.29234,-0.00205006 0.002,-40.44474935 -4.92438,0.0061 0.004,16.923129 c -0.006,6.30182 0.11029,11.2095 0.59138,16.6202092 l -0.11789,0.062893 c -1.9237,-4.1494602 -4.2687,-8.4073262 -7.267871,-13.1467802 l -12.949285,-20.466076 -5.708475,0.0016 -0.0015,40.44474849 z M 147.05041,-5.4631368 c -2.09246,1.0301427 -5.33291,1.6837217 -8.51946,1.6806485 -9.83523,0.00267 -15.54154,-6.3457747 -15.5438,-16.2522777 0.002,-10.619315 6.31576,-16.676469 15.79457,-16.681205 3.36376,0.0099 6.16667,0.719711 8.15318,1.681041 l 1.25969,-4.265854 c -1.3753,-0.713107 -4.55365,-1.796946 -9.59551,-1.799223 -12.5459,-0.0015 -21.12658,8.57789 -21.12491,21.243257 -0.006,13.2587116 8.58759,20.45040586 19.97945,20.45484157 4.92438,-0.006111 8.77736,-0.97016987 10.68822,-1.91274327 z m 28.5672,-17.8208552 -15.70935,-5.84e-4 0.005,-12.771291 16.61292,0.002 -0.003,-4.388776 -21.84552,-0.0015 -0.002,40.44474958335 22.74908,0.002890687 -0.003,-4.38877617 -17.51648,-0.00336 0.006,-14.5668621 15.70935,5.84e-4 z m 0,0" style="fill:#ffffff;fill-opacity:1;fill-rule:nonzero;stroke:none" aria-label="D&#10;ANCE" transform="matrix(1.3138982,-0.22682451,0.22682451,1.3138982,2819.1315,4841.6928)" />
      <path id="path126" d="m 4.5560591,-0.00229364 5.2234847,0.00535369 0.00204,-17.51352605 4.9224422,-0.0068 c 4.737751,0.172302 6.893294,2.280738 8.102495,7.8603135 1.143531,5.037262 2.045151,8.5201273 2.698153,9.65503022 l 5.394111,0.00495017 C 30.062876,-1.561244 29.094292,-5.4528144 27.781915,-11.098143 c -0.961308,-4.218356 -2.832093,-7.074367 -5.943023,-8.174482 l -4.03e-4,-0.170627 c 4.27033,-1.44595 7.621416,-4.979115 7.62487,-10.324933 0.0055,-3.116389 -1.137465,-5.875929 -3.174759,-7.670754 -2.519752,-2.284642 -6.131086,-3.295041 -11.710293,-3.291505 -3.594445,0.0053 -7.3797647,0.29754 -10.0264669,0.826951 z M 9.7840003,-36.229657 c 0.8380617,-0.249875 2.6339317,-0.484309 5.1531257,-0.477389 5.529417,0.04326 9.303129,2.329769 9.297775,7.553253 -0.0036,4.615015 -3.536074,7.670528 -9.115281,7.674064 l -5.334542,-2.62e-4 z m 43.6161547,-4.865441 c -10.802691,-0.0018 -18.786227,8.406812 -18.788093,21.231285 0.0016,12.2530225 7.499839,20.5268475 18.183391,20.5192887 10.316554,-0.001862 18.782263,-7.3604983 18.778313,-21.2827727 0.0022,-12.008356 -7.126254,-20.469781 -18.173611,-20.467801 z m -0.253935,4.251815 c 8.710065,-0.0061 12.916788,8.407493 12.918092,16.446325 -0.0057,9.181734 -4.686325,16.8082877 -12.977905,16.7989219 -8.209458,0.00171 -12.897513,-7.7443429 -12.900229,-16.3803699 0.008,-8.888774 4.324015,-16.86216 12.960042,-16.864877 z m 25.206584,36.71838052 c 1.758364,0.24212554 4.503471,0.48352724 8.094723,0.48952159 6.614245,-0.002764 11.170057,-1.2095445 13.982543,-3.78688441 2.038,-1.9927974 3.42739,-4.619892 3.4272,-8.1032797 0.004,-5.991306 -4.504689,-9.167848 -8.33644,-10.131044 l 0.0013,-0.133608 c 4.253963,-1.5602 6.84232,-4.980492 6.83474,-8.867896 0.002,-3.190428 -1.24622,-5.577878 -3.35865,-7.150387 -2.519146,-2.028702 -5.872641,-2.917373 -11.107401,-2.92592 -3.654014,5.93e-4 -7.247652,0.347129 -9.540329,0.830631 z M 83.583938,-36.363541 c 0.841457,-0.175837 2.20607,-0.349692 4.606125,-0.352149 5.271779,0.0068 8.888323,1.859108 8.897924,6.599648 0.0012,3.909955 -3.254912,6.763602 -8.771356,6.760551 l -4.74054,0.0096 z m -0.01134,16.987176 4.313972,-0.0086 c 5.709622,0.009 10.461995,2.280347 10.458944,7.796791 0.0026,5.8834425 -4.981112,7.8703287 -10.389692,7.8734613 -1.851154,-4.514e-4 -3.353174,-0.072555 -4.37734,-0.2407611 z m 43.690182,-21.71916 c -10.80269,-0.0018 -18.78622,8.406812 -18.78809,21.231285 0.002,12.2530219 7.49984,20.52684695 18.18339,20.51928815 10.31656,-0.001862 18.78227,-7.36049825 18.77832,-21.28277215 0.002,-12.008357 -7.12626,-20.469781 -18.17362,-20.467801 z m -0.25393,4.251814 c 8.71006,-0.0061 12.91679,8.407494 12.91809,16.446326 -0.006,9.181734 -4.68632,16.8082872 -12.9779,16.7989213 -8.20946,0.00171 -12.89752,-7.7443433 -12.90023,-16.3803693 0.008,-8.888775 4.32401,-16.862161 12.96004,-16.864878 z m 31.37887,36.84624247 5.28625,-0.00123353 1.7e-4,-36.00251994 12.37536,-0.0035 7.8e-4,-4.433112 -29.94845,-0.0032 -7.8e-4,4.433112 12.28684,0.008 z m 19.75555,-1.99083327 c 2.14755,1.44847909 6.41754,2.5844864 10.3275,2.58328825 9.53426,0.008037 14.14615,-5.39696995 14.14588,-11.63294145 0.002,-5.943012 -3.48432,-9.244308 -10.32374,-11.887355 -5.57787,-2.151854 -8.03385,-4.016516 -8.03634,-7.792863 0.003,-2.76386 2.09597,-6.068691 7.62369,-6.062447 3.66528,0.0026 6.35793,1.203506 7.67796,1.91831 l 1.44833,-4.254639 c -1.80847,-1.011443 -4.80156,-1.968575 -8.94171,-1.971661 -7.8682,9.01e-4 -13.08867,4.673324 -13.08183,10.972058 -0.006,5.698347 4.07962,9.120563 10.67527,11.463174 5.46022,2.094182 7.61107,4.262189 7.61357,8.038536 0.002,4.080582 -3.11133,6.9016969 -8.45714,6.8982422 -3.59445,0.00528 -7.0147,-1.2067819 -9.35054,-2.6354994 z m 33.71616,2.64427723 c 2.21815,-0.005246 3.61316,-1.61985306 3.61451,-3.77524263 -0.002,-2.2294278 -1.43836,-3.7809999 -3.55673,-3.7840387 -2.09582,0.00335 -3.5972,1.5634759 -3.59514,3.7929036 -0.001,2.1553896 1.43027,3.76653169 3.53736,3.76637773 z m 0,0" style="fill:#ffffff;fill-opacity:1;fill-rule:nonzero;stroke:none" aria-label="R&#10;OBO&#10;T&#10;S." transform="matrix(1.2828946,-0.36326195,0.36326195,1.2828946,2869.7457,4792.8963)" />
    </g></svg>