<?xml version='1.0' encoding='utf-8'?>
<svg xmlns="http://www.w3.org/2000/svg" version="1.1" width="88.693" height="175.365" viewBox="143.777 2870.010 88.693 175.365"><g id="object"><path id="path170" d="m 0,0 c 0.13,-4.709 -1.751,-8.64 -3.35,-12.634 -3.318,-8.281 -2.627,-12.666 3.907,-18.188 5.614,-4.745 11.078,-9.585 16.213,-14.861 9.838,-10.11 14.728,-22.185 15.064,-36.14 0.093,-3.859 -0.497,-7.738 -0.849,-11.601 -0.247,-2.718 -1.43,-4.978 -3.789,-6.457 -10.668,-6.686 -22.085,-11.66 -34.265,-14.862 -0.411,-0.107 -0.954,-0.263 -1.266,-0.091 -1.071,0.594 -2.32,1.13 -3.022,2.053 -0.805,1.057 -0.724,2.55 0.451,3.468 3.399,2.656 6.9,5.182 10.319,7.815 4.474,3.445 8.427,7.291 11.2,12.375 6.253,11.464 4.106,22.342 -6.091,31.018 -5.925,5.041 -11.783,10.15 -18.483,14.134 -2.703,1.607 -4.61,3.868 -6.425,6.279 -6.397,8.5 -7.084,17.448 -1.561,26.568 2.9,4.789 6.187,9.361 9.548,13.844 1.247,1.663 3.101,2.954 4.87,4.124 2.451,1.62 5.487,0.56 6.296,-2.045 C -0.723,3.154 -0.37,1.46 0,0" style="fill:#494643;fill-opacity:1;fill-rule:nonzero;stroke:none" transform="matrix(1.3333333,0,0,-1.3333333,184.0124,2886.1599)" />
      </g></svg>