<?xml version='1.0' encoding='utf-8'?>
<svg xmlns="http://www.w3.org/2000/svg" version="1.1" width="115.439" height="102.323" viewBox="1365.250 4181.900 115.439 102.323"><g id="object"><path id="path182" d="m 0,0 c 0,-9.223 -0.202,-18.452 0.077,-27.667 0.165,-5.434 -3.169,-5.428 -6.935,-5.498 -3.944,-0.073 -6.082,1.097 -6.047,5.685 0.14,18.385 0.081,36.774 -0.155,55.159 -0.06,4.713 1.149,6.914 6.343,6.841 5.062,-0.071 6.505,-2.026 6.334,-6.87 C -0.708,18.444 -0.477,9.219 -0.477,0.001 -0.318,0.001 -0.159,0 0,0" style="fill:#494f57;fill-opacity:1;fill-rule:nonzero;stroke:none" transform="matrix(1.3333333,0,0,-1.3333333,1388.6687,4233.9972)" />
      <path id="path197" d="m 0,0 c 0,6.384 -0.153,12.773 0.056,19.151 0.131,3.984 -2.207,4.922 -5.328,4.962 -3.759,0.046 -5.853,1.477 -5.588,5.504 0.252,3.838 2.516,5.414 6.096,5.429 7.1,0.029 14.201,-0.086 21.299,0.011 4.668,0.064 6.152,-2.542 6.264,-6.676 0.122,-4.51 -2.643,-4.968 -6.122,-4.537 -4.831,0.598 -4.434,-2.436 -4.44,-5.815 -0.023,-14.852 -0.36,-29.704 -0.432,-44.557 -0.019,-3.794 -1.143,-5.6 -5.329,-5.494 -3.922,0.101 -5.74,1.668 -5.751,5.456 C 0.699,-17.711 0.717,-8.857 0.717,-0.002 0.478,-0.001 0.239,-0.001 0,0" style="fill:#494f57;fill-opacity:1;fill-rule:nonzero;stroke:none" transform="matrix(1.3333333,0,0,-1.3333333,1411.0536,4235.1207)" />
      <path id="path242" d="m 0,0 c 5.896,-0.087 7.149,-1.901 3.741,-6.903 -3.368,-4.942 -5.308,-10.493 -7.701,-15.851 -1.604,-3.591 -4.671,-5.485 -7.825,-4.283 -3.463,1.319 -1.314,4.982 -0.71,7.489 1.146,4.757 2.764,9.399 4.171,14.094 C -7.151,-1.536 -4.651,0.448 0,0" style="fill:#494f57;fill-opacity:1;fill-rule:nonzero;stroke:none" transform="matrix(1.3333333,0,0,-1.3333333,1467.2129,4187.9861)" />
      </g></svg>