<?xml version='1.0' encoding='utf-8'?>
<svg xmlns="http://www.w3.org/2000/svg" version="1.1" width="186.664" height="187.685" viewBox="106.586 3486.130 186.664 187.685"><g id="object"><path id="path82" d="m 0,0 c -0.812,6.393 -3.642,12.204 -7.9,17.225 -4.189,4.939 -8.306,10.103 -13.262,14.19 -7.699,6.349 -8.506,14.535 -8.056,23.396 0.138,2.715 1.245,4.876 3.466,6.625 10.277,8.093 21.772,13.971 33.806,18.901 2.193,0.898 4.371,0.848 5.808,-1.173 1.779,-2.501 3.345,-5.403 1.313,-8.378 C 12.504,66.875 9.876,62.778 6.485,59.541 -7.37,46.313 -3.495,44.668 5.101,32.511 10.085,25.462 15.602,18.787 19.637,11.105 c 1.4,-2.667 2.562,-5.459 3.857,-8.182 6.262,-13.171 4.589,-24.98 -5.731,-35.556 -2.223,-2.278 -4.336,-3.939 -7.609,-4.268 -6.02,-0.604 -12.004,-1.555 -18.012,-2.288 -3.573,-0.436 -6.663,-1.477 -8.648,-4.855 -0.852,-1.449 -2.204,-2.662 -3.504,-3.778 -5.481,-4.7 -8.453,-4.041 -11.794,2.518 -0.979,1.921 -2.097,3.79 -2.874,5.79 -1.153,2.972 -1.01,5.872 0.946,8.609 3.027,4.235 6.161,8.233 10.686,11.132 6.541,4.19 12.799,8.822 19.176,13.267 C -1.679,-4.979 0.212,-3.262 0,0" style="fill:#494643;fill-opacity:1;fill-rule:nonzero;stroke:none" transform="matrix(1.3333333,0,0,-1.3333333,159.79533,3599.9936)" />
      <path id="path184" d="m 0,0 c 0.108,-6.653 -1.369,-8.951 -6.98,-9.434 -19.85,-1.708 -16.625,-3.909 -16.31,-19.754 0.333,-16.781 0.105,-33.572 0.197,-50.359 0.043,-7.91 -3.457,-7.631 -8.886,-7.738 -2.427,-0.048 -4.026,1.305 -4.505,3.701 -0.591,2.954 -1.202,5.919 -1.527,8.909 -1.953,17.971 -3.827,35.951 -5.725,53.928 -0.045,0.428 -0.042,0.861 -0.088,1.289 -0.633,5.777 -1.919,6.823 -7.309,5.876 -3.387,-0.595 -6.745,-1.404 -10.152,-1.815 -2.919,-0.353 -4.895,0.988 -5.539,4.063 -0.82,3.915 -0.154,6.875 2.454,7.879 4.001,1.539 8.078,3.117 12.269,3.881 C -36.868,3.205 -21.579,5.678 -6.3,8.203 -3.171,8.72 -1.303,7.368 -0.682,4.372 -0.334,2.691 -0.149,0.977 0,0" style="fill:#494643;fill-opacity:1;fill-rule:nonzero;stroke:none" transform="matrix(1.3333333,0,0,-1.3333333,287.2432,3509.3109)" />
      </g></svg>