<?xml version='1.0' encoding='utf-8'?>
<svg xmlns="http://www.w3.org/2000/svg" version="1.1" width="152.352" height="173.213" viewBox="2227.220 2518.130 152.352 173.213"><defs id="defs1"><clipPath clipPathUnits="userSpaceOnUse" id="clipPath46">
      <path d="M 0,3370.3901 H 2383.9401 V -2.5000001e-5 H 0 Z" id="path46" />
    </clipPath>
  </defs><g id="object"><path id="path26" d="M 0,0 C -0.023,14.027 -0.34,28.065 0.105,42.078 0.343,49.597 -0.919,59.988 10.369,59.902 21.407,59.818 21.208,49.509 20.571,42.015 18.652,19.434 25.165,8.734 50.95,9.14 c 24.377,0.384 36.495,6.419 33.51,32.542 -0.833,7.295 -1.345,17.8 9.718,18.223 11.258,0.43 10.679,-9.764 10.752,-17.419 0.276,-28.928 0.265,-57.862 0.002,-86.79 -0.071,-7.8 -0.098,-17.611 -11.504,-16.618 -9.128,0.794 -8.287,9.692 -9.05,16.571 -3.357,30.25 -24.325,43.036 -52.74,32.317 -14.971,-5.647 -9.27,-18.79 -10.809,-29.302 -1.192,-8.137 1.863,-20.083 -11.312,-19.456 -10.708,0.51 -9.148,11.194 -9.373,18.714 C -0.277,-28.064 0.023,-14.027 0,0" style="fill:#424242;fill-opacity:1;fill-rule:nonzero;stroke:none" transform="matrix(1.3333333,0,0,-1.3333333,2233.3947,2604.0191)" />
      </g></svg>