<?xml version='1.0' encoding='utf-8'?>
<svg xmlns="http://www.w3.org/2000/svg" version="1.1" width="23.211" height="123.023" viewBox="2237.640 4060.460 23.211 123.023"><g id="object"><path id="path363" d="m 0,0 c -0.259,-12.523 -0.52,-25.047 -0.774,-37.57 -0.034,-1.695 -0.602,-3.175 -2.374,-3.474 -1.69,-0.285 -2.956,0.805 -3.84,2.181 -1.345,2.096 -1.282,4.487 -1.179,6.834 0.258,5.87 0.797,11.734 0.858,17.603 0.169,16.459 0.126,32.919 0.24,49.378 0.018,2.616 -0.722,5.716 2.639,7.07 2.247,0.905 4.524,-2.231 4.565,-6.772 C 0.24,23.5 0.17,11.747 0.17,-0.004 0.114,-0.003 0.057,-0.001 0,0" style="fill:#cd4152;fill-opacity:1;fill-rule:nonzero;stroke:none" transform="matrix(1.3333333,0,0,-1.3333333,2254.5964,4122.6999)" />
      </g></svg>