<?xml version='1.0' encoding='utf-8'?>
<svg xmlns="http://www.w3.org/2000/svg" version="1.1" width="403.588" height="451.654" viewBox="221.985 3139.380 403.588 451.654"><defs id="defs1"><clipPath clipPathUnits="userSpaceOnUse" id="clipPath4">
      <path d="M -2384.1568,2286.7354 H -0.21670001 V -1083.6547 H -2384.1568 Z" id="path4" />
    </clipPath>
    <clipPath clipPathUnits="userSpaceOnUse" id="clipPath6">
      <path d="M -2384.0266,1933.815 H -0.086575 v -3370.39 H -2384.0266 Z" id="path6" />
    </clipPath>
    <clipPath clipPathUnits="userSpaceOnUse" id="clipPath8">
      <path d="M -2384.1847,2520.3537 H -0.24460001 V -850.0364 H -2384.1847 Z" id="path8" />
    </clipPath>
    <clipPath clipPathUnits="userSpaceOnUse" id="clipPath10">
      <path d="M -1378.8652,3371.3417 H 1005.0749 V 0.95157502 h -2383.9401 z" id="path10" />
    </clipPath>
    <clipPath clipPathUnits="userSpaceOnUse" id="clipPath12">
      <path d="M -2383.8391,1819.185 H 0.100925 v -3370.39 H -2383.8391 Z" id="path12" />
    </clipPath>
    <clipPath clipPathUnits="userSpaceOnUse" id="clipPath14">
      <path d="M -2384.2639,1767.3618 H -0.32387501 V -1603.0283 H -2384.2639 Z" id="path14" />
    </clipPath>
  </defs><g id="object"><path id="path17" d="m 0,0 c 27.692,-0.358 63.122,-0.746 82.59,33.163 26.451,46.07 24.076,94.097 0.547,141.146 -3.885,7.769 -10.731,13.293 -17.907,18.667 -27.761,20.787 -60.092,16.592 -91.512,18.556 -16.417,1.027 -22.23,-4.462 -21.942,-21.382 0.852,-50.029 -0.014,-100.086 0.086,-150.132 C -48.057,-0.479 -47.868,-0.479 0,0 m -118.921,269.336 c 49.154,0.305 98.311,1.115 147.461,0.802 81.204,-0.517 136.338,-53.271 143.755,-134.298 4.13,-45.125 -0.913,-88.913 -21.127,-128.738 -11.464,-22.585 -33.275,-39.141 -56.422,-51.704 -6.241,-3.387 -12.485,-6.765 -18.728,-10.148 -57.494,-8.601 -115.31,-2.673 -172.958,-4.126 -16.873,-0.425 -21.847,5.387 -21.764,21.722 0.39,76.827 -0.158,153.659 -0.468,230.489 -0.051,12.655 -0.582,25.308 -0.891,37.961 0.037,6.395 0.074,12.789 0.11,19.184 0.344,6.285 0.688,12.57 1.032,18.856" style="fill:#9e998f;fill-opacity:1;fill-rule:nonzero;stroke:none" transform="matrix(1.3333333,0,0,-1.3333333,388.06853,3505.6607)" />
      </g></svg>