<?xml version='1.0' encoding='utf-8'?>
<svg xmlns="http://www.w3.org/2000/svg" version="1.1" width="227.679" height="304.639" viewBox="1481.130 3953.660 227.679 304.639"><defs id="defs1"><clipPath clipPathUnits="userSpaceOnUse" id="clipPath37">
      <path d="M 0,3370.3901 H 2383.9401 V -2.5000001e-5 H 0 Z" id="path37" />
    </clipPath>
  </defs><g id="object"><path id="path7" d="m 0,0 h -0.181 c 0,15.893 0.175,31.788 -0.079,47.676 -0.114,7.113 -2.361,13.772 -10.744,14.463 -9.928,0.817 -13.529,-6.695 -13.662,-14.462 -0.543,-31.769 -0.582,-63.558 -0.029,-95.325 0.133,-7.657 3.712,-15.512 13.642,-14.491 9.809,1.008 10.832,9.265 10.973,16.971 C 0.193,-30.116 0,-15.056 0,0 m 65.195,0.449 c -0.013,-17.652 0.369,-35.313 -0.141,-52.948 -0.37,-12.8 -3.012,-25.579 -12.643,-34.748 -30.882,-29.405 -68.234,-24.811 -104.532,-16.252 -29.748,7.015 -41.777,30.54 -43.635,59.864 -2.336,36.877 6.786,73.132 5.355,110.154 -0.575,14.871 10.952,28.418 26.243,33.775 31.739,11.121 64.217,12.731 96.445,1.843 C 54.005,94.8 63.316,77.191 64.92,55.887 66.304,37.505 65.207,18.937 65.195,0.449" style="fill:#d7bb98;fill-opacity:1;fill-rule:nonzero;stroke:none" transform="matrix(1.3333333,0,0,-1.3333333,1615.3209,4105.6816)" />
      </g></svg>