<?xml version='1.0' encoding='utf-8'?>
<svg xmlns="http://www.w3.org/2000/svg" version="1.1" width="59.057" height="100.019" viewBox="2193.700 4361.630 59.057 100.019"><g id="object"><path id="path93" d="m 0,0 c 0.007,2.402 -1.214,5.46 -4.456,7.663 -2.548,1.732 -4.603,1.864 -6.62,-0.772 -2.189,-2.86 -2.323,-14.178 -0.065,-16.68 2.377,-2.635 4.883,-2.416 7.359,-0.234 C -1.192,-7.738 0.079,-4.814 0,0 m -23.344,-13.529 c 0,8.509 0.121,17.02 -0.059,25.526 -0.073,3.417 0.844,5.597 4.539,5.605 6.566,0.015 13.176,0.563 19.591,-1.536 C 9.794,13.099 15.518,0.577 9.071,-7.907 0.933,-18.614 4.875,-27.433 8.706,-37.209 c 0.514,-1.313 1.225,-2.648 1.315,-4.007 0.144,-2.196 4.15,-5.154 -0.043,-6.417 -3.559,-1.073 -8.103,-1.63 -9.957,3.786 -1.745,5.095 -3.677,10.146 -5.897,15.049 -0.892,1.968 -1.947,5 -4.815,4.379 -3.158,-0.684 -0.947,-3.646 -1.205,-5.476 -0.609,-4.318 -0.707,-8.737 -0.659,-13.11 0.036,-3.35 -0.532,-5.062 -4.598,-5.067 -3.78,-0.004 -5.432,1.493 -5.481,4.778 -0.15,9.92 -0.055,19.843 -0.055,29.764 -0.218,10e-4 -0.437,10e-4 -0.655,10e-4" style="fill:#c33c36;fill-opacity:1;fill-rule:nonzero;stroke:none" transform="matrix(1.3333333,0,0,-1.3333333,2230.912,4391.2032)" />
      </g></svg>