<?xml version='1.0' encoding='utf-8'?>
<svg xmlns="http://www.w3.org/2000/svg" version="1.1" width="68.324" height="100.629" viewBox="688.981 4070.170 68.324 100.629"><g id="object"><path id="path70" d="m 0,0 c -3.165,-9.92 -1.273,-19.616 -1.771,-29.102 -0.239,-4.552 -0.775,-7.097 -6.173,-6.742 -5.186,0.341 -6.706,2.372 -6.608,7.599 0.274,14.735 0.946,29.487 -0.22,44.227 -0.203,2.561 0.278,5.191 0.585,7.771 0.403,3.381 0.87,6.583 5.525,6.814 4.187,0.207 7.513,-0.668 9.285,-4.795 3.146,-7.329 6.235,-14.683 9.396,-22.006 0.794,-1.84 1.041,-4.884 3.779,-4.2 1.89,0.472 2.091,3.415 1.404,4.999 -2.985,6.88 1.535,13.929 -0.963,20.979 -1.262,3.564 2.098,5.169 5.805,4.989 3.49,-0.171 7.422,0.882 7.378,-4.842 -0.146,-18.677 -0.185,-37.356 -0.193,-56.034 -10e-4,-3.059 -0.932,-5.163 -4.281,-5.244 -3.453,-0.083 -7.249,-1.018 -8.971,3.581 -2.642,7.056 -5.592,13.998 -8.123,21.091 C 4.517,-7.171 3.056,-3.6 0,0" style="fill:#494f57;fill-opacity:1;fill-rule:nonzero;stroke:none" transform="matrix(1.3333333,0,0,-1.3333333,714.74213,4116.9656)" />
      </g></svg>