<?xml version='1.0' encoding='utf-8'?>
<svg xmlns="http://www.w3.org/2000/svg" version="1.1" width="103.026" height="111.382" viewBox="1641.810 4001.540 103.026 111.382"><g id="object"><path id="path352" d="m 0,0 c -5.642,0.78 -10.874,-1.628 -16.326,-2.034 -1.616,-0.121 -2.777,-1.206 -3.761,-2.531 -8.4,-11.315 -11.811,-23.697 -8.382,-37.662 3.162,-12.882 17.732,-18.02 26.552,-16.002 20.157,4.61 31.68,25.875 24.831,45.675 -1.951,5.643 -5.382,9.502 -11.35,10.677 C 7.735,-1.124 3.856,-0.617 0,0 m -36.284,-31.449 c 0.127,12.172 3.924,23.148 11.444,32.717 5.621,7.153 12.736,10.166 21.845,7.193 C 0.728,7.247 4.558,6.315 8.39,5.493 27.072,1.486 32.021,-10.289 31.895,-26.134 31.849,-31.869 30.152,-37.865 27.993,-43.255 22.604,-56.709 6.088,-66.598 -8.164,-64.706 c -15.633,2.075 -26.079,12.114 -28.086,27.368 -0.254,1.932 -0.034,3.925 -0.034,5.889" style="fill:#4b475f;fill-opacity:1;fill-rule:nonzero;stroke:none" transform="matrix(1.3333333,0,0,-1.3333333,1696.3037,4020.3389)" />
      </g></svg>