<?xml version='1.0' encoding='utf-8'?>
<svg xmlns="http://www.w3.org/2000/svg" version="1.1" width="113.484" height="188.982" viewBox="238.322 2422.470 113.484 188.982"><g id="object"><path id="path28" d="m 0,0 c 1.583,29.912 5.119,59.458 14.091,88.16 0.773,2.475 1.666,4.918 2.316,7.425 0.853,3.292 2.819,5.225 6.189,5.759 12.402,1.963 24.856,3.039 37.421,2.208 2.559,-0.169 3.737,-1.8 4.195,-4.126 0.083,-0.422 0.147,-0.859 0.134,-1.287 C 63.918,84.036 66.789,81.292 49.147,82.346 31.854,83.378 33.188,82.793 32.121,66.529 31.951,63.941 31.883,61.345 31.796,58.752 31.5,49.861 31.571,49.811 40.11,50.778 c 6.437,0.729 12.872,1.491 19.324,2.064 1.902,0.169 3.409,-1.064 3.494,-3.008 0.131,-2.995 0.054,-6.028 -0.286,-9.005 C 62.321,38.02 60.566,36.101 57.742,35.48 52.255,34.274 46.701,33.346 41.254,31.987 33.579,30.072 32.772,29.049 32.361,21.567 31.958,14.234 31.596,6.895 31.455,-0.446 c -0.064,-3.317 1.554,-4.659 4.897,-4.254 5.577,0.674 11.122,1.607 16.681,2.427 4.701,0.694 9.384,1.565 14.107,2.028 7.017,0.689 9.516,-1.957 8.823,-8.842 -0.25,-2.488 -1.661,-3.827 -3.998,-4.364 C 50.089,-18.48 28.222,-23.548 6.331,-28.511 1.463,-29.614 0.138,-28.525 0.039,-23.339 -0.11,-15.562 0,-7.78 0,0" style="fill:#494643;fill-opacity:1;fill-rule:nonzero;stroke:none" transform="matrix(1.3333333,0,0,-1.3333333,244.37413,2566.9196)" />
      </g></svg>