<?xml version='1.0' encoding='utf-8'?>
<svg xmlns="http://www.w3.org/2000/svg" version="1.1" width="746.074" height="66.375" viewBox="361.250 3707.960 746.074 66.375"><g id="object"><path id="path7" d="M 3.3267,-0.00136406 H 7.1352937 V -13.360739 H 18.303262 v -3.152344 H 7.1352937 v -9.820312 H 19.229044 v -3.1875 H 3.3267 Z M 40.214395,-9.9037078 c 0.04687,-0.3867192 0.128907,-1.0078122 0.128907,-1.7929692 0,-3.902343 -1.839844,-9.984375 -8.753907,-9.984375 -6.175781,0 -9.949218,5.039063 -9.949218,11.425782 0,6.3984372 3.902343,10.68749969 10.429687,10.68749969 3.375,0 5.695313,-0.69140625 7.054688,-1.3125 L 38.456583,-3.6341766 c -1.441406,0.609375 -3.105469,1.0898438 -5.859375,1.0898438 -3.855469,0 -7.183594,-2.1445313 -7.277344,-7.359375 z M 25.366739,-12.657614 c 0.304688,-2.671875 2.015625,-6.269531 5.90625,-6.269531 4.335938,0 5.390625,3.808593 5.34375,6.269531 z m 22.910156,12.65624994 0.175782,-3.50390624 h 0.128906 c 1.582031,2.80078124 4.03125,3.98437499 7.101562,3.98437499 4.722657,0 9.503907,-3.76171879 9.503907,-11.34374969 0.04687,-6.445313 -3.679688,-10.816407 -8.941407,-10.816407 -3.410156,0 -5.871093,1.535157 -7.21875,3.890625 h -0.09375 v -13.3125 h -3.808593 v 25.6289067 c 0,1.875 -0.09375,4.03125 -0.175782,5.47265624 z m 0.65625,-12.30468794 c 0,-0.621093 0.128907,-1.148437 0.222657,-1.582031 0.785156,-2.929687 3.234375,-4.734375 5.871093,-4.734375 4.113282,0 6.304688,3.644531 6.304688,7.886719 0,4.8632812 -2.414063,8.1445312 -6.445313,8.1445312 -2.800781,0 -5.027343,-1.8398438 -5.777343,-4.5117188 -0.08203,-0.4335937 -0.175782,-0.9140625 -0.175782,-1.3945312 z m 21.120117,12.30468794 h 3.808594 V -11.298239 c 0,-0.65625 0.09375,-1.277344 0.175781,-1.804688 0.527344,-2.882812 2.449219,-4.945312 5.167969,-4.945312 0.527344,0 0.925781,0.04687 1.3125,0.128906 v -3.632812 c -0.351562,-0.09375 -0.65625,-0.128907 -1.089844,-0.128907 -2.589843,0 -4.910156,1.792969 -5.871093,4.640625 h -0.175782 l -0.128906,-4.160156 h -3.375 c 0.128906,1.96875 0.175781,4.113281 0.175781,6.609375 z M 102.12162,-21.200583 h -3.855467 v 13.0078127 c 0,0.703125 -0.128906,1.40625 -0.351562,1.96875 -0.703125,1.7109375 -2.496094,3.5039062 -5.085938,3.5039062 -3.503906,0 -4.722656,-2.71875 -4.722656,-6.7382812 V -21.200583 h -3.855469 v 12.3984377 c 0,7.4414062 3.984375,9.28124999 7.3125,9.28124999 3.761719,0 6,-2.23828129 7.007813,-3.93749999 h 0.08203 l 0.222656,3.45703124 h 3.421873 c -0.1289,-1.66406254 -0.17578,-3.59765624 -0.17578,-5.77734374 z m 21.6416,21.19921894 c -0.26953,-1.44140624 -0.35156,-3.24609374 -0.35156,-5.08593754 v -7.9218754 c 0,-4.253906 -1.58203,-8.671875 -8.0625,-8.671875 -2.67187,0 -5.21484,0.738282 -6.96094,1.875 l 0.86719,2.542969 c 1.5,-0.960937 3.55078,-1.570312 5.51953,-1.570312 4.33594,0 4.82813,3.152343 4.82813,4.898437 v 0.445313 c -8.19141,-0.04687 -12.75,2.753906 -12.75,7.8867184 0,3.0585938 2.1914,6.08203129 6.48047,6.08203129 3.02343,0 5.29687,-1.48828129 6.48046,-3.15234379 h 0.12891 l 0.31641,2.67187504 z M 119.6851,-7.1380828 c 0,0.3867187 -0.082,0.8320312 -0.22266,1.21875 -0.60937,1.8046875 -2.35547,3.5507812 -5.12109,3.5507812 -1.96875,0 -3.63281,-1.1835937 -3.63281,-3.6796875 0,-4.1132809 4.76953,-4.8632809 8.97656,-4.7695309 z m 9.94922,7.13671874 h 3.80859 V -11.298239 c 0,-0.65625 0.0937,-1.277344 0.17578,-1.804688 0.52735,-2.882812 2.44922,-4.945312 5.16797,-4.945312 0.52734,0 0.92578,0.04687 1.3125,0.128906 v -3.632812 c -0.35156,-0.09375 -0.65625,-0.128907 -1.08984,-0.128907 -2.58985,0 -4.91016,1.792969 -5.8711,4.640625 h -0.17578 l -0.1289,-4.160156 h -3.375 c 0.1289,1.96875 0.17578,4.113281 0.17578,6.609375 z m 12.62109,-21.19921894 7.83984,19.5351564 c 0.17579,0.4804688 0.25782,0.78515629 0.25782,1.00781254 0,0.22265625 -0.12891,0.52734375 -0.30469,0.9140625 -0.87891,1.98046876 -2.19141,3.46874996 -3.24609,4.30078126 -1.13672,0.9609375 -2.40235,1.5703125 -3.36329,1.875 l 0.96094,3.2460937 c 0.96094,-0.1757812 2.84766,-0.8320312 4.73438,-2.4960937 2.625,-2.2734375 4.51172,-6 7.26562,-13.2773438 l 5.77735,-15.1054689 h -4.06641 l -4.20703,12.4335939 c -0.52735,1.5351563 -0.96094,3.1640625 -1.35938,4.4296875 h -0.082 c -0.35156,-1.265625 -0.8789,-2.9414062 -1.35937,-4.3359375 l -4.65235,-12.5273439 z m 31.36231,19.7578127 c 1.40625,0.91406249 4.20703,1.92187499 7.40625,1.92187499 6.83203,0 10.38281,-3.98437499 10.38281,-8.54296879 0,-3.9843749 -2.84766,-6.6093749 -6.35156,-7.3124999 v -0.09375 c 3.5039,-1.265625 5.25,-3.761719 5.25,-6.691406 0,-3.46875 -2.54297,-6.796875 -8.14454,-6.796875 -3.07031,0 -5.95312,1.101562 -7.45312,2.191406 l 1.00781,2.800781 c 1.23047,-0.867187 3.42188,-1.875 5.69531,-1.875 3.55079,0 4.99219,2.015625 4.99219,4.289063 0,3.375 -3.53906,4.816406 -6.35156,4.816406 h -2.14453 v 2.894531 h 2.14453 c 3.72656,0 7.32422,1.710938 7.35937,5.6953127 0.0469,2.3671875 -1.48828,5.5195312 -6.43359,5.5195312 -2.67187,0 -5.21484,-1.1015625 -6.30469,-1.8046875 z m 24.09082,6.5625 c 1.23046,-2.0507813 3.15234,-6.9140625 4.16015,-10.640625 l -4.28906,0.4335937 c -0.48047,3.1992188 -1.66406,7.8867188 -2.625,10.4765625 z m 25.23632,-5.12109376 h 3.72657 V -28.477927 h -3.28125 l -6.22266,3.328125 0.73828,2.941407 4.95703,-2.671875 h 0.082 z m 23.30567,0.48046875 c 5.4375,0 9.67969,-3.32812499 9.67969,-8.27343749 0,-3.4687502 -2.19141,-5.9648442 -5.73047,-7.3593752 v -0.140625 c 3.5039,-1.664062 4.6875,-4.242187 4.6875,-6.65625 0,-3.550781 -2.76563,-7.007812 -8.28516,-7.007812 -4.99219,0 -8.80078,3.070312 -8.80078,7.582031 0,2.449219 1.35937,4.910156 4.51172,6.398437 l 0.0469,0.128907 c -3.51562,1.488281 -5.66015,4.03125 -5.66015,7.6171872 0,4.1601562 3.59765,7.71093749 9.55078,7.71093749 z m 0.0937,-2.80078129 c -3.64453,0 -5.82422,-2.5429687 -5.69531,-5.4375 0,-2.7070314 1.79296,-4.8984374 5.12109,-5.8710934 3.85547,1.101562 6.26953,2.765625 6.26953,6.2226559 0,2.9414063 -2.23828,5.0859375 -5.69531,5.0859375 z m 0.0352,-23.8710934 c 3.46875,0 4.82813,2.367187 4.82813,4.640625 0,2.578125 -1.88672,4.335937 -4.33594,5.167968 -3.29297,-0.878906 -5.4375,-2.414062 -5.4375,-5.261718 0,-2.449219 1.75781,-4.546875 4.94531,-4.546875 z m 15.38672,26.62499969 c 0.91407,0.046875 2.14453,0 3.55078,-0.2109375 3.0586,-0.3515625 6.08204,-1.66406249 8.27344,-3.82031249 2.80078,-2.7070313 4.91016,-7.0898437 4.91016,-13.3593747 0,-7.265625 -3.59766,-12 -9.42188,-12 -5.82422,0 -9.72656,4.734375 -9.72656,10.125 0,4.863281 3.29297,8.71875 8.41406,8.71875 2.84766,0 5.1211,-1.148438 6.70313,-3.070313 h 0.1289 c -0.52734,3.3750002 -1.88671,5.8710939 -3.76171,7.5820314 -1.62891,1.5234375 -3.72657,2.4492188 -5.96485,2.7539063 -1.3125,0.1289062 -2.27344,0.2226562 -3.10547,0.1289062 z m 7.00782,-26.44921869 c 4.03125,0 5.82421,3.714844 5.82421,8.578125 0,0.621094 -0.1289,1.054687 -0.35156,1.40625 -1.00781,1.710937 -3.02344,2.976562 -5.60156,2.976562 -3.32813,0 -5.48438,-2.496093 -5.48438,-6.046875 0,-4.03125 2.33204,-6.914062 5.61329,-6.914062 z m 22.42675,26.49609369 c 5.4375,0 9.67969,-3.32812499 9.67969,-8.27343749 0,-3.4687502 -2.19141,-5.9648442 -5.73047,-7.3593752 v -0.140625 c 3.50391,-1.664062 4.6875,-4.242187 4.6875,-6.65625 0,-3.550781 -2.76562,-7.007812 -8.28515,-7.007812 -4.99219,0 -8.80079,3.070312 -8.80079,7.582031 0,2.449219 1.35938,4.910156 4.51172,6.398437 l 0.0469,0.128907 c -3.51563,1.488281 -5.66016,4.03125 -5.66016,7.6171872 0,4.1601562 3.59766,7.71093749 9.55078,7.71093749 z m 0.0937,-2.80078129 c -3.64453,0 -5.82422,-2.5429687 -5.69531,-5.4375 0,-2.7070314 1.79297,-4.8984374 5.12109,-5.8710934 3.85547,1.101562 6.26954,2.765625 6.26954,6.2226559 0,2.9414063 -2.23829,5.0859375 -5.69532,5.0859375 z m 0.0352,-23.8710934 c 3.46875,0 4.82812,2.367187 4.82812,4.640625 0,2.578125 -1.88671,4.335937 -4.33593,5.167968 -3.29297,-0.878906 -5.4375,-2.414062 -5.4375,-5.261718 0,-2.449219 1.75781,-4.546875 4.94531,-4.546875 z m 12.48926,12.914062 v 2.847656 h 10.8164 v -2.847656 z m 41.09472,13.27734394 h 3.72657 L 346.80033,-29.520895 h -4.86328 l -5.26172,14.273437 c -1.3125,3.726563 -2.36718,6.9726564 -3.10547,9.9492189 h -0.14062 c -0.73828,-3.0703125 -1.74609,-6.3164059 -2.97656,-9.9492189 l -5.03907,-14.273437 h -4.86328 l -2.05078,29.51953094 h 3.63281 l 0.78516,-12.65624994 c 0.26953,-4.429688 0.48047,-9.375 0.57422,-13.054688 h 0.082 c 0.83203,3.503907 2.01563,7.3125 3.42188,11.472657 l 4.76953,14.06249969 h 2.89453 l 5.21484,-14.32031269 c 1.48828,-4.078125 2.71875,-7.757812 3.72656,-11.214844 h 0.12891 c -0.0469,3.679688 0.22266,8.625 0.43359,12.75 z m 24.97266,0 C 369.61673,-1.4427703 369.5347,-3.2474578 369.5347,-5.0873016 v -7.9218754 c 0,-4.253906 -1.58203,-8.671875 -8.0625,-8.671875 -2.67188,0 -5.21485,0.738282 -6.96094,1.875 l 0.86719,2.542969 c 1.5,-0.960937 3.55078,-1.570312 5.51953,-1.570312 4.33594,0 4.82812,3.152343 4.82812,4.898437 v 0.445313 c -8.1914,-0.04687 -12.75,2.753906 -12.75,7.8867184 0,3.0585938 2.19141,6.08203129 6.48047,6.08203129 3.02344,0 5.29688,-1.48828129 6.48047,-3.15234379 h 0.12891 l 0.3164,2.67187504 z m -4.07812,-7.13671874 c 0,0.3867187 -0.082,0.8320312 -0.22266,1.21875 -0.60938,1.8046875 -2.35547,3.5507812 -5.12109,3.5507812 -1.96875,0 -3.63282,-1.1835937 -3.63282,-3.6796875 0,-4.1132809 4.76953,-4.8632809 8.97657,-4.7695309 z m 6.7998,-14.0625002 7.83984,19.5351564 c 0.17578,0.4804688 0.25782,0.78515629 0.25782,1.00781254 0,0.22265625 -0.12891,0.52734375 -0.30469,0.9140625 -0.87891,1.98046876 -2.19141,3.46874996 -3.2461,4.30078126 -1.13671,0.9609375 -2.40234,1.5703125 -3.36328,1.875 l 0.96094,3.2460937 c 0.96094,-0.1757812 2.84766,-0.8320312 4.73438,-2.4960937 2.625,-2.2734375 4.51171,-6 7.26562,-13.2773438 l 5.77734,-15.1054689 h -4.0664 l -4.20703,12.4335939 c -0.52735,1.5351563 -0.96094,3.1640625 -1.35938,4.4296875 h -0.082 c -0.35156,-1.265625 -0.87891,-2.9414062 -1.35937,-4.3359375 l -4.65235,-12.5273439 z m 39.8584,21.19921894 h 3.72656 V -28.477927 h -3.28125 l -6.22266,3.328125 0.73829,2.941407 4.95703,-2.671875 h 0.082 z m 22.47363,0 h 3.72656 V -28.477927 h -3.28125 l -6.22265,3.328125 0.73828,2.941407 4.95703,-2.671875 h 0.082 z M 450.5347,5.1197297 c 1.23047,-2.0507813 3.15234,-6.9140625 4.16015,-10.640625 l -4.28906,0.4335937 c -0.48047,3.1992188 -1.66406,7.8867188 -2.625,10.4765625 z m 25.23633,-5.12109376 h 3.72656 V -28.477927 h -3.28125 l -6.22266,3.328125 0.73828,2.941407 4.95703,-2.671875 h 0.082 z m 16.34472,0.43359375 c 0.91406,0.046875 2.14453,0 3.55078,-0.2109375 3.0586,-0.3515625 6.08203,-1.66406249 8.27344,-3.82031249 2.80078,-2.7070313 4.91016,-7.0898437 4.91016,-13.3593747 0,-7.265625 -3.59766,-12 -9.42188,-12 -5.82422,0 -9.72656,4.734375 -9.72656,10.125 0,4.863281 3.29297,8.71875 8.41406,8.71875 2.84766,0 5.1211,-1.148438 6.70313,-3.070313 h 0.1289 c -0.52734,3.3750002 -1.88672,5.8710939 -3.76172,7.5820314 -1.6289,1.5234375 -3.72656,2.4492188 -5.96484,2.7539063 -1.3125,0.1289062 -2.27344,0.2226562 -3.10547,0.1289062 z m 7.00781,-26.44921869 c 4.03125,0 5.82422,3.714844 5.82422,8.578125 0,0.621094 -0.1289,1.054687 -0.35156,1.40625 -1.00781,1.710937 -3.02344,2.976562 -5.60156,2.976562 -3.32813,0 -5.48438,-2.496093 -5.48438,-6.046875 0,-4.03125 2.33203,-6.914062 5.61328,-6.914062 z m 13.75782,-2.460938 v 3.199219 h 13.93359 v 0.09375 l -12.35156,25.18359394 h 3.98437 L 530.84623,-25.934958 v -2.542969 z m 38.20019,-0.433593 c -0.70312,0 -1.66406,0.04687 -2.80078,0.222656 -3.59765,0.433594 -6.75,1.875 -9.11719,4.195312 -2.80078,2.8125 -4.8164,7.230469 -4.8164,12.84375 0,7.3945317 3.98437,12.12890669 10.07812,12.12890669 5.90625,0 9.45703,-4.81640629 9.45703,-10.03124999 0,-5.5664067 -3.55078,-9.1992187 -8.57812,-9.1992187 -3.16406,0 -5.51953,1.488281 -6.87891,3.28125 h -0.1289 c 0.65625,-4.675781 3.84375,-9.105469 9.89062,-10.113281 1.10156,-0.175782 2.10938,-0.222657 2.89453,-0.175782 z m -6.65625,26.4140622 c -4.03125,0 -6.17578,-3.4570313 -6.26953,-8.1445312 0,-0.703125 0.17578,-1.277344 0.44531,-1.710938 1.04297,-2.0625 3.19922,-3.503906 5.51954,-3.503906 3.53906,0 5.87109,2.449219 5.87109,6.5273439 0,4.0664063 -2.23828,6.8320313 -5.56641,6.8320313 z m 0,0" style="fill:#ffffff;fill-opacity:1;fill-rule:nonzero;stroke:none" aria-label="February 3, 1898-May 11, 1976" transform="matrix(1.3333333,0,0,1.3333333,362.8144,3755.4276)" />
    </g></svg>