<?xml version='1.0' encoding='utf-8'?>
<svg xmlns="http://www.w3.org/2000/svg" version="1.1" width="79.080" height="138.660" viewBox="293.285 4042.320 79.080 138.660"><g id="object"><path id="path174" d="M 0,0 C 2.574,0.144 5.283,2.586 4.936,4.669 4.591,6.743 2.848,7.059 1.107,7.036 -1.325,7.003 -2.892,5.743 -3.051,3.301 -3.179,1.339 -1.808,0.374 0,0 m -7.848,-39.07 c -2.201,-3.263 -2.328,-7.068 -3.115,-10.711 -1.543,-7.146 -3.357,-14.232 -5.053,-21.344 -0.958,-4.016 -3.931,-5.364 -7.617,-5.812 -2.976,-0.36 -5.243,1.457 -4.938,4.381 1.254,11.999 2.45,24.01 4.04,35.966 1.817,13.67 4.225,27.262 5.993,40.937 0.983,7.609 4.975,11.292 12.366,12.643 7.37,1.349 14.615,1.21 21.863,-0.122 4.453,-0.818 6.472,-3.774 5.936,-8.528 -1.113,-9.862 -5.16,-18.141 -13.403,-24.145 -3.795,-2.765 -9.369,-4.534 -10.555,-9.076 -1.339,-5.127 3.159,-9.542 5.359,-14.113 4.304,-8.943 9.115,-17.64 13.604,-26.495 1.15,-2.268 2.676,-4.509 2.312,-7.281 -0.243,-1.851 -1.304,-3.113 -3.008,-3.846 -1.778,-0.764 -3.556,-0.614 -4.55,1.053 -1.758,2.952 -3.292,6.047 -4.761,9.157 -4.05,8.579 -7.993,17.209 -12.071,25.774 -0.299,0.628 -1.345,0.9 -2.402,1.562" style="fill:#494643;fill-opacity:1;fill-rule:nonzero;stroke:none" transform="matrix(1.3333333,0,0,-1.3333333,337.41587,4072.2336)" />
      </g></svg>