<?xml version='1.0' encoding='utf-8'?>
<svg xmlns="http://www.w3.org/2000/svg" version="1.1" width="55.881" height="103.725" viewBox="792.607 4068.210 55.881 103.725"><g id="object"><path id="path129" d="m 0,0 c -4.456,-0.019 -9.552,4.923 -13.215,-1.385 -3.699,-6.373 0.4,-9.597 5.027,-13.269 3.559,-2.825 7.546,-5.24 10.144,-9.49 5.362,-8.772 2.193,-24.297 -6.471,-29.364 -5.871,-3.435 -12.016,-2.228 -17.864,-0.688 -3.415,0.9 -4.599,4.307 -3.757,8.129 0.638,2.901 2.13,2.894 4.623,2.531 5.049,-0.735 10.752,-0.818 12.593,4.959 1.772,5.563 -2.136,9.841 -6.397,13.034 -4.878,3.657 -10.592,6.379 -12.198,13.079 -1.953,8.154 -0.477,15.289 5.618,21.388 5.808,5.811 12.451,4.399 19.078,2.444 C 1.299,10.154 1.7,7.913 0,0" style="fill:#494f57;fill-opacity:1;fill-rule:nonzero;stroke:none" transform="matrix(1.3333333,0,0,-1.3333333,836.3716,4091.6399)" />
      </g></svg>