<?xml version='1.0' encoding='utf-8'?>
<svg xmlns="http://www.w3.org/2000/svg" version="1.1" width="123.622" height="151.376" viewBox="1114.420 4022.430 123.622 151.376"><g id="object"><path id="path335" d="m 0,0 -0.62,0.307 c 0,0 -0.437,-0.538 -0.437,-0.538 -6.561,-1.244 -10.607,-5.929 -14.147,-10.926 -4.045,-5.71 -3.631,-9.26 1.298,-14.369 4.883,-5.062 10.714,-8.733 17.57,-10.618 0.611,-1.593 1.951,-2.065 3.475,-2.262 0.819,-1.44 2.104,-2.116 3.707,-2.272 6.862,-5.569 13.824,-11.038 18.573,-18.704 1.479,-7.198 -1.895,-12.909 -5.67,-18.497 -0.527,-0.518 -1.053,-1.037 -1.58,-1.555 -7.407,-3.436 -14.813,-6.871 -22.22,-10.307 -2.117,1.029 -4.009,0.319 -5.852,-0.758 -1.511,0.182 -2.904,0.063 -3.741,-1.472 -2.855,2.161 -5.457,1.07 -8.012,-0.623 -3.604,-0.536 -7.67,1.609 -10.774,-1.848 -2.994,2.857 -6.673,1.519 -10.037,1.422 -4.405,-0.127 -8.617,0.299 -12.638,2.121 -1.476,0.669 -2.769,1.643 -2.833,3.416 -0.082,2.259 1.305,3.781 3.316,4.184 1.863,0.373 3.868,0.032 5.813,0.004 1.333,-0.653 2.68,-1.895 3.992,-1.859 8.225,0.228 16.672,-2.061 24.599,1.924 1.162,-1.337 2.27,-0.857 3.362,0.102 3.652,0.483 7.611,-0.558 10.807,2.181 8.93,1.082 16.422,4.889 21.91,12.087 2.194,2.879 3.661,6.182 0.415,9.486 -3.241,6.951 -9.619,10.122 -16.005,13.285 -1.867,1.421 -3.546,3.272 -5.635,4.188 -7.626,3.345 -13.997,8.502 -20.481,13.522 -1.219,2.427 -2.438,4.855 -3.658,7.283 -0.841,7.61 2.152,13.565 7.597,18.718 4.591,4.346 9.581,7.937 15.429,10.344 3.65,1.502 7.371,2.409 11.37,2.043 3.488,-0.32 6.763,-2.38 6.096,-4.11 C 13.923,3.134 11.253,3.654 9.07,3.46 7.098,3.286 5.199,3.114 3.603,1.807 2.067,1.873 0.771,1.46 0,0" style="fill:#4b475f;fill-opacity:1;fill-rule:nonzero;stroke:none" transform="matrix(1.3333333,0,0,-1.3333333,1192.3392,4041.8881)" />
      </g></svg>