<?xml version='1.0' encoding='utf-8'?>
<svg xmlns="http://www.w3.org/2000/svg" version="1.1" width="115.703" height="197.122" viewBox="2628.760 1748.440 115.703 197.122"><defs id="defs1"><clipPath clipPathUnits="userSpaceOnUse" id="clipPath59">
      <path d="M 0,3370.3901 H 2383.9401 V -2.5000001e-5 H 0 Z" id="path59" />
    </clipPath>
  </defs><g id="object"><path id="path12" d="m 0,0 c 27.377,-0.494 42.847,-18.695 38.629,-42.71 -6.673,-37.991 -28.958,-66.365 -57.137,-90.902 -4.868,-4.239 -10.028,-8.419 -16.364,-1.685 -7.525,7.996 -1.776,12.136 4.112,17.09 8.518,7.165 16.118,15.248 21.618,25.153 6.839,12.315 10.755,21.491 -7.717,29.236 -16.458,6.9 -22.565,23.998 -17.965,41.408 C -29.947,-3.956 -13.219,-1.56 0,0" style="fill:#ffffff;fill-opacity:1;fill-rule:nonzero;stroke:none" transform="matrix(1.3333333,0,0,-1.3333333,2686.0392,1754.4353)" />
      </g></svg>