<?xml version='1.0' encoding='utf-8'?>
<svg xmlns="http://www.w3.org/2000/svg" version="1.1" width="315.982" height="1121.810" viewBox="334.723 1652.020 315.982 1121.810"><g id="object"><path id="path12" d="m 0,0 c 0.073,-3.439 0.147,-6.879 0.219,-10.316 -0.194,-10.201 8.681,-7.66 13.402,-8.043 14.618,-1.187 29.366,-0.761 44.064,-0.966 16.133,-0.225 20.711,-5.189 18.359,-21.211 -2.261,-15.411 -1.228,-30.919 -0.571,-46.219 0.465,-10.819 -2.895,-13.353 -12.345,-13.18 -16.778,0.306 -33.566,0.161 -50.349,0.131 -8.991,-0.017 -14.696,-5.011 -15.305,-13.488 -1.35,-18.807 -4.861,-38.285 -1.532,-56.395 4.264,-23.202 2.498,-46.252 3.782,-69.257 2.048,-36.726 -1.054,-73.752 1.28,-110.444 1.786,-28.082 0.571,-56.062 1.734,-84.062 2.766,-66.598 -2.384,-133.227 0.66,-199.843 0.468,-10.24 4.497,-14.635 14.279,-14.72 15.948,-0.139 31.897,-0.551 47.842,-0.413 8.292,0.071 11.625,-3.85 10.855,-11.583 -1.492,-15.002 0.577,-30.081 -2,-45.146 -1.664,-9.724 -6.035,-14.35 -15.495,-14.327 -17.208,0.042 -34.417,0.228 -51.624,0.514 -2.859,0.048 -5.966,1.642 -7.136,-2.6 -4.99,0.06 -9.981,0.12 -14.972,0.18 -2.686,5.287 -5.254,5.102 -7.713,-0.165 -6.691,-0.03 -13.382,-0.06 -20.074,-0.091 -3.382,2.311 -6.758,7.26 -10.156,0.019 -4.933,0.211 -9.866,0.422 -14.8,0.632 -1.293,2.524 -3.753,3.154 -6.191,3.838 -14.487,4.066 -27.837,7.889 -40.473,18.857 -17.655,15.325 -21.883,34.235 -24.103,54.235 -2.346,21.123 -0.782,42.797 -1.774,63.915 -1.482,31.564 1.234,62.996 -0.689,94.544 -2.099,34.443 0.698,69.098 0.595,103.683 -0.091,30.275 -5.102,60.634 -0.813,91.123 0.579,4.114 0.847,13.103 -4.758,17.981 0.179,2.709 0.359,5.419 0.538,8.125 4.998,10.203 1.404,20.144 -0.933,30.123 -0.006,2.412 -0.012,4.823 -0.018,7.234 2.152,1.893 1.992,4.455 1.945,6.946 -0.624,32.939 1.836,65.965 -2.564,98.798 -2.158,16.107 0.145,32.621 -4.528,48.485 -0.001,1.551 -0.002,3.101 -0.003,4.65 4.343,9.063 2.531,18.799 2.163,28.096 -0.512,12.979 3.39,22.716 14.769,29.294 4.469,2.583 8.31,5.781 6.666,11.91 2.893,2.509 5.785,5.017 8.678,7.526 8.838,-0.745 11.6,4.517 11.989,12.126 0,0 0.844,0.795 0.841,0.792 10.57,-3.126 13.631,7.347 18.655,11.99 10.684,9.873 21.87,20.069 27.488,34.307 2.381,2.711 4.761,5.423 7.142,8.134 8.305,-0.163 12.225,4.209 12.626,12.216 0,0 0.271,0.283 0.271,0.282 7.529,-0.663 10.219,6.577 15.529,9.416 6.68,3.571 9.004,16.821 18.246,12.062 C 1.999,105.421 -2.185,94.557 -1.89,86.441 -0.846,57.637 -2.612,28.771 0,0" style="fill:#0c2f31;fill-opacity:1;fill-rule:nonzero;stroke:none" transform="matrix(1.3333333,0,0,-1.3333333,542.54333,1805.6419)" />
      </g></svg>