<?xml version='1.0' encoding='utf-8'?>
<svg xmlns="http://www.w3.org/2000/svg" version="1.1" width="469.142" height="619.983" viewBox="693.078 224.664 469.142 619.983"><g id="object"><path id="path65" d="m 0,0 c -1.059,-21.652 -16.318,-27.805 -31.931,-30.18 -22.739,-0.348 -39.868,13.72 -40.061,30.714 -0.193,16.982 16.894,31.699 36.639,31.558 C -14.806,31.945 0.883,18.056 0,0 m -91.241,-180.841 c -0.933,30.476 24.038,55.301 55.88,55.553 31.315,0.248 54.969,-22.171 55.546,-52.645 0.627,-33.105 -20.68,-54.117 -55.047,-54.285 -32.121,-0.157 -55.453,21.104 -56.379,51.377 m 224.528,3.286 c -1.006,44.409 -22.628,78.451 -54.109,106.799 57.562,80.006 16.171,161.613 -48.427,184.998 -23.078,8.354 -49.162,11.459 -73.893,11.545 -49.986,0.173 -93.052,-17.394 -118.873,-63.201 -25.556,-45.339 -18.663,-89.155 13.8,-133.83 -11.912,-11.023 -22.751,-20.719 -33.219,-30.8 -36.758,-35.399 -37.154,-126.728 -2.894,-162.959 55.672,-58.875 123.029,-75.185 200.307,-59.669 71.873,14.431 118.967,73.832 117.308,147.117" style="fill:#231916;fill-opacity:1;fill-rule:nonzero;stroke:none" transform="matrix(1.3333333,0,0,-1.3333333,978.44773,398.382)" />
      </g></svg>