<?xml version='1.0' encoding='utf-8'?>
<svg xmlns="http://www.w3.org/2000/svg" version="1.1" width="125.478" height="176.650" viewBox="886.163 2202.540 125.478 176.650"><defs id="defs1"><clipPath clipPathUnits="userSpaceOnUse" id="clipPath46">
      <path d="M 0,3370.3901 H 2383.9401 V -2.5000001e-5 H 0 Z" id="path46" />
    </clipPath>
  </defs><g id="object"><path id="path41" d="m 0,0 c 0.03,13.12 -0.327,26.253 0.16,39.354 0.306,8.216 -1.959,19.949 11.102,19.504 10.967,-0.374 9.061,-11.05 9.421,-18.51 0.926,-19.194 1.428,-38.409 2.032,-57.617 0.603,-19.216 9.269,-29.185 29.607,-26.666 5.159,0.639 10.511,0.277 15.721,-0.199 7.769,-0.71 17.523,-0.678 16.799,-11.735 -0.619,-9.448 -9.654,-8.668 -16.446,-8.603 C -14.518,-63.685 1.766,-74.506 0,0" style="fill:#424242;fill-opacity:1;fill-rule:nonzero;stroke:none" transform="matrix(1.3333333,0,0,-1.3333333,892.46733,2287.0328)" />
      </g></svg>