<?xml version='1.0' encoding='utf-8'?>
<svg xmlns="http://www.w3.org/2000/svg" version="1.1" width="1610.480" height="381.949" viewBox="705.622 2474.840 1610.480 381.949"><g id="object"><path id="path12" d="m 0,0 h 80.223 v -78.1 h 196.621 v -94.054 H 81.541 v -84.245 c -23.657,0 -43.603,-1.75 -62.935,0.929 -6.961,0.965 -17.692,12.492 -17.803,19.345 C -0.463,-158.509 0,-80.865 0,0" style="fill:#231916;fill-opacity:1;fill-rule:nonzero;stroke:none" transform="matrix(1.3333333,0,0,-1.3333333,711.732,2480.8367)" />
      <path id="path51" d="m 2.0615094,-1.6181803 c 1.7578125,1.17591479 5.25,2.10739784 8.4374996,2.10739784 7.792969,0 11.566407,-4.41298354 11.566407,-9.51301834 0,-4.8556032 -2.835938,-7.5509582 -8.4375,-9.7112062 -4.5585941,-1.763872 -6.5625004,-3.283313 -6.5625004,-6.375044 0,-2.259341 1.7109375,-4.954697 6.2226564,-4.954697 2.988281,0 5.203125,0.984333 6.28125,1.572291 l 1.171875,-3.481501 c -1.464844,-0.838995 -3.925781,-1.618534 -7.300781,-1.618534 -6.4335941,0 -10.6992191,3.825026 -10.6992191,8.971305 0,4.657415 3.3398437,7.45847 8.7304691,9.36768 4.464843,1.717629 6.234375,3.481501 6.234375,6.5732318 0,3.3361627 -2.554688,5.6417484 -6.914063,5.6417484 -2.9414061,0 -5.7421874,-0.9843331 -7.6523436,-2.1602479 z M 44.966783,-10.397903 48.505845,3.5409568e-4 h 4.558594 L 41.779283,-33.057385 H 36.634752 L 25.408189,3.5409568e-4 h 4.40625 L 33.248033,-10.397903 Z m -10.828125,-3.336163 3.234375,-9.559262 c 0.632812,-2.01491 1.171875,-4.023214 1.664062,-5.985274 h 0.09375 c 0.492188,1.90921 0.984375,3.87127 1.722657,6.031517 l 3.234375,9.513019 z M 60.426744,3.5409568e-4 h 4.3125 V -29.42394 h 10.101562 v -3.633445 h -24.46875 v 3.633445 H 60.426744 Z M 78.473619,-33.057385 v 19.475263 c 0,10.2463134 5.097656,14.12418964 11.871093,14.12418964 7.160157,0 12.503908,-4.16855184 12.503908,-14.32237764 v -19.277075 h -4.312501 v 19.567751 c 0,7.3131324 -3.140625,10.5502012 -8.050782,10.5502012 -4.40625,0 -7.699218,-3.1445811 -7.699218,-10.5502012 v -19.567751 z m 48.899411,14.025096 H 114.51756 V -29.47679 h 13.58204 v -3.580595 H 110.25194 V 3.5409568e-4 h 18.58594 V -3.5802403 H 114.51756 V -15.497938 h 12.85547 z m 29.22657,14.5668095 c -1.72266,0.8389953 -4.3711,1.3741026 -6.96094,1.3741026 -8.05078,0 -12.70313,-5.1991287 -12.70313,-13.2918011 0,-8.680629 5.14453,-13.62872 12.89063,-13.62872 2.7539,0 5.05078,0.587958 6.66797,1.367497 l 1.03125,-3.481501 c -1.125,-0.587957 -3.72657,-1.46659 -7.83985,-1.46659 -10.2539,0 -17.26172,7.009245 -17.26172,17.361259 0,10.8342704 7.00782,16.72045054 16.32422,16.72045054 4.01953,0 7.16016,-0.78614527 8.73047,-1.56568424 z m 18.59179,-29.1270125 c -8.83594,0 -15.35156,6.863907 -15.35156,17.361259 0,10.0018813 6.12891,16.77330064 14.85937,16.77330064 8.4375,0 15.35157,-6.03151784 15.35157,-17.41410864 0,-9.8103 -5.83594,-16.720451 -14.85938,-16.720451 z m -0.19922,3.481501 c 7.11328,0 10.54688,6.863906 10.54688,13.437138 0,7.5047144 -3.83203,13.7344202 -10.59375,13.7344202 -6.72656,0 -10.54688,-6.3287997 -10.54688,-13.3908942 0,-7.260283 3.52735,-13.780664 10.59375,-13.780664 z M 199.60741,3.5409568e-4 V -14.123836 c 0,-5.49641 -0.0937,-9.466774 -0.33985,-13.635326 l 0.14063,-0.04624 c 1.67578,3.580595 3.87891,7.352771 6.1875,11.032459 L 216.08397,3.5409568e-4 h 4.32422 V -33.057385 h -4.03125 v 13.833515 c 0,5.146278 0.10547,9.169492 0.49219,13.5824757 l -0.0937,0.05285 c -1.57032,-3.3890128 -3.48047,-6.8705127 -5.92969,-10.7417827 l -10.59375,-16.727058 h -4.66406 V 3.5409568e-4 Z m 34.53515,0 h 4.3125 V -29.42394 h 10.10157 v -3.633445 h -24.46875 v 3.633445 h 10.05468 z M 269.40721,-11.283143 c 0,6.4741378 -2.26172,8.1917661 -6.08203,8.1917661 -1.42969,0 -2.70703,-0.2906755 -3.58594,-0.6342012 l -0.63281,3.48150047 c 1.07813,0.44261961 2.98828,0.78614527 4.55859,0.78614527 5.6836,0 10.00782,-2.70196144 10.00782,-11.48168464 v -22.117768 h -4.26563 z m 11.37305,-21.774242 V 3.5409568e-4 h 4.26562 V -33.057385 Z M 292.50194,3.5409568e-4 h 18.38672 V -3.5802403 h -14.1211 V -33.057385 h -4.26562 z m 25.11328,0 h 4.3125 V -29.42394 h 10.10156 v -3.633445 h -24.46875 v 3.633445 h 10.05469 z m 36.34277,0 h 4.16016 V -31.88147 h -3.66797 l -6.97265,3.732539 0.83203,3.283312 5.54297,-2.992637 h 0.10546 z M 370.34081,-31.88147 v 3.580594 h 15.58593 v 0.09909 L 372.09862,3.5409568e-4 h 4.46484 L 390.43846,-29.034171 v -2.847299 z m 25.59375,33.8438841 13.73437,-35.5549061 h -3.33984 L 392.65331,1.9624141 Z m 15.65039,-3.5805944 c 1.57031,1.03057701 4.71093,2.16024794 8.28515,2.16024794 7.65235,0 11.625,-4.46583364 11.625,-9.56586844 0,-4.4658332 -3.1875,-7.4056202 -7.11328,-8.1917662 v -0.09909 c 3.92578,-1.420346 5.88281,-4.214795 5.88281,-7.504714 0,-3.87127 -2.83593,-7.597202 -9.11718,-7.597202 -3.4336,0 -6.66797,1.222158 -8.34375,2.450923 l 1.13672,3.137975 c 1.37109,-0.977727 3.82031,-2.107398 6.375,-2.107398 3.97265,0 5.58984,2.252736 5.58984,4.802753 0,3.778783 -3.97266,5.397317 -7.11328,5.397317 h -2.40235 v 3.237069 h 2.40235 c 4.17187,0 8.1914,1.915816 8.23828,6.3750432 0.0469,2.6491114 -1.66406,6.183462 -7.20703,6.183462 -2.98828,0 -5.83594,-1.2287649 -7.06641,-2.0149102 z m 35.9414,-30.7983967 c -6.46875,0 -11.07422,5.88618 -11.07422,16.575113 0.0937,10.5435954 4.3125,16.38353164 10.53516,16.38353164 7.06641,0 11.08594,-5.98527404 11.08594,-16.82615164 0,-10.153825 -3.82031,-16.132493 -10.54688,-16.132493 z m -0.23437,3.336162 c 4.45312,0 6.46875,5.146279 6.46875,12.994519 0,8.138916 -2.10938,13.291801 -6.52735,13.291801 -3.91406,0 -6.46875,-4.7102654 -6.46875,-13.001125 0,-8.680629 2.74219,-13.285195 6.52735,-13.285195 z m 26.67187,28.98167515 c 1.41797,0.19818789 3.67969,0.39637577 6.6211,0.39637577 5.39062,0 9.11718,-0.98433315 11.42578,-3.09173092 1.66406,-1.6185344 2.80078,-3.7787823 2.80078,-6.6194753 0,-4.9084537 -3.67969,-7.5047147 -6.82031,-8.2908597 v -0.09909 c 3.48047,-1.275009 5.58984,-4.069458 5.58984,-7.260283 0,-2.596261 -1.03125,-4.558321 -2.74219,-5.83333 -2.0625,-1.671384 -4.80468,-2.404679 -9.08203,-2.404679 -2.98828,0 -5.92969,0.297281 -7.79297,0.687051 z m 4.26563,-29.62248215 c 0.6914,-0.145338 1.8164,-0.290676 3.77344,-0.290676 4.32421,0 7.26562,1.519441 7.26562,5.390711 0,3.190825 -2.64844,5.542654 -7.16016,5.542654 h -3.8789 z m 0,13.879758 h 3.52734 c 4.66406,0 8.54297,1.862966 8.54297,6.3750436 0,4.8093593 -4.07812,6.4278936 -8.48437,6.4278936 -1.52344,0 -2.75391,-0.05285 -3.58594,-0.1981878 z m 39.43945,-3.190825 H 504.81346 V -29.47679 h 13.58203 v -3.580595 H 500.54784 V 3.5409568e-4 h 18.58594 V -3.5802403 H 504.81346 V -15.497938 h 12.85547 z M 531.74315,3.5409568e-4 h 4.3125 V -29.42394 h 10.10156 v -3.633445 h -24.46875 v 3.633445 h 10.05469 z M 566.95799,-19.032289 H 554.10253 V -29.47679 h 13.58203 v -3.580595 H 549.8369 V 3.5409568e-4 h 18.58594 V -3.5802403 H 554.10253 V -15.497938 h 12.85546 z m 5.34375,17.4141087 c 1.75782,1.17591479 5.25,2.10739784 8.4375,2.10739784 7.79297,0 11.56641,-4.41298354 11.56641,-9.51301834 0,-4.8556032 -2.83594,-7.5509582 -8.4375,-9.7112062 -4.55859,-1.763872 -6.5625,-3.283313 -6.5625,-6.375044 0,-2.259341 1.71094,-4.954697 6.22266,-4.954697 2.98828,0 5.20312,0.984333 6.28125,1.572291 l 1.17187,-3.481501 c -1.46484,-0.838995 -3.92578,-1.618534 -7.30078,-1.618534 -6.43359,0 -10.69922,3.825026 -10.69922,8.971305 0,4.657415 3.33985,7.45847 8.73047,9.36768 4.46484,1.717629 6.23438,3.481501 6.23438,6.5732318 0,3.3361627 -2.55469,5.6417484 -6.91407,5.6417484 -2.9414,0 -5.74218,-0.9843331 -7.65234,-2.1602479 z m 36.24024,1.51944045 c 1.41797,0.19818789 3.67969,0.39637577 6.62109,0.39637577 5.39063,0 9.11719,-0.98433315 11.42578,-3.09173092 1.66407,-1.6185344 2.80078,-3.7787823 2.80078,-6.6194753 0,-4.9084537 -3.67968,-7.5047147 -6.82031,-8.2908597 v -0.09909 c 3.48047,-1.275009 5.58985,-4.069458 5.58985,-7.260283 0,-2.596261 -1.03125,-4.558321 -2.74219,-5.83333 -2.0625,-1.671384 -4.80469,-2.404679 -9.08203,-2.404679 -2.98828,0 -5.92969,0.297281 -7.79297,0.687051 z M 612.8076,-29.721222 c 0.69141,-0.145338 1.81641,-0.290676 3.77344,-0.290676 4.32422,0 7.26563,1.519441 7.26563,5.390711 0,3.190825 -2.64844,5.542654 -7.16016,5.542654 h -3.87891 z m 0,13.879758 h 3.52735 c 4.66406,0 8.54297,1.862966 8.54297,6.3750436 0,4.8093593 -4.07813,6.4278936 -8.48438,6.4278936 -1.52344,0 -2.75391,-0.05285 -3.58594,-0.1981878 z m 39.43946,-3.190825 H 639.39159 V -29.47679 h 13.58203 v -3.580595 H 635.12596 V 3.5409568e-4 H 653.7119 V -3.5802403 H 639.39159 V -15.497938 h 12.85547 z m 7.00781,-14.025096 V 3.5409568e-4 h 4.26562 V -15.497938 h 15.98438 V 3.5409568e-4 h 4.32422 V -33.057385 h -4.32422 v 13.833515 h -15.98438 v -13.833515 z m 31.97754,0 V 3.5409568e-4 h 4.26562 V -33.057385 Z m 28.78418,22.659482 3.53906,10.39825709568 h 4.55859 L 716.82909,-33.057385 h -5.14453 L 700.45799,3.5409568e-4 h 4.40625 L 708.29784,-10.397903 Z m -10.82813,-3.336163 3.23438,-9.559262 c 0.63281,-2.01491 1.17187,-4.023214 1.66406,-5.985274 h 0.0937 c 0.49219,1.90921 0.98438,3.87127 1.72266,6.031517 l 3.23437,9.513019 z M 732.96874,3.5409568e-4 h 18.38671 V -3.5802403 H 737.23436 V -33.057385 h -4.26562 z M 766.51659,-33.057385 V 3.5409568e-4 h 4.26562 V -15.497938 h 15.98438 V 3.5409568e-4 h 4.32422 V -33.057385 h -4.32422 v 13.833515 h -15.98438 v -13.833515 z m 49.04004,22.659482 3.53906,10.39825709568 h 4.55859 L 812.36913,-33.057385 H 807.2246 L 795.99803,3.5409568e-4 h 4.40625 L 803.83788,-10.397903 Z m -10.82813,-3.336163 3.23438,-9.559262 c 0.63281,-2.01491 1.17187,-4.023214 1.66406,-5.985274 h 0.0937 c 0.49219,1.90921 0.98437,3.87127 1.72266,6.031517 l 3.23437,9.513019 z M 828.50878,3.5409568e-4 h 18.38671 V -3.5802403 H 832.7744 V -33.057385 h -4.26562 z m 23.14746,0 h 18.38671 V -3.5802403 H 855.92186 V -33.057385 h -4.26562 z m 41.39941,0 h 4.16016 V -31.88147 h -3.66797 l -6.97266,3.732539 0.83203,3.283312 5.54297,-2.992637 h 0.10547 z M 909.43846,-31.88147 v 3.580594 h 15.58594 v 0.09909 L 911.19628,3.5409568e-4 h 4.46484 L 929.53612,-29.034171 v -2.847299 z m 27.8086,15.108523 c 1.80468,0 2.9414,-1.321253 2.9414,-3.038881 -0.0586,-1.816722 -1.18359,-3.091731 -2.89453,-3.091731 -1.72265,0 -2.9414,1.275009 -2.9414,3.091731 0,1.717628 1.17187,3.038881 2.89453,3.038881 z m 0,17.31501464 c 1.80468,0 2.9414,-1.32785881 2.9414,-3.04548714 -0.0586,-1.810116 -1.18359,-3.0851247 -2.89453,-3.0851247 -1.72265,0 -2.9414,1.2750087 -2.9414,3.0851247 0,1.71762833 1.17187,3.04548714 2.89453,3.04548714 z m 6.76464,-2.16024794 c 1.57032,1.03057701 4.71094,2.16024794 8.28516,2.16024794 7.65234,0 11.625,-4.46583364 11.625,-9.56586844 0,-4.4658332 -3.1875,-7.4056202 -7.11328,-8.1917662 v -0.09909 c 3.92578,-1.420346 5.88281,-4.214795 5.88281,-7.504714 0,-3.87127 -2.83594,-7.597202 -9.11719,-7.597202 -3.43359,0 -6.66796,1.222158 -8.34375,2.450923 l 1.13672,3.137975 c 1.3711,-0.977727 3.82032,-2.107398 6.375,-2.107398 3.97266,0 5.58985,2.252736 5.58985,4.802753 0,3.778783 -3.97266,5.397317 -7.11328,5.397317 h -2.40235 v 3.237069 h 2.40235 c 4.17187,0 8.1914,1.915816 8.23828,6.3750432 0.0469,2.6491114 -1.66407,6.183462 -7.20703,6.183462 -2.98829,0 -5.83594,-1.2287649 -7.06641,-2.0149102 z m 35.94141,-30.7983967 c -6.46875,0 -11.07422,5.88618 -11.07422,16.575113 0.0937,10.5435954 4.3125,16.38353164 10.53516,16.38353164 7.0664,0 11.08594,-5.98527404 11.08594,-16.82615164 0,-10.153825 -3.82032,-16.132493 -10.54688,-16.132493 z m -0.23437,3.336162 c 4.45312,0 6.46875,5.146279 6.46875,12.994519 0,8.138916 -2.10938,13.291801 -6.52735,13.291801 -3.91406,0 -6.46875,-4.7102654 -6.46875,-13.001125 0,-8.680629 2.74219,-13.285195 6.52735,-13.285195 z M 1006.3935,3.5409568e-4 h 4.2657 V -13.238596 c 0.9843,0.244431 2.1562,0.290675 3.4336,0.290675 4.1718,0 7.8515,-1.228765 10.1015,-3.626838 1.6758,-1.717628 2.5547,-4.076064 2.5547,-7.062095 0,-2.946393 -1.0781,-5.351073 -2.8945,-6.916757 -1.9571,-1.763872 -5.0508,-2.748205 -9.2696,-2.748205 -3.4335,0 -6.1289,0.297281 -8.1914,0.640807 z M 1010.6592,-29.575884 c 0.7382,-0.191582 2.1562,-0.343526 4.0195,-0.343526 4.7109,0 7.8047,2.114004 7.8047,6.474138 0,4.564927 -3.1406,7.062094 -8.2969,7.062094 -1.418,0 -2.5898,-0.09249 -3.5273,-0.343525 z M 1060.584,3.5409568e-4 h 4.1718 L 1062.6933,-33.057385 h -5.4375 l -5.8828,15.987156 c -1.4765,4.168552 -2.6484,7.8019965 -3.4922,11.1381592 h -0.1406 c -0.832,-3.4352567 -1.9687,-7.0620952 -3.3398,-11.1381592 l -5.6367,-15.987156 h -5.4493 l -2.2968,33.05773909568 h 4.0664 L 1035.9629,-14.176686 c 0.3047,-4.948091 0.539,-10.490745 0.6445,-14.613053 h 0.094 c 0.9375,3.92412 2.2617,8.191766 3.832,12.849181 l 5.3437,15.74272421 h 3.2344 l 5.836,-16.03339921 c 1.664,-4.564928 3.0351,-8.68063 4.1718,-12.558506 h 0.1407 c -0.047,4.122308 0.246,9.664962 0.4921,14.269528 z m 0,0" style="fill:#231916;fill-opacity:1;fill-rule:nonzero;stroke:none" aria-label="SATUECONT JILT 17/30 BETES BEHIAL HALL 17:30 PM" transform="matrix(1.3333333,0,0,2.3651799,888.38413,2844.1476)" />
      <path id="path52" d="m 0,0 c 1.766,-2.088 5.248,-3.741 8.436,-3.741 7.797,0 11.574,7.83 11.574,16.878 0,8.613 -2.844,13.398 -8.436,17.225 -4.561,3.132 -6.572,5.829 -6.572,11.311 0,4.002 1.717,8.787 6.229,8.787 2.992,0 5.199,-1.74 6.278,-2.784 l 1.177,6.177 c -1.472,1.478 -3.924,2.871 -7.308,2.871 -6.425,0 -10.691,-6.786 -10.691,-15.921 0,-8.265 3.334,-13.224 8.73,-16.617 4.462,-3.045 6.228,-6.177 6.228,-11.659 0,-5.915 -2.55,-10.005 -6.916,-10.005 -2.942,0 -5.737,1.741 -7.65,3.829 z" style="fill:none;stroke:#231916;stroke-width:3;stroke-linecap:butt;stroke-linejoin:miter;stroke-miterlimit:10;stroke-dasharray:none;stroke-opacity:1" transform="matrix(1.3333333,0,0,-1.3333333,891.1308,2840.3195)" />
      <path id="path53" d="m 0,0 3.531,-18.444 h 4.561 l -11.28,58.637 h -5.149 l -11.232,-58.637 h 4.414 L -11.722,0 Z m -10.839,5.915 3.237,16.965 c 0.638,3.567 1.177,7.135 1.667,10.614 h 0.099 c 0.49,-3.392 0.981,-6.873 1.716,-10.701 L -0.883,5.915 Z" style="fill:none;stroke:#231916;stroke-width:3;stroke-linecap:butt;stroke-linejoin:miter;stroke-miterlimit:10;stroke-dasharray:none;stroke-opacity:1" transform="matrix(1.3333333,0,0,-1.3333333,948.34893,2819.5552)" />
      <path id="path54" d="m 0,0 h 4.316 v 52.199 h 10.103 v 6.439 H -10.054 V 52.199 H 0 Z" style="fill:none;stroke:#231916;stroke-width:3;stroke-linecap:butt;stroke-linejoin:miter;stroke-miterlimit:10;stroke-dasharray:none;stroke-opacity:1" transform="matrix(1.3333333,0,0,-1.3333333,968.9472,2844.1476)" />
      <path id="path55" d="m 0,0 v -34.539 c 0,-18.183 5.101,-25.056 11.869,-25.056 7.16,0 12.506,7.395 12.506,25.405 V 0 h -4.316 v -34.713 c 0,-12.963 -3.139,-18.705 -8.043,-18.705 -4.414,0 -7.7,5.568 -7.7,18.705 L 4.316,0 Z" style="fill:none;stroke:#231916;stroke-width:3;stroke-linecap:butt;stroke-linejoin:miter;stroke-miterlimit:10;stroke-dasharray:none;stroke-opacity:1" transform="matrix(1.3333333,0,0,-1.3333333,993.01173,2765.964)" />
      <path id="path56" d="M 0,0 H -12.85 V 18.53 H 0.736 v 6.352 H -17.116 V -33.756 H 1.472 v 6.351 H -12.85 V -6.264 H 0 Z" style="fill:none;stroke:#231916;stroke-width:3;stroke-linecap:butt;stroke-linejoin:miter;stroke-miterlimit:10;stroke-dasharray:none;stroke-opacity:1" transform="matrix(1.3333333,0,0,-1.3333333,1058.2071,2799.1397)" />
      <path id="path57" d="m 0,0 c -1.716,-1.479 -4.365,-2.437 -6.964,-2.437 -8.043,0 -12.703,9.223 -12.703,23.578 0,15.399 5.15,24.185 12.899,24.185 2.747,0 5.052,-1.044 6.67,-2.435 l 1.03,6.176 c -1.128,1.044 -3.727,2.611 -7.847,2.611 -10.251,0 -17.264,-12.442 -17.264,-30.798 0,-19.227 7.013,-29.667 16.332,-29.667 4.022,0 7.16,1.392 8.73,2.784 z" style="fill:none;stroke:#231916;stroke-width:3;stroke-linecap:butt;stroke-linejoin:miter;stroke-miterlimit:10;stroke-dasharray:none;stroke-opacity:1" transform="matrix(1.3333333,0,0,-1.3333333,1097.1804,2833.5916)" />
      <path id="path58" d="m 0,0 c -8.828,0 -15.351,-12.18 -15.351,-30.798 0,-17.748 6.13,-29.754 14.86,-29.754 8.436,0 15.351,10.701 15.351,30.885 C 14.86,-12.268 9.024,0 0,0 Z m -0.196,-6.177 c 7.111,0 10.544,-12.18 10.544,-23.838 0,-13.311 -3.825,-24.36 -10.594,-24.36 -6.718,0 -10.544,11.223 -10.544,23.751 0,12.876 3.531,24.447 10.594,24.447 z" style="fill:none;stroke:#231916;stroke-width:3;stroke-linecap:butt;stroke-linejoin:miter;stroke-miterlimit:10;stroke-dasharray:none;stroke-opacity:1" transform="matrix(1.3333333,0,0,-1.3333333,1121.9641,2764.688)" />
      <path id="path59" d="M 0,0 V 25.056 C 0,34.8 -0.098,41.847 -0.343,49.241 l 0.147,0.087 C 1.471,42.978 3.678,36.278 5.983,29.754 L 16.479,0 h 4.316 V 58.638 H 16.773 V 34.104 c 0,-9.135 0.098,-16.269 0.491,-24.099 L 17.166,9.918 c -1.57,6.003 -3.482,12.18 -5.935,19.053 L 0.638,58.638 H -4.021 L -4.021,0 Z" style="fill:none;stroke:#231916;stroke-width:3;stroke-linecap:butt;stroke-linejoin:miter;stroke-miterlimit:10;stroke-dasharray:none;stroke-opacity:1" transform="matrix(1.3333333,0,0,-1.3333333,1154.5293,2844.1476)" />
      <path id="path60" d="m 0,0 h 4.316 v 52.199 h 10.103 v 6.439 H -10.054 V 52.199 H 0 Z" style="fill:none;stroke:#231916;stroke-width:3;stroke-linecap:butt;stroke-linejoin:miter;stroke-miterlimit:10;stroke-dasharray:none;stroke-opacity:1" transform="matrix(1.3333333,0,0,-1.3333333,1200.5644,2844.1476)" />
      <path id="path61" d="m 0,0 c 0,-11.483 -2.256,-14.529 -6.082,-14.529 -1.422,0 -2.697,0.522 -3.58,1.132 l -0.637,-6.178 c 1.079,-0.782 2.991,-1.392 4.561,-1.392 5.689,0 10.005,4.785 10.005,20.358 V 38.628 H 0 Z" style="fill:none;stroke:#231916;stroke-width:3;stroke-linecap:butt;stroke-linejoin:miter;stroke-miterlimit:10;stroke-dasharray:none;stroke-opacity:1" transform="matrix(1.3333333,0,0,-1.3333333,1247.5813,2817.4679)" />
      <path id="path62" d="M 0,0 V -58.638 H 4.267 V 0 Z" style="fill:none;stroke:#231916;stroke-width:3;stroke-linecap:butt;stroke-linejoin:miter;stroke-miterlimit:10;stroke-dasharray:none;stroke-opacity:1" transform="matrix(1.3333333,0,0,-1.3333333,1262.752,2765.964)" />
      <path id="path63" d="M 0,0 H 18.392 V 6.351 H 4.267 V 58.638 H 0 Z" style="fill:none;stroke:#231916;stroke-width:3;stroke-linecap:butt;stroke-linejoin:miter;stroke-miterlimit:10;stroke-dasharray:none;stroke-opacity:1" transform="matrix(1.3333333,0,0,-1.3333333,1278.3808,2844.1476)" />
      <path id="path64" d="m 0,0 h 4.316 v 52.199 h 10.103 v 6.439 H -10.054 V 52.199 H 0 Z" style="fill:none;stroke:#231916;stroke-width:3;stroke-linecap:butt;stroke-linejoin:miter;stroke-miterlimit:10;stroke-dasharray:none;stroke-opacity:1" transform="matrix(1.3333333,0,0,-1.3333333,1311.8607,2844.1476)" />
      <path id="path65" d="M 0,0 H 4.168 V 56.55 H 0.49 l -6.964,-6.612 0.834,-5.83 5.542,5.308 H 0 Z" style="fill:none;stroke:#231916;stroke-width:3;stroke-linecap:butt;stroke-linejoin:miter;stroke-miterlimit:10;stroke-dasharray:none;stroke-opacity:1" transform="matrix(1.3333333,0,0,-1.3333333,1360.3157,2844.1476)" />
      <path id="path66" d="M 0,0 V -6.352 H 15.596 V -6.525 L 1.766,-56.55 H 6.229 L 20.108,-5.046 V 0 Z" style="fill:none;stroke:#231916;stroke-width:3;stroke-linecap:butt;stroke-linejoin:miter;stroke-miterlimit:10;stroke-dasharray:none;stroke-opacity:1" transform="matrix(1.3333333,0,0,-1.3333333,1382.1556,2768.7479)" />
      <path id="path67" d="M 0,0 13.732,63.074 H 10.397 L -3.286,0 Z" style="fill:none;stroke:#231916;stroke-width:3;stroke-linecap:butt;stroke-linejoin:miter;stroke-miterlimit:10;stroke-dasharray:none;stroke-opacity:1" transform="matrix(1.3333333,0,0,-1.3333333,1416.2897,2848.7869)" />
      <path id="path68" d="m 0,0 c 1.569,-1.827 4.708,-3.828 8.288,-3.828 7.651,0 11.624,7.917 11.624,16.965 0,7.917 -3.188,13.136 -7.112,14.529 v 0.174 c 3.924,2.522 5.886,7.481 5.886,13.31 0,6.873 -2.845,13.486 -9.123,13.486 -3.433,0 -6.669,-2.175 -8.337,-4.351 l 1.128,-5.567 c 1.373,1.739 3.825,3.741 6.375,3.741 3.973,0 5.592,-4.003 5.592,-8.526 0,-6.7 -3.973,-9.571 -7.112,-9.571 H 4.806 v -5.741 h 2.403 c 4.169,0 8.191,-3.393 8.24,-11.31 C 15.498,8.613 13.781,2.349 8.239,2.349 5.248,2.349 2.403,4.523 1.177,5.916 Z" style="fill:none;stroke:#231916;stroke-width:3;stroke-linecap:butt;stroke-linejoin:miter;stroke-miterlimit:10;stroke-dasharray:none;stroke-opacity:1" transform="matrix(1.3333333,0,0,-1.3333333,1437.1497,2840.3195)" />
      <path id="path69" d="m 0,0 c -6.474,0 -11.084,-10.44 -11.084,-29.406 0.098,-18.705 4.316,-29.058 10.544,-29.058 7.063,0 11.084,10.614 11.084,29.841 C 10.544,-10.614 6.719,0 0,0 Z m -0.245,-5.916 c 4.463,0 6.474,-9.135 6.474,-23.055 0,-14.442 -2.109,-23.577 -6.523,-23.577 -3.924,0 -6.474,8.352 -6.474,23.055 0,15.399 2.747,23.577 6.523,23.577 z" style="fill:none;stroke:#231916;stroke-width:3;stroke-linecap:butt;stroke-linejoin:miter;stroke-miterlimit:10;stroke-dasharray:none;stroke-opacity:1" transform="matrix(1.3333333,0,0,-1.3333333,1485.0807,2767.4719)" />
      <path id="path70" d="m 0,0 c 1.422,-0.348 3.678,-0.696 6.621,-0.696 5.395,0 9.122,1.74 11.427,5.481 1.668,2.871 2.796,6.699 2.796,11.745 0,8.699 -3.678,13.311 -6.818,14.703 v 0.174 c 3.483,2.262 5.592,7.221 5.592,12.876 0,4.611 -1.03,8.091 -2.747,10.353 -2.06,2.958 -4.806,4.262 -9.073,4.262 -2.992,0 -5.934,-0.521 -7.798,-1.217 z m 4.267,52.548 c 0.686,0.261 1.815,0.521 3.776,0.521 4.316,0 7.259,-2.696 7.259,-9.569 0,-5.655 -2.649,-9.831 -7.161,-9.831 H 4.267 Z m 0,-24.621 h 3.531 c 4.659,0 8.534,-3.306 8.534,-11.31 0,-8.526 -4.071,-11.397 -8.485,-11.397 -1.52,0 -2.746,0.087 -3.58,0.348 z" style="fill:none;stroke:#231916;stroke-width:3;stroke-linecap:butt;stroke-linejoin:miter;stroke-miterlimit:10;stroke-dasharray:none;stroke-opacity:1" transform="matrix(1.3333333,0,0,-1.3333333,1520.3261,2843.9159)" />
      <path id="path71" d="M 0,0 H -12.85 V 18.53 H 0.736 v 6.352 H -17.116 V -33.756 H 1.472 v 6.351 H -12.85 V -6.264 H 0 Z" style="fill:none;stroke:#231916;stroke-width:3;stroke-linecap:butt;stroke-linejoin:miter;stroke-miterlimit:10;stroke-dasharray:none;stroke-opacity:1" transform="matrix(1.3333333,0,0,-1.3333333,1578.5899,2799.1397)" />
      <path id="path72" d="m 0,0 h 4.316 v 52.199 h 10.103 v 6.439 H -10.054 V 52.199 H 0 Z" style="fill:none;stroke:#231916;stroke-width:3;stroke-linecap:butt;stroke-linejoin:miter;stroke-miterlimit:10;stroke-dasharray:none;stroke-opacity:1" transform="matrix(1.3333333,0,0,-1.3333333,1597.3561,2844.1476)" />
      <path id="path73" d="M 0,0 H -12.85 V 18.53 H 0.736 v 6.352 H -17.116 V -33.756 H 1.472 v 6.351 H -12.85 V -6.264 H 0 Z" style="fill:none;stroke:#231916;stroke-width:3;stroke-linecap:butt;stroke-linejoin:miter;stroke-miterlimit:10;stroke-dasharray:none;stroke-opacity:1" transform="matrix(1.3333333,0,0,-1.3333333,1644.308,2799.1397)" />
      <path id="path74" d="m 0,0 c 1.766,-2.088 5.248,-3.741 8.436,-3.741 7.797,0 11.574,7.83 11.574,16.878 0,8.613 -2.844,13.398 -8.436,17.225 -4.561,3.132 -6.572,5.829 -6.572,11.311 0,4.002 1.717,8.787 6.229,8.787 2.992,0 5.199,-1.74 6.278,-2.784 l 1.177,6.177 c -1.472,1.478 -3.924,2.871 -7.308,2.871 -6.425,0 -10.691,-6.786 -10.691,-15.921 0,-8.265 3.334,-13.224 8.73,-16.617 4.462,-3.045 6.228,-6.177 6.228,-11.659 0,-5.915 -2.55,-10.005 -6.916,-10.005 -2.942,0 -5.737,1.741 -7.65,3.829 z" style="fill:none;stroke:#231916;stroke-width:3;stroke-linecap:butt;stroke-linejoin:miter;stroke-miterlimit:10;stroke-dasharray:none;stroke-opacity:1" transform="matrix(1.3333333,0,0,-1.3333333,1651.4356,2840.3195)" />
      <path id="path75" d="m 0,0 c 1.422,-0.348 3.678,-0.696 6.621,-0.696 5.395,0 9.122,1.74 11.427,5.481 1.668,2.871 2.796,6.699 2.796,11.745 0,8.699 -3.678,13.311 -6.818,14.703 v 0.174 c 3.483,2.262 5.592,7.221 5.592,12.876 0,4.611 -1.03,8.091 -2.747,10.353 -2.06,2.958 -4.806,4.262 -9.073,4.262 -2.992,0 -5.934,-0.521 -7.798,-1.217 z m 4.267,52.548 c 0.686,0.261 1.815,0.521 3.776,0.521 4.316,0 7.259,-2.696 7.259,-9.569 0,-5.655 -2.649,-9.831 -7.161,-9.831 H 4.267 Z m 0,-24.621 h 3.531 c 4.659,0 8.534,-3.306 8.534,-11.31 0,-8.526 -4.071,-11.397 -8.485,-11.397 -1.52,0 -2.746,0.087 -3.58,0.348 z" style="fill:none;stroke:#231916;stroke-width:3;stroke-linecap:butt;stroke-linejoin:miter;stroke-miterlimit:10;stroke-dasharray:none;stroke-opacity:1" transform="matrix(1.3333333,0,0,-1.3333333,1699.7597,2843.9159)" />
      <path id="path76" d="M 0,0 H -12.85 V 18.53 H 0.736 v 6.352 H -17.116 V -33.756 H 1.472 v 6.351 H -12.85 V -6.264 H 0 Z" style="fill:none;stroke:#231916;stroke-width:3;stroke-linecap:butt;stroke-linejoin:miter;stroke-miterlimit:10;stroke-dasharray:none;stroke-opacity:1" transform="matrix(1.3333333,0,0,-1.3333333,1758.0235,2799.1397)" />
      <path id="path77" d="m 0,0 v -58.638 h 4.267 v 27.492 h 15.988 v -27.492 h 4.316 V 0 H 20.255 V -24.534 H 4.267 L 4.267,0 Z" style="fill:none;stroke:#231916;stroke-width:3;stroke-linecap:butt;stroke-linejoin:miter;stroke-miterlimit:10;stroke-dasharray:none;stroke-opacity:1" transform="matrix(1.3333333,0,0,-1.3333333,1767.3744,2765.964)" />
      <path id="path78" d="M 0,0 V -58.638 H 4.267 V 0 Z" style="fill:none;stroke:#231916;stroke-width:3;stroke-linecap:butt;stroke-linejoin:miter;stroke-miterlimit:10;stroke-dasharray:none;stroke-opacity:1" transform="matrix(1.3333333,0,0,-1.3333333,1810.0097,2765.964)" />
      <path id="path79" d="m 0,0 3.531,-18.444 h 4.561 l -11.28,58.637 h -5.149 l -11.232,-58.637 h 4.414 L -11.722,0 Z m -10.839,5.915 3.237,16.965 c 0.638,3.567 1.177,7.135 1.667,10.614 h 0.099 c 0.49,-3.392 0.981,-6.873 1.716,-10.701 L -0.883,5.915 Z" style="fill:none;stroke:#231916;stroke-width:3;stroke-linecap:butt;stroke-linejoin:miter;stroke-miterlimit:10;stroke-dasharray:none;stroke-opacity:1" transform="matrix(1.3333333,0,0,-1.3333333,1848.3952,2819.5552)" />
      <path id="path80" d="M 0,0 H 18.392 V 6.351 H 4.267 V 58.638 H 0 Z" style="fill:none;stroke:#231916;stroke-width:3;stroke-linecap:butt;stroke-linejoin:miter;stroke-miterlimit:10;stroke-dasharray:none;stroke-opacity:1" transform="matrix(1.3333333,0,0,-1.3333333,1865.6588,2844.1476)" />
      <path id="path81" d="m 0,0 v -58.638 h 4.267 v 27.492 h 15.988 v -27.492 h 4.316 V 0 H 20.255 V -24.534 H 4.267 L 4.267,0 Z" style="fill:none;stroke:#231916;stroke-width:3;stroke-linecap:butt;stroke-linejoin:miter;stroke-miterlimit:10;stroke-dasharray:none;stroke-opacity:1" transform="matrix(1.3333333,0,0,-1.3333333,1910.3855,2765.964)" />
      <path id="path82" d="m 0,0 3.531,-18.444 h 4.561 l -11.28,58.637 h -5.149 l -11.232,-58.637 h 4.414 L -11.722,0 Z m -10.839,5.915 3.237,16.965 c 0.638,3.567 1.177,7.135 1.667,10.614 h 0.099 c 0.49,-3.392 0.981,-6.873 1.716,-10.701 L -0.883,5.915 Z" style="fill:none;stroke:#231916;stroke-width:3;stroke-linecap:butt;stroke-linejoin:miter;stroke-miterlimit:10;stroke-dasharray:none;stroke-opacity:1" transform="matrix(1.3333333,0,0,-1.3333333,1975.778,2819.5552)" />
      <path id="path83" d="M 0,0 H 18.392 V 6.351 H 4.267 V 58.638 H 0 Z" style="fill:none;stroke:#231916;stroke-width:3;stroke-linecap:butt;stroke-linejoin:miter;stroke-miterlimit:10;stroke-dasharray:none;stroke-opacity:1" transform="matrix(1.3333333,0,0,-1.3333333,1993.0417,2844.1476)" />
      <path id="path84" d="M 0,0 H 18.392 V 6.351 H 4.267 V 58.638 H 0 Z" style="fill:none;stroke:#231916;stroke-width:3;stroke-linecap:butt;stroke-linejoin:miter;stroke-miterlimit:10;stroke-dasharray:none;stroke-opacity:1" transform="matrix(1.3333333,0,0,-1.3333333,2023.9056,2844.1476)" />
      <path id="path85" d="M 0,0 H 4.168 V 56.55 H 0.49 l -6.964,-6.612 0.834,-5.83 5.542,5.308 H 0 Z" style="fill:none;stroke:#231916;stroke-width:3;stroke-linecap:butt;stroke-linejoin:miter;stroke-miterlimit:10;stroke-dasharray:none;stroke-opacity:1" transform="matrix(1.3333333,0,0,-1.3333333,2079.0957,2844.1476)" />
      <path id="path86" d="M 0,0 V -6.352 H 15.596 V -6.525 L 1.766,-56.55 H 6.229 L 20.108,-5.046 V 0 Z" style="fill:none;stroke:#231916;stroke-width:3;stroke-linecap:butt;stroke-linejoin:miter;stroke-miterlimit:10;stroke-dasharray:none;stroke-opacity:1" transform="matrix(1.3333333,0,0,-1.3333333,2100.9356,2768.7479)" />
      <path id="path87" d="M 0,0 C 1.815,0 2.943,2.349 2.943,5.394 2.894,8.612 1.766,10.875 0.049,10.875 -1.667,10.875 -2.894,8.612 -2.894,5.394 -2.894,2.349 -1.716,0 0,0 Z m 0,-30.711 c 1.815,0 2.943,2.349 2.943,5.394 -0.049,3.219 -1.177,5.481 -2.894,5.481 -1.716,0 -2.943,-2.262 -2.943,-5.481 0,-3.045 1.178,-5.394 2.894,-5.394 z" style="fill:none;stroke:#231916;stroke-width:3;stroke-linecap:butt;stroke-linejoin:miter;stroke-miterlimit:10;stroke-dasharray:none;stroke-opacity:1" transform="matrix(1.3333333,0,0,-1.3333333,2138.0124,2804.4757)" />
      <path id="path88" d="m 0,0 c 1.569,-1.827 4.708,-3.828 8.288,-3.828 7.651,0 11.624,7.917 11.624,16.965 0,7.917 -3.188,13.136 -7.112,14.529 v 0.174 c 3.924,2.522 5.886,7.481 5.886,13.31 0,6.873 -2.845,13.486 -9.123,13.486 -3.433,0 -6.669,-2.175 -8.337,-4.351 l 1.128,-5.567 c 1.373,1.739 3.825,3.741 6.375,3.741 3.973,0 5.592,-4.003 5.592,-8.526 0,-6.7 -3.973,-9.571 -7.112,-9.571 H 4.806 v -5.741 h 2.403 c 4.169,0 8.191,-3.393 8.24,-11.31 C 15.498,8.613 13.781,2.349 8.239,2.349 5.248,2.349 2.403,4.523 1.177,5.916 Z" style="fill:none;stroke:#231916;stroke-width:3;stroke-linecap:butt;stroke-linejoin:miter;stroke-miterlimit:10;stroke-dasharray:none;stroke-opacity:1" transform="matrix(1.3333333,0,0,-1.3333333,2147.0359,2840.3195)" />
      <path id="path89" d="m 0,0 c -6.474,0 -11.084,-10.44 -11.084,-29.406 0.098,-18.705 4.316,-29.058 10.544,-29.058 7.063,0 11.084,10.614 11.084,29.841 C 10.544,-10.614 6.719,0 0,0 Z m -0.245,-5.916 c 4.463,0 6.474,-9.135 6.474,-23.055 0,-14.442 -2.109,-23.577 -6.523,-23.577 -3.924,0 -6.474,8.352 -6.474,23.055 0,15.399 2.747,23.577 6.523,23.577 z" style="fill:none;stroke:#231916;stroke-width:3;stroke-linecap:butt;stroke-linejoin:miter;stroke-miterlimit:10;stroke-dasharray:none;stroke-opacity:1" transform="matrix(1.3333333,0,0,-1.3333333,2194.9675,2767.4719)" />
      <path id="path90" d="m 0,0 h 4.267 v 23.49 c 0.981,-0.435 2.158,-0.522 3.433,-0.522 4.169,0 7.847,2.175 10.103,6.438 1.668,3.045 2.551,7.221 2.551,12.528 0,5.219 -1.08,9.483 -2.895,12.266 -1.961,3.133 -5.051,4.872 -9.269,4.872 -3.433,0 -6.13,-0.521 -8.19,-1.131 z m 4.267,52.461 c 0.735,0.348 2.158,0.608 4.022,0.608 4.708,0 7.797,-3.741 7.797,-11.483 0,-8.091 -3.138,-12.528 -8.288,-12.528 -1.423,0 -2.599,0.173 -3.531,0.609 z" style="fill:none;stroke:#231916;stroke-width:3;stroke-linecap:butt;stroke-linejoin:miter;stroke-miterlimit:10;stroke-dasharray:none;stroke-opacity:1" transform="matrix(1.3333333,0,0,-1.3333333,2230.2123,2844.1476)" />
      <path id="path91" d="M 0,0 H 4.169 L 2.109,58.638 H -3.335 L -9.22,30.275 c -1.472,-7.394 -2.649,-13.833 -3.483,-19.748 h -0.147 c -0.834,6.09 -1.962,12.528 -3.335,19.748 l -5.64,28.363 h -5.444 L -29.574,0 h 4.071 l 0.882,25.143 c 0.295,8.787 0.54,18.618 0.638,25.925 h 0.098 c 0.932,-6.96 2.256,-14.528 3.826,-22.794 l 5.346,-27.926 h 3.236 l 5.837,28.449 c 1.667,8.091 3.04,15.398 4.169,22.271 h 0.147 c -0.05,-7.307 0.245,-17.138 0.49,-25.316 z" style="fill:none;stroke:#231916;stroke-width:3;stroke-linecap:butt;stroke-linejoin:miter;stroke-miterlimit:10;stroke-dasharray:none;stroke-opacity:1" transform="matrix(1.3333333,0,0,-1.3333333,2302.4713,2844.1476)" />
      </g></svg>