<?xml version='1.0' encoding='utf-8'?>
<svg xmlns="http://www.w3.org/2000/svg" version="1.1" width="128.730" height="186.419" viewBox="2190.060 471.802 128.730 186.419"><g id="object"><path id="path28" d="m 0,0 c 12.963,8.142 27.239,13.446 41.338,19.131 7.804,3.147 16.208,3.005 24.355,4.125 3.702,0.508 7.409,-5.955 6.824,-10.743 C 71.272,2.309 64.008,-4.352 53.452,-4.912 c -1.413,-0.075 -2.85,0.212 -4.253,0.086 -2.631,-0.236 -5.459,-0.68 -6.547,-3.422 -1.084,-2.733 1.328,-4.394 3.022,-5.881 15.194,-13.332 20.226,-32.209 26.52,-50.095 4.51,-12.814 -2.443,-24.902 -16.028,-28.672 -13.649,-3.789 -26.959,-8.506 -40.265,-13.166 -15.109,-5.292 -29.075,4.13 -29.86,21.771 -0.074,1.658 -0.066,4.107 1.379,4.525 8.485,2.458 11.906,12.904 21.648,13.42 2.138,0.114 4.145,0.519 6.194,-0.299 2.767,-1.103 5.458,-1.855 7.504,1.338 1.828,2.852 1.269,6.362 -0.666,7.898 -6.245,4.955 -9.671,11.887 -14.262,18.018 C -0.84,-27.804 -6.739,-15.754 -0.8,-0.955 -0.244,-0.879 0.023,-0.561 0,0" style="fill:#d2d5d9;fill-opacity:1;fill-rule:nonzero;stroke:none" transform="matrix(1.3333333,0,0,-1.3333333,2214.7031,508.8472)" />
      </g></svg>