<?xml version='1.0' encoding='utf-8'?>
<svg xmlns="http://www.w3.org/2000/svg" version="1.1" width="192.732" height="244.335" viewBox="1305.270 2670.090 192.732 244.335"><g id="object"><path id="path36" d="m 0,0 c 19.282,-6.644 34.043,-12.112 49.06,-16.746 7.577,-2.338 16.147,-5.577 23.303,-4.008 7.314,1.604 13.446,8.595 20.095,13.227 C 86.331,-3.408 80.697,2.161 73.95,4.458 65.62,7.295 56.335,7.238 47.514,8.734 12.486,14.678 -3.911,40.341 5.129,74.888 11.97,101.034 42.917,116.69 78.998,112.256 108.702,108.606 126.23,90.318 127.434,60.243 111.26,58.301 95.663,52.366 81.736,69.44 77.914,74.125 64.724,73.144 56.491,71.489 51.823,70.55 45.475,62.999 45.424,58.365 45.375,53.902 51.72,46.698 56.545,45.364 69.786,41.704 83.865,41.207 97.323,38.175 129.517,30.922 144.392,-0.317 130.12,-29.537 118.539,-53.248 86.805,-65.484 51.335,-59.917 20.774,-55.12 5.718,-40.009 0,0" style="fill:#231916;fill-opacity:1;fill-rule:nonzero;stroke:none" transform="matrix(1.3333333,0,0,-1.3333333,1311.2709,2826.7621)" />
      </g></svg>