<?xml version='1.0' encoding='utf-8'?>
<svg xmlns="http://www.w3.org/2000/svg" version="1.1" width="325.667" height="432.623" viewBox="363.509 725.207 325.667 432.623"><g id="object"><path id="path144" d="M 0,0 C 0.271,0.117 0.755,0.207 0.775,0.357 0.863,1.024 1.047,1.832 0.766,2.358 0.365,3.109 -0.392,2.879 -0.519,1.896 -0.597,1.296 -0.192,0.633 0,0 m 32.138,73.116 c 0.824,0.058 1.648,0.115 2.47,0.173 1.005,-1.663 2.57,-2.242 4.415,-2.277 0.455,-0.241 0.708,-0.618 0.757,-1.135 0.354,-4.23 3.126,-6.508 6.611,-8.214 0,0 -0.023,0.04 -0.023,0.04 -0.019,-3.106 1.647,-4.589 4.628,-4.806 2.279,-2.225 4.667,-4.617 5.036,-7.811 C 56.898,41.58 61.06,35.172 62.559,27.869 63.972,20.987 67.388,15.771 75.174,14.101 84.346,12.133 93.337,9.328 102.644,6.822 96.895,4.286 91.211,2.973 85.097,4.98 84.006,5.339 82.765,5.274 81.59,5.334 74.379,5.7 72.844,3.54 73.437,-3.628 c 1.122,-13.565 7.32,-25.576 11.318,-38.231 1.408,-4.456 2.791,-8.924 4.008,-13.446 3.749,-13.94 7.765,-27.813 11.174,-41.835 1.361,-5.597 2.939,-11.515 -0.28,-17.254 -0.814,-1.45 -1.461,-2.772 -3.305,-2.666 -1.786,0.102 -2.886,1.391 -3.394,2.872 -0.76,2.212 -1.481,4.526 -1.647,6.838 -0.794,11.069 -3.875,21.668 -6.754,32.264 -2.779,10.225 -6.382,20.227 -9.633,30.323 -4.689,14.559 -9.742,29.014 -13.936,43.714 -2.204,7.723 -6.781,12.123 -14.12,14.174 -5.664,1.582 -11.381,2.976 -17.073,4.452 -3.108,3.902 -7.008,4.479 -11.479,2.759 -4.739,-1.821 -8.076,-4.668 -7.69,-10.304 0,0 -0.079,-0.22 -0.079,-0.22 C 9.077,9.31 7.122,9.027 6.846,7.32 5.794,0.815 5.009,-5.734 4.125,-12.267 c 0.148,-0.577 0.072,-1.122 -0.228,-1.638 -1.774,-1.091 -2.59,-2.675 -2.45,-4.752 0,0 -0.042,-0.101 -0.042,-0.101 -2.157,-1.577 -2.14,-3.965 -2.511,-6.291 -0.318,-1.99 1.043,-4.725 -2.069,-5.812 -3.241,2.285 -3.709,5.869 -4.955,9.102 -1.39,3.604 -1.44,7.574 0.878,10.061 4.312,4.627 4.214,9.929 3.967,15.348 -0.268,5.88 1.909,10.017 7.668,11.36 2.907,0.678 3.995,1.989 3.988,4.66 -0.017,6.258 -0.071,12.516 -0.11,18.774 -0.107,0.707 0.101,1.305 0.623,1.794 1.913,-0.334 3.198,-1.202 4.291,-3.043 2.201,-3.707 4.001,-7.786 7.625,-10.484 9.074,-0.509 17.66,-3.265 26.328,-5.666 3.011,-0.834 4.688,0.664 3.993,3.594 -2.543,10.716 -6.598,20.922 -10.719,31.099 -0.285,0.704 -0.919,1.264 -1.371,1.905 -2.175,3.086 -4.377,3.209 -6.281,0.079 -3.459,-5.687 -6.723,-11.492 -10.069,-17.248 -1.907,0.131 -4.246,-0.615 -5.434,1.32 -0.952,1.55 0.558,2.775 1.643,3.912 1.354,1.419 2.553,2.983 3.87,4.439 0.88,0.972 1.337,2.357 0.603,3.178 -2.994,3.349 -1.017,5.764 1.316,8.048 2.189,2.142 1.627,7.207 4.577,7.215 4.671,0.013 2.163,2.956 2.882,4.53" style="fill:#3675ba;fill-opacity:1;fill-rule:nonzero;stroke:none" transform="matrix(1.3333333,0,0,-1.3333333,546.31667,929.70333)" />
      <path id="path146" d="m 0,0 c 0.098,-0.481 -0.026,-0.896 -0.373,-1.246 -5.458,-1.473 -5.626,-1.649 -6.022,-6.307 0.565,-0.766 0.6,-1.482 -0.209,-2.119 -0.433,-1.083 -0.737,-2.236 -1.317,-3.228 -0.958,-1.641 -2.526,-2.255 -3.303,-0.166 -0.803,2.16 -0.366,4.701 -4.162,3.148 -3.188,-1.304 -6.696,-1.848 -10.086,-2.63 -3.295,-0.759 -6.123,0.01 -8.496,3.209 3.056,1.887 7.32,-0.224 9.702,2.989 3.784,2.341 5.076,5.577 4.218,10.023 -0.962,4.989 -1.124,10.146 -2.267,15.084 -0.747,3.229 -0.963,6.023 0.622,9.023 0.69,1.304 0.997,3.06 0.825,4.534 -1.922,16.429 0.042,32.896 -0.512,49.351 -0.385,11.403 -1.571,22.607 -3.464,33.804 -1.318,7.799 -1.428,15.25 2.489,22.79 2.835,5.456 3.815,11.87 4.352,18.213 0.462,5.449 1.783,10.82 2.598,16.245 0.455,3.025 1.538,5.163 5.024,5.361 3.435,0.195 4.964,-1.713 5.734,-4.668 0.099,-0.38 0.192,-0.762 0.284,-1.147 -0.564,-2.185 -0.718,-4.272 1.347,-5.846 0.808,-0.262 1.616,-0.524 2.424,-0.784 0.2,-2.993 0.4,-5.987 0.6,-8.982 l -0.141,0.011 c -5.897,-0.146 -5.898,-0.146 -5.064,-6.02 0.051,-0.359 0.141,-0.713 0.212,-1.069 -0.08,-1.443 -0.161,-2.886 -0.242,-4.33 -3.039,-3.036 -2.912,-6.21 -0.41,-9.486 -0.106,-1.507 -0.211,-3.014 -0.316,-4.522 -4.596,-3.359 -4.777,-4.701 -1.332,-9.848 0.313,-1.137 0.914,-2.279 0.897,-3.411 -0.274,-18.433 -0.773,-36.864 -0.916,-55.297 -0.129,-16.431 0.086,-32.865 0.276,-49.296 0.011,-0.919 1.006,-2.04 1.839,-2.682 1.062,-0.817 2.292,-0.176 3.171,0.597 3.534,3.107 6.584,7.067 10.609,9.235 4.705,2.535 4.483,8.184 8.465,10.814 0.327,0.217 0.63,0.471 0.944,0.708 4.839,1.475 9.677,2.951 14.516,4.426 0.24,-0.793 0.147,-1.545 -0.279,-2.256 -0.638,-0.849 -1.276,-1.697 -1.914,-2.545 -0.437,-0.754 -0.874,-1.509 -1.306,-2.262 -0.65,-0.44 -1.064,-1.044 -1.238,-1.813 0,0 -0.32,-0.407 -0.319,-0.407 -7.342,-1.761 -11.402,-6.235 -11.531,-13.957 0,0 -0.191,-0.225 -0.19,-0.224 -5.477,-0.664 -5.477,-0.664 -6.39,-5.175 0,0 -0.024,-0.044 -0.025,-0.042 C 4.131,7.692 1.242,4.831 0,0" style="fill:#3675ba;fill-opacity:1;fill-rule:nonzero;stroke:none" transform="matrix(1.3333333,0,0,-1.3333333,422.78533,968.66227)" />
      <path id="path151" d="m 0,0 c -4.839,-1.476 -9.677,-2.951 -14.515,-4.427 -0.191,2.401 -0.126,4.963 1.623,6.653 6.208,5.999 9.494,14.151 15.313,20.393 2.234,2.396 3.149,5.301 4.164,8.268 3.408,9.962 6.161,20.246 10.606,29.732 5.343,11.401 6.475,23.24 6.473,35.372 -0.003,11.387 -7.01,19.533 -13.927,27.552 -0.97,1.125 -2.53,1.816 -3.923,2.489 -10.749,5.194 -21.235,4.248 -31.374,-1.657 -2.334,-1.359 -4.113,-3.649 -6.948,-4.206 -0.2,2.995 -0.4,5.99 -0.6,8.983 15.298,7.139 30.985,10.425 47.673,5.226 7.066,-2.202 12.057,-6.518 16.262,-12.618 C 42.815,104.369 42.216,85.311 37.053,66.562 32.502,50.04 25.124,34.309 16.176,19.512 13.145,14.498 10.113,9.447 6.589,4.786 5.022,2.714 2.234,1.567 0,0" style="fill:#548dc7;fill-opacity:1;fill-rule:nonzero;stroke:none" transform="matrix(1.3333333,0,0,-1.3333333,466.13987,920.02027)" />
      <path id="path156" d="m 0,0 c -2.382,-3.213 -6.646,-1.102 -9.701,-2.989 2.372,-3.198 5.2,-3.968 8.495,-3.209 3.39,0.782 6.899,1.326 10.086,2.63 3.796,1.553 3.36,-0.988 4.163,-3.148 0.776,-2.089 2.344,-1.475 3.302,0.166 0.58,0.992 0.885,2.145 1.317,3.228 0.43,-1.082 1.33,-2.227 1.202,-3.241 -0.895,-7.085 -0.047,-14.153 0.637,-21.125 1.498,-15.283 0.86,-30.678 2.455,-45.895 1.464,-13.968 1.234,-28.316 6.942,-41.649 0.883,-2.063 1.197,-4.667 0.865,-6.885 -0.497,-3.328 -0.235,-7.658 -4.471,-8.815 -3.396,-0.927 -10.126,5.256 -10.261,9.276 -0.176,5.227 -1.382,9.806 -4.283,14.363 -4.244,6.669 -3.482,14.475 -2.254,21.837 0.695,4.168 0.24,7.364 -1.882,11.012 -4.138,7.114 -4.092,15.209 -2.865,22.97 1.104,6.983 -0.104,14.04 1.666,20.994 0.845,3.32 -0.68,6.912 -1.526,10.375 -1.283,5.246 -2.469,9.921 -9.369,9.574 -2.935,-0.147 -4.97,2.162 -7.307,3.554 -2.247,1.339 -3.334,3.373 -2.742,5.969 1.12,4.922 1.576,10.198 6.397,13.486 0.342,-0.547 0.996,-1.112 0.914,-1.534 C -9.96,2.006 -9.976,2.009 0,0" style="fill:#548dc7;fill-opacity:1;fill-rule:nonzero;stroke:none" transform="matrix(1.3333333,0,0,-1.3333333,390.43013,977.12907)" />
      <path id="path161" d="m 0,0 c 0.039,-6.258 0.093,-12.516 0.11,-18.774 0.008,-2.671 -1.08,-3.982 -3.988,-4.66 -5.759,-1.343 -7.936,-5.48 -7.668,-11.36 0.248,-5.419 0.345,-10.721 -3.966,-15.348 -2.318,-2.487 -2.269,-6.457 -0.879,-10.061 1.246,-3.233 1.715,-6.817 4.955,-9.102 3.113,1.087 1.751,3.822 2.069,5.812 0.372,2.326 0.355,4.714 2.512,6.291 -0.722,-13.338 -2.167,-26.498 -6.12,-39.407 -2.74,-8.947 -4.079,-18.323 -6.066,-27.502 -0.663,-3.066 -1.613,-6.085 -2.051,-9.18 -0.923,-6.527 -5.192,-9.216 -11.075,-10.447 -5.411,-1.133 -7.499,0.225 -7.253,5.786 0.217,4.912 -1.288,10.239 3.101,14.442 1.367,1.31 1.035,3.604 0.933,5.628 -0.297,5.852 0.599,11.065 3.832,16.586 2.92,4.987 2.696,11.838 3.743,17.888 0.399,2.31 0.074,4.803 0.768,6.995 3.668,11.581 6.886,23.272 9.847,35.056 0.949,3.773 2.724,7.186 1.614,11.245 -0.278,1.018 -0.036,2.614 0.623,3.382 4.011,4.679 4.723,10.488 6.372,16.099 C -7.307,-6.274 -4.829,-1.945 0,0" style="fill:#548dc7;fill-opacity:1;fill-rule:nonzero;stroke:none" transform="matrix(1.3333333,0,0,-1.3333333,557.3308,878.44453)" />
      <path id="path204" d="m 0,0 c -0.719,-1.574 1.789,-4.517 -2.882,-4.53 -2.95,-0.008 -2.388,-5.073 -4.577,-7.215 -2.334,-2.284 -4.31,-4.699 -1.316,-8.048 0.734,-0.821 0.277,-2.206 -0.603,-3.178 -1.317,-1.456 -2.516,-3.02 -3.87,-4.439 -1.085,-1.137 -2.595,-2.362 -1.643,-3.912 1.188,-1.935 3.527,-1.189 5.433,-1.321 -1.387,-4.484 -3.748,-8.834 -1.88,-13.762 -3.625,2.698 -5.424,6.777 -7.625,10.484 -1.093,1.841 -2.378,2.709 -4.292,3.043 -0.817,12.209 6.28,21.587 11.693,31.421 C -8.998,3.199 -4.181,1.895 0,0" style="fill:#548dc7;fill-opacity:1;fill-rule:nonzero;stroke:none" transform="matrix(1.3333333,0,0,-1.3333333,589.1676,832.21533)" />
      <path id="path241" d="m 0,0 c -0.386,5.636 2.952,8.482 7.69,10.304 4.471,1.719 8.371,1.142 11.48,-2.76 C 18.011,7.476 16.81,7.17 15.703,7.373 8.678,8.659 3.619,5.896 0,0" style="fill:#548dc7;fill-opacity:1;fill-rule:nonzero;stroke:none" transform="matrix(1.3333333,0,0,-1.3333333,560.484,916.32693)" />
      <path id="path243" d="m 0,0 c 0.884,6.533 1.669,13.082 2.721,19.587 0.276,1.707 2.232,1.99 3.701,2.492 C 4.715,14.594 5.017,6.523 0,0" style="fill:#548dc7;fill-opacity:1;fill-rule:nonzero;stroke:none" transform="matrix(1.3333333,0,0,-1.3333333,551.81653,946.05933)" />
      <path id="path245" d="M 0,0 C 0.129,7.722 4.189,12.195 11.531,13.957 9.608,7.717 3.673,4.792 0,0" style="fill:#548dc7;fill-opacity:1;fill-rule:nonzero;stroke:none" transform="matrix(1.3333333,0,0,-1.3333333,444.02387,951.00733)" />
      <path id="path259" d="M 0,0 C 1.242,4.831 4.131,7.692 9.324,7.8 8.15,2.886 4,1.532 0,0" style="fill:#548dc7;fill-opacity:1;fill-rule:nonzero;stroke:none" transform="matrix(1.3333333,0,0,-1.3333333,422.78533,968.66227)" />
      <path id="path267" d="M 0,0 C -3.484,1.706 -6.257,3.984 -6.611,8.214 -2.546,6.975 0.611,5.003 0,0" style="fill:#548dc7;fill-opacity:1;fill-rule:nonzero;stroke:none" transform="matrix(1.3333333,0,0,-1.3333333,608.17067,847.48547)" />
      <path id="path268" d="M 0,0 C -1.845,0.035 -3.41,0.614 -4.415,2.277 -4.28,2.61 -4.216,2.999 -4,3.266 -3.375,4.038 -2.782,5.247 -2.006,5.396 -0.622,5.661 -0.567,4.192 -0.383,3.2 -0.188,2.146 -0.122,1.068 0,0" style="fill:#548dc7;fill-opacity:1;fill-rule:nonzero;stroke:none" transform="matrix(1.3333333,0,0,-1.3333333,598.34747,835.02067)" />
      <path id="path269" d="M 0,0 C 0.396,4.658 0.564,4.833 6.022,6.307 5.669,2.625 2.282,1.841 0,0" style="fill:#548dc7;fill-opacity:1;fill-rule:nonzero;stroke:none" transform="matrix(1.3333333,0,0,-1.3333333,414.25827,978.73253)" />
      <path id="path271" d="M 0,0 C 0.912,4.511 0.912,4.511 6.39,5.175 5.326,2.133 2.83,0.86 0,0" style="fill:#548dc7;fill-opacity:1;fill-rule:nonzero;stroke:none" transform="matrix(1.3333333,0,0,-1.3333333,435.2512,958.2068)" />
      <path id="path579" d="M 0,0 C 0.672,-3.433 1.005,-6.82 -1.329,-9.848 -4.777,-4.701 -4.596,-3.36 0,0" style="fill:#548dc7;fill-opacity:1;fill-rule:nonzero;stroke:none" transform="matrix(1.3333333,0,0,-1.3333333,414.8476,793.68173)" />
      <path id="path580" d="M 0,0 C -0.61,-3.052 -2.879,-4.968 -4.852,-7.087 -4.923,-6.733 -5.013,-6.379 -5.064,-6.02 -5.899,-0.146 -5.897,-0.146 0,0" style="fill:#548dc7;fill-opacity:1;fill-rule:nonzero;stroke:none" transform="matrix(1.3333333,0,0,-1.3333333,422.60813,759.77973)" />
      </g></svg>