<?xml version='1.0' encoding='utf-8'?>
<svg xmlns="http://www.w3.org/2000/svg" version="1.1" width="166.118" height="166.610" viewBox="1793.270 2527.160 166.118 166.610"><defs id="defs1"><clipPath clipPathUnits="userSpaceOnUse" id="clipPath46">
      <path d="M 0,3370.3901 H 2383.9401 V -2.5000001e-5 H 0 Z" id="path46" />
    </clipPath>
  </defs><g id="object"><path id="path32" d="M 0,0 C 6.599,0.357 13.219,1.866 11.208,10.262 9.471,17.514 7.453,27.341 -2.08,27.143 -10.255,26.974 -11.621,17.946 -12.893,11.295 -14.863,0.996 -7.414,0.246 0,0 m 57.958,-31.97 c 0.941,-3.963 -0.552,-7.094 -4.139,-8.464 -6.336,-2.42 -11.552,-0.149 -16.785,4.03 -26.869,21.459 -46.702,21.546 -75.212,0.312 -4.515,-3.362 -8.802,-6.308 -14.141,-3.575 -7.685,3.935 -4.955,10.65 -2.357,15.926 15.042,30.545 30.368,60.953 45.897,91.253 4.206,8.206 10.149,10.182 15.193,0.701 16.831,-31.639 33.34,-63.449 49.921,-95.221 0.795,-1.524 1.101,-3.302 1.623,-4.962" style="fill:#424242;fill-opacity:1;fill-rule:nonzero;stroke:none" transform="matrix(1.3333333,0,0,-1.3333333,1875.7468,2632.5347)" />
      </g></svg>