<?xml version='1.0' encoding='utf-8'?>
<svg xmlns="http://www.w3.org/2000/svg" version="1.1" width="30.020" height="101.606" viewBox="2083.420 4181.590 30.020 101.606"><g id="object"><path id="path200" d="m 0,0 c 0,13.927 0.081,27.855 -0.053,41.781 -0.037,3.745 0.34,6.554 5.003,6.75 4.128,0.172 6.241,-1.055 7.231,-5.578 1.848,-8.435 -0.365,-16.776 0.422,-25.241 0.9,-9.669 -0.351,-19.56 0.658,-29.361 0.338,-3.278 0.382,-7.173 -4.612,-7.004 -3.853,0.131 -8.458,-0.56 -8.14,5.924 C 0.717,-8.506 0.115,-4.242 -0.124,0.003 -0.083,0.002 -0.042,0.001 0,0" style="fill:#494f57;fill-opacity:1;fill-rule:nonzero;stroke:none" transform="matrix(1.3333333,0,0,-1.3333333,2089.5863,4252.3156)" />
      </g></svg>