<?xml version='1.0' encoding='utf-8'?>
<svg xmlns="http://www.w3.org/2000/svg" version="1.1" width="155.919" height="179.501" viewBox="1574.610 2514.290 155.919 179.501"><defs id="defs1"><clipPath clipPathUnits="userSpaceOnUse" id="clipPath46">
      <path d="M 0,3370.3901 H 2383.9401 V -2.5000001e-5 H 0 Z" id="path46" />
    </clipPath>
  </defs><g id="object"><path id="path12" d="M 0,0 C 15.071,0.961 33.798,-2.537 34.969,20.561 36.07,42.266 19.549,42.215 4.233,42.189 -10.695,42.163 -26.203,43.852 -27.07,21.361 -27.863,0.792 -15.664,-1.177 0,0 M 2.748,63.073 C 15.672,63.383 36.2,65.4 49.919,45.248 60.953,29.039 64.762,11.759 50.046,-2.589 35.364,-16.905 36.363,-28.697 47.718,-43.394 c 3.71,-4.801 10.342,-12.396 0.623,-17.568 -7.145,-3.802 -13.812,0.772 -18.134,6.73 -5.124,7.06 -9.008,15.009 -13.976,22.195 -6.81,9.853 -16.883,11.919 -27.958,9.906 -11.779,-2.141 -10.916,-11.883 -11.725,-20.529 -0.809,-8.635 -0.073,-19.4 -12.557,-19.119 -12.272,0.277 -11.867,10.956 -12.011,19.629 -0.335,20.141 -0.19,40.289 -0.21,60.435 -0.046,44.846 -0.038,44.846 50.978,44.788" style="fill:#424242;fill-opacity:1;fill-rule:nonzero;stroke:none" transform="matrix(1.3333333,0,0,-1.3333333,1644.9361,2604.6571)" />
      </g></svg>