<?xml version='1.0' encoding='utf-8'?>
<svg xmlns="http://www.w3.org/2000/svg" version="1.1" width="71.889" height="101.996" viewBox="247.406 4069.730 71.889 101.996"><g id="object"><path id="path86" d="m 0,0 c -4.907,-5.813 -5.766,-12.328 -5.303,-19.069 0.138,-2.012 1.573,-3.518 3.925,-2.999 2.129,0.468 4.075,1.175 3.653,4.146 C 1.428,-11.961 0.748,-5.976 0,0 m -1.748,22.991 c 5.583,1.007 7.572,-1.501 8.739,-6.67 3.924,-17.382 8.626,-34.589 12.487,-51.984 0.472,-2.126 5.047,-6.848 -1.186,-7.733 -4.062,-0.577 -9.771,-2.757 -11.273,4.641 -1.125,5.537 -4.742,7.486 -10.479,6.566 -3.816,-0.611 -5.873,-1.691 -6.297,-5.943 -0.645,-6.457 -5.781,-5.928 -10.286,-5.381 -5.559,0.674 -2.593,5.027 -2.146,7.202 3.602,17.51 7.724,34.912 11.483,52.391 1.121,5.213 3.283,8.387 8.958,6.911" style="fill:#494f57;fill-opacity:1;fill-rule:nonzero;stroke:none" transform="matrix(1.3333333,0,0,-1.3333333,284.57707,4106.8724)" />
      </g></svg>