<?xml version='1.0' encoding='utf-8'?>
<svg xmlns="http://www.w3.org/2000/svg" version="1.1" width="95.445" height="133.763" viewBox="1444.620 4139.640 95.445 133.763"><g id="object"><path id="path350" d="m 0,0 c 0.019,-0.001 0.037,-0.001 0.056,-0.001 0,-5.854 -0.159,-11.713 0.061,-17.558 0.127,-3.394 1.905,-4.604 5.458,-4.315 2.333,0.19 4.725,0.26 6.966,0.853 8.333,2.205 16.553,4.758 22.816,11.188 6.966,7.151 6.847,15.043 -0.786,21.231 C 28.168,16.589 21.063,20.674 12.679,22.003 10.361,22.37 8.135,22.848 5.741,22.399 1.724,21.645 0.186,20.385 0.047,16.396 -0.142,10.937 0,5.466 0,0 m -6.658,-3.651 c -0.236,5.105 -0.581,10.209 -0.665,15.316 -0.046,2.836 -0.785,5.258 -2.129,7.79 -2.148,4.046 -1.431,5.151 2.889,6.782 6.018,2.273 12.099,3.249 18.493,1.686 10.101,-2.47 19.416,-6.601 26.959,-13.816 14.27,-13.652 9.055,-26.797 -4.646,-34.596 -6.136,-3.493 -13.015,-5.49 -19.963,-6.992 -2.306,-0.498 -4.629,-0.956 -6.892,-1.611 -5.9,-1.709 -7.179,-3.12 -7.101,-9.085 0.098,-7.493 -0.314,-14.922 -1.783,-22.26 -0.172,-0.856 -1.461,-1.861 -2.412,-2.107 -1.751,-0.454 -2.97,0.837 -3.7,2.259 -0.934,1.819 -0.763,3.792 -0.249,5.747 1.308,4.973 1.739,10.051 1.671,15.177 -0.046,3.502 -1.491,5.518 -5.126,6.81 -4.776,1.697 -5.161,4.381 -1.166,5.947 4.999,1.961 6.376,5.091 6.055,9.983 -0.282,4.304 -0.059,8.642 -0.059,12.966 -0.059,10e-4 -0.118,0.003 -0.176,0.004" style="fill:#cd4152;fill-opacity:1;fill-rule:nonzero;stroke:none" transform="matrix(1.3333333,0,0,-1.3333333,1470.8952,4183.8876)" />
      </g></svg>