<?xml version='1.0' encoding='utf-8'?>
<svg xmlns="http://www.w3.org/2000/svg" version="1.1" width="164.289" height="207.592" viewBox="641.292 516.870 164.289 207.592"><g id="object"><path id="path30" d="M 0,0 C 5.029,-1.291 8.655,0.531 10.205,6.683 12.038,13.955 2.201,31.271 -5.123,32.804 -5.948,32.977 -6.969,32.634 -7.801,32.291 -14.922,29.357 -20.209,21.189 -18.974,15.119 -17.297,6.877 -8.757,-0.225 0,0 M 50.991,20.819 C 50.524,0.288 43.515,-14.582 31.79,-26.789 23.852,-35.054 16.371,-44.258 5.565,-49.341 c -1.962,-0.922 -2.299,-2.861 -3.243,-4.46 -1.718,-2.908 -4.16,-3.947 -7.101,-1.831 -4.903,3.528 -10.014,2.991 -14.87,0.464 -2.905,-1.512 -5.25,-0.63 -7.3,0.713 -12.215,8.002 -23.127,16.866 -26.357,32.528 -1.554,7.535 -5.339,14.603 -8.044,21.909 -2.886,7.797 -2.33,14.857 2.659,22.09 6.956,10.084 15.287,17.851 25.587,24.845 11.482,7.797 24.795,15.619 27.331,31.823 0.376,2.399 2.471,3.366 4.538,4.043 7.187,2.355 14.304,5.005 21.623,6.848 5.271,1.327 9.022,-1.69 9.606,-6.87 1.139,-10.118 4.894,-19.744 5.22,-29.991 0.222,-7.006 5.442,-11.604 9.405,-16.266 4.876,-5.738 7.074,-11.531 6.372,-15.685" style="fill:#d2d5d9;fill-opacity:1;fill-rule:nonzero;stroke:none" transform="matrix(1.3333333,0,0,-1.3333333,731.42267,642.7944)" />
      </g></svg>