<?xml version='1.0' encoding='utf-8'?>
<svg xmlns="http://www.w3.org/2000/svg" version="1.1" width="2539.370" height="388.769" viewBox="318.353 2156.030 2539.370 388.769"><defs id="defs1"><clipPath clipPathUnits="userSpaceOnUse" id="clipPath6">
      <path d="M 0,3370.3901 H 2383.9401 V -2.5000001e-5 H 0 Z" id="path6" />
    </clipPath>
  </defs><g id="object"><path id="path3" d="m 0,0 c 23.659,0 47.318,-0.015 70.977,0.003 50.879,0.04 50.859,0.048 52.983,50.248 0.145,3.435 0.631,6.913 1.443,10.254 13.712,56.433 39.42,106.939 74.829,152.82 6.121,7.931 20.403,15.135 15.581,24.927 -5.696,11.568 -22.126,2.353 -32.939,7.226 -1.321,0.595 -3.4,-0.442 -5.116,-0.782 C 102.014,229.698 34.207,199.67 -24.4,147.504 -66.654,109.895 -87.684,59.366 -116.717,13.615 -125.559,-0.319 -114.378,-0.059 -105.149,-0.066 -70.099,-0.091 -35.05,-0.076 0,0 m 971.655,-6.001 c -12.612,-8.591 -24.241,-5.04 -34.985,-5.045 -601.056,-0.252 -1202.112,-0.225 -1803.168,-0.312 -15.698,-0.002 -31.451,-0.38 -47.06,-1.838 -4.455,-0.416 -8.467,-3.164 -9.946,2.842 -1.643,6.667 2.327,9.58 8.626,9.744 8.769,0.229 17.54,0.499 26.31,0.501 242.18,0.047 484.361,0.319 726.539,-0.402 19.473,-0.058 29.818,5.187 37.448,23.388 36.619,87.358 99.607,149.573 182.265,195.297 35.421,19.593 73.653,24.414 110.573,36.041 10.673,3.362 21.644,4.329 32.291,9.586 14.474,7.148 33.436,7.085 41.642,-8.378 7.587,-14.298 -3.407,-25.262 -16.115,-36.437 -55.142,-48.489 -82.643,-111.468 -88.486,-184.217 -0.329,-4.09 2.281,-8.744 1.138,-12.386 -6.556,-20.883 4.215,-22.691 21.32,-22.638 148.289,0.46 296.58,0.25 444.871,0.207 112.315,-0.034 224.629,-0.013 336.943,-0.371 9.047,-0.029 19.026,3.334 29.794,-5.582" style="fill:#f2f4f5;fill-opacity:1;fill-rule:nonzero;stroke:none" transform="matrix(1.3333333,0,0,-1.3333333,1556.1868,2519.886)" />
      </g></svg>