<?xml version='1.0' encoding='utf-8'?>
<svg xmlns="http://www.w3.org/2000/svg" version="1.1" width="193.203" height="104.275" viewBox="538.112 3954.990 193.203 104.275"><g id="object"><path id="path55" d="m 0,0 c 0.436,4.848 0.132,9.952 -2.022,14.865 -1.543,3.52 -3.783,5.876 -7.749,6.363 -4.189,0.515 -5.899,-2.299 -7.351,-5.39 -5.541,-11.787 -3.457,-23.536 0.825,-35.01 0.812,-2.176 3.059,-5.435 6.324,-4.939 3.568,0.542 6.736,2.582 7.893,6.336 C -0.34,-12.128 1.277,-6.412 0,0 m -33.7,0.148 c -0.396,10.834 0.43,21.613 10.398,28.289 C -5.999,40.025 6.897,28.949 11.643,14.464 15.031,4.122 15.257,-6.533 12.28,-17.298 9.339,-27.934 0.603,-36.162 -8.7,-35.931 c -12.699,0.316 -21.055,7.075 -23.379,19.189 -1.064,5.55 -1.941,11.157 -1.621,16.89" style="fill:#494f57;fill-opacity:1;fill-rule:nonzero;stroke:none" transform="matrix(1.3333333,0,0,-1.3333333,643.62307,4005.3503)" />
      <path id="path56" d="m 0,0 c 0,7.08 0.308,14.178 -0.093,21.236 -0.349,6.119 3.536,6.34 7.729,6.482 4.598,0.156 5.807,-2.048 5.747,-6.655 -0.175,-13.432 0.333,-26.873 0.519,-40.311 0.065,-4.738 1.504,-8.691 6.768,-9.162 5.579,-0.499 5.212,4.22 5.928,7.841 1.84,9.297 0.392,18.646 0.154,27.937 -0.145,5.653 1.022,11.199 0.346,16.921 -0.446,3.778 3.62,2.718 5.992,2.88 3.034,0.207 5.822,0.666 6.841,-3.919 1.58,-7.108 -0.032,-14.131 0.528,-21.209 0.704,-8.9 0.189,-17.924 -0.212,-26.876 C 39.845,-33.814 35.462,-39.146 26.492,-39.909 10.378,-41.279 1.437,-38.94 0.478,-19.134 0.17,-12.77 0.43,-6.38 0.43,-0.002 0.287,-0.001 0.143,-0.001 0,0" style="fill:#494f57;fill-opacity:1;fill-rule:nonzero;stroke:none" transform="matrix(1.3333333,0,0,-1.3333333,670.9056,3999.578)" />
      <path id="path131" d="m 0,0 c 5.297,1.095 8.569,-0.991 8.104,-7.408 -0.128,-1.767 -0.779,-2.9 -2.807,-3.468 -18.434,-5.158 -22.777,-12.98 -17.272,-30.774 2.597,-8.397 7.254,-12.643 15.419,-13.038 3.791,-0.183 5.424,-1.566 4.778,-5.073 -0.606,-3.291 0.8,-7.98 -5.513,-7.766 -9.898,0.334 -18.126,4.141 -23.347,12.296 -9.34,14.588 -11.294,37.849 6.367,50.713 C -10.076,-1.462 -5.859,0.553 0,0" style="fill:#494f57;fill-opacity:1;fill-rule:nonzero;stroke:none" transform="matrix(1.3333333,0,0,-1.3333333,580.97613,3962.7453)" />
      </g></svg>