<?xml version='1.0' encoding='utf-8'?>
<svg xmlns="http://www.w3.org/2000/svg" version="1.1" width="428.229" height="501.345" viewBox="1398.140 3603.610 428.229 501.345"><g id="object"><path id="path7" d="M 0,0 C 22.694,0 43.693,-0.833 64.596,0.221 88.218,1.412 103.221,19.286 103.843,44.705 104.449,69.472 89.549,88.893 66.238,90.47 44.637,91.932 22.86,90.783 0,90.783 Z m -93.577,174.568 c 60.077,0 117.94,2.738 175.414,-0.819 51.01,-3.158 89.45,-30.854 106.443,-80.423 17.253,-50.328 10.207,-97.926 -26.413,-138.888 -4.842,-5.416 -10.352,-10.236 -17.289,-17.034 24.58,-40.636 49.299,-81.499 74.017,-122.363 -2.067,-2.09 -4.134,-4.18 -6.201,-6.27 -31.44,0 -62.914,-0.77 -94.288,0.669 -6.05,0.278 -13.328,8.177 -17.24,14.338 -12.638,19.907 -23.995,40.628 -35.802,61.061 -20.213,34.983 -20.199,34.991 -65.999,28.25 v -102.9 h -92.642 z" style="fill:#231916;fill-opacity:1;fill-rule:nonzero;stroke:none" transform="matrix(1.3333333,0,0,-1.3333333,1528.9139,3843.7135)" />
      </g></svg>