<?xml version='1.0' encoding='utf-8'?>
<svg xmlns="http://www.w3.org/2000/svg" version="1.1" width="68.461" height="101.949" viewBox="905.448 4182.670 68.461 101.949"><g id="object"><path id="path42" d="m 0,0 c 0,-2.601 -0.05,-5.202 0.011,-7.801 0.105,-4.51 -0.604,-7.774 -6.535,-7.537 -5.906,0.236 -6.829,3.152 -6.807,8.248 0.068,15.197 -0.335,30.396 -0.508,45.595 -0.024,2.119 -0.165,4.352 0.417,6.335 0.768,2.617 -0.408,6.596 4.331,6.945 4.513,0.331 8.461,-0.032 10.49,-4.967 2.857,-6.95 5.903,-13.823 8.789,-20.763 0.787,-1.893 0.918,-4.985 3.659,-4.186 2.883,0.84 0.739,3.541 0.654,5.425 -0.294,6.484 1.531,12.774 0.164,19.52 -1.196,5.906 4.779,4.73 8.586,5.097 4.445,0.429 4.9,-1.971 4.883,-5.658 -0.084,-18.355 0.097,-36.71 0.122,-55.066 0.004,-2.577 1.459,-6.205 -3.2,-6.332 -3.765,-0.102 -8.066,-1.873 -10.206,3.556 C 11.921,-4.158 8.516,3.084 5.433,10.457 4.683,12.249 4.222,14.384 1.802,13.925 -0.936,13.406 0.224,10.872 0.108,9.21 -0.106,6.153 0.047,3.071 0.047,0 Z" style="fill:#494f57;fill-opacity:1;fill-rule:nonzero;stroke:none" transform="matrix(1.3333333,0,0,-1.3333333,929.94267,4257.954)" />
      </g></svg>