<?xml version='1.0' encoding='utf-8'?>
<svg xmlns="http://www.w3.org/2000/svg" version="1.1" width="57.201" height="101.623" viewBox="1381.290 3955.990 57.201 101.623"><g id="object"><path id="path145" d="m 0,0 c 3.544,0.167 7.092,0.518 10.632,0.448 3.284,-0.064 5.977,-0.988 6.152,-5.218 0.159,-3.833 -0.765,-6.844 -4.945,-7.054 -5.318,-0.268 -6.114,-3.713 -6.061,-7.721 0.176,-13.388 0.4,-26.778 0.872,-40.158 0.149,-4.214 -0.553,-7.002 -5.485,-7.055 -4.585,-0.05 -6.967,0.738 -7.342,6.621 -0.901,14.09 0.794,28.19 -0.811,42.257 -0.445,3.896 -1.705,6.425 -5.594,6.825 -4.281,0.44 -4.649,3.05 -4.489,6.472 0.179,3.834 2.534,4.709 5.715,4.721 3.784,0.014 7.569,0.003 11.353,0.003 C -0.002,0.094 -0.001,0.047 0,0" style="fill:#494f57;fill-opacity:1;fill-rule:nonzero;stroke:none" transform="matrix(1.3333333,0,0,-1.3333333,1410.0872,3962.5953)" />
      </g></svg>