<?xml version='1.0' encoding='utf-8'?>
<svg xmlns="http://www.w3.org/2000/svg" version="1.1" width="265.172" height="254.023" viewBox="586.571 4153.540 265.172 254.023"><g id="object"><path id="path31" d="M 0,0 C -8.999,14.791 -15.795,25.961 -23.875,39.242 -29.9,25.406 -34.944,13.823 -40.963,0 Z m 75.199,-62.311 c -24.176,1.111 -47.268,-11.168 -57.993,17.537 -25.174,-0.396 -60.774,9.272 -73.115,-3.512 -19.238,-19.93 -35.622,-11.481 -58.771,-15.179 7.27,16.597 12.796,29.649 18.67,42.544 18.546,40.714 37.016,81.466 55.938,122.006 9.067,19.426 26.81,22.671 36.241,4.158 C 23.696,51.207 48.162,-4.389 75.199,-62.311" style="fill:#231916;fill-opacity:1;fill-rule:nonzero;stroke:none" transform="matrix(1.3333333,0,0,-1.3333333,745.4776,4316.2427)" />
      </g></svg>