<?xml version='1.0' encoding='utf-8'?>
<svg xmlns="http://www.w3.org/2000/svg" version="1.1" width="89.893" height="146.109" viewBox="248.217 2891.150 89.893 146.109"><g id="object"><path id="path180" d="m 0,0 c 0.441,5.043 1.342,10.133 4.243,14.592 6.098,9.374 12.199,18.749 18.474,28.005 3.004,4.432 7.806,6.861 12.453,8.953 5.468,2.46 11.352,4.013 17.093,5.841 2.121,0.676 4.444,0.791 5.401,-1.784 0.908,-2.443 1.361,-5.227 -0.79,-7.237 C 55.353,46.95 53.39,45.797 51.421,45.101 42.061,41.793 35.296,35.412 29.929,27.35 26.828,22.691 24.089,17.784 20.865,13.216 15.385,5.453 15.58,-2.816 18.012,-11.431 c 2.269,-8.037 8.741,-12.836 17.217,-12.684 6.12,0.109 11.761,2.468 17.634,3.743 3.241,0.704 5.214,-0.764 5.155,-3.84 -0.247,-12.905 -4.236,-18.107 -17.941,-18.542 -10.468,-0.332 -21.3,2.744 -29.904,10.309 -3.02,2.655 -4.944,5.567 -6.295,9.42 C 1.263,-15.56 1.187,-7.793 0,0" style="fill:#494643;fill-opacity:1;fill-rule:nonzero;stroke:none" transform="matrix(1.3333333,0,0,-1.3333333,254.21707,2974.222)" />
      </g></svg>