<?xml version='1.0' encoding='utf-8'?>
<svg xmlns="http://www.w3.org/2000/svg" version="1.1" width="220.692" height="306.385" viewBox="537.569 3560.060 220.692 306.385"><defs id="defs1"><clipPath clipPathUnits="userSpaceOnUse" id="clipPath37">
      <path d="M 0,3370.3901 H 2383.9401 V -2.5000001e-5 H 0 Z" id="path37" />
    </clipPath>
  </defs><g id="object"><path id="path13" d="m 0,0 c 0,10.958 -0.015,21.916 0.003,32.874 0.094,57.908 38.655,86.814 95.15,70.844 5.571,-1.575 10.778,-3.294 16.695,-4.03 34.806,-4.332 52.145,-32.653 41.599,-66.026 -2.242,-7.095 -6.643,-9.153 -13.027,-9.177 -12.641,-0.045 -25.282,0.094 -37.923,0.09 C 88.4,24.572 89.881,35.195 89,44.23 88.311,51.297 86.829,58.254 77.91,58.198 68.83,58.142 67.245,50.745 67.188,43.92 c -0.269,-32.026 -0.273,-64.058 0.119,-96.081 0.067,-5.441 0.07,-14.28 7.185,-13.983 7.043,0.293 13.647,5.126 14.842,14.498 1.327,10.417 -5.506,26.349 5.839,30.055 14.548,4.752 31.571,2.027 47.532,2.243 2.326,0.032 5.133,-0.922 6.932,-2.386 9.074,-7.382 4.412,-65.823 -5.934,-72.349 -35.464,-22.374 -73.15,-23.455 -111.43,-9.324 C 12.097,-95.959 2.321,-79.055 1.221,-58.119 0.206,-38.796 1.005,-19.378 1.005,-0.001 0.67,-0.001 0.335,0 0,0" style="fill:#d7bb98;fill-opacity:1;fill-rule:nonzero;stroke:none" transform="matrix(1.3333333,0,0,-1.3333333,543.5768,3710.1587)" />
      </g></svg>