<?xml version='1.0' encoding='utf-8'?>
<svg xmlns="http://www.w3.org/2000/svg" version="1.1" width="48.199" height="101.558" viewBox="2377.650 4181.350 48.199 101.558"><g id="object"><path id="path114" d="m 0,0 c 0,8.983 0.092,17.968 -0.04,26.95 -0.063,4.27 1.111,6.692 6.016,6.392 5.182,-0.319 10.399,-0.069 15.6,-0.092 3.886,-0.018 5.517,-1.797 4.975,-5.821 -0.48,-3.56 -1.414,-5.914 -5.764,-4.954 -3.757,0.83 -7.124,-0.558 -7.316,-4.533 -0.201,-4.167 -1.276,-9.369 4.607,-11.369 1.986,-0.675 4.359,-0.961 5.818,-2.256 2.088,-1.852 1.741,-4.716 1.175,-7.338 -0.695,-3.219 -3.519,-3.08 -5.666,-3.058 -5.75,0.057 -6.516,-3.304 -6.243,-7.881 0.268,-4.494 1.222,-8.001 6.969,-7.345 6.134,0.701 6.758,-3.416 6.965,-8.096 0.259,-5.861 -4.063,-3.963 -6.932,-4.201 -3.527,-0.292 -7.09,-0.163 -10.637,-0.193 -8.978,-0.077 -9.362,0.374 -9.291,9.681 0.062,8.038 0.013,16.076 0.013,24.115 C 0.166,0.001 0.083,0 0,0" style="fill:#494f57;fill-opacity:1;fill-rule:nonzero;stroke:none" transform="matrix(1.3333333,0,0,-1.3333333,2383.7031,4231.8353)" />
      </g></svg>