<?xml version='1.0' encoding='utf-8'?>
<svg xmlns="http://www.w3.org/2000/svg" version="1.1" width="416.009" height="317.005" viewBox="700.708 712.277 416.009 317.005"><g id="object"><path id="path137" d="m 0,0 c -3.075,4.889 -3.129,10.401 -3.18,15.883 -0.03,3.145 0.43,6.304 0.27,9.437 -0.513,10.057 4.377,18.18 9.61,25.975 1.936,2.882 3.541,5.929 5.385,8.697 5.791,8.695 8.357,18.412 11.274,28.127 1.871,6.23 5.826,11.021 11.093,14.853 3.168,2.306 6.059,4.991 9.066,7.516 0.901,0.757 1.91,1.439 2.636,2.343 3.63,4.522 10.805,-2.097 13.536,4.084 2.414,5.466 7.156,6.758 12.001,8.41 2.589,0.882 5.075,2.138 7.482,3.454 2.234,1.222 4.213,1.152 6.688,0.443 7.88,-2.254 8.265,-3.617 2.585,-9.797 -6.7,-7.289 -14.697,-13 -22.455,-19.015 C 59.469,95.353 52.752,90.513 48.24,83.337 47.43,82.048 46.204,80.893 44.926,80.047 36.318,74.35 31.901,65.649 27.905,56.627 26.926,54.415 26.634,52.332 27.661,49.866 28.907,46.875 27.891,43.769 25.632,43.737 17.523,43.624 15.068,37.556 13.229,31.766 8.651,17.352 12.077,3.912 19.889,-8.595 c 1.009,-1.615 2.726,-2.795 4.149,-4.141 9.352,-8.842 20.238,-14.056 33.056,-16.509 10.33,-1.976 20.272,-6.118 30.273,-9.625 4.423,-1.551 9.438,-1.228 13.363,-4.271 -1.571,-4.882 -4.85,-6.75 -9.822,-5.46 -1.871,0.485 -3.701,1.137 -5.537,1.751 -6.274,2.1 -12.417,4.863 -18.855,6.104 -4.363,0.841 -8.386,1.433 -11.571,4.751 -1.199,1.248 -2.928,1.708 -4.215,0.61 -3.413,-2.913 -6.489,-1.348 -9.752,0.17 -5.725,2.664 -11.647,4.595 -18.099,4.142 0,0 -0.054,0.078 -0.054,0.078 0.374,3.399 -0.952,5.711 -3.591,8.084 C 12.838,-17.16 6.652,-11.097 3.688,-2.618 3.141,-1.055 1.575,-0.393 0,0" style="fill:#3675ba;fill-opacity:1;fill-rule:nonzero;stroke:none" transform="matrix(1.3333333,0,0,-1.3333333,930.4368,891.25213)" />
      <path id="path142" d="m 0,0 c 3.56,-2.391 1.21,-6.728 3.112,-9.763 3.108,1.076 3.38,4.21 4.309,6.399 3.414,8.04 9.094,14.647 13.716,21.851 3.635,5.665 8.556,11.279 16.291,12.465 2.866,0.44 4.897,2.615 6.649,4.661 3.47,4.052 7.834,4.886 12.765,4.472 2.742,-0.23 5.509,-0.64 8.236,-0.484 8.839,0.504 14.431,-4.709 19.811,-10.628 7.222,-7.946 8.727,-17.561 10.172,-27.826 1.546,-10.991 -2.678,-19.705 -6.606,-29.059 -5.303,-12.625 -13.659,-22.487 -24.237,-31.02 -4.608,-3.718 -9.005,-7.331 -14.402,-9.935 -7.803,-3.763 -15.297,-8.193 -19.785,-16.14 -4.437,3.383 -6.15,8.059 -6.311,13.464 3.017,4.757 8.899,4.543 12.969,7.479 14.304,10.313 28.788,20.415 38.354,35.824 1.424,2.295 3.134,4.534 5.145,6.307 1.985,1.751 2.545,3.8 2.865,6.173 0.316,2.331 0.721,4.655 1.193,6.959 C 87.217,5.696 82.161,17.391 71.575,27.038 65.103,32.936 58.417,33.439 51.27,28.597 47.065,25.749 43.013,22.643 39.119,19.382 37.052,17.651 34.693,15.625 33.826,13.238 31.878,7.871 28.16,3.709 24.715,-0.377 17.168,-9.332 13.94,-20.415 10.044,-30.777 6.166,-41.089 3.012,-52.287 3.758,-63.835 c -1.793,2.023 -3.758,3.922 -5.342,6.098 -2.839,3.901 -3.021,7.887 0.364,11.676 0.259,0.29 0.575,0.538 0.793,0.855 3.209,4.659 3.206,4.661 -1.443,7.747 -4.523,3.002 -6.256,5.55 -4.409,9.358 3.522,7.265 4.201,14.82 4.351,22.64 C -1.893,-3.629 -0.674,-1.82 0,0" style="fill:#548dc7;fill-opacity:1;fill-rule:nonzero;stroke:none" transform="matrix(1.3333333,0,0,-1.3333333,737.18267,800.36147)" />
      <path id="path152" d="m 0,0 c -0.674,-1.82 -1.893,-3.629 -1.928,-5.461 -0.15,-7.82 -0.829,-15.375 -4.351,-22.64 -1.847,-3.808 -0.114,-6.356 4.409,-9.358 4.649,-3.086 4.652,-3.088 1.443,-7.747 -0.218,-0.317 -0.534,-0.565 -0.793,-0.855 -3.385,-3.789 -3.203,-7.775 -0.364,-11.676 1.584,-2.176 3.549,-4.075 5.345,-6.099 0.684,-0.357 1.147,-0.9 1.392,-1.628 0.394,-1.499 1.381,-2.274 2.913,-2.384 4.586,-3.908 10.415,-2.553 15.654,-3.696 0.161,-5.404 1.874,-10.08 6.311,-13.463 1.22,-1.259 2.456,-2.524 3.69,-3.789 -0.558,-2.842 0.903,-5.336 1.344,-8.003 0.363,-2.196 -0.574,-3.837 -2.786,-4.408 -1.502,-0.388 -3.083,-0.471 -4.628,-0.69 -0.57,0.086 -1.024,0.363 -1.364,0.829 -0.337,1.886 -1.14,3.362 -3.248,3.689 0,0 -0.109,-0.036 -0.105,-0.034 -0.069,1.488 0.142,3.058 -0.268,4.443 -1.156,3.916 -1.921,3.999 -5.948,1.037 -3.586,3.014 -6.874,6.465 -11.771,7.45 -2.442,0.491 -4.95,-0.88 -5.208,-3.318 -0.288,-2.721 -0.627,-5.518 -0.308,-8.207 1.195,-10.108 -0.957,-20.397 1.711,-30.417 0.193,-0.724 0.106,-1.585 -0.062,-2.335 -1.596,-7.137 -0.463,-13.972 2.037,-20.72 0.554,-1.497 0.328,-3.426 -1.371,-4.04 -3.235,-1.169 -8.32,1.395 -9.464,4.576 -4.161,11.56 -5.603,23.619 -6.183,35.785 -0.504,10.563 -0.92,21.144 -0.87,31.714 0.028,5.802 -1.592,10.5 -5.266,14.986 -4.05,4.947 -3.8,7.621 1.165,11.791 2.395,2.013 3.439,4.124 3.677,6.898 0.367,4.291 0.657,8.592 0.827,12.895 0.279,7.074 0.722,14.108 3.3,20.809 0.385,1.061 0.772,2.122 1.158,3.184 -0.158,3.181 0.871,6.069 2.191,8.881 0.45,0.659 0.635,1.386 0.551,2.18 0,0 -0.006,0.019 -0.006,0.018 1.26,0.397 2.521,0.794 3.781,1.191 C -2.262,0.925 -1.131,0.463 0,0" style="fill:#3675ba;fill-opacity:1;fill-rule:nonzero;stroke:none" transform="matrix(1.3333333,0,0,-1.3333333,737.18267,800.36147)" />
      <path id="path164" d="M 0,0 C 1.545,0.219 3.126,0.302 4.628,0.689 6.841,1.26 7.777,2.902 7.414,5.098 6.973,7.765 5.512,10.259 6.07,13.1 17.048,8.2 24.853,-0.929 34.09,-8.133 c 4.615,-3.599 8.782,-7.636 14.204,-10.191 3.139,-1.479 5.7,-4.135 8.67,-6.027 13.874,-8.837 25.532,-20.574 39.195,-29.757 5.029,-3.381 9.979,-6.884 17.295,-9.927 -9.836,-2.684 -16.995,-0.81 -23.827,3.107 -9.124,5.231 -18.909,9.461 -26.376,17.236 -0.268,0.279 -0.598,0.521 -0.94,0.706 -8.911,4.824 -17.579,9.806 -24.978,17.066 -4.952,4.858 -11.547,7.904 -17.685,11.408 C 12.617,-10.499 5.619,-6.089 0,0" style="fill:#548dc7;fill-opacity:1;fill-rule:nonzero;stroke:none" transform="matrix(1.3333333,0,0,-1.3333333,774.0504,936.22373)" />
      <path id="path189" d="m 0,0 c 6.452,0.453 12.374,-1.479 18.099,-4.142 3.264,-1.518 6.339,-3.084 9.753,-0.17 1.287,1.098 3.015,0.638 4.214,-0.611 3.185,-3.318 7.208,-3.909 11.571,-4.75 6.438,-1.242 12.581,-4.004 18.855,-6.104 1.836,-0.615 3.666,-1.266 5.537,-1.752 4.972,-1.289 8.251,0.578 9.823,5.46 3.341,0.199 6.189,-1.525 8.82,-3.006 7.734,-4.353 15.319,-5.718 23.323,-0.907 0.444,0.267 1.728,-0.037 1.998,-0.466 0.675,-1.073 0.295,-2.357 -0.74,-2.987 -3.005,-1.83 -6.02,-3.695 -9.204,-5.172 -5.84,-2.709 -12.079,-4.187 -18.297,-1.93 -11.395,4.137 -23.287,6.444 -34.832,10.016 -9.734,3.012 -19.611,5.563 -29.418,8.34 -3.38,0.957 -6.635,2.051 -10.291,2.185 C 5.301,-5.853 1.438,-4.49 0,0" style="fill:#548dc7;fill-opacity:1;fill-rule:nonzero;stroke:none" transform="matrix(1.3333333,0,0,-1.3333333,960.94187,932.68213)" />
      <path id="path226" d="m 0,0 c 1.575,-0.393 3.141,-1.055 3.688,-2.618 2.964,-8.479 9.15,-14.542 15.546,-20.293 2.639,-2.373 3.965,-4.685 3.591,-8.084 -1.255,0.923 -2.458,1.928 -3.775,2.752 -4.444,2.784 -9.346,4.305 -12.239,9.846 C 4.442,-13.862 2.439,-9.384 1.059,-4.538 0.634,-3.046 0.349,-1.514 0,0" style="fill:#548dc7;fill-opacity:1;fill-rule:nonzero;stroke:none" transform="matrix(1.3333333,0,0,-1.3333333,930.4368,891.25213)" />
      <path id="path265" d="M 0,0 C 4.027,2.963 4.792,2.879 5.949,-1.036 6.358,-2.422 6.147,-3.991 6.216,-5.479 3.275,-4.636 1.107,-2.92 0,0" style="fill:#548dc7;fill-opacity:1;fill-rule:nonzero;stroke:none" transform="matrix(1.3333333,0,0,-1.3333333,759.47267,922.93933)" />
      </g></svg>