<?xml version='1.0' encoding='utf-8'?>
<svg xmlns="http://www.w3.org/2000/svg" version="1.1" width="680.207" height="56.109" viewBox="205.832 3387.520 680.207 56.109"><g id="object"><path id="path10" d="m 23.801267,6.71875e-4 h 3.058594 L 25.348142,-24.268859 h -3.996094 l -4.324218,11.742187 c -1.078125,3.0585939 -1.945313,5.7187501 -2.554688,8.1679689 H 14.367673 C 13.758298,-6.8782344 12.926267,-9.5383906 11.918455,-12.526672 L 7.7817359,-24.268859 H 3.7856422 L 2.0864234,6.71875e-4 H 5.0747047 L 5.7192359,-10.405578 c 0.2226563,-3.632813 0.3984375,-7.699219 0.46875,-10.722656 h 0.082031 c 0.6796875,2.871093 1.6523437,6.011718 2.8007812,9.433593 L 12.99658,-0.13995312 h 2.378906 L 19.65283,-11.917297 c 1.230468,-3.351562 2.238281,-6.375 3.058593,-9.210937 h 0.117188 c -0.03516,3.023437 0.175781,7.089843 0.351562,10.476562 z m 20.510742,0 C 44.101072,-1.1829219 44.030759,-2.6594844 44.030759,-4.1712031 v -6.5156249 c 0,-3.492188 -1.300781,-7.136719 -6.632812,-7.136719 -2.191406,0 -4.277344,0.621094 -5.71875,1.546875 l 0.714844,2.097656 c 1.230468,-0.796875 2.917968,-1.300781 4.546875,-1.300781 3.5625,0 3.949218,2.589844 3.949218,4.03125 v 0.363281 c -6.726562,-0.03516 -10.464843,2.2617191 -10.464843,6.4804691 0,2.5195313 1.792968,5.00390628 5.320312,5.00390628 2.484375,0 4.359375,-1.23046875 5.332031,-2.58984378 h 0.105469 L 41.440916,6.71875e-4 Z M 40.972166,-5.8704219 c 0,0.328125 -0.08203,0.6914063 -0.1875,1.0078125 -0.503907,1.4765625 -1.945313,2.9179688 -4.207032,2.9179688 -1.617187,0 -2.988281,-0.9726563 -2.988281,-3.0234375 0,-3.3867188 3.925781,-3.9960938 7.382813,-3.9257813 z M 49.137205,6.71875e-4 H 52.27783 V -9.2922969 c 0,-0.5390625 0.07031,-1.0429691 0.140625,-1.4765621 0.433593,-2.367188 2.015625,-4.066407 4.242187,-4.066407 0.433594,0 0.761719,0.03516 1.078125,0.117188 v -2.988281 c -0.28125,-0.08203 -0.539062,-0.117188 -0.890625,-0.117188 -2.132812,0 -4.03125,1.476563 -4.828125,3.820313 h -0.140625 l -0.105469,-3.421875 H 48.99658 c 0.105468,1.617187 0.140625,3.386718 0.140625,5.4375 z M 72.43115,-3.0227656 c -0.902344,0.3984375 -2.085937,0.8671875 -3.890625,0.8671875 -3.457031,0 -6.046875,-2.484375 -6.046875,-6.515625 0,-3.6445309 2.15625,-6.5976559 6.152344,-6.5976559 1.734375,0 2.917969,0.398437 3.679687,0.832031 l 0.714844,-2.449219 c -0.855469,-0.433594 -2.519531,-0.902344 -4.394531,-0.902344 -5.683594,0 -9.351563,3.890625 -9.351563,9.2578129 0,5.3320312 3.421875,8.89453123 8.671875,8.89453123 2.34375,0 4.171875,-0.57421875 5.003907,-1.0078125 z m 4.245117,3.023437475 h 3.175781 V -10.511047 c 0,-0.609375 0.03516,-1.078125 0.210938,-1.511719 0.574219,-1.734375 2.191406,-3.164062 4.253906,-3.164062 2.976563,0 4.03125,2.367187 4.03125,5.179687 V 6.71875e-4 h 3.164063 V -10.370422 c 0,-6.011719 -3.75,-7.453125 -6.082032,-7.453125 -1.195312,0 -2.308593,0.363281 -3.246093,0.902344 -0.972657,0.539062 -1.757813,1.335937 -2.261719,2.238281 h -0.07031 v -10.875 H 76.67627 Z m 41.545903,0 V -2.6243281 h -10.51172 v -0.070312 l 1.875,-1.734375 c 4.93359,-4.7460938 8.0625,-8.2382809 8.0625,-12.5624999 0,-3.351562 -2.1211,-6.808593 -7.16016,-6.808593 -2.70703,0 -5.00391,1.007812 -6.63281,2.378906 l 1.00781,2.238281 c 1.08984,-0.902344 2.84766,-1.980469 4.96875,-1.980469 3.49219,0 4.65234,2.191407 4.65234,4.570313 -0.0352,3.527343 -2.74218,6.550781 -8.71875,12.2343744 l -2.48437,2.4140625 V 6.71875e-4 Z M 122.1831,-23.401672 v 2.625 h 11.44922 v 0.08203 L 123.48388,6.71875e-4 h 3.26954 L 136.94873,-21.315734 v -2.085938 z m 19.26563,27.6093751 c 1.00781,-1.6875 2.58984,-5.6835937 3.42187,-8.7421875 l -3.53906,0.3632813 c -0.38672,2.625 -1.35937,6.4804687 -2.15625,8.6015625 z M 162.1792,6.71875e-4 h 3.05859 V -23.401672 h -2.69531 l -5.1211,2.742188 0.6211,2.402343 4.0664,-2.191406 h 0.0703 z m 19.14843,0.398437505 c 4.46485,0 7.95704,-2.74218748 7.95704,-6.80859378 0,-2.8476562 -1.79297,-4.8984376 -4.71094,-6.0468746 v -0.105469 c 2.88281,-1.371094 3.85547,-3.492188 3.85547,-5.472656 0,-2.917969 -2.27344,-5.765625 -6.8086,-5.765625 -4.10156,0 -7.24218,2.519531 -7.24218,6.234375 0,2.015625 1.125,4.03125 3.71484,5.25 l 0.0352,0.117187 c -2.88282,1.21875 -4.64063,3.3046876 -4.64063,6.2578126 0,3.421875 2.95313,6.33984378 7.83984,6.33984378 z m 0.082,-2.30859378 c -2.98829,0 -4.79297,-2.0859375 -4.6875,-4.4648437 0,-2.2265625 1.47656,-4.0312499 4.21875,-4.8164059 3.16406,0.890625 5.14453,2.2617184 5.14453,5.1093746 0,2.4140625 -1.83985,4.171875 -4.67578,4.171875 z m 0.0351,-19.6171876 c 2.83594,0 3.94922,1.945313 3.94922,3.820313 0,2.121093 -1.54687,3.5625 -3.5625,4.242187 -2.69531,-0.714844 -4.46484,-1.980469 -4.46484,-4.324219 0,-2.015625 1.4414,-3.738281 4.07812,-3.738281 z m 18.35156,21.92578138 c 4.46485,0 7.95704,-2.74218748 7.95704,-6.80859378 0,-2.8476562 -1.79297,-4.8984376 -4.71094,-6.0468746 v -0.105469 c 2.88281,-1.371094 3.85547,-3.492188 3.85547,-5.472656 0,-2.917969 -2.27344,-5.765625 -6.8086,-5.765625 -4.10156,0 -7.24218,2.519531 -7.24218,6.234375 0,2.015625 1.125,4.03125 3.71484,5.25 l 0.0352,0.117187 c -2.88282,1.21875 -4.64063,3.3046876 -4.64063,6.2578126 0,3.421875 2.95313,6.33984378 7.83984,6.33984378 z m 0.082,-2.30859378 c -2.98829,0 -4.79297,-2.0859375 -4.6875,-4.4648437 0,-2.2265625 1.47656,-4.0312499 4.21875,-4.8164059 3.16406,0.890625 5.14453,2.2617184 5.14453,5.1093746 0,2.4140625 -1.83985,4.171875 -4.67578,4.171875 z m 0.0351,-19.6171876 c 2.83594,0 3.94922,1.945313 3.94922,3.820313 0,2.121093 -1.54687,3.5625 -3.5625,4.242187 -2.69531,-0.714844 -4.46484,-1.980469 -4.46484,-4.324219 0,-2.015625 1.4414,-3.738281 4.07812,-3.738281 z m 24.15235,-2.238281 c -0.57422,0 -1.3711,0.04687 -2.3086,0.1875 -2.95312,0.363281 -5.54297,1.546875 -7.48828,3.457031 -2.29687,2.296875 -3.96094,5.941406 -3.96094,10.5468751 0,6.0820313 3.28125,9.97265628 8.28516,9.97265628 4.86328,0 7.78125,-3.96093748 7.78125,-8.24999998 0,-4.5703124 -2.91797,-7.5585934 -7.06641,-7.5585934 -2.58984,0 -4.53515,1.230468 -5.64843,2.707031 h -0.10547 c 0.53906,-3.855469 3.16406,-7.488281 8.13281,-8.320313 0.90234,-0.140625 1.73437,-0.175781 2.37891,-0.140625 z m -5.47266,21.7148436 c -3.31641,0 -5.07422,-2.8476562 -5.14453,-6.6914062 0,-0.5859375 0.14062,-1.0546875 0.35156,-1.4062504 0.86719,-1.699218 2.63672,-2.882812 4.54688,-2.882812 2.90625,0 4.8164,2.015625 4.8164,5.3671874 0,3.3398437 -1.83984,5.6132812 -4.57031,5.6132812 z m 10.04004,-8.1679686 v 2.1562499 h 33.84375 v -2.1562499 z m 50.04785,2.5898436 2.58984,7.628906275 h 3.33985 L 276.3374,-24.268859 h -3.78516 L 264.31396,6.71875e-4 h 3.23438 l 2.51953,-7.628906275 z m -7.95703,-2.4492186 2.36719,-7.019531 c 0.46875,-1.476563 0.86718,-2.953125 1.23046,-4.394532 h 0.0703 c 0.36328,1.40625 0.71484,2.847657 1.2539,4.429688 l 2.37891,6.984375 z m 31.49414,-7.347656 h -3.16406 v 10.6992184 c 0,0.5742187 -0.10547,1.1484375 -0.28125,1.6171875 -0.58594,1.40625 -2.0625,2.8828125 -4.1836,2.8828125 -2.88281,0 -3.89062,-2.2382813 -3.89062,-5.5546875 v -9.6445309 h -3.16406 v 10.1953121 c 0,6.1171875 3.28125,7.62890628 6.01171,7.62890628 3.09375,0 4.9336,-1.83984378 5.76563,-3.24609378 h 0.0703 l 0.17578,2.847656275 h 2.8125 C 302.25342,-1.3704219 302.21826,-2.9524531 302.21826,-4.7571406 Z m 17.50488,0 -0.15234,2.625 h -0.0703 c -0.75,-1.429688 -2.41407,-3.023438 -5.4375,-3.023438 -3.9961,0 -7.83985,3.351563 -7.83985,9.2578126 0,4.828125 3.09375,8.49609378 7.41797,8.49609378 2.69531,0 4.57031,-1.30078128 5.54297,-2.91796878 h 0.0703 v 1.9453125 c 0,4.3945313 -2.3789,6.0820313 -5.61328,6.0820313 -2.16797,0 -3.96094,-0.6445313 -5.12109,-1.3710938 l -0.78516,2.4140625 c 1.40625,0.9375 3.70313,1.4414063 5.78906,1.4414063 2.20313,0 4.65235,-0.5039063 6.33985,-2.0859375 1.6875,-1.5117188 2.48437,-3.9609375 2.48437,-7.9570313 V -12.632141 c 0,-2.132812 0.0703,-3.527343 0.14063,-4.792968 z m -0.5039,10.0078121 c 0,0.5390625 -0.0703,1.1484375 -0.25782,1.6992188 -0.67968,2.015625 -2.44922,3.234375 -4.39453,3.234375 -3.41015,0 -5.14453,-2.8476563 -5.14453,-6.2578125 0,-4.0429684 2.15625,-6.5976564 5.19141,-6.5976564 2.29687,0 3.84375,1.511719 4.41797,3.351563 0.15234,0.433593 0.1875,0.902343 0.1875,1.441406 z M 342.1792,-17.425109 h -3.16407 v 10.6992184 c 0,0.5742187 -0.10546,1.1484375 -0.28125,1.6171875 -0.58593,1.40625 -2.0625,2.8828125 -4.18359,2.8828125 -2.88281,0 -3.89062,-2.2382813 -3.89062,-5.5546875 v -9.6445309 h -3.16407 v 10.1953121 c 0,6.1171875 3.28125,7.62890628 6.01172,7.62890628 3.09375,0 4.9336,-1.83984378 5.76563,-3.24609378 h 0.0703 l 0.17578,2.847656275 h 2.8125 C 342.21435,-1.3704219 342.1792,-2.9524531 342.1792,-4.7571406 Z m 4.04004,16.59374963 c 1.21875,0.7265625 2.98828,1.1953125 4.89843,1.1953125 4.13672,0 6.51563,-2.16796873 6.51563,-5.22656253 0,-2.5898437 -1.54688,-4.1015625 -4.58203,-5.2499996 -2.26172,-0.867188 -3.30469,-1.511719 -3.30469,-2.953125 0,-1.300782 1.04297,-2.378907 2.91797,-2.378907 1.61719,0 2.87109,0.574219 3.5625,1.007813 l 0.78515,-2.296875 c -0.97265,-0.585938 -2.51953,-1.089844 -4.27734,-1.089844 -3.75,0 -6.01172,2.308594 -6.01172,5.121094 0,2.085937 1.47656,3.8085936 4.60547,4.9218749 2.34375,0.8671875 3.24609,1.6992187 3.24609,3.2109375 0,1.4414062 -1.08984,2.5898437 -3.38671,2.5898437 -1.58204,0 -3.2461,-0.6445312 -4.1836,-1.2539062 z M 362.42041,-21.596984 v 4.171875 h -2.70703 v 2.414062 h 2.70703 v 9.5039064 c 0,2.0507812 0.3164,3.5976562 1.21875,4.53515623 0.76172,0.8671875 1.94531,1.3359375 3.42187,1.3359375 1.21875,0 2.19141,-0.1875 2.8125,-0.43359375 l -0.15234,-2.37890628 c -0.38672,0.1054688 -1.00781,0.2226563 -1.82813,0.2226563 -1.76953,0 -2.3789,-1.2304688 -2.3789,-3.3867188 v -9.3984376 h 4.53515 v -2.414062 h -4.53515 v -5.003907 z m 24.6914,21.597655875 h 3.0586 V -23.401672 h -2.69531 l -5.1211,2.742188 0.6211,2.402343 4.0664,-2.191406 h 0.0703 z M 399.13525,-23.401672 v 2.625 h 11.44922 v 0.08203 L 400.43603,6.71875e-4 h 3.26953 L 413.90088,-21.315734 v -2.085938 z m 19.2627,27.6093751 c 1.00781,-1.6875 2.58984,-5.6835937 3.42187,-8.7421875 l -3.53906,0.3632813 c -0.38672,2.625 -1.35938,6.4804687 -2.15625,8.6015625 z m 20.7334,-4.207031225 h 3.05859 V -23.401672 h -2.69531 l -5.1211,2.742188 0.6211,2.402343 4.0664,-2.191406 h 0.0703 z m 13.42968,0.363281255 c 0.75,0.0351563 1.75782,0 2.91797,-0.1875 2.51953,-0.28125 5.00391,-1.35937503 6.79688,-3.12890623 2.30859,-2.2265625 4.03125,-5.8359375 4.03125,-10.9804689 0,-5.976562 -2.94141,-9.867187 -7.73438,-9.867187 -4.79297,0 -7.99219,3.890625 -7.99219,8.320312 0,3.996094 2.69532,7.1601564 6.91407,7.1601564 2.33203,0 4.20703,-0.9375 5.50781,-2.5195314 h 0.10547 c -0.4336,2.7773439 -1.54688,4.8281251 -3.09375,6.2343751 -1.33594,1.2539063 -3.0586,2.015625 -4.89844,2.2617188 -1.07812,0.1171875 -1.875,0.1875 -2.55469,0.1171875 z m 5.75391,-21.75000013 c 3.31641,0 4.79297,3.058594 4.79297,7.054688 0,0.503906 -0.10547,0.867187 -0.29297,1.160156 -0.82031,1.394531 -2.48438,2.449219 -4.60547,2.449219 -2.73047,0 -4.5,-2.0625 -4.5,-4.96875 0,-3.316407 1.91016,-5.695313 4.60547,-5.695313 z m 18.43359,21.78515638 c 4.46485,0 7.95703,-2.74218748 7.95703,-6.80859378 0,-2.8476562 -1.79296,-4.8984376 -4.71093,-6.0468746 v -0.105469 c 2.88281,-1.371094 3.85547,-3.492188 3.85547,-5.472656 0,-2.917969 -2.27344,-5.765625 -6.8086,-5.765625 -4.10156,0 -7.24219,2.519531 -7.24219,6.234375 0,2.015625 1.125,4.03125 3.71485,5.25 l 0.0351,0.117187 c -2.88281,1.21875 -4.64062,3.3046876 -4.64062,6.2578126 0,3.421875 2.95312,6.33984378 7.83984,6.33984378 z m 0.082,-2.30859378 c -2.98828,0 -4.79296,-2.0859375 -4.6875,-4.4648437 0,-2.2265625 1.47657,-4.0312499 4.21875,-4.8164059 3.16407,0.890625 5.14454,2.2617184 5.14454,5.1093746 0,2.4140625 -1.83985,4.171875 -4.67579,4.171875 z m 0.0352,-19.6171876 c 2.83594,0 3.94922,1.945313 3.94922,3.820313 0,2.121093 -1.54688,3.5625 -3.5625,4.242187 -2.69531,-0.714844 -4.46484,-1.980469 -4.46484,-4.324219 0,-2.015625 1.4414,-3.738281 4.07812,-3.738281 z M 489.4956,0.36395313 c 0.75,0.0351563 1.75782,0 2.91797,-0.1875 2.51953,-0.28125 5.00391,-1.35937503 6.79688,-3.12890623 2.30859,-2.2265625 4.03125,-5.8359375 4.03125,-10.9804689 0,-5.976562 -2.94141,-9.867187 -7.73438,-9.867187 -4.79297,0 -7.99219,3.890625 -7.99219,8.320312 0,3.996094 2.69532,7.1601564 6.91407,7.1601564 2.33203,0 4.20703,-0.9375 5.50781,-2.5195314 h 0.10547 c -0.4336,2.7773439 -1.54688,4.8281251 -3.09375,6.2343751 -1.33594,1.2539063 -3.0586,2.015625 -4.89844,2.2617188 -1.07812,0.1171875 -1.875,0.1875 -2.55469,0.1171875 z m 5.75391,-21.75000013 c 3.31641,0 4.79297,3.058594 4.79297,7.054688 0,0.503906 -0.10547,0.867187 -0.29297,1.160156 -0.82031,1.394531 -2.48438,2.449219 -4.60547,2.449219 -2.73047,0 -4.5,-2.0625 -4.5,-4.96875 0,-3.316407 1.91016,-5.695313 4.60547,-5.695313 z m 0,0" style="fill:#dcdddd;fill-opacity:1;fill-rule:nonzero;stroke:none" aria-label="March 27, 1886—August 17, 1989" transform="matrix(1.3333333,0,0,1.3333333,209.05013,3427.6007)" />
      </g></svg>