<?xml version='1.0' encoding='utf-8'?>
<svg xmlns="http://www.w3.org/2000/svg" version="1.1" width="103.839" height="148.254" viewBox="1534.780 4284.050 103.839 148.254"><g id="object"><path id="path347" d="m 0,0 c 0,-1.708 0.011,-3.262 -0.002,-4.816 -0.051,-5.982 0.77,-7.122 6.533,-6.825 3.75,0.194 8.694,-1.773 11.028,1.683 2.862,4.237 -1.826,7.779 -3.561,11.41 C 11.831,5.988 9.025,10.233 6.284,14.467 5.825,15.176 4.295,15.419 3.259,15.423 2.795,15.424 2.017,14.35 1.912,13.681 1.19,9.091 0.609,4.479 0,0 m -18.45,-55.09 c 0.872,3.018 1.994,6.778 3.039,10.56 1.255,4.541 2.18,9.193 3.729,13.628 1.98,5.668 0.698,10.672 -2.127,15.571 1.801,4.516 6.996,6.658 7.092,12.766 0.167,10.573 1.986,21.111 2.698,31.692 0.246,3.659 1.249,6.935 2.708,10.129 0.402,0.88 1.843,1.804 2.779,1.775 0.944,-0.029 2.487,-1.072 2.681,-1.919 3.582,-15.619 13.254,-28.278 20.236,-42.241 2.423,-4.846 5.445,-7.509 11.08,-6.189 1.163,0.273 2.429,-0.183 2.7,-1.525 0.121,-0.594 -0.405,-1.417 -0.829,-1.997 -0.455,-0.621 -1.123,-1.092 -1.72,-1.602 -2.52,-2.149 -2.743,-4.572 -0.917,-7.273 3.303,-4.88 6.608,-9.759 9.881,-14.659 1.744,-2.612 3.566,-5.189 5.083,-7.93 0.966,-1.745 1.301,-3.903 -0.757,-5.183 -1.498,-0.933 -3.118,-0.206 -4.194,1.089 -1.747,2.105 -3.444,4.266 -4.985,6.525 -4.207,6.167 -8.508,12.282 -12.396,18.649 -2.096,3.433 -4.697,5.112 -8.629,4.832 -5.096,-0.362 -10.189,-0.793 -15.289,-1.094 -3.734,-0.22 -5.68,-2.46 -6.529,-5.751 -1.764,-6.844 -3.31,-13.744 -5.051,-20.595 -1.063,-4.181 -2.223,-8.345 -3.527,-12.456 -0.757,-2.385 -2.851,-3.424 -4.465,-2.581 -1.535,0.803 -2.229,2.102 -2.289,3.787 -0.014,0.392 -0.002,0.784 -0.002,1.992" style="fill:#1e4a94;fill-opacity:1;fill-rule:nonzero;stroke:none" transform="matrix(1.3333333,0,0,-1.3333333,1565.3865,4344.7584)" />
      </g></svg>