<?xml version='1.0' encoding='utf-8'?>
<svg xmlns="http://www.w3.org/2000/svg" version="1.1" width="2861.328" height="2420.910" viewBox="70.949 1172.060 2861.328 2420.910"><defs id="defs1"><clipPath clipPathUnits="userSpaceOnUse" id="clipPath31">
      <path d="M 0,3370.3901 H 2383.9401 V -2.5000001e-5 H 0 Z" id="path31" />
    </clipPath>
  </defs><g id="object"><path id="path3" d="m 0,0 c 1.871,16.275 14.323,13.564 25.033,13.927 78.32,2.652 98.613,-16.63 138.625,-93.96 33.809,-65.342 78.206,-125.407 120.497,-186.007 9.83,-14.085 31.584,-16.539 50.156,-16.031 53.56,1.466 107.051,-6.241 160.682,-0.524 19.471,2.075 37.429,-2.513 39.857,-26.228 2.835,-27.696 -15.664,-31.816 -37.669,-31.694 -52.278,0.29 -104.559,0.094 -166.324,0.094 43.9,-65.307 83.285,-124.44 123.421,-183.059 6.523,-9.528 17.051,-9.029 29.068,-7.899 58.005,5.453 116.019,-1.497 174.059,-2.437 13.658,-0.222 21.109,-5.994 19.946,-19.805 -1.152,-13.679 3.238,-32.042 -19.051,-32.746 -36.56,-1.155 -73.159,-1.156 -109.742,-1.538 -14.602,-0.153 -29.208,-0.025 -48.419,-0.025 26.758,-59.414 69.645,-104.166 95.534,-158.33 26.527,-55.498 68.113,-62.744 125.82,-66.963 132.91,-9.718 266.431,8.677 398.505,-12.433 53.19,-8.501 104.604,-24.562 153.479,-47.532 10.305,-4.843 24.444,-9.657 23.403,-24.617 -0.922,-13.245 -11.132,-20.244 -23.095,-25.789 -60.336,-27.97 -123.797,-46.607 -189.854,-48.182 -125.707,-2.997 -251.555,-3.205 -377.276,-0.863 -47.122,0.878 -79.429,-8.284 -103.402,-54.302 -26.005,-49.919 -62.974,-94.155 -95.557,-140.593 -6.232,-8.882 -13.33,-16.887 -12.315,-32.866 48.888,0 97.482,-0.217 146.071,0.113 17.888,0.122 30.33,-2.37 29.947,-25.617 -0.388,-23.638 -12.551,-28.748 -32.29,-28.565 -53.766,0.499 -107.593,-0.762 -161.276,1.511 -21.638,0.916 -33.144,-6.963 -44.097,-24.005 -30.265,-47.092 -62.2,-93.108 -93.132,-139.776 -3.811,-5.749 -9.187,-14.128 -7.476,-19.098 3.45,-10.022 14.656,-5.615 22.57,-5.73 46.46,-0.676 92.932,-0.514 139.39,-1.275 13.841,-0.226 30.822,2.715 29.365,-20.894 -1.111,-17.989 -1.863,-30.169 -27.074,-32.458 -53.455,-4.852 -109.644,-14.396 -159.378,-1.15 -57.055,15.195 -71.11,-24.767 -87.974,-52.77 -40.31,-66.933 -85.373,-130.615 -126.973,-196.589 -24.424,-38.735 -77.988,-51.321 -125.34,-33.258 20.496,61.448 41.075,122.864 61.468,184.342 45.498,137.16 89.133,274.973 137.124,411.254 22.529,63.974 26.178,128.5 21.966,194.303 -2.486,38.835 -34.155,12.028 -50.953,19.333 -44.153,0.983 -88.067,20.195 -132.515,1.881 -14.022,0.084 -28.043,0.168 -42.053,0.249 -9.497,4.771 -19.425,3.258 -29.34,1.956 -94.118,1.935 -187.74,9.916 -280.938,23.066 -3.636,0.513 -7.288,0.922 -10.939,1.319 -22.957,2.495 -46.712,30.77 -68.603,-0.676 -14.475,-20.794 -35.835,-34.064 -51.471,-54.767 -46.895,-62.093 -99.307,-120.094 -150.819,-178.587 -19.225,-21.828 -47.414,-15.534 -72.495,-14.922 -7.614,0.186 -14.534,6.852 -9.457,18.512 36.207,83.162 62.443,170.017 94.174,254.826 8.925,23.854 7.349,43.932 -0.876,66.617 -27.85,76.805 -54.583,154.016 -81.471,231.166 -3.12,8.953 -4.544,18.497 -6.747,27.736 47.583,11.972 82.2,-0.78 112.566,-39.829 50.936,-65.503 106.943,-127.054 160.398,-190.62 10.527,-12.518 20.888,-15.151 37.92,-13.13 96.848,11.493 193.251,29.898 291.546,23.641 16.962,-10.633 33.67,-9.69 50.154,1.155 5.587,1.681 11.174,3.362 16.754,5.043 7.313,-15.247 14.674,-16.337 22.087,-0.065 14.105,0.367 28.21,0.733 42.303,1.101 5.098,-4.377 10.159,-4.941 15.146,0.198 4.894,0.029 9.788,0.057 14.667,0.089 12.458,-5.852 25.189,-5.074 38.029,-1.482 14.09,0.315 28.18,0.63 42.257,0.946 16.975,-2.791 34.254,-13.418 50.568,1.886 5.762,73.451 0.269,144.569 -23.462,215.948 C 133.302,-402.791 76.694,-216.516 17.689,-31.031 14.145,-19.889 11.989,-6.828 0,0" style="fill:#33423f;fill-opacity:1;fill-rule:nonzero;stroke:none" transform="matrix(1.3333333,0,0,-1.3333333,1197.0297,1202.8839)" />
      <path id="path4" d="M 0,0 C 44.448,18.315 88.362,-0.898 132.515,-1.881 88.295,-3.696 44.098,-5.318 0,0" style="fill:#809ca7;fill-opacity:1;fill-rule:nonzero;stroke:none" transform="matrix(1.3333333,0,0,-1.3333333,1243.4347,2494.6843)" />
      <path id="path5" d="M 0,0 C -16.483,-10.845 -33.192,-11.788 -50.154,-1.155 -33.694,10.532 -16.978,10.888 0,0" style="fill:#809ca7;fill-opacity:1;fill-rule:nonzero;stroke:none" transform="matrix(1.3333333,0,0,-1.3333333,1165.5001,2284.4008)" />
      <path id="path6" d="M 0,0 C -16.313,-15.304 -33.593,-4.677 -50.568,-1.886 -33.703,-1.258 -16.852,-0.629 0,0" style="fill:#809ca7;fill-opacity:1;fill-rule:nonzero;stroke:none" transform="matrix(1.3333333,0,0,-1.3333333,1487.9145,2274.1129)" />
      <path id="path7" d="M 0,0 C -7.412,-16.272 -14.774,-15.182 -22.087,0.065 -14.708,4.051 -7.352,2.603 0,0" style="fill:#809ca7;fill-opacity:1;fill-rule:nonzero;stroke:none" transform="matrix(1.3333333,0,0,-1.3333333,1217.2879,2277.7639)" />
      <path id="path8" d="M 0,0 C -12.841,-3.593 -25.572,-4.37 -38.029,1.482 -25.193,4.845 -12.504,4.815 0,0" style="fill:#809ca7;fill-opacity:1;fill-rule:nonzero;stroke:none" transform="matrix(1.3333333,0,0,-1.3333333,1364.1491,2277.8888)" />
      <path id="path9" d="M 0,0 C 9.915,1.303 19.843,2.816 29.34,-1.955 19.266,-5.598 9.282,-8.073 0,0" style="fill:#809ca7;fill-opacity:1;fill-rule:nonzero;stroke:none" transform="matrix(1.3333333,0,0,-1.3333333,1148.2447,2491.7444)" />
      <path id="path10" d="M 0,0 C -4.987,-5.139 -10.048,-4.575 -15.146,-0.198 -10.089,-0.133 -5.044,-0.066 0,0" style="fill:#809ca7;fill-opacity:1;fill-rule:nonzero;stroke:none" transform="matrix(1.3333333,0,0,-1.3333333,1293.8871,2276.0317)" />
      <path id="path29" d="m 0,0 c 200.368,-0.527 400.737,-1.01 601.106,-1.494 40.543,-0.098 80.539,-12.423 121.397,-5.412 20.495,61.444 41.073,122.86 61.467,184.338 45.497,137.159 89.133,274.973 137.124,411.253 22.529,63.975 26.177,128.501 21.966,194.303 -2.486,38.835 -34.156,12.028 -50.975,19.339 -44.199,-1.82 -88.395,-3.443 -132.494,1.875 -14.021,0.084 -28.043,0.168 -42.064,0.253 -10.062,-3.646 -20.046,-6.121 -29.328,1.952 -94.118,1.936 -187.74,9.916 -280.938,23.066 -3.636,0.513 -7.288,0.922 -10.939,1.319 -22.958,2.496 -46.712,30.77 -68.603,-0.676 C 313.244,809.323 291.884,796.053 276.248,775.349 229.353,713.256 176.941,655.256 125.428,596.763 106.204,574.934 78.015,581.228 52.933,581.84 c -7.613,0.186 -14.534,6.852 -9.457,18.513 36.207,83.161 62.443,170.016 94.175,254.825 8.925,23.854 7.349,43.933 -0.877,66.617 -27.849,76.805 -54.582,154.016 -81.47,231.166 -3.12,8.953 -4.544,18.497 -6.747,27.736 47.583,11.972 82.2,-0.78 112.565,-39.829 50.937,-65.503 106.944,-127.054 160.399,-190.619 10.527,-12.519 20.888,-15.152 37.92,-13.13 96.848,11.493 193.251,29.898 291.555,23.624 16.451,11.704 33.166,12.06 50.145,1.172 5.587,1.681 11.174,3.362 16.761,5.043 7.372,3.986 14.727,2.538 22.079,-0.066 l 42.316,1.1 c 5.045,0.067 10.089,0.133 15.134,0.2 4.894,0.028 9.787,0.057 14.681,0.085 12.822,3.367 25.512,3.337 38.015,-1.478 14.09,0.315 28.18,0.629 42.269,0.944 16.852,0.629 33.704,1.258 50.555,1.888 5.763,73.451 0.269,144.569 -23.461,215.948 -61.401,184.682 -118.009,370.957 -177.013,556.442 -3.544,11.142 -5.7,24.203 -17.689,31.031 -178.115,1.939 -356.228,4.085 -534.346,5.709 -67.184,0.612 -134.443,1.727 -201.539,-0.797 -25.467,-0.958 -102.907,-3.227 -104.176,13.706 V -8.275 C -111.09,3.17 -30.433,0.08 0,0" style="fill:#e6e5d9;fill-opacity:1;fill-rule:nonzero;stroke:none" transform="matrix(1.3333333,0,0,-1.3333333,230.646,3566.9537)" />
      </g></svg>