<?xml version='1.0' encoding='utf-8'?>
<svg xmlns="http://www.w3.org/2000/svg" version="1.1" width="1706.336" height="125.892" viewBox="629.054 3764.830 1706.336 125.892"><g id="object"><path id="path12" d="M 51.42093,-25.71133 60.163117,-3.921875e-4 H 71.436555 L 43.54593,-81.750392 H 30.807648 L 3.0342109,-3.921875e-4 H 13.944367 L 22.440461,-25.71133 Z m -26.800782,-8.25 8.003907,-23.648437 c 1.582031,-4.980469 2.917968,-9.949219 4.125,-14.800781 h 0.246093 c 1.207032,4.734375 2.425782,9.585937 4.242188,14.917968 l 8.003906,23.53125 z M 95.583039,-3.921875e-4 H 141.06351 V -8.8597672 h -34.9336 V -81.750392 H 95.583039 Z m 69.377931,0 h 10.54687 V -36.996486 h 30.92579 v -8.730469 h -30.92579 v -27.164062 h 33.48047 v -8.859375 h -44.02734 z m 71.20019,0 h 10.54688 V -35.414455 h 9.94922 c 9.57422,0.363282 13.94531,4.605469 16.37109,15.890625 2.3086,10.1835941 4.125,17.2148441 5.46094,19.5234378125 h 10.91016 C 287.70023,-3.1527359 285.76663,-11.039455 283.09476,-22.441798 c -1.94531,-8.484375 -5.69531,-14.308594 -12.01172,-16.488282 v -0.363281 c 8.61328,-2.917969 15.41016,-10.066406 15.41016,-20.871094 0,-6.304687 -2.3086,-11.882812 -6.4336,-15.515625 -5.08594,-4.617187 -12.36328,-6.679687 -23.64844,-6.679687 -7.27734,0 -14.91796,0.609375 -20.25,1.699219 z M 246.70804,-73.254298 c 1.69922,-0.492188 5.33203,-0.972657 10.42969,-0.972657 11.15625,0.117188 18.79687,4.722657 18.79687,15.28125 0,9.339844 -7.14844,15.527344 -18.43359,15.527344 h -10.79297 z m 109.16601,26.191406 H 324.0928 v -25.828125 h 33.59766 v -8.859375 H 313.54593 V -3.921875e-4 h 45.96094 V -8.8597672 H 324.0928 V -38.332423 h 31.78125 z m 29.47559,46.81640606 c 5.33203,0.609375 11.63672,0.97265625 19.16016,0.97265625 15.89062,0 28.5,-4.12500001 36.14062,-11.76562531 7.64063,-7.523437 11.76563,-18.433593 11.76563,-31.78125 0,-13.21875 -4.24219,-22.675781 -11.51953,-29.34375 -7.16016,-6.679687 -17.95313,-10.195312 -33.11719,-10.195312 -8.36719,0 -16.00781,0.726562 -22.42969,1.699219 z M 395.89652,-72.891017 c 2.78906,-0.609375 6.91406,-1.101563 12.375,-1.101563 22.3125,0 33.23437,12.257813 33.10546,31.535157 0,22.078125 -12.24609,34.6992183 -34.80468,34.6992183 -4.125,0 -8.00391,-0.1289062 -10.67578,-0.609375 z m 120.208,-8.859375 V -3.921875e-4 H 526.6514 V -38.332423 h 39.53906 V -3.921875e-4 h 10.67578 V -81.750392 h -10.67578 v 34.207031 H 526.6514 v -34.207031 z m 91.20996,0 V -3.921875e-4 h 10.54688 V -81.750392 Z m 56.63379,81.7499998125 h 10.67578 V -72.77383 h 24.98438 v -8.976562 H 639.0928 v 8.976562 h 24.85547 z M 772.50784,-11.039455 c -4.24218,2.0625003 -10.79296,3.3984378 -17.22656,3.3984378 -19.88672,0 -31.40625,-12.8554688 -31.40625,-32.8710938 0,-21.46875 12.73828,-33.714844 31.89844,-33.714844 6.78516,0 12.49219,1.453125 16.48828,3.398438 l 2.55469,-8.613281 c -2.78906,-1.453125 -9.22266,-3.644532 -19.40625,-3.644532 -25.34766,0 -42.69141,17.34375 -42.69141,42.9375 0,26.800782 17.34375,41.3671878 40.38281,41.3671878 9.94922,0 17.70704,-1.94531249 21.58594,-3.890625 z m 27.542,-70.710937 V -3.921875e-4 h 10.54687 V -38.332423 h 39.53906 V -3.921875e-4 h 10.67578 V -81.750392 h -10.67578 v 34.207031 h -39.53906 v -34.207031 z m 146.14746,70.710937 c -4.24219,2.0625003 -10.79297,3.3984378 -17.22657,3.3984378 -19.88671,0 -31.40625,-12.8554688 -31.40625,-32.8710938 0,-21.46875 12.73829,-33.714844 31.89844,-33.714844 6.78516,0 12.49219,1.453125 16.48828,3.398438 l 2.55469,-8.613281 c -2.78906,-1.453125 -9.22266,-3.644532 -19.40625,-3.644532 -25.34766,0 -42.69141,17.34375 -42.69141,42.9375 0,26.800782 17.34375,41.3671878 40.38282,41.3671878 9.94922,0 17.70703,-1.94531249 21.58593,-3.890625 z m 58.1016,-72.046875 c -21.83207,0 -37.95707,16.980469 -37.95707,42.9375 0,24.75 15.15234,41.4843753 36.74997,41.4843753 20.8594,0 37.9571,-14.9179683 37.9571,-43.0546873 0,-24.257813 -14.4258,-41.367188 -36.75,-41.367188 z m -0.4805,8.613282 c 17.5898,0 26.0742,16.980468 26.0742,33.234375 0,18.5625 -9.457,33.9609371 -26.2031,33.9609371 -16.6172,0 -26.07423,-15.6445311 -26.07423,-33.1171871 0,-17.941407 8.73046,-34.078125 26.20313,-34.078125 z m 118.0107,63.433593 c -4.2422,2.0625003 -10.7929,3.3984378 -17.2265,3.3984378 -19.8867,0 -31.4063,-12.8554688 -31.4063,-32.8710938 0,-21.46875 12.7383,-33.714844 31.8985,-33.714844 6.7851,0 12.4921,1.453125 16.4882,3.398438 l 2.5547,-8.613281 c -2.789,-1.453125 -9.2226,-3.644532 -19.4062,-3.644532 -25.3477,0 -42.6914,17.34375 -42.6914,42.9375 0,26.800782 17.3437,41.3671878 40.3828,41.3671878 9.9492,0 17.707,-1.94531249 21.5859,-3.890625 z m 27.542,11.0390628125 h 10.5469 V -31.172267 l 7.7578,-8.976563 26.9297,40.1484378125 h 12.4922 L 1175.1993,-47.062892 l 29.6015,-34.6875 h -13.1015 l -24.9844,30.691406 c -2.0625,2.660156 -4.2539,5.578125 -6.4336,8.730469 h -0.3633 v -39.421875 h -10.5469 z M 1223.1172,-4.0082047 c 4.3594,2.9179688 12.9727,5.2265625 20.8594,5.2265625 19.2891,0 28.6289,-10.921875 28.6289,-23.5312498 0,-12.011719 -7.043,-18.679688 -20.8711,-24.023438 -11.2734,-4.359375 -16.2539,-8.121093 -16.2539,-15.761718 0,-5.578125 4.2539,-12.257813 15.4102,-12.257813 7.3945,0 12.8554,2.425781 15.5273,3.890625 l 2.9063,-8.613281 c -3.6329,-2.0625 -9.7032,-4.007813 -18.0704,-4.007813 -15.8906,0 -26.4375,9.46875 -26.4375,22.195313 0,11.53125 8.2383,18.433594 21.586,23.167969 11.039,4.242187 15.3984,8.613281 15.3984,16.253906 0,8.25 -6.3047,13.9453123 -17.0976,13.9453123 -7.2774,0 -14.1914,-2.4257812 -18.9258,-5.3320313 z m 0,0" style="fill:#ffffff;fill-opacity:1;fill-rule:nonzero;stroke:none" aria-label="ALFRED HITCHCOCKS" transform="matrix(1.3333333,0,0,1.3333333,631.94267,3882.2779)" />
      <path id="path13" d="M 0,0 8.733,-25.714 H 20.014 L -7.884,56.037 H -20.62 l -27.776,-81.751 h 10.917 L -28.989,0 Z M -26.805,8.248 -18.8,31.9 c 1.577,4.973 2.911,9.946 4.124,14.797 h 0.242 c 1.213,-4.729 2.426,-9.582 4.246,-14.919 l 8.005,-23.53 z" style="fill:none;stroke:#ffffff;stroke-width:1;stroke-linecap:butt;stroke-linejoin:miter;stroke-miterlimit:10;stroke-dasharray:none;stroke-opacity:1" transform="matrix(1.3333333,0,0,-1.3333333,700.51307,3847.9927)" />
      <path id="path14" d="M 0,0 H 45.484 V 8.854 H 10.552 V 81.751 H 0 Z" style="fill:none;stroke:#ffffff;stroke-width:1;stroke-linecap:butt;stroke-linejoin:miter;stroke-miterlimit:10;stroke-dasharray:none;stroke-opacity:1" transform="matrix(1.3333333,0,0,-1.3333333,759.38027,3882.2779)" />
      <path id="path15" d="m 0,0 h 10.552 v 36.994 h 30.93 v 8.734 h -30.93 v 27.168 h 33.477 v 8.855 H 0 Z" style="fill:none;stroke:#ffffff;stroke-width:1;stroke-linecap:butt;stroke-linejoin:miter;stroke-miterlimit:10;stroke-dasharray:none;stroke-opacity:1" transform="matrix(1.3333333,0,0,-1.3333333,851.88347,3882.2779)" />
      <path id="path16" d="m 0,0 h 10.552 v 35.417 h 9.947 C 30.081,35.054 34.447,30.809 36.873,19.528 39.177,9.34 40.997,2.305 42.331,0 H 53.247 C 51.549,3.153 49.608,11.038 46.94,22.439 45,30.93 41.239,36.752 34.932,38.935 v 0.364 c 8.612,2.911 15.404,10.067 15.404,20.862 0,6.307 -2.304,11.887 -6.428,15.526 -5.095,4.609 -12.372,6.67 -23.652,6.67 C 12.978,82.357 5.337,81.751 0,80.659 Z m 10.552,73.261 c 1.698,0.485 5.337,0.969 10.431,0.969 11.16,-0.121 18.801,-4.729 18.801,-15.282 0,-9.34 -7.157,-15.525 -18.436,-15.525 H 10.552 Z" style="fill:none;stroke:#ffffff;stroke-width:1;stroke-linecap:butt;stroke-linejoin:miter;stroke-miterlimit:10;stroke-dasharray:none;stroke-opacity:1" transform="matrix(1.3333333,0,0,-1.3333333,946.81507,3882.2779)" />
      <path id="path17" d="M 0,0 H -31.779 V 25.835 H 1.819 v 8.854 h -44.15 v -81.751 h 45.97 v 8.855 h -35.418 v 29.474 l 31.779,0 z" style="fill:none;stroke:#ffffff;stroke-width:1;stroke-linecap:butt;stroke-linejoin:miter;stroke-miterlimit:10;stroke-dasharray:none;stroke-opacity:1" transform="matrix(1.3333333,0,0,-1.3333333,1106.4349,3819.5291)" />
      <path id="path18" d="m 0,0 c 5.337,-0.606 11.644,-0.97 19.164,-0.97 15.889,0 28.504,4.124 36.145,11.766 7.642,7.519 11.766,18.435 11.766,31.778 0,13.221 -4.245,22.682 -11.523,29.353 C 48.396,78.598 37.601,82.115 22.439,82.115 14.07,82.115 6.428,81.388 0,80.417 Z m 10.552,72.654 c 2.79,0.607 6.914,1.092 12.372,1.092 22.318,0 33.234,-12.25 33.113,-31.536 0,-22.075 -12.25,-34.689 -34.811,-34.689 -4.124,0 -8.005,0.121 -10.674,0.606 z" style="fill:none;stroke:#ffffff;stroke-width:1;stroke-linecap:butt;stroke-linejoin:miter;stroke-miterlimit:10;stroke-dasharray:none;stroke-opacity:1" transform="matrix(1.3333333,0,0,-1.3333333,1145.7317,3881.9549)" />
      <path id="path19" d="m 0,0 v -81.751 h 10.552 v 38.328 H 50.094 V -81.751 H 60.768 V 0 H 50.094 V -34.204 H 10.552 V 0 Z" style="fill:none;stroke:#ffffff;stroke-width:1;stroke-linecap:butt;stroke-linejoin:miter;stroke-miterlimit:10;stroke-dasharray:none;stroke-opacity:1" transform="matrix(1.3333333,0,0,-1.3333333,1320.0657,3773.2765)" />
      <path id="path20" d="M 0,0 V -81.751 H 10.552 V 0 Z" style="fill:none;stroke:#ffffff;stroke-width:1;stroke-linecap:butt;stroke-linejoin:miter;stroke-miterlimit:10;stroke-dasharray:none;stroke-opacity:1" transform="matrix(1.3333333,0,0,-1.3333333,1441.6804,3773.2765)" />
      <path id="path21" d="M 0,0 H 10.674 V 72.775 H 35.66 v 8.976 H -24.865 V 72.775 H 0 Z" style="fill:none;stroke:#ffffff;stroke-width:1;stroke-linecap:butt;stroke-linejoin:miter;stroke-miterlimit:10;stroke-dasharray:none;stroke-opacity:1" transform="matrix(1.3333333,0,0,-1.3333333,1517.2044,3882.2779)" />
      <path id="path22" d="m 0,0 c -4.245,-2.063 -10.795,-3.396 -17.224,-3.396 -19.891,0 -31.414,12.856 -31.414,32.87 0,21.468 12.736,33.718 31.9,33.718 6.792,0 12.493,-1.455 16.495,-3.395 l 2.548,8.611 c -2.79,1.456 -9.219,3.639 -19.407,3.639 -25.35,0 -42.695,-17.345 -42.695,-42.938 0,-26.805 17.345,-41.36 40.39,-41.36 9.946,0 17.709,1.94 21.591,3.881 z" style="fill:none;stroke:#ffffff;stroke-width:1;stroke-linecap:butt;stroke-linejoin:miter;stroke-miterlimit:10;stroke-dasharray:none;stroke-opacity:1" transform="matrix(1.3333333,0,0,-1.3333333,1661.9467,3867.5604)" />
      <path id="path23" d="m 0,0 v -81.751 h 10.552 v 38.328 H 50.094 V -81.751 H 60.768 V 0 H 50.094 V -34.204 H 10.552 V 0 Z" style="fill:none;stroke:#ffffff;stroke-width:1;stroke-linecap:butt;stroke-linejoin:miter;stroke-miterlimit:10;stroke-dasharray:none;stroke-opacity:1" transform="matrix(1.3333333,0,0,-1.3333333,1698.6556,3773.2765)" />
      <path id="path24" d="m 0,0 c -4.245,-2.063 -10.795,-3.396 -17.224,-3.396 -19.891,0 -31.414,12.856 -31.414,32.87 0,21.468 12.736,33.718 31.9,33.718 6.792,0 12.493,-1.455 16.495,-3.395 l 2.548,8.611 c -2.79,1.456 -9.219,3.639 -19.407,3.639 -25.35,0 -42.695,-17.345 -42.695,-42.938 0,-26.805 17.345,-41.36 40.39,-41.36 9.946,0 17.709,1.94 21.591,3.881 z" style="fill:none;stroke:#ffffff;stroke-width:1;stroke-linecap:butt;stroke-linejoin:miter;stroke-miterlimit:10;stroke-dasharray:none;stroke-opacity:1" transform="matrix(1.3333333,0,0,-1.3333333,1893.5305,3867.5604)" />
      <path id="path25" d="m 0,0 c -21.833,0 -37.964,-16.98 -37.964,-42.938 0,-24.743 15.161,-41.481 36.751,-41.481 20.862,0 37.964,14.919 37.964,43.059 C 36.751,-17.102 22.318,0 0,0 Z m -0.485,-8.611 c 17.587,0 26.078,-16.982 26.078,-33.235 0,-18.557 -9.461,-33.962 -26.199,-33.962 -16.618,0 -26.079,15.647 -26.079,33.114 0,17.951 8.734,34.083 26.2,34.083 z" style="fill:none;stroke:#ffffff;stroke-width:1;stroke-linecap:butt;stroke-linejoin:miter;stroke-miterlimit:10;stroke-dasharray:none;stroke-opacity:1" transform="matrix(1.3333333,0,0,-1.3333333,1970.9948,3771.4979)" />
      <path id="path26" d="m 0,0 c -4.245,-2.063 -10.795,-3.396 -17.224,-3.396 -19.891,0 -31.414,12.856 -31.414,32.87 0,21.468 12.736,33.718 31.9,33.718 6.792,0 12.493,-1.455 16.495,-3.395 l 2.548,8.611 c -2.79,1.456 -9.219,3.639 -19.407,3.639 -25.35,0 -42.695,-17.345 -42.695,-42.938 0,-26.805 17.345,-41.36 40.39,-41.36 9.946,0 17.709,1.94 21.591,3.881 z" style="fill:none;stroke:#ffffff;stroke-width:1;stroke-linecap:butt;stroke-linejoin:miter;stroke-miterlimit:10;stroke-dasharray:none;stroke-opacity:1" transform="matrix(1.3333333,0,0,-1.3333333,2127.7037,3867.5604)" />
      <path id="path27" d="M 0,0 H 10.552 V 31.172 L 18.315,40.147 45.242,0 h 12.493 l -31.9,47.062 29.596,34.689 h -13.1 L 17.345,51.064 C 15.283,48.396 13.1,45.484 10.917,42.331 h -0.365 v 39.42 H 0 Z" style="fill:none;stroke:#ffffff;stroke-width:1;stroke-linecap:butt;stroke-linejoin:miter;stroke-miterlimit:10;stroke-dasharray:none;stroke-opacity:1" transform="matrix(1.3333333,0,0,-1.3333333,2164.4135,3882.2779)" />
      <path id="path28" d="m 0,0 c 4.367,-2.911 12.979,-5.216 20.862,-5.216 19.286,0 28.625,10.916 28.625,23.53 0,12.009 -7.035,18.68 -20.862,24.017 -11.28,4.366 -16.253,8.126 -16.253,15.768 0,5.58 4.245,12.251 15.404,12.251 7.399,0 12.857,-2.426 15.525,-3.882 l 2.911,8.612 C 42.574,77.142 36.509,79.082 28.14,79.082 12.25,79.082 1.698,69.621 1.698,56.886 1.698,45.363 9.946,38.449 23.288,33.719 34.326,29.474 38.692,25.107 38.692,17.466 38.692,9.218 32.385,3.518 21.59,3.518 14.313,3.518 7.399,5.943 2.668,8.854 Z" style="fill:none;stroke:#ffffff;stroke-width:1;stroke-linecap:butt;stroke-linejoin:miter;stroke-miterlimit:10;stroke-dasharray:none;stroke-opacity:1" transform="matrix(1.3333333,0,0,-1.3333333,2262.7389,3876.9405)" />
    </g></svg>