<?xml version='1.0' encoding='utf-8'?>
<svg xmlns="http://www.w3.org/2000/svg" version="1.1" width="344.798" height="451.328" viewBox="2641.940 171.400 344.798 451.328"><defs id="defs1"><clipPath clipPathUnits="userSpaceOnUse" id="clipPath4">
      <path d="M -2384.1568,2286.7354 H -0.21670001 V -1083.6547 H -2384.1568 Z" id="path4" />
    </clipPath>
    <clipPath clipPathUnits="userSpaceOnUse" id="clipPath6">
      <path d="M -2384.0266,1933.815 H -0.086575 v -3370.39 H -2384.0266 Z" id="path6" />
    </clipPath>
    <clipPath clipPathUnits="userSpaceOnUse" id="clipPath8">
      <path d="M -2384.1847,2520.3537 H -0.24460001 V -850.0364 H -2384.1847 Z" id="path8" />
    </clipPath>
    <clipPath clipPathUnits="userSpaceOnUse" id="clipPath10">
      <path d="M -1378.8652,3371.3417 H 1005.0749 V 0.95157502 h -2383.9401 z" id="path10" />
    </clipPath>
    <clipPath clipPathUnits="userSpaceOnUse" id="clipPath12">
      <path d="M -2383.8391,1819.185 H 0.100925 v -3370.39 H -2383.8391 Z" id="path12" />
    </clipPath>
    <clipPath clipPathUnits="userSpaceOnUse" id="clipPath14">
      <path d="M -2384.2639,1767.3618 H -0.32387501 V -1603.0283 H -2384.2639 Z" id="path14" />
    </clipPath>
  </defs><g id="object"><path id="path22" d="m 0,0 c -0.341,74.862 -0.658,149.723 -1.057,224.584 -0.042,7.846 -0.568,15.688 -0.87,23.532 0.68,20.606 2.203,41.231 1.747,61.811 -0.311,14.073 3.671,19.784 18.705,19.563 68.257,-1.006 136.538,-1.815 204.79,-1.022 21.548,0.25 20.87,-11.851 19.419,-25.844 -1.326,-12.797 8.211,-31.232 -19.122,-30.232 -42.815,1.565 -85.758,-0.727 -128.621,0.053 -17.846,0.325 -25.298,-3.632 -24.72,-23.666 1.408,-48.782 0.352,-48.838 48.403,-49.242 30.176,-0.255 60.443,-1.93 90.503,-0.159 25.039,1.474 21.435,-14.397 21.851,-29.264 0.415,-14.79 2.065,-28.049 -21.016,-27.042 -39.629,1.729 -79.407,-0.29 -119.097,0.524 -15.752,0.323 -19.889,-5.051 -19.992,-20.526 -0.412,-61.597 -0.968,-61.594 59.279,-62.027 31.764,-0.228 63.538,-1 95.289,-0.454 15.958,0.275 23.866,-4.785 21.702,-21.773 -0.796,-6.246 -0.701,-12.775 0.121,-19.025 C 249.248,5.077 243.38,0.953 228.711,1.005 152.476,1.275 76.237,0.446 0,0" style="fill:#9e998f;fill-opacity:1;fill-rule:nonzero;stroke:none" transform="matrix(1.3333333,0,0,-1.3333333,2650.5105,616.72867)" />
      </g></svg>