<?xml version='1.0' encoding='utf-8'?>
<svg xmlns="http://www.w3.org/2000/svg" version="1.1" width="1525.162" height="2968.420" viewBox="821.245 695.843 1525.162 2968.420"><g id="object"><path id="path3" d="m 0,0 c 49.205,52.317 94.342,100.314 139.484,148.305 16.396,17.43 30.945,37.238 49.612,51.748 33.512,26.049 36.135,56.058 27.305,95.433 -40.24,179.421 -67.299,361.356 -97.87,542.577 -7.903,46.841 -5.34,95.341 -9.566,143.045 -3.704,41.815 -13.205,81.731 -26.502,121.001 -5.794,17.108 -5.468,31.485 4.758,47.288 14.25,22.023 26.592,45.603 33.342,71.123 3.624,13.703 7.925,9.945 15.662,4.334 15.489,-11.234 23.06,-28.085 32.819,-43.541 34.579,-54.771 96.698,-66.299 148.868,-28.688 16.77,12.09 24.759,28.444 28.609,47.734 3.933,19.712 2.274,39.702 3.196,59.563 1.181,25.45 -6.632,43.728 -31.597,52.217 -11.866,4.035 -10.259,12.138 -7.924,21.142 5.818,22.438 10.926,44.987 8.425,68.454 -2.5,23.46 -47.16,53.998 -70.025,48.444 -9.988,-2.426 -7.465,-8.063 -5.454,-14.419 4.219,-13.329 8.25,-26.718 12.663,-41.076 -59.989,34.231 -102.764,86.33 -156.097,125.447 -7.713,5.657 -14.356,13.613 -22.885,17.171 -41.739,17.411 -57.346,54.328 -72.462,92.45 -5.408,13.638 2.774,21.319 9.161,29.727 39.86,52.481 40.668,144.595 1.116,196.51 -2.843,3.732 -6.544,6.989 -10.348,9.783 -55.038,40.436 -147.337,9.442 -165.343,-56.489 -7.314,-26.783 -11.084,-54.519 -19.212,-81.245 -6.152,-20.226 4.447,-36.172 20.77,-43.734 36.179,-16.762 38.48,-44.237 28.848,-79.979 -30.287,21.692 -69.21,12.728 -101.16,30.927 -27.283,15.541 -34.006,29.003 -22.364,57.994 5.292,13.179 13.55,25.172 20.535,37.662 2.333,4.17 5.804,7.925 7.206,12.359 14.18,44.848 34.573,83.416 74.985,112.996 26.747,19.578 21.148,38.461 -5.23,60.109 -33.726,27.677 -63.648,30.457 -100.315,7.922 -12.997,-7.988 -26.105,-11.007 -40.939,-8.9 -55.151,7.834 -109.779,19.169 -167.062,23.176 9.269,21.856 22.266,38.833 35.743,55.274 152.21,185.681 348.441,260.113 581.041,205.439 232.836,-54.73 380.342,-208.365 425.715,-443.932 42.553,-220.929 -35.134,-404.282 -208.302,-546.747 -12.753,-10.492 -15.583,-19.493 -13.155,-34.041 31.084,-186.214 61.928,-372.468 92.735,-558.727 32.755,-198.039 65.2,-396.13 98.455,-594.085 C 550.236,3.918 547.275,-0.582 528.28,-0.491 354.368,0.343 180.45,0 0,0" style="fill:#f9f7f7;fill-opacity:1;fill-rule:nonzero;stroke:none" transform="matrix(1.3333333,0,0,-1.3333333,1555.1453,3657.6052)" />
      <path id="path4" d="m 0,0 c 10.244,59.534 20.279,119.105 30.768,178.595 40.932,232.143 80.596,464.527 124.24,696.16 8.55,45.379 0.168,69.469 -37.572,99.041 -208.014,162.987 -271.424,440.958 -160.937,677.97 9.499,20.377 18.969,24.345 39.437,17.599 47.551,-15.67 95.887,-28.948 143.681,-43.913 5.404,-1.692 16.046,0.019 14.431,-11.604 -1.099,-7.91 -1.58,-16.173 -10.79,-19.651 -2.238,-0.845 -4.37,-2.307 -6.666,-2.611 -58.283,-7.719 -67.214,-54.836 -78.144,-99.305 -8.543,-34.76 -13.903,-70.297 -22.187,-105.13 -2.791,-11.735 -1.11,-18.813 7.833,-26.976 34.095,-31.122 66.724,-63.365 107.703,-86.544 44.855,-25.372 54.812,-55.266 40.446,-104.846 -6.212,-21.44 -6.018,-41.028 3.306,-62.395 22.256,-50.999 25.096,-106.644 33.953,-160.778 2.155,-13.174 -5.574,-23.088 -14.149,-31.576 -32.398,-32.072 -43.424,-71.261 -39.932,-115.643 1.53,-19.456 -2.352,-38.307 -9.427,-56.15 -10.805,-27.246 -15.118,-55.19 -12.414,-84.225 4.591,-49.288 -16.399,-96.526 -14.453,-144.563 3.065,-75.637 -14.001,-148.644 -19.868,-222.99 -3.13,-39.659 -5.026,-79.364 -6.948,-119.003 C 110.854,141.415 104.706,107.795 78.929,82.736 52.219,56.769 29.097,27.11 4.406,-0.935 2.937,-0.623 1.469,-0.312 0,0" style="fill:#f9f7f7;fill-opacity:1;fill-rule:nonzero;stroke:none" transform="matrix(1.3333333,0,0,-1.3333333,956.75013,3336.8043)" />
      </g></svg>