<?xml version='1.0' encoding='utf-8'?>
<svg xmlns="http://www.w3.org/2000/svg" version="1.1" width="197.709" height="44.615" viewBox="190.612 567.407 197.709 44.615"><g id="object"><path id="path68" d="m 1.4188984,-1.1126938 c 1.21875,0.8085938 3.609375,1.45312505 5.8125,1.45312505 5.3671876,0 7.9570316,-3.03515625 7.9570316,-6.55078125 0,-3.3398438 -1.957032,-5.203125 -5.8007816,-6.691406 -3.140625,-1.207032 -4.5234375,-2.261719 -4.5234375,-4.382813 0,-1.558594 1.1835938,-3.410156 4.2890625,-3.410156 2.0507816,0 3.5742186,0.679687 4.3242186,1.078125 l 0.808594,-2.390625 c -1.019531,-0.574219 -2.707031,-1.113281 -5.0390626,-1.113281 -4.4179687,0 -7.359375,2.625 -7.359375,6.175781 0,3.199219 2.296875,5.132812 6.0117188,6.445312 3.0703128,1.1835942 4.2890628,2.4023442 4.2890628,4.523438 0,2.296875 -1.757813,3.8789062 -4.7578128,3.8789062 -2.0273438,0 -3.9492188,-0.6679687 -5.2734375,-1.4765625 z M 25.993117,5.875e-4 29.239211,-11.847069 c 0.84375,-2.941406 1.347656,-5.167969 1.746094,-7.429687 h 0.07031 c 0.304688,2.296875 0.773438,4.523437 1.488281,7.429687 L 35.414992,5.875e-4 h 3.070313 l 6.445312,-22.7578125 h -3 l -3.011719,11.484375 c -0.703125,2.8359375 -1.347656,5.3671875 -1.816406,7.8632812 H 37.03218 C 36.692336,-5.8119125 36.082961,-8.507225 35.450148,-11.202538 l -2.777343,-11.554687 h -3.070313 l -3.035156,11.484375 c -0.773438,2.9296875 -1.488281,5.6367187 -1.851563,7.8984375 h -0.07031 c -0.410156,-2.1914063 -1.019531,-5.0273438 -1.6875,-7.8632815 L 20.25093,-22.757225 H 17.145461 L 22.922805,5.875e-4 Z m 37.643555,0 -7.089844,-11.6835935 6.925781,-11.074219 h -3.375 l -3.117187,5.332031 c -0.84375,1.453125 -1.417969,2.507813 -2.050781,3.855469 h -0.105469 c -0.609375,-1.21875 -1.253906,-2.367188 -2.097656,-3.855469 l -3,-5.332031 h -3.410157 l 6.691407,11.25 -6.960938,11.5078125 h 3.375 L 52.152297,-4.9916 c 1.183594,-1.9921875 1.828125,-3.2109375 2.472656,-4.5234375 h 0.07031 c 0.703125,1.3125 1.441406,2.5664062 2.625,4.4882812 l 2.90625,5.0273438 z m 9.919922,-21.9492185 v 2.472656 h 10.734375 v 0.05859 L 74.775344,5.875e-4 h 3.070312 L 87.396437,-19.9916 v -1.957031 z M 94.284133,5.875e-4 V -9.725975 c 0,-3.773438 -0.07031,-6.515625 -0.234375,-9.386719 l 0.105469,-0.03516 c 1.148437,2.472656 2.660156,5.074219 4.253906,7.605469 L 105.62788,5.875e-4 h 2.97657 V -22.757225 h -2.77735 v 9.527344 c 0,3.5390622 0.0703,6.3046872 0.33985,9.3515622 l -0.0586,0.035156 c -1.08984,-2.3320313 -2.40234,-4.734375 -4.08984,-7.3945312 L 94.729445,-22.757225 H 91.518508 V 5.875e-4 Z m 26.232417,0 3.2461,-11.8476565 c 0.84375,-2.941406 1.34765,-5.167969 1.74609,-7.429687 h 0.0703 c 0.30469,2.296875 0.77344,4.523437 1.48829,7.429687 l 2.87109,11.8476565 h 3.07031 l 6.44531,-22.7578125 h -3 l -3.01171,11.484375 c -0.70313,2.8359375 -1.34766,5.3671875 -1.81641,7.8632812 h -0.0703 c -0.33985,-2.4023437 -0.94922,-5.0976562 -1.58203,-7.7929692 l -2.77735,-11.554687 h -3.07031 l -3.03516,11.484375 c -0.77343,2.9296875 -1.48828,5.6367187 -1.85156,7.8984375 h -0.0703 c -0.41016,-2.1914063 -1.01953,-5.0273438 -1.6875,-7.8632815 l -2.70703,-11.519531 h -3.10547 l 5.77734,22.7578125 z m 0,0" style="fill:#231916;fill-opacity:1;fill-rule:nonzero;stroke:none" aria-label="SWX 7NW" transform="matrix(1.3333333,0,0,1.3333333,195.50267,604.90547)" />
      <path id="path69" d="m 0,0 c 1.215,-0.81 3.612,-1.451 5.806,-1.451 5.368,0 7.967,3.038 7.967,6.549 0,3.341 -1.958,5.198 -5.806,6.684 -3.14,1.215 -4.524,2.261 -4.524,4.388 0,1.553 1.182,3.41 4.288,3.41 2.059,0 3.578,-0.675 4.321,-1.08 l 0.81,2.396 c -1.013,0.574 -2.701,1.114 -5.03,1.114 -4.422,0 -7.359,-2.633 -7.359,-6.177 0,-3.208 2.295,-5.131 6.009,-6.448 3.071,-1.181 4.287,-2.397 4.287,-4.524 0,-2.295 -1.756,-3.882 -4.76,-3.882 -2.026,0 -3.95,0.675 -5.266,1.485 z" style="fill:none;stroke:#231916;stroke-width:1;stroke-linecap:butt;stroke-linejoin:miter;stroke-miterlimit:10;stroke-dasharray:none;stroke-opacity:1" transform="matrix(1.3333333,0,0,-1.3333333,197.39293,603.4204)" />
      <path id="path70" d="m 0,0 3.241,11.849 c 0.844,2.937 1.35,5.165 1.755,7.427 H 5.064 C 5.368,16.98 5.84,14.752 6.549,11.849 L 9.418,0 h 3.072 l 6.448,22.753 H 15.934 L 12.929,11.275 C 12.22,8.439 11.579,5.908 11.106,3.41 H 11.039 C 10.701,5.806 10.094,8.507 9.452,11.208 L 6.684,22.753 H 3.612 L 0.574,11.275 C -0.202,8.338 -0.911,5.638 -1.283,3.376 H -1.35 c -0.405,2.194 -1.013,5.03 -1.688,7.865 L -5.739,22.753 H -8.844 L -3.072,0 Z" style="fill:none;stroke:#231916;stroke-width:1;stroke-linecap:butt;stroke-linejoin:miter;stroke-miterlimit:10;stroke-dasharray:none;stroke-opacity:1" transform="matrix(1.3333333,0,0,-1.3333333,230.16013,604.90547)" />
      <path id="path71" d="m 0,0 -7.089,11.68 6.92,11.073 H -3.545 L -6.65,17.419 c -0.844,-1.452 -1.418,-2.498 -2.059,-3.848 h -0.102 c -0.607,1.215 -1.249,2.363 -2.093,3.848 l -3.004,5.334 h -3.41 L -10.634,11.511 -17.588,0 h 3.376 l 2.734,4.996 c 1.182,1.992 1.823,3.207 2.464,4.524 h 0.068 C -8.237,8.203 -7.494,6.954 -6.313,5.03 L -3.41,0 Z" style="fill:none;stroke:#231916;stroke-width:1;stroke-linecap:butt;stroke-linejoin:miter;stroke-miterlimit:10;stroke-dasharray:none;stroke-opacity:1" transform="matrix(1.3333333,0,0,-1.3333333,280.34667,604.90547)" />
      <path id="path72" d="m 0,0 v -2.464 h 10.735 v -0.068 l -9.52,-19.41 H 4.287 L 13.84,-1.958 V 0 Z" style="fill:none;stroke:#231916;stroke-width:1;stroke-linecap:butt;stroke-linejoin:miter;stroke-miterlimit:10;stroke-dasharray:none;stroke-opacity:1" transform="matrix(1.3333333,0,0,-1.3333333,293.57907,575.64893)" />
      <path id="path73" d="m 0,0 v 9.722 c 0,3.781 -0.067,6.515 -0.236,9.385 l 0.101,0.034 C 1.013,16.676 2.532,14.077 4.119,11.545 L 11.343,0 h 2.97 v 22.753 h -2.768 v -9.52 c 0,-3.545 0.068,-6.313 0.338,-9.351 L 11.815,3.848 c -1.08,2.33 -2.397,4.727 -4.084,7.393 L 0.439,22.753 H -2.768 V 0 Z" style="fill:none;stroke:#231916;stroke-width:1;stroke-linecap:butt;stroke-linejoin:miter;stroke-miterlimit:10;stroke-dasharray:none;stroke-opacity:1" transform="matrix(1.3333333,0,0,-1.3333333,321.21453,604.90547)" />
      <path id="path74" d="m 0,0 3.241,11.849 c 0.843,2.937 1.35,5.165 1.755,7.427 H 5.063 C 5.367,16.98 5.84,14.752 6.549,11.849 L 9.418,0 h 3.072 l 6.448,22.753 H 15.934 L 12.929,11.275 C 12.22,8.439 11.579,5.908 11.106,3.41 H 11.039 C 10.701,5.806 10.093,8.507 9.452,11.208 L 6.684,22.753 H 3.612 L 0.574,11.275 C -0.203,8.338 -0.912,5.638 -1.283,3.376 h -0.068 c -0.404,2.194 -1.012,5.03 -1.688,7.865 l -2.7,11.512 H -8.845 L -3.072,0 Z" style="fill:none;stroke:#231916;stroke-width:1;stroke-linecap:butt;stroke-linejoin:miter;stroke-miterlimit:10;stroke-dasharray:none;stroke-opacity:1" transform="matrix(1.3333333,0,0,-1.3333333,356.18787,604.90547)" />
      </g></svg>