<?xml version='1.0' encoding='utf-8'?>
<svg xmlns="http://www.w3.org/2000/svg" version="1.1" width="664.531" height="127.078" viewBox="360.797 3535.440 664.531 127.078"><g id="object"><path id="path6" d="M 50.7642,-25.382194 59.377481,6.1875e-4 H 70.510294 L 42.98295,-80.694694 H 30.408731 L 2.9868562,6.1875e-4 H 13.768106 L 22.147013,-25.382194 Z M 24.303263,-33.515006 32.2017,-56.870475 c 1.558594,-4.898438 2.871094,-9.808594 4.066406,-14.601563 H 36.5142 c 1.195313,4.664063 2.390625,9.457032 4.183594,14.730469 l 7.910156,23.226563 z M 76.858927,6.1875e-4 H 87.394083 V -84.995475 H 76.858927 Z M 93.1392,-57.9486 115.17045,6.1875e-4 h 10.05469 L 147.97123,-57.9486 h -11.01562 l -11.25,32.566406 c -1.92188,5.273438 -3.59766,10.054688 -4.91016,14.847656 h -0.36328 c -1.19531,-4.792968 -2.75391,-9.574218 -4.66406,-14.847656 L 104.3892,-57.9486 Z M 194.29838,6.1875e-4 C 193.58354,-3.9486 193.33744,-8.8587563 193.33744,-13.8861 v -21.667969 c 0,-11.613281 -4.3125,-23.707031 -22.03125,-23.707031 -7.30078,0 -14.23828,2.039062 -19.03125,5.144531 l 2.39063,6.949219 c 4.07812,-2.636719 9.70312,-4.3125 15.09375,-4.3125 11.84765,0 13.16015,8.625 13.16015,13.40625 v 1.195312 c -22.38281,-0.117187 -34.82812,7.546875 -34.82812,21.550782 0,8.378906 5.97656,16.6406247 17.71875,16.6406247 8.25,0 14.48437,-4.0664062 17.70703,-8.6132812 h 0.36328 l 0.84375,7.30078125 z M 183.16557,-19.5111 c 0,1.078125 -0.2461,2.273437 -0.59766,3.351562 -1.67578,4.910157 -6.46875,9.6914067 -14.01562,9.6914067 -5.37891,0 -9.92579,-3.2226562 -9.92579,-10.0546877 0,-11.25 13.04297,-13.289062 24.53907,-13.042969 z M 205.55424,6.1875e-4 h 10.41797 V -30.890006 c 0,-1.792969 0.23437,-3.46875 0.46875,-4.910157 1.4414,-7.898437 6.71484,-13.523437 14.13281,-13.523437 1.44141,0 2.50781,0.117187 3.58594,0.363281 v -9.9375 c -0.94922,-0.246094 -1.79297,-0.363281 -2.98828,-0.363281 -7.06641,0 -13.40625,4.910156 -16.04297,12.691406 h -0.48047 L 214.29643,-57.9486 h -9.22266 c 0.36328,5.390625 0.48047,11.261719 0.48047,18.082031 z M 302.5269,-25.382194 311.14018,6.1875e-4 h 11.13281 L 294.74565,-80.694694 H 282.17143 L 254.74955,6.1875e-4 h 10.78125 l 8.37891,-25.38281275 z m -26.46094,-8.132812 7.89844,-23.355469 c 1.55859,-4.898438 2.87109,-9.808594 4.0664,-14.601563 h 0.2461 c 1.19531,4.664063 2.39062,9.457032 4.18359,14.730469 l 7.91016,23.226563 z M 371.11674,6.1875e-4 C 370.4019,-3.9486 370.1558,-8.8587563 370.1558,-13.8861 v -21.667969 c 0,-11.613281 -4.3125,-23.707031 -22.03125,-23.707031 -7.30078,0 -14.23828,2.039062 -19.03125,5.144531 l 2.39063,6.949219 c 4.07812,-2.636719 9.70312,-4.3125 15.09375,-4.3125 11.84765,0 13.16015,8.625 13.16015,13.40625 v 1.195312 c -22.38281,-0.117187 -34.82812,7.546875 -34.82812,21.550782 0,8.378906 5.97656,16.6406247 17.71875,16.6406247 8.25,0 14.48437,-4.0664062 17.70703,-8.6132812 h 0.36328 l 0.84375,7.30078125 z M 359.98393,-19.5111 c 0,1.078125 -0.2461,2.273437 -0.59766,3.351562 -1.67578,4.910157 -6.46875,9.6914067 -14.01562,9.6914067 -5.37891,0 -9.92579,-3.2226562 -9.92579,-10.0546877 0,-11.25 13.04297,-13.289062 24.53907,-13.042969 z M 382.3726,6.1875e-4 h 10.53515 V -84.995475 H 382.3726 Z M 408.22709,-71.835319 V -57.9486 h -8.97656 v 8.027344 h 8.97656 v 31.605468 c 0,6.820313 1.07813,11.976563 4.06641,15.0820317 2.51953,2.8710938 6.46875,4.4296875 11.3789,4.4296875 4.06641,0 7.30078,-0.5976562 9.33985,-1.42968745 l -0.48047,-7.91015625 c -1.3125,0.3632812 -3.35156,0.7265625 -6.10547,0.7265625 -5.87109,0 -7.89844,-4.078125 -7.89844,-11.261719 V -49.921256 H 433.6099 V -57.9486 h -15.08203 v -16.640625 z m 56.26758,12.574219 c -16.04297,0 -28.73438,11.378906 -28.73438,30.773437 0,18.316407 12.09375,29.8007817 27.77344,29.8007817 14.01563,0 28.85156,-9.328125 28.85156,-30.7617187 0,-17.71875 -11.25,-29.8125 -27.89062,-29.8125 z m -0.23438,7.898437 c 12.44532,0 17.35547,12.457032 17.35547,22.277344 0,13.042969 -7.54687,22.5000002 -17.60156,22.5000002 -10.28906,0 -17.60156,-9.5742192 -17.60156,-22.2656252 0,-11.015625 5.39062,-22.511719 17.84765,-22.511719 z m 0,0" style="fill:#ffffff;fill-opacity:1;fill-rule:nonzero;stroke:none" aria-label="Alvar Aalto" transform="matrix(1.3333333,0,0,1.3333333,362.8144,3654.7648)" />
      </g></svg>