<?xml version='1.0' encoding='utf-8'?>
<svg xmlns="http://www.w3.org/2000/svg" version="1.1" width="438.859" height="161.809" viewBox="288.621 4095.920 438.859 161.809"><defs id="defs1"><clipPath clipPathUnits="userSpaceOnUse" id="clipPath4">
      <path d="M -1519.8112,1342.3302 H 864.12885 V -2028.0599 H -1519.8112 Z" id="path4" />
    </clipPath>
  </defs><g id="object"><path id="path43" d="m 7.3486328,-4e-4 h 3.1640622 v -21.597656 h 7.417969 v -2.671875 H -0.03417969 v 2.671875 H 7.3486328 Z M 25.342773,-17.824619 c -4.828125,0 -8.636718,3.421875 -8.636718,9.2578127 0,5.5078125 3.632812,8.9648438 8.34375,8.9648438 4.21875,0 8.683593,-2.8125 8.683593,-9.2578125 0,-5.320313 -3.386718,-8.964844 -8.390625,-8.964844 z m -0.07031,2.378906 c 3.738281,0 5.214844,3.75 5.214844,6.7031255 0,3.9140625 -2.261719,6.7617187 -5.285157,6.7617187 -3.09375,0 -5.296875,-2.8828125 -5.296875,-6.6914062 0,-3.316406 1.617188,-6.773438 5.367188,-6.773438 z m 13.177734,-6.152343 v 4.171875 h -2.707031 v 2.414062 h 2.707031 v 9.5039065 c 0,2.0507812 0.316407,3.5976562 1.21875,4.53515625 0.761719,0.8671875 1.945313,1.3359375 3.421875,1.3359375 1.21875,0 2.191407,-0.1875 2.8125,-0.43359375 l -0.152343,-2.3789063 c -0.386719,0.1054688 -1.007813,0.2226563 -1.828125,0.2226563 -1.769532,0 -2.378907,-1.2304688 -2.378907,-3.3867188 v -9.3984377 h 4.535157 v -2.414062 h -4.535157 v -5.003907 z M 62.168945,-4e-4 c -0.210937,-1.1835938 -0.28125,-2.6601563 -0.28125,-4.171875 V -10.6879 c 0,-3.492188 -1.300781,-7.136719 -6.632812,-7.136719 -2.191406,0 -4.277344,0.621094 -5.71875,1.546875 l 0.714844,2.097656 c 1.230468,-0.796875 2.917968,-1.300781 4.546875,-1.300781 3.5625,0 3.949218,2.589844 3.949218,4.03125 v 0.363281 c -6.726562,-0.03516 -10.464843,2.2617192 -10.464843,6.4804692 0,2.5195313 1.792968,5.0039063 5.320312,5.0039063 2.484375,0 4.359375,-1.23046875 5.332031,-2.5898438 h 0.105469 L 59.297852,-4e-4 Z m -3.339843,-5.8710938 c 0,0.328125 -0.08203,0.6914063 -0.1875,1.0078125 -0.503907,1.4765625 -1.945313,2.9179688 -4.207032,2.9179688 -1.617187,0 -2.988281,-0.9726563 -2.988281,-3.0234375 0,-3.3867188 3.925781,-3.9960938 7.382813,-3.9257813 z M 66.994141,-4e-4 h 3.175781 v -25.558594 h -3.175781 z m 8.496093,0 h 3.175782 v -25.558594 h -3.175782 z m 6.199219,-17.425781 6.445313,16.0546872 c 0.140625,0.39843755 0.210937,0.65625005 0.210937,0.8320313 0,0.17578125 -0.105469,0.43359375 -0.257812,0.75 -0.714844,1.6289062 -1.792969,2.8476562 -2.660157,3.5273437 -0.9375,0.796875 -1.980468,1.3007813 -2.765625,1.5585938 l 0.785157,2.6601562 c 0.796875,-0.140625 2.34375,-0.6796875 3.890625,-2.0507812 2.15625,-1.875 3.703125,-4.93359375 5.976562,-10.9101563 l 4.746094,-12.4218747 h -3.339844 l -3.457031,10.2304685 c -0.433594,1.2539062 -0.796875,2.5898437 -1.113281,3.6328125 h -0.08203 c -0.28125,-1.0429688 -0.714843,-2.4140625 -1.113281,-3.5625 l -3.808594,-10.300781 z m 26.953127,-6.84375 v 14.2968747 c 0,7.5234375 3.75,10.3710938 8.71875,10.3710938 5.25,0 9.17578,-3.0585938 9.17578,-10.5117185 v -14.15625 h -3.16406 v 14.3671872 c 0,5.3671875 -2.3086,7.7460938 -5.90625,7.7460938 -3.23438,0 -5.64844,-2.3085938 -5.64844,-7.7460938 V -24.269931 Z M 131.86621,-4e-4 h 3.17578 v -10.476563 c 0,-0.539062 0.0703,-1.078125 0.21094,-1.476562 0.53906,-1.757813 2.15625,-3.234375 4.25391,-3.234375 2.97656,0 4.03125,2.332031 4.03125,5.144531 V -4e-4 h 3.16406 v -10.40625 c 0,-5.976563 -3.75,-7.417969 -6.15235,-7.417969 -2.88281,0 -4.89843,1.628906 -5.76562,3.28125 h -0.0703 l -0.17578,-2.882812 h -2.8125 c 0.10546,1.441406 0.14062,2.917968 0.14062,4.722656 z m 27.36035,-17.824219 c -4.82812,0 -8.63672,3.421875 -8.63672,9.2578127 0,5.5078125 3.63282,8.9648438 8.34375,8.9648438 4.21875,0 8.6836,-2.8125 8.6836,-9.2578125 0,-5.320313 -3.38672,-8.964844 -8.39063,-8.964844 z m -0.0703,2.378906 c 3.73828,0 5.21484,3.75 5.21484,6.7031255 0,3.9140625 -2.26171,6.7617187 -5.28515,6.7617187 -3.09375,0 -5.29688,-2.8828125 -5.29688,-6.6914062 0,-3.316406 1.61719,-6.773438 5.36719,-6.773438 z M 171.61035,-4e-4 h 3.09375 v -10.511719 c 0,-0.539062 0.082,-1.078125 0.25781,-1.546875 0.50391,-1.582031 1.94532,-3.164062 3.92579,-3.164062 2.41406,0 3.63281,2.015625 3.63281,4.78125 V -4e-4 h 3.09375 v -10.769531 c 0,-0.574219 0.10547,-1.148438 0.25781,-1.582032 0.53906,-1.546875 1.94531,-2.871093 3.73828,-2.871093 2.55469,0 3.78516,2.015625 3.78516,5.3554685 V -4e-4 h 3.09375 v -10.265625 c 0,-6.046875 -3.42188,-7.558594 -5.71875,-7.558594 -1.66406,0 -2.8125,0.433594 -3.85547,1.230469 -0.72656,0.539062 -1.40625,1.289062 -1.94531,2.261719 h -0.0703 c -0.76171,-2.050782 -2.55468,-3.492188 -4.93359,-3.492188 -2.88281,0 -4.5,1.546875 -5.47266,3.210938 h -0.10546 l -0.14063,-2.8125 h -2.77734 c 0.10547,1.441406 0.14062,2.917968 0.14062,4.722656 z m 41.90625,-3.0234375 c -0.90234,0.3984375 -2.08594,0.8671875 -3.89062,0.8671875 -3.45703,0 -6.04688,-2.484375 -6.04688,-6.515625 0,-3.644531 2.15625,-6.597656 6.15235,-6.597656 1.73437,0 2.91796,0.398437 3.67968,0.832031 l 0.71485,-2.449219 c -0.85547,-0.433594 -2.51953,-0.902344 -4.39453,-0.902344 -5.6836,0 -9.35157,3.890625 -9.35157,9.257813 0,5.3320312 3.42188,8.89453125 8.67188,8.89453125 2.34375,0 4.17187,-0.57421875 5.0039,-1.0078125 z M 220.9375,-4e-4 v -17.425781 h -3.17578 V -4e-4 Z m -1.59375,-24.304688 c -1.14844,0 -1.98047,0.867188 -1.98047,1.980469 0,1.089844 0.79688,1.945313 1.91016,1.945313 1.26562,0 2.05078,-0.855469 2.01562,-1.945313 0,-1.113281 -0.75,-1.980469 -1.94531,-1.980469 z m 18.72363,-1.253906 v 10.40625 h -0.0703 c -0.79687,-1.40625 -2.58984,-2.671875 -5.26172,-2.671875 -4.24219,0 -7.83984,3.5625 -7.80469,9.3632815 0,5.296875 3.23438,8.859375 7.45313,8.859375 2.83594,0 4.96875,-1.4765625 5.94141,-3.421875 h 0.0703 L 238.53613,-4e-4 h 2.84766 c -0.11719,-1.1835938 -0.15234,-2.953125 -0.15234,-4.5 v -21.058594 z m 0,18.246094 c 0,0.5039062 -0.0352,0.9375 -0.14062,1.3710937 -0.57422,2.3789063 -2.51953,3.7851563 -4.65235,3.7851563 -3.41015,0 -5.14453,-2.9179688 -5.14453,-6.4453125 0,-3.8554685 1.94532,-6.7382815 5.22657,-6.7382815 2.36718,0 4.10156,1.664063 4.57031,3.679688 0.10547,0.386718 0.14062,0.9375 0.14062,1.324218 z M 2.7314453,43.130459 c 1.0546875,0.140625 2.7070313,0.28125 4.8632813,0.28125 3.9609374,0 6.7031254,-0.714843 8.3906254,-2.261718 1.21875,-1.183594 2.050781,-2.777344 2.050781,-4.863282 0,-3.597656 -2.695313,-5.507812 -5.003906,-6.082031 v -0.07031 c 2.554687,-0.9375 4.101562,-2.988282 4.101562,-5.332032 0,-1.910156 -0.75,-3.339843 -2.015625,-4.277343 -1.511719,-1.230469 -3.527344,-1.769532 -6.6562499,-1.769532 -2.1914063,0 -4.359375,0.222657 -5.7304688,0.503907 z m 3.140625,-21.75 c 0.5039063,-0.105468 1.3242188,-0.210937 2.765625,-0.210937 3.1757817,0 5.3320317,1.113281 5.3320317,3.960937 0,2.34375 -1.945313,4.066407 -5.2617192,4.066407 H 5.8720703 Z m 0,10.195313 h 2.5898438 c 3.4218749,0 6.2578129,1.359375 6.2578129,4.675781 0,3.527344 -2.988282,4.722656 -6.2226567,4.722656 -1.1132812,0 -2.015625,-0.04687 -2.625,-0.152343 z m 30.4130857,3.492187 c 0.03516,-0.328125 0.105469,-0.832031 0.105469,-1.476562 0,-3.210938 -1.511719,-8.214844 -7.195312,-8.214844 -5.074219,0 -8.167969,4.148438 -8.167969,9.398438 0,5.261718 3.199219,8.789062 8.566406,8.789062 2.765625,0 4.675781,-0.574219 5.789063,-1.078125 L 34.84375,40.212491 c -1.183594,0.503906 -2.554687,0.902343 -4.816406,0.902343 -3.175781,0 -5.90625,-1.769531 -5.976563,-6.046875 z M 24.085938,32.794522 c 0.246093,-2.191406 1.652343,-5.144531 4.863281,-5.144531 3.5625,0 4.417969,3.128906 4.382812,5.144531 z m 15.011718,9.574219 c 1.21875,0.726562 2.988282,1.195312 4.898438,1.195312 4.136719,0 6.515625,-2.167969 6.515625,-5.226562 0,-2.589844 -1.546875,-4.101563 -4.582031,-5.25 C 43.667969,32.220303 42.625,31.575772 42.625,30.134366 c 0,-1.300782 1.042969,-2.378907 2.917969,-2.378907 1.617187,0 2.871094,0.574219 3.5625,1.007813 l 0.785156,-2.296875 c -0.972656,-0.585938 -2.519531,-1.089844 -4.277344,-1.089844 -3.75,0 -6.011718,2.308594 -6.011718,5.121094 0,2.085937 1.476562,3.808594 4.605468,4.921875 2.34375,0.867187 3.246094,1.699219 3.246094,3.210937 0,1.441407 -1.089844,2.589844 -3.386719,2.589844 -1.582031,0 -3.246093,-0.644531 -4.183593,-1.253906 z M 55.298828,21.603116 v 4.171875 h -2.707031 v 2.414062 h 2.707031 v 9.503906 c 0,2.050782 0.316406,3.597657 1.21875,4.535157 0.761719,0.867187 1.945313,1.335937 3.421875,1.335937 1.21875,0 2.191406,-0.1875 2.8125,-0.433594 l -0.152344,-2.378906 c -0.386718,0.105469 -1.007812,0.222656 -1.828125,0.222656 -1.769531,0 -2.378906,-1.230468 -2.378906,-3.386718 v -9.398438 h 4.535156 v -2.414062 h -4.535156 v -5.003907 z m 18.928711,21.597656 h 3.140625 v -9.714844 c 0.714844,0.175781 1.582031,0.210938 2.519531,0.210938 3.058594,0 5.753907,-0.902344 7.417969,-2.660157 1.21875,-1.265625 1.863281,-2.988281 1.863281,-5.191406 0,-2.15625 -0.785156,-3.925781 -2.121093,-5.074219 -1.441407,-1.289062 -3.703125,-2.015625 -6.808594,-2.015625 -2.519531,0 -4.5,0.222657 -6.011719,0.46875 z m 3.140625,-21.703125 c 0.539063,-0.152344 1.582031,-0.257813 2.953125,-0.257813 3.457031,0 5.71875,1.546875 5.71875,4.757813 0,3.339844 -2.308594,5.179687 -6.082031,5.179687 -1.042969,0 -1.910156,-0.07031 -2.589844,-0.257812 z M 95.87207,43.200772 V 25.774991 H 92.696289 V 43.200772 Z M 94.27832,18.896084 c -1.148437,0 -1.980468,0.867188 -1.980468,1.980469 0,1.089844 0.796875,1.945313 1.910156,1.945313 1.265625,0 2.050781,-0.855469 2.015625,-1.945313 0,-1.113281 -0.75,-1.980469 -1.945313,-1.980469 z m 18.72656,21.28125 c -0.90234,0.398438 -2.08593,0.867188 -3.89062,0.867188 -3.45703,0 -6.04688,-2.484375 -6.04688,-6.515625 0,-3.644531 2.15625,-6.597656 6.15235,-6.597656 1.73437,0 2.91797,0.398437 3.67968,0.832031 l 0.71485,-2.449219 c -0.85547,-0.433594 -2.51953,-0.902344 -4.39453,-0.902344 -5.6836,0 -9.351566,3.890625 -9.351566,9.257813 0,5.332031 3.421876,8.894531 8.671876,8.894531 2.34375,0 4.17187,-0.574219 5.00391,-1.007812 z m 5.43457,-18.574218 v 4.171875 h -2.70703 v 2.414062 h 2.70703 v 9.503906 c 0,2.050782 0.31641,3.597657 1.21875,4.535157 0.76172,0.867187 1.94532,1.335937 3.42188,1.335937 1.21875,0 2.1914,-0.1875 2.8125,-0.433594 l -0.15235,-2.378906 c -0.38671,0.105469 -1.00781,0.222656 -1.82812,0.222656 -1.76953,0 -2.37891,-1.230468 -2.37891,-3.386718 v -9.398438 h 4.53516 v -2.414062 h -4.53516 v -5.003907 z m 25.76953,4.171875 h -3.16406 v 10.699218 c 0,0.574219 -0.10547,1.148438 -0.28125,1.617188 -0.58594,1.40625 -2.0625,2.882812 -4.18359,2.882812 -2.88281,0 -3.89063,-2.238281 -3.89063,-5.554687 v -9.644531 h -3.16406 v 10.195312 c 0,6.117188 3.28125,7.628906 6.01172,7.628906 3.09375,0 4.93359,-1.839843 5.76562,-3.246093 h 0.0703 l 0.17578,2.847656 h 2.8125 c -0.11719,-1.371094 -0.15235,-2.953125 -0.15235,-4.757813 z m 5.25586,17.425781 h 3.14063 v -9.292969 c 0,-0.539062 0.0703,-1.042969 0.14062,-1.476562 0.4336,-2.367188 2.01563,-4.066407 4.24219,-4.066407 0.4336,0 0.76172,0.03516 1.07813,0.117188 v -2.988281 c -0.28125,-0.08203 -0.53907,-0.117188 -0.89063,-0.117188 -2.13281,0 -4.03125,1.476563 -4.82812,3.820313 h -0.14063 l -0.10547,-3.421875 h -2.77734 c 0.10547,1.617187 0.14062,3.386718 0.14062,5.4375 z m 25.41504,-8.132813 c 0.0352,-0.328125 0.10547,-0.832031 0.10547,-1.476562 0,-3.210938 -1.51172,-8.214844 -7.19531,-8.214844 -5.07422,0 -8.16797,4.148438 -8.16797,9.398438 0,5.261718 3.19922,8.789062 8.56641,8.789062 2.76562,0 4.67578,-0.574219 5.78906,-1.078125 l -0.53906,-2.273437 c -1.1836,0.503906 -2.55469,0.902343 -4.81641,0.902343 -3.17578,0 -5.90625,-1.769531 -5.97656,-6.046875 z m -12.19922,-2.273437 c 0.2461,-2.191406 1.65235,-5.144531 4.86329,-5.144531 3.5625,0 4.41796,3.128906 4.38281,5.144531 z m 26.92383,10.40625 V 32.829678 c 0,-4.03125 -0.0703,-6.949219 -0.24609,-10.007812 l 0.10547,-0.03516 c 1.23047,2.625 2.84765,5.402344 4.53515,8.097657 l 7.71094,12.316406 h 3.16406 V 18.931241 h -2.95312 v 10.160156 c 0,3.773437 0.0703,6.726562 0.36328,9.972656 l -0.0703,0.03516 c -1.16016,-2.484375 -2.56641,-5.039062 -4.35938,-7.886718 l -7.78125,-12.28125 h -3.42187 v 24.269531 z m 28.01074,-17.824219 c -4.82812,0 -8.63671,3.421875 -8.63671,9.257813 0,5.507812 3.63281,8.964843 8.34375,8.964843 4.21875,0 8.68359,-2.8125 8.68359,-9.257812 0,-5.320313 -3.38672,-8.964844 -8.39063,-8.964844 z m -0.0703,2.378906 c 3.73828,0 5.21485,3.75 5.21485,6.703125 0,3.914063 -2.26172,6.761719 -5.28516,6.761719 -3.09375,0 -5.29688,-2.882812 -5.29688,-6.691406 0,-3.316406 1.61719,-6.773438 5.36719,-6.773438 z m 12.45117,15.445313 h 3.09375 V 32.689053 c 0,-0.539062 0.082,-1.078125 0.25782,-1.546875 0.5039,-1.582031 1.94531,-3.164062 3.92578,-3.164062 2.41406,0 3.63281,2.015625 3.63281,4.78125 V 43.200772 H 244 V 32.431241 c 0,-0.574219 0.10547,-1.148438 0.25781,-1.582032 0.53907,-1.546875 1.94532,-2.871093 3.73828,-2.871093 2.55469,0 3.78516,2.015625 3.78516,5.355468 v 9.867188 H 254.875 V 32.935147 c 0,-6.046875 -3.42187,-7.558594 -5.71875,-7.558594 -1.66406,0 -2.8125,0.433594 -3.85547,1.230469 -0.72656,0.539062 -1.40625,1.289062 -1.94531,2.261719 h -0.0703 c -0.76172,-2.050782 -2.55469,-3.492188 -4.9336,-3.492188 -2.88281,0 -4.5,1.546875 -5.47265,3.210938 h -0.10547 l -0.14063,-2.8125 h -2.77734 c 0.10547,1.441406 0.14062,2.917968 0.14062,4.722656 z m 33.20215,0 V 25.774991 h -3.17578 V 43.200772 Z M 261.6045,18.896084 c -1.14844,0 -1.98047,0.867188 -1.98047,1.980469 0,1.089844 0.79688,1.945313 1.91016,1.945313 1.26562,0 2.05078,-0.855469 2.01562,-1.945313 0,-1.113281 -0.75,-1.980469 -1.94531,-1.980469 z m 6.84082,24.304688 h 3.17578 V 32.724209 c 0,-0.539062 0.0703,-1.078125 0.21094,-1.476562 0.53906,-1.757813 2.15625,-3.234375 4.25391,-3.234375 2.97656,0 4.03125,2.332031 4.03125,5.144531 v 10.042969 h 3.16406 v -10.40625 c 0,-5.976563 -3.75,-7.417969 -6.15234,-7.417969 -2.88282,0 -4.89844,1.628906 -5.76563,3.28125 h -0.0703 l -0.17578,-2.882812 h -2.8125 c 0.10547,1.441406 0.14062,2.917968 0.14062,4.722656 z m 31.86328,-3.023438 c -0.90234,0.398438 -2.08593,0.867188 -3.89062,0.867188 -3.45703,0 -6.04688,-2.484375 -6.04688,-6.515625 0,-3.644531 2.15625,-6.597656 6.15235,-6.597656 1.73437,0 2.91797,0.398437 3.67968,0.832031 l 0.71485,-2.449219 c -0.85547,-0.433594 -2.51953,-0.902344 -4.39453,-0.902344 -5.6836,0 -9.35157,3.890625 -9.35157,9.257813 0,5.332031 3.42188,8.894531 8.67188,8.894531 2.34375,0 4.17187,-0.574219 5.00391,-1.007812 z m 11.41114,-14.800781 c -4.82813,0 -8.63672,3.421875 -8.63672,9.257813 0,5.507812 3.63281,8.964843 8.34375,8.964843 4.21875,0 8.68359,-2.8125 8.68359,-9.257812 0,-5.320313 -3.38672,-8.964844 -8.39062,-8.964844 z m -0.0703,2.378906 c 3.73829,0 5.21485,3.75 5.21485,6.703125 0,3.914063 -2.26172,6.761719 -5.28516,6.761719 -3.09375,0 -5.29687,-2.882812 -5.29687,-6.691406 0,-3.316406 1.61718,-6.773438 5.36718,-6.773438 z M 2.7314453,86.399014 h 3.140625 V 76.68417 c 0.7148438,0.175782 1.5820313,0.210938 2.5195313,0.210938 3.0585934,0 5.7539064,-0.902344 7.4179684,-2.660156 1.21875,-1.265625 1.863282,-2.988282 1.863282,-5.191407 0,-2.15625 -0.785157,-3.925781 -2.121094,-5.074218 -1.441406,-1.289063 -3.703125,-2.015625 -6.8085939,-2.015625 -2.5195313,0 -4.5,0.222656 -6.0117188,0.46875 z m 3.140625,-21.703125 c 0.5390625,-0.152344 1.5820313,-0.257812 2.953125,-0.257812 3.4570317,0 5.7187497,1.546875 5.7187497,4.757812 0,3.339844 -2.308593,5.179688 -6.0820309,5.179688 -1.0429688,0 -1.9101563,-0.07031 -2.5898438,-0.257813 z m 22.3886717,3.878906 c -4.828125,0 -8.636719,3.421875 -8.636719,9.257813 0,5.507812 3.632813,8.964844 8.34375,8.964844 4.21875,0 8.683594,-2.8125 8.683594,-9.257813 0,-5.320312 -3.386719,-8.964844 -8.390625,-8.964844 z m -0.07031,2.378907 c 3.738281,0 5.214843,3.75 5.214843,6.703125 0,3.914062 -2.261718,6.761718 -5.285156,6.761718 -3.09375,0 -5.296875,-2.882812 -5.296875,-6.691406 0,-3.316406 1.617188,-6.773437 5.367188,-6.773437 z m 11.232422,14.613281 c 1.21875,0.726562 2.988281,1.195312 4.898437,1.195312 4.136719,0 6.515625,-2.167968 6.515625,-5.226562 0,-2.589844 -1.546875,-4.101563 -4.582031,-5.25 -2.261719,-0.867188 -3.304688,-1.511719 -3.304688,-2.953125 0,-1.300781 1.042969,-2.378906 2.917969,-2.378906 1.617188,0 2.871094,0.574218 3.5625,1.007812 l 0.785156,-2.296875 c -0.972656,-0.585937 -2.519531,-1.089844 -4.277343,-1.089844 -3.75,0 -6.011719,2.308594 -6.011719,5.121094 0,2.085938 1.476562,3.808594 4.605469,4.921875 2.34375,0.867188 3.246093,1.699219 3.246093,3.210938 0,1.441406 -1.089843,2.589843 -3.386718,2.589843 -1.582032,0 -3.246094,-0.644531 -4.183594,-1.253906 z M 55.624023,64.801358 v 4.171875 h -2.707031 v 2.414062 h 2.707031 v 9.503907 c 0,2.050781 0.316407,3.597656 1.21875,4.535156 0.761719,0.867187 1.945313,1.335937 3.421875,1.335937 1.21875,0 2.191407,-0.1875 2.8125,-0.433593 l -0.152343,-2.378907 c -0.386719,0.105469 -1.007813,0.222657 -1.828125,0.222657 -1.769532,0 -2.378907,-1.230469 -2.378907,-3.386719 v -9.398438 h 4.535157 v -2.414062 h -4.535157 v -5.003906 z m 24.975586,13.464844 c 0.03516,-0.328125 0.105469,-0.832032 0.105469,-1.476563 0,-3.210937 -1.511719,-8.214844 -7.195312,-8.214844 -5.074219,0 -8.167969,4.148438 -8.167969,9.398438 0,5.261719 3.199219,8.789062 8.566406,8.789062 2.765625,0 4.675781,-0.574218 5.789063,-1.078125 l -0.539063,-2.273437 c -1.183594,0.503906 -2.554687,0.902344 -4.816406,0.902344 -3.175781,0 -5.90625,-1.769532 -5.976563,-6.046875 z M 68.400391,75.992764 c 0.246093,-2.191406 1.652343,-5.144531 4.863281,-5.144531 3.5625,0 4.417969,3.128906 4.382812,5.144531 z m 16.233398,10.40625 h 3.140625 v -9.292969 c 0,-0.539062 0.07031,-1.042968 0.140625,-1.476562 0.433594,-2.367188 2.015625,-4.066406 4.242188,-4.066406 0.433593,0 0.761718,0.03516 1.078125,0.117187 v -2.988281 c -0.28125,-0.08203 -0.539063,-0.117188 -0.890625,-0.117188 -2.132813,0 -4.03125,1.476563 -4.828125,3.820313 h -0.140625 l -0.105469,-3.421875 h -2.777344 c 0.105469,1.617187 0.140625,3.386719 0.140625,5.4375 z M 102.92383,85.21542 c 1.30078,0.855469 3.85547,1.546875 6.1875,1.546875 5.73047,0 8.49609,-3.246093 8.49609,-6.984375 0,-3.5625 -2.08594,-5.542968 -6.1875,-7.136718 -3.35156,-1.289063 -4.82812,-2.402344 -4.82812,-4.675782 0,-1.652343 1.26562,-3.632812 4.58203,-3.632812 2.1914,0 3.80859,0.714844 4.60547,1.148437 l 0.85547,-2.554687 c -1.07813,-0.609375 -2.8711,-1.183594 -5.35547,-1.183594 -4.72266,0 -7.85157,2.800781 -7.85157,6.585938 0,3.421875 2.44922,5.472656 6.41016,6.878906 3.26953,1.253906 4.57031,2.554687 4.57031,4.816406 0,2.449219 -1.875,4.148438 -5.07422,4.148438 -2.15625,0 -4.21875,-0.726563 -5.61328,-1.59375 z m 33.08203,-6.949218 c 0.0352,-0.328125 0.10547,-0.832032 0.10547,-1.476563 0,-3.210937 -1.51172,-8.214844 -7.19531,-8.214844 -5.07422,0 -8.16797,4.148438 -8.16797,9.398438 0,5.261719 3.19922,8.789062 8.5664,8.789062 2.76563,0 4.67578,-0.574218 5.78907,-1.078125 l -0.53907,-2.273437 c -1.18359,0.503906 -2.55468,0.902344 -4.8164,0.902344 -3.17578,0 -5.90625,-1.769532 -5.97657,-6.046875 z m -12.19922,-2.273438 c 0.24609,-2.191406 1.65234,-5.144531 4.86328,-5.144531 3.5625,0 4.41797,3.128906 4.38281,5.144531 z M 143.17773,60.84042 h -3.14062 v 25.558594 h 3.14062 v -6.550781 l 1.61719,-1.804688 6.01172,8.355469 h 3.84375 l -7.66406,-10.265625 6.73828,-7.160156 h -3.82031 l -5.10938,6.011719 c -0.5039,0.609375 -1.11328,1.371093 -1.54687,1.980468 h -0.0703 z m 27.74707,17.425782 c 0.0352,-0.328125 0.10547,-0.832032 0.10547,-1.476563 0,-3.210937 -1.51172,-8.214844 -7.19531,-8.214844 -5.07422,0 -8.16797,4.148438 -8.16797,9.398438 0,5.261719 3.19922,8.789062 8.56641,8.789062 2.76562,0 4.67578,-0.574218 5.78906,-1.078125 l -0.53906,-2.273437 c -1.1836,0.503906 -2.55469,0.902344 -4.81641,0.902344 -3.17578,0 -5.90625,-1.769532 -5.97656,-6.046875 z m -12.19921,-2.273438 c 0.24609,-2.191406 1.65234,-5.144531 4.86328,-5.144531 3.5625,0 4.41797,3.128906 4.38281,5.144531 z m 37.79589,10.40625 v -2.625 h -10.51171 v -0.07031 l 1.875,-1.734375 c 4.93359,-4.746094 8.0625,-8.238282 8.0625,-12.5625 0,-3.351563 -2.1211,-6.808594 -7.16016,-6.808594 -2.70703,0 -5.00391,1.007812 -6.63281,2.378906 l 1.00781,2.238281 c 1.08984,-0.902343 2.84766,-1.980468 4.96875,-1.980468 3.49219,0 4.65234,2.191406 4.65234,4.570312 -0.0351,3.527344 -2.74218,6.550781 -8.71875,12.234375 l -2.48437,2.414063 v 1.945312 z m 11.34375,-23.800781 c -4.75781,0 -8.13281,4.324219 -8.13281,12.175781 0.0703,7.734375 3.16406,12.023438 7.73438,12.023438 5.17968,0 8.13281,-4.394532 8.13281,-12.351563 0,-7.453125 -2.80078,-11.847656 -7.73438,-11.847656 z m -0.17578,2.449219 c 3.26953,0 4.7461,3.785156 4.7461,9.539062 0,5.976563 -1.54688,9.761719 -4.79297,9.761719 -2.8711,0 -4.7461,-3.457031 -4.7461,-9.539063 0,-6.375 2.01563,-9.761718 4.79297,-9.761718 z m 17.70703,21.351562 h 3.0586 V 62.99667 h -2.69531 l -5.1211,2.742188 0.6211,2.402344 4.0664,-2.191407 h 0.0703 z m 24.375,0 v -6.375 h 3.26954 v -2.484375 h -3.26954 V 62.99667 h -3.42187 L 235.9082,77.938077 v 2.085937 h 10.875 v 6.375 z m -10.66406,-8.859375 v -0.07031 l 5.73047,-7.957032 c 0.64453,-1.078125 1.21875,-2.085937 1.94531,-3.457031 h 0.10547 c -0.0703,1.230469 -0.10547,2.449219 -0.10547,3.679688 v 7.804687 z m 0,0" style="fill:#ffffff;fill-opacity:1;fill-rule:nonzero;stroke:none" aria-label="Totally Unomcid&#10;Best Picture Nominco&#10;Poster Seke 2014" transform="matrix(1.3333333,0,0,1.3333333,294.66667,4136.0005)" />
      </g></svg>