<?xml version='1.0' encoding='utf-8'?>
<svg xmlns="http://www.w3.org/2000/svg" version="1.1" width="401.793" height="37.734" viewBox="1377.990 171.449 401.793 37.734"><g id="object"><path id="path14" d="m 13.887909,-3.359375e-4 h 1.78125 L 14.790253,-14.156586 h -2.332031 l -2.5195314,6.8437501 c -0.6328125,1.7929687 -1.1367187,3.3398437 -1.5,4.7695312 H 8.3800969 C 8.0285344,-4.0081484 7.5363469,-5.5667422 6.9504094,-7.3128359 L 4.5363469,-14.156586 H 2.2043156 L 1.2199406,-3.359375e-4 h 1.7460938 l 0.375,-6.0703124625 c 0.1289062,-2.1210938 0.234375,-4.4882816 0.2695312,-6.2578126 h 0.046875 c 0.3984375,1.675781 0.9609375,3.5039063 1.640625,5.5078126 l 2.2851563,6.73828121 H 8.9660344 L 11.462128,-6.9495547 c 0.714844,-1.9570312 1.3125,-3.7148433 1.792969,-5.3789063 h 0.05859 c -0.02344,1.769531 0.105468,4.1367188 0.210937,6.1171876 z m 11.958985,0 C 25.729706,-0.69174219 25.682831,-1.5589297 25.682831,-2.4378359 v -3.796875 c 0,-2.0390625 -0.75,-4.1601561 -3.867187,-4.1601561 -1.277344,0 -2.496094,0.351562 -3.339844,0.9023436 l 0.421875,1.21875 c 0.714844,-0.4570313 1.699219,-0.7617188 2.648438,-0.7617188 2.074218,0 2.308593,1.5117188 2.308593,2.3554688 v 0.2109375 c -3.925781,-0.023437 -6.105468,1.3242187 -6.105468,3.7851562 0,1.4648438 1.042968,2.91796876 3.105468,2.91796876 1.453125,0 2.542969,-0.71484375 3.105469,-1.51171876 h 0.07031 L 24.17111,-3.359375e-4 Z M 23.901581,-3.4222109 c 0,0.1875 -0.04687,0.3984375 -0.105468,0.5859375 -0.292969,0.8671875 -1.136719,1.6992187 -2.460938,1.6992187 -0.9375,0 -1.746094,-0.5625 -1.746094,-1.7578125 0,-1.9804687 2.296875,-2.3320312 4.3125,-2.296875 z m 4.766602,3.4218749625 h 1.828125 V -5.4143984 c 0,-0.3164063 0.03516,-0.609375 0.08203,-0.8671875 0.246094,-1.3828125 1.171875,-2.3671875 2.472656,-2.3671875 0.257813,0 0.445313,0.011719 0.632813,0.058594 v -1.7460936 c -0.164063,-0.03516 -0.316406,-0.05859 -0.527344,-0.05859 -1.230469,0 -2.34375,0.8554689 -2.8125,2.2265626 h -0.08203 l -0.05859,-1.9921876 h -1.617187 c 0.05859,0.9375001 0.08203,1.9687501 0.08203,3.1640626 z M 42.250214,-1.7698672 c -0.527344,0.234375 -1.21875,0.5039063 -2.261719,0.5039063 -2.015625,0 -3.527343,-1.4414063 -3.527343,-3.796875 0,-2.1210938 1.253906,-3.84375 3.585937,-3.84375 1.007813,0 1.699219,0.234375 2.144531,0.4804687 l 0.421875,-1.4179687 c -0.503906,-0.2578121 -1.476562,-0.5273441 -2.566406,-0.5273441 -3.316406,0 -5.460937,2.2617191 -5.460937,5.3906253 0,3.1171875 1.992187,5.19140626 5.0625,5.19140626 1.359375,0 2.4375,-0.33984375 2.917968,-0.5859375 z m 2.481445,1.7695312625 h 1.851563 V -6.1292422 c 0,-0.3632812 0.01172,-0.6328125 0.117187,-0.890625 0.339844,-1.0078125 1.289063,-1.8398437 2.484375,-1.8398437 1.734375,0 2.34375,1.3828125 2.34375,3.0234375 v 5.8359374625 h 1.851563 V -6.0472109 c 0,-3.5039063 -2.179688,-4.3476561 -3.550781,-4.3476561 -0.691407,0 -1.335938,0.210937 -1.886719,0.5273436 -0.5625,0.3164062 -1.03125,0.7734375 -1.324219,1.3007812 h -0.03516 v -6.3398438 h -1.851563 z m 24.228516,0 V -1.5354922 h -6.128906 v -0.035156 l 1.089844,-1.0078125 c 2.882812,-2.7773438 4.710937,-4.8164063 4.710937,-7.3359375 0,-1.9453128 -1.242187,-3.9726568 -4.183594,-3.9726568 -1.570312,0 -2.917968,0.597657 -3.867187,1.394532 l 0.585937,1.300781 c 0.632813,-0.527344 1.664063,-1.160156 2.90625,-1.160156 2.039063,0 2.707032,1.289062 2.707032,2.6718748 -0.02344,2.0625 -1.59375,3.8203125 -5.085938,7.1367187 l -1.441406,1.40625 V -3.359375e-4 Z M 71.271698,-13.65268 v 1.535157 h 6.679688 v 0.04687 L 72.033417,-3.359375e-4 h 1.910156 L 79.88498,-12.43393 v -1.21875 z M 82.512909,2.4606016 c 0.585938,-0.9960938 1.511719,-3.31640629 1.992188,-5.109375 l -2.0625,0.2109375 c -0.234375,1.53515621 -0.796875,3.7851562 -1.253906,5.015625 z m 12.09375,-2.4609375375 h 1.78125 V -13.65268 h -1.570312 l -2.988281,1.59375 0.363281,1.40625 2.367187,-1.277343 h 0.04687 z M 105.77756,0.23403906 c 2.60156,0 4.64062,-1.59374996 4.64062,-3.97265626 0,-1.6640625 -1.05468,-2.859375 -2.7539,-3.5273437 v -0.058594 c 1.6875,-0.8085937 2.25,-2.0390625 2.25,-3.1992181 0,-1.699219 -1.32422,-3.363282 -3.97266,-3.363282 -2.39062,0 -4.21875,1.476563 -4.21875,3.644532 0,1.1718744 0.65625,2.3437494 2.16797,3.0585931 l 0.0117,0.070312 c -1.67578,0.703125 -2.70703,1.921875 -2.70703,3.6445313 0,2.0039062 1.72265,3.70312496 4.58203,3.70312496 z m 0.0469,-1.34765626 c -1.74609,0 -2.80078,-1.21875 -2.73047,-2.6015625 0,-1.3007812 0.85547,-2.3554687 2.44922,-2.8125 1.85157,0.515625 3.01172,1.3242188 3.01172,2.9765625 0,1.40625 -1.07812,2.4375 -2.73047,2.4375 z m 0.0117,-11.4492188 c 1.66406,0 2.3086,1.136719 2.3086,2.226563 0,1.2421871 -0.90235,2.0859371 -2.07422,2.4843746 -1.57032,-0.421875 -2.60157,-1.1601563 -2.60157,-2.5195316 0,-1.183593 0.84375,-2.191406 2.36719,-2.191406 z m 10.71387,12.79687506 c 2.60156,0 4.64062,-1.59374996 4.64062,-3.97265626 0,-1.6640625 -1.05468,-2.859375 -2.7539,-3.5273437 v -0.058594 c 1.6875,-0.8085937 2.25,-2.0390625 2.25,-3.1992181 0,-1.699219 -1.32422,-3.363282 -3.97266,-3.363282 -2.39062,0 -4.21875,1.476563 -4.21875,3.644532 0,1.1718744 0.65625,2.3437494 2.16797,3.0585931 l 0.0117,0.070312 c -1.67578,0.703125 -2.70703,1.921875 -2.70703,3.6445313 0,2.0039062 1.72265,3.70312496 4.58203,3.70312496 z m 0.0469,-1.34765626 c -1.74609,0 -2.80078,-1.21875 -2.73046,-2.6015625 0,-1.3007812 0.85546,-2.3554687 2.44921,-2.8125 1.85157,0.515625 3.01172,1.3242188 3.01172,2.9765625 0,1.40625 -1.07812,2.4375 -2.73047,2.4375 z m 0.0117,-11.4492188 c 1.66407,0 2.3086,1.136719 2.3086,2.226563 0,1.2421871 -0.90235,2.0859371 -2.07422,2.4843746 -1.57031,-0.421875 -2.60156,-1.1601563 -2.60156,-2.5195316 0,-1.183593 0.84375,-2.191406 2.36718,-2.191406 z m 14.08887,-1.300781 c -0.32813,0 -0.79688,0.02344 -1.33594,0.105469 -1.72265,0.210937 -3.23437,0.902343 -4.37109,2.015625 -1.34766,1.347656 -2.3086,3.4687496 -2.3086,6.1523433 0,3.5507813 1.91016,5.82421876 4.82813,5.82421876 2.83594,0 4.53516,-2.30859376 4.53516,-4.81640626 0,-2.6601562 -1.69922,-4.40625 -4.11329,-4.40625 -1.51171,0 -2.64843,0.7148438 -3.29296,1.5703125 h -0.0703 c 0.31641,-2.2382812 1.85157,-4.3593753 4.7461,-4.8515623 0.52734,-0.08203 1.00781,-0.09375 1.38281,-0.08203 z M 127.51,-1.1956484 c -1.93359,0 -2.96484,-1.6640625 -3,-3.9023438 0,-0.3398437 0.082,-0.609375 0.21094,-0.8203125 0.5039,-0.9960937 1.53515,-1.6875 2.64843,-1.6875 1.69922,0 2.8125,1.1835938 2.8125,3.1289063 0,1.9570312 -1.07812,3.28125 -2.67187,3.28125 z m 5.86523,-4.7695313 v 1.265625 h 19.73438 v -1.265625 z m 29.18555,1.5117188 1.51172,4.4531249625 h 1.94531 L 161.18967,-14.156586 h -2.20313 l -4.80469,14.1562500625 h 1.88672 L 157.54514,-4.4534609 Z m -4.64062,-1.4296875 1.38281,-4.0898438 c 0.26953,-0.8671878 0.5039,-1.7226558 0.71484,-2.5664058 h 0.0469 c 0.19922,0.820312 0.41015,1.664062 0.72656,2.5898433 l 1.39453,4.0664063 z M 176.301,-10.160492 h -1.85157 v 6.2343748 c 0,0.3398438 -0.0586,0.6679688 -0.16406,0.9492188 -0.33984,0.8085937 -1.20703,1.6757812 -2.4375,1.6757812 -1.6875,0 -2.27344,-1.3007812 -2.27344,-3.234375 v -5.6249998 h -1.85156 v 5.9414061 c 0,3.56249996 1.92188,4.45312496 3.51563,4.45312496 1.80468,0 2.87109,-1.078125 3.35156,-1.89843746 h 0.0469 l 0.10547,1.6640624625 h 1.64063 C 176.31271,-0.79721094 176.301,-1.7229922 176.301,-2.7776797 Z m 10.19824,0 -0.082,1.5234373 h -0.0469 c -0.43359,-0.8320312 -1.40625,-1.7578123 -3.16406,-1.7578123 -2.33203,0 -4.58203,1.9570311 -4.58203,5.4023436 0,2.8125 1.80469,4.94531246 4.32422,4.94531246 1.58203,0 2.67187,-0.75 3.23437,-1.69921876 h 0.0469 v 1.13671876 c 0,2.56640624 -1.38282,3.55078124 -3.28125,3.55078124 -1.25391,0 -2.3086,-0.375 -2.97657,-0.796875 l -0.46875,1.40625 c 0.82032,0.5390625 2.16797,0.84375 3.38672,0.84375 1.27735,0 2.70703,-0.3046875 3.69141,-1.21875 0.98437,-0.890625 1.45312,-2.32031249 1.45312,-4.640625 v -5.90625 c 0,-1.2421875 0.0352,-2.0625 0.082,-2.7890623 z m -0.29297,5.8359373 c 0,0.3164063 -0.0469,0.6679688 -0.15234,0.984375 -0.39844,1.171875 -1.41797,1.8867188 -2.55469,1.8867188 -1.99219,0 -3,-1.6523438 -3,-3.6445313 0,-2.3554687 1.2539,-3.84375 3.02344,-3.84375 1.33593,0 2.23828,0.8789063 2.57812,1.9453125 0.082,0.2578125 0.10547,0.5273438 0.10547,0.84375 z m 13.40332,-5.8359373 h -1.85156 v 6.2343748 c 0,0.3398438 -0.0586,0.6679688 -0.16407,0.9492188 -0.33984,0.8085937 -1.20703,1.6757812 -2.4375,1.6757812 -1.6875,0 -2.27343,-1.3007812 -2.27343,-3.234375 v -5.6249998 h -1.85157 v 5.9414061 c 0,3.56249996 1.92188,4.45312496 3.51563,4.45312496 1.80469,0 2.87109,-1.078125 3.35156,-1.89843746 h 0.0469 l 0.10547,1.6640624625 h 1.64062 c -0.0703,-0.7968750025 -0.082,-1.7226562625 -0.082,-2.7773437625 z m 2.34961,9.67968731 c 0.71484,0.421875 1.74609,0.69140625 2.85937,0.69140625 2.41407,0 3.79688,-1.26562496 3.79688,-3.04687496 0,-1.5117188 -0.90235,-2.390625 -2.67188,-3.0703125 -1.32422,-0.5039063 -1.92187,-0.8789063 -1.92187,-1.7109375 0,-0.7617188 0.59765,-1.3945313 1.69922,-1.3945313 0.9375,0 1.67578,0.3398438 2.07422,0.5859375 l 0.45703,-1.3359375 c -0.5625,-0.3398433 -1.46485,-0.6328123 -2.4961,-0.6328123 -2.17968,0 -3.5039,1.3476561 -3.5039,2.9765623 0,1.21875 0.85547,2.2265625 2.68359,2.8828125 1.37109,0.5039063 1.89844,0.984375 1.89844,1.8632813 0,0.84375 -0.63281,1.5117187 -1.98047,1.5117187 -0.92578,0 -1.88672,-0.375 -2.4375,-0.7265625 z m 9.45117,-12.11718731 v 2.4375 h -1.58203 v 1.4062498 h 1.58203 v 5.5429688 c 0,1.1953125 0.1875,2.0976562 0.71484,2.64843746 0.4336,0.50390625 1.125,0.7734375 1.99219,0.7734375 0.71485,0 1.27735,-0.10546875 1.64063,-0.2578125 l -0.0937,-1.38281246 c -0.22266,0.070312 -0.58594,0.1289062 -1.06641,0.1289062 -1.03125,0 -1.38281,-0.7148437 -1.38281,-1.9804687 v -5.4726563 h 2.64844 v -1.4062498 h -2.64844 v -2.917969 z m 14.40234,12.5976560625 h 1.78125 V -13.65268 h -1.57031 l -2.98828,1.59375 0.36328,1.40625 2.36719,-1.277343 h 0.0469 z M 232.82639,-13.65268 v 1.535157 h 6.67968 v 0.04687 L 233.5881,-3.359375e-4 h 1.91016 L 241.43967,-12.43393 v -1.21875 z M 244.0676,2.4606016 c 0.58593,-0.9960938 1.51172,-3.31640629 1.99218,-5.109375 l -2.0625,0.2109375 c -0.23437,1.53515621 -0.79687,3.7851562 -1.2539,5.015625 z m 12.09082,-2.4609375375 h 1.78125 V -13.65268 h -1.57032 l -2.98828,1.59375 0.36328,1.40625 2.36719,-1.277343 h 0.0469 z m 7.83105,0.2109374975 c 0.44531,0.0234375 1.03125,0 1.69922,-0.10546875 1.47656,-0.1640625 2.91797,-0.796875 3.97266,-1.82812501 1.34765,-1.3007812 2.35547,-3.3984375 2.35547,-6.4101562 0,-3.4804686 -1.72266,-5.7539066 -4.52344,-5.7539066 -2.78906,0 -4.66406,2.273438 -4.66406,4.8515628 0,2.3320313 1.58203,4.1835938 4.04296,4.1835938 1.35938,0 2.44922,-0.5507813 3.21094,-1.4648438 h 0.0586 c -0.2461,1.6171875 -0.90235,2.8125 -1.80469,3.6328125 -0.77344,0.7265625 -1.78125,1.171875 -2.85938,1.3242188 -0.62109,0.058594 -1.08984,0.09375 -1.48828,0.058594 z m 3.36328,-12.67968756 c 1.9336,0 2.78907,1.78125 2.78907,4.1132813 0,0.2929688 -0.0586,0.5039063 -0.16407,0.6679688 -0.48047,0.8203125 -1.45312,1.4296875 -2.69531,1.4296875 -1.59375,0 -2.625,-1.1953125 -2.625,-2.8945313 0,-1.9335933 1.11328,-3.3164063 2.69531,-3.3164063 z m 10.75196,12.70312506 c 2.60156,0 4.64062,-1.59374996 4.64062,-3.97265626 0,-1.6640625 -1.05469,-2.859375 -2.7539,-3.5273437 v -0.058594 c 1.6875,-0.8085937 2.25,-2.0390625 2.25,-3.1992181 0,-1.699219 -1.32422,-3.363282 -3.97266,-3.363282 -2.39063,0 -4.21875,1.476563 -4.21875,3.644532 0,1.1718744 0.65625,2.3437494 2.16797,3.0585931 l 0.0117,0.070312 c -1.67578,0.703125 -2.70703,1.921875 -2.70703,3.6445313 0,2.0039062 1.72265,3.70312496 4.58203,3.70312496 z m 0.0469,-1.34765626 c -1.74609,0 -2.80078,-1.21875 -2.73047,-2.6015625 0,-1.3007812 0.85547,-2.3554687 2.44922,-2.8125 1.85156,0.515625 3.01172,1.3242188 3.01172,2.9765625 0,1.40625 -1.07812,2.4375 -2.73047,2.4375 z m 0.0117,-11.4492188 c 1.66406,0 2.30859,1.136719 2.30859,2.226563 0,1.2421871 -0.90234,2.0859371 -2.07421,2.4843746 -1.57032,-0.421875 -2.60157,-1.1601563 -2.60157,-2.5195316 0,-1.183593 0.84375,-2.191406 2.36719,-2.191406 z m 7.37402,12.77343756 c 0.44532,0.0234375 1.03125,0 1.69922,-0.10546875 1.47656,-0.1640625 2.91797,-0.796875 3.97266,-1.82812501 1.34765,-1.3007812 2.35547,-3.3984375 2.35547,-6.4101562 0,-3.4804686 -1.72266,-5.7539066 -4.52344,-5.7539066 -2.78906,0 -4.66406,2.273438 -4.66406,4.8515628 0,2.3320313 1.58203,4.1835938 4.04297,4.1835938 1.35937,0 2.44921,-0.5507813 3.21093,-1.4648438 h 0.0586 c -0.2461,1.6171875 -0.90235,2.8125 -1.80469,3.6328125 -0.77344,0.7265625 -1.78125,1.171875 -2.85938,1.3242188 -0.62109,0.058594 -1.08984,0.09375 -1.48828,0.058594 z M 288.9006,-12.469086 c 1.9336,0 2.78907,1.78125 2.78907,4.1132813 0,0.2929688 -0.0586,0.5039063 -0.16407,0.6679688 -0.48046,0.8203125 -1.45312,1.4296875 -2.69531,1.4296875 -1.59375,0 -2.625,-1.1953125 -2.625,-2.8945313 0,-1.9335933 1.11328,-3.3164063 2.69531,-3.3164063 z m 0,0" style="fill:#dcdddd;fill-opacity:1;fill-rule:nonzero;stroke:none" aria-label="March 27, 1886—August 17, 1989" transform="matrix(1.3333333,0,0,1.3333333,1382.3656,197.32467)" />
    </g></svg>