<?xml version='1.0' encoding='utf-8'?>
<svg xmlns="http://www.w3.org/2000/svg" version="1.1" width="90.433" height="102.285" viewBox="751.958 4181.940 90.433 102.285"><g id="object"><path id="path39" d="m 0,0 c 5.289,8.413 2.963,16.802 4.297,24.569 1.582,9.209 7.936,13.422 16.926,10.067 1.785,-0.667 2.512,-1.838 2.727,-3.689 2.227,-19.185 4.555,-38.359 6.741,-57.549 0.394,-3.46 -1.35,-5.128 -5.025,-5.194 -3.979,-0.072 -7.342,0.573 -7.777,5.202 -0.985,10.478 -1.721,20.98 -2.693,33.157 -4.98,-10.749 -6.486,-20.76 -7.701,-30.786 -0.564,-4.655 -1.979,-7.79 -7.293,-7.448 -2.348,0.151 -4.153,1.055 -4.472,3.662 -1.365,11.139 -6.844,21.357 -7.012,34.075 -2.746,-5.204 -4.123,-9.399 -3.199,-13.882 1.43,-6.944 -1.192,-13.59 -1.108,-20.474 0.068,-5.477 -5.433,-2.928 -8.474,-3.536 -2.915,-0.584 -4.209,1.285 -3.993,4.294 0.995,13.861 0.946,27.789 2.963,41.59 0.751,5.131 0.932,10.366 1.063,15.561 0.091,3.649 1.862,4.853 5.233,5.202 10.932,1.13 12.876,-0.673 14.213,-11.53 C -3.671,15.88 -1.733,8.595 0,0" style="fill:#494f57;fill-opacity:1;fill-rule:nonzero;stroke:none" transform="matrix(1.3333333,0,0,-1.3333333,795.39653,4235.6475)" />
      </g></svg>