<?xml version='1.0' encoding='utf-8'?>
<svg xmlns="http://www.w3.org/2000/svg" version="1.1" width="806.492" height="59.391" viewBox="1252.460 4234.510 806.492 59.391"><defs id="defs1"><clipPath clipPathUnits="userSpaceOnUse" id="clipPath59">
      <path d="M 0,3370.3901 H 2383.9401 V -2.5000001e-5 H 0 Z" id="path59" />
    </clipPath>
  </defs><g id="object"><path id="path33" d="M 21.655039,-10.827467 25.334727,6.578125e-4 H 30.08082 L 18.338633,-34.417311 H 12.971445 L 1.2761328,6.578125e-4 h 4.59375 L 9.4441016,-10.827467 Z m -11.285156,-3.46875 3.363281,-9.960938 c 0.667969,-2.097656 1.230469,-4.183593 1.734375,-6.234375 h 0.105469 c 0.515625,1.992188 1.019531,4.042969 1.792969,6.28125 l 3.363281,9.914063 z M 75.845469,6.578125e-4 h 4.335937 L 78.036875,-34.417311 H 72.365 l -6.128906,16.640625 C 64.712656,-13.42903 63.482188,-9.6555922 62.615,-6.1751234 H 62.462656 C 61.595469,-9.7493422 60.423594,-13.534498 58.982188,-17.776686 L 53.111094,-34.417311 H 47.450938 L 45.048594,6.578125e-4 h 4.230469 L 50.204844,-14.753248 c 0.304687,-5.167969 0.5625,-10.933594 0.667969,-15.222657 h 0.09375 c 0.972656,4.078125 2.355468,8.53125 3.984375,13.382813 l 5.566406,16.39453106 h 3.375 L 69.962656,-16.89778 c 1.746094,-4.757812 3.175782,-9.046875 4.347657,-13.078125 h 0.152343 c -0.04687,4.289063 0.257813,10.054688 0.515625,14.859375 z M 110.15797,-4.6516859 c -1.78125,0.8789062 -4.53516,1.4296875 -7.24219,1.4296875 -8.378905,0 -13.230467,-5.4140625 -13.230467,-13.8398436 0,-9.035156 5.355468,-14.191406 13.429687,-14.191406 2.85938,0 5.26172,0.609375 6.94922,1.429687 l 1.06641,-3.621094 c -1.17188,-0.621093 -3.87891,-1.535156 -8.16797,-1.535156 -10.675785,0 -17.976566,7.300781 -17.976566,18.082031 0,11.2851566 7.300781,17.41406281 17.003906,17.41406281 4.18359,0 7.45313,-0.8203125 9.09375,-1.64062501 z m 6.49219,-29.7656251 V 6.578125e-4 h 4.4414 V -16.136061 h 16.65235 V 6.578125e-4 h 4.5 V -34.417311 h -4.5 v 14.402344 h -16.65235 v -14.402344 z m 51.12304,14.601563 h -13.38281 v -10.875 h 14.15625 v -3.726563 H 149.94898 V 6.578125e-4 h 19.35938 V -3.7259047 H 154.39039 V -16.136061 h 13.38281 z m 7.30371,19.8164058125 h 19.14844 V -3.7259047 H 179.51832 V -34.417311 h -4.44141 z M 210.01051,-34.417311 V 6.578125e-4 h 4.4414 V -16.136061 h 16.65235 V 6.578125e-4 h 4.5 V -34.417311 h -4.5 v 14.402344 h -16.65235 v -14.402344 z m 51.07617,23.589844 3.67969,10.8281248125 h 4.74609 L 257.77027,-34.417311 h -5.36718 L 240.70777,6.578125e-4 h 4.59375 L 248.87574,-10.827467 Z m -11.28516,-3.46875 3.36328,-9.960938 c 0.66797,-2.097656 1.23047,-4.183593 1.73438,-6.234375 h 0.10547 c 0.51562,1.992188 1.01953,4.042969 1.79297,6.28125 l 3.36328,9.914063 z m 22.4209,14.2968748125 h 25.125 V -3.7259047 h -19.2539 V -3.8782484 L 297.08961,-31.71028 v -2.707031 h -23.23828 v 3.726563 h 17.47265 v 0.152343 L 272.22242,-2.6009047 Z M 320.58863,-10.827467 324.26832,6.578125e-4 h 4.74609 L 317.27223,-34.417311 h -5.36719 L 300.20973,6.578125e-4 h 4.59375 L 308.3777,-10.827467 Z m -11.28515,-3.46875 3.36328,-9.960938 c 0.66797,-2.097656 1.23047,-4.183593 1.73437,-6.234375 h 0.10547 c 0.51563,1.992188 1.01953,4.042969 1.79297,6.28125 l 3.36328,9.914063 z M 334.06812,6.578125e-4 h 4.44141 V -14.917311 h 4.19531 c 4.03125,0.164063 5.8711,1.945313 6.89063,6.6914063 0.97265,4.2890625 1.73437,7.25390626 2.29687,8.2265625125 h 4.59375 C 355.77125,-1.3235609 354.96266,-4.6516859 353.83766,-9.4446547 c -0.82032,-3.5742183 -2.40235,-6.0234373 -5.0625,-6.9492183 v -0.152344 c 3.63281,-1.230469 6.49218,-4.242188 6.49218,-8.789063 0,-2.648437 -0.97265,-5.003906 -2.70703,-6.527343 -2.14453,-1.945313 -5.21484,-2.8125 -9.96094,-2.8125 -3.05859,0 -6.28125,0.257812 -8.53125,0.714843 z M 338.50953,-30.843092 c 0.71484,-0.210938 2.25,-0.410156 4.39453,-0.410156 4.69922,0.04687 7.92188,1.992187 7.92188,6.433593 0,3.9375 -3.01172,6.539063 -7.76953,6.539063 h -4.54688 z M 374.8318,6.578125e-4 387.13648,-34.417311 h -4.74609 l -5.82422,17.003906 c -1.53515,4.488282 -2.96484,8.8359378 -3.9375,12.8203128 h -0.10547 c -0.91406,-4.0429687 -2.1914,-8.2265628 -3.66797,-12.8671878 l -5.36718,-16.957031 h -4.80469 L 369.92164,6.578125e-4 Z M 390.86012,-34.417311 V 6.578125e-4 h 4.4414 V -34.417311 Z m 35.34082,29.7656251 c -1.78125,0.8789062 -4.53516,1.4296875 -7.24219,1.4296875 -8.37891,0 -13.23047,-5.4140625 -13.23047,-13.8398436 0,-9.035156 5.35547,-14.191406 13.42969,-14.191406 2.85937,0 5.26172,0.609375 6.94922,1.429687 l 1.0664,-3.621094 c -1.17187,-0.621093 -3.8789,-1.535156 -8.16797,-1.535156 -10.67578,0 -17.97656,7.300781 -17.97656,18.082031 0,11.2851566 7.30078,17.41406281 17.00391,17.41406281 4.18359,0 7.45312,-0.8203125 9.09375,-1.64062501 z m 6.44238,-29.7656251 v 20.273438 c 0,10.6757808 5.30859,14.70703081 12.35156,14.70703081 7.46485,0 13.03125,-4.33593751 13.03125,-14.91796881 v -20.0625 h -4.5 v 20.378906 c 0,7.6054691 -3.26953,10.9804691 -8.36718,10.9804691 -4.60547,0 -8.02735,-3.2695313 -8.02735,-10.9804691 v -20.378906 z m 31.35645,32.7304688 c 1.83984,1.23046876 5.46093,2.20312501 8.78906,2.20312501 8.12109,0 12.04687,-4.60546871 12.04687,-9.91406251 0,-5.0507813 -2.96484,-7.8632813 -8.77734,-10.1132813 -4.75781,-1.839844 -6.84375,-3.421875 -6.84375,-6.632812 0,-2.355469 1.78125,-5.15625 6.48047,-5.15625 3.11719,0 5.41406,1.019531 6.53906,1.628906 l 1.21875,-3.621094 c -1.52344,-0.878906 -4.07812,-1.6875 -7.60547,-1.6875 -6.6914,0 -11.13281,3.984375 -11.13281,9.339844 0,4.851562 3.46875,7.769531 9.09375,9.761719 4.64062,1.78125 6.48047,3.621093 6.48047,6.8437496 0,3.46875 -2.64844,5.8710937 -7.19531,5.8710937 -3.07032,0 -5.97657,-1.0195312 -7.96875,-2.25 z M 501.74,6.578125e-4 h 4.44141 V -15.573561 h 13.03125 v -3.679687 h -13.03125 v -11.4375 h 14.09765 v -3.726563 H 501.74 Z M 526.61305,-34.417311 V 6.578125e-4 h 4.4414 V -34.417311 Z m 12.208,34.4179688125 h 19.14844 V -3.7259047 H 543.26246 V -34.417311 h -4.44141 z m 53.98829,0 h 4.33593 L 595.00074,-34.417311 h -5.67187 l -6.12891,16.640625 c -1.52344,4.347656 -2.75391,8.1210938 -3.62109,11.6015626 h -0.15235 c -0.86718,-3.5742188 -2.03906,-7.3593746 -3.48047,-11.6015626 l -5.87109,-16.640625 H 564.4148 L 562.01246,6.578125e-4 h 4.23047 L 567.16871,-14.753248 c 0.30469,-5.167969 0.5625,-10.933594 0.66797,-15.222657 h 0.0937 c 0.97266,4.078125 2.35547,8.53125 3.98437,13.382813 l 5.56641,16.39453106 h 3.375 L 586.92652,-16.89778 c 1.7461,-4.757812 3.17578,-9.046875 4.34766,-13.078125 h 0.15234 c -0.0469,4.289063 0.25782,10.054688 0.51563,14.859375 z m 0,0" style="fill:#ffffff;fill-opacity:1;fill-rule:nonzero;stroke:none" aria-label="A MCHEL HAZARVICUS FILM" transform="matrix(1.3333333,0,0,1.3333333,1256.7633,4287.1515)" />
      </g></svg>