<?xml version='1.0' encoding='utf-8'?>
<svg xmlns="http://www.w3.org/2000/svg" version="1.1" width="388.286" height="454.473" viewBox="1390.330 169.016 388.286 454.473"><defs id="defs1"><clipPath clipPathUnits="userSpaceOnUse" id="clipPath4">
      <path d="M -2384.1568,2286.7354 H -0.21670001 V -1083.6547 H -2384.1568 Z" id="path4" />
    </clipPath>
    <clipPath clipPathUnits="userSpaceOnUse" id="clipPath6">
      <path d="M -2384.0266,1933.815 H -0.086575 v -3370.39 H -2384.0266 Z" id="path6" />
    </clipPath>
    <clipPath clipPathUnits="userSpaceOnUse" id="clipPath8">
      <path d="M -2384.1847,2520.3537 H -0.24460001 V -850.0364 H -2384.1847 Z" id="path8" />
    </clipPath>
    <clipPath clipPathUnits="userSpaceOnUse" id="clipPath10">
      <path d="M -1378.8652,3371.3417 H 1005.0749 V 0.95157502 h -2383.9401 z" id="path10" />
    </clipPath>
    <clipPath clipPathUnits="userSpaceOnUse" id="clipPath12">
      <path d="M -2383.8391,1819.185 H 0.100925 v -3370.39 H -2383.8391 Z" id="path12" />
    </clipPath>
    <clipPath clipPathUnits="userSpaceOnUse" id="clipPath14">
      <path d="M -2384.2639,1767.3618 H -0.32387501 V -1603.0283 H -2384.2639 Z" id="path14" />
    </clipPath>
  </defs><g id="object"><path id="path21" d="m 0,0 c -0.181,-33.315 -0.15,-66.634 -0.662,-99.945 -0.17,-11.035 3.827,-15.544 15.269,-15.381 34.132,0.485 68.283,0.554 102.411,-0.056 12.703,-0.227 16.349,4.733 16.12,16.863 -0.555,29.362 0.607,58.758 -0.062,88.114 -0.357,15.698 3.716,22.339 21.317,22.062 52.418,-0.823 52.592,-0.035 52.808,-52.861 0.35,-85.745 0.103,-171.496 0.996,-257.235 0.171,-16.372 -4.43,-21.752 -21.32,-21.75 -54.07,0.005 -54.089,-0.685 -54.138,52.9 -0.023,24.613 -0.428,49.239 0.275,73.833 0.348,12.169 -3.487,16.844 -16.196,16.621 -33.333,-0.587 -66.703,-0.536 -100.024,0.437 -13.834,0.403 -17.686,-4.534 -17.404,-17.824 0.739,-34.918 -0.295,-69.873 0.423,-104.792 0.294,-14.279 -2.096,-21.018 -19.118,-20.926 -53.696,0.291 -53.534,-0.505 -53.68,53.217 -0.178,65.076 -0.671,130.151 -1.028,195.226 0.429,21.322 0.774,42.646 1.347,63.964 0.145,5.376 -1.081,11.325 3.589,15.607 C -60.596,15.851 -7.577,9.569 0,0" style="fill:#9e998f;fill-opacity:1;fill-rule:nonzero;stroke:none" transform="matrix(1.3333333,0,0,-1.3333333,1495.0137,190.56987)" />
      </g></svg>