<?xml version='1.0' encoding='utf-8'?>
<svg xmlns="http://www.w3.org/2000/svg" version="1.1" width="139.901" height="119.932" viewBox="1622.600 2943.830 139.901 119.932"><g id="object"><path id="path45" d="M 0,0 C -4.483,9.543 -8.967,19.086 -14.116,30.045 -19.38,19.53 -24.171,9.959 -28.962,0.388 c -2.377,-0.249 -4.754,-0.498 -7.131,-0.746 -8.638,23.447 -17.276,46.894 -25.984,70.532 17.55,5.353 17.55,5.353 31.908,-25.817 4.94,11.253 9.067,20.654 15.906,36.234 C -7.725,65.114 -3.444,54.979 1.167,44.063 16.742,73.745 16.742,73.745 33.849,73.138 25.13,48.505 16.692,24.669 8.254,0.832 5.502,0.554 2.751,0.277 0,0" style="fill:#231916;fill-opacity:1;fill-rule:nonzero;stroke:none" transform="matrix(1.3333333,0,0,-1.3333333,1711.368,3057.2824)" />
      </g></svg>