<?xml version='1.0' encoding='utf-8'?>
<svg xmlns="http://www.w3.org/2000/svg" version="1.1" width="114.402" height="101.755" viewBox="449.352 4069.720 114.402 101.755"><g id="object"><path id="path78" d="m 0,0 c -0.635,-6.713 -1.114,-13.047 -1.887,-19.345 -0.328,-2.67 0.424,-4.192 3.099,-4.405 2.51,-0.202 4.462,1.021 4.088,3.622 C 4.326,-13.371 6.095,-5.826 0,0 m 1.052,21.045 c 6.303,1.299 8.33,-1.084 9.497,-5.901 4.027,-16.614 8.341,-33.164 12.838,-49.658 2.686,-9.853 0.798,-12.337 -8.556,-11.114 -4.038,0.529 -4.444,3.43 -4.823,5.953 -1.004,6.678 -6.166,5.473 -10.361,5.84 -4.377,0.382 -6.205,-2.086 -6.559,-6.398 -0.497,-6.054 -5.013,-6.072 -9.465,-5.391 -5.168,0.791 -2.829,4.997 -2.4,7.292 3.502,18.76 7.707,37.373 12.428,55.873 1.376,5.394 5.64,2.883 7.401,3.504" style="fill:#494f57;fill-opacity:1;fill-rule:nonzero;stroke:none" transform="matrix(1.3333333,0,0,-1.3333333,525.07933,4104.2481)" />
      <path id="path112" d="m 0,0 c 0.335,16.056 0.091,32.111 -0.263,48.163 -0.079,3.561 1.402,5.273 5.007,5.242 5.427,-0.047 10.865,-0.194 16.279,0.081 4.747,0.242 5.616,-3.02 5.884,-6.325 0.298,-3.671 -2.342,-4.497 -5.608,-4.629 -4.964,-0.199 -8.723,-2.239 -8.906,-7.896 -0.164,-5.049 2.881,-7.022 7.501,-7.516 3.928,-0.42 5.548,-2.644 5.564,-6.744 0.018,-4.743 -2.841,-5.395 -6.409,-5.612 -8.611,-0.522 -5.594,-7.36 -5.939,-11.803 -0.366,-4.701 2.951,-4.765 6.84,-3.913 3.636,0.797 7.723,0.374 7.372,-4.839 -0.261,-3.875 -0.648,-8.273 -6.805,-7.68 -4.452,0.429 -8.997,0.211 -13.478,-0.077 -5.319,-0.342 -8.251,1.137 -7.101,7.172 C 0.329,-4.322 0,-2.129 0,0" style="fill:#494f57;fill-opacity:1;fill-rule:nonzero;stroke:none" transform="matrix(1.3333333,0,0,-1.3333333,455.7656,4147.2265)" />
      </g></svg>