<?xml version='1.0' encoding='utf-8'?>
<svg xmlns="http://www.w3.org/2000/svg" version="1.1" width="1747.840" height="3014.714" viewBox="783.721 564.916 1747.840 3014.714"><g id="object"><path id="path3" d="M 0,0 C -113.546,14.706 -211.945,63.452 -297.85,139.5 -323.084,109.387 -328.272,79.832 -313.228,48.003 -298.347,16.521 -272.995,0.028 -237.703,0.011 -158.469,-0.025 -79.234,0 0,0 M 408.155,879.464 C 523.151,767.966 574.563,631.702 564.444,472.5 548.944,228.652 350.664,25.904 106.926,1.551 c 44.101,-2.066 88.32,-2.734 132.285,-6.43 252.893,-21.256 453.497,-253.888 454.153,-508.348 0.717,-278.251 -200.714,-497.412 -501.564,-527.479 -240.568,-24.041 -434.1,67.884 -602.958,228.76 -14.583,13.893 -28.904,28.064 -43.62,41.813 -37.685,35.209 -66.174,39.096 -112.165,15.959 -4.162,-2.093 -9.062,-2.72 -13.62,-4.027 -2.002,2.47 -4.005,4.941 -6.007,7.412 75.982,76.218 151.964,152.436 230.959,231.677 -23.563,5.156 -42.853,8.583 -61.71,13.626 -191.336,51.167 -255.43,286.514 -116.575,428.104 74.837,76.312 150.054,152.251 225.109,228.368 -208.986,216.54 -188.174,539.168 8.081,727.466 199.859,191.756 516.628,191.435 709.462,0.412 z" style="fill:#231916;fill-opacity:1;fill-rule:nonzero;stroke:none" transform="matrix(1.3333333,0,0,-1.3333333,1601.0709,2180.9632)" />
      <path id="path4" d="m 0,0 c 25.351,27.594 19.029,53.059 -4.517,78.103 -17.385,18.49 -35.856,36.422 -50.381,57.043 -32.587,46.262 -29.749,104.944 4.597,147.789 32.916,41.061 91.377,56.725 140.781,37.721 50.226,-19.319 83.502,-68.55 76.723,-122.487 C 164.322,175.243 154.586,149.792 139.818,132.41 102.213,88.148 60.242,47.565 19.321,6.2 15.105,1.938 6.191,2.324 -0.573,0.577 -0.602,0.601 0,0 0,0" style="fill:#231916;fill-opacity:1;fill-rule:nonzero;stroke:none" transform="matrix(1.3333333,0,0,-1.3333333,2146.0796,1009.1447)" />
      </g></svg>