<?xml version='1.0' encoding='utf-8'?>
<svg xmlns="http://www.w3.org/2000/svg" version="1.1" width="152.805" height="173.630" viewBox="2318.450 622.638 152.805 173.630"><defs id="defs1"><clipPath clipPathUnits="userSpaceOnUse" id="clipPath46">
      <path d="M 0,3370.3901 H 2383.9401 V -2.5000001e-5 H 0 Z" id="path46" />
    </clipPath>
  </defs><g id="object"><path id="path22" d="m 0,0 c -0.012,-12.264 0.573,-24.566 -0.21,-36.779 -0.557,-8.707 3.649,-22.396 -10.796,-22.337 -12.26,0.05 -10.475,12.752 -9.682,20.669 2.395,23.912 -8.802,29.768 -30.876,29.64 -22.604,-0.131 -35.453,-5.51 -33.095,-30.956 0.727,-7.839 2.456,-19.998 -10.799,-19.558 -10.826,0.36 -9.521,10.985 -9.611,18.477 -0.337,28.029 -0.335,56.064 -0.055,84.094 0.075,7.519 -1.341,17.728 9.549,18.584 11.532,0.906 10.334,-9.334 11.168,-16.944 3.361,-30.679 21.144,-41.651 51.178,-32.456 14.264,4.367 11.004,15.678 12.258,25.662 1.105,8.792 -3.699,23.129 9.777,23.282 15.836,0.18 10.23,-15.26 10.97,-24.605 C 0.741,24.586 0.012,12.264 0,0" style="fill:#424242;fill-opacity:1;fill-rule:nonzero;stroke:none" transform="matrix(1.3333333,0,0,-1.3333333,2464.8865,711.15867)" />
      </g></svg>