<?xml version='1.0' encoding='utf-8'?>
<svg xmlns="http://www.w3.org/2000/svg" version="1.1" width="985.609" height="102.156" viewBox="1119.260 3894.220 985.609 102.156"><g id="object"><path id="path1336" d="M 7.3827891,-3.265625e-4 H 15.832008 V -26.226889 c 1.945312,0.480469 4.277344,0.574219 6.808594,0.574219 8.25,0 15.539062,-2.425782 20.003906,-7.183594 3.304687,-3.398438 5.050781,-8.0625 5.050781,-13.992188 0,-5.824218 -2.132812,-10.582031 -5.730469,-13.699218 -3.878906,-3.492188 -10.007812,-5.4375 -18.363281,-5.4375 -6.796875,0 -12.140625,0.585937 -16.2187499,1.265625 z M 15.832008,-58.582358 c 1.464844,-0.386719 4.277344,-0.679687 7.96875,-0.679687 9.328125,0 15.445312,4.183593 15.445312,12.820312 0,9.035156 -6.210937,13.992188 -16.417968,13.992188 -2.8125,0 -5.144532,-0.1875 -6.996094,-0.679688 z m 84.911132,20.882813 H 75.290016 v -20.683594 h 26.917964 v -7.089844 H 66.840797 V -3.265625e-4 H 103.66111 V -7.0901703 H 75.290016 V -30.703452 h 25.453124 z m 35.65723,37.6992184375 h 8.55468 V -58.289389 h 20.00391 v -7.183594 h -48.46875 v 7.183594 h 19.91016 z M 213.92576,-37.699545 h -25.45313 v -20.683594 h 26.91797 v -7.089844 H 180.02341 V -3.265625e-4 h 36.82032 V -7.0901703 h -28.3711 V -30.703452 h 25.45313 z m 21.6709,37.6992184375 h 8.44922 V -28.37142 h 7.96875 c 7.67578,0.292968 11.16796,3.691406 13.11328,12.726562 1.85156,8.1679689 3.30468,13.7929689 4.37109,15.6445314375 h 8.74219 C 276.88181,-2.5315766 275.33494,-8.8362641 273.19041,-17.976889 c -1.54688,-6.796875 -4.5586,-11.460938 -9.60938,-13.207031 v -0.292969 c 6.89063,-2.332031 12.32813,-8.0625 12.32813,-16.710938 0,-5.050781 -1.83985,-9.515625 -5.14453,-12.433593 -4.07813,-3.691407 -9.91407,-5.34375 -18.94922,-5.34375 -5.82422,0 -11.94141,0.492187 -16.21875,1.359375 z M 244.04588,-58.676108 c 1.35937,-0.386719 4.27734,-0.773437 8.35546,-0.773437 8.94141,0.09375 15.0586,3.785156 15.0586,12.234375 0,7.476562 -5.73047,12.433593 -14.76563,12.433593 h -8.64843 z m 93.36621,36.328125 c 0,12.8320314 -4.46485,16.2304689 -12.04688,16.2304689 -2.8125,0 -5.34375,-0.5859375 -7.08984,-1.265625 l -1.26563,6.90234379 c 2.14453,0.8671875 5.92969,1.54687501 9.03516,1.54687501 11.27344,0 19.8164,-5.34375 19.8164,-22.7343747 v -43.804688 h -8.44921 z m 64.12207,1.757813 6.99609,20.5898434375 h 9.03516 L 395.21775,-65.472983 H 385.02244 L 362.76853,-3.265625e-4 h 8.74219 L 378.31931,-20.59017 Z m -21.46875,-6.609375 6.41015,-18.949219 c 1.26563,-3.984375 2.33203,-7.96875 3.30469,-11.847656 h 0.1875 c 0.97266,3.785156 1.94531,7.675781 3.41016,11.953125 l 6.41015,18.84375 z m 97.43554,18.3632809 c -3.39843,1.6523438 -8.63672,2.71875 -13.79297,2.71875 -15.92578,0 -25.16015,-10.3007809 -25.16015,-26.3320309 0,-17.191407 10.20703,-27 25.54687,-27 5.44922,0 10.00782,1.160156 13.21875,2.71875 l 2.03907,-6.902344 c -2.23829,-1.160156 -7.38282,-2.917969 -15.53907,-2.917969 -20.30859,0 -34.20703,13.898438 -34.20703,34.394531 0,21.46875 13.89844,33.12890669 32.35547,33.12890669 7.96875,0 14.17969,-1.55859375 17.29688,-3.10546879 z m 20.11817,8.8359375375 h 8.44922 V -24.972983 l 6.22265,-7.183594 21.5625,32.1562504375 H 543.8613 L 518.31443,-37.699545 542.02146,-65.472983 h -10.5 l -20.00391,24.574219 c -1.65234,2.132812 -3.41015,4.464844 -5.15625,6.996094 h -0.29296 v -31.570313 h -8.44922 z M 554.74509,-3.2112641 c 3.50391,2.33203129 10.39454,4.18359379 16.71094,4.18359379 15.44531,0 22.92188,-8.74218749 22.92188,-18.84374969 0,-9.621094 -5.625,-14.964844 -16.69922,-19.242188 -9.03516,-3.492187 -13.01953,-6.503906 -13.01953,-12.621094 0,-4.476562 3.39843,-9.820312 12.33984,-9.820312 5.91797,0 10.28906,1.945312 12.43359,3.117187 l 2.33204,-6.902343 c -2.91797,-1.652344 -7.78125,-3.210938 -14.48438,-3.210938 -12.72656,0 -21.17578,7.582031 -21.17578,17.777344 0,9.234375 6.60937,14.777344 17.29687,18.5625 8.83594,3.398437 12.33985,6.890625 12.33985,13.019531 0,6.597656 -5.05078,11.1679689 -13.69922,11.1679689 -5.83594,0 -11.36719,-1.9453125 -15.15234,-4.2773439 z M 640.2363,-66.551108 c -17.48437,0 -30.41015,13.605469 -30.41015,34.394531 0,19.816407 12.15234,33.2226567 29.4375,33.2226567 16.71094,0 30.41015,-11.9414067 30.41015,-34.4882817 0,-19.429687 -11.55468,-33.128906 -29.4375,-33.128906 z m -0.38671,6.902344 c 14.08593,0 20.88281,13.605469 20.88281,26.613281 0,14.871094 -7.57031,27.2109377 -20.97656,27.2109377 -13.3125,0 -20.89454,-12.5390627 -20.89454,-26.5312497 0,-14.367188 6.9961,-27.292969 20.98829,-27.292969 z M 696.39841,-3.265625e-4 V -27.984702 c 0,-10.875 -0.19921,-18.738281 -0.67968,-27 l 0.29297,-0.09375 c 3.30468,7.089844 7.67578,14.566407 12.23437,21.855469 l 20.78906,33.2226564375 h 8.55469 V -65.472983 h -7.96875 v 27.386719 c 0,10.207031 0.19922,18.175781 0.97266,26.917969 l -0.19922,0.09375 c -3.10547,-6.703125 -6.89063,-13.605469 -11.75391,-21.28125 l -20.97656,-33.117188 h -9.23438 V -3.265625e-4 Z m 0,0" style="fill:#9f9fa0;fill-opacity:1;fill-rule:nonzero;stroke:none" aria-label="PETER JACKSON" transform="matrix(1.3333333,0,0,1.3333333,1115.418,3988.9575)" />
      </g></svg>