<?xml version='1.0' encoding='utf-8'?>
<svg xmlns="http://www.w3.org/2000/svg" version="1.1" width="510.447" height="1155.050" viewBox="648.360 1624.850 510.447 1155.050"><g id="object"><path id="path8" d="m 0,0 c -2.746,0.055 -5.491,0.111 -8.237,0.166 -6.463,1.056 -9.84,-2.654 -9.74,-8.232 0.213,-11.917 -2.563,-23.996 1.447,-35.756 0.405,-31.254 0.394,-62.519 1.311,-93.758 1.384,-47.14 0.947,-94.274 0.959,-141.418 0.008,-32.973 1.601,-65.944 2.341,-98.919 0.103,-4.579 -0.626,-9.176 -0.97,-13.761 -0.351,-0.108 -0.702,-0.221 -1.054,-0.333 0.29,-0.52 0.58,-1.04 0.871,-1.561 0.434,-4.813 0.868,-9.626 1.301,-14.434 -3.218,-1.481 -3.196,-2.97 -0.006,-4.461 -0.472,-6.417 -0.945,-12.834 -1.417,-19.248 -0.86,-0.58 -2.314,-1.044 -2.459,-1.77 -0.326,-1.627 0.265,-3.158 2.477,-3.036 -0.159,-3.662 -0.317,-7.325 -0.479,-10.979 -5.064,-3.614 -4.481,-7.224 0.02,-10.826 -0.012,-19.032 -0.024,-38.064 -0.036,-57.09 -5.578,-5.459 -1.075,-10.992 -0.111,-16.5 -0.217,-0.693 -0.517,-1.349 -0.899,-1.967 -0.751,0.278 -1.69,1.454 -1.993,-0.415 0.669,0.098 1.337,0.196 2.005,0.294 0.384,-6.436 0.768,-12.871 1.151,-19.3 -4.241,-3.81 -4.041,-7.656 -0.08,-11.528 -0.27,-3.935 -0.539,-7.871 -0.811,-11.801 -4.488,-4.179 -1.94,-9.489 -1.959,-14.221 -0.037,-8.957 -1.046,-17.451 -6.671,-24.815 -1.609,-0.03 -3.219,-0.061 -4.829,-0.091 -3.675,2.874 -8.003,1.993 -12.125,1.992 -30.573,-0.003 -61.145,-0.068 -91.717,-0.13 -12.35,-0.025 -24.453,8.679 -25.234,19.544 -1.107,15.419 -2.492,31.042 -1.162,46.353 1.602,18.449 4.538,36.408 3.993,55.377 -1.182,41.158 2.27,82.415 1.26,123.694 -0.336,13.754 3.342,27.879 1.298,41.24 -2.031,13.276 -2.91,26.778 -2.137,39.562 1.439,23.805 -0.315,47.495 0.367,71.234 0.851,29.598 -0.894,59.265 -1.297,88.906 -0.555,40.701 -0.718,81.427 -4.189,122.008 -2.503,29.254 -3.47,58.617 -0.332,87.671 3.655,33.832 4.313,67.496 2.404,101.37 -1.014,18.006 -0.792,36.028 5.432,53.364 1.504,-0.024 3.008,-0.047 4.512,-0.07 9.442,-6.297 18.864,-5.81 28.269,0.085 2.25,-0.191 4.5,-0.382 6.749,-0.573 3.738,-4.53 7.475,-4.99 11.209,0.007 9.174,2.562 18.151,-0.724 27.232,-0.923 3.29,-3.312 5.894,-2.755 7.861,1.395 2.239,-0.084 4.479,-0.169 6.719,-0.253 3.716,-5.348 8.207,-4.832 13.04,-1.721 3.498,0.533 6.996,1.066 10.491,1.599 4.454,-5.532 11.896,-3.172 17.185,-6.502 0.356,-6.048 0.713,-12.095 1.069,-18.14 -3.388,-9.348 -4.313,-18.576 1.389,-27.468 0.328,-10.988 0.657,-21.976 0.986,-32.964 -2.279,-1.605 -2.301,-3.227 -0.033,-4.864 -0.321,-11.057 -0.642,-22.114 -0.963,-33.166 -5.741,-6.429 -8.104,-12.685 0.968,-18.337 0.674,-0.584 1.347,-1.168 2.017,-1.75 0.088,-1.591 0.896,-2.174 2.435,-1.725 21.176,-4.252 42.596,-1.788 63.904,-2.225 31.76,-0.651 63.546,0.228 95.14,-4.65 22.6,-3.489 37.198,-17.537 49.738,-34.915 4.192,-13.303 10.889,-26.041 9.265,-40.696 -0.032,-0.286 1.355,-0.729 2.081,-1.099 -0.068,-2.699 -0.135,-5.399 -0.201,-8.093 -4.196,-14.259 -1.485,-28.841 -1.478,-43.234 0.003,-7.96 -3.049,-16.521 2.057,-24.148 0.01,-5.916 0.02,-11.832 0.03,-17.744 -2.469,-5.362 -2.24,-10.655 0.43,-15.883 0.086,-1.511 0.172,-3.023 0.258,-4.531 -0.113,-0.918 -0.225,-1.84 -0.336,-2.763 -0.07,-2.419 -0.14,-4.839 -0.212,-7.251 -2.158,-16.08 -1.836,-32.129 0.765,-48.141 -0.032,-4.133 -0.064,-8.265 -0.096,-12.397 -0.572,-1.962 -1.669,-3.932 -1.638,-5.884 0.936,-58.561 2.107,-117.119 2.952,-175.681 0.331,-22.931 -0.763,-45.902 0.156,-68.8 0.729,-18.153 -4.313,-35.635 -4.193,-53.624 0.276,-41.091 0.242,-82.184 0.736,-123.272 0.109,-9.139 -1.877,-15.473 -12.168,-16.218 -1.975,-0.053 -3.95,-0.106 -5.925,-0.16 -23.317,1.651 -46.635,3.88 -69.946,-0.084 -1.914,0.049 -3.829,0.098 -5.744,0.147 -6.074,4.011 -12.955,2.663 -19.582,2.906 -6.697,0.246 -13.398,0.487 -20.098,0.482 -6.246,-0.005 -8.954,2.522 -8.866,9.112 0.266,20.114 -0.07,40.235 0.049,60.352 0.302,51.054 1.32,102.111 0.927,153.158 -0.385,49.8 -1.566,99.614 -3.653,149.369 -0.73,17.423 2.558,35.227 -3.307,52.349 0.103,1.85 0.207,3.7 0.311,5.549 3.685,16.825 4.101,33.658 0.117,50.502 -0.129,1.858 -0.257,3.717 -0.386,5.576 3.16,6.531 4.161,13.085 0.203,19.69 -0.103,4.343 -0.206,8.687 -0.31,13.03 2.41,4.254 1.882,8.844 1.761,13.468 -0.506,19.279 -1.085,38.562 -1.185,57.845 C 61.247,-0.554 56.99,3.463 30.466,0.987 29.668,0.913 28.911,0.395 28.134,0.084 23.751,0.225 19.368,0.365 14.985,0.505 9.858,4.268 4.97,0.926 0,0" style="fill:#0c2f31;fill-opacity:1;fill-rule:nonzero;stroke:none" transform="matrix(1.3333333,0,0,-1.3333333,869.18693,1946.6488)" />
      </g></svg>