<?xml version='1.0' encoding='utf-8'?>
<svg xmlns="http://www.w3.org/2000/svg" version="1.1" width="3047.010" height="4317.010" viewBox="83.793 86.160 3047.010 4317.010"><defs id="defs1"><clipPath clipPathUnits="userSpaceOnUse" id="clipPath9">
      <path d="M 0,3370.3901 H 2383.9401 V -2.5000001e-5 H 0 Z" id="path9" />
    </clipPath>
  </defs><g id="object"><path id="path3" d="m 0,0 c 11.662,29.231 40.785,42.072 63.621,55.717 134.23,80.21 253.236,181.701 382.726,268.331 183.031,122.45 360.223,253.17 539.42,381.048 120.824,86.223 244.143,169.284 360.96,260.645 56.483,44.175 116.627,81.191 176.773,118.632 28.943,18.016 51.495,43.129 76.342,64.29 42.577,36.263 92.082,60.131 137.228,90.883 119.938,81.695 237.495,166.54 354.916,251.689 51.235,37.154 103.468,72.933 154.266,108.646 10.047,-6.978 7.294,-14.222 7.3,-20.274 0.51,-524.015 0.864,-1048.032 1.156,-1572.047 0.01,-7.982 -0.896,-15.965 -1.374,-23.947 -155.941,0.518 -311.836,0.87 -467.814,-1.948 -180.875,-3.268 -361.887,1.318 -542.842,2.107 -101.304,0.442 -202.614,0.286 -303.919,-0.111 -13.818,-0.054 -30.162,5.503 -39.449,-11.446 l -2.303,1.939 c -6.663,-0.002 -13.326,-0.004 -19.99,-0.006 0.033,-2.391 -1.145,-3.575 -3.537,-3.553 -6.635,16.758 -21.417,13.23 -34.238,13.114 -31.963,-0.287 -63.949,-2.533 -95.876,-1.81 -96.393,2.183 -192.837,8.553 -289.098,6.297 -28.744,-0.674 -70.503,12.418 -88.965,-35.325 2.381,28.378 -10.749,31.478 -31.081,31.543 -37.205,0.118 -74.811,2.423 -111.661,2.167 -60.096,-0.417 -121.826,8.086 -180.612,-13.639 0,0 -0.344,-0.68 -0.342,-0.676 C 33.279,-10.174 6.052,-20.973 0,0" style="fill:#393b40;fill-opacity:1;fill-rule:nonzero;stroke:none" transform="matrix(1.3333333,0,0,-1.3333333,117.67373,2225.3344)" />
      <path id="path4" d="M 0,0 C 6.052,-20.973 33.279,-10.174 41.607,-27.734 20.207,-66.625 -0.539,-39.293 -15.474,-23.903 -31.568,-7.319 -7.535,-6.84 0,0" style="fill:#2b2727;fill-opacity:1;fill-rule:nonzero;stroke:none" transform="matrix(1.3333333,0,0,-1.3333333,117.67373,2225.3344)" />
      <path id="path5" d="M 0,0 C -6.664,-12.503 -13.318,-8.597 -19.979,0.003 -13.327,-0.004 -6.663,-0.002 0,0" style="fill:#2b2727;fill-opacity:1;fill-rule:nonzero;stroke:none" transform="matrix(1.3333333,0,0,-1.3333333,1313.6837,2259.796)" />
      <path id="path6" d="m 0,0 0.936,-0.024 -0.63,260.417 c 0.131,124.251 0.249,248.502 0.349,372.753 0.053,66.781 -1.126,133.562 -1.735,200.344 -98.413,0.327 -196.808,0.585 -295.217,0.025 l -702.014,0.06 c -4.475,0.024 -8.95,0.055 -13.425,0.075 -94.992,0.414 -189.987,0.292 -284.979,-0.05 l -21.878,0.002 c -7.219,0.303 -14.918,1.548 -21.826,0.002 l -56.852,0.004 c -5.303,0.738 -11.085,0.138 -16.578,0.002 l -158.858,0.013 c -75.851,2.664 -151.702,6.225 -227.439,4.45 -18.728,-0.439 -42.98,4.961 -62.715,-4.425 l -45.664,0.004 c -3.53,0.476 -7.44,0.625 -11.668,0.639 -37.204,0.118 -74.811,2.423 -111.661,2.167 -45.881,-0.318 -92.714,4.548 -138.458,-2.784 l -105.013,0.009 57.041,-40.838 c -2.093,-0.665 -4.191,-1.387 -6.297,-2.222 49.944,-35.424 95.501,-68.156 141.489,-100.273 130.061,-90.833 258.779,-183.578 388.534,-274.843 13.385,-9.414 26.766,-18.836 40.141,-28.264 93.098,-65.62 185.968,-131.562 278.731,-197.656 l 222.742,-159.471 0.623,-0.017 c 272.559,-194.919 544.87,-390.196 819.639,-582.014 97.603,-68.137 193.727,-138.391 290.704,-207.428 10.599,-7.545 21.55,-23.652 33.136,-18.738 15.919,6.751 7.604,26.314 7.633,40.058 C -0.702,-492.016 -0.314,-246.008 0,0" style="fill:#2b2727;fill-opacity:1;fill-rule:nonzero;stroke:none" transform="matrix(1.3333333,0,0,-1.3333333,3123.5596,3358.5039)" />
      <path id="path7" d="M 32.882331,-19.761091 H 20.483894 v 3.902373 h 7.652344 v 11.2312216 c -1.113282,0.5472841 -3.292969,0.9993883 -6.480469,0.9993883 -8.765625,0 -14.5078127,-5.6394056 -14.5078127,-15.1811849 0,-9.434702 5.9765627,-15.133595 15.1289057,-15.133595 3.796876,0 6.304688,0.725746 8.320313,1.618057 l 1.171875,-3.961861 c -1.617187,-0.773336 -5.027344,-1.725134 -9.386719,-1.725134 -12.6093748,0 -20.3203122,8.197364 -20.3671872,19.428585 0,5.85356 2.0039062,10.8861947 5.2382812,14.0033345 3.691406,3.5216542 8.378906,4.97314678 14.074219,4.97314678 5.074219,0 9.375,-1.28492788 11.554687,-2.07016158 z m 30.369141,7.150385 c 0.05859,-0.511591 0.164062,-1.284928 0.164062,-2.296213 0,-4.96125 -2.34375,-12.730304 -11.167968,-12.730304 -7.863282,0 -12.667969,6.424639 -12.667969,14.574413 0,8.1497741 4.96875,13.622615 13.289062,13.622615 4.300782,0 7.253907,-0.89231102 8.988282,-1.6775447 l -0.84375,-3.5097567 c -1.839844,0.7733362 -3.960938,1.3920052 -7.476563,1.3920052 -4.910156,0 -9.152344,-2.7364205 -9.269531,-9.3752148 z M 44.325691,-16.13236 c 0.386718,-3.402679 2.566406,-7.983209 7.535156,-7.983209 5.53125,0 6.867187,4.854172 6.808594,7.983209 z M 70.619636,6.2342797e-4 h 4.792969 V -16.298925 c 0,-0.832823 0.117187,-1.677544 0.398437,-2.403291 0.785156,-2.450881 3.011719,-4.913659 6.082031,-4.913659 3.738282,0 5.636719,3.129037 5.636719,7.424028 V 6.2342797e-4 H 92.33448 V -16.691541 c 0,-0.892311 0.164062,-1.784623 0.386718,-2.450881 0.84375,-2.403291 3.023438,-4.473453 5.8125,-4.473453 3.960942,0 5.859372,3.129037 5.859372,8.316339 V 6.2342797e-4 h 4.80469 V -15.906308 c 0,-9.375214 -5.30859,-11.730915 -8.88281,-11.730915 -2.566408,0 -4.347658,0.678156 -5.976564,1.903596 -1.113281,0.832824 -2.167969,2.010675 -3.011719,3.521655 h -0.105469 c -1.171875,-3.188525 -3.972656,-5.425251 -7.652343,-5.425251 -4.464844,0 -6.972657,2.403291 -8.484375,4.973146 h -0.164063 l -0.222656,-4.354477 H 70.39698 c 0.164062,2.236726 0.222656,4.521042 0.222656,7.31695 z m 67.101564,0 C 137.38135,-1.843486 137.27589,-4.1278022 137.27589,-6.4716059 V -16.584464 c 0,-5.413354 -2.01563,-11.052759 -10.27735,-11.052759 -3.41015,0 -6.64453,0.951798 -8.88281,2.403291 l 1.125,3.236114 c 1.89844,-1.22544 4.52344,-2.010674 7.03125,-2.010674 5.53125,0 6.14062,4.021348 6.14062,6.258075 v 0.559181 c -10.4414,-0.05949 -16.24218,3.509757 -16.24218,10.0414738 0,3.914271 2.78906,7.7690546 8.26172,7.7690546 3.85546,0 6.75,-1.9035968 8.26171,-4.0213483 h 0.16407 l 0.39843,3.40267932797 z M 132.52979,-9.100949 c 0,0.4996942 -0.11719,1.0588757 -0.28125,1.5704674 -0.78515,2.2843162 -3.01172,4.5210425 -6.53906,4.5210425 -2.50781,0 -4.62891,-1.51098 -4.62891,-4.6876072 0,-5.2586867 6.08203,-6.1985877 11.44922,-6.0915097 z m 13.78418,9.10157242797 h 4.91016 V -16.239437 c 0,-0.844721 0.11719,-1.677545 0.33984,-2.296214 0.83203,-2.73642 3.33985,-5.020737 6.58594,-5.020737 4.62891,0 6.24609,3.628732 6.24609,7.98321 V 6.2342797e-4 h 4.92188 V -16.13236 c 0,-9.268137 -5.8125,-11.504863 -9.55078,-11.504863 -4.46485,0 -7.59375,2.522265 -8.92969,5.080224 h -0.11719 l -0.28125,-4.461555 h -4.34765 c 0.16406,2.236726 0.22265,4.521042 0.22265,7.31695 z M 191.46925,-37.619209 v 22.153108 c 0,11.6714282 5.8125,16.0853934 13.51171,16.0853934 8.15625,0 14.23829,-4.7470946 14.23829,-16.2995484 v -21.938953 h -4.91016 v 22.272083 c 0,8.3163386 -3.57422,11.99266 -9.16406,11.99266 -5.01563,0 -8.75391,-3.5692441 -8.75391,-11.99266 V -37.619209 Z M 228.59718,6.2342797e-4 h 4.91015 V -16.239437 c 0,-0.844721 0.11719,-1.677545 0.33985,-2.296214 0.83203,-2.73642 3.33984,-5.020737 6.58593,-5.020737 4.62891,0 6.2461,3.628732 6.2461,7.98321 V 6.2342797e-4 h 4.92187 V -16.13236 c 0,-9.268137 -5.8125,-11.504863 -9.55078,-11.504863 -4.46484,0 -7.59375,2.522265 -8.92969,5.080224 h -0.11718 l -0.28125,-4.461555 h -4.34766 c 0.16406,2.236726 0.22266,4.521042 0.22266,7.31695 z m 37.00781,0 V -27.018554 h -4.91016 V 6.2342797e-4 Z M 263.14405,-37.678697 c -1.78125,0 -3.07031,1.344416 -3.07031,3.06955 0,1.677545 1.23047,3.010063 2.96484,3.010063 1.95703,0 3.17578,-1.332518 3.12891,-3.010063 0,-1.725134 -1.17188,-3.06955 -3.02344,-3.06955 z m 8.37891,10.660143 10.27734,27.01917742797 h 4.6875 L 297.09327,-27.018554 h -5.13281 l -5.25,15.181185 c -0.89063,2.4627779 -1.67578,4.6876068 -2.29688,6.9243331 h -0.16406 c -0.5625,-2.2367263 -1.27734,-4.4615552 -2.17969,-6.9243331 l -5.29687,-15.181185 z m 52.47656,14.407848 c 0.0586,-0.511591 0.16406,-1.284928 0.16406,-2.296213 0,-4.96125 -2.34375,-12.730304 -11.16797,-12.730304 -7.86328,0 -12.66797,6.424639 -12.66797,14.574413 0,8.1497741 4.96875,13.622615 13.28907,13.622615 4.30078,0 7.2539,-0.89231102 8.98828,-1.6775447 l -0.84375,-3.5097567 c -1.83985,0.7733362 -3.96094,1.3920052 -7.47656,1.3920052 -4.91016,0 -9.15235,-2.7364205 -9.26954,-9.3752148 z m -18.92578,-3.521654 c 0.38672,-3.402679 2.5664,-7.983209 7.53515,-7.983209 5.53125,0 6.86719,4.854172 6.8086,7.983209 z M 331.36768,6.2342797e-4 h 4.85157 V -14.407225 c 0,-0.832824 0.11718,-1.618058 0.22265,-2.284316 0.66797,-3.688219 3.12891,-6.305665 6.58594,-6.305665 0.67969,0 1.17187,0.05949 1.67578,0.166565 v -4.62812 c -0.44531,-0.118975 -0.83203,-0.178462 -1.39453,-0.178462 -3.29297,0 -6.24609,2.296213 -7.47656,5.924945 h -0.22266 l -0.16406,-5.306276 h -4.30078 c 0.16406,2.510368 0.22265,5.246788 0.22265,8.435313 z M 348.84034,-1.2843044 c 1.89844,1.1183631 4.62891,1.8441094 7.59375,1.8441094 6.42187,0 10.10156,-3.3550894 10.10156,-8.0902866 0,-4.0213484 -2.40234,-6.3651524 -7.08984,-8.1497744 -3.51563,-1.344415 -5.13281,-2.355701 -5.13281,-4.58053 0,-2.010674 1.61718,-3.688218 4.52343,-3.688218 2.50782,0 4.46485,0.892311 5.51953,1.570467 l 1.23047,-3.581142 c -1.51172,-0.892311 -3.90234,-1.677544 -6.64453,-1.677544 -5.80078,0 -9.32812,3.581141 -9.32812,7.935619 0,3.236115 2.29687,5.913048 7.14843,7.65008 3.63282,1.332518 5.02735,2.6174455 5.02735,4.9612492 0,2.2367263 -1.67578,4.0213483 -5.25,4.0213483 -2.44922,0 -5.02735,-1.0112858 -6.46875,-1.9511868 z M 393.38917,6.2342797e-4 C 393.04932,-1.843486 392.94385,-4.1278022 392.94385,-6.4716059 V -16.584464 c 0,-5.413354 -2.01562,-11.052759 -10.27734,-11.052759 -3.41016,0 -6.64453,0.951798 -8.88281,2.403291 l 1.125,3.236114 c 1.89844,-1.22544 4.52344,-2.010674 7.03125,-2.010674 5.53125,0 6.14062,4.021348 6.14062,6.258075 v 0.559181 c -10.4414,-0.05949 -16.24218,3.509757 -16.24218,10.0414738 0,3.914271 2.78906,7.7690546 8.26171,7.7690546 3.85547,0 6.75,-1.9035968 8.26172,-4.0213483 h 0.16407 l 0.39843,3.40267932797 z M 388.19776,-9.100949 c 0,0.4996942 -0.11719,1.0588757 -0.28125,1.5704674 -0.78516,2.2843162 -3.01172,4.5210425 -6.53906,4.5210425 -2.50781,0 -4.62891,-1.51098 -4.62891,-4.6876072 0,-5.2586867 6.08203,-6.1985877 11.44922,-6.0915097 z m 13.78418,9.10157242797 h 4.91016 V -39.629884 h -4.91016 z M 448.87745,-21.652791 h -14.625 v -11.89748 h 15.45703 v -4.068938 H 429.38917 V 6.2342797e-4 h 21.16406 V -4.0802123 H 434.25245 V -17.64334 h 14.625 z m 5.74219,-5.365763 9.16406,13.229998 -9.60938,13.78917942797 h 5.41407 L 463.50245,-6.078989 c 0.99609,-1.6180573 1.94531,-3.0695499 2.84765,-4.699505 h 0.10547 c 0.94922,1.6299551 1.83985,3.1290376 2.90625,4.699505 l 3.96094,6.07961242797 h 5.58984 L 469.42042,-13.955121 l 9.21093,-13.063433 h -5.30859 l -3.79687,5.746483 c -0.89063,1.451492 -1.78125,2.855395 -2.67188,4.473452 h -0.17578 c -0.89063,-1.51098 -1.72266,-2.902985 -2.73047,-4.413965 l -3.85547,-5.80597 z m 30.14941,38.071937 h 4.85156 V -3.6281081 h 0.11719 c 1.61719,2.6769331 4.74609,4.2474005 8.32031,4.2474005 6.36328,0 12.28125,-4.806582 12.28125,-14.5149264 0,-8.209261 -4.92187,-13.741589 -11.44922,-13.741589 -4.40625,0 -7.59375,1.963084 -9.59765,5.258686 h -0.11719 l -0.22266,-4.640017 h -4.40625 c 0.10547,2.569855 0.22266,5.365763 0.22266,8.816033 z m 4.85156,-26.686049 c 0,-0.666259 0.17578,-1.392005 0.33985,-2.010674 0.94922,-3.676321 4.07812,-6.079612 7.41797,-6.079612 5.1914,0 8.03906,4.62812 8.03906,10.041473 0,6.1985873 -3.01172,10.4459878 -8.20313,10.4459878 -3.51562,0 -6.46875,-2.3438036 -7.37109,-5.746483 -0.10547,-0.618669 -0.22266,-1.2849278 -0.22266,-2.0106738 z m 39.46582,-12.004557 c -7.47656,0 -13.39453,5.306276 -13.39453,14.348361 0,8.5423908 5.63672,13.9081544 12.94922,13.9081544 6.53906,0 13.45313,-4.3544778 13.45313,-14.3483614 0,-8.268749 -5.23829,-13.908154 -13.00782,-13.908154 z m -0.10547,3.688219 c 5.80079,0 8.09766,5.80597 8.09766,10.3865 0,6.0796123 -3.51562,10.4935775 -8.21484,10.4935775 -4.79297,0 -8.20313,-4.4615551 -8.20313,-10.3865005 0,-5.127814 2.50781,-10.493577 8.32031,-10.493577 z m 18.53028,22.6646996 c 1.89844,1.1183631 4.6289,1.8441094 7.59375,1.8441094 6.42187,0 10.10156,-3.3550894 10.10156,-8.0902866 0,-4.0213484 -2.40234,-6.3651524 -7.08984,-8.1497744 -3.51563,-1.344415 -5.13282,-2.355701 -5.13282,-4.58053 0,-2.010674 1.61719,-3.688218 4.52344,-3.688218 2.50781,0 4.46485,0.892311 5.51953,1.570467 l 1.23047,-3.581142 c -1.51172,-0.892311 -3.90234,-1.677544 -6.64453,-1.677544 -5.80078,0 -9.32812,3.581141 -9.32812,7.935619 0,3.236115 2.29687,5.913048 7.14843,7.65008 3.63282,1.332518 5.02735,2.6174455 5.02735,4.9612492 0,2.2367263 -1.67578,4.0213483 -5.25,4.0213483 -2.44922,0 -5.02735,-1.0112858 -6.46875,-1.9511868 z M 577.54346,6.2342797e-4 V -27.018554 h -4.91015 V 6.2342797e-4 Z M 575.08253,-37.678697 c -1.78125,0 -3.07032,1.344416 -3.07032,3.06955 0,1.677545 1.23047,3.010063 2.96485,3.010063 1.95703,0 3.17578,-1.332518 3.1289,-3.010063 0,-1.725134 -1.17187,-3.06955 -3.02343,-3.06955 z m 12.84375,4.187913 v 6.47223 h -4.1836 v 3.735808 h 4.1836 v 14.7409786 c 0,3.1885247 0.5039,5.5799182 1.89843,7.0314108 1.17188,1.3444153 3.01172,2.0701616 5.3086,2.0701616 1.89844,0 3.39844,-0.28553952 4.34765,-0.66625889 l -0.22265,-3.68821891 c -0.60938,0.1665647 -1.5586,0.3331295 -2.84766,0.3331295 -2.73047,0 -3.67969,-1.8916994 -3.67969,-5.2467889 V -23.282746 h 7.03125 v -3.735808 h -7.03125 v -7.757158 z M 611.3169,6.2342797e-4 V -27.018554 h -4.91015 V 6.2342797e-4 Z M 608.85596,-37.678697 c -1.78125,0 -3.07031,1.344416 -3.07031,3.06955 0,1.677545 1.23047,3.010063 2.96485,3.010063 1.95703,0 3.17578,-1.332518 3.1289,-3.010063 0,-1.725134 -1.17187,-3.06955 -3.02344,-3.06955 z m 23.16797,10.041474 c -7.47656,0 -13.39453,5.306276 -13.39453,14.348361 0,8.5423908 5.63672,13.9081544 12.94922,13.9081544 6.53906,0 13.45313,-4.3544778 13.45313,-14.3483614 0,-8.268749 -5.23829,-13.908154 -13.00782,-13.908154 z m -0.10547,3.688219 c 5.80079,0 8.09766,5.80597 8.09766,10.3865 0,6.0796123 -3.51562,10.4935775 -8.21484,10.4935775 -4.79297,0 -8.20313,-4.4615551 -8.20313,-10.3865005 0,-5.127814 2.50781,-10.493577 8.32031,-10.493577 z M 652.34718,6.2342797e-4 h 4.91015 V -16.239437 c 0,-0.844721 0.11719,-1.677545 0.33985,-2.296214 0.83203,-2.73642 3.33984,-5.020737 6.58593,-5.020737 4.62891,0 6.2461,3.628732 6.2461,7.98321 V 6.2342797e-4 h 4.92187 V -16.13236 c 0,-9.268137 -5.8125,-11.504863 -9.55078,-11.504863 -4.46484,0 -7.59375,2.522265 -8.92969,5.080224 h -0.11718 l -0.28125,-4.461555 h -4.34766 c 0.16406,2.236726 0.22266,4.521042 0.22266,7.31695 z m 45.21386,0 h 4.86328 V -15.073484 c 1.11328,0.285539 2.44922,0.333129 3.90235,0.333129 4.74609,0 8.92968,-1.392005 11.49609,-4.128425 1.89844,-1.951187 2.90625,-4.62812 2.90625,-8.042697 0,-3.343192 -1.23047,-6.079613 -3.29297,-7.864235 -2.23828,-2.010674 -5.7539,-3.129037 -10.54687,-3.129037 -3.91407,0 -6.98438,0.33313 -9.32813,0.725746 z M 702.42432,-33.657348 c 0.83203,-0.226053 2.44922,-0.392617 4.57032,-0.392617 5.36718,0 8.88281,2.403291 8.88281,7.36454 0,5.199199 -3.57422,8.042697 -9.4336,8.042697 -1.6289,0 -2.96484,-0.118975 -4.01953,-0.392617 z M 746.19093,6.2342797e-4 C 745.85108,-1.843486 745.74561,-4.1278022 745.74561,-6.4716059 V -16.584464 c 0,-5.413354 -2.01562,-11.052759 -10.27734,-11.052759 -3.41016,0 -6.64453,0.951798 -8.88281,2.403291 l 1.125,3.236114 c 1.89843,-1.22544 4.52343,-2.010674 7.03125,-2.010674 5.53125,0 6.14062,4.021348 6.14062,6.258075 v 0.559181 c -10.4414,-0.05949 -16.24219,3.509757 -16.24219,10.0414738 0,3.914271 2.78907,7.7690546 8.26172,7.7690546 3.85547,0 6.75,-1.9035968 8.26172,-4.0213483 h 0.16406 l 0.39844,3.40267932797 z M 740.99952,-9.100949 c 0,0.4996942 -0.11719,1.0588757 -0.28125,1.5704674 -0.78516,2.2843162 -3.01172,4.5210425 -6.53906,4.5210425 -2.50782,0 -4.62891,-1.51098 -4.62891,-4.6876072 0,-5.2586867 6.08203,-6.1985877 11.44922,-6.0915097 z m 9.98437,-17.917605 10.27735,27.01917742797 h 4.6875 L 776.55421,-27.018554 h -5.13282 l -5.25,15.181185 c -0.89062,2.4627779 -1.67578,4.6876068 -2.29687,6.9243331 h -0.16406 c -0.5625,-2.2367263 -1.27735,-4.4615552 -2.17969,-6.9243331 l -5.29688,-15.181185 z M 787.21534,6.2342797e-4 V -27.018554 h -4.91016 V 6.2342797e-4 Z M 784.7544,-37.678697 c -1.78125,0 -3.07031,1.344416 -3.07031,3.06955 0,1.677545 1.23047,3.010063 2.96484,3.010063 1.95703,0 3.17578,-1.332518 3.12891,-3.010063 0,-1.725134 -1.17188,-3.06955 -3.02344,-3.06955 z m 23.16504,10.041474 c -7.47656,0 -13.39453,5.306276 -13.39453,14.348361 0,8.5423908 5.63672,13.9081544 12.94922,13.9081544 6.53906,0 13.45312,-4.3544778 13.45312,-14.3483614 0,-8.268749 -5.23828,-13.908154 -13.00781,-13.908154 z m -0.10547,3.688219 c 5.80078,0 8.09766,5.80597 8.09766,10.3865 0,6.0796123 -3.51563,10.4935775 -8.21485,10.4935775 -4.79296,0 -8.20312,-4.4615551 -8.20312,-10.3865005 0,-5.127814 2.50781,-10.493577 8.32031,-10.493577 z M 828.24561,6.2342797e-4 h 4.91016 V -16.239437 c 0,-0.844721 0.11719,-1.677545 0.33984,-2.296214 0.83203,-2.73642 3.33985,-5.020737 6.58594,-5.020737 4.62891,0 6.24609,3.628732 6.24609,7.98321 V 6.2342797e-4 h 4.92188 V -16.13236 c 0,-9.268137 -5.8125,-11.504863 -9.55078,-11.504863 -4.46485,0 -7.59375,2.522265 -8.92969,5.080224 h -0.11719 l -0.28125,-4.461555 h -4.34765 c 0.16406,2.236726 0.22265,4.521042 0.22265,7.31695 z M 873.45948,-0.10645389 c 1.61719,0.21415464 4.18359,0.44020677 7.53516,0.44020677 6.14062,0 10.38281,-1.11836315 13.00781,-3.50975668 1.89844,-1.8441095 3.1875,-4.3068879 3.1875,-7.5430022 0,-5.579919 -4.19531,-8.542391 -7.75781,-9.434702 v -0.107078 c 3.96093,-1.451492 6.36328,-4.640017 6.36328,-8.268748 0,-2.950576 -1.17188,-5.187302 -3.12891,-6.638794 -2.34375,-1.8917 -5.47266,-2.736421 -10.32422,-2.736421 -3.41015,0 -6.76172,0.33313 -8.88281,0.785234 z m 4.86328,-33.71745911 c 0.77344,-0.166565 2.0625,-0.345027 4.28906,-0.345027 4.92188,0 8.26172,1.737032 8.26172,6.150997 0,3.628732 -3.01172,6.305665 -8.14453,6.305665 h -4.40625 z m 0,15.787956 h 4.01953 c 5.29688,0 9.70313,2.129649 9.70313,7.257463 0,5.4728412 -4.62891,7.3169507 -9.65625,7.3169507 -1.72266,0 -3.11719,-0.059487 -4.06641,-0.2260522 z M 924.0962,6.2342797e-4 C 923.75635,-1.843486 923.65089,-4.1278022 923.65089,-6.4716059 V -16.584464 c 0,-5.413354 -2.01563,-11.052759 -10.27735,-11.052759 -3.41015,0 -6.64453,0.951798 -8.88281,2.403291 l 1.125,3.236114 c 1.89844,-1.22544 4.52344,-2.010674 7.03125,-2.010674 5.53125,0 6.14062,4.021348 6.14062,6.258075 v 0.559181 c -10.4414,-0.05949 -16.24218,3.509757 -16.24218,10.0414738 0,3.914271 2.78906,7.7690546 8.26172,7.7690546 3.85546,0 6.75,-1.9035968 8.26171,-4.0213483 h 0.16407 l 0.39843,3.40267932797 z M 918.90479,-9.100949 c 0,0.4996942 -0.11719,1.0588757 -0.28125,1.5704674 -0.78515,2.2843162 -3.01172,4.5210425 -6.53906,4.5210425 -2.50781,0 -4.62891,-1.51098 -4.62891,-4.6876072 0,-5.2586867 6.08203,-6.1985877 11.44922,-6.0915097 z m 13.78418,9.10157242797 h 4.85156 V -14.407225 c 0,-0.832824 0.11719,-1.618058 0.22266,-2.284316 0.66797,-3.688219 3.12891,-6.305665 6.58594,-6.305665 0.67969,0 1.17187,0.05949 1.67578,0.166565 v -4.62812 c -0.44531,-0.118975 -0.83203,-0.178462 -1.39453,-0.178462 -3.29297,0 -6.2461,2.296213 -7.47656,5.924945 h -0.22266 l -0.16406,-5.306276 h -4.30078 c 0.16406,2.510368 0.22265,5.246788 0.22265,8.435313 z M 962.94093,-27.637223 c -7.47657,0 -13.39454,5.306276 -13.39454,14.348361 0,8.5423908 5.63672,13.9081544 12.94922,13.9081544 6.53907,0 13.45313,-4.3544778 13.45313,-14.3483614 0,-8.268749 -5.23828,-13.908154 -13.00781,-13.908154 z m -0.10547,3.688219 c 5.80078,0 8.09765,5.80597 8.09765,10.3865 0,6.0796123 -3.51562,10.4935775 -8.21484,10.4935775 -4.79297,0 -8.20313,-4.4615551 -8.20313,-10.3865005 0,-5.127814 2.50782,-10.493577 8.32032,-10.493577 z m 42.14644,11.338298 c 0.059,-0.511591 0.1641,-1.284928 0.1641,-2.296213 0,-4.96125 -2.3437,-12.730304 -11.16797,-12.730304 -7.86328,0 -12.66796,6.424639 -12.66796,14.574413 0,8.1497741 4.96875,13.622615 13.28906,13.622615 4.30078,0 7.25387,-0.89231102 8.98827,-1.6775447 l -0.8437,-3.5097567 c -1.8399,0.7733362 -3.96098,1.3920052 -7.4766,1.3920052 -4.91016,0 -9.15235,-2.7364205 -9.26953,-9.3752148 z m -18.92574,-3.521654 c 0.38672,-3.402679 2.56641,-7.983209 7.53516,-7.983209 5.53125,0 6.86718,4.854172 6.80858,7.983209 z m 37.73144,-11.504863 c -7.4766,0 -13.3945,5.306276 -13.3945,14.348361 0,8.5423908 5.6367,13.9081544 12.9492,13.9081544 6.5391,0 13.4531,-4.3544778 13.4531,-14.3483614 0,-8.268749 -5.2383,-13.908154 -13.0078,-13.908154 z m -0.1055,3.688219 c 5.8008,0 8.0977,5.80597 8.0977,10.3865 0,6.0796123 -3.5156,10.4935775 -8.2149,10.4935775 -4.7929,0 -8.2031,-4.4615551 -8.2031,-10.3865005 0,-5.127814 2.5078,-10.493577 8.3203,-10.493577 z m 20.4317,23.94962742797 h 4.9101 V -16.239437 c 0,-0.844721 0.1172,-1.677545 0.3399,-2.296214 0.832,-2.73642 3.3398,-5.020737 6.5859,-5.020737 4.6289,0 6.2461,3.628732 6.2461,7.98321 V 6.2342797e-4 h 4.9219 V -16.13236 c 0,-9.268137 -5.8125,-11.504863 -9.5508,-11.504863 -4.4648,0 -7.5937,2.522265 -8.9297,5.080224 h -0.1172 l -0.2812,-4.461555 h -4.3477 c 0.1641,2.236726 0.2227,4.521042 0.2227,7.31695 z m 51.5273,0 C 1095.3013,-1.843486 1095.1958,-4.1278022 1095.1958,-6.4716059 V -16.584464 c 0,-5.413354 -2.0156,-11.052759 -10.2773,-11.052759 -3.4102,0 -6.6446,0.951798 -8.8828,2.403291 l 1.125,3.236114 c 1.8984,-1.22544 4.5234,-2.010674 7.0312,-2.010674 5.5313,0 6.1406,4.021348 6.1406,6.258075 v 0.559181 c -10.4414,-0.05949 -16.2422,3.509757 -16.2422,10.0414738 0,3.914271 2.7891,7.7690546 8.2618,7.7690546 3.8554,0 6.75,-1.9035968 8.2617,-4.0213483 h 0.164 l 0.3985,3.40267932797 z M 1090.4497,-9.100949 c 0,0.4996942 -0.1172,1.0588757 -0.2812,1.5704674 -0.7852,2.2843162 -3.0118,4.5210425 -6.5391,4.5210425 -2.5078,0 -4.6289,-1.51098 -4.6289,-4.6876072 0,-5.2586867 6.082,-6.1985877 11.4492,-6.0915097 z m 55.541,-10.660142 h -12.3984 v 3.902373 h 7.6523 v 11.2312216 c -1.1132,0.5472841 -3.2929,0.9993883 -6.4804,0.9993883 -8.7657,0 -14.5078,-5.6394056 -14.5078,-15.1811849 0,-9.434702 5.9765,-15.133595 15.1289,-15.133595 3.7968,0 6.3046,0.725746 8.3203,1.618057 l 1.1718,-3.961861 c -1.6171,-0.773336 -5.0273,-1.725134 -9.3867,-1.725134 -12.6093,0 -20.3203,8.197364 -20.3672,19.428585 0,5.85356 2.0039,10.8861947 5.2383,14.0033345 3.6914,3.5216542 8.3789,4.97314678 14.0742,4.97314678 5.0743,0 9.375,-1.28492788 11.5547,-2.07016158 z m 30.3662,7.150385 c 0.059,-0.511591 0.1641,-1.284928 0.1641,-2.296213 0,-4.96125 -2.3437,-12.730304 -11.168,-12.730304 -7.8632,0 -12.6679,6.424639 -12.6679,14.574413 0,8.1497741 4.9687,13.622615 13.289,13.622615 4.3008,0 7.2539,-0.89231102 8.9883,-1.6775447 l -0.8437,-3.5097567 c -1.8399,0.7733362 -3.961,1.3920052 -7.4766,1.3920052 -4.9102,0 -9.1523,-2.7364205 -9.2695,-9.3752148 z m -18.9257,-3.521654 c 0.3867,-3.402679 2.5664,-7.983209 7.5351,-7.983209 5.5313,0 6.8672,4.854172 6.8086,7.983209 z m 26.2939,16.13298342797 h 4.793 V -16.298925 c 0,-0.832823 0.1172,-1.677544 0.3984,-2.403291 0.7852,-2.450881 3.0117,-4.913659 6.082,-4.913659 3.7383,0 5.6368,3.129037 5.6368,7.424028 V 6.2342797e-4 h 4.8046 V -16.691541 c 0,-0.892311 0.1641,-1.784623 0.3868,-2.450881 0.8437,-2.403291 3.0234,-4.473453 5.8125,-4.473453 3.9609,0 5.8593,3.129037 5.8593,8.316339 V 6.2342797e-4 h 4.8047 V -15.906308 c 0,-9.375214 -5.3086,-11.730915 -8.8828,-11.730915 -2.5664,0 -4.3476,0.678156 -5.9765,1.903596 -1.1133,0.832824 -2.168,2.010675 -3.0118,3.521655 h -0.1054 c -1.1719,-3.188525 -3.9727,-5.425251 -7.6524,-5.425251 -4.4648,0 -6.9726,2.403291 -8.4844,4.973146 h -0.164 l -0.2227,-4.354477 h -4.3008 c 0.1641,2.236726 0.2227,4.521042 0.2227,7.31695 z m 67.1016,0 C 1250.4868,-1.843486 1250.3814,-4.1278022 1250.3814,-6.4716059 V -16.584464 c 0,-5.413354 -2.0157,-11.052759 -10.2774,-11.052759 -3.4101,0 -6.6445,0.951798 -8.8828,2.403291 l 1.125,3.236114 c 1.8984,-1.22544 4.5234,-2.010674 7.0312,-2.010674 5.5313,0 6.1407,4.021348 6.1407,6.258075 v 0.559181 c -10.4414,-0.05949 -16.2422,3.509757 -16.2422,10.0414738 0,3.914271 2.789,7.7690546 8.2617,7.7690546 3.8555,0 6.75,-1.9035968 8.2617,-4.0213483 h 0.1641 l 0.3984,3.40267932797 z M 1245.6353,-9.100949 c 0,0.4996942 -0.1172,1.0588757 -0.2813,1.5704674 -0.7851,2.2843162 -3.0117,4.5210425 -6.5391,4.5210425 -2.5078,0 -4.6289,-1.51098 -4.6289,-4.6876072 0,-5.2586867 6.0821,-6.1985877 11.4493,-6.0915097 z m 13.7871,9.10157242797 h 4.9101 V -16.239437 c 0,-0.844721 0.1172,-1.677545 0.3399,-2.296214 0.832,-2.73642 3.3398,-5.020737 6.5859,-5.020737 4.6289,0 6.2461,3.628732 6.2461,7.98321 V 6.2342797e-4 h 4.9219 V -16.13236 c 0,-9.268137 -5.8125,-11.504863 -9.5508,-11.504863 -4.4648,0 -7.5938,2.522265 -8.9297,5.080224 h -0.1172 l -0.2812,-4.461555 h -4.3477 c 0.1641,2.236726 0.2227,4.521042 0.2227,7.31695 z M 1304.5747,-37.619209 v 22.153108 c 0,11.6714282 5.8125,16.0853934 13.5117,16.0853934 8.1563,0 14.2383,-4.7470946 14.2383,-16.2995484 v -21.938953 h -4.9101 v 22.272083 c 0,8.3163386 -3.5743,11.99266 -9.1641,11.99266 -5.0156,0 -8.7539,-3.5692441 -8.7539,-11.99266 v -22.272083 z m 37.1279,37.61983242797 h 4.9102 V -16.239437 c 0,-0.844721 0.1172,-1.677545 0.3398,-2.296214 0.8321,-2.73642 3.3399,-5.020737 6.586,-5.020737 4.6289,0 6.2461,3.628732 6.2461,7.98321 V 6.2342797e-4 h 4.9219 V -16.13236 c 0,-9.268137 -5.8125,-11.504863 -9.5508,-11.504863 -4.4649,0 -7.5938,2.522265 -8.9297,5.080224 h -0.1172 l -0.2813,-4.461555 h -4.3476 c 0.1641,2.236726 0.2226,4.521042 0.2226,7.31695 z m 37.0108,0 V -27.018554 h -4.9102 V 6.2342797e-4 Z M 1376.2524,-37.678697 c -1.7812,0 -3.0703,1.344416 -3.0703,3.06955 0,1.677545 1.2305,3.010063 2.9649,3.010063 1.957,0 3.1758,-1.332518 3.1289,-3.010063 0,-1.725134 -1.1719,-3.06955 -3.0235,-3.06955 z m 8.376,10.660143 10.2774,27.01917742797 h 4.6875 L 1410.1987,-27.018554 h -5.1328 l -5.25,15.181185 c -0.8906,2.4627779 -1.6758,4.6876068 -2.2968,6.9243331 h -0.1641 c -0.5625,-2.2367263 -1.2774,-4.4615552 -2.1797,-6.9243331 l -5.2969,-15.181185 z m 52.4766,14.407848 c 0.059,-0.511591 0.1641,-1.284928 0.1641,-2.296213 0,-4.96125 -2.3438,-12.730304 -11.168,-12.730304 -7.8633,0 -12.668,6.424639 -12.668,14.574413 0,8.1497741 4.9688,13.622615 13.2891,13.622615 4.3008,0 7.2539,-0.89231102 8.9883,-1.6775447 l -0.8438,-3.5097567 c -1.8398,0.7733362 -3.9609,1.3920052 -7.4766,1.3920052 -4.9101,0 -9.1523,-2.7364205 -9.2695,-9.3752148 z m -18.9258,-3.521654 c 0.3867,-3.402679 2.5664,-7.983209 7.5352,-7.983209 5.5312,0 6.8672,4.854172 6.8086,7.983209 z m 26.294,16.13298342797 h 4.8515 V -14.407225 c 0,-0.832824 0.1172,-1.618058 0.2227,-2.284316 0.6679,-3.688219 3.1289,-6.305665 6.5859,-6.305665 0.6797,0 1.1719,0.05949 1.6758,0.166565 v -4.62812 c -0.4453,-0.118975 -0.832,-0.178462 -1.3945,-0.178462 -3.293,0 -6.2461,2.296213 -7.4766,5.924945 h -0.2227 l -0.164,-5.306276 h -4.3008 c 0.1641,2.510368 0.2227,5.246788 0.2227,8.435313 z M 1461.9458,-1.2843044 c 1.8984,1.1183631 4.6289,1.8441094 7.5938,1.8441094 6.4218,0 10.1015,-3.3550894 10.1015,-8.0902866 0,-4.0213484 -2.4023,-6.3651524 -7.0898,-8.1497744 -3.5156,-1.344415 -5.1328,-2.355701 -5.1328,-4.58053 0,-2.010674 1.6172,-3.688218 4.5234,-3.688218 2.5078,0 4.4648,0.892311 5.5195,1.570467 l 1.2305,-3.581142 c -1.5117,-0.892311 -3.9023,-1.677544 -6.6445,-1.677544 -5.8008,0 -9.3282,3.581141 -9.3282,7.935619 0,3.236115 2.2969,5.913048 7.1485,7.65008 3.6328,1.332518 5.0273,2.6174455 5.0273,4.9612492 0,2.2367263 -1.6758,4.0213483 -5.25,4.0213483 -2.4492,0 -5.0273,-1.0112858 -6.4687,-1.9511868 z m 44.5518,1.28492782797 C 1506.1577,-1.843486 1506.0523,-4.1278022 1506.0523,-6.4716059 V -16.584464 c 0,-5.413354 -2.0157,-11.052759 -10.2774,-11.052759 -3.4101,0 -6.6445,0.951798 -8.8828,2.403291 l 1.125,3.236114 c 1.8984,-1.22544 4.5234,-2.010674 7.0312,-2.010674 5.5313,0 6.1407,4.021348 6.1407,6.258075 v 0.559181 c -10.4414,-0.05949 -16.2422,3.509757 -16.2422,10.0414738 0,3.914271 2.789,7.7690546 8.2617,7.7690546 3.8555,0 6.75,-1.9035968 8.2617,-4.0213483 h 0.1641 l 0.3984,3.40267932797 z M 1501.3062,-9.100949 c 0,0.4996942 -0.1172,1.0588757 -0.2813,1.5704674 -0.7851,2.2843162 -3.0117,4.5210425 -6.5391,4.5210425 -2.5078,0 -4.6289,-1.51098 -4.6289,-4.6876072 0,-5.2586867 6.0821,-6.1985877 11.4493,-6.0915097 z m 13.7841,9.10157242797 h 4.9102 V -39.629884 h -4.9102 z M 1561.9829,-21.652791 h -14.625 v -11.89748 h 15.457 v -4.068938 h -20.3203 V 6.2342797e-4 h 21.1641 V -4.0802123 h -16.3008 V -17.64334 h 14.625 z m 5.7422,-5.365763 9.1641,13.229998 -9.6094,13.78917942797 h 5.4141 L 1576.6079,-6.078989 c 0.9961,-1.6180573 1.9453,-3.0695499 2.8477,-4.699505 h 0.1054 c 0.9493,1.6299551 1.8399,3.1290376 2.9063,4.699505 l 3.9609,6.07961242797 h 5.5899 L 1582.5259,-13.955121 l 9.2109,-13.063433 h -5.3086 l -3.7968,5.746483 c -0.8907,1.451492 -1.7813,2.855395 -2.6719,4.473452 h -0.1758 c -0.8906,-1.51098 -1.7227,-2.902985 -2.7305,-4.413965 l -3.8554,-5.80597 z m 30.1494,38.071937 h 4.8516 V -3.6281081 h 0.1172 c 1.6172,2.6769331 4.7461,4.2474005 8.3203,4.2474005 6.3633,0 12.2812,-4.806582 12.2812,-14.5149264 0,-8.209261 -4.9218,-13.741589 -11.4492,-13.741589 -4.4062,0 -7.5937,1.963084 -9.5976,5.258686 h -0.1172 l -0.2227,-4.640017 h -4.4062 c 0.1054,2.569855 0.2226,5.365763 0.2226,8.816033 z m 4.8516,-26.686049 c 0,-0.666259 0.1758,-1.392005 0.3398,-2.010674 0.9492,-3.676321 4.0782,-6.079612 7.418,-6.079612 5.1914,0 8.0391,4.62812 8.0391,10.041473 0,6.1985873 -3.0118,10.4459878 -8.2032,10.4459878 -3.5156,0 -6.4687,-2.3438036 -7.3711,-5.746483 -0.1054,-0.618669 -0.2226,-1.2849278 -0.2226,-2.0106738 z m 39.4658,-12.004557 c -7.4766,0 -13.3945,5.306276 -13.3945,14.348361 0,8.5423908 5.6367,13.9081544 12.9492,13.9081544 6.5391,0 13.4531,-4.3544778 13.4531,-14.3483614 0,-8.268749 -5.2383,-13.908154 -13.0078,-13.908154 z m -0.1055,3.688219 c 5.8008,0 8.0977,5.80597 8.0977,10.3865 0,6.0796123 -3.5156,10.4935775 -8.2149,10.4935775 -4.7929,0 -8.2031,-4.4615551 -8.2031,-10.3865005 0,-5.127814 2.5078,-10.493577 8.3203,-10.493577 z m 18.5332,22.6646996 c 1.8985,1.1183631 4.6289,1.8441094 7.5938,1.8441094 6.4219,0 10.1015,-3.3550894 10.1015,-8.0902866 0,-4.0213484 -2.4023,-6.3651524 -7.0898,-8.1497744 -3.5156,-1.344415 -5.1328,-2.355701 -5.1328,-4.58053 0,-2.010674 1.6172,-3.688218 4.5234,-3.688218 2.5078,0 4.4649,0.892311 5.5196,1.570467 l 1.2304,-3.581142 c -1.5117,-0.892311 -3.9023,-1.677544 -6.6445,-1.677544 -5.8008,0 -9.3281,3.581141 -9.3281,7.935619 0,3.236115 2.2968,5.913048 7.1484,7.65008 3.6328,1.332518 5.0274,2.6174455 5.0274,4.9612492 0,2.2367263 -1.6758,4.0213483 -5.25,4.0213483 -2.4493,0 -5.0274,-1.0112858 -6.4688,-1.9511868 z m 30.0293,1.28492782797 V -27.018554 h -4.9101 V 6.2342797e-4 Z M 1688.188,-37.678697 c -1.7813,0 -3.0703,1.344416 -3.0703,3.06955 0,1.677545 1.2305,3.010063 2.9648,3.010063 1.9571,0 3.1758,-1.332518 3.1289,-3.010063 0,-1.725134 -1.1718,-3.06955 -3.0234,-3.06955 z m 12.8437,4.187913 v 6.47223 h -4.1835 v 3.735808 h 4.1835 v 14.7409786 c 0,3.1885247 0.504,5.5799182 1.8985,7.0314108 1.1719,1.3444153 3.0117,2.0701616 5.3086,2.0701616 1.8984,0 3.3984,-0.28553952 4.3476,-0.66625889 l -0.2226,-3.68821891 c -0.6094,0.1665647 -1.5586,0.3331295 -2.8477,0.3331295 -2.7304,0 -3.6797,-1.8916994 -3.6797,-5.2467889 V -23.282746 h 7.0313 v -3.735808 h -7.0313 v -7.757158 z M 1724.4224,6.2342797e-4 V -27.018554 h -4.9102 V 6.2342797e-4 Z M 1721.9614,-37.678697 c -1.7812,0 -3.0703,1.344416 -3.0703,3.06955 0,1.677545 1.2305,3.010063 2.9649,3.010063 1.957,0 3.1757,-1.332518 3.1289,-3.010063 0,-1.725134 -1.1719,-3.06955 -3.0235,-3.06955 z m 23.168,10.041474 c -7.4766,0 -13.3945,5.306276 -13.3945,14.348361 0,8.5423908 5.6367,13.9081544 12.9492,13.9081544 6.5391,0 13.4531,-4.3544778 13.4531,-14.3483614 0,-8.268749 -5.2383,-13.908154 -13.0078,-13.908154 z m -0.1055,3.688219 c 5.8008,0 8.0977,5.80597 8.0977,10.3865 0,6.0796123 -3.5156,10.4935775 -8.2149,10.4935775 -4.7929,0 -8.2031,-4.4615551 -8.2031,-10.3865005 0,-5.127814 2.5078,-10.493577 8.3203,-10.493577 z m 20.4317,23.94962742797 h 4.9101 V -16.239437 c 0,-0.844721 0.1172,-1.677545 0.3399,-2.296214 0.832,-2.73642 3.3398,-5.020737 6.5859,-5.020737 4.6289,0 6.2461,3.628732 6.2461,7.98321 V 6.2342797e-4 h 4.9219 V -16.13236 c 0,-9.268137 -5.8125,-11.504863 -9.5508,-11.504863 -4.4648,0 -7.5938,2.522265 -8.9297,5.080224 h -0.1172 l -0.2812,-4.461555 h -4.3477 c 0.1641,2.236726 0.2227,4.521042 0.2227,7.31695 z m 45.2138,0 h 4.8633 V -15.073484 c 1.1133,0.285539 2.4492,0.333129 3.9024,0.333129 4.7461,0 8.9297,-1.392005 11.4961,-4.128425 1.8984,-1.951187 2.9062,-4.62812 2.9062,-8.042697 0,-3.343192 -1.2305,-6.079613 -3.293,-7.864235 -2.2382,-2.010674 -5.7539,-3.129037 -10.5468,-3.129037 -3.9141,0 -6.9844,0.33313 -9.3282,0.725746 z M 1815.5327,-33.657348 c 0.8321,-0.226053 2.4492,-0.392617 4.5703,-0.392617 5.3672,0 8.8828,2.403291 8.8828,7.36454 0,5.199199 -3.5742,8.042697 -9.4335,8.042697 -1.629,0 -2.9649,-0.118975 -4.0196,-0.392617 z M 1859.2964,6.2342797e-4 C 1858.9566,-1.843486 1858.8511,-4.1278022 1858.8511,-6.4716059 V -16.584464 c 0,-5.413354 -2.0156,-11.052759 -10.2774,-11.052759 -3.4101,0 -6.6445,0.951798 -8.8828,2.403291 l 1.125,3.236114 c 1.8985,-1.22544 4.5235,-2.010674 7.0313,-2.010674 5.5312,0 6.1406,4.021348 6.1406,6.258075 v 0.559181 c -10.4414,-0.05949 -16.2422,3.509757 -16.2422,10.0414738 0,3.914271 2.7891,7.7690546 8.2617,7.7690546 3.8555,0 6.75,-1.9035968 8.2618,-4.0213483 h 0.164 l 0.3985,3.40267932797 z M 1854.105,-9.100949 c 0,0.4996942 -0.1172,1.0588757 -0.2813,1.5704674 -0.7851,2.2843162 -3.0117,4.5210425 -6.539,4.5210425 -2.5078,0 -4.6289,-1.51098 -4.6289,-4.6876072 0,-5.2586867 6.082,-6.1985877 11.4492,-6.0915097 z m 9.9873,-17.917605 10.2773,27.01917742797 h 4.6875 L 1889.6626,-27.018554 h -5.1328 l -5.25,15.181185 c -0.8906,2.4627779 -1.6758,4.6876068 -2.2969,6.9243331 h -0.164 c -0.5625,-2.2367263 -1.2774,-4.4615552 -2.1797,-6.9243331 l -5.2969,-15.181185 z M 1900.3208,6.2342797e-4 V -27.018554 h -4.9101 V 6.2342797e-4 Z M 1897.8599,-37.678697 c -1.7813,0 -3.0703,1.344416 -3.0703,3.06955 0,1.677545 1.2304,3.010063 2.9648,3.010063 1.957,0 3.1758,-1.332518 3.1289,-3.010063 0,-1.725134 -1.1719,-3.06955 -3.0234,-3.06955 z m 23.1679,10.041474 c -7.4765,0 -13.3945,5.306276 -13.3945,14.348361 0,8.5423908 5.6367,13.9081544 12.9492,13.9081544 6.5391,0 13.4532,-4.3544778 13.4532,-14.3483614 0,-8.268749 -5.2383,-13.908154 -13.0079,-13.908154 z m -0.1054,3.688219 c 5.8008,0 8.0976,5.80597 8.0976,10.3865 0,6.0796123 -3.5156,10.4935775 -8.2148,10.4935775 -4.793,0 -8.2031,-4.4615551 -8.2031,-10.3865005 0,-5.127814 2.5078,-10.493577 8.3203,-10.493577 z M 1941.354,6.2342797e-4 h 4.9102 V -16.239437 c 0,-0.844721 0.1172,-1.677545 0.3398,-2.296214 0.832,-2.73642 3.3399,-5.020737 6.5859,-5.020737 4.629,0 6.2461,3.628732 6.2461,7.98321 V 6.2342797e-4 h 4.9219 V -16.13236 c 0,-9.268137 -5.8125,-11.504863 -9.5508,-11.504863 -4.4648,0 -7.5937,2.522265 -8.9297,5.080224 h -0.1171 l -0.2813,-4.461555 h -4.3476 c 0.164,2.236726 0.2226,4.521042 0.2226,7.31695 z M 1986.5649,-0.10645389 c 1.6172,0.21415464 4.1836,0.44020677 7.5352,0.44020677 6.1406,0 10.3828,-1.11836315 13.0078,-3.50975668 1.8985,-1.8441095 3.1875,-4.3068879 3.1875,-7.5430022 0,-5.579919 -4.1953,-8.542391 -7.7578,-9.434702 v -0.107078 c 3.9609,-1.451492 6.3633,-4.640017 6.3633,-8.268748 0,-2.950576 -1.1719,-5.187302 -3.1289,-6.638794 -2.3438,-1.8917 -5.4727,-2.736421 -10.3242,-2.736421 -3.4102,0 -6.7618,0.33313 -8.8829,0.785234 z m 4.8633,-33.71745911 c 0.7735,-0.166565 2.0625,-0.345027 4.2891,-0.345027 4.9219,0 8.2617,1.737032 8.2617,6.150997 0,3.628732 -3.0117,6.305665 -8.1445,6.305665 h -4.4063 z m 0,15.787956 h 4.0196 c 5.2968,0 9.7031,2.129649 9.7031,7.257463 0,5.4728412 -4.6289,7.3169507 -9.6563,7.3169507 -1.7226,0 -3.1172,-0.059487 -4.0664,-0.2260522 z M 2037.2046,6.2342797e-4 C 2036.8648,-1.843486 2036.7593,-4.1278022 2036.7593,-6.4716059 V -16.584464 c 0,-5.413354 -2.0156,-11.052759 -10.2774,-11.052759 -3.4101,0 -6.6445,0.951798 -8.8828,2.403291 l 1.125,3.236114 c 1.8985,-1.22544 4.5235,-2.010674 7.0313,-2.010674 5.5312,0 6.1406,4.021348 6.1406,6.258075 v 0.559181 c -10.4414,-0.05949 -16.2422,3.509757 -16.2422,10.0414738 0,3.914271 2.7891,7.7690546 8.2617,7.7690546 3.8555,0 6.75,-1.9035968 8.2618,-4.0213483 h 0.164 l 0.3985,3.40267932797 z M 2032.0132,-9.100949 c 0,0.4996942 -0.1172,1.0588757 -0.2813,1.5704674 -0.7851,2.2843162 -3.0117,4.5210425 -6.539,4.5210425 -2.5078,0 -4.6289,-1.51098 -4.6289,-4.6876072 0,-5.2586867 6.082,-6.1985877 11.4492,-6.0915097 z m 13.7842,9.10157242797 h 4.8515 V -14.407225 c 0,-0.832824 0.1172,-1.618058 0.2227,-2.284316 0.668,-3.688219 3.1289,-6.305665 6.5859,-6.305665 0.6797,0 1.1719,0.05949 1.6758,0.166565 v -4.62812 c -0.4453,-0.118975 -0.832,-0.178462 -1.3945,-0.178462 -3.293,0 -6.2461,2.296213 -7.4766,5.924945 h -0.2226 l -0.1641,-5.306276 h -4.3008 c 0.1641,2.510368 0.2227,5.246788 0.2227,8.435313 z M 2076.0464,-27.637223 c -7.4766,0 -13.3945,5.306276 -13.3945,14.348361 0,8.5423908 5.6367,13.9081544 12.9492,13.9081544 6.539,0 13.4531,-4.3544778 13.4531,-14.3483614 0,-8.268749 -5.2383,-13.908154 -13.0078,-13.908154 z m -0.1055,3.688219 c 5.8008,0 8.0977,5.80597 8.0977,10.3865 0,6.0796123 -3.5156,10.4935775 -8.2149,10.4935775 -4.7929,0 -8.2031,-4.4615551 -8.2031,-10.3865005 0,-5.127814 2.5078,-10.493577 8.3203,-10.493577 z m 42.1465,11.338298 c 0.059,-0.511591 0.1641,-1.284928 0.1641,-2.296213 0,-4.96125 -2.3438,-12.730304 -11.168,-12.730304 -7.8633,0 -12.668,6.424639 -12.668,14.574413 0,8.1497741 4.9688,13.622615 13.2891,13.622615 4.3008,0 7.2539,-0.89231102 8.9883,-1.6775447 l -0.8438,-3.5097567 c -1.8398,0.7733362 -3.9609,1.3920052 -7.4765,1.3920052 -4.9102,0 -9.1524,-2.7364205 -9.2696,-9.3752148 z m -18.9258,-3.521654 c 0.3867,-3.402679 2.5664,-7.983209 7.5352,-7.983209 5.5312,0 6.8672,4.854172 6.8086,7.983209 z m 37.7315,-11.504863 c -7.4766,0 -13.3946,5.306276 -13.3946,14.348361 0,8.5423908 5.6368,13.9081544 12.9493,13.9081544 6.539,0 13.4531,-4.3544778 13.4531,-14.3483614 0,-8.268749 -5.2383,-13.908154 -13.0078,-13.908154 z m -0.1055,3.688219 c 5.8008,0 8.0977,5.80597 8.0977,10.3865 0,6.0796123 -3.5157,10.4935775 -8.2149,10.4935775 -4.793,0 -8.2031,-4.4615551 -8.2031,-10.3865005 0,-5.127814 2.5078,-10.493577 8.3203,-10.493577 z m 20.4316,23.94962742797 h 4.9102 V -16.239437 c 0,-0.844721 0.1172,-1.677545 0.3398,-2.296214 0.8321,-2.73642 3.3399,-5.020737 6.586,-5.020737 4.6289,0 6.2461,3.628732 6.2461,7.98321 V 6.2342797e-4 h 4.9219 V -16.13236 c 0,-9.268137 -5.8125,-11.504863 -9.5508,-11.504863 -4.4649,0 -7.5938,2.522265 -8.9297,5.080224 h -0.1172 l -0.2813,-4.461555 h -4.3476 c 0.1641,2.236726 0.2226,4.521042 0.2226,7.31695 z m 51.5274,0 C 2208.4067,-1.843486 2208.3013,-4.1278022 2208.3013,-6.4716059 V -16.584464 c 0,-5.413354 -2.0156,-11.052759 -10.2774,-11.052759 -3.4101,0 -6.6445,0.951798 -8.8828,2.403291 l 1.125,3.236114 c 1.8985,-1.22544 4.5235,-2.010674 7.0313,-2.010674 5.5312,0 6.1406,4.021348 6.1406,6.258075 v 0.559181 c -10.4414,-0.05949 -16.2422,3.509757 -16.2422,10.0414738 0,3.914271 2.7891,7.7690546 8.2617,7.7690546 3.8555,0 6.75,-1.9035968 8.2617,-4.0213483 h 0.1641 l 0.3984,3.40267932797 z M 2203.5552,-9.100949 c 0,0.4996942 -0.1172,1.0588757 -0.2813,1.5704674 -0.7851,2.2843162 -3.0117,4.5210425 -6.539,4.5210425 -2.5078,0 -4.6289,-1.51098 -4.6289,-4.6876072 0,-5.2586867 6.082,-6.1985877 11.4492,-6.0915097 z m 0,0" style="fill:#dcdddd;fill-opacity:1;fill-rule:nonzero;stroke:none" aria-label="Geman Universal Exposition Pavion Baroeona Geman Universal Exposition Pavion Baroeona" transform="matrix(1.3333333,0,0,1.3133033,158.51627,2259.6984)" />
      </g></svg>