<?xml version='1.0' encoding='utf-8'?>
<svg xmlns="http://www.w3.org/2000/svg" version="1.1" width="3185.328" height="4500.527" viewBox="-0.737 -0.677 3185.328 4500.527"><defs id="defs1"><clipPath clipPathUnits="userSpaceOnUse" id="clipPath4">
      <path d="M -2390.7301,1441.2075 H -6.7900002 v -3370.39 H -2390.7301 Z" id="path4" />
    </clipPath>
    <clipPath clipPathUnits="userSpaceOnUse" id="clipPath6">
      <path d="M -4.4939001,1056.0555 H 2379.4462 V -2314.3346 H -4.4939001 Z" id="path6" />
    </clipPath>
    <clipPath clipPathUnits="userSpaceOnUse" id="clipPath8">
      <path d="M -2330.5081,713.06242 H 53.431926 V -2657.3277 H -2330.5081 Z" id="path8" />
    </clipPath>
    <clipPath clipPathUnits="userSpaceOnUse" id="clipPath11">
      <path d="M -2390.7301,1442.5269 H -6.7900002 V -1927.8632 H -2390.7301 Z" id="path11" />
    </clipPath>
    <clipPath clipPathUnits="userSpaceOnUse" id="clipPath13">
      <path d="M -2390.7301,1083.0187 H -6.7900002 V -2287.3714 H -2390.7301 Z" id="path13" />
    </clipPath>
  </defs><g id="object"><path id="path3" d="m 0,0 c 0,-636.109 -0.116,-1272.218 0.561,-1908.327 0.02,-19.118 -5.097,-21.242 -22.357,-21.231 -780.913,0.5 -1561.827,0.502 -2342.739,-0.015 -17.46,-0.011 -22.265,2.429 -22.248,21.342 0.646,725.595 0.547,1451.191 0.547,2176.787 19.847,23.151 44.805,40.696 67.335,60.905 1.165,-33.518 1.699,-67.072 3.615,-100.548 4.902,-85.642 4.612,-171.409 7.116,-257.104 5.944,-203.355 16.577,-406.656 18.049,-610.03 0.982,-135.531 -0.988,-271.303 -6.74,-406.95 -6.537,-154.155 -8.636,-308.504 -11.972,-462.784 -1.934,-89.47 -2.613,-178.968 -3.541,-268.457 -0.1,-9.613 -3.467,-20.937 12.745,-23.722 91.058,-15.638 180.236,-40.531 271.631,-54.745 31.628,-4.918 63.244,-11.199 94.052,-19.761 42.225,-11.734 83.971,-17.863 127.796,-9.35 30.707,5.964 62.062,9.58 93.301,11.695 103.582,7.015 206.384,21.412 309.567,32.078 26.669,2.757 53.522,4.098 80.153,7.754 66.399,9.114 132.948,20.401 200.063,17.828 97.084,-3.721 193.983,-11.995 291.029,-17.023 151.568,-7.852 303.043,-16.981 454.456,-27.383 88.041,-6.048 176.242,-9.751 264.321,-15.301 28.012,-1.766 28.172,-2.933 27.865,26.441 -2.568,246.057 -5.823,492.108 -7.69,738.17 -1.754,231.206 -1.586,462.425 -3.221,693.632 -0.875,123.757 -0.546,247.514 -3.09,371.287 -1.729,84.097 4.065,168.371 7.35,252.533 0.983,25.192 4.848,50.273 7.393,75.404 6.742,-3.266 9.272,-9.918 11.07,-16.097 9.114,-31.318 20.052,-62.286 24.189,-94.768 C -41.751,112.263 -29.39,53.747 0,0" style="fill:#fcfcf5;fill-opacity:1;fill-rule:nonzero;stroke:none" transform="matrix(1.3333333,0,0,-1.3333333,3187.64,1921.61)" clip-path="url(#clipPath4)" />
      <path id="path5" d="m 0,0 c 0,343.594 0.113,687.188 -0.361,1030.781 -0.022,15.799 1.899,21.295 20.004,21.282 782.255,-0.582 1564.511,-0.577 2346.766,-0.023 17.713,0.013 20.256,-4.946 20.215,-21.076 -0.569,-229.809 -0.388,-459.62 -0.388,-689.431 -5.481,5.224 -11.576,6.993 -19.386,5.793 -13.515,-2.076 -27.214,-2.953 -40.82,-4.333 -2.911,4.509 -4.207,9.384 -3.603,14.792 7.781,69.622 2.069,139.866 9.731,209.539 1.761,16.01 3.762,32.599 -1.507,48.655 0.363,1.469 0.726,2.938 1.088,4.408 5.426,6.404 3.626,14.251 4.065,21.546 2.823,46.981 2.221,94.053 6.29,141.073 4.189,48.398 1.924,97.375 6.586,145.702 2.211,22.929 -3.845,29.025 -24.944,29.973 -86.626,3.893 -173.239,8.241 -259.798,13.408 -182.833,10.913 -365.625,22.497 -548.441,33.707 -121.356,7.441 -242.409,-2.556 -363.239,-10.059 -140.297,-8.713 -280.725,-15.018 -420.988,-24.264 -88.021,-5.802 -176.481,-6.464 -264.192,-15.069 -108.249,-10.62 -214.155,0.631 -319.769,21.639 -26.023,5.177 -34.106,0.036 -34.422,-26.846 -0.246,-20.999 -3.405,-41.605 -5.635,-62.372 C 99.927,820.579 94.772,752.137 87.425,683.86 76.886,585.925 66.783,487.775 60.051,389.563 53.46,293.424 56.174,196.681 64.193,100.373 46.889,64.297 23.078,32.384 0,0" style="fill:#fcfcf5;fill-opacity:1;fill-rule:nonzero;stroke:none" transform="matrix(1.3333333,0,0,-1.3333333,5.9918667,1408.074)" clip-path="url(#clipPath6)" />
      <path id="path7" d="M 0,0 C 13.622,1.38 27.321,2.257 40.835,4.333 48.646,5.532 54.741,3.764 60.222,-1.46 v -40.445 c -24.151,-7.723 -49.619,-11.864 -71.337,-26.209 -31.268,-5.136 -53.854,11.399 -70.548,33.612 -28.078,37.362 -68.754,60.715 -99.586,94.703 -0.273,0.301 -2.408,-1.088 -8.216,-3.841 24.216,-23.561 47.48,-45.834 70.307,-68.545 12.527,-12.463 31.365,-26.374 29.071,-42.612 -5.475,-38.753 -4.579,-77.103 -3.003,-115.65 0.619,-15.128 -5.533,-19.686 -19.444,-19.971 -42.608,-0.876 -85.245,-1.688 -127.78,-4.115 -17.319,-0.988 -23.204,4.402 -24.786,21.702 -5.741,62.777 -0.015,125.574 -1.863,188.335 -0.592,20.089 -1.915,40.301 1.45,60.442 7.815,46.762 41.313,78.751 66.772,115.141 4.532,6.478 14.558,14.686 27.295,9.695 27.617,-10.823 51.796,-25.269 67.083,-52.042 C -84.292,113.589 -71.995,74.606 -52.016,39.791 -41.428,21.339 -34.341,-9.438 0,0" style="fill:#0b110b;fill-opacity:1;fill-rule:nonzero;stroke:none" transform="matrix(1.3333333,0,0,-1.3333333,3107.3441,950.74987)" clip-path="url(#clipPath8)" />
      <path id="path9" d="m 0,0 c 23.078,32.384 46.889,64.297 64.185,100.355 8.827,13.719 18.094,27.203 26.365,41.273 6.866,11.68 14.383,16.252 29.031,12.506 45.917,-11.743 93.433,-17.048 140.144,-12.409 50.098,4.976 85.975,-15.294 117.813,-49.154 14.833,-15.777 27.689,-33.592 43.56,-48.178 34.496,-31.702 34.075,-46.019 2.282,-81.9 -36.864,-41.604 -63.57,-90.54 -84.08,-141.732 -18.214,-45.456 -15.5,-46.582 -65.526,-43.565 -5.957,0.359 -11.863,1.895 -17.81,2.019 -14.897,0.31 -16.748,7.465 -13.447,20.575 8.188,32.52 19.823,63.092 36.88,92.389 17.217,29.573 26.828,63.43 46.407,91.9 8.157,11.86 5.779,17.357 -5.773,24.025 C 287.112,27.108 253.81,45.712 222.573,67.248 208.652,76.846 198.569,77.272 188.812,65.872 151.431,22.194 101.261,-8.637 67.334,-55.691 44.805,-75.981 19.847,-93.596 0,-116.84 Z" style="fill:#0b110b;fill-opacity:1;fill-rule:nonzero;stroke:none" transform="matrix(1.3333333,0,0,-1.3333333,5.9918667,1408.074)" />
      <path id="path10" d="m 0,0 c -29.39,53.962 -41.751,112.712 -49.394,172.949 -4.137,32.613 -15.075,63.705 -24.189,95.148 -1.798,6.204 -4.328,12.882 -11.07,16.162 -11.353,10.803 -23.603,20.727 -35.225,30.998 -37.89,33.481 -80.884,61.231 -113.922,100.257 -7.096,8.384 -16.363,14.719 -25.199,21.522 -21.303,16.404 -40.086,35.564 -45.417,64.178 -2.592,13.915 -0.87,21.088 15.63,20.946 35.109,-0.303 70.234,0.556 105.342,1.381 11,0.258 19.987,-2.367 28.378,-10.062 25.638,-23.512 51.886,-46.358 77.897,-69.463 C -55.05,412.556 -25.423,387.952 0,359.508 Z" style="fill:#0b110b;fill-opacity:1;fill-rule:nonzero;stroke:none" transform="matrix(1.3333333,0,0,-1.3333333,3187.64,1923.3691)" clip-path="url(#clipPath11)" />
      <path id="path12" d="m 0,0 c -25.423,28.443 -55.05,53.047 -77.158,84.492 1.799,46.644 0.205,93.341 4.901,140.021 2.561,25.449 8.297,51.503 0.92,77.329 21.718,14.345 47.186,18.486 71.337,26.209 z" style="fill:#fcfcf5;fill-opacity:1;fill-rule:nonzero;stroke:none" transform="matrix(1.3333333,0,0,-1.3333333,3187.64,1444.0249)" clip-path="url(#clipPath13)" />
      <path id="path14" d="m 0,0 c -6.489,-23.339 -21.423,-30.186 -44.032,-23.022 -9.598,3.041 -15.782,-4.88 -23.559,-7.773 -20.317,-7.559 -41.976,-9.874 -62.438,-19.48 -16.911,-7.94 -34.16,3.687 -47.09,17.648 -11.954,12.907 -18.508,25.656 -9.333,44.03 10.064,20.154 19.303,40.064 38.244,53.904 29.619,21.643 60.767,10.439 92.033,6.101 C -16.696,65.93 -4.862,38.022 1.101,4.457 0.726,2.938 0.363,1.469 0,0" style="fill:#0b110b;fill-opacity:1;fill-rule:nonzero;stroke:none" transform="matrix(1.3333333,0,0,-1.3333333,3113.5267,586.7684)" />
      <path id="path15" d="m 0,0 c -51.58,-2.123 -67.448,-5.338 -66.091,65.044 1.254,64.985 5.667,129.933 9.747,194.83 2.072,32.955 21.265,50.887 54.161,54.792 42.193,5.009 83.345,17.793 126.284,17.233 50.188,-0.655 64.566,-4.38 75.003,-69.254 12.228,-76.01 6.798,-153.342 17.386,-229.437 3.002,-21.577 -7.498,-30.693 -26.846,-32.213 -15.635,-1.228 -31.475,-0.072 -47.06,-1.624 -23.369,-2.327 -36.424,7.068 -38.291,37.416 -3.901,63.387 -10.841,126.611 -10.162,190.288 0.161,15.076 -0.277,32.707 -22.474,34.65 -13.272,1.161 -21.093,-4.149 -23.514,-17.91 -4.211,-23.933 -2.218,-48.171 0.466,-71.574 C 53.996,125.276 52.901,78.255 54.604,31.276 55.649,2.445 53.026,0.554 24.688,0.023 16.461,-0.131 8.229,0 0,0" style="fill:#fcfcf5;fill-opacity:1;fill-rule:nonzero;stroke:none" transform="matrix(1.3333333,0,0,-1.3333333,886.86853,3098.0441)" />
      <path id="path16" d="m 0,0 c -2.268,57.664 12.245,119.474 12.032,182.442 -0.12,35.213 25.342,54.478 65.689,51.942 52.986,-3.329 106.131,0.201 159.064,-5.811 20.16,-2.29 29.102,-9.03 29.269,-30.294 0.231,-29.429 -3.886,-58.019 -9.359,-86.703 -2.217,-11.62 -8.046,-17.002 -19.511,-16.889 -4.488,0.045 -8.983,0.05 -13.462,0.299 -71.29,3.948 -66.766,-1.882 -69.703,66.036 -0.55,12.712 -6.013,21.467 -14.218,28.774 -10.439,9.297 -25.987,3.775 -28.367,-9.681 -12.776,-72.261 -19.546,-144.98 -16.503,-218.48 0.563,-13.6 5.74,-24.209 18.425,-27.533 13.11,-3.436 20.949,7.275 25.69,17.32 5.239,11.102 14.241,19.868 15.121,33.983 2.058,32.975 3.291,33.349 -29.561,41.813 -12.752,3.286 -14.153,11.186 -13.01,21.833 1.202,11.206 0.768,24.891 16.672,24.088 35.67,-1.801 71.297,-4.776 106.296,-12.8 13.097,-3.003 15.912,-12.28 15.538,-23.447 -1.352,-40.366 -8.991,-80.031 -14.987,-119.801 -3.088,-20.479 -20.552,-29.525 -39.701,-28.85 -55.965,1.972 -111.927,4.915 -167.761,9.169 -15.865,1.209 -28.977,9.374 -27.914,30.012 C 0.891,-50.197 0,-27.711 0,0" style="fill:#fcfcf5;fill-opacity:1;fill-rule:nonzero;stroke:none" transform="matrix(1.3333333,0,0,-1.3333333,1407.5485,2947.0128)" />
      <path id="path17" d="m 0,0 c 9.764,60.753 17.089,121.887 34.623,181.269 7.126,24.134 10.897,49.531 13.487,74.633 1.568,15.202 8.108,21.473 21.899,22.081 22.482,0.992 44.463,-0.857 66.135,-8.389 17.038,-5.922 21.04,-16.425 17.36,-32.554 -6.619,-29.005 -14.003,-57.913 -18.702,-87.241 -1.894,-11.822 -9.242,-30.557 7.851,-35.163 15.835,-4.266 21.609,14.288 25.892,25.696 10.356,27.579 29.384,51.194 35.306,80.8 2.101,10.502 12.248,16.46 22.398,13.873 17.944,-4.574 36.379,-9.589 52.521,-18.292 21.375,-11.525 23.941,-26.833 14.042,-51.699 C 267.101,100.432 231.321,40.26 208.396,-25.421 199.818,-49.997 181.784,-69.402 175.301,-94.9 c -2.797,-11.001 -14.888,-10.174 -22.915,-6.761 -16.282,6.923 -34.144,13.234 -46.79,24.791 -14.537,13.284 -3.646,30.163 3.396,44.829 10.329,21.51 18.643,43.614 18.564,67.906 -0.018,5.525 1.507,13.5 -6.983,14.041 -7.081,0.452 -14.303,0.092 -17.268,-9.976 C 95.139,12.202 84.443,-14.832 77.333,-42.798 73.186,-59.114 65.286,-63.682 50.276,-60.539 c -4.381,0.917 -8.79,1.763 -13.226,2.34 C 3.521,-53.837 -3.457,-45.183 -0.737,-11.197 -0.439,-7.469 -0.243,-3.732 0,0" style="fill:#fcfcf5;fill-opacity:1;fill-rule:nonzero;stroke:none" transform="matrix(1.3333333,0,0,-1.3333333,1773.3827,3043.6617)" />
      <path id="path18" d="m 0,0 c -26.11,-11.69 -45.766,-23.825 -67.714,-30.933 -23.177,-7.505 -37.543,2.545 -36.245,27.559 0.733,14.106 4.365,28.042 6.242,42.114 1.777,13.337 3.748,26.721 4.268,40.138 1.507,38.866 1.343,38.361 39.208,46.093 12.164,2.484 13.155,-2.627 11.375,-11.478 -1.91,-9.499 -4.88,-18.783 -6.863,-28.27 -1.214,-5.81 -3.119,-13.237 1.71,-17.089 5.829,-4.649 11.445,2.631 15.153,5.555 19.949,15.734 39.171,32.423 58.187,49.296 18.186,16.136 40.523,19.497 61.327,8.095 5.364,-2.94 9.921,-7.553 10.46,-13.565 4.536,-50.514 17.747,-99.302 31.966,-147.527 11.822,-40.096 4.394,-80.26 7.03,-120.295 1.573,-23.874 0.801,-47.895 1.908,-71.811 0.713,-15.403 -7.727,-22.207 -21.022,-23.154 -43.872,-3.127 -86.669,-12.235 -129.626,-20.966 -31.61,-6.425 -33.027,-4.038 -33.51,27.558 -0.471,30.781 -2.915,63.198 6.67,91.398 C -23.601,-100.573 -19.974,-51.237 0,0" style="fill:#0b110b;fill-opacity:1;fill-rule:nonzero;stroke:none" transform="matrix(1.3333333,0,0,-1.3333333,1966.7888,871.02027)" />
      <path id="path19" d="m 0,0 c -25.277,-8.037 -37.347,-31.202 -53.888,-48.773 -6.905,-7.335 -6.459,-19.051 -4.738,-31.908 5.319,-39.734 4.672,-80.26 6.519,-120.47 0.45,-9.792 -5.434,-11.083 -12.968,-10.579 -11.19,0.748 -22.363,2.146 -33.559,2.323 -28.253,0.449 -29.494,1.64 -29.206,30.981 0.126,12.944 0.797,25.678 -4.06,38.473 -16.085,42.372 -1.495,85.285 1.76,127.415 1.829,23.67 24.483,42.538 39.703,62.267 16.437,21.305 39.839,35.695 56.298,57.175 8.315,10.851 22.079,14.844 34.684,19.104 33.78,11.416 65.403,29.3 102.188,31.922 13.094,0.933 18.684,-1.238 21.493,-14.871 4.632,-22.481 3.092,-44.727 1.227,-67.045 -1.806,-21.601 -3.62,-43.325 -7.588,-64.592 -4.591,-24.599 -18.547,-43.557 -36.417,-61.769 -38.994,-39.741 -84.665,-72.51 -118.463,-118.387 -17.875,21.948 -5.399,45.481 -10.417,66.514 -5.202,21.807 -5.316,42.129 11.733,59.435 9.978,10.129 19.658,20.553 29.371,30.938 3.005,3.213 5.679,6.734 8.504,10.115 9.099,5.816 21.193,7.218 26.787,18.192 1.313,1.258 2.632,2.511 3.951,3.765 -0.95,0.185 -2.175,0.836 -2.799,0.468 C 28.372,19.666 26.863,18.22 29.296,16.255 17.061,15.287 6.638,11.055 0,0" style="fill:#0b110b;fill-opacity:1;fill-rule:nonzero;stroke:none" transform="matrix(1.3333333,0,0,-1.3333333,1171.8844,956.7928)" />
      <path id="path20" d="M 0,0 C 6.314,4.285 6.474,10.893 4.565,14.5 -8.812,39.769 6.391,45.249 26.67,49.234 84.585,60.616 141.72,76.25 200.76,81.395 c 11.358,0.99 13.923,5.325 6.445,13.334 -35.041,37.532 -57.408,84.955 -94.695,120.741 -6.411,6.153 -11.247,13.971 -16.669,21.127 -28.336,37.388 -28.334,37.466 18.569,47.208 21.908,4.551 43.624,9.779 66.136,11.513 15.561,1.198 25.117,-3.641 31.511,-17.895 14.689,-32.745 29.716,-65.355 45.453,-97.607 15.266,-31.287 31.808,-61.95 47.393,-93.085 C 321.517,53.538 310.037,27.16 273.286,17.901 248.012,11.533 222.023,7.626 196.154,4.076 142.83,-3.243 89.86,-12.238 38.07,-27.043 c -14.625,-4.181 -25.134,-5.352 -24.843,14.708 0.045,3.094 -3.651,6.242 -8.294,8.277 14.264,-43.712 -12.49,-84.35 -5.436,-126.64 1.326,-7.946 1.185,-19.4 -7.635,-21.001 -7.208,-1.309 -10.942,9.406 -15.373,16.027 -14.611,21.837 -20.007,46.196 -21.442,71.732 -0.53,9.429 -1.178,16.167 -12.693,20.013 -18.399,6.146 -18.212,25.607 -21.717,40.517 -3.595,15.3 12.026,18.656 21.898,24.386 11.36,6.595 24.374,7.989 37.036,6.679 C -4.814,26.039 -11.927,6.751 0,0" style="fill:#0b110b;fill-opacity:1;fill-rule:nonzero;stroke:none" transform="matrix(1.3333333,0,0,-1.3333333,1863.9015,1612.7029)" />
      <path id="path21" d="m 0,0 c 17.902,-12.324 25.927,-31.793 37.766,-47.506 10.247,-13.6 18.188,-24.992 37.667,-17.963 29.245,10.554 38.797,21.748 36.449,45.339 -1.681,16.888 25.277,67.764 39.862,75.23 8.995,4.604 31.56,-7.936 37.815,-21.094 14.353,-30.187 17.405,-63.307 22.509,-95.493 9.011,-56.819 30.082,-110.255 42.824,-165.941 1.663,-7.266 3.563,-14.607 4.01,-21.995 1.09,-17.996 -3.294,-31.362 -24.564,-35.76 -47.887,-9.901 -96.543,-9.609 -144.897,-12.733 -37.247,-2.406 -74.785,1.395 -112.023,-3.184 -12.257,-1.508 -17.106,2.828 -18.222,15.49 -5.774,65.533 -12.34,62.087 52.633,65.953 38.003,2.26 76.172,1.653 114.262,2.519 27.547,0.626 29.759,3.829 14.579,28.036 C 116.849,-151.116 88.785,-116.3 53.711,-88.039 33.665,-71.886 20.323,-50.422 4.491,-30.965 -1.796,-23.239 -6.487,-13.109 0,0" style="fill:#0b110b;fill-opacity:1;fill-rule:nonzero;stroke:none" transform="matrix(1.3333333,0,0,-1.3333333,975.08213,1221.1537)" />
      <path id="path22" d="m 0,0 c 7.656,37.789 1.568,87.828 18.492,135.006 2.172,6.055 0.52,13.402 1.179,20.097 1.158,11.767 -3.673,24.772 14.092,31.002 20.089,7.046 38.586,10.223 57.901,-0.636 8.475,-4.765 6.714,-12.623 6.718,-19.819 0.011,-22.464 -0.204,-44.931 -0.596,-67.392 -0.156,-8.918 1.788,-19.233 10.853,-19.335 10.876,-0.123 9.446,11.47 9.242,19.345 -0.563,21.69 -1.558,43.373 -2.689,65.044 -0.861,16.524 5.025,26.879 22.792,29.255 12.498,1.672 24.192,6.774 37.12,8.019 19.612,1.889 27.228,-7.077 28.714,-24.686 1.635,-19.362 4.488,-38.717 4.62,-58.09 0.34,-50.176 1.325,-100.354 8.965,-149.952 3.074,-19.951 -4.987,-28.882 -21.788,-34.112 -2.833,-0.882 -5.812,-1.589 -8.761,-1.767 -53.329,-3.232 -72.277,-20.377 -70.307,58.516 0.184,7.395 -0.594,14.928 -1.936,22.211 -0.998,5.418 -4.817,9.487 -10.846,9.712 C 96.819,22.677 96.66,16.644 94.203,12.086 82.777,-9.11 81.914,-31.87 83.277,-54.982 84.118,-69.226 77.905,-74.707 63.698,-75.647 3.269,-79.644 -2.089,-74.502 0,0" style="fill:#fcfcf5;fill-opacity:1;fill-rule:nonzero;stroke:none" transform="matrix(1.3333333,0,0,-1.3333333,656.13413,2454.5829)" />
      <path id="path23" d="m 0,0 c 0,-11.213 -0.028,-22.426 0.006,-33.639 0.084,-27.658 -12.764,-41.888 -39.865,-42.9 -37.358,-1.395 -74.74,-2.131 -112.108,-3.291 -17.921,-0.557 -27.364,5.644 -27.789,25.81 -0.565,26.82 -3.394,53.698 -7.005,80.313 -2.721,20.06 11.046,21.383 24.006,25.22 35.793,10.598 46.241,3.537 49.574,-33.726 0.666,-7.447 1.381,-14.938 2.861,-22.248 1.172,-5.793 3.52,-11.351 5.403,-16.994 1.779,-5.325 4.664,-9.444 11.056,-9.155 7.856,0.355 9.621,6.115 10.26,12.325 2.525,24.559 5.539,49.16 3.849,73.875 -1.784,26.072 -6.68,29.988 -33.772,29.807 -11.977,-0.079 -23.968,-0.853 -35.925,-0.459 -24.233,0.798 -31.898,8.204 -33.572,32.49 -1.903,27.609 -2.092,55.393 -5.27,82.841 -2.578,22.268 8.344,35.593 26.601,40.88 31.301,9.064 63.562,14.866 95.498,21.675 22.105,4.712 33.831,-7.474 39.849,-26.645 8.895,-28.335 7.301,-57.686 7.018,-86.844 -0.087,-8.938 -5.729,-13.369 -13.78,-15.122 -5.094,-1.109 -10.288,-1.82 -15.468,-2.461 -35.635,-4.415 -43.789,2.442 -45.395,38.551 -0.664,14.916 -1.103,29.712 -8.153,43.515 -2.228,4.364 -1.024,11.407 -8.633,10.561 -5.625,-0.626 -9.802,-4.497 -10.325,-10.311 -2.781,-30.903 4.263,-61.034 8.021,-91.387 0.844,-6.816 8.124,-8.884 14.367,-7.65 20.89,4.132 41.457,-2.617 62.378,-1.079 17.714,1.303 26.857,-8.035 27.625,-27.152 C -7.522,57.813 2.344,29.48 0,0" style="fill:#fcfcf5;fill-opacity:1;fill-rule:nonzero;stroke:none" transform="matrix(1.3333333,0,0,-1.3333333,2942.2305,2574.6068)" />
      <path id="path24" d="m 0,0 c -8.241,-65.46 -10.844,-134.164 -8.897,-202.976 0.588,-20.776 -7.948,-28.515 -28.179,-31.419 -46.957,-6.741 -93.294,-11.183 -140.101,1.721 -18.442,5.084 -27.159,14.106 -24.596,33.108 3.29,24.401 6.442,48.824 10.157,73.161 1.475,9.664 7.87,15.33 17.337,18.357 16.555,5.295 32.463,1.082 48.14,-3.049 8.124,-2.141 10.69,-9.808 9.859,-18.078 -1.421,-14.123 -2.431,-28.31 -4.519,-42.335 -1.579,-10.606 -1.097,-21.434 10.577,-23.397 10.94,-1.84 19.828,3.962 21.091,17.583 1.932,20.847 5.033,41.584 7.45,62.389 1.153,9.92 -3.006,15.715 -13.513,16.212 -9.721,0.461 -19.496,0.63 -29.136,1.828 -33.888,4.214 -47.973,21.388 -47.722,55.088 0.224,30.06 3.052,59.641 9.181,89.102 2.24,10.765 6.085,15.459 17.329,15.335 65.896,-0.733 62.336,5.128 57.862,-57.887 -0.794,-11.173 -3.096,-22.244 -3.785,-33.418 -0.374,-6.085 2.068,-13.513 8.384,-14.231 8.368,-0.951 7.794,7.675 8.259,13.095 1.919,22.334 3.691,44.7 4.676,67.09 1.199,27.285 4.661,31.577 31.319,32.127 42.202,0.871 38.055,7.28 38.803,-37.193 C 0.14,22.488 0,12.759 0,0" style="fill:#fcfcf5;fill-opacity:1;fill-rule:nonzero;stroke:none" transform="matrix(1.3333333,0,0,-1.3333333,2666.3587,2367.5744)" />
      <path id="path25" d="m 0,0 c -0.948,7.452 2.858,17.469 -8.922,19.818 -10.425,2.078 -16.349,-4.614 -21.307,-12.614 -7.937,-12.807 -10.003,-27.624 -14.417,-41.618 -12.639,-40.071 -33.151,-77.893 -34.706,-121.158 -0.257,-7.156 -4.671,-16.973 4.485,-19.582 9.38,-2.673 11.178,8.747 13.543,14.564 13.317,32.761 25.488,65.987 38.06,99.051 C -15.493,-41.1 -1.09,-23.163 0,0 m 76.567,-31.958 c 0.036,-24.907 -4.574,-42.329 -14.955,-60.171 -17.116,-29.417 -29.933,-61.382 -43.921,-92.56 -13.325,-29.701 -37.343,-43.568 -68.229,-43.695 -41.963,-0.171 -79.426,16.28 -115.431,36.505 -12.397,6.963 -11.741,18.898 -7.329,27.307 22.334,42.572 30.145,89.987 46.508,134.514 10.212,27.788 22.458,54.899 29.544,83.996 2.833,11.631 14.987,19.64 28.28,16.646 C -23.549,60.353 22.102,52.214 58.47,17.522 76.075,0.728 75.564,-17.382 76.567,-31.958" style="fill:#fcfcf5;fill-opacity:1;fill-rule:nonzero;stroke:none" transform="matrix(1.3333333,0,0,-1.3333333,2043.1321,2228.3073)" />
      <path id="path26" d="M 0,0 C 1.296,5.011 1.504,10.673 4.052,14.937 43.896,81.623 81.269,149.7 119.44,217.332 c 7.141,12.652 17.101,24.082 24.269,37.242 8.19,15.035 21.784,10.228 33.208,5.297 12.087,-5.216 23.188,-12.239 35.723,-17.209 17.563,-6.962 10.424,-22.631 3.328,-33.755 -7.947,-12.458 -17.88,-23.678 -24.12,-37.29 -7.112,-15.515 -4.343,-26.484 12.947,-33.369 17.896,-7.126 34.912,-16.433 52.525,-24.312 15.185,-6.794 12.18,-16.925 5.167,-27.227 -6.536,-9.603 -13.335,-22.74 -27.61,-10.619 -16.754,14.225 -39.596,16.18 -56.567,30.069 -7.645,6.257 -18.087,5.787 -22.346,-5.17 C 143.023,67.695 114.201,44.315 100.747,11.236 98.523,5.767 95.763,0.916 95.855,-5.039 c 0.057,-3.73 0.184,-8.263 4.71,-8.861 2.307,-0.305 5.922,1.822 7.402,3.932 10.482,14.949 20.277,30.383 30.832,45.279 24.016,33.896 25.605,39.697 58.826,20.32 C 237.816,32.188 238.722,37.278 210.116,-6.738 196.192,-28.164 182.845,-50.079 169.57,-71.828 154.605,-96.345 142.929,-95.31 123.236,-83.93 89.733,-64.57 55.511,-46.914 21.166,-29.272 9.952,-23.512 -1.245,-16.012 0,0" style="fill:#fcfcf5;fill-opacity:1;fill-rule:nonzero;stroke:none" transform="matrix(1.3333333,0,0,-1.3333333,2055.2515,3183.9553)" />
      <path id="path27" d="m 0,0 c -16.672,1.62 -27.568,-6.955 -28.788,-23.177 -0.936,-12.434 7.431,-20.617 21.347,-20.171 18.038,0.577 31.956,12.904 31.75,27.831 C 24.074,1.629 11.762,-0.06 0,0 m 16.691,189.433 c 38.852,0.772 71.706,-11.756 105.091,-20.703 16.152,-4.328 20.915,-19.042 22.051,-35.299 2.582,-36.973 -12.642,-70.225 -21.148,-104.775 -9.545,-38.776 -22.225,-76.77 -32.378,-115.41 -7.604,-28.94 -29.04,-42.561 -54.164,-25.899 -25.002,16.581 -54.325,17.075 -79.577,30.555 -10.047,5.363 -21.096,9.788 -33.133,12.123 -17.22,3.34 -27.438,24.466 -23.061,42.406 14.86,60.901 30.615,75.376 95.215,83.544 5.176,0.655 10.444,0.651 15.673,0.815 38.925,1.221 63.444,31.177 57.093,69.377 -1.266,7.615 -4.264,12.489 -12.442,13.109 -7.581,0.576 -13.108,-1.898 -15.442,-9.673 -2.781,-9.265 -6.078,-18.398 -8.39,-27.775 -7.321,-29.686 -9.373,-31.594 -39.984,-24.443 -40.332,9.42 -37.241,0.425 -27.989,43.629 2.333,10.897 6.525,21.384 9.2,32.223 8.618,34.917 11.453,37.229 43.385,36.196" style="fill:#fcfcf5;fill-opacity:1;fill-rule:nonzero;stroke:none" transform="matrix(1.3333333,0,0,-1.3333333,2216.704,2498.8388)" />
      <path id="path28" d="M 0,0 C 16.916,0.56 25.096,9.018 25.811,26.483 26.433,41.667 18.409,49.585 5.369,49.588 -10.581,49.593 -21.017,39.012 -21.847,23.067 -22.545,9.641 -15.116,0.558 0,0 m 118.991,-7.558 c 5.369,-17.633 -8.522,-23.382 -25.064,-30.716 -22.937,-10.17 -46.664,-5.015 -69.836,-8.148 -20.688,-2.797 -40.317,-10.426 -61.703,-10.435 -20.695,-0.008 -35.72,8.429 -41.259,26.822 -8.25,27.39 -6.6,56.357 -1.494,84.118 3.645,19.82 21.568,29.097 39.669,33.766 20.309,5.238 35.738,19.283 51.18,30.688 12.415,9.169 7.338,30.234 0.97,45.884 -1.012,2.485 -4.598,3.801 -6.22,6.184 -4.119,6.049 -2.663,19.667 -14.539,15.215 -10.895,-4.084 -4.681,-15.485 -3.906,-23.641 0.551,-5.794 4.189,-11.243 5.144,-17.061 2.58,-15.708 6.508,-32.208 -19.356,-31.389 -6.991,0.222 -14.161,-4.281 -21.203,-6.748 -23.318,-8.169 -26.619,-5.816 -29.659,17.844 -2.644,20.573 -6.628,40.972 -9.999,61.452 -2.644,16.067 4.756,26.498 19.835,29.664 38.574,8.096 77.387,15.055 116.096,22.508 8.105,1.561 16.533,-0.651 20.286,-6.739 8.841,-14.34 19.56,-29.225 22.516,-45.186 10.711,-57.837 18.574,-116.202 27.386,-174.387 0.78,-5.152 0.644,-10.442 1.156,-19.695" style="fill:#fcfcf5;fill-opacity:1;fill-rule:nonzero;stroke:none" transform="matrix(1.3333333,0,0,-1.3333333,1080.9548,2459.8999)" />
      <path id="path29" d="m 0,0 c -0.758,10.521 -4.667,18.765 -14.499,21.072 -9.932,2.33 -15.264,-5.21 -17.873,-13.306 -3.638,-11.284 -7.143,-22.868 -8.438,-34.575 -1.173,-10.599 4.639,-19.73 15.758,-21.154 10.334,-1.323 15.533,6.221 17.611,15.956 C -5.108,-21.075 -2.394,-10.224 0,0 m 79.201,9.809 c -1.332,-66.429 -17.989,-123.06 -20.787,-181.442 -0.769,-16.064 -12.172,-27.366 -31.255,-23.53 -16.089,3.234 -32.336,6.024 -48.082,10.52 -14.682,4.193 -18.93,15.539 -15.887,29.966 3.69,17.496 8.108,34.885 10.727,52.541 1.218,8.214 3.479,18.935 -8.115,23.047 -11.06,3.924 -16.917,-5.067 -21.826,-11.811 -8.068,-11.084 -17.083,-21.161 -20.378,-36.062 -5.497,-24.867 -12.795,-27.48 -36.836,-19.899 -2.14,0.675 -4.32,1.219 -6.473,1.855 -44.939,13.272 -48.886,26.454 -27.507,69.766 15.028,30.445 25.623,63.099 37.853,94.899 19.179,49.867 35.952,73.967 93.995,58.028 C -6.084,75.136 3.79,74.39 13.457,73.617 70.608,69.048 80.965,57.795 79.201,9.809" style="fill:#fcfcf5;fill-opacity:1;fill-rule:nonzero;stroke:none" transform="matrix(1.3333333,0,0,-1.3333333,458.9172,2260.9755)" />
      <path id="path30" d="m 0,0 c -6.655,-62.707 -32.164,-100.805 -52.508,-140.976 -2.937,-5.798 -8.484,-5.104 -13.791,-4.649 -26.824,2.301 -53.658,4.494 -80.471,6.918 -4.128,0.373 -9.791,-1.079 -11.352,4.545 -1.535,5.53 4.231,7.247 7.243,10.072 16.38,15.361 32.313,31.115 45.994,49 2.687,3.511 6.746,7.178 2.302,11.568 -5.881,5.81 -9.108,-0.025 -12.45,-3.798 -20.28,-22.898 -40.615,-45.614 -66.576,-62.637 -4.617,-3.028 -12.147,-8.668 -8.603,-16.285 2.917,-6.268 10.517,-4.237 16.329,-4.522 29.893,-1.462 59.823,-4.359 89.678,-3.733 25.218,0.528 22.545,-15.045 22.745,-31.075 0.212,-17.061 -5.695,-22.458 -24.139,-21.12 -34.213,2.482 -68.746,1.826 -103.092,0.763 -23.391,-0.724 -46.235,3.3 -69.266,5.198 -24.481,2.017 -33.867,21.475 -23.365,44.376 39.206,85.496 99.615,149.693 187.605,186.083 4.105,1.698 7.569,4.991 11.703,6.565 13.133,4.999 27.467,23.564 38.94,12.546 C -24.885,31.369 2.567,16.751 0,0" style="fill:#0b110b;fill-opacity:1;fill-rule:nonzero;stroke:none" transform="matrix(1.3333333,0,0,-1.3333333,601.24907,817.64893)" />
      <path id="path31" d="m 0,0 c 1.091,25.595 -2.938,52.225 -6.297,78.89 -0.879,6.977 0.037,15.428 -11.261,16.016 -12.046,0.628 -13.129,-7.814 -14.25,-15.943 -7.907,-57.333 -4.932,-114.51 2.488,-171.66 1.525,-11.748 9.987,-15.289 18.668,-14.975 8.707,0.315 12.038,8.782 10.524,16.868 C -5.717,-60.937 1.834,-31.208 0,0 m 86.276,12.397 c 4.487,-37.415 -7.137,-74.505 -9.833,-112.442 -1.625,-22.866 -23.818,-41.709 -51.46,-44.735 -31.12,-3.406 -62.553,-3.921 -93.838,-5.871 -15.553,-0.969 -21.608,7.881 -22.436,21.625 -4.513,74.9 -14.601,149.391 -15.18,224.613 -0.215,27.821 22.771,29.878 37.579,31.623 38.34,4.517 77.146,3.048 114.627,-10.892 26.791,-9.964 37.048,-30.52 40.188,-55.854 1.914,-15.444 0.353,-31.32 0.353,-48.067" style="fill:#fcfcf5;fill-opacity:1;fill-rule:nonzero;stroke:none" transform="matrix(1.3333333,0,0,-1.3333333,1633.6688,2266.6356)" />
      <path id="path32" d="m 0,0 c -13.224,-2.926 -20.496,4.376 -20.679,17.912 -0.357,26.284 -12.864,50.605 -11.259,77.263 0.585,9.718 -2.748,21.242 -15.409,20.572 -15.5,-0.821 -10.965,-14.772 -9.57,-22.74 9.497,-54.263 19.898,-108.372 30.516,-162.432 11.481,-58.462 24.039,-49.451 -36.461,-68.295 -28.486,-8.873 -32.326,-4.515 -35.842,26.675 -4.421,39.216 -13.665,77.617 -21.794,116.222 -6.138,29.154 -9.457,58.966 -12.781,88.624 -2.236,19.956 11.113,34.468 26.65,40.234 37.484,13.911 77.776,14.434 117.233,13.465 26.645,-0.654 30.755,-24.798 33.38,-45.184 2.946,-22.891 3.031,-45.95 7.955,-68.89 C 57.189,8.973 33.605,8.663 19.125,2.045 13.992,-0.302 7.342,0.67 0,0" style="fill:#fcfcf5;fill-opacity:1;fill-rule:nonzero;stroke:none" transform="matrix(1.3333333,0,0,-1.3333333,1407.7397,2305.8644)" />
      <path id="path33" d="m 0,0 c 0.929,24.649 11.359,47.766 22.613,69.047 26.57,50.243 43.518,104.238 65.128,156.364 9.329,22.502 20.498,44.108 29.481,66.714 6.106,15.364 15.129,8.146 22.715,1.898 20.047,-16.509 32.633,-39.529 42.978,-61.877 17.744,-38.334 44.832,-61.527 85.137,-71.375 7.784,-1.902 14.701,-7.204 22.16,-10.631 7.743,-3.557 9.026,-9.147 5.949,-16.468 -0.289,-0.688 -0.483,-1.415 -0.738,-2.119 -13.78,-37.999 -13.585,-37.341 -53.689,-25.441 -19.135,5.678 -38.251,11.499 -58.124,15.325 -17.534,3.376 -26.877,21.749 -37.73,35.542 -4.101,5.213 -6.201,11.954 -9.952,17.498 -4.635,6.849 -4.238,19.984 -16.323,18.163 -10.931,-1.648 -15.948,-11.952 -19.56,-21.587 C 82.198,123.438 67.621,74.813 58.29,24.812 54.186,2.819 51.276,-19.563 50.107,-41.888 49.017,-62.688 32.755,-62.786 20.074,-65.31 4.888,-68.333 8.273,-52.74 6.344,-45.179 2.676,-30.806 2.017,-15.665 0,0" style="fill:#0b110b;fill-opacity:1;fill-rule:nonzero;stroke:none" transform="matrix(1.3333333,0,0,-1.3333333,1258.3715,1220.8949)" />
      <path id="path34" d="m 0,0 c -0.852,-26.243 -32.568,-65.628 -56.784,-70.954 -0.718,-0.158 -1.731,-0.765 -2.093,-0.489 -37.48,28.569 -74.686,-4.128 -112.544,-0.819 -46.642,4.078 -46.698,34.385 -32.301,61.742 7.594,14.431 16.145,28.419 22.524,43.512 2.087,4.939 4.009,8.889 10.117,10.58 20.831,5.765 39.726,16.72 61.019,21.819 32.018,7.666 57.939,1.271 78.511,-25.664 C -24.5,30.494 -14.522,23.507 -5.942,15.429 -1.387,11.142 1.594,6.179 0,0" style="fill:#0b110b;fill-opacity:1;fill-rule:nonzero;stroke:none" transform="matrix(1.3333333,0,0,-1.3333333,1630.2499,644.7156)" />
      <path id="path35" d="m 0,0 c 0,29.154 0.091,58.308 -0.042,87.461 -0.058,12.913 4.382,19.194 18.776,21.799 89.143,16.133 77.958,-2.201 81.638,-70.396 2.478,-45.939 3.149,-92.56 -1.882,-138.841 -1.758,-16.178 -9.099,-21.785 -24.124,-22.788 -64.608,-4.317 -71.361,1.308 -73.15,64.457 C 0.666,-38.886 1.131,-19.436 1.131,0.001 0.754,0.001 0.377,0 0,0" style="fill:#fcfcf5;fill-opacity:1;fill-rule:nonzero;stroke:none" transform="matrix(1.3333333,0,0,-1.3333333,1226.1148,2929.1619)" />
      <path id="path36" d="m 0,0 c -12.393,-1.042 -18.98,4.351 -22.769,16.416 -15.029,47.855 -36.088,93.414 -59.156,137.662 -13.309,25.527 -26.42,51.274 -40.386,76.493 -6.917,12.491 -3.918,17.333 9.435,19.229 11.806,1.677 24.542,2.321 34.925,7.395 24.417,11.932 31.853,-0.745 42.041,-20.565 C -4.559,175.642 17.533,111.073 41.54,47.239 54.887,11.75 51.298,7.245 13.276,2.047 8.841,1.44 4.425,0.686 0,0" style="fill:#0b110b;fill-opacity:1;fill-rule:nonzero;stroke:none" transform="matrix(1.3333333,0,0,-1.3333333,2348.1279,1944.3887)" />
      <path id="path37" d="m 0,0 c -21.657,-31.212 -40.354,-63.207 -69.248,-87.497 -22.515,-18.928 -38.731,-43.412 -57.104,-65.943 -6.268,-7.686 -12.127,-12.769 -22.478,-9.996 -23.101,6.189 -45.95,13.051 -68.145,22.102 -7.16,2.92 -10.99,5.12 -3.575,11.845 18.406,16.693 31.905,37.505 45.807,57.645 16.768,24.294 40.488,41.514 59.478,63.392 5.378,6.196 12.519,8.289 20.09,8.35 C -64.586,0.145 -33.994,0 0,0" style="fill:#0b110b;fill-opacity:1;fill-rule:nonzero;stroke:none" transform="matrix(1.3333333,0,0,-1.3333333,1181.1821,1639.2967)" />
      <path id="path38" d="m 0,0 c 27.569,4.322 48.696,-9.771 67.388,-29.471 2.04,-2.151 3.379,-5.532 5.818,-6.646 13.254,-6.057 26.787,-11.668 22.496,-30.445 -4.462,-19.528 -13.247,-36.267 -32.286,-45.266 -12.447,-5.882 -26.277,-7.443 -37.818,-17.265 -5.459,-4.646 -22.546,-4.324 -27.464,0.617 -19.83,19.92 -47.876,13.989 -70.29,25.554 -12.262,6.327 -16.22,12.684 -16.778,25.045 C -91.042,-31.159 -50.918,4.207 0,0" style="fill:#0b110b;fill-opacity:1;fill-rule:nonzero;stroke:none" transform="matrix(1.3333333,0,0,-1.3333333,674.51067,581.4432)" />
      <path id="path39" d="m 0,0 c -1.33,-2.319 -2.941,-6.672 -5.812,-9.904 -45.111,-50.769 -96.08,-95.454 -146.488,-140.723 -12.552,-11.272 -21.958,-14.199 -34.73,2.54 -24.881,32.61 -27.888,33.556 2.058,61.847 42.817,40.45 80.605,85.204 119.149,129.394 5.177,5.935 8.947,5.887 15.012,1.963 C -34.573,34.613 -21.558,19.609 -3.473,11.647 0.079,10.083 0.899,5.844 0,0" style="fill:#0b110b;fill-opacity:1;fill-rule:nonzero;stroke:none" transform="matrix(1.3333333,0,0,-1.3333333,3060.3295,1559.9253)" />
      <path id="path40" d="m 0,0 c -17.325,0.016 -33.884,6.129 -42.834,23.739 -8.596,16.915 -1.522,29.948 11.191,43.355 9.367,9.877 14.261,24.394 19.774,37.425 6.876,16.25 19.475,23.655 35.721,26.866 40.518,8.007 74.844,-8.799 90.798,-46.974 3.384,-8.099 18.856,-15.185 8.203,-25.901 C 109.956,45.539 101.751,25.988 77.416,27.297 53.544,28.581 29.235,26.93 13.776,3.537 10.989,-0.68 6.372,-1.06 0,0" style="fill:#0b110b;fill-opacity:1;fill-rule:nonzero;stroke:none" transform="matrix(1.3333333,0,0,-1.3333333,2167.3273,684.02947)" />
      <path id="path41" d="m 0,0 c -19.815,-1.359 -38.539,0.791 -56.88,-3.984 -12.388,-3.225 -22.737,4.941 -34.125,6.72 -18.289,2.858 -36.265,7.315 -55.262,7.027 -21.733,-0.33 -27.09,11.745 -15.429,29.519 11.028,16.81 28.895,27.576 39.266,45.069 4.857,8.194 10.146,2.309 14.512,-1.445 22.01,-18.928 48.065,-21.6 75.654,-20.119 28.327,1.521 56.641,0.408 84.961,-2.12 C 67.971,59.303 69.865,53.16 64.132,40.625 58.897,29.18 51.809,18.455 50.309,5.439 49.348,-2.894 42.762,-2.323 36.673,-1.993 24.033,-1.308 11.394,-0.619 0,0" style="fill:#0b110b;fill-opacity:1;fill-rule:nonzero;stroke:none" transform="matrix(1.3333333,0,0,-1.3333333,358.42307,1192.5728)" />
      <path id="path42" d="m 0,0 c -8.057,41.071 -9.279,81.396 5.892,120.851 3.267,8.497 9.022,14.147 -3.071,23.879 -11.345,9.131 -2.459,27.024 0.351,40.336 2.131,10.099 13.792,6.557 21.414,6.535 25.664,-0.076 50.03,-7.145 74.125,-15.277 3.607,-1.218 6.496,-2.419 8.158,-6.495 7.151,-17.527 -2.028,-48.084 -17.01,-59.731 C 70.987,95.426 52.511,80.078 42.133,57.574 32.2,36.032 14.98,19.615 0,0" style="fill:#0b110b;fill-opacity:1;fill-rule:nonzero;stroke:none" transform="matrix(1.3333333,0,0,-1.3333333,751.8412,1759.8963)" />
      <path id="path43" d="m 0,0 c -23.079,1.766 -42.321,-2.972 -58.793,9.772 -3.661,2.833 -6.842,0.263 -11.056,-2.689 -22.139,-15.507 -46.74,-4.655 -50.099,22.361 -2.106,16.934 -1.161,34.25 -1.549,51.396 -0.27,11.868 4.762,16.214 16.73,12.811 22.194,-6.31 44.526,-12.146 66.877,-17.884 4.66,-1.196 7.877,-3.518 10.69,-7.272 C -9.403,44.753 14.632,31.254 43.294,24.591 50.499,22.916 62.076,21.569 60.729,11.149 59.649,2.79 49.259,3.488 42.081,2.885 26.488,1.576 10.856,0.723 0,0" style="fill:#0b110b;fill-opacity:1;fill-rule:nonzero;stroke:none" transform="matrix(1.3333333,0,0,-1.3333333,1036.968,1973.5659)" />
      <path id="path44" d="m 0,0 c -0.884,-17.622 -3.289,-27.596 -20.678,-25.2 -15.48,2.133 -28.021,4.397 -28.814,23.442 -0.31,7.433 -2.895,14.886 -2.455,22.21 1.078,17.939 2.461,40.914 16.899,48.616 17.572,9.373 40.795,1.428 61.409,-1.577 4.261,-0.622 4.355,-5.391 5.126,-9.005 8.751,-41.001 37.779,-61.731 74.531,-75.066 5.626,-2.041 16.188,-1.803 14.237,-10.479 -1.847,-8.214 -11.361,-3.859 -17.544,-3.983 C 66.446,-31.767 31.348,-27.612 0,0" style="fill:#0b110b;fill-opacity:1;fill-rule:nonzero;stroke:none" transform="matrix(1.3333333,0,0,-1.3333333,378.3324,1816.7604)" />
      <path id="path45" d="m 0,0 c -0.638,35.379 0.169,36.224 35.449,39.104 15.598,1.274 31.168,2.887 46.761,4.213 12.658,1.077 20.022,-3.849 19.818,-17.567 -0.244,-16.414 0.618,-32.713 3.441,-48.988 2.234,-12.879 -4.096,-22.556 -16.658,-25.13 C 69.159,-52.395 49.13,-54.602 29.249,-57.501 12.436,-59.953 4.048,-52.865 3.417,-35.62 2.982,-23.721 1.187,-11.872 0,0" style="fill:#fcfcf5;fill-opacity:1;fill-rule:nonzero;stroke:none" transform="matrix(1.3333333,0,0,-1.3333333,1210.5277,2683.5945)" />
      <path id="path46" d="m 0,0 c 14.191,-21.238 28.541,-15.183 43.071,-8.134 30.825,14.954 62.099,29.052 92.328,45.121 10.643,5.658 13.515,1.318 19.247,-5.848 C 178.837,0.896 179.359,0.556 142.679,-15.812 107.31,-31.595 70.316,-43.726 36.779,-63.646 32.444,-66.221 26.875,-66.906 21.774,-67.974 -5.91,-73.772 -8.712,-71.242 -5.375,-43.916 -3.772,-30.792 -2.163,-17.668 0,0" style="fill:#0b110b;fill-opacity:1;fill-rule:nonzero;stroke:none" transform="matrix(1.3333333,0,0,-1.3333333,2186.3623,892.04733)" />
      <path id="path47" d="m 0,0 c -12.263,2.39 -20.385,15.644 -29.554,26.565 -8.04,9.577 2.987,15.896 7.19,23.066 1.48,2.526 3.738,4.641 5.831,6.754 C 9.865,83.034 13.173,80.953 39.15,54.261 70.481,22.07 74.787,-22.536 96.906,-58.62 c 2.158,-3.52 3.485,-8.942 0.052,-12.681 -4.559,-4.967 -7.557,0.885 -11.252,2.492 C 56.187,-55.97 31.994,-37.553 18.772,-6.97 15.273,1.124 14.659,0.859 0,0" style="fill:#0b110b;fill-opacity:1;fill-rule:nonzero;stroke:none" transform="matrix(1.3333333,0,0,-1.3333333,2740.7637,1838.4664)" />
      <path id="path48" d="m 0,0 c -15.219,-2.003 -27.818,-2.268 -39.8,3.363 -16.154,7.592 -30.222,-4.683 -45.546,-4.699 -12.152,-0.014 -27.393,-8.008 -29.931,14.427 -3.087,27.294 3.26,37.676 21.864,44.028 28.886,9.862 54.246,4.633 77.937,-11.844 C 4.886,31.114 28.72,33.921 50.971,29.033 55.844,27.962 62.279,28.886 62.961,21.685 63.68,14.095 58.162,12.499 52.066,10.174 34.409,3.442 16.408,-0.548 0,0" style="fill:#0b110b;fill-opacity:1;fill-rule:nonzero;stroke:none" transform="matrix(1.3333333,0,0,-1.3333333,2498.5392,2027.6535)" />
      <path id="path49" d="m 0,0 c 0.41,25.76 13.56,45.118 11.802,67.522 -0.526,6.693 6.035,4.996 10.168,4.059 8.997,-2.037 7.512,-8.497 4.414,-13.889 C 11.94,32.554 15.242,5.863 18.228,-21.059 c 3.06,-27.59 15.491,-49.751 37.574,-66.046 6.381,-4.709 9.677,-8.842 7.205,-16.49 -3.185,-9.856 -11.743,-15.728 -19.623,-19.72 -5.95,-3.014 -8.318,6.852 -11.326,11.544 C 9.468,-76.534 8.753,-35.14 0,0" style="fill:#0b110b;fill-opacity:1;fill-rule:nonzero;stroke:none" transform="matrix(1.3333333,0,0,-1.3333333,602.05307,934.74627)" />
      <path id="path50" d="m 0,0 c 27.146,-23.558 55.073,-45.403 73.508,-76.43 7.253,-12.207 4.291,-17.518 -9.274,-19.196 -36.676,-4.54 -34.123,-1.391 -44.129,24.861 C 11.33,-47.741 5.835,-24.221 0,0" style="fill:#0b110b;fill-opacity:1;fill-rule:nonzero;stroke:none" transform="matrix(1.3333333,0,0,-1.3333333,1040.4344,1364.6065)" />
      <path id="path51" d="m 0,0 c 4.296,-35.912 7.719,-66.948 11.854,-97.889 1.649,-12.344 -0.531,-20.176 -14.851,-21.513 -15.203,-1.419 -14.974,8.746 -15.21,18.616 C -19.006,-67.428 -18.892,-34.188 0,0" style="fill:#0b110b;fill-opacity:1;fill-rule:nonzero;stroke:none" transform="matrix(1.3333333,0,0,-1.3333333,962.78293,1040.2056)" />
      <path id="path52" d="m 0,0 c -11.431,45.958 12.013,76.563 57.344,76.154 2.752,-0.025 6.935,-0.463 7.952,-2.186 C 67.768,69.783 65.84,65.323 62.657,61.856 42.905,40.341 24.853,17.056 0,0" style="fill:#0b110b;fill-opacity:1;fill-rule:nonzero;stroke:none" transform="matrix(1.3333333,0,0,-1.3333333,248.06413,927.54707)" />
      <path id="path53" d="m 0,0 c -8.426,16.496 -13.563,30.66 -7.801,48.13 3.584,10.868 1.155,23.413 -3.067,34.729 -2.451,6.568 -0.15,10.066 6.764,10.23 C 0.364,93.196 6.371,93.007 4.999,86.732 -0.463,61.764 13.378,36.718 4.259,11.9 3.013,8.507 1.821,5.094 0,0" style="fill:#0b110b;fill-opacity:1;fill-rule:nonzero;stroke:none" transform="matrix(1.3333333,0,0,-1.3333333,2149.3195,848.9096)" />
      <path id="path54" d="M 0,0 C 20.771,-23.764 5.943,-42.599 0,-68.333 Z" style="fill:#0b110b;fill-opacity:1;fill-rule:nonzero;stroke:none" transform="matrix(1.3333333,0,0,-1.3333333,2175.8117,735.7928)" />
    </g></svg>