<?xml version='1.0' encoding='utf-8'?>
<svg xmlns="http://www.w3.org/2000/svg" version="1.1" width="764.648" height="82.109" viewBox="1325.830 3886.940 764.648 82.109"><defs id="defs1"><clipPath clipPathUnits="userSpaceOnUse" id="clipPath4">
      <path d="M -0.9784,2441.734 H 2382.9617 V -928.65612 H -0.9784 Z" id="path4" />
    </clipPath>
    <clipPath clipPathUnits="userSpaceOnUse" id="clipPath8">
      <path d="M 0,3370.3901 H 2383.9401 V -2.5000001e-5 H 0 Z" id="path8" />
    </clipPath>
  </defs><g id="object"><path id="path6" d="M 23.95235,-11.975975 28.018756,5.875e-4 h 5.25 L 20.272663,-38.073631 H 14.342975 L 1.4171938,5.875e-4 H 6.4914125 L 10.45235,-11.975975 Z m -12.492187,-3.84375 3.738281,-11.015625 c 0.726562,-2.308594 1.347656,-4.628906 1.910156,-6.890625 h 0.117188 c 0.5625,2.203125 1.136718,4.464844 1.980468,6.949219 l 3.726563,10.957031 z M 50.829303,5.875e-4 h 4.921875 V -17.225975 h 14.402344 v -4.066406 H 55.751178 v -12.65625 h 15.585938 v -4.125 H 50.829303 Z m 30.84375,0 V -27.339256 h -4.96875 V 5.875e-4 Z M 79.188678,-38.132225 c -1.804687,0 -3.105469,1.359375 -3.105469,3.117187 0,1.6875 1.242188,3.046875 2.988282,3.046875 1.980468,0 3.222656,-1.359375 3.164062,-3.046875 0,-1.757812 -1.183594,-3.117187 -3.046875,-3.117187 z M 89.923053,5.875e-4 h 4.96875 V -40.100975 h -4.96875 z m 13.330077,0 h 4.85156 V -16.487694 c 0,-0.855469 0.11719,-1.699219 0.39844,-2.4375 0.79688,-2.484375 3.04688,-4.96875 6.16406,-4.96875 3.77344,0 5.69532,3.164063 5.69532,7.511719 V 5.875e-4 h 4.86328 V -16.886131 c 0,-0.902344 0.16406,-1.804688 0.39844,-2.484375 0.84375,-2.4375 3.04687,-4.523438 5.87109,-4.523438 4.00781,0 5.92969,3.164063 5.92969,8.414063 V 5.875e-4 h 4.85156 V -16.100975 c 0,-9.480469 -5.35547,-11.859375 -8.97656,-11.859375 -2.60157,0 -4.40625,0.679687 -6.04688,1.921875 -1.125,0.84375 -2.20312,2.027344 -3.04687,3.5625 h -0.11719 c -1.18359,-3.222656 -4.00781,-5.484375 -7.73438,-5.484375 -4.51171,0 -7.05468,2.425781 -8.58984,5.027344 h -0.16406 l -0.22266,-4.40625 h -4.34765 c 0.16406,2.261718 0.22265,4.582031 0.22265,7.40625 z m 63.14649,0 0.22265,-4.5234375 h 0.17578 c 2.02735,3.62109375 5.19141,5.14453125 9.14063,5.14453125 6.10547,0 12.25781,-4.86328125 12.25781,-14.62500025 0.0586,-8.308594 -4.73437,-13.957031 -11.51953,-13.957031 -4.40625,0 -7.57031,1.980469 -9.31641,5.027344 h -0.11718 v -17.167969 h -4.91016 v 33.0351562 c 0,2.4375 -0.11719,5.203125 -0.22266,7.0664063 z M 167.24337,-15.8666 c 0,-0.796875 0.17578,-1.476563 0.28125,-2.039063 1.01953,-3.785156 4.18359,-6.105468 7.57031,-6.105468 5.30859,0 8.13281,4.699218 8.13281,10.171875 0,6.269531 -3.10547,10.5117185 -8.29687,10.5117185 -3.6211,0 -6.50391,-2.3789063 -7.46485,-5.8242188 -0.10547,-0.5625 -0.22265,-1.1835937 -0.22265,-1.8046877 z m 23.21191,-11.472656 10.11328,25.1953122 c 0.22266,0.6210938 0.33984,1.0195313 0.33984,1.3007813 0,0.28125 -0.16406,0.6796875 -0.39843,1.18359375 -1.125,2.54296875 -2.82422,4.46484375 -4.17188,5.53124995 -1.47656,1.2421875 -3.10547,2.0390625 -4.34765,2.4375 l 1.24218,4.1718748 c 1.24219,-0.222656 3.66797,-1.066406 6.09375,-3.222656 3.38672,-2.9296875 5.82422,-7.734375 9.375,-17.109375 l 7.45313,-19.488281 h -5.25 l -5.41406,16.042968 c -0.67969,1.9804692 -1.25391,4.0664067 -1.75782,5.7070317 h -0.11718 c -0.44532,-1.640625 -1.125,-3.7851562 -1.7461,-5.5898437 l -5.98828,-16.160156 z m 50.15625,14.34375 c 0,7.4648435 -2.58984,9.4335935 -6.99609,9.4335935 -1.64063,0 -3.10547,-0.3398438 -4.125,-0.7265625 l -0.73829,4.0078125 c 1.24219,0.50390625 3.44532,0.90234375 5.26172,0.90234375 6.55078,0 11.51953,-3.10546875 11.51953,-13.21875025 v -25.476562 h -4.92187 z M 273.2043,5.875e-4 c -0.33984,-1.8632813 -0.44531,-4.1835938 -0.44531,-6.5507813 V -16.780663 c 0,-5.472656 -2.03906,-11.179687 -10.39453,-11.179687 -3.44531,0 -6.72656,0.960937 -8.98828,2.425781 l 1.13672,3.28125 c 1.92187,-1.242187 4.57031,-2.039062 7.11328,-2.039062 5.58984,0 6.21094,4.066406 6.21094,6.328125 v 0.5625 c -10.5586,-0.04687 -16.42969,3.5625 -16.42969,10.1718747 0,3.9492188 2.82422,7.85156255 8.35547,7.85156255 3.90234,0 6.83203,-1.92187505 8.35547,-4.06640625 h 0.17578 l 0.39843,3.4453125 z m -5.25,-9.2109375 c 0,0.515625 -0.11718,1.078125 -0.28125,1.5820312 -0.79687,2.3203125 -3.04687,4.5820313 -6.60937,4.5820313 -2.54297,0 -4.6875,-1.5234375 -4.6875,-4.7460938 0,-5.3085937 6.15234,-6.2695317 11.57812,-6.1640627 z m 10.90137,7.9101562 c 1.92188,1.1367188 4.6875,1.8632813 7.6875,1.8632813 6.49219,0 10.21875,-3.3867188 10.21875,-8.1914063 0,-4.0664062 -2.42578,-6.4335942 -7.17187,-8.2382812 -3.5625,-1.359375 -5.20313,-2.378906 -5.20313,-4.640625 0,-2.027344 1.64063,-3.726563 4.58203,-3.726563 2.54297,0 4.51172,0.902344 5.58985,1.582032 l 1.24218,-3.609375 c -1.52343,-0.902344 -3.94922,-1.699219 -6.72656,-1.699219 -5.87109,0 -9.43359,3.621094 -9.43359,8.027344 0,3.269531 2.32031,5.976562 7.23047,7.734375 3.67968,1.359375 5.08593,2.6484372 5.08593,5.0273435 0,2.2617187 -1.6875,4.0664062 -5.30859,4.0664062 -2.48438,0 -5.08594,-1.0195312 -6.55078,-1.9804687 z M 314.7209,-27.96035 c -7.57031,0 -13.55859,5.367187 -13.55859,14.519531 0,8.636719 5.70703,14.06250025 13.10156,14.06250025 6.60938,0 13.61719,-4.40625005 13.61719,-14.51953125 0,-8.355469 -5.30859,-14.0625 -13.16016,-14.0625 z m -0.11718,3.726562 c 5.88281,0 8.1914,5.871094 8.1914,10.511719 0,6.152344 -3.55078,10.6171877 -8.29687,10.6171877 -4.86328,0 -8.3086,-4.5234375 -8.3086,-10.5117187 0,-5.191406 2.54297,-10.617188 8.41407,-10.617188 z m 19.5498,24.2343755 h 4.96875 V -16.440819 c 0,-0.84375 0.11719,-1.6875 0.33985,-2.308594 0.84375,-2.765625 3.38671,-5.085937 6.66796,-5.085937 4.6875,0 6.32813,3.667969 6.32813,8.074219 V 5.875e-4 h 4.96875 V -16.323631 c 0,-9.375 -5.88281,-11.636719 -9.66797,-11.636719 -4.51172,0 -7.67578,2.542969 -9.03516,5.144531 h -0.10546 l -0.28125,-4.523437 h -4.40625 c 0.16406,2.261718 0.22265,4.582031 0.22265,7.40625 z m 43.48535,0 h 4.92188 V -16.487694 h 4.6289 c 4.46485,0.164063 6.49219,2.144531 7.62891,7.3945315 1.06641,4.7460937 1.91016,8.015625 2.54297,9.09375 h 5.07422 c -0.78516,-1.4648438 -1.6875,-5.1445313 -2.92969,-10.4531255 -0.90234,-3.949218 -2.66016,-6.65625 -5.60156,-7.675781 V -18.3041 c 4.01953,-1.347656 7.18359,-4.6875 7.18359,-9.714844 0,-2.929687 -1.07812,-5.53125 -3,-7.230469 -2.36719,-2.144531 -5.7539,-3.105468 -11.01562,-3.105468 -3.38672,0 -6.94922,0.28125 -9.4336,0.796875 z m 4.92188,-34.1132815 c 0.78515,-0.234375 2.48437,-0.457031 4.85156,-0.457031 5.20313,0.05859 8.75391,2.203125 8.75391,7.113281 0,4.359375 -3.32813,7.230469 -8.57813,7.230469 h -5.02734 z m 47.49902,21.351563 c 0.0586,-0.515625 0.16406,-1.300782 0.16406,-2.320313 0,-5.027344 -2.36718,-12.878906 -11.29687,-12.878906 -7.95703,0 -12.82031,6.492187 -12.82031,14.742187 0,8.2500005 5.02734,13.7812505 13.4414,13.7812505 4.34766,0 7.34766,-0.90234375 9.09375,-1.6875 l -0.84375,-3.5625 c -1.86328,0.7851562 -4.00781,1.40625 -7.57031,1.40625 -4.96875,0 -9.25781,-2.765625 -9.375,-9.4804685 z m -19.14844,-3.5625 c 0.39844,-3.445313 2.60157,-8.074219 7.62891,-8.074219 5.58984,0 6.9375,4.910156 6.89063,8.074219 z M 441.35372,5.875e-4 V -27.339256 h -4.96875 V 5.875e-4 Z m -2.48438,-38.1328125 c -1.80469,0 -3.10547,1.359375 -3.10547,3.117187 0,1.6875 1.24219,3.046875 2.98828,3.046875 1.98047,0 3.22266,-1.359375 3.16407,-3.046875 0,-1.757812 -1.1836,-3.117187 -3.04688,-3.117187 z m 11.85938,4.242187 v 6.550782 h -4.23047 v 3.785156 h 4.23047 v 14.9179687 c 0,3.2109375 0.51562,5.6484375 1.92187,7.1132813 1.1836,1.359375 3.04688,2.0859375 5.36719,2.0859375 1.92187,0 3.44531,-0.28125 4.40625,-0.6796875 l -0.22266,-3.7265625 c -0.62109,0.1757812 -1.58203,0.3398437 -2.88281,0.3398437 -2.76562,0 -3.72656,-1.921875 -3.72656,-5.3085937 V -23.5541 h 7.11328 v -3.785156 H 455.592 v -7.851563 z M 468.29805,5.875e-4 h 4.85157 V -16.487694 c 0,-0.855469 0.11718,-1.699219 0.39843,-2.4375 0.79688,-2.484375 3.04688,-4.96875 6.16407,-4.96875 3.77343,0 5.69531,3.164063 5.69531,7.511719 V 5.875e-4 h 4.86328 V -16.886131 c 0,-0.902344 0.16406,-1.804688 0.39844,-2.484375 0.84375,-2.4375 3.04687,-4.523438 5.87109,-4.523438 4.00781,0 5.92969,3.164063 5.92969,8.414063 V 5.875e-4 h 4.85156 V -16.100975 c 0,-9.480469 -5.35547,-11.859375 -8.97656,-11.859375 -2.60156,0 -4.40625,0.679687 -6.04688,1.921875 -1.125,0.84375 -2.20312,2.027344 -3.04687,3.5625 h -0.11719 c -1.18359,-3.222656 -4.00781,-5.484375 -7.73437,-5.484375 -4.51172,0 -7.05469,2.425781 -8.58985,5.027344 h -0.16406 l -0.22266,-4.40625 h -4.34765 c 0.16406,2.261718 0.22265,4.582031 0.22265,7.40625 z m 66.75879,0 c -0.33984,-1.8632813 -0.44531,-4.1835938 -0.44531,-6.5507813 V -16.780663 c 0,-5.472656 -2.03906,-11.179687 -10.39453,-11.179687 -3.44531,0 -6.72656,0.960937 -8.98828,2.425781 l 1.13672,3.28125 c 1.92187,-1.242187 4.57031,-2.039062 7.11328,-2.039062 5.58984,0 6.21093,4.066406 6.21093,6.328125 v 0.5625 c -10.55859,-0.04687 -16.42968,3.5625 -16.42968,10.1718747 0,3.9492188 2.82422,7.85156255 8.35547,7.85156255 3.90234,0 6.83203,-1.92187505 8.35546,-4.06640625 h 0.17579 l 0.39843,3.4453125 z m -5.25,-9.2109375 c 0,0.515625 -0.11719,1.078125 -0.28125,1.5820312 -0.79687,2.3203125 -3.04687,4.5820313 -6.60937,4.5820313 -2.54297,0 -4.6875,-1.5234375 -4.6875,-4.7460938 0,-5.3085937 6.15234,-6.2695317 11.57812,-6.1640627 z m 12.82324,9.2109375 h 4.96875 V -16.440819 c 0,-0.84375 0.11719,-1.6875 0.33985,-2.308594 0.84375,-2.765625 3.38672,-5.085937 6.66797,-5.085937 4.6875,0 6.32812,3.667969 6.32812,8.074219 V 5.875e-4 h 4.96875 V -16.323631 c 0,-9.375 -5.88281,-11.636719 -9.66797,-11.636719 -4.51172,0 -7.67578,2.542969 -9.03515,5.144531 h -0.10547 l -0.28125,-4.523437 h -4.40625 c 0.16406,2.261718 0.22265,4.582031 0.22265,7.40625 z m 0,0" style="fill:#ffffff;fill-opacity:1;fill-rule:nonzero;stroke:none" aria-label="A Film by Jason Reitman" transform="matrix(1.3333333,0,0,1.3333333,1329.9385,3946.4055)" />
      </g></svg>