<?xml version='1.0' encoding='utf-8'?>
<svg xmlns="http://www.w3.org/2000/svg" version="1.1" width="257.552" height="251.408" viewBox="1473.980 4156.320 257.552 251.408"><g id="object"><path id="path33" d="M 0,0 C -6.849,-18.066 -11.35,-29.936 -16.342,-43.104 H 18.837 C 12.88,-29.472 7.829,-17.915 0,0 m 93.773,-106.902 c -23.809,4.178 -47.177,-10.998 -57.087,17.985 -24.093,-0.167 -51.687,6.984 -71.356,-2.427 -22.545,-10.788 -19.49,-17.172 -55.721,-12.733 6.347,14.577 12.172,28.571 18.488,42.341 17.971,39.182 35.778,78.449 54.565,117.239 3.431,7.085 10.865,16.351 17.017,16.796 5.72,0.413 14.687,-8.411 17.94,-15.216 C 42.784,4.449 66.908,-48.683 93.773,-106.902" style="fill:#231916;fill-opacity:1;fill-rule:nonzero;stroke:none" transform="matrix(1.3333333,0,0,-1.3333333,1600.5056,4258.7412)" />
      </g></svg>