<?xml version='1.0' encoding='utf-8'?>
<svg xmlns="http://www.w3.org/2000/svg" version="1.1" width="938.190" height="1157.230" viewBox="619.715 1415.500 938.190 1157.230"><g id="object"><path id="path8" d="m 0,0 c -20.826,1.246 -40.181,7.004 -58.321,18.426 -11.95,7.524 -22.774,15.845 -31.989,26.388 -9.738,11.143 -15.799,24.313 -19.584,38.394 -5.95,22.137 -6.702,44.754 -2.769,67.244 2.929,16.75 7.961,32.947 14.311,48.911 9.155,23.014 22.339,43.907 32.525,66.376 12.265,27.055 27.426,52.785 40.264,79.6 6.782,14.166 14.36,27.919 20.898,42.24 10.192,22.323 22.754,43.553 33.697,65.551 5.429,10.914 10.476,22.086 15.902,32.98 3.566,7.161 7.765,14.398 11.432,21.486 3.994,7.72 7.562,15.951 11.486,23.845 7.392,14.868 15.524,29.367 22.986,44.202 3.569,7.096 7.679,13.964 10.149,21.604 1.011,3.127 3.801,4.819 6.454,6.343 20.989,12.059 42.174,23.788 62.95,36.202 6.051,3.615 12.694,6.025 18.449,10.291 4.861,3.604 6.845,6.773 4.21,12.862 -3.042,7.03 -3.333,15.503 -11.301,19.615 -8.992,4.639 -17.942,9.382 -27.102,13.668 -4.856,2.272 -5.233,4.158 -2.628,9.105 8.054,15.295 15.145,31.094 22.735,46.636 6.202,12.699 12.578,25.312 18.887,37.958 7.524,15.084 15.061,30.162 22.581,45.247 0.316,0.634 0.494,1.335 0.786,1.982 4.825,10.693 7.043,11.006 17.333,5.345 14.425,-7.936 29.229,-15.186 43.9,-22.672 8.08,-4.123 16.465,-7.717 24.249,-12.33 5.409,-3.205 9.958,-0.803 14.273,1.052 9.404,4.044 19.067,7.299 28.732,10.547 6.88,2.311 10.026,0.791 11.312,-6.285 2.269,-12.473 8.776,-23.536 11.002,-36.067 1.243,-6.993 9.421,-6.976 14.555,-9.714 20.663,-11.015 42.003,-20.72 62.38,-32.325 5.404,-3.077 6.381,-6.879 3.797,-11.59 -5.39,-9.83 -10.169,-19.968 -16.075,-29.558 -5.536,-8.989 -9.325,-19.025 -13.928,-28.553 -4.976,-10.299 -10.611,-20.273 -15.339,-30.725 -6.939,-15.34 -15.417,-29.976 -22.852,-45.101 -2.642,-5.373 -5.118,-7.041 -10.812,-3.693 -7.493,4.407 -15.846,7.375 -23.245,11.914 -8.379,5.139 -15.499,0.564 -23.059,-1.465 -7.227,-1.94 -9.019,-6.08 -8.039,-13.799 3.405,-26.822 5.11,-53.868 8.85,-80.634 1.852,-13.257 -4.013,-23.368 -9.121,-34.122 -3.679,-7.743 -6.736,-15.865 -10.453,-23.382 -3.46,-6.999 -7.214,-14.206 -11.012,-21.187 -9.43,-17.335 -17.86,-35.213 -26.825,-52.804 -5.521,-10.834 -11.903,-21.272 -16.784,-32.377 -5.945,-13.526 -12.341,-26.817 -19.554,-39.654 -12.925,-23.002 -22.922,-47.431 -35.585,-70.59 -13.881,-25.384 -25.727,-51.877 -38.634,-77.8 -5.927,-11.903 -12.764,-23.372 -18.286,-35.45 C 131.997,101.469 125.777,89.176 117.515,77.909 106.102,62.344 95.828,45.744 79.978,34.109 70.414,27.09 60.055,21.042 50.215,14.547 37.958,6.456 24.905,4.065 11.528,0.902 7.727,0.003 4.003,0.428 0,0" style="fill:#c03b34;fill-opacity:1;fill-rule:nonzero;stroke:none" transform="matrix(1.3333333,0,0,-1.3333333,952.0268,2566.728)" />
      <path id="path15" d="m 0,0 c -0.212,17.164 3.044,34.04 4.63,51.04 2.654,28.453 6.427,56.803 9.772,85.191 4.781,40.587 9.444,81.189 14.477,121.745 2.122,17.102 3.944,34.221 5.372,51.387 0.397,4.788 3.687,8.249 6.223,11.672 2.903,3.919 5.9,8.033 9.385,11.424 10.989,10.691 18.613,24.145 29.394,34.955 2.752,2.759 2.238,5.417 0.079,8.163 -5.05,6.42 -10.459,10.488 -19.699,11.459 -21.044,2.212 -18.429,-1.871 -16.045,19.057 3.122,27.402 6.262,54.804 9.005,82.245 1.331,13.325 2.046,14.059 15.688,11.972 12.941,-1.979 26.055,-2.972 38.892,-5.446 9.821,-1.893 15.991,3.166 22.489,8.748 13.784,11.843 14.271,12.118 25.13,-2.717 7.216,-9.858 16.317,-13.723 28.077,-14.434 12.725,-0.769 25.379,-2.766 38.053,-4.315 4.17,-0.509 6.216,-1.711 5.843,-7.253 -1.161,-17.214 -4.254,-34.187 -5.458,-51.402 -1.126,-16.102 -4.636,-32.011 -5.401,-48.205 -0.277,-5.88 -2.831,-8.451 -9.135,-7.063 -4.552,1.003 -9.401,0.611 -13.995,1.483 -5.087,0.966 -9.154,-0.461 -13.122,-3.446 -7.425,-5.584 -7.827,-7.896 -3.652,-16.289 5.349,-10.753 10.219,-21.743 15.489,-32.536 1.737,-3.556 3.862,-6.973 6.179,-10.188 8.386,-11.632 4.566,-24.53 3.756,-36.985 -0.825,-12.682 -1.576,-25.51 -4.124,-37.912 -5.983,-29.11 -6.497,-58.857 -11.327,-88.098 -2.623,-15.88 -2.645,-32.171 -4.702,-48.166 -3.697,-28.74 -7.16,-57.497 -10.281,-86.308 -2.996,-27.649 -10.513,-53.772 -27.234,-76.851 C 123.123,-95.554 92.11,-103.463 60.776,-95.097 30.133,-86.916 13.825,-64.8 5.444,-35.512 2.113,-23.874 0.148,-12.108 0,0" style="fill:#c03b34;fill-opacity:1;fill-rule:nonzero;stroke:none" transform="matrix(1.3333333,0,0,-1.3333333,625.728,2104.5433)" />
      </g></svg>