<?xml version='1.0' encoding='utf-8'?>
<svg xmlns="http://www.w3.org/2000/svg" version="1.1" width="95.552" height="163.835" viewBox="2651.170 398.604 95.552 163.835"><g id="object"><path id="path10" d="m 0,0 c -3.678,-7.222 -1.724,-16.965 -4.944,-25.818 -1.306,-3.591 -1.505,-7.367 -2.08,-11.103 -1.989,-12.931 -2.471,-26.373 -11.772,-37.049 -1.651,-1.895 -3.883,-4.372 -5.674,-3.445 -5.263,2.724 -7.968,-0.931 -11.084,-3.495 -4.232,-3.482 -8.161,-6.751 -14.423,-5.017 -2.609,0.723 -5.317,-1.546 -7.737,-3.062 -1.164,-0.73 -2.403,-1.855 -3.779,-0.459 -1.059,1.074 -1.394,2.495 -1.028,3.949 6.803,27.05 6.264,55.575 16.161,81.954 3.031,8.077 7.282,15.785 11.725,23.213 3.101,5.184 7.912,5.291 12.499,1.205 1.594,-1.42 2.839,-2.913 5.319,-2.966 C 1.43,17.517 -2.334,16.202 0,0" style="fill:#d2d5d9;fill-opacity:1;fill-rule:nonzero;stroke:none" transform="matrix(1.3333333,0,0,-1.3333333,2740.7177,436.28947)" />
      </g></svg>