<?xml version='1.0' encoding='utf-8'?>
<svg xmlns="http://www.w3.org/2000/svg" version="1.1" width="3103.236" height="4376.055" viewBox="37.677 52.175 3103.236 4376.055"><defs id="defs1"><clipPath clipPathUnits="userSpaceOnUse" id="clipPath35">
      <path d="M 0,3370.3901 H 2383.9401 V -2.5000001e-5 H 0 Z" id="path35" />
    </clipPath>
  </defs><g id="object"><path id="path2" d="M 2347.453,1754.315 H 32.758 v 1572.444 h 2314.695 z" style="fill:#997352;fill-opacity:1;fill-rule:nonzero;stroke:none" transform="matrix(1.3333333,0,0,-1.3333333,0,4493.8533)" />
      <path id="path3" d="m 32.759,1754.315 h 2314.695 v -298.33 H 32.759 Z" style="fill:#3a2231;fill-opacity:1;fill-rule:nonzero;stroke:none" transform="matrix(1.3333333,0,0,-1.3333333,0,4493.8533)" />
      <path id="path4" d="M 32.759,1455.985 H 2347.454 V 664.658 H 32.759 Z" style="fill:#6b4a33;fill-opacity:1;fill-rule:nonzero;stroke:none" transform="matrix(1.3333333,0,0,-1.3333333,0,4493.8533)" />
      <path id="path5" d="M 32.759,664.658 H 2347.454 V 588.246 H 32.759 Z" style="fill:#391d2a;fill-opacity:1;fill-rule:nonzero;stroke:none" transform="matrix(1.3333333,0,0,-1.3333333,0,4493.8533)" />
      <path id="path6" d="M 32.759,588.246 H 2347.454 V 53.721 H 32.759 Z" style="fill:#573425;fill-opacity:1;fill-rule:nonzero;stroke:none" transform="matrix(1.3333333,0,0,-1.3333333,0,4493.8533)" />
      <path id="path7" d="M 0,0 C -2.557,63.618 -0.863,127.254 -0.861,190.883 2.336,187.802 1.855,183.771 1.857,179.93 1.877,123.179 1.891,66.427 1.774,9.676 1.767,6.45 0.618,3.225 0,0" style="fill:#cdb191;fill-opacity:1;fill-rule:nonzero;stroke:none" transform="matrix(1.3333333,0,0,-1.3333333,3132.3991,574.86533)" />
      <path id="path8" d="m 0,0 c 0.182,-3.21 0.364,-6.42 0.551,-9.629 -0.839,-1.141 -1.683,-2.283 -2.527,-3.425 -224.642,-0.082 -449.284,-0.176 -673.927,-0.24 -98.414,-0.029 -196.829,0.023 -295.243,-0.026 -8.316,-0.004 -17.551,-1.883 -16.983,11.273 5.91,24.103 11.819,48.208 17.728,72.313 7.431,2.156 15.016,3.89 22.27,6.53 106.875,38.905 213.705,77.932 320.547,116.926 103.703,37.848 207.314,75.95 311.158,113.409 39.648,14.302 78.566,30.739 119.322,41.9 19.31,-29.989 34.505,-62.302 52.697,-92.99 26.816,-45.237 49.059,-93.161 74.201,-139.424 C -52.672,84.352 -32.401,53.642 -16.992,20.094 -13.745,13.024 -12.857,0.388 0,0" style="fill:#563124;fill-opacity:1;fill-rule:nonzero;stroke:none" transform="matrix(1.3333333,0,0,-1.3333333,2278.5081,1835.4497)" />
      <path id="path9" d="m 0,0 c -12.857,0.388 -13.745,13.024 -16.992,20.094 -15.409,33.548 -35.68,64.258 -53.214,96.523 -25.142,46.263 -47.385,94.187 -74.201,139.424 -18.192,30.688 -33.387,63.001 -52.685,92.978 -4.17,22.922 -1.453,46.386 -0.307,68.967 2.502,49.326 -1.925,98.563 1.362,147.748 0.932,13.939 -4.508,27.442 -2.328,41.443 6.351,40.804 -2.92,81.678 0.825,122.699 2.08,22.772 1.736,46.08 -0.058,69.32 -1.983,25.68 0.245,51.685 0.639,77.549 5.476,0.65 10.935,1.536 16.43,1.914 53.638,3.686 107.282,7.288 160.925,10.913 13.652,0.713 21.328,-1.606 21.285,-19.434 C 1.006,588.395 1.206,306.65 1.138,24.905 1.136,16.603 0.396,8.302 0,0" style="fill:#6a4530;fill-opacity:1;fill-rule:nonzero;stroke:none" transform="matrix(1.3333333,0,0,-1.3333333,2278.5081,1835.4497)" />
      <path id="path10" d="m 0,0 c -53.642,-3.625 -107.286,-7.227 -160.925,-10.913 -5.494,-0.377 -10.954,-1.264 -16.426,-1.919 -17.139,-0.118 -34.381,-1.469 -51.409,-0.119 -54.317,4.303 -108.684,0.996 -163.004,1.505 -39.812,0.373 -79.777,-0.579 -119.612,-0.9 -44.645,-0.36 -89.417,-1.257 -134.168,1.005 -30.815,1.558 -62.028,-3.591 -92.726,-1.276 -27.185,2.049 -54.131,-0.522 -81.238,0.779 -38.551,1.849 -77.379,-2.222 -115.948,-0.533 -15.281,0.669 -16.062,-3.65 -16.04,-15.728 0.275,-148.56 0.094,-297.122 0.178,-445.683 0.066,-115.175 0.34,-230.349 0.521,-345.523 -5.909,-24.105 -11.818,-48.21 -17.727,-72.314 -3.204,5.08 -2.243,10.743 -2.243,16.254 -0.019,235.919 -0.039,471.839 -0.021,707.758 0.004,51.062 0.642,102.131 -0.098,153.181 -0.197,13.543 4.189,16.712 16.97,16.644 87.905,-0.473 175.814,-0.234 263.722,-0.241 C -516.195,1.963 -342.197,1.933 -168.198,1.922 -118.126,1.919 -68.054,2.027 -17.983,1.895 -11.986,1.879 -5.702,3.31 0,0" style="fill:#cdb191;fill-opacity:1;fill-rule:nonzero;stroke:none" transform="matrix(1.3333333,0,0,-1.3333333,2252.3692,649.354)" />
      <path id="path12" d="m 0,0 c -2.045,-8.212 -1.535,-14.115 9.162,-8.971 6.329,3.044 13.857,3.509 19.101,8.857 3.499,1.144 6.999,2.287 10.498,3.43 15.619,2.545 28.93,11.243 43.593,16.425 59.186,20.917 118.172,42.41 177.115,64.006 64.699,23.706 129.262,47.783 193.9,71.655 81.277,30.018 162.491,60.209 243.951,89.721 10.484,3.798 13.094,9.282 12.975,19.608 -0.49,42.846 -0.131,85.701 -0.204,128.553 -0.154,91.251 -0.384,182.503 -0.581,273.756 0.105,17.062 0.209,34.123 0.314,51.185 -2.688,11.153 -11.774,6.26 -17.871,6.274 -140.081,0.337 -280.163,0.33 -420.244,0.346 -86.159,0.01 -172.318,-0.061 -258.477,-0.054 -7.361,10e-4 -14.951,1.199 -14.57,-10.26 1.108,-33.28 -1.7,-66.625 1.57,-99.876 -1.366,-4.52 -1.314,-9.038 0.009,-13.556 C -3.09,581.304 -1.143,561.356 -0.993,541.512 -0.603,490.108 -3.2,438.672 0.396,387.299 0.358,385.078 0.319,382.857 0.281,380.637 -2.15,369.493 -2.002,358.35 0.27,347.205 0.274,344.986 0.277,342.767 0.28,340.548 -1.842,322.589 -2.913,304.644 1.008,286.766 0.968,283.564 0.928,280.363 0.887,277.16 -3.732,248.57 -0.925,219.776 -1.038,191.097 -1.281,129.639 -0.445,68.177 -0.051,6.716 -0.034,4.477 -0.017,2.239 0,0 m -31.672,-53.769 c -0.182,115.175 -0.456,230.349 -0.521,345.524 -0.085,148.561 0.096,297.122 -0.179,445.683 -0.022,12.078 0.76,16.397 16.04,15.728 38.569,-1.689 77.397,2.382 115.948,0.532 27.107,-1.3 54.053,1.271 81.238,-0.779 30.698,-2.315 61.911,2.834 92.726,1.277 44.751,-2.262 89.523,-1.366 134.168,-1.006 39.835,0.321 79.801,1.274 119.612,0.901 54.32,-0.509 108.687,2.798 163.004,-1.506 17.028,-1.349 34.27,10e-4 51.41,0.12 -0.399,-25.859 -2.627,-51.864 -0.644,-77.544 1.794,-23.24 2.138,-46.548 0.059,-69.32 -3.746,-41.021 5.525,-81.895 -0.826,-122.699 -2.179,-14.001 3.26,-27.504 2.328,-41.443 -3.287,-49.185 1.14,-98.422 -1.362,-147.749 -1.145,-22.58 -3.863,-46.044 0.307,-68.967 C 700.868,213.835 661.951,197.398 622.302,183.095 518.459,145.637 414.847,107.535 311.144,69.687 204.302,30.692 97.472,-8.334 -9.403,-47.239 c -7.254,-2.641 -14.839,-4.374 -22.269,-6.53" style="fill:#997352;fill-opacity:1;fill-rule:nonzero;stroke:none" transform="matrix(1.3333333,0,0,-1.3333333,1026.8704,1670.0695)" />
      <path id="path13" d="m 0,0 c 0.199,-91.252 0.428,-182.504 0.583,-273.755 0.073,-42.852 -0.286,-85.707 0.204,-128.553 0.118,-10.326 -2.491,-15.81 -12.975,-19.608 -81.46,-29.512 -162.675,-59.703 -243.952,-89.721 -64.637,-23.873 -129.2,-47.949 -193.899,-71.655 -58.944,-21.596 -117.929,-43.089 -177.115,-64.006 -14.663,-5.182 -27.974,-13.88 -43.594,-16.425 0.163,5.539 0.327,11.078 0.491,16.617 2.963,6.69 2.53,13.378 -0.007,20.065 0.007,2.229 0.013,4.458 0.02,6.687 2.266,3.343 2.317,6.685 -0.007,10.025 l 0.052,6.683 c 2.502,3.357 2.095,6.709 -0.022,10.056 0.103,34.423 0.205,68.845 0.308,103.268 0.286,0.389 0.866,0.837 0.802,1.156 -0.177,0.883 -0.623,1.712 -0.963,2.562 -0.032,3.313 -0.064,6.626 -0.097,9.939 2.964,14.453 2.776,28.903 -0.05,43.349 -0.014,5.587 -0.029,11.175 -0.043,16.762 2.464,4.424 2.485,8.865 0.093,13.323 0.02,7.785 0.041,15.57 0.061,23.355 2.281,3.38 2.308,6.741 -0.08,10.084 -0.008,2.202 -0.016,4.404 -0.024,6.605 2.048,2.25 2.032,4.51 0.035,6.78 10e-4,5.538 0.002,11.077 0.003,16.615 2.333,3.379 2.304,6.747 -0.048,10.103 -0.009,18.916 -0.018,37.832 -0.028,56.749 3.023,25.605 2.743,51.212 0.025,76.819 0.007,8.899 0.015,17.798 0.022,26.696 3.206,18.957 2.527,37.915 0.008,56.873 0.031,17.717 0.062,35.434 0.093,53.151 0.324,0.378 0.959,0.798 0.914,1.126 -0.124,0.91 -0.531,1.783 -0.826,2.67 -0.052,15.461 -0.104,30.922 -0.157,46.383 0.278,0.378 0.817,0.781 0.782,1.128 -0.085,0.867 -0.431,1.709 -0.672,2.561 3.5,8.895 11.384,5.491 17.357,5.495 C -435.137,0.117 -217.569,0.043 0,0" style="fill:#cdb191;fill-opacity:1;fill-rule:nonzero;stroke:none" transform="matrix(1.3333333,0,0,-1.3333333,1972.8815,780.684)" />
      <path id="path14" d="m 0,0 c 0.009,-18.916 0.019,-37.832 0.027,-56.743 0.016,-3.366 0.032,-6.737 0.048,-10.108 -0.001,-5.539 -0.002,-11.077 -0.003,-16.61 -0.011,-2.258 -0.023,-4.522 -0.034,-6.785 0.008,-2.202 0.016,-4.404 0.023,-6.6 0.026,-3.359 0.053,-6.724 0.08,-10.09 -0.02,-7.784 -0.04,-15.569 -0.061,-23.348 -1.466,-4.429 -1.451,-8.875 -0.093,-13.33 0.015,-5.587 0.029,-11.174 0.043,-16.755 -1.682,-14.45 -1.672,-28.904 0.051,-43.355 0.032,-3.313 0.065,-6.626 0.096,-9.933 0.054,-1.238 0.108,-2.481 0.162,-3.725 -0.103,-34.422 -0.205,-68.845 -0.308,-103.262 0.007,-3.35 0.014,-6.706 0.021,-10.062 -0.017,-2.227 -0.034,-4.455 -0.052,-6.676 0.002,-3.34 0.005,-6.686 0.008,-10.032 -0.007,-2.229 -0.014,-4.458 -0.021,-6.68 -1.573,-6.687 -1.417,-13.38 0.008,-20.071 -0.164,-5.54 -0.328,-11.079 -0.492,-16.618 -3.498,-1.143 -6.997,-2.286 -10.497,-3.429 -9.421,0.038 -18.842,0.076 -28.263,0.113 -0.017,2.239 -0.034,4.478 -0.06,6.714 8.751,4.267 8.298,12.413 8.075,20.139 -0.589,20.406 -2.031,40.799 -2.153,61.204 -0.144,24.119 0.82,48.404 0.466,72.344 -0.53,35.756 -0.689,71.538 -0.575,107.304 0.016,4.801 1.873,8.843 -4.865,9.456 0.04,3.202 0.08,6.404 0.123,9.607 4.915,17.998 7.405,35.961 -0.731,53.78 -0.003,2.219 -0.006,4.438 -0.019,6.657 7.659,5.255 7.672,19.713 0.02,33.432 0.038,2.221 0.077,4.441 0.105,6.662 8.011,0.507 7.687,6.305 7.687,12.006 -0.005,64.588 1.084,129.194 -3.326,193.708 -0.24,3.508 -0.887,6.567 -4.506,8.086 -1.322,4.518 -1.374,9.037 -0.018,13.553 7.248,3.898 4.378,10.811 4.395,16.454 0.082,26.473 0.11,52.917 3.313,79.272 0.743,6.116 1.488,11.462 9.155,10.9 43.329,-3.178 87.258,7.321 130.195,-5.84 5.135,-1.575 11.598,-2.256 16.069,1.589 6.334,5.447 13.489,4.346 20.569,4.349 150.663,0.052 301.327,-0.083 451.99,0.319 10.023,0.027 19.337,-4.893 29.553,-2.241 14.812,3.845 29.67,2.684 44.362,-1.228 -0.104,-17.062 -0.209,-34.124 -0.314,-51.186 -217.57,0.042 -435.139,0.116 -652.707,-0.038 -5.973,-0.004 -13.858,3.4 -17.356,-5.491 C 0.154,266.184 0.117,264.951 0.079,263.719 0.131,248.257 0.184,232.796 0.236,217.34 0.206,216.075 0.177,214.807 0.148,213.539 0.117,195.823 0.086,178.105 0.054,160.394 -1.825,141.438 -1.596,122.477 0.047,103.515 0.039,94.617 0.032,85.718 0.024,76.825 -1.778,51.221 -1.605,25.611 0,0" style="fill:#3a202e;fill-opacity:1;fill-rule:nonzero;stroke:none" transform="matrix(1.3333333,0,0,-1.3333333,1079.2127,1144.6047)" />
      <path id="path15" d="m 0,0 c -14.692,3.912 -29.55,5.073 -44.362,1.229 -10.216,-2.653 -19.53,2.267 -29.553,2.24 -150.663,-0.402 -301.327,-0.266 -451.991,-0.319 -7.079,-0.002 -14.235,1.099 -20.568,-4.348 -4.471,-3.846 -10.934,-3.164 -16.07,-1.59 -42.937,13.162 -86.865,2.662 -130.194,5.84 -7.668,0.562 -8.412,-4.784 -9.156,-10.9 -3.202,-26.355 -3.231,-52.798 -3.312,-79.272 -0.017,-5.643 2.853,-12.556 -4.395,-16.453 -3.261,33.254 -0.453,66.599 -1.561,99.879 -0.381,11.459 7.209,10.261 14.57,10.26 86.159,-0.007 172.318,0.064 258.477,0.054 C -298.034,6.604 -157.952,6.611 -17.871,6.274 -11.774,6.259 -2.688,11.153 0,0" style="fill:#563124;fill-opacity:1;fill-rule:nonzero;stroke:none" transform="matrix(1.3333333,0,0,-1.3333333,1973.3023,712.43573)" />
      <path id="path16" d="M 0,0 C 6.738,-0.613 4.881,-4.655 4.866,-9.456 4.752,-45.222 4.91,-81.004 5.44,-116.759 c 0.355,-23.94 -0.61,-48.226 -0.466,-72.345 0.122,-20.405 1.565,-40.798 2.153,-61.204 0.223,-7.726 0.677,-15.872 -8.074,-20.139 -0.386,61.463 -1.222,122.926 -0.979,184.384 C -1.813,-57.384 -4.619,-28.591 0,0" style="fill:#563124;fill-opacity:1;fill-rule:nonzero;stroke:none" transform="matrix(1.3333333,0,0,-1.3333333,1028.0536,1300.5223)" />
      <path id="path17" d="m 0,0 c 3.619,-1.52 4.266,-4.579 4.506,-8.087 4.409,-64.514 3.321,-129.12 3.325,-193.708 10e-4,-5.7 0.324,-11.498 -7.686,-12.006 -3.586,51.374 -0.989,102.81 -1.379,154.214 C -1.384,-39.743 -3.331,-19.795 0,0" style="fill:#563124;fill-opacity:1;fill-rule:nonzero;stroke:none" transform="matrix(1.3333333,0,0,-1.3333333,1027.192,868.604)" />
      <path id="path18" d="M 0,0 C 8.136,-17.819 5.645,-35.782 0.731,-53.78 -3.193,-35.904 -2.122,-17.959 0,0" style="fill:#563124;fill-opacity:1;fill-rule:nonzero;stroke:none" transform="matrix(1.3333333,0,0,-1.3333333,1027.2439,1216.006)" />
      <path id="path19" d="M 0,0 C 7.652,-13.719 7.639,-28.177 -0.02,-33.432 -2.283,-22.287 -2.431,-11.143 0,0" style="fill:#563124;fill-opacity:1;fill-rule:nonzero;stroke:none" transform="matrix(1.3333333,0,0,-1.3333333,1027.2447,1162.5539)" />
      <path id="path20" d="M 0,0 C 9.421,-0.038 18.842,-0.075 28.263,-0.114 23.019,-5.462 15.491,-5.927 9.162,-8.971 -1.535,-14.115 -2.045,-8.212 0,0" style="fill:#563124;fill-opacity:1;fill-rule:nonzero;stroke:none" transform="matrix(1.3333333,0,0,-1.3333333,1026.8704,1670.0695)" />
      <path id="path21" d="M 0,0 C -1.605,25.611 -1.778,51.221 0.024,76.825 2.742,51.212 3.022,25.605 0,0" style="fill:#997352;fill-opacity:1;fill-rule:nonzero;stroke:none" transform="matrix(1.3333333,0,0,-1.3333333,1079.2127,1144.6047)" />
      <path id="path22" d="M 0,0 C -1.642,18.961 -1.872,37.923 0.008,56.878 2.527,37.915 3.206,18.957 0,0" style="fill:#997352;fill-opacity:1;fill-rule:nonzero;stroke:none" transform="matrix(1.3333333,0,0,-1.3333333,1079.2749,1006.5841)" />
      <path id="path23" d="M 0,0 C -1.723,14.452 -1.733,28.906 -0.051,43.355 2.776,28.902 2.964,14.453 0,0" style="fill:#997352;fill-opacity:1;fill-rule:nonzero;stroke:none" transform="matrix(1.3333333,0,0,-1.3333333,1079.3207,1416.2371)" />
      <path id="path24" d="M 0,0 C -1.425,6.692 -1.581,13.384 -0.008,20.071 2.53,13.377 2.963,6.689 0,0" style="fill:#997352;fill-opacity:1;fill-rule:nonzero;stroke:none" transform="matrix(1.3333333,0,0,-1.3333333,1079.2059,1643.4917)" />
      <path id="path25" d="M 0,0 C -1.358,4.455 -1.374,8.901 0.093,13.33 2.486,8.865 2.464,4.424 0,0" style="fill:#997352;fill-opacity:1;fill-rule:nonzero;stroke:none" transform="matrix(1.3333333,0,0,-1.3333333,1079.1959,1336.0896)" />
      <path id="path36" d="M 30.69043,6.734375e-4 41.331055,-38.893858 c 2.765625,-9.632812 4.429687,-16.945312 5.753906,-24.375 h 0.222656 c 0.996094,7.535156 2.554688,14.847656 4.875,24.375 L 61.604492,6.734375e-4 H 71.682617 L 92.84668,-74.68292 h -9.855469 l -9.867188,37.675781 c -2.320312,9.304687 -4.429687,17.613281 -5.976562,25.816406 h -0.222656 c -1.113282,-7.863281 -3.105469,-16.734375 -5.214844,-25.59375 L 52.62793,-74.68292 H 42.549805 l -9.972657,37.675781 c -2.554687,9.644531 -4.875,18.503906 -6.09375,25.921875 h -0.222656 c -1.335937,-7.195313 -3.328125,-16.5 -5.542969,-25.816406 L 11.858398,-74.68292 H 1.6630859 L 20.612305,6.734375e-4 Z M 102.16309,-74.68292 V 6.734375e-4 h 9.63281 V -35.014952 h 36.11719 V 6.734375e-4 h 9.76171 V -74.68292 h -9.76171 v 31.253906 H 111.7959 V -74.68292 Z m 72.24316,0 V 6.734375e-4 h 9.63281 V -74.68292 Z M 215.06738,6.734375e-4 h 9.75 V -66.479795 h 22.82813 v -8.203125 h -55.28906 v 8.203125 h 22.71093 z m 49.97168,0 V -31.909483 c 0,-12.410156 -0.22265,-21.386719 -0.77344,-30.808594 l 0.32813,-0.105468 c 3.77344,8.085937 8.75391,16.617187 13.95703,24.925781 L 302.26953,6.734375e-4 h 9.75 V -74.68292 h -9.08203 v 31.253906 c 0,11.625 0.21094,20.71875 1.10156,30.691406 l -0.22265,0.105469 c -3.53907,-7.640625 -7.86329,-15.515625 -13.40625,-24.269531 L 266.48047,-74.68292 H 255.95703 V 6.734375e-4 Z M 367.52246,-42.99542 h -29.02734 v -23.589844 h 30.6914 V -74.68292 H 328.8623 V 6.734375e-4 h 41.98829 V -8.0852641 H 338.49512 V -35.014952 h 29.02734 z M 410.07617,6.734375e-4 V -31.804014 l 25.04297,-42.878906 h -10.96875 l -10.74609,20.613281 c -2.88282,5.648437 -5.4375,10.523437 -7.53516,15.398437 h -0.22266 c -2.33203,-5.203125 -4.54687,-9.75 -7.42968,-15.398437 L 387.69336,-74.68292 h -10.96875 l 23.60156,42.996093 V 6.734375e-4 Z m 121.88379,0 h 9.41016 L 536.71777,-74.68292 H 524.4248 l -13.30078,36.128906 c -3.3164,9.410156 -5.97656,17.613281 -7.86328,25.148437 h -0.32812 c -1.88672,-7.757812 -4.44141,-15.960937 -7.53516,-25.148437 l -12.75,-36.128906 H 470.35449 L 465.13965,6.734375e-4 h 9.19922 L 476.33105,-32.014952 c 0.66797,-11.191406 1.21875,-23.71875 1.44141,-33.023437 h 0.22266 c 2.10937,8.859375 5.09765,18.503906 8.64843,29.027344 l 12.07032,35.56640594 h 7.3125 L 519.20996,-36.679014 c 3.77344,-10.300781 6.87891,-19.605469 9.42188,-28.359375 h 0.32812 c -0.10547,9.304687 0.5625,21.832031 1.11328,32.238281 z M 556.10937,-74.68292 v 43.992187 c 0,23.1562502 11.51954,31.9101564 26.8125,31.9101564 16.1836,0 28.25391,-9.421875 28.25391,-32.3554684 V -74.68292 h -9.75 v 44.214843 c 0,16.511719 -7.08984,23.8242192 -18.16406,23.8242192 -9.97266,0 -17.40235,-7.0898442 -17.40235,-23.8242192 V -74.68292 Z m 68.03321,71.0273434 c 3.98437,2.66015629 11.85937,4.7695313 19.05469,4.7695313 17.625,0 26.15625,-9.9726563 26.15625,-21.5039067 0,-10.96875 -6.4336,-17.0625 -19.06641,-21.9375 -10.30078,-3.984375 -14.83594,-7.417968 -14.83594,-14.402343 0,-5.097657 3.86719,-11.191407 14.0625,-11.191407 6.76172,0 11.75391,2.214844 14.19141,3.550782 l 2.64844,-7.875 c -3.31641,-1.875 -8.85938,-3.65625 -16.5,-3.65625 -14.51954,0 -24.16407,8.648437 -24.16407,20.285156 0,10.523437 7.53516,16.839844 19.72266,21.152344 10.08984,3.878906 14.07422,7.875 14.07422,14.847656 0,7.535156 -5.75391,12.7499999 -15.6211,12.7499999 -6.64453,0 -12.96093,-2.2148437 -17.28515,-4.8749999 z M 721.2002,-42.99542 h -29.02735 v -23.589844 h 30.69141 V -74.68292 H 682.54004 V 6.734375e-4 h 41.98828 V -8.0852641 H 692.17285 V -35.014952 h 29.02735 z m 15.73828,-31.6875 v 43.992187 c 0,23.1562502 11.51953,31.9101564 26.8125,31.9101564 16.18359,0 28.2539,-9.421875 28.2539,-32.3554684 V -74.68292 h -9.75 v 44.214843 c 0,16.511719 -7.08984,23.8242192 -18.16406,23.8242192 -9.97266,0 -17.40234,-7.0898442 -17.40234,-23.8242192 V -74.68292 Z M 873.55859,6.734375e-4 h 9.41016 L 878.31641,-74.68292 h -12.29297 l -13.30078,36.128906 c -3.31641,9.410156 -5.97657,17.613281 -7.86329,25.148437 h -0.32812 c -1.88672,-7.757812 -4.44141,-15.960937 -7.53516,-25.148437 l -12.75,-36.128906 H 811.95312 L 806.73828,6.734375e-4 h 9.19922 L 817.92969,-32.014952 c 0.66797,-11.191406 1.21875,-23.71875 1.4414,-33.023437 h 0.22266 c 2.10937,8.859375 5.09766,18.503906 8.64844,29.027344 l 12.07031,35.56640594 h 7.3125 L 860.80859,-36.679014 c 3.77344,-10.300781 6.87891,-19.605469 9.42188,-28.359375 h 0.32812 c -0.10547,9.304687 0.5625,21.832031 1.11328,32.238281 z m 0,0" style="fill:#ffffff;fill-opacity:1;fill-rule:nonzero;stroke:none" aria-label="WHITNEY MUSEUM" transform="matrix(1.3333333,0,0,1.3333333,957.83333,4010.4561)" />
      <path id="path37" d="m 2.8701,-0.07167344 c 1.0898438,0.140625 2.8242188,0.29296875 5.0976563,0.29296875 4.1484377,0 7.0195317,-0.75 8.7890627,-2.37890621 1.289062,-1.2421875 2.15625,-2.90625 2.15625,-5.0859375 0,-3.7851566 -2.835938,-5.7773436 -5.25,-6.3867186 v -0.07031 c 2.683594,-0.984375 4.300781,-3.140625 4.300781,-5.589843 0,-2.003907 -0.785156,-3.503907 -2.109375,-4.488282 -1.582031,-1.289062 -3.703125,-1.851562 -6.984375,-1.851562 -2.3085937,0 -4.5703125,0.222656 -6,0.527344 z M 6.15135,-22.876361 c 0.5273438,-0.117187 1.3945313,-0.222656 2.90625,-0.222656 3.316406,0 5.589844,1.171875 5.589844,4.148437 0,2.449219 -2.039063,4.265625 -5.5195315,4.265625 H 6.15135 Z m 0,10.6875 H 8.8701 c 3.585938,0 6.5625,1.429688 6.5625,4.8984376 0,3.703125 -3.128906,4.9453125 -6.5273437,4.9453125 -1.171875,0 -2.109375,-0.035156 -2.7539063,-0.1523438 z m 14.797852,-6.082031 6.761718,16.8398436 c 0.140625,0.4101562 0.222657,0.67968746 0.222657,0.86718746 0,0.1875 -0.117188,0.4453125 -0.269532,0.78515625 -0.75,1.69921879 -1.886718,2.98828129 -2.789062,3.70312499 -0.984375,0.8320313 -2.074219,1.359375 -2.90625,1.6171875 l 0.832031,2.8007813 c 0.832031,-0.1523438 2.449219,-0.7148438 4.078125,-2.15625 2.261719,-1.9570313 3.878906,-5.1679688 6.257813,-11.4375 L 38.128889,-18.270892 H 34.613264 L 30.99217,-7.5482359 c -0.457031,1.3242187 -0.832031,2.71875 -1.171875,3.8085937 h -0.08203 c -0.292969,-1.0898437 -0.75,-2.53125 -1.160156,-3.7382812 L 24.570295,-18.270892 Z m 0,0" style="fill:#ffffff;fill-opacity:1;fill-rule:nonzero;stroke:none" aria-label="By" transform="matrix(1.3333333,0,0,1.3333333,1519.4232,4126.1385)" />
      <path id="path38" d="m 37.827125,6.34375e-4 h 4.863281 L 40.288063,-38.577491 H 33.9365 l -6.867187,18.65625 c -1.710938,4.875 -3.09375,9.105469 -4.066407,12.9960941 H 22.838844 C 21.866188,-10.932959 20.541969,-15.163428 18.948219,-19.921241 l -6.585938,-18.65625 H 6.0107188 L 3.3154063,6.34375e-4 H 8.0732188 L 9.1044688,-16.534522 c 0.3398437,-5.789062 0.6210937,-12.257812 0.7382812,-17.0625 h 0.1171875 c 1.0898435,4.582031 2.6250005,9.5625 4.4648435,15 l 6.234375,18.36328137 h 3.773438 L 31.252906,-18.948584 c 1.945313,-5.320313 3.539063,-10.125 4.863282,-14.648438 h 0.164062 c -0.04687,4.804688 0.292969,11.273438 0.574219,16.652344 z M 69.713844,-12.128272 73.827125,6.34375e-4 h 5.332031 L 65.987281,-38.577491 h -6 L 46.874,6.34375e-4 h 5.15625 L 56.038063,-12.128272 Z m -12.65625,-3.902344 3.785156,-11.15625 c 0.738281,-2.34375 1.371094,-4.6875 1.945313,-6.984375 h 0.117187 c 0.5625,2.238282 1.136719,4.523438 2.003906,7.042969 l 3.773438,11.097656 z M 84.822242,6.34375e-4 h 4.980469 V -16.710303 h 4.699219 c 4.511718,0.175781 6.57422,2.167969 7.72266,7.4999999 1.08984,4.8046875 1.94531,8.1210937 2.57812,9.210937475 h 5.14453 C 109.15037,-1.4876469 108.2363,-5.2024906 106.97068,-10.593116 c -0.91406,-3.996093 -2.68359,-6.75 -5.66016,-7.78125 v -0.164062 c 4.06641,-1.382813 7.26563,-4.757813 7.26563,-9.84375 0,-2.976563 -1.08985,-5.613281 -3.03516,-7.335938 -2.40234,-2.167968 -5.835935,-3.140625 -11.156248,-3.140625 -3.433594,0 -7.042969,0.28125 -9.5625,0.796875 z M 89.802711,-34.569678 c 0.796875,-0.222656 2.519531,-0.457031 4.921875,-0.457031 5.261719,0.05859 8.871094,2.226562 8.871094,7.207031 0,4.40625 -3.375,7.335937 -8.695313,7.335937 H 89.802711 Z M 141.7197,-5.2024906 c -2.0039,0.9726562 -5.09765,1.59375 -8.13281,1.59375 -9.38672,0 -14.82422,-6.0585938 -14.82422,-15.5039064 0,-10.136719 6.01172,-15.914062 15.0586,-15.914062 3.19921,0 5.89453,0.691406 7.78125,1.605468 l 1.19531,-4.066406 c -1.3125,-0.691406 -4.34766,-1.722656 -9.15235,-1.722656 -11.96484,0 -20.14453,8.191406 -20.14453,20.261719 0,12.6562496 8.17969,19.52343712 19.05469,19.52343712 4.69922,0 8.35547,-0.9140625 10.19531,-1.82812502 z m 27.24317,-17.0039064 h -15 v -12.1875 h 15.85547 v -4.183594 H 148.9824 V 6.34375e-4 h 21.6914 V -4.1829594 H 153.96287 V -18.081397 h 15 z M 177.14255,6.34375e-4 H 198.6113 V -4.1829594 H 182.12302 V -38.577491 h -4.98047 z m 39.14942,-0.117187505 c 1.66406,0.234375 4.28906,0.45703125 7.73437,0.45703125 6.29297,0 10.64063,-1.13671875 13.32422,-3.59765622 1.95703,-1.8984375 3.26953,-4.40625 3.26953,-7.7343749 0,-5.71875 -4.28906,-8.753906 -7.95703,-9.667969 v -0.117187 c 4.06641,-1.488282 6.52735,-4.746094 6.52735,-8.472657 0,-3.035156 -1.20703,-5.320312 -3.21094,-6.808593 -2.40234,-1.945313 -5.60156,-2.800782 -10.58203,-2.800782 -3.49219,0 -6.92578,0.339844 -9.10547,0.796875 z m 4.98047,-34.57031287 c 0.79687,-0.164062 2.12109,-0.339843 4.40625,-0.339843 5.03906,0 8.47265,1.769531 8.47265,6.292968 0,3.726563 -3.09375,6.46875 -8.35546,6.46875 h -4.52344 z m 0,16.195313 h 4.125 c 5.4375,0 9.96094,2.179687 9.96094,7.441406 0,5.6132814 -4.75782,7.5000001 -9.90235,7.5000001 -1.78125,0 -3.21094,-0.058594 -4.18359,-0.2226562 z M 247.31443,6.34375e-4 h 4.98047 V -16.710303 h 4.69922 c 4.51172,0.175781 6.57422,2.167969 7.72265,7.4999999 1.08985,4.8046875 1.94532,8.1210937 2.57813,9.210937475 h 5.14453 C 271.64255,-1.4876469 270.72849,-5.2024906 269.46287,-10.593116 c -0.91407,-3.996093 -2.6836,-6.75 -5.66016,-7.78125 v -0.164062 c 4.06641,-1.382813 7.26563,-4.757813 7.26563,-9.84375 0,-2.976563 -1.08985,-5.613281 -3.03516,-7.335938 -2.40234,-2.167968 -5.83594,-3.140625 -11.15625,-3.140625 -3.43359,0 -7.04297,0.28125 -9.5625,0.796875 z M 252.2949,-34.569678 c 0.79687,-0.222656 2.51953,-0.457031 4.92187,-0.457031 5.26172,0.05859 8.8711,2.226562 8.8711,7.207031 0,4.40625 -3.375,7.335937 -8.69532,7.335937 h -5.09765 z m 45.79394,12.363281 h -15 v -12.1875 h 15.85547 v -4.183594 H 278.10838 V 6.34375e-4 h 21.6914 V -4.1829594 H 283.08884 V -18.081397 h 15 z m 8.1211,-16.371094 v 22.722657 c 0,11.9648434 5.95312,16.48828087 13.85156,16.48828087 8.35547,0 14.60156,-4.86328127 14.60156,-16.71093787 v -22.5 H 329.624 v 22.839844 c 0,8.5312501 -3.66797,12.3046876 -9.38672,12.3046876 -5.15625,0 -8.98828,-3.6679687 -8.98828,-12.3046876 v -22.839844 z m 57.07031,16.371094 h -15 v -12.1875 h 15.85547 v -4.183594 H 343.29978 V 6.34375e-4 h 21.69141 V -4.1829594 H 348.28025 V -18.081397 h 15 z m 8.17969,22.207031375 h 4.98047 V -16.710303 h 4.69922 c 4.51171,0.175781 6.57421,2.167969 7.72265,7.4999999 1.08985,4.8046875 1.94531,8.1210937 2.57813,9.210937475 h 5.14453 C 395.78806,-1.4876469 394.874,-5.2024906 393.60838,-10.593116 c -0.91407,-3.996093 -2.6836,-6.75 -5.66016,-7.78125 v -0.164062 c 4.06641,-1.382813 7.26562,-4.757813 7.26562,-9.84375 0,-2.976563 -1.08984,-5.613281 -3.03515,-7.335938 -2.40235,-2.167968 -5.83594,-3.140625 -11.15625,-3.140625 -3.4336,0 -7.04297,0.28125 -9.5625,0.796875 z M 376.44041,-34.569678 c 0.79687,-0.222656 2.51953,-0.457031 4.92187,-0.457031 5.26172,0.05859 8.8711,2.226562 8.8711,7.207031 0,4.40625 -3.375,7.335937 -8.69532,7.335937 h -5.09765 z m 0,0" style="fill:#ffffff;fill-opacity:1;fill-rule:nonzero;stroke:none" aria-label="MARCEL BREUER" transform="matrix(1.3333333,0,0,1.3333333,1276.7513,4226.8195)" />
    </g></svg>