<?xml version='1.0' encoding='utf-8'?>
<svg xmlns="http://www.w3.org/2000/svg" version="1.1" width="438.094" height="145.516" viewBox="1391.030 3988.550 438.094 145.516"><defs id="defs1"><clipPath clipPathUnits="userSpaceOnUse" id="clipPath6">
      <path d="M 0,3370.3901 H 2383.9401 V -2.5000001e-5 H 0 Z" id="path6" />
    </clipPath>
  </defs><g id="object"><path id="path4" d="m 30.784175,-33.094147 c 0,18.996094 -6.609375,24.0234376 -17.835937,24.0234376 -4.1718755,0 -7.9101567,-0.8554687 -10.5000005,-1.8632816 l -1.875,10.21875038 C 3.7373,0.57382188 9.3505813,1.5816344 13.95605,1.5816344 c 16.6875,0 29.355469,-7.9101563 29.355469,-33.6679684 V -96.973053 H 30.784175 Z m 83.460935,2.589844 10.35938,30.503906125 H 137.9873 L 104.89355,-96.973053 H 89.788081 L 56.834956,-3.96875e-4 H 69.784175 L 79.850581,-30.504303 Z m -31.804685,-9.785156 9.503906,-28.054688 c 1.863282,-5.894531 3.445313,-11.800781 4.886719,-17.554687 h 0.292969 c 1.441406,5.613281 2.871094,11.367187 5.039061,17.695312 l 9.49219,27.914063 z M 173.52441,-3.96875e-4 187.34082,-50.508209 c 3.59765,-12.515625 5.7539,-22.007813 7.47656,-31.652344 h 0.29297 c 1.28906,9.785156 3.30468,19.289062 6.32812,31.652344 l 12.23438,50.507812125 h 13.08984 L 254.24316,-96.973053 h -12.80859 l -12.8086,48.914062 c -3.01172,12.09375 -5.7539,22.875 -7.76953,33.527344 h -0.28125 c -1.44141,-10.21875 -4.03125,-21.726562 -6.76172,-33.234375 l -11.80078,-49.207031 h -13.08984 l -12.94922,48.914062 c -3.31641,12.515625 -6.33985,24.035157 -7.92188,33.667969 h -0.28125 c -1.72265,-9.351562 -4.3125,-21.433594 -7.19531,-33.527344 L 149.06738,-96.973053 H 135.82519 L 160.43457,-3.96875e-4 Z M 261.44433,-4.7464906 c 5.17969,3.4453125 15.38672,6.1875 24.73828,6.1875 22.88672,0 33.96094,-12.9492184 33.96094,-27.9140624 0,-14.25 -8.34375,-22.160156 -24.75,-28.488281 -13.38281,-5.179688 -19.27734,-9.644532 -19.27734,-18.703125 0,-6.621094 5.03906,-14.53125 18.26953,-14.53125 8.77734,0 15.25781,2.871093 18.42187,4.59375 l 3.45703,-10.207032 c -4.32422,-2.449218 -11.51953,-4.746093 -21.44531,-4.746093 -18.84375,0 -31.35937,11.214843 -31.35937,26.320312 0,13.675781 9.77343,21.878906 25.60546,27.492188 13.08985,5.027343 18.26954,10.207031 18.26954,19.277343 0,9.785157 -7.47657,16.5468754 -20.28516,16.5468754 -8.63672,0 -16.82813,-2.8828124 -22.44141,-6.3281254 z m 0,0" style="fill:#ffffff;fill-opacity:1;fill-rule:nonzero;stroke:none" aria-label="JAWS" transform="matrix(1.3333333,0,0,1.3333333,1396.2669,4125.9615)" />
      </g></svg>