<?xml version='1.0' encoding='utf-8'?>
<svg xmlns="http://www.w3.org/2000/svg" version="1.1" width="123.349" height="102.660" viewBox="1866.760 4067.750 123.349 102.660"><g id="object"><path id="path122" d="m 0,0 c -0.907,5.23 -1.692,9.858 -2.523,14.478 -0.228,1.267 0.144,3.174 -1.926,3.062 C -6.211,17.445 -6.415,15.694 -6.676,14.356 -7.529,9.991 -8.471,5.627 -8.996,1.218 -9.45,-2.597 -6.236,-2.624 -3.755,-2.842 -1.545,-3.037 0.725,-2.716 0,0 m 11.59,-23.458 c -4.092,-0.578 -6.788,0.847 -7.669,5.189 -0.998,4.921 -4.64,5.995 -9.052,6.008 -4.285,0.013 -7.201,-1.519 -8.257,-5.98 -0.784,-3.317 -2.763,-5.351 -6.494,-5.332 -4.015,0.021 -6.137,0.885 -4.996,5.816 4.189,18.1 8.096,36.267 11.917,54.449 1.037,4.931 4.523,5.404 8.436,5.778 4.093,0.391 7.05,-1.021 8.063,-5.16 4.473,-18.268 8.769,-36.58 13.328,-54.827 1.25,-5.004 -0.53,-6.617 -5.276,-5.941" style="fill:#494f57;fill-opacity:1;fill-rule:nonzero;stroke:none" transform="matrix(1.3333333,0,0,-1.3333333,1906.3441,4131.9899)" />
      <path id="path171" d="m 0,0 c 4.996,0.109 7.895,-1.42 8.214,-6.798 0.316,-5.315 -2.68,-5.727 -6.625,-5.799 -6.084,-0.111 -10.339,-3.206 -12.484,-8.794 -3.035,-7.911 -4.053,-16.141 -1.004,-24.208 2.43,-6.429 7.617,-10.199 14.482,-10.946 3.87,-0.423 6.215,-1.363 5.98,-5.906 -0.239,-4.638 -3.387,-5.412 -6.78,-5.525 -7.533,-0.251 -13.765,2.94 -19.02,8.141 -15.989,15.822 -11.394,48.021 7.43,57.116 C -6.438,-1.092 -3.013,-0.952 0,0" style="fill:#494f57;fill-opacity:1;fill-rule:nonzero;stroke:none" transform="matrix(1.3333333,0,0,-1.3333333,1972.6651,4073.7576)" />
      </g></svg>