<?xml version='1.0' encoding='utf-8'?>
<svg xmlns="http://www.w3.org/2000/svg" version="1.1" width="1539.010" height="95.312" viewBox="860.766 3747.780 1539.010 95.312"><g id="object"><path id="path1335" d="M 28.195356,-0.00129219 V -25.770823 l 20.285157,-34.746094 h -8.894532 l -8.707031,16.699219 c -2.332031,4.582031 -4.394531,8.53125 -6.105469,12.480468 H 24.5977 c -1.886719,-4.21875 -3.679687,-7.898437 -6.011719,-12.480468 l -8.53125,-16.699219 H 1.1719188 L 20.2852,-25.677073 V -0.00129219 Z M 76.672895,-61.501292 c -16.160156,0 -28.101562,12.574219 -28.101562,31.78125 0,18.316406 11.214844,30.70312481 27.199219,30.70312481 15.445312,0 28.101558,-11.03906281 28.101558,-31.86328081 0,-17.964844 -10.687496,-30.621094 -27.199215,-30.621094 z m -0.363281,6.375 c 13.019531,0 19.300781,12.574219 19.300781,24.597656 0,13.734375 -6.996093,25.1367188 -19.394531,25.1367188 -12.292969,0 -19.300781,-11.5781248 -19.300781,-24.5039058 0,-13.289063 6.46875,-25.230469 19.394531,-25.230469 z m 37.620116,-5.390625 v 35.648437 c 0,18.7617191 9.32813,25.85156281 21.72656,25.85156281 13.10157,0 22.88672,-7.62890621 22.88672,-26.21484381 v -35.285156 h -7.89843 v 35.824219 c 0,13.382812 -5.74219,19.3007808 -14.71875,19.3007808 -8.08594,0 -14.09766,-5.7421878 -14.09766,-19.3007808 v -35.824219 z m 108.44238,41.484375 6.46875,19.03124981 h 8.34375 L 216.53618,-60.516917 h -9.42188 l -20.55469,60.51562481 h 8.07422 l 6.28125,-19.03124981 z m -19.83984,-6.105469 5.92969,-17.507812 c 1.16015,-3.679688 2.15625,-7.359375 3.04687,-10.957032 h 0.1875 c 0.89063,3.503907 1.79297,7.101563 3.14063,11.050782 l 5.91797,17.414062 z m 43.53809,25.13671881 h 7.8164 V -26.216136 h 7.35938 c 7.08984,0.269531 10.32422,3.410156 12.11719,11.765625 1.71093,7.5351563 3.05859,12.7382813 4.04296,14.44921881 h 8.07422 c -1.2539,-2.33203121 -2.68359,-8.16796871 -4.66406,-16.60546881 -1.44141,-6.292969 -4.21875,-10.59375 -8.88281,-12.210937 v -0.269532 c 6.375,-2.15625 11.40234,-7.453125 11.40234,-15.445312 0,-4.664063 -1.71094,-8.800781 -4.75781,-11.484375 -3.77344,-3.421875 -9.16406,-4.945313 -17.50781,-4.945313 -5.39063,0 -11.05078,0.445313 -15,1.253907 z m 7.8164,-54.22265581 c 1.25391,-0.363282 3.94922,-0.726563 7.72266,-0.726563 8.25,0.09375 13.91016,3.503906 13.91016,11.320313 0,6.914062 -5.29688,11.484375 -13.64063,11.484375 h -7.99219 z m 71.81836,19.394531 h -23.51953 v -19.125 h 24.86719 v -6.5625 h -32.6836 v 60.51562481 h 34.03125 V -6.5520734 H 302.18559 V -28.372386 h 23.51953 z m 39.22559,34.82812481 V -25.852855 c 0,-10.054687 -0.17578,-17.332031 -0.6211,-24.960937 l 0.26954,-0.09375 c 3.04687,6.550781 7.08984,13.464844 11.30859,20.203125 l 19.21875,30.70312481 h 7.89844 V -60.516917 h -7.3711 v 25.324219 c 0,9.421875 0.1875,16.78125 0.90235,24.867187 l -0.17578,0.09375 c -2.8711,-6.199219 -6.375,-12.574219 -10.86329,-19.664062 l -19.39453,-30.621094 h -8.53125 V -0.00129219 Z M 441.15825,-61.501292 c -16.16016,0 -28.10157,12.574219 -28.10157,31.78125 0,18.316406 11.21485,30.70312481 27.19922,30.70312481 15.44532,0 28.10157,-11.03906281 28.10157,-31.86328081 0,-17.964844 -10.6875,-30.621094 -27.19922,-30.621094 z m -0.36328,6.375 c 13.01953,0 19.30078,12.574219 19.30078,24.597656 0,13.734375 -6.9961,25.1367188 -19.39453,25.1367188 -12.29297,0 -19.30079,-11.5781248 -19.30079,-24.5039058 0,-13.289063 6.46875,-25.230469 19.39454,-25.230469 z m 46.9541,55.12499981 h 7.89843 V -53.872386 h 18.49219 v -6.644531 h -44.80078 v 6.644531 h 18.41016 z m 66.96972,0 8.625,-31.51171881 c 2.23829,-7.816406 3.58594,-13.734375 4.66407,-19.746094 h 0.17578 c 0.80859,6.105469 2.0625,12.023438 3.94922,19.746094 l 7.64062,31.51171881 h 8.16797 L 605.08598,-60.516917 h -7.99219 l -7.99218,30.527344 c -1.88672,7.546875 -3.58594,14.273437 -4.83985,20.9179683 h -0.1875 c -0.89062,-6.3750003 -2.50781,-13.5585933 -4.21875,-20.7304683 l -7.35937,-30.714844 h -8.16797 l -8.08594,30.527344 c -2.0625,7.816406 -3.94922,15 -4.93359,21.0117183 h -0.17578 c -1.07813,-5.8359373 -2.69532,-13.3828123 -4.48828,-20.9179683 l -7.1836,-30.621094 h -8.26172 l 15.35157,60.51562481 z M 643.96,-34.829417 h -23.51953 v -19.125 h 24.86719 v -6.5625 h -32.68359 v 60.51562481 h 34.03125 V -6.5520734 H 620.44047 V -28.372386 H 643.96 Z m 12.83204,34.82812481 H 690.46 V -6.5520734 H 664.60844 V -60.516917 h -7.8164 z m 79.5498,-8.16796871 c -3.14062,1.5234375 -7.99219,2.5078125 -12.75,2.5078125 -14.73047,0 -23.25,-9.5156246 -23.25,-24.3281246 0,-15.890625 9.42188,-24.960938 23.60156,-24.960938 5.02735,0 9.25782,1.078125 12.21094,2.519531 l 1.88672,-6.375 c -2.0625,-1.078125 -6.82031,-2.695312 -14.36719,-2.695312 -18.76172,0 -31.59375,12.84375 -31.59375,31.78125 0,19.8398436 12.83203,30.62109356 29.89453,30.62109356 7.35938,0 13.10157,-1.44140625 15.98438,-2.88281246 z M 770.3643,-61.501292 c -16.16015,0 -28.10156,12.574219 -28.10156,31.78125 0,18.316406 11.21484,30.70312481 27.19922,30.70312481 15.44531,0 28.10156,-11.03906281 28.10156,-31.86328081 0,-17.964844 -10.6875,-30.621094 -27.19922,-30.621094 z m -0.36328,6.375 c 13.01953,0 19.30078,12.574219 19.30078,24.597656 0,13.734375 -6.99609,25.1367188 -19.39453,25.1367188 -12.29297,0 -19.30078,-11.5781248 -19.30078,-24.5039058 0,-13.289063 6.46875,-25.230469 19.39453,-25.230469 z m 90.22559,55.12499981 h 7.6289 L 864.08208,-60.516917 h -9.96094 l -10.76953,29.273437 c -2.69532,7.628907 -4.85157,14.273438 -6.375,20.378907 h -0.26953 c -1.52344,-6.28125 -3.59766,-12.925782 -6.10547,-20.378907 l -10.32422,-29.273437 h -9.97266 l -4.21875,60.51562481 h 7.45313 l 1.61718,-25.94531281 c 0.53907,-9.070312 0.98438,-19.207031 1.17188,-26.753906 h 0.17578 c 1.71094,7.183594 4.125,14.988281 7.00781,23.519531 l 9.78516,28.81640656 h 5.91797 l 10.6875,-29.35546856 c 3.04687,-8.34375 5.5664,-15.890625 7.6289,-22.980469 h 0.26954 c -0.0937,7.546875 0.44531,17.683594 0.90234,26.121094 z M 911.21782,-34.829417 h -23.51953 v -19.125 h 24.86718 v -6.5625 h -32.68359 v 60.51562481 h 34.03125 V -6.5520734 H 887.69829 V -28.372386 h 23.51953 z m 31.86621,-25.6875 v 60.51562481 h 7.8164 V -28.372386 h 29.26172 v 28.37109381 h 7.89844 V -60.516917 h -7.89844 v 25.324219 h -29.26172 v -25.324219 z m 89.87107,25.6875 h -23.5195 v -19.125 h 24.8672 v -6.5625 h -32.6836 v 60.51562481 h 34.0312 V -6.5520734 h -26.2148 V -28.372386 h 23.5195 z m 12.8321,34.82812481 h 7.8164 V -26.216136 h 7.3593 c 7.0899,0.269531 10.3243,3.410156 12.1172,11.765625 1.711,7.5351563 3.0586,12.7382813 4.043,14.44921881 h 8.0742 c -1.2539,-2.33203121 -2.6836,-8.16796871 -4.6641,-16.60546881 -1.4414,-6.292969 -4.2187,-10.59375 -8.8828,-12.210937 v -0.269532 c 6.375,-2.15625 11.4024,-7.453125 11.4024,-15.445312 0,-4.664063 -1.711,-8.800781 -4.7578,-11.484375 -3.7735,-3.421875 -9.1641,-4.945313 -17.5078,-4.945313 -5.3907,0 -11.0508,0.445313 -15,1.253907 z m 7.8164,-54.22265581 c 1.2539,-0.363282 3.9492,-0.726563 7.7226,-0.726563 8.25,0.09375 13.9102,3.503906 13.9102,11.320313 0,6.914062 -5.2969,11.484375 -13.6407,11.484375 h -7.9921 z m 71.8183,19.394531 h -23.5195 v -19.125 h 24.8672 v -6.5625 h -32.6836 v 60.51562481 h 34.0312 V -6.5520734 h -26.2148 V -28.372386 h 23.5195 z m 15.6153,35.81249981 c 3.3281,0 5.3906,-2.42578121 5.3906,-5.64843751 0,-3.328125 -2.1563,-5.6601563 -5.2969,-5.6601563 -3.1406,0 -5.3906,2.3320313 -5.3906,5.6601563 0,3.2226563 2.1562,5.64843751 5.2969,5.64843751 z m 0,0" style="fill:#9f9fa0;fill-opacity:1;fill-rule:nonzero;stroke:none" aria-label="YOU ARE NOT WELCOME HERE." transform="matrix(1.3333333,0,0,1.3333333,865.20307,3835.7791)" />
      </g></svg>