<?xml version='1.0' encoding='utf-8'?>
<svg xmlns="http://www.w3.org/2000/svg" version="1.1" width="65.907" height="101.406" viewBox="1367.450 4069.130 65.907 101.406"><g id="object"><path id="path69" d="m 0,0 h -0.224 c 0,-5.418 -0.047,-10.836 0.024,-16.253 0.028,-2.132 0.179,-5.089 2.038,-5.672 2.353,-0.738 4.961,0.745 6.695,2.837 3.443,4.15 4.293,9.375 5.302,14.367 1.753,8.674 -2.464,20.083 -8.102,23.368 -3.582,2.087 -5.827,1.777 -5.751,-3.094 C 0.063,10.37 0,5.185 0,0 m -3.173,-34.407 c -8.848,-0.408 -11.116,1.874 -10.547,11.221 0.928,15.242 0.948,30.468 -0.129,45.701 -0.58,8.221 1.311,10.188 9.417,10.084 C 16.5,32.332 24.605,24.473 26.126,3.879 26.508,-1.304 26.898,-6.1 25.506,-11.323 21.197,-27.484 13.991,-33.617 -3.173,-34.407" style="fill:#494f57;fill-opacity:1;fill-rule:nonzero;stroke:none" transform="matrix(1.3333333,0,0,-1.3333333,1392.0487,4118.602)" />
      </g></svg>