<?xml version='1.0' encoding='utf-8'?>
<svg xmlns="http://www.w3.org/2000/svg" version="1.1" width="68.046" height="100.596" viewBox="1961.830 3956.280 68.046 100.596"><g id="object"><path id="path64" d="m 0,0 c 0,-8.692 -0.183,-17.389 0.073,-26.073 0.139,-4.725 -0.696,-7.884 -6.327,-7.897 -5.303,-0.012 -6.982,2.724 -6.989,7.577 -0.023,16.552 -0.308,33.104 -0.215,49.655 0.019,3.415 -1.31,8.124 4.399,8.977 C -3.961,33 -0.494,32.163 2.049,26.397 5.824,17.837 7.921,8.513 13.361,0.159 c 2.314,2.688 3.431,5.679 2.573,8.545 -1.992,6.656 1.23,13.121 0.106,19.727 -0.635,3.731 2.406,3.994 5.157,4.017 3.428,0.029 6.853,0.161 6.862,-4.83 0.016,-8.521 0.197,-17.042 0.254,-25.563 0.062,-9.469 0.122,-18.939 0.057,-28.407 -0.02,-2.904 1.001,-6.729 -3.528,-7.271 C 20.775,-34.11 16.71,-34.018 14.725,-29.2 11.491,-21.351 8.164,-13.538 4.778,-5.753 3.85,-3.618 2.571,-1.636 1.453,0.416 0.968,0.277 0.484,0.139 0,0" style="fill:#494f57;fill-opacity:1;fill-rule:nonzero;stroke:none" transform="matrix(1.3333333,0,0,-1.3333333,1985.9357,4005.5859)" />
      </g></svg>