<?xml version='1.0' encoding='utf-8'?>
<svg xmlns="http://www.w3.org/2000/svg" version="1.1" width="386.133" height="457.396" viewBox="2583.080 3135.940 386.133 457.396"><defs id="defs1"><clipPath clipPathUnits="userSpaceOnUse" id="clipPath4">
      <path d="M -2384.1568,2286.7354 H -0.21670001 V -1083.6547 H -2384.1568 Z" id="path4" />
    </clipPath>
    <clipPath clipPathUnits="userSpaceOnUse" id="clipPath6">
      <path d="M -2384.0266,1933.815 H -0.086575 v -3370.39 H -2384.0266 Z" id="path6" />
    </clipPath>
    <clipPath clipPathUnits="userSpaceOnUse" id="clipPath8">
      <path d="M -2384.1847,2520.3537 H -0.24460001 V -850.0364 H -2384.1847 Z" id="path8" />
    </clipPath>
    <clipPath clipPathUnits="userSpaceOnUse" id="clipPath10">
      <path d="M -1378.8652,3371.3417 H 1005.0749 V 0.95157502 h -2383.9401 z" id="path10" />
    </clipPath>
    <clipPath clipPathUnits="userSpaceOnUse" id="clipPath12">
      <path d="M -2383.8391,1819.185 H 0.100925 v -3370.39 H -2383.8391 Z" id="path12" />
    </clipPath>
    <clipPath clipPathUnits="userSpaceOnUse" id="clipPath14">
      <path d="M -2384.2639,1767.3618 H -0.32387501 V -1603.0283 H -2384.2639 Z" id="path14" />
    </clipPath>
  </defs><g id="object"><path id="path16" d="m 0,0 c 2.758,-0.013 5.516,-0.026 8.274,-0.039 33.943,5.198 52.133,-11.634 67.943,-40.662 28.403,-52.15 61.341,-101.832 92.466,-152.496 4.902,-7.979 10.232,-15.694 15.725,-24.081 10.38,6.551 6.436,15.309 6.448,22.263 0.098,56.358 0.247,112.729 -0.976,169.066 -0.39,18.011 3.974,25.419 23.557,24.708 54.101,-1.964 43.55,6.4 43.803,-43.773 0.438,-87.313 -1.105,-174.638 -0.371,-261.945 0.164,-19.509 -6.961,-22.235 -24.401,-24.279 -33.974,-3.979 -54.625,7.116 -71.744,37.696 -31.322,55.952 -67.248,109.328 -101.432,163.667 -2.311,3.674 -3.099,9.236 -12.591,10.231 0,-22.803 -0.016,-45.293 0.003,-67.784 0.036,-41.28 0.282,-82.562 -0.023,-123.839 -0.058,-7.905 3.808,-18.339 -8.839,-21.428 -8.025,0.014 -16.05,0.029 -24.075,0.043 -3.108,-0.009 -6.215,-0.018 -9.322,-0.026 -22.183,-2.914 -27.358,7.81 -27.124,28.547 1.049,93.264 0.536,186.546 0.835,279.821 0.03,9.491 -3.953,21.695 11.486,24.231 C -6.905,-0.052 -3.452,-0.026 0,0" style="fill:#9e998f;fill-opacity:1;fill-rule:nonzero;stroke:none" transform="matrix(1.3333333,0,0,-1.3333333,2619.3243,3143.1397)" />
      </g></svg>