<?xml version='1.0' encoding='utf-8'?>
<svg xmlns="http://www.w3.org/2000/svg" version="1.1" width="378.061" height="455.885" viewBox="1037.850 3878.900 378.061 455.885"><defs id="defs1"><clipPath clipPathUnits="userSpaceOnUse" id="clipPath4">
      <path d="M -2384.1568,2286.7354 H -0.21670001 V -1083.6547 H -2384.1568 Z" id="path4" />
    </clipPath>
    <clipPath clipPathUnits="userSpaceOnUse" id="clipPath6">
      <path d="M -2384.0266,1933.815 H -0.086575 v -3370.39 H -2384.0266 Z" id="path6" />
    </clipPath>
    <clipPath clipPathUnits="userSpaceOnUse" id="clipPath8">
      <path d="M -2384.1847,2520.3537 H -0.24460001 V -850.0364 H -2384.1847 Z" id="path8" />
    </clipPath>
    <clipPath clipPathUnits="userSpaceOnUse" id="clipPath10">
      <path d="M -1378.8652,3371.3417 H 1005.0749 V 0.95157502 h -2383.9401 z" id="path10" />
    </clipPath>
    <clipPath clipPathUnits="userSpaceOnUse" id="clipPath12">
      <path d="M -2383.8391,1819.185 H 0.100925 v -3370.39 H -2383.8391 Z" id="path12" />
    </clipPath>
    <clipPath clipPathUnits="userSpaceOnUse" id="clipPath14">
      <path d="M -2384.2639,1767.3618 H -0.32387501 V -1603.0283 H -2384.2639 Z" id="path14" />
    </clipPath>
  </defs><g id="object"><path id="path25" d="m 0,0 c 0.346,32.486 0.379,64.981 1.198,97.455 0.316,12.511 -4.688,16.652 -16.864,16.221 -20.598,-0.728 -41.284,0.604 -61.848,-0.499 -14.951,-0.802 -22.492,3.404 -21.069,19.494 0.687,7.771 0.141,15.688 -0.293,23.513 -0.777,13.983 4.89,19.401 19.514,19.278 78.52,-0.66 157.051,-0.897 235.569,-0.219 16.934,0.146 19.451,-7.279 19.392,-21.479 -0.207,-49.629 2.256,-39.775 -38.022,-40.084 C 75.856,113.207 75.782,113.491 75.921,52.164 76,17.292 76.358,-17.58 76.591,-52.451 c -0.45,-28.544 -1.532,-57.097 -1.088,-85.626 0.225,-14.458 -4.829,-18.763 -19.264,-19.072 C 2.213,-158.304 2.352,-158.836 1.783,-104.667 1.417,-69.775 0.61,-34.889 0,0" style="fill:#9e998f;fill-opacity:1;fill-rule:nonzero;stroke:none" transform="matrix(1.3333333,0,0,-1.3333333,1175.7796,4118.8497)" />
      </g></svg>