<?xml version='1.0' encoding='utf-8'?>
<svg xmlns="http://www.w3.org/2000/svg" version="1.1" width="2492.880" height="3670.601" viewBox="307.521 510.389 2492.880 3670.601"><g id="object"><path id="path3" d="M 0,0 C -4.641,6.306 -11.585,5.048 -17.874,5.047 -185.24,5.025 -352.606,4.915 -519.972,4.708 c -5.39,-0.007 -10.778,-1.183 -16.167,-1.814 -19.931,5.528 -39.902,10.561 -60.727,4.807 -2.907,37.784 -4.001,75.563 0.256,113.33 63.11,1.074 126.22,2.147 189.331,3.221 11.974,0.114 23.949,0.336 35.924,0.325 113.367,-0.101 226.744,0.572 340.092,-0.935 28.971,-0.385 40.447,8.8 35.492,37.464 -0.913,5.283 0.008,10.875 0.013,16.325 0.055,65.075 0.051,65.064 -63.912,65.249 -6.538,0.018 -13.083,0.537 -19.612,0.364 -72.873,-1.93 -145.868,4.201 -218.656,-3.297 -8.809,9.093 -20.362,6.284 -30.807,6.308 -77.171,0.178 -154.343,-0.158 -231.514,-0.261 -11.859,-0.016 -24.027,-1.647 -34.812,5.408 -8.048,34.93 -0.927,70.476 -4.292,105.597 1.095,0.65 2.17,0.618 3.225,-0.096 11.968,6.806 25.111,5.304 38.016,5.304 115.805,0.002 231.611,-0.166 347.415,0.124 13.69,0.034 28.332,-3.789 40.738,6.001 9.658,-7.479 20.919,-4.526 31.594,-4.578 58.869,-0.288 117.739,-0.402 176.608,-0.446 293.253,-0.221 586.505,-0.401 879.757,-0.596 -2.168,-16.394 -15.874,-24.683 -25.184,-36.123 C 853.687,278.32 805.383,238.296 770.43,186.589 740.19,159.139 710.211,131.46 690.261,95.002 684.307,94.934 681.346,91.252 677.466,86.951 639.236,44.568 600.303,2.82 561.886,-39.395 504.12,-102.873 447.313,-167.248 388.454,-229.691 c -13.485,-14.308 -16.276,-27.823 -3.672,-38.314 31.69,-26.375 51.269,-61.536 70.234,-95.888 36.417,-65.959 46.801,-139.925 54.801,-213.89 -7.396,-61.361 -14.869,-122.473 -39.847,-180.203 -49.936,-115.412 -131.996,-198.729 -247.316,-247.881 -87.983,-37.5 -178.699,-47.659 -273.768,-26.518 -99.733,22.177 -182.777,69.773 -250.772,145.141 -79.142,87.725 -112.831,192.933 -119.031,308.758 -0.358,39.469 10.19,77.64 13.878,116.628 l 0.287,1.242 c 15.98,41.751 31.431,83.725 52.171,123.465 17.752,23.737 35.503,47.475 53.252,71.208 10.884,8.071 22.206,15.814 26.728,34.167 -81.202,0 -159.266,0.007 -237.33,-10e-4 -90.907,-0.01 -90.1,-0.038 -87.574,89.841 0.647,22.982 7.884,28.903 30.317,28.772 157.93,-0.921 315.868,-0.481 473.803,-0.45 26.138,0.005 52.279,-0.023 78.415,0.287 9.5,0.112 21.466,-1.696 21.2,13.233 C 3.635,-66.704 9.508,-33.012 0,0" style="fill:#e8401a;fill-opacity:1;fill-rule:nonzero;stroke:none" transform="matrix(1.3333333,0,0,-1.3333333,1493.4272,2158.7212)" />
      <path id="path4" d="m 0,0 c 6.2,-115.825 39.889,-221.033 119.031,-308.758 67.995,-75.368 151.039,-122.963 250.772,-145.141 95.069,-21.141 185.785,-10.982 273.768,26.518 115.32,49.153 197.38,132.469 247.316,247.882 24.978,57.729 32.451,118.841 39.846,180.194 154.883,-0.206 309.766,-0.404 464.65,-0.603 5.989,-99.054 -9.521,-195.966 -42.693,-288.182 -133.345,-370.69 -395.692,-591.224 -787.052,-638.954 -492.284,-60.037 -942.072,291.66 -1017.344,783.336 -6.08,39.716 -8.194,80.055 -11.611,120.15 -0.878,10.304 -3.468,22.775 12.868,24.669 2.115,-0.058 4.231,-0.116 6.347,-0.174 124.352,0.003 248.704,0.006 373.056,0.01 2.136,0.011 4.274,0.022 6.412,0.032 4.443,-0.02 8.887,-0.041 13.329,-0.061 C -34.205,0.612 -17.102,0.306 0,0" style="fill:#040303;fill-opacity:1;fill-rule:nonzero;stroke:none" transform="matrix(1.3333333,0,0,-1.3333333,932.2044,2930.0361)" />
      <path id="path5" d="m 0,0 c -0.271,-129.492 -1.183,-258.99 -0.238,-388.473 0.175,-24.04 -5.245,-31.32 -30.43,-31.185 -221.967,1.19 -443.942,0.878 -665.913,1.014 -112.271,-0.364 -224.543,-1.095 -336.815,-1.014 -172.231,0.125 -344.462,0.809 -516.694,1.256 -0.747,113.191 -1.881,226.382 -1.967,339.575 -0.021,27.944 -12.136,64.268 5.355,81.65 17.483,17.374 53.766,5.249 81.737,5.258 C -978.072,8.239 -491.18,7.988 -4.29,7.825 -2.862,5.216 -1.431,2.608 0,0" style="fill:#636464;fill-opacity:1;fill-rule:nonzero;stroke:none" transform="matrix(1.3333333,0,0,-1.3333333,2764.6465,532.64013)" />
      <path id="path6" d="m 0,0 c 172.231,-0.447 344.463,-1.13 516.694,-1.255 112.272,-0.082 224.544,0.649 336.815,1.013 -2.035,-11.93 -12.23,-17.643 -19.734,-25.16 -128.512,-128.729 -257.207,-257.273 -385.751,-385.968 -6.031,-6.038 -11.034,-13.104 -16.519,-19.697 -1.93,0.586 -3.528,-0.065 -4.799,-1.959 -12.406,-9.791 -27.047,-5.967 -40.738,-6.002 -115.804,-0.289 -231.61,-0.121 -347.415,-0.124 -12.904,0 -26.048,1.502 -38.016,-5.304 -1.064,8.58 -2.128,17.16 -3.193,25.738 0.364,139.781 0.727,279.562 1.091,419.343 z" style="fill:#040303;fill-opacity:1;fill-rule:nonzero;stroke:none" transform="matrix(1.3333333,0,0,-1.3333333,697.86013,1090.5099)" />
      <path id="path7" d="m 0,0 c -154.884,0.198 -309.767,0.397 -464.649,0.603 -7.999,73.973 -18.384,147.939 -54.8,213.899 -18.966,34.351 -38.545,69.512 -70.234,95.888 -12.604,10.49 -9.814,24.006 3.672,38.313 58.858,62.444 115.665,126.818 173.431,190.296 38.418,42.216 77.351,83.963 115.581,126.347 3.879,4.3 6.841,7.982 12.795,8.05 C -101.88,493.458 -5.534,276.006 1.038,19.425 1.204,12.964 0.369,6.476 0,0" style="fill:#636464;fill-opacity:1;fill-rule:nonzero;stroke:none" transform="matrix(1.3333333,0,0,-1.3333333,2792.7145,2929.9133)" />
      <path id="path8" d="m 0,0 c 10.785,-7.055 22.953,-5.424 34.811,-5.408 77.172,0.103 154.344,0.439 231.515,0.261 10.445,-0.025 21.998,2.785 30.828,-6.29 -35.266,-39.604 -78.482,-71.719 -109.363,-115.513 -63.11,-1.074 -126.22,-2.147 -189.33,-3.221 0,0 -1.725,1.198 -1.725,1.198 0.556,30.155 3.388,60.336 -1.064,90.431 0.003,6.46 0.007,12.919 0.01,19.378 C -2.878,-12.777 -1.439,-6.389 0,0" style="fill:#040303;fill-opacity:1;fill-rule:nonzero;stroke:none" transform="matrix(1.3333333,0,0,-1.3333333,699.99947,1823.7852)" />
      <path id="path9" d="m 0,0 c 20.825,5.753 40.795,0.72 60.727,-4.807 -16.1,-16.966 -32.145,-33.986 -48.344,-50.857 -3.595,-3.744 -7.337,-8.669 -13.381,-6.749 -8.559,2.718 -5.008,10.498 -5.187,16.126 -0.44,13.856 0.012,27.74 0.104,41.61 C -4.055,-3.12 -2.028,-1.56 0,0" style="fill:#040303;fill-opacity:1;fill-rule:nonzero;stroke:none" transform="matrix(1.3333333,0,0,-1.3333333,697.60627,2148.4527)" />
      </g></svg>