<?xml version='1.0' encoding='utf-8'?>
<svg xmlns="http://www.w3.org/2000/svg" version="1.1" width="256.873" height="262.857" viewBox="1092.830 3487.390 256.873 262.857"><g id="object"><path id="path6" d="m 0,0 c 29.183,9.447 43.417,0.817 51.901,-25.768 11.528,-36.121 27.15,-70.936 43.805,-113.425 16.429,43.229 31.871,78.95 43.377,115.898 7.443,23.9 19.582,31.837 44.572,24.033 -0.984,-4.945 -1.278,-10.407 -3.158,-15.254 -19.492,-50.246 -39.564,-100.268 -58.696,-150.649 -4.96,-13.062 -11.488,-19.19 -26.48,-19.272 -15.5,-0.085 -23.194,5.038 -28.824,19.529 C 45.254,-110.232 22.73,-56.054 0,0" style="fill:#ffffff;fill-opacity:1;fill-rule:nonzero;stroke:none" transform="matrix(1.3333333,0,0,-1.3333333,1098.826,3498.3261)" />
      </g></svg>