<?xml version='1.0' encoding='utf-8'?>
<svg xmlns="http://www.w3.org/2000/svg" version="1.1" width="166.458" height="249.226" viewBox="471.161 473.784 166.458 249.226"><g id="object"><path id="path5" d="m 0,0 c 4.9,-0.801 9.316,1.302 13.73,2.812 7.791,2.667 11.772,12.639 8.626,20.312 -2.684,6.545 -6.053,12.932 -6.825,20.047 C 14.7,50.836 4.689,54.186 -0.874,53.375 -3.575,52.982 -5.401,51.271 -4.781,48.486 -1.604,34.223 -4.547,20.355 -7.119,6.434 -8.181,0.686 -5.916,-1.748 0,0 m -36.427,134.941 c 5.224,-0.716 9.476,2.293 14.133,3.724 6.218,1.911 8.425,0.091 9.404,-6.282 1.72,-11.19 4.121,-22.275 6.104,-33.428 0.588,-3.31 2.394,-4.163 5.488,-3.925 11.143,0.858 21.456,-2.951 31.785,-6.2 6.448,-2.028 12.06,-6.183 15.354,-12.003 C 53.927,62.538 63.26,48.644 64.464,31.495 65.912,10.858 57.598,-4.992 40.768,-16.638 c -9.652,-6.679 -19.31,-13.349 -28.965,-20.023 -1.71,0.106 -3.083,-0.534 -4.138,-1.873 -2.718,0.175 -5.249,0.178 -7.717,2.164 -5.217,4.198 -11.06,6.485 -17.628,2.59 0,0 0.052,-0.09 0.052,-0.091 -1.711,8.426 -4.948,11.031 -14.487,11.656 -0.523,0.19 -1.046,0.381 -1.569,0.57 -4.069,4.492 -8.138,8.985 -12.207,13.478 0,0 -0.034,0.04 -0.034,0.039 -1.455,6.538 -2.911,13.077 -4.367,19.616 0.374,1.964 0.073,3.817 -0.926,5.553 1.037,12.671 0.888,25.58 3.365,37.963 4.71,23.549 4.134,46.803 -0.201,70.184 1.08,1.357 2.477,2.567 2.12,4.588 2.942,1.688 5.884,3.376 8.826,5.064 l 0.387,-0.258 z" style="fill:#d2d5d9;fill-opacity:1;fill-rule:nonzero;stroke:none" transform="matrix(1.3333333,0,0,-1.3333333,545.45187,665.63133)" />
      </g></svg>