<?xml version='1.0' encoding='utf-8'?>
<svg xmlns="http://www.w3.org/2000/svg" version="1.1" width="72.904" height="102.577" viewBox="2120.460 4360.270 72.904 102.577"><g id="object"><path id="path81" d="m 0,0 c -0.265,4.904 -0.518,10.298 -3.064,15.279 -1.872,3.662 -4.249,8 -8.472,7.522 -4.89,-0.552 -8.306,-5.038 -9.237,-9.725 -2.123,-10.682 -1.858,-21.396 2.206,-31.781 1.415,-3.616 3,-5.628 7.659,-5.459 4.523,0.165 5.921,1.96 7.414,5.709 C -1.168,-12.616 -0.456,-6.647 0,0 m -33.914,-0.033 c -0.203,7.174 1.334,14.104 3.895,20.687 3.268,8.397 10.321,12.089 18.881,12.407 8.704,0.323 15.112,-4.476 18.436,-12.033 5.394,-12.263 5.65,-25.201 2.019,-38.077 -2.853,-10.116 -12.074,-17.91 -20.524,-17.806 -8.5,0.104 -17.671,8.757 -20.316,18.776 -1.396,5.287 -2.236,10.6 -2.391,16.046" style="fill:#c33c36;fill-opacity:1;fill-rule:nonzero;stroke:none" transform="matrix(1.3333333,0,0,-1.3333333,2171.7075,4410.3743)" />
      </g></svg>