<?xml version='1.0' encoding='utf-8'?>
<svg xmlns="http://www.w3.org/2000/svg" version="1.1" width="1031.500" height="114.828" viewBox="129.777 3850.260 1031.500 114.828"><g id="object"><path id="path52" d="m 8.4272078,-0.22305312 c 3.2109372,0.4453125 8.3085942,0.890625 14.9531252,0.890625 12.1875,0 20.613281,-2.21484378 25.816406,-6.98437498 3.761719,-3.65625 6.316406,-8.5312499 6.316406,-14.9531249 0,-11.085938 -8.308593,-16.957031 -15.398437,-18.726563 v -0.222656 c 7.863281,-2.882812 12.632812,-9.199219 12.632812,-16.40625 0,-5.871094 -2.332031,-10.300781 -6.210937,-13.183594 -4.652344,-3.761718 -10.851563,-5.425781 -20.496094,-5.425781 -6.761719,0 -13.40625,0.667969 -17.6132812,1.546875 z M 18.06002,-67.148834 c 1.558594,-0.328125 4.101563,-0.65625 8.53125,-0.65625 9.75,0 16.40625,3.433593 16.40625,12.1875 0,7.195312 -5.988281,12.515625 -16.183593,12.515625 H 18.06002 Z m 0,31.359375 h 7.980469 c 10.523438,0 19.277344,4.207031 19.277344,14.402343 0,10.863282 -9.199219,14.5195316 -19.171875,14.5195316 -3.433594,0 -6.199219,-0.1171875 -8.085938,-0.4453125 z M 68.479942,-3.96875e-4 h 9.632813 V -32.355866 h 9.082031 c 8.753906,0.339844 12.75,4.207032 14.964844,14.519532 2.10937,9.3046871 3.76172,15.7265621 4.98047,17.835937125 h 9.97265 C 115.56588,-2.8832094 113.79635,-10.078522 111.35885,-20.496491 109.5776,-28.254303 106.144,-33.574616 100.3901,-35.566803 v -0.328125 c 7.86328,-2.660156 14.0625,-9.199219 14.0625,-19.066406 0,-5.753907 -2.09766,-10.851563 -5.8711,-14.179688 -4.65234,-4.207031 -11.29687,-6.09375 -21.597652,-6.09375 -6.65625,0 -13.628906,0.550781 -18.503906,1.546875 z M 78.112755,-66.926178 c 1.558593,-0.445313 4.875,-0.878906 9.527343,-0.878906 10.195313,0.105468 17.179692,4.3125 17.179692,13.957031 0,8.53125 -6.539067,14.179687 -16.839848,14.179687 h -9.867187 z m 89.085935,43.441406 7.98047,23.484375125 h 10.30078 L 159.99166,-74.683991 h -11.625 L 122.98385,-3.96875e-4 h 9.97265 L 140.71432,-23.484772 Z m -24.49219,-7.535156 7.3125,-21.609375 c 1.44141,-4.546875 2.66016,-9.082031 3.77344,-13.523438 h 0.22266 c 1.10156,4.324219 2.21484,8.753907 3.8789,13.628907 l 7.3125,21.503906 z m 108.92286,-8.203125 H 227.0317 v 7.757812 h 15.17578 v 22.2656254 c -2.21484,1.1132812 -6.53906,1.9921875 -12.84375,1.9921875 -17.40234,0 -28.81641,-11.1914059 -28.81641,-30.1289059 0,-18.726563 11.85938,-30.035157 30.03516,-30.035157 7.52344,0 12.51563,1.441407 16.5,3.222657 l 2.33203,-7.875 c -3.21094,-1.546875 -9.97265,-3.433594 -18.62109,-3.433594 -25.03125,0 -40.32422,16.289062 -40.44141,38.554687 0,11.636719 3.9961,21.609375 10.41797,27.8203129 7.3125,6.9726562 16.61719,9.85546873 27.92578,9.85546873 10.07813,0 18.60938,-2.54296873 22.9336,-4.10156253 z m 53.29687,15.738281 7.98047,23.484375125 h 10.30078 L 297.7192,-74.683991 h -11.625 L 260.71139,-3.96875e-4 h 9.97265 L 278.44186,-23.484772 Z m -24.49219,-7.535156 7.3125,-21.609375 c 1.44141,-4.546875 2.66016,-9.082031 3.77344,-13.523438 h 0.22266 c 1.10156,4.324219 2.21484,8.753907 3.8789,13.628907 l 7.3125,21.503906 z m 73.46485,27.3632811 c 3.98437,2.66015628 11.85937,4.7695313 19.05468,4.7695313 17.625,0 26.15625,-9.9726563 26.15625,-21.5039064 0,-10.96875 -6.43359,-17.0625 -19.0664,-21.9375 -10.30078,-3.984375 -14.83594,-7.417969 -14.83594,-14.402344 0,-5.097656 3.86719,-11.191406 14.0625,-11.191406 6.76172,0 11.75391,2.214844 14.19141,3.550781 l 2.64843,-7.875 c -3.3164,-1.875 -8.85937,-3.65625 -16.5,-3.65625 -14.51953,0 -24.16406,8.648438 -24.16406,20.285157 0,10.523437 7.53516,16.839843 19.72266,21.152343 10.08984,3.878907 14.07422,7.875 14.07422,14.847657 0,7.535156 -5.75391,12.7499996 -15.6211,12.7499996 -6.64453,0 -12.96093,-2.2148437 -17.28515,-4.8749996 z m 72.57715,3.656250025 h 9.75 V -66.480866 h 22.82812 v -8.203125 H 403.7651 v 8.203125 h 22.71094 z M 497.60885,-23.484772 505.58932,-3.96875e-4 H 515.8901 L 490.40182,-74.683991 h -11.625 L 453.394,-3.96875e-4 h 9.97266 L 471.12447,-23.484772 Z m -24.49219,-7.535156 7.3125,-21.609375 c 1.44141,-4.546875 2.66016,-9.082031 3.77344,-13.523438 h 0.22265 c 1.10157,4.324219 2.21485,8.753907 3.87891,13.628907 l 7.3125,21.503906 z m 53.74805,30.79687488 c 4.875,0.55078125 10.6289,0.890625 17.49609,0.890625 14.51953,0 26.03906,-3.77343748 33.02344,-10.74609388 6.98437,-6.878906 10.74609,-16.851562 10.74609,-29.039062 0,-12.070313 -3.8789,-20.71875 -10.52343,-26.8125 -6.53907,-6.09375 -16.39454,-9.304688 -30.2461,-9.304688 -7.65234,0 -14.625,0.667969 -20.49609,1.546875 z m 9.63281,-66.36328088 c 2.55469,-0.5625 6.31641,-1.007813 11.30859,-1.007813 20.37891,0 30.35157,11.191406 30.2461,28.816406 0,20.167969 -11.19141,31.6875004 -31.80469,31.6875004 -3.76172,0 -7.3125,-0.1171875 -9.75,-0.5507813 z m 64.16016,-8.097657 V -3.96875e-4 h 9.63281 V -74.683991 Z m 26.36425,0 v 43.992188 c 0,23.1562499 11.51954,31.9101561 26.8125,31.9101561 16.1836,0 28.25391,-9.421875 28.25391,-32.3554691 v -43.546875 h -9.75 v 44.214844 c 0,16.511719 -7.08984,23.8242189 -18.16406,23.8242189 -9.97266,0 -17.40235,-7.0898439 -17.40235,-23.8242189 V -74.683991 Z M 763.64498,-3.96875e-4 h 9.41016 L 768.40279,-74.683991 h -12.29297 l -13.30078,36.128907 c -3.3164,9.410156 -5.97656,17.613281 -7.86328,25.148437 h -0.32812 c -1.88672,-7.757812 -4.44141,-15.960937 -7.53516,-25.148437 l -12.75,-36.128907 h -12.29297 l -5.21484,74.683594125 h 9.19922 L 708.01607,-32.016022 c 0.66797,-11.191406 1.21875,-23.71875 1.44141,-33.023437 h 0.22266 c 2.10937,8.859375 5.09765,18.503906 8.64843,29.027343 l 12.07032,35.56640663 h 7.3125 L 750.89498,-36.680084 c 3.77344,-10.300782 6.87891,-19.605469 9.42188,-28.359375 h 0.32812 c -0.10547,9.304687 0.5625,21.832031 1.11328,32.238281 z m 0,0" style="fill:#ffffff;fill-opacity:1;fill-rule:nonzero;stroke:none" aria-label="BRAGA STADIUM" transform="matrix(1.3333333,0,0,1.3333333,124.54107,3957.4615)" />
      </g></svg>