<?xml version='1.0' encoding='utf-8'?>
<svg xmlns="http://www.w3.org/2000/svg" version="1.1" width="55.883" height="105.415" viewBox="1478.630 4180.360 55.883 105.415"><g id="object"><path id="path124" d="m 0,0 c 3.646,-0.2 7.384,-0.341 8.796,4.03 1.892,5.853 -1.081,10.282 -5.389,13.38 -3.273,2.355 -6.62,4.574 -9.275,7.574 -8.908,10.066 -3.249,30.061 9.511,32.185 8.517,1.418 15.561,-0.732 15.098,-8.577 -0.196,-3.329 -0.315,-5.112 -4.115,-3.686 -0.22,0.082 -0.472,0.08 -0.689,0.166 C 9.726,46.749 5.665,46.293 3.226,42.431 0.558,38.204 4.489,34.885 6.311,31.615 7.612,29.281 10.133,27.51 12.367,25.831 22.043,18.559 24.841,10.198 21.15,-0.999 17.973,-10.64 3.465,-15.659 -5.318,-10.295 -8.684,-8.239 -7.594,-5.45 -6.97,-2.782 -6.202,0.504 -6.06,0.47 0,0" style="fill:#494f57;fill-opacity:1;fill-rule:nonzero;stroke:none" transform="matrix(1.3333333,0,0,-1.3333333,1498.2223,4263.1276)" />
      </g></svg>