<?xml version='1.0' encoding='utf-8'?>
<svg xmlns="http://www.w3.org/2000/svg" version="1.1" width="75.334" height="111.027" viewBox="2586.260 2950.880 75.334 111.027"><g id="object"><path id="path52" d="M 0,0 C 10.225,-6.922 17.229,-11.663 24.233,-16.405 16.678,-21.537 9.123,-26.67 1.524,-31.833 c 0.537,-0.95 0.934,-2.808 2.015,-3.383 8.011,-4.267 16.158,-8.278 24.262,-12.369 -8.914,-2.733 -17.692,-6.171 -26.793,-7.931 -5.321,-1.03 -11.159,0.619 -20.526,1.36 0,20.347 -0.644,40.393 0.495,60.338 0.255,4.46 6.621,12.032 10.414,12.184 C 3.047,18.834 14.818,16.397 26.544,15.09 24.358,10.877 23.183,4.648 19.748,2.926 14.626,0.359 7.911,0.971 0,0" style="fill:#231916;fill-opacity:1;fill-rule:nonzero;stroke:none" transform="matrix(1.3333333,0,0,-1.3333333,2618.5293,2981.4471)" />
      </g></svg>