<?xml version='1.0' encoding='utf-8'?>
<svg xmlns="http://www.w3.org/2000/svg" version="1.1" width="55.385" height="103.496" viewBox="2345.210 3953.880 55.385 103.496"><g id="object"><path id="path126" d="m 0,0 c -9.384,0.283 -12.192,2.304 -11.859,8.438 0.172,3.169 1.146,5.142 4.823,3.793 0.887,-0.326 1.783,-0.709 2.707,-0.836 3.814,-0.524 7.217,0.901 9.527,3.621 2.667,3.142 0.356,6.49 -1.454,9.098 -2.126,3.063 -4.988,5.498 -8.406,7.42 -8.245,4.635 -10.681,12.517 -8.21,24.788 1.253,6.22 7.566,11.444 15.668,12.196 4.275,0.397 8.573,-0.398 11.083,-4.748 1.318,-2.284 0.95,-4.749 0.05,-6.863 C 12.836,54.341 10.647,56.147 8.993,56.488 5.601,57.186 2.348,57.699 0.382,53.905 -1.59,50.101 -1.333,46.784 2.198,43.807 5.985,40.613 9.286,36.821 13.184,33.782 21.69,27.151 19.447,10.778 13.114,4.125 10.407,1.282 5.729,-0.173 0,0" style="fill:#494f57;fill-opacity:1;fill-rule:nonzero;stroke:none" transform="matrix(1.3333333,0,0,-1.3333333,2369.5965,4051.3612)" />
      </g></svg>