<?xml version='1.0' encoding='utf-8'?>
<svg xmlns="http://www.w3.org/2000/svg" version="1.1" width="257.414" height="295.767" viewBox="1227.130 3956.920 257.414 295.767"><defs id="defs1"><clipPath clipPathUnits="userSpaceOnUse" id="clipPath37">
      <path d="M 0,3370.3901 H 2383.9401 V -2.5000001e-5 H 0 Z" id="path37" />
    </clipPath>
  </defs><g id="object"><path id="path12" d="m 0,0 c 0.675,-43.882 -6.015,-83.892 3.379,-123.416 8.078,-33.984 4.788,-39.496 -30.207,-40.34 -4.206,-0.101 -8.418,-0.063 -12.626,-0.01 -37.66,0.471 -37.482,2.942 -31.989,41.45 5.552,38.92 4.515,78.562 2.909,120.073 -10.764,-6.611 -9.816,-14.006 -9.161,-20.332 1.994,-19.259 -4.929,-26.028 -25.224,-25.923 -21.741,0.113 -23.155,11.154 -21.236,27.047 2.664,22.073 -10.982,51.557 6.069,64.387 14.256,10.726 42.016,3.93 63.802,4.124 C -23.142,47.337 8.011,46.564 39.15,46.954 52.054,47.116 57.406,42.229 56.969,29.189 56.377,11.533 56.211,-6.194 57.123,-23.826 57.952,-39.856 54.714,-48.778 35.451,-48.358 18.237,-47.982 7.61,-45.576 10.357,-25.013 11.274,-18.14 12.831,-9.838 0,0" style="fill:#d7bb98;fill-opacity:1;fill-rule:nonzero;stroke:none" transform="matrix(1.3333333,0,0,-1.3333333,1402.2276,4028.2616)" />
      </g></svg>