<?xml version='1.0' encoding='utf-8'?>
<svg xmlns="http://www.w3.org/2000/svg" version="1.1" width="1469.956" height="2905.817" viewBox="694.561 908.659 1469.956 2905.817"><defs id="defs1"><clipPath clipPathUnits="userSpaceOnUse" id="clipPath4">
      <path d="M -2384.1568,2286.7354 H -0.21670001 V -1083.6547 H -2384.1568 Z" id="path4" />
    </clipPath>
    <clipPath clipPathUnits="userSpaceOnUse" id="clipPath6">
      <path d="M -2384.0266,1933.815 H -0.086575 v -3370.39 H -2384.0266 Z" id="path6" />
    </clipPath>
    <clipPath clipPathUnits="userSpaceOnUse" id="clipPath8">
      <path d="M -2384.1847,2520.3537 H -0.24460001 V -850.0364 H -2384.1847 Z" id="path8" />
    </clipPath>
    <clipPath clipPathUnits="userSpaceOnUse" id="clipPath10">
      <path d="M -1378.8652,3371.3417 H 1005.0749 V 0.95157502 h -2383.9401 z" id="path10" />
    </clipPath>
    <clipPath clipPathUnits="userSpaceOnUse" id="clipPath12">
      <path d="M -2383.8391,1819.185 H 0.100925 v -3370.39 H -2383.8391 Z" id="path12" />
    </clipPath>
    <clipPath clipPathUnits="userSpaceOnUse" id="clipPath14">
      <path d="M -2384.2639,1767.3618 H -0.32387501 V -1603.0283 H -2384.2639 Z" id="path14" />
    </clipPath>
  </defs><g id="object"><path id="path31" d="M 0,0 C -9.137,14.577 -19.814,17.183 -34.349,19.054 -26.567,4.633 -16.122,1.352 0,0 m -118.242,5.545 c 0.11,14.597 -42.043,46.065 -56.26,43.257 -8.537,-1.685 -5.109,-6.67 -2.121,-10.043 13.169,-14.87 28.588,-27.116 46.232,-36.237 4.377,-2.262 10.846,-4.875 12.149,3.023 M 71.607,-69.838 c 29.962,-31.319 40.093,-68.519 41.94,-109.473 0.272,-6.023 4.104,-14.918 12.171,-15.784 6.44,-0.692 7.535,7.261 10.277,11.718 15.315,24.893 8.785,52.144 7.569,78.688 -0.316,6.904 -6.689,10.411 -12.815,12.726 -19.689,7.441 -39.425,14.759 -59.142,22.125 m 64.541,-1689.437 c -29.858,-38.876 -51.64,-82.738 -76.835,-124.493 -6.793,-11.259 -13.588,-22.518 -20.382,-33.777 -3.682,22.529 9.581,38.687 16.629,56.936 14.171,36.696 35.725,70.193 46.887,108.193 15.146,16.991 20.103,37.987 23.436,59.622 11.079,22.84 10.728,47.293 9.366,71.663 -1.099,19.654 -14.313,29.084 -32.078,32.245 -13.241,2.357 -26.699,1.782 -39.394,-3.896 -26.945,-6.277 -53.24,-13.764 -70.565,-37.935 -23.887,-1.841 -41.606,-19.59 -64.157,-24.876 -87.677,-31.312 -164.299,-18.105 -225.922,55.944 -1.319,1.586 -4.014,2.025 -6.067,3 -31.944,57.85 -39.465,116.67 -6.457,176.812 17.258,31.445 39.281,59.671 63.147,86.143 38.312,42.494 81.342,80.04 126.863,114.713 8.839,6.733 17.586,13.707 21.635,24.71 12.493,4.141 18.884,13.23 20.941,25.832 9.153,2.837 13.737,10.61 17.59,18.138 15.845,30.966 27.497,63.269 28.37,98.603 8.141,21.403 6.961,42.079 -4.832,61.927 -6.682,21.546 -21.885,32.683 -43.688,35.755 -22.975,-5.262 -45.166,-16.115 -69.768,-9.801 -10.224,1.31 -20.441,2.689 -30.676,3.912 -10.437,1.247 -17.983,-1.794 -16.125,-13.979 4.368,-28.645 15.389,-53.156 43.908,-65.834 2.855,-11.056 3.194,-22.097 -0.196,-33.116 -29.818,-16.634 -60.522,-29.073 -95.528,-31.777 -16.331,-1.261 -28.254,-17.191 -39.805,-28.772 -10.604,-10.63 -18.665,-23.016 -34.369,-27.783 -7.535,-2.288 -12.756,-43.174 -7.45,-51.558 2.267,-3.581 9.678,-4.935 6.181,-10.8 -3.688,-6.185 -10.648,-5.843 -17.142,-5.364 -28.471,2.101 -48.355,19.966 -51.843,49.541 -2.03,17.21 -1.861,34.932 -0.422,52.236 1.884,22.648 17.791,32.309 38.543,35.211 32.579,4.556 63.013,15.675 92.27,30.135 23.941,11.832 25.495,17.715 8.941,39.566 -21.323,28.149 -36.538,59.043 -46.654,92.771 -4.973,16.579 -0.489,30.084 11.928,40.693 33.885,28.955 71.249,49.586 117.705,49.751 22.526,0.08 42.324,-4.733 58.705,-20.818 3.376,-3.315 6.985,-6.713 11.114,-8.873 8.096,-4.233 17.482,-13.016 25.712,-4.379 7.937,8.33 -2.016,16.422 -6.962,22.492 -63.83,78.339 -68.636,169.218 -55.77,263.461 4.282,31.361 12.109,62.236 18.246,93.347 1.066,5.402 3.183,11.659 -1.771,15.689 -6.409,5.214 -12.177,0.143 -16.852,-3.764 -23.291,-19.466 -49.993,-33.495 -76.086,-48.512 -26.053,-20.416 -51.966,-40.989 -73.898,-66.018 -23.213,-2.357 -29.949,9.163 -30.093,31.089 -0.452,68.456 7.117,135.91 19.569,203.114 5.222,28.188 26.741,46.089 39.548,69.375 17.566,31.939 22.12,61.404 5.809,94.66 -6.148,12.534 -8.113,27.347 -10.669,41.361 -3.537,19.393 1.513,31.043 16.688,42.431 5.679,-8.162 -0.509,-16.874 1.305,-25.091 1.346,-6.098 0.923,-13.926 9.676,-13.774 6.975,0.121 7.756,6.878 8.897,12.273 3.308,15.636 6.967,31.157 19.343,42.574 5.142,4.744 10.355,10.088 20.828,7.494 -5.8,-12.478 -14.409,-24.12 -11.458,-38.63 1.339,-6.579 -2.504,-16.259 6.488,-18.322 7.786,-1.787 12.071,6.498 15.947,12.3 5.537,8.291 10.288,17.107 15.557,26.007 11.686,-7.613 9.093,-17.073 6.494,-26.156 -2.835,-9.908 -6.94,-19.475 -9.418,-29.456 -2.197,-8.852 -12.05,-20.302 -4.109,-26.172 9.31,-6.884 12.585,7.662 18.459,13.039 6.381,5.839 10.161,2.192 11.586,-4.457 2.019,-9.421 -2.185,-16.367 -8.946,-23.074 -38.144,-37.846 -64.248,-81.698 -66.241,-137.098 -11.463,-23.172 -15.496,-47.983 -19.897,-76.62 11.658,8.009 19.101,13.385 21.157,23.401 18.536,9.128 31.33,26.787 51.025,34.341 2.352,0.902 5.604,6.215 5.012,7.051 -18.008,25.364 10.286,24.168 19.185,34.084 7.865,8.762 26.783,10.721 17.434,30.652 -2.117,4.514 8.484,5.376 13.419,6.353 25.449,5.038 50.453,0.81 75.478,-4.228 40.531,-8.16 48.297,-2.81 57.264,38.051 4.997,22.775 5.067,46.15 1.39,68.646 -2.511,15.365 -5.754,33.538 -32.515,29.86 -7.917,-1.088 -25.926,12.867 -30.917,28.858 -1.865,5.976 -0.489,18.316 -14.143,6.691 -4.828,-4.11 -12.728,9.53 -16.512,16.768 -25.381,48.547 -61.788,85.721 -110.945,110.259 -9.162,4.573 -15.881,12.894 -15.649,22.462 0.41,16.915 -1.897,30.828 -18.781,39.168 -4.135,2.042 -6.318,7.79 -2.86,12.39 3.55,4.723 10.073,3.748 12.79,0.535 22.779,-26.936 61.014,-30.252 84.611,-55.949 4.722,-5.142 10.847,-16.954 18.14,-9.882 7.185,6.968 -3.241,14.766 -9.352,18.172 -23.879,13.31 -26.723,44.033 -51.006,58.244 -11.297,6.611 2.129,12.161 9.863,12.557 33.544,1.715 60.865,-12.272 82.314,-36.755 12.745,-14.548 26.687,-23.381 46.107,-25.968 31.193,-4.156 51.556,-26.862 72.177,-47.44 24.183,-24.133 53.64,-38.542 84.383,-51.338 6.748,35.882 5.556,72.231 6.017,108.462 0.02,1.581 -4.496,3.221 -6.899,4.833 -5.824,14.84 -18.961,17.761 -32.55,20.211 -21.083,3.803 -39.125,12.66 -50.93,31.549 -4.656,7.451 -9.009,14.901 -4.062,25.996 9.659,-6.445 18.204,-12.874 27.444,-18.068 6.718,-3.776 14.944,-8.684 21.886,-1.597 7.12,7.269 4.595,16.527 0.191,24.342 -5.83,10.346 -13.033,19.91 -19.025,30.173 -8.035,13.762 -12.681,28.224 -6.831,46.937 13.318,-16.933 24.738,-31.597 36.341,-46.114 3.309,-4.139 6.306,-10.421 13.149,-6.898 4.849,2.497 4.956,8.321 4.008,12.754 -4.207,19.682 -0.777,41.002 -13.562,58.648 8.896,6.156 16.115,-0.237 23.627,-0.678 5.344,-14.608 12.61,-27.889 26.369,-40.104 4.341,16.786 8.022,31.025 11.704,45.264 22.055,-7.821 20.693,-28.452 17.399,-43.371 -8.152,-36.917 -5.893,-72.923 -4.01,-110.134 1.771,-34.996 12.239,-65.977 24.012,-97.53 20.696,-55.503 20.062,-110.885 3.379,-167.664 -6.802,-23.149 -4.818,-48.762 -8.297,-73.043 -2.816,-19.657 -10.091,-38.259 -18.222,-56.4 -9.437,-20.663 -18.873,-41.325 -28.31,-61.988 -7.992,-16.684 1.138,-31.035 6.939,-45.407 13.467,-33.36 11.349,-50.872 -14.832,-74.27 -25.925,-23.171 -51.985,-46.175 -82.773,-63.574 -27.406,-15.487 -52.433,-73.346 -33.638,-122 10.999,-28.476 26.907,-53.815 46.099,-77.311 11.798,-14.442 20.198,-30.311 20.87,-49.519 0.693,-19.809 12.77,-33.008 30.631,-33.561 25.563,-0.79 39.258,-15.312 50.285,-34.106 9.937,-16.936 25.803,-31.632 25.933,-54.464 -14.119,0.28 -19.083,14.248 -30.698,15.039 0,0 0.039,0.039 0.039,0.039 13.516,-23.141 27.038,-46.279 40.543,-69.426 5.369,-9.203 9.346,-19 3.961,-29.24 -7.841,-14.91 -9.743,-31.807 -5.478,-46.316 12.925,-43.97 -8.135,-75.684 -31.949,-108.493 -26.721,-36.813 -59.981,-69.493 -73.47,-115.131 -7.661,-25.918 -6.035,-51.546 -2.421,-77.365 1.088,-7.77 6.153,-17.586 14.255,-17.248 31.236,1.304 33.892,-22.584 40.808,-43.192 4.75,-21.528 -5.124,-40.648 -9.977,-60.594 -3.815,-2.498 -7.302,-2 -10.497,1.153 -1.044,3.786 -1.356,7.997 -3.262,11.283 -7.634,13.174 7.967,36.416 -15.297,41.505 -15.877,3.473 -32.585,-1.953 -47.988,-8.427 -2.872,-1.207 -5.91,-2.018 -8.871,-3.012 -13.799,25.298 -16.192,51.404 -10.714,79.964 3.659,19.08 4.798,40.495 -0.096,58.967 -9.426,35.581 -13.199,67.654 19.568,93.403 0.494,0.389 0.432,1.486 0.629,2.252 1.507,0.485 3.114,0.773 4.505,1.485 12.076,6.183 51.066,106.084 46.249,118.573 -2.09,5.418 -5.846,9.951 -11.461,11.132 -7.938,1.67 -8.275,-6.081 -10.043,-10.562 -13.367,-33.878 -29.54,-66.379 -47.336,-98.097 -4.003,-7.136 -7.496,-14.074 -3.306,-22.297 -22.416,-5.981 -31.127,-28.689 -49.201,-40.165 -57.006,-36.197 -111.059,-76.521 -161.565,-121.282 -21.089,-18.691 -44.242,-35.918 -58.648,-61.224 -37.661,-17.601 -43.314,-53.426 -46.981,-88.193 -3.084,-29.229 7.157,-55.537 33.18,-73.115 18.132,-15.888 37.322,-29.243 63.267,-26.425 22.766,-8.309 55.233,0.241 69.09,18.194 31.831,2.859 58.928,18.174 86.291,32.789 27.044,8.22 54.087,16.44 81.13,24.66 40.538,4.91 70.245,-18.59 101.277,-38.613 0.018,-19.883 13.94,-36.449 13.474,-56.448 -3.242,-22.253 -6.485,-44.505 -9.727,-66.758 -20.83,-18.083 -33.694,-41.222 -42.477,-66.949" style="fill:#171411;fill-opacity:1;fill-rule:nonzero;stroke:none" transform="matrix(1.3333333,0,0,-1.3333333,1598.7328,1251.7544)" />
      <path id="path32" d="m 0,0 c -51.145,0.414 -51.149,0.414 -51.203,-50.11 -0.008,-7.93 0.486,-15.891 -0.059,-23.782 -0.799,-11.586 2.465,-17.491 15.712,-16.915 22.164,0.963 44.418,-0.245 66.594,0.563 31.371,1.142 45.821,15.907 45.952,45.392 C 77.127,-15.354 62.668,-1.174 30.923,-0.057 20.628,0.306 10.308,0 0,0 m 105.484,-115.924 c 61.199,-38.379 30.912,-104.771 54.076,-157.242 -22.65,0 -42.346,0.212 -62.034,-0.073 -13.738,-0.2 -14.507,9.717 -15.749,19.26 -3.066,23.559 -4.565,47.421 -9.241,70.648 -5.739,28.51 -19.22,38.682 -48.017,39.503 -19.823,0.566 -39.696,-0.372 -59.5,0.464 -12.395,0.523 -16.651,-3.723 -16.355,-16.268 0.73,-30.93 -0.355,-61.904 0.452,-92.83 0.384,-14.688 -3.101,-20.777 -19.588,-20.956 -55.566,-0.599 -55.652,-1.311 -55.682,53.966 -0.048,84.906 0.614,169.819 -0.349,254.713 -0.218,19.169 5.865,24.125 24.288,23.678 49.963,-1.213 99.974,-0.294 149.964,-0.613 51.926,-0.332 85.369,-20.797 98.097,-59.38 14.842,-44.989 2.518,-80.887 -40.362,-114.87" style="fill:#9e998f;fill-opacity:1;fill-rule:nonzero;stroke:none" transform="matrix(1.3333333,0,0,-1.3333333,869.2392,3221.8852)" />
      <path id="path34" d="m 0,0 -0.041,-0.561 c -9.505,0 -19.115,-0.897 -28.492,0.197 -16.729,1.952 -22.497,-4.581 -21.377,-21.22 1.275,-18.927 0.668,-38.009 0.252,-57.009 -0.218,-9.934 3.461,-14.757 13.635,-14.492 25.308,0.66 50.739,-0.189 75.898,2.062 26.76,2.393 37.976,15.887 38.981,41.724 1.071,27.5 -9.632,42.117 -36.323,46.586 C 28.595,-0.38 14.193,-0.815 0,0 m -50.266,-202.625 c -11.773,31.553 -22.241,62.534 -24.012,97.529 -1.883,37.211 -4.142,73.217 4.01,110.135 3.294,14.919 4.656,35.55 -17.399,43.371 l 0.184,-0.475 c 1.681,4.357 -1.586,6.026 -4.333,7.977 51.528,0.402 103.092,2.179 154.571,0.782 42.941,-1.165 76.262,-28.231 86.894,-65.763 11.898,-41.996 -2.169,-78.633 -43.205,-108.724 39.581,-22.005 41.751,-60.283 43.665,-98.564 0.713,-14.269 0.289,-28.9 5.703,-42.208 6.882,-16.918 -1.367,-18.108 -14.846,-17.539 -61.295,2.588 -53.179,-14.448 -61.439,56.551 -1.188,10.216 -1.939,20.55 -4.08,30.575 -6.728,31.508 -18.451,41.532 -49.884,43.629 -4.742,0.316 -9.525,0.4 -14.272,0.198 -18.954,-0.807 -42.371,7.753 -55.695,-3.08 -14.161,-11.513 -2.172,-35.955 -5.862,-54.394" style="fill:#9e998f;fill-opacity:1;fill-rule:nonzero;stroke:none" transform="matrix(1.3333333,0,0,-1.3333333,1947.4619,992.03267)" />
      <path id="path35" d="m 0,0 c 9.437,20.663 18.874,41.325 28.31,61.988 63.466,-0.094 126.942,-0.828 190.393,0.119 18.349,0.274 25.064,-4.325 24.234,-23.651 -1.958,-45.581 4.615,-38.442 -39.85,-38.747 -60.272,-0.412 -60.226,-0.113 -60.237,-60.498 -0.011,-62.675 -0.612,-125.356 0.134,-188.022 0.191,-16.034 -3.72,-22.121 -20.892,-22.186 -52.751,-0.198 -52.752,-0.899 -52.812,51.858 -0.073,65.051 -0.782,130.112 0.192,195.148 C 69.755,-5.099 63.888,1.547 45.171,-0.147 30.241,-1.499 15.066,-0.15 0,0" style="fill:#9e998f;fill-opacity:1;fill-rule:nonzero;stroke:none" transform="matrix(1.3333333,0,0,-1.3333333,1811.8405,1740.9927)" />
      <path id="path36" d="m 0,0 c 0,-48.375 -0.339,-96.755 0.215,-145.124 0.158,-13.818 -3.382,-19.253 -18.636,-19.389 -54.493,-0.486 -54.414,-1.121 -54.428,52.456 -0.022,85.649 0.289,171.301 -0.594,256.941 -0.188,18.2 4.261,24.872 23.777,24.508 C 0.032,168.464 0.059,169.448 0.077,118.956 0.091,79.304 0.08,39.652 0.08,0 Z" style="fill:#9e998f;fill-opacity:1;fill-rule:nonzero;stroke:none" transform="matrix(1.3333333,0,0,-1.3333333,1246.7971,1141.0031)" />
      <path id="path37" d="m 0,0 c 8.783,25.727 21.647,48.865 42.477,66.949 21.68,0.582 34.158,14.608 43.581,31.499 15.837,28.389 12.044,34.484 -19.704,34.733 -4.718,0.037 -9.433,0.344 -14.15,0.526 0.465,19.999 -13.456,36.564 -13.474,56.448 33.995,-4.204 68.122,-1.427 102.164,-1.305 15.978,0.057 22.382,-3.786 21.963,-21.089 -1.114,-45.989 -0.237,-92.023 -0.547,-138.036 -0.063,-9.327 4.155,-23.503 -13.184,-21.191 -13.381,1.785 -33.914,-10.661 -36.977,16.03 -0.53,4.62 -2.691,9.053 -5.066,16.68 C 77.696,8.989 41.336,-2.553 0,0" style="fill:#9e998f;fill-opacity:1;fill-rule:nonzero;stroke:none" transform="matrix(1.3333333,0,0,-1.3333333,1780.2639,3597.4539)" />
      <path id="path38" d="m 0,0 c 24.602,-6.314 46.792,4.539 69.768,9.801 3.505,-36.943 3.505,-36.944 41.359,-35.89 0.777,0.022 1.552,0.089 2.329,0.135 11.793,-19.848 12.972,-40.524 4.832,-61.927 -6.341,0.033 -12.764,-0.576 -19.01,0.216 -20.5,2.601 -30.313,-3.121 -28.391,-26.659 2.446,-29.939 1.133,-60.184 1.44,-90.297 -2.056,-12.603 -8.447,-21.691 -20.941,-25.833 -53.649,0.907 -53.543,0.907 -53.566,55.103 -0.01,22.111 -0.589,44.223 -0.909,66.334 3.39,11.019 3.051,22.06 0.196,33.116 C -0.117,-50.67 -5.156,-25.141 0,0" style="fill:#9e998f;fill-opacity:1;fill-rule:nonzero;stroke:none" transform="matrix(1.3333333,0,0,-1.3333333,1399.8892,2536.844)" />
      <path id="path39" d="m 0,0 c 2.053,-0.974 4.748,-1.414 6.067,-2.999 61.623,-74.049 138.245,-87.257 225.922,-55.945 10.173,-26.623 20.06,-53.36 30.655,-79.814 4.366,-10.903 3.17,-16.57 -9.997,-15.178 -0.784,0.083 -1.586,0.029 -2.378,-0.005 -57.438,-2.487 -57.979,-2.671 -76.485,52.046 -5.05,14.935 -11.27,21.794 -28.185,20.802 -27.654,-1.623 -55.495,-1.103 -83.213,-0.172 -13.949,0.47 -23.038,-2.943 -25.356,-17.782 -0.357,-2.279 -1.816,-4.369 -2.631,-6.596 -18.284,-49.922 -18.274,-49.341 -72.059,-48.768 -16.077,0.172 -19.038,3.896 -13.183,18.885 C -33.292,-90.586 -16.866,-45.207 0,0" style="fill:#9e998f;fill-opacity:1;fill-rule:nonzero;stroke:none" transform="matrix(1.3333333,0,0,-1.3333333,1194.8208,3380.6201)" />
      <path id="path40" d="m 0,0 c 17.325,24.171 43.62,31.658 70.565,37.935 3.837,-43.81 15.043,-83.044 62.106,-100.012 -3.333,-21.635 -8.29,-42.631 -23.436,-59.622 C 48.425,-103.032 16.476,-58.46 0,0" style="fill:#9e998f;fill-opacity:1;fill-rule:nonzero;stroke:none" transform="matrix(1.3333333,0,0,-1.3333333,1589.6821,3426.0437)" />
      <path id="path41" d="m 0,0 c 2.961,0.994 6,1.804 8.871,3.011 15.404,6.475 32.112,11.901 47.988,8.428 23.265,-5.09 7.663,-28.332 15.298,-41.505 1.905,-3.287 2.217,-7.497 3.261,-11.284 -34.846,-5.954 -59.566,-24.153 -70.86,-58.591 -27.043,-8.22 -54.086,-16.44 -81.129,-24.66 C -69.606,-71.663 -43.917,-30.231 0,0" style="fill:#9e998f;fill-opacity:1;fill-rule:nonzero;stroke:none" transform="matrix(1.3333333,0,0,-1.3333333,1690.7896,3159.1753)" />
      <path id="path42" d="m 0,0 c 4.853,19.947 14.727,39.066 9.977,60.594 57.802,1.85 115.218,-42.979 126.774,-98.255 2.815,-13.465 -0.323,-19.502 -14.806,-18.448 -9.457,0.688 -19.027,0.451 -28.515,-0.018 -15.18,-0.752 -25.661,1.249 -32.365,19.222 C 51.249,-10.591 27.464,-0.641 0,0" style="fill:#9e998f;fill-opacity:1;fill-rule:nonzero;stroke:none" transform="matrix(1.3333333,0,0,-1.3333333,1805.3439,3215.8452)" />
      <path id="path43" d="M 0,0 C 21.932,25.029 47.845,45.602 73.897,66.019 74.429,34.58 75.255,3.142 75.387,-28.298 75.474,-48.976 58.258,-42.937 49.483,-40.85 33.58,-37.067 10.556,-55.777 2.135,-28.029 -0.522,-19.276 0.605,-9.375 0,0" style="fill:#9e998f;fill-opacity:1;fill-rule:nonzero;stroke:none" transform="matrix(1.3333333,0,0,-1.3333333,1215.4944,2046.9003)" />
      <path id="path44" d="m 0,0 c -3.682,-14.239 -7.364,-28.478 -11.704,-45.264 -13.76,12.215 -21.025,25.496 -26.369,40.104 7.86,26.877 21.239,10.022 33.226,4.193 1.907,-2.188 3.573,-1.915 5.03,0.492 z" style="fill:#9e998f;fill-opacity:1;fill-rule:nonzero;stroke:none" transform="matrix(1.3333333,0,0,-1.3333333,1830.5731,927.48653)" />
      <path id="path45" d="M 0,0 C 2.403,-1.612 6.919,-3.252 6.899,-4.833 6.438,-41.063 7.63,-77.413 0.882,-113.295 0.588,-75.53 0.294,-37.765 0,0" style="fill:#9e998f;fill-opacity:1;fill-rule:nonzero;stroke:none" transform="matrix(1.3333333,0,0,-1.3333333,1780.2276,1170.7065)" />
      <path id="path46" d="m 0,0 c -2.056,-10.016 -9.499,-15.393 -21.157,-23.401 4.401,28.636 8.434,53.447 19.897,76.62 C -0.84,35.48 -0.42,17.74 0,0" style="fill:#9e998f;fill-opacity:1;fill-rule:nonzero;stroke:none" transform="matrix(1.3333333,0,0,-1.3333333,1317.5208,1779.8755)" />
      <path id="path48" d="m 0,0 c -1.457,-2.407 -3.123,-2.68 -5.03,-0.492 0.229,2.815 0.458,5.631 0.692,8.458 C -1.586,6.026 1.682,4.357 0,0" style="fill:#171411;fill-opacity:1;fill-rule:nonzero;stroke:none" transform="matrix(1.3333333,0,0,-1.3333333,1830.8177,928.1196)" />
      <path id="path51" d="m 0,0 c 54.285,-2.766 53.928,-2.901 73.584,-55.149 14.424,-38.343 29.942,-76.274 44.972,-114.39 -13.857,-17.953 -46.324,-26.503 -69.089,-18.194 -10.614,32.441 -21.228,64.881 -34.026,103.996 -11.562,-30.672 -20.402,-54.121 -29.242,-77.57 -26.023,17.577 -36.264,43.886 -33.18,73.114 C -43.313,-53.426 -37.661,-17.6 0,0" style="fill:#9e998f;fill-opacity:1;fill-rule:nonzero;stroke:none" transform="matrix(1.3333333,0,0,-1.3333333,1315.5644,3142.9776)" />
      <path id="path52" d="m 0,0 c -1.302,-7.899 -7.772,-5.286 -12.149,-3.023 -17.644,9.121 -33.063,21.367 -46.232,36.236 -2.988,3.374 -6.416,8.359 2.121,10.044 C -42.042,46.064 0.11,14.597 0,0" style="fill:#282422;fill-opacity:1;fill-rule:nonzero;stroke:none" transform="matrix(1.3333333,0,0,-1.3333333,1441.0767,1244.3605)" />
      </g></svg>