<?xml version='1.0' encoding='utf-8'?>
<svg xmlns="http://www.w3.org/2000/svg" version="1.1" width="65.725" height="102.232" viewBox="2063.140 3955.580 65.725 102.232"><g id="object"><path id="path75" d="M 0,0 C 0.074,-2.037 0.242,-5.88 3.366,-7.392 6.9,-9.103 8.605,-5.528 10.459,-3.086 15.78,3.92 15.244,12.001 14.306,19.922 13.785,24.317 12.021,28.675 8.934,32.11 7.173,34.07 4.677,35.834 2.059,34.951 -0.715,34.015 0.318,31.02 0.158,28.739 -0.481,19.596 1.623,10.452 0,0 m -12.618,13.646 c 0,8.271 0.167,16.546 -0.055,24.811 -0.166,6.179 1.768,8.649 8.615,8.379 11.489,-0.452 22.07,-2.23 27.247,-13.82 C 28.227,21.732 29.07,9.79 25.152,-2.167 20.551,-16.211 6.26,-23.641 -8.078,-19.822 c -3.778,1.006 -3.928,3.689 -3.957,6.523 -0.089,8.981 -0.033,17.963 -0.033,26.945 -0.183,0 -0.366,0 -0.55,0" style="fill:#494f57;fill-opacity:1;fill-rule:nonzero;stroke:none" transform="matrix(1.3333333,0,0,-1.3333333,2086.0529,4024.0569)" />
      </g></svg>