<?xml version='1.0' encoding='utf-8'?>
<svg xmlns="http://www.w3.org/2000/svg" version="1.1" width="65.356" height="101.384" viewBox="1740.020 4069.210 65.356 101.384"><g id="object"><path id="path108" d="m 0,0 c -1.701,7.983 0.354,16.292 -1.091,24.557 -0.802,4.59 -0.296,9.257 6.534,9.009 3.363,-0.123 5.009,-1.162 5.54,-4.823 1.297,-8.932 0.753,-17.916 0.541,-26.803 -0.135,-5.678 0.422,-11.272 0.499,-16.9 0.055,-4.029 1.935,-7.706 6.768,-7.351 4.75,0.35 6.772,3.488 6.774,8.297 0.005,12.21 1.132,24.412 0.068,36.636 -0.284,3.26 -0.497,6.98 1.852,9.481 2.064,2.199 5.413,1.549 8.1,0.826 3.222,-0.867 3.193,-4.187 2.967,-6.523 -1.437,-14.837 0.397,-29.701 -0.637,-44.532 -0.593,-8.5 -4.898,-13.69 -13.33,-14.933 -6.95,-1.024 -13.67,0.074 -19.855,3.622 -3.898,2.236 -5.313,5.783 -5.174,10.098 C -0.239,-12.968 -1.425,-6.578 0,0" style="fill:#494f57;fill-opacity:1;fill-rule:nonzero;stroke:none" transform="matrix(1.3333333,0,0,-1.3333333,1747.8516,4120.0251)" />
      </g></svg>