<?xml version='1.0' encoding='utf-8'?>
<svg xmlns="http://www.w3.org/2000/svg" version="1.1" width="352.291" height="127.213" viewBox="1711.040 4023.850 352.291 127.213"><g id="object"><path id="path50" d="m 4.9230844,-3.8685109 c 4.21875,2.8125 12.5273436,5.0390625 20.1445316,5.0390625 18.632812,0 27.644531,-10.546875 27.644531,-22.7226566 0,-11.601562 -6.796875,-18.046875 -20.144531,-23.191406 -10.898438,-4.21875 -15.703125,-7.851562 -15.703125,-15.234375 0,-5.390625 4.101562,-11.835937 14.882812,-11.835937 7.148438,0 12.410156,2.34375 14.988281,3.75 l 2.8125,-8.308594 c -3.515625,-1.992188 -9.363281,-3.867188 -17.449218,-3.867188 -15.351563,0 -25.5351566,9.128907 -25.5351566,21.433594 0,11.132813 7.9687496,17.800781 20.8476566,22.371094 10.664062,4.101562 14.882812,8.320312 14.882812,15.703125 0,7.957031 -6.09375,13.4648436 -16.523437,13.4648436 -7.03125,0 -13.699219,-2.34375 -18.2695316,-5.1562496 z M 107.41234,-24.833355 l 8.4375,24.83203156 h 10.89844 L 99.806873,-78.950542 H 87.502186 L 60.677967,-0.00132344 H 71.224842 L 79.416248,-24.833355 Z m -25.886717,-7.96875 7.734375,-22.839843 c 1.523438,-4.804688 2.8125,-9.609375 3.984375,-14.296875 h 0.234375 c 1.171875,4.570312 2.34375,9.257812 4.101563,14.414062 l 7.722659,22.722656 z m 56.818357,32.80078156 h 43.92188 V -8.5560109 H 148.52758 V -78.950542 h -10.1836 z m 96.04688,-24.83203156 8.4375,24.83203156 H 253.7268 L 226.78539,-78.950542 H 214.4807 l -26.82422,78.94921856 h 10.54688 l 8.1914,-24.83203156 z m -25.88672,-7.96875 7.73437,-22.839843 c 1.52344,-4.804688 2.8125,-9.609375 3.98438,-14.296875 h 0.23437 c 1.17188,4.570312 2.34375,9.257812 4.10157,14.414062 l 7.72265,22.722656 z m 0,0" style="fill:#848078;fill-opacity:1;fill-rule:nonzero;stroke:none" aria-label="SALA" transform="matrix(1.3333333,0,0,1.3333333,1714.3812,4140.1697)" />
      <path id="path51" d="m 0,0 c 4.217,-2.811 12.534,-5.036 20.147,-5.036 18.625,0 27.645,10.542 27.645,22.724 0,11.597 -6.794,18.04 -20.147,23.194 -10.895,4.217 -15.697,7.847 -15.697,15.227 0,5.389 4.1,11.831 14.876,11.831 7.146,0 12.417,-2.342 14.994,-3.749 l 2.811,8.318 C 41.115,74.5 35.258,76.374 27.176,76.374 11.831,76.374 1.64,67.237 1.64,54.938 1.64,43.81 9.605,37.133 22.49,32.564 33.15,28.465 37.367,24.248 37.367,16.868 37.367,8.902 31.275,3.397 20.851,3.397 13.822,3.397 7.145,5.74 2.577,8.552 Z" style="fill:none;stroke:#848078;stroke-width:5;stroke-linecap:butt;stroke-linejoin:miter;stroke-miterlimit:10;stroke-dasharray:none;stroke-opacity:1" transform="matrix(1.3333333,0,0,-1.3333333,1720.9411,4135.0161)" />
      <path id="path52" d="M 0,0 8.434,-24.833 H 19.328 L -7.614,54.118 h -12.3 l -26.824,-78.951 h 10.542 L -27.996,0 Z m -25.888,7.966 7.732,22.842 c 1.522,4.802 2.811,9.605 3.982,14.291 h 0.235 c 1.171,-4.569 2.342,-9.254 4.099,-14.409 L -2.108,7.966 Z" style="fill:none;stroke:#848078;stroke-width:5;stroke-linecap:butt;stroke-linejoin:miter;stroke-miterlimit:10;stroke-dasharray:none;stroke-opacity:1" transform="matrix(1.3333333,0,0,-1.3333333,1857.6012,4107.0591)" />
      <path id="path53" d="M 0,0 H 43.927 V 8.551 H 10.191 v 70.4 L 0,78.951 Z" style="fill:none;stroke:#848078;stroke-width:5;stroke-linecap:butt;stroke-linejoin:miter;stroke-miterlimit:10;stroke-dasharray:none;stroke-opacity:1" transform="matrix(1.3333333,0,0,-1.3333333,1898.8331,4140.1697)" />
      <path id="path54" d="M 0,0 8.434,-24.833 H 19.328 L -7.614,54.118 h -12.3 l -26.824,-78.951 h 10.542 L -27.996,0 Z m -25.888,7.966 7.732,22.842 c 1.522,4.802 2.811,9.605 3.982,14.291 h 0.235 c 1.171,-4.569 2.342,-9.254 4.099,-14.409 L -2.108,7.966 Z" style="fill:none;stroke:#848078;stroke-width:5;stroke-linecap:butt;stroke-linejoin:miter;stroke-miterlimit:10;stroke-dasharray:none;stroke-opacity:1" transform="matrix(1.3333333,0,0,-1.3333333,2026.9013,4107.0591)" />
      </g></svg>