<?xml version='1.0' encoding='utf-8'?>
<svg xmlns="http://www.w3.org/2000/svg" version="1.1" width="99.027" height="99.102" viewBox="852.840 4362.160 99.027 99.102"><g id="object"><path id="path49" d="m 0,0 c 2.988,0.631 4.113,-0.652 5.228,-4.171 2.855,-9.006 3.804,-18.341 5.906,-27.458 0.41,-1.782 0.087,-4.377 2.633,-4.283 2.162,0.08 2.61,2.744 2.936,4.343 1.77,8.704 3.067,17.49 5.337,26.113 0.816,3.102 1.637,5.626 5.064,5.648 3.183,0.02 5.258,-2.031 5.884,-5.167 1.986,-9.947 3.859,-19.917 5.832,-29.867 0.34,-1.716 0.096,-4.322 2.758,-4.066 1.993,0.192 1.829,2.515 2.083,4.066 1.524,9.307 3.057,18.614 4.397,27.948 0.732,5.096 3.295,7.979 8.551,7.814 2.206,-0.07 3.916,-0.705 3.338,-3.901 -3.456,-19.097 -6.911,-38.192 -11.439,-57.071 -0.694,-2.894 -3.198,-4.211 -5.854,-4.34 -2.952,-0.144 -4.516,1.631 -5.093,4.741 -1.842,9.931 -5.06,19.586 -5.77,29.762 -0.175,2.499 -0.047,6.521 -2.794,6.836 -3.628,0.415 -4.326,-3.107 -4.886,-6.45 -1.59,-9.5 -3.963,-18.874 -5.395,-28.392 -0.581,-3.859 -2.541,-5.56 -5.699,-6.053 -3.673,-0.575 -5.729,1.924 -6.523,5.174 -1.675,6.861 -3.191,13.763 -4.622,20.679 -2.292,11.074 -4.314,22.207 -6.758,33.246 C -5.844,-0.524 -4.811,1.063 0,0" style="fill:#c33c36;fill-opacity:1;fill-rule:nonzero;stroke:none" transform="matrix(1.3333333,0,0,-1.3333333,865.78693,4369.3957)" />
      </g></svg>