<?xml version='1.0' encoding='utf-8'?>
<svg xmlns="http://www.w3.org/2000/svg" version="1.1" width="1222.314" height="4073.838" viewBox="290.886 198.292 1222.314 4073.838"><g id="object"><path id="path3" d="m 0,0 c -33.514,-7.218 -61.465,-33.834 -98.658,-28.296 -64.884,-5.451 -128.367,9.877 -192.675,12.823 0,0 -0.004,-0.694 -0.003,-0.682 -35.705,28.4 -75.547,47.763 -120.779,55.367 0,0 0.403,-0.146 0.4,-0.147 -2.793,1.792 -5.582,3.584 -8.371,5.376 0,0 -0.544,-0.484 -0.53,-0.463 0.118,4.525 -1.817,6.961 -6.585,6.523 l -1.598,-0.935 c 0,0 -1.457,1.141 -1.417,1.152 2.011,2.63 3.981,5.25 5.952,7.87 -23.74,11.766 -35.667,39.993 -63.731,45.733 0,0 0.205,1.323 0.224,1.33 1.912,13.295 -3.836,19.941 -17.273,19.903 -52.689,49.31 -81.363,111.704 -101.14,179.886 -10.645,36.696 -15.4,73.234 -12.983,111.039 64.824,0.052 129.654,-0.325 194.47,0.407 20.251,0.229 36.152,-1.421 33.68,-27.813 -0.505,-5.391 3.076,-7.824 7.809,-2.719 11.1,-63.494 43.257,-118.655 94.55,-152.262 58.111,-38.074 128.28,-49.209 196.183,-20.998 76.797,31.907 128.495,87.329 139.888,173.165 11.347,85.491 -19.793,154.907 -87.99,204.915 -66.419,48.704 -140.067,54.797 -216.054,21.102 -4.085,-1.811 -8.43,-3.594 -11.773,-6.429 -31.712,-26.889 -63.305,-40.897 -95.254,-0.429 -18.563,37.162 -52.82,59.744 -81.382,87.617 -6.62,7.477 -13.897,14.479 -19.721,22.531 -11.417,15.783 -13.413,30.059 3.15,45.72 46.267,43.749 91.221,88.887 136.695,133.478 16.24,0.394 25.879,11.648 36.152,21.91 77.995,77.911 156.001,155.811 234.02,233.697 10.21,10.193 19.407,20.468 36.492,20.326 82.814,-0.685 165.639,-0.663 248.453,-0.016 16.729,0.13 25.303,-5.587 26.092,-22.299 C 159.696,1050.583 63.099,952.783 -37.25,851.185 142.983,785.913 250.489,663.415 280.868,476.874 c -9.068,-40.254 -9.253,-80.496 0.189,-120.722 0.221,-32.155 -17.699,-59.518 -23.752,-89.979 -1.114,-1.575 -1.624,-3.364 -1.506,-5.34 0,0 0.424,0.13 0.42,0.134 -17.078,-5.976 -15.487,-19.861 -14.237,-33.602 0,0 0.361,0.223 0.359,0.223 C 220.582,221 213.806,202.338 203.241,184.51 157.848,107.91 92.097,52.575 12.928,12.932 6.536,9.731 0.675,8.025 0,0" style="fill:#ce7444;fill-opacity:1;fill-rule:nonzero;stroke:none" transform="matrix(1.3333333,0,0,-1.3333333,1123.3493,4226.8492)" />
      <path id="path4" d="m 0,0 c -6.602,170.902 77.4,294.125 206.985,393.352 13.418,-1.083 22.208,8.922 32.655,14.381 112.141,58.603 228.58,67.126 349.088,31.286 169.817,-58.453 272.552,-176.142 308.907,-351.568 33.94,-163.77 -45.11,-356.308 -183.989,-450.814 -6.293,-4.282 -12.178,-9.162 -18.214,-13.749 -86.107,-45.778 -176.499,-74.49 -275.472,-65.832 -32.148,2.812 -64.026,8.708 -96.027,13.194 -1.058,1.667 -1.625,3.488 -1.702,5.471 79.48,77.261 160.07,153.413 234.308,235.875 19.657,18.302 41.427,34.827 58.589,55.227 58.822,69.92 70.364,149.22 32.509,231.521 -36.021,78.313 -100.309,122.218 -187.55,124.83 C 331.519,227.022 242.071,137.423 234.25,0.364 156.167,0.242 78.083,0.121 0,0" style="fill:#333324;fill-opacity:1;fill-rule:nonzero;stroke:none" transform="matrix(1.3333333,0,0,-1.3333333,297.37013,1445.9868)" />
      <path id="path5" d="m 0,0 c -157.866,0.099 -315.732,0.15 -473.598,0.35 -24.076,0.031 -49.999,-12.096 -38.683,37.256 11.461,49.98 2.014,104.667 2.718,157.279 0.133,9.916 -6.755,22.874 7.496,29.655 110.732,-4.985 221.522,-2.213 332.304,-1.457 158.625,-0.2 317.254,-1.019 475.87,0.036 25.092,0.167 32.171,-5.94 31.244,-31.196 C 335.303,136.146 336.928,80.241 336.586,24.391 336.524,14.237 341.569,0.935 325.123,-2.656 216.819,4.845 108.385,-0.601 0,0" style="fill:#333324;fill-opacity:1;fill-rule:nonzero;stroke:none" transform="matrix(1.3333333,0,0,-1.3333333,1057.2891,2657.6035)" />
      <path id="path6" d="m 0,0 c -120.508,35.84 -236.946,27.317 -349.088,-31.286 -10.447,-5.459 -19.237,-15.464 -32.655,-14.381 2.818,21.26 21.43,30.171 34.298,43.42 33.513,34.504 67.448,68.599 101.213,102.856 109.694,105.54 217.617,212.859 323.293,322.43 20.883,20.131 42.377,39.677 62.41,60.62 11.288,11.802 18.28,11.336 29.38,-0.717 42.465,-46.109 85.139,-92.101 129.591,-136.268 17.83,-17.717 13.063,-27.953 -2.178,-42.964 C 202.936,211.793 110.218,119.254 17.588,26.632 10.135,19.18 -2.068,14.057 0,0" style="fill:#88a357;fill-opacity:1;fill-rule:nonzero;stroke:none" transform="matrix(1.3333333,0,0,-1.3333333,1082.3404,860.62773)" />
      <path id="path7" d="m 0,0 c 78.083,0.121 156.167,0.242 234.251,0.368 16.447,-117.653 77.71,-185.896 186.129,-206.465 47.155,-8.946 91.69,4.693 136.159,17.693 C 482.301,-270.866 401.711,-347.018 322.231,-424.279 137.863,-374.914 -1.509,-191.4 0,0" style="fill:#88a357;fill-opacity:1;fill-rule:nonzero;stroke:none" transform="matrix(1.3333333,0,0,-1.3333333,297.37013,1445.9868)" />
      <path id="path8" d="m 0,0 c -110.782,-0.755 -221.572,-3.528 -332.304,1.458 83.258,86.941 167.926,172.426 256.065,254.418 31.997,-4.482 63.875,-10.378 96.023,-13.19 98.973,-8.658 189.366,20.054 275.472,65.832 -0.244,-19.749 -18.012,-26.511 -28.864,-38.004 C 179.495,178.48 81.899,96.975 0,0" style="fill:#6ca398;fill-opacity:1;fill-rule:nonzero;stroke:none" transform="matrix(1.3333333,0,0,-1.3333333,830.93787,2360.16)" />
    </g></svg>