<?xml version='1.0' encoding='utf-8'?>
<svg xmlns="http://www.w3.org/2000/svg" version="1.1" width="59.608" height="77.877" viewBox="2108.060 2487.950 59.608 77.877"><g id="object"><path id="path45" d="m 0,0 c -0.11,5.703 2.138,10.857 3.756,16.158 1.5,1.213 2.381,2.746 2.436,4.707 0.727,0.369 1.454,0.739 2.172,1.1 -0.008,-0.007 0.747,0.292 0.747,0.292 l 0.087,0.821 c -0.038,0.485 0.142,0.868 0.536,1.143 1.849,0.547 2.2,1.95 2.061,3.631 0.153,0.936 0.306,1.872 0.459,2.808 0.705,0.05 1.345,0.283 1.914,0.694 2.416,0.542 4.004,2.294 5.493,4.041 2.366,2.776 5.346,4.371 8.817,5.203 L 28.67,40.41 C 28.018,37.625 30.042,34.541 27.093,31.889 25.371,30.34 26.016,27.599 26.481,25.327 26.085,23.456 25.782,21.56 25.264,19.724 24.856,18.278 23.311,16.434 23.774,15.58 26.387,10.757 22.236,8.377 20.607,4.969 15.045,-6.663 15.16,-6.718 2.463,-4.731 l -0.241,0.28 C 2.44,-2.489 1.605,-1.052 0,0" style="fill:#1e4a94;fill-opacity:1;fill-rule:nonzero;stroke:none" transform="matrix(1.3333333,0,0,-1.3333333,2114.0667,2552.21)" />
      <path id="path78" d="m 0,0 c 0.07,-1.116 0.07,-2.241 0.223,-3.345 0.404,-2.921 0.121,-5.169 -3.674,-5.335 -2.438,-0.106 -3.586,-2.516 -5.408,-3.762 -0.465,2.268 -1.11,5.009 0.612,6.558 2.949,2.651 0.925,5.736 1.575,8.522 2.142,-0.384 4.286,-0.77 6.43,-1.156 C -0.442,0.943 -0.361,0.448 0,0" style="fill:#3675ba;fill-opacity:1;fill-rule:nonzero;stroke:none" transform="matrix(1.3333333,0,0,-1.3333333,2161.1867,2501.8457)" />
      <path id="path83" d="M 0,0 C 1.728,0.75 3.401,1.698 5.198,2.202 7.543,2.861 8.636,1.56 8.728,-0.726 5.255,-1.557 2.275,-3.152 -0.091,-5.927 -1.58,-7.674 -3.167,-9.427 -5.583,-9.969 -3.721,-6.642 -1.86,-3.321 0,0" style="fill:#3675ba;fill-opacity:1;fill-rule:nonzero;stroke:none" transform="matrix(1.3333333,0,0,-1.3333333,2140.4025,2497.1132)" />
      </g></svg>