<?xml version='1.0' encoding='utf-8'?>
<svg xmlns="http://www.w3.org/2000/svg" version="1.1" width="3190.590" height="848.822" viewBox="-6.000 1468.380 3190.590 848.822"><defs id="defs1"><clipPath clipPathUnits="userSpaceOnUse" id="clipPath4">
      <path d="M -1519.8112,1342.3302 H 864.12885 V -2028.0599 H -1519.8112 Z" id="path4" />
    </clipPath>
  </defs><g id="object"><path id="path3" d="M 0,0 C -2.474,21.513 -3.425,41.636 3.127,63.599 23.188,17.889 23.093,15.154 0,0 m -160.287,-46.73 c -0.69,10e-4 -1.38,0.003 -2.069,0.004 V 64.145 c 0.689,-0.107 1.379,-0.213 2.069,-0.319 z m -40.87,-16.763 c -0.647,0.004 -1.293,0.008 -1.94,0.012 V 52.161 c 0.647,-0.005 1.293,-0.009 1.94,-0.013 z m -18.721,-183.219 c -9.818,53.302 -5.695,108.332 -6.13,164.4 8.968,-13.529 12.034,-110.08 6.13,-164.4 m -21.847,281.071 c -0.77,-0.004 -1.541,-0.008 -2.311,-0.012 0,26.357 -0.021,52.714 0.042,79.071 0.004,2.006 0.606,4.01 2.269,5.98 z M -354.62,-271.422 c 0.224,-9.157 0.453,-18.304 0.665,-27.451 -0.461,9.15 -0.656,18.297 -0.665,27.451 -1.672,68.378 -3.071,137.329 4.925,211.034 5.715,-73.91 -4.991,-142.68 -4.925,-211.034 m -27.922,-5.683 v 128.38 c 2.127,-0.052 4.254,-0.104 6.38,-0.156 -1.623,-42.745 5.082,-85.638 -6.38,-128.224 m -21.766,3.081 v 192.758 c 2.186,-0.012 4.372,-0.024 6.558,-0.036 -1.634,-64.245 4.92,-128.529 -6.558,-192.722 m -16.163,269.886 c -10.752,18.802 0.122,37.173 0,54.641 z m -131.461,-114.155 c -5.705,65.988 -8.305,129.991 -3.838,194.132 -3.017,-64.307 8.558,-128.295 3.838,-194.132 m -101.56,111.627 c -5.724,23.459 -4.335,46.987 -1.876,70.525 9.742,-23.42 7.124,-46.96 1.876,-70.525 M 872.673,19.729 c -2.975,0.225 -5.951,0.646 -8.927,0.646 -168.978,-0.015 -337.957,0.228 -506.931,-0.501 -19.81,-0.086 -38.092,10.429 -57.018,6.806 -15.79,-3.022 -27.466,2.237 -39.553,8.621 -3.37,1.78 -4.469,5.252 -10.254,5.508 -37.492,1.663 -73.473,11.611 -109.35,20.772 -21.679,5.536 -41.436,18.789 -63.231,22.511 -19.949,3.407 -40.235,9.999 -61.353,6.864 -3.588,-0.533 -6.625,1.257 -9.082,4.695 -15.803,22.117 -41.321,40.268 -32.437,72.234 0.346,1.247 -1.86,3.118 -2.785,4.556 -8.568,-2.852 -0.938,-12.564 -8.096,-15.195 -10.379,3.1 -3.617,16.881 -14.375,19.375 -8.688,-2.666 -0.276,-14.535 -12.909,-16.809 -3.78,19.052 2.092,41.993 -19.973,54.635 -5.895,-2.225 -0.674,-11.83 -10.758,-12.499 -4.564,19.346 -15.476,29.59 -39.13,24.292 -8.23,-1.843 -18.701,3.99 -14.717,-10.993 2.378,-8.939 -4.077,-10.887 -11.433,-11.424 -8.048,-0.588 -12.83,2.291 -12.511,10.716 0.185,4.888 -0.104,9.833 -0.713,14.694 -0.634,5.072 -4.946,6.678 -9.594,7.245 -4.572,0.557 -8.115,-2.369 -7.171,-5.891 3.028,-11.295 -8.362,-16.401 -11.364,-25.153 -3.186,-9.291 -10.443,-17.395 -22.578,-16.244 -14.467,1.371 -5.978,13.105 -8.95,19.754 -0.73,1.634 -1.867,3.109 -2.817,4.656 -4.604,-11.602 -4.939,-23.028 -4.5,-34.427 0.361,-9.384 -2.119,-16.41 -12.796,-19.19 -16.867,-4.391 -19.634,-15.894 -19.505,-30.746 0.591,-68.033 0.26,-136.073 0.26,-204.111 -1.802,-0.002 -3.605,-0.004 -5.407,-0.006 v 204.865 c -2.048,0.221 -4.096,0.442 -6.144,0.663 2.467,-14.386 -13.264,-22.766 -11.133,-37.174 0.451,-3.048 -2.158,-5.038 -5.581,-5.221 -3.295,-0.177 -5.313,1.137 -6.439,4.337 -1.454,4.13 1.784,10.055 -5.436,12.578 -8.453,-8.358 0.22,-20.664 -7.33,-28.978 -22.277,4.573 -32.831,16.368 -29.107,38.261 2.023,11.895 0.063,20.935 -15.813,25.035 -6.483,1.674 -13.264,9.494 -16.659,19.427 -4.173,12.211 -7.863,27.685 -25.914,36.191 V 131.06 c -5.186,26.55 0.609,53.661 -6.589,81.788 -13.641,-14.095 -16.031,-28.342 -16.443,-44.179 -0.521,-20.062 4.21,-40.471 -3.016,-60.243 V -71.472 c -12.252,62.281 -7.272,124.964 -7.848,187.495 -0.06,6.505 2.804,12.211 7.517,17.029 5.598,26.413 -0.968,51.572 -8.818,76.638 -1.372,4.383 -3.805,6.077 -7.877,3.548 -8.308,-5.161 -11.265,-0.141 -11.909,6.016 -1.925,18.413 -17.184,13.45 -23.68,8.365 -8.52,-6.669 -24.81,-8.391 -21.767,-23.978 -10.691,1.743 -2.573,14.442 -13.54,15.379 -1.107,-5.639 -2.153,-10.968 -3.241,-16.51 -29.121,12.082 -27.104,10.609 -44.325,-10.166 -6.436,-7.766 -3.881,-18.493 -11.704,-23.83 -5.379,1.182 -4.847,4.406 -5.907,6.846 -2.675,6.159 5.145,17.622 -7.952,18.143 -13.62,0.541 -13.853,-9.796 -13.4,-19.439 1.016,-21.647 -19.663,-33.542 -27.187,-51.884 -7.007,-17.085 -19.147,-37.633 -47.555,-28.214 -1.033,0.342 -3.258,-0.608 -3.97,-1.576 -9.576,-13.024 -25.61,-7.176 -38.217,-11.405 -15.227,-5.109 -32.666,-5.558 -46.69,-12.436 -28.279,-13.868 -59.052,-17.748 -89.323,-22.805 -18.572,-3.103 -37.884,-1.558 -49.834,-18.622 -3.5,-4.998 -4.882,0.123 -6.398,0.861 -5.638,2.747 -11.969,4.407 -17.223,1.876 -14.821,-7.141 -30.324,-7.218 -46.397,-7.223 -171.281,-0.049 -342.564,-0.175 -513.841,-1.122 -7.795,-0.043 -13.38,0.885 -17.325,3.023 -2.712,-3.1 -5.549,-6.117 -8.511,-9.047 l 1.161,-1.049 c 28.211,-0.59 56.319,2.08 84.677,-3.07 14.635,-2.657 30.792,3.252 46.266,3.286 126.388,0.272 252.789,0.905 379.157,-0.629 28.216,-0.342 58.582,6.566 84.908,-6.451 46.693,-23.09 101.471,-21.439 147.753,-44.849 1.897,-0.959 4.583,-2.053 6.348,-1.507 22.495,6.963 42.702,-13.463 65.327,-4.727 1.891,0.73 5.995,0.675 6.447,-0.205 8.71,-16.928 31.401,-3.442 43.697,-24.214 1.022,19.211 1.672,31.419 2.423,45.539 6.01,-25.14 11.581,-48.442 17.303,-72.375 7.254,12.231 16.6,1.372 24.585,3.064 -2.604,-12.61 13.896,-18.41 11.523,-32.599 -2.237,-13.375 0.888,-28.959 22.489,-28.812 16.1,0.11 8.766,-13.566 13.698,-20.593 9.643,-1.85 4.372,10.999 13.96,11.092 3.96,-16.327 24.587,-24.433 26.027,-43.464 0.05,-0.67 0.549,-1.909 0.659,-1.891 29.135,4.647 9.979,-22.322 24.59,-31.071 v 92.086 c 1.971,0.001 3.943,0.002 5.915,0.004 v -96.746 c 11.146,3.935 4.872,13.415 12.409,16.736 1.01,-0.561 4.327,-1.806 4.2,-2.421 -3.551,-17.124 21.797,-25.289 15.138,-43.215 18.281,5.862 15.507,-19.381 30.101,-18.158 17.095,1.434 20.033,-7.393 19.559,-20.614 -0.233,-6.524 -2.882,-14.25 4.804,-19.335 1.393,0.668 2.88,1.035 3.854,1.906 6.218,5.566 -2.513,22.219 13.701,19.22 13.325,-2.464 6.78,-15.124 7.684,-23.343 1.029,-9.347 0.238,-18.871 0.238,-27.4 8.594,-1.754 8.18,1.902 9.063,4.221 2.18,5.724 -3.705,16.924 8.268,15.759 9.009,-0.876 14.489,-8.848 14.032,-18.673 -0.293,-6.302 -0.786,-12.764 0.327,-18.913 1.372,-7.582 -3.568,-14.326 15.728,-12.976 22.056,1.543 14.926,11.135 15.053,18.721 0.164,9.772 10.762,13.525 11.319,23.545 0.377,6.774 8.664,2.922 10.088,-2.057 2.06,-7.199 2.09,-14.91 3.531,-26.968 10.068,16.579 2.019,31.253 7.856,43.686 4.708,1.643 6.8,-1.046 8.134,-4.547 1.289,-3.379 2.515,-7.139 7.246,-6.326 4.53,0.779 4.459,4.788 5.026,8.276 1.807,11.109 -2.39,23.106 4.438,35.897 2.853,-3.682 4.674,-5.045 5.059,-6.702 1.527,-6.568 0.141,-14.946 11.768,-14.122 13.042,0.925 9.307,10.396 10.111,17.443 1.248,10.947 -2.061,22.199 2.171,33.649 12.282,-6.651 3.968,-20.081 10.264,-26.843 24.915,7.525 16.281,29.517 21.581,45.086 10.428,-0.433 4.641,-10.474 11.397,-12.062 19.686,11.275 32.244,26.257 27.24,50.074 -0.61,2.907 1.381,8.829 3.247,9.262 16.025,3.727 31.717,6.262 30.328,27.735 -0.243,3.75 7.721,0.565 9.873,-2.945 3.345,-5.456 8.866,-9.711 14.252,-7.977 8.045,2.59 3.588,10.948 4.771,16.75 0.553,2.716 0.093,5.603 0.23,8.405 0.396,8.102 -2.515,18.147 9.865,20.567 12.348,2.414 11.358,-9.757 15.524,-16.197 6.795,5.406 5.103,11.503 4.949,16.757 -0.366,12.521 0.132,23.631 17.484,25.594 10.603,1.199 11.98,8.495 12.007,17.222 0.018,5.488 -4.548,15.391 4.789,15.739 11.225,0.419 5.927,-10.434 7.522,-16.458 0.846,-3.198 -0.584,-7.022 5.878,-11.099 5.27,13.616 10.566,26.553 15.21,39.694 1.655,4.684 1.697,9.796 8.429,10.872 13.66,2.184 27.709,4.734 38.889,12.292 15.354,10.379 33.973,7.922 48.923,7.257 25.012,-1.112 44.07,9.854 65.546,16.189 16.212,4.783 33.058,7.03 49.6,10.159 21.815,4.126 44.055,8.832 64.955,19.854 12.351,6.514 32.003,8.769 47.716,8.843 183.934,0.876 367.875,0.278 551.815,0.068 0.532,0.496 1.069,0.987 1.613,1.473 -0.493,1.25 -0.904,2.523 -1.232,3.82" style="fill:#e18c8c;fill-opacity:1;fill-rule:nonzero;stroke:none" transform="matrix(1.3333333,0,0,-1.3333333,2026.4149,1789.7735)" clip-path="url(#clipPath4)" />
      <path id="path6" d="m 0,0 v -179.898 c -11.499,62.281 -6.825,124.964 -7.365,187.495 -0.056,6.505 2.631,12.21 7.055,17.029 C -0.207,16.416 -0.104,8.208 0,0" style="fill:#e5e4e0;fill-opacity:1;fill-rule:nonzero;stroke:none" transform="matrix(1.3333333,0,0,-1.3333333,1556.3244,1645.2052)" />
      <path id="path7" d="m 0,0 v 192.758 c 2.052,-0.012 4.103,-0.024 6.155,-0.035 C 4.622,128.478 10.772,64.193 0,0" style="fill:#e5e4e0;fill-opacity:1;fill-rule:nonzero;stroke:none" transform="matrix(1.3333333,0,0,-1.3333333,1592.0903,2155.1395)" />
      <path id="path8" d="M 0,0 C 6.082,-83.808 -7.66,-161.008 -3.999,-238.485 -5.682,-161.039 -8.509,-83.575 0,0" style="fill:#e5e4e0;fill-opacity:1;fill-rule:nonzero;stroke:none" transform="matrix(1.3333333,0,0,-1.3333333,1660.432,1870.2909)" />
      <path id="path9" d="M 0,0 C -9.215,53.301 -5.345,108.331 -5.754,164.4 2.663,150.871 5.54,54.319 0,0" style="fill:#e5e4e0;fill-opacity:1;fill-rule:nonzero;stroke:none" transform="matrix(1.3333333,0,0,-1.3333333,1822.8833,2118.7221)" />
      <path id="path10" d="M 0,0 C -1.523,-42.745 4.769,-85.638 -5.988,-128.224 V 0.156 C -3.992,0.104 -1.996,0.052 0,0" style="fill:#e5e4e0;fill-opacity:1;fill-rule:nonzero;stroke:none" transform="matrix(1.3333333,0,0,-1.3333333,1627.3121,1988.2819)" />
      <path id="path11" d="M 0,0 C -5.354,65.989 -7.795,129.992 -3.602,194.132 -6.434,129.825 4.43,65.837 0,0" style="fill:#e5e4e0;fill-opacity:1;fill-rule:nonzero;stroke:none" transform="matrix(1.3333333,0,0,-1.3333333,1407.3564,1947.4979)" />
      <path id="path12" d="M 0,0 C 18.828,-45.71 18.739,-48.446 -2.935,-63.599 -5.257,-42.087 -6.149,-21.964 0,0" style="fill:#e5e4e0;fill-opacity:1;fill-rule:nonzero;stroke:none" transform="matrix(1.3333333,0,0,-1.3333333,2101.9469,1704.9741)" />
      <path id="path13" d="M 0,0 C -5.373,23.459 -4.069,46.987 -1.761,70.526 7.382,47.106 4.925,23.566 0,0" style="fill:#e5e4e0;fill-opacity:1;fill-rule:nonzero;stroke:none" transform="matrix(1.3333333,0,0,-1.3333333,1280.2669,1798.6617)" />
      <path id="path14" d="m 0,0 v 115.642 c 0.607,-0.005 1.214,-0.009 1.821,-0.013 V -0.012 C 1.214,-0.008 0.607,-0.004 0,0" style="fill:#e5e4e0;fill-opacity:1;fill-rule:nonzero;stroke:none" transform="matrix(1.3333333,0,0,-1.3333333,1843.882,1874.4151)" />
      <path id="path15" d="m 0,0 v -110.556 c -0.647,10e-4 -1.295,0.003 -1.942,0.004 V 0.319 Z" style="fill:#e5e4e0;fill-opacity:1;fill-rule:nonzero;stroke:none" transform="matrix(1.3333333,0,0,-1.3333333,1897.454,1704.672)" />
      <path id="path16" d="m 0,0 c 0,26.357 -0.02,52.714 0.039,79.071 0.005,2.005 0.569,4.01 2.13,5.979 V 0.012 C 1.446,0.008 0.723,0.004 0,0" style="fill:#d63f42;fill-opacity:1;fill-rule:nonzero;stroke:none" transform="matrix(1.3333333,0,0,-1.3333333,1792.6517,1743.9771)" />
      <path id="path17" d="M 0,0 V -54.642 C -10.091,-35.84 0.115,-17.469 0,0" style="fill:#e5e4e0;fill-opacity:1;fill-rule:nonzero;stroke:none" transform="matrix(1.3333333,0,0,-1.3333333,1571.8643,1722.4353)" />
      </g></svg>