<?xml version='1.0' encoding='utf-8'?>
<svg xmlns="http://www.w3.org/2000/svg" version="1.1" width="155.707" height="223.272" viewBox="1929.050 1544.500 155.707 223.272"><defs id="defs1"><clipPath clipPathUnits="userSpaceOnUse" id="clipPath46">
      <path d="M 0,3370.3901 H 2383.9401 V -2.5000001e-5 H 0 Z" id="path46" />
    </clipPath>
  </defs><g id="object"><path id="path14" d="m 0,0 c 7.012,0 14.024,-0.007 21.036,0.001 36.908,0.041 39.853,-3.695 24.717,-36.292 -15.464,-33.302 -32.331,-65.951 -48.281,-99.031 -3.499,-7.257 -7.221,-14.197 -14.038,-18.593 -7.014,-4.524 -15.565,-6.203 -22.293,-1.276 -8.06,5.903 -0.73,12.947 1.998,18.569 11.838,24.397 24.382,48.45 36.618,72.654 12.378,24.487 8.791,30.133 -17.497,34.212 -12.971,2.012 -36.204,-7.304 -35.703,14.96 0.544,24.216 24.222,11.161 37.712,14.349 4.98,1.177 10.472,0.19 15.731,0.19 z" style="fill:#e60013;fill-opacity:1;fill-rule:nonzero;stroke:none" transform="matrix(1.3333333,0,0,-1.3333333,2006.3195,1550.8601)" />
      </g></svg>