<?xml version='1.0' encoding='utf-8'?>
<svg xmlns="http://www.w3.org/2000/svg" version="1.1" width="267.640" height="157.699" viewBox="126.457 3871.410 267.640 157.699"><g id="object"><path id="path70" d="m 0,0 c -7.29,-13.325 -7.811,-27.707 -16.124,-40.581 -13.121,28.598 -16.89,59.043 -30.561,85.943 0.893,1.442 2.305,2.292 4.039,2.771 11.964,3.3 12.729,2.883 14.787,-9.583 1.262,-7.65 2.109,-15.369 3.366,-23.02 0.47,-2.855 0.391,-6.103 3.751,-8.364 4.849,5.542 8.257,11.901 10.901,18.739 0.905,2.342 0.93,5.829 3.861,6.212 3.679,0.481 4.367,-3.467 5.921,-5.811 2.619,-3.951 4.913,-8.117 7.48,-12.105 0.333,-0.516 1.558,-0.824 2.222,-0.653 0.625,0.161 1.45,1.043 1.513,1.674 1.2,12.008 2.325,24.023 3.413,36.042 0.713,7.861 1.893,9.361 9.567,11.695 1.237,0.376 2.478,0.797 3.748,1.004 C 43.409,66.495 44.148,69.67 42.889,51.588 41.33,29.193 37.886,7.03 34.651,-15.159 c -0.185,-1.266 -0.412,-2.562 -0.876,-3.744 -0.755,-1.925 -2.419,-2.471 -4.163,-1.671 -1.534,0.704 -2.967,1.774 -4.217,2.928 -4.823,4.453 -9.875,8.227 -16.841,8.66 C 4.085,-8.708 2.424,-4.854 0,0" style="fill:#494643;fill-opacity:1;fill-rule:nonzero;stroke:none" transform="matrix(1.3333333,0,0,-1.3333333,330.35947,3965.3147)" />
      <path id="path125" d="m 0,0 c -0.409,3.878 -0.987,7.701 -3.24,11.048 -2.607,3.875 -4.739,9.429 -9.929,8.977 -4.006,-0.349 -3.96,-6.14 -5.836,-9.425 -1.261,-2.208 -2.01,-4.777 -2.616,-7.274 -1.039,-4.279 -1.063,-8.608 1.069,-12.614 2.001,-3.76 3.412,-9.063 7.913,-9.593 5.588,-0.657 7.119,5.357 9.763,9.066 C -0.835,-6.954 -0.159,-3.513 0,0 M 14.494,-4.442 C 15.192,-9.956 13.83,-14.9 11.529,-19.649 8.706,-25.473 5.92,-31.316 3.015,-37.098 c -2.073,-4.126 -5.204,-6.825 -10.121,-6.887 -1.288,-0.016 -2.571,-0.372 -3.861,-0.407 -15.465,-0.408 -20.73,2.832 -26.595,17.415 -2.89,7.183 -5.24,14.626 -7.246,22.109 -1.775,6.619 0.462,13.127 3.602,18.698 6.558,11.637 13.204,23.298 21.761,33.669 2.644,3.204 4.108,3.342 7.839,1.359 4.634,-2.463 8.411,-5.708 11.599,-10.046 9.538,-12.979 14.66,-27.29 14.501,-43.254" style="fill:#494643;fill-opacity:1;fill-rule:nonzero;stroke:none" transform="matrix(1.3333333,0,0,-1.3333333,254.11347,3963.8773)" />
      <path id="path176" d="m 0,0 c 0.748,6.139 0.846,10.805 0.224,15.572 -0.536,4.116 1.44,7.183 4.994,7.921 8.843,1.837 17.76,3.338 26.674,4.81 3.791,0.626 6.699,-1.026 8.602,-4.37 2.31,-4.059 5.568,-7.758 3.951,-13.093 C 42.18,3.366 40.182,-4.25 32.64,-8.402 c -3.77,-2.077 -7.777,-3.723 -11.552,-5.79 -6.072,-3.324 -9.234,-7.98 -9.242,-15.504 -0.014,-13.339 -1.081,-26.682 -1.887,-40.012 -0.287,-4.737 -1.722,-5.986 -6.304,-6.587 -1.28,-0.168 -2.576,-0.23 -3.867,-0.281 -6.408,-0.257 -7.719,0.903 -7.036,7.36 1.361,12.845 2.866,25.678 4.558,38.484 C -1.278,-20.047 0.237,-9.384 0,0" style="fill:#494643;fill-opacity:1;fill-rule:nonzero;stroke:none" transform="matrix(1.3333333,0,0,-1.3333333,142.33773,3915.9355)" />
      </g></svg>