<?xml version='1.0' encoding='utf-8'?>
<svg xmlns="http://www.w3.org/2000/svg" version="1.1" width="255.246" height="293.030" viewBox="1626.480 3567.510 255.246 293.030"><defs id="defs1"><clipPath clipPathUnits="userSpaceOnUse" id="clipPath37">
      <path d="M 0,3370.3901 H 2383.9401 V -2.5000001e-5 H 0 Z" id="path37" />
    </clipPath>
  </defs><g id="object"><path id="path14" d="m 0,0 c -10.747,-6.19 -9.766,-12.943 -8.929,-18.136 4.368,-27.122 -11.962,-28.193 -31.749,-27.006 -10.305,0.619 -15.517,3.946 -15.406,14.815 0.223,21.898 0.196,43.806 -0.196,65.702 -0.192,10.75 4.561,15.167 15.067,15.115 50.325,-0.251 100.651,-0.443 150.975,-0.299 11.834,0.033 16.708,-4.922 16.371,-16.667 -0.458,-15.993 -0.069,-32.009 -0.164,-48.014 -0.183,-30.653 -5.324,-33.987 -35.367,-30.509 -21.111,2.444 -7.31,23.463 -22.983,33.179 1.665,-37.428 -5.265,-72.145 3.803,-106.275 9.85,-37.079 6.947,-42.117 -31.68,-42.182 -0.842,-0.001 -1.685,-0.003 -2.527,-0.004 -47.372,-0.01 -44.507,-0.387 -38.155,47.833 C 3.821,-76.296 0,-39.014 0,0" style="fill:#d7bb98;fill-opacity:1;fill-rule:nonzero;stroke:none" transform="matrix(1.3333333,0,0,-1.3333333,1707.5239,3640.8284)" />
      </g></svg>