<?xml version='1.0' encoding='utf-8'?>
<svg xmlns="http://www.w3.org/2000/svg" version="1.1" width="534.053" height="197.296" viewBox="1720.490 696.024 534.053 197.296"><g id="object"><path id="path16" d="M 14.087147,-0.00130469 H 83.579334 V -13.524742 H 30.212147 V -124.89974 h -16.125 z M 144.91234,-126.9388 c -33.36328,0 -58.00781,25.94531 -58.00781,65.601558 0,37.804687 23.16797,63.3749998 56.15625,63.3749998 31.86328,0 57.99609,-22.7929688 57.99609,-65.7890628 0,-37.054685 -22.05468,-63.187495 -56.14453,-63.187495 z m -0.75,13.16015 c 26.8711,0 39.84375,25.945314 39.84375,50.777345 0,28.347657 -14.44922,51.878907 -40.01953,51.878907 -25.39453,0 -39.84375,-23.90625 -39.84375,-50.589844 0,-27.421875 13.33594,-52.066408 40.01953,-52.066408 z M 267.20922,-0.00130469 311.86937,-124.89974 h -17.23828 l -21.11719,61.710935 c -5.5664,16.300782 -10.74609,32.050782 -14.27343,46.511719 h -0.36328 c -3.33985,-14.636719 -7.96875,-29.835937 -13.34766,-46.699219 L 226.0764,-124.89974 H 208.65062 L 249.42015,-0.00130469 Z M 390.07152,-71.895836 H 341.52074 V -111.3763 h 51.32813 v -13.52344 H 325.39574 V -0.00130469 h 70.23047 V -13.524742 h -54.10547 v -45.035156 h 48.55078 z m 0,0" style="fill:#231916;fill-opacity:1;fill-rule:nonzero;stroke:none" aria-label="LOVE" transform="matrix(1.3333333,0,0,1.3333333,1714.3812,877.93533)" />
      <path id="path17" d="M 0,0 H 69.489 V 13.527 H 16.122 V 124.895 H 0 Z" style="fill:none;stroke:#231916;stroke-width:10;stroke-linecap:butt;stroke-linejoin:miter;stroke-miterlimit:10;stroke-dasharray:none;stroke-opacity:1" transform="matrix(1.3333333,0,0,-1.3333333,1733.1585,877.93533)" />
      <path id="path18" d="m 0,0 c -33.355,0 -58,-25.943 -58,-65.598 0,-37.802 23.163,-63.374 56.147,-63.374 31.872,0 58,22.792 58,65.783 C 56.147,-26.128 34.096,0 0,0 Z m -0.741,-13.157 c 26.869,0 39.84,-25.942 39.84,-50.773 0,-28.352 -14.453,-51.885 -40.026,-51.885 -25.386,0 -39.84,23.904 -39.84,50.588 0,27.425 13.342,52.07 40.026,52.07 z" style="fill:none;stroke:#231916;stroke-width:10;stroke-linecap:butt;stroke-linejoin:miter;stroke-miterlimit:10;stroke-dasharray:none;stroke-opacity:1" transform="matrix(1.3333333,0,0,-1.3333333,1907.5915,708.69053)" />
      <path id="path19" d="M 0,0 44.658,124.895 H 27.425 L 6.3,63.189 C 0.741,46.882 -4.447,31.131 -7.968,16.677 h -0.371 c -3.335,14.639 -7.968,29.834 -13.342,46.697 l -19.457,61.521 H -58.556 L -17.789,0 Z" style="fill:none;stroke:#231916;stroke-width:10;stroke-linecap:butt;stroke-linejoin:miter;stroke-miterlimit:10;stroke-dasharray:none;stroke-opacity:1" transform="matrix(1.3333333,0,0,-1.3333333,2070.6579,877.93533)" />
      <path id="path20" d="M 0,0 H -48.55 V 39.47 H 2.779 v 13.527 h -67.45 V -71.898 h 70.23 v 13.527 H -48.55 v 45.029 H 0 Z" style="fill:none;stroke:#231916;stroke-width:10;stroke-linecap:butt;stroke-linejoin:miter;stroke-miterlimit:10;stroke-dasharray:none;stroke-opacity:1" transform="matrix(1.3333333,0,0,-1.3333333,2234.4671,782.07147)" />
      </g></svg>