<?xml version='1.0' encoding='utf-8'?>
<svg xmlns="http://www.w3.org/2000/svg" version="1.1" width="55.616" height="100.253" viewBox="1984.240 4361.350 55.616 100.253"><g id="object"><path id="path101" d="m 0,0 c 0.614,4.938 -1.915,8.226 -6.682,9.887 -1.501,0.523 -2.94,-0.489 -3.402,-1.871 -1.634,-4.883 -0.898,-9.927 -0.295,-14.858 0.164,-1.34 2.073,-3.064 3.843,-2.325 C -2.72,-7.575 0.517,-5.251 0,0 m -11.28,27.387 c -0.352,-2.687 -0.336,-7.397 4.08,-7.126 4.229,0.26 6.948,4.359 6.783,9.233 -0.119,3.518 0.081,7.799 -4.801,7.826 -5.773,0.032 -6.359,-4.39 -6.062,-9.933 m -2.496,19.33 c 2.379,-0.88 5.023,1.035 7.896,0.5 C 6.827,44.851 13.116,32.588 6.924,20.783 4.713,16.569 4.912,13.895 7.506,9.985 15.188,-1.6 8.579,-15.925 -5.066,-18.116 c -0.93,-0.149 -1.887,-0.118 -2.828,-0.198 -13.016,-1.102 -13.167,-0.862 -13.27,11.797 -0.122,15.056 -0.435,30.111 -0.747,45.165 -0.111,5.382 -0.546,10.836 8.135,8.069" style="fill:#c33c36;fill-opacity:1;fill-rule:nonzero;stroke:none" transform="matrix(1.3333333,0,0,-1.3333333,2019.5108,4430.6277)" />
      </g></svg>