<?xml version='1.0' encoding='utf-8'?>
<svg xmlns="http://www.w3.org/2000/svg" version="1.1" width="56.324" height="103.245" viewBox="989.630 3955.900 56.324 103.245"><g id="object"><path id="path127" d="m 0,0 c 3.46,-0.236 8.643,0.339 9.415,-6.378 0.507,-4.416 1.091,-8.628 -5.871,-5.266 -3.024,1.46 -6.561,0.926 -8.916,-2.217 -2.335,-3.116 -0.428,-5.735 0.975,-8.485 1.481,-2.9 4.162,-4.33 6.595,-6.201 8.445,-6.496 15.287,-16.358 10.207,-28.737 -3.296,-8.029 -17.223,-13.838 -24.971,-9.87 -5.155,2.64 -3.558,7.797 -3.241,11.302 0.258,2.849 4.417,0.546 6.645,-0.186 4.808,-1.58 7.987,0.365 9.712,4.505 1.645,3.949 1.461,7.769 -2.889,10.468 -3.601,2.234 -7.1,4.71 -10.324,7.454 -5.462,4.648 -7.897,14.719 -5.532,21.452 C -15.315,-3.96 -10.081,-0.218 0,0" style="fill:#494f57;fill-opacity:1;fill-rule:nonzero;stroke:none" transform="matrix(1.3333333,0,0,-1.3333333,1021.0932,3961.9015)" />
      </g></svg>