<?xml version='1.0' encoding='utf-8'?>
<svg xmlns="http://www.w3.org/2000/svg" version="1.1" width="68.114" height="100.674" viewBox="1223.660 3956.900 68.114 100.674"><g id="object"><path id="path74" d="m 0,0 c 2.892,-9.588 -0.605,-17.821 1.385,-25.961 0.317,-1.3 -0.175,-2.804 -0.324,-4.21 -0.473,-4.472 -3.272,-5.781 -7.391,-5.755 -4.159,0.026 -5.336,2.641 -5.385,5.963 -0.274,18.427 -0.415,36.856 -0.603,55.285 -0.032,3.122 1.275,4.775 4.628,4.855 3.81,0.092 7.543,0.786 9.344,-4.047 3.486,-9.357 6.922,-18.763 12.937,-27.757 2.288,3.683 1.954,7.377 2.026,10.926 0.1,4.96 0.088,9.924 -0.009,14.884 -0.098,4.957 2.379,6.403 7.084,6.396 5.503,-0.008 5.025,-3.139 5.059,-7.016 0.16,-18.044 0.593,-36.085 0.983,-54.126 0.048,-2.205 0.354,-4.762 -2.504,-4.965 C 23.405,-35.8 19.071,-36.939 16.766,-32.02 13.09,-24.173 8.758,-16.585 5.751,-8.498 4.645,-5.524 1.897,-4.338 0,0" style="fill:#494f57;fill-opacity:1;fill-rule:nonzero;stroke:none" transform="matrix(1.3333333,0,0,-1.3333333,1246.082,4003.6744)" />
      </g></svg>