<?xml version='1.0' encoding='utf-8'?>
<svg xmlns="http://www.w3.org/2000/svg" version="1.1" width="115.357" height="171.258" viewBox="100.632 2164.920 115.357 171.258"><g id="object"><path id="path17" d="m 0,0 c 2.126,0.103 4.264,0.101 6.376,0.333 2.768,0.305 4.706,1.793 5.631,4.493 3.035,8.857 0.063,19.692 -7.057,25.616 -2.766,2.302 -5.87,3.391 -9.496,2.517 -2.577,-0.621 -4.767,-1.537 -5.548,-4.513 -1.634,-6.236 -2.145,-12.588 -2.416,-18.99 -0.168,-3.967 2.173,-6.27 5.111,-8.239 C -5.128,-0.304 -2.587,-0.326 0,0 M 40.683,22.278 C 41.154,7.004 34.116,-5.914 26.852,-18.658 c -2.756,-4.835 -6.257,-9.299 -9.795,-13.624 -6.137,-7.502 -17.683,-8.71 -25.537,-2.888 -1.367,1.013 -2.66,2.226 -3.693,3.572 -8.952,11.662 -16.668,24.006 -21.409,38.066 -5.593,16.587 -3.381,32.305 5.297,47.155 5.238,8.965 12.146,16.67 19.917,23.589 3.504,3.12 7.074,4.539 11.721,2.296 3.471,-1.676 7.237,-2.736 10.863,-4.094 3.299,-1.235 6.287,-3.054 8.207,-6.021 4.905,-7.577 10.331,-14.938 14.195,-23.031 3.509,-7.353 4.753,-15.635 4.065,-24.084" style="fill:#494643;fill-opacity:1;fill-rule:nonzero;stroke:none" transform="matrix(1.3333333,0,0,-1.3333333,155.50187,2278.388)" />
      </g></svg>