<?xml version='1.0' encoding='utf-8'?>
<svg xmlns="http://www.w3.org/2000/svg" version="1.1" width="195.555" height="719.606" viewBox="1340.990 3019.800 195.555 719.606"><g id="object"><path id="path5" d="m 0,0 c 0.01,-4.663 0.02,-9.327 0.03,-13.99 -5.845,-3.876 -3.566,-10.579 -5.497,-15.86 -0.951,-1.974 -2.288,-3.578 -4.085,-4.83 -3.297,-1.272 -6.502,-1.078 -9.658,0.455 -3.753,2.648 -6.388,6.287 -8.974,9.97 -4.619,5.697 -6.537,14.345 -17.766,14.696 -1.56,-8.465 1.434,-17.743 -2.286,-26.059 -2.516,-5.624 -4.469,-12.244 -11.71,-12.72 -7.552,-0.497 -9.933,6.009 -12.308,11.7 -4.569,10.946 -3.676,22.565 -4.042,34.024 0.672,13.464 -6.561,21.734 -17.935,27.259 -5.122,3.583 -10.53,6.866 -14.052,12.285 -1.196,8.101 5.91,14.779 3.913,23.03 -0.193,5.032 -1.33,10.078 0.159,15.093 2.548,4.679 6.175,8.289 10.821,10.894 8.124,1.535 16.4,-0.414 24.557,1.05 6.667,-0.995 12.705,-2.849 14.242,-10.644 -0.76,-1.902 -2.041,-3.408 -3.774,-4.485 -2.893,-1.666 -6.657,-2.042 -8.415,-5.48 -0.108,-1.673 -0.254,-3.289 -0.244,-4.947 -0.026,-4.544 0.815,-8.898 2.335,-13.163 7.972,-26.442 29.368,-29.657 52.255,-30.306 C -4.422,14.665 -2.8,6.926 0,0" style="fill:#a72024;fill-opacity:1;fill-rule:nonzero;stroke:none" transform="matrix(1.3333333,0,0,-1.3333333,1528.6288,3320.5689)" />
      <path id="path6" d="m 0,0 c 0.006,-7.8 0.011,-15.6 0.017,-23.4 -9.808,-6.406 -13.532,1.586 -17.822,7.042 -4.304,-13.233 4.579,-27.379 -1.279,-41.175 -12.379,-3.768 -16.783,4.941 -19.241,13.8 -3.22,11.602 -10.782,19.586 -18.802,27.553 -0.402,1.044 -0.783,2.116 -1.189,3.16 -0.056,1.098 -0.089,2.223 -0.162,3.33 -0.931,26.321 -4.994,51.921 -17.685,75.528 -0.329,2.336 0.307,4.383 1.761,6.214 3.743,2.934 8.117,3.821 12.707,4.017 7.12,0.185 13.483,-2.145 19.496,-5.825 3.973,-2.432 9.419,-5.346 12.237,-0.564 5.002,8.489 9.808,14.111 19.243,6.22 8.822,-7.378 6.447,-16.218 2.27,-24.991 -0.656,-1.376 -1.65,-2.57 -2.607,-3.77 C -20.514,41.3 -18.212,33.754 -14.581,25.588 -10.559,16.545 -4.813,8.553 0,0" style="fill:#841c20;fill-opacity:1;fill-rule:nonzero;stroke:none" transform="matrix(1.3333333,0,0,-1.3333333,1529.0805,3626.2825)" />
      <path id="path9" d="m 0,0 c 2.016,-9.849 -2.095,-17.393 -8.985,-23.892 1.486,-1.917 2.269,-4.087 2.377,-6.502 -0.806,-14.578 -2.148,-28.87 -7.746,-42.813 -6.152,-15.319 1.4,-30.059 4.984,-44.806 4.606,-9.456 11.254,-17.78 15.291,-27.568 3.73,-13.353 9.71,-27.314 -8.989,-34.886 -4.005,-0.091 -7.267,1.556 -10.063,4.294 -11.403,16.045 -19.485,33.325 -19.442,53.518 -0.82,9.598 1.443,19.073 2.162,28.625 -0.275,3.125 -3.983,-0.319 -0.871,-0.553 1.009,-0.076 1.048,-0.719 0.898,-2.018 -0.459,-3.981 -0.894,-7.801 -6.542,-6.428 0.066,43.631 0.132,87.262 0.198,130.893 6.694,2.057 11.312,-14.392 19.179,-2.106 5.626,1.929 10.581,1.615 14.001,-3.993 0.859,-5.02 -3.847,-7.558 -5.449,-11.6 C -13.239,-0.539 -6.558,0.178 0,0" style="fill:#992023;fill-opacity:1;fill-rule:nonzero;stroke:none" transform="matrix(1.3333333,0,0,-1.3333333,1397.8828,3239.1389)" />
      <path id="path44" d="m 0,0 c 1.28,-18.874 11.284,-34.522 18.888,-51.056 -8.129,-11.447 -2.556,-21.013 4.233,-30.427 2.543,-8.011 2.707,-16.064 0.608,-24.176 -1.166,-3.363 -3.096,-6.143 -6.219,-7.937 -2.04,-0.721 -4.178,-0.901 -6.322,-0.655 -4.691,5.638 -14.527,-3.657 -17.876,6.1 0.372,6.787 -0.991,13.651 1.249,20.297 7.443,13.597 0.937,27.772 2.89,41.594 -1.589,3.138 -3.579,-1.959 -0.995,-0.209 0.949,0.643 1.546,0.183 1.488,-1.368 -0.436,-11.53 0.642,-23.089 -0.67,-34.623 -1.631,-2.581 -3.635,-2.921 -6.016,-1.039 0.064,26.408 0.127,52.816 0.191,79.224 C -6.419,-1.414 -5.346,3.566 0,0" style="fill:#c72321;fill-opacity:1;fill-rule:nonzero;stroke:none" transform="matrix(1.3333333,0,0,-1.3333333,1360.2724,3402.3076)" />
      <path id="path45" d="m 0,0 c 9.206,10.57 20.896,3.254 31.415,4.364 5.938,-3.915 13,-0.431 19.161,-2.904 3.407,-2.165 7.093,-5.812 6.233,-9.064 -6.155,-23.29 7.385,-36.377 23.854,-48.22 1.854,-6.038 0.043,-10.899 -4.763,-14.785 -10.939,-4.216 -19.877,3.708 -29.9,4.904 -1.744,0.345 -3.518,0.737 -5.254,0.959 -4.847,-0.329 -6.667,-6.099 -11.492,-6.481 -4.606,1.442 -6.257,5.182 -7.408,9.349 -0.773,3.767 -1.904,8.226 -0.127,11.243 C 37.625,-23.639 23.029,-10.087 0,0" style="fill:#b72123;fill-opacity:1;fill-rule:nonzero;stroke:none" transform="matrix(1.3333333,0,0,-1.3333333,1349.7679,3033.5437)" />
      <path id="path46" d="m 0,0 c 1.469,5.946 3.006,11.875 4.387,17.841 1.511,6.524 -3.663,7.281 -7.84,8.974 -10.275,4.163 -3.564,-3.988 -4.802,-6.462 -4.914,-9.817 -12.017,-13.801 -20.368,-4.502 -5.308,5.912 -11.078,7.754 -18.289,7.599 -0.764,2.183 -0.494,4.196 0.964,6.02 8.121,5.569 17.324,9.188 26.415,12.442 9.796,3.506 12.621,9.506 11.023,18.885 0.664,6.705 2.176,13.112 6.57,18.482 1.804,1.398 3.849,1.922 6.109,1.595 C 11.47,76.244 8.16,66.48 13.754,61.014 13.836,37.551 13.919,14.089 14.002,-9.374 4.224,-13.883 -0.304,-10.551 0,0" style="fill:#992024;fill-opacity:1;fill-rule:nonzero;stroke:none" transform="matrix(1.3333333,0,0,-1.3333333,1510.4665,3563.8599)" />
      <path id="path47" d="m 0,0 c -0.042,-7.761 -0.083,-15.522 -0.125,-23.284 -8.946,-1.141 -9.47,7.41 -13.666,11.765 -3.04,4.385 -6.279,8.611 -10.311,13.012 -0.88,-7.436 3.561,-16.175 -5.788,-20.717 -14.553,6.549 -18.345,20.229 -20.807,33.8 -1.373,7.57 -2.672,15.12 -4.725,22.551 -0.775,5.036 -0.406,9.89 2.344,14.353 2.709,2.858 6.136,4.01 9.971,4.199 6.245,-0.15 11.742,-2.607 17.074,-5.575 C -5.655,39.502 -5.611,18.308 0,0" style="fill:#cf2620;fill-opacity:1;fill-rule:nonzero;stroke:none" transform="matrix(1.3333333,0,0,-1.3333333,1528.8073,3139.5321)" />
      <path id="path55" d="m 0,0 c 0.044,-7.727 0.089,-15.453 0.133,-23.18 5.576,-9.888 12.699,-18.154 23.581,-22.499 2.518,-14.094 12.17,-28.628 -5.094,-41.002 -4.002,-2.868 -0.527,-10.181 3.813,-14.179 4.548,-4.188 9.869,-7.969 7.007,-15.499 -6.212,-5.212 -12.332,-1.924 -18.472,0.148 -5.328,2.338 -7.306,10.576 -15.125,8.591 -0.05,37.517 -0.1,75.033 -0.148,112.55 C -2.968,4.654 -1.624,4.418 -0.273,4.222 1.24,3.378 1.783,2.471 1.362,1.501 0.928,0.501 0.475,0 0,0" style="fill:#972024;fill-opacity:1;fill-rule:nonzero;stroke:none" transform="matrix(1.3333333,0,0,-1.3333333,1354.356,3520.2147)" />
      <path id="path59" d="m 0,0 c 12.81,3.267 22.211,-5.492 31.398,-11.125 4.646,-2.848 14.721,-11.241 2.013,-21.469 -6.773,-5.45 -7.632,-17.913 -6.581,-28.168 -6.114,-4.776 -11.685,-2.343 -17.182,1.256 -6.543,5.187 -6.03,12.585 -6.14,19.772 C 2.685,-31.125 5.75,-21.92 -0.3,-14.066 -0.2,-9.378 -0.1,-4.689 0,0" style="fill:#c32220;fill-opacity:1;fill-rule:nonzero;stroke:none" transform="matrix(1.3333333,0,0,-1.3333333,1349.7677,3033.5437)" />
      <path id="path61" d="M 0,0 C -10.636,16.603 -5.645,34.128 -3.124,52.844 7.772,49.423 4.532,30.868 18.821,32.85 18.878,19.924 18.297,6.956 19.161,-5.916 20.145,-20.566 13.449,-25.147 0.059,-22.938 -4.146,-15.303 -6.603,-7.663 0,0" style="fill:#72161b;fill-opacity:1;fill-rule:nonzero;stroke:none" transform="matrix(1.3333333,0,0,-1.3333333,1504.0087,3701.2819)" />
      <path id="path71" d="m 0,0 c -1.325,-7.652 5.333,-15.282 0.059,-22.941 -10.914,-0.003 -21.829,-0.009 -32.743,-0.014 -1.223,3.443 0.728,5.805 2.683,8.161 6.627,11.033 -8.22,14.972 -7.932,24.154 0.343,10.937 -8.069,22.021 0.628,32.841 14.501,-3.255 21.819,-12.814 23.214,-27.13 C -13.227,6.202 -9.286,0.737 0,0" style="fill:#8e1e23;fill-opacity:1;fill-rule:nonzero;stroke:none" transform="matrix(1.3333333,0,0,-1.3333333,1504.0087,3701.2819)" />
      <path id="path75" d="m 0,0 c -1.247,-5.474 2.994,-15.075 -4.764,-15.564 -13.424,-0.845 -5.809,15.45 -13.418,20.459 -0.082,18.768 -0.167,37.538 -0.252,56.307 C 4.578,60.784 7.632,57.066 3.436,34.69 -7.03,25.543 8.748,21.471 7.53,14.095 7.944,7.837 3.747,4.039 0,0" style="fill:#ac2124;fill-opacity:1;fill-rule:nonzero;stroke:none" transform="matrix(1.3333333,0,0,-1.3333333,1373.1515,3208.5121)" />
      <path id="path79" d="m 0,0 c -6.44,0.752 -13.578,-1.443 -18.797,4.455 18.785,0 37.57,0.002 56.355,0.004 3.963,-4.819 9.678,-4.948 14.785,-4.075 19.05,3.258 28.317,-6.061 31.884,-23.469 0.463,-3.774 0.22,-7.287 -3.519,-9.506 -3.763,-5.074 -7.91,-8.101 -13.675,-2.607 -1.308,18.865 -15.712,6.793 -23.669,9.969 -4.918,1.883 -9.572,4.264 -13.943,7.193 C 19.47,-12.26 8.562,-8.035 0,0" style="fill:#841c20;fill-opacity:1;fill-rule:nonzero;stroke:none" transform="matrix(1.3333333,0,0,-1.3333333,1416.7177,3033.6617)" />
      <path id="path84" d="m 0,0 c -0.035,-12.492 -0.071,-24.983 -0.106,-37.475 -22.751,16.526 -52.47,22.625 -70.083,46.84 l 10e-4,-0.003 c -1.639,7.622 4.022,6.473 8.335,6.944 2.297,-0.02 4.595,-0.078 6.891,-0.16 9.108,-0.46 18.405,0.28 26.916,-4.104 7.813,-7.104 16.052,-13.907 17.015,-22.777 -2.687,2.578 -1.62,7.274 1.644,12.086 C -5.97,2.857 -2.807,2.654 0,0" style="fill:#661316;fill-opacity:1;fill-rule:nonzero;stroke:none" transform="matrix(1.3333333,0,0,-1.3333333,1529.1352,3245.5545)" />
      <path id="path87" d="m 0,0 c 7.307,18.206 -5.045,23.585 -18.449,28.278 0.199,18.653 0.397,37.306 0.596,55.959 13.96,-3.733 6.55,-15.191 8.422,-23.293 -1.243,-6.945 -8.936,-15.438 4.526,-18.851 4.728,-1.517 9.456,-3.035 14.183,-4.552 1.515,-3.187 3.031,-6.372 4.547,-9.558 C 24.552,14.428 18.421,4.397 7.04,-4.542 2.741,-6.075 -0.181,-5.443 0,0" style="fill:#d22721;fill-opacity:1;fill-rule:nonzero;stroke:none" transform="matrix(1.3333333,0,0,-1.3333333,1373.1711,3164.6139)" />
      <path id="path89" d="m 0,0 c 24.707,-13.6 51.772,-23.672 70.084,-46.84 -0.091,-6.262 -0.181,-12.524 -0.273,-18.786 -4.549,4.71 -9.096,9.419 -13.643,14.128 C 46.83,-41 34.164,-35.481 21.867,-29.92 13.254,-26.025 5.866,-21.302 -0.04,-14.079 -7.071,-9.366 -1.277,-4.689 0,0" style="fill:#821b20;fill-opacity:1;fill-rule:nonzero;stroke:none" transform="matrix(1.3333333,0,0,-1.3333333,1435.5503,3233.0681)" />
      <path id="path98" d="m 0,0 c -5.322,-0.249 -10.704,-0.074 -15.955,-0.819 -22.737,-3.229 -30.476,6.791 -25.565,28.353 8.155,12.956 16.049,0.867 24.092,-0.193 3.912,-1.711 7.478,-3.94 10.529,-6.959 2.205,-2.337 3.806,-4.998 4.312,-8.2 C -2.641,10.116 -3.541,8.442 -5.013,7.206 -5.358,6.89 -6.317,7.34 -6.48,6.376 -4.292,6.403 -2.118,6.349 -0.107,5.246 0.909,4.091 1.253,2.932 0.947,1.762 0.64,0.587 0.324,0 0,0" style="fill:#cc2420;fill-opacity:1;fill-rule:nonzero;stroke:none" transform="matrix(1.3333333,0,0,-1.3333333,1404.2331,3731.5249)" />
      <path id="path99" d="m 0,0 c 2.685,-6.086 7.253,-9.359 14.002,-9.374 -0.013,-12.481 -0.027,-24.962 -0.041,-37.443 -17.534,5.952 -20.217,23.27 -26.409,36.95 C -16.551,-0.801 -10.407,4.428 0,0" style="fill:#79191d;fill-opacity:1;fill-rule:nonzero;stroke:none" transform="matrix(1.3333333,0,0,-1.3333333,1510.4665,3563.8599)" />
      <path id="path101" d="m 0,0 c 2.814,4.805 -6.985,17.582 8.919,14.113 0,-20.23 0.002,-40.459 0.003,-60.689 -7.477,-5.857 -14.32,-2.218 -21.19,1.382 -6.763,5.391 -7.964,12.617 -6.803,20.619 2.056,8.811 7.373,14.531 16.079,16.829 2.353,0.983 4.884,-4.066 5.248,-1.855 C 2.7,-6.912 2.998,-2.637 0,0" style="fill:#c02321;fill-opacity:1;fill-rule:nonzero;stroke:none" transform="matrix(1.3333333,0,0,-1.3333333,1516.7787,3358.0403)" />
      <path id="path107" d="m 0,0 c 6.108,-1.509 12.216,-3.017 18.323,-4.525 0.061,-7.837 0.123,-15.674 0.184,-23.511 -9.262,10.491 -5.366,-4.632 -9.193,-4.722 l -2.336,0.014 -2.336,-0.003 c -4.991,-8.867 -12.158,-11.31 -21.513,-7.316 -8.389,10.364 5.401,15.678 5.45,24.15 C -9.55,-9.222 -7.407,-2.706 0,0" style="fill:#a42024;fill-opacity:1;fill-rule:nonzero;stroke:none" transform="matrix(1.3333333,0,0,-1.3333333,1504.2451,3414.1079)" />
      <path id="path116" d="m 0,0 c -7.912,15.01 -19.697,21.799 -37.044,18.746 -5.38,-0.947 -13.877,-2.209 -9.625,8.801 6.843,0.144 13.804,-0.466 20.508,0.576 C -3.203,31.688 4.271,21.456 0,0" style="fill:#9b2024;fill-opacity:1;fill-rule:nonzero;stroke:none" transform="matrix(1.3333333,0,0,-1.3333333,1529.0201,3064.4413)" />
      <path id="path119" d="m 0,0 c 3.502,-4.73 6.976,-0.08 10.47,0.032 6.543,-15.215 3.808,-31.095 3.367,-46.811 C 2.692,-32.345 2.006,-11.5 -14.591,-0.409 -9.862,4.53 -4.964,3.454 0,0" style="fill:#a72025;fill-opacity:1;fill-rule:nonzero;stroke:none" transform="matrix(1.3333333,0,0,-1.3333333,1510.3593,3077.1599)" />
      <path id="path125" d="m 0,0 c 2.996,-4.641 5.992,-9.282 8.987,-13.922 0.096,-10.876 0.193,-21.752 0.289,-32.629 -2.871,-2.925 -6.208,-3.092 -9.828,-1.668 -5.165,3.86 -7.45,9.394 -9.001,15.374 -1.074,4.783 -1.218,9.62 -0.762,14.493 C -9.151,-10.966 -7.107,-4.051 0,0" style="fill:#e32c24;fill-opacity:1;fill-rule:nonzero;stroke:none" transform="matrix(1.3333333,0,0,-1.3333333,1516.6585,3152.0149)" />
      <path id="path144" d="M 0,0 C -9.394,1.439 -19.848,-3.608 -28.135,4.6 -17.71,13.986 -5.183,11.699 7.073,10.98 15.778,10.577 22.57,6.494 28.093,-0.007 28.09,-3.13 28.087,-6.253 28.084,-9.376 24.985,-9.357 21.886,-9.337 18.787,-9.317 10.536,-10.222 5.111,-5.427 0,0" style="fill:#7c191d;fill-opacity:1;fill-rule:nonzero;stroke:none" transform="matrix(1.3333333,0,0,-1.3333333,1491.6905,3233.0529)" />
      <path id="path149" d="m 0,0 c -6.174,1.62 -12.348,3.239 -18.521,4.859 -3.837,2.354 -7.68,4.703 -7.449,10.067 0.417,2.247 1.523,4.086 3.302,5.521 6.817,2.858 10.001,-2.159 13.597,-6.287 2.993,0.024 5.987,0.048 8.98,0.073 C -0.06,9.49 -0.03,4.745 0,0" style="fill:#a92124;fill-opacity:1;fill-rule:nonzero;stroke:none" transform="matrix(1.3333333,0,0,-1.3333333,1529.1475,3233.0621)" />
      <path id="path151" d="M 0,0 C -2.851,-1.425 -5.702,-2.85 -8.552,-4.275 -8.608,3.598 -8.665,11.472 -8.72,19.346 -6.444,23.748 -4.169,28.149 0,36.214 Z" style="fill:#a32025;fill-opacity:1;fill-rule:nonzero;stroke:none" transform="matrix(1.3333333,0,0,-1.3333333,1360.2724,3402.3076)" />
      <path id="path154" d="M 0,0 C -0.038,1.515 -0.065,3.03 -0.08,4.546 8.114,12.067 16.171,7.174 24.263,4.32 26.145,3.257 27.69,1.801 28.96,0.059 30.135,-8.213 22.168,-6.057 18.632,-8.965 13.92,-8.941 9.207,-8.917 4.495,-8.892 4.502,-7.504 4.485,-6.117 4.446,-4.731 2.451,-3.636 0.969,-2.059 0,0" style="fill:#be2322;fill-opacity:1;fill-rule:nonzero;stroke:none" transform="matrix(1.3333333,0,0,-1.3333333,1398.2389,3719.6703)" />
      <path id="path156" d="m 0,0 c 9.001,11.383 10.375,0.718 13.566,-4.693 3.037,-2.515 7.026,-4.482 5.528,-9.6 -1.477,-1.387 -3.229,-2.231 -5.231,-2.539 -4.569,1.254 -9.359,1.454 -13.946,2.703 C -0.055,-9.42 -0.028,-4.71 0,0" style="fill:#ab2024;fill-opacity:1;fill-rule:nonzero;stroke:none" transform="matrix(1.3333333,0,0,-1.3333333,1348.8131,3663.7073)" />
      <path id="path157" d="M 0,0 C 0.752,3.317 1.504,6.633 2.256,9.95 4.569,8.207 6.882,6.464 9.194,4.722 9.165,-3.033 9.136,-10.789 9.106,-18.543 0.894,-14.903 -0.252,-7.795 0,0" style="fill:#ae2224;fill-opacity:1;fill-rule:nonzero;stroke:none" transform="matrix(1.3333333,0,0,-1.3333333,1516.664,3457.7856)" />
      <path id="path158" d="M 0,0 C 3.109,2.924 6.218,5.849 9.328,8.773 18.612,14.723 27.577,19.069 32.711,4.127 31.144,2.684 29.578,1.241 28.011,-0.2 18.674,-0.132 9.337,-0.066 0,0" style="fill:#aa2024;fill-opacity:1;fill-rule:nonzero;stroke:none" transform="matrix(1.3333333,0,0,-1.3333333,1423.0812,3731.624)" />
      <path id="path165" d="m 0,0 c 4.526,3.147 9.033,2.727 13.528,-0.07 4.66,-3.601 12.934,-4.704 9.568,-13.849 C 14.744,-15.733 9.485,-2.492 0.128,-9.2 0.085,-6.133 0.043,-3.067 0,0" style="fill:#c82220;fill-opacity:1;fill-rule:nonzero;stroke:none" transform="matrix(1.3333333,0,0,-1.3333333,1348.7027,3682.5464)" />
      <path id="path194" d="m 0,0 c 0.578,-9.899 -11.923,-10.509 -13.438,-18.922 0.466,-4.27 -1.926,-5.998 -5.739,-6.466 -7.359,1.676 -7.098,6.941 -6.059,12.094 -4.19,-7.71 2.081,-20.108 -10.003,-25.31 -2.24,0.38 -4.093,1.45 -5.574,3.167 -3.67,7.54 -12.52,12.382 -11.783,22.281 2.082,4.72 7.85,9.351 3,14.718 -15.701,17.378 -16.012,41.707 -28.144,60.668 -0.536,2.411 -0.693,4.814 -0.599,7.269 3.704,15.781 -3.961,33.572 8.446,47.782 16.041,-2.657 23.553,-12.279 23.157,-28.358 -6.326,-26.691 -1.122,-50.889 16.206,-74.56 5.751,5.794 8.783,16.262 19.185,11.592 C -2.493,19.534 -16.897,2.927 0,0" style="fill:#bf2121;fill-opacity:1;fill-rule:nonzero;stroke:none" transform="matrix(1.3333333,0,0,-1.3333333,1497.8528,3439.0223)" />
      <path id="path195" d="m 0,0 c -2.308,-0.165 -5.242,0.532 -6.829,-0.623 -23.318,-16.964 -27.99,-16.542 -33.76,12.105 -3.472,17.239 -6.149,36.541 3.192,54.008 0.303,-15.133 -2.35,-30.842 9.745,-46.222 5.912,9.531 10.067,17.847 8.05,28.256 -1.223,6.314 -8.31,15.709 -0.16,17.981 7.461,2.078 18.116,-2.339 23.755,-10.637 C 6.547,51.109 7.68,46.384 9.458,42.097 6.651,39.456 3.529,39.263 0.171,40.9 c 3.616,-4.474 8.992,-5.945 13.928,-8.166 3.035,0.045 6.069,0.09 9.103,0.135 1.305,-1.018 1.762,-2.063 1.375,-3.137 C 24.186,28.645 23.781,28.1 23.361,28.1 17.206,24.913 12.499,20.29 9.413,14.056 4.22,10.747 5.716,2.958 0,0" style="fill:#b62123;fill-opacity:1;fill-rule:nonzero;stroke:none" transform="matrix(1.3333333,0,0,-1.3333333,1485.4007,3407.7788)" />
      <path id="path196" d="m 0,0 c -2.885,-17.136 5.117,-35.306 -4.916,-51.763 -3.973,-12.578 11.198,-29.71 -9.124,-38.402 -10.029,19.67 -15.213,39.533 -4.4,60.902 5.322,10.516 -1.346,22.888 4.005,33.659 0.147,1.448 0.267,2.898 0.363,4.347 C -7.344,9.104 -2.836,5.898 0,0" style="fill:#cd241f;fill-opacity:1;fill-rule:nonzero;stroke:none" transform="matrix(1.3333333,0,0,-1.3333333,1404.6621,3282.6483)" />
      <path id="path197" d="M 0,0 C 20.345,-10.056 46.313,-11.665 56.209,-37.419 18.028,-38.568 5.527,-30.246 0,0" style="fill:#951f23;fill-opacity:1;fill-rule:nonzero;stroke:none" transform="matrix(1.3333333,0,0,-1.3333333,1435.4965,3251.8401)" />
      <path id="path198" d="m 0,0 c 1.672,-4.581 3.344,-9.162 5.018,-13.742 -12.567,-0.081 -25.135,-0.165 -37.704,-0.249 -1.509,0.136 -3.019,0.234 -4.533,0.293 -1.629,0.833 -2.198,1.716 -1.717,2.653 0.494,0.959 0.998,1.44 1.52,1.44 1.673,0.13 3.346,0.26 5.018,0.39 3.355,6.241 0.633,11.154 -3.526,15.721 -1.451,1.369 -2.841,2.768 -4.315,4.091 -8.394,4.263 -20.056,-0.609 -26.312,9.49 8.512,17.22 22.701,16.323 36.655,9.685 C -16.871,23.576 -5.011,14.879 0,0" style="fill:#8c1e22;fill-opacity:1;fill-rule:nonzero;stroke:none" transform="matrix(1.3333333,0,0,-1.3333333,1497.7597,3208.2639)" />
      <path id="path199" d="m 0,0 c -15.281,-7.457 -17.746,9.601 -26.693,14.262 -0.552,0.288 0.107,4.483 1.259,6.113 2.103,2.976 5.654,2.827 8.109,0.72 C -12.966,17.352 -12.899,8.986 -4.642,9.363 -0.998,7.281 -0.127,3.825 0,0" style="fill:#b82123;fill-opacity:1;fill-rule:nonzero;stroke:none" transform="matrix(1.3333333,0,0,-1.3333333,1504.2,3364.1331)" />
      <path id="path200" d="m 0,0 c -4.939,-7.781 -12.515,-6.422 -23.881,-5.42 11.46,6.117 5.449,20.906 18.845,23.677 1.342,-0.73 1.897,-1.596 1.666,-2.598 C -3.617,14.588 -3.929,14.053 -4.309,14.053 -2.873,9.369 -1.436,4.684 0,0" style="fill:#7d1b1e;fill-opacity:1;fill-rule:nonzero;stroke:none" transform="matrix(1.3333333,0,0,-1.3333333,1397.8828,3239.1389)" />
      <path id="path201" d="m 0,0 c -0.216,1.407 -0.456,2.81 -0.724,4.207 -2.989,5.918 -8.338,5.073 -13.516,4.713 1.668,4.968 3.335,9.939 5.002,14.91 1.211,2.564 2.485,5.069 5.544,5.902 1.943,0.042 3.689,-0.53 5.253,-1.686 1.321,-1.365 2.45,-2.882 3.45,-4.493 1.822,-3.322 4.484,-6.144 5.938,-9.706 0.447,-2.018 -0.137,-3.685 -1.729,-5 C 8.837,3.093 5.959,-0.058 0,0" style="fill:#bd2222;fill-opacity:1;fill-rule:nonzero;stroke:none" transform="matrix(1.3333333,0,0,-1.3333333,1392.1375,3220.4016)" />
      <path id="path202" d="m 0,0 c 10.849,-6.14 11.198,-12.381 0.182,-18.73 -3.564,5.346 -9.283,7.025 -14.954,8.786 -5.672,-2.437 -9.585,-1.909 -9.384,5.568 C -17.112,2.639 -8.636,1.76 0,0" style="fill:#7d1a1e;fill-opacity:1;fill-rule:nonzero;stroke:none" transform="matrix(1.3333333,0,0,-1.3333333,1454.3169,3195.578)" />
      <path id="path203" d="M 0,0 C -0.051,1.589 -0.102,3.177 -0.156,4.767 -0.017,6.245 0.093,7.724 0.172,9.205 7.322,0.61 6.257,-7.895 0.87,-17.601 -6.363,-10.854 1.502,-5.457 0,0" style="fill:#cf251d;fill-opacity:1;fill-rule:nonzero;stroke:none" transform="matrix(1.3333333,0,0,-1.3333333,1516.5485,3370.3117)" />
      <path id="path204" d="m 0,0 c 3.1,-1.647 6.2,-3.295 9.294,-4.945 -7.622,-8.25 -15.124,-2.379 -22.653,0.174 -0.018,1.656 -0.038,3.316 -0.057,4.976 2.147,2.725 5.036,3.524 8.352,3.228 C -2.987,2.867 -1.299,1.719 0,0" style="fill:#c62021;fill-opacity:1;fill-rule:nonzero;stroke:none" transform="matrix(1.3333333,0,0,-1.3333333,1422.238,3202.238)" />
      <path id="path205" d="m 0,0 c 0.071,-1.366 0.136,-2.732 0.196,-4.096 -3.823,-0.328 -7.372,-1.19 -9.437,-4.905 -1.944,1.905 -5.902,4.699 -5.515,5.575 C -11.572,3.783 -5.037,-1.04 0,0" style="fill:#821b20;fill-opacity:1;fill-rule:nonzero;stroke:none" transform="matrix(1.3333333,0,0,-1.3333333,1447.8724,3221.0701)" />
      <path id="path206" d="m 0,0 c -0.249,6.616 -5.377,7.981 -10.18,10.662 -12.04,6.721 -12.085,19.603 -5.429,27.376 6.679,7.802 25.245,8.522 2.148,20.115 -6.017,3.02 7.562,6.451 8.775,12.086 -2.744,5.852 -9.828,7.185 -13.076,12.213 -3.123,4.833 -7.512,11.256 3.995,11.52 1.485,-0.008 2.96,-0.129 4.426,-0.365 3.604,-2.362 7.52,-1.45 10.449,0.531 1.307,0.884 -2.089,3.503 -2.54,5.794 1.21,5.004 5.026,7.085 9.325,8.681 6.843,1.084 13.855,4.941 20.281,-1.148 -0.085,-1.455 -0.142,-2.911 -0.169,-4.369 3.334,-3.424 5.75,-7.799 5.63,-12.255 C 33.042,68.82 41.417,48.833 47.031,28.214 L 46.658,28.126 C 43.12,25.851 39.315,26.296 35.406,26.805 27.989,27.769 19.36,33.527 13.457,26.355 7.573,19.208 16.93,14.116 19.366,8.061 25.087,-6.161 21.94,-14.667 5.083,-14.667 0.096,-10.914 -3.066,-6.531 0,0" style="fill:#941f23;fill-opacity:1;fill-rule:nonzero;stroke:none" transform="matrix(1.3333333,0,0,-1.3333333,1391.8429,3676.2215)" />
      <path id="path207" d="m 0,0 c 11.291,4.914 19.428,10.494 7.351,23.199 -5.349,5.627 -16.007,10.986 -9.401,20.462 6.234,8.941 16.657,9.491 26.914,4.878 5.536,-2.491 11.384,-4.285 17.089,-6.393 0.052,-1.573 0.106,-3.146 0.16,-4.72 4.007,-16.314 1.3,-34.431 15.687,-47.955 5.039,-4.737 8.577,-14.901 -6.367,-12.876 -6.595,7.583 -15.475,3.671 -23.383,4.646 h 0.007 C 18.844,-12.704 6.452,-12.487 -0.893,-2.995 -0.598,-1.998 -0.299,-0.999 0,0" style="fill:#9e2024;fill-opacity:1;fill-rule:nonzero;stroke:none" transform="matrix(1.3333333,0,0,-1.3333333,1398.1181,3694.9155)" />
      <path id="path208" d="m 0,0 c -20.971,21.243 -20.16,48.02 -19.025,74.881 0.772,-0.014 1.562,-0.142 2.315,-0.027 9.326,1.413 10.757,-5.776 10.137,-11.518 C -8.913,41.653 13.573,22.664 0,0" style="fill:#6e1519;fill-opacity:1;fill-rule:nonzero;stroke:none" transform="matrix(1.3333333,0,0,-1.3333333,1454.5508,3638.6024)" />
      <path id="path209" d="m 0,0 c -6.28,-1.4 -12.56,-2.8 -18.84,-4.2 -1.443,2.008 -1.646,4.134 -0.622,6.389 6.6,8.679 15.822,8.727 25.38,7.74 C 8.206,9.413 10.327,8.486 12.295,7.207 12.997,6.284 13.692,5.348 14.387,4.412 14.216,3.027 14.048,1.641 13.882,0.256 9.254,0.171 4.627,0.086 0,0" style="fill:#bb2122;fill-opacity:1;fill-rule:nonzero;stroke:none" transform="matrix(1.3333333,0,0,-1.3333333,1429.408,3532.9353)" />
      <path id="path220" d="m 0,0 c 8.826,-4.822 13.52,-11.618 14.209,-22.286 1.165,-18.022 12.929,-30.425 25.761,-42.352 -2.632,-8.119 -11.758,-5.955 -16.638,-10.305 -4.067,-2.883 -7.863,-5.971 -8.579,-11.401 -0.833,-3.127 -2.084,-6.034 -4.076,-8.609 -3.37,-3.202 -7.266,-5.132 -12.014,-5.03 -5.106,2.116 -6.942,5.372 -3.595,10.412 16.451,8.928 6.498,21.775 4.952,33.374 3.204,2.817 9.705,4.965 5.231,10.479 C -6.384,-31.378 -1.092,-15.542 0,0" style="fill:#c82320;fill-opacity:1;fill-rule:nonzero;stroke:none" transform="matrix(1.3333333,0,0,-1.3333333,1398.1809,3357.8459)" />
      <path id="path221" d="m 0,0 c 2.832,-17.195 -1.256,-36.574 16.552,-49.007 3.047,-2.128 2.182,-7.747 -1.475,-10.036 -5.442,-3.407 -10.19,0.923 -15.058,2.845 -4.769,7.822 -9.54,15.643 -14.311,23.465 1.312,1.439 2.729,1.48 4.236,0.319 12.276,9.936 -1.351,26.864 10,37.049 C -0.064,3.09 -0.045,1.545 0,0" style="fill:#d52621;fill-opacity:1;fill-rule:nonzero;stroke:none" transform="matrix(1.3333333,0,0,-1.3333333,1398.1809,3357.8459)" />
      <path id="path222" d="M 0,0 C -1.41,-0.129 -2.821,-0.235 -4.235,-0.32 -21.92,31.829 -6.525,62.307 0.483,93.208 1.353,76.892 1.758,60.246 -4.524,45.103 -11.359,28.627 1.75,15.285 0,0" style="fill:#a72024;fill-opacity:1;fill-rule:nonzero;stroke:none" transform="matrix(1.3333333,0,0,-1.3333333,1384.7735,3401.0641)" />
      <path id="path223" d="m 0,0 c 1.592,-2.895 3.183,-5.789 4.775,-8.684 4.273,-4.387 4.263,-9.185 1.37,-14.259 -3.56,-2.629 -7.104,-2.88 -10.621,0.088 -19.079,9.251 -19.656,18.59 -0.134,28.024 C -3.074,3.445 -1.537,1.723 0,0" style="fill:#d42621;fill-opacity:1;fill-rule:nonzero;stroke:none" transform="matrix(1.3333333,0,0,-1.3333333,1391.6045,3477.2737)" />
      <path id="path319" d="m 0,0 c -6.773,-6.421 -2.127,-8.491 3.831,-10.087 7.988,-2.14 8.599,-7.136 5.251,-13.646 -17.873,-2.124 -25.528,5.846 -23.297,23.584 5.83,0.795 1.886,11.847 9.476,9.574 C -2.426,8.732 -1.54,3.275 0,0" style="fill:#a82024;fill-opacity:1;fill-rule:nonzero;stroke:none" transform="matrix(1.3333333,0,0,-1.3333333,1373.4867,3550.9256)" />
      <path id="path320" d="m 0,0 c 3.061,-0.055 6.123,-0.111 9.184,-0.166 6.952,-4.719 9.999,-10.473 4.874,-18.393 -0.018,-1.513 -0.041,-3.025 -0.069,-4.535 C 10.81,-24.7 7.631,-26.309 4.453,-27.917 3.026,-29.408 1.542,-29.539 -0.006,-28.102 -0.004,-18.735 -0.002,-9.367 0,0" style="fill:#be2222;fill-opacity:1;fill-rule:nonzero;stroke:none" transform="matrix(1.3333333,0,0,-1.3333333,1385.6369,3507.7477)" />
      <path id="path321" d="M 0,0 C 1.489,0.01 2.977,0.071 4.46,0.184 10.043,-1.188 17.273,2.99 20.939,-4.307 21.573,-5.571 19.782,-9.745 18.719,-9.901 10.36,-11.127 2.12,-10.786 -4.681,-4.647 -3.12,-3.098 -1.56,-1.549 0,0" style="fill:#811b1f;fill-opacity:1;fill-rule:nonzero;stroke:none" transform="matrix(1.3333333,0,0,-1.3333333,1385.6291,3545.2175)" />
      <path id="path322" d="M 0,0 C -0.21,1.403 -0.299,2.813 -0.271,4.226 -0.274,17.844 -0.274,31.467 -0.274,45.09 2.721,29.984 9.575,14.758 0,0" style="fill:#d3241f;fill-opacity:1;fill-rule:nonzero;stroke:none" transform="matrix(1.3333333,0,0,-1.3333333,1354.3561,3520.2147)" />
      <path id="path323" d="m 0,0 c -1.171,0.167 -2.345,0.319 -3.52,0.456 -4.037,1.769 -5.5,4.958 -5.069,9.191 3.925,10.552 12.57,19.811 8.886,32.445 1.765,5.556 -3.483,13.549 5.554,16.295 0.607,0.185 2.64,-4.321 4.009,-6.645 -3.439,-8.643 2.537,-15.706 3.01,-19.33 -0.861,3.552 -5.462,10.84 -3.008,19.312 12.285,1.665 22.468,-3.97 32.703,-9.424 7.928,-12.828 15.912,-25.218 29.239,-33.829 8.955,-5.786 16.547,-14.398 8.518,-26.734 0,0 -0.407,-0.366 -0.409,-0.367 C 68.929,-15.548 64.011,-4.934 55.37,1.243 40.914,11.577 27.85,13.267 14.564,0.179 13.237,-1.009 11.694,-1.639 9.909,-1.648 6.568,-1.373 3.441,0.24 0,0" style="fill:#a92124;fill-opacity:1;fill-rule:nonzero;stroke:none" transform="matrix(1.3333333,0,0,-1.3333333,1391.2112,3183.4217)" />
      <path id="path324" d="m 0,0 c 13.337,1.078 22.189,-8.873 33.206,-13.501 0.638,-4.863 4.923,-9.789 -0.251,-14.552 -0.03,-4.607 -0.06,-9.214 -0.09,-13.821 4.32,-6.676 1.292,-10.858 -4.756,-14.016 -17.64,8.761 -41.754,13.495 -25.143,42.844 C 4.591,-10.176 1.111,-4.417 0,0" style="fill:#ac2124;fill-opacity:1;fill-rule:nonzero;stroke:none" transform="matrix(1.3333333,0,0,-1.3333333,1416.7177,3033.6617)" />
      <path id="path325" d="m 0,0 c 1.585,4.672 3.171,9.344 4.756,14.016 7.604,-18.8 7.292,-40.903 23.431,-56.141 0.942,-0.481 1.885,-0.961 2.841,-1.424 7.457,-5.437 6.651,-15.086 11.215,-22.005 1.631,-4.649 3.263,-9.298 4.897,-13.947 -4.686,1.601 -9.375,3.202 -14.06,4.805 0.646,14.534 -8.632,23.23 -20.035,27.848 -15.939,6.455 -19.469,17.68 -17.718,32.719 C -3.116,-9.42 -1.558,-4.71 0,0" style="fill:#bf2221;fill-opacity:1;fill-rule:nonzero;stroke:none" transform="matrix(1.3333333,0,0,-1.3333333,1454.196,3108.1821)" />
      <path id="path326" d="m 0,0 c 6.335,-11.603 6.531,-20.616 -9.406,-23.397 -11.154,-1.948 -19.771,-12.351 -32.311,-9.858 0.005,-0.005 -0.563,0.681 -0.563,0.681 0.665,13.035 2.546,25.312 18.108,29.057 3.096,1.808 2.546,-11.327 8.364,-1.69 C -12.949,-0.473 -6.889,3.195 0,0" style="fill:#bb2122;fill-opacity:1;fill-rule:nonzero;stroke:none" transform="matrix(1.3333333,0,0,-1.3333333,1504.2071,3482.7057)" />
      <path id="path327" d="m 0,0 c -8.205,0.396 -12.219,-20.225 -23.446,-4.676 -3.873,4.734 -3.999,9.37 0.362,13.889 1.623,1.544 3.246,3.088 4.874,4.63 8.036,-0.286 15.823,0.567 22.88,4.859 C 5.334,11.913 3.174,5.83 0,0" style="fill:#992024;fill-opacity:1;fill-rule:nonzero;stroke:none" transform="matrix(1.3333333,0,0,-1.3333333,1504.2071,3482.7057)" />
      <path id="path328" d="m 0,0 c -1.598,-6.295 -3.196,-12.59 -4.794,-18.884 -8.559,-2.473 -9.764,5.662 -13.868,9.614 0,0 10e-4,0.018 10e-4,0.019 4.719,12.754 -10.344,21.853 -7.065,36.879 C -14.574,18.91 -4.824,11.9 0,0" style="fill:#e12926;fill-opacity:1;fill-rule:nonzero;stroke:none" transform="matrix(1.3333333,0,0,-1.3333333,1516.6584,3152.0149)" />
      <path id="path329" d="m 0,0 c -4.86,-0.133 -9.721,-0.267 -14.586,-0.405 -4.418,1.791 -8.832,3.585 -13.246,5.38 -1.233,1.042 -1.631,2.069 -1.196,3.082 0.431,1.004 0.857,1.506 1.28,1.506 1.514,0.012 3.488,-0.599 4.473,0.128 C -5.043,23.147 -5.068,23.181 0,0" style="fill:#931f23;fill-opacity:1;fill-rule:nonzero;stroke:none" transform="matrix(1.3333333,0,0,-1.3333333,1510.3593,3077.1596)" />
      <path id="path330" d="m 0,0 c -0.087,-1.529 -0.116,-3.06 -0.085,-4.59 -3.148,-0.131 -6.296,-0.265 -9.444,-0.4 1.164,4.828 -5.422,9.788 0.249,14.546 C -6.185,6.373 -3.092,3.186 0,0" style="fill:#b32123;fill-opacity:1;fill-rule:nonzero;stroke:none" transform="matrix(1.3333333,0,0,-1.3333333,1473.3616,3064.4088)" />
      <path id="path361" d="m 0,0 c 1.569,-4.674 3.137,-9.347 4.706,-14.021 0,0.001 -0.043,-0.057 -0.043,-0.057 -1.434,-1.53 -3.168,-2.16 -5.249,-1.772 -5.351,2.676 -9.69,6.579 -13.417,11.213 -1.568,3.11 -3.135,6.22 -4.703,9.33 C -11.913,5.35 -5.831,3.176 0,0" style="fill:#9e2024;fill-opacity:1;fill-rule:nonzero;stroke:none" transform="matrix(1.3333333,0,0,-1.3333333,1391.8429,3676.2215)" />
      <path id="path368" d="m 0,0 c -1.421,-6.453 -4.604,-11.607 -8.28,-2.109 -2.493,6.441 -3.08,14.997 3.754,20.961 C -3.854,12.367 -6.319,5.129 0,0" style="fill:#e12a23;fill-opacity:1;fill-rule:nonzero;stroke:none" transform="matrix(1.3333333,0,0,-1.3333333,1366.6308,3108.4904)" />
      <path id="path398" d="m 0,0 c 1.686,-3.064 3.372,-6.129 5.064,-9.192 -1.671,-1.456 -3.347,-2.913 -5.021,-4.365 -4.73,3.814 -9.662,7.406 -14.121,11.512 -2.731,2.514 -5.939,6.678 -1.414,9.232 2.278,1.286 6.957,-1.681 10.551,-2.726 C -3.294,2.973 -1.647,1.486 0,0" style="fill:#da2a24;fill-opacity:1;fill-rule:nonzero;stroke:none" transform="matrix(1.3333333,0,0,-1.3333333,1379.7584,3170.5593)" />
      <path id="path409" d="m 0,0 c 7.472,-0.666 13.919,-3.401 18.787,-9.318 0,-4.435 0,-8.87 0,-18.637 C 12.454,-14.518 0.225,-11.928 0,0" style="fill:#580f11;fill-opacity:1;fill-rule:nonzero;stroke:none" transform="matrix(1.3333333,0,0,-1.3333333,1491.6905,3233.0529)" />
      <path id="path422" d="m 0,0 c 1.562,-0.004 3.124,-0.007 4.686,-0.011 8.878,-6.969 20.809,-9.35 28.101,-18.702 -9.349,1.579 -18.698,3.158 -28.047,4.738 -1.538,1.59 -3.077,3.179 -4.615,4.769 C -2.611,-6.174 -2.961,-3.109 0,0" style="fill:#aa2024;fill-opacity:1;fill-rule:nonzero;stroke:none" transform="matrix(1.3333333,0,0,-1.3333333,1391.8119,3694.9764)" />
      <path id="path423" d="m 0,0 c 0.041,-3.07 0.082,-6.14 0.124,-9.208 -3.12,1.538 -6.241,3.074 -9.361,4.611 -3.188,4.618 -6.376,9.235 -9.566,13.851 1.607,0.057 3.215,0.116 4.823,0.175 C -7.315,9.258 -2.642,6.135 0,0" style="fill:#b82123;fill-opacity:1;fill-rule:nonzero;stroke:none" transform="matrix(1.3333333,0,0,-1.3333333,1391.8119,3694.9764)" />
      <path id="path424" d="M 0,0 C 1.483,-1.578 2.965,-3.156 4.447,-4.732 -1.581,-4.731 -7.607,-4.731 -14.888,-4.731 -10.236,2.505 -4.491,-1.312 0,0" style="fill:#e12920;fill-opacity:1;fill-rule:nonzero;stroke:none" transform="matrix(1.3333333,0,0,-1.3333333,1398.2389,3719.6703)" />
      <path id="path425" d="M 0,0 C -0.027,6.804 0.164,13.462 9.413,14.055 9.976,7.535 7.416,0.23 14.133,-4.747 10.732,-10.513 8.757,-16.645 9.34,-23.433 3.889,-25.262 -2.316,-31.49 -7.082,-24.5 -13.93,-14.458 -3.672,-7.857 0,0" style="fill:#cb231f;fill-opacity:1;fill-rule:nonzero;stroke:none" transform="matrix(1.3333333,0,0,-1.3333333,1485.4007,3407.7788)" />
      <path id="path438" d="m 0,0 c 4.624,-3.203 9.247,-6.406 13.87,-9.612 0.061,-4.601 0.124,-9.199 0.187,-13.798 C 7.922,-16.477 0.894,-10.08 0,0" style="fill:#cf2620;fill-opacity:1;fill-rule:nonzero;stroke:none" transform="matrix(1.3333333,0,0,-1.3333333,1491.7756,3164.3749)" />
      <path id="path451" d="M 0,0 C -0.84,11.355 3.012,15.703 14.009,9.38 18.66,3.145 28.886,1.078 27.978,-9.311 25.924,-33.269 23.726,-34.547 5.051,-22.692 3.704,-20.944 2.781,-18.956 2.318,-16.798 1.287,-11.263 9.658,-4.403 0,0" style="fill:#b32024;fill-opacity:1;fill-rule:nonzero;stroke:none" transform="matrix(1.3333333,0,0,-1.3333333,1410.6112,3470.2772)" />
      <path id="path452" d="m 0,0 c -0.121,-4.63 -0.242,-9.26 -0.362,-13.89 -11.502,-5.775 -8.435,-21.381 -18.833,-27.9 -1.599,0.079 -3.197,0.156 -4.795,0.233 -3.797,2.266 -7.463,4.594 -4.631,9.945 10.027,2.177 5.022,12.516 9.572,17.672 8.052,6.039 1.805,18.533 11.356,23.712 C -5.379,6.832 -2.689,3.416 0,0" style="fill:#d62722;fill-opacity:1;fill-rule:nonzero;stroke:none" transform="matrix(1.3333333,0,0,-1.3333333,1473.4289,3470.4212)" />
      <path id="path453" d="m 0,0 c -0.872,-7.398 2.705,-17.014 -9.383,-18.821 -13.298,-3.82 -17.786,1.089 -14.031,14.163 13.369,-10.754 19.046,-2.411 23.328,9.395 C -0.058,3.158 -0.029,1.579 0,0" style="fill:#bb2122;fill-opacity:1;fill-rule:nonzero;stroke:none" transform="matrix(1.3333333,0,0,-1.3333333,1448.0308,3489.0081)" />
      <path id="path454" d="m 0,0 c 1.545,-0.082 3.09,-0.137 4.638,-0.165 10.855,-1.745 22.813,4.199 32.645,-4.684 -7.386,-9.038 -19.939,-1.778 -27.945,-8.858 -3.137,-0.181 -6.274,-0.363 -9.41,-0.544 -5.825,0.502 -9.187,3.206 -8.507,9.52 C -6.494,-1.75 -3.741,0.021 0,0" style="fill:#7d1a1e;fill-opacity:1;fill-rule:nonzero;stroke:none" transform="matrix(1.3333333,0,0,-1.3333333,1404.4459,3182.9627)" />
      <path id="path455" d="M 0,0 C 5.671,14.452 19.118,4.37 27.946,8.859 28.003,7.321 28.043,5.783 28.065,4.245 21.324,-3.563 12.06,0.788 4.011,-0.747 2.617,-0.79 1.281,-0.54 0,0" style="fill:#77191c;fill-opacity:1;fill-rule:nonzero;stroke:none" transform="matrix(1.3333333,0,0,-1.3333333,1416.8959,3201.2388)" />
      <path id="path456" d="M 0,0 C -1.833,-3.448 -4.919,-4.622 -8.585,-4.732 -9.1,-3.29 -9.547,-1.827 -9.923,-0.343 -7.047,12.148 -3.473,4.622 0,0" style="fill:#77191c;fill-opacity:1;fill-rule:nonzero;stroke:none" transform="matrix(1.3333333,0,0,-1.3333333,1404.4459,3182.9627)" />
      <path id="path457" d="m 0,0 c 0.473,-8.886 5.219,-13.538 14.031,-14.162 1.483,-2.936 2.965,-5.87 4.444,-8.801 -9.434,-0.737 -19.152,0.112 -27.798,-4.994 -1.624,6.134 -3.247,12.267 -4.873,18.397 0.022,4.776 0.045,9.555 0.067,14.334 2.064,3.585 5.438,4.453 9.232,4.45 C -2.128,8.713 -0.523,7.167 -0.465,4.245 -0.401,2.82 -0.246,1.405 0,0" style="fill:#dd2923;fill-opacity:1;fill-rule:nonzero;stroke:none" transform="matrix(1.3333333,0,0,-1.3333333,1416.812,3495.2191)" />
      <path id="path462" d="m 0,0 c -1.476,1.66 -2.952,3.321 -4.429,4.98 0.08,3.16 0.161,6.321 0.243,9.482 2.793,0.768 6.454,3.304 8.166,-0.149 C 6.653,8.919 5.174,3.707 0,0" style="fill:#a32025;fill-opacity:1;fill-rule:nonzero;stroke:none" transform="matrix(1.3333333,0,0,-1.3333333,1416.1916,3489.5593)" />
      <path id="path507" d="M 0,0 C 4.791,-10.316 9.581,-20.633 14.443,-31.102 -5.23,-27.909 -7.924,-21.99 -0.001,0.018 -0.001,0.019 0,0 0,0" style="fill:#941f23;fill-opacity:1;fill-rule:nonzero;stroke:none" transform="matrix(1.3333333,0,0,-1.3333333,1404.36,3114.4568)" />
      </g></svg>