<?xml version='1.0' encoding='utf-8'?>
<svg xmlns="http://www.w3.org/2000/svg" version="1.1" width="69.191" height="35.252" viewBox="2364.000 4259.600 69.191 35.252"><g id="object"><path id="path30" d="m 5.1323328,-5.5198781 c 0,3.1640625 -1.1015625,4.0078125 -2.9765625,4.0078125 -0.6914062,0 -1.31249999,-0.140625 -1.74609374,-0.3164063 l -0.31640625,1.71093752 c 0.52734375,0.2109375 1.46484379,0.38671875 2.23828129,0.38671875 2.7773437,0 4.8867187,-1.32421877 4.8867187,-5.62499997 V -16.172222 H 5.1323328 Z M 15.523934,-3.46875e-4 17.832528,-8.4261281 c 0.597656,-2.0859379 0.960938,-3.6679689 1.242188,-5.2734379 h 0.04687 c 0.222656,1.628907 0.5625,3.210938 1.066406,5.2734379 l 2.039062,8.425781225 h 2.179688 L 28.988778,-16.172222 h -2.132812 l -2.132813,8.1562501 c -0.503906,2.015625 -0.960937,3.8203125 -1.300781,5.5898438 h -0.04687 c -0.234375,-1.6992188 -0.667969,-3.6210938 -1.125,-5.5429688 l -1.96875,-8.2031251 h -2.191406 l -2.15625,8.1562501 c -0.550782,2.0859375 -1.054688,4.0078125 -1.324219,5.6132813 h -0.04687 c -0.28125,-1.5585938 -0.714844,-3.5742188 -1.195313,-5.5898438 L 11.445809,-16.172222 H 9.2426844 L 13.344247,-3.46875e-4 Z m 19.350586,0 h 2.109375 V -14.402691 h 4.945313 v -1.769531 H 29.952645 v 1.769531 h 4.921875 z m 0,0" style="fill:#231916;fill-opacity:1;fill-rule:nonzero;stroke:none" aria-label="JWT" transform="matrix(1.3333333,0,0,1.3333333,2370.6217,4287.8364)" />
      <path id="path31" d="m 0,0 c 0,-3.168 -1.104,-4.008 -2.976,-4.008 -0.696,0 -1.32,0.145 -1.752,0.313 L -5.04,-5.399 c 0.528,-0.216 1.464,-0.384 2.232,-0.384 2.784,0 4.896,1.319 4.896,5.615 v 10.824 l -2.088,0 z" style="fill:none;stroke:#231916;stroke-width:1;stroke-linecap:butt;stroke-linejoin:miter;stroke-miterlimit:10;stroke-dasharray:none;stroke-opacity:1" transform="matrix(1.3333333,0,0,-1.3333333,2377.47,4280.4771)" />
      <path id="path32" d="m 0,0 2.304,8.424 c 0.6,2.088 0.96,3.672 1.248,5.28 H 3.6 C 3.816,12.072 4.152,10.488 4.656,8.424 L 6.696,0 H 8.88 l 4.584,16.176 H 11.328 L 9.192,8.016 C 8.688,6 8.232,4.2 7.896,2.424 H 7.848 C 7.608,4.128 7.176,6.048 6.72,7.968 L 4.752,16.176 H 2.568 L 0.408,8.016 C -0.144,5.928 -0.648,4.008 -0.912,2.4 H -0.96 c -0.288,1.56 -0.72,3.576 -1.2,5.592 l -1.92,8.184 H -6.288 L -2.184,0 Z" style="fill:none;stroke:#231916;stroke-width:1;stroke-linecap:butt;stroke-linejoin:miter;stroke-miterlimit:10;stroke-dasharray:none;stroke-opacity:1" transform="matrix(1.3333333,0,0,-1.3333333,2391.3255,4287.8364)" />
      <path id="path33" d="m 0,0 h 2.112 v 14.4 h 4.944 v 1.776 H -4.92 V 14.4 l 4.92,0 z" style="fill:none;stroke:#231916;stroke-width:1;stroke-linecap:butt;stroke-linejoin:miter;stroke-miterlimit:10;stroke-dasharray:none;stroke-opacity:1" transform="matrix(1.3333333,0,0,-1.3333333,2417.1172,4287.8364)" />
      </g></svg>