<?xml version='1.0' encoding='utf-8'?>
<svg xmlns="http://www.w3.org/2000/svg" version="1.1" width="568.089" height="361.383" viewBox="2342.680 1108.940 568.089 361.383"><g id="object"><path id="path21" d="m 0,0 c -26.142,4.295 -51.352,-9.699 -72.657,17.023 -10.934,13.714 -32.179,9.171 -47.213,-1.709 -14.366,-10.397 -11.675,-27.938 6.023,-33.405 16.887,-5.215 34.959,-6.698 52.568,-9.451 42.766,-6.683 64.54,-25.368 67.533,-58.304 3.815,-41.975 -13.88,-70.451 -53.754,-85.09 -38.893,-14.279 -76.6,-12.087 -112.235,10.267 -22.508,14.118 -32.074,35.304 -34.488,64.833 25.557,-5.201 50.113,10.534 72.578,-15.168 13.933,-15.942 38.01,-12.723 57.023,-1.82 13.884,7.961 12.355,24.411 -3.265,29.518 -13.635,4.458 -28.651,4.851 -43.11,6.604 -46.852,5.68 -72.679,26.448 -78.593,63.51 -5.836,36.571 10.656,68.731 44.01,84.325 28.56,13.352 58.186,14.06 87.945,4.566 C -23.298,64.744 -3.278,41.894 0,0" style="fill:#231916;fill-opacity:1;fill-rule:nonzero;stroke:none" transform="matrix(1.3333333,0,0,-1.3333333,2895.7497,1224.4048)" />
      <path id="path66" d="M 0,0 C -13.765,-26.516 -40.455,-10.999 -64.663,-16.675 V 50.29 C -42.387,45.364 -21.034,43.342 -2.619,34.906 2.823,32.414 4.828,9.299 0,0 m 33.77,-59.724 c 5.266,5.867 9.232,9.944 12.817,14.333 23.049,28.226 27.917,60.072 15.956,93.8 -12.042,33.952 -37.608,53.046 -73.251,55.252 -34.843,2.156 -69.878,1.099 -104.823,1.75 -14.328,0.267 -14.869,-8.808 -14.813,-19.451 0.208,-39.05 0.091,-78.103 0.093,-117.154 0.002,-37.985 0.001,-75.969 0.001,-115.045 h 64.447 v 68.777 c 31.013,5.445 31.048,5.466 44.502,-17.788 7.734,-13.365 14.902,-27.084 23.21,-40.078 3.159,-4.94 8.604,-11.534 13.34,-11.818 21.302,-1.276 42.723,-0.556 70.625,-0.556 -19.673,33.218 -35.959,60.717 -52.104,87.978" style="fill:#231916;fill-opacity:1;fill-rule:nonzero;stroke:none" transform="matrix(1.3333333,0,0,-1.3333333,2522.472,1259.9895)" />
      </g></svg>