<?xml version='1.0' encoding='utf-8'?>
<svg xmlns="http://www.w3.org/2000/svg" version="1.1" width="2472.970" height="2389.320" viewBox="356.814 441.947 2472.970 2389.320"><g id="object"><path id="path4" d="m 0,0 c -409.839,-168.646 -836.922,-213.004 -1274.34,-185.477 -0.369,2.313 -0.737,4.625 -1.106,6.938 3.978,0.6 8.024,2.01 11.925,1.683 185.589,-15.569 370.924,-10.594 555.788,9.523 251.116,27.326 495.234,83.152 725.95,188.778 33.184,15.192 63.296,37.878 93.158,59.413 148.434,107.045 296.305,214.871 444.401,322.385 3.869,2.809 8.053,5.183 13.971,8.96 v -1782.987 h -1845.55 c 0,6.175 0,12.71 0,19.245 0.05,135.326 0.308,270.653 -0.175,405.978 -0.047,13.386 4.275,21.259 14.928,28.948 107.658,77.713 214.947,155.936 322.325,234.037 5.412,3.936 10.69,8.058 15.706,13.835 -117.275,-9.693 -234.306,-13.687 -351.408,-6.928 -0.089,1.901 -0.179,3.803 -0.268,5.704 4.419,0.407 8.866,1.363 13.253,1.14 111.815,-5.698 223.387,-1.718 334.64,9.887 14.515,1.514 29.903,7.918 42.072,16.196 38.324,26.069 75.306,54.11 112.511,83.117 -166.167,-29.12 -333.393,-33.042 -502.415,-27.584 v 26.803 c 7.439,0 14.627,0.22 21.799,-0.033 161.654,-5.703 322.401,0.864 482.016,30.111 50.793,9.307 92.864,31.359 131.203,67.586 -191.285,-39.219 -382.886,-50.426 -575.623,-47.289 -19.696,0.321 -39.372,1.844 -59.768,2.844 v 25.754 c 7.751,0 14.926,0.246 22.081,-0.036 152.267,-6.003 304.171,-0.516 455.13,19.913 69.9,9.459 139.591,22.779 207.982,39.917 26.542,6.65 49.235,28.664 72.594,45.731 -249.932,-57.231 -502.102,-72.245 -758.677,-57.899 0.442,9.658 0.794,17.332 1.253,27.368 15.6,-0.997 29.63,-2.224 43.685,-2.741 248.588,-9.158 494.679,6.852 736.661,69.444 43.207,11.176 76.92,35.034 110.183,62.901 -291.519,-82.902 -588.886,-104.051 -890.89,-89.282 v 25.812 c 5.699,0.28 11.004,1.021 16.25,0.727 139.691,-7.834 279.214,-5.078 418.498,7.609 177.193,16.139 351.332,47.625 519.637,106.957 13.795,4.863 27.384,11.863 39.251,20.397 89.655,64.475 178.859,129.578 268.186,194.51 C -8.706,-6.851 -4.39,-3.374 0,0" style="fill:#ffffff;fill-opacity:1;fill-rule:nonzero;stroke:none" transform="matrix(1.3333333,0,0,-1.3333333,2064.118,997.55093)" />
      </g></svg>