<?xml version='1.0' encoding='utf-8'?>
<svg xmlns="http://www.w3.org/2000/svg" version="1.1" width="520.624" height="1175.130" viewBox="1844.330 1828.030 520.624 1175.130"><g id="object"><path id="path6" d="m 0,0 c 0,-0.142 -0.001,-0.285 -0.001,-0.427 5.868,0 11.753,-0.283 17.603,0.051 20.121,1.147 20.267,1.227 20.545,22.059 0.617,46.091 1.731,92.187 1.447,138.274 -0.581,93.942 -0.335,187.892 -2.584,281.825 -0.678,28.35 1.329,56.724 -0.707,85.126 -1.257,17.534 -1.475,18.679 -18.41,18.696 -11.335,0.012 -22.672,-0.119 -34.003,0.067 -22.584,0.371 -25.265,-2.111 -24.489,-25.032 1.629,-48.1 0.29,-96.199 0.388,-144.298 0.125,-61.125 1.041,-122.248 1.188,-183.373 0.08,-33.1 -0.609,-66.204 -1.173,-99.302 C -40.66,66.48 -43.635,39.369 -42.668,12.134 -42.38,4.009 -38.718,-0.24 -30.193,-0.052 -20.133,0.169 -10.065,0 0,0 m -116.667,630.438 c 21.951,-0.245 43.902,-0.49 65.851,-0.735 3.049,-3.442 6.373,-2.734 9.788,-0.64 6.78,-0.064 13.56,-0.129 20.34,-0.192 4.223,-4.713 8.373,-3.393 12.495,0.155 3.417,0.041 6.833,0.082 10.248,0.122 3.808,-2.478 8.09,-1.612 12.208,-1.625 50.933,-0.158 101.868,-0.591 152.796,-0.128 10.852,0.099 17.383,-2.917 19.87,-13.533 -0.003,-1.803 -0.006,-3.607 -0.008,-5.406 -3.169,-2.158 -1.781,-5.565 -1.612,-8.139 4.075,-62.209 1.333,-124.531 3.104,-186.787 1.13,-39.739 -0.291,-79.575 -1.323,-119.348 -1.761,-67.93 0.021,-135.854 -0.332,-203.78 -0.159,-30.51 1.482,-61.077 0.139,-91.522 -1.473,-33.417 -1.41,-66.85 -2.811,-100.246 -0.928,-22.105 0.363,-44.234 -1.755,-66.346 -1.307,-13.65 -9.419,-24.821 -11.738,-37.937 -0.361,-0.607 -0.7,-1.225 -1.017,-1.856 -2.961,-0.627 -4.474,-2.375 -4.242,-5.475 -1.739,-1.633 -3.478,-3.266 -5.218,-4.9 -3.149,0.113 -4.93,-1.352 -5.227,-4.529 -2.291,-2.001 -4.582,-4.002 -6.873,-6.003 -6.507,-2.083 -14.292,-1.349 -18.534,-8.416 -30.345,-7.5 -61.111,-4.75 -91.804,-3.778 -0.618,1.554 -1.7,1.972 -3.223,1.313 -50.256,0.403 -100.512,0.827 -150.768,1.2 -21.391,0.159 -42.792,0.605 -64.171,0.137 -9.766,-0.214 -12.505,3.975 -12.121,12.812 0.731,16.77 1.915,33.6 1.166,50.327 -0.546,12.183 3.767,16.646 15.511,16.509 31.077,-0.362 62.161,-0.189 93.24,-0.37 34.002,-0.198 68.005,-0.42 102.002,-0.917 10.961,-0.16 16.26,4.344 16.336,15.559 0.098,14.692 1.07,29.379 1.189,44.072 0.147,18.207 -2.184,20.296 -20.116,20.329 -41.967,0.077 -83.961,-0.676 -125.89,0.637 -25.347,0.794 -49.934,6.4 -67.347,27.819 -0.656,7.581 -6.37,12.472 -10.175,18.261 -2.939,4.471 -4.188,8.739 -4.263,14.02 -0.866,61.179 -0.711,122.333 0.401,183.525 1.301,71.625 0.342,143.293 0.145,214.942 -0.065,23.286 -1.65,46.591 -1.059,69.849 0.86,33.85 0.074,67.713 0.117,101.536 0.034,26.925 9.162,46.749 29.792,62.646 9.061,6.983 19.425,11.211 29.753,15.638 3.226,0.286 6.451,0.571 9.675,0.856 1.909,-1.318 3.74,-1.362 5.461,0.344" style="fill:#0c2f31;fill-opacity:1;fill-rule:nonzero;stroke:none" transform="matrix(1.3333333,0,0,-1.3333333,2107.1797,2674.6123)" />
      </g></svg>