<?xml version='1.0' encoding='utf-8'?>
<svg xmlns="http://www.w3.org/2000/svg" version="1.1" width="79.650" height="151.111" viewBox="229.181 4356.660 79.650 151.111"><g id="object"><path id="path111" d="m 0,0 c 0.249,-2.073 0.488,-4.599 0.874,-7.103 0.288,-1.868 2.489,-2.81 3.738,-1.689 2.881,2.584 5.132,5.631 6.407,9.297 0.58,1.669 0.433,3.497 -1.044,4.637 C 7.897,6.747 5.403,7.309 2.793,6.824 1.457,6.577 0.598,5.656 0.424,4.251 0.268,2.994 0.17,1.73 0,0 m 1.753,-42.435 c -0.148,-8.736 2.242,-10.331 9.541,-6.342 1.126,0.615 2.366,1.165 3.248,2.049 1.853,1.857 3.353,4.022 2.144,6.832 -1.012,2.352 -3.265,2.508 -5.427,2.603 -1.715,0.076 -3.44,0.119 -5.15,0.016 -2.953,-0.178 -4.299,-1.834 -4.356,-5.158 m -17.144,30.128 c 0,8.503 -0.047,18.008 0.018,27.514 0.035,5.103 1.065,6.549 5.577,6.971 8.582,0.802 17.26,2.064 25.532,-1.719 2.326,-1.063 4.697,-2.19 6.721,-3.719 4.481,-3.387 5.844,-7.404 3.629,-12.504 -2.051,-4.724 -4.826,-9.155 -7.525,-13.567 -1.606,-2.626 -1.408,-4.712 0.61,-6.932 2.607,-2.869 4.821,-6.142 7.664,-8.737 4.119,-3.759 6.055,-8.098 6.1,-13.686 0.055,-6.994 0.04,-13.926 -4.033,-19.962 -1.403,-2.08 -3.333,-4.092 -5.486,-5.328 -8.614,-4.945 -17.352,-9.685 -26.173,-14.252 -2.644,-1.369 -5.663,-2.113 -8.59,-2.814 -3.767,-0.901 -6.125,0.663 -6.216,4.351 -0.16,6.47 -0.526,13.018 0.239,19.409 1.75,14.626 2.836,29.245 1.933,44.975" style="fill:#494643;fill-opacity:1;fill-rule:nonzero;stroke:none" transform="matrix(1.3333333,0,0,-1.3333333,258.9036,4393.3803)" />
      </g></svg>