<?xml version='1.0' encoding='utf-8'?>
<svg xmlns="http://www.w3.org/2000/svg" version="1.1" width="58.123" height="100.282" viewBox="1389.940 4361.630 58.123 100.282"><g id="object"><path id="path164" d="m 0,0 c 0.176,9.136 2.138,17.064 7.721,23.976 5.277,6.533 12.268,8.737 20.256,9.14 3.608,0.182 5.489,-1.644 5.599,-4.807 0.11,-3.126 -1.579,-5.028 -5.162,-5.465 -8.48,-1.037 -14.268,-6.232 -16.024,-14.375 -1.692,-7.844 -0.585,-15.627 2.757,-22.79 2.686,-5.756 8.103,-8.654 14.31,-9.061 3.943,-0.258 4.71,-1.978 4.655,-5.358 -0.059,-3.657 -2.255,-3.974 -5.117,-4.256 C 16.347,-34.239 2.195,-22 0.708,-7.704 0.435,-5.076 -1.299,-2.295 0,0" style="fill:#c33c36;fill-opacity:1;fill-rule:nonzero;stroke:none" transform="matrix(1.3333333,0,0,-1.3333333,1396.5747,4411.7988)" />
      </g></svg>