<?xml version='1.0' encoding='utf-8'?>
<svg xmlns="http://www.w3.org/2000/svg" version="1.1" width="250.227" height="387.132" viewBox="1041.280 1020.900 250.227 387.132"><g id="object"><path id="path117" d="M 0,0 C -0.18,0.637 -0.175,1.272 0.016,1.908 0.097,5.64 0.214,9.37 0.246,13.1 c 0.02,2.343 -0.698,4.398 -2.731,5.806 -0.499,3.929 -0.998,7.859 -1.499,11.789 2.563,4.112 6.219,5.6 10.932,4.545 C 7.175,33.915 7.403,32.59 7.629,31.261 7.537,26.269 7.407,21.28 7.372,16.289 7.357,14.208 8.465,12.677 10.183,11.568 10.586,10.086 10.989,8.604 11.394,7.122 11.179,6.846 10.729,6.496 10.789,6.309 10.981,5.708 11.362,5.167 11.67,4.604 c 0.843,-4.618 1.991,-9.125 1.744,-13.968 -0.196,-3.85 0.516,-7.879 1.551,-11.627 1.787,-6.469 3.052,-12.991 3.752,-19.65 0.163,-1.548 0.528,-3.111 1.055,-4.576 1.685,-4.688 5.041,-6.887 10.027,-6.11 3.074,0.479 5.947,1.572 9.218,0.729 2.316,-0.597 3.239,-1.673 3.497,-3.91 0.22,-1.91 1.437,-3.119 2.524,-0.728 1.149,2.529 3.534,1.109 4.931,2.271 2.429,2.023 4.044,1.744 5.038,-1.422 0.37,-1.178 1.452,-1.896 2.732,-1.76 1.519,0.161 3.221,0.792 3.466,-1.534 0.187,-1.773 -1.008,-2.793 -2.471,-3.612 -1.363,-0.765 -2.632,-1.699 -3.931,-2.576 -3.119,-2.104 -4.019,0.302 -5.039,2.469 1.025,0.209 1.204,0.457 0.538,0.743 -0.129,-0.3 -0.257,-0.599 -0.386,-0.899 -2.642,-1.454 -4.388,-4.086 -8.026,-4.332 -3.414,-0.231 -6.749,-1.949 -10.071,-3.144 -5.55,-1.996 -5.951,-2.514 -4.271,-8.769 2.123,-7.898 1.914,-16.404 6.167,-23.743 -1.089,-9.531 4.468,-17.238 6.948,-25.803 5.005,-17.287 10.077,-34.547 15.632,-51.666 1.427,-4.398 1.504,-8.973 3.837,-13.405 2.488,-4.725 1.539,-10.767 0.491,-16.239 -0.7,-3.655 -2.584,-5.478 -6.178,-6.126 -3.654,-0.66 -7.214,-0.204 -9.923,2.386 -4.48,4.281 -8.847,8.762 -9.495,15.593 3.326,-0.305 5.149,-5.228 8.197,-3.308 3.506,2.209 1.834,6.18 0.907,9.515 -4.523,16.265 -8.965,32.554 -13.588,48.791 -2.363,8.299 -6.038,16.134 -8.169,24.575 -3.265,12.932 -7.442,25.638 -11.375,38.396 -1.903,6.173 -2.83,6.846 -9.193,6.722 -3.916,-0.076 -7.848,-0.506 -11.725,-1.095 -6.988,-1.061 -13.903,-2.991 -20.916,-3.407 -9.916,-0.588 -19.254,-3.793 -28.958,-5.228 -6.84,-1.012 -11.384,-4.972 -13.401,-11.653 -1.25,-4.136 -1.918,-8.534 -3.738,-12.394 -2.985,-6.33 -4.703,-13.212 -9.389,-18.854 -4.351,-5.239 -5.315,-12.247 -6.705,-18.721 -1.361,-6.337 -5.028,-11.454 -7.538,-17.162 -0.717,-1.631 -2.701,-2.706 -4.11,-4.029 -2.418,-2.27 -4.83,-2.213 -7.293,-0.037 -0.882,0.78 -1.858,1.457 -2.819,2.141 -2.251,1.605 -2.683,3.586 -1.627,6.145 3.291,7.979 6.492,15.995 9.702,24.008 0.729,1.821 1.507,3.644 1.999,5.535 3.871,14.884 10.59,28.732 15.619,43.192 1.135,3.265 3.639,6.102 2.759,10.037 -0.477,2.134 1.248,3.58 2.776,4.852 2.522,2.1 4.294,4.854 4.804,7.942 1.113,6.74 4.499,12.385 7.451,18.356 5.377,10.876 8.509,22.664 12.642,34.048 1.742,4.799 3.12,9.753 6.023,14.051 1.294,1.915 2.359,4.464 5.254,3.853 3.076,-0.649 6.359,-1.625 7.391,-5.085 1.002,-3.356 1.584,-6.862 2.037,-10.343 0.124,-0.952 -0.714,-2.176 -1.39,-3.062 -4.137,-5.417 -6.151,-11.572 -7.725,-18.185 -1.715,-7.204 -4.842,-14.069 -7.299,-21.101 -1.034,-2.961 -2.065,-5.936 -2.846,-8.97 -0.753,-2.929 0.701,-4.264 3.956,-3.832 7.003,0.93 14.031,1.726 20.991,2.919 5.427,0.931 10.701,1.425 16.31,1.087 6.636,-0.4 12.779,3.083 18.724,6.036 1.467,0.729 1.819,2.476 1.807,4.107 -0.031,4.326 -0.092,8.652 -0.139,12.982 0.467,2.945 1.162,5.95 -2.224,7.79 0,0 0.109,-0.122 0.111,-0.121 -0.489,0.908 -0.98,1.814 -1.471,2.72 -0.84,3.089 -0.926,6.202 -0.292,9.337 2.141,1.913 1.757,3.488 -0.639,4.796 0.091,1.566 0.183,3.132 0.275,4.698 C 2.581,-3.074 2.383,-1.493 0,0" style="fill:#3675ba;fill-opacity:1;fill-rule:nonzero;stroke:none" transform="matrix(1.3333333,0,0,-1.3333333,1203.232,1115.2937)" />
      <path id="path197" d="m 0,0 c -4.713,1.055 -8.369,-0.434 -10.932,-4.546 -3.087,5.751 -2.285,12.158 -3.113,18.293 -0.358,2.653 -3.562,4.01 -5.163,2.037 -2.916,-3.593 -7.311,-5.902 -9.037,-10.516 -1.023,-2.733 -3.08,-4.483 -5.796,-5.408 -0.634,-0.217 -1.636,-0.267 -2.073,0.089 -0.497,0.407 -0.813,1.38 -0.752,2.065 0.286,3.181 1.16,7.409 3.702,8.166 8.508,2.533 8.147,10.411 10.727,16.31 1.351,3.09 3.018,4.267 5.88,4.527 1.541,0.14 3.114,-0.14 4.669,-0.099 4.064,0.105 6.65,-1.797 7.905,-5.614 0.366,-1.111 0.937,-2.189 1.094,-3.326 C -1.877,14.659 -0.953,7.327 0,0" style="fill:#548dc7;fill-opacity:1;fill-rule:nonzero;stroke:none" transform="matrix(1.3333333,0,0,-1.3333333,1212.496,1068.3064)" />
      <path id="path250" d="m 0,0 c -1.718,1.109 -2.826,2.64 -2.811,4.721 0.035,4.991 0.165,9.98 0.257,14.973 C -0.348,13.307 0.389,6.727 0,0" style="fill:#548dc7;fill-opacity:1;fill-rule:nonzero;stroke:none" transform="matrix(1.3333333,0,0,-1.3333333,1216.8093,1099.87)" />
      <path id="path262" d="M 0,0 C 2.032,-1.407 2.751,-3.462 2.73,-5.806 2.698,-9.536 2.582,-13.265 2.5,-16.997 0.974,-15.588 0.257,-13.798 0.204,-11.764 0.101,-7.844 0.064,-3.921 0,0" style="fill:#548dc7;fill-opacity:1;fill-rule:nonzero;stroke:none" transform="matrix(1.3333333,0,0,-1.3333333,1199.9193,1090.0864)" />
      </g></svg>