<?xml version='1.0' encoding='utf-8'?>
<svg xmlns="http://www.w3.org/2000/svg" version="1.1" width="1300.441" height="230.182" viewBox="1600.980 4009.310 1300.441 230.182"><g id="object"><path id="path5" d="M 35.895058,-0.00136562 V -65.438866 c 0,-25.441406 -0.445313,-43.851564 -1.582031,-63.164064 l 0.679687,-0.22265 c 7.722656,16.58203 17.941406,34.078121 28.628906,51.117183 l 48.62109,77.70703138 H 132.2349 V -153.14199 h -18.63281 v 64.078124 c 0,23.859375 0.45703,42.480469 2.27344,62.929688 l -0.45703,0.234375 C 108.15287,-41.579491 99.293495,-57.716209 87.926308,-75.657616 L 38.848183,-153.14199 H 17.262245 V -0.00136562 Z M 254.46439,-51.352928 c 0.23438,-2.039063 0.67969,-5.226563 0.67969,-9.316406 0,-20.214844 -9.53906,-51.796876 -45.43359,-51.796876 -32.03907,0 -51.57422,26.132813 -51.57422,59.296876 0,33.175781 20.21484,55.4414059 54.07031,55.4414059 17.49609,0 29.54297,-3.6328125 36.58594,-6.8203125 l -3.41016,-14.3085934 c -7.5,3.175781 -16.13672,5.671875 -30.44531,5.671875 -19.99219,0 -37.26563,-11.132813 -37.72266,-38.167969 z m -77.01562,-14.308594 c 1.58203,-13.863281 10.45312,-32.496094 30.66797,-32.496094 22.5,0 27.94922,19.769532 27.71484,32.496094 z m 89.96777,-44.308598 33.17578,109.96875438 H 318.7681 L 336.48685,-52.255272 c 3.86719,-11.8125 7.26563,-23.179687 9.9961,-36.351562 h 0.45703 c 2.71875,12.949218 5.90625,23.847656 9.76172,36.117187 l 16.8164,52.48828138 h 18.17579 L 427.1431,-109.97012 h -19.76953 l -15.67968,55.207036 c -3.63282,12.960937 -6.58594,24.539062 -8.40235,35.671875 h -0.67969 c -2.50781,-11.132813 -5.68359,-22.710938 -9.77343,-35.894532 l -17.03907,-54.984379 h -16.8164 l -17.94141,56.121098 c -3.64453,11.8125 -7.27734,23.625 -9.77344,34.757813 h -0.67968 c -2.05078,-11.355469 -5.00391,-22.710938 -8.17969,-34.980469 L 287.86576,-109.97012 Z M 533.46439,-0.00136562 555.28471,-79.747459 c 5.67187,-19.769532 9.08203,-34.769531 11.8125,-49.992191 h 0.45703 c 2.03906,15.45703 5.22656,30.445316 9.99609,49.992191 l 19.3125,79.74609338 h 20.67188 L 660.92924,-153.14199 h -20.21485 l -20.22656,77.249999 c -4.76953,19.089844 -9.08203,36.128907 -12.26953,52.945313 h -0.45703 c -2.27344,-16.136719 -6.36328,-34.3125 -10.67578,-52.488281 L 578.45267,-153.14199 H 557.7808 l -20.44922,77.249999 c -5.22656,19.769532 -9.99609,37.945313 -12.49219,53.167969 h -0.45703 c -2.73047,-14.765625 -6.82031,-33.855469 -11.35547,-52.933594 l -18.17578,-77.484374 h -20.90625 l 38.84766,153.14062438 z m 217.43555,0 C 749.54057,-7.5013656 749.08353,-16.817772 749.08353,-26.356834 v -41.121094 c 0,-22.042969 -8.17968,-44.988282 -41.80078,-44.988282 -13.86328,0 -27.03515,3.86719 -36.1289,9.77344 l 4.54687,13.171873 c 7.72266,-4.992187 18.39844,-8.179687 28.62891,-8.179687 22.48828,0 24.98437,16.359375 24.98437,25.453125 v 2.261718 c -42.48047,-0.222656 -66.10547,14.320313 -66.10547,40.898438 0,15.902344 11.35547,31.5820311 33.6211,31.5820311 15.67969,0 27.49219,-7.7226562 33.62109,-16.3593751 h 0.69141 l 1.58203,13.86328138 z M 729.77103,-37.032616 c 0,2.039063 -0.45703,4.3125 -1.13671,6.363282 -3.17579,9.316406 -12.26954,18.398437 -26.57813,18.398437 -10.23047,0 -18.85547,-6.128906 -18.85547,-19.089844 0,-21.351562 24.76172,-25.21875 46.57031,-24.761718 z m 36.12598,-72.937504 41.80078,109.96875438 h 19.08985 L 869.95951,-109.97012 h -20.90625 l -21.35156,61.804692 c -3.64453,9.996094 -6.82031,19.078125 -9.31641,28.171875 h -0.67969 c -2.27343,-9.09375 -5.22656,-18.175781 -8.87109,-28.171875 l -21.57422,-61.804692 z m 209.02441,58.617192 c 0.23438,-2.039063 0.67969,-5.226563 0.67969,-9.316406 0,-20.214844 -9.53906,-51.796876 -45.43359,-51.796876 -32.03906,0 -51.57422,26.132813 -51.57422,59.296876 0,33.175781 20.21484,55.4414059 54.07031,55.4414059 17.4961,0 29.54297,-3.6328125 36.58594,-6.8203125 l -3.41016,-14.3085934 c -7.5,3.175781 -16.13672,5.671875 -30.44531,5.671875 -19.99219,0 -37.26562,-11.132813 -37.72266,-38.167969 z M 897.9058,-65.661522 c 1.58203,-13.863281 10.45312,-32.496094 30.66797,-32.496094 22.5,0 27.94922,19.769532 27.71484,32.496094 z m 0,0" style="fill:#c81939;fill-opacity:1;fill-rule:nonzero;stroke:none" aria-label="New Wave" transform="matrix(1.3333333,0,0,1.3333333,1589.2923,4224.8221)" />
      <path id="path6" d="m 0,0 v 65.435 c 0,25.446 -0.454,43.849 -1.59,63.162 l 0.682,0.226 C 6.816,112.237 17.041,94.743 27.719,77.703 L 76.34,0 H 96.334 V 153.134 H 77.703 V 89.063 c 0,-23.856 0.455,-42.487 2.273,-62.935 L 79.521,25.901 C 72.251,41.578 63.39,57.709 52.029,75.658 L 2.954,153.134 H -18.63 V 0 Z" style="fill:none;stroke:#c81939;stroke-width:8;stroke-linecap:butt;stroke-linejoin:miter;stroke-miterlimit:10;stroke-dasharray:none;stroke-opacity:1" transform="matrix(1.3333333,0,0,-1.3333333,1637.1556,4224.8221)" />
      <path id="path7" d="m 0,0 c 0.227,2.045 0.681,5.226 0.681,9.315 0,20.221 -9.542,51.802 -45.44,51.802 -32.036,0 -51.575,-26.128 -51.575,-59.3 0,-33.171 20.221,-55.437 54.074,-55.437 17.494,0 29.536,3.636 36.579,6.816 l -3.408,14.314 c -7.497,-3.181 -16.131,-5.68 -30.444,-5.68 -19.994,0 -37.262,11.133 -37.716,38.17 z m -77.021,14.313 c 1.589,13.86 10.451,32.491 30.671,32.491 22.494,0 27.947,-19.767 27.719,-32.491 z" style="fill:none;stroke:#c81939;stroke-width:8;stroke-linecap:butt;stroke-linejoin:miter;stroke-miterlimit:10;stroke-dasharray:none;stroke-opacity:1" transform="matrix(1.3333333,0,0,-1.3333333,1928.5775,4156.3585)" />
      <path id="path8" d="m 0,0 33.171,-109.966 h 18.177 l 17.721,52.257 c 3.863,11.814 7.271,23.174 9.997,36.352 h 0.455 c 2.726,-12.951 5.907,-23.856 9.769,-36.125 l 16.814,-52.484 h 18.175 L 159.723,0 h -19.767 l -15.677,-55.21 c -3.634,-12.951 -6.589,-24.538 -8.406,-35.671 h -0.682 c -2.499,11.133 -5.68,22.72 -9.769,35.898 L 88.382,0 H 71.568 L 53.619,-56.119 c -3.635,-11.815 -7.27,-23.629 -9.769,-34.762 h -0.682 c -2.045,11.36 -4.998,22.72 -8.179,34.989 L 20.448,0 Z" style="fill:none;stroke:#c81939;stroke-width:8;stroke-linecap:butt;stroke-linejoin:miter;stroke-miterlimit:10;stroke-dasharray:none;stroke-opacity:1" transform="matrix(1.3333333,0,0,-1.3333333,1945.8431,4078.2009)" />
      <path id="path9" d="m 0,0 21.812,79.748 c 5.68,19.767 9.087,34.762 11.814,49.984 h 0.455 c 2.045,-15.45 5.226,-30.445 9.996,-49.984 L 63.39,0 h 20.675 l 43.396,153.134 H 107.239 L 87.019,75.886 C 82.247,56.801 77.931,39.761 74.75,22.947 H 74.296 C 72.023,39.079 67.934,57.255 63.617,75.431 L 44.986,153.134 H 24.311 L 3.863,75.886 C -1.363,56.119 -6.134,37.942 -8.633,22.72 h -0.455 c -2.726,14.768 -6.815,33.853 -11.36,52.938 l -18.176,77.476 H -59.526 L -20.675,0 Z" style="fill:none;stroke:#c81939;stroke-width:8;stroke-linecap:butt;stroke-linejoin:miter;stroke-miterlimit:10;stroke-dasharray:none;stroke-opacity:1" transform="matrix(1.3333333,0,0,-1.3333333,2300.5761,4224.8221)" />
      <path id="path10" d="m 0,0 c -1.363,7.498 -1.818,16.812 -1.818,26.355 v 41.124 c 0,22.039 -8.179,44.986 -41.805,44.986 -13.859,0 -27.037,-3.862 -36.125,-9.77 l 4.544,-13.177 c 7.725,4.998 18.403,8.179 28.627,8.179 22.493,0 24.992,-16.359 24.992,-25.447 V 69.979 C -64.071,70.205 -87.7,55.664 -87.7,29.082 c 0,-15.904 11.36,-31.581 33.626,-31.581 15.677,0 27.491,7.725 33.626,16.358 h 0.681 L -18.177,0 Z m -21.13,37.034 c 0,-2.045 -0.455,-4.317 -1.136,-6.362 -3.181,-9.315 -12.269,-18.403 -26.583,-18.403 -10.224,0 -18.857,6.134 -18.857,19.085 0,21.357 24.765,25.219 46.576,24.765 z" style="fill:none;stroke:#c81939;stroke-width:8;stroke-linecap:butt;stroke-linejoin:miter;stroke-miterlimit:10;stroke-dasharray:none;stroke-opacity:1" transform="matrix(1.3333333,0,0,-1.3333333,2590.4876,4224.8221)" />
      <path id="path11" d="M 0,0 41.805,-109.966 H 60.89 L 104.058,0 H 83.155 L 61.799,-61.799 c -3.636,-9.997 -6.817,-19.085 -9.316,-28.173 h -0.681 c -2.273,9.088 -5.226,18.176 -8.862,28.173 L 21.356,0 Z" style="fill:none;stroke:#c81939;stroke-width:8;stroke-linecap:butt;stroke-linejoin:miter;stroke-miterlimit:10;stroke-dasharray:none;stroke-opacity:1" transform="matrix(1.3333333,0,0,-1.3333333,2610.4811,4078.2009)" />
      <path id="path12" d="m 0,0 c 0.227,2.045 0.682,5.226 0.682,9.315 0,20.221 -9.543,51.802 -45.441,51.802 -32.036,0 -51.575,-26.128 -51.575,-59.3 0,-33.171 20.221,-55.437 54.074,-55.437 17.494,0 29.536,3.636 36.579,6.816 l -3.408,14.314 c -7.497,-3.181 -16.131,-5.68 -30.444,-5.68 -19.994,0 -37.262,11.133 -37.716,38.17 z m -77.021,14.313 c 1.589,13.86 10.451,32.491 30.671,32.491 22.494,0 27.946,-19.767 27.719,-32.491 z" style="fill:none;stroke:#c81939;stroke-width:8;stroke-linecap:butt;stroke-linejoin:miter;stroke-miterlimit:10;stroke-dasharray:none;stroke-opacity:1" transform="matrix(1.3333333,0,0,-1.3333333,2889.1804,4156.3585)" />
      </g></svg>