<?xml version='1.0' encoding='utf-8'?>
<svg xmlns="http://www.w3.org/2000/svg" version="1.1" width="114.841" height="149.506" viewBox="2090.600 225.232 114.841 149.506"><defs id="defs1"><clipPath clipPathUnits="userSpaceOnUse" id="clipPath11">
      <path d="M -2297.4972,2808.5926 H 86.442877 V -561.79751 H -2297.4972 Z" id="path11" />
    </clipPath>
  </defs><g id="object"><path id="path5" d="m 0,0 c -0.739,-15.747 -2.511,-27.512 -9.472,-37.857 -6.146,-9.132 -14.294,-15.12 -25.561,-16.45 -7.817,-0.923 -14.847,0.674 -21.257,5.249 -4.633,3.305 -8.46,7.326 -11.68,12.013 -14.166,20.616 -10.659,55.944 2.578,72.144 9.036,11.058 20.192,15.014 33.803,12.945 8.652,-1.315 14.849,-6.656 19.906,-13.516 C -4.908,25.338 0.623,7.14 0,0" style="fill:#cf2727;fill-opacity:1;fill-rule:nonzero;stroke:none" transform="matrix(1.3333333,0,0,-1.3333333,2199.3732,295.994)" />
      </g></svg>