<?xml version='1.0' encoding='utf-8'?>
<svg xmlns="http://www.w3.org/2000/svg" version="1.1" width="437.719" height="1184.918" viewBox="1621.280 2617.590 437.719 1184.918"><g id="object"><path id="path10" d="m 0,0 c -1.289,0.058 -2.396,-0.39 -2.442,-1.765 -0.057,-1.669 1.328,-2.28 2.683,-2.662 1.479,-0.418 2.164,0.475 2.224,1.778 C 2.54,-1.025 1.676,-0.084 0,0 m -89.091,-3.124 c 1.334,4.029 0.221,6.928 -2.304,9.375 -0.279,0.27 -1.611,0.075 -1.75,-0.228 -1.55,-3.378 1.022,-5.701 2.333,-8.335 0.151,-0.302 0.76,-0.376 1.721,-0.812 M -270.12,227.671 c -1.075,-1.156 -3.136,-2.354 -3.394,-3.859 -0.554,-3.246 3.1,-3.158 4.878,-4.123 2.394,-1.301 2.401,1.396 2.394,2.857 -0.01,2.233 -0.95,4.096 -3.878,5.125 m 134.615,-436.26 c 2.689,0.279 5.499,1.492 6.516,4.568 0.423,1.279 -1.678,2.456 -2.993,1.933 -2.833,-1.126 -6.793,-1.01 -7.832,-4.492 -0.426,-1.427 2.158,-1.972 4.309,-2.009 m -20.01,4.635 c 1.442,0.036 3.328,0.911 2.585,2.242 -1.973,3.537 -4.193,7.26 -8.407,8.532 -1.531,0.461 -2.547,-1.217 -2.118,-2.747 1.131,-4.038 3.501,-7.024 7.94,-8.027 M -24.396,7.312 c -1.032,3.939 -4.311,6.277 -7.859,7.983 -1.84,0.885 -2.797,-1.051 -3.062,-2.822 -0.158,-1.054 8.603,-8.73 9.593,-8.413 1.488,0.475 1.187,1.788 1.328,3.252 m -187.033,-174.798 c 0.919,0.171 3.533,-0.943 4.565,1.562 1.077,2.613 -1.555,3.534 -2.968,4.94 -2.785,2.769 -5.564,5.546 -8.396,8.267 -1.11,1.065 -2.57,1.43 -3.811,0.44 -1.591,-1.27 -0.287,-2.495 0.474,-3.591 1.701,-2.451 3.494,-4.689 3.535,-8.043 0.04,-3.309 2.664,-4.016 6.601,-3.575 m 162.618,321.52 c -2.398,2.306 0.978,7.514 -3.078,8.865 -4.196,1.399 -3.493,-3.854 -5.408,-5.76 -0.5,-0.498 -1.031,-0.99 -1.625,-1.362 -2.779,-1.742 -2.836,-4.209 -1.621,-6.787 0.89,-1.889 2.789,-2.202 4.054,-0.725 2.132,2.489 7.988,-0.489 7.678,5.769 m 6.865,443.241 c -0.324,2.215 -1.33,3.45 -2.634,3.787 -5.758,1.489 -11.66,1.14 -17.464,0.455 -1.957,-0.23 -2.451,-2.366 -0.426,-3.574 3.35,-1.998 6.737,-4.604 10.401,-5.22 3.892,-0.655 6.163,4.314 10.123,4.552 M -253.838,224.371 c -2.915,0.662 -3.833,0.848 -4.739,1.079 -2.91,0.746 -3.176,-1.078 -3.004,-3.172 0.169,-2.039 1.584,-3.442 3.26,-2.16 3.934,3.007 4.818,0.476 6.327,-2.519 1.335,-2.65 4.251,-3.114 6.781,-2.027 2.391,1.028 4.362,3.278 4.241,5.938 -0.125,2.764 -3.221,3.073 -5.231,4.06 -3.259,1.6 -6.318,-1.618 -7.635,-1.199 m 52.729,344.139 c 5.92,8.462 0.315,21.969 -8.704,22.979 -1.207,0.136 -2.705,-0.698 -3.783,-1.477 -1.249,-0.903 -0.445,-2.102 0.252,-3.067 1.233,-1.709 2.182,-4.361 3.821,-4.91 6.571,-2.198 8.4,-7.037 8.414,-13.525 M -19.286,-37.387 c 4.61,-0.382 9.575,2.3 12.693,8.431 0.873,1.716 4.21,2.357 3.053,4.94 -1.237,2.762 -4.18,1.261 -6.381,1.498 -2.545,0.275 -4.343,-0.883 -6.047,-2.884 -1.907,-2.24 -2.825,-5.939 -7.328,-5.218 -1.16,0.186 -2.565,-2.624 -1.925,-4.724 0.558,-1.832 1.951,-2.555 5.935,-2.043 m -148.091,-114.361 c 1.815,0.565 4.262,-0.896 5.692,1.357 0.908,1.43 0.043,3.128 -1.17,3.612 -4.078,1.627 -6.961,3.705 -6.245,8.797 0.1,0.72 -1.847,2.242 -3.053,2.533 -3.621,0.874 -7.333,1.415 -11.035,1.888 -1.278,0.164 -3.161,0.465 -3.503,-1.363 -0.33,-1.759 1.396,-1.999 2.685,-2.567 4.676,-2.056 8.828,-4.644 7.3,-10.821 -0.577,-2.332 -0.173,-2.797 2.278,-2.591 2.263,0.191 4.601,-0.515 7.051,-0.845 m -22.355,-19.575 c 2.481,-0.589 4.054,0.79 5.303,2.623 1.316,1.93 0.227,3.486 -0.86,5.147 -1.231,1.88 -2.906,2.881 -4.882,3.831 -1.877,0.903 -3.887,2.459 -1.963,4.988 4.036,5.307 -0.551,9.183 -2.895,12.541 -1.712,2.452 -6.116,3.62 -8.293,-1.411 -1.263,-2.919 -1.01,-6.038 -1.82,-8.919 -1.514,-5.383 -2.436,-9.521 5.704,-8.092 2.082,0.366 5.253,-0.146 5.057,-3.398 -0.196,-3.246 -2.885,-1.979 -4.912,-2.001 -1.603,-0.018 -4.448,1.217 -4.407,-1.752 0.038,-2.676 2.179,-4.376 4.982,-3.467 3.086,1.002 5.99,1.145 8.986,-0.09 m -59.22,400.356 c 4.905,6.201 4.996,11.399 -1.601,16.147 -1.884,1.356 -4.229,4.42 -2.357,6.817 4.541,5.814 -4.659,11.691 0.479,17.271 0.059,0.064 -1.261,1.951 -1.73,1.865 -8.206,-1.517 -9.229,4.631 -11.442,10.038 -0.949,2.319 -3.767,3.911 -6.575,2.867 -2.684,-0.998 -4.153,-3.184 -2.972,-6.25 0.831,-2.157 1.871,-5.002 1.759,-6.559 -0.473,-6.611 6.249,-10.091 6.138,-16.326 -0.076,-4.304 1.252,-7.814 6.382,-8.751 2.46,-0.449 4.515,-3.126 4.243,-5.126 -0.915,-6.749 5.006,-8.192 7.676,-11.993 M -50.005,-10.714 c -0.012,4.725 -5.755,8.911 -10.688,7.473 -6.332,-1.845 -8.312,0.366 -7.88,6.375 0.097,1.359 -0.256,2.804 -0.665,4.128 -0.341,1.105 -1.068,2.362 -2.43,2.095 -0.729,-0.143 -1.833,-1.212 -1.824,-1.848 0.138,-8.766 -7.036,-11.889 -12.467,-16.325 -1.398,-1.14 -2.547,-2.221 -1.54,-4.109 2.632,-4.937 5.26,-9.877 8.004,-14.751 1.935,-3.437 4.402,-5.067 8.681,-3.266 6.424,2.703 13.063,4.903 19.652,7.198 1.545,0.538 3.073,1.587 2.135,2.86 -2.6,3.527 -1.92,7.063 -0.978,10.17 m -169.111,-122.854 c -0.623,1.768 -1.883,1.826 -3.376,1.258 -3.619,0.722 -6.008,-1.142 -8.013,-3.811 -0.538,-0.157 -1.076,-0.314 -1.613,-0.471 0.25,-0.417 0.501,-0.833 0.751,-1.249 -0.101,-0.883 -0.202,-1.766 -0.304,-2.649 -3.109,-0.104 -5.781,-2.142 -3.676,-4.552 2.493,-2.855 2.381,-8.803 8.23,-8.242 0.908,0.087 2.203,0.901 1.715,1.743 -2.325,4.007 1.902,6.787 1.694,10.334 0.8,-0.058 1.599,-0.116 2.4,-0.174 2.639,0.334 6.077,-3.757 7.762,0.569 1.146,2.939 -0.022,6.146 -4.434,5.95 -0.378,0.431 -0.757,0.862 -1.136,1.294 m -78.691,183.539 c 0.384,2.369 0.768,4.738 1.153,7.108 1.85,2.09 7.009,3.324 5.604,5.67 -2.518,4.204 -0.14,10.653 -6.076,13.028 -0.783,1.848 -1.319,3.715 -0.468,5.697 3.646,0.283 2.726,3.096 3.004,5.315 0.923,7.367 -1.644,14.473 -1.423,21.839 0.35,11.626 0.052,23.272 0.013,34.909 -0.008,2.127 0.244,4.462 -2.898,4.664 -0.193,0.932 -0.387,1.863 -0.58,2.795 1.871,0.047 3.229,0.733 3.298,2.832 0.07,2.141 -1.088,2.951 -3.125,2.7 -0.085,9.039 -0.17,18.078 -0.255,27.117 3.418,3.896 3.343,7.772 -0.065,11.63 -1.838,30.709 -0.887,61.456 -1.249,92.185 3.484,2.516 3.405,6.316 3.616,10.014 0.116,2.033 0.821,3.725 3.033,4.145 1.833,0.348 4.293,0.822 5.091,-1.133 3.445,-8.44 7.229,-5.795 12.261,-1.281 2.686,2.41 6.556,4.935 10.785,2.341 1.779,-1.091 3.399,-1.422 5.233,-0.402 2.515,0.198 3.925,-2.138 6.122,-2.669 0.336,-0.544 0.709,-1.578 1.003,-1.556 2.778,0.205 2.918,2.544 3.209,4.514 0.31,2.094 0.365,4.429 -2.015,5.433 -1.865,0.786 -4.13,1.671 -5.011,-1.469 -0.868,-0.199 -1.737,-0.398 -2.605,-0.596 -1.018,0.477 -2.014,1.314 -3.057,1.376 -8.822,0.527 -17.65,1.005 -26.483,1.302 -4.704,0.157 -8.556,1.56 -10.972,5.843 -0.489,4.656 -0.977,9.313 -1.465,13.97 1.999,0.974 2.111,1.994 0.075,3.066 -0.059,4.656 -0.118,9.312 -0.176,13.968 2.674,1.625 2.679,3.145 -0.176,4.555 0.052,6.546 0.104,13.092 0.157,19.638 2.672,4.205 3.886,8.466 0.504,12.906 -0.181,4.229 -0.363,8.457 -0.544,12.686 2.107,0.91 2.264,1.935 0.183,3.092 -0.077,6.551 -0.155,13.102 -0.232,19.653 2.224,1.015 2.346,2.062 0.047,3.144 -0.041,1.797 -0.082,3.594 -0.122,5.392 2.183,1.038 2.29,2.079 0.005,3.124 0.21,3.268 -1.737,6.46 -0.347,9.77 1.149,0.48 1.186,0.99 0.041,1.531 -0.28,1.449 -0.56,2.897 -0.839,4.345 1.21,0.403 1.517,1.156 0.883,2.273 0.137,1.987 0.274,3.974 0.411,5.961 3.452,3.765 3.493,18.003 0.072,24.445 -0.035,2.281 -0.069,4.562 -0.103,6.843 2.046,0.97 2.192,2.012 0.122,3.14 0.013,2.415 0.027,4.831 0.042,7.246 2.264,-0.424 4.313,-0.726 3.608,2.821 -0.541,2.723 -0.923,5.456 -2.783,7.681 0.135,1.1 0.271,2.201 0.407,3.302 2.089,0.981 2.205,2.013 0.08,3.103 0.325,2.787 -0.513,5.693 0.86,8.373 0.932,0.436 1.186,1.134 0.803,2.079 -0.224,3.622 0.363,7.146 1.291,10.628 1.744,5.979 3.492,11.957 5.15,17.96 0.013,0.047 -1.198,0.433 -1.838,0.66 0.154,0.714 0.307,1.428 0.461,2.141 5.961,1.421 4.877,5.976 4.539,10.2 1.636,5.587 2.891,11.316 6.07,16.329 3.411,-0.116 3.473,1.983 2.956,4.466 -0.072,1.948 1.257,2.97 2.622,3.969 1.641,0.545 1.962,1.631 1.283,3.127 0,0 0.098,0.135 0.099,0.134 5.147,0.25 4.131,4.135 4.315,7.313 -0.109,0.387 0.035,0.614 0.432,0.68 3.646,0.759 4.434,3.069 3.444,6.344 0,0 0.232,0.203 0.233,0.202 5.836,-0.68 7.986,2.949 9.104,7.786 0.462,0.457 0.924,0.914 1.386,1.372 3.589,-0.236 6.072,0.674 5.219,5.038 -0.02,0.375 0.157,0.57 0.532,0.588 1.766,-0.116 2.829,0.629 3.006,2.457 0.267,0.36 0.624,0.533 1.072,0.517 0.902,0.14 1.918,0.057 2.687,0.454 14.075,7.263 27.316,16.212 42.61,21.009 1.618,0.508 1.947,1.861 2.034,3.333 1.151,0.359 2.303,0.717 3.454,1.074 8.732,-0.558 17.453,-1.065 24.972,4.749 2.305,0.146 4.609,0.292 6.914,0.438 2.364,-2.158 4.759,-2.277 7.19,-0.111 1.386,0.048 2.772,0.095 4.159,0.143 3.327,-4.111 6.679,-4.141 10.057,-0.063 0.883,-0.103 1.766,-0.205 2.649,-0.307 1.58,-3.198 3.106,-3.177 4.581,0.074 0.87,0.071 1.74,0.141 2.611,0.211 5.695,-4.6 12.251,-3.108 18.662,-2.638 1.335,-0.209 2.671,-0.419 4.006,-0.628 1.821,-2.808 4.085,-4.131 7.326,-2.187 2.581,0.151 4.847,-0.681 6.888,-2.212 5.285,-4.945 12.508,-5.164 18.781,-7.703 l -0.01,0.01 c 0.434,-3.61 2.707,-3.01 5.066,-2.212 0.623,-0.359 1.246,-0.718 1.87,-1.076 0.188,-0.833 0.706,-1.186 1.552,-1.063 0.5,0.058 0.906,-0.112 1.218,-0.508 0.406,-1.992 1.575,-2.564 3.436,-1.848 0,0 0.068,-0.068 0.067,-0.069 -0.545,-2.256 0.272,-3.35 2.653,-3.11 1.324,-0.501 2.648,-1.002 3.972,-1.503 0.102,-2.836 1.395,-4.456 4.409,-4.32 0.385,-0.029 0.545,-0.234 0.48,-0.616 0.858,-7.544 5.63,-11.513 14.236,-11.841 0.691,-0.678 1.382,-1.355 2.073,-2.033 -0.412,-3.986 0.884,-7.095 3.73,-10.118 3.623,-3.846 2.975,-10.759 -1.096,-11.928 -3.566,-1.023 -4.695,-3.681 -6.681,-7.632 -2.399,11.411 -13.068,8.62 -18.449,13.885 -0.763,0.745 -2.493,0.007 -2.762,-1.323 -0.816,-4.043 -7.129,-9.111 1.942,-11.507 1.323,-0.35 2.359,-1.74 1.726,-2.59 -4.342,-5.829 1.953,-11.294 0.373,-16.952 -4.829,-0.303 -5.709,2.691 -5.967,6.667 -0.137,2.12 -1.59,4.417 -3.978,3.93 -2.474,-0.504 -1.413,-3.085 -1.166,-4.754 0.296,-1.991 1.431,-3.655 -0.001,-5.915 -1.592,-2.513 0.4,-4.198 2.756,-4.073 3.334,0.177 5.501,-2.215 8.363,-2.929 -0.784,-3.804 -3.903,-2.65 -6.3,-2.903 -2.174,-0.23 -4.456,-1.392 -3.192,-3.389 3.697,-5.841 4.296,-13.43 10.483,-18.157 0.226,5.222 8.091,4.309 7.761,10.006 -0.361,6.234 3.447,6.196 8.272,5.441 -3.42,-6.13 -0.455,-9.954 4.002,-13.909 2.458,-2.182 4.749,2.4 6.82,-0.989 2.925,-4.788 7.028,-2.184 10.71,-0.844 1.723,0.627 2.846,1.789 1.682,3.819 -0.898,1.566 -1.913,2.683 -3.956,1.602 -6.329,-3.349 -7.642,0.04 -8.111,5.641 -0.347,4.154 -0.538,9.306 -8.053,7.795 3.602,2.308 3.576,5.441 4.396,8.373 0.917,3.279 3.157,5.932 7.167,5.598 1.953,-0.162 5.543,0.725 5.305,-1.92 -0.64,-7.1 4.028,-5.533 7.236,-4.525 4.663,1.464 6.088,-0.421 6.618,-4.399 0.668,-5.012 2.496,-9.481 6.107,-13.122 0.033,-0.801 0.066,-1.601 0.099,-2.402 -2.281,-1.48 -2.146,-2.999 -0.073,-4.549 0.157,-0.677 0.315,-1.354 0.471,-2.031 -0.833,-1.778 -1.296,-3.512 0.585,-4.97 0.139,-0.878 0.278,-1.757 0.417,-2.636 -0.71,-2.329 -1.3,-4.629 1.422,-6.166 0.015,-0.802 0.03,-1.604 0.045,-2.407 -1.912,-1.015 -1.978,-2.062 -0.053,-3.144 0.106,-1.164 0.213,-2.329 0.318,-3.494 -0.821,-2.15 -1.284,-4.278 0.394,-6.27 0.053,-1.482 0.106,-2.964 0.159,-4.446 C 0.76,493.4 0.857,491.91 3.03,490.74 c 0.714,-1.272 0.697,-2.551 0.03,-3.834 -4.091,-5.398 -0.358,-10.522 0.554,-15.744 0.309,-1.942 0.21,-3.833 -0.708,-5.62 -3.375,-6.215 -1.483,-12.461 -0.103,-18.703 0.092,-0.761 0.184,-1.522 0.276,-2.284 -1.876,-9.995 -1.363,-20.3 -1.196,-30.201 0.17,-10.152 -0.309,-20.437 0.663,-30.552 0.39,-4.052 -2.758,-9.285 2.49,-12.47 0.023,-1.314 0.045,-2.629 0.067,-3.944 -4.967,-2.898 -2.065,-7.614 -2.371,-11.43 -0.488,-6.086 0.656,-12.858 -9.231,-10.191 -0.867,0.234 -1.982,0.174 -2.809,-0.167 -12.232,-5.049 -25.061,-1.927 -37.591,-2.797 -12.18,-0.845 -24.278,4.591 -36.558,0.242 -10.223,-3.621 -19.173,2.111 -28.547,4.537 -1.305,0.338 -1.877,1.533 -1.836,2.748 0.207,6.206 0.141,12.302 -0.97,18.528 -1.074,6.017 4.702,7.068 8.874,8.92 2.031,0.901 3.994,2.142 2.91,4.811 -0.889,2.188 -2.709,1.191 -4.275,0.761 -5.365,-1.471 -6.778,0.083 -7.608,6.064 -1.669,12.04 2.939,23.882 -0.108,35.886 -0.895,3.525 2.33,3.243 4.74,1.785 1.038,-0.627 2.265,-1.365 2.945,0.132 0.446,0.98 0.395,2.327 0.179,3.435 -0.388,1.991 -2.578,1.807 -3.831,2.784 -3.626,2.827 -4.316,9.519 -1.059,9.835 7.028,0.68 1.948,4.403 1.099,4.976 -6.644,4.484 -7.649,11.517 -4.053,16.777 3.934,5.754 6.477,9.476 -0.216,14.24 -0.245,0.174 -0.169,0.916 -0.114,1.377 1.327,11.118 0.397,22.118 -1.358,33.129 -0.872,5.475 2.832,11.36 1.783,15.796 -0.907,3.833 -8.976,5.427 -11.88,9.453 -5.025,6.964 -12.309,7.359 -19.21,8.505 -6.433,1.068 -14.131,-1.123 -17.058,-5.999 -3.02,-5.03 -6.433,-10.474 -8.103,-16.641 -2.871,-10.597 -1.557,-21.095 -1.049,-31.69 0.248,-5.183 1.815,-11.011 -6.338,-14.027 5.406,-1.193 6.398,-3.866 6.624,-7.62 0.463,-7.677 1.616,-15.351 -4.092,-21.812 -0.653,-0.739 -1.461,-1.636 -0.259,-2.259 6.282,-3.257 3.698,-9.279 4.027,-14.028 0.549,-7.94 -0.515,-15.97 0.703,-23.929 2.129,-13.905 1.58,-28.066 1.554,-41.936 -0.018,-9.588 -0.581,-19.65 -0.448,-29.258 0.199,-14.379 -0.284,-28.825 0.726,-43.283 0.825,-11.814 0.693,-23.898 0.692,-35.849 -0.001,-21.042 -0.056,-42.043 0.916,-63.091 1.005,-21.753 0.251,-43.586 0.328,-65.383 0.009,-2.449 -1.01,-5.38 2.271,-6.794 0.647,-2.762 0.629,-5.509 -0.194,-8.237 -3.925,-2.956 -4.866,-7.036 -2.646,-11.042 1.88,-3.393 1.644,-6.728 1.893,-10.221 0.243,-3.418 -1.208,-7.117 1.428,-10.206 -0.058,-0.928 -0.116,-1.856 -0.175,-2.785 -5.714,-4.777 -1.046,-9.504 0.071,-14.247 -0.044,-0.937 -0.087,-1.874 -0.13,-2.811 -2.47,-0.424 -1.985,-2.009 -1.625,-3.753 0.807,-3.91 0.558,-7.829 0.095,-11.893 -4.055,1.338 -1.131,6.026 -4.225,7.607 -3.372,-3.979 -1.664,-7.994 0.79,-10.783 3.708,-4.215 3.926,-8.744 3.807,-13.811 -0.512,-21.784 -1.995,-43.633 -0.85,-65.338 0.792,-15.029 1.42,-30.147 2.995,-45.139 0.515,-4.91 1.185,-10.559 4.565,-14.457 7.932,-9.145 17.702,-13.331 30.22,-10.286 10.388,2.526 14.567,9.905 17.3,19.023 2.161,7.212 0.232,14.64 1.224,21.861 1.282,9.337 -1.338,19.359 5.08,27.9 1.411,1.877 2.146,5.917 0.071,7.338 -7.548,5.172 -2.433,11.791 -4.302,19.491 2.166,-2.029 2.796,-2.387 3.087,-2.928 2.704,-5.033 7.108,-3.464 10.403,-1.778 4.491,2.297 0.719,5.841 -0.769,7.562 -3.941,4.561 -2.061,9.085 -0.655,13.39 1.911,5.848 -0.172,6.963 -5.256,5.485 -5.159,-1.5 -5.375,0.924 -3.872,4.716 0.597,1.508 1.485,2.9 2.219,4.356 2.13,4.224 9.747,5.26 7.034,12.451 -0.463,1.227 1.828,1.676 3.23,2.049 9.336,2.485 12.142,7.653 9.751,16.67 -0.682,2.573 -3.128,6.623 3.283,6.893 2.655,0.112 3.105,5.85 1.951,5.848 -5.714,-0.009 -6.978,9.063 -13.802,6.167 -1.983,-0.841 -4.463,0.479 -4.493,3.186 -0.03,2.639 2.555,2.808 4.235,2.651 6.603,-0.615 14.232,3.237 18.977,-5.739 1.494,-2.828 4.018,-5.302 4.811,-8.755 0.973,-4.242 -1.899,-6.588 -4.945,-8.932 2.332,-1.202 4.043,-1.759 6.013,-1.772 6.736,-0.044 14.194,4.968 19.918,-2.743 0.241,-0.325 1.436,-0.285 1.957,0.002 1.822,1.004 1.386,2.897 1.276,4.455 -0.289,4.065 -2.245,7.133 -5.99,8.956 -1.683,0.819 -3.11,1.162 -3.843,-1.209 -0.74,-2.395 -2.501,-3.399 -4.936,-2.927 -2.378,0.461 -2.649,2.746 -2.912,4.437 -0.665,4.273 -1.888,7.615 -6.832,8.594 -2.245,0.444 -2.567,2.596 -1.47,4.595 1.266,2.306 1.256,3.678 -1.066,5.843 -1.27,1.184 -2.77,4.813 -1.276,7.709 1.877,0.387 3.809,0.812 3.503,3.358 -0.116,0.962 -1.064,1.775 -1.996,1.426 -2.445,-0.916 -1.092,-3.174 -1.448,-4.839 -4.876,1.19 -9.078,1.6 -12.348,-3.866 -1.896,-3.17 -21.001,-4.887 -24.064,-3.123 -0.201,0.115 -0.551,0.169 -0.599,0.323 -2.457,7.872 -5.005,0.643 -6.963,-0.257 -2.445,-1.125 -16.515,-2.399 -18.38,-0.767 -0.348,0.306 -0.941,0.927 -0.87,1.031 3.513,5.211 -2.502,8.479 -2.711,13.291 -0.525,12.125 -0.695,24.28 -1.429,36.382 -1.137,18.721 -0.42,37.436 -0.986,56.144 -0.237,7.839 2.678,10.892 10.756,10.245 7.038,-0.565 14.187,-0.594 21.052,-0.279 22.109,1.012 44.118,-0.425 66.166,-0.873 4.791,-0.097 8.181,-1.039 6.394,-7.011 -0.554,-1.851 0.213,-3.414 2.056,-3.929 2.23,-0.623 3.055,0.929 2.983,2.804 -0.158,4.084 2.971,4.584 5.705,6.088 8.364,4.601 17.459,1.341 26.134,2.756 4.487,0.731 8.049,-2.668 6.384,-8.354 -0.483,-1.65 -0.29,-3.202 -0.015,-4.874 1.345,-8.178 -0.534,-16.532 1.455,-24.735 0.872,-3.6 -3.393,-4.066 -4.982,-6.229 -3.592,-4.889 4.62,-2.293 3.807,-6.216 -1.885,-9.11 1.805,-18.107 0.959,-27.501 C 5.942,116.33 6.203,109.816 6.245,103.518 6.326,91.333 5.956,79.088 7.061,66.985 7.925,57.515 4.879,48.162 7.172,38.779 9.486,29.314 7.102,19.785 7.378,10.283 7.578,3.408 3.72,-4.094 10.818,-9.769 c 0.065,-0.868 0.13,-1.736 0.195,-2.604 -3.985,-1.779 -2.223,-5.274 -2.171,-8.05 0.083,-4.422 1.056,-8.835 1.038,-13.25 -0.12,-30.104 0.319,-60.195 1.642,-90.271 0.106,-2.394 -1.134,-5.398 2.37,-6.629 0.034,-0.917 0.067,-1.833 0.101,-2.749 -3.663,-1.97 -3.697,-3.879 0.098,-5.722 -0.045,-0.937 -0.09,-1.874 -0.135,-2.812 -2.172,-4.318 -1.868,-8.596 0.2,-12.848 -0.03,-0.926 -0.059,-1.852 -0.088,-2.778 -3.342,-1.427 -3.34,-2.882 -0.036,-4.364 -0.011,-1.388 -0.022,-2.776 -0.033,-4.163 -2.082,-0.42 -2.762,-2.057 -2.401,-3.732 2.027,-9.401 -0.4,-18.819 0.257,-28.13 0.399,-5.637 -1.971,-5.886 -6.082,-6.943 -5.837,-1.5 -11.185,1.284 -17.065,0.469 -12.341,-1.711 -24.868,-1.568 -37.315,0.199 -2.013,0.286 -3.968,-0.065 -4.088,2.521 -0.114,2.454 -1.227,5.293 1.711,7.051 1.499,0.897 3.762,0.764 4.263,3.093 -8.431,2.142 -8.441,2.139 -10.974,12.046 -0.876,3.429 -1.407,6.974 -2.586,10.292 -1.89,5.317 -2.199,11.273 -5.72,15.897 -1.472,1.933 -3.967,5.848 -6.527,1.837 -4.95,-7.755 -12.269,-14.215 -13.847,-23.927 -7.176,-13.225 -19.059,-21.476 -31.171,-29.485 -3.839,-0.456 -8.659,0.746 -9.127,-5.404 l -0.307,-0.381 c 0,0 -0.485,0.07 -0.485,0.069 -3.438,0.292 -7.227,1.176 -7.257,-4.292 0,0 -0.11,-0.104 -0.11,-0.104 -3.978,0.602 -8.892,1.949 -11.68,-0.463 -4.202,-3.635 -8.533,-3.26 -13.153,-3.372 -2.594,-0.063 -5.188,-0.135 -7.781,-0.232 -10.735,-0.398 -21.408,0.155 -31.906,2.521 -1.842,0.415 -4.873,0.447 -4.698,3.289 0.152,2.465 3.042,2.108 4.619,2.235 8.001,0.645 15.397,3.782 23.187,5.253 6.087,1.149 7.48,4.254 4.483,10.03 -3.416,-5.643 -10.08,-8.659 -14.449,-6.476 -6.192,3.095 -8.622,1.157 -12.77,-2.559 -6.308,-5.65 -16.903,-4.022 -19.236,2.169 l 0.449,-0.514 c 0,0 -0.467,0.499 -0.467,0.499 2.205,-0.543 3.738,0.747 2.803,2.507 -3.647,6.865 -5.895,15.182 -13.206,19.008 -5.238,2.742 -6.499,6.338 -6.071,11.347 0.237,2.78 1.101,5.505 1.373,8.285 0.185,1.889 -0.358,4.645 -2.9,2.523 -7.32,-6.109 -6.169,3.073 -5.781,3.919 2.649,5.776 -1.358,10.702 -1.308,16.024 0.454,0.46 0.908,0.919 1.362,1.379 6.188,6.566 13.127,12.5 16.401,21.373 1.541,4.176 3.407,8.244 6.373,11.769 2.112,2.512 4.51,5.94 0.209,8.317 -3.655,2.02 -6.748,-0.892 -7.92,-3.847 -1.644,-4.142 -4.434,-7.637 -5.61,-12.102 -1.349,-5.121 -5.96,-10.228 -10.112,-10.818 -6.952,-0.988 -7.839,-4.41 -8.183,-9.723 -0.088,-1.36 -0.819,-2.699 -1.357,-4.005 -0.586,-1.419 -1.678,-2.369 -3.26,-2.216 -1.33,0.129 -1.848,1.203 -2.126,2.457 -1.25,5.621 -5.55,6.757 -10.431,7.003 -0.388,0.384 -0.776,0.768 -1.165,1.152 -0.35,3.626 -1.753,4.052 -4.177,1.376 -0.827,0.034 -1.654,0.068 -2.483,0.101 -3.799,7.003 -10.385,11.124 -16.388,15.848 -1.202,0.67 -1.51,1.707 -1.224,2.988 2.51,7.246 -0.231,14.479 -0.312,21.711 -0.029,2.607 0.458,6.269 -2.507,8.394 -0.062,7.028 -0.124,14.056 -0.186,21.084 5.96,5.887 2.67,11.613 -0.302,17.344 -1.421,2.707 -1.405,5.497 -0.489,8.341 3.991,1.987 3.2,4.546 0.872,7.289 -0.619,2.257 -1.417,4.499 -0.613,6.883 2.045,2.174 6,4.116 0.863,7.155 -0.005,5.256 -2.446,10.497 -0.09,15.766 3.566,2.823 2.777,9.295 -1.536,12.581 0.091,1.488 0.181,2.976 0.272,4.465 4.532,3.163 4.555,6.497 0.376,9.989 -1.28,4.246 0.932,8.361 0.469,12.576 2.953,2.376 1.503,3.506 -1.209,4.281" style="fill:#08282e;fill-opacity:1;fill-rule:nonzero;stroke:none" transform="matrix(1.3333333,0,0,-1.3333333,2032.7957,3498.8181)" />
      <path id="path27" d="m 0,0 c -7.098,5.674 -3.24,13.177 -3.44,20.052 -0.276,9.501 2.108,19.031 -0.206,28.496 -2.293,9.383 0.754,18.735 -0.111,28.206 -1.105,12.103 -0.735,24.348 -0.816,36.533 -0.042,6.298 -0.302,12.811 0.241,18.844 0.845,9.395 -2.845,18.392 -0.96,27.502 0.813,3.923 -7.399,1.326 -3.807,6.216 1.589,2.163 5.854,2.629 4.982,6.229 -1.989,8.202 -0.11,16.557 -1.455,24.735 -0.274,1.671 -0.468,3.224 0.015,4.874 1.665,5.686 -1.897,9.085 -6.384,8.354 -8.675,-1.415 -17.77,1.845 -26.134,-2.756 -2.734,-1.504 -5.863,-2.004 -5.705,-6.089 0.072,-1.874 -0.753,-3.426 -2.983,-2.803 -1.843,0.515 -2.609,2.078 -2.056,3.929 1.787,5.972 -1.602,6.914 -6.393,7.011 -22.049,0.448 -44.058,1.885 -66.167,0.873 -6.865,-0.315 -14.014,-0.286 -21.052,0.279 -8.078,0.647 -10.993,-2.407 -10.756,-10.245 0.566,-18.709 -0.151,-37.424 0.986,-56.144 0.734,-12.103 0.904,-24.257 1.43,-36.382 0.208,-4.812 6.224,-8.081 2.71,-13.291 -0.071,-0.104 0.522,-0.726 0.87,-1.031 1.865,-1.632 15.936,-0.358 18.38,0.767 1.958,0.9 4.506,8.128 6.963,0.257 0.048,-0.155 0.398,-0.208 0.599,-0.323 3.063,-1.764 22.168,-0.047 24.064,3.122 3.27,5.467 7.472,5.057 12.348,3.867 l -0.059,0.055 c -1.494,-2.896 0.006,-6.525 1.276,-7.709 2.322,-2.165 2.332,-3.538 1.066,-5.843 -1.097,-1.999 -0.775,-4.151 1.471,-4.595 4.944,-0.98 6.166,-4.321 6.831,-8.594 0.264,-1.691 0.534,-3.976 2.912,-4.437 2.435,-0.472 4.196,0.531 4.936,2.927 0.733,2.371 2.16,2.028 3.843,1.209 3.745,-1.824 5.701,-4.891 5.99,-8.956 0.11,-1.559 0.546,-3.451 -1.276,-4.456 -0.521,-0.287 -1.716,-0.326 -1.957,-10e-4 -5.723,7.711 -13.182,2.699 -19.918,2.743 -1.97,0.013 -3.68,0.57 -6.013,1.771 3.046,2.345 5.918,4.691 4.945,8.933 -0.792,3.453 -3.317,5.927 -4.811,8.754 -4.745,8.977 -12.374,5.125 -18.977,5.74 -1.68,0.157 -4.265,-0.012 -4.235,-2.651 0.03,-2.707 2.51,-4.027 4.493,-3.186 6.824,2.895 8.089,-6.176 13.802,-6.167 1.154,0.002 0.704,-5.737 -1.951,-5.848 -6.411,-0.27 -3.965,-4.32 -3.282,-6.893 2.39,-9.017 -0.416,-14.185 -9.752,-16.67 -1.402,-0.374 -3.693,-0.822 -3.23,-2.05 2.713,-7.19 -4.903,-8.226 -7.034,-12.45 -0.734,-1.456 -1.622,-2.848 -2.219,-4.357 -1.502,-3.791 -1.287,-6.215 3.872,-4.715 5.084,1.478 7.167,0.363 5.256,-5.486 -1.406,-4.304 -3.286,-8.828 0.655,-13.389 1.488,-1.721 5.26,-5.265 0.769,-7.563 -3.295,-1.685 -7.699,-3.254 -10.403,1.779 -0.29,0.541 -0.921,0.899 -3.087,2.928 1.869,-7.7 -3.245,-14.319 4.302,-19.491 2.075,-1.421 1.34,-5.461 -0.071,-7.338 -6.418,-8.541 -3.798,-18.563 -5.08,-27.9 -0.991,-7.221 0.937,-14.65 -1.224,-21.861 -2.732,-9.118 -6.912,-16.497 -17.3,-19.024 -12.518,-3.044 -22.288,1.141 -30.219,10.287 -3.381,3.897 -4.05,9.547 -4.566,14.457 -1.575,14.991 -2.202,30.11 -2.995,45.138 -1.144,21.706 0.338,43.555 0.85,65.339 0.119,5.067 -0.099,9.595 -3.807,13.811 -2.454,2.789 -4.162,6.804 -0.79,10.783 3.094,-1.582 0.17,-6.27 4.225,-7.607 0.463,4.064 0.712,7.983 -0.095,11.892 -0.359,1.745 -0.845,3.329 1.625,3.754 3.62,-7.22 1.125,-14.937 1.476,-22.368 0.678,-14.372 0.118,-28.808 -0.104,-43.215 -0.26,-16.951 -0.001,-33.873 1.32,-50.786 0.569,-7.282 0.622,-14.612 0.705,-21.923 0.189,-16.653 10.507,-25.54 26.077,-26.596 11.113,-0.754 18.322,6.643 20.807,18.911 2.004,9.897 0.375,19.838 1.31,29.716 1.893,19.989 0.144,40.045 0.956,60.091 0.516,12.726 -0.085,25.785 -0.148,38.634 -0.042,8.66 -2.242,17.563 0.677,26.387 1.376,4.159 -2.262,6.293 -5.965,4.972 -5.936,-2.117 -11.502,2.215 -17.753,-0.173 -3.321,-1.269 -5.667,3.94 -6.895,7.708 -3.069,9.411 -1.74,19.242 -2.132,28.774 -1.048,25.496 -0.415,51.058 -0.701,76.59 -0.125,11.126 1.197,12.641 12.377,12.779 33.995,0.42 67.982,0.689 101.976,-0.484 10.323,-0.356 20.695,0.617 31.042,1.041 6.896,0.282 8.819,-1.724 8.902,-8.596 0.474,-39.499 0.611,-79.011 1.787,-118.491 C 0.172,69.423 0.111,51.744 0.532,34.07 0.803,22.675 -0.29,11.359 0,0" style="fill:#494f57;fill-opacity:1;fill-rule:nonzero;stroke:none" transform="matrix(1.3333333,0,0,-1.3333333,2047.2196,3511.8432)" />
      <path id="path32" d="m 0,0 c -3.281,1.413 -2.263,4.345 -2.271,6.794 -0.077,21.797 0.677,43.63 -0.328,65.383 -0.972,21.048 -0.917,42.049 -0.916,63.091 0.001,11.95 0.133,24.034 -0.692,35.848 -1.01,14.458 -0.527,28.905 -0.726,43.284 -0.133,9.607 0.43,19.669 0.448,29.257 0.026,13.87 0.575,28.031 -1.554,41.937 -1.218,7.958 -0.154,15.989 -0.703,23.929 -0.329,4.749 2.254,10.771 -4.027,14.027 -1.202,0.623 -0.395,1.521 0.259,2.26 5.708,6.461 4.555,14.135 4.092,21.811 -0.226,3.755 -1.218,6.428 -6.624,7.62 8.152,3.017 6.586,8.845 6.338,14.028 -0.508,10.594 -1.822,21.092 1.049,31.689 1.67,6.167 5.083,11.611 8.103,16.641 2.927,4.877 10.625,7.068 17.058,6 6.901,-1.147 14.185,-1.541 19.21,-8.506 2.904,-4.025 10.973,-5.62 11.879,-9.453 1.05,-4.436 -2.654,-10.321 -1.782,-15.796 1.755,-11.01 2.685,-22.01 1.358,-33.128 -0.055,-0.462 -0.131,-1.203 0.114,-1.378 6.693,-4.763 4.15,-8.485 0.216,-14.239 -3.596,-5.26 -2.591,-12.294 4.053,-16.778 0.849,-0.573 5.929,-4.295 -1.099,-4.976 -3.257,-0.315 -2.567,-7.007 1.059,-9.835 1.253,-0.977 3.443,-0.792 3.831,-2.784 0.216,-1.107 0.266,-2.454 -0.179,-3.434 -0.68,-1.497 -1.907,-0.76 -2.945,-0.132 -2.41,1.458 -5.635,1.739 -4.74,-1.786 3.047,-12.003 -1.561,-23.846 0.108,-35.885 0.829,-5.981 2.243,-7.536 7.608,-6.064 1.566,0.429 3.386,1.427 4.275,-0.761 1.084,-2.669 -0.879,-3.91 -2.91,-4.811 -4.172,-1.852 -9.948,-2.903 -8.874,-8.92 1.111,-6.226 1.177,-12.322 0.97,-18.528 -0.041,-1.215 0.531,-2.41 1.836,-2.748 9.374,-2.426 18.324,-8.158 28.547,-4.538 12.28,4.349 24.377,-1.087 36.558,-0.241 12.53,0.87 25.359,-2.252 37.591,2.796 0.827,0.341 1.942,0.401 2.809,0.168 9.887,-2.667 8.743,4.105 9.231,10.19 0.306,3.817 -2.596,8.533 2.371,11.43 1.91,-7.957 0.158,-15.989 0.434,-23.983 0.134,-3.852 -2.394,-5.23 -6.037,-5.339 -23.059,-0.692 -46.115,-0.407 -69.177,-0.299 -12.194,0.058 -24.393,-0.721 -36.609,-0.151 -9.469,0.442 -11.498,1.784 -11.892,10.993 -0.575,13.451 -0.673,26.927 -0.793,40.393 -0.216,24.337 -0.87,48.689 -0.253,73.007 0.48,18.905 -1.954,37.665 -1.368,56.555 0.362,11.681 -11.333,22.904 -23.746,24.021 -11.041,0.993 -20.394,-7.223 -23.541,-19.1 -3.242,-12.24 -1.318,-24.475 -1.151,-36.654 0.191,-13.841 -0.52,-27.713 0.119,-41.473 0.63,-13.566 -0.332,-27.133 1.144,-40.727 1.32,-12.156 0.605,-24.533 0.783,-36.813 0.474,-32.834 -0.165,-65.669 0.832,-98.509 C 0.213,116.799 0.089,88.181 0.218,59.578 0.307,39.719 0.084,19.859 0,0" style="fill:#494f57;fill-opacity:1;fill-rule:nonzero;stroke:none" transform="matrix(1.3333333,0,0,-1.3333333,1812.1319,3333.5843)" />
      <path id="path44" d="m 0,0 c -3.611,3.641 -5.438,8.11 -6.107,13.122 -0.53,3.977 -1.955,5.863 -6.618,4.398 -3.207,-1.007 -7.875,-2.574 -7.236,4.526 0.238,2.645 -3.351,1.758 -5.305,1.92 -4.009,0.334 -6.249,-2.319 -7.166,-5.598 -0.82,-2.932 -0.795,-6.066 -4.396,-8.373 7.515,1.511 7.705,-3.641 8.053,-7.795 0.468,-5.601 1.781,-8.99 8.11,-5.641 2.044,1.081 3.058,-0.036 3.957,-1.602 1.164,-2.03 0.041,-3.192 -1.683,-3.819 -3.682,-1.34 -7.785,-3.944 -10.71,0.844 -2.07,3.389 -4.361,-1.193 -6.82,0.988 -4.457,3.956 -7.421,7.78 -4.002,13.91 -4.824,0.755 -8.633,0.793 -8.272,-5.441 0.33,-5.697 -7.534,-4.784 -7.761,-10.006 -6.187,4.726 -6.786,12.316 -10.483,18.157 -1.263,1.997 1.018,3.159 3.193,3.389 2.396,0.253 5.515,-0.901 6.299,2.903 L -57,15.83 c 1.95,0.293 3.841,0.869 3.986,3.186 0.166,2.638 -1.678,3.618 -3.975,3.978 l 0.035,-0.038 c 1.58,5.658 -4.714,11.123 -0.373,16.952 0.634,0.85 -0.402,2.24 -1.726,2.59 -9.071,2.396 -2.758,7.464 -1.942,11.507 0.269,1.33 2,2.068 2.762,1.322 5.382,-5.264 16.051,-2.473 18.449,-13.884 1.987,3.951 3.115,6.609 6.681,7.632 4.072,1.168 4.719,8.081 1.096,11.928 -2.846,3.023 -4.142,6.131 -3.73,10.118 C -23.584,58.024 -11.939,44.942 -8.171,26.288 -6.753,19.267 -4.149,11.92 -0.914,5.139 -0.166,3.57 1.505,2.025 0,0" style="fill:#494f57;fill-opacity:1;fill-rule:nonzero;stroke:none" transform="matrix(1.3333333,0,0,-1.3333333,2030.882,2781.93)" />
      <path id="path51" d="m 0,0 c -2.988,-0.914 -6.421,4.824 -9.033,-1.277 -0.755,-1.764 -1.164,-3.534 0.607,-4.09 C -4.127,-6.717 -1.97,-3.595 0,0 m 9.829,-27.189 c 3.088,0.824 5.329,2.81 4.147,5.598 -1.397,3.297 0.568,8.712 -3.845,9.511 -1.479,0.268 -7.421,-2.265 -6.971,-7.258 0.373,-4.13 2.685,-6.818 6.669,-7.851 m -26.321,54.585 c 4.88,-0.246 9.18,-1.382 10.43,-7.003 0.279,-1.254 0.796,-2.328 2.127,-2.457 1.581,-0.153 2.674,0.797 3.259,2.216 0.538,1.306 1.269,2.645 1.357,4.006 0.344,5.312 1.231,8.734 8.184,9.722 4.151,0.59 8.762,5.697 10.111,10.818 1.176,4.465 3.966,7.96 5.61,12.102 1.173,2.955 4.265,5.867 7.921,3.847 4.3,-2.377 1.903,-5.805 -0.21,-8.316 C 29.331,48.805 27.466,44.737 25.925,40.561 22.651,31.689 15.711,25.754 9.524,19.188 c 0.149,0.879 0.027,1.96 0.5,2.6 1.41,1.91 2.349,3.796 -0.316,5.174 C 6.985,28.37 5.805,25.736 4.951,24.147 3.198,20.888 3.861,18.284 8.161,17.809 8.111,12.487 12.119,7.561 9.469,1.785 9.081,0.939 7.93,-8.243 15.25,-2.134 c 2.542,2.122 3.085,-0.634 2.9,-2.523 -0.271,-2.78 -1.136,-5.505 -1.373,-8.285 -0.428,-5.009 0.833,-8.605 6.071,-11.347 7.311,-3.826 9.559,-12.143 13.206,-19.008 0.935,-1.76 -0.598,-3.05 -2.802,-2.507 -3.24,1.906 -5.646,7.822 -10.449,1.649 -1.889,-2.427 -3.566,0.852 -5.234,1.566 -1.865,0.798 -1.303,2.463 0.282,3.032 6.303,2.263 2.674,7.123 3.006,10.973 -2.368,-3.57 -7.783,-5.263 -4.649,-11.859 1.612,-3.392 -2.051,-6.561 -6.619,-5.011 -3.158,1.071 -6.513,2.971 -7.656,5.889 -2.148,5.482 -6.789,8.466 -10.756,11.845 -6.733,5.734 -9.813,12.308 -8.42,21.027 0.171,1.075 0.047,2.718 -1.377,2.683 -1.638,-0.041 -2.36,-1.064 -1.404,-2.921 0.829,-1.61 -0.351,-2.834 -1.788,-3.174 -2.111,-0.498 -1.824,1.607 -2.359,2.721 -3.687,7.682 -2.24,12.126 5.457,16.46 1.689,0.951 4.114,1.956 3.42,3.905 -1.703,4.784 1.961,9.88 -1.198,14.415" style="fill:#494f57;fill-opacity:1;fill-rule:nonzero;stroke:none" transform="matrix(1.3333333,0,0,-1.3333333,1697.4821,3707.8169)" />
      <path id="path192" d="m 0,0 c 1.578,9.712 8.898,16.172 13.847,23.927 2.56,4.01 5.056,0.095 6.528,-1.837 3.521,-4.624 3.829,-10.581 5.719,-15.897 1.179,-3.318 1.711,-6.863 2.587,-10.292 2.532,-9.907 2.543,-9.904 10.974,-12.046 -0.502,-2.33 -2.765,-2.196 -4.263,-3.093 -2.938,-1.758 -1.825,-4.597 -1.712,-7.051 0.12,-2.586 2.076,-2.236 4.088,-2.521 12.448,-1.768 24.974,-1.911 37.315,-0.2 5.88,0.816 11.228,-1.968 17.065,-0.468 4.112,1.056 6.481,1.305 6.083,6.943 -0.658,9.31 1.769,18.729 -0.257,28.129 -0.362,1.676 0.319,3.312 2.4,3.732 1.896,-12.695 0.856,-25.466 0.964,-38.206 0.034,-4.065 -1.908,-5.998 -6.171,-5.827 -6.558,0.262 -13.104,-0.203 -19.702,0.111 -11.564,0.552 -23.194,0.26 -34.772,-0.245 -6.761,-0.295 -9.922,2.508 -11.342,8.87 -3.183,14.257 -5.819,28.652 -10.252,42.612 -0.567,1.784 -0.61,4.269 -2.689,4.603 -2.191,0.352 -2.68,-2.271 -3.594,-3.732 C 9.57,12.325 6.56,6.99 3.412,1.741 2.672,0.508 1.754,-0.633 0,0" style="fill:#494f57;fill-opacity:1;fill-rule:nonzero;stroke:none" transform="matrix(1.3333333,0,0,-1.3333333,1917.6285,3732.5991)" />
      <path id="path221" d="m 0,0 c 2.333,-6.19 12.928,-7.819 19.235,-2.169 4.149,3.716 6.578,5.655 12.77,2.559 4.369,-2.183 11.033,0.833 14.45,6.476 2.997,-5.776 1.604,-8.881 -4.483,-10.03 -7.79,-1.471 -15.187,-4.608 -23.188,-5.252 -1.576,-0.128 -4.466,0.229 -4.618,-2.236 -0.175,-2.842 2.856,-2.874 4.697,-3.288 10.499,-2.367 21.172,-2.92 31.907,-2.521 2.593,0.096 5.186,0.168 7.78,0.231 4.621,0.112 8.952,-0.263 13.154,3.372 2.788,2.412 7.701,1.065 11.68,0.463 -4.797,-5.036 -11.6,-5.212 -17.659,-6.826 -4.916,-1.309 -10.331,-1.829 -15.385,-1.317 -11.163,1.132 -22.436,0.71 -33.533,3.383 -6.294,1.516 -10.278,7.242 -17.132,7.6 -2.394,0.125 -3.495,4.267 -3.671,7.111 C -4.163,0.26 -1.974,0.207 0,0" style="fill:#494f57;fill-opacity:1;fill-rule:nonzero;stroke:none" transform="matrix(1.3333333,0,0,-1.3333333,1741.8415,3768.8689)" />
      <path id="path233" d="m 0,0 c -3.505,1.231 -2.264,4.235 -2.37,6.629 -1.323,30.076 -1.762,60.167 -1.642,90.271 0.018,4.415 -0.955,8.828 -1.038,13.25 -0.052,2.776 -1.814,6.271 2.171,8.05 3.559,-7.414 1.56,-15.415 1.873,-23.045 C -0.022,71.223 -0.146,47.244 0.068,23.282 0.138,15.523 1.617,7.754 0,0" style="fill:#494f57;fill-opacity:1;fill-rule:nonzero;stroke:none" transform="matrix(1.3333333,0,0,-1.3333333,2051.3185,3672.9159)" />
      <path id="path251" d="m 0,0 c 2.416,-4.282 6.269,-5.685 10.972,-5.843 8.833,-0.296 17.661,-0.775 26.484,-1.302 1.042,-0.062 2.038,-0.898 3.054,-1.377 -0.235,-1.219 -0.467,-2.437 -0.7,-3.656 -1.835,-1.02 -3.455,-0.688 -5.233,0.402 -4.23,2.594 -8.099,0.07 -10.786,-2.341 -5.032,-4.514 -8.816,-7.159 -12.261,1.281 -0.798,1.955 -3.258,1.481 -5.091,1.133 -2.211,-0.42 -2.917,-2.111 -3.033,-4.144 -0.21,-3.699 -0.132,-7.499 -3.616,-10.014 -1.692,2.073 -1.184,4.458 -0.566,6.622 1.338,4.684 2.452,9.135 -0.512,13.77 C -2.307,-3.876 -2.396,-1.359 0,0" style="fill:#494f57;fill-opacity:1;fill-rule:nonzero;stroke:none" transform="matrix(1.3333333,0,0,-1.3333333,1631.9099,3081.0561)" />
      <path id="path280" d="M 0,0 C -5.248,3.185 -2.1,8.418 -2.49,12.47 -3.462,22.585 -2.983,32.87 -3.154,43.022 -3.32,52.923 -3.833,63.228 -1.958,73.223 1.592,66.486 -0.182,59.067 0.195,52.06 1.064,35.884 0.598,19.635 0.623,3.416 0.625,2.278 0.217,1.139 0,0" style="fill:#494f57;fill-opacity:1;fill-rule:nonzero;stroke:none" transform="matrix(1.3333333,0,0,-1.3333333,2039.5108,3003.7087)" />
      <path id="path288" d="m 0,0 c 3.141,-0.202 2.89,-2.537 2.897,-4.665 0.04,-11.637 0.338,-23.282 -0.012,-34.908 -0.222,-7.366 2.346,-14.473 1.423,-21.84 -0.278,-2.219 0.641,-5.031 -3.004,-5.314 -2.051,15.658 -1.476,31.425 -1.873,47.148 C -0.734,-13.057 -2.3,-6.461 0,0" style="fill:#494f57;fill-opacity:1;fill-rule:nonzero;stroke:none" transform="matrix(1.3333333,0,0,-1.3333333,1634.2655,3301.2164)" />
      <path id="path303" d="m 0,0 c 6.003,-4.724 12.588,-8.845 16.388,-15.848 -1.68,-4.277 -6.462,-3.088 -9.401,-5.257 -1.268,-0.936 -2.968,0.483 -3.242,1.788 C 2.396,-12.9 -2.598,-7.169 0,0" style="fill:#494f57;fill-opacity:1;fill-rule:nonzero;stroke:none" transform="matrix(1.3333333,0,0,-1.3333333,1643.2081,3646.6531)" />
      <path id="path308" d="m 0,0 c -0.087,-1.472 -0.416,-2.826 -2.033,-3.333 -15.294,-4.797 -28.535,-13.746 -42.61,-21.01 -0.769,-0.397 -1.786,-0.313 -2.687,-0.453 2.234,7.003 9.217,8.48 14.489,10.958 9.599,4.513 18.572,10.442 28.831,13.548 C -2.674,0.114 -1.405,0.82 0,0" style="fill:#494f57;fill-opacity:1;fill-rule:nonzero;stroke:none" transform="matrix(1.3333333,0,0,-1.3333333,1765.5367,2634.6364)" />
      <path id="path369" d="M 0,0 C -2.636,3.089 -1.185,6.787 -1.428,10.205 -1.677,13.699 -1.441,17.034 -3.321,20.426 -5.54,24.433 -4.6,28.512 -0.674,31.468 -0.53,20.977 2.749,10.553 0,0" style="fill:#494f57;fill-opacity:1;fill-rule:nonzero;stroke:none" transform="matrix(1.3333333,0,0,-1.3333333,1812.7728,3386.5257)" />
      <path id="path390" d="M 0,0 C 2.965,-2.126 2.478,-5.788 2.507,-8.394 2.588,-15.626 5.329,-22.859 2.819,-30.106 -1.424,-20.38 -0.488,-10.169 0,0" style="fill:#494f57;fill-opacity:1;fill-rule:nonzero;stroke:none" transform="matrix(1.3333333,0,0,-1.3333333,1637.8171,3602.5283)" />
      <path id="path398" d="M 0,0 C 3.422,-6.442 3.38,-20.68 -0.072,-24.445 -2.672,-16.289 -2.494,-8.141 0,0" style="fill:#494f57;fill-opacity:1;fill-rule:nonzero;stroke:none" transform="matrix(1.3333333,0,0,-1.3333333,1629.8792,2863.0305)" />
      <path id="path408" d="m 0,0 c 5.936,-2.375 3.558,-8.824 6.076,-13.028 1.405,-2.347 -3.755,-3.58 -5.605,-5.67 C 0.314,-12.466 0.157,-6.233 0,0" style="fill:#494f57;fill-opacity:1;fill-rule:nonzero;stroke:none" transform="matrix(1.3333333,0,0,-1.3333333,1636.6279,3397.7819)" />
      <path id="path409" d="m 0,0 c -7.519,-5.814 -16.24,-5.307 -24.972,-4.749 1.297,3.41 4.283,2.018 6.614,2.215 C -12.19,-2.01 -6.312,0.581 0,0" style="fill:#494f57;fill-opacity:1;fill-rule:nonzero;stroke:none" transform="matrix(1.3333333,0,0,-1.3333333,1803.4388,2626.8728)" />
      <path id="path419" d="M 0,0 C -8.605,0.328 -13.378,4.297 -14.236,11.841 -8.27,9.361 -3.882,4.985 0,0" style="fill:#494f57;fill-opacity:1;fill-rule:nonzero;stroke:none" transform="matrix(1.3333333,0,0,-1.3333333,1980.4688,2684.3916)" />
      <path id="path428" d="M 0,0 C -1.38,6.243 -3.272,12.488 0.103,18.704 3.202,12.452 2.407,6.222 0,0" style="fill:#494f57;fill-opacity:1;fill-rule:nonzero;stroke:none" transform="matrix(1.3333333,0,0,-1.3333333,2036.5332,2903.0335)" />
      <path id="path442" d="M 0,0 C -6.411,-0.47 -12.967,-1.962 -18.662,2.638 -12.09,4.248 -5.91,3.081 0,0" style="fill:#494f57;fill-opacity:1;fill-rule:nonzero;stroke:none" transform="matrix(1.3333333,0,0,-1.3333333,1879.2021,2629.8768)" />
      <path id="path453" d="M 0,0 C 0.64,-0.228 1.851,-0.613 1.838,-0.661 0.18,-6.663 -1.568,-12.641 -3.312,-18.62 -6.901,-11.579 -2.948,-5.879 0,0" style="fill:#494f57;fill-opacity:1;fill-rule:nonzero;stroke:none" transform="matrix(1.3333333,0,0,-1.3333333,1640.0653,2764.5817)" />
      <path id="path454" d="M 0,0 C 2.972,-5.731 6.262,-11.457 0.302,-17.345 -0.761,-11.58 -1.468,-5.809 0,0" style="fill:#494f57;fill-opacity:1;fill-rule:nonzero;stroke:none" transform="matrix(1.3333333,0,0,-1.3333333,1637.1661,3551.2909)" />
      <path id="path457" d="M 0,0 C -6.272,2.538 -13.496,2.758 -18.781,7.703 -11.883,6.689 -4.626,6.552 0,0" style="fill:#494f57;fill-opacity:1;fill-rule:nonzero;stroke:none" transform="matrix(1.3333333,0,0,-1.3333333,1928.5368,2646.8499)" />
      <path id="path458" d="M 0,0 C -1.117,4.744 -5.784,9.47 -0.07,14.248 1.259,9.505 2.198,4.76 0,0" style="fill:#494f57;fill-opacity:1;fill-rule:nonzero;stroke:none" transform="matrix(1.3333333,0,0,-1.3333333,1812.6343,3409.236)" />
      <path id="path480" d="M 0,0 C -0.912,5.222 -4.645,10.346 -0.554,15.744 -0.362,10.496 2.345,5.337 0,0" style="fill:#494f57;fill-opacity:1;fill-rule:nonzero;stroke:none" transform="matrix(1.3333333,0,0,-1.3333333,2037.6139,2870.6024)" />
      <path id="path489" d="M 0,0 C 4.312,-3.286 5.102,-9.758 1.535,-12.581 -2.119,-8.771 -0.155,-4.275 0,0" style="fill:#494f57;fill-opacity:1;fill-rule:nonzero;stroke:none" transform="matrix(1.3333333,0,0,-1.3333333,1635.8428,3473.9385)" />
      <path id="path496" d="M 0,0 C 3.382,-4.441 2.168,-8.702 -0.505,-12.906 -1.617,-8.554 -3.473,-4.173 0,0" style="fill:#494f57;fill-opacity:1;fill-rule:nonzero;stroke:none" transform="matrix(1.3333333,0,0,-1.3333333,1630.4697,2990.2509)" />
      <path id="path499" d="M 0,0 C -3.378,-4.077 -6.73,-4.048 -10.057,0.063 -6.687,2.948 -3.337,2.491 0,0" style="fill:#494f57;fill-opacity:1;fill-rule:nonzero;stroke:none" transform="matrix(1.3333333,0,0,-1.3333333,1841.1983,2626.3305)" />
      <path id="path520" d="M 0,0 C -1.118,-4.837 -3.269,-8.466 -9.104,-7.786 -6.942,-4.17 -4.601,-0.764 0,0" style="fill:#494f57;fill-opacity:1;fill-rule:nonzero;stroke:none" transform="matrix(1.3333333,0,0,-1.3333333,1687.4759,2680.9944)" />
      <path id="path545" d="M 0,0 C 3.408,-3.858 3.483,-7.734 0.065,-11.63 -1.46,-7.762 -1.385,-3.885 0,0" style="fill:#494f57;fill-opacity:1;fill-rule:nonzero;stroke:none" transform="matrix(1.3333333,0,0,-1.3333333,1633.2959,3238.4513)" />
      <path id="path553" d="M 0,0 C 4.179,-3.492 4.156,-6.826 -0.377,-9.99 -1.206,-6.624 -1.784,-3.267 0,0" style="fill:#494f57;fill-opacity:1;fill-rule:nonzero;stroke:none" transform="matrix(1.3333333,0,0,-1.3333333,1636.7067,3454.666)" />
      <path id="path584" d="M 0,0 C -2.068,4.251 -2.371,8.53 -0.2,12.848 0.376,8.573 1.882,4.313 0,0" style="fill:#494f57;fill-opacity:1;fill-rule:nonzero;stroke:none" transform="matrix(1.3333333,0,0,-1.3333333,2051.6701,3705.0896)" />
      <path id="path585" d="M 0,0 C 1.86,-2.225 2.242,-4.957 2.784,-7.681 3.488,-11.228 1.439,-10.926 -0.825,-10.502 -1.534,-6.924 -1.687,-3.39 0,0" style="fill:#494f57;fill-opacity:1;fill-rule:nonzero;stroke:none" transform="matrix(1.3333333,0,0,-1.3333333,1631.0605,2826.0559)" />
      <path id="path588" d="M 0,0 C 0.338,-4.224 1.422,-8.779 -4.539,-10.2 -4.422,-6.178 -3.701,-2.426 0,0" style="fill:#494f57;fill-opacity:1;fill-rule:nonzero;stroke:none" transform="matrix(1.3333333,0,0,-1.3333333,1646.7323,2748.1277)" />
      <path id="path618" d="M 0,0 C 0.468,6.15 5.288,4.948 9.128,5.404 7.169,1.772 3.529,0.981 0,0" style="fill:#494f57;fill-opacity:1;fill-rule:nonzero;stroke:none" transform="matrix(1.3333333,0,0,-1.3333333,1863.8983,3779.118)" />
      <path id="path625" d="M 0,0 C -0.183,-3.178 0.832,-7.064 -4.315,-7.313 -4.174,-4.11 -3.66,-1.127 0,0" style="fill:#494f57;fill-opacity:1;fill-rule:nonzero;stroke:none" transform="matrix(1.3333333,0,0,-1.3333333,1669.8583,2701.0099)" />
      <path id="path632" d="M 0,0 C 2.037,0.251 3.195,-0.559 3.125,-2.7 3.056,-4.799 1.698,-5.485 -0.173,-5.533 -1.97,-3.63 -1.029,-1.814 0,0" style="fill:#494f57;fill-opacity:1;fill-rule:nonzero;stroke:none" transform="matrix(1.3333333,0,0,-1.3333333,1633.7225,3290.114)" />
      <path id="path653" d="M 0,0 C 0.03,5.468 3.819,4.584 7.257,4.293 6.2,0.56 3.253,0.021 0,0" style="fill:#494f57;fill-opacity:1;fill-rule:nonzero;stroke:none" transform="matrix(1.3333333,0,0,-1.3333333,1853.1661,3785.2572)" />
      <path id="path654" d="M 0,0 C 2.328,-2.743 3.119,-5.302 -0.872,-7.289 -2.003,-4.689 -2.24,-2.197 0,0" style="fill:#494f57;fill-opacity:1;fill-rule:nonzero;stroke:none" transform="matrix(1.3333333,0,0,-1.3333333,1637.6769,3530.4515)" />
      <path id="path662" d="M 0,0 C 5.136,-3.039 1.181,-4.982 -0.863,-7.155 -2.187,-4.576 -1.089,-2.288 0,0" style="fill:#494f57;fill-opacity:1;fill-rule:nonzero;stroke:none" transform="matrix(1.3333333,0,0,-1.3333333,1638.0109,3511.7336)" />
      <path id="path663" d="M 0,0 C -3.24,-1.944 -5.505,-0.621 -7.326,2.188 -4.445,2.928 -2.039,2.077 0,0" style="fill:#494f57;fill-opacity:1;fill-rule:nonzero;stroke:none" transform="matrix(1.3333333,0,0,-1.3333333,1894.3113,2633.6308)" />
      <path id="path664" d="M 0,0 C 0.991,-3.275 0.203,-5.585 -3.444,-6.344 -3.587,-3.529 -2.925,-1.15 0,0" style="fill:#494f57;fill-opacity:1;fill-rule:nonzero;stroke:none" transform="matrix(1.3333333,0,0,-1.3333333,1675.026,2691.6447)" />
      <path id="path679" d="M 0,0 C 0.853,-4.365 -1.629,-5.275 -5.219,-5.039 -4.174,-2.639 -2.761,-0.621 0,0" style="fill:#494f57;fill-opacity:1;fill-rule:nonzero;stroke:none" transform="matrix(1.3333333,0,0,-1.3333333,1696.282,2672.4472)" />
      <path id="path961" d="m 0,0 c -0.941,-3.107 -1.621,-6.643 0.978,-10.169 0.939,-1.274 -0.589,-2.323 -2.134,-2.861 -6.59,-2.294 -13.229,-4.495 -19.653,-7.198 -4.279,-1.801 -6.745,-0.171 -8.681,3.266 -2.744,4.874 -5.372,9.814 -8.004,14.751 -1.006,1.888 0.143,2.969 1.54,4.109 5.432,4.436 12.605,7.559 12.468,16.325 -0.01,0.636 1.095,1.705 1.823,1.848 1.362,0.267 2.089,-0.99 2.43,-2.095 0.409,-1.324 0.763,-2.769 0.665,-4.128 C -19,7.839 -17.02,5.629 -10.688,7.474 -5.754,8.911 -0.011,4.725 0,0" style="fill:#494f57;fill-opacity:1;fill-rule:nonzero;stroke:none" transform="matrix(1.3333333,0,0,-1.3333333,1966.1219,3513.1036)" />
      <path id="path962" d="M 0,0 C -1.696,1.492 -0.337,5.463 -4.082,5.552 -6.003,5.598 -6.085,3.772 -6.005,2.446 -5.861,0.061 -5.337,-2.382 -2.418,-2.792 -0.798,-3.02 0.183,-2.007 0,0 m 9.52,-30.951 c -2.67,3.8 -8.591,5.244 -7.676,11.993 0.271,2 -1.783,4.677 -4.243,5.126 -5.13,0.936 -6.458,4.447 -6.382,8.751 0.111,6.235 -6.611,9.715 -6.138,16.326 0.112,1.557 -0.928,4.401 -1.759,6.559 -1.182,3.066 0.288,5.252 2.971,6.25 2.809,1.044 5.626,-0.548 6.576,-2.868 C -4.919,15.78 -3.895,9.632 4.311,11.149 4.78,11.235 6.1,9.348 6.041,9.284 0.903,3.704 10.103,-2.174 5.562,-7.987 c -1.872,-2.397 0.473,-5.461 2.356,-6.817 6.598,-4.748 6.507,-9.946 1.602,-16.147" style="fill:#494f57;fill-opacity:1;fill-rule:nonzero;stroke:none" transform="matrix(1.3333333,0,0,-1.3333333,1688.1667,3152.1725)" />
      <path id="path963" d="m 0,0 c -2.99,1.229 -5.894,1.086 -8.98,0.085 -2.803,-0.909 -4.944,0.79 -4.982,3.466 -0.041,2.969 2.804,1.734 4.408,1.752 2.027,0.022 4.715,-1.245 4.911,2.001 0.196,3.252 -2.975,3.765 -5.057,3.399 -8.14,-1.43 -7.218,2.709 -5.704,8.091 0.81,2.881 0.557,6.001 1.82,8.919 2.177,5.031 6.581,3.863 8.293,1.412 C -2.947,25.767 1.641,21.89 -2.396,16.583 -4.32,14.054 -2.31,12.498 -0.433,11.596 1.543,10.645 3.218,9.644 4.449,7.764 5.537,6.104 6.625,4.547 5.309,2.617 4.06,0.784 2.488,-0.595 0,0" style="fill:#494f57;fill-opacity:1;fill-rule:nonzero;stroke:none" transform="matrix(1.3333333,0,0,-1.3333333,1779.8115,3727.2411)" />
      <path id="path964" d="m 0,0 c -2.45,0.331 -4.788,1.036 -7.051,0.846 -2.45,-0.206 -2.854,0.258 -2.278,2.59 1.528,6.178 -2.624,8.765 -7.3,10.822 -1.289,0.567 -3.014,0.807 -2.685,2.566 0.342,1.829 2.225,1.527 3.503,1.364 3.702,-0.474 7.414,-1.014 11.035,-1.889 1.206,-0.291 3.154,-1.813 3.053,-2.532 C -2.439,8.674 0.444,6.596 4.522,4.969 5.735,4.486 6.6,2.787 5.692,1.357 4.262,-0.896 1.815,0.565 0,0" style="fill:#494f57;fill-opacity:1;fill-rule:nonzero;stroke:none" transform="matrix(1.3333333,0,0,-1.3333333,1809.6261,3701.1492)" />
      <path id="path965" d="m 0,0 c -3.984,-0.512 -5.377,0.211 -5.935,2.043 -0.64,2.1 0.765,4.91 1.925,4.724 4.503,-0.721 5.421,2.978 7.328,5.218 1.704,2.001 3.501,3.159 6.047,2.884 2.201,-0.237 5.144,1.264 6.381,-1.498 1.157,-2.583 -2.181,-3.224 -3.053,-4.94 C 9.575,2.3 4.61,-0.382 0,0" style="fill:#494f57;fill-opacity:1;fill-rule:nonzero;stroke:none" transform="matrix(1.3333333,0,0,-1.3333333,2007.0812,3548.6676)" />
      <path id="path966" d="m 0,0 c -0.014,6.488 -1.843,11.326 -8.414,13.525 -1.639,0.548 -2.588,3.201 -3.821,4.91 -0.697,0.965 -1.501,2.164 -0.251,3.067 1.078,0.779 2.575,1.612 3.782,1.477 C 0.315,21.968 5.92,8.461 0,0" style="fill:#494f57;fill-opacity:1;fill-rule:nonzero;stroke:none" transform="matrix(1.3333333,0,0,-1.3333333,1764.6503,2740.8044)" />
      <path id="path967" d="m 0,0 c 1.317,-0.419 4.376,2.799 7.635,1.199 2.01,-0.987 5.106,-1.296 5.231,-4.06 0.121,-2.66 -1.85,-4.91 -4.241,-5.938 -2.53,-1.087 -5.446,-0.623 -6.781,2.027 -1.509,2.995 -2.393,5.526 -6.327,2.519 -1.676,-1.282 -3.091,0.121 -3.26,2.16 -0.172,2.094 0.094,3.918 3.004,3.172 C -3.833,0.848 -2.915,0.662 0,0" style="fill:#494f57;fill-opacity:1;fill-rule:nonzero;stroke:none" transform="matrix(1.3333333,0,0,-1.3333333,1694.3451,3199.6569)" />
      <path id="path968" d="m 0,0 c -3.96,-0.238 -6.231,-5.207 -10.123,-4.552 -3.663,0.616 -7.051,3.223 -10.401,5.22 -2.024,1.208 -1.531,3.344 0.426,3.574 5.804,0.685 11.706,1.034 17.465,-0.455 C -1.329,3.45 -0.324,2.215 0,0" style="fill:#494f57;fill-opacity:1;fill-rule:nonzero;stroke:none" transform="matrix(1.3333333,0,0,-1.3333333,1976.8672,2702.4516)" />
      <path id="path969" d="m 0,0 c 0.311,-6.259 -5.545,-3.281 -7.678,-5.77 -1.265,-1.476 -3.163,-1.164 -4.053,0.725 -1.216,2.579 -1.159,5.046 1.62,6.788 0.594,0.372 1.125,0.864 1.625,1.361 1.916,1.906 1.213,7.159 5.408,5.761 C 0.979,7.513 -2.398,2.305 0,0" style="fill:#494f57;fill-opacity:1;fill-rule:nonzero;stroke:none" transform="matrix(1.3333333,0,0,-1.3333333,1967.7139,3293.4391)" />
      <path id="path970" d="m 0,0 c -3.937,-0.441 -6.561,0.266 -6.601,3.575 -0.041,3.354 -1.834,5.592 -3.536,8.043 -0.76,1.096 -2.064,2.321 -0.474,3.591 1.241,0.99 2.701,0.625 3.811,-0.44 C -3.967,12.048 -1.188,9.271 1.597,6.502 3.01,5.096 5.642,4.175 4.565,1.562 3.533,-0.943 0.919,0.172 0,0" style="fill:#494f57;fill-opacity:1;fill-rule:nonzero;stroke:none" transform="matrix(1.3333333,0,0,-1.3333333,1750.8908,3722.1329)" />
      <path id="path971" d="M 0,0 C 2.006,2.669 4.394,4.533 8.013,3.811 8.714,2.252 9.903,2.002 11.39,2.553 11.768,2.122 12.147,1.691 12.526,1.259 11.417,-0.914 10.307,-3.087 9.197,-5.259 c -0.8,0.058 -1.6,0.116 -2.399,0.171 -2.591,0.925 -5.591,-2.641 -7.963,0.719 0.101,0.883 0.203,1.766 0.304,2.65 C 0.207,-1.536 0.375,-0.905 0,0" style="fill:#dedbe1;fill-opacity:1;fill-rule:nonzero;stroke:none" transform="matrix(1.3333333,0,0,-1.3333333,1725.4551,3680.3132)" />
      <path id="path972" d="m 0,0 c -2.862,0.714 -5.029,3.106 -8.363,2.929 -2.356,-0.125 -4.348,1.56 -2.756,4.073 1.432,2.26 0.297,3.924 10e-4,5.915 -0.247,1.669 -1.308,4.25 1.166,4.754 2.388,0.487 3.841,-1.811 3.978,-3.93 0.258,-3.976 1.139,-6.97 5.967,-6.667 0,0 -0.035,0.038 -0.035,0.037 C -0.046,4.724 -0.05,2.336 -0.053,-0.052 Z" style="fill:#494f57;fill-opacity:1;fill-rule:nonzero;stroke:none" transform="matrix(1.3333333,0,0,-1.3333333,1954.9528,2760.754)" />
      <path id="path973" d="m 0,0 c 2.372,-3.36 5.372,0.206 7.963,-0.719 0.208,-3.545 -4.02,-6.325 -1.695,-10.332 0.489,-0.841 -0.806,-1.656 -1.714,-1.743 -5.849,-0.56 -5.737,5.387 -8.23,8.242 C -5.782,-2.141 -3.11,-0.104 0,0" style="fill:#494f57;fill-opacity:1;fill-rule:nonzero;stroke:none" transform="matrix(1.3333333,0,0,-1.3333333,1723.9017,3686.1384)" />
      <path id="path974" d="m 0,0 c -0.141,-1.463 0.161,-2.777 -1.327,-3.252 -0.991,-0.316 -9.751,7.359 -9.594,8.414 0.266,1.77 1.222,3.707 3.062,2.822 C -4.311,6.278 -1.032,3.939 0,0" style="fill:#494f57;fill-opacity:1;fill-rule:nonzero;stroke:none" transform="matrix(1.3333333,0,0,-1.3333333,2000.2672,3489.0695)" />
      <path id="path975" d="m 0,0 c -4.439,1.003 -6.809,3.99 -7.941,8.027 -0.428,1.53 0.588,3.209 2.118,2.747 C -1.608,9.503 0.612,5.779 2.585,2.242 3.328,0.911 1.442,0.036 0,0" style="fill:#494f57;fill-opacity:1;fill-rule:nonzero;stroke:none" transform="matrix(1.3333333,0,0,-1.3333333,1825.4427,3770.7573)" />
      <path id="path976" d="M 0,0 C -2.151,0.037 -4.735,0.582 -4.309,2.009 -3.271,5.491 0.69,5.375 3.523,6.502 4.838,7.024 6.939,5.847 6.516,4.568 5.498,1.492 2.689,0.279 0,0" style="fill:#494f57;fill-opacity:1;fill-rule:nonzero;stroke:none" transform="matrix(1.3333333,0,0,-1.3333333,1852.1227,3776.9369)" />
      <path id="path977" d="m 0,0 c 2.927,-1.029 3.867,-2.892 3.878,-5.125 0.006,-1.46 0,-4.157 -2.395,-2.857 -1.777,0.966 -5.432,0.878 -4.877,4.123 C -3.137,-2.353 -1.075,-1.156 0,0" style="fill:#494f57;fill-opacity:1;fill-rule:nonzero;stroke:none" transform="matrix(1.3333333,0,0,-1.3333333,1672.6364,3195.2575)" />
      <path id="path978" d="M 0,0 C -4.301,0.475 -4.964,3.079 -3.211,6.338 -2.356,7.927 -1.176,10.56 1.546,9.153 4.212,7.775 3.273,5.888 1.862,3.979 1.389,3.339 1.512,2.258 1.362,1.379 0.908,0.919 0.454,0.46 0,0" style="fill:#dedbe1;fill-opacity:1;fill-rule:nonzero;stroke:none" transform="matrix(1.3333333,0,0,-1.3333333,1708.3641,3684.0715)" />
      <path id="path979" d="M 0,0 C 0.881,3.14 3.146,2.255 5.011,1.469 7.39,0.465 7.336,-1.87 7.026,-3.964 6.735,-5.935 6.595,-8.274 3.817,-8.478 3.522,-8.5 3.15,-7.466 2.814,-6.922 5.048,-3.325 2.889,-1.514 0,0" style="fill:#494f57;fill-opacity:1;fill-rule:nonzero;stroke:none" transform="matrix(1.3333333,0,0,-1.3333333,1689.4,3091.622)" />
      <path id="path980" d="M 0,0 C -0.961,0.436 -1.57,0.51 -1.72,0.812 -3.032,3.446 -5.604,5.769 -4.053,9.147 -3.914,9.45 -2.582,9.645 -2.304,9.375 0.221,6.928 1.335,4.029 0,0" style="fill:#494f57;fill-opacity:1;fill-rule:nonzero;stroke:none" transform="matrix(1.3333333,0,0,-1.3333333,1914.0073,3502.9833)" />
      <path id="path981" d="M 0,0 C 1.11,2.173 2.22,4.345 3.329,6.518 7.741,6.714 8.908,3.508 7.763,0.568 6.077,-3.758 2.639,0.334 0,0" style="fill:#494f57;fill-opacity:1;fill-rule:nonzero;stroke:none" transform="matrix(1.3333333,0,0,-1.3333333,1737.7176,3687.3256)" />
      <path id="path982" d="m 0,0 c 2.889,-1.514 5.048,-3.325 2.814,-6.922 -2.197,0.531 -3.608,2.867 -6.122,2.669 0.233,1.218 0.465,2.437 0.7,3.656 C -1.737,-0.398 -0.869,-0.199 0,0" style="fill:#dedbe1;fill-opacity:1;fill-rule:nonzero;stroke:none" transform="matrix(1.3333333,0,0,-1.3333333,1689.4,3091.622)" />
      <path id="path1090" d="M 0,0 C 0.004,2.388 0.008,4.775 0.011,7.163 2.309,6.804 4.152,5.823 3.987,3.186 3.841,0.868 1.951,0.292 0,0" style="fill:#08282e;fill-opacity:1;fill-rule:nonzero;stroke:none" transform="matrix(1.3333333,0,0,-1.3333333,1954.8815,2760.8228)" />
      <path id="path1091" d="m 0,0 c -3.984,1.033 -6.296,3.721 -6.669,7.851 -0.45,4.993 5.492,7.526 6.971,7.258 C 4.715,14.31 2.75,8.895 4.147,5.597 5.329,2.809 3.088,0.824 0,0" style="fill:#dedbe1;fill-opacity:1;fill-rule:nonzero;stroke:none" transform="matrix(1.3333333,0,0,-1.3333333,1710.5872,3744.0687)" />
      <path id="path1092" d="m 0,0 c -1.97,-3.595 -4.127,-6.717 -8.426,-5.367 -1.771,0.556 -1.362,2.326 -0.607,4.09 C -6.421,4.824 -2.988,-0.914 0,0" style="fill:#dedbe1;fill-opacity:1;fill-rule:nonzero;stroke:none" transform="matrix(1.3333333,0,0,-1.3333333,1697.4821,3707.8169)" />
      <path id="path1108" d="m 0,0 c 0.183,-2.007 -0.798,-3.02 -2.418,-2.792 -2.919,0.41 -3.443,2.853 -3.587,5.238 -0.08,1.326 0.002,3.152 1.923,3.106 C -0.337,5.463 -1.696,1.492 0,0" style="fill:#dedbe1;fill-opacity:1;fill-rule:nonzero;stroke:none" transform="matrix(1.3333333,0,0,-1.3333333,1688.1667,3152.1725)" />
      </g></svg>