<?xml version='1.0' encoding='utf-8'?>
<svg xmlns="http://www.w3.org/2000/svg" version="1.1" width="267.585" height="261.660" viewBox="821.748 538.681 267.585 261.660"><g id="object"><path id="path9" d="m 0,0 c 6.092,8.566 14.133,12.362 24.541,9.502 3.205,-0.88 6.092,0.116 9.112,0.32 6.38,0.43 9.951,-2.383 10.346,-8.796 0.686,-11.122 -0.187,-21.806 -3.317,-32.855 -4.931,-17.402 -12.606,-33.544 -19.196,-50.194 -1.03,-2.603 -3.889,-4.324 -3.521,-7.544 -1.237,-1.312 -0.73,-2.697 -0.169,-4.085 -1.939,-1.446 -1.764,-3.763 -2.362,-5.757 -3.001,-10.016 -3.677,-21.323 -15.011,-26.682 -1.164,-0.551 -1.627,-2.037 -1.075,-3.09 1.956,-3.727 -1.082,-6.205 -2.03,-9.199 -3.547,-0.834 -2.262,-4.151 -3.159,-6.316 -0.792,-1.915 -1.13,-5.206 -3.242,-4.826 -8.693,1.561 -5.652,-4.237 -5.623,-8.234 -0.865,0.025 -1.315,-0.382 -1.31,-1.26 -3.606,-1.168 -4.308,-5.163 -7.015,-7.205 -1.245,0.226 -2.49,0.453 -3.734,0.68 1.352,4.441 -2.089,8.087 -2.06,12.362 0.012,1.754 -1.746,2.106 -3.232,1.534 -8.048,-3.095 -9.634,1.421 -9.528,7.994 l 0.308,2.846 c 1.727,1.497 1.047,3.415 1.018,5.28 -0.193,12.213 8.038,23.271 19.669,26.57 2.666,0.757 4.526,1.457 7.424,-1.196 4.038,-3.697 8.395,-6.084 4.51,-12.307 -3.814,-6.11 -3.787,-13.618 -7.108,-19.936 -0.759,-1.443 -1.064,-3.137 0.988,-4.201 6.207,8.634 13.408,16.687 12.669,28.428 -0.125,1.992 0.753,4.251 1.747,6.069 2.676,4.892 3.775,8.215 -1.724,13.113 -5.776,5.145 -4.242,13.94 -3.941,21.398 0.118,2.895 1.127,5.5 -2.663,6.971 -2.435,0.945 -1.83,3.319 -1.538,5.539 2.536,19.309 4.27,38.76 10.645,57.361 0.189,0.554 -0.287,1.336 -0.452,2.012 C 0.678,-3.807 0.974,-1.907 0,0" style="fill:#d2d5d9;fill-opacity:1;fill-rule:nonzero;stroke:none" transform="matrix(1.3333333,0,0,-1.3333333,1024.3755,572.71307)" />
      <path id="path31" d="m 0,0 c -0.99,5.103 1.751,9.805 3.493,14.628 2.674,7.404 0.387,14.42 -1.127,21.452 -0.512,2.38 -2.262,4.827 -4.106,6.529 -7.338,6.772 -15.32,2.165 -22.761,0.301 -5.105,-1.278 -8.465,-5.15 -9.399,-11.201 -1.729,-11.194 -4.582,-22.217 -4.489,-33.655 0.072,-8.788 -8.373,-10.232 -13.17,-14.66 -1.823,-1.682 -5.463,-0.427 -7.011,2.8 -0.741,1.545 -1.009,4.096 -3.749,3.202 -2.046,-0.667 -2.623,-2.641 -2.947,-4.528 -0.357,-2.076 -0.092,-4.57 -3.14,-4.649 -2.978,-0.078 -4.008,2.351 -4.717,4.564 -1.158,3.607 -2.409,7.52 -0.779,11.117 2.593,5.721 2.1,11.453 1.479,17.372 -0.746,7.11 1.808,13.905 2.515,20.792 1.486,14.485 2.039,29.179 -2.753,43.456 -2.159,6.431 4.344,14.492 11.096,14.424 1.877,-0.018 3.808,-0.172 5.622,0.192 11.37,2.277 19.155,-2.851 21.512,-14.309 2.118,-10.299 4.016,-10.959 12.447,-4.326 8.398,6.608 26.794,4.206 32.798,-6.11 6.335,-10.886 15.573,-20.432 17.77,-33.559 0.389,-2.325 1.046,-4.605 1.445,-6.929 0.541,-3.154 0.86,-5.824 5.17,-2.89 3.436,2.338 4.746,-0.542 4.937,-3.377 0.49,-7.287 -1.143,-14.189 -5.7,-19.953 -3.237,-4.092 -6.31,-8.183 -8.856,-12.775 -3.549,-6.402 -7.038,-6.546 -11.587,-0.934 -1.234,1.522 -2.413,2.842 -4.585,2.869 C -0.395,-10.039 -0.395,-10.018 0,0" style="fill:#d2d5d9;fill-opacity:1;fill-rule:nonzero;stroke:none" transform="matrix(1.3333333,0,0,-1.3333333,927.32507,668.2348)" />
      </g></svg>