<?xml version='1.0' encoding='utf-8'?>
<svg xmlns="http://www.w3.org/2000/svg" version="1.1" width="83.673" height="148.915" viewBox="304.634 3494.710 83.673 148.915"><g id="object"><path id="path133" d="m 0,0 h 0.013 c 0,-0.858 -0.161,-1.754 0.028,-2.568 0.738,-3.171 -1.303,-8.515 2.344,-9.118 4.927,-0.815 3.989,5.346 5.699,8.361 1.467,2.589 1.909,5.668 1.293,8.759 C 8.909,7.785 6.43,9.672 3.594,9.545 0.841,9.422 0.167,7.411 0.022,5.15 -0.088,3.44 0,1.717 0,0 m 3.898,-40.195 c -0.852,-9.744 -1.396,-16.464 -2.044,-23.174 -0.329,-3.412 -0.331,-6.958 -2.537,-9.875 -1.304,-1.724 -2.758,-3.553 -5.096,-3.621 -2.524,-0.073 -3.414,2.132 -4.507,3.967 -2.348,3.938 -2.017,8.281 -2.044,12.586 -0.125,19.823 -0.224,39.647 -0.424,59.47 -0.052,5.157 -0.772,10.321 -0.594,15.462 0.307,8.841 1.118,9.584 9.572,10.161 7.306,0.499 14.638,1.182 21.94,1.012 C 27.257,25.582 31.22,20.83 30.997,11.659 30.836,5.054 28.81,-1.077 26.002,-6.946 c -2.23,-4.662 -4.452,-9.384 -7.263,-13.699 -3.268,-5.017 -3.202,-9.087 0.564,-13.999 6.023,-7.856 11.316,-16.273 16.888,-24.473 1.209,-1.779 2.397,-3.587 3.408,-5.481 1.418,-2.655 0.926,-5.031 -1.678,-6.664 -1.815,-1.139 -3.755,-2.097 -5.698,-3.011 -2.317,-1.089 -4.37,-0.181 -5.64,1.667 -4.39,6.386 -8.711,12.829 -12.79,19.417 -2.45,3.957 -5.271,7.412 -9.895,12.994" style="fill:#494643;fill-opacity:1;fill-rule:nonzero;stroke:none" transform="matrix(1.3333333,0,0,-1.3333333,328.46867,3535.1335)" />
      </g></svg>