<?xml version='1.0' encoding='utf-8'?>
<svg xmlns="http://www.w3.org/2000/svg" version="1.1" width="124.625" height="101.912" viewBox="2429.430 3955.300 124.625 101.912"><g id="object"><path id="path83" d="m 0,0 c -1.026,-7.027 -2.051,-12.712 -2.593,-18.444 -0.213,-2.239 0.21,-4.89 3.623,-4.941 2.315,-0.034 4.925,0.521 4.589,3.097 C 4.773,-13.809 5.427,-6.801 0,0 m 24.233,-38.627 c -0.188,-2.764 0.11,-5.749 -3.204,-5.759 -4.073,-0.011 -9.417,-1.054 -10.673,4.478 -1.165,5.133 -3.429,7.301 -8.657,6.971 -4.732,-0.299 -7.829,-1.332 -8.511,-7.083 -0.638,-5.385 -5.523,-5.059 -9.588,-4.326 -5.443,0.982 -4.221,5.716 -3.244,8.535 4.033,11.648 5.705,23.831 8.84,35.667 1.449,5.472 3.049,10.914 4.213,16.447 0.752,3.577 1.536,6.352 6.154,5.865 4.345,-0.46 8.412,0.423 10.449,-5.718 4.182,-12.601 5.962,-25.753 9.866,-38.364 1.75,-5.652 3.308,-11.308 4.355,-16.713" style="fill:#494f57;fill-opacity:1;fill-rule:nonzero;stroke:none" transform="matrix(1.3333333,0,0,-1.3333333,2515.7436,3991.5425)" />
      <path id="path136" d="m 0,0 c 3.291,-0.587 7.752,0.545 8.282,-5.164 0.296,-3.177 0.253,-5.271 -3.912,-5.826 -8.876,-1.182 -15.974,-5.583 -17.305,-15.007 -1.44,-10.191 -1.171,-20.432 9.09,-26.969 2.419,-1.541 4.921,-2.908 7.911,-2.618 2.633,0.256 5.569,1.088 5.232,-3.238 -0.289,-3.716 0.074,-8.099 -5.322,-8.466 -8.23,-0.561 -15.722,1.893 -21.1,8.086 -13.049,15.029 -15.033,37.259 0.943,52.931 C -11.633,-1.81 -6.135,0.234 0,0" style="fill:#494f57;fill-opacity:1;fill-rule:nonzero;stroke:none" transform="matrix(1.3333333,0,0,-1.3333333,2472.1496,3961.3284)" />
      </g></svg>