<?xml version='1.0' encoding='utf-8'?>
<svg xmlns="http://www.w3.org/2000/svg" version="1.1" width="93.337" height="110.531" viewBox="1404.260 2950.570 93.337 110.531"><g id="object"><path id="path48" d="m 0,0 v 68.884 c 17.556,2.982 17.556,2.982 21.41,-27.196 8.727,8.382 14.277,13.475 19.539,18.849 3.772,3.852 7.159,8.082 10.717,12.144 2.931,-4.731 7.971,-9.284 8.39,-14.227 C 61.213,44.78 61.442,30.838 59.994,17.219 59.313,10.816 53.94,4.913 50.693,-1.217 47.409,4.046 44.565,9.658 40.729,14.481 36.198,20.178 30.81,25.194 25.895,30.396 13.553,18.327 28.82,-6.19 0,0" style="fill:#231916;fill-opacity:1;fill-rule:nonzero;stroke:none" transform="matrix(1.3333333,0,0,-1.3333333,1410.2633,3053.4773)" />
      </g></svg>