<?xml version='1.0' encoding='utf-8'?>
<svg xmlns="http://www.w3.org/2000/svg" version="1.1" width="214.699" height="99.994" viewBox="947.885 4362.430 214.699 99.994"><g id="object"><path id="path47" d="m 0,0 c 2.31,11.651 5.054,23.024 7.629,34.436 0.793,3.513 2.083,6.345 5.384,6.261 3.653,-0.093 5.013,-3.121 5.59,-6.917 1.405,-9.246 3.353,-18.416 5.35,-27.559 0.329,-1.506 -0.235,-4.542 2.595,-4.235 2.44,0.266 2.712,2.64 3.044,4.867 1.481,9.921 3.598,19.769 4.613,29.731 0.627,6.145 4.334,3.124 7.084,3.479 4.274,0.551 3.997,-1.861 3.431,-4.817 -3.545,-18.505 -7.02,-37.023 -10.518,-55.537 -0.594,-3.144 -2.85,-4.342 -5.673,-4.259 -3.484,0.101 -5.506,2.029 -6.166,5.612 -1.858,10.101 -3.909,20.167 -5.816,30.26 -0.355,1.874 -0.346,4.385 -2.452,4.634 C 11.241,16.293 11.149,13.14 10.699,11.4 8.032,1.082 5.392,-9.261 3.39,-19.721 c -0.636,-3.32 -1.957,-4.651 -4.83,-4.81 -2.982,-0.165 -5.605,0.412 -6.398,4.108 -2.771,12.907 -5.668,25.785 -8.532,38.672 -1.167,5.252 -2.657,10.456 -3.409,15.765 -0.287,2.022 -2.167,5.89 2.185,6.118 3.429,0.18 8.005,1.486 8.965,-4.237 1.285,-7.672 3.162,-15.287 3.805,-23.008 C -4.411,7.932 -1.547,4.39 0,0" style="fill:#c33c36;fill-opacity:1;fill-rule:nonzero;stroke:none" transform="matrix(1.3333333,0,0,-1.3333333,1076.0688,4422.6923)" />
      <path id="path48" d="m 0,0 c 3.098,0.912 3.86,2.794 4.239,5.394 1.387,9.522 3.342,18.969 4.466,28.516 0.723,6.147 5.1,3.713 8.023,3.928 3.803,0.279 3.018,-2.981 2.593,-5.138 -3.468,-17.583 -7.117,-35.132 -10.584,-52.716 -0.72,-3.654 -2.295,-6.425 -6.212,-6.456 -4.004,-0.032 -4.548,3.262 -5.19,6.427 -1.964,9.69 -3.991,19.371 -6.255,28.994 -0.465,1.978 0.429,5.533 -2.846,5.503 -2.648,-0.024 -3.749,-3.107 -3.862,-5.313 -0.279,-5.5 -2.164,-10.63 -2.98,-15.965 -0.752,-4.915 -2.164,-9.615 -3.282,-14.413 -0.657,-2.815 -1.58,-5.335 -4.652,-5.302 -3.481,0.038 -6.511,1.73 -7.288,5.513 -2.169,10.56 -4.05,21.179 -6.256,31.732 -1.372,6.563 -3.382,12.999 -4.591,19.587 -0.511,2.789 -2.727,7.316 2.483,7.933 3.641,0.431 7.587,0.295 8.094,-5.858 0.712,-8.646 2.902,-17.173 4.5,-25.743 0.476,-2.555 0.919,-5.197 4.751,-6.242 2.179,10.457 4.547,20.827 6.412,31.287 0.688,3.858 2.404,6.515 6.072,6.635 3.501,0.114 4.738,-2.822 5.775,-6.078 C -3.296,21.886 -3.134,10.943 0,0" style="fill:#c33c36;fill-opacity:1;fill-rule:nonzero;stroke:none" transform="matrix(1.3333333,0,0,-1.3333333,1014.6613,4419.7736)" />
      <path id="path289" d="m 0,0 c 4.059,-1.113 7.717,-3.067 7.546,-7.322 -0.152,-3.786 -3.627,-6.558 -7.28,-6.651 -4.172,-0.106 -7.121,2.814 -7.147,7.243 C -6.907,-2.376 -3.564,-0.936 0,0" style="fill:#c33c36;fill-opacity:1;fill-rule:nonzero;stroke:none" transform="matrix(1.3333333,0,0,-1.3333333,1146.5172,4437.7892)" />
      </g></svg>