<?xml version='1.0' encoding='utf-8'?>
<svg xmlns="http://www.w3.org/2000/svg" version="1.1" width="531.094" height="127.213" viewBox="1716.920 4152.270 531.094 127.213"><g id="object"><path id="path55" d="M 8.9074594,-3.171875e-4 H 19.091053 V -31.629223 c 2.34375,0.585937 5.15625,0.703125 8.203125,0.703125 9.960938,0 18.738281,-2.929688 24.128906,-8.671875 3.984375,-4.101563 6.09375,-9.714844 6.09375,-16.863282 0,-7.03125 -2.578125,-12.773437 -6.914062,-16.523437 -4.6875,-4.207031 -12.058594,-6.550781 -22.136719,-6.550781 -8.203125,0 -14.636719,0.703125 -19.5585936,1.523437 z M 19.091053,-70.640942 c 1.757813,-0.46875 5.15625,-0.820313 9.609375,-0.820313 11.25,0 18.621094,5.039063 18.621094,15.46875 0,10.898438 -7.488281,16.863282 -19.792969,16.863282 -3.398437,0 -6.210937,-0.234375 -8.4375,-0.820313 z m 83.050777,45.808594 8.4375,24.8320308125 h 10.89844 L 94.536366,-78.949536 H 82.231678 L 55.407459,-3.171875e-4 H 65.954334 L 74.145741,-24.832348 Z m -25.886714,-7.96875 7.734375,-22.839844 c 1.523437,-4.804688 2.8125,-9.609375 3.984375,-14.296875 h 0.234375 c 1.171875,4.570312 2.34375,9.257812 4.101562,14.414062 l 7.722657,22.722657 z M 129.0891,-3.8675047 c 4.21875,2.8125 12.52734,5.0390625 20.14453,5.0390625 18.63281,0 27.64453,-10.546875 27.64453,-22.7226558 0,-11.601563 -6.79687,-18.046875 -20.14453,-23.191407 -10.89844,-4.21875 -15.70312,-7.851562 -15.70312,-15.234375 0,-5.390625 4.10156,-11.835937 14.88281,-11.835937 7.14844,0 12.41015,2.34375 14.98828,3.75 l 2.8125,-8.308594 c -3.51563,-1.992187 -9.36328,-3.867187 -17.44922,-3.867187 -15.35156,0 -25.53516,9.128906 -25.53516,21.433593 0,11.132813 7.96875,17.800782 20.84766,22.371094 10.66406,4.101563 14.88281,8.320313 14.88281,15.703125 0,7.957031 -6.09375,13.4648438 -16.52343,13.4648438 -7.03125,0 -13.69922,-2.34375 -18.26954,-5.1562498 z m 76.71973,3.8671875125 h 10.3125 V -70.28938 h 24.1289 v -8.660156 h -58.45312 v 8.660156 h 24.01172 z M 289.9143,-45.44563 h -30.69141 v -24.960937 h 32.44922 v -8.542969 H 249.0393 V -3.171875e-4 h 44.39062 V -8.5550047 H 259.22289 V -37.019848 h 30.69141 z m 16.75488,45.4453128125 h 10.18359 V -34.207348 h 9.60938 c 9.25781,0.351562 13.47656,4.453125 15.80859,15.351562 2.22656,9.8320313 3.98438,16.6289063 5.27344,18.8554688125 h 10.54687 C 356.45043,-3.0471922 354.57543,-10.66438 351.9973,-21.668286 c -1.875,-8.203125 -5.50781,-13.828125 -11.58984,-15.9375 v -0.351562 c 8.30859,-2.8125 14.87109,-9.714844 14.87109,-20.144532 0,-6.09375 -2.22656,-11.484375 -6.21093,-15 -4.92188,-4.441406 -11.94141,-6.433593 -22.83985,-6.433593 -7.03125,0 -14.40234,0.585937 -19.55859,1.640625 z M 316.85277,-70.75813 c 1.64063,-0.46875 5.15625,-0.9375 10.07813,-0.9375 10.78125,0.117188 18.15234,4.570313 18.15234,14.765625 0,9.023438 -6.90234,14.988282 -17.80078,14.988282 h -10.42969 z m 47.44629,35.261719 v 7.617188 h 28.93359 v -7.617188 z m 0,0" style="fill:#848078;fill-opacity:1;fill-rule:nonzero;stroke:none" aria-label="PASTER-" transform="matrix(1.3333333,0,0,1.3333333,1714.3812,4268.5903)" />
      <path id="path56" d="m 0,0 h 10.191 v 31.627 c 2.343,-0.586 5.154,-0.702 8.2,-0.702 9.957,0 18.742,2.928 24.13,8.668 3.983,4.099 6.091,9.722 6.091,16.867 0,7.028 -2.577,12.769 -6.911,16.517 -4.685,4.216 -12.065,6.559 -22.139,6.559 -8.2,0 -14.642,-0.702 -19.562,-1.522 z m 10.191,70.634 c 1.757,0.469 5.154,0.82 9.605,0.82 11.246,0 18.625,-5.037 18.625,-15.462 0,-10.894 -7.497,-16.868 -19.796,-16.868 -3.397,0 -6.208,0.234 -8.434,0.82 z" style="fill:none;stroke:#848078;stroke-width:5;stroke-linecap:butt;stroke-linejoin:miter;stroke-miterlimit:10;stroke-dasharray:none;stroke-opacity:1" transform="matrix(1.3333333,0,0,-1.3333333,1726.2509,4268.5903)" />
      <path id="path57" d="M 0,0 8.434,-24.833 H 19.328 L -7.614,54.118 h -12.3 l -26.824,-78.951 h 10.542 L -27.996,0 Z m -25.888,7.966 7.732,22.842 c 1.522,4.802 2.811,9.605 3.982,14.291 h 0.235 c 1.171,-4.569 2.342,-9.254 4.099,-14.409 L -2.108,7.966 Z" style="fill:none;stroke:#848078;stroke-width:5;stroke-linecap:butt;stroke-linejoin:miter;stroke-miterlimit:10;stroke-dasharray:none;stroke-opacity:1" transform="matrix(1.3333333,0,0,-1.3333333,1850.5732,4235.4796)" />
      <path id="path58" d="m 0,0 c 4.217,-2.811 12.534,-5.036 20.147,-5.036 18.625,0 27.645,10.542 27.645,22.724 0,11.597 -6.794,18.04 -20.147,23.194 -10.895,4.217 -15.697,7.847 -15.697,15.227 0,5.389 4.1,11.831 14.876,11.831 7.146,0 12.417,-2.342 14.994,-3.749 l 2.811,8.318 C 41.115,74.5 35.258,76.374 27.176,76.374 11.831,76.374 1.64,67.237 1.64,54.938 1.64,43.81 9.605,37.133 22.49,32.564 33.15,28.465 37.367,24.248 37.367,16.868 37.367,8.902 31.275,3.397 20.851,3.397 13.822,3.397 7.145,5.74 2.577,8.552 Z" style="fill:none;stroke:#848078;stroke-width:5;stroke-linecap:butt;stroke-linejoin:miter;stroke-miterlimit:10;stroke-dasharray:none;stroke-opacity:1" transform="matrix(1.3333333,0,0,-1.3333333,1886.4951,4263.4367)" />
      <path id="path59" d="m 0,0 h 10.308 v 70.282 h 24.13 v 8.669 H -24.013 V 70.282 H 0 Z" style="fill:none;stroke:#848078;stroke-width:5;stroke-linecap:butt;stroke-linejoin:miter;stroke-miterlimit:10;stroke-dasharray:none;stroke-opacity:1" transform="matrix(1.3333333,0,0,-1.3333333,1988.7945,4268.5903)" />
      <path id="path60" d="M 0,0 H -30.69 V 24.95 H 1.757 v 8.552 H -40.881 V -45.449 H 3.514 v 8.551 H -30.69 V -8.434 H 0 Z" style="fill:none;stroke:#848078;stroke-width:5;stroke-linecap:butt;stroke-linejoin:miter;stroke-miterlimit:10;stroke-dasharray:none;stroke-opacity:1" transform="matrix(1.3333333,0,0,-1.3333333,2100.9339,4207.9913)" />
      <path id="path61" d="m 0,0 h 10.191 v 34.204 h 9.605 C 29.05,33.853 33.267,29.753 35.61,18.859 37.835,9.02 39.593,2.226 40.881,0 H 51.423 C 49.784,3.046 47.91,10.659 45.333,21.671 43.458,29.87 39.827,35.493 33.736,37.602 v 0.35 c 8.317,2.812 14.876,9.723 14.876,20.149 0,6.09 -2.225,11.479 -6.208,14.993 -4.92,4.451 -11.948,6.442 -22.842,6.442 -7.028,0 -14.408,-0.585 -19.562,-1.64 z m 10.191,70.751 c 1.64,0.469 5.154,0.937 10.074,0.937 10.777,-0.117 18.156,-4.568 18.156,-14.759 0,-9.02 -6.911,-14.993 -17.805,-14.993 H 10.191 Z" style="fill:none;stroke:#848078;stroke-width:5;stroke-linecap:butt;stroke-linejoin:miter;stroke-miterlimit:10;stroke-dasharray:none;stroke-opacity:1" transform="matrix(1.3333333,0,0,-1.3333333,2123.266,4268.5903)" />
      <path id="path62" d="M 0,0 V -7.614 H 28.933 V 0 Z" style="fill:none;stroke:#848078;stroke-width:5;stroke-linecap:butt;stroke-linejoin:miter;stroke-miterlimit:10;stroke-dasharray:none;stroke-opacity:1" transform="matrix(1.3333333,0,0,-1.3333333,2200.1077,4221.2661)" />
      </g></svg>