<?xml version='1.0' encoding='utf-8'?>
<svg xmlns="http://www.w3.org/2000/svg" version="1.1" width="2782.070" height="2503.160" viewBox="199.538 499.344 2782.070 2503.160"><g id="object"><path id="path3" d="m 0,0 c 46.531,21.873 91.711,46.271 135.857,72.61 11.379,6.5 22.754,13 34.13,19.5 68.78,39.327 137.609,78.568 206.289,118.071 11.25,6.47 21.727,12.233 35.855,12.051 170.776,-2.192 341.565,-3.413 512.343,-5.521 106.911,-1.32 213.802,-4.631 320.739,-2.566 64.64,-3.539 129.254,-7.789 193.938,-10.129 16.701,-0.605 26.485,-6.237 35.335,-19.917 42.596,-65.846 86.161,-131.064 129.163,-196.65 4.975,-7.587 6.501,-17.744 17.465,-21.431 2.994,7.482 1.802,14.048 0.162,21.558 -14.165,64.881 -35.648,127.686 -56.21,190.558 -32.344,98.899 -51.199,202.446 -101.134,295.508 -7.823,14.58 -16.058,19.56 -31.359,20.483 -45.629,2.754 -91.329,5.492 -136.728,10.644 -97.725,11.091 -195.298,23.537 -292.9,35.699 -185.784,23.15 -371.6,46.059 -557.244,70.284 -23.661,3.088 -43.127,-0.246 -63.836,-11.69 C 267.218,535.71 151.87,473.627 36.958,410.754 -71.141,351.609 -178.997,292.021 -286.96,232.629 c -12.149,-0.513 -8.33,8.652 -8.275,14.601 0.61,66.497 1.714,132.991 2.137,199.489 0.091,14.354 5.287,23.595 17.546,31.754 222.553,148.132 444.889,296.593 666.95,445.462 13.202,8.851 25.576,11.772 41.036,9.654 151.302,-20.729 302.825,-39.91 453.921,-62.025 44.872,-6.568 90.135,-14.425 134.752,-20.207 47.229,-6.121 95.806,-10.555 143.496,-15.367 55.301,-5.58 110.769,-15.025 166.06,-23.469 31.558,-4.819 63.196,-9.668 94.982,-12.219 17.348,-1.392 25.349,-8.061 30.578,-24.629 46.693,-147.941 94.229,-295.615 141.538,-443.361 31.537,-98.486 63.132,-196.953 94.658,-295.443 25.523,-79.741 50.852,-159.545 76.66,-239.193 2.726,-8.41 4.174,-16.625 4.176,-25.306 0.023,-80.686 0.285,-161.373 -0.466,-242.051 -0.039,-4.232 8.923,-17.652 -7.618,-15.53 -1.016,2.375 -1.556,5.136 -3.118,7.07 -96.48,119.424 -193.178,238.671 -289.361,358.334 -8.375,10.42 -17.646,11.602 -29.408,11.257 -161.931,-4.743 -323.866,-9.377 -485.809,-13.701 -161.386,-4.311 -322.789,-8.026 -484.168,-12.588 -23.076,-0.652 -46.202,0.37 -69.3,-5.203 -41.532,-10.019 -82.435,-25.297 -123.771,-31.98 -65.518,-10.594 -122.115,-38.644 -183.554,-69.006 28.944,-17.846 56.369,-32.295 80.929,-50.589 24.689,-18.39 49.198,-22.632 77.076,-10.925 20.298,3.886 40.45,9.04 60.924,11.387 38.241,4.386 74.585,19.46 114.701,14.253 136.738,-17.747 273.731,-33.53 410.627,-50.067 108.636,-13.124 217.396,-25.32 325.87,-39.669 89.967,-11.901 179.998,-17.287 270.614,-11.637 12.331,-3.076 26.626,2.827 37.232,-8.14 64.668,-93.342 128.996,-186.921 194.096,-279.961 68.113,-97.344 68.798,-97.119 68.406,-217.521 -0.048,-14.576 8.036,-30.688 -4.272,-44.308 -82.998,75.247 -166.095,150.383 -248.834,225.912 -8.086,7.381 -17.119,7.78 -26.371,7.706 -102.002,-0.817 -203.123,8.462 -304.392,20.633 -150.918,18.139 -302.405,31.553 -453.667,46.81 -39.163,3.95 -79.028,4.838 -117.536,9.957 -52.751,7.011 -105.534,12.884 -158.476,17.847 -100.187,18.023 -198.353,45.127 -297.835,66.14 -37.824,7.99 -77.302,13.141 -113.704,23.704 -80.996,23.505 -163.99,37.614 -245.082,59.829 -22.013,6.031 -53.383,-0.823 -64.076,18.986 -9.785,18.127 -3.021,45.419 -2.823,68.666 1.092,128.664 2.537,257.325 3.502,385.99 0.14,18.763 1.111,32.461 26.299,34.966 15.996,1.591 30.804,14.51 46.299,22.029 6.402,3.107 12.665,10.765 20.429,2.147 0,-71.17 0,-142.341 0,-218.762 C -132.789,-88.563 -66.394,-44.281 0,0" style="fill:#fefefe;fill-opacity:1;fill-rule:nonzero;stroke:none" transform="matrix(1.3333333,0,0,-1.3333333,608.70107,1751.0092)" />
      <path id="path4" d="m 0,0 c 107.963,59.393 215.819,118.98 323.917,178.125 114.913,62.874 230.261,124.956 344.907,188.309 20.71,11.444 40.175,14.777 63.836,11.69 185.644,-24.226 371.461,-47.135 557.244,-70.285 97.602,-12.162 195.175,-24.608 292.901,-35.698 45.399,-5.152 91.099,-7.89 136.727,-10.644 15.301,-0.924 23.537,-5.904 31.36,-20.484 49.935,-93.062 68.79,-196.609 101.134,-295.508 20.561,-62.872 42.045,-125.677 56.21,-190.558 1.639,-7.509 2.831,-14.076 -0.163,-21.558 -10.963,3.687 -12.49,13.844 -17.465,21.432 -43.001,65.585 -86.566,130.804 -129.163,196.65 -8.849,13.679 -18.633,19.312 -35.334,19.916 -64.684,2.341 -129.298,6.591 -193.939,10.13 -0.065,39.784 -20.721,75.301 -23.777,114.865 -0.857,11.1 -6.767,26.964 -28.292,28.972 -74.698,6.967 -148.858,20.713 -223.631,25.544 -54.006,3.49 -107.933,9.661 -161.347,15.692 -43.228,4.882 -87.332,9.293 -130.579,14.266 -51.646,5.941 -103.481,17.167 -156.166,14.326 -3.341,-0.18 -6.787,0.976 -10.138,1.715 -55.271,12.197 -107.64,15.649 -159.839,-17.982 C 599.26,153.694 558.889,129.021 515.72,109.892 482.246,95.06 449.639,77.12 418.338,59.102 368.619,30.481 318.947,1.812 268.051,-24.72 c -3.335,-1.738 -9.091,0.287 -8.653,-6.4 0.393,-6.001 0.883,-10.503 8.321,-13.815 16.945,-7.544 32.687,-17.734 49.304,-26.081 46.536,-23.376 93.269,-46.363 139.923,-69.503 -11.375,-6.5 -22.75,-13 -34.129,-19.499 -56.116,10.867 -113.049,18.724 -168.038,33.716 -33.656,9.175 -64.245,29.479 -96.358,44.47 C 108.959,-58.74 59.553,-35.507 9.639,-13.426 2.192,-10.132 2.549,-4.88 0,0" style="fill:#cb4537;fill-opacity:1;fill-rule:nonzero;stroke:none" transform="matrix(1.3333333,0,0,-1.3333333,226.08827,1440.8377)" />
      <path id="path5" d="m 0,0 c -27.878,-11.707 -52.387,-7.464 -77.076,10.926 -24.56,18.294 -51.985,32.743 -80.929,50.589 61.439,30.362 118.036,58.411 183.554,69.005 41.336,6.684 82.239,21.961 123.771,31.981 23.098,5.572 46.224,4.55 69.3,5.203 161.379,4.562 322.782,8.277 484.168,12.587 161.943,4.325 323.878,8.958 485.809,13.702 11.762,0.344 21.033,-0.838 29.408,-11.258 96.183,-119.662 192.881,-238.91 289.361,-358.334 1.562,-1.934 2.102,-4.694 3.118,-7.069 -30.375,12.133 -64.489,1.257 -95.05,16.994 -13.661,7.034 -32.004,5.437 -48.064,0.538 -9.169,-2.796 -18.403,-5.984 -26.29,1.859 -34.984,34.789 -77.071,58.641 -121.14,79.442 -10.578,10.929 -24.873,5.026 -37.17,8.102 -35.886,18.886 -74.242,28.49 -114.708,27.421 -15.903,-0.419 -25.664,6.137 -33.549,18.504 -24.811,38.915 -52.035,76.538 -73.544,117.19 -8.508,16.081 -17.355,19.151 -31.443,18.624 C 877.271,104.051 825.105,102.483 772.81,98.642 660.433,90.389 547.44,98.293 434.58,88.158 350.581,80.614 265.473,85.433 180.859,84.687 172.323,84.611 164.243,82.4 155.879,80.5 106.171,69.213 67.949,32.104 18.364,20.417 11.243,18.739 -3.439,15.214 0,0" style="fill:#cb4537;fill-opacity:1;fill-rule:nonzero;stroke:none" transform="matrix(1.3333333,0,0,-1.3333333,948.28387,2154.3992)" />
      <path id="path6" d="m 0,0 c 52.943,-4.963 105.725,-10.836 158.476,-17.848 38.509,-5.118 78.373,-6.006 117.536,-9.956 151.262,-15.258 302.75,-28.671 453.668,-46.81 101.269,-12.171 202.39,-21.45 304.391,-20.634 9.252,0.074 18.286,-0.324 26.372,-7.705 82.738,-75.53 165.836,-150.666 248.834,-225.913 -51.345,-8.694 -103.388,-6.503 -154.381,-1.712 -21.665,2.035 -41.653,23.449 -63.654,34.144 -56.219,27.329 -114.274,47.18 -177.498,46.819 -13.498,-0.077 -22.763,4.273 -30.758,14.147 -27.66,34.161 -56.224,67.631 -82.749,102.648 -9.133,12.057 -18.992,15.018 -32.898,18.516 -44.21,11.122 -89.727,4.606 -133.521,12.278 -54.335,9.518 -109.168,12.739 -163.483,20.258 -67.02,9.277 -134.025,16.206 -201.386,21.894 -27.13,2.291 -53.225,9.584 -80.962,2.952 -16.615,-3.972 -28.672,13.376 -45.915,14.089 -17.545,0.727 -34.234,-5.77 -52.763,-0.155 -29.7,9.001 -58.064,20.549 -85.866,33.854 C 1.324,-8.12 1.103,-3.138 0,0" style="fill:#cb4537;fill-opacity:1;fill-rule:nonzero;stroke:none" transform="matrix(1.3333333,0,0,-1.3333333,1173.5127,2550.1289)" />
      <path id="path7" d="m 0,0 c -66.394,-44.281 -132.789,-88.563 -203.382,-135.645 0,76.421 0,147.592 0,218.762 25.264,7.291 42.513,-12.678 63.133,-19.964 C -99.422,48.726 -60.586,28.75 -20.239,12.806 -12.077,9.581 -7.168,3.494 0,0" style="fill:#cb4537;fill-opacity:1;fill-rule:nonzero;stroke:none" transform="matrix(1.3333333,0,0,-1.3333333,608.70107,1751.0092)" />
      </g></svg>