<?xml version='1.0' encoding='utf-8'?>
<svg xmlns="http://www.w3.org/2000/svg" version="1.1" width="440.924" height="501.490" viewBox="380.654 3607.080 440.924 501.490"><g id="object"><path id="path8" d="m 0,0 c 44.383,-3.526 86.655,-6.767 113.921,36.974 21.938,35.193 20.6,86.83 -3.197,119.868 C 87.928,188.488 49.068,199.295 0,186.952 Z m -93.829,273.299 c 60.82,0 120.085,6.076 177.509,-1.606 65.178,-8.72 113.069,-48.674 133.154,-114.097 C 238.1,88.324 230.188,21.427 179.28,-31.587 156.4,-55.414 121.779,-75.934 89.714,-81.253 30.191,-91.126 -31.365,-88.741 -93.829,-91.538 Z" style="fill:#231916;fill-opacity:1;fill-rule:nonzero;stroke:none" transform="matrix(1.3333333,0,0,-1.3333333,511.75973,3980.5221)" />
      </g></svg>