<?xml version='1.0' encoding='utf-8'?>
<svg xmlns="http://www.w3.org/2000/svg" version="1.1" width="166.177" height="284.385" viewBox="2002.500 525.783 166.177 284.385"><g id="object"><path id="path9" d="m 0,0 c -0.404,0.596 -0.687,1.462 -1.246,1.714 -0.576,0.26 -1.535,0.131 -2.13,-0.191 -2.767,-1.495 -3.249,-3.999 -2.562,-6.794 0.141,-0.574 0.955,-1.357 1.505,-1.396 3.104,-0.22 3.152,2.617 4.121,4.466 C 0.012,-1.583 -0.092,-0.741 0,0 m 57.225,-82.506 c -12.667,1.144 -25.038,-1.908 -37.572,-2.67 -9.056,-0.551 -14.033,-8.613 -13.929,-18.373 0.038,-3.625 -0.589,-6.983 -1.131,-10.41 -0.611,-3.86 -2.146,-7.52 -2.019,-11.571 0.196,-6.239 0.052,-12.489 0.052,-18.584 2.442,-2.702 5.358,-0.75 7.892,-1.316 2.301,-0.513 4.611,-1.238 6.935,-1.309 1.874,-0.058 3.921,0.398 5.636,1.184 7.302,3.346 14.595,5.2 22.781,3.137 3.679,-0.928 7.812,0.022 11.737,-0.029 7.748,-0.101 14.603,-1.992 19.43,-8.852 1.513,-2.15 4.298,-3.363 6.267,-5.249 1.379,-1.322 2.51,-2.973 3.467,-4.64 0.607,-1.057 0.303,-2.391 -0.943,-2.974 -0.617,-0.288 -1.533,-0.236 -2.218,-0.026 -2.753,0.845 -1.918,5.633 -5.522,5.361 -2.732,-0.205 -5.325,-0.129 -8.072,0.195 -6.224,0.736 -12.566,1.238 -18.809,0.894 -13.726,-0.757 -27.259,-3.127 -40.611,-6.409 -6.856,-1.685 -10.908,-5.823 -11.224,-13.237 -0.151,-3.561 -0.861,-7.003 -4.279,-9.224 -2.401,-1.561 -4.82,-1.023 -5.455,1.539 -0.945,3.812 -2.081,7.6 -2.679,11.468 -0.554,3.588 -2.055,5.683 -5.809,6.259 -3.029,0.465 -3.502,2.748 -2.765,5.349 1.101,3.888 2.96,7.291 6.575,9.43 2.206,1.305 3.396,3.216 3.53,5.753 0.931,17.648 4.222,35.152 3.101,52.936 -0.228,3.613 -1.461,5.859 -4.959,7.051 -2.725,0.929 -4.685,2.803 -5.068,5.93 -0.527,4.311 1.062,7.184 6.016,8.448 2.791,0.713 4.172,1.649 4.212,4.453 0.156,11.011 0.685,22.054 -1.165,32.971 -1.443,8.521 -3.295,16.973 -4.976,25.454 -1.225,6.178 -2.451,12.231 0.432,18.446 3.019,6.51 5.49,8.2 12.629,7.893 12.485,-0.538 24.98,-0.863 37.471,-1.283 1.379,-0.017 2.758,-0.029 4.139,-0.037 4.228,-2.887 8.431,-3.159 12.605,0.108 1.432,0.167 2.864,0.334 4.297,0.503 0.808,0.07 1.616,0.137 2.423,0.205 1.576,0.029 3.152,0.057 4.728,0.085 7.727,-1.314 15.406,-3.004 23.31,-2.898 0,0 -0.087,0.329 -0.085,0.329 0.016,-2.058 0.679,-3.759 2.609,-4.769 0,0 -0.115,0.047 -0.113,0.047 C 90.076,6.459 88.823,4.384 87.249,2.448 L 86.394,2.53 c 0,0 -0.788,-0.343 -0.788,-0.343 C 82.473,2.134 79.341,2.082 76.208,2.029 72.251,2.052 68.293,2.075 64.337,2.097 60.391,2.616 56.475,2.481 52.596,1.552 43.054,2.529 33.518,3.565 23.967,4.44 21.699,4.648 19.383,4.317 17.089,4.235 13.178,4.551 9.293,4.767 6.2,1.208 c 1.382,-4.083 5.63,-6.512 6.446,-10.887 0.069,-2.376 0.138,-4.751 0.205,-7.126 -1.201,-4.953 0.681,-9.652 1.19,-14.464 -0.688,-0.347 -0.914,-0.888 -0.669,-1.623 -1.215,-6.057 -2.769,-12.071 -3.546,-18.184 -0.535,-4.209 -0.168,-8.567 0.123,-12.836 0.259,-3.803 2.165,-5.591 6.108,-5.547 3.88,0.042 7.802,-0.717 11.515,-0.517 8.38,0.451 17.166,-0.872 24.976,3.691 1.571,-0.053 3.142,-0.106 4.713,-0.159 1.578,0.019 3.156,0.038 4.735,0.056 1.52,-0.125 3.041,-0.249 4.563,-0.372 1.137,-1.815 2.812,-2.513 4.899,-2.357 0.515,-0.344 1.018,-0.328 1.516,0.051 2.297,-1.436 4.554,-2.93 6.883,-4.298 5.428,-3.189 9.89,-7.483 13.339,-12.643 1.617,-2.421 -0.912,-3.082 -2.819,-3.515 -6.337,2.987 -12.77,5.555 -20.018,4.568 -1.561,1.957 -3.657,2.323 -5.976,2.029 z" style="fill:#548dc7;fill-opacity:1;fill-rule:nonzero;stroke:none" transform="matrix(1.3333333,0,0,-1.3333333,2037.7244,554.1916)" />
      </g></svg>