<?xml version='1.0' encoding='utf-8'?>
<svg xmlns="http://www.w3.org/2000/svg" version="1.1" width="116.475" height="198.812" viewBox="2628.880 1285.990 116.475 198.812"><defs id="defs1"><clipPath clipPathUnits="userSpaceOnUse" id="clipPath59">
      <path d="M 0,3370.3901 H 2383.9401 V -2.5000001e-5 H 0 Z" id="path59" />
    </clipPath>
  </defs><g id="object"><path id="path11" d="m 0,0 c -5.301,-42.925 -29.719,-75.11 -62.596,-102.189 -4.58,-3.772 -8.326,-3.281 -12.026,1.35 -3.87,4.843 -5.95,9.067 -0.068,14.202 6.552,5.72 13.373,11.483 18.523,18.386 10.919,14.633 23.538,28.521 -4.236,41.688 -15.941,7.557 -18.43,25.403 -10.499,41.769 C -63.055,31.4 -49,38.192 -31.465,34.364 -13.91,30.532 -1.003,21.024 0,0" style="fill:#ffffff;fill-opacity:1;fill-rule:nonzero;stroke:none" transform="matrix(1.3333333,0,0,-1.3333333,2739.3519,1339.1977)" />
      </g></svg>