<?xml version='1.0' encoding='utf-8'?>
<svg xmlns="http://www.w3.org/2000/svg" version="1.1" width="141.285" height="172.929" viewBox="1588.100 3045.390 141.285 172.929"><defs id="defs1"><clipPath clipPathUnits="userSpaceOnUse" id="clipPath18">
      <path d="M 0,3370.3901 H 2383.9401 V -2.5000001e-5 H 0 Z" id="path18" />
    </clipPath>
  </defs><g id="object"><path id="path9" d="m 0,0 c 0,-15.066 0.011,-30.132 -0.005,-45.199 -0.009,-8.256 -2.744,-13.496 -12.399,-13.428 -9.81,0.069 -11.964,5.748 -12.004,13.774 -0.02,3.965 -0.011,7.93 -0.015,11.895 -0.023,23.307 -15.735,33.476 -38.381,25.649 -7.371,-2.548 -6.879,-7.794 -7.072,-13.108 -0.316,-8.712 -0.37,-17.451 -0.074,-26.163 0.307,-9.06 -3.54,-12.935 -12.717,-12.652 -7.938,0.245 -14.159,1.278 -14.131,11.347 0.091,32.515 0.11,65.031 -0.161,97.545 -0.082,9.908 5.45,11.662 13.649,11.68 8.345,0.018 13.957,-2.153 13.444,-11.89 -0.208,-3.953 0.506,-7.994 -0.028,-11.881 -2.198,-16.002 3.056,-23.041 20.631,-22.127 15.551,0.809 27.095,2.464 24.317,22.042 -0.442,3.109 0.086,6.342 -0.07,9.507 -0.466,9.486 2.608,14.716 13.472,14.45 C -1.374,61.191 -0.007,55.63 -0.095,47.584 -0.27,31.724 -0.147,15.862 -0.147,0 -0.098,0 -0.049,0 0,0" style="fill:#ece8df;fill-opacity:1;fill-rule:nonzero;stroke:none" transform="matrix(1.3333333,0,0,-1.3333333,1723.3841,3133.3251)" />
      </g></svg>