<?xml version='1.0' encoding='utf-8'?>
<svg xmlns="http://www.w3.org/2000/svg" version="1.1" width="197.914" height="398.671" viewBox="828.184 1077.910 197.914 398.671"><g id="object"><path id="path118" d="m 0,0 c -2.979,-4.942 -2.641,-10.577 -3.439,-15.929 -0.983,-6.591 -1.143,-13.386 -2.884,-19.758 -1.384,-5.067 -1.478,-9.959 -1.626,-15.057 -0.443,-15.225 0.731,-30.554 -4.037,-45.496 -1.762,-5.523 -1.337,-11.663 -0.337,-17.53 0.34,-1.988 2.555,-3.412 4.356,-2.782 1.474,0.517 2.816,1.507 4.316,1.834 3.978,0.867 4.628,5.167 7.6,7.041 3.271,2.063 7.166,1.157 10.796,3.657 10.407,7.166 19.11,16.19 28.588,24.331 4.706,4.041 8.494,9.576 10.103,15.689 5.328,20.243 -3.061,36.649 -16.224,48.306 C 32.611,-11.62 26.709,-9.029 21.453,-5.679 14.959,-1.539 7.866,0.185 0,0 m -32.619,-8.355 c 0.124,3.945 0.247,7.89 0.373,11.835 0.939,3.151 1.878,6.303 2.816,9.455 4.608,1.56 9.3,2.707 14.187,2.889 1.421,-0.236 2.175,0.454 2.467,1.783 0,0 0.007,0.011 0.007,0.011 1.144,0.476 1.6,1.31 1.318,2.53 0.364,3.088 0.728,6.176 1.091,9.264 2.021,1.91 2.912,5.499 6.828,4.594 1.701,-1.815 2.354,-3.995 2.422,-6.45 0.097,-3.536 0.314,-7.068 0.483,-10.602 0.102,-2.132 0.78,-3.895 3.2,-4.177 C 8.855,12.045 13.152,6.834 19.715,5.922 25.267,5.15 30.538,1.544 35.658,-1.301 41.11,-4.33 46.26,-7.908 51.492,-11.323 c 0.955,-0.624 1.813,-1.512 2.476,-2.448 8.001,-11.293 13.605,-23.732 17.399,-37 0.42,-1.471 0.339,-3.13 0.264,-4.691 -0.4,-8.312 -3.601,-15.96 -6.866,-23.315 -2.628,-5.919 -7.916,-10.501 -9.932,-17.046 -0.802,-2.602 -3.42,-4.214 -5.798,-5.679 -1.996,-1.23 -4.36,-2.173 -5.844,-3.871 -7.983,-9.135 -18.817,-13.6 -29.412,-18.503 -1.051,-0.486 -2.461,-0.854 -2.986,-1.715 -3.709,-6.082 -10.028,-8.651 -15.798,-11.887 -4.707,-2.641 -6.685,-6.325 -5.961,-11.649 0.423,-3.106 0.537,-6.253 0.859,-9.374 0.161,-1.557 1.103,-3.332 0.624,-4.608 -3.979,-10.6 0.979,-20.969 0.699,-31.481 -0.146,-5.457 0.237,-10.935 -0.411,-16.412 -0.778,-6.568 -1.153,-12.982 0.266,-19.727 1.261,-5.99 0.276,-12.506 -0.095,-18.767 -0.245,-4.126 -2.127,-5.823 -5.701,-6.255 -4.696,-0.567 -8.237,1.226 -9.188,5.346 -0.784,3.4 -1.016,6.987 -1.037,10.494 -0.064,10.595 0.142,21.191 0.155,31.787 0.023,18.46 -0.018,36.92 -0.032,55.382 0.325,4.542 -4.306,6.217 -5.661,9.786 -2.434,-1.407 -4.99,-1.725 -7.796,-1.367 -1.476,0.189 -3.067,-0.689 -4.588,-0.627 -1.056,0.044 -2.179,0.731 -3.094,1.382 -1.005,0.715 -1.397,1.914 -0.919,3.092 0.262,0.645 0.868,1.281 1.485,1.615 0.654,0.353 1.503,0.468 2.269,0.474 4.502,0.036 8.624,0.278 9.5,6.23 0.208,1.416 1.457,-0.098 2.255,-0.752 2.183,-1.788 3.775,-1.51 3.871,0.551 0.108,2.323 -0.185,4.664 -0.304,6.997 0.873,2.571 1.733,5.144 1.175,7.929 0.2,0.26 0.575,0.524 0.57,0.778 -0.015,0.613 -0.207,1.221 -0.328,1.831 1.02,3.137 1.218,6.338 0.738,9.59 -0.009,0.81 -0.02,1.621 -0.031,2.432 1.529,7.079 0.243,14.01 -1.099,20.94 0.953,0.648 1.345,1.52 1.066,2.662 0.457,3.053 0.914,6.105 1.369,9.158 1.888,2.161 2.193,4.667 1.607,7.367 -0.12,2.286 -0.239,4.571 -0.358,6.856 0.205,0.754 0.455,1.498 0.604,2.262 2.389,12.222 2.905,24.755 6.687,36.772 1.496,4.753 1.697,9.969 2.046,15.004 0.16,2.31 -0.789,4.684 -3.663,5.253 -2.899,0.573 -5.887,-0.721 -6.686,-3.393 -1.449,-4.839 -3.35,-9.59 -3.355,-14.789 -0.003,-4.052 -1.099,-7.723 -4.555,-10.297 -0.098,1.633 -0.196,3.266 -0.292,4.897 3.43,4.01 0.461,7.853 -0.305,11.754" style="fill:#3675ba;fill-opacity:1;fill-rule:nonzero;stroke:none" transform="matrix(1.3333333,0,0,-1.3333333,924.50987,1129.4471)" />
      <path id="path195" d="m 0,0 c 0.119,-2.333 0.412,-4.674 0.304,-6.997 -0.095,-2.062 -1.688,-2.339 -3.871,-0.551 -0.798,0.654 -2.047,2.168 -2.255,0.752 -0.876,-5.953 -4.998,-6.194 -9.5,-6.23 -0.766,-0.006 -1.615,-0.121 -2.269,-0.474 -0.616,-0.334 -1.223,-0.97 -1.485,-1.615 -0.478,-1.178 -0.085,-2.377 0.919,-3.092 0.915,-0.651 2.038,-1.338 3.095,-1.382 1.52,-0.062 3.111,0.816 4.587,0.627 2.806,-0.358 5.362,-0.04 7.796,1.367 1.355,-3.569 5.986,-5.244 5.661,-9.787 -2.874,2.453 -6.108,3.194 -9.855,2.508 -3.451,-0.632 -6.971,-0.905 -10.466,-1.284 -5.407,-0.585 -9.835,1.715 -14.148,4.637 -4.384,2.969 -7.762,6.483 -8.448,12.448 4.724,2.82 9.563,4.831 15.344,3.543 5.147,-1.147 10.154,-0.785 14.572,2.434 C -7.001,-0.898 -3.253,-1.303 0,0" style="fill:#548dc7;fill-opacity:1;fill-rule:nonzero;stroke:none" transform="matrix(1.3333333,0,0,-1.3333333,887.43093,1296.5949)" />
      </g></svg>