<?xml version='1.0' encoding='utf-8'?>
<svg xmlns="http://www.w3.org/2000/svg" version="1.1" width="167.117" height="179.363" viewBox="667.048 2199.540 167.117 179.363"><defs id="defs1"><clipPath clipPathUnits="userSpaceOnUse" id="clipPath46">
      <path d="M 0,3370.3901 H 2383.9401 V -2.5000001e-5 H 0 Z" id="path46" />
    </clipPath>
  </defs><g id="object"><path id="path17" d="m 0,0 c 9.829,-0.857 21.449,1.295 22.917,-12.365 1.876,-17.447 3.709,-35.312 -12.838,-48.172 -22.635,-17.592 -59.296,-16.972 -80.669,1.568 -21.084,18.29 -28.136,55.638 -15.014,79.519 13.706,24.942 47.211,38.002 75.044,28.601 9.444,-3.19 24.126,-5.715 19.549,-19.308 -4.463,-13.256 -16.393,-4.539 -24.736,-1.429 -19.472,7.259 -34.914,0.269 -46.64,-14.349 -10.619,-13.24 -12.049,-29.712 -3.852,-44.561 8.079,-14.637 21.718,-22.426 39.284,-21.672 9.271,0.398 17.184,3.663 23.059,10.793 5.901,7.163 7.325,14.182 -3.023,18.929 -7.658,3.514 -23.282,-0.053 -18.381,15.15 C -21.696,3.886 -8.604,-1.327 0,0" style="fill:#424242;fill-opacity:1;fill-rule:nonzero;stroke:none" transform="matrix(1.3333333,0,0,-1.3333333,796.0268,2275.1477)" />
      </g></svg>