<?xml version='1.0' encoding='utf-8'?>
<svg xmlns="http://www.w3.org/2000/svg" version="1.1" width="141.828" height="103.254" viewBox="1057.310 4068.270 141.828 103.254"><g id="object"><path id="path130" d="m 0,0 c -0.779,-17.903 -11.153,-22.913 -24.084,-20.35 -3.602,0.715 -5.452,3.305 -6.217,6.086 -0.992,3.608 -0.741,7.443 5.08,6.254 2.052,-0.419 4.242,-0.718 6.294,-0.466 6.949,0.856 9.205,6.151 4.978,11.595 -2.466,3.177 -5.556,5.646 -9.004,7.837 -13.28,8.44 -12.043,25.652 -1.937,33.734 4.197,3.357 15.31,3.842 19.258,0.486 2.868,-2.438 3.049,-6.06 2.039,-9.191 -1.019,-3.16 -3.662,-0.672 -5.446,-0.37 -4.393,0.746 -8.202,0.488 -9.775,-4.454 -1.4,-4.396 0.188,-7.273 4.193,-9.985 C -6.901,15.948 1.318,10.597 0,0" style="fill:#494f57;fill-opacity:1;fill-rule:nonzero;stroke:none" transform="matrix(1.3333333,0,0,-1.3333333,1192.9489,4137.556)" />
      <path id="path153" d="m 0,0 c 4.008,0 8.017,0.049 12.024,-0.016 3.035,-0.048 5.766,-0.596 5.795,-4.56 0.025,-3.265 -0.191,-6.027 -4.589,-6.442 -5.377,-0.507 -6.445,-4.105 -6.342,-9.1 0.271,-13.203 -0.031,-26.417 0.01,-39.626 0.014,-4.4 -0.888,-7.279 -6.341,-6.768 -5.076,0.477 -7.541,2.937 -6.785,7.803 2.014,12.951 -0.569,25.973 0.893,38.947 0.407,3.612 -0.39,7.665 -5.805,8.003 -5.438,0.339 -5.294,4.724 -5.068,8.458 0.278,4.577 4.048,3.622 7.001,3.66 3.069,0.04 6.139,0.009 9.208,0.009 C 0.001,0.245 0,0.123 0,0" style="fill:#494f57;fill-opacity:1;fill-rule:nonzero;stroke:none" transform="matrix(1.3333333,0,0,-1.3333333,1119.6611,4076.1333)" />
      <path id="path163" d="m 0,0 c -13.955,-0.41 -14.964,-0.001 -14.313,17.629 0.548,14.797 -0.094,29.564 0.32,44.34 0.071,2.546 0.743,4.513 3.431,4.151 3.148,-0.427 7.626,1.92 8.986,-3.098 0.791,-2.914 1.289,-6.103 1,-9.079 -1.204,-12.399 0.264,-24.812 -0.502,-37.2 -0.34,-5.488 3.646,-5.422 7.181,-5.117 3.788,0.326 7.392,1.046 7.293,-4.488 C 13.308,2.146 11.492,-1.041 5.66,-0.049 3.824,0.264 1.889,0 0,0" style="fill:#494f57;fill-opacity:1;fill-rule:nonzero;stroke:none" transform="matrix(1.3333333,0,0,-1.3333333,1082.5845,4164.532)" />
      </g></svg>