<?xml version='1.0' encoding='utf-8'?>
<svg xmlns="http://www.w3.org/2000/svg" version="1.1" width="104.533" height="190.028" viewBox="1809.680 4252.790 104.533 190.028"><g id="object"><path id="path346" d="m 0,0 c 2.459,-0.147 4.165,1.271 5.536,3.401 1.69,2.628 3.289,5.363 5.332,7.699 1.324,1.513 3.492,1.778 5.455,0.802 1.588,-0.79 2.189,-2.314 1.853,-3.931 C 17.46,4.53 19.095,3.513 21.96,4.476 25.664,5.723 29.175,7.533 32.843,8.903 34.377,9.476 36.022,9.024 37.07,7.653 38.529,5.744 37.922,3.832 36.293,2.488 34.498,1.006 32.508,-0.347 30.4,-1.316 27.554,-2.625 24.579,-4.171 21.546,-4.473 8.742,-5.747 6.915,-15.794 4.387,-25.306 c -0.568,-2.14 0.802,-3.844 2.565,-4.851 2.787,-1.592 5.197,-3.586 7.118,-6.103 4.344,-5.692 4.263,-11.859 -0.343,-17.258 -3.088,-3.618 -6.723,-6.642 -11.349,-8.174 -2.249,-0.745 -5.142,0.428 -6.109,2.339 -1.038,2.052 -0.388,5.074 1.691,6.27 1.66,0.954 3.607,1.401 5.407,2.12 2.325,0.929 3.767,2.73 4.782,4.947 1.515,3.311 0.666,6.13 -2.513,8.03 -1.01,0.604 -2.073,1.165 -3.179,1.553 -9.21,3.232 -8.271,6.828 -6.241,13.496 0.343,1.127 0.81,2.217 1.169,3.34 2.986,9.322 3.041,9.453 -5.879,13.423 -15.476,6.886 -22.065,19.572 -22.936,35.616 -0.542,9.992 1.909,19.575 7.104,28.233 3.963,6.603 9.326,11.677 17.104,13.516 2.314,0.547 4.794,0.826 6.71,-0.995 C 0.244,69.478 0.68,68.22 0.825,67.149 0.897,66.618 0.101,65.718 -0.516,65.401 -1.538,64.877 -2.736,64.698 -3.855,64.356 -9.808,62.544 -14.079,58.71 -17.138,53.377 -23.967,41.473 -25.401,28.861 -21.615,15.778 -19.076,7.002 -9.321,0.099 0,0" style="fill:#1e4a94;fill-opacity:1;fill-rule:nonzero;stroke:none" transform="matrix(1.3333333,0,0,-1.3333333,1857.6867,4354.2564)" />
      </g></svg>