<?xml version='1.0' encoding='utf-8'?>
<svg xmlns="http://www.w3.org/2000/svg" version="1.1" width="75.042" height="104.085" viewBox="1083.010 4181.260 75.042 104.085"><g id="object"><path id="path61" d="m 0,0 c 0.608,7.408 0.257,14.493 -3.9,20.649 -1.421,2.103 -2.539,5.979 -6.177,4.612 -2.928,-1.099 -5.96,-2.578 -7.099,-6.293 -3.502,-11.414 -3.519,-22.702 0.693,-33.902 1.206,-3.206 3.024,-6.066 7.044,-5.998 3.885,0.066 5.713,2.964 7.198,5.926 C 0.163,-10.214 0.378,-5.009 0,0 m 13.803,0.032 c 0.597,-7.5 -0.941,-14.704 -4.978,-21.492 -7.549,-12.691 -26.972,-15.22 -36.421,-0.276 -7.917,12.521 -7.396,38.277 1.261,50.427 4.438,6.229 10.164,9.047 17.576,8.254 C 0.085,35.999 7.001,31.626 10.224,23.247 13.021,15.974 14.8,8.281 13.803,0.032" style="fill:#494f57;fill-opacity:1;fill-rule:nonzero;stroke:none" transform="matrix(1.3333333,0,0,-1.3333333,1133.2791,4236.69)" />
      </g></svg>