<?xml version='1.0' encoding='utf-8'?>
<svg xmlns="http://www.w3.org/2000/svg" version="1.1" width="92.947" height="145.777" viewBox="352.345 4535.280 92.947 145.777"><g id="object"><path id="path110" d="m 0,0 c 2.582,0.167 5.165,0.473 7.747,0.472 4.475,-0.003 6.393,-1.577 7.316,-5.662 1.391,-6.163 -0.394,-9.12 -6.492,-10.094 -6.812,-1.089 -13.689,-1.773 -20.499,-2.869 -5,-0.804 -5.331,-1.468 -5.066,-6.995 0.062,-1.294 0.098,-2.591 0.223,-3.879 1.344,-13.896 1.342,-13.839 14.961,-12.393 4.714,0.5 9.463,0.681 14.201,0.924 3.081,0.158 4.575,-1.619 5.426,-4.428 1.372,-4.522 -0.283,-8.514 -2.024,-12.436 -0.418,-0.943 -1.951,-1.855 -3.05,-1.96 -12.025,-1.152 -24.057,-2.27 -36.108,-3.11 -4.675,-0.326 -6.469,1.171 -6.52,5.958 -0.244,22.632 -5.52,44.458 -10.049,66.425 -1.216,5.9 -1.736,11.952 -2.401,17.954 -0.346,3.125 1.113,5.152 4.102,5.491 13.716,1.556 27.433,3.127 41.181,4.348 6.086,0.54 7.147,-0.684 8.569,-7.028 2.696,-12.027 1.93,-13.116 -10.504,-14.653 -4.708,-0.582 -9.492,-0.746 -14.122,-1.684 -4.526,-0.917 -6.979,-3.807 -6.598,-6.601 0.773,-5.657 2.785,-7.777 8.065,-8.02 3.874,-0.179 7.763,-0.036 11.645,-0.036 C 0.002,-0.184 0.001,-0.092 0,0" style="fill:#494643;fill-opacity:1;fill-rule:nonzero;stroke:none" transform="matrix(1.3333333,0,0,-1.3333333,414.8588,4591.7561)" />
      </g></svg>