<?xml version='1.0' encoding='utf-8'?>
<svg xmlns="http://www.w3.org/2000/svg" version="1.1" width="733.930" height="197.296" viewBox="1720.490 1508.640 733.930 197.296"><g id="object"><path id="path39" d="m 14.087147,0.00108594 h 16.125 V -50.037977 c 3.703125,0.9375 8.144531,1.113282 12.960937,1.113282 15.761719,0 29.660157,-4.628907 38.179688,-13.710938 6.304687,-6.480469 9.632812,-15.375 9.632812,-26.683594 0,-11.121093 -4.078125,-20.191403 -10.933593,-26.132813 -7.40625,-6.66797 -19.089844,-10.37109 -35.015625,-10.37109 -12.972657,0 -23.167969,1.11328 -30.949219,2.41406 z M 30.212147,-111.7372 c 2.777344,-0.73828 8.144531,-1.30078 15.1875,-1.30078 17.789062,0 29.460937,7.96875 29.460937,24.457035 0,17.238281 -11.859375,26.683593 -31.3125,26.683593 -5.378906,0 -9.820312,-0.363281 -13.335937,-1.289062 z M 112.6682,0.00108594 h 16.125 V -54.104383 h 15.1875 c 14.63672,0.550781 21.31641,7.03125 25.01953,24.269531 3.51563,15.5625 6.30469,26.3203129 8.34375,29.83593794 h 16.67578 C 191.4182,-4.8153203 188.45336,-16.862195 184.37523,-34.276258 181.41039,-47.248914 175.6682,-56.143445 166.03539,-59.483289 v -0.550781 c 13.16016,-4.453125 23.53125,-15.386719 23.53125,-31.875 0,-9.64453 -3.51563,-18.16406 -9.82031,-23.71875 -7.78125,-7.04297 -18.90235,-10.19531 -36.12891,-10.19531 -11.12109,0 -22.79297,0.92578 -30.94922,2.58984 z M 128.7932,-111.9247 c 2.58985,-0.73828 8.14453,-1.48828 15.92578,-1.48828 17.05078,0.1875 28.72266,7.23047 28.72266,23.355472 0,14.261719 -10.93359,23.71875 -28.16016,23.71875 H 128.7932 Z m 134.71289,-15.01171 c -33.36328,0 -58.00781,25.94531 -58.00781,65.601558 0,37.804688 23.16797,63.3750004 56.15625,63.3750004 31.86328,0 57.99609,-22.7929684 57.99609,-65.7890624 0,-37.054686 -22.05468,-63.187496 -56.14453,-63.187496 z m -0.75,13.16015 c 26.8711,0 39.84375,25.945315 39.84375,50.777346 0,28.347656 -14.44922,51.878906 -40.01953,51.878906 -25.39453,0 -39.84375,-23.90625 -39.84375,-50.589844 0,-27.421875 13.33594,-52.066408 40.01953,-52.066408 z m 77.83594,113.40234594 c 8.15625,0.92578125 17.78906,1.48828126 29.27344,1.48828126 24.28125,0 43.54687,-6.3046875 55.23047,-17.9765622 11.67187,-11.484375 17.96484,-28.171875 17.96484,-48.550782 0,-20.203125 -6.48047,-34.652343 -17.60156,-44.847653 -10.9336,-10.1836 -27.42188,-15.5625 -50.58985,-15.5625 -12.78515,0 -24.45703,1.11328 -34.27734,2.58984 z m 16.125,-110.99999594 c 4.25391,-0.92579 10.55859,-1.66407 18.89062,-1.66407 34.10157,0 50.77735,18.714847 50.58985,48.175785 0,33.726562 -18.71485,53.003906 -53.17969,53.003906 -6.30469,0 -12.23437,-0.1875 -16.30078,-0.925781 z m 107.28809,-13.52344 V 0.00108594 h 16.125 V -124.89735 Z m 35.75683,68.753905 v 12.046875 h 45.77344 v -12.046875 z m 0,0" style="fill:#848078;fill-opacity:1;fill-rule:nonzero;stroke:none" aria-label="PRODI-" transform="matrix(1.3333333,0,0,1.3333333,1714.3812,1690.5493)" />
      <path id="path40" d="m 0,0 h 16.122 v 50.032 c 3.706,-0.927 8.153,-1.112 12.971,-1.112 15.751,0 29.649,4.633 38.173,13.713 6.3,6.486 9.635,15.38 9.635,26.684 0,11.118 -4.076,20.198 -10.933,26.128 -7.412,6.671 -19.086,10.377 -35.022,10.377 -12.971,0 -23.163,-1.112 -30.946,-2.409 z m 16.122,111.738 c 2.779,0.741 8.153,1.298 15.194,1.298 17.79,0 29.464,-7.969 29.464,-24.46 0,-17.234 -11.86,-26.684 -31.317,-26.684 -5.373,0 -9.82,0.37 -13.341,1.297 z" style="fill:none;stroke:#848078;stroke-width:10;stroke-linecap:butt;stroke-linejoin:miter;stroke-miterlimit:10;stroke-dasharray:none;stroke-opacity:1" transform="matrix(1.3333333,0,0,-1.3333333,1733.1585,1690.5493)" />
      <path id="path41" d="M 0,0 H 16.122 V 54.109 H 31.316 C 45.956,53.553 52.626,47.067 56.333,29.834 59.854,14.269 62.633,3.521 64.671,0 H 81.349 C 78.754,4.818 75.79,16.863 71.713,34.281 68.748,47.252 63.003,56.147 53.368,59.483 v 0.556 c 13.156,4.447 23.533,15.38 23.533,31.872 0,9.636 -3.52,18.16 -9.821,23.719 -7.783,7.041 -18.901,10.192 -36.134,10.192 -11.118,0 -22.793,-0.927 -30.946,-2.594 z m 16.122,111.924 c 2.594,0.741 8.153,1.482 15.936,1.482 C 49.106,113.221 60.78,106.179 60.78,90.058 60.78,75.79 49.847,66.339 32.614,66.339 H 16.122 Z" style="fill:none;stroke:#848078;stroke-width:10;stroke-linecap:butt;stroke-linejoin:miter;stroke-miterlimit:10;stroke-dasharray:none;stroke-opacity:1" transform="matrix(1.3333333,0,0,-1.3333333,1864.6005,1690.5493)" />
      <path id="path42" d="m 0,0 c -33.355,0 -58,-25.943 -58,-65.598 0,-37.802 23.163,-63.374 56.147,-63.374 31.872,0 58,22.792 58,65.783 C 56.147,-26.128 34.096,0 0,0 Z m -0.741,-13.157 c 26.869,0 39.84,-25.942 39.84,-50.773 0,-28.352 -14.453,-51.885 -40.026,-51.885 -25.386,0 -39.84,23.904 -39.84,50.588 0,27.425 13.342,52.07 40.026,52.07 z" style="fill:none;stroke:#848078;stroke-width:10;stroke-linecap:butt;stroke-linejoin:miter;stroke-miterlimit:10;stroke-dasharray:none;stroke-opacity:1" transform="matrix(1.3333333,0,0,-1.3333333,2065.7139,1521.3045)" />
      <path id="path43" d="m 0,0 c 8.153,-0.927 17.79,-1.482 29.278,-1.482 24.275,0 43.547,6.3 55.221,17.974 11.674,11.489 17.975,28.166 17.975,48.55 0,20.198 -6.486,34.652 -17.604,44.843 -10.933,10.192 -27.426,15.566 -50.589,15.566 -12.785,0 -24.46,-1.112 -34.281,-2.594 z m 16.122,110.997 c 4.262,0.927 10.562,1.668 18.9,1.668 34.097,0 50.774,-18.716 50.589,-48.179 0,-33.725 -18.716,-52.997 -53.183,-52.997 -6.3,0 -12.23,0.185 -16.306,0.927 z" style="fill:none;stroke:#848078;stroke-width:10;stroke-linecap:butt;stroke-linejoin:miter;stroke-miterlimit:10;stroke-dasharray:none;stroke-opacity:1" transform="matrix(1.3333333,0,0,-1.3333333,2168.4944,1690.0552)" />
      <path id="path44" d="M 0,0 V -124.895 H 16.122 V 0 Z" style="fill:none;stroke:#848078;stroke-width:10;stroke-linecap:butt;stroke-linejoin:miter;stroke-miterlimit:10;stroke-dasharray:none;stroke-opacity:1" transform="matrix(1.3333333,0,0,-1.3333333,2333.0413,1524.0227)" />
      <path id="path45" d="M 0,0 V -12.044 H 45.77 V 0 Z" style="fill:none;stroke:#848078;stroke-width:10;stroke-linecap:butt;stroke-linejoin:miter;stroke-miterlimit:10;stroke-dasharray:none;stroke-opacity:1" transform="matrix(1.3333333,0,0,-1.3333333,2380.7256,1615.6867)" />
      </g></svg>