<?xml version='1.0' encoding='utf-8'?>
<svg xmlns="http://www.w3.org/2000/svg" version="1.1" width="452.955" height="471.219" viewBox="2536.290 3869.550 452.955 471.219"><defs id="defs1"><clipPath clipPathUnits="userSpaceOnUse" id="clipPath4">
      <path d="M -2384.1568,2286.7354 H -0.21670001 V -1083.6547 H -2384.1568 Z" id="path4" />
    </clipPath>
    <clipPath clipPathUnits="userSpaceOnUse" id="clipPath6">
      <path d="M -2384.0266,1933.815 H -0.086575 v -3370.39 H -2384.0266 Z" id="path6" />
    </clipPath>
    <clipPath clipPathUnits="userSpaceOnUse" id="clipPath8">
      <path d="M -2384.1847,2520.3537 H -0.24460001 V -850.0364 H -2384.1847 Z" id="path8" />
    </clipPath>
    <clipPath clipPathUnits="userSpaceOnUse" id="clipPath10">
      <path d="M -1378.8652,3371.3417 H 1005.0749 V 0.95157502 h -2383.9401 z" id="path10" />
    </clipPath>
    <clipPath clipPathUnits="userSpaceOnUse" id="clipPath12">
      <path d="M -2383.8391,1819.185 H 0.100925 v -3370.39 H -2383.8391 Z" id="path12" />
    </clipPath>
    <clipPath clipPathUnits="userSpaceOnUse" id="clipPath14">
      <path d="M -2384.2639,1767.3618 H -0.32387501 V -1603.0283 H -2384.2639 Z" id="path14" />
    </clipPath>
  </defs><g id="object"><path id="path50" d="M 0,0 C 0.492,-0.781 1.072,-1.562 1.437,-2.344 1.072,-1.562 0.492,-0.781 0,0 c 0.023,-2.098 0.047,-4.195 0.07,-6.293 0,0 0.682,0.067 0.68,0.065 -1.269,-6.063 -2.034,-12.22 -6.992,-16.499 4.958,4.279 5.723,10.436 6.989,16.497 -30.825,-13.832 -62.232,-23.073 -95.182,-7.681 -34.069,15.915 -47.814,45.77 -51.963,80.889 -3.187,26.986 -0.963,53.658 8.169,79.65 13.59,38.678 39.351,58.044 79.698,58.951 C -17.109,206.51 9.268,189.532 23.716,150.87 34.08,123.134 38.513,94.403 32.052,64.831 25.505,41.175 17.4,18.29 0,0 m 1.719,-3.127 c 0.062,-0.262 0.09,-0.524 0.071,-0.787 0.019,0.263 -0.009,0.525 -0.071,0.787 M 1.356,-5.098 c 0.182,0.264 0.302,0.527 0.37,0.79 -0.068,-0.263 -0.188,-0.526 -0.37,-0.79 M -5.2,-55.903 c 0.152,-0.483 0.26,-0.975 0.331,-1.475 -0.071,0.5 -0.179,0.992 -0.331,1.475 m 107.035,182.93 C 80.06,215.605 34.26,258.636 -47.338,267.182 c -7.064,-0.287 -14.134,-0.471 -21.191,-0.878 -43.655,-2.52 -83.061,-15.606 -111.756,-50.257 -20.342,-24.563 -28.977,-55.162 -37.85,-85.261 -16.341,-55.714 4.004,-103.606 32.673,-149.312 7.902,-12.598 17.374,-24.763 30.593,-32.603 46.71,-27.703 96.982,-30.915 149.049,-20.949 -0.86,4.041 1.123,8.818 1.065,13.18 0.059,-4.362 -1.925,-9.139 -1.065,-13.18 9.662,0.559 18.473,3.81 26.856,8.448 65.446,36.209 99.027,115.44 80.799,190.657" style="fill:#9e998f;fill-opacity:1;fill-rule:nonzero;stroke:none" transform="matrix(1.3333333,0,0,-1.3333333,2840.8975,4231.7936)" />
      </g></svg>