<?xml version='1.0' encoding='utf-8'?>
<svg xmlns="http://www.w3.org/2000/svg" version="1.1" width="451.015" height="1169.052" viewBox="2057.290 1415.950 451.015 1169.052"><g id="object"><path id="path6" d="M 0,0 C 0.154,0.356 0.505,0.789 0.405,1.046 0.306,1.3 -0.249,1.376 -0.604,1.531 -0.758,1.176 -1.111,0.743 -1.011,0.487 -0.911,0.232 -0.358,0.154 0,0 m 78.538,31.747 c 0.362,-0.161 0.723,-0.321 1.084,-0.482 0.158,0.362 0.515,0.799 0.416,1.065 -0.096,0.259 -0.662,0.343 -1.021,0.503 -0.16,-0.361 -0.32,-0.722 -0.479,-1.086 m 171.771,-236.938 c 1.593,-0.079 2.509,0.804 2.416,1.992 -0.164,2.082 -0.855,4.155 -3.239,4.72 -1.332,0.315 -2.342,-0.684 -2.219,-1.926 0.205,-2.071 0.946,-4.016 3.042,-4.786 M -4.252,59.276 c -1.755,-0.069 -3.435,-0.604 -2.956,-2.736 0.63,-2.807 3.086,-3.931 5.626,-4.41 1.635,-0.309 2.644,0.892 2.4,2.526 -0.418,2.802 -1.851,4.711 -5.07,4.62 m 82.763,-338.668 c 3.501,-0.401 6.25,0.921 5.799,3.812 -0.548,3.518 -4.649,1.929 -7.064,2.714 -2.429,0.791 -4.856,-1.274 -4.51,-3.83 0.468,-3.457 3.936,-2.307 5.775,-2.696 M -1.853,79.768 c 4.426,0.168 9.316,1.916 8.476,-4.884 -0.257,-2.085 2.424,-2.043 3.819,-2.209 2.082,-0.248 3.232,2.071 2.693,3.277 -1.282,2.868 -1,7.171 -4.162,8.359 -3.867,1.453 -7.717,0.16 -10.826,-4.543 M 33.108,-103.6 c -2.05,2.09 -4.112,4.462 -6.461,6.505 -1.939,1.686 -4.461,1.365 -6.747,0.768 -1.25,-0.327 -2.007,-1.807 -0.937,-2.739 3.16,-2.754 5.872,-6.162 9.983,-7.658 2.491,-0.906 3.331,0.846 4.162,3.124 m 216.694,-136.174 c -0.412,5.075 -6.248,2.656 -9.701,4.034 -2.338,0.933 -4.277,-0.78 -3.9,-3.431 0.828,-5.819 6.099,-4.917 9.896,-5.856 2.48,-0.614 3.922,1.056 3.705,5.253 M 81.262,21.578 c -0.225,-1.473 1.682,-5.902 -4.231,-3.075 -1.456,0.697 -3.353,-0.447 -2.114,-1.995 1.689,-2.109 4.145,-3.863 7.068,-4.215 1.74,-0.209 3.902,0.53 3.869,2.267 -0.068,3.587 4.73,6.04 2.4,9.689 -1.181,1.849 -3.736,3.315 -6.131,2.722 -2.035,-0.504 -1.265,-2.657 -0.861,-5.393 m 141.707,-541.573 c -1.713,-0.177 -4.371,1.184 -4.636,-1.441 -0.23,-2.284 2.117,-3.32 4.34,-3.704 2.516,-0.434 5.042,-0.835 7.533,-1.388 2.765,-0.615 4.39,0.594 5.648,2.929 1.025,1.904 1.126,3.516 -0.623,4.981 -2.257,1.891 -4.786,2.396 -6.877,0.147 -1.651,-1.776 -3.111,-2.726 -5.385,-1.524 m -116.988,248.422 c -0.157,0.554 1.927,5.371 -2.919,4.779 -3.829,-0.469 -5.935,-6.692 -11.288,-4.503 -0.208,-0.624 -0.714,-1.324 -0.577,-1.86 1.112,-4.367 3.489,-6.753 8.511,-6.439 4.167,0.262 7.854,0.149 6.273,8.023 M 17.395,71.448 c 6.18,3.133 10.996,0.534 14.576,-3.495 3.66,-4.119 6.006,-9.729 12.73,-4.52 0.38,0.294 1.5,0.217 1.852,-0.124 6.325,-6.119 8.169,-0.238 9.689,4.032 1.149,3.227 3.753,4.529 5.81,4.016 4.353,-1.085 10.185,1.539 12.888,-2.477 3.306,-4.911 4.319,-12.269 4.412,-17.158 0.114,-6.07 4.11,-8.843 5.314,-13.423 0.666,-2.532 3.938,-2.262 6.253,-1.508 2.911,0.949 1.823,3.169 1.519,5.306 -0.389,2.727 -1.49,5.068 -3.305,6.924 -3.85,3.933 -0.358,4.855 2.319,5.056 2.616,0.197 5.789,0.3 7.602,-2.496 0.862,-1.33 1.049,-3.53 3.225,-3.001 0.825,0.2 1.646,1.685 1.896,2.722 0.5,2.07 -0.447,3.885 -2.414,4.573 -3.979,1.393 -7.406,3.88 -11.638,4.926 -4.708,1.164 -7.726,3.929 -4.943,9.81 1.619,3.42 3.081,6.756 5.398,9.831 2.173,2.884 3.823,7.07 -1.402,8.293 -5.127,1.2 -6.268,3.306 -4.533,7.926 1.028,2.739 -0.068,5.024 -3.039,5.023 -2.425,-0.002 -5.421,-0.569 -4.482,-4.555 0.627,-2.667 0.071,-5.995 -1.773,-7.176 -3.557,-2.28 -2.531,-3.228 -0.248,-5.639 2.177,-2.3 2.66,-7.631 -0.626,-7.299 -6.594,0.667 -12.531,4.957 -18.919,7.329 -2.635,0.978 -5.476,4.487 -8.128,2.503 C 43.648,84.02 37.415,84 36.247,78.004 c -0.373,-1.915 -0.535,-4.041 -2.843,-4.301 -2.678,-0.302 -2.519,2.388 -3.211,3.956 -0.556,1.257 -0.663,2.739 -0.82,4.137 -0.272,2.425 -1.241,4.226 -3.97,3.877 -2.21,-0.283 -4.416,-1.331 -4.136,-3.971 0.421,-3.977 -2.131,-6.554 -3.872,-10.254 M 38.06,4.963 C 34.938,4.639 34.739,1.181 32.568,-0.161 30.406,1.653 28.304,3.547 26.062,5.257 24.402,6.523 21.948,8.75 20.499,7.398 16.528,3.695 13.406,7.347 9.969,7.803 8.13,8.047 6.382,8.956 4.543,9.229 2.982,9.461 1.045,9.828 0.193,7.877 -0.645,5.958 0.929,4.987 2.061,3.753 4.964,0.587 9.236,0.919 12.797,-0.3 c 3.723,-1.275 4.978,-2.917 3.187,-5.997 -3.567,-6.137 -0.848,-7.472 4.806,-7.096 2.005,0.134 3.728,-1.153 6.1,0.006 3.83,1.871 3.957,-2.835 5.824,-4.468 0.961,-0.84 -0.174,-2.922 -0.988,-2.858 -6.007,0.472 -12.894,-2.221 -17.813,2.048 -4.455,3.867 -5.786,1.218 -8.305,-1.57 -6.256,-6.926 -5.981,-15.699 -6.257,-23.917 -0.3,-8.907 1.96,-9.64 9.985,-4.588 11.313,7.122 24.187,10.142 36.71,14.063 2.848,0.891 9.29,9.306 7.955,11.862 -2.877,5.511 -1.494,10.865 -0.822,16.429 0.259,2.143 -0.512,4.644 2.329,4.932 3.638,0.369 2.101,-2.798 2.388,-4.555 0.321,-1.974 0.763,-3.79 2.927,-4.389 2.014,-0.558 3.957,-0.027 4.931,1.824 1.895,3.599 3.275,7.442 1.772,11.55 -0.98,2.678 -2.438,5.129 -5.489,1.885 C 59.435,2.095 57.631,3.364 54.913,5.126 48.857,9.053 41.178,8.629 38.06,4.963 M 55.137,16.46 c 3.955,-0.429 7.904,-0.936 11.868,-1.251 1.793,-0.142 4,-0.729 4.879,1.67 0.747,2.037 -0.239,3.79 -1.737,5.053 -2.689,2.265 -5.824,4.063 -8.24,6.569 -2.834,2.941 -4.929,3.011 -7.19,-0.369 -1.327,-1.984 -2.847,-4.354 -5.473,-3.808 -2.961,0.615 -3.32,3.639 -3.917,6.176 -0.388,1.655 0.037,4.82 -2.83,3.468 -4.309,-2.032 -7.371,-2.009 -10.307,2.159 -2.063,2.929 -2.965,-2.521 -5.403,-1.001 0.19,3.456 0.297,7.097 -5.019,7.128 -1.636,0.009 -2.666,2.114 -1.299,3.017 3.932,2.599 8.59,6.928 12.293,6.343 4.789,-0.759 10.45,-4.713 12.953,-8.939 2.927,-4.941 8.39,-5.558 10.354,-4.568 5.363,2.702 7.708,1.441 9.475,-5.538 2.679,11.285 -6.09,15.063 -9.08,21.579 2.437,2.155 5.329,-1.115 8.423,0.811 -2.073,2.107 -2.298,5.896 -6.859,4.045 -7.223,-2.931 -14.599,-8.574 -21.842,0.163 -0.495,0.598 -1.872,1.008 -2.605,0.774 -4.158,-1.329 -6.786,1.044 -9.285,3.641 -1.892,1.965 -3.926,2.965 -6.117,0.841 -2.935,-2.845 0.673,-4.024 1.856,-5.627 1.222,-1.653 3.63,-2.452 3.751,-4.911 0.106,-2.134 0.336,-4.72 -2.958,-4.343 -3.248,0.372 -6.588,0.834 -9.613,1.98 -2.445,0.927 -4.788,3.23 -6.541,-0.265 -1.64,-3.27 1.598,-3.879 3.611,-4.791 1.656,-0.751 2.988,-1.488 2.544,-3.597 -0.325,-1.546 -1.446,-1.546 -2.717,-1.446 -4.399,0.342 -6.268,-2.285 -5.773,-6.097 0.708,-5.458 5.844,-7.35 9.901,-8.478 4.893,-1.362 -0.034,4.847 3.264,5.863 0.443,-0.421 1.368,-0.914 1.33,-1.318 -0.589,-6.347 4.213,-10.121 7.29,-14.502 2.024,-2.882 5.392,-7.244 8.08,0.521 1.658,4.79 7.037,5.09 10.153,0.999 1.947,-2.556 3.276,-3.355 6.196,-1.214 1.884,1.381 4.981,4.231 6.595,-0.752 -0.584,-0.175 -1.168,-0.35 -1.752,-0.524 0.116,-0.175 0.232,-0.349 0.348,-0.523 0.464,0.354 0.928,0.708 1.393,1.062 m 230.407,-211.877 c 0.631,-4.72 4.169,-4.522 7.487,-4.157 2.324,0.256 5.141,1.046 4.961,3.985 -0.232,3.788 -3.291,1.178 -4.978,1.453 -2.542,0.415 -5.159,-0.065 -7.518,-1.341 0.661,2.561 -2.95,6.009 1.74,7.807 1.074,0.412 1.287,1.933 0.786,3.126 -0.799,1.904 -2.267,0.862 -3.586,0.786 -4.292,-0.248 -8.147,-1.351 -11.134,-5.225 4.121,-2.166 8.181,-4.3 12.242,-6.434 m -296.26,-207.144 c -0.063,1.003 -0.126,2.006 -0.188,3.008 2.52,8.346 4.357,16.698 0.262,25.112 -0.59,0.818 -0.591,1.635 0.003,2.451 2.853,7.185 5.073,14.372 0.067,21.582 -0.046,0.908 -0.093,1.816 -0.139,2.724 2.112,1.027 1.974,3.008 1.932,4.846 -0.229,10.136 -0.486,20.271 -0.819,30.404 -0.054,1.634 1.423,3.849 -1.395,4.708 0.089,0.905 0.177,1.81 0.266,2.715 1.49,0.69 1.957,1.932 1.81,3.463 -1.926,20.111 -0.994,40.279 -1.174,60.423 -0.052,5.865 -0.878,11.567 -2.67,17.14 0.138,1.074 0.276,2.148 0.413,3.221 1.211,3.267 1.595,6.492 -0.499,9.587 0.03,1.018 0.06,2.036 0.09,3.053 1.128,3.77 3.455,7.506 0.315,11.395 -0.721,1.864 -0.705,3.764 -0.271,5.683 2.62,5.164 1.3,10.738 1.014,15.982 -0.56,10.237 2.584,20.619 -1.117,30.716 0.101,2.476 0.202,4.951 0.303,7.426 1.287,7.38 3.657,14.246 8.148,20.437 2.599,3.582 3.932,7.944 4.184,12.493 l 0.406,0.12 0.323,-0.272 c 1.296,0.012 1.675,0.711 1.414,1.888 -0.481,4.985 6.948,5.322 6.161,10.487 0.315,2.57 9.206,4.87 1.058,7.165 -3.276,0.923 -10.269,0.698 -12.454,-5.52 -0.818,-0.146 -1.637,-0.293 -2.455,-0.439 -4.181,3.946 -2.331,-3.364 -5.746,-2.273 0,4.95 0.193,10.257 -0.084,15.54 -0.131,2.495 1.402,5.958 -2.704,7.05 0.021,1.416 0.041,2.831 0.061,4.247 3.878,1.608 6.114,6.852 11.486,5.169 1.312,-0.411 2.841,-1.127 3.532,0.81 0.565,1.586 -0.45,2.696 -1.644,3.539 -4.31,3.045 -8.649,6.048 -12.978,9.067 0.071,0.856 0.141,1.712 0.211,2.567 3.429,5.812 3.043,11.601 -0.114,17.371 -0.119,1.416 -0.238,2.831 -0.357,4.246 2.014,1.649 2.005,4.029 2.498,6.325 1.617,7.525 -5.024,15.781 1.99,22.866 0.158,0.16 -0.671,1.603 -1.291,2.175 -3.006,2.767 -2.349,4.098 1.204,6.06 5.141,2.84 4.872,5.679 -0.656,7.992 -3.326,1.393 -2.778,3.4 -2.946,6.088 -0.29,4.658 2.414,9.793 -1.78,13.951 -1.078,3.219 -0.815,6.412 0.192,9.59 2.74,8.229 3.41,16.42 -0.453,24.527 0.076,3.671 0.153,7.342 0.23,11.012 2.165,1.173 2.55,2.272 -0.135,3.243 -1.067,1.34 -0.552,2.776 -0.254,4.199 3.461,4.911 2.841,12.653 10.335,14.811 0.8,0.23 1.601,1.361 0.951,2.283 -0.442,0.627 -1.47,0.941 -2.299,1.181 -3.618,1.05 -5.705,-3.056 -9.119,-2.771 l -0.051,2.945 c 0.932,2.814 4.056,5.576 0.206,8.506 0.007,0.618 0.013,1.235 0.021,1.853 1.438,7.722 1.667,15.442 -0.045,23.157 -0.273,0.356 -0.269,0.708 0.013,1.058 1.566,4.723 2.607,9.49 2.424,14.55 -0.752,20.738 -2.969,41.404 -2.828,62.195 0.039,5.686 2.525,11.185 1.037,16.899 -1.367,5.246 1.14,6.835 5.925,6.819 15.501,-0.051 30.983,0.604 46.474,1.101 23.33,0.749 46.7,0.223 70.052,0.312 3.066,0.011 5.712,-0.103 6.263,-3.971 0.833,-5.849 4.608,-11.006 3.732,-17.324 -0.538,-3.874 -0.927,-7.962 -0.281,-11.766 1.365,-8.041 2.057,-16.832 1.41,-24.148 -1.227,-13.877 1.908,-27.475 0.107,-41.188 -0.951,-7.24 -1.54,-13.917 -11.271,-13.377 -0.461,0.026 -1.079,0.169 -1.365,-0.063 -1.788,-1.445 -2.048,-3.63 -2.354,-5.683 -0.11,-0.742 0.451,-2.189 0.954,-2.314 2.279,-0.567 2.483,1.493 3.218,2.913 1.088,2.102 2.325,1.685 3.897,0.315 8.689,-7.568 9.283,-10.499 3.829,-21.086 -1.649,-3.201 -3.159,-6.048 1.926,-7.673 2.635,-0.842 3.432,-2.992 2.086,-5.774 -2.309,0.876 -3.492,4.359 -6.71,2.733 -3.256,-1.645 -0.59,-4.197 -1.074,-6.197 -0.909,-3.754 1.184,-9.802 0.453,-10.37 -6.261,-4.868 -0.037,-7.236 1.701,-10.05 1.153,-1.868 2.953,-3.38 1.654,-5.568 -1.503,-2.535 -4.354,-1.961 -6.428,-1.249 -5.414,1.859 -10.747,0.001 -16.591,1.28 3.687,-7.835 11.974,-12.366 20.205,-12.018 1.031,0.044 2.15,-0.773 3.146,-1.335 5.556,-3.132 5.962,-6.718 2.104,-18.021 -3.806,3.82 -3.806,3.82 -12.29,4.838 -0.019,-2.245 0.445,-4.042 2.8,-5.133 2.53,-1.171 1.421,-3.184 0.482,-4.807 -1.319,-2.28 -2.763,-1.157 -3.889,0.229 -1.393,1.715 -2.998,2.707 -4.717,0.85 -2.225,-2.405 0.66,-3.059 1.823,-4.243 1.148,-1.169 2.808,-2.263 1.989,-4.145 -1.01,-2.32 -2.855,-0.51 -4.333,-0.501 -0.945,0.005 -1.891,0.115 -2.836,0.12 -1.441,0.009 -3.077,0.009 -3.286,-1.84 -0.211,-1.853 1.303,-2.434 2.78,-2.409 5.835,0.1 9.509,-4.919 15.582,-5.77 6.978,-0.977 11.47,-12.484 9.327,-20.396 -4.026,-14.866 3.039,-30.031 -1.859,-44.743 -0.067,-0.201 0.012,-0.464 0.064,-0.689 2.145,-9.321 2.577,-18.791 2.232,-28.295 -0.146,-4.02 1.361,-6.545 4.863,-8.618 5.32,-3.15 10.956,-2.312 16.599,-2.354 5.365,-0.04 11.495,1.313 15.406,-3.258 4.895,-5.722 7.407,-3.531 10.67,1.388 2.018,3.041 2.358,6.083 2.236,9.414 -0.429,11.755 -1.284,23.509 -1.249,35.261 0.096,31.882 -1.533,63.781 0.807,95.644 0.101,1.38 -0.793,2.126 -2.171,2.239 -0.067,0.989 -0.134,1.978 -0.201,2.966 1.992,2.246 2.186,4.227 -0.847,5.731 -0.08,0.922 -0.161,1.843 -0.242,2.765 3.735,1.065 2.443,4.199 2.416,6.515 -0.166,14.346 -1.208,28.715 -0.673,43.029 1.02,27.297 0.214,54.539 -0.627,81.809 -0.481,15.61 -0.185,31.245 -0.186,46.869 0,9.047 0.426,9.5 9.747,9.395 36.711,-0.416 73.422,-0.885 110.132,-1.352 13.263,-0.169 16.844,-4.248 14.735,-17.465 -2.31,-14.479 -0.046,-28.934 0.314,-43.348 0.351,-14.046 -0.428,-28.074 0.14,-42.151 0.678,-16.811 -0.756,-33.863 -0.799,-50.712 -0.033,-12.922 -0.597,-26.045 0.662,-39.036 0.411,-4.241 -0.204,-8.236 -2.322,-12.272 -2.457,-4.681 -3.128,-9.869 0.519,-14.729 2.101,-2.799 1.825,-6.243 1.91,-9.575 0.069,-2.731 -1.08,-5.676 1.082,-8.142 0.034,-0.991 0.067,-1.981 0.1,-2.972 -2.03,-1.964 -0.929,-4.468 -1.144,-6.738 -0.712,-7.521 1.649,-15.126 -0.163,-22.558 -2.712,-11.122 1.663,-21.845 1.371,-32.805 -0.004,-0.145 0.804,-0.311 1.233,-0.467 -0.007,-0.963 -0.015,-1.925 -0.022,-2.888 -2.088,-1.854 -2.253,-4.978 -2.474,-6.99 -0.731,-6.682 -3.679,-13.979 2.311,-19.979 0.041,-0.923 0.082,-1.846 0.123,-2.77 -1.821,-0.279 -2.414,-1.556 -1.961,-3.07 1.126,-3.761 0.458,-7.321 -0.078,-11.127 -0.829,-5.899 -1.599,-12.248 -0.246,-17.891 1.431,-5.971 1.13,-11.586 0.716,-17.416 -0.899,-12.658 -1.989,-25.386 0.79,-37.888 1.106,-4.977 1.45,-9.179 -1.866,-13.328 -2.025,-2.532 -3.408,-5.179 0.298,-7.799 1.991,-1.407 0.919,-3.861 1.171,-5.901 1.12,-9.057 -1.272,-17.932 -0.948,-26.995 0.334,-9.333 0.909,-18.785 0.47,-28.009 -0.356,-7.493 -1.387,-15.35 -0.233,-22.437 2.994,-18.378 0.308,-36.481 -0.908,-54.591 -0.542,-8.088 3.283,-15.206 2.322,-23.21 -0.451,-3.754 -2.57,-8.455 1.279,-12.057 0.018,-0.882 0.036,-1.764 0.053,-2.646 -5.526,-2.182 -3.312,-6.854 -2.69,-10.3 1.671,-9.263 1.049,-18.712 1.377,-27.922 0.281,-7.86 -0.526,-16.202 -0.557,-24.265 -0.082,-20.913 0.53,-41.829 1.169,-62.746 1.017,-33.355 0.27,-66.763 0.334,-100.149 0.021,-11.146 -2.163,-13.565 -13.332,-13.47 -19.049,0.163 -38.135,0.895 -57.133,0.754 -17.445,-0.13 -34.955,-0.373 -52.43,-0.827 -9.536,-0.249 -11.635,2.105 -11.083,11.617 0.221,3.808 1.898,7.969 -1.848,11.163 0.024,3.245 0.048,6.489 0.072,9.734 3.07,3.469 3.543,6.874 -0.25,10.174 -0.729,2.3 -0.322,4.576 0.144,6.85 3.551,3.308 3.121,6.703 0.221,10.152 -0.845,2.03 -0.765,4.102 -0.278,6.193 0.762,4.093 4.57,8.112 0.298,12.325 -0.169,0.402 -0.377,0.794 -0.49,1.212 -0.051,0.189 0.086,0.43 0.139,0.647 1.802,4.766 2.421,9.553 0.253,14.388 -0.005,0.983 -0.009,1.967 -0.013,2.949 0.272,3.577 2.75,7.109 0.224,10.745 -1.105,2.829 -0.887,5.711 -0.347,8.607 1.707,2.346 1.622,4.609 -0.319,6.784 -0.656,3.377 0.273,6.627 0.796,9.908 2.304,1.464 2.386,2.942 0.029,4.437 -1.415,2.493 -0.432,5.12 -0.426,7.693 1.189,4.975 1.875,9.942 -0.215,14.868 -0.068,1.045 -0.137,2.09 -0.205,3.135 2.015,2.645 1.997,5.38 0.361,8.186 -0.064,1.07 -0.127,2.139 -0.191,3.207 1.345,0.963 1.273,1.837 -0.165,2.624 -0.01,1.01 -0.02,2.02 -0.031,3.03 2.39,5.44 1.443,10.941 0.301,16.446 -0.295,0.366 -0.286,0.723 0.029,1.072 2.327,15.209 0.323,30.57 1.913,45.886 1.427,13.734 0.214,27.731 0.47,41.606 0.08,4.364 -3.326,9.799 3.023,12.758 -4.794,5.651 -0.442,11.867 -1.123,17.741 -2.097,18.073 -3.767,36.181 -3.128,54.376 0.464,13.179 1.28,26.296 -0.159,39.493 -0.54,4.96 -2.572,7.215 -6.9,9.379 -5.974,2.986 -13.201,-1.187 -18.6,4.035 -0.9,0.871 -2.436,-0.555 -3.266,-1.925 -1.777,-2.934 -4.509,-2.557 -6.709,-0.922 -2.125,1.579 -2.595,3.927 -2.313,6.901 0.255,2.685 -1.691,5.59 -4.912,5.903 -4.003,0.389 -2.27,-3.087 -2.904,-5.029 -2.66,-8.156 -3.615,-16.758 -5.173,-25.064 -2.315,-12.338 1.129,-25.105 1.681,-37.716 0.364,-8.335 -2.257,-16.158 -1.699,-24.458 0.349,-5.187 2.317,-11.162 -1.845,-16.075 -0.087,-0.102 0.038,-0.493 0.173,-0.66 5.14,-6.37 1.653,-14.448 4.146,-21.435 0.686,-1.924 -0.001,-5.308 -2.735,-6.83 -6.437,-3.583 -4.354,-7.362 -0.152,-10.979 1.536,-1.322 2.573,-2.559 2.564,-4.703 -0.056,-13.267 -0.047,-26.534 -0.011,-39.8 0.008,-3.036 0.484,-6.091 0.268,-9.103 -0.781,-10.867 -0.891,-21.73 -0.289,-32.602 0.121,-2.192 0.955,-4.117 2.674,-5.58 -0.038,-1.376 -0.076,-2.753 -0.114,-4.13 -5.883,-1.77 -1.003,-5.978 -1.727,-8.957 -2.563,-10.548 -0.189,-21.45 -0.334,-32.21 -0.088,-6.58 1.395,-13.303 1.121,-20.149 -0.555,-13.888 -0.537,-27.804 -0.488,-41.708 0.049,-14.029 -0.11,-28.093 0.835,-42.072 0.664,-9.814 -0.831,-19.621 0.468,-29.335 1.26,-9.42 -1.54,-13.898 -10.329,-13.126 -8.282,0.728 -16.429,-0.595 -24.664,-0.231 -10.122,0.449 -20.275,0.214 -30.415,0.211 -20.315,-0.007 -40.629,-0.084 -60.944,-0.068 -4.734,0.004 -6.715,2.65 -6.652,7.282 0.033,2.456 0.9,5.378 -2.32,6.798 -0.128,0.411 -0.3,0.815 -0.366,1.235 -0.029,0.186 0.157,0.406 0.247,0.612 4.52,10.528 0.595,21.081 0.043,31.62 -0.014,0.263 -0.739,0.489 -1.132,0.732 -0.601,1.327 -0.611,2.652 0.005,3.976 2.308,0.891 2.078,3.002 2.087,4.797 0.081,17.82 0.088,35.641 0.102,53.461 0.001,1.91 -0.006,3.863 -2.376,4.56 0.013,0.872 0.026,1.744 0.039,2.616 4.864,5.989 1.274,11.977 -0.005,17.966 0.018,0.659 0.037,1.317 0.056,1.975 4.747,2.657 1.454,7.101 1.502,10.222 0.188,12.23 2.557,24.712 -2.041,36.698 -0.234,1.457 -0.368,2.902 0.525,4.218 3.463,5.867 -0.089,11.814 0.198,17.718" style="fill:#08282e;fill-opacity:1;fill-rule:nonzero;stroke:none" transform="matrix(1.3333333,0,0,-1.3333333,2088.0788,1760.6977)" />
      <path id="path31" d="M 0,0 C 1.379,-0.113 2.273,-0.859 2.171,-2.239 -0.168,-34.102 1.46,-66.001 1.365,-97.882 c -0.035,-11.753 0.82,-23.507 1.249,-35.261 0.121,-3.331 -0.218,-6.373 -2.236,-9.415 -3.264,-4.918 -5.775,-7.109 -10.671,-1.388 -3.91,4.571 -10.04,3.218 -15.405,3.258 -5.643,0.042 -11.279,-0.796 -16.6,2.354 -3.501,2.073 -5.008,4.598 -4.862,8.619 0.345,9.504 -0.087,18.973 -2.232,28.294 -0.052,0.225 -0.131,0.488 -0.064,0.689 4.897,14.712 -2.168,29.877 1.859,44.744 2.142,7.911 -2.349,19.418 -9.328,20.396 -6.072,0.85 -9.747,5.869 -15.582,5.769 -1.476,-0.025 -2.99,0.556 -2.78,2.409 0.21,1.849 1.846,1.85 3.286,1.841 0.946,-0.006 1.891,-0.116 2.837,-0.121 1.478,-0.009 3.323,-1.818 4.333,0.502 0.819,1.881 -0.842,2.976 -1.99,4.145 -1.163,1.184 -4.048,1.837 -1.822,4.242 1.718,1.857 3.324,0.865 4.717,-0.85 1.125,-1.386 2.57,-2.508 3.889,-0.229 0.939,1.623 2.048,3.636 -0.482,4.808 -2.356,1.09 -2.82,2.887 -2.8,5.133 8.484,-1.019 8.484,-1.019 12.29,-4.838 3.858,11.302 3.451,14.889 -2.104,18.02 -0.997,0.562 -2.115,1.379 -3.146,1.336 -8.232,-0.349 -16.518,4.182 -20.205,12.018 5.844,-1.28 11.177,0.578 16.591,-1.281 2.074,-0.711 4.924,-1.286 6.428,1.249 1.298,2.189 -0.502,3.7 -1.655,5.568 -1.737,2.814 -7.962,5.183 -1.701,10.05 0.732,0.569 -1.362,6.616 -0.452,10.37 0.484,2 -2.183,4.552 1.074,6.197 3.218,1.626 4.401,-1.857 6.709,-2.733 1.347,2.782 0.55,4.932 -2.086,5.775 -5.084,1.625 -3.574,4.472 -1.925,7.672 5.453,10.587 4.86,13.518 -3.829,21.087 -1.573,1.369 -2.81,1.786 -3.898,-0.316 -0.735,-1.42 -0.939,-3.48 -3.218,-2.913 -0.503,0.125 -1.063,1.572 -0.953,2.315 0.305,2.053 0.566,4.238 2.354,5.683 0.286,0.231 0.903,0.088 1.364,0.063 9.732,-0.541 10.321,6.136 11.272,13.376 1.801,13.714 -1.334,27.312 -0.107,41.188 0.647,7.316 -0.045,16.107 -1.41,24.148 -0.646,3.805 -0.257,7.893 0.28,11.766 0.877,6.318 -2.898,11.476 -3.731,17.324 -0.551,3.868 -3.197,3.983 -6.263,3.971 -23.353,-0.089 -46.723,0.437 -70.053,-0.311 -15.491,-0.497 -30.972,-1.153 -46.473,-1.101 -4.786,0.015 -7.292,-1.573 -5.926,-6.819 1.488,-5.715 -0.997,-11.214 -1.036,-16.9 -0.141,-20.791 2.076,-41.457 2.828,-62.195 0.183,-5.06 -0.859,-9.826 -2.425,-14.549 -1.297,0.992 -1.444,2.442 -1.287,3.848 2.335,21.016 -2.298,41.827 -1.813,62.793 0.245,10.618 0.189,21.246 0.083,31.868 -0.044,4.394 2.404,5.958 6.165,6.047 11.093,0.262 22.19,0.385 33.285,0.533 9.81,0.132 19.598,0.379 29.411,0.932 12.355,0.696 24.81,-0.45 37.224,-0.698 7.958,-0.16 15.944,-0.55 23.871,-0.066 7.309,0.447 10.521,-1.717 10.362,-9.349 -0.539,-25.79 1.113,-51.535 1.364,-77.303 0.396,-40.798 0.401,-81.599 0.486,-122.4 0.012,-5.649 -0.536,-11.229 -1.57,-16.875 -0.914,-4.988 0.726,-10.547 1.514,-15.504 2.477,-15.596 0.281,-31.105 1.117,-46.618 0.774,-14.354 -0.819,-28.792 1.178,-43.146 1.048,-7.533 4.076,-10.552 11.598,-9.362 8.681,1.373 16.806,-0.006 24.793,-3.045 4.482,-1.706 5.365,0.918 5.96,4.346 1.48,8.51 -0.414,16.969 -0.368,25.471 0.128,23.836 -0.368,47.675 -0.565,71.513 -0.09,10.83 -0.07,21.66 -0.068,32.49 0,2.58 -0.252,5.265 1.985,7.248" style="fill:#494f57;fill-opacity:1;fill-rule:nonzero;stroke:none" transform="matrix(1.3333333,0,0,-1.3333333,2313.7727,1693.3048)" />
      <path id="path63" d="m 0,0 c -1.719,1.463 -2.553,3.388 -2.674,5.58 -0.602,10.872 -0.492,21.735 0.289,32.602 0.216,3.012 -0.26,6.067 -0.268,9.103 -0.036,13.266 -0.045,26.533 0.011,39.8 0.009,2.144 -1.028,3.381 -2.564,4.703 -4.202,3.617 -6.285,7.396 0.152,10.979 2.734,1.522 3.421,4.906 2.735,6.83 -2.493,6.987 0.994,15.064 -4.146,21.435 -0.135,0.167 -0.259,0.557 -0.172,0.66 4.161,4.913 2.193,10.888 1.844,16.075 -0.558,8.3 2.063,16.123 1.699,24.458 -0.552,12.611 -3.995,25.378 -1.681,37.716 1.558,8.306 2.514,16.908 5.173,25.064 0.634,1.942 -1.098,5.418 2.904,5.029 3.221,-0.313 5.167,-3.218 4.912,-5.903 -0.282,-2.974 0.188,-5.322 2.313,-6.901 2.2,-1.635 4.932,-2.012 6.709,0.922 0.83,1.37 2.366,2.796 3.266,1.925 5.399,-5.222 12.626,-1.049 18.6,-4.035 4.328,-2.164 6.36,-4.419 6.9,-9.379 1.439,-13.197 0.623,-26.314 0.159,-39.493 -0.639,-18.195 1.031,-36.303 3.128,-54.376 0.681,-5.874 -3.671,-12.09 1.123,-17.742 C 44.063,102.094 47.469,96.659 47.389,92.295 47.133,78.42 48.347,64.423 46.92,50.688 45.329,35.373 47.333,20.012 45.006,4.803 c -2.967,8.93 -1.782,18.167 -1.796,27.272 -0.027,17.109 0.229,34.23 0.529,51.327 0.32,18.284 -0.035,36.572 0.15,54.847 0.192,19.119 -0.649,38.282 -0.484,57.439 0.051,5.879 0.797,11.718 -0.061,17.681 -1.028,7.141 -5.699,10.872 -13.079,10.373 -7.765,-0.524 -15.387,-3.408 -23.505,1.18 -3.568,2.016 -5.939,-3.706 -6.509,-7.784 -1.976,-14.128 0.86,-28.222 0.384,-42.317 -0.428,-12.68 -0.811,-25.338 -0.839,-38.032 -0.013,-5.888 0.558,-11.74 0.428,-17.612 C -0.49,86.894 1.588,54.623 0.611,22.33 0.386,14.892 1.937,7.404 0,0" style="fill:#494f57;fill-opacity:1;fill-rule:nonzero;stroke:none" transform="matrix(1.3333333,0,0,-1.3333333,2256.0293,2317.0604)" />
      <path id="path77" d="m 0,0 c -2.162,2.466 -1.014,5.411 -1.083,8.142 -0.084,3.332 0.191,6.776 -1.909,9.575 -3.647,4.86 -2.977,10.048 -0.52,14.729 2.118,4.036 2.734,8.031 2.323,12.272 -1.259,12.991 -0.696,26.114 -0.662,39.036 0.043,16.849 1.477,33.901 0.798,50.712 -0.568,14.077 0.212,28.105 -0.139,42.151 -0.36,14.414 -2.624,28.869 -0.314,43.348 2.109,13.217 -1.473,17.296 -14.735,17.465 -36.711,0.467 -73.421,0.936 -110.132,1.352 -9.322,0.105 -9.747,-0.348 -9.747,-9.395 0,-15.624 -0.295,-31.259 0.186,-46.869 0.841,-27.27 1.647,-54.512 0.627,-81.809 -0.535,-14.314 0.507,-28.683 0.672,-43.029 0.027,-2.316 1.32,-5.451 -2.415,-6.515 -0.333,10.414 -0.842,20.826 -0.964,31.242 -0.3,25.721 -0.384,51.444 -0.628,77.165 -0.22,23.117 -0.653,46.232 -0.763,69.35 -0.05,10.69 2.141,12.65 12.636,12.633 24.076,-0.041 48.15,0.348 72.222,-0.756 15.934,-0.732 31.897,1.281 47.865,-0.527 6.403,-0.725 8.25,-3.672 8.238,-9.752 -0.049,-25.234 0.256,-50.469 0.459,-75.704 0.14,-17.367 0.719,-34.78 0.24,-52.089 C 1.666,81.458 3.436,60.154 1.615,38.992 0.653,27.813 1.648,16.958 2.422,5.964 2.582,3.693 3.067,1.062 0,0" style="fill:#494f57;fill-opacity:1;fill-rule:nonzero;stroke:none" transform="matrix(1.3333333,0,0,-1.3333333,2494.7873,1746.2417)" />
      <path id="path134" d="m 0,0 c 3.746,-3.194 2.069,-7.355 1.848,-11.163 -0.552,-9.512 1.547,-11.866 11.083,-11.618 17.475,0.455 34.986,0.698 52.43,0.827 18.998,0.142 38.084,-0.59 57.133,-0.753 11.169,-0.096 13.353,2.323 13.332,13.47 -0.064,33.386 0.683,66.794 -0.334,100.149 -0.639,20.917 -1.251,41.833 -1.169,62.746 0.031,8.063 0.838,16.405 0.557,24.265 -0.328,9.209 0.294,18.659 -1.377,27.922 -0.622,3.445 -2.836,8.117 2.69,10.3 2.188,-7.597 0.893,-15.444 1.55,-23.163 0.807,-9.491 1.159,-19.125 0.463,-28.606 -0.519,-7.071 -0.417,-14.036 -0.242,-21.075 0.338,-13.552 0.47,-27.111 0.499,-40.668 0.032,-15.18 0.794,-30.342 0.077,-45.553 -0.315,-6.663 0.06,-13.57 0.623,-20.234 0.676,-7.998 0.029,-15.969 0.057,-23.864 0.037,-10.278 -0.817,-20.523 0.352,-30.853 0.558,-4.929 -2.525,-7.767 -7.869,-7.748 -11.359,0.042 -22.718,-0.103 -34.077,-0.127 -28.625,-0.061 -57.25,-0.081 -85.875,-0.15 C 0.88,-25.922 -1.733,-23.291 -0.878,-12.498 -0.548,-8.333 -2.232,-4.022 0,0" style="fill:#494f57;fill-opacity:1;fill-rule:nonzero;stroke:none" transform="matrix(1.3333333,0,0,-1.3333333,2316.1215,2544.4773)" />
      <path id="path158" d="m 0,0 c -3.849,3.602 -1.729,8.303 -1.279,12.057 0.962,8.004 -2.864,15.121 -2.321,23.21 1.215,18.11 3.901,36.212 0.908,54.591 -1.155,7.087 -0.124,14.944 0.233,22.437 0.438,9.224 -0.136,18.675 -0.47,28.009 -0.325,9.063 2.067,17.938 0.947,26.995 -0.252,2.04 0.821,4.494 -1.17,5.901 -3.707,2.62 -2.324,5.267 -0.299,7.799 3.317,4.148 2.973,8.351 1.866,13.328 -2.779,12.501 -1.688,25.23 -0.79,37.888 0.414,5.83 0.715,11.445 -0.716,17.415 -1.353,5.644 -0.583,11.993 0.247,17.892 0.535,3.806 1.203,7.366 0.077,11.126 -0.453,1.515 0.14,2.792 1.961,3.071 4.348,-9.231 1.23,-18.997 1.663,-28.46 C 1.776,233.13 0.901,212.942 1.823,192.77 2.433,179.417 1.855,166.008 1.788,152.625 1.718,138.786 1.891,124.899 1.441,111.121 0.966,96.576 1.677,82.042 1.442,67.523 1.166,50.398 -0.533,33.182 1.305,16.043 1.894,10.547 1.311,5.276 0,0" style="fill:#494f57;fill-opacity:1;fill-rule:nonzero;stroke:none" transform="matrix(1.3333333,0,0,-1.3333333,2497.6409,2252.756)" />
      <path id="path161" d="m 0,0 c 3.22,-1.42 2.353,-4.343 2.32,-6.799 -0.063,-4.632 1.917,-7.278 6.652,-7.282 20.314,-0.016 40.629,0.062 60.944,0.069 10.139,0.003 20.293,0.237 30.415,-0.211 8.235,-0.365 16.382,0.958 24.663,0.231 8.79,-0.772 11.59,3.706 10.33,13.126 -1.299,9.714 0.196,19.52 -0.468,29.334 -0.945,13.98 -0.787,28.044 -0.836,42.072 -0.049,13.904 -0.066,27.821 0.489,41.708 0.274,6.846 -1.21,13.569 -1.121,20.15 0.145,10.76 -2.229,21.662 0.334,32.209 0.724,2.979 -4.156,7.187 1.727,8.958 1.764,-16.429 1.447,-32.947 1.757,-49.418 0.717,-38.16 0.82,-76.331 1.195,-114.497 0.06,-6.123 -0.751,-12.211 0.02,-18.384 0.601,-4.807 -1.13,-7.746 -7.139,-7.925 -21.714,-0.644 -43.415,-0.421 -65.129,-0.367 -17.475,0.044 -34.944,0.069 -52.419,0.279 C 1.652,-16.602 0.056,-15.619 -0.196,-3.393 -0.219,-2.264 -0.069,-1.131 0,0" style="fill:#494f57;fill-opacity:1;fill-rule:nonzero;stroke:none" transform="matrix(1.3333333,0,0,-1.3333333,2075.2792,2553.9865)" />
      <path id="path229" d="m 0,0 c -0.252,-4.549 -1.585,-8.911 -4.184,-12.494 -4.491,-6.191 -6.862,-13.056 -8.149,-20.436 -1.607,0.669 -1.931,2.18 -1.745,3.533 2.887,21.053 -2.501,42.099 -0.003,63.143 4.105,-1.092 2.572,-4.555 2.703,-7.051 0.277,-5.282 0.085,-10.589 0.085,-15.539 3.415,-1.091 1.565,6.219 5.744,2.271 C -2.528,9.435 -6.999,2.347 0,0" style="fill:#494f57;fill-opacity:1;fill-rule:nonzero;stroke:none" transform="matrix(1.3333333,0,0,-1.3333333,2087.838,1899.3533)" />
      <path id="path261" d="m 0,0 c 4.194,-4.157 1.49,-9.293 1.78,-13.95 0.168,-2.688 -0.38,-4.696 2.946,-6.088 5.528,-2.313 5.798,-5.153 0.656,-7.993 -3.552,-1.962 -4.21,-3.292 -1.204,-6.06 0.621,-0.571 1.45,-2.015 1.292,-2.174 -7.015,-7.086 -0.374,-15.341 -1.991,-22.867 -0.493,-2.295 -0.484,-4.675 -2.497,-6.325 -2.203,3.625 -1.079,7.738 -1.006,11.436 C 0.331,-36.01 -1.704,-17.999 0,0" style="fill:#494f57;fill-opacity:1;fill-rule:nonzero;stroke:none" transform="matrix(1.3333333,0,0,-1.3333333,2068.0169,1704.3956)" />
      <path id="path266" d="m 0,0 c -0.429,0.156 -1.237,0.322 -1.233,0.467 0.292,10.96 -4.083,21.683 -1.371,32.805 1.812,7.432 -0.549,15.037 0.163,22.558 0.215,2.27 -0.886,4.774 1.144,6.738 C 3.611,55.042 0.705,46.494 0.986,38.615 1.385,27.45 1.823,16.211 1.762,4.999 1.752,3.173 2.082,1.136 0,0" style="fill:#494f57;fill-opacity:1;fill-rule:nonzero;stroke:none" transform="matrix(1.3333333,0,0,-1.3333333,2496.6495,1833.6285)" />
      <path id="path269" d="m 0,0 c 1.792,-5.573 2.618,-11.275 2.67,-17.139 0.179,-20.145 -0.753,-40.313 1.174,-60.424 0.147,-1.531 -0.321,-2.773 -1.811,-3.463 -3.942,8.997 -1.062,18.481 -1.77,27.716 -1.186,15.464 -0.993,31.036 -1.267,46.564 C -1.044,-4.495 -1.883,-2.01 0,0" style="fill:#494f57;fill-opacity:1;fill-rule:nonzero;stroke:none" transform="matrix(1.3333333,0,0,-1.3333333,2071.0644,2059.3445)" />
      <path id="path300" d="M 0,0 C 2.37,-0.696 2.377,-2.649 2.376,-4.559 2.362,-22.38 2.355,-40.2 2.274,-58.02 c -0.009,-1.796 0.221,-3.907 -2.087,-4.798 -1.853,10.18 -0.971,20.519 -0.778,30.691 C -0.388,-21.43 -1.008,-10.687 0,0" style="fill:#494f57;fill-opacity:1;fill-rule:nonzero;stroke:none" transform="matrix(1.3333333,0,0,-1.3333333,2073.4255,2419.3304)" />
      <path id="path331" d="M 0,0 C 4.598,-11.987 2.229,-24.468 2.041,-36.698 1.993,-39.819 5.286,-44.264 0.539,-46.92 -1.557,-31.302 -0.957,-15.653 0,0" style="fill:#494f57;fill-opacity:1;fill-rule:nonzero;stroke:none" transform="matrix(1.3333333,0,0,-1.3333333,2072.8265,2326.6933)" />
      <path id="path338" d="M 0,0 C -0.348,-1.304 0.429,-1.614 1.015,-1.632 1.474,-1.646 1.95,-1.078 2.419,-0.77 2.044,-0.311 1.74,0.399 1.272,0.531 0.859,0.649 0.263,0.123 0,0 M -2.69,8.231 C 1.638,5.213 5.978,2.209 10.288,-0.836 11.482,-1.679 12.497,-2.789 11.932,-4.375 11.241,-6.312 9.712,-5.596 8.4,-5.185 3.027,-3.502 0.792,-8.746 -3.086,-10.354 -3.255,-4.152 -1.358,2.005 -2.69,8.231" style="fill:#494f57;fill-opacity:1;fill-rule:nonzero;stroke:none" transform="matrix(1.3333333,0,0,-1.3333333,2073.2593,1834.8912)" />
      <path id="path339" d="m 0,0 c 3.701,-10.097 0.557,-20.479 1.116,-30.716 0.287,-5.244 1.606,-10.818 -1.013,-15.982 -2.884,10.499 -1.57,21.226 -0.934,31.765 C -0.533,-9.981 -3.474,-4.738 0,0" style="fill:#494f57;fill-opacity:1;fill-rule:nonzero;stroke:none" transform="matrix(1.3333333,0,0,-1.3333333,2070.9912,1953.1617)" />
      <path id="path345" d="M 0,0 C 2.817,-0.859 1.341,-3.074 1.394,-4.708 1.728,-14.841 1.985,-24.976 2.214,-35.112 2.255,-36.95 2.393,-38.931 0.281,-39.958 -1.589,-26.651 -2.361,-13.336 0,0" style="fill:#494f57;fill-opacity:1;fill-rule:nonzero;stroke:none" transform="matrix(1.3333333,0,0,-1.3333333,2073.422,2170.9991)" />
      <path id="path347" d="m 0,0 c -5.99,6 -3.043,13.297 -2.311,19.979 0.22,2.012 0.386,5.136 2.473,6.991 C 3.513,17.959 1.007,8.984 0,0" style="fill:#494f57;fill-opacity:1;fill-rule:nonzero;stroke:none" transform="matrix(1.3333333,0,0,-1.3333333,2496.4033,1873.4383)" />
      <path id="path349" d="M 0,0 C 3.414,-0.285 5.5,3.821 9.119,2.771 9.947,2.531 10.975,2.218 11.418,1.59 12.068,0.669 11.267,-0.463 10.466,-0.693 2.972,-2.85 3.592,-10.593 0.132,-15.504 -2.124,-10.354 -2.755,-5.192 0,0" style="fill:#494f57;fill-opacity:1;fill-rule:nonzero;stroke:none" transform="matrix(1.3333333,0,0,-1.3333333,2067.2819,1613.6291)" />
      <path id="path379" d="M 0,0 C 0.394,-0.243 1.119,-0.469 1.133,-0.732 1.684,-11.272 5.61,-21.824 1.089,-32.353 -0.199,-21.6 -0.637,-10.818 0,0" style="fill:#494f57;fill-opacity:1;fill-rule:nonzero;stroke:none" transform="matrix(1.3333333,0,0,-1.3333333,2073.6676,2508.388)" />
      <path id="path403" d="M 0,0 C 4.094,-8.414 2.257,-16.766 -0.262,-25.112 -2.547,-16.716 -0.736,-8.364 0,0" style="fill:#494f57;fill-opacity:1;fill-rule:nonzero;stroke:none" transform="matrix(1.3333333,0,0,-1.3333333,2073.8899,2259.9521)" />
      <path id="path415" d="M 0,0 C 3.863,-8.107 3.193,-16.299 0.454,-24.528 -1.378,-16.383 -1.15,-8.2 0,0" style="fill:#494f57;fill-opacity:1;fill-rule:nonzero;stroke:none" transform="matrix(1.3333333,0,0,-1.3333333,2067.6688,1658.9051)" />
      <path id="path416" d="M 0,0 C 5.006,-7.21 2.786,-14.397 -0.067,-21.582 -1.515,-14.383 -1.118,-7.191 0,0" style="fill:#494f57;fill-opacity:1;fill-rule:nonzero;stroke:none" transform="matrix(1.3333333,0,0,-1.3333333,2073.9829,2227.908)" />
      <path id="path434" d="M 0,0 C 1.712,-7.716 1.483,-15.435 0.045,-23.158 -2.634,-15.444 -2.449,-7.724 0,0" style="fill:#494f57;fill-opacity:1;fill-rule:nonzero;stroke:none" transform="matrix(1.3333333,0,0,-1.3333333,2067.4565,1565.0132)" />
      <path id="path455" d="M 0,0 C 1.279,-5.989 4.869,-11.977 0.005,-17.966 0.503,-11.977 -3.242,-5.99 0,0" style="fill:#494f57;fill-opacity:1;fill-rule:nonzero;stroke:none" transform="matrix(1.3333333,0,0,-1.3333333,2073.4707,2391.8868)" />
      <path id="path459" d="M 0,0 C -0.287,-5.903 3.265,-11.85 -0.198,-17.717 -1.81,-11.793 -3.172,-5.871 0,0" style="fill:#494f57;fill-opacity:1;fill-rule:nonzero;stroke:none" transform="matrix(1.3333333,0,0,-1.3333333,2073.7912,2297.4463)" />
      <path id="path460" d="M 0,0 C 3.157,-5.771 3.543,-11.559 0.114,-17.371 -0.875,-11.587 -1.582,-5.801 0,0" style="fill:#494f57;fill-opacity:1;fill-rule:nonzero;stroke:none" transform="matrix(1.3333333,0,0,-1.3333333,2069.8016,1797.3319)" />
      <path id="path481" d="M 0,0 C 1.142,-5.505 2.089,-11.006 -0.3,-16.446 -3.25,-10.908 -1.603,-5.454 0,0" style="fill:#494f57;fill-opacity:1;fill-rule:nonzero;stroke:none" transform="matrix(1.3333333,0,0,-1.3333333,2315.9984,2312.0863)" />
      <path id="path492" d="M 0,0 C 2.089,-4.927 1.403,-9.894 0.214,-14.869 -2.751,-9.954 -2.239,-4.989 0,0" style="fill:#494f57;fill-opacity:1;fill-rule:nonzero;stroke:none" transform="matrix(1.3333333,0,0,-1.3333333,2315.9061,2360.9228)" />
      <path id="path506" d="M 0,0 C 2.168,-4.835 1.549,-9.621 -0.253,-14.387 -2.89,-9.544 -1.836,-4.765 0,0" style="fill:#494f57;fill-opacity:1;fill-rule:nonzero;stroke:none" transform="matrix(1.3333333,0,0,-1.3333333,2316.2663,2448.9116)" />
      <path id="path516" d="M 0,0 C 3.14,-3.888 0.813,-7.625 -0.316,-11.394 -2.343,-7.537 -2.429,-3.734 0,0" style="fill:#494f57;fill-opacity:1;fill-rule:nonzero;stroke:none" transform="matrix(1.3333333,0,0,-1.3333333,2071.4901,2023.0037)" />
      <path id="path534" d="M 0,0 C 4.273,-4.213 0.464,-8.232 -0.298,-12.325 -3.12,-8.146 -0.855,-4.09 0,0" style="fill:#494f57;fill-opacity:1;fill-rule:nonzero;stroke:none" transform="matrix(1.3333333,0,0,-1.3333333,2316.3973,2470.5739)" />
      <path id="path561" d="M 0,0 C 2.094,-3.096 1.71,-6.32 0.499,-9.587 -2.58,-6.543 -1.452,-3.28 0,0" style="fill:#494f57;fill-opacity:1;fill-rule:nonzero;stroke:none" transform="matrix(1.3333333,0,0,-1.3333333,2070.9496,2042.2665)" />
      <path id="path568" d="M 0,0 C 2.9,-3.449 3.33,-6.844 -0.221,-10.152 -1.727,-6.734 -1.861,-3.345 0,0" style="fill:#494f57;fill-opacity:1;fill-rule:nonzero;stroke:none" transform="matrix(1.3333333,0,0,-1.3333333,2316.3707,2495.264)" />
      <path id="path570" d="M 0,0 C 3.793,-3.3 3.32,-6.705 0.25,-10.175 -1.609,-6.827 -1.125,-3.421 0,0" style="fill:#494f57;fill-opacity:1;fill-rule:nonzero;stroke:none" transform="matrix(1.3333333,0,0,-1.3333333,2315.8837,2517.9331)" />
      <path id="path590" d="M 0,0 C 2.526,-3.636 0.048,-7.168 -0.224,-10.745 -2.74,-7.109 -1.873,-3.544 0,0" style="fill:#494f57;fill-opacity:1;fill-rule:nonzero;stroke:none" transform="matrix(1.3333333,0,0,-1.3333333,2316.5481,2430.6527)" />
      <path id="path611" d="M 0,0 C 1.636,-2.807 1.654,-5.542 -0.361,-8.187 -2.208,-5.37 -2.315,-2.632 0,0" style="fill:#494f57;fill-opacity:1;fill-rule:nonzero;stroke:none" transform="matrix(1.3333333,0,0,-1.3333333,2316.1133,2345.828)" />
      <path id="path623" d="M 0,0 C 3.85,-2.931 0.726,-5.692 -0.206,-8.507 -2.441,-5.615 -0.865,-2.816 0,0" style="fill:#494f57;fill-opacity:1;fill-rule:nonzero;stroke:none" transform="matrix(1.3333333,0,0,-1.3333333,2067.4881,1598.3599)" />
      <path id="path896" d="M 0,0 C -0.302,0.231 -0.585,0.498 -0.918,0.668 -0.996,0.707 -1.406,0.36 -1.382,0.29 -1.255,-0.074 -1.036,-0.405 -0.85,-0.748 -0.567,-0.5 -0.283,-0.253 0,0 m -12.091,12.607 c 3.118,3.666 10.797,4.09 16.853,0.163 2.718,-1.763 4.522,-3.031 7.124,-0.265 3.051,3.244 4.51,0.793 5.489,-1.885 1.503,-4.108 0.123,-7.951 -1.772,-11.551 -0.973,-1.85 -2.917,-2.381 -4.931,-1.824 -2.164,0.6 -2.605,2.416 -2.927,4.39 C 7.458,3.392 8.995,6.558 5.357,6.189 2.516,5.901 3.287,3.401 3.028,1.257 2.356,-4.307 0.973,-9.66 3.85,-15.171 c 1.335,-2.556 -5.107,-10.971 -7.955,-11.862 -12.523,-3.921 -25.397,-6.941 -36.709,-14.063 -8.026,-5.052 -10.285,-4.319 -9.986,4.588 0.276,8.217 0.002,16.991 6.257,23.917 2.519,2.788 3.85,5.436 8.305,1.57 4.92,-4.27 11.806,-1.577 17.813,-2.048 0.815,-0.064 1.949,2.017 0.989,2.858 -1.867,1.633 -1.995,6.339 -5.825,4.468 -2.371,-1.159 -4.095,0.128 -6.099,-0.006 -5.655,-0.377 -8.374,0.959 -4.807,7.096 1.791,3.08 0.536,4.722 -3.187,5.997 -3.561,1.219 -7.833,0.887 -10.736,4.053 -1.132,1.234 -2.706,2.205 -1.868,4.124 0.852,1.951 2.79,1.584 4.35,1.352 1.839,-0.273 3.587,-1.182 5.426,-1.426 3.437,-0.457 6.56,-4.108 10.53,-0.405 1.45,1.352 3.903,-0.875 5.563,-2.141 2.242,-1.71 4.344,-3.604 6.491,-5.414 4.13,-5.489 12.894,-4.057 16.791,2.895 -3.997,-0.193 -7.628,1.074 -11.284,2.225" style="fill:#494f57;fill-opacity:1;fill-rule:nonzero;stroke:none" transform="matrix(1.3333333,0,0,-1.3333333,2154.9464,1770.8895)" />
      <path id="path897" d="m 0,0 c -1.615,4.984 -4.711,2.133 -6.595,0.752 -2.92,-2.14 -4.249,-1.341 -6.196,1.214 -3.116,4.091 -8.495,3.792 -10.153,-0.998 -2.688,-7.766 -6.056,-3.403 -8.08,-0.522 -3.077,4.381 -7.879,8.156 -7.29,14.502 0.038,0.404 -0.887,0.897 -1.331,1.318 -3.297,-1.016 1.63,-7.224 -3.263,-5.863 -4.057,1.129 -9.193,3.021 -9.901,8.479 -0.495,3.811 1.373,6.439 5.773,6.096 1.271,-0.099 2.392,-0.1 2.717,1.447 0.444,2.108 -0.888,2.846 -2.544,3.596 -2.013,0.913 -5.251,1.522 -3.611,4.792 1.753,3.494 4.096,1.192 6.541,0.265 3.025,-1.147 6.365,-1.609 9.613,-1.981 3.294,-0.377 3.064,2.21 2.958,4.343 -0.121,2.459 -2.529,3.258 -3.751,4.912 -1.183,1.602 -4.792,2.781 -1.856,5.627 2.191,2.123 4.225,1.123 6.116,-0.842 2.5,-2.596 5.128,-4.97 9.285,-3.641 0.734,0.234 2.111,-0.176 2.606,-0.773 7.243,-8.738 14.619,-3.095 21.842,-0.164 4.561,1.851 4.786,-1.938 6.859,-4.045 -3.094,-1.926 -5.986,1.344 -8.423,-0.81 2.99,-6.517 11.759,-10.295 9.08,-21.579 -1.767,6.979 -4.112,8.239 -9.475,5.537 -1.964,-0.989 -7.427,-0.373 -10.354,4.568 -2.504,4.227 -8.164,8.181 -12.953,8.939 -3.703,0.586 -8.361,-3.743 -12.293,-6.343 -1.367,-0.903 -0.337,-3.007 1.299,-3.017 5.316,-0.03 5.209,-3.672 5.019,-7.128 2.438,-1.519 3.34,3.931 5.403,1.001 2.936,-4.168 5.998,-4.191 10.307,-2.159 2.867,1.352 2.442,-1.813 2.83,-3.467 0.597,-2.537 0.956,-5.561 3.916,-6.176 2.627,-0.547 4.146,1.823 5.474,3.808 2.261,3.38 4.356,3.31 7.19,0.369 2.415,-2.507 5.551,-4.305 8.24,-6.57 1.498,-1.262 2.484,-3.016 1.737,-5.052 -0.879,-2.4 -3.086,-1.813 -4.879,-1.67 -3.964,0.314 -7.913,0.822 -11.868,1.25 z" style="fill:#494f57;fill-opacity:1;fill-rule:nonzero;stroke:none" transform="matrix(1.3333333,0,0,-1.3333333,2161.6096,1738.7716)" />
      <path id="path898" d="m 0,0 c 1.741,3.7 4.293,6.277 3.872,10.254 -0.28,2.641 1.926,3.688 4.136,3.971 2.729,0.35 3.698,-1.452 3.97,-3.876 0.157,-1.399 0.264,-2.88 0.819,-4.137 0.693,-1.568 0.534,-4.258 3.212,-3.957 2.308,0.26 2.47,2.387 2.843,4.302 1.168,5.995 7.401,6.015 11.181,8.843 2.652,1.984 5.493,-1.526 8.128,-2.504 6.388,-2.371 12.325,-6.662 18.919,-7.328 3.286,-0.332 2.803,4.998 0.626,7.298 -2.283,2.412 -3.309,3.36 0.248,5.639 1.844,1.182 2.4,4.51 1.773,7.176 -0.939,3.987 2.057,4.554 4.482,4.555 2.971,10e-4 4.067,-2.284 3.039,-5.023 -1.735,-4.62 -0.594,-6.726 4.533,-7.926 5.225,-1.223 3.575,-5.408 1.402,-8.293 -2.317,-3.074 -3.779,-6.411 -5.398,-9.831 -2.783,-5.881 0.235,-8.645 4.943,-9.809 4.232,-1.047 7.659,-3.533 11.638,-4.926 1.967,-0.689 2.914,-2.504 2.414,-4.573 -0.25,-1.038 -1.071,-2.522 -1.896,-2.723 -2.176,-0.528 -2.363,1.672 -3.225,3.001 -1.813,2.796 -4.986,2.693 -7.602,2.497 -2.677,-0.201 -6.169,-1.123 -2.319,-5.057 1.815,-1.855 2.916,-4.197 3.304,-6.923 0.305,-2.138 1.393,-4.358 -1.518,-5.306 -2.315,-0.754 -5.587,-1.025 -6.253,1.508 -1.204,4.579 -5.2,7.352 -5.314,13.422 -0.093,4.89 -1.106,12.247 -4.412,17.159 -2.703,4.016 -8.535,1.392 -12.888,2.476 -2.057,0.513 -4.661,-0.788 -5.81,-4.015 -1.52,-4.27 -3.364,-10.152 -9.689,-4.033 -0.352,0.341 -1.472,0.419 -1.852,0.124 -6.724,-5.209 -9.07,0.401 -12.73,4.521 C 10.995,0.534 6.18,3.133 0,0" style="fill:#494f57;fill-opacity:1;fill-rule:nonzero;stroke:none" transform="matrix(1.3333333,0,0,-1.3333333,2111.2721,1665.4344)" />
      <path id="path899" d="m 0,0 c 1.581,-7.874 -2.105,-7.762 -6.272,-8.023 -5.023,-0.315 -7.4,2.071 -8.512,6.438 -0.137,0.537 0.369,1.237 0.577,1.861 5.353,-2.19 7.459,4.034 11.289,4.502 C 1.928,5.371 -0.156,0.554 0,0" style="fill:#494f57;fill-opacity:1;fill-rule:nonzero;stroke:none" transform="matrix(1.3333333,0,0,-1.3333333,2229.3864,2122.7944)" />
      <path id="path900" d="m 0,0 c -6.999,2.347 -2.528,9.435 -5.549,13.427 0.82,0.148 1.638,0.295 2.458,0.441 C 0.538,12.142 4.43,12.245 8.304,12.223 9.091,7.058 1.661,6.72 2.143,1.735 1.157,1.491 0.698,0.853 0.729,-0.152 L 0.405,0.12 Z" style="fill:#dedbe1;fill-opacity:1;fill-rule:nonzero;stroke:none" transform="matrix(1.3333333,0,0,-1.3333333,2087.838,1899.3533)" />
      <path id="path901" d="M 0,0 C 3.656,-1.151 7.287,-2.418 11.284,-2.225 7.387,-9.177 -1.376,-10.609 -5.506,-5.119 -3.32,-3.781 -3.122,-0.324 0,0" style="fill:#dedbe1;fill-opacity:1;fill-rule:nonzero;stroke:none" transform="matrix(1.3333333,0,0,-1.3333333,2138.8249,1754.0805)" />
      <path id="path902" d="m 0,0 c 2.274,-1.201 3.734,-0.252 5.385,1.524 2.091,2.25 4.62,1.745 6.877,-0.146 1.75,-1.466 1.649,-3.077 0.623,-4.981 -1.258,-2.336 -2.883,-3.544 -5.648,-2.93 -2.491,0.554 -5.016,0.954 -7.532,1.389 -2.224,0.384 -4.571,1.419 -4.34,3.703 C -4.371,1.184 -1.713,-0.177 0,0" style="fill:#494f57;fill-opacity:1;fill-rule:nonzero;stroke:none" transform="matrix(1.3333333,0,0,-1.3333333,2385.3703,2454.0249)" />
      <path id="path903" d="M 0,0 C -0.404,2.735 -1.175,4.889 0.861,5.393 3.256,5.986 5.811,4.52 6.992,2.671 9.322,-0.978 4.524,-3.431 4.592,-7.018 4.625,-8.756 2.463,-9.494 0.723,-9.285 c -2.923,0.351 -5.379,2.106 -7.068,4.215 -1.239,1.548 0.658,2.691 2.114,1.995 C 1.682,-5.903 -0.225,-1.474 0,0" style="fill:#494f57;fill-opacity:1;fill-rule:nonzero;stroke:none" transform="matrix(1.3333333,0,0,-1.3333333,2196.4284,1731.9265)" />
      <path id="path904" d="m 0,0 c 0.217,-4.196 -1.225,-5.867 -3.705,-5.253 -3.797,0.94 -9.068,0.037 -9.896,5.856 -0.377,2.652 1.562,4.365 3.9,3.432 C -6.248,2.656 -0.412,5.076 0,0" style="fill:#494f57;fill-opacity:1;fill-rule:nonzero;stroke:none" transform="matrix(1.3333333,0,0,-1.3333333,2421.1481,2080.3969)" />
      <path id="path905" d="m 0,0 c -4.06,2.134 -8.12,4.268 -12.241,6.435 2.986,3.873 6.841,4.977 11.133,5.224 1.32,0.076 2.787,1.119 3.587,-0.786 C 2.98,9.68 2.767,8.159 1.693,7.748 -2.998,5.949 0.614,2.502 -0.047,-0.06 Z" style="fill:#494f57;fill-opacity:1;fill-rule:nonzero;stroke:none" transform="matrix(1.3333333,0,0,-1.3333333,2468.8036,2021.2544)" />
      <path id="path906" d="m 0,0 c -0.83,-2.279 -1.671,-4.031 -4.161,-3.124 -4.111,1.496 -6.824,4.904 -9.984,7.658 -1.069,0.932 -0.313,2.411 0.937,2.738 2.286,0.598 4.809,0.919 6.748,-0.768 C -4.112,4.462 -2.05,2.09 0,0" style="fill:#494f57;fill-opacity:1;fill-rule:nonzero;stroke:none" transform="matrix(1.3333333,0,0,-1.3333333,2132.2221,1898.8307)" />
      <path id="path907" d="m 0,0 c 3.109,4.703 6.958,5.996 10.826,4.543 3.162,-1.188 2.879,-5.491 4.161,-8.359 0.54,-1.207 -0.61,-3.525 -2.693,-3.277 -1.395,0.166 -4.075,0.124 -3.818,2.208 C 9.316,1.916 4.426,0.167 0,0" style="fill:#494f57;fill-opacity:1;fill-rule:nonzero;stroke:none" transform="matrix(1.3333333,0,0,-1.3333333,2085.6085,1654.34)" />
      <path id="path908" d="M 0,0 C -3.874,0.022 -7.766,-0.081 -11.395,1.645 -9.211,7.863 -2.218,8.087 1.058,7.165 9.206,4.87 0.315,2.569 0,0" style="fill:#494f57;fill-opacity:1;fill-rule:nonzero;stroke:none" transform="matrix(1.3333333,0,0,-1.3333333,2098.9095,1883.0561)" />
      <path id="path909" d="m 0,0 c -1.839,0.389 -5.307,-0.761 -5.775,2.696 -0.347,2.556 2.081,4.621 4.51,3.83 C 1.149,5.74 5.251,7.329 5.799,3.812 6.25,0.921 3.501,-0.401 0,0" style="fill:#494f57;fill-opacity:1;fill-rule:nonzero;stroke:none" transform="matrix(1.3333333,0,0,-1.3333333,2192.7604,2133.2204)" />
      <path id="path910" d="M 0,0 C 2.359,1.276 4.976,1.756 7.517,1.342 9.205,1.066 12.263,3.676 12.496,-0.112 12.676,-3.051 9.858,-3.84 7.534,-4.097 4.217,-4.462 0.679,-4.66 0.047,0.06 Z" style="fill:#494f57;fill-opacity:1;fill-rule:nonzero;stroke:none" transform="matrix(1.3333333,0,0,-1.3333333,2468.7407,2021.334)" />
      <path id="path911" d="M 0,0 C 3.219,0.091 4.652,-1.819 5.071,-4.62 5.314,-6.254 4.305,-7.455 2.67,-7.147 0.13,-6.667 -2.326,-5.543 -2.956,-2.737 -3.435,-0.604 -1.755,-0.069 0,0" style="fill:#494f57;fill-opacity:1;fill-rule:nonzero;stroke:none" transform="matrix(1.3333333,0,0,-1.3333333,2082.4093,1681.6625)" />
      <path id="path912" d="M 0,0 C -2.095,0.769 -2.837,2.715 -3.042,4.786 -3.165,6.027 -2.155,7.027 -0.823,6.711 1.561,6.147 2.252,4.074 2.416,1.992 2.51,0.804 1.594,-0.079 0,0" style="fill:#494f57;fill-opacity:1;fill-rule:nonzero;stroke:none" transform="matrix(1.3333333,0,0,-1.3333333,2421.8237,2034.2855)" />
      </g></svg>