<?xml version='1.0' encoding='utf-8'?>
<svg xmlns="http://www.w3.org/2000/svg" version="1.1" width="839.360" height="444.023" viewBox="1698.830 241.365 839.360 444.023"><g id="object"><path id="path18" d="m 0,0 c 0,37.539 -1.149,70.906 0.402,104.148 1.042,22.356 -4.85,41.039 -17.172,59.347 -28.483,42.318 -56.057,85.256 -83.437,128.3 -4.774,7.506 -6.801,16.758 -11.586,29.021 31.657,0 58.424,1.059 84.994,-0.761 6.459,-0.442 14.134,-9.281 18.054,-16.097 16.559,-28.792 31.911,-58.279 49.728,-91.257 18.033,33.121 33.274,63.376 50.97,92.12 4.777,7.76 16.454,13.694 25.929,15.557 13.337,2.623 27.626,1.386 41.411,0.415 9.072,-0.639 17.972,-3.717 26.949,-5.702 -2.933,-8.164 -4.698,-17.013 -9.01,-24.369 C 161.586,264.031 147.221,236.198 128.459,211.806 90.908,162.986 76.149,109.87 81.481,48.258 85.635,0.26 82.306,-0.027 32.701,-0.001 23.104,0.004 13.506,0 0,0" style="fill:#231916;fill-opacity:1;fill-rule:nonzero;stroke:none" transform="matrix(1.3333333,0,0,-1.3333333,2283.8692,679.31067)" />
      <path id="path67" d="M 0,0 C -1.01,2.193 -1.992,4.328 -2.975,6.463 V 6.464 C -1.992,4.329 -1.01,2.193 0,0 m -54.88,27.927 h -61.267 c 9.886,22.185 18.816,42.224 29.986,67.289 11.576,-24.901 20.804,-44.752 31.281,-67.289 M -6.508,-6.501 c -0.394,-0.218 -0.813,-0.412 -1.255,-0.586 0.442,0.174 0.861,0.368 1.255,0.586 m 3.242,3.414 c -0.064,-0.138 -0.132,-0.271 -0.202,-0.402 0.07,0.131 0.138,0.264 0.202,0.402 m 0.639,1.974 c -0.02,-0.097 -0.041,-0.193 -0.063,-0.288 0.022,0.095 0.043,0.191 0.063,0.288 M 3.136,-6.814 C 2.41,-5.235 1.707,-3.708 1.02,-2.215 1.707,-3.708 2.41,-5.235 3.136,-6.814 M 70.246,-67.9 c -43.71,96.262 -87.284,192.589 -132.059,288.355 -3.351,7.166 -15.828,14.515 -23.558,14.014 -8.876,-0.576 -21.465,-7.812 -25.099,-15.587 -43.398,-92.839 -85.51,-186.281 -127.67,-279.695 -3.438,-7.618 -4.762,-16.19 -8.251,-28.488 26.5,0 49.026,-0.471 71.499,0.397 4.482,0.174 11.908,4.824 12.653,8.491 7.167,35.314 32.97,33.919 59.904,32.445 18.682,-1.023 37.568,-1.426 56.173,0.142 16.627,1.402 25.284,-4.852 31.315,-19.905 3.236,-8.078 10.558,-19.671 17.037,-20.367 23.094,-2.481 46.616,-0.97 74.005,-0.97 -2.926,10.614 -3.704,16.224 -5.949,21.168" style="fill:#231916;fill-opacity:1;fill-rule:nonzero;stroke:none" transform="matrix(1.3333333,0,0,-1.3333333,2033.3511,560.02267)" />
      </g></svg>