<?xml version='1.0' encoding='utf-8'?>
<svg xmlns="http://www.w3.org/2000/svg" version="1.1" width="121.047" height="184.327" viewBox="1545.540 1562.430 121.047 184.327"><defs id="defs1"><clipPath clipPathUnits="userSpaceOnUse" id="clipPath46">
      <path d="M 0,3370.3901 H 2383.9401 V -2.5000001e-5 H 0 Z" id="path46" />
    </clipPath>
  </defs><g id="object"><path id="path25" d="M 0,0 C 0,1.749 0.003,3.499 0,5.248 -0.102,66.331 6.531,71.95 67.459,62.766 74.614,61.688 82.481,61.125 81.617,51.406 80.934,43.714 73.936,42.734 67.697,42.416 59.842,42.015 51.959,42.199 44.093,41.965 33.427,41.648 22.131,42.16 21.729,26.687 21.332,11.365 31.922,10.648 43.036,10.462 51.777,10.317 60.534,10.31 69.251,9.743 75.605,9.329 82.068,7.655 81.749,-0.502 81.435,-8.533 74.768,-9.806 68.54,-10.142 58.067,-10.708 47.561,-10.626 37.072,-10.939 26.282,-11.26 21.365,-16.925 21.741,-27.696 c 0.345,-9.871 5.951,-14.036 15.048,-14.385 10.484,-0.402 20.992,-0.245 31.468,-0.769 6.214,-0.312 12.893,-1.407 13.486,-9.389 0.604,-8.134 -5.562,-10.471 -12.048,-10.562 -18.35,-0.256 -36.717,-0.298 -55.058,0.223 -11.166,0.317 -14.465,8.093 -14.467,17.975 -0.002,14.868 0,29.735 0,44.603 z" style="fill:#424242;fill-opacity:1;fill-rule:nonzero;stroke:none" transform="matrix(1.3333333,0,0,-1.3333333,1551.5376,1656.7732)" />
      </g></svg>