<?xml version='1.0' encoding='utf-8'?>
<svg xmlns="http://www.w3.org/2000/svg" version="1.1" width="2482.098" height="2738.490" viewBox="354.327 471.953 2482.098 2738.490"><g id="object"><path id="path3" d="m 0,0 c 39.7,31.049 77.844,57.901 112.343,88.82 26.818,24.035 52.73,50.697 72.706,80.447 61.716,91.909 27.939,213.261 -70.676,252.389 C 85.521,433.103 51.859,436.591 20.404,436.579 -100.968,436.533 -178.798,324.545 -139.561,209.959 -111.674,128.52 -50.537,69.816 0,0 m -316.498,-586.21 c -7.93,-10.343 -16.315,-20.868 -24.262,-31.713 -43.715,-59.655 -64.501,-126.02 -43.064,-198.066 12.297,-41.327 31.043,-82.795 55.725,-118.001 82.281,-117.362 221.467,-165.132 352.414,-123.629 118.2,37.462 205.034,120.259 291.823,204.824 -127.712,155.803 -253.938,309.794 -380.725,464.468 -19.043,-12.672 -35.666,-23.734 -51.77,-34.45 -68.484,61.967 -137.443,71.879 -189.742,28.617 -55.72,-46.091 -59.559,-112.745 -10.399,-192.05 m 67.971,420.157 c -63.629,72.253 -118.072,146.976 -154.66,233.789 -71.701,170.128 -40.097,404.746 127.392,530.008 111.626,83.484 239.62,106.075 375.065,90.912 C 207.823,676.504 305.507,636.799 384.635,558.89 517.814,427.764 543.323,218.265 447.565,57.116 384.781,-48.541 293.704,-126.039 197.605,-198.89 c -6.702,-5.081 -13.33,-10.258 -21.705,-16.71 120.439,-146.932 240.309,-293.171 362.385,-442.101 102.263,91.327 203.403,181.65 307.047,274.211 63.154,-70.251 125.566,-139.674 190.102,-211.461 -105.827,-94.982 -210.486,-188.916 -316.18,-283.78 117.625,-143.692 233.945,-285.789 354.212,-432.707 -19.668,0 -32.899,0 -46.13,0 -104.038,-0.013 -208.083,-0.593 -312.104,0.725 -12.096,0.154 -27.694,7.772 -35.494,17.095 -50.985,60.943 -100.263,123.316 -150.117,185.207 -8.405,10.435 -16.9,20.798 -24.746,30.446 -45.789,-40.02 -88.161,-81.172 -134.682,-116.928 -130.276,-100.13 -276.497,-161.334 -442.907,-156.672 -247.892,6.945 -441.242,111.941 -551.993,339.405 -98.39,202.076 -82.723,456.825 111.092,634.995 76.878,70.673 163.119,131.164 245.131,196.248 5.854,4.646 11.985,8.943 19.957,14.864" style="fill:#231916;fill-opacity:1;fill-rule:nonzero;stroke:none" transform="matrix(1.3333333,0,0,-1.3333333,1272.2975,1402.0216)" />
      <path id="path4" d="m 0,0 c -11.311,-10.408 -21.088,-19.405 -32.357,-29.774 -63.732,71.009 -126.479,140.921 -190.262,211.988 11.543,10.616 21.266,19.557 32.221,29.632 C -126.369,140.605 -63.479,70.63 0,0" style="fill:#231916;fill-opacity:1;fill-rule:nonzero;stroke:none" transform="matrix(1.3333333,0,0,-1.3333333,2830.4268,2039.5571)" />
      <path id="path5" d="m 0,0 c -7.176,-5.054 -12.794,-8.769 -18.139,-12.843 -5.27,-4.017 -10.262,-8.398 -15.417,-12.652 -2.968,1.768 -5.524,2.588 -7.073,4.313 -60.751,67.682 -121.411,135.446 -183.934,205.266 10.266,9.741 19.644,18.639 31.664,30.044 C -128.867,143.049 -66.087,73.36 0,0" style="fill:#231916;fill-opacity:1;fill-rule:nonzero;stroke:none" transform="matrix(1.3333333,0,0,-1.3333333,2743.7624,2119.8381)" />
      <path id="path6" d="m 0,0 c -41.008,-32.731 -80.409,-64.178 -122.115,-97.466 -17.199,23.474 -27.199,48.55 -18.165,78.616 8.794,29.27 27.868,48.312 58.282,53.208 C -48.057,39.821 -21.866,25.405 0,0" style="fill:#231916;fill-opacity:1;fill-rule:nonzero;stroke:none" transform="matrix(1.3333333,0,0,-1.3333333,1059.5031,2003.5257)" />
      </g></svg>