<?xml version='1.0' encoding='utf-8'?>
<svg xmlns="http://www.w3.org/2000/svg" version="1.1" width="1608.471" height="3863.930" viewBox="984.280 323.371 1608.471 3863.930"><g id="object"><path id="path3" d="m 0,0 v 41.75 c 25.915,4.104 51.236,5.975 75.391,12.3 119.497,31.287 186.712,112.641 203.949,231.342 12.047,82.967 15.283,167.663 16.44,251.67 2.549,185.221 -0.27,370.518 2.523,555.733 0.866,57.394 6.333,116.323 20.952,171.57 30.235,114.265 107.008,186.087 222.099,215.809 9.205,2.378 18.304,5.173 27.41,7.913 0.43,0.13 0.454,1.611 1.886,7.336 -7.307,2.693 -15.095,6.442 -23.307,8.462 -149.488,36.759 -240.095,139.215 -244.464,292.444 -6.027,211.371 -3.107,422.984 -7.29,634.429 -1.396,70.593 -6.312,142.401 -21.211,211.141 -22.538,103.989 -116.579,179.299 -222.919,191.216 -16.504,1.849 -32.941,4.297 -51.06,6.686 v 45.713 c 30.69,0 61.256,2.197 91.394,-0.459 61.886,-5.453 124.626,-8.473 185.081,-21.481 148.548,-31.963 226.91,-133.847 257.378,-276.748 23.551,-110.458 25.077,-223.069 24.278,-335.38 -1.107,-155.367 -5.534,-310.709 -6.857,-466.076 -0.282,-33.054 4.316,-66.636 10.775,-99.159 13.355,-67.25 55.63,-112.781 117.699,-138.217 40.882,-16.755 84.049,-27.937 127.438,-42.018 v -32.14 c -17.296,-3.589 -34.95,-7.07 -52.523,-10.927 -139.197,-30.549 -204.167,-106.729 -203.803,-249.156 0.417,-163.244 7.262,-326.463 8.607,-489.715 0.939,-114.022 0.747,-228.264 -5.349,-342.065 -4.736,-88.42 -29.86,-172.964 -85.119,-244.852 C 414.617,65.857 338.877,27.68 251.863,16.309 171.222,5.771 89.526,3.299 8.283,-2.569 5.958,-2.737 3.505,-1.137 0,0" style="fill:#231916;fill-opacity:1;fill-rule:nonzero;stroke:none" transform="matrix(1.3333333,0,0,-1.3333333,1121.488,4177.8609)" />
      <path id="path4" d="m 0,0 c -5.283,39.615 -10.816,79.199 -15.805,118.852 -18.798,149.404 -38.303,298.729 -55.523,448.315 -4.656,40.448 -6.8,82.291 -1.79,122.457 5.787,46.398 45.962,71.704 94.113,68.121 45.678,-3.399 80.184,-35.007 78.84,-82.271 C 98.075,613.554 91.381,551.553 83.121,490.082 62.025,333.101 38.947,176.385 16.368,19.605 15.316,12.302 11.421,5.408 8.85,-1.677 5.9,-1.118 2.95,-0.559 0,0" style="fill:#231916;fill-opacity:1;fill-rule:nonzero;stroke:none" transform="matrix(1.3333333,0,0,-1.3333333,1103.0823,1560.2632)" />
      <path id="path5" d="m 0,0 c 0.284,-49.853 -40.281,-90.734 -89.956,-90.654 -48.453,0.077 -88.972,40.07 -89.679,88.515 -0.735,50.346 38.83,91.029 88.854,91.363 C -40.099,89.563 -0.288,50.435 0,0" style="fill:#231916;fill-opacity:1;fill-rule:nonzero;stroke:none" transform="matrix(1.3333333,0,0,-1.3333333,1229.8065,1801.6711)" />
      <path id="path6" d="M 7.5361125,-0.00136563 V -6.8919906 l 5.4257815,-9.2812504 h -2.378906 l -2.320313,4.464844 c -0.6328125,1.21875 -1.1835937,2.2734376 -1.640625,3.3281251 H 6.575175 C 6.0712688,-9.5052719 5.5908,-10.489647 4.9697063,-11.708397 L 2.68455,-16.173241 H 0.3173625 l 5.109375,9.3046879 v 6.86718747 z M 17.828105,-11.884178 c -3.210938,0 -5.753907,2.2851561 -5.753907,6.1757811 0,3.6679688 2.425782,5.97656252 5.566407,5.97656252 2.8125,0 5.789062,-1.87500002 5.789062,-6.17578122 0,-3.5507813 -2.261719,-5.9765624 -5.601562,-5.9765624 z m -0.04687,1.582031 c 2.496093,0 3.480468,2.4960939 3.480468,4.4648439 0,2.625 -1.511718,4.5117187 -3.527343,4.5117187 -2.0625,0 -3.527344,-1.9101562 -3.527344,-4.4648437 0,-2.203125 1.078125,-4.5117189 3.574219,-4.5117189 z m 18.026367,-1.3125 h -2.109375 v 7.1250001 c 0,0.3867188 -0.07031,0.7734375 -0.199219,1.078125 -0.375,0.9375 -1.359375,1.921875 -2.777344,1.921875 -1.921875,0 -2.589843,-1.4882812 -2.589843,-3.6914062 v -6.4335939 h -2.121094 v 6.7851564 c 0,4.08984372 2.191406,5.09765622 4.007812,5.09765622 2.074219,0 3.292969,-1.23046875 3.84375,-2.16796872 h 0.04687 l 0.117188,1.89843747 h 1.875 c -0.07031,-0.9140625 -0.09375,-1.96874997 -0.09375,-3.16406247 z m 3.978516,-2.789062 v 2.789062 h -1.792969 v 1.605469 h 1.792969 v 6.3398436 c 0,1.359375 0.222656,2.390625 0.820312,3.02343752 0.503906,0.57421875 1.300781,0.87890625 2.285156,0.87890625 0.808594,0 1.464844,-0.1171875 1.863282,-0.28125 l -0.09375,-1.58203127 c -0.257813,0.070312 -0.667969,0.140625 -1.21875,0.140625 -1.183594,0 -1.582032,-0.8203125 -1.582032,-2.25 v -6.2695311 h 3.023438 v -1.605469 h -3.023438 v -3.339844 z m 7.476562,14.40234337 h 2.10937 V -7.0091781 c 0,-0.4101563 0.02344,-0.7148438 0.140625,-1.0078125 0.386719,-1.1484375 1.464844,-2.1093754 2.835938,-2.1093754 1.992187,0 2.683593,1.5820316 2.683593,3.4570316 v 6.66796877 h 2.109375 V -6.9154281 c 0,-4.0078129 -2.496093,-4.9687499 -4.054687,-4.9687499 -0.785156,0 -1.535156,0.246094 -2.15625,0.597656 -0.644531,0.363281 -1.183594,0.890625 -1.511719,1.4882814 h -0.04687 V -17.040428 H 47.26268 Z m 20.516602,0 V -11.614647 h -2.10938 V -0.00136563 Z M 66.724589,-16.196678 c -0.773437,0 -1.324219,0.574219 -1.324219,1.3125 0,0.726562 0.527344,1.300781 1.277344,1.300781 0.832031,0 1.359375,-0.574219 1.335938,-1.300781 0,-0.738281 -0.503907,-1.3125 -1.289063,-1.3125 z M 70.4658,-0.55214688 c 0.820313,0.48046875 1.992188,0.78515625 3.257813,0.78515625 2.765625,0 4.347656,-1.42968747 4.347656,-3.46874997 0,-1.734375 -1.03125,-2.7421875 -3.046875,-3.5039063 -1.511719,-0.5859375 -2.203125,-1.0195312 -2.203125,-1.96875 0,-0.8671875 0.691406,-1.5937501 1.933594,-1.5937501 1.089843,0 1.921875,0.3867189 2.378906,0.6796876 l 0.527344,-1.5351566 c -0.644532,-0.386718 -1.675782,-0.726562 -2.847657,-0.726562 -2.496093,0 -4.007812,1.535156 -4.007812,3.4101561 0,1.3945313 0.984375,2.5429688 3.070312,3.2929688 1.558594,0.5742187 2.15625,1.125 2.15625,2.1328125 0,0.9609375 -0.714843,1.7226562 -2.261718,1.7226562 -1.054688,0 -2.15625,-0.4335937 -2.777344,-0.8320312 z m 15.413086,0.55078125 h 2.109375 V -6.9857406 c 0,-0.3632813 0.04687,-0.7148438 0.140625,-0.984375 0.363281,-1.171875 1.441406,-2.1562504 2.835937,-2.1562504 1.992188,0 2.683594,1.5585941 2.683594,3.4335941 v 6.69140627 h 2.109375 V -6.9388656 c 0,-3.9843754 -2.496094,-4.9453124 -4.101562,-4.9453124 -1.921875,0 -3.257813,1.078125 -3.84375,2.1914061 h -0.04687 l -0.117188,-1.9218751 h -1.875 c 0.07031,0.960938 0.105469,1.9453126 0.105469,3.1406251 z M 104.1074,-11.884178 c -3.21094,0 -5.753905,2.2851561 -5.753905,6.1757811 0,3.6679688 2.425785,5.97656252 5.566405,5.97656252 2.8125,0 5.78906,-1.87500002 5.78906,-6.17578122 0,-3.5507813 -2.26171,-5.9765624 -5.60156,-5.9765624 z m -0.0469,1.582031 c 2.49609,0 3.48047,2.4960939 3.48047,4.4648439 0,2.625 -1.51172,4.5117187 -3.52735,4.5117187 -2.0625,0 -3.52734,-1.9101562 -3.52734,-4.4648437 0,-2.203125 1.07812,-4.5117189 3.57422,-4.5117189 z m 8.7832,-4.101562 v 2.789062 h -1.79297 v 1.605469 h 1.79297 v 6.3398436 c 0,1.359375 0.22266,2.390625 0.82031,3.02343752 0.50391,0.57421875 1.30078,0.87890625 2.28516,0.87890625 0.80859,0 1.46484,-0.1171875 1.86328,-0.28125 l -0.0937,-1.58203127 c -0.25781,0.070312 -0.66797,0.140625 -1.21875,0.140625 -1.18359,0 -1.58203,-0.8203125 -1.58203,-2.25 v -6.2695311 h 3.02344 v -1.605469 h -3.02344 v -3.339844 z m 20.90625,14.40234337 c -0.14063,-0.796875 -0.1875,-1.78124997 -0.1875,-2.78906247 v -4.3359375 c 0,-2.3320313 -0.86719,-4.7578124 -4.41797,-4.7578124 -1.46484,0 -2.85937,0.410156 -3.82031,1.03125 l 0.48047,1.3945311 c 0.82031,-0.5273437 1.94531,-0.8671871 3.02343,-0.8671871 2.37891,0 2.64844,1.7343746 2.64844,2.6953121 v 0.234375 c -4.48828,-0.023437 -6.98437,1.5117188 -6.98437,4.3242188 0,1.6757812 1.19531,3.33984372 3.55078,3.33984372 1.65234,0 2.90625,-0.8203125 3.55078,-1.73437502 h 0.0703 l 0.16406,1.46484377 z m -2.22656,-3.91406247 c 0,0.2226562 -0.0469,0.4570312 -0.11719,0.6796875 -0.33984,0.9726562 -1.30078,1.9335937 -2.8125,1.9335937 -1.07813,0 -1.99219,-0.6445312 -1.99219,-2.015625 0,-2.25 2.61328,-2.6601562 4.92188,-2.6132812 z m 11.00683,-10.4882809 v 2.789062 h -1.79297 v 1.605469 h 1.79297 v 6.3398436 c 0,1.359375 0.22266,2.390625 0.82032,3.02343752 0.5039,0.57421875 1.30078,0.87890625 2.28515,0.87890625 0.8086,0 1.46485,-0.1171875 1.86328,-0.28125 l -0.0937,-1.58203127 c -0.25781,0.070312 -0.66797,0.140625 -1.21875,0.140625 -1.18359,0 -1.58203,-0.8203125 -1.58203,-2.25 v -6.2695311 h 3.02344 v -1.605469 h -3.02344 v -3.339844 z m 9.58594,14.40234337 V -11.614647 h -2.10937 V -0.00136563 Z M 151.0615,-16.196678 c -0.77343,0 -1.32422,0.574219 -1.32422,1.3125 0,0.726562 0.52735,1.300781 1.27735,1.300781 0.83203,0 1.35937,-0.574219 1.33594,-1.300781 0,-0.738281 -0.50391,-1.3125 -1.28907,-1.3125 z m 4.56153,16.19531237 h 2.0625 V -7.0091781 c 0,-0.3632813 0.0469,-0.7148438 0.16406,-1.03125 0.33984,-1.0546875 1.30078,-2.1093749 2.61328,-2.1093749 1.60547,0 2.42578,1.3359374 2.42578,3.1874999 v 6.96093747 h 2.0625 V -7.1732406 c 0,-0.3867188 0.0703,-0.7734375 0.17578,-1.0546875 0.35157,-1.0429688 1.28907,-1.9218749 2.4961,-1.9218749 1.69922,0 2.51953,1.3359374 2.51953,3.5742186 v 6.57421877 h 2.0625 V -6.8451156 c 0,-4.0312504 -2.28516,-5.0390624 -3.82031,-5.0390624 -1.10157,0 -1.875,0.292969 -2.56641,0.820312 -0.48047,0.363282 -0.9375,0.867188 -1.30078,1.5117191 h -0.0469 c -0.5039,-1.3710941 -1.69922,-2.3320311 -3.28125,-2.3320311 -1.92187,0 -3,1.03125 -3.65625,2.1445311 h -0.0703 l -0.0937,-1.8750001 h -1.85156 c 0.0703,0.960938 0.10547,1.9453126 0.10547,3.1406251 z m 29.34375,-5.42578127 c 0.0234,-0.2109375 0.0703,-0.5507812 0.0703,-0.984375 0,-2.1328125 -1.00781,-5.4726561 -4.79297,-5.4726561 -3.38672,0 -5.44922,2.7656249 -5.44922,6.2695311 0,3.5039063 2.13281,5.84765627 5.70703,5.84765627 1.85157,0 3.11719,-0.375 3.86719,-0.71484375 l -0.36328,-1.51171872 c -0.78516,0.3398437 -1.69922,0.5976562 -3.21094,0.5976562 -2.10937,0 -3.9375,-1.171875 -3.98437,-4.03125 z m -8.13282,-1.5117187 c 0.16407,-1.4648438 1.10157,-3.4335934 3.23438,-3.4335934 2.37891,0 2.95312,2.0859371 2.92969,3.4335934 z m 20.82715,-4.9453124 c -3.21093,0 -5.7539,2.2851561 -5.7539,6.1757811 0,3.6679688 2.42578,5.97656252 5.5664,5.97656252 2.8125,0 5.78907,-1.87500002 5.78907,-6.17578122 0,-3.5507813 -2.26172,-5.9765624 -5.60157,-5.9765624 z m -0.0469,1.582031 c 2.49609,0 3.48047,2.4960939 3.48047,4.4648439 0,2.625 -1.51172,4.5117187 -3.52735,4.5117187 -2.0625,0 -3.52734,-1.9101562 -3.52734,-4.4648437 0,-2.203125 1.07812,-4.5117189 3.57422,-4.5117189 z m 10.6084,10.30078137 V -10.009178 h 2.8125 v -1.605469 h -2.8125 v -0.621094 c 0,-1.78125 0.45703,-3.363281 2.26171,-3.363281 0.59766,0 1.03125,0.117188 1.33594,0.257813 l 0.29297,-1.628907 c -0.41016,-0.164062 -1.05469,-0.339843 -1.80469,-0.339843 -0.98437,0 -2.03906,0.316406 -2.82422,1.089843 -0.98437,0.925782 -1.34765,2.414063 -1.34765,4.054688 v 0.550781 h -1.62891 v 1.605469 h 1.62891 v 10.00781237 z m 9.7998,0 h 2.10938 V -17.040428 h -2.10938 z m 7.77246,0 V -11.614647 H 223.6855 V -0.00136563 Z M 224.74021,-16.196678 c -0.77343,0 -1.32421,0.574219 -1.32421,1.3125 0,0.726562 0.52734,1.300781 1.27734,1.300781 0.83203,0 1.35937,-0.574219 1.33594,-1.300781 0,-0.738281 -0.50391,-1.3125 -1.28907,-1.3125 z m 6.8584,16.19531237 V -10.009178 h 2.8125 v -1.605469 h -2.8125 v -0.621094 c 0,-1.78125 0.45703,-3.363281 2.26172,-3.363281 0.59766,0 1.03125,0.117188 1.33594,0.257813 l 0.29297,-1.628907 c -0.41016,-0.164062 -1.05469,-0.339843 -1.80469,-0.339843 -0.98437,0 -2.03906,0.316406 -2.82422,1.089843 -0.98437,0.925782 -1.34765,2.414063 -1.34765,4.054688 v 0.550781 h -1.62891 v 1.605469 h 1.62891 v 10.00781237 z m 13.72852,-5.42578127 c 0.0234,-0.2109375 0.0703,-0.5507812 0.0703,-0.984375 0,-2.1328125 -1.00781,-5.4726561 -4.79297,-5.4726561 -3.38672,0 -5.44922,2.7656249 -5.44922,6.2695311 0,3.5039063 2.13282,5.84765627 5.70703,5.84765627 1.85157,0 3.11719,-0.375 3.86719,-0.71484375 l -0.36328,-1.51171872 c -0.78516,0.3398437 -1.69922,0.5976562 -3.21094,0.5976562 -2.10937,0 -3.9375,-1.171875 -3.98437,-4.03125 z m -8.13281,-1.5117187 c 0.16406,-1.4648438 1.10156,-3.4335934 3.23437,-3.4335934 2.37891,0 2.95313,2.0859371 2.92969,3.4335934 z m 10.94531,9.75 c 0.66797,-1.1367188 1.72265,-3.79687503 2.29687,-5.8359375 l -2.32031,0.234375 c -0.26953,1.7578125 -0.91406,4.3242187 -1.44141,5.7421875 z m 0.98437,-11.015625 c 0.85547,0 1.41797,-0.65625 1.41797,-1.4882813 0,-0.8906251 -0.5625,-1.5117191 -1.41797,-1.5117191 -0.82031,0 -1.41797,0.621094 -1.41797,1.5117191 0,0.8320313 0.57422,1.4882813 1.41797,1.4882813 z m 11.0625,8.20312497 V -11.614647 h -2.10937 V -0.00136563 Z M 259.13182,-16.196678 c -0.77344,0 -1.32422,0.574219 -1.32422,1.3125 0,0.726562 0.52734,1.300781 1.27734,1.300781 0.83203,0 1.35938,-0.574219 1.33594,-1.300781 0,-0.738281 -0.50391,-1.3125 -1.28906,-1.3125 z m 5.03027,1.792969 v 2.789062 h -1.79297 v 1.605469 h 1.79297 v 6.3398436 c 0,1.359375 0.22266,2.390625 0.82031,3.02343752 0.50391,0.57421875 1.30078,0.87890625 2.28516,0.87890625 0.80859,0 1.46484,-0.1171875 1.86328,-0.28125 l -0.0937,-1.58203127 c -0.25781,0.070312 -0.66797,0.140625 -1.21875,0.140625 -1.18359,0 -1.58203,-0.8203125 -1.58203,-2.25 v -6.2695311 h 3.02344 v -1.605469 h -3.02344 v -3.339844 z m 14.67187,14.40234337 V -11.614647 h -2.10937 V -0.00136563 Z M 277.77928,-16.196678 c -0.77344,0 -1.32422,0.574219 -1.32422,1.3125 0,0.726562 0.52734,1.300781 1.27734,1.300781 0.83203,0 1.35938,-0.574219 1.33594,-1.300781 0,-0.738281 -0.50391,-1.3125 -1.28906,-1.3125 z m 3.74121,15.64453112 c 0.82031,0.48046875 1.99219,0.78515625 3.25781,0.78515625 2.76563,0 4.34766,-1.42968747 4.34766,-3.46874997 0,-1.734375 -1.03125,-2.7421875 -3.04688,-3.5039063 -1.51172,-0.5859375 -2.20312,-1.0195312 -2.20312,-1.96875 0,-0.8671875 0.6914,-1.5937501 1.93359,-1.5937501 1.08984,0 1.92188,0.3867189 2.37891,0.6796876 l 0.52734,-1.5351566 c -0.64453,-0.386718 -1.67578,-0.726562 -2.84766,-0.726562 -2.49609,0 -4.00781,1.535156 -4.00781,3.4101561 0,1.3945313 0.98438,2.5429688 3.07031,3.2929688 1.5586,0.5742187 2.15625,1.125 2.15625,2.1328125 0,0.9609375 -0.71484,1.7226562 -2.26171,1.7226562 -1.05469,0 -2.15625,-0.4335937 -2.77735,-0.8320312 z m 23.75683,0.55078125 c -0.14062,-0.796875 -0.1875,-1.78124997 -0.1875,-2.78906247 v -4.3359375 c 0,-2.3320313 -0.86718,-4.7578124 -4.41797,-4.7578124 -1.46484,0 -2.85937,0.410156 -3.82031,1.03125 l 0.48047,1.3945311 c 0.82031,-0.5273437 1.94531,-0.8671871 3.02344,-0.8671871 2.3789,0 2.64844,1.7343746 2.64844,2.6953121 v 0.234375 c -4.48829,-0.023437 -6.98438,1.5117188 -6.98438,4.3242188 0,1.6757812 1.19531,3.33984372 3.55078,3.33984372 1.65235,0 2.90625,-0.8203125 3.55078,-1.73437502 h 0.0703 l 0.16406,1.46484377 z m -2.22656,-3.91406247 c 0,0.2226562 -0.0469,0.4570312 -0.11719,0.6796875 -0.33984,0.9726562 -1.30078,1.9335937 -2.8125,1.9335937 -1.07812,0 -1.99218,-0.6445312 -1.99218,-2.015625 0,-2.25 2.61328,-2.6601562 4.92187,-2.6132812 z m 9.71777,3.36328122 c 0.82032,0.48046875 1.99219,0.78515625 3.25782,0.78515625 2.76562,0 4.34765,-1.42968747 4.34765,-3.46874997 0,-1.734375 -1.03125,-2.7421875 -3.04687,-3.5039063 -1.51172,-0.5859375 -2.20313,-1.0195312 -2.20313,-1.96875 0,-0.8671875 0.69141,-1.5937501 1.9336,-1.5937501 1.08984,0 1.92187,0.3867189 2.3789,0.6796876 l 0.52735,-1.5351566 c -0.64453,-0.386718 -1.67578,-0.726562 -2.84766,-0.726562 -2.49609,0 -4.00781,1.535156 -4.00781,3.4101561 0,1.3945313 0.98437,2.5429688 3.07031,3.2929688 1.55859,0.5742187 2.15625,1.125 2.15625,2.1328125 0,0.9609375 -0.71484,1.7226562 -2.26172,1.7226562 -1.05469,0 -2.15625,-0.4335937 -2.77734,-0.8320312 z M 323.5615,-14.403709 v 2.789062 h -1.79297 v 1.605469 h 1.79297 v 6.3398436 c 0,1.359375 0.22266,2.390625 0.82032,3.02343752 0.5039,0.57421875 1.30078,0.87890625 2.28515,0.87890625 0.8086,0 1.46485,-0.1171875 1.86328,-0.28125 l -0.0937,-1.58203127 c -0.25781,0.070312 -0.66797,0.140625 -1.21875,0.140625 -1.18359,0 -1.58203,-0.8203125 -1.58203,-2.25 v -6.2695311 h 3.02344 v -1.605469 h -3.02344 v -3.339844 z m 15.82032,14.40234337 c -0.14063,-0.796875 -0.1875,-1.78124997 -0.1875,-2.78906247 v -4.3359375 c 0,-2.3320313 -0.86719,-4.7578124 -4.41797,-4.7578124 -1.46485,0 -2.85938,0.410156 -3.82032,1.03125 l 0.48047,1.3945311 c 0.82032,-0.5273437 1.94532,-0.8671871 3.02344,-0.8671871 2.37891,0 2.64844,1.7343746 2.64844,2.6953121 v 0.234375 c -4.48828,-0.023437 -6.98438,1.5117188 -6.98438,4.3242188 0,1.6757812 1.19532,3.33984372 3.55078,3.33984372 1.65235,0 2.90625,-0.8203125 3.55079,-1.73437502 h 0.0703 l 0.16406,1.46484377 z m -2.22657,-3.91406247 c 0,0.2226562 -0.0469,0.4570312 -0.11718,0.6796875 -0.33985,0.9726562 -1.30079,1.9335937 -2.8125,1.9335937 -1.07813,0 -1.99219,-0.6445312 -1.99219,-2.015625 0,-2.25 2.61328,-2.6601562 4.92187,-2.6132812 z m 5.82129,-10.4882809 v 2.789062 h -1.79297 v 1.605469 h 1.79297 v 6.3398436 c 0,1.359375 0.22266,2.390625 0.82031,3.02343752 0.50391,0.57421875 1.30079,0.87890625 2.28516,0.87890625 0.80859,0 1.46484,-0.1171875 1.86328,-0.28125 l -0.0937,-1.58203127 c -0.25781,0.070312 -0.66797,0.140625 -1.21875,0.140625 -1.18359,0 -1.58203,-0.8203125 -1.58203,-2.25 v -6.2695311 h 3.02344 v -1.605469 h -3.02344 v -3.339844 z m 16.65821,8.9765621 c 0.0234,-0.2109375 0.0703,-0.5507812 0.0703,-0.984375 0,-2.1328125 -1.00781,-5.4726561 -4.79297,-5.4726561 -3.38672,0 -5.44922,2.7656249 -5.44922,6.2695311 0,3.5039063 2.13281,5.84765627 5.70703,5.84765627 1.85156,0 3.11719,-0.375 3.86719,-0.71484375 L 358.6738,-1.9935531 c -0.78516,0.3398437 -1.69922,0.5976562 -3.21094,0.5976562 -2.10937,0 -3.9375,-1.171875 -3.98437,-4.03125 z m -8.13282,-1.5117187 c 0.16407,-1.4648438 1.10157,-3.4335934 3.23438,-3.4335934 2.3789,0 2.95312,2.0859371 2.92969,3.4335934 z m 20.82715,-4.9453124 c -3.21094,0 -5.7539,2.2851561 -5.7539,6.1757811 0,3.6679688 2.42578,5.97656252 5.5664,5.97656252 2.8125,0 5.78906,-1.87500002 5.78906,-6.17578122 0,-3.5507813 -2.26171,-5.9765624 -5.60156,-5.9765624 z m -0.0469,1.582031 c 2.49609,0 3.48047,2.4960939 3.48047,4.4648439 0,2.625 -1.51172,4.5117187 -3.52735,4.5117187 -2.0625,0 -3.52734,-1.9101562 -3.52734,-4.4648437 0,-2.203125 1.07812,-4.5117189 3.57422,-4.5117189 z M 382.8935,-0.00136563 V -10.009178 h 2.8125 v -1.605469 h -2.8125 v -0.621094 c 0,-1.78125 0.45704,-3.363281 2.26172,-3.363281 0.59766,0 1.03125,0.117188 1.33594,0.257813 l 0.29297,-1.628907 c -0.41016,-0.164062 -1.05469,-0.339843 -1.80469,-0.339843 -0.98437,0 -2.03906,0.316406 -2.82422,1.089843 -0.98437,0.925782 -1.34765,2.414063 -1.34765,4.054688 v 0.550781 h -1.62891 v 1.605469 h 1.62891 V -0.00136563 Z M 1.7587688,28.800392 h 2.0625 V 21.79258 c 0,-0.363282 0.046875,-0.714844 0.1640625,-1.03125 0.3398437,-1.054688 1.3007812,-2.109375 2.6132812,-2.109375 1.6054688,0 2.4257813,1.335937 2.4257813,3.1875 v 6.960937 h 2.0625002 v -7.171875 c 0,-0.386719 0.07031,-0.773437 0.175781,-1.054687 0.351563,-1.042969 1.289063,-1.921875 2.496094,-1.921875 1.699219,0 2.519531,1.335937 2.519531,3.574218 v 6.574219 h 2.0625 v -6.84375 c 0,-4.03125 -2.285156,-5.039062 -3.820312,-5.039062 -1.101563,0 -1.875,0.292968 -2.566407,0.820312 -0.480468,0.363281 -0.9375,0.867188 -1.300781,1.511719 H 10.60643 C 10.102519,17.878517 8.9072063,16.91758 7.325175,16.91758 c -1.921875,0 -3,1.03125 -3.65625,2.144531 H 3.598613 l -0.09375,-1.875 H 1.6533 c 0.070312,0.960937 0.1054688,1.945312 0.1054688,3.140625 z m 22.1250002,0 V 17.187111 H 21.774394 V 28.800392 Z M 22.829081,12.60508 c -0.773437,0 -1.324218,0.574218 -1.324218,1.3125 0,0.726562 0.527343,1.300781 1.277343,1.300781 0.832032,0 1.359375,-0.574219 1.335938,-1.300781 0,-0.738282 -0.503906,-1.3125 -1.289063,-1.3125 z m 4.561524,16.195312 h 2.109375 v -6.984375 c 0,-0.363281 0.04687,-0.714844 0.140625,-0.984375 0.363281,-1.171875 1.441406,-2.15625 2.835937,-2.15625 1.992188,0 2.683594,1.558594 2.683594,3.433594 v 6.691406 h 2.109375 v -6.9375 c 0,-3.984375 -2.496094,-4.945312 -4.101563,-4.945312 -1.921875,0 -3.257812,1.078125 -3.84375,2.191406 h -0.04687 l -0.117187,-1.921875 h -1.875 c 0.07031,0.960937 0.105469,1.945312 0.105469,3.140625 z M 48.61912,11.76133 v 6.9375 h -0.04687 c -0.527343,-0.9375 -1.722656,-1.78125 -3.503906,-1.78125 -2.824219,0 -5.226562,2.378906 -5.203125,6.246093 0,3.527344 2.15625,5.90625 4.96875,5.90625 1.898438,0 3.304688,-0.984375 3.960938,-2.285156 h 0.04687 l 0.09375,2.015625 h 1.898437 c -0.07031,-0.796875 -0.09375,-1.96875 -0.09375,-3 V 11.76133 Z m 0,12.164062 c 0,0.339844 -0.02344,0.632813 -0.09375,0.914063 -0.386718,1.582031 -1.675781,2.519531 -3.09375,2.519531 -2.285156,0 -3.433593,-1.945313 -3.433593,-4.289063 0,-2.578125 1.300781,-4.488281 3.480468,-4.488281 1.582032,0 2.742188,1.101563 3.046875,2.4375 0.07031,0.269531 0.09375,0.632813 0.09375,0.890625 z m 5.745118,7.6875 c 0.667968,-1.136719 1.722656,-3.796875 2.296875,-5.835937 L 54.3408,26.01133 c -0.269531,1.757812 -0.914062,4.324218 -1.441406,5.742187 z m 0.984375,-11.015625 c 0.855468,0 1.417968,-0.65625 1.417968,-1.488281 0,-0.890625 -0.5625,-1.511719 -1.417968,-1.511719 -0.820313,0 -1.417969,0.621094 -1.417969,1.511719 0,0.832031 0.574219,1.488281 1.417969,1.488281 z m 11.0625,8.203125 V 17.187111 H 64.301738 V 28.800392 Z M 65.356425,12.60508 c -0.773437,0 -1.324219,0.574218 -1.324219,1.3125 0,0.726562 0.527344,1.300781 1.277344,1.300781 0.832031,0 1.359375,-0.574219 1.335938,-1.300781 0,-0.738282 -0.503907,-1.3125 -1.289063,-1.3125 z m 5.030273,1.792968 v 2.789063 H 68.59373 v 1.605469 h 1.792968 v 6.339843 c 0,1.359375 0.222657,2.390625 0.820313,3.023438 0.503906,0.574219 1.300781,0.878906 2.285156,0.878906 0.808594,0 1.464844,-0.117187 1.863281,-0.28125 l -0.09375,-1.582031 c -0.257812,0.07031 -0.667968,0.140625 -1.21875,0.140625 -1.183593,0 -1.582031,-0.820313 -1.582031,-2.25 V 18.79258 h 3.023438 V 17.187111 H 72.460917 V 13.847267 Z M 85.058573,28.800392 V 17.187111 H 82.949198 V 28.800392 Z M 84.003886,12.60508 c -0.773438,0 -1.324219,0.574218 -1.324219,1.3125 0,0.726562 0.527344,1.300781 1.277344,1.300781 0.832031,0 1.359375,-0.574219 1.335937,-1.300781 0,-0.738282 -0.503906,-1.3125 -1.289062,-1.3125 z m 3.741211,15.644531 c 0.820312,0.480469 1.992187,0.785156 3.257812,0.785156 2.765625,0 4.347657,-1.429687 4.347657,-3.46875 0,-1.734375 -1.03125,-2.742187 -3.046875,-3.503906 -1.511719,-0.585938 -2.203125,-1.019531 -2.203125,-1.96875 0,-0.867188 0.691406,-1.59375 1.933593,-1.59375 1.089844,0 1.921875,0.386719 2.378907,0.679687 l 0.527343,-1.535156 c -0.644531,-0.386719 -1.675781,-0.726562 -2.847656,-0.726562 -2.496094,0 -4.007812,1.535156 -4.007812,3.410156 0,1.394531 0.984375,2.542969 3.070312,3.292969 1.558594,0.574218 2.15625,1.125 2.15625,2.132812 0,0.960938 -0.714844,1.722656 -2.261719,1.722656 -1.054687,0 -2.15625,-0.433593 -2.777343,-0.832031 z m 15.413083,0.550781 h 2.10938 v -6.984375 c 0,-0.363281 0.0469,-0.714844 0.14062,-0.984375 0.36328,-1.171875 1.44141,-2.15625 2.83594,-2.15625 1.99219,0 2.68359,1.558594 2.68359,3.433594 v 6.691406 h 2.10938 v -6.9375 c 0,-3.984375 -2.49609,-4.945312 -4.10156,-4.945312 -1.92188,0 -3.25782,1.078125 -3.84375,2.191406 h -0.0469 l -0.11719,-1.921875 h -1.875 c 0.0703,0.960937 0.10547,1.945312 0.10547,3.140625 z M 121.3867,16.91758 c -3.21094,0 -5.75391,2.285156 -5.75391,6.175781 0,3.667969 2.42578,5.976562 5.56641,5.976562 2.8125,0 5.78906,-1.875 5.78906,-6.175781 0,-3.550781 -2.26172,-5.976562 -5.60156,-5.976562 z m -0.0469,1.582031 c 2.4961,0 3.48047,2.496094 3.48047,4.464844 0,2.625 -1.51172,4.511718 -3.52734,4.511718 -2.0625,0 -3.52735,-1.910156 -3.52735,-4.464843 0,-2.203125 1.07813,-4.511719 3.57422,-4.511719 z m 8.78321,-4.101563 v 2.789063 h -1.79297 v 1.605469 h 1.79297 v 6.339843 c 0,1.359375 0.22265,2.390625 0.82031,3.023438 0.50391,0.574219 1.30078,0.878906 2.28516,0.878906 0.80859,0 1.46484,-0.117187 1.86328,-0.28125 l -0.0937,-1.582031 c -0.25782,0.07031 -0.66797,0.140625 -1.21875,0.140625 -1.1836,0 -1.58203,-0.820313 -1.58203,-2.25 V 18.79258 h 3.02343 v -1.605469 h -3.02343 v -3.339844 z m 20.90625,14.402344 c -0.14063,-0.796875 -0.1875,-1.78125 -0.1875,-2.789062 v -4.335938 c 0,-2.332031 -0.86719,-4.757812 -4.41797,-4.757812 -1.46485,0 -2.85938,0.410156 -3.82031,1.03125 l 0.48046,1.394531 c 0.82032,-0.527344 1.94532,-0.867188 3.02344,-0.867188 2.37891,0 2.64844,1.734375 2.64844,2.695313 v 0.234375 c -4.48828,-0.02344 -6.98438,1.511719 -6.98438,4.324219 0,1.675781 1.19532,3.339843 3.55079,3.339843 1.65234,0 2.90625,-0.820312 3.55078,-1.734375 h 0.0703 l 0.16406,1.464844 z m -2.22657,-3.914062 c 0,0.222656 -0.0469,0.457031 -0.11718,0.679687 -0.33985,0.972656 -1.30078,1.933594 -2.8125,1.933594 -1.07813,0 -1.99219,-0.644531 -1.99219,-2.015625 0,-2.25 2.61328,-2.660156 4.92187,-2.613281 z m 10.53809,3.914062 h 2.0625 V 21.79258 c 0,-0.363282 0.0469,-0.714844 0.16406,-1.03125 0.33985,-1.054688 1.30078,-2.109375 2.61328,-2.109375 1.60547,0 2.42579,1.335937 2.42579,3.1875 v 6.960937 h 2.0625 v -7.171875 c 0,-0.386719 0.0703,-0.773437 0.17578,-1.054687 0.35156,-1.042969 1.28906,-1.921875 2.49609,-1.921875 1.69922,0 2.51953,1.335937 2.51953,3.574218 v 6.574219 h 2.0625 v -6.84375 c 0,-4.03125 -2.28515,-5.039062 -3.82031,-5.039062 -1.10156,0 -1.875,0.292968 -2.56641,0.820312 -0.48047,0.363281 -0.9375,0.867188 -1.30078,1.511719 h -0.0469 c -0.50391,-1.371094 -1.69922,-2.332031 -3.28125,-2.332031 -1.92188,0 -3,1.03125 -3.65625,2.144531 h -0.0703 l -0.0937,-1.875 h -1.85156 c 0.0703,0.960937 0.10547,1.945312 0.10547,3.140625 z m 28.35938,0 c -0.14063,-0.796875 -0.1875,-1.78125 -0.1875,-2.789062 v -4.335938 c 0,-2.332031 -0.86719,-4.757812 -4.41797,-4.757812 -1.46485,0 -2.85938,0.410156 -3.82032,1.03125 l 0.48047,1.394531 c 0.82032,-0.527344 1.94532,-0.867188 3.02344,-0.867188 2.37891,0 2.64844,1.734375 2.64844,2.695313 v 0.234375 c -4.48828,-0.02344 -6.98438,1.511719 -6.98438,4.324219 0,1.675781 1.19532,3.339843 3.55078,3.339843 1.65235,0 2.90625,-0.820312 3.55079,-1.734375 h 0.0703 l 0.16406,1.464844 z m -2.22657,-3.914062 c 0,0.222656 -0.0469,0.457031 -0.11718,0.679687 -0.33985,0.972656 -1.30079,1.933594 -2.8125,1.933594 -1.07813,0 -1.99219,-0.644531 -1.99219,-2.015625 0,-2.25 2.61328,-2.660156 4.92187,-2.613281 z m 5.82422,-10.488282 v 2.789063 h -1.79297 v 1.605469 h 1.79297 v 6.339843 c 0,1.359375 0.22266,2.390625 0.82031,3.023438 0.50391,0.574219 1.30079,0.878906 2.28516,0.878906 0.80859,0 1.46484,-0.117187 1.86328,-0.28125 l -0.0937,-1.582031 c -0.25781,0.07031 -0.66797,0.140625 -1.21875,0.140625 -1.18359,0 -1.58203,-0.820313 -1.58203,-2.25 V 18.79258 h 3.02344 v -1.605469 h -3.02344 v -3.339844 z m 7.94531,0 v 2.789063 h -1.79296 v 1.605469 h 1.79296 v 6.339843 c 0,1.359375 0.22266,2.390625 0.82032,3.023438 0.5039,0.574219 1.30078,0.878906 2.28515,0.878906 0.8086,0 1.46485,-0.117187 1.86328,-0.28125 l -0.0937,-1.582031 c -0.25781,0.07031 -0.66796,0.140625 -1.21875,0.140625 -1.18359,0 -1.58203,-0.820313 -1.58203,-2.25 V 18.79258 h 3.02344 v -1.605469 h -3.02344 v -3.339844 z m 16.65821,8.976563 c 0.0234,-0.210938 0.0703,-0.550781 0.0703,-0.984375 0,-2.132813 -1.00781,-5.472656 -4.79297,-5.472656 -3.38672,0 -5.44922,2.765625 -5.44922,6.269531 0,3.503906 2.13281,5.847656 5.70703,5.847656 1.85157,0 3.11719,-0.375 3.86719,-0.714844 l -0.36328,-1.511718 c -0.78516,0.339843 -1.69922,0.597656 -3.21094,0.597656 -2.10937,0 -3.9375,-1.171875 -3.98437,-4.03125 z m -8.13282,-1.511719 c 0.16407,-1.464844 1.10157,-3.433594 3.23438,-3.433594 2.37891,0 2.95312,2.085938 2.92969,3.433594 z m 10.82813,6.9375 h 2.08594 v -6.1875 c 0,-0.363281 0.0469,-0.703125 0.0937,-0.984375 0.28125,-1.59375 1.34765,-2.71875 2.83593,-2.71875 0.28125,0 0.50391,0.02344 0.71485,0.07031 v -1.992188 c -0.1875,-0.04687 -0.36328,-0.07031 -0.59766,-0.07031 -1.41797,0 -2.69531,0.984375 -3.22265,2.542968 h -0.0937 l -0.0703,-2.273437 h -1.85156 c 0.0703,1.078125 0.10547,2.25 0.10547,3.621094 z M 236.44432,16.91758 c -3.21094,0 -5.75391,2.285156 -5.75391,6.175781 0,3.667969 2.42578,5.976562 5.56641,5.976562 2.8125,0 5.78906,-1.875 5.78906,-6.175781 0,-3.550781 -2.26172,-5.976562 -5.60156,-5.976562 z m -0.0469,1.582031 c 2.49609,0 3.48047,2.496094 3.48047,4.464844 0,2.625 -1.51172,4.511718 -3.52734,4.511718 -2.0625,0 -3.52735,-1.910156 -3.52735,-4.464843 0,-2.203125 1.07813,-4.511719 3.57422,-4.511719 z m 10.6084,10.300781 V 18.79258 h 2.8125 v -1.605469 h -2.8125 v -0.621094 c 0,-1.78125 0.45703,-3.363281 2.26172,-3.363281 0.59765,0 1.03125,0.117187 1.33594,0.257812 l 0.29296,-1.628906 c -0.41015,-0.164062 -1.05468,-0.339844 -1.80468,-0.339844 -0.98438,0 -2.03907,0.316407 -2.82422,1.089844 -0.98438,0.925781 -1.34766,2.414063 -1.34766,4.054688 v 0.550781 h -1.6289 v 1.605469 h 1.6289 v 10.007812 z m 9.7998,0 h 2.08594 v -6.1875 c 0,-0.363281 0.0469,-0.703125 0.0937,-0.984375 0.28125,-1.59375 1.34766,-2.71875 2.83594,-2.71875 0.28125,0 0.50391,0.02344 0.71484,0.07031 v -1.992188 c -0.1875,-0.04687 -0.36328,-0.07031 -0.59765,-0.07031 -1.41797,0 -2.69532,0.984375 -3.22266,2.542968 h -0.0937 l -0.0703,-2.273437 h -1.85156 c 0.0703,1.078125 0.10546,2.25 0.10546,3.621094 z M 269.32127,16.91758 c -3.21094,0 -5.75391,2.285156 -5.75391,6.175781 0,3.667969 2.42578,5.976562 5.56641,5.976562 2.8125,0 5.78906,-1.875 5.78906,-6.175781 0,-3.550781 -2.26172,-5.976562 -5.60156,-5.976562 z m -0.0469,1.582031 c 2.4961,0 3.48047,2.496094 3.48047,4.464844 0,2.625 -1.51172,4.511718 -3.52734,4.511718 -2.0625,0 -3.52734,-1.910156 -3.52734,-4.464843 0,-2.203125 1.07812,-4.511719 3.57421,-4.511719 z m 7.49414,9.75 c 0.82032,0.480469 1.99219,0.785156 3.25782,0.785156 2.76562,0 4.34765,-1.429687 4.34765,-3.46875 0,-1.734375 -1.03125,-2.742187 -3.04687,-3.503906 -1.51172,-0.585938 -2.20313,-1.019531 -2.20313,-1.96875 0,-0.867188 0.69141,-1.59375 1.9336,-1.59375 1.08984,0 1.92187,0.386719 2.3789,0.679687 l 0.52735,-1.535156 c -0.64453,-0.386719 -1.67578,-0.726562 -2.84766,-0.726562 -2.49609,0 -4.00781,1.535156 -4.00781,3.410156 0,1.394531 0.98437,2.542969 3.07031,3.292969 1.55859,0.574218 2.15625,1.125 2.15625,2.132812 0,0.960938 -0.71484,1.722656 -2.26172,1.722656 -1.05469,0 -2.15625,-0.433593 -2.77734,-0.832031 z m 8.77735,-11.0625 4.30078,10.699219 c 0.0937,0.269531 0.14062,0.433593 0.14062,0.550781 0,0.128906 -0.0703,0.292969 -0.16406,0.503906 -0.48047,1.078125 -1.19531,1.898438 -1.78125,2.355469 -0.62109,0.527344 -1.3125,0.867187 -1.83984,1.03125 l 0.52734,1.78125 c 0.52735,-0.105469 1.5586,-0.457031 2.58985,-1.371094 1.4414,-1.253906 2.47265,-3.292969 3.98437,-7.277344 l 3.16406,-8.273437 h -2.22656 l -2.30859,6.808594 c -0.28125,0.84375 -0.52735,1.734375 -0.73828,2.425781 h -0.0469 c -0.19922,-0.691406 -0.48047,-1.605469 -0.75,-2.378906 l -2.54297,-6.855469 z m 25.84863,9.597656 c -0.59766,0.257813 -1.38281,0.574219 -2.58984,0.574219 -2.29688,0 -4.03125,-1.652344 -4.03125,-4.347656 0,-2.414063 1.4414,-4.382813 4.10156,-4.382813 1.16016,0 1.94531,0.257813 2.44922,0.550781 l 0.48047,-1.640625 c -0.57422,-0.28125 -1.67578,-0.597656 -2.92969,-0.597656 -3.78516,0 -6.23438,2.589844 -6.23438,6.175781 0,3.550782 2.27344,5.917969 5.77735,5.917969 1.57031,0 2.78906,-0.375 3.33984,-0.667969 z m 2.8418,2.015625 h 2.10937 V 21.79258 c 0,-0.410157 0.0234,-0.714844 0.14063,-1.007813 0.38672,-1.148437 1.46484,-2.109375 2.83594,-2.109375 1.99218,0 2.68359,1.582031 2.68359,3.457031 v 6.667969 h 2.10937 V 21.88633 c 0,-4.007813 -2.49609,-4.96875 -4.05468,-4.96875 -0.78516,0 -1.53516,0.246093 -2.15625,0.597656 -0.64453,0.363281 -1.1836,0.890625 -1.51172,1.488281 h -0.0469 V 11.76133 h -2.10937 z m 22.64648,-5.425781 c 0.0234,-0.210938 0.0703,-0.550781 0.0703,-0.984375 0,-2.132813 -1.00781,-5.472656 -4.79296,-5.472656 -3.38672,0 -5.44922,2.765625 -5.44922,6.269531 0,3.503906 2.13281,5.847656 5.70703,5.847656 1.85156,0 3.11719,-0.375 3.86719,-0.714844 l -0.36329,-1.511718 c -0.78515,0.339843 -1.69921,0.597656 -3.21093,0.597656 -2.10938,0 -3.9375,-1.171875 -3.98438,-4.03125 z m -8.13281,-1.511719 c 0.16406,-1.464844 1.10156,-3.433594 3.23437,-3.433594 2.37891,0 2.95313,2.085938 2.92969,3.433594 z m 20.15625,1.511719 c 0.0234,-0.210938 0.0703,-0.550781 0.0703,-0.984375 0,-2.132813 -1.00781,-5.472656 -4.79297,-5.472656 -3.38672,0 -5.44922,2.765625 -5.44922,6.269531 0,3.503906 2.13282,5.847656 5.70704,5.847656 1.85156,0 3.11718,-0.375 3.86718,-0.714844 l -0.36328,-1.511718 c -0.78515,0.339843 -1.69922,0.597656 -3.21094,0.597656 -2.10937,0 -3.9375,-1.171875 -3.98437,-4.03125 z m -8.13281,-1.511719 c 0.16406,-1.464844 1.10156,-3.433594 3.23437,-3.433594 2.37891,0 2.95313,2.085938 2.92969,3.433594 z M 353.69041,11.76133 h -2.08594 v 17.039062 h 2.08594 v -4.371094 l 1.07812,-1.195312 4.00782,5.566406 h 2.5664 l -5.10937,-6.84375 4.48828,-4.769531 h -2.54297 l -3.41016,4.007812 c -0.33984,0.410157 -0.75,0.914063 -1.03125,1.3125 h -0.0469 z m 8.34961,16.488281 c 0.82031,0.480469 1.99219,0.785156 3.25781,0.785156 2.76563,0 4.34766,-1.429687 4.34766,-3.46875 0,-1.734375 -1.03125,-2.742187 -3.04688,-3.503906 -1.51172,-0.585938 -2.20312,-1.019531 -2.20312,-1.96875 0,-0.867188 0.6914,-1.59375 1.93359,-1.59375 1.08985,0 1.92188,0.386719 2.37891,0.679687 l 0.52734,-1.535156 c -0.64453,-0.386719 -1.67578,-0.726562 -2.84765,-0.726562 -2.4961,0 -4.00782,1.535156 -4.00782,3.410156 0,1.394531 0.98438,2.542969 3.07032,3.292969 1.55859,0.574218 2.15625,1.125 2.15625,2.132812 0,0.960938 -0.71485,1.722656 -2.26172,1.722656 -1.05469,0 -2.15625,-0.433593 -2.77735,-0.832031 z m 10.20117,3.363281 c 0.66797,-1.136719 1.72266,-3.796875 2.27344,-5.835937 l -2.34375,0.234375 c -0.26953,1.757812 -0.91406,4.324218 -1.44141,5.742187 z M 1.7587688,57.59922 h 2.0859375 v -6.1875 c 0,-0.363281 0.046875,-0.703125 0.09375,-0.984375 0.28125,-1.59375 1.3476562,-2.71875 2.8359375,-2.71875 0.28125,0 0.5039062,0.02344 0.7148437,0.07031 V 45.78672 c -0.1875,-0.04687 -0.3632812,-0.07031 -0.5976562,-0.07031 -1.4179688,0 -2.6953125,0.984375 -3.2226563,2.542969 h -0.09375 l -0.070312,-2.27344 H 1.6533 c 0.070312,1.078125 0.1054688,2.25 0.1054688,3.621094 z M 18.695292,52.173439 c 0.02344,-0.210937 0.07031,-0.550781 0.07031,-0.984375 0,-2.132812 -1.007813,-5.472656 -4.792969,-5.472656 -3.386719,0 -5.4492188,2.765625 -5.4492188,6.269531 0,3.503906 2.1328128,5.847656 5.7070308,5.847656 1.851563,0 3.117188,-0.375 3.867188,-0.714843 l -0.363281,-1.511719 c -0.785157,0.339844 -1.699219,0.597656 -3.210938,0.597656 -2.109375,0 -3.9375,-1.171875 -3.984375,-4.03125 z M 10.56248,50.66172 c 0.164062,-1.464843 1.101562,-3.433593 3.234375,-3.433593 2.378906,0 2.953125,2.085937 2.929687,3.433593 z M 29.300761,40.560158 v 6.9375 h -0.04687 c -0.527344,-0.9375 -1.722656,-1.78125 -3.503906,-1.78125 -2.824219,0 -5.226563,2.378906 -5.203125,6.246094 0,3.527343 2.15625,5.90625 4.96875,5.90625 1.898437,0 3.304687,-0.984375 3.960937,-2.285157 h 0.04687 l 0.09375,2.015625 h 1.898438 c -0.07031,-0.796875 -0.09375,-1.96875 -0.09375,-3 V 40.560158 Z m 0,12.164062 c 0,0.339844 -0.02344,0.632813 -0.09375,0.914063 -0.386719,1.582031 -1.675781,2.519531 -3.09375,2.519531 -2.285156,0 -3.433594,-1.945312 -3.433594,-4.289062 0,-2.578125 1.300781,-4.488282 3.480469,-4.488282 1.582031,0 2.742187,1.101563 3.046875,2.4375 0.07031,0.269532 0.09375,0.632813 0.09375,0.890625 z m 10.713867,4.875 h 2.109375 V 40.560158 h -2.109375 z m 7.772461,0 V 45.985939 H 45.677714 V 57.59922 Z M 46.732402,41.403908 c -0.773438,0 -1.324219,0.574219 -1.324219,1.3125 0,0.726562 0.527344,1.300781 1.277344,1.300781 0.832031,0 1.359375,-0.574219 1.335937,-1.300781 0,-0.738281 -0.503906,-1.3125 -1.289062,-1.3125 z m 4.561523,20.953125 h 2.085938 v -6.316406 h 0.04687 c 0.691406,1.148437 2.039062,1.828125 3.574218,1.828125 2.730469,0 5.273438,-2.074219 5.273438,-6.246094 0,-3.527344 -2.109375,-5.90625 -4.910156,-5.90625 -1.898438,0 -3.269532,0.84375 -4.136719,2.261719 h -0.04687 l -0.09375,-1.992188 h -1.898438 c 0.04687,1.101563 0.105469,2.296875 0.105469,3.785156 z m 2.085938,-11.472656 c 0,-0.292969 0.07031,-0.609375 0.140625,-0.867188 0.410156,-1.582031 1.746093,-2.613281 3.1875,-2.613281 2.238281,0 3.457031,1.992187 3.457031,4.3125 0,2.671875 -1.289063,4.488281 -3.527344,4.488281 -1.511719,0 -2.777344,-1.007812 -3.164062,-2.472656 -0.04687,-0.257813 -0.09375,-0.550781 -0.09375,-0.855469 z m 10.749023,6.164062 c 0.820312,0.480469 1.992187,0.785156 3.257812,0.785156 2.765625,0 4.347657,-1.429687 4.347657,-3.46875 0,-1.734375 -1.03125,-2.742187 -3.046875,-3.503906 -1.511719,-0.585937 -2.203125,-1.019531 -2.203125,-1.96875 0,-0.867187 0.691406,-1.59375 1.933593,-1.59375 1.089844,0 1.921875,0.386719 2.378907,0.679688 l 0.527343,-1.535157 c -0.644531,-0.386718 -1.675781,-0.726562 -2.847656,-0.726562 -2.496094,0 -4.007812,1.535156 -4.007812,3.410156 0,1.394531 0.984375,2.542969 3.070312,3.292969 1.558594,0.574219 2.15625,1.125 2.15625,2.132812 0,0.960938 -0.714844,1.722657 -2.261719,1.722657 -1.054687,0 -2.15625,-0.433594 -2.777343,-0.832032 z m 23.756836,0.550781 c -0.140625,-0.796875 -0.1875,-1.78125 -0.1875,-2.789062 V 50.47422 c 0,-2.332031 -0.867188,-4.757812 -4.417969,-4.757812 -1.464844,0 -2.859375,0.410156 -3.820312,1.03125 l 0.480468,1.394531 c 0.820313,-0.527344 1.945313,-0.867187 3.023438,-0.867187 2.378906,0 2.648437,1.734375 2.648437,2.695312 v 0.234375 c -4.488281,-0.02344 -6.984375,1.511719 -6.984375,4.324219 0,1.675781 1.195313,3.339844 3.550782,3.339844 1.652343,0 2.90625,-0.820313 3.550781,-1.734375 h 0.07031 l 0.164063,1.464843 z m -2.226563,-3.914062 c 0,0.222656 -0.04687,0.457031 -0.117187,0.679687 -0.339844,0.972657 -1.300781,1.933594 -2.8125,1.933594 -1.078125,0 -1.992188,-0.644531 -1.992188,-2.015625 0,-2.25 2.613282,-2.660156 4.921875,-2.613281 z m 5.449219,3.914062 h 2.109375 v -6.984375 c 0,-0.363281 0.04687,-0.714843 0.140625,-0.984375 0.363281,-1.171875 1.441406,-2.15625 2.835938,-2.15625 1.992187,0 2.683593,1.558594 2.683593,3.433594 v 6.691406 h 2.109371 v -6.9375 c 0,-3.984375 -2.496089,-4.945312 -4.101558,-4.945312 -1.921875,0 -3.257813,1.078125 -3.84375,2.191406 h -0.04687 l -0.117188,-1.921875 h -1.875 c 0.07031,0.960938 0.105469,1.945313 0.105469,3.140625 z M 112.33982,40.560158 v 6.9375 h -0.0469 c -0.52735,-0.9375 -1.72266,-1.78125 -3.50391,-1.78125 -2.82422,0 -5.22656,2.378906 -5.20312,6.246094 0,3.527343 2.15625,5.90625 4.96875,5.90625 1.89843,0 3.30468,-0.984375 3.96093,-2.285157 h 0.0469 l 0.0937,2.015625 h 1.89844 c -0.0703,-0.796875 -0.0937,-1.96875 -0.0937,-3 V 40.560158 Z m 0,12.164062 c 0,0.339844 -0.0234,0.632813 -0.0937,0.914063 -0.38672,1.582031 -1.67578,2.519531 -3.09375,2.519531 -2.28515,0 -3.43359,-1.945312 -3.43359,-4.289062 0,-2.578125 1.30078,-4.488282 3.48047,-4.488282 1.58203,0 2.74219,1.101563 3.04687,2.4375 0.0703,0.269532 0.0937,0.632813 0.0937,0.890625 z m 9.89356,4.324219 c 0.82031,0.480469 1.99219,0.785156 3.25781,0.785156 2.76563,0 4.34766,-1.429687 4.34766,-3.46875 0,-1.734375 -1.03125,-2.742187 -3.04688,-3.503906 -1.51172,-0.585937 -2.20312,-1.019531 -2.20312,-1.96875 0,-0.867187 0.6914,-1.59375 1.93359,-1.59375 1.08984,0 1.92188,0.386719 2.37891,0.679688 l 0.52734,-1.535157 c -0.64453,-0.386718 -1.67578,-0.726562 -2.84766,-0.726562 -2.49609,0 -4.00781,1.535156 -4.00781,3.410156 0,1.394531 0.98438,2.542969 3.07031,3.292969 1.5586,0.574219 2.15625,1.125 2.15625,2.132812 0,0.960938 -0.71484,1.722657 -2.26171,1.722657 -1.05469,0 -2.15625,-0.433594 -2.77735,-0.832032 z m 20.03906,-11.0625 h -2.10937 v 7.125 c 0,0.386719 -0.0703,0.773438 -0.19922,1.078125 -0.375,0.9375 -1.35938,1.921875 -2.77735,1.921875 -1.92187,0 -2.58984,-1.488281 -2.58984,-3.691406 v -6.433594 h -2.12109 v 6.785156 c 0,4.089844 2.1914,5.097657 4.00781,5.097657 2.07422,0 3.29297,-1.230469 3.84375,-2.167969 h 0.0469 l 0.11719,1.898437 h 1.875 c -0.0703,-0.914062 -0.0937,-1.96875 -0.0937,-3.164062 z m 3.50977,16.371094 h 2.08593 v -6.316406 h 0.0469 c 0.69141,1.148437 2.03906,1.828125 3.57422,1.828125 2.73047,0 5.27344,-2.074219 5.27344,-6.246094 0,-3.527344 -2.10938,-5.90625 -4.91016,-5.90625 -1.89844,0 -3.26953,0.84375 -4.13672,2.261719 h -0.0469 l -0.0937,-1.992188 h -1.89844 c 0.0469,1.101563 0.10547,2.296875 0.10547,3.785156 z m 2.08593,-11.472656 c 0,-0.292969 0.0703,-0.609375 0.14063,-0.867188 0.41016,-1.582031 1.74609,-2.613281 3.1875,-2.613281 2.23828,0 3.45703,1.992187 3.45703,4.3125 0,2.671875 -1.28906,4.488281 -3.52734,4.488281 -1.51172,0 -2.77735,-1.007812 -3.16407,-2.472656 -0.0469,-0.257813 -0.0937,-0.550781 -0.0937,-0.855469 z m 11.56934,11.472656 h 2.08594 v -6.316406 h 0.0469 c 0.69141,1.148437 2.03906,1.828125 3.57422,1.828125 2.73047,0 5.27344,-2.074219 5.27344,-6.246094 0,-3.527344 -2.10938,-5.90625 -4.91016,-5.90625 -1.89844,0 -3.26953,0.84375 -4.13672,2.261719 h -0.0469 l -0.0937,-1.992188 h -1.89844 c 0.0469,1.101563 0.10547,2.296875 0.10547,3.785156 z m 2.08594,-11.472656 c 0,-0.292969 0.0703,-0.609375 0.14062,-0.867188 0.41016,-1.582031 1.7461,-2.613281 3.1875,-2.613281 2.23828,0 3.45703,1.992187 3.45703,4.3125 0,2.671875 -1.28906,4.488281 -3.52734,4.488281 -1.51172,0 -2.77734,-1.007812 -3.16406,-2.472656 -0.0469,-0.257813 -0.0937,-0.550781 -0.0937,-0.855469 z m 11.56933,6.714843 h 2.10938 V 40.560158 h -2.10938 z m 14.99414,-5.425781 c 0.0234,-0.210937 0.0703,-0.550781 0.0703,-0.984375 0,-2.132812 -1.00782,-5.472656 -4.79297,-5.472656 -3.38672,0 -5.44922,2.765625 -5.44922,6.269531 0,3.503906 2.13281,5.847656 5.70703,5.847656 1.85156,0 3.11719,-0.375 3.86719,-0.714843 l -0.36328,-1.511719 c -0.78516,0.339844 -1.69922,0.597656 -3.21094,0.597656 -2.10938,0 -3.9375,-1.171875 -3.98438,-4.03125 z m -8.13281,-1.511719 c 0.16406,-1.464843 1.10156,-3.433593 3.23438,-3.433593 2.3789,0 2.95312,2.085937 2.92968,3.433593 z m 18.00293,-10.101562 h -2.08594 V 57.59922 h 2.08594 v -4.371093 l 1.07813,-1.195313 4.00781,5.566406 h 2.5664 l -5.10937,-6.84375 4.48828,-4.769531 h -2.54297 l -3.41015,4.007813 c -0.33985,0.410156 -0.75,0.914062 -1.03125,1.3125 h -0.0469 z m 9.57715,17.039062 h 2.10937 v -6.984375 c 0,-0.363281 0.0469,-0.714843 0.14063,-0.984375 0.36328,-1.171875 1.44141,-2.15625 2.83594,-2.15625 1.99218,0 2.68359,1.558594 2.68359,3.433594 v 6.691406 h 2.10938 v -6.9375 c 0,-3.984375 -2.4961,-4.945312 -4.10157,-4.945312 -1.92187,0 -3.25781,1.078125 -3.84375,2.191406 h -0.0469 l -0.11719,-1.921875 h -1.875 c 0.0703,0.960938 0.10547,1.945313 0.10547,3.140625 z m 22.64648,-5.425781 c 0.0234,-0.210937 0.0703,-0.550781 0.0703,-0.984375 0,-2.132812 -1.00782,-5.472656 -4.79297,-5.472656 -3.38672,0 -5.44922,2.765625 -5.44922,6.269531 0,3.503906 2.13281,5.847656 5.70703,5.847656 1.85156,0 3.11719,-0.375 3.86719,-0.714843 l -0.36328,-1.511719 c -0.78516,0.339844 -1.69922,0.597656 -3.21094,0.597656 -2.10938,0 -3.9375,-1.171875 -3.98438,-4.03125 z m -8.13281,-1.511719 c 0.16406,-1.464843 1.10156,-3.433593 3.23438,-3.433593 2.3789,0 2.95312,2.085937 2.92968,3.433593 z m 20.15918,1.511719 c 0.0234,-0.210937 0.0703,-0.550781 0.0703,-0.984375 0,-2.132812 -1.00781,-5.472656 -4.79297,-5.472656 -3.38671,0 -5.44921,2.765625 -5.44921,6.269531 0,3.503906 2.13281,5.847656 5.70703,5.847656 1.85156,0 3.11718,-0.375 3.86718,-0.714843 l -0.36328,-1.511719 c -0.78515,0.339844 -1.69922,0.597656 -3.21093,0.597656 -2.10938,0 -3.9375,-1.171875 -3.98438,-4.03125 z M 234.0742,50.66172 c 0.16406,-1.464843 1.10156,-3.433593 3.23437,-3.433593 2.37891,0 2.95313,2.085937 2.92969,3.433593 z m 10.00781,6.386719 c 0.82031,0.480469 1.99219,0.785156 3.25781,0.785156 2.76563,0 4.34766,-1.429687 4.34766,-3.46875 0,-1.734375 -1.03125,-2.742187 -3.04688,-3.503906 -1.51171,-0.585937 -2.20312,-1.019531 -2.20312,-1.96875 0,-0.867187 0.69141,-1.59375 1.93359,-1.59375 1.08985,0 1.92188,0.386719 2.37891,0.679688 l 0.52734,-1.535157 c -0.64453,-0.386718 -1.67578,-0.726562 -2.84765,-0.726562 -2.4961,0 -4.00782,1.535156 -4.00782,3.410156 0,1.394531 0.98438,2.542969 3.07032,3.292969 1.55859,0.574219 2.15625,1.125 2.15625,2.132812 0,0.960938 -0.71485,1.722657 -2.26172,1.722657 -1.05469,0 -2.15625,-0.433594 -2.77735,-0.832032 z m 10.44141,3.363281 c 0.66797,-1.136718 1.72265,-3.796875 2.29687,-5.835937 l -2.32031,0.234375 c -0.26953,1.757812 -0.91406,4.324219 -1.44141,5.742187 z m 0.98437,-11.015625 c 0.85547,0 1.41797,-0.65625 1.41797,-1.488281 0,-0.890625 -0.5625,-1.511719 -1.41797,-1.511719 -0.82031,0 -1.41797,0.621094 -1.41797,1.511719 0,0.832031 0.57422,1.488281 1.41797,1.488281 z m 11.0625,8.203125 V 45.985939 h -2.10937 V 57.59922 Z M 265.5156,41.403908 c -0.77343,0 -1.32421,0.574219 -1.32421,1.3125 0,0.726562 0.52734,1.300781 1.27734,1.300781 0.83203,0 1.35937,-0.574219 1.33594,-1.300781 0,-0.738281 -0.50391,-1.3125 -1.28907,-1.3125 z m 5.03028,1.792969 v 2.789062 h -1.79297 v 1.605469 h 1.79297 v 6.339844 c 0,1.359375 0.22265,2.390625 0.82031,3.023437 0.50391,0.574219 1.30078,0.878906 2.28516,0.878906 0.80859,0 1.46484,-0.117187 1.86328,-0.28125 l -0.0937,-1.582031 c -0.25781,0.07031 -0.66797,0.140625 -1.21875,0.140625 -1.1836,0 -1.58203,-0.820312 -1.58203,-2.25 v -6.269531 h 3.02343 V 45.985939 H 272.6201 V 42.646095 Z M 285.21775,57.59922 V 45.985939 h -2.10937 V 57.59922 Z m -1.05468,-16.195312 c -0.77344,0 -1.32422,0.574219 -1.32422,1.3125 0,0.726562 0.52734,1.300781 1.27734,1.300781 0.83203,0 1.35938,-0.574219 1.33594,-1.300781 0,-0.738281 -0.50391,-1.3125 -1.28906,-1.3125 z m 3.74121,15.644531 c 0.82031,0.480469 1.99218,0.785156 3.25781,0.785156 2.76562,0 4.34766,-1.429687 4.34766,-3.46875 0,-1.734375 -1.03125,-2.742187 -3.04688,-3.503906 -1.51172,-0.585937 -2.20312,-1.019531 -2.20312,-1.96875 0,-0.867187 0.6914,-1.59375 1.93359,-1.59375 1.08984,0 1.92187,0.386719 2.37891,0.679688 l 0.52734,-1.535157 c -0.64453,-0.386718 -1.67578,-0.726562 -2.84766,-0.726562 -2.49609,0 -4.00781,1.535156 -4.00781,3.410156 0,1.394531 0.98438,2.542969 3.07031,3.292969 1.5586,0.574219 2.15625,1.125 2.15625,2.132812 0,0.960938 -0.71484,1.722657 -2.26172,1.722657 -1.05468,0 -2.15625,-0.433594 -2.77734,-0.832032 z m 23.75683,0.550781 c -0.14062,-0.796875 -0.1875,-1.78125 -0.1875,-2.789062 V 50.47422 c 0,-2.332031 -0.86718,-4.757812 -4.41797,-4.757812 -1.46484,0 -2.85937,0.410156 -3.82031,1.03125 l 0.48047,1.394531 c 0.82031,-0.527344 1.94531,-0.867187 3.02344,-0.867187 2.3789,0 2.64844,1.734375 2.64844,2.695312 v 0.234375 c -4.48829,-0.02344 -6.98438,1.511719 -6.98438,4.324219 0,1.675781 1.19531,3.339844 3.55078,3.339844 1.65235,0 2.90625,-0.820313 3.55078,-1.734375 h 0.0703 l 0.16406,1.464843 z m -2.22656,-3.914062 c 0,0.222656 -0.0469,0.457031 -0.11719,0.679687 -0.33984,0.972657 -1.30078,1.933594 -2.8125,1.933594 -1.07812,0 -1.99218,-0.644531 -1.99218,-2.015625 0,-2.25 2.61328,-2.660156 4.92187,-2.613281 z m 10.53809,3.914062 h 2.0625 v -7.007812 c 0,-0.363281 0.0469,-0.714844 0.16406,-1.03125 0.33984,-1.054688 1.30078,-2.109375 2.61328,-2.109375 1.60547,0 2.42578,1.335937 2.42578,3.1875 v 6.960937 h 2.0625 v -7.171875 c 0,-0.386718 0.0703,-0.773437 0.17578,-1.054687 0.35156,-1.042969 1.28906,-1.921875 2.4961,-1.921875 1.69921,0 2.51953,1.335937 2.51953,3.574219 v 6.574218 h 2.0625 v -6.84375 c 0,-4.03125 -2.28516,-5.039062 -3.82032,-5.039062 -1.10156,0 -1.875,0.292969 -2.5664,0.820312 -0.48047,0.363282 -0.9375,0.867188 -1.30078,1.511719 h -0.0469 c -0.5039,-1.371094 -1.69922,-2.332031 -3.28125,-2.332031 -1.92187,0 -3,1.03125 -3.65625,2.144531 h -0.0703 l -0.0937,-1.875 h -1.85156 c 0.0703,0.960938 0.10547,1.945313 0.10547,3.140625 z m 28.3623,0 c -0.14062,-0.796875 -0.1875,-1.78125 -0.1875,-2.789062 V 50.47422 c 0,-2.332031 -0.86719,-4.757812 -4.41797,-4.757812 -1.46484,0 -2.85937,0.410156 -3.82031,1.03125 l 0.48047,1.394531 c 0.82031,-0.527344 1.94531,-0.867187 3.02344,-0.867187 2.3789,0 2.64843,1.734375 2.64843,2.695312 v 0.234375 c -4.48828,-0.02344 -6.98437,1.511719 -6.98437,4.324219 0,1.675781 1.19531,3.339844 3.55078,3.339844 1.65234,0 2.90625,-0.820313 3.55078,-1.734375 h 0.0703 l 0.16407,1.464843 z m -2.22656,-3.914062 c 0,0.222656 -0.0469,0.457031 -0.11719,0.679687 -0.33984,0.972657 -1.30078,1.933594 -2.8125,1.933594 -1.07812,0 -1.99219,-0.644531 -1.99219,-2.015625 0,-2.25 2.61328,-2.660156 4.92188,-2.613281 z m 5.82129,-10.488281 v 2.789062 h -1.79297 v 1.605469 h 1.79297 v 6.339844 c 0,1.359375 0.22265,2.390625 0.82031,3.023437 0.50391,0.574219 1.30078,0.878906 2.28516,0.878906 0.80859,0 1.46484,-0.117187 1.86328,-0.28125 l -0.0937,-1.582031 c -0.25782,0.07031 -0.66797,0.140625 -1.21875,0.140625 -1.1836,0 -1.58203,-0.820312 -1.58203,-2.25 v -6.269531 h 3.02343 v -1.605469 h -3.02343 v -3.339844 z m 7.94531,0 v 2.789062 h -1.79297 v 1.605469 h 1.79297 v 6.339844 c 0,1.359375 0.22266,2.390625 0.82031,3.023437 0.50391,0.574219 1.30078,0.878906 2.28516,0.878906 0.80859,0 1.46484,-0.117187 1.86328,-0.28125 l -0.0937,-1.582031 c -0.25781,0.07031 -0.66797,0.140625 -1.21875,0.140625 -1.18359,0 -1.58203,-0.820312 -1.58203,-2.25 v -6.269531 h 3.02344 v -1.605469 h -3.02344 v -3.339844 z m 16.6582,8.976562 c 0.0234,-0.210937 0.0703,-0.550781 0.0703,-0.984375 0,-2.132812 -1.00782,-5.472656 -4.79297,-5.472656 -3.38672,0 -5.44922,2.765625 -5.44922,6.269531 0,3.503906 2.13281,5.847656 5.70703,5.847656 1.85156,0 3.11719,-0.375 3.86719,-0.714843 l -0.36328,-1.511719 c -0.78516,0.339844 -1.69922,0.597656 -3.21094,0.597656 -2.10938,0 -3.9375,-1.171875 -3.98438,-4.03125 z m -8.13281,-1.511719 c 0.16406,-1.464843 1.10156,-3.433593 3.23438,-3.433593 2.3789,0 2.95312,2.085937 2.92968,3.433593 z m 10.82813,6.9375 h 2.08593 v -6.1875 c 0,-0.363281 0.0469,-0.703125 0.0937,-0.984375 0.28125,-1.59375 1.34766,-2.71875 2.83594,-2.71875 0.28125,0 0.50391,0.02344 0.71484,0.07031 V 45.78672 c -0.1875,-0.04687 -0.36328,-0.07031 -0.59765,-0.07031 -1.41797,0 -2.69531,0.984375 -3.22266,2.542969 h -0.0937 l -0.0703,-2.273438 h -1.85156 c 0.0703,1.078125 0.10547,2.25 0.10547,3.621094 z m 17.84765,-11.882812 c -3.21094,0 -5.7539,2.285156 -5.7539,6.175781 0,3.667969 2.42578,5.976563 5.5664,5.976563 2.8125,0 5.78906,-1.875 5.78906,-6.175782 0,-3.550781 -2.26171,-5.976562 -5.60156,-5.976562 z m -0.0469,1.582031 c 2.49609,0 3.48047,2.496094 3.48047,4.464844 0,2.625 -1.51172,4.511719 -3.52735,4.511719 -2.0625,0 -3.52734,-1.910157 -3.52734,-4.464844 0,-2.203125 1.07812,-4.511719 3.57422,-4.511719 z m 10.6084,10.300781 V 47.591408 h 2.8125 v -1.605469 h -2.8125 v -0.621094 c 0,-1.78125 0.45703,-3.363281 2.26171,-3.363281 0.59766,0 1.03125,0.117188 1.33594,0.257813 l 0.29297,-1.628907 c -0.41016,-0.164062 -1.05469,-0.339843 -1.80469,-0.339843 -0.98437,0 -2.03906,0.316406 -2.82422,1.089843 -0.98437,0.925782 -1.34765,2.414063 -1.34765,4.054688 v 0.550781 h -1.62891 v 1.605469 h 1.62891 V 57.59922 Z M 2.2275188,71.998634 v 2.789063 H 0.43455 v 1.605469 h 1.7929688 v 6.339843 c 0,1.359375 0.2226562,2.390625 0.8203125,3.023438 0.5039062,0.574219 1.3007812,0.878906 2.2851562,0.878906 0.8085938,0 1.4648438,-0.117187 1.8632813,-0.28125 l -0.09375,-1.582031 c -0.2578125,0.07031 -0.6679688,0.140625 -1.21875,0.140625 -1.1835938,0 -1.5820313,-0.820313 -1.5820313,-2.25 V 76.393166 H 7.325175 V 74.787697 H 4.3017375 v -3.339844 z m 7.4736328,14.402344 h 2.1093754 v -7.007812 c 0,-0.410157 0.02344,-0.714844 0.140625,-1.007813 0.386718,-1.148437 1.464843,-2.109375 2.835937,-2.109375 1.992188,0 2.683594,1.582031 2.683594,3.457031 v 6.667969 h 2.109375 v -6.914062 c 0,-4.007813 -2.496094,-4.96875 -4.054688,-4.96875 -0.785156,0 -1.535156,0.246093 -2.15625,0.597656 -0.644531,0.363281 -1.183593,0.890625 -1.511718,1.488281 h -0.04687 V 69.361916 H 9.7011516 Z M 32.350566,80.975197 c 0.02344,-0.210938 0.07031,-0.550781 0.07031,-0.984375 0,-2.132813 -1.007812,-5.472656 -4.792969,-5.472656 -3.386718,0 -5.449218,2.765625 -5.449218,6.269531 0,3.503906 2.132812,5.847656 5.707031,5.847656 1.851562,0 3.117187,-0.375 3.867187,-0.714844 l -0.363281,-1.511718 c -0.785156,0.339843 -1.699219,0.597656 -3.210937,0.597656 -2.109375,0 -3.9375,-1.171875 -3.984375,-4.03125 z m -8.132813,-1.511719 c 0.164063,-1.464844 1.101563,-3.433594 3.234375,-3.433594 2.378906,0 2.953125,2.085938 2.929688,3.433594 z m 14.592774,-4.675781 3.503906,11.613281 h 1.921875 l 1.863281,-5.519531 c 0.410156,-1.253906 0.773438,-2.449219 1.066406,-3.84375 h 0.04687 c 0.28125,1.371094 0.621094,2.519531 1.03125,3.820312 l 1.769532,5.542969 h 1.921875 l 3.75,-11.613281 H 53.58787 l -1.652343,5.824219 c -0.386719,1.371093 -0.691407,2.601562 -0.890625,3.773437 h -0.07031 C 50.71678,83.213478 50.376936,81.983009 49.943342,80.588478 L 48.15037,74.787697 h -1.78125 l -1.898437,5.929687 c -0.386719,1.242188 -0.761719,2.496094 -1.03125,3.667969 h -0.07031 C 43.158186,83.190041 42.84178,81.983009 42.501936,80.693947 L 40.96678,74.787697 Z M 59.907206,86.400978 V 74.787697 H 57.797831 V 86.400978 Z M 58.852519,70.205666 c -0.773438,0 -1.324219,0.574218 -1.324219,1.3125 0,0.726562 0.527344,1.300781 1.277344,1.300781 0.832031,0 1.359375,-0.574219 1.335937,-1.300781 0,-0.738282 -0.503906,-1.3125 -1.289062,-1.3125 z m 4.561523,16.195312 h 2.109375 V 69.361916 h -2.109375 z m 5.663086,0 h 2.109375 V 69.361916 h -2.109375 z m 5.566406,2.8125 c 0.667969,-1.136719 1.722657,-3.796875 2.273438,-5.835937 l -2.34375,0.234375 c -0.269531,1.757812 -0.914063,4.324218 -1.441406,5.742187 z m 18.257813,-2.8125 c -0.140625,-0.796875 -0.1875,-1.78125 -0.1875,-2.789062 v -4.335938 c 0,-2.332031 -0.867188,-4.757812 -4.417969,-4.757812 -1.464844,0 -2.859375,0.410156 -3.820312,1.03125 l 0.480468,1.394531 c 0.820313,-0.527344 1.945313,-0.867188 3.023438,-0.867188 2.378906,0 2.648437,1.734375 2.648437,2.695313 v 0.234375 c -4.488281,-0.02344 -6.984375,1.511719 -6.984375,4.324219 0,1.675781 1.195313,3.339843 3.550782,3.339843 1.652343,0 2.90625,-0.820312 3.550781,-1.734375 h 0.07031 l 0.164063,1.464844 z m -2.226563,-3.914062 c 0,0.222656 -0.04687,0.457031 -0.117187,0.679687 -0.339844,0.972656 -1.300781,1.933594 -2.8125,1.933594 -1.078125,0 -1.992188,-0.644531 -1.992188,-2.015625 0,-2.25 2.613282,-2.660156 4.921875,-2.613281 z m 18.448246,8.671875 h 2.12109 V 77.975197 c 0,-1.195313 0.0234,-2.203125 0.0703,-3.1875 h -1.99218 l -0.0703,1.746094 h -0.0586 c -0.57422,-1.125 -1.76953,-2.015625 -3.57422,-2.015625 -2.44922,0 -5.25,1.921875 -5.25,6.269531 0,3.527344 2.20313,5.882812 4.92188,5.882812 1.86328,0 3.16406,-0.914062 3.78515,-2.074218 h 0.0469 z m 0,-9.480469 c 0,0.304687 -0.0703,0.714844 -0.16407,1.007812 -0.48046,1.453125 -1.65234,2.296875 -3.02343,2.296875 -2.33203,0 -3.4336,-2.015625 -3.4336,-4.3125 0,-2.625 1.32422,-4.464843 3.50391,-4.464843 1.58203,0 2.71875,1.101562 3.02344,2.390625 0.0703,0.269531 0.0937,0.609375 0.0937,0.890625 z m 15.3164,-6.890625 h -2.10937 v 7.125 c 0,0.386719 -0.0703,0.773437 -0.19922,1.078125 -0.375,0.9375 -1.35938,1.921875 -2.77734,1.921875 -1.92188,0 -2.58985,-1.488281 -2.58985,-3.691406 v -6.433594 h -2.12109 v 6.785156 c 0,4.089844 2.1914,5.097656 4.00781,5.097656 2.07422,0 3.29297,-1.230468 3.84375,-2.167968 h 0.0469 l 0.11718,1.898437 h 1.875 c -0.0703,-0.914062 -0.0937,-1.96875 -0.0937,-3.164062 z m 11.85352,11.613281 c -0.14063,-0.796875 -0.1875,-1.78125 -0.1875,-2.789062 v -4.335938 c 0,-2.332031 -0.86719,-4.757812 -4.41797,-4.757812 -1.46484,0 -2.85938,0.410156 -3.82031,1.03125 l 0.48047,1.394531 c 0.82031,-0.527344 1.94531,-0.867188 3.02343,-0.867188 2.37891,0 2.64844,1.734375 2.64844,2.695313 v 0.234375 c -4.48828,-0.02344 -6.98437,1.511719 -6.98437,4.324219 0,1.675781 1.19531,3.339843 3.55078,3.339843 1.65234,0 2.90625,-0.820312 3.55078,-1.734375 h 0.0703 l 0.16406,1.464844 z m -2.22656,-3.914062 c 0,0.222656 -0.0469,0.457031 -0.11719,0.679687 -0.33985,0.972656 -1.30078,1.933594 -2.8125,1.933594 -1.07813,0 -1.99219,-0.644531 -1.99219,-2.015625 0,-2.25 2.61328,-2.660156 4.92188,-2.613281 z m 5.45214,3.914062 h 2.10938 V 69.361916 h -2.10938 z m 7.77247,0 V 74.787697 h -2.10938 v 11.613281 z m -1.05469,-16.195312 c -0.77344,0 -1.32422,0.574218 -1.32422,1.3125 0,0.726562 0.52734,1.300781 1.27734,1.300781 0.83203,0 1.35938,-0.574219 1.33594,-1.300781 0,-0.738282 -0.50391,-1.3125 -1.28906,-1.3125 z m 5.03027,1.792968 v 2.789063 h -1.79297 v 1.605469 h 1.79297 v 6.339843 c 0,1.359375 0.22266,2.390625 0.82031,3.023438 0.50391,0.574219 1.30079,0.878906 2.28516,0.878906 0.80859,0 1.46484,-0.117187 1.86328,-0.28125 l -0.0937,-1.582031 c -0.25781,0.07031 -0.66797,0.140625 -1.21875,0.140625 -1.18359,0 -1.58203,-0.820313 -1.58203,-2.25 v -6.269531 h 3.02344 v -1.605469 h -3.02344 v -3.339844 z m 6.14356,2.789063 4.30078,10.699219 c 0.0937,0.269531 0.14062,0.433593 0.14062,0.550781 0,0.128906 -0.0703,0.292969 -0.16406,0.503906 -0.48047,1.078125 -1.19531,1.898438 -1.78125,2.355469 -0.62109,0.527344 -1.3125,0.867187 -1.83984,1.03125 l 0.52734,1.78125 c 0.52734,-0.105469 1.55859,-0.457031 2.58984,-1.371094 1.44141,-1.253906 2.47266,-3.292969 3.98438,-7.277344 l 3.16406,-8.273437 h -2.22656 l -2.3086,6.808594 c -0.28125,0.84375 -0.52734,1.734375 -0.73828,2.425781 h -0.0469 c -0.19922,-0.691406 -0.48047,-1.605469 -0.75,-2.378906 l -2.54297,-6.855469 z m 22.84863,-0.269531 c -3.21094,0 -5.75391,2.285156 -5.75391,6.175781 0,3.667969 2.42578,5.976562 5.56641,5.976562 2.8125,0 5.78906,-1.875 5.78906,-6.175781 0,-3.550781 -2.26172,-5.976562 -5.60156,-5.976562 z m -0.0469,1.582031 c 2.4961,0 3.48047,2.496094 3.48047,4.464844 0,2.625 -1.51172,4.511718 -3.52734,4.511718 -2.0625,0 -3.52734,-1.910156 -3.52734,-4.464843 0,-2.203125 1.07812,-4.511719 3.57421,-4.511719 z M 190.8232,86.400978 V 76.393166 h 2.8125 v -1.605469 h -2.8125 v -0.621094 c 0,-1.78125 0.45703,-3.363281 2.26172,-3.363281 0.59766,0 1.03125,0.117187 1.33594,0.257812 l 0.29297,-1.628906 c -0.41016,-0.164062 -1.05469,-0.339844 -1.80469,-0.339844 -0.98438,0 -2.03906,0.316407 -2.82422,1.089844 -0.98437,0.925781 -1.34766,2.414063 -1.34766,4.054688 v 0.550781 h -1.6289 v 1.605469 h 1.6289 v 10.007812 z m 10.26856,-14.402344 v 2.789063 h -1.79297 v 1.605469 h 1.79297 v 6.339843 c 0,1.359375 0.22265,2.390625 0.82031,3.023438 0.50391,0.574219 1.30078,0.878906 2.28516,0.878906 0.80859,0 1.46484,-0.117187 1.86328,-0.28125 l -0.0937,-1.582031 c -0.25782,0.07031 -0.66797,0.140625 -1.21875,0.140625 -1.1836,0 -1.58203,-0.820313 -1.58203,-2.25 v -6.269531 h 3.02343 V 74.787697 H 203.166 v -3.339844 z m 7.47363,14.402344 h 2.10937 v -7.007812 c 0,-0.410157 0.0234,-0.714844 0.14063,-1.007813 0.38672,-1.148437 1.46484,-2.109375 2.83594,-2.109375 1.99218,0 2.68359,1.582031 2.68359,3.457031 v 6.667969 h 2.10938 v -6.914062 c 0,-4.007813 -2.4961,-4.96875 -4.05469,-4.96875 -0.78516,0 -1.53516,0.246093 -2.15625,0.597656 -0.64453,0.363281 -1.1836,0.890625 -1.51172,1.488281 h -0.0469 v -7.242187 h -2.10937 z m 22.64941,-5.425781 c 0.0234,-0.210938 0.0703,-0.550781 0.0703,-0.984375 0,-2.132813 -1.00782,-5.472656 -4.79297,-5.472656 -3.38672,0 -5.44922,2.765625 -5.44922,6.269531 0,3.503906 2.13281,5.847656 5.70703,5.847656 1.85156,0 3.11719,-0.375 3.86719,-0.714844 l -0.36328,-1.511718 c -0.78516,0.339843 -1.69922,0.597656 -3.21094,0.597656 -2.10938,0 -3.9375,-1.171875 -3.98438,-4.03125 z m -8.13281,-1.511719 c 0.16406,-1.464844 1.10156,-3.433594 3.23438,-3.433594 2.3789,0 2.95312,2.085938 2.92968,3.433594 z m 18.02637,6.9375 V 74.787697 H 238.999 v 11.613281 z m -1.05469,-16.195312 c -0.77344,0 -1.32422,0.574218 -1.32422,1.3125 0,0.726562 0.52735,1.300781 1.27735,1.300781 0.83203,0 1.35937,-0.574219 1.33593,-1.300781 0,-0.738282 -0.5039,-1.3125 -1.28906,-1.3125 z m 4.56152,16.195312 h 2.0625 v -7.007812 c 0,-0.363282 0.0469,-0.714844 0.16407,-1.03125 0.33984,-1.054688 1.30078,-2.109375 2.61328,-2.109375 1.60547,0 2.42578,1.335937 2.42578,3.1875 v 6.960937 h 2.0625 v -7.171875 c 0,-0.386719 0.0703,-0.773437 0.17578,-1.054687 0.35156,-1.042969 1.28906,-1.921875 2.49609,-1.921875 1.69922,0 2.51954,1.335937 2.51954,3.574218 v 6.574219 h 2.0625 v -6.84375 c 0,-4.03125 -2.28516,-5.039062 -3.82032,-5.039062 -1.10156,0 -1.875,0.292968 -2.5664,0.820312 -0.48047,0.363281 -0.9375,0.867188 -1.30078,1.511719 h -0.0469 c -0.50391,-1.371094 -1.69922,-2.332031 -3.28125,-2.332031 -1.92187,0 -3,1.03125 -3.65625,2.144531 h -0.0703 l -0.0937,-1.875 h -1.85156 c 0.0703,0.960937 0.10546,1.945312 0.10546,3.140625 z m 28.35938,0 c -0.14063,-0.796875 -0.1875,-1.78125 -0.1875,-2.789062 v -4.335938 c 0,-2.332031 -0.86719,-4.757812 -4.41797,-4.757812 -1.46484,0 -2.85937,0.410156 -3.82031,1.03125 l 0.48047,1.394531 c 0.82031,-0.527344 1.94531,-0.867188 3.02343,-0.867188 2.37891,0 2.64844,1.734375 2.64844,2.695313 v 0.234375 c -4.48828,-0.02344 -6.98437,1.511719 -6.98437,4.324219 0,1.675781 1.19531,3.339843 3.55078,3.339843 1.65234,0 2.90625,-0.820312 3.55078,-1.734375 h 0.0703 l 0.16406,1.464844 z m -2.22656,-3.914062 c 0,0.222656 -0.0469,0.457031 -0.11719,0.679687 -0.33984,0.972656 -1.30078,1.933594 -2.8125,1.933594 -1.07813,0 -1.99219,-0.644531 -1.99219,-2.015625 0,-2.25 2.61328,-2.660156 4.92188,-2.613281 z m 13.60547,-7.699219 -0.0937,1.746094 h -0.0469 c -0.50391,-0.960938 -1.61719,-2.015625 -3.63281,-2.015625 -2.66016,0 -5.22656,2.238281 -5.22656,6.175781 0,3.210937 2.0625,5.660156 4.94531,5.660156 1.79297,0 3.04687,-0.867187 3.6914,-1.945312 h 0.0469 v 1.300781 c 0,2.917969 -1.58203,4.054687 -3.73828,4.054687 -1.44141,0 -2.64844,-0.433593 -3.41016,-0.914062 l -0.52734,1.605469 c 0.9375,0.621093 2.47265,0.960937 3.86719,0.960937 1.45312,0 3.09375,-0.339844 4.21875,-1.394531 1.125,-1.007813 1.65234,-2.636719 1.65234,-5.296875 v -6.75 c 0,-1.417969 0.0469,-2.355469 0.10547,-3.1875 z m -0.33985,6.667969 c 0,0.363281 -0.0469,0.773437 -0.16406,1.125 -0.45703,1.347656 -1.62891,2.167968 -2.92969,2.167968 -2.28515,0 -3.43359,-1.898437 -3.43359,-4.183593 0,-2.683594 1.4414,-4.382813 3.45703,-4.382813 1.53516,0 2.56641,1.007813 2.95312,2.226563 0.0937,0.292968 0.11719,0.597656 0.11719,0.960937 z m 7.56445,4.945312 V 74.787697 h -2.10937 V 86.400978 Z M 290.5234,70.205666 c -0.77344,0 -1.32422,0.574218 -1.32422,1.3125 0,0.726562 0.52734,1.300781 1.27734,1.300781 0.83203,0 1.35938,-0.574219 1.33594,-1.300781 0,-0.738282 -0.50391,-1.3125 -1.28906,-1.3125 z m 4.56152,16.195312 h 2.10938 v -6.984375 c 0,-0.363281 0.0469,-0.714844 0.14062,-0.984375 0.36328,-1.171875 1.44141,-2.15625 2.83594,-2.15625 1.99219,0 2.68359,1.558594 2.68359,3.433594 v 6.691406 h 2.10938 v -6.9375 c 0,-3.984375 -2.4961,-4.945312 -4.10157,-4.945312 -1.92187,0 -3.25781,1.078125 -3.84375,2.191406 h -0.0469 l -0.11719,-1.921875 h -1.875 c 0.0703,0.960937 0.10547,1.945312 0.10547,3.140625 z m 21.66504,0 c -0.14063,-0.796875 -0.1875,-1.78125 -0.1875,-2.789062 v -4.335938 c 0,-2.332031 -0.86719,-4.757812 -4.41797,-4.757812 -1.46484,0 -2.85937,0.410156 -3.82031,1.03125 l 0.48047,1.394531 c 0.82031,-0.527344 1.94531,-0.867188 3.02343,-0.867188 2.37891,0 2.64844,1.734375 2.64844,2.695313 v 0.234375 c -4.48828,-0.02344 -6.98437,1.511719 -6.98437,4.324219 0,1.675781 1.19531,3.339843 3.55078,3.339843 1.65234,0 2.90625,-0.820312 3.55078,-1.734375 h 0.0703 l 0.16406,1.464844 z m -2.22656,-3.914062 c 0,0.222656 -0.0469,0.457031 -0.11719,0.679687 -0.33984,0.972656 -1.30078,1.933594 -2.8125,1.933594 -1.07813,0 -1.99219,-0.644531 -1.99219,-2.015625 0,-2.25 2.61328,-2.660156 4.92188,-2.613281 z m 5.82422,-10.488282 v 2.789063 h -1.79297 v 1.605469 h 1.79297 v 6.339843 c 0,1.359375 0.22265,2.390625 0.82031,3.023438 0.5039,0.574219 1.30078,0.878906 2.28515,0.878906 0.8086,0 1.46485,-0.117187 1.86329,-0.28125 l -0.0937,-1.582031 c -0.25782,0.07031 -0.66797,0.140625 -1.21875,0.140625 -1.1836,0 -1.58204,-0.820313 -1.58204,-2.25 v -6.269531 h 3.02344 v -1.605469 h -3.02344 v -3.339844 z m 9.583,14.402344 V 74.787697 h -2.10937 v 11.613281 z m -1.05468,-16.195312 c -0.77344,0 -1.32422,0.574218 -1.32422,1.3125 0,0.726562 0.52734,1.300781 1.27734,1.300781 0.83203,0 1.35938,-0.574219 1.33594,-1.300781 0,-0.738282 -0.50391,-1.3125 -1.28906,-1.3125 z m 9.47168,4.3125 c -3.21094,0 -5.75391,2.285156 -5.75391,6.175781 0,3.667969 2.42578,5.976562 5.56641,5.976562 2.8125,0 5.78906,-1.875 5.78906,-6.175781 0,-3.550781 -2.26172,-5.976562 -5.60156,-5.976562 z m -0.0469,1.582031 c 2.49609,0 3.48047,2.496094 3.48047,4.464844 0,2.625 -1.51172,4.511718 -3.52734,4.511718 -2.0625,0 -3.52735,-1.910156 -3.52735,-4.464843 0,-2.203125 1.07813,-4.511719 3.57422,-4.511719 z m 8.31445,10.300781 h 2.10938 v -6.984375 c 0,-0.363281 0.0469,-0.714844 0.14062,-0.984375 0.36329,-1.171875 1.44141,-2.15625 2.83594,-2.15625 1.99219,0 2.6836,1.558594 2.6836,3.433594 v 6.691406 h 2.10937 v -6.9375 c 0,-3.984375 -2.49609,-4.945312 -4.10156,-4.945312 -1.92188,0 -3.25781,1.078125 -3.84375,2.191406 h -0.0469 l -0.11718,-1.921875 h -1.875 c 0.0703,0.960937 0.10546,1.945312 0.10546,3.140625 z m 13.45899,2.8125 c 0.66797,-1.136719 1.72265,-3.796875 2.27344,-5.835937 l -2.34375,0.234375 c -0.26954,1.757812 -0.91407,4.324218 -1.44141,5.742187 z m 18.26074,-2.8125 c -0.14062,-0.796875 -0.1875,-1.78125 -0.1875,-2.789062 v -4.335938 c 0,-2.332031 -0.86719,-4.757812 -4.41797,-4.757812 -1.46484,0 -2.85937,0.410156 -3.82031,1.03125 l 0.48047,1.394531 c 0.82031,-0.527344 1.94531,-0.867188 3.02344,-0.867188 2.3789,0 2.64843,1.734375 2.64843,2.695313 v 0.234375 c -4.48828,-0.02344 -6.98437,1.511719 -6.98437,4.324219 0,1.675781 1.19531,3.339843 3.55078,3.339843 1.65234,0 2.90625,-0.820312 3.55078,-1.734375 h 0.0703 l 0.16407,1.464844 z m -2.22656,-3.914062 c 0,0.222656 -0.0469,0.457031 -0.11719,0.679687 -0.33984,0.972656 -1.30078,1.933594 -2.8125,1.933594 -1.07812,0 -1.99219,-0.644531 -1.99219,-2.015625 0,-2.25 2.61328,-2.660156 4.92188,-2.613281 z M 0.3173625,103.58652 l 4.40625,11.61329 h 2.015625 L 11.30955,103.58652 H 9.0947063 l -2.25,6.52735 c -0.3867188,1.05469 -0.7265625,2.01562 -0.984375,2.97656 h -0.070312 c -0.2460938,-0.96094 -0.5625,-1.92187 -0.9375,-2.97656 L 2.567363,103.58652 Z m 15.0937505,11.61329 v -11.61329 h -2.109375 v 11.61329 z M 14.356425,99.004494 c -0.773437,0 -1.324219,0.574218 -1.324219,1.312496 0,0.72657 0.527344,1.30078 1.277344,1.30078 0.832031,0 1.359375,-0.57421 1.335938,-1.30078 0,-0.738278 -0.503907,-1.312496 -1.289063,-1.312496 z m 12.717773,4.582026 -0.09375,1.7461 h -0.04687 c -0.503906,-0.96094 -1.617187,-2.01563 -3.632812,-2.01563 -2.660156,0 -5.226563,2.23828 -5.226563,6.17578 0,3.21094 2.0625,5.66016 4.945313,5.66016 1.792969,0 3.046875,-0.86719 3.691406,-1.94531 h 0.04687 v 1.30078 c 0,2.91797 -1.582031,4.05469 -3.738281,4.05469 -1.441406,0 -2.648438,-0.4336 -3.410156,-0.91407 l -0.527344,1.60547 c 0.9375,0.6211 2.472656,0.96094 3.867187,0.96094 1.453125,0 3.09375,-0.33984 4.21875,-1.39453 1.125,-1.00781 1.652344,-2.63672 1.652344,-5.29688 v -6.75 c 0,-1.41796 0.04687,-2.35546 0.105469,-3.1875 z m -0.339843,6.66797 c 0,0.36328 -0.04687,0.77344 -0.164063,1.125 -0.457031,1.34766 -1.628906,2.16797 -2.929687,2.16797 -2.285157,0 -3.433594,-1.89844 -3.433594,-4.18359 0,-2.6836 1.441406,-4.38281 3.457031,-4.38281 1.535156,0 2.566406,1.00781 2.953125,2.22656 0.09375,0.29297 0.117188,0.59765 0.117188,0.96094 z m 10.508789,-6.9375 c -3.210938,0 -5.753906,2.28516 -5.753906,6.17578 0,3.66797 2.425781,5.97657 5.566406,5.97657 2.8125,0 5.789062,-1.875 5.789062,-6.17578 0,-3.55079 -2.261718,-5.97657 -5.601562,-5.97657 z m -0.04687,1.58203 c 2.496094,0 3.480469,2.4961 3.480469,4.46485 0,2.625 -1.511719,4.51172 -3.527344,4.51172 -2.0625,0 -3.527344,-1.91016 -3.527344,-4.46485 0,-2.20312 1.078125,-4.51172 3.574219,-4.51172 z m 8.314453,10.30079 h 2.085937 v -6.1875 c 0,-0.36329 0.04687,-0.70313 0.09375,-0.98438 0.28125,-1.59375 1.347657,-2.71875 2.835938,-2.71875 0.28125,0 0.503906,0.0234 0.714844,0.0703 v -1.99218 c -0.1875,-0.0469 -0.363282,-0.0703 -0.597657,-0.0703 -1.417968,0 -2.695312,0.98438 -3.222656,2.54297 h -0.09375 l -0.07031,-2.27344 H 45.40526 c 0.07031,1.07813 0.105469,2.25 0.105469,3.6211 z m 17.844726,-11.88282 c -3.210937,0 -5.753906,2.28516 -5.753906,6.17578 0,3.66797 2.425781,5.97657 5.566406,5.97657 2.8125,0 5.789063,-1.875 5.789063,-6.17578 0,-3.55079 -2.261719,-5.97657 -5.601563,-5.97657 z m -0.04687,1.58203 c 2.496094,0 3.480469,2.4961 3.480469,4.46485 0,2.625 -1.511719,4.51172 -3.527344,4.51172 -2.0625,0 -3.527343,-1.91016 -3.527343,-4.46485 0,-2.20312 1.078125,-4.51172 3.574218,-4.51172 z m 10.611329,10.30079 v -10.00782 h 2.8125 v -1.60547 h -2.8125 v -0.62109 c 0,-1.78125 0.457031,-3.36328 2.261718,-3.36328 0.597657,0 1.03125,0.117187 1.335938,0.257812 l 0.292969,-1.628906 c -0.410157,-0.164062 -1.054688,-0.339844 -1.804688,-0.339844 -0.984375,0 -2.039062,0.316407 -2.824219,1.089844 -0.984375,0.925781 -1.347656,2.414064 -1.347656,4.054684 v 0.55078 h -1.628906 v 1.60547 h 1.628906 v 10.00782 z m 10.265625,-14.40235 v 2.78906 h -1.792969 v 1.60547 h 1.792969 v 6.33985 c 0,1.35937 0.222656,2.39062 0.820312,3.02343 0.503906,0.57422 1.300781,0.87891 2.285156,0.87891 0.808594,0 1.464844,-0.11719 1.863282,-0.28125 l -0.09375,-1.58203 c -0.257813,0.0703 -0.667969,0.14062 -1.21875,0.14062 -1.183594,0 -1.582032,-0.82031 -1.582032,-2.25 v -6.26953 h 3.023438 v -1.60547 h -3.023438 v -3.33984 z m 7.476562,14.40235 h 2.109375 v -7.00782 c 0,-0.41015 0.02344,-0.71484 0.140625,-1.00781 0.386719,-1.14844 1.464844,-2.10937 2.835938,-2.10937 1.992187,0 2.683593,1.58203 2.683593,3.45703 v 6.66797 h 2.10938 v -6.91407 c 0,-4.00781 -2.496098,-4.96875 -4.054692,-4.96875 -0.785156,0 -1.535156,0.2461 -2.15625,0.59766 -0.644531,0.36328 -1.183594,0.89062 -1.511719,1.48828 h -0.04687 v -7.242186 h -2.109375 z m 22.646481,-5.42579 c 0.0234,-0.21093 0.0703,-0.55078 0.0703,-0.98437 0,-2.13281 -1.00782,-5.47266 -4.79297,-5.47266 -3.38672,0 -5.44922,2.76563 -5.44922,6.26953 0,3.50391 2.13281,5.84766 5.70703,5.84766 1.85156,0 3.11719,-0.375 3.86719,-0.71484 l -0.36328,-1.51172 c -0.78516,0.33984 -1.69922,0.59765 -3.21094,0.59765 -2.10938,0 -3.9375,-1.17187 -3.98438,-4.03125 z m -8.13281,-1.51171 c 0.16406,-1.46485 1.10156,-3.4336 3.23438,-3.4336 2.3789,0 2.95312,2.08594 2.92968,3.4336 z m 25.24512,1.51171 c 0.0234,-0.21093 0.0703,-0.55078 0.0703,-0.98437 0,-2.13281 -1.00781,-5.47266 -4.79297,-5.47266 -3.38672,0 -5.44922,2.76563 -5.44922,6.26953 0,3.50391 2.13282,5.84766 5.70703,5.84766 1.85157,0 3.11719,-0.375 3.86719,-0.71484 l -0.36328,-1.51172 c -0.78516,0.33984 -1.69922,0.59765 -3.21094,0.59765 -2.10937,0 -3.9375,-1.17187 -3.98437,-4.03125 z m -8.13281,-1.51171 c 0.16406,-1.46485 1.10156,-3.4336 3.23437,-3.4336 2.37891,0 2.95313,2.08594 2.92969,3.4336 z m 10.83105,6.9375 h 2.0625 v -7.00782 c 0,-0.36328 0.0469,-0.71484 0.16406,-1.03125 0.33985,-1.05468 1.30078,-2.10937 2.61328,-2.10937 1.60547,0 2.42579,1.33594 2.42579,3.1875 v 6.96094 h 2.0625 v -7.17188 c 0,-0.38672 0.0703,-0.77344 0.17578,-1.05469 0.35156,-1.04297 1.28906,-1.92187 2.49609,-1.92187 1.69922,0 2.51953,1.33594 2.51953,3.57422 v 6.57422 h 2.0625 v -6.84375 c 0,-4.03125 -2.28515,-5.03907 -3.82031,-5.03907 -1.10156,0 -1.875,0.29297 -2.56641,0.82032 -0.48047,0.36328 -0.9375,0.86718 -1.30078,1.51171 h -0.0469 c -0.50391,-1.37109 -1.69922,-2.33203 -3.28125,-2.33203 -1.92188,0 -3,1.03125 -3.65625,2.14453 h -0.0703 l -0.0937,-1.875 h -1.85156 c 0.0703,0.96094 0.10547,1.94532 0.10547,3.14063 z m 24.92578,-11.88282 c -3.21094,0 -5.7539,2.28516 -5.7539,6.17578 0,3.66797 2.42578,5.97657 5.5664,5.97657 2.8125,0 5.78906,-1.875 5.78906,-6.17578 0,-3.55079 -2.26171,-5.97657 -5.60156,-5.97657 z m -0.0469,1.58203 c 2.49609,0 3.48047,2.4961 3.48047,4.46485 0,2.625 -1.51172,4.51172 -3.52735,4.51172 -2.0625,0 -3.52734,-1.91016 -3.52734,-4.46485 0,-2.20312 1.07812,-4.51172 3.57422,-4.51172 z m 8.78027,-4.10156 v 2.78906 h -1.79297 v 1.60547 h 1.79297 v 6.33985 c 0,1.35937 0.22266,2.39062 0.82031,3.02343 0.50391,0.57422 1.30078,0.87891 2.28516,0.87891 0.80859,0 1.46484,-0.11719 1.86328,-0.28125 l -0.0937,-1.58203 c -0.25781,0.0703 -0.66797,0.14062 -1.21875,0.14062 -1.18359,0 -1.58203,-0.82031 -1.58203,-2.25 v -6.26953 h 3.02344 v -1.60547 h -3.02344 v -3.33984 z m 9.58594,14.40235 v -11.61329 h -2.10938 v 11.61329 z m -1.05469,-16.195316 c -0.77344,0 -1.32422,0.574218 -1.32422,1.312496 0,0.72657 0.52735,1.30078 1.27735,1.30078 0.83203,0 1.35937,-0.57421 1.33593,-1.30078 0,-0.738278 -0.5039,-1.312496 -1.28906,-1.312496 z m 9.47168,4.312496 c -3.21094,0 -5.75391,2.28516 -5.75391,6.17578 0,3.66797 2.42578,5.97657 5.56641,5.97657 2.8125,0 5.78906,-1.875 5.78906,-6.17578 0,-3.55079 -2.26172,-5.97657 -5.60156,-5.97657 z m -0.0469,1.58203 c 2.4961,0 3.48047,2.4961 3.48047,4.46485 0,2.625 -1.51172,4.51172 -3.52734,4.51172 -2.0625,0 -3.52734,-1.91016 -3.52734,-4.46485 0,-2.20312 1.07812,-4.51172 3.57421,-4.51172 z m 8.31153,10.30079 h 2.10937 v -6.98438 c 0,-0.36328 0.0469,-0.71484 0.14063,-0.98437 0.36328,-1.17188 1.4414,-2.15625 2.83594,-2.15625 1.99218,0 2.68359,1.55859 2.68359,3.43359 v 6.69141 h 2.10937 v -6.9375 c 0,-3.98438 -2.49609,-4.94532 -4.10156,-4.94532 -1.92187,0 -3.25781,1.07813 -3.84375,2.19141 h -0.0469 l -0.11719,-1.92188 h -1.875 c 0.0703,0.96094 0.10547,1.94532 0.10547,3.14063 z m 12.50097,-0.55079 c 0.82032,0.48047 1.99219,0.78516 3.25782,0.78516 2.76562,0 4.34765,-1.42969 4.34765,-3.46875 0,-1.73437 -1.03125,-2.74219 -3.04687,-3.50391 -1.51172,-0.58593 -2.20313,-1.01953 -2.20313,-1.96875 0,-0.86718 0.69141,-1.59375 1.9336,-1.59375 1.08984,0 1.92187,0.38672 2.3789,0.67969 l 0.52735,-1.53515 c -0.64453,-0.38672 -1.67578,-0.72657 -2.84766,-0.72657 -2.49609,0 -4.00781,1.53516 -4.00781,3.41016 0,1.39453 0.98437,2.54297 3.07031,3.29297 1.55859,0.57422 2.15625,1.125 2.15625,2.13281 0,0.96094 -0.71484,1.72266 -2.26172,1.72266 -1.05469,0 -2.15625,-0.4336 -2.77734,-0.83203 z m 10.44141,3.36329 c 0.66797,-1.13672 1.72266,-3.79688 2.29688,-5.83594 l -2.32032,0.23437 c -0.26953,1.75782 -0.91406,4.32422 -1.4414,5.74219 z m 0.98438,-11.01563 c 0.85546,0 1.41796,-0.65625 1.41796,-1.48828 0,-0.89063 -0.5625,-1.51172 -1.41796,-1.51172 -0.82032,0 -1.41797,0.62109 -1.41797,1.51172 0,0.83203 0.57422,1.48828 1.41797,1.48828 z m 11.0625,8.20313 v -11.61329 h -2.10938 v 11.61329 z m -1.05469,-16.195316 c -0.77344,0 -1.32422,0.574218 -1.32422,1.312496 0,0.72657 0.52734,1.30078 1.27734,1.30078 0.83203,0 1.35938,-0.57421 1.33594,-1.30078 0,-0.738278 -0.50391,-1.312496 -1.28906,-1.312496 z m 5.03027,1.792966 v 2.78906 h -1.79297 v 1.60547 h 1.79297 v 6.33985 c 0,1.35937 0.22266,2.39062 0.82031,3.02343 0.50391,0.57422 1.30079,0.87891 2.28516,0.87891 0.80859,0 1.46484,-0.11719 1.86328,-0.28125 l -0.0937,-1.58203 c -0.25781,0.0703 -0.66797,0.14062 -1.21875,0.14062 -1.18359,0 -1.58203,-0.82031 -1.58203,-2.25 v -6.26953 h 3.02344 v -1.60547 h -3.02344 v -3.33984 z m 14.67188,14.40235 v -11.61329 h -2.10938 v 11.61329 z m -1.05469,-16.195316 c -0.77344,0 -1.32422,0.574218 -1.32422,1.312496 0,0.72657 0.52734,1.30078 1.27734,1.30078 0.83204,0 1.35938,-0.57421 1.33594,-1.30078 0,-0.738278 -0.5039,-1.312496 -1.28906,-1.312496 z m 3.74121,15.644526 c 0.82031,0.48047 1.99219,0.78516 3.25781,0.78516 2.76563,0 4.34766,-1.42969 4.34766,-3.46875 0,-1.73437 -1.03125,-2.74219 -3.04688,-3.50391 -1.51171,-0.58593 -2.20312,-1.01953 -2.20312,-1.96875 0,-0.86718 0.69141,-1.59375 1.93359,-1.59375 1.08985,0 1.92188,0.38672 2.37891,0.67969 l 0.52734,-1.53515 c -0.64453,-0.38672 -1.67578,-0.72657 -2.84765,-0.72657 -2.4961,0 -4.00782,1.53516 -4.00782,3.41016 0,1.39453 0.98438,2.54297 3.07032,3.29297 1.55859,0.57422 2.15625,1.125 2.15625,2.13281 0,0.96094 -0.71485,1.72266 -2.26172,1.72266 -1.05469,0 -2.15625,-0.4336 -2.77735,-0.83203 z m 15.88184,-13.85156 v 2.78906 h -1.79297 v 1.60547 h 1.79297 v 6.33985 c 0,1.35937 0.22265,2.39062 0.82031,3.02343 0.50391,0.57422 1.30078,0.87891 2.28516,0.87891 0.80859,0 1.46484,-0.11719 1.86328,-0.28125 l -0.0937,-1.58203 c -0.25782,0.0703 -0.66797,0.14062 -1.21875,0.14062 -1.1836,0 -1.58203,-0.82031 -1.58203,-2.25 v -6.26953 h 3.02343 v -1.60547 h -3.02343 v -3.33984 z m 7.47363,14.40235 h 2.10937 v -7.00782 c 0,-0.41015 0.0234,-0.71484 0.14063,-1.00781 0.38672,-1.14844 1.46484,-2.10937 2.83594,-2.10937 1.99218,0 2.68359,1.58203 2.68359,3.45703 v 6.66797 h 2.10938 v -6.91407 c 0,-4.00781 -2.4961,-4.96875 -4.05469,-4.96875 -0.78516,0 -1.53516,0.2461 -2.15625,0.59766 -0.64453,0.36328 -1.1836,0.89062 -1.51172,1.48828 h -0.0469 v -7.242186 h -2.10937 z m 22.64941,-5.42579 c 0.0234,-0.21093 0.0703,-0.55078 0.0703,-0.98437 0,-2.13281 -1.00782,-5.47266 -4.79297,-5.47266 -3.38672,0 -5.44922,2.76563 -5.44922,6.26953 0,3.50391 2.13281,5.84766 5.70703,5.84766 1.85156,0 3.11719,-0.375 3.86719,-0.71484 l -0.36328,-1.51172 c -0.78516,0.33984 -1.69922,0.59765 -3.21094,0.59765 -2.10938,0 -3.9375,-1.17187 -3.98438,-4.03125 z m -8.13281,-1.51171 c 0.16406,-1.46485 1.10156,-3.4336 3.23438,-3.4336 2.3789,0 2.95312,2.08594 2.92968,3.4336 z m 18.21387,6.9375 v -10.00782 h 2.8125 v -1.60547 h -2.8125 v -0.62109 c 0,-1.78125 0.45703,-3.36328 2.26172,-3.36328 0.59765,0 1.03125,0.117187 1.33593,0.257812 l 0.29297,-1.628906 c -0.41015,-0.164062 -1.05468,-0.339844 -1.80468,-0.339844 -0.98438,0 -2.03907,0.316407 -2.82422,1.089844 -0.98438,0.925781 -1.34766,2.414064 -1.34766,4.054684 v 0.55078 h -1.62891 v 1.60547 h 1.62891 v 10.00782 z m 4.71094,0 h 2.08593 v -6.1875 c 0,-0.36329 0.0469,-0.70313 0.0937,-0.98438 0.28125,-1.59375 1.34766,-2.71875 2.83594,-2.71875 0.28125,0 0.50391,0.0234 0.71484,0.0703 v -1.99218 c -0.1875,-0.0469 -0.36328,-0.0703 -0.59765,-0.0703 -1.41797,0 -2.69531,0.98438 -3.22266,2.54297 h -0.0937 l -0.0703,-2.27344 h -1.85156 c 0.0703,1.07813 0.10547,2.25 0.10547,3.6211 z m 16.93652,-5.42579 c 0.0234,-0.21093 0.0703,-0.55078 0.0703,-0.98437 0,-2.13281 -1.00781,-5.47266 -4.79297,-5.47266 -3.38672,0 -5.44922,2.76563 -5.44922,6.26953 0,3.50391 2.13282,5.84766 5.70704,5.84766 1.85156,0 3.11718,-0.375 3.86718,-0.71484 l -0.36328,-1.51172 c -0.78515,0.33984 -1.69922,0.59765 -3.21094,0.59765 -2.10937,0 -3.9375,-1.17187 -3.98437,-4.03125 z m -8.13281,-1.51171 c 0.16406,-1.46485 1.10156,-3.4336 3.23437,-3.4336 2.37891,0 2.95313,2.08594 2.92969,3.4336 z m 10.00781,6.38671 c 0.82031,0.48047 1.99219,0.78516 3.25781,0.78516 2.76563,0 4.34766,-1.42969 4.34766,-3.46875 0,-1.73437 -1.03125,-2.74219 -3.04688,-3.50391 -1.51172,-0.58593 -2.20312,-1.01953 -2.20312,-1.96875 0,-0.86718 0.6914,-1.59375 1.93359,-1.59375 1.08985,0 1.92188,0.38672 2.37891,0.67969 l 0.52734,-1.53515 c -0.64453,-0.38672 -1.67578,-0.72657 -2.84765,-0.72657 -2.4961,0 -4.00782,1.53516 -4.00782,3.41016 0,1.39453 0.98438,2.54297 3.07032,3.29297 1.55859,0.57422 2.15625,1.125 2.15625,2.13281 0,0.96094 -0.71485,1.72266 -2.26172,1.72266 -1.05469,0 -2.15625,-0.4336 -2.77735,-0.83203 z m 10.32422,0.55079 h 2.10937 v -7.00782 c 0,-0.41015 0.0234,-0.71484 0.14063,-1.00781 0.38672,-1.14844 1.46484,-2.10937 2.83594,-2.10937 1.99218,0 2.68359,1.58203 2.68359,3.45703 v 6.66797 h 2.10937 v -6.91407 c 0,-4.00781 -2.49609,-4.96875 -4.05468,-4.96875 -0.78516,0 -1.53516,0.2461 -2.15625,0.59766 -0.64453,0.36328 -1.1836,0.89062 -1.51172,1.48828 h -0.0469 v -7.242186 h -2.10937 z m 13.32129,0 h 2.10937 v -6.98438 c 0,-0.36328 0.0469,-0.71484 0.14063,-0.98437 0.36328,-1.17188 1.4414,-2.15625 2.83593,-2.15625 1.99219,0 2.6836,1.55859 2.6836,3.43359 v 6.69141 h 2.10937 v -6.9375 c 0,-3.98438 -2.49609,-4.94532 -4.10156,-4.94532 -1.92187,0 -3.25781,1.07813 -3.84375,2.19141 h -0.0469 l -0.11719,-1.92188 h -1.875 c 0.0703,0.96094 0.10547,1.94532 0.10547,3.14063 z m 22.64648,-5.42579 c 0.0234,-0.21093 0.0703,-0.55078 0.0703,-0.98437 0,-2.13281 -1.00781,-5.47266 -4.79297,-5.47266 -3.38671,0 -5.44921,2.76563 -5.44921,6.26953 0,3.50391 2.13281,5.84766 5.70703,5.84766 1.85156,0 3.11718,-0.375 3.86718,-0.71484 l -0.36328,-1.51172 c -0.78515,0.33984 -1.69922,0.59765 -3.21093,0.59765 -2.10938,0 -3.9375,-1.17187 -3.98438,-4.03125 z m -8.13281,-1.51171 c 0.16406,-1.46485 1.10156,-3.4336 3.23437,-3.4336 2.37891,0 2.95313,2.08594 2.92969,3.4336 z m 10.00781,6.38671 c 0.82031,0.48047 1.99219,0.78516 3.25781,0.78516 2.76563,0 4.34766,-1.42969 4.34766,-3.46875 0,-1.73437 -1.03125,-2.74219 -3.04688,-3.50391 -1.51171,-0.58593 -2.20312,-1.01953 -2.20312,-1.96875 0,-0.86718 0.69141,-1.59375 1.93359,-1.59375 1.08985,0 1.92188,0.38672 2.37891,0.67969 l 0.52734,-1.53515 c -0.64453,-0.38672 -1.67578,-0.72657 -2.84765,-0.72657 -2.4961,0 -4.00782,1.53516 -4.00782,3.41016 0,1.39453 0.98438,2.54297 3.07032,3.29297 1.55859,0.57422 2.15625,1.125 2.15625,2.13281 0,0.96094 -0.71485,1.72266 -2.26172,1.72266 -1.05469,0 -2.15625,-0.4336 -2.77735,-0.83203 z m 9.50391,0 c 0.82031,0.48047 1.99218,0.78516 3.25781,0.78516 2.76562,0 4.34766,-1.42969 4.34766,-3.46875 0,-1.73437 -1.03125,-2.74219 -3.04688,-3.50391 -1.51172,-0.58593 -2.20312,-1.01953 -2.20312,-1.96875 0,-0.86718 0.6914,-1.59375 1.93359,-1.59375 1.08984,0 1.92187,0.38672 2.37891,0.67969 l 0.52734,-1.53515 c -0.64453,-0.38672 -1.67578,-0.72657 -2.84766,-0.72657 -2.49609,0 -4.00781,1.53516 -4.00781,3.41016 0,1.39453 0.98438,2.54297 3.07031,3.29297 1.5586,0.57422 2.15625,1.125 2.15625,2.13281 0,0.96094 -0.71484,1.72266 -2.26172,1.72266 -1.05468,0 -2.15625,-0.4336 -2.77734,-0.83203 z M 6.668925,132.11582 c -3.2109375,0 -5.75390625,2.28516 -5.75390625,6.17578 0,3.66797 2.42578125,5.97657 5.56640625,5.97657 2.8125,0 5.789063,-1.875 5.789063,-6.17579 0,-3.55078 -2.261719,-5.97656 -5.601563,-5.97656 z m -0.046875,1.58203 c 2.4960938,0 3.480469,2.4961 3.480469,4.46485 0,2.625 -1.511719,4.51172 -3.527344,4.51172 -2.0625,0 -3.5273437,-1.91016 -3.5273437,-4.46485 0,-2.20312 1.078125,-4.51172 3.5742187,-4.51172 z m 10.608398,10.30078 v -10.00781 h 2.8125 v -1.60547 h -2.8125 v -0.62109 c 0,-1.78125 0.457032,-3.36328 2.261719,-3.36328 0.597656,0 1.03125,0.11719 1.335938,0.25781 l 0.292968,-1.62891 c -0.410156,-0.16406 -1.054687,-0.33984 -1.804687,-0.33984 -0.984375,0 -2.039063,0.31641 -2.824219,1.08984 -0.984375,0.92579 -1.347656,2.41407 -1.347656,4.05469 v 0.55078 h -1.628906 v 1.60547 h 1.628906 v 10.00781 z m 10.268555,-14.40234 v 2.78906 h -1.792969 v 1.60547 h 1.792969 v 6.33985 c 0,1.35937 0.222656,2.39062 0.820313,3.02343 0.503906,0.57422 1.300781,0.87891 2.285156,0.87891 0.808594,0 1.464844,-0.11719 1.863281,-0.28125 l -0.09375,-1.58203 c -0.257812,0.0703 -0.667969,0.14062 -1.21875,0.14062 -1.183594,0 -1.582031,-0.82031 -1.582031,-2.25 v -6.26953 h 3.023437 v -1.60547 h -3.023437 v -3.33984 z m 7.473633,14.40234 h 2.109375 v -7.00781 c 0,-0.41015 0.02344,-0.71484 0.140625,-1.00781 0.386719,-1.14844 1.464844,-2.10938 2.835937,-2.10938 1.992188,0 2.683594,1.58204 2.683594,3.45704 v 6.66796 h 2.109375 v -6.91406 c 0,-4.00781 -2.496094,-4.96875 -4.054687,-4.96875 -0.785157,0 -1.535157,0.2461 -2.15625,0.59766 -0.644532,0.36328 -1.183594,0.89062 -1.511719,1.48828 h -0.04687 v -7.24219 h -2.109375 z m 22.649414,-5.42578 c 0.02344,-0.21093 0.07031,-0.55078 0.07031,-0.98437 0,-2.13281 -1.007813,-5.47266 -4.792969,-5.47266 -3.386719,0 -5.449219,2.76563 -5.449219,6.26953 0,3.50391 2.132813,5.84766 5.707031,5.84766 1.851563,0 3.117188,-0.375 3.867188,-0.71484 l -0.363281,-1.51172 c -0.785157,0.33984 -1.699219,0.59765 -3.210938,0.59765 -2.109375,0 -3.9375,-1.17187 -3.984375,-4.03125 z m -8.132812,-1.51172 c 0.164062,-1.46484 1.101562,-3.43359 3.234375,-3.43359 2.378906,0 2.953125,2.08594 2.929687,3.43359 z m 23.827148,-10.10156 v 6.9375 h -0.04687 c -0.527344,-0.9375 -1.722656,-1.78125 -3.503906,-1.78125 -2.824219,0 -5.226563,2.37891 -5.203125,6.2461 0,3.52734 2.15625,5.90625 4.96875,5.90625 1.898437,0 3.304687,-0.98438 3.960937,-2.28516 h 0.04687 l 0.09375,2.01562 h 1.898438 c -0.07031,-0.79687 -0.09375,-1.96875 -0.09375,-3 v -14.03906 z m 0,12.16406 c 0,0.33985 -0.02344,0.63282 -0.09375,0.91407 -0.386719,1.58203 -1.675781,2.51953 -3.09375,2.51953 -2.285156,0 -3.433594,-1.94531 -3.433594,-4.28906 0,-2.57813 1.300781,-4.48829 3.480469,-4.48829 1.582031,0 2.742187,1.10157 3.046875,2.4375 0.07031,0.26954 0.09375,0.63282 0.09375,0.89063 z m 14.953125,-0.55078 c 0.02344,-0.21093 0.07031,-0.55078 0.07031,-0.98437 0,-2.13281 -1.007812,-5.47266 -4.792968,-5.47266 -3.386719,0 -5.449219,2.76563 -5.449219,6.26953 0,3.50391 2.132812,5.84766 5.707031,5.84766 1.851563,0 3.117188,-0.375 3.867188,-0.71484 l -0.363282,-1.51172 c -0.785156,0.33984 -1.699218,0.59765 -3.210937,0.59765 -2.109375,0 -3.9375,-1.17187 -3.984375,-4.03125 z m -8.132813,-1.51172 c 0.164063,-1.46484 1.101563,-3.43359 3.234375,-3.43359 2.378907,0 2.953125,2.08594 2.929688,3.43359 z m 20.156252,1.51172 c 0.0234,-0.21093 0.0703,-0.55078 0.0703,-0.98437 0,-2.13281 -1.007812,-5.47266 -4.792968,-5.47266 -3.386719,0 -5.449219,2.76563 -5.449219,6.26953 0,3.50391 2.132813,5.84766 5.707032,5.84766 1.851562,0 3.117187,-0.375 3.867187,-0.71484 l -0.363281,-1.51172 c -0.785156,0.33984 -1.699219,0.59765 -3.210938,0.59765 -2.109375,0 -3.9375,-1.17187 -3.984375,-4.03125 z m -8.132814,-1.51172 c 0.164062,-1.46484 1.101562,-3.43359 3.234375,-3.43359 2.378906,0 2.953125,2.08594 2.929687,3.43359 z m 10.831054,11.69532 h 2.08594 v -6.31641 h 0.0469 c 0.69141,1.14844 2.03907,1.82813 3.57422,1.82813 2.73047,0 5.27344,-2.07422 5.27344,-6.2461 0,-3.52734 -2.10938,-5.90625 -4.91016,-5.90625 -1.89843,0 -3.26953,0.84375 -4.13672,2.26172 h -0.0469 l -0.0937,-1.99219 h -1.89844 c 0.0469,1.10157 0.10547,2.29688 0.10547,3.78516 z m 2.08594,-11.47266 c 0,-0.29297 0.0703,-0.60937 0.14062,-0.86719 0.41016,-1.58203 1.7461,-2.61328 3.1875,-2.61328 2.23828,0 3.45703,1.99219 3.45703,4.3125 0,2.67188 -1.28906,4.48828 -3.52734,4.48828 -1.51172,0 -2.77734,-1.00781 -3.16406,-2.47265 -0.0469,-0.25782 -0.0937,-0.55078 -0.0937,-0.85547 z m 15.83496,6.16406 c 0.82031,0.48047 1.99219,0.78516 3.25781,0.78516 2.76563,0 4.34766,-1.42969 4.34766,-3.46875 0,-1.73438 -1.03125,-2.74219 -3.04688,-3.50391 -1.51172,-0.58593 -2.20312,-1.01953 -2.20312,-1.96875 0,-0.86718 0.6914,-1.59375 1.93359,-1.59375 1.08985,0 1.92188,0.38672 2.37891,0.67969 l 0.52734,-1.53516 c -0.64453,-0.38671 -1.67578,-0.72656 -2.84765,-0.72656 -2.4961,0 -4.00782,1.53516 -4.00782,3.41016 0,1.39453 0.98438,2.54297 3.07032,3.29297 1.55859,0.57422 2.15625,1.125 2.15625,2.13281 0,0.96094 -0.71485,1.72266 -2.26172,1.72266 -1.05469,0 -2.15625,-0.4336 -2.77735,-0.83204 z m 10.32715,5.3086 h 2.08594 v -6.31641 h 0.0469 c 0.69141,1.14844 2.03906,1.82813 3.57422,1.82813 2.73047,0 5.27344,-2.07422 5.27344,-6.2461 0,-3.52734 -2.10938,-5.90625 -4.91016,-5.90625 -1.89844,0 -3.26953,0.84375 -4.13672,2.26172 h -0.0469 l -0.0937,-1.99219 h -1.89844 c 0.0469,1.10157 0.10547,2.29688 0.10547,3.78516 z m 2.08594,-11.47266 c 0,-0.29297 0.0703,-0.60937 0.14062,-0.86719 0.41016,-1.58203 1.74609,-2.61328 3.1875,-2.61328 2.23828,0 3.45703,1.99219 3.45703,4.3125 0,2.67188 -1.28906,4.48828 -3.52734,4.48828 -1.51172,0 -2.77735,-1.00781 -3.16406,-2.47265 -0.0469,-0.25782 -0.0937,-0.55078 -0.0937,-0.85547 z m 11.56933,6.71484 h 2.08594 v -6.1875 c 0,-0.36328 0.0469,-0.70312 0.0937,-0.98437 0.28125,-1.59375 1.34765,-2.71875 2.83594,-2.71875 0.28125,0 0.5039,0.0234 0.71484,0.0703 v -1.99219 c -0.1875,-0.0469 -0.36328,-0.0703 -0.59766,-0.0703 -1.41797,0 -2.69531,0.98438 -3.22265,2.54297 h -0.0937 l -0.0703,-2.27344 h -1.85156 c 0.0703,1.07813 0.10547,2.25 0.10547,3.6211 z m 10.05176,0 v -11.61328 h -2.10938 v 11.61328 z m -1.05469,-16.19531 c -0.77344,0 -1.32422,0.57422 -1.32422,1.3125 0,0.72656 0.52735,1.30078 1.27735,1.30078 0.83203,0 1.35937,-0.57422 1.33593,-1.30078 0,-0.73828 -0.5039,-1.3125 -1.28906,-1.3125 z m 4.56152,16.19531 h 2.10938 v -6.98437 c 0,-0.36328 0.0469,-0.71484 0.14062,-0.98438 0.36329,-1.17187 1.44141,-2.15625 2.83594,-2.15625 1.99219,0 2.6836,1.5586 2.6836,3.4336 v 6.6914 h 2.10937 v -6.9375 c 0,-3.98437 -2.49609,-4.94531 -4.10156,-4.94531 -1.92188,0 -3.25781,1.07813 -3.84375,2.19141 h -0.0469 l -0.11718,-1.92188 h -1.875 c 0.0703,0.96094 0.10546,1.94532 0.10546,3.14063 z m 21.47754,-11.61328 -0.0937,1.7461 h -0.0469 c -0.50391,-0.96094 -1.61719,-2.01563 -3.63281,-2.01563 -2.66016,0 -5.22657,2.23828 -5.22657,6.17578 0,3.21094 2.0625,5.66016 4.94532,5.66016 1.79297,0 3.04687,-0.86719 3.6914,-1.94531 h 0.0469 v 1.30078 c 0,2.91797 -1.58203,4.05469 -3.73828,4.05469 -1.44141,0 -2.64844,-0.4336 -3.41016,-0.91407 l -0.52734,1.60547 c 0.9375,0.6211 2.47265,0.96094 3.86718,0.96094 1.45313,0 3.09375,-0.33984 4.21875,-1.39453 1.125,-1.00781 1.65235,-2.63672 1.65235,-5.29688 v -6.75 c 0,-1.41797 0.0469,-2.35547 0.10547,-3.1875 z m -0.33984,6.66797 c 0,0.36328 -0.0469,0.77344 -0.16406,1.125 -0.45703,1.34766 -1.62891,2.16797 -2.92969,2.16797 -2.28516,0 -3.43359,-1.89844 -3.43359,-4.18359 0,-2.6836 1.4414,-4.38282 3.45703,-4.38282 1.53515,0 2.5664,1.00782 2.95312,2.22657 0.0937,0.29297 0.11719,0.59765 0.11719,0.96093 z m 4.77832,4.39453 c 0.82031,0.48047 1.99219,0.78516 3.25781,0.78516 2.76563,0 4.34766,-1.42969 4.34766,-3.46875 0,-1.73438 -1.03125,-2.74219 -3.04688,-3.50391 -1.51171,-0.58593 -2.20312,-1.01953 -2.20312,-1.96875 0,-0.86718 0.69141,-1.59375 1.93359,-1.59375 1.08985,0 1.92188,0.38672 2.37891,0.67969 l 0.52734,-1.53516 c -0.64453,-0.38671 -1.67578,-0.72656 -2.84765,-0.72656 -2.4961,0 -4.00782,1.53516 -4.00782,3.41016 0,1.39453 0.98438,2.54297 3.07032,3.29297 1.55859,0.57422 2.15625,1.125 2.15625,2.13281 0,0.96094 -0.71485,1.72266 -2.26172,1.72266 -1.05469,0 -2.15625,-0.4336 -2.77735,-0.83204 z m 20.32324,-11.33203 c -3.21093,0 -5.7539,2.28516 -5.7539,6.17578 0,3.66797 2.42578,5.97657 5.5664,5.97657 2.8125,0 5.78907,-1.875 5.78907,-6.17579 0,-3.55078 -2.26172,-5.97656 -5.60157,-5.97656 z m -0.0469,1.58203 c 2.49609,0 3.48047,2.4961 3.48047,4.46485 0,2.625 -1.51172,4.51172 -3.52735,4.51172 -2.0625,0 -3.52734,-1.91016 -3.52734,-4.46485 0,-2.20312 1.07812,-4.51172 3.57422,-4.51172 z m 10.6084,10.30078 v -10.00781 h 2.8125 v -1.60547 h -2.8125 v -0.62109 c 0,-1.78125 0.45703,-3.36328 2.26171,-3.36328 0.59766,0 1.03125,0.11719 1.33594,0.25781 l 0.29297,-1.62891 c -0.41016,-0.16406 -1.05469,-0.33984 -1.80469,-0.33984 -0.98437,0 -2.03906,0.31641 -2.82422,1.08984 -0.98437,0.92579 -1.34765,2.41407 -1.34765,4.05469 v 0.55078 h -1.62891 v 1.60547 h 1.62891 v 10.00781 z m 9.7998,0 h 2.10938 v -17.03906 h -2.10938 z m 7.77246,0 v -11.61328 h -2.10937 v 11.61328 z m -1.05469,-16.19531 c -0.77343,0 -1.32421,0.57422 -1.32421,1.3125 0,0.72656 0.52734,1.30078 1.27734,1.30078 0.83203,0 1.35937,-0.57422 1.33594,-1.30078 0,-0.73828 -0.50391,-1.3125 -1.28907,-1.3125 z m 6.8584,16.19531 v -10.00781 h 2.8125 v -1.60547 h -2.8125 v -0.62109 c 0,-1.78125 0.45703,-3.36328 2.26172,-3.36328 0.59766,0 1.03125,0.11719 1.33594,0.25781 l 0.29297,-1.62891 c -0.41016,-0.16406 -1.05469,-0.33984 -1.80469,-0.33984 -0.98437,0 -2.03906,0.31641 -2.82422,1.08984 -0.98437,0.92579 -1.34765,2.41407 -1.34765,4.05469 v 0.55078 h -1.62891 v 1.60547 h 1.62891 v 10.00781 z m 13.72852,-5.42578 c 0.0234,-0.21093 0.0703,-0.55078 0.0703,-0.98437 0,-2.13281 -1.00781,-5.47266 -4.79297,-5.47266 -3.38672,0 -5.44922,2.76563 -5.44922,6.26953 0,3.50391 2.13282,5.84766 5.70703,5.84766 1.85157,0 3.11719,-0.375 3.86719,-0.71484 l -0.36328,-1.51172 c -0.78516,0.33984 -1.69922,0.59765 -3.21094,0.59765 -2.10937,0 -3.9375,-1.17187 -3.98437,-4.03125 z m -8.13281,-1.51172 c 0.16406,-1.46484 1.10156,-3.43359 3.23437,-3.43359 2.37891,0 2.95313,2.08594 2.92969,3.43359 z m 11.44336,7.20704 c 0.89062,0 1.4414,-0.65625 1.4414,-1.51172 0,-0.89063 -0.57422,-1.52344 -1.41797,-1.52344 -0.83203,0 -1.4414,0.63281 -1.4414,1.52344 0,0.85547 0.58593,1.51172 1.41797,1.51172 z m 0,0" style="fill:#231916;fill-opacity:1;fill-rule:nonzero;stroke:none" aria-label="Youth is not a time of life; it is a state of &#10;mind; it is not a matter of rosy cheeks, &#10;red lips and supple knees; it is a matter of &#10;the will, a quality of the imagination, a &#10;vigor of the emotions; it is the freshness &#10;of the deep springs of life. " transform="matrix(1.3333333,0,0,1.3333333,2038.0456,3065.3221)" />
    </g></svg>