<?xml version='1.0' encoding='utf-8'?>
<svg xmlns="http://www.w3.org/2000/svg" version="1.1" width="61.838" height="346.966" viewBox="2230.690 1930.590 61.838 346.966"><g id="object"><path id="path15" d="m 0,0 c 0.723,5.686 4.514,10.024 6.221,15.203 4.143,12.577 12.713,23.29 15.228,36.566 0.322,1.698 1.303,4.027 3.618,4.218 4.663,0.384 12.246,-5.923 12.3,-10.665 0.077,-6.667 -0.248,-13.37 -0.918,-20.006 -0.986,-9.767 -2.202,-19.545 -0.747,-29.303 0.964,-6.464 -0.938,-12.533 -1.716,-18.708 -0.739,-5.862 -1.48,-11.703 -1.595,-17.594 -0.108,-5.54 -0.535,-10.913 -2.531,-16.203 -1.365,-3.619 -1.04,-7.54 -1.016,-11.503 0.055,-9.353 -1.167,-18.74 -2.271,-28.067 -1.662,-14.051 -1.651,-28.142 -1.58,-42.245 0.004,-0.767 0.528,-1.546 0.48,-2.299 -1.01,-15.705 0.057,-31.337 1.378,-46.978 0.335,-3.968 -2.197,-6.502 -6.147,-7.373 -4.865,-1.074 -8.835,1.188 -9.933,5.816 -0.452,1.902 -0.683,3.877 -0.808,5.832 -1.851,29.03 -3.27,58.07 -1.526,87.161 0.307,5.101 0.802,10.192 1.252,15.283 1.864,21.121 3.971,42.224 5.509,63.369 0.623,8.571 2.041,17.165 0.957,25.822 -0.146,1.169 -0.037,2.376 -0.253,3.527 -0.293,1.555 -0.903,3.041 -2.508,3.699 C 11.335,16.396 9.307,15.823 8.057,14.238 4.649,9.919 1.367,5.469 0,0" style="fill:#d2516b;fill-opacity:1;fill-rule:nonzero;stroke:none" transform="matrix(1.3333333,0,0,-1.3333333,2236.6875,2011.2624)" />
      </g></svg>