<?xml version='1.0' encoding='utf-8'?>
<svg xmlns="http://www.w3.org/2000/svg" version="1.1" width="410.811" height="129.297" viewBox="189.489 156.835 410.811 129.297"><g id="object"><path id="path10" d="M 445.725,3160.291 H 146.617 v 87.973 h 299.108 z" style="fill:#231916;fill-opacity:1;fill-rule:nonzero;stroke:none" transform="matrix(1.3333333,0,0,-1.3333333,0,4493.8533)" />
      <path id="path11" d="m 3.0229078,-2.3778188 c 2.5898438,1.73437505 7.6992192,3.09375005 12.3867192,3.09375005 11.449218,0 16.992187,-6.48046875 16.992187,-13.95703125 0,-7.136719 -4.183594,-11.097656 -12.386719,-14.261719 -6.691406,-2.589844 -9.644531,-4.828125 -9.644531,-9.363281 0,-3.304688 2.519531,-7.265625 9.140625,-7.265625 4.394531,0 7.628906,1.441406 9.210938,2.296875 l 1.734375,-5.109375 c -2.15625,-1.21875 -5.765625,-2.378906 -10.734375,-2.378906 -9.421875,0 -15.6914067,5.625 -15.6914067,13.183593 0,6.832032 4.8984375,10.945313 12.8203127,13.746094 6.550781,2.519531 9.140625,5.109375 9.140625,9.65625 0,4.886719 -3.75,8.2734377 -10.148438,8.2734377 -4.324218,0 -8.4257809,-1.4414062 -11.2382809,-3.1640625 z M 83.085408,0.0010875 h 6.117187 L 86.179158,-48.526256 H 78.18697 L 69.550252,-25.0536 c -2.15625,6.117187 -3.890625,11.449219 -5.109375,16.3476562 H 64.21822 C 62.99947,-13.756725 61.347127,-19.077038 59.331502,-25.0536 L 51.046345,-48.526256 H 43.054158 L 39.667439,0.0010875 h 5.976563 l 1.300781,-20.8125005 c 0.433594,-7.265625 0.785156,-15.398437 0.9375,-21.457031 h 0.140625 c 1.371094,5.765625 3.316406,12.035156 5.613281,18.867188 l 7.851563,23.10937475 h 4.746093 L 74.81197,-23.83485 c 2.449219,-6.691406 4.464844,-12.738281 6.117188,-18.433594 h 0.210937 c -0.07031,6.058594 0.363282,14.191406 0.726563,20.953125 z M 131.4692,-6.5496938 c -2.51953,1.21875 -6.41016,2.015625 -10.21875,2.015625 -11.8125,0 -18.65625,-7.6289062 -18.65625,-19.5117192 0,-12.75 7.57031,-20.015625 18.9375,-20.015625 4.03125,0 7.41797,0.867188 9.79687,2.015625 l 1.51172,-5.109375 c -1.65234,-0.867187 -5.47266,-2.167968 -11.51953,-2.167968 -15.04688,0 -25.347657,10.300781 -25.347657,25.488281 0,15.9140625 10.300777,24.55078125 23.976567,24.55078125 5.90625,0 10.51171,-1.1484375 12.82031,-2.29687505 z m 34.49121,-8.7187502 5.17969,15.2695315 h 6.70312 L 161.28463,-48.526256 h -7.5586 L 137.23775,0.0010875 h 6.48047 l 5.03906,-15.2695315 z m -15.91406,-4.886719 4.75781,-14.039062 c 0.9375,-2.953125 1.72265,-5.90625 2.44922,-8.789063 h 0.14062 c 0.71485,2.8125 1.44141,5.683594 2.51953,8.859375 l 4.7461,13.96875 z m 0,0" style="fill:#ffffff;fill-opacity:1;fill-rule:nonzero;stroke:none" aria-label="SMCA" transform="matrix(1.3333333,0,0,1.3333333,212.2468,258.6548)" />
      </g></svg>