<?xml version='1.0' encoding='utf-8'?>
<svg xmlns="http://www.w3.org/2000/svg" version="1.1" width="50.211" height="1743.400" viewBox="1547.090 896.793 50.211 1743.400"><defs id="defs1"><clipPath clipPathUnits="userSpaceOnUse" id="clipPath18">
      <path d="M 0,3370.3901 H 2383.9401 V -2.5000001e-5 H 0 Z" id="path18" />
    </clipPath>
  </defs><g id="object"><path id="path5" d="m 0,0 c 0,210.104 0.06,420.207 -0.257,630.311 -0.011,7.098 -0.66,12.817 7.565,14.513 7.792,1.607 14.237,-0.665 17.645,-8.379 4.337,-9.82 2.745,-20.313 2.746,-30.543 0.067,-389.302 0.047,-778.604 0.078,-1167.907 0.002,-24.422 0.128,-48.848 0.577,-73.265 0.175,-9.469 0.057,-17.374 -12.738,-17.939 -11.831,-0.523 -15.169,5.266 -15.083,15.752 0.196,23.779 0.014,47.561 0.013,71.342 C 0.542,-377.41 0.544,-188.705 0.544,0 0.363,0 0.181,0 0,0" style="fill:#4a443a;fill-opacity:1;fill-rule:nonzero;stroke:none" transform="matrix(1.3333333,0,0,-1.3333333,1553.4497,1763.2068)" />
      </g></svg>