<?xml version='1.0' encoding='utf-8'?>
<svg xmlns="http://www.w3.org/2000/svg" version="1.1" width="98.457" height="144.501" viewBox="313.835 4203.180 98.457 144.501"><g id="object"><path id="path156" d="m 0,0 c 0.289,-11.515 -1.208,-21.92 1.721,-32.093 0.595,-2.066 0.811,-4.254 1.524,-6.272 2.698,-7.629 7.578,-8.663 13.449,-2.931 11.149,10.885 15.198,24.779 16.511,39.71 0.717,8.156 1.34,16.365 1.225,24.538 -0.109,7.798 4.628,9.422 12.267,9.227 1.673,-0.043 3.089,-1.895 2.996,-3.736 -0.883,-17.604 0.78,-35.767 -6.45,-52.297 -6.211,-14.201 -14.25,-27.788 -27.234,-37.179 -12.312,-8.904 -16.4,-9.131 -25.339,5.956 -5.156,8.701 -6,18.863 -5.505,28.878 0.277,5.606 0.008,11.113 -0.22,16.695 -0.404,9.848 0.631,19.773 1.373,29.641 0.26,3.46 3.542,5.202 9.03,5.643 3.768,0.303 5.986,-1.361 5.86,-5.028 C 0.955,13.43 0.373,6.119 0,0" style="fill:#494643;fill-opacity:1;fill-rule:nonzero;stroke:none" transform="matrix(1.3333333,0,0,-1.3333333,340.02947,4252.1045)" />
      </g></svg>