<?xml version='1.0' encoding='utf-8'?>
<svg xmlns="http://www.w3.org/2000/svg" version="1.1" width="61.961" height="101.163" viewBox="1806.000 4068.880 61.961 101.163"><g id="object"><path id="path104" d="m 0,0 c 0.999,-1.824 -2.922,-6.004 2.442,-6.652 4.126,-0.498 7.265,1.35 8.531,5.618 0.754,2.54 0.698,5.06 -0.084,7.595 -1.293,4.192 -4.738,5.193 -8.32,4.788 C -1.648,10.872 -0.408,7.517 -0.032,4.758 0.154,3.387 0,1.968 0,0 m -0.66,-17.884 c 0,-7.939 -0.146,-14.421 0.053,-20.892 0.125,-4.059 -1.759,-5.219 -5.497,-5.502 -3.878,-0.293 -5.312,1.02 -6.174,4.829 -1.546,6.832 -0.028,13.621 -0.311,20.419 -0.478,11.434 0.378,22.945 -0.47,34.426 -0.307,4.155 1.438,6.764 6.048,6.879 8.342,0.207 16.552,-0.463 24.128,-4.249 7.133,-3.563 9.415,-20.612 2.422,-27.024 -6.236,-5.72 -4.048,-10.725 -1.777,-16.268 1.603,-3.914 3.625,-7.644 4.576,-11.816 0.537,-2.357 4.474,-5.362 -0.281,-6.78 -3.671,-1.094 -8.339,-1.472 -10.54,3.188 -2.404,5.089 -4.33,10.404 -6.496,15.607 -0.888,2.134 -1.682,4.351 -5.681,7.183" style="fill:#494f57;fill-opacity:1;fill-rule:nonzero;stroke:none" transform="matrix(1.3333333,0,0,-1.3333333,1829.4621,4104.6268)" />
      </g></svg>