<?xml version='1.0' encoding='utf-8'?>
<svg xmlns="http://www.w3.org/2000/svg" version="1.1" width="500.371" height="158.328" viewBox="1432.760 3681.420 500.371 158.328"><defs id="defs1"><clipPath clipPathUnits="userSpaceOnUse" id="clipPath4">
      <path d="M -0.9784,2441.734 H 2382.9617 V -928.65612 H -0.9784 Z" id="path4" />
    </clipPath>
    <clipPath clipPathUnits="userSpaceOnUse" id="clipPath8">
      <path d="M 0,3370.3901 H 2383.9401 V -2.5000001e-5 H 0 Z" id="path8" />
    </clipPath>
  </defs><g id="object"><path id="path5" d="m 33.736828,-36.268936 c 0,20.8125 -7.253906,26.3320313 -19.546875,26.3320313 -4.5703124,0 -8.6718749,-0.9375003 -11.5078124,-2.0507813 L 0.63135937,-0.78456094 C 4.1001094,0.63340781 10.252453,1.7349703 15.291516,1.7349703 c 18.292968,0 32.167968,-8.671875 32.167968,-36.8906253 V -106.27675 H 33.736828 Z m 36.424805,-70.007814 v 62.601564 c 0,32.953125 16.394531,45.4101563 38.156247,45.4101563 23.02735,0 40.20703,-13.4062503 40.20703,-46.0429683 v -61.968752 h -13.875 v 62.91797 c 0,23.496094 -10.08984,33.9023441 -25.85156,33.9023441 -14.191405,0 -24.761717,-10.0898441 -24.761717,-33.9023441 v -62.91797 z M 185.26612,5.953125e-4 V -45.409561 c 0,-17.660156 -0.3164,-30.433594 -1.10156,-43.839844 l 0.46875,-0.152343 c 5.36719,11.507812 12.45703,23.648437 19.86328,35.472656 l 33.75,53.9296873125 h 13.875 V -106.27675 h -12.92578 v 44.472658 c 0,16.546875 0.30469,29.484375 1.57031,43.675781 l -0.3164,0.152344 c -5.03906,-10.875 -11.19141,-22.078125 -19.07813,-34.535156 L 187.31691,-106.27675 H 172.34034 V 5.953125e-4 Z M 319.13234,-108.01112 c -28.38282,0 -49.35938,22.078122 -49.35938,55.816403 0,32.167969 19.71094,53.9296873 47.77734,53.9296873 27.12891,0 49.35938,-19.3945313 49.35938,-55.9804683 0,-31.535157 -18.76172,-53.765622 -47.77734,-53.765622 z m -0.63282,11.203122 c 22.86328,0 33.90235,22.066406 33.90235,43.195312 0,24.128906 -12.30469,44.1562501 -34.05469,44.1562501 -21.60938,0 -33.90234,-20.3437501 -33.90234,-43.0546871 0,-23.332032 11.34375,-44.296875 34.05468,-44.296875 z m 0,0" style="fill:#ffffff;fill-opacity:1;fill-rule:nonzero;stroke:none" aria-label="JUNO" transform="matrix(1.3333333,0,0,1.3333333,1437.916,3831.4328)" />
      </g></svg>