<?xml version='1.0' encoding='utf-8'?>
<svg xmlns="http://www.w3.org/2000/svg" version="1.1" width="151.371" height="177.423" viewBox="1222.430 1250.800 151.371 177.423"><defs id="defs1"><clipPath clipPathUnits="userSpaceOnUse" id="clipPath46">
      <path d="M 0,3370.3901 H 2383.9401 V -2.5000001e-5 H 0 Z" id="path46" />
    </clipPath>
  </defs><g id="object"><path id="path28" d="M 0,0 C 14.621,0.509 32.661,-1.398 33.827,19.099 34.922,38.341 20.009,42.835 3.355,42.293 -11.251,41.817 -27.231,45.113 -27.356,21.603 -27.465,1.269 -15.627,-0.964 0,0 m -11.252,62.704 c 13.469,0 22.381,1.087 30.929,-0.213 C 41.728,59.138 58.619,37.669 56.163,15.146 53.737,-7.088 39.666,-19.409 17.702,-20.371 c -23.35,-1.022 -49.698,4.389 -46.856,-33.266 0.331,-4.382 -4.461,-7.382 -9.504,-6.828 -5.015,0.551 -8.304,4.277 -8.329,8.716 -0.199,34.951 -3.209,70.346 1.442,104.683 2.57,18.974 25.854,5.877 34.293,9.77" style="fill:#424242;fill-opacity:1;fill-rule:nonzero;stroke:none" transform="matrix(1.3333333,0,0,-1.3333333,1292.6041,1341.5119)" />
      </g></svg>