<?xml version='1.0' encoding='utf-8'?>
<svg xmlns="http://www.w3.org/2000/svg" version="1.1" width="127.369" height="145.820" viewBox="116.472 4704.810 127.369 145.820"><g id="object"><path id="path158" d="m 0,0 c -1.932,0 -3.23,-0.061 -4.521,0.011 -4.825,0.269 -5.674,1.09 -6.058,6.28 -0.732,9.892 -1.303,19.798 -2.078,29.687 -0.951,12.118 -3.664,23.89 -7.823,35.283 -2.557,7.006 -3.716,7.417 -11.491,7.419 -7.349,0.002 -14.641,-0.367 -21.939,-1.405 -5.507,-0.784 -6.817,0.432 -8.171,5.678 -0.432,1.671 -0.885,3.34 -1.216,5.032 -0.756,3.873 0.201,5.775 4.198,6.459 9.347,1.601 18.717,3.394 28.152,4.068 14.196,1.015 28.456,1.146 42.69,1.63 1.291,0.044 2.594,-0.005 3.88,-0.13 5.29,-0.513 9.179,-7.873 6.499,-12.727 C 21.393,85.964 19.603,84.772 18.094,84.432 14.746,83.676 11.26,83.55 7.844,83.07 -0.824,81.852 -1.972,80.764 -1.258,72.463 -0.372,62.151 0.832,51.859 2.168,41.594 3.726,29.621 5.601,17.689 7.282,5.732 7.992,0.683 7.001,-0.359 1.94,-0.19 1.079,-0.162 0.222,-0.023 0,0" style="fill:#494643;fill-opacity:1;fill-rule:nonzero;stroke:none" transform="matrix(1.3333333,0,0,-1.3333333,207.18467,4844.3507)" />
      </g></svg>