<?xml version='1.0' encoding='utf-8'?>
<svg xmlns="http://www.w3.org/2000/svg" version="1.1" width="48.733" height="101.317" viewBox="944.112 3956.680 48.733 101.317"><g id="object"><path id="path117" d="m 0,0 c -13.395,0.521 -13.06,0.516 -12.843,14.401 0.228,14.641 -0.089,29.299 -0.543,43.938 -0.183,5.893 1.591,8.964 7.879,8.608 4.232,-0.24 8.484,-0.24 12.723,-0.17 3.05,0.051 6.175,0.038 5.928,-4.051 -0.198,-3.278 0.272,-7.498 -5.55,-6.824 -3.791,0.439 -7.499,-0.71 -7.245,-5.536 0.215,-4.102 -1.252,-9.594 5.834,-9.999 3.366,-0.192 5.79,-1.412 5.598,-5.67 C 11.585,30.332 9.978,28.278 5.403,28.275 0.656,28.272 -0.675,24.68 0.004,20.912 0.651,17.327 0.474,12.227 6.745,13.062 12.481,13.826 14.13,10.774 14.151,5.54 14.175,-0.371 10.21,0.081 6.388,0.007 4.26,-0.034 2.13,0 0,0" style="fill:#494f57;fill-opacity:1;fill-rule:nonzero;stroke:none" transform="matrix(1.3333333,0,0,-1.3333333,967.97693,4051.9755)" />
      </g></svg>