<?xml version='1.0' encoding='utf-8'?>
<svg xmlns="http://www.w3.org/2000/svg" version="1.1" width="717.273" height="78.675" viewBox="1739.770 3952.540 717.273 78.675"><g id="object"><path id="path18" d="m 4.9096422,6.25e-4 h 5.6249998 v -18.878906 h 5.308594 c 5.109375,0.1875 7.429687,2.449218 8.730469,8.472656 1.230468,5.4257812 2.191406,9.1757812 2.90625,10.40625 h 5.824218 c -0.902343,-1.6757813 -1.945312,-5.8828125 -3.363281,-11.964844 -1.03125,-4.523437 -3.046875,-7.628906 -6.398437,-8.789062 V -20.9525 c 4.582031,-1.546875 8.203125,-5.367188 8.203125,-11.121094 0,-3.363281 -1.230469,-6.339844 -3.421875,-8.273437 -2.71875,-2.460938 -6.597657,-3.5625 -12.609375,-3.5625 -3.878907,0 -7.9570316,0.328125 -10.8046878,0.914062 z m 5.6249998,-39.058594 c 0.914063,-0.257812 2.847656,-0.515625 5.566406,-0.515625 5.953125,0.05859 10.019532,2.519531 10.019532,8.144531 0,4.980469 -3.808594,8.285157 -9.820313,8.285157 h -5.765625 z m 29.106445,-4.523437 v 25.675781 c 0,13.5117187 6.726563,18.62109375 15.644532,18.62109375 9.445312,0 16.488281,-5.49609375 16.488281,-18.89062475 v -25.40625 h -5.683594 v 25.804687 c 0,9.6328127 -4.136719,13.8984377 -10.605469,13.8984377 -5.824218,0 -10.160156,-4.1367187 -10.160156,-13.8984377 V -43.581406 Z M 86.844212,6.25e-4 v -18.621094 c 0,-7.242187 -0.128906,-12.480469 -0.457031,-17.976562 l 0.199219,-0.07031 c 2.191406,4.722656 5.109375,9.703125 8.144531,14.554688 L 108.57077,6.25e-4 h 5.6836 v -43.582031 h -5.29688 v 18.234375 c 0,6.785156 0.12891,12.09375 0.64453,17.9062497 l -0.1289,0.070312 c -2.0625,-4.4648447 -4.59375,-9.0585947 -7.82813,-14.1562507 L 87.687962,-43.581406 H 81.535619 V 6.25e-4 Z m 50.947268,0 h 5.625 v -19.722656 h 16.5 v -4.652344 h -16.5 V -38.85875 h 17.84765 v -4.722656 h -23.47265 z m 49.15137,-44.296875 c -11.63672,0 -20.23829,9.058594 -20.23829,22.898437 0,13.1835942 8.07422,22.11328175 19.59375,22.11328175 11.1211,0 20.23829,-7.95703125 20.23829,-22.95703175 0,-12.9375 -7.69922,-22.054687 -19.59375,-22.054687 z m -0.25782,4.59375 c 9.375,0 13.89844,9.046875 13.89844,17.71875 0,9.890625 -5.03906,18.1054687 -13.96875,18.1054687 -8.85937,0 -13.89844,-8.3437497 -13.89844,-17.6484377 0,-9.574219 4.65235,-18.175781 13.96875,-18.175781 z M 213.83445,6.25e-4 h 5.625 v -18.878906 h 5.30859 c 5.10938,0.1875 7.42969,2.449218 8.73047,8.472656 1.23047,5.4257812 2.19141,9.1757812 2.90625,10.40625 h 5.82422 c -0.90235,-1.6757813 -1.94531,-5.8828125 -3.36328,-11.964844 -1.03125,-4.523437 -3.04688,-7.628906 -6.39844,-8.789062 V -20.9525 c 4.58203,-1.546875 8.20312,-5.367188 8.20312,-11.121094 0,-3.363281 -1.23046,-6.339844 -3.42187,-8.273437 -2.71875,-2.460938 -6.59766,-3.5625 -12.60938,-3.5625 -3.8789,0 -7.95703,0.328125 -10.80468,0.914062 z m 5.625,-39.058594 c 0.91406,-0.257812 2.84765,-0.515625 5.5664,-0.515625 5.95313,0.05859 10.01953,2.519531 10.01953,8.144531 0,4.980469 -3.80859,8.285157 -9.82031,8.285157 h -5.76562 z M 274.76316,6.25e-4 v -18.5625 l 14.61328,-25.019531 h -6.41016 l -6.26953,12.023437 c -1.67578,3.304688 -3.16406,6.140625 -4.39453,8.988281 h -0.12891 c -1.35937,-3.035156 -2.64843,-5.683593 -4.33593,-8.988281 l -6.14063,-12.023437 h -6.39844 l 13.76954,25.089843 V 6.25e-4 Z m 34.91015,-44.296875 c -11.63671,0 -20.23828,9.058594 -20.23828,22.898437 0,13.1835942 8.07422,22.11328175 19.59375,22.11328175 11.1211,0 20.23828,-7.95703125 20.23828,-22.95703175 0,-12.9375 -7.69921,-22.054687 -19.59375,-22.054687 z m -0.25781,4.59375 c 9.375,0 13.89844,9.046875 13.89844,17.71875 0,9.890625 -5.03906,18.1054687 -13.96875,18.1054687 -8.85938,0 -13.89844,-8.3437497 -13.89844,-17.6484377 0,-9.574219 4.65235,-18.175781 13.96875,-18.175781 z m 27.09082,-3.878906 v 25.675781 c 0,13.5117187 6.72656,18.62109375 15.64453,18.62109375 9.44532,0 16.48828,-5.49609375 16.48828,-18.89062475 v -25.40625 h -5.68359 v 25.804687 c 0,9.6328127 -4.13672,13.8984377 -10.60547,13.8984377 -5.82422,0 -10.16015,-4.1367187 -10.16015,-13.8984377 V -43.581406 Z M 378.40085,6.25e-4 h 5.625 v -18.878906 h 5.3086 c 5.10937,0.1875 7.42968,2.449218 8.73047,8.472656 1.23046,5.4257812 2.1914,9.1757812 2.90625,10.40625 h 5.82421 c -0.90234,-1.6757813 -1.94531,-5.8828125 -3.36328,-11.964844 -1.03125,-4.523437 -3.04687,-7.628906 -6.39843,-8.789062 V -20.9525 c 4.58203,-1.546875 8.20312,-5.367188 8.20312,-11.121094 0,-3.363281 -1.23047,-6.339844 -3.42187,-8.273437 -2.71875,-2.460938 -6.59766,-3.5625 -12.60938,-3.5625 -3.87891,0 -7.95703,0.328125 -10.80469,0.914062 z m 5.625,-39.058594 c 0.91407,-0.257812 2.84766,-0.515625 5.56641,-0.515625 5.95312,0.05859 10.01953,2.519531 10.01953,8.144531 0,4.980469 -3.80859,8.285157 -9.82031,8.285157 h -5.76563 z M 426.8989,6.25e-4 h 24.25781 V -4.7220313 H 432.5239 V -43.581406 h -5.625 z m 30.52148,-43.582031 V 6.25e-4 h 5.625 V -43.581406 Z M 472.87449,6.25e-4 h 5.625 v -19.722656 h 16.5 v -4.652344 h -16.5 V -38.85875 h 17.84765 v -4.722656 h -23.47265 z m 54.05859,-25.089844 H 509.98777 V -38.85875 h 17.91797 v -4.722656 H 504.36277 V 6.25e-4 h 24.51562 V -4.7220313 H 509.98777 V -20.436875 h 16.94531 z m 0,0" style="fill:#231916;fill-opacity:1;fill-rule:nonzero;stroke:none" aria-label="RUN FOR YOUR LIFE" transform="matrix(1.3333333,0,0,1.3333333,1742.5515,4020.9367)" />
      <path id="path19" d="m 0,0 h 5.625 v 18.882 h 5.303 c 5.108,-0.195 7.436,-2.458 8.729,-8.471 C 20.886,4.979 21.856,1.229 22.567,0 h 5.82 c -0.906,1.682 -1.94,5.885 -3.363,11.963 -1.034,4.526 -3.039,7.63 -6.401,8.794 v 0.193 c 4.591,1.553 8.212,5.367 8.212,11.122 0,3.364 -1.229,6.337 -3.427,8.278 -2.716,2.457 -6.596,3.556 -12.61,3.556 C 6.919,43.906 2.845,43.583 0,43.001 Z m 5.625,39.057 c 0.906,0.257 2.846,0.516 5.562,0.516 5.948,-0.064 10.022,-2.521 10.022,-8.147 0,-4.979 -3.815,-8.277 -9.829,-8.277 H 5.625 Z" style="fill:none;stroke:#231916;stroke-width:5;stroke-linecap:butt;stroke-linejoin:miter;stroke-miterlimit:10;stroke-dasharray:none;stroke-opacity:1" transform="matrix(1.3333333,0,0,-1.3333333,1749.1041,4020.9367)" />
      <path id="path20" d="m 0,0 v -25.672 c 0,-13.514 6.725,-18.622 15.648,-18.622 9.441,0 16.489,5.496 16.489,18.881 V 0 h -5.69 v -25.801 c 0,-9.635 -4.138,-13.902 -10.605,-13.902 -5.819,0 -10.152,4.139 -10.152,13.902 L 5.69,0 Z" style="fill:none;stroke:#231916;stroke-width:5;stroke-linecap:butt;stroke-linejoin:miter;stroke-miterlimit:10;stroke-dasharray:none;stroke-opacity:1" transform="matrix(1.3333333,0,0,-1.3333333,1795.4017,3962.826)" />
      <path id="path21" d="m 0,0 v 18.623 c 0,7.242 -0.129,12.48 -0.453,17.976 l 0.194,0.065 C 1.94,31.943 4.85,26.964 7.889,22.114 L 21.727,0 h 5.69 V 43.583 H 22.114 V 25.348 c 0,-6.789 0.13,-12.092 0.647,-17.911 L 22.632,7.371 c -2.07,4.462 -4.591,9.053 -7.824,14.161 L 0.84,43.583 H -5.302 L -5.302,0 Z" style="fill:none;stroke:#231916;stroke-width:5;stroke-linecap:butt;stroke-linejoin:miter;stroke-miterlimit:10;stroke-dasharray:none;stroke-opacity:1" transform="matrix(1.3333333,0,0,-1.3333333,1858.3392,4020.9367)" />
      <path id="path22" d="m 0,0 h 5.625 v 19.722 h 16.489 v 4.656 H 5.625 v 14.484 h 17.847 v 4.721 H 0 Z" style="fill:none;stroke:#231916;stroke-width:5;stroke-linecap:butt;stroke-linejoin:miter;stroke-miterlimit:10;stroke-dasharray:none;stroke-opacity:1" transform="matrix(1.3333333,0,0,-1.3333333,1926.2767,4020.9367)" />
      <path id="path23" d="m 0,0 c -11.64,0 -20.24,-9.053 -20.24,-22.891 0,-13.191 8.083,-22.114 19.593,-22.114 11.122,0 20.24,7.953 20.24,22.955 C 19.593,-9.117 11.898,0 0,0 Z m -0.259,-4.591 c 9.376,0 13.903,-9.053 13.903,-17.718 0,-9.893 -5.044,-18.105 -13.967,-18.105 -8.859,0 -13.903,8.342 -13.903,17.652 0,9.571 4.656,18.171 13.967,18.171 z" style="fill:none;stroke:#231916;stroke-width:5;stroke-linecap:butt;stroke-linejoin:miter;stroke-miterlimit:10;stroke-dasharray:none;stroke-opacity:1" transform="matrix(1.3333333,0,0,-1.3333333,1991.8008,3961.8781)" />
      <path id="path24" d="m 0,0 h 5.625 v 18.882 h 5.303 c 5.108,-0.195 7.436,-2.458 8.729,-8.471 C 20.886,4.979 21.856,1.229 22.567,0 h 5.82 c -0.906,1.682 -1.94,5.885 -3.363,11.963 -1.034,4.526 -3.039,7.63 -6.401,8.794 v 0.193 c 4.591,1.553 8.212,5.367 8.212,11.122 0,3.364 -1.229,6.337 -3.427,8.278 -2.716,2.457 -6.596,3.556 -12.61,3.556 C 6.919,43.906 2.845,43.583 0,43.001 Z m 5.625,39.057 c 0.906,0.257 2.846,0.516 5.562,0.516 5.948,-0.064 10.022,-2.521 10.022,-8.147 0,-4.979 -3.815,-8.277 -9.829,-8.277 H 5.625 Z" style="fill:none;stroke:#231916;stroke-width:5;stroke-linecap:butt;stroke-linejoin:miter;stroke-miterlimit:10;stroke-dasharray:none;stroke-opacity:1" transform="matrix(1.3333333,0,0,-1.3333333,2027.6667,4020.9367)" />
      <path id="path25" d="M 0,0 V 18.559 L 14.614,43.583 H 8.212 L 1.94,31.556 C 0.258,28.258 -1.229,25.412 -2.458,22.567 h -0.128 c -1.358,3.039 -2.652,5.691 -4.333,8.989 l -6.143,12.027 h -6.401 L -5.69,18.493 V 0 Z" style="fill:none;stroke:#231916;stroke-width:5;stroke-linecap:butt;stroke-linejoin:miter;stroke-miterlimit:10;stroke-dasharray:none;stroke-opacity:1" transform="matrix(1.3333333,0,0,-1.3333333,2108.8828,4020.9367)" />
      <path id="path26" d="m 0,0 c -11.64,0 -20.24,-9.053 -20.24,-22.891 0,-13.191 8.083,-22.114 19.593,-22.114 11.122,0 20.24,7.953 20.24,22.955 C 19.593,-9.117 11.898,0 0,0 Z m -0.259,-4.591 c 9.376,0 13.903,-9.053 13.903,-17.718 0,-9.893 -5.044,-18.105 -13.967,-18.105 -8.859,0 -13.903,8.342 -13.903,17.652 0,9.571 4.656,18.171 13.967,18.171 z" style="fill:none;stroke:#231916;stroke-width:5;stroke-linecap:butt;stroke-linejoin:miter;stroke-miterlimit:10;stroke-dasharray:none;stroke-opacity:1" transform="matrix(1.3333333,0,0,-1.3333333,2155.4388,3961.8781)" />
      <path id="path27" d="m 0,0 v -25.672 c 0,-13.514 6.725,-18.622 15.648,-18.622 9.441,0 16.489,5.496 16.489,18.881 V 0 h -5.69 v -25.801 c 0,-9.635 -4.138,-13.902 -10.605,-13.902 -5.819,0 -10.152,4.139 -10.152,13.902 L 5.69,0 Z" style="fill:none;stroke:#231916;stroke-width:5;stroke-linecap:butt;stroke-linejoin:miter;stroke-miterlimit:10;stroke-dasharray:none;stroke-opacity:1" transform="matrix(1.3333333,0,0,-1.3333333,2191.2181,3962.826)" />
      <path id="path28" d="m 0,0 h 5.625 v 18.882 h 5.303 c 5.108,-0.195 7.436,-2.458 8.729,-8.471 C 20.886,4.979 21.856,1.229 22.567,0 h 5.82 c -0.906,1.682 -1.94,5.885 -3.363,11.963 -1.034,4.526 -3.039,7.63 -6.401,8.794 v 0.193 c 4.591,1.553 8.212,5.367 8.212,11.122 0,3.364 -1.229,6.337 -3.427,8.278 -2.716,2.457 -6.596,3.556 -12.61,3.556 C 6.919,43.906 2.845,43.583 0,43.001 Z m 5.625,39.057 c 0.906,0.257 2.846,0.516 5.562,0.516 5.948,-0.064 10.022,-2.521 10.022,-8.147 0,-4.979 -3.815,-8.277 -9.829,-8.277 H 5.625 Z" style="fill:none;stroke:#231916;stroke-width:5;stroke-linecap:butt;stroke-linejoin:miter;stroke-miterlimit:10;stroke-dasharray:none;stroke-opacity:1" transform="matrix(1.3333333,0,0,-1.3333333,2247.086,4020.9367)" />
      <path id="path29" d="M 0,0 H 24.248 V 4.721 H 5.625 V 43.583 H 0 Z" style="fill:none;stroke:#231916;stroke-width:5;stroke-linecap:butt;stroke-linejoin:miter;stroke-miterlimit:10;stroke-dasharray:none;stroke-opacity:1" transform="matrix(1.3333333,0,0,-1.3333333,2311.7468,4020.9367)" />
      <path id="path30" d="M 0,0 V -43.583 H 5.625 V 0 Z" style="fill:none;stroke:#231916;stroke-width:5;stroke-linecap:butt;stroke-linejoin:miter;stroke-miterlimit:10;stroke-dasharray:none;stroke-opacity:1" transform="matrix(1.3333333,0,0,-1.3333333,2352.4401,3962.826)" />
      <path id="path31" d="m 0,0 h 5.625 v 19.722 h 16.489 v 4.656 H 5.625 v 14.484 h 17.847 v 4.721 H 0 Z" style="fill:none;stroke:#231916;stroke-width:5;stroke-linecap:butt;stroke-linejoin:miter;stroke-miterlimit:10;stroke-dasharray:none;stroke-opacity:1" transform="matrix(1.3333333,0,0,-1.3333333,2373.0456,4020.9367)" />
      <path id="path32" d="M 0,0 H -16.941 V 13.773 H 0.97 v 4.721 H -22.567 V -25.089 H 1.94 v 4.721 h -18.881 v 15.713 l 16.941,0 z" style="fill:none;stroke:#231916;stroke-width:5;stroke-linecap:butt;stroke-linejoin:miter;stroke-miterlimit:10;stroke-dasharray:none;stroke-opacity:1" transform="matrix(1.3333333,0,0,-1.3333333,2445.1224,3987.4848)" />
      </g></svg>