<?xml version='1.0' encoding='utf-8'?>
<svg xmlns="http://www.w3.org/2000/svg" version="1.1" width="105.785" height="128.019" viewBox="2406.640 4018.180 105.785 128.019"><g id="object"><path id="path31" d="m 0,0 c -6.586,0.325 -13.213,1.581 -19.618,-1.32 -1.523,-0.69 -3.135,0.064 -4.236,1.273 -2.618,2.877 -5.271,5.597 -5.516,10.001 -0.305,5.455 -1.601,10.855 -1.914,16.311 -0.299,5.213 -2.057,9.644 -4.329,14.313 -2.263,4.651 3.372,9.15 1.976,14.607 -1.544,6.033 -1.988,12.326 -4.103,18.288 -1.299,3.66 -0.379,5.329 3.055,6.212 16.018,4.118 32.287,6.266 48.848,5.639 4.411,-0.168 8.779,-0.839 9.847,-6.375 -0.62,-0.105 -0.872,-0.467 -0.756,-1.087 -4.281,-0.184 -8.563,-0.369 -12.844,-0.549 -8.171,-0.344 -16.352,-0.227 -24.45,-1.886 -16.697,-3.419 -15.438,-2.39 -12.804,-18.834 0.247,-1.539 0.274,-3.117 0.572,-4.644 0.661,-3.387 2.167,-5.072 5.441,-4.886 7.755,0.441 15.611,-0.91 23.269,1.242 2.358,-0.706 4.721,-0.765 7.089,-0.048 3.157,-1.239 5.662,-2.902 4.513,-6.94 0,0 0.047,-0.005 0.047,-0.005 -1.32,-0.11 -2.423,-0.518 -2.74,-2 0,0 -0.298,0.278 -0.292,0.275 -9.806,-0.361 -19.626,-0.581 -29.426,-1.139 -4.205,-0.239 -5.47,-1.842 -5.857,-5.897 -0.491,-5.139 0.139,-10.195 1.029,-15.253 0.781,-4.442 3.263,-6.945 7.687,-7.695 C -9.655,8.61 -3.761,8.59 2.134,8.893 9.986,9.296 17.827,9.913 25.68,10.25 27.13,10.313 28.793,9.765 30.048,8.995 31.914,7.853 31.806,5.644 32.036,3.706 31.515,3.142 30.993,2.577 30.472,2.012 23.61,1.343 16.748,0.675 9.885,0.007 6.59,0.773 3.295,0.527 0,0" style="fill:#cd4152;fill-opacity:1;fill-rule:nonzero;stroke:none" transform="matrix(1.3333333,0,0,-1.3333333,2463.7152,4138.0873)" />
      </g></svg>