<?xml version='1.0' encoding='utf-8'?>
<svg xmlns="http://www.w3.org/2000/svg" version="1.1" width="466.003" height="305.324" viewBox="2179.830 3562.610 466.003 305.324"><defs id="defs1"><clipPath clipPathUnits="userSpaceOnUse" id="clipPath37">
      <path d="M 0,3370.3901 H 2383.9401 V -2.5000001e-5 H 0 Z" id="path37" />
    </clipPath>
  </defs><g id="object"><path id="path9" d="m 0,0 c -1.539,0.15 -3.078,0.299 -4.617,0.449 -1.891,-10.466 -4.029,-20.896 -5.572,-31.413 -0.815,-5.555 1.391,-9.556 7.899,-9.741 6.794,-0.193 8.661,4.068 7.867,9.525 C 4.058,-20.737 1.896,-10.388 0,0 m 1.084,73.112 c 48.45,0.35 47.569,0.157 58.099,-47.967 9.33,-42.637 12.722,-86.516 29.637,-127.669 10.25,-24.939 1.338,-34.846 -26.049,-34.887 -8.438,-0.012 -16.876,0.072 -25.314,0.148 -30.653,0.277 -34.618,5.366 -27.799,36.231 1.325,6 8.405,13.294 -1.824,16.688 -5.912,1.962 -14.238,2.107 -19.507,-0.67 -9.016,-4.753 -0.688,-11.352 0.833,-17.267 7.125,-27.7 1.513,-35.002 -26.715,-35.21 -50.67,-0.372 -50.762,1.471 -37.716,50.804 9.893,37.41 15.079,76.061 22.476,114.137 8.808,45.347 8.862,45.336 53.879,45.662" style="fill:#d7bb98;fill-opacity:1;fill-rule:nonzero;stroke:none" transform="matrix(1.3333333,0,0,-1.3333333,2295.9025,3671.0623)" />
      <path id="path11" d="m 0,0 c 16.57,-2.787 38.429,7.758 37.881,-21.518 -0.103,-5.467 4.623,-7.437 10.878,-5.436 6.492,2.076 13.416,2.278 13.812,11.551 0.473,11.081 -2.214,20.28 -13.798,24.102 -8.784,2.899 -17.82,5.03 -26.717,7.595 -43.264,12.471 -56.236,31.712 -51.322,76.053 3.505,31.633 24.636,48.105 64.795,50.347 22.084,1.234 43.704,-0.717 64.473,-9.183 13.963,-5.691 26.301,-12.08 23.526,-30.656 -1.556,-10.418 4.458,-24.788 -7.346,-29.981 C 100.744,66.082 83.12,69.32 66.459,71.063 61.315,71.601 62.216,77.358 61.394,81.302 59.698,89.439 56.086,95.521 46.292,94.575 41.521,94.114 38.519,91.769 37.804,86.947 36.614,78.925 37.719,70.522 45.204,67 56.318,61.77 68.468,58.742 80.171,54.759 119.927,41.23 129.366,27.6 127.172,-13.088 125.332,-47.23 108.315,-64.816 72.05,-73.884 c -24.829,-6.209 -48.488,-2.25 -71.626,5.013 -27.286,8.566 -41.208,39.13 -28.466,63.478 C -22.284,5.611 -8.042,-3.68 0,0" style="fill:#d7bb98;fill-opacity:1;fill-rule:nonzero;stroke:none" transform="matrix(1.3333333,0,0,-1.3333333,2469.8779,3759.3189)" />
      </g></svg>