<?xml version='1.0' encoding='utf-8'?>
<svg xmlns="http://www.w3.org/2000/svg" version="1.1" width="121.151" height="295.653" viewBox="1268.880 3567.830 121.151 295.653"><defs id="defs1"><clipPath clipPathUnits="userSpaceOnUse" id="clipPath37">
      <path d="M 0,3370.3901 H 2383.9401 V -2.5000001e-5 H 0 Z" id="path37" />
    </clipPath>
  </defs><g id="object"><path id="path16" d="m 0,0 c 0.404,-2.351 0.807,-4.701 1.211,-7.057 -8.512,-42.909 -8.825,-86.282 -9.223,-129.833 -0.166,-18.213 9.346,-33.982 8.133,-51.745 -2.622,-38.358 -31.727,-15.012 -48.08,-19.039 -12.759,-3.141 -37.192,-8.072 -31.45,19.568 7.614,36.654 4.051,73.471 6.845,110.095 2.068,27.094 -13.231,52.434 -6.25,79.636 10e-4,0 -0.315,0.034 -0.305,0.038 C -52.74,1.111 -26.37,0.555 0,0" style="fill:#d7bb98;fill-opacity:1;fill-rule:nonzero;stroke:none" transform="matrix(1.3333333,0,0,-1.3333333,1382.4136,3576.0449)" />
      </g></svg>