<?xml version='1.0' encoding='utf-8'?>
<svg xmlns="http://www.w3.org/2000/svg" version="1.1" width="458.514" height="464.443" viewBox="811.232 3097.460 458.514 464.443"><g id="object"><path id="path11" d="m 0,0 c 0.332,52.261 -32.257,88.582 -79.772,88.906 -46.563,0.318 -80.759,-35.447 -81.384,-85.121 -0.668,-53.055 32.866,-90.283 81.262,-90.214 C -33.638,-86.364 -0.32,-50.321 0,0 m 86.582,-2.315 c -2.998,-99.127 -74.153,-168.395 -170.334,-165.817 -97.879,2.623 -166.711,74.594 -164.402,171.903 2.346,98.867 74.445,170.129 169.242,167.277 99.74,-3 168.469,-74.997 165.494,-173.363" style="fill:#231916;fill-opacity:1;fill-rule:nonzero;stroke:none" transform="matrix(1.3333333,0,0,-1.3333333,1148.1791,3331.6389)" />
      </g></svg>