<?xml version='1.0' encoding='utf-8'?>
<svg xmlns="http://www.w3.org/2000/svg" version="1.1" width="70.585" height="40.469" viewBox="2746.960 4183.570 70.585 40.469"><g id="object"><path id="path88" d="m 1.3723391,-15.598989 v 1.746094 h 7.6289062 v 0.04687 L 2.2278078,-0.00133281 H 4.4192141 L 11.20437,-14.204458 v -1.394531 z M 14.069605,4.7564797 h 2.085937 v -6.3164063 h 0.04687 c 0.691406,1.14843754 2.039063,1.82812504 3.574219,1.82812504 2.730469,0 5.273437,-2.07421874 5.273437,-6.24609374 0,-3.5273438 -2.109375,-5.9062497 -4.910156,-5.9062497 -1.898437,0 -3.269531,0.84375 -4.136719,2.2617184 h -0.04688 l -0.09375,-1.9921874 h -1.898437 c 0.04687,1.101562 0.105469,2.2968749 0.105469,3.7851562 z m 2.085937,-11.4726563 c 0,-0.2929687 0.07031,-0.609375 0.140625,-0.8671875 0.410156,-1.5820312 1.746094,-2.6132809 3.1875,-2.6132809 2.238281,0 3.457031,1.9921872 3.457031,4.3124997 0,2.671875 -1.289062,4.4882812 -3.527343,4.4882812 -1.511719,0 -2.777344,-1.0078125 -3.164063,-2.4726562 -0.04687,-0.2578125 -0.09375,-0.5507813 -0.09375,-0.8554688 z m 11.569336,6.71484379 h 2.0625 V -7.0091453 c 0,-0.3632813 0.04687,-0.7148438 0.164063,-1.03125 0.339843,-1.0546875 1.300781,-2.1093747 2.613281,-2.1093747 1.605469,0 2.425781,1.3359372 2.425781,3.1874997 v 6.96093749 h 2.0625 V -7.1732078 c 0,-0.3867188 0.07031,-0.7734375 0.175781,-1.0546875 0.351563,-1.0429688 1.289063,-1.9218747 2.496094,-1.9218747 1.699219,0 2.519531,1.3359372 2.519531,3.5742184 v 6.57421879 h 2.0625 V -6.8450828 c 0,-4.0312502 -2.285156,-5.0390622 -3.820312,-5.0390622 -1.101563,0 -1.875,0.292968 -2.566406,0.820312 -0.480469,0.363281 -0.9375,0.867188 -1.300782,1.5117189 h -0.04687 c -0.503906,-1.3710939 -1.699218,-2.3320309 -3.28125,-2.3320309 -1.921875,0 -3,1.03125 -3.65625,2.1445309 h -0.07031 l -0.09375,-1.8749999 h -1.851563 c 0.07031,0.960937 0.105469,1.9453124 0.105469,3.1406249 z m 0,0" style="fill:#231916;fill-opacity:1;fill-rule:nonzero;stroke:none" aria-label="7pm" transform="matrix(1.3333333,0,0,1.3333333,2751.8069,4211.0369)" />
      <path id="path89" d="M 0,0 V -1.752 H 7.632 V -1.8 L 0.864,-15.6 H 3.048 L 9.84,-1.392 V 0 Z" style="fill:none;stroke:#231916;stroke-width:1;stroke-linecap:butt;stroke-linejoin:miter;stroke-miterlimit:10;stroke-dasharray:none;stroke-opacity:1" transform="matrix(1.3333333,0,0,-1.3333333,2753.6312,4190.2375)" />
      <path id="path90" d="M 0,0 H 2.088 V 6.312 H 2.136 C 2.832,5.16 4.176,4.488 5.712,4.488 c 2.736,0 5.28,2.064 5.28,6.24 0,3.528 -2.112,5.904 -4.92,5.904 -1.896,0 -3.264,-0.84 -4.128,-2.256 H 1.896 L 1.8,16.368 H -0.096 C -0.048,15.264 0,14.063 0,12.576 Z m 2.088,11.472 c 0,0.288 0.072,0.6 0.144,0.864 0.408,1.584 1.752,2.616 3.192,2.616 2.232,0 3.456,-1.992 3.456,-4.32 C 8.88,7.968 7.584,6.144 5.352,6.144 3.84,6.144 2.568,7.152 2.184,8.616 2.136,8.88 2.088,9.168 2.088,9.479 Z" style="fill:none;stroke:#231916;stroke-width:1;stroke-linecap:butt;stroke-linejoin:miter;stroke-miterlimit:10;stroke-dasharray:none;stroke-opacity:1" transform="matrix(1.3333333,0,0,-1.3333333,2770.5583,4217.3728)" />
      <path id="path91" d="m 0,0 h 2.064 v 7.008 c 0,0.36 0.048,0.72 0.168,1.032 0.336,1.056 1.296,2.112 2.616,2.112 1.608,0 2.424,-1.344 2.424,-3.192 V 0 h 2.064 v 7.176 c 0,0.384 0.072,0.768 0.168,1.056 0.36,1.032 1.296,1.92 2.496,1.92 1.704,0 2.52,-1.344 2.52,-3.576 V 0 h 2.064 v 6.84 c 0,4.032 -2.28,5.04 -3.816,5.04 -1.104,0 -1.872,-0.288 -2.568,-0.816 C 9.72,10.704 9.264,10.2 8.904,9.552 H 8.856 C 8.352,10.92 7.152,11.88 5.568,11.88 c -1.92,0 -3,-1.032 -3.648,-2.136 H 1.848 L 1.752,11.616 H -0.096 C -0.024,10.656 0,9.672 0,8.472 Z" style="fill:none;stroke:#231916;stroke-width:1;stroke-linecap:butt;stroke-linejoin:miter;stroke-miterlimit:10;stroke-dasharray:none;stroke-opacity:1" transform="matrix(1.3333333,0,0,-1.3333333,2788.766,4211.0369)" />
      </g></svg>