<?xml version='1.0' encoding='utf-8'?>
<svg xmlns="http://www.w3.org/2000/svg" version="1.1" width="689.561" height="392.305" viewBox="767.247 1685.780 689.561 392.305"><defs id="defs1"><clipPath clipPathUnits="userSpaceOnUse" id="clipPath10">
      <path d="M 0,3370.3901 H 2383.9401 V -2.5000001e-5 H 0 Z" id="path10" />
    </clipPath>
  </defs><g id="object"><path id="path3" d="m 0,0 c -24.37,-12.232 -31.186,-53.463 -70.54,-52.366 -12.952,16.109 -10.144,25.482 28.398,88.467 -26.009,15.246 -26.99,19.208 -16.704,67.396 15.468,5.18 19.013,-10.047 27.667,-16.356 11.985,-8.738 23.496,-18.129 35.169,-27.293 4.925,-3.866 9.575,-8.1 14.646,-11.756 11.601,-8.365 22.439,-18.74 35.331,-24.119 16.193,-6.756 34.288,-8.799 51.278,-13.837 27.967,-8.293 54.731,-0.78 81.979,4.216 39.254,7.197 71.273,27.518 101.332,52.222 4.871,4.003 11.105,6.315 16.585,9.615 13.095,7.887 22.648,17.285 20.751,34.904 -0.499,4.643 7.221,9.712 9.691,15.245 3.345,7.494 5.267,15.623 7.276,21.853 11.53,-3.333 20.713,-5.987 31.199,-9.018 13.371,-17.982 -9.684,-34.675 -5.248,-57.181 17.196,-3.797 35.958,-7.758 54.581,-12.288 2.239,-0.545 5.122,-4.056 5.331,-6.404 1.122,-12.61 2.894,-25.464 1.335,-37.842 -0.522,-4.141 -10.776,-10.669 -15.6,-9.906 -10.164,1.608 -19.695,7.278 -29.457,11.347 -10.869,4.531 -21.543,9.612 -32.658,13.411 -3.24,1.108 -8.301,-0.371 -11.502,-2.336 -20.213,-12.408 -40.138,-25.287 -62.586,-39.552 8.009,-9.208 16.684,-18.859 24.997,-28.812 13.153,-15.747 26.281,-31.879 15.904,-54.247 -2.651,-5.713 -9.617,-15.024 -11.937,-14.288 -8.356,2.652 -20.998,7.771 -22.276,13.967 -5.284,25.623 -30.475,35.625 -41.397,56.55 -1.56,2.988 -15.634,0.412 -23.594,-1.189 -7.635,-1.534 -15.241,-4.435 -22.079,-8.167 -3.148,-1.718 -6.414,-6.951 -6.242,-10.422 1.162,-23.325 4.144,-46.594 4.404,-69.905 0.07,-6.261 -7.253,-12.604 -11.205,-18.947 -25.195,6.067 -28.737,24.903 -28.008,46.852 0.267,8.013 -0.84,16.279 -2.688,24.107 -2.936,12.437 -3.28,26.294 -24.054,23.458 -11.768,-1.607 -24.559,4.9 -36.981,7.274 -12.518,2.392 -16.887,-6.352 -20.132,-15.928 -5.255,-15.514 -10.122,-31.162 -15.544,-46.616 -3.287,-9.369 -26.904,-20.889 -35.282,-16.711 -2.808,1.401 -5.557,7.221 -4.969,10.398 2.747,14.821 6.365,29.507 10.271,44.08 3.168,11.819 6.044,23.938 11.133,34.963 5.748,12.454 -1.578,15.542 -10.422,18.2 C 19.861,-4.47 11.333,-2.762 0,0" style="fill:#231916;fill-opacity:1;fill-rule:nonzero;stroke:none" transform="matrix(1.3333333,0,0,-1.3333333,876.58107,1889.3631)" />
      </g></svg>