<?xml version='1.0' encoding='utf-8'?>
<svg xmlns="http://www.w3.org/2000/svg" version="1.1" width="115.169" height="184.074" viewBox="132.512 3068.640 115.169 184.074"><g id="object"><path id="path148" d="m 0,0 c -0.369,4.124 0.335,8.75 1.973,13.303 7.794,21.672 22.114,36.728 44.396,43.498 8.229,2.501 16.588,4.847 25.398,3.656 2.641,-0.357 5.222,-0.837 5.481,-4.234 0.268,-3.521 -1.1,-6.577 -3.987,-7.337 C 66.571,47.126 60.057,44.96 53.768,42.082 45.056,38.095 37.183,33.023 30.495,26.002 21.454,16.51 17.168,4.996 15.276,-7.61 c -0.928,-6.184 0.695,-12.032 3.601,-17.48 5.124,-9.603 11.3,-18.37 20.352,-24.759 3.874,-2.734 7.766,-5.444 11.601,-8.231 1.443,-1.048 2.435,-2.451 2.075,-4.388 -0.51,-2.74 -1.911,-5.213 -4.714,-5.513 -8.349,-0.893 -16.53,0.009 -23.235,5.623 -7.334,6.14 -13.5,13.206 -16.873,22.506 C 4.489,-29.945 0.273,-10.98 0,0" style="fill:#494643;fill-opacity:1;fill-rule:nonzero;stroke:none" transform="matrix(1.3333333,0,0,-1.3333333,138.63987,3155.6739)" />
      </g></svg>