<?xml version='1.0' encoding='utf-8'?>
<svg xmlns="http://www.w3.org/2000/svg" version="1.1" width="78.525" height="149.436" viewBox="249.108 4713.090 78.525 149.436"><g id="object"><path id="path143" d="m 0,0 c -1.8,-24.49 -3.565,-48.983 -5.428,-73.468 -0.413,-5.432 -2.395,-8.01 -5.271,-7.379 -3.835,0.841 -4.115,4.039 -4.21,7.046 -0.342,10.762 0.005,21.544 -1.597,32.257 -0.898,6.007 -1.499,6.794 -7.02,6.606 -5.79,-0.196 -6.817,-0.905 -7.602,-6.514 -1.074,-7.682 -2.028,-15.377 -1.824,-23.186 0.112,-4.295 -0.119,-8.642 -0.684,-12.901 -0.619,-4.667 -5.597,-6.702 -9.827,-4.498 -4.686,2.442 -7.011,5.798 -6.307,11.419 1.391,11.118 2.587,22.274 3.402,33.448 1.067,14.608 2.835,29.193 2.054,43.897 -0.114,2.138 0.117,4.319 0.411,6.449 0.758,5.474 6.072,8.358 11.6,6.318 1.718,-0.633 2.913,-1.972 3.073,-3.805 0.336,-3.856 0.564,-7.726 0.666,-11.594 0.09,-3.447 -0.161,-6.902 -0.054,-10.347 0.091,-2.894 1.471,-4.894 4.623,-5.157 1.719,-0.144 3.441,-0.328 5.163,-0.345 4.033,-0.041 5.715,1.264 5.864,5.102 0.216,5.599 0.041,11.213 0.157,16.818 0.044,2.137 0.082,4.384 0.752,6.368 0.743,2.196 2.853,3.057 5.168,3.107 2.323,0.05 4.382,-0.678 5.195,-2.976 C 0.217,11.264 -0.253,5.618 0,0" style="fill:#494643;fill-opacity:1;fill-rule:nonzero;stroke:none" transform="matrix(1.3333333,0,0,-1.3333333,321.63267,4745.9537)" />
      </g></svg>