<?xml version='1.0' encoding='utf-8'?>
<svg xmlns="http://www.w3.org/2000/svg" version="1.1" width="200.506" height="250.695" viewBox="1214.530 4160.120 200.506 250.695"><g id="object"><path id="path32" d="m 0,0 h 44.308 c 0,-35.09 0.329,-69.029 -0.132,-102.957 -0.251,-18.476 3.782,-32.681 25.831,-33.205 23.525,-0.56 27.823,13.908 27.402,33.681 -0.709,33.257 -0.194,66.54 -0.194,101.8 h 43.273 c 0,-42.665 2.462,-85.637 -0.821,-128.165 -2.396,-31.032 -35.477,-51.498 -70.906,-50.109 -37.548,1.472 -63.668,23.298 -68.189,57.266 -0.746,5.61 -0.543,11.364 -0.55,17.052 C -0.022,-70.609 0,-36.581 0,0" style="fill:#231916;fill-opacity:1;fill-rule:nonzero;stroke:none" transform="matrix(1.3333333,0,0,-1.3333333,1220.5355,4166.1216)" />
      </g></svg>