<?xml version='1.0' encoding='utf-8'?>
<svg xmlns="http://www.w3.org/2000/svg" version="1.1" width="512.147" height="145.809" viewBox="374.398 2295.230 512.147 145.809"><defs id="defs1"><clipPath clipPathUnits="userSpaceOnUse" id="clipPath32">
      <path d="M 0,3370.3901 H 2383.9401 V -2.5000001e-5 H 0 Z" id="path32" />
    </clipPath>
  </defs><g id="object"><path id="path11" d="M 76.264167,-45.832409 H 47.518073 v 9.058593 h 17.742188 v 26.027344 c -2.589844,1.2890626 -7.640625,2.3320314 -15.023438,2.3320314 -20.332031,0 -33.667968,-13.0781254 -33.667968,-35.2265624 0,-21.878906 13.863281,-35.085938 35.097656,-35.085938 8.800781,0 14.625,1.6875 19.289062,3.761719 l 2.71875,-9.199219 c -3.761718,-1.816406 -11.660156,-4.007812 -21.75,-4.007812 -29.261718,0 -47.1328121,19.03125 -47.2617183,45.058594 0,13.59375 4.6640625,25.242187 12.1640623,32.496093 8.554688,8.1562504 19.429688,11.51953162 32.636719,11.51953162 11.777344,0 21.75,-2.97656252 26.800781,-4.78125002 z M 104.49171,-3.78125e-4 V -62.672253 H 93.101081 V -3.78125e-4 Z M 98.796394,-87.398816 c -4.148438,0 -7.125,3.105469 -7.125,7.125 0,3.878907 2.847656,6.984375 6.867187,6.984375 4.523439,0 7.371089,-3.105468 7.242189,-6.984375 0,-4.019531 -2.71875,-7.125 -6.984376,-7.125 z M 132.71632,-3.78125e-4 133.23194,-10.359753 h 0.38672 c 4.66406,8.2851561 11.91797,11.7890624 20.97656,11.7890624 13.99219,0 28.10156,-11.1445313 28.10156,-33.5390624 0.12891,-19.03125 -10.875,-31.980469 -26.41406,-31.980469 -10.10156,0 -17.35547,4.523438 -21.36328,11.519531 h -0.25781 v -39.363281 h -11.26172 v 75.75 c 0,5.566406 -0.26953,11.9062501 -0.52734,16.183593875 z M 134.66163,-36.387097 c 0,-1.804687 0.38672,-3.363281 0.64453,-4.664062 2.33203,-8.671875 9.58594,-13.980469 17.35547,-13.980469 12.16406,0 18.64453,10.746094 18.64453,23.308594 0,14.367187 -7.125,24.0820309 -19.03125,24.0820309 -8.29688,0 -14.89453,-5.4374999 -17.09766,-13.3359379 -0.25781,-1.289062 -0.51562,-2.71875 -0.51562,-4.148437 z m 58.00781,33.4101564 c 4.40625,2.58984372 10.74609,4.265625 17.61328,4.265625 14.88281,0 23.42578,-7.7578125 23.42578,-18.7734374 0,-9.316406 -5.5664,-14.753906 -16.4414,-18.902344 -8.15625,-3.105469 -11.90625,-5.4375 -11.90625,-10.617187 0,-4.664063 3.75,-8.542969 10.48828,-8.542969 5.82422,0 10.35937,2.074219 12.82031,3.621094 l 2.84766,-8.285157 c -3.50391,-2.074218 -9.07032,-3.878906 -15.41016,-3.878906 -13.46484,0 -21.62109,8.285156 -21.62109,18.386719 0,7.511719 5.30859,13.722656 16.57031,17.730469 8.41406,3.117187 11.64844,6.09375 11.64844,11.53125 0,5.179687 -3.87891,9.3164059 -12.16407,9.3164059 -5.69531,0 -11.66015,-2.3320313 -15.02343,-4.5234379 z m 82.22461,-61.1132814 c -17.35547,0 -31.07813,12.292969 -31.07813,33.269531 0,19.816407 13.07813,32.2500004 30.03516,32.2500004 15.15234,0 31.20703,-10.1015625 31.20703,-33.2812504 0,-19.160156 -12.17578,-32.238281 -30.16406,-32.238281 z m -0.25781,8.542969 c 13.46484,0 18.77343,13.464844 18.77343,24.082031 0,14.109375 -8.15625,24.3398439 -19.04296,24.3398439 -11.13282,0 -19.03125,-10.3593749 -19.03125,-24.0820309 0,-11.90625 5.82421,-24.339844 19.30078,-24.339844 z m 44.79785,55.546874875 h 11.39062 V -37.676159 c 0,-1.945313 0.25782,-3.890625 0.77344,-5.308594 1.94531,-6.351563 7.76953,-11.660156 15.28125,-11.660156 10.7461,0 14.4961,8.425781 14.4961,18.515625 V -3.78125e-4 h 11.40234 V -37.418347 c 0,-21.492187 -13.46484,-26.671875 -22.14844,-26.671875 -10.35937,0 -17.60156,5.824219 -20.70703,11.777344 h -0.26953 l -0.64453,-10.359375 h -10.10156 c 0.39843,5.179687 0.52734,10.488281 0.52734,16.96875 z m 0,0" style="fill:#ffffff;fill-opacity:1;fill-rule:nonzero;stroke:none" aria-label="Gibson" transform="matrix(1.3333333,0,0,1.3333333,378.8496,2428.4771)" />
      <path id="path12" d="m 0,0 h -28.745 v -9.063 h 17.739 v -26.026 c -2.589,-1.295 -7.639,-2.331 -15.019,-2.331 -20.329,0 -33.665,13.078 -33.665,35.219 0,21.883 13.854,35.09 35.089,35.09 8.805,0 14.631,-1.684 19.292,-3.755 l 2.72,9.193 c -3.755,1.813 -11.654,4.014 -21.753,4.014 -29.263,0 -47.131,-19.034 -47.261,-45.06 0,-13.595 4.662,-25.249 12.171,-32.5 8.546,-8.157 19.423,-11.523 32.63,-11.523 11.782,0 21.752,2.977 26.802,4.791 z" style="fill:none;stroke:#ffffff;stroke-width:7;stroke-linecap:butt;stroke-linejoin:miter;stroke-miterlimit:10;stroke-dasharray:none;stroke-opacity:1" transform="matrix(1.3333333,0,0,-1.3333333,480.5352,2367.3624)" />
      <path id="path13" d="M 0,0 V 62.669 H -11.395 V 0 Z m -5.697,87.399 c -4.144,0 -7.122,-3.107 -7.122,-7.121 0,-3.884 2.849,-6.992 6.862,-6.992 4.533,0 7.381,3.108 7.251,6.992 0,4.014 -2.718,7.121 -6.991,7.121 z" style="fill:none;stroke:#ffffff;stroke-width:7;stroke-linecap:butt;stroke-linejoin:miter;stroke-miterlimit:10;stroke-dasharray:none;stroke-opacity:1" transform="matrix(1.3333333,0,0,-1.3333333,518.17053,2428.4771)" />
      <path id="path14" d="M 0,0 0.518,10.358 H 0.906 C 5.567,2.071 12.818,-1.424 21.882,-1.424 c 13.984,0 28.097,11.135 28.097,33.535 0.13,19.035 -10.876,31.982 -26.414,31.982 -10.099,0 -17.35,-4.531 -21.364,-11.524 H 1.942 V 91.932 H -9.323 V 16.186 C -9.323,10.617 -9.582,4.272 -9.841,0 Z m 1.942,36.384 c 0,1.813 0.389,3.367 0.647,4.662 2.331,8.675 9.582,13.983 17.351,13.983 12.171,0 18.645,-10.747 18.645,-23.306 C 38.585,17.351 31.464,7.64 19.551,7.64 11.265,7.64 4.661,13.077 2.46,20.976 2.201,22.271 1.942,23.695 1.942,25.119 Z" style="fill:none;stroke:#ffffff;stroke-width:7;stroke-linecap:butt;stroke-linejoin:miter;stroke-miterlimit:10;stroke-dasharray:none;stroke-opacity:1" transform="matrix(1.3333333,0,0,-1.3333333,555.80533,2428.4771)" />
      <path id="path15" d="m 0,0 c 4.402,-2.59 10.747,-4.273 17.609,-4.273 14.891,0 23.436,7.768 23.436,18.774 0,9.323 -5.567,14.762 -16.443,18.904 -8.158,3.109 -11.913,5.439 -11.913,10.618 0,4.662 3.755,8.546 10.488,8.546 5.827,0 10.359,-2.072 12.819,-3.626 l 2.848,8.287 c -3.496,2.072 -9.063,3.884 -15.408,3.884 -13.466,0 -21.624,-8.286 -21.624,-18.385 0,-7.51 5.31,-13.726 16.574,-17.74 8.417,-3.107 11.654,-6.086 11.654,-11.523 0,-5.18 -3.885,-9.323 -12.172,-9.323 -5.697,0 -11.653,2.331 -15.019,4.532 z" style="fill:none;stroke:#ffffff;stroke-width:7;stroke-linecap:butt;stroke-linejoin:miter;stroke-miterlimit:10;stroke-dasharray:none;stroke-opacity:1" transform="matrix(1.3333333,0,0,-1.3333333,635.73573,2424.5057)" />
      <path id="path16" d="m 0,0 c -17.35,0 -31.075,-12.301 -31.075,-33.276 0,-19.811 13.077,-32.241 30.039,-32.241 15.15,0 31.205,10.099 31.205,33.277 C 30.169,-13.077 17.998,0 0,0 Z m -0.259,-8.545 c 13.466,0 18.775,-13.467 18.775,-24.084 0,-14.113 -8.158,-24.343 -19.034,-24.343 -11.135,0 -19.033,10.359 -19.033,24.084 0,11.912 5.826,24.343 19.292,24.343 z" style="fill:none;stroke:#ffffff;stroke-width:7;stroke-linecap:butt;stroke-linejoin:miter;stroke-miterlimit:10;stroke-dasharray:none;stroke-opacity:1" transform="matrix(1.3333333,0,0,-1.3333333,745.362,2343.02)" />
      <path id="path17" d="m 0,0 h 11.395 v 37.679 c 0,1.942 0.258,3.884 0.776,5.308 1.942,6.345 7.769,11.654 15.279,11.654 10.747,0 14.502,-8.416 14.502,-18.516 V 0 h 11.394 v 37.42 c 0,21.494 -13.466,26.673 -22.141,26.673 -10.359,0 -17.609,-5.826 -20.717,-11.782 H 10.229 L 9.582,62.669 h -10.1 C -0.129,57.489 0,52.181 0,45.707 Z" style="fill:none;stroke:#ffffff;stroke-width:7;stroke-linecap:butt;stroke-linejoin:miter;stroke-miterlimit:10;stroke-dasharray:none;stroke-opacity:1" transform="matrix(1.3333333,0,0,-1.3333333,804.75,2428.4771)" />
      </g></svg>