<?xml version='1.0' encoding='utf-8'?>
<svg xmlns="http://www.w3.org/2000/svg" version="1.1" width="3146.443" height="4500.567" viewBox="18.694 -0.707 3146.443 4500.567"><defs id="defs1"><clipPath clipPathUnits="userSpaceOnUse" id="clipPath12">
      <path d="M -815.84035,2308.9861 H 1568.0997 V -1061.404 H -815.84035 Z" id="path12" />
    </clipPath>
    <clipPath clipPathUnits="userSpaceOnUse" id="clipPath16">
      <path d="M -273.766,2693.9781 H 2110.1741 V -676.41199 H -273.766 Z" id="path16" />
    </clipPath>
    <clipPath clipPathUnits="userSpaceOnUse" id="clipPath20">
      <path d="M -1319.4871,2707.3524 H 1064.453 V -663.03769 h -2383.9401 z" id="path20" />
    </clipPath>
  </defs><g id="object"><path id="path3" d="m 0,0 c 15.318,-89.168 21.063,-179.319 27.072,-269.372 6.01,-90.067 12.392,-180.145 4.341,-270.585 -7.83,-87.959 -13.055,-176.143 -20.325,-264.155 -5.198,-62.939 -1.196,-125.343 4.848,-188.05 8.282,-85.941 12.964,-172.216 19.939,-258.288 5.756,-71.039 17.131,-141.607 17.828,-213.08 0.364,-37.224 -3.874,-74.373 1.048,-111.725 3.317,-25.162 15.178,-43.112 37.023,-54.377 49.24,-25.39 99.979,-38.068 156.457,-24.554 86.421,20.677 161.798,-5.757 228.533,-60.31 63.487,-51.897 110.265,-117.687 154.965,-185.087 22.842,-34.442 46.561,-68.355 68.284,-103.476 34.958,-56.52 -6.595,-138.388 -71.567,-143.164 -18.371,-1.35 -33.579,5.33 -48.014,15.191 -31.329,21.402 -55.979,49.656 -81.055,77.472 -27.707,30.735 -52.62,63.962 -83.341,92 -7.637,6.969 -15.71,16.953 -27.158,12.295 -11.576,-4.71 -13.119,-17.511 -13.903,-28.556 -1.179,-16.602 3.712,-32.409 9.655,-47.73 28.539,-73.573 48.403,-149.272 57.701,-227.616 0.379,-3.188 1.715,-6.265 2.605,-9.394 3.613,-47.014 17.347,-92.193 25.683,-138.353 10.325,-57.179 21.866,-114.2 19.49,-172.746 -1.21,-29.808 -12.835,-54.32 -42.957,-63.866 -29.413,-9.321 -49.308,9.638 -65.656,29.797 -34.889,43.02 -56.494,92.209 -64.28,147.091 -7.335,51.709 -7.968,104.15 -17.436,155.565 -0.996,12.915 -4.987,25.143 -10.58,36.731 -9.13,18.915 -20.088,19.582 -34.25,2.609 -15.909,-17.653 -22.699,-39.581 -28.655,-61.652 -21.756,-80.623 -26.093,-163.755 -35.682,-246.133 -6.039,-51.886 -10.584,-104.056 -27.144,-154.133 -3.489,-10.551 -7.051,-20.777 -17.373,-27.508 -41.026,-26.75 -99.15,0.092 -103.233,47.741 -7.966,92.968 6.882,185.309 7.791,278.055 0.397,40.456 12.666,80.087 12.738,120.795 0.024,13.696 -0.018,27.611 -11.875,37.759 -4.551,10.336 -12.823,17.59 -21.596,24.039 -18.044,13.264 -31.052,11.009 -46.091,-7.164 -18.924,-23.897 -24.843,-52.135 -22.101,-80.978 4.178,-43.935 2.007,-87.546 -2.105,-131.095 -4.914,-52.053 -12.374,-103.862 -35.25,-151.871 -16.366,-34.348 -36.65,-46.998 -69.027,-44.727 -32.589,2.284 -53.405,19.458 -64.441,54.352 -9.389,29.689 -10.044,60.437 -9.307,91.2 1.254,52.303 9.161,104.043 13.652,156.07 2.833,32.803 10.221,65.68 2.241,98.786 1.528,13.797 -4.352,25.343 -11.686,36.27 -7.669,11.426 -17.118,12.561 -24.935,0.979 -10.862,-16.092 -19.085,-33.648 -23.196,-52.805 -4.927,-10.609 -9.316,-21.503 -14.873,-31.778 -25.679,-47.488 -42.007,-96.62 -37.224,-151.929 2.423,-28.017 -4.963,-55.925 -17.632,-81.624 -16.395,-33.26 -42.986,-42.434 -77.152,-29.279 -39.076,15.046 -48.765,47.076 -46.485,82.561 4.559,70.939 2.798,142.361 15.001,212.77 14.972,40.511 33.177,79.638 51.888,118.546 26.515,55.133 45.169,111.494 31.202,173.915 -3.552,15.875 -4.33,32.382 -6.042,48.633 -8.605,81.663 15.609,147.176 93.907,185.845 31.703,15.657 48.348,39.54 43.309,75.785 -0.897,6.452 -0.354,13.087 -0.962,19.593 -10.832,115.893 -21.845,231.77 -32.603,347.67 -12.937,139.378 -26.314,278.734 -29.99,418.757 -2.799,106.585 -2.753,213.256 -11.543,319.642 -10.127,122.57 -22.06,244.972 -48.754,365.259 -14.973,67.469 -38.44,133.219 -38.762,203.387 z" style="fill:#1f1f1d;fill-opacity:1;fill-rule:nonzero;stroke:none" transform="matrix(1.3333333,0,0,-1.3333333,688.0972,5.2930667)" />
      <path id="path4" d="m 0,0 c 1.983,16.812 5.519,33.609 5.68,50.438 0.711,74.038 32.06,137.785 66.296,200.946 25.232,46.55 54.782,91.253 69.045,142.887 8.41,30.445 12.466,61.614 5.443,93.111 -2.586,11.599 -5.74,24.45 -18.933,27.557 -12.892,3.037 -20.134,-8.44 -26.982,-16.761 C 79.619,472.747 64.115,443.745 46.989,415.816 39.462,403.541 30.352,392.128 23.719,379.425 12.947,358.794 -5.168,352.16 -26.568,350.171 c -31.935,-2.968 -53.631,13.935 -57.596,45.691 -7.071,56.639 6.843,109.468 33.771,158.632 58.952,107.634 145.781,184.451 262.916,226.145 35.765,12.73 74.423,8.189 110.999,16.998 28.939,6.97 57.627,14.016 84.045,28.3 24.389,13.187 35.955,33.073 36.409,60.525 0.422,25.598 -1.247,51.003 -4.023,76.377 -6.079,55.556 -3.048,111.129 0.367,166.608 6.155,99.985 5.906,200.096 7.516,300.174 0.915,56.847 9.102,113.673 1.675,170.543 -12.866,98.52 -26.475,196.945 -39.322,295.467 -14.636,112.248 -26.047,224.742 -21.949,338.181 0.351,9.728 2.745,19.383 4.19,29.072 h 389.039 c 1.677,-6.776 -1.276,-12.802 -3.021,-19.069 -10.031,-36.035 -16.237,-72.839 -20.23,-109.897 -14.157,-131.376 -7.602,-262.849 1.253,-394.102 10.547,-156.325 9.493,-312.649 4.264,-469.016 -5.009,-149.771 -9.979,-299.576 -18.144,-449.195 -2.991,-54.807 15.928,-87.466 67.713,-108.946 57.446,-23.828 87.425,-71.503 92.393,-133.488 2.574,-32.109 -0.027,-64.092 -2.997,-96.045 -3.582,-38.552 -3.365,-77.044 0.269,-115.62 6.318,-67.076 21.172,-133.25 22.933,-200.735 1.314,-50.316 0.112,-100.697 0.031,-151.049 -1.708,-22.762 -2.715,-45.603 -5.295,-68.269 -3.464,-30.437 -7.01,-61.126 -22.873,-88.381 -12.204,-20.968 -42.984,-36.968 -63.034,-32.964 -25.413,5.076 -31.144,26.55 -35.781,46.69 -4.363,18.947 -4.981,38.739 -7.245,58.033 3.199,67.436 -6.084,134.267 -12.555,201.226 -2.893,29.933 -0.122,60.498 -8.077,89.757 -4.252,15.635 -5.852,39.255 -26.787,38.444 C 725.003,259.511 721.099,237.273 717.82,220.851 704.84,155.835 704.025,89.722 701.241,23.81 c -3.643,-31.094 -6.565,-62.29 -11.103,-93.255 -6.066,-41.388 -12.942,-82.812 -35.083,-119.56 -16.4,-27.221 -37.357,-36.806 -63.831,-32.019 -33.054,5.977 -59.879,30.305 -62.658,58.022 -2.712,27.039 -6.256,54.521 -3.141,82.079 3.595,31.801 6.302,63.701 9.394,95.561 13.653,65.493 21.741,131.437 16.142,198.446 -1.523,18.217 -3.512,36.485 -10.619,53.56 -8.692,20.882 -19.6,23.002 -35.168,7.018 -11.573,-11.883 -19.738,-25.961 -25.692,-41.394 -29.748,-77.102 -31.441,-158.17 -34.703,-239.023 -4.261,-29.098 -8.029,-58.278 -12.89,-87.277 -8.638,-51.536 -17.576,-103.008 -34.747,-152.704 -7.769,-22.486 -22.653,-34.616 -46.54,-35.56 -35.89,-1.418 -67.236,23.65 -73.527,58.483 -3.632,20.111 -3.781,40.271 -1.891,60.605 5.108,54.962 15.497,109.107 25.122,163.376 14.735,65.696 27.321,131.683 24.685,199.446 -0.766,19.709 -4.472,38.999 -15.849,55.846 -21.522,31.873 -52.536,31.685 -69.535,-2.061 C 199.362,173.502 175.664,88.103 157.62,1.018 c -6.722,-15.706 -7.34,-32.789 -11.307,-49.12 -8.153,-33.571 -15.622,-67.485 -37.985,-95.381 C 91.105,-164.968 71,-167.642 47.59,-152.888 20.51,-135.822 8.429,-110.065 3.414,-79.892 -0.995,-53.37 1.031,-26.633 0,0" style="fill:#1f1f1d;fill-opacity:1;fill-rule:nonzero;stroke:none" transform="matrix(1.3333333,0,0,-1.3333333,1842.7559,3022.4719)" />
      <path id="path5" d="m 0,0 c 9.233,0.275 18.333,0.371 27.502,-1.981 31.673,-8.123 31.33,-35.565 33.23,-58.545 3.12,-37.729 -6.323,-75.146 -9.75,-112.732 -2.924,-32.074 -3.294,-63.157 0.197,-95.354 4.916,-45.35 2.484,-91.427 5.13,-137.083 5.72,-98.678 4.629,-197.387 1.622,-296.037 -4.086,-134.02 -3.745,-268.019 -2.379,-402.048 0.052,-5.153 -0.992,-10.319 -1.526,-15.478 h -246.127 c -0.71,20.875 -2.25,41.761 -1.993,62.625 1.48,120.287 0.736,240.569 8.109,360.802 5.442,88.736 -2.633,177.597 -4.974,266.408 -2.219,84.145 -3.052,168.376 4.377,252.597 4.232,47.98 4.655,96.301 9.919,144.36 2.325,21.22 16.509,15.894 28.402,17.787 15.629,2.488 12.867,-8.864 13.102,-17.543 0.474,-17.51 0.638,-35.028 0.929,-52.543 2.266,-19.42 2.885,-39.212 7.248,-58.16 4.637,-20.139 10.367,-41.613 35.78,-46.689 20.05,-4.004 50.83,11.996 63.034,32.964 15.863,27.255 19.409,57.944 22.873,88.381 C -2.714,-45.604 -1.707,-22.763 0,0" style="fill:#fefefd;fill-opacity:1;fill-rule:nonzero;stroke:none" transform="matrix(1.3333333,0,0,-1.3333333,3077.3327,3001.5089)" />
      <path id="path6" d="m 0,0 c -3.88,74.563 -3.058,149.301 0.858,223.643 7.16,135.897 8.135,271.734 5.29,407.663 -0.736,35.187 -2.588,70.466 -3.51,105.592 -2.531,96.427 0.656,192.881 11.05,288.96 1.685,15.582 1.559,31.354 2.292,47.037 0.665,14.209 7.03,20.524 22.363,23.844 51.86,11.23 104.068,18.679 156.954,14.401 42.109,-3.405 58.784,-13.19 59.105,-59.149 0.334,-47.863 -10.334,-94.702 -11.502,-142.166 -1.044,-42.369 2.537,-84.867 4.527,-127.288 1.652,-35.223 3.845,-70.422 6.103,-105.613 0.327,-5.102 -3.033,-12.6 6.428,-13.821 -22.219,-6.782 -45.338,-7.255 -68.202,-8.779 -10.286,-0.685 -13.566,-3.902 -13.393,-13.996 0.771,-45.068 -0.456,-90.204 1.499,-135.212 5.3,-122.055 8.24,-244.173 12.204,-366.265 C 193.569,92.571 191.341,46.046 198.49,0 Z" style="fill:#fefefd;fill-opacity:1;fill-rule:nonzero;stroke:none" transform="matrix(1.3333333,0,0,-1.3333333,1413.2457,4493.8533)" />
      <path id="path7" d="m 0,0 c -3.093,-31.856 -5.8,-63.756 -9.395,-95.557 -3.115,-27.558 0.429,-55.04 3.141,-82.079 2.78,-27.717 29.604,-52.045 62.658,-58.022 26.475,-4.787 47.431,4.798 63.832,32.019 22.14,36.748 29.016,78.171 35.082,119.56 4.538,30.965 7.461,62.161 11.093,93.243 7.054,-4.914 15.681,-6.022 19.079,-17.314 9.902,-32.908 5.825,-65.526 2.39,-98.43 -3.512,-33.652 -11.83,-67.772 -8.934,-100.907 4.95,-56.626 8.894,-113.498 10.207,-170 4.249,-182.86 4.057,-365.826 -2.695,-548.692 -2.366,-64.1 5.532,-127.937 4.615,-191.991 H -7.417 c -3.393,75.675 8.183,151.075 3.871,226.814 -3.039,53.38 2.018,106.728 2.797,160.09 1.291,88.396 0.474,176.82 1.178,265.228 0.092,11.577 -4.337,13.231 -13.97,11.652 -19.542,-3.204 -39.142,-6.08 -59.018,-2.817 7.987,2.418 8.902,8.436 8.446,15.508 -0.841,13.034 -1.713,26.081 -1.953,39.134 -2.173,118.253 0.157,236.328 10.491,354.278 C -51.106,2.716 -52.116,3.778 0,0" style="fill:#fefefd;fill-opacity:1;fill-rule:nonzero;stroke:none" transform="matrix(1.3333333,0,0,-1.3333333,2555.8487,3002.9596)" />
      <path id="path8" d="m 0,0 c 1.031,-26.633 -0.995,-53.37 3.414,-79.892 5.015,-30.173 17.096,-55.93 44.176,-72.996 23.41,-14.754 43.515,-12.08 60.738,9.405 22.363,27.896 29.832,61.81 37.985,95.381 3.967,16.331 4.585,33.414 11.307,49.12 11.1,-2.065 27.508,4.76 28.013,-15.472 0.943,-37.752 1.457,-75.171 -4.637,-113.041 -4.922,-30.586 -11.231,-62.144 -7.638,-93.368 7.993,-69.465 9.18,-139.386 11.095,-208.946 4.653,-169.013 1.802,-338.151 -3.452,-507.191 -1.725,-55.501 1.357,-111.082 -2.94,-166.536 H -0.579 c 5.751,105.418 4.006,210.993 6.712,316.476 2.837,110.553 2.979,221.124 2.134,331.71 -0.117,15.213 -5.243,17.099 -18.13,15.441 -17.463,-2.247 -35.091,-6.508 -52.717,-0.589 4.707,4.941 2.962,11.137 3.056,16.826 2.183,132.592 4.474,265.183 6.02,397.783 0.161,13.846 5.217,19.814 18.115,22.655 C -23.626,-0.644 -11.859,-0.363 0,0" style="fill:#fefefd;fill-opacity:1;fill-rule:nonzero;stroke:none" transform="matrix(1.3333333,0,0,-1.3333333,1842.7559,3022.4719)" />
      <path id="path9" d="m 0,0 c -1.584,103.288 -3.015,206.59 3.626,309.766 7.063,109.741 3.281,219.582 3.924,329.381 0.811,138.656 1.074,277.315 1.604,415.973 0.108,28.137 2.445,30.63 30.831,33.349 5.167,0.495 10.366,0.65 15.55,0.941 -12.204,-70.431 -10.443,-141.852 -15.002,-212.792 -2.28,-35.485 7.409,-67.515 46.485,-82.56 34.166,-13.156 60.756,-3.982 77.152,29.278 12.669,25.699 20.055,53.607 17.632,81.625 -4.783,55.308 11.545,104.44 37.224,151.928 5.556,10.276 9.946,21.169 14.873,31.778 6.051,-6.112 11.159,-13.032 11.574,-21.744 1.488,-31.259 3.708,-62.811 -1.775,-93.663 -6.098,-34.304 -6.638,-68.638 -6.411,-103.13 0.395,-59.968 4.273,-119.784 8.466,-179.587 0.435,-6.205 3.464,-14.419 -6.597,-17.109 -16.795,1.199 -21.833,-5.736 -21.571,-22.872 1.059,-69.287 0.069,-138.601 0.266,-207.904 0.367,-129.462 1.4,-258.925 1.156,-388.385 C 218.973,36.23 224.334,17.98 218.339,0 Z" style="fill:#fefefd;fill-opacity:1;fill-rule:nonzero;stroke:none" transform="matrix(1.3333333,0,0,-1.3333333,26.465333,4493.8533)" />
      <path id="path10" d="m 0,0 c -9.625,-54.27 -20.015,-108.415 -25.122,-163.376 -1.89,-20.335 -1.741,-40.494 1.891,-60.606 6.291,-34.832 37.637,-59.9 73.527,-58.482 23.887,0.943 38.771,13.074 46.54,35.56 17.171,49.696 26.109,101.168 34.747,152.703 4.861,29 8.629,58.179 12.888,87.264 5.535,-12.412 4.565,-25.797 4.218,-38.581 -3.404,-125.407 1.744,-250.643 6.925,-375.881 0.301,-7.285 -3.715,-16.014 5.227,-21.384 -21.819,-5.144 -43.845,-8.689 -66.318,-9.65 -11.957,-0.512 -19.248,-3.125 -18.54,-19.402 4.735,-108.852 7.628,-217.782 11.673,-326.666 3.78,-101.748 8.244,-203.47 12.407,-305.203 h -206.429 c -0.745,130.738 -0.898,261.437 4.964,392.131 3.277,73.083 0.394,146.289 -1.274,219.48 -1.187,52.076 1.83,104.509 2.293,156.783 0.909,102.674 1.33,205.355 1.148,308.032 -0.034,18.863 5.532,27.745 25.891,26.927 C -48.941,-1.331 -24.452,-0.211 0,0" style="fill:#fefefd;fill-opacity:1;fill-rule:nonzero;stroke:none" transform="matrix(1.3333333,0,0,-1.3333333,2243.1639,3022.2473)" />
      <path id="path11" d="m 0,0 c 9.481,-51.471 10.114,-103.913 17.449,-155.622 7.785,-54.882 29.391,-104.07 64.279,-147.091 16.349,-20.159 36.244,-39.118 65.657,-29.797 30.122,9.546 41.746,34.059 42.956,63.866 2.377,58.546 -9.165,115.567 -19.49,172.747 -8.335,46.159 -22.07,91.338 -25.682,138.352 23.792,0.112 47.598,-0.193 71.373,0.503 12.79,0.375 18.892,-3.412 20.105,-17.2 4.2,-47.742 1.615,-94.937 -6.31,-142.188 -4.881,-29.105 -4.83,-59.174 -0.866,-88.081 9.115,-66.462 7.633,-133.179 7.948,-199.744 1.017,-214.516 0.225,-429.039 0.06,-643.56 -0.004,-4.53 -0.864,-9.059 -1.325,-13.589 H 21.786 c 0.262,51.687 8.738,102.819 11.034,154.315 2.838,63.647 1.306,127.532 7.358,191.003 9.773,102.489 10.322,205.313 14.032,308.032 0.328,9.079 -2.577,11.115 -10.979,10.945 -20.406,-0.415 -40.872,-1.952 -61.218,1.197 -0.073,116.451 -2.496,232.933 7.525,349.207 C -9.053,-30.348 -7.269,-14.755 0,0" style="fill:#fefefd;fill-opacity:1;fill-rule:nonzero;stroke:none" transform="matrix(1.3333333,0,0,-1.3333333,1087.7871,3078.6481)" clip-path="url(#clipPath12)" />
      <path id="path13" d="m 0,0 c 7.981,-33.106 0.592,-65.983 -2.24,-98.786 -4.492,-52.027 -12.399,-103.767 -13.652,-156.071 -0.737,-30.763 -0.083,-61.51 9.307,-91.2 11.036,-34.893 31.851,-52.067 64.441,-54.352 32.377,-2.27 52.66,10.38 69.027,44.728 22.875,48.009 30.336,99.818 35.25,151.871 4.111,43.549 6.282,87.16 2.105,131.095 -2.743,28.843 3.176,57.081 22.1,80.977 15.354,-1.706 23.844,-9.824 29.347,-24.584 8.364,-22.43 7.426,-45.097 5.322,-67.71 -5.512,-59.261 -17.465,-117.283 -8.779,-178.265 9.058,-63.584 5.353,-128.758 8.296,-193.222 3.776,-82.742 2.105,-165.854 -1.454,-248.917 -4.31,-100.563 -1.991,-201.396 -3.113,-302.106 -0.363,-32.557 3.941,-65.205 -1.539,-97.681 H 51.656 c 0.18,44.432 3.574,88.694 7.794,132.881 7.371,77.19 1.664,154.813 8.731,232.047 9.364,102.34 6.99,205.17 11.622,307.716 0.581,12.87 -3.066,14.528 -15.656,12.979 -34.501,-4.243 -69.278,-6.293 -103.945,-9.211 0.277,3.91 0.811,7.822 0.793,11.731 -0.579,130.125 -5.947,260.322 7.065,390.24 1.143,11.415 2.587,18.424 15.779,19.303 C -10.651,-6.171 -5.38,-2.285 0,0" style="fill:#fefefd;fill-opacity:1;fill-rule:nonzero;stroke:none" transform="matrix(1.3333333,0,0,-1.3333333,418.086,3021.5556)" />
      <path id="path14" d="m 0,0 c 11.857,-10.148 11.898,-24.063 11.874,-37.759 -0.072,-40.708 -12.341,-80.339 -12.737,-120.795 -0.909,-92.746 -15.758,-185.087 -7.792,-278.055 4.083,-47.649 62.208,-74.491 103.233,-47.741 10.323,6.731 13.884,16.957 17.374,27.508 16.559,50.077 21.104,102.247 27.144,154.133 9.589,82.378 13.926,165.51 35.682,246.132 5.956,22.072 12.746,44 28.646,61.639 18.073,-20.888 19.728,-48.31 16.272,-71.297 -5.147,-34.241 -1.931,-68.99 -10.36,-102.938 -5.48,-22.072 -4.935,-45.895 -1.048,-68.252 11.006,-63.287 3.99,-127.169 8.799,-190.592 -19.39,-5.373 -39.305,-3.963 -58.939,-3.252 -12.272,0.445 -16.006,-2.845 -15.715,-14.998 1.436,-59.974 -1.745,-119.908 -0.843,-179.948 2,-133.131 0.852,-266.306 1.723,-399.458 0.153,-23.282 -3.727,-46.961 3.659,-69.938 H -23.729 c -3.052,18.386 -8.567,36.464 -8.298,55.275 0.568,39.781 2.818,79.499 4.687,119.221 4.486,95.33 4.125,190.877 9.173,286.254 2.839,53.642 -2.497,107.129 -4.595,160.697 -5.768,147.259 6.154,294.342 6.19,441.557 C -16.568,-17.577 -13.892,-6.744 0,0" style="fill:#fefefd;fill-opacity:1;fill-rule:nonzero;stroke:none" transform="matrix(1.3333333,0,0,-1.3333333,756.78707,3033.0384)" />
      <path id="path15" d="m 0,0 c 34.668,2.918 69.444,4.968 103.945,9.211 12.591,1.549 16.237,-0.109 15.656,-12.979 -4.632,-102.545 -2.258,-205.376 -11.622,-307.716 -7.067,-77.233 -1.359,-154.856 -8.731,-232.047 -4.22,-44.187 -7.613,-88.449 -7.793,-132.881 H -35.579 c 5.996,17.98 0.635,36.23 0.669,54.273 0.244,129.46 -0.789,258.923 -1.156,388.385 -0.197,69.303 0.793,138.617 -0.266,207.904 -0.262,17.136 4.776,24.071 21.48,22.878 C -9.377,-4.864 -4.756,-2.099 0,0" style="fill:#1f1f1d;fill-opacity:1;fill-rule:nonzero;stroke:none" transform="matrix(1.3333333,0,0,-1.3333333,365.02133,3591.9707)" clip-path="url(#clipPath16)" />
      <path id="path17" d="m 0,0 c -7.386,22.978 -3.506,46.656 -3.659,69.938 -0.871,133.152 0.277,266.327 -1.723,399.458 -0.902,60.04 2.279,119.975 0.843,179.949 -0.291,12.152 3.443,15.442 15.715,14.997 19.634,-0.711 39.549,-2.121 58.955,3.253 4.398,-0.7 8.779,-1.402 13.16,-2.103 20.346,-3.149 40.811,-1.612 61.218,-1.197 8.402,0.17 11.307,-1.866 10.979,-10.946 -3.711,-102.718 -4.259,-205.542 -14.032,-308.031 -6.052,-63.471 -4.52,-127.356 -7.358,-191.004 C 131.802,102.819 123.326,51.687 123.064,0 Z" style="fill:#1f1f1d;fill-opacity:1;fill-rule:nonzero;stroke:none" transform="matrix(1.3333333,0,0,-1.3333333,952.75,4493.8533)" />
      <path id="path18" d="m 0,0 c -4.163,101.734 -8.628,203.456 -12.408,305.203 -4.044,108.885 -6.938,217.814 -11.672,326.667 -0.709,16.276 6.582,18.89 18.539,19.401 22.474,0.961 44.5,4.507 66.304,9.65 -0.014,0 1.128,0.046 1.128,0.046 19.876,-3.263 39.476,-0.386 59.018,2.818 9.633,1.579 14.062,-0.076 13.97,-11.653 -0.704,-88.407 0.113,-176.832 -1.178,-265.228 -0.779,-53.362 -5.836,-106.71 -2.797,-160.09 C 135.216,151.076 123.64,75.675 127.033,0 Z" style="fill:#1f1f1d;fill-opacity:1;fill-rule:nonzero;stroke:none" transform="matrix(1.3333333,0,0,-1.3333333,2376.5819,4493.8533)" />
      <path id="path19" d="M 0,0 C 17.626,-5.919 35.254,-1.658 52.717,0.589 65.604,2.247 70.73,0.362 70.846,-14.851 71.692,-125.438 71.55,-236.009 68.713,-346.562 66.006,-452.045 67.752,-557.619 62,-663.038 H -61.063 c -7.149,46.046 -4.921,92.571 -6.424,138.851 -3.964,122.092 -6.904,244.21 -12.204,366.266 -1.954,45.007 -0.728,90.143 -1.499,135.212 -0.173,10.093 3.107,13.31 13.394,13.995 22.864,1.524 45.983,1.998 68.201,8.78 C 0.409,0.067 0,0 0,0" style="fill:#1f1f1d;fill-opacity:1;fill-rule:nonzero;stroke:none" transform="matrix(1.3333333,0,0,-1.3333333,1759.3161,3609.8031)" clip-path="url(#clipPath20)" />
      <path id="path21" d="m 0,0 c 0,18.267 -0.091,36.534 0.055,54.799 0.044,5.515 -1.857,12.57 7.412,12.991 9.09,0.413 8.523,-6.067 8.529,-12.051 0.037,-35.912 -0.139,-71.827 0.287,-107.735 0.084,-7.106 -2.518,-11.221 -8.864,-12.995 -8.955,-2.505 -7.092,5.914 -8.525,9.697 -7.485,19.756 -14.267,39.772 -23.414,59.475 -5.457,-16.901 -2.184,-34.024 -3.199,-50.857 -0.383,-6.342 3.679,-15.99 -8.76,-15.372 -10.741,0.533 -7.141,9.242 -7.267,14.933 -0.753,33.944 -1.152,67.896 -1.493,101.848 -0.054,5.393 -2.588,12.171 6.819,13.454 8.476,1.156 13.245,-0.957 15.886,-9.916 C -16.7,38.475 -9.645,19.032 -3.089,-0.555 -2.059,-0.37 -1.03,-0.185 0,0" style="fill:#1f1f1d;fill-opacity:1;fill-rule:nonzero;stroke:none" transform="matrix(1.3333333,0,0,-1.3333333,1492.762,597.44907)" />
      <path id="path22" d="m 0,0 c 7.55,14.937 13.84,26.832 19.588,38.979 2.98,6.297 7.327,8.776 14.133,7.662 7.743,-1.266 6.293,-7.202 6.292,-12.187 -0.006,-35.288 -0.115,-70.575 -0.208,-105.863 -0.016,-6.064 0,-12.292 -8.616,-12.461 -10.121,-0.198 -7.02,7.298 -7.047,12.553 -0.135,25.992 -0.062,51.985 -0.062,83.17 -5.956,-12.179 -9.966,-20.497 -14.09,-28.759 -2.007,-4.019 -3.479,-8.423 -9.226,-9.062 -7.27,-0.808 -8.582,4.84 -10.908,9.285 -3.925,7.5 -7.569,15.143 -14.116,28.341 0,-31.056 -0.452,-56.377 0.295,-81.662 0.205,-6.945 3.01,-13.563 -7.489,-13.532 -8.637,0.025 -8.324,6.6 -8.392,12.619 -0.396,35.285 -0.854,70.569 -1.158,105.854 -0.043,4.927 -1.487,11.031 6.602,11.66 5.578,0.434 10.336,-0.324 13.24,-6.072 C -14.765,27.862 -8.048,15.358 0,0" style="fill:#1f1f1d;fill-opacity:1;fill-rule:nonzero;stroke:none" transform="matrix(1.3333333,0,0,-1.3333333,1239.7819,569.22187)" />
      <path id="path23" d="m 0,0 c -0.185,4.717 -1.074,10.873 -6.051,10.813 -7.044,-0.085 -9.206,-6.763 -9.004,-12.923 0.174,-5.293 2.068,-11.614 8.696,-10.591 C -0.296,-11.766 0.132,-5.403 0,0 m 4.105,-59.125 c -4.044,7.875 0.473,24.321 -12.075,24.31 -11.394,-0.009 -11.35,-15.442 -11.386,-25.686 -0.032,-9.042 0.561,-22.381 10.281,-22.771 12.745,-0.512 9.91,14.005 13.18,24.147 m -39.452,5.91 c 0.74,3.348 1.317,11.425 4.387,18.434 3.649,8.331 3.929,15.247 0.726,24.052 -4.766,13.102 -2.575,26.252 10.147,34.742 7.932,5.294 17.229,7.404 25.746,0.655 11.727,-9.293 14.522,-22.251 9.586,-35.192 -3.823,-10.022 -3.183,-18.086 0.373,-27.779 5.521,-15.052 5.263,-30.802 -0.375,-46.055 -3.856,-10.431 -10.476,-19.091 -22.546,-18.9 -10.753,0.17 -17.59,7.44 -21.976,17.151 -4.122,9.125 -6.083,18.534 -6.068,32.892" style="fill:#1f1f1d;fill-opacity:1;fill-rule:nonzero;stroke:none" transform="matrix(1.3333333,0,0,-1.3333333,1577.5787,295.53013)" />
      <path id="path24" d="m 0,0 c 0,-13.694 -0.319,-27.399 0.131,-41.079 0.234,-7.117 0.078,-13.476 -8.917,-14.091 -10.638,-0.727 -5.943,8.075 -6.305,12.269 -1.343,15.583 -1.132,31.291 -2.219,46.904 -0.387,5.561 3.449,15.027 -7.337,14.687 -9.607,-0.302 -7.319,-9.226 -7.973,-15.194 -1.704,-15.563 -3.275,-31.156 -4.256,-46.776 -0.444,-7.074 -2.405,-11.011 -10.372,-10.355 -8.707,0.716 -6.377,6.929 -5.937,11.621 2.925,31.16 5.553,62.367 9.527,93.401 1.504,11.74 6.285,24.212 21.181,24.449 16.302,0.26 17.755,-13.587 18.955,-25.059 1.761,-16.83 1.83,-33.833 2.619,-50.762 C -0.602,0.01 -0.301,0.005 0,0" style="fill:#1f1f1d;fill-opacity:1;fill-rule:nonzero;stroke:none" transform="matrix(1.3333333,0,0,-1.3333333,1208.8155,856.09227)" />
      <path id="path25" d="m 0,0 c -0.45,10.11 0.834,22.621 -4.476,34.375 -1.948,4.314 -4.218,8.732 -9.648,8.393 -4.162,-0.259 -7.033,-3.674 -8.367,-7.461 -9.01,-25.578 -9.409,-51.173 1.741,-76.174 4.224,-9.472 10.081,-9.538 14.823,0.285 C -0.039,-28.386 -0.387,-15.248 0,0 m -45.921,0.382 c 0.533,15.216 2.067,32.133 11.672,47.084 5.612,8.735 13.327,15.119 24.294,14.193 C 0.503,60.776 6.149,52.904 9.299,43.969 20.56,12.026 20.089,-20.087 6.753,-51.132 c -8.597,-20.011 -27.276,-20.914 -39.819,-2.911 -10.989,15.775 -12.719,34.019 -12.855,54.425" style="fill:#1f1f1d;fill-opacity:1;fill-rule:nonzero;stroke:none" transform="matrix(1.3333333,0,0,-1.3333333,1382.9028,591.77453)" />
      <path id="path26" d="m 0,0 c -4.718,-16.311 -7.903,-26.633 -10.638,-37.072 -1.361,-5.195 -3.362,-8.624 -9.427,-6.28 -4.654,1.8 -8.034,4.562 -6.465,10.304 2.404,8.793 3.853,17.97 7.329,26.323 10.246,24.622 6.556,47.96 -3.998,71.424 -3.082,6.852 -10.767,17.352 2.365,21.07 11.971,3.388 8.29,-10.51 12.551,-15.977 2.694,-3.456 3.675,-8.218 5.915,-13.565 6.798,6.881 7.131,15.369 9.321,22.734 2.154,7.245 6.086,9.652 12.905,8.219 9.082,-1.907 4.948,-8.539 2.961,-12.194 C 3.975,40.328 11.385,7.724 29.229,-24.605 32.075,-29.762 39.198,-36.994 27.111,-41.667 15.629,-46.105 15.538,-36.762 12.828,-30.892 9.022,-22.653 5.823,-14.139 0,0" style="fill:#1f1f1d;fill-opacity:1;fill-rule:nonzero;stroke:none" transform="matrix(1.3333333,0,0,-1.3333333,1947.3153,623.12573)" />
      <path id="path27" d="m 0,0 c 10.297,18.063 7.739,36.057 9.063,53.068 1.263,16.223 -0.218,32.654 -0.47,48.994 -0.071,4.599 -0.563,9.414 6.096,10.183 7.917,0.914 8.14,-4.356 8.501,-9.853 1.973,-30.046 3.141,-60.099 -0.989,-90.05 -1.249,-9.057 -3.405,-18.14 -11.68,-23.995 -10.941,-7.742 -21.874,-7.777 -27.215,5.301 -14.884,36.443 -7.085,74.883 -8.033,112.54 -0.132,5.246 4.223,5.779 8.398,5.878 6.757,0.159 6.934,-4.434 6.911,-9.231 C -9.523,80.607 -10.045,58.37 -9.536,36.156 -9.274,24.712 -10.528,12.545 0,0" style="fill:#1f1f1d;fill-opacity:1;fill-rule:nonzero;stroke:none" transform="matrix(1.3333333,0,0,-1.3333333,1849.0624,657.27267)" />
      <path id="path28" d="m 0,0 c -4.356,-7.877 -8.421,-13.922 -3.72,-20.956 0.737,-1.105 5.956,-1.147 6.762,-0.029 C 7.759,-14.435 6.147,-8.009 0,0 m 23.352,-60.357 c 0,-13.727 -0.059,-27.455 0.031,-41.182 0.034,-5.22 1.284,-10.873 -6.586,-11.706 -9.39,-0.993 -8.719,5.646 -8.937,11.513 -0.633,16.991 -1.114,33.988 -1.83,50.976 -0.178,4.205 1.389,9.766 -5.824,10.15 -7.188,0.383 -8.722,-4.376 -9.226,-10.029 -1.51,-16.932 -3.076,-33.859 -4.484,-50.799 -0.501,-6.025 -0.296,-11.897 -9.305,-11.6 -10.202,0.337 -7.302,7.326 -6.832,12.571 2.802,31.243 5.156,62.557 9.265,93.639 1.535,11.607 7.325,23.787 22.213,23.439 14.933,-0.348 16.869,-13.02 17.945,-24.117 1.701,-17.546 2.155,-35.21 3.138,-52.823 0.144,-0.011 0.288,-0.021 0.432,-0.032" style="fill:#1f1f1d;fill-opacity:1;fill-rule:nonzero;stroke:none" transform="matrix(1.3333333,0,0,-1.3333333,2013.8784,777.05227)" />
      <path id="path29" d="M 0,0 C 13.021,8.878 15.088,18.89 15.842,29.312 16.147,33.534 17.681,39.544 11.2,40.347 4.082,41.23 0.308,36.576 0.075,29.778 -0.231,20.848 0,11.9 0,0 m 0.292,-22.109 c 0,-14.266 0.057,-28.533 -0.033,-42.798 -0.03,-4.55 0.251,-9.439 -6.526,-9.866 -7.044,-0.443 -9.247,3.46 -9.286,9.546 -0.24,37.161 -0.519,74.322 -0.624,111.484 -0.006,2.446 0.689,6.531 2.14,7.086 11.839,4.531 23.512,-2.745 35.875,-1.048 5.281,0.726 8.895,-9.204 8.857,-15.776 -0.044,-7.702 0.51,-16.978 -3.398,-22.815 -16.448,-24.568 -5.398,-46.907 2.744,-70.095 1.777,-5.061 11.803,-12.713 -0.596,-17.117 -11.172,-3.968 -10.82,6.652 -13.101,12.527 -5.058,13.021 -9.311,26.348 -13.891,39.551 -0.721,-0.226 -1.441,-0.453 -2.161,-0.679" style="fill:#1f1f1d;fill-opacity:1;fill-rule:nonzero;stroke:none" transform="matrix(1.3333333,0,0,-1.3333333,1662.6056,581.1932)" />
      <path id="path30" d="m 0,0 c 5.689,20.816 14.549,39.348 13.686,59.807 -0.219,5.172 4.338,10.558 12.087,9.605 8.479,-1.042 6.399,-6.67 5.609,-11.632 -5.525,-34.711 -10.951,-69.439 -16.957,-104.069 -0.943,-5.433 1.043,-13.703 -9.584,-14.037 -10.183,-0.32 -9.669,7.448 -11.074,13.064 -8.38,33.489 -16.311,67.088 -24.355,100.659 -1.53,6.384 -3.916,13.265 5.887,15.354 9.42,2.007 8.773,-5.717 10.127,-10.905 C -9.554,38.605 -4.833,19.288 0,0" style="fill:#1f1f1d;fill-opacity:1;fill-rule:nonzero;stroke:none" transform="matrix(1.3333333,0,0,-1.3333333,1915.8899,847.19027)" />
      <path id="path31" d="m 0,0 c 10.174,0 16.719,-0.05 23.262,0.015 5.853,0.058 7.836,-3.245 8.568,-8.493 0.969,-6.948 -3.408,-7.312 -8.324,-7.412 -0.66,-0.014 -1.325,0.017 -1.981,-0.04 -42.943,-3.754 -44.761,-1.508 -31.731,38.778 6.433,19.89 12.011,40.09 19.378,59.632 4.714,12.503 0.409,15.208 -11.016,14.055 -3.93,-0.396 -7.916,-0.292 -11.877,-0.332 -4.663,-0.048 -7.478,1.941 -7.423,6.903 0.049,4.479 1.746,7.51 6.792,7.697 13.601,0.506 27.23,1.792 40.795,1.312 10.67,-0.378 5.585,-8.419 4.165,-13.131 C 20.85,66.593 10.671,34.325 0,0" style="fill:#1f1f1d;fill-opacity:1;fill-rule:nonzero;stroke:none" transform="matrix(1.3333333,0,0,-1.3333333,1259.5163,906.29413)" />
      <path id="path32" d="m 0,0 c 0,16.954 -0.003,33.909 0.002,50.863 0.001,5.84 -0.942,13.087 7.567,13.117 11.464,0.041 25.298,6.222 33.768,-2.985 6.434,-6.993 -2.231,-10.234 -9.681,-10.835 -7,-0.565 -17.855,3.341 -16.372,-9.966 1.006,-9.024 -7.015,-24.262 13.53,-22.283 4.522,0.436 6.802,-2.878 6.995,-7.557 C 36.026,5.11 34.651,0.518 28.669,1.086 13.945,2.484 15.174,-7.065 15.431,-16.399 c 0.162,-5.864 0.578,-11.8 -0.104,-17.591 -1.295,-11.002 2.636,-15.619 14.201,-14.189 5.317,0.657 12.695,2.574 13.212,-6.853 0.585,-10.684 -7.514,-8.427 -13.682,-8.781 -4.601,-0.264 -9.292,0.322 -13.823,-0.314 -12.263,-1.721 -16.17,3.154 -15.407,15.235 1.026,16.239 0.254,32.59 0.254,48.892 z" style="fill:#1f1f1d;fill-opacity:1;fill-rule:nonzero;stroke:none" transform="matrix(1.3333333,0,0,-1.3333333,1561.8575,842.01213)" />
      <path id="path33" d="m 0,0 c -7.011,16.121 -14.256,32.831 -21.544,49.521 -4.768,10.919 -7.94,22.023 -5.438,34.122 1.883,9.104 8.252,13.742 16.631,14.071 C -0.502,98.1 7.067,92.554 12.198,84.267 14.221,81 12.435,78.121 10.218,75.49 7.288,72.013 2.744,70.554 -0.225,73.014 c -3.194,2.648 -4.402,9.434 -9.992,5.301 -5.279,-3.903 -1.761,-9.855 0.144,-14.387 C -3.76,48.911 3.122,34.129 9.757,19.244 14.654,8.256 17.326,-3.137 13.653,-14.931 11.213,-22.768 6.003,-28.755 -2.71,-30.04 c -8.625,-1.273 -15.439,2.641 -20.55,9.222 -3.972,5.115 -5.32,10.187 1.024,15.167 6.084,4.776 8.917,2.763 11.22,-3.559 1.228,-3.373 4.885,-5.827 7.497,-2.915 C -1.228,-9.571 -1.297,-4.944 0,0" style="fill:#1f1f1d;fill-opacity:1;fill-rule:nonzero;stroke:none" transform="matrix(1.3333333,0,0,-1.3333333,1681.1556,886.1268)" />
      <path id="path34" d="m 0,0 c -25.373,-0.328 -25.199,-0.384 -17.144,24.394 7.862,24.186 14.705,48.714 23.208,72.671 4.406,12.41 2.17,17.114 -11.35,15.121 -3.241,-0.478 -6.575,-0.358 -9.867,-0.469 -5.718,-0.192 -8.467,2.496 -8.34,8.225 0.114,5.127 3.377,6.589 7.72,6.7 12.527,0.318 25.063,0.89 37.584,0.682 11.861,-0.197 7.426,-8.191 5.678,-13.899 C 19.1,86.02 10.664,58.622 1.669,31.408 c -3.867,-11.7 -3.337,-18.62 11.847,-15.917 3.173,0.565 6.599,0.312 9.826,-0.137 C 28.48,14.64 28.614,10.383 29.054,6.475 29.678,0.93 26.041,0.051 21.766,0.016 14.511,-0.043 7.255,0 0,0" style="fill:#1f1f1d;fill-opacity:1;fill-rule:nonzero;stroke:none" transform="matrix(1.3333333,0,0,-1.3333333,1358.7337,927.33187)" />
      <path id="path35" d="m 0,0 c 0.002,15.024 1.143,30.156 -0.313,45.041 -1.51,15.435 4.82,19.841 18.975,17.975 4.535,-0.598 9.233,0.128 13.847,-0.029 4.454,-0.151 9.806,0.737 10.451,-5.933 0.683,-7.062 -3.7,-8.33 -9.733,-9.138 C 26.043,46.953 14.265,52.539 15.159,37.5 15.766,27.29 10.995,13.74 30.198,15.625 c 5.2,0.511 5.403,-4.438 5.458,-8.518 0.066,-4.9 -2.593,-6.443 -7.129,-7.373 -26.712,-5.476 -8.991,-25.902 -12.43,-38.985 -3.69,-14.037 8.762,-10.522 16.816,-10.41 4.779,0.067 9.573,0.044 9.935,-6.454 0.363,-6.527 -2.984,-9.566 -9.463,-9.6 -5.28,-0.028 -10.632,0.356 -15.826,-0.351 C 3.955,-67.917 -1.357,-63.117 -0.287,-48.97 0.941,-32.73 -0.002,-16.33 0,0" style="fill:#1f1f1d;fill-opacity:1;fill-rule:nonzero;stroke:none" transform="matrix(1.3333333,0,0,-1.3333333,1731.2013,592.1528)" />
      <path id="path36" d="m 0,0 c 0,-32.522 0.147,-65.819 -0.142,-99.112 -0.049,-5.65 3.491,-14.135 -7.484,-14.64 -12.798,-0.589 -8.487,9.196 -8.697,15.259 -0.541,15.625 -0.826,31.314 0.031,46.91 0.627,11.399 -2.032,17.722 -14.947,15.495 -13.745,-2.371 -19.148,3.129 -17.583,17.009 1.016,9.007 0.188,18.227 0.045,27.35 -0.103,6.545 4.261,7.094 9.203,7.071 4.937,-0.024 6.894,-2.487 6.756,-7.31 -0.206,-7.162 -0.152,-14.336 -0.023,-21.501 0.081,-4.503 2.103,-7.138 7.19,-7.165 5.296,-0.028 9.066,1.189 9.08,7.336 0.01,4.562 -0.24,9.16 0.251,13.675 0.677,6.228 -3.762,15.859 8.701,15.287 C 3.557,15.151 -2.131,6.105 0,0" style="fill:#1f1f1d;fill-opacity:1;fill-rule:nonzero;stroke:none" transform="matrix(1.3333333,0,0,-1.3333333,1508.8479,281.36867)" />
      <path id="path37" d="M 0,0 C -0.007,16.978 -0.039,33.957 0.01,50.935 0.027,56.724 -1.025,63.896 7.584,64.126 19.14,64.435 32.627,69.503 41.648,61.801 47.28,56.993 40.815,50.57 32.244,50.335 24.293,50.117 13.66,52.993 15.135,38.687 16.103,29.302 10.742,16.038 29.167,18.167 34.079,18.735 35.834,15.198 35.903,10.644 35.977,5.695 35.424,0.706 29.034,1.223 12.73,2.542 15.421,-8.617 15.411,-18.168 c -0.012,-11.755 -0.032,-23.509 -0.019,-35.263 0.007,-5.525 -0.175,-10.632 -8.04,-10.459 -8.13,0.178 -7.291,5.887 -7.314,10.995 C -0.043,-35.263 0.007,-17.632 0,0" style="fill:#1f1f1d;fill-opacity:1;fill-rule:nonzero;stroke:none" transform="matrix(1.3333333,0,0,-1.3333333,1481.6805,842.118)" />
      <path id="path38" d="m 0,0 c 0.26,-17.515 3.129,-35.125 -0.547,-52.567 -2.319,-11.002 -9.306,-16.803 -20.327,-18.094 -9.636,-1.128 -18.682,-0.001 -24.288,9.047 -2.243,3.62 -5.701,8.153 -0.461,12.022 3.772,2.785 7.14,3.123 12.054,-0.329 13.366,-9.39 18.881,-6.539 19.151,10.203 0.44,27.33 -0.372,54.678 -0.393,82.019 -0.004,5.95 -2.616,14.462 8.147,14.046 C 2.876,55.979 -0.23,48.152 -0.112,42.95 0.212,28.64 0,14.318 0,0" style="fill:#1f1f1d;fill-opacity:1;fill-rule:nonzero;stroke:none" transform="matrix(1.3333333,0,0,-1.3333333,1108.9123,833.2772)" />
      <path id="path39" d="m 0,0 c 0,11.1 0.162,22.202 -0.044,33.298 -0.224,12.116 4.947,27.877 -17.57,25.342 -5.083,-0.572 -5.647,4.4 -5.561,8.491 0.11,5.232 3.711,6.35 8.008,6.329 14.511,-0.074 29.022,-0.242 43.534,-0.351 4.446,-0.034 7.709,-1.581 8.263,-6.403 0.676,-5.88 -2.457,-8.911 -8.03,-8.21 -12.975,1.633 -13.243,-6.108 -13.097,-15.497 0.448,-28.724 0.534,-57.456 0.466,-86.185 -0.012,-5.227 2.72,-12.596 -6.843,-13.28 C -1.91,-57.255 0.488,-49.133 0.402,-43.093 0.197,-28.731 0.336,-14.365 0.336,0 0.224,0 0.112,0 0,0" style="fill:#1f1f1d;fill-opacity:1;fill-rule:nonzero;stroke:none" transform="matrix(1.3333333,0,0,-1.3333333,1751.4464,852.18667)" />
      <path id="path40" d="m 0,0 c 0,-14.977 0.129,-29.956 -0.069,-44.931 -0.071,-5.365 -0.924,-11.131 -8.275,-10.888 -8.465,0.28 -5.999,7.158 -6.068,11.798 -0.418,28.091 -0.672,56.186 -0.656,84.28 0.003,4.658 -2.067,11.589 5.918,12.19 9.959,0.749 7.05,-7.297 7.49,-12.506 0.59,-6.968 -0.841,-14.056 10.133,-14.995 7.496,-0.641 10.688,-8.163 11.151,-14.58 1.409,-19.519 1.81,-39.113 2.426,-58.684 0.131,-4.17 -1.219,-7.668 -6.52,-7.803 -6.877,-0.175 -6.811,4.718 -7.067,9.318 C 7.599,-31.333 10.022,-15.594 0,0" style="fill:#1f1f1d;fill-opacity:1;fill-rule:nonzero;stroke:none" transform="matrix(1.3333333,0,0,-1.3333333,1702.262,358.74333)" />
      <path id="path41" d="m 0,0 c 3.292,0 6.686,0.514 9.854,-0.105 6.975,-1.362 18.068,5.041 19.96,-6.03 1.968,-11.516 -9.367,-7.55 -15.578,-8.881 -8.76,-1.877 -6.428,-8.671 -6.401,-14.064 0.145,-28.66 0.745,-57.319 0.741,-85.978 0,-5.757 3.151,-14.702 -7.218,-15.055 -11.673,-0.397 -8.731,9.252 -8.832,15.747 -0.435,28.005 -0.585,56.018 -0.548,84.027 0.011,8.296 0.6,16.263 -11.605,15.109 -6.237,-0.59 -10.378,1.503 -9.954,8.541 0.491,8.168 7.033,6.153 11.813,6.459 5.9,0.377 11.843,0.09 17.768,0.09 z" style="fill:#1f1f1d;fill-opacity:1;fill-rule:nonzero;stroke:none" transform="matrix(1.3333333,0,0,-1.3333333,1578.2752,506.6268)" />
      <path id="path42" d="m 0,0 c 0.028,17.608 0.11,35.216 -0.02,52.823 -0.042,5.757 0.843,10.836 7.902,11.042 8.311,0.243 6.883,-6.391 6.907,-11.23 0.145,-28.041 0.565,-56.097 -0.206,-84.118 -0.334,-12.13 2.166,-18.553 16.091,-17.121 5.477,0.562 14.42,3.911 15.031,-6.9 0.688,-12.168 -8.874,-8.699 -15.326,-8.91 -30.4,-0.993 -30.404,-0.882 -30.407,29.198 -0.001,11.739 0,23.477 0.028,35.216" style="fill:#1f1f1d;fill-opacity:1;fill-rule:nonzero;stroke:none" transform="matrix(1.3333333,0,0,-1.3333333,2068.2928,841.39827)" />
      <path id="path43" d="m 0,0 c 7.876,21.267 3.849,42.923 5.37,64.165 0.392,5.475 -2.166,14.395 5.849,14.266 8.236,-0.133 5.084,-9.133 5.186,-14.435 0.403,-20.941 0.293,-41.892 0.402,-62.838 0.038,-7.411 3.516,-16.049 -9.519,-17.012 -11.017,-0.814 -18.787,2.712 -20.511,13.434 -1.965,12.218 -2.42,24.73 -2.745,37.135 -0.291,11.108 0.379,22.247 0.848,33.363 0.181,4.281 -1.162,10.704 5.436,10.53 6.307,-0.167 5.346,-6.226 5.125,-10.749 C -5.674,45.024 -7.023,22.182 0,0" style="fill:#1f1f1d;fill-opacity:1;fill-rule:nonzero;stroke:none" transform="matrix(1.3333333,0,0,-1.3333333,1559.5193,1154.5893)" />
      <path id="path44" d="m 0,0 c 6.744,-9.16 1.712,-21.1 12.636,-28.716 9.386,22.551 7.547,43.833 0.122,66.805 C 1.427,30.53 5.178,20.294 2.806,12.088 1.871,8.853 1.135,5.498 -3.177,5.896 c -4.146,0.382 -5.057,3.625 -5,7.062 0.077,4.57 -0.191,9.271 0.789,13.675 2.231,10.019 2.93,22.716 15.92,24.257 C 22.847,52.589 24.445,39.164 27.179,29.677 32.32,11.841 32.891,-6.439 27.904,-24.569 25.161,-34.54 20.608,-43.864 8.635,-43.759 -3.156,-43.655 -2.159,-32.363 -4.589,-24.92 -7.285,-16.665 -12.013,-7.469 0,0" style="fill:#1f1f1d;fill-opacity:1;fill-rule:nonzero;stroke:none" transform="matrix(1.3333333,0,0,-1.3333333,1814.9123,1119.0929)" />
      <path id="path45" d="m 0,0 c 0,-13.005 0.036,-26.01 -0.022,-39.015 -0.017,-3.965 -0.333,-8.598 -5.272,-9.012 -6.475,-0.543 -6.852,4.667 -6.87,9.381 -0.028,7.15 0.178,14.302 0.151,21.452 -0.041,11.185 3.069,23.512 -15.967,23.358 -7.39,-0.06 -12.278,33.143 -6.016,38.05 1.347,1.055 3.908,1.696 5.453,1.183 3.749,-1.246 3.017,-5.009 3.814,-8.055 1.547,-5.908 -5.041,-16.551 6.529,-16.676 10.275,-0.112 5.286,9.74 6.048,15.369 0.621,4.581 0.066,10.277 6.359,9.915 6.786,-0.391 4.634,-6.773 4.742,-10.834 0.311,-11.698 0.11,-23.41 0.11,-35.117 C -0.628,0 -0.314,0 0,0" style="fill:#1f1f1d;fill-opacity:1;fill-rule:nonzero;stroke:none" transform="matrix(1.3333333,0,0,-1.3333333,1267.5768,1111.2784)" />
      <path id="path46" d="m 0,0 c 0,-15.603 0.297,-31.215 -0.147,-46.805 -0.176,-6.186 3.975,-15.716 -8.493,-15.488 -11.147,0.203 -7.367,8.929 -7.413,14.418 -0.27,32.504 -0.16,65.013 0.164,97.518 0.064,6.431 -3.286,16.663 8.059,16.159 C 3.378,65.305 -1.206,54.895 -0.947,48.749 -0.266,32.524 -0.717,16.253 -0.717,0 -0.478,0 -0.239,0 0,0" style="fill:#1f1f1d;fill-opacity:1;fill-rule:nonzero;stroke:none" transform="matrix(1.3333333,0,0,-1.3333333,1846.5777,844.18987)" />
      <path id="path47" d="m 0,0 c 6.999,12.09 -10.658,26.272 -1.082,40.216 3.136,4.566 4.114,18.567 13.151,10.881 4.96,-4.22 15.204,-12.153 9.853,-24.169 -9.959,-22.366 -14.031,-44.799 2.64,-66.603 3.498,-4.574 4.229,-11.548 -2.664,-15.032 -7.008,-3.541 -12.32,-1.61 -15.479,6.278 C 0.464,-33.561 0.013,-18.076 0,0" style="fill:#1f1f1d;fill-opacity:1;fill-rule:nonzero;stroke:none" transform="matrix(1.3333333,0,0,-1.3333333,1631.0936,358.6112)" />
      <path id="path48" d="m 0,0 c -1.346,3.693 -2.782,8.307 -8.216,8.843 -6.301,0.62 -10.272,-3.354 -10.548,-9.095 -0.242,-5.034 3.794,-8.447 8.851,-8.842 C -4.453,-9.52 -1.963,-5.457 0,0 M 12.487,-2.327 C 7.01,-23.275 1.228,-45.772 -4.837,-68.196 c -0.943,-3.486 -4.071,-5.135 -7.754,-3.65 -2.813,1.135 -3.384,3.831 -2.794,6.513 1.257,5.714 2.744,11.378 4.129,17.065 3.082,12.656 13.156,26.304 -11.008,31.481 -9.805,2.101 -12.054,15.03 -7.551,25.21 4.414,9.98 12.897,15.112 23.971,12.931 11.66,-2.297 18.194,-9.797 18.331,-23.681" style="fill:#1f1f1d;fill-opacity:1;fill-rule:nonzero;stroke:none" transform="matrix(1.3333333,0,0,-1.3333333,1418.1043,1076.6727)" />
      <path id="path49" d="m 0,0 c 0,-12.391 0.098,-24.783 -0.052,-37.173 -0.054,-4.42 0.464,-10.257 -6.252,-9.87 -6.218,0.358 -5.914,5.899 -5.922,10.491 -0.014,7.826 0.756,15.728 -0.1,23.457 -1.008,9.101 7.464,24.405 -15.501,19.91 -9.845,-1.927 -8.233,13.805 -11.51,21.468 -2.622,6.131 -0.793,13.889 5.794,17.005 9.283,4.391 8.558,-3.175 9.2,-9.084 0.568,-5.226 -3.448,-13.777 5.101,-14.522 11.089,-0.966 6.009,9.05 7.233,14.431 0.98,4.311 -0.417,10.575 5.69,10.793 8.739,0.311 5.341,-7.388 5.537,-11.699 C -0.25,23.493 -0.599,11.739 -0.599,0 Z" style="fill:#1f1f1d;fill-opacity:1;fill-rule:nonzero;stroke:none" transform="matrix(1.3333333,0,0,-1.3333333,1954.4811,1112.5288)" />
      <path id="path50" d="m 0,0 c -18.139,-3.58 -22.567,2.359 -18.314,16.366 5.102,16.801 9.782,33.729 14.394,50.669 1.252,4.597 3.594,11.633 -5.294,9.663 -5.146,-1.141 -9.458,-2.861 -10.842,3.017 -1.166,4.954 3.398,7.92 7.573,10.211 5.682,3.117 11.662,3.507 16.7,-0.422 5.707,-4.45 6.669,-11.31 5.004,-17.847 C 5.53,57.166 1.221,42.826 -2.932,28.452 -5.414,19.858 -11.18,9.906 5.975,10.975 10.087,11.232 11.936,7.523 11.23,4.329 9.322,-4.297 1.696,0.593 0,0" style="fill:#1f1f1d;fill-opacity:1;fill-rule:nonzero;stroke:none" transform="matrix(1.3333333,0,0,-1.3333333,1769.8391,1172.8563)" />
      <path id="path51" d="m 0,0 c 2.523,4.839 4.014,8.362 6.098,11.498 1.901,2.859 5.021,4.755 8.456,3.244 4.244,-1.867 2.536,-5.531 1.04,-8.195 -13.34,-23.749 -8.21,-49.412 -8.248,-74.567 -0.007,-4.807 2.363,-12.329 -4.783,-12.929 -9.458,-0.795 -6.569,7.886 -6.822,13.013 -1.234,25.055 4.09,51.086 -11.944,73.804 -2.186,3.097 -2.165,6.175 1.485,8.145 3.755,2.028 6.19,-0.471 8.095,-3.203 C -4.531,7.81 -2.779,4.578 0,0" style="fill:#1f1f1d;fill-opacity:1;fill-rule:nonzero;stroke:none" transform="matrix(1.3333333,0,0,-1.3333333,1660.4581,1068.866)" />
      <path id="path52" d="m 0,0 c 0,10.427 1.223,21.047 -0.414,31.216 -1.161,7.209 -0.235,12.43 6.742,12.347 7.967,-0.095 4.868,-7.84 4.969,-12.397 0.348,-15.636 -0.281,-31.299 0.246,-46.926 0.309,-9.164 -5.527,-21.587 11.519,-23.703 3.524,-0.437 5.067,-5.82 -0.559,-8.334 -11.95,-5.34 -22.249,1.339 -22.346,14.56 C 0.075,-22.159 0.14,-11.079 0.14,0 Z" style="fill:#1f1f1d;fill-opacity:1;fill-rule:nonzero;stroke:none" transform="matrix(1.3333333,0,0,-1.3333333,1598.204,1109.3728)" />
      <path id="path53" d="m 0,0 c 0,-12.378 0.128,-24.758 -0.052,-37.134 -0.096,-6.655 -3.628,-11.126 -10.315,-12.423 -4.964,-0.963 -9.104,1.026 -11.828,5.247 -2.295,3.555 -2.821,9.855 1.043,9.777 19.945,-0.406 10.111,13.721 10.437,21.271 0.673,15.571 -0.761,31.24 -1.54,46.858 -0.252,5.058 0.731,10.29 6.218,10.196 5.799,-0.1 5.797,-5.773 5.732,-10.556 C -0.457,22.159 -0.353,11.079 -0.353,0 -0.236,0 -0.118,0 0,0" style="fill:#1f1f1d;fill-opacity:1;fill-rule:nonzero;stroke:none" transform="matrix(1.3333333,0,0,-1.3333333,1519.4073,1108.5541)" />
      <path id="path54" d="m 0,0 c 0,-12.408 0.041,-24.817 -0.022,-37.224 -0.023,-4.369 -1.619,-7.716 -6.763,-7.547 -4.545,0.149 -4.836,3.751 -4.841,6.946 -0.046,26.372 0.004,52.744 0.106,79.116 0.014,3.559 1.74,6.909 5.459,6.884 3.824,-0.025 5.03,-3.495 5.033,-7.031 C -1.019,27.429 -1.024,13.715 -1.024,0.001 -0.683,0 -0.341,0 0,0" style="fill:#1f1f1d;fill-opacity:1;fill-rule:nonzero;stroke:none" transform="matrix(1.3333333,0,0,-1.3333333,1364.3409,1113.992)" />
      <path id="path55" d="m 0,0 c 0,12.362 -0.03,24.724 0.016,37.086 0.017,4.601 -0.059,10.085 6.375,9.781 5.181,-0.245 4.833,-5.286 4.865,-9.132 0.198,-23.419 0.317,-46.839 0.479,-70.259 0.037,-5.346 -0.071,-12.197 -6.321,-12.529 -8.299,-0.439 -5.158,7.437 -5.349,11.881 C -0.409,-22.133 -0.091,-11.06 -0.091,0 -0.061,0 -0.03,0 0,0" style="fill:#1f1f1d;fill-opacity:1;fill-rule:nonzero;stroke:none" transform="matrix(1.3333333,0,0,-1.3333333,1873.8331,1112.5281)" />
      <path id="path56" d="m 0,0 c -5.413,1.099 -14.34,-2.368 -14.276,5.956 0.067,8.67 9.104,5.028 14.195,5.113 5.064,0.086 13.984,3.454 13.99,-5.273 C 13.915,-2.893 4.93,1.43 0,0" style="fill:#1f1f1d;fill-opacity:1;fill-rule:nonzero;stroke:none" transform="matrix(1.3333333,0,0,-1.3333333,1308.5983,1130.9773)" />
    </g></svg>