<?xml version='1.0' encoding='utf-8'?>
<svg xmlns="http://www.w3.org/2000/svg" version="1.1" width="61.853" height="101.301" viewBox="660.312 4183.100 61.853 101.301"><g id="object"><path id="path103" d="m 0,0 c 2.247,-2.787 -2.089,-9.844 4.199,-9.956 5.827,-0.104 7.714,5.865 7.735,11.405 C 11.952,6.227 9.199,9.095 4.619,9.077 -1.481,9.053 0.869,3.912 0,0 m 1.212,-22.703 c -1.697,-6.34 -0.7,-12.695 -0.657,-18.965 0.03,-4.33 -1.739,-5.921 -5.89,-5.824 -4.192,0.098 -7.473,1.824 -6.856,6.135 1.895,13.245 -1.303,26.49 0.519,39.724 0.727,5.282 -1.948,10.584 -0.19,16.083 1.007,3.149 2.376,4.93 5.783,4.841 4.013,-0.106 8.113,0.372 12.024,-0.293 6.747,-1.146 14.399,-2.375 16.343,-10.212 1.947,-7.847 3.817,-16.392 -3.866,-22.988 -2.889,-2.481 -3.476,-5.938 -1.744,-9.019 2.928,-5.21 4.092,-11.018 6.161,-16.496 0.743,-1.969 4.321,-5.697 -0.07,-7.078 -3.446,-1.084 -7.822,-1.835 -10.669,2.74 -3.647,5.861 -4.823,12.68 -7.932,18.715 -0.517,1.004 -0.469,2.41 -2.956,2.637" style="fill:#494f57;fill-opacity:1;fill-rule:nonzero;stroke:none" transform="matrix(1.3333333,0,0,-1.3333333,682.94093,4214.908)" />
      </g></svg>