<?xml version='1.0' encoding='utf-8'?>
<svg xmlns="http://www.w3.org/2000/svg" version="1.1" width="854.502" height="197.048" viewBox="1720.490 1102.330 854.502 197.048"><g id="object"><path id="path24" d="M 14.087147,-3.59375e-4 H 83.579334 V -13.523797 H 30.212147 V -124.8988 h -16.125 z M 166.22582,-71.894891 h -48.55078 v -39.480469 h 51.32812 V -124.8988 H 101.55004 V -3.59375e-4 h 70.23047 V -13.523797 h -54.10547 v -45.035156 h 48.55078 z m 20.18848,65.7773441 c 6.66796,4.453125 19.82812,7.96875 31.875,7.96875 29.46093,0 43.73437,-16.6757811 43.73437,-35.9531251 0,-18.339844 -10.74609,-28.535156 -31.875,-36.691406 -17.23828,-6.667969 -24.83203,-12.410156 -24.83203,-24.082031 0,-8.531251 6.49219,-18.714841 23.53125,-18.714841 11.30859,0 19.65234,3.70312 23.71875,5.92968 l 4.45312,-13.16015 c -5.55468,-3.15235 -14.82421,-6.11719 -27.60937,-6.11719 -24.28125,0 -40.39453,14.46094 -40.39453,33.914063 0,17.601563 12.59765,28.160156 32.97656,35.390625 16.86328,6.492188 23.53125,13.160156 23.53125,24.832031 0,12.597657 -9.63281,21.316407 -26.12109,21.316407 -11.1211,0 -21.67969,-3.714844 -28.91016,-8.15625 z m 97.66113,5.74218752 c 5.36719,0.75 13.89844,1.48828128 25.01953,1.48828128 20.37891,0 34.46484,-3.703125 43.17187,-11.6718749 6.30469,-6.117188 10.5586,-14.273438 10.5586,-25.019531 0,-18.527344 -13.89844,-28.347657 -25.75781,-31.3125 v -0.375 c 13.16015,-4.816407 21.1289,-15.386719 21.1289,-27.421875 0,-9.832031 -3.89062,-17.238281 -10.38281,-22.054691 -7.78125,-6.30468 -18.15234,-9.08203 -34.27734,-9.08203 -11.3086,0 -22.41797,1.11328 -29.46094,2.58985 z m 16.125,-111.92578062 c 2.58984,-0.55078 6.85547,-1.11328 14.26172,-1.11328 16.3125,0 27.42187,5.7539 27.42187,20.390623 0,12.046875 -9.99609,20.941406 -27.04687,20.941406 h -14.63672 z m 0,52.441406 h 13.33594 c 17.60156,0 32.25,7.042968 32.25,24.09375 0,18.164062 -15.38672,24.28125 -32.0625,24.28125 -5.74219,0 -10.38282,-0.1875 -13.52344,-0.75 z M 384.50805,-124.8988 V -3.59375e-4 h 16.125 V -124.8988 Z m 108.77636,85.617191 13.33594,39.281249625 h 17.23828 L 481.23754,-124.8988 H 461.78441 L 419.3391,-3.59375e-4 h 16.67578 L 448.98754,-39.281609 Z m -40.95703,-12.609375 12.23438,-36.128907 c 2.40234,-7.605468 4.4414,-15.199219 6.29296,-22.605469 h 0.375 c 1.85157,7.21875 3.70313,14.636719 6.48047,22.792969 l 12.23438,35.941407 z M 557.39183,-3.59375e-4 V -53.367547 c 0,-20.753906 -0.36328,-35.765625 -1.28906,-51.515623 l 0.55078,-0.1875 c 6.30469,13.523436 14.63672,27.796873 23.35547,41.695311 l 39.65625,63.374999625 h 16.30078 V -124.8988 h -15.1875 v 52.253909 c 0,19.464844 0.36328,34.652344 1.85157,51.339844 l -0.375,0.175781 c -5.92969,-12.785156 -13.16016,-25.945312 -22.41797,-40.582031 L 559.8059,-124.8988 H 542.20433 V -3.59375e-4 Z m 0,0" style="fill:#231916;fill-opacity:1;fill-rule:nonzero;stroke:none" aria-label="LESBIAN" transform="matrix(1.3333333,0,0,1.3333333,1714.3812,1284.2427)" />
      <path id="path25" d="M 0,0 H 69.489 V 13.527 H 16.122 V 124.895 H 0 Z" style="fill:none;stroke:#231916;stroke-width:10;stroke-linecap:butt;stroke-linejoin:miter;stroke-miterlimit:10;stroke-dasharray:none;stroke-opacity:1" transform="matrix(1.3333333,0,0,-1.3333333,1733.1585,1284.2427)" />
      <path id="path26" d="M 0,0 H -48.55 V 39.47 H 2.779 v 13.527 h -67.45 V -71.898 h 70.23 v 13.527 H -48.55 v 45.029 H 0 Z" style="fill:none;stroke:#231916;stroke-width:10;stroke-linecap:butt;stroke-linejoin:miter;stroke-miterlimit:10;stroke-dasharray:none;stroke-opacity:1" transform="matrix(1.3333333,0,0,-1.3333333,1936.0016,1188.3787)" />
      <path id="path27" d="m 0,0 c 6.671,-4.447 19.828,-7.968 31.873,-7.968 29.463,0 43.731,16.677 43.731,35.949 0,18.345 -10.748,28.537 -31.872,36.69 -17.233,6.671 -24.831,12.415 -24.831,24.09 0,8.524 6.486,18.715 23.534,18.715 11.303,0 19.642,-3.706 23.719,-5.93 l 4.447,13.157 c -5.559,3.151 -14.824,6.115 -27.61,6.115 -24.275,0 -40.397,-14.454 -40.397,-33.91 0,-17.604 12.601,-28.167 32.985,-35.393 16.862,-6.486 23.533,-13.157 23.533,-24.831 0,-12.601 -9.635,-21.31 -26.128,-21.31 -11.118,0 -21.68,3.706 -28.907,8.153 z" style="fill:none;stroke:#231916;stroke-width:10;stroke-linecap:butt;stroke-linejoin:miter;stroke-miterlimit:10;stroke-dasharray:none;stroke-opacity:1" transform="matrix(1.3333333,0,0,-1.3333333,1962.9293,1276.0891)" />
      <path id="path28" d="m 0,0 c 5.374,-0.741 13.898,-1.482 25.016,-1.482 20.384,0 34.467,3.706 43.176,11.674 6.301,6.115 10.562,14.268 10.562,25.016 0,18.53 -13.898,28.352 -25.757,31.316 v 0.371 c 13.157,4.818 21.125,15.38 21.125,27.425 0,9.821 -3.892,17.233 -10.377,22.051 -7.783,6.3 -18.16,9.08 -34.282,9.08 -11.303,0 -22.421,-1.112 -29.463,-2.594 z m 16.122,111.924 c 2.594,0.555 6.856,1.112 14.268,1.112 16.307,0 27.425,-5.745 27.425,-20.384 0,-12.045 -10.006,-20.939 -27.054,-20.939 H 16.122 Z m 0,-52.441 h 13.341 c 17.604,0 32.244,-7.042 32.244,-24.09 0,-18.16 -15.381,-24.275 -32.058,-24.275 -5.745,0 -10.377,0.186 -13.527,0.741 z" style="fill:none;stroke:#231916;stroke-width:10;stroke-linecap:butt;stroke-linejoin:miter;stroke-miterlimit:10;stroke-dasharray:none;stroke-opacity:1" transform="matrix(1.3333333,0,0,-1.3333333,2093.1357,1283.7485)" />
      <path id="path29" d="M 0,0 V -124.895 H 16.122 V 0 Z" style="fill:none;stroke:#231916;stroke-width:10;stroke-linecap:butt;stroke-linejoin:miter;stroke-miterlimit:10;stroke-dasharray:none;stroke-opacity:1" transform="matrix(1.3333333,0,0,-1.3333333,2227.0472,1117.716)" />
      <path id="path30" d="M 0,0 13.342,-39.285 H 30.575 L -12.044,85.61 H -31.501 L -73.936,-39.285 h 16.677 L -44.288,0 Z m -40.952,12.601 12.23,36.134 c 2.409,7.598 4.447,15.195 6.3,22.607 h 0.371 c 1.853,-7.227 3.706,-14.639 6.486,-22.792 l 12.23,-35.949 z" style="fill:none;stroke:#231916;stroke-width:10;stroke-linecap:butt;stroke-linejoin:miter;stroke-miterlimit:10;stroke-dasharray:none;stroke-opacity:1" transform="matrix(1.3333333,0,0,-1.3333333,2372.0777,1231.8631)" />
      <path id="path31" d="m 0,0 v 53.368 c 0,20.754 -0.371,35.763 -1.297,51.514 l 0.555,0.185 C 5.559,91.541 13.897,77.272 22.607,63.374 L 62.262,0 H 78.569 V 124.895 H 63.374 V 72.639 c 0,-19.457 0.371,-34.652 1.853,-51.329 L 64.856,21.125 C 58.927,33.911 51.7,47.067 42.435,61.707 L 2.409,124.895 H -15.195 V 0 Z" style="fill:none;stroke:#231916;stroke-width:10;stroke-linecap:butt;stroke-linejoin:miter;stroke-miterlimit:10;stroke-dasharray:none;stroke-opacity:1" transform="matrix(1.3333333,0,0,-1.3333333,2457.5655,1284.2427)" />
      </g></svg>