<?xml version='1.0' encoding='utf-8'?>
<svg xmlns="http://www.w3.org/2000/svg" version="1.1" width="46.967" height="101.173" viewBox="2455.230 4181.320 46.967 101.173"><g id="object"><path id="path170" d="m 0,0 c 1.594,0.105 3.954,0.438 6.303,0.372 3.177,-0.088 6.224,-0.409 6.098,-4.951 -0.108,-3.94 -1.652,-6.829 -5.707,-6.448 -8.104,0.761 -8.002,-4.271 -7.851,-9.845 0.108,-4.005 1.87,-6.783 5.904,-6.183 6.612,0.984 6.16,-3.873 6.571,-7.517 0.509,-4.515 -3.479,-3.59 -5.981,-3.698 -4.405,-0.191 -6.347,-1.936 -6.159,-6.557 0.221,-5.423 -0.243,-10.87 -0.266,-16.307 -0.02,-4.619 -2.947,-5.209 -6.619,-5.356 -4.183,-0.168 -5.1,1.905 -5.138,5.669 -0.194,18.954 -0.574,37.907 -0.974,56.858 -0.06,2.829 1.402,3.855 3.833,3.938 C -6.915,0.08 -3.837,0 0,0" style="fill:#494f57;fill-opacity:1;fill-rule:nonzero;stroke:none" transform="matrix(1.3333333,0,0,-1.3333333,2479.6607,4187.8279)" />
      </g></svg>