<?xml version='1.0' encoding='utf-8'?>
<svg xmlns="http://www.w3.org/2000/svg" version="1.1" width="600.440" height="550.538" viewBox="1732.250 576.627 600.440 550.538"><g id="object"><path id="path6" d="m 0,0 c -28.815,24.109 -57.806,48.366 -87.646,73.333 34.113,58.292 60.555,116.44 41.407,182.523 -4.899,1.763 -9.798,3.526 -14.696,5.288 -6.898,-14.442 -15.653,-28.311 -20.33,-43.44 -11.979,-38.746 -19.422,-79.085 -33.74,-116.869 -17.088,-45.092 -48.083,-77.044 -100.778,-78.899 -56.944,-2.005 -99.735,21.812 -126.796,71.783 -43.818,80.915 -27.372,223.013 36.013,298.38 30.253,-21.674 60.816,-43.571 88.129,-63.14 -12.235,-40.354 -25.974,-77.055 -33.496,-114.989 -2.76,-13.92 9.196,-30.758 14.439,-46.265 8.406,12.92 20.07,24.801 24.585,38.962 11.953,37.479 18.349,76.821 31.503,113.804 17.827,50.123 52.284,83.088 109.089,83.429 57.099,0.344 98.093,-26.894 123.476,-77.417 C 96.539,236.162 72.387,77.023 0,0" style="fill:#231916;fill-opacity:1;fill-rule:nonzero;stroke:none" transform="matrix(1.3333333,0,0,-1.3333333,2227.7955,1121.1648)" />
      </g></svg>