<?xml version='1.0' encoding='utf-8'?>
<svg xmlns="http://www.w3.org/2000/svg" version="1.1" width="1820.795" height="1152.847" viewBox="335.179 123.216 1820.795 1152.847"><g id="object"><path id="path3" d="M 0,0 C 0.06,-0.347 0.004,-0.835 0.21,-1.006 0.472,-1.222 0.947,-1.181 1.329,-1.251 1.22,-0.673 1.11,-0.095 1,0.483 Z m 3.33,11.781 c 0.751,0.608 1.913,1.142 2.413,2.043 0.922,1.662 0.323,3.401 -1.404,3.994 C 3.656,18.052 2.074,16.956 1.547,16.078 0.559,14.433 1.34,12.975 3.33,11.781 m -284.788,19.8 c 0.758,1.953 -0.03,3.278 -1.909,3.709 -2.652,0.61 -5.046,-0.282 -6.362,-2.638 -1.259,-2.252 -0.163,-4.098 2.285,-4.517 2.751,-0.472 4.663,1.115 5.986,3.446 M -1.28,-22.937 c 0.445,-2.635 -1.944,-8.219 2.707,-7.399 5.202,0.916 5.695,7.275 6.24,12.214 0.336,3.041 -0.13,6.907 -3.674,6.353 -5.964,-0.933 -4.851,-6.584 -5.273,-11.168 m 10.833,69.87 c -0.183,0.003 -0.366,0.005 -0.549,0.007 0,11.682 -0.002,23.363 0.001,35.045 10e-4,2.511 0.254,5.583 -3.192,5.631 C 2.355,87.664 3.123,84.302 2.353,82.07 -2.443,68.162 3.968,53.713 0.131,39.689 c -1,-3.656 -1.717,-9.876 3.716,-10.457 7.182,-0.767 4.834,6.175 5.618,10.172 0.476,2.422 0.088,5.014 0.088,7.529 m -159.792,329.68 c -0.038,10e-4 -0.076,10e-4 -0.113,10e-4 0,21.365 0.08,42.73 -0.043,64.094 -0.045,7.669 -4.288,10.886 -11.926,11.49 -14.637,1.159 -29.237,0.826 -43.881,0.84 -12.416,0.012 -14.693,-5.923 -14.348,-16.472 0.711,-21.723 0.993,-43.471 0.894,-65.206 -0.183,-40.577 -0.933,-81.152 -1.11,-121.728 -0.091,-21.071 1.995,-22.37 23.213,-22.421 39.454,-0.096 78.927,-1.639 118.355,-0.809 36.671,0.773 69.413,-27.021 76.37,-61.99 0.634,-3.189 1.151,-7.792 5.226,-7.471 4.523,0.356 3.163,5.045 3.248,8.145 0.813,29.642 1.663,59.283 2.238,88.93 0.202,10.447 0.077,20.937 -0.652,31.354 -0.574,8.2 -3.652,13.805 -14.044,13.311 -19.153,-0.91 -38.374,-0.892 -57.554,-0.569 -23.816,0.401 -47.682,2.842 -71.401,1.731 -11.552,-0.542 -14.4,3.111 -14.442,12.635 -0.096,21.378 -0.03,42.757 -0.03,64.135 M 149.067,58.904 c -0.153,-1.747 -0.306,-3.494 -0.459,-5.239 -2.118,-1.917 -1.596,-3.501 0.618,-4.871 -0.025,-5.108 -0.05,-10.217 -0.075,-15.323 -3.505,-5.827 -3.366,-11.634 0.111,-17.419 -0.019,-1.748 -0.039,-3.496 -0.059,-5.243 -2.517,-2.415 -2.39,-4.882 -0.14,-7.389 -0.034,-22.781 -0.069,-45.562 -0.104,-68.337 -1.848,-0.811 -1.708,-1.538 0.099,-2.189 -0.547,-5.897 -0.71,-11.76 1.541,-17.406 0.544,-4.119 2.655,-5.358 6.447,-3.499 1.477,-0.212 2.953,-0.424 4.429,-0.635 3.022,-3.625 5.99,-3.618 8.899,0.138 3.75,-0.108 7.498,-0.215 11.246,-0.322 7.258,-3.955 14.457,-5.502 21.463,0.547 3.786,-0.078 7.572,-0.156 11.358,-0.235 4.178,-4.142 11.767,-5.782 10.422,-13.996 -2.802,-17.114 -1.285,-34.371 -1.57,-51.557 -0.154,-9.335 -4.306,-11.731 -13.131,-12.486 -21.377,-1.83 -42.674,-0.022 -63.872,1.037 -32.24,1.61 -65.31,-4.634 -96.316,11.517 -16.04,8.355 -27.696,19.915 -32.904,36.048 -7.118,22.046 -16.353,44.282 -10.584,68.572 0.555,2.338 0.161,5.367 -3.151,5.831 -2.552,0.358 -3.646,-1.951 -4.183,-3.888 -1.006,-3.633 -2.618,-7.528 -2.141,-11.066 2.039,-15.124 -1.025,-30.004 -1.481,-44.99 -0.859,-28.254 -29.681,-58.551 -55.975,-58.636 -51.09,-0.165 -102.182,-0.049 -153.272,0.214 -24.685,0.126 -49.381,1.533 -74.047,1.046 -14.796,-0.293 -28.392,2.937 -40.829,9.931 -30.413,17.1 -37.932,47.237 -39.169,78.268 -1.564,39.238 0.412,78.619 0.946,117.936 0.241,17.817 1.654,18.672 19.807,18.788 36.461,0.233 72.848,-1.711 109.267,-2.65 11.606,-0.299 14.014,-4.366 13.83,-14.931 -0.674,-38.589 -0.487,-77.192 -0.695,-115.79 -0.044,-8.198 0.849,-15.533 11.544,-15.661 17.617,-0.209 35.238,-0.221 52.852,-0.589 6.648,-0.139 10.389,2.945 11.51,9.114 1.12,6.166 3.053,12.623 2.241,18.631 -4.581,33.905 3.839,67.371 2.467,101.366 -1.212,30.04 -0.169,60.31 -1.89,90.472 -0.565,9.896 -4.797,14.139 -14.91,14.154 -40.186,0.062 -80.374,0.434 -120.558,0.971 -60.429,0.808 -75.577,32.005 -85.81,75.341 -0.711,3.011 -0.016,6.791 -5.117,8.276 -0.896,-5.519 -2.538,-10.824 -2.473,-16.108 0.235,-18.846 -1.07,-37.599 -2.059,-56.391 -0.485,-9.204 -4.568,-11.129 -12.776,-10.768 -17.981,0.79 -35.993,0.95 -53.995,1.169 -20.946,0.254 -41.897,0.115 -62.84,0.489 -15.7,0.279 -17.532,2.195 -17.518,17.495 0.056,62.102 0.267,124.205 0.323,186.307 0.026,28.978 -0.026,57.958 -0.378,86.933 -0.079,6.57 -0.023,14.863 -9.389,15.183 -19.295,0.659 -38.626,0.536 -57.937,0.321 -4.411,-0.05 -8.489,-2.78 -8.056,-7.849 0.635,-7.446 -2.145,-15.125 1.469,-22.348 0.025,-3.448 0.049,-6.895 0.074,-10.341 -2.477,-8.382 -2.591,-16.804 -0.416,-25.263 -0.035,-3.377 -0.07,-6.753 -0.105,-10.127 -2.761,-1.727 -2.263,-3.575 -0.199,-5.479 -0.054,-6.066 -0.107,-12.131 -0.161,-18.193 -2.479,-15.04 -3.871,-30.086 -0.043,-45.137 0.062,-0.593 0.142,-1.184 0.237,-1.767 -0.094,-0.26 -0.302,-0.55 -0.255,-0.79 0.099,-0.509 0.33,-0.993 0.507,-1.487 -0.067,-2.738 -0.134,-5.475 -0.201,-8.204 -4.474,-9.706 -2.958,-19.53 -0.537,-29.371 -0.069,-6.878 -0.139,-13.756 -0.209,-20.631 -2.247,-1.639 -2.242,-3.245 0.079,-4.812 -0.248,-3.402 -0.496,-6.803 -0.743,-10.202 -0.855,-0.648 -2.25,-1.165 -2.453,-1.979 -0.427,-1.72 0.383,-3.079 2.491,-3.069 -0.057,-9.187 -0.114,-18.374 -0.172,-27.559 -3.28,-1.866 -3.325,-3.628 0.173,-5.274 0.261,-21.081 0.522,-42.163 0.782,-63.239 -2.894,-5.526 -2.696,-11.096 -0.21,-16.694 0.126,-2.925 0.252,-5.85 0.377,-8.764 -4.587,-14.044 -7.253,-28.124 -0.583,-42.332 -0.004,-5.116 -0.008,-10.232 -0.009,-15.345 -4.239,-4.982 -4.224,-9.94 0.092,-14.873 -0.229,-2.492 -0.458,-4.984 -0.686,-7.473 -1.46,0.102 -3.019,0.036 -2.749,-1.915 0.072,-0.521 1.718,-0.825 2.641,-1.228 0.148,-2.388 0.297,-4.777 0.446,-7.164 -8.505,-3.473 -3.771,-6.74 0.155,-10.019 -0.171,-1.622 -0.342,-3.244 -0.513,-4.863 -10.322,-7.599 -4.91,-19.565 -4.07,-27.417 3.288,-30.764 -1.595,-61.399 1.098,-91.926 0.849,-9.622 -6.225,-17.254 -4.978,-25.819 0.928,-6.37 -1.003,-7.39 -5.765,-8.053 -33.015,-4.601 -66.2,-1.842 -99.308,-2.452 -4.27,-0.078 -6.944,5.123 -12.644,1.379 -8.623,-5.663 -15.226,-1.276 -15.428,8.996 -0.364,18.475 -0.725,36.954 -0.683,55.43 0.107,45.825 0.741,91.649 0.591,137.472 -0.122,37.589 0.991,75.157 0.344,112.768 -0.974,56.595 -0.552,113.221 0.051,169.826 0.099,9.327 -3.427,18.381 -2.112,27.196 4.537,30.421 0.457,60.965 2.493,91.426 1.438,21.508 -2.518,43.15 0.016,64.861 1.157,9.906 5.633,12.691 14.755,12.558 21.001,-0.306 42.012,-0.092 63.017,0.126 4.391,0.045 9.396,-1.694 12.854,2.882 1.607,-0.015 3.215,-0.031 4.822,-0.047 1.008,-0.552 2.017,-1.104 3.026,-1.656 13.48,0.27 26.973,-2.144 40.466,1.669 4.279,1.209 9.849,1.326 14.351,-1.631 7.204,-3.503 14.39,-6.718 20.904,1.256 3.059,-0.011 6.118,-0.021 9.178,-0.033 3.543,-6.404 7.276,-6.517 11.199,-0.337 4.768,0.225 9.535,0.451 14.302,0.677 5.458,-5.933 11.248,-8.132 17.817,-1.588 3.232,0.455 6.464,0.909 9.696,1.363 6.011,-6.13 12.136,-11.465 20.267,-2.929 18.275,-3.073 36.938,2.736 55.013,-1.812 16.239,-4.086 29.678,-13.074 39.316,-27.143 0.462,-16.789 20.649,-26.72 15.882,-45.417 -0.114,-0.448 2.291,-2.19 2.599,-1.98 1.239,0.846 2.932,2.186 2.99,3.412 0.329,7.04 0.239,14.099 0.291,21.153 1.123,2.274 2.247,4.548 3.37,6.822 1.541,0.535 2.153,1.555 1.648,3.158 7.073,15 17.789,26.525 32.578,34.163 1.494,-0.888 2.282,-0.392 2.479,1.264 0.798,0.405 1.596,0.81 2.392,1.214 17.051,0.803 34.105,2.306 51.157,2.287 69.777,-0.08 139.554,-0.624 209.331,-0.998 1.523,-0.315 3.045,-0.631 4.566,-0.946 10.353,-4.442 20.706,-8.884 31.059,-13.326 0,0 0.896,-0.696 0.893,-0.694 -0.147,-4.95 2.222,-6.886 7.048,-5.87 0.44,-0.506 0.885,-1.006 1.333,-1.5 -0.742,-4.886 1.763,-6.605 6.245,-6.394 0.318,-0.416 0.645,-0.826 0.979,-1.226 1.798,-7.114 1.978,-15.11 10.179,-18.753 0.131,-3.33 0.263,-6.66 0.395,-9.989 -0.01,-29.291 -0.055,-58.583 0.022,-87.875 0.008,-3.236 -0.043,-7.854 4.325,-7.671 5.34,0.223 2.271,4.97 2.773,7.863 3.095,17.811 2.016,35.827 2.839,53.749 1.208,26.324 6.316,52.363 5.81,78.823 -0.189,9.865 2.111,17.697 10.263,25.369 10.549,9.93 26.124,16.82 27.475,34.386 0.46,0.447 0.913,0.9 1.359,1.357 8.876,4.857 17.36,10.087 19.84,20.992 0,0 0.77,0.822 0.768,0.819 18.401,9.416 29.631,26.858 44.315,40.4 3.393,3.129 9.446,7.493 7.983,14.508 0.984,1.024 1.967,2.047 2.951,3.069 10.652,-0.509 13.466,12.078 22.855,13.681 -0.131,-1.759 -0.262,-3.518 -0.39,-5.268 -3.493,-2.631 -4.227,-5.191 0.219,-7.604 0.301,-3.359 0.602,-6.719 0.902,-10.075 -0.315,-0.093 -0.63,-0.19 -0.945,-0.286 0.326,-0.434 0.651,-0.867 0.977,-1.301 -0.074,-7.778 -0.148,-15.556 -0.222,-23.331 -3.955,-3.329 -2.653,-6.539 0.224,-9.714 -2.933,-13.222 -0.075,-26.569 -0.64,-39.875 -0.442,-10.38 -0.951,-20.741 -1.824,-31.089 -3.723,-12.139 -1.788,-15.86 9.673,-16.22 17.081,-0.535 34.183,-0.37 51.276,-0.543 3.365,-0.033 6.769,-0.39 9.314,2.524 1.016,-0.256 2.032,-0.512 3.045,-0.767 0.041,-3.475 -1.459,-7.258 1.996,-10.057 -0.171,-9.151 -0.343,-18.302 -0.514,-27.451 -6.361,-5.957 -4.173,-14.265 -3.192,-20.579 1.256,-8.086 -1.757,-8.465 -7.52,-8.596 -9.851,-0.223 -19.827,0.261 -29.027,-4.35 -4.151,0.085 -8.303,0.169 -12.454,0.253 -2.662,3.459 -5.268,3.507 -7.814,-0.127 -2.271,-0.415 -4.542,-0.83 -6.812,-1.244 -10.806,2.061 -11.316,-2.951 -7.503,-10.93 -0.077,-1.775 -0.155,-3.549 -0.233,-5.322 -7.833,-1.954 -2.795,-4.754 -0.483,-7.376 -0.039,-1.757 -0.078,-3.514 -0.117,-5.268 -3.727,-6.593 -10.341,-13.245 0.386,-19.555 -0.115,-1.033 -0.229,-2.066 -0.342,-3.097 -5.169,-9.983 -3.115,-20.033 -0.271,-30.09 -0.074,-4.276 -0.148,-8.552 -0.222,-12.826 -2.521,-2.332 -2.649,-4.773 -0.332,-7.326 0.126,-8.492 0.252,-16.985 0.378,-25.475 -2.653,-5.002 -2.238,-9.959 0.227,-14.884 -0.374,-16.815 -0.748,-33.629 -1.125,-50.439 -0.217,-0.339 -0.694,-0.803 -0.601,-1.002 0.31,-0.663 0.824,-1.23 1.259,-1.834 -0.112,-6.515 -0.224,-13.029 -0.337,-19.539 -1.892,-13.607 -1.518,-27.159 1.068,-40.653 -1.4,-15.211 -1.37,-30.445 -0.703,-45.686 -1.985,-1.673 -2.088,-3.471 -0.353,-5.39 0.204,-2.181 0.408,-4.363 0.61,-6.541 -0.254,-0.307 -0.772,-0.685 -0.713,-0.917 0.183,-0.72 0.585,-1.384 0.902,-2.07 -0.981,-14.336 -1.536,-28.671 -0.05,-43.004 -0.304,-0.195 -0.888,-0.447 -0.862,-0.586 0.119,-0.632 0.409,-1.232 0.638,-1.844 0.113,-7.615 0.226,-15.231 0.338,-22.844 -2.143,-2.391 -2.714,-4.837 -0.247,-7.384" style="fill:#0c2f31;fill-opacity:1;fill-rule:nonzero;stroke:none" transform="matrix(1.3333333,0,0,-1.3333333,1849.8545,1046.9412)" />
      <path id="path10" d="m 0,0 c 0.556,0.525 1.064,1.092 1.523,1.702 5.673,1.046 8.57,4.775 9.788,10.128 0.685,0.343 1.344,0.73 1.976,1.161 3.141,-0.97 5.164,0.226 6.252,3.231 1.227,0.757 2.455,1.515 3.681,2.271 5.29,-1.583 8.656,1.184 11.516,5.095 1.453,0.237 2.907,0.474 4.361,0.712 12.746,1.914 26.105,-1.868 38.411,4.136 15.701,-0.208 31.401,-0.416 47.1,-0.624 1.053,0.016 2.108,0.033 3.163,0.051 4.908,0.069 9.816,0.138 14.721,0.208 15.832,-8.456 32.926,-0.747 49.383,-3.627 7.273,-1.273 8.859,-2.94 9.295,-9.532 0.679,-10.281 -2.281,-20.894 1.853,-32.254 2.784,5.102 2.946,8.947 2.846,13.267 -0.798,34.42 -0.147,27.881 29.873,29.781 17.717,1.121 35.514,-5.347 52.998,1.129 3.417,-0.053 6.834,-0.106 10.25,-0.159 2.412,-2.576 4.893,-2.873 7.464,-0.227 9.291,-0.345 18.582,-0.689 27.872,-1.034 6.322,-5.213 13.723,-1.768 20.595,-2.566 0,0 0.385,-0.437 0.384,-0.436 -0.28,-19.49 -5.83,-39.115 1.496,-58.41 -0.039,-1.728 -0.078,-3.456 -0.118,-5.182 -0.945,-7.162 -7,-8.723 -12.245,-11.173 -4.17,-0.342 -8.34,-0.684 -12.51,-1.026 -0.949,1.691 -1.909,1.79 -2.881,0.018 -21.667,0.119 -43.334,0.239 -65,0.358 -1.059,1.913 -2.193,2.008 -3.408,0.139 -2.209,0.036 -4.418,0.073 -6.626,0.109 -1.263,1.845 -2.403,1.743 -3.424,-0.22 -3.165,-0.25 -6.33,-0.501 -9.495,-0.751 -1.748,2.02 -3.541,2.257 -5.393,0.136 -8.954,0.258 -17.908,0.516 -26.862,0.774 -2.579,5.55 -6.606,6.472 -12.23,4.555 -8.702,-2.964 -17.712,-3.698 -26.869,-2.304 -3.632,0.552 -7.504,1.497 -9.874,-2.729 -7.456,-0.072 -14.912,-0.143 -22.367,-0.215 -10.706,1.832 -9.081,-7.67 -9.824,-12.527 -1.278,-8.355 -0.033,-17.095 0.153,-25.673 -1.791,-8.815 1.511,-17.19 2.226,-25.789 0.524,-6.302 5.04,-6.211 9.851,-6.946 17.315,-2.646 34.667,-2.095 52.044,-1.52 1.09,-3.117 3.111,-6.233 3.116,-9.352 0.029,-18.71 -0.273,-37.425 -0.762,-56.13 -0.156,-5.979 -4.722,-7.24 -9.734,-7.223 -12.076,0.04 -24.197,-0.465 -36.21,0.436 -7.178,0.539 -14.496,3.186 -19.06,-4.517 -4.871,-8.219 -5.764,-16.963 -0.364,-25.559 0.134,-2.256 0.269,-4.512 0.403,-6.765 -5.32,-3.512 -3.428,-9.068 -3.596,-13.818 -0.693,-19.663 0.736,-39.301 0.378,-59.008 -0.979,-53.784 -0.575,-107.592 -0.738,-161.39 -0.019,-6.501 -1.005,-13.151 3.318,-18.879 -0.131,-8.235 -0.261,-16.47 -0.392,-24.704 -3.578,-5.326 -2.01,-10.197 1.324,-14.912 -0.203,-2.417 -0.407,-4.835 -0.609,-7.25 -4.541,-4.448 -4.622,-8.977 -0.236,-13.584 0.183,-3.105 0.365,-6.209 0.548,-9.311 -5.287,-7.742 -5.062,-15.534 -0.196,-23.365 -0.215,-4.66 -0.43,-9.32 -0.643,-13.977 -4.266,-13.073 -5.354,-26.135 0.179,-39.166 0.165,-3.851 0.331,-7.703 0.497,-11.553 -4.837,-3.279 -5.185,-8.905 -5.185,-13.493 0.003,-19.178 0.412,-38.386 3.298,-57.422 -0.126,-1.779 -0.253,-3.557 -0.38,-5.334 -2.04,-7.219 -2.814,-14.4 -1.498,-21.982 2.735,-15.753 1.496,-31.757 2.224,-47.642 0.444,-9.705 -2.777,-14.736 -13.485,-14.771 -40.173,-0.134 -80.344,-0.845 -120.517,-1.229 -9.973,-0.095 -15.742,4.396 -15.622,15.113 0.192,17.092 0.221,34.186 0.205,51.279 -0.053,54.781 0.186,109.565 -0.494,164.339 -0.161,12.942 0.344,26.161 -2.973,38.962 -0.117,1.843 -0.234,3.687 -0.35,5.528 7.211,12.637 3.378,25.217 -0.2,37.799 0.236,1.627 0.471,3.254 0.706,4.879 1.704,11.975 5.937,23.986 -0.488,35.852 -0.164,3.102 -0.328,6.205 -0.491,9.309 7.263,17.511 2.359,35.347 1.377,53.074 -0.011,0.201 -0.708,0.365 -1.084,0.546 -0.025,1.328 -0.05,2.657 -0.075,3.987 4.281,1.031 6.397,3.651 5.783,8.118 -3.169,23.053 -2.881,46.183 -2.591,69.394 0.13,10.466 1.762,21.548 -3.312,31.658 0.015,1.58 0.03,3.159 0.045,4.738 2.974,8.677 2.341,17.364 0.073,26.055 -0.087,2.015 -0.174,4.031 -0.26,6.044 2.407,8.769 3.39,17.55 0.187,26.36 -0.098,1.534 -0.196,3.069 -0.295,4.604 4.032,22.105 2.69,44.261 0.641,66.423 0.257,4.814 0.514,9.628 0.771,14.441 4.597,12.503 4.09,25.181 1.291,37.937 0.329,3.9 0.658,7.801 0.986,11.7 4.467,13.446 4.543,27.289 3.701,41.215 0.321,2.25 0.643,4.501 0.965,6.752 C -9.447,-22.562 -5.566,-10.807 0,0" style="fill:#0c2f31;fill-opacity:1;fill-rule:nonzero;stroke:none" transform="matrix(1.3333333,0,0,-1.3333333,376.1524,167.1304)" />
      <path id="path15" d="m 0,0 c -1.428,-60.709 -0.25,-129.497 0.069,-198.284 0.179,-38.518 0.771,-77.064 -0.379,-115.551 -1.205,-40.345 -1.037,-80.655 -0.483,-120.984 0.136,-9.905 -6.745,-12.146 -14.191,-12.196 -11.717,-0.078 -23.467,0.728 -35.16,1.68 -25.569,2.082 -51.165,0.018 -76.735,0.846 -21.305,0.689 -23.681,3.495 -23.984,24.288 -0.365,25.039 -2.021,50.066 -2.099,75.101 -0.07,22.443 1.598,44.886 1.864,67.337 0.427,36.021 0.272,72.049 0.466,108.074 0.327,60.46 0.472,120.931 0.815,181.38 0.292,51.501 2.008,103.214 -2.6,154.757 -1.71,19.13 -1.215,38.489 -1.083,57.738 0.057,8.363 3.436,13.892 13.861,13.502 31.022,-1.161 62.098,1.388 93.144,-1.631 9.915,-0.965 20.155,0 30.109,1.207 11.144,1.351 15.381,-3.455 15.461,-13.888 0.248,-32.317 0.757,-64.632 0.887,-96.949 C 0.121,86.977 0,47.526 0,0" style="fill:#0c2f31;fill-opacity:1;fill-rule:nonzero;stroke:none" transform="matrix(1.3333333,0,0,-1.3333333,850.4688,654.70613)" />
    </g></svg>