<?xml version='1.0' encoding='utf-8'?>
<svg xmlns="http://www.w3.org/2000/svg" version="1.1" width="153.428" height="171.055" viewBox="1722.210 1572.810 153.428 171.055"><defs id="defs1"><clipPath clipPathUnits="userSpaceOnUse" id="clipPath46">
      <path d="M 0,3370.3901 H 2383.9401 V -2.5000001e-5 H 0 Z" id="path46" />
    </clipPath>
  </defs><g id="object"><path id="path27" d="m 0,0 c 0.001,-8.749 0.737,-17.577 -0.202,-26.224 -0.976,-8.995 5.502,-22.182 -4.978,-25.952 -8.679,-3.122 -16.202,8.361 -23.362,14.282 -11.436,9.459 -21.603,20.435 -32.749,30.268 -5,4.411 -10.413,10.995 -18.152,6.924 -6.429,-3.382 -4.464,-10.785 -4.678,-16.687 -0.379,-10.487 -0.076,-21.001 -0.516,-31.484 -0.266,-6.319 -1.789,-12.794 -9.694,-13.254 -8.243,-0.479 -10.257,6.048 -10.325,12.335 -0.33,30.61 -1.02,61.253 0.067,91.826 0.568,15.976 9.514,10.751 17.106,4.052 15.734,-13.881 31.716,-27.504 46.988,-41.879 13.24,-12.461 19.469,-7.83 21.816,7.844 1.032,6.888 0.639,13.985 1.601,20.889 1.229,8.835 -3.974,24.374 7.877,24.198 C 4.806,56.93 -1.124,40.89 -0.228,31.474 0.763,21.07 -0.001,10.499 0,0" style="fill:#424242;fill-opacity:1;fill-rule:nonzero;stroke:none" transform="matrix(1.3333333,0,0,-1.3333333,1868.4469,1654.9988)" />
      </g></svg>