<?xml version='1.0' encoding='utf-8'?>
<svg xmlns="http://www.w3.org/2000/svg" version="1.1" width="170.268" height="168.477" viewBox="1301.220 525.724 170.268 168.477"><g id="object"><path id="path33" d="m 0,0 c -0.103,-10.658 0.891,-21.194 2.807,-31.697 0.994,-5.445 3.867,-7.779 9.068,-7.862 1.882,-0.03 3.784,-0.072 5.646,0.148 11.666,1.381 16.525,1.463 15.441,19.177 -0.796,12.997 4.504,24.437 10.315,35.613 2.281,4.388 4.908,8.596 7.188,12.985 2.217,4.269 4.851,6.847 10.001,8.704 17.887,6.45 23.531,-3.003 21.108,-18.044 -3.786,-23.496 -0.517,-46.982 -1.939,-70.439 -0.427,-7.042 -1.366,-13.861 -2.441,-20.747 -0.314,-2.016 -1.264,-3.477 -3.206,-4.294 -10.633,-4.477 -23.387,-0.165 -30.131,9.296 -2.886,4.048 -2.39,11.138 -8.535,12.029 -4.894,0.71 -9.397,-2.788 -14.157,-4.143 -9.709,-2.763 -19.066,-6.48 -29.605,-6.15 -12.012,0.377 -22.538,9.182 -25.236,21.168 -3.38,15.015 -4.567,29.66 0.529,44.565 1.763,5.157 0.106,10.812 -0.803,16.163 -1.815,10.674 1.103,14.522 14.383,18.5 8.472,2.538 12.888,-0.181 16.933,-9.18 C 1.152,17.369 0.275,8.709 0,0" style="fill:#d2d5d9;fill-opacity:1;fill-rule:nonzero;stroke:none" transform="matrix(1.3333333,0,0,-1.3333333,1356.0095,583.89213)" />
      </g></svg>