<?xml version='1.0' encoding='utf-8'?>
<svg xmlns="http://www.w3.org/2000/svg" version="1.1" width="1051.939" height="608.602" viewBox="217.954 1175.770 1051.939 608.602"><defs id="defs1"><clipPath clipPathUnits="userSpaceOnUse" id="clipPath29">
      <path d="M 0,3370.3901 H 2383.9401 V -2.5000001e-5 H 0 Z" id="path29" />
    </clipPath>
  </defs><g id="object"><path id="path5" d="m 0,0 c 2.006,-31.055 -21.456,-34.016 -36.973,-44.259 -9.15,-6.039 -19.759,-10.011 -29.994,-14.23 -18.542,-7.644 -30.976,-18.482 -26.624,-41.196 1.627,-8.492 1.986,-18.807 -10.624,-19.816 -14.796,-1.184 -9.502,11.113 -11.208,18.549 -0.349,1.52 0.122,3.234 -0.261,4.736 -6.102,23.906 -2.499,41.01 24.951,50.24 18.224,6.128 28.988,26.006 48.395,33.58 11.071,4.321 5.457,13.204 -3.255,16.943 -14.822,6.362 -18.573,16.008 -10.147,29.734 4.701,7.658 3.877,14.051 -4.222,17.559 -15.405,6.673 -15.699,20.155 -12.552,32.175 4.782,18.263 3.969,35.712 0.547,53.771 -2.301,12.137 0.189,23.554 8.824,33.265 10.259,11.538 13.692,26.698 20.238,40.185 7.77,16.005 16.822,30.475 32.861,39.456 11.493,6.436 18.759,16.29 24.174,28.301 5.574,12.363 15.776,21.638 29.782,19.211 12.483,-2.164 24.095,-9.172 26.135,-24.066 0.695,-5.077 2.638,-8.922 5.869,-12.55 5.346,-6.003 11.23,-11.733 3.494,-20.338 -5.963,-6.634 -11.251,-12.224 -21.824,-11.241 -25.839,2.4 -29.621,-2.323 -30.922,-27.492 -1.402,-27.144 2.81,-50.166 24.988,-70.035 16.625,-14.892 26.29,-36.629 34.201,-59.572 -14.062,7.195 -26.138,13.662 -31.445,29.971 -4.316,13.263 -18.527,18.075 -30.285,23.96 -2.461,1.232 -6.519,0.911 -9.202,-0.216 -11.808,-4.959 -23.71,-53.68 -15.99,-64.39 0.926,-1.284 1.838,-2.685 3.067,-3.627 47.145,-36.126 45.93,-84.266 33.675,-135.177 -1.112,-4.621 -2.375,-9.24 -3.021,-13.935 -3.565,-25.924 2.015,-33.95 28.36,-37.45 8.75,-1.163 14.487,-5.492 14.507,-12.528 0.019,-6.606 -8.384,-4.989 -13.524,-5.917 -0.773,-0.14 -1.586,-0.04 -2.374,-0.119 -54.634,-5.49 -54.108,-5.511 -52.046,48.118 1.001,26.053 -3.208,52.26 2.433,78.223 C 11.303,-14.217 7.978,-9.62 0,0" style="fill:#251d16;fill-opacity:1;fill-rule:nonzero;stroke:none" transform="matrix(1.3333333,0,0,-1.3333333,1149.4227,1579.8897)" />
      <path id="path8" d="m 0,0 c -24.15,-4.335 -37.017,11.955 -49.667,27.723 -3.868,4.822 0.64,12.028 4.095,13.444 12.546,5.138 18.433,16.997 27.976,25.032 30.008,25.267 30.794,34.907 7.644,67.455 -20.158,28.342 -18.861,33.445 -1.192,63.645 31.708,54.197 78.332,87.721 137.202,106.583 14.281,4.576 27.55,4.764 37.102,-6.434 9.887,-11.589 14.357,-27.187 10.777,-42.075 -3.035,-12.623 -12.148,-15.794 -25.664,-9.109 -26.739,13.225 -30.592,10.373 -32.926,-19.049 -3.851,-48.555 -2.569,-96.789 14.134,-143.108 8.159,-22.624 7.94,-44.854 3.235,-67.57 -1.268,-6.125 0.362,-16.918 -10.175,-14.955 -8.437,1.573 -18.3,8.901 -13.757,18.562 C 123.05,50.48 105.39,73.188 93.256,97.563 82.345,119.484 73.862,141.999 80.117,169.225 71.108,162.506 70.13,154.09 71.576,148.306 78.801,119.414 71.844,88.47 84.991,60.499 89.92,50.011 99.548,39.937 86.922,27.15 c -5.071,-5.137 1.524,-9.222 7.433,-11.028 4.963,-1.517 12.039,-1.959 9.852,-10.194 -1.774,-6.683 -6.132,-11.143 -13.604,-10.902 -11.87,0.383 -23.728,1.118 -35.597,1.56 -11.264,0.42 -14.514,6.21 -13.66,17.065 1.053,13.39 0.437,26.912 0.525,40.377 C 41.95,66.241 36.995,67.776 27.607,60.984 23.132,57.747 18.518,53.686 13.401,52.555 0.676,49.741 -12.255,43.489 -17.355,33.68 -24.505,19.928 -4.13,16.493 -0.069,5.762 0.438,4.422 0,2.723 0,0" style="fill:#251d16;fill-opacity:1;fill-rule:nonzero;stroke:none" transform="matrix(1.3333333,0,0,-1.3333333,292.1592,1750.6171)" />
      <path id="path9" d="m 0,0 c -26.537,-9.364 -47.942,-4.318 -68.94,-4.441 -12.501,-0.072 -11.042,10.476 -8.264,17.44 11.647,29.189 6.001,63.616 27.736,89.74 7.978,9.588 -1.353,14.625 -7.436,18.602 -10.184,6.657 -9.981,-2.963 -10.56,-8.593 -1.224,-11.911 -9.512,-17.585 -18.407,-23.137 -14.111,-8.806 -28.353,-17.428 -42.15,-26.706 -25.715,-17.292 -27.096,-26.412 -8.827,-51.844 2.239,-3.116 4.222,-6.415 6.635,-10.105 -28.272,-2.757 -43.336,6.454 -52.094,30.382 -2.872,7.85 -1.177,13.879 5.021,18.981 23.163,19.067 37.402,47.535 65.079,61.829 6.064,3.133 6.758,8.088 5.476,14.055 -4.097,19.082 -2.591,39.461 -14.595,56.714 -5.058,7.269 -7.603,16.751 -3.913,25.017 11.018,24.681 8.246,51.396 12.754,76.998 7.539,42.82 27.57,78.849 58.144,109.295 12.817,12.763 29.19,15.065 43.583,6.65 C 3.917,392.296 7.1,375.238 5.977,358.858 5.108,346.184 -5.119,344.476 -15.147,345.459 c -21.27,2.085 -26.993,-6.428 -20.881,-26.463 3.475,-11.392 1.901,-23.178 -2.378,-34.912 -2.432,-6.667 -9.766,-15.972 -2.607,-21.509 7.304,-5.649 18.796,-5.366 27.212,-0.285 10.263,6.196 17.521,9.458 22.033,-5.653 1.852,-6.206 17.095,-6.7 8.71,-17.627 -6.718,-8.755 -15.931,-8.1 -25.895,-4.889 -17.049,5.493 -33.246,8.721 -46.673,-9.618 -11.886,-16.235 -16.391,-29.864 1.942,-43.973 3.66,-2.816 5.809,-7.509 9.064,-10.949 C -11.473,134.554 -8.094,97.976 -33.318,55.854 -54.092,21.162 -51.972,19.896 -13.386,5.281 -10.561,4.212 -7.765,3.067 0,0" style="fill:#251d16;fill-opacity:1;fill-rule:nonzero;stroke:none" transform="matrix(1.3333333,0,0,-1.3333333,993.08867,1756.7583)" />
      <path id="path10" d="m 0,0 c -10.062,1.467 -21.044,0.861 -29.993,4.834 -18.522,8.223 -23.295,31.932 -11.704,49.292 11.065,16.572 24.248,31.3 38.744,44.901 17.978,16.867 18.313,38.287 -0.044,56.048 -8.417,8.144 -14.412,16.604 -13.895,28.784 3.343,78.759 28.159,147.05 96.074,193.448 7.749,5.294 17.088,14.658 29.305,3.734 14.233,-12.727 25.372,-27.058 23.946,-46.381 -0.744,-10.076 -12.281,-12.405 -21.004,-10.289 -25.635,6.219 -32.473,-4.716 -28.793,-28.234 1.366,-8.728 -0.897,-17.884 -7.554,-24.248 -15.506,-14.824 -12.701,-31.366 -4.853,-47.964 8.113,-17.157 17.713,-33.604 26.076,-50.651 6.68,-13.618 11.531,-27.91 9.195,-43.493 -0.577,-3.848 -2.059,-8.287 -6.594,-8.689 -5.072,-0.449 -5.835,4.068 -6.738,7.998 -1.201,5.225 -2.735,10.372 -3.973,15.59 -4.038,17.018 -10.278,32.616 -29.192,41.779 C 80.341,142.335 70.67,94.967 76.592,49.299 78.859,31.815 87.423,26.012 103.655,28.933 113.197,30.65 122.209,30.674 121.201,17.677 120.421,7.627 115.401,0.97 103.358,-0.046 68.33,-3.001 64.38,-0.82 53.336,32.765 51.358,38.78 48.762,44.591 46.796,50.609 34.405,88.546 34.439,88.555 1.238,64.478 -1.325,62.619 -4.016,60.926 -6.501,58.97 -29.327,41.005 -29.801,35.121 -9.832,14.802 -6.088,10.993 -1.868,7.651 2.132,4.094 1.421,2.729 0.711,1.365 0,0" style="fill:#251d16;fill-opacity:1;fill-rule:nonzero;stroke:none" transform="matrix(1.3333333,0,0,-1.3333333,580.6044,1758.5139)" />
      </g></svg>