<?xml version='1.0' encoding='utf-8'?>
<svg xmlns="http://www.w3.org/2000/svg" version="1.1" width="1544.780" height="2933.310" viewBox="1598.230 49.733 1544.780 2933.310"><g id="object"><path id="path3" d="m 0,0 c 0,166.943 0.072,333.887 -0.255,500.83 -0.013,6.857 -4.631,19.785 -5.643,19.641 -13.787,-1.966 -6.845,-13.385 -6.853,-20.307 -0.395,-332.806 -0.334,-665.612 -0.322,-998.418 0,-3.782 -0.759,-7.792 0.259,-11.28 0.986,-3.382 3.808,-6.229 5.824,-9.311 2.314,3.304 5.832,6.335 6.654,9.976 1.161,5.145 0.35,10.74 0.35,16.142 C 0.017,-328.485 0.016,-164.242 0,0 m -13.1,-542.146 c 0,-9.893 0,-17.37 0,-24.847 0.002,-344.37 -0.034,-688.74 0.272,-1033.11 0.007,-7.382 3.953,-14.762 6.062,-22.143 2.259,7.212 6.486,14.423 6.493,21.637 0.339,337.882 0.311,675.765 0.329,1013.648 0,5.406 -1.455,11.458 0.507,16.036 1.972,4.603 6.967,8.356 11.432,11.261 2.295,1.492 6.32,0.353 9.563,0.353 174.618,0.008 349.236,0.015 523.854,0.007 22.399,-10e-4 22.475,-0.037 22.476,-21.692 0.016,-348.154 -0.108,-696.309 0.377,-1044.462 0.023,-16.573 -4.573,-20.753 -20.879,-20.733 -369.238,0.454 -738.476,0.454 -1107.714,0.013 -16.115,-0.02 -21.005,3.711 -20.994,20.545 0.449,716.302 0.392,1432.606 0.413,2148.909 0,21.445 0.071,21.472 21.074,21.474 368.157,0.02 736.313,0.035 1104.47,0.043 23.261,0 23.281,-0.036 23.281,-22.53 -0.001,-346.532 -0.004,-693.065 -0.019,-1039.597 -0.001,-24.761 -0.045,-24.783 -24.103,-24.785 -178.943,-0.015 -357.886,-0.019 -536.828,-0.027 -5.872,0 -11.743,0 -20.066,0" style="fill:#231916;fill-opacity:1;fill-rule:nonzero;stroke:none" transform="matrix(1.3333333,0,0,-1.3333333,2379.3268,782.12387)" />
      </g></svg>