<?xml version='1.0' encoding='utf-8'?>
<svg xmlns="http://www.w3.org/2000/svg" version="1.1" width="97.566" height="144.287" viewBox="194.579 4057.400 97.566 144.287"><g id="object"><path id="path81" d="m 0,0 c 1.005,7.728 2.145,15.308 2.906,22.925 0.295,2.956 -0.207,6.002 -0.46,8.997 -0.135,1.59 -2.538,2.489 -3.957,1.532 -4.709,-3.18 -8.539,-7.238 -11.372,-12.132 -0.808,-1.396 -1.103,-3.273 -1.093,-4.927 C -13.923,7.765 -10.538,3.722 0,0 M 30.828,39.327 C 31.267,33.979 30.801,29.69 29.488,25.56 25.381,12.645 17.926,1.602 9.924,-9.143 c -5.539,-7.437 -12.977,-7.983 -20.813,-5.403 -11.291,3.718 -23.55,15.537 -22.194,31.085 1.918,21.994 10.765,39.506 28.073,52.932 5.442,4.222 10.86,8.482 16.41,12.558 2.673,1.964 5.812,1.497 8.187,-0.7 2.95,-2.729 4.761,-6.286 5.689,-9.971 2.733,-10.845 5.452,-21.733 5.552,-32.031" style="fill:#494643;fill-opacity:1;fill-rule:nonzero;stroke:none" transform="matrix(1.3333333,0,0,-1.3333333,244.8268,4174.4275)" />
      </g></svg>