<?xml version='1.0' encoding='utf-8'?>
<svg xmlns="http://www.w3.org/2000/svg" version="1.1" width="697.419" height="105.923" viewBox="1213.860 4035.390 697.419 105.923"><defs id="defs1"><clipPath clipPathUnits="userSpaceOnUse" id="clipPath29">
      <path d="M 0,3370.3901 H 2383.9401 V -2.5000001e-5 H 0 Z" id="path29" />
    </clipPath>
  </defs><g id="object"><path id="path20" d="m 4.0771734,-3.1986 c 3.4921875,2.3203125 10.3828126,4.171875 16.6874996,4.171875 15.421875,0 22.898438,-8.7304687 22.898438,-18.832031 0,-9.597656 -5.625,-14.941406 -16.6875,-19.207031 -9.023438,-3.492188 -13.007813,-6.503907 -13.007813,-12.609375 0,-4.464844 3.398438,-9.808594 12.328125,-9.808594 5.917969,0 10.289063,1.945312 12.421875,3.105469 l 2.320313,-6.890625 c -2.90625,-1.640625 -7.757813,-3.199219 -14.449219,-3.199219 -12.714844,0 -21.1523436,7.570312 -21.1523436,17.753906 0,9.222656 6.5976566,14.753906 17.2734376,18.539063 8.824219,3.398437 12.316406,6.890625 12.316406,12.996093 0,6.597657 -5.039062,11.167969 -13.675781,11.167969 -5.824219,0 -11.3554688,-1.9453125 -15.1406251,-4.277344 z M 84.321314,6.1875e-4 h 8.449219 V -24.936881 l 6.210937,-7.183594 21.53906,32.12109375 h 9.9961 l -25.52344,-37.65234375 23.67187,-27.75 H 118.1885 l -19.992186,24.550781 c -1.640625,2.132813 -3.386719,4.464844 -5.144531,6.984375 h -0.28125 v -31.535156 h -8.449219 z m 104.124026,0 V -27.843131 l 21.92578,-37.558594 h -9.60938 l -9.41015,18.046875 c -2.51953,4.957031 -4.7461,9.222656 -6.59766,13.488281 h -0.1875 c -2.03906,-4.558593 -3.98437,-8.53125 -6.5039,-13.488281 l -9.22266,-18.046875 h -9.59766 l 20.66016,37.652344 V 6.1875e-4 Z m 57.83203,0 h 8.44922 V -29.589225 h 24.73828 v -6.996094 h -24.73828 v -21.726562 h 26.77734 v -7.089844 H 246.27737 Z M 348.84866,-20.565787 355.83303,6.1875e-4 h 9.02344 L 342.54397,-65.401725 H 332.34866 L 310.12991,6.1875e-4 h 8.73047 l 6.79687,-20.56640575 z m -21.44531,-6.597657 6.39843,-18.925781 c 1.26563,-3.972656 2.33203,-7.957031 3.30469,-11.835937 h 0.1875 c 0.97266,3.785156 1.94531,7.664062 3.39844,11.929687 l 6.41015,18.832031 z M 403.57229,6.1875e-4 h 36.38672 V -7.0775062 h -27.9375 V -65.401725 h -8.44922 z m 74.91211,0 h 36.38672 V -7.0775062 h -27.9375 V -65.401725 h -8.44922 z m 0,0" style="fill:#231916;fill-opacity:1;fill-rule:nonzero;stroke:none" aria-label="SKYFALL" transform="matrix(1.3333333,0,0,1.3333333,1216.7708,4132.0148)" />
      <path id="path21" d="m 0,0 c 3.493,-2.329 10.383,-4.173 16.69,-4.173 15.429,0 22.901,8.734 22.901,18.825 0,9.608 -5.628,14.945 -16.691,19.214 -9.024,3.493 -13.003,6.501 -13.003,12.614 0,4.464 3.397,9.801 12.324,9.801 5.92,0 10.286,-1.94 12.421,-3.104 l 2.329,6.889 c -2.911,1.65 -7.763,3.203 -14.459,3.203 -12.711,0 -21.154,-7.57 -21.154,-17.758 0,-9.219 6.599,-14.75 17.273,-18.534 8.83,-3.397 12.324,-6.89 12.324,-13.003 0,-6.599 -5.046,-11.16 -13.683,-11.16 -5.822,0 -11.353,1.941 -15.137,4.27 z" style="fill:none;stroke:#231916;stroke-width:3;stroke-linecap:butt;stroke-linejoin:miter;stroke-miterlimit:10;stroke-dasharray:none;stroke-opacity:1" transform="matrix(1.3333333,0,0,-1.3333333,1222.2051,4127.7452)" />
      <path id="path22" d="m 0,0 h 8.442 v 24.938 l 6.21,7.181 L 36.195,0 h 9.994 L 20.668,37.65 44.346,65.403 H 33.866 L 13.876,40.853 C 12.227,38.718 10.48,36.389 8.733,33.866 H 8.442 v 31.537 l -8.442,0 z" style="fill:none;stroke:#231916;stroke-width:3;stroke-linecap:butt;stroke-linejoin:miter;stroke-miterlimit:10;stroke-dasharray:none;stroke-opacity:1" transform="matrix(1.3333333,0,0,-1.3333333,1329.2037,4132.0148)" />
      <path id="path23" d="M 0,0 V 27.85 L 21.93,65.403 H 12.324 L 2.911,47.354 C 0.388,42.405 -1.844,38.136 -3.688,33.866 h -0.194 c -2.037,4.561 -3.978,8.539 -6.501,13.488 l -9.219,18.049 h -9.606 L -8.54,27.753 V 0 Z" style="fill:none;stroke:#231916;stroke-width:3;stroke-linecap:butt;stroke-linejoin:miter;stroke-miterlimit:10;stroke-dasharray:none;stroke-opacity:1" transform="matrix(1.3333333,0,0,-1.3333333,1468.0319,4132.0148)" />
      <path id="path24" d="m 0,0 h 8.442 v 29.597 h 24.745 v 6.986 H 8.442 v 21.736 h 26.782 v 7.084 H 0 Z" style="fill:none;stroke:#231916;stroke-width:3;stroke-linecap:butt;stroke-linejoin:miter;stroke-miterlimit:10;stroke-dasharray:none;stroke-opacity:1" transform="matrix(1.3333333,0,0,-1.3333333,1545.1439,4132.0148)" />
      <path id="path25" d="m 0,0 6.987,-20.572 h 9.024 L -6.307,44.831 h -10.189 l -22.222,-65.403 h 8.734 L -23.192,0 Z m -21.445,6.598 6.404,18.923 c 1.262,3.978 2.329,7.957 3.3,11.837 h 0.194 c 0.97,-3.784 1.941,-7.665 3.396,-11.935 L -1.747,6.598 Z" style="fill:none;stroke:#231916;stroke-width:3;stroke-linecap:butt;stroke-linejoin:miter;stroke-miterlimit:10;stroke-dasharray:none;stroke-opacity:1" transform="matrix(1.3333333,0,0,-1.3333333,1681.9024,4104.5851)" />
      <path id="path26" d="M 0,0 H 36.389 V 7.084 H 8.442 V 65.403 H 0 Z" style="fill:none;stroke:#231916;stroke-width:3;stroke-linecap:butt;stroke-linejoin:miter;stroke-miterlimit:10;stroke-dasharray:none;stroke-opacity:1" transform="matrix(1.3333333,0,0,-1.3333333,1754.8744,4132.0148)" />
      <path id="path27" d="M 0,0 H 36.389 V 7.084 H 8.442 V 65.403 H 0 Z" style="fill:none;stroke:#231916;stroke-width:3;stroke-linecap:butt;stroke-linejoin:miter;stroke-miterlimit:10;stroke-dasharray:none;stroke-opacity:1" transform="matrix(1.3333333,0,0,-1.3333333,1854.7559,4132.0148)" />
      </g></svg>