<?xml version='1.0' encoding='utf-8'?>
<svg xmlns="http://www.w3.org/2000/svg" version="1.1" width="91.871" height="44.165" viewBox="188.930 405.863 91.871 44.165"><g id="object"><path id="path37" d="m 7.2313984,-7.7698406 c 0,4.4648437 -1.5585937,5.6367187 -4.1953125,5.6367187 -0.9726562,0 -1.8515625,-0.1992187 -2.46093746,-0.4335937 l -0.43359375,2.40234372 c 0.73828125,0.3046875 2.05078121,0.5390625 3.12890621,0.5390625 3.9257813,0 6.8906251,-1.86328122 6.8906251,-7.89843752 V -22.758122 H 7.2313984 Z M 21.84175,-3.09375e-4 25.087844,-11.847966 c 0.84375,-2.941406 1.347656,-5.167968 1.746093,-7.429687 h 0.07031 c 0.304687,2.296875 0.773437,4.523437 1.488281,7.429687 l 2.871094,11.847656625 h 3.070312 L 40.77925,-22.758122 h -3 l -3.011719,11.484375 c -0.703125,2.8359376 -1.347656,5.3671876 -1.816406,7.8632814 h -0.07031 C 32.540972,-5.8128094 31.931597,-8.5081219 31.298784,-11.203434 L 28.52144,-22.758122 h -3.070312 l -3.035156,11.484375 c -0.773438,2.9296876 -1.488282,5.6367189 -1.851563,7.8984376 h -0.07031 c -0.410157,-2.1914062 -1.019532,-5.0273437 -1.6875,-7.8632816 l -2.707032,-11.519531 h -3.105468 l 5.777343,22.757812625 z m 27.210937,0 h 2.964844 V -20.262028 h 6.960938 v -2.496094 H 42.126906 v 2.496094 h 6.925781 z m 0,0" style="fill:#231916;fill-opacity:1;fill-rule:nonzero;stroke:none" aria-label="JWT" transform="matrix(1.3333333,0,0,1.3333333,195.50267,442.8676)" />
      <path id="path38" d="m 0,0 c 0,-4.456 -1.553,-5.637 -4.186,-5.637 -0.979,0 -1.856,0.202 -2.464,0.438 l -0.439,-2.396 c 0.743,-0.304 2.059,-0.54 3.139,-0.54 3.916,0 6.887,1.856 6.887,7.899 V 14.989 H 0 Z" style="fill:none;stroke:#231916;stroke-width:1;stroke-linecap:butt;stroke-linejoin:miter;stroke-miterlimit:10;stroke-dasharray:none;stroke-opacity:1" transform="matrix(1.3333333,0,0,-1.3333333,205.1348,432.51547)" />
      <path id="path39" d="m 0,0 3.241,11.849 c 0.844,2.937 1.35,5.165 1.755,7.427 H 5.064 C 5.368,16.98 5.84,14.752 6.549,11.849 L 9.418,0 h 3.072 l 6.448,22.753 H 15.934 L 12.929,11.275 C 12.22,8.439 11.579,5.908 11.106,3.41 H 11.039 C 10.701,5.806 10.094,8.507 9.452,11.208 L 6.684,22.753 H 3.612 L 0.574,11.275 C -0.202,8.338 -0.911,5.638 -1.283,3.376 H -1.35 c -0.405,2.194 -1.013,5.03 -1.688,7.865 L -5.739,22.753 H -8.844 L -3.072,0 Z" style="fill:none;stroke:#231916;stroke-width:1;stroke-linecap:butt;stroke-linejoin:miter;stroke-miterlimit:10;stroke-dasharray:none;stroke-opacity:1" transform="matrix(1.3333333,0,0,-1.3333333,224.624,442.8676)" />
      <path id="path40" d="m 0,0 h 2.971 v 20.255 h 6.954 v 2.498 H -6.92 V 20.255 H 0 Z" style="fill:none;stroke:#231916;stroke-width:1;stroke-linecap:butt;stroke-linejoin:miter;stroke-miterlimit:10;stroke-dasharray:none;stroke-opacity:1" transform="matrix(1.3333333,0,0,-1.3333333,260.90133,442.8676)" />
      </g></svg>