<?xml version='1.0' encoding='utf-8'?>
<svg xmlns="http://www.w3.org/2000/svg" version="1.1" width="982.715" height="3577.760" viewBox="2079.640 763.422 982.715 3577.760"><g id="object"><path id="path3" d="M 0,0 C 54.96,-0.258 99.218,42.194 100.413,96.315 101.611,150.539 56.477,196.284 1.352,196.717 -54.08,197.153 -98.752,152.861 -98.641,97.574 -98.532,43.484 -54.833,0.257 0,0 m -177.696,171.91 c -48.185,33.711 -98.72,31.59 -132.051,-4.428 -31.782,-34.345 -35.672,-96.248 -3.678,-130.263 14.634,-15.558 36.911,-26.657 57.782,-32.958 28.793,-8.694 55.387,3.413 80.472,26.232 1.88,-30.789 2.93,-58.064 -21.997,-74.377 -40.025,-26.193 -77.417,-12.71 -112.224,16.108 -7.913,-10.334 -14.606,-19.076 -24.506,-32.006 19.638,-9.506 35.392,-19.968 52.723,-25.02 69.198,-20.171 135.188,12.176 140.183,73.716 5.38,66.273 1.216,133.321 1.216,199.734 -29.975,6.11 -29.975,6.11 -37.92,-16.738 M -401.844,2235.502 H 326.192 V -438.82 h -728.036 z" style="fill:#781a22;fill-opacity:1;fill-rule:nonzero;stroke:none" transform="matrix(1.3333333,0,0,-1.3333333,2621.4323,3750.0915)" />
      <path id="path9" d="m 0,0 c 0.375,-39.013 24.656,-63.079 62.775,-62.219 36.333,0.819 60.209,26.24 59.516,63.367 C 121.567,39.984 96.584,65.973 60.488,65.441 23.852,64.901 -0.372,38.694 0,0 m 118.931,74.214 c 7.944,22.848 7.944,22.848 37.92,16.738 0,-66.412 4.164,-133.46 -1.216,-199.734 -4.996,-61.54 -70.985,-93.886 -140.183,-73.716 -17.331,5.053 -33.085,15.515 -52.723,25.02 9.899,12.93 16.593,21.673 24.505,32.007 34.808,-28.818 72.199,-42.302 112.225,-16.108 24.926,16.312 23.877,43.587 21.997,74.377 -25.086,-22.82 -51.68,-34.927 -80.473,-26.233 -20.87,6.302 -43.148,17.4 -57.782,32.959 -31.993,34.015 -28.103,95.918 3.679,130.263 33.331,36.017 83.866,38.138 132.051,4.427" style="fill:#ffffff;fill-opacity:1;fill-rule:nonzero;stroke:none" transform="matrix(1.3333333,0,0,-1.3333333,2225.93,3619.8311)" />
      <path id="path10" d="m 0,0 c -0.297,-39.234 23.543,-64.75 60.728,-65.001 36.074,-0.243 62.218,26.97 62.094,64.63 -0.126,37.977 -25.91,65.275 -61.58,65.195 C 24.405,64.741 0.297,39.222 0,0 M 60.264,-98.36 C 5.432,-98.103 -38.268,-54.876 -38.376,-0.786 -38.487,54.5 6.184,98.793 61.616,98.357 116.741,97.923 161.875,52.179 160.677,-2.045 159.482,-56.167 115.224,-98.618 60.264,-98.36" style="fill:#ffffff;fill-opacity:1;fill-rule:nonzero;stroke:none" transform="matrix(1.3333333,0,0,-1.3333333,2541.0801,3618.9443)" />
      <path id="path12" d="M 0,0 C -0.372,38.694 23.852,64.901 60.488,65.441 96.584,65.973 121.567,39.984 122.291,1.148 122.984,-35.979 99.108,-61.4 62.775,-62.219 24.656,-63.079 0.375,-39.013 0,0" style="fill:#781a22;fill-opacity:1;fill-rule:nonzero;stroke:none" transform="matrix(1.3333333,0,0,-1.3333333,2225.93,3619.8311)" />
      <path id="path13" d="m 0,0 c 0.297,39.222 24.405,64.741 61.242,64.824 35.67,0.08 61.454,-27.218 61.58,-65.195 0.124,-37.66 -26.02,-64.873 -62.094,-64.63 C 23.543,-64.75 -0.297,-39.234 0,0" style="fill:#781a22;fill-opacity:1;fill-rule:nonzero;stroke:none" transform="matrix(1.3333333,0,0,-1.3333333,2541.0801,3618.9443)" />
      </g></svg>