<?xml version='1.0' encoding='utf-8'?>
<svg xmlns="http://www.w3.org/2000/svg" version="1.1" width="396.189" height="197.296" viewBox="1710.610 1711.790 396.189 197.296"><g id="object"><path id="path46" d="M 109.14965,-65.601419 H 68.005116 v 12.972656 h 25.394531 v 37.253907 c -3.714844,1.851562 -10.933594,3.328125 -21.503906,3.328125 -29.085938,0 -48.175782,-18.714844 -48.175782,-50.402344 0,-31.3125 19.828125,-50.214845 50.214844,-50.214845 12.609375,0 20.941406,2.40234 27.621097,5.36719 l 3.89062,-13.14844 c -5.3789,-2.60156 -16.687498,-5.75391 -31.136717,-5.75391 -41.882812,0 -67.4531249,27.246099 -67.6406249,64.488286 0,19.464844 6.6796879,36.140625 17.4257809,46.511719 12.222657,11.6835937 27.796875,16.5 46.699219,16.5 16.863281,0 31.125002,-4.265625 38.355472,-6.8554688 z m 24.6416,-59.296871 V 1.4375e-4 h 16.125 V -124.89829 Z m 94.87793,-2.03907 c -33.36328,0 -58.00781,25.94532 -58.00781,65.601566 0,37.804688 23.16796,63.3750002 56.15625,63.3750002 31.86328,0 57.99609,-22.7929692 57.99609,-65.7890622 0,-37.054684 -22.05469,-63.187504 -56.14453,-63.187504 z m -0.75,13.16016 c 26.87109,0 39.84375,25.945312 39.84375,50.777344 0,28.347656 -14.44922,51.878906 -40.01953,51.878906 -25.39453,0 -39.84375,-23.90625 -39.84375,-50.589844 0,-27.421875 13.33593,-52.066406 40.01953,-52.066406 z m 0,0" style="fill:#848078;fill-opacity:1;fill-rule:nonzero;stroke:none" aria-label="GIO" transform="matrix(1.3333333,0,0,1.3333333,1714.3812,1893.7029)" />
      <path id="path47" d="m 0,0 h -41.137 v -12.971 h 25.387 v -37.246 c -3.707,-1.853 -10.934,-3.336 -21.496,-3.336 -29.093,0 -48.179,18.716 -48.179,50.403 0,31.317 19.827,50.217 50.217,50.217 12.601,0 20.94,-2.409 27.611,-5.374 l 3.891,13.157 c -5.374,2.594 -16.677,5.745 -31.131,5.745 -41.879,0 -67.451,-27.24 -67.636,-64.486 0,-19.457 6.671,-36.135 17.418,-46.512 12.231,-11.674 27.796,-16.492 46.697,-16.492 16.863,0 31.131,4.262 38.358,6.856 z" style="fill:none;stroke:#848078;stroke-width:10;stroke-linecap:butt;stroke-linejoin:miter;stroke-miterlimit:10;stroke-dasharray:none;stroke-opacity:1" transform="matrix(1.3333333,0,0,-1.3333333,1859.9065,1806.2395)" />
      <path id="path48" d="M 0,0 V -124.895 H 16.122 V 0 Z" style="fill:none;stroke:#848078;stroke-width:10;stroke-linecap:butt;stroke-linejoin:miter;stroke-miterlimit:10;stroke-dasharray:none;stroke-opacity:1" transform="matrix(1.3333333,0,0,-1.3333333,1892.7667,1727.1763)" />
      <path id="path49" d="m 0,0 c -33.355,0 -58,-25.943 -58,-65.598 0,-37.802 23.163,-63.374 56.147,-63.374 31.872,0 58,22.792 58,65.783 C 56.147,-26.128 34.096,0 0,0 Z m -0.741,-13.157 c 26.869,0 39.84,-25.942 39.84,-50.773 0,-28.352 -14.453,-51.885 -40.026,-51.885 -25.386,0 -39.84,23.904 -39.84,50.588 0,27.425 13.342,52.07 40.026,52.07 z" style="fill:none;stroke:#848078;stroke-width:10;stroke-linecap:butt;stroke-linejoin:miter;stroke-miterlimit:10;stroke-dasharray:none;stroke-opacity:1" transform="matrix(1.3333333,0,0,-1.3333333,2019.2672,1724.4581)" />
      </g></svg>