<?xml version='1.0' encoding='utf-8'?>
<svg xmlns="http://www.w3.org/2000/svg" version="1.1" width="111.453" height="59.984" viewBox="202.717 222.448 111.453 59.984"><defs id="defs1"><clipPath clipPathUnits="userSpaceOnUse" id="clipPath11">
      <path d="M -2297.4972,2808.5926 H 86.442877 V -561.79751 H -2297.4972 Z" id="path11" />
    </clipPath>
  </defs><g id="object"><path id="path8" d="m 0,0 c -8.967,0 -17.934,-0.02 -26.901,0.016 -1.865,0.007 -3.738,0.136 -5.59,0.353 -4.026,0.473 -5.306,2.241 -4.434,5.955 C -31.719,28.512 -8.674,41.067 12.7,33.388 25.778,28.691 33.175,18.925 37.077,6.081 38.144,2.569 36.602,0.498 32.495,0.33 23.538,-0.038 14.569,-0.13 5.605,-0.317 3.737,-0.356 1.868,-0.323 -0.001,-0.323 0,-0.215 0,-0.108 0,0" style="fill:#cf2727;fill-opacity:1;fill-rule:nonzero;stroke:none" transform="matrix(1.3333333,0,0,-1.3333333,258.2972,275.98387)" />
      </g></svg>