<?xml version='1.0' encoding='utf-8'?>
<svg xmlns="http://www.w3.org/2000/svg" version="1.1" width="116.643" height="198.434" viewBox="2617.040 2209.520 116.643 198.434"><defs id="defs1"><clipPath clipPathUnits="userSpaceOnUse" id="clipPath59">
      <path d="M 0,3370.3901 H 2383.9401 V -2.5000001e-5 H 0 Z" id="path59" />
    </clipPath>
  </defs><g id="object"><path id="path18" d="m 0,0 c -7.42,-42.478 -30.428,-74.344 -60.885,-101.599 -4.342,-3.886 -9.749,-4.933 -14.43,0.903 -5.055,6.301 -3.861,10.768 2.168,15.883 7.169,6.083 14.294,12.623 19.818,20.153 9.831,13.401 17.532,25.568 -5.765,36.419 -16.88,7.863 -20.642,25.755 -12.275,43.032 8.274,17.082 23.469,22.918 41.672,19.14 C -11.137,30.08 -1.787,17.647 0,0" style="fill:#ffffff;fill-opacity:1;fill-rule:nonzero;stroke:none" transform="matrix(1.3333333,0,0,-1.3333333,2727.6835,2262.2249)" />
      </g></svg>