<?xml version='1.0' encoding='utf-8'?>
<svg xmlns="http://www.w3.org/2000/svg" version="1.1" width="125.766" height="165.574" viewBox="2489.700 758.368 125.766 165.574"><g id="object"><path id="path80" d="m 0,0 c -2.494,0 -4.226,0.094 -5.944,-0.019 -3.962,-0.261 -5.425,-1.501 -5.766,-5.478 -0.848,-9.878 -1.54,-19.77 -2.243,-29.661 -1.01,-14.2 -2.037,-28.399 -2.918,-42.608 -0.24,-3.881 -1.365,-6.719 -7.74,-6.007 -5.811,0.648 -7.858,2.125 -9.1,7.452 -0.681,2.922 -0.967,5.961 -1.169,8.965 -0.783,11.631 -1.508,23.268 -2.166,34.908 -0.61,10.794 -1.501,21.553 -4.107,32.078 -1.192,4.815 -2.358,5.446 -7.278,4.907 C -60.094,3.26 -62.408,4.7 -63.89,15.89 c -2.158,16.306 -4.605,16.922 14.229,14.137 4.772,-0.705 9.276,-2.184 13.558,-4.209 6.18,-2.923 12.473,-3.754 18.762,-1.105 3.833,1.615 7.454,1.555 11.364,0.959 4.686,-0.713 9.424,-1.107 14.145,-1.581 2.617,-0.262 5.021,-0.928 7.257,-2.437 C 20.296,18.365 21.438,12.989 17.98,8.248 13.347,1.895 7.591,-2.052 0,0" style="fill:#494643;fill-opacity:1;fill-rule:nonzero;stroke:none" transform="matrix(1.3333333,0,0,-1.3333333,2582.8253,806.0976)" />
      </g></svg>