<?xml version='1.0' encoding='utf-8'?>
<svg xmlns="http://www.w3.org/2000/svg" version="1.1" width="114.581" height="203.444" viewBox="340.245 1742.950 114.581 203.444"><defs id="defs1"><clipPath clipPathUnits="userSpaceOnUse" id="clipPath59">
      <path d="M 0,3370.3901 H 2383.9401 V -2.5000001e-5 H 0 Z" id="path59" />
    </clipPath>
  </defs><g id="object"><path id="path10" d="m 0,0 c 21.656,4.687 27.509,-14.649 34.089,-29.103 7.314,-16.066 5.04,-32.322 -13.886,-41.375 -18.853,-9.017 -12.879,-22.709 -1.764,-30.534 9.237,-6.502 11.502,-15.846 17.815,-23.146 4.798,-5.549 5.542,-11.141 -0.739,-16.332 -5.794,-4.788 -10.358,-1.501 -14.485,2.449 -27.178,26.018 -56.583,50.331 -57.903,92.911 C -37.598,-21.721 -21.562,0.489 0,0" style="fill:#ffffff;fill-opacity:1;fill-rule:nonzero;stroke:none" transform="matrix(1.3333333,0,0,-1.3333333,395.44067,1749.9012)" />
      </g></svg>