<?xml version='1.0' encoding='utf-8'?>
<svg xmlns="http://www.w3.org/2000/svg" version="1.1" width="428.384" height="54.698" viewBox="193.409 458.256 428.384 54.698"><g id="object"><path id="path41" d="M 7.9696797,-8.203125e-4 H 10.840773 V -21.950039 H 8.3095234 l -4.7929687,2.566406 0.5742187,2.261719 3.8085938,-2.050781 h 0.070312 z m 19.0722653,0 h 2.941407 V -8.6726953 l 2.15625,-2.5078127 7.5,11.1796876875 h 3.46875 L 34.237258,-13.102383 l 8.238281,-9.65625 h -3.65625 l -6.949219,8.542969 c -0.574218,0.738281 -1.183593,1.558594 -1.792968,2.4375 h -0.09375 v -10.980469 h -2.941407 z m 18.527344,0 h 2.976563 V -9.8211328 c 0,-0.5156252 0.07031,-1.0195312 0.199218,-1.3828122 0.503907,-1.664063 2.027344,-3.046875 3.984375,-3.046875 2.800782,0 3.785157,2.191406 3.785157,4.8281247 v 9.4218749875 h 2.964843 V -9.7625391 c 0,-5.6015629 -3.503906,-6.9492189 -5.765625,-6.9492189 -2.707031,0 -4.59375,1.523438 -5.402343,3.070313 h -0.07031 l -0.164062,-2.695313 h -2.636719 c 0.09375,1.347656 0.128906,2.730469 0.128906,4.417969 z m 21.711914,0 V -16.336758 H 64.304641 V -8.203125e-4 Z M 65.792922,-22.793789 c -1.078125,0 -1.851563,0.808594 -1.851563,1.863281 0,1.007813 0.738282,1.816406 1.78125,1.816406 1.183594,0 1.933594,-0.808593 1.898438,-1.816406 0,-1.054687 -0.714844,-1.863281 -1.828125,-1.863281 z m 17.897461,6.457031 -0.140625,2.460938 h -0.05859 c -0.714844,-1.347657 -2.261719,-2.835938 -5.097656,-2.835938 -3.75,0 -7.371094,3.140625 -7.371094,8.6718752 0,4.5234375 2.90625,7.96874999 6.960938,7.96874999 2.53125,0 4.289062,-1.20703129 5.203125,-2.73046879 h 0.05859 v 1.81640629 c 0,4.12500001 -2.226562,5.70703121 -5.261718,5.70703121 -2.027344,0 -3.714844,-0.609375 -4.792969,-1.2773437 l -0.75,2.2617187 c 1.324219,0.8789063 3.480469,1.3476563 5.4375,1.3476563 2.0625,0 4.359375,-0.46875 5.941406,-1.9570313 1.59375,-1.4179687 2.332031,-3.7148437 2.332031,-7.4648437 v -9.4804692 c 0,-1.992187 0.07031,-3.316406 0.140625,-4.488281 z m -0.46875,9.3867189 c 0,0.5039063 -0.07031,1.078125 -0.246094,1.5820313 -0.632812,1.8867187 -2.296875,3.0351562 -4.113281,3.0351562 -3.210938,0 -4.828125,-2.6601562 -4.828125,-5.8710937 0,-3.7851567 2.027344,-6.1757817 4.863281,-6.1757817 2.15625,0 3.609375,1.417969 4.148438,3.140625 0.140625,0.398438 0.175781,0.84375 0.175781,1.3476567 z m 7.854492,6.9492187875 h 2.976562 V -9.8562891 c 0,-0.5742189 0.03516,-1.0195309 0.199219,-1.4179689 0.539063,-1.628906 2.0625,-2.976562 3.984375,-2.976562 2.800779,0 3.785159,2.226562 3.785159,4.8632809 v 9.3867187875 h 2.96484 V -9.7273828 c 0,-5.6367192 -3.50391,-6.9843752 -5.70703,-6.9843752 -1.113281,0 -2.15625,0.339844 -3.035156,0.84375 -0.914063,0.503906 -1.652344,1.253906 -2.121094,2.097656 H 94.05269 V -23.977383 H 91.076125 Z M 110.3564,-20.262539 v 3.925781 h -2.53125 v 2.261719 h 2.53125 v 8.9062499 c 0,1.921875 0.30469,3.375 1.14844,4.25390629 0.70312,0.80859375 1.8164,1.25390625 3.21093,1.25390625 1.14844,0 2.05078,-0.17578125 2.625,-0.41015625 l -0.1289,-2.22656249 c -0.375,0.1054687 -0.94922,0.1992187 -1.72266,0.1992187 -1.65234,0 -2.22656,-1.1484375 -2.22656,-3.1640625 v -8.8124999 h 4.2539 v -2.261719 h -4.2539 v -4.699219 z m 9.3457,19.48828119 c 1.14844,0.66796875 2.80078,1.11328125 4.59375,1.11328125 3.87891,0 6.11719,-2.02734374 6.11719,-4.89843754 0,-2.4257812 -1.45313,-3.84375 -4.28906,-4.9335937 -2.13282,-0.8085942 -3.10547,-1.4179692 -3.10547,-2.7656252 0,-1.21875 0.97265,-2.226562 2.73047,-2.226562 1.52343,0 2.70703,0.539062 3.33984,0.949218 l 0.75,-2.167968 c -0.91406,-0.539063 -2.36719,-1.007813 -4.01953,-1.007813 -3.51563,0 -5.63672,2.15625 -5.63672,4.792969 0,1.9570312 1.38281,3.5742187 4.3125,4.6289062 2.20313,0.8085937 3.04688,1.5820312 3.04688,3 0,1.3476562 -1.01954,2.4375 -3.17579,2.4375 -1.48828,0 -3.03515,-0.609375 -3.91406,-1.1835938 z m 16.9541,0.7734374975 0.12891,-2.6953124875 h 0.10547 c 1.21875,2.15624999 3.10547,3.07031249 5.47265,3.07031249 3.64454,0 7.32422,-2.90624999 7.32422,-8.74218749 0.0352,-4.9687502 -2.83593,-8.3437502 -6.89062,-8.3437502 -2.63672,0 -4.52344,1.183594 -5.56641,3 h -0.0703 v -10.265625 h -2.94141 v 19.7578127 c 0,1.453125 -0.0586,3.1054687 -0.1289,4.2187499875 z M 137.16011,-9.4930078 c 0,-0.46875 0.10547,-0.8671872 0.16406,-1.2070312 0.60938,-2.261719 2.50781,-3.644531 4.52344,-3.644531 3.17578,0 4.86328,2.800781 4.86328,6.0703122 0,3.75 -1.85156,6.28125 -4.95703,6.28125 -2.16797,0 -3.89063,-1.4179688 -4.46484,-3.4804688 -0.0586,-0.3398437 -0.12891,-0.703125 -0.12891,-1.078125 z m 16.26562,9.4921874875 h 2.94141 V -8.7078516 c 0,-0.515625 0.0703,-0.984375 0.12891,-1.3828124 0.41015,-2.238281 1.89843,-3.820313 3.98437,-3.820313 0.41016,0 0.71485,0.03516 1.01953,0.105469 v -2.800781 c -0.26953,-0.07031 -0.5039,-0.105469 -0.84375,-0.105469 -1.99218,0 -3.78515,1.382813 -4.52343,3.574219 h -0.14063 l -0.0937,-3.199219 h -2.60156 c 0.0937,1.511719 0.1289,3.164063 0.1289,5.097656 z m 14.15039,0 V -16.336758 h -2.97656 V -8.203125e-4 Z M 166.08784,-22.793789 c -1.07812,0 -1.85156,0.808594 -1.85156,1.863281 0,1.007813 0.73828,1.816406 1.78125,1.816406 1.18359,0 1.93359,-0.808593 1.89844,-1.816406 0,-1.054687 -0.71485,-1.863281 -1.82813,-1.863281 z m 17.55469,-1.183594 v 9.761719 h -0.0703 c -0.73828,-1.3125 -2.42578,-2.496094 -4.92188,-2.496094 -3.98437,0 -7.35937,3.339844 -7.33593,8.7773439 0,4.9570313 3.04687,8.30859379 6.99609,8.30859379 2.66016,0 4.65234,-1.38281249 5.56641,-3.21093749 h 0.0703 l 0.1289,2.8359374875 H 186.748 C 186.64253,-1.1141016 186.61909,-2.7664453 186.61909,-4.2195703 V -23.977383 Z m 0,17.1210939 c 0,0.46875 -0.0352,0.8789063 -0.12891,1.2890625 -0.55078,2.2265625 -2.36718,3.5390625 -4.35937,3.5390625 -3.21094,0 -4.82813,-2.7304687 -4.82813,-6.046875 0,-3.6093749 1.81641,-6.3046879 4.89844,-6.3046879 2.22656,0 3.84375,1.546875 4.28906,3.445313 0.0937,0.363281 0.12891,0.867187 0.12891,1.2421874 z m 19.37988,-9.4804689 -0.14062,2.460938 h -0.0586 c -0.71485,-1.347657 -2.26172,-2.835938 -5.09766,-2.835938 -3.75,0 -7.37109,3.140625 -7.37109,8.6718752 0,4.5234375 2.90625,7.96874999 6.96093,7.96874999 2.53125,0 4.28907,-1.20703129 5.20313,-2.73046879 h 0.0586 v 1.81640629 c 0,4.12500001 -2.22656,5.70703121 -5.26172,5.70703121 -2.02734,0 -3.71484,-0.609375 -4.79297,-1.2773437 l -0.75,2.2617187 c 1.32422,0.8789063 3.48047,1.3476563 5.4375,1.3476563 2.0625,0 4.35938,-0.46875 5.94141,-1.9570313 1.59375,-1.4179687 2.33203,-3.7148437 2.33203,-7.4648437 v -9.4804692 c 0,-1.992187 0.0703,-3.316406 0.14063,-4.488281 z m -0.46875,9.3867189 c 0,0.5039063 -0.0703,1.078125 -0.24609,1.5820313 -0.63281,1.8867187 -2.29687,3.0351562 -4.11328,3.0351562 -3.21094,0 -4.82813,-2.6601562 -4.82813,-5.8710937 0,-3.7851567 2.02735,-6.1757817 4.86329,-6.1757817 2.15625,0 3.60937,1.417969 4.14843,3.140625 0.14063,0.398438 0.17578,0.84375 0.17578,1.3476567 z m 20.99121,-0.6796875 c 0.0352,-0.3046875 0.10547,-0.7734375 0.10547,-1.3828125 0,-3.0117189 -1.41797,-7.6992189 -6.76172,-7.6992189 -4.75781,0 -7.66406,3.878906 -7.66406,8.8125002 0,4.921875 3.01172,8.23828124 8.03906,8.23828124 2.60157,0 4.39454,-0.5390625 5.4375,-1.01953125 l -0.5039,-2.12109379 c -1.11328,0.46875 -2.40235,0.84375 -4.52344,0.84375 -2.97656,0 -5.54297,-1.6523437 -5.61328,-5.671875 z m -11.44921,-2.1328125 c 0.24609,-2.0507809 1.55859,-4.8281249 4.55859,-4.8281249 3.35156,0 4.16016,2.941406 4.125,4.8281249 z m 39.80859,-2.1914059 h -7.5 v 2.3671872 h 4.62891 v 6.7851562 c -0.67969,0.3398438 -1.99219,0.609375 -3.91407,0.609375 -5.29687,0 -8.77734,-3.4101562 -8.77734,-9.1875004 0,-5.707031 3.60937,-9.152343 9.15234,-9.152343 2.28516,0 3.8086,0.445312 5.02735,0.984375 l 0.70312,-2.402344 c -0.97265,-0.46875 -3.03515,-1.042969 -5.67187,-1.042969 -7.62891,0 -12.28125,4.96875 -12.31641,11.753906 0,3.5390629 1.20703,6.5742192 3.17578,8.4726567 2.22656,2.12109374 5.0625,2.99999999 8.50781,2.99999999 3.07032,0 5.67188,-0.7734375 6.98438,-1.24218749 z m 4.38281,11.9531246875 h 2.94141 V -8.7078516 c 0,-0.515625 0.0703,-0.984375 0.1289,-1.3828124 0.41016,-2.238281 1.89844,-3.820313 3.98438,-3.820313 0.41016,0 0.71484,0.03516 1.01953,0.105469 v -2.800781 c -0.26953,-0.07031 -0.50391,-0.105469 -0.84375,-0.105469 -1.99219,0 -3.78516,1.382813 -4.52344,3.574219 h -0.14062 l -0.0937,-3.199219 h -2.60156 c 0.0937,1.511719 0.1289,3.164063 0.1289,5.097656 z M 280.12593,-7.6297266 c 0.0352,-0.3046875 0.10547,-0.7734375 0.10547,-1.3828125 0,-3.0117189 -1.41797,-7.6992189 -6.76172,-7.6992189 -4.75781,0 -7.66406,3.878906 -7.66406,8.8125002 0,4.921875 3.01172,8.23828124 8.03906,8.23828124 2.60156,0 4.39453,-0.5390625 5.4375,-1.01953125 l -0.50391,-2.12109379 c -1.11328,0.46875 -2.40234,0.84375 -4.52343,0.84375 -2.97657,0 -5.54297,-1.6523437 -5.61329,-5.671875 z m -11.44922,-2.1328125 c 0.24609,-2.0507809 1.55859,-4.8281249 4.55859,-4.8281249 3.35157,0 4.16016,2.941406 4.125,4.8281249 z m 28.36231,2.1328125 c 0.0351,-0.3046875 0.10546,-0.7734375 0.10546,-1.3828125 0,-3.0117189 -1.41796,-7.6992189 -6.76171,-7.6992189 -4.75782,0 -7.66407,3.878906 -7.66407,8.8125002 0,4.921875 3.01172,8.23828124 8.03907,8.23828124 2.60156,0 4.39453,-0.5390625 5.4375,-1.01953125 l -0.50391,-2.12109379 c -1.11328,0.46875 -2.40234,0.84375 -4.52344,0.84375 -2.97656,0 -5.54297,-1.6523437 -5.61328,-5.671875 z M 285.5898,-9.7625391 c 0.24609,-2.0507809 1.55859,-4.8281249 4.55859,-4.8281249 3.35156,0 4.16016,2.941406 4.125,4.8281249 z m 15.22558,9.7617187875 h 2.97657 V -9.8211328 c 0,-0.5156252 0.0703,-1.0195312 0.19921,-1.3828122 0.50391,-1.664063 2.02735,-3.046875 3.98438,-3.046875 2.80078,0 3.78516,2.191406 3.78516,4.8281247 v 9.4218749875 h 2.96484 V -9.7625391 c 0,-5.6015629 -3.50391,-6.9492189 -5.76563,-6.9492189 -2.70703,0 -4.59375,1.523438 -5.40234,3.070313 h -0.0703 l -0.16406,-2.695313 h -2.63672 c 0.0937,1.347656 0.1289,2.730469 0.1289,4.417969 z m 0,0" style="fill:#231916;fill-opacity:1;fill-rule:nonzero;stroke:none" aria-label="1 Knightsbridge Green" transform="matrix(1.3333333,0,0,1.3333333,195.50267,496.88)" />
      <path id="path42" d="M 0,0 H 2.869 V 21.942 H 0.338 l -4.794,-2.565 0.574,-2.262 3.815,2.059 H 0 Z" style="fill:none;stroke:#231916;stroke-width:1;stroke-linecap:butt;stroke-linejoin:miter;stroke-miterlimit:10;stroke-dasharray:none;stroke-opacity:1" transform="matrix(1.3333333,0,0,-1.3333333,206.12493,496.88)" />
      <path id="path43" d="M 0,0 H 2.937 V 8.676 L 5.097,11.174 12.592,0 h 3.477 L 7.19,13.098 15.427,22.753 H 11.781 L 4.827,14.212 C 4.253,13.469 3.646,12.659 3.038,11.781 H 2.937 V 22.753 H 0 Z" style="fill:none;stroke:#231916;stroke-width:1;stroke-linecap:butt;stroke-linejoin:miter;stroke-miterlimit:10;stroke-dasharray:none;stroke-opacity:1" transform="matrix(1.3333333,0,0,-1.3333333,231.55507,496.88)" />
      <path id="path44" d="m 0,0 h 2.971 v 9.824 c 0,0.506 0.067,1.012 0.202,1.384 0.506,1.654 2.026,3.038 3.983,3.038 2.803,0 3.781,-2.194 3.781,-4.828 V 0 h 2.971 v 9.756 c 0,5.604 -3.511,6.954 -5.773,6.954 -2.7,0 -4.591,-1.519 -5.401,-3.072 H 2.667 L 2.498,16.339 H -0.135 C -0.034,14.988 0,13.604 0,11.917 Z" style="fill:none;stroke:#231916;stroke-width:1;stroke-linecap:butt;stroke-linejoin:miter;stroke-miterlimit:10;stroke-dasharray:none;stroke-opacity:1" transform="matrix(1.3333333,0,0,-1.3333333,256.26493,496.88)" />
      <path id="path45" d="M 0,0 V 16.339 H -2.971 V 0 Z m -1.485,22.787 c -1.08,0 -1.857,-0.811 -1.857,-1.857 0,-1.013 0.742,-1.823 1.789,-1.823 1.181,0 1.924,0.81 1.89,1.823 0,1.046 -0.709,1.857 -1.822,1.857 z" style="fill:none;stroke:#231916;stroke-width:1;stroke-linecap:butt;stroke-linejoin:miter;stroke-miterlimit:10;stroke-dasharray:none;stroke-opacity:1" transform="matrix(1.3333333,0,0,-1.3333333,285.206,496.88)" />
      <path id="path46" d="m 0,0 -0.135,-2.464 h -0.068 c -0.709,1.35 -2.261,2.835 -5.097,2.835 -3.747,0 -7.359,-3.139 -7.359,-8.676 0,-4.523 2.903,-7.966 6.954,-7.966 2.532,0 4.287,1.215 5.199,2.734 h 0.067 v -1.823 c 0,-4.119 -2.228,-5.705 -5.266,-5.705 -2.025,0 -3.713,0.607 -4.794,1.283 l -0.742,-2.262 c 1.316,-0.878 3.477,-1.35 5.435,-1.35 2.059,0 4.354,0.472 5.941,1.957 1.587,1.418 2.329,3.714 2.329,7.461 v 9.486 c 0,1.992 0.068,3.308 0.136,4.49 z m -0.473,-9.385 c 0,-0.506 -0.067,-1.08 -0.236,-1.586 -0.641,-1.891 -2.295,-3.039 -4.118,-3.039 -3.207,0 -4.828,2.667 -4.828,5.874 0,3.781 2.026,6.178 4.862,6.178 2.16,0 3.611,-1.418 4.152,-3.14 0.135,-0.404 0.168,-0.843 0.168,-1.35 z" style="fill:none;stroke:#231916;stroke-width:1;stroke-linecap:butt;stroke-linejoin:miter;stroke-miterlimit:10;stroke-dasharray:none;stroke-opacity:1" transform="matrix(1.3333333,0,0,-1.3333333,307.08107,475.09493)" />
      <path id="path47" d="m 0,0 h 2.971 v 9.857 c 0,0.574 0.033,1.013 0.202,1.418 0.54,1.621 2.059,2.971 3.984,2.971 2.801,0 3.781,-2.228 3.781,-4.861 V 0 h 2.97 v 9.722 c 0,5.638 -3.511,6.988 -5.705,6.988 -1.114,0 -2.161,-0.337 -3.038,-0.844 C 4.253,15.36 3.511,14.617 3.038,13.773 H 2.971 V 23.968 H 0 Z" style="fill:none;stroke:#231916;stroke-width:1;stroke-linecap:butt;stroke-linejoin:miter;stroke-miterlimit:10;stroke-dasharray:none;stroke-opacity:1" transform="matrix(1.3333333,0,0,-1.3333333,316.93787,496.88)" />
      <path id="path48" d="M 0,0 V -3.916 H -2.532 V -6.178 H 0 v -8.912 c 0,-1.924 0.304,-3.376 1.147,-4.253 0.709,-0.811 1.824,-1.249 3.207,-1.249 1.148,0 2.06,0.168 2.634,0.405 l -0.135,2.228 c -0.372,-0.102 -0.946,-0.203 -1.722,-0.203 -1.654,0 -2.228,1.148 -2.228,3.173 v 8.811 h 4.253 v 2.262 H 2.903 v 4.692 z" style="fill:none;stroke:#231916;stroke-width:1;stroke-linecap:butt;stroke-linejoin:miter;stroke-miterlimit:10;stroke-dasharray:none;stroke-opacity:1" transform="matrix(1.3333333,0,0,-1.3333333,342.6384,469.87347)" />
      <path id="path49" d="m 0,0 c 1.148,-0.675 2.802,-1.114 4.591,-1.114 3.882,0 6.11,2.026 6.11,4.895 0,2.43 -1.451,3.848 -4.287,4.928 -2.126,0.811 -3.105,1.418 -3.105,2.769 0,1.215 0.979,2.228 2.734,2.228 1.519,0 2.701,-0.54 3.342,-0.945 l 0.742,2.16 C 9.216,15.461 7.765,15.934 6.11,15.934 2.6,15.934 0.473,13.773 0.473,11.14 0.473,9.182 1.857,7.562 4.794,6.515 6.988,5.705 7.832,4.929 7.832,3.511 7.832,2.161 6.819,1.08 4.659,1.08 3.173,1.08 1.621,1.688 0.743,2.262 Z" style="fill:none;stroke:#231916;stroke-width:1;stroke-linecap:butt;stroke-linejoin:miter;stroke-miterlimit:10;stroke-dasharray:none;stroke-opacity:1" transform="matrix(1.3333333,0,0,-1.3333333,355.10573,495.84493)" />
      <path id="path50" d="m 0,0 0.135,2.701 h 0.101 c 1.216,-2.161 3.106,-3.072 5.469,-3.072 3.646,0 7.325,2.903 7.325,8.743 0.034,4.962 -2.835,8.338 -6.886,8.338 -2.633,0 -4.524,-1.181 -5.57,-3.004 H 0.506 V 23.968 H -2.431 V 4.22 C -2.431,2.768 -2.498,1.114 -2.566,0 Z m 0.506,9.486 c 0,0.472 0.101,0.878 0.169,1.215 0.608,2.262 2.498,3.646 4.524,3.646 3.173,0 4.861,-2.802 4.861,-6.076 0,-3.748 -1.857,-6.279 -4.963,-6.279 -2.16,0 -3.882,1.418 -4.456,3.477 -0.067,0.337 -0.135,0.709 -0.135,1.08 z" style="fill:none;stroke:#231916;stroke-width:1;stroke-linecap:butt;stroke-linejoin:miter;stroke-miterlimit:10;stroke-dasharray:none;stroke-opacity:1" transform="matrix(1.3333333,0,0,-1.3333333,377.7008,496.88)" />
      <path id="path51" d="m 0,0 h 2.937 v 8.709 c 0,0.507 0.067,0.979 0.135,1.385 0.405,2.228 1.89,3.814 3.983,3.814 0.405,0 0.709,-0.033 1.013,-0.101 v 2.802 C 7.798,16.676 7.562,16.71 7.224,16.71 5.232,16.71 3.443,15.326 2.701,13.132 H 2.565 L 2.464,16.339 H -0.135 C -0.034,14.82 0,13.166 0,11.241 Z" style="fill:none;stroke:#231916;stroke-width:1;stroke-linecap:butt;stroke-linejoin:miter;stroke-miterlimit:10;stroke-dasharray:none;stroke-opacity:1" transform="matrix(1.3333333,0,0,-1.3333333,400.07067,496.88)" />
      <path id="path52" d="M 0,0 V 16.339 H -2.971 V 0 Z m -1.485,22.787 c -1.08,0 -1.857,-0.811 -1.857,-1.857 0,-1.013 0.742,-1.823 1.789,-1.823 1.181,0 1.924,0.81 1.89,1.823 0,1.046 -0.709,1.857 -1.822,1.857 z" style="fill:none;stroke:#231916;stroke-width:1;stroke-linecap:butt;stroke-linejoin:miter;stroke-miterlimit:10;stroke-dasharray:none;stroke-opacity:1" transform="matrix(1.3333333,0,0,-1.3333333,418.92933,496.88)" />
      <path id="path53" d="m 0,0 v -9.756 h -0.067 c -0.743,1.317 -2.431,2.498 -4.929,2.498 -3.983,0 -7.359,-3.342 -7.326,-8.777 0,-4.963 3.038,-8.304 6.988,-8.304 2.667,0 4.659,1.383 5.57,3.206 h 0.068 l 0.135,-2.835 h 2.666 c -0.101,1.114 -0.134,2.768 -0.134,4.219 L 2.971,0 Z m 0,-17.115 c 0,-0.473 -0.034,-0.878 -0.135,-1.283 -0.54,-2.228 -2.363,-3.545 -4.355,-3.545 -3.207,0 -4.827,2.735 -4.827,6.043 0,3.612 1.823,6.313 4.895,6.313 2.228,0 3.848,-1.553 4.287,-3.444 C -0.034,-13.402 0,-13.908 0,-14.28 Z" style="fill:none;stroke:#231916;stroke-width:1;stroke-linecap:butt;stroke-linejoin:miter;stroke-miterlimit:10;stroke-dasharray:none;stroke-opacity:1" transform="matrix(1.3333333,0,0,-1.3333333,440.35453,464.9224)" />
      <path id="path54" d="m 0,0 -0.135,-2.464 h -0.068 c -0.709,1.35 -2.261,2.835 -5.097,2.835 -3.747,0 -7.359,-3.139 -7.359,-8.676 0,-4.523 2.903,-7.966 6.954,-7.966 2.532,0 4.287,1.215 5.199,2.734 h 0.067 v -1.823 c 0,-4.119 -2.228,-5.705 -5.266,-5.705 -2.025,0 -3.713,0.607 -4.794,1.283 l -0.742,-2.262 c 1.316,-0.878 3.477,-1.35 5.435,-1.35 2.059,0 4.354,0.472 5.941,1.957 1.587,1.418 2.329,3.714 2.329,7.461 v 9.486 c 0,1.992 0.068,3.308 0.136,4.49 z m -0.473,-9.385 c 0,-0.506 -0.067,-1.08 -0.236,-1.586 -0.641,-1.891 -2.295,-3.039 -4.118,-3.039 -3.207,0 -4.828,2.667 -4.828,5.874 0,3.781 2.026,6.178 4.862,6.178 2.16,0 3.611,-1.418 4.152,-3.14 0.135,-0.404 0.168,-0.843 0.168,-1.35 z" style="fill:none;stroke:#231916;stroke-width:1;stroke-linecap:butt;stroke-linejoin:miter;stroke-miterlimit:10;stroke-dasharray:none;stroke-opacity:1" transform="matrix(1.3333333,0,0,-1.3333333,466.18973,475.09493)" />
      <path id="path55" d="m 0,0 c 0.034,0.304 0.101,0.776 0.101,1.384 0,3.004 -1.418,7.697 -6.751,7.697 -4.76,0 -7.663,-3.882 -7.663,-8.811 0,-4.929 3.004,-8.237 8.034,-8.237 2.599,0 4.388,0.54 5.435,1.013 l -0.507,2.126 c -1.113,-0.472 -2.396,-0.843 -4.523,-0.843 -2.971,0 -5.536,1.654 -5.604,5.671 z m -11.444,2.126 c 0.236,2.06 1.553,4.828 4.557,4.828 3.343,0 4.153,-2.937 4.119,-4.828 z" style="fill:none;stroke:#231916;stroke-width:1;stroke-linecap:butt;stroke-linejoin:miter;stroke-miterlimit:10;stroke-dasharray:none;stroke-opacity:1" transform="matrix(1.3333333,0,0,-1.3333333,493.5556,486.70747)" />
      <path id="path56" d="m 0,0 h -7.494 v -2.363 h 4.625 v -6.785 c -0.675,-0.338 -1.992,-0.608 -3.916,-0.608 -5.3,0 -8.778,3.41 -8.778,9.182 0,5.705 3.613,9.149 9.149,9.149 2.295,0 3.815,-0.439 5.03,-0.979 l 0.709,2.396 c -0.979,0.473 -3.038,1.047 -5.671,1.047 -7.63,0 -12.288,-4.962 -12.322,-11.748 0,-3.544 1.215,-6.583 3.173,-8.473 2.228,-2.127 5.064,-3.005 8.507,-3.005 3.072,0 5.672,0.777 6.988,1.249 z" style="fill:none;stroke:#231916;stroke-width:1;stroke-linecap:butt;stroke-linejoin:miter;stroke-miterlimit:10;stroke-dasharray:none;stroke-opacity:1" transform="matrix(1.3333333,0,0,-1.3333333,531.3636,480.9464)" />
      <path id="path57" d="m 0,0 h 2.937 v 8.709 c 0,0.507 0.067,0.979 0.135,1.385 0.405,2.228 1.89,3.814 3.983,3.814 0.405,0 0.709,-0.033 1.013,-0.101 v 2.802 C 7.798,16.676 7.562,16.71 7.224,16.71 5.232,16.71 3.443,15.326 2.701,13.132 H 2.565 L 2.464,16.339 H -0.135 C -0.034,14.82 0,13.166 0,11.241 Z" style="fill:none;stroke:#231916;stroke-width:1;stroke-linecap:butt;stroke-linejoin:miter;stroke-miterlimit:10;stroke-dasharray:none;stroke-opacity:1" transform="matrix(1.3333333,0,0,-1.3333333,537.21453,496.88)" />
      <path id="path58" d="m 0,0 c 0.034,0.304 0.101,0.776 0.101,1.384 0,3.004 -1.418,7.697 -6.751,7.697 -4.76,0 -7.663,-3.882 -7.663,-8.811 0,-4.929 3.004,-8.237 8.034,-8.237 2.599,0 4.388,0.54 5.435,1.013 l -0.507,2.126 c -1.113,-0.472 -2.396,-0.843 -4.523,-0.843 -2.971,0 -5.536,1.654 -5.604,5.671 z m -11.444,2.126 c 0.236,2.06 1.553,4.828 4.557,4.828 3.343,0 4.153,-2.937 4.119,-4.828 z" style="fill:none;stroke:#231916;stroke-width:1;stroke-linecap:butt;stroke-linejoin:miter;stroke-miterlimit:10;stroke-dasharray:none;stroke-opacity:1" transform="matrix(1.3333333,0,0,-1.3333333,568.99253,486.70747)" />
      <path id="path59" d="m 0,0 c 0.034,0.304 0.101,0.776 0.101,1.384 0,3.004 -1.418,7.697 -6.751,7.697 -4.76,0 -7.663,-3.882 -7.663,-8.811 0,-4.929 3.004,-8.237 8.034,-8.237 2.599,0 4.388,0.54 5.435,1.013 l -0.507,2.126 c -1.113,-0.472 -2.396,-0.843 -4.523,-0.843 -2.971,0 -5.536,1.654 -5.604,5.671 z m -11.444,2.126 c 0.236,2.06 1.553,4.828 4.557,4.828 3.343,0 4.153,-2.937 4.119,-4.828 z" style="fill:none;stroke:#231916;stroke-width:1;stroke-linecap:butt;stroke-linejoin:miter;stroke-miterlimit:10;stroke-dasharray:none;stroke-opacity:1" transform="matrix(1.3333333,0,0,-1.3333333,591.542,486.70747)" />
      <path id="path60" d="m 0,0 h 2.971 v 9.824 c 0,0.506 0.067,1.012 0.202,1.384 0.507,1.654 2.026,3.038 3.984,3.038 2.801,0 3.781,-2.194 3.781,-4.828 V 0 h 2.97 v 9.756 c 0,5.604 -3.511,6.954 -5.772,6.954 -2.701,0 -4.592,-1.519 -5.402,-3.072 H 2.667 L 2.498,16.339 H -0.135 C -0.034,14.988 0,13.604 0,11.917 Z" style="fill:none;stroke:#231916;stroke-width:1;stroke-linecap:butt;stroke-linejoin:miter;stroke-miterlimit:10;stroke-dasharray:none;stroke-opacity:1" transform="matrix(1.3333333,0,0,-1.3333333,596.5824,496.88)" />
      </g></svg>