<?xml version='1.0' encoding='utf-8'?>
<svg xmlns="http://www.w3.org/2000/svg" version="1.1" width="295.131" height="197.296" viewBox="1710.610 899.178 295.131 197.296"><g id="object"><path id="path21" d="m 64.676991,-126.93692 c -33.363282,0 -58.0078129,25.94532 -58.0078129,65.601565 0,37.804688 23.1679689,63.3750003 56.1562499,63.3750003 31.863281,0 57.996092,-22.7929683 57.996092,-65.7890623 0,-37.054683 -22.054686,-63.187503 -56.144529,-63.187503 z m -0.75,13.16016 c 26.871093,0 39.843749,25.945312 39.843749,50.777343 0,28.347656 -14.449218,51.878906 -40.019531,51.878906 -25.394531,0 -39.84375,-23.90625 -39.84375,-50.589844 0,-27.421875 13.335938,-52.066405 40.019532,-52.066405 z M 141.76,5.828125e-4 h 16.125 V -56.518948 h 47.25 v -13.347657 h -47.25 v -41.507815 h 51.14062 v -13.52343 H 141.76 Z m 0,0" style="fill:#231916;fill-opacity:1;fill-rule:nonzero;stroke:none" aria-label="OF " transform="matrix(1.3333333,0,0,1.3333333,1714.3812,1081.0891)" />
      <path id="path22" d="m 0,0 c -33.355,0 -58,-25.943 -58,-65.598 0,-37.802 23.163,-63.374 56.147,-63.374 31.872,0 58,22.792 58,65.783 C 56.147,-26.128 34.096,0 0,0 Z m -0.741,-13.157 c 26.869,0 39.84,-25.942 39.84,-50.773 0,-28.352 -14.453,-51.885 -40.026,-51.885 -25.386,0 -39.84,23.904 -39.84,50.588 0,27.425 13.342,52.07 40.026,52.07 z" style="fill:none;stroke:#231916;stroke-width:10;stroke-linecap:butt;stroke-linejoin:miter;stroke-miterlimit:10;stroke-dasharray:none;stroke-opacity:1" transform="matrix(1.3333333,0,0,-1.3333333,1800.6097,911.84427)" />
      <path id="path23" d="M 0,0 H 16.122 V 56.518 H 63.374 V 69.86 H 16.122 v 41.508 h 51.144 v 13.527 H 0 Z" style="fill:none;stroke:#231916;stroke-width:10;stroke-linecap:butt;stroke-linejoin:miter;stroke-miterlimit:10;stroke-dasharray:none;stroke-opacity:1" transform="matrix(1.3333333,0,0,-1.3333333,1903.3903,1081.0891)" />
      </g></svg>