<?xml version='1.0' encoding='utf-8'?>
<svg xmlns="http://www.w3.org/2000/svg" version="1.1" width="91.380" height="102.455" viewBox="1639.920 4181.720 91.380 102.455"><g id="object"><path id="path38" d="m 0,0 c -2.618,-14.298 -4.946,-26.776 -7.156,-39.276 -0.447,-2.528 -1.666,-3.844 -4.212,-3.793 -2.58,0.052 -5.336,-0.264 -6.243,3.216 -1.182,4.534 -3.439,9.017 -3.518,13.552 -0.102,5.876 -3.335,10.595 -3.765,18.183 -4.49,-10.524 -3.571,-19.651 -4.095,-28.538 -0.308,-5.215 -2.746,-7.027 -7.717,-6.653 -4.497,0.339 -6.665,2.574 -5.854,6.927 3.25,17.451 2.928,35.215 4.767,52.789 0.553,5.286 1.924,8.268 8.126,7.899 5.952,-0.353 10.517,-0.587 11.073,-8.453 0.57,-8.072 2.639,-16.039 4.38,-25.91 4.168,10.534 5.233,19.661 6.297,28.61 1.028,8.634 7.04,4.945 11.185,5.68 4.961,0.88 7.96,-1.92 8.03,-6.666 0.273,-18.632 4.332,-36.891 5.181,-55.456 0.102,-2.237 1.512,-5.28 -2.413,-5.126 -3.178,0.124 -7.464,-2.139 -9.173,2.732 -1.011,2.881 -2.463,6.048 -2.11,8.888 C 4.059,-21.124 0.175,-11.516 0,0" style="fill:#494f57;fill-opacity:1;fill-rule:nonzero;stroke:none" transform="matrix(1.3333333,0,0,-1.3333333,1702.8904,4220.2636)" />
      </g></svg>