<?xml version='1.0' encoding='utf-8'?>
<svg xmlns="http://www.w3.org/2000/svg" version="1.1" width="98.831" height="122.323" viewBox="2668.830 2943.800 98.831 122.323"><g id="object"><path id="path49" d="m 0,0 c -5.616,-11.769 -10.341,-28.716 -14.17,-28.516 -19.844,1.039 -9.487,18.096 -10.666,28.312 -1.694,14.688 -0.433,29.718 -0.433,44.602 2.249,0.557 4.498,1.114 6.746,1.671 C -7.58,36.079 3.362,26.089 16.55,14.048 17.815,25.154 18.692,32.853 20.572,49.352 28.982,40.848 37.273,36.419 37.695,31.336 39.293,12.113 38.337,-7.323 38.337,-33.39 22.56,-19.649 11.022,-9.6 0,0" style="fill:#231916;fill-opacity:1;fill-rule:nonzero;stroke:none" transform="matrix(1.3333333,0,0,-1.3333333,2710.168,3015.6012)" />
      </g></svg>