<?xml version='1.0' encoding='utf-8'?>
<svg xmlns="http://www.w3.org/2000/svg" version="1.1" width="385.081" height="448.211" viewBox="1338.890 3104.090 385.081 448.211"><g id="object"><path id="path13" d="m 0,0 v 154.128 h 85.064 v -320.666 c -18.962,-7.398 -32.394,-0.778 -45.783,12.576 -46.665,46.543 -94.237,92.176 -145.198,141.791 V -167.54 h -87.698 c -0.356,8.063 -1.059,16.644 -1.064,25.226 -0.058,90.441 -0.222,180.884 0.339,271.322 0.059,9.526 4.565,19.024 7.008,28.534 12.366,-4.043 27.895,-4.671 36.563,-12.704 C -107.162,104.431 -65.382,62.056 -22.866,20.469 -16.753,14.489 -10.127,9.033 0,0" style="fill:#231916;fill-opacity:1;fill-rule:nonzero;stroke:none" transform="matrix(1.3333333,0,0,-1.3333333,1604.5563,3320.1431)" />
      </g></svg>