<?xml version='1.0' encoding='utf-8'?>
<svg xmlns="http://www.w3.org/2000/svg" version="1.1" width="3190.590" height="624.080" viewBox="-6.000 2387.090 3190.590 624.080"><defs id="defs1"><clipPath clipPathUnits="userSpaceOnUse" id="clipPath4">
      <path d="M 122.5624,2051.5417 H 2506.5025 V -1318.8484 H 122.5624 Z" id="path4" />
    </clipPath>
    <clipPath clipPathUnits="userSpaceOnUse" id="clipPath6">
      <path d="M -503.42171,2051.917 H 1880.5183 V -1318.4731 H -503.42171 Z" id="path6" />
    </clipPath>
  </defs><g id="object"><path id="path3" d="m 0,0 c 8.729,-2.786 17.292,-5.183 26.809,-5.253 90.274,-0.657 180.345,-5.495 270.235,-13.914 5.439,-0.51 11.135,1.714 16.696,2.67 22.841,-6.641 46.116,-5.394 69.415,-3.673 3.862,-0.076 7.723,-0.151 11.579,-0.226 -0.005,0 1.844,-0.965 1.844,-0.965 l 1.908,0.845 C 530.27,-27.09 662.05,-33.74 793.839,-40.222 c 282.221,-13.881 564.449,-27.641 846.671,-41.515 167.943,-8.257 335.936,-15.686 503.778,-25.663 39.391,-2.341 78.808,-2.587 118.142,-5.258 22.103,-7.186 44.715,-4.854 67.268,-3.613 59.649,-3.063 119.297,-6.127 178.946,-9.185 0.84,-0.043 1.776,0.215 2.512,-0.069 34.401,-13.267 7.29,-41.526 14.655,-61.71 5.243,-14.371 -6.051,-15.583 -17.417,-14.981 -93.256,4.939 -186.525,9.619 -279.79,14.376 -363.015,18.517 -726.024,37.149 -1089.048,55.502 -184.053,9.305 -368.14,17.945 -552.197,27.184 C 394.924,-95.495 202.507,-85.475 10.08,-75.647 6.731,-75.476 3.36,-75.737 0,-75.796 Z" style="fill:#1c2a2f;fill-opacity:1;fill-rule:nonzero;stroke:none" transform="matrix(1.3333333,0,0,-1.3333333,-163.41653,2735.3889)" clip-path="url(#clipPath4)" />
      <path id="path5" d="m 0,0 c -15.763,8.798 -10.27,34.65 -31.969,36.392 -54.47,4.375 -108.867,9.665 -163.295,14.57 -8.631,0.777 -17.3,1.381 -20.209,-9.676 -3.682,-13.994 -15.653,-18.364 -27.28,-28.515 C -161.835,8.514 -80.918,4.257 0,0 m -39.846,162.924 c 4.734,3.697 6.244,8.16 3.251,13.693 2.819,40.465 2.82,40.476 -37.734,41.039 -9.224,0.128 -18.612,-0.933 -27.643,0.425 -24.685,3.711 -40.566,-2.112 -38.738,-31.169 0.235,-3.735 -3.973,-4.641 -8.856,-3.587 -0.422,4.354 -1.97,9.333 -1.167,13.899 4.115,23.376 -6.397,30.239 -28.717,30.929 -33.46,1.034 -66.83,5.305 -100.209,8.505 -14.526,1.392 -28.3,1.636 -27.047,-18.545 0.954,-15.354 -10.708,-39.54 19.727,-38.222 46.993,2.034 92.531,-21.432 140.146,-7.292 2.839,0.843 7.191,-3.409 10.839,-5.29 31.342,-11.085 63.247,-11.96 95.569,-5.273 z M -625.984,35.747 c 45.226,-9.723 91.388,-7.45 137.117,-10.742 71.945,-5.179 144.274,-4.393 215.966,-13.761 2.498,-0.326 5.478,3.042 9.109,5.211 -8.658,6.295 -19.075,10.59 -21.259,20.483 -3.884,17.587 -12.671,25.239 -31.27,23.784 -12.271,-0.961 -14.97,9.695 -14.207,19.486 4.116,52.858 8.586,105.689 13.266,158.5 1.217,13.741 12.186,18.892 23.31,18.354 58.773,-2.844 117.493,-9.429 176.225,-9.361 29.887,0.034 57.586,-10.39 86.925,-9.771 29.951,0.633 58.715,-8.495 88.271,-11.291 1.735,-0.165 3.014,-5.153 4.506,-7.902 -2.334,-4.137 -4.669,-8.268 -7.003,-12.398 -9.21,0.511 -18.482,0.512 -27.62,1.622 -42.616,5.176 -42.61,5.287 -50.805,-32.57 -0.519,-2.4 -1.065,-4.849 -1.111,-7.284 -0.084,-4.407 0.96,-8.804 6.111,-9.395 30.2,-3.468 60.285,-14.057 90.807,-1.859 2.894,3.273 5.787,6.545 8.68,9.818 C 93.182,123.633 84.305,79.929 84.921,36.532 84.959,33.869 81.116,28.603 80.133,28.844 54.529,35.129 49.961,6.451 31.212,1.689 c 3.324,-5.892 7.944,-5.849 11.899,-5.893 122.818,-1.35 245.245,-11.368 367.866,-17.01 17.155,-0.789 24.255,6.385 29.96,19.579 2.207,5.102 3.603,9.522 -3.393,11.868 -14.547,4.88 -29.03,9.67 -39.249,-10.247 -1.229,14.211 -11.674,32.176 17.309,25.663 14.576,-3.276 23.291,-2.01 14.584,16.699 -10.299,22.13 -9.53,42.849 10.9,60.575 5.705,4.95 12.453,11.165 13.301,20.36 0.865,9.37 4.711,16.891 15.549,12.484 10.817,-4.398 13.128,-11.803 8.4,-24.106 -6.356,-16.54 -12.692,-34.98 6.856,-48.46 -7.678,-7.248 -13.543,0.597 -19.799,-0.193 -0.667,-1.587 -2.206,-3.438 -1.781,-4.508 7.676,-19.342 4.299,-36.399 -7.429,-53.627 -12.441,-18.276 0.343,-27.408 16.304,-28.622 44.411,-3.379 88.989,-4.539 133.486,-6.85 10.849,-0.563 15.7,3.856 14.952,14.653 -0.857,12.37 -1.61,24.747 -2.795,43.117 -17.826,-26.293 -45.109,-25.374 -65.275,-40.105 -5.65,17.975 0.864,28.012 18.101,30.624 23.247,3.523 29.128,16.834 22.105,37.466 -4.015,11.795 0.528,20.709 6.161,30.641 9.761,17.212 25.326,31.08 28.746,52.122 1.509,9.285 10.364,10.185 18.303,8.302 7.799,-1.851 11.623,-7.034 8.081,-15.032 -12.351,-27.887 0.4,-32.327 26.598,-23.604 C 676.908,94.668 668.631,93.198 660.841,91.854 625.048,85.679 615.67,67.748 631.679,33.743 c 6.268,-13.314 6.887,-27.405 8.202,-41.366 1.759,-18.67 11.569,-26.874 29.739,-26.716 6.722,0.059 13.448,-0.531 20.173,-0.802 26.028,-1.05 52.056,-2.092 78.084,-3.136 1.463,27.294 22.241,43.825 35.394,64.727 6.076,9.654 10.932,21.753 7.072,33.59 -4.711,14.447 0.345,26.011 6.329,38.413 3.165,6.559 13.118,15.695 2.4,21.544 -10.117,5.521 -16.777,-3.266 -20.128,-13.019 -6.811,2.675 -5.139,9.465 -7.041,14.522 3.218,15.625 16.652,18.282 27.34,15.209 18.23,-5.241 23.453,2.8 24.704,17.723 0.558,6.651 -2.22,13.86 8.858,13.524 8.339,-0.254 14.715,-2.391 17.188,-11.29 2.421,-8.71 3.166,-17.527 6.909,-26.318 7.207,-16.929 8.281,-39.154 38.281,-22.698 -11.005,-13.035 -21.891,-20.781 -36.835,-17.529 -6.544,1.424 -11.33,15.122 -19.429,2.118 -6.833,-10.972 -12.11,-22.251 -3.792,-34.846 3.692,-5.59 8.945,-10.481 11.303,-16.54 3.252,-8.359 6.973,-18.609 -3.895,-24.472 -20.576,-11.098 -26.296,-28.619 -22.109,-52.936 -14.014,7.275 -29.364,9.703 -13.289,28.134 5.068,5.811 5.697,15.421 -1.02,24.868 C 816.3,8.02 810.898,-4.88 796.795,-8.288 c -5.744,-1.388 -14.446,-10.132 -10.099,-17.721 4.758,-8.308 8.108,-20.082 22.877,-19.2 21.728,1.298 43.578,0.547 65.379,0.668 5.012,-3.04 10.144,-3.195 15.391,-0.654 2.958,-0.056 5.916,-0.113 8.883,-0.17 20.174,-6.016 40.664,-6.386 61.339,-3.518 39.158,-8.688 79.007,-4.077 118.503,-6.245 10.963,-0.601 17.515,2.279 18.209,14.779 0.647,11.669 3.159,23.229 4.72,34.855 1.413,10.527 -6.914,14.863 -13.626,19.342 -8.057,5.376 -12.274,-2.515 -16.297,-7.214 -15.47,-18.074 -37.816,-21.033 -58.659,-26.59 -12.299,-3.279 -19.873,-8.1 -17.12,-24.145 -15.691,26.922 -15.543,27.351 10.343,38.242 7.746,3.26 15.467,6.579 23.186,9.901 27.573,11.869 31.536,21.731 16.583,48.415 -6.195,11.057 -6.738,13.849 5.924,21.808 15.749,9.901 26.938,28.574 27.261,48.518 0.201,12.338 4.195,22.811 13.933,22.654 11.375,-0.184 21.901,-10.978 19.309,-23.927 -3.242,-16.198 5.66,-29.313 7.344,-44.166 2.499,-22.043 21.598,1.623 30.423,-8.49 0.895,-10.538 -7.542,-8.642 -13.603,-8.572 -24.412,0.283 -26.683,-14.517 -19.692,-31.77 7.691,-18.978 8.732,-35.808 0.6,-55.382 -9.726,-23.413 -4.891,-29.137 21.853,-30.613 89.85,-4.96 179.734,-9.317 269.605,-13.906 157.107,-8.022 314.218,-15.976 471.309,-24.297 6.954,-0.368 19.775,5.179 18.837,-8.923 -0.885,-13.317 -13.156,-7.476 -20.127,-7.145 -163.46,7.758 -326.862,16.803 -490.353,23.784 -104.161,4.447 -208.349,9.211 -312.462,13.98 -112.985,5.176 -226.002,12.197 -339.002,18.225 -215.816,11.513 -431.681,22.482 -647.64,30.64 -50.462,1.906 -100.756,6.885 -151.537,6.841 -71.611,-0.062 -143.666,3.975 -214.948,10.336 -48.983,4.371 -98.567,-2.677 -146.867,9.163 -29.82,8.425 -60.272,5.18 -90.562,4.902 -37.353,0.934 -74.904,-3.251 -111.996,4.364 z" style="fill:#1c2a2f;fill-opacity:1;fill-rule:nonzero;stroke:none" transform="matrix(1.3333333,0,0,-1.3333333,671.22893,2735.8893)" clip-path="url(#clipPath6)" />
      <path id="path25" d="M 0,0 C 2.335,4.131 4.669,8.261 7.003,12.398 13.356,-4.953 19.709,-22.31 26.062,-39.667 23.169,-42.94 20.276,-46.213 17.381,-49.49 11.586,-32.995 5.793,-16.498 0,0" style="fill:#84792f;fill-opacity:1;fill-rule:nonzero;stroke:none" transform="matrix(1.3333333,0,0,-1.3333333,744.52453,2460.7709)" />
      <path id="path26" d="m 0,0 c 1.902,-5.058 0.23,-11.847 7.041,-14.522 -1.309,-9.979 7.754,-22.752 -4.282,-29.431 -8.873,-4.924 -13.575,1.365 -11.045,11.25 1.408,5.503 3.413,10.864 4.624,16.404 C -2.473,-10.859 -4.915,-4.622 0,0" style="fill:#84792f;fill-opacity:1;fill-rule:nonzero;stroke:none" transform="matrix(1.3333333,0,0,-1.3333333,1727.0996,2573.8887)" />
      <path id="path27" d="M 0,0 C -23.3,-1.721 -46.574,-2.967 -69.416,3.674 -46.088,5.84 -22.931,5.054 0,0" style="fill:#84792f;fill-opacity:1;fill-rule:nonzero;stroke:none" transform="matrix(1.3333333,0,0,-1.3333333,347.4572,2762.2827)" />
      <path id="path28" d="M 0,0 C -22.553,-1.241 -45.165,-3.573 -67.268,3.613 -44.689,5.339 -22.286,3.752 0,0" style="fill:#84792f;fill-opacity:1;fill-rule:nonzero;stroke:none" transform="matrix(1.3333333,0,0,-1.3333333,2942.8476,2890.4169)" />
      <path id="path29" d="M 0,0 C -20.676,-2.868 -41.165,-2.498 -61.34,3.518 -40.763,4.712 -20.189,5.703 0,0" style="fill:#84792f;fill-opacity:1;fill-rule:nonzero;stroke:none" transform="matrix(1.3333333,0,0,-1.3333333,1951.9825,2801.0665)" />
      <path id="path30" d="M 0,0 C -5.247,-2.541 -10.379,-2.386 -15.391,0.654 -10.263,0.436 -5.131,0.218 0,0" style="fill:#84792f;fill-opacity:1;fill-rule:nonzero;stroke:none" transform="matrix(1.3333333,0,0,-1.3333333,1858.3524,2796.1493)" />
      <path id="path32" d="M 0,0 C 31.858,-1.755 63.716,-3.51 95.572,-5.269 63.247,-11.96 31.342,-11.085 0,0" style="fill:#84792f;fill-opacity:1;fill-rule:nonzero;stroke:none" transform="matrix(1.3333333,0,0,-1.3333333,489.90373,2512.8107)" />
      <path id="path33" d="M 0,0 C -0.385,4.924 -0.648,9.818 3.253,13.709 6.244,8.16 4.734,3.698 0,0" style="fill:#84792f;fill-opacity:1;fill-rule:nonzero;stroke:none" transform="matrix(1.3333333,0,0,-1.3333333,618.1004,2518.6573)" />
      </g></svg>