<?xml version='1.0' encoding='utf-8'?>
<svg xmlns="http://www.w3.org/2000/svg" version="1.1" width="1271.030" height="1119.260" viewBox="1913.560 3380.600 1271.030 1119.260"><defs id="defs1"><clipPath clipPathUnits="userSpaceOnUse" id="clipPath6">
      <path d="M -2394.4488,3086.5223 H -10.508725 V -283.86783 H -2394.4488 Z" id="path6" />
    </clipPath>
  </defs><g id="object"><path id="path5" d="m 0,0 c -0.017,-102.349 -0.033,-204.697 -0.05,-307.046 -25.631,22.865 -51.324,45.661 -76.843,68.65 -5.187,4.673 -10.965,9.364 -14.328,15.267 -12.178,21.385 -28.413,36.76 -53.161,42.565 -8.019,1.881 -14.533,7.985 -19.345,14.948 -18.725,27.09 -45.672,43.709 -74.025,58.575 -35.94,18.844 -63.702,48.448 -95.658,72.53 -19.549,14.732 -36.146,31.906 -49.264,52.693 -7.621,12.078 -19.236,20.875 -31.8,26.889 -34.556,16.539 -57.079,46.373 -81.882,73.309 -17.291,18.779 -35.169,36.785 -53.729,54.208 -18.988,17.825 -41.316,29.552 -66.592,35.438 -17.058,3.973 -30.958,13.418 -40.198,27.347 -17.71,26.696 -43.518,44.237 -67.347,64.159 -6.834,5.712 -14.309,11.154 -19.579,18.157 -24.844,33.015 -57.45,57.146 -90.613,80.658 -25.725,18.239 -45.898,42.364 -67.523,64.713 -14.712,15.205 -32.008,26.975 -46.9,41.67 -4.062,4.009 -10.927,6.769 -0.231,11.465 5.931,2.604 3.78,8.226 2.19,13.375 -1.832,5.932 -3.854,12.571 6.789,17.005 2.225,-11.953 4.468,-23.312 6.431,-34.72 2.23,-12.963 16.578,-15.048 22.522,-30.951 3.36,13.492 5.371,21.568 7.816,31.387 6.678,-12.256 3.299,-26.92 14.24,-36.541 12.527,-11.015 23.321,-3.218 34.355,0.263 -3.904,14.739 -8.437,29.092 -1.202,45.317 -5.261,-25.322 29.34,-28.429 26.665,-52.228 -0.168,-1.494 5.599,0.412 11.172,5.436 -4.442,-20.936 -11.323,-41.334 10.409,-57.261 5.83,7.651 -2.236,19.355 7.187,25.586 8.215,-3.985 2.88,-14.555 9.288,-19.556 19.69,0.724 21.145,20.421 33.096,36.439 -1.466,-32.922 6.738,-57.656 21.164,-79.742 9.823,-0.882 7.832,14.67 16.734,10.447 7.713,-3.658 4.134,-12.214 4.193,-19.048 0.035,-4.029 -0.074,-11.964 4.813,-10.613 16.396,4.531 15.17,-7.851 17.104,-16.886 2.232,0.529 3.726,0.46 4.604,1.161 5.999,4.789 -2.666,18.627 7.921,17.996 10.256,-0.611 5.606,-13.317 8.277,-20.396 1.318,-3.494 0.757,-7.774 2.357,-11.06 1.208,-2.483 4.401,-5.371 6.881,-5.538 3.622,-0.244 3.831,4.206 4.947,7.018 2.892,7.285 -0.35,13.883 -2.847,20.287 -4.274,10.961 -3.839,20.99 3.917,30.569 10.374,-16.13 16.351,-33.514 17.738,-52.553 0.223,-3.048 1.15,-7.305 3.28,-8.75 14.446,-9.803 18.913,-22.41 8.536,-40.153 25.211,9.686 22.35,27.557 18.935,48.157 12.553,-11.95 17.787,-21.717 13.368,-35.818 -4.405,-14.061 19.67,-18.009 9.945,-33.879 9.867,0.54 10.321,6.04 12.2,10.584 1.677,4.054 -2.749,11.619 5.623,11.776 6.926,0.131 9.541,-5.903 11.225,-11.359 2.209,-7.155 3.471,-14.603 5.534,-23.652 14.407,23.081 -7.326,43.585 -2.017,65.443 7.04,-0.996 4.363,-17.725 15.178,-10.066 8.167,5.783 2.03,13.932 -1.145,18.741 -14.539,22.025 -12.416,45.75 -8.74,68.905 5.31,-7.324 5.051,-7.334 5.463,-17.992 0.725,-18.72 3.363,-35.148 23.085,-46.104 11.892,-6.606 11.981,-22.449 9.439,-36.388 -1.773,-9.722 -10.094,-20.95 4.221,-28.424 2.733,-1.427 3.955,-6.705 8.934,-2.437 9.524,8.165 15.904,17.167 12.779,30.516 -0.711,3.038 -0.572,6.276 -0.982,11.387 11.907,-5.803 15.744,-17.02 22.851,-24.948 1.294,-1.443 -0.798,-8.412 -1.049,-8.396 -26.127,1.635 1.351,-23.009 -13.168,-26.746 2.094,-7.278 8.708,-6.746 13.809,-6.784 12.529,-0.094 24.527,0.397 27.325,-16.204 0.511,-3.032 4.627,-4.166 8.04,-3.755 7.515,0.905 1.192,9.235 7.186,12.135 8.238,-21.741 -1.189,-47.275 14.641,-67.319 8.736,3.808 7.808,11.558 8.031,19.104 0.101,3.433 -0.216,8.231 5.533,8.123 3.835,-0.072 4.853,-3.274 6.447,-6.053 4.363,-7.606 1.784,-16.2 3.848,-25.916 11.666,8.043 21.878,5.455 32.924,-1.392 14.329,-8.883 18.772,-5.729 21.088,12.717 20.547,-7.677 24.984,-24.689 26.583,-43.667 1.596,-18.955 11.383,-27.657 32.523,-29.088 -2.191,11.678 -7.776,21.194 -15.883,29.546 -2.704,2.786 -4.566,6.97 -0.226,9.695 3.511,2.205 5.65,-1.495 7.548,-3.93 11.629,-14.915 21.634,-30.633 42.53,-35.943 9.699,-2.465 4.631,-17.211 9.409,-25.599 3.563,-6.255 4.326,-14.104 6.81,-22.927 8.906,7.965 7.747,15.2 4.262,23.902 -10.41,25.996 -8.333,38.702 7.934,50.033 2.146,-15.44 11.477,-23.53 26.127,-25.729 4.708,-0.707 8.064,-2.674 10.483,-7.093 2.508,-4.582 3.705,-13.294 11.156,-10.028 7.279,3.192 6.569,11.475 5.558,18.675 -0.512,3.648 -4.44,6.578 -2.232,10.758 33.114,-19.881 46.949,-73.985 26.966,-105.529 -6.931,-10.941 -11.15,-22.77 -12.365,-35.695 -0.654,-6.96 2.148,-12.323 6.971,-17.001 2.397,-2.325 5.154,-4.397 8.33,-2.831 3.358,1.656 3.12,4.983 1.904,8.234 -6.223,16.647 -1.013,29.03 12.678,40.03 11.843,9.514 9.749,23.893 8.024,38.957 7.83,-4.08 5.047,-12.954 10.66,-17.508 2.437,7.779 4.842,16.194 12.504,4.114 4.75,-7.487 10.623,-14.316 12.048,-23.588 0.672,-4.377 1.966,-9.685 7.844,-8.994 21.925,2.576 20.858,-12.717 21.673,-26.947 0.568,-9.901 -6.377,-26.054 7.581,-27.118 14.008,-1.068 8.412,16.636 12.144,25.812 9.254,22.751 -6.274,43.051 -7.143,66.703 C -12.456,18.779 -14.399,0.283 0,0" style="fill:#d5c22b;fill-opacity:1;fill-rule:nonzero;stroke:none" transform="matrix(1.3333333,0,0,-1.3333333,3192.5983,4115.3629)" clip-path="url(#clipPath6)" />
      <path id="path17" d="M 0,0 C -0.056,-9.826 11.845,-15.43 8.611,-25.769 6.94,-31.112 9.104,-40.995 -0.697,-39.242 -8.498,-37.847 -8.473,-30.7 -6.344,-23.818 -3.953,-16.085 -2.148,-8.169 0,0" style="fill:#d5c22b;fill-opacity:1;fill-rule:nonzero;stroke:none" transform="matrix(1.3333333,0,0,-1.3333333,2240.1659,3527.8276)" />
      <path id="path18" d="m 0,0 c 3.207,-7.531 4.742,-9.679 4.975,-11.959 0.666,-6.532 7.074,-12.451 2.346,-19.45 -0.757,-1.121 -3.976,-2.148 -4.365,-1.711 -5.401,6.061 -5.009,13.623 -4.8,21.046 C -1.779,-9.765 -1.169,-7.47 0,0" style="fill:#d5c22b;fill-opacity:1;fill-rule:nonzero;stroke:none" transform="matrix(1.3333333,0,0,-1.3333333,2191.2873,3498.8804)" />
      </g></svg>