<?xml version='1.0' encoding='utf-8'?>
<svg xmlns="http://www.w3.org/2000/svg" version="1.1" width="455.245" height="719.734" viewBox="1591.690 3020.070 455.245 719.734"><g id="object"><path id="path3" d="m 0,0 c 2.958,-8.039 5.916,-16.077 8.874,-24.116 -2.743,-11.332 5.382,-21.878 2.438,-33.252 -2.64,-6.066 -6.194,-11.506 -10.949,-16.136 -25.312,-7.021 -10.157,16.799 -17.456,24.472 -4.839,-19.674 -0.268,-27.329 16.314,-29.715 9.136,-1.314 21.282,3.339 24.249,-11.35 -15.767,-19.49 -37.767,-26.236 -61.243,-30.158 -6.228,-1.041 -13.862,-3.491 -17.409,2.207 -5.215,8.378 4.452,11.535 8.87,16.156 2.71,2.834 5.825,5.165 5.296,9.644 -0.751,3.069 -1.645,6.065 -2.408,9.114 -1.141,9.923 -2.593,18.783 -13.974,23.551 -8.548,3.581 -13.772,11.654 -13.675,21.877 8.483,14.03 4.7,29.957 6.87,44.963 2.476,3.421 7.022,5.56 9.587,3.027 12.303,-12.153 20.765,-4.213 29.378,4.62 C -10.724,20.286 -10.279,1.827 0,0" style="fill:#9b2024;fill-opacity:1;fill-rule:nonzero;stroke:none" transform="matrix(1.3333333,0,0,-1.3333333,1823.606,3200.8796)" />
      <path id="path4" d="m 0,0 c 0.104,-65.192 0.229,-130.384 0.274,-195.576 0.004,-5.245 1.363,-11.101 -4.627,-14.512 -4.248,4.955 -11.091,3.176 -16.107,6.188 -7.24,7.033 0.104,10.557 3.548,15.062 1.343,1.532 2.755,3 4.115,4.502 4.627,21.299 0.575,42.987 3.005,64.197 -1.605,-0.895 -3.09,-1.634 -4.638,-2.488 -15.497,-11.51 -28.612,-10.38 -46.209,-0.216 -13.469,7.779 -28.134,9.276 -24.481,29.445 0.172,3.455 0.757,6.834 1.613,10.179 4.312,8.77 0.719,22.232 14.82,25.237 19.576,-13.514 41.088,-4.883 61.79,-5.225 0.073,0.065 0.132,-0.204 0.11,-0.117 -5.299,20.924 -7.353,41.803 0.697,62.599 C -4.222,0.926 -2.191,1.159 0,0" style="fill:#931f23;fill-opacity:1;fill-rule:nonzero;stroke:none" transform="matrix(1.3333333,0,0,-1.3333333,2040.3947,3451.4137)" />
      <path id="path10" d="m 0,0 c 0.021,27.966 0.041,55.931 0.062,83.897 1.045,2.087 3.022,5.548 4.142,5.165 21.551,-7.367 46.66,0.676 66.225,-15.175 23.519,-18.546 24.024,-39.817 1.398,-56.518 -3.844,1.473 -4.93,4.703 -5.336,8.36 -0.121,6.106 2.671,12.004 1.48,18.227 C 50.214,30.244 24.75,37.725 6.98,24.109 4.775,21.054 11.541,18.949 9.063,20.846 7.437,22.091 7.404,22.969 8.986,23.057 22.333,23.796 38.044,29.288 40.453,7.656 38.645,3.786 38.693,-0.426 38.366,-4.636 36.93,-6.571 35.169,-8.033 32.998,-9.068 20.441,-11.653 7.9,-14.22 0,0" style="fill:#c62320;fill-opacity:1;fill-rule:nonzero;stroke:none" transform="matrix(1.3333333,0,0,-1.3333333,1598.1919,3482.5301)" />
      <path id="path11" d="m 0,0 c -0.016,-9.303 -0.032,-18.606 -0.047,-27.909 -3.213,-12.193 -10.807,-14.075 -21.358,-9.099 -22.573,7.663 -33.244,31.307 -57.768,39.152 -19.124,6.116 -18.124,32.498 -19.785,51.31 -0.946,10.7 -3.121,17.68 -12.815,21.85 0.158,4.519 0.316,9.038 0.474,13.557 3.286,4.095 7.61,4.742 12.425,3.783 12.561,-5.325 20.282,-14.319 26.573,-26.939 11.702,-23.478 27.94,-44.207 51.405,-57.462 8.056,-4.55 13.747,-9.565 14.467,-19.022 C -5.635,-6.376 -9.984,1.047 0,0" style="fill:#c02121;fill-opacity:1;fill-rule:nonzero;stroke:none" transform="matrix(1.3333333,0,0,-1.3333333,1747.1437,3620.5588)" />
      <path id="path12" d="m 0,0 c -0.052,-21.89 -0.104,-43.779 -0.155,-65.669 -31.227,9.315 -44.721,33.306 -51.882,62.6 0.271,13.646 -11.311,25.975 -4.546,40.328 5.073,4.918 12.107,6.058 17.079,2.643 14.203,-9.755 25.179,-8.764 33.49,10.685 C 1.77,31.737 -5.512,15.094 0,0" style="fill:#a92124;fill-opacity:1;fill-rule:nonzero;stroke:none" transform="matrix(1.3333333,0,0,-1.3333333,2040.4263,3095.6547)" />
      <path id="path14" d="m 0,0 c 0.162,12.48 0.323,24.959 0.485,37.439 6.893,0.651 7.393,-3.687 7.549,-8.549 1.383,7.45 5.039,15.768 -7.516,18.012 0.039,28.01 0.079,56.02 0.119,84.03 1.6,1.726 3.586,2.406 5.911,2.185 3.384,-1.165 5.485,-3.606 6.825,-6.813 2.793,-8.297 1.28,-17.25 3.906,-25.587 0.531,-2.105 0.798,-4.246 0.953,-6.404 C 22.074,70.96 32.36,50.769 53.147,39.164 71.176,29.099 74.522,18.907 60.769,3.503 57.776,-2.203 57.523,-9.169 52.764,-14.058 37.43,-13.887 36.088,1.021 25.173,12.489 32.058,-1.311 41.044,-13.977 18.813,-13.73 10.023,-12.603 4.331,-7.23 0,0" style="fill:#cb231f;fill-opacity:1;fill-rule:nonzero;stroke:none" transform="matrix(1.3333333,0,0,-1.3333333,1597.7464,3276.8353)" />
      <path id="path15" d="M 0,0 C -1.353,-0.097 -2.708,-0.173 -4.063,-0.229 -4.283,13.572 -4.585,27.374 -4.692,41.176 -4.745,48.044 -5.793,55.825 4.956,55.549 8.859,50.685 16.494,52.25 20.082,46.809 33.522,34.57 42.691,17.527 62.279,12.235 71.056,9.864 72.65,-0.596 77.51,-6.142 c -4.415,16.875 -15.657,34.982 0.494,52.91 2.234,1.287 4.434,1.253 6.637,-0.077 8.353,-26.272 16.3,-52.629 18.323,-80.336 -3.028,-8.694 0.543,-18.231 -3.279,-26.85 -7.62,-4.633 -12.623,1.541 -18.437,4.416 -4.879,3.462 -12.667,5.435 -13.503,11.446 -2.718,19.54 -19.757,25.512 -31.93,36.124 C 15.992,15.072 15.992,15.072 0,0" style="fill:#b02124;fill-opacity:1;fill-rule:nonzero;stroke:none" transform="matrix(1.3333333,0,0,-1.3333333,1604.0116,3101.952)" />
      <path id="path16" d="m 0,0 c 13.816,6.795 24.717,-0.034 20.016,-12.488 -6.177,-16.364 5.01,-27.921 4.985,-42.121 -0.01,-6.096 5.336,-20.077 19.774,-16.089 2.655,0.733 7.993,-0.021 8.658,-1.567 8.074,-18.759 31.741,-21.742 40.016,-40.035 -0.788,-0.699 -1.576,-1.399 -2.358,-2.111 -18.51,-5.774 -34.59,5.235 -51.95,7.485 -6.637,2.797 -12.764,6.622 -19.281,9.677 -1.768,1.041 -3.343,2.335 -4.749,3.824 -5.059,6.048 -8.587,13.34 -14.832,18.458 C 0.186,-49.978 0.093,-24.989 0,0" style="fill:#cf2420;fill-opacity:1;fill-rule:nonzero;stroke:none" transform="matrix(1.3333333,0,0,-1.3333333,1598.1129,3520.1529)" />
      <path id="path17" d="M 0,0 C 0.162,15.876 0.324,31.752 0.487,47.629 25.51,42.205 26.071,19.167 33.892,1.339 c 1.493,-11.309 3.931,-22.368 9.019,-32.706 4.633,-10.002 6.527,-19.886 -1.376,-29.255 -13.437,-12.197 4.676,-9.244 6.799,-13.969 1.385,-1.794 2.417,-3.756 3.126,-5.907 1.183,-4.443 1.256,-8.918 0.48,-13.419 -4.842,-14.98 -11.852,-9.856 -19.622,-2.325 C 13.566,-78.07 4.887,-55.135 0.387,-30.139 0.523,-20.096 3.078,-10.013 0,0" style="fill:#6a1417;fill-opacity:1;fill-rule:nonzero;stroke:none" transform="matrix(1.3333333,0,0,-1.3333333,1891.1897,3214.4211)" />
      <path id="path20" d="m 0,0 c 6.217,-5.782 5.922,-10.734 -2.328,-13.796 -6.693,-2.484 -12.161,-6.35 -20.438,-15.753 25.839,9.895 51.516,5.476 68.063,27.17 1.725,2.262 7.184,1.675 10.911,2.41 4.679,3.539 9.356,8.817 14.045,0.011 0.637,-1.337 0.859,-2.74 0.666,-4.209 -1.644,-11.18 3.534,-23.496 -5.522,-33.449 -16.819,-14.591 -36.341,-15.073 -55.234,-7.015 -10.146,4.328 -13.628,1.048 -17.615,-6.32 -6.812,-4.651 -11.48,0.721 -16.715,3.502 -4.896,4.074 -11.113,2.618 -16.701,3.891 -8.609,6.371 -17.344,12.664 -16.062,25.3 2.523,2.331 5.562,3.009 8.896,2.772 5.74,-0.864 11.99,-4.455 16.077,3.181 C -24.354,-0.248 -10.292,-5.054 0,0" style="fill:#a82024;fill-opacity:1;fill-rule:nonzero;stroke:none" transform="matrix(1.3333333,0,0,-1.3333333,1778.7588,3320.5297)" />
      <path id="path21" d="m 0,0 c -4.637,12.592 -9.275,25.183 -13.912,37.775 11.407,8.59 -0.731,13.131 -3.367,19.325 -1.555,4.348 -4.336,8.312 -3.941,13.244 16.054,14.61 44.384,3.921 53.469,-20.101 3.07,-8.118 1.901,-17.066 5.15,-25.121 1.552,-5.962 1.859,-12.041 1.575,-18.162 -4.875,-13.465 -1.433,-29.832 -13.993,-40.677 -4.933,0.83 -7.66,4.214 -9.708,8.373 C 12.714,-15.387 10.318,-5.313 0,0" style="fill:#811b1f;fill-opacity:1;fill-rule:nonzero;stroke:none" transform="matrix(1.3333333,0,0,-1.3333333,1847.1844,3639.2233)" />
      <path id="path22" d="m 0,0 c 7.992,0.888 14.8,-0.645 18.299,-8.946 9.467,-15.46 27.097,-13.959 41.23,-19.765 6.453,-4.766 21.6,1.45 18.902,-14.887 -29.688,-21.011 -62.555,-23.647 -97.064,-16.772 0.079,4.755 0.158,9.511 0.236,14.266 C -12.62,-30.595 -11.882,-13.074 0,0" style="fill:#b22024;fill-opacity:1;fill-rule:nonzero;stroke:none" transform="matrix(1.3333333,0,0,-1.3333333,1623.1043,3645.4732)" />
      <path id="path23" d="m 0,0 c 5.559,-27.795 26.426,-43.947 46.289,-60.862 -0.062,-6.284 -0.122,-12.567 -0.183,-18.851 -4.928,-2.106 -5.594,-8.292 -10.237,-10.69 -4.741,-0.027 -7.988,2.45 -10.516,6.183 -1.551,2.872 -2.384,5.958 -2.773,9.171 -0.314,7.408 1.746,16.144 -9.828,17.189 -6.938,4.43 -8.74,12.182 -12.295,18.801 -2.907,5.412 -6.401,12.984 -12.317,12.276 -16.475,-1.973 -21.695,10.876 -30.118,19.809 -3.053,1.214 -5.907,2.75 -8.507,4.759 -7.332,17.102 -11.687,34.863 -11.605,53.588 2.632,2.667 5.922,2.442 9.231,2.109 5.494,-2.131 7.597,-7.112 10.041,-11.861 4.743,-9.216 4.976,-20.993 22.241,-19.076 C -10.339,23.682 -6.459,8.236 0,0" style="fill:#c92420;fill-opacity:1;fill-rule:nonzero;stroke:none" transform="matrix(1.3333333,0,0,-1.3333333,1978.502,3102.0629)" />
      <path id="path25" d="m 0,0 c -5.884,19.363 -7.835,41.166 -32.32,48.352 -8.498,2.493 -16.711,7.061 -19.4,-6.505 1.653,-4.873 -0.537,-5.747 -4.726,-4.542 -12.339,29.754 -24.679,59.509 -37.018,89.263 -3.874,8.888 -1.152,12.797 7.206,6.992 6.843,-4.753 11.552,-12.543 20.073,-15.391 10.519,-12.142 13.646,-28.413 25.406,-40.863 6.311,-6.682 13.639,-4.14 18.093,-9.567 C -17.422,55.659 -2.398,58.547 5.042,49.734 6.326,47.87 7.14,45.838 7.573,43.624 4.947,29.099 19.338,11.603 0,0" style="fill:#b52123;fill-opacity:1;fill-rule:nonzero;stroke:none" transform="matrix(1.3333333,0,0,-1.3333333,1891.1447,3607.5876)" />
      <path id="path27" d="M 0,0 C 17.515,20.822 16.189,36.097 -4.474,51.548 5.03,59.493 14.406,53.326 23.838,51.343 34.256,45.669 40.446,37.44 39.57,25.029 34.81,3.671 34.81,3.671 16.824,10.786 38.321,-3.022 21.21,-30.62 41.969,-42.121 c 0.008,-4.669 0.017,-9.337 0.025,-14.005 -7.462,-4.596 -15.542,-7.526 -24.18,-9.009 -6.906,-0.29 -13.189,1.766 -19.145,5.077 -2.847,2.011 -4.762,4.559 -4.601,8.252 6.078,6.529 4.445,12.944 1.482,20.702 C -8.498,-20.507 -12.38,-8.762 0,0" style="fill:#ae2124;fill-opacity:1;fill-rule:nonzero;stroke:none" transform="matrix(1.3333333,0,0,-1.3333333,1691.3365,3457.6369)" />
      <path id="path30" d="m 0,0 c -1.393,-0.073 -2.786,-0.133 -4.18,-0.18 -7.365,6.484 -6.222,14.754 -4.816,23.065 0.124,0.735 0.849,1.56 0.656,2.122 -0.719,2.09 -1.918,2.177 -3.355,0.322 C -24.437,23.238 -34.936,17.993 -43.009,7.49 -48.051,0.932 -54.828,-7.995 -63.517,-4.462 c -9.906,4.027 -5.373,14.464 -3.61,22.572 0.689,3.169 -0.243,6.071 -0.868,9.065 -0.722,3.196 -0.71,6.368 0.207,9.521 1.225,3.034 3.258,5.483 5.586,7.71 8.133,4.565 5.077,23.206 21.592,17.319 4.413,-4.073 9.274,-17.107 12.529,0.713 0.691,3.782 2.314,7.197 5.632,9.53 7.765,0.778 12.587,3.192 11.988,12.883 -0.657,10.635 -2.142,21.872 4.563,31.67 1.941,1.602 3.957,1.701 6.046,0.32 C 0.098,77.894 0.049,38.947 0,0" style="fill:#a32024;fill-opacity:1;fill-rule:nonzero;stroke:none" transform="matrix(1.3333333,0,0,-1.3333333,2040.3948,3451.4137)" />
      <path id="path34" d="m 0,0 c 4.63,-17.248 9.259,-34.496 13.889,-51.745 14.293,-9.679 4.011,-30.698 18.632,-40.239 1.661,-1.495 2.917,-3.247 3.808,-5.289 -0.689,-13.905 6.423,-29.136 -6.91,-40.899 -2.349,-0.271 -4.481,0.316 -6.423,1.642 -6.235,17.663 -11.412,35.928 -27.337,48.083 -0.297,29.555 -0.596,59.106 -0.894,88.658 C -3.435,1.506 -1.69,1.436 0,0" style="fill:#db2822;fill-opacity:1;fill-rule:nonzero;stroke:none" transform="matrix(1.3333333,0,0,-1.3333333,1897.6256,3032.9913)" />
      <path id="path36" d="m 0,0 c -4.839,1.201 0.406,-13.688 -12.859,-4.865 -30.71,20.428 -55.432,43.726 -69.105,78.53 -2.474,6.298 -11.077,10.187 -16.851,15.188 21.928,8.035 29.319,3.682 39.344,-23.094 1.268,-1.705 2.372,-3.517 3.434,-5.349 5.394,-11.76 12.282,-21.803 26.648,-23.356 C -19.004,33.789 -5.933,36.446 0.164,23.74 0.109,15.827 0.055,7.913 0,0" style="fill:#8f1e22;fill-opacity:1;fill-rule:nonzero;stroke:none" transform="matrix(1.3333333,0,0,-1.3333333,1747.1437,3620.5588)" />
      <path id="path40" d="m 0,0 c 3.016,12.441 6.032,24.882 9.048,37.323 1.661,1.495 3.584,2.008 5.769,1.569 8.559,-7.73 23.613,-0.137 30.158,-12.723 1.361,-4.383 1.096,-8.573 -1.454,-12.493 -15.19,-6.656 -8.36,-22.217 -12.748,-33.233 -0.872,-2.187 11.766,0.548 10.691,-5.186 -1.984,-10.588 5.645,-1.075 6.609,-4.032 4.521,-1.108 8.678,-2.56 8.138,-8.49 C 38.53,-36.926 20.608,-40.468 3.31,-33.969 6.701,-22.208 -10.11,-12.416 0,0" style="fill:#931f23;fill-opacity:1;fill-rule:nonzero;stroke:none" transform="matrix(1.3333333,0,0,-1.3333333,1879.1517,3682.1989)" />
      <path id="path42" d="m 0,0 c -6.034,28.059 -12.069,56.119 -18.103,84.178 -3.315,0.475 -5.321,2.282 -5.767,5.673 5.753,6.289 13.005,2.988 19.726,3.086 7.775,-7.431 9.367,-17.791 12.97,-27.208 2.011,-7.491 3.298,-15.162 5.535,-22.601 1.382,-7.359 1.858,-14.898 4.318,-22.05 1.328,-6.049 2.202,-12.188 3.376,-18.255 0.868,-5.103 4.585,-8.709 6.927,-13.031 0.488,-2.026 0.096,-3.88 -1.128,-5.56 C 22.92,-18.745 20.807,-25.663 13.84,-25.891 1.539,-21.352 -2.546,-12.445 0,0" style="fill:#7f1a1e;fill-opacity:1;fill-rule:nonzero;stroke:none" transform="matrix(1.3333333,0,0,-1.3333333,1735.0816,3151.8577)" />
      <path id="path43" d="m 0,0 c 6.121,-3.193 12.241,-6.387 18.362,-9.58 8.918,-5.272 20.479,-5.671 27.344,-14.76 7.164,-8.89 14.89,-17.182 24.836,-23.135 1.771,-1.334 3.274,-2.902 4.548,-4.707 1.592,-2.645 3.518,-5.014 5.499,-7.363 3.36,-3.984 8.613,-7.851 4.671,-13.81 -4.563,-6.896 -10.772,-3.886 -16.27,-1.079 -6.145,3.138 -12.3,6.214 -18.751,8.687 -4.155,1.875 -7.823,4.468 -11.139,7.565 C 30.461,-43.146 12.054,-46.385 0.165,-37.437 0.11,-24.958 0.055,-12.479 0,0" style="fill:#621214;fill-opacity:1;fill-rule:nonzero;stroke:none" transform="matrix(1.3333333,0,0,-1.3333333,1597.7464,3276.8353)" />
      <path id="path56" d="m 0,0 c -1.744,0.069 -3.488,0.138 -5.233,0.209 34.512,9.423 69.625,2.35 104.436,3.544 8.335,0.285 8.213,-7.69 8.225,-13.86 0.022,-12.297 -0.202,-24.595 -0.326,-36.892 -9.025,12.586 -1.368,27.323 -6.253,43.893 -3.17,-23.299 -9.383,-33.834 -27.573,-12.215 -3.967,4.715 -14.453,3.946 -21.937,5.703 -0.297,0.938 -0.594,1.876 -0.901,2.607 1.077,-3.132 -1.998,3.473 0.662,1.84 2.659,-1.632 4.706,1.01 1.63,0.915 C 45.936,-4.465 39.433,-7.379 32.47,-6.74 23.958,-7.242 15.783,-6.491 8.871,-0.784 5.914,-0.522 2.957,-0.261 0,0" style="fill:#9a2024;fill-opacity:1;fill-rule:nonzero;stroke:none" transform="matrix(1.3333333,0,0,-1.3333333,1897.6256,3032.9912)" />
      <path id="path57" d="m 0,0 c -1.832,-1.691 -3.664,-3.381 -5.495,-5.071 -6.523,-1.438 -8.805,3.878 -12.143,7.562 -2.451,3.435 -4.319,7.126 -4.897,11.383 -0.229,2.121 -0.196,4.235 -0.019,6.352 1.815,10.952 -6.166,16.365 -13.03,21.915 -6.525,5.276 -12.148,11.056 -16.079,18.457 -0.147,12.427 -0.294,24.855 -0.441,37.282 -2.259,2.974 -2.131,6.199 -1.006,9.529 1.901,1.548 3.877,1.647 5.925,0.297 1.8,-28.443 19.603,-48.834 35.879,-69.738 4.117,-5.288 5.59,0.558 6.338,4.198 2.93,1.372 5.347,0.75 7.266,-1.856 C 8.398,26.487 6.042,13.138 0,0" style="fill:#7c191d;fill-opacity:1;fill-rule:nonzero;stroke:none" transform="matrix(1.3333333,0,0,-1.3333333,1960.2661,3395.3065)" />
      <path id="path60" d="m 0,0 c 3.123,-1.553 6.245,-3.105 9.368,-4.658 10.704,-6.746 20.058,-15.814 33.688,-17.301 5.199,-0.567 10.147,-3.63 8.46,-10.746 -9.323,1.598 -18.646,3.196 -27.968,4.796 -19.723,14.353 -44.481,4.671 -65.323,13.681 C -41.8,-6.396 -41.827,1.437 -41.854,9.27 -24.467,21.693 -13.157,6.678 0,0" style="fill:#8b1d21;fill-opacity:1;fill-rule:nonzero;stroke:none" transform="matrix(1.3333333,0,0,-1.3333333,1653.972,3351.696)" />
      <path id="path66" d="m 0,0 c 16.251,-0.058 32.506,-0.347 48.751,-0.079 8.293,0.138 15.994,-3.19 18.683,12.146 2.33,13.291 20.131,3.723 30.619,6.627 10.905,6.765 10.246,-3.939 13.406,-8.874 0.729,-5.455 1.312,-13.293 -5.062,-13.281 C 70.916,-3.396 35.12,-10.797 0,0" style="fill:#981f24;fill-opacity:1;fill-rule:nonzero;stroke:none" transform="matrix(1.3333333,0,0,-1.3333333,1598.2599,3725.9661)" />
      <path id="path69" d="m 0,0 c 0.423,-4.091 -9.231,-3.178 -4.638,-9.339 2.898,-5.37 -2.057,-6.741 -4.724,-9.276 -9.486,0.161 -18.972,0.322 -28.458,0.483 -8.298,11.813 -13.604,24.661 -13.655,39.313 0.453,2.164 1.334,4.189 2.568,6.028 12.835,3.917 11.592,-8.641 16.388,-14.106 6.205,-7.073 4.072,1.595 5.762,3.132 5.19,8.953 9.197,22.476 22.747,15.204 C 9.458,24.211 6.464,11.544 0,0" style="fill:#a62024;fill-opacity:1;fill-rule:nonzero;stroke:none" transform="matrix(1.3333333,0,0,-1.3333333,2022.2416,3707.4288)" />
      <path id="path73" d="m 0,0 c -9.398,8.225 -23.437,0.373 -32.601,9.41 -13.453,4.111 -21.854,12.918 -24.863,26.725 3.102,7.478 11.205,1.451 15.507,5.715 6.224,-1.484 12.447,-2.969 18.67,-4.453 7.989,-4.273 17.74,-5.578 23.349,-13.861 C 0.042,15.691 0.021,7.845 0,0" style="fill:#70161a;fill-opacity:1;fill-rule:nonzero;stroke:none" transform="matrix(1.3333333,0,0,-1.3333333,1747.3627,3588.9055)" />
      <path id="path74" d="m 0,0 c 8.432,9.53 -0.109,24.187 10.031,33.203 1.364,-3.223 2.725,-6.448 4.086,-9.674 4.37,-7.248 11.304,-12.461 15.751,-19.604 5.074,-8.152 6.068,2.922 9.653,1.843 10.504,-5.314 8.185,-14.796 7.893,-23.643 -0.311,-2.263 -0.889,-4.466 -1.575,-6.641 -2.018,-5.188 -3.582,-10.658 -8.12,-14.427 -13.267,-4.311 -17.726,6.156 -23.275,14.266 C 9.773,-17.85 8.958,-8.089 -0.811,-5.244 -2.118,-3.248 -1.839,-1.499 0,0" style="fill:#b62123;fill-opacity:1;fill-rule:nonzero;stroke:none" transform="matrix(1.3333333,0,0,-1.3333333,1859.9405,3370.3593)" />
      <path id="path77" d="m 0,0 c -4.689,2.231 -7.052,2.256 -10.44,-3.574 -2.862,-4.924 -2.465,1.99 -3.606,3.563 -12.648,9.346 -29.553,2.472 -43.006,13.067 -13.478,10.617 -8.711,21.375 -5.544,32.524 1.889,6.652 8.851,4.109 14.108,3.373 9.696,-1.357 4.096,-7.222 4.075,-12.021 -0.031,-6.653 -11.177,-18.321 6.943,-18.173 9.549,-2.917 19.84,-0.331 29.295,-3.951 C -3.062,11.19 -0.337,6.255 0,0" style="fill:#901f23;fill-opacity:1;fill-rule:nonzero;stroke:none" transform="matrix(1.3333333,0,0,-1.3333333,1872.43,3320.4733)" />
      <path id="path81" d="m 0,0 c -1.337,0.163 -2.676,0.315 -4.015,0.456 -2.245,0.288 -4.461,0.721 -6.659,1.269 -10.582,1.807 -21.295,-1.069 -31.861,0.925 -7.312,1.379 -17.06,0.464 -19.208,9.261 -2.894,11.846 9.416,11.397 15.782,15.646 7.096,3.71 14.518,6.634 22.123,9.156 2.227,0.72 4.505,1.161 6.824,1.456 6.046,0.537 11.744,-0.211 16.409,-4.599 C -0.404,22.38 -0.202,11.19 0,0" style="fill:#871c1f;fill-opacity:1;fill-rule:nonzero;stroke:none" transform="matrix(1.3333333,0,0,-1.3333333,2040.5916,3295.6252)" />
      <path id="path82" d="m 0,0 c -14.384,1.407 -19.375,10.347 -18.368,23.555 0.844,11.074 -0.718,21.244 -10.641,31.791 16.781,-11.087 20.298,0.644 24.934,10.311 1.722,2.153 2.982,1.806 3.842,-0.709 C -0.155,43.298 -0.078,21.649 0,0" style="fill:#bf2221;fill-opacity:1;fill-rule:nonzero;stroke:none" transform="matrix(1.3333333,0,0,-1.3333333,1747.2955,3513.7987)" />
      <path id="path86" d="m 0,0 c -5.308,8.497 -9.596,17.314 -8.668,27.757 15.464,4.465 20.578,-5.119 23.676,-17.44 4.79,-20.329 16.068,-40.061 5.695,-61.801 -5.804,-3.011 -8.448,1.085 -11.186,4.972 C 5.555,-39.119 4.29,-31.207 4.974,-22.919 5.469,-14.812 7.65,-6.339 0,0" style="fill:#c52321;fill-opacity:1;fill-rule:nonzero;stroke:none" transform="matrix(1.3333333,0,0,-1.3333333,1741.1123,3064.9493)" />
      <path id="path88" d="m 0,0 c -1.287,0.212 -2.57,0.447 -3.845,0.708 -1.455,9.813 -8.317,16.272 -14.399,23.216 -11.814,12.708 -34.29,9.393 -42.147,28.047 11.183,-0.071 18.321,-9.574 29.573,-12.984 3.882,11.617 -9.619,14.42 -10.603,22.636 3.073,2.164 6.039,2.13 8.88,-0.435 6.374,-7.721 12.748,-15.442 19.122,-23.163 3.112,-0.296 5.676,-1.725 7.943,-3.795 C -0.852,28.954 4.279,24.159 9.194,19.127 12.316,14.401 14.416,9.641 9.524,4.744 3.5,8.884 0.897,6.154 0,0" style="fill:#72161a;fill-opacity:1;fill-rule:nonzero;stroke:none" transform="matrix(1.3333333,0,0,-1.3333333,1746.9848,3427.2019)" />
      <path id="path91" d="m 0,0 c -0.444,-14.415 13.217,-25.613 9.308,-40.817 -4.431,-0.07 -8.861,-0.14 -13.288,-0.21 -3.243,1.437 -6.488,2.874 -9.733,4.311 -2.723,12.391 -13.721,22.951 -8.268,37.172 5.972,6.771 5.28,15.788 7.899,23.677 1.879,1.057 3.829,1.176 5.833,0.368 5.282,-5.589 4.28,-12.884 5.265,-19.638 C -2.169,3.137 -1.184,1.508 0,0" style="fill:#da2a25;fill-opacity:1;fill-rule:nonzero;stroke:none" transform="matrix(1.3333333,0,0,-1.3333333,1959.4044,3677.1831)" />
      <path id="path103" d="m 0,0 c -2.7,1.267 -7.728,2.494 -7.751,3.808 -0.367,20.985 -13.012,25.467 -30.684,23.713 -4.17,-0.001 -8.333,0.002 -12.493,0.004 -0.138,4.886 -0.276,9.773 -0.415,14.66 11.732,-7.03 24.665,-4.393 37.24,-4.633 C -5.026,39.89 -2.608,30.395 3.63,27.647 7.781,24.252 11.406,20.499 12.143,14.862 12.038,12.834 11.536,10.88 10.67,9.047 1.915,12.187 4.024,2.48 0,0" style="fill:#8d1d21;fill-opacity:1;fill-rule:nonzero;stroke:none" transform="matrix(1.3333333,0,0,-1.3333333,1666.6475,3538.7768)" />
      <path id="path105" d="M 0,0 C 1.501,20.625 -1.641,40.969 -3.717,61.379 5.02,40.655 13.755,19.931 22.489,-0.794 17.126,-12.975 9.308,-14.144 -0.609,-5.952 -1.582,-3.853 -1.432,-1.86 0,0" style="fill:#951f23;fill-opacity:1;fill-rule:nonzero;stroke:none" transform="matrix(1.3333333,0,0,-1.3333333,1766.0773,3133.0339)" />
      <path id="path109" d="m 0,0 c -1.448,4.69 -2.897,9.381 -4.345,14.071 -4.501,3.455 -8.07,7.438 -7.737,13.638 0.57,2.186 1.745,3.958 3.617,5.248 4.451,-3.088 8.901,-6.175 13.351,-9.263 6.055,-3.88 7.811,-10.882 11.863,-16.223 2.911,-5.019 6.142,-9.81 10,-14.181 1.966,-2.363 3.528,-4.944 4.425,-7.905 0.487,-3.212 -0.052,-6.11 -2.602,-8.377 -11.585,-5.039 -13.523,5.083 -17.73,11.411 C 6.343,-4.814 5.991,-9.702 5.131,-13.466 0.162,-10.219 0.409,-4.985 0,0" style="fill:#8f1e22;fill-opacity:1;fill-rule:nonzero;stroke:none" transform="matrix(1.3333333,0,0,-1.3333333,1759.6837,3420.8769)" />
      <path id="path110" d="m 0,0 c -10.361,-3.105 -21.813,-14.307 -29.294,3.95 0.137,6.685 3.248,11.38 9.395,14.044 3.955,2.267 2.12,7.452 5.135,10.193 C -0.628,23.618 -2.323,10.757 0,0" style="fill:#891d21;fill-opacity:1;fill-rule:nonzero;stroke:none" transform="matrix(1.3333333,0,0,-1.3333333,1861.5296,3300.7292)" />
      <path id="path111" d="m 0,0 c 1.919,-1.891 3.838,-3.781 5.762,-5.673 0.005,0 -0.718,0.204 -0.718,0.204 -20.196,-12.32 -40.476,-10.889 -60.81,-0.368 -6.17,0.542 -13.21,-0.247 -13.711,8.965 C -46.299,2.49 -22.85,7.911 0,0" style="fill:#d4261c;fill-opacity:1;fill-rule:nonzero;stroke:none" transform="matrix(1.3333333,0,0,-1.3333333,1703.2551,3032.0559)" />
      <path id="path112" d="m 0,0 c 10.632,-7.054 21.871,-13.274 30.295,-23.258 4.986,-5.91 10.755,-11.444 3.151,-19.301 -2.048,0.446 -3.93,1.278 -5.69,2.405 -5.724,4.633 -11.558,8.862 -19.577,5.719 -6.419,1.24 -8.367,5.915 -8.948,11.638 C -0.513,-15.198 -0.256,-7.599 0,0" style="fill:#b32123;fill-opacity:1;fill-rule:nonzero;stroke:none" transform="matrix(1.3333333,0,0,-1.3333333,1891.3821,3314.5092)" />
      <path id="path113" d="m 0,0 c -4.541,2.848 -6.67,9.341 -13.406,8.873 -5.969,8.17 -17.833,0.865 -23.792,9.064 4.395,7.319 14.459,7.057 18.987,14.198 0,0 0.09,0.103 0.091,0.104 6.215,2.785 14.143,2.122 18.277,9.089 C 0.104,27.551 0.052,13.776 0,0" style="fill:#cf2420;fill-opacity:1;fill-rule:nonzero;stroke:none" transform="matrix(1.3333333,0,0,-1.3333333,1746.8716,3712.8729)" />
      <path id="path114" d="m 0,0 c -16.043,-10.162 -12.304,15.921 -24.263,13.242 -8.239,-4.623 -11.121,-0.225 -12.197,7.234 2.164,11.509 8.7,17.302 20.765,15.842 C -10.463,24.212 -5.232,12.106 0,0" style="fill:#c22120;fill-opacity:1;fill-rule:nonzero;stroke:none" transform="matrix(1.3333333,0,0,-1.3333333,1823.606,3200.8796)" />
      <path id="path120" d="m 0,0 c -5.977,-4.57 -11.954,-9.139 -17.932,-13.709 -1.545,-1.581 -2.91,-1.439 -4.097,0.426 0.153,7.008 -18.316,0.675 -9.797,13.676 2.421,2.691 0.728,7.393 4.584,9.383 8.174,-2.823 15.78,-2.48 22.282,3.998 C -3.308,9.181 -1.654,4.591 0,0" style="fill:#b22123;fill-opacity:1;fill-rule:nonzero;stroke:none" transform="matrix(1.3333333,0,0,-1.3333333,1802.6793,3152.4557)" />
      <path id="path121" d="m 0,0 c 0.508,-18.018 -8.381,-32.288 -18.397,-46.106 0.007,13.999 0.013,27.996 0.02,41.993 5.12,4.729 10.595,8.128 17.872,4.762 z" style="fill:#cb221f;fill-opacity:1;fill-rule:nonzero;stroke:none" transform="matrix(1.3333333,0,0,-1.3333333,1623.1043,3645.4732)" />
      <path id="path129" d="m 0,0 c -15.245,-2.745 -26.108,14.297 -41.856,9.271 -0.049,3.145 -0.099,6.292 -0.149,9.438 C -25.126,18.932 -7.659,20.476 0,0" style="fill:#72161a;fill-opacity:1;fill-rule:nonzero;stroke:none" transform="matrix(1.3333333,0,0,-1.3333333,1653.972,3351.696)" />
      <path id="path134" d="m 0,0 c 0.975,3.227 2.076,9.671 6.154,4.579 6.373,-7.957 14.912,-15.902 12.389,-28.142 -1.861,-3.072 -0.479,-7.744 -4.749,-9.628 C 9.196,-22.127 4.598,-11.064 0,0" style="fill:#981f23;fill-opacity:1;fill-rule:nonzero;stroke:none" transform="matrix(1.3333333,0,0,-1.3333333,1847.1845,3639.2233)" />
      <path id="path135" d="M 0,0 C 2.084,3.035 4.168,6.07 6.252,9.104 7.729,0.053 19.776,-5.409 15.719,-15.836 13.94,-20.408 8.459,-23.444 7.584,-30.394 1.953,-22.877 6.644,-14.272 -0.033,-9.462 -0.022,-6.308 -0.011,-3.154 0,0" style="fill:#dc2a22;fill-opacity:1;fill-rule:nonzero;stroke:none" transform="matrix(1.3333333,0,0,-1.3333333,1598.4367,3214.3)" />
      <path id="path137" d="m 0,0 c -8.724,3.036 -20.319,1.236 -23.349,13.862 7.491,2.884 14.022,10.305 23.263,4.926 C -0.058,12.526 -0.029,6.263 0,0" style="fill:#921f23;fill-opacity:1;fill-rule:nonzero;stroke:none" transform="matrix(1.3333333,0,0,-1.3333333,1747.4453,3557.524)" />
      <path id="path138" d="m 0,0 c -5.443,-3.516 -11.253,-5.66 -17.872,-4.763 -0.029,7.714 -0.059,15.425 -0.087,23.137 C -3.135,20.888 -3.506,8.549 0,0" style="fill:#e52d27;fill-opacity:1;fill-rule:nonzero;stroke:none" transform="matrix(1.3333333,0,0,-1.3333333,1622.4312,3644.6081)" />
      <path id="path141" d="M 0,0 C 0.511,3.743 0.951,7.521 4.752,9.633 6.558,6.737 8.366,3.846 10.178,0.957 5.03,-10.972 24.441,-20.505 13.495,-33.006 5.857,-23.289 3.99,-11.211 0,0" style="fill:#ac2023;fill-opacity:1;fill-rule:nonzero;stroke:none" transform="matrix(1.3333333,0,0,-1.3333333,1865.5761,3683.4775)" />
      <path id="path146" d="m 0,0 c 3.324,-3.25 6.648,-6.501 9.972,-9.751 2.67,-0.451 4.179,-2.06 4.674,-4.681 -1.957,-3.502 4.056,-16.441 -8.153,-7.744 C -2.213,-15.975 -7.766,-6.793 -8.695,4.438 -5.797,2.959 -2.898,1.479 0,0" style="fill:#ac2025;fill-opacity:1;fill-rule:nonzero;stroke:none" transform="matrix(1.3333333,0,0,-1.3333333,1890.3568,3344.9052)" />
      <path id="path148" d="m 0,0 c -5.959,-0.207 -11.917,-0.414 -17.875,-0.621 -7.214,9.348 -8.399,18.684 0.048,28.004 3.091,-1.554 6.182,-3.108 9.272,-4.663 C -4.764,18.575 -6.82,10.856 0.073,8.607 0.048,5.738 0.024,2.869 0,0" style="fill:#cc251f;fill-opacity:1;fill-rule:nonzero;stroke:none" transform="matrix(1.3333333,0,0,-1.3333333,2039.7847,3250.8645)" />
      <path id="path150" d="m 0,0 c 0.747,-4.636 3.93,-10.5 -5.135,-10.194 1.107,10.345 -3.069,19.181 -6.881,28.495 -3.604,8.804 3.487,4.882 7.209,4.283 C 1.833,16.127 0.064,7.882 0,0" style="fill:#9e2024;fill-opacity:1;fill-rule:nonzero;stroke:none" transform="matrix(1.3333333,0,0,-1.3333333,1841.8437,3263.146)" />
      <path id="path163" d="m 0,0 c 8.729,-1.759 13.139,-7.862 11.99,-15.927 -1.126,-7.902 -7.422,-4.961 -12.339,-3.161 -0.55,1.256 -0.876,2.568 -0.98,3.935 C 0.907,-10.259 -3.72,-4.764 0,0" style="fill:#9d2024;fill-opacity:1;fill-rule:nonzero;stroke:none" transform="matrix(1.3333333,0,0,-1.3333333,1829.1017,3563.4063)" />
      <path id="path164" d="M 0,0 C 1.403,-5.208 6.69,-10.756 -1.325,-15.149 -6.134,-9.575 -9.134,-3.196 -9.913,4.17 -8.337,5.685 -6.759,7.201 -5.185,8.714 -1.172,7.169 -0.339,3.732 0,0" style="fill:#ab2024;fill-opacity:1;fill-rule:nonzero;stroke:none" transform="matrix(1.3333333,0,0,-1.3333333,1829.1017,3563.4063)" />
      <path id="path168" d="m 0,0 c -1.375,0.127 -2.74,0.319 -4.096,0.576 -4.806,7.475 -3.595,15.138 -0.711,22.852 0.082,1.509 0.143,3.019 0.185,4.53 C 1.66,19.422 6.69,10.68 0,0" style="fill:#a72025;fill-opacity:1;fill-rule:nonzero;stroke:none" transform="matrix(1.3333333,0,0,-1.3333333,1897.3523,3251.698)" />
      <path id="path169" d="m 0,0 c -15.729,-3.152 -5.457,9.588 -8.626,14.114 0.307,5.514 2.84,8.919 8.698,9.169 C -4.516,15.536 -4.026,7.773 0,0" style="fill:#dc2a22;fill-opacity:1;fill-rule:nonzero;stroke:none" transform="matrix(1.3333333,0,0,-1.3333333,2039.8815,3239.3892)" />
      <path id="path175" d="M 0,0 C 1.574,3.092 3.149,6.183 4.724,9.275 11.127,9.174 17.885,9.636 18.625,0.535 12.416,0.359 6.208,0.179 0,0" style="fill:#9b2024;fill-opacity:1;fill-rule:nonzero;stroke:none" transform="matrix(1.3333333,0,0,-1.3333333,2009.7588,3732.2488)" />
      <path id="path176" d="M 0,0 C 0.234,-7.621 0.468,-15.241 0.706,-22.857 0.438,-26.317 0.165,-29.782 -0.109,-33.251 -6.413,-22.148 -6.87,-11.062 0,0" style="fill:#6a1417;fill-opacity:1;fill-rule:nonzero;stroke:none" transform="matrix(1.3333333,0,0,-1.3333333,1890.9433,3220.4609)" />
      <path id="path183" d="m 0,0 c -0.794,-8.059 -6.361,-9.38 -13.011,-9.298 -7.088,0.086 -14.102,-0.053 -15.175,-9.562 -3.82,-1.217 -5.976,0.957 -7.815,3.798 -3.332,8.572 -3.651,18.332 -10.095,25.712 -3.142,4.728 -2.982,10.042 -2.781,15.366 -3.847,17.526 -11.063,35.837 10.755,47.483 2.792,5.501 0.278,11.242 0.717,16.854 0.301,3.234 1.357,6.14 3.542,8.593 2.077,1.127 4.005,0.918 5.789,-0.612 2.991,-16.048 8.611,-32.36 -4.682,-46.778 -5.345,-8.751 -0.046,-15.172 6.326,-18.803 C -14.964,26.218 -10.611,15.047 -4.67,4.72 -3.113,3.147 -1.557,1.573 0,0" style="fill:#b32023;fill-opacity:1;fill-rule:nonzero;stroke:none" transform="matrix(1.3333333,0,0,-1.3333333,1778.7588,3320.5297)" />
      <path id="path184" d="m 0,0 c -1.444,0.195 -2.892,0.35 -4.345,0.465 -1.2,0.873 -1.638,1.793 -1.317,2.761 0.328,0.992 0.678,1.488 1.053,1.488 1.127,7.822 -10.014,15.605 -0.074,23.456 2.579,-10.809 4.592,-22.078 18.92,-23.379 9.7,-3.61 4.828,6.975 8.756,8.987 0,0 0.984,0.655 0.988,0.658 1.363,-0.211 2.729,-0.353 4.102,-0.423 C 28.449,8.136 31.58,5.023 37.447,4.647 28.887,-28.517 13.859,-9.549 0,0" style="fill:#871d21;fill-opacity:1;fill-rule:nonzero;stroke:none" transform="matrix(1.3333333,0,0,-1.3333333,1741.3265,3189.4181)" />
      <path id="path185" d="m 0,0 c -13.018,6.091 -16.654,21.498 -29.175,28.792 -5.859,3.414 -5.257,12.295 1.09,18.044 0.299,-7.815 4.496,-14.848 11.138,-16.353 C 1.045,26.404 0.758,13.673 0,0" style="fill:#a82024;fill-opacity:1;fill-rule:nonzero;stroke:none" transform="matrix(1.3333333,0,0,-1.3333333,1772.5319,3314.2369)" />
      <path id="path186" d="M 0,0 C -10.435,-16.304 -18.54,-16.074 -33.815,-9.213 -21.219,-5.781 -13.848,-3.773 0,0" style="fill:#921f23;fill-opacity:1;fill-rule:nonzero;stroke:none" transform="matrix(1.3333333,0,0,-1.3333333,1782.468,3238.716)" />
      <path id="path187" d="m 0,0 c -1.415,0.319 -2.842,0.568 -4.282,0.748 -5.585,7.072 0.709,16.434 -4.543,23.571 l -0.034,0.187 c -3.363,1.253 -6.742,2.471 -9.811,4.397 -18.054,15.022 -17.997,32.193 0.142,46.842 0.389,-10.951 0.398,-10.9 14.035,-13.375 1.376,-0.25 3.162,-1.303 3.732,-2.479 C 11.597,34.382 29.258,42.649 47.156,52.236 57.478,22.953 55.403,20.129 18.535,13.17 11.612,12.675 5.524,10.138 0.336,5.456 0.224,3.637 0.112,1.819 0,0" style="fill:#a62024;fill-opacity:1;fill-rule:nonzero;stroke:none" transform="matrix(1.3333333,0,0,-1.3333333,1959.4044,3677.1831)" />
      <path id="path188" d="m 0,0 c -5.227,-16.305 -17.876,-33.426 5.127,-46.628 -0.76,-2.779 -2.53,-4.557 -5.299,-5.343 -9.615,2.322 -23.236,-7.378 -28.052,9.347 -5.178,15.825 5.555,30.567 3.139,46.19 -5.601,12.734 17.869,-12.876 7.691,5.872 -3.798,4.441 -7.075,9.231 -10.63,13.806 l 0.016,0.007 c -6.937,11.676 -9.956,23.236 0.98,34.395 3.672,2.03 7.507,2.335 11.464,0.959 C -6.555,51.397 -4.05,39.951 2.289,30.979 1.628,23.707 4.418,16.101 0.195,9.171 0.13,6.114 0.065,3.057 0,0" style="fill:#c9241f;fill-opacity:1;fill-rule:nonzero;stroke:none" transform="matrix(1.3333333,0,0,-1.3333333,1934.7004,3576.1893)" />
      <path id="path189" d="m 0,0 c 21.592,0.348 38.855,5.014 32.828,32.911 1.528,-0.009 3.054,-0.005 4.58,0.012 4.02,-24.956 3.604,-49.919 0.116,-74.886 -1.575,-0.015 -3.149,-0.031 -4.724,-0.046 -0.003,1.54 0.176,3.105 -0.038,4.615 -1.214,8.534 4.349,21.72 -7.788,23.447 C 16.81,-12.786 12.178,-24.129 9.415,-32.638 -7.341,-25.687 -2.487,-12.502 0,0" style="fill:#9b2024;fill-opacity:1;fill-rule:nonzero;stroke:none" transform="matrix(1.3333333,0,0,-1.3333333,1978.5076,3651.4172)" />
      <path id="path190" d="m 0,0 c -12.353,-16.828 -38.248,-16.745 -56.069,0.179 2.022,2.834 4.929,4.222 8.169,5.067 15.399,3.844 32.206,3.524 45.051,15.148 2.478,-0.09 4.093,-1.336 5.006,-3.584 C 1.841,11.142 4.077,5.164 0,0" style="fill:#aa2025;fill-opacity:1;fill-rule:nonzero;stroke:none" transform="matrix(1.3333333,0,0,-1.3333333,2028.3687,3532.8896)" />
      <path id="path191" d="m 0,0 c 0.009,6.32 0.017,12.64 0.026,18.959 -12.54,16.955 -4.358,36.393 -6.574,54.598 0.204,6.049 1.484,11.648 6.557,15.65 0.338,2.874 0.677,5.749 1.015,8.623 1.271,0.038 2.543,0.075 3.814,0.112 0,-12.337 0,-24.675 0.001,-37.014 0,-27.554 0,-55.107 0,-82.66 C 3.226,-21.884 1.613,-22.035 0,-22.187 Z" style="fill:#aa2024;fill-opacity:1;fill-rule:nonzero;stroke:none" transform="matrix(1.3333333,0,0,-1.3333333,2028.3687,3532.8896)" />
      <path id="path192" d="m 0,0 c -0.038,24.962 -0.076,49.924 -0.115,74.886 0.164,0.751 0.083,1.777 0.548,2.194 0.843,0.757 2.01,1.152 3.042,1.698 C 3.692,52.458 9.314,25.9 0,0" style="fill:#a62024;fill-opacity:1;fill-rule:nonzero;stroke:none" transform="matrix(1.3333333,0,0,-1.3333333,2028.5396,3707.3679)" />
      <path id="path193" d="m 0,0 c -3.106,0 -6.212,0.001 -9.318,0.002 -15.411,-1.425 -4.787,-18.359 -13.987,-23.483 -0.035,7.83 -0.071,15.661 -0.108,23.492 -2.218,11.117 6.37,13.463 13.666,16.889 C -3.455,18.117 1.734,16.461 5.426,10.986 7.721,5.306 3.81,2.678 0,0" style="fill:#b42123;fill-opacity:1;fill-rule:nonzero;stroke:none" transform="matrix(1.3333333,0,0,-1.3333333,1966.0335,3532.6527)" />
      <path id="path224" d="m 0,0 c 2.634,13.909 -9.519,10.504 -16.05,14.066 -10.226,5.575 -10.98,-5.311 -16.604,-10.303 0,8.81 -0.161,15.812 0.034,22.804 0.377,13.508 3.484,21.181 16.236,7.222 3.49,-3.82 7.599,-6.144 11.44,-0.595 5.928,8.564 9.746,12.905 21.078,3.573 6.114,-5.034 9.944,10.491 16.145,17.867 6.356,-11.695 8.402,-21.37 0.579,-31.344 -2.441,0.131 -2.426,6.46 -3.96,3.591 C 24.779,19.177 16.368,15.398 12.919,7.452 9.38,3.65 7.117,-2.427 0,0" style="fill:#d0251f;fill-opacity:1;fill-rule:nonzero;stroke:none" transform="matrix(1.3333333,0,0,-1.3333333,1647.6867,3476.4173)" />
      <path id="path225" d="m 0,0 c -0.55,12.968 12.075,15.699 19.023,21.605 5.637,4.792 2.818,-4.811 4.433,-7.618 -0.039,-3.07 -0.079,-6.139 -0.119,-9.207 -6.397,-18.367 -0.518,-33.584 14.836,-47.46 -8.133,-1.682 -13.721,-2.838 -19.31,-3.995 -1.537,-1.572 -2.815,-1.384 -3.835,0.563 -0.164,1.424 -0.307,2.85 -0.429,4.279 0.936,7.291 -2.512,10.3 -9.563,9.79 -4.773,4.506 -9.547,9.012 -14.32,13.52 -0.042,1.49 -0.068,2.979 -0.078,4.468 C -5.838,-9.639 8.216,-12.236 0,0" style="fill:#d52720;fill-opacity:1;fill-rule:nonzero;stroke:none" transform="matrix(1.3333333,0,0,-1.3333333,1660.2215,3464.0117)" />
      <path id="path226" d="m 0,0 c 8.789,0.062 17.121,-2.537 12.636,-12.916 -5.27,-12.196 -14.588,0.507 -21.998,-1.139 -0.607,1.12 -1.33,2.201 -1.723,3.392 -0.079,0.241 1.091,0.894 1.684,1.358 C -6.267,-6.203 -3.134,-3.101 0,0" style="fill:#e02c25;fill-opacity:1;fill-rule:nonzero;stroke:none" transform="matrix(1.3333333,0,0,-1.3333333,1660.2215,3464.0117)" />
      <path id="path227" d="m 0,0 c 9.346,0.036 18.691,0.073 28.037,0.11 2.939,-6.007 10.993,-3.758 14.439,-8.946 0,0 -0.008,10e-4 -0.007,10e-4 C 44.59,-23.114 53.692,-35.851 51.787,-51.02 36.171,-32.342 0.579,-33.94 0,0" style="fill:#b52123;fill-opacity:1;fill-rule:nonzero;stroke:none" transform="matrix(1.3333333,0,0,-1.3333333,1909.4535,3034.036)" />
      <path id="path235" d="m 0,0 c 0.123,-1.417 0.209,-2.836 0.261,-4.253 -0.079,-3.24 -0.161,-6.485 -0.244,-9.73 -5.41,-2.496 -8.4,1.759 -11.819,4.414 -9.641,7.487 -13.435,2.775 -14.914,-6.994 -1.705,-9.71 -4.994,-18.663 -16.509,-19.305 -11.676,-0.65 -14.033,10.274 -15.015,17.516 -2.84,20.93 -27.863,26.243 -30.736,46.429 l -0.005,10e-4 c -5.864,8.65 1.344,19.467 -4.656,28.094 -1.58,1.571 -3.16,3.142 -4.74,4.714 0.885,7.155 -2.809,18.684 6.254,19.433 7.282,0.602 18.169,-1.358 23.595,-10.119 2.799,-4.521 5.105,-9.348 7.633,-14.036 2.472,-3.856 5.702,-7.233 7.69,-11.37 2.279,-4.741 -1.825,-16.602 11.314,-8.307 3.901,2.462 10.437,-1.789 9.896,-9.025 C -32.964,14.483 -24.248,11.271 -14.097,9.405 -9.398,6.27 -4.699,3.135 0,0" style="fill:#be2221;fill-opacity:1;fill-rule:nonzero;stroke:none" transform="matrix(1.3333333,0,0,-1.3333333,1735.1808,3183.1333)" />
      <path id="path236" d="m 0,0 c 19.917,-13.49 37.526,-28.432 38.66,-55.283 0.182,-4.317 5.203,-5.597 9.179,-4.152 8.172,2.972 8.315,10.233 8.37,17.35 14.239,-2.717 25.79,-10.793 37.396,-18.758 -30.481,-7.88 -16.735,-29.003 -14.02,-46.822 -1.46,-1.613 -3.232,-2.109 -5.315,-1.522 -7.349,8.403 -16.721,0.836 -24.881,3.09 -5.187,2.558 -9.618,5.553 -7.259,12.475 -2.349,9.238 5.642,12.698 13.582,20.172 -33.199,5.054 -40.549,34.374 -58.078,53.529 C -7.792,-13.991 0.488,-6.888 0,0" style="fill:#c42220;fill-opacity:1;fill-rule:nonzero;stroke:none" transform="matrix(1.3333333,0,0,-1.3333333,1616.5464,3145.6972)" />
      <path id="path237" d="m 0,0 c 1.558,-0.007 3.117,-0.01 4.675,-0.011 -0.382,-3.12 -4.927,-6.23 -0.023,-9.363 1.115,-1.049 1.622,-2.201 1.521,-3.455 -0.105,-1.306 -0.307,-1.959 -0.53,-1.863 -7.927,-2.766 -1.931,-4.627 0.64,-6.775 3.923,-4.74 3.228,-11.605 7.677,-16.024 1.536,-1.612 3.071,-3.224 4.605,-4.838 -6.284,-16.723 -12.623,-2.454 -18.94,-0.036 -10.458,4.556 -21.365,8.434 -29.776,16.519 -5.872,5.644 -14.035,10.887 -7.356,21.078 0.644,6.501 -1.936,13.813 4.728,18.8 3.112,-3.132 6.223,-6.264 9.335,-9.397 C -16.87,-3.187 -6.296,9.225 0,0" style="fill:#ce2421;fill-opacity:1;fill-rule:nonzero;stroke:none" transform="matrix(1.3333333,0,0,-1.3333333,1716.4251,3289.2356)" />
      <path id="path238" d="m 0,0 c 4.38,-20.434 26.879,-22.967 37.135,-37.594 -3.084,0.024 -6.164,0.051 -9.247,0.077 -2.964,0.142 -5.925,0.285 -8.885,0.431 0.002,0.002 -0.021,-0.1 -0.021,-0.1 -10.266,6.65 -17.503,17.043 -28.359,22.965 -6.229,8.383 -18.817,8.694 -23.761,18.711 2.277,2.611 12.917,-4.637 7.846,6.604 -2.782,6.166 -5.764,12.241 -8.684,18.419 C -20.813,29.812 -20.813,29.812 0,0" style="fill:#b82122;fill-opacity:1;fill-rule:nonzero;stroke:none" transform="matrix(1.3333333,0,0,-1.3333333,1666.4161,3295.5928)" />
      <path id="path239" d="M 0,0 C 8.248,-8.255 3.245,-18.706 4.656,-28.094 -3.657,-19.85 1.384,-9.393 0,0" style="fill:#c42220;fill-opacity:1;fill-rule:nonzero;stroke:none" transform="matrix(1.3333333,0,0,-1.3333333,1610.3309,3108.2368)" />
      <path id="path240" d="M 0,0 C 20.271,0.122 40.541,0.243 60.811,0.367 47.905,-24.871 68.649,-47.569 66.785,-72.757 51.449,-41.623 20.376,-29.873 -4.016,-10.41 -10.504,-5.234 -0.389,-3.915 0,0" style="fill:#b32023;fill-opacity:1;fill-rule:nonzero;stroke:none" transform="matrix(1.3333333,0,0,-1.3333333,1628.9003,3039.8388)" />
      <path id="path241" d="m 0,0 c -6.487,0.832 -16.314,-2.983 -17.844,6.266 -4.442,26.846 -15.958,16.737 -30.095,4.555 9.049,13.413 4.271,24.656 1.141,35.938 C -32.744,37.669 -13.096,34.2 -13.193,11.237 -13.225,3.805 -2.95,5.562 0,0" style="fill:#b32023;fill-opacity:1;fill-rule:nonzero;stroke:none" transform="matrix(1.3333333,0,0,-1.3333333,1716.3855,3170.5933)" />
      <path id="path242" d="m 0,0 c 1.424,-15.096 -9.154,-14.142 -18.984,-14.196 -10.959,3.005 -21.95,5.888 -32.859,9.058 -8.667,2.518 -11.631,7.091 -4.47,14.605 C -36.609,11.87 -19.493,-1.131 0,0" style="fill:#d52822;fill-opacity:1;fill-rule:nonzero;stroke:none" transform="matrix(1.3333333,0,0,-1.3333333,1722.5903,3670.0257)" />
      <path id="path243" d="m 0,0 c 0.327,-6.169 -1.534,-9.292 -6.295,-8.186 -4.301,0.998 -8.879,2.775 -10.152,7.843 -1.121,4.462 1.173,7.49 5.568,7.833 C -4.59,7.982 -1.655,3.69 0,0" style="fill:#d82721;fill-opacity:1;fill-rule:nonzero;stroke:none" transform="matrix(1.3333333,0,0,-1.3333333,1671.3672,3637.5232)" />
      <path id="path244" d="m 0,0 c -2.878,-7.008 -13.784,-1.595 -16.077,-10.56 16.655,-11.433 37.192,2.769 53.571,-8.312 -3.995,-15.24 -16.48,-16.342 -28.958,-17.458 -5.927,0.426 -11.872,1.184 -17.876,0.634 -6.052,0.711 -10.446,5.296 -16.156,6.85 -2.799,1.198 -5.283,2.788 -6.81,5.539 5.411,9.389 5.819,18.66 -0.66,27.766 -2.916,4.125 -1.992,8.662 -1.415,13.16 6.593,5.131 9.767,-1.305 14.04,-4.077 C -15.488,6.162 -5.233,6.827 0,0" style="fill:#a32024;fill-opacity:1;fill-rule:nonzero;stroke:none" transform="matrix(1.3333333,0,0,-1.3333333,1984.6879,3264.1333)" />
      <path id="path245" d="m 0,0 c 2.904,-0.082 5.809,-0.165 8.713,-0.247 4.013,-4.323 4.694,-9.012 1.554,-14.122 -9.642,-4.711 -18.05,-4.465 -20.783,7.695 C -12.66,2.867 -3.963,-1.616 0,0" style="fill:#5e1113;fill-opacity:1;fill-rule:nonzero;stroke:none" transform="matrix(1.3333333,0,0,-1.3333333,1941.6127,3295.2089)" />
      <path id="path246" d="M 0,0 C -0.518,4.708 -1.035,9.416 -1.553,14.123 6.007,15.321 7.935,7.87 12.729,4.821 15.673,1.537 15.48,-1.922 13.306,-5.494 8.417,-7.916 3.758,-9.302 0.884,-2.713 0.902,-1.707 0.607,-0.803 0,0" style="fill:#dc2925;fill-opacity:1;fill-rule:nonzero;stroke:none" transform="matrix(1.3333333,0,0,-1.3333333,1955.3015,3314.3679)" />
      <path id="path247" d="m 0,0 c 3.926,-0.746 7.852,-1.493 11.777,-2.239 2.696,-2.708 3.047,-5.892 1.914,-9.386 -2.834,-3.891 -5.964,-7.022 -11.314,-4.305 -1.503,0.006 -3.005,0.041 -4.506,0.104 C -1.419,-10.55 -0.71,-5.275 0,0" style="fill:#9e2024;fill-opacity:1;fill-rule:nonzero;stroke:none" transform="matrix(1.3333333,0,0,-1.3333333,1956.4807,3317.9859)" />
      <path id="path248" d="m 0,0 c -0.082,-4.711 -0.163,-9.422 -0.247,-14.134 -5.943,9.974 -7.989,21.072 -9.335,32.369 1.23,-0.082 2.458,-0.207 3.68,-0.377 C 1.088,13.565 5.903,8.554 0,0" style="fill:#871c1f;fill-opacity:1;fill-rule:nonzero;stroke:none" transform="matrix(1.3333333,0,0,-1.3333333,1941.0651,3239.3428)" />
      <path id="path258" d="m 0,0 c -8.026,3.817 -9.679,10.778 -9.259,18.761 -0.124,14.827 -0.844,26.955 20.476,13.713 14.835,-9.213 33.249,-7.134 49.83,0.479 0.003,-1.571 0.007,-3.143 0.011,-4.715 C 53.314,5.909 39.533,-0.075 15.464,8.443 c 6.947,-9.553 13.421,-19.079 -1.576,-27.367 -1.529,1.605 -3.058,3.21 -4.587,4.816 C 6.112,-9.464 4.95,-3.483 0,0" style="fill:#b52123;fill-opacity:1;fill-rule:nonzero;stroke:none" transform="matrix(1.3333333,0,0,-1.3333333,1778.5452,3414.2976)" />
      <path id="path259" d="m 0,0 c -0.36,-1.385 -0.64,-2.785 -0.84,-4.201 -2.959,-3.089 -6.172,-2.895 -9.538,-0.74 -1.367,1.755 -2.735,3.51 -4.101,5.265 C -9.51,6.578 -4.702,5.644 0,0" style="fill:#cf2522;fill-opacity:1;fill-rule:nonzero;stroke:none" transform="matrix(1.3333333,0,0,-1.3333333,1748.3973,3376.9341)" />
      <path id="path260" d="m 0,0 c 6.743,-0.02 11.416,-3.17 14.098,-9.328 -0.564,-5.646 -5.218,-7.206 -9.316,-9.322 -1.659,-15.737 -3.319,-31.475 -4.98,-47.216 -1.453,0.273 -2.916,0.419 -4.392,0.437 -0.017,6.212 -0.035,12.424 -0.053,18.636 C 7.893,-32.286 -10.407,-14.718 0,0" style="fill:#c42220;fill-opacity:1;fill-rule:nonzero;stroke:none" transform="matrix(1.3333333,0,0,-1.3333333,1897.3353,3545.1969)" />
      <path id="path261" d="m 0,0 c 7.824,-8.139 8.956,-20.621 28.1,-19.085 13.665,1.097 17.299,-23.007 23.404,-37.077 2.68,-2.592 2.804,-5.59 1.414,-8.832 -28.946,-17.831 -34.919,-14.692 -43.526,22.88 l -0.015,0.018 C -10.801,-31.862 -2.035,-15.182 0,0" style="fill:#cf2620;fill-opacity:1;fill-rule:nonzero;stroke:none" transform="matrix(1.3333333,0,0,-1.3333333,1928.5967,3102.0221)" />
      <path id="path262" d="M 0,0 C 0.003,3.123 0.007,6.246 0.01,9.368 20.455,14.872 12.519,-0.8 14.031,-9.423 c -6.213,-12.254 1.23,-26.045 -4.319,-38.373 -6.379,-2.753 -12.757,-5.506 -19.136,-8.258 -9.125,-0.22 -18.475,-1.026 -23.606,9.106 9.596,6.67 18.89,13.038 18.377,27.139 C -15.001,-10.229 -6.822,-5.211 0,0" style="fill:#ca231f;fill-opacity:1;fill-rule:nonzero;stroke:none" transform="matrix(1.3333333,0,0,-1.3333333,1997.2547,3189.3959)" />
      <path id="path263" d="M 0,0 C 1.731,-14.343 -5.579,-30.7 9.377,-42.096 2.464,-45.325 -3.706,-47.84 -4.701,-36.079 -5.723,-23.999 -7.752,-12.004 -9.339,0.028 -6.226,0.019 -3.113,0.01 0,0" style="fill:#d52621;fill-opacity:1;fill-rule:nonzero;stroke:none" transform="matrix(1.3333333,0,0,-1.3333333,1928.5967,3102.0221)" />
      <path id="path264" d="m 0,0 c 1.413,12.795 -4.814,26.449 4.319,38.375 0.013,-3.1 0.026,-6.198 0.04,-9.297 C 4.343,19.743 4.327,10.408 4.311,1.073 2.891,0.644 1.455,0.286 0,0" style="fill:#d12327;fill-opacity:1;fill-rule:nonzero;stroke:none" transform="matrix(1.3333333,0,0,-1.3333333,2010.2036,3253.1243)" />
      <path id="path269" d="m 0,0 c 6.66,8.579 4.774,17.083 -2.534,27.107 20.245,0.962 38.501,2.772 49.704,20.055 6.752,3.839 13.228,12.123 14.861,-5.096 1.155,-12.18 7.247,-24.839 22.576,-27.644 2.579,-2.748 2.821,-5.849 1.398,-9.199 C 84.407,3.643 82.508,2.624 80.284,2.241 74.439,2.128 69.613,4.907 66.049,8.969 54.581,22.041 45.232,13.294 36.357,6.016 25.78,-2.656 26.886,-13.978 35.226,-22.49 45.311,-32.783 48.118,-44.683 49.037,-57.915 48.406,-58.787 47.768,-59.656 47.13,-60.526 28.262,-64.805 21.785,-48.691 13.307,-38.176 6.878,-30.203 4.638,-18.85 0.536,-9.002 0.359,-6.001 0.179,-3.001 0,0" style="fill:#c32220;fill-opacity:1;fill-rule:nonzero;stroke:none" transform="matrix(1.3333333,0,0,-1.3333333,1797.0632,3439.5293)" />
      <path id="path270" d="m 0,0 c -9,-9.855 -2.982,-21.911 -4.811,-32.818 -7.648,8.815 -29.108,-3.099 -28.091,18.718 0,0 0.072,0.049 0.072,0.049 6.563,5.668 4.319,14.482 7.599,21.403 2.682,5.658 -4.52,15.396 5.673,17.761 C -9.324,27.488 -1.774,21.952 3.065,12.816 4.427,7.971 3.351,3.711 0,0" style="fill:#c42220;fill-opacity:1;fill-rule:nonzero;stroke:none" transform="matrix(1.3333333,0,0,-1.3333333,1903.7721,3501.4301)" />
      <path id="path272" d="m 0,0 c 1.264,-0.285 2.542,-0.473 3.835,-0.563 1.512,-1.713 3.024,-3.426 4.536,-5.143 0.877,-7.533 0.877,-7.533 -14.05,-4.369 -1.598,-2.251 -3.124,-2.203 -4.578,0.144 0,0 0.046,-0.033 0.047,-0.032 C -11.03,-2.312 -10.105,3.547 0,0" style="fill:#5f1113;fill-opacity:1;fill-rule:nonzero;stroke:none" transform="matrix(1.3333333,0,0,-1.3333333,1680.2587,3525.4947)" />
      <path id="path274" d="m 0,0 c 0.004,-4.747 0.009,-9.493 0.013,-14.24 -3.498,-3.921 -2.404,-9.665 -5.442,-13.785 -1.163,-1.71 -2.536,-3.227 -4.058,-4.621 -5.558,-4.838 -11.438,-9.111 -18.902,-10.56 -13.702,-3.304 -25.757,-9.498 -35.449,-19.954 -5.653,-0.197 -8.686,3.008 -10.432,7.951 2.008,19.7 1.626,40.192 18.139,55.111 6.784,-0.944 10.299,-3.762 5.502,-10.558 -4.069,-5.765 -7.859,-11.389 -2.658,-19.419 C -34.809,-21.233 -28.935,10.585 0,0" style="fill:#aa2024;fill-opacity:1;fill-rule:nonzero;stroke:none" transform="matrix(1.3333333,0,0,-1.3333333,2028.3807,3413.9472)" />
      <path id="path275" d="m 0,0 c -4.691,-18.752 -9.382,-37.503 -14.073,-56.255 -13.623,6.644 -5.349,-6.464 -8.418,-9.348 -1.889,-1.482 -3.778,-1.552 -5.661,0.009 -3.059,0.026 -6.117,0.053 -9.175,0.079 -0.008,4.67 -0.017,9.34 -0.026,14.01 -0.038,3.618 -1.113,7.032 -2.121,10.473 -1.245,4.679 -1.94,9.383 -0.847,14.203 1.089,5.117 3.705,9.321 7.623,12.74 l -0.008,0.021 c 5.704,6.907 -1.017,16.37 4.783,23.257 l -0.031,0.065 c 1.035,0.525 2.069,1.051 3.085,1.582 2.121,-0.916 3.764,-2.391 4.924,-4.384 3.805,-8.476 0.756,-16.42 -1.784,-24.407 -0.999,-3.003 5.159,0.089 2.062,-0.292 -0.338,-0.042 -0.528,0.516 -0.224,1.573 3.496,12.154 0.844,26.164 10.951,36.322 2.832,-3.545 5.664,-7.091 8.492,-10.639 C -0.3,6.005 -0.15,3.002 0,0" style="fill:#d72721;fill-opacity:1;fill-rule:nonzero;stroke:none" transform="matrix(1.3333333,0,0,-1.3333333,1953.5397,3414.0777)" />
      <path id="path276" d="m 0,0 c 9.84,7.024 25.137,1.242 32.581,13.886 0.126,-1.434 0.263,-2.866 0.414,-4.294 0.004,-16.737 0.004,-33.477 0.004,-50.033 -8.166,-5.703 -12.573,4.934 -19.121,2.869 -9.391,5.185 -8.753,15.682 -12.67,23.774 -1.405,2.728 -2.615,5.534 -3.385,8.517 C -2.393,-3.139 -1.703,-1.358 0,0" style="fill:#b42023;fill-opacity:1;fill-rule:nonzero;stroke:none" transform="matrix(1.3333333,0,0,-1.3333333,1991.2389,3307.8107)" />
      <path id="path277" d="m 0,0 c 6.8,-8.157 6.039,-18.83 9.361,-28.144 -0.001,-3.101 0.286,-6.234 -0.059,-9.296 -0.885,-7.847 3.167,-20.443 -8.623,-20.413 -9.735,0.025 -9.724,11.903 -10.105,20.398 -2.483,2.348 -3.415,5.285 -3.33,8.633 0.117,2.162 0.498,4.279 1.054,6.366 C -8.179,-14.782 -15.279,-1.536 0,0" style="fill:#941f23;fill-opacity:1;fill-rule:nonzero;stroke:none" transform="matrix(1.3333333,0,0,-1.3333333,1997.2616,3320.382)" />
      <path id="path278" d="m 0,0 c -0.054,-3.068 -0.109,-6.137 -0.164,-9.204 -7.737,-0.605 -9.555,-5.74 -9.23,-12.306 0.351,-7.077 -2.298,-9.616 -9.095,-6.433 -0.15,14.021 -0.303,28.041 -0.457,42.061 3.16,1.573 6.321,3.145 9.482,4.718 C 0.449,15.953 -9.486,3.098 0,0" style="fill:#af2124;fill-opacity:1;fill-rule:nonzero;stroke:none" transform="matrix(1.3333333,0,0,-1.3333333,1984.9131,3358.0497)" />
      <path id="path295" d="m 0,0 c -4.702,-13.184 -10.126,-25.719 -11.238,-40.444 -0.788,-10.431 -14.106,-4.803 -21.789,-6.502 -3.04,3.161 -6.077,6.324 -9.115,9.486 -1.963,5.956 -3.927,11.912 -5.896,17.863 7.38,13.588 2.823,28.83 5.936,43.013 2.766,-5.379 4.324,-12.201 8.597,-15.778 5.559,-4.654 9.603,-29.155 21.455,-3.125 C -8.233,12.898 -4.57,0.616 0,0" style="fill:#d52621;fill-opacity:1;fill-rule:nonzero;stroke:none" transform="matrix(1.3333333,0,0,-1.3333333,1997.2547,3189.3959)" />
      <path id="path297" d="M 0,0 C 1.527,-0.028 3.053,-0.076 4.578,-0.144 8.618,-12.639 18.3,-20.429 27.984,-28.217 8.83,-28.556 3.331,-15.353 0,0" style="fill:#8d1d21;fill-opacity:1;fill-rule:nonzero;stroke:none" transform="matrix(1.3333333,0,0,-1.3333333,1666.5827,3538.736)" />
      <path id="path309" d="m 0,0 c -4.857,-13.24 10.427,-24.125 4.387,-37.504 -11.443,-1.933 -13.074,22.067 -22.318,12.523 9.062,1.695 2.912,14.2 3.024,22.423 0.161,11.798 3.704,15.276 14.611,11.86 C 2.339,6.282 2.361,3.179 0,0" style="fill:#a12024;fill-opacity:1;fill-rule:nonzero;stroke:none" transform="matrix(1.3333333,0,0,-1.3333333,1935.2709,3676.1327)" />
      <path id="path310" d="m 0,0 c -0.099,3.101 -0.198,6.201 -0.296,9.302 -0.1,4.563 -0.2,9.125 -0.302,13.686 1.762,1.777 3.527,3.557 5.294,5.339 C 6.212,26.79 7.726,25.251 9.24,23.715 0.458,18.034 8.306,5.87 0,0" style="fill:#d42622;fill-opacity:1;fill-rule:nonzero;stroke:none" transform="matrix(1.3333333,0,0,-1.3333333,1935.2709,3676.1327)" />
      <path id="path315" d="m 0,0 c 1.754,5.005 4.709,12.83 8.505,2.675 2.85,-7.626 3.898,-17.96 -3.532,-25.596 C 0.059,-15.986 -0.345,-8.074 0,0" style="fill:#dd2b23;fill-opacity:1;fill-rule:nonzero;stroke:none" transform="matrix(1.3333333,0,0,-1.3333333,1741.1123,3064.9493)" />
      <path id="path316" d="M 0,0 C -0.151,-3.801 -1.028,-7.248 -4.585,-9.384 -7.925,-3.588 -9.945,2.547 -9.415,9.341 -6.346,7.823 -3.276,6.305 -0.207,4.789 -0.14,3.193 -0.07,1.597 0,0" style="fill:#b92022;fill-opacity:1;fill-rule:nonzero;stroke:none" transform="matrix(1.3333333,0,0,-1.3333333,1766.3564,3139.4207)" />
      <path id="path317" d="M 0,0 C 0.389,-6.22 2.519,-14.136 -8.757,-8.988 -13.842,1.807 -6.296,0.295 0,0" style="fill:#570f10;fill-opacity:1;fill-rule:nonzero;stroke:none" transform="matrix(1.3333333,0,0,-1.3333333,1771.9836,3171.0468)" />
      <path id="path318" d="M 0,0 C 13.732,-2.371 22.347,-11.061 28.357,-22.967 14.097,-21.248 7.857,-9.626 0,0" style="fill:#72161a;fill-opacity:1;fill-rule:nonzero;stroke:none" transform="matrix(1.3333333,0,0,-1.3333333,1653.9137,3314.5539)" />
      <path id="path362" d="M 0,0 C -5.502,1.869 -20.477,-11.528 -14.435,8.95 -6.738,8.946 0.964,8.946 8.829,8.946 9.064,2.587 1.001,4.786 0,0" style="fill:#a92124;fill-opacity:1;fill-rule:nonzero;stroke:none" transform="matrix(1.3333333,0,0,-1.3333333,1966.0887,3045.8171)" />
      <path id="path363" d="m 0,0 c 0.962,-15.894 -3.564,-30.092 -14.307,-45.721 v 35.349 C -12.67,-3.438 -18.594,7.176 -5.18,8.377 -3.454,5.585 -1.727,2.792 0,0" style="fill:#e22c25;fill-opacity:1;fill-rule:nonzero;stroke:none" transform="matrix(1.3333333,0,0,-1.3333333,1941.6193,3387.88)" />
      <path id="path364" d="m 0,0 c -3.043,-6.249 -6.086,-12.498 -9.127,-18.748 0.001,-10e-4 -0.222,0.175 -0.222,0.175 C -10.204,-7.961 -19.439,5.478 0.033,9.231 0.335,7.52 0.637,5.809 0.944,4.095 0.706,2.711 0.39,1.347 0,0" style="fill:#d72721;fill-opacity:1;fill-rule:nonzero;stroke:none" transform="matrix(1.3333333,0,0,-1.3333333,1934.7121,3376.7109)" />
      <path id="path387" d="m 0,0 c 8.324,-9.383 0.18,-23.517 9.415,-32.638 0.94,-4.054 6.177,-8.405 0.752,-12.133 -4.952,-3.404 -8.552,0.307 -10.835,4.647 -4.569,8.684 -8.896,17.496 -13.323,26.255 C -14.955,-3.568 -10.239,1.002 0,0" style="fill:#931f23;fill-opacity:1;fill-rule:nonzero;stroke:none" transform="matrix(1.3333333,0,0,-1.3333333,1978.5076,3651.4172)" />
      <path id="path396" d="m 0,0 c -12.911,-5.969 -8.339,-17.834 -9.381,-27.806 -1.496,-0.084 -2.991,-0.149 -4.486,-0.196 -1.588,9.398 3.597,19.947 -4.787,28.193 -1.558,1.56 -3.116,3.12 -4.674,4.681 C -13.221,14.408 -6.902,5.806 0,0" style="fill:#c12221;fill-opacity:1;fill-rule:nonzero;stroke:none" transform="matrix(1.3333333,0,0,-1.3333333,1934.756,3364.4025)" />
      <path id="path397" d="m 0,0 c -1.082,-7.858 2.679,-16.712 -4.783,-23.257 -0.015,3.133 -0.029,6.267 -0.044,9.401 C -4.598,-8.757 -5.498,-3.264 0,0" style="fill:#ca241f;fill-opacity:1;fill-rule:nonzero;stroke:none" transform="matrix(1.3333333,0,0,-1.3333333,1916.3091,3401.8253)" />
      <path id="path410" d="m 0,0 c 3.181,0.245 6.361,0.49 9.54,0.737 1.651,-4.89 3.304,-9.783 4.957,-14.679 C 5.411,-13.72 3.674,-5.853 0,0" style="fill:#ae2124;fill-opacity:1;fill-rule:nonzero;stroke:none" transform="matrix(1.3333333,0,0,-1.3333333,1734.5604,3383.5216)" />
      <path id="path411" d="M 0,0 C 7.566,-6.691 2.962,-15.726 4.542,-23.571 -3.353,-16.944 0.783,-7.998 0,0" style="fill:#d42622;fill-opacity:1;fill-rule:nonzero;stroke:none" transform="matrix(1.3333333,0,0,-1.3333333,1947.6379,3644.7581)" />
      <path id="path426" d="M 0,0 C 3.84,4.524 7.482,3.013 10.612,-0.686 13.295,-3.858 13.106,-7.127 9.561,-9.792 6.375,-6.526 3.188,-3.263 0,0" style="fill:#de2927;fill-opacity:1;fill-rule:nonzero;stroke:none" transform="matrix(1.3333333,0,0,-1.3333333,1666.9364,3506.7363)" />
      <path id="path433" d="M 0,0 C 9.701,-0.347 9.639,-7.136 9.304,-14.106 3.684,-11.065 0.331,-6.529 0,0" style="fill:#a82024;fill-opacity:1;fill-rule:nonzero;stroke:none" transform="matrix(1.3333333,0,0,-1.3333333,1778.5452,3414.2976)" />
      <path id="path444" d="m 0,0 c -15.42,0.363 -28.389,5.61 -37.397,18.757 -0.147,7.162 0.008,15.084 8.228,17.23 14.132,3.688 16.428,-11.285 24.557,-17.205 C -3.074,12.522 -1.537,6.261 0,0" style="fill:#d02520;fill-opacity:1;fill-rule:nonzero;stroke:none" transform="matrix(1.3333333,0,0,-1.3333333,1741.3532,3226.8209)" />
      <path id="path445" d="m 0,0 c -6.059,2.731 -9.238,7.369 -9.313,14.062 -2.696,3.129 -2.799,6.261 -0.012,9.397 0.007,1.553 0.013,3.105 0.017,4.658 C -0.177,20.74 0.435,10.544 0,0" style="fill:#c42220;fill-opacity:1;fill-rule:nonzero;stroke:none" transform="matrix(1.3333333,0,0,-1.3333333,1735.0391,3339.2233)" />
      <path id="path446" d="m 0,0 c 1.564,0.011 3.128,0.022 4.692,0.033 6.165,4.222 13.23,-3.776 19.335,1.437 3.479,-0.104 5.426,-2.086 6.438,-5.227 0.111,-2.141 -0.628,-3.955 -2.089,-5.492 C 23.621,-13.942 18.865,-18.634 14.11,-23.326 -1.299,-22.026 0.258,-10.464 0,0" style="fill:#d52620;fill-opacity:1;fill-rule:nonzero;stroke:none" transform="matrix(1.3333333,0,0,-1.3333333,1916.0039,3501.5368)" />
      <path id="path447" d="m 0,0 c 3.105,3.107 6.211,6.215 9.316,9.322 8.093,-9.582 4.625,-19.6 2.115,-32.039 C 1.045,-16.57 8.129,-4.375 0,0" style="fill:#d5261f;fill-opacity:1;fill-rule:nonzero;stroke:none" transform="matrix(1.3333333,0,0,-1.3333333,1903.7111,3570.0629)" />
      <path id="path448" d="m 0,0 c 3.102,4.65 6.204,9.3 9.305,13.948 10e-4,-18.671 0.003,-37.341 0.003,-56.01 0,10e-4 -2.302,-0.034 -2.302,-0.034 H 4.703 c -3.823,1.275 -7.732,2.301 -11.434,3.949 -4.496,2.976 -6.567,7.542 -8.185,12.411 -0.4,5.647 -7.126,9.871 -3.8,16.385 C -12.477,-6.234 -6.239,-3.117 0,0 l -0.104,-1.611 1.419,0.674 z" style="fill:#a32024;fill-opacity:1;fill-rule:nonzero;stroke:none" transform="matrix(1.3333333,0,0,-1.3333333,2015.9925,3451.5289)" />
      <path id="path449" d="m 0,0 c 5.083,2.355 9.444,3.276 9.339,-4.693 -7.925,-20.044 -27.258,-14.425 -42.173,-18.747 1.566,3.117 3.131,6.234 4.696,9.351 2.469,5.597 7.459,9.187 11.038,13.935 1.541,1.451 3.299,2.519 5.29,3.228 C -7.398,3.868 -3.449,2.886 0,0" style="fill:#aa2024;fill-opacity:1;fill-rule:nonzero;stroke:none" transform="matrix(1.3333333,0,0,-1.3333333,2009.8119,3501.3996)" />
      <path id="path450" d="m 0,0 c -2.652,-6.168 -7.338,-9.289 -14.049,-9.374 -4.615,1.579 -9.231,3.158 -13.844,4.737 0.032,1.574 0.063,3.148 0.093,4.721 C -18.507,8.549 -9.245,7.111 0,0" style="fill:#aa2025;fill-opacity:1;fill-rule:nonzero;stroke:none" transform="matrix(1.3333333,0,0,-1.3333333,1991.0265,3507.6868)" />
      <path id="path469" d="M 0,0 C -7.169,4.811 -18.67,-12.288 -23.443,4.636 -15.362,4.441 -3.35,24.127 0,0" style="fill:#cb231f;fill-opacity:1;fill-rule:nonzero;stroke:none" transform="matrix(1.3333333,0,0,-1.3333333,1716.4251,3289.2356)" />
      <path id="path470" d="m 0,0 c 0.004,-3.132 0.009,-6.264 0.013,-9.396 -4.171,6.269 -16.674,-3.728 -16.237,5.749 C -15.716,7.364 -5.657,-1.159 0,0" style="fill:#cb231f;fill-opacity:1;fill-rule:nonzero;stroke:none" transform="matrix(1.3333333,0,0,-1.3333333,1722.6056,3307.9447)" />
      <path id="path471" d="m 0,0 c -18.135,-1.248 -4.214,13.61 -9.464,18.836 -0.027,2.993 -0.054,5.986 -0.082,8.976 0.022,3.255 0.044,6.512 0.067,9.77 4.718,3.251 9.459,3.148 14.222,0.096 C 4.641,36.116 4.538,34.552 4.435,32.989 -2.005,22.68 5.622,10.477 0,0.058 Z" style="fill:#c72320;fill-opacity:1;fill-rule:nonzero;stroke:none" transform="matrix(1.3333333,0,0,-1.3333333,1984.9131,3358.0497)" />
      <path id="path481" d="m 0,0 c -0.055,-3.833 -0.923,-7.278 -4.504,-9.426 -6.104,2.868 -12.209,5.736 -19.305,9.069 4.562,-12.257 -3.729,-33.33 -13.498,-37.129 -5.585,12.363 -7.268,26.036 -19.318,35.981 -7.264,5.995 -10.153,19.865 -3.005,27.97 8.329,9.446 19.916,20.22 31.183,21.619 C -18.415,49.33 -14.513,28.371 0.151,27.991 0.045,22.828 0.692,17.41 -4.576,13.991 -11.316,6.624 -4.661,3.638 0,0" style="fill:#ca241f;fill-opacity:1;fill-rule:nonzero;stroke:none" transform="matrix(1.3333333,0,0,-1.3333333,1909.7404,3470.1835)" />
      <path id="path482" d="m 0,0 c -9.268,0.028 -18.537,0.055 -27.802,0.083 -1.64,1.599 -3.282,3.196 -4.924,4.794 l -1.615,1.674 1.164,2.014 c -5.784,9.704 0.045,11.971 8.192,14.52 8.475,2.652 14.587,11.65 24.993,9.683 C 2.977,27.973 9.96,25.842 9.36,18.679 5.159,14.728 0.969,10.771 -0.017,4.669 -0.015,3.113 -0.009,1.556 0,0" style="fill:#9d2024;fill-opacity:1;fill-rule:nonzero;stroke:none" transform="matrix(1.3333333,0,0,-1.3333333,1991.0265,3507.6868)" />
      <path id="path483" d="m 0,0 c 0.093,-1.238 0.244,-2.468 0.452,-3.69 -6.048,-19.231 -12.574,0.562 -18.848,-0.229 -4.524,9.787 -7.411,19.618 -0.968,31.114 C -9.898,21.927 -17.3,9.742 -9.01,5.388 -6.007,3.591 -3.004,1.796 0,0" style="fill:#e72f2c;fill-opacity:1;fill-rule:nonzero;stroke:none" transform="matrix(1.3333333,0,0,-1.3333333,1946.7899,3496.2667)" />
      <path id="path484" d="m 0,0 c -5.466,0.392 -10.796,1.731 -11.914,7.862 -0.927,5.078 3.741,5.41 7.338,6.129 C -3.051,9.327 -1.526,4.664 0,0" style="fill:#c42220;fill-opacity:1;fill-rule:nonzero;stroke:none" transform="matrix(1.3333333,0,0,-1.3333333,1909.7404,3470.1835)" />
      <path id="path485" d="M 0,0 C 2.262,10.87 -7.982,23.427 4.436,32.929 6.044,31.351 7.653,29.771 9.261,28.192 -0.233,20.9 9.372,7.333 0,0" style="fill:#af2124;fill-opacity:1;fill-rule:nonzero;stroke:none" transform="matrix(1.3333333,0,0,-1.3333333,1984.9132,3357.9725)" />
      <path id="path538" d="M 0,0 C -9.485,13.111 -0.205,13.661 9.377,14.01 10.953,9.354 12.529,4.7 14.106,0.045 9.404,0.031 4.702,0.015 0,0" style="fill:#aa2025;fill-opacity:1;fill-rule:nonzero;stroke:none" transform="matrix(1.3333333,0,0,-1.3333333,1991.0037,3501.4609)" />
      <path id="path539" d="m 0,0 c 4.549,-6.015 6.467,-12.473 2.741,-14.33 -6.493,-3.237 -6.745,2.723 -5.751,7.422 C -2.545,-4.709 -1.208,-2.693 0,0" style="fill:#aa2024;fill-opacity:1;fill-rule:nonzero;stroke:none" transform="matrix(1.3333333,0,0,-1.3333333,2016.3613,3450.7425)" />
      </g></svg>