<?xml version='1.0' encoding='utf-8'?>
<svg xmlns="http://www.w3.org/2000/svg" version="1.1" width="550.881" height="347.365" viewBox="1424.040 2833.950 550.881 347.365"><defs id="defs1"><clipPath clipPathUnits="userSpaceOnUse" id="clipPath4">
      <path d="M -1519.8112,1342.3302 H 864.12885 V -2028.0599 H -1519.8112 Z" id="path4" />
    </clipPath>
  </defs><g id="object"><path id="path18" d="M 24.492233,-3.34375e-4 H 54.011764 V -97.957366 c 0,-5.695314 0.328125,-10.066404 2.015625,-14.085934 5.367188,-16.10157 20.460938,-29.51953 39.574219,-29.51953 27.843752,0 37.582032,22.13671 37.582032,48.304683 V -3.34375e-4 h 29.51953 V -96.609709 c 0,-56.027341 -34.88672,-69.445311 -56.69531,-69.445311 -11.074221,0 -21.468752,3.35156 -30.199221,8.39062 -9.046875,5.02735 -16.429687,12.41016 -21.128906,20.80078 H 54.011764 V -238.17221 H 24.492233 Z M 321.02934,-75.808928 c 0.33985,-3.023438 1.00781,-7.722656 1.00781,-13.757813 0,-29.859379 -14.08593,-76.488279 -67.08984,-76.488279 -47.29687,0 -76.14844,38.57812 -76.14844,87.562498 0,48.972656 29.85938,81.8437501 79.83985,81.8437501 25.82812,0 43.60547,-5.3671875 54.01172,-10.0664062 l -5.03907,-21.1289059 c -11.0625,4.699218 -23.8125,8.390625 -44.95312,8.390625 -29.51953,0 -55.00781,-16.441407 -55.6875,-56.355469 z M 207.31059,-96.949553 c 2.34375,-20.460937 15.4336,-47.964847 45.29297,-47.964847 33.19922,0 41.26172,29.17969 40.92188,47.964847 z M 338.47856,-3.34375e-4 h 29.17969 V -86.555022 c 0,-5.027344 0.66797,-9.726562 1.34765,-13.746098 4.01954,-22.13671 18.78516,-37.91015 39.58594,-37.91015 4.01953,0 7.04297,0.33984 10.05469,1.00781 v -27.84375 c -2.68359,-0.66797 -5.02734,-1.00781 -8.37891,-1.00781 -19.79297,0 -37.57031,13.75781 -44.95312,35.55469 h -1.34766 l -1.00781,-31.86329 H 337.1309 c 1.00782,15.09375 1.34766,31.53516 1.34766,50.66016 z m 0,0" style="fill:#ffffff;fill-opacity:1;fill-rule:nonzero;stroke:none" aria-label="her" transform="matrix(1.3333333,0,0,1.3333333,1404.0585,3164.1801)" />
      <path id="path19" d="m 0,0 h 29.52 v 97.953 c 0,5.702 0.335,10.064 2.013,14.089 5.367,16.102 20.463,29.52 39.583,29.52 27.843,0 37.572,-22.14 37.572,-48.305 V 0 h 29.52 v 96.611 c 0,56.021 -34.888,69.439 -56.692,69.439 -11.071,0 -21.47,-3.355 -30.191,-8.386 -9.058,-5.032 -16.438,-12.412 -21.134,-20.799 H 29.52 V 238.173 H 0 Z" style="fill:none;stroke:#ffffff;stroke-width:10;stroke-linecap:butt;stroke-linejoin:miter;stroke-miterlimit:10;stroke-dasharray:none;stroke-opacity:1" transform="matrix(1.3333333,0,0,-1.3333333,1436.7096,3164.1801)" />
      <path id="path20" d="m 0,0 c 0.335,3.02 1.006,7.716 1.006,13.754 0,29.855 -14.089,76.483 -67.091,76.483 -47.299,0 -76.148,-38.577 -76.148,-87.553 0,-48.976 29.856,-81.851 79.838,-81.851 25.83,0 43.609,5.367 54.008,10.063 l -5.031,21.134 c -11.07,-4.696 -23.818,-8.386 -44.952,-8.386 -29.52,0 -55.014,16.437 -55.685,56.356 z m -113.72,21.134 c 2.349,20.463 15.431,47.97 45.287,47.97 33.21,0 41.261,-29.184 40.926,-47.97 z" style="fill:none;stroke:#ffffff;stroke-width:10;stroke-linecap:butt;stroke-linejoin:miter;stroke-miterlimit:10;stroke-dasharray:none;stroke-opacity:1" transform="matrix(1.3333333,0,0,-1.3333333,1832.0964,3063.0968)" />
      <path id="path21" d="m 0,0 h 29.185 v 86.548 c 0,5.031 0.67,9.727 1.341,13.753 4.026,22.14 18.786,37.906 39.584,37.906 4.026,0 7.045,-0.335 10.064,-1.006 v 27.843 c -2.684,0.671 -5.032,1.006 -8.387,1.006 -19.791,0 -37.571,-13.753 -44.951,-35.558 H 25.495 L 24.488,162.36 H -1.342 C -0.335,147.265 0,130.827 0,111.707 Z" style="fill:none;stroke:#ffffff;stroke-width:10;stroke-linecap:butt;stroke-linejoin:miter;stroke-miterlimit:10;stroke-dasharray:none;stroke-opacity:1" transform="matrix(1.3333333,0,0,-1.3333333,1855.3509,3164.1801)" />
      </g></svg>