<?xml version='1.0' encoding='utf-8'?>
<svg xmlns="http://www.w3.org/2000/svg" version="1.1" width="725.276" height="198.217" viewBox="1710.610 491.949 725.276 198.217"><g id="object"><path id="path9" d="m 64.676991,-126.93786 c -33.363282,0 -58.0078129,25.94531 -58.0078129,65.60156 0,37.804688 23.1679689,63.375 56.1562499,63.375 31.863281,0 57.996092,-22.792969 57.996092,-65.789062 0,-37.054688 -22.054686,-63.187498 -56.144529,-63.187498 z m -0.75,13.16015 c 26.871093,0 39.843749,25.945316 39.843749,50.777348 0,28.347656 -14.449218,51.878906 -40.019531,51.878906 -25.394531,0 -39.84375,-23.90625 -39.84375,-50.589844 0,-27.421875 13.335938,-52.06641 40.019532,-52.06641 z M 225.7014,-16.863644 c -6.48046,3.152344 -16.48828,5.191407 -26.30859,5.191407 -30.39844,0 -48,-19.640625 -48,-50.226563 0,-32.789062 19.45313,-51.51562 48.73828,-51.51562 10.3711,0 19.08985,2.22656 25.19531,5.1914 l 3.90235,-13.16015 c -4.26563,-2.21485 -14.08594,-5.55469 -29.66016,-5.55469 -38.71875,0 -65.22656,26.49609 -65.22656,65.60156 0,40.957031 26.50781,63.1875 61.71094,63.1875 15.19922,0 27.05859,-2.9648437 32.98828,-5.9296875 z m 52.44434,16.8632815 h 16.30078 V -111.18786 h 38.17969 v -13.71094 h -92.47266 v 13.71094 h 37.99219 z M 355.97582,-125.2738 c -2.03906,13.34766 -6.85547,32.613281 -10.9336,43.546875 l 10.3711,-1.289062 c 5.1914,-8.53125 13.16015,-28.359373 17.42578,-43.921873 z M 420.82738,-3.625e-4 h 15.75 V -120.44567 h -13.89844 l -26.30859,14.07421 3.14062,12.421879 20.94141,-11.308589 h 0.375 z m 95.0625,0 h 15.75 V -120.44567 h -13.89844 l -26.30859,14.07421 3.14062,12.421879 20.94141,-11.308589 h 0.375 z m 0,0" style="fill:#231916;fill-opacity:1;fill-rule:nonzero;stroke:none" aria-label="OCT’11" transform="matrix(1.3333333,0,0,1.3333333,1714.3812,674.78173)" />
      <path id="path10" d="m 0,0 c -33.355,0 -58,-25.943 -58,-65.598 0,-37.802 23.163,-63.374 56.147,-63.374 31.872,0 58,22.792 58,65.783 C 56.147,-26.128 34.096,0 0,0 Z m -0.741,-13.157 c 26.869,0 39.84,-25.942 39.84,-50.773 0,-28.352 -14.453,-51.885 -40.026,-51.885 -25.386,0 -39.84,23.904 -39.84,50.588 0,27.425 13.342,52.07 40.026,52.07 z" style="fill:none;stroke:#231916;stroke-width:10;stroke-linecap:butt;stroke-linejoin:miter;stroke-miterlimit:10;stroke-dasharray:none;stroke-opacity:1" transform="matrix(1.3333333,0,0,-1.3333333,1800.6097,505.53693)" />
      <path id="path11" d="m 0,0 c -6.485,-3.15 -16.492,-5.188 -26.313,-5.188 -30.39,0 -47.994,19.642 -47.994,50.217 0,32.799 19.457,51.514 48.735,51.514 10.377,0 19.087,-2.223 25.201,-5.188 l 3.892,13.157 c -4.262,2.223 -14.083,5.559 -29.649,5.559 -38.728,0 -65.227,-26.499 -65.227,-65.598 0,-40.952 26.499,-63.189 61.707,-63.189 15.194,0 27.054,2.965 32.983,5.93 z" style="fill:none;stroke:#231916;stroke-width:10;stroke-linecap:butt;stroke-linejoin:miter;stroke-miterlimit:10;stroke-dasharray:none;stroke-opacity:1" transform="matrix(1.3333333,0,0,-1.3333333,2015.3141,652.298)" />
      <path id="path12" d="m 0,0 h 16.307 v 111.183 h 38.172 v 13.712 H -37.988 V 111.183 H 0 Z" style="fill:none;stroke:#231916;stroke-width:10;stroke-linecap:butt;stroke-linejoin:miter;stroke-miterlimit:10;stroke-dasharray:none;stroke-opacity:1" transform="matrix(1.3333333,0,0,-1.3333333,2085.2328,674.78173)" />
      <path id="path13" d="m 0,0 c -2.039,-13.342 -6.856,-32.613 -10.933,-43.546 l 10.377,1.296 c 5.188,8.525 13.157,28.352 17.419,43.918 z" style="fill:none;stroke:#231916;stroke-width:10;stroke-linecap:butt;stroke-linejoin:miter;stroke-miterlimit:10;stroke-dasharray:none;stroke-opacity:1" transform="matrix(1.3333333,0,0,-1.3333333,2189.0003,507.76093)" />
      <path id="path14" d="M 0,0 H 15.751 V 120.448 H 1.853 l -26.313,-14.083 3.15,-12.416 20.939,11.304 H 0 Z" style="fill:none;stroke:#231916;stroke-width:10;stroke-linecap:butt;stroke-linejoin:miter;stroke-miterlimit:10;stroke-dasharray:none;stroke-opacity:1" transform="matrix(1.3333333,0,0,-1.3333333,2275.4723,674.78173)" />
      <path id="path15" d="M 0,0 H 15.751 V 120.448 H 1.853 l -26.313,-14.083 3.15,-12.416 20.939,11.304 H 0 Z" style="fill:none;stroke:#231916;stroke-width:10;stroke-linecap:butt;stroke-linejoin:miter;stroke-miterlimit:10;stroke-dasharray:none;stroke-opacity:1" transform="matrix(1.3333333,0,0,-1.3333333,2402.2165,674.78173)" />
      </g></svg>