<?xml version='1.0' encoding='utf-8'?>
<svg xmlns="http://www.w3.org/2000/svg" version="1.1" width="476.960" height="1177.633" viewBox="2441.710 196.329 476.960 1177.633"><g id="object"><path id="path12" d="M 0,0 C 0.18,0.126 0.36,0.251 0.541,0.377 0.167,0.539 -0.197,0.75 -0.587,0.838 -0.731,0.871 -0.941,0.613 -1.121,0.487 -0.747,0.324 -0.374,0.161 0,0 m -15.943,-8.955 c 0.32,-0.197 0.628,-0.422 0.971,-0.565 0.062,-0.025 0.414,0.355 0.378,0.437 -0.144,0.332 -0.388,0.619 -0.595,0.923 -0.252,-0.263 -0.503,-0.527 -0.754,-0.795 m 138.372,27.509 c 0.634,0.817 1.111,1.222 1.278,1.728 0.098,0.294 -0.302,0.752 -0.478,1.136 -0.489,-0.232 -1.294,-0.377 -1.389,-0.72 -0.132,-0.476 0.268,-1.1 0.589,-2.144 M -4.617,10.69 c -1.555,-0.086 -2.671,-0.866 -2.98,-2.375 -0.352,-1.714 0.601,-2.587 2.285,-2.593 1.641,-0.006 2.548,0.86 2.591,2.524 0.034,1.31 -0.563,2.169 -1.896,2.444 m 188.233,-479.228 c -0.465,1.992 -1.661,3.227 -3.879,2.902 -1.529,-0.225 -2.596,-1.3 -2.333,-2.867 0.307,-1.835 1.025,-3.739 3.458,-3.472 1.85,0.204 2.768,1.464 2.754,3.437 M -19.586,-12.349 c 0.005,2.968 0.568,5.843 2.511,9.446 -8.613,-2.236 -5.52,-5.902 -2.511,-9.446 m 122.119,-605.582 c -1.883,-0.724 -3.652,-1.776 -3.482,-3.893 0.189,-2.346 1.913,-3.834 4.311,-3.588 1.858,0.191 3.855,1.064 3.411,3.528 -0.4,2.226 -1.926,3.622 -4.24,3.953 m 80.592,638.515 c -1.897,-1.003 -5.004,-0.718 -4.723,-4.167 0.197,-2.427 1.498,-4.079 4.066,-3.92 3.151,0.194 3.308,3.075 3.758,5.215 0.419,1.996 -1.11,2.883 -3.101,2.872 M 128.09,-190.748 c -0.568,2.166 -1.282,4.224 -3.922,4.197 -3.172,-0.031 -4.59,-1.98 -4.459,-4.99 0.095,-2.152 0.647,-4.738 3.327,-4.331 2.516,0.382 4.391,2.411 5.054,5.124 m -8.426,-315.533 c -3.317,1.044 -5.623,4.467 -9.813,3.911 -1.912,-0.254 -4.333,-0.891 -3.406,-3.278 1.216,-3.13 3.653,-5.752 7.56,-4.8 2.028,0.494 4.854,0.359 5.659,4.167 M 85.87,-625.64 c 2.44,-0.031 3.931,1.147 3.706,3.371 -0.369,3.637 -1.823,7.074 -5.456,8.399 -2.388,0.87 -3.483,-1.726 -3.352,-3.435 0.269,-3.516 1.159,-7.033 5.102,-8.335 m 5.557,636.758 c 2.348,0.336 6.206,0.021 6.136,3.018 -0.075,3.205 -3.112,6.147 -6.651,6.064 -1.813,-0.042 -5.993,0.967 -5.679,-3.263 0.254,-3.416 1.179,-6.857 6.194,-5.819 m 81.088,-521.932 c -2.893,0.761 -5.679,1.933 -5.882,-2.961 -0.192,-4.624 2.861,-5.731 6.15,-6.154 3.966,-0.511 6.409,2.45 6.558,5.764 0.227,5.022 -4.346,2.704 -6.826,3.351 M 89.952,-59.663 c 2.817,-0.176 10.743,8.996 10.025,11.758 -0.196,0.755 -1.101,1.879 -1.693,1.886 -3.357,0.043 -6.615,-0.795 -9.104,-3.096 -2.205,-2.04 -2.855,-4.843 -2.075,-7.818 0.377,-1.437 1.193,-2.556 2.847,-2.73 M 195.989,-467.98 c -3.297,-0.49 -7.856,0.686 -7.305,-4.467 0.411,-3.845 2.799,-7.047 7.511,-7.046 4.935,0.002 6.594,3.337 6.768,7.376 0.239,5.546 -4.413,3.348 -6.974,4.137 m -34.519,-23.714 c 0.24,2.183 5.527,0.789 3.32,5.206 -2.212,4.426 4.616,10.988 -3.357,14.475 -0.919,0.402 1.885,0.505 2.275,1.367 1.002,2.219 2.014,4.487 2.537,6.844 0.244,1.095 -1.065,2.253 -2.351,2.066 -2.566,-0.372 -4.532,-1.294 -6.097,-3.959 -3.071,-5.228 -1.512,-9.832 0.684,-14.521 0.871,-1.857 4.137,-3.165 0.086,-5.331 -3.385,-1.811 3.18,-2.33 0.943,-4.636 -0.64,-0.66 0.637,-1.449 1.96,-1.511 m -64.073,277.266 c 2.311,-3.074 -1.028,-9.388 5.389,-8.646 6.18,0.715 8.609,5.328 6.051,11.228 -1.636,3.775 -5.814,4.543 -9.486,4.346 -2.93,-0.157 -5.707,1.224 -5.435,3.141 1,7.034 -3.261,3.901 -6.142,3.778 2.649,-8.927 1.509,-10.636 -6.03,-9.378 -1.77,0.295 -4.651,2.376 -4.803,-1.381 -0.112,-2.775 -0.827,-7.449 3.287,-7.454 5.757,-0.008 12.107,-0.652 17.169,4.366 m 59.141,-330.247 c -5.708,-3.739 -1.622,-8.553 -2.136,-12.749 -0.366,-2.985 1.275,-5.359 3.521,-6.408 2.067,-0.965 4.77,0.105 6.385,1.939 1.836,2.085 0.848,4.434 -0.237,6.631 -1.202,2.435 -3.685,4.396 -2.224,7.75 1.249,2.865 -0.552,3.954 -2.777,5.967 -4.431,4.01 -6.183,11.129 -14.009,10.98 -0.373,-0.008 -0.813,1.589 -1.161,2.463 -0.799,2.008 -2.251,3.346 -4.359,2.554 -1.704,-0.639 -3.661,-1.746 -4.519,-3.22 -1.219,-2.094 1.293,-3.182 2.432,-4.542 1.353,-1.617 4.235,-1.905 4.644,-4.178 1.511,-8.398 7.411,-7.745 14.44,-7.187 m -9.647,70.512 c -0.237,2.276 -0.722,4.935 -2.621,6.767 -1.171,1.13 -2.484,-0.174 -3.666,-1.034 -7.153,-5.205 -7.9,-5.065 -13.308,1.814 -0.856,1.089 -1.847,2.553 -3.413,1.754 -1.494,-0.762 -1.401,-2.609 -0.677,-3.749 4.432,-6.985 3.457,-10.724 -5.62,-11.335 -3.421,-0.231 -5.933,-4.087 -5.311,-7.216 0.703,-3.54 4.276,-0.851 6.572,-1.154 5.329,-0.704 9.756,2.711 15.071,2.489 4.634,-0.193 12.855,7.873 12.973,11.664 m -59.706,223.752 c 8.334,-0.716 14.412,1.4 17.473,10.42 2.366,6.97 8.741,10.252 16.172,10.284 2.136,0.01 3.212,0.273 3.193,2.427 -0.024,2.793 -0.721,5.506 -0.67,8.367 0.039,2.214 -2.686,3.161 -4.797,3.524 -2.191,0.377 -3.004,-1.265 -2.85,-3.094 0.381,-4.518 -0.986,-6.252 -5.954,-5.512 -2.133,0.318 -4.844,-1.435 -7.244,-2.314 -3.341,-1.222 -6.189,-3.938 -11.137,-0.979 -3.685,2.204 -9.679,-1.195 -14.42,-3.294 -4.845,-2.146 0.824,-4.278 -0.308,-6.259 -0.7,-1.225 -1.462,-2.433 -2.34,-3.535 -4.869,-6.118 -4.848,-6.011 2.739,-8.944 3.352,-1.295 6.55,-2.833 10.143,-1.091 m 97.982,228.826 c -3.245,1.382 -5.762,2.091 -7.856,3.45 -1.991,1.293 -3.068,4.375 0.031,4.646 7.188,0.628 4.289,7.56 7.471,10.538 0.741,0.694 0.506,2.636 -0.693,3.072 -1.7,0.617 -2.478,-0.852 -2.896,-2.284 -0.555,-1.9 0.328,-4.986 -2.66,-5.074 -8.398,-0.247 -11.001,-4.948 -11.013,-12.557 -0.003,-1.659 -2.329,-5.435 -3.782,-3.731 -3.246,3.805 -9.436,5.282 -9.798,11.419 -0.205,3.483 -0.339,7.219 5.053,5.777 2.131,-0.569 2.425,0.732 3.608,2.012 5.024,5.436 4.418,12.692 6.707,18.972 1.035,2.839 -0.497,4.357 -3.927,5.116 -8.405,1.859 -9.694,-3.906 -11.326,-9.541 -0.4,-1.38 -0.396,-3.076 -2.267,-2.998 -1.814,0.075 -2.259,1.74 -2.065,3.157 0.613,4.458 2.991,8.79 0.657,13.46 -0.151,0.303 1.369,1.802 2.339,2.233 2.478,1.101 5.465,2.105 3.426,5.446 -1.491,2.442 -2.701,6.206 -6.216,6.063 -3.335,-0.137 -3.693,-3.515 -4.722,-6.242 -1.694,-4.495 0.024,-10.003 -3.969,-13.917 -2.285,2.032 -3.915,5.796 -7.155,4.358 -3.706,-1.644 -4.249,-12.478 -1.29,-15.665 3.063,-3.298 8.179,-5.171 7.331,-11.157 -0.196,-1.386 1.223,-1.851 2.559,-1.479 4.134,1.151 3.642,-1.607 4.274,-4.323 1.465,-6.293 -4.909,-9.658 -5.149,-15.301 -0.058,-1.361 -2.321,-1.024 -3.552,-0.031 -3.058,2.466 -3.394,9.639 -0.49,12.395 1.117,1.061 2.047,2.082 1.29,3.626 -0.601,1.226 -2.096,1.589 -3.066,1.161 -4.625,-2.043 -6.963,1.154 -9.021,4.084 -1.812,2.58 -3.492,4.202 -6.863,5.089 -4.383,1.155 -6.958,5.547 -8.608,9.542 -1.554,3.763 2.778,4.048 4.886,5.629 2.632,1.974 2.06,3.462 -1.065,4.122 -1.508,0.319 -4.221,0.129 -3.236,2.444 1.809,4.255 7.391,5.334 9.221,9.825 8.297,-5.431 0.876,4.669 5.229,3.931 1.745,-2.648 3.964,-6.015 6.347,-9.632 1.518,2.653 2.106,5.367 4.05,7.536 2.302,2.567 1.264,5.695 -2.119,5.449 -6.746,-0.49 -12.975,0.529 -19.289,2.783 -2.96,1.056 -4.795,-1.915 -3.859,-4.234 1.798,-4.452 -1.523,-6.63 -3.316,-9.323 -2.103,-3.162 -10.238,-5.027 -1.381,-9.705 0.154,-0.081 -0.042,-1.195 -0.326,-1.681 -3.484,-5.941 0.957,-9.004 3.685,-13.551 2.698,-4.496 1.575,-11.242 8.397,-13.391 1.857,-0.585 4.32,-0.594 4.625,-3.392 -2.334,-2.44 -9.134,0.558 -7.685,-5.444 0.886,-3.666 0.04,-3.719 -2.773,-4.412 -2.331,-0.574 -4.378,-2.3 -6.681,-3.589 4.848,-4.604 10.911,-6.927 13.1,-4.381 4.599,5.349 5.74,-0.651 7.212,-2.195 3.752,-3.935 -0.382,-2.696 -2.391,-3.206 -1.468,-0.372 -0.252,-2.026 -0.437,-3.064 -0.624,-3.508 -1.543,-7 -3.7,-9.876 -4.741,-6.321 -4.929,-11.796 0.621,-17.25 2.57,-2.526 2.14,-4.663 1.735,-7.307 -7.504,2.113 -13.975,5.966 -22.254,3.749 -4.869,-1.304 -5.693,-2.995 -4.653,-7.008 1.319,-5.089 -1.125,-9.033 -6.502,-8.922 -3.754,0.077 -3.301,-1.989 -3.013,-3.965 0.442,-3.026 2.492,-5.812 5.269,-6.041 3.734,-0.308 7.863,1.576 9.491,4.842 1.834,3.681 3.955,4.947 7.683,4.488 1.583,-0.194 2.828,-0.888 2.806,-2.579 -0.045,-3.368 -1.92,-5.776 -4.733,-7.332 -1.948,-1.078 -4.428,-2.089 -2.646,-4.574 1.351,-1.882 4.322,-1.692 5.587,0.239 2.696,4.116 6.385,2.347 8.751,0.992 3.918,-2.243 8.292,-3.05 12.158,-5.049 5.209,-2.694 7.007,-0.331 6.187,4.172 -0.719,3.951 0.467,6.808 2.266,9.939 1.966,3.42 4.704,6.711 3.13,11.187 -0.43,1.222 -0.279,2.433 1.327,2.62 1.505,0.175 2.014,-0.955 2.24,-2.181 0.374,-2.033 -0.005,-4.099 1.639,-5.977 3.072,-3.509 15.85,-5.064 19.354,-1.782 2.725,2.552 1.54,5.091 -1.615,5.802 -10.138,2.284 -11.693,10.628 -13.752,18.679 -0.338,1.321 0.152,3.068 -1.575,3.58 -1.965,0.583 -2.305,-1.045 -2.645,-2.438 -0.402,-1.64 -1.404,-2.694 -3.012,-1.856 -1.444,0.753 -1.443,2.499 -0.861,3.801 0.662,1.48 1.59,3.694 2.751,3.939 3.751,0.792 4.103,3.085 3.926,6.157 -0.118,2.058 0.321,4.026 3.183,3.118 1.691,-0.537 4.099,-0.673 3.231,-3.548 -2.269,-7.509 0.723,-14.471 2.256,-21.563 1.026,-4.747 3.102,-7.04 7.608,-2.68 2.196,2.124 4.545,4.245 7.185,5.727 6.05,3.395 6.061,6.887 0.332,10.223 -4.888,2.846 -3.653,4.731 0.548,6.307 3.626,1.36 5.14,2.964 2.583,6.742 -6.371,9.415 -3.14,19.117 8.558,23.79 M 64.478,-510.779 c -1.26,4.779 1.172,9.346 0.808,14.074 3.774,6.651 3.249,13.641 1.613,20.709 -0.373,1.611 -1.544,2.228 -3.115,2.225 l 0.126,28.271 c 2.404,1.597 2.342,3.093 -0.184,4.488 0.005,3.232 0.009,6.464 0.015,9.697 3.276,3.858 3.123,7.741 0.085,11.645 0.019,2.29 0.038,4.58 0.057,6.871 2.907,4.338 2.902,8.68 0.025,13.029 -0.021,0.872 -0.042,1.743 -0.063,2.615 3.695,3.786 1.456,8.482 1.818,12.732 1.144,13.462 -1.552,26.959 0.107,40.428 0.484,3.928 2.881,8.333 1.755,11.609 -2.908,8.453 -3.284,16.932 -3.16,25.617 0.029,2.023 0.51,4.437 -2.458,5.087 -0.027,0.906 -0.053,1.811 -0.08,2.716 4.014,4.39 4.243,8.665 -0.388,12.793 -0.064,5.273 -0.127,10.546 -0.191,15.819 4.107,0.29 2.85,3.484 3.105,5.811 0.348,3.175 -0.582,6.542 1.924,9.343 4.158,4.647 1.359,5.879 -3.167,6.139 -0.262,1.356 -0.524,2.712 -0.786,4.068 6.693,5.278 0.965,10.588 0.041,15.885 -0.023,0.86 -0.045,1.721 -0.068,2.581 1.495,7.281 1.857,14.501 -1.134,21.545 0.155,0.922 0.311,1.845 0.466,2.768 1.263,-0.047 2.268,0.389 2.467,1.733 0.247,1.664 -0.633,2.503 -2.272,2.604 -1.395,2.797 -1.107,5.602 -0.039,8.411 5.164,-0.596 6.597,-3.778 5.528,-8.372 -0.852,-3.656 1.814,-3.983 4.022,-4.271 2.655,-0.346 5.375,-2.911 8.014,-0.382 0.936,0.897 0.389,2.263 -0.93,2.838 -6.452,2.815 -9.137,8.942 -11.43,14.665 -2.104,5.251 -5.878,11.388 0.57,16.831 1.777,1.5 1.068,3.619 -0.44,5.02 -4.004,3.719 -3.798,8.898 -3.324,13.232 1.447,13.232 -0.078,26.348 -0.344,39.506 -0.33,16.328 -1.515,32.662 3.629,48.626 2.404,7.46 7.986,12.554 16.891,12.71 -4.866,3.883 -4.201,9.334 -6.976,13.405 -1.556,2.281 0.296,5.527 1.155,4.678 6.725,-6.644 6.045,0.158 8.711,3.482 1.966,2.451 3.07,4.106 1.683,6.452 -4.001,6.768 2.965,15.297 -3.632,21.562 -0.167,0.158 0.127,0.857 0.274,1.28 0.557,1.602 5.628,0.02 2.903,3.742 C 86.013,8.374 84.583,4.908 82.814,4.426 81.987,4.201 80.891,4.372 80.09,4.74 70.7,9.063 60.634,6.245 50.959,7.523 48.703,7.821 45.037,4.292 45.34,10.258 c 0.188,3.703 -0.924,7.604 5.368,5.739 2.283,-0.676 5.061,0.155 7.585,0.505 1.784,0.248 4.069,0.058 4.512,2.571 0.445,2.523 -0.926,3.909 -3.245,4.738 -2.688,0.96 -5.271,2.237 -6.413,5.121 -0.509,1.286 -0.462,3.078 -2.372,2.945 -1.876,-0.13 -1.655,-1.967 -2.055,-3.259 -0.895,-2.896 -3.282,-3.896 -5.923,-4.376 -1.371,-0.25 -2.093,0.715 -2.469,1.982 -0.523,1.766 0.442,5.171 -3.108,4.008 -2.249,-0.736 -2.643,-3.109 -2.958,-5.749 -0.647,-5.418 0.409,-10.348 3.734,-17.097 -6.34,3.944 -13.389,-0.9 -16.31,6.733 -0.194,0.506 -1.698,0.864 -2.481,0.713 -1.464,-0.281 -1.521,-1.584 -1.267,-2.817 0.311,-1.507 1.871,-3.439 -0.262,-4.336 -2.155,-0.906 -3.121,1.598 -4.51,2.732 C 10.91,12.253 11.269,16.515 7.13,16.696 1.333,16.949 5.36,11.556 2.779,9.424 -2.752,4.853 0.468,3.068 5.797,1.876 8.872,1.188 11.311,1.6 13.918,2.938 16.466,4.247 18.665,4.269 18.862,0.634 19.409,-9.472 8.938,-6.981 4.588,-11.614 c -2.413,-2.569 -7.603,-2.977 -8.865,-0.345 -3.645,7.597 -4.898,1.897 -7.215,-0.522 -1.78,-1.859 -3.745,-3.738 -5.992,-4.91 -4.663,-2.433 -9.619,-1.207 -14.216,0.291 -3.2,1.044 -2.748,4.895 -1.87,6.794 1.898,4.107 0.471,7.553 0.153,11.542 -1.153,14.484 -0.384,29.115 -1.388,43.618 -0.609,8.79 2.405,17.207 1.326,25.883 -0.466,3.744 1.724,4.096 4.641,4.537 15.603,2.362 31.268,0.039 46.897,0.654 3.23,0.127 6.625,0.855 10.339,-0.531 4.276,-1.596 9.085,-9.97 14.331,-0.934 0.147,0.254 1.339,-0.007 2.012,-0.164 6.551,-1.526 13.118,0.349 19.572,0.636 9.752,0.433 18.094,0.963 22.97,-9.633 2.064,-4.485 5.679,-3.531 7.102,0.599 1.572,4.558 4.302,8.158 7.08,11.853 0.906,0.128 1.812,0.256 2.718,0.384 2.558,-6.694 12.819,-7.967 12.068,-17.084 -0.034,-0.413 1.354,-1.058 2.162,-1.407 5.911,-2.55 11.447,1.33 10.888,7.704 -0.448,5.121 -0.088,9.511 6.668,9.5 2.183,0.058 4.367,0.116 6.55,0.174 6.095,-3.006 11.52,-7.536 19.419,-3.733 3.278,1.579 7.722,1.721 11.596,2.725 1.438,0.373 2.98,0.219 3.69,-1.293 0.944,-2.009 -0.919,-2.214 -2.099,-2.825 -1.844,-0.953 -3.7,-3.454 -1.657,-4.13 4.859,-1.608 7.701,-7.628 13.536,-6.381 3.806,0.813 7.405,1.293 11.108,-0.198 1.122,-0.452 2.538,-0.437 3.208,0.655 0.367,0.597 0.194,2.205 -0.293,2.534 -2.891,1.958 -5.305,5.897 -8.849,5.349 -5.296,-0.82 -5.554,1.823 -5.494,5.527 10.86,3.609 21.997,1.852 33.055,1.775 2.252,-0.015 4.508,0.55 6.762,0.847 2.548,-4.391 5.547,-3.563 8.719,-0.755 1.321,0.069 2.642,0.139 3.963,0.209 3.352,-3.411 6.779,-3.043 10.255,-0.205 6.56,-1.149 13.044,2.673 19.622,0.295 0.782,-2.012 1.785,-2.34 3.086,-0.406 0.313,-0.145 0.641,-0.23 0.985,-0.255 0.697,-0.005 1.395,-0.01 2.093,-0.015 0.333,0.016 0.653,0.089 0.961,0.22 1.642,-2.405 4.341,-1.234 6.449,-1.95 6.212,-2.111 13.209,1.98 19.393,-4.74 3.614,-3.927 -2.02,-4.054 -0.23,-6.058 5.764,-6.458 3.148,-14.55 3.456,-21.862 0.353,-8.376 -0.401,-16.806 0.652,-25.202 0.299,-2.383 1.011,-4.097 3.644,-4.384 l 0.109,-1.492 c -2.151,-2.755 -5.459,-5.385 -0.957,-8.859 0.116,-0.874 0.232,-1.748 0.348,-2.623 -6.309,-3.961 -1.947,-7.756 0.179,-11.585 -0.426,-1.19 -0.853,-2.38 -1.279,-3.571 -2.015,-3.59 -5.119,-3.723 -8.586,-2.706 -1.783,0.523 -3.534,1.277 -5.355,1.53 -7.097,0.989 -14.281,0.077 -21.416,0.336 -4.077,0.148 -11.29,2.88 -13.385,-4.855 -0.916,-0.002 -1.833,-0.004 -2.748,-0.005 -1.05,5.148 -4.838,5.096 -8.669,4.261 -7.116,-1.551 -14.459,-2.092 -21.508,-1.469 -14.503,1.284 -21.571,-4.241 -21.185,-18.542 0.054,-2 -0.858,-3.627 -0.917,-5.374 -0.127,-3.763 -2.027,-8.152 2.67,-10.773 0.018,-0.896 0.036,-1.791 0.054,-2.687 -2.683,-1.822 -2.784,-4.473 -2.819,-7.43 -0.163,-13.406 2.571,-26.725 0.982,-40.185 -0.518,-4.388 -0.383,-8.95 3.401,-12.319 -0.117,-1.833 -0.233,-3.666 -0.349,-5.5 -1.276,-3.339 -2.951,-6.672 -0.14,-10.067 0.392,-1.855 0.568,-3.704 -0.179,-5.523 -5.426,-3.431 -1.265,-6.011 0.778,-8.779 -0.024,-0.479 -0.048,-0.958 -0.073,-1.437 -0.377,-0.255 -0.752,-0.509 -1.127,-0.764 0.337,-0.151 0.674,-0.302 1.011,-0.453 -0.049,-0.514 -0.098,-1.028 -0.147,-1.542 -1.489,0.054 -2.845,-0.287 -2.852,-2.055 -0.007,-1.703 1.217,-2.24 2.776,-2.131 -0.129,-0.923 -0.257,-1.845 -0.387,-2.768 -3.272,-0.301 -1.749,-2.329 -1.673,-4.124 0.878,-20.777 0.308,-41.533 -0.487,-62.311 -0.26,-6.82 -1.016,-14.307 3.642,-20.514 -0.861,-18.901 -1.154,-37.803 -0.117,-56.708 -0.707,-0.555 -1.687,-0.963 -2.08,-1.688 -4.123,-7.612 -2.819,-17.094 -1.344,-23.643 2.35,-10.439 1.039,-20.654 2.671,-30.8 -0.014,-1.051 -0.027,-2.101 -0.04,-3.153 -0.682,-2.149 -0.024,-3.392 2.349,-3.475 0.219,-1.823 0.439,-3.646 0.659,-5.47 -0.91,-0.126 -2.415,-0.137 -2.24,-1.169 1.561,-9.18 -1.266,-18.14 -1.177,-27.273 0.131,-13.379 3.118,-26.962 -1.998,-40.108 -0.73,-1.877 0.614,-2.466 2.18,-2.683 0,-0.459 0,-0.918 -0.001,-1.377 -2.862,-4.939 -1.006,-10.295 -1.3,-15.454 -0.112,-1.967 1.418,-2.712 3.259,-2.728 2.304,-1.458 1.127,-3.605 1.094,-5.527 -0.592,-4.548 -1.545,-9.086 -1.668,-13.645 -0.105,-3.895 -0.017,-7.164 -5.259,-7.049 -1.465,0.032 -2.659,-1.025 -2.919,-2.614 -0.374,-2.287 1.433,-2.69 3.004,-3.16 5.412,-1.619 6.681,-6.16 6.118,-10.648 -0.769,-6.129 -0.092,-12.029 0.219,-18.091 0.686,-13.355 0.186,-26.769 0.301,-40.158 0.023,-2.678 -0.966,-5.805 2.141,-7.694 -0.141,-5.911 -0.283,-11.822 -0.424,-17.734 -0.342,-1.43 -0.224,-2.686 1.29,-3.414 0.004,-0.958 0.008,-1.917 0.011,-2.875 -1.726,-0.738 -1.667,-1.725 -0.401,-2.879 0.347,-2.769 1.219,-5.511 0.448,-8.341 -4.384,-9.138 -1.258,-18.484 -0.692,-27.75 0.021,-0.33 1.156,-0.591 1.772,-0.884 1.602,-8.378 -0.991,-16.587 -1.005,-24.901 -1.832,-14.669 -0.323,-29.365 -0.341,-44.048 -0.003,-2.081 -0.259,-4.433 2.655,-5.039 0.009,-0.889 0.017,-1.778 0.025,-2.668 -3.806,-4.167 -4.02,-22.872 -0.289,-26.938 0.12,-0.131 0.452,-0.068 0.685,-0.095 0.01,-1.001 0.019,-2.003 0.029,-3.005 -4.388,-3.736 -4.425,-11.735 -0.073,-15.498 0.749,-3.746 0.659,-7.513 0.275,-11.287 -2.031,-1.083 -1.91,-3.001 -1.884,-4.875 0.113,-8.191 1.019,-16.641 -7.248,-22.081 -1.343,-0.215 -2.686,-0.43 -4.029,-0.644 -2.644,2.85 -6.37,3.048 -9.699,3.095 -16.025,0.229 -32.056,0.092 -48.084,0.045 -2.07,-0.007 -4.434,0.302 -4.96,-2.673 -1.84,-0.15 -3.68,-0.301 -5.521,-0.451 -2.304,2.531 -4.324,2.736 -5.898,-0.72 -0.587,0.141 -1.173,0.281 -1.76,0.423 0.297,3.785 -2.493,3.295 -4.782,3.414 -10.128,0.531 -20.352,0.643 -30.39,0.373 -7.228,-0.194 -15.083,2.778 -22.093,-1.592 -0.394,0.006 -0.597,0.206 -0.605,0.601 1.58,1.535 1.457,2.809 -0.578,3.789 -2.51,10.463 -2.764,21.047 -1.698,31.703 0.576,0.912 0.458,1.685 -0.46,2.296 -0.737,1.862 -0.695,3.72 0.025,5.575 1.107,0.008 2.177,0.142 2.288,1.544 0.091,1.144 -0.86,1.273 -1.672,1.485 0.061,1.456 0.122,2.912 0.183,4.368 1.983,-0.846 4.314,2.355 6.284,-0.852 1.277,-2.079 2.941,-6.405 5.829,-3.913 2.441,2.107 -0.495,5.488 -2.406,7.825 -1.029,1.258 -2.029,2.864 -3.409,3.449 -3.995,1.694 -4.576,4.697 -4.528,8.546 0.144,11.695 0.06,23.394 -0.03,35.091 -0.021,2.638 0.97,5.98 -3.293,6.578 -0.037,1.359 -0.073,2.717 -0.109,4.076 1.938,0.763 2.456,1.724 0.427,3.043 0.008,1.376 0.016,2.753 0.024,4.13 2.294,1.658 2.106,3.138 -0.319,4.458 1.204,4.649 0.173,9.358 0.377,14.034 1.196,0.618 1.307,1.783 1.65,2.929 2.151,7.201 0.962,14.581 1.33,21.876 0.099,1.955 -0.804,5.517 3.456,3.321 1.596,-0.823 3.332,-1.381 4.382,0.39 1.186,2 -0.031,3.603 -1.757,4.76 -8.103,5.437 -7.785,13.943 -7.278,22.01 0.232,3.684 -0.053,7.475 0.732,11.133 0.777,3.613 -0.855,4.812 -4.205,4.47 -1.076,3.938 0.755,7.668 0.825,11.525 3.204,1.573 3.122,3.065 -0.109,4.478 -0.248,1.828 -0.496,3.655 -0.744,5.482 2.605,1.664 1.477,2.471 -0.697,3.038 -0.027,0.911 -0.054,1.822 -0.082,2.733 3.045,0.221 3.887,2.323 3.911,4.866 0.088,9.33 0.075,18.661 0.121,27.991 0.012,2.453 -0.869,4.087 -3.571,4.207 -0.028,0.9 -0.055,1.799 -0.083,2.698 1.24,0.154 2.159,0.731 2.165,2.078 0.007,1.693 -1.063,2.324 -2.628,2.314" style="fill:#08282e;fill-opacity:1;fill-rule:nonzero;stroke:none" transform="matrix(1.3333333,0,0,-1.3333333,2498.5503,308.71373)" />
      <path id="path29" d="m 0,0 c -2.779,-3.695 -5.508,-7.295 -7.08,-11.854 -1.424,-4.129 -5.038,-5.083 -7.103,-0.598 -4.875,10.596 -13.217,10.066 -22.969,9.633 -6.455,-0.287 -13.021,-2.162 -19.573,-0.636 -0.673,0.157 -1.864,0.417 -2.012,0.163 -5.245,-9.035 -10.054,-0.661 -14.331,0.935 -3.713,1.386 -7.108,0.658 -10.338,0.531 -15.63,-0.615 -31.295,1.708 -46.897,-0.654 -2.917,-0.441 -5.108,-0.793 -4.642,-4.538 1.08,-8.675 -1.934,-17.093 -1.325,-25.882 1.004,-14.503 0.235,-29.134 1.387,-43.618 0.318,-3.989 1.745,-7.435 -0.152,-11.542 -0.878,-1.899 -1.331,-5.751 1.87,-6.794 4.597,-1.498 9.552,-2.725 14.216,-0.291 2.246,1.172 4.212,3.051 5.992,4.91 2.317,2.419 3.57,8.119 7.214,0.522 1.263,-2.632 6.452,-2.225 8.866,0.345 4.35,4.632 14.821,2.142 14.273,12.248 -0.197,3.635 -2.396,3.613 -4.943,2.304 -2.607,-1.338 -5.046,-1.75 -8.122,-1.062 -5.329,1.192 -8.548,2.976 -3.017,7.548 2.58,2.132 -1.446,7.525 4.351,7.272 4.138,-0.181 3.78,-4.443 6.036,-6.285 1.389,-1.135 2.355,-3.638 4.509,-2.732 2.134,0.897 0.573,2.829 0.263,4.335 -0.254,1.234 -0.198,2.537 1.266,2.818 0.784,0.151 2.287,-0.208 2.481,-0.713 2.922,-7.633 9.971,-2.79 16.311,-6.733 -3.325,6.749 -4.382,11.679 -3.735,17.097 0.316,2.64 0.71,5.013 2.958,5.749 3.55,1.163 2.585,-2.242 3.109,-4.008 0.376,-1.267 1.098,-2.232 2.469,-1.982 2.641,0.48 5.027,1.48 5.923,4.376 0.399,1.292 0.178,3.128 2.055,3.259 1.91,0.133 1.863,-1.66 2.372,-2.945 1.142,-2.884 3.725,-4.161 6.413,-5.121 2.318,-0.829 3.69,-2.215 3.245,-4.738 -0.443,-2.513 -2.728,-2.323 -4.513,-2.571 -2.523,-0.35 -5.301,-1.181 -7.585,-0.505 -6.292,1.865 -5.18,-2.036 -5.367,-5.74 -0.303,-5.966 3.362,-2.436 5.619,-2.734 9.675,-1.278 19.74,1.539 29.131,-2.783 0.8,-0.368 1.897,-0.539 2.724,-0.314 1.769,0.482 3.198,3.948 5.275,1.111 2.724,-3.721 -2.346,-2.139 -2.903,-3.741 -0.148,-0.423 -0.441,-1.122 -0.274,-1.281 6.597,-6.264 -0.369,-14.793 3.632,-21.562 1.387,-2.345 0.283,-4.001 -1.683,-6.451 -2.667,-3.324 -1.987,-10.126 -8.711,-3.482 -0.859,0.849 -2.711,-2.397 -1.155,-4.679 2.775,-4.07 2.11,-9.521 6.976,-13.404 -8.905,-0.157 -14.488,-5.25 -16.891,-12.71 -5.144,-15.964 -3.96,-32.298 -3.629,-48.627 0.266,-13.158 1.79,-26.273 0.344,-39.505 -0.474,-4.334 -0.68,-9.513 3.323,-13.232 1.509,-1.401 2.217,-3.52 0.44,-5.02 -6.447,-5.443 -2.673,-11.58 -0.569,-16.831 2.293,-5.724 4.978,-11.85 11.43,-14.665 1.319,-0.575 1.866,-1.941 0.93,-2.838 -2.639,-2.529 -5.359,0.036 -8.014,0.382 -2.209,0.288 -4.874,0.615 -4.023,4.271 1.07,4.594 -0.363,7.776 -5.528,8.372 -0.706,26.298 -1.658,52.579 -1.567,78.908 0.041,11.868 -1.976,24.018 -0.252,35.677 1.574,10.641 2.816,22.855 15.26,28.208 1.567,0.674 2.147,1.768 1.746,3.357 -0.45,1.785 -1.593,2.945 -3.49,2.968 -2.617,0.032 -5.002,0.484 -7.514,1.519 -5.558,2.29 -6.549,5.658 -1.961,9.571 2.742,2.338 4.478,5.997 1.985,7.646 -2.395,1.584 -6.255,5.268 -10.138,1.406 l 0.091,0.079 c -6.224,-0.473 -12.41,-0.443 -18.657,-0.232 -6.464,0.217 -13.22,-0.107 -19.87,-0.042 -6.546,0.064 -13.022,-0.425 -19.577,1.002 -2.999,0.653 -6.025,-0.09 -9.615,-2.297 -6.129,-3.769 -14.571,-4.007 -21.92,-1.622 -3.047,0.989 -4.174,4.959 -4.18,8.466 -0.044,28.353 0.176,56.71 -0.251,85.058 -0.107,7.155 3.676,9.62 9.149,9.439 20.088,-0.666 40.171,1.036 60.286,-0.573 8.294,-0.663 16.807,-0.475 25.281,0.02 11.426,0.669 23.057,1.047 34.45,-0.896 C -6.873,-0.164 -3.429,0.862 0,0" style="fill:#494f57;fill-opacity:1;fill-rule:nonzero;stroke:none" transform="matrix(1.3333333,0,0,-1.3333333,2633.8375,205.04147)" />
      <path id="path230" d="m 0,0 c -0.061,-3.704 0.198,-6.347 5.494,-5.528 3.544,0.549 5.958,-3.39 8.848,-5.348 0.487,-0.33 0.66,-1.937 0.294,-2.534 -0.67,-1.092 -2.087,-1.107 -3.209,-0.655 -3.703,1.491 -7.301,1.011 -11.107,0.198 -5.835,-1.248 -8.677,4.773 -13.537,6.38 -2.043,0.676 -0.186,3.178 1.658,4.131 1.18,0.61 3.042,0.816 2.098,2.825 -0.71,1.512 -2.252,1.666 -3.689,1.293 -3.875,-1.004 -8.319,-1.147 -11.596,-2.725 -7.9,-3.803 -13.324,0.727 -19.419,3.733 2.735,3.547 6.669,1.284 9.889,1.63 9.338,1.004 18.798,0.924 28.161,-0.407 C -3.818,2.666 -1.325,2.446 0,0" style="fill:#494f57;fill-opacity:1;fill-rule:nonzero;stroke:none" transform="matrix(1.3333333,0,0,-1.3333333,2747.4629,208.37347)" />
      <path id="path234" d="m 0,0 c -2.633,0.287 -3.345,2 -3.644,4.384 -1.053,8.396 -0.299,16.826 -0.652,25.201 -0.308,7.312 2.307,15.404 -3.457,21.862 -1.789,2.005 3.845,2.132 0.231,6.059 -6.184,6.72 -13.181,2.629 -19.393,4.739 -2.109,0.717 -4.807,-0.455 -6.45,1.95 9.728,3.153 19.614,2.666 29.379,0.615 2.899,-0.609 3.641,-3.929 3.641,-7.001 C -0.348,44.875 -0.266,31.942 -0.19,19.009 -0.154,12.673 -0.065,6.336 0,0" style="fill:#494f57;fill-opacity:1;fill-rule:nonzero;stroke:none" transform="matrix(1.3333333,0,0,-1.3333333,2911.2825,291.688)" />
      <path id="path236" d="m 0,0 c -3.107,1.888 -2.118,5.016 -2.141,7.694 -0.115,13.388 0.385,26.802 -0.301,40.157 -0.311,6.062 -0.988,11.963 -0.219,18.092 0.563,4.488 -0.706,9.029 -6.119,10.648 -1.57,0.47 -3.377,0.872 -3.003,3.16 0.26,1.588 1.454,2.645 2.918,2.614 5.243,-0.115 5.155,3.154 5.26,7.048 0.123,4.56 1.076,9.097 1.668,13.646 3.131,-0.404 2.698,-2.777 2.619,-4.867 C -0.466,67.823 1.362,37.472 1.18,7.11 1.166,4.761 2.848,1.942 0,0" style="fill:#494f57;fill-opacity:1;fill-rule:nonzero;stroke:none" transform="matrix(1.3333333,0,0,-1.3333333,2782.7012,1065.8624)" />
      <path id="path240" d="m 0,0 c -6.756,0.011 -7.116,-4.379 -6.667,-9.5 0.558,-6.374 -4.978,-10.254 -10.889,-7.704 -0.807,0.349 -2.196,0.994 -2.162,1.407 0.751,9.117 -9.509,10.39 -12.067,17.085 0.749,0.462 1.558,1.4 2.238,1.314 C -21.386,1.565 -13.243,2.079 -5.079,2.486 -3.217,2.578 -0.605,3.013 0,0" style="fill:#494f57;fill-opacity:1;fill-rule:nonzero;stroke:none" transform="matrix(1.3333333,0,0,-1.3333333,2679.8421,206.2456)" />
      <path id="path246" d="m 0,0 c 2.969,-0.65 2.487,-3.064 2.458,-5.087 -0.124,-8.685 0.253,-17.164 3.16,-25.618 1.126,-3.275 -1.27,-7.68 -1.754,-11.608 -1.66,-13.469 1.037,-26.966 -0.108,-40.428 -0.361,-4.25 1.877,-8.946 -1.817,-12.732 -4.037,7.815 -1.571,16.217 -1.933,24.31 -0.777,17.367 -0.796,34.771 -0.962,52.162 C -1.017,-12.662 -1.717,-6.261 0,0" style="fill:#494f57;fill-opacity:1;fill-rule:nonzero;stroke:none" transform="matrix(1.3333333,0,0,-1.3333333,2581.0927,710.95613)" />
      <path id="path252" d="m 0,0 c -4.697,2.621 -2.797,7.01 -2.67,10.773 0.059,1.747 0.971,3.375 0.917,5.374 -0.386,14.301 6.682,19.827 21.185,18.543 7.049,-0.624 14.392,-0.082 21.508,1.468 3.831,0.835 7.619,0.888 8.669,-4.261 C 36.632,29.698 23.513,29.192 10.41,29.281 4.124,29.324 1.832,27.595 1.376,20.921 0.901,13.962 3.329,6.746 0,0" style="fill:#494f57;fill-opacity:1;fill-rule:nonzero;stroke:none" transform="matrix(1.3333333,0,0,-1.3333333,2774.3503,379.32467)" />
      <path id="path254" d="m 0,0 c 3.349,0.343 4.982,-0.857 4.205,-4.47 -0.786,-3.658 -0.5,-7.449 -0.732,-11.133 -0.508,-8.066 -0.826,-16.573 7.278,-22.009 1.726,-1.158 2.943,-2.761 1.757,-4.761 -1.051,-1.771 -2.786,-1.213 -4.382,-0.39 -4.26,2.197 -3.357,-1.365 -3.456,-3.321 -0.369,-7.295 0.821,-14.674 -1.331,-21.875 -0.342,-1.146 -0.453,-2.312 -1.649,-2.929 -2.989,8.4 0.3,16.975 -0.689,25.445 -0.297,2.543 0.55,5.322 -0.14,7.699 C -2.78,-25.201 0.601,-12.565 0,0" style="fill:#494f57;fill-opacity:1;fill-rule:nonzero;stroke:none" transform="matrix(1.3333333,0,0,-1.3333333,2585.7107,1084.9663)" />
      <path id="path258" d="m 0,0 c -4.658,6.207 -3.902,13.695 -3.641,20.515 0.794,20.777 1.364,41.533 0.486,62.311 -0.075,1.794 -1.598,3.823 1.674,4.123 C 2.21,82.376 0.493,76.943 0.506,71.968 0.567,47.979 0.209,23.989 0,0" style="fill:#494f57;fill-opacity:1;fill-rule:nonzero;stroke:none" transform="matrix(1.3333333,0,0,-1.3333333,2777.5644,633.44347)" />
      <path id="path260" d="M 0,0 C 2.096,7.736 9.308,5.004 13.386,4.855 20.521,4.596 27.704,5.508 34.802,4.52 36.623,4.266 38.374,3.512 40.157,2.989 43.624,1.972 46.728,2.105 48.742,5.696 51.656,5.713 51.637,3.681 51.112,1.821 50.401,-0.696 48.311,-2.137 45.821,-2.093 31.138,-1.831 16.458,-1.408 1.779,-0.979 1.177,-0.961 0.593,-0.34 0,0" style="fill:#494f57;fill-opacity:1;fill-rule:nonzero;stroke:none" transform="matrix(1.3333333,0,0,-1.3333333,2844.1592,336.78893)" />
      <path id="path265" d="m 0,0 c 4.263,-0.598 3.273,-3.94 3.293,-6.578 0.091,-11.697 0.174,-23.396 0.03,-35.091 -0.047,-3.849 0.534,-6.852 4.528,-8.546 1.38,-0.585 2.38,-2.191 3.409,-3.449 1.911,-2.337 4.847,-5.718 2.407,-7.825 -2.888,-2.491 -4.552,1.834 -5.829,3.913 -1.97,3.207 -4.302,0.006 -6.284,0.852 -2.895,17.73 -1.62,35.657 -2.473,53.484 C -0.969,-2.177 -0.322,-1.081 0,0" style="fill:#494f57;fill-opacity:1;fill-rule:nonzero;stroke:none" transform="matrix(1.3333333,0,0,-1.3333333,2587.4297,1219.1392)" />
      <path id="path277" d="m 0,0 c -1.566,0.217 -2.91,0.806 -2.18,2.682 5.116,13.146 2.128,26.73 1.998,40.109 -0.089,9.132 2.738,18.093 1.177,27.273 -0.175,1.032 1.33,1.043 2.24,1.169 C 5.104,66.804 4.294,61.858 3.95,57.62 2.611,41.112 6.494,24.628 3.595,8.138 3.021,4.874 1.275,2.666 0,0" style="fill:#494f57;fill-opacity:1;fill-rule:nonzero;stroke:none" transform="matrix(1.3333333,0,0,-1.3333333,2776.0492,895.0024)" />
      <path id="path281" d="M 0,0 C 0.526,2.975 2.891,2.666 4.96,2.672 20.989,2.719 37.019,2.857 53.044,2.628 56.373,2.58 60.099,2.383 62.744,-0.468 57.441,-3.864 51.802,-0.799 46.33,-1.115 32.952,-1.888 19.51,-1.612 6.094,-1.57 4.061,-1.563 2.031,-0.548 0,0" style="fill:#494f57;fill-opacity:1;fill-rule:nonzero;stroke:none" transform="matrix(1.3333333,0,0,-1.3333333,2686.782,1365.1811)" />
      <path id="path292" d="m 0,0 c -1.632,10.145 -0.32,20.361 -2.671,30.8 -1.474,6.549 -2.779,16.031 1.345,23.643 0.393,0.725 1.372,1.133 2.08,1.688 C 2.688,38.872 2.711,21.537 2.738,4.207 2.741,2.457 2.661,0.254 0,0" style="fill:#494f57;fill-opacity:1;fill-rule:nonzero;stroke:none" transform="matrix(1.3333333,0,0,-1.3333333,2776.4043,783.89467)" />
      <path id="path294" d="m 0,0 c -3.783,3.369 -3.919,7.93 -3.401,12.319 1.59,13.46 -1.144,26.779 -0.982,40.185 0.036,2.956 0.136,5.608 2.82,7.43 3.48,-6.003 0.901,-12.457 1.272,-18.681 C 0.45,28.838 0.631,16.389 1.031,3.954 1.077,2.546 1.216,1.09 0,0" style="fill:#494f57;fill-opacity:1;fill-rule:nonzero;stroke:none" transform="matrix(1.3333333,0,0,-1.3333333,2776.5072,462.8188)" />
      <path id="path302" d="M 0,0 C 7.01,4.371 14.865,1.398 22.093,1.593 32.13,1.862 42.355,1.75 52.482,1.22 54.772,1.1 57.562,1.59 57.265,-2.195 40.426,-2.292 23.587,-2.482 6.75,-2.372 4.496,-2.357 1.363,-3.238 0,0" style="fill:#494f57;fill-opacity:1;fill-rule:nonzero;stroke:none" transform="matrix(1.3333333,0,0,-1.3333333,2592.8575,1363.2528)" />
      <path id="path327" d="m 0,0 c -2.915,0.606 -2.658,2.958 -2.656,5.039 0.019,14.683 -1.49,29.379 0.342,44.048 C 0.048,49.049 0.203,47.288 0.199,45.632 0.162,30.421 0.074,15.21 0,0" style="fill:#494f57;fill-opacity:1;fill-rule:nonzero;stroke:none" transform="matrix(1.3333333,0,0,-1.3333333,2787.1188,1249.6831)" />
      <path id="path330" d="m 0,0 c 2.702,-0.12 3.583,-1.754 3.571,-4.208 -0.046,-9.33 -0.034,-18.66 -0.122,-27.99 -0.024,-2.543 -0.866,-4.646 -3.91,-4.867 C -1.159,-24.699 -0.644,-12.349 0,0" style="fill:#494f57;fill-opacity:1;fill-rule:nonzero;stroke:none" transform="matrix(1.3333333,0,0,-1.3333333,2585.2495,999.2052)" />
      <path id="path368" d="M 0,0 C 8.267,5.44 7.361,13.89 7.248,22.081 7.222,23.955 7.101,25.873 9.132,26.956 11.732,19.658 10.746,12.128 9.996,4.767 9.38,-1.266 5.014,-1.901 0,0" style="fill:#494f57;fill-opacity:1;fill-rule:nonzero;stroke:none" transform="matrix(1.3333333,0,0,-1.3333333,2775.8119,1364.9455)" />
      <path id="path387" d="M 0,0 C -0.616,0.293 -1.751,0.554 -1.771,0.884 -2.337,10.15 -5.464,19.496 -1.08,28.634 0.995,19.155 1.159,9.602 0,0" style="fill:#494f57;fill-opacity:1;fill-rule:nonzero;stroke:none" transform="matrix(1.3333333,0,0,-1.3333333,2785.3727,1151.0327)" />
      <path id="path396" d="M 0,0 C 1.571,0.003 2.742,-0.614 3.115,-2.225 4.751,-9.293 5.277,-16.283 1.502,-22.934 -1.134,-15.429 0.212,-7.664 0,0" style="fill:#494f57;fill-opacity:1;fill-rule:nonzero;stroke:none" transform="matrix(1.3333333,0,0,-1.3333333,2583.5952,940.4084)" />
      <path id="path399" d="M 0,0 C 4.526,-0.26 7.325,-1.493 3.167,-6.14 0.661,-8.941 1.591,-12.307 1.243,-15.483 0.988,-17.809 2.245,-21.003 -1.862,-21.294 -3.358,-14.011 -2.819,-6.906 0,0" style="fill:#494f57;fill-opacity:1;fill-rule:nonzero;stroke:none" transform="matrix(1.3333333,0,0,-1.3333333,2582.6969,640.7944)" />
      <path id="path401" d="M 0,0 C -0.233,0.027 -0.565,-0.036 -0.685,0.095 -4.416,4.161 -4.202,22.866 -0.396,27.033 0.824,18.038 0.842,9.025 0,0" style="fill:#494f57;fill-opacity:1;fill-rule:nonzero;stroke:none" transform="matrix(1.3333333,0,0,-1.3333333,2787.6793,1289.2843)" />
      <path id="path422" d="m 0,0 c -1.841,0.017 -3.371,0.761 -3.259,2.728 0.294,5.159 -1.562,10.515 1.3,15.454 C 3.189,12.605 3.579,6.517 0,0" style="fill:#494f57;fill-opacity:1;fill-rule:nonzero;stroke:none" transform="matrix(1.3333333,0,0,-1.3333333,2778.6595,921.08187)" />
      <path id="path432" d="M 0,0 C 2.991,-7.044 2.629,-14.264 1.135,-21.544 -2.508,-14.535 -2.618,-7.339 0,0" style="fill:#494f57;fill-opacity:1;fill-rule:nonzero;stroke:none" transform="matrix(1.3333333,0,0,-1.3333333,2580.1008,582.0232)" />
      <path id="path462" d="M 0,0 C 0.925,-5.297 6.652,-10.607 -0.041,-15.885 -1.712,-10.586 -3.482,-5.286 0,0" style="fill:#494f57;fill-opacity:1;fill-rule:nonzero;stroke:none" transform="matrix(1.3333333,0,0,-1.3333333,2581.7035,614.19093)" />
      <path id="path472" d="M 0,0 C -4.353,3.763 -4.315,11.762 0.073,15.499 0.881,10.329 1.171,5.161 0,0" style="fill:#494f57;fill-opacity:1;fill-rule:nonzero;stroke:none" transform="matrix(1.3333333,0,0,-1.3333333,2787.6211,1313.9556)" />
      <path id="path501" d="M 0,0 C 2.877,-4.348 2.882,-8.691 -0.025,-13.029 -2.508,-8.681 -2.027,-4.339 0,0" style="fill:#494f57;fill-opacity:1;fill-rule:nonzero;stroke:none" transform="matrix(1.3333333,0,0,-1.3333333,2583.7604,841.74067)" />
      <path id="path512" d="M 0,0 C 4.631,-4.128 4.402,-8.403 0.388,-12.793 -0.44,-8.55 -1.637,-4.318 0,0" style="fill:#494f57;fill-opacity:1;fill-rule:nonzero;stroke:none" transform="matrix(1.3333333,0,0,-1.3333333,2580.4689,690.27787)" />
      <path id="path521" d="M 0,0 C -2.126,3.829 -6.489,7.624 -0.18,11.585 0.789,7.738 2.087,3.895 0,0" style="fill:#494f57;fill-opacity:1;fill-rule:nonzero;stroke:none" transform="matrix(1.3333333,0,0,-1.3333333,2910.8548,324.43373)" />
      <path id="path527" d="M 0,0 C 3.038,-3.904 3.192,-7.787 -0.085,-11.645 -2.635,-7.745 -2.316,-3.865 0,0" style="fill:#494f57;fill-opacity:1;fill-rule:nonzero;stroke:none" transform="matrix(1.3333333,0,0,-1.3333333,2583.6512,868.27427)" />
      <path id="path565" d="M 0,0 C -3.476,-2.838 -6.903,-3.206 -10.255,0.204 -6.805,1.708 -3.38,2.004 0,0" style="fill:#494f57;fill-opacity:1;fill-rule:nonzero;stroke:none" transform="matrix(1.3333333,0,0,-1.3333333,2831.1344,205.87867)" />
      <path id="path578" d="M 0,0 C -2.043,2.768 -6.204,5.348 -0.778,8.778 0.529,5.946 2.053,3.131 0,0" style="fill:#494f57;fill-opacity:1;fill-rule:nonzero;stroke:none" transform="matrix(1.3333333,0,0,-1.3333333,2776.6543,502.644)" />
      <path id="path580" d="M 0,0 C -2.811,3.395 -1.137,6.728 0.14,10.067 1.873,6.687 2.997,3.315 0,0" style="fill:#494f57;fill-opacity:1;fill-rule:nonzero;stroke:none" transform="matrix(1.3333333,0,0,-1.3333333,2775.8561,483.57467)" />
      <path id="path591" d="M 0,0 C -3.171,-2.807 -6.171,-3.635 -8.719,0.755 -5.792,0.735 -2.639,3.335 0,0" style="fill:#494f57;fill-opacity:1;fill-rule:nonzero;stroke:none" transform="matrix(1.3333333,0,0,-1.3333333,2812.1764,205.88493)" />
      <path id="path614" d="M 0,0 C -4.502,3.474 -1.194,6.104 0.957,8.859 2.673,5.686 1.407,2.835 0,0" style="fill:#494f57;fill-opacity:1;fill-rule:nonzero;stroke:none" transform="matrix(1.3333333,0,0,-1.3333333,2910.1517,305.48973)" />
      <path id="path994" d="m 0,0 c -3.774,0.446 -7.538,2.407 -11.013,-0.33 -0.74,-0.583 0.166,-1.69 0.871,-2.308 C -5.899,-6.355 -3.13,-2.35 0,0 m 32.041,-24.662 c -11.698,-4.673 -14.929,-14.375 -8.558,-23.79 2.557,-3.777 1.043,-5.381 -2.582,-6.741 -4.202,-1.577 -5.437,-3.462 -0.549,-6.308 5.73,-3.335 5.718,-6.828 -0.332,-10.223 -2.64,-1.482 -4.989,-3.602 -7.185,-5.727 -4.506,-4.359 -6.582,-2.067 -7.608,2.68 -1.533,7.093 -4.525,14.054 -2.256,21.564 0.868,2.874 -1.54,3.01 -3.231,3.547 -2.862,0.909 -3.301,-1.059 -3.183,-3.117 0.177,-3.073 -0.175,-5.366 -3.926,-6.157 -1.161,-0.245 -2.088,-2.46 -2.75,-3.94 -0.583,-1.302 -0.584,-3.048 0.86,-3.801 1.608,-0.838 2.611,0.217 3.012,1.856 0.341,1.393 0.68,3.021 2.645,2.438 1.727,-0.512 1.237,-2.259 1.575,-3.58 2.06,-8.05 3.614,-16.395 13.752,-18.679 3.155,-0.711 4.34,-3.25 1.615,-5.802 -3.504,-3.282 -16.282,-1.726 -19.354,1.783 -1.644,1.878 -1.265,3.944 -1.639,5.976 -0.226,1.226 -0.735,2.357 -2.24,2.182 -1.606,-0.187 -1.757,-1.398 -1.327,-2.621 1.574,-4.476 -1.164,-7.766 -3.129,-11.187 -1.8,-3.131 -2.986,-5.988 -2.266,-9.939 0.819,-4.503 -0.979,-6.865 -6.188,-4.172 -3.866,1.999 -8.24,2.806 -12.158,5.049 -2.366,1.355 -6.055,3.125 -8.751,-0.992 -1.265,-1.931 -4.236,-2.121 -5.587,-0.238 -1.782,2.484 0.698,3.496 2.646,4.573 2.814,1.557 4.689,3.964 4.733,7.332 0.023,1.692 -1.223,2.385 -2.805,2.58 -3.728,0.458 -5.85,-0.807 -7.684,-4.488 -1.627,-3.267 -5.757,-5.15 -9.491,-4.843 -2.777,0.229 -4.827,3.016 -5.268,6.042 -0.288,1.975 -0.742,4.042 3.013,3.964 5.376,-0.111 7.82,3.834 6.501,8.923 -1.04,4.012 -0.216,5.703 4.654,7.007 8.278,2.217 14.749,-1.635 22.253,-3.749 0.405,2.645 0.835,4.782 -1.735,7.307 -5.549,5.454 -5.362,10.929 -0.621,17.25 2.157,2.876 3.076,6.368 3.7,9.876 0.185,1.039 -1.031,2.692 0.437,3.065 2.009,0.509 6.143,-0.729 2.391,3.206 -1.472,1.543 -2.612,7.544 -7.212,2.194 -2.189,-2.546 -8.252,-0.223 -13.1,4.382 2.303,1.288 4.35,3.014 6.681,3.588 2.814,0.693 3.659,0.747 2.774,4.413 -1.45,6.002 5.35,3.003 7.684,5.443 -0.305,2.799 -2.768,2.807 -4.625,3.392 -6.822,2.149 -5.699,8.896 -8.396,13.392 -2.729,4.547 -7.17,7.609 -3.686,13.551 0.284,0.485 0.48,1.599 0.327,1.68 -8.858,4.678 -0.723,6.544 1.381,9.705 1.792,2.694 5.113,4.872 3.315,9.324 -0.936,2.318 0.899,5.289 3.859,4.233 6.315,-2.253 12.543,-3.272 19.289,-2.783 3.383,0.246 4.421,-2.881 2.119,-5.449 -1.944,-2.169 -2.532,-4.883 -4.05,-7.535 -2.383,3.616 -4.602,6.984 -6.347,9.631 -4.353,0.738 3.068,-9.362 -5.229,-3.93 -1.829,-4.492 -7.412,-5.57 -9.221,-9.825 -0.985,-2.316 1.728,-2.126 3.237,-2.444 3.124,-0.661 3.696,-2.148 1.064,-4.122 -2.108,-1.581 -6.44,-1.867 -4.886,-5.629 1.65,-3.996 4.225,-8.388 8.609,-9.542 3.37,-0.888 5.05,-2.51 6.863,-5.09 2.057,-2.929 4.396,-6.127 9.021,-4.084 0.969,0.428 2.465,0.066 3.065,-1.161 0.757,-1.544 -0.173,-2.565 -1.289,-3.625 -2.904,-2.757 -2.569,-9.93 0.489,-12.396 1.231,-0.992 3.494,-1.329 3.552,0.031 0.24,5.643 6.614,9.009 5.149,15.301 -0.632,2.716 -0.14,5.474 -4.274,4.323 -1.336,-0.372 -2.755,0.094 -2.559,1.48 0.848,5.986 -4.268,7.858 -7.331,11.157 -2.959,3.186 -2.416,14.02 1.291,15.665 3.239,1.437 4.87,-2.327 7.154,-4.359 3.993,3.915 2.275,9.422 3.97,13.918 1.028,2.727 1.387,6.104 4.721,6.241 3.515,0.144 4.725,-3.621 6.216,-6.063 2.04,-3.341 -0.948,-4.345 -3.425,-5.446 -0.971,-0.431 -2.491,-1.93 -2.34,-2.233 2.334,-4.67 -0.044,-9.001 -0.657,-13.459 -0.194,-1.417 0.251,-3.082 2.065,-3.158 1.871,-0.078 1.867,1.618 2.267,2.999 1.632,5.635 2.921,11.399 11.326,9.54 3.43,-0.759 4.962,-2.276 3.927,-5.116 C 13.924,5.299 14.53,-1.958 9.506,-7.394 8.323,-8.673 8.029,-9.975 5.898,-9.405 0.506,-7.964 0.64,-11.699 0.845,-15.183 c 0.362,-6.136 6.552,-7.614 9.798,-11.418 1.454,-1.704 3.779,2.071 3.782,3.73 0.012,7.609 2.615,12.311 11.013,12.558 2.988,0.088 2.105,3.174 2.66,5.074 0.419,1.432 1.196,2.9 2.896,2.283 1.2,-0.436 1.434,-2.378 0.693,-3.071 -3.181,-2.979 -0.283,-9.911 -7.47,-10.539 -3.1,-0.271 -2.022,-3.353 -0.031,-4.646 2.093,-1.359 4.61,-2.068 7.855,-3.45" style="fill:#494f57;fill-opacity:1;fill-rule:nonzero;stroke:none" transform="matrix(1.3333333,0,0,-1.3333333,2702.7181,304.61147)" />
      <path id="path995" d="M 0,0 V 0.626 C -0.379,0.569 -0.765,0.532 -1.13,0.426 -1.175,0.412 -1.11,0.022 -1.095,-0.194 -0.726,-0.13 -0.357,-0.066 0,0 m 5.388,-17 c -3.593,-1.742 -6.791,-0.205 -10.142,1.091 -7.587,2.932 -7.609,2.826 -2.739,8.944 0.877,1.102 1.639,2.31 2.339,3.535 1.132,1.981 -4.537,4.113 0.308,6.259 4.741,2.099 10.735,5.498 14.421,3.294 4.947,-2.959 7.795,-0.243 11.136,0.979 2.4,0.879 5.111,2.632 7.245,2.314 4.967,-0.74 6.334,0.994 5.953,5.512 -0.154,1.829 0.659,3.471 2.851,3.093 2.11,-0.363 4.836,-1.309 4.796,-3.523 C 41.505,11.637 42.202,8.924 42.227,6.131 42.245,3.977 41.169,3.714 39.033,3.704 31.602,3.672 25.227,0.39 22.862,-6.58 19.8,-15.601 13.722,-17.716 5.388,-17" style="fill:#494f57;fill-opacity:1;fill-rule:nonzero;stroke:none" transform="matrix(1.3333333,0,0,-1.3333333,2607.6127,619.92827)" />
      <path id="path996" d="m 0,0 c -0.119,-3.79 -8.339,-11.856 -12.974,-11.663 -5.314,0.221 -9.742,-3.193 -15.07,-2.49 -2.296,0.303 -5.87,-2.386 -6.573,1.154 -0.622,3.13 1.891,6.986 5.312,7.216 9.077,0.612 10.051,4.35 5.619,11.336 -0.723,1.14 -0.817,2.986 0.678,3.748 1.566,0.799 2.556,-0.665 3.412,-1.753 5.408,-6.88 6.156,-7.02 13.309,-1.815 1.182,0.861 2.495,2.165 3.665,1.035 C -0.723,4.936 -0.237,2.276 0,0" style="fill:#494f57;fill-opacity:1;fill-rule:nonzero;stroke:none" transform="matrix(1.3333333,0,0,-1.3333333,2694.4056,940.93147)" />
      <path id="path997" d="m 0,0 c -7.029,-0.558 -12.929,-1.211 -14.44,7.187 -0.409,2.273 -3.291,2.561 -4.644,4.178 -1.139,1.36 -3.651,2.448 -2.432,4.542 0.858,1.474 2.815,2.581 4.519,3.22 2.108,0.792 3.559,-0.546 4.359,-2.554 0.348,-0.874 0.788,-2.47 1.161,-2.463 7.826,0.149 9.578,-6.97 14.009,-10.98 2.224,-2.013 4.026,-3.102 2.777,-5.967 -1.461,-3.354 1.022,-5.315 2.224,-7.75 1.084,-2.197 2.073,-4.546 0.237,-6.631 -1.615,-1.834 -4.318,-2.904 -6.385,-1.938 -2.246,1.048 -3.887,3.422 -3.521,6.407 C -1.622,-8.552 -5.708,-3.739 0,0" style="fill:#494f57;fill-opacity:1;fill-rule:nonzero;stroke:none" transform="matrix(1.3333333,0,0,-1.3333333,2707.2677,1034.9471)" />
      <path id="path998" d="m 0,0 c -5.063,-5.017 -11.412,-4.373 -17.169,-4.366 -4.114,0.006 -3.399,4.679 -3.287,7.454 0.151,3.757 3.032,1.677 4.802,1.381 7.539,-1.257 8.68,0.451 6.03,9.378 2.882,0.124 7.142,3.256 6.143,-3.777 C -3.753,8.153 -0.976,6.771 1.954,6.928 5.626,7.125 9.803,6.358 11.44,2.583 13.997,-3.318 11.568,-7.93 5.389,-8.645 -1.028,-9.387 2.311,-3.074 0,0" style="fill:#494f57;fill-opacity:1;fill-rule:nonzero;stroke:none" transform="matrix(1.3333333,0,0,-1.3333333,2628.4136,594.61827)" />
      <path id="path999" d="m 0,0 c -1.323,0.062 -2.6,0.851 -1.959,1.511 2.236,2.306 -4.328,2.825 -0.943,4.636 4.05,2.167 0.784,3.474 -0.087,5.332 -2.196,4.688 -3.754,9.292 -0.684,14.521 1.565,2.665 3.531,3.586 6.097,3.959 C 3.71,30.145 5.019,28.988 4.776,27.892 4.252,25.536 3.24,23.267 2.238,21.049 1.849,20.187 -0.956,20.083 -0.036,19.681 7.937,16.194 1.109,9.632 3.32,5.207 5.527,0.789 0.24,2.183 0,0" style="fill:#494f57;fill-opacity:1;fill-rule:nonzero;stroke:none" transform="matrix(1.3333333,0,0,-1.3333333,2713.8432,964.30613)" />
      <path id="path1000" d="M 0,0 C 2.561,-0.788 7.213,1.409 6.974,-4.137 6.8,-8.176 5.141,-11.511 0.206,-11.512 c -4.712,-0.002 -7.1,3.2 -7.511,7.045 C -7.856,0.686 -3.297,-0.49 0,0" style="fill:#494f57;fill-opacity:1;fill-rule:nonzero;stroke:none" transform="matrix(1.3333333,0,0,-1.3333333,2759.8692,932.68733)" />
      <path id="path1001" d="m 0,0 c -1.647,0.181 -2.462,1.301 -2.839,2.738 -0.781,2.974 -0.131,5.777 2.075,7.817 2.488,2.301 5.747,3.139 9.103,3.096 C 8.931,13.644 9.836,12.52 10.032,11.765 10.75,9.003 2.824,-0.169 0,0" style="fill:#494f57;fill-opacity:1;fill-rule:nonzero;stroke:none" transform="matrix(1.3333333,0,0,-1.3333333,2618.4765,388.27387)" />
      <path id="path1002" d="m 0,0 c 2.481,-0.647 7.053,1.671 6.827,-3.351 -0.15,-3.314 -2.592,-6.275 -6.559,-5.764 -3.289,0.424 -6.342,1.53 -6.15,6.154 C -5.679,1.933 -2.892,0.761 0,0" style="fill:#494f57;fill-opacity:1;fill-rule:nonzero;stroke:none" transform="matrix(1.3333333,0,0,-1.3333333,2728.5699,989.79933)" />
      <path id="path1003" d="m 0,0 c -5.015,-1.038 -5.94,2.403 -6.194,5.819 -0.314,4.23 3.866,3.221 5.679,3.263 C 3.024,9.165 6.062,6.223 6.136,3.018 6.206,0.021 2.348,0.336 0,0" style="fill:#494f57;fill-opacity:1;fill-rule:nonzero;stroke:none" transform="matrix(1.3333333,0,0,-1.3333333,2620.4528,293.88947)" />
      <path id="path1004" d="M 0,0 C -3.943,1.302 -4.832,4.819 -5.102,8.335 -5.233,10.043 -4.137,12.64 -1.75,11.77 1.883,10.445 3.337,7.007 3.706,3.371 3.932,1.147 2.44,-0.032 0,0" style="fill:#494f57;fill-opacity:1;fill-rule:nonzero;stroke:none" transform="matrix(1.3333333,0,0,-1.3333333,2613.0435,1142.8999)" />
      <path id="path1005" d="m 0,0 c -0.806,-3.808 -3.631,-3.673 -5.659,-4.167 -3.907,-0.952 -6.344,1.67 -7.56,4.8 -0.927,2.387 1.493,3.024 3.406,3.278 C -5.623,4.467 -3.317,1.044 0,0" style="fill:#494f57;fill-opacity:1;fill-rule:nonzero;stroke:none" transform="matrix(1.3333333,0,0,-1.3333333,2658.1027,983.75507)" />
      <path id="path1006" d="m 0,0 c -0.663,-2.714 -2.538,-4.743 -5.054,-5.125 -2.68,-0.406 -3.232,2.179 -3.327,4.332 -0.132,3.009 1.287,4.958 4.459,4.99 C -1.282,4.224 -0.568,2.166 0,0" style="fill:#494f57;fill-opacity:1;fill-rule:nonzero;stroke:none" transform="matrix(1.3333333,0,0,-1.3333333,2669.3371,563.04373)" />
      <path id="path1007" d="m 0,0 c 1.992,0.011 3.521,-0.876 3.101,-2.872 -0.45,-2.14 -0.607,-5.021 -3.758,-5.215 -2.568,-0.158 -3.868,1.493 -4.066,3.92 C -5.003,-0.718 -1.897,-1.003 0,0" style="fill:#494f57;fill-opacity:1;fill-rule:nonzero;stroke:none" transform="matrix(1.3333333,0,0,-1.3333333,2742.7165,281.26867)" />
      <path id="path1008" d="M 0,0 C 2.313,-0.331 3.84,-1.727 4.24,-3.953 4.684,-6.417 2.687,-7.29 0.828,-7.481 -1.569,-7.727 -3.294,-6.239 -3.482,-3.893 -3.653,-1.776 -1.883,-0.724 0,0" style="fill:#494f57;fill-opacity:1;fill-rule:nonzero;stroke:none" transform="matrix(1.3333333,0,0,-1.3333333,2635.2613,1132.6219)" />
      <path id="path1009" d="M 0,0 C -3.009,3.544 -6.102,7.21 2.511,9.446 0.568,5.843 0.005,2.968 0,0" style="fill:#494f57;fill-opacity:1;fill-rule:nonzero;stroke:none" transform="matrix(1.3333333,0,0,-1.3333333,2472.4351,325.17947)" />
      <path id="path1010" d="M 0,0 C 0.014,-1.973 -0.904,-3.233 -2.753,-3.436 -5.186,-3.703 -5.905,-1.8 -6.212,0.035 -6.474,1.602 -5.407,2.677 -3.878,2.902 -1.661,3.228 -0.465,1.992 0,0" style="fill:#494f57;fill-opacity:1;fill-rule:nonzero;stroke:none" transform="matrix(1.3333333,0,0,-1.3333333,2743.3711,933.43147)" />
      <path id="path1011" d="M 0,0 C 1.334,-0.271 1.931,-1.13 1.897,-2.44 1.854,-4.105 0.948,-4.97 -0.693,-4.964 -2.378,-4.958 -3.331,-4.085 -2.979,-2.371 -2.67,-0.863 -1.553,-0.083 0,0" style="fill:#494f57;fill-opacity:1;fill-rule:nonzero;stroke:none" transform="matrix(1.3333333,0,0,-1.3333333,2492.3928,294.46533)" />
      <path id="path1109" d="m 0,0 c -3.13,-2.35 -5.899,-6.355 -10.142,-2.638 -0.705,0.618 -1.611,1.725 -0.871,2.308 C -7.538,2.407 -3.774,0.446 0,0" style="fill:#08282e;fill-opacity:1;fill-rule:nonzero;stroke:none" transform="matrix(1.3333333,0,0,-1.3333333,2702.7181,304.61147)" />
      </g></svg>