<?xml version='1.0' encoding='utf-8'?>
<svg xmlns="http://www.w3.org/2000/svg" version="1.1" width="412.489" height="101.237" viewBox="1937.130 3680.100 412.489 101.237"><g id="object"><path id="path5" d="m 7.0434094,-0.18880781 c 4.0781246,0.46875 8.8945316,0.73828125 14.6367186,0.73828125 12.128906,0 21.761719,-3.14062504 27.597656,-8.97656254 5.835938,-5.7421879 8.988282,-14.0859379 8.988282,-24.2695309 0,-10.101563 -3.234375,-17.332032 -8.800782,-22.417969 -5.460937,-5.097656 -13.710937,-7.78125 -25.289062,-7.78125 -6.386719,0 -12.222656,0.550781 -17.1328126,1.289062 z M 15.105909,-55.677089 c 2.121094,-0.457031 5.273438,-0.832031 9.445313,-0.832031 17.039062,0 25.382812,9.351562 25.289062,24.082031 0,16.863281 -9.363281,26.4960937 -26.589843,26.4960937 -3.152344,0 -6.117188,-0.09375 -8.144532,-0.4570313 z m 50.203125,53.5429687 c 3.152344,1.85156249 7.6875,3.05859374 12.597657,3.05859374 10.652343,0 16.769531,-5.55468754 16.769531,-13.42968744 0,-6.667969 -3.984375,-10.558594 -11.765625,-13.523438 -5.835938,-2.226562 -8.519531,-3.890625 -8.519531,-7.605468 0,-3.328125 2.683593,-6.105469 7.5,-6.105469 4.171875,0 7.417968,1.476562 9.175781,2.589844 l 2.039062,-5.929688 c -2.507812,-1.476562 -6.492187,-2.777344 -11.027343,-2.777344 -9.632813,0 -15.46875,5.929688 -15.46875,13.160157 0,5.367187 3.796875,9.808593 11.859375,12.691406 6.023437,2.214844 8.332031,4.347656 8.332031,8.238281 0,3.7031252 -2.777344,6.6679689 -8.707031,6.6679689 -4.078125,0 -8.332032,-1.6640625 -10.746094,-3.234375 z m 54.943356,2.13281249 h 7.875 V -60.212245 h -6.94921 l -13.16016,7.042968 1.58203,6.199219 10.46484,-5.648437 h 0.1875 z M 151.19282,-60.212245 v 6.761718 h 29.44922 v 0.1875 l -26.12109,53.26171919 h 8.4375 L 189.17329,-54.845058 v -5.367187 z M 203.7104,1.0182234 c 3.4336,0 5.56641,-2.4960937 5.56641,-5.8359375 0,-3.4335937 -2.22656,-5.8359379 -5.47266,-5.8359379 -3.23437,0 -5.55469,2.4023442 -5.55469,5.8359379 0,3.3398438 2.22657,5.8359375 5.46094,5.8359375 z m 33.16992,-62.2500004 c -12.22265,0 -20.92968,11.109375 -20.92968,31.3125 0.17578,19.910157 8.14453,30.9375004 19.91015,30.9375004 13.33594,0 20.94141,-11.2968754 20.94141,-31.7695314 0,-19.183594 -7.23047,-30.480469 -19.92188,-30.480469 z m -0.45703,6.292969 c 8.42578,0 12.22266,9.726563 12.22266,24.550781 0,15.375 -3.98438,25.1015629 -12.31641,25.1015629 -7.41797,0 -12.23437,-8.8828129 -12.23437,-24.5390629 0,-16.40625 5.1914,-25.113281 12.32812,-25.113281 z m 32.60449,55.86328144 c 1.94532,0.09375 4.53516,0 7.5,-0.45703125 6.49219,-0.75 12.87891,-3.52734379 17.50782,-8.06249999 5.92968,-5.7421872 10.38281,-15.0117192 10.38281,-28.2539062 0,-15.375 -7.60547,-25.382813 -19.92188,-25.382813 -12.3164,0 -20.5664,10.007813 -20.5664,21.398438 0,10.277344 6.94922,18.433594 17.78906,18.433594 6.02344,0 10.83984,-2.414063 14.16797,-6.480469 h 0.28125 c -1.11328,7.125 -3.98438,12.410156 -7.96875,16.019531 -3.42188,3.2460939 -7.875,5.1914064 -12.59766,5.8359377 -2.77734,0.28125 -4.8164,0.46875 -6.57422,0.28125 z M 283.852,-55.032558 c 8.51953,0 12.31641,7.875 12.31641,18.164063 0,1.289062 -0.28125,2.226562 -0.73828,2.964843 -2.13281,3.609375 -6.39844,6.292969 -11.85938,6.292969 -7.04297,0 -11.57812,-5.273437 -11.57812,-12.785156 0,-8.519531 4.91015,-14.636719 11.85937,-14.636719 z m 0,0" style="fill:#d22824;fill-opacity:1;fill-rule:nonzero;stroke:none" aria-label="Ds17.09" transform="matrix(1.3333333,0,0,1.3333333,1935.7416,3771.9744)" />
      <path id="path6" d="m 0,0 c 4.076,-0.464 8.894,-0.741 14.637,-0.741 12.136,0 21.771,3.149 27.607,8.986 5.837,5.743 8.986,14.081 8.986,24.272 0,10.097 -3.242,17.323 -8.8,22.419 C 36.964,60.03 28.719,62.718 17.139,62.718 10.747,62.718 4.91,62.161 0,61.42 Z m 8.06,55.491 c 2.13,0.463 5.28,0.834 9.449,0.834 17.046,0 25.384,-9.356 25.291,-24.087 0,-16.86 -9.357,-26.495 -26.588,-26.495 -3.149,0 -6.114,0.093 -8.152,0.464 z" style="fill:none;stroke:#d22824;stroke-width:3;stroke-linecap:butt;stroke-linejoin:miter;stroke-miterlimit:10;stroke-dasharray:none;stroke-opacity:1" transform="matrix(1.3333333,0,0,-1.3333333,1945.1289,3771.7271)" />
      <path id="path7" d="m 0,0 c 3.15,-1.853 7.689,-3.058 12.599,-3.058 10.654,0 16.768,5.559 16.768,13.434 0,6.67 -3.983,10.561 -11.765,13.525 -5.836,2.223 -8.523,3.891 -8.523,7.597 0,3.335 2.687,6.114 7.504,6.114 4.168,0 7.411,-1.482 9.171,-2.594 l 2.038,5.929 c -2.501,1.483 -6.484,2.78 -11.024,2.78 -9.635,0 -15.471,-5.93 -15.471,-13.156 0,-5.373 3.798,-9.82 11.858,-12.691 6.022,-2.224 8.338,-4.355 8.338,-8.245 0,-3.706 -2.78,-6.67 -8.708,-6.67 -4.077,0 -8.338,1.667 -10.747,3.242 z" style="fill:none;stroke:#d22824;stroke-width:3;stroke-linecap:butt;stroke-linejoin:miter;stroke-miterlimit:10;stroke-dasharray:none;stroke-opacity:1" transform="matrix(1.3333333,0,0,-1.3333333,2022.8216,3769.1333)" />
      <path id="path8" d="M 0,0 H 7.875 V 60.216 H 0.926 l -13.155,-7.04 1.575,-6.207 10.468,5.651 H 0 Z" style="fill:none;stroke:#d22824;stroke-width:3;stroke-linecap:butt;stroke-linejoin:miter;stroke-miterlimit:10;stroke-dasharray:none;stroke-opacity:1" transform="matrix(1.3333333,0,0,-1.3333333,2096.0691,3771.9744)" />
      <path id="path9" d="M 0,0 V -6.763 H 29.46 V -6.947 L 3.335,-60.216 h 8.431 L 37.983,-5.373 V 0 Z" style="fill:none;stroke:#d22824;stroke-width:3;stroke-linecap:butt;stroke-linejoin:miter;stroke-miterlimit:10;stroke-dasharray:none;stroke-opacity:1" transform="matrix(1.3333333,0,0,-1.3333333,2137.3229,3691.6867)" />
      <path id="path10" d="m 0,0 c 3.428,0 5.558,2.502 5.558,5.837 0,3.428 -2.223,5.836 -5.466,5.836 -3.242,0 -5.558,-2.408 -5.558,-5.836 C -5.466,2.502 -3.243,0 0,0 Z" style="fill:none;stroke:#d22824;stroke-width:3;stroke-linecap:butt;stroke-linejoin:miter;stroke-miterlimit:10;stroke-dasharray:none;stroke-opacity:1" transform="matrix(1.3333333,0,0,-1.3333333,2207.3575,3773.3339)" />
      <path id="path11" d="m 0,0 c -12.229,0 -20.937,-11.117 -20.937,-31.312 0.186,-19.918 8.152,-30.943 19.918,-30.943 13.34,0 20.936,11.303 20.936,31.776 C 19.917,-11.302 12.691,0 0,0 Z m -0.463,-6.3 c 8.43,0 12.228,-9.726 12.228,-24.55 0,-15.378 -3.983,-25.105 -12.321,-25.105 -7.411,0 -12.229,8.893 -12.229,24.55 0,16.397 5.188,25.105 12.322,25.105 z" style="fill:none;stroke:#d22824;stroke-width:3;stroke-linecap:butt;stroke-linejoin:miter;stroke-miterlimit:10;stroke-dasharray:none;stroke-opacity:1" transform="matrix(1.3333333,0,0,-1.3333333,2251.5761,3690.3273)" />
      <path id="path12" d="m 0,0 c 1.945,-0.093 4.54,0 7.504,0.464 6.485,0.741 12.877,3.52 17.509,8.059 5.929,5.744 10.376,15.008 10.376,28.255 0,15.379 -7.597,25.384 -19.918,25.384 -12.321,0 -20.566,-10.005 -20.566,-21.4 0,-10.283 6.948,-18.435 17.787,-18.435 6.021,0 10.839,2.408 14.174,6.485 h 0.278 C 26.032,21.678 23.16,16.397 19.176,12.785 15.749,9.542 11.302,7.597 6.578,6.948 3.798,6.671 1.76,6.485 0,6.671 Z m 14.822,55.955 c 8.523,0 12.322,-7.874 12.322,-18.157 0,-1.297 -0.278,-2.224 -0.742,-2.965 -2.13,-3.613 -6.392,-6.3 -11.858,-6.3 -7.04,0 -11.58,5.281 -11.58,12.785 0,8.523 4.911,14.637 11.858,14.637 z" style="fill:none;stroke:#d22824;stroke-width:3;stroke-linecap:butt;stroke-linejoin:miter;stroke-miterlimit:10;stroke-dasharray:none;stroke-opacity:1" transform="matrix(1.3333333,0,0,-1.3333333,2294.4356,3773.2101)" />
      </g></svg>