<?xml version='1.0' encoding='utf-8'?>
<svg xmlns="http://www.w3.org/2000/svg" version="1.1" width="515.026" height="194.577" viewBox="1720.490 291.199 515.026 194.577"><g id="object"><path id="path4" d="m 14.087147,-0.37442031 c 8.15625,0.92578125 17.789062,1.48828121 29.273437,1.48828121 24.28125,0 43.546875,-6.3046875 55.230469,-17.9765629 11.671877,-11.484375 17.964847,-28.171875 17.964847,-48.550781 0,-20.203125 -6.48047,-34.652347 -17.601566,-44.847657 -10.933593,-10.18359 -27.421875,-15.5625 -50.589843,-15.5625 -12.785157,0 -24.457032,1.11328 -34.277344,2.58984 z m 16.125,-110.99999969 c 4.253906,-0.92578 10.558594,-1.66406 18.890625,-1.66406 34.101562,0 50.777344,18.714841 50.589844,48.175778 0,33.726563 -18.714844,53.003907 -53.179688,53.003907 -6.304687,0 -12.234375,-0.1875 -16.300781,-0.925782 z M 182.70824,5.796875e-4 227.3684,-124.89786 h -17.23828 l -21.11719,61.71094 c -5.56641,16.300781 -10.7461,32.050781 -14.27344,46.511718 h -0.36328 c -3.33984,-14.636718 -7.96875,-29.835937 -13.34766,-46.699218 l -19.45312,-61.52344 H 124.14965 L 164.91918,5.796875e-4 Z m 129.3457,0 V -13.522858 h -54.10547 v -0.375 l 9.63282,-8.894531 c 25.38281,-24.457031 41.50781,-42.433594 41.50781,-64.675781 0,-17.22656 -10.93359,-35.01563 -36.87891,-35.01563 -13.89843,0 -25.75781,5.17969 -34.08984,12.22266 l 5.17969,11.496095 c 5.5664,-4.640625 14.64843,-10.195315 25.58203,-10.195315 17.96484,0 23.89453,11.308596 23.89453,23.531252 -0.17578,18.164063 -14.07422,33.726563 -44.83594,63.011719 l -12.78515,12.410156 V 5.796875e-4 Z m 53.55469,0 h 15.75 V -120.44473 h -13.89844 l -26.30859,14.07422 3.14062,12.421871 20.94141,-11.308591 h 0.375 z m 0,0" style="fill:#848078;fill-opacity:1;fill-rule:nonzero;stroke:none" aria-label="DV21" transform="matrix(1.3333333,0,0,1.3333333,1714.3812,471.62813)" />
      <path id="path5" d="m 0,0 c 8.153,-0.927 17.79,-1.482 29.278,-1.482 24.275,0 43.547,6.3 55.221,17.974 11.674,11.489 17.975,28.166 17.975,48.55 0,20.198 -6.486,34.652 -17.604,44.843 -10.933,10.192 -27.426,15.566 -50.589,15.566 -12.785,0 -24.46,-1.112 -34.281,-2.594 z m 16.122,110.997 c 4.262,0.927 10.562,1.668 18.9,1.668 34.097,0 50.774,-18.716 50.589,-48.179 0,-33.725 -18.716,-52.997 -53.183,-52.997 -6.3,0 -12.23,0.185 -16.306,0.927 z" style="fill:none;stroke:#848078;stroke-width:10;stroke-linecap:butt;stroke-linejoin:miter;stroke-miterlimit:10;stroke-dasharray:none;stroke-opacity:1" transform="matrix(1.3333333,0,0,-1.3333333,1733.1585,471.13387)" />
      <path id="path6" d="M 0,0 44.658,124.895 H 27.425 L 6.3,63.189 C 0.741,46.882 -4.447,31.131 -7.968,16.677 h -0.371 c -3.335,14.639 -7.968,29.834 -13.342,46.697 l -19.457,61.521 H -58.556 L -17.789,0 Z" style="fill:none;stroke:#848078;stroke-width:10;stroke-linecap:butt;stroke-linejoin:miter;stroke-miterlimit:10;stroke-dasharray:none;stroke-opacity:1" transform="matrix(1.3333333,0,0,-1.3333333,1957.9905,471.62813)" />
      <path id="path7" d="m 0,0 v 13.527 h -54.108 v 0.371 l 9.635,8.894 c 25.387,24.46 41.508,42.435 41.508,64.672 0,17.233 -10.932,35.022 -36.875,35.022 -13.898,0 -25.758,-5.188 -34.096,-12.23 l 5.188,-11.489 c 5.56,4.633 14.64,10.192 25.572,10.192 17.975,0 23.905,-11.304 23.905,-23.534 C -19.457,67.266 -33.354,51.7 -64.115,22.422 L -76.901,10.006 V 0 Z" style="fill:none;stroke:#848078;stroke-width:10;stroke-linecap:butt;stroke-linejoin:miter;stroke-miterlimit:10;stroke-dasharray:none;stroke-opacity:1" transform="matrix(1.3333333,0,0,-1.3333333,2130.4469,471.62813)" />
      <path id="path8" d="M 0,0 H 15.751 V 120.448 H 1.853 l -26.313,-14.083 3.15,-12.416 20.939,11.304 H 0 Z" style="fill:none;stroke:#848078;stroke-width:10;stroke-linecap:butt;stroke-linejoin:miter;stroke-miterlimit:10;stroke-dasharray:none;stroke-opacity:1" transform="matrix(1.3333333,0,0,-1.3333333,2201.8473,471.62813)" />
      </g></svg>