<?xml version='1.0' encoding='utf-8'?>
<svg xmlns="http://www.w3.org/2000/svg" version="1.1" width="212.950" height="69.920" viewBox="1497.080 2152.270 212.950 69.920"><defs id="defs1"><clipPath clipPathUnits="userSpaceOnUse" id="clipPath4">
      <path d="M -1894.0401,2218.9927 H 489.89999 V -1151.3974 H -1894.0401 Z" id="path4" />
    </clipPath>
  </defs><g id="object"><path id="path16" d="M 25.442827,-12.714189 29.767045,6.546875e-4 H 35.34517 L 21.540483,-40.440752 H 15.235795 L 1.5014203,6.546875e-4 H 6.9037641 L 11.099077,-12.714189 Z m -13.265625,-4.089844 3.960937,-11.695312 c 0.785156,-2.460938 1.441406,-4.921875 2.039063,-7.324219 h 0.128906 c 0.597656,2.34375 1.195312,4.746094 2.097656,7.382812 l 3.960938,11.636719 z M 53.998491,6.546875e-4 h 22.5 V -4.3821578 H 59.225053 V -40.440752 H 53.998491 Z M 82.31978,-40.440752 V 6.546875e-4 h 5.226562 V -40.440752 Z M 96.65767,6.546875e-4 h 5.22656 V -18.304033 h 15.29297 v -4.3125 h -15.29297 v -13.441406 h 16.5586 v -4.382813 H 96.65767 Z M 146.81978,-23.284502 h -15.71484 v -12.773437 h 16.61718 v -4.382813 H 125.87837 V 6.546875e-4 h 22.7461 V -4.3821578 H 131.10494 V -18.960283 h 15.71484 z m 0,0" style="fill:#231916;fill-opacity:1;fill-rule:nonzero;stroke:none" aria-label="A LIFE" transform="matrix(1.3333333,0,0,1.3333333,1503.8692,2214.1905)" />
      <path id="path17" d="M 0,0 4.32,-12.72 H 9.9 L -3.9,27.72 h -6.3 l -13.74,-40.44 h 5.4 L -14.34,0 Z m -13.26,4.08 3.96,11.7 c 0.78,2.46 1.44,4.92 2.04,7.32 h 0.12 c 0.6,-2.34 1.2,-4.74 2.1,-7.38 L -1.08,4.08 Z" style="fill:none;stroke:#231916;stroke-width:3;stroke-linecap:butt;stroke-linejoin:miter;stroke-miterlimit:10;stroke-dasharray:none;stroke-opacity:1" transform="matrix(1.3333333,0,0,-1.3333333,1537.7891,2197.2303)" />
      <path id="path18" d="M 0,0 H 22.5 V 4.38 H 5.22 v 36.06 l -5.22,0 z" style="fill:none;stroke:#231916;stroke-width:3;stroke-linecap:butt;stroke-linejoin:miter;stroke-miterlimit:10;stroke-dasharray:none;stroke-opacity:1" transform="matrix(1.3333333,0,0,-1.3333333,1575.8685,2214.1905)" />
      <path id="path19" d="M 0,0 V -40.44 H 5.22 V 0 Z" style="fill:none;stroke:#231916;stroke-width:3;stroke-linecap:butt;stroke-linejoin:miter;stroke-miterlimit:10;stroke-dasharray:none;stroke-opacity:1" transform="matrix(1.3333333,0,0,-1.3333333,1613.6269,2160.2707)" />
      <path id="path20" d="m 0,0 h 5.22 v 18.3 h 15.3 v 4.32 H 5.22 v 13.44 h 16.56 v 4.38 L 0,40.44 Z" style="fill:none;stroke:#231916;stroke-width:3;stroke-linecap:butt;stroke-linejoin:miter;stroke-miterlimit:10;stroke-dasharray:none;stroke-opacity:1" transform="matrix(1.3333333,0,0,-1.3333333,1632.7468,2214.1905)" />
      <path id="path21" d="M 0,0 H -15.72 V 12.78 H 0.9 v 4.38 H -20.94 V -23.28 H 1.8 v 4.38 h -17.52 v 14.58 l 15.72,0 z" style="fill:none;stroke:#231916;stroke-width:3;stroke-linecap:butt;stroke-linejoin:miter;stroke-miterlimit:10;stroke-dasharray:none;stroke-opacity:1" transform="matrix(1.3333333,0,0,-1.3333333,1699.6269,2183.1508)" />
      </g></svg>