<?xml version='1.0' encoding='utf-8'?>
<svg xmlns="http://www.w3.org/2000/svg" version="1.1" width="708.219" height="102.253" viewBox="1934.760 3811.310 708.219 102.253"><g id="object"><path id="path13" d="m 61.230909,-3.859375e-4 h 7.875 L 65.215284,-62.437886 H 54.937941 l -11.121094,30.199219 c -2.777344,7.875 -5.003906,14.730469 -6.574219,21.023437 h -0.28125 c -1.570312,-6.480468 -3.703125,-13.335937 -6.292969,-21.023437 L 20.004347,-62.437886 H 9.7270031 L 5.3676281,-3.859375e-4 H 13.066847 L 14.730909,-26.77773 c 0.550782,-9.351562 1.019532,-19.816406 1.207032,-27.597656 h 0.175781 c 1.769531,7.40625 4.265625,15.46875 7.230469,24.269531 l 10.101562,29.73046906 h 6.105469 L 50.578566,-30.668355 c 3.152343,-8.613281 5.742187,-16.394531 7.875,-23.707031 h 0.28125 c -0.09375,7.78125 0.457031,18.246094 0.925781,26.953125 z M 119.04536,-44.836323 h -8.15625 v 27.515625 c 0,1.476562 -0.28125,2.964843 -0.73828,4.160156 -1.48828,3.6210936 -5.28515,7.4179686 -10.746092,7.4179686 -7.417969,0 -10.007813,-5.7421876 -10.007813,-14.2617186 v -24.832031 h -8.15625 v 26.214843 c 0,15.7500003 8.4375,19.6406253 15.46875,19.6406253 7.968755,0 12.691405,-4.7226562 14.824215,-8.3320312 h 0.1875 l 0.46875,7.3124999625 h 7.21875 C 119.12739,-3.5160109 119.04536,-7.5941359 119.04536,-12.223042 Z m 10.3711,42.7031246 c 3.15234,1.85156246 7.6875,3.05859371 12.59765,3.05859371 10.65235,0 16.76953,-5.55468751 16.76953,-13.42968731 0,-6.667969 -3.98437,-10.558594 -11.76562,-13.523438 -5.83594,-2.226562 -8.51953,-3.890625 -8.51953,-7.605468 0,-3.328125 2.68359,-6.105469 7.5,-6.105469 4.17187,0 7.41797,1.476562 9.17578,2.589844 l 2.03906,-5.929688 c -2.50781,-1.476562 -6.49219,-2.777344 -11.02734,-2.777344 -9.63282,0 -15.46875,5.929688 -15.46875,13.160157 0,5.367187 3.79687,9.808593 11.85937,12.691406 6.02344,2.214844 8.33203,4.347656 8.33203,8.238281 0,3.7031251 -2.77734,6.6679688 -8.70703,6.6679688 -4.07812,0 -8.33203,-1.6640625 -10.74609,-3.234375 z M 177.4106,-3.859375e-4 V -44.836323 h -8.15625 V -3.859375e-4 Z M 173.33247,-62.531636 c -2.96484,0 -5.09765,2.226563 -5.09765,5.097656 0,2.777344 2.03906,5.003907 4.91015,5.003907 3.2461,0 5.28516,-2.226563 5.19141,-5.003907 0,-2.871093 -1.94531,-5.097656 -5.00391,-5.097656 z m 48.17285,54.7500001 c -2.32031,1.0195312 -5.3789,2.2265625 -10.00781,2.2265625 -8.89453,0 -15.5625,-6.3984376 -15.5625,-16.7695316 0,-9.363281 5.55469,-16.957031 15.84375,-16.957031 4.44141,0 7.5,1.019531 9.44531,2.132813 l 1.85157,-6.292969 c -2.22657,-1.113281 -6.48047,-2.320313 -11.29688,-2.320313 -14.63672,0 -24.09375,10.007813 -24.09375,23.8125 0,13.6992191 8.80078,22.87500031 22.32422,22.87500031 6.02344,0 10.74609,-1.4765625 12.87891,-2.58984371 z m 43.16602,7.7812499625 C 264.12056,-3.0589797 263.93306,-6.8558547 263.93306,-10.74648 v -16.769531 c 0,-8.988281 -3.33985,-18.339844 -17.05078,-18.339844 -5.64844,0 -11.01563,1.570313 -14.73047,3.984375 l 1.85156,5.367188 c 3.15234,-2.027344 7.51172,-3.328125 11.67188,-3.328125 9.17578,0 10.19531,6.667969 10.19531,10.371094 v 0.925781 c -17.32031,-0.09375 -26.95313,5.835937 -26.95313,16.675781 0,6.4921876 4.62891,12.8789063 13.71094,12.8789063 6.38672,0 11.20313,-3.1523437 13.71094,-6.6679687 h 0.26953 l 0.65625,5.6484374625 z M 256.05806,-15.105855 c 0,0.84375 -0.1875,1.769532 -0.46875,2.601563 -1.28906,3.7968748 -5.00391,7.4999998 -10.83985,7.4999998 -4.16015,0 -7.6875,-2.4960937 -7.6875,-7.7812498 0,-8.707031 10.10157,-10.277344 18.9961,-10.101563 z M 299.97407,-3.859375e-4 322.29829,-62.437886 h -8.61328 l -10.57031,30.84375 c -2.77735,8.15625 -5.36719,16.03125 -7.125,23.2617188 h -0.1875 c -1.66406,-7.3242188 -3.98438,-14.9179688 -6.66797,-23.3554688 l -9.72656,-30.75 h -8.70703 l 20.3789,62.4375000625 z m 35.49024,0 V -44.836323 h -8.15625 V -3.859375e-4 Z M 331.38618,-62.531636 c -2.96484,0 -5.09765,2.226563 -5.09765,5.097656 0,2.777344 2.03906,5.003907 4.91015,5.003907 3.2461,0 5.28516,-2.226563 5.19141,-5.003907 0,-2.871093 -1.94531,-5.097656 -5.00391,-5.097656 z m 12.04395,17.695313 17.03906,44.8359370625 h 7.78125 L 385.852,-44.836323 h -8.51953 l -8.70703,25.195312 c -1.48828,4.078125 -2.77734,7.78125 -3.79687,11.4843751 h -0.28125 c -0.92579,-3.7031251 -2.13282,-7.4062501 -3.60938,-11.4843751 l -8.80078,-25.195312 z M 425.40278,-3.859375e-4 C 424.852,-3.0589797 424.6645,-6.8558547 424.6645,-10.74648 v -16.769531 c 0,-8.988281 -3.33984,-18.339844 -17.05078,-18.339844 -5.64844,0 -11.01562,1.570313 -14.73047,3.984375 l 1.85157,5.367188 c 3.15234,-2.027344 7.51171,-3.328125 11.67187,-3.328125 9.17578,0 10.19531,6.667969 10.19531,10.371094 v 0.925781 c -17.32031,-0.09375 -26.95312,5.835937 -26.95312,16.675781 0,6.4921876 4.6289,12.8789063 13.71094,12.8789063 6.38671,0 11.20312,-3.1523437 13.71093,-6.6679687 h 0.26953 l 0.65625,5.6484374625 z M 416.7895,-15.105855 c 0,0.84375 -0.1875,1.769532 -0.46875,2.601563 -1.28906,3.7968748 -5.0039,7.4999998 -10.83984,7.4999998 -4.16016,0 -7.6875,-2.4960937 -7.6875,-7.7812498 0,-8.707031 10.10156,-10.277344 18.99609,-10.101563 z m 19.83106,-47.519531 c -1.01953,6.667969 -3.42188,16.3125 -5.46094,21.773438 l 5.17969,-0.644532 c 2.60156,-4.265625 6.58594,-14.179687 8.71875,-21.960937 z M 469.0522,-3.859375e-4 h 7.875 V -60.211323 h -6.94922 l -13.16016,7.042968 1.58203,6.199219 10.46485,-5.648437 h 0.1875 z m 47.52539,0 h 7.875 V -60.211323 h -6.94922 l -13.16016,7.042968 1.58204,6.199219 10.46484,-5.648437 h 0.1875 z m 0,0" style="fill:#d22824;fill-opacity:1;fill-rule:nonzero;stroke:none" aria-label="MusicaViva’11" transform="matrix(1.3333333,0,0,1.3333333,1935.7416,3904.1997)" />
      <path id="path14" d="M 0,0 H 7.875 L 3.983,62.439 H -6.299 l -11.118,-30.2 c -2.779,-7.875 -5.002,-14.73 -6.577,-21.029 h -0.278 c -1.575,6.484 -3.706,13.34 -6.299,21.029 l -10.654,30.2 H -51.508 L -55.862,0 h 7.689 l 1.668,26.773 c 0.555,9.357 1.019,19.826 1.204,27.607 h 0.185 c 1.76,-7.411 4.262,-15.471 7.226,-24.272 L -27.792,0.37 h 6.114 l 11.024,30.294 c 3.15,8.615 5.744,16.398 7.875,23.716 h 0.278 c -0.093,-7.781 0.463,-18.25 0.926,-26.958 z" style="fill:none;stroke:#d22824;stroke-width:3;stroke-linecap:butt;stroke-linejoin:miter;stroke-miterlimit:10;stroke-dasharray:none;stroke-opacity:1" transform="matrix(1.3333333,0,0,-1.3333333,2017.3887,3904.1997)" />
      <path id="path15" d="m 0,0 h -8.152 v -27.514 c 0,-1.482 -0.278,-2.965 -0.742,-4.169 -1.482,-3.613 -5.28,-7.411 -10.746,-7.411 -7.411,0 -10.005,5.743 -10.005,14.267 V 0 h -8.152 v -26.217 c 0,-15.749 8.43,-19.64 15.47,-19.64 7.968,0 12.692,4.725 14.823,8.337 h 0.185 l 0.464,-7.318 H 0.371 C 0.093,-41.317 0,-37.241 0,-32.609 Z" style="fill:none;stroke:#d22824;stroke-width:3;stroke-linecap:butt;stroke-linejoin:miter;stroke-miterlimit:10;stroke-dasharray:none;stroke-opacity:1" transform="matrix(1.3333333,0,0,-1.3333333,2094.4629,3844.4159)" />
      <path id="path16" d="m 0,0 c 3.15,-1.853 7.689,-3.058 12.599,-3.058 10.654,0 16.768,5.559 16.768,13.434 0,6.67 -3.983,10.561 -11.765,13.525 -5.836,2.223 -8.523,3.891 -8.523,7.597 0,3.335 2.687,6.114 7.504,6.114 4.168,0 7.411,-1.482 9.171,-2.594 l 2.038,5.929 c -2.501,1.483 -6.484,2.78 -11.024,2.78 -9.635,0 -15.471,-5.93 -15.471,-13.156 0,-5.373 3.798,-9.82 11.858,-12.691 6.022,-2.224 8.338,-4.355 8.338,-8.245 0,-3.706 -2.78,-6.67 -8.708,-6.67 -4.077,0 -8.338,1.667 -10.747,3.242 z" style="fill:none;stroke:#d22824;stroke-width:3;stroke-linecap:butt;stroke-linejoin:miter;stroke-miterlimit:10;stroke-dasharray:none;stroke-opacity:1" transform="matrix(1.3333333,0,0,-1.3333333,2108.2963,3901.3585)" />
      <path id="path17" d="M 0,0 V 44.838 H -8.152 V 0 Z m -4.076,62.532 c -2.965,0 -5.095,-2.223 -5.095,-5.094 0,-2.78 2.038,-5.003 4.91,-5.003 3.242,0 5.28,2.223 5.187,5.003 0,2.871 -1.945,5.094 -5.002,5.094 z" style="fill:none;stroke:#d22824;stroke-width:3;stroke-linecap:butt;stroke-linejoin:miter;stroke-miterlimit:10;stroke-dasharray:none;stroke-opacity:1" transform="matrix(1.3333333,0,0,-1.3333333,2172.2793,3904.1997)" />
      <path id="path18" d="m 0,0 c -2.316,-1.02 -5.373,-2.224 -10.005,-2.224 -8.893,0 -15.564,6.392 -15.564,16.768 0,9.356 5.559,16.953 15.842,16.953 4.447,0 7.504,-1.018 9.449,-2.131 l 1.853,6.3 c -2.223,1.112 -6.485,2.316 -11.302,2.316 -14.637,0 -24.086,-10.005 -24.086,-23.808 0,-13.711 8.8,-22.883 22.326,-22.883 6.021,0 10.746,1.482 12.877,2.595 z" style="fill:none;stroke:#d22824;stroke-width:3;stroke-linecap:butt;stroke-linejoin:miter;stroke-miterlimit:10;stroke-dasharray:none;stroke-opacity:1" transform="matrix(1.3333333,0,0,-1.3333333,2231.0743,3893.8233)" />
      <path id="path19" d="m 0,0 c -0.556,3.058 -0.741,6.855 -0.741,10.746 v 16.769 c 0,8.985 -3.335,18.342 -17.046,18.342 -5.651,0 -11.024,-1.575 -14.73,-3.984 l 1.853,-5.373 c 3.15,2.038 7.504,3.335 11.673,3.335 9.171,0 10.19,-6.67 10.19,-10.375 v -0.927 c -17.324,0.093 -26.958,-5.836 -26.958,-16.675 0,-6.485 4.632,-12.878 13.711,-12.878 6.392,0 11.209,3.151 13.711,6.671 H -8.06 L -7.411,0 Z m -8.615,15.101 c 0,-0.834 -0.186,-1.761 -0.464,-2.594 -1.296,-3.799 -5.002,-7.504 -10.838,-7.504 -4.169,0 -7.689,2.501 -7.689,7.781 0,8.708 10.097,10.283 18.991,10.098 z" style="fill:none;stroke:#d22824;stroke-width:3;stroke-linecap:butt;stroke-linejoin:miter;stroke-miterlimit:10;stroke-dasharray:none;stroke-opacity:1" transform="matrix(1.3333333,0,0,-1.3333333,2288.6348,3904.1997)" />
      <path id="path20" d="M 0,0 22.326,62.439 H 13.711 L 3.15,31.591 C 0.371,23.438 -2.224,15.563 -3.983,8.338 h -0.186 c -1.667,7.318 -3.983,14.915 -6.67,23.345 l -9.727,30.756 h -8.708 L -8.894,0 Z" style="fill:none;stroke:#d22824;stroke-width:3;stroke-linecap:butt;stroke-linejoin:miter;stroke-miterlimit:10;stroke-dasharray:none;stroke-opacity:1" transform="matrix(1.3333333,0,0,-1.3333333,2335.6953,3904.1997)" />
      <path id="path21" d="M 0,0 V 44.838 H -8.152 V 0 Z m -4.076,62.532 c -2.965,0 -5.095,-2.223 -5.095,-5.094 0,-2.78 2.038,-5.003 4.91,-5.003 3.242,0 5.28,2.223 5.187,5.003 0,2.871 -1.945,5.094 -5.002,5.094 z" style="fill:none;stroke:#d22824;stroke-width:3;stroke-linecap:butt;stroke-linejoin:miter;stroke-miterlimit:10;stroke-dasharray:none;stroke-opacity:1" transform="matrix(1.3333333,0,0,-1.3333333,2383.0045,3904.1997)" />
      <path id="path22" d="m 0,0 17.046,-44.838 h 7.782 L 42.43,0 h -8.523 l -8.709,-25.198 c -1.482,-4.076 -2.779,-7.781 -3.798,-11.488 h -0.278 c -0.926,3.707 -2.13,7.412 -3.613,11.488 L 8.708,0 Z" style="fill:none;stroke:#d22824;stroke-width:3;stroke-linecap:butt;stroke-linejoin:miter;stroke-miterlimit:10;stroke-dasharray:none;stroke-opacity:1" transform="matrix(1.3333333,0,0,-1.3333333,2393.6263,3844.4159)" />
      <path id="path23" d="m 0,0 c -0.556,3.058 -0.741,6.855 -0.741,10.746 v 16.769 c 0,8.985 -3.335,18.342 -17.046,18.342 -5.651,0 -11.024,-1.575 -14.73,-3.984 l 1.853,-5.373 c 3.15,2.038 7.504,3.335 11.673,3.335 9.171,0 10.19,-6.67 10.19,-10.375 v -0.927 c -17.324,0.093 -26.958,-5.836 -26.958,-16.675 0,-6.485 4.632,-12.878 13.711,-12.878 6.392,0 11.209,3.151 13.711,6.671 H -8.06 L -7.411,0 Z m -8.615,15.101 c 0,-0.834 -0.186,-1.761 -0.464,-2.594 -1.296,-3.799 -5.002,-7.504 -10.838,-7.504 -4.169,0 -7.689,2.501 -7.689,7.781 0,8.708 10.097,10.283 18.991,10.098 z" style="fill:none;stroke:#d22824;stroke-width:3;stroke-linecap:butt;stroke-linejoin:miter;stroke-miterlimit:10;stroke-dasharray:none;stroke-opacity:1" transform="matrix(1.3333333,0,0,-1.3333333,2502.9408,3904.1997)" />
      <path id="path24" d="m 0,0 c -1.019,-6.67 -3.428,-16.305 -5.466,-21.771 l 5.188,0.649 C 2.316,-16.86 6.299,-6.948 8.43,0.834 Z" style="fill:none;stroke:#d22824;stroke-width:3;stroke-linecap:butt;stroke-linejoin:miter;stroke-miterlimit:10;stroke-dasharray:none;stroke-opacity:1" transform="matrix(1.3333333,0,0,-1.3333333,2517.888,3820.6997)" />
      <path id="path25" d="M 0,0 H 7.875 V 60.216 H 0.926 l -13.155,-7.04 1.575,-6.207 10.468,5.651 H 0 Z" style="fill:none;stroke:#d22824;stroke-width:3;stroke-linecap:butt;stroke-linejoin:miter;stroke-miterlimit:10;stroke-dasharray:none;stroke-opacity:1" transform="matrix(1.3333333,0,0,-1.3333333,2561.1185,3904.1997)" />
      <path id="path26" d="M 0,0 H 7.875 V 60.216 H 0.926 l -13.155,-7.04 1.575,-6.207 10.468,5.651 H 0 Z" style="fill:none;stroke:#d22824;stroke-width:3;stroke-linecap:butt;stroke-linejoin:miter;stroke-miterlimit:10;stroke-dasharray:none;stroke-opacity:1" transform="matrix(1.3333333,0,0,-1.3333333,2624.4824,3904.1997)" />
      </g></svg>