<?xml version='1.0' encoding='utf-8'?>
<svg xmlns="http://www.w3.org/2000/svg" version="1.1" width="160.625" height="155.141" viewBox="1530.670 4221.280 160.625 155.141"><g id="object"><path id="path11" d="m 13.758295,-4.8749291e-4 h 4.957032 V -37.89237 h -4.371094 l -8.2851564,4.430198 0.9960937,3.90422 6.5859377,-3.557843 h 0.117187 z m 21.75,0.58157048291 c 1.21875,0.0598676 2.847657,0 4.722657,-0.29078524 4.078125,-0.46611164 8.097656,-2.21509935 11.015625,-5.07163675 3.726562,-3.6134343 6.527343,-9.441968 6.527343,-17.780662 0,-9.677162 -4.78125,-15.971808 -12.539062,-15.971808 -7.746094,0 -12.9375,6.294646 -12.9375,13.465923 0,6.469972 4.371094,11.601476 11.191406,11.601476 3.796875,0 6.820313,-1.51807 8.917969,-4.083822 h 0.175781 c -0.691406,4.490066 -2.507812,7.8127151 -5.015625,10.087682 -2.15625,2.039773 -4.945312,3.2627815 -7.921875,3.6733018 -1.746094,0.1753264 -3.035156,0.2907853 -4.136719,0.1753264 z M 44.83642,-34.629589 c 5.355469,0 7.746094,4.956178 7.746094,11.42615 0,0.816764 -0.175781,1.398334 -0.46875,1.864446 -1.335937,2.274967 -4.019531,3.964087 -7.453125,3.964087 -4.429687,0 -7.289062,-3.322649 -7.289062,-8.043633 0,-5.362422 3.082031,-9.21105 7.464843,-9.21105 z m 39.234375,-3.848628 c -0.9375,0 -2.214843,0.05987 -3.738281,0.290785 -4.78125,0.585847 -8.976562,2.510161 -12.128906,5.597616 -3.726563,3.733169 -6.410156,9.621571 -6.410156,17.083633 0,9.8524883 5.308593,16.14713354 13.40625,16.14713354 7.875,0 12.597656,-6.41438034 12.597656,-13.35046354 0,-7.402195 -4.722656,-12.242914 -11.425781,-12.242914 -4.195313,0 -7.347657,1.984182 -9.152344,4.374607 h -0.175781 c 0.878906,-6.239054 5.132812,-12.127455 13.171875,-13.470199 1.464843,-0.230917 2.800781,-0.290785 3.855468,-0.230917 z m -8.871093,35.1550805 c -5.355469,0 -8.214844,-4.6055251 -8.332032,-10.8445795 0,-0.932223 0.234375,-1.68912 0.585938,-2.274967 1.394531,-2.736802 4.253906,-4.661116 7.347656,-4.661116 4.722656,0 7.804688,3.262782 7.804688,8.685071 0,5.4222896 -2.964844,9.0955915 -7.40625,9.0955915 z M 104.98876,-38.533809 c -7.687496,0 -13.171871,6.995951 -13.171871,19.704977 0.117188,12.5336992 5.132813,19.46978254 12.539061,19.46978254 8.39063,0 13.17188,-7.11140974 13.17188,-19.99576154 0,-12.067588 -4.54688,-19.178998 -12.53907,-19.178998 z m -0.28125,3.964088 c 5.29688,0 7.6875,6.119318 7.6875,15.445827 0,9.6771623 -2.50781,15.8007575 -7.74609,15.8007575 -4.664062,0 -7.699218,-5.597616 -7.699218,-15.4501045 0,-10.3186 3.269528,-15.79648 7.757808,-15.79648 z m 0,0" style="fill:#ffffff;fill-opacity:1;fill-rule:nonzero;stroke:none" aria-label="1960" transform="matrix(1.3333333,0,0,3.6538993,1528.5892,4368.076)" />
      </g></svg>