<?xml version='1.0' encoding='utf-8'?>
<svg xmlns="http://www.w3.org/2000/svg" version="1.1" width="3190.590" height="5718.442" viewBox="-6.000 2.008 3190.590 5718.442"><defs id="defs1"><clipPath clipPathUnits="userSpaceOnUse" id="clipPath3">
      <path d="M -537.10381,2785.2045 H 1846.8362 V -1500.6376 H -537.10381 Z" id="path3" />
    </clipPath>
    <clipPath clipPathUnits="userSpaceOnUse" id="clipPath13">
      <path d="M -1693.2358,565.69722 H 690.70424 V -3720.1449 H -1693.2358 Z" id="path13" />
    </clipPath>
  </defs><g id="object"><path id="path2" d="m 0,0 c 3.933,-4.498 7.867,-8.997 11.803,-13.499 2.449,-0.396 4.896,-0.789 7.343,-1.182 0,0 -1.318,0.57 -1.318,0.569 -0.696,-13.353 10.895,-18.621 18.239,-25.965 360.501,-360.469 721.281,-720.658 1081.899,-1081.011 42.668,-42.637 90.507,-77.995 149.81,-91.379 114.581,-25.859 209.549,9.823 287.965,113.511 70.79,93.603 63.877,241.472 -30.214,337.887 -100.507,102.991 -203.538,203.518 -305.593,304.994 -8.528,8.481 -15.875,19.12 -29.537,20.335 0,0 0.462,-0.384 0.461,-0.383 1.053,4.31 2.107,8.619 3.162,12.928 39.526,25.604 67.993,63.03 100.84,95.612 176.103,174.685 351.21,350.373 527.025,525.349 6.763,6.732 10.423,20.752 25.085,15.933 0,-564.382 -0.24,-1128.764 0.775,-1693.144 0.047,-25.69 -7.183,-28.428 -29.772,-28.41 -775.218,0.625 -1550.437,0.693 -2325.654,-0.211 -26.617,-0.031 -30.064,7.683 -30.005,31.525 0.832,335.727 0.565,671.455 0.565,1007.184 59.989,58.867 120.109,117.602 179.931,176.639 61.817,61.005 123.296,122.353 185.032,183.442 16.342,16.171 31.828,33.565 49.914,47.542 34.79,26.888 76.484,41.759 115.13,61.959 C -4.742,0.15 -2.371,0.075 0,0" style="fill:#01171b;fill-opacity:1;fill-rule:nonzero;stroke:none" transform="matrix(1.3333333,0,0,-1.3333333,716.1384,3713.6032)" clip-path="url(#clipPath3)" />
      <path id="path4" d="m 0,0 c -38.645,-20.2 -80.337,-35.072 -115.126,-61.959 -18.085,-13.978 -33.57,-31.371 -49.913,-47.543 -61.733,-61.088 -123.209,-122.436 -185.024,-183.442 -59.82,-59.036 -119.937,-117.771 -179.924,-176.638 0,82.591 0,165.183 0,247.775 4.938,1.905 11.208,2.484 14.617,5.911 71.445,71.803 140.871,145.725 214.522,215.171 32.882,31.004 67.682,64.595 115.182,73.29 C -109.566,86.494 -49.012,57.162 0,0" style="fill:#618286;fill-opacity:1;fill-rule:nonzero;stroke:none" transform="matrix(1.3333333,0,0,-1.3333333,715.57827,3713.3027)" />
      <path id="path5" d="m 0,0 c -49.012,57.162 -109.566,86.494 -185.666,72.565 -47.5,-8.695 -82.3,-42.286 -115.182,-73.29 -73.651,-69.446 -143.077,-143.368 -214.522,-215.171 -3.409,-3.427 -9.679,-4.006 -14.617,-5.911 0,33.483 0,66.966 0,100.449 16.98,-4.527 23.6,9.891 32.346,18.783 58.353,59.329 113.719,121.855 174.891,178.082 64.586,59.364 141.68,90.98 230.479,62.438 C -27.247,117.045 28.236,79.432 68.559,22.437 48.823,12.827 25.306,13.496 7.104,-0.226 4.742,-0.15 2.371,-0.075 0,0" style="fill:#e3dac6;fill-opacity:1;fill-rule:nonzero;stroke:none" transform="matrix(1.3333333,0,0,-1.3333333,715.57827,3713.3027)" />
      <path id="path6" d="m 0,0 c 24.537,23.338 56.441,14.149 84.309,15.778 106.094,6.202 200.732,-31.511 285.67,-90.969 69.909,-48.938 122.564,-117.637 183.986,-176.428 66.77,-63.91 130.509,-130.973 196.267,-195.956 98.107,-96.951 188.675,-110.575 312.547,-46.76 9.937,5.119 15.853,3.698 23.601,-0.691 9.275,-10.896 17.863,-22.472 27.929,-32.576 95.993,-96.353 191.699,-193 288.545,-288.491 113.764,-112.172 66.488,-304.263 -87.689,-345.218 -67.968,-18.056 -128.787,-3.518 -185.796,37.799 -35.343,25.614 -61.648,58.621 -91.202,89.543 -89.606,93.753 -181.527,185.402 -275.122,275.185 -43.982,42.191 -83.386,88.862 -131.782,127.082 -33.641,26.567 -56.595,66.529 -89.845,93.765 -38.873,31.84 -70.813,70.158 -107.927,103.507 -38.512,34.605 -70.839,75.986 -107.461,112.822 C 236.031,-231.085 147.747,-138.704 51.128,-55.086 31.781,-38.342 23.649,-12.103 0,0" style="fill:#01171b;fill-opacity:1;fill-rule:nonzero;stroke:none" transform="matrix(1.3333333,0,0,-1.3333333,820.16947,3695.7101)" />
      <path id="path7" d="m 0,0 c -1.055,-4.309 -2.109,-8.618 -3.162,-12.928 -3.21,-0.164 -6.827,0.582 -9.564,-0.642 -15.446,-6.908 -23.189,-32.556 -41.223,-26.413 -15.371,5.237 -27.244,22.307 -39.305,35.394 -32.906,35.705 -66.772,71.45 -101.546,104.238 -78.551,74.064 -155.219,150.02 -231.004,226.708 -61.305,62.036 -128.549,119.821 -176.57,193.322 -53.3,81.579 -52.45,203.747 6.634,278.799 102.485,130.179 230.61,234.803 344.534,353.516 114.3,119.104 234.943,232.116 349.451,351.028 51.34,53.314 93.349,115.798 72.775,197.006 -33.414,131.888 -161.064,207.835 -288.237,149.085 -31.815,-14.698 -54.165,-41.764 -80.321,-63.427 -40.071,-33.187 -71.158,-76.537 -114.631,-106.471 -20.784,-14.311 -23.01,-41.221 -42.121,-58.127 -166.13,-146.963 -316.702,-309.899 -474.024,-465.906 -28.195,-27.958 -58.565,-53.372 -88.689,-78.309 -28.131,-23.287 -69.147,-19.284 -104.585,-23 -172.14,-18.055 -334.342,150.449 -286.663,334.749 13.681,52.885 41.18,98.307 81.075,137.323 85.545,83.66 170.4,168.012 250.965,256.693 39.426,43.398 87.659,78.753 127.514,121.813 72.631,78.472 153.75,148.336 225.404,227.956 27.354,30.395 59.733,57.83 89.36,87.086 48.083,47.481 94.276,96.81 143.501,143.232 17.235,16.255 39.558,25.466 54.193,45.974 7.837,10.982 26.07,3.609 34.348,-8.593 8.584,-12.652 18.254,-27.805 1.518,-41.389 -67.575,-54.848 -118.708,-126.321 -186.154,-181.874 -24.161,-19.9 -45.743,-47.513 -68.868,-69.361 -67.028,-63.328 -123.99,-136.293 -193.61,-196.87 -19.764,-17.198 -36.882,-37.417 -55.446,-56.017 -64.218,-64.344 -128.503,-128.622 -192.831,-192.855 -51.646,-51.57 -99.576,-107.85 -156.393,-152.914 -39.93,-31.67 -59.567,-72.667 -80.15,-114.015 -27.372,-54.983 -23.694,-114.122 5.531,-166.554 25.71,-46.126 69.092,-77.731 118.254,-98.051 65.485,-27.065 158.209,-4.725 208.371,46.511 50.542,51.623 102.216,102.136 153.36,153.17 92.118,91.921 187.414,180.945 275.037,276.97 47.817,52.402 104.098,95.463 149.567,150.723 32.428,39.41 70.641,77.814 110.304,109.353 70.478,56.041 155.119,86.893 247.448,60.2 94.604,-27.35 160.664,-88.879 193.906,-182.983 39.031,-110.491 1.562,-201.776 -75.358,-280.111 -120.362,-122.578 -242.808,-243.111 -364.517,-364.365 -70.704,-70.44 -142.81,-139.546 -213.809,-209.539 -46.445,-45.787 -98.808,-89.332 -130.396,-148.943 -37.817,-71.366 -20.194,-158.511 30.12,-218.931 40.927,-49.147 87.243,-94.431 137.67,-135.458 22.266,-18.116 39.764,-45.319 59.057,-68.426 26.106,-31.268 60.873,-55.175 90.837,-83.394 23.633,-22.256 45.669,-46.213 68.337,-69.488 C -117.571,111.555 -65.15,57.504 -12.378,3.797 -9.719,1.091 -4.192,1.201 0,0" style="fill:#e3dac6;fill-opacity:1;fill-rule:nonzero;stroke:none" transform="matrix(1.3333333,0,0,-1.3333333,2317.028,4277.8633)" />
      <path id="path8" d="m 0,0 c 23.649,-12.103 31.781,-38.342 51.128,-55.086 96.619,-83.618 184.903,-175.999 274.902,-266.522 36.622,-36.836 68.949,-78.217 107.461,-112.822 37.114,-33.349 69.054,-71.667 107.927,-103.507 33.25,-27.236 56.204,-67.198 89.845,-93.765 48.396,-38.22 87.8,-84.891 131.782,-127.082 93.595,-89.783 185.516,-181.432 275.122,-275.185 29.554,-30.922 55.859,-63.929 91.202,-89.543 57.009,-41.317 117.828,-55.855 185.796,-37.799 154.177,40.955 201.453,233.046 87.689,345.218 -96.846,95.491 -192.552,192.138 -288.545,288.491 -10.066,10.104 -18.654,21.68 -27.929,32.576 19.243,9.337 37.603,19.301 32.643,45.865 13.66,-1.214 21.006,-11.853 29.534,-20.334 102.051,-101.476 205.078,-202.003 305.581,-304.993 94.087,-96.416 101,-244.285 30.213,-337.888 -78.413,-103.688 -173.377,-139.369 -287.955,-113.511 -59.3,13.384 -107.137,48.743 -149.803,91.38 -360.604,360.352 -721.37,720.542 -1081.857,1081.01 -7.345,7.344 -18.935,12.613 -18.239,25.965 C -28.419,-32.443 -15.257,-14.186 0,0" style="fill:#e3dac6;fill-opacity:1;fill-rule:nonzero;stroke:none" transform="matrix(1.3333333,0,0,-1.3333333,820.16947,3695.7101)" />
      <path id="path9" d="m 0,0 c -24.345,-22.634 -46.461,-44.663 -70.196,-64.782 -17.998,-15.256 -6.151,-33.018 -7.178,-49.655 -0.438,-7.098 6.348,-16.45 -5.088,-19.534 -8.852,-2.386 -9.542,7.493 -13.25,12.351 -19.347,25.347 -38.92,50.448 -66.52,67.687 2.524,2.951 3.39,4.407 3.727,4.293 53.392,-17.972 78.351,20.934 109.247,51.901 20.17,20.217 12.104,30.383 -5.851,42.006 -25.658,16.611 -56.249,20.848 -83.582,33.147 -8.837,3.977 -27.616,0.901 -23.398,16.245 3.243,11.798 20.132,6.685 29.871,4.528 26.249,-5.814 52.679,3.55 80.241,-8.053 17.555,-7.391 43.289,6.117 63.614,-9.815 3.791,-2.972 13.921,-3.073 16.824,5.415 6.229,18.214 25.001,20.983 37.756,30.977 9.575,7.502 23.257,21.51 33.861,8.182 C 109.26,113.352 94.606,100.884 87.629,89.769 76.91,72.693 43.227,62.013 55.404,40.803 73.079,10.019 43.179,-29.008 77.277,-53.449 c -14.933,-26.731 0.87,-54.546 -3.105,-81.611 -0.327,-2.23 -4.218,-5.126 -6.845,-5.617 -9.811,-1.832 -9.686,6.498 -11.759,12.521 -11.516,33.477 -21.636,67.512 -38.545,98.87 C 11.821,-19.639 6.019,-10.315 0,0" style="fill:#01171b;fill-opacity:1;fill-rule:nonzero;stroke:none" transform="matrix(1.3333333,0,0,-1.3333333,2149.5907,873.95267)" />
      <path id="path12" d="m 0,0 c -10.72,-17.077 -44.405,-27.756 -32.226,-48.966 17.675,-30.784 -12.227,-69.811 21.874,-94.253 -14.934,-26.73 0.869,-54.545 -3.106,-81.61 -0.327,-2.23 -4.218,-5.126 -6.845,-5.617 -9.812,-1.833 -9.687,6.497 -11.759,12.521 -11.518,33.476 -21.638,67.511 -38.548,98.87 -5.202,9.647 -11.004,18.971 -17.024,29.286 -24.346,-22.634 -46.463,-44.664 -70.199,-64.782 -18,-15.256 -6.152,-33.018 -7.178,-49.655 -0.439,-7.098 6.348,-16.45 -5.089,-19.534 -8.852,-2.387 -9.542,7.492 -13.251,12.351 -19.348,25.346 -38.922,50.447 -66.523,67.687 2.525,2.951 3.39,4.407 3.727,4.293 53.395,-17.972 78.355,20.934 109.252,51.901 20.172,20.217 12.106,30.382 -5.85,42.006 -25.66,16.61 -56.252,20.848 -83.586,33.147 -8.838,3.977 -27.618,0.901 -23.4,16.245 3.243,11.797 20.133,6.685 29.872,4.528 26.251,-5.814 52.682,3.55 80.246,-8.053 17.556,-7.391 43.29,6.117 63.617,-9.815 3.791,-2.972 13.922,-3.073 16.825,5.415 6.229,18.213 25.002,20.983 37.758,30.977 9.575,7.502 23.258,21.51 33.863,8.182 C 21.632,23.583 6.977,11.115 0,0 m 691.734,527.779 c 0.034,28.371 -7.252,31.918 -33.197,31.89 -773.17,-0.823 -1546.342,-0.829 -2319.512,0.02 -26.226,0.029 -33.072,-3.965 -33.043,-32.045 0.969,-956.094 0.805,-1912.189 0.805,-2868.283 16.981,-4.527 23.602,9.89 32.348,18.782 58.356,59.329 113.724,121.856 174.9,178.082 64.59,59.364 141.688,90.98 230.491,62.438 65.027,-20.9 120.513,-58.512 160.839,-115.508 -19.738,-9.61 -43.256,-8.941 -61.459,-22.662 3.943,-4.499 7.876,-8.997 11.809,-13.496 2.449,-0.395 4.897,-0.79 7.346,-1.185 0,0 -1.317,0.57 -1.317,0.57 25.085,-4.912 38.248,13.344 53.505,27.531 24.538,23.338 56.444,14.149 84.314,15.778 106.099,6.201 200.742,-31.512 285.684,-90.969 69.913,-48.939 122.571,-117.638 183.995,-176.428 66.774,-63.91 130.516,-130.973 196.278,-195.957 98.112,-96.951 188.685,-110.574 312.563,-46.759 9.938,5.119 15.854,3.697 23.601,-0.688 19.149,9.287 37.414,19.204 32.709,45.471 -3.11,-0.09 -6.543,0.541 -9.169,-0.633 -15.446,-6.908 -23.19,-32.556 -41.225,-26.413 -15.372,5.237 -27.245,22.307 -39.307,35.394 -32.907,35.705 -66.775,71.449 -101.551,104.238 -78.555,74.064 -155.227,150.02 -231.016,226.708 -61.308,62.036 -128.555,119.821 -176.579,193.322 -53.303,81.579 -52.453,203.747 6.635,278.799 102.489,130.179 230.621,234.803 344.551,353.515 114.306,119.104 234.955,232.116 349.469,351.029 51.343,53.314 93.354,115.798 72.778,197.006 -33.415,131.887 -161.071,207.834 -288.251,149.084 -31.817,-14.698 -54.168,-41.764 -80.325,-63.427 -40.073,-33.187 -71.162,-76.536 -114.637,-106.47 -20.786,-14.311 -23.012,-41.222 -42.124,-58.128 -166.138,-146.962 -316.718,-309.899 -474.048,-465.905 -28.196,-27.958 -58.568,-53.372 -88.694,-78.309 -28.132,-23.287 -69.15,-19.284 -104.59,-23.001 -172.149,-18.055 -334.359,150.45 -286.678,334.749 13.682,52.886 41.183,98.307 81.08,137.323 85.549,83.66 170.409,168.013 250.977,256.694 39.429,43.398 87.664,78.752 127.521,121.813 72.635,78.472 153.758,148.336 225.416,227.956 27.355,30.395 59.736,57.83 89.364,87.086 48.085,47.48 94.281,96.809 143.508,143.232 17.237,16.255 39.561,25.466 54.197,45.974 7.837,10.982 26.071,3.609 34.349,-8.593 8.585,-12.653 18.255,-27.806 1.518,-41.39 -67.578,-54.847 -118.713,-126.321 -186.163,-181.873 -24.163,-19.9 -45.746,-47.513 -68.872,-69.361 -67.031,-63.328 -123.996,-136.294 -193.62,-196.871 -19.765,-17.197 -36.884,-37.416 -55.449,-56.016 -64.221,-64.345 -128.509,-128.622 -192.841,-192.856 -51.648,-51.569 -99.581,-107.849 -156.4,-152.913 -39.933,-31.67 -59.57,-72.668 -80.155,-114.015 -27.373,-54.984 -23.695,-114.122 5.532,-166.555 25.711,-46.125 69.095,-77.731 118.26,-98.05 65.488,-27.066 158.217,-4.725 208.382,46.51 50.544,51.624 102.221,102.137 153.367,153.171 92.123,91.921 187.424,180.945 275.051,276.97 47.82,52.402 104.104,95.463 149.575,150.722 32.429,39.411 70.645,77.815 110.31,109.353 70.481,56.041 155.126,86.894 247.461,60.201 94.608,-27.35 160.672,-88.879 193.916,-182.983 39.033,-110.491 1.562,-201.776 -75.362,-280.111 -120.369,-122.578 -242.821,-243.111 -364.536,-364.365 -70.708,-70.44 -142.818,-139.546 -213.82,-209.539 -46.448,-45.787 -98.813,-89.332 -130.403,-148.944 -37.819,-71.365 -20.195,-158.51 30.122,-218.93 40.929,-49.148 87.247,-94.431 137.677,-135.458 22.267,-18.116 39.766,-45.319 59.059,-68.426 26.108,-31.268 60.877,-55.176 90.843,-83.395 23.634,-22.256 45.671,-46.212 68.34,-69.487 52.538,-53.94 104.961,-107.991 157.736,-161.698 2.66,-2.707 8.187,-2.596 12.379,-3.797 39.526,25.604 67.994,63.03 100.841,95.612 176.105,174.685 351.215,350.373 527.032,525.349 6.763,6.731 10.423,20.752 25.086,15.933 0,844.529 -0.191,1689.058 0.824,2533.587" style="fill:#618286;fill-opacity:1;fill-rule:nonzero;stroke:none" transform="matrix(1.3333333,0,0,-1.3333333,2257.6477,754.26027)" clip-path="url(#clipPath13)" />
      <path id="path14" d="m 13.109022,-1.5563282e-4 15.810465,2.74469e-6 -2e-5,-52.46072811187 c -1e-6,-3.055823 0.182299,-5.395209 1.07723,-7.55183 2.883666,-8.626485 10.971197,-15.812784 21.213197,-15.812783 14.898961,3e-6 20.119402,11.857766 20.119408,25.87215 l 1.9e-5,49.95319847421 15.810466,2.7447e-6 -2e-5,-51.74429121891 c -1.2e-5,-30.009934 -18.69415,-37.196239 -30.361412,-37.196241 -5.933068,-10e-7 -11.501533,1.798401 -16.175066,4.496005 -4.855834,2.690293 -8.800162,6.645316 -11.319229,11.141323 h -0.364601 l -2.2e-5,-54.266443 H 13.108971 Z M 149.67106,-88.939745 c -24.08031,-4e-6 -43.12246,17.070199 -43.12245,46.180932 1e-5,27.487784 18.14725,44.7334474 41.68065,44.7334515 21.01433,3.6e-6 43.30476,-14.0143755 43.30474,-46.1736215 -1e-5,-26.595893 -16.90428,-44.740757 -41.86294,-44.740762 z m -0.3646,11.865073 c 18.69413,3e-6 26.05247,18.685849 26.05248,33.41667 0,19.577735 -11.31922,33.7748811 -26.41706,33.7748785 -15.44586,-2.7e-6 -26.4005,-14.3726065 -26.40051,-33.4166695 0,-16.529223 8.08753,-33.774882 26.76509,-33.774879 z m 62.16673,77.07455080317 15.62816,2.71305e-6 -1e-5,-46.35639351622 c 0,-2.697604 0.3646,-5.212444 0.7292,-7.369065 2.15446,-11.857762 10.05969,-20.301481 21.19662,-20.301479 2.17104,0 3.7786,0.175454 5.40274,0.540984 l -1e-5,-14.913585 c -1.44183,-0.358219 -2.70137,-0.540984 -4.5078,-0.540984 -10.59003,-2e-6 -20.1194,7.369062 -24.06372,19.044059 h -0.72921 l -0.54691,-17.062896 -13.82173,-3e-6 c 0.54691,8.078192 0.71264,16.887442 0.71265,27.129566 z m 75.28201,1.306895e-5 -3e-5,-86.95935887212 -15.81047,-3e-6 4e-5,86.95935912742 z M 278.8665,-121.28265 c -5.76734,0 -9.89397,4.32056 -9.89397,9.88391 0,5.39521 3.9609,9.70114 9.52937,9.70114 6.2811,0 10.242,-4.30593 10.0597,-9.70114 -10e-6,-5.56335 -3.77861,-9.8839 -9.6951,-9.88391 z m 24.24607,121.28254471176 70.60019,1.2256181e-5 V -12.574292 l -50.8454,-9e-6 v -0.365529 c 3.9609,-4.488696 7.5572,-8.801938 11.1535,-13.648852 l 38.81351,-50.486865 0.16573,-9.883905 -66.29126,-1.2e-5 V -74.2025 l 47.08337,8e-6 v 0.350908 c -3.9609,4.678771 -7.5572,8.809248 -11.31923,13.480709 L 303.11257,-9.1675737 Z M 425.47377,-88.940611 c -24.0803,-4e-6 -43.12245,17.070199 -43.12244,46.180932 10e-6,27.487784 18.14725,44.7334474 41.68064,44.7334515 21.01433,3.7e-6 43.30477,-14.0143755 43.30475,-46.1736215 -1e-5,-26.595893 -16.90429,-44.740757 -41.86295,-44.740762 z m -0.36459,11.865073 c 18.69413,3e-6 26.05247,18.685849 26.05248,33.41667 0,19.577735 -11.31922,33.7748811 -26.41706,33.7748785 -15.44586,-2.7e-6 -26.4005,-14.3726065 -26.40051,-33.4166695 0,-16.529223 8.08752,-33.774882 26.76509,-33.774879 z M 487.27384,-7.3317872e-5 503.0843,-7.0573177e-5 503.08428,-52.285345 c 0,-2.697604 0.3646,-5.387898 1.07723,-7.369065 2.70137,-8.801939 10.7889,-16.171003 21.2132,-16.171001 14.89896,2e-6 20.1194,11.682311 20.11941,25.696695 l 2e-5,50.128652789165 15.81046,2.744694e-6 -2e-5,-51.927055533859 c -10e-6,-29.82717 -18.69415,-37.013474 -30.72601,-37.013476 -14.36863,-3e-6 -24.42833,8.085498 -28.75383,16.353764 h -0.34803 l -0.89494,-14.372602 -14.0206,-3e-6 c 0.54691,7.178991 0.71264,14.555367 0.71264,23.53276 z m 155.06561,9.40741972e-4 -3e-5,-74.9261434241 34.86921,6e-6 3e-5,74.92614347739 15.61159,2.71017e-6 -4e-5,-86.95935918756 -50.48079,-9e-6 v -4.313242 c -10e-6,-13.831616 4.85582,-25.513926 21.56122,-25.513926 7.72293,0 14.55093,2.33208 18.32954,5.02968 l 4.49122,-12.03321 c -4.49123,-3.23859 -14.0206,-5.75343 -22.10813,-5.75343 -24.42833,-1e-5 -37.90203,14.91358 -37.90202,37.905354 v 4.678772 l -12.21416,-3e-6 v 12.033216 l 12.21417,3e-6 3e-5,74.92614271106 z m 76.71764,-9.0050443e-4 15.62816,2.713047e-6 -2e-5,-46.356393632717 c 0,-2.697604 0.3646,-5.212444 0.7292,-7.369065 2.15447,-11.857762 10.0597,-20.301481 21.19663,-20.301479 2.17104,0 3.7786,0.175454 5.40273,0.540984 v -14.913585 c -1.44184,-0.358219 -2.70137,-0.540984 -4.50781,-0.540984 -10.59003,-2e-6 -20.11939,7.369062 -24.06372,19.044059 h -0.7292 l -0.54691,-17.062896 -13.82173,-2e-6 c 0.54691,8.078192 0.71264,16.887441 0.71264,27.129565 z M 845.90126,-40.602977 c 0.19887,-1.622949 0.5469,-4.137789 0.5469,-7.369065 -10e-6,-15.995551 -7.55722,-40.968497 -35.92988,-40.968502 -25.33984,-4e-6 -40.78569,20.667005 -40.78568,46.897369 10e-6,26.230364 15.99278,43.8415564 42.75788,43.841561 13.8383,2.4e-6 23.36766,-2.8803648 28.93613,-5.387893 l -2.70137,-11.32409 c -5.93307,2.514839 -12.7445,4.496005 -24.06373,4.496003 -15.82704,-3e-6 -29.48304,-8.809255 -29.83108,-30.185394 z m -60.88853,-11.3241 c 1.24295,-10.958561 8.25325,-25.68938 24.24602,-25.689377 17.7992,3e-6 22.09156,15.630025 21.92584,25.689385 z M 72.406627,184.70351 c -4.491232,1.98116 -10.407726,4.32055 -19.406765,4.32055 -17.2523,-1e-5 -30.179101,-12.40606 -30.179109,-32.52478 -7e-6,-18.14486 10.772317,-32.87568 30.725986,-32.87568 8.617864,0 14.550933,1.97386 18.329536,4.13048 l 3.579723,-12.21598 c -4.308933,-2.16393 -12.578769,-4.49601 -21.909264,-4.49601 -28.405805,0 -46.7187579,19.40228 -46.7187474,46.17362 1.05e-5,26.5959 17.0700174,44.38254 43.3047834,44.38255 11.667262,0 20.832028,-2.88037 24.975231,-5.03699 z m 21.196637,15.09635 h 15.810466 l -2e-5,-52.46072 c 0,-3.05583 0.1823,-5.39521 1.07723,-7.55183 2.88367,-8.62649 10.9712,-15.81279 21.2132,-15.81279 14.89896,1e-5 20.1194,11.85777 20.1194,25.87215 l 2e-5,49.9532 h 15.81047 l -2e-5,-51.74429 c -1e-5,-30.00993 -18.69415,-37.19624 -30.36141,-37.19624 -5.93307,0 -11.50154,1.7984 -16.17507,4.49601 -4.85583,2.69029 -8.80016,6.64531 -11.31923,11.14132 h -0.3646 l -2e-5,-54.266442 -15.810467,-3e-6 z M 263.21151,159.19784 c 0.19887,-1.62295 0.5469,-4.13779 0.5469,-7.36907 -1e-5,-15.99555 -7.55722,-40.96849 -35.92988,-40.9685 -25.33983,0 -40.78569,20.66701 -40.78568,46.89737 1e-5,26.23036 15.99278,43.84156 42.75788,43.84156 13.8383,0 23.36767,-2.88036 28.93613,-5.38789 l -2.70137,-11.32409 c -5.93307,2.51484 -12.74449,4.496 -24.06372,4.496 -15.82704,0 -29.48305,-8.80925 -29.83108,-30.18539 z m -60.88853,-11.3241 c 1.24296,-10.95856 8.25325,-25.68938 24.24602,-25.68938 17.7992,0 22.09157,15.63003 21.92585,25.68939 z m 81.0183,51.92615 15.46244,1e-5 -2e-5,-52.46073 c 0,-2.69761 0.34802,-5.39521 1.25953,-7.72729 2.51906,-7.91004 9.69509,-15.81278 19.57249,-15.81278 12.04843,0 18.14723,10.05936 18.14724,23.89829 l 2e-5,52.10251 15.44586,1e-5 -2e-5,-53.72546 c 0,-2.87306 0.5469,-5.74612 1.27611,-7.90274 2.68479,-7.72728 9.69509,-14.3726 18.67755,-14.3726 12.76107,0 18.85987,10.05936 18.85988,26.77135 l 2e-5,49.22945 15.46243,10e-6 -2e-5,-51.20331 c -1e-5,-30.18539 -17.07001,-37.73722 -28.57155,-37.73723 -8.26983,0 -14.0206,2.15662 -19.22446,6.11165 -3.5963,2.6976 -7.0103,6.46986 -9.71166,11.31677 h -0.34803 c -3.77861,-10.24212 -12.76108,-17.42842 -24.62721,-17.42843 -14.36863,0 -22.43959,7.72728 -27.29542,15.99555 h -0.54691 l -0.72921,-14.01438 -13.82172,-1e-5 c 0.5469,7.17899 0.71263,14.55537 0.71264,23.53276 z m 152.72881,-107.800881 1e-5,20.842461 h -13.4737 v 12.03322 h 13.4737 l 2e-5,47.43836 c 0,10.23481 1.62414,17.96941 6.11538,22.64087 3.76203,4.30593 9.6951,6.64532 17.07,6.64532 6.0988,0 10.95463,-0.8992 14.0206,-2.15662 l -0.72921,-11.86507 c -1.97216,0.54829 -5.03813,1.08196 -9.16476,1.08196 -8.80017,0 -11.86614,-6.11164 -11.86615,-16.88744 l -1e-5,-46.89738 22.63846,1e-5 v -12.03322 h -22.63847 l -1e-5,-24.972947 z m 55.87736,107.800921 h 15.62816 l -10e-6,-46.35639 c -1e-5,-2.69761 0.3646,-5.21244 0.7292,-7.36907 2.15446,-11.85776 10.05969,-20.30148 21.19662,-20.30148 2.17104,0 3.7786,0.17546 5.40274,0.54099 l -1e-5,-14.91359 c -1.44183,-0.35822 -2.70137,-0.54098 -4.5078,-0.54098 -10.59003,0 -20.1194,7.36906 -24.06372,19.04406 h -0.72921 l -0.54691,-17.0629 h -13.82173 c 0.54691,8.07819 0.71264,16.88744 0.71265,27.12957 z m 120.38493,2e-5 c -1.07724,-5.92888 -1.44184,-13.29795 -1.44184,-20.84247 l -2e-5,-32.51746 c 0,-17.43573 -6.46341,-35.5806 -33.0462,-35.5806 -10.97121,0 -21.37893,3.05582 -28.57153,7.72728 l 3.5963,10.41758 c 6.09879,-3.94772 14.55093,-6.46256 22.63846,-6.46255 17.78263,0 19.7548,12.93973 19.75481,20.12603 v 1.7984 c -33.5931,-0.18277 -52.27066,11.30946 -52.27065,32.33469 10e-6,12.58151 8.9659,24.97295 26.58281,24.97295 12.39646,0 21.74353,-6.10433 26.58279,-12.93241 h 0.5469 l 1.25954,10.95856 z m -16.70541,-29.28619 c 0,1.61564 -0.3646,3.41404 -0.89493,5.02968 -2.51907,7.36907 -9.71166,14.55537 -21.0309,14.55536 -8.08753,0 -14.89896,-4.84691 -14.89896,-15.09635 -10e-6,-16.88744 19.57248,-19.94326 36.82478,-19.57773 z m 56.58996,29.28711 -3e-5,-86.95936 h -15.81047 l 3e-5,86.95936 z M 644.32822,78.518334 c -5.76734,-10e-7 -9.89397,4.320551 -9.89396,9.883903 0,5.395209 3.9609,9.701142 9.52937,9.701143 6.2811,10e-7 10.242,-4.305931 10.05969,-9.701139 0,-5.563352 -3.7786,-9.883906 -9.6951,-9.883907 z m 34.12141,121.281626 h 15.81046 l -5e-5,-127.569631 -15.81047,-3e-6 z m 150.38378,-40.60202 c 0.19887,-1.62295 0.5469,-4.13779 0.5469,-7.36907 -10e-6,-15.99555 -7.55722,-40.9685 -35.92988,-40.9685 -25.33984,-1e-5 -40.78569,20.667 -40.78568,46.89737 10e-6,26.23036 15.99278,43.84155 42.75788,43.84156 13.8383,0 23.36767,-2.88037 28.93613,-5.38789 l -2.70137,-11.32409 c -5.93307,2.51483 -12.7445,4.496 -24.06373,4.496 -15.82704,0 -29.48304,-8.80926 -29.83108,-30.18539 z m -60.88853,-11.3241 c 1.24296,-10.95856 8.25325,-25.68938 24.24602,-25.68938 17.7992,0 22.09157,15.63002 21.92584,25.68938 z m 81.01831,87.49944 h 15.62817 l -2e-5,-47.24828 h 0.3646 c 5.20387,8.61917 15.28014,13.64885 26.7651,13.64886 20.484,0 39.52616,-15.44725 39.52615,-46.71461 -1e-5,-26.40582 -15.79391,-44.19977 -36.82482,-44.19978 -14.18633,0 -24.42832,6.2871 -30.90829,16.89475 h -0.34803 l -0.72921,-14.91359 h -14.18633 c 0.36461,8.26096 0.71264,17.24566 0.71264,28.38699 z m 15.62813,-85.87739 c 0,-2.15662 0.5469,-4.49601 1.09381,-6.47718 3.04939,-11.85776 13.10908,-19.57773 23.88141,-19.57773 16.72197,0 25.88675,14.91359 25.88675,32.33471 10e-6,19.94326 -9.71165,33.60673 -26.41705,33.60673 -11.31923,0 -20.83203,-7.55183 -23.71571,-18.51039 -0.3646,-1.97386 -0.7292,-4.13048 -0.7292,-6.46256 z M 47.066833,288.0276 c -23.715698,-1e-5 -40.6033884,21.55889 -40.603373,60.72167 0.3646172,38.63642 15.810489,60.01257 38.631256,60.01257 25.870164,0 40.603388,-21.91711 40.603373,-61.62819 -1.5e-5,-37.18892 -14.020625,-59.10605 -38.631256,-59.10605 z m -0.894927,12.21598 c 16.357369,0 23.715706,18.8613 23.715717,47.6065 1.2e-5,29.82717 -7.722912,48.69578 -23.89798,48.69578 -14.368631,0 -23.715705,-17.24566 -23.715717,-47.61382 -1.3e-5,-31.80102 10.076252,-48.68846 23.89798,-48.68846 z M 109.42624,408.5864 c 3.7786,0.17545 8.80017,0 14.55093,-0.8992 12.57877,-1.44018 24.97523,-6.82808 33.95769,-15.63002 11.50153,-11.14132 20.11939,-29.11073 20.11938,-54.80011 -1e-5,-29.82717 -14.73325,-49.22945 -38.63125,-49.22946 -23.898,0 -39.874187,19.40228 -39.874178,41.50216 8e-6,19.94327 13.473708,35.75606 34.488038,35.75606 11.68384,0 21.01433,-4.67146 27.4943,-12.5815 h 0.53033 c -2.15446,13.83893 -7.72292,24.07374 -15.44585,31.08458 -6.6457,6.29441 -15.28013,10.05936 -24.4449,11.32409 -5.38616,0.53367 -9.33049,0.8992 -12.74449,0.53367 z m 28.73722,-108.52557 c 16.53967,0 23.89801,15.27181 23.89801,35.21507 0,2.51484 -0.53033,4.32055 -1.44183,5.75343 -4.12663,7.00353 -12.37989,12.21598 -22.98649,12.21597 -13.656,0 -22.47274,-10.24212 -22.47275,-24.79018 0,-16.53653 9.52936,-28.39429 23.00306,-28.39429 z m 0,0" style="fill:#e3dac6;fill-opacity:1;fill-rule:nonzero;stroke:none" aria-label="hor&#10;iz&#10;on fr&#10;e&#10;chem&#10;tr&#10;ail ep&#10;09" transform="matrix(0.94280867,-0.94280941,2.1373127,2.1373134,715.57853,2045.0003)" />
    </g></svg>