<?xml version='1.0' encoding='utf-8'?>
<svg xmlns="http://www.w3.org/2000/svg" version="1.1" width="145.804" height="176.647" viewBox="2117.050 619.588 145.804 176.647"><defs id="defs1"><clipPath clipPathUnits="userSpaceOnUse" id="clipPath46">
      <path d="M 0,3370.3901 H 2383.9401 V -2.5000001e-5 H 0 Z" id="path46" />
    </clipPath>
  </defs><g id="object"><path id="path38" d="m 0,0 c 12.259,0 24.525,0.224 36.776,-0.094 6.165,-0.16 12.969,-0.903 13.718,-9.025 0.742,-8.057 -5.226,-11.481 -11.689,-10.849 -27.68,2.71 -29.041,-14.459 -28.079,-34.855 0.783,-16.602 0.386,-33.279 -0.047,-49.908 -0.196,-7.503 1.213,-18.145 -9.552,-18.531 -13.155,-0.471 -10.763,11.463 -11.026,19.567 -0.569,17.498 -0.758,35.044 -0.13,52.536 0.641,17.893 -2.227,31.658 -24.816,30.783 -6.886,-0.267 -15.266,0.856 -14.942,10.556 0.322,9.622 8.65,9.687 15.637,9.872 11.376,0.3 22.766,0.08 34.15,0.08 z" style="fill:#424242;fill-opacity:1;fill-rule:nonzero;stroke:none" transform="matrix(1.3333333,0,0,-1.3333333,2189.4459,625.8676)" />
      </g></svg>