<?xml version='1.0' encoding='utf-8'?>
<svg xmlns="http://www.w3.org/2000/svg" version="1.1" width="145.885" height="177.225" viewBox="1486.300 2198.930 145.885 177.225"><defs id="defs1"><clipPath clipPathUnits="userSpaceOnUse" id="clipPath46">
      <path d="M 0,3370.3901 H 2383.9401 V -2.5000001e-5 H 0 Z" id="path46" />
    </clipPath>
  </defs><g id="object"><path id="path39" d="m 0,0 c -1.118,-9.841 -8.681,-10.51 -15.591,-10.281 -20.548,0.683 -24.872,-11.154 -24.355,-28.618 0.595,-20.119 0.167,-40.279 -0.258,-60.412 -0.152,-7.172 -1.647,-15.04 -11.277,-14.299 -7.803,0.6 -8.834,7.802 -8.949,13.934 -0.392,21.01 -0.881,42.045 -0.258,63.039 0.495,16.641 -3.709,27.327 -23.105,26.405 -7.625,-0.363 -17.564,-0.238 -16.549,11.37 0.81,9.277 9.593,8.917 16.467,8.98 22.765,0.211 45.535,0.189 68.298,-0.08 C -8.567,9.954 -1.147,9.429 0,0" style="fill:#424242;fill-opacity:1;fill-rule:nonzero;stroke:none" transform="matrix(1.3333333,0,0,-1.3333333,1626.1824,2218.6072)" />
      </g></svg>