<?xml version='1.0' encoding='utf-8'?>
<svg xmlns="http://www.w3.org/2000/svg" version="1.1" width="1218.050" height="142.375" viewBox="1741.990 3049.590 1218.050 142.375"><g id="object"><path id="path93" d="M 4.0771109,-36.187894 V -3.9375e-4 H 8.7528922 V -36.187894 Z m 14.6074221,3.972656 v 6.222657 h -4.03125 v 3.597656 h 4.03125 v 14.1796875 c 0,3.0585937 0.480469,5.3671875 1.828125,6.7617187 1.125,1.28906255 2.894531,1.99218755 5.097656,1.99218755 1.828125,0 3.28125,-0.26953125 4.195313,-0.64453125 L 29.58297,-3.6566438 c -0.585937,0.1640625 -1.5,0.328125 -2.730468,0.328125 -2.636719,0 -3.550782,-1.828125 -3.550782,-5.0507812 v -14.015625 h 6.773438 v -3.597656 H 23.30172 v -7.464844 z m 18.899414,-4.078125 c -0.585938,3.855469 -1.980469,9.445313 -3.164063,12.609375 l 3,-0.375 c 1.511719,-2.472656 3.820313,-8.214843 5.050782,-12.726562 z m 4.353516,35.0625005 c 1.816406,1.06640625 4.453125,1.76953125 7.300781,1.76953125 6.175781,0 9.714844,-3.22265625 9.714844,-7.79296875 0,-3.855469 -2.308594,-6.117188 -6.820313,-7.839844 -3.375,-1.289062 -4.933594,-2.25 -4.933594,-4.394531 0,-1.933594 1.558594,-3.550781 4.347657,-3.550781 2.414062,0 4.289062,0.867187 5.308593,1.511718 l 1.183594,-3.445312 c -1.441406,-0.855469 -3.75,-1.605469 -6.386719,-1.605469 -5.578125,0 -8.964843,3.433594 -8.964843,7.628906 0,3.105469 2.203125,5.683594 6.867187,7.347657 3.492188,1.289062 4.839844,2.5312497 4.839844,4.7812497 0,2.1445313 -1.617188,3.8671875 -5.050781,3.8671875 -2.367188,0 -4.828125,-0.9609375 -6.222657,-1.875 z m 53.15625,1.23046875 C 94.777306,-1.769925 94.660119,-3.97305 94.660119,-6.2347688 v -9.7148442 c 0,-5.203125 -1.933594,-10.628906 -9.878906,-10.628906 -3.269532,0 -6.386719,0.914063 -8.53125,2.308594 l 1.066406,3.117187 c 1.828125,-1.183593 4.359375,-1.933593 6.773437,-1.933593 5.308594,0 5.90625,3.867187 5.90625,6.011718 v 0.539063 c -10.042968,-0.05859 -15.632812,3.375 -15.632812,9.6679687 0,3.75 2.683594,7.45312505 7.957031,7.45312505 3.703125,0 6.492188,-1.81640625 7.945313,-3.86718755 h 0.152343 l 0.375,3.28125005 z M 90.101525,-8.7543 c 0,0.4804687 -0.105469,1.0195312 -0.269531,1.5 -0.75,2.203125 -2.894531,4.359375 -6.28125,4.359375 -2.414063,0 -4.453125,-1.453125 -4.453125,-4.5117188 0,-5.0507812 5.847656,-5.9648442 11.003906,-5.8593752 z m 16.045895,8.75390625 0.22266,-4.30078125 h 0.15234 c 1.9336,3.4453125 4.94532,4.88671875 8.70703,4.88671875 5.80079,0 11.64844,-4.61718755 11.64844,-13.89843775 0.0586,-7.898437 -4.51172,-13.265625 -10.95703,-13.265625 -4.18359,0 -7.19531,1.875 -8.85937,4.78125 h -0.10547 v -16.324219 h -4.67578 v 31.4062505 c 0,2.3085937 -0.10547,4.9453125 -0.21094,6.71484375 z m 0.8086,-15.09375025 c 0,-0.75 0.16406,-1.394531 0.26953,-1.921875 0.97265,-3.597656 3.97265,-5.800781 7.19531,-5.800781 5.05078,0 7.73438,4.453125 7.73438,9.65625 0,5.9648437 -2.95313,9.9960937 -7.89844,9.9960937 -3.4336,0 -6.17578,-2.2617187 -7.08985,-5.53125 -0.10546,-0.5390625 -0.21093,-1.1367187 -0.21093,-1.7226567 z m 36.89355,-11.484375 c -7.19531,0 -12.89062,5.097656 -12.89062,13.792969 0,8.2265625 5.42578,13.37109375 12.45703,13.37109375 6.28125,0 12.9375,-4.18359375 12.9375,-13.79296875 0,-7.945313 -5.03906,-13.371094 -12.50391,-13.371094 z m -0.10547,3.539063 c 5.57813,0 7.78125,5.589843 7.78125,9.996093 0,5.8476567 -3.38672,10.0898442 -7.89843,10.0898442 -4.61719,0 -7.88672,-4.3007812 -7.88672,-9.9843752 0,-4.945312 2.41406,-10.101562 8.0039,-10.101562 z m 40.31836,-2.953125 h -4.72265 v 15.949218 c 0,0.8554692 -0.16407,1.7226567 -0.4336,2.414063 -0.85547,2.0976562 -3.05859,4.3007812 -6.22265,4.3007812 -4.30078,0 -5.80078,-3.328125 -5.80078,-8.2734372 v -14.390625 h -4.72266 v 15.199218 c 0,9.1289067 4.88672,11.37890675 8.96484,11.37890675 4.61719,0 7.35938,-2.73046875 8.58985,-4.82812505 h 0.10547 l 0.26953,4.24218755 h 4.19531 c -0.16406,-2.03906255 -0.22266,-4.40625005 -0.22266,-7.08984375 z m 8.91211,-6.222657 v 6.222657 h -4.03125 v 3.597656 h 4.03125 v 14.1796875 c 0,3.0585937 0.48047,5.3671875 1.82813,6.7617187 1.125,1.28906255 2.89453,1.99218755 5.09765,1.99218755 1.82813,0 3.28125,-0.26953125 4.19532,-0.64453125 l -0.22266,-3.5507813 c -0.58594,0.1640625 -1.5,0.328125 -2.73047,0.328125 -2.63672,0 -3.55078,-1.828125 -3.55078,-5.0507812 v -14.015625 h 6.77344 v -3.597656 h -6.77344 v -7.464844 z m 29.15625,0 v 6.222657 h -4.03125 v 3.597656 h 4.03125 v 14.1796875 c 0,3.0585937 0.48047,5.3671875 1.82813,6.7617187 1.125,1.28906255 2.89453,1.99218755 5.09765,1.99218755 1.82813,0 3.28125,-0.26953125 4.19532,-0.64453125 l -0.22266,-3.5507813 c -0.58594,0.1640625 -1.5,0.328125 -2.73047,0.328125 -2.63672,0 -3.55078,-1.828125 -3.55078,-5.0507812 v -14.015625 h 6.77344 v -3.597656 h -6.77344 v -7.464844 z m 16.69629,32.21484425 h 4.73438 V -15.680081 c 0,-0.914063 0.0469,-1.605469 0.3164,-2.25 0.86719,-2.578125 3.28125,-4.734375 6.33985,-4.734375 4.45312,0 6.01171,3.550781 6.01171,7.734375 V -3.9375e-4 h 4.72266 V -15.469144 c 0,-8.964844 -5.57812,-11.109375 -9.07031,-11.109375 -1.76953,0 -3.4336,0.539063 -4.82813,1.335938 -1.45312,0.808593 -2.63672,1.992187 -3.38672,3.339843 h -0.10546 v -16.21875 h -4.73438 z M 289.51949,-12.141019 c 0.0469,-0.480469 0.16407,-1.230469 0.16407,-2.191406 0,-4.78125 -2.26172,-12.246094 -10.7461,-12.246094 -7.57031,0 -12.1875,6.175781 -12.1875,14.015625 0,7.839844 4.78125,13.10156275 12.78516,13.10156275 4.125,0 6.97266,-0.85546875 8.63672,-1.61718755 l -0.79688,-3.375 c -1.78125,0.75 -3.82031,1.3359375 -7.19531,1.3359375 -4.73437,0 -8.8125,-2.625 -8.91797,-9.0234377 z m -18.19921,-3.375 c 0.375,-3.28125 2.46093,-7.675781 7.24218,-7.675781 5.32032,0 6.60938,4.664062 6.55078,7.675781 z m 35.58984,15.51562525 h 4.73437 V -15.680081 c 0,-0.914063 0.0469,-1.605469 0.31641,-2.25 0.86719,-2.578125 3.28125,-4.734375 6.33984,-4.734375 4.45313,0 6.01172,3.550781 6.01172,7.734375 V -3.9375e-4 h 4.72266 V -15.469144 c 0,-8.964844 -5.57813,-11.109375 -9.07031,-11.109375 -1.76953,0 -3.4336,0.539063 -4.82813,1.335938 -1.45312,0.808593 -2.63672,1.992187 -3.38672,3.339843 h -0.10547 v -16.21875 h -4.73437 z m 48.49219,0 C 355.0859,-1.769925 354.96871,-3.97305 354.96871,-6.2347688 v -9.7148442 c 0,-5.203125 -1.93359,-10.628906 -9.8789,-10.628906 -3.26953,0 -6.38672,0.914063 -8.53125,2.308594 l 1.0664,3.117187 c 1.82813,-1.183593 4.35938,-1.933593 6.77344,-1.933593 5.30859,0 5.90625,3.867187 5.90625,6.011718 v 0.539063 c -10.04297,-0.05859 -15.63281,3.375 -15.63281,9.6679687 0,3.75 2.68359,7.45312505 7.95703,7.45312505 3.70312,0 6.49219,-1.81640625 7.94531,-3.86718755 h 0.15235 l 0.375,3.28125005 z M 350.41012,-8.7543 c 0,0.4804687 -0.10547,1.0195312 -0.26953,1.5 -0.75,2.203125 -2.89453,4.359375 -6.28125,4.359375 -2.41406,0 -4.45313,-1.453125 -4.45313,-4.5117188 0,-5.0507812 5.84766,-5.9648442 11.00391,-5.8593752 z m 29.91211,-29.367188 v 15.515625 h -0.11719 c -1.17187,-2.097656 -3.86719,-3.972656 -7.83984,-3.972656 -6.32813,0 -11.69532,5.320313 -11.64844,13.957031 0,7.898438 4.82812,13.20703175 11.12109,13.20703175 4.24219,0 7.40625,-2.19140625 8.85938,-5.09765625 h 0.10547 l 0.21093,4.51171875 h 4.24219 C 385.09176,-1.769925 385.04488,-4.4066438 385.04488,-6.7152375 V -38.121488 Z m 0,27.222657 c 0,0.75 -0.0586,1.394531 -0.22266,2.0390622 -0.85547,3.5390625 -3.76172,5.6367188 -6.92578,5.6367188 -5.09766,0 -7.67578,-4.3476563 -7.67578,-9.609375 0,-5.742188 2.89453,-10.042969 7.78125,-10.042969 3.55078,0 6.12891,2.472656 6.82031,5.472656 0.16406,0.597657 0.22266,1.40625 0.22266,1.992188 z m 23.5664,-15.679688 c -7.19531,0 -12.89062,5.097656 -12.89062,13.792969 0,8.2265625 5.42578,13.37109375 12.45703,13.37109375 6.28125,0 12.9375,-4.18359375 12.9375,-13.79296875 0,-7.945313 -5.03906,-13.371094 -12.50391,-13.371094 z m -0.10546,3.539063 c 5.57812,0 7.78125,5.589843 7.78125,9.996093 0,5.8476567 -3.38672,10.0898442 -7.89844,10.0898442 -4.61719,0 -7.88672,-4.3007812 -7.88672,-9.9843752 0,-4.945312 2.41406,-10.101562 8.00391,-10.101562 z m 18.56836,23.03906225 h 4.6289 V -15.680081 c 0,-0.808594 0.10547,-1.605469 0.375,-2.308594 0.75,-2.367188 2.89453,-4.722656 5.84766,-4.722656 3.59765,0 5.42578,3 5.42578,7.136718 V -3.9375e-4 h 4.61719 V -16.055081 c 0,-0.855469 0.16406,-1.722657 0.375,-2.367188 0.80859,-2.308594 2.89453,-4.289062 5.57812,-4.289062 3.82031,0 5.64844,3 5.64844,8.003906 V -3.9375e-4 h 4.61719 V -15.305081 c 0,-9.023438 -5.10938,-11.273438 -8.54297,-11.273438 -2.47266,0 -4.1836,0.644531 -5.74219,1.828125 -1.07812,0.796875 -2.09766,1.933594 -2.90625,3.375 h -0.10547 c -1.125,-3.058594 -3.80859,-5.203125 -7.34765,-5.203125 -4.30079,0 -6.71485,2.308594 -8.16797,4.78125 h -0.16407 l -0.21093,-4.195312 h -4.13672 c 0.16406,2.15625 0.21094,4.347656 0.21094,7.042968 z m 63.47167,0 C 485.5068,-1.769925 485.38961,-3.97305 485.38961,-6.2347688 v -9.7148442 c 0,-5.203125 -1.93359,-10.628906 -9.87891,-10.628906 -3.26953,0 -6.38671,0.914063 -8.53125,2.308594 l 1.06641,3.117187 c 1.82813,-1.183593 4.35938,-1.933593 6.77344,-1.933593 5.30859,0 5.90625,3.867187 5.90625,6.011718 v 0.539063 c -10.04297,-0.05859 -15.63281,3.375 -15.63281,9.6679687 0,3.75 2.68359,7.45312505 7.95703,7.45312505 3.70312,0 6.49218,-1.81640625 7.94531,-3.86718755 h 0.15234 l 0.375,3.28125005 z M 480.83102,-8.7543 c 0,0.4804687 -0.10547,1.0195312 -0.26953,1.5 -0.75,2.203125 -2.89454,4.359375 -6.28125,4.359375 -2.41407,0 -4.45313,-1.453125 -4.45313,-4.5117188 0,-5.0507812 5.84766,-5.9648442 11.00391,-5.8593752 z m 42.25781,8.75390625 C 522.77242,-1.769925 522.65524,-3.97305 522.65524,-6.2347688 v -9.7148442 c 0,-5.203125 -1.9336,-10.628906 -9.87891,-10.628906 -3.26953,0 -6.38672,0.914063 -8.53125,2.308594 l 1.06641,3.117187 c 1.82812,-1.183593 4.35937,-1.933593 6.77343,-1.933593 5.3086,0 5.90625,3.867187 5.90625,6.011718 v 0.539063 c -10.04297,-0.05859 -15.63281,3.375 -15.63281,9.6679687 0,3.75 2.68359,7.45312505 7.95703,7.45312505 3.70313,0 6.49219,-1.81640625 7.94531,-3.86718755 h 0.15235 l 0.375,3.28125005 z M 518.09664,-8.7543 c 0,0.4804687 -0.10547,1.0195312 -0.26953,1.5 -0.75,2.203125 -2.89453,4.359375 -6.28125,4.359375 -2.41406,0 -4.45312,-1.453125 -4.45312,-4.5117188 0,-5.0507812 5.84765,-5.9648442 11.0039,-5.8593752 z m 10.36524,7.5234375 c 1.8164,1.06640625 4.45312,1.76953125 7.30078,1.76953125 6.17578,0 9.71484,-3.22265625 9.71484,-7.79296875 0,-3.855469 -2.30859,-6.117188 -6.82031,-7.839844 -3.375,-1.289062 -4.93359,-2.25 -4.93359,-4.394531 0,-1.933594 1.55859,-3.550781 4.34765,-3.550781 2.41406,0 4.28906,0.867187 5.3086,1.511718 l 1.18359,-3.445312 c -1.44141,-0.855469 -3.75,-1.605469 -6.38672,-1.605469 -5.57812,0 -8.96484,3.433594 -8.96484,7.628906 0,3.105469 2.20312,5.683594 6.86718,7.347657 3.49219,1.289062 4.83985,2.5312497 4.83985,4.7812497 0,2.1445313 -1.61719,3.8671875 -5.05078,3.8671875 -2.36719,0 -4.82813,-0.9609375 -6.22266,-1.875 z m 34.46191,1.23046875 h 4.73438 V -15.680081 c 0,-0.914063 0.0469,-1.605469 0.3164,-2.25 0.86719,-2.578125 3.28125,-4.734375 6.33985,-4.734375 4.45312,0 6.01171,3.550781 6.01171,7.734375 V -3.9375e-4 h 4.72266 V -15.469144 c 0,-8.964844 -5.57812,-11.109375 -9.07031,-11.109375 -1.76953,0 -3.4336,0.539063 -4.82813,1.335938 -1.45312,0.808593 -2.63672,1.992187 -3.38672,3.339843 h -0.10546 v -16.21875 h -4.73438 z M 614.47457,-25.992581 h -4.72265 v 15.949218 c 0,0.8554692 -0.16407,1.7226567 -0.4336,2.414063 -0.85547,2.0976562 -3.05859,4.3007812 -6.22265,4.3007812 -4.30079,0 -5.80079,-3.328125 -5.80079,-8.2734372 v -14.390625 h -4.72265 v 15.199218 c 0,9.1289067 4.88672,11.37890675 8.96484,11.37890675 4.61719,0 7.35938,-2.73046875 8.58985,-4.82812505 h 0.10546 l 0.26954,4.24218755 h 4.19531 c -0.16406,-2.03906255 -0.22266,-4.40625005 -0.22266,-7.08984375 z m 8.91211,-6.222657 v 6.222657 h -4.03125 v 3.597656 h 4.03125 v 14.1796875 c 0,3.0585937 0.48047,5.3671875 1.82813,6.7617187 1.125,1.28906255 2.89453,1.99218755 5.09765,1.99218755 1.82813,0 3.28125,-0.26953125 4.19532,-0.64453125 l -0.22266,-3.5507813 c -0.58594,0.1640625 -1.5,0.328125 -2.73047,0.328125 -2.63672,0 -3.55078,-1.828125 -3.55078,-5.0507812 v -14.015625 h 6.77344 v -3.597656 h -6.77344 v -7.464844 z m 16.69629,32.21484425 h 4.73438 V -15.680081 c 0,-0.914063 0.0469,-1.605469 0.3164,-2.25 0.86719,-2.578125 3.28125,-4.734375 6.33985,-4.734375 4.45312,0 6.01171,3.550781 6.01171,7.734375 V -3.9375e-4 h 4.72266 V -15.469144 c 0,-8.964844 -5.57812,-11.109375 -9.07031,-11.109375 -1.76953,0 -3.4336,0.539063 -4.82813,1.335938 -1.45312,0.808593 -2.63672,1.992187 -3.38672,3.339843 h -0.10546 v -16.21875 h -4.73438 z m 29.79785,0 h 4.67578 V -13.851956 c 0,-0.808594 0.10547,-1.558594 0.21094,-2.203125 0.64453,-3.539063 3.01172,-6.070313 6.33984,-6.070313 0.64454,0 1.125,0.05859 1.61719,0.164063 v -4.453125 c -0.43359,-0.117188 -0.80859,-0.164063 -1.34765,-0.164063 -3.16407,0 -6.01172,2.203125 -7.19532,5.695313 h -0.21093 l -0.16407,-5.109375 h -4.13672 c 0.16407,2.425781 0.21094,5.050781 0.21094,8.109375 z M 697.91793,-26.578519 c -7.19531,0 -12.89062,5.097656 -12.89062,13.792969 0,8.2265625 5.42578,13.37109375 12.45703,13.37109375 6.28125,0 12.9375,-4.18359375 12.9375,-13.79296875 0,-7.945313 -5.03906,-13.371094 -12.50391,-13.371094 z m -0.10547,3.539063 c 5.57813,0 7.78125,5.589843 7.78125,9.996093 0,5.8476567 -3.38672,10.0898442 -7.89843,10.0898442 -4.61719,0 -7.88672,-4.3007812 -7.88672,-9.9843752 0,-4.945312 2.41406,-10.101562 8.0039,-10.101562 z m 29.58399,-3.539063 c -7.19532,0 -12.89063,5.097656 -12.89063,13.792969 0,8.2265625 5.42578,13.37109375 12.45703,13.37109375 6.28125,0 12.9375,-4.18359375 12.9375,-13.79296875 0,-7.945313 -5.03906,-13.371094 -12.5039,-13.371094 z m -0.10547,3.539063 c 5.57812,0 7.78125,5.589843 7.78125,9.996093 0,5.8476567 -3.38672,10.0898442 -7.89844,10.0898442 -4.61719,0 -7.88672,-4.3007812 -7.88672,-9.9843752 0,-4.945312 2.41406,-10.101562 8.00391,-10.101562 z m 18.56836,23.03906225 h 4.6289 V -15.680081 c 0,-0.808594 0.10547,-1.605469 0.375,-2.308594 0.75,-2.367188 2.89454,-4.722656 5.84766,-4.722656 3.59766,0 5.42578,3 5.42578,7.136718 V -3.9375e-4 h 4.61719 V -16.055081 c 0,-0.855469 0.16406,-1.722657 0.375,-2.367188 0.80859,-2.308594 2.89453,-4.289062 5.57812,-4.289062 3.82032,0 5.64844,3 5.64844,8.003906 V -3.9375e-4 h 4.61719 V -15.305081 c 0,-9.023438 -5.10938,-11.273438 -8.54297,-11.273438 -2.47266,0 -4.18359,0.644531 -5.74219,1.828125 -1.07812,0.796875 -2.09765,1.933594 -2.90625,3.375 h -0.10547 c -1.125,-3.058594 -3.80859,-5.203125 -7.34765,-5.203125 -4.30078,0 -6.71485,2.308594 -8.16797,4.78125 h -0.16406 l -0.21094,-4.195312 h -4.13672 c 0.16406,2.15625 0.21094,4.347656 0.21094,7.042968 z m 56.16504,0 h 4.73437 V -15.680081 c 0,-0.914063 0.0469,-1.605469 0.31641,-2.25 0.86719,-2.578125 3.28125,-4.734375 6.33984,-4.734375 4.45313,0 6.01172,3.550781 6.01172,7.734375 V -3.9375e-4 h 4.72266 V -15.469144 c 0,-8.964844 -5.57813,-11.109375 -9.07032,-11.109375 -1.76953,0 -3.43359,0.539063 -4.82812,1.335938 -1.45313,0.808593 -2.63672,1.992187 -3.38672,3.339843 h -0.10547 v -16.21875 h -4.73437 z M 852.71676,-12.141019 c 0.0469,-0.480469 0.16406,-1.230469 0.16406,-2.191406 0,-4.78125 -2.26172,-12.246094 -10.74609,-12.246094 -7.57031,0 -12.1875,6.175781 -12.1875,14.015625 0,7.839844 4.78125,13.10156275 12.78515,13.10156275 4.125,0 6.97266,-0.85546875 8.63672,-1.61718755 l -0.79687,-3.375 c -1.78125,0.75 -3.82031,1.3359375 -7.19531,1.3359375 -4.73438,0 -8.8125,-2.625 -8.91797,-9.0234377 z m -18.19922,-3.375 c 0.375,-3.28125 2.46094,-7.675781 7.24219,-7.675781 5.32031,0 6.60937,4.664062 6.55078,7.675781 z m 24.20801,15.51562525 h 4.73437 V -38.121488 h -4.73437 z m 12.6709,10.62890575 h 4.67578 V -3.4925813 h 0.10547 c 1.55859,2.57812505 4.57031,4.07812505 8.0039,4.07812505 6.11719,0 11.8125,-4.61718755 11.8125,-13.95703175 0,-7.886718 -4.72265,-13.207031 -11.0039,-13.207031 -4.24219,0 -7.30078,1.875 -9.23438,5.050781 h -0.11719 l -0.21093,-4.464843 h -4.24219 c 0.10547,2.472656 0.21094,5.15625 0.21094,8.484375 z m 4.67578,-25.664062 c 0,-0.644531 0.16406,-1.347656 0.32812,-1.933594 0.91407,-3.539062 3.91407,-5.847656 7.13672,-5.847656 4.99219,0 7.73438,4.453125 7.73438,9.65625 0,5.9648437 -2.90625,10.0429687 -7.89844,10.0429687 -3.375,0 -6.22266,-2.25 -7.08984,-5.53125 -0.10547,-0.5859375 -0.21094,-1.2304687 -0.21094,-1.9335937 z m 26.63672,15.62109375 c 1.98047,0 3.22265,-1.44140625 3.22265,-3.37500005 0,-1.9921875 -1.28906,-3.3867187 -3.17578,-3.3867187 -1.875,0 -3.22265,1.3945312 -3.22265,3.3867187 0,1.9335938 1.28906,3.37500005 3.17578,3.37500005 z M 618.76949,48.4332 h 4.67579 V 32.753512 h 4.40625 c 4.24218,0.164063 6.17578,2.039063 7.24218,7.03125 1.01953,4.511719 1.82813,7.628907 2.41407,8.648438 h 4.83984 c -0.75,-1.394531 -1.61719,-4.886719 -2.80078,-9.9375 -0.85547,-3.75 -2.51953,-6.328125 -5.3086,-7.300781 v -0.164063 c 3.8086,-1.289062 6.82032,-4.453125 6.82032,-9.234375 0,-2.789062 -1.01953,-5.261719 -2.84766,-6.867187 -2.26172,-2.039063 -5.47266,-2.953125 -10.47656,-2.953125 -3.21094,0 -6.59766,0.269531 -8.96485,0.75 z m 4.67579,-32.4375 c 0.75,-0.210938 2.35546,-0.421875 4.61718,-0.421875 4.9336,0.04687 8.32032,2.097656 8.32032,6.761719 0,4.136718 -3.16407,6.878906 -8.15625,6.878906 h -4.78125 z m 35.27636,5.859375 c -7.19531,0 -12.89062,5.097656 -12.89062,13.792969 0,8.226562 5.42578,13.371093 12.45703,13.371093 6.28125,0 12.9375,-4.183593 12.9375,-13.792968 0,-7.945313 -5.03906,-13.371094 -12.50391,-13.371094 z m -0.10547,3.539062 c 5.57813,0 7.78125,5.589844 7.78125,9.996094 0,5.847656 -3.38672,10.089844 -7.89843,10.089844 -4.61719,0 -7.88672,-4.300781 -7.88672,-9.984375 0,-4.945313 2.41406,-10.101563 8.0039,-10.101563 z M 677.18453,48.4332 h 4.73438 V 10.312106 h -4.73438 z m 12.6709,0 h 4.73438 V 10.312106 h -4.73438 z m 17.4082,0 V 22.441012 h -4.73437 V 48.4332 Z m -2.36718,-36.246094 c -1.72266,0 -2.95313,1.289063 -2.95313,2.953125 0,1.617188 1.1836,2.90625 2.84766,2.90625 1.875,0 3.05859,-1.289062 3.01172,-2.90625 0,-1.664062 -1.13672,-2.953125 -2.90625,-2.953125 z M 715.09176,48.4332 h 4.73437 V 32.812106 c 0,-0.808594 0.10547,-1.617187 0.31641,-2.203125 0.80859,-2.636719 3.22266,-4.839844 6.33984,-4.839844 4.45313,0 6.01172,3.492188 6.01172,7.6875 V 48.4332 h 4.72266 V 32.917575 c 0,-8.917969 -5.57813,-11.0625 -9.17578,-11.0625 -4.30078,0 -7.30078,2.414062 -8.58985,4.886719 h -0.11718 l -0.25782,-4.300782 h -4.19531 c 0.16406,2.15625 0.21094,4.347657 0.21094,7.042969 z m 48.05859,-25.992188 -0.21093,3.925782 h -0.10547 c -1.125,-2.144532 -3.59766,-4.511719 -8.10938,-4.511719 -5.96484,0 -11.70703,4.992187 -11.70703,13.792969 0,7.195312 4.61719,12.679687 11.0625,12.679687 4.03125,0 6.82031,-1.933594 8.27344,-4.347656 h 0.10547 v 2.894531 c 0,6.550781 -3.55078,9.070313 -8.37891,9.070313 -3.22266,0 -5.90625,-0.960938 -7.62891,-2.039063 l -1.17187,3.597656 c 2.08594,1.394532 5.53125,2.15625 8.63672,2.15625 3.28125,0 6.92578,-0.761718 9.45703,-3.117187 2.51953,-2.261719 3.70312,-5.90625 3.70312,-11.871094 V 29.58945 c 0,-3.175781 0.10547,-5.261719 0.21094,-7.148438 z m -0.75,14.929688 c 0,0.808594 -0.10547,1.722656 -0.375,2.519531 -1.01953,3.011719 -3.64453,4.839844 -6.55078,4.839844 -5.09765,0 -7.67578,-4.242188 -7.67578,-9.339844 0,-6.023437 3.22266,-9.832031 7.73438,-9.832031 3.43359,0 5.74218,2.261719 6.59765,4.992187 0.22266,0.644532 0.26953,1.347657 0.26953,2.144532 z m 22.22754,9.292969 c 1.9336,1.289062 5.75391,2.308593 9.2461,2.308593 8.53125,0 12.66796,-4.839843 12.66796,-10.417968 0,-5.320313 -3.11718,-8.273438 -9.23437,-10.628907 -4.99219,-1.933593 -7.19531,-3.597656 -7.19531,-6.984375 0,-2.472656 1.875,-5.425781 6.82031,-5.425781 3.26953,0 5.68359,1.078125 6.86719,1.722656 l 1.28906,-3.808593 c -1.60547,-0.914063 -4.28906,-1.78125 -8.00391,-1.78125 -7.03125,0 -11.69531,4.195312 -11.69531,9.832031 0,5.097656 3.64453,8.15625 9.55078,10.253906 4.88672,1.875 6.82031,3.808594 6.82031,7.195313 0,3.65625 -2.78906,6.175781 -7.57031,6.175781 -3.22265,0 -6.28125,-1.078125 -8.3789,-2.367188 z m 46.18653,-2.742188 c -1.34766,0.597656 -3.11719,1.289063 -5.80079,1.289063 -5.15625,0 -9.02343,-3.703125 -9.02343,-9.714844 0,-5.425781 3.22265,-9.832031 9.17578,-9.832031 2.57812,0 4.35937,0.597656 5.48437,1.242187 l 1.06641,-3.65625 c -1.28906,-0.644531 -3.75,-1.347656 -6.55078,-1.347656 -8.48438,0 -13.95703,5.800781 -13.95703,13.804687 0,7.945313 5.09765,13.265625 12.9375,13.265625 3.49218,0 6.23437,-0.855468 7.46484,-1.5 z m 17.01855,-22.066406 c -7.19531,0 -12.89062,5.097656 -12.89062,13.792969 0,8.226562 5.42578,13.371093 12.45703,13.371093 6.28125,0 12.9375,-4.183593 12.9375,-13.792968 0,-7.945313 -5.03907,-13.371094 -12.50391,-13.371094 z m -0.10547,3.539062 c 5.57813,0 7.78125,5.589844 7.78125,9.996094 0,5.847656 -3.38672,10.089844 -7.89844,10.089844 -4.61718,0 -7.88671,-4.300781 -7.88671,-9.984375 0,-4.945313 2.41406,-10.101563 8.0039,-10.101563 z m 29.58399,-3.539062 c -7.19532,0 -12.89063,5.097656 -12.89063,13.792969 0,8.226562 5.42578,13.371093 12.45703,13.371093 6.28125,0 12.9375,-4.183593 12.9375,-13.792968 0,-7.945313 -5.03906,-13.371094 -12.5039,-13.371094 z m -0.10547,3.539062 c 5.57812,0 7.78125,5.589844 7.78125,9.996094 0,5.847656 -3.38672,10.089844 -7.89844,10.089844 -4.61719,0 -7.88672,-4.300781 -7.88672,-9.984375 0,-4.945313 2.41406,-10.101563 8.00391,-10.101563 z M 895.77438,48.4332 h 4.67578 V 34.581637 c 0,-0.808593 0.10547,-1.558593 0.21094,-2.203125 0.64453,-3.539062 3.01171,-6.070312 6.33984,-6.070312 0.64453,0 1.125,0.05859 1.61719,0.164062 v -4.453125 c -0.4336,-0.117187 -0.8086,-0.164062 -1.34766,-0.164062 -3.16406,0 -6.01172,2.203125 -7.19531,5.695312 h -0.21094 l -0.16406,-5.109375 h -4.13672 c 0.16406,2.425782 0.21094,5.050782 0.21094,8.109375 z m 0,0" style="fill:#231916;fill-opacity:1;fill-rule:nonzero;stroke:none" aria-label="It’s about the hadoma as huthroom help.&#10;                                                      Rolling Scoor" transform="matrix(1.3333333,0,0,1.3333333,1742.5521,3106.4224)" />
    </g></svg>