<?xml version='1.0' encoding='utf-8'?>
<svg xmlns="http://www.w3.org/2000/svg" version="1.1" width="324.579" height="458.014" viewBox="2675.370 908.506 324.579 458.014"><defs id="defs1"><clipPath clipPathUnits="userSpaceOnUse" id="clipPath4">
      <path d="M -2384.1568,2286.7354 H -0.21670001 V -1083.6547 H -2384.1568 Z" id="path4" />
    </clipPath>
    <clipPath clipPathUnits="userSpaceOnUse" id="clipPath6">
      <path d="M -2384.0266,1933.815 H -0.086575 v -3370.39 H -2384.0266 Z" id="path6" />
    </clipPath>
    <clipPath clipPathUnits="userSpaceOnUse" id="clipPath8">
      <path d="M -2384.1847,2520.3537 H -0.24460001 V -850.0364 H -2384.1847 Z" id="path8" />
    </clipPath>
    <clipPath clipPathUnits="userSpaceOnUse" id="clipPath10">
      <path d="M -1378.8652,3371.3417 H 1005.0749 V 0.95157502 h -2383.9401 z" id="path10" />
    </clipPath>
    <clipPath clipPathUnits="userSpaceOnUse" id="clipPath12">
      <path d="M -2383.8391,1819.185 H 0.100925 v -3370.39 H -2383.8391 Z" id="path12" />
    </clipPath>
    <clipPath clipPathUnits="userSpaceOnUse" id="clipPath14">
      <path d="M -2384.2639,1767.3618 H -0.32387501 V -1603.0283 H -2384.2639 Z" id="path14" />
    </clipPath>
  </defs><g id="object"><path id="path28" d="m 0,0 c -42.755,0.235 -85.539,1.473 -128.252,0.241 -18.776,-0.541 -19.955,8.07 -19.898,22.745 0.369,95.077 0.567,190.163 -0.375,285.233 -0.19,19.136 4.289,28.106 24.796,25.478 9.288,-1.191 18.932,0.409 28.415,0.743 15.992,0.87 22.071,-6.293 20.952,-22.505 -1.015,-14.724 0.664,-29.633 1.155,-44.46 -2.806,-25.599 -2.098,-51.213 -0.347,-76.832 -2.535,-41.144 -2.298,-82.286 0.093,-123.425 -0.182,-5.246 3.332,-4.527 6.651,-4.12 C -23.386,62.594 20.058,61.135 63.453,62.04 81.649,62.42 87.863,56.482 85.382,39.164 84.606,33.747 84.706,28.051 85.392,22.608 87.505,5.82 80.26,0.823 63.881,1.519 42.647,2.422 21.299,0.631 0,0" style="fill:#9e998f;fill-opacity:1;fill-rule:nonzero;stroke:none" transform="matrix(1.3333333,0,0,-1.3333333,2879.4083,1360.5197)" />
      </g></svg>