<?xml version='1.0' encoding='utf-8'?>
<svg xmlns="http://www.w3.org/2000/svg" version="1.1" width="346.639" height="454.379" viewBox="2641.940 2394.910 346.639 454.379"><defs id="defs1"><clipPath clipPathUnits="userSpaceOnUse" id="clipPath4">
      <path d="M -2384.1568,2286.7354 H -0.21670001 V -1083.6547 H -2384.1568 Z" id="path4" />
    </clipPath>
    <clipPath clipPathUnits="userSpaceOnUse" id="clipPath6">
      <path d="M -2384.0266,1933.815 H -0.086575 v -3370.39 H -2384.0266 Z" id="path6" />
    </clipPath>
    <clipPath clipPathUnits="userSpaceOnUse" id="clipPath8">
      <path d="M -2384.1847,2520.3537 H -0.24460001 V -850.0364 H -2384.1847 Z" id="path8" />
    </clipPath>
    <clipPath clipPathUnits="userSpaceOnUse" id="clipPath10">
      <path d="M -1378.8652,3371.3417 H 1005.0749 V 0.95157502 h -2383.9401 z" id="path10" />
    </clipPath>
    <clipPath clipPathUnits="userSpaceOnUse" id="clipPath12">
      <path d="M -2383.8391,1819.185 H 0.100925 v -3370.39 H -2383.8391 Z" id="path12" />
    </clipPath>
    <clipPath clipPathUnits="userSpaceOnUse" id="clipPath14">
      <path d="M -2384.2639,1767.3618 H -0.32387501 V -1603.0283 H -2384.2639 Z" id="path14" />
    </clipPath>
  </defs><g id="object"><path id="path23" d="m 0,0 c -0.524,104.658 -0.839,209.319 -1.807,313.973 -0.138,14.902 7.18,16.37 19.111,16.331 54.692,-0.18 109.387,0.241 164.081,0.446 13.298,-0.346 26.716,0.263 39.849,-1.395 7.924,-1 21.4,7.318 23.017,-6.91 1.878,-16.525 6.5,-34.296 -2.81,-50.034 -3.275,-5.536 -11.601,-2.979 -17.736,-3.349 -9.362,-0.566 -18.733,-0.989 -28.1,-1.473 -36.493,0.243 -72.987,0.55 -109.481,0.668 -6.196,0.02 -13.869,0.736 -14.112,-8.46 -0.46,-17.453 -0.507,-34.933 -0.069,-52.386 0.229,-9.144 8.037,-8.578 14.16,-8.545 34.869,0.184 69.735,0.66 104.603,1.036 6.244,-0.577 12.597,-2.184 18.711,-1.535 17.094,1.816 23.849,-3.955 23.3,-22.296 -1.014,-33.877 0.041,-33.802 -34.93,-34.117 -8.615,-0.077 -17.221,-1.099 -25.831,-1.687 -13.397,0.513 -26.796,1.502 -40.192,1.457 -61.571,-0.204 -61.57,-0.308 -60.357,-62.46 0.031,-1.583 0.166,-3.188 -0.03,-4.748 -1.471,-11.74 4.686,-15.437 15.321,-15.162 25.271,0.654 50.548,1.062 75.823,1.569 23.447,-0.63 46.896,-1.763 70.341,-1.682 12.159,0.042 17.076,-4.297 16.086,-16.569 -0.752,-9.332 -0.603,-18.824 0.137,-28.167 C 250.019,2.701 243.15,-0.217 233.569,-0.894 232.074,-0.01 230.58,-0.016 229.09,-0.91 152.726,-0.606 76.363,-0.303 0,0" style="fill:#9e998f;fill-opacity:1;fill-rule:nonzero;stroke:none" transform="matrix(1.3333333,0,0,-1.3333333,2650.3528,2842.0723)" />
      </g></svg>