<?xml version='1.0' encoding='utf-8'?>
<svg xmlns="http://www.w3.org/2000/svg" version="1.1" width="375.206" height="168.379" viewBox="1352.850 306.317 375.206 168.379"><g id="object"><path id="path10" d="m 0,0 c 1.134,11.883 -2.987,16.381 -9.904,16.956 -8.706,0.724 -12.136,-5.78 -13.081,-13.17 -0.831,-6.488 0.417,-13.544 8.483,-13.802 C -5.762,-10.295 -0.254,-5.053 0,0 M 44.9,17.299 C 37.506,16.09 33.07,11.502 33.345,3.211 c 0.194,-5.845 -1.489,-13.876 8.619,-12.956 8.049,0.732 11.723,6.256 13.547,13.812 2.091,8.662 -3.292,10.93 -10.611,13.232 M 67.888,-44.446 C 32.04,-47.11 31.061,-46.409 16.583,-7.289 c -4.729,-3.012 -9.856,-5.4 -13.838,-9.042 -4.72,-4.317 -16.041,-4.073 -13.098,-13.665 2.406,-7.84 10.615,-4.552 16.667,-3.745 2.997,0.399 6.356,2.366 7.52,-2.187 1.226,-4.796 -1.678,-7.649 -5.872,-8.638 -14.9,-3.515 -28.906,-3.07 -36.831,12.762 -4.144,8.279 -6.793,17.308 -10.532,27.085 -16.272,-38.734 -17.869,-38.742 -47.25,-1.465 -6.91,-2.375 -6.764,-9.718 -10.202,-14.479 -5.781,-8.01 -9.036,-20.618 -21.927,-18.782 -11.071,1.577 -12.752,13.014 -16.103,21.611 -6.225,15.969 -4.05,32.775 -3.844,49.35 0.08,6.423 2.621,11.005 9.631,10.901 7.484,-0.11 9.062,-6.236 8.58,-11.651 -1.403,-15.759 -0.606,-31.016 5.095,-46.316 11.127,3.289 9.002,12.463 11.953,19.085 3.646,8.182 5.358,19.689 17.624,19.948 12.237,0.258 14.065,-10.935 18.417,-19.017 1.729,-3.211 -0.29,-8.148 6.002,-10.536 8.039,11.737 3.732,25.127 4.563,37.703 0.527,7.964 -4.792,20.6 8.4,20.62 11.183,0.017 9.793,-12.118 10.17,-20.619 0.198,-4.456 0.035,-8.929 0.035,-17.395 17.796,20.667 34.455,22.523 49.943,3.966 5.825,-6.979 7.389,-4.138 11.271,0.982 11.319,14.931 24.711,14.985 39.268,4.588 2.872,-2.051 5.025,-7.491 9.457,-4.505 4.295,2.893 4.645,8.267 3.165,12.925 -3.222,10.139 -3.66,20.333 -0.968,30.478 1.34,5.049 5.356,7.793 10.925,6.646 5.084,-1.047 5.303,-5.327 5.15,-9.235 -0.463,-11.838 -1.236,-23.664 -1.848,-35.496 -0.528,-10.216 0.896,-16.169 13.023,-8.49 5.102,3.229 13.344,10.36 18.321,1.159 3.4,-6.284 -5.71,-7.617 -9.708,-10.611 -10.524,-7.881 -5.205,-13.878 1.196,-21.354 7.627,-8.91 29.16,-16.145 19.958,-26.899 -10.223,-11.949 -18.837,10.497 -29.844,14.647 -2.105,0.794 -4.048,2.015 -5.464,2.733 -12.988,-1.09 9.578,-34.23 -19.132,-19.883 -0.058,11.592 -1.676,22.84 -6.759,34.615 -4.444,-2.496 -8.135,-3.982 -11.103,-6.367 -5.196,-4.176 -16.078,-4.969 -14.276,-13.343 2.048,-9.519 11.307,-5.091 18.008,-4.383 11.121,1.176 10.094,-3.965 5.562,-10.858" style="fill:#e6e5e5;fill-opacity:1;fill-rule:nonzero;stroke:none" transform="matrix(1.3333333,0,0,-1.3333333,1544.528,405.088)" />
      </g></svg>