<?xml version='1.0' encoding='utf-8'?>
<svg xmlns="http://www.w3.org/2000/svg" version="1.1" width="125.464" height="180.965" viewBox="1693.540 622.203 125.464 180.965"><defs id="defs1"><clipPath clipPathUnits="userSpaceOnUse" id="clipPath46">
      <path d="M 0,3370.3901 H 2383.9401 V -2.5000001e-5 H 0 Z" id="path46" />
    </clipPath>
  </defs><g id="object"><path id="path35" d="m 0,0 c 0.008,12.258 -0.46,24.539 0.164,36.765 0.456,8.913 -3.11,22.316 10.952,22.568 15.186,0.272 13.152,-13.702 13.498,-23.721 0.573,-16.616 1.291,-33.355 -0.055,-49.879 -1.894,-23.273 7.992,-32.436 30.559,-29.844 4.312,0.495 8.766,0.194 13.116,-0.182 7.892,-0.68 17.495,-0.926 16.651,-11.926 -0.723,-9.404 -9.858,-7.993 -16.607,-8.615 C 0.022,-71.125 0.021,-71.117 0,0" style="fill:#424242;fill-opacity:1;fill-rule:nonzero;stroke:none" transform="matrix(1.3333333,0,0,-1.3333333,1699.7515,707.3188)" />
      </g></svg>