<?xml version='1.0' encoding='utf-8'?>
<svg xmlns="http://www.w3.org/2000/svg" version="1.1" width="123.692" height="194.361" viewBox="325.272 827.199 123.692 194.361"><defs id="defs1"><clipPath clipPathUnits="userSpaceOnUse" id="clipPath59">
      <path d="M 0,3370.3901 H 2383.9401 V -2.5000001e-5 H 0 Z" id="path59" />
    </clipPath>
  </defs><g id="object"><path id="path13" d="M 0,0 C 0.48,20.396 14.433,35.118 37.063,37.749 56.734,40.036 72.123,32.03 78.421,13.156 85.049,-6.705 75.252,-21.159 56.948,-28.64 45.894,-33.157 47.544,-38.648 51.08,-47.026 c 5.738,-13.596 14.932,-24.144 26.031,-33.445 4.139,-3.47 9.413,-6.983 4.964,-13.702 -4.334,-6.542 -9.135,-4.244 -16.025,-3.286 C 42.875,-94.237 41.626,-72.47 31.284,-59.036 10.436,-31.954 -0.213,-9.033 0,0" style="fill:#ffffff;fill-opacity:1;fill-rule:nonzero;stroke:none" transform="matrix(1.3333333,0,0,-1.3333333,331.27667,884.03787)" />
      </g></svg>