<?xml version='1.0' encoding='utf-8'?>
<svg xmlns="http://www.w3.org/2000/svg" version="1.1" width="115.170" height="196.799" viewBox="445.741 828.201 115.170 196.799"><defs id="defs1"><clipPath clipPathUnits="userSpaceOnUse" id="clipPath59">
      <path d="M 0,3370.3901 H 2383.9401 V -2.5000001e-5 H 0 Z" id="path59" />
    </clipPath>
  </defs><g id="object"><path id="path24" d="m 0,0 c -2.127,-21.291 -3.467,-36.196 -22.882,-40.144 -9.643,-1.96 -9.505,-8.94 -6.447,-16.64 5.425,-13.658 14.705,-24.232 25.874,-33.44 4.98,-4.105 10.799,-9.347 6.977,-15.917 -4.354,-7.486 -13.146,-4.778 -19.19,-2.5 -24.086,9.08 -62.242,84.393 -56.341,109.764 3.921,16.855 23.693,29.792 41.807,25.642 C -13.408,22.918 -0.378,14.122 0,0" style="fill:#ffffff;fill-opacity:1;fill-rule:nonzero;stroke:none" transform="matrix(1.3333333,0,0,-1.3333333,548.56853,870.9292)" />
      </g></svg>