<?xml version='1.0' encoding='utf-8'?>
<svg xmlns="http://www.w3.org/2000/svg" version="1.1" width="115.693" height="197.870" viewBox="2622.650 824.754 115.693 197.870"><defs id="defs1"><clipPath clipPathUnits="userSpaceOnUse" id="clipPath59">
      <path d="M 0,3370.3901 H 2383.9401 V -2.5000001e-5 H 0 Z" id="path59" />
    </clipPath>
  </defs><g id="object"><path id="path15" d="m 0,0 c -5.684,-40.632 -29.937,-70.996 -61.168,-96.998 -5.308,-4.419 -9.937,-3.446 -14.152,1.972 -4.661,5.99 -1.879,10.128 2.908,13.973 9.978,8.017 18.396,17.367 24.676,28.584 6.448,11.518 9.176,20.197 -7.393,27.343 -17.464,7.533 -22.721,23.585 -16.35,41.876 6.101,17.515 25.274,26.649 44.856,21.388 C -8.121,33.167 0.855,20.639 0,0" style="fill:#ffffff;fill-opacity:1;fill-rule:nonzero;stroke:none" transform="matrix(1.3333333,0,0,-1.3333333,2732.2728,883.5796)" />
      </g></svg>