<?xml version='1.0' encoding='utf-8'?>
<svg xmlns="http://www.w3.org/2000/svg" version="1.1" width="281.738" height="354.998" viewBox="2013.990 1113.200 281.738 354.998"><g id="object"><path id="path69" d="m 0,0 c -0.106,5.299 -9.282,12.366 -15.73,15.03 -6.259,2.587 -14.534,-0.255 -21.731,0.717 -19.668,2.655 -25.171,-5.678 -24.637,-24.822 1.271,-45.583 1.215,-91.251 -0.246,-136.822 -0.299,-9.31 -6.749,-22.291 -14.381,-26.839 -36.473,-21.736 -63.446,-5.258 -63.479,37.142 -0.039,49.417 -0.009,98.834 -0.009,149.623 h -60.562 c 0,-55.182 -0.411,-108.762 0.114,-162.334 0.542,-55.327 36.934,-90.425 94.84,-92.605 59.653,-2.246 102.502,30.121 105.54,84.578 C 2.618,-104.36 1.045,-52.103 0,0" style="fill:#231916;fill-opacity:1;fill-rule:nonzero;stroke:none" transform="matrix(1.3333333,0,0,-1.3333333,2287.8947,1140.8373)" />
      </g></svg>