<?xml version='1.0' encoding='utf-8'?>
<svg xmlns="http://www.w3.org/2000/svg" version="1.1" width="309.237" height="74.805" viewBox="2747.570 4296.850 309.237 74.805"><g id="object"><path id="path117" d="M 5.6614016,6.109375e-4 H 7.7004641 V -15.597045 H 5.9074953 l -3.4101562,1.816406 0.4101562,1.617187 2.7070313,-1.464843 h 0.046875 z m 13.5673824,0 h 2.085938 V -6.1634516 l 1.535156,-1.78125 5.332031,7.9453125375 h 2.460938 L 24.338159,-9.3157953 30.197534,-16.171264 h -2.601562 l -4.933594,6.070312 c -0.410156,0.5273442 -0.84375,1.1015629 -1.277344,1.7226567 h -0.07031 v -7.7929687 h -2.085938 z m 13.177735,0 h 2.109375 V -6.9837641 c 0,-0.3632812 0.04687,-0.7148437 0.140625,-0.984375 0.363281,-1.171875 1.441406,-2.1562499 2.835937,-2.1562499 1.992188,0 2.683594,1.5585937 2.683594,3.4335937 V 6.109375e-4 h 2.109375 V -6.9368891 c 0,-3.9843749 -2.496094,-4.9453129 -4.101563,-4.9453129 -1.921875,0 -3.257812,1.078125 -3.84375,2.1914067 h -0.04687 L 34.17605,-11.61267 h -1.875 c 0.07031,0.960937 0.105469,1.9453122 0.105469,3.1406247 z m 15.427734,0 V -11.61267 H 45.724878 V 6.109375e-4 Z M 46.779566,-16.194702 c -0.773438,0 -1.324219,0.574219 -1.324219,1.3125 0,0.726563 0.527344,1.300782 1.277344,1.300782 0.832031,0 1.359375,-0.574219 1.335937,-1.300782 0,-0.738281 -0.503906,-1.3125 -1.289062,-1.3125 z m 12.717773,4.582032 -0.09375,1.7460934 h -0.04687 c -0.503906,-0.9609374 -1.617187,-2.0156254 -3.632812,-2.0156254 -2.660157,0 -5.226563,2.2382817 -5.226563,6.1757817 0,3.2109375 2.0625,5.66015624 4.945313,5.66015624 1.792968,0 3.046875,-0.8671875 3.691406,-1.94531254 h 0.04687 v 1.30078129 c 0,2.91796871 -1.582031,4.05468751 -3.738281,4.05468751 -1.441407,0 -2.648438,-0.4335938 -3.410157,-0.9140625 l -0.527343,1.6054687 c 0.9375,0.6210938 2.472656,0.9609375 3.867187,0.9609375 1.453125,0 3.09375,-0.3398437 4.21875,-1.3945312 1.125,-1.0078125 1.652344,-2.63671876 1.652344,-5.296875 v -6.75 c 0,-1.4179688 0.04687,-2.3554687 0.105469,-3.1874997 z m -0.339844,6.6679684 c 0,0.3632813 -0.04687,0.7734375 -0.164062,1.125 -0.457031,1.3476563 -1.628906,2.1679688 -2.929688,2.1679688 -2.285156,0 -3.433593,-1.8984375 -3.433593,-4.1835938 0,-2.6835937 1.441406,-4.3828124 3.457031,-4.3828124 1.535156,0 2.566406,1.0078124 2.953125,2.2265624 0.09375,0.2929688 0.117187,0.5976563 0.117187,0.9609375 z m 5.601563,4.9453125375 h 2.109375 V -7.0072016 c 0,-0.4101562 0.02344,-0.7148437 0.140625,-1.0078125 0.386719,-1.1484375 1.464844,-2.1093749 2.835937,-2.1093749 1.992188,0 2.683594,1.5820312 2.683594,3.4570312 V 6.109375e-4 h 2.109375 V -6.9134516 c 0,-4.0078124 -2.496094,-4.9687504 -4.054687,-4.9687504 -0.785157,0 -1.535157,0.246094 -2.15625,0.597657 -0.644532,0.363281 -1.183594,0.890625 -1.511719,1.4882809 h -0.04687 v -7.2421879 h -2.10938 z M 78.449487,-14.401733 v 2.789063 h -1.792968 v 1.605468 h 1.792968 v 6.3398442 c 0,1.359375 0.222657,2.390625 0.820313,3.02343749 0.503906,0.57421875 1.300781,0.87890625 2.285156,0.87890625 0.808594,0 1.464844,-0.1171875 1.863281,-0.28125 l -0.09375,-1.58203124 c -0.257812,0.070312 -0.667968,0.140625 -1.21875,0.140625 -1.183593,0 -1.582031,-0.8203125 -1.582031,-2.25 v -6.2695317 h 3.023438 v -1.605468 h -3.023438 v -3.339844 z m 6.65625,13.85156269 c 0.820313,0.48046875 1.992188,0.78515625 3.257813,0.78515625 2.765625,0 4.347656,-1.42968754 4.347656,-3.46875004 0,-1.734375 -1.03125,-2.7421875 -3.046875,-3.5039062 -1.511719,-0.5859375 -2.203125,-1.0195313 -2.203125,-1.96875 0,-0.8671875 0.691406,-1.5937497 1.933594,-1.5937497 1.089844,0 1.921875,0.3867184 2.378906,0.6796872 l 0.527344,-1.5351562 c -0.644531,-0.386719 -1.675781,-0.726563 -2.847656,-0.726563 -2.496094,0 -4.007813,1.535157 -4.007813,3.4101567 0,1.3945312 0.984375,2.5429687 3.070313,3.2929687 1.558593,0.5742188 2.15625,1.125 2.15625,2.1328125 0,0.9609375 -0.714844,1.7226563 -2.261719,1.7226563 -1.054688,0 -2.15625,-0.4335938 -2.777344,-0.8320313 z M 97.152612,6.109375e-4 97.246362,-1.9212641 h 0.07031 c 0.867187,1.53515629 2.214844,2.19140629 3.890628,2.19140629 2.58984,0 5.20312,-2.07421879 5.20312,-6.22265629 0.0352,-3.5273437 -2.01562,-5.9296879 -4.88671,-5.9296879 -1.875007,0 -3.222663,0.84375 -3.960944,2.1445317 h -0.04687 v -7.3007817 h -2.085938 v 14.0390629 c 0,1.03125 -0.05859,2.20312504 -0.105469,3.0000000375 z M 97.515894,-6.7376703 c 0,-0.3398438 0.07031,-0.6328125 0.117187,-0.8671875 0.433594,-1.6054688 1.769531,-2.5898442 3.210939,-2.5898442 2.26172,0 3.45703,1.9921879 3.45703,4.3125004 0,2.671875 -1.3125,4.4648438 -3.52734,4.4648438 -1.53516,0 -2.75391,-1.0078125 -3.164066,-2.4726563 -0.04687,-0.234375 -0.09375,-0.5039062 -0.09375,-0.7617187 z M 109.08523,6.109375e-4 h 2.08594 V -6.1868891 c 0,-0.3632812 0.0469,-0.703125 0.0937,-0.984375 0.28125,-1.59375 1.34765,-2.71875 2.83593,-2.71875 0.28125,0 0.50391,0.023437 0.71485,0.070312 V -11.81189 c -0.1875,-0.04687 -0.36328,-0.07031 -0.59766,-0.07031 -1.41797,0 -2.69531,0.984375 -3.22265,2.5429697 h -0.0937 l -0.0703,-2.2734377 h -1.85156 c 0.0703,1.078125 0.10547,2.2500002 0.10547,3.6210939 z m 10.05469,0 V -11.61267 h -2.10938 V 6.109375e-4 Z M 118.08523,-16.194702 c -0.77344,0 -1.32422,0.574219 -1.32422,1.3125 0,0.726563 0.52734,1.300782 1.27734,1.300782 0.83204,0 1.35938,-0.574219 1.33594,-1.300782 0,-0.738281 -0.5039,-1.3125 -1.28906,-1.3125 z m 12.47168,-0.84375 v 6.9375 h -0.0469 c -0.52734,-0.9375 -1.72265,-1.78125 -3.5039,-1.78125 -2.82422,0 -5.22656,2.3789067 -5.20313,6.2460942 0,3.5273437 2.15625,5.90624999 4.96875,5.90624999 1.89844,0 3.30469,-0.984375 3.96094,-2.28515629 h 0.0469 l 0.0937,2.0156250375 h 1.89843 C 132.70144,-0.79626406 132.678,-1.9681391 132.678,-2.9993891 V -17.038452 Z m 0,12.1640629 c 0,0.3398438 -0.0234,0.6328125 -0.0937,0.9140625 -0.38672,1.5820313 -1.67578,2.5195313 -3.09375,2.5195313 -2.28516,0 -3.43359,-1.9453125 -3.43359,-4.2890625 0,-2.578125 1.30078,-4.4882812 3.48046,-4.4882812 1.58204,0 2.74219,1.1015624 3.04688,2.4374999 0.0703,0.2695313 0.0937,0.6328125 0.0937,0.890625 z m 13.78125,-6.7382809 -0.0937,1.7460934 h -0.0469 c -0.5039,-0.9609374 -1.61718,-2.0156254 -3.63281,-2.0156254 -2.66015,0 -5.22656,2.2382817 -5.22656,6.1757817 0,3.2109375 2.0625,5.66015624 4.94531,5.66015624 1.79297,0 3.04688,-0.8671875 3.69141,-1.94531254 h 0.0469 v 1.30078129 c 0,2.91796871 -1.58203,4.05468751 -3.73828,4.05468751 -1.4414,0 -2.64844,-0.4335938 -3.41015,-0.9140625 l -0.52735,1.6054687 c 0.9375,0.6210938 2.47266,0.9609375 3.86719,0.9609375 1.45312,0 3.09375,-0.3398437 4.21875,-1.3945312 1.125,-1.0078125 1.65234,-2.63671876 1.65234,-5.296875 v -6.75 c 0,-1.4179688 0.0469,-2.3554687 0.10547,-3.1874997 z m -0.33984,6.6679684 c 0,0.3632813 -0.0469,0.7734375 -0.16407,1.125 -0.45703,1.3476563 -1.6289,2.1679688 -2.92968,2.1679688 -2.28516,0 -3.4336,-1.8984375 -3.4336,-4.1835938 0,-2.6835937 1.44141,-4.3828124 3.45703,-4.3828124 1.53516,0 2.56641,1.0078124 2.95313,2.2265624 0.0937,0.2929688 0.11719,0.5976563 0.11719,0.9609375 z m 14.92675,-0.4804687 c 0.0234,-0.2109375 0.0703,-0.5507813 0.0703,-0.984375 0,-2.1328125 -1.00782,-5.4726567 -4.79297,-5.4726567 -3.38672,0 -5.44922,2.7656254 -5.44922,6.2695317 0,3.5039062 2.13281,5.84765624 5.70703,5.84765624 1.85156,0 3.11719,-0.375 3.86719,-0.71484375 l -0.36328,-1.51171879 c -0.78516,0.3398438 -1.69922,0.5976563 -3.21094,0.5976563 -2.10938,0 -3.9375,-1.171875 -3.98438,-4.03125 z m -8.13281,-1.5117188 c 0.16406,-1.4648437 1.10156,-3.4335939 3.23438,-3.4335939 2.3789,0 2.95312,2.0859377 2.92968,3.4335939 z m 28.29199,-1.5585937 h -5.32031 v 1.6757812 h 3.28125 v 4.828125 c -0.48047,0.234375 -1.41797,0.4335938 -2.77734,0.4335938 -3.77344,0 -6.2461,-2.4257813 -6.2461,-6.5273438 0,-4.0546874 2.56641,-6.5039064 6.50391,-6.5039064 1.62891,0 2.71875,0.304688 3.57422,0.691406 l 0.5039,-1.699218 c -0.6914,-0.339844 -2.15625,-0.75 -4.03125,-0.75 -5.42578,0 -8.73046,3.527343 -8.7539,8.3554684 0,2.5195313 0.85547,4.6757813 2.25,6.0234375 1.58203,1.51171879 3.59765,2.13281254 6.04687,2.13281254 2.19141,0 4.03125,-0.55078125 4.96875,-0.87890625 z m 3.12891,8.4960937375 h 2.08594 V -6.1868891 c 0,-0.3632812 0.0469,-0.703125 0.0937,-0.984375 0.28125,-1.59375 1.34765,-2.71875 2.83593,-2.71875 0.28125,0 0.50391,0.023437 0.71485,0.070312 V -11.81189 c -0.1875,-0.04687 -0.36328,-0.07031 -0.59766,-0.07031 -1.41797,0 -2.69531,0.984375 -3.22265,2.5429697 h -0.0937 l -0.0703,-2.2734377 h -1.85156 c 0.0703,1.078125 0.10547,2.2500002 0.10547,3.6210939 z M 199.14968,-5.4251703 c 0.0234,-0.2109375 0.0703,-0.5507813 0.0703,-0.984375 0,-2.1328125 -1.00782,-5.4726567 -4.79297,-5.4726567 -3.38672,0 -5.44922,2.7656254 -5.44922,6.2695317 0,3.5039062 2.13281,5.84765624 5.70703,5.84765624 1.85156,0 3.11719,-0.375 3.86719,-0.71484375 l -0.36328,-1.51171879 c -0.78516,0.3398438 -1.69922,0.5976563 -3.21094,0.5976563 -2.10938,0 -3.9375,-1.171875 -3.98438,-4.03125 z m -8.13281,-1.5117188 c 0.16406,-1.4648437 1.10156,-3.4335939 3.23438,-3.4335939 2.3789,0 2.95312,2.0859377 2.92968,3.4335939 z m 20.15625,1.5117188 c 0.0234,-0.2109375 0.0703,-0.5507813 0.0703,-0.984375 0,-2.1328125 -1.00781,-5.4726567 -4.79297,-5.4726567 -3.38671,0 -5.44921,2.7656254 -5.44921,6.2695317 0,3.5039062 2.13281,5.84765624 5.70703,5.84765624 1.85156,0 3.11718,-0.375 3.86718,-0.71484375 l -0.36328,-1.51171879 c -0.78515,0.3398438 -1.69922,0.5976563 -3.21093,0.5976563 -2.10938,0 -3.9375,-1.171875 -3.98438,-4.03125 z m -8.13281,-1.5117188 c 0.16406,-1.4648437 1.10156,-3.4335939 3.23437,-3.4335939 2.37891,0 2.95313,2.0859377 2.92969,3.4335939 z m 10.82812,6.9375000375 h 2.10938 V -6.9837641 c 0,-0.3632812 0.0469,-0.7148437 0.14062,-0.984375 0.36328,-1.171875 1.44141,-2.1562499 2.83594,-2.1562499 1.99219,0 2.68359,1.5585937 2.68359,3.4335937 V 6.109375e-4 h 2.10938 V -6.9368891 c 0,-3.9843749 -2.49609,-4.9453129 -4.10156,-4.9453129 -1.92188,0 -3.25782,1.078125 -3.84375,2.1914067 h -0.0469 l -0.11719,-1.9218747 h -1.875 c 0.0703,0.960937 0.10547,1.9453122 0.10547,3.1406247 z m 0,0" style="fill:#231916;fill-opacity:1;fill-rule:nonzero;stroke:none" aria-label="1 Knightsbridge Green" transform="matrix(1.3333333,0,0,1.3333333,2751.8069,4326.2375)" />
      <path id="path118" d="m 0,0 h 2.04 v 15.6 h -1.8 l -3.408,-1.824 0.408,-1.608 2.712,1.464 H 0 Z" style="fill:none;stroke:#231916;stroke-width:1;stroke-linecap:butt;stroke-linejoin:miter;stroke-miterlimit:10;stroke-dasharray:none;stroke-opacity:1" transform="matrix(1.3333333,0,0,-1.3333333,2759.3591,4326.2375)" />
      <path id="path119" d="M 0,0 H 2.088 V 6.168 L 3.624,7.944 8.952,0 h 2.472 l -6.312,9.312 5.856,6.864 H 8.376 L 3.432,10.104 C 3.024,9.576 2.592,9 2.16,8.376 H 2.088 v 7.8 H 0 Z" style="fill:none;stroke:#231916;stroke-width:1;stroke-linecap:butt;stroke-linejoin:miter;stroke-miterlimit:10;stroke-dasharray:none;stroke-opacity:1" transform="matrix(1.3333333,0,0,-1.3333333,2777.4385,4326.2375)" />
      <path id="path120" d="m 0,0 h 2.112 v 6.984 c 0,0.36 0.048,0.72 0.144,0.984 0.36,1.176 1.44,2.16 2.832,2.16 1.992,0 2.688,-1.56 2.688,-3.432 V 0 h 2.112 v 6.936 c 0,3.984 -2.496,4.944 -4.104,4.944 -1.92,0 -3.264,-1.08 -3.84,-2.184 H 1.896 l -0.12,1.92 H -0.096 C -0.024,10.656 0,9.672 0,8.472 Z" style="fill:none;stroke:#231916;stroke-width:1;stroke-linecap:butt;stroke-linejoin:miter;stroke-miterlimit:10;stroke-dasharray:none;stroke-opacity:1" transform="matrix(1.3333333,0,0,-1.3333333,2795.0056,4326.2375)" />
      <path id="path121" d="M 0,0 V 11.616 H -2.112 V 0 Z m -1.056,16.2 c -0.768,0 -1.32,-0.576 -1.32,-1.32 0,-0.72 0.528,-1.296 1.272,-1.296 0.84,0 1.368,0.576 1.344,1.296 0,0.744 -0.504,1.32 -1.296,1.32 z" style="fill:none;stroke:#231916;stroke-width:1;stroke-linecap:butt;stroke-linejoin:miter;stroke-miterlimit:10;stroke-dasharray:none;stroke-opacity:1" transform="matrix(1.3333333,0,0,-1.3333333,2815.5811,4326.2375)" />
      <path id="path122" d="m 0,0 -0.096,-1.752 h -0.048 c -0.504,0.96 -1.608,2.016 -3.624,2.016 -2.664,0 -5.232,-2.232 -5.232,-6.168 0,-3.216 2.064,-5.664 4.944,-5.664 1.8,0 3.048,0.864 3.696,1.944 h 0.048 v -1.296 c 0,-2.929 -1.584,-4.057 -3.744,-4.057 -1.44,0 -2.64,0.433 -3.408,0.913 l -0.528,-1.608 c 0.936,-0.624 2.472,-0.96 3.864,-0.96 1.464,0 3.096,0.336 4.224,1.392 1.128,1.008 1.656,2.639 1.656,5.303 v 6.745 C 1.752,-1.776 1.8,-0.84 1.848,0 Z m -0.336,-6.672 c 0,-0.36 -0.048,-0.768 -0.168,-1.128 -0.456,-1.345 -1.632,-2.16 -2.928,-2.16 -2.28,0 -3.432,1.896 -3.432,4.176 0,2.687 1.44,4.391 3.456,4.391 1.536,0 2.568,-1.007 2.952,-2.231 0.096,-0.288 0.12,-0.601 0.12,-0.96 z" style="fill:none;stroke:#231916;stroke-width:1;stroke-linecap:butt;stroke-linejoin:miter;stroke-miterlimit:10;stroke-dasharray:none;stroke-opacity:1" transform="matrix(1.3333333,0,0,-1.3333333,2831.1332,4310.7492)" />
      <path id="path123" d="m 0,0 h 2.112 v 7.008 c 0,0.408 0.024,0.72 0.144,1.008 0.384,1.152 1.464,2.112 2.832,2.112 1.992,0 2.688,-1.584 2.688,-3.456 V 0 h 2.112 v 6.912 c 0,4.008 -2.496,4.968 -4.056,4.968 -0.792,0 -1.536,-0.24 -2.16,-0.6 C 3.024,10.92 2.496,10.392 2.16,9.792 H 2.112 V 17.04 H 0 Z" style="fill:none;stroke:#231916;stroke-width:1;stroke-linecap:butt;stroke-linejoin:miter;stroke-miterlimit:10;stroke-dasharray:none;stroke-opacity:1" transform="matrix(1.3333333,0,0,-1.3333333,2838.1409,4326.2375)" />
      <path id="path124" d="M 0,0 V -2.784 H -1.8 V -4.393 H 0 v -6.336 c 0,-1.368 0.216,-2.399 0.816,-3.023 0.504,-0.576 1.296,-0.889 2.28,-0.889 0.816,0 1.464,0.12 1.872,0.288 l -0.096,1.584 c -0.264,-0.072 -0.672,-0.143 -1.224,-0.143 -1.176,0 -1.584,0.815 -1.584,2.256 v 6.263 h 3.024 v 1.609 H 2.064 v 3.336 z" style="fill:none;stroke:#231916;stroke-width:1;stroke-linecap:butt;stroke-linejoin:miter;stroke-miterlimit:10;stroke-dasharray:none;stroke-opacity:1" transform="matrix(1.3333333,0,0,-1.3333333,2856.4124,4307.0369)" />
      <path id="path125" d="m 0,0 c 0.816,-0.479 1.992,-0.792 3.264,-0.792 2.76,0 4.344,1.44 4.344,3.48 0,1.728 -1.032,2.736 -3.048,3.504 C 3.048,6.769 2.352,7.2 2.352,8.16 c 0,0.864 0.696,1.584 1.944,1.584 1.08,0 1.92,-0.384 2.376,-0.672 L 7.2,10.608 c -0.648,0.384 -1.68,0.72 -2.856,0.72 -2.496,0 -4.008,-1.536 -4.008,-3.408 0,-1.392 0.984,-2.544 3.072,-3.288 1.56,-0.575 2.16,-1.128 2.16,-2.136 0,-0.96 -0.72,-1.727 -2.256,-1.727 -1.056,0 -2.16,0.431 -2.784,0.839 z" style="fill:none;stroke:#231916;stroke-width:1;stroke-linecap:butt;stroke-linejoin:miter;stroke-miterlimit:10;stroke-dasharray:none;stroke-opacity:1" transform="matrix(1.3333333,0,0,-1.3333333,2865.2771,4325.5017)" />
      <path id="path126" d="M 0,0 0.096,1.92 H 0.168 C 1.032,0.384 2.376,-0.264 4.056,-0.264 6.648,-0.264 9.264,1.8 9.264,5.952 9.288,9.48 7.248,11.88 4.368,11.88 2.496,11.88 1.152,11.04 0.408,9.744 H 0.36 V 17.04 H -1.728 V 3 c 0,-1.032 -0.048,-2.208 -0.096,-3 z m 0.36,6.744 c 0,0.336 0.072,0.624 0.12,0.864 0.432,1.608 1.776,2.592 3.216,2.592 2.256,0 3.456,-1.992 3.456,-4.32 0,-2.664 -1.32,-4.464 -3.528,-4.464 -1.536,0 -2.76,1.008 -3.168,2.472 C 0.408,4.128 0.36,4.392 0.36,4.656 Z" style="fill:none;stroke:#231916;stroke-width:1;stroke-linecap:butt;stroke-linejoin:miter;stroke-miterlimit:10;stroke-dasharray:none;stroke-opacity:1" transform="matrix(1.3333333,0,0,-1.3333333,2881.3408,4326.2375)" />
      <path id="path127" d="m 0,0 h 2.088 v 6.192 c 0,0.36 0.048,0.696 0.096,0.984 0.288,1.584 1.344,2.712 2.832,2.712 0.288,0 0.504,-0.024 0.72,-0.072 v 1.992 C 5.544,11.856 5.376,11.88 5.136,11.88 3.72,11.88 2.448,10.896 1.92,9.336 H 1.824 l -0.072,2.28 H -0.096 C -0.024,10.536 0,9.36 0,7.992 Z" style="fill:none;stroke:#231916;stroke-width:1;stroke-linecap:butt;stroke-linejoin:miter;stroke-miterlimit:10;stroke-dasharray:none;stroke-opacity:1" transform="matrix(1.3333333,0,0,-1.3333333,2897.2439,4326.2375)" />
      <path id="path128" d="M 0,0 V 11.616 H -2.112 V 0 Z m -1.056,16.2 c -0.768,0 -1.32,-0.576 -1.32,-1.32 0,-0.72 0.528,-1.296 1.272,-1.296 0.84,0 1.368,0.576 1.344,1.296 0,0.744 -0.504,1.32 -1.296,1.32 z" style="fill:none;stroke:#231916;stroke-width:1;stroke-linecap:butt;stroke-linejoin:miter;stroke-miterlimit:10;stroke-dasharray:none;stroke-opacity:1" transform="matrix(1.3333333,0,0,-1.3333333,2910.6513,4326.2375)" />
      <path id="path129" d="M 0,0 V -6.937 H -0.048 C -0.576,-6 -1.776,-5.16 -3.552,-5.16 c -2.832,0 -5.232,-2.376 -5.208,-6.24 0,-3.528 2.16,-5.904 4.968,-5.904 1.896,0 3.312,0.984 3.96,2.28 h 0.048 l 0.096,-2.016 h 1.896 c -0.072,0.792 -0.096,1.968 -0.096,3 V 0 Z m 0,-12.168 c 0,-0.336 -0.024,-0.624 -0.096,-0.912 -0.384,-1.584 -1.68,-2.52 -3.096,-2.52 -2.28,0 -3.432,1.944 -3.432,4.296 0,2.568 1.296,4.488 3.48,4.488 1.584,0 2.736,-1.104 3.048,-2.448 C -0.024,-9.528 0,-9.888 0,-10.152 Z" style="fill:none;stroke:#231916;stroke-width:1;stroke-linecap:butt;stroke-linejoin:miter;stroke-miterlimit:10;stroke-dasharray:none;stroke-opacity:1" transform="matrix(1.3333333,0,0,-1.3333333,2925.8832,4303.5173)" />
      <path id="path130" d="m 0,0 -0.096,-1.752 h -0.048 c -0.504,0.96 -1.608,2.016 -3.624,2.016 -2.664,0 -5.232,-2.232 -5.232,-6.168 0,-3.216 2.064,-5.664 4.944,-5.664 1.8,0 3.048,0.864 3.696,1.944 h 0.048 v -1.296 c 0,-2.929 -1.584,-4.057 -3.744,-4.057 -1.44,0 -2.64,0.433 -3.408,0.913 l -0.528,-1.608 c 0.936,-0.624 2.472,-0.96 3.864,-0.96 1.464,0 3.096,0.336 4.224,1.392 1.128,1.008 1.656,2.639 1.656,5.303 v 6.745 C 1.752,-1.776 1.8,-0.84 1.848,0 Z m -0.336,-6.672 c 0,-0.36 -0.048,-0.768 -0.168,-1.128 -0.456,-1.345 -1.632,-2.16 -2.928,-2.16 -2.28,0 -3.432,1.896 -3.432,4.176 0,2.687 1.44,4.391 3.456,4.391 1.536,0 2.568,-1.007 2.952,-2.231 0.096,-0.288 0.12,-0.601 0.12,-0.96 z" style="fill:none;stroke:#231916;stroke-width:1;stroke-linecap:butt;stroke-linejoin:miter;stroke-miterlimit:10;stroke-dasharray:none;stroke-opacity:1" transform="matrix(1.3333333,0,0,-1.3333333,2944.2516,4310.7492)" />
      <path id="path131" d="m 0,0 c 0.024,0.216 0.072,0.552 0.072,0.984 0,2.136 -1.008,5.472 -4.8,5.472 -3.384,0 -5.448,-2.76 -5.448,-6.264 0,-3.504 2.136,-5.856 5.712,-5.856 1.848,0 3.12,0.384 3.864,0.721 l -0.36,1.511 c -0.792,-0.336 -1.704,-0.6 -3.216,-0.6 -2.112,0 -3.936,1.177 -3.984,4.032 z m -8.136,1.512 c 0.168,1.465 1.104,3.432 3.24,3.432 2.376,0 2.952,-2.088 2.928,-3.432 z" style="fill:none;stroke:#231916;stroke-width:1;stroke-linecap:butt;stroke-linejoin:miter;stroke-miterlimit:10;stroke-dasharray:none;stroke-opacity:1" transform="matrix(1.3333333,0,0,-1.3333333,2963.7073,4319.0057)" />
      <path id="path132" d="m 0,0 h -5.328 v -1.68 h 3.288 v -4.824 c -0.48,-0.24 -1.416,-0.433 -2.784,-0.433 -3.768,0 -6.24,2.425 -6.24,6.529 0,4.055 2.568,6.504 6.504,6.504 1.632,0 2.712,-0.312 3.576,-0.696 l 0.504,1.704 c -0.696,0.335 -2.16,0.744 -4.032,0.744 -5.424,0 -8.736,-3.528 -8.76,-8.352 0,-2.52 0.864,-4.681 2.256,-6.024 1.584,-1.512 3.6,-2.136 6.048,-2.136 2.184,0 4.032,0.552 4.968,0.888 z" style="fill:none;stroke:#231916;stroke-width:1;stroke-linecap:butt;stroke-linejoin:miter;stroke-miterlimit:10;stroke-dasharray:none;stroke-opacity:1" transform="matrix(1.3333333,0,0,-1.3333333,2990.5869,4314.9093)" />
      <path id="path133" d="m 0,0 h 2.088 v 6.192 c 0,0.36 0.048,0.696 0.096,0.984 0.288,1.584 1.344,2.712 2.832,2.712 0.288,0 0.504,-0.024 0.72,-0.072 v 1.992 C 5.544,11.856 5.376,11.88 5.136,11.88 3.72,11.88 2.448,10.896 1.92,9.336 H 1.824 l -0.072,2.28 H -0.096 C -0.024,10.536 0,9.36 0,7.992 Z" style="fill:none;stroke:#231916;stroke-width:1;stroke-linecap:butt;stroke-linejoin:miter;stroke-miterlimit:10;stroke-dasharray:none;stroke-opacity:1" transform="matrix(1.3333333,0,0,-1.3333333,2994.7464,4326.2375)" />
      <path id="path134" d="m 0,0 c 0.024,0.216 0.072,0.552 0.072,0.984 0,2.136 -1.008,5.472 -4.8,5.472 -3.384,0 -5.448,-2.76 -5.448,-6.264 0,-3.504 2.136,-5.856 5.712,-5.856 1.848,0 3.12,0.384 3.864,0.721 l -0.36,1.511 c -0.792,-0.336 -1.704,-0.6 -3.216,-0.6 -2.112,0 -3.936,1.177 -3.984,4.032 z m -8.136,1.512 c 0.168,1.465 1.104,3.432 3.24,3.432 2.376,0 2.952,-2.088 2.928,-3.432 z" style="fill:none;stroke:#231916;stroke-width:1;stroke-linecap:butt;stroke-linejoin:miter;stroke-miterlimit:10;stroke-dasharray:none;stroke-opacity:1" transform="matrix(1.3333333,0,0,-1.3333333,3017.3383,4319.0057)" />
      <path id="path135" d="m 0,0 c 0.024,0.216 0.072,0.552 0.072,0.984 0,2.136 -1.008,5.472 -4.8,5.472 -3.384,0 -5.448,-2.76 -5.448,-6.264 0,-3.504 2.136,-5.856 5.712,-5.856 1.848,0 3.12,0.384 3.864,0.721 l -0.36,1.511 c -0.792,-0.336 -1.704,-0.6 -3.216,-0.6 -2.112,0 -3.936,1.177 -3.984,4.032 z m -8.136,1.512 c 0.168,1.465 1.104,3.432 3.24,3.432 2.376,0 2.952,-2.088 2.928,-3.432 z" style="fill:none;stroke:#231916;stroke-width:1;stroke-linecap:butt;stroke-linejoin:miter;stroke-miterlimit:10;stroke-dasharray:none;stroke-opacity:1" transform="matrix(1.3333333,0,0,-1.3333333,3033.3701,4319.0057)" />
      <path id="path136" d="m 0,0 h 2.112 v 6.984 c 0,0.36 0.048,0.72 0.144,0.984 0.36,1.176 1.44,2.16 2.832,2.16 1.992,0 2.688,-1.56 2.688,-3.432 V 0 h 2.112 v 6.936 c 0,3.984 -2.496,4.944 -4.104,4.944 -1.92,0 -3.264,-1.08 -3.84,-2.184 H 1.896 l -0.12,1.92 H -0.096 C -0.024,10.656 0,9.672 0,8.472 Z" style="fill:none;stroke:#231916;stroke-width:1;stroke-linecap:butt;stroke-linejoin:miter;stroke-miterlimit:10;stroke-dasharray:none;stroke-opacity:1" transform="matrix(1.3333333,0,0,-1.3333333,3036.9541,4326.2375)" />
      <path id="path137" d="M 1.8293703,-3.609375e-4 H 10.82937 V -1.7581734 H 3.9153078 V -16.172236 H 1.8293703 Z M 17.661402,-11.883173 c -3.210938,0 -5.753907,2.2851558 -5.753907,6.1757808 0,3.6679688 2.425782,5.97656251 5.566407,5.97656251 2.8125,0 5.789062,-1.87500001 5.789062,-6.17578121 0,-3.5507813 -2.261719,-5.9765621 -5.601562,-5.9765621 z m -0.04687,1.582031 c 2.496093,0 3.480468,2.4960936 3.480468,4.4648436 0,2.625 -1.511718,4.5117187 -3.527343,4.5117187 -2.0625,0 -3.527344,-1.9101562 -3.527344,-4.4648437 0,-2.203125 1.078125,-4.5117186 3.574219,-4.5117186 z M 25.92605,-3.609375e-4 h 2.109375 V -6.9847359 c 0,-0.3632813 0.04687,-0.7148438 0.140625,-0.984375 0.363281,-1.171875 1.441406,-2.1562501 2.835937,-2.1562501 1.992188,0 2.683594,1.5585938 2.683594,3.4335938 v 6.6914062625 h 2.109375 V -6.9378609 c 0,-3.9843751 -2.496094,-4.9453121 -4.101562,-4.9453121 -1.921875,0 -3.257813,1.078125 -3.84375,2.1914058 h -0.04687 l -0.117188,-1.9218748 h -1.875 c 0.07031,0.960937 0.105469,1.9453123 0.105469,3.1406248 z M 47.154566,-17.039423 v 6.9375 h -0.04687 c -0.527344,-0.9375 -1.722657,-1.78125 -3.503907,-1.78125 -2.824218,0 -5.226562,2.3789058 -5.203125,6.2460933 0,3.5273438 2.15625,5.90625001 4.96875,5.90625001 1.898438,0 3.304688,-0.984375 3.960938,-2.28515621 h 0.04687 l 0.09375,2.0156249625 h 1.898437 C 49.299097,-0.79723594 49.275659,-1.9691109 49.275659,-3.0003609 V -17.039423 Z m 0,12.1640621 c 0,0.3398437 -0.02344,0.6328125 -0.09375,0.9140625 -0.386719,1.5820312 -1.675782,2.5195312 -3.09375,2.5195312 -2.285157,0 -3.433594,-1.9453125 -3.433594,-4.2890625 0,-2.578125 1.300781,-4.4882813 3.480469,-4.4882813 1.582031,0 2.742187,1.1015626 3.046875,2.4375001 0.07031,0.2695312 0.09375,0.6328125 0.09375,0.890625 z m 10.538086,-7.0078121 c -3.210938,0 -5.753907,2.2851558 -5.753907,6.1757808 0,3.6679688 2.425782,5.97656251 5.566407,5.97656251 2.8125,0 5.789062,-1.87500001 5.789062,-6.17578121 0,-3.5507813 -2.261719,-5.9765621 -5.601562,-5.9765621 z m -0.04687,1.582031 c 2.496093,0 3.480468,2.4960936 3.480468,4.4648436 0,2.625 -1.511718,4.5117187 -3.527343,4.5117187 -2.0625,0 -3.527344,-1.9101562 -3.527344,-4.4648437 0,-2.203125 1.078125,-4.5117186 3.574219,-4.5117186 z M 65.9573,-3.609375e-4 h 2.109375 V -6.9847359 c 0,-0.3632813 0.04687,-0.7148438 0.140625,-0.984375 0.363281,-1.171875 1.441406,-2.1562501 2.835937,-2.1562501 1.992188,0 2.683594,1.5585938 2.683594,3.4335938 v 6.6914062625 h 2.109375 V -6.9378609 c 0,-3.9843751 -2.496094,-4.9453121 -4.101562,-4.9453121 -1.921875,0 -3.257813,1.078125 -3.84375,2.1914058 h -0.04687 l -0.117188,-1.9218748 h -1.875 c 0.07031,0.960937 0.105469,1.9453123 0.105469,3.1406248 z m 0,0" style="fill:#231916;fill-opacity:1;fill-rule:nonzero;stroke:none" aria-label="London" transform="matrix(1.3333333,0,0,1.3333333,2751.8069,4364.6372)" />
      <path id="path138" d="M 0,0 H 9 V 1.752 H 2.088 V 16.176 H 0 Z" style="fill:none;stroke:#231916;stroke-width:1;stroke-linecap:butt;stroke-linejoin:miter;stroke-miterlimit:10;stroke-dasharray:none;stroke-opacity:1" transform="matrix(1.3333333,0,0,-1.3333333,2754.2392,4364.6372)" />
      <path id="path139" d="m 0,0 c -3.216,0 -5.76,-2.28 -5.76,-6.168 0,-3.672 2.424,-5.976 5.568,-5.976 2.808,0 5.784,1.873 5.784,6.168 C 5.592,-2.424 3.336,0 0,0 Z m -0.048,-1.584 c 2.496,0 3.48,-2.496 3.48,-4.464 0,-2.616 -1.512,-4.512 -3.528,-4.512 -2.064,0 -3.528,1.92 -3.528,4.464 0,2.208 1.08,4.512 3.576,4.512 z" style="fill:none;stroke:#231916;stroke-width:1;stroke-linecap:butt;stroke-linejoin:miter;stroke-miterlimit:10;stroke-dasharray:none;stroke-opacity:1" transform="matrix(1.3333333,0,0,-1.3333333,2775.3584,4348.7973)" />
      <path id="path140" d="m 0,0 h 2.112 v 6.984 c 0,0.36 0.048,0.72 0.144,0.984 0.36,1.176 1.44,2.16 2.832,2.16 1.992,0 2.688,-1.56 2.688,-3.432 V 0 h 2.112 v 6.936 c 0,3.984 -2.496,4.944 -4.104,4.944 -1.92,0 -3.264,-1.08 -3.84,-2.184 H 1.896 l -0.12,1.92 H -0.096 C -0.024,10.656 0,9.672 0,8.472 Z" style="fill:none;stroke:#231916;stroke-width:1;stroke-linecap:butt;stroke-linejoin:miter;stroke-miterlimit:10;stroke-dasharray:none;stroke-opacity:1" transform="matrix(1.3333333,0,0,-1.3333333,2786.3663,4364.6372)" />
      <path id="path141" d="M 0,0 V -6.937 H -0.048 C -0.576,-6 -1.776,-5.16 -3.552,-5.16 c -2.832,0 -5.232,-2.376 -5.208,-6.24 0,-3.528 2.16,-5.904 4.968,-5.904 1.896,0 3.312,0.984 3.96,2.28 h 0.048 l 0.096,-2.016 h 1.896 c -0.072,0.792 -0.096,1.968 -0.096,3 V 0 Z m 0,-12.168 c 0,-0.336 -0.024,-0.624 -0.096,-0.912 -0.384,-1.584 -1.68,-2.52 -3.096,-2.52 -2.28,0 -3.432,1.944 -3.432,4.296 0,2.568 1.296,4.488 3.48,4.488 1.584,0 2.736,-1.104 3.048,-2.448 C -0.024,-9.528 0,-9.888 0,-10.152 Z" style="fill:none;stroke:#231916;stroke-width:1;stroke-linecap:butt;stroke-linejoin:miter;stroke-miterlimit:10;stroke-dasharray:none;stroke-opacity:1" transform="matrix(1.3333333,0,0,-1.3333333,2814.6865,4341.9172)" />
      <path id="path142" d="m 0,0 c -3.216,0 -5.76,-2.28 -5.76,-6.168 0,-3.672 2.424,-5.976 5.568,-5.976 2.808,0 5.784,1.873 5.784,6.168 C 5.592,-2.424 3.336,0 0,0 Z m -0.048,-1.584 c 2.496,0 3.48,-2.496 3.48,-4.464 0,-2.616 -1.512,-4.512 -3.528,-4.512 -2.064,0 -3.528,1.92 -3.528,4.464 0,2.208 1.08,4.512 3.576,4.512 z" style="fill:none;stroke:#231916;stroke-width:1;stroke-linecap:butt;stroke-linejoin:miter;stroke-miterlimit:10;stroke-dasharray:none;stroke-opacity:1" transform="matrix(1.3333333,0,0,-1.3333333,2828.734,4348.7973)" />
      <path id="path143" d="m 0,0 h 2.112 v 6.984 c 0,0.36 0.048,0.72 0.144,0.984 0.36,1.176 1.44,2.16 2.832,2.16 1.992,0 2.688,-1.56 2.688,-3.432 V 0 h 2.112 v 6.936 c 0,3.984 -2.496,4.944 -4.104,4.944 -1.92,0 -3.264,-1.08 -3.84,-2.184 H 1.896 l -0.12,1.92 H -0.096 C -0.024,10.656 0,9.672 0,8.472 Z" style="fill:none;stroke:#231916;stroke-width:1;stroke-linecap:butt;stroke-linejoin:miter;stroke-miterlimit:10;stroke-dasharray:none;stroke-opacity:1" transform="matrix(1.3333333,0,0,-1.3333333,2839.7419,4364.6372)" />
      </g></svg>