<?xml version='1.0' encoding='utf-8'?>
<svg xmlns="http://www.w3.org/2000/svg" version="1.1" width="2277.100" height="3226.745" viewBox="454.262 276.935 2277.100 3226.745"><g id="object"><path id="path3" d="m 0,0 c 0.24,-120.951 0.477,-241.902 0.737,-362.853 0.008,-3.504 0.669,-7.047 0.329,-10.503 -0.922,-9.347 3.336,-22.251 -5.071,-26.964 -8.869,-4.972 -16.107,7.283 -24.472,11.009 -57.264,25.505 -117.771,30.672 -179.662,29.317 -95.575,-2.092 -179.513,-39.5 -255.761,-91.349 -84.027,-57.137 -158.125,-127.492 -188.116,-228.859 -32.7,-110.523 2.866,-196.819 107.233,-253.246 14.554,-7.868 31.862,-10.283 44.262,-22.381 -72.673,-6.732 -145.285,0.226 -217.659,3.617 -133.812,6.271 -231.718,74.175 -290.078,192.825 -65.25,132.657 -39.156,279.054 61.491,386.841 29.745,31.856 66.263,56.884 103.9,74.998 54.557,26.257 115.613,33.25 177.154,30.294 36.645,-1.761 37.237,-0.253 38.837,34.28 1.377,29.716 2.078,59.501 1.775,89.243 -0.211,20.717 12.2,37.039 17.51,55.84 41.345,146.385 199.706,243.24 342.515,232.228 53.491,-4.125 103.668,-15.899 149.511,-43.268 C -93.514,87.904 -74.708,70.171 -55.698,52.537 -36.998,35.191 -15.37,20.985 0,0" style="fill:#d22824;fill-opacity:1;fill-rule:nonzero;stroke:none" transform="matrix(1.3333333,0,0,-1.3333333,1852.2896,2216.7625)" />
      <path id="path4" d="m 0,0 c 32.647,18.862 70.029,25.276 104.415,40.122 99.906,43.135 178.005,110.63 236.042,201.805 18.351,28.83 26.511,62.54 40.164,93.603 5.863,-106.757 0.111,-213.524 1.909,-320.245 C 382.901,-6.707 365.871,-1.33 354.341,-1.407 272.09,-1.951 189.834,-1.886 107.58,-1.648 71.719,-1.544 35.86,-0.576 0,0" style="fill:#d22824;fill-opacity:1;fill-rule:nonzero;stroke:none" transform="matrix(1.3333333,0,0,-1.3333333,1424.6335,3491.3635)" />
      <path id="path28" d="m 0,0 c 0.24,-120.951 0.477,-241.902 0.737,-362.853 0.008,-3.504 0.669,-7.047 0.329,-10.503 -0.922,-9.347 3.336,-22.251 -5.071,-26.964 -8.869,-4.972 -16.107,7.283 -24.472,11.009 -57.264,25.505 -117.771,30.672 -179.662,29.317 -95.575,-2.092 -179.513,-39.5 -255.761,-91.349 -84.027,-57.137 -158.125,-127.492 -188.116,-228.86 -32.7,-110.522 2.866,-196.818 107.233,-253.245 14.554,-7.868 31.862,-10.283 44.262,-22.381 59.913,-7.551 119.845,-5.281 179.779,-0.122 32.647,18.862 70.029,25.276 104.415,40.123 99.906,43.134 178.005,110.629 236.042,201.805 18.351,28.83 26.511,62.539 40.164,93.602 0.988,19.196 2.847,38.452 2.832,57.707 -0.124,159.704 -0.796,319.409 -0.913,479.114 -0.006,7.504 -0.008,15.008 -0.013,22.512 L 0.001,0.696 C 0,0.464 0,0.232 0,0" style="fill:#490f0d;fill-opacity:1;fill-rule:nonzero;stroke:none" transform="matrix(1.3333333,0,0,-1.3333333,1852.2896,2216.7625)" />
      <path id="path29" d="m 0,0 c -65.228,90.602 -144.558,168.882 -218.995,251.451 -57.435,63.708 -117.596,125.188 -158.721,201.906 -51.286,95.673 -66.923,200.383 -77.164,305.999 -3.641,37.542 -28.157,20.358 -45.156,23.545 -23.76,4.454 -19.089,-13.254 -19.094,-26.433 -0.082,-265.709 -0.016,-531.417 -0.106,-797.127 -0.07,-208.295 -0.31,-416.59 -0.475,-624.885 l 61.784,-61.784 c -0.189,267.852 -0.227,535.703 -0.065,803.555 0.04,67.464 0.531,67.464 67.066,48.68 273.003,-77.075 459.105,-335.404 449.561,-625.654 -4.358,-132.52 -44.651,-256.267 -96.935,-376.639 -21.43,-49.338 -43.84,-98.249 -66.179,-148.192 36.02,-2.719 36.369,-2.923 45.434,12.693 75.096,129.366 133.058,265.594 169.191,411.212 C 164.128,-384.125 131.872,-183.169 0,0" style="fill:#3e3e3e;fill-opacity:1;fill-rule:nonzero;stroke:none" transform="matrix(1.3333333,0,0,-1.3333333,2545.2389,1328.4425)" />
    </g></svg>