<?xml version='1.0' encoding='utf-8'?>
<svg xmlns="http://www.w3.org/2000/svg" version="1.1" width="69.177" height="102.346" viewBox="1154.920 4182.330 69.177 102.346"><g id="object"><path id="path45" d="m 0,0 c 1.673,-7.957 -0.516,-15.847 0.491,-23.797 0.356,-2.816 1.038,-6.293 -2.034,-7.588 -2.987,-1.258 -6.529,-0.434 -9.772,0.32 -1.119,0.26 -1.309,1.312 -1.259,2.269 0.626,11.947 -1.532,23.819 -0.314,35.867 0.667,6.596 -0.698,13.498 -0.159,20.29 0.237,2.985 -2.183,7.212 3.123,7.842 4.619,0.549 9.448,1.37 11.72,-4.91 2.484,-6.865 5.727,-13.456 8.627,-20.172 0.623,-1.442 0.703,-3.578 2.973,-3.213 2.148,0.345 1.736,2.454 2.164,3.982 1.647,5.89 0.128,11.76 -0.038,17.636 -0.155,5.457 2.502,7.531 7.828,7.155 4.431,-0.313 6.099,-2.082 5.9,-6.741 -0.647,-15.179 -0.734,-30.368 0.183,-45.558 0.24,-3.967 -0.366,-8.017 -0.889,-11.989 -0.411,-3.124 -3.074,-3.028 -5.483,-3.254 -4.081,-0.381 -7.142,1.136 -8.299,5.055 -2.289,7.754 -6.576,14.591 -9.656,21.974 C 4.335,-2.984 3.132,-1.317 2.127,0.433 1.418,0.289 0.709,0.144 0,0" style="fill:#494f57;fill-opacity:1;fill-rule:nonzero;stroke:none" transform="matrix(1.3333333,0,0,-1.3333333,1178.7803,4235.9641)" />
      </g></svg>