<?xml version='1.0' encoding='utf-8'?>
<svg xmlns="http://www.w3.org/2000/svg" version="1.1" width="2572.501" height="3155.418" viewBox="315.439 455.633 2572.501 3155.418"><g id="object"><path id="path3" d="m 0,0 c -12.63,0 -25.463,1.44 -37.849,-0.299 -25.848,-3.632 -31.082,7.995 -29.426,31.382 3.203,45.253 13.67,89.822 12.123,135.502 -0.477,14.062 7.024,17.766 21.135,16.769 84.146,-5.945 164.536,10.037 242.147,42.588 51.94,21.785 95.998,54.464 141.311,87.675 80.141,58.737 130.519,137.159 166.539,225.32 32.071,78.494 44.409,161.674 37.133,247.737 -4.039,47.764 -7.544,94.837 -24.22,140.21 -33.657,91.576 -83.584,173.349 -154.543,240.001 -50.406,47.347 -110.059,82.459 -175.614,106.6 -44.68,16.453 -90.44,31.781 -137.372,35.299 -54.938,4.118 -111.013,13.949 -165.854,-3.709 -1.595,-0.513 -3.206,-1.137 -4.851,-1.311 -80.644,-8.497 -149.441,-47.441 -218.641,-85.228 -31.523,-17.212 -62.71,-35.04 -94.047,-52.593 -13.562,-7.597 -21.493,-4.525 -19.365,11.876 4.199,32.36 8.83,64.687 14.316,96.851 8.432,49.443 17.634,98.757 26.697,148.09 8.755,47.656 17.875,95.245 26.599,142.906 7.969,43.537 15.551,87.145 23.436,130.698 8.939,49.38 18.028,98.732 27.048,148.097 0.905,4.955 2.206,9.885 2.561,14.88 0.401,5.65 2.351,12.431 -3.949,15.968 -5.4,3.032 -9.243,-2.305 -13.409,-4.658 -81.417,-45.971 -164.196,-89.447 -245.011,-136.572 -68.46,-39.92 -139.608,-75.205 -208.866,-113.799 -16.523,-9.208 -25.222,-3.676 -32.756,9.504 -22.843,39.959 -44.991,80.317 -67.944,120.212 -8.248,14.335 -0.942,22.321 10.159,28.596 39.203,22.158 78.322,44.503 118.085,65.626 73.022,38.79 143.492,82.213 216.411,120.97 70.949,37.71 140.572,77.753 211.416,115.611 77.212,41.261 153.414,84.417 229.866,127.088 5.456,3.046 10.452,6.097 16.278,3.648 8.543,-3.592 5.4,-11.544 4.596,-17.651 -4.587,-34.877 -9.126,-69.777 -14.742,-104.497 -8.692,-53.738 -18.043,-107.373 -27.485,-160.986 -7.399,-42.02 -15.663,-83.888 -23.002,-125.918 -12.808,-73.348 -25.011,-146.803 -37.857,-220.144 -5.039,-28.769 -11.108,-57.358 -16.743,-86.021 -4.652,-23.657 -1.367,-27.23 21.848,-22.377 65.022,13.592 130.526,23.598 197.131,20.98 69.597,-2.735 137.519,-13.675 204.16,-36.315 68.232,-23.18 133.05,-52.467 192.432,-92.586 76.539,-51.712 141.892,-115.079 193.221,-192.833 56.427,-85.478 97.459,-176.653 119.622,-277.173 18.805,-85.286 16.221,-170.423 6.619,-255.675 -3.476,-30.861 -5.488,-64.222 -15.946,-92.106 C 680.856,461.476 646.645,375.161 590.729,298.984 536.487,225.087 468.955,165.044 393.476,117.093 330.429,77.041 260.087,47.47 186.091,27.513 124.621,10.935 63.582,-1.206 0,0" style="fill:#ebb623;fill-opacity:1;fill-rule:nonzero;stroke:none" transform="matrix(1.3333333,0,0,-1.3333333,1605.1268,3603.7831)" />
      <path id="path4" d="m 0,0 c 26.48,-12.829 53.865,-16.559 82.453,-8.197 0.987,-1.326 2.047,-2.59 3.182,-3.792 21.673,-13.3 47.029,-12.776 70.727,-17.964 25.35,-5.549 48.39,-20.155 76.757,-16.051 9.595,1.388 20.58,-13.412 32.095,-17.643 82.362,-30.263 199.62,-100.277 266.266,-157.89 160.132,-138.428 261.155,-311.633 301.75,-518.775 20.431,-104.251 21.579,-209.374 3.401,-315.232 -11.723,-68.274 -30.365,-133.611 -53.593,-198.453 -11.855,-33.095 -43.782,-35.411 -66.712,-54.364 -3.84,13.098 3.455,21.214 6.932,29.902 53.747,134.304 74.261,274.384 60.01,417.378 -19.618,196.853 -94.314,372.237 -228.046,519.569 -134.404,148.074 -300.244,242.632 -496.694,282.979 -55.377,11.374 -111.26,16.21 -167.545,17.749 -11.427,0.313 -16.224,1.229 -13.681,15.426 27.643,154.296 54.489,308.735 81.463,463.15 8.508,48.704 19.267,97.199 24.245,146.271 3.417,33.679 18.897,53.162 48.556,64.8 6.851,2.688 13.189,6.684 23.756,12.14 C 46.581,609.651 38.761,562.132 30.371,514.713 1.021,348.823 -28.37,182.94 -58.226,17.141 c -3.183,-17.675 -1.321,-28.047 19.883,-23.847 11.294,2.237 23.205,-4.377 34.165,2.425 C -2.785,-2.854 -1.393,-1.427 0,0" style="fill:#3d3421;fill-opacity:1;fill-rule:nonzero;stroke:none" transform="matrix(1.3333333,0,0,-1.3333333,1749.3192,1342.9699)" />
      <path id="path5" d="m 0,0 c -1.681,-10.609 -10.631,-11.258 -16.707,-14.564 -139.874,-76.09 -279.886,-151.927 -419.849,-227.854 -210.053,-113.949 -420.088,-227.932 -630.132,-341.898 -3.696,-2.005 -7.504,-3.822 -11.087,-6.009 -7.652,-4.671 -13.745,-8.396 -20.53,2.843 -7.686,12.731 2.7,14.666 9.004,18.122 48.578,26.633 97.596,52.466 146.114,79.207 81.992,45.189 163.331,91.883 246.228,135.05 158.354,82.459 313.675,170.416 471.519,253.733 66.8,35.26 132.761,72.109 199.218,108.024 6.227,3.365 12.88,9.864 20.493,3.262 C -2.829,7.401 -1.622,2.934 0,0" style="fill:#3d3421;fill-opacity:1;fill-rule:nonzero;stroke:none" transform="matrix(1.3333333,0,0,-1.3333333,2170.1083,2502.3983)" />
      <path id="path6" d="m 0,0 c -14.888,-9.723 -27.787,5.772 -36.365,-8.987 -5.834,-10.039 4.341,-16.712 7.693,-24.635 6.12,-14.471 17.857,-16.834 36.083,-12.743 C -15.578,-36.369 -9.056,-21.807 0,0 m -26.323,-146.577 c 20.91,13.056 38.272,22.906 54.393,34.485 5.892,4.232 19.126,5.082 15.68,15.911 -4.054,12.744 -2.792,30.151 -21.609,34.075 -11.912,2.484 -23.763,5.261 -42.881,9.52 27.769,-35.137 3.211,-61.749 -5.583,-93.991 m -83.882,57.071 c -24.557,2.019 -24.068,-22.592 -35.647,-34.238 -11.338,-11.404 -4.476,-18.565 8.828,-23.045 45.408,-15.294 47.801,-13.774 46.454,32.959 11.538,-12.744 5.073,-29.938 11.542,-45.767 15.34,16.26 35.34,27.255 36.959,53.176 0.867,13.88 -26.958,54.504 -41.224,55.741 -5.686,0.492 -10.844,1.209 -15.207,-4.933 -7.342,-10.334 -14.459,-20.272 -11.705,-33.893 m -4.245,73.172 c 20.248,-3.806 24.262,2.603 24.004,18.435 -0.435,26.674 17.598,43.045 39.976,52.636 30.928,13.255 62.356,13.896 90.3,-8.278 14.398,-11.425 24.437,-32.359 43.699,-2.434 5.673,8.814 21.206,-9.551 31.19,-16.912 10.165,-7.494 6.152,-20.658 -0.232,-24.017 -6.852,-3.605 -9.085,-9.617 -12.444,-13.888 -11.902,-15.131 -22.9,-15.357 -34.406,-1.298 -16.858,20.599 -29.126,3.325 -39.229,-6.201 -12.845,-12.112 -9.331,-25.319 6.483,-34.115 5.052,-2.811 9.937,-6.448 15.382,-7.932 21.116,-5.757 23.089,-17.348 10.226,-32.903 -3.752,-4.538 -2.041,-10.075 -4.213,-13.528 -7.505,-11.935 18.311,-6.17 8.861,-18.085 -7.847,-9.896 -2.568,-20.395 -0.65,-30.527 2.486,-13.128 -0.093,-29.998 21.891,-29.455 6.295,0.156 6.355,-6.984 6.305,-11.892 -0.067,-6.56 -3.825,-11.142 -10.093,-12.776 -5.733,-1.495 -10.286,1.877 -12.204,6.671 -4.922,12.306 -13.531,25.432 -12.295,37.363 1.802,17.378 -15.116,29.46 -8.941,47.151 1.975,5.656 -5.713,4.344 -8.796,2.48 -21.537,-13.021 -45.418,-23.731 -63.212,-40.758 -9.866,-9.44 -23.919,-28.224 -5.518,-45.8 3.058,-2.921 6.32,-6.876 2.924,-10.756 -4.395,-5.022 -9.184,-1.692 -13.089,1.68 -10.001,8.634 -21.607,16.108 -29.434,26.425 -21.593,28.461 -53.772,25.82 -83.37,30.116 -8.814,1.279 -19.532,-3.651 -23.598,7.823 -3.84,10.835 8.481,12.501 13.078,18.678 16.543,22.232 32.435,44.986 47.436,68.274 1.695,2.633 2.091,8.017 5.176,10.155 16.337,11.324 19.188,21.901 -5.207,33.668" style="fill:#3d3421;fill-opacity:1;fill-rule:nonzero;stroke:none" transform="matrix(1.3333333,0,0,-1.3333333,2027.1488,1073.9172)" />
      <path id="path7" d="m 0,0 c 17.502,-47.818 37.911,-94.159 73.724,-131.881 5.35,-5.636 13.516,-6.353 20.917,-1.583 8.511,5.485 13.749,13.059 10.644,23.211 C 90.926,-63.298 66.937,-21.449 35.868,16.327 30.28,23.12 21.753,25.33 12.995,21.066 4.575,16.965 0.723,10.05 0,0 m 80.587,-165.341 c -16.77,-1.14 -30.736,9.443 -42.094,23.615 -28.033,34.978 -50.048,73.552 -64.157,116.151 -11.022,33.277 -3.386,55.933 21.414,69.854 27.959,15.694 48.22,12.196 72.412,-17.116 32.284,-39.116 58.235,-82.292 67.034,-133.247 5.701,-33.019 -18.008,-59.026 -54.609,-59.257" style="fill:#3d3421;fill-opacity:1;fill-rule:nonzero;stroke:none" transform="matrix(1.3333333,0,0,-1.3333333,1027.7119,2496.5856)" />
      <path id="path8" d="m 0,0 c -5.047,-3.3 -10.755,-6.98 -16.409,-10.74 -9.37,-6.232 -13.286,-0.158 -17.245,7.166 -12.766,23.621 -27.44,46.374 -38.242,70.846 -10.427,23.624 -20.794,5.229 -30.868,2.036 -13.524,-4.288 -14.98,-11.863 -7.195,-24.458 14.089,-22.793 25.864,-47.004 39.266,-70.241 5.408,-9.378 4.336,-14.289 -6.072,-18.536 -8.476,-3.459 -15.359,-10.498 -22.34,2.484 -31.796,59.129 -63.982,118.05 -96.289,176.903 -4.924,8.969 -2.945,13.976 5.938,18.489 8.536,4.338 16.1,10.359 22.719,-2.404 9.264,-17.865 20.107,-35.007 28.118,-53.397 7.322,-16.808 16.441,-9.649 25.38,-3.84 8.513,5.532 24.746,6.995 13.291,24.77 -10.431,16.186 -18.033,34.18 -28.211,50.55 -6.643,10.683 -3.679,15.552 6.201,21.22 9.629,5.524 15.551,7.121 21.825,-4.665 C -68.598,126.945 -36.363,68.079 -4.392,9.072 -3.196,6.865 -2.196,4.552 0,0" style="fill:#3d3421;fill-opacity:1;fill-rule:nonzero;stroke:none" transform="matrix(1.3333333,0,0,-1.3333333,1676.3656,2428.6555)" />
      <path id="path9" d="m 0,0 c -1.988,14.105 -11.612,28.273 -26.176,38.983 -6.687,4.916 -14.376,3.517 -20.837,-1.467 -8.824,-6.808 0.498,-12.004 2.691,-16.925 5.044,-11.317 11.4,-22.129 18.064,-32.612 3.561,-5.602 3.682,-17.361 13.481,-14.285 C -3.927,-23.528 1.018,-14.691 0,0 m 0.014,-61.948 c 11.891,-21.644 23.219,-43.626 35.897,-64.799 6.932,-11.575 4.495,-16.979 -6.978,-23.36 -11.407,-6.345 -15.383,-2.707 -20.669,7.208 -31.195,58.502 -63.036,116.66 -94.491,175.024 -2.447,4.541 -7.635,8.45 -0.457,14.982 20.509,18.662 61.683,28.95 79.468,18.515 25.997,-15.254 42.199,-57.31 30.847,-87.822 -4.659,-12.52 3.173,-14.956 8.671,-19.795 23.916,-21.047 48.253,-41.616 72.753,-62.631 -24.26,-18.373 -24.276,-18.391 -45.916,0.092 -18.306,15.636 -36.571,31.321 -54.855,46.984 -1.423,-1.466 -2.847,-2.932 -4.27,-4.398" style="fill:#3d3421;fill-opacity:1;fill-rule:nonzero;stroke:none" transform="matrix(1.3333333,0,0,-1.3333333,1253.6059,2440.89)" />
      <path id="path10" d="m 0,0 c -3.62,-8.774 -14.264,-10.97 -22.576,-15.387 -9.744,-5.178 -15.058,-9.723 -6.563,-20.429 3.575,-4.504 5.299,-10.438 8.156,-15.559 6.5,-11.645 10.513,-27.455 20.47,-33.683 12.121,-7.58 22.794,8.423 34.246,13.786 8.431,3.947 12.92,2.67 17.626,-6.143 4.502,-8.433 4.876,-13.637 -4.006,-17.988 -2.244,-1.1 -4.597,-1.983 -6.809,-3.14 -17.764,-9.285 -37.417,-28.296 -52.729,-25.274 -16.133,3.185 -20.978,31.63 -30.762,48.999 -24.263,43.074 -47.403,86.782 -71.819,129.767 -6.705,11.803 -7.119,18.524 6.657,24.68 15.995,7.147 31.079,16.349 46.466,24.826 8.461,4.662 13.481,2.248 18.007,-6.156 4.739,-8.797 2.531,-13.273 -5.607,-18.103 C -59.658,74.016 -77.712,71.512 -78.248,60.16 -78.795,48.567 -66.868,36.726 -61.714,24.443 -54.218,6.584 -45.874,0.734 -27.416,13.869 -14.077,23.361 0.856,15.08 0,0" style="fill:#3d3421;fill-opacity:1;fill-rule:nonzero;stroke:none" transform="matrix(1.3333333,0,0,-1.3333333,1813.1655,2196.2517)" />
      <path id="path11" d="M 0,0 C 22.007,1.537 42.659,2.165 44.842,24.914 46.939,46.756 31.32,60.097 11.878,67.445 -4.52,73.642 -21.675,77.87 -37.964,84.313 c -23.511,9.299 -41.875,38.834 -41.205,64.164 0.577,21.803 12.122,35.848 31.41,44.502 19.224,8.624 33.496,6.71 38.262,-18.788 -17.453,-3.265 -37.933,-6.219 -37.754,-28.793 0.179,-22.434 17.735,-32.526 37.292,-38.917 C 5.131,101.55 20.642,97.283 34.861,90.428 65.064,75.867 81.651,39.952 73.491,10.893 66.898,-12.587 49.584,-22.427 27.331,-25.631 9.762,-28.16 8.938,-12.466 0,0" style="fill:#3d3421;fill-opacity:1;fill-rule:nonzero;stroke:none" transform="matrix(1.3333333,0,0,-1.3333333,1897.5939,2254.2684)" />
      <path id="path12" d="m 0,0 c -35.856,-15.13 -42.445,-28.381 -30.428,-63.105 10.18,-29.419 24.156,-57.348 45.316,-80.405 14.633,-15.945 32.084,-28.463 54.72,-11.554 4.665,3.484 9.352,12.301 14.782,0.284 3.523,-7.797 11.746,-13.838 2.654,-23.967 -15.226,-16.962 -51.251,-24.253 -71.587,-8.916 -52.241,39.398 -80.021,93.106 -83.183,158.547 -0.916,18.95 10.091,33.156 26.254,42.903 C -17.64,28.16 -13.04,26.71 0,0" style="fill:#3d3421;fill-opacity:1;fill-rule:nonzero;stroke:none" transform="matrix(1.3333333,0,0,-1.3333333,1397.3697,2282.1853)" />
      <path id="path13" d="m 0,0 c 4.074,-15.319 7.733,-30.766 12.413,-45.897 2.051,-6.632 5.893,-13.006 -2.371,-17.357 -8.794,-4.631 -10.993,4.129 -15.418,8.532 -11.955,11.895 -19.338,28.74 -40.063,37.327 9.015,-18.893 16.031,-34.462 23.848,-49.618 4.047,-7.848 2.212,-12.209 -5.332,-15.958 -8.404,-4.177 -10.269,1.921 -12.62,7.262 -17.198,39.063 -34.181,78.221 -51.599,117.186 -2.452,5.486 -2.802,8.3 2.915,11.951 7.649,4.885 12.347,2.105 17.162,-3.657 16.047,-19.205 32.16,-38.354 51.765,-61.717 -3.168,28.795 -13.681,50.271 -19.351,72.941 -1.652,6.608 -7.546,14.722 2.239,20.044 11.43,6.217 14.031,-4.223 18.339,-10.618 21.548,-31.985 43.058,-63.999 64.268,-96.208 3.083,-4.682 11.091,-9.314 1.644,-16.348 -9.414,-7.009 -13.521,-0.755 -17.8,5.701 C 21.258,-23.186 12.714,-9.78 4.072,3.56 2.008,5.658 -0.056,7.757 -2.12,9.857 -5.569,5.677 -3.44,2.698 0,0" style="fill:#3d3421;fill-opacity:1;fill-rule:nonzero;stroke:none" transform="matrix(1.3333333,0,0,-1.3333333,1892.3397,2500.3499)" />
      <path id="path14" d="m 0,0 c -7.92,14.8 -15.833,29.603 -23.762,44.397 -3.168,5.911 -7.241,10.735 2.658,15.803 8.347,4.273 11.763,2.537 15.629,-4.722 19.716,-37.016 39.57,-73.96 59.605,-110.804 3.041,-5.592 6.052,-10.085 -1.518,-14.578 -6.809,-4.041 -11.933,-3.591 -17.839,2.131 -16.191,15.685 -32.936,30.798 -53.714,43.123 9.779,-17.695 19.012,-35.726 29.575,-52.94 5.036,-8.207 5.264,-12.115 -3.843,-17.367 -10.078,-5.812 -11.412,1.945 -14.221,7.095 -19.268,35.329 -38.416,70.726 -57.174,106.326 -2.583,4.903 -10.877,10.11 -1.463,16.919 8.931,6.459 14.955,2.947 21.744,-3.708 12.57,-12.325 25.839,-23.936 38.819,-35.843 1.773,-2.368 3.545,-4.738 5.317,-7.107 C 3.162,-7.571 1.366,-3.782 0,0" style="fill:#3d3421;fill-opacity:1;fill-rule:nonzero;stroke:none" transform="matrix(1.3333333,0,0,-1.3333333,1291.3548,2786.0957)" />
      <path id="path15" d="m 0,0 c -1.178,-9.386 -10.759,-8.945 -16.308,-13.097 -10.046,-7.517 -13.088,1.808 -16.514,8.05 -25.345,46.169 -50.471,92.457 -75.693,138.693 -5.631,10.322 -10.977,20.828 -17.159,30.812 -6.955,11.235 -6.897,17.842 6.716,25.318 14.838,8.148 17.366,-1.635 21.963,-10.117 C -66.627,123.63 -36.418,67.514 -6.157,11.426 -4.174,7.751 -2.195,4.074 0,0" style="fill:#3d3421;fill-opacity:1;fill-rule:nonzero;stroke:none" transform="matrix(1.3333333,0,0,-1.3333333,1751.5169,2384.3019)" />
      <path id="path16" d="m 0,0 c -11.306,-3.344 -17.909,-9.474 -13.974,-20.382 9.934,-27.533 24.289,-52.888 41.344,-76.614 4.714,-6.558 12.264,-9.834 19.789,-4.92 6.914,4.516 8.216,11.069 4.974,19.638 -10.099,26.686 -23.742,51.3 -40.944,73.931 C 8.382,-4.654 3.499,-2.537 0,0 m 1.428,18.63 c 9.933,0.813 18.319,-4.698 25.01,-12.469 21.53,-25.006 37.411,-53.16 46.346,-85.124 4.983,-17.827 -0.364,-31.454 -16.142,-40.527 -16.069,-9.24 -31.145,-5.884 -43.099,7.313 -23.364,25.795 -40.081,55.762 -48.365,89.525 -5.553,22.633 11.645,41.418 36.25,41.282" style="fill:#3d3421;fill-opacity:1;fill-rule:nonzero;stroke:none" transform="matrix(1.3333333,0,0,-1.3333333,747.9376,3014.5481)" />
      <path id="path17" d="m 0,0 c -5.129,0.425 -10.26,-2.162 -9.229,-6.107 3.558,-13.622 10.302,-26.695 20.622,-35.7 5.111,-4.46 9.155,4.923 9.123,10.527 C 20.43,-16.609 12.688,-6.478 0,0 m 20.069,-61.403 c 5.379,-10.564 10.088,-21.008 15.99,-30.729 1.968,-3.241 2.661,-10.837 9.435,-8.001 5.43,2.274 9.113,6.914 9.012,13.547 -0.237,15.547 -16.05,27.727 -34.437,25.183 M 75.508,-85.37 c -0.15,-18.227 -23.228,-40.846 -38.131,-41.052 -6.991,-0.096 -7.795,5.183 -10.065,9.321 -19.73,35.959 -39.355,71.976 -59.102,107.925 -2.876,5.235 -7.16,11.076 0.626,14.775 13.847,6.579 26.376,20.133 43.991,11.551 18.391,-8.959 26.553,-25.298 27.182,-44.66 0.295,-9.059 -0.567,-13.403 10.543,-17.606 18.061,-6.834 22.273,-25.478 24.956,-40.254" style="fill:#3d3421;fill-opacity:1;fill-rule:nonzero;stroke:none" transform="matrix(1.3333333,0,0,-1.3333333,640.50147,3073.9951)" />
      <path id="path18" d="m 0,0 c -10.416,26.309 -23.813,54.882 -45.436,78.888 -4.518,5.015 -10.483,5.865 -15.837,1.863 -5.836,-4.362 -7.744,-10.485 -5.093,-17.82 10.035,-27.762 23.9,-53.464 41.891,-76.817 4.17,-5.412 10.071,-7.925 17.737,-4.509 C 0.405,-15.212 0.071,-9.76 0,0 m 22.071,-5.211 c 0.2,-15.163 -6.653,-24.945 -19.282,-30.629 -12.017,-5.408 -25.175,-7.192 -35.456,2.309 -29.057,26.852 -47.701,60.145 -54.749,99.104 -3.073,16.989 7.608,26.55 21.512,35.858 13.443,8.999 23.081,1.574 30.333,-4.357 C -3.216,70.613 11.374,33.567 22.071,-5.211" style="fill:#3d3421;fill-opacity:1;fill-rule:nonzero;stroke:none" transform="matrix(1.3333333,0,0,-1.3333333,1111.4541,2967.5404)" />
      <path id="path19" d="m 0,0 c -14.34,0.475 -22.971,9.443 -29.288,20.81 -16.269,29.276 -32.094,58.799 -48.079,88.233 -3.545,6.528 -8.639,12.103 2.617,17.879 11.776,6.042 12.862,-3.05 16.087,-8.897 14.971,-27.15 29.178,-54.729 44.553,-81.644 4.56,-7.982 9.23,-20.232 22.742,-13.027 13.495,7.195 6.125,17.244 1.617,25.725 -14.559,27.391 -29.682,54.483 -44.573,81.698 -4.035,7.373 -9.242,14.017 2.946,20.09 11.891,5.925 12.274,-3.959 15.283,-9.451 C 0.414,111.29 17.529,81.428 32.424,50.506 44.556,25.318 27.579,0.388 0,0" style="fill:#3d3421;fill-opacity:1;fill-rule:nonzero;stroke:none" transform="matrix(1.3333333,0,0,-1.3333333,1625.2589,2733.2727)" />
      <path id="path20" d="m 0,0 c -4.086,13.183 -8.529,26.214 -23.275,30.127 -4.323,1.147 -11.572,-3.538 -8.259,-8.809 7.253,-11.542 9.23,-27.508 22.618,-33.722 C -4.349,-14.525 -1.05,-5.588 0,0 m 2.8,-42.475 c 6.054,-10.944 12.185,-21.847 18.136,-32.847 3.944,-7.29 9.054,-13.736 -2.98,-20.087 -12.096,-6.384 -12.494,4.087 -15.273,9.048 -17.231,30.746 -34.663,61.45 -49.938,93.174 -4.127,8.572 -23.306,19.103 -3.062,30.852 16.79,9.744 34.183,20.855 52.079,2.384 10.127,-10.451 19.915,-23.638 15.636,-38.028 -5.993,-20.148 5.497,-28.717 18.073,-38.575 7.269,-5.699 14.397,-11.719 20.75,-18.392 3.736,-3.924 14.397,-6.368 7.747,-14.212 -5.815,-6.857 -13.732,-7.728 -21.771,0.131 C 31.083,-58.164 18.644,-48.656 6.773,-38.568 5.448,-39.87 4.124,-41.173 2.8,-42.475" style="fill:#3d3421;fill-opacity:1;fill-rule:nonzero;stroke:none" transform="matrix(1.3333333,0,0,-1.3333333,1701.4695,2555.3804)" />
      <path id="path21" d="m 0,0 c -11.468,-0.929 -19.523,4.833 -24.763,14.109 -18.486,32.724 -36.358,65.795 -54.951,98.457 -3.711,6.518 -3.051,11.042 2.966,14.216 6.961,3.672 11.929,1.722 15.965,-5.926 14.835,-28.107 30.285,-55.892 45.708,-83.684 5.071,-9.138 8.89,-22.288 23.565,-14.735 15.344,7.897 5.356,18.678 0.765,27.503 -13.882,26.69 -28.572,52.958 -42.841,79.448 -3.754,6.968 -10.989,13.747 1.974,20.106 11.663,5.72 12.569,-3.646 15.741,-9.487 C 0.484,109.889 17.525,80.082 32.384,49.231 44.941,23.16 28.902,0.139 0,0" style="fill:#3d3421;fill-opacity:1;fill-rule:nonzero;stroke:none" transform="matrix(1.3333333,0,0,-1.3333333,906.59627,3121.7736)" />
      <path id="path22" d="m 0,0 c 5.502,-10.149 8.835,-19.07 14.605,-25.947 3.76,-4.481 2.178,-18.812 13.811,-11.76 8.182,4.961 7.123,13.926 2.599,22.479 C 24.739,-3.364 18.369,7.122 0,0 m 41.905,-75.925 c 5.344,-10.4 10.348,-20.994 16.153,-31.131 3.817,-6.664 2.414,-10.694 -4.015,-14.202 -6.336,-3.456 -10.771,-2.735 -14.382,4.006 -20.576,38.404 -41.347,76.703 -62.02,115.056 -1.964,3.645 -4.672,7.763 1.44,10.081 15.022,5.695 27.682,21.257 46.222,12.685 18.761,-8.675 31.072,-28.051 27.047,-44.368 -5.895,-23.905 8.769,-31.249 20.732,-42.694 6.049,-5.786 13.345,-10.28 19.301,-16.145 3.586,-3.532 12.663,-6.775 6.63,-13.289 -4.399,-4.749 -11.569,-9.789 -19.597,-2.511 -10.493,9.514 -21.737,18.2 -32.657,27.243 -2.847,3.449 -6.247,3.757 -10.052,1.771 1.733,-2.168 3.465,-4.335 5.198,-6.502" style="fill:#3d3421;fill-opacity:1;fill-rule:nonzero;stroke:none" transform="matrix(1.3333333,0,0,-1.3333333,2008.2248,2328.2269)" />
      <path id="path23" d="m 0,0 c 1.223,-9.411 -6.121,-17.503 -17.804,-23.017 -12.206,-5.759 -25.016,-7.396 -35.167,2.121 -29.552,27.708 -48.414,61.83 -54.915,101.96 -2.733,16.869 8.91,25.591 22.505,32.532 12.44,6.351 22.698,1.963 32.867,-4.835 5.659,-3.782 8.261,-8.065 3.085,-14.456 -3.849,-4.752 -6.916,-10.25 -13.739,-3.868 -5.989,5.603 -12.508,9.177 -19.829,2.413 -7.607,-7.026 -4.974,-15.479 -1.817,-23.286 9.147,-22.617 20.728,-44.001 34.453,-64.169 5.221,-7.672 11.058,-15.813 22.165,-11.311 6.439,2.609 12.11,8.035 9.031,15.661 -4.065,10.065 -2.884,25.246 -17.751,26.687 -6.465,0.628 -13.938,-3.922 -15.7,5.77 -2.458,13.519 11.784,11.647 17.973,17.16 5.491,4.89 12.601,5.092 16.442,-3.23 C -10.523,39.494 -0.46,23.652 0,0" style="fill:#3d3421;fill-opacity:1;fill-rule:nonzero;stroke:none" transform="matrix(1.3333333,0,0,-1.3333333,1248.4665,2924.984)" />
      <path id="path24" d="m 0,0 c 6.746,1.748 8.688,-3.734 10.793,-7.893 3.513,-6.939 -3.138,-8.898 -7.061,-10.709 -12.665,-5.848 -21.902,-11.647 -10.268,-27.184 7.896,-10.545 10.59,-29.326 30.09,-14.408 5.057,3.87 8.999,3.349 12.244,-1.984 3.913,-6.433 1.985,-11.126 -4.688,-14.018 -27.257,-11.811 -3.778,-24.585 -0.563,-36.775 4.794,-18.177 15.32,-12.667 26.088,-5.853 5.232,3.31 11.044,5.635 14.953,-1.499 3.634,-6.631 -0.644,-10.134 -5.919,-14.047 -31.568,-23.411 -36.134,-22.456 -54.419,11.844 -12.981,24.351 -26.357,48.49 -39.519,72.745 C -41.077,-26.18 -27.557,-2.399 0,0" style="fill:#3d3421;fill-opacity:1;fill-rule:nonzero;stroke:none" transform="matrix(1.3333333,0,0,-1.3333333,1359.0933,2654.1979)" />
      <path id="path25" d="m 0,0 c 6.897,2.081 8.738,-2.551 10.724,-5.732 3.423,-5.483 0.709,-8.076 -4.667,-11.278 -6.629,-3.948 -19.837,-4.596 -17.568,-14.7 2.448,-10.906 9.968,-20.971 16.485,-30.581 6.078,-8.961 11.714,0.652 17.284,2.26 5.465,1.578 10.183,6.315 14.949,-1.349 4.338,-6.974 1.311,-11.357 -4.644,-13.851 -30.332,-12.706 -2.919,-26.059 -0.103,-38.526 3.926,-17.383 14.411,-10.503 24.242,-4.84 5.56,3.203 12.165,8.117 16.402,-1.925 3.958,-9.382 -3.816,-10.673 -9.431,-14.141 -33.309,-20.571 -33.234,-20.677 -51.443,13.29 -14.221,26.528 -27.062,53.938 -43.185,79.256 -10.833,17.01 -6.599,24.741 9.905,31.321 C -13.334,-7.719 -6.186,-3.22 0,0" style="fill:#3d3421;fill-opacity:1;fill-rule:nonzero;stroke:none" transform="matrix(1.3333333,0,0,-1.3333333,1944.3384,2337.4645)" />
      <path id="path26" d="m 0,0 c 1.297,-15.901 -7.223,-25.952 -20.499,-31.297 -8.381,-3.374 -19.759,-4.991 -23.892,6.29 -5.299,14.465 9.152,7.041 13.946,9.993 14.788,9.106 13.935,28.174 -4.05,37.951 -13.074,7.108 -28.212,10.311 -41.781,16.646 -17.933,8.371 -25.027,24.932 -24.299,43.176 0.57,14.286 10.597,23.779 25.025,28.106 7.103,2.131 13.016,3.443 16.957,-4.457 2.536,-5.086 6.834,-11.132 -3.849,-11.677 -11.498,-0.586 -17.47,-7.854 -16.803,-17.78 0.702,-10.44 8.023,-18.22 18.336,-21.934 10.954,-3.946 22.357,-6.814 32.971,-11.498 C -9.281,35.284 -0.451,20.084 0,0" style="fill:#3d3421;fill-opacity:1;fill-rule:nonzero;stroke:none" transform="matrix(1.3333333,0,0,-1.3333333,1571.4704,2740.2705)" />
      <path id="path27" d="m 0,0 c -11.991,-6.797 -24.58,-14.076 -37.308,-21.102 -10.525,-5.81 -12.739,3.34 -16.172,9.556 -19.046,34.487 -38.034,69.005 -56.856,103.614 -3.424,6.297 -8.834,12.449 1.846,18.649 12.717,7.381 14.328,-3.263 17.915,-9.748 C -75.551,73.81 -60.226,46.766 -46.62,18.895 -39.708,4.736 -32.527,-1.534 -18.76,9.442 -8.403,17.7 -4.129,12.117 0,0" style="fill:#3d3421;fill-opacity:1;fill-rule:nonzero;stroke:none" transform="matrix(1.3333333,0,0,-1.3333333,1057.2339,3043.4645)" />
      <path id="path28" d="m 0,0 c 15.405,11.511 19.668,24.578 27.803,34.455 3.212,3.899 4.882,12.406 12.74,7.471 C 49.319,36.415 43.5,30.947 39.626,25.366 23.92,2.735 8.581,-20.153 -7.28,-42.674 c -2.227,-3.162 -3.139,-10.802 -10.654,-6.049 -5.128,3.244 -4.569,7.243 -4.31,12.698 0.549,11.544 10.306,21.711 4.699,34.51 -11.567,-2.527 -13.098,-14.055 -19.351,-21.151 -2.946,-3.343 -4.959,-9.633 -11.468,-4.651 -4.107,3.144 -4.328,6.698 -1.524,10.754 17.57,25.417 35.139,50.834 52.709,76.251 1.999,2.891 3.879,4.841 7.916,2.376 5.711,-3.487 4.781,-8.475 3.474,-13.235 C 10.217,34.275 5.813,19.834 0,0" style="fill:#3d3421;fill-opacity:1;fill-rule:nonzero;stroke:none" transform="matrix(1.3333333,0,0,-1.3333333,2231.0651,1703.6636)" />
      <path id="path29" d="m 0,0 c 1.817,-6.144 -4.97,-16.813 6.211,-17.5 6.868,-0.422 9.072,8.445 9.07,15.448 -0.003,7.19 2.018,17.241 -8.128,17.603 C -2.44,15.894 1.516,5.819 0,0 m -3.792,-35.719 c -0.479,-10.691 -0.809,-21.391 -1.495,-32.068 -0.383,-5.967 -3.872,-9.088 -9.957,-8.277 -5.919,0.788 -5.36,5.671 -5.01,9.639 2.583,29.243 5.515,58.455 7.989,87.706 0.62,7.333 3.513,10.653 11.017,9.788 12.601,-1.453 27.829,-2.268 29.995,-17.032 1.882,-12.83 8.852,-27.757 -9.143,-39.549 -12.764,-8.365 2.314,-22.641 2.743,-34.518 0.24,-6.64 8.981,-15.891 -0.774,-19.042 -10.039,-3.243 -9.776,8.409 -11.887,15.201 -2.919,9.39 -5.909,18.757 -8.868,28.133 -1.537,0.007 -3.073,0.013 -4.61,0.019" style="fill:#3d3421;fill-opacity:1;fill-rule:nonzero;stroke:none" transform="matrix(1.3333333,0,0,-1.3333333,1684.5252,1476.6049)" />
      <path id="path30" d="m 0,0 c 0,-9.249 -0.485,-18.532 0.151,-27.737 0.523,-7.555 -3.915,-19.218 8.741,-19.881 12.158,-0.636 10.873,10.53 11.074,18.616 0.481,19.334 -0.086,38.708 0.918,58.007 0.337,6.477 -3.342,18.013 8.031,17.889 11.858,-0.129 6.599,-11.25 6.656,-17.574 0.195,-21.849 -0.011,-43.736 -1.129,-65.553 -1.001,-19.547 -13.07,-23.716 -31.154,-23.13 -19.9,0.646 -18.187,13.459 -18.299,25.931 -0.197,21.865 -0.036,43.74 0.448,65.6 0.139,6.28 -1.291,15.51 8.11,15.787 11.138,0.327 6.56,-9.379 6.814,-15.16 C 0.842,21.883 0.5,10.934 0.5,0 0.333,0 0.167,0 0,0" style="fill:#3d3421;fill-opacity:1;fill-rule:nonzero;stroke:none" transform="matrix(1.3333333,0,0,-1.3333333,1589.7623,1497.8712)" />
      <path id="path31" d="m 0,0 c -0.623,4.267 -4.049,10.561 -6.397,9.254 -9.81,-5.464 -11.452,-16.875 -15.316,-26.415 -1.37,-3.383 1.479,-7.038 5.381,-6.024 C -4.705,-20.164 -3.015,-9.59 0,0 m -17.607,-88.725 c -23.305,5.759 -11.546,24.167 -16.549,35.935 -1.079,0 -2.753,0.452 -4.021,-0.073 -8.88,-3.679 -3.815,-25.043 -16.843,-18.529 -14.84,7.42 1.258,18.835 4.298,27.31 6.753,18.827 16.781,36.491 25.66,54.539 3.322,6.753 2.914,18.996 15.404,14.626 10.81,-3.782 22.832,-7.958 23.439,-22.922 0.35,-8.634 0.199,-19.542 -6.605,-23.429 -27.192,-15.536 -24.935,-41.597 -24.783,-67.457" style="fill:#3d3421;fill-opacity:1;fill-rule:nonzero;stroke:none" transform="matrix(1.3333333,0,0,-1.3333333,2105.5327,1571.3341)" />
      <path id="path32" d="m 0,0 c 0,3.336 -0.115,6.678 0.022,10.008 0.36,8.694 -3.863,16.005 -11.8,16.691 -9.802,0.848 -7.029,-9.048 -8.237,-14.896 -3.531,-17.089 -7.073,-34.188 -9.947,-51.394 -0.853,-5.109 -4.608,-12.516 3.092,-15.173 7.422,-2.561 13.176,2.812 15.97,8.941 C -4.31,-31.365 -0.47,-16.034 0,0 m 14.041,-3.572 c -2.673,-12.731 -3.855,-30.3 -11.677,-46.471 -8.867,-18.332 -24.61,-19.682 -40.38,-14.86 -17.264,5.279 -6.958,19.813 -5.635,29.885 2.489,18.957 6.426,37.837 11.449,56.289 1.804,6.623 -3.173,18.948 10.464,19.109 11.942,0.142 23.882,-1.712 30.629,-13.097 4.681,-7.9 7.339,-16.89 5.15,-30.855" style="fill:#3d3421;fill-opacity:1;fill-rule:nonzero;stroke:none" transform="matrix(1.3333333,0,0,-1.3333333,1839.2292,1508.2937)" />
      <path id="path33" d="m 0,0 c -1.279,10.112 -2.423,21.751 -4.333,33.264 -1.101,6.635 -3.04,13.359 -11.965,13.587 -9.73,0.249 -9.114,-7.335 -11.11,-13.624 -3.75,-11.813 -0.657,-23.34 0.778,-34.809 1.641,-13.116 -3.537,-35.274 13.575,-35.115 C 6.771,-36.512 -3.646,-14.249 0,0 m -42.905,10.161 c 0.357,6.696 0.651,13.397 1.085,20.088 0.931,14.363 4.274,26.383 21.963,28.367 18.15,2.036 26.854,-7.519 29.599,-23.365 4.143,-23.909 10.816,-47.927 -0.35,-72.032 -4.584,-9.896 -11.843,-13.06 -21.916,-13.223 -10.391,-0.167 -17.857,4.121 -22.258,13.327 -7.082,14.815 -7.423,30.828 -8.123,46.838" style="fill:#3d3421;fill-opacity:1;fill-rule:nonzero;stroke:none" transform="matrix(1.3333333,0,0,-1.3333333,1530.3913,1511.3443)" />
      <path id="path34" d="m 0,0 c 22.539,12.053 42.635,25.315 59.425,43.003 1.811,1.908 2.427,6.996 1.182,9.307 -2.205,4.088 -7.193,4.234 -11.091,2.247 C 28.614,43.9 9.391,30.83 -6.791,13.664 -9.198,11.11 -10.235,7.421 -7.685,4.641 -5.662,2.436 -2.389,1.378 0,0 M 54.826,69.657 C 69.886,69.861 80.987,52.514 72.221,39.96 55.063,15.386 30.606,-0.449 2.711,-10.738 c -7.589,-2.799 -15.156,-0.583 -20.19,6.208 -4.882,6.587 -4.698,14.333 -1.972,21.572 5.58,14.819 59.165,52.411 74.277,52.615" style="fill:#3d3421;fill-opacity:1;fill-rule:nonzero;stroke:none" transform="matrix(1.3333333,0,0,-1.3333333,2445.1751,1986.2447)" />
      <path id="path35" d="m 0,0 c -1.274,0.699 -2.547,1.398 -3.821,2.098 -5.911,-6.731 -11.698,-13.574 -17.77,-20.156 -4.912,-5.326 -2.256,-8.358 2.581,-11.5 6.219,-4.039 8.326,-1.015 10.121,4.719 C -6.264,-16.453 -2.995,-8.27 0,0 m -31.613,-34.259 c -6.309,0.821 -8.028,-6.294 -12.174,-9.734 -3.546,-2.942 -6.925,-5.319 -10.679,-1.498 -3.998,4.068 -0.614,7.528 2.138,10.65 20.478,23.229 40.998,46.421 61.451,69.672 2.469,2.806 5.855,4.621 8.59,2.397 2.05,-1.666 3.733,-6.065 3.021,-8.499 -8.885,-30.404 -18.131,-60.704 -27.606,-90.93 -1.216,-3.878 -4.273,-7.665 -9.392,-5.014 -4.501,2.331 -5.185,7.105 -3.061,10.783 7.795,13.492 -1.377,17.681 -12.288,22.173" style="fill:#3d3421;fill-opacity:1;fill-rule:nonzero;stroke:none" transform="matrix(1.3333333,0,0,-1.3333333,2162.5191,1634.2987)" />
      <path id="path36" d="m 0,0 c 23.308,6.389 43.528,11.486 63.431,17.611 7.791,2.398 15.118,6.689 22.196,10.893 5.221,3.101 9.68,8.242 6.155,14.587 -3.928,7.069 -9.506,3.759 -14.956,0.667 -5.132,-2.911 -11.772,-10.749 -16.128,-0.409 -3.336,7.919 5.451,10.737 10.509,13.839 10.819,6.635 20.52,4.495 28.304,-5.708 9.315,-12.21 7.394,-23.745 -3.326,-33.475 C 82.695,5.761 64.711,3.141 48.109,-2.146 40.252,-4.649 31.327,-3.708 24.485,-9.523 25.458,-17.933 36.881,-21.083 35.157,-32.955 18.254,-28.29 12.331,-13.369 0,0" style="fill:#3d3421;fill-opacity:1;fill-rule:nonzero;stroke:none" transform="matrix(1.3333333,0,0,-1.3333333,2355.3196,1902.6496)" />
      <path id="path37" d="m 0,0 c 27.712,2.953 53.866,-0.018 79.096,6.481 5.607,1.444 11.352,2.862 16.522,5.355 5.574,2.689 9.388,7.366 6.214,14.106 -2.63,5.585 -7.669,6.405 -12.702,3.868 -7.421,-3.741 -16.097,-6.874 -17.372,4.306 -1.439,12.613 11.017,6.202 16.761,7.874 13.937,4.058 21.642,-3.888 25.669,-16.922 C 118.934,9.704 108.099,3.117 97.974,-2.097 75.713,-13.559 50.459,-7.631 25.983,-11.359 c 0.989,-3.427 1.855,-5.659 2.259,-7.971 1.027,-5.89 11.37,-12.168 3.318,-16.97 -8.313,-4.958 -10.428,6.062 -11.774,10.985 C 16.869,-14.646 3.762,-13.493 0,0" style="fill:#3d3421;fill-opacity:1;fill-rule:nonzero;stroke:none" transform="matrix(1.3333333,0,0,-1.3333333,2472.4964,2076.9597)" />
      <path id="path38" d="m 0,0 c 4.658,-4.909 7.952,-8.561 11.448,-12.008 2.795,-2.756 3.451,-5.615 0.695,-8.557 -2.546,-2.716 -5.648,-3.567 -8.386,-0.304 -14.809,17.643 -20.138,-1.417 -28.498,-7.521 -13.935,-10.173 -1.773,-16.4 3.792,-23.822 1.129,-1.506 0.163,-4.583 0.163,-7.185 -31.011,11.99 -33.155,18.757 -13.982,39.764 12.28,13.454 25.394,25.872 35.624,41.55 14.926,22.875 31.3,21.156 44.718,-1.908 1.735,-2.982 4.046,-5.978 -0.053,-8.321 -1.775,-1.015 -5.7,-1.276 -6.736,-0.138 C 16.732,35.76 13.91,3.482 0,0" style="fill:#3d3421;fill-opacity:1;fill-rule:nonzero;stroke:none" transform="matrix(1.3333333,0,0,-1.3333333,2352.0684,1780.3263)" />
      <path id="path39" d="m 0,0 c -41.675,-6.683 -47.651,-0.835 -39.893,27.381 5.552,20.191 10.914,40.436 16.731,60.551 4.464,15.436 26.731,20.053 38.359,8.587 2.593,-2.557 1.945,-4.576 0.648,-6.176 C 14.51,88.696 11.209,86.624 9.973,87.223 -4.645,94.306 -9.042,87.379 -13.516,73.97 -19.079,57.295 -6.751,54.555 4.045,48.531 -4.365,38.066 -22.152,49.137 -26.325,28.558 -30.192,9.489 -21.155,5.371 0,0" style="fill:#3d3421;fill-opacity:1;fill-rule:nonzero;stroke:none" transform="matrix(1.3333333,0,0,-1.3333333,1920.0093,1611.8836)" />
      <path id="path40" d="m 0,0 c -28.25,9.329 -29.043,-13.745 -36.047,-30.652 -1.827,-4.411 -1.76,-13.655 -10.79,-10.111 -8.124,3.187 -4.012,10.397 -2.27,15.181 9.433,25.9 19.754,51.476 29.255,77.352 2.323,6.325 4.748,11.125 12.2,8.576 C 1.627,57.174 12.395,56.377 18.555,47.496 19.967,45.46 17.083,39.301 13.657,41.091 -5.865,51.291 -9.505,38.507 -15.346,24.102 -22.57,6.287 2.055,14.354 0,0" style="fill:#3d3421;fill-opacity:1;fill-rule:nonzero;stroke:none" transform="matrix(1.3333333,0,0,-1.3333333,2033.0168,1588.4021)" />
      <path id="path41" d="m 0,0 c 0.889,22.439 34.26,64.448 54.356,69.722 7.321,1.921 15.131,2.372 21.682,-2.454 4.502,-3.316 11.767,-6.885 9.094,-13.363 -3.84,-9.308 -9.064,-0.806 -13.785,0.644 C 52.836,60.232 43.662,46.7 34.382,35.287 24.706,23.385 10.817,12.433 17.17,-6.152 19.305,-12.399 34.433,-18.121 19.032,-24.469 8.02,-29.008 6.71,-16.008 2.15,-10.054 -0.081,-7.14 0.397,-2.151 0,0" style="fill:#3d3421;fill-opacity:1;fill-rule:nonzero;stroke:none" transform="matrix(1.3333333,0,0,-1.3333333,2243.4581,1784.7883)" />
      <path id="path42" d="m 0,0 c 7.137,-0.939 15.993,4.595 19.508,-2.372 4.401,-8.723 -6.646,-6.454 -10.037,-9.881 -4.682,-4.734 -2.048,-11.268 -1.419,-16.921 2.319,-20.87 5.185,-41.679 7.59,-62.54 0.67,-5.811 6.113,-14.337 -5.548,-15.148 -9.163,-0.636 -7.139,7.319 -7.836,12.7 -2.585,19.959 -4.431,40.042 -7.871,59.849 -1.438,8.28 1.847,20.303 -14.93,20.498 -7.98,0.093 -5.428,9.247 1.27,11.566 C -13.086,-0.106 -5.988,-0.598 0,0" style="fill:#3d3421;fill-opacity:1;fill-rule:nonzero;stroke:none" transform="matrix(1.3333333,0,0,-1.3333333,1424.8819,1441.076)" />
      <path id="path43" d="m 0,0 c -1.496,1.111 -4.263,2.111 -5.069,3.965 -2.315,5.323 2.054,6.628 5.738,8.888 19.235,11.801 38.52,23.565 57.159,36.265 5.122,3.49 15.541,3.659 13.08,14.395 -0.915,3.991 0.679,7.133 4.144,7.727 6.384,1.093 7.949,-4.875 10.062,-8.988 1.56,-3.039 6.695,-6.8 1.02,-10.325 C 58.542,34.789 30.811,17.874 3.111,0.911 2.432,0.495 1.535,0.436 0,0" style="fill:#3d3421;fill-opacity:1;fill-rule:nonzero;stroke:none" transform="matrix(1.3333333,0,0,-1.3333333,2467.2112,2050.3635)" />
      <path id="path44" d="m 0,0 c -8.118,-0.756 -12.34,3.426 -10.547,8.413 3.97,11.04 15.865,12.938 25.151,16.948 5.456,2.355 10.195,-5.489 8.985,-8.438 C 19.204,6.233 7.215,4.932 0,0" style="fill:#3d3421;fill-opacity:1;fill-rule:nonzero;stroke:none" transform="matrix(1.3333333,0,0,-1.3333333,1778.3623,2587.6733)" />
      <path id="path45" d="m 0,0 c -6.819,-9.917 -17.136,-13.578 -26.573,-17.487 -6.246,-2.588 -9.587,5.008 -8.168,9.109 C -31.137,2.033 -19.75,3.145 -11.244,7.365 -4.289,10.816 -3.982,2.942 0,0" style="fill:#3d3421;fill-opacity:1;fill-rule:nonzero;stroke:none" transform="matrix(1.3333333,0,0,-1.3333333,1480.3437,2744.2611)" />
      <path id="path46" d="M 0,0 C 8.031,7.763 16.061,15.526 24.092,23.289 22.172,10.438 13.958,2.488 3.16,-3.451 2.124,-2.285 1.071,-1.135 0,0" style="fill:#3d3421;fill-opacity:1;fill-rule:nonzero;stroke:none" transform="matrix(1.3333333,0,0,-1.3333333,2188.5233,1420.3116)" />
      <path id="path47" d="M 0,0 C 4.145,-5.925 8.289,-11.849 12.434,-17.774 11.227,-18.996 10.02,-20.218 8.813,-21.44 1.656,-17.337 -0.535,-9.952 -3.375,-2.996 -2.225,-2.025 -1.1,-1.027 0,0" style="fill:#3d3421;fill-opacity:1;fill-rule:nonzero;stroke:none" transform="matrix(1.3333333,0,0,-1.3333333,1719.1231,1306.1043)" />
      <path id="path48" d="M 0,0 C -6.012,-4.174 -11.749,-9.07 -22.72,-7.124 -16.28,-0.941 -10.856,2.98 -3.16,3.451 -2.09,2.316 -1.036,1.166 0,0" style="fill:#3d3421;fill-opacity:1;fill-rule:nonzero;stroke:none" transform="matrix(1.3333333,0,0,-1.3333333,2192.7369,1424.9129)" />
      <path id="path49" d="M 0,0 C 3.404,-3.294 6.808,-6.588 10.212,-9.879 8.821,-11.302 7.428,-12.729 6.036,-14.156 2.817,-10.66 -0.402,-7.163 -3.621,-3.667 -2.414,-2.444 -1.207,-1.222 0,0" style="fill:#3d3421;fill-opacity:1;fill-rule:nonzero;stroke:none" transform="matrix(1.3333333,0,0,-1.3333333,1735.7015,1329.8025)" />
      <path id="path50" d="M 0,0 C -2.227,3.885 -6.095,9.199 -0.836,11.597 2.415,13.08 2.883,6.534 3.375,2.996 2.275,1.969 1.15,0.97 0,0" style="fill:#3d3421;fill-opacity:1;fill-rule:nonzero;stroke:none" transform="matrix(1.3333333,0,0,-1.3333333,1714.6232,1310.0984)" />
      <path id="path51" d="M 0,0 C 2.118,3.538 5.911,7.852 8.927,4.13 12.694,-0.52 5.261,-1.081 3.18,-3.791 2.048,-2.589 0.987,-1.325 0,0" style="fill:#3d3421;fill-opacity:1;fill-rule:nonzero;stroke:none" transform="matrix(1.3333333,0,0,-1.3333333,1859.2559,1353.8996)" />
      <path id="path53" d="M 0,0 C -3.44,2.698 -5.569,5.677 -2.12,9.857 -0.056,7.757 2.008,5.658 4.072,3.56 2.715,2.374 1.357,1.187 0,0" style="fill:#ebe3c0;fill-opacity:1;fill-rule:nonzero;stroke:none" transform="matrix(1.3333333,0,0,-1.3333333,1892.3397,2500.3499)" />
      <path id="path54" d="m 0,0 c 1.366,-3.782 3.162,-7.571 -0.187,-11.275 -1.772,2.369 -3.544,4.739 -5.317,7.107 C -3.67,-2.78 -1.835,-1.39 0,0" style="fill:#ebe3c0;fill-opacity:1;fill-rule:nonzero;stroke:none" transform="matrix(1.3333333,0,0,-1.3333333,1291.3548,2786.0957)" />
      <path id="path55" d="M 0,0 C -1.732,2.167 -3.465,4.334 -5.197,6.502 -1.393,8.488 2.008,8.18 4.854,4.731 3.236,3.154 1.618,1.577 0,0" style="fill:#ebe3c0;fill-opacity:1;fill-rule:nonzero;stroke:none" transform="matrix(1.3333333,0,0,-1.3333333,2064.0975,2429.4603)" />
      <path id="path56" d="M 0,0 C -5.515,1.57 -8.992,5.201 -10.72,10.599 -1.5,12.777 1.027,8.186 0,0" style="fill:#3d3421;fill-opacity:1;fill-rule:nonzero;stroke:none" transform="matrix(1.3333333,0,0,-1.3333333,1893.5377,1206.5083)" />
      <path id="path57" d="M 0,0 C -7.118,0.937 -8.468,4.805 -5.519,10.858 0.442,9.333 0.132,4.622 0,0" style="fill:#3d3421;fill-opacity:1;fill-rule:nonzero;stroke:none" transform="matrix(1.3333333,0,0,-1.3333333,1907.0987,1226.6736)" />
      <path id="path58" d="M 0,0 C -6.144,-2.552 -5.198,2.275 -5.758,5.533 0.249,7.942 -0.382,3.444 0,0" style="fill:#3d3421;fill-opacity:1;fill-rule:nonzero;stroke:none" transform="matrix(1.3333333,0,0,-1.3333333,1900.4153,1213.0519)" />
      <path id="path59" d="m 16.442376,0.00207328 7.085543,-7.15e-6 -0.0052,-48.35800213 16.604637,-5.89e-4 0.0016,-5.95814 -40.21062356,-0.0044 -0.0016181,5.95814 16.52044366,0.005 z m 29.649871,-54.31770828 -0.0019,31.994154 c 0.0044,16.8402624 8.38973,23.20789455 19.513737,23.20640841 C 77.3678,0.88627041 86.150946,-5.9578832 86.149716,-22.651437 l -0.0039,-31.664449 -7.095815,-0.0044 2.87e-4,32.161195 c 0.003,12.001991 -5.164604,17.3251697 -13.21535,17.3289103 -7.248289,0.00329 -12.635683,-5.1588577 -12.640898,-17.3278913 l -2.86e-4,-32.161195 z m 80.357293,23.043543 -21.10979,3.37e-4 0.006,-17.157611 22.31066,0.003 -0.007,-5.889165 -29.327916,-0.005 0.0035,54.31614283 30.544696,0.004709993 -0.002,-5.876809123 -23.52744,-0.00269 6.9e-4,-19.5891037 21.10979,-3.37e-4 z m 8.77753,28.6105663 c 2.89897,1.93152204 8.6285,3.47114962 13.86783,3.47298046 12.80747,-4.302e-5 19.02575,-7.26294986 19.03229,-15.64820276 -0.003,-7.974217 -4.67694,-12.4064 -13.87384,-15.943408 -7.50258,-2.908064 -10.8092,-5.397496 -10.80419,-10.471784 0.006,-3.714023 2.82177,-8.150428 10.24308,-8.152617 4.90921,-0.004 8.54256,1.60741 10.31421,2.580764 l 1.93021,-5.717234 c -2.41739,-1.383621 -6.4401,-2.652317 -12.00956,-2.659942 -10.55258,0.0063 -17.57167,6.28419 -17.5766,14.742798 -0.002,7.660466 5.49773,12.247665 14.35182,15.39975 7.33924,2.817657 10.23757,5.714362 10.23255,10.788651 0.0113,5.4861063 -4.17817,9.2746471 -11.35818,9.2759035 -4.84092,0.00193 -9.42356,-1.6093062 -12.56846,-3.5522511 z m 42.47772,2.48927939 c 3.54034,0.41939978 7.74537,0.6550362 12.73312,0.6534208 10.56286,-0.001967 18.93758,-2.73280059 24.02018,-7.82230989 5.07756,-4.9878456 7.8129,-12.2408156 7.82207,-21.1024816 -0.005,-8.784714 -2.81935,-15.071367 -7.66596,-19.504649 -4.74751,-4.422174 -11.92099,-6.774675 -22.00124,-6.774575 -5.56482,0.0047 -10.62914,0.492769 -14.90369,1.13066 z m 7.02297,-48.25791069 c 1.84019,-0.409277 4.5779,-0.726567 8.20204,-0.728211 14.83698,0.0036 22.08619,8.129211 22.00679,20.947329 0.002,14.6695 -8.14421,23.051766 -23.12802,23.047853 -2.74313,0.00354 -5.31949,-0.077533 -7.0813,-0.4030517 z m 73.57038,31.35647 5.80411,17.07061539 7.49987,1.5798e-4 -18.54886,-54.31246737 -8.45943,-0.0044 -18.44731,54.31856974 7.24829,-0.00328825 5.63975,-17.07068649 z m -17.81116,-5.496804 5.32065,-15.711836 c 1.04992,-3.299994 1.93245,-6.609062 2.73703,-9.826792 l 0.14684,3.16e-4 c 0.8249,3.144253 1.62523,6.361078 2.83403,9.907771 l 5.31452,15.626506 z m 51.88916,22.56942264 0.003,-23.12810764 18.22352,-31.180769 -7.97682,-0.0063 -7.81802,14.989655 c -2.10216,4.107497 -3.94608,7.660696 -5.49069,11.20655 l -0.16738,-0.0091 c -1.68495,-3.780844 -3.30425,-7.087307 -5.38739,-11.193641 l -7.65866,-14.996081 -7.98246,0.0017 17.16832,31.269258 0.001,23.04677679 z m 38.77188,-2.65926284 c 2.58556,1.69409074 7.74909,3.54260877 13.62813,3.5472684 12.57181,-0.007086 19.1027,-7.3339567 19.10924,-15.7192092 -0.009,-7.322785 -5.24455,-12.170864 -11.69517,-13.446963 l 0.008,-0.162662 c 6.44108,-2.34064 9.66356,-6.935945 9.65851,-12.336341 0.006,-6.361199 -4.6729,-12.487731 -14.98418,-12.482318 -5.64801,-0.01 -10.96657,2.009903 -13.6991,4.021543 l 1.85771,5.16254 c 2.24569,-1.606714 6.26649,-3.473964 10.46207,-3.470747 6.52438,-4.88e-4 9.1832,3.707648 9.18506,7.902464 -0.003,6.206513 -6.52328,8.866534 -11.66815,8.863453 l -3.95991,0.0038 -10e-4,5.314685 3.95991,-0.0038 c 6.83397,-0.0035 13.44345,3.146708 13.53141,10.471841 0.078,4.35185 -2.74852,10.164473 -11.8533,10.1652197 -4.91947,-4.165e-4 -9.57643,-2.0170606 -11.59481,-3.3032318 z m 72.30046,-15.8745738 c -0.008,10.6373469 -3.72452,13.4544583 -9.99734,13.4583928 -2.34936,-0.00505 -4.42859,-0.4866732 -5.88001,-1.0431973 l -1.03892,5.72350905 c 1.76321,0.72060082 4.90835,1.2829476 7.48874,1.28268914 9.34608,-0.00168 16.42593,-4.43689979 16.42221,-18.85802669 l 0.002,-36.343655 -7.00699,0.0024 z m 18.60749,-35.779457 -0.002,31.994153 c 0.004,16.8402629 8.38973,23.20789507 19.51374,23.20640893 11.76371,0.001343 20.54686,-6.84281063 20.54563,-23.53636393 l -0.004,-31.664449 -7.09582,-0.0044 2.9e-4,32.161195 c 0.003,12.001992 -5.1646,17.3251702 -13.21535,17.3289108 -7.24829,0.00329 -12.63568,-5.1588577 -12.6409,-17.3278908 l -2.8e-4,-32.161195 z m 52.23021,54.31012644 30.22484,0.003295606 -0.002,-5.876809146 -23.20758,-0.00127 -0.001,-48.4393339 -7.01726,-0.002 z m 50.43912,0.00266568 0.003,-23.12810712 18.22353,-31.18077 -7.97682,-0.0063 -7.81802,14.989656 c -2.10216,4.107497 -3.94608,7.660696 -5.49069,11.20655 l -0.16738,-0.0091 c -1.68495,-3.780844 -3.30425,-7.087306 -5.38739,-11.19364 l -7.65866,-14.996082 -7.98246,0.0017 17.16832,31.269259 10e-4,23.04677627 z m 0,0" style="fill:#ebb623;fill-opacity:1;fill-rule:nonzero;stroke:none" aria-label="TUESD&#10;A&#10;Y 3 JUL&#10;Y" transform="matrix(1.168754,-0.64171012,0.82639312,1.5051192,1595.0976,2983.2864)" />
      <path id="path60" d="m 0,0 c 0,-44.762 -36.287,-81.05 -81.05,-81.05 -44.762,0 -81.05,36.288 -81.05,81.05 0,44.763 36.288,81.05 81.05,81.05 C -36.287,81.05 0,44.763 0,0 Z" style="fill:none;stroke:#3d3421;stroke-width:10;stroke-linecap:butt;stroke-linejoin:miter;stroke-miterlimit:10;stroke-dasharray:none;stroke-opacity:1" transform="matrix(1.3333333,0,0,-1.3333333,1915.9095,1263.5812)" />
      <path id="path61" d="m 0,0 c 0,-44.762 -36.287,-81.05 -81.05,-81.05 -44.762,0 -81.05,36.288 -81.05,81.05 0,44.763 36.288,81.05 81.05,81.05 C -36.287,81.05 0,44.763 0,0 Z" style="fill:none;stroke:#3d3421;stroke-width:10;stroke-linecap:butt;stroke-linejoin:miter;stroke-miterlimit:10;stroke-dasharray:none;stroke-opacity:1" transform="matrix(1.3333333,0,0,-1.3333333,2242.9853,1332.0249)" />
      <path id="path62" d="m 0,0 -807.146,-450.138 -58.166,104.296 807.147,450.138 z" style="fill:#3d3421;fill-opacity:1;fill-rule:nonzero;stroke:none" transform="matrix(1.3333333,0,0,-1.3333333,1475.188,628.7264)" />
      <path id="path63" d="M 3.5684784,-2.8172024 C 6.6503293,-0.76617921 12.685411,0.85181723 18.21841,0.85428083 31.765698,0.84784303 38.323992,-6.820313 38.311613,-15.670416 c 0.0039,-8.438284 -4.925057,-13.114316 -14.641211,-16.862333 -7.924751,-3.067299 -11.413248,-5.696565 -11.41467,-11.064278 -6.5e-5,-3.913759 2.986147,-8.609799 10.821777,-8.611822 5.197232,0.0046 9.036031,1.703614 10.910407,2.720765 l 2.035155,-6.035838 c -2.555562,-1.452914 -6.804262,-2.817963 -12.68894,-2.814647 -11.150192,7.02e-4 -18.5596487,6.641562 -18.5625811,15.588949 0.00294,8.088247 5.7889531,12.932434 15.1484071,16.258459 7.755762,2.984869 10.813407,6.053316 10.81483,11.421029 -0.0038,5.7911048 -4.413853,9.7970495 -11.992269,9.7945425 -5.118679,-0.0023 -9.9647775,-1.6947191 -13.2822892,-3.7527856 z M 59.350056,4.7125059e-4 66.849918,6.3051435e-4 66.854532,-51.093915 l 17.543656,-0.0051 -0.0074,-6.304588 -42.487069,8.18e-4 0.0074,6.304588 17.44355,0.0041 z M 114.03025,-18.053185 l 6.12796,18.04959062 7.92446,0.00470407 -19.58626,-57.40205169 -8.947664,0.0054 L 80.062598,-5.7666667e-4 87.719568,0.00427813 93.670542,-18.05491 Z m -18.819248,-5.791661 5.622208,-16.611027 c 1.10108,-3.485808 2.03478,-6.98069 2.89053,-10.384232 l 0.16275,-0.0033 c 0.85793,3.324437 1.71747,6.722229 2.98911,10.48258 l 5.62185,16.515389 z m 83.719518,-6.300737 -18.90163,-0.0029 -0.002,5.958147 11.66925,0.0026 -0.004,17.1169649 c -1.70989,0.8489379 -5.03253,1.5397146 -9.88372,1.5372655 -13.36863,-4.403e-4 -22.1462,-8.6115834 -22.14287,-23.1750574 -1e-4,-14.388454 9.12069,-23.071477 23.09257,-23.07337 5.78458,0.0059 9.62178,1.102087 12.66398,2.471803 l 1.79949,-6.042881 c -2.46855,-1.197813 -7.66815,-2.636081 -14.31319,-2.635127 -19.2374,-7.21e-4 -30.98685,12.513422 -31.06943,29.628039 0.003,8.939411 3.05335,16.593381 7.99783,21.3798364 5.60834,5.3601681 12.7776,7.58629686 21.45778,7.58100696 7.75144,0.003606 14.31557,-1.96275336 17.63159,-3.15465646 z m 41.03488,-2.89605 -22.30038,0.0014 0.008,-18.143147 23.57517,-0.0081 -0.007,-6.2109 -30.99084,0.0023 0.003,57.39913317566 32.27026,0.003344184 -0.001,-6.21887676 -24.85459,0.00244 0.003,-20.6886626 22.30039,-0.0014 z m 0,0" style="fill:#ffffff;fill-opacity:1;fill-rule:nonzero;stroke:none" aria-label="ST&#10;A&#10;GE" transform="matrix(1.1687539,-0.64171038,0.82639236,1.5051174,411.67307,1183.6864)" />
      <path id="path64" d="m 0,0 -380.958,-212.457 -45.95,82.394 380.958,212.457 z" style="fill:#3d3421;fill-opacity:1;fill-rule:nonzero;stroke:none" transform="matrix(1.3333333,0,0,-1.3333333,1100.3387,1300.3303)" />
      <path id="path65" d="m 13.195623,-0.00160229 4.746455,-6.8481e-4 0.0025,-36.3437059 -4.1853,0.0012 -7.9358804,4.246743 0.9415082,3.754557 6.3055612,-3.415788 0.12065,-4.67e-4 z m 20.845006,0.553754 c 1.181929,0.0679046 2.753408,8.3843e-4 4.534169,-0.26767503 3.913801,-0.44911927 7.7787,-2.13369438 10.557782,-4.87294068 3.601906,-3.4680837 6.280779,-9.052992 6.278435,-17.047553 0.0041,-9.28945 -4.585197,-15.315573 -12.016778,-15.317759 -7.447494,0.0014 -12.409071,6.035316 -12.41958,12.913604 0.0068,6.210901 4.189551,11.129346 10.740123,11.129636 3.624144,-0.0016 6.538939,-1.458044 8.559464,-3.918589 l 0.157108,0.0047 c -0.66443,4.305232 -2.406014,7.4868167 -4.795934,9.6756766 -2.084157,1.9454976 -4.765094,3.1278757 -7.605931,3.5153928 -1.681255,0.1656 -2.924623,0.2791257 -3.983886,0.1700887 z M 42.983414,-33.2152 c 5.144863,0.0031 7.44733,4.763512 7.443894,10.970034 0.0084,0.782189 -0.15534,1.335239 -0.434725,1.787092 -1.298426,2.176682 -3.859332,3.794342 -7.163622,3.797403 -4.253582,0.0032 -6.985328,-3.185831 -6.981345,-7.710358 0.0034,-5.14765 2.950498,-8.843006 7.135798,-8.844171 z m 17.564862,-3.131211 -0.0034,4.088778 17.779317,0.0019 0.0052,0.106043 -15.764412,32.14621549 5.092495,0.00151196 15.81641,-33.08950145 -0.0015,-3.249971 z m 41.602194,36.34295515 4.86147,0.00682505 -10e-4,-14.3681252 3.57252,-4.145012 12.41971,18.51049300986 5.76403,-0.00285366 -14.70068,-21.69419335 13.63142,-15.988844 -6.03151,0.003 -11.52048,14.137816 c -0.9584,1.242004 -1.95265,2.572534 -2.97451,4.036634 l -0.16274,0.0033 0.004,-18.175841 -4.86147,-0.0068 z m 30.30433,-37.68309815 -6.9e-4,37.68364063 4.86147,0.00682505 6.9e-4,-37.68364068 z m 13.3614,37.68387521 20.96295,-6.6548e-4 0.003,-4.08877833 -16.10149,0.00749 -0.003,-33.5948624 -4.86146,-0.0068 z M 185.27004,-38.298116 c -10.05406,8.89e-4 -17.47524,7.830602 -17.48048,19.787565 0.006,11.4115735 6.98176,19.12990735 16.92544,19.13386477 9.62384,0.002543 17.51207,-6.88058827 17.51534,-19.85575777 -0.002,-11.171177 -6.66493,-19.067495 -16.9603,-19.065672 z m -0.2078,3.980853 c 8.10312,-0.0022 12.02671,7.816348 12.02242,15.309783 -0.004,8.552306 -4.36832,15.6507254 -12.09358,15.6479082 -7.64669,-4.694e-4 -12.01484,-7.2091772 -12.0198,-15.2567602 0.006,-8.271244 4.04586,-15.705162 12.09096,-15.700931 z m 56.19482,34.31923706 4.74646,-6.8482e-4 -2.34867,-37.68869324 -6.20454,0.0019 -6.71475,18.231854 c -1.67235,4.747528 -3.02079,8.885703 -3.97525,12.6935559 l -0.16275,0.00328 c -0.94371,-3.9215989 -2.23367,-8.0531029 -3.80236,-12.6979379 l -6.41822,-18.225241 -6.21481,-0.0025 -2.62317,37.68671496 4.64172,-0.003815087 1.0004,-16.162712873 c 0.33717,-5.638603 0.61877,-11.954917 0.73656,-16.659309 l 0.10474,0.0031 c 1.0577,4.478878 2.56858,9.337833 4.3556,14.657098 l 6.09192,17.93040758 3.69706,0.008678 6.6495,-18.29082058 c 1.89372,-5.192969 3.47422,-9.886226 4.74795,-14.315788 l 0.18329,0.0055 c -0.0654,4.705957 0.27678,11.028696 0.56201,16.278642 z m 31.76055,-21.69539306 -14.65368,0.0019 -0.002,-11.908321 15.48232,-0.0016 -0.002,-4.080801 -20.3438,-0.0053 -6.9e-4,37.68364101 21.18835,0.00199805 0.003,-4.08877836 -16.32688,0.00483 -0.009,-13.5823397 14.65368,-0.0019 z m 16.03015,21.69523797 4.91948,4.1357e-4 -6e-5,-33.54184054 11.52806,-0.0057 7.4e-4,-4.1418 -27.90166,9.92e-4 -7.5e-4,4.1418 11.45414,0.0043 z m 40.1585,-21.69385197 -14.65369,0.0019 -0.002,-11.90832 15.48233,-0.0016 -0.002,-4.080802 -20.34379,-0.0053 -6.9e-4,37.68364048 21.18834,0.001998051 0.003,-4.088778331 -16.32688,0.00483 -0.009,-13.5823392 14.65369,-0.0019 z m 7.98645,21.68901194 4.86147,0.00682505 0.007,-16.32680399 4.58935,-0.0054 c 4.40263,0.16416 6.42421,2.126478 7.53546,7.3237316 1.06253,4.6989419 1.90395,7.9332889 2.52207,9.00656284 l 5.02422,0.00354385 c -0.78791,-1.45709899 -1.67745,-5.09607049 -2.90634,-10.35385629 -0.88107,-3.915654 -2.62608,-6.590554 -5.52367,-7.597558 l -0.002,-0.167042 c 3.95814,-1.343764 7.09557,-4.646535 7.10581,-9.614787 -0.003,-2.90791 -1.08123,-5.485511 -2.97009,-7.162852 -2.35492,-2.114821 -5.71659,-3.070533 -10.91382,-3.075176 -3.35666,0.0015 -6.86862,0.279358 -9.32173,0.780278 z m 4.86222,-33.76305594 c 0.77709,-0.229276 2.46137,-0.455875 4.80046,-0.455201 5.14748,0.0561 8.65553,2.185019 8.6606,7.055987 0.007,4.300866 -3.29144,7.150837 -8.49432,7.154171 l -4.97184,-0.002 z m 23.30135,31.9168632 c 2.02564,1.35154994 5.99115,2.39861618 9.62557,2.40134954 8.8953,-0.007013 13.19296,-5.02632144 13.19779,-10.83776074 -0.004,-5.534757 -3.24921,-8.621036 -9.6311,-11.072056 -5.18166,-2.011963 -7.48181,-3.750468 -7.47484,-7.277121 -0.004,-2.565849 1.96262,-5.63075 7.09721,-5.632053 3.40903,7e-5 5.93399,1.118115 7.15961,1.785996 l 1.33474,-3.967536 c -1.66792,-0.949891 -4.48173,-1.848504 -8.33126,-1.849521 -7.32684,9.45e-4 -12.18423,4.355984 -12.18181,10.232802 -0.006,5.302336 3.80614,8.495139 9.93929,10.674007 5.11076,1.960973 7.10414,3.963174 7.10744,7.4942064 4.8e-4,3.7997392 -2.90449,6.4334086 -7.87633,6.4314299 -3.35666,0.0015 -6.55779,-1.1245406 -8.72562,-2.4640501 z m 0,0" style="fill:#ffffff;fill-opacity:1;fill-rule:nonzero;stroke:none" aria-label="197 KIL&#10;OME&#10;TERS" transform="matrix(1.1687545,-0.64170924,0.82639126,1.5051175,594.4656,1543.8881)" />
    </g></svg>