<?xml version='1.0' encoding='utf-8'?>
<svg xmlns="http://www.w3.org/2000/svg" version="1.1" width="2739.390" height="56.688" viewBox="316.023 279.711 2739.390 56.688"><defs id="defs1"><clipPath clipPathUnits="userSpaceOnUse" id="clipPath4">
      <path d="M -1519.8112,1342.3302 H 864.12885 V -2028.0599 H -1519.8112 Z" id="path4" />
    </clipPath>
  </defs><g id="object"><path id="path44" d="m 10.312478,-11.073634 c 0,6.3515621 -2.2265624,8.0390621 -5.9765624,8.0390621 -1.3945312,0 -2.6484375,-0.2929687 -3.51562497,-0.6210937 l -0.6328125,3.41015623 c 1.06640627,0.43359375 2.94140627,0.7734375 4.48828127,0.7734375 5.5781246,0 9.8203126,-2.64843753 9.8203126,-11.27343713 v -21.714844 h -4.183594 z m 24.310547,-21.914063 c -8.660156,0 -15.070312,6.738281 -15.070312,17.050781 0,9.8203129 6.023437,16.46484413 14.589843,16.46484413 8.285157,0 15.082032,-5.91796873 15.082032,-17.09765613 0,-9.632813 -5.730469,-16.417969 -14.601563,-16.417969 z m -0.1875,3.410156 c 6.984375,0 10.359375,6.75 10.359375,13.207032 0,7.3593746 -3.761719,13.4765621 -10.40625,13.4765621 -6.597656,0 -10.359375,-6.2109375 -10.359375,-13.1484371 0,-7.125 3.46875,-13.535157 10.40625,-13.535157 z m 36.316406,19.371094 3.46875,10.207031375 h 4.476563 L 67.611306,-32.460353 H 62.560525 L 51.533181,5.84375e-4 h 4.335938 L 59.2324,-10.206447 Z m -10.652343,-3.28125 3.1875,-9.386719 c 0.621093,-1.980468 1.148437,-3.949218 1.628906,-5.882812 h 0.105469 c 0.480468,1.886719 0.960937,3.808594 1.675781,5.929687 l 3.1875,9.339844 z m 35.780273,-19.5 c -8.660156,0 -15.070313,6.738281 -15.070313,17.050781 0,9.8203129 6.023438,16.46484413 14.589844,16.46484413 8.285158,0 15.082028,-5.91796873 15.082028,-17.09765613 0,-9.632813 -5.73047,-16.417969 -14.601559,-16.417969 z m -0.1875,3.410156 c 6.984379,0 10.359379,6.75 10.359379,13.207032 0,7.3593746 -3.76172,13.4765621 -10.406254,13.4765621 -6.597656,0 -10.359375,-6.2109375 -10.359375,-13.1484371 0,-7.125 3.46875,-13.535157 10.40625,-13.535157 z m 20.173829,-2.882812 v 19.125 c 0,10.0664061 5.01562,13.86328113 11.66016,13.86328113 7.03125,0 12.28125,-4.08984373 12.28125,-14.06250013 v -18.925781 h -4.24219 v 19.21875 c 0,7.1718749 -3.08203,10.3476561 -7.89844,10.3476561 -4.33594,0 -7.55859,-3.0820312 -7.55859,-10.3476561 v -19.21875 z m 31.20703,0 V 5.84375e-4 h 4.19531 V -32.460353 Z M 162.53318,5.84375e-4 V -13.874416 c 0,-5.390625 -0.0937,-9.292968 -0.32812,-13.382812 l 0.14062,-0.04687 c 1.64063,3.515625 3.80859,7.21875 6.07031,10.828125 L 178.71677,5.84375e-4 h 4.24219 V -32.460353 h -3.94922 v 13.582031 c 0,5.050781 0.0937,9.0000001 0.48047,13.3359376 l -0.0937,0.046875 c -1.54687,-3.3164062 -3.42187,-6.7382816 -5.82422,-10.5468746 l -10.40625,-16.417969 h -4.58203 V 5.84375e-4 Z m 37.94824,0 h 4.19532 V -13.007228 c 0.96093,0.246094 2.12109,0.292969 3.375,0.292969 4.08984,0 7.69921,-1.207032 9.91406,-3.5625 1.64062,-1.6875 2.50781,-3.996094 2.50781,-6.9375 0,-2.894532 -1.05469,-5.25 -2.83594,-6.796875 -1.93359,-1.722657 -4.96875,-2.695313 -9.10547,-2.695313 -3.375,0 -6.02343,0.292969 -8.05078,0.632813 z M 204.67674,-29.038478 c 0.72656,-0.199219 2.12109,-0.339844 3.94921,-0.339844 4.62891,0 7.65235,2.074219 7.65235,6.351563 0,4.488281 -3.08203,6.9375 -8.13281,6.9375 -1.39454,0 -2.55469,-0.09375 -3.46875,-0.339844 z m 21.4248,-3.421875 V 5.84375e-4 h 4.19531 V -15.222072 h 15.70313 V 5.84375e-4 h 4.23047 V -32.460353 h -4.23047 v 13.582031 h -15.70313 v -13.582031 z m 44.54883,-0.527344 c -8.66016,0 -15.07031,6.738281 -15.07031,17.050781 0,9.8203129 6.02343,16.46484413 14.58984,16.46484413 8.28516,0 15.08203,-5.91796873 15.08203,-17.09765613 0,-9.632813 -5.73047,-16.417969 -14.60156,-16.417969 z m -0.1875,3.410156 c 6.98437,0 10.35937,6.75 10.35937,13.207032 0,7.3593746 -3.76172,13.4765621 -10.40625,13.4765621 -6.59765,0 -10.35937,-6.2109375 -10.35937,-13.1484371 0,-7.125 3.46875,-13.535157 10.40625,-13.535157 z m 37.03418,10.886719 h -12.6211 v -10.253906 h 13.33594 v -3.515625 H 290.68064 V 5.84375e-4 h 18.25781 V -3.5150406 h -14.0625 V -15.222072 h 12.6211 z M 318.32517,5.84375e-4 V -13.874416 c 0,-5.390625 -0.0937,-9.292968 -0.32812,-13.382812 l 0.14062,-0.04687 c 1.64063,3.515625 3.8086,7.21875 6.07032,10.828125 L 334.50877,5.84375e-4 h 4.24218 V -32.460353 h -3.94921 v 13.582031 c 0,5.050781 0.0937,9.0000001 0.48046,13.3359376 l -0.0937,0.046875 c -1.54687,-3.3164062 -3.42187,-6.7382816 -5.82421,-10.5468746 L 318.95804,-32.460353 H 314.376 V 5.84375e-4 Z M 346.06345,-32.460353 V 5.84375e-4 h 4.19532 V -32.460353 Z M 380.21482,5.84375e-4 370.10154,-16.663478 l 9.87891,-15.796875 h -4.81641 l -4.44141,7.605469 c -1.19531,2.074218 -2.01562,3.5625 -2.92968,5.496093 h -0.15235 c -0.86718,-1.734375 -1.78125,-3.375 -2.97656,-5.496093 l -4.28906,-7.605469 h -4.86328 l 9.52734,16.03125 -9.91406,16.429687375 h 4.8164 l 3.90235,-7.124999975 c 1.6875,-2.8476563 2.60156,-4.5820314 3.51562,-6.4570314 h 0.0937 c 1.00782,1.875 2.07422,3.6562501 3.75,6.4101564 l 4.14844,7.171874975 z M 489.53904,-10.206447 493.00779,5.84375e-4 h 4.47656 L 486.39842,-32.460353 h -5.05079 L 470.32029,5.84375e-4 h 4.33594 L 478.01951,-10.206447 Z m -10.65234,-3.28125 3.1875,-9.386719 c 0.62109,-1.980468 1.14843,-3.949218 1.6289,-5.882812 h 0.10547 c 0.48047,1.886719 0.96094,3.808594 1.67578,5.929687 l 3.1875,9.339844 z M 530.23533,5.84375e-4 h 4.08984 L 532.29783,-32.460353 h -5.34375 l -5.77734,15.703125 c -1.44141,4.089844 -2.60157,7.6523436 -3.42188,10.9335936 h -0.14062 c -0.82032,-3.375 -1.9336,-6.9374996 -3.28125,-10.9335936 l -5.53125,-15.703125 h -5.34375 L 501.18455,5.84375e-4 h 4.00781 L 506.04783,-13.921291 c 0.29297,-4.863281 0.53906,-10.300781 0.63281,-14.355468 h 0.0937 c 0.91406,3.855468 2.21485,8.050781 3.76172,12.621093 l 5.25,15.46875038 h 3.17578 l 5.73047,-15.75000038 c 1.64063,-4.488281 2.98828,-8.53125 4.08984,-12.339843 h 0.15235 c -0.0469,4.054687 0.23437,9.492187 0.48047,14.015625 z m 22.00781,0 V -13.827541 l 10.875,-18.632812 h -4.75781 l -4.67578,8.953125 c -1.25391,2.460937 -2.36719,4.582031 -3.28125,6.703125 h -0.0937 c -1.00781,-2.273438 -1.96875,-4.242188 -3.22266,-6.703125 l -4.58203,-8.953125 h -4.76953 L 548.001,-13.768947 V 5.84375e-4 Z M 593.80369,-10.206447 597.27244,5.84375e-4 H 601.749 L 590.66306,-32.460353 h -5.05078 L 574.58494,5.84375e-4 h 4.33594 L 582.28416,-10.206447 Z m -10.65234,-3.28125 3.1875,-9.386719 c 0.62109,-1.980468 1.14843,-3.949218 1.6289,-5.882812 h 0.10547 c 0.48047,1.886719 0.96094,3.808594 1.67578,5.929687 l 3.1875,9.339844 z m 23.35546,13.39453138 c 2.1211,0.234375 4.62891,0.38671875 7.61719,0.38671875 6.30469,0 11.32031,-1.64062503 14.35547,-4.67578123 3.02344,-2.9882813 4.66406,-7.3242189 4.66406,-12.6210939 0,-5.25 -1.6875,-9 -4.57031,-11.648437 -2.84766,-2.660157 -7.13672,-4.054688 -13.14844,-4.054688 -3.32812,0 -6.36328,0.292969 -8.91797,0.679688 z m 4.19532,-28.85156238 c 1.10156,-0.246094 2.74218,-0.433594 4.91015,-0.433594 8.85938,0 13.19532,4.863281 13.14844,12.515625 0,8.7773439 -4.86328,13.7812501 -13.81641,13.7812501 -1.64062,0 -3.1875,-0.046875 -4.24218,-0.2460937 z m 43.97461,18.738281 3.46875,10.207031375 h 4.47656 L 651.53611,-32.460353 h -5.05078 L 635.45799,5.84375e-4 h 4.33593 L 643.1572,-10.206447 Z m -10.65235,-3.28125 3.1875,-9.386719 c 0.6211,-1.980468 1.14844,-3.949218 1.62891,-5.882812 h 0.10547 c 0.48047,1.886719 0.96093,3.808594 1.67578,5.929687 l 3.1875,9.339844 z M 695.3701,5.84375e-4 h 4.08984 L 697.4326,-32.460353 h -5.34375 l -5.77735,15.703125 c -1.4414,4.089844 -2.60156,7.6523436 -3.42187,10.9335936 H 682.749 c -0.82031,-3.375 -1.93359,-6.9374996 -3.28125,-10.9335936 l -5.53125,-15.703125 h -5.34375 L 666.31931,5.84375e-4 h 4.00782 L 671.1826,-13.921291 c 0.29296,-4.863281 0.53906,-10.300781 0.63281,-14.355468 h 0.0937 c 0.91406,3.855468 2.21484,8.050781 3.76172,12.621093 l 5.25,15.46875038 h 3.17578 l 5.73047,-15.75000038 c 1.64062,-4.488281 2.98828,-8.53125 4.08984,-12.339843 h 0.15234 c -0.0469,4.054687 0.23438,9.492187 0.48047,14.015625 z m 8.90625,-1.593749975 c 1.73437,1.16015623 5.14453,2.07421873 8.28515,2.07421873 7.65235,0 11.36719,-4.33593753 11.36719,-9.33984373 0,-4.7695314 -2.80078,-7.4179684 -8.28516,-9.5390624 -4.48828,-1.734375 -6.45703,-3.222656 -6.45703,-6.257813 0,-2.214843 1.6875,-4.863281 6.11719,-4.863281 2.94141,0 5.09766,0.960938 6.16406,1.535156 l 1.16016,-3.421875 c -1.45313,-0.820312 -3.85547,-1.582031 -7.1836,-1.582031 -6.30468,0 -10.5,3.75 -10.5,8.8125 0,4.570313 3.28125,7.3125 8.57813,9.199219 4.38281,1.6875 6.11719,3.421875 6.11719,6.4570311 0,3.2695313 -2.50782,5.53125 -6.79688,5.53125 -2.88281,0 -5.63672,-0.9609375 -7.51172,-2.1210937 z M 808.58201,5.84375e-4 h 4.19531 V -14.061916 h 3.94922 c 3.80859,0.140625 5.54297,1.828125 6.50391,6.3046879 0.91406,4.0546875 1.64062,6.84374998 2.16797,7.757812475 h 4.33593 C 829.05467,-1.2533219 828.28123,-4.3822281 827.22654,-8.9056656 c -0.77344,-3.3750004 -2.26172,-5.6835934 -4.76953,-6.5507814 v -0.152344 c 3.42187,-1.148437 6.11719,-3.996093 6.11719,-8.285156 0,-2.496094 -0.91407,-4.710937 -2.55469,-6.164062 -2.01563,-1.828125 -4.91016,-2.648438 -9.38672,-2.648438 -2.89453,0 -5.92969,0.246094 -8.05078,0.679688 z M 812.77732,-29.085353 c 0.66797,-0.199219 2.1211,-0.386719 4.13672,-0.386719 4.44141,0.04687 7.46484,1.875 7.46484,6.070313 0,3.703125 -2.83593,6.164062 -7.3125,6.164062 h -4.28906 z m 35.00684,-3.902344 c -8.66016,0 -15.07031,6.738281 -15.07031,17.050781 0,9.8203129 6.02343,16.46484413 14.58984,16.46484413 8.28516,0 15.08203,-5.91796873 15.08203,-17.09765613 0,-9.632813 -5.73047,-16.417969 -14.60156,-16.417969 z m -0.1875,3.410156 c 6.98437,0 10.35937,6.75 10.35937,13.207032 0,7.3593746 -3.76172,13.4765621 -10.40625,13.4765621 -6.59765,0 -10.35937,-6.2109375 -10.35937,-13.1484371 0,-7.125 3.46875,-13.535157 10.40625,-13.535157 z m 33.36914,-3.410156 c -8.66016,0 -15.07031,6.738281 -15.07031,17.050781 0,9.8203129 6.02343,16.46484413 14.58984,16.46484413 8.28516,0 15.08203,-5.91796873 15.08203,-17.09765613 0,-9.632813 -5.73047,-16.417969 -14.60156,-16.417969 z m -0.1875,3.410156 c 6.98437,0 10.35937,6.75 10.35937,13.207032 0,7.3593746 -3.76172,13.4765621 -10.40625,13.4765621 -6.59765,0 -10.35937,-6.2109375 -10.35937,-13.1484371 0,-7.125 3.46875,-13.535157 10.40625,-13.535157 z M 904.94529,5.84375e-4 V -13.874416 c 0,-5.390625 -0.0937,-9.292968 -0.32812,-13.382812 l 0.14062,-0.04687 c 1.64063,3.515625 3.80859,7.21875 6.07031,10.828125 L 921.12888,5.84375e-4 h 4.24219 V -32.460353 h -3.94922 v 13.582031 c 0,5.050781 0.0937,9.0000001 0.48047,13.3359376 l -0.0937,0.046875 C 920.2617,-8.8119156 918.3867,-12.233791 915.98435,-16.042384 L 905.5781,-32.460353 h -4.58203 V 5.84375e-4 Z M 949.50291,-18.690822 h -12.6211 v -10.253906 h 13.33594 v -3.515625 H 932.6865 V 5.84375e-4 h 18.25781 V -3.5150406 h -14.0625 V -15.222072 h 12.6211 z M 967.99802,5.84375e-4 V -13.827541 l 10.875,-18.632812 h -4.75781 l -4.67578,8.953125 c -1.25391,2.460937 -2.36719,4.582031 -3.28125,6.703125 h -0.0937 c -1.00781,-2.273438 -1.96875,-4.242188 -3.22266,-6.703125 l -4.58203,-8.953125 h -4.76953 l 10.26563,18.691406 V 5.84375e-4 Z m 52.97458,0 h 4.0899 L 1023.0351,-32.460353 h -5.3437 l -5.7774,15.703125 c -1.4414,4.089844 -2.6015,7.6523436 -3.4218,10.9335936 h -0.1407 c -0.8203,-3.375 -1.9336,-6.9374996 -3.2812,-10.9335936 l -5.53126,-15.703125 h -5.34375 L 991.92185,5.84375e-4 h 4.00782 L 996.78513,-13.921291 c 0.29297,-4.863281 0.53907,-10.300781 0.63282,-14.355468 h 0.0937 c 0.91406,3.855468 2.21484,8.050781 3.76175,12.621093 l 5.25,15.46875038 h 3.1758 l 5.7305,-15.75000038 c 1.6405,-4.488281 2.9882,-8.53125 4.0897,-12.339843 h 0.1524 c -0.047,4.054687 0.2343,9.492187 0.4804,14.015625 z m 26.8213,-10.207031375 3.4688,10.207031375 h 4.4765 L 1044.6533,-32.460353 h -5.0508 L 1028.5752,5.84375e-4 h 4.3359 l 3.3633,-10.207031375 z m -10.6523,-3.28125 3.1875,-9.386719 c 0.6211,-1.980468 1.1484,-3.949218 1.6289,-5.882812 h 0.1055 c 0.4804,1.886719 0.9609,3.808594 1.6757,5.929687 l 3.1875,9.339844 z M 1060.5,5.84375e-4 h 4.1953 V -14.061916 h 3.9492 c 3.8086,0.140625 5.543,1.828125 6.5039,6.3046879 0.9141,4.0546875 1.6406,6.84374998 2.168,7.757812475 h 4.3359 c -0.6797,-1.253906275 -1.4531,-4.382812475 -2.5078,-8.906249975 -0.7734,-3.3750004 -2.2617,-5.6835934 -4.7695,-6.5507814 v -0.152344 c 3.4219,-1.148437 6.1172,-3.996093 6.1172,-8.285156 0,-2.496094 -0.9141,-4.710937 -2.5547,-6.164062 -2.0156,-1.828125 -4.9102,-2.648438 -9.3867,-2.648438 -2.8946,0 -5.9297,0.246094 -8.0508,0.679688 z m 4.1953,-29.085937375 c 0.668,-0.199219 2.1211,-0.386719 4.1367,-0.386719 4.4414,0.04687 7.4649,1.875 7.4649,6.070313 0,3.703125 -2.836,6.164062 -7.3125,6.164062 h -4.2891 z m 38.7246,18.878906 3.4688,10.207031375 h 4.4765 L 1100.2793,-32.460353 h -5.0508 L 1084.2012,5.84375e-4 h 4.3359 l 3.3633,-10.207031375 z m -10.6523,-3.28125 3.1875,-9.386719 c 0.6211,-1.980468 1.1484,-3.949218 1.6289,-5.882812 h 0.1054 c 0.4805,1.886719 0.961,3.808594 1.6758,5.929687 l 3.1875,9.339844 z m 124.0078,-19.5 c -8.6602,0 -15.0703,6.738281 -15.0703,17.050781 0,9.8203129 6.0234,16.46484413 14.5898,16.46484413 8.2852,0 15.082,-5.91796873 15.082,-17.09765613 0,-9.632813 -5.7304,-16.417969 -14.6015,-16.417969 z m -0.1875,3.410156 c 6.9843,0 10.3593,6.75 10.3593,13.207032 0,7.3593746 -3.7617,13.4765621 -10.4062,13.4765621 -6.5977,0 -10.3594,-6.2109375 -10.3594,-13.1484371 0,-7.125 3.4688,-13.535157 10.4063,-13.535157 z m 20.2207,29.578125375 h 18.0703 V -3.5150406 h -13.875 V -32.460353 h -4.1953 z M 1259.54,-32.460353 V 5.84375e-4 h 4.1953 V -32.460353 Z M 1282.8017,5.84375e-4 1294.415,-32.460353 h -4.4883 l -5.4843,16.03125 c -1.4414,4.242187 -2.7891,8.3437499 -3.7149,12.0937499 h -0.094 c -0.8672,-3.8085938 -2.0625,-7.7578129 -3.4688,-12.1406249 l -5.0508,-15.984375 h -4.5351 L 1278.1845,5.84375e-4 Z M 1297.9219,-32.460353 V 5.84375e-4 h 4.1953 V -32.460353 Z m 28.2802,22.253906 3.4688,10.207031375 h 4.4765 L 1323.0615,-32.460353 h -5.0508 L 1306.9834,5.84375e-4 h 4.3359 l 3.3633,-10.207031375 z m -10.6523,-3.28125 3.1875,-9.386719 c 0.6211,-1.980468 1.1484,-3.949218 1.6289,-5.882812 h 0.1055 c 0.4804,1.886719 0.9609,3.808594 1.6757,5.929687 l 3.1875,9.339844 z m 41.5107,13.488281375 4.6289,-16.910156375 c 1.2071,-4.183594 1.9219,-7.359375 2.5078,-10.59375 h 0.094 c 0.4336,3.28125 1.1133,6.457031 2.1211,10.59375 l 4.0898,16.910156375 h 4.3828 L 1384.084,-32.460353 h -4.2891 l -4.2773,16.371094 c -1.0196,4.042968 -1.9336,7.6640621 -2.6016,11.2265621 h -0.1055 c -0.4804,-3.421875 -1.3476,-7.2773441 -2.2617,-11.1328121 l -3.9492,-16.464844 h -4.3828 l -4.336,16.371094 c -1.1015,4.195312 -2.1093,8.0507809 -2.6484,11.2734371 h -0.094 c -0.5743,-3.1289062 -1.4415,-7.1718751 -2.4024,-11.2265621 l -3.8555,-16.417969 h -4.4296 l 8.2265,32.460937375 z M 1388.124,-32.460353 V 5.84375e-4 h 4.1953 V -32.460353 Z m 11.5078,32.460937375 h 18.0703 V -3.5150406 h -13.875 V -32.460353 h -4.1953 z m 22.7315,-0.093749995 c 2.1211,0.234375 4.6289,0.38671875 7.6171,0.38671875 6.3047,0 11.3204,-1.64062503 14.3555,-4.67578123 3.0235,-2.9882813 4.6641,-7.3242189 4.6641,-12.6210939 0,-5.25 -1.6875,-9 -4.5703,-11.648437 -2.8477,-2.660157 -7.1368,-4.054688 -13.1485,-4.054688 -3.3281,0 -6.3633,0.292969 -8.9179,0.679688 z m 4.1953,-28.85156238 c 1.1015,-0.246094 2.7422,-0.433594 4.9101,-0.433594 8.8594,0 13.1953,4.863281 13.1485,12.515625 0,8.7773439 -4.8633,13.7812501 -13.8164,13.7812501 -1.6407,0 -3.1875,-0.046875 -4.2422,-0.2460937 z m 44.6953,10.253906 h -12.6211 v -10.253906 h 13.3359 v -3.515625 h -17.5312 V 5.84375e-4 h 18.2578 V -3.5150406 h -14.0625 V -15.222072 h 12.6211 z m 86.2031,17.0976564 c 1.7344,1.16015623 5.1445,2.07421873 8.2852,2.07421873 7.6523,0 11.3672,-4.33593753 11.3672,-9.33984373 0,-4.7695314 -2.8008,-7.4179684 -8.2852,-9.5390624 -4.4883,-1.734375 -6.457,-3.222656 -6.457,-6.257813 0,-2.214843 1.6875,-4.863281 6.1172,-4.863281 2.9414,0 5.0976,0.960938 6.164,1.535156 l 1.1602,-3.421875 c -1.4532,-0.820312 -3.8555,-1.582031 -7.1836,-1.582031 -6.3047,0 -10.5,3.75 -10.5,8.8125 0,4.570313 3.2812,7.3125 8.5781,9.199219 4.3828,1.6875 6.1172,3.421875 6.1172,6.4570311 0,3.2695313 -2.5078,5.53125 -6.7969,5.53125 -2.8828,0 -5.6367,-0.9609375 -7.5117,-2.1210937 z m 47.1914,-2.7890625 c -1.6875,0.8203125 -4.289,1.3476562 -6.832,1.3476562 -7.8985,0 -12.4805,-5.109375 -12.4805,-13.0546871 0,-8.519532 5.0625,-13.382813 12.668,-13.382813 2.6953,0 4.957,0.574219 6.5508,1.347656 l 1.0078,-3.421875 c -1.1016,-0.574218 -3.6563,-1.441406 -7.6992,-1.441406 -10.0664,0 -16.9571,6.878906 -16.9571,17.050781 0,10.6406254 6.8907,16.41796913 16.043,16.41796913 3.9492,0 7.0312,-0.7734375 8.5664,-1.53515623 z m 23.0742,-5.8242189 3.4688,10.207031375 h 4.4765 L 1624.582,-32.460353 h -5.0508 L 1608.5039,5.84375e-4 h 4.3359 l 3.3633,-10.207031375 z m -10.6523,-3.28125 3.1875,-9.386719 c 0.6211,-1.980468 1.1484,-3.949218 1.6289,-5.882812 h 0.1055 c 0.4804,1.886719 0.9609,3.808594 1.6757,5.929687 l 3.1875,9.339844 z m 23.3555,13.488281375 h 4.1953 V -14.061916 h 3.9492 c 3.8086,0.140625 5.543,1.828125 6.5039,6.3046879 0.9141,4.0546875 1.6406,6.84374998 2.168,7.757812475 h 4.3359 c -0.6797,-1.253906275 -1.4531,-4.382812475 -2.5078,-8.906249975 -0.7734,-3.3750004 -2.2617,-5.6835934 -4.7695,-6.5507814 v -0.152344 c 3.4218,-1.148437 6.1171,-3.996093 6.1171,-8.285156 0,-2.496094 -0.914,-4.710937 -2.5546,-6.164062 -2.0157,-1.828125 -4.9102,-2.648438 -9.3868,-2.648438 -2.8945,0 -5.9296,0.246094 -8.0507,0.679688 z m 4.1953,-29.085937375 c 0.6679,-0.199219 2.1211,-0.386719 4.1367,-0.386719 4.4414,0.04687 7.4648,1.875 7.4648,6.070313 0,3.703125 -2.8359,6.164062 -7.3125,6.164062 h -4.289 z m 21.7148,29.085937375 h 18.0703 V -3.5150406 h -13.875 V -32.460353 h -4.1953 z M 1705.8838,-18.690822 h -12.6211 v -10.253906 h 13.3359 v -3.515625 h -17.5312 V 5.84375e-4 h 18.2578 V -3.5150406 h -14.0625 V -15.222072 h 12.6211 z m 13.8076,18.691406375 h 4.2422 V -28.897853 h 9.9258 v -3.5625 h -24.0352 v 3.5625 h 9.8672 z m 25.7637,0 h 4.2421 V -28.897853 h 9.9258 v -3.5625 h -24.0351 v 3.5625 h 9.8672 z M 1780.0928,-11.073634 c 0,6.3515621 -2.2266,8.0390621 -5.9766,8.0390621 -1.3945,0 -2.6484,-0.2929687 -3.5156,-0.6210937 l -0.6328,3.41015623 c 1.0664,0.43359375 2.9414,0.7734375 4.4882,0.7734375 5.5782,0 9.8203,-2.64843753 9.8203,-11.27343713 v -21.714844 h -4.1835 z m 24.3105,-21.914063 c -8.6602,0 -15.0703,6.738281 -15.0703,17.050781 0,9.8203129 6.0234,16.46484413 14.5898,16.46484413 8.2852,0 15.0821,-5.91796873 15.0821,-17.09765613 0,-9.632813 -5.7305,-16.417969 -14.6016,-16.417969 z m -0.1875,3.410156 c 6.9844,0 10.3594,6.75 10.3594,13.207032 0,7.3593746 -3.7617,13.4765621 -10.4063,13.4765621 -6.5976,0 -10.3594,-6.2109375 -10.3594,-13.1484371 0,-7.125 3.4688,-13.535157 10.4063,-13.535157 z m 20.2207,-2.882812 V 5.84375e-4 h 4.1953 V -15.222072 h 15.7031 V 5.84375e-4 h 4.2305 V -32.460353 h -4.2305 v 13.582031 h -15.7031 v -13.582031 z m 48.167,22.253906 3.4687,10.207031375 h 4.4766 L 1869.4629,-32.460353 h -5.0508 L 1853.3847,5.84375e-4 h 4.336 L 1861.084,-10.206447 Z m -10.6523,-3.28125 3.1875,-9.386719 c 0.621,-1.980468 1.1484,-3.949218 1.6289,-5.882812 h 0.1054 c 0.4805,1.886719 0.961,3.808594 1.6758,5.929687 l 3.1875,9.339844 z M 1889.2588,5.84375e-4 V -13.874416 c 0,-5.390625 -0.094,-9.292968 -0.3282,-13.382812 l 0.1407,-0.04687 c 1.6406,3.515625 3.8086,7.21875 6.0703,10.828125 l 10.3008,16.476562375 h 4.2421 V -32.460353 h -3.9492 v 13.582031 c 0,5.050781 0.094,9.0000001 0.4805,13.3359376 l -0.094,0.046875 c -1.5468,-3.3164062 -3.4218,-6.7382816 -5.8242,-10.5468746 l -10.4062,-16.417969 h -4.5821 V 5.84375e-4 Z M 1933.8135,-18.690822 h -12.6211 v -10.253906 h 13.3359 v -3.515625 H 1916.997 V 5.84375e-4 h 18.2579 V -3.5150406 h -14.0625 V -15.222072 h 12.6211 z m 5.247,17.0976564 c 1.7344,1.16015623 5.1446,2.07421873 8.2852,2.07421873 7.6523,0 11.3672,-4.33593753 11.3672,-9.33984373 0,-4.7695314 -2.8008,-7.4179684 -8.2852,-9.5390624 -4.4883,-1.734375 -6.457,-3.222656 -6.457,-6.257813 0,-2.214843 1.6875,-4.863281 6.1172,-4.863281 2.9414,0 5.0976,0.960938 6.164,1.535156 l 1.1602,-3.421875 c -1.4531,-0.820312 -3.8555,-1.582031 -7.1836,-1.582031 -6.3047,0 -10.5,3.75 -10.5,8.8125 0,4.570313 3.2812,7.3125 8.5781,9.199219 4.3828,1.6875 6.1172,3.421875 6.1172,6.4570311 0,3.2695313 -2.5078,5.53125 -6.7969,5.53125 -2.8828,0 -5.6367,-0.9609375 -7.5117,-2.1210937 z m 23.7422,0 c 1.7344,1.16015623 5.1445,2.07421873 8.2852,2.07421873 7.6523,0 11.3672,-4.33593753 11.3672,-9.33984373 0,-4.7695314 -2.8008,-7.4179684 -8.2852,-9.5390624 -4.4883,-1.734375 -6.457,-3.222656 -6.457,-6.257813 0,-2.214843 1.6875,-4.863281 6.1172,-4.863281 2.9414,0 5.0976,0.960938 6.164,1.535156 l 1.1602,-3.421875 c -1.4531,-0.820312 -3.8555,-1.582031 -7.1836,-1.582031 -6.3047,0 -10.5,3.75 -10.5,8.8125 0,4.570313 3.2812,7.3125 8.5781,9.199219 4.3828,1.6875 6.1172,3.421875 6.1172,6.4570311 0,3.2695313 -2.5078,5.53125 -6.7969,5.53125 -2.8828,0 -5.6367,-0.9609375 -7.5117,-2.1210937 z m 38.5195,-31.3945314 c -8.6601,0 -15.0703,6.738281 -15.0703,17.050781 0,9.8203129 6.0235,16.46484413 14.5899,16.46484413 8.2851,0 15.082,-5.91796873 15.082,-17.09765613 0,-9.632813 -5.7305,-16.417969 -14.6016,-16.417969 z m -0.1875,3.410156 c 6.9844,0 10.3594,6.75 10.3594,13.207032 0,7.3593746 -3.7617,13.4765621 -10.4062,13.4765621 -6.5977,0 -10.3594,-6.2109375 -10.3594,-13.1484371 0,-7.125 3.4687,-13.535157 10.4062,-13.535157 z m 24.17,29.578125375 V -13.874416 c 0,-5.390625 -0.094,-9.292968 -0.3282,-13.382812 l 0.1407,-0.04687 c 1.6406,3.515625 3.8086,7.21875 6.0703,10.828125 l 10.3008,16.476562375 h 4.2421 V -32.460353 h -3.9492 v 13.582031 c 0,5.050781 0.094,9.0000001 0.4805,13.3359376 l -0.094,0.046875 c -1.5468,-3.3164062 -3.4218,-6.7382816 -5.8242,-10.5468746 l -10.4062,-16.417969 h -4.5821 V 5.84375e-4 Z m 0,0" style="fill:#ffffff;fill-opacity:1;fill-rule:nonzero;stroke:none" aria-label="JOAOUIN PHOENIXAMY ADAMSROONEY MARAOLIVIA WILDESCARLETT JOHANESSON" transform="matrix(1.3333333,0,0,1.3333333,321.77347,329.69453)" />
    </g></svg>