<?xml version='1.0' encoding='utf-8'?>
<svg xmlns="http://www.w3.org/2000/svg" version="1.1" width="259.623" height="661.728" viewBox="1515.900 1123.080 259.623 661.728"><defs id="defs1"><clipPath clipPathUnits="userSpaceOnUse" id="clipPath29">
      <path d="M 0,3370.3901 H 2383.9401 V -2.5000001e-5 H 0 Z" id="path29" />
    </clipPath>
  </defs><g id="object"><path id="path7" d="M 0,0 C -3.428,-1.868 -6.615,-9.853 -10.753,-2.48 -17.67,9.845 -30.9,12.214 -41.254,19.011 c -4.204,2.76 -8.468,9.502 -14.126,5.521 -5.447,-3.834 -5.424,-11.2 -4.603,-17.548 0.497,-3.836 1.654,-7.978 3.76,-11.158 30.232,-45.636 30.848,-96.904 28.91,-148.772 -0.354,-9.469 0.729,-18.991 1.112,-28.49 0.896,-22.223 10.256,-37.791 33.258,-43.028 4.421,-1.006 9.418,-1.9 11.808,-9.052 -19.056,-7.201 -38.532,-3.176 -57.593,-3.209 -8.98,-0.016 -9.944,6.735 -8.374,13.471 5.508,23.626 -1.453,45.325 -9.377,67.041 -6.991,19.161 -5.219,39.076 -4.022,58.85 0.818,13.513 -1.181,25.211 -18.216,30.85 3.081,-37.723 -26.918,-60.994 -37.322,-92.638 -1.203,-3.661 -4.169,-6.704 -5.985,-10.206 -17.916,-34.558 -14.723,-43.609 22.196,-63.322 -14.274,-9.114 -51.265,-6.747 -62.99,3.655 -5.294,4.696 -4.862,9.361 -1.671,14.665 12.538,20.834 14.835,44.844 21.166,67.621 2.956,10.632 5.115,22.279 11.098,31.124 17.163,25.371 15.258,50.109 12.42,80.298 -5.734,60.989 -26.421,122.393 -6.803,184.53 1.894,6 1.009,14.393 4.858,17.993 15.436,14.438 14.898,32.232 13.288,50.547 -2.02,22.986 13.727,27.698 31.081,30.321 23.338,3.526 32.74,-2.974 38.6,-30.331 3.092,-14.44 3.575,-30.009 -17.314,-34.789 -11.254,-2.575 -14.908,-11.227 -8.977,-22.078 14.088,-25.777 17.955,-53.503 17.9,-82.523 C -47.217,55.035 -32.66,39.016 -15.264,25.612 -7.193,19.394 2.785,15.097 3.943,3.098 2.629,2.065 1.314,1.033 0,0" style="fill:#251d16;fill-opacity:1;fill-rule:nonzero;stroke:none" transform="matrix(1.3333333,0,0,-1.3333333,1744.3736,1461.022)" />
      <path id="path17" d="m 0,0 c -0.034,-1.993 -0.067,-3.987 -0.1,-5.98 -1.281,0.961 -2.562,1.922 -3.843,2.882 C -2.629,-2.065 -1.314,-1.033 0,0" style="fill:#251d16;fill-opacity:1;fill-rule:nonzero;stroke:none" transform="matrix(1.3333333,0,0,-1.3333333,1749.6308,1456.8915)" />
      </g></svg>