<?xml version='1.0' encoding='utf-8'?>
<svg xmlns="http://www.w3.org/2000/svg" version="1.1" width="85.848" height="111.666" viewBox="1314.700 2949.440 85.848 111.666"><g id="object"><path id="path54" d="m 0,0 c -1.016,-3.505 -1.124,-6.12 -1.94,-6.364 -27.969,-8.359 -11.66,-31.695 -16.581,-47.816 -1.523,-4.988 -6.005,-9.072 -9.132,-13.571 -3.373,4.288 -8.898,8.225 -9.666,12.937 -1.543,9.468 0.059,19.405 -0.738,29.057 -0.413,5.004 -2.278,10.438 -5.126,14.541 -3.07,4.424 -8.054,7.52 -12.203,11.196 6.13,2.212 12.12,5.597 18.424,6.353 8.769,1.051 17.848,0.771 26.644,-0.242 C -6.538,5.655 -3.135,1.948 0,0" style="fill:#231916;fill-opacity:1;fill-rule:nonzero;stroke:none" transform="matrix(1.3333333,0,0,-1.3333333,1394.5484,2964.77)" />
      </g></svg>