<?xml version='1.0' encoding='utf-8'?>
<svg xmlns="http://www.w3.org/2000/svg" version="1.1" width="93.682" height="128.346" viewBox="1406.040 4286.870 93.682 128.346"><g id="object"><path id="path348" d="m 0,0 c -0.197,0 -0.394,0.001 -0.592,0.001 0,-5.498 -0.135,-11.001 0.084,-16.49 0.064,-1.62 1.575,-2.831 3.375,-2.253 8.985,2.885 13.969,9.688 17.112,18.089 0.515,1.377 0.44,3.19 0.055,4.648 -1.21,4.589 -3.005,8.997 -6.297,12.513 -1.294,1.381 -3.057,2.491 -4.813,3.239 C 3.985,21.852 0.325,19.572 0.05,14.128 -0.189,9.43 0,4.71 0,0 m 27.939,3.291 c -0.725,-8.702 -3.807,-14.876 -8.754,-20.227 -2.345,-2.537 -6.868,-4.116 -6.704,-7.67 0.227,-4.902 5.826,-5.689 9.136,-8.145 5.655,-4.198 11.65,-7.936 17.416,-11.989 1.227,-0.862 2.225,-2.153 3.074,-3.419 0.741,-1.105 0.185,-2.326 -0.711,-3.128 -0.508,-0.456 -1.601,-0.91 -2.058,-0.667 -3.092,1.648 -6.153,3.376 -9.095,5.278 -6.91,4.468 -13.681,9.155 -20.652,13.523 -2.281,1.429 -4.937,2.417 -7.553,3.105 -1.979,0.52 -4.037,-0.314 -4.515,-2.6 -0.882,-4.216 -1.434,-8.5 -2.211,-12.74 -0.28,-1.527 -0.558,-3.157 -1.323,-4.454 -0.487,-0.828 -1.882,-1.575 -2.843,-1.542 -0.98,0.033 -2.251,0.847 -2.825,1.703 -1.644,2.452 -1.049,5.305 -0.789,8.011 0.187,1.941 0.582,3.889 1.125,5.764 1.333,4.605 -0.262,7.588 -4.7,9.23 -0.71,0.263 -1.462,0.74 -1.905,1.334 -1,1.339 -1.316,2.831 0.069,4.161 0.549,0.528 1.207,1.204 1.886,1.297 7.243,0.99 8.172,6.296 8.289,12.081 0.19,9.415 0.221,18.833 0.427,28.248 0.094,4.304 0.148,8.64 1.81,12.742 0.744,1.838 3.98,2.858 4.705,1.252 2.943,-6.511 9.239,-7.777 14.821,-10.436 9.139,-4.355 11.356,-13.312 13.88,-20.712" style="fill:#1e4a94;fill-opacity:1;fill-rule:nonzero;stroke:none" transform="matrix(1.3333333,0,0,-1.3333333,1437.1168,4339.8577)" />
      </g></svg>