<?xml version='1.0' encoding='utf-8'?>
<svg xmlns="http://www.w3.org/2000/svg" version="1.1" width="1010.816" height="671.926" viewBox="528.677 803.729 1010.816 671.926"><defs id="defs1"><clipPath clipPathUnits="userSpaceOnUse" id="clipPath4">
      <path d="M 122.5624,2051.5417 H 2506.5025 V -1318.8484 H 122.5624 Z" id="path4" />
    </clipPath>
    <clipPath clipPathUnits="userSpaceOnUse" id="clipPath6">
      <path d="M -503.42171,2051.917 H 1880.5183 V -1318.4731 H -503.42171 Z" id="path6" />
    </clipPath>
  </defs><g id="object"><path id="path11" d="m 0,0 c 0,-22.708 -1.918,-45.625 0.524,-68.067 2.593,-23.84 -6.784,-38.695 -26.502,-49.331 -18.934,-10.214 -39.149,-15.15 -60.615,-14.69 -23.336,0.501 -29.891,9.069 -23.323,32.149 10.137,35.62 18.316,71.588 24.682,108.104 5.444,31.222 -0.505,63.025 7.172,94.075 6.008,24.302 9.186,49.138 9.544,74.336 0.298,20.947 -3.454,39.636 -19.16,55.256 -15.954,15.866 -11.423,30.052 6.687,40.964 22.597,13.617 41.921,30.851 58.463,51.337 7.902,9.786 17.786,16.904 30.603,11.707 11.699,-4.743 13.559,-16.44 13.697,-27.701 0.092,-7.518 -1.072,-15.051 -1.651,-22.579 -0.75,-9.751 -5.899,-21.558 5.513,-27.429 10.935,-5.626 22.114,-3.332 32.982,4.453 20.643,14.789 40.166,30.571 55.703,50.758 7.678,9.977 16.375,18.064 29.726,13.728 14.972,-4.862 15.311,-18.429 15.639,-31.236 0.129,-5.028 -0.549,-10.079 -0.911,-15.116 -2.335,-32.463 -2.349,-32.671 29.395,-34.147 7.684,-0.358 15.451,1.234 18.609,-8.46 3.135,-9.623 1.847,-19.605 -5.005,-25.928 -7.738,-7.14 -13.695,-17.371 -24.79,-20.112 -21.116,-5.216 -25.656,-20.438 -27.246,-39.628 -6.461,-78.007 -13.058,-156.006 -4.587,-234.219 2.125,-19.618 -5.89,-32.481 -21.16,-42.108 -19.622,-12.37 -41.347,-18.725 -64.521,-19.001 -22.716,-0.272 -31.204,9.856 -24.578,32.011 26.293,87.916 30.832,178.723 37.255,269.317 0.238,3.356 0.749,6.782 0.346,10.079 -1.844,15.094 1.242,34.248 -15.844,40.806 C 44.695,213.916 13.569,184.993 11.383,170.947 2.568,114.311 -0.946,57.249 0,0" style="fill:#1c2a2f;fill-opacity:1;fill-rule:nonzero;stroke:none" transform="matrix(1.3333333,0,0,-1.3333333,830.2368,1279.1349)" />
      <path id="path17" d="M 0,0 C 19.955,-0.674 45.185,22.703 45.622,42.775 45.873,54.261 41.409,61.909 28.177,62.005 10.101,62.136 -11.899,34.457 -12.107,11.436 -12.187,2.545 -8.328,-0.729 0,0 m 28.89,117.059 c 49.687,-0.318 82.369,-19.868 87.356,-72.042 3.978,-41.621 -29.67,-83.634 -77.074,-94.449 -10.606,-2.42 -21.649,-3.582 -32.538,-3.952 -19.705,-0.669 -18.231,-11.234 -10.994,-23.328 8.776,-14.667 22.861,-18.607 39.137,-15.775 10.256,1.784 18.687,6.964 26.471,13.793 11.244,9.863 22.317,23.196 39.485,13.04 17.829,-10.546 15.589,-28.409 12.816,-45.21 -6.608,-40.042 -43.925,-69.801 -101.958,-68.977 -58.627,0.832 -99.803,38.245 -106.655,96.942 -6.605,56.574 -1.138,110.61 34.967,157.853 22.472,29.405 52.237,43.055 88.987,42.105" style="fill:#1c2a2f;fill-opacity:1;fill-rule:nonzero;stroke:none" transform="matrix(1.3333333,0,0,-1.3333333,1378.0717,1165.5873)" />
      <path id="path20" d="m 0,0 c -9.041,-88.506 -16.647,-175.516 -16.407,-262.975 0.074,-27.003 0.47,-53.675 23.934,-73.755 8.751,-7.489 6.277,-18.417 -0.691,-27.416 -15.907,-20.542 -74.84,-32.342 -98.588,-20.547 -12.054,5.987 -16.162,13.334 -14.72,27.464 8.612,84.37 18.903,168.69 20.252,253.57 0.497,31.286 10.329,65.24 -19.512,91.642 -8.828,7.81 -2.873,20.657 6.473,28.621 21.809,18.584 47.802,28.052 75.612,31.555 C -9.42,49.952 0.539,42.69 0.049,26.158 -0.224,16.941 0,7.71 0,0" style="fill:#1c2a2f;fill-opacity:1;fill-rule:nonzero;stroke:none" transform="matrix(1.3333333,0,0,-1.3333333,1226.4743,874.29533)" />
      <path id="path21" d="m 0,0 c 1.093,15.917 2.94,37.902 -13.892,57.582 -8.896,10.4 -2.476,22.663 7.98,30.508 22.276,16.712 47.936,23.678 75.437,23.376 C 88.58,111.257 93.453,98.771 91.401,82.327 86.623,44.052 80.059,5.935 76.958,-32.467 c -2.796,-34.633 -8.78,-69.785 11.438,-102.93 8.448,-13.85 -3.137,-25.797 -15.634,-32.47 -24.936,-13.315 -51.738,-13.47 -78.368,-6.575 -21.779,5.64 -19.15,22.803 -14.792,38.77 C -8.86,-93.4 -2.27,-50.433 0,0" style="fill:#1c2a2f;fill-opacity:1;fill-rule:nonzero;stroke:none" transform="matrix(1.3333333,0,0,-1.3333333,565.84613,1117.8723)" />
      <path id="path23" d="m 0,0 c -25.013,-0.105 -45.152,2.387 -48.931,25.083 -3.515,21.115 12.393,33.089 30.068,41.559 13.376,6.41 27.553,7.108 41.893,5.877 15.103,-1.296 28.543,-6.3 32.268,-22.936 C 59.042,32.863 51.534,20.487 37.634,11.182 24.45,2.357 9.911,-0.343 0,0" style="fill:#1c2a2f;fill-opacity:1;fill-rule:nonzero;stroke:none" transform="matrix(1.3333333,0,0,-1.3333333,632.85173,911.44453)" />
      </g></svg>