<?xml version='1.0' encoding='utf-8'?>
<svg xmlns="http://www.w3.org/2000/svg" version="1.1" width="184.515" height="300.242" viewBox="1977.360 1264.040 184.515 300.242"><g id="object"><path id="path134" d="M 0,0 C 5.41,-1.458 6.539,-1.135 6.745,2.392 6.923,5.458 6.762,8.563 6.477,11.625 6.376,12.699 5.371,13.827 4.053,13.578 3.009,13.381 1.781,12.871 1.132,12.087 -1.594,8.795 -0.537,4.704 -0.917,0.91 -1.122,0.392 -1.327,-0.126 -1.531,-0.645 -1.021,-0.43 -0.51,-0.215 0,0 m 1.643,-13.521 c -0.729,-0.862 -1.458,-1.724 -2.186,-2.584 -1.206,-0.238 -2.041,-0.871 -2.271,-2.145 0,0 -0.151,-0.091 -0.151,-0.091 -1.414,0.06 -2.447,-0.374 -2.57,-1.985 0,0 -0.077,-0.156 -0.075,-0.157 -1.447,-0.407 -1.746,-1.454 -1.547,-2.78 -0.461,-0.445 -0.705,-0.988 -0.73,-1.63 -1.352,-0.575 -2.2,-1.456 -1.871,-3.059 -0.256,-0.737 -0.639,-1.457 -0.749,-2.215 -0.768,-5.313 -6.296,-7.918 -7.35,-13.102 -0.927,-4.561 -2.114,-9.069 -3.172,-13.603 -2.722,-11.666 -4.943,-23.064 -3.064,-35.471 1.824,-12.04 6.726,-22.141 12.828,-32.112 1.665,-2.721 4.055,-4.669 6.449,-6.701 5.658,-4.803 10.769,-10.128 14.371,-16.704 -1.196,-1.589 -3.108,-3.36 -4.473,-1.287 -2.678,4.07 -6.277,5.212 -10.693,5.153 0,0 0.086,-0.07 0.087,-0.068 -0.147,4.669 -2.626,6.906 -7.225,6.932 0,0 -0.058,0.136 -0.056,0.137 -0.215,1.214 -0.911,1.999 -2.093,2.351 0,0 -0.198,0.293 -0.195,0.292 -0.595,8.521 -1.17,9.235 -9.093,11.302 -6.393,9.069 -10.588,19.073 -13.155,29.861 -2.496,10.492 -3.273,20.836 0.697,31.162 1.137,2.955 1.244,6.07 1.128,9.281 -0.293,8.107 1.452,15.535 8.044,21.143 2.451,2.085 3.877,5.088 4.522,8.129 1.277,6.018 5.075,10.571 9.082,14.533 4.264,4.216 5.913,9.293 6.064,14.493 0.107,3.675 0.918,5.777 3.705,7.787 6.004,4.329 11.868,8.854 17.766,13.329 2.804,2.128 5.954,3.974 8.239,6.57 3.951,4.489 9.029,6.442 14.505,6.304 3.634,-0.092 5.783,0.966 8.12,3.375 3.373,3.477 7.312,5.992 12.524,3.74 7.467,1.711 14.752,-1.585 22.219,-0.821 1.809,0.185 3.751,-0.847 5.62,-1.359 2.785,-0.761 5.071,-1.852 5.075,-5.411 0.006,-4.235 -0.645,-5.743 -4.728,-6.92 C 76.945,29.756 68.623,27.406 60.206,25.503 56.347,24.63 52.51,24.185 49.462,21.342 46.098,18.203 41.041,19.537 37.469,16.896 c -1.406,0.073 -2.352,-0.484 -2.643,-1.934 0,0 -0.094,-0.006 -0.093,-0.007 -2.178,-0.14 -4.356,-0.28 -6.537,-0.419 1.923,1.925 4.051,3.692 5.71,5.824 1.311,1.686 1.016,3.754 -0.545,5.351 -3.037,3.11 -6.017,3.471 -9.109,0.634 C 21.887,24.174 19.558,22.321 16.371,21.452 12.827,20.486 11.147,18.129 12.4,14.3 12.972,12.553 10.874,10.076 13.201,9 c 2.672,-1.236 2.994,1.593 3.837,3.143 0.87,1.6 2.305,2.113 3.882,2.2 2.349,0.131 4.711,0.036 7.068,0.037 -1.557,-1.451 -3.113,-2.901 -4.669,-4.352 0,0 -0.235,-0.194 -0.234,-0.194 -1.377,-0.083 -1.904,-0.953 -2.033,-2.193 0,0 -0.24,-0.275 -0.239,-0.274 -1.811,-0.388 -3.153,-1.25 -3.317,-3.297 0,0 -0.465,-0.376 -0.458,-0.377 C 14.202,3.234 12.039,1.962 11.322,-1.06 11.264,-1.307 5.762,-9.3 5.57,-9.497 4.259,-10.837 2.951,-12.179 1.643,-13.521" style="fill:#5c567e;fill-opacity:1;fill-rule:nonzero;stroke:none" transform="matrix(1.3333333,0,0,-1.3333333,2035.9195,1333.3989)" />
      <path id="path206" d="m 0,0 c 4.416,0.059 8.015,-1.083 10.693,-5.154 1.365,-2.073 3.277,-0.301 4.473,1.288 1.281,-0.847 2.686,-1.534 3.808,-2.538 3.778,-3.379 7.14,-7.327 11.266,-10.186 3.763,-2.607 8.312,-4.079 12.66,-6.121 -5.845,-1.939 -12.349,-2.832 -15.392,-0.805 -4.786,3.187 -10.63,4.477 -14.554,9.4 -2.828,3.548 -6.332,6.891 -10.617,9.075 C 0.397,-4.052 0.086,-2.006 0,0" style="fill:#3675ba;fill-opacity:1;fill-rule:nonzero;stroke:none" transform="matrix(1.3333333,0,0,-1.3333333,2028.438,1525.3908)" />
      <path id="path248" d="M 0,0 C 7.924,-2.067 8.498,-2.781 9.093,-11.302 5.294,-8.15 1.394,-5.083 0,0" style="fill:#3675ba;fill-opacity:1;fill-rule:nonzero;stroke:none" transform="matrix(1.3333333,0,0,-1.3333333,2003.6709,1497.4633)" />
      <path id="path258" d="M 0,0 C 4.599,-0.027 7.078,-2.263 7.224,-6.933 3.349,-6.151 0.578,-4.218 0,0" style="fill:#3675ba;fill-opacity:1;fill-rule:nonzero;stroke:none" transform="matrix(1.3333333,0,0,-1.3333333,2018.9211,1516.2384)" />
      <path id="path557" d="m 0,0 c -2.356,-0.001 -4.718,0.094 -7.068,-0.037 -1.577,-0.087 -3.012,-0.6 -3.882,-2.2 -0.843,-1.55 -1.164,-4.379 -3.836,-3.143 -2.327,1.077 -0.23,3.553 -0.802,5.3 -1.252,3.829 0.427,6.186 3.971,7.152 3.188,0.869 5.517,2.722 7.882,4.893 3.091,2.837 6.071,2.476 9.109,-0.633 C 6.935,9.734 7.23,7.666 5.918,5.98 4.26,3.848 2.132,2.082 0.208,0.156 0.211,0.155 0,0 0,0" style="fill:#4b475f;fill-opacity:1;fill-rule:nonzero;stroke:none" transform="matrix(1.3333333,0,0,-1.3333333,2073.2361,1314.2257)" />
      <path id="path558" d="m 0,0 c 0.386,3.788 -0.671,7.879 2.055,11.172 0.649,0.783 1.877,1.294 2.921,1.491 C 6.294,12.911 7.299,11.784 7.4,10.709 7.685,7.647 7.846,4.542 7.667,1.476 7.462,-2.051 6.333,-2.374 0.923,-0.916 0.629,-0.597 0.321,-0.292 0,0" style="fill:#4b475f;fill-opacity:1;fill-rule:nonzero;stroke:none" transform="matrix(1.3333333,0,0,-1.3333333,2034.6888,1332.1783)" />
      </g></svg>