<?xml version='1.0' encoding='utf-8'?>
<svg xmlns="http://www.w3.org/2000/svg" version="1.1" width="242.229" height="420.755" viewBox="1784.670 3438.180 242.229 420.755"><defs id="defs1"><clipPath clipPathUnits="userSpaceOnUse" id="clipPath59">
      <path d="M 0,3370.3901 H 2383.9401 V -2.5000001e-5 H 0 Z" id="path59" />
    </clipPath>
  </defs><g id="object"><path id="path5" d="m 0,0 c -21.768,0.396 -47.7,17.29 -63.795,49.036 -3.428,6.761 -11.049,15.812 1.064,22.083 11.222,5.81 17.183,2.076 23.246,-9.926 C -24.509,31.55 4.767,20.45 34.694,30.248 c 27.27,8.927 44.294,37.463 40.169,68.073 -3.309,24.554 -17.781,40.243 -40.835,47.762 -14.306,4.666 -29.412,6.951 -43.589,11.928 -30.895,10.847 -50.135,38.568 -50.56,70.897 -0.42,31.934 17.134,59.206 46.053,71.552 28.041,11.971 63.637,6.014 84.019,-15.005 5.219,-5.383 16.636,-11.009 6.832,-21.046 -8.302,-8.498 -16.259,-9.008 -25.851,1.284 -15.078,16.179 -34.658,18.793 -54.531,9.132 -19.52,-9.489 -30.416,-25.753 -28.934,-47.835 1.478,-22.023 14.479,-36.589 34.82,-43.895 11.904,-4.275 24.584,-6.336 36.751,-9.943 43.787,-12.977 70.052,-54.223 63.235,-98.91 C 95.684,31.052 58.74,-0.126 0,0" style="fill:#ffffff;fill-opacity:1;fill-rule:nonzero;stroke:none" transform="matrix(1.3333333,0,0,-1.3333333,1883.1081,3852.9392)" />
      </g></svg>