<?xml version='1.0' encoding='utf-8'?>
<svg xmlns="http://www.w3.org/2000/svg" version="1.1" width="114.753" height="196.979" viewBox="451.317 1290.530 114.753 196.979"><defs id="defs1"><clipPath clipPathUnits="userSpaceOnUse" id="clipPath59">
      <path d="M 0,3370.3901 H 2383.9401 V -2.5000001e-5 H 0 Z" id="path59" />
    </clipPath>
  </defs><g id="object"><path id="path26" d="m 0,0 c 9.398,-0.152 21.389,-8.104 26.865,-23.98 5.168,-14.981 1.103,-28.183 -11.522,-38.097 -19.09,-14.99 -20.259,-25.173 -4.354,-43.192 2.072,-2.346 5.404,-3.753 6.997,-6.313 4.611,-7.411 22.431,-11.114 10.063,-23.458 -10.369,-10.349 -16.639,3.779 -22.68,9.141 -24.803,22.017 -43.061,48.505 -49.288,81.795 C -48.615,-18.995 -32.539,0.125 0,0" style="fill:#ffffff;fill-opacity:1;fill-rule:nonzero;stroke:none" transform="matrix(1.3333333,0,0,-1.3333333,516.94547,1296.5279)" />
      </g></svg>