<?xml version='1.0' encoding='utf-8'?>
<svg xmlns="http://www.w3.org/2000/svg" version="1.1" width="313.193" height="432.356" viewBox="539.922 3350.000 313.193 432.356"><g id="object"><path id="path8" d="m 0,0 c 6.947,-3.78 9.214,-8.783 3.281,-15.132 -3.77,-4.035 -8.204,-7.439 -12.202,-11.27 -5.477,-5.249 -15.609,-10.041 -12.163,-17.994 3.108,-7.17 13.622,-4.958 21.691,-4.028 -1.256,-8.015 -3.084,-15.482 -3.44,-23.019 -0.441,-9.363 0.896,-12.683 13.495,-9.758 14.881,3.454 31.31,1.794 46.573,6.066 15.389,4.307 26.155,-7.073 39.772,-9.872 -10.22,-13.971 -10.22,-13.971 -72.183,-18.966 -5.027,6.032 -12.069,2.841 -18.166,3.97 -12.867,-12.888 -3.982,-28.768 -5.938,-43.156 -5.163,0.765 -8.55,-0.311 -6.873,-6.633 0.221,-2.325 0.442,-4.651 0.663,-6.976 0.776,-12.79 4.587,-23.606 12.942,-34.345 5.037,-6.476 20.832,-17.437 2.73,-28.375 -7.839,6.908 -18.538,11.545 -19.18,24.166 -3.032,24.8 -26.417,37.656 -35.073,59.593 -3.478,8.814 5.155,24.521 -12.565,26.622 -10.491,2.291 -9.567,-7.003 -12.491,-13.206 -1.415,29.904 -5.434,32.976 -35.389,27.874 -3.959,0.076 -7.917,0.151 -11.876,0.226 -19.038,30.753 -13.973,60.478 3.82,89.662 6.455,-0.088 8.961,-3.833 9.071,-9.796 -0.997,-3.748 -0.803,-8.706 -3.184,-11.052 -17.214,-16.969 -5.854,-20.595 9.985,-22.105 21.791,-2.077 42.352,20.376 41.56,45.396 -0.276,8.694 -1.173,17.369 -1.787,26.053 1.805,4.571 3.609,9.141 5.414,13.712 8.471,0.817 16.942,1.635 28.787,2.778 C -42.093,21.577 -9.344,13.475 -19.653,-3.569 -12.325,-0.407 -6.211,0.156 0,0" style="fill:#f0c465;fill-opacity:1;fill-rule:nonzero;stroke:none" transform="matrix(1.3333333,0,0,-1.3333333,717.24467,3446.6259)" />
      <path id="path43" d="m 0,0 c 6.097,-1.129 13.139,2.062 18.166,-3.97 1.963,-14.19 -11.363,-30.063 4.702,-42.7 -14.792,-13.053 6.401,-25.351 0.802,-38.21 -23.859,-10.089 1.05,-21.368 -0.584,-32.099 -0.494,-3.243 -0.099,-9.523 5.34,-8.304 5.717,1.282 3.329,7.827 4.364,12.114 9.311,-1.271 4.163,-20.054 18.482,-15.258 0,0 -0.19,0.27 -0.19,0.27 0.085,-2.029 0.171,-4.058 0.256,-6.087 -2.7,-11.087 -7.574,-18.449 -18.823,-8.062 -9.105,8.407 -26.303,6.447 -28.992,22.822 18.103,10.937 2.308,21.899 -2.729,28.374 -8.355,10.739 -12.166,21.555 -12.941,34.345 -0.221,2.325 -0.443,4.651 -0.664,6.976 -1.677,6.323 1.71,7.398 6.873,6.633 9.658,-2.84 10.536,1.72 7.326,9.037 C -3.548,-22.869 -3.053,-11.515 0,0" style="fill:#534124;fill-opacity:1;fill-rule:nonzero;stroke:none" transform="matrix(1.3333333,0,0,-1.3333333,726.122,3579.9635)" />
      <path id="path66" d="M 0,0 C 5.598,12.86 -15.595,25.157 -0.802,38.21 5.31,36.059 11.422,33.909 17.534,31.759 24.619,25.943 16.895,3.249 34.758,12.037 52.4,20.715 45.286,8.602 45.036,2.971 44.773,-2.968 30.926,-8.471 44.772,-14.815 45.591,-15.991 45.787,-17.263 45.36,-18.63 21.625,-14.237 24.151,-28.563 27.601,-43.547 13.283,-48.343 18.43,-29.56 9.119,-28.288 6.079,-18.858 3.039,-9.429 0,0" style="fill:#d5b364;fill-opacity:1;fill-rule:nonzero;stroke:none" transform="matrix(1.3333333,0,0,-1.3333333,757.68267,3693.1371)" />
      <path id="path91" d="m 0,0 c -13.845,6.343 0.001,11.846 0.265,17.786 0.25,5.631 7.363,17.744 -10.278,9.065 -17.864,-8.787 -10.14,13.907 -17.225,19.722 8.654,0.072 17.345,0.672 25.953,0.07 C 7.652,46.019 20.192,47.384 21.378,35.789 22.4,25.802 25.624,11.448 8.597,7.697 5.325,6.976 2.845,2.658 0,0" style="fill:#987d45;fill-opacity:1;fill-rule:nonzero;stroke:none" transform="matrix(1.3333333,0,0,-1.3333333,817.37813,3712.8899)" />
      <path id="path93" d="m 0,0 c 29.955,5.102 33.974,2.029 35.389,-27.874 2.924,6.203 2,15.497 12.491,13.207 2.461,-9.319 7.603,-18.156 5.097,-28.368 -6.278,-2.119 -1.604,17.698 -13.674,6.177 C 27.499,-48.125 17.704,-40.581 9.804,-29.88 24.782,-13.934 -3.485,-12.176 0,0" style="fill:#534124;fill-opacity:1;fill-rule:nonzero;stroke:none" transform="matrix(1.3333333,0,0,-1.3333333,577.89,3572.5443)" />
      <path id="path95" d="m 0,0 c -1.805,-4.571 -3.609,-9.141 -5.413,-13.71 -4.702,7.374 -8.553,13.778 -16.403,1.78 -9.135,-13.961 -20.037,-26.767 -30.172,-40.074 -0.11,5.964 -2.615,9.709 -9.071,9.796 8.923,17.459 27.863,27.233 34.589,47.133 2.204,6.522 10.983,14.958 21.698,14.883 1.761,-1.695 3.521,-3.391 5.282,-5.086 C 0.34,9.815 0.17,4.907 0,0" style="fill:#be9d53;fill-opacity:1;fill-rule:nonzero;stroke:none" transform="matrix(1.3333333,0,0,-1.3333333,648.56053,3396.4168)" />
      <path id="path108" d="M 0,0 C 2.507,10.212 -2.635,19.049 -5.097,28.368 12.624,26.266 3.991,10.559 7.469,1.745 16.125,-20.192 39.509,-33.048 42.541,-57.848 24.653,-58.18 17.849,-46.604 11.899,-31.892 7.634,-21.345 10.699,-8.016 0,0" style="fill:#be9d53;fill-opacity:1;fill-rule:nonzero;stroke:none" transform="matrix(1.3333333,0,0,-1.3333333,648.52547,3629.9247)" />
      <path id="path116" d="m 0,0 c 0.17,4.907 0.34,9.815 0.506,14.728 12.405,1.88 24.812,3.754 37.219,5.627 -13.14,-23.552 0.121,-40.829 13.788,-58.011 -6.21,0.155 -12.325,-0.408 -19.653,-3.57 C 42.169,-24.182 9.42,-16.08 28.787,2.778 16.942,1.635 8.471,0.817 0,0" style="fill:#987d45;fill-opacity:1;fill-rule:nonzero;stroke:none" transform="matrix(1.3333333,0,0,-1.3333333,648.56053,3396.4168)" />
      <path id="path136" d="m 0,0 c -12.407,-1.874 -24.815,-3.747 -37.219,-5.628 -1.757,1.69 -3.517,3.385 -5.279,5.08 C -18.312,15.023 7.197,9.919 32.732,5.329 22.406,-1.601 11.128,-0.225 0,0" style="fill:#d5b364;fill-opacity:1;fill-rule:nonzero;stroke:none" transform="matrix(1.3333333,0,0,-1.3333333,698.8608,3369.2763)" />
      <path id="path171" d="M 0,0 C -3.485,-12.176 24.782,-13.934 9.804,-29.88 -2.204,-23.289 -5.388,-10.344 -11.876,0.225 -7.918,0.151 -3.959,0.075 0,0" style="fill:#d5b364;fill-opacity:1;fill-rule:nonzero;stroke:none" transform="matrix(1.3333333,0,0,-1.3333333,577.89,3572.5443)" />
      <path id="path175" d="M 0,0 C -3.45,14.984 -5.976,29.31 17.759,24.918 10.82,17.465 7.214,9.596 14.686,0.343 13.562,-0.079 12.404,-0.352 11.211,-0.476 7.41,-0.227 3.61,0.022 -0.19,0.271 Z" style="fill:#987d45;fill-opacity:1;fill-rule:nonzero;stroke:none" transform="matrix(1.3333333,0,0,-1.3333333,794.4844,3751.2001)" />
      <path id="path216" d="M 0,0 C 3.639,-0.566 8.146,-1.003 6.859,-6.078 5.974,-9.567 2.618,-9.398 -0.166,-7.172 -1.269,-5.051 -2.372,-2.935 -3.475,-0.819 -2.281,-0.695 -1.123,-0.422 0,0" style="fill:#534124;fill-opacity:1;fill-rule:nonzero;stroke:none" transform="matrix(1.3333333,0,0,-1.3333333,814.06533,3750.7435)" />
      <path id="path225" d="m 0,0 c 1.103,-2.116 2.206,-4.232 3.309,-6.353 -4.819,0.334 -9.637,0.674 -14.454,1.013 -0.085,2.029 -0.17,4.058 -0.256,6.086 C -7.601,0.498 -3.8,0.249 0,0" style="fill:#d5b364;fill-opacity:1;fill-rule:nonzero;stroke:none" transform="matrix(1.3333333,0,0,-1.3333333,809.43227,3751.8353)" />
      <path id="path402" d="m 0,0 c 10.135,13.307 21.036,26.113 30.171,40.074 7.851,11.998 11.701,5.594 16.404,-1.78 0.612,-8.686 1.51,-17.361 1.785,-26.055 0.793,-25.02 -19.769,-47.473 -41.559,-45.396 -15.84,1.51 -27.199,5.136 -9.985,22.105 C -0.804,-8.706 -0.998,-3.748 0,0" style="fill:#534124;fill-opacity:1;fill-rule:nonzero;stroke:none" transform="matrix(1.3333333,0,0,-1.3333333,579.24373,3465.7552)" />
      <path id="path403" d="M 0,0 C -3.053,-11.515 -3.548,-22.869 1.388,-34.119 4.598,-41.436 3.72,-45.996 -5.938,-43.156 -3.982,-28.768 -12.867,-12.887 0,0" style="fill:#be9d53;fill-opacity:1;fill-rule:nonzero;stroke:none" transform="matrix(1.3333333,0,0,-1.3333333,726.122,3579.9635)" />
      <path id="path442" d="m 0,0 c 3.039,-9.429 6.079,-18.858 9.119,-28.288 -1.034,-4.288 1.354,-10.833 -4.364,-12.115 -5.439,-1.219 -5.833,5.061 -5.34,8.304 C 1.05,-21.368 -23.859,-10.088 0,0" style="fill:#040504;fill-opacity:1;fill-rule:nonzero;stroke:none" transform="matrix(1.3333333,0,0,-1.3333333,757.68267,3693.1371)" />
      </g></svg>