<?xml version='1.0' encoding='utf-8'?>
<svg xmlns="http://www.w3.org/2000/svg" version="1.1" width="179.758" height="179.916" viewBox="1693.020 2199.110 179.758 179.916"><defs id="defs1"><clipPath clipPathUnits="userSpaceOnUse" id="clipPath46">
      <path d="M 0,3370.3901 H 2383.9401 V -2.5000001e-5 H 0 Z" id="path46" />
    </clipPath>
  </defs><g id="object"><path id="path18" d="M 0,0 C 0.009,22.097 -19.623,42.648 -41.192,43.12 -65.54,43.652 -83.8,24.893 -83.592,-0.439 -83.404,-23.247 -64.355,-41.025 -40.74,-40.429 -20.102,-39.909 -0.009,-19.969 0,0 m -104.509,0.992 c -0.016,36.413 26.36,63.403 61.826,63.267 34.243,-0.13 64.076,-29.46 63.992,-62.911 -0.093,-36.862 -27.355,-62.932 -65.906,-63.025 -33.345,-0.081 -59.898,27.693 -59.912,62.669" style="fill:#424242;fill-opacity:1;fill-rule:nonzero;stroke:none" transform="matrix(1.3333333,0,0,-1.3333333,1838.366,2290.7893)" />
      </g></svg>