<?xml version='1.0' encoding='utf-8'?>
<svg xmlns="http://www.w3.org/2000/svg" version="1.1" width="38.997" height="173.863" viewBox="1637.220 1254.280 38.997 173.863"><defs id="defs1"><clipPath clipPathUnits="userSpaceOnUse" id="clipPath46">
      <path d="M 0,3370.3901 H 2383.9401 V -2.5000001e-5 H 0 Z" id="path46" />
    </clipPath>
  </defs><g id="object"><path id="path43" d="m 0,0 c 0,15.733 -0.193,31.471 0.105,47.198 0.104,5.448 2.18,10.756 8.607,11.308 8.093,0.695 10.775,-5.206 10.837,-11.748 0.309,-32.344 0.347,-64.692 0.174,-97.036 -0.035,-6.39 -2.074,-12.732 -10.167,-12.554 -8.063,0.177 -9.666,6.742 -9.792,12.998 C -0.572,-33.229 -0.35,-16.613 -0.35,-0.001 -0.234,0 -0.117,0 0,0" style="fill:#424242;fill-opacity:1;fill-rule:nonzero;stroke:none" transform="matrix(1.3333333,0,0,-1.3333333,1643.7789,1338.3617)" />
      </g></svg>