<?xml version='1.0' encoding='utf-8'?>
<svg xmlns="http://www.w3.org/2000/svg" version="1.1" width="160.622" height="177.365" viewBox="2136.170 1566.480 160.622 177.365"><defs id="defs1"><clipPath clipPathUnits="userSpaceOnUse" id="clipPath46">
      <path d="M 0,3370.3901 H 2383.9401 V -2.5000001e-5 H 0 Z" id="path46" />
    </clipPath>
  </defs><g id="object"><path id="path34" d="m 0,0 c -2.896,-4.188 -6.003,-9.439 -9.834,-14.095 -20.775,-25.243 -41.396,-50.29 -34.602,-86.764 1.25,-6.71 -0.648,-15.011 -10.628,-14.524 -8.019,0.392 -10.268,7.475 -9.245,13.434 6.662,38.777 -16.444,64.263 -38.773,90.502 -3.9,4.583 -12.836,10.528 -5.709,17.467 5.368,5.226 13.537,1.678 19.248,-2.775 4.792,-3.736 9.579,-7.998 12.915,-12.997 20.898,-31.318 23.196,-24.482 44.305,1.306 6.091,7.442 10.924,16.32 22.339,16.233 C -5.419,7.752 -1.246,6.885 0,0" style="fill:#424242;fill-opacity:1;fill-rule:nonzero;stroke:none" transform="matrix(1.3333333,0,0,-1.3333333,2290.7888,1583.9789)" />
      </g></svg>