<?xml version='1.0' encoding='utf-8'?>
<svg xmlns="http://www.w3.org/2000/svg" version="1.1" width="190.459" height="245.032" viewBox="2691.730 2669.790 190.459 245.032"><g id="object"><path id="path34" d="m 0,0 c 18.34,-6.65 33.584,-12.766 49.226,-17.594 7.567,-2.336 16.374,-4.355 23.707,-2.633 6.436,1.512 11.598,8.446 17.322,12.986 C 84.921,-3.281 80.117,2.468 74.135,4.237 64.094,7.206 53.2,7.131 42.851,9.251 21.096,13.707 5.664,25.246 2.196,48.663 -1.662,74.719 8.003,94.241 30.058,105.536 69.372,125.669 131.049,105.618 126.697,60.353 111.103,59.328 95.503,51.271 81.173,68.34 77.037,73.267 64.221,73.424 56.245,71.726 50.927,70.593 44.947,62.825 43.563,57.004 42.854,54.019 50.94,46.453 56.156,45.043 68.628,41.672 81.861,41.252 94.592,38.675 115.524,34.438 130.673,23.231 133.32,0.628 135.916,-21.533 127.608,-38.862 108.126,-50.758 68.799,-74.77 -2.438,-58.375 0,0" style="fill:#231916;fill-opacity:1;fill-rule:nonzero;stroke:none" transform="matrix(1.3333333,0,0,-1.3333333,2697.8157,2826.9301)" />
      </g></svg>