<?xml version='1.0' encoding='utf-8'?>
<svg xmlns="http://www.w3.org/2000/svg" version="1.1" width="1667.423" height="377.920" viewBox="788.979 2613.860 1667.423 377.920"><g id="object"><path id="path1326" d="M 24.246128,-0.63276959 C 38.285191,0.9555916 54.867222,1.9106189 74.648472,1.9106189 c 41.789058,0 74.964848,-10.8370466 95.062498,-30.9428849 20.08594,-19.774091 30.9375,-48.485228 30.9375,-83.569914 0,-34.77305 -11.16797,-59.65402 -30.30469,-77.20642 -18.82031,-17.54234 -47.21484,-26.79103 -87.082027,-26.79103 -22.019531,0 -42.105469,1.91006 -59.015625,4.4635 z m 27.75,-191.08588041 c 7.335938,-1.59842 18.1875,-2.87514 32.542969,-2.87514 58.687503,0 87.398433,32.21961 87.082033,82.94664 0,58.055603 -32.21485,91.230236 -91.558596,91.230236 -10.839843,0 -21.046875,-0.321693 -28.066406,-1.598414 z M 243.07621,-215.00121 V 5.6430385e-4 h 27.75 V -215.00121 Z m 71.76855,204.476368 c 11.48438,7.6502715 34.13672,13.7121816 54.86719,13.7121816 50.71875,0 75.28125,-28.7111366 75.28125,-61.8857686 0,-31.576219 -18.49219,-49.118561 -54.86719,-63.162491 -29.66016,-11.48043 -42.73828,-21.3725 -42.73828,-41.46829 0,-14.66721 11.16797,-32.21961 40.51172,-32.21961 19.45312,0 33.80859,6.38361 40.82812,10.21377 l 7.65235,-22.64923 c -9.5625,-5.42857 -25.51172,-10.5254 -47.51953,-10.5254 -41.78907,0 -69.55079,24.88097 -69.55079,58.3773 0,30.2995 21.69141,48.48523 56.78907,60.920687 29.02734,11.168793 40.51172,22.649227 40.51172,42.745012 0,21.694199 -16.59375,36.693154 -44.97657,36.693154 -19.14843,0 -37.32422,-6.383604 -49.76953,-14.043928 z M 530.17093,5.6430385e-4 h 28.07813 V -191.39696 h 65.70703 v -23.60425 H 464.78031 v 23.60425 h 65.39062 z m 124.09278,0 h 27.75 V -93.149783 h 26.15625 c 25.20703,0.955028 36.6914,12.123821 43.0664,41.789984 6.0586,26.801082 10.83985,45.2984532 14.35547,51.36036330385 h 28.71094 C 789.83793,-8.2930938 784.72855,-29.032266 777.70902,-59.01007 c -5.09766,-22.337586 -14.98828,-37.648181 -31.58203,-43.3884 v -0.95503 c 22.65234,-7.66032 40.52344,-26.47938 40.52344,-54.86883 0,-16.58731 -6.07032,-31.26458 -16.91016,-40.83495 -13.39453,-12.12382 -32.54297,-17.54235 -62.20313,-17.54235 -19.14843,0 -39.23437,1.59842 -53.27343,4.4635 z M 682.01371,-192.67368 c 4.46484,-1.27672 14.03906,-2.55344 27.43359,-2.55344 29.34375,0.32169 49.44141,12.44551 49.44141,40.19157 0,24.56933 -18.82032,40.83496 -48.48047,40.83496 h -28.39453 z m 150.24902,-22.32753 V 5.6430385e-4 h 27.75 V -215.00121 Z m 227.12407,185.968944 c -11.168,5.428577 -28.3946,8.937045 -45.293,8.937045 -52.32423,0 -82.62892,-33.818019 -82.62892,-86.445049 0,-56.46725 33.49219,-88.68685 83.89452,-88.68685 17.8711,0 32.8594,3.83016 43.3828,8.93704 l 6.7031,-22.64922 c -7.3359,-3.83017 -24.246,-9.57038 -51.0351,-9.57038 -66.66798,0 -112.28907,45.61009 -112.28907,112.92444 0,70.491064 45.62109,108.7725796 106.23047,108.7725796 26.1562,0 46.5703,-5.0968299 56.7773,-10.2037127 z m 96.6533,29.03283030385 h 28.0781 V -191.39696 h 65.707 v -23.60425 h -159.1758 v 23.60425 h 65.3907 z m 0,0" style="fill:#ffffff;fill-opacity:1;fill-rule:nonzero;stroke:none" aria-label="DISTRICT" transform="matrix(1.3333333,0,0,1.5542749,773.32027,2970.1515)" />
      <path id="path1327" d="m 0,0 c 14.036,-1.859 30.624,-2.976 50.401,-2.976 41.789,0 74.964,12.644 95.061,36.071 20.097,23.054 30.943,56.522 30.943,97.426 0,40.532 -11.165,69.537 -30.305,89.989 -18.821,20.452 -47.211,31.236 -87.086,31.236 -22.011,0 -42.107,-2.231 -59.014,-5.206 z m 27.752,222.741 c 7.337,1.86 18.184,3.347 32.538,3.347 58.695,0 87.405,-37.558 87.086,-96.683 0,-67.677 -32.218,-106.35 -91.552,-106.35 -10.845,0 -21.053,0.372 -28.072,1.859 z" style="fill:none;stroke:#ffffff;stroke-width:16;stroke-linecap:butt;stroke-linejoin:miter;stroke-miterlimit:10;stroke-dasharray:none;stroke-opacity:1" transform="matrix(1.3333333,0,0,-1.3333333,805.6452,2969.1593)" />
      <path id="path1328" d="M 0,0 V -250.631 H 27.752 V 0 Z" style="fill:none;stroke:#ffffff;stroke-width:16;stroke-linecap:butt;stroke-linejoin:miter;stroke-miterlimit:10;stroke-dasharray:none;stroke-opacity:1" transform="matrix(1.3333333,0,0,-1.3333333,1097.414,2635.9771)" />
      <path id="path1329" d="m 0,0 c 11.484,-8.925 34.132,-15.99 54.867,-15.99 50.72,0 75.283,33.467 75.283,72.14 0,36.814 -18.502,57.266 -54.867,73.627 -29.667,13.387 -42.745,24.914 -42.745,48.341 0,17.106 11.164,37.558 40.512,37.558 19.459,0 33.813,-7.437 40.831,-11.9 l 7.656,26.403 c -9.57,6.321 -25.519,12.27 -47.53,12.27 -41.789,0 -69.541,-29.005 -69.541,-68.049 0,-35.327 21.692,-56.522 56.781,-71.024 29.029,-13.016 40.513,-26.402 40.513,-49.829 0,-25.286 -16.588,-42.764 -44.979,-42.764 -19.139,0 -37.323,7.438 -49.763,16.363 z" style="fill:none;stroke:#ffffff;stroke-width:16;stroke-linecap:butt;stroke-linejoin:miter;stroke-miterlimit:10;stroke-dasharray:none;stroke-opacity:1" transform="matrix(1.3333333,0,0,-1.3333333,1193.112,2953.7895)" />
      <path id="path1330" d="m 0,0 h 28.072 v 223.113 h 65.713 v 27.518 H -65.394 V 223.113 H 0 Z" style="fill:none;stroke:#ffffff;stroke-width:16;stroke-linecap:butt;stroke-linejoin:miter;stroke-miterlimit:10;stroke-dasharray:none;stroke-opacity:1" transform="matrix(1.3333333,0,0,-1.3333333,1480.2064,2970.1515)" />
      <path id="path1331" d="M 0,0 H 27.752 V 108.582 H 53.91 C 79.111,107.466 90.595,94.451 96.975,59.869 103.036,28.633 107.821,7.065 111.33,0 h 28.709 c -4.466,9.668 -9.57,33.839 -16.587,68.793 -5.104,26.03 -14.994,43.879 -31.581,50.572 v 1.116 c 22.649,8.924 40.512,30.864 40.512,63.959 0,19.336 -6.061,36.442 -16.906,47.598 -13.398,14.13 -32.538,20.452 -62.205,20.452 -19.139,0 -39.236,-1.859 -53.272,-5.206 z m 27.752,224.601 c 4.467,1.487 14.037,2.974 27.435,2.974 29.347,-0.371 49.444,-14.502 49.444,-46.853 0,-28.633 -18.821,-47.598 -48.487,-47.598 H 27.752 Z" style="fill:none;stroke:#ffffff;stroke-width:16;stroke-linecap:butt;stroke-linejoin:miter;stroke-miterlimit:10;stroke-dasharray:none;stroke-opacity:1" transform="matrix(1.3333333,0,0,-1.3333333,1645.6563,2970.1515)" />
      <path id="path1332" d="M 0,0 V -250.631 H 27.752 V 0 Z" style="fill:none;stroke:#ffffff;stroke-width:16;stroke-linecap:butt;stroke-linejoin:miter;stroke-miterlimit:10;stroke-dasharray:none;stroke-opacity:1" transform="matrix(1.3333333,0,0,-1.3333333,1882.9869,2635.9771)" />
      <path id="path1333" d="m 0,0 c -11.165,-6.321 -28.391,-10.412 -45.297,-10.412 -52.316,0 -82.62,39.417 -82.62,100.773 0,65.819 33.494,103.375 83.896,103.375 17.863,0 32.856,-4.462 43.383,-10.411 l 6.699,26.402 c -7.337,4.461 -24.244,11.155 -51.04,11.155 -66.67,0 -112.286,-53.175 -112.286,-131.637 0,-82.18 45.616,-126.803 106.225,-126.803 26.158,0 46.574,5.951 56.782,11.9 z" style="fill:none;stroke:#ffffff;stroke-width:16;stroke-linecap:butt;stroke-linejoin:miter;stroke-miterlimit:10;stroke-dasharray:none;stroke-opacity:1" transform="matrix(1.3333333,0,0,-1.3333333,2185.8203,2925.0331)" />
      <path id="path1334" d="m 0,0 h 28.072 v 223.113 h 65.713 v 27.518 H -65.394 V 223.113 H 0 Z" style="fill:none;stroke:#ffffff;stroke-width:16;stroke-linecap:butt;stroke-linejoin:miter;stroke-miterlimit:10;stroke-dasharray:none;stroke-opacity:1" transform="matrix(1.3333333,0,0,-1.3333333,2314.6888,2970.1515)" />
      </g></svg>