<?xml version='1.0' encoding='utf-8'?>
<svg xmlns="http://www.w3.org/2000/svg" version="1.1" width="212.988" height="114.913" viewBox="657.222 3158.600 212.988 114.913"><g id="object"><path id="path14" d="M 0,0 C 1.693,0.01 3.386,0.019 5.078,0.029 21.04,-3.038 36.99,-2.558 52.931,0.215 57.159,0.154 61.388,0.093 65.615,0.031 73.157,-3.852 80.721,-2.5 88.289,-0.057 90,-0.061 91.711,-0.066 93.419,-0.07 c 15.104,0.316 19.803,-8.715 20.095,-22.034 0.087,-3.952 -0.544,-8.424 3.648,-11.159 0.129,-1.203 0.259,-2.407 0.388,-3.609 -5.57,-7.928 -4.635,-15.922 -0.241,-23.951 0.074,-2.132 0.147,-4.264 0.22,-6.393 -5.185,-4.126 -10.607,-6.892 -17.736,-6.23 -4.136,0.385 -9.092,0.85 -12.217,-3.524 -2.004,0.115 -4.008,0.23 -6.013,0.345 -18.2,4.813 -36.391,5.43 -54.568,-0.127 -3.677,0.043 -7.354,0.085 -11.03,0.128 -4.732,4.351 -9.498,4.159 -14.291,0.103 -1.129,-0.053 -2.257,-0.106 -3.385,-0.159 -5.584,5.188 -12.594,2.751 -18.958,3.275 -5.962,0.492 -9.139,2.693 -9.671,8.877 -1.842,21.405 -5.674,42.809 0.617,64.129 2.352,0.183 4.705,0.366 7.056,0.549 C -15.133,-3.01 -7.575,-2.794 0,0" style="fill:#0c2f31;fill-opacity:1;fill-rule:nonzero;stroke:none" transform="matrix(1.3333333,0,0,-1.3333333,707.47667,3164.8881)" />
      </g></svg>