<?xml version='1.0' encoding='utf-8'?>
<svg xmlns="http://www.w3.org/2000/svg" version="1.1" width="60.311" height="101.471" viewBox="2756.060 4068.990 60.311 101.471"><g id="object"><path id="path62" d="m 0,0 c 0.524,-2.859 -1.309,-7.049 3.606,-7.133 4.07,-0.07 4.835,3.228 4.65,6.537 C 8.066,2.798 7.43,6.708 3.291,6.845 -1.979,7.021 0.95,2.342 0,0 m 9.334,-27.926 c -0.86,3.113 -0.796,7.378 -5.858,7.756 -4.343,0.324 -4.384,-3.396 -3.792,-5.848 0.898,-3.715 -2.973,-10.047 4.161,-10.663 5.49,-0.474 4.316,4.938 5.489,8.755 M -2.896,18.34 C 12.433,18.76 18.842,14.054 21.1,1.702 c 0.212,-1.158 0.827,-2.705 0.328,-3.458 -5.22,-7.886 -2.122,-15.21 -0.086,-23.416 4.583,-18.47 -9.388,-23.241 -22.249,-23.504 -11.333,-0.232 -13.825,2.571 -12.926,14.008 1.218,15.492 1.29,30.965 0.016,46.453 -0.337,4.096 0.875,7.024 5.873,6.586 2.111,-0.185 4.251,-0.031 5.048,-0.031" style="fill:#494f57;fill-opacity:1;fill-rule:nonzero;stroke:none" transform="matrix(1.3333333,0,0,-1.3333333,2780.7281,4099.5467)" />
      </g></svg>