<?xml version='1.0' encoding='utf-8'?>
<svg xmlns="http://www.w3.org/2000/svg" version="1.1" width="430.617" height="457.134" viewBox="587.402 3878.850 430.617 457.134"><defs id="defs1"><clipPath clipPathUnits="userSpaceOnUse" id="clipPath4">
      <path d="M -2384.1568,2286.7354 H -0.21670001 V -1083.6547 H -2384.1568 Z" id="path4" />
    </clipPath>
    <clipPath clipPathUnits="userSpaceOnUse" id="clipPath6">
      <path d="M -2384.0266,1933.815 H -0.086575 v -3370.39 H -2384.0266 Z" id="path6" />
    </clipPath>
    <clipPath clipPathUnits="userSpaceOnUse" id="clipPath8">
      <path d="M -2384.1847,2520.3537 H -0.24460001 V -850.0364 H -2384.1847 Z" id="path8" />
    </clipPath>
    <clipPath clipPathUnits="userSpaceOnUse" id="clipPath10">
      <path d="M -1378.8652,3371.3417 H 1005.0749 V 0.95157502 h -2383.9401 z" id="path10" />
    </clipPath>
    <clipPath clipPathUnits="userSpaceOnUse" id="clipPath12">
      <path d="M -2383.8391,1819.185 H 0.100925 v -3370.39 H -2383.8391 Z" id="path12" />
    </clipPath>
    <clipPath clipPathUnits="userSpaceOnUse" id="clipPath14">
      <path d="M -2384.2639,1767.3618 H -0.32387501 V -1603.0283 H -2384.2639 Z" id="path14" />
    </clipPath>
  </defs><g id="object"><path id="path24" d="m 0,0 c -2.13,-0.046 -4.26,-0.093 -6.389,-0.139 -12.762,-36.845 -25.524,-73.69 -39.208,-113.197 25.416,0 48.196,0.21 70.968,-0.095 10.4,-0.139 12.324,4.665 9.313,13.36 C 23.129,-66.712 11.562,-33.357 0,0 m -119.047,-118.663 c 23.865,62.828 48.37,125.426 71.16,188.642 5.93,16.449 14.24,21.278 31.068,21.044 52.816,-0.732 52.333,-0.236 71.178,-51.082 20.31,-54.796 41.666,-109.204 62.566,-163.782 12.968,-37.954 25.937,-75.908 38.402,-112.392 -2.64,-5.729 -6.114,-4.503 -8.879,-4.477 -20.554,0.198 -45.709,-6.497 -60.304,2.992 -13.339,8.672 -16.223,34.631 -21.849,53.527 -3.643,12.236 -9.878,16.117 -22.107,15.896 -29.323,-0.528 -58.686,-0.461 -87.995,0.525 -13.886,0.466 -23.068,-3.223 -26.093,-17.641 -0.646,-3.077 -1.989,-6.013 -3.069,-8.992 -17.171,-47.371 -17.168,-46.767 -67.268,-46.337 -16.277,0.14 -19.466,4.547 -13.813,19.458 12.889,33.996 24.734,68.388 37.003,102.619" style="fill:#9e998f;fill-opacity:1;fill-rule:nonzero;stroke:none" transform="matrix(1.3333333,0,0,-1.3333333,804.916,4006.2264)" />
      </g></svg>