<?xml version='1.0' encoding='utf-8'?>
<svg xmlns="http://www.w3.org/2000/svg" version="1.1" width="3042.140" height="3990.553" viewBox="0.429 509.297 3042.140 3990.553"><defs id="defs1"><clipPath clipPathUnits="userSpaceOnUse" id="clipPath4">
      <path d="M -1322.8741,2644.0543 H 1061.066 V -726.33574 h -2383.9401 z" id="path4" />
    </clipPath>
  </defs><g id="object"><path id="path3" d="M 0,0 C 13.761,10.784 20.309,15.915 31.669,24.818 16.995,28.394 7.187,30.784 -2.62,33.174 -1.916,24.259 -1.212,15.344 0,0 m 345.588,-284.519 c -20.947,6.897 -20.947,6.897 -25.87,-21.162 20.55,-4.866 41.248,-9.768 61.945,-14.67 0.492,2.128 0.984,4.256 1.475,6.384 -12.517,9.816 -25.033,19.632 -37.55,29.448 M 5.269,-15.211 c 34.216,-42.785 66.059,-82.603 96.582,-120.769 15.315,2.483 27.306,4.427 41.398,6.712 C 116.876,-75.752 110.112,-10.727 39.088,6.61 38.172,-10.295 38.172,-10.295 5.269,-15.211 m -1055.896,-440.7 c 61.539,-21.752 120.008,-48.4 189.632,-42.751 -6.378,-2.861 -12.757,-5.722 -20.085,-9.009 32.405,-31.68 68.464,-27.962 102.382,-33.421 3.462,62.85 -55.583,126.523 -110.24,121.014 -1.409,-11.49 -2.817,-22.979 -4.831,-39.403 -22.881,55.972 -75.237,65.143 -156.858,3.57 M 636.324,-260.98 c -66.145,-21.437 -133.674,-43.322 -200.635,-65.023 0.685,-1.28 3.63,-6.788 6.576,-12.296 -11.399,0.272 -19.222,5.03 -27.578,8.507 -8.586,3.574 -18.687,18.349 -25.853,-1.972 -0.38,-1.075 -4.41,-2.174 -5.665,-1.435 -35.012,20.616 -14.104,-12.681 -21.537,-23.289 -7.166,4.959 -14.171,9.806 -21.583,14.935 -1.517,-16.693 29.081,-24.277 9.274,-45.84 -7.874,8.562 -14.878,16.178 -21.613,23.502 -23.04,-35.758 -45.077,-69.959 -67.729,-105.114 31.727,-6.28 57.988,7.147 83.4,19.878 53.008,26.557 105.199,54.772 157.302,83.084 9.167,4.982 16.274,13.754 23.121,19.72 5.691,-1.119 14.379,-5.807 20.54,-3.562 45.272,16.498 74.378,49.633 91.98,88.905 M -471.313,-570.46 c -22.01,19.446 -43.942,39.344 -66.613,58.363 -4.016,3.37 -11.958,5.638 -16.646,4.08 -51.511,-17.126 -102.736,-35.112 -156.567,-53.739 3.64,-23.83 6.091,-47.671 11.206,-70.925 4.167,-18.941 11.292,-37.136 -5.898,-53.361 -0.435,-0.411 0.944,-2.745 1.617,-4.562 30.13,0 60.44,-1.243 90.603,0.326 34.836,1.814 70.78,1.565 103.958,10.602 33.1,9.015 33.292,17.544 18.416,47.933 -0.462,0.943 0.787,2.723 1.269,4.141 9.51,-6.645 20.24,-20.139 28.308,-18.7 28.632,5.105 52.144,21.158 69.25,45.63 -18.929,12.418 -33.126,12.227 -39.137,-6.852 -8.287,9.549 -16.627,19.158 -26.361,30.376 -7.863,-14.464 -12.748,-23.451 -17.633,-32.439 -2.181,0.979 -4.362,1.959 -6.543,2.938 3.254,10.931 6.507,21.863 10.771,36.189 m -74.032,94.508 c 20.174,12.071 37.586,22.49 54.704,32.733 -10.114,12.258 -17.758,21.523 -25.403,30.789 2.054,1.44 4.109,2.88 6.163,4.32 4.67,-4.045 9.339,-8.091 11.29,-9.781 9.815,4.034 17.252,9.093 25.144,9.948 20.751,2.247 30.842,15.339 37.188,32.889 21.711,60.045 -20.106,140.878 -82.741,153.439 -34.904,6.999 -71.477,5.674 -104.291,7.896 -34.967,-42.842 -26.524,-86.363 -16.627,-132.51 9.131,1.909 16.725,4.063 24.464,4.946 6.889,0.787 13.94,0.165 26.036,0.165 -16.902,-8.87 -28.316,-14.86 -39.729,-20.851 1.023,-2.301 2.046,-4.601 3.069,-6.902 10.73,0.921 21.459,1.843 32.189,2.765 l 1.068,-5.659 c -9.722,-3.729 -19.444,-7.458 -33.36,-12.796 27.897,-31.541 54.086,-61.149 80.836,-91.391 m 757.439,12.127 c 10.966,6.005 20.435,8.115 24.62,13.99 24.085,33.803 47.501,68.124 69.893,103.071 8.997,14.043 -1.473,44.991 -16.025,52.746 -42.203,22.494 -84.52,44.773 -127.539,67.531 -12.749,-27.825 -3.05,-52.027 18.144,-74.428 -10.226,4.111 -20.453,8.222 -32.455,13.048 -8.696,-11.315 -17.223,-22.815 -26.169,-33.978 -30.899,-38.561 -62.121,-76.866 -92.683,-115.691 -3.326,-4.226 -3.161,-11.199 -3.561,-12.766 -23.381,-25.87 -54.101,-19.678 -83.053,-22.509 -6.204,-0.606 -12.407,-3.369 -18.158,-6.094 -31.586,-14.962 -63.031,-30.222 -95.294,-45.751 1.721,-7.538 3.918,-14.41 4.718,-21.442 0.792,-6.958 0.174,-14.075 0.174,-27.285 -8.257,17.723 -13.529,29.042 -18.802,40.36 -1.776,-0.68 -3.552,-1.36 -5.328,-2.04 -0.466,-9.951 -0.931,-19.902 -1.397,-29.852 -2.182,-0.005 -4.364,-0.009 -6.546,-0.014 -1.5,10.179 -2.999,20.358 -4.265,28.947 -31.764,-6.972 -62.166,-13.183 -92.246,-20.686 -5.196,-1.296 -9.023,-8.075 -13.483,-12.322 5.111,-2.447 10.016,-6.286 15.371,-7.074 14.236,-2.098 28.645,-3.247 43.025,-4.112 34.002,-2.046 68.448,-10.557 101.303,5.644 -1.121,7.123 -2.167,13.772 -4.347,27.623 25.572,-24.768 47.912,-26.752 70.816,-16.498 -1.725,12.597 -3.054,22.296 -4.382,31.996 3.335,0.813 6.671,1.626 10.006,2.439 5.831,-11.391 11.662,-22.782 17.947,-35.058 92.411,2.274 178.129,26.972 254.73,80.232 7.322,5.091 11.334,14.943 14.986,19.973 m -1400.271,-142.356 c -11.532,-21.592 6.898,-31.125 17.398,-40.409 36.409,-32.19 81.228,-45.298 127.886,-56.792 34.404,-8.476 65.506,7.82 101.372,-0.203 55.389,-12.391 114.951,-8.622 170.992,10.201 32.817,11.023 35.746,21.907 14.598,49.782 -2.613,3.445 -5.052,7.022 -9.04,12.587 h 23.99 c 0.7,9.848 1.315,18.502 1.704,23.976 -13.256,12.604 -22.667,26.487 -35.739,32.845 -20.634,10.035 -43.697,15.106 -65.784,22.112 -17.521,5.557 -34.633,9.766 -35.955,-14.342 -11.85,9.043 -23.728,18.108 -37.114,28.323 -5.961,-15.922 -9.493,-25.356 -13.025,-34.79 -1.715,0.492 -3.43,0.984 -5.145,1.476 v 37.288 c -13.283,7.022 -25.773,14.288 -38.819,20.36 -17.415,8.105 -36.117,13.77 -52.744,23.174 -34.826,19.698 -65.645,19.156 -92.8,-12.831 -8.504,-10.016 -17.267,-19.811 -26.307,-30.159 -11.654,9.893 -40.715,-3.47 -66.47,-36.561 -17.554,-22.556 -16.426,-37.445 3.99,-51.57 5.659,5.167 11.335,10.35 17.012,15.533 m 848.828,566.973 c -32.869,25.107 -66.259,20.843 -95.471,1.007 -33.632,-22.838 -63.824,-50.864 -94.589,-77.693 -5.845,-5.097 -7.396,-15.117 -10.928,-22.866 -0.535,-0.023 -1.07,-0.045 -1.605,-0.068 -6.987,-13.611 -13.974,-27.223 -21.102,-41.107 9.796,-1.232 18.366,-0.519 25.398,-3.471 68.391,-28.717 118.142,-74.25 130.287,-151.168 6.194,-39.228 1.726,-74.778 -36.62,-99.228 -10.636,-6.782 -15.581,-22.487 -23.146,-34.113 -25.872,13.369 -32.915,-21.022 -58.386,-23.105 38.62,-31.336 74.744,-52.311 122.492,-52.838 -6.173,-3.328 -12.345,-6.655 -20.702,-11.16 10.768,-9.188 16.565,-17.625 24.085,-19.646 8.938,-2.402 25.276,-2.814 28.154,2.018 16.15,27.118 29.21,56.076 44.075,85.912 -10.419,3.323 -15.913,5.075 -21.764,6.941 8.608,6.689 16.227,12.61 23.846,18.531 -8.763,7.463 -17.526,14.927 -28.281,24.087 6.418,0 12.127,0.536 17.686,-0.144 6.094,-0.745 12.05,-2.613 18.308,-4.047 40.267,68.613 50.807,142.395 51.456,218.842 0.145,17.164 -7.136,24.523 -21.706,29.248 -9.228,2.993 -17.894,7.719 -26.811,11.667 1.003,2.25 2.006,4.5 3.009,6.749 9.62,-2.927 19.24,-5.853 28.856,-8.766 10.046,19.652 11.465,49.199 -0.031,81.496 -5.161,14.498 -13.555,31.568 -25.66,38.773 -11.041,6.572 -29.078,1.392 -43.518,1.392 2.966,5.329 7.205,12.944 12.668,22.757 M 757.364,628.16 c -2.186,13.047 -3.812,21.647 -5.046,30.302 -7.691,53.951 -17.419,107.719 -22.404,161.922 -6.616,71.953 17.899,130.965 81.762,170.09 2.916,1.786 5.174,4.645 9.423,8.554 -5.43,0.311 -7.847,0.792 -10.18,0.529 -19.288,-2.174 -35.658,1.667 -42.653,22.304 -7.026,20.727 4.997,33.235 20.354,43.919 10.86,7.554 21.7,15.139 36.534,25.491 -58.551,-11.611 -57.509,-10.125 -106.147,23.968 -22.365,15.677 -50.464,35.387 -74.677,33.789 -58.819,-3.882 -112.286,-28.848 -155.493,-71.507 -27.728,-27.377 -48.157,-59.828 -49.934,-98.827 -3.357,-73.688 -3.381,-147.541 -3.907,-221.332 -0.117,-16.393 3.422,-32.811 5.307,-49.469 120.384,27.89 202.739,17.501 317.061,-79.733 m -994.947,-841.539 c -4.944,-39.609 -7.025,-78.144 -15.036,-115.404 -12.354,-57.461 -37.248,-112.851 -23.968,-173.788 0.057,-0.261 -1.223,-0.813 -4.341,-2.792 -5.416,6.279 -11.198,12.983 -18.809,21.807 -8.166,-18.079 -15.568,-34.466 -25.44,-56.322 36.338,8.749 67.087,16.798 98.143,23.4 20.639,4.387 33.586,12.618 28.57,36.705 -1.07,5.14 2.032,11.149 3.212,16.759 1.406,-0.148 2.813,-0.295 4.219,-0.442 1.276,-8.768 2.552,-17.536 4.054,-27.861 62.416,12.615 120.288,31.572 173.35,66.244 -6.073,10.025 -11.111,18.341 -18.671,30.819 33.385,-24.338 59.819,-22.698 79.527,7.202 21.83,33.12 38.87,69.398 57.991,104.304 5.981,10.92 11.943,21.85 18.169,33.241 -3.074,2.692 -8.653,7.578 -14.233,12.465 0.627,1.081 1.253,2.161 1.879,3.241 6.565,-1.574 13.129,-3.149 20.307,-4.871 3.801,11.65 7.229,22.159 10.991,33.692 -57.142,46.019 -106.394,98.741 -143.547,161.365 -14.057,23.694 -29.667,40.509 -57.711,45.392 -14.406,2.508 -28.116,9.293 -31.15,29.468 14.416,-5.467 26.119,-9.906 37.822,-14.344 1.741,1.035 3.482,2.07 5.223,3.105 -5.241,9.766 -8.296,24.983 -16.184,28.146 -15.643,6.273 -33.952,5.896 -52.241,8.416 -0.791,-9.985 -1.464,-18.48 -2.137,-26.975 -1.064,0.064 -2.128,0.128 -3.193,0.193 -2.664,8.861 -5.329,17.723 -7.688,25.567 -46.708,-2.129 -91.532,-3.487 -136.25,-6.45 -30.31,-2.008 -62.423,-2.709 -71.425,-37.453 16.104,-14.07 32.239,-28.167 51.61,-45.092 3.326,0.208 13.544,0.846 23.762,1.484 0.403,-1.755 0.807,-3.511 1.21,-5.267 -6.09,-4.221 -12.18,-8.443 -16.02,-11.105 7.45,-23.761 15.923,-46.179 21.425,-69.303 11.048,-46.431 10.379,-46.59 52.223,-59.481 -7.531,-2.959 -15.599,-3.293 -23.143,-5.454 -4.719,-1.352 -8.649,-5.458 -12.933,-8.328 3.716,-4.337 6.782,-9.617 11.326,-12.753 4.851,-3.348 11.099,-4.671 16.737,-6.878 -0.615,-1.934 -1.231,-3.869 -1.846,-5.803 -9.269,1.132 -18.538,2.265 -25.784,3.151 M 311.95,167.794 c -1.994,17.276 -7.476,32.171 -4.414,45.032 6.355,26.702 -3.678,46.769 -18.427,66.52 -8.63,11.558 -16.579,23.708 -26.02,34.561 -27.7,31.846 -58.645,59.842 -100.775,70.688 -10.185,2.622 -21.923,-0.79 -32.947,-1.428 -8.971,-0.891 -24.339,4.843 -26.598,1.559 -5.474,-7.957 -4.842,-20.114 -7.301,-34.191 -5.443,10.123 -9.952,18.51 -14.836,27.594 -53.085,-17.583 -80.108,-64.571 -116.658,-100.35 6.891,-9.131 13.782,-18.262 20.674,-27.393 -1.103,-1.522 -2.205,-3.045 -3.308,-4.567 -7.765,1.951 -15.529,3.903 -24.783,6.229 -9.446,-43.955 -9.153,-87.417 -2.269,-131.268 5.394,-34.354 16.842,-59.935 58.138,-63.113 14.728,-1.133 24.001,-3.544 27.259,14.665 6.21,-10.429 10.711,-17.988 15.212,-25.546 8.818,7.122 17.636,14.243 26.932,21.751 -3.722,-9.662 -7.916,-20.548 -12.144,-31.523 0.763,-1.209 1.462,-2.695 2.493,-3.894 40.372,-46.941 80.232,-94.014 94.096,-157.12 1.329,-6.047 11.945,-10.964 19.163,-14.584 9.92,-4.976 20.713,-8.213 31.132,-12.195 -0.818,-2.463 -1.636,-4.925 -2.453,-7.388 -10.04,2.835 -20.079,5.67 -29.608,8.361 -20.282,-34.255 -18.926,-50.007 12.431,-67.978 33.776,-19.358 70.177,-34.147 105.486,-50.817 16.068,-7.587 23.473,-2.292 28.823,15.006 32.146,103.944 36.864,209.54 20.554,316.37 -4.873,31.92 -13.315,63.295 -20.11,94.866 -14.27,-3.369 -23.946,-5.653 -33.622,-7.938 -0.595,1.364 -1.189,2.727 -1.783,4.09 5.711,5.105 11.421,10.209 15.663,14.001 m 92.777,-458.114 c 91.228,-6.892 169.927,19.793 234.654,72.804 57.592,47.166 80.291,117.21 74.994,192.47 -2.324,33.01 -11.013,65.658 -15.946,98.578 -10.974,73.229 -36.759,142.044 -116.718,175.703 18.954,19.283 5.36,28.541 -8.383,39.001 -11.438,8.706 -21.154,19.635 -32.046,29.103 -38.422,33.402 -78.16,64.515 -131.458,69.945 -33.015,3.364 -33.005,3.248 -41.374,-29.322 -0.181,-0.705 -2.461,-0.87 -5.751,-1.924 -1.946,16.531 1.871,34.089 -21.495,42.073 -52.631,17.983 -105.172,15.545 -161.074,9.5 19.187,-11.497 36.349,-20.081 51.626,-31.244 52.796,-38.577 86.322,-91.555 111.245,-151 2.981,-7.111 11.861,-11.748 19.287,-18.735 6.756,-24.064 14.694,-51.385 21.955,-78.886 1.755,-6.647 2.111,-13.938 1.67,-20.841 -1.84,-28.761 -5.695,-57.462 -6.152,-86.228 -1.559,-98.194 8.719,-197.042 -20.834,-297.069 25.055,5.376 46.418,9.96 67.782,14.544 0.695,-1.955 1.39,-3.911 2.085,-5.866 -6.678,-6.272 -13.355,-12.544 -24.067,-22.606 m -1722.779,938.178 c 11.042,-1.899 22.019,-4.551 33.142,-5.51 14.706,-1.268 28.572,-0.092 22.952,22.58 12.185,-8.71 22.59,-16.149 36.254,-25.916 2.837,16.343 4.641,26.738 6.446,37.132 2.414,0.111 4.83,0.222 7.244,0.333 1.018,-11.172 2.035,-22.344 3.696,-40.574 47.192,-11.268 97.361,-24.05 147.925,-35.011 28.959,-6.278 58.664,-9.035 87.831,-14.464 16.736,-3.115 29.249,-1.124 37.459,16.038 3.663,7.657 11.505,13.316 17.451,19.881 1.994,-1.471 3.987,-2.942 5.981,-4.413 -4.803,-7.959 -9.607,-15.917 -16.485,-27.312 86.427,-19.398 171.198,-38.425 257.074,-57.7 3.414,13.615 5.816,23.198 9.183,36.627 6.921,-27.113 41.29,-55.624 65.829,-57.007 63.285,-3.566 126.645,-5.98 189.872,-10.342 20.096,-1.387 39.868,-7.461 62.14,-11.854 2.302,3.088 7.792,10.451 13.281,17.814 1.738,-0.521 3.476,-1.043 5.213,-1.565 -0.867,-7.673 -1.735,-15.347 -2.724,-24.097 27.709,-6.668 55.709,-12.893 83.414,-20.232 23.133,-6.128 39.156,-1.547 44.09,24.473 0.673,3.548 3.146,6.755 10.494,9.959 v -40.84 c 1.972,-0.352 3.945,-0.704 5.918,-1.057 7.228,8.437 14.457,16.873 21.685,25.31 1.293,-0.756 2.586,-1.513 3.879,-2.269 -2.843,-9.437 -5.686,-18.873 -7.774,-25.805 60.52,-13.233 120.315,-26.736 180.316,-39.255 33.074,-6.901 58.898,10.065 83.676,28.639 5.94,4.452 11.377,9.575 17.045,14.39 1.932,-1.266 3.864,-2.533 5.796,-3.799 -2.833,-8.24 -5.665,-16.48 -8.67,-25.223 72.142,3.927 144.188,7.849 218.625,11.901 0.255,3.376 0.989,13.094 2.054,27.211 8.795,-15.395 12.699,-31.438 22.552,-37.062 11.38,-6.497 28.28,-2.454 42.3,-5.338 73.518,-15.124 132.073,-56.567 184.273,-107.995 11.323,-11.155 21.252,-20.332 38.516,-20.159 6.476,0.066 12.599,-8.851 19.673,-10.79 6.147,-1.686 13.409,0.694 25.816,1.762 -10.897,-9.533 -18.562,-16.239 -27.851,-24.366 49.642,-68.462 91.656,-140.002 98.512,-226.88 8.637,-2.747 16.434,-5.228 24.231,-7.708 -0.049,-1.514 -0.099,-3.027 -0.148,-4.54 -8.656,-1.081 -17.311,-2.162 -23.244,-2.902 -3.804,-46.414 -7.507,-91.59 -11.405,-139.155 15.86,-7.178 27.794,-5.835 39.328,14.566 62.894,111.249 97.906,230.22 98.517,357.937 0.192,40.329 6.506,84.606 -28.106,117.849 -2.676,2.571 -5.113,7.272 -4.817,10.74 1.564,18.338 -9.005,24.185 -26.096,29.295 10.202,3.473 20.404,6.947 30.692,10.45 -11.813,94.52 -100.972,239.317 -272.53,259.363 -5.706,-7.696 -11.648,-15.709 -17.59,-23.722 -1.961,0.593 -3.923,1.187 -5.885,1.78 1.254,8.126 2.508,16.252 4.026,26.094 -30.18,7.792 -60.03,4.555 -89.468,-7.376 -16.28,-6.598 -31.398,-14.772 -46.732,5.493 -6.597,8.718 -23.032,9.901 -34.908,14.727 -72.795,29.583 -145.391,59.672 -218.529,88.382 -11.121,4.366 -24.718,2.428 -38.065,-0.36 -27.62,38.327 -76.282,34.835 -115.571,50.411 -70.047,27.77 -140.871,53.966 -212.655,76.774 -28.117,8.933 -59.644,7.866 -89.719,9.602 -15.893,0.917 -19.331,3.005 -23.278,29.704 -9.506,-5.645 -17.58,-11.409 -26.461,-15.36 -5.549,-2.468 -12.315,-2.202 -18.535,-3.162 3.11,5.413 5.879,11.068 9.482,16.13 1.632,2.294 4.917,3.41 10.137,6.807 -59.924,21.769 -116.657,44.211 -174.614,62.847 -45.732,14.706 -93.571,22.852 -139.335,37.477 -31.675,10.123 -61.987,25.17 -91.802,40.209 -18.68,9.422 -35.663,19.203 -52.967,5.281 -6.955,7.902 -11.599,18.246 -18.897,20.703 -91.176,30.689 -182.401,61.329 -274.345,89.6 -44.306,13.622 -90.284,21.732 -135.186,33.547 -8.48,2.232 -15.031,10.987 -23.237,15.267 -10.886,5.68 -22.833,14.393 -33.76,13.638 -13.358,-0.923 -16.694,6.664 -22.631,13.687 0,4.822 0,9.643 0,14.465 18.708,-0.22 37.449,0.185 56.115,-0.816 24.29,-1.301 48.52,-3.719 73.059,-5.678 -1.294,-3.043 -3.922,-9.226 -7.028,-16.533 124.65,-62.666 258.661,-95.188 385.876,-138.364 4.841,14.602 8.701,26.247 12.561,37.89 3.774,-7.014 7.549,-14.029 13.048,-24.251 4.667,-1.764 17.178,-2.638 23.054,-9.335 42.734,-48.696 102.202,-65.368 160.065,-83.362 88.758,-27.601 178.632,-51.608 268.014,-77.208 10.789,-3.09 21.457,-6.6 32.181,-9.916 21.496,-6.647 42.177,-24.107 66.347,4.739 0.381,-3.421 0.761,-6.842 1.142,-10.263 -1.736,-5.566 -3.471,-11.131 -6.84,-21.939 105.166,-36.571 210.753,-73.288 319.208,-111.003 -1.252,16.013 -1.912,24.452 -2.572,32.891 3.058,0.866 6.117,1.732 9.176,2.597 5.338,-12.569 10.676,-25.139 14.222,-33.489 11.928,-2.146 22.898,-1.85 31.715,-6.06 83.171,-39.707 165.934,-80.266 248.946,-120.306 8.349,-4.027 17.569,-6.25 23.122,-8.177 0,60.95 -0.481,120.928 0.205,180.892 0.338,29.608 1.663,59.307 4.573,88.764 7.921,80.165 55.122,132.67 122.768,169.924 13.207,7.273 27.117,13.27 43.211,27.101 -51.421,26.686 -102.842,53.371 -155.964,80.94 -5.921,-14.491 -10.481,-25.652 -16.385,-40.102 -9.337,37.116 -21.06,67.933 -54.701,82.799 -34.428,15.213 -69.519,28.923 -104.266,43.42 -14.038,5.857 -27.65,12.878 -41.995,17.8 -8.883,3.047 -18.779,3.141 -31.073,4.989 0.283,0.776 2.223,6.089 5.942,16.272 -41.775,24.372 -84.345,49.207 -128.963,75.237 -4.588,-13.239 -7.232,-20.867 -10.213,-29.47 -17.747,40.032 -47.689,67.818 -77.926,94.54 -31.148,27.527 -64.187,53.504 -110.19,55.135 -4.894,27.187 19.931,35.445 37.238,49.088 -4.147,-7.416 -8.294,-14.831 -13.005,-23.256 26.817,-17.485 54.09,-34.374 80.388,-52.668 25.68,-17.865 50.363,-37.164 76.74,-56.767 3.832,2.656 8.646,5.993 7.818,5.419 12.775,-10.124 22.102,-18.646 32.507,-25.539 26.082,-17.279 52.382,-34.266 79.111,-50.52 22.163,-13.477 44.924,-26.442 73.759,-12.324 1.392,-7.504 2.458,-13.248 3.936,-21.214 7.536,6.075 14.331,11.554 21.127,17.032 1.386,-1.224 2.771,-2.449 4.157,-3.673 -4.739,-6.41 -9.478,-12.82 -13.165,-17.808 32.135,-43.736 83.888,-49.898 129.95,-67.796 11.975,-4.653 24.125,-13.272 31.827,-23.393 9.71,-12.759 17.655,-14.639 27.409,-5.896 3.253,-5.904 4.951,-14.341 9.736,-16.819 34.824,-18.032 69.909,-35.664 105.661,-51.757 19.579,-8.813 40.718,-14.106 60.975,-21.476 54.054,-19.664 114.886,-24.869 155.29,-73.694 12.576,-15.196 27.422,-6.499 42.039,-2.156 38.991,11.586 78.2,22.443 117.397,33.32 4.542,1.261 10.088,2.327 14.231,0.851 7.391,-2.631 14.067,-7.272 21.042,-11.072 -4.494,-6.65 -7.492,-15.787 -13.728,-19.539 -36.421,-21.914 -73.756,-42.301 -110.432,-63.8 -11.391,-6.677 -21.692,-15.212 -30.726,-28.534 24.124,1.058 48.238,2.478 72.373,3.046 15.976,0.376 32.15,0.785 47.894,-1.346 6.928,-0.937 13.005,-8.156 19.469,-12.522 -5.997,-6.105 -10.921,-14.992 -18.191,-17.794 -22.36,-8.619 -46.429,-13.02 -68.375,-22.455 -69.251,-29.772 -102.319,-84.532 -92.46,-159.52 10.758,-81.832 25.699,-163.118 39.178,-244.582 0.997,-6.029 4.476,-11.814 7.523,-17.313 27.599,-49.788 55.724,-99.291 82.595,-149.467 3.248,-6.065 3.2,-18.888 -0.897,-22.943 -11.603,-11.482 -11.022,-22.908 -8.184,-37.181 23.279,-117.098 -2.067,-229.64 -33.285,-341.492 -6.893,-24.7 -13.751,-49.539 -22.912,-73.437 -6.912,-18.033 -7.285,-30.621 14.282,-36.345 2.618,-0.695 4.655,-3.579 6.961,-5.449 -0.359,-2.383 -0.719,-4.767 -1.078,-7.151 -10.957,0.632 -21.914,1.264 -34.157,1.969 -35.235,-30.855 -72.832,-63.358 -109.72,-96.648 -4.337,-3.914 -4.772,-12.154 -5.111,-13.099 -10.554,-12.906 -20.537,-21.18 -25.432,-31.8 -18.441,-40.009 -48.582,-69.074 -82.53,-95.597 -23.658,-18.483 -45.719,-39.009 -70.666,-60.494 -1.717,1.046 -7.353,4.479 -14.49,8.826 -0.904,-10.791 -1.678,-20.033 -2.452,-29.275 -1.665,-0.38 -3.33,-0.761 -4.995,-1.141 -2.105,7.111 -4.21,14.223 -5.996,20.255 -62.911,-1.628 -110.276,-41.557 -162.262,-71.842 -13.906,-8.102 -31.046,-12.573 -47.187,-14.387 -16.621,-1.868 -27.691,-5.792 -26.835,-27.259 -6.339,4.894 -10.414,8.041 -15.214,11.747 -31.989,-22.926 -64.791,-44.558 -95.448,-68.891 -36.499,-28.97 -54.595,-66.505 -44.97,-106.727 -6.997,-15.407 -11.405,-25.114 -17.488,-38.507 H 56.565 c -6.087,21.632 -12.47,44.314 -19.234,68.35 4.668,-0.879 10.969,-2.065 10.597,-1.995 37.411,45.174 72.713,87.801 98.744,119.234 -82.441,-25.821 -179.079,-56.089 -279.696,-87.603 5.291,8.998 8.772,14.918 14.861,25.271 h -189.681 c 6.955,-18.496 13.08,-34.789 18.985,-50.492 -20.099,1.588 -27.522,-6.704 -23.007,-28.645 2.868,-13.939 7.149,-27.587 11.448,-43.828 h -27.783 c -16.45,18.465 19.52,59.392 -25.338,64.573 1.868,8.294 3.947,17.52 6.025,26.746 h -29.238 c -0.232,1.83 -0.465,3.66 -0.698,5.49 5.402,1.501 10.757,3.209 16.22,4.444 5.21,1.179 10.532,1.864 18.207,3.177 -15.323,13.624 -25.729,11.992 -37.285,-1.864 -10.146,-12.163 -22.985,-22.08 -39.39,-37.443 9.262,-4.739 18.398,-9.414 30.022,-15.362 -8.604,-4.133 -10.582,-5.637 -11.086,-5.245 -21.439,16.676 -37.236,5.045 -57.947,-5.587 -26.939,-13.829 -58.406,-22.477 -88.673,-25.288 -40.541,-3.765 -81.8,0.203 -122.75,0.83 -4.813,0.074 -11.272,2.062 -14.194,-0.286 -39.086,-31.423 -83.402,-2.624 -125.233,-10.951 -41.887,-8.339 -86.367,-5.757 -129.626,-4.651 -87.434,2.235 -172.244,16.713 -249.707,61.158 -6.162,3.535 -16.112,0.466 -23.874,0.466 -7.822,10.634 -17.592,23.487 -26.894,36.67 -12.527,17.753 -11.897,36.918 -0.784,54.146 9.436,14.628 21.778,27.592 33.988,40.172 20.542,21.163 45.823,38.734 49.357,73.926 8.154,-2.98 14.739,-5.387 21.444,-7.838 -5.216,8.767 -5.501,6.066 -66.676,12.526 -34.475,3.641 -24.976,-38.916 -55.635,-40.311 5.026,10.095 8.909,17.893 14.621,29.364 -25.338,3.136 -50.023,6.191 -74.707,9.247 0,9.643 0,19.287 0,28.93 h 64.771 c 6.096,13.565 -1.465,34.8 19.72,43.683 3.852,-16.219 -13.408,-36.813 13.614,-42.933 6.174,10.365 11.871,19.928 17.568,29.491 1.916,-1.009 3.832,-2.018 5.748,-3.028 -1.827,-10.165 -3.655,-20.33 -5.289,-29.418 38.845,-2.414 75.505,-5.064 112.21,-6.717 9.513,-0.429 20.486,-0.236 28.509,3.995 24.089,12.7 46.48,28.633 70.616,41.229 23.633,12.334 48.081,21.268 75.535,7.245 6.347,-3.243 17.439,2.803 25.924,4.491 5.898,-2.858 13.232,-6.135 20.309,-9.895 20.899,-11.106 44.925,-18.933 61.69,-34.531 19.5,-18.144 34.281,-42.159 48.156,-65.39 34.321,-57.465 16.188,-49.245 79.498,-31.978 37.198,10.145 73.075,25.129 108.16,37.449 -25.397,32.474 -49.308,60.505 -69.984,90.748 -8.151,11.924 -14.433,18.927 -29.515,18.3 -10.028,-0.417 -20.242,3.619 -30.373,5.662 0.458,2.807 0.917,5.615 1.376,8.422 9.123,-0.645 18.247,-1.29 30.521,-2.158 -13.425,49.941 -7.997,98.275 10.081,141.858 h -258.57 c 2.304,-12.914 3.893,-21.822 5.482,-30.73 -9.241,2.763 -13.211,7.343 -16.405,12.413 -3.298,5.236 -5.84,10.949 -6.32,11.867 -10.023,-1.651 -16.849,-4.633 -22.797,-3.396 -15.642,3.253 -30.744,9.035 -46.339,12.586 -103.362,23.534 -207.009,44.27 -313.896,27 v 57.861 c 23.866,-2.947 0.27,-19.036 5.83,-24.569 106.157,-11.083 210.532,-22.386 315.032,-32.385 13.256,-1.268 27.166,4.29 46.238,7.649 9.519,-18.58 34.073,-11.061 56.483,-12.297 41.619,-2.296 83.274,-4.571 124.765,-8.45 79.397,-7.423 142.038,18.069 182.776,89.158 -6.871,7.442 -13.446,14.563 -20.021,21.684 8.635,-0.138 17.429,-7.336 20.417,-5.431 22.622,14.428 52.034,6.492 73.446,32.004 35.216,41.961 80.35,73.708 138.729,78.972 4.405,0.398 8.172,7.88 15.515,15.45 H -539.43 c -3.542,-7.898 -6.277,-13.997 -11.916,-26.572 v 28.469 c -54.657,11.521 -107.762,23.181 -161.156,33.32 -5.99,1.138 -13.614,-6.335 -15.35,-7.215 -12.546,4.519 -22.015,9.409 -32.043,11.237 -21.225,3.866 -42.772,5.926 -64.131,9.106 -31.762,4.73 -63.99,13.017 -90.039,-16.414 -3.796,6 -6.555,10.36 -9.94,15.71 -3.885,-8.52 -7.038,-15.434 -10.192,-22.349 -1.467,0.322 -2.935,0.644 -4.403,0.966 0.757,7.951 1.515,15.903 1.949,20.459 -37.741,26.202 -77.154,13.449 -116.827,9.475 -17.892,-1.792 -36.611,6.072 -55.111,8.204 -6.808,0.784 -14.065,-2.324 -21.289,-3.689 -6.529,1.78 -13.72,4.97 -21.102,5.5 -15.968,1.146 -32.079,1.861 -48.05,1.085 -39.698,-1.928 -79.351,-4.79 -119.022,-7.278 0,17.68 0,35.359 0,53.039 5.956,3.298 11.913,6.595 12.018,6.653 11.586,-8.134 20.285,-19.191 30.094,-20.285 47.347,-5.281 94.993,-7.88 144.357,-11.567 -0.975,18.282 -1.6,30.018 -2.589,48.581 23.895,-36.324 48.171,-58.229 86.353,-56.728 43.299,1.702 86.604,3.498 129.846,6.208 10.696,0.67 21.161,5.026 32.015,7.759 2.177,-2.781 5.816,-12.5 11.748,-14.196 40.249,-11.503 81.26,-17.4 124.015,-10.475 v 26.881 c 1.291,0.155 2.582,0.31 3.873,0.464 2.483,-7.156 4.966,-14.313 5.377,-15.496 12.275,-5.885 20.362,-9.995 28.633,-13.689 53.86,-24.054 106.606,-54.783 169.024,-28.61 1.852,0.776 4.826,0.561 6.603,-0.417 38.492,-21.175 80.181,-12.507 120.297,-10.42 21.264,1.106 41.941,13.371 62.909,20.525 1.262,0.431 2.749,0.204 4.25,0.29 3.182,-5.235 6.384,-10.504 8.498,-13.982 19.311,5.112 36.691,11.561 54.617,14.019 26.16,3.587 52.799,3.552 79.063,6.548 14.187,1.619 30.398,2.958 41.301,10.651 9.617,6.785 13.133,22.218 18.097,31.503 7.667,-30.109 25.506,-40.378 82.197,-43.775 0,4.679 0.879,9.51 -0.133,13.904 -13.175,57.191 -11.921,114.606 -4.173,172.351 4.53,33.763 7.441,67.743 10.984,100.728 5.432,-3.89 14.918,-10.683 24.519,-17.559 18.286,13.259 36.012,26.11 55.151,39.987 -4.834,2.092 -7.602,3.926 -10.609,4.497 -59.884,11.386 -119.663,23.464 -179.85,32.949 -8.553,1.348 -19.882,-9.065 -28.527,-15.824 -8.452,-6.608 -15.114,-15.505 -22.561,-23.398 -1.748,1.686 -3.496,3.372 -5.244,5.057 6.291,8.724 12.581,17.447 22.815,31.64 -33.083,9.942 -63.654,19.932 -94.676,28.24 -35.227,9.435 -68.745,9.635 -92.499,-28.476 1.463,38.883 1.469,38.907 -35.184,48.773 -5.411,1.456 -10.853,3.155 -16.387,3.736 -66.163,6.945 -132.324,13.941 -198.566,20.054 -5.388,0.498 -11.365,-5.383 -15.781,-7.642 -13.562,3.03 -27.994,5.851 -42.174,9.62 -5.684,1.51 -10.903,4.939 -16.18,7.779 -19.522,10.508 -37.9,26.407 -58.679,30.663 -49.102,10.056 -99.333,14.595 -147.042,21.084 -7.541,-16.017 -13.903,-29.53 -20.265,-43.043 -1.885,0.784 -3.77,1.567 -5.655,2.351 v 40.528 c -1.974,0.275 -3.947,0.55 -5.921,0.825 -6.093,-9.468 -12.187,-18.935 -18.281,-28.403 -2.203,1.189 -4.406,2.378 -6.61,3.567 3.385,9.825 6.769,19.65 10.065,29.219 -45.263,8.094 -89.108,15.933 -132.953,23.775 -54.158,9.686 -108.058,26.871 -167.109,2.765 5.674,9.418 9.084,15.079 16.497,27.382 -24.684,3.443 -46.126,6.433 -67.568,9.424 0,8.036 0,16.073 0,24.109" style="fill:#231916;fill-opacity:1;fill-rule:nonzero;stroke:none" transform="matrix(1.3333333,0,0,-1.3333333,1763.8321,3525.4057)" clip-path="url(#clipPath4)" />
      <path id="path5" d="M 0,0 C -18.663,0.481 -32.625,15.302 -32.401,34.394 -32.171,53.92 -18.336,67.809 0.923,67.848 20.306,67.886 36.092,51.538 35.215,32.333 34.399,14.444 18.158,-0.468 0,0" style="fill:#231916;fill-opacity:1;fill-rule:nonzero;stroke:none" transform="matrix(1.3333333,0,0,-1.3333333,2617.9948,2192.8491)" />
      <path id="path6" d="m 4.0069322,-2.3656429 c 3.5027885,2.05800162 8.5395738,3.398867 13.9932238,3.3932177 11.821592,0.00495 18.598636,-6.1755759 18.600335,-14.9156738 0.0092,-7.407218 -4.409299,-11.722817 -13.041742,-15.00092 -6.487444,-2.481453 -9.469605,-4.338092 -9.472044,-8.442867 -4.6e-4,-3.700695 2.98981,-6.778812 8.332986,-6.788678 4.625155,0.01 8.224783,1.647769 10.184291,2.874906 l 2.250215,-6.584529 c -2.769647,-1.627257 -7.193183,-3.076483 -12.232585,-3.078641 -10.698006,-6.02e-4 -17.1736369,6.587977 -17.1748323,14.598401 -0.00675,5.97403 4.2207201,10.898909 13.1684673,14.090843 6.68657,2.47538 9.246421,4.844212 9.250593,9.164107 0.0024,4.1047753 -3.080576,7.3981364 -9.673807,7.3950953 -4.524849,7.9e-5 -9.2338031,-1.8528571 -11.9207481,-3.595051 z M 94.414227,-23.238392 c 0.08891,-0.928923 0.310864,-2.379839 0.305551,-4.227273 -2.81e-4,-9.144177 -4.330078,-23.438398 -20.566046,-23.439055 -14.509174,-0.0044 -23.353044,11.831651 -23.355301,26.839386 0.0036,15.0179007 9.153599,25.0905975 24.470934,25.0909975 7.931938,0.00566 13.376181,-1.64247141 16.569156,-3.0943491 l -1.549177,-6.4734731 c -3.387761,1.4419567 -7.3021,2.5779036 -13.784857,2.5790791 -9.039531,-0.00567 -16.858838,-5.0465134 -17.054991,-17.2661124 z M 59.5428,-29.712072 c 0.728745,-6.293294 4.732429,-14.720281 13.882434,-14.710395 10.183452,-0.0016 12.660288,8.93873 12.547153,14.70359 z m 54.61626,-32.002715 -0.003,11.942234 -7.71099,0.0028 0.003,6.886837 7.71099,-0.0028 4.8e-4,27.149094 c -0.003,5.863557 0.91605,10.2941836 3.49226,12.9507942 2.16172,2.47545878 5.5502,3.8155639 9.76545,3.8173416 3.49574,-0.00455 6.28004,-0.51982292 8.02333,-1.24886003 L 135.0391,-6.9975573 c -1.14206,0.3169041 -2.87282,0.6200397 -5.2508,0.6187762 -5.03941,-0.00216 -6.78675,-3.4985367 -6.78607,-9.6716939 l 0.001,-26.839493 12.96551,-0.0024 -0.003,-6.886837 -12.96551,0.0024 0.006,-14.294054 z m 75.99841,61.70888801 0.002,-42.88650201 12.03671,0.0032 -0.003,-6.886837 -12.03672,-0.0032 0.005,-2.677415 c 0.003,-7.606344 1.94788,-14.39397 9.65453,-14.380751 2.56694,0.001 4.42231,0.504431 5.77489,1.120421 l 1.23513,-6.988743 c -1.75246,-0.724484 -4.53253,-1.427281 -7.72449,-1.434752 -4.21525,-0.0018 -8.73255,1.331182 -12.131,4.616233 -4.2231,4.014344 -5.75554,10.390084 -5.7566,17.387394 l 0.003,2.361988 -6.99731,-0.0011 0.003,6.886836 6.99731,0.0011 -0.002,42.88650286 z m 26.33477,0.01039753 8.93922,-0.004374849 0.003,-26.529893691 c -0.009,-1.548001 0.2185,-2.988749 0.40586,-4.217229 1.24119,-6.789617 5.76411,-11.624145 12.14222,-11.61937 1.22823,-0.0016 2.16298,0.09748 3.08335,0.312855 l -0.002,-8.535145 c -0.80989,-0.211161 -1.54551,-0.316311 -2.56879,-0.310617 -6.06851,-0.0066 -11.50795,4.218606 -13.77403,10.893275 l -0.40991,-0.0082 -0.32376,-9.755694 -7.90578,-0.0071 c 0.29964,4.623299 0.40795,9.666919 0.41124,15.540642 z M 295.27036,-23.235809 c 0.0889,-0.928923 0.31087,-2.379839 0.30555,-4.227273 -2.8e-4,-9.144177 -4.33007,-23.438398 -20.56604,-23.439055 -14.50918,-0.0044 -23.35305,11.831651 -23.3553,26.839385 0.004,15.0179017 9.1536,25.0905985 24.47093,25.0909985 7.93194,0.00566 13.37618,-1.64247142 16.56916,-3.0943491 l -1.54918,-6.4734731 c -3.38776,1.4419566 -7.3021,2.5779036 -13.78486,2.5790791 -9.03953,-0.00567 -16.85883,-5.0465134 -17.05499,-17.2661124 z m -34.87142,-6.47368 c 0.72874,-6.293294 4.73242,-14.720281 13.88243,-14.710395 10.18345,-0.0016 12.66029,8.93873 12.54715,14.70359 z m 92.56579,6.471215 c 0.0889,-0.928923 0.31086,-2.379839 0.30555,-4.227273 -2.8e-4,-9.144177 -4.33008,-23.438398 -20.56604,-23.439055 -14.50918,-0.0044 -23.35305,11.831651 -23.35531,26.839386 0.004,15.0179007 9.1536,25.0905975 24.47094,25.0909976 7.93194,0.00566 13.37618,-1.64247148 16.56915,-3.0943492 l -1.54917,-6.4734731 c -3.38776,1.4419567 -7.3021,2.5779036 -13.78486,2.5790792 C 326.01546,-5.9686308 318.19615,-11.009475 318,-23.229074 Z m -34.87143,-6.47368 c 0.72875,-6.293294 4.73243,-14.720281 13.88244,-14.710395 10.18345,-0.0016 12.66028,8.93873 12.54715,14.70359 z m 80.53792,50.080887 8.93922,-0.0044 -0.0105,-27.0487868 0.21512,-0.00173 c 2.97891,4.9381334 8.74883,7.8173357 15.32606,7.8160371 11.72712,0.00508 22.62,-8.8451398 22.62575,-26.7454093 -0.004,-15.112381 -9.05502,-25.295675 -21.08591,-25.288727 -8.1209,-0.0054 -13.99428,3.604093 -17.68128,9.661408 l -0.21512,0.0017 -0.40647,-8.533164 -8.1209,-0.0054 c 0.21111,4.728069 0.40969,9.882039 0.41508,16.254322 z m 8.93624,-49.16868 c -0.007,-1.238401 0.30479,-2.578965 0.62457,-3.694242 1.74558,-6.781553 7.49871,-11.213601 13.68203,-11.218747 9.55408,0.0079 14.79501,8.539135 14.80074,18.517633 0.003,11.411686 -5.55217,19.2287556 -15.11642,19.2266768 -6.48276,0.00118 -11.92024,-4.3247258 -13.57816,-10.5872948 -0.2006,-1.12768 -0.41298,-2.370175 -0.41037,-3.708882 z m 76.82786,-22.11237 c -13.77367,0.0063 -24.68714,9.786815 -24.67999,26.437029 -0.003,15.7374087 10.38542,25.6137195 23.86549,25.6136054 12.02072,-0.00112 24.77665,-8.0281559 24.78464,-26.4429794 5.2e-4,-15.222855 -9.67608,-25.601561 -23.97014,-25.607655 z m -0.21209,6.794091 c 10.69801,6.02e-4 14.92282,10.694558 14.92361,19.109061 0.003,11.222727 -6.48518,19.3448 -15.11481,19.3473181 -8.85057,-0.00592 -15.12891,-8.2261901 -15.12422,-19.1291491 -0.002,-9.453778 4.61742,-19.327832 15.31542,-19.32723 z m 41.7666,44.12029622 9.0497,-1.5813e-4 -0.005,-73.01678409 -9.0497,1.58e-4 z m 39.49141,-1.9689e-4 -8.7e-4,-49.77333933 -9.0497,1.59e-4 8.7e-4,49.77333847 z M 560.91609,-69.424411 c -3.29662,-0.0015 -5.65974,2.474018 -5.65705,5.660159 0.003,3.091662 2.25295,5.556831 5.44492,5.564302 3.60039,-0.0105 5.85887,-2.480091 5.76182,-5.57163 -0.003,-3.186142 -2.16442,-5.6616 -5.54969,-5.652831 z m 27.76599,7.709716 -0.003,11.942234 -7.71099,0.0028 0.003,6.886837 7.71099,-0.0028 4.7e-4,27.149094 c -0.003,5.8635563 0.91606,10.2941829 3.49227,12.9507935 2.16172,2.47545882 5.5502,3.8155639 9.76545,3.8173416 3.49574,-0.00455 6.28004,-0.51982288 8.02333,-1.24886 l -0.40129,-6.7802101 c -1.14206,0.3169042 -2.87282,0.6200397 -5.25081,0.6187762 -5.0394,-0.00216 -6.78674,-3.4985367 -6.78606,-9.6716932 l 10e-4,-26.839494 12.96552,-0.0024 -0.003,-6.886837 -12.96551,0.0024 0.006,-14.294054 z m 47.20684,61.7187696 -8.7e-4,-49.7733386 -9.0497,1.58e-4 8.7e-4,49.77333874 z m -4.52516,-69.4264836 c -3.29661,-0.0015 -5.65974,2.474017 -5.65704,5.660158 0.003,3.091662 2.25294,5.556831 5.44491,5.564302 3.60039,-0.0105 5.85887,-2.480091 5.76182,-5.57163 -0.003,-3.186141 -2.16442,-5.6616 -5.54969,-5.65283 z m 59.6526,60.7919206 c -2.57711,1.1124024 -5.965,2.4598795 -11.11488,2.453505 -9.87385,-2.22e-4 -17.2743,-7.0910936 -17.27332,-18.6132536 -0.008,-10.382578 6.16901,-18.812394 17.58069,-18.815629 4.93476,0.0081 8.3375,1.137433 10.48596,2.364324 l 2.06945,-6.994191 c -2.47406,-1.229374 -7.19542,-2.561929 -12.55025,-2.572397 -16.24614,0.0052 -26.73781,11.110747 -26.74838,26.433909 -5.2e-4,15.2228546 9.76449,25.402312 24.79839,25.4030811 6.67171,-0.00142 11.927,-1.64930518 14.28738,-2.880615 z m 54.09322,8.62603817 C 744.48594,-3.4019988 744.27843,-7.6053468 744.27426,-11.925242 l 0.002,-18.61395 c 0.004,-9.984326 -3.6938,-20.372272 -18.91083,-20.362628 -6.28363,-0.0049 -12.25247,1.741302 -16.35814,4.405161 l 2.06163,5.977151 c 3.49279,-2.272061 8.32973,-3.707184 12.96505,-3.703046 10.16746,-0.006 11.29779,7.409934 11.30606,11.524876 l -0.004,1.029107 c -19.22894,-0.108681 -29.92998,6.483948 -29.9332,18.520661 -8.2e-4,7.1862694 5.14812,14.284434 15.22693,14.2887497 7.10195,-0.00489 12.4464,-3.5003296 15.22193,-7.4008672 l 0.30377,-0.012024 0.72912,6.26813946 z M 735.54822,-16.75705 c -2.6e-4,0.918633 -0.20969,1.943647 -0.51372,2.874304 -1.44513,4.2185823 -5.55763,8.3316235 -12.03022,8.3269716 -4.6295,0.00603 -8.54603,-2.7738393 -8.55366,-8.6315686 0.002,-9.658731 11.21367,-11.424841 21.09942,-11.215326 z m 29.51547,16.75967925 9.0497,-1.5813e-4 -0.005,-73.01678412 -9.0497,1.58e-4 z M 823.48192,20.3694 l 8.93922,-0.0044 -0.0105,-27.0487866 0.21512,-0.00173 c 2.97891,4.9381334 8.74883,7.8173357 15.32606,7.8160372 11.72712,0.00508 22.62,-8.8451398 22.62575,-26.7454096 -0.004,-15.112381 -9.05502,-25.295674 -21.08591,-25.288727 -8.1209,-0.0054 -13.99428,3.604093 -17.68128,9.661408 l -0.21512,0.0017 -0.40647,-8.533165 -8.1209,-0.0054 c 0.21111,4.728069 0.40969,9.882039 0.41508,16.254322 z m 8.93624,-49.16868 c -0.007,-1.238401 0.30479,-2.578965 0.62457,-3.694242 1.74558,-6.781552 7.4987,-11.213601 13.68203,-11.218747 9.55408,0.0079 14.79501,8.539135 14.80074,18.517633 0.003,11.411686 -5.55217,19.2287557 -15.11642,19.2266769 -6.48276,0.00118 -11.92024,-4.3247249 -13.57816,-10.5872949 -0.2006,-1.12768 -0.41298,-2.370174 -0.41037,-3.708882 z m 55.74962,28.80182951 8.93923,-0.00437485 0.003,-26.52989366 c -0.009,-1.548001 0.21849,-2.988749 0.40585,-4.217229 1.2412,-6.789617 5.76411,-11.624145 12.14222,-11.61937 1.22824,-0.0016 2.16299,0.09748 3.08335,0.312855 l -0.002,-8.535145 c -0.80989,-0.211161 -1.54552,-0.316311 -2.5688,-0.310617 -6.06851,-0.0066 -11.50794,4.218606 -13.77403,10.893275 l -0.4099,-0.0082 -0.32377,-9.755694 -7.90577,-0.0071 c 0.29963,4.623299 0.40795,9.666919 0.41124,15.540642 z m 49.2617,0.00197692 -8.7e-4,-49.77333843 -9.0497,1.58e-4 8.7e-4,49.77333857 z M 932.90433,-69.421958 c -3.29662,-0.0015 -5.65974,2.474018 -5.65705,5.660159 0.003,3.091662 2.25295,5.556831 5.44492,5.564302 3.60039,-0.0105 5.85887,-2.480091 5.76181,-5.57163 -0.003,-3.186141 -2.16441,-5.6616 -5.54968,-5.652831 z m 22.20648,67.0589069 c 3.50279,2.05800171 8.53958,3.3988671 13.99322,3.3932178 11.8216,0.00495 18.59864,-6.1755759 18.60034,-14.9156737 0.009,-7.407218 -4.4093,-11.722817 -13.04174,-15.00092 -6.48745,-2.481453 -9.46961,-4.338092 -9.47205,-8.442867 -4.6e-4,-3.700695 2.98981,-6.778812 8.33299,-6.788678 4.62516,0.01 8.22478,1.647769 10.18429,2.874906 l 2.25022,-6.584529 c -2.76965,-1.627257 -7.19319,-3.076483 -12.23259,-3.078641 -10.69801,-6.02e-4 -17.17364,6.587977 -17.17483,14.598401 -0.007,5.97403 4.22072,10.898909 13.16847,14.090843 6.68657,2.47538 9.24642,4.844212 9.25059,9.164107 0.002,4.1047752 -3.08058,7.3981363 -9.67381,7.3950951 -4.52485,7.91e-5 -9.2338,-1.852857 -11.92075,-3.5950509 z m 71.47969,-48.5466279 c -13.7737,0.0063 -24.6872,9.786815 -24.68,26.437029 0,15.7374087 10.3854,25.6137195 23.8655,25.6136054 12.0207,-0.00112 24.7766,-8.0281559 24.7846,-26.4429794 6e-4,-15.222855 -9.6761,-25.601561 -23.9701,-25.607655 z m -0.2121,6.794091 c 10.698,6.02e-4 14.9228,10.694558 14.9236,19.109061 0,11.222727 -6.4852,19.3448 -15.1148,19.3473181 -8.8506,-0.00592 -15.1289,-8.2261901 -15.1242,-19.1291491 0,-9.453778 4.6174,-19.327832 15.3154,-19.32723 z m 41.7666,44.12029624 9.0497,-1.5814e-4 V -29.926606 c 0,-1.527666 0.2024,-3.087568 0.621,-4.218962 1.54,-5.042859 6.1567,-9.242315 12.1249,-9.245728 8.5352,-0.0024 11.5236,6.672698 11.5224,14.683122 l -4e-4,28.70292192 9.0396,0.005669238 5e-4,-29.716035158 c 0.01,-17.076116 -10.6849,-21.18732 -17.5776,-21.194332 -8.2255,5.38e-4 -13.9827,4.63754 -16.449,9.360375 l -0.2152,0.0017 -0.5151,-8.227781 -8.0104,-0.0012 c 0.3019,4.108745 0.4106,8.328211 0.4144,13.47226 z M 1171.4003,-23.237681 c 0.089,-0.928924 0.3108,-2.379839 0.3055,-4.227273 -3e-4,-9.144177 -4.3301,-23.438398 -20.566,-23.439056 -14.5092,-0.0044 -23.3531,11.831652 -23.3553,26.839386 0,15.0179016 9.1536,25.0905984 24.4709,25.0909984 7.9319,0.00566 13.3762,-1.64247142 16.5692,-3.0943491 l -1.5492,-6.4734731 c -3.3878,1.4419566 -7.3021,2.5779036 -13.7849,2.5790791 -9.0395,-0.00567 -16.8588,-5.0465133 -17.055,-17.2661123 z m -34.8715,-6.47368 c 0.7288,-6.293295 4.7325,-14.720281 13.8825,-14.710395 10.1834,-0.0016 12.6603,8.93873 12.5471,14.70359 z m 52.5614,29.71407723 8.9393,-0.00437485 V -26.531552 c -0.01,-1.548001 0.2185,-2.988749 0.4059,-4.217229 1.2412,-6.789617 5.7641,-11.624145 12.1422,-11.61937 1.2282,-0.0016 2.163,0.09748 3.0833,0.312854 v -8.535144 c -0.8099,-0.211161 -1.5455,-0.316311 -2.5688,-0.310618 -6.0685,-0.0066 -11.5079,4.218607 -13.774,10.893276 l -0.4099,-0.0082 -0.3238,-9.755694 -7.9057,-0.0071 c 0.2996,4.623299 0.4079,9.666918 0.4112,15.540642 z m 36.2953,-2.36565683 c 3.5028,2.05800164 8.5396,3.398867 13.9932,3.3932177 11.8216,0.00495 18.5987,-6.1755759 18.6004,-14.9156741 0.01,-7.407217 -4.4093,-11.722817 -13.0418,-15.00092 -6.4874,-2.481453 -9.4696,-4.338092 -9.472,-8.442866 -5e-4,-3.700695 2.9898,-6.778813 8.333,-6.788679 4.6251,0.01 8.2248,1.647769 10.1843,2.874907 l 2.2502,-6.58453 c -2.7697,-1.627257 -7.1932,-3.076483 -12.2326,-3.07864 -10.698,-6.03e-4 -17.1736,6.587977 -17.1748,14.5984 -0.01,5.974031 4.2207,10.89891 13.1684,14.090843 6.6866,2.47538 9.2464,4.844212 9.2506,9.164108 0,4.1047746 -3.0806,7.3981358 -9.6738,7.3950946 -4.5248,7.9e-5 -9.2338,-1.852857 -11.9207,-3.595051 z m 0,0" style="fill:#231916;fill-opacity:1;fill-rule:nonzero;stroke:none" aria-label="set fr&#10;ee political pr&#10;isoners" transform="matrix(1.156795,0.66302576,-0.66302576,1.156795,85.6596,564.93533)" />
      <path id="path7" d="m 0,0 c 2.011,-3.523 5.719,-7.188 10.448,-9.899 10.261,-5.881 19.218,-3.904 23.565,3.68 3.683,6.425 1.994,12.372 -3.865,19.523 -4.394,5.363 -6.061,8.452 -4.015,12.022 1.841,3.212 5.963,4.405 10.602,1.746 4.015,-2.301 6.32,-5.519 7.402,-7.561 l 5.236,4.585 c -1.591,2.809 -4.712,6.257 -9.084,8.762 -9.279,5.32 -18.174,2.83 -22.163,-4.129 C 15.16,23.554 16.364,17.174 22.541,9.959 27.114,4.493 28.167,1.163 26.02,-2.585 23.974,-6.154 19.661,-7.476 13.95,-4.202 10.024,-1.952 6.84,2.007 5.39,4.853 Z" style="fill:none;stroke:#231916;stroke-width:3;stroke-linecap:butt;stroke-linejoin:miter;stroke-miterlimit:10;stroke-dasharray:none;stroke-opacity:1" transform="matrix(1.3333333,0,0,-1.3333333,91.8672,564.85853)" />
      <path id="path8" d="m 0,0 c 0.549,0.752 1.444,1.899 2.365,3.505 4.551,7.941 7.912,22.492 -6.186,30.572 -12.581,7.211 -26.135,1.348 -33.602,-11.68 -7.467,-13.026 -4.538,-26.322 8.757,-33.942 6.871,-3.938 12.418,-5.221 15.9,-5.557 l 1.884,6.388 c -3.661,0.439 -7.614,1.401 -13.235,4.622 -7.852,4.501 -12.127,12.76 -6.22,23.48 z m -27.026,22.958 c 3.744,5.085 11.418,10.407 19.359,5.855 8.833,-5.063 6.525,-14.052 3.573,-18.998 z" style="fill:none;stroke:#231916;stroke-width:3;stroke-linecap:butt;stroke-linejoin:miter;stroke-miterlimit:10;stroke-dasharray:none;stroke-opacity:1" transform="matrix(1.3333333,0,0,-1.3333333,210.28387,600.64493)" />
      <path id="path9" d="m 0,0 -5.932,-10.35 -6.693,3.836 -3.426,-5.979 6.692,-3.835 -13.501,-23.556 c -2.915,-5.086 -4.311,-9.384 -3.41,-12.982 0.646,-3.216 2.926,-6.063 6.584,-8.159 3.034,-1.739 5.699,-2.674 7.574,-2.919 l 3.018,6.094 c -1.135,0.295 -2.805,0.896 -4.858,2.073 -4.371,2.506 -4.15,6.408 -1.081,11.762 l 13.348,23.289 11.242,-6.444 3.427,5.978 -11.243,6.443 7.109,12.403 z" style="fill:none;stroke:#231916;stroke-width:3;stroke-linecap:butt;stroke-linejoin:miter;stroke-miterlimit:10;stroke-dasharray:none;stroke-opacity:1" transform="matrix(1.3333333,0,0,-1.3333333,258.6276,569.242)" />
      <path id="path10" d="m 0,0 21.326,37.208 10.439,-5.983 3.427,5.977 -10.44,5.984 1.33,2.32 c 3.784,6.602 8.855,11.519 15.547,7.684 2.231,-1.278 3.581,-2.645 4.434,-3.845 l 4.548,5.454 c -1.159,1.493 -3.21,3.499 -5.976,5.085 -3.658,2.096 -8.249,3.186 -12.83,2.019 C 26.153,60.52 21.643,55.755 18.166,49.688 L 16.989,47.635 10.922,51.113 7.496,45.135 13.563,41.657 -7.763,4.449 Z" style="fill:none;stroke:#231916;stroke-width:3;stroke-linecap:butt;stroke-linejoin:miter;stroke-miterlimit:10;stroke-dasharray:none;stroke-opacity:1" transform="matrix(1.3333333,0,0,-1.3333333,305.63147,691.01347)" />
      <path id="path11" d="m 0,0 7.762,-4.449 13.195,23.02 c 0.767,1.338 1.661,2.485 2.454,3.453 4.446,5.276 10.776,7.22 16.308,4.049 1.071,-0.614 1.822,-1.163 2.523,-1.802 l 4.245,7.406 c -0.612,0.588 -1.185,1.035 -2.078,1.546 -5.264,3.017 -12.09,2.07 -17.377,-2.605 l -0.357,0.204 4.591,8.631 -6.871,3.938 C 22.362,39.222 19.945,34.799 17.03,29.712 Z" style="fill:none;stroke:#231916;stroke-width:3;stroke-linecap:butt;stroke-linejoin:miter;stroke-miterlimit:10;stroke-dasharray:none;stroke-opacity:1" transform="matrix(1.3333333,0,0,-1.3333333,336.0872,708.4692)" />
      <path id="path12" d="m 0,0 c 0.549,0.753 1.444,1.899 2.365,3.506 4.551,7.941 7.912,22.491 -6.186,30.571 -12.581,7.211 -26.135,1.349 -33.602,-11.679 -7.467,-13.027 -4.538,-26.323 8.757,-33.943 6.871,-3.937 12.418,-5.221 15.9,-5.557 l 1.884,6.388 c -3.661,0.44 -7.614,1.401 -13.235,4.623 -7.852,4.5 -12.127,12.759 -6.22,23.48 z m -27.026,22.959 c 3.744,5.085 11.418,10.406 19.359,5.855 8.833,-5.063 6.525,-14.052 3.573,-18.999 z" style="fill:none;stroke:#231916;stroke-width:3;stroke-linecap:butt;stroke-linejoin:miter;stroke-miterlimit:10;stroke-dasharray:none;stroke-opacity:1" transform="matrix(1.3333333,0,0,-1.3333333,442.62853,733.8156)" />
      <path id="path13" d="m 0,0 c 0.549,0.753 1.444,1.899 2.365,3.505 4.551,7.941 7.912,22.492 -6.186,30.572 -12.581,7.211 -26.135,1.349 -33.602,-11.68 -7.467,-13.026 -4.538,-26.322 8.757,-33.942 6.871,-3.937 12.418,-5.221 15.9,-5.557 l 1.884,6.388 c -3.661,0.44 -7.614,1.401 -13.235,4.622 -7.852,4.501 -12.127,12.76 -6.22,23.48 z m -27.026,22.958 c 3.744,5.086 11.418,10.407 19.359,5.855 8.833,-5.062 6.525,-14.052 3.572,-18.998 z" style="fill:none;stroke:#231916;stroke-width:3;stroke-linecap:butt;stroke-linejoin:miter;stroke-miterlimit:10;stroke-dasharray:none;stroke-opacity:1" transform="matrix(1.3333333,0,0,-1.3333333,509.3692,772.06813)" />
      <path id="path14" d="m 0,0 7.762,-4.449 13.451,23.467 0.178,-0.102 C 21.524,13.15 25.088,7.787 30.799,4.515 40.971,-1.316 54.828,0.937 63.726,16.463 c 7.518,13.115 4.729,26.449 -5.711,32.433 -7.049,4.041 -13.924,3.833 -20.154,0.409 l -0.179,0.102 3.889,7.611 -7.05,4.041 C 32.347,56.852 29.969,52.287 26.798,46.755 Z m 32.208,38.201 c 0.614,1.071 1.546,2.078 2.377,2.906 4.892,5.02 12.087,5.993 17.441,2.924 8.298,-4.756 8.604,-14.77 3.643,-23.426 C 49.993,10.701 41.288,6.682 32.99,11.438 c -5.622,3.221 -8.202,9.68 -6.511,15.941 0.384,1.084 0.819,2.257 1.484,3.417 z" style="fill:none;stroke:#231916;stroke-width:3;stroke-linecap:butt;stroke-linejoin:miter;stroke-miterlimit:10;stroke-dasharray:none;stroke-opacity:1" transform="matrix(1.3333333,0,0,-1.3333333,533.278,852.7856)" />
      <path id="path15" d="m 0,0 c -11.957,6.854 -26.273,3.798 -34.558,-10.657 -7.824,-13.653 -3.722,-27.383 7.967,-34.082 10.439,-5.984 25.493,-5.366 34.647,10.606 C 15.625,-20.928 12.403,-7.108 0,0 Z m -3.553,-5.787 c 9.279,-5.318 7.619,-16.695 3.425,-24.012 -5.574,-9.724 -15.236,-13.553 -22.731,-9.257 -7.673,4.399 -9.025,14.657 -3.604,24.115 4.705,8.209 13.63,14.473 22.91,9.154 z" style="fill:none;stroke:#231916;stroke-width:3;stroke-linecap:butt;stroke-linejoin:miter;stroke-miterlimit:10;stroke-dasharray:none;stroke-opacity:1" transform="matrix(1.3333333,0,0,-1.3333333,679.75093,827.20747)" />
      <path id="path16" d="m 0,0 7.852,-4.5 36.31,63.352 -7.852,4.5 z" style="fill:none;stroke:#231916;stroke-width:3;stroke-linecap:butt;stroke-linejoin:miter;stroke-miterlimit:10;stroke-dasharray:none;stroke-opacity:1" transform="matrix(1.3333333,0,0,-1.3333333,694.06147,913.64493)" />
      <path id="path17" d="M 0,0 24.752,43.187 16.9,47.688 -7.852,4.501 Z m 30.594,62.479 c -2.855,1.637 -6.135,0.671 -7.72,-2.094 -1.535,-2.678 -0.799,-5.944 1.967,-7.53 3.123,-1.79 6.314,-0.773 7.759,1.956 1.585,2.765 0.938,5.981 -2.006,7.668 z" style="fill:none;stroke:#231916;stroke-width:3;stroke-linecap:butt;stroke-linejoin:miter;stroke-miterlimit:10;stroke-dasharray:none;stroke-opacity:1" transform="matrix(1.3333333,0,0,-1.3333333,739.74573,939.82987)" />
      <path id="path18" d="m 0,0 -5.932,-10.351 -6.692,3.836 -3.427,-5.978 6.692,-3.835 -13.501,-23.557 c -2.915,-5.086 -4.311,-9.383 -3.41,-12.981 0.646,-3.215 2.926,-6.063 6.584,-8.159 3.034,-1.74 5.699,-2.674 7.574,-2.919 l 3.018,6.093 c -1.135,0.295 -2.805,0.897 -4.858,2.074 -4.371,2.506 -4.15,6.409 -1.081,11.762 l 13.348,23.288 11.243,-6.444 3.426,5.979 -11.243,6.443 7.109,12.402 z" style="fill:none;stroke:#231916;stroke-width:3;stroke-linecap:butt;stroke-linejoin:miter;stroke-miterlimit:10;stroke-dasharray:none;stroke-opacity:1" transform="matrix(1.3333333,0,0,-1.3333333,807.54427,883.8572)" />
      <path id="path19" d="M 0,0 24.752,43.186 16.9,47.687 -7.852,4.5 Z m 30.594,62.479 c -2.855,1.636 -6.135,0.67 -7.72,-2.095 -1.534,-2.677 -0.799,-5.944 1.968,-7.53 3.123,-1.789 6.313,-0.773 7.758,1.956 1.585,2.765 0.939,5.981 -2.006,7.669 z" style="fill:none;stroke:#231916;stroke-width:3;stroke-linecap:butt;stroke-linejoin:miter;stroke-miterlimit:10;stroke-dasharray:none;stroke-opacity:1" transform="matrix(1.3333333,0,0,-1.3333333,821.238,986.53693)" />
      <path id="path20" d="m 0,0 c -2.793,0.297 -6.403,0.825 -10.865,3.382 -8.565,4.91 -11.461,14.748 -5.733,24.742 5.165,9.012 14.713,13.26 24.617,7.583 4.283,-2.455 6.665,-5.124 7.925,-7.269 l 5.262,5.045 c -1.528,2.298 -4.967,5.81 -9.607,8.469 -14.098,8.08 -28.723,3.66 -36.343,-9.635 -7.569,-13.205 -4.155,-26.896 8.872,-34.363 5.8,-3.324 11.169,-4.505 13.834,-4.61 z" style="fill:none;stroke:#231916;stroke-width:3;stroke-linecap:butt;stroke-linejoin:miter;stroke-miterlimit:10;stroke-dasharray:none;stroke-opacity:1" transform="matrix(1.3333333,0,0,-1.3333333,890.7328,1013.0916)" />
      <path id="path21" d="m 0,0 c 1.152,3.251 3.071,7.012 5.219,10.76 l 9.256,16.149 c 4.961,8.655 6.914,19.508 -6.292,27.077 -5.443,3.119 -11.487,4.57 -16.386,4.295 l -1.182,-6.198 c 4.159,0.224 9.069,-0.931 13.084,-3.231 8.834,-5.064 6.133,-12.05 4.087,-15.62 L 7.275,32.34 c -16.635,9.653 -29.187,9.261 -35.171,-1.179 -3.58,-6.246 -2.647,-14.959 6.097,-19.972 6.157,-3.528 12.536,-3.154 16.888,-1.144 L -4.643,9.892 -7.138,4.091 Z m 0.038,19.3 c -0.461,-0.804 -1.15,-1.593 -1.878,-2.243 -3.346,-2.942 -8.961,-4.465 -14.582,-1.244 -4.015,2.302 -6.025,6.654 -3.11,11.74 4.807,8.387 15.402,4.33 23.865,-0.758 z" style="fill:none;stroke:#231916;stroke-width:3;stroke-linecap:butt;stroke-linejoin:miter;stroke-miterlimit:10;stroke-dasharray:none;stroke-opacity:1" transform="matrix(1.3333333,0,0,-1.3333333,947.58307,1058.9523)" />
      <path id="path22" d="m 0,0 7.852,-4.5 36.31,63.352 -7.852,4.5 z" style="fill:none;stroke:#231916;stroke-width:3;stroke-linecap:butt;stroke-linejoin:miter;stroke-miterlimit:10;stroke-dasharray:none;stroke-opacity:1" transform="matrix(1.3333333,0,0,-1.3333333,970.6624,1072.1815)" />
      <path id="path23" d="m 0,0 7.763,-4.449 13.45,23.467 0.178,-0.103 c 0.133,-5.766 3.698,-11.128 9.408,-14.4 10.172,-5.83 24.029,-3.578 32.927,11.947 7.518,13.117 4.729,26.45 -5.711,32.434 -7.049,4.041 -13.924,3.833 -20.154,0.41 l -0.179,0.101 3.889,7.611 -7.05,4.04 C 32.347,56.851 29.969,52.287 26.798,46.755 Z m 32.208,38.201 c 0.614,1.071 1.546,2.077 2.377,2.905 4.892,5.021 12.088,5.994 17.442,2.925 8.297,-4.756 8.603,-14.77 3.643,-23.426 -5.677,-9.904 -14.382,-13.923 -22.68,-9.167 -5.622,3.221 -8.202,9.68 -6.511,15.941 0.384,1.084 0.82,2.257 1.484,3.417 z" style="fill:none;stroke:#231916;stroke-width:3;stroke-linecap:butt;stroke-linejoin:miter;stroke-miterlimit:10;stroke-dasharray:none;stroke-opacity:1" transform="matrix(1.3333333,0,0,-1.3333333,1024.7333,1134.4667)" />
      <path id="path24" d="m 0,0 7.763,-4.449 13.194,23.02 c 0.767,1.338 1.661,2.486 2.454,3.453 4.446,5.277 10.776,7.22 16.308,4.049 1.071,-0.613 1.822,-1.163 2.523,-1.802 l 4.245,7.406 c -0.612,0.588 -1.185,1.035 -2.078,1.547 -5.264,3.017 -12.09,2.069 -17.377,-2.606 l -0.357,0.205 4.591,8.63 -6.87,3.938 C 22.362,39.222 19.945,34.799 17.03,29.712 Z" style="fill:none;stroke:#231916;stroke-width:3;stroke-linecap:butt;stroke-linejoin:miter;stroke-miterlimit:10;stroke-dasharray:none;stroke-opacity:1" transform="matrix(1.3333333,0,0,-1.3333333,1113.0648,1153.8)" />
      <path id="path25" d="M 0,0 24.752,43.187 16.9,47.688 -7.852,4.501 Z m 30.594,62.479 c -2.855,1.637 -6.135,0.671 -7.72,-2.094 -1.534,-2.678 -0.798,-5.944 1.968,-7.53 3.123,-1.79 6.313,-0.773 7.758,1.956 1.585,2.765 0.939,5.981 -2.006,7.668 z" style="fill:none;stroke:#231916;stroke-width:3;stroke-linecap:butt;stroke-linejoin:miter;stroke-miterlimit:10;stroke-dasharray:none;stroke-opacity:1" transform="matrix(1.3333333,0,0,-1.3333333,1170.0511,1186.4627)" />
      <path id="path26" d="m 0,0 c 2.011,-3.523 5.718,-7.188 10.447,-9.899 10.261,-5.881 19.219,-3.904 23.566,3.68 3.682,6.425 1.994,12.372 -3.865,19.523 -4.394,5.363 -6.061,8.453 -4.015,12.021 1.841,3.213 5.962,4.406 10.602,1.747 4.015,-2.301 6.32,-5.519 7.402,-7.561 l 5.236,4.586 c -1.591,2.808 -4.712,6.256 -9.084,8.761 -9.28,5.32 -18.174,2.83 -22.163,-4.129 C 15.159,23.554 16.364,17.175 22.541,9.959 27.113,4.493 28.167,1.163 26.02,-2.585 23.974,-6.154 19.661,-7.476 13.95,-4.202 10.024,-1.952 6.84,2.007 5.389,4.854 Z" style="fill:none;stroke:#231916;stroke-width:3;stroke-linecap:butt;stroke-linejoin:miter;stroke-miterlimit:10;stroke-dasharray:none;stroke-opacity:1" transform="matrix(1.3333333,0,0,-1.3333333,1192.0807,1195.4536)" />
      <path id="path27" d="m 0,0 c -11.957,6.854 -26.273,3.798 -34.558,-10.657 -7.824,-13.653 -3.722,-27.383 7.967,-34.082 10.439,-5.985 25.492,-5.365 34.647,10.605 C 15.625,-20.928 12.403,-7.108 0,0 Z m -3.553,-5.786 c 9.279,-5.319 7.618,-16.695 3.425,-24.012 -5.574,-9.726 -15.236,-13.554 -22.731,-9.258 -7.673,4.399 -9.025,14.657 -3.604,24.116 4.705,8.208 13.63,14.472 22.91,9.154 z" style="fill:none;stroke:#231916;stroke-width:3;stroke-linecap:butt;stroke-linejoin:miter;stroke-miterlimit:10;stroke-dasharray:none;stroke-opacity:1" transform="matrix(1.3333333,0,0,-1.3333333,1306.9492,1186.6905)" />
      <path id="path28" d="m 0,0 7.852,-4.501 14.882,25.966 c 0.767,1.338 1.713,2.574 2.632,3.351 3.844,3.605 9.956,4.962 15.132,1.996 7.405,-4.245 6.669,-11.528 2.679,-18.488 l -14.268,-24.893 7.852,-4.501 14.78,25.787 c 8.489,14.811 1.255,23.699 -4.723,27.126 -7.138,4.091 -14.436,2.939 -18.93,0.062 l -0.178,0.103 3.645,7.393 -6.96,3.99 C 22.617,39.668 20.61,35.958 18.053,31.497 Z" style="fill:none;stroke:#231916;stroke-width:3;stroke-linecap:butt;stroke-linejoin:miter;stroke-miterlimit:10;stroke-dasharray:none;stroke-opacity:1" transform="matrix(1.3333333,0,0,-1.3333333,1321.2601,1273.1281)" />
      <path id="path29" d="m 0,0 c 0.549,0.752 1.444,1.899 2.365,3.506 4.551,7.941 7.912,22.491 -6.186,30.571 -12.581,7.211 -26.136,1.349 -33.602,-11.679 -7.467,-13.027 -4.538,-26.323 8.757,-33.943 6.871,-3.937 12.418,-5.221 15.9,-5.557 l 1.883,6.389 c -3.66,0.439 -7.614,1.4 -13.235,4.621 -7.852,4.501 -12.126,12.76 -6.219,23.481 z m -27.026,22.959 c 3.744,5.085 11.418,10.406 19.359,5.855 8.833,-5.063 6.525,-14.052 3.573,-18.999 z" style="fill:none;stroke:#231916;stroke-width:3;stroke-linecap:butt;stroke-linejoin:miter;stroke-miterlimit:10;stroke-dasharray:none;stroke-opacity:1" transform="matrix(1.3333333,0,0,-1.3333333,1456.1152,1314.7023)" />
      <path id="path30" d="m 0,0 7.763,-4.449 13.194,23.02 c 0.767,1.339 1.661,2.486 2.454,3.454 4.446,5.276 10.776,7.219 16.308,4.048 1.071,-0.613 1.822,-1.163 2.523,-1.802 l 4.245,7.407 c -0.612,0.587 -1.185,1.034 -2.078,1.546 -5.264,3.016 -12.09,2.069 -17.377,-2.606 l -0.357,0.205 4.591,8.63 -6.87,3.938 C 22.362,39.222 19.945,34.799 17.03,29.713 Z" style="fill:none;stroke:#231916;stroke-width:3;stroke-linecap:butt;stroke-linejoin:miter;stroke-miterlimit:10;stroke-dasharray:none;stroke-opacity:1" transform="matrix(1.3333333,0,0,-1.3333333,1461.1664,1353.3169)" />
      <path id="path31" d="m 0,0 c 2.011,-3.523 5.719,-7.189 10.448,-9.899 10.261,-5.882 19.219,-3.905 23.566,3.68 3.682,6.424 1.993,12.371 -3.866,19.523 -4.394,5.363 -6.061,8.452 -4.015,12.021 1.841,3.212 5.962,4.405 10.602,1.747 4.015,-2.301 6.32,-5.519 7.402,-7.561 l 5.236,4.585 c -1.591,2.808 -4.712,6.257 -9.083,8.762 -9.28,5.319 -18.175,2.83 -22.164,-4.129 C 15.16,23.554 16.364,17.174 22.541,9.959 27.113,4.492 28.167,1.162 26.02,-2.586 23.974,-6.154 19.661,-7.476 13.951,-4.203 10.024,-1.952 6.841,2.007 5.39,4.853 Z" style="fill:none;stroke:#231916;stroke-width:3;stroke-linecap:butt;stroke-linejoin:miter;stroke-miterlimit:10;stroke-dasharray:none;stroke-opacity:1" transform="matrix(1.3333333,0,0,-1.3333333,1504.7299,1374.6503)" />
    </g></svg>