<?xml version='1.0' encoding='utf-8'?>
<svg xmlns="http://www.w3.org/2000/svg" version="1.1" width="455.309" height="601.711" viewBox="248.033 1722.460 455.309 601.711"><g id="object"><path id="path59" d="M 0,0 C 1.3,-0.271 2.599,-0.543 3.899,-0.814 2.088,-38.537 0.276,-76.259 -1.627,-115.876 H -60.779 C -39.451,-75.214 -19.725,-37.607 0,0 m 136.621,-209.046 v 89.69 c -35.307,3.609 -35.298,3.609 -35.27,38.803 0.054,67.627 -0.697,135.27 0.616,202.872 0.406,20.88 -6.5,26.798 -26.392,25.53 -24.345,-1.552 -48.911,-1.278 -73.291,-0.036 -16.66,0.849 -26.27,-4.662 -34.651,-19.667 -50.406,-90.252 -101.554,-180.097 -153.371,-269.547 -12.892,-22.255 -11.068,-44.253 -7.537,-69.712 H -4.668 c 0,-22.488 0.648,-42.675 -0.219,-62.797 -0.617,-14.323 3.685,-20.961 19.14,-20.319 22.776,0.947 45.633,0.801 68.427,0.135 13.6,-0.398 19.209,4.641 18.777,18.435 -0.655,20.894 -0.171,41.824 -0.171,63.625 13.455,1.138 23.69,2.003 35.335,2.988" style="fill:#231916;fill-opacity:1;fill-rule:nonzero;stroke:none" transform="matrix(1.3333333,0,0,-1.3333333,515.1812,1925.8108)" />
      </g></svg>