<?xml version='1.0' encoding='utf-8'?>
<svg xmlns="http://www.w3.org/2000/svg" version="1.1" width="52.734" height="101.541" viewBox="1555.120 4360.900 52.734 101.541"><g id="object"><path id="path160" d="m 0,0 c 4.791,-1.059 9.265,0.199 10.908,5.119 1.8,5.39 -1.293,9.668 -5.756,12.454 -7.796,4.865 -13.418,10.988 -14.327,20.605 -1.18,12.491 10.125,21.817 21.958,18.346 4.075,-1.196 5.413,-3.805 5.049,-7.274 C 17.32,44.369 13.948,47.628 11.886,47.762 7.813,48.025 4.427,47.359 2.5,43.251 0.622,39.245 1.519,35.87 4.679,33.016 7.486,30.48 10.333,27.982 13.271,25.6 22.228,18.337 23.272,7.252 18.435,-2.495 15.401,-8.607 1.576,-12.249 -3.769,-8.172 -6.032,-6.446 -6.821,-3.633 -6.145,-1.128 -5.092,2.782 -2.11,-1.143 0,0" style="fill:#c33c36;fill-opacity:1;fill-rule:nonzero;stroke:none" transform="matrix(1.3333333,0,0,-1.3333333,1573.4644,4443.2388)" />
      </g></svg>