<?xml version='1.0' encoding='utf-8'?>
<svg xmlns="http://www.w3.org/2000/svg" version="1.1" width="68.198" height="100.753" viewBox="730.988 3956.710 68.198 100.753"><g id="object"><path id="path84" d="m 0,0 c 0,7.922 0.216,15.851 -0.064,23.763 -0.252,7.107 1.576,9.093 8.525,8.523 2.893,-0.238 4.274,-1.385 4.23,-4.39 -0.274,-18.564 0.989,-37.135 -0.276,-55.694 -0.193,-2.827 0.009,-5.919 -4.226,-5.998 -3.262,-0.061 -5.908,-0.632 -8.04,3.576 -5.183,10.228 -7.809,21.605 -15.357,32.1 -0.414,-9.241 -0.941,-17.607 -0.429,-26.104 0.252,-4.167 1.341,-9.63 -5.94,-9.582 -5.021,0.034 -7.03,2.112 -6.941,7.389 0.251,14.733 0.351,29.473 -0.604,44.205 -0.24,3.702 0.706,7.5 1.273,11.228 0.539,3.548 3.776,3.308 6.131,3.631 3.961,0.544 6.018,-2.555 7.445,-5.485 3.28,-6.737 6.442,-13.563 9.06,-20.573 C -4.185,3.839 -2.039,2.295 0,0" style="fill:#494f57;fill-opacity:1;fill-rule:nonzero;stroke:none" transform="matrix(1.3333333,0,0,-1.3333333,775.86827,4006.3232)" />
      </g></svg>