<?xml version='1.0' encoding='utf-8'?>
<svg xmlns="http://www.w3.org/2000/svg" version="1.1" width="697.992" height="67.031" viewBox="295.770 4112.880 697.992 67.031"><g id="object"><path id="path54" d="M 24.328117,-22.206397 H 9.3281172 v -12.1875 H 25.183586 v -4.183594 H 4.3476484 V 6.34375e-4 H 26.039055 V -4.1829594 H 9.3281172 V -18.081397 H 24.328117 Z m 26.666016,-18.433594 v 16.546875 h -0.117188 c -1.253906,-2.238281 -4.113281,-4.242187 -8.355468,-4.242187 -6.75,0 -12.46875,5.671875 -12.410157,14.882812 0,8.4140629 5.144532,14.08593787 11.847657,14.08593787 4.511718,0 7.898437,-2.35546877 9.433593,-5.43749997 h 0.117188 L 51.744133,6.34375e-4 H 56.26757 C 56.091789,-1.8860844 56.033195,-4.6868656 56.033195,-7.1595219 V -40.639991 Z m 0,29.027344 c 0,0.796875 -0.05859,1.488281 -0.222656,2.1679689 -0.914063,3.7734375 -4.007813,6.0117187 -7.382813,6.0117187 -5.4375,0 -8.191406,-4.640625 -8.191406,-10.2421876 0,-6.128906 3.09375,-10.710937 8.296875,-10.710937 3.785156,0 6.527344,2.636718 7.277344,5.847656 0.164062,0.621094 0.222656,1.488281 0.222656,2.109375 z m 36.580078,-16.089844 h -5.039063 v 17.003907 c 0,0.9140621 -0.175781,1.8281246 -0.457031,2.5664059 -0.914062,2.2382812 -3.269531,4.5820312 -6.644531,4.5820312 -4.582031,0 -6.175781,-3.5507812 -6.175781,-8.8125001 v -15.339844 h -5.039063 v 16.195313 c 0,9.7382811 5.203125,12.14062487 9.5625,12.14062487 4.921875,0 7.839844,-2.91796877 9.152344,-5.15624997 h 0.117187 l 0.28125,4.523437475 h 4.464844 C 87.621086,-2.1790531 87.574211,-4.6868656 87.574211,-7.5579594 Z M 115.84277,6.34375e-4 C 115.50292,-1.8860844 115.38573,-4.2298344 115.38573,-6.6438969 V -17.003272 c 0,-5.542969 -2.0625,-11.332031 -10.53515,-11.332031 -3.48047,0 -6.808596,0.972656 -9.093752,2.460937 l 1.148438,3.328125 c 1.945312,-1.265625 4.628904,-2.0625 7.207034,-2.0625 5.66015,0 6.29297,4.125 6.29297,6.410157 v 0.574218 c -10.699223,-0.05859 -16.652348,3.597657 -16.652348,10.3007816 0,4.0078125 2.859375,7.95703127 8.472658,7.95703127 3.94922,0 6.92578,-1.94531247 8.47265,-4.12499997 h 0.16407 l 0.39843,3.492187475 z M 110.52245,-9.3274906 c 0,0.515625 -0.11718,1.0898437 -0.28125,1.6054687 -0.80859,2.34375 -3.09375,4.6289063 -6.70312,4.6289063 -2.57813,0 -4.746096,-1.546875 -4.746096,-4.8046875 0,-5.3789059 6.234376,-6.3515629 11.730466,-6.2343749 z m 12.99903,9.328124975 h 4.96875 V -14.764991 c 0,-0.855468 0.11718,-1.664062 0.23437,-2.34375 0.69141,-3.785156 3.19922,-6.46875 6.75,-6.46875 0.69141,0 1.20703,0.05859 1.72266,0.164063 v -4.746094 c -0.45703,-0.117187 -0.85547,-0.175781 -1.42969,-0.175781 -3.375,0 -6.41016,2.355469 -7.67578,6.070312 h -0.22266 l -0.17578,-5.4375 h -4.40625 c 0.17578,2.578125 0.23438,5.378907 0.23438,8.648438 z M 160.54394,-40.639991 v 16.546875 h -0.11719 c -1.25391,-2.238281 -4.11328,-4.242187 -8.35547,-4.242187 -6.75,0 -12.46875,5.671875 -12.41015,14.882812 0,8.4140629 5.14453,14.08593787 11.84765,14.08593787 4.51172,0 7.89844,-2.35546877 9.4336,-5.43749997 h 0.11718 l 0.23438,4.804687475 h 4.52344 C 165.64159,-1.8860844 165.583,-4.6868656 165.583,-7.1595219 V -40.639991 Z m 0,29.027344 c 0,0.796875 -0.0586,1.488281 -0.22266,2.1679689 -0.91406,3.7734375 -4.00781,6.0117187 -7.38281,6.0117187 -5.4375,0 -8.19141,-4.640625 -8.19141,-10.2421876 0,-6.128906 3.09375,-10.710937 8.29688,-10.710937 3.78515,0 6.52734,2.636718 7.27734,5.847656 0.16406,0.621094 0.22266,1.488281 0.22266,2.109375 z m 25.13379,-16.722656 c -7.67578,0 -13.73438,5.4375 -13.73438,14.71875 0,8.7539061 5.77735,14.24999987 13.27735,14.24999987 6.6914,0 13.79296,-4.46484377 13.79296,-14.70703087 0,-8.472657 -5.3789,-14.261719 -13.33593,-14.261719 z m -0.11719,3.785156 c 5.95312,0 8.29687,5.953125 8.29687,10.640625 0,6.2460939 -3.60937,10.7578126 -8.41406,10.7578126 -4.92187,0 -8.41406,-4.5703125 -8.41406,-10.6406246 0,-5.261719 2.57812,-10.757813 8.53125,-10.757813 z m 30.16113,22.6640626 c 2.0625,1.37109377 6.12891,2.46093752 9.84375,2.46093752 9.10547,0 13.51172,-5.15625002 13.51172,-11.10937512 0,-5.660156 -3.31641,-8.8125 -9.84375,-11.332031 -5.32031,-2.0625 -7.67578,-3.832031 -7.67578,-7.441406 0,-2.625 2.00391,-5.777344 7.27734,-5.777344 3.48047,0 6.0586,1.148437 7.32422,1.828125 l 1.3711,-4.054688 c -1.72266,-0.972656 -4.58204,-1.898437 -8.53125,-1.898437 -7.5,0 -12.46875,4.464844 -12.46875,10.476562 0,5.4375 3.89062,8.707032 10.18359,10.933594 5.20312,2.003906 7.26562,4.066406 7.26562,7.675781 0,3.8906254 -2.97656,6.5742191 -8.07421,6.5742191 -3.4336,0 -6.69141,-1.1367187 -8.91797,-2.5195312 z m 42.07324,-26.4492186 c -7.67578,0 -13.73437,5.4375 -13.73437,14.71875 0,8.7539061 5.77734,14.24999987 13.27734,14.24999987 6.69141,0 13.79297,-4.46484377 13.79297,-14.70703087 0,-8.472657 -5.3789,-14.261719 -13.33594,-14.261719 z m -0.11718,3.785156 c 5.95312,0 8.29687,5.953125 8.29687,10.640625 0,6.2460939 -3.60937,10.7578126 -8.41406,10.7578126 -4.92188,0 -8.41406,-4.5703125 -8.41406,-10.6406246 0,-5.261719 2.57812,-10.757813 8.53125,-10.757813 z m 42.9873,-3.152344 h -5.03906 v 17.003907 c 0,0.9140621 -0.17578,1.8281246 -0.45703,2.5664059 -0.91406,2.2382812 -3.26953,4.5820312 -6.64453,4.5820312 -4.58203,0 -6.17578,-3.5507812 -6.17578,-8.8125001 v -15.339844 h -5.03907 v 16.195313 c 0,9.7382811 5.20313,12.14062487 9.5625,12.14062487 4.92188,0 7.83985,-2.91796877 9.15235,-5.15624997 h 0.11718 l 0.28125,4.523437475 h 4.46485 C 300.71191,-2.1790531 300.66503,-4.6868656 300.66503,-7.5579594 Z m 9.49512,-6.632812 v 6.632812 h -4.28906 v 3.832032 h 4.28906 v 15.1171871 c 0,3.2578125 0.51562,5.71875 1.94531,7.2070313 1.20703,1.37109372 3.09375,2.12109372 5.4375,2.12109372 1.94531,0 3.49219,-0.29296875 4.46484,-0.69140625 l -0.22265,-3.77343747 c -0.63281,0.1757812 -1.60547,0.3398437 -2.91797,0.3398437 -2.8125,0 -3.78516,-1.9453125 -3.78516,-5.3789062 V -23.870459 h 7.21875 v -3.832032 h -7.21875 v -7.957031 z m 29.19433,6 c -7.67578,0 -13.73437,5.4375 -13.73437,14.71875 0,8.7539061 5.77734,14.24999987 13.27734,14.24999987 6.69141,0 13.79297,-4.46484377 13.79297,-14.70703087 0,-8.472657 -5.3789,-14.261719 -13.33594,-14.261719 z m -0.11718,3.785156 c 5.95312,0 8.29687,5.953125 8.29687,10.640625 0,6.2460939 -3.60937,10.7578126 -8.41406,10.7578126 -4.92188,0 -8.41406,-4.5703125 -8.41406,-10.6406246 0,-5.261719 2.57812,-10.757813 8.53125,-10.757813 z M 404.82714,6.34375e-4 h 4.86328 L 407.28808,-38.577491 h -6.35156 l -6.86719,18.65625 c -1.71094,4.875 -3.09375,9.105469 -4.06641,12.9960941 h -0.16406 c -0.97266,-4.0078121 -2.29688,-8.2382811 -3.89063,-12.9960941 l -6.58593,-18.65625 h -6.35157 L 370.31542,6.34375e-4 h 4.75781 L 376.10448,-16.534522 c 0.33985,-5.789062 0.6211,-12.257812 0.73829,-17.0625 h 0.11718 c 1.08985,4.582031 2.625,9.5625 4.46485,15 l 6.23437,18.36328137 h 3.77344 l 6.82031,-18.71484337 c 1.94531,-5.320313 3.53906,-10.125 4.86328,-14.648438 h 0.16407 c -0.0469,4.804688 0.29296,11.273438 0.57421,16.652344 z M 429.27245,-28.335303 c -7.67578,0 -13.73437,5.4375 -13.73437,14.71875 0,8.7539061 5.77734,14.24999987 13.27734,14.24999987 6.69141,0 13.79297,-4.46484377 13.79297,-14.70703087 0,-8.472657 -5.37891,-14.261719 -13.33594,-14.261719 z m -0.11718,3.785156 c 5.95312,0 8.29687,5.953125 8.29687,10.640625 0,6.2460939 -3.60937,10.7578126 -8.41406,10.7578126 -4.92188,0 -8.41406,-4.5703125 -8.41406,-10.6406246 0,-5.261719 2.57812,-10.757813 8.53125,-10.757813 z m 42.99023,-3.152344 h -5.03906 v 17.003907 c 0,0.9140621 -0.17578,1.8281246 -0.45703,2.5664059 -0.91407,2.2382812 -3.26953,4.5820312 -6.64453,4.5820312 -4.58204,0 -6.17579,-3.5507812 -6.17579,-8.8125001 v -15.339844 h -5.03906 v 16.195313 c 0,9.7382811 5.20313,12.14062487 9.5625,12.14062487 4.92188,0 7.83985,-2.91796877 9.15235,-5.15624997 h 0.11718 l 0.28125,4.523437475 h 4.46485 C 472.19238,-2.1790531 472.1455,-4.6868656 472.1455,-7.5579594 Z m 8.35547,27.703125375 h 4.96875 V -14.764991 c 0,-0.855468 0.11719,-1.664062 0.23437,-2.34375 0.69141,-3.785156 3.19922,-6.46875 6.75,-6.46875 0.69141,0 1.20704,0.05859 1.72266,0.164063 v -4.746094 c -0.45703,-0.117187 -0.85547,-0.175781 -1.42969,-0.175781 -3.375,0 -6.41015,2.355469 -7.67578,6.070312 h -0.22265 l -0.17579,-5.4375 h -4.40625 c 0.17579,2.578125 0.23438,5.378907 0.23438,8.648438 z m 38.34082,0 C 518.50195,-1.8860844 518.38476,-4.2298344 518.38476,-6.6438969 V -17.003272 c 0,-5.542969 -2.0625,-11.332031 -10.53516,-11.332031 -3.48047,0 -6.80859,0.972656 -9.09375,2.460937 l 1.14844,3.328125 c 1.94531,-1.265625 4.62891,-2.0625 7.20703,-2.0625 5.66016,0 6.29297,4.125 6.29297,6.410157 v 0.574218 c -10.69922,-0.05859 -16.65234,3.597657 -16.65234,10.3007816 0,4.0078125 2.85937,7.95703127 8.47265,7.95703127 3.94922,0 6.92578,-1.94531247 8.47266,-4.12499997 h 0.16406 l 0.39844,3.492187475 z M 513.52148,-9.3274906 c 0,0.515625 -0.11719,1.0898437 -0.28125,1.6054687 -0.8086,2.34375 -3.09375,4.6289063 -6.70313,4.6289063 -2.57812,0 -4.74609,-1.546875 -4.74609,-4.8046875 0,-5.3789059 6.23437,-6.3515629 11.73047,-6.2343749 z m 0,0" style="fill:#ffffff;fill-opacity:1;fill-rule:nonzero;stroke:none" aria-label="Eduardo Souto Moura" transform="matrix(1.3333333,0,0,1.3333333,295.97267,4173.0695)" />
      </g></svg>