<?xml version='1.0' encoding='utf-8'?>
<svg xmlns="http://www.w3.org/2000/svg" version="1.1" width="42.338" height="176.033" viewBox="1849.770 3045.740 42.338 176.033"><defs id="defs1"><clipPath clipPathUnits="userSpaceOnUse" id="clipPath18">
      <path d="M 0,3370.3901 H 2383.9401 V -2.5000001e-5 H 0 Z" id="path18" />
    </clipPath>
  </defs><g id="object"><path id="path14" d="m 0,0 c 0,-15.726 0.176,-31.454 -0.073,-47.176 -0.126,-7.964 -3.887,-13.948 -12.499,-14.015 -8.588,-0.067 -9.848,7.918 -9.924,13.506 -0.449,33.004 0.005,66.019 0.041,99.03 0.01,8.369 4.645,10.457 12.079,10.488 C -1.484,61.871 -0.259,56.427 -0.268,49.53 -0.291,33.02 -0.276,16.511 -0.276,0.001 -0.184,0.001 -0.092,0 0,0" style="fill:#ece8df;fill-opacity:1;fill-rule:nonzero;stroke:none" transform="matrix(1.3333333,0,0,-1.3333333,1886.0231,3134.1847)" />
      </g></svg>