<?xml version='1.0' encoding='utf-8'?>
<svg xmlns="http://www.w3.org/2000/svg" version="1.1" width="44.944" height="100.002" viewBox="1659.410 4361.750 44.944 100.002"><g id="object"><path id="path141" d="m 0,0 c 0,8.518 0.173,17.042 -0.083,25.553 -0.106,3.54 0.957,4.842 4.513,5.531 4.961,0.961 9.811,-0.051 14.704,0.118 2.551,0.088 5.33,-1.268 5.148,-4.669 C 24.114,23.4 22.346,21.095 19,21.508 13.412,22.199 11.283,19.891 11.391,14.468 11.491,9.492 10.268,4.024 18.036,3.9 21,3.853 22.972,2.429 23.029,-0.867 c 0.053,-3.037 -1.027,-4.903 -4.395,-5.196 -7.483,-0.65 -7.022,-6.168 -7.021,-11.551 0.001,-5.513 3.145,-6.784 7.838,-6.548 3.326,0.168 5.477,-0.912 5.13,-4.896 -0.315,-3.611 -1.352,-5.901 -5.625,-5.102 -1.837,0.344 -3.807,0.463 -5.651,0.211 -15,-2.06 -12.54,1.582 -13.04,12.641 -0.16,3.546 -0.104,7.102 -0.122,10.653 C 0.126,-7.103 0.14,-3.552 0.14,0 0.093,0 0.047,0 0,0" style="fill:#c33c36;fill-opacity:1;fill-rule:nonzero;stroke:none" transform="matrix(1.3333333,0,0,-1.3333333,1665.5288,4409.7531)" />
      </g></svg>