<?xml version='1.0' encoding='utf-8'?>
<svg xmlns="http://www.w3.org/2000/svg" version="1.1" width="73.164" height="104.175" viewBox="2600.040 4179.560 73.164 104.175"><g id="object"><path id="path96" d="m 0,0 c 0.496,0.057 2.605,0.217 4.687,0.549 6.235,0.994 8.585,-0.895 7.84,-6.973 -0.771,-6.302 -1.204,-12.619 -3.6,-18.724 -4.497,-11.464 -22.063,-16.004 -30.79,-7.322 -4.865,4.84 -9.146,10.396 -10.074,17.561 -1.801,13.925 -3.241,27.91 7.026,39.656 9.601,10.982 23.736,8.938 31.979,-1.019 1.716,-2.073 3.853,-5.443 0.225,-7.232 -2.843,-1.402 -6.449,-5.225 -9.913,-0.588 -2.313,3.096 -5.096,5.042 -9.091,3.96 -4.346,-1.176 -5.253,-4.919 -6.231,-8.671 -2.572,-9.87 -1.382,-19.668 0.447,-29.438 1.023,-5.456 5.478,-6.777 10.064,-7.183 5.007,-0.443 6.15,3.577 7.097,7.311 0.867,3.414 -0.023,6.298 -3.801,7.187 -4.938,1.162 -4.622,4.857 -4.155,8.387 C -7.708,1.855 -4.359,0.467 0,0" style="fill:#494f57;fill-opacity:1;fill-rule:nonzero;stroke:none" transform="matrix(1.3333333,0,0,-1.3333333,2650.322,4228.3981)" />
      </g></svg>