<?xml version='1.0' encoding='utf-8'?>
<svg xmlns="http://www.w3.org/2000/svg" version="1.1" width="162.114" height="188.569" viewBox="1736.620 481.287 162.114 188.569"><g id="object"><path id="path6" d="m 0,0 c 5.408,3.797 10.865,6.368 17.484,2.404 2.101,-1.258 4.587,0.492 6.897,0.859 7.989,1.267 13.977,-2.603 15.893,-10.397 2.257,-9.184 0.484,-18.949 4.018,-27.966 1.545,-3.946 2.521,-8.174 4.513,-11.866 1.453,-2.694 4.127,-4.492 5.938,0.219 7.813,20.316 19.885,38.781 25.944,59.868 1.875,6.527 7.04,7.955 12.093,3.418 1.828,-1.642 3.841,-2.825 6.114,-3.445 3.961,-1.082 5.543,-4.104 6.812,-7.542 7.099,-19.236 3.811,-37.17 -5.242,-55.148 -6.115,-12.143 -12.262,-24.386 -16.805,-37.326 -2.173,-6.189 -5.329,-12.066 -8.41,-17.888 -1.446,-2.732 -4.058,-4.727 -7.323,-5.062 -12.648,-1.296 -25.3,-3.219 -37.969,-3.377 -6.544,-0.081 -12.358,3.929 -15.517,10.666 -2.3,4.906 -2.842,10.497 -6.088,14.992 -0.095,0.964 -0.19,1.928 -0.285,2.891 1.004,2.898 0.203,5.552 -1.067,8.159 -3.603,7.395 -3.997,14.953 -3.568,23.263 0.733,14.182 1.402,28.716 -5.273,42.181 -1.904,3.842 -1.64,7.778 1.64,11.058 z" style="fill:#d2d5d9;fill-opacity:1;fill-rule:nonzero;stroke:none" transform="matrix(1.3333333,0,0,-1.3333333,1746.6643,512.85653)" />
      </g></svg>