<?xml version='1.0' encoding='utf-8'?>
<svg xmlns="http://www.w3.org/2000/svg" version="1.1" width="114.908" height="150.635" viewBox="1370.810 225.737 114.908 150.635"><defs id="defs1"><clipPath clipPathUnits="userSpaceOnUse" id="clipPath11">
      <path d="M -2297.4972,2808.5926 H 86.442877 V -561.79751 H -2297.4972 Z" id="path11" />
    </clipPath>
  </defs><g id="object"><path id="path4" d="m 0,0 c -1.056,-9.729 -2.344,-20.101 -7.875,-29.408 -3.105,-5.225 -6.974,-9.749 -11.837,-13.36 -11.965,-8.882 -28.006,-8.357 -39.484,1.117 -5.323,4.395 -9.292,9.861 -11.95,16.094 -9.68,22.695 -7.632,44.562 5.543,65.323 3.669,5.781 8.785,10.219 15.228,12.832 11.808,4.789 24.948,1.883 34.028,-7.561 5.258,-5.468 9.063,-11.887 11.66,-19.009 C -1.71,17.863 -0.309,9.404 0,0" style="fill:#cf2727;fill-opacity:1;fill-rule:nonzero;stroke:none" transform="matrix(1.3333333,0,0,-1.3333333,1479.7161,304.896)" />
      </g></svg>