<?xml version='1.0' encoding='utf-8'?>
<svg xmlns="http://www.w3.org/2000/svg" version="1.1" width="272.688" height="168.052" viewBox="1241.010 2515.060 272.688 168.052"><defs id="defs1"><clipPath clipPathUnits="userSpaceOnUse" id="clipPath46">
      <path d="M 0,3370.3901 H 2383.9401 V -2.5000001e-5 H 0 Z" id="path46" />
    </clipPath>
  </defs><g id="object"><path id="path9" d="M 0,0 C 16.846,18.915 21.646,39.054 31.868,56.166 36.588,64.067 41.78,76.288 53.32,70.01 64.409,63.978 55.014,54.408 51.614,47.283 39.167,21.204 25.586,-4.337 13.317,-30.496 4.839,-48.57 -2.63,-46.109 -10.571,-30.728 c -6.423,12.441 -12.119,25.263 -18.702,37.615 -5.95,11.165 -12.456,11.293 -18.318,-0.353 -7.091,-14.087 -13.844,-28.353 -21.286,-42.252 -8.095,-15.118 -14.568,-7.936 -19.783,2.279 -14.732,28.862 -29.389,57.767 -43.59,86.892 -2.694,5.525 -9.387,13.037 0.629,17.822 7.252,3.466 14.121,0.038 17.888,-6.772 8.052,-14.555 15.279,-29.565 23.188,-44.203 3.251,-6.019 4.987,-15.556 12.087,-16.062 9.527,-0.68 10.264,10.556 13.993,16.828 5.785,9.727 9.869,20.479 14.519,30.866 6.329,14.14 13.452,15.134 21.156,1.22 C -19.527,36.424 -10.561,19.533 0,0" style="fill:#424242;fill-opacity:1;fill-rule:nonzero;stroke:none" transform="matrix(1.3333333,0,0,-1.3333333,1429.6077,2617.9168)" />
      </g></svg>