<?xml version='1.0' encoding='utf-8'?>
<svg xmlns="http://www.w3.org/2000/svg" version="1.1" width="241.940" height="617.472" viewBox="1271.610 1159.580 241.940 617.472"><defs id="defs1"><clipPath clipPathUnits="userSpaceOnUse" id="clipPath29">
      <path d="M 0,3370.3901 H 2383.9401 V -2.5000001e-5 H 0 Z" id="path29" />
    </clipPath>
  </defs><g id="object"><path id="path6" d="m 0,0 c -6.913,-1.245 -13.778,-3.083 -20.746,-3.636 -38.492,-3.055 -40.509,-1.526 -38.932,36.353 1.192,28.631 -15.742,55.985 -6.969,84.509 5.006,16.279 -9.686,33.878 -11.543,31.491 -14.209,-18.277 -23.555,-40.239 -35.187,-60.614 -27.578,-48.306 -26.402,-55.853 17.046,-89.272 -25.141,-9.273 -45.275,3.369 -65.696,11.929 -8.718,3.655 -2.691,11.543 -0.473,16.512 8.924,19.985 11.645,41.143 12.863,62.541 0.802,14.075 6.258,25.929 13.886,37.286 21.12,31.445 20.816,56.853 -1.072,89.007 -4.633,6.805 -9.937,15.547 -6.284,22.02 14.414,25.541 0.887,54.614 11.757,80.253 0.902,2.129 1.552,4.792 1.143,6.987 -7.968,42.75 20.745,72.398 38.097,105.939 8.985,17.367 25.521,21.002 42.835,16.181 19.25,-5.36 26.22,-23.009 28.919,-39.924 1.227,-7.694 -8.723,-17.82 -19.512,-17.063 -16.76,1.175 -13.834,-8.88 -11.728,-18.168 4.031,-17.782 9.218,-35.398 3.48,-53.722 -10.118,-32.312 4.955,-54.506 29.053,-73.224 9.5,-7.379 18.646,-15.058 13.233,-32.321 -13.518,9.451 -26.354,17.789 -38.465,27.073 -11.944,9.155 -16.382,4.001 -18.919,-8.113 -2.666,-12.729 1.707,-23.715 8.48,-33.659 21.019,-30.856 31.012,-63.722 21.159,-101.029 C -34.963,92.08 -34.425,86.292 -34.6,80.745 -35.595,49.203 -45.784,13.499 5.855,5.615 3.903,3.743 1.952,1.872 0,0" style="fill:#251d16;fill-opacity:1;fill-rule:nonzero;stroke:none" transform="matrix(1.3333333,0,0,-1.3333333,1499.7456,1764.8365)" />
      </g></svg>