<?xml version='1.0' encoding='utf-8'?>
<svg xmlns="http://www.w3.org/2000/svg" version="1.1" width="1308.930" height="243.859" viewBox="211.098 3111.810 1308.930 243.859"><g id="object"><path id="path9" d="M 102.2588,-51.128267 119.62599,6.390625e-4 h 22.42968 L 86.59083,-162.56186 H 61.266611 L 6.0361422,6.390625e-4 H 27.739267 L 44.614267,-51.128267 Z m -53.296877,-16.40625 15.914063,-47.027343 c 3.140625,-9.89063 5.789062,-19.78125 8.203125,-29.42578 h 0.480469 c 2.414062,9.41015 4.828125,19.05469 8.449218,29.67187 l 15.914063,46.781253 z M 154.83497,6.390625e-4 h 21.23438 V -171.24545 H 154.83497 Z M 187.64747,-116.72983 232.01466,6.390625e-4 h 20.26172 L 298.10841,-116.72983 H 275.9131 l -22.66407,65.601563 c -3.86718,10.605469 -7.24218,20.261719 -9.89062,29.90625 h -0.72656 c -2.41407,-9.644531 -5.54297,-19.300781 -9.41016,-29.90625 L 210.31153,-116.72983 Z M 391.44825,6.390625e-4 C 389.99513,-7.9563922 389.51466,-17.847017 389.51466,-27.972017 V -71.63608 c 0,-23.390625 -8.6836,-47.75391 -44.37891,-47.75391 -14.70703,0 -28.69922,4.10157 -38.34375,10.3711 l 4.81641,13.992185 c 8.20312,-5.308595 19.53515,-8.683595 30.38672,-8.683595 23.88281,0 26.53125,17.367189 26.53125,27.01172 v 2.414063 c -45.09375,-0.246094 -70.1836,15.199219 -70.1836,43.417969 0,16.875 12.0586,33.5156246 35.69532,33.5156246 16.64062,0 29.1914,-8.1914063 35.69531,-17.3554686 h 0.72656 l 1.6875,14.7070310625 z M 369.01856,-39.315767 c 0,2.179687 -0.49218,4.582031 -1.20703,6.761719 -3.375,9.878906 -13.03125,19.535156 -28.21875,19.535156 -10.85156,0 -20.02734,-6.515625 -20.02734,-20.261719 0,-22.675781 26.29687,-26.777344 49.45312,-26.296875 z M 414.10938,6.390625e-4 h 20.98829 V -62.225923 c 0,-3.621094 0.48046,-6.996094 0.96093,-9.890625 2.89453,-15.914063 13.51172,-27.246094 28.46485,-27.246094 2.89453,0 5.0625,0.234375 7.23047,0.714844 v -20.015622 c -1.92188,-0.48047 -3.60938,-0.72657 -6.02344,-0.72657 -14.23828,0 -27.01172,9.89063 -32.32031,25.570317 h -0.96094 l -0.72656,-22.910157 h -18.57422 c 0.72656,10.85156 0.96093,22.664063 0.96093,36.421875 z M 530.3711,-119.38999 c -32.32031,0 -57.89062,22.921879 -57.89062,61.992192 0,36.902343 24.36328,60.0468746 55.95703,60.0468746 28.21875,0 58.125,-18.8085936 58.125,-61.9804686 0,-35.695313 -22.67578,-60.058598 -56.19141,-60.058598 z m -0.49218,15.92579 c 25.08984,0 34.98046,25.07812 34.98046,44.85937 0,26.285157 -15.19921,45.339844 -35.46093,45.339844 -20.74219,0 -35.44922,-19.289062 -35.44922,-44.859375 0,-22.183594 10.85156,-45.339839 35.92969,-45.339839 z m 107.80957,95.5078078 c 8.68359,5.7890625 25.8164,10.3710938 41.48437,10.3710938 38.35547,0 56.91797,-21.7031246 56.91797,-46.7929686 0,-23.871094 -13.98047,-37.136719 -41.47266,-47.753906 -22.4414,-8.683597 -32.32031,-16.160157 -32.32031,-31.347657 0,-11.09766 8.4375,-24.36328 30.62109,-24.36328 14.71875,0 25.57032,4.81641 30.87891,7.71094 l 5.78906,-17.1211 c -7.24218,-4.10156 -19.30078,-7.95703 -35.9414,-7.95703 -31.59375,0 -52.57032,18.8086 -52.57032,44.13281 0,22.921879 16.39454,36.667973 42.92579,46.06641 21.94921,8.449219 30.63281,17.132813 30.63281,32.320313 0,16.40625 -12.53906,27.738281 -34.00781,27.738281 -14.47266,0 -28.21875,-4.828125 -37.62891,-10.617187 z M 775.65626,6.390625e-4 V -116.72983 H 754.42188 V 6.390625e-4 Z M 765.03907,-162.79624 c -7.72265,0 -13.26562,5.78907 -13.26562,13.26563 0,7.23047 5.30859,13.01953 12.78515,13.01953 8.4375,0 13.7461,-5.78906 13.5,-13.01953 0,-7.47656 -5.0625,-13.26563 -13.01953,-13.26563 z M 787.9463,6.390625e-4 h 94.79297 V -16.88608 h -68.26172 v -0.480468 c 5.30859,-6.023438 10.13672,-11.8125 14.95312,-18.328125 l 52.10157,-67.769527 0.23437,-13.26563 h -88.99219 v 17.121094 h 63.1875 v 0.480469 c -5.29687,6.269531 -10.125,11.824219 -15.1875,18.09375 l -52.82812,68.730469 z m 190.78711,0 C 977.28028,-7.9563922 976.79981,-17.847017 976.79981,-27.972017 V -71.63608 c 0,-23.390625 -8.68359,-47.75391 -44.3789,-47.75391 -14.70703,0 -28.69922,4.10157 -38.34375,10.3711 l 4.8164,13.992185 c 8.20313,-5.308595 19.53516,-8.683595 30.38672,-8.683595 23.88282,0 26.53125,17.367189 26.53125,27.01172 v 2.414063 c -45.09375,-0.246094 -70.18359,15.199219 -70.18359,43.417969 0,16.875 12.05859,33.5156246 35.69531,33.5156246 16.64063,0 29.19141,-8.1914063 35.69531,-17.3554686 h 0.72657 l 1.6875,14.7070310625 z M 956.30372,-39.315767 c 0,2.179687 -0.49219,4.582031 -1.20703,6.761719 -3.375,9.878906 -13.03125,19.535156 -28.21875,19.535156 -10.85156,0 -20.02734,-6.515625 -20.02734,-20.261719 0,-22.675781 26.29687,-26.777344 49.45312,-26.296875 z m 0,0" style="fill:#ffffff;fill-opacity:1;fill-rule:nonzero;stroke:none" aria-label="Alvaro Siza" transform="matrix(1.3333333,0,0,1.3333333,209.04947,3346.1359)" />
      </g></svg>