<?xml version='1.0' encoding='utf-8'?>
<svg xmlns="http://www.w3.org/2000/svg" version="1.1" width="154.512" height="104.090" viewBox="507.090 4180.540 154.512 104.090"><g id="object"><path id="path116" d="m 0,0 c -9.282,-0.28 -12.18,1.989 -11.831,8.851 0.189,3.732 1.687,4.728 4.946,3.149 4.989,-2.419 9.578,-2.047 12.04,3.228 2.497,5.349 -0.834,8.764 -5.271,11.537 -9.251,5.781 -15.511,13.162 -14.534,25.185 0.547,6.728 3.926,10.897 9.25,13.928 5.215,2.968 10.493,4.717 16.545,1.265 5.134,-2.928 3.694,-7.262 3.118,-11.207 -0.356,-2.443 -2.386,-0.901 -3.911,-0.28 C 6.773,57.111 2.703,58.343 0.08,54.526 -2.836,50.281 -1.762,45.913 1.994,42.445 5.27,39.421 8.788,36.66 12.093,33.666 18.986,27.423 21.24,18.738 18.142,10.802 15.406,3.793 9.517,0.287 0,0" style="fill:#494f57;fill-opacity:1;fill-rule:nonzero;stroke:none" transform="matrix(1.3333333,0,0,-1.3333333,532.75653,4278.5981)" />
      <path id="path155" d="m 0,0 c 0,8.977 0.208,17.961 -0.089,26.928 -0.145,4.369 1.47,6.082 5.675,5.982 5.205,-0.123 10.415,-0.189 15.619,-0.084 5.473,0.111 5.25,-4.225 5.391,-7.443 0.174,-3.982 -3.337,-3.292 -5.785,-2.952 -7.888,1.095 -7.112,-5.025 -8.23,-9.6 -1.299,-5.317 2.005,-6.765 6.23,-7.094 5.107,-0.398 6.917,-3.227 6.689,-8.018 -0.239,-5.04 -4.024,-4.293 -7.217,-4.616 -9.122,-0.918 -3.447,-8.115 -4.588,-12.125 -1.074,-3.774 3.046,-4.588 6.424,-3.506 4.236,1.357 7.209,0.469 7.466,-4.386 0.234,-4.428 -1.609,-7.328 -6.719,-6.835 -1.642,0.159 -3.312,0.08 -4.968,0.047 C -3.481,-34.076 1.484,-34.958 0.289,-18.426 -0.153,-12.315 0.218,-6.146 0.218,-0.003 0.145,-0.002 0.073,-0.001 0,0" style="fill:#494f57;fill-opacity:1;fill-rule:nonzero;stroke:none" transform="matrix(1.3333333,0,0,-1.3333333,618.79507,4233.0597)" />
      <path id="path181" d="m 0,0 c 4.255,0 8.517,0.157 12.762,-0.05 3.397,-0.166 6.042,-1.505 5.561,-5.659 -0.4,-3.445 -1.542,-5.938 -5.842,-5.081 -5.198,1.036 -5.246,-2.809 -5.257,-6.146 -0.046,-13.469 0.031,-26.939 0.129,-40.407 0.035,-4.835 0.696,-10.149 -6.769,-9.242 -6.728,0.817 -5.952,5.753 -5.829,10.707 0.319,12.873 0.369,25.759 0.186,38.634 -0.038,2.695 -1.347,5.838 -4.993,5.619 -6.426,-0.386 -5.936,4.701 -6.092,8.221 -0.213,4.81 4.149,3.341 6.927,3.531 C -6.158,0.337 -3.073,0.175 0,0.175 0,0.117 0,0.058 0,0" style="fill:#494f57;fill-opacity:1;fill-rule:nonzero;stroke:none" transform="matrix(1.3333333,0,0,-1.3333333,586.3288,4189.304)" />
      </g></svg>