<?xml version='1.0' encoding='utf-8'?>
<svg xmlns="http://www.w3.org/2000/svg" version="1.1" width="154.007" height="263.054" viewBox="1666.800 3484.570 154.007 263.054"><g id="object"><path id="path7" d="m 0,0 h -33.643 v 183.521 h 31.64 c 1.12,-5.313 2.389,-11.328 3.833,-18.18 2.85,1.525 4.978,2.459 6.891,3.721 8.106,5.348 15.496,13.133 24.379,15.61 11.135,3.105 25.473,5.762 34.55,1.084 5.476,-2.821 3.584,-19.941 5.212,-32.209 -8.01,-0.762 -12.599,-1.465 -17.204,-1.594 C 18.888,150.917 1.994,134.812 0.28,98.021 -0.479,81.72 0.034,65.359 0.005,49.025 -0.021,33.631 0,18.236 0,0" style="fill:#ffffff;fill-opacity:1;fill-rule:nonzero;stroke:none" transform="matrix(1.3333333,0,0,-1.3333333,1717.6569,3741.6215)" />
      </g></svg>