<?xml version='1.0' encoding='utf-8'?>
<svg xmlns="http://www.w3.org/2000/svg" version="1.1" width="2456.900" height="268.578" viewBox="346.672 3505.910 2456.900 268.578"><g id="object"><path id="path7" d="m 109.46433,-18.831408 c -7.24219,3.515625 -18.42188,5.800781 -29.39063,5.800781 -33.925781,0 -53.589844,-21.9375 -53.589844,-56.074218 0,-36.632815 21.726563,-57.527345 54.421875,-57.527345 11.589844,0 21.316409,2.48438 28.136719,5.78906 l 4.34766,-14.68359 c -4.75782,-2.48438 -15.726566,-6.21094 -33.105472,-6.21094 -43.242188,0 -72.8320317,29.58985 -72.8320317,73.253908 0,45.726563 29.5898437,70.5585942 68.8945317,70.5585942 16.96875,0 30.210942,-3.3164063 36.832032,-6.6210938 z m 65.79785,-83.589842 c -27.72657,0 -49.66407,19.652342 -49.66407,53.179686 0,31.652344 20.89454,51.5156249 48,51.5156249 24.21094,0 49.875,-16.1367189 49.875,-53.1796879 0,-30.621093 -19.45312,-51.515623 -48.21093,-51.515623 z m -0.42188,13.652342 c 21.52735,0 30.01172,21.515625 30.01172,38.484375 0,22.558594 -13.04297,38.90625 -30.42187,38.90625 -17.78907,0 -30.42188,-16.558594 -30.42188,-38.484375 0,-19.042969 9.31641,-38.90625 30.83203,-38.90625 z M 326.51315,6.234375e-4 V -86.284533 h 24 v -13.863277 h -24.19922 v -5.37891 c 0,-15.31641 4.13672,-28.96875 19.44141,-28.96875 5.37891,0 8.90625,1.03125 11.80078,2.27344 l 2.27344,-14.0625 c -3.51563,-1.45313 -8.89453,-2.90625 -15.51563,-2.90625 -8.28515,0 -17.3789,2.69531 -24.21093,9.3164 -8.48438,8.0625 -11.80078,20.89453 -11.80078,34.96875 v 4.75782 h -42 v -4.34766 c 0,-15.72656 3.9375,-27.92578 18.21093,-27.92578 4.13672,0 8.0625,1.23047 10.75782,2.47265 l 3.72656,-13.4414 c -3.10547,-1.66406 -8.48438,-3.51563 -14.27344,-3.51563 -11.17969,0 -19.45312,3.51563 -25.25391,9.30469 -7.86328,7.86328 -11.16796,20.07422 -11.16796,34.14844 v 3.30469 H 234.228 v 13.863277 h 14.07422 V 6.234375e-4 h 18 V -86.284533 h 42 V 6.234375e-4 Z M 444.87839,-46.757189 c 0.19922,-1.863281 0.62109,-4.769531 0.62109,-8.484375 0,-18.421875 -8.69531,-47.179686 -41.39062,-47.179686 -29.17969,0 -46.96875,23.789061 -46.96875,53.999998 0,30.210938 18.41015,50.4960942 49.24218,50.4960942 15.9375,0 26.90625,-3.3164063 33.31641,-6.2109375 l -3.10547,-13.0429687 c -6.82031,2.90625 -14.68359,5.179687 -27.72656,5.179687 -18.21094,0 -33.9375,-10.136718 -34.34766,-34.757812 z m -70.14844,-13.042969 c 1.44141,-12.621094 9.51563,-29.589844 27.9375,-29.589844 20.48438,0 25.44141,18 25.24219,29.589844 z m 173.8125,13.042969 c 0.19922,-1.863281 0.62109,-4.769531 0.62109,-8.484375 0,-18.421875 -8.69531,-47.179686 -41.39062,-47.179686 -29.17969,0 -46.96875,23.789061 -46.96875,53.999998 0,30.210938 18.41016,50.4960942 49.24219,50.4960942 15.9375,0 26.90625,-3.3164063 33.3164,-6.2109375 l -3.10547,-13.0429687 c -6.82031,2.90625 -14.68359,5.179687 -27.72656,5.179687 -18.21094,0 -33.9375,-10.136718 -34.34765,-34.757812 z m -70.14844,-13.042969 c 1.44141,-12.621094 9.51563,-29.589844 27.9375,-29.589844 20.48438,0 25.44141,18 25.24219,29.589844 z M 687.59128,6.234375e-4 C 686.34909,-6.8314078 685.92722,-15.315783 685.92722,-23.999377 v -37.453125 c 0,-20.074218 -7.44141,-40.968748 -38.07422,-40.968748 -12.6211,0 -24.6211,3.515623 -32.89453,8.89453 l 4.13671,12 c 7.03125,-4.546875 16.75782,-7.453125 26.07422,-7.453125 20.48438,0 22.75782,14.90625 22.75782,23.179687 v 2.074219 c -38.69532,-0.210938 -60.21094,13.03125 -60.21094,37.242187 0,14.484375 10.34765,28.7578129 30.62109,28.7578129 14.28516,0 25.04297,-7.03125 30.6211,-14.8945309 h 0.62109 L 671.03268,6.234375e-4 Z M 668.33737,-33.725939 c 0,1.863281 -0.41015,3.925781 -1.03125,5.789062 -2.89453,8.484375 -11.16797,16.769532 -24.21094,16.769532 -9.30468,0 -17.16796,-5.589844 -17.16796,-17.390625 0,-19.441407 22.54687,-22.96875 42.41015,-22.546875 z M 715.31198,6.234375e-4 h 18.21094 V -60.210314 c 0,-3.105469 0.41016,-6.210938 1.24219,-8.484375 3.10547,-10.136719 12.41015,-18.621094 24.41015,-18.621094 17.17969,0 23.17969,13.441406 23.17969,29.589844 V 6.234375e-4 h 18.21094 V -59.800158 c 0,-34.347656 -21.52735,-42.621092 -35.39063,-42.621092 -16.54687,0 -28.13672,9.304686 -33.10547,18.83203 h -0.41015 l -1.03125,-16.55859 h -16.14844 c 0.62109,8.273433 0.83203,16.757808 0.83203,27.105465 z M 898.43796,-146.90563 v 59.789066 h -0.42188 c -4.54687,-8.0625 -14.89453,-15.304686 -30.19922,-15.304686 -24.42187,0 -45.11718,20.484373 -44.90625,53.80078 0,30.410156 18.6211,50.8945309 42.83204,50.8945309 16.34765,0 28.55859,-8.484375 34.13671,-19.6523439 h 0.42188 l 0.82031,17.3789064375 h 16.34766 C 916.84811,-6.8314078 916.6489,-16.968127 916.6489,-25.862658 V -146.90563 Z m 0,104.906253 c 0,2.894532 -0.21094,5.378907 -0.83203,7.863282 -3.30469,13.652343 -14.48438,21.726562 -26.69532,21.726562 -19.65234,0 -29.58984,-16.769531 -29.58984,-37.042969 0,-22.136718 11.17969,-38.695312 30.01172,-38.695312 13.65234,0 23.58984,9.515625 26.27344,21.105469 0.62109,2.273437 0.83203,5.378906 0.83203,7.652343 z m 186.64164,23.167969 c -7.2422,3.515625 -18.4219,5.800781 -29.3907,5.800781 -33.9257,0 -53.5898,-21.9375 -53.5898,-56.074218 0,-36.632815 21.7266,-57.527345 54.4219,-57.527345 11.5898,0 21.3164,2.48438 28.1367,5.78906 l 4.3476,-14.68359 c -4.7578,-2.48438 -15.7265,-6.21094 -33.1054,-6.21094 -43.2422,0 -72.83206,29.58985 -72.83206,73.253908 0,45.726563 29.58986,70.5585942 68.89456,70.5585942 16.9687,0 30.2109,-3.3164063 36.832,-6.6210938 z M 1128.3012,6.234375e-4 V -100.14781 h -18.2109 V 6.234375e-4 Z M 1119.1958,-139.66344 c -6.6211,0 -11.3789,4.95703 -11.3789,11.37891 0,6.19922 4.5468,11.16797 10.9687,11.16797 7.2422,0 11.7891,-4.96875 11.5781,-11.16797 0,-6.42188 -4.3359,-11.37891 -11.1679,-11.37891 z m 109.6611,39.51563 -0.8203,15.105465 h -0.4219 c -4.3359,-8.273438 -13.8633,-17.378905 -31.2422,-17.378905 -22.9687,0 -45.1054,19.242186 -45.1054,53.179686 0,27.726562 17.789,48.83203119 42.6211,48.83203119 15.5273,0 26.2851,-7.45312499 31.8632,-16.76953119 h 0.4219 v 11.1796874 c 0,25.2421876 -13.6641,34.9687496 -32.2851,34.9687496 -12.4102,0 -22.7579,-3.726562 -29.379,-7.863281 l -4.5468,13.863281 c 8.0625,5.378907 21.3047,8.273438 33.3047,8.273438 12.6211,0 26.6953,-2.894531 36.4218,-12 9.7266,-8.683594 14.2735,-22.7578126 14.2735,-45.726563 v -58.148437 c 0,-12.199219 0.4218,-20.273438 0.832,-27.515621 z m -2.8945,57.52734 c 0,3.105468 -0.4102,6.621093 -1.4414,9.726562 -3.9375,11.578125 -14.0743,18.621094 -25.2539,18.621094 -19.6524,0 -29.5899,-16.347656 -29.5899,-36.011719 0,-23.167969 12.4219,-37.863281 29.8008,-37.863281 13.2422,0 22.1367,8.695312 25.4531,19.242187 0.8203,2.484375 1.0313,5.179688 1.0313,8.273438 z M 1346.188,6.234375e-4 C 1344.9458,-6.8314078 1344.5239,-15.315783 1344.5239,-23.999377 v -37.453125 c 0,-20.074218 -7.4414,-40.968748 -38.0742,-40.968748 -12.6211,0 -24.6211,3.515623 -32.8946,8.89453 l 4.1368,12 c 7.0312,-4.546875 16.7578,-7.453125 26.0742,-7.453125 20.4844,0 22.7578,14.90625 22.7578,23.179687 v 2.074219 c -38.6953,-0.210938 -60.2109,13.03125 -60.2109,37.242187 0,14.484375 10.3476,28.7578129 30.6211,28.7578129 14.2851,0 25.0429,-7.03125 30.621,-14.8945309 h 0.6211 l 1.4532,12.6210934375 z M 1326.9341,-33.725939 c 0,1.863281 -0.4102,3.925781 -1.0313,5.789062 -2.8945,8.484375 -11.168,16.769532 -24.2109,16.769532 -9.3047,0 -17.168,-5.589844 -17.168,-17.390625 0,-19.441407 22.5469,-22.96875 42.4102,-22.546875 z m 46.9746,33.7265624375 h 18 V -53.390002 c 0,-3.09375 0.4101,-6 0.832,-8.472656 2.4844,-13.664062 11.5898,-23.390625 24.4101,-23.390625 2.4844,0 4.3477,0.210938 6.211,0.621094 v -17.167971 c -1.6524,-0.42187 -3.1055,-0.62109 -5.168,-0.62109 -12.2109,0 -23.1797,8.484373 -27.7265,21.92578 h -0.8321 l -0.6211,-19.65234 h -15.9375 c 0.6211,9.316402 0.8321,19.453121 0.8321,31.242183 z M 1519.9975,-46.757189 c 0.1992,-1.863281 0.6211,-4.769531 0.6211,-8.484375 0,-18.421875 -8.6953,-47.179686 -41.3906,-47.179686 -29.1797,0 -46.9688,23.789061 -46.9688,53.999998 0,30.210938 18.4102,50.4960942 49.2422,50.4960942 15.9375,0 26.9063,-3.3164063 33.3164,-6.2109375 l -3.1054,-13.0429687 c -6.8203,2.90625 -14.6836,5.179687 -27.7266,5.179687 -18.2109,0 -33.9375,-10.136718 -34.3476,-34.757812 z m -70.1484,-13.042969 c 1.4414,-12.621094 9.5156,-29.589844 27.9375,-29.589844 20.4844,0 25.4414,18 25.2422,29.589844 z m 97.456,-64.347652 v 24 h -15.5156 v 13.863277 h 15.5156 v 54.621094 c 0,11.800781 1.8633,20.695312 7.0313,26.0742187 4.3477,4.96874999 11.1797,7.6640625 19.6641,7.6640625 7.0312,0 12.6211,-1.0429688 16.1367,-2.48437501 l -0.8321,-13.66406219 c -2.2734,0.621093 -5.789,1.242187 -10.5468,1.242187 -10.1367,0 -13.6524,-7.03125 -13.6524,-19.441406 v -54.011719 h 26.0625 v -13.863277 h -26.0625 v -28.75782 z m 68.4903,0 v 24 h -15.5156 v 13.863277 h 15.5156 v 54.621094 c 0,11.800781 1.8633,20.695312 7.0312,26.0742187 4.3477,4.96874999 11.1797,7.6640625 19.6641,7.6640625 7.0312,0 12.6211,-1.0429688 16.1367,-2.48437501 l -0.832,-13.66406219 c -2.2735,0.621093 -5.7891,1.242187 -10.5469,1.242187 -10.1367,0 -13.6523,-7.03125 -13.6523,-19.441406 v -54.011719 h 26.0625 v -13.863277 h -26.0625 v -28.75782 z m 143.6074,77.390621 c 0.1992,-1.863281 0.6211,-4.769531 0.6211,-8.484375 0,-18.421875 -8.6953,-47.179686 -41.3906,-47.179686 -29.1797,0 -46.9688,23.789061 -46.9688,53.999998 0,30.210938 18.4102,50.4960942 49.2422,50.4960942 15.9375,0 26.9063,-3.3164063 33.3164,-6.2109375 l -3.1055,-13.0429687 c -6.8203,2.90625 -14.6835,5.179687 -27.7265,5.179687 -18.211,0 -33.9375,-10.136718 -34.3477,-34.757812 z m -70.1484,-13.042969 c 1.4414,-12.621094 9.5156,-29.589844 27.9375,-29.589844 20.4843,0 25.4414,18 25.2422,29.589844 z m 86.2851,55.0429689 c 7.0313,4.13671879 17.168,6.8320313 28.1367,6.8320313 23.8008,0 37.4532,-12.4218752 37.4532,-30.0117192 0,-14.894531 -8.8946,-23.589843 -26.2852,-30.210937 -13.0312,-4.957031 -19.0312,-8.683594 -19.0312,-16.957031 0,-7.453125 6,-13.664063 16.7578,-13.664063 9.3164,0 16.5586,3.316406 20.4843,5.800781 l 4.5586,-13.253906 c -5.5898,-3.304687 -14.4843,-6.199217 -24.6211,-6.199217 -21.5273,0 -34.5585,13.242186 -34.5585,29.378905 0,12 8.4843,21.9375 26.4843,28.347656 13.4532,4.96875 18.6211,9.726562 18.6211,18.421875 0,8.273437 -6.2109,14.894531 -19.4531,14.894531 -9.1055,0 -18.6211,-3.726562 -24,-7.242187 z m 0,0" style="fill:#231916;fill-opacity:1;fill-rule:nonzero;stroke:none" aria-label="Cofee and Cigarettes" transform="matrix(1.3333333,0,0,1.3333333,342.73507,3710.8312)" />
      </g></svg>