<?xml version='1.0' encoding='utf-8'?>
<svg xmlns="http://www.w3.org/2000/svg" version="1.1" width="819.911" height="197.299" viewBox="1720.490 1305.480 819.911 197.299"><g id="object"><path id="path32" d="M 14.087147,-8.015625e-4 H 83.579334 V -13.524239 H 30.212147 V -124.89924 h -16.125 z M 144.91234,-126.9383 c -33.36328,0 -58.00781,25.94531 -58.00781,65.601561 0,37.804687 23.16797,63.3749999 56.15625,63.3749999 31.86328,0 57.99609,-22.7929689 57.99609,-65.7890629 0,-37.054688 -22.05468,-63.187498 -56.14453,-63.187498 z m -0.75,13.16015 c 26.8711,0 39.84375,25.945317 39.84375,50.777348 0,28.347657 -14.44922,51.878907 -40.01953,51.878907 -25.39453,0 -39.84375,-23.90625 -39.84375,-50.589844 0,-27.421875 13.33594,-52.066411 40.01953,-52.066411 z M 221.99828,-8.015625e-4 h 69.49219 V -13.524239 H 238.12328 V -124.89924 h -16.125 z M 348.74535,-0.37580156 c 8.15625,0.92578125 17.78906,1.48828126 29.27344,1.48828126 24.28125,0 43.54687,-6.3046875 55.23047,-17.9765627 11.67187,-11.484375 17.96484,-28.171875 17.96484,-48.550781 0,-20.203125 -6.48047,-34.652346 -17.60156,-44.847656 -10.9336,-10.18359 -27.42188,-15.5625 -50.58985,-15.5625 -12.78515,0 -24.45703,1.11328 -34.27734,2.58984 z M 364.87035,-111.3758 c 4.25391,-0.92578 10.55859,-1.66406 18.89062,-1.66406 34.10157,0 50.77735,18.71484 50.58985,48.175777 0,33.726563 -18.71485,53.003906 -53.17969,53.003906 -6.30469,0 -12.23437,-0.1875 -16.30078,-0.925781 z m 132.8584,68.753905 c 0,24.457031 -8.51953,30.949218 -22.98047,30.949218 -5.36719,0 -10.19531,-1.113281 -13.52344,-2.414062 l -2.41406,13.16015619 c 4.07812,1.6640625 11.30859,2.96484371 17.23828,2.96484371 21.49219,0 37.80469,-10.1953125 37.80469,-43.3593749 v -83.578126 h -16.125 z m 36.68847,36.5039059 c 6.66797,4.453125 19.82813,7.96875 31.875,7.96875 29.46094,0 43.73438,-16.6757809 43.73438,-35.9531249 0,-18.339844 -10.74609,-28.535156 -31.875,-36.691406 -17.23828,-6.667969 -24.83203,-12.410157 -24.83203,-24.082032 0,-8.531248 6.49219,-18.714848 23.53125,-18.714848 11.30859,0 19.65234,3.70313 23.71875,5.92969 l 4.45312,-13.16015 c -5.55468,-3.15235 -14.82422,-6.11719 -27.60937,-6.11719 -24.28125,0 -40.39453,14.46094 -40.39453,33.914061 0,17.601562 12.59765,28.160156 32.97656,35.390625 16.86328,6.492187 23.53125,13.160156 23.53125,24.832031 0,12.597656 -9.63281,21.316406 -26.12109,21.316406 -11.1211,0 -21.67969,-3.714843 -28.91016,-8.15625 z m 0,0" style="fill:#848078;fill-opacity:1;fill-rule:nonzero;stroke:none" aria-label="LOL DJS" transform="matrix(1.3333333,0,0,1.3333333,1714.3812,1487.3956)" />
      <path id="path33" d="M 0,0 H 69.489 V 13.527 H 16.122 V 124.895 H 0 Z" style="fill:none;stroke:#848078;stroke-width:10;stroke-linecap:butt;stroke-linejoin:miter;stroke-miterlimit:10;stroke-dasharray:none;stroke-opacity:1" transform="matrix(1.3333333,0,0,-1.3333333,1733.1585,1487.3956)" />
      <path id="path34" d="m 0,0 c -33.355,0 -58,-25.943 -58,-65.598 0,-37.802 23.163,-63.374 56.147,-63.374 31.872,0 58,22.792 58,65.783 C 56.147,-26.128 34.096,0 0,0 Z m -0.741,-13.157 c 26.869,0 39.84,-25.942 39.84,-50.773 0,-28.352 -14.453,-51.885 -40.026,-51.885 -25.386,0 -39.84,23.904 -39.84,50.588 0,27.425 13.342,52.07 40.026,52.07 z" style="fill:none;stroke:#848078;stroke-width:10;stroke-linecap:butt;stroke-linejoin:miter;stroke-miterlimit:10;stroke-dasharray:none;stroke-opacity:1" transform="matrix(1.3333333,0,0,-1.3333333,1907.5915,1318.1508)" />
      <path id="path35" d="M 0,0 H 69.489 V 13.527 H 16.122 V 124.895 H 0 Z" style="fill:none;stroke:#848078;stroke-width:10;stroke-linecap:butt;stroke-linejoin:miter;stroke-miterlimit:10;stroke-dasharray:none;stroke-opacity:1" transform="matrix(1.3333333,0,0,-1.3333333,2010.3721,1487.3956)" />
      <path id="path36" d="m 0,0 c 8.153,-0.927 17.79,-1.482 29.278,-1.482 24.275,0 43.547,6.3 55.221,17.974 11.674,11.489 17.975,28.166 17.975,48.55 0,20.198 -6.486,34.652 -17.604,44.843 -10.933,10.192 -27.426,15.566 -50.589,15.566 -12.785,0 -24.46,-1.112 -34.281,-2.594 z m 16.122,110.997 c 4.262,0.927 10.562,1.668 18.9,1.668 34.097,0 50.774,-18.716 50.589,-48.179 0,-33.725 -18.716,-52.997 -53.183,-52.997 -6.3,0 -12.23,0.185 -16.306,0.927 z" style="fill:none;stroke:#848078;stroke-width:10;stroke-linecap:butt;stroke-linejoin:miter;stroke-miterlimit:10;stroke-dasharray:none;stroke-opacity:1" transform="matrix(1.3333333,0,0,-1.3333333,2179.3636,1486.9015)" />
      <path id="path37" d="m 0,0 c 0,-24.46 -8.524,-30.946 -22.978,-30.946 -5.374,0 -10.191,1.112 -13.527,2.409 l -2.409,-13.156 c 4.077,-1.668 11.304,-2.966 17.233,-2.966 21.495,0 37.802,10.192 37.802,43.362 V 82.275 H 0 Z" style="fill:none;stroke:#848078;stroke-width:10;stroke-linecap:butt;stroke-linejoin:miter;stroke-miterlimit:10;stroke-dasharray:none;stroke-opacity:1" transform="matrix(1.3333333,0,0,-1.3333333,2378.0061,1430.5688)" />
      <path id="path38" d="m 0,0 c 6.671,-4.447 19.828,-7.968 31.873,-7.968 29.463,0 43.731,16.677 43.731,35.949 0,18.345 -10.748,28.537 -31.872,36.69 -17.233,6.671 -24.831,12.415 -24.831,24.09 0,8.524 6.486,18.715 23.534,18.715 11.303,0 19.642,-3.706 23.719,-5.93 l 4.447,13.157 c -5.559,3.151 -14.824,6.115 -27.61,6.115 -24.275,0 -40.397,-14.454 -40.397,-33.91 0,-17.604 12.601,-28.167 32.985,-35.393 16.862,-6.486 23.533,-13.157 23.533,-24.831 0,-12.601 -9.635,-21.31 -26.128,-21.31 -11.118,0 -21.68,3.706 -28.907,8.153 z" style="fill:none;stroke:#848078;stroke-width:10;stroke-linecap:butt;stroke-linejoin:miter;stroke-miterlimit:10;stroke-dasharray:none;stroke-opacity:1" transform="matrix(1.3333333,0,0,-1.3333333,2426.9255,1479.242)" />
      </g></svg>