<?xml version='1.0' encoding='utf-8'?>
<svg xmlns="http://www.w3.org/2000/svg" version="1.1" width="414.057" height="1168.507" viewBox="2511.200 1409.860 414.057 1168.507"><g id="object"><path id="path17" d="m 0,0 c 4.223,-5.033 8.307,-10.087 15.04,-11.927 1.944,-0.531 3.29,0.029 3.823,1.939 0.43,1.542 -0.318,3.323 -1.721,3.362 C 10.613,-6.442 6.329,-0.894 0,0 m -0.416,-34.022 c 2.019,0.071 4.435,-0.265 4.885,2.648 0.397,2.57 -7.356,11.196 -9.925,11.069 -2.259,-0.112 -3.485,-1.323 -2.933,-3.723 1.053,-4.578 0.292,-10.618 7.973,-9.994 M 33.575,5.232 c -0.579,2.047 -1.075,5.615 -2.591,8.678 -1.708,3.45 -5.651,4.148 -8.533,2.487 -3.224,-1.859 -0.282,-4.603 0.931,-6.54 1.344,-2.148 3.066,-3.685 2.494,-6.808 -0.473,-2.573 1.899,-4.27 4.488,-4.324 3.569,-0.075 2.975,2.822 3.211,6.507 M 9.403,29.817 c -2.5,-0.218 -5.032,0.322 -5.111,-2.31 -0.067,-2.225 0.454,-4.558 2.962,-5.956 8.05,-4.487 16.927,-2.03 21.295,6.167 0.962,1.805 0.86,3.738 -0.784,5.18 -1.58,1.385 -4.594,1.75 -5.184,0.554 C 19.228,26.657 14.057,28.19 9.403,29.817 m -37.855,-153.493 c -1.31,6.085 -0.16,12.248 -0.588,18.36 2.725,7.613 2.156,15.606 1.709,23.35 -0.231,3.994 1.921,9.054 -2.562,12.349 -0.181,0.89 -0.362,1.779 -0.543,2.669 1.578,0.892 1.653,1.849 0.128,2.878 0.134,1.37 0.269,2.74 0.403,4.111 3.82,4.082 2.876,8.484 0.871,12.957 0.028,0.943 0.056,1.885 0.084,2.828 2.233,0.169 2.617,1.538 2.329,3.452 -1.762,11.679 -0.851,23.435 -1.053,35.161 -0.108,6.301 2.359,9.309 8.84,8.363 0.374,-0.18 0.469,-0.456 0.285,-0.828 -0.441,-0.811 -0.345,-1.509 0.436,-2.062 0.367,-0.336 0.575,-0.752 0.623,-1.247 0.148,-3.4 1.443,-5.803 5.245,-6.019 0.192,-0.775 0.384,-1.549 0.576,-2.324 -0.662,-3.568 2.086,-4.712 5.012,-6.872 -0.217,3.594 5.16,6.988 -1.475,9.175 l -0.403,0.48 c 1.188,3.338 -0.703,6.45 -0.757,9.741 -0.094,5.683 -1.905,9.399 -9.226,7.627 -6.121,-1.482 -9.007,1.659 -9.076,8.219 -0.052,4.858 2.536,11.436 1.271,14.071 -4.536,9.457 0.793,15.431 5.145,21.765 2.545,3.704 1.7,5.908 -1.516,7.262 -3.834,1.614 -4.574,4.701 -4.753,7.927 -0.341,6.126 -0.202,12.281 -0.179,18.424 0.007,1.892 0.003,4.079 2.971,3.499 1.728,-0.338 3.435,-0.658 3.877,1.653 0.396,2.075 -0.53,3.992 -2.269,4.833 -4.826,2.332 -4.846,6.452 -4.583,10.818 0.238,3.959 1.299,8.118 0.451,11.835 -1.402,6.149 2.37,13.11 -2.965,18.545 -0.027,1.403 -0.054,2.807 -0.081,4.211 4.147,3.26 3.999,6.613 0.217,10.045 -0.952,2.32 -0.68,4.646 -0.037,6.974 3.457,1.898 3.411,3.846 0.082,5.839 -1.169,8.012 -0.753,16.054 -0.457,24.094 0.486,1.019 1.393,2.038 1.395,3.058 0.047,16.567 -0.017,33.135 -0.065,49.702 -0.006,1.988 -0.23,3.862 -2.79,4.149 0.018,1.407 0.037,2.814 0.056,4.222 3.852,0.969 2.834,3.98 2.209,6.27 -0.891,3.27 -0.797,6.521 -0.807,9.798 -0.055,16.466 -0.067,32.933 -0.088,49.4 -0.006,4.909 -0.417,9.734 -2.787,14.177 0.084,1.888 0.168,3.777 0.251,5.665 3.108,3.544 5.902,6.419 3.106,12.284 -2.496,5.234 -0.77,12.011 -3.447,17.66 -0.002,1.388 -0.003,2.775 -0.004,4.163 3.107,7.979 0.849,16.283 1.451,24.415 0.49,6.608 2.357,8.451 8.458,6.146 6.966,-2.632 14.052,-2.052 21.055,-1.824 3.835,0.124 7.547,1.423 7.581,-3.951 0.03,-4.706 -2.568,-6.488 -7.591,-5.272 -4.786,1.158 -6.171,-1.364 -4.015,-5.633 1.619,-3.203 3.611,-6.979 7.679,-6.225 3.742,0.693 7.726,2.4 8.107,7.516 0.317,4.265 4.72,4.678 7.244,6.779 0.948,0.789 2.241,-1.558 2.486,-2.806 1.449,-7.382 5.849,-5.768 10.519,-3.653 2.143,0.971 4.251,2.145 6.505,2.709 2.529,0.634 4.986,0.403 4.237,-3.399 -1.033,-5.248 2.304,-4.952 5.524,-4.07 3.276,0.898 7.124,1.208 8.006,-2.121 1.525,-5.75 5.697,-9.683 8.14,-14.698 3.663,-7.521 11.737,-10.186 18.054,-5.023 3.046,2.489 4.897,2.526 6.932,-0.22 3.641,-4.912 9.318,-7.852 12.5,-13.163 1.318,-2.2 3.324,-2.68 5.525,-1.937 11.426,3.86 24.254,2.77 34.755,10.038 2.242,1.55 3.969,2.844 2.619,5.55 -1.119,2.245 -3.373,4.066 -5.725,2.489 -2.502,-1.679 -5.285,-1.973 -7.919,-2.855 -1.671,-0.56 -4.429,-2.671 -5.308,0.634 -0.665,2.498 -1.744,6.238 1.711,7.494 3.554,1.292 5.472,4.352 8.47,6.189 2.403,1.473 3.757,3.15 6.313,0.019 2.366,-2.898 4.032,-0.925 4.812,1.858 0.901,3.219 2.346,5.846 6.332,5.085 9.567,-1.826 19.182,-0.529 28.646,0.28 10.493,0.896 20.297,-3.35 30.672,-2.653 2.757,0.185 5.573,-0.432 8.371,0.42 4.461,1.36 6.891,-0.3 6.944,-5.061 0.139,-12.581 3.101,-25.113 0.882,-37.711 -0.445,-2.529 -0.342,-4.433 0.978,-6.647 1.395,-2.34 1.634,-5.159 -0.777,-7.102 -2.65,-2.134 -2.457,-4.906 -2.484,-7.744 -0.033,-3.54 -0.294,-7.01 -0.938,-10.549 -0.881,-4.851 -3.453,-5.856 -7.86,-6.072 -5.897,-0.289 -5.494,3.492 -5.982,7.326 -0.448,3.522 -2.334,6.74 -6.299,6.32 -4.605,-0.487 -2.843,-4.605 -3.003,-7.408 -0.065,-1.133 0.431,-2.31 0.733,-3.45 0.604,-2.278 -0.083,-3.695 -2.55,-3.995 -3.807,-0.462 -7.402,-0.279 -9.904,3.244 -2.282,-3.704 -5.846,-5.167 -9.95,-5.643 -0.447,-0.052 -0.923,0.152 -1.385,0.24 -8.994,1.704 -17.969,1.6 -27.102,0.789 -11.698,-1.039 -23.482,-1.142 -35.234,-1.49 -3.871,-0.115 -8.234,0.353 -9.256,-4.448 -1.284,-6.031 -5.239,-12.366 0.468,-18.297 0.011,-0.894 0.022,-1.789 0.034,-2.684 -4.067,-3.911 -4.538,-7.753 0.217,-11.496 0.159,-2.299 0.317,-4.598 0.476,-6.898 -3.037,-3.316 -2.971,-6.73 -0.326,-10.227 0.039,-0.869 0.077,-1.738 0.116,-2.608 -2.189,-1.411 -1.785,-3.646 -1.785,-5.727 -0.003,-12.746 -0.019,-25.491 0.049,-38.237 0.014,-2.458 -0.679,-5.471 3.133,-6.042 0.015,-0.87 0.03,-1.739 0.044,-2.609 -1.398,-0.79 -1.794,-2.114 -1.798,-3.576 -0.032,-14.072 -0.051,-28.143 -0.056,-42.214 0,-1.975 0.284,-3.821 2.776,-4.164 0.051,-0.934 0.102,-1.868 0.153,-2.802 -1.266,-0.128 -2.74,-0.735 -2.408,-1.982 1.486,-5.584 -0.163,-11.248 0.572,-16.706 0.5,-3.719 -1.641,-8.164 2.141,-11.283 0.043,-1.338 0.085,-2.675 0.128,-4.013 -2.256,-6.473 -1.686,-13.301 -2.351,-19.964 -0.141,-1.41 1.273,-3.003 3.324,-2.923 0.043,-0.975 0.087,-1.949 0.13,-2.924 -3.975,-3.511 -4.319,-17.753 -0.551,-22.78 0.289,-1.821 0.578,-3.641 0.867,-5.462 -5.716,-8.598 -2.14,-17.224 -0.081,-25.846 0.004,-0.863 0.009,-1.727 0.014,-2.59 -2.807,-3.901 -2.958,-7.783 0.082,-11.643 -0.022,-0.857 -0.044,-1.713 -0.066,-2.57 -2.395,-2.832 -3.398,-5.449 1.111,-7.218 -0.003,-0.968 -0.006,-1.936 -0.009,-2.904 -5.48,-3.14 -3.403,-7.847 -1.441,-11.428 1.432,-2.613 4.537,-5.931 8.486,-2.176 2.336,-0.182 4.672,-0.363 7.009,-0.545 1.356,-3.869 3.418,-3.39 5.8,-0.942 0.867,0.027 1.734,0.054 2.601,0.081 2.414,-2.774 4.451,-3.173 5.774,0.917 1.442,-0.029 2.883,-0.058 4.324,-0.088 0.192,-1.622 1.161,-2.485 2.729,-2.641 7.095,-0.709 14.318,0.807 21.348,-2.205 2.215,-0.949 5.33,1.212 5.849,4.625 0.895,-0.022 1.789,-0.044 2.684,-0.066 5.458,-4.553 10.589,-4.573 15.827,-0.062 1.342,-0.066 2.684,-0.131 4.026,-0.196 2.629,-3.129 5.101,-3.758 7.274,0.452 1.396,-0.034 2.793,-0.069 4.19,-0.103 0.7,-3.287 3.606,-3.079 5.533,-2.564 4.795,1.283 10.052,-3.331 14.452,1.278 0.932,0.038 1.864,0.076 2.797,0.114 3.494,-3.166 7.703,-0.947 11.542,-1.526 1.792,-0.271 4.665,-0.042 2.824,-3.007 -3.315,-5.337 0.593,-8.535 3.788,-10.463 4.07,-2.456 4.617,-5.468 4.604,-9.419 -0.037,-10.876 0.042,-21.752 0.061,-32.628 0.006,-3.098 -0.032,-6.196 2.663,-8.439 0.048,-0.938 0.096,-1.876 0.144,-2.815 -4.172,-4.791 -1.504,-9.55 0.066,-14.314 0.025,-0.902 0.049,-1.805 0.074,-2.707 -4.044,-2.988 -8.538,-5.518 -2.871,-11.382 2.249,-2.327 0.125,-5.048 -2.87,-5.606 -4.962,-0.923 -9.995,-1.791 -15.024,-1.972 -11.925,-0.431 -23.833,0.031 -35.808,-0.718 -27.235,-1.705 -54.517,1.278 -81.843,-0.013 -22.928,-1.083 -45.946,-0.311 -68.924,-0.319 -20.758,-0.007 -41.518,0.179 -62.274,-0.017 -6.204,-0.059 -11.542,1.233 -15.838,5.855" style="fill:#08282e;fill-opacity:1;fill-rule:nonzero;stroke:none" transform="matrix(1.3333333,0,0,-1.3333333,2573.7879,2394.7208)" />
      <path id="path18" d="m 0,0 c -1.588,-0.793 -5.805,1.718 -5.733,-2.88 0.039,-2.534 1.087,-6.285 4.943,-5.157 2.883,0.844 8.061,-1.055 8.159,4.046 C 7.438,-0.422 4.099,0.718 0,0 m 172.696,194.408 c 0.197,-2.14 0.317,-6.616 3.849,-6.109 5.139,0.739 4.396,6.814 5.851,10.586 0.747,1.936 -0.882,5.923 -3.896,5.446 -4.57,-0.723 -5.882,-4.716 -5.804,-9.923 m 26.898,-5.08 c 1.018,-0.972 4.611,1.332 3.514,-2.905 -0.319,-1.23 -2.128,-2.314 -0.526,-3.628 0.48,-0.395 1.829,-0.187 2.509,0.21 1.644,0.959 1.82,2.533 1.35,4.318 -1.278,4.86 -2.624,9.545 -8.565,10.783 -2.033,0.424 -4.562,2.095 -5.699,-0.244 -1.262,-2.594 -2.677,-5.891 -1.462,-8.699 0.929,-2.147 3.718,-1.265 5.78,-0.756 0.911,0.225 1.802,0.532 3.099,0.921 M 91.435,15.169 c 0.667,3.711 -1.016,7.044 -3.188,8.472 -6.671,4.383 -12.414,9.777 -18.458,14.865 -1.746,1.469 -4.007,2.347 -6.077,3.406 -2.368,1.212 -5.243,2.437 -7.085,-0.036 -2.369,-3.181 0.802,-5.228 2.848,-6.899 1.968,-1.606 4.588,-2.383 6.733,-3.808 5.503,-3.658 12.747,-5.509 12.247,-14.752 -0.245,-4.53 3.936,-6.72 8.467,-6.424 3.126,0.204 5.482,1.629 4.513,5.176 M 56.331,265.815 c 2.773,0.905 5.597,0.544 8.415,0.34 3.834,-2.331 7.657,-2.517 11.469,0.051 0.906,0.004 1.811,0.008 2.718,0.012 2.828,-2.267 5.695,-2.525 8.612,-0.166 4.261,0.449 8.521,0.658 12.778,-0.057 1.528,-1.956 2.963,-1.806 4.315,0.192 3.316,-0.109 6.633,-0.219 9.949,-0.329 3.33,-0.541 6.677,-5.268 9.984,0.039 0.92,0.054 1.84,0.109 2.76,0.164 0.309,-1.099 0.769,-1.412 1.506,-0.29 1.337,-0.169 2.675,-0.337 4.012,-0.505 3.568,-2.856 7.057,-4.149 10.244,0.518 0.874,-0.035 1.748,-0.07 2.622,-0.105 4.14,-3.529 25.552,-3.815 29.887,-0.38 0.138,0.11 0.099,0.443 0.144,0.672 2.821,-0.059 5.642,-0.118 8.464,-0.177 5.166,-2.264 10.402,-1.876 15.667,-0.413 0.971,0.1 1.943,0.199 2.915,0.298 1.103,-2.359 3.153,-2.721 5.37,-2.325 7.869,1.409 15.803,-0.02 23.775,0.684 7.121,0.628 14.846,0.82 22.148,-1.905 3.628,-1.353 5.022,-2.044 4.793,-6.649 -0.497,-9.956 -0.631,-20.045 -0.277,-29.959 0.68,-19.038 1.668,-38.082 2.462,-57.129 0.224,-5.392 -1.562,-7.839 -7.274,-7.603 -6.58,0.272 -13.137,0.027 -19.752,-0.967 -8.925,-1.342 -12.762,1.447 -14.7,8.79 l 0.019,0.486 c 0,0 0.436,0.217 0.436,0.217 4.674,0.406 6.213,4.14 6.655,7.673 0.287,2.304 -2.555,3.977 -5.12,3.755 -3.554,-0.309 -7.237,-0.927 -7.118,-5.885 -0.019,-0.51 -0.267,-0.857 -0.743,-1.042 -2.755,-0.413 -3.211,-3.249 -4.949,-4.759 -1.837,-1.595 -3.005,-2.417 -5.252,-0.235 -5.61,5.446 -10.368,4.636 -14.391,-1.956 -1.999,-3.275 -4.94,-7.9 -8.303,-6.594 -7.119,2.764 -13.771,0.242 -20.422,0.69 -9.961,0.671 -18.903,-2.313 -28.292,-3.612 -1.084,-0.055 -2.168,-0.109 -3.251,-0.163 -2.421,1.621 -4.458,1.697 -5.705,-1.415 -1.439,-1.391 -2.627,-2.932 -2.982,-4.973 -1.917,-6.206 -2.417,-12.384 0.37,-18.497 1.625,-7.509 0.498,-15.13 0.923,-22.688 -1.107,-0.559 -0.953,-1.028 0.1,-1.435 -0.008,-0.959 -0.016,-1.917 -0.025,-2.876 -1.406,-0.84 -1.456,-1.746 -0.134,-2.719 -0.032,-1.504 -0.063,-3.008 -0.095,-4.511 -1.474,-6.406 -2.78,-12.928 -2.056,-19.459 2.141,-19.299 0.379,-38.663 1.365,-57.956 0.531,-10.385 -3.91,-20.697 0.665,-31.31 1.349,-3.129 -0.907,-8.152 0.247,-12.411 0.472,-1.746 -0.878,-3.607 -2.701,-3.454 -4.534,0.378 -9.029,-4.994 -13.614,0.018 -1.053,1.152 -2.558,0.266 -3.901,-0.421 -8.122,-4.156 -16.872,-0.335 -25.732,-3.18 3.25,8.224 1.912,12.567 -3.334,12.435 -4.417,-0.11 -8.807,-1.448 -13.203,-2.274 -2.065,-0.388 -2.458,-1.938 -2.467,-3.726 -0.007,-1.472 0.14,-3.055 1.59,-3.683 2.77,-1.201 2.163,1.375 2.797,2.675 0.842,1.724 1.846,0.641 2.716,-0.081 2.32,-1.927 3.247,-4.202 1.029,-6.709 -1.92,-2.17 -4.055,-3.043 -6.678,-0.608 -2.907,2.698 -4.379,5.557 -4.69,9.776 -0.366,4.982 -4.978,7.847 -9.341,7.581 -5.786,-0.352 -0.554,-4.994 -1.406,-7.748 -1.234,0.14 -2.232,0.024 -3.015,0.381 -3.883,1.767 -7.506,0.274 -11.004,-1.008 -3.351,-1.227 -1.663,-4.484 -2.043,-6.871 -0.35,-2.202 -2.07,-3.177 -3.652,-4.069 -4.707,-2.654 -9.51,-5.145 -14.325,-7.603 -2.448,-1.25 -5.316,-1.854 -7.185,0.505 -4.209,5.313 -10.929,7.004 -15.673,11.462 -0.088,0.925 -0.176,1.85 -0.265,2.775 1.585,0.936 1.572,1.872 -0.001,2.806 -0.009,1.434 -0.017,2.868 -0.026,4.301 1.535,0.94 1.584,1.878 -0.004,2.813 -0.372,4.254 -0.963,8.517 0.462,12.706 5.543,3.885 0.723,8.643 0.768,12.85 0.237,22.638 -0.146,45.284 -0.503,67.924 -0.037,2.32 0.099,5.44 -3.445,6.104 -0.766,1.888 -0.718,3.765 0.073,5.632 4.937,3.459 2.39,6.73 -0.253,9.998 0.016,1.894 0.031,3.789 0.046,5.684 1.916,3.139 2.858,6.168 -0.973,8.662 -0.003,0.86 -0.007,1.721 -0.01,2.581 3.369,2.464 3.363,4.92 -0.019,7.367 -0.617,1.337 -0.604,2.675 -0.007,4.015 4.039,4.29 3.516,8.665 0.245,13.091 -1.951,6.525 -0.883,13.147 -0.629,19.742 1.635,1.84 4.304,3.615 0.366,5.805 -0.138,1.853 -0.275,3.706 -0.413,5.559 1.872,1.532 1.716,2.973 -0.197,4.334 0.016,0.914 0.033,1.828 0.049,2.742 4.225,7.766 1.555,16.31 0.927,23.931 -1.469,17.847 0.762,35.619 -0.705,53.369 -0.461,5.568 2.691,7.979 7.594,7.816 5.849,-0.193 11.585,1.7 17.515,0.415 2.131,-0.462 5.489,-1.263 6.113,2.738 0.92,-0.14 1.841,-0.28 2.761,-0.42 4.378,-3.775 8.7,-4.226 12.942,0.215 0.879,-0.135 1.759,-0.27 2.638,-0.405 2.55,-3.354 5.013,-3.442 7.376,0.198 3.244,0.969 6.482,0.872 9.715,-0.063 2.992,-3.504 5.918,-3.964 8.744,0.191" style="fill:#08282e;fill-opacity:1;fill-rule:nonzero;stroke:none" transform="matrix(1.3333333,0,0,-1.3333333,2547.3639,1773.0456)" />
      <path id="path23" d="M 0,0 C 1.136,0.735 3.838,-1.349 4.809,1.657 5.126,2.637 -1.426,11.604 -2.302,11.665 -6.336,11.948 -6.861,9.273 -6.978,6.194 -7.146,1.754 -5.192,-0.481 0,0 m 83.411,-47.56 c 7.838,1.97 15.412,1.011 22.956,-0.819 1.131,-0.274 2.345,-0.385 3.506,-0.322 2.249,0.123 3.44,1.495 3.407,3.691 -0.04,2.591 -1.695,3.022 -3.889,2.6 -1.872,-0.36 -3.705,-0.362 -5.512,0.507 -8.224,3.955 -14.036,2.599 -20.468,-5.657 M 28.535,3.091 C 27.306,3.499 14.089,-7.214 14.263,-7.961 c 0.315,-1.358 0.752,-2.725 1.39,-3.959 0.754,-1.46 1.995,-2.686 2.639,-4.181 2.911,-6.751 6.073,-7.543 11.112,-1.966 2.691,2.978 5.805,3.948 9.361,4.185 8.219,0.547 10.832,3.888 8.537,11.697 -0.503,1.714 0.142,2.717 0.909,3.816 0.695,0.997 1.756,0.715 2.394,-0.072 4.579,-5.653 5.588,-0.517 6.693,2.445 0.766,2.056 1.327,4.198 3.204,5.283 3.151,1.822 6.368,4.616 3.785,7.617 -1.971,2.289 -6.47,0.683 -9.594,-0.977 C 54.1,15.613 53.775,14.83 53.215,14.413 49.892,11.94 46.62,11.104 43.217,14.443 40.624,16.988 38.975,18.171 37.099,13.049 35.697,9.218 34.479,3.461 28.535,3.091 m -68.712,21.327 c 4.743,-4.458 11.463,-6.149 15.672,-11.462 1.869,-2.36 4.737,-1.756 7.186,-0.506 4.814,2.458 9.617,4.949 14.325,7.603 1.582,0.892 3.301,1.867 3.652,4.069 0.379,2.387 -1.309,5.644 2.042,6.872 3.499,1.282 7.121,2.775 11.004,1.007 0.783,-0.356 1.781,-0.241 3.016,-0.381 0.851,2.754 -4.38,7.396 1.405,7.748 4.363,0.266 8.975,-2.599 9.342,-7.581 0.31,-4.218 1.782,-7.077 4.689,-9.776 2.623,-2.434 4.758,-1.562 6.679,0.609 2.218,2.506 1.291,4.782 -1.029,6.708 -0.87,0.722 -1.874,1.806 -2.716,0.081 -0.635,-1.299 -0.028,-3.876 -2.798,-2.675 -1.449,0.629 -1.596,2.212 -1.589,3.683 0.008,1.788 0.402,3.338 2.466,3.726 4.397,0.826 8.786,2.164 13.204,2.275 5.246,0.131 6.583,-4.212 3.334,-12.436 8.859,2.845 17.61,-0.976 25.732,3.18 1.342,0.687 2.847,1.573 3.901,0.422 4.584,-5.012 9.08,0.36 13.614,-0.019 1.822,-0.152 3.173,1.709 2.7,3.454 -1.153,4.26 1.102,9.282 -0.246,12.411 -4.575,10.613 -0.134,20.926 -0.665,31.31 -0.987,19.294 0.775,38.657 -1.365,57.956 -0.725,6.531 0.582,13.053 2.056,19.459 2.877,-7.559 1.977,-15.467 2.126,-23.272 0.343,-17.907 1.216,-35.829 0.799,-53.72 -0.416,-17.887 1.951,-35.728 0.375,-53.6 -0.124,-1.411 0.325,-3.141 -0.336,-4.19 -3.816,-6.05 -3.296,-12.366 -1.664,-18.832 -9.727,2.332 -5.518,-6.137 -8.477,-9.569 4.538,-1.126 6.729,2.074 9.753,2.871 1.12,-5.567 -3.779,-7.1 -6.678,-6.664 -9.601,1.444 -19.854,-0.455 -28.719,5.504 -4.083,2.745 -8.095,1.11 -10.473,-3.062 -1.044,-1.832 -1.965,-3.246 -4.124,-3.201 -6.426,0.137 -5.953,-4.007 -4.87,-8.127 1.306,-4.965 4.957,-2.094 7.299,-1.425 3.303,0.944 6.487,1.02 9.798,0.783 1.882,-0.135 4.423,-0.947 5.562,-0.051 10.794,8.496 17.628,-0.216 24.152,-6.141 4.918,-4.465 5.659,1.775 8.722,1.754 0.262,-6.493 6.137,-5.865 10.071,-7.618 1.213,-0.541 1.51,1.154 1.879,2.335 1.399,4.489 7.054,7.315 10.524,4.483 3.463,-2.827 6.893,-2.366 9.812,-1.127 12.726,5.401 26.028,3.013 39.106,3.663 14.484,0.72 28.937,-2.058 43.443,-0.147 8.303,1.094 11.275,-1.445 11.528,-10.059 0.55,-18.679 1.266,-37.377 0.876,-56.046 -0.134,-6.384 -1.717,-12.306 0.501,-18.98 1.924,-5.786 -2.315,-9.148 -8.95,-9.376 -35.25,-1.211 -70.511,-0.318 -105.765,-0.502 -9.674,-0.05 -9.656,0.076 -9.579,-9.892 0.023,-2.964 0.805,-6.239 -1.896,-8.669 -5.706,5.93 -1.752,12.265 -0.467,18.296 1.022,4.801 5.384,4.333 9.255,4.448 11.752,0.348 23.537,0.451 35.234,1.49 9.133,0.811 18.108,0.915 27.103,-0.789 0.461,-0.088 0.938,-0.292 1.384,-0.24 4.105,0.476 7.668,1.939 9.95,5.642 2.502,-3.522 6.097,-3.705 9.904,-3.243 2.467,0.3 3.154,1.717 2.551,3.995 -0.302,1.14 -0.798,2.317 -0.734,3.45 0.161,2.803 -1.602,6.921 3.004,7.408 3.964,0.419 5.85,-2.798 6.299,-6.32 0.488,-3.835 0.084,-7.615 5.982,-7.326 4.406,0.215 6.978,1.221 7.86,6.072 0.643,3.538 0.904,7.009 0.938,10.549 0.027,2.838 -0.166,5.61 2.483,7.744 2.412,1.943 2.172,4.762 0.777,7.102 -1.319,2.214 -1.423,4.118 -0.977,6.647 2.218,12.598 -0.744,25.13 -0.883,37.711 -0.052,4.761 -2.482,6.42 -6.943,5.061 -2.799,-0.853 -5.614,-0.235 -8.371,-0.42 -10.375,-0.697 -20.179,3.549 -30.672,2.653 -9.465,-0.809 -19.079,-2.106 -28.646,-0.28 -3.986,0.761 -5.431,-1.866 -6.333,-5.085 -0.78,-2.783 -2.445,-4.756 -4.811,-1.858 -2.556,3.131 -3.911,1.454 -6.314,-0.019 -2.997,-1.838 -4.916,-4.897 -8.47,-6.189 -3.454,-1.256 -2.375,-4.996 -1.711,-7.495 0.88,-3.304 3.637,-1.193 5.309,-0.633 2.633,0.882 5.417,1.176 7.919,2.855 2.351,1.577 4.605,-0.244 5.725,-2.489 1.35,-2.706 -0.378,-4 -2.619,-5.551 -10.502,-7.267 -23.329,-6.177 -34.755,-10.037 -2.202,-0.743 -4.208,-0.263 -5.526,1.937 -3.181,5.311 -8.859,8.251 -12.499,13.163 -2.036,2.746 -3.887,2.709 -6.933,0.22 -6.316,-5.163 -14.391,-2.498 -18.054,5.023 -2.443,5.015 -6.614,8.948 -8.139,14.698 -0.883,3.329 -4.73,3.019 -8.007,2.121 -3.22,-0.882 -6.557,-1.178 -5.523,4.069 0.749,3.803 -1.708,4.034 -4.238,3.4 -2.253,-0.564 -4.362,-1.738 -6.504,-2.709 -4.671,-2.115 -9.07,-3.729 -10.519,3.653 -0.246,1.248 -1.538,3.595 -2.487,2.806 -2.523,-2.101 -6.926,-2.514 -7.244,-6.779 -0.381,-5.117 -4.365,-6.823 -8.107,-7.516 -4.067,-0.754 -6.06,3.022 -7.678,6.225 -2.157,4.269 -0.771,6.791 4.015,5.633 5.023,-1.216 7.621,0.566 7.591,5.272 -0.035,5.374 -3.746,4.075 -7.582,3.951 -7.002,-0.228 -14.089,-0.809 -21.055,1.823 -6.1,2.305 -7.968,0.463 -8.457,-6.145 -0.603,-8.133 1.655,-16.436 -1.452,-24.415 -3.22,8.604 -1.348,17.521 -1.19,26.254 0.074,4.075 0.714,8.175 0.225,12.296 3.127,-0.854 5.539,-2.437 9.647,-0.851 4.063,1.567 9.366,3.509 14.319,1.089 1.893,-0.925 3.881,-2.277 5.758,-0.181 0.455,0.508 0.482,1.86 0.139,2.536 -1.066,2.096 -3.048,2.915 -5.319,2.811 -5.759,-0.264 -11.106,0.495 -16.205,3.74 -2.832,1.802 -6.603,2.324 -8.525,-2.088 -1.615,0.826 -1.846,3.009 -1.117,3.556 6.35,4.767 1.718,10.003 0.945,15.07 -0.063,0.416 0.221,0.885 0.344,1.329" style="fill:#494f57;fill-opacity:1;fill-rule:nonzero;stroke:none" transform="matrix(1.3333333,0,0,-1.3333333,2581.53,1845.15)" />
      <path id="path169" d="m 0,0 c 4.295,-4.623 9.634,-5.914 15.838,-5.856 20.756,0.196 41.516,0.011 62.274,0.018 22.978,0.008 45.995,-0.764 68.924,0.319 27.326,1.291 54.608,-1.692 81.843,0.012 11.975,0.75 23.882,0.288 35.808,0.718 5.029,0.181 10.062,1.049 15.024,1.973 2.995,0.557 5.119,3.278 2.87,5.605 -5.667,5.865 -1.174,8.395 2.871,11.382 3.752,-6.484 1.509,-13.318 0.62,-19.866 -0.435,-3.201 -4.466,-2.762 -7.311,-2.78 -15.843,-0.101 -31.686,-0.226 -47.53,-0.309 C 193.834,-8.978 156.437,-9.197 119.04,-9.32 93.505,-9.404 67.961,-8.949 42.439,-9.526 30.839,-9.788 19.346,-8.28 7.779,-8.756 1.733,-9.005 -0.861,-5.988 0,0" style="fill:#494f57;fill-opacity:1;fill-rule:nonzero;stroke:none" transform="matrix(1.3333333,0,0,-1.3333333,2535.8523,2559.6217)" />
      <path id="path198" d="m 0,0 c -6.482,0.946 -8.948,-2.062 -8.84,-8.363 0.202,-11.727 -0.709,-23.482 1.052,-35.161 0.289,-1.914 -0.095,-3.283 -2.328,-3.452 -2.317,16.129 -2.981,32.185 0.032,48.391 1.127,6.059 -1.817,12.248 -1.979,18.598 -0.18,7.086 -0.344,14.193 0.245,21.195 1.727,20.49 -1.222,40.916 -0.3,61.382 0.509,11.3 0.553,22.621 0.807,33.932 5.336,-5.435 1.564,-12.397 2.966,-18.545 0.848,-3.717 -0.213,-7.876 -0.451,-11.835 -0.263,-4.366 -0.243,-8.486 4.583,-10.819 1.739,-0.84 2.665,-2.757 2.269,-4.832 -0.442,-2.311 -2.149,-1.991 -3.877,-1.653 -2.968,0.58 -2.964,-1.607 -2.971,-3.499 -0.024,-6.143 -0.162,-12.298 0.179,-18.424 0.179,-3.226 0.919,-6.313 4.753,-7.927 3.216,-1.354 4.061,-3.558 1.516,-7.262 -4.352,-6.334 -9.681,-12.308 -5.145,-21.765 1.265,-2.635 -1.323,-9.213 -1.272,-14.072 0.07,-6.559 2.956,-9.7 9.077,-8.218 7.321,1.772 9.132,-1.944 9.225,-7.628 0.055,-3.29 1.946,-6.402 0.758,-9.739 -1.173,0.347 -2.347,0.695 -3.52,1.042 C 5.201,-5.812 7.506,-2.753 6.284,0.115 5.538,1.866 5.995,4.601 2.944,4.489 -0.015,4.38 0.18,2.027 0,0" style="fill:#494f57;fill-opacity:1;fill-rule:nonzero;stroke:none" transform="matrix(1.3333333,0,0,-1.3333333,2548.6761,2390.9847)" />
      <path id="path204" d="m 0,0 c 1.938,-7.344 5.775,-10.132 14.7,-8.79 6.615,0.994 13.172,1.239 19.752,0.967 5.712,-0.236 7.498,2.211 7.273,7.603 -0.793,19.046 -1.782,38.091 -2.461,57.129 -0.354,9.914 -0.22,20.002 0.277,29.958 0.229,4.606 -1.165,5.297 -4.793,6.65 -7.303,2.724 -15.027,2.533 -22.149,1.905 -7.972,-0.704 -15.906,0.725 -23.774,-0.684 -2.217,-0.397 -4.267,-0.034 -5.37,2.325 9.897,2.797 20.068,0.984 30.097,1.683 7.032,0.491 14.161,0.003 21.222,-0.438 5.566,-0.348 8.508,-3.571 8.4,-9.332 -0.574,-30.48 0.53,-60.933 1.464,-91.39 0.226,-7.339 -2.282,-9.822 -9.719,-9.57 -9.677,0.328 -19.329,0.33 -28.996,-0.238 -2.753,-0.162 -6.316,-0.446 -7.511,2.668 C -2.797,-6.404 -3.311,-2.71 0,0" style="fill:#494f57;fill-opacity:1;fill-rule:nonzero;stroke:none" transform="matrix(1.3333333,0,0,-1.3333333,2839.8139,1548.2237)" />
      <path id="path232" d="m 0,0 c 9.39,1.299 18.332,4.283 28.292,3.613 6.652,-0.448 13.304,2.074 20.423,-0.691 3.362,-1.305 6.303,3.32 8.302,6.595 4.023,6.591 8.781,7.401 14.391,1.955 2.248,-2.181 3.416,-1.359 5.253,0.236 1.738,1.509 2.194,4.345 4.948,4.758 C 83.504,9.495 77.109,7.122 73.511,6.216 66.033,4.332 58.341,3.5 51.506,-0.512 50.968,-0.828 50.076,-0.78 49.419,-0.618 34.68,3.011 20.179,-1.771 5.551,-1.767 3.659,-1.767 1.173,-2.662 0,0" style="fill:#494f57;fill-opacity:1;fill-rule:nonzero;stroke:none" transform="matrix(1.3333333,0,0,-1.3333333,2723.1727,1563.2407)" />
      <path id="path237" d="m 0,0 c -0.624,-4.001 -3.983,-3.2 -6.114,-2.738 -5.929,1.285 -11.665,-0.608 -17.514,-0.415 -4.904,0.163 -8.055,-2.248 -7.595,-7.816 1.468,-17.75 -0.763,-35.522 0.706,-53.369 0.627,-7.621 3.298,-16.165 -0.927,-23.931 -3.571,12.803 -2.626,26.013 -3.14,39.042 -0.547,13.876 0.223,27.8 0.228,41.704 0.001,3.79 0.919,7.13 5.005,7.093 C -19.558,-0.519 -9.814,2.841 0,0" style="fill:#494f57;fill-opacity:1;fill-rule:nonzero;stroke:none" transform="matrix(1.3333333,0,0,-1.3333333,2563.5709,1418.2469)" />
      <path id="path239" d="m 0,0 c -2.695,2.243 -2.657,5.341 -2.662,8.439 -0.02,10.876 -0.099,21.752 -0.062,32.628 0.014,3.951 -0.533,6.963 -4.604,9.419 -3.194,1.928 -7.103,5.126 -3.788,10.463 1.841,2.965 -1.032,2.736 -2.824,3.007 -3.839,0.579 -8.048,-1.64 -11.542,1.526 6.93,3.289 14.342,2.261 21.503,1.779 3.894,-0.263 5.87,-3.927 2.433,-7.025 C -4.45,57.618 -3.692,56.095 -1.713,53.931 -0.007,52.065 0.322,49.798 0.385,47.353 0.75,33.278 1.236,19.207 1.571,5.132 1.613,3.354 1.996,1.252 0,0" style="fill:#494f57;fill-opacity:1;fill-rule:nonzero;stroke:none" transform="matrix(1.3333333,0,0,-1.3333333,2916.0755,2514.278)" />
      <path id="path263" d="M 0,0 C 3.544,-0.664 3.408,-3.784 3.445,-6.104 3.802,-28.744 4.185,-51.39 3.948,-74.028 3.903,-78.236 8.723,-82.993 3.18,-86.879 -0.095,-73.96 1.418,-60.727 0.786,-47.648 0.073,-32.908 0.684,-18.111 -0.689,-3.377 -0.791,-2.282 -0.245,-1.127 0,0" style="fill:#494f57;fill-opacity:1;fill-rule:nonzero;stroke:none" transform="matrix(1.3333333,0,0,-1.3333333,2523.9412,1662.8879)" />
      <path id="path268" d="m 0,0 c 1.922,4.412 5.693,3.89 8.525,2.088 5.099,-3.245 10.446,-4.004 16.205,-3.74 2.271,0.104 4.253,-0.715 5.319,-2.812 C 30.392,-5.139 30.365,-6.491 29.91,-7 28.033,-9.095 26.045,-7.743 24.152,-6.818 19.199,-4.398 13.896,-6.34 9.833,-7.907 5.725,-9.493 3.313,-7.91 0.186,-7.056 -0.666,-4.725 -0.402,-2.364 0,0" style="fill:#08282e;fill-opacity:1;fill-rule:nonzero;stroke:none" transform="matrix(1.3333333,0,0,-1.3333333,2527.7313,1839.1993)" />
      <path id="path271" d="m 0,0 c 2.37,-4.442 2.781,-9.268 2.787,-14.177 0.021,-16.467 0.033,-32.933 0.087,-49.4 0.011,-3.276 -0.083,-6.528 0.808,-9.797 0.625,-2.291 1.643,-5.301 -2.21,-6.271 -3.277,8.182 -1.46,16.772 -1.58,25.115 -0.244,16.894 -0.121,33.79 -1.026,50.672 C -1.206,-2.496 -1.35,-0.997 0,0" style="fill:#494f57;fill-opacity:1;fill-rule:nonzero;stroke:none" transform="matrix(1.3333333,0,0,-1.3333333,2529.3924,1953.0372)" />
      <path id="path306" d="m 0,0 c -3.812,0.571 -3.12,3.585 -3.133,6.043 -0.069,12.745 -0.053,25.491 -0.05,38.236 10e-4,2.082 -0.403,4.316 1.786,5.728 C 2.627,40.565 0.342,30.534 0.769,20.841 1.068,14.032 3.07,6.807 0,0" style="fill:#494f57;fill-opacity:1;fill-rule:nonzero;stroke:none" transform="matrix(1.3333333,0,0,-1.3333333,2717.7219,2144.6733)" />
      <path id="path309" d="m 0,0 c 2.56,-0.286 2.784,-2.161 2.79,-4.149 0.048,-16.567 0.113,-33.134 0.066,-49.701 -0.003,-1.021 -0.91,-2.04 -1.396,-3.059 -2.986,6.705 -1.086,13.834 -1.613,20.742 -0.856,11.228 -0.666,22.535 -0.95,33.808 C -1.129,-1.333 -0.904,-0.536 0,0" style="fill:#494f57;fill-opacity:1;fill-rule:nonzero;stroke:none" transform="matrix(1.3333333,0,0,-1.3333333,2531.2809,2064.8599)" />
      <path id="path332" d="m 0,0 c -2.492,0.343 -2.776,2.189 -2.775,4.164 0.005,14.071 0.023,28.142 0.056,42.214 0.003,1.462 0.399,2.786 1.798,3.576 C 2.357,44.076 0.191,37.643 0.647,31.518 1.426,21.062 1.192,10.487 0,0" style="fill:#494f57;fill-opacity:1;fill-rule:nonzero;stroke:none" transform="matrix(1.3333333,0,0,-1.3333333,2719.0088,2214.7568)" />
      <path id="path353" d="M 0,0 C 2.677,-5.649 0.951,-12.426 3.447,-17.66 6.244,-23.525 3.449,-26.401 0.342,-29.944 -2.019,-19.988 -1.407,-9.999 0,0" style="fill:#494f57;fill-opacity:1;fill-rule:nonzero;stroke:none" transform="matrix(1.3333333,0,0,-1.3333333,2529.2715,1905.5581)" />
      <path id="path366" d="m 0,0 c 4.483,-3.295 2.331,-8.355 2.562,-12.349 0.447,-7.744 1.016,-15.737 -1.709,-23.35 -0.31,0.343 -0.883,0.68 -0.892,1.03 C -0.317,-23.113 -1.205,-11.554 0,0" style="fill:#494f57;fill-opacity:1;fill-rule:nonzero;stroke:none" transform="matrix(1.3333333,0,0,-1.3333333,2533.9305,2487.5436)" />
      <path id="path377" d="m 0,0 c -0.519,-3.413 -3.634,-5.574 -5.849,-4.625 -7.03,3.013 -14.254,1.496 -21.348,2.205 -1.568,0.156 -2.537,1.019 -2.729,2.641 6.311,1.219 12.778,1.677 18.891,-0.12 C -7.136,-1.046 -3.637,0.957 0,0" style="fill:#494f57;fill-opacity:1;fill-rule:nonzero;stroke:none" transform="matrix(1.3333333,0,0,-1.3333333,2806.3893,2425.4397)" />
      <path id="path381" d="M 0,0 C -3.024,-0.797 -5.215,-3.997 -9.753,-2.871 -6.794,0.561 -11.002,9.03 -1.275,6.698 0.185,4.662 1.072,2.518 0,0" style="fill:#08282e;fill-opacity:1;fill-rule:nonzero;stroke:none" transform="matrix(1.3333333,0,0,-1.3333333,2712.2096,1856.0261)" />
      <path id="path385" d="M 0,0 C -0.044,-0.229 -0.006,-0.562 -0.144,-0.672 -4.479,-4.107 -25.891,-3.821 -30.031,-0.292 -20.032,1.013 -10.014,0.239 0,0" style="fill:#494f57;fill-opacity:1;fill-rule:nonzero;stroke:none" transform="matrix(1.3333333,0,0,-1.3333333,2781.6915,1418.4181)" />
      <path id="path389" d="m 0,0 c -3.782,3.12 -1.641,7.565 -2.141,11.284 -0.735,5.457 0.914,11.121 -0.572,16.706 -0.332,1.246 1.142,1.854 2.407,1.981 C 2.147,20.005 1.598,10.008 0,0" style="fill:#494f57;fill-opacity:1;fill-rule:nonzero;stroke:none" transform="matrix(1.3333333,0,0,-1.3333333,2719.6201,2258.4547)" />
      <path id="path406" d="M 0,0 C -0.119,4.958 3.564,5.576 7.118,5.884 9.682,6.107 12.525,4.433 12.237,2.13 11.796,-1.404 10.256,-5.138 5.583,-5.543 4.507,-3.15 9.023,-1.153 6.247,1.168 3.98,3.063 2.218,-0.21 0,0" style="fill:#494f57;fill-opacity:1;fill-rule:nonzero;stroke:none" transform="matrix(1.3333333,0,0,-1.3333333,2832.9765,1539.8956)" />
      <path id="path417" d="m 0,0 c -2.05,-0.08 -3.465,1.513 -3.324,2.922 0.666,6.664 0.095,13.492 2.351,19.965 C 3.719,15.444 -0.788,7.609 0,0" style="fill:#494f57;fill-opacity:1;fill-rule:nonzero;stroke:none" transform="matrix(1.3333333,0,0,-1.3333333,2721.0875,2294.3208)" />
      <path id="path418" d="M 0,0 C -2.059,8.622 -5.635,17.249 0.081,25.846 -0.737,17.233 3.604,8.604 0,0" style="fill:#494f57;fill-opacity:1;fill-rule:nonzero;stroke:none" transform="matrix(1.3333333,0,0,-1.3333333,2721.5744,2370.3371)" />
      <path id="path426" d="M 0,0 C -3.768,5.027 -3.424,19.269 0.551,22.78 1.676,15.155 1.828,7.554 0,0" style="fill:#494f57;fill-opacity:1;fill-rule:nonzero;stroke:none" transform="matrix(1.3333333,0,0,-1.3333333,2720.5265,2328.5935)" />
      <path id="path438" d="m 0,0 c -3.949,-3.755 -7.054,-0.436 -8.486,2.176 -1.962,3.581 -4.039,8.288 1.441,11.428 C -6.666,8.05 -7.024,2.114 0,0" style="fill:#494f57;fill-opacity:1;fill-rule:nonzero;stroke:none" transform="matrix(1.3333333,0,0,-1.3333333,2732.4772,2424.3761)" />
      <path id="path439" d="m 0,0 c -4.4,-4.609 -9.656,0.005 -14.451,-1.278 -1.927,-0.515 -4.834,-0.723 -5.533,2.564 C -13.278,1.554 -6.49,3.1 0,0" style="fill:#494f57;fill-opacity:1;fill-rule:nonzero;stroke:none" transform="matrix(1.3333333,0,0,-1.3333333,2878.3701,2427.1211)" />
      <path id="path447" d="M 0,0 C -2.786,6.113 -2.287,12.291 -0.37,18.497 2.104,12.378 1.462,6.197 0,0" style="fill:#494f57;fill-opacity:1;fill-rule:nonzero;stroke:none" transform="matrix(1.3333333,0,0,-1.3333333,2707.7488,1596.6375)" />
      <path id="path466" d="M 0,0 C -4.241,-4.441 -8.564,-3.989 -12.942,-0.215 -8.669,2.323 -4.344,1.757 0,0" style="fill:#494f57;fill-opacity:1;fill-rule:nonzero;stroke:none" transform="matrix(1.3333333,0,0,-1.3333333,2584.5073,1418.5207)" />
      <path id="path482" d="M 0,0 C -1.571,4.764 -4.238,9.523 -0.067,14.314 1.411,9.55 3.211,4.786 0,0" style="fill:#494f57;fill-opacity:1;fill-rule:nonzero;stroke:none" transform="matrix(1.3333333,0,0,-1.3333333,2916.3564,2537.1171)" />
      <path id="path490" d="M 0,0 C -5.238,-4.511 -10.368,-4.491 -15.827,0.062 -10.551,0.042 -5.276,0.021 0,0" style="fill:#494f57;fill-opacity:1;fill-rule:nonzero;stroke:none" transform="matrix(1.3333333,0,0,-1.3333333,2831.07,2425.6103)" />
      <path id="path494" d="M 0,0 C -4.755,3.743 -4.284,7.585 -0.218,11.495 0.465,7.676 3.533,3.9 0,0" style="fill:#494f57;fill-opacity:1;fill-rule:nonzero;stroke:none" transform="matrix(1.3333333,0,0,-1.3333333,2715.5043,2051.6869)" />
      <path id="path504" d="M 0,0 C 3.271,-4.426 3.794,-8.801 -0.244,-13.091 -0.925,-8.713 -0.906,-4.348 0,0" style="fill:#494f57;fill-opacity:1;fill-rule:nonzero;stroke:none" transform="matrix(1.3333333,0,0,-1.3333333,2522.7435,1586.8488)" />
      <path id="path507" d="M 0,0 C 2.005,-4.473 2.949,-8.875 -0.871,-12.958 -1.352,-8.587 -2.468,-4.173 0,0" style="fill:#494f57;fill-opacity:1;fill-rule:nonzero;stroke:none" transform="matrix(1.3333333,0,0,-1.3333333,2535.0759,2457.3901)" />
      <path id="path533" d="M 0,0 C -3.811,-2.568 -7.635,-2.382 -11.468,-0.052 -7.658,2.686 -3.829,1.293 0,0" style="fill:#494f57;fill-opacity:1;fill-rule:nonzero;stroke:none" transform="matrix(1.3333333,0,0,-1.3333333,2648.9833,1418.104)" />
      <path id="path540" d="M 0,0 C -3.04,3.86 -2.889,7.742 -0.081,11.643 2.312,7.779 2.559,3.899 0,0" style="fill:#494f57;fill-opacity:1;fill-rule:nonzero;stroke:none" transform="matrix(1.3333333,0,0,-1.3333333,2721.702,2389.3144)" />
      <path id="path551" d="M 0,0 C 2.642,-3.268 5.19,-6.539 0.253,-9.998 -0.493,-6.682 -1.837,-3.381 0,0" style="fill:#494f57;fill-opacity:1;fill-rule:nonzero;stroke:none" transform="matrix(1.3333333,0,0,-1.3333333,2523.7015,1642.0483)" />
      <path id="path562" d="M 0,0 C -2.645,3.496 -2.711,6.911 0.326,10.226 2.935,6.731 3.099,3.314 0,0" style="fill:#494f57;fill-opacity:1;fill-rule:nonzero;stroke:none" transform="matrix(1.3333333,0,0,-1.3333333,2715.7037,2074.5203)" />
      <path id="path566" d="M 0,0 C -3.187,-4.667 -6.676,-3.375 -10.244,-0.519 -6.906,1.159 -3.478,1.073 0,0" style="fill:#494f57;fill-opacity:1;fill-rule:nonzero;stroke:none" transform="matrix(1.3333333,0,0,-1.3333333,2738.1549,1418.6665)" />
      <path id="path569" d="M 0,0 C 3.782,-3.432 3.931,-6.785 -0.216,-10.045 -1.281,-6.672 -0.137,-3.347 0,0" style="fill:#494f57;fill-opacity:1;fill-rule:nonzero;stroke:none" transform="matrix(1.3333333,0,0,-1.3333333,2533.7767,2189.948)" />
      <path id="path573" d="M 0,0 C -3.308,-5.306 -6.654,-0.58 -9.984,-0.039 -6.67,3.408 -3.331,0.756 0,0" style="fill:#494f57;fill-opacity:1;fill-rule:nonzero;stroke:none" transform="matrix(1.3333333,0,0,-1.3333333,2713.4592,1418.5168)" />
      <path id="path592" d="M 0,0 C -2.917,-2.359 -5.784,-2.101 -8.612,0.166 -5.7,2.256 -2.822,2.595 0,0" style="fill:#494f57;fill-opacity:1;fill-rule:nonzero;stroke:none" transform="matrix(1.3333333,0,0,-1.3333333,2664.0901,1418.3091)" />
      <path id="path612" d="M 0,0 C 3.831,-2.493 2.889,-5.523 0.974,-8.662 -1.158,-5.978 -0.75,-3.008 0,0" style="fill:#494f57;fill-opacity:1;fill-rule:nonzero;stroke:none" transform="matrix(1.3333333,0,0,-1.3333333,2522.4651,1622.9204)" />
      <path id="path617" d="M 0,0 C -2.826,-4.155 -5.752,-3.695 -8.744,-0.19 -5.851,0.872 -2.944,1.285 0,0" style="fill:#494f57;fill-opacity:1;fill-rule:nonzero;stroke:none" transform="matrix(1.3333333,0,0,-1.3333333,2622.4719,1418.6261)" />
      <path id="path622" d="M 0,0 C -5.264,-1.463 -10.5,-1.851 -15.667,0.413 -10.392,2.278 -5.178,1.813 0,0" style="fill:#494f57;fill-opacity:1;fill-rule:nonzero;stroke:none" transform="matrix(1.3333333,0,0,-1.3333333,2813.8663,1419.2036)" />
      <path id="path646" d="M 0,0 C 3.382,-2.448 3.388,-4.903 0.018,-7.367 -0.81,-4.914 -1.042,-2.458 0,0" style="fill:#494f57;fill-opacity:1;fill-rule:nonzero;stroke:none" transform="matrix(1.3333333,0,0,-1.3333333,2522.4272,1609.6557)" />
      <path id="path651" d="M 0,0 C -2.172,-4.21 -4.645,-3.581 -7.273,-0.452 -4.914,0.739 -2.5,1.058 0,0" style="fill:#494f57;fill-opacity:1;fill-rule:nonzero;stroke:none" transform="matrix(1.3333333,0,0,-1.3333333,2846.1367,2425.2687)" />
      <path id="path652" d="M 0,0 C -4.509,1.769 -3.506,4.386 -1.111,7.218 1.059,5.089 0.491,2.539 0,0" style="fill:#494f57;fill-opacity:1;fill-rule:nonzero;stroke:none" transform="matrix(1.3333333,0,0,-1.3333333,2723.096,2402.3645)" />
      <path id="path655" d="M 0,0 C -2.363,-3.639 -4.825,-3.552 -7.376,-0.198 -4.937,0.62 -2.492,1.181 0,0" style="fill:#494f57;fill-opacity:1;fill-rule:nonzero;stroke:none" transform="matrix(1.3333333,0,0,-1.3333333,2597.8596,1418.7964)" />
      <path id="path1057" d="m 0,0 c 4.654,-1.627 9.825,-3.16 13.177,3.635 0.59,1.196 3.604,0.831 5.185,-0.555 1.643,-1.441 1.746,-3.374 0.784,-5.179 C 14.778,-10.296 5.901,-12.754 -2.15,-8.266 -4.657,-6.868 -5.178,-4.535 -5.112,-2.311 -5.033,0.321 -2.5,-0.219 0,0" style="fill:#494f57;fill-opacity:1;fill-rule:nonzero;stroke:none" transform="matrix(1.3333333,0,0,-1.3333333,2586.3259,2354.9645)" />
      <path id="path1058" d="m 0,0 c -0.237,-3.685 0.358,-6.582 -3.211,-6.507 -2.59,0.054 -4.961,1.751 -4.489,4.324 0.573,3.124 -1.149,4.661 -2.494,6.809 -1.212,1.937 -4.155,4.68 -0.93,6.539 2.882,1.661 6.824,0.964 8.532,-2.487 C -1.076,5.615 -0.579,2.047 0,0" style="fill:#494f57;fill-opacity:1;fill-rule:nonzero;stroke:none" transform="matrix(1.3333333,0,0,-1.3333333,2618.5551,2387.7452)" />
      <path id="path1059" d="m 0,0 c -7.681,-0.624 -6.919,5.416 -7.973,9.993 -0.552,2.401 0.674,3.611 2.933,3.724 C -2.471,13.844 5.282,5.217 4.885,2.648 4.435,-0.265 2.019,0.071 0,0" style="fill:#494f57;fill-opacity:1;fill-rule:nonzero;stroke:none" transform="matrix(1.3333333,0,0,-1.3333333,2573.2331,2440.0833)" />
      <path id="path1060" d="m 0,0 c 6.329,-0.894 10.613,-6.442 17.142,-6.626 1.403,-0.039 2.151,-1.82 1.721,-3.362 -0.533,-1.91 -1.879,-2.47 -3.823,-1.939 C 8.307,-10.087 4.223,-5.033 0,0" style="fill:#494f57;fill-opacity:1;fill-rule:nonzero;stroke:none" transform="matrix(1.3333333,0,0,-1.3333333,2573.7879,2394.7208)" />
      <path id="path1061" d="m 0,0 c 0.18,2.027 -0.015,4.38 2.944,4.489 3.051,0.112 2.594,-2.623 3.34,-4.374 1.222,-2.868 -1.083,-5.927 0.495,-8.77 0,0 0.157,0.094 0.157,0.094 -1.054,2.499 -2.413,4.611 -5.592,4.424 -0.048,0.495 -0.256,0.911 -0.623,1.246 0.801,0.888 0.489,1.54 -0.436,2.063 C 0.469,-0.456 0.374,-0.18 0,0" style="fill:#dedbe1;fill-opacity:1;fill-rule:nonzero;stroke:none" transform="matrix(1.3333333,0,0,-1.3333333,2548.6761,2390.9847)" />
      <path id="path1062" d="m 0,0 c 6.636,-2.187 1.258,-5.581 1.476,-9.175 -2.927,2.16 -5.675,3.304 -5.013,6.872 C -2.086,-1.953 -0.654,-1.574 0,0" style="fill:#494f57;fill-opacity:1;fill-rule:nonzero;stroke:none" transform="matrix(1.3333333,0,0,-1.3333333,2562.9448,2404.5544)" />
      <path id="path1064" d="M 0,0 C -0.116,-0.531 -0.232,-1.062 -0.348,-1.594 -4.15,-1.379 -5.444,1.024 -5.593,4.424 -2.414,4.611 -1.054,2.499 0,0" style="fill:#494f57;fill-opacity:1;fill-rule:nonzero;stroke:none" transform="matrix(1.3333333,0,0,-1.3333333,2557.9245,2402.3997)" />
      <path id="path1066" d="m 0,0 c 0.969,-3.547 -1.387,-4.972 -4.513,-5.176 -4.531,-0.296 -8.712,1.894 -8.467,6.424 0.5,9.243 -6.744,11.094 -12.247,14.752 -2.145,1.426 -4.765,2.202 -6.733,3.808 -2.046,1.671 -5.217,3.718 -2.848,6.899 1.842,2.473 4.717,1.248 7.085,0.036 2.07,-1.059 4.331,-1.936 6.077,-3.406 C -15.603,18.249 -9.859,12.855 -3.188,8.472 -1.016,7.044 0.667,3.711 0,0" style="fill:#dedbe1;fill-opacity:1;fill-rule:nonzero;stroke:none" transform="matrix(1.3333333,0,0,-1.3333333,2669.2773,1752.8204)" />
      <path id="path1067" d="m 0,0 c -1.298,-0.389 -2.188,-0.696 -3.1,-0.921 -2.062,-0.51 -4.85,-1.392 -5.78,0.755 -1.215,2.808 0.2,6.106 1.462,8.7 1.138,2.338 3.666,0.668 5.7,0.244 C 4.222,7.539 5.568,2.854 6.847,-2.006 7.317,-3.79 7.14,-5.364 5.496,-6.324 4.816,-6.72 3.467,-6.928 2.987,-6.534 1.385,-5.22 3.195,-4.136 3.513,-2.906 4.611,1.331 1.018,-0.973 0,0" style="fill:#494f57;fill-opacity:1;fill-rule:nonzero;stroke:none" transform="matrix(1.3333333,0,0,-1.3333333,2813.4899,1520.6076)" />
      <path id="path1068" d="M 0,0 C -0.078,5.207 1.234,9.199 5.803,9.922 8.818,10.399 10.447,6.413 9.7,4.477 8.245,0.705 8.988,-5.371 3.849,-6.109 0.317,-6.617 0.197,-2.14 0,0" style="fill:#494f57;fill-opacity:1;fill-rule:nonzero;stroke:none" transform="matrix(1.3333333,0,0,-1.3333333,2777.6253,1513.8344)" />
      <path id="path1069" d="M 0,0 C 4.099,0.718 7.438,-0.422 7.369,-3.991 7.271,-9.092 2.093,-7.193 -0.79,-8.037 -4.646,-9.165 -5.694,-5.414 -5.733,-2.88 -5.805,1.718 -1.588,-0.793 0,0" style="fill:#494f57;fill-opacity:1;fill-rule:nonzero;stroke:none" transform="matrix(1.3333333,0,0,-1.3333333,2547.3639,1773.0456)" />
      <path id="path1076" d="m 0,0 c 5.944,0.37 7.161,6.127 8.564,9.958 1.875,5.122 3.524,3.938 6.117,1.394 3.403,-3.339 6.676,-2.504 9.999,-0.03 0.56,0.417 0.885,1.2 1.478,1.514 3.124,1.659 7.623,3.266 9.594,0.977 C 38.334,10.812 35.118,8.017 31.966,6.196 30.089,5.111 29.529,2.969 28.763,0.913 27.658,-2.05 26.649,-7.185 22.069,-1.532 c -0.637,0.786 -1.698,1.069 -2.393,0.072 -0.767,-1.099 -1.413,-2.103 -0.909,-3.816 2.295,-7.809 -0.318,-11.15 -8.538,-11.697 -3.555,-0.237 -6.669,-1.207 -9.36,-4.185 -5.039,-5.577 -8.202,-4.785 -11.112,1.966 -0.644,1.494 -1.886,2.721 -2.64,4.181 -0.637,1.234 -1.074,2.601 -1.389,3.959 C -14.446,-10.305 -1.23,0.408 0,0" style="fill:#dedbe1;fill-opacity:1;fill-rule:nonzero;stroke:none" transform="matrix(1.3333333,0,0,-1.3333333,2619.5769,1841.0284)" />
      <path id="path1077" d="m 0,0 c 6.432,8.256 12.244,9.612 20.468,5.658 1.808,-0.869 3.64,-0.868 5.513,-0.508 2.193,0.422 3.848,-0.009 3.888,-2.6 0.033,-2.195 -1.158,-3.568 -3.407,-3.69 -1.161,-0.064 -2.375,0.047 -3.506,0.322 C 15.412,1.012 7.838,1.971 0,0" style="fill:#dedbe1;fill-opacity:1;fill-rule:nonzero;stroke:none" transform="matrix(1.3333333,0,0,-1.3333333,2692.7443,1908.5637)" />
      <path id="path1078" d="m 0,0 c -5.192,-0.481 -7.146,1.754 -6.978,6.194 0.117,3.079 0.642,5.754 4.676,5.471 C -1.426,11.604 5.126,2.637 4.809,1.657 3.838,-1.349 1.136,0.735 0,0" style="fill:#dedbe1;fill-opacity:1;fill-rule:nonzero;stroke:none" transform="matrix(1.3333333,0,0,-1.3333333,2581.53,1845.15)" />
      </g></svg>