<?xml version='1.0' encoding='utf-8'?>
<svg xmlns="http://www.w3.org/2000/svg" version="1.1" width="260.652" height="273.066" viewBox="1362.990 3482.260 260.652 273.066"><g id="object"><path id="path4" d="M 0,0 C -1.677,34.874 -20.918,53.746 -52.2,53.317 -83.09,52.893 -106.068,30.689 -106.423,0 Z m 6.571,-57.816 c 8.003,-6.194 14.998,-11.608 21.724,-16.812 -16.424,-41.495 -90.33,-48.097 -126.071,-29.867 -42.34,21.596 -61.86,77.932 -42.839,127.384 17.427,45.31 68.834,68.854 119.556,54.757 41.371,-11.499 66.982,-57.532 57.758,-106.78 h -143.987 c -2.251,-24.023 9.741,-36.935 27.248,-46.161 28.497,-15.019 47.542,-11.28 86.611,17.479" style="fill:#ffffff;fill-opacity:1;fill-rule:nonzero;stroke:none" transform="matrix(1.3333333,0,0,-1.3333333,1566.2044,3597.2157)" />
      <path id="path11" d="M 0,0 H -106.423 C -106.068,30.689 -83.09,52.893 -52.2,53.317 -20.918,53.746 -1.677,34.874 0,0" style="fill:#781a22;fill-opacity:1;fill-rule:nonzero;stroke:none" transform="matrix(1.3333333,0,0,-1.3333333,1566.2044,3597.2157)" />
      </g></svg>