<?xml version='1.0' encoding='utf-8'?>
<svg xmlns="http://www.w3.org/2000/svg" version="1.1" width="219.694" height="1175.199" viewBox="1696.590 192.960 219.694 1175.199"><g id="object"><path id="path14" d="M 0,0 C 0.376,0.187 0.917,0.284 1.036,0.563 1.153,0.835 0.842,1.292 0.718,1.667 0.268,1.431 -0.182,1.194 -0.633,0.957 -0.426,0.645 -0.22,0.333 0,0 m 28.77,13.372 c -0.406,2.047 -1.647,3.317 -3.859,3.188 -2.288,-0.133 -3.325,-1.66 -3.213,-3.811 0.117,-2.234 1.508,-3.479 3.726,-3.255 2.118,0.213 3.361,1.526 3.346,3.878 M -25.633,1.533 c 0.826,-1.283 -0.93,-4.623 2.634,-4.115 1.773,0.254 4.437,1.434 4.281,3.833 -0.147,2.264 -1.657,4.757 -4.064,5.091 -3.341,0.464 -2.249,-2.674 -2.851,-4.809 m 17.541,-261.095 c -1.87,-0.213 -3.721,-0.666 -3.453,-2.713 0.289,-2.199 1.939,-3.777 4.291,-3.673 1.816,0.08 4.134,0.745 4.091,2.907 -0.059,2.991 -2.882,3.027 -4.929,3.479 m 84.523,47.368 c -2.924,3.598 -6.22,3.38 -9.001,3.842 -2.771,0.461 -4.841,-1.408 -4.074,-4.268 0.691,-2.575 1.368,-6.466 4.592,-6.49 4.401,-0.033 2.855,7.047 8.483,6.916 M 2.155,127.124 c -0.318,1.569 1.589,4.071 -1.607,4.431 -2.553,0.288 -5.358,0.524 -6.864,-2.282 -1.438,-2.68 -2.307,-5.711 -3.991,-8.206 -3.113,-4.611 1.081,-4.27 3.092,-4.342 3.711,-0.133 9.39,6.563 9.37,10.399 M 41.313,-48.927 c -3.444,-0.077 -4.546,-1.841 -3.135,-4.999 0.931,-2.085 2.839,-3.847 1.627,-6.455 -0.666,-1.432 -3.118,-2.856 0.35,-4.159 2.606,-0.978 5.19,-1.668 7.087,0.656 3.008,3.686 -0.618,7.479 -0.469,11.329 0.102,2.622 -3.006,3.132 -5.46,3.628 M 4.163,-268.035 c -0.12,-0.021 -3.585,2.941 -3.711,-2.009 -0.095,-3.721 2.152,-4.906 5.502,-4.74 2.718,0.135 5.091,-0.834 7.258,-2.377 2.047,-1.456 4.26,-2.741 6.113,-0.057 1.571,2.276 0.311,4.39 -1.082,6.475 -3.181,4.762 -7.756,3.339 -14.08,2.708 m 3.84,-21.262 c -7.793,-2.961 -14.108,2.004 -21.47,3.212 5.333,-2.411 1.726,-9.301 6.242,-11.307 3.429,-1.522 3.996,-3.046 1.985,-5.723 -1.686,-2.244 -0.473,-3.455 1.172,-4.625 2.124,-1.51 2.674,0.714 3.901,1.622 5.717,4.234 8.358,9.884 8.17,16.821 m -57.191,-58.076 c -0.317,2.318 -0.634,4.637 -0.95,6.955 3.073,1.563 2.268,4.046 1.545,6.511 -0.04,0.852 -0.08,1.705 -0.116,2.555 0.438,-0.081 1.009,-0.517 1.068,0.399 -0.351,-0.032 -0.701,-0.064 -1.052,-0.097 0,0 -0.051,0.23 -0.047,0.231 0.663,0.741 0.511,1.371 -0.258,1.916 -0.051,0.949 -0.101,1.898 -0.153,2.847 2.085,3.029 2.513,6.47 2.505,10.023 -0.04,16.4 -0.055,32.799 -0.132,49.198 -0.012,2.455 0.798,5.435 -2.934,6.183 0.104,0.935 0.209,1.87 0.314,2.806 3.797,0.668 3.601,2.914 3.351,6.234 -0.963,12.792 -1.612,25.622 -1.901,38.449 -0.328,14.509 -0.143,29.029 -0.182,43.544 -0.005,1.985 -0.219,3.838 -2.746,4.161 0.069,0.958 0.137,1.916 0.206,2.873 2.066,0.385 2.451,1.918 2.483,3.67 0.12,6.582 -0.726,13.137 0.086,19.757 0.695,5.667 3.603,11.468 -1.139,17.115 -1.504,1.791 0.834,5.556 -1.667,7.837 0.011,1.417 0.022,2.835 0.034,4.252 2.062,2.03 1.916,3.535 -1.039,4.373 -1.256,4.214 -0.434,8.368 0.356,12.523 2.003,2.162 2.9,4.226 -0.528,5.903 0.049,2.34 0.099,4.679 0.149,7.018 4.17,3.947 3.931,7.752 -0.368,11.426 -0.005,4.271 -0.01,8.541 -0.014,12.812 2.301,2.374 2.169,4.739 -0.029,7.096 0.03,8.546 0.06,17.093 0.089,25.638 4.476,2.082 3.419,4.562 0.518,7.175 -0.481,1.826 -0.738,3.656 -0.092,5.5 1.875,2.957 4.356,5.94 -0.365,8.619 0.195,1.377 0.389,2.754 0.583,4.131 4.864,5.926 4.888,13.881 0.052,17.333 -0.08,2.291 -0.159,4.583 -0.24,6.874 4.585,3.339 4.699,9.185 0.254,13.059 -0.193,0.914 -0.386,1.829 -0.58,2.744 2.154,2.407 2.185,4.762 -0.174,7.059 0.166,1.386 0.332,2.772 0.498,4.158 3.668,-1.205 3.874,4.687 7.679,3.617 5.961,-1.678 11.242,-1.468 13.228,6.012 0.26,0.979 1.409,2.33 2.263,2.42 1.972,0.21 1.313,-2.126 2.127,-2.982 3.809,-4.008 2.7,-9.593 4.808,-14.108 0.422,-0.906 0.619,-1.816 -0.314,-2.521 -0.893,-0.675 -1.878,-0.437 -2.553,0.251 -2.468,2.516 -5.822,2.733 -7.474,0.258 -4.246,-6.361 -7.636,-3.931 -11.219,0.93 -0.748,-1.472 -1.096,-2.338 -1.594,-3.106 -3.741,-5.759 0.869,-11.396 2.879,-14.959 1.95,-3.455 1.184,4.848 4.614,5.07 0.225,0.015 0.475,0.249 0.66,0.196 6.723,-1.923 13.237,3.736 19.987,0.549 l 0.012,-0.012 c -4.663,-10.9 2.366,-21.282 1.448,-32.022 -0.032,-0.366 0.376,-1.042 0.696,-1.125 5.026,-1.305 10.228,0.135 13.846,2.666 3.22,2.253 -0.699,4.862 -3.02,6.924 -2.72,2.416 -0.397,11.322 1.147,10.34 6.95,-4.422 9.647,7.074 16.059,3.565 1.758,-0.961 3.242,1.479 2.636,3.06 -2.201,5.742 2.909,8.707 4.688,12.824 2.087,4.833 6.211,4.201 8.941,0.712 2.576,-3.292 4.698,-6.885 7.901,-9.724 1.292,-1.145 2.827,-3.155 0.696,-4.84 -1.858,-1.469 -4.233,-1.319 -5.692,0.646 -1.533,2.064 -2.467,4.561 -3.811,6.78 -1.213,2.003 -2.526,4.627 -5.233,4.013 -3.046,-0.691 -0.04,-3.209 -0.746,-4.753 -0.587,-1.282 -1.452,-2.459 -1.886,-3.783 -1.327,-4.045 -1.089,-6.75 4.463,-6.873 7.055,-0.155 9.689,-3.465 9.331,-10.714 C 34.676,11.002 35.295,9.585 35.933,8.074 35.507,7.593 34.161,7.382 35.441,6.4 c 0.148,0.571 0.296,1.143 0.443,1.715 2.932,0.676 5.863,1.351 9.441,2.176 -4.349,3.937 -0.267,9.205 -3.17,13.524 -1.329,1.977 -0.958,5.713 1.478,7.072 3.562,1.988 3.004,-2.231 4.257,-3.745 0.299,-0.361 0.567,-0.936 0.939,-1.022 7.21,-1.657 5.616,-3.583 0.775,-7.042 -2.301,-1.645 -1.378,-5.276 0.869,-7.601 0.979,-1.012 3.008,-2.375 3.491,-1.037 1.304,3.614 2.015,4.706 4.949,1.086 0.565,-0.696 5.373,0.455 5.177,3.245 -0.341,4.853 -1.393,9.93 -7.147,11.69 -1.522,0.465 -3.898,-0.083 -4.158,1.881 -0.35,2.637 2.657,2.898 4.195,4.161 1.661,1.363 3.511,0.687 3.971,-1.143 1.031,-4.099 4.525,-2.739 7.641,-4.738 -0.619,3.17 -1.084,5.147 -0.686,7.31 1.713,9.313 2.14,18.367 -7.789,23.959 l -0.043,-0.054 c 7.674,0.288 8.712,1.593 6.6,8.536 -0.35,1.151 -1.016,2.316 -0.069,3.283 1.596,1.629 3.013,0.301 4.38,-0.583 1.473,-0.952 3.064,-1.802 4.263,0.139 0.89,1.439 -0.123,2.7 -1.152,3.74 -5.656,5.72 -8.791,12.795 -9.51,20.596 -0.587,6.364 -4.877,7.395 -9.255,9.214 -0.881,-1.934 -0.303,-3.002 0.732,-3.638 6.427,-3.948 2.71,-9.631 2.535,-14.679 -0.044,-1.275 -1.002,-2.119 -2.363,-2.192 -1.6,-0.086 -2.93,0.531 -3.011,2.251 -0.335,7.168 -5.926,6.092 -10.344,6.471 -1.773,0.152 -4.076,-1.25 -4.99,1.002 -1.257,3.095 2.556,2.68 3.637,4.283 1.396,2.071 3.582,0.112 5.282,0.823 1.302,0.544 2.939,1.035 2.463,2.849 -0.343,1.31 -1.038,2.788 -2.05,3.602 -1.716,1.38 -2.266,-0.366 -2.987,-1.589 -1.362,-2.312 -3.72,-2.835 -6.127,-2.891 -8.037,-0.189 -15.665,-6.769 -24.35,0.99 -4.716,4.212 -12.6,0.24 -19.068,-0.638 -4.975,-0.675 -7.863,-3.015 -8.477,-7.841 -0.427,-3.355 -1.677,-4.859 -4.167,-1.865 -4.77,5.734 -11.042,1.365 -16.489,2.452 -3.341,0.667 -8.614,-0.748 -12.604,-3.268 -2.841,-1.795 -3.509,0.847 -3.575,3.149 -0.417,14.567 0.109,29.149 -0.137,43.691 -0.144,8.538 5.062,16.846 0.748,25.471 -1.413,2.824 0.012,6.183 -0.439,9.014 -1.456,9.142 1.573,18.034 0.126,27.346 -1.652,10.638 -0.993,21.76 -0.19,32.586 0.286,3.857 1.752,6.77 -1.016,10.688 -2.872,4.065 0.904,8.569 5.992,9.688 4.9,1.078 10.656,-0.882 14.659,3.71 1.341,-0.295 2.681,-0.59 4.021,-0.884 0.646,-2.002 1.763,-3.121 4.123,-2.858 11.819,1.318 23.663,0.106 35.478,0.347 4.792,0.097 10.321,-2.206 14.685,2 0.918,-0.008 1.836,-0.015 2.754,-0.023 6.945,-3.43 14.32,-0.991 21.478,-1.46 3.494,-0.229 5.975,-0.589 5.244,-5.642 2.652,6.639 7.535,6.359 12.109,4.967 3.525,-1.072 6.425,-1.323 10.114,-0.329 2.611,0.704 7.627,1.229 7.795,-4.302 0.203,-6.716 -0.175,-13.597 -0.921,-20.088 -1.269,-11.051 2.263,-21.622 1.057,-32.755 -0.676,-6.246 0.674,-13.177 -0.157,-20.017 -0.451,-3.71 -2.661,-9.637 3.913,-11.677 0.237,-0.871 0.474,-1.742 0.711,-2.613 -3.754,-1.582 -3.557,-4.509 -3.828,-8.114 -0.477,-6.351 4.16,-13.173 -1.498,-19.155 -0.622,-0.658 -0.684,-2.493 -0.239,-3.411 3.527,-7.286 1.223,-14.161 -1.071,-21.123 -0.496,-1.506 -0.981,-3.747 -0.25,-4.808 5.493,-7.97 -0.849,-16.073 0.56,-24.02 -8.586,-7.779 -3.618,-15.611 -1.338,-24.363 1.939,-7.445 3.389,-15.545 4.673,-23.216 1.361,-8.125 0.193,-16.25 1.739,-24.408 2.527,-13.327 0.201,-27.504 1.169,-41.235 0.352,-4.983 -2.261,-10.818 2.263,-15.289 -0.1,-0.863 -0.201,-1.725 -0.301,-2.589 -3.091,-1.162 -3.145,-2.695 -0.554,-4.55 0.771,-3.671 1.811,-7.325 0.703,-11.115 -0.571,-0.281 -1.593,-0.52 -1.624,-0.852 -0.077,-0.829 0.669,-1.112 1.482,-0.99 0.67,-2.696 0.969,-5.397 0.134,-8.118 -0.966,0.014 -1.799,-0.373 -1.91,-1.344 -0.157,-1.371 0.757,-1.885 2.022,-1.885 -0.027,-0.818 -0.052,-1.636 -0.079,-2.454 -5.145,-0.699 -2.428,-5.235 -2.505,-7.17 -0.173,-4.324 -0.201,-9.197 2.876,-13.06 0.002,-1.349 0.005,-2.697 0.007,-4.045 -3.413,-0.729 -2.3,-3.5 -2.658,-5.695 -2.274,-13.932 4.257,-27.996 -1.684,-42.262 -1.809,-4.342 -1.895,-11.524 -0.76,-17.094 1.304,-6.409 -2.121,-8.586 -6.677,-10.393 -2.37,-0.941 -5.026,-1.142 -7.532,-1.763 -1.423,-0.352 -2.923,-1.068 -2.629,-2.761 0.272,-1.566 0.864,-3.341 1.922,-4.44 1.377,-1.431 2.277,0.01 3.213,1.221 2.166,2.8 2.874,0.254 3.788,-1.219 2.482,-3.998 -0.887,-8.616 0.292,-11.859 2.986,-8.211 3.512,-17.388 9.252,-24.648 1.604,-2.029 2.293,-5.008 -2.605,-4.692 -1.85,0.12 -5.534,-10.652 -4.114,-11.808 9.236,-7.518 9.513,-17.849 9.045,-28.356 -0.137,-3.06 2.801,-7.028 0.361,-8.818 -8.153,-5.979 0.238,-8.239 2.107,-11.955 0.406,-2.967 0.991,-5.938 -0.181,-8.874 -3.701,-11.996 -1.153,-24.002 -0.065,-36.007 1.049,-2.957 0.757,-5.983 0.46,-9.01 -2.034,-5.842 -2.811,-11.637 0.651,-17.272 0.094,-0.822 0.187,-1.643 0.281,-2.465 -3.606,-1.681 -2.098,-4.982 -2.091,-7.534 0.054,-21.413 0.545,-42.814 1.136,-64.224 0.936,-33.907 0.261,-67.857 0.337,-101.788 0.016,-7.035 -0.024,-14.101 0.59,-21.098 1.217,-13.858 1.304,-27.714 0.679,-41.579 -0.217,-4.808 -2.323,-7.845 -8.045,-7.355 -8.404,0.72 -16.794,-0.598 -25.294,-0.201 -17.755,0.83 -35.578,0.36 -53.37,0.185 -9.576,-0.094 -19.047,-2.859 -28.725,-1.182 -1.64,0.284 -3.335,-0.147 -4.162,-1.981 -0.874,-0.021 -1.747,-0.042 -2.621,-0.063 -1.958,5.67 -6.76,2.964 -10.306,3.199 -4.544,0.301 -8.082,1.291 -8.37,6.473 -1.537,27.605 -4.362,55.18 -2.017,82.886 0.263,3.107 -0.313,6.101 -3.376,7.908 0.987,4.31 0.406,8.641 0.173,12.967 1.074,1.775 1.459,3.517 -0.246,5.159 0.053,1.471 0.106,2.942 0.159,4.412 2.155,2.105 1.256,4.324 0.241,6.546 0,5.058 0,10.116 10e-4,15.174 0.946,1.773 1.404,3.517 -0.295,5.137 0.1,2.574 0.2,5.148 0.302,7.723 1.625,3.531 3.576,7.041 0.706,10.863 0.022,0.483 0.044,0.966 0.066,1.449 0.307,0.162 0.614,0.324 0.921,0.487 -0.347,0.267 -0.693,0.534 -1.039,0.801 -0.139,0.298 -0.313,0.586 -0.399,0.898 -0.04,0.145 0.093,0.337 0.148,0.508 1.877,3.758 1.74,7.845 1.765,11.854 0.09,14.537 0.336,29.083 -0.123,43.606 -0.123,3.899 3.382,6.857 1.777,10.739 -2.347,5.677 -1.588,11.393 -0.885,17.297 0.487,4.098 1.166,8.896 -3.248,11.952" style="fill:#08282e;fill-opacity:1;fill-rule:nonzero;stroke:none" transform="matrix(1.3333333,0,0,-1.3333333,1776.2052,539.8064)" />
      <path id="path24" d="m 0,0 c -0.352,1.809 -1.706,2.52 -3.467,2.593 -1.559,0.064 -3.625,0.673 -4.118,-1.5 -0.626,-2.758 1.958,-2.74 3.578,-3.234 C -2.259,-2.675 -0.847,-1.94 0,0 m 18.486,-12.122 c 9.463,2.518 16.725,-6.567 24.81,0.381 1.389,1.194 4.685,0.608 3.723,3.751 -0.696,2.274 -2.411,3.856 -5.255,3.7 -2.027,-0.111 -4.597,-0.846 -5.772,1.499 -2.695,5.382 -8.923,4.691 -12.95,7.826 -1.825,1.421 -4.059,0.035 -5.536,-1.751 -1.075,-1.301 -1.26,-2.94 0.425,-3.475 6.952,-2.204 4.246,-6.137 0.555,-11.931 m -56.195,-4.424 c 8.268,-0.263 15.081,4.259 22.504,6.7 3.545,1.166 3.41,4.363 2.868,7.118 -0.747,3.799 -3.412,2.111 -5.559,1.394 -2.5,-0.834 -5.059,-1.354 -7.582,-0.403 -4.192,1.581 -8.702,4.964 -10.378,-2.825 -0.214,-0.996 -1.519,-0.987 -2.433,-0.516 -5.962,3.072 -5.894,-1.822 -5.776,-4.974 0.13,-3.512 -0.587,-9.186 6.356,-6.494 m 12.643,187.165 c -4.003,-4.592 -9.759,-2.632 -14.659,-3.71 -5.088,-1.119 -8.864,-5.623 -5.993,-9.688 2.769,-3.918 1.303,-6.831 1.017,-10.688 -0.804,-10.826 -1.463,-21.948 0.19,-32.586 1.446,-9.312 -1.583,-18.204 -0.126,-27.346 0.451,-2.83 -0.974,-6.19 0.439,-9.014 4.314,-8.625 -0.893,-16.933 -0.748,-25.471 0.245,-14.542 -0.28,-29.124 0.137,-43.691 0.066,-2.301 0.734,-4.944 3.575,-3.149 3.99,2.52 9.263,3.935 12.604,3.268 5.447,-1.087 11.719,3.282 16.489,-2.452 2.49,-2.994 3.74,-1.49 4.167,1.866 0.614,4.825 3.502,7.165 8.477,7.84 6.468,0.878 14.351,4.85 19.067,0.638 8.686,-7.759 16.313,-1.178 24.35,-0.99 2.408,0.056 4.766,0.579 6.128,2.891 0.721,1.223 1.27,2.969 2.987,1.589 1.012,-0.814 1.707,-2.292 2.05,-3.602 0.475,-1.814 -1.161,-2.305 -2.463,-2.849 -1.701,-0.711 -3.886,1.248 -5.283,-0.823 -1.08,-1.603 -4.893,-1.188 -3.636,-4.283 0.913,-2.252 3.217,-0.85 4.99,-1.002 4.417,-0.379 10.009,0.697 10.344,-6.471 0.081,-1.72 1.411,-2.336 3.011,-2.251 1.361,0.073 2.319,0.917 2.363,2.192 0.175,5.048 3.892,10.731 -2.535,14.679 -1.035,0.636 -1.614,1.704 -0.733,3.639 4.378,-1.82 8.668,-2.851 9.255,-9.215 0.72,-7.801 3.855,-14.876 9.511,-20.596 1.028,-1.04 2.042,-2.301 1.152,-3.74 -1.2,-1.94 -2.791,-1.091 -4.263,-0.139 -1.367,0.884 -2.785,2.212 -4.38,0.583 -0.947,-0.967 -0.281,-2.131 0.069,-3.283 2.112,-6.943 1.074,-8.248 -6.6,-8.535 -3.127,2.335 -3.61,4.556 -0.111,7.153 1.325,0.983 3.739,2.207 2.327,4.471 -2.445,3.922 -9.267,-0.359 -10.949,5.535 -0.079,0.278 -1.705,0.484 -1.768,0.344 -1.536,-3.402 -5.834,-5.538 -4.737,-10.145 1.628,-6.834 7.957,-9.859 15.281,-7.305 9.929,-5.592 9.502,-14.646 7.789,-23.959 -0.398,-2.163 0.067,-4.14 0.686,-7.31 -3.116,1.999 -6.611,0.639 -7.641,4.738 -0.46,1.83 -2.31,2.506 -3.971,1.143 -1.538,-1.262 -4.545,-1.523 -4.196,-4.161 0.26,-1.963 2.637,-1.416 4.158,-1.881 5.755,-1.76 6.807,-6.837 7.148,-11.689 0.196,-2.791 -4.613,-3.942 -5.177,-3.246 -2.935,3.62 -3.645,2.528 -4.949,-1.085 -0.483,-1.339 -2.513,0.024 -3.491,1.036 -2.247,2.325 -3.17,5.956 -0.869,7.601 4.841,3.459 6.434,5.385 -0.776,7.042 -0.372,0.086 -0.639,0.661 -0.938,1.022 -1.254,1.514 -0.695,5.733 -4.258,3.745 -2.435,-1.359 -2.806,-5.094 -1.477,-7.072 2.903,-4.319 -1.18,-9.587 3.17,-13.524 -3.578,-0.825 -6.509,-1.5 -9.441,-2.176 l 0.049,-0.041 c -0.638,1.511 -1.258,2.928 -1.169,4.724 0.358,7.249 -2.276,10.559 -9.331,10.715 -5.553,0.122 -5.79,2.827 -4.463,6.872 0.434,1.324 1.299,2.501 1.885,3.783 0.707,1.544 -2.299,4.062 0.746,4.753 2.708,0.614 4.021,-2.01 5.234,-4.013 1.344,-2.218 2.278,-4.716 3.811,-6.78 1.459,-1.965 3.834,-2.115 5.692,-0.646 2.13,1.685 0.596,3.695 -0.696,4.84 -3.203,2.839 -5.325,6.432 -7.901,9.724 -2.73,3.489 -6.854,4.121 -8.942,-0.712 -1.778,-4.117 -6.888,-7.081 -4.687,-12.823 0.606,-1.582 -0.879,-4.022 -2.637,-3.06 -6.411,3.508 -9.108,-7.988 -16.058,-3.566 -1.544,0.982 -3.867,-7.924 -1.147,-10.34 2.321,-2.062 6.24,-4.671 3.02,-6.924 -3.618,-2.531 -8.821,-3.971 -13.846,-2.666 -0.32,0.083 -0.728,0.759 -0.697,1.125 0.919,10.74 -6.11,21.122 -1.448,32.022 2.408,0.283 2.985,-1.974 4.36,-3.13 1.582,-1.331 3.091,-1.248 4.086,0.623 0.577,1.086 2.834,2.755 1.203,3.352 -4.462,1.632 -5.044,8.65 -11.095,7.665 -0.131,0.097 -0.261,0.193 -0.391,0.289 0.145,-0.081 0.291,-0.162 0.437,-0.243 3.832,-2.3 1.63,-5.581 1.389,-8.544 -6.751,3.187 -13.264,-2.472 -19.987,-0.549 -0.185,0.053 -0.435,-0.181 -0.66,-0.196 -3.43,-0.221 -2.664,-8.525 -4.614,-5.07 -2.01,3.563 -6.62,9.2 -2.88,14.959 0.499,0.768 0.847,1.634 1.595,3.106 3.583,-4.861 6.973,-7.291 11.219,-0.93 1.652,2.475 5.006,2.258 7.474,-0.258 0.674,-0.688 1.659,-0.925 2.553,-0.251 0.933,0.705 0.736,1.615 0.314,2.521 -2.108,4.515 -0.999,10.1 -4.808,14.108 -0.814,0.856 -0.156,3.192 -2.128,2.982 -0.853,-0.09 -2.003,-1.441 -2.263,-2.42 -1.985,-7.479 -7.266,-7.69 -13.228,-6.012 -3.804,1.07 -4.01,-4.821 -7.679,-3.617 -1.72,23.128 -2.798,46.29 -2.425,69.478 0.17,10.576 1.483,21.324 1.063,31.703 -0.504,12.476 -0.421,24.957 -0.767,37.427 -0.351,12.675 -0.237,25.363 -0.463,38.043 -0.084,4.711 -0.74,9.412 -0.811,14.122 -0.117,7.852 3,11.04 10.699,9.858 4.667,-0.716 9.11,3.661 13.629,0.109" style="fill:#494f57;fill-opacity:1;fill-rule:nonzero;stroke:none" transform="matrix(1.3333333,0,0,-1.3333333,1768.4549,428.3292)" />
      <path id="path144" d="M 0,0 C 0.827,1.834 2.523,2.265 4.163,1.981 13.84,0.304 23.311,3.069 32.887,3.163 50.68,3.338 68.503,3.808 86.258,2.978 c 8.5,-0.397 16.889,0.921 25.293,0.201 5.723,-0.491 7.829,2.547 8.045,7.355 0.625,13.865 0.539,27.721 -0.678,41.579 -0.615,6.997 -0.575,14.063 -0.59,21.098 -0.077,33.931 0.598,67.881 -0.338,101.788 -0.591,21.409 -1.081,42.811 -1.136,64.224 -0.006,2.552 -1.515,5.853 2.091,7.534 2.039,-6.424 1.348,-13.276 1.063,-19.596 -0.997,-22.116 1.989,-44.102 1.248,-66.119 -0.482,-14.302 -0.074,-28.601 -0.651,-42.916 -0.763,-18.929 1.194,-37.957 1.698,-56.949 0.468,-17.599 0.652,-35.208 0.775,-52.813 0.043,-6.206 -4.21,-9.021 -9.657,-9.114 C 95.503,-1.053 77.578,-0.877 59.655,-0.955 44.599,-1.021 29.541,-1.374 14.489,-1.197 9.68,-1.14 4.711,-1.746 0,0" style="fill:#494f57;fill-opacity:1;fill-rule:nonzero;stroke:none" transform="matrix(1.3333333,0,0,-1.3333333,1746.1755,1360.2703)" />
      <path id="path149" d="m 0,0 c -1.869,3.716 -10.26,5.976 -2.107,11.956 2.44,1.789 -0.497,5.757 -0.361,8.817 0.468,10.508 0.191,20.838 -9.045,28.356 -1.42,1.156 2.264,11.928 4.114,11.809 4.899,-0.317 4.209,2.662 2.605,4.691 -5.74,7.26 -6.266,16.437 -9.252,24.648 -1.179,3.243 2.19,7.861 -0.292,11.859 -0.914,1.474 -1.622,4.02 -3.788,1.219 -0.936,-1.21 -1.836,-2.652 -3.213,-1.221 -1.058,1.099 -1.65,2.874 -1.922,4.44 -0.294,1.693 1.206,2.409 2.629,2.761 2.506,0.621 5.163,0.822 7.532,1.763 4.556,1.807 7.981,3.985 6.677,10.393 -1.134,5.57 -1.049,12.752 0.76,17.094 5.941,14.266 -0.59,28.33 1.684,42.262 0.358,2.195 -0.755,4.966 2.658,5.695 0.645,-18.781 1.843,-37.525 0.712,-56.365 C -1.452,116.155 -0.937,102.052 -1.022,87.985 -1.023,87.75 -0.869,87.471 -0.953,87.287 -4.258,79.994 -3.048,73.364 -0.568,65.698 1.771,58.463 -1.197,49.773 -0.593,42.038 0.302,30.563 0.661,19.124 0.804,7.652 0.836,5.105 0.284,2.551 0,0" style="fill:#494f57;fill-opacity:1;fill-rule:nonzero;stroke:none" transform="matrix(1.3333333,0,0,-1.3333333,1903.2412,933.09067)" />
      <path id="path188" d="m 0,0 c -4.524,4.47 -1.911,10.305 -2.263,15.289 -0.968,13.73 1.358,27.907 -1.169,41.235 -1.546,8.158 -0.378,16.282 -1.739,24.407 -1.284,7.671 -2.734,15.772 -4.673,23.217 -2.28,8.751 -7.248,16.584 1.338,24.363 -1.409,7.947 4.933,16.049 -0.56,24.02 -0.731,1.061 -0.246,3.302 0.25,4.808 2.294,6.962 4.598,13.836 1.071,21.122 -0.445,0.919 -0.383,2.753 0.239,3.411 5.658,5.982 1.021,12.805 1.498,19.155 0.271,3.605 0.074,6.532 3.828,8.115 1.867,-8.979 1.492,-18.142 0.273,-27.001 -1.192,-8.661 -0.027,-17.267 -0.499,-25.871 -0.356,-6.51 0.218,-13.368 -0.499,-20.064 -0.173,-1.612 -1.164,-3.175 -1.167,-4.762 -0.007,-4.012 -3.967,-8.421 1.08,-12.001 1.191,-0.845 0.85,-2.11 0.396,-3.208 C -5.41,109.417 -0.672,102.047 -4.143,95.28 -4.342,94.893 -4.556,94.311 -4.408,93.978 4.567,73.812 -1.591,52.501 0.161,31.789 1.051,21.272 0.112,10.601 0,0" style="fill:#494f57;fill-opacity:1;fill-rule:nonzero;stroke:none" transform="matrix(1.3333333,0,0,-1.3333333,1901.1452,606.80453)" />
      <path id="path218" d="m 0,0 c -6.574,2.04 -4.363,7.967 -3.913,11.677 0.832,6.84 -0.519,13.771 0.158,20.017 1.206,11.133 -2.327,21.704 -1.057,32.754 0.745,6.491 1.124,13.373 0.92,20.089 -0.167,5.531 -5.184,5.006 -7.794,4.302 -3.69,-0.995 -6.59,-0.743 -10.115,0.329 -4.573,1.392 -9.457,1.672 -12.108,-4.967 0.73,5.053 -1.751,5.413 -5.245,5.642 -7.158,0.469 -14.533,-1.97 -21.478,1.46 6.094,3.44 12.754,1.198 19.079,1.509 10.532,0.517 21.124,-0.807 31.727,-0.283 8.041,0.397 10.445,-2.184 10.49,-10.297 0.132,-23.5 0.316,-47 0.346,-70.5 C 1.015,7.822 0.354,3.911 0,0" style="fill:#494f57;fill-opacity:1;fill-rule:nonzero;stroke:none" transform="matrix(1.3333333,0,0,-1.3333333,1897.29,324.46493)" />
      <path id="path224" d="m 0,0 c 3.062,-1.807 3.639,-4.801 3.376,-7.909 -2.345,-27.705 0.48,-55.28 2.016,-82.886 0.289,-5.181 3.827,-6.172 8.37,-6.472 3.546,-0.235 8.349,2.47 10.307,-3.2 -4.993,-1.938 -10.352,-1.521 -15.153,-0.438 -7.491,1.689 -9.176,8.281 -8.869,14.992 0.729,15.963 -1.759,31.856 -1.176,47.736 C -0.662,-25.454 -2.369,-12.655 0,0" style="fill:#494f57;fill-opacity:1;fill-rule:nonzero;stroke:none" transform="matrix(1.3333333,0,0,-1.3333333,1710.5897,1226.3992)" />
      <path id="path243" d="m 0,0 c 4.414,-3.056 3.736,-7.854 3.248,-11.952 -0.702,-5.904 -1.462,-11.62 0.886,-17.297 1.605,-3.882 -1.9,-6.84 -1.777,-10.739 0.458,-14.522 0.212,-29.069 0.122,-43.606 -0.024,-4.009 0.113,-8.096 -1.765,-11.854 -2.941,7.992 -1.427,16.393 -1.647,24.519 -0.557,20.574 0.125,41.182 0.365,61.775 C -0.532,-6.101 -0.197,-3.051 0,0" style="fill:#494f57;fill-opacity:1;fill-rule:nonzero;stroke:none" transform="matrix(1.3333333,0,0,-1.3333333,1710.6207,1002.9705)" />
      <path id="path255" d="m 0,0 c 2.526,-0.323 2.74,-2.176 2.745,-4.161 0.04,-14.515 -0.145,-29.036 0.182,-43.544 0.29,-12.827 0.938,-25.657 1.901,-38.45 0.25,-3.319 0.447,-5.565 -3.35,-6.234 -1.852,7.86 -1.22,15.925 -1.47,23.855 -0.682,21.691 -0.552,43.408 -0.693,65.115 C -0.693,-2.281 -0.239,-1.14 0,0" style="fill:#494f57;fill-opacity:1;fill-rule:nonzero;stroke:none" transform="matrix(1.3333333,0,0,-1.3333333,1708.3709,760.4168)" />
      <path id="path274" d="m 0,0 c 3.732,-0.748 2.923,-3.729 2.934,-6.183 0.077,-16.399 0.093,-32.798 0.132,-49.198 0.008,-3.554 -0.42,-6.994 -2.504,-10.024 -2.467,1.666 -1.911,4.187 -1.636,6.471 1.932,16.001 0.079,31.979 -0.162,47.966 C -1.292,-7.274 -2.173,-3.455 0,0" style="fill:#494f57;fill-opacity:1;fill-rule:nonzero;stroke:none" transform="matrix(1.3333333,0,0,-1.3333333,1709.9223,887.34227)" />
      <path id="path297" d="m 0,0 c 2.501,-2.281 0.163,-6.046 1.667,-7.837 4.742,-5.647 1.834,-11.448 1.139,-17.115 -0.812,-6.62 0.034,-13.175 -0.086,-19.757 -0.032,-1.752 -0.416,-3.285 -2.483,-3.67 -3.571,10.574 -0.279,21.38 -0.958,32.074 C -1.061,-10.956 -3.951,-5.237 0,0" style="fill:#494f57;fill-opacity:1;fill-rule:nonzero;stroke:none" transform="matrix(1.3333333,0,0,-1.3333333,1708.3288,692.0812)" />
      <path id="path301" d="m 0,0 c -4.364,-4.205 -9.893,-1.902 -14.685,-2 -11.814,-0.24 -23.659,0.971 -35.478,-0.346 -2.359,-0.263 -3.476,0.856 -4.122,2.857 6.944,1.853 14.034,1.314 21.041,0.894 C -23.429,0.816 -13.63,2.756 -3.832,1.324 -2.448,1.121 -0.957,1.38 0,0" style="fill:#494f57;fill-opacity:1;fill-rule:nonzero;stroke:none" transform="matrix(1.3333333,0,0,-1.3333333,1812.7753,202.69773)" />
      <path id="path355" d="M 0,0 C -1.088,12.004 -3.636,24.01 0.064,36.007 0.626,35.304 1.668,34.604 1.674,33.896 1.764,23.288 1.75,12.677 1.632,2.068 1.624,1.373 0.568,0.689 0,0" style="fill:#494f57;fill-opacity:1;fill-rule:nonzero;stroke:none" transform="matrix(1.3333333,0,0,-1.3333333,1902.9139,992.93107)" />
      <path id="path443" d="m 0,0 c -3.077,3.863 -3.049,8.736 -2.876,13.061 0.077,1.934 -2.64,6.47 2.506,7.169 C 1.017,13.51 0.839,6.761 0,0" style="fill:#494f57;fill-opacity:1;fill-rule:nonzero;stroke:none" transform="matrix(1.3333333,0,0,-1.3333333,1901.47,678.97507)" />
      <path id="path452" d="M 0,0 C 4.836,-3.452 4.812,-11.407 -0.052,-17.332 -0.034,-11.555 -0.017,-5.777 0,0" style="fill:#494f57;fill-opacity:1;fill-rule:nonzero;stroke:none" transform="matrix(1.3333333,0,0,-1.3333333,1707.4572,513.6828)" />
      <path id="path465" d="M 0,0 C 4.444,-3.874 4.33,-9.72 -0.254,-13.059 -2.247,-8.666 -1.822,-4.319 0,0" style="fill:#494f57;fill-opacity:1;fill-rule:nonzero;stroke:none" transform="matrix(1.3333333,0,0,-1.3333333,1707.4765,487.1056)" />
      <path id="path467" d="M 0,0 C -3.462,5.635 -2.685,11.43 -0.651,17.272 2.528,11.627 -0.197,5.758 0,0" style="fill:#494f57;fill-opacity:1;fill-rule:nonzero;stroke:none" transform="matrix(1.3333333,0,0,-1.3333333,1904.3947,1027.9751)" />
      <path id="path502" d="M 0,0 C 4.299,-3.674 4.539,-7.479 0.368,-11.426 0.237,-7.617 -1.879,-3.873 0,0" style="fill:#494f57;fill-opacity:1;fill-rule:nonzero;stroke:none" transform="matrix(1.3333333,0,0,-1.3333333,1706.4673,631.42107)" />
      <path id="path536" d="M 0,0 C 2.87,-3.823 0.919,-7.333 -0.706,-10.864 -3.316,-7.057 -2.927,-3.446 0,0" style="fill:#494f57;fill-opacity:1;fill-rule:nonzero;stroke:none" transform="matrix(1.3333333,0,0,-1.3333333,1711.9773,1135.758)" />
      <path id="path620" d="M 0,0 C 4.721,-2.678 2.24,-5.662 0.365,-8.619 -0.782,-5.789 -1.418,-2.938 0,0" style="fill:#494f57;fill-opacity:1;fill-rule:nonzero;stroke:none" transform="matrix(1.3333333,0,0,-1.3333333,1706.6108,542.3016)" />
      <path id="path631" d="M 0,0 C 2.901,-2.614 3.958,-5.094 -0.517,-7.175 -1.217,-4.72 -1.335,-2.308 0,0" style="fill:#494f57;fill-opacity:1;fill-rule:nonzero;stroke:none" transform="matrix(1.3333333,0,0,-1.3333333,1707.2197,561.12613)" />
      <path id="path643" d="M 0,0 C 2.36,-2.296 2.329,-4.651 0.175,-7.059 -2.188,-4.763 -2.246,-2.41 0,0" style="fill:#494f57;fill-opacity:1;fill-rule:nonzero;stroke:none" transform="matrix(1.3333333,0,0,-1.3333333,1706.4703,474.03493)" />
      <path id="path1035" d="m 0,0 c 0.187,-6.937 -2.453,-12.587 -8.17,-16.821 -1.227,-0.908 -1.778,-3.132 -3.901,-1.622 -1.645,1.17 -2.858,2.381 -1.172,4.625 2.011,2.677 1.444,4.201 -1.985,5.723 -4.516,2.005 -0.909,8.896 -6.242,11.307 C -14.108,2.003 -7.793,-2.961 0,0" style="fill:#494f57;fill-opacity:1;fill-rule:nonzero;stroke:none" transform="matrix(1.3333333,0,0,-1.3333333,1786.876,925.5356)" />
      <path id="path1036" d="m 0,0 c 6.324,0.631 10.899,2.054 14.08,-2.708 1.393,-2.085 2.653,-4.199 1.082,-6.475 -1.853,-2.684 -4.066,-1.4 -6.113,0.057 -2.167,1.543 -4.54,2.511 -7.258,2.377 -3.35,-0.166 -5.597,1.019 -5.502,4.74 C -3.585,2.941 -0.12,-0.021 0,0" style="fill:#494f57;fill-opacity:1;fill-rule:nonzero;stroke:none" transform="matrix(1.3333333,0,0,-1.3333333,1781.7559,897.1864)" />
      <path id="path1037" d="m 0,0 c 2.454,-0.497 5.562,-1.007 5.46,-3.628 -0.149,-3.85 3.477,-7.644 0.469,-11.33 -1.896,-2.323 -4.481,-1.634 -7.087,-0.655 -3.468,1.302 -1.016,2.727 -0.35,4.159 1.212,2.607 -0.695,4.369 -1.627,6.455 C -4.545,-1.841 -3.444,-0.078 0,0" style="fill:#494f57;fill-opacity:1;fill-rule:nonzero;stroke:none" transform="matrix(1.3333333,0,0,-1.3333333,1831.2891,605.04187)" />
      <path id="path1038" d="m 0,0 c 0.022,-3.835 -5.657,-10.53 -9.368,-10.397 -2.011,0.072 -6.205,-0.27 -3.092,4.341 1.684,2.495 2.553,5.526 3.992,8.207 1.506,2.806 4.311,2.569 6.863,2.282 C 1.591,4.073 -0.316,1.57 0,0" style="fill:#494f57;fill-opacity:1;fill-rule:nonzero;stroke:none" transform="matrix(1.3333333,0,0,-1.3333333,1779.0757,370.30973)" />
      <path id="path1039" d="m 0,0 c -5.628,0.131 -4.082,-6.949 -8.483,-6.916 -3.224,0.024 -3.901,3.915 -4.592,6.49 -0.767,2.86 1.303,4.729 4.074,4.269 C -6.22,3.38 -2.924,3.598 0,0" style="fill:#494f57;fill-opacity:1;fill-rule:nonzero;stroke:none" transform="matrix(1.3333333,0,0,-1.3333333,1878.1136,822.73187)" />
      <path id="path1040" d="M 0,0 C 2.047,-0.453 4.87,-0.489 4.929,-3.479 4.972,-5.642 2.654,-6.306 0.838,-6.387 -1.514,-6.491 -3.164,-4.913 -3.453,-2.713 -3.721,-0.667 -1.87,-0.214 0,0" style="fill:#494f57;fill-opacity:1;fill-rule:nonzero;stroke:none" transform="matrix(1.3333333,0,0,-1.3333333,1765.416,885.88853)" />
      <path id="path1041" d="M 0,0 C 0.602,2.135 -0.49,5.272 2.851,4.809 5.258,4.475 6.769,1.982 6.915,-0.283 7.071,-2.682 4.407,-3.862 2.635,-4.115 -0.929,-4.624 0.826,-1.284 0,0" style="fill:#494f57;fill-opacity:1;fill-rule:nonzero;stroke:none" transform="matrix(1.3333333,0,0,-1.3333333,1742.0275,537.76187)" />
      <path id="path1042" d="m 0,0 c 0.014,-2.353 -1.229,-3.665 -3.346,-3.879 -2.218,-0.223 -3.609,1.021 -3.726,3.256 -0.112,2.151 0.925,3.678 3.212,3.811 C -1.647,3.317 -0.406,2.047 0,0" style="fill:#494f57;fill-opacity:1;fill-rule:nonzero;stroke:none" transform="matrix(1.3333333,0,0,-1.3333333,1814.5655,521.97667)" />
      <path id="path1079" d="m 0,0 c -6.943,-2.691 -6.226,2.982 -6.357,6.494 -0.117,3.153 -0.185,8.046 5.777,4.974 0.914,-0.471 2.219,-0.479 2.433,0.516 1.675,7.789 6.186,4.406 10.378,2.826 2.522,-0.952 5.081,-0.432 7.581,0.403 2.147,0.716 4.813,2.404 5.56,-1.395 C 25.914,11.063 26.048,7.866 22.504,6.701 15.08,4.26 8.268,-0.262 0,0" style="fill:#08282e;fill-opacity:1;fill-rule:nonzero;stroke:none" transform="matrix(1.3333333,0,0,-1.3333333,1718.1768,450.39107)" />
      <path id="path1080" d="m 0,0 c 3.691,5.794 6.397,9.727 -0.555,11.932 -1.685,0.534 -1.5,2.174 -0.425,3.474 1.478,1.786 3.711,3.173 5.537,1.751 4.026,-3.135 10.254,-2.444 12.95,-7.825 1.174,-2.346 3.744,-1.611 5.772,-1.5 2.844,0.156 4.558,-1.426 5.254,-3.7 C 29.496,0.989 26.199,1.576 24.81,0.381 16.726,-6.567 9.464,2.518 0,0" style="fill:#08282e;fill-opacity:1;fill-rule:nonzero;stroke:none" transform="matrix(1.3333333,0,0,-1.3333333,1793.1024,444.49227)" />
      <path id="path1081" d="m 0,0 c -7.324,-2.554 -13.653,0.471 -15.281,7.304 -1.096,4.607 3.201,6.743 4.737,10.145 0.063,0.141 1.689,-0.065 1.768,-0.343 1.682,-5.895 8.504,-1.614 10.949,-5.535 C 3.585,9.307 1.171,8.083 -0.154,7.099 -3.653,4.503 -3.17,2.281 -0.043,-0.054 -0.043,-0.054 0,0 0,0" style="fill:#08282e;fill-opacity:1;fill-rule:nonzero;stroke:none" transform="matrix(1.3333333,0,0,-1.3333333,1856.3615,462.618)" />
      <path id="path1082" d="M 0,0 C 0.241,2.962 2.443,6.244 -1.389,8.544 L -1.435,8.498 C 4.617,9.482 5.198,2.465 9.66,0.833 11.291,0.236 9.034,-1.433 8.457,-2.519 7.463,-4.39 5.953,-4.473 4.371,-3.142 2.996,-1.986 2.419,0.271 0.012,-0.012 Z" style="fill:#08282e;fill-opacity:1;fill-rule:nonzero;stroke:none" transform="matrix(1.3333333,0,0,-1.3333333,1753.9225,492.98773)" />
      <path id="path1083" d="m 0,0 c -0.847,-1.94 -2.259,-2.675 -4.007,-2.141 -1.62,0.494 -4.204,0.476 -3.578,3.234 0.493,2.173 2.559,1.564 4.118,1.5 C -1.706,2.52 -0.352,1.809 0,0" style="fill:#08282e;fill-opacity:1;fill-rule:nonzero;stroke:none" transform="matrix(1.3333333,0,0,-1.3333333,1768.4549,428.3292)" />
      </g></svg>