<?xml version='1.0' encoding='utf-8'?>
<svg xmlns="http://www.w3.org/2000/svg" version="1.1" width="161.953" height="197.972" viewBox="1513.560 3273.070 161.953 197.972"><defs id="defs1"><clipPath clipPathUnits="userSpaceOnUse" id="clipPath37">
      <path d="M 0,3370.3901 H 2383.9401 V -2.5000001e-5 H 0 Z" id="path37" />
    </clipPath>
  </defs><g id="object"><path id="path32" d="m 0,0 c 1.404,43.03 14.479,84.087 21.651,126.141 2.654,15.563 17.136,10.426 27.177,10.64 36.06,0.771 35.795,0.43 43.203,-34.644 5.373,-25.44 11.472,-50.729 17.487,-76.029 1.943,-8.171 6.289,-18.7 -1.643,-23.232 C 94.371,-4.841 78.203,-1.878 63.636,0.939 54.255,2.753 56.816,12.996 57.742,20.306 58.545,26.65 62.969,34.88 51.069,34.027 41.502,33.342 45.023,25.988 46.166,20.594 49.883,3.037 41.398,-2.085 25.44,-0.682 17.09,0.052 8.642,-0.326 0.241,-0.203 0.245,-0.205 0,0 0,0" style="fill:#d7bb98;fill-opacity:1;fill-rule:nonzero;stroke:none" transform="matrix(1.3333333,0,0,-1.3333333,1519.5632,3462.3083)" />
      </g></svg>