<?xml version='1.0' encoding='utf-8'?>
<svg xmlns="http://www.w3.org/2000/svg" version="1.1" width="87.675" height="100.277" viewBox="1895.610 4361.650 87.675 100.277"><g id="object"><path id="path36" d="m 0,0 c -4.161,-8.935 -5.107,-17.571 -6.389,-26.024 -0.463,-3.052 -1.455,-5.927 -1.878,-8.943 -0.276,-1.962 -0.582,-4 -3.137,-3.884 -2.286,0.103 -4.406,0.205 -5.671,3.125 -1.626,3.758 -1.847,7.732 -2.844,11.564 -1.476,5.677 -2.451,11.484 -3.64,17.235 -0.285,1.378 -0.469,3.178 -2.325,2.881 -1.747,-0.278 -1.431,-2.147 -1.558,-3.487 -0.808,-8.462 -1.796,-16.914 -2.294,-25.396 -0.245,-4.187 -1.716,-6.158 -6.015,-5.803 -4.422,0.364 -5.571,2.015 -5.1,6.883 1.658,17.151 1.638,34.438 3.726,51.582 0.456,3.749 0.521,7.679 5.589,7.022 4.655,-0.602 11.303,2.371 11.974,-6.66 0.535,-7.203 2.451,-14.308 3.813,-21.444 0.286,-1.5 -0.153,-3.903 2.141,-3.818 2.164,0.08 2.766,2.277 3.044,4.163 1.05,7.14 2.226,14.271 2.953,21.445 0.424,4.175 1.817,6.95 6.4,6.42 4.566,-0.527 10.207,1.905 10.983,-6.756 1.595,-17.823 4.65,-35.514 5.628,-53.415 0.122,-2.227 1.747,-6.116 -2.486,-5.879 -3.039,0.169 -7.984,-1.564 -8.212,4.854 -0.259,7.279 -1.585,14.517 -1.923,21.798 C 2.592,-8.512 2.206,-4.725 0,0" style="fill:#c33c36;fill-opacity:1;fill-rule:nonzero;stroke:none" transform="matrix(1.3333333,0,0,-1.3333333,1956.2072,4403.548)" />
      </g></svg>