<?xml version='1.0' encoding='utf-8'?>
<svg xmlns="http://www.w3.org/2000/svg" version="1.1" width="189.846" height="119.695" viewBox="2191.700 2944.090 189.846 119.695"><g id="object"><path id="path44" d="m 0,0 c -9.814,-26.38 -18.396,-49.445 -26.977,-72.51 -2.293,-0.108 -4.586,-0.216 -6.879,-0.324 -4.724,9.334 -9.449,18.668 -15.522,30.668 -4.998,-11.491 -9.077,-20.869 -13.155,-30.246 -2.476,-0.132 -4.951,-0.263 -7.426,-0.394 -9.003,24.118 -18.006,48.237 -27.384,73.361 29.064,9.079 21.822,-18.274 33.033,-28.221 4.54,10.04 9.07,20.06 16.099,35.603 6.276,-14.9 10.407,-24.708 14.876,-35.318 C -20.736,-19.975 -29.37,10.878 0,0" style="fill:#231916;fill-opacity:1;fill-rule:nonzero;stroke:none" transform="matrix(1.3333333,0,0,-1.3333333,2327.4896,2960.6688)" />
      <path id="path55" d="m 0,0 h 23.471 v -72.769 c -5.344,0 -14.262,-1.105 -22.656,0.51 -3.677,0.708 -9.196,7.223 -8.897,10.669 C -6.406,-42.264 -3.21,-23.07 0,0" style="fill:#231916;fill-opacity:1;fill-rule:nonzero;stroke:none" transform="matrix(1.3333333,0,0,-1.3333333,2344.2488,2958.6788)" />
      </g></svg>