<?xml version='1.0' encoding='utf-8'?>
<svg xmlns="http://www.w3.org/2000/svg" version="1.1" width="103.567" height="102.146" viewBox="349.414 4069.300 103.567 102.146"><g id="object"><path id="path35" d="m 0,0 c 5.48,7.911 4.76,15.911 7.352,22.844 0.819,2.189 1.117,4.571 1.924,6.766 1.315,3.582 4.571,2.697 7.278,2.768 2.692,0.071 3.63,-1.841 3.913,-4.151 1.03,-8.417 5.171,-16.127 5.544,-24.714 0.08,-1.847 -0.397,-5.072 2.702,-4.652 2.352,0.318 2.174,3.103 2.417,5.289 0.887,7.952 1.992,15.857 3.901,23.677 1.774,7.267 7.118,4.286 10.825,3.853 4.896,-0.572 3.212,-4.356 2.415,-7.742 -3.989,-16.952 -8.984,-33.702 -10.796,-51.111 -0.469,-4.511 -1.962,-7.376 -7.315,-7.633 -5.049,-0.243 -6.103,1.994 -7.049,6.369 -1.891,8.75 -4.264,17.38 -4.798,26.375 -0.143,2.405 -0.544,5.392 -3.49,5.279 -2.396,-0.091 -2.529,-3.226 -2.926,-5.138 -1.73,-8.324 -3.152,-16.713 -4.708,-25.074 -0.742,-3.989 -1.144,-7.898 -6.941,-7.963 -5.198,-0.058 -6.175,2.237 -7.476,6.913 -5.161,18.55 -7.07,37.748 -11.977,56.306 -0.713,2.694 0.03,3.854 2.165,3.88 3.498,0.043 7.671,1.963 10.075,-2.522 2.869,-5.353 2.821,-11.392 3.748,-17.161 C -2.616,8.714 -1.621,5.216 0,0" style="fill:#494f57;fill-opacity:1;fill-rule:nonzero;stroke:none" transform="matrix(1.3333333,0,0,-1.3333333,381.37067,4118.8297)" />
      </g></svg>