<?xml version='1.0' encoding='utf-8'?>
<svg xmlns="http://www.w3.org/2000/svg" version="1.1" width="114.714" height="197.262" viewBox="339.194 1288.020 114.714 197.262"><defs id="defs1"><clipPath clipPathUnits="userSpaceOnUse" id="clipPath59">
      <path d="M 0,3370.3901 H 2383.9401 V -2.5000001e-5 H 0 Z" id="path59" />
    </clipPath>
  </defs><g id="object"><path id="path27" d="m 0,0 c -0.438,-15.657 -5.705,-27.51 -17.541,-31.618 -19.165,-6.651 -13.971,-17.102 -7.679,-29.066 5.281,-10.039 13.341,-17.683 21.667,-25.099 4.994,-4.448 9.326,-9.067 3.951,-16.09 -5.769,-7.537 -11.121,-3.415 -16.088,0.82 -28.518,24.313 -50.154,53.049 -57.645,90.74 -2.944,14.814 2.033,27.018 13.881,35.598 12.55,9.089 26.568,10.05 40.54,2.758 C -6.622,21.627 -0.07,11.426 0,0" style="fill:#ffffff;fill-opacity:1;fill-rule:nonzero;stroke:none" transform="matrix(1.3333333,0,0,-1.3333333,444.0772,1337.8683)" />
      </g></svg>