<?xml version='1.0' encoding='utf-8'?>
<svg xmlns="http://www.w3.org/2000/svg" version="1.1" width="111.501" height="116.864" viewBox="1349.060 4279.260 111.501 116.864"><g id="object"><path id="path430" d="m 0,0 c 24.828,-0.078 49.655,-0.156 74.483,-0.234 0.047,-22.041 0.095,-44.082 0.143,-66.122 -3.296,-0.221 -6.591,-0.443 -9.887,-0.666 -9.562,9.902 -19.269,18.009 -7.792,34.646 8.937,12.956 -1.056,21.359 -14.927,23.941 -4.84,5.22 -9.523,5.597 -13.998,-0.454 -4.89,0.052 -9.78,0.104 -14.67,0.156 -2.604,3.718 -5.239,2.131 -6.201,-0.825 -1.389,-4.267 2.348,-4.084 5.121,-4.32 3.544,-18.825 3.551,-37.639 -0.176,-56.441 2.875,-5.64 0.768,-8.187 -5.187,-8.329 -2.199,0.932 -4.394,1.847 -6.589,2.761 C 0.214,-50.591 0.107,-25.296 0,0" style="fill:#040504;fill-opacity:1;fill-rule:nonzero;stroke:none" transform="matrix(1.3333333,0,0,-1.3333333,1355.0625,4285.2559)" />
      </g></svg>