<?xml version='1.0' encoding='utf-8'?>
<svg xmlns="http://www.w3.org/2000/svg" version="1.1" width="311.575" height="43.219" viewBox="2364.300 4412.050 311.575 43.219"><g id="object"><path id="path68" d="M 0.43311406,-11.612656 3.9370203,6.25e-4 h 1.921875 l 1.8632813,-5.5195312 c 0.4101562,-1.2539063 0.7734375,-2.4492188 1.0664062,-3.84375 h 0.046875 c 0.28125,1.3710937 0.6210938,2.5195312 1.03125,3.8203125 L 11.636239,6.25e-4 h 1.921875 l 3.75,-11.613281 h -2.097656 l -1.652344,5.8242185 C 13.171395,-4.4173437 12.866708,-3.186875 12.667489,-2.015 h -0.07031 c -0.257813,-1.171875 -0.597657,-2.4023437 -1.03125,-3.796875 l -1.7929692,-5.800781 h -1.78125 L 6.0932703,-5.6829687 C 5.7065516,-4.4407812 5.3315516,-3.186875 5.0620203,-2.015 H 4.9917078 C 4.7807703,-3.2103125 4.4643641,-4.4173437 4.1245203,-5.7064062 L 2.5893641,-11.612656 Z m 17.95312494,0 3.503906,11.613281 h 1.921875 l 1.863282,-5.5195312 c 0.410156,-1.2539063 0.773437,-2.4492188 1.066406,-3.84375 h 0.04687 c 0.28125,1.3710937 0.621094,2.5195312 1.03125,3.8203125 L 29.589364,6.25e-4 h 1.921875 l 3.75,-11.613281 h -2.097656 l -1.652344,5.8242185 C 31.12452,-4.4173437 30.819833,-3.186875 30.620614,-2.015 h -0.07031 c -0.257813,-1.171875 -0.597657,-2.4023437 -1.03125,-3.796875 l -1.792969,-5.800781 h -1.78125 l -1.898438,5.9296873 c -0.38672,1.2421875 -0.76172,2.4960937 -1.031252,3.6679687 h -0.07031 c -0.210938,-1.1953125 -0.527344,-2.4023437 -0.867188,-3.6914062 l -1.535156,-5.9062498 z m 17.950195,0 3.503907,11.613281 h 1.921875 l 1.863281,-5.5195312 c 0.410156,-1.2539063 0.773437,-2.4492188 1.066406,-3.84375 h 0.04687 c 0.28125,1.3710937 0.621094,2.5195312 1.03125,3.8203125 L 47.539559,6.25e-4 h 1.921875 l 3.75,-11.613281 h -2.097656 l -1.652344,5.8242185 C 49.074716,-4.4173437 48.770028,-3.186875 48.570809,-2.015 h -0.07031 c -0.257813,-1.171875 -0.597656,-2.4023437 -1.03125,-3.796875 l -1.792969,-5.800781 h -1.78125 l -1.898437,5.9296873 C 41.609872,-4.4407812 41.234872,-3.186875 40.965341,-2.015 h -0.07031 c -0.21094,-1.1953125 -0.527347,-2.4023437 -0.86719,-3.6914062 L 38.492684,-11.612656 Z M 55.291512,0.27015625 c 0.890625,0 1.441407,-0.65625 1.441407,-1.51171875 0,-0.890625 -0.574219,-1.5234375 -1.417969,-1.5234375 -0.832031,0 -1.441406,0.6328125 -1.441406,1.5234375 0,0.85546875 0.585937,1.51171875 1.417968,1.51171875 z M 59.826669,-14.401719 v 2.789063 H 58.0337 v 1.605469 h 1.792969 v 6.3398433 c 0,1.359375 0.222656,2.390625 0.820312,3.02343745 C 61.150887,-0.0696875 61.947762,0.235 62.932137,0.235 c 0.808594,0 1.464844,-0.1171875 1.863282,-0.28125 l -0.09375,-1.5820312 c -0.257813,0.070312 -0.667969,0.140625 -1.21875,0.140625 -1.183594,0 -1.582032,-0.8203125 -1.582032,-2.25 v -6.2695308 h 3.023438 v -1.605469 H 61.900887 V -14.9525 Z m 6.143554,2.789063 4.300782,10.6992185 c 0.09375,0.26953125 0.140625,0.43359375 0.140625,0.55078125 0,0.12890625 -0.07031,0.29296875 -0.164063,0.50390625 -0.480469,1.078125 -1.195312,1.8984375 -1.78125,2.3554688 -0.621094,0.5273437 -1.3125,0.8671875 -1.839844,1.03125 l 0.527344,1.78125 C 67.681161,5.20375 68.712411,4.8521875 69.743661,3.938125 71.185067,2.6842188 72.216317,0.64515625 73.728036,-3.3392187 l 3.164062,-8.2734373 h -2.226562 l -2.308594,6.8085935 c -0.28125,0.84375 -0.527344,1.734375 -0.738281,2.4257813 h -0.04687 c -0.199219,-0.6914063 -0.480469,-1.6054688 -0.75,-2.3789063 L 68.278817,-11.612656 Z M 78.822762,4.7584375 H 80.9087 v -6.3164062 h 0.04687 c 0.691406,1.14843745 2.039062,1.82812495 3.574219,1.82812495 2.730468,0 5.273437,-2.07421875 5.273437,-6.24609375 0,-3.5273437 -2.109375,-5.9062495 -4.910156,-5.9062495 -1.898438,0 -3.269531,0.84375 -4.136719,2.2617183 h -0.04687 l -0.09375,-1.9921873 h -1.898437 c 0.04687,1.101562 0.105468,2.2968748 0.105468,3.785156 z M 80.9087,-6.7142187 c 0,-0.2929688 0.07031,-0.609375 0.140625,-0.8671875 0.410156,-1.5820313 1.746094,-2.6132808 3.1875,-2.6132808 2.238281,0 3.457031,1.992187 3.457031,4.3124995 0,2.671875 -1.289062,4.4882813 -3.527344,4.4882813 -1.511718,0 -2.777343,-1.0078125 -3.164062,-2.4726563 C 80.95558,-4.124375 80.9087,-4.4173437 80.9087,-4.7220312 Z m 16.479492,-5.1679683 c -3.210937,0 -5.753906,2.2851558 -5.753906,6.1757808 0,3.6679687 2.425781,5.97656245 5.566406,5.97656245 2.812498,0 5.789058,-1.87499995 5.789058,-6.17578125 0,-3.5507812 -2.26171,-5.976562 -5.601558,-5.976562 z m -0.04687,1.582031 c 2.496094,0 3.480478,2.4960935 3.480478,4.4648435 0,2.625 -1.511728,4.5117188 -3.527353,4.5117188 -2.0625,0 -3.527344,-1.9101563 -3.527344,-4.4648438 0,-2.203125 1.078125,-4.5117185 3.574219,-4.5117185 z M 110.563,-11.882187 c -3.21094,0 -5.75391,2.2851558 -5.75391,6.1757808 0,3.6679687 2.42578,5.97656245 5.56641,5.97656245 2.8125,0 5.78906,-1.87499995 5.78906,-6.17578125 0,-3.5507812 -2.26172,-5.976562 -5.60156,-5.976562 z m -0.0469,1.582031 c 2.4961,0 3.48047,2.4960935 3.48047,4.4648435 0,2.625 -1.51172,4.5117188 -3.52734,4.5117188 -2.0625,0 -3.52735,-1.9101563 -3.52735,-4.4648438 0,-2.203125 1.07813,-4.5117185 3.57422,-4.5117185 z M 126.74073,-2.015 c -0.59766,0.2578125 -1.38281,0.5742188 -2.58984,0.5742188 -2.29688,0 -4.03125,-1.6523438 -4.03125,-4.3476563 0,-2.4140625 1.4414,-4.3828125 4.10156,-4.3828125 1.16016,0 1.94531,0.2578125 2.44922,0.5507813 l 0.48047,-1.6406253 c -0.57422,-0.28125 -1.67578,-0.597656 -2.92969,-0.597656 -3.78516,0 -6.23438,2.5898438 -6.23438,6.1757813 0,3.5507812 2.27344,5.9179687 5.77735,5.9179687 1.57031,0 2.78906,-0.375 3.33984,-0.66796875 z m 4.95117,2.015625 v -11.613281 h -2.10937 V 6.25e-4 Z m -1.05468,-16.195312 c -0.77344,0 -1.32422,0.574218 -1.32422,1.3125 0,0.726562 0.52734,1.300781 1.27734,1.300781 0.83203,0 1.35938,-0.574219 1.33594,-1.300781 0,-0.738282 -0.50391,-1.3125 -1.28906,-1.3125 z m 4.56152,16.195312 h 2.08594 v -6.1875 c 0,-0.3632812 0.0469,-0.703125 0.0937,-0.984375 0.28125,-1.59375 1.34765,-2.71875 2.83593,-2.71875 0.28125,0 0.50391,0.023437 0.71485,0.070312 v -1.992188 c -0.1875,-0.04687 -0.36328,-0.07031 -0.59766,-0.07031 -1.41797,0 -2.69531,0.984375 -3.22265,2.5429688 h -0.0937 l -0.0703,-2.2734378 h -1.85156 c 0.0703,1.078125 0.10547,2.2500003 0.10547,3.621094 z M 150.71729,-2.015 c -0.59765,0.2578125 -1.38281,0.5742188 -2.58984,0.5742188 -2.29688,0 -4.03125,-1.6523438 -4.03125,-4.3476563 0,-2.4140625 1.44141,-4.3828125 4.10156,-4.3828125 1.16016,0 1.94531,0.2578125 2.44922,0.5507813 l 0.48047,-1.6406253 c -0.57422,-0.28125 -1.67578,-0.597656 -2.92969,-0.597656 -3.78515,0 -6.23437,2.5898438 -6.23437,6.1757813 0,3.5507812 2.27343,5.9179687 5.77734,5.9179687 1.57031,0 2.78906,-0.375 3.33984,-0.66796875 z m 2.8418,2.015625 h 2.10938 v -7.0078125 c 0,-0.4101562 0.0234,-0.7148437 0.14062,-1.0078125 0.38672,-1.1484375 1.46484,-2.109375 2.83594,-2.109375 1.99219,0 2.68359,1.5820313 2.68359,3.4570313 V 6.25e-4 h 2.10938 v -6.9140625 c 0,-4.0078125 -2.4961,-4.9687495 -4.05469,-4.9687495 -0.78516,0 -1.53516,0.246093 -2.15625,0.597656 -0.64453,0.363281 -1.18359,0.890625 -1.51172,1.488281 h -0.0469 v -7.242187 h -2.10938 z m 22.64648,-5.4257812 c 0.0234,-0.2109375 0.0703,-0.5507813 0.0703,-0.984375 0,-2.1328125 -1.00782,-5.4726558 -4.79297,-5.4726558 -3.38672,0 -5.44922,2.7656245 -5.44922,6.2695308 0,3.5039062 2.13281,5.8476562 5.70703,5.8476562 1.85156,0 3.11719,-0.375 3.86719,-0.71484375 l -0.36328,-1.51171875 c -0.78516,0.3398438 -1.69922,0.5976563 -3.21094,0.5976563 -2.10938,0 -3.9375,-1.171875 -3.98438,-4.03125 z m -8.13281,-1.5117188 c 0.16406,-1.4648437 1.10156,-3.433594 3.23438,-3.433594 2.3789,0 2.95312,2.0859378 2.92968,3.433594 z m 11.44336,7.20703125 c 0.89063,0 1.44141,-0.65625 1.44141,-1.51171875 0,-0.890625 -0.57422,-1.5234375 -1.41797,-1.5234375 -0.83203,0 -1.44141,0.6328125 -1.44141,1.5234375 0,0.85546875 0.58594,1.51171875 1.41797,1.51171875 z M 191.49268,-2.015 c -0.59765,0.2578125 -1.38281,0.5742188 -2.58984,0.5742188 -2.29687,0 -4.03125,-1.6523438 -4.03125,-4.3476563 0,-2.4140625 1.44141,-4.3828125 4.10156,-4.3828125 1.16016,0 1.94532,0.2578125 2.44922,0.5507813 l 0.48047,-1.6406253 c -0.57422,-0.28125 -1.67578,-0.597656 -2.92969,-0.597656 -3.78515,0 -6.23437,2.5898438 -6.23437,6.1757813 0,3.5507812 2.27344,5.9179687 5.77734,5.9179687 1.57031,0 2.78906,-0.375 3.33985,-0.66796875 z m 7.6084,-9.867187 c -3.21093,0 -5.7539,2.2851558 -5.7539,6.1757808 0,3.6679687 2.42578,5.97656245 5.5664,5.97656245 2.8125,0 5.78907,-1.87499995 5.78907,-6.17578125 0,-3.5507812 -2.26172,-5.976562 -5.60157,-5.976562 z m -0.0469,1.582031 c 2.49609,0 3.48047,2.4960935 3.48047,4.4648435 0,2.625 -1.51172,4.5117188 -3.52735,4.5117188 -2.0625,0 -3.52734,-1.9101563 -3.52734,-4.4648438 0,-2.203125 1.07812,-4.5117185 3.57422,-4.5117185 z M 207.3657,6.25e-4 h 2.0625 v -7.0078125 c 0,-0.3632812 0.0469,-0.7148437 0.16406,-1.03125 0.33985,-1.0546875 1.30078,-2.1093745 2.61328,-2.1093745 1.60547,0 2.42579,1.335937 2.42579,3.1874995 V 6.25e-4 h 2.0625 V -7.17125 c 0,-0.3867187 0.0703,-0.7734375 0.17578,-1.0546875 0.35156,-1.0429687 1.28906,-1.9218745 2.49609,-1.9218745 1.69922,0 2.51953,1.335937 2.51953,3.5742183 V 6.25e-4 h 2.0625 v -6.84375 c 0,-4.03125 -2.28515,-5.039062 -3.82031,-5.039062 -1.10156,0 -1.875,0.292968 -2.56641,0.820312 -0.48047,0.363281 -0.9375,0.867188 -1.30078,1.5117188 h -0.0469 c -0.50391,-1.3710938 -1.69922,-2.3320308 -3.28125,-2.3320308 -1.92188,0 -3,1.03125 -3.65625,2.1445308 h -0.0703 l -0.0937,-1.8749998 h -1.85156 c 0.0703,0.960937 0.10547,1.9453123 0.10547,3.1406248 z m 0,0" style="fill:#231916;fill-opacity:1;fill-rule:nonzero;stroke:none" aria-label="www.typoocirche.com" transform="matrix(1.3333333,0,0,1.3333333,2370.6217,4441.4367)" />
      <path id="path69" d="m 0,0 3.504,-11.616 h 1.92 l 1.872,5.519 c 0.408,1.248 0.768,2.449 1.056,3.841 H 8.4 c 0.288,-1.368 0.624,-2.52 1.032,-3.816 l 1.776,-5.544 h 1.92 L 16.872,0 H 14.784 L 13.128,-5.832 C 12.744,-7.2 12.432,-8.424 12.24,-9.601 h -0.072 c -0.264,1.177 -0.6,2.401 -1.032,3.792 L 9.336,0 H 7.56 L 5.664,-5.928 C 5.28,-7.176 4.896,-8.424 4.632,-9.601 H 4.56 C 4.344,-8.4 4.032,-7.2 3.696,-5.904 L 2.16,0 Z" style="fill:none;stroke:#231916;stroke-width:1;stroke-linecap:butt;stroke-linejoin:miter;stroke-miterlimit:10;stroke-dasharray:none;stroke-opacity:1" transform="matrix(1.3333333,0,0,-1.3333333,2371.1979,4425.9484)" />
      <path id="path70" d="m 0,0 3.504,-11.616 h 1.92 l 1.872,5.519 c 0.408,1.248 0.768,2.449 1.056,3.841 H 8.4 c 0.288,-1.368 0.624,-2.52 1.032,-3.816 l 1.776,-5.544 h 1.92 L 16.872,0 H 14.784 L 13.128,-5.832 C 12.744,-7.2 12.432,-8.424 12.24,-9.601 h -0.072 c -0.264,1.177 -0.6,2.401 -1.032,3.792 L 9.336,0 H 7.56 L 5.664,-5.928 C 5.28,-7.176 4.896,-8.424 4.632,-9.601 H 4.56 C 4.344,-8.4 4.032,-7.2 3.696,-5.904 L 2.16,0 Z" style="fill:none;stroke:#231916;stroke-width:1;stroke-linecap:butt;stroke-linejoin:miter;stroke-miterlimit:10;stroke-dasharray:none;stroke-opacity:1" transform="matrix(1.3333333,0,0,-1.3333333,2395.1335,4425.9484)" />
      <path id="path71" d="m 0,0 3.504,-11.616 h 1.92 l 1.872,5.519 c 0.408,1.248 0.768,2.449 1.056,3.841 H 8.4 c 0.288,-1.368 0.624,-2.52 1.032,-3.816 l 1.776,-5.544 h 1.92 L 16.872,0 H 14.784 L 13.128,-5.832 C 12.744,-7.2 12.432,-8.424 12.24,-9.601 h -0.072 c -0.264,1.177 -0.6,2.401 -1.032,3.792 L 9.336,0 H 7.56 L 5.664,-5.928 C 5.28,-7.176 4.896,-8.424 4.632,-9.601 H 4.56 C 4.344,-8.4 4.032,-7.2 3.696,-5.904 L 2.16,0 Z" style="fill:none;stroke:#231916;stroke-width:1;stroke-linecap:butt;stroke-linejoin:miter;stroke-miterlimit:10;stroke-dasharray:none;stroke-opacity:1" transform="matrix(1.3333333,0,0,-1.3333333,2419.0691,4425.9484)" />
      <path id="path73" d="M 0,0 V -2.784 H -1.8 V -4.393 H 0 v -6.336 c 0,-1.368 0.216,-2.399 0.816,-3.023 0.504,-0.576 1.296,-0.889 2.28,-0.889 0.816,0 1.464,0.12 1.872,0.288 l -0.096,1.584 c -0.264,-0.072 -0.672,-0.143 -1.224,-0.143 -1.176,0 -1.584,0.815 -1.584,2.256 v 6.263 h 3.024 v 1.609 H 2.064 v 3.336 z" style="fill:none;stroke:#231916;stroke-width:1;stroke-linecap:butt;stroke-linejoin:miter;stroke-miterlimit:10;stroke-dasharray:none;stroke-opacity:1" transform="matrix(1.3333333,0,0,-1.3333333,2450.3965,4422.2361)" />
      <path id="path74" d="m 0,0 4.296,-10.704 c 0.096,-0.264 0.144,-0.432 0.144,-0.552 0,-0.12 -0.072,-0.288 -0.168,-0.504 -0.48,-1.08 -1.2,-1.896 -1.776,-2.352 -0.624,-0.529 -1.32,-0.865 -1.848,-1.033 l 0.528,-1.775 c 0.528,0.096 1.56,0.456 2.592,1.368 1.44,1.247 2.472,3.287 3.984,7.272 L 10.92,0 H 8.688 L 6.384,-6.816 C 6.096,-7.656 5.856,-8.544 5.64,-9.24 H 5.592 C 5.4,-8.544 5.112,-7.632 4.848,-6.864 L 2.304,0 Z" style="fill:none;stroke:#231916;stroke-width:1;stroke-linecap:butt;stroke-linejoin:miter;stroke-miterlimit:10;stroke-dasharray:none;stroke-opacity:1" transform="matrix(1.3333333,0,0,-1.3333333,2458.5879,4425.9484)" />
      <path id="path75" d="M 0,0 H 2.088 V 6.312 H 2.136 C 2.832,5.16 4.176,4.488 5.712,4.488 c 2.736,0 5.28,2.064 5.28,6.24 0,3.528 -2.112,5.904 -4.92,5.904 -1.896,0 -3.264,-0.84 -4.128,-2.256 H 1.896 L 1.8,16.368 H -0.096 C -0.048,15.264 0,14.063 0,12.576 Z m 2.088,11.472 c 0,0.288 0.072,0.6 0.144,0.864 0.408,1.584 1.752,2.616 3.192,2.616 2.232,0 3.456,-1.992 3.456,-4.32 C 8.88,7.968 7.584,6.144 5.352,6.144 3.84,6.144 2.568,7.152 2.184,8.616 2.136,8.88 2.088,9.168 2.088,9.479 Z" style="fill:none;stroke:#231916;stroke-width:1;stroke-linecap:butt;stroke-linejoin:miter;stroke-miterlimit:10;stroke-dasharray:none;stroke-opacity:1" transform="matrix(1.3333333,0,0,-1.3333333,2475.7077,4447.7727)" />
      <path id="path76" d="m 0,0 c -3.216,0 -5.76,-2.28 -5.76,-6.168 0,-3.672 2.424,-5.976 5.568,-5.976 2.808,0 5.784,1.873 5.784,6.168 C 5.592,-2.424 3.336,0 0,0 Z m -0.048,-1.584 c 2.496,0 3.48,-2.496 3.48,-4.464 0,-2.616 -1.512,-4.512 -3.528,-4.512 -2.064,0 -3.528,1.92 -3.528,4.464 0,2.208 1.08,4.512 3.576,4.512 z" style="fill:none;stroke:#231916;stroke-width:1;stroke-linecap:butt;stroke-linejoin:miter;stroke-miterlimit:10;stroke-dasharray:none;stroke-opacity:1" transform="matrix(1.3333333,0,0,-1.3333333,2500.4752,4425.5968)" />
      <path id="path77" d="m 0,0 c -3.216,0 -5.76,-2.28 -5.76,-6.168 0,-3.672 2.424,-5.976 5.568,-5.976 2.808,0 5.784,1.873 5.784,6.168 C 5.592,-2.424 3.336,0 0,0 Z m -0.048,-1.584 c 2.496,0 3.48,-2.496 3.48,-4.464 0,-2.616 -1.512,-4.512 -3.528,-4.512 -2.064,0 -3.528,1.92 -3.528,4.464 0,2.208 1.08,4.512 3.576,4.512 z" style="fill:none;stroke:#231916;stroke-width:1;stroke-linecap:butt;stroke-linejoin:miter;stroke-miterlimit:10;stroke-dasharray:none;stroke-opacity:1" transform="matrix(1.3333333,0,0,-1.3333333,2518.0429,4425.5968)" />
      <path id="path78" d="m 0,0 c -0.6,-0.264 -1.392,-0.575 -2.592,-0.575 -2.304,0 -4.032,1.655 -4.032,4.344 0,2.423 1.44,4.391 4.104,4.391 1.152,0 1.944,-0.264 2.448,-0.552 l 0.48,1.632 c -0.576,0.288 -1.68,0.601 -2.928,0.601 -3.792,0 -6.24,-2.593 -6.24,-6.168 0,-3.553 2.28,-5.929 5.784,-5.929 1.56,0 2.784,0.384 3.336,0.672 z" style="fill:none;stroke:#231916;stroke-width:1;stroke-linecap:butt;stroke-linejoin:miter;stroke-miterlimit:10;stroke-dasharray:none;stroke-opacity:1" transform="matrix(1.3333333,0,0,-1.3333333,2539.6107,4438.7492)" />
      <path id="path79" d="M 0,0 V 11.616 H -2.112 V 0 Z m -1.056,16.2 c -0.768,0 -1.32,-0.576 -1.32,-1.32 0,-0.72 0.528,-1.296 1.272,-1.296 0.84,0 1.368,0.576 1.344,1.296 0,0.744 -0.504,1.32 -1.296,1.32 z" style="fill:none;stroke:#231916;stroke-width:1;stroke-linecap:butt;stroke-linejoin:miter;stroke-miterlimit:10;stroke-dasharray:none;stroke-opacity:1" transform="matrix(1.3333333,0,0,-1.3333333,2546.2025,4441.4367)" />
      <path id="path80" d="m 0,0 h 2.088 v 6.192 c 0,0.36 0.048,0.696 0.096,0.984 0.288,1.584 1.344,2.712 2.832,2.712 0.288,0 0.504,-0.024 0.72,-0.072 v 1.992 C 5.544,11.856 5.376,11.88 5.136,11.88 3.72,11.88 2.448,10.896 1.92,9.336 H 1.824 l -0.072,2.28 H -0.096 C -0.024,10.536 0,9.36 0,7.992 Z" style="fill:none;stroke:#231916;stroke-width:1;stroke-linecap:butt;stroke-linejoin:miter;stroke-miterlimit:10;stroke-dasharray:none;stroke-opacity:1" transform="matrix(1.3333333,0,0,-1.3333333,2550.8751,4441.4367)" />
      <path id="path81" d="m 0,0 c -0.6,-0.264 -1.392,-0.575 -2.592,-0.575 -2.304,0 -4.032,1.655 -4.032,4.344 0,2.423 1.44,4.391 4.104,4.391 1.152,0 1.944,-0.264 2.448,-0.552 l 0.48,1.632 c -0.576,0.288 -1.68,0.601 -2.928,0.601 -3.792,0 -6.24,-2.593 -6.24,-6.168 0,-3.553 2.28,-5.929 5.784,-5.929 1.56,0 2.784,0.384 3.336,0.672 z" style="fill:none;stroke:#231916;stroke-width:1;stroke-linecap:butt;stroke-linejoin:miter;stroke-miterlimit:10;stroke-dasharray:none;stroke-opacity:1" transform="matrix(1.3333333,0,0,-1.3333333,2571.5788,4438.7492)" />
      <path id="path82" d="m 0,0 h 2.112 v 7.008 c 0,0.408 0.024,0.72 0.144,1.008 0.384,1.152 1.464,2.112 2.832,2.112 1.992,0 2.688,-1.584 2.688,-3.456 V 0 h 2.112 v 6.912 c 0,4.008 -2.496,4.968 -4.056,4.968 -0.792,0 -1.536,-0.24 -2.16,-0.6 C 3.024,10.92 2.496,10.392 2.16,9.792 H 2.112 V 17.04 H 0 Z" style="fill:none;stroke:#231916;stroke-width:1;stroke-linecap:butt;stroke-linejoin:miter;stroke-miterlimit:10;stroke-dasharray:none;stroke-opacity:1" transform="matrix(1.3333333,0,0,-1.3333333,2575.3548,4441.4367)" />
      <path id="path83" d="m 0,0 c 0.024,0.216 0.072,0.552 0.072,0.984 0,2.136 -1.008,5.472 -4.8,5.472 -3.384,0 -5.448,-2.76 -5.448,-6.264 0,-3.504 2.136,-5.856 5.712,-5.856 1.848,0 3.12,0.384 3.864,0.721 l -0.36,1.511 c -0.792,-0.336 -1.704,-0.6 -3.216,-0.6 -2.112,0 -3.936,1.177 -3.984,4.032 z m -8.136,1.512 c 0.168,1.465 1.104,3.432 3.24,3.432 2.376,0 2.952,-2.088 2.928,-3.432 z" style="fill:none;stroke:#231916;stroke-width:1;stroke-linecap:butt;stroke-linejoin:miter;stroke-miterlimit:10;stroke-dasharray:none;stroke-opacity:1" transform="matrix(1.3333333,0,0,-1.3333333,2605.5625,4434.2049)" />
      <path id="path85" d="m 0,0 c -0.6,-0.264 -1.392,-0.575 -2.592,-0.575 -2.304,0 -4.032,1.655 -4.032,4.344 0,2.423 1.44,4.391 4.104,4.391 1.152,0 1.944,-0.264 2.448,-0.552 l 0.48,1.632 c -0.576,0.288 -1.68,0.601 -2.928,0.601 -3.792,0 -6.24,-2.593 -6.24,-6.168 0,-3.553 2.28,-5.929 5.784,-5.929 1.56,0 2.784,0.384 3.336,0.672 z" style="fill:none;stroke:#231916;stroke-width:1;stroke-linecap:butt;stroke-linejoin:miter;stroke-miterlimit:10;stroke-dasharray:none;stroke-opacity:1" transform="matrix(1.3333333,0,0,-1.3333333,2625.946,4438.7492)" />
      <path id="path86" d="m 0,0 c -3.216,0 -5.76,-2.28 -5.76,-6.168 0,-3.672 2.424,-5.976 5.568,-5.976 2.808,0 5.784,1.873 5.784,6.168 C 5.592,-2.424 3.336,0 0,0 Z m -0.048,-1.584 c 2.496,0 3.48,-2.496 3.48,-4.464 0,-2.616 -1.512,-4.512 -3.528,-4.512 -2.064,0 -3.528,1.92 -3.528,4.464 0,2.208 1.08,4.512 3.576,4.512 z" style="fill:none;stroke:#231916;stroke-width:1;stroke-linecap:butt;stroke-linejoin:miter;stroke-miterlimit:10;stroke-dasharray:none;stroke-opacity:1" transform="matrix(1.3333333,0,0,-1.3333333,2636.0899,4425.5968)" />
      <path id="path87" d="m 0,0 h 2.064 v 7.008 c 0,0.36 0.048,0.72 0.168,1.032 0.336,1.056 1.296,2.112 2.616,2.112 1.608,0 2.424,-1.344 2.424,-3.192 V 0 h 2.064 v 7.176 c 0,0.384 0.072,0.768 0.168,1.056 0.36,1.032 1.296,1.92 2.496,1.92 1.704,0 2.52,-1.344 2.52,-3.576 V 0 h 2.064 v 6.84 c 0,4.032 -2.28,5.04 -3.816,5.04 -1.104,0 -1.872,-0.288 -2.568,-0.816 C 9.72,10.704 9.264,10.2 8.904,9.552 H 8.856 C 8.352,10.92 7.152,11.88 5.568,11.88 c -1.92,0 -3,-1.032 -3.648,-2.136 H 1.848 L 1.752,11.616 H -0.096 C -0.024,10.656 0,9.672 0,8.472 Z" style="fill:none;stroke:#231916;stroke-width:1;stroke-linecap:butt;stroke-linejoin:miter;stroke-miterlimit:10;stroke-dasharray:none;stroke-opacity:1" transform="matrix(1.3333333,0,0,-1.3333333,2647.0976,4441.4367)" />
      </g></svg>