<?xml version='1.0' encoding='utf-8'?>
<svg xmlns="http://www.w3.org/2000/svg" version="1.1" width="181.727" height="325.685" viewBox="1944.240 902.206 181.727 325.685"><g id="object"><path id="path123" d="M 0,0 C -0.091,0.295 -0.114,0.653 -0.303,0.859 -0.388,0.953 -0.801,0.748 -1.065,0.678 -0.973,0.383 -0.947,0.028 -0.758,-0.181 -0.675,-0.274 -0.263,-0.069 0,0 m -13.571,2.73 c -5.567,1.094 -8.038,6.29 -11.258,9.782 -6.835,7.411 -14.677,11.387 -24.443,12.353 -1.931,0.191 -3.799,0.971 -5.73,1.23 -1.65,0.221 -3.016,-0.51 -3.785,-2.094 -0.342,-0.704 -0.909,-1.4 -0.961,-2.129 -0.67,-9.306 -4.046,-18.059 -4.638,-27.543 -0.647,-10.387 -0.546,-20.961 -3.205,-31.341 -1.703,-6.652 -1.209,-13.976 -1.014,-20.98 0.273,-9.83 -4.68,-11.147 -12.926,-8.534 -3.907,1.238 -6.627,3.769 -7.38,8.261 -1.031,6.15 -3.361,12.116 -2.268,18.522 3.217,-4.226 3,-9.549 4.481,-14.325 0.786,-2.534 1.965,-4.007 4.577,-4.599 2.132,-0.483 4.166,-1.399 6.267,-2.13 1.555,5.228 4.329,10.145 1.608,15.795 -1.094,2.27 0.205,4.592 1.281,6.68 1.468,2.847 1.011,4.923 -1.584,7.067 -3.12,2.578 -3.281,5.984 -1.139,9.457 5.538,8.975 10.964,17.926 4.533,28.871 -0.611,1.041 0.272,2.963 0.468,4.475 0.944,7.307 1.891,14.614 2.837,21.922 l 0.061,0.052 c 2.12,0.838 5.201,3.007 6.196,2.289 4.713,-3.404 9.582,-2.388 14.563,-1.791 1.244,0.148 2.224,-0.334 2.996,-1.354 5.689,-7.521 15.832,-8.041 22.426,-14.182 0.335,-0.311 1.568,-0.086 2.048,0.303 0.512,0.414 0.88,1.323 0.871,2.01 -0.047,3.433 -2.419,5.926 -4.573,7.871 -4.353,3.928 -4.798,8.63 -4.362,13.828 2.8,3.52 6.947,5.358 10.759,6.957 7.877,3.305 13.472,9 19.418,14.759 12.876,12.469 15.939,28.277 16.077,44.94 0.098,11.989 -4.087,23.126 -10.327,33.326 -6.535,10.684 -11.146,11.423 -20.358,3.15 -0.291,-0.261 -0.554,-0.556 -0.82,-0.844 -7.721,-8.35 -15.284,-16.808 -20.6,-27.008 -1.803,-3.46 -4.335,-6.497 -6.472,-9.726 -10.212,-15.433 -19.049,-31.487 -16.77,-51.088 -4.066,0.673 -3.996,4.354 -5.122,7.124 -1.411,3.469 -1.537,6.645 1.301,9.779 2.735,3.02 3.617,6.841 2.706,10.954 -0.542,2.447 0.365,4.63 1.405,6.768 1.887,3.878 3.952,7.573 6.781,10.942 5.732,6.826 8.922,14.678 7.921,23.848 -0.26,2.381 -0.435,4.747 -2.919,5.975 -5.847,2.889 -5.028,7.977 -2.737,12.036 3.677,6.513 2.845,12.714 0.958,19.223 1.548,-0.416 3.155,-0.949 3.61,-2.638 0.607,-2.251 0.77,-4.622 1.368,-6.877 0.743,-2.797 4.206,-4.163 6.62,-2.527 1.581,1.071 2.755,2.721 4.242,3.953 9.634,7.983 20.081,9.583 31.593,4.248 3.884,-1.8 7.999,-3.27 12.16,-4.245 2.973,-0.697 4.952,-1.883 6.177,-4.676 2.197,-5.01 4.824,-9.846 6.767,-14.947 1.177,-3.088 6.394,-3.268 5.01,-8.245 -1.019,-3.663 3.5,-6.249 3.707,-9.611 C 35.59,105.76 38.28,93.155 29.692,82.039 27.881,79.696 27.554,76.221 26.488,73.287 23.845,66.011 22.187,58.12 14.545,53.926 10.313,46.438 3.887,41.706 -4.172,39.025 -17.605,27.461 -20.183,29.135 -6.828,14.266 1.015,5.534 9.368,-2.525 18.024,-10.381 c 3.744,-3.397 6.753,-7.596 10.182,-11.352 2.602,-2.849 3.268,-6.326 2.916,-9.874 -0.526,-5.303 -2.965,-10.415 0.506,-16.339 -6.045,0.559 -8.655,3.379 -9.961,6.37 -6.76,15.479 -17.75,27.332 -30.822,37.557 -2.191,1.713 -4.153,3.646 -4.361,6.686 2.223,0.246 4.963,-0.309 6.196,2.024 1.65,3.12 -1.096,4.779 -2.948,6.622 -0.539,0.535 -1.005,1.142 -1.538,1.682 -1.187,1.203 -2.705,1.566 -4.134,0.832 -1.694,-0.871 -1.531,-2.543 -0.7,-3.899 1.387,-2.264 3.23,-4.289 3.069,-7.198" style="fill:#548dc7;fill-opacity:1;fill-rule:nonzero;stroke:none" transform="matrix(1.3333333,0,0,-1.3333333,2072.1904,1131.6287)" />
      <path id="path135" d="m 0,0 c 1.886,-6.509 2.719,-12.709 -0.958,-19.222 -2.291,-4.059 -3.11,-9.147 2.737,-12.037 2.483,-1.228 2.659,-3.594 2.919,-5.974 1,-9.171 -2.189,-17.022 -7.921,-23.848 -2.829,-3.369 -4.894,-7.065 -6.781,-10.942 -1.04,-2.139 -1.948,-4.322 -1.405,-6.769 0.911,-4.113 0.029,-7.933 -2.706,-10.954 -2.838,-3.133 -2.712,-6.309 -1.301,-9.779 1.126,-2.769 1.055,-6.451 5.125,-7.124 3.24,-1.636 5.654,-4.179 7.764,-7.055 1.673,-4.343 1.673,-4.343 7.362,-4.226 l 0.053,-0.096 c 0.404,-1.365 1.301,-2.137 2.729,-2.27 1.489,-0.705 2.977,-1.411 4.466,-2.116 l 0.85,-0.271 0.821,0.354 c 1.682,0.404 3.364,0.809 5.045,1.214 -0.436,-5.197 0.009,-9.9 4.361,-13.828 2.155,-1.944 4.527,-4.438 4.573,-7.87 0.01,-0.687 -0.358,-1.597 -0.87,-2.011 -0.48,-0.389 -1.713,-0.614 -2.048,-0.302 -6.594,6.14 -16.737,6.661 -22.426,14.182 -0.772,1.02 -1.753,1.502 -2.997,1.353 -4.98,-0.596 -9.849,-1.613 -14.562,1.791 -0.995,0.719 -4.076,-1.45 -6.196,-2.289 -0.084,0.676 -0.116,1.365 -0.274,2.024 -0.073,0.301 -0.427,0.791 -0.598,0.769 -0.886,-0.116 -1.196,-0.737 -0.684,-1.493 0.366,-0.54 0.987,-0.907 1.495,-1.352 -0.946,-7.307 -1.893,-14.614 -2.838,-21.922 -0.195,-1.512 -1.078,-3.433 -0.467,-4.474 6.431,-10.946 1.005,-19.896 -4.533,-28.872 -2.142,-3.472 -1.981,-6.879 1.139,-9.457 2.595,-2.144 3.052,-4.22 1.584,-7.067 -1.076,-2.088 -2.375,-4.41 -1.282,-6.68 2.722,-5.649 -0.052,-10.567 -1.608,-15.795 -2.1,0.732 -4.134,1.648 -6.266,2.131 -2.612,0.591 -3.791,2.064 -4.577,4.598 -1.481,4.777 -1.264,10.1 -4.482,14.325 -0.014,1.551 -0.029,3.102 -0.044,4.653 0.284,0.23 0.837,0.511 0.805,0.679 -0.119,0.619 -0.433,1.2 -0.673,1.795 -0.08,3.899 -0.16,7.797 -0.241,11.696 1.51,0.379 3.395,0.681 3.745,2.331 1.064,5.018 2.8,9.485 6.561,13.273 1.941,1.956 0.818,4.285 -1.768,5.547 -0.997,0.487 -2.392,1.101 -1.318,2.495 2.833,3.674 2.309,7.194 -0.233,10.659 -1.735,2.364 -0.69,4.439 0.585,6.419 0.824,1.279 2.636,2.246 2.833,3.533 0.333,2.174 0.125,4.639 -0.654,6.676 -0.325,0.85 -2.695,0.919 -4.135,1.344 -0.061,1.439 -0.123,2.878 -0.186,4.317 1.536,0.464 3.012,1.144 3.511,2.774 3.186,10.389 6.355,20.784 9.388,31.217 0.462,1.588 -0.712,2.942 -1.931,4.008 0.636,2.354 1.272,4.707 1.911,7.062 3.803,2.848 2.705,6.696 2.132,10.436 2.08,19.124 6.002,37.947 9.239,56.883 0.948,5.548 3.78,10.306 6.119,15.277 3.038,0.085 6.077,0.169 9.115,0.254 z" style="fill:#3675ba;fill-opacity:1;fill-rule:nonzero;stroke:none" transform="matrix(1.3333333,0,0,-1.3333333,2010.2933,913.4812)" />
      <path id="path209" d="M 0,0 C 1.44,-0.424 3.81,-0.493 4.135,-1.343 4.913,-3.381 5.121,-5.846 4.788,-8.02 4.591,-9.307 2.78,-10.274 1.956,-11.553 c -1.275,-1.979 -2.32,-4.055 -0.585,-6.419 2.541,-3.465 3.066,-6.985 0.233,-10.659 -1.075,-1.393 0.321,-2.008 1.318,-2.494 2.585,-1.262 3.709,-3.591 1.767,-5.547 -3.76,-3.788 -5.496,-8.256 -6.56,-13.274 -0.35,-1.65 -2.235,-1.951 -3.745,-2.33 -0.372,14.567 0.733,29.042 2.589,43.481 C -2.618,-5.605 -1.92,-2.62 0,0" style="fill:#548dc7;fill-opacity:1;fill-rule:nonzero;stroke:none" transform="matrix(1.3333333,0,0,-1.3333333,1957.9015,1089.8204)" />
      <path id="path225" d="m 0,0 c 1.219,-1.066 2.393,-2.42 1.931,-4.008 -3.033,-10.434 -6.202,-20.828 -9.387,-31.218 -0.5,-1.629 -1.976,-2.31 -3.512,-2.774 -0.1,1.149 -0.42,2.328 -0.269,3.443 1.405,10.369 4.969,20.212 7.528,30.301 C -3.221,-2.331 -1.796,-0.933 0,0" style="fill:#548dc7;fill-opacity:1;fill-rule:nonzero;stroke:none" transform="matrix(1.3333333,0,0,-1.3333333,1972.2771,1033.3979)" />
      <path id="path266" d="m 0,0 c -3.039,-0.084 -6.077,-0.169 -9.115,-0.254 1.403,4.1 2.299,4.821 4.928,3.854 C -2.359,2.928 -0.884,1.795 0,0" style="fill:#548dc7;fill-opacity:1;fill-rule:nonzero;stroke:none" transform="matrix(1.3333333,0,0,-1.3333333,2010.2989,913.51613)" />
      <path id="path277" d="M 0,0 C 0.573,-3.74 1.671,-7.588 -2.132,-10.436 -2.324,-6.774 -2.063,-3.203 0,0" style="fill:#548dc7;fill-opacity:1;fill-rule:nonzero;stroke:none" transform="matrix(1.3333333,0,0,-1.3333333,1977.6681,1010.0679)" />
      <path id="path539" d="m 0,0 c 0.161,2.909 -1.682,4.934 -3.069,7.198 -0.831,1.356 -0.994,3.029 0.7,3.899 1.429,0.735 2.947,0.371 4.134,-0.831 C 2.298,9.725 2.764,9.118 3.302,8.583 5.155,6.74 7.901,5.081 6.251,1.961 5.018,-0.372 2.277,0.184 0.055,-0.063 0.055,-0.063 0,0 0,0" style="fill:#3675ba;fill-opacity:1;fill-rule:nonzero;stroke:none" transform="matrix(1.3333333,0,0,-1.3333333,2054.0959,1127.9891)" />
      <path id="path560" d="M 0,0 C 2.865,-0.694 5.776,-1.307 7.361,-4.228 1.672,-4.343 1.672,-4.343 0,0" style="fill:#548dc7;fill-opacity:1;fill-rule:nonzero;stroke:none" transform="matrix(1.3333333,0,0,-1.3333333,2006.9245,1065.0871)" />
      </g></svg>