<?xml version='1.0' encoding='utf-8'?>
<svg xmlns="http://www.w3.org/2000/svg" version="1.1" width="202.021" height="205.088" viewBox="111.022 1927.230 202.021 205.088"><g id="object"><path id="path93" d="m 0,0 c 0,12.506 0.124,25.015 -0.049,37.519 -0.096,6.954 0.239,9.533 -9.372,10.646 -5.576,0.646 -6.384,2.318 -5.685,7.775 0.164,1.279 0.417,2.551 0.718,3.805 0.675,2.815 2.451,4.549 5.356,4.777 15.857,1.247 31.736,2.249 47.457,4.873 3.691,0.616 5.47,-0.742 6.155,-4.803 0.714,-4.228 1.068,-8.538 1.277,-12.827 0.317,-6.497 -0.291,-7.154 -6.768,-8.522 C 37.83,42.977 36.485,43.1 35.238,42.8 30.202,41.589 28.804,40.079 28.702,34.725 28.595,29.126 29.224,23.509 29.023,17.918 28.512,3.718 27.708,-10.47 27.041,-24.664 c -0.242,-5.151 -0.235,-10.323 -0.719,-15.449 -0.255,-2.692 -1.834,-4.835 -4.938,-5.075 -2.577,-0.198 -5.163,-0.467 -7.742,-0.439 C 0.217,-45.484 -0.929,-44.669 0.267,-31.001 1.176,-20.617 -0.088,-10.327 0,0" style="fill:#494643;fill-opacity:1;fill-rule:nonzero;stroke:none" transform="matrix(1.3333333,0,0,-1.3333333,245.81227,2025.9492)" />
      <path id="path108" d="m 0,0 c 1.466,-2.569 4.27,-2.654 6.622,-3.376 10.46,-3.215 19.448,-9.25 28.497,-15.044 5.516,-3.532 9.657,-8.557 11.14,-15.316 0.459,-2.095 1.361,-4.088 1.989,-6.149 5.022,-16.49 4.497,-16.068 -6.784,-29.887 -10.612,-13 -25.38,-18.795 -39.638,-25.709 -2.852,-1.384 -5.166,0.029 -7.205,3.623 -1.434,2.529 -1.577,4.999 0.962,6.863 4.859,3.569 9.943,6.839 14.71,10.522 4.084,3.155 8.044,6.521 11.723,10.134 6.622,6.503 8.915,13.776 5.984,23.344 -3.283,10.72 -9.565,17.062 -20.318,19.11 -3.792,0.722 -7.704,1.12 -11.561,1.119 -5.988,-0.001 -11.07,2.499 -15.351,6.027 -6.554,5.399 -6.851,8.433 -2.431,14.065 8.743,11.139 16.886,22.755 28.307,31.501 3.807,2.915 7.859,5.279 12.236,7.151 6.129,2.621 8.81,1.893 11.955,-3.225 2.737,-4.454 2.356,-7.315 -2.075,-11.235 C 21.338,16.948 13.796,10.512 5.398,5.166 3.283,3.82 0.591,2.993 0,0" style="fill:#494643;fill-opacity:1;fill-rule:nonzero;stroke:none" transform="matrix(1.3333333,0,0,-1.3333333,149.85467,1998.3164)" />
      </g></svg>