<?xml version='1.0' encoding='utf-8'?>
<svg xmlns="http://www.w3.org/2000/svg" version="1.1" width="351.809" height="360.456" viewBox="1631.790 1109.590 351.809 360.456"><g id="object"><path id="path19" d="m 0,0 c -1.253,-40.244 22.343,-68.767 57.937,-70.035 36.436,-1.298 62.849,24.957 64.609,64.222 1.751,39.067 -25.202,70.187 -61.18,70.637 C 26.585,65.259 1.197,38.44 0,0 m 187.504,-4.08 c -0.23,-76.867 -52.749,-130.015 -128.171,-129.702 -73.435,0.304 -127.403,56.605 -126.678,132.155 0.733,76.39 54.379,130.044 129.154,129.175 75.665,-0.88 125.928,-53.516 125.695,-131.628" style="fill:#231916;fill-opacity:1;fill-rule:nonzero;stroke:none" transform="matrix(1.3333333,0,0,-1.3333333,1727.5967,1285.6713)" />
      </g></svg>