<?xml version='1.0' encoding='utf-8'?>
<svg xmlns="http://www.w3.org/2000/svg" version="1.1" width="524.254" height="709.889" viewBox="2269.310 3338.770 524.254 709.889"><defs id="defs1"><clipPath clipPathUnits="userSpaceOnUse" id="clipPath11">
      <path d="M -2297.4972,2808.5926 H 86.442877 V -561.79751 H -2297.4972 Z" id="path11" />
    </clipPath>
  </defs><g id="object"><path id="path3" d="m 0,0 c 0.775,-31.532 -3.629,-72.043 -12.862,-112.02 -7.134,-30.887 -21.121,-58.331 -42.205,-82.091 -25.443,-28.675 -57.124,-47.014 -94.242,-55.714 -23.184,-5.434 -46.739,-5.986 -70.338,-2.179 -40.596,6.549 -75.247,24.777 -103.888,54.003 -21.607,22.048 -36.722,48.25 -45.11,78.026 -7.744,27.49 -11.686,55.646 -13.955,84.104 -1.762,22.095 -1.803,44.18 -1.005,66.276 1.288,35.683 6.053,70.895 15.487,105.392 8.719,31.884 25.639,58.915 49.144,81.901 29.439,28.788 64.734,45.723 105.634,50.094 45.288,4.84 87.065,-5.301 124.725,-31.399 30.457,-21.107 52.076,-49.251 66.325,-83.21 3.911,-9.319 6.755,-19.05 9.093,-28.899 C -4.24,86.555 -0.329,48.249 0,0" style="fill:#cf2727;fill-opacity:1;fill-rule:nonzero;stroke:none" transform="matrix(1.3333333,0,0,-1.3333333,2787.4525,3703.3877)" />
      </g></svg>