<?xml version='1.0' encoding='utf-8'?>
<svg xmlns="http://www.w3.org/2000/svg" version="1.1" width="127.147" height="142.120" viewBox="1725.840 3082.340 127.147 142.120"><defs id="defs1"><clipPath clipPathUnits="userSpaceOnUse" id="clipPath18">
      <path d="M 0,3370.3901 H 2383.9401 V -2.5000001e-5 H 0 Z" id="path18" />
    </clipPath>
  </defs><g id="object"><path id="path12" d="M 0,0 C 3.192,3.419 13.621,-3.656 12.081,7.776 10.99,15.87 3.785,18.242 -3.871,18.08 -11.713,17.914 -19.422,14.294 -18.485,6.588 -17.294,-3.202 -7.07,2.655 0,0 m -46.004,-9.98 c -0.229,28.14 11.924,45.274 34.469,48.598 24.639,3.633 42.578,-7.079 49.718,-29.502 4.775,-14.995 2.63,-24.973 -16.219,-24.288 -9.449,0.344 -18.936,0.207 -28.385,-0.202 -5.19,-0.224 -12.753,0.98 -13.184,-6.368 -0.423,-7.204 6.062,-10.034 12.573,-11.946 10.324,-3.033 17.843,5.486 27.124,5.917 4.469,0.208 10.758,0.254 13.124,-2.395 3.618,-4.052 -1.212,-8.476 -4.016,-12.178 C 16.358,-59.3 -0.996,-61.075 -19.46,-55.301 -36.642,-49.927 -45.817,-33.01 -46.004,-9.98" style="fill:#ece8df;fill-opacity:1;fill-rule:nonzero;stroke:none" transform="matrix(1.3333333,0,0,-1.3333333,1793.1851,3140.762)" />
      </g></svg>