<?xml version='1.0' encoding='utf-8'?>
<svg xmlns="http://www.w3.org/2000/svg" version="1.1" width="736.004" height="86.484" viewBox="1300.320 4096.740 736.004 86.484"><g id="object"><path id="path17" d="m 4.5590641,-0.11849063 c 1.7460937,0.234375 4.5,0.48046875 8.0976559,0.48046875 6.609375,0 11.167969,-1.20703125 13.980469,-3.78515622 2.039063,-1.9804688 3.421875,-4.6171875 3.421875,-8.0976559 0,-6 -4.5,-9.175782 -8.34375,-10.136719 v -0.128906 c 4.265625,-1.558594 6.84375,-4.980469 6.84375,-8.871094 0,-3.1875 -1.253906,-5.578125 -3.363281,-7.148438 -2.519531,-2.039062 -5.871094,-2.929687 -11.097656,-2.929687 -3.65625,0 -7.2539067,0.351562 -9.5390629,0.832031 z M 9.7856266,-36.364584 c 0.8320314,-0.175782 2.2148434,-0.351563 4.6171874,-0.351563 5.273438,0 8.882813,1.851563 8.882813,6.597656 0,3.902344 -3.246094,6.773438 -8.765625,6.773438 H 9.7856266 Z m 0,16.980468 h 4.3125004 c 5.707031,0 10.441406,2.285157 10.441406,7.804688 0,5.8828124 -4.980469,7.8632811 -10.382813,7.8632811 -1.851562,0 -3.351562,-0.070312 -4.3710934,-0.2460937 z m 23.5136714,-9.65625 10.746094,26.7539066 c 0.234375,0.6679688 0.351563,1.0898438 0.351563,1.38281252 0,0.3046875 -0.175782,0.7265625 -0.421875,1.265625 -1.195313,2.69531248 -3,4.73437498 -4.429688,5.87109378 -1.570312,1.3242187 -3.304687,2.1679687 -4.628906,2.5898437 l 1.324219,4.4414064 c 1.324218,-0.246094 3.902343,-1.148438 6.480468,-3.4218751 3.597657,-3.1289063 6.175782,-8.2265625 9.960938,-18.1875 l 7.921875,-20.6953129 h -5.578125 l -5.765625,17.039063 c -0.714844,2.0976561 -1.324219,4.3242186 -1.863281,6.0585936 h -0.117188 c -0.480469,-1.734375 -1.195312,-4.0195312 -1.863281,-5.9414066 l -6.351563,-17.15625 z m 45,29.03906287 h 5.226563 V -18.305991 H 98.81883 v -4.3125 H 83.525861 v -13.441406 h 16.558589 v -4.382812 H 78.299298 Z M 128.8159,-13.559897 c 0.0703,-0.539062 0.1875,-1.382812 0.1875,-2.460937 0,-5.34375 -2.51953,-13.675782 -12,-13.675782 -8.46094,0 -13.61719,6.890625 -13.61719,15.65625 0,8.7539066 5.33203,14.63671912 14.27344,14.63671912 4.61719,0 7.80469,-0.9609375 9.65625,-1.79296872 l -0.89063,-3.7851563 c -1.98046,0.84375 -4.26562,1.5 -8.03906,1.5 -5.28515,0 -9.84375,-2.9414062 -9.96094,-10.0781251 z m -20.33203,-3.785156 c 0.42187,-3.65625 2.7539,-8.578125 8.09765,-8.578125 5.94141,0 7.38282,5.226562 7.32422,8.578125 z m 27.05859,17.34374987 h 5.21485 V -15.481772 c 0,-0.902344 0.11718,-1.734375 0.24609,-2.460937 0.71484,-3.960938 3.35156,-6.773438 7.07812,-6.773438 0.71485,0 1.25391,0.05859 1.79297,0.175781 v -4.980468 c -0.48047,-0.117188 -0.89062,-0.175782 -1.5,-0.175782 -3.53906,0 -6.71484,2.460938 -8.03906,6.351563 h -0.23437 l -0.17579,-5.695313 h -4.6289 c 0.1875,2.695313 0.24609,5.636719 0.24609,9.058594 z m 19.86035,0 h 5.27344 V -17.462241 c 0,-0.902343 0.12891,-1.804687 0.36328,-2.460937 0.90235,-2.941406 3.59766,-5.402344 7.07813,-5.402344 4.98047,0 6.72656,3.902344 6.72656,8.589844 v 16.73437487 h 5.27344 V -17.345053 c 0,-9.960938 -6.23438,-12.351563 -10.25391,-12.351563 -4.80469,0 -8.16797,2.695313 -9.60937,5.460938 h -0.11719 l -0.29297,-4.804688 h -4.6875 c 0.1875,2.402344 0.24609,4.863282 0.24609,7.863282 z m 54.18164,0 C 209.22117,-1.9817719 209.10399,-4.4427094 209.10399,-6.9622406 V -17.825522 c 0,-5.8125 -2.16797,-11.871094 -11.05079,-11.871094 -3.65625,0 -7.13671,1.019532 -9.53906,2.578125 l 1.20703,3.480469 c 2.03907,-1.324219 4.86328,-2.167969 7.5586,-2.167969 5.9414,0 6.59765,4.324219 6.59765,6.726563 v 0.597656 c -11.21484,-0.05859 -17.46093,3.785156 -17.46093,10.8046876 0,4.1953125 3,8.33203127 8.88281,8.33203127 4.13672,0 7.2539,-2.03906247 8.88281,-4.31249997 h 0.17578 l 0.42188,3.65624997 z m -5.58984,-9.78515627 c 0,0.5507813 -0.11719,1.1484375 -0.29297,1.6875 -0.84375,2.4609375 -3.24609,4.8632813 -7.01953,4.8632813 -2.70703,0 -4.98047,-1.6289063 -4.98047,-5.0507813 0,-5.6367186 6.53906,-6.6562496 12.29297,-6.5390626 z m 13.62891,9.78515627 h 5.27343 V -17.462241 c 0,-0.902343 0.12891,-1.804687 0.36329,-2.460937 0.90234,-2.941406 3.59765,-5.402344 7.07812,-5.402344 4.98047,0 6.72656,3.902344 6.72656,8.589844 v 16.73437487 h 5.27344 V -17.345053 c 0,-9.960938 -6.23437,-12.351563 -10.25391,-12.351563 -4.80468,0 -8.16796,2.695313 -9.60937,5.460938 h -0.11719 l -0.29297,-4.804688 h -4.6875 c 0.1875,2.402344 0.2461,4.863282 0.2461,7.863282 z M 270.71531,-42.598959 v 17.332031 h -0.11718 c -1.32422,-2.332031 -4.32422,-4.429688 -8.75391,-4.429688 -7.08984,0 -13.08984,5.929688 -13.01953,15.597657 0,8.8124996 5.39062,14.75390587 12.41016,14.75390587 4.74609,0 8.28515,-2.46093747 9.90234,-5.69531247 h 0.11719 l 0.24609,5.03906247 h 4.73438 C 276.05906,-1.9817719 276.00047,-4.9231781 276.00047,-7.5013031 V -42.598959 Z m 0,30.421875 c 0,0.832031 -0.0586,1.558593 -0.23437,2.2734371 -0.96094,3.9609375 -4.20703,6.3046875 -7.74609,6.3046875 -5.69532,0 -8.57813,-4.8632812 -8.57813,-10.7460936 0,-6.421875 3.24609,-11.214844 8.70703,-11.214844 3.96094,0 6.83203,2.753906 7.61719,6.117188 0.17578,0.65625 0.23437,1.558593 0.23437,2.226562 z m 26.34082,-17.519532 c -8.03906,0 -14.39062,5.695313 -14.39062,15.410157 0,9.1874996 6.05859,14.94140587 13.91016,14.94140587 7.01953,0 14.46093,-4.67578127 14.46093,-15.42187487 0,-8.871094 -5.63672,-14.929688 -13.98047,-14.929688 z m -0.11718,3.960938 c 6.24609,0 8.70703,6.234375 8.70703,11.15625 0,6.5390624 -3.78516,11.2734374 -8.82422,11.2734374 -5.15625,0 -8.82422,-4.7929688 -8.82422,-11.1562504 0,-5.519531 2.70703,-11.273437 8.94141,-11.273437 z m 68.75683,25.73437487 h 5.10938 L 368.27391,-40.442709 h -6.65625 l -7.19531,19.558593 c -1.80469,5.097657 -3.2461,9.539063 -4.26563,13.6171879 h -0.17578 c -1.01953,-4.1953129 -2.40234,-8.6367189 -4.07813,-13.6171879 l -6.90234,-19.558593 h -6.65625 L 329.52,-0.00130313 h 4.98047 L 335.5786,-17.345053 c 0.36328,-6.058594 0.65625,-12.832031 0.78515,-17.871094 h 0.11719 c 1.13672,4.792969 2.75391,10.019531 4.67578,15.714844 l 6.53906,19.26562487 h 3.96094 l 7.14844,-19.62890587 c 2.03906,-5.578125 3.71484,-10.617188 5.09765,-15.351563 h 0.17579 c -0.0586,5.039063 0.30468,11.8125 0.59765,17.449219 z M 402.35496,-13.559897 c 0.0703,-0.539062 0.1875,-1.382812 0.1875,-2.460937 0,-5.34375 -2.51953,-13.675782 -12,-13.675782 -8.46094,0 -13.61719,6.890625 -13.61719,15.65625 0,8.7539066 5.33204,14.63671912 14.27344,14.63671912 4.61719,0 7.80469,-0.9609375 9.65625,-1.79296872 l -0.89062,-3.7851563 c -1.98047,0.84375 -4.26563,1.5 -8.03907,1.5 -5.28515,0 -9.84375,-2.9414062 -9.96093,-10.0781251 z m -20.33203,-3.785156 c 0.42188,-3.65625 2.75391,-8.578125 8.09766,-8.578125 5.9414,0 7.38281,5.226562 7.32422,8.578125 z m 32.33203,17.34374987 V -29.040366 h -5.27344 V -0.00130313 Z M 411.71824,-40.501303 c -1.92187,0 -3.30468,1.441406 -3.30468,3.304687 0,1.792969 1.32421,3.234375 3.1875,3.234375 2.09765,0 3.42187,-1.441406 3.36328,-3.234375 0,-1.863281 -1.26563,-3.304687 -3.2461,-3.304687 z m 11.40528,40.49999987 h 5.21484 V -15.481772 c 0,-0.902344 0.11719,-1.734375 0.24609,-2.460937 0.71485,-3.960938 3.35157,-6.773438 7.07813,-6.773438 0.71484,0 1.25391,0.05859 1.79297,0.175781 v -4.980468 c -0.48047,-0.117188 -0.89063,-0.175782 -1.5,-0.175782 -3.53906,0 -6.71485,2.460938 -8.03906,6.351563 h -0.23438 l -0.17578,-5.695313 h -4.62891 c 0.1875,2.695313 0.2461,5.636719 0.2461,9.058594 z M 465.47508,-13.559897 c 0.0703,-0.539062 0.1875,-1.382812 0.1875,-2.460937 0,-5.34375 -2.51953,-13.675782 -12,-13.675782 -8.46094,0 -13.61719,6.890625 -13.61719,15.65625 0,8.7539066 5.33203,14.63671912 14.27344,14.63671912 4.61719,0 7.80469,-0.9609375 9.65625,-1.79296872 l -0.89063,-3.7851563 c -1.98046,0.84375 -4.26562,1.5 -8.03906,1.5 -5.28515,0 -9.84375,-2.9414062 -9.96094,-10.0781251 z m -20.33203,-3.785156 c 0.42187,-3.65625 2.7539,-8.578125 8.09765,-8.578125 5.94141,0 7.38282,5.226562 7.32422,8.578125 z m 27.05859,17.34374987 h 5.27344 V -42.598959 h -5.27344 z m 14.16211,0 h 5.27344 V -42.598959 h -5.27344 z M 523.85496,-13.559897 c 0.0703,-0.539062 0.1875,-1.382812 0.1875,-2.460937 0,-5.34375 -2.51953,-13.675782 -12,-13.675782 -8.46094,0 -13.61719,6.890625 -13.61719,15.65625 0,8.7539066 5.33204,14.63671912 14.27344,14.63671912 4.61719,0 7.80469,-0.9609375 9.65625,-1.79296872 l -0.89062,-3.7851563 c -1.98047,0.84375 -4.26563,1.5 -8.03907,1.5 -5.28515,0 -9.84375,-2.9414062 -9.96093,-10.0781251 z m -20.33203,-3.785156 c 0.42188,-3.65625 2.75391,-8.578125 8.09766,-8.578125 5.9414,0 7.38281,5.226562 7.32422,8.578125 z m 25.01953,15.9609374 c 2.03906,1.20703122 4.98047,1.98046872 8.15625,1.98046872 6.90235,0 10.86328,-3.59765622 10.86328,-8.69531252 0,-4.3242186 -2.57812,-6.8437496 -7.6289,-8.7656246 -3.77344,-1.441407 -5.51953,-2.519532 -5.51953,-4.921875 0,-2.15625 1.74609,-3.949219 4.86328,-3.949219 2.70703,0 4.80468,0.949219 5.9414,1.675781 l 1.32422,-3.84375 c -1.6289,-0.960937 -4.20703,-1.792969 -7.14844,-1.792969 -6.23437,0 -10.01953,3.832032 -10.01953,8.519532 0,3.480468 2.46094,6.351562 7.6875,8.214843 3.90235,1.441407 5.40235,2.824219 5.40235,5.3437504 0,2.4023437 -1.80469,4.3125 -5.64844,4.3125 -2.63672,0 -5.40234,-1.078125 -6.96094,-2.0976563 z m 0,0" style="fill:#ce4f2d;fill-opacity:1;fill-rule:nonzero;stroke:none" aria-label="By Fernando Meirelles" transform="matrix(1.3333333,0,0,1.3333333,1300.2455,4159.5408)" />
    </g></svg>