<?xml version='1.0' encoding='utf-8'?>
<svg xmlns="http://www.w3.org/2000/svg" version="1.1" width="152.291" height="177.023" viewBox="1068.150 2201.960 152.291 177.023"><defs id="defs1"><clipPath clipPathUnits="userSpaceOnUse" id="clipPath46">
      <path d="M 0,3370.3901 H 2383.9401 V -2.5000001e-5 H 0 Z" id="path46" />
    </clipPath>
  </defs><g id="object"><path id="path31" d="m 0,0 c 0,11.363 -0.247,22.734 0.093,34.087 0.201,6.701 2.873,12.323 10.906,11.622 6.414,-0.561 8.544,-5.792 8.703,-11.255 0.509,-17.476 0.216,-34.979 0.917,-52.443 1.026,-25.538 13.253,-40.13 32.875,-38.577 23.171,1.835 30.378,17.126 30.191,38.162 -0.155,17.482 0.105,34.974 0.566,52.451 0.176,6.68 2.938,12.357 10.937,11.649 8.014,-0.709 9.293,-7.357 9.248,-13.555 -0.165,-22.7 1.322,-45.692 -1.783,-68.021 -3.972,-28.575 -25.49,-43.566 -54.194,-42.009 -26.827,1.454 -46.657,21.163 -48.687,49.04 -0.696,9.568 -0.11,19.23 -0.11,28.849 0.112,0 0.225,0 0.338,0" style="fill:#424242;fill-opacity:1;fill-rule:nonzero;stroke:none" transform="matrix(1.3333333,0,0,-1.3333333,1074.9115,2268.9836)" />
      </g></svg>