<?xml version='1.0' encoding='utf-8'?>
<svg xmlns="http://www.w3.org/2000/svg" version="1.1" width="454.975" height="1180.721" viewBox="1243.100 197.047 454.975 1180.721"><g id="object"><path id="path7" d="M 0,0 C -0.107,0.167 -0.214,0.335 -0.322,0.502 -0.596,0.293 -0.886,0.099 -1.127,-0.144 -1.157,-0.174 -0.932,-0.458 -0.825,-0.625 -0.55,-0.418 -0.274,-0.21 0,0 m -122.271,548.798 -0.857,0.726 c -0.126,-0.174 -0.388,-0.468 -0.358,-0.503 0.246,-0.276 0.547,-0.504 0.832,-0.746 0.127,0.173 0.254,0.346 0.383,0.523 m -182.841,-695.235 c -0.156,0.395 -0.312,0.79 -0.468,1.186 -0.196,-0.364 -0.579,-0.749 -0.541,-1.087 0.052,-0.461 0.424,-0.887 0.659,-1.328 0.115,0.406 0.23,0.812 0.35,1.229 m 31.245,33.569 c -0.005,3.498 -2.663,4.012 -5.278,4.466 -2.451,0.426 -4.585,-0.386 -4.493,-3.088 0.122,-3.538 3.721,-3.736 6.048,-4.643 2.173,-0.847 3.305,1.126 3.723,3.265 m 136.378,617.804 c -0.144,1.739 -1.281,2.489 -2.827,2.429 -3.032,-0.119 -6.327,-0.309 -7.902,-3.319 -0.982,-1.879 -2.974,-4.471 -0.865,-6.406 2.097,-1.925 2.804,1.419 4.29,2.097 1.468,0.669 3.091,0.99 4.585,1.61 1.556,0.646 2.91,1.564 2.719,3.589 M -86.054,-3.776 c -0.302,2.266 -1.496,3.552 -3.345,3.068 -3.887,-1.016 -7.928,-2.173 -7.807,-7.482 0.044,-1.904 0.951,-3.482 2.925,-3.078 4.236,0.866 6.64,3.955 8.227,7.492 m -147.088,-217.413 c -0.283,2.662 -0.528,5.174 -0.823,7.68 -0.483,4.102 -4.301,2.952 -6.634,4.039 -1.513,0.704 -2.736,-0.282 -2.949,-2.022 -0.345,-2.815 0.436,-5.3 3.007,-6.675 2.222,-1.187 4.68,-1.934 7.399,-3.022 m 75.419,708.913 c 3.41,0.425 5.934,1.999 6.163,5.549 0.186,2.891 -1.615,5.432 -4.507,4.942 -3.068,-0.52 -6.68,-2.595 -7.253,-5.549 -0.492,-2.535 2.494,-4.642 5.597,-4.942 m -76.704,-581.509 c -0.166,3.772 -1.744,7.312 -3.706,10.627 -0.486,0.82 -2.593,0.773 -3.135,-0.26 -1.956,-3.725 -3.6,-7.663 -1.989,-11.969 0.82,-2.193 0.755,-5.956 4.494,-4.855 2.555,0.752 4.959,2.735 4.336,6.457 m -13.701,-7.089 c 0.461,1.732 -0.367,3.126 -3.352,2.994 -2.351,-0.104 -4.895,3.112 -6.925,-1.224 -1.647,-3.52 -4.255,-6.721 -8.491,-7.682 -1.802,-0.409 -4.384,-0.169 -2.494,-3.193 1.154,-1.847 1.902,-4.041 5.258,-1.7 4.027,2.808 8.129,6.085 13.889,5.443 2.557,-0.285 1.933,2.639 2.115,5.362 m 21.927,42.835 c 3.266,-3.168 -3.768,-14.745 8.828,-9.985 1.018,0.385 1.809,-0.143 2.086,-1.227 1.952,-7.641 6.134,-2.231 9.001,-1.193 2.974,1.078 2.696,4.299 1.664,6.743 -1.231,2.918 -3.235,1.94 -5.047,0.311 -0.666,-0.6 -1.993,-1.588 -2.255,-0.612 -2.135,7.956 -9.839,2.844 -14.277,5.963 m 21.525,-136.797 c -0.441,-1.007 -0.874,-2.049 -1.35,-3.072 -1.66,-3.565 -2.893,-9.098 -6.909,-1.405 -0.713,1.365 -2.239,1.198 -2.778,-0.027 -1.59,-3.619 -3.993,-7.009 -3.793,-11.231 0.078,-1.643 1.008,-2.614 2.651,-2.731 0.974,-0.07 1.939,0.236 2.113,1.36 0.788,5.114 3.385,4.785 6.512,2.066 0.9,-0.782 1.606,-2.097 2.824,-1.4 6.244,3.575 12.438,6.561 19.414,1.612 0.38,-0.27 1.991,0.375 2.312,0.977 2.392,4.485 -2.045,7.275 -3.279,10.755 -0.981,2.765 -4.167,0.134 -5.003,-1.261 -4.42,-7.37 -7.108,-1.64 -10.15,1.13 -0.962,0.877 -0.488,2.913 -2.564,3.227 m -73.765,0.247 c -2.984,1.054 -6.071,2.057 -9.089,3.236 -3.027,1.184 -3.607,0.741 -3.989,-2.896 -0.73,-6.945 -2.13,-13.385 7.671,-14.411 0.404,-0.043 0.896,-0.449 1.12,-0.822 3.777,-6.302 7.97,-1.2 10.969,0.373 3.773,1.978 3.642,6.943 1.491,10.049 -2.389,3.449 -4.831,6.821 -6.143,10.958 -2.891,-1.91 -0.417,-4.458 -2.03,-6.487 m 216.869,45.705 c 4.723,1.247 -0.029,7.729 5.681,8.068 7.705,0.458 13.987,2.755 15.709,11.439 0.116,0.585 0.877,1.062 1.377,1.55 6.314,6.167 9.01,14.827 14.695,21.534 1.269,1.497 5.368,6.31 1.923,8.141 -2.379,1.265 -6.472,-2.513 -8.364,-5.955 -0.226,-0.411 -0.276,-0.945 -0.563,-1.294 -6.603,-8.017 -10.861,-17.78 -18.829,-24.814 -3.678,-3.246 -6.299,-7.536 -9.91,-10.971 -1.81,-1.721 -4.68,-4.598 -1.719,-7.698 m -211.83,-6.044 c -1.177,-5.698 -1.636,-11.419 -9.829,-9.611 -2.327,0.513 -4.063,-3.065 -4.393,-5.631 -0.468,-3.638 2.191,-2.471 4.274,-2.411 2.15,0.062 3.678,-0.212 1.938,-3.285 -1.965,-3.472 -0.007,-6.169 3.738,-6.556 4.208,-0.434 10.515,-2.39 11.813,2.368 1.196,4.381 0.777,7.211 6.275,5.435 0.39,-0.127 1.264,0.634 1.639,1.172 2.182,3.132 4.027,6.336 8.766,6.347 1.515,0.003 2.577,2.628 2.298,4.698 -0.242,1.801 -1.5,2.982 -3.079,3.619 -1.846,0.743 -2.551,-0.944 -3.169,-2.079 -2.116,-3.886 -4.937,-2.813 -8.392,-2.054 -4.969,1.092 -7.475,5.468 -11.879,7.988 m 27.247,10.641 c 3.124,-0.52 6.074,-0.937 8.991,-1.522 2.005,-0.401 4.854,-1.766 5.128,1.13 0.164,1.732 0.801,4.801 -3.681,6.119 -4.485,1.32 -13.286,1.29 -10.36,10.724 -2.735,0.117 -4.207,-1.554 -6.037,-2.578 -1.921,-1.076 -4.176,-0.804 -6.146,0.203 -1.223,0.626 -1.338,1.946 -0.903,3.114 0.905,2.43 3.287,2.667 5.292,2.802 2.831,0.192 6.874,-1.831 6.17,3.663 -0.634,4.946 -3.573,5.672 -8.259,4.503 -3.473,-0.867 -7.253,-3.085 -10.948,-1.022 -3.57,1.994 -6.12,0.832 -7.508,-2.338 -1.25,-2.853 -0.441,-4.915 2.395,-7.656 7.371,-7.126 19.318,-9.88 21.465,-22.315 0.611,-3.541 4.775,-2.735 7.476,-3.017 1.488,3.884 -3.437,3.963 -3.075,8.19 m 116.005,536.728 c 0.017,1.847 0.034,3.694 0.051,5.541 2.111,6.265 -0.502,12.574 0.182,18.859 0.983,9.028 -1.389,17.369 -5.911,25.025 -2.828,4.787 -7.774,6.453 -13.14,6.941 -5.171,0.47 -10.765,-3.254 -15.506,1.583 -1.048,1.068 -1.454,-0.146 -2.159,-0.668 -13.494,-9.995 -18.015,-23.614 -17.505,-39.993 0.607,-19.457 -0.345,-38.967 0.435,-58.412 0.322,-8.025 -2.627,-16.463 1.859,-24.195 0.037,-1.025 0.074,-2.05 0.112,-3.075 -1.953,-10.692 -1.485,-21.445 -1.109,-32.234 0.987,-28.276 -1.097,-56.56 0.096,-84.846 0.325,-7.691 -0.85,-15.55 -0.588,-23.043 0.235,-6.734 1.702,-13.76 1.996,-20.747 0.175,-4.164 0.166,-8.093 -5.492,-9.29 2.636,-2.383 5.936,-2.904 5.427,-6.743 -2.013,-15.184 0.301,-30.392 -0.033,-45.589 -0.291,-13.235 -0.532,-26.524 -0.285,-39.7 0.474,-25.301 -0.13,-50.605 0.675,-75.878 0.256,-8.039 -2.715,-16.533 1.856,-24.289 0.118,-1.034 0.236,-2.068 0.355,-3.103 -1.707,-5.64 -3.294,-11.705 -2.153,-17.249 2.731,-13.267 -1.579,-26.159 -0.536,-39.259 -4.355,0.372 -8.793,3.262 -12.154,-1.482 -0.817,-1.153 0.309,-3.962 -2.24,-3.48 -1.307,0.247 -2.696,1.961 -3.342,3.343 -0.829,1.771 0.446,3.24 2.096,3.915 2.328,0.952 3.926,2.377 2.208,4.733 -1.216,1.668 -3.656,1.608 -5.152,0.324 -6.17,-5.297 -11.518,-2.289 -17.579,1.803 0.752,-3.844 -4.8,-6.654 -1.599,-9.614 2.774,-2.565 1.444,3.87 4.449,3.57 2.414,-1.958 3.246,-4.827 1.935,-7.456 -1.323,-2.651 -3.775,-0.231 -5.702,-0.046 -2.01,0.194 -3.697,3.029 -5.805,1.471 -2.976,-2.198 2.086,-4.247 0.617,-6.862 -4.259,1.001 -8.313,0.884 -12.582,-0.105 -5.25,-1.217 -5.486,-3.498 -1.836,-6.306 3.647,-2.806 4.302,-5.565 2.44,-9.57 -2.241,-4.819 1.087,-6.897 4.77,-8.461 4.011,-1.704 8.482,-1.369 14.486,-1.877 -9.466,-3.569 -9.301,-3.561 -8.839,-13.301 0.177,-3.737 1.835,-9.785 -6.165,-5.749 -2.317,1.17 -6.561,1.676 -7.798,-1.718 -1.252,-3.437 2.607,-4.492 4.95,-5.885 0.979,-0.582 2.433,-1.259 3.329,-0.938 4.907,1.758 5.943,-2.407 6.838,-5.04 1.823,-5.367 3.16,-11 3.792,-16.626 0.315,-2.808 1.29,-3.434 3.343,-2.935 4.51,1.097 10.07,0.688 9.285,8.472 -0.375,3.714 3.806,4.323 7.014,3.962 4.459,-0.501 4.57,-4.542 5.015,-7.564 0.68,-4.62 -2.671,-2.312 -4.661,-2.118 -2.396,0.233 -3.45,-0.916 -3.634,-3.234 -0.235,-2.961 1.373,-5.205 3.419,-6.664 2.29,-1.633 5.002,1.815 4.989,2.229 -0.217,6.785 3.853,4.307 7.013,3.357 1.903,-0.572 3.07,0.532 4.56,1.169 4.46,1.905 7.548,5.875 11.163,8.21 4.828,3.118 12.298,3.378 18.488,2.917 16.175,-1.206 28.153,8.169 28.298,24.837 0.124,14.25 1.046,28.463 0.522,42.781 -1.016,27.707 -0.98,55.471 -1.208,83.2 -0.136,16.583 0.492,33.166 -0.365,49.788 -1.422,27.576 1.45,55.178 -0.822,82.833 -1.305,15.891 0.682,32.027 0.479,48.044 -0.075,5.975 2.779,11.533 2.125,17.145 -1.037,8.887 -2.152,17.712 -1.896,26.674 0.108,3.804 -0.223,7.528 -2.885,10.596 l 0.184,2.798 c 0.357,0.245 0.714,0.491 1.071,0.735 -0.362,0.239 -0.724,0.478 -1.086,0.717 -0.118,0.925 -0.235,1.849 -0.353,2.774 2.992,14.239 6.215,28.478 0.206,42.761 0.025,0.458 0.049,0.916 0.073,1.373 1.219,0.529 1.151,1 -0.063,1.42 -0.085,0.921 -0.17,1.841 -0.255,2.762 3.569,3.668 -0.277,7.195 -0.207,10.796 0.025,0.668 0.051,1.336 0.077,2.003 3.158,3.746 3.067,7.588 0.343,11.509 -0.056,2.803 -0.113,5.606 -0.169,8.409 3.276,6.497 2.921,13.702 2.585,20.453 -0.353,7.077 -0.455,14.008 -0.012,21.096 0.841,13.435 1.259,26.941 -0.494,40.366 -0.286,2.193 0.598,4.905 -2.018,6.421 l 0.117,2.739 c 1.664,0.955 1.653,1.918 0.015,2.89 m -181.799,73.91 c -0.078,2.047 0.295,3.966 1.592,5.623 3.173,2.258 4.819,4.918 2.288,8.68 0.135,0.911 0.271,1.823 0.406,2.734 4.81,1.691 3.562,7.706 6.656,9.993 7.52,5.558 7.606,14.046 9.941,21.702 l 0.326,-0.342 c 0,0 -0.343,0.325 -0.343,0.324 2.446,-0.618 4.339,0.289 5.094,2.573 2.337,7.072 9.303,10.052 13.764,15.227 6.245,7.244 14.95,12.293 23.624,16.861 2.453,1.292 6.001,2.732 3.775,6.914 0,0 0.357,0.351 0.357,0.35 2.976,-1.361 5.933,-0.758 9.02,-0.255 8.63,1.405 16.131,5.927 23.822,9.4 7.43,3.356 14.874,-3.392 21.578,1.807 0.091,0.07 1.17,-0.788 1.455,-1.375 1.105,-2.273 3.373,-3.261 5.094,-4.845 1.292,-1.189 3.259,-4.411 3.689,-3.264 1.363,3.632 8.316,0.834 7.036,6.766 -0.423,1.963 -0.335,4.527 2.69,4.88 2.512,0.292 3.76,-1.194 4.713,-3.407 2.008,-4.665 4.693,-4.391 6.857,-0.24 1.542,2.958 3.686,4.016 6.783,4.074 4.396,0.082 8.822,0.728 13.175,0.379 7.902,-0.634 12.129,-3.014 17.047,-8.457 0.278,-0.308 0.865,-0.519 1.287,-0.487 3.398,0.259 7.313,-1.72 10.018,1.618 1.963,2.421 3.967,1.453 6.334,1.246 5.258,-0.459 6.644,-5.055 9.037,-8.244 2.709,-3.612 6.045,-4.444 9.181,-2.433 6.239,4.001 12.371,0.824 15.392,-2.603 5.676,-6.439 13.529,-6.217 20.02,-9.662 0,0 -0.012,0.007 -0.012,0.007 0.539,-3.93 2.701,-4.906 6.218,-3.416 0,0 0.374,-0.26 0.374,-0.26 -0.759,-5.884 2.962,-7.309 7.692,-7.732 0.922,-0.901 1.845,-1.801 2.768,-2.702 2.333,-5.135 3.092,-11.524 10.228,-12.828 1.407,-1.168 2.667,-2.427 2.733,-4.424 -0.994,-0.726 -1.613,-1.654 -0.991,-2.86 0.686,-1.334 1.783,-1.029 2.853,-0.461 0,0 0.317,-0.337 0.316,-0.337 -1.922,-5.222 0.684,-8.132 5.154,-10.088 0,0 0.11,-0.117 0.109,-0.118 -0.433,-4.755 1.154,-8.723 4.659,-11.942 0.281,-0.693 0.563,-1.385 0.844,-2.079 0.067,-1.867 -0.172,-3.808 0.253,-5.591 2.284,-9.593 4.819,-19.128 7.086,-28.725 0.972,-4.113 2.254,-8.353 2.116,-12.494 -0.708,-21.339 2.667,-42.524 1.052,-64.021 -0.861,-11.464 0.151,-23.522 0.633,-35.301 0.183,-4.478 0.427,-8.859 -3.167,-12.603 -1.854,-1.931 -1.742,-5.177 -0.421,-7.41 3.564,-6.028 3.655,-12.54 3.654,-19.172 0,-2.222 -0.748,-4.935 2.415,-5.952 0.026,-0.911 0.051,-1.822 0.076,-2.733 -3.606,-2.282 -3.49,-4.713 -0.292,-7.268 0.726,-3.242 0.843,-6.501 0.281,-9.78 -3.809,-3.889 -4.022,-7.689 0.279,-11.378 L 6.45,257.346 c -4.021,-2.858 -4.063,-5.722 -0.01,-8.59 0.026,-1.403 0.052,-2.806 0.079,-4.21 -1.757,-0.261 -3.67,-0.988 -3.398,-2.903 0.947,-6.674 0.942,-13.538 3.574,-19.912 -0.066,-0.93 -0.131,-1.86 -0.196,-2.791 -1.333,-0.207 -2.171,-0.837 -1.986,-2.334 1.609,-13.063 0.079,-26.172 0.529,-39.28 0.877,-25.562 0.201,-51.177 0.26,-76.77 C 5.307,98.138 4.23,95.183 7.403,93.641 7.618,92.258 7.833,90.876 8.049,89.493 4.672,86.828 4.462,83.948 7.463,80.851 7.631,77.578 7.799,74.304 7.968,71.031 5.363,70.692 5.384,68.665 5.271,66.769 5.124,64.302 3.834,62.516 1.464,62.362 -9.444,61.65 -9.325,53.137 -10.255,45.679 c -0.692,-5.547 1.49,-6.706 6.598,-4.439 3.639,1.615 6.891,5.201 11.526,2.742 C 7.945,43.058 8.022,42.134 8.098,41.21 6.625,37.848 3.454,34.478 8.141,31.142 8.14,29.717 8.14,28.292 8.139,26.867 1.797,23.37 -0.049,17.058 4.221,10.321 7.488,5.167 6.468,-0.154 6.436,-5.482 6.42,-8.218 4.72,-9.778 2.544,-7.062 c -1.59,1.986 -2.999,3.011 -5.268,1.765 -0.645,-0.353 -1.327,-1.627 -1.167,-2.274 0.523,-2.097 2.617,-3.117 4.309,-3.159 6.075,-0.152 6.516,-3.876 6.215,-8.541 -0.198,-3.059 -0.016,-6.144 0.029,-9.217 0.038,-2.658 0.236,-5.323 -3.382,-5.962 -2.178,-0.385 -3.18,-2.176 -3.403,-4.069 -0.347,-2.941 2.231,-2.337 3.916,-2.789 0.643,-0.173 1.45,-0.407 1.802,-0.89 3.692,-5.057 0.504,-20.412 -5.041,-23.47 -2.985,-1.646 -4.082,-4.442 -3.354,-6.967 0.696,-2.411 3.448,-2.867 5.906,-1.193 1.831,1.246 3.609,0.794 3.378,-1.466 -1.132,-11.075 2.634,-21.977 0.855,-33.106 -0.589,-3.681 -3.473,-8.356 2.048,-11.141 0.033,-0.933 0.067,-1.865 0.101,-2.797 -0.451,-0.786 -1.198,-1.533 -1.306,-2.362 -1.263,-9.733 0.129,-19.693 -3.121,-29.337 -0.721,-2.139 -1.461,-6.772 2.991,-8.224 -0.137,-0.89 -0.275,-1.78 -0.412,-2.671 -5.349,-8.261 -5.744,-18.134 -8.886,-27.1 -2.423,-6.918 -1.924,-14.749 -6.005,-20.999 -4.867,-7.455 -9.29,-15.198 -14.13,-22.668 -2.291,-3.536 -6.638,-6.944 -5.688,-12.284 0,0 -0.08,-0.09 -0.08,-0.09 -4.892,-0.098 -5.941,-3.028 -5.305,-7.199 0,0 -0.205,-0.225 -0.206,-0.224 -1.09,0.105 -1.485,-0.41 -1.291,-1.447 0.015,-0.385 -0.169,-0.597 -0.553,-0.635 -4.57,-0.628 -7.132,-4.672 -11.03,-6.52 -2.143,-1.017 -2.14,-3.322 -1.038,-5.418 0,0 -0.285,-0.355 -0.286,-0.354 -2.558,1.052 -4.623,1.372 -3.811,-2.571 0.019,-0.292 -0.116,-0.462 -0.405,-0.51 -6.999,1.944 -11.649,-3.534 -17.302,-5.675 -9.682,-3.667 -17.838,-10.883 -28.402,-12.605 -19.485,-3.177 -38.888,-6.45 -58.814,-6.466 -10.379,-0.009 -19.719,4.469 -29.821,4.443 -16.27,-0.041 -31.057,6.242 -45.174,12.632 -16.786,7.6 -30.874,19.408 -44.239,32.895 -13.892,14.019 -20.221,31.016 -28.161,47.718 -1.25,2.631 -1.353,5.799 0.209,8.494 3.169,-0.141 1.269,-5.261 5.651,-3.846 -0.926,3.58 0.624,7.091 0.994,10.781 0.199,1.982 2.315,4.668 -0.195,5.629 -2.062,0.789 -5.199,0.314 -6.913,-2.169 -3.36,-4.867 -4.372,-1.277 -5.196,1.549 -2.265,7.77 4.101,2.634 6.265,3.948 -3.937,6.68 -10.158,12.265 -8.836,21.085 0.252,1.682 -0.999,3.097 -2.711,3.79 -0.01,0.894 -0.021,1.789 -0.031,2.683 5.49,5.585 5.359,7.197 -0.824,10.159 -0.036,1.349 -0.071,2.697 -0.107,4.045 3.884,0.736 8.566,2.187 5.635,6.881 -3.581,5.732 -2.894,11.531 -3.236,17.49 -0.146,2.539 1.344,5.855 -2.606,7.05 -0.094,0.902 -0.189,1.803 -0.283,2.705 3.762,5.45 2.721,11.689 2.965,17.731 0.091,2.247 -0.904,5.41 1.913,6.269 6.119,1.867 2.959,4.712 0.901,7.059 -2.98,3.4 -5.608,6.508 -2.038,11.086 0.616,0.79 0.918,2.694 0.412,3.353 -4.584,5.98 -1.803,12.794 -2.155,19.148 -0.77,13.869 -0.438,27.774 -0.255,41.675 0.088,6.684 3.497,13.157 2.098,19.231 -1.706,7.407 -2.212,14.682 -2.306,22.11 -0.123,9.694 0.213,19.419 -2.831,28.821 -0.066,0.905 -0.132,1.811 -0.198,2.716 3.43,6.861 0.984,14.163 1.555,21.239 0.152,1.877 -0.21,3.798 -2.512,4.453 0.365,2.818 0.73,5.636 1.094,8.454 2.012,3.608 3.155,7.122 -1.09,10.051 -0.901,1.873 -0.538,3.776 -0.136,5.679 3.481,0.483 2.984,3.605 3.003,5.562 0.091,9.408 0.164,18.853 -0.597,28.217 -0.398,4.897 0.644,8.146 5.782,10.224 -5.247,2.626 -7.243,6.406 -6.187,11.611 0.378,1.863 -0.628,2.562 -2.268,2.749 0.045,0.938 0.09,1.876 0.135,2.814 1.291,0.097 2.78,0.793 2.37,1.984 -2.12,6.157 1.131,12.147 0.35,18.147 -0.656,5.042 3.121,7.972 4.312,11.751 0.946,3.002 -5.893,6.144 -5.568,11.451 0.411,6.722 0.901,13.531 0.261,20.197 -0.469,4.885 2.38,10.736 -3.07,14.634 0.054,0.94 0.108,1.879 0.162,2.818 2.924,0.649 2.478,3.012 2.542,5.073 0.527,16.893 -0.97,33.812 0.779,50.713 0.209,2.017 0.37,6.004 -3.578,6.768 -0.04,1.418 -0.08,2.836 -0.12,4.254 0.517,1.003 1.256,1.95 1.517,3.015 3.05,12.459 0.06,25.135 1.206,37.694 0.273,2.99 -0.27,6.554 -2.638,9.183 -0.003,0.923 -0.007,1.846 -0.01,2.769 1.26,0.148 2.78,0.761 2.42,1.996 -1.709,5.854 0.283,11.713 -0.133,17.299 -0.44,5.913 1.009,11.973 -0.879,17.779 0.09,1.859 0.18,3.718 0.27,5.578 0.982,0.016 1.854,0.357 1.891,1.428 0.038,1.077 -0.808,1.467 -1.794,1.525 -10e-4,0.903 -0.002,1.805 -0.003,2.708 4.774,4.491 2.495,11.157 4.959,16.552 1.218,2.668 3.654,6.861 0.691,10.518" style="fill:#08282e;fill-opacity:1;fill-rule:nonzero;stroke:none" transform="matrix(1.3333333,0,0,-1.3333333,1677.0087,970.71533)" />
      <path id="path111" d="m 0,0 c 1.712,-0.693 2.963,-2.108 2.711,-3.79 -1.322,-8.82 4.899,-14.405 8.836,-21.085 -2.164,-1.314 -8.53,3.822 -6.265,-3.948 0.824,-2.826 1.836,-6.416 5.196,-1.549 1.714,2.483 4.851,2.958 6.913,2.169 2.51,-0.961 0.394,-3.647 0.195,-5.629 -0.37,-3.69 -1.92,-7.201 -0.994,-10.781 -4.382,-1.415 -2.482,3.705 -5.651,3.846 -1.562,-2.695 -1.459,-5.863 -0.209,-8.493 7.94,-16.703 14.268,-33.699 28.161,-47.719 13.365,-13.487 27.453,-25.295 44.239,-32.895 14.117,-6.39 28.904,-12.673 45.173,-12.632 10.103,0.026 19.443,-4.452 29.822,-4.443 19.926,0.016 39.329,3.289 58.814,6.466 10.564,1.723 18.72,8.938 28.402,12.605 5.653,2.141 10.303,7.619 17.302,5.675 -13.943,-10.659 -29.628,-17.466 -46.556,-21.94 -26.423,-6.985 -53.091,-6.786 -80.028,-4.41 -21.907,1.932 -42.584,8.249 -61.713,18.38 -19.532,10.344 -35.612,25.33 -49.131,43.067 C 13.191,-71.33 6.716,-53.143 3.018,-34.271 0.847,-23.196 -1.555,-11.634 0,0" style="fill:#494f57;fill-opacity:1;fill-rule:nonzero;stroke:none" transform="matrix(1.3333333,0,0,-1.3333333,1258.7167,1171.7127)" />
      <path id="path133" d="m 0,0 c -6.491,3.445 -14.344,3.223 -20.02,9.662 -3.021,3.427 -9.153,6.604 -15.392,2.603 -3.136,-2.011 -6.471,-1.179 -9.181,2.433 -2.392,3.189 -3.779,7.785 -9.037,8.244 -2.367,0.207 -4.371,1.175 -6.334,-1.246 -2.705,-3.338 -6.62,-1.359 -10.018,-1.618 -0.421,-0.032 -1.009,0.179 -1.287,0.487 -4.918,5.443 -9.144,7.823 -17.047,8.457 -4.352,0.349 -8.779,-0.297 -13.174,-0.379 -3.097,-0.058 -5.242,-1.116 -6.784,-4.074 -2.164,-4.151 -4.849,-4.425 -6.857,0.24 -0.953,2.213 -2.2,3.699 -4.712,3.407 -3.025,-0.353 -3.114,-2.917 -2.691,-4.88 1.28,-5.931 -5.672,-3.134 -7.036,-6.766 -0.43,-1.147 -2.396,2.076 -3.688,3.264 -1.722,1.584 -3.99,2.572 -5.094,4.845 -0.285,0.587 -1.365,1.445 -1.456,1.375 -6.703,-5.199 -14.148,1.549 -21.578,-1.807 -7.691,-3.473 -15.192,-7.995 -23.822,-9.4 -3.087,-0.503 -6.044,-1.106 -9.02,0.255 8.067,7.381 18.712,9.265 28.504,12.344 25.164,7.913 51.183,6.365 77.22,6.165 18.943,-0.146 36.052,-6.29 53.202,-11.978 C -23.053,17.57 -11.602,10.331 -0.968,2.481 -0.364,2.036 -0.31,0.844 0,0" style="fill:#494f57;fill-opacity:1;fill-rule:nonzero;stroke:none" transform="matrix(1.3333333,0,0,-1.3333333,1610.0204,248.198)" />
      <path id="path213" d="m 0,0 c 3.044,-9.402 2.708,-19.127 2.831,-28.822 0.094,-7.427 0.6,-14.702 2.307,-22.109 1.399,-6.074 -2.011,-12.547 -2.099,-19.231 -0.182,-13.901 -0.515,-27.806 0.255,-41.675 0.352,-6.354 -2.429,-13.168 2.156,-19.148 0.505,-0.659 0.203,-2.563 -0.413,-3.353 -3.57,-4.578 -0.942,-7.686 2.038,-11.086 2.059,-2.347 5.218,-5.192 -0.901,-7.059 -2.817,-0.859 -1.822,-4.022 -1.913,-6.269 -0.244,-6.042 0.798,-12.281 -2.965,-17.731 -2.178,5.556 -1.207,11.491 -1.112,17.075 0.363,21.406 -0.072,42.774 -0.633,64.167 -0.4,15.224 0.548,30.483 0.869,45.728 0.251,11.948 -2.762,23.702 -2.022,35.708 C -1.316,-9.153 -1.927,-4.447 0,0" style="fill:#494f57;fill-opacity:1;fill-rule:nonzero;stroke:none" transform="matrix(1.3333333,0,0,-1.3333333,1255.0523,868.38453)" />
      <path id="path214" d="m 0,0 c -5.52,2.785 -2.636,7.46 -2.048,11.141 1.78,11.129 -1.987,22.031 -0.855,33.106 0.231,2.26 -1.547,2.712 -3.377,1.466 -2.459,-1.674 -5.211,-1.218 -5.906,1.193 -0.729,2.525 0.368,5.321 3.354,6.967 5.545,3.058 8.732,18.413 5.041,23.47 -0.353,0.483 -1.159,0.717 -1.803,0.89 -1.684,0.452 -4.262,-0.152 -3.916,2.789 0.223,1.893 1.226,3.684 3.404,4.069 3.618,0.639 3.42,3.304 3.381,5.962 -0.045,3.073 -0.227,6.158 -0.029,9.218 0.302,4.664 -0.14,8.388 -6.215,8.54 -1.692,0.043 -3.786,1.062 -4.308,3.159 -0.161,0.647 0.522,1.921 1.166,2.274 2.27,1.246 3.679,0.221 5.269,-1.765 2.175,-2.716 3.876,-1.156 3.892,1.58 0.031,5.328 1.052,10.649 -2.215,15.803 -4.271,6.737 -2.425,13.049 3.918,16.546 0.901,-2.107 0.852,-4.062 -0.631,-5.969 -1.578,-2.029 -1.861,-4.623 -0.959,-6.756 C 2.171,121.84 -0.462,109.529 -0.308,97.398 -0.086,79.931 -0.144,62.458 0.23,44.995 0.511,31.878 1.273,18.772 1.847,5.662 1.941,3.519 2.232,1.362 0,0" style="fill:#494f57;fill-opacity:1;fill-rule:nonzero;stroke:none" transform="matrix(1.3333333,0,0,-1.3333333,1689.5241,1130.1033)" />
      <path id="path217" d="m 0,0 c -3.163,1.017 -2.415,3.73 -2.415,5.952 0,6.632 -0.09,13.144 -3.654,19.172 -1.321,2.233 -1.433,5.479 0.421,7.41 3.594,3.744 3.35,8.125 3.167,12.603 -0.482,11.779 -1.494,23.837 -0.633,35.301 1.615,21.497 -1.76,42.682 -1.052,64.021 0.138,4.141 -1.144,8.381 -2.116,12.494 -2.267,9.597 -4.802,19.132 -7.087,28.725 -0.424,1.783 -0.185,3.724 -0.252,5.592 4.924,-4.79 4.96,-11.555 6.605,-17.507 C 0.615,146.149 0.245,117.729 0.446,89.426 0.651,60.549 0.46,31.669 0.417,2.79 0.416,1.86 0.145,0.93 0,0" style="fill:#494f57;fill-opacity:1;fill-rule:nonzero;stroke:none" transform="matrix(1.3333333,0,0,-1.3333333,1685.442,582.21013)" />
      <path id="path238" d="m 0,0 c -3.173,1.542 -2.096,4.498 -2.101,6.916 -0.059,25.592 0.617,51.207 -0.26,76.769 -0.45,13.108 1.08,26.217 -0.529,39.281 -0.185,1.496 0.653,2.127 1.985,2.334 1.916,-3.758 1.386,-7.827 1.404,-11.796 C 0.664,76.544 0.784,39.584 0.868,2.624 0.87,1.75 0.302,0.875 0,0" style="fill:#494f57;fill-opacity:1;fill-rule:nonzero;stroke:none" transform="matrix(1.3333333,0,0,-1.3333333,1686.8793,845.8612)" />
      <path id="path244" d="m 0,0 c -0.95,5.34 3.397,8.749 5.688,12.284 4.84,7.47 9.263,15.213 14.13,22.668 4.081,6.25 3.582,14.081 6.005,20.999 3.142,8.966 3.537,18.84 8.886,27.1 2.365,-4.07 -0.212,-7.839 -0.966,-11.593 C 29.016,47.916 22.243,25.172 6.542,6.178 4.615,3.846 3.071,1.118 0,0" style="fill:#494f57;fill-opacity:1;fill-rule:nonzero;stroke:none" transform="matrix(1.3333333,0,0,-1.3333333,1640.9165,1301.3595)" />
      <path id="path253" d="m 0,0 c -4.635,2.459 -7.887,-1.127 -11.526,-2.742 -5.108,-2.267 -7.29,-1.108 -6.599,4.439 0.931,7.458 0.812,15.971 11.72,16.683 2.37,0.154 3.66,1.94 3.807,4.407 0.113,1.896 0.092,3.923 2.697,4.262 C 2.304,22.365 1.279,18.675 -2.729,15.267 -6.954,11.676 -6.362,8.163 -1.724,5.882 0.927,4.578 1.228,2.49 0,0" style="fill:#494f57;fill-opacity:1;fill-rule:nonzero;stroke:none" transform="matrix(1.3333333,0,0,-1.3333333,1687.5007,912.0728)" />
      <path id="path256" d="m 0,0 c 5.45,-3.898 2.601,-9.749 3.07,-14.635 0.64,-6.666 0.149,-13.474 -0.261,-20.197 -0.325,-5.306 6.514,-8.449 5.568,-11.451 -1.191,-3.778 -4.968,-6.708 -4.312,-11.75 0.781,-6 -2.47,-11.99 -0.35,-18.148 0.41,-1.19 -1.08,-1.887 -2.37,-1.983 C -1.015,-52.143 0.587,-26.052 0,0" style="fill:#494f57;fill-opacity:1;fill-rule:nonzero;stroke:none" transform="matrix(1.3333333,0,0,-1.3333333,1251.3675,612.47347)" />
      <path id="path270" d="m 0,0 c 2.226,-4.182 -1.323,-5.622 -3.775,-6.914 -8.674,-4.568 -17.38,-9.617 -23.625,-16.861 -4.46,-5.175 -11.426,-8.155 -13.763,-15.227 -0.756,-2.284 -2.649,-3.191 -5.094,-2.572 4.081,10.154 11.881,17.418 19.992,24.049 C -18.135,-10.879 -9.644,-4.504 0,0" style="fill:#494f57;fill-opacity:1;fill-rule:nonzero;stroke:none" transform="matrix(1.3333333,0,0,-1.3333333,1350.5744,228.5288)" />
      <path id="path285" d="m 0,0 c 1.64,-0.187 2.646,-0.886 2.268,-2.749 -1.057,-5.205 0.939,-8.985 6.186,-11.611 -5.137,-2.078 -6.18,-5.327 -5.782,-10.224 0.761,-9.364 0.689,-18.809 0.597,-28.217 -0.019,-1.957 0.478,-5.079 -3.002,-5.562 -1.608,5.772 -0.461,11.678 -0.499,17.477 -0.081,12.59 0.113,25.172 -0.874,37.739 C -1.197,-1.983 -1.11,-0.787 0,0" style="fill:#494f57;fill-opacity:1;fill-rule:nonzero;stroke:none" transform="matrix(1.3333333,0,0,-1.3333333,1252.9811,720.4448)" />
      <path id="path293" d="M 0,0 C 3.948,-0.764 3.786,-4.751 3.578,-6.768 1.829,-23.669 3.325,-40.588 2.799,-57.481 2.734,-59.542 3.18,-61.905 0.257,-62.554 -1.373,-41.709 -0.311,-20.853 0,0" style="fill:#494f57;fill-opacity:1;fill-rule:nonzero;stroke:none" transform="matrix(1.3333333,0,0,-1.3333333,1251.2412,525.31133)" />
      <path id="path314" d="m 0,0 c 2.367,-2.629 2.91,-6.193 2.638,-9.183 -1.146,-12.559 1.844,-25.235 -1.207,-37.694 -0.26,-1.065 -0.999,-2.013 -1.516,-3.015 -2.246,10.849 -0.548,21.817 -0.488,32.69 C -0.542,-11.537 -3.184,-5.584 0,0" style="fill:#494f57;fill-opacity:1;fill-rule:nonzero;stroke:none" transform="matrix(1.3333333,0,0,-1.3333333,1251.1944,453.1164)" />
      <path id="path334" d="m 0,0 c -4.452,1.452 -3.712,6.085 -2.991,8.224 3.25,9.644 1.858,19.604 3.121,29.337 0.108,0.829 0.855,1.576 1.306,2.362 C 4.854,26.475 2.044,13.251 0,0" style="fill:#494f57;fill-opacity:1;fill-rule:nonzero;stroke:none" transform="matrix(1.3333333,0,0,-1.3333333,1687.7444,1187.0633)" />
      <path id="path340" d="M 0,0 C 3.95,-1.196 2.46,-4.511 2.605,-7.05 2.948,-13.01 2.261,-18.808 5.842,-24.54 8.773,-29.234 4.09,-30.685 0.207,-31.421 -0.301,-20.95 -2.237,-10.489 0,0" style="fill:#494f57;fill-opacity:1;fill-rule:nonzero;stroke:none" transform="matrix(1.3333333,0,0,-1.3333333,1257.1581,1107.3019)" />
      <path id="path344" d="m 0,0 c -2.335,-7.656 -2.42,-16.144 -9.941,-21.701 -3.094,-2.287 -1.846,-8.302 -6.656,-9.993 2.146,11.171 9.392,20.042 13.68,30.249 C -2.451,-0.335 -1.301,0.178 0,0" style="fill:#494f57;fill-opacity:1;fill-rule:nonzero;stroke:none" transform="matrix(1.3333333,0,0,-1.3333333,1288.9204,283.93867)" />
      <path id="path351" d="m 0,0 c 1.888,-5.806 0.439,-11.865 0.879,-17.778 0.416,-5.587 -1.576,-11.445 0.133,-17.3 0.361,-1.234 -1.16,-1.848 -2.42,-1.995 C -2.325,-24.663 -5.03,-12.185 0,0" style="fill:#494f57;fill-opacity:1;fill-rule:nonzero;stroke:none" transform="matrix(1.3333333,0,0,-1.3333333,1253.0576,399.99293)" />
      <path id="path392" d="M 0,0 C 2.963,-3.657 0.527,-7.85 -0.691,-10.518 -3.155,-15.913 -0.875,-22.579 -5.65,-27.07 -6.645,-17.446 -4.127,-8.555 0,0" style="fill:#494f57;fill-opacity:1;fill-rule:nonzero;stroke:none" transform="matrix(1.3333333,0,0,-1.3333333,1261.0761,348.9136)" />
      <path id="path394" d="m 0,0 c -2.632,6.374 -2.626,13.238 -3.574,19.912 -0.271,1.915 1.642,2.642 3.398,2.903 C 1.053,15.219 2.107,7.622 0,0" style="fill:#494f57;fill-opacity:1;fill-rule:nonzero;stroke:none" transform="matrix(1.3333333,0,0,-1.3333333,1685.9349,675.07373)" />
      <path id="path402" d="M 0,0 C 2.301,-0.655 2.664,-2.576 2.512,-4.453 1.941,-11.53 4.387,-18.832 0.957,-25.692 -2.013,-17.227 -0.272,-8.586 0,0" style="fill:#494f57;fill-opacity:1;fill-rule:nonzero;stroke:none" transform="matrix(1.3333333,0,0,-1.3333333,1253.5129,830.50693)" />
      <path id="path446" d="M 0,0 C -1.102,2.096 -1.105,4.401 1.038,5.417 4.936,7.266 7.499,11.31 12.068,11.938 9.994,5.989 4.673,3.322 0,0" style="fill:#494f57;fill-opacity:1;fill-rule:nonzero;stroke:none" transform="matrix(1.3333333,0,0,-1.3333333,1614.9121,1330.0699)" />
      <path id="path464" d="M 0,0 C -7.136,1.304 -7.895,7.693 -10.229,12.828 -3.952,10.838 -2.73,4.817 0,0" style="fill:#494f57;fill-opacity:1;fill-rule:nonzero;stroke:none" transform="matrix(1.3333333,0,0,-1.3333333,1646.3783,284.106)" />
      <path id="path470" d="M 0,0 C 6.183,-2.963 6.314,-4.575 0.824,-10.159 -1.417,-6.933 -0.019,-3.41 0,0" style="fill:#494f57;fill-opacity:1;fill-rule:nonzero;stroke:none" transform="matrix(1.3333333,0,0,-1.3333333,1257.5764,1154.5893)" />
      <path id="path525" d="M 0,0 C -4.302,3.689 -4.088,7.49 -0.279,11.378 0.505,7.603 0.889,3.817 0,0" style="fill:#494f57;fill-opacity:1;fill-rule:nonzero;stroke:none" transform="matrix(1.3333333,0,0,-1.3333333,1685.9011,623.75573)" />
      <path id="path528" d="M 0,0 C -4.687,3.336 -1.515,6.706 -0.042,10.069 1.589,6.719 2.312,3.366 0,0" style="fill:#494f57;fill-opacity:1;fill-rule:nonzero;stroke:none" transform="matrix(1.3333333,0,0,-1.3333333,1687.8629,929.1928)" />
      <path id="path532" d="M 0,0 C -4.47,1.957 -7.076,4.866 -5.154,10.088 -1.92,7.5 -0.531,3.969 0,0" style="fill:#494f57;fill-opacity:1;fill-rule:nonzero;stroke:none" transform="matrix(1.3333333,0,0,-1.3333333,1659.7975,308.3332)" />
      <path id="path549" d="M 0,0 C -3.505,3.219 -5.092,7.187 -4.659,11.942 -1.871,8.443 0.988,4.972 0,0" style="fill:#494f57;fill-opacity:1;fill-rule:nonzero;stroke:none" transform="matrix(1.3333333,0,0,-1.3333333,1666.1551,324.41253)" />
      <path id="path564" d="M 0,0 C -4.729,0.423 -8.45,1.849 -7.692,7.732 -4.516,5.763 -1.831,3.306 0,0" style="fill:#494f57;fill-opacity:1;fill-rule:nonzero;stroke:none" transform="matrix(1.3333333,0,0,-1.3333333,1629.0495,263.3996)" />
      <path id="path575" d="M 0,0 C 4.245,-2.929 3.102,-6.442 1.091,-10.05 -1.8,-6.975 -0.307,-3.423 0,0" style="fill:#494f57;fill-opacity:1;fill-rule:nonzero;stroke:none" transform="matrix(1.3333333,0,0,-1.3333333,1253.5175,805.8344)" />
      <path id="path597" d="M 0,0 C -0.635,4.171 0.414,7.102 5.306,7.2 4.817,3.856 2.988,1.501 0,0" style="fill:#494f57;fill-opacity:1;fill-rule:nonzero;stroke:none" transform="matrix(1.3333333,0,0,-1.3333333,1633.736,1311.0783)" />
      <path id="path599" d="M 0,0 C -4.052,2.868 -4.01,5.732 0.01,8.59 0.844,5.726 0.412,2.863 0,0" style="fill:#494f57;fill-opacity:1;fill-rule:nonzero;stroke:none" transform="matrix(1.3333333,0,0,-1.3333333,1685.5947,639.04053)" />
      <path id="path605" d="M 0,0 C 2.531,-3.761 0.885,-6.422 -2.288,-8.68 -3.806,-5.186 -1.839,-2.61 0,0" style="fill:#494f57;fill-opacity:1;fill-rule:nonzero;stroke:none" transform="matrix(1.3333333,0,0,-1.3333333,1266.2499,329.8436)" />
      <path id="path624" d="M 0,0 C -3.001,3.097 -2.791,5.977 0.586,8.643 1.532,5.685 1.63,2.784 0,0" style="fill:#494f57;fill-opacity:1;fill-rule:nonzero;stroke:none" transform="matrix(1.3333333,0,0,-1.3333333,1686.9593,862.91453)" />
      <path id="path636" d="M 0,0 C -3.198,2.555 -3.315,4.986 0.292,7.268 1.162,4.806 1.163,2.38 0,0" style="fill:#494f57;fill-opacity:1;fill-rule:nonzero;stroke:none" transform="matrix(1.3333333,0,0,-1.3333333,1685.1544,595.5444)" />
      <path id="path667" d="M 0,0 C -3.517,-1.49 -5.679,-0.514 -6.218,3.416 -3.355,3.715 -1.491,2.197 0,0" style="fill:#494f57;fill-opacity:1;fill-rule:nonzero;stroke:none" transform="matrix(1.3333333,0,0,-1.3333333,1618.2949,252.744)" />
      <path id="path917" d="m 0,0 c -0.336,-0.563 -0.65,-1.089 -0.963,-1.614 0.382,-0.188 0.765,-0.532 1.145,-0.53 0.706,0.004 1.386,0.304 0.976,1.207 C 1,-0.588 0.505,-0.392 0,0 m -24.28,62.585 c 2.652,-4 5.79,-5.293 7.425,-8.124 1.033,-1.788 3.371,-0.877 5.145,-0.255 1.065,0.374 1.46,1.252 0.937,2.166 -0.822,1.435 -1.938,2.845 -3.877,2.104 -3.872,-1.48 -5.14,2.785 -9.63,4.109 m 3.776,-23.508 c -2.074,-1.225 -5.352,-0.75 -5.876,0.319 -3.943,8.036 -8.351,0.844 -10.816,-0.486 -2.611,-1.408 -5.552,-4.171 -8.845,-7.418 5.807,-0.754 10.473,-2.607 13.311,3.616 1.508,3.307 4.696,2.173 6.701,0.869 4.55,-2.96 5.256,-0.595 5.387,3.237 2.408,-0.106 3.569,3.867 6.739,1.895 0.853,-0.531 3.153,-0.239 3.639,1.29 0.576,1.812 -1.537,3.724 -2.345,3.784 -3.674,0.275 -5.735,3.709 -9.172,4.164 -0.483,2.373 1.181,8.272 -3.33,5.392 -5.48,-3.498 -7.437,-1.054 -10.052,2.317 -2.407,3.103 -5.104,1.929 -7.556,0.617 -3.514,-1.881 -0.595,-3.764 0.253,-5.733 0.63,-1.465 0.58,-3.207 1.068,-4.751 0.75,-2.374 1.917,-4.749 4.98,-3.31 4.667,2.191 9.167,1.005 13.737,-0.061 2.028,-1.42 3.367,-3.101 2.177,-5.741 m 15.218,92.37 c 2.981,-8.249 0.648,-16.802 1.169,-25.201 C -3.26,92.424 -3.264,78.379 -4.747,64.626 -6.49,48.455 -5.391,32.642 -3.11,16.731 -1.822,7.747 1.081,4.479 10.297,2.078 c 7.135,-1.86 14.287,-3.679 21.465,-0.407 9.84,4.485 11.578,13.891 12.443,22.936 0.957,10.009 0.442,20.172 0.345,30.265 -0.386,40.14 -0.983,80.278 -1.261,120.418 -0.25,36.129 0.256,72.269 -0.401,108.388 -0.506,27.858 0.08,55.694 0.047,83.539 -0.006,5.365 -1.681,10.761 0.449,16.064 2.662,-3.069 2.993,-6.792 2.885,-10.597 -0.256,-8.962 0.859,-17.786 1.896,-26.673 0.654,-5.613 -2.201,-11.17 -2.125,-17.146 0.203,-16.016 -1.784,-32.153 -0.479,-48.043 2.272,-27.655 -0.6,-55.257 0.822,-82.833 0.857,-16.623 0.229,-33.205 0.365,-49.788 0.228,-27.729 0.192,-55.494 1.208,-83.2 C 48.48,50.683 47.557,36.47 47.434,22.22 47.289,5.552 35.311,-3.823 19.136,-2.617 c -6.19,0.461 -13.66,0.201 -18.488,-2.918 -3.615,-2.334 -6.703,-6.304 -11.163,-8.21 -1.49,-0.636 -2.657,-1.74 -4.56,-1.168 -3.16,0.95 -7.23,3.427 -7.013,-3.357 0.013,-0.414 -2.699,-3.862 -4.989,-2.23 -2.046,1.46 -3.654,3.704 -3.419,6.665 0.184,2.318 1.238,3.467 3.634,3.233 1.99,-0.193 5.341,-2.501 4.661,2.119 -0.445,3.022 -0.556,7.063 -5.015,7.564 -3.208,0.361 -7.389,-0.248 -7.014,-3.962 0.785,-7.785 -4.775,-7.375 -9.285,-8.472 -2.053,-0.499 -3.028,0.127 -3.343,2.935 -0.632,5.625 -1.969,11.259 -3.792,16.625 -0.895,2.634 -1.931,6.799 -6.839,5.04 -0.895,-0.32 -2.349,0.357 -3.328,0.939 -2.343,1.392 -6.202,2.448 -4.95,5.884 1.237,3.395 5.481,2.888 7.798,1.719 8,-4.036 6.342,2.012 6.165,5.749 -0.462,9.74 -0.627,9.732 8.839,13.3 -6.004,0.509 -10.475,0.173 -14.486,1.877 -3.683,1.565 -7.011,3.642 -4.77,8.462 1.862,4.004 1.207,6.764 -2.44,9.57 -3.65,2.808 -3.414,5.089 1.836,6.305 4.269,0.99 8.323,1.106 12.582,0.106 1.469,2.614 -3.593,4.663 -0.617,6.862 2.108,1.557 3.795,-1.278 5.805,-1.471 1.927,-0.186 4.379,-2.606 5.702,0.045 1.311,2.63 0.479,5.499 -1.935,7.456 -3.005,0.3 -1.675,-6.134 -4.449,-3.569 -3.201,2.959 2.351,5.769 1.599,9.613 6.061,-4.091 11.409,-7.1 17.579,-1.803 1.496,1.284 3.936,1.345 5.152,-0.323 1.718,-2.356 0.12,-3.781 -2.208,-4.734 -1.651,-0.675 -2.925,-2.144 -2.096,-3.914 0.646,-1.382 2.034,-3.097 3.342,-3.344 2.549,-0.481 1.423,2.328 2.24,3.481 3.361,4.743 7.799,1.854 12.154,1.481 -1.043,13.101 3.267,25.993 0.536,39.26 -1.141,5.544 0.446,11.609 2.153,17.249" style="fill:#494f57;fill-opacity:1;fill-rule:nonzero;stroke:none" transform="matrix(1.3333333,0,0,-1.3333333,1445.6113,1201.1975)" />
      <path id="path918" d="m 0,0 c 3.626,-8.408 0.847,-17.181 1.131,-25.738 0.895,-26.967 1.155,-53.971 0.91,-80.955 -0.204,-22.456 1.196,-44.884 0.919,-67.297 -0.272,-22.042 0.329,-44.052 0.294,-66.066 -0.031,-19.009 -0.443,-38.09 -0.22,-57.068 0.229,-19.487 -0.346,-39.013 0.615,-58.503 0.11,-2.219 0.804,-4.751 -1.106,-6.731 -4.571,7.756 -1.6,16.25 -1.856,24.289 -0.805,25.272 -0.201,50.576 -0.675,75.878 -0.247,13.175 -0.006,26.465 0.285,39.699 0.334,15.197 -1.98,30.405 0.033,45.589 0.509,3.839 -2.791,4.36 -5.427,6.743 5.658,1.197 5.667,5.126 5.492,9.29 -0.294,6.987 -1.761,14.014 -1.996,20.747 -0.262,7.493 0.913,15.352 0.588,23.043 -1.192,28.287 0.891,56.57 -0.096,84.846 C -1.485,-21.445 -1.953,-10.691 0,0" style="fill:#494f57;fill-opacity:1;fill-rule:nonzero;stroke:none" transform="matrix(1.3333333,0,0,-1.3333333,1434.6991,538.6532)" />
      <path id="path919" d="m 0,0 c -3.532,7.773 -1.168,16.093 -2.09,24.135 -1.098,9.569 -6.709,19.76 -13.794,21.339 -17.857,3.982 -26.446,0.163 -32.187,-10.129 -3.805,-6.822 -3.978,-15.557 -3.323,-23.517 1.43,-17.378 0.447,-34.731 0.396,-52.092 -0.03,-10.199 -0.484,-20.397 -0.747,-30.596 -4.486,7.732 -1.537,16.171 -1.859,24.195 -0.78,19.445 0.172,38.956 -0.435,58.413 -0.51,16.378 4.011,29.997 17.504,39.992 0.706,0.523 1.112,1.736 2.159,0.668 4.742,-4.836 10.336,-1.112 15.507,-1.583 5.366,-0.488 10.312,-2.154 13.14,-6.94 C -1.207,36.228 1.164,27.887 0.182,18.859 -0.503,12.574 2.111,6.265 0,0" style="fill:#494f57;fill-opacity:1;fill-rule:nonzero;stroke:none" transform="matrix(1.3333333,0,0,-1.3333333,1503.5435,440.07307)" />
      <path id="path920" d="m 0,0 c -0.362,-4.227 4.563,-4.306 3.076,-8.19 -2.702,0.282 -6.866,-0.525 -7.477,3.016 -2.147,12.436 -14.094,15.19 -21.465,22.316 -2.836,2.741 -3.644,4.803 -2.395,7.656 1.388,3.17 3.938,4.332 7.509,2.338 3.694,-2.063 7.474,0.155 10.947,1.022 4.686,1.169 7.625,0.443 8.259,-4.503 0.704,-5.494 -3.339,-3.471 -6.17,-3.663 -2.005,-0.136 -4.387,-0.372 -5.292,-2.803 -0.435,-1.167 -0.32,-2.488 0.903,-3.113 1.97,-1.007 4.225,-1.279 6.146,-0.203 1.83,1.024 3.302,2.695 6.037,2.578 C -2.848,7.017 5.953,7.046 10.438,5.727 14.92,4.409 14.283,1.34 14.119,-0.392 13.845,-3.288 10.996,-1.923 8.991,-1.522 6.074,-0.937 3.125,-0.52 0,0" style="fill:#494f57;fill-opacity:1;fill-rule:nonzero;stroke:none" transform="matrix(1.3333333,0,0,-1.3333333,1348.8019,1163.0977)" />
      <path id="path921" d="m 0,0 c 4.404,-2.52 6.91,-6.896 11.879,-7.987 3.455,-0.759 6.276,-1.833 8.392,2.053 0.618,1.135 1.323,2.823 3.169,2.079 1.579,-0.636 2.837,-1.818 3.079,-3.619 0.279,-2.069 -0.783,-4.695 -2.298,-4.698 -4.739,-0.011 -6.584,-3.215 -8.766,-6.347 -0.375,-0.538 -1.249,-1.298 -1.639,-1.172 -5.498,1.777 -5.079,-1.054 -6.274,-5.435 -1.299,-4.758 -7.606,-2.802 -11.813,-2.367 -3.746,0.387 -5.704,3.084 -3.739,6.555 1.74,3.073 0.212,3.347 -1.938,3.285 -2.083,-0.06 -4.742,-1.227 -4.274,2.411 0.33,2.566 2.066,6.144 4.393,5.631 C -1.636,-11.419 -1.177,-5.698 0,0" style="fill:#494f57;fill-opacity:1;fill-rule:nonzero;stroke:none" transform="matrix(1.3333333,0,0,-1.3333333,1312.4725,1177.2863)" />
      <path id="path922" d="m 0,0 c -2.961,3.099 -0.091,5.977 1.719,7.698 3.611,3.435 6.232,7.724 9.91,10.971 7.968,7.033 12.226,16.797 18.829,24.814 0.287,0.349 0.337,0.882 0.563,1.294 1.892,3.442 5.985,7.22 8.364,5.955 C 42.83,48.901 38.731,44.088 37.462,42.591 31.777,35.883 29.081,27.223 22.767,21.057 22.267,20.569 21.506,20.092 21.39,19.507 19.668,10.823 13.386,8.526 5.682,8.068 -0.029,7.729 4.724,1.247 0,0" style="fill:#494f57;fill-opacity:1;fill-rule:nonzero;stroke:none" transform="matrix(1.3333333,0,0,-1.3333333,1594.9125,1169.2271)" />
      <path id="path923" d="m 0,0 c 1.613,2.029 -0.862,4.577 2.029,6.488 1.312,-4.138 3.755,-7.51 6.144,-10.959 2.151,-3.106 2.282,-8.071 -1.491,-10.049 -2.999,-1.573 -7.192,-6.675 -10.97,-0.373 -0.223,0.373 -0.716,0.779 -1.119,0.822 -9.802,1.026 -8.402,7.466 -7.672,14.411 0.383,3.638 0.963,4.08 3.99,2.896 C -6.071,2.057 -2.984,1.054 0,0" style="fill:#494f57;fill-opacity:1;fill-rule:nonzero;stroke:none" transform="matrix(1.3333333,0,0,-1.3333333,1305.7545,1230.1675)" />
      <path id="path924" d="m 0,0 c 2.076,-0.313 1.602,-2.35 2.564,-3.227 3.042,-2.77 5.73,-8.5 10.15,-1.13 0.836,1.395 4.022,4.026 5.003,1.261 1.234,-3.48 5.671,-6.27 3.279,-10.755 -0.321,-0.602 -1.932,-1.246 -2.311,-0.977 -6.977,4.949 -13.171,1.963 -19.415,-1.612 -1.218,-0.697 -1.924,0.618 -2.823,1.4 -3.128,2.719 -5.724,3.048 -6.513,-2.066 -0.173,-1.124 -1.138,-1.429 -2.112,-1.36 -1.644,0.118 -2.574,1.088 -2.652,2.731 -0.199,4.222 2.203,7.612 3.793,11.231 0.539,1.225 2.065,1.392 2.778,0.027 4.016,-7.693 5.25,-2.16 6.909,1.405 C -0.874,-2.049 -0.441,-1.006 0,0" style="fill:#494f57;fill-opacity:1;fill-rule:nonzero;stroke:none" transform="matrix(1.3333333,0,0,-1.3333333,1404.1071,1230.4969)" />
      <path id="path925" d="m 0,0 c -2.394,6.374 -0.343,12.942 -0.55,19.393 -0.572,17.778 -0.241,35.603 0.341,53.389 0.17,5.187 -2.565,10.447 0.27,15.554 C 2.677,86.82 1.793,84.108 2.079,81.915 3.832,68.49 3.414,54.984 2.573,41.549 2.13,34.461 2.232,27.53 2.585,20.453 2.921,13.702 3.276,6.497 0,0" style="fill:#494f57;fill-opacity:1;fill-rule:nonzero;stroke:none" transform="matrix(1.3333333,0,0,-1.3333333,1503.2181,572.7472)" />
      <path id="path926" d="m 0,0 c 4.438,-3.119 12.142,1.993 14.277,-5.963 0.262,-0.976 1.589,0.013 2.255,0.612 1.812,1.629 3.817,2.607 5.048,-0.311 1.031,-2.444 1.31,-5.665 -1.665,-6.743 -2.866,-1.038 -7.049,-6.448 -9,1.193 C 10.638,-10.128 9.847,-9.6 8.828,-9.985 -3.768,-14.745 3.266,-3.168 0,0" style="fill:#494f57;fill-opacity:1;fill-rule:nonzero;stroke:none" transform="matrix(1.3333333,0,0,-1.3333333,1375.4069,1048.1007)" />
      <path id="path927" d="m 0,0 c -0.181,-2.724 0.442,-5.647 -2.115,-5.363 -5.76,0.643 -9.862,-2.635 -13.888,-5.442 -3.356,-2.341 -4.104,-0.148 -5.259,1.7 -1.89,3.023 0.693,2.784 2.495,3.193 4.236,0.961 6.844,4.162 8.491,7.681 2.029,4.336 4.574,1.121 6.924,1.225 C -0.366,3.125 0.462,1.732 0,0" style="fill:#494f57;fill-opacity:1;fill-rule:nonzero;stroke:none" transform="matrix(1.3333333,0,0,-1.3333333,1346.1708,1105.2133)" />
      <path id="path928" d="M 0,0 C -0.152,14.255 -2.447,28.52 0.206,42.761 6.215,28.479 2.992,14.24 0,0" style="fill:#494f57;fill-opacity:1;fill-rule:nonzero;stroke:none" transform="matrix(1.3333333,0,0,-1.3333333,1503.2117,680.79187)" />
      <path id="path929" d="m 0,0 c 0.623,-3.722 -1.781,-5.705 -4.336,-6.457 -3.739,-1.101 -3.674,2.662 -4.494,4.855 -1.611,4.306 0.033,8.244 1.989,11.969 0.542,1.032 2.65,1.08 3.135,0.26 C -1.744,7.312 -0.166,3.771 0,0" style="fill:#494f57;fill-opacity:1;fill-rule:nonzero;stroke:none" transform="matrix(1.3333333,0,0,-1.3333333,1364.4389,1095.7619)" />
      <path id="path930" d="M 0,0 C -3.103,0.3 -6.089,2.407 -5.597,4.942 -5.024,7.895 -1.411,9.97 1.656,10.49 4.548,10.981 6.35,8.44 6.163,5.548 5.934,1.998 3.41,0.425 0,0" style="fill:#494f57;fill-opacity:1;fill-rule:nonzero;stroke:none" transform="matrix(1.3333333,0,0,-1.3333333,1466.7109,320.41613)" />
      <path id="path931" d="m 0,0 c -2.719,1.088 -5.177,1.835 -7.399,3.022 -2.571,1.375 -3.352,3.86 -3.007,6.675 0.213,1.74 1.436,2.726 2.948,2.022 2.334,-1.087 6.152,0.063 6.635,-4.039 C -0.528,5.174 -0.283,2.662 0,0" style="fill:#494f57;fill-opacity:1;fill-rule:nonzero;stroke:none" transform="matrix(1.3333333,0,0,-1.3333333,1366.1527,1265.6339)" />
      <path id="path932" d="m 0,0 c -1.587,-3.538 -3.991,-6.626 -8.227,-7.492 -1.974,-0.404 -2.881,1.174 -2.925,3.077 -0.121,5.31 3.92,6.467 7.806,7.483 C -1.496,3.552 -0.302,2.266 0,0" style="fill:#494f57;fill-opacity:1;fill-rule:nonzero;stroke:none" transform="matrix(1.3333333,0,0,-1.3333333,1562.2701,975.74987)" />
      <path id="path933" d="m 0,0 c 0.191,-2.025 -1.162,-2.943 -2.719,-3.589 -1.494,-0.62 -3.117,-0.941 -4.585,-1.61 -1.486,-0.678 -2.193,-4.022 -4.29,-2.097 -2.108,1.935 -0.117,4.527 0.866,6.406 1.574,3.01 4.869,3.2 7.901,3.318 C -1.281,2.489 -0.144,1.739 0,0" style="fill:#494f57;fill-opacity:1;fill-rule:nonzero;stroke:none" transform="matrix(1.3333333,0,0,-1.3333333,1493.6897,297.4672)" />
      <path id="path934" d="M 0,0 C -0.419,-2.139 -1.551,-4.112 -3.723,-3.265 -6.05,-2.358 -9.649,-2.16 -9.771,1.378 -9.864,4.08 -7.729,4.892 -5.278,4.467 -2.664,4.012 -0.005,3.498 0,0" style="fill:#494f57;fill-opacity:1;fill-rule:nonzero;stroke:none" transform="matrix(1.3333333,0,0,-1.3333333,1311.8531,1121.2061)" />
      <path id="path935" d="M 0,0 C -0.628,3.858 -1.526,7.725 0.344,11.509 3.067,7.588 3.159,3.746 0,0" style="fill:#494f57;fill-opacity:1;fill-rule:nonzero;stroke:none" transform="matrix(1.3333333,0,0,-1.3333333,1502.9853,599.30413)" />
      <path id="path936" d="M 0,0 C -1.666,3.568 -2.17,7.158 -0.207,10.795 -0.277,7.195 3.569,3.668 0,0" style="fill:#494f57;fill-opacity:1;fill-rule:nonzero;stroke:none" transform="matrix(1.3333333,0,0,-1.3333333,1503.1593,616.37)" />
      <path id="path1102" d="m 0,0 c -4.57,1.065 -9.07,2.251 -13.737,0.06 -3.063,-1.438 -4.23,0.937 -4.98,3.311 -0.488,1.544 -0.438,3.286 -1.068,4.751 -0.848,1.969 -3.767,3.852 -0.253,5.732 2.452,1.312 5.149,2.486 7.556,-0.616 C -9.867,9.866 -7.91,7.423 -2.431,10.921 2.081,13.801 0.417,7.902 0.9,5.528 1.153,3.595 1.291,1.681 0,0" style="fill:#08282e;fill-opacity:1;fill-rule:nonzero;stroke:none" transform="matrix(1.3333333,0,0,-1.3333333,1415.3701,1141.4396)" />
      <path id="path1103" d="m 0,0 c -0.128,-3.833 -0.834,-6.198 -5.384,-3.239 -2.005,1.304 -5.193,2.439 -6.701,-0.868 -2.838,-6.223 -7.504,-4.37 -13.311,-3.616 3.293,3.246 6.234,6.009 8.845,7.417 2.465,1.33 6.873,8.523 10.816,0.487 0.524,-1.069 3.802,-1.545 5.877,-0.321 C 0.144,-0.141 0,0 0,0" style="fill:#dedbe1;fill-opacity:1;fill-rule:nonzero;stroke:none" transform="matrix(1.3333333,0,0,-1.3333333,1418.0847,1148.9103)" />
      <path id="path1104" d="M 0,0 C 1.291,1.681 1.153,3.595 0.9,5.528 4.337,5.073 6.398,1.639 10.072,1.365 10.88,1.304 12.993,-0.607 12.417,-2.419 11.931,-3.949 9.631,-4.24 8.778,-3.71 5.608,-1.737 4.447,-5.711 2.037,-5.604 2.036,-5.603 2.18,-5.744 2.178,-5.743 3.367,-3.102 2.028,-1.42 0,0" style="fill:#dedbe1;fill-opacity:1;fill-rule:nonzero;stroke:none" transform="matrix(1.3333333,0,0,-1.3333333,1415.3701,1141.4396)" />
      <path id="path1105" d="m 0,0 c 4.491,-1.324 5.758,-5.589 9.63,-4.11 1.939,0.741 3.055,-0.669 3.877,-2.104 C 14.03,-7.127 13.636,-8.006 12.57,-8.379 10.797,-9.001 8.458,-9.913 7.425,-8.124 5.79,-5.293 2.653,-4.001 0,0" style="fill:#dedbe1;fill-opacity:1;fill-rule:nonzero;stroke:none" transform="matrix(1.3333333,0,0,-1.3333333,1413.2375,1117.7501)" />
      </g></svg>