<?xml version='1.0' encoding='utf-8'?>
<svg xmlns="http://www.w3.org/2000/svg" version="1.1" width="165.128" height="179.319" viewBox="2436.890 460.210 165.128 179.319"><g id="object"><path id="path27" d="m 0,0 c -0.374,4.279 -0.748,8.557 -1.123,12.836 0.74,1.415 0.847,2.823 -0.045,4.22 -1.036,12.232 -2.767,24.287 -8.78,35.285 -1.834,3.353 -4.245,4.261 -7.516,1.977 -3.13,-2.186 -5.651,-4.645 -7.002,-8.537 -4.777,-13.756 -6.279,-28.001 -6.815,-42.388 -0.292,-7.84 -2.661,-9.936 -10.142,-8.782 -4.28,0.66 -8.559,1.624 -11.707,-3.66 -2.669,-4.48 -10.283,-0.929 -12.103,5.861 -1.877,7.004 -3.195,13.785 -1.433,21.505 2.769,12.136 4.286,24.595 7.058,36.782 0.627,2.758 1.135,5.643 2.363,8.143 2.365,4.817 3.977,9.385 1.816,14.875 -0.741,1.884 0.514,4.554 0.856,6.865 l -0.012,-0.074 c 2.893,3.575 5.128,7.4 11.3,5.798 4.287,-1.113 3.678,3.309 3.263,5.948 -0.395,2.52 -0.955,4.606 2.211,5.677 3.67,1.242 4.458,-1.493 5.595,-3.797 0.522,-1.057 0.851,-2.213 1.408,-3.249 6.008,-11.181 8.373,-11.821 20.495,-8.383 9.565,2.712 19.674,2.358 29.485,2.53 8.941,0.157 15.125,-8.068 15.933,-19.44 1.057,-14.891 4.35,-29.043 9.005,-43.322 4.504,-13.815 5.583,-28.689 -5.178,-41.587 -2.581,-3.094 -4.767,-3.889 -8.344,-3.408 -5.833,0.784 -11.507,1.295 -16.455,-3.489 -2.792,-2.699 -8.012,0.23 -9.683,4.832 C 2.935,-12.811 2.865,-8.16 0.245,-4.36 0.873,-2.867 1.049,-1.399 0,0" style="fill:#d2d5d9;fill-opacity:1;fill-rule:nonzero;stroke:none" transform="matrix(1.3333333,0,0,-1.3333333,2532.884,603.06493)" />
      </g></svg>