<?xml version='1.0' encoding='utf-8'?>
<svg xmlns="http://www.w3.org/2000/svg" version="1.1" width="126.513" height="163.656" viewBox="1844.390 214.783 126.513 163.656"><defs id="defs1"><clipPath clipPathUnits="userSpaceOnUse" id="clipPath11">
      <path d="M -2297.4972,2808.5926 H 86.442877 V -561.79751 H -2297.4972 Z" id="path11" />
    </clipPath>
  </defs><g id="object"><path id="path9" d="M 0,0 C 0.366,11.315 1.936,22.326 6.851,32.747 9.793,38.984 13.786,44.26 18.81,48.867 33.718,62.542 59.496,59.435 71.14,44.546 83.141,29.201 87.14,11.798 85.553,-7.129 85.088,-12.678 83.411,-18.145 82.071,-23.597 79.756,-33.019 74.337,-40.582 67.269,-46.989 56.048,-57.161 43.229,-58.452 29.62,-52.86 20.673,-49.184 14.109,-42.56 9.133,-34.313 2.762,-23.752 -0.01,-12.251 0,0" style="fill:#cf2727;fill-opacity:1;fill-rule:nonzero;stroke:none" transform="matrix(1.3333333,0,0,-1.3333333,1850.3947,297.5796)" />
      </g></svg>