<?xml version='1.0' encoding='utf-8'?>
<svg xmlns="http://www.w3.org/2000/svg" version="1.1" width="103.026" height="168.482" viewBox="108.712 4530.160 103.026 168.482"><g id="object"><path id="path160" d="m 0,0 c 4.426,0 6.16,0.139 7.863,-0.033 2.432,-0.246 3.998,-1.831 4.23,-4.148 0.341,-3.408 0.477,-6.869 0.302,-10.287 -0.221,-4.3 -1.16,-5.235 -5.326,-5.869 -3.406,-0.519 -6.865,-0.689 -10.273,-1.198 -5.716,-0.853 -7.125,-2.664 -6.928,-8.692 0.056,-1.72 0.203,-3.454 0.499,-5.148 3.782,-21.672 5.271,-43.61 7.634,-65.447 0.278,-2.571 0.758,-5.13 0.885,-7.707 0.27,-5.448 -1.658,-7.606 -7.362,-8.571 -4.042,-0.685 -5.843,0.245 -6.867,3.847 -0.705,2.48 -1.409,5.014 -1.635,7.566 -2.206,24.942 -7.983,49.329 -11.464,74.072 -0.845,6.006 -3.296,7.814 -9.711,7.977 -3.013,0.076 -6.036,-0.265 -9.05,-0.21 -6.542,0.119 -10.507,6.618 -7.66,12.649 0.485,1.026 1.723,2.205 2.77,2.382 C -33.845,-5.74 -15.815,-1.302 0,0" style="fill:#494643;fill-opacity:1;fill-rule:nonzero;stroke:none" transform="matrix(1.3333333,0,0,-1.3333333,189.10973,4536.226)" />
      </g></svg>