<?xml version='1.0' encoding='utf-8'?>
<svg xmlns="http://www.w3.org/2000/svg" version="1.1" width="65.807" height="100.867" viewBox="1126.850 3956.620 65.807 100.867"><g id="object"><path id="path100" d="m 0,0 c 0,14.494 0.125,26.055 -0.062,37.611 -0.073,4.511 1.528,6.533 6.161,6.46 4.257,-0.068 6.673,-1.353 6.535,-6.131 -0.143,-4.959 0.23,-9.93 0.314,-14.897 0.083,-4.935 3.142,-5.608 7.19,-5.417 4.044,0.19 6.907,1.098 6.706,6.059 -0.2,4.94 0.291,9.912 0.007,14.842 -0.297,5.133 3.174,4.926 6.49,5.279 3.729,0.396 5.508,-0.581 5.553,-4.987 0.19,-18.543 0.791,-37.081 1.253,-55.621 0.12,-4.831 -2.712,-5.642 -6.858,-5.765 -4.15,-0.124 -6.212,0.813 -5.917,5.426 0.346,5.403 -0.905,10.781 -0.255,16.264 0.702,5.919 -3.353,6.711 -8.15,7.061 -5.454,0.397 -6.321,-2.277 -6.125,-6.803 0.236,-5.43 -0.066,-10.881 -0.006,-16.321 0.042,-3.792 -1.276,-5.731 -5.462,-5.333 -3.611,0.342 -7.245,-0.191 -6.978,5.388 C 0.71,-10.29 -0.718,-3.683 0,0" style="fill:#494f57;fill-opacity:1;fill-rule:nonzero;stroke:none" transform="matrix(1.3333333,0,0,-1.3333333,1133.1181,4021.3868)" />
      </g></svg>