<?xml version='1.0' encoding='utf-8'?>
<svg xmlns="http://www.w3.org/2000/svg" version="1.1" width="90.936" height="170.673" viewBox="220.352 2155.690 90.936 170.673"><g id="object"><path id="path67" d="m 0,0 c 0.389,15.503 0.645,31.011 1.221,46.507 0.315,8.48 0.876,9.12 9.43,11.198 4.994,1.213 10.168,1.754 15.289,2.363 8.986,1.069 17.981,2.103 26.996,2.863 4.708,0.397 5.96,-1.056 6.242,-5.923 0.025,-0.431 0.028,-0.863 0.021,-1.295 -0.216,-11.994 0.835,-13.772 -12.058,-14.689 -4.244,-0.302 -8.432,-1.771 -12.578,-2.946 -4.241,-1.202 -5.374,-3.005 -4.671,-7.757 0.693,-4.68 1.689,-9.322 2.745,-13.937 0.693,-3.028 2.554,-4.056 5.777,-3.594 0.852,0.122 1.696,0.312 2.541,0.485 9.815,2.011 11.282,0.677 10.16,-8.807 -0.419,-3.533 -2.399,-5.438 -5.561,-6.271 -2.912,-0.768 -5.934,-1.123 -8.845,-1.895 -6.924,-1.836 -8.6,-3.671 -9.111,-10.63 -0.379,-5.157 -0.204,-10.353 -0.444,-15.524 -0.24,-5.169 -0.469,-10.355 -1.097,-15.486 -1.01,-8.253 -4.737,-11.202 -12.822,-10.598 -1.286,0.097 -2.556,0.404 -3.841,0.494 -8.293,0.585 -8.524,0.572 -8.617,8.884 C 0.604,-31.042 0.728,-15.521 0.728,-0.003 0.485,-0.002 0.243,-0.001 0,0" style="fill:#494643;fill-opacity:1;fill-rule:nonzero;stroke:none" transform="matrix(1.3333333,0,0,-1.3333333,226.35227,2245.6829)" />
      </g></svg>