<?xml version='1.0' encoding='utf-8'?>
<svg xmlns="http://www.w3.org/2000/svg" version="1.1" width="63.159" height="83.414" viewBox="1026.510 436.541 63.159 83.414"><g id="object"><path id="path13" d="m 0,0 c 4.532,-0.678 8.415,-1.48 6.722,-7.471 -1.047,-3.708 -0.405,-7.432 0.565,-11.175 2.331,-8.992 0.825,-17.16 -5.841,-24.054 -3.236,-3.345 -3.531,-9.714 -8.59,-10.742 -5.23,-1.062 -7.188,5.315 -11.421,7.312 -4.01,1.891 -9.901,2.158 -10.323,8.271 -0.688,9.973 -3.571,20.318 3.477,29.349 1.118,1.431 2.773,2.894 4.452,3.359 C -13.947,-3.21 -6.831,-1.644 0,0" style="fill:#d2d5d9;fill-opacity:1;fill-rule:nonzero;stroke:none" transform="matrix(1.3333333,0,0,-1.3333333,1072.5807,442.54053)" />
      </g></svg>