<?xml version='1.0' encoding='utf-8'?>
<svg xmlns="http://www.w3.org/2000/svg" version="1.1" width="113.569" height="147.218" viewBox="1941.250 4230.320 113.569 147.218"><g id="object"><path id="path343" d="m 0,0 c 6.788,0.828 13.433,1.547 20.049,2.48 3.699,0.522 5.006,2.395 3.758,5.658 -1.679,4.393 -3.729,8.652 -5.732,12.915 -3.513,7.473 -7.194,14.867 -10.62,22.379 -0.961,2.108 -1.492,4.485 -1.777,6.794 -0.106,0.864 0.848,2.306 1.691,2.715 0.834,0.405 2.297,0.133 3.209,-0.356 2.682,-1.44 3.333,-4.307 4.07,-6.918 C 18.536,31.91 26.656,20.083 32.119,7.049 33.117,4.668 35.06,3.426 37.535,3.035 c 1.548,-0.246 3.14,-0.223 4.682,-0.489 1.731,-0.3 2.479,-2.266 1.37,-3.439 -0.533,-0.564 -1.122,-1.14 -1.799,-1.491 -3.754,-1.948 -4.814,-4.808 -3.396,-8.804 1.84,-5.186 3.448,-10.453 5.274,-15.644 0.781,-2.221 1.902,-4.319 2.792,-6.504 1.312,-3.218 1.013,-5.859 -0.626,-6.175 -2.324,-0.448 -3.6,1.118 -4.841,2.618 -2.816,3.406 -4.277,7.498 -5.611,11.619 -1.574,4.863 -2.895,9.811 -4.555,14.643 -1.603,4.668 -3.206,6.018 -7.715,5.517 -9.762,-1.085 -19.475,-2.613 -29.218,-3.889 -3.673,-0.482 -5.342,-2.837 -6.345,-6.078 -2.905,-9.391 -5.846,-18.771 -8.838,-28.135 -0.466,-1.458 -1.033,-3.013 -2.003,-4.134 -0.606,-0.7 -2.177,-1.105 -3.091,-0.848 -0.911,0.257 -1.924,1.388 -2.221,2.344 -0.727,2.345 0.032,4.673 0.881,6.889 6.641,17.338 10.846,35.269 13.718,53.597 1.274,8.131 3.675,16.089 5.672,24.099 0.367,1.472 1.087,2.928 1.943,4.189 0.957,1.41 2.596,1.93 4.127,1.174 C -1.31,43.623 -0.311,42.583 0,41.589 0.857,38.848 -0.069,36.151 -0.831,33.504 -2.681,27.079 -4.675,20.693 -6.366,14.227 -7.256,10.821 -7.851,7.299 -8.16,3.793 -8.35,1.622 -6.884,0.166 -4.574,0.019 -3.012,-0.08 -1.439,0 0,0" style="fill:#1e4a94;fill-opacity:1;fill-rule:nonzero;stroke:none" transform="matrix(1.3333333,0,0,-1.3333333,1985.776,4307.1716)" />
      </g></svg>