<?xml version='1.0' encoding='utf-8'?>
<svg xmlns="http://www.w3.org/2000/svg" version="1.1" width="1544.850" height="2933.750" viewBox="49.277 49.269 1544.850 2933.750"><g id="object"><path id="path171" d="m 0,0 c 0,23.153 -0.032,23.141 -22.592,23.14 -178.412,-0.007 -356.823,-0.008 -535.234,-0.011 h -23.123 c 0,8.004 0,13.353 0,18.704 0.009,334.115 -0.03,668.23 0.39,1002.345 0.008,6.314 -6.766,17.694 6.827,18.637 1.512,0.105 5.563,-11.889 5.576,-18.278 0.319,-157.866 0.423,-315.733 -0.034,-473.599 -0.042,-14.596 3.72,-19.541 18.968,-19.499 177.328,0.495 354.659,0.454 531.988,0.101 13.377,-0.027 17.505,3.966 17.472,17.48 -0.409,166.516 -0.476,333.034 0.071,499.55 0.051,15.459 -5.009,18.782 -19.444,18.769 -369.797,-0.344 -739.595,-0.38 -1109.391,0.105 -16.653,0.022 -20.699,-4.705 -20.678,-20.944 0.458,-348.712 0.478,-697.425 -0.031,-1046.136 -0.025,-16.83 4.92,-20.571 20.985,-20.522 178.95,0.547 357.902,0.341 536.854,0.337 6.968,0 13.935,0 23.504,0 0,-9.771 0,-17.235 0,-24.699 -0.006,-345.468 0.022,-690.937 -0.274,-1036.406 -0.006,-6.347 -3.861,-12.691 -5.92,-19.036 -2.283,6.646 -6.557,13.29 -6.562,19.938 -0.309,339.522 -0.255,679.043 -0.234,1018.565 0.002,24.4 0.021,24.45 -24.706,24.453 -173.545,0.016 -347.091,0.013 -520.636,0.005 -22.609,-10e-4 -22.638,-0.033 -22.638,-23.163 0,-346.55 0,-693.101 0.01,-1039.651 0,-23.666 0.029,-23.717 23.661,-23.718 368.176,-0.011 736.351,0.089 1104.527,-0.335 15.931,-0.019 21.087,3.408 21.063,20.446 C -0.134,-722.282 0.002,-361.141 0,0" style="fill:#231916;fill-opacity:1;fill-rule:nonzero;stroke:none" transform="matrix(1.3333333,0,0,-1.3333333,1587.5907,1505.1941)" />
      <path id="path172" d="m 2.4257563,-1.8997594 c 2.0742187,1.38281252 6.1640625,2.47265627 9.9140627,2.47265627 9.175781,0 13.605469,-5.19140627 13.605469,-11.17968787 0,-5.71875 -3.339844,-8.882812 -9.914063,-11.425781 -5.367187,-2.074219 -7.7226562,-3.867187 -7.7226562,-7.5 0,-2.648437 2.0156252,-5.824219 7.3242192,-5.824219 3.515625,0 6.105468,1.160157 7.371093,1.851563 l 1.394532,-4.089844 c -1.734375,-0.984375 -4.617188,-1.910156 -8.601563,-1.910156 -7.546875,0 -12.5625,4.5 -12.5625,10.558594 0,5.472656 3.9140625,8.765625 10.265625,11.015625 5.238281,2.015625 7.3125,4.089843 7.3125,7.722656 0,3.9257811 -2.988281,6.6328124 -8.121094,6.6328124 -3.4687497,0 -6.7499997,-1.1601563 -8.9999997,-2.5429688 z M 37.707983,-0.00132188 V -27.915384 H 32.633764 V -0.00132188 Z M 35.176733,-38.931009 c -1.851563,0 -3.175781,1.382812 -3.175781,3.175781 0,1.734375 1.265625,3.117187 3.058593,3.117187 2.015625,0 3.28125,-1.382812 3.222657,-3.117187 0,-1.792969 -1.207032,-3.175781 -3.105469,-3.175781 z m 10.951172,38.92968712 h 4.957031 V -16.841166 c 0,-0.867187 0.117187,-1.734375 0.410156,-2.484375 0.808594,-2.53125 3.117188,-5.074218 6.28125,-5.074218 3.867188,0 5.824219,3.234375 5.824219,7.675781 v 16.72265612 h 4.96875 V -17.239603 c 0,-0.925781 0.164062,-1.851563 0.398437,-2.542969 0.867188,-2.484375 3.117188,-4.617187 6,-4.617187 4.089844,0 6.046875,3.234375 6.046875,8.601562 v 15.79687512 h 4.96875 V -16.431009 c 0,-9.691407 -5.484375,-12.117188 -9.175781,-12.117188 -2.648437,0 -4.5,0.691406 -6.164062,1.957031 -1.160157,0.867188 -2.25,2.085938 -3.117188,3.632813 h -0.117187 c -1.207032,-3.28125 -4.089844,-5.589844 -7.898438,-5.589844 -4.617187,0 -7.207031,2.484375 -8.765625,5.132813 h -0.175781 l -0.234375,-4.5 h -4.429688 c 0.164063,2.308593 0.222657,4.675781 0.222657,7.558593 z M 106.04294,-28.548197 c -7.722653,0 -13.83984,5.484375 -13.83984,14.824219 0,8.8242186 5.824219,14.35546862 13.38281,14.35546862 6.73828,0 13.89844,-4.50000002 13.89844,-14.82421862 0,-8.53125 -5.42578,-14.355469 -13.44141,-14.355469 z m -0.11718,3.808594 c 6,0 8.36718,6 8.36718,10.722656 0,6.2929689 -3.63281,10.8398439 -8.48437,10.8398439 -4.95703,0 -8.472658,-4.6054688 -8.472658,-10.7226559 0,-5.308594 2.589844,-10.839844 8.589848,-10.839844 z M 125.874,-0.00132188 h 5.07422 V -16.782572 c 0,-0.867187 0.11718,-1.734375 0.35156,-2.367187 0.86719,-2.824219 3.45703,-5.191407 6.79687,-5.191407 4.79297,0 6.46875,3.75 6.46875,8.25 v 16.08984412 h 5.07422 V -16.665384 c 0,-9.574219 -6,-11.882813 -9.86718,-11.882813 -4.60547,0 -7.83985,2.601563 -9.22266,5.25 h -0.11719 l -0.29297,-4.617187 h -4.48828 c 0.16406,2.308593 0.22266,4.675781 0.22266,7.558593 z M 190.40037,-22.372416 H 175.2949 v -12.292968 h 15.97265 v -4.207032 h -20.98828 v 38.87109412 h 21.85547 V -4.2083531 H 175.2949 V -18.223978 h 15.10547 z m 6.11425,21.0468754 c 1.95703,1.14843747 4.78125,1.89843747 7.83985,1.89843747 6.63281,0 10.4414,-3.45703127 10.4414,-8.35546877 0,-4.1601561 -2.48437,-6.5742191 -7.32422,-8.4257811 -3.63281,-1.382813 -5.30859,-2.414063 -5.30859,-4.722656 0,-2.074219 1.67578,-3.808594 4.67578,-3.808594 2.58985,0 4.60547,0.925781 5.70703,1.617187 l 1.26563,-3.691406 c -1.5586,-0.925781 -4.03125,-1.734375 -6.85547,-1.734375 -6,0 -9.63281,3.691406 -9.63281,8.191406 0,3.339844 2.36718,6.117188 7.38281,7.898438 3.75,1.382812 5.19141,2.7070311 5.19141,5.1328124 0,2.3085937 -1.73438,4.1484375 -5.42579,4.1484375 -2.54296,0 -5.1914,-1.03125 -6.6914,-2.015625 z M 222.4658,-34.606791 v 6.691407 h -4.32422 v 3.867187 h 4.32422 v 15.2226564 c 0,3.2929687 0.51562,5.765625 1.95703,7.265625 1.20703,1.38281247 3.11718,2.13281247 5.47265,2.13281247 1.96875,0 3.52735,-0.28125 4.5,-0.69140625 l -0.22265,-3.80859372 c -0.64453,0.1757812 -1.61719,0.3515625 -2.94141,0.3515625 -2.82422,0 -3.80859,-1.9570313 -3.80859,-5.4257813 V -24.048197 h 7.26562 v -3.867187 h -7.26562 v -8.015625 z m 40.02246,21.574219 c 0.0469,-0.515625 0.16406,-1.324219 0.16406,-2.367187 0,-5.132813 -2.41406,-13.148438 -11.53125,-13.148438 -8.13281,0 -13.08985,6.632813 -13.08985,15.046875 0,8.4257814 5.13282,14.07421887 13.72266,14.07421887 4.44141,0 7.5,-0.92578125 9.28125,-1.72265627 l -0.85547,-3.6328125 c -1.91015,0.796875 -4.10156,1.4414063 -7.73437,1.4414063 -5.07422,0 -9.45703,-2.8359375 -9.57422,-9.6914064 z m -19.5586,-3.632812 c 0.41016,-3.515625 2.66016,-8.25 7.79297,-8.25 5.70703,0 7.08984,5.015625 7.03125,8.25 z m 26.00684,16.66406212 h 5.01562 V -14.884134 c 0,-0.855469 0.11719,-1.664063 0.23438,-2.355469 0.6914,-3.808594 3.23437,-6.515625 6.80859,-6.515625 0.69141,0 1.20703,0.04687 1.72266,0.164062 v -4.78125 c -0.45703,-0.117187 -0.85547,-0.175781 -1.44141,-0.175781 -3.39844,0 -6.45703,2.367188 -7.72265,6.117188 h -0.23438 l -0.17578,-5.484375 h -4.42969 c 0.16406,2.601562 0.22266,5.425781 0.22266,8.707031 z m 16.89844,-1.32421872 c 1.95703,1.14843747 4.78125,1.89843747 7.83984,1.89843747 6.63281,0 10.44141,-3.45703127 10.44141,-8.35546877 0,-4.1601561 -2.48438,-6.5742191 -7.32422,-8.4257811 -3.63282,-1.382813 -5.3086,-2.414063 -5.3086,-4.722656 0,-2.074219 1.67578,-3.808594 4.67578,-3.808594 2.58985,0 4.60547,0.925781 5.70704,1.617187 l 1.26562,-3.691406 c -1.55859,-0.925781 -4.03125,-1.734375 -6.85547,-1.734375 -6,0 -9.63281,3.691406 -9.63281,8.191406 0,3.339844 2.36719,6.117188 7.38281,7.898438 3.75,1.382812 5.19141,2.7070311 5.19141,5.1328124 0,2.3085937 -1.73438,4.1484375 -5.42578,4.1484375 -2.54297,0 -5.19141,-1.03125 -6.69141,-2.015625 z m 36.61523,-27.2226564 c -7.72266,0 -13.83984,5.484375 -13.83984,14.824219 0,8.8242186 5.82422,14.35546862 13.38281,14.35546862 6.73828,0 13.89844,-4.50000002 13.89844,-14.82421862 0,-8.53125 -5.42578,-14.355469 -13.44141,-14.355469 z m -0.11719,3.808594 c 6,0 8.36719,6 8.36719,10.722656 0,6.2929689 -3.63281,10.8398439 -8.48437,10.8398439 -4.95704,0 -8.47266,-4.6054688 -8.47266,-10.7226559 0,-5.308594 2.58984,-10.839844 8.58984,-10.839844 z m 19.94824,24.73828112 h 5.07422 V -16.782572 c 0,-0.867187 0.11719,-1.734375 0.35157,-2.367187 0.86718,-2.824219 3.45703,-5.191407 6.79687,-5.191407 4.79297,0 6.46875,3.75 6.46875,8.25 v 16.08984412 h 5.07422 V -16.665384 c 0,-9.574219 -6,-11.882813 -9.86719,-11.882813 -4.60547,0 -7.83984,2.601563 -9.22265,5.25 h -0.11719 l -0.29297,-4.617187 h -4.48828 c 0.16406,2.308593 0.22265,4.675781 0.22265,7.558593 z m 0,0" style="fill:#fff100;fill-opacity:1;fill-rule:nonzero;stroke:none" aria-label="Simon Esterson" transform="matrix(1.3333333,0,0,1.3333333,81.312533,153.2752)" />
      <path id="path173" d="m 0,0 c 2.076,-1.384 6.17,-2.479 9.918,-2.479 9.168,0 13.608,5.189 13.608,11.186 0,5.709 -3.344,8.88 -9.918,11.417 -5.362,2.076 -7.727,3.864 -7.727,7.497 0,2.652 2.019,5.823 7.324,5.823 3.517,0 6.112,-1.153 7.38,-1.845 l 1.384,4.094 c -1.73,0.98 -4.613,1.903 -8.592,1.903 -7.553,0 -12.57,-4.498 -12.57,-10.552 0,-5.478 3.922,-8.765 10.264,-11.014 5.247,-2.018 7.324,-4.094 7.324,-7.727 0,-3.921 -2.999,-6.631 -8.131,-6.631 -3.46,0 -6.746,1.154 -8.995,2.537 z" style="fill:none;stroke:#fff100;stroke-width:3;stroke-linecap:butt;stroke-linejoin:miter;stroke-miterlimit:10;stroke-dasharray:none;stroke-opacity:1" transform="matrix(1.3333333,0,0,-1.3333333,84.541733,150.73813)" />
      <path id="path174" d="M 0,0 V 27.909 H -5.074 V 0 Z m -2.537,38.922 c -1.845,0 -3.171,-1.384 -3.171,-3.171 0,-1.73 1.268,-3.114 3.056,-3.114 2.018,0 3.286,1.384 3.229,3.114 0,1.787 -1.211,3.171 -3.114,3.171 z" style="fill:none;stroke:#fff100;stroke-width:3;stroke-linecap:butt;stroke-linejoin:miter;stroke-miterlimit:10;stroke-dasharray:none;stroke-opacity:1" transform="matrix(1.3333333,0,0,-1.3333333,131.59373,153.2752)" />
      <path id="path175" d="m 0,0 h 4.959 v 16.837 c 0,0.866 0.115,1.73 0.403,2.48 0.808,2.537 3.114,5.074 6.286,5.074 3.863,0 5.824,-3.229 5.824,-7.669 V 0 h 4.959 v 17.241 c 0,0.923 0.173,1.845 0.403,2.537 0.865,2.48 3.114,4.613 5.997,4.613 4.094,0 6.055,-3.229 6.055,-8.592 V 0 h 4.959 v 16.434 c 0,9.687 -5.478,12.109 -9.169,12.109 -2.652,0 -4.497,-0.692 -6.17,-1.96 -1.153,-0.866 -2.248,-2.077 -3.113,-3.633 h -0.116 c -1.211,3.286 -4.094,5.593 -7.9,5.593 -4.612,0 -7.207,-2.48 -8.764,-5.132 H 4.44 l -0.231,4.498 h -4.44 C -0.058,25.602 0,23.238 0,20.355 Z" style="fill:none;stroke:#fff100;stroke-width:3;stroke-linecap:butt;stroke-linejoin:miter;stroke-miterlimit:10;stroke-dasharray:none;stroke-opacity:1" transform="matrix(1.3333333,0,0,-1.3333333,142.8184,153.2752)" />
      <path id="path176" d="m 0,0 c -7.727,0 -13.839,-5.478 -13.839,-14.819 0,-8.823 5.824,-14.358 13.378,-14.358 6.746,0 13.896,4.497 13.896,14.819 C 13.435,-5.824 8.015,0 0,0 Z m -0.115,-3.806 c 5.996,0 8.361,-5.997 8.361,-10.725 0,-6.285 -3.633,-10.841 -8.477,-10.841 -4.959,0 -8.476,4.614 -8.476,10.726 0,5.305 2.595,10.84 8.592,10.84 z" style="fill:none;stroke:#fff100;stroke-width:3;stroke-linecap:butt;stroke-linejoin:miter;stroke-miterlimit:10;stroke-dasharray:none;stroke-opacity:1" transform="matrix(1.3333333,0,0,-1.3333333,222.70053,115.21787)" />
      <path id="path177" d="m 0,0 h 5.074 v 16.78 c 0,0.865 0.115,1.73 0.346,2.364 0.865,2.825 3.46,5.189 6.804,5.189 4.786,0 6.459,-3.748 6.459,-8.245 V 0 h 5.074 v 16.665 c 0,9.571 -5.997,11.878 -9.861,11.878 -4.612,0 -7.841,-2.595 -9.226,-5.247 H 4.555 L 4.267,27.909 H -0.231 C -0.058,25.602 0,23.238 0,20.355 Z" style="fill:none;stroke:#fff100;stroke-width:3;stroke-linecap:butt;stroke-linejoin:miter;stroke-miterlimit:10;stroke-dasharray:none;stroke-opacity:1" transform="matrix(1.3333333,0,0,-1.3333333,249.14773,153.2752)" />
      <path id="path178" d="M 0,0 H -15.107 V 12.282 H 0.865 v 4.21 H -20.124 V -22.373 H 1.73 v 4.209 h -16.837 v 14.012 l 15.107,0 z" style="fill:none;stroke:#fff100;stroke-width:3;stroke-linecap:butt;stroke-linejoin:miter;stroke-miterlimit:10;stroke-dasharray:none;stroke-opacity:1" transform="matrix(1.3333333,0,0,-1.3333333,335.1784,123.44453)" />
      <path id="path179" d="m 0,0 c 1.96,-1.153 4.786,-1.903 7.842,-1.903 6.631,0 10.437,3.46 10.437,8.361 0,4.152 -2.48,6.574 -7.323,8.419 -3.633,1.384 -5.305,2.422 -5.305,4.728 0,2.076 1.672,3.806 4.67,3.806 2.595,0 4.614,-0.923 5.709,-1.615 l 1.268,3.691 c -1.556,0.923 -4.036,1.73 -6.861,1.73 -5.997,0 -9.63,-3.691 -9.63,-8.188 0,-3.345 2.364,-6.112 7.381,-7.9 3.748,-1.384 5.189,-2.71 5.189,-5.132 0,-2.307 -1.73,-4.152 -5.42,-4.152 -2.537,0 -5.189,1.038 -6.688,2.018 z" style="fill:none;stroke:#fff100;stroke-width:3;stroke-linecap:butt;stroke-linejoin:miter;stroke-miterlimit:10;stroke-dasharray:none;stroke-opacity:1" transform="matrix(1.3333333,0,0,-1.3333333,343.32813,151.50693)" />
      <path id="path180" d="m 0,0 v -6.689 h -4.325 v -3.863 H 0 v -15.223 c 0,-3.287 0.519,-5.767 1.96,-7.266 1.211,-1.384 3.114,-2.133 5.478,-2.133 1.961,0 3.518,0.288 4.498,0.692 l -0.231,3.805 c -0.634,-0.173 -1.614,-0.345 -2.94,-0.345 -2.826,0 -3.806,1.96 -3.806,5.419 v 15.051 h 7.265 v 3.863 H 4.959 v 8.015 z" style="fill:none;stroke:#fff100;stroke-width:3;stroke-linecap:butt;stroke-linejoin:miter;stroke-miterlimit:10;stroke-dasharray:none;stroke-opacity:1" transform="matrix(1.3333333,0,0,-1.3333333,377.92507,107.14493)" />
      <path id="path181" d="m 0,0 c 0.058,0.519 0.173,1.326 0.173,2.364 0,5.132 -2.422,13.147 -11.532,13.147 -8.131,0 -13.09,-6.631 -13.09,-15.05 0,-8.419 5.132,-14.069 13.724,-14.069 4.44,0 7.496,0.922 9.284,1.73 l -0.866,3.632 c -1.902,-0.807 -4.093,-1.442 -7.726,-1.442 -5.074,0 -9.457,2.826 -9.572,9.688 z m -19.548,3.633 c 0.404,3.517 2.653,8.245 7.785,8.245 5.708,0 7.092,-5.016 7.034,-8.245 z" style="fill:none;stroke:#fff100;stroke-width:3;stroke-linecap:butt;stroke-linejoin:miter;stroke-miterlimit:10;stroke-dasharray:none;stroke-opacity:1" transform="matrix(1.3333333,0,0,-1.3333333,431.28187,135.8996)" />
      <path id="path182" d="m 0,0 h 5.017 v 14.877 c 0,0.865 0.115,1.672 0.23,2.364 0.692,3.806 3.229,6.516 6.804,6.516 0.692,0 1.211,-0.058 1.73,-0.173 v 4.786 c -0.461,0.115 -0.864,0.173 -1.441,0.173 -3.402,0 -6.459,-2.364 -7.727,-6.112 H 4.382 l -0.173,5.478 h -4.44 C -0.058,25.314 0,22.488 0,19.202 Z" style="fill:none;stroke:#fff100;stroke-width:3;stroke-linecap:butt;stroke-linejoin:miter;stroke-miterlimit:10;stroke-dasharray:none;stroke-opacity:1" transform="matrix(1.3333333,0,0,-1.3333333,439.89187,153.2752)" />
      <path id="path183" d="m 0,0 c 1.96,-1.153 4.786,-1.903 7.842,-1.903 6.631,0 10.437,3.46 10.437,8.361 0,4.152 -2.48,6.574 -7.323,8.419 -3.633,1.384 -5.305,2.422 -5.305,4.728 0,2.076 1.672,3.806 4.67,3.806 2.595,0 4.614,-0.923 5.709,-1.615 l 1.268,3.691 c -1.556,0.923 -4.036,1.73 -6.861,1.73 -5.997,0 -9.63,-3.691 -9.63,-8.188 0,-3.345 2.364,-6.112 7.381,-7.9 3.748,-1.384 5.189,-2.71 5.189,-5.132 0,-2.307 -1.73,-4.152 -5.42,-4.152 -2.537,0 -5.189,1.038 -6.688,2.018 z" style="fill:none;stroke:#fff100;stroke-width:3;stroke-linecap:butt;stroke-linejoin:miter;stroke-miterlimit:10;stroke-dasharray:none;stroke-opacity:1" transform="matrix(1.3333333,0,0,-1.3333333,462.41867,151.50693)" />
      <path id="path184" d="m 0,0 c -7.727,0 -13.839,-5.478 -13.839,-14.819 0,-8.823 5.824,-14.358 13.378,-14.358 6.746,0 13.896,4.497 13.896,14.819 C 13.435,-5.824 8.015,0 0,0 Z m -0.115,-3.806 c 5.996,0 8.361,-5.997 8.361,-10.725 0,-6.285 -3.633,-10.841 -8.477,-10.841 -4.959,0 -8.476,4.614 -8.476,10.726 0,5.305 2.595,10.84 8.592,10.84 z" style="fill:none;stroke:#fff100;stroke-width:3;stroke-linecap:butt;stroke-linejoin:miter;stroke-miterlimit:10;stroke-dasharray:none;stroke-opacity:1" transform="matrix(1.3333333,0,0,-1.3333333,511.2396,115.21787)" />
      <path id="path185" d="m 0,0 h 5.074 v 16.78 c 0,0.865 0.115,1.73 0.346,2.364 0.865,2.825 3.46,5.189 6.804,5.189 4.786,0 6.459,-3.748 6.459,-8.245 V 0 h 5.074 v 16.665 c 0,9.571 -5.997,11.878 -9.861,11.878 -4.612,0 -7.841,-2.595 -9.226,-5.247 H 4.555 L 4.267,27.909 H -0.231 C -0.058,25.602 0,23.238 0,20.355 Z" style="fill:none;stroke:#fff100;stroke-width:3;stroke-linecap:butt;stroke-linejoin:miter;stroke-miterlimit:10;stroke-dasharray:none;stroke-opacity:1" transform="matrix(1.3333333,0,0,-1.3333333,537.6868,153.2752)" />
      <path id="path186" d="m 38.121069,0.00114375 h 4.898437 L 40.593725,-38.86995 h -6.398437 l -6.914063,18.796875 c -1.734375,4.910156 -3.117187,9.175781 -4.101562,13.1015625 H 23.003881 C 22.031225,-11.014481 20.707006,-15.280106 19.089819,-20.073075 L 12.457006,-38.86995 H 6.0585688 l -2.71875,38.87109375 h 4.7929687 l 1.03125,-16.66406275 c 0.3515625,-5.824219 0.6445313,-12.339844 0.75,-17.191406 h 0.1171875 c 1.101563,4.617187 2.660156,9.632812 4.5,15.117187 l 6.28125,18.50390675 h 3.808594 L 31.488256,-19.0887 c 1.957032,-5.367188 3.574219,-10.207031 4.898438,-14.765625 h 0.175781 c -0.05859,4.851562 0.292969,11.367187 0.574219,16.78125 z m 32.868164,0 C 70.63767,-1.8972938 70.520483,-4.2644813 70.520483,-6.6902625 V -17.131669 c 0,-5.589844 -2.074219,-11.414062 -10.605469,-11.414062 -3.515625,0 -6.867187,0.984375 -9.175781,2.484375 l 1.160156,3.339843 c 1.957031,-1.265625 4.664063,-2.074218 7.265625,-2.074218 5.707031,0 6.339844,4.148437 6.339844,6.457031 v 0.574219 c -10.78125,-0.05859 -16.78125,3.632812 -16.78125,10.3828122 0,4.0429688 2.882812,8.01562505 8.542969,8.01562505 3.972656,0 6.972656,-1.95703125 8.53125,-4.14843755 h 0.175781 l 0.398437,3.51562505 z M 65.622045,-9.3972938 c 0,0.515625 -0.117187,1.0898438 -0.292968,1.6171875 -0.796875,2.3554688 -3.105469,4.6640625 -6.738282,4.6640625 -2.601562,0 -4.792968,-1.5585937 -4.792968,-4.8398437 0,-5.4257815 6.292968,-6.3984375 11.824218,-6.2812505 z M 83.721655,-40.944169 H 78.70603 V 0.00114375 h 5.015625 V -10.498856 l 2.601562,-2.882813 9.632813,13.38281275 h 6.16406 L 89.838842,-16.428544 100.62009,-27.912919 h -6.105467 l -8.191406,9.632813 c -0.808594,0.984375 -1.792969,2.191406 -2.484375,3.175781 H 83.721655 Z M 111.80564,0.00114375 V -27.912919 h -5.07422 V 0.00114375 Z M 109.27439,-38.928544 c -1.85156,0 -3.17578,1.382813 -3.17578,3.175781 0,1.734375 1.26562,3.117188 3.05859,3.117188 2.01563,0 3.28125,-1.382813 3.22266,-3.117188 0,-1.792968 -1.20703,-3.175781 -3.10547,-3.175781 z m 10.94824,38.92968775 h 5.07422 V -16.780106 c 0,-0.867188 0.11719,-1.734375 0.35156,-2.367188 0.86719,-2.824219 3.45703,-5.191406 6.79688,-5.191406 4.79297,0 6.46875,3.75 6.46875,8.25 V 0.00114375 h 5.07422 V -16.662919 c 0,-9.574219 -6,-11.882812 -9.86719,-11.882812 -4.60547,0 -7.83985,2.601562 -9.22266,5.25 h -0.11719 l -0.29296,-4.617188 h -4.48829 c 0.16407,2.308594 0.22266,4.675781 0.22266,7.558594 z m 51.60938,-27.91406275 -0.22266,4.207031 h -0.11719 c -1.20703,-2.296875 -3.86719,-4.839843 -8.70703,-4.839843 -6.39844,0 -12.57422,5.367187 -12.57422,14.824218 0,7.7226567 4.95703,13.60546925 11.88281,13.60546925 4.32422,0 7.32422,-2.07421875 8.88282,-4.66406255 h 0.10547 v 3.1054688 c 0,7.0429687 -3.79688,9.75 -8.98829,9.75 -3.46875,0 -6.35156,-1.0429688 -8.1914,-2.1914063 l -1.26563,3.8671875 c 2.25,1.5000003 5.94141,2.2968753 9.28125,2.2968753 3.51563,0 7.44141,-0.796875 10.14844,-3.339844 2.70703,-2.4257813 3.98438,-6.3398438 3.98438,-12.7382813 V -20.237138 c 0,-3.410156 0.10546,-5.660156 0.22265,-7.675781 z m -0.8086,16.03125 c 0,0.867188 -0.10547,1.851563 -0.39844,2.7187502 -1.08984,3.2226563 -3.92578,5.1796875 -7.03125,5.1796875 -5.48437,0 -8.25,-4.546875 -8.25,-10.0312497 0,-6.457032 3.45704,-10.546875 8.3086,-10.546875 3.6914,0 6.16406,2.414062 7.08984,5.355468 0.23438,0.691407 0.28125,1.441407 0.28125,2.308594 z m 59.5752,11.88281275 h 4.89844 L 233.07126,-38.86995 h -6.39843 l -6.91407,18.796875 c -1.73437,4.910156 -3.11718,9.175781 -4.10156,13.1015625 h -0.17578 c -0.97266,-4.0429685 -2.29687,-8.3085935 -3.91406,-13.1015625 l -6.63281,-18.796875 h -6.39844 l -2.71875,38.87109375 h 4.79297 l 1.03125,-16.66406275 c 0.35156,-5.824219 0.64453,-12.339844 0.75,-17.191406 h 0.11718 c 1.10157,4.617187 2.66016,9.632812 4.5,15.117187 l 6.28125,18.50390675 h 3.8086 L 223.9658,-19.0887 c 1.95703,-5.367188 3.57421,-10.207031 4.89843,-14.765625 h 0.17578 c -0.0586,4.851562 0.29297,11.367187 0.57422,16.78125 z m 32.86523,0 C 263.11228,-1.8972938 262.99509,-4.2644813 262.99509,-6.6902625 V -17.131669 c 0,-5.589844 -2.07422,-11.414062 -10.60547,-11.414062 -3.51562,0 -6.86718,0.984375 -9.17578,2.484375 l 1.16016,3.339843 c 1.95703,-1.265625 4.66406,-2.074218 7.26562,-2.074218 5.70703,0 6.33985,4.148437 6.33985,6.457031 v 0.574219 c -10.78125,-0.05859 -16.78125,3.632812 -16.78125,10.3828122 0,4.0429688 2.88281,8.01562505 8.54297,8.01562505 3.97265,0 6.97265,-1.95703125 8.53125,-4.14843755 h 0.17578 l 0.39843,3.51562505 z m -5.36719,-9.39843755 c 0,0.515625 -0.11718,1.0898438 -0.29296,1.6171875 -0.79688,2.3554688 -3.10547,4.6640625 -6.73829,4.6640625 -2.60156,0 -4.79296,-1.5585937 -4.79296,-4.8398437 0,-5.4257815 6.29296,-6.3984375 11.82421,-6.2812505 z m 32.69239,-18.5156252 -0.22266,4.207031 h -0.11719 c -1.20703,-2.296875 -3.86718,-4.839843 -8.70703,-4.839843 -6.39844,0 -12.57422,5.367187 -12.57422,14.824218 0,7.7226567 4.95703,13.60546925 11.88282,13.60546925 4.32421,0 7.32421,-2.07421875 8.88281,-4.66406255 h 0.10547 v 3.1054688 c 0,7.0429687 -3.79688,9.75 -8.98828,9.75 -3.46875,0 -6.35157,-1.0429688 -8.19141,-2.1914063 l -1.26563,3.8671875 c 2.25,1.5000003 5.94141,2.2968753 9.28125,2.2968753 3.51563,0 7.44141,-0.796875 10.14844,-3.339844 2.70703,-2.4257813 3.98438,-6.3398438 3.98438,-12.7382813 V -20.237138 c 0,-3.410156 0.10547,-5.660156 0.22265,-7.675781 z m -0.8086,16.03125 c 0,0.867188 -0.10547,1.851563 -0.39843,2.7187502 -1.08985,3.2226563 -3.92579,5.1796875 -7.03125,5.1796875 -5.48438,0 -8.25,-4.546875 -8.25,-10.0312497 0,-6.457032 3.45703,-10.546875 8.30859,-10.546875 3.69141,0 6.16406,2.414062 7.08984,5.355468 0.23438,0.691407 0.28125,1.441407 0.28125,2.308594 z m 33.5127,11.88281275 C 323.14158,-1.8972938 323.02439,-4.2644813 323.02439,-6.6902625 V -17.131669 c 0,-5.589844 -2.07422,-11.414062 -10.60547,-11.414062 -3.51562,0 -6.86719,0.984375 -9.17578,2.484375 l 1.16016,3.339843 c 1.95703,-1.265625 4.66406,-2.074218 7.26562,-2.074218 5.70703,0 6.33984,4.148437 6.33984,6.457031 v 0.574219 c -10.78125,-0.05859 -16.78125,3.632812 -16.78125,10.3828122 0,4.0429688 2.88282,8.01562505 8.54297,8.01562505 3.97266,0 6.97266,-1.95703125 8.53125,-4.14843755 h 0.17578 l 0.39844,3.51562505 z m -5.36719,-9.39843755 c 0,0.515625 -0.11719,1.0898438 -0.29297,1.6171875 -0.79687,2.3554688 -3.10547,4.6640625 -6.73828,4.6640625 -2.60156,0 -4.79297,-1.5585937 -4.79297,-4.8398437 0,-5.4257815 6.29297,-6.3984375 11.82422,-6.2812505 z m 9.91992,9.39843755 h 22.66407 V -4.0301063 h -16.32422 v -0.1171875 c 1.26562,-1.4414062 2.42578,-2.8242187 3.57422,-4.3828125 l 12.45703,-16.2070317 0.0586,-3.175781 h -21.28125 v 4.101563 h 15.10547 v 0.105468 c -1.26563,1.5 -2.41406,2.835938 -3.63281,4.335938 l -12.6211,16.4296875 z m 32.91797,0 V -27.912919 h -5.07422 V 0.00114375 Z M 358.43259,-38.928544 c -1.85156,0 -3.17578,1.382813 -3.17578,3.175781 0,1.734375 1.26563,3.117188 3.05859,3.117188 2.01563,0 3.28125,-1.382813 3.22266,-3.117188 0,-1.792968 -1.20703,-3.175781 -3.10547,-3.175781 z m 10.95117,38.92968775 h 5.07422 V -16.780106 c 0,-0.867188 0.11719,-1.734375 0.35157,-2.367188 0.86718,-2.824219 3.45703,-5.191406 6.79687,-5.191406 4.79297,0 6.46875,3.75 6.46875,8.25 V 0.00114375 h 5.07422 V -16.662919 c 0,-9.574219 -6,-11.882812 -9.86719,-11.882812 -4.60547,0 -7.83984,2.601562 -9.22265,5.25 h -0.11719 l -0.29297,-4.617188 h -4.48828 c 0.16406,2.308594 0.22265,4.675781 0.22265,7.558594 z M 423.82908,-13.030106 c 0.0469,-0.515625 0.16406,-1.324219 0.16406,-2.367188 0,-5.132812 -2.41406,-13.148437 -11.53125,-13.148437 -8.13281,0 -13.08984,6.632812 -13.08984,15.046875 0,8.425781 5.13281,14.0742185 13.72265,14.0742185 4.44141,0 7.5,-0.92578125 9.28125,-1.7226563 l -0.85547,-3.6328125 c -1.91015,0.796875 -4.10156,1.4414063 -7.73437,1.4414063 -5.07422,0 -9.45703,-2.8359375 -9.57422,-9.691406 z m -19.5586,-3.632813 c 0.41016,-3.515625 2.66016,-8.25 7.79297,-8.25 5.70703,0 7.08985,5.015625 7.03125,8.25 z m 24.04688,15.339844 c 1.95703,1.1484375 4.78125,1.8984375 7.83984,1.8984375 6.63281,0 10.44141,-3.4570313 10.44141,-8.3554688 0,-4.1601567 -2.48438,-6.5742187 -7.32422,-8.4257817 -3.63281,-1.382812 -5.30859,-2.414062 -5.30859,-4.722656 0,-2.074219 1.67578,-3.808594 4.67578,-3.808594 2.58984,0 4.60547,0.925782 5.70703,1.617188 l 1.26562,-3.691406 c -1.55859,-0.925782 -4.03125,-1.734375 -6.85547,-1.734375 -6,0 -9.63281,3.691406 -9.63281,8.191406 0,3.339844 2.36719,6.117187 7.38281,7.898437 3.75,1.382813 5.19141,2.7070317 5.19141,5.132813 0,2.3085937 -1.73437,4.1484375 -5.42578,4.1484375 -2.54297,0 -5.19141,-1.03125 -6.69141,-2.015625 z m 0,0" style="fill:#fff100;fill-opacity:1;fill-rule:nonzero;stroke:none" aria-label="Making Magazines" transform="matrix(1.3333333,0,0,1.3333333,81.312533,224.2016)" />
      <path id="path187" d="M 0,0 H 4.901 L 2.479,38.865 h -6.4 L -10.84,20.066 c -1.73,-4.901 -3.114,-9.168 -4.095,-13.089 h -0.172 c -0.981,4.037 -2.307,8.304 -3.921,13.089 l -6.632,18.799 h -6.4 L -34.771,0 h 4.787 l 1.038,16.665 c 0.345,5.823 0.634,12.339 0.749,17.183 h 0.115 c 1.096,-4.613 2.653,-9.63 4.498,-15.108 l 6.286,-18.51 h 3.805 l 6.862,18.856 c 1.961,5.363 3.575,10.206 4.902,14.762 h 0.172 c -0.057,-4.844 0.288,-11.36 0.577,-16.78 z" style="fill:none;stroke:#fff100;stroke-width:3;stroke-linecap:butt;stroke-linejoin:miter;stroke-miterlimit:10;stroke-dasharray:none;stroke-opacity:1" transform="matrix(1.3333333,0,0,-1.3333333,132.13213,224.2016)" />
      <path id="path188" d="m 0,0 c -0.346,1.903 -0.461,4.267 -0.461,6.689 v 10.437 c 0,5.593 -2.076,11.417 -10.61,11.417 -3.517,0 -6.862,-0.981 -9.168,-2.48 l 1.153,-3.344 c 1.961,1.269 4.67,2.076 7.265,2.076 5.709,0 6.343,-4.152 6.343,-6.458 V 17.76 c -10.783,0.058 -16.78,-3.633 -16.78,-10.379 0,-4.037 2.883,-8.015 8.534,-8.015 3.979,0 6.977,1.96 8.535,4.152 h 0.172 L -4.613,0 Z m -5.363,9.399 c 0,-0.519 -0.115,-1.096 -0.288,-1.614 -0.807,-2.365 -3.114,-4.671 -6.746,-4.671 -2.595,0 -4.787,1.557 -4.787,4.844 0,5.42 6.286,6.4 11.821,6.285 z" style="fill:none;stroke:#fff100;stroke-width:3;stroke-linecap:butt;stroke-linejoin:miter;stroke-miterlimit:10;stroke-dasharray:none;stroke-opacity:1" transform="matrix(1.3333333,0,0,-1.3333333,175.9544,224.2016)" />
      <path id="path189" d="M 0,0 H -5.017 V -40.94 H 0 v 10.494 l 2.595,2.884 9.63,-13.378 h 6.169 l -12.282,16.433 10.783,11.475 h -6.112 l -8.188,-9.63 c -0.807,-0.98 -1.788,-2.191 -2.48,-3.171 H 0 Z" style="fill:none;stroke:#fff100;stroke-width:3;stroke-linecap:butt;stroke-linejoin:miter;stroke-miterlimit:10;stroke-dasharray:none;stroke-opacity:1" transform="matrix(1.3333333,0,0,-1.3333333,192.94533,169.6144)" />
      <path id="path190" d="M 0,0 V 27.909 H -5.074 V 0 Z m -2.537,38.922 c -1.845,0 -3.171,-1.384 -3.171,-3.171 0,-1.73 1.268,-3.114 3.056,-3.114 2.018,0 3.286,1.384 3.229,3.114 0,1.787 -1.211,3.171 -3.114,3.171 z" style="fill:none;stroke:#fff100;stroke-width:3;stroke-linecap:butt;stroke-linejoin:miter;stroke-miterlimit:10;stroke-dasharray:none;stroke-opacity:1" transform="matrix(1.3333333,0,0,-1.3333333,230.38667,224.2016)" />
      <path id="path191" d="m 0,0 h 5.074 v 16.78 c 0,0.865 0.115,1.73 0.346,2.364 0.865,2.825 3.46,5.189 6.804,5.189 4.786,0 6.459,-3.748 6.459,-8.245 V 0 h 5.074 v 16.665 c 0,9.571 -5.997,11.878 -9.861,11.878 -4.612,0 -7.841,-2.595 -9.226,-5.247 H 4.555 L 4.267,27.909 H -0.231 C -0.058,25.602 0,23.238 0,20.355 Z" style="fill:none;stroke:#fff100;stroke-width:3;stroke-linecap:butt;stroke-linejoin:miter;stroke-miterlimit:10;stroke-dasharray:none;stroke-opacity:1" transform="matrix(1.3333333,0,0,-1.3333333,241.61133,224.2016)" />
      <path id="path192" d="m 0,0 -0.23,-4.209 h -0.116 c -1.211,2.306 -3.863,4.843 -8.707,4.843 -6.401,0 -12.57,-5.363 -12.57,-14.819 0,-7.727 4.959,-13.608 11.878,-13.608 4.325,0 7.323,2.076 8.88,4.67 h 0.115 v -3.113 c 0,-7.035 -3.805,-9.745 -8.995,-9.745 -3.46,0 -6.343,1.038 -8.188,2.191 l -1.269,-3.864 c 2.249,-1.499 5.94,-2.306 9.284,-2.306 3.518,0 7.439,0.807 10.149,3.344 2.71,2.422 3.978,6.343 3.978,12.744 v 16.203 c 0,3.402 0.116,5.651 0.231,7.669 z m -0.807,-16.03 c 0,-0.865 -0.115,-1.845 -0.404,-2.71 -1.095,-3.229 -3.921,-5.19 -7.035,-5.19 -5.478,0 -8.245,4.555 -8.245,10.034 0,6.458 3.459,10.552 8.303,10.552 3.69,0 6.17,-2.422 7.093,-5.363 0.23,-0.692 0.288,-1.441 0.288,-2.307 z" style="fill:none;stroke:#fff100;stroke-width:3;stroke-linecap:butt;stroke-linejoin:miter;stroke-miterlimit:10;stroke-dasharray:none;stroke-opacity:1" transform="matrix(1.3333333,0,0,-1.3333333,310.4212,186.99)" />
      <path id="path193" d="M 0,0 H 4.901 L 2.479,38.865 h -6.4 L -10.84,20.066 c -1.73,-4.901 -3.114,-9.168 -4.095,-13.089 h -0.172 c -0.981,4.037 -2.307,8.304 -3.921,13.089 l -6.632,18.799 h -6.4 L -34.771,0 h 4.787 l 1.038,16.665 c 0.345,5.823 0.634,12.339 0.749,17.183 h 0.115 c 1.096,-4.613 2.653,-9.63 4.498,-15.108 l 6.286,-18.51 h 3.805 l 6.862,18.856 c 1.961,5.363 3.575,10.206 4.902,14.762 h 0.172 c -0.057,-4.844 0.288,-11.36 0.577,-16.78 z" style="fill:none;stroke:#fff100;stroke-width:3;stroke-linecap:butt;stroke-linejoin:miter;stroke-miterlimit:10;stroke-dasharray:none;stroke-opacity:1" transform="matrix(1.3333333,0,0,-1.3333333,388.76373,224.2016)" />
      <path id="path194" d="m 0,0 c -0.346,1.903 -0.461,4.267 -0.461,6.689 v 10.437 c 0,5.593 -2.076,11.417 -10.61,11.417 -3.517,0 -6.862,-0.981 -9.168,-2.48 l 1.153,-3.344 c 1.961,1.269 4.67,2.076 7.265,2.076 5.709,0 6.343,-4.152 6.343,-6.458 V 17.76 c -10.783,0.058 -16.78,-3.633 -16.78,-10.379 0,-4.037 2.883,-8.015 8.534,-8.015 3.979,0 6.977,1.96 8.535,4.152 h 0.172 L -4.613,0 Z m -5.363,9.399 c 0,-0.519 -0.115,-1.096 -0.288,-1.614 -0.807,-2.365 -3.114,-4.671 -6.746,-4.671 -2.595,0 -4.787,1.557 -4.787,4.844 0,5.42 6.286,6.4 11.821,6.285 z" style="fill:none;stroke:#fff100;stroke-width:3;stroke-linecap:butt;stroke-linejoin:miter;stroke-miterlimit:10;stroke-dasharray:none;stroke-opacity:1" transform="matrix(1.3333333,0,0,-1.3333333,432.58653,224.2016)" />
      <path id="path195" d="m 0,0 -0.23,-4.209 h -0.116 c -1.211,2.306 -3.863,4.843 -8.707,4.843 -6.401,0 -12.57,-5.363 -12.57,-14.819 0,-7.727 4.959,-13.608 11.878,-13.608 4.325,0 7.323,2.076 8.88,4.67 h 0.115 v -3.113 c 0,-7.035 -3.805,-9.745 -8.995,-9.745 -3.46,0 -6.343,1.038 -8.188,2.191 l -1.269,-3.864 c 2.249,-1.499 5.94,-2.306 9.284,-2.306 3.518,0 7.439,0.807 10.149,3.344 2.71,2.422 3.978,6.343 3.978,12.744 v 16.203 c 0,3.402 0.116,5.651 0.231,7.669 z m -0.807,-16.03 c 0,-0.865 -0.115,-1.845 -0.404,-2.71 -1.095,-3.229 -3.921,-5.19 -7.035,-5.19 -5.478,0 -8.245,4.555 -8.245,10.034 0,6.458 3.459,10.552 8.303,10.552 3.69,0 6.17,-2.422 7.093,-5.363 0.23,-0.692 0.288,-1.441 0.288,-2.307 z" style="fill:none;stroke:#fff100;stroke-width:3;stroke-linecap:butt;stroke-linejoin:miter;stroke-miterlimit:10;stroke-dasharray:none;stroke-opacity:1" transform="matrix(1.3333333,0,0,-1.3333333,469.02867,186.99)" />
      <path id="path196" d="m 0,0 c -0.346,1.903 -0.461,4.267 -0.461,6.689 v 10.437 c 0,5.593 -2.076,11.417 -10.61,11.417 -3.517,0 -6.862,-0.981 -9.168,-2.48 l 1.153,-3.344 c 1.961,1.269 4.67,2.076 7.265,2.076 5.709,0 6.343,-4.152 6.343,-6.458 V 17.76 c -10.783,0.058 -16.78,-3.633 -16.78,-10.379 0,-4.037 2.883,-8.015 8.534,-8.015 3.979,0 6.977,1.96 8.535,4.152 h 0.172 L -4.613,0 Z m -5.363,9.399 c 0,-0.519 -0.115,-1.096 -0.288,-1.614 -0.807,-2.365 -3.114,-4.671 -6.746,-4.671 -2.595,0 -4.787,1.557 -4.787,4.844 0,5.42 6.286,6.4 11.821,6.285 z" style="fill:none;stroke:#fff100;stroke-width:3;stroke-linecap:butt;stroke-linejoin:miter;stroke-miterlimit:10;stroke-dasharray:none;stroke-opacity:1" transform="matrix(1.3333333,0,0,-1.3333333,512.6204,224.2016)" />
      <path id="path197" d="M 0,0 H 22.661 V 4.037 H 6.343 v 0.115 c 1.268,1.441 2.422,2.825 3.575,4.382 l 12.455,16.203 0.058,3.172 H 1.153 V 23.814 H 16.261 V 23.699 C 14.992,22.2 13.839,20.874 12.628,19.375 L 0,2.941 Z" style="fill:none;stroke:#fff100;stroke-width:3;stroke-linecap:butt;stroke-linejoin:miter;stroke-miterlimit:10;stroke-dasharray:none;stroke-opacity:1" transform="matrix(1.3333333,0,0,-1.3333333,518.69467,224.2016)" />
      <path id="path198" d="M 0,0 V 27.909 H -5.074 V 0 Z m -2.537,38.922 c -1.845,0 -3.171,-1.384 -3.171,-3.171 0,-1.73 1.268,-3.114 3.056,-3.114 2.018,0 3.286,1.384 3.229,3.114 0,1.787 -1.211,3.171 -3.114,3.171 z" style="fill:none;stroke:#fff100;stroke-width:3;stroke-linecap:butt;stroke-linejoin:miter;stroke-miterlimit:10;stroke-dasharray:none;stroke-opacity:1" transform="matrix(1.3333333,0,0,-1.3333333,562.5944,224.2016)" />
      <path id="path199" d="m 0,0 h 5.074 v 16.78 c 0,0.865 0.115,1.73 0.346,2.364 0.865,2.825 3.46,5.189 6.804,5.189 4.786,0 6.459,-3.748 6.459,-8.245 V 0 h 5.074 v 16.665 c 0,9.571 -5.997,11.878 -9.861,11.878 -4.612,0 -7.841,-2.595 -9.226,-5.247 H 4.555 L 4.267,27.909 H -0.231 C -0.058,25.602 0,23.238 0,20.355 Z" style="fill:none;stroke:#fff100;stroke-width:3;stroke-linecap:butt;stroke-linejoin:miter;stroke-miterlimit:10;stroke-dasharray:none;stroke-opacity:1" transform="matrix(1.3333333,0,0,-1.3333333,573.8184,224.2016)" />
      <path id="path200" d="m 0,0 c 0.058,0.519 0.173,1.326 0.173,2.364 0,5.132 -2.422,13.147 -11.532,13.147 -8.131,0 -13.09,-6.631 -13.09,-15.05 0,-8.419 5.132,-14.069 13.724,-14.069 4.44,0 7.496,0.922 9.284,1.73 l -0.866,3.632 c -1.902,-0.807 -4.093,-1.442 -7.726,-1.442 -5.074,0 -9.457,2.826 -9.572,9.688 z m -19.548,3.633 c 0.404,3.517 2.653,8.245 7.785,8.245 5.708,0 7.092,-5.016 7.034,-8.245 z" style="fill:none;stroke:#fff100;stroke-width:3;stroke-linecap:butt;stroke-linejoin:miter;stroke-miterlimit:10;stroke-dasharray:none;stroke-opacity:1" transform="matrix(1.3333333,0,0,-1.3333333,646.39587,206.826)" />
      <path id="path201" d="m 0,0 c 1.96,-1.153 4.786,-1.903 7.842,-1.903 6.631,0 10.437,3.46 10.437,8.361 0,4.152 -2.48,6.574 -7.323,8.419 -3.633,1.384 -5.305,2.422 -5.305,4.728 0,2.076 1.672,3.806 4.67,3.806 2.595,0 4.614,-0.923 5.709,-1.615 l 1.268,3.691 c -1.556,0.923 -4.036,1.73 -6.861,1.73 -5.997,0 -9.63,-3.691 -9.63,-8.188 0,-3.345 2.364,-6.112 7.381,-7.9 3.748,-1.384 5.189,-2.71 5.189,-5.132 0,-2.307 -1.73,-4.152 -5.42,-4.152 -2.537,0 -5.189,1.038 -6.688,2.018 z" style="fill:none;stroke:#fff100;stroke-width:3;stroke-linecap:butt;stroke-linejoin:miter;stroke-miterlimit:10;stroke-dasharray:none;stroke-opacity:1" transform="matrix(1.3333333,0,0,-1.3333333,652.39253,222.43347)" />
      <path id="path202" d="m 2.4257563,-1.8982578 c 1.8398437,1.20703124 5.53125,2.53124999 9.7382817,2.53124999 9,0 13.675781,-5.24999999 13.675781,-11.23828119 0,-5.25 -3.75,-8.71875 -8.367188,-9.632813 v -0.117187 c 4.617188,-1.675781 6.925782,-4.957031 6.925782,-8.824219 0,-4.558594 -3.351563,-8.941406 -10.734375,-8.941406 -4.0312505,0 -7.8398442,1.441406 -9.7968755,2.882812 l 1.3242188,3.691407 c 1.6171875,-1.148438 4.5,-2.472657 7.4999997,-2.472657 4.664063,0 6.574219,2.648438 6.574219,5.648438 0,4.441406 -4.675781,6.339844 -8.367187,6.339844 H 8.0741938 v 3.808593 h 2.8242192 c 4.898437,0 9.632812,2.25 9.691406,7.5 0.05859,3.1054692 -1.96875,7.2656254 -8.484375,7.2656254 -3.5156252,0 -6.855469,-1.4414062 -8.2968752,-2.3671875 z M 43.186498,1.796875e-4 h 4.910157 V -37.488102 h -4.324219 l -8.191406,4.382813 0.972656,3.867187 6.527344,-3.515625 h 0.105468 z M 62.970678,2.3087734 79.119116,-39.503727 H 75.193334 L 59.103491,2.3087734 Z m 18.395508,-4.2070312 c 1.839844,1.20703124 5.53125,2.53124999 9.738281,2.53124999 9.000003,0 13.675783,-5.24999999 13.675783,-11.23828119 0,-5.25 -3.75,-8.71875 -8.367189,-9.632813 v -0.117187 c 4.617189,-1.675781 6.925779,-4.957031 6.925779,-8.824219 0,-4.558594 -3.35156,-8.941406 -10.734373,-8.941406 -4.03125,0 -7.839844,1.441406 -9.796875,2.882812 l 1.324219,3.691407 c 1.617187,-1.148438 4.5,-2.472657 7.5,-2.472657 4.664062,0 6.574219,2.648438 6.574219,5.648438 0,4.441406 -4.675782,6.339844 -8.367188,6.339844 h -2.824219 v 3.808593 h 2.824219 c 4.898438,0 9.632813,2.25 9.691406,7.5 0.05859,3.1054692 -1.96875,7.2656254 -8.484375,7.2656254 -3.515625,0 -6.855468,-1.4414062 -8.296875,-2.3671875 z m 30.963864,4.2070312 16.14844,-41.8125004 h -3.92578 L 108.46287,2.3087734 Z M 154.83103,1.796875e-4 V -4.2068516 h -16.83984 v -0.1171875 l 3,-2.765625 c 7.89843,-7.6171879 12.91406,-13.2070309 12.91406,-20.1328129 0,-5.355468 -3.39844,-10.898437 -11.47266,-10.898437 -4.32422,0 -8.01562,1.617187 -10.61719,3.808594 l 1.61719,3.574218 c 1.73438,-1.441406 4.5586,-3.175781 7.95703,-3.175781 5.58985,0 7.44141,3.527344 7.44141,7.324219 -0.0586,5.660156 -4.38281,10.5 -13.95703,19.6171874 l -3.98438,3.8554688 V 1.796875e-4 Z M 172.9863,-38.120914 c -7.60547,0 -13.03125,6.925781 -13.03125,19.5 0.11719,12.3984374 5.07422,19.25390619 12.39844,19.25390619 8.30859,0 13.03125,-7.03124999 13.03125,-19.78125019 0,-11.929687 -4.5,-18.972656 -12.39844,-18.972656 z m -0.28125,3.925781 c 5.25,0 7.60547,6.058594 7.60547,15.28125 0,9.5742189 -2.47265,15.6328127 -7.66406,15.6328127 -4.61719,0 -7.61719,-5.5429688 -7.61719,-15.2929687 0,-10.207031 3.23438,-15.621094 7.67578,-15.621094 z M 201.06736,1.796875e-4 h 4.91015 V -37.488102 h -4.32421 l -8.19141,4.382813 0.97266,3.867187 6.52734,-3.515625 h 0.10547 z M 242.0156,-37.488102 h -17.94141 l -2.41406,18 c 1.38281,-0.175781 3.04688,-0.410156 5.19141,-0.410156 7.48828,0 10.72265,3.46875 10.78125,8.308594 0,5.0156249 -4.10157,8.1328124 -8.88282,8.1328124 -3.39843,0 -6.45703,-1.1601562 -8.01562,-2.0742187 l -1.26563,3.8554687 c 1.78125,1.16015629 5.23829,2.30859379 9.33985,2.30859379 8.13281,0 13.95703,-5.47265629 13.95703,-12.79687519 0,-4.734375 -2.42578,-7.957031 -5.36719,-9.632812 -2.30859,-1.382813 -5.1914,-2.015625 -8.07422,-2.015625 -1.38281,0 -2.1914,0.105468 -3.05859,0.222656 l 1.44141,-9.621094 h 14.30859 z m 0,0" style="fill:#fff100;fill-opacity:1;fill-rule:nonzero;stroke:none" aria-label="31/3/2015" transform="matrix(1.3333333,0,0,1.3333333,81.312533,295.12867)" />
      <path id="path203" d="m 0,0 c 1.845,-1.211 5.536,-2.537 9.745,-2.537 8.995,0 13.666,5.247 13.666,11.244 0,5.248 -3.748,8.707 -8.361,9.63 v 0.115 c 4.613,1.672 6.919,4.959 6.919,8.822 0,4.556 -3.344,8.938 -10.725,8.938 -4.036,0 -7.842,-1.441 -9.803,-2.883 l 1.327,-3.69 c 1.614,1.153 4.498,2.479 7.496,2.479 4.671,0 6.573,-2.652 6.573,-5.651 0,-4.44 -4.67,-6.343 -8.36,-6.343 H 5.651 v -3.806 h 2.826 c 4.9,0 9.629,-2.248 9.687,-7.496 C 18.221,5.708 16.203,1.557 9.688,1.557 6.17,1.557 2.825,2.999 1.384,3.921 Z" style="fill:none;stroke:#fff100;stroke-width:3;stroke-linecap:butt;stroke-linejoin:miter;stroke-miterlimit:10;stroke-dasharray:none;stroke-opacity:1" transform="matrix(1.3333333,0,0,-1.3333333,84.541733,292.5916)" />
      <path id="path204" d="M 0,0 H 4.901 V 37.48 H 0.577 l -8.188,-4.382 0.98,-3.863 6.516,3.517 H 0 Z" style="fill:none;stroke:#fff100;stroke-width:3;stroke-linecap:butt;stroke-linejoin:miter;stroke-miterlimit:10;stroke-dasharray:none;stroke-opacity:1" transform="matrix(1.3333333,0,0,-1.3333333,138.8972,295.12867)" />
      <path id="path205" d="M 0,0 16.146,41.806 H 12.225 L -3.863,0 Z" style="fill:none;stroke:#fff100;stroke-width:3;stroke-linecap:butt;stroke-linejoin:miter;stroke-miterlimit:10;stroke-dasharray:none;stroke-opacity:1" transform="matrix(1.3333333,0,0,-1.3333333,165.26693,298.20427)" />
      <path id="path206" d="m 0,0 c 1.845,-1.211 5.536,-2.537 9.745,-2.537 8.995,0 13.666,5.247 13.666,11.244 0,5.248 -3.748,8.707 -8.361,9.63 v 0.115 c 4.613,1.672 6.919,4.959 6.919,8.822 0,4.556 -3.344,8.938 -10.725,8.938 -4.036,0 -7.842,-1.441 -9.803,-2.883 l 1.327,-3.69 c 1.614,1.153 4.498,2.479 7.496,2.479 4.671,0 6.573,-2.652 6.573,-5.651 0,-4.44 -4.67,-6.343 -8.36,-6.343 H 5.651 v -3.806 h 2.826 c 4.9,0 9.629,-2.248 9.687,-7.496 C 18.221,5.708 16.203,1.557 9.688,1.557 6.17,1.557 2.825,2.999 1.384,3.921 Z" style="fill:none;stroke:#fff100;stroke-width:3;stroke-linecap:butt;stroke-linejoin:miter;stroke-miterlimit:10;stroke-dasharray:none;stroke-opacity:1" transform="matrix(1.3333333,0,0,-1.3333333,189.7916,292.5916)" />
      <path id="path207" d="M 0,0 16.146,41.806 H 12.225 L -3.863,0 Z" style="fill:none;stroke:#fff100;stroke-width:3;stroke-linecap:butt;stroke-linejoin:miter;stroke-miterlimit:10;stroke-dasharray:none;stroke-opacity:1" transform="matrix(1.3333333,0,0,-1.3333333,231.0768,298.20427)" />
      <path id="path208" d="m 0,0 v 4.209 h -16.837 v 0.116 l 2.998,2.767 c 7.9,7.612 12.916,13.205 12.916,20.125 0,5.362 -3.402,10.898 -11.474,10.898 -4.325,0 -8.016,-1.615 -10.61,-3.806 l 1.614,-3.575 c 1.73,1.442 4.556,3.172 7.957,3.172 5.594,0 7.439,-3.518 7.439,-7.323 C -6.055,20.932 -10.379,16.088 -19.951,6.977 L -23.93,3.114 V 0 Z" style="fill:none;stroke:#fff100;stroke-width:3;stroke-linecap:butt;stroke-linejoin:miter;stroke-miterlimit:10;stroke-dasharray:none;stroke-opacity:1" transform="matrix(1.3333333,0,0,-1.3333333,287.73893,295.12867)" />
      <path id="path209" d="m 0,0 c -7.611,0 -13.032,-6.919 -13.032,-19.49 0.116,-12.397 5.075,-19.259 12.398,-19.259 8.303,0 13.031,7.035 13.031,19.778 C 12.397,-7.035 7.9,0 0,0 Z m -0.288,-3.921 c 5.247,0 7.611,-6.055 7.611,-15.281 0,-9.571 -2.479,-15.626 -7.669,-15.626 -4.613,0 -7.611,5.536 -7.611,15.281 0,10.206 3.229,15.626 7.669,15.626 z" style="fill:none;stroke:#fff100;stroke-width:3;stroke-linecap:butt;stroke-linejoin:miter;stroke-miterlimit:10;stroke-dasharray:none;stroke-opacity:1" transform="matrix(1.3333333,0,0,-1.3333333,311.95573,244.30907)" />
      <path id="path210" d="M 0,0 H 4.901 V 37.48 H 0.577 l -8.188,-4.382 0.98,-3.863 6.516,3.517 H 0 Z" style="fill:none;stroke:#fff100;stroke-width:3;stroke-linecap:butt;stroke-linejoin:miter;stroke-miterlimit:10;stroke-dasharray:none;stroke-opacity:1" transform="matrix(1.3333333,0,0,-1.3333333,349.3972,295.12867)" />
      <path id="path211" d="m 0,0 h -17.933 l -2.422,-17.991 c 1.384,0.174 3.056,0.404 5.19,0.404 7.496,0 10.725,-3.46 10.783,-8.303 0,-5.017 -4.094,-8.131 -8.88,-8.131 -3.403,0 -6.459,1.153 -8.015,2.076 l -1.269,-3.863 c 1.788,-1.153 5.247,-2.307 9.341,-2.307 8.131,0 13.955,5.478 13.955,12.802 0,4.728 -2.422,7.957 -5.363,9.629 -2.306,1.384 -5.19,2.018 -8.073,2.018 -1.383,0 -2.191,-0.115 -3.056,-0.23 l 1.442,9.629 H 0 Z" style="fill:none;stroke:#fff100;stroke-width:3;stroke-linecap:butt;stroke-linejoin:miter;stroke-miterlimit:10;stroke-dasharray:none;stroke-opacity:1" transform="matrix(1.3333333,0,0,-1.3333333,403.98307,245.1548)" />
    </g></svg>