<?xml version='1.0' encoding='utf-8'?>
<svg xmlns="http://www.w3.org/2000/svg" version="1.1" width="203.251" height="115.937" viewBox="1156.620 1627.750 203.251 115.937"><g id="object"><path id="path13" d="m 0,0 c -20.105,0 -40.21,0.089 -60.314,-0.04 -9.398,-0.06 -13.4,3.84 -13.259,13.672 0.258,17.999 -0.321,36.022 -1.025,54.016 -0.315,8.046 3.584,10.203 10.659,10.187 38.122,-0.085 76.246,-0.164 114.367,0.076 9.43,0.06 11.985,-3.629 13.712,-13.084 C 66.997,49.183 63.995,33.424 67.722,17.866 71.039,4.022 67.088,0.299 52.748,0.242 35.168,0.173 17.586,0.226 0.005,0.226 0.004,0.15 0.002,0.075 0,0" style="fill:#0c2f31;fill-opacity:1;fill-rule:nonzero;stroke:none" transform="matrix(1.3333333,0,0,-1.3333333,1262.1052,1737.6343)" />
      </g></svg>