<?xml version='1.0' encoding='utf-8'?>
<svg xmlns="http://www.w3.org/2000/svg" version="1.1" width="381.407" height="332.234" viewBox="705.283 1711.810 381.407 332.234"><g id="object"><path id="path11" d="m 0,0 h 67.999 c 0,-36.501 -0.977,-72.966 0.705,-109.308 0.408,-8.791 9.599,-17.174 14.752,-25.745 4.899,8.902 13.665,17.65 14.028,26.734 1.566,39.179 0.67,78.457 0.67,120.072 h 73.04 v -240.109 c -86.883,0 -172.662,-0.426 -258.414,0.88 -6.28,0.096 -17.609,12.636 -17.736,19.553 -1.316,71.462 -0.809,142.958 -0.809,216.984 h 78.363 c 0,-39.412 -0.878,-78.366 0.651,-117.225 0.358,-9.088 8.874,-17.856 13.637,-26.771 4.371,9.149 12.105,18.151 12.513,27.473 C 0.91,-73.01 0,-38.453 0,0" style="fill:#231916;fill-opacity:1;fill-rule:nonzero;stroke:none" transform="matrix(1.3333333,0,0,-1.3333333,852.4308,1733.4796)" />
      </g></svg>