<?xml version='1.0' encoding='utf-8'?>
<svg xmlns="http://www.w3.org/2000/svg" version="1.1" width="31.345" height="101.530" viewBox="2502.080 4181.230 31.345 101.530"><g id="object"><path id="path178" d="m 0,0 c 0,-15.242 -0.107,-30.486 0.08,-45.726 0.044,-3.533 -0.778,-5.586 -4.56,-5.274 -3.48,0.286 -8.338,-1.362 -8.669,4.49 -0.426,7.52 -0.373,15.068 -0.494,22.605 -0.178,11.064 -0.212,22.133 -0.539,33.193 -0.153,5.206 1.885,7.08 7.131,6.802 4.472,-0.236 7.204,-0.747 6.35,-6.363 C -1.174,6.614 -0.073,3.262 0.319,0.017 0.213,0.011 0.106,0.006 0,0" style="fill:#494f57;fill-opacity:1;fill-rule:nonzero;stroke:none" transform="matrix(1.3333333,0,0,-1.3333333,2527.0008,4208.7155)" />
      </g></svg>