<?xml version='1.0' encoding='utf-8'?>
<svg xmlns="http://www.w3.org/2000/svg" version="1.1" width="589.401" height="1048.090" viewBox="1713.470 1336.010 589.401 1048.090"><defs id="defs1"><clipPath clipPathUnits="userSpaceOnUse" id="clipPath18">
      <path d="M 0,3370.3901 H 2383.9401 V -2.5000001e-5 H 0 Z" id="path18" />
    </clipPath>
  </defs><g id="object"><path id="path4" d="m 0,0 c 7.766,-18.537 17.804,-36.058 23.264,-55.65 4.181,-15.007 0.68,-23.214 -15.951,-23.181 -15.07,0.03 -30.166,-0.527 -45.203,0.179 -22.756,1.068 -30.707,-9.88 -30.536,-31.746 0.611,-77.733 -0.634,-155.489 0.837,-233.199 0.407,-21.486 -9.176,-32.095 -26.468,-38.334 -17.98,-6.486 -31.533,1.486 -43.605,15.243 -6.937,7.905 -5.243,16.244 -5.269,24.523 -0.235,74.564 -0.112,149.129 -0.101,223.693 0.001,7.138 0.253,14.293 -0.147,21.409 -0.453,8.043 -1.171,17.687 -12.123,16.585 -10.091,-1.016 -7.285,-10.914 -7.309,-17.362 -0.303,-79.314 -0.246,-158.63 -0.403,-237.946 -0.013,-7.084 0.676,-14.716 -1.62,-21.145 -6.639,-18.588 -21.55,-28.756 -40.425,-25.847 -19.55,3.013 -32.505,16.216 -32.591,37.784 -0.238,59.492 -0.455,118.987 -0.026,178.477 0.173,24.067 -4.464,48.086 -0.354,72.184 2.356,13.813 -4.701,18.338 -17.645,17.895 -17.426,-0.596 -34.883,-0.431 -52.326,-0.412 -24.741,0.027 -28.302,3.854 -21.434,28.202 8.728,30.941 19.388,61.332 28.619,92.138 18.254,60.914 36.471,121.845 53.862,183.008 4.586,16.13 14.053,31.552 10.852,51.584 -24.341,-16.836 -22.378,-43.717 -30.02,-65.7 -16.497,-47.455 -28.185,-96.442 -45.129,-143.853 -7.49,-20.956 -22.911,-16.279 -36.837,-15.562 -14.881,0.765 -20.409,11.728 -22.614,25.827 -3.265,20.884 6.695,38.935 12.076,57.426 18.562,63.781 40.248,126.638 56.175,191.225 6.261,25.387 56.626,64.731 87.093,65.223 41.935,0.677 84.012,-0.64 125.864,-3.504 40.022,-2.739 67.889,-26.488 81.012,-62.711 C 9.466,276.914 23.109,225.809 38.365,175.305 45.651,151.187 52.418,126.912 59.387,102.698 65.97,79.825 58.071,57.819 41.55,52.879 21.471,46.875 6.013,59.602 -1.633,85.585 c -17.981,61.107 -36.942,121.925 -55.395,182.894 -1.614,5.331 -1.894,11.509 -9.822,10.644 -9.541,-1.041 -8.871,-8.651 -7.381,-14.418 4.5,-17.428 9.971,-34.61 15.26,-51.827 C -39.831,150.571 -20.474,88.33 -1.619,25.937 0.38,19.319 -0.38,11.867 0.14,4.802 c 0,0 -0.074,-0.054 -0.074,-0.054 -15.489,27.921 -19.525,59.567 -28.775,89.501 -3.691,11.943 -8.438,18.25 -22.409,18.107 -67.857,-0.693 -135.727,-0.703 -203.586,-0.147 -13.237,0.108 -19.828,-3.656 -23.338,-16.957 -12.513,-47.413 -25.974,-94.579 -39.432,-141.737 -3.954,-13.856 -3.642,-20.984 14.848,-20.822 98.952,0.871 197.917,0.669 296.875,0.196 16.566,-0.079 23.462,3.084 16.894,21.269 -5.319,14.73 -7.61,30.553 -11.244,45.892 z" style="fill:#4a443a;fill-opacity:1;fill-rule:nonzero;stroke:none" transform="matrix(1.3333333,0,0,-1.3333333,2214.6,1865.8016)" />
      <path id="path16" d="m 0,0 c -0.054,-1.566 -0.108,-3.131 -0.165,-4.697 3.632,-15.339 5.923,-31.163 11.242,-45.893 6.568,-18.185 -0.328,-21.347 -16.894,-21.268 -98.958,0.472 -197.923,0.674 -296.876,-0.196 -18.489,-0.163 -18.801,6.966 -14.847,20.822 13.458,47.158 26.919,94.324 39.431,141.737 3.51,13.3 10.101,17.065 23.339,16.956 67.859,-0.555 135.729,-0.546 203.586,0.148 13.971,0.143 18.718,-6.164 22.408,-18.108 C -19.525,59.567 -15.489,27.921 0,0" style="fill:#ece8df;fill-opacity:1;fill-rule:nonzero;stroke:none" transform="matrix(1.3333333,0,0,-1.3333333,2214.6881,1859.4715)" />
      </g></svg>