<?xml version='1.0' encoding='utf-8'?>
<svg xmlns="http://www.w3.org/2000/svg" version="1.1" width="65.457" height="102.331" viewBox="839.821 4182.790 65.457 102.331"><g id="object"><path id="path102" d="m 0,0 c 0,7.312 0.241,14.634 -0.081,21.932 -0.232,5.258 2.283,6.522 6.874,6.343 4.641,-0.182 6.436,-1.418 5.861,-6.852 -0.773,-7.318 -0.372,-14.877 0.501,-22.217 0.831,-6.99 -2.002,-13.904 0.664,-20.986 1.456,-3.869 3.136,-6.239 7.158,-6.402 4.674,-0.191 4.99,3.374 5.399,6.771 1.345,11.166 1.101,22.326 0.352,33.531 -0.294,4.397 0.285,8.948 1.134,13.298 0.683,3.505 4.105,2.449 6.532,2.506 3.364,0.08 5.256,-1.573 5.257,-5.171 0,-6.379 0.134,-12.759 0.181,-19.139 0.06,-8.266 0.28,-16.537 0.089,-24.798 C 39.575,-36.199 32.356,-40.481 16.835,-39.261 4.529,-38.294 0.31,-32.313 0.561,-19.834 0.694,-13.226 0.585,-6.613 0.585,-0.002 0.39,-0.002 0.195,-0.001 0,0" style="fill:#494f57;fill-opacity:1;fill-rule:nonzero;stroke:none" transform="matrix(1.3333333,0,0,-1.3333333,845.94893,4226.5065)" />
      </g></svg>