<?xml version='1.0' encoding='utf-8'?>
<svg xmlns="http://www.w3.org/2000/svg" version="1.1" width="59.998" height="102.950" viewBox="1637.210 3955.060 59.998 102.950"><g id="object"><path id="path135" d="m 0,0 c 1.043,12.602 4.169,24.084 16.631,30.596 4.496,2.349 9.227,3.014 14.162,2.725 3.255,-0.191 5.373,-1.549 5.044,-5.311 -0.303,-3.462 -0.7,-6.256 -5.242,-6.986 C 16.508,18.758 9.379,3.981 15.198,-9.747 c 3.085,-7.279 7.6,-12.517 15.958,-12.965 4.98,-0.266 4.453,-3.539 4.552,-6.909 0.116,-3.91 -2.218,-4.627 -5.341,-5.026 C 16.991,-36.354 7.153,-25.691 3.142,-15.149 1.352,-10.445 -0.659,-5.435 0,0" style="fill:#494f57;fill-opacity:1;fill-rule:nonzero;stroke:none" transform="matrix(1.3333333,0,0,-1.3333333,1643.382,4005.5733)" />
      </g></svg>