<?xml version='1.0' encoding='utf-8'?>
<svg xmlns="http://www.w3.org/2000/svg" version="1.1" width="456.239" height="719.202" viewBox="824.038 3019.760 456.239 719.202"><g id="object"><path id="path7" d="m 0,0 c -0.055,-9.358 -0.109,-18.716 -0.164,-28.073 -5.728,-6.651 -12.367,-10.796 -21.585,-7.899 -5.989,2.908 -11.344,6.768 -16.267,11.241 -0.954,1.846 -1.202,3.814 -0.908,5.755 0.273,0.575 0.767,1.233 0.901,1.958 0.46,2.493 -0.164,2.475 -2.386,1.521 -16.6,-7.121 -34.894,-10.327 -49.022,-23.146 -4.871,-4.418 -12.017,-8.235 -17.137,1.082 -2.224,9.484 -0.155,19.225 -1.708,28.748 -0.973,2.993 -1.802,6.048 -3.518,8.748 -0.009,3.127 -0.019,6.255 -0.029,9.382 1.54,2.691 2.401,6.09 6.429,6.199 11.694,-9.413 29.468,3.459 39.844,-10.834 6.168,-5.188 12.195,-5.529 20.628,2.395 -9.636,-6.405 -16.387,-7.208 -22.554,-0.298 -4.594,6.095 -4.005,12.591 -1.604,19.24 1.815,3.581 4.732,7.461 8.335,7.4 16.158,-0.272 28.317,8.928 41.364,16.166 2.202,-0.178 4.186,-0.948 5.949,-2.283 C -5.196,32.606 -6.321,15.246 0,0" style="fill:#b42023;fill-opacity:1;fill-rule:nonzero;stroke:none" transform="matrix(1.3333333,0,0,-1.3333333,1273.2719,3251.7868)" />
      <path id="path8" d="m 0,0 c 13.101,-8.771 15.289,-23.111 18.772,-36.789 2.824,-12.067 6.759,-23.858 8.993,-36.07 -0.342,-4.991 -2.592,-9.193 -5.42,-13.14 -10.916,-26.828 -11.82,-55.577 -15.93,-83.697 -1.105,-7.558 -0.068,-15.564 -5.503,-22.019 -9.934,-4.248 -12.108,4.249 -14.476,9.937 -4.411,10.591 -9.605,20.927 -12.627,32.052 0.026,8.412 -7.398,14.206 -8.044,22.418 1.873,3.705 5.074,6.341 7.575,9.54 6.14,29.801 15.89,58.579 23.942,87.819 2.385,8.661 -5.124,16.382 -1.409,24.894 C -3.254,-2.958 -1.872,-1.278 0,0" style="fill:#bf2221;fill-opacity:1;fill-rule:nonzero;stroke:none" transform="matrix(1.3333333,0,0,-1.3333333,986.58533,3044.6805)" />
      <path id="path13" d="m 0,0 c 10.304,-11.936 13.806,-26.971 18.817,-41.317 -1.61,-5.874 0.479,-10.215 5.527,-13.327 1.791,-4.385 3.583,-8.77 5.374,-13.155 -12.926,-8.857 -7.413,-29.751 -23.734,-36.411 -4.423,-1.873 -8.789,-2.243 -12.974,0.621 -7.452,13.88 -4.539,24.993 8.914,33.288 -21.235,-9.27 -21.606,-10.452 -10.085,-32.175 3.118,-3.881 3.513,-8.125 1.778,-12.691 -2.734,-5.358 -6.654,-9.625 -11.742,-12.836 -5.67,-2.662 -11.453,-2.921 -17.343,-0.779 -4.496,2.066 -7.3,5.574 -8.66,10.267 -0.264,2.184 -0.05,4.352 0.667,6.445 7.551,7.956 10.655,17.438 9.439,28.378 -2.306,26.139 10.229,48.93 16.317,73.174 C -15.277,-0.852 -7.766,-0.358 0,0" style="fill:#bb2122;fill-opacity:1;fill-rule:nonzero;stroke:none" transform="matrix(1.3333333,0,0,-1.3333333,1047.7165,3184.5341)" />
      <path id="path19" d="m 0,0 c -6.1,6.548 -7.649,14.956 -9.502,23.24 -3.2,9.399 -7.331,18.846 1.395,27.617 C 9.337,53.335 9.553,34.3 19.806,29.186 21.174,36.879 2.865,37.902 11.61,49.69 32.453,53.191 53.29,57.164 73.974,48.87 76.943,46.082 78.105,42.613 77.837,38.607 68.835,14.988 50.214,1.65 27.397,-5.66 18.497,-8.512 7.25,-10.76 0,0" style="fill:#c12221;fill-opacity:1;fill-rule:nonzero;stroke:none" transform="matrix(1.3333333,0,0,-1.3333333,1117.0643,3719.9731)" />
      <path id="path24" d="m 0,0 c -1.399,-1.554 -2.797,-3.108 -4.194,-4.662 -0.204,47.195 -0.479,94.389 -0.533,141.584 -0.007,6.59 -1.882,16.8 7.612,16.679 35.027,-0.447 70.386,6.59 105.058,-3.664 -6.045,-12.468 -2.859,-25.01 -0.301,-37.547 l -0.137,-32.766 c -8.521,-3.761 -14.732,1.476 -21.289,5.43 -1.697,1.485 -2.874,3.318 -3.583,5.456 2.411,33.879 -6.945,45.255 -41.611,50.476 -11.466,0.788 -24.51,9.804 -32.541,-6.51 C 6.441,109.958 6.37,85.498 7.197,61.006 7.203,42.925 9.258,24.766 4.917,6.873 3.789,4.217 2.141,1.93 0,0" style="fill:#9d2024;fill-opacity:1;fill-rule:nonzero;stroke:none" transform="matrix(1.3333333,0,0,-1.3333333,1129.7653,3233.1481)" />
      <path id="path26" d="m 0,0 c 22.48,-7.543 45.799,1.647 64.331,25.979 3.243,4.258 5.391,9.245 10.7,11.472 4.061,1.663 5.751,-0.823 7.054,-4.004 0.878,-2.597 -0.824,-6.514 2.211,-7.7 1.975,-0.772 3.012,2.616 4.212,4.455 4.232,4.476 7.935,9.934 15.441,7.84 7.033,-6.544 5.052,-17.938 12.921,-24.044 3.369,-16.346 -0.954,-24.536 -19.967,-23.587 -26.41,1.318 -52.946,0.047 -79.428,0.078 C 10.11,-9.503 0.952,-12.091 0,0" style="fill:#a52024;fill-opacity:1;fill-rule:nonzero;stroke:none" transform="matrix(1.3333333,0,0,-1.3333333,1117.0643,3719.9731)" />
      <path id="path28" d="m 0,0 c -3.802,-2.34 -10.615,-4.326 -10.94,-7.076 -3.234,-27.402 -20.796,-51.851 -16.604,-80.674 -4.551,-9.956 -9.008,-20.416 -18.57,-3.453 -0.014,1.105 -0.02,2.214 -0.026,3.322 -3.649,36.495 10.608,71.169 11.119,107.293 0.056,3.909 4.901,0.792 7.552,0.388 C -15.56,18.694 -16.089,1.246 -3.248,1.364 -1.961,1.395 -0.878,0.941 0,0" style="fill:#d42620;fill-opacity:1;fill-rule:nonzero;stroke:none" transform="matrix(1.3333333,0,0,-1.3333333,1047.7164,3184.5341)" />
      <path id="path32" d="m 0,0 c -12.74,30.933 -25.481,61.867 -38.221,92.801 -2.34,5.055 -2.238,9.323 3.763,11.699 12.587,-2.357 25.427,-4.058 35.653,-12.933 C 9.608,78.274 17.685,65.988 9.158,48.243 4.53,38.61 10.505,25.841 10.496,14.384 10.455,12.082 10.119,9.846 9.584,7.615 7.775,3.329 6.356,-1.468 0,0" style="fill:#c52320;fill-opacity:1;fill-rule:nonzero;stroke:none" transform="matrix(1.3333333,0,0,-1.3333333,1054.994,3570.0061)" />
      <path id="path35" d="m 0,0 c -5.921,-8.668 -4.645,-18.651 -5.166,-28.306 -12.728,20.358 -18.43,43.744 -28.185,65.384 0.941,10.094 -0.921,20.211 0.316,30.312 0.907,7.404 -1.471,17.02 9.224,18.72 8.945,1.423 14.055,-5.321 17.954,-12.379 2.648,-4.796 3.04,-10.45 5.309,-15.428 C 1.728,50.645 3.322,42.815 5.145,35.027 5.78,23.012 9.467,10.526 0,0" style="fill:#841c20;fill-opacity:1;fill-rule:nonzero;stroke:none" transform="matrix(1.3333333,0,0,-1.3333333,1111.2848,3651.2439)" />
      <path id="path37" d="M 0,0 C -7.238,7.865 -2.978,28.123 -17.951,24.786 -28.912,22.343 -21.175,5.857 -22.81,-4.21 c -0.863,-5.309 -0.266,-10.806 -5.134,-14.588 -5.102,3.565 -4.37,9.042 -4.645,14.189 -0.654,6.359 5.605,12.512 0.568,19.002 -0.028,1.523 -0.062,3.047 -0.099,4.57 4.34,10.691 1.618,25.437 17.054,29.772 12.979,-6.89 17.299,15.078 30.034,9.082 6.663,-4.736 5.574,-18.009 17.993,-16.263 4.227,2.853 5.571,8.135 9.561,11.137 2.19,0.301 4.168,-0.176 5.933,-1.525 C 54.871,42.247 52.656,33.631 47.642,25.037 40.951,13.568 37.386,0.748 32.123,-11.354 c -1.269,-1.871 -2.954,-3.21 -5.072,-3.971 -2.24,0.052 -4.093,0.947 -5.547,2.648 -5.182,7.063 -1.622,18.583 -11.744,23 C 4.183,9.018 4.853,1.853 0,0" style="fill:#a12024;fill-opacity:1;fill-rule:nonzero;stroke:none" transform="matrix(1.3333333,0,0,-1.3333333,1104.0779,3576.7387)" />
      <path id="path39" d="m 0,0 c -5.406,-0.065 -10.815,-0.273 -16.218,-0.17 -27.247,0.523 -34.501,6.867 -34.878,34.051 -0.601,43.249 -0.092,86.513 -0.052,129.771 4.206,3.802 -1.754,14.199 7.942,13.773 7.032,-0.309 9.697,-6.764 10.954,-13.054 1.218,-6.09 1.124,-12.215 -0.772,-18.183 -1.277,-3.188 -3.19,-5.861 -6.472,-7.142 -0.643,0.146 -1.42,0.217 -2.162,0.416 -0.74,0.198 -1.446,0.524 -2.166,0.794 6.923,-25.403 1.961,-51.36 3.666,-77.013 -2.323,-16.147 0.685,-29.508 18.332,-35.281 C -12.596,23.588 -1.42,23.27 5.802,14.725 9.062,7.771 6.178,3.234 0,0" style="fill:#982023;fill-opacity:1;fill-rule:nonzero;stroke:none" transform="matrix(1.3333333,0,0,-1.3333333,898.9792,3731.9756)" />
      <path id="path48" d="m 0,0 c -4.159,-2.094 -4.361,-6.273 -5.304,-10.065 -3.332,6.67 -6.663,13.341 -9.993,20.012 -1.39,-0.157 -2.78,-0.314 -4.17,-0.471 0,-48.066 -0.045,-96.133 0.019,-144.199 0.032,-23.981 0.543,-47.965 0.229,-71.94 -0.09,-6.853 3.321,-16.629 -9.061,-17.63 -4.102,20.396 -0.617,41.019 -1.871,61.505 0.071,22.244 0.029,44.485 0.009,66.721 -0.014,5.468 0.002,10.942 0.024,16.407 0.054,9.318 0.056,18.642 0.004,27.952 0.057,13.762 0.054,27.536 0.072,41.271 6.257,14.559 -14.291,23.053 -8.581,37.54 3.528,3.569 8.036,3.15 12.458,3.137 12.33,0.519 24.842,2.245 35.999,-5.242 2.126,-2.752 2.622,-5.819 1.685,-9.138 C 5.696,12.031 2.566,6.221 0,0" style="fill:#a32024;fill-opacity:1;fill-rule:nonzero;stroke:none" transform="matrix(1.3333333,0,0,-1.3333333,1011.1067,3432.8501)" />
      <path id="path50" d="m 0,0 c 11.182,-3.186 17.252,7.252 21.94,12.292 13.236,14.226 34.761,5.209 47.099,19.642 1.634,1.911 8.273,0.322 8.948,-4.494 C 79.415,17.251 71.176,19.535 65.542,18.647 56.984,-6.041 34.717,-10.51 13.591,-16.654 7.98,-18.107 1.995,-17.818 -3.475,-20.139 c -1.93,-0.581 -3.65,-0.148 -5.18,1.125 -0.048,18.784 -0.096,37.569 -0.142,56.353 1.394,-1.58 2.787,-3.159 4.18,-4.738 C 1.372,22.364 -6.257,10.199 0,0" style="fill:#aa2125;fill-opacity:1;fill-rule:nonzero;stroke:none" transform="matrix(1.3333333,0,0,-1.3333333,1135.9416,3301.6575)" />
      <path id="path53" d="m 0,0 c 1.696,-4.62 3.392,-9.24 5.088,-13.86 0.052,-5.082 -9.311,-14.034 5.383,-13.097 2.809,-1.66 5.617,-3.322 8.426,-4.982 1.71,-1.552 2.714,-3.485 3.146,-5.738 -2.084,-13.033 10.844,-25.364 1.869,-38.745 -6.969,-3.936 -13.172,-2.124 -19.009,2.487 -6.473,8.576 -13.037,16.326 -25.865,14.261 -5.283,-0.851 -10.08,2.726 -13.335,7.417 -1.062,2.009 -1.689,4.141 -2.009,6.384 -0.16,3.475 0.604,6.718 2.374,9.713 8.412,7.714 16.641,15.416 20.66,26.743 C -11.275,-3.787 -8.029,1.979 0,0" style="fill:#b62123;fill-opacity:1;fill-rule:nonzero;stroke:none" transform="matrix(1.3333333,0,0,-1.3333333,1097.6628,3295.7971)" />
      <path id="path62" d="m 0,0 c -4.662,-3.031 -6.703,-9.982 -13.866,-9.272 -4.149,-0.548 -7.073,1.432 -9.431,4.575 -1.562,1.525 -3.125,3.05 -4.687,4.574 -0.02,3.084 -0.041,6.168 -0.061,9.253 0.607,0.755 1.214,1.509 1.786,2.289 3.668,3.157 6.806,6.751 9.003,11.12 3.387,10.74 13.854,17.499 16.024,28.916 0.447,2.137 1.145,4.164 2.012,6.162 1.051,1.995 2.497,3.626 4.311,4.947 3.411,1.221 6.518,0.871 9.179,-1.77 C 14.182,38.993 14.093,17.192 14.005,-4.609 7.849,-7.594 5.073,-0.306 0,0" style="fill:#ba2122;fill-opacity:1;fill-rule:nonzero;stroke:none" transform="matrix(1.3333333,0,0,-1.3333333,1254.4172,3669.8741)" />
      <path id="path63" d="m 0,0 c -0.059,-14.046 -0.118,-28.091 -0.177,-42.137 -5.947,-5.559 -13.007,-6.583 -20.687,-5.136 -3.501,0.747 -6.747,2.156 -9.797,3.998 -5.289,5.242 -15.848,4.487 -16.929,14.637 4.986,19.282 19.209,28.757 36.835,34.632 C -5.268,7.415 -2.739,3.52 0,0" style="fill:#ab2024;fill-opacity:1;fill-rule:nonzero;stroke:none" transform="matrix(1.3333333,0,0,-1.3333333,1273.4383,3395.4087)" />
      <path id="path65" d="m 0,0 c -0.129,11.03 -0.258,22.06 -0.388,33.091 3.905,8.587 0.536,17.775 2.182,26.537 9.862,12.127 17.334,-0.739 25.828,-2.728 1.867,4.454 -0.008,9.572 3.248,13.47 4.879,2.731 8.537,0.235 12.096,-2.779 3.779,-4.402 6.006,-9.508 6.877,-15.216 -2.054,-10.493 -1.942,-20.473 6.942,-28.35 0.677,-2.181 0.756,-4.378 0.372,-6.618 C 53.567,8.929 48.503,3.949 38.924,9.744 29.143,14.008 30.553,34.56 13.115,27.441 c -1.76,-4.155 0.092,-7.184 2.88,-9.947 2.055,-2.342 3.395,-4.943 2.982,-8.18 C 16.647,4.55 13.133,0.895 8.565,-1.782 5.38,-2.793 2.432,-2.619 0,0" style="fill:#a02024;fill-opacity:1;fill-rule:nonzero;stroke:none" transform="matrix(1.3333333,0,0,-1.3333333,831.41093,3345.5764)" />
      <path id="path68" d="m 0,0 c 1.587,-1.516 3.174,-3.031 4.762,-4.547 6.074,-7.241 16.608,-3.507 23.217,-9.434 0.042,-15.57 0.084,-31.139 0.125,-46.708 -1.583,-1.59 -3.495,-2.355 -5.739,-2.306 -4.716,1.118 -6.9,4.716 -8.646,8.748 -0.815,1.887 -1.489,3.847 -2.115,5.799 -6.541,11.085 -19.982,13.737 -28.12,22.888 C -31.445,-4.708 -30.884,-3.842 0,0" style="fill:#d32621;fill-opacity:1;fill-rule:nonzero;stroke:none" transform="matrix(1.3333333,0,0,-1.3333333,1235.6868,3445.4809)" />
      <path id="path70" d="m 0,0 c 1.525,-3.155 3.05,-6.31 4.575,-9.465 3.396,-6.596 -3.124,-13.042 -0.238,-19.632 2.695,-7.199 1.281,-15.346 5.282,-22.22 0.042,-1.555 0.084,-3.11 0.127,-4.665 -3.115,-0.041 -6.231,-0.081 -9.347,-0.122 -7.549,3.598 -15.296,6.824 -22.838,10.335 -9.033,4.204 -8.021,7.086 4.653,14.296 -15.832,1.768 -33.072,1.855 -26.377,25.614 5.377,7.418 14.179,6.676 21.647,9.152 2.188,0.74 4.431,1.221 6.712,1.567 C -9.817,5.601 -4.298,4.761 0,0" style="fill:#ab2124;fill-opacity:1;fill-rule:nonzero;stroke:none" transform="matrix(1.3333333,0,0,-1.3333333,1260.4484,3514.1736)" />
      <path id="path78" d="m 0,0 c -0.442,1.523 -0.391,3.03 0.153,4.52 9.221,6.292 13.984,-0.518 19.059,-6.446 2.828,-5.638 1.461,-12.079 3.409,-17.896 1.363,-5.644 2.814,-11.239 7.282,-15.44 3.284,-4.043 7.258,-7.45 10.437,-11.604 5.706,-10.178 0.101,-15.092 -8.626,-18.596 -3.684,-0.944 -7.396,-1.069 -11.155,-0.521 C 4.781,-62.477 1.156,-51.193 2.057,-37.03 1.018,-24.71 4.309,-12.144 0,0" style="fill:#d02523;fill-opacity:1;fill-rule:nonzero;stroke:none" transform="matrix(1.3333333,0,0,-1.3333333,830.55987,3395.3096)" />
      <path id="path80" d="m 0,0 c 6.201,-3.094 12.402,-6.188 18.602,-9.282 0.082,-6.23 0.164,-12.458 0.246,-18.688 -8.687,-7.37 -4.851,-21.079 -14.222,-28.104 -1.568,0.01 -3.137,0.019 -4.705,0.029 -7.292,5.651 -16.062,2.634 -24.062,4.121 -8.253,1.535 -16.59,3.054 -19.414,12.857 3.077,8.904 8.979,16.578 11.244,25.846 0.977,1.921 2.343,3.525 4.045,4.836 13.196,-0.858 7.566,-15.215 14.697,-20.305 8.419,-1.506 8.167,5.113 9.496,10.122 C -4.053,-12.085 -9.076,-4.453 0,0" style="fill:#b02124;fill-opacity:1;fill-rule:nonzero;stroke:none" transform="matrix(1.3333333,0,0,-1.3333333,1248.3037,3114.6061)" />
      <path id="path83" d="m 0,0 c 29.915,-0.887 60.104,5.184 89.709,-3.545 -0.858,-1.839 -2.136,-3.329 -3.713,-4.564 -8.621,-7.17 2.246,-18.513 -5.498,-25.862 -22.121,-11.31 -27.889,13.242 -42.176,19.103 -3.092,1.268 6.124,9.828 -4.621,6.253 C 23.32,-12.069 12.198,-12.043 1.99,-6.287 0.093,-4.583 -0.566,-2.483 0,0" style="fill:#8b1e22;fill-opacity:1;fill-rule:nonzero;stroke:none" transform="matrix(1.3333333,0,0,-1.3333333,842.4824,3027.6843)" />
      <path id="path94" d="m 0,0 c -13.353,-10.035 -8.832,-35.389 -31.839,-37.152 -1.563,1.23 -2.609,2.794 -3.082,4.736 -0.931,5.047 1.646,9.385 2.847,14.005 10.582,9.583 6.238,29.829 24.328,34.055 C -5.161,10.432 -2.581,5.216 0,0" style="fill:#b02124;fill-opacity:1;fill-rule:nonzero;stroke:none" transform="matrix(1.3333333,0,0,-1.3333333,1097.6628,3295.7971)" />
      <path id="path97" d="m 0,0 c 0.504,-12.449 6.077,-20.903 18.737,-23.77 1.873,-1.71 3.41,-3.683 4.636,-5.911 3.874,-14.252 1.867,-27.527 -6.636,-39.72 -2.127,-1.974 -4.377,-2.107 -6.735,-0.413 -0.074,5.993 0.017,11.993 -0.277,17.975 -0.216,4.391 -0.539,10.412 -5.742,10.222 -2.685,-0.098 -5.149,-6.248 -7.71,-9.662 0.063,17.153 0.123,34.304 0.183,51.455 C -2.254,2.314 -1.072,2.255 0,0" style="fill:#8d1d22;fill-opacity:1;fill-rule:nonzero;stroke:none" transform="matrix(1.3333333,0,0,-1.3333333,835.74787,3445.4028)" />
      <path id="path100" d="M 0,0 C 0.827,11.348 -1.514,24.3 14.222,28.104 14.2,24.971 14.178,21.837 14.156,18.703 9.323,10.994 9.501,3.244 13.969,-4.541 c 0.044,-14.09 0.087,-28.181 0.131,-42.271 -19.079,5.791 -3.119,23.487 -12.175,33.498 -5.719,2.925 -7.382,-9.586 -15.444,-4.964 C -8.864,-11.984 -4.432,-5.992 0,0" style="fill:#c52220;fill-opacity:1;fill-rule:nonzero;stroke:none" transform="matrix(1.3333333,0,0,-1.3333333,1254.4719,3189.3711)" />
      <path id="path106" d="m 0,0 c -6.583,0.057 -13.166,0.114 -19.749,0.171 -11.388,6.418 -17.925,16.065 -19.425,29.097 1.324,13.48 2.727,26.916 20.926,12.775 3.859,-5.208 5.277,-11.895 9.946,-16.654 2.473,-3.328 4.537,-6.909 6.364,-10.633 C 0.027,10.019 2.428,5.317 0,0" style="fill:#811b1e;fill-opacity:1;fill-rule:nonzero;stroke:none" transform="matrix(1.3333333,0,0,-1.3333333,955.6672,3731.6853)" />
      <path id="path115" d="m 0,0 c 0.033,26.599 0.066,53.199 0.099,79.798 2.554,1.246 4.699,0.743 6.449,-1.497 3.449,-5.436 4.035,-11.529 4.093,-17.739 0.071,-5.837 0.139,-11.688 0.092,-17.52 C 12.207,35.981 7.807,28.369 18.2,22.495 26.511,17.799 23.604,7.741 15.604,1.422 12.683,-0.311 9.545,-1.431 6.193,-1.97 3.871,-2.137 1.819,-1.43 0,0" style="fill:#891d22;fill-opacity:1;fill-rule:nonzero;stroke:none" transform="matrix(1.3333333,0,0,-1.3333333,830.76187,3202.0036)" />
      <path id="path122" d="m 0,0 c -12.221,0.695 -19.131,8.369 -24.221,18.435 1.674,3.13 3.348,6.259 5.021,9.388 3.804,2.128 -0.328,11.714 8.538,9.085 C -3.275,25.713 1.584,13.787 0,0" style="fill:#d82924;fill-opacity:1;fill-rule:nonzero;stroke:none" transform="matrix(1.3333333,0,0,-1.3333333,1043.3856,3182.7153)" />
      <path id="path128" d="m 0,0 c -3.193,3.984 -6.419,7.958 -4.388,13.625 1.844,2.473 4.447,3.974 6.97,5.578 7.579,6.604 3.118,15.675 4.926,23.416 1.513,6.479 -1.997,16.192 9.784,16.77 C 16.197,39.521 22.789,19.138 13.301,-0.167 8.867,-0.111 4.433,-0.055 0,0" style="fill:#db2622;fill-opacity:1;fill-rule:nonzero;stroke:none" transform="matrix(1.3333333,0,0,-1.3333333,955.6672,3731.6857)" />
      <path id="path136" d="m 0,0 c -6.3,2.652 -9.912,10.437 -18.102,9.479 0.16,10.927 0.32,21.854 0.483,32.781 2.623,-0.002 5.243,-0.004 7.864,-0.005 1.623,-1.449 2.613,-3.234 2.912,-5.399 C -8.229,26.05 1.298,20.144 4.639,11.456 5.18,6.805 9.807,0.453 0,0" style="fill:#ab2124;fill-opacity:1;fill-rule:nonzero;stroke:none" transform="matrix(1.3333333,0,0,-1.3333333,854.8996,3401.9221)" />
      <path id="path140" d="m 0,0 c 1.253,0.115 2.508,0.207 3.764,0.276 3.554,-2.262 5.107,-5.765 6.047,-9.662 1.138,-7.705 0.932,-15.452 0.602,-23.211 -0.18,-5.462 -2.582,-9.951 -6.125,-13.934 C 2.876,-55.883 7.532,-66.142 0.096,-74.591 0.066,-49.726 0.033,-24.863 0,0" style="fill:#9a2024;fill-opacity:1;fill-rule:nonzero;stroke:none" transform="matrix(1.3333333,0,0,-1.3333333,830.76187,3202.0036)" />
      <path id="path142" d="M 0,0 C 10.519,16.236 7.682,-8.103 14.005,-4.61 13.956,-10.931 13.908,-17.253 13.857,-23.576 -1.309,-21.915 0.105,-10.511 0,0" style="fill:#8e1e22;fill-opacity:1;fill-rule:nonzero;stroke:none" transform="matrix(1.3333333,0,0,-1.3333333,1254.4172,3669.8741)" />
      <path id="path143" d="m 0,0 c 7.787,1.536 15.575,3.072 23.361,4.609 -0.014,-7.838 -0.028,-15.676 -0.042,-23.514 -2.426,-3.682 -4.76,-7.561 -10.215,-4.821 -4.127,10.569 -14.626,13.187 -23.084,18.41 -0.776,2.201 -0.545,4.279 0.677,6.261 C -5.985,2.665 -2.86,2.616 0,0" style="fill:#a92025;fill-opacity:1;fill-rule:nonzero;stroke:none" transform="matrix(1.3333333,0,0,-1.3333333,1241.9055,3295.3628)" />
      <path id="path145" d="m 0,0 c -0.564,-11.653 11.827,-16.745 13.744,-27.137 -7.591,-0.128 -15.18,-0.259 -22.769,-0.388 1.507,4.413 3.014,8.826 4.521,13.238 -3.639,4.117 -4.399,8.612 -1.788,13.554 C -4.427,1.489 -2.329,1.733 0,0" style="fill:#b12224;fill-opacity:1;fill-rule:nonzero;stroke:none" transform="matrix(1.3333333,0,0,-1.3333333,911.01227,3695.2769)" />
      <path id="path147" d="M 0,0 C -1.235,-8.654 -9.108,-13.992 -13.619,-8.445 -19.59,-1.104 -15.474,8.592 -5.383,13.096 -3.589,8.731 -1.795,4.365 0,0" style="fill:#c52321;fill-opacity:1;fill-rule:nonzero;stroke:none" transform="matrix(1.3333333,0,0,-1.3333333,1111.6241,3331.7392)" />
      <path id="path152" d="M 0,0 C -2.848,-3.029 -5.696,-6.058 -8.54,-9.086 -9.724,3.924 -15.87,16.342 -13.167,29.821 -6.584,20.854 -3.097,10.513 0,0" style="fill:#d42620;fill-opacity:1;fill-rule:nonzero;stroke:none" transform="matrix(1.3333333,0,0,-1.3333333,1029.1691,3133.5044)" />
      <path id="path153" d="m 0,0 c -1.254,0.062 -2.506,0.149 -3.753,0.262 -0.218,12.077 -0.57,24.153 -0.61,36.231 -0.022,6.72 -0.919,14.327 9.305,14.713 0.076,-1.315 0.149,-2.628 0.219,-3.941 0.23,-1.241 0.459,-2.481 0.7,-3.721 C 5.822,28.772 11.687,13.203 0,0" style="fill:#9a2024;fill-opacity:1;fill-rule:nonzero;stroke:none" transform="matrix(1.3333333,0,0,-1.3333333,835.89387,3095.9557)" />
      <path id="path155" d="M 0,0 C -10.453,-3.535 -19.765,-4.261 -23.217,9.434 -15.426,9.422 -7.634,9.41 0.157,9.398 0.105,6.265 0.052,3.133 0,0" style="fill:#c62120;fill-opacity:1;fill-rule:nonzero;stroke:none" transform="matrix(1.3333333,0,0,-1.3333333,1272.9921,3464.1223)" />
      <path id="path160" d="m 0,0 c -10.232,9.402 0.291,24.532 -9.382,34.66 -1.213,1.27 6.109,2.342 9.682,2.887 C 0.201,25.031 0.101,12.516 0,0" style="fill:#af2024;fill-opacity:1;fill-rule:nonzero;stroke:none" transform="matrix(1.3333333,0,0,-1.3333333,1273.2877,3083.2948)" />
      <path id="path161" d="m 0,0 c 0.042,-3.13 0.084,-6.26 0.126,-9.39 -5.874,-1.884 -6.006,-9.531 -11.692,-11.64 -4.913,-0.781 -8.068,1.617 -10.364,5.641 -2.57,6.698 -2.491,13.146 1.773,19.198 1.659,1.518 3.619,2.441 5.843,2.803 C -8.567,6.551 -3.835,4.244 0,0" style="fill:#b42123;fill-opacity:1;fill-rule:nonzero;stroke:none" transform="matrix(1.3333333,0,0,-1.3333333,1273.1495,3357.9279)" />
      <path id="path162" d="M 0,0 C -0.506,4.105 -5.944,8.652 -0.625,11.992 1.499,13.325 6.216,10.526 9.753,9.608 9.783,3.367 9.813,-2.873 9.843,-9.113 6.694,-7.516 3.544,-5.919 0.395,-4.322 -0.73,-3.456 -1.164,-2.527 -0.906,-1.535 -0.64,-0.512 -0.339,0 0,0" style="fill:#c82421;fill-opacity:1;fill-rule:nonzero;stroke:none" transform="matrix(1.3333333,0,0,-1.3333333,1260.3132,3383.2579)" />
      <path id="path167" d="M 0,0 C -1.184,0.059 -2.367,0.118 -3.547,0.176 -3.66,12.642 -3.776,25.107 -3.892,37.571 3.677,25.696 -0.849,12.57 0,0" style="fill:#982023;fill-opacity:1;fill-rule:nonzero;stroke:none" transform="matrix(1.3333333,0,0,-1.3333333,835.74787,3445.4028)" />
      <path id="path170" d="M 0,0 C -4.751,7.736 3.253,12.384 4.515,18.66 6.164,18.756 7.817,18.854 9.47,18.952 9.515,12.706 9.56,6.46 9.605,0.213 6.463,-2.56 3.261,-2.583 0,0" style="fill:#c42221;fill-opacity:1;fill-rule:nonzero;stroke:none" transform="matrix(1.3333333,0,0,-1.3333333,1260.5327,3551.67)" />
      <path id="path171" d="m 0,0 c -0.239,1.642 -0.479,3.283 -0.719,4.925 0.384,2.843 0.769,5.687 1.155,8.53 1.257,0.17 2.515,0.328 3.775,0.474 12.03,-1.577 9.373,-9.47 7.359,-17.093 C 5.829,-9.033 2.788,-4.977 0,0" style="fill:#ce2621;fill-opacity:1;fill-rule:nonzero;stroke:none" transform="matrix(1.3333333,0,0,-1.3333333,1123.8193,3344.9493)" />
      <path id="path172" d="m 0,0 c -5.131,0.149 -10.579,-0.642 -13.956,4.708 -0.915,5.653 -0.349,10.887 4.23,14.988 8.593,1.646 6.048,-7.275 9.744,-10.282 C 0.012,6.276 0.006,3.138 0,0" style="fill:#a92025;fill-opacity:1;fill-rule:nonzero;stroke:none" transform="matrix(1.3333333,0,0,-1.3333333,1273.1495,3357.9279)" />
      <path id="path173" d="M 0,0 C 3.202,0.071 6.403,0.142 9.605,0.213 9.589,-7.59 9.572,-15.392 9.556,-23.195 3.19,-16.774 2.401,-8.055 0,0" style="fill:#ba2122;fill-opacity:1;fill-rule:nonzero;stroke:none" transform="matrix(1.3333333,0,0,-1.3333333,1260.5327,3551.67)" />
      <path id="path174" d="m 0,0 c 1.704,0.289 3.408,0.578 5.114,0.869 6.22,-2.875 17.751,4.846 18.369,-9.203 -0.105,-1.844 -0.21,-3.69 -0.316,-5.536 -3.118,-2.013 -5.993,-0.737 -8.876,0.607 C 9.637,-8.744 -1.425,-11.068 0,0" style="fill:#b81f23;fill-opacity:1;fill-rule:nonzero;stroke:none" transform="matrix(1.3333333,0,0,-1.3333333,955.27333,3033.5717)" />
      <path id="path177" d="M 0,0 C -9.119,7.822 -9.082,15.571 0.187,23.244 0.125,15.496 0.063,7.748 0,0" style="fill:#d22523;fill-opacity:1;fill-rule:nonzero;stroke:none" transform="matrix(1.3333333,0,0,-1.3333333,1273.0968,3195.4255)" />
      <path id="path178" d="m 0,0 c -3.791,-4.19 -6.322,-1.56 -8.125,1.848 -2.306,4.36 -1.351,8.35 2.599,11.48 C -3.685,8.885 -1.842,4.442 0,0" style="fill:#c3221f;fill-opacity:1;fill-rule:nonzero;stroke:none" transform="matrix(1.3333333,0,0,-1.3333333,1080.1752,3257.3932)" />
      <path id="path179" d="m 0,0 c 6.089,-6.521 6.309,-12.866 -0.567,-19.002 -1.409,3.219 -2.817,6.438 -4.225,9.658 3.7,2.036 4.437,5.592 4.792,9.344" style="fill:#b12124;fill-opacity:1;fill-rule:nonzero;stroke:none" transform="matrix(1.3333333,0,0,-1.3333333,1061.3836,3557.5476)" />
      <path id="path182" d="m 0,0 c -3.054,3.132 -6.108,6.265 -9.161,9.397 -1.216,1.506 -1.183,3.031 -0.068,4.573 3.033,1.545 6.065,3.09 9.098,4.635 C -0.088,12.403 -0.044,6.202 0,0" style="fill:#b42123;fill-opacity:1;fill-rule:nonzero;stroke:none" transform="matrix(1.3333333,0,0,-1.3333333,1273.1736,3345.3752)" />
      <path id="path210" d="m 0,0 c 8.72,-10.221 20.505,-10.883 32.102,-8.562 10.142,2.03 10.157,-3.303 9.978,-10.098 -13.728,-11.98 -13.728,-11.98 -46.711,-18.798 -13.07,-7.532 -26.035,-15.541 -42.149,-9.34 0.004,18.74 0.007,37.48 0.01,56.22 2.351,14.417 9.095,19.703 22.958,11.488 4.597,-2.724 9.7,-4.605 14.283,-7.451 C -4.8,10.079 -0.743,6.204 0,0" style="fill:#a32025;fill-opacity:1;fill-rule:nonzero;stroke:none" transform="matrix(1.3333333,0,0,-1.3333333,1192.0927,3164.4545)" />
      <path id="path211" d="M 0,0 C -0.038,-1.463 -0.08,-2.927 -0.126,-4.39 -0.86,-9.674 -6.467,-14.148 -2.648,-20.134 1.081,-24.505 7.426,-27.116 6.865,-34.323 2.19,-45.69 -9.213,-47.855 -18.495,-52.93 c -9.375,0.204 -17.458,6.13 -19.098,13.361 -3.108,13.708 -14.608,15.231 -23.351,21.034 19.975,8.749 41.179,15.379 56.25,32.593 0,-1.558 0.001,-3.116 0.003,-4.673 C -1.892,6.874 0.46,4.14 0,0" style="fill:#b22024;fill-opacity:1;fill-rule:nonzero;stroke:none" transform="matrix(1.3333333,0,0,-1.3333333,1229.5889,3295.538)" />
      <path id="path212" d="M 0,0 C 14.045,3.134 26.688,12.591 42.148,9.34 42.142,1.545 42.134,-6.249 42.127,-14.043 36.103,-14.736 29.921,-7.388 24.87,-11.91 11.893,-23.529 6.851,-11.963 0.034,-4.722 0.023,-3.148 0.011,-1.574 0,0" style="fill:#ac2024;fill-opacity:1;fill-rule:nonzero;stroke:none" transform="matrix(1.3333333,0,0,-1.3333333,1129.72,3226.8515)" />
      <path id="path213" d="m 0,0 c 9.186,-1.634 13.392,5.148 18.846,10.502 4.116,4.04 8.675,1.833 11.508,-2.544 2.191,-3.384 2.94,-9.3 -0.866,-9.979 C 19.75,-3.757 8.291,-19.774 0,0" style="fill:#ba2122;fill-opacity:1;fill-rule:nonzero;stroke:none" transform="matrix(1.3333333,0,0,-1.3333333,1185.8892,3245.5759)" />
      <path id="path214" d="M 0,0 C -8.997,9.812 -2.88,21.765 -4.617,32.603 4.114,22.753 -1.685,10.846 0,0" style="fill:#c12220;fill-opacity:1;fill-rule:nonzero;stroke:none" transform="matrix(1.3333333,0,0,-1.3333333,1135.9416,3301.6575)" />
      <path id="path215" d="M 0,0 C -3.638,2.092 -4.602,5.52 -4.691,9.385 2.066,9.48 8.8,9.541 9.239,0.13 6.158,0.087 3.079,0.044 0,0" style="fill:#c32421;fill-opacity:1;fill-rule:nonzero;stroke:none" transform="matrix(1.3333333,0,0,-1.3333333,1229.5889,3295.538)" />
      <path id="path216" d="m 0,0 c -2.221,-3.645 -5.805,-4.237 -9.627,-4.299 -17.181,-7.411 -33.12,-2.686 -48.782,4.936 -10.094,6.688 -12.979,15.003 -5.534,25.497 3.737,5.267 3.35,11.885 5.858,17.562 2.715,4.654 6.296,8.679 9.417,13.039 14.024,19.588 14.249,19.538 24.594,-3.113 4.993,-12.838 7.95,-26.939 21.577,-34.408 C -0.38,12.974 5.306,7.191 0,0" style="fill:#921f23;fill-opacity:1;fill-rule:nonzero;stroke:none" transform="matrix(1.3333333,0,0,-1.3333333,955.30667,3208.2809)" />
      <path id="path217" d="m 0,0 c -1.671,6.26 -3.343,12.52 -5.014,18.78 -7.897,6.59 -12.744,16.313 -7.179,24.428 15.153,22.093 3.042,47.199 10.051,69.859 1.526,15.562 12.101,9.718 20.628,8.72 1.552,-1.542 3.104,-3.084 4.656,-4.625 -0.306,-6.381 1.269,-11.934 5.151,-17.335 C 31.509,95.352 36.991,88.586 24.98,87.517 19.816,87.058 18.546,83.716 19.437,79.462 25.335,51.303 0.336,29.133 4.221,1.336 4.255,1.092 1.469,0.454 0,0" style="fill:#b02124;fill-opacity:1;fill-rule:nonzero;stroke:none" transform="matrix(1.3333333,0,0,-1.3333333,955.30667,3208.2809)" />
      <path id="path218" d="m 0,0 c 14.52,-8.639 31.538,-4.707 46.859,-9.308 4.134,-5.836 19.156,-6.31 9.365,-19.009 4.838,-12.426 1.959,-17.841 -12.025,-13.316 -7.034,2.276 -12.006,10.304 -20.86,7.42 -2.033,-0.502 -4.088,-0.638 -6.167,-0.487 -3.155,1.041 -5.059,3.217 -5.78,6.438 0.087,1.987 0.449,3.941 1.018,5.839 0.31,2.361 -0.358,4.38 -2.16,5.996 -1.931,-2.205 1.05,-3.737 0.789,-5.785 -2.53,-8.253 -11.724,-9.501 -16.213,-15.649 0.871,-2.895 1.594,-5.845 2.645,-8.673 1.85,-4.972 5.221,-11.11 0.228,-14.625 -4.909,-3.456 -10.335,1.126 -13.337,5.296 -4.377,6.077 -9.378,9.678 -16.999,9.03 0.036,4.678 0.07,9.355 0.105,14.031 3.889,3.081 4.836,8.604 9.264,11.251 9.425,4.755 6.431,17.086 13.991,22.975 C -5.991,2.184 -2.794,2.39 0,0" style="fill:#c32221;fill-opacity:1;fill-rule:nonzero;stroke:none" transform="matrix(1.3333333,0,0,-1.3333333,879.99347,3201.604)" />
      <path id="path219" d="m 0,0 c 7.018,12.647 13.439,6.685 21.328,0.295 5.657,-4.584 15.768,-16.229 16.306,4.087 12.659,-13.158 11.004,-33.487 23.428,-46.762 0,0 0.009,0.003 0.009,0.003 1.948,-5.374 -0.725,-8.481 -5.234,-10.689 C 34.268,-38.499 20.508,-15.699 0,0" style="fill:#b12124;fill-opacity:1;fill-rule:nonzero;stroke:none" transform="matrix(1.3333333,0,0,-1.3333333,904.77947,3245.2024)" />
      <path id="path228" d="m 0,0 c 5.872,-0.428 11.744,-0.855 17.617,-1.283 8.432,-0.408 14.615,-5.419 20.912,-10.206 2.446,-1.781 4.731,-3.734 6.632,-6.112 4.397,-4.448 8.087,-9.434 11.463,-14.687 4.032,-8.454 12.94,-17.5 -2.674,-23.736 -2.177,-0.25 -4.339,-0.081 -6.48,0.389 -3.095,0.992 -5.76,2.731 -8.201,4.833 -4.51,4.114 -8.696,8.59 -13.271,12.672 -1.576,1.316 -3.011,2.769 -4.398,4.273 C 13.046,-22.684 -5.386,-20.975 -7.461,-3.588 -5.901,-0.463 -3.856,1.657 0,0" style="fill:#6f1517;fill-opacity:1;fill-rule:nonzero;stroke:none" transform="matrix(1.3333333,0,0,-1.3333333,999.81547,3350.5748)" />
      <path id="path229" d="m 0,0 c 27.645,-7.629 39.904,-31.955 56.255,-51.839 7.219,-1.897 12.054,-5.454 9.746,-13.989 -0.007,-1.535 -0.072,-3.068 -0.196,-4.599 -18.297,-3.463 -20.017,18.311 -33.611,22.027 -4.918,3.791 -8.277,9.031 -12.6,13.389 -6.993,11.168 -20.509,18.705 -19.301,34.455 z" style="fill:#9c2024;fill-opacity:1;fill-rule:nonzero;stroke:none" transform="matrix(1.3333333,0,0,-1.3333333,904.77947,3245.2024)" />
      <path id="path230" d="m 0,0 c -13.597,-1.07 -14.277,7.662 -14.182,17.845 0.09,9.659 4.675,20.802 13.045,15.922 C 9.185,27.749 7.825,51 15.716,38.102 21.959,27.899 14.162,27.463 7.169,23.077 1.991,19.83 2.193,8.004 -0.001,0 Z" style="fill:#b22124;fill-opacity:1;fill-rule:nonzero;stroke:none" transform="matrix(1.3333333,0,0,-1.3333333,1036.1168,3320.4885)" />
      <path id="path231" d="m 0,0 c 16.98,0.666 19.262,-19.297 32.844,-23.401 1.821,-2.871 3.641,-5.742 5.467,-8.608 -1.879,-1.885 -3.764,-3.777 -5.649,-5.669 -6.734,-3.401 -11.79,1.367 -17.401,3.485 -6.731,3.812 -17.267,-1.393 -21.305,8.859 1.986,6.602 3.457,13.295 2.996,20.285 C -2.547,-3.055 -1.547,-1.361 0,0" style="fill:#7f1a1e;fill-opacity:1;fill-rule:nonzero;stroke:none" transform="matrix(1.3333333,0,0,-1.3333333,948.72693,3307.9055)" />
      <path id="path232" d="m 0,0 c -3.248,4.663 -6.496,9.327 -9.746,13.989 1.604,3.153 3.209,6.308 4.815,9.462 6.255,-8.659 12.454,-8.91 18.589,0.126 C 10.024,15.187 18.451,-0.191 0,0" style="fill:#bf2221;fill-opacity:1;fill-rule:nonzero;stroke:none" transform="matrix(1.3333333,0,0,-1.3333333,992.78147,3332.9727)" />
      <path id="path233" d="m 0,0 c -7.231,3.07 -14.433,6.18 -18.833,13.266 0.397,5.952 3.173,9.63 9.494,9.913 0.977,-0.166 1.954,-0.332 2.937,-0.483 6.3,-2.34 7.235,-9.073 11.027,-13.471 C 4.655,7.635 4.684,6.045 4.714,4.456 3.844,2.229 2.238,0.78 0,0" style="fill:#c82220;fill-opacity:1;fill-rule:nonzero;stroke:none" transform="matrix(1.3333333,0,0,-1.3333333,1048.4176,3369.9693)" />
      <path id="path234" d="m 0,0 c 7.051,-4.81 1.317,-9.473 -0.163,-14.184 -4.629,-3.932 -9.256,-3.298 -13.88,0.01 0,0 -0.153,0.132 -0.154,0.133 0.036,4.645 0.074,9.29 0.112,13.933 0,0 -0.002,0.001 -10e-4,0.001 C -9.391,-0.072 -4.695,-0.036 0,0" style="fill:#c82220;fill-opacity:1;fill-rule:nonzero;stroke:none" transform="matrix(1.3333333,0,0,-1.3333333,1054.8968,3320.3447)" />
      <path id="path256" d="m 0,0 c 1.541,-0.01 3.082,-0.025 4.623,-0.046 1.472,-0.378 2.869,-0.942 4.186,-1.589 3.287,-0.152 3.222,2.433 3.657,4.604 0.247,4.829 -1.275,9.605 0.104,14.375 1.826,3 4.517,4.573 7.97,4.953 11.244,-0.94 14.838,-8.371 15.549,-18.214 -0.014,-2.415 -1.602,-4.579 -1.421,-7.104 1.321,0.269 2.436,0.919 3.406,2.046 3.396,2.276 6.8,3.418 10.486,0.782 1.258,-1.721 2.138,-3.59 2.649,-5.654 -9.376,-16.633 -0.298,-28.872 9.728,-40.886 0,0 -0.04,-0.16 -0.041,-0.162 -21.776,0.096 -43.552,0.195 -65.328,0.293 -8.426,2.934 -9.195,10.018 -9.43,17.388 0,4.686 -0.137,9.386 0.76,14.032 C -10.665,-8.465 -7.684,-2.197 0,0" style="fill:#b22024;fill-opacity:1;fill-rule:nonzero;stroke:none" transform="matrix(1.3333333,0,0,-1.3333333,1135.8292,3595.1716)" />
      <path id="path257" d="m 0,0 c -0.093,-6.754 1.452,-13.069 5.062,-18.827 10.171,-6.318 18.775,-13.374 11.576,-28.492 -8.579,11.094 -17.066,22.068 -25.552,33.041 -0.259,12.461 -0.52,24.923 -0.781,37.385 2.13,1.23 4.251,1.282 6.367,-0.037 C 1.592,15.932 -5.677,7.033 0,0" style="fill:#d32521;fill-opacity:1;fill-rule:nonzero;stroke:none" transform="matrix(1.3333333,0,0,-1.3333333,1123.168,3632.2064)" />
      <path id="path265" d="m 0,0 c -5.668,2.078 -12.026,3.145 -16.862,6.443 -10.177,6.942 -15.952,3.144 -20.472,-6.362 0.038,28.118 0.076,56.235 0.114,84.352 7.833,4.247 16.294,1.285 24.396,2.133 C 1.915,74.127 -5.739,57.606 -11.478,47.305 -20.976,30.255 -13.527,21.933 -2.77,12.263 -0.074,8.574 2.38,4.822 0,0" style="fill:#ac2024;fill-opacity:1;fill-rule:nonzero;stroke:none" transform="matrix(1.3333333,0,0,-1.3333333,1179.5109,3152.0001)" />
      <path id="path266" d="m 0,0 c -8.646,-6.205 10.25,-12.475 -0.045,-18.676 -5.215,-4.123 -8.795,-9.884 -14.022,-13.995 -6.873,-3.003 -9.688,-0.791 -9.446,6.708 0.191,5.9 1.33,12.341 -4.559,16.699 -27.174,7.627 -33.538,21.12 -21.682,45.875 C -31.871,35.192 -22.831,20.83 -11.195,10.217 -8.694,7.078 -7.439,3.133 -4.707,0.124 -3.138,0.083 -1.569,0.041 0,0" style="fill:#ac2124;fill-opacity:1;fill-rule:nonzero;stroke:none" transform="matrix(1.3333333,0,0,-1.3333333,1248.3037,3114.6061)" />
      <path id="path267" d="m 0,0 c -3.849,0.081 -7.303,0.967 -9.404,4.612 -4.338,21.694 -23.154,29.81 -38.59,41.122 -1.779,3.136 -1.922,6.352 -0.533,9.66 1.644,1.945 3.572,2.287 5.783,1.039 C -18.272,65.667 -8.627,42.532 5.893,31.952 8.376,30.143 10.731,9.336 0,0" style="fill:#911f23;fill-opacity:1;fill-rule:nonzero;stroke:none" transform="matrix(1.3333333,0,0,-1.3333333,1242.0283,3114.4404)" />
      <path id="path268" d="m 0,0 c -1.347,-0.062 -2.69,-0.164 -4.031,-0.305 -3.139,-2.776 -6.298,-2.773 -9.476,-0.067 -9.287,0.067 -18.573,0.133 -27.858,0.201 C -27.604,6.805 -13.817,7.089 0,0" style="fill:#bf2021;fill-opacity:1;fill-rule:nonzero;stroke:none" transform="matrix(1.3333333,0,0,-1.3333333,1185.0356,3039.1961)" />
      <path id="path271" d="M 0,0 C 3.143,-1.526 6.286,-3.052 9.43,-4.577 13.033,-21.75 -0.962,-12.671 -6.328,-18.027 -9.11,-8.364 -1.394,-5.594 0,0" style="fill:#9c2024;fill-opacity:1;fill-rule:nonzero;stroke:none" transform="matrix(1.3333333,0,0,-1.3333333,1223.3541,3676.1373)" />
      <path id="path290" d="m 0,0 c -9.086,-7.487 -11.875,-19.11 -18.516,-28.202 -1.203,13.399 -8.035,30.329 -2.343,39.4 9.424,15.019 -3.676,23.702 -2.706,35.245 0.481,3.618 2.523,6.12 5.604,7.893 4.191,1.895 8.513,2.115 12.927,0.946 3.003,-1.151 5.37,-2.985 6.359,-6.198 C 1.199,44.99 -2.08,42.255 -3.188,38.584 -2.119,30.099 6.507,24.511 5.66,15.35 5.635,9.548 5.084,3.931 0,0" style="fill:#b12124;fill-opacity:1;fill-rule:nonzero;stroke:none" transform="matrix(1.3333333,0,0,-1.3333333,1085.9364,3513.852)" />
      <path id="path291" d="M 0,0 C -1.889,-1.997 -3.778,-3.995 -5.669,-5.995 -14.765,2.77 -31.7,-6.3 -38.228,8.31 c 2.732,7.054 -11.927,9.924 -4.81,16.966 4.166,4.122 9.683,-1.358 14.541,-2.765 9.735,2.534 16.654,-4.09 24.57,-7.536 C 0.628,10.834 3.685,6.295 0,0" style="fill:#a12024;fill-opacity:1;fill-rule:nonzero;stroke:none" transform="matrix(1.3333333,0,0,-1.3333333,1062.0768,3443.9301)" />
      <path id="path296" d="M 0,0 C -1.743,-0.018 -3.485,-0.037 -5.231,-0.055 -11,5.056 -8.616,12.201 -9.854,18.44 c 5.273,5.309 -9.036,20.794 9.878,19.022 7.213,-9.85 11.112,-21.11 13.956,-32.819 0,0 -0.023,-0.028 -0.024,-0.029 C 11.008,-0.124 8.061,-4.861 5.113,-9.599 1.177,-7.588 3.233,-2.385 0,0" style="fill:#c62320;fill-opacity:1;fill-rule:nonzero;stroke:none" transform="matrix(1.3333333,0,0,-1.3333333,1117.222,3601.3232)" />
      <path id="path298" d="m 0,0 c -1.552,-1.615 -3.105,-3.231 -4.657,-4.846 -0.529,-6.48 1.245,-13.376 -3.449,-19.112 -2.064,-1.274 -4.033,-1.199 -5.884,0.435 -0.044,1.501 -0.113,3.001 -0.207,4.499 -1.637,14.327 4.918,27.467 12.038,37.689 6.697,9.614 6.126,18.264 6.766,27.894 1.06,0.265 2.12,0.529 3.183,0.797 6.728,-3.313 8.124,-9.978 10.253,-16.204 C 20.122,16.097 20.072,2.234 0,0" style="fill:#8a1e22;fill-opacity:1;fill-rule:nonzero;stroke:none" transform="matrix(1.3333333,0,0,-1.3333333,1160.9253,3569.866)" />
      <path id="path299" d="m 0,0 c -0.708,-6.46 2.189,-13.822 -4.691,-18.737 -7.449,2.741 -14.676,6.157 -15.389,15.202 -0.629,7.982 -5.498,12.374 -11.315,16.468 -7.939,15.653 -2.12,20.11 13.201,15.561 5.007,-1.487 10.005,-3.93 14.136,-7.548 C 1.111,14.71 3.73,7.964 0,0" style="fill:#b32223;fill-opacity:1;fill-rule:nonzero;stroke:none" transform="matrix(1.3333333,0,0,-1.3333333,1160.8968,3507.7172)" />
      <path id="path300" d="m 0,0 c 0.02,6.215 0.041,12.43 0.061,18.644 2.661,2.425 5.586,4.359 9.223,4.993 7.837,1.189 13.765,-2.152 18.662,-7.907 1.391,-2.098 1.377,-4.235 0.156,-6.402 C 20.18,9.242 20.143,1.97 16.734,-2.511 10.43,-10.798 3.672,-13.434 0,0" style="fill:#972024;fill-opacity:1;fill-rule:nonzero;stroke:none" transform="matrix(1.3333333,0,0,-1.3333333,1085.9364,3513.852)" />
      <path id="path301" d="M 0,0 C 0.034,1.549 0.047,3.098 0.04,4.647 -1.429,5.707 -1.912,6.759 -1.412,7.803 -0.914,8.842 -0.418,9.362 0.08,9.362 9.477,8.625 14.477,3.301 13.853,-5.87 13.286,-14.194 19.015,-18.286 23.427,-23.463 7.669,-23.579 -2.021,-17.636 0,0" style="fill:#aa2125;fill-opacity:1;fill-rule:nonzero;stroke:none" transform="matrix(1.3333333,0,0,-1.3333333,1123.4061,3501.4148)" />
      <path id="path302" d="M 0,0 C -5.557,10.555 -14.366,19.727 -13.956,32.819 0.713,26.139 0.928,13.312 0,0" style="fill:#b22024;fill-opacity:1;fill-rule:nonzero;stroke:none" transform="matrix(1.3333333,0,0,-1.3333333,1135.8619,3595.1328)" />
      <path id="path303" d="M 0,0 C -1.617,6.196 -3.234,12.393 -4.85,18.589 -7.488,21.902 -7.341,25.255 -4.992,28.647 9.987,23.096 20.313,15.96 4.732,0.028 c 0,0 -0.102,-0.079 -0.102,-0.08 C 3.086,-0.019 1.543,-0.001 0,0" style="fill:#8a1e22;fill-opacity:1;fill-rule:nonzero;stroke:none" transform="matrix(1.3333333,0,0,-1.3333333,1160.8968,3507.7172)" />
      <path id="path306" d="m 0,0 c 0.06,-4.784 0.12,-9.569 0.18,-14.358 -9.383,3.671 -20.201,3.147 -28.577,9.766 -15.283,8.155 -15.298,25.3 -22.497,38.214 v 92.12 c 7.387,-2.204 3.262,-8.837 5.509,-12.696 2.59,-1.867 5.496,-3.322 7.634,-5.787 5,-10.203 22.735,-18.769 4.076,-32.13 -2.681,-1.92 -0.688,-3.337 1.738,-3.969 13.467,-3.514 7.415,-17.098 12.818,-24.78 2.491,-4.487 5.754,-8.488 8.249,-12.975 C -7.26,23.813 -2.441,14.748 1.55,5.31 2.306,3.165 1.847,1.379 0,0" style="fill:#d32621;fill-opacity:1;fill-rule:nonzero;stroke:none" transform="matrix(1.3333333,0,0,-1.3333333,904.768,3695.1756)" />
      <path id="path307" d="M 0,0 C 15.628,-7.952 12.359,-27.033 22.501,-38.214 1.051,-33.687 -2.883,-18.85 0,0" style="fill:#a22124;fill-opacity:1;fill-rule:nonzero;stroke:none" transform="matrix(1.3333333,0,0,-1.3333333,836.90987,3650.3456)" />
      <path id="path308" d="M 0,0 C -1.153,1.797 -2.306,3.593 -3.45,5.397 -2.234,6.892 -1.029,8.379 0.179,9.87 1.671,9.701 3.167,9.607 4.667,9.592 12.562,7.742 16.565,2.776 16.643,-5.336 16.064,-7.652 14.703,-9.367 12.583,-10.472 6.036,-9.818 3.529,-4.295 0,0" style="fill:#9d2024;fill-opacity:1;fill-rule:nonzero;stroke:none" transform="matrix(1.3333333,0,0,-1.3333333,848.84213,3551.6532)" />
      <path id="path331" d="m 0,0 c -0.052,-5.176 -0.104,-10.352 -0.156,-15.529 -6.061,-8.611 -10.03,-4.253 -12.436,2.54 -2.266,6.399 -3.122,13.308 -8.005,18.569 -4.388,8.91 -5.148,18.833 -7.964,28.195 -1.199,5.562 -1.328,11.003 1.93,16.014 6.412,8.816 1.987,17.849 0.375,26.754 -1.796,9.924 -4.083,19.789 1.001,29.467 2.383,2.974 5.48,3.678 9.058,2.865 0.923,-0.673 1.841,-1.349 2.76,-2.025 C -11.779,94.566 8.081,89.767 0.245,73.578 -4.07,58.237 -0.568,42.561 -1.738,27.081 -0.903,18.068 -3.588,8.833 0,0" style="fill:#b62123;fill-opacity:1;fill-rule:nonzero;stroke:none" transform="matrix(1.3333333,0,0,-1.3333333,979.04027,3537.8701)" />
      <path id="path332" d="m 0,0 c 9.994,4.113 9.332,-2.546 9.438,-9.03 0.09,-5.465 -2.388,-13.626 8.544,-10.451 -0.031,-23.482 -0.056,-46.957 -0.084,-70.441 -7.503,-11.997 -2.048,-25.311 -3.933,-37.859 -0.74,-4.93 1.855,-14.63 -9.23,-8.016 -8.006,13.909 1.379,29.294 -3.758,43.419 -2.892,9.447 -0.929,21.378 -13.418,25.907 -2.021,0.958 -3.832,2.176 -5.537,3.61 -4.137,22.555 9.101,40.778 15.16,60.809 C -1.889,-1.358 -0.944,-0.679 0,0" style="fill:#c82420;fill-opacity:1;fill-rule:nonzero;stroke:none" transform="matrix(1.3333333,0,0,-1.3333333,954.8656,3532.5928)" />
      <path id="path333" d="m 0,0 c 4.824,-3.027 9.648,-6.053 14.471,-9.082 9.362,-11.13 26.297,-13.426 32.683,-28.026 -2.097,-3.586 -5.35,-4.853 -9.333,-4.653 -12.456,0.032 -24.911,0.064 -37.366,0.095 -2.696,5.357 -6.656,9.381 -12.308,11.638 C -14.533,-17.41 -18.184,-4.387 0,0" style="fill:#b62123;fill-opacity:1;fill-rule:nonzero;stroke:none" transform="matrix(1.3333333,0,0,-1.3333333,972.98267,3346.0316)" />
      <path id="path334" d="M 0,0 C 2.11,3.561 5.513,4.528 9.334,4.653 9.333,4.652 9.396,4.622 9.396,4.622 c 3.756,-5.703 8.105,-10.776 14.517,-13.656 1.557,-1.56 3.113,-3.121 4.67,-4.682 -0.701,-3.15 -2.573,-5.076 -5.821,-5.563 C 13.325,-20.337 7.461,-13.535 0.499,-9.153 0.335,-6.101 0.168,-3.051 0,0" style="fill:#c92220;fill-opacity:1;fill-rule:nonzero;stroke:none" transform="matrix(1.3333333,0,0,-1.3333333,1023.4101,3401.7125)" />
      <path id="path335" d="M 0,0 C 3.54,15.199 -7.585,31.714 4.144,46.173 3.913,30.854 3.685,15.539 3.457,0.225 2.459,-2.23 1.314,-2.419 0,0" style="fill:#d52420;fill-opacity:1;fill-rule:nonzero;stroke:none" transform="matrix(1.3333333,0,0,-1.3333333,973.8456,3501.3245)" />
      <path id="path336" d="M 0,0 C 1.163,-0.013 2.32,0.061 3.464,0.223 3.606,-8.992 3.756,-18.208 3.901,-27.417 -3.73,-19.172 1.269,-9.141 0,0" style="fill:#c82420;fill-opacity:1;fill-rule:nonzero;stroke:none" transform="matrix(1.3333333,0,0,-1.3333333,973.8456,3501.3245)" />
      <path id="path337" d="m 0,0 c 9.309,-0.528 9.376,-7.18 9.25,-13.96 -3.117,1.546 -6.233,3.092 -9.349,4.638 -0.001,0 -0.05,-0.04 -0.05,-0.04 C -2.771,-6.198 -2.971,-3.074 0,0" style="fill:#931e22;fill-opacity:1;fill-rule:nonzero;stroke:none" transform="matrix(1.3333333,0,0,-1.3333333,961.2568,3382.9729)" />
      <path id="path339" d="m 0,0 c 8.178,0.639 16.356,1.277 26.651,2.082 -7.975,-17.74 5.107,-25.72 15.496,-35.061 1.271,-2.086 1.458,-4.265 0.568,-6.546 -4.536,-6.641 -11.089,-8.044 -18.534,-7.172 -4.585,0.843 -8.508,3.02 -11.995,6.035 -5.635,7.739 -13.415,12.855 -21.634,17.428 -0.296,6.535 2.115,13.756 -4.723,18.637 C -12.673,6.885 -4.673,-1.689 0,0" style="fill:#c32221;fill-opacity:1;fill-rule:nonzero;stroke:none" transform="matrix(1.3333333,0,0,-1.3333333,1148.3299,3320.2517)" />
      <path id="path357" d="m 0,0 c -0.064,-3.169 -0.129,-6.337 -0.195,-9.507 -6.393,-0.141 -12.253,1.099 -17.255,5.559 -2.316,2.065 -6.568,3.93 -7.872,0.658 -1.14,-2.862 1.158,-7.093 1.937,-10.72 -0.013,-1.571 -0.026,-3.143 -0.04,-4.714 -5.896,3.278 -12.115,5.288 -18.962,4.83 -3.375,4.11 -7.07,8.089 -5.763,14.106 4.813,8.05 16.435,7.757 20.465,16.768 4.37,7.944 1.947,16.382 1.861,24.569 -11.595,9.009 -28.272,4.793 -39.34,15.108 -3,4.566 -6,9.133 -9,13.699 13.847,3.03 27.153,3.958 36.776,-9.451 5.76,-3.24 11.816,-5.306 18.553,-4.658 7.63,7.132 14.715,17.591 25.723,4.224 2.18,-4.34 2.182,-8.79 0.647,-13.303 C -2.024,32.588 -3.693,16.725 0,0" style="fill:#a12024;fill-opacity:1;fill-rule:nonzero;stroke:none" transform="matrix(1.3333333,0,0,-1.3333333,1154.6923,3470.2532)" />
      <path id="path358" d="m 0,0 c -9.474,6.805 -15.11,-6.103 -23.556,-4.586 0.972,12.852 -15.056,23.753 -4.323,37.727 2.982,-1.568 5.961,-3.14 8.939,-4.709 C -3.002,37.344 -0.826,22.939 4.819,14.408 4.83,10.144 5.201,5.811 2.454,2.073 1.644,1.377 0.822,0.689 0,0" style="fill:#a92124;fill-opacity:1;fill-rule:nonzero;stroke:none" transform="matrix(1.3333333,0,0,-1.3333333,1160.988,3389.1436)" />
      <path id="path359" d="m 0,0 c -12.264,3.15 -24.528,6.299 -36.784,9.45 -1.839,1.619 -3.686,3.236 -5.533,4.856 1.571,1.487 3.143,2.971 4.714,4.457 6.266,-3.41 12.201,-4.364 19.8,-2.644 C -6.13,18.761 -1.845,9.972 0,0" style="fill:#a92124;fill-opacity:1;fill-rule:nonzero;stroke:none" transform="matrix(1.3333333,0,0,-1.3333333,1104.8412,3389.0468)" />
      <path id="path360" d="m 0,0 c 4.627,-0.003 9.255,-0.006 13.881,-0.01 0.091,-1.523 0.221,-3.042 0.395,-4.557 -0.153,-3.086 -0.308,-6.171 -0.466,-9.255 C 7.556,-10.862 2.998,-6.211 0,0" style="fill:#d52721;fill-opacity:1;fill-rule:nonzero;stroke:none" transform="matrix(1.3333333,0,0,-1.3333333,1036.1727,3339.2435)" />
      <path id="path369" d="m 0,0 c 14.87,6.495 14.026,19.733 13.998,32.62 -0.944,13.862 1.276,14.888 16.977,7.855 0.709,-0.999 1.409,-2.01 2.109,-3.021 C 29.064,14.534 48.254,17.1 61.427,12.15 57.455,9.436 53.89,7 47.647,2.735 59.171,-1.732 74.572,1.902 75.04,-14.334 74.902,-15.89 74.762,-17.445 74.622,-19 c -13.594,1.182 -25.267,10.019 -39.179,9.768 -3.38,0.699 -7.043,2.817 -9.347,-1.973 -1.343,-3.721 -3.912,-6.407 -6.907,-8.763 -1.963,-0.769 -3.653,-0.421 -5.036,1.203 C 12.259,-10.38 10.847,-1.632 0,0" style="fill:#941f23;fill-opacity:1;fill-rule:nonzero;stroke:none" transform="matrix(1.3333333,0,0,-1.3333333,1160.9253,3569.866)" />
      <path id="path370" d="m 0,0 c -9.489,5.633 -23.696,7.344 -24.537,20.92 -0.445,7.191 13.417,10.676 10.488,21.233 C -0.358,34.895 16.634,30.469 14.115,9.31 10.685,4.273 10.384,-5.507 0,0" style="fill:#a82024;fill-opacity:1;fill-rule:nonzero;stroke:none" transform="matrix(1.3333333,0,0,-1.3333333,1217.0784,3657.4819)" />
      <path id="path371" d="m 0,0 c 15.919,1.017 31.561,1.211 41.931,-14.178 0.165,-1.502 0.24,-3.009 0.222,-4.52 -17.348,-17.97 -31.853,-4.436 -46.797,4.225 -2.99,-1.252 -5.979,-2.504 -8.969,-3.755 -1.198,0.577 -1.71,1.3 -1.537,2.17 0.187,0.941 0.444,1.413 0.775,1.413 1.724,3.253 3.447,6.507 5.171,9.76 C -7.626,-0.449 -5.073,2.151 0,0" style="fill:#79191d;fill-opacity:1;fill-rule:nonzero;stroke:none" transform="matrix(1.3333333,0,0,-1.3333333,1204.5177,3576.2941)" />
      <path id="path372" d="M 0,0 C 15.673,-0.592 30.394,-11.717 46.797,-4.225 47.671,-19.195 31.137,-24.308 28.178,-37.107 26.103,-19.889 3.634,-20.16 0.015,-4.265 0.017,-2.843 0.012,-1.421 0,0" style="fill:#b02224;fill-opacity:1;fill-rule:nonzero;stroke:none" transform="matrix(1.3333333,0,0,-1.3333333,1198.3261,3595.5919)" />
      <path id="path373" d="m 0,0 c 0.194,-1.435 0.326,-2.876 0.394,-4.323 -12.477,-10.925 -24.954,-21.852 -37.432,-32.778 -0.994,0.592 -1.987,1.184 -2.996,1.762 -8.253,11.05 -12.504,22.453 -3.053,35.066 2.842,3.602 6.409,6.484 9.265,10.177 4.817,6.226 6.859,17.827 17.616,15.025 9.643,-2.511 1.271,-14.396 7.155,-19.963 C -6.034,3.311 -3.017,1.655 0,0" style="fill:#9c2024;fill-opacity:1;fill-rule:nonzero;stroke:none" transform="matrix(1.3333333,0,0,-1.3333333,1260.3132,3383.2579)" />
      <path id="path374" d="m 0,0 c -3.132,-2.124 -6.179,-5.937 -9.41,-6.099 -20.668,-1.034 -8.085,-10.113 -4.45,-17.074 -0.806,-0.768 -1.612,-1.536 -2.416,-2.311 -13.212,-4.001 -17.673,5.808 -22.886,14.454 -0.722,2.043 -1.063,4.173 -1.109,6.338 2.147,7.984 -1.362,16.584 2.488,24.419 11.311,5.808 12.852,-6.629 19.118,-10.254 0,0 0.096,0.092 0.097,0.092 C -14.63,2.007 -3.917,7.599 0,0" style="fill:#c32220;fill-opacity:1;fill-rule:nonzero;stroke:none" transform="matrix(1.3333333,0,0,-1.3333333,1235.6865,3445.4809)" />
      <path id="path375" d="m 0,0 c -0.346,1.305 -0.682,2.612 -1.012,3.921 0.795,5.754 3.697,9.325 9.867,9.503 5.025,3.489 10.426,1.878 15.766,1.214 5.98,-1.568 11.689,-5.778 18.238,-1.815 5.081,3.805 5.657,12.192 13.465,13.232 4.923,0.173 8.821,-1.351 10.602,-6.39 C 62.293,-12.262 61.964,-12.496 26.23,-9.402 18.795,-8.128 10.939,-8.892 3.997,-5.042 2.188,-3.744 0.838,-2.073 0,0" style="fill:#691417;fill-opacity:1;fill-rule:nonzero;stroke:none" transform="matrix(1.3333333,0,0,-1.3333333,843.24987,3350.8091)" />
      <path id="path376" d="m 0,0 c -4.749,1.458 -9.498,2.916 -14.247,4.375 -1.676,1.589 -3.352,3.178 -5.027,4.767 -3.358,3.715 -5.999,7.686 -4.65,13.075 -0.442,14.298 6.582,16.799 16.431,8.517 C -0.682,25.005 3.69,16.377 9.153,9.044 7.243,4.875 3.785,2.272 0,0" style="fill:#911e22;fill-opacity:1;fill-rule:nonzero;stroke:none" transform="matrix(1.3333333,0,0,-1.3333333,874.05213,3338.7436)" />
      <path id="path377" d="m 0,0 c 7.749,-10.832 15.499,-21.663 23.248,-32.495 -2.313,-2.622 -5.292,-3.469 -8.653,-3.277 -14.676,8.678 -7.448,-13.499 -17.004,-12.083 -11.481,5.685 -1.349,17.466 -7.033,24.779 -1.587,4.662 -3.175,9.323 -4.762,13.985 -3.172,8.383 -7.136,17.264 8.635,13.753 C -3.713,3.108 -1.856,1.554 0,0" style="fill:#861c21;fill-opacity:1;fill-rule:nonzero;stroke:none" transform="matrix(1.3333333,0,0,-1.3333333,905.17053,3245.9443)" />
      <path id="path378" d="M 0,0 V 28.941 C 11.554,27.992 7.478,16.696 14.05,14.038 18.765,10.974 22.879,7.59 20.999,1.007 18.982,-4.529 12.553,-5.118 9.359,-9.349 6.127,-13.96 2.895,-18.57 -0.337,-23.181 c -2.787,4.688 -2.929,9.307 0.359,13.837 0.093,1.558 0.088,3.116 -0.014,4.674 -1.63,1.035 -2.173,2.071 -1.634,3.111 C -1.088,-0.521 -0.548,0 0,0" style="fill:#6f161a;fill-opacity:1;fill-rule:nonzero;stroke:none" transform="matrix(1.3333333,0,0,-1.3333333,904.96587,3307.9992)" />
      <path id="path379" d="M 0,0 C 0.075,-1.557 0.078,-3.113 0.008,-4.67 -19.765,-0.801 -13.5,11.671 -9.289,23.465 -0.768,17.79 -8.657,5.621 0,0" style="fill:#992024;fill-opacity:1;fill-rule:nonzero;stroke:none" transform="matrix(1.3333333,0,0,-1.3333333,904.96587,3307.9992)" />
      <path id="path380" d="m 0,0 c -9.141,-0.652 -8.418,-7.497 -8.635,-13.753 -3.281,1.496 -6.562,2.991 -9.848,4.486 -1.38,11.132 7.04,12.378 14.611,14.481 1.647,1.301 3.029,0.995 4.183,-0.69 C 0.355,3.006 0.251,1.498 0,0" style="fill:#971f24;fill-opacity:1;fill-rule:nonzero;stroke:none" transform="matrix(1.3333333,0,0,-1.3333333,897.74507,3239.7279)" />
      <path id="path381" d="m 0,0 c -0.117,-4.614 -0.234,-9.228 -0.356,-13.839 -7.621,0.041 -15.239,0.08 -22.854,0.121 3.054,3.019 6.105,6.033 9.155,9.048 C -5.817,-13.806 -4.956,-0.739 0,0" style="fill:#992024;fill-opacity:1;fill-rule:nonzero;stroke:none" transform="matrix(1.3333333,0,0,-1.3333333,904.99547,3320.4581)" />
      <path id="path382" d="M 0,0 C 1.552,-4.359 3.105,-8.719 4.654,-13.076 -4.948,-11.579 -7.8,-7.684 0,0" style="fill:#d72521;fill-opacity:1;fill-rule:nonzero;stroke:none" transform="matrix(1.3333333,0,0,-1.3333333,842.15267,3309.1215)" />
      <path id="path385" d="m 0,0 c 10.876,-7.803 26.19,-9.478 32.522,-23.555 -5.249,-4.505 -9.819,-0.603 -14.449,1.29 -10.629,4.347 0.179,-5.99 -4.108,-5.921 h -0.008 c -9.533,-3.468 -18.582,-4.928 -24.665,5.912 -0.802,2.145 -1.002,4.387 -0.724,6.658 2.417,6.132 8.462,9.656 11.325,15.505 z" style="fill:#c32220;fill-opacity:1;fill-rule:nonzero;stroke:none" transform="matrix(1.3333333,0,0,-1.3333333,1217.2071,3476.3777)" />
      <path id="path386" d="m 0,0 c -3.308,2.632 -6.616,5.265 -9.925,7.897 3.387,3.384 7.514,6.014 12.173,4.277 C 7.828,10.096 11.816,4.401 18.559,4.632 18.529,3.035 18.5,1.439 18.469,-0.159 12.311,-0.107 6.155,-0.054 0,0" style="fill:#bc2222;fill-opacity:1;fill-rule:nonzero;stroke:none" transform="matrix(1.3333333,0,0,-1.3333333,1235.8271,3513.9587)" />
      <path id="path388" d="M 0,0 C 5.942,-7.68 13.683,-10.894 23.323,-9.391 16.806,-16.966 8.07,-13.108 0.235,-13.869 0.238,-13.867 -0.229,-14.084 -0.229,-14.084 -3.754,-9.331 -4.255,-4.627 0,0" style="fill:#bc2222;fill-opacity:1;fill-rule:nonzero;stroke:none" transform="matrix(1.3333333,0,0,-1.3333333,1204.7199,3501.4373)" />
      <path id="path389" d="m 0,0 c -0.157,-3.398 -1.5,-6.264 -5.216,-6.023 -3.23,0.21 -5.908,2.59 -5.398,6.011 0.261,1.749 2.581,3.948 4.423,4.543 C -2.724,5.65 -0.437,3.752 0,0" style="fill:#70161a;fill-opacity:1;fill-rule:nonzero;stroke:none" transform="matrix(1.3333333,0,0,-1.3333333,1253.9515,3528.6839)" />
      <path id="path399" d="m 0,0 c 7.359,2.763 8.689,7.599 4.881,14.2 0.89,0.893 1.78,1.785 2.665,2.69 18.069,4.623 33.065,3.263 37.2,-19.181 C 43.879,-4.822 42.263,-6.72 39.924,-8.018 28.655,-12.065 17.281,-11.789 5.835,-8.803 2.21,-6.991 -0.656,-4.655 0,0" style="fill:#cb2320;fill-opacity:1;fill-rule:nonzero;stroke:none" transform="matrix(1.3333333,0,0,-1.3333333,873.49693,3476.7465)" />
      <path id="path400" d="m 0,0 c -12.264,1.658 -8.438,11.331 -9.299,18.669 -0.831,8.824 4.64,7.068 9.81,5.84 C 3.563,21.706 4.86,18.096 5.355,14.099 5.606,8.631 4.583,3.635 0,0" style="fill:#d82721;fill-opacity:1;fill-rule:nonzero;stroke:none" transform="matrix(1.3333333,0,0,-1.3333333,867.4376,3445.2172)" />
      <path id="path401" d="m 0,0 c -3.841,-0.094 -7.256,-1.047 -9.357,-4.646 -6.98,4.552 -1.513,9.195 -0.104,13.805 5.227,3.116 0.752,6.377 0.14,9.581 3.699,3.161 7.342,2.689 10.958,-0.167 C 5.617,11.983 5.716,5.734 0,0" style="fill:#cb2320;fill-opacity:1;fill-rule:nonzero;stroke:none" transform="matrix(1.3333333,0,0,-1.3333333,867.51573,3414.1311)" />
      <path id="path402" d="m 0,0 c 1.633,-1.501 3.265,-3.003 4.898,-4.504 4.842,-6.043 1.924,-10.43 -3.048,-14.382 -2.067,-0.976 -4.238,-1.185 -6.471,-0.742 -4.054,4.3 -0.005,11.001 -4.472,15.191 -0.109,1.4 -0.267,2.794 -0.478,4.179 C -6.383,-0.175 -3.191,-0.087 0,0" style="fill:#b52123;fill-opacity:1;fill-rule:nonzero;stroke:none" transform="matrix(1.3333333,0,0,-1.3333333,873.4968,3476.7465)" />
      <path id="path403" d="m 0,0 c 0.065,4.675 0.13,9.35 0.196,14.024 14.161,-3.41 11.969,-13.31 9.286,-23.404 0,0 -0.056,-0.066 -0.057,-0.066 C 3.405,-9.17 0.333,-5.951 0,0" style="fill:#cb2320;fill-opacity:1;fill-rule:nonzero;stroke:none" transform="matrix(1.3333333,0,0,-1.3333333,867.4376,3445.2172)" />
      <path id="path404" d="m 0,0 c 3.159,0.022 6.318,0.045 9.477,0.067 0.044,-3.094 0.089,-6.188 0.134,-9.282 2.704,-2.591 4.671,-5.529 4.456,-9.491 -11.276,-22.646 2.55,-35.187 18.819,-46.743 -0.011,-1.566 -0.022,-3.132 -0.034,-4.698 -7.813,-10.81 -19.946,3.99 -28.11,-4.741 C -8.034,-64.487 -31.899,-58.63 -6.111,-35.432 0.887,-29.137 -1.773,-12.104 0,0" style="fill:#b92123;fill-opacity:1;fill-rule:nonzero;stroke:none" transform="matrix(1.3333333,0,0,-1.3333333,1167.0257,3039.6923)" />
      <path id="path405" d="M 0,0 C -2.919,5.947 -3.523,12.4 2.789,15.673 9.094,18.943 8.611,11.087 11.242,8.268 16.043,3.125 22.37,5.352 28.11,4.74 27.521,-5.524 27.234,-15.97 14.058,-18.684 10.913,-15.57 7.768,-12.456 4.622,-9.343 3.081,-6.229 1.54,-3.114 0,0" style="fill:#bf2221;fill-opacity:1;fill-rule:nonzero;stroke:none" transform="matrix(1.3333333,0,0,-1.3333333,1173.3491,3139.5424)" />
      <path id="path406" d="M 0,0 C -0.875,10.225 3.7,14.99 14.023,13.996 18.73,3.597 9.398,-0.493 4.154,-5.459 1.594,-7.883 0.523,-2.689 0,0" style="fill:#b92022;fill-opacity:1;fill-rule:nonzero;stroke:none" transform="matrix(1.3333333,0,0,-1.3333333,1229.5477,3158.1676)" />
      <path id="path407" d="m 0,0 c -5.73,3.004 -3.213,9.79 -6.601,14.429 -7.162,-8.101 -8.427,-21.399 -21.453,-23.764 -8.664,2.705 -13.756,7.581 -10.713,17.314 0.632,1.048 2.69,2.182 2.61,2.61 -0.307,1.66 -0.464,1.127 -1.052,-0.944 -0.843,-2.965 0.268,1.217 -1.473,-1.578 -5.961,-6.765 -8.016,-20.035 -21.909,-12.563 0.01,6.262 0.02,12.525 0.03,18.788 13.283,11.3 3.068,25.667 4.909,38.468 1.272,8.85 -6.172,17.667 -0.548,26.727 0,0 0.184,0.454 0.185,0.458 26.795,4.244 48.505,-4.365 65.113,-25.802 4.03,-5.203 8.826,-5.697 14.311,-2.57 0.737,-0.84 1.474,-1.681 2.213,-2.521 C 25.998,33.711 21.407,26.614 6.077,37.208 1.396,39.737 -4.607,43.139 -7.664,37.184 -10.743,31.185 -2.075,33.754 0.189,30.395 3.242,25.866 5.279,21.37 5.752,16.012 5.789,9.967 5.203,4.145 0,0" style="fill:#a32024;fill-opacity:1;fill-rule:nonzero;stroke:none" transform="matrix(1.3333333,0,0,-1.3333333,917.4596,3139.5339)" />
      <path id="path408" d="m 0,0 c -6.183,-3.204 -16.758,2.472 -18.724,-9.26 2.996,-5.408 3.786,-9.722 -4.685,-9.436 0,0 -0.053,0.043 -0.053,0.043 0.629,6.992 -2.199,13.063 -4.703,19.353 -4.384,11.014 4.464,7.883 9.65,8.547 C -14.425,1.991 -3.962,7.503 0,0" style="fill:#a32024;fill-opacity:1;fill-rule:nonzero;stroke:none" transform="matrix(1.3333333,0,0,-1.3333333,979.95533,3045.8989)" />
      <path id="path421" d="m 0,0 c 5.435,-3.477 4.458,-9.026 4.595,-14.216 8.61,-9.047 9.051,-21.428 13.246,-32.308 0.502,-2.438 0.55,-4.876 0.235,-7.339 -2.148,-6.685 -5.212,-11.638 -13.284,-6.883 0.296,7.975 -6.81,12.16 -9.523,18.595 C -3.381,-28.075 2.049,-14.457 0,0" style="fill:#982023;fill-opacity:1;fill-rule:nonzero;stroke:none" transform="matrix(1.3333333,0,0,-1.3333333,861.37293,3482.6629)" />
      <path id="path428" d="m 0,0 c 9.894,-15.665 3.154,-31.277 -0.148,-46.9 -2.845,0.033 -5.69,0.067 -8.529,0.101 -4.054,1.556 -5.354,4.899 -5.72,8.846 -5.389,12.356 -11.018,24.643 -11.073,38.541 0.418,9.558 -1.494,19.679 6.569,27.397 1.582,-0.015 3.164,-0.03 4.746,-0.045 C -7.496,19.61 -5.229,9.054 0,0" style="fill:#d62721;fill-opacity:1;fill-rule:nonzero;stroke:none" transform="matrix(1.3333333,0,0,-1.3333333,961.37707,3651.1212)" />
      <path id="path429" d="m 0,0 c -0.155,1.46 -0.159,2.921 -0.012,4.382 -5.84,10.773 -6.247,23.843 -14.262,33.702 -1.269,1.693 -2.085,3.577 -2.487,5.651 0.329,11.063 8.535,9.948 15.841,10.278 4.202,-0.592 7.971,-2.284 11.497,-4.599 5.403,-3.809 7.955,-9.403 9.654,-15.531 0.644,-1.997 0.959,-4.042 0.958,-6.14 C 20.068,21.737 23.807,15.168 19.071,9.59 15.018,10.952 13.532,18.332 8.634,15.95 1.999,12.723 5.951,5.36 4.685,-0.073 3.122,-0.051 1.561,-0.025 0,0" style="fill:#911e22;fill-opacity:1;fill-rule:nonzero;stroke:none" transform="matrix(1.3333333,0,0,-1.3333333,904.768,3695.1756)" />
      <path id="path430" d="m 0,0 c -0.016,7.791 -0.033,15.581 -0.049,23.372 1.413,1.532 2.874,1.654 4.39,0.148 C 5.891,10.848 7.442,-1.824 8.991,-14.498 0.107,-13.316 -0.125,-6.769 0,0" style="fill:#c82420;fill-opacity:1;fill-rule:nonzero;stroke:none" transform="matrix(1.3333333,0,0,-1.3333333,930.19587,3682.3895)" />
      <path id="path434" d="M 0,0 C 11.461,-1.587 12.596,14.028 23.175,13.911 L 23.164,13.92 C 22.62,5.835 29.819,1.618 32.537,-4.838 c 1.435,-7.455 3.65,-14.578 -4.048,-20.804 -9.093,-7.354 0.333,-11.467 4.004,-16.416 -3.106,-0.073 -6.211,-0.147 -9.315,-0.221 -7.692,-4.319 -15.206,-7.886 -18.929,4.498 10.204,2.239 13.141,13.351 6.241,15.254 C -4.877,-18.289 1.098,-8.403 0,0" style="fill:#9a2024;fill-opacity:1;fill-rule:nonzero;stroke:none" transform="matrix(1.3333333,0,0,-1.3333333,836.67107,3145.5288)" />
      <path id="path435" d="m 0,0 c 2.965,-17.558 6.411,-35.054 8.687,-52.701 1.111,-8.614 0.915,-18.434 -13.052,-12.496 -0.199,6.133 -0.401,12.265 -0.606,18.395 C -2.298,-31.31 -9.547,-14.763 0,0" style="fill:#be2022;fill-opacity:1;fill-rule:nonzero;stroke:none" transform="matrix(1.3333333,0,0,-1.3333333,842.5268,3033.5516)" />
      <path id="path436" d="m 0,0 c 5.171,-6.289 12.41,-3.875 18.928,-4.498 -2.744,-8.931 6.397,-24.97 -13.971,-23.36 -7.898,1.375 -5.417,9.755 -9.328,13.82 -0.18,3.245 -0.359,6.49 -0.542,9.737 C -3.278,-2.867 -1.639,-1.433 0,0" style="fill:#bd2222;fill-opacity:1;fill-rule:nonzero;stroke:none" transform="matrix(1.3333333,0,0,-1.3333333,842.3368,3195.9032)" />
      <path id="path439" d="m 0,0 c -3.098,-0.004 -6.197,-0.007 -9.295,-0.011 -2.231,9.807 -21.987,14.201 -8.879,28.749 1.361,-0.256 2.726,-0.488 4.095,-0.695 2.795,-5.056 7.538,-8.294 11.508,-12.265 2.228,-3.205 3.81,-6.69 4.53,-10.547 C 2.011,3.227 1.349,1.483 0,0" style="fill:#c82426;fill-opacity:1;fill-rule:nonzero;stroke:none" transform="matrix(1.3333333,0,0,-1.3333333,867.48067,3389.1295)" />
      <path id="path441" d="M 0,0 C 3.109,-4.607 6.217,-9.214 9.327,-13.82 8.983,-19.64 6.186,-23.002 0.08,-23.041 0.054,-15.36 0.027,-7.68 0,0" style="fill:#d92823;fill-opacity:1;fill-rule:nonzero;stroke:none" transform="matrix(1.3333333,0,0,-1.3333333,836.5088,3214.6204)" />
      <path id="path442" d="m 0,0 c -7.366,11.35 -0.447,15.756 9.165,18.854 13.34,0.46 26.535,0.735 23.583,-19.015 -0.042,-1.526 -0.021,-3.051 0.067,-4.574 -0.323,-5.137 0.75,-10.751 -4.811,-14.102 l 0.021,0.056 c -4.194,1.772 -7.557,4.361 -8.867,8.971 C 18.782,5.177 9.778,3.341 0,0" style="fill:#911f23;fill-opacity:1;fill-rule:nonzero;stroke:none" transform="matrix(1.3333333,0,0,-1.3333333,1217.2028,3326.5339)" />
      <path id="path443" d="m 0,0 c 1.571,-3.081 3.141,-6.161 4.712,-9.241 -6.798,-4.948 -4.089,-12.296 -4.742,-18.796 -6.179,3.486 -2.993,11.447 -8.678,16.995 -8.879,-7.984 -9.924,-23.719 -24.012,-26.376 -4.393,4.66 -3.291,9.385 -0.166,14.133 0.032,1.519 0.055,3.039 0.067,4.559 1.772,13.858 18.748,8.767 23.528,18.876 C -6.147,2.977 -3.053,2.765 0,0" style="fill:#a32025;fill-opacity:1;fill-rule:nonzero;stroke:none" transform="matrix(1.3333333,0,0,-1.3333333,1248.2859,3339.2545)" />
      <path id="path458" d="m 0,0 c -5.945,-3.869 -12.807,-3.62 -17.862,-1.107 -8.707,4.33 -10.034,14.859 -14.604,22.653 -1.425,2.429 -0.23,6.931 3.834,6.792 7.904,-0.27 11.473,-7.408 16.191,-12.225 C -7.783,11.357 -0.812,8.022 0,0" style="fill:#962024;fill-opacity:1;fill-rule:nonzero;stroke:none" transform="matrix(1.3333333,0,0,-1.3333333,1205.6924,3198.8425)" />
      <path id="path459" d="m 0,0 c -3.097,0.049 -6.195,0.099 -9.291,0.149 -4.674,3.13 -9.349,6.26 -14.022,9.39 4.754,8.938 12.964,12.05 24.973,14.013 C -1.3,15.162 -2.706,7.491 0,0" style="fill:#861c20;fill-opacity:1;fill-rule:nonzero;stroke:none" transform="matrix(1.3333333,0,0,-1.3333333,1248.2859,3339.2545)" />
      <path id="path460" d="m 0,0 c 3.623,2.122 4.534,5.59 4.685,9.436 6.703,-16.446 -6.182,-36.104 8.289,-51.451 0.42,-0.445 -1.685,-4.761 -3.372,-5.475 -19.309,-8.171 -12.534,-22.977 -9.693,-36.82 -21.948,0.834 -17.615,20.404 -23.371,32.781 0.018,6.276 0.037,12.554 0.056,18.831 7.506,6.031 0.3,17.948 9.346,23.362 3.867,-0.861 4.85,-8.845 10.331,-4.88 C 0.926,-10.848 -0.204,-5.039 0,0" style="fill:#a52025;fill-opacity:1;fill-rule:nonzero;stroke:none" transform="matrix(1.3333333,0,0,-1.3333333,948.7432,3070.8273)" />
      <path id="path461" d="M 0,0 C -1.4,0.198 -2.794,0.427 -4.184,0.688 -6.877,6.745 -19.285,3.529 -17.13,14.21 5.881,12.534 6.491,12.026 0,0" style="fill:#d42622;fill-opacity:1;fill-rule:nonzero;stroke:none" transform="matrix(1.3333333,0,0,-1.3333333,898.16027,3233.696)" />
      <path id="path463" d="m 0,0 c 15.537,2.873 29.152,-8.087 44.99,-6.237 3.531,0.413 -2.838,-4.858 -3.37,-7.991 -1.037,-1.799 -2.45,-3.227 -4.213,-4.31 -10.144,-1.997 -16.786,-9.769 -24.879,-15.182 -1.991,-0.6 -4.016,-0.949 -6.094,-1.066 -6.674,3.061 -9.589,7.923 -7.346,15.263 C 19.06,-13.934 -1.595,-6.447 0,0" style="fill:#8a1d21;fill-opacity:1;fill-rule:nonzero;stroke:none" transform="matrix(1.3333333,0,0,-1.3333333,1067.8076,3394.7108)" />
      <path id="path464" d="m 0,0 c 3.299,-4.659 6.598,-9.318 9.896,-13.978 0.999,-0.959 1.274,-1.845 0.828,-2.659 -0.427,-0.776 -0.83,-1.165 -1.214,-1.165 -4.302,0.133 -8.604,0.265 -12.901,0.404 -2.07,4.137 -4.145,8.268 -6.226,12.395 1.933,1.85 3.873,3.704 5.814,5.558 C -2.557,0.219 -1.29,0.033 0,0" style="fill:#de2924;fill-opacity:1;fill-rule:nonzero;stroke:none" transform="matrix(1.3333333,0,0,-1.3333333,1066.5916,3420.7413)" />
      <path id="path465" d="M 0,0 C -9.01,0.119 -13.821,4.701 -14.516,13.657 -8.129,10.75 -3.846,5.607 0,0" style="fill:#b62123;fill-opacity:1;fill-rule:nonzero;stroke:none" transform="matrix(1.3333333,0,0,-1.3333333,1055.2937,3413.7577)" />
      <path id="path466" d="m 0,0 c -1.582,4.651 -3.165,9.303 -4.748,13.954 3.117,0.002 6.235,0.005 9.351,0.008 C 10.8,11.363 13.841,6.637 14.022,-0.015 14.003,-1.641 13.984,-3.268 13.964,-4.894 7.611,-8.108 1.226,-11.414 0,0" style="fill:#7f1b1f;fill-opacity:1;fill-rule:nonzero;stroke:none" transform="matrix(1.3333333,0,0,-1.3333333,930.03053,3307.886)" />
      <path id="path467" d="m 0,0 c -0.049,-3.12 -0.098,-6.24 -0.148,-9.361 -3.092,0.024 -6.183,0.049 -9.274,0.074 -8.542,14.872 -22.516,28.341 -12.39,48.032 4.289,0.297 6.508,-2.14 7.752,-5.864 C -8.6,21.592 2.979,37.395 8.798,27.711 -4.005,21.603 2.902,9.245 0,0" style="fill:#a72124;fill-opacity:1;fill-rule:nonzero;stroke:none" transform="matrix(1.3333333,0,0,-1.3333333,961.2568,3382.9729)" />
      <path id="path468" d="m 0,0 c -1.701,1.419 -3.402,2.838 -5.104,4.257 -1.686,1.499 -4.085,2.408 -4.265,5.154 -2.137,3.597 -5.61,4.45 -9.43,4.59 0.268,6.024 3.427,9.154 9.438,9.433 C -5.988,18.142 -0.56,18.718 4.605,18.542 7.432,11.277 14.555,2.947 0,0" style="fill:#500e0e;fill-opacity:1;fill-rule:nonzero;stroke:none" transform="matrix(1.3333333,0,0,-1.3333333,942.5108,3339.1323)" />
      <path id="path476" d="m 0,0 c 0.192,-1.209 0.445,-2.406 0.76,-3.586 0.248,-3.357 3.759,-8.045 -2.171,-9.236 -5.084,-1.022 -9.397,2.126 -10.341,7.112 -0.981,5.188 3.773,5.727 7.585,6.41 C -2.787,0.413 -1.398,0.179 0,0" style="fill:#cd2421;fill-opacity:1;fill-rule:nonzero;stroke:none" transform="matrix(1.3333333,0,0,-1.3333333,1185.3507,3595.8212)" />
      <path id="path477" d="M 0,0 C 0.539,6.484 -1.97,13.736 4.697,18.68 10.002,15.233 9.312,9.807 9.339,4.618 6.769,1.98 5.279,-2.84 0,0" style="fill:#861c20;fill-opacity:1;fill-rule:nonzero;stroke:none" transform="matrix(1.3333333,0,0,-1.3333333,1148.4531,3601.2344)" />
      <path id="path478" d="M 0,0 C 3.113,1.539 6.226,3.079 9.339,4.618 8.911,-0.867 7.587,-6.283 1.438,-7.415 -3.664,-8.354 -4.013,-3.666 -4.637,0.002 -3.091,-0.016 -1.545,-0.017 0,0" style="fill:#a12024;fill-opacity:1;fill-rule:nonzero;stroke:none" transform="matrix(1.3333333,0,0,-1.3333333,1148.4531,3601.234)" />
      <path id="path479" d="M 0,0 C 3.924,-2.016 4.491,-5.818 5.109,-9.597 4.897,-14.122 4.68,-18.645 4.461,-23.165 -2.993,-16.59 1.075,-7.8 0,0" style="fill:#df2a27;fill-opacity:1;fill-rule:nonzero;stroke:none" transform="matrix(1.3333333,0,0,-1.3333333,1117.222,3601.3232)" />
      <path id="path480" d="M 0,0 C -3.621,2.16 -4.471,5.623 -4.457,9.491 15.557,2.115 33.604,-6.995 32.782,-32.743 24.545,-19.135 5.406,-16.442 0,0" style="fill:#9f2024;fill-opacity:1;fill-rule:nonzero;stroke:none" transform="matrix(1.3333333,0,0,-1.3333333,1185.7811,3064.6339)" />
      <path id="path499" d="M 0,0 C 1.505,-4.609 3.01,-9.219 4.512,-13.827 1.47,-13.878 -1.57,-13.932 -4.609,-13.985 -1.24,-3.549 -24.57,-3.924 -14.077,9.397 -10.009,12.529 -7.011,9.342 -3.74,7.67 -1.536,5.582 -0.108,3.111 0,0" style="fill:#be2022;fill-opacity:1;fill-rule:nonzero;stroke:none" transform="matrix(1.3333333,0,0,-1.3333333,1092.1639,3470.3461)" />
      <path id="path500" d="m 0,0 c -3.028,1.638 -6.056,3.276 -9.084,4.914 1.868,4.16 5.795,4.886 9.629,5.767 2.378,0.875 4.599,0.578 6.669,-0.886 C 9.803,7.075 11.888,3.603 9.464,0.404 7.131,-2.675 3.283,-2.392 0,0" style="fill:#6c1518;fill-opacity:1;fill-rule:nonzero;stroke:none" transform="matrix(1.3333333,0,0,-1.3333333,1085.508,3464.3676)" />
      <path id="path501" d="m 0,0 c -1.5,0.429 -3,0.858 -4.5,1.292 -1.739,1.414 -3.478,2.822 -5.22,4.236 0.148,1.279 0.277,2.555 0.384,3.832 0,-0.002 -0.161,1.049 -0.161,1.049 C -1.607,12.335 6.757,15.132 6.31,1.783 4.82,-0.975 2.716,-1.569 0,0" style="fill:#cb2221;fill-opacity:1;fill-rule:nonzero;stroke:none" transform="matrix(1.3333333,0,0,-1.3333333,1092.2353,3451.8557)" />
      <path id="path502" d="m 0,0 c -0.075,-4.695 -0.151,-9.389 -0.228,-14.084 -6.134,-1.837 -15.917,11.045 -18.619,-4.618 -3.097,4.674 -6.193,9.347 -9.289,14.02 8.501,13.245 -3.526,19.626 -9.385,28.07 -14.577,15.626 -13.131,30.554 4.522,46.658 4.033,-1.543 6.48,-4.832 8.985,-8.078 5.024,-7.756 10.854,-15.25 8.932,-25.445 0.23,-1.279 0.548,-2.537 0.954,-3.773 C -9.645,23.323 -0.776,16.045 -0.346,4.63 -0.443,3.071 -0.327,1.527 0,0" style="fill:#841b20;fill-opacity:1;fill-rule:nonzero;stroke:none" transform="matrix(1.3333333,0,0,-1.3333333,1204.7199,3501.4373)" />
      <path id="path503" d="m 0,0 c -3.828,0.151 -7.275,1.063 -9.357,4.693 -15.869,3.966 -15.869,3.966 -14.026,-9.351 h 0.003 c 2.703,-3.269 2.719,-6.494 -0.156,-9.673 -3.017,3.199 -6.034,6.398 -9.051,9.597 -5.412,18.343 -1.317,37.541 -5.048,56.035 0,0 0.355,0.373 0.357,0.375 6.054,0.09 8.944,3.345 9.225,9.213 5.298,2.729 8.253,7.656 11.517,12.331 2.352,2.44 5.09,3.615 8.507,2.679 C -1.742,72.498 1.331,66.693 3.728,60.362 3.381,40.201 -3.132,20.402 0,0" style="fill:#9d2024;fill-opacity:1;fill-rule:nonzero;stroke:none" transform="matrix(1.3333333,0,0,-1.3333333,917.4648,3632.5617)" />
      <path id="path504" d="m 0,0 c 9.583,-17.966 3.087,-37.38 5.046,-56.033 -5.299,3.7 -5.118,9.343 -4.761,14.731 0.724,10.933 -1.732,5.542 -8.162,3.853 -6.023,-1.582 -9.608,9.367 -9.66,15.926 -0.099,12.334 12.162,0.413 15.991,7.245 C -1.84,-4.662 -14.814,-1.135 -13.833,9.382 -9.222,6.254 -4.611,3.127 0,0" style="fill:#d12522;fill-opacity:1;fill-rule:nonzero;stroke:none" transform="matrix(1.3333333,0,0,-1.3333333,867.28547,3564.1605)" />
      <path id="path505" d="M 0,0 C 0.052,3.224 0.104,6.448 0.156,9.673 11.418,-0.537 16.39,-13.044 14.003,-28.243 3.576,-21.686 0.64,-11.412 0,0" style="fill:#931f23;fill-opacity:1;fill-rule:nonzero;stroke:none" transform="matrix(1.3333333,0,0,-1.3333333,886.08373,3651.6697)" />
      <path id="path508" d="m 0,0 c 1.423,-1.715 2.846,-3.431 4.267,-5.15 -8.288,-17.899 15.107,-29.146 9.74,-46.428 -1.656,-14.201 2.002,-27.798 5.473,-41.245 2.079,-8.054 4.621,-15.16 -5.299,-19.48 -3.483,2.531 -8.72,0.358 -11.663,4.34 -17.719,20.834 -38.38,39.442 -49.497,65.285 -1.644,3.131 -3.287,6.263 -4.93,9.394 -2.046,8.534 4.44,8.576 9.746,9.792 3.63,0.957 8.367,3.886 10.721,2.566 C -6.75,-34.778 -8.564,-9.694 0,0" style="fill:#931e22;fill-opacity:1;fill-rule:nonzero;stroke:none" transform="matrix(1.3333333,0,0,-1.3333333,930.01893,3326.5845)" />
      <path id="path509" d="m 0,0 c 2.952,-10.722 6.001,-21.43 4.614,-32.761 0,0 -0.025,0.024 -0.025,0.024 -7.591,-5.997 -13.349,-3.066 -18.345,3.725 -3.269,7.383 -9.609,14.305 -3.781,23.196 C -12.781,-0.639 -8.385,5.729 0,0" style="fill:#9b2024;fill-opacity:1;fill-rule:nonzero;stroke:none" transform="matrix(1.3333333,0,0,-1.3333333,948.714,3488.9117)" />
      <path id="path510" d="m 0,0 c -7.153,0.591 -9.201,-6.469 -14.031,-9.361 -2.204,2.203 -5.263,1.327 -7.85,2.169 -1.662,1.036 -2.676,2.503 -2.957,4.458 0.936,6.36 7.989,3.73 10.799,7.343 l 0.013,0.009 c 3.13,2.362 1.211,7.231 4.68,9.424 3.168,-1.534 6.335,-3.069 9.504,-4.601 C -4.893,6.38 -0.648,3.159 0,0" style="fill:#b52123;fill-opacity:1;fill-rule:nonzero;stroke:none" transform="matrix(1.3333333,0,0,-1.3333333,948.714,3488.9117)" />
      <path id="path511" d="M 0,0 C 0.582,-9.273 7.238,-9.336 14.001,-9.232 10.679,-27.645 10.6,-47.006 -2.57,-62.471 c -2.071,-2.432 -0.117,-5.713 2.578,-7.695 -0.047,-9.307 -0.094,-18.614 -0.142,-27.919 -1.465,-0.09 -2.929,-0.139 -4.394,-0.146 0.002,10e-4 -0.35,-0.089 -0.35,-0.089 -4.949,21.172 -17.995,41.579 -5.266,64.423 1.652,2.964 -1.315,7.411 -3.91,10.478 -3.104,4.702 -6.207,9.405 -9.311,14.108 -1.991,4.16 -2.868,8.305 0.159,12.41 C -14.085,12.486 -7.272,4.531 0,0" style="fill:#b42123;fill-opacity:1;fill-rule:nonzero;stroke:none" transform="matrix(1.3333333,0,0,-1.3333333,936.16533,3520.2528)" />
      <path id="path512" d="M 0,0 C -10.82,6.223 -15.16,15.728 -14.156,27.941 1.637,24.237 -0.923,11.236 0,0" style="fill:#dd2924;fill-opacity:1;fill-rule:nonzero;stroke:none" transform="matrix(1.3333333,0,0,-1.3333333,961.37707,3651.1212)" />
      <path id="path513" d="M 0,0 C -0.508,9.177 -13.138,18.067 0,30.61 Z" style="fill:#c12321;fill-opacity:1;fill-rule:nonzero;stroke:none" transform="matrix(1.3333333,0,0,-1.3333333,971.49653,3637.2867)" />
      <path id="path514" d="M 0,0 C 2.552,10.997 4.043,17.425 5.676,24.461 12.951,13.617 12.951,13.617 0,0" style="fill:#d92821;fill-opacity:1;fill-rule:nonzero;stroke:none" transform="matrix(1.3333333,0,0,-1.3333333,949.5176,3600.6927)" />
      <path id="path515" d="m 0,0 c -3.678,1.918 -4.564,5.354 -4.936,9.07 0.065,4.723 0.131,9.447 0.198,14.172 0.001,0 -0.024,0.105 -0.024,0.105 5.071,2.62 11.726,2.842 14.205,9.386 6.709,-0.726 12.716,1.335 18.408,4.64 0.054,-4.71 0.109,-9.421 0.164,-14.132 C 21.842,11.231 32.404,1.574 32.622,-9.538 21.232,-16.498 23.423,3.034 14.04,-0.012 9.36,0.304 4.681,1.797 0,0" style="fill:#b52123;fill-opacity:1;fill-rule:nonzero;stroke:none" transform="matrix(1.3333333,0,0,-1.3333333,1167.3044,3420.1325)" />
      <path id="path516" d="m 0,0 c 1.281,-4.148 9.629,-6.24 6.131,-10.615 -6.219,-7.777 -13.583,-1.178 -20.336,1.228 0.123,5.271 -0.503,10.795 4.843,14.301 C -6.241,3.278 -3.12,1.639 0,0" style="fill:#8a1d21;fill-opacity:1;fill-rule:nonzero;stroke:none" transform="matrix(1.3333333,0,0,-1.3333333,1179.8945,3376.4888)" />
      <path id="path521" d="m 0,0 c 1.402,0.19 2.785,0.476 4.147,0.859 7.306,-9.53 7.084,-19.054 -0.034,-28.57 -2.78,-1.3 -5.097,-0.726 -6.965,1.713 C -7.726,-16.695 -7.597,-7.936 0,0" style="fill:#c12121;fill-opacity:1;fill-rule:nonzero;stroke:none" transform="matrix(1.3333333,0,0,-1.3333333,1117.7737,3414.8301)" />
      <path id="path522" d="m 0,0 c 1.421,-0.199 2.844,-0.385 4.267,-0.562 -2.73,-13.09 -14.864,-10.429 -23.321,-13.927 -1.663,1.496 -3.325,2.992 -4.99,4.486 7.278,0.117 8.186,3.662 5.043,9.383 1.418,0.354 2.856,0.571 4.315,0.652 C -9.783,3.427 -4.888,3.461 0,0" style="fill:#841b20;fill-opacity:1;fill-rule:nonzero;stroke:none" transform="matrix(1.3333333,0,0,-1.3333333,1117.5696,3451.0272)" />
      <path id="path523" d="M 0,0 C -3.068,-1.627 -6.137,-3.254 -9.204,-4.883 -12.976,-1.72 -15.97,2.935 -11.468,6.246 -5.212,10.847 -2.774,4.171 0,0" style="fill:#ac2124;fill-opacity:1;fill-rule:nonzero;stroke:none" transform="matrix(1.3333333,0,0,-1.3333333,1204.5177,3576.2941)" />
      <path id="path524" d="m 0,0 c 0.847,4.117 -2.002,10.876 4.312,11.342 6.365,0.469 6.775,-7.198 9.727,-11.355 3.357,-8.302 8.829,-16.695 -1.055,-24.435 C 8.653,-16.304 4.327,-8.152 0,0" style="fill:#cf2522;fill-opacity:1;fill-rule:nonzero;stroke:none" transform="matrix(1.3333333,0,0,-1.3333333,1167.3044,3420.1325)" />
      <path id="path525" d="M 0,0 C -7.416,7.99 -11.675,17.528 -13.782,28.12 -5.266,24.629 -2.8,11.078 9.605,14.054 16.206,2.669 10.95,-0.611 0,0" style="fill:#bc2222;fill-opacity:1;fill-rule:nonzero;stroke:none" transform="matrix(1.3333333,0,0,-1.3333333,1204.2579,3495.2636)" />
      <path id="path526" d="m 0,0 c -3.246,-3.262 -6.492,-6.523 -9.742,-9.789 -5.661,3.147 -8.61,8 -9.077,14.416 C -13.635,-1.344 -4.704,7.925 0,0" style="fill:#9c2023;fill-opacity:1;fill-rule:nonzero;stroke:none" transform="matrix(1.3333333,0,0,-1.3333333,873.80093,3357.9069)" />
      <path id="path529" d="M 0,0 C -0.161,-3.836 -1.024,-7.324 -4.68,-9.424 -9.797,11.529 -26.699,8.97 -42.129,9.348 c -3.096,7.802 -6.193,15.603 -9.288,23.405 -0.044,3.097 -0.09,6.194 -0.135,9.291 -0.009,6.25 -0.017,12.5 -0.026,18.751 0.009,1.413 -0.016,2.826 -0.076,4.234 C -30.548,46.439 -14.535,23.806 0,0" style="fill:#bf2221;fill-opacity:1;fill-rule:nonzero;stroke:none" transform="matrix(1.3333333,0,0,-1.3333333,936.2528,3470.1888)" />
      <path id="path530" d="m 0,0 c -3.135,-3.1 -6.269,-6.2 -9.404,-9.3 -9.552,-5.042 -18.606,-12.207 -30.53,-7.179 -0.765,0.786 -1.525,1.583 -2.285,2.379 1.581,4.704 3.162,9.408 4.743,14.112 C -24.984,0.008 -12.492,0.004 0,0" style="fill:#bf2221;fill-opacity:1;fill-rule:nonzero;stroke:none" transform="matrix(1.3333333,0,0,-1.3333333,929.99587,3482.7669)" />
      <path id="path531" d="m 0,0 c -7.735,9.565 -9.594,20.817 -9.379,32.663 1.551,0.023 3.102,0.037 4.653,0.037 -0.001,-0.001 -0.003,0.005 -0.003,0.005 C 2.718,25.278 6.089,16.504 4.131,5.955 3.385,3.537 1.999,1.554 0,0" style="fill:#9d2024;fill-opacity:1;fill-rule:nonzero;stroke:none" transform="matrix(1.3333333,0,0,-1.3333333,880.006,3545.166)" />
      <path id="path532" d="m 0,0 c -1.912,-8.269 5.387,-20.224 -9.347,-23.362 -0.851,2.839 -1.97,8.205 -2.514,8.148 C -25.921,-16.706 -27.202,-8.7 -22.212,0.549 -15.463,13.056 -7.37,4.307 0,0" style="fill:#ac2124;fill-opacity:1;fill-rule:nonzero;stroke:none" transform="matrix(1.3333333,0,0,-1.3333333,929.99693,3083.2753)" />
      <path id="path533" d="m 0,0 c -0.076,2.297 -0.266,4.597 -0.202,6.89 0.099,3.552 -3.426,7.608 0.661,10.454 1.232,0.857 4.687,0.038 6.105,-1.19 C 10.043,13.144 9.195,9.038 6.9,5.824 5.205,3.451 2.336,1.917 -0.011,0.009 -0.011,0.009 0,0 0,0" style="fill:#9a2024;fill-opacity:1;fill-rule:nonzero;stroke:none" transform="matrix(1.3333333,0,0,-1.3333333,867.57093,3126.9804)" />
      <path id="path535" d="M 0,0 C 0.026,1.579 0.052,3.157 0.078,4.736 4.695,6.547 9.321,6.208 13.951,4.792 13.405,-4.379 10.251,-9.711 0.041,-4.658 0.037,-3.105 0.023,-1.553 0,0" style="fill:#a72025;fill-opacity:1;fill-rule:nonzero;stroke:none" transform="matrix(1.3333333,0,0,-1.3333333,880.006,3545.166)" />
      <path id="path536" d="M 0,0 C 4.332,-2.008 10.224,-6.769 8.276,-9.542 -7.42,-31.874 13.04,-53.18 9.178,-74.9 6.127,-70.204 3.078,-65.508 0.029,-60.812 -16.899,-40.55 0.81,-20.27 0,0" style="fill:#a72025;fill-opacity:1;fill-rule:nonzero;stroke:none" transform="matrix(1.3333333,0,0,-1.3333333,917.42653,3551.4788)" />
      <path id="path537" d="M 0,0 C -6.405,6.277 -5.791,13.148 -1.849,20.811 5.865,20.015 9.261,13.7 14.026,9.352 10.187,4.979 -0.354,10.66 0,0" style="fill:#931f23;fill-opacity:1;fill-rule:nonzero;stroke:none" transform="matrix(1.3333333,0,0,-1.3333333,886.28773,3638.7728)" />
      <path id="path540" d="M 0,0 C -4.893,0.009 -9.786,0.017 -14.683,0.029 -14.55,9.998 -22.556,8.422 -28.497,9.781 -21.54,19.85 -14.134,29.17 0.149,27.153 0.102,18.098 0.051,9.049 0,0" style="fill:#a92125;fill-opacity:1;fill-rule:nonzero;stroke:none" transform="matrix(1.3333333,0,0,-1.3333333,1117.5696,3451.0272)" />
      <path id="path543" d="m 0,0 c -4.613,-2.998 -9.238,-2.954 -13.874,-0.057 -1.601,9.325 -3.203,18.648 -4.806,27.971 11.927,-5.174 20.446,13.002 32.817,4.793 0,0 0.067,-0.098 0.067,-0.098 C 16.723,23.55 6.752,20.784 4.812,13.971 5.337,10.84 9.695,7.707 4.803,4.582 3.202,3.055 1.601,1.527 0,0" style="fill:#b52123;fill-opacity:1;fill-rule:nonzero;stroke:none" transform="matrix(1.3333333,0,0,-1.3333333,898.60773,3538.7768)" />
      <path id="path544" d="m 0,0 c -1.825,8.71 4.229,13.45 9.391,18.639 3.828,-0.07 7.255,-0.956 9.346,-4.573 -5.903,-7.145 4.941,-8.82 4.62,-14.143 C 15.574,0.877 7.806,6.282 0,0" style="fill:#a72025;fill-opacity:1;fill-rule:nonzero;stroke:none" transform="matrix(1.3333333,0,0,-1.3333333,905.02373,3520.1492)" />
      </g></svg>