<?xml version='1.0' encoding='utf-8'?>
<svg xmlns="http://www.w3.org/2000/svg" version="1.1" width="1454.920" height="1454.910" viewBox="873.475 1364.260 1454.920 1454.910"><g id="object"><path id="path3" d="m 0,0 c 0,-293.315 -237.779,-531.093 -531.093,-531.093 -293.315,0 -531.094,237.778 -531.094,531.093 0,293.315 237.779,531.093 531.094,531.093 C -237.779,531.093 0,293.315 0,0" style="fill:#c81939;fill-opacity:1;fill-rule:nonzero;stroke:#3f3b3a;stroke-width:20;stroke-linecap:butt;stroke-linejoin:miter;stroke-miterlimit:10;stroke-dasharray:none;stroke-opacity:1" transform="matrix(1.3333333,0,0,-1.3333333,2309.058,2091.7144)" />
      <path id="path4" d="m 0,0 c 0,-235.271 -190.725,-425.996 -425.996,-425.996 -235.27,0 -425.995,190.725 -425.995,425.996 0,235.271 190.725,425.996 425.995,425.996 C -190.725,425.996 0,235.271 0,0" style="fill:#c81939;fill-opacity:1;fill-rule:nonzero;stroke:#3f3b3a;stroke-width:20;stroke-linecap:butt;stroke-linejoin:miter;stroke-miterlimit:10;stroke-dasharray:none;stroke-opacity:1" transform="matrix(1.3333333,0,0,-1.3333333,2168.9276,2091.7144)" />
      <path id="path13" d="m 0,0 c 0,-69.71 -56.511,-126.221 -126.221,-126.221 -69.71,0 -126.221,56.511 -126.221,126.221 0,69.71 56.511,126.221 126.221,126.221 C -56.511,126.221 0,69.71 0,0" style="fill:#c81939;fill-opacity:1;fill-rule:nonzero;stroke:#ffffff;stroke-width:20;stroke-linecap:butt;stroke-linejoin:miter;stroke-miterlimit:10;stroke-dasharray:none;stroke-opacity:1" transform="matrix(1.3333333,0,0,-1.3333333,1769.228,2091.7144)" />
      <path id="path14" d="m 0,0 c 0,-156.847 -127.15,-283.997 -283.997,-283.997 -156.847,0 -283.997,127.15 -283.997,283.997 0,156.847 127.15,283.997 283.997,283.997 C -127.15,283.997 0,156.847 0,0" style="fill:#c81939;fill-opacity:1;fill-rule:nonzero;stroke:#3f3b3a;stroke-width:20;stroke-linecap:butt;stroke-linejoin:miter;stroke-miterlimit:10;stroke-dasharray:none;stroke-opacity:1" transform="matrix(1.3333333,0,0,-1.3333333,1979.5961,2091.7144)" />
      <path id="path15" d="m 0,0 c 0,-104.565 -84.767,-189.331 -189.331,-189.331 -104.565,0 -189.332,84.766 -189.332,189.331 0,104.565 84.767,189.331 189.332,189.331 C -84.767,189.331 0,104.565 0,0" style="fill:#c81939;fill-opacity:1;fill-rule:nonzero;stroke:#3f3b3a;stroke-width:20;stroke-linecap:butt;stroke-linejoin:miter;stroke-miterlimit:10;stroke-dasharray:none;stroke-opacity:1" transform="matrix(1.3333333,0,0,-1.3333333,1853.3753,2091.7144)" />
    </g></svg>