<?xml version='1.0' encoding='utf-8'?>
<svg xmlns="http://www.w3.org/2000/svg" version="1.1" width="331.081" height="718.478" viewBox="2108.720 3020.170 331.081 718.478"><g id="object"><path id="path18" d="m 0,0 c 15.529,-0.015 31.058,-0.031 46.587,-0.046 1.386,-1.536 2.304,-3.307 2.726,-5.34 -0.599,-12.697 7.848,-22.98 9.432,-35.112 -13.311,-12.055 -17.067,-11.039 -24.311,6.019 -0.381,-13.337 10.426,-17.942 20.299,-23.342 1.814,-5.335 3.157,-10.895 6.991,-15.397 -6.365,-9.086 -6.147,-19.994 -8.572,-30.164 -2.656,-5.262 -6.574,-9.208 -12.016,-11.585 -7.149,-2.271 -13.709,-0.871 -19.826,3.201 -1.782,1.399 -3.141,3.16 -4.089,5.22 16.23,19.1 15.756,24.741 -4.04,47.218 -1.541,1.72 -2.82,3.593 -3.928,5.61 C 4.26,-36.14 -3.271,-18.994 0,0" style="fill:#ac2124;fill-opacity:1;fill-rule:nonzero;stroke:none" transform="matrix(1.3333333,0,0,-1.3333333,2153.7517,3027.7627)" />
      <path id="path29" d="m 0,0 c 11.092,-16.9 9.653,-36.911 13.792,-55.538 -1.353,-20.456 -7.272,-21.943 -29.404,-7.628 -4.616,-5.072 -1.204,-10.916 -1.631,-16.267 -0.494,-6.183 0.151,-12.441 0.166,-18.724 -0.496,-10.057 2.385,-20.979 -7.625,-28.421 -8.97,35.868 -1.677,72.23 -3.294,108.322 3.37,1.554 4.64,-0.942 6.061,-3.145 -0.114,5.039 -2.185,9.149 -5.917,12.47 C -23.347,8.95 -9.3,-2.928 0,0" style="fill:#7f1a1e;fill-opacity:1;fill-rule:nonzero;stroke:none" transform="matrix(1.3333333,0,0,-1.3333333,2153.7517,3027.7627)" />
      <path id="path31" d="m 0,0 c -0.175,-10.712 -0.35,-21.424 -0.525,-32.137 -6.918,-5.645 -16.111,-3.804 -23.968,-7.023 0.282,-9.268 8.243,-12.337 13.451,-17.495 8.764,-6.93 3.135,-19.473 10.539,-26.947 l 0.314,0.309 c 8.173,-14.889 -4.926,-12.888 -12.31,-15.452 -11.218,11.912 -18.467,28.608 -37.582,30.782 -7.115,0.503 -14.144,-1.378 -21.273,-0.918 -2.044,0.297 -4.006,0.88 -5.903,1.697 -4.46,2.598 -9.045,5.13 -8.716,11.397 2.017,3.784 5.501,5.659 9.283,7.139 1.82,0.608 3.709,1.008 5.598,1.312 3.695,0.714 7.252,2.002 10.829,3.039 8.695,14.544 -7.709,19.271 -11.334,28.967 -3.164,5.215 -4.024,10.532 -0.728,16.026 2.659,2.47 5.81,3.096 9.287,2.459 10.248,-5.358 16.065,-16.284 26.631,-21.228 7.396,-3.288 14.626,-4.136 21.458,1.34 6.797,8.062 -1.775,18.419 4.004,26.601 5.051,2.93 8.371,0.325 11.309,-3.525 C 1.398,4.16 1.334,2.043 0,0" style="fill:#9a2024;fill-opacity:1;fill-rule:nonzero;stroke:none" transform="matrix(1.3333333,0,0,-1.3333333,2297.5552,3471.11)" />
      <path id="path33" d="m 0,0 c -9.696,9.086 -14.455,19.562 -9.249,32.844 1.557,1.739 3.394,2.117 5.496,1.151 8.095,-2.756 12.441,-17.271 24.477,-7.789 9.207,2.515 14.357,-1.704 17.031,-10.463 7.722,5.706 8.838,17.155 18.471,20.957 6.206,0.086 12.413,0.172 18.619,0.258 1.362,-1.922 1.538,-3.909 0.363,-5.98 C 61.133,15.145 65.819,-5.198 62.149,-23.546 59.861,-26.13 56.898,-27.392 53.576,-27.96 44.974,-28.542 36.617,-26.093 28.057,-25.847 18.905,-24.328 16.214,-13.89 7.842,-11.298 1.627,-10.036 3.594,-3.103 0,0" style="fill:#cc2520;fill-opacity:1;fill-rule:nonzero;stroke:none" transform="matrix(1.3333333,0,0,-1.3333333,2228.0431,3077.1423)" />
      <path id="path38" d="m 0,0 c 4.708,-0.022 9.415,-0.044 14.123,-0.066 17.993,0.18 22.055,-16.494 30.525,-26.933 8.294,2.645 2.335,16.631 12.771,14.249 9.8,-2.237 5.174,-11.509 5.571,-17.714 0.691,-10.782 0.197,-21.64 0.192,-32.463 0.025,-2.121 -0.144,-4.23 -0.499,-6.323 -1.837,-3.908 -4.571,-7.097 -7.879,-9.84 -1.774,-1.254 -3.757,-1.906 -5.928,-2.008 -5.565,0.969 -9.434,4.672 -13.37,8.285 -7.621,4.481 -13.868,10.495 -16.957,18.759 C 11.878,-36.213 4.526,-18.584 0,0" style="fill:#8e1e22;fill-opacity:1;fill-rule:nonzero;stroke:none" transform="matrix(1.3333333,0,0,-1.3333333,2334.2581,3027.3996)" />
      <path id="path41" d="m 0,0 c -1.531,-0.087 -3.062,-0.256 -4.593,-0.25 -58.979,0.203 -58.979,0.205 -55.792,61.088 2.005,1.154 3.896,0.931 5.694,-0.459 3.446,-4.099 3.886,-9.478 6.096,-14.069 9.764,-9.074 24.457,-3.016 34.438,-11.235 3.445,-2.605 5.679,-6.152 7.703,-9.863 C -3.45,18.739 0.09,12.476 1.953,5.499 2.121,3.381 1.502,1.531 0,0" style="fill:#831c20;fill-opacity:1;fill-rule:nonzero;stroke:none" transform="matrix(1.3333333,0,0,-1.3333333,2197.1165,3732.0839)" />
      <path id="path49" d="m 0,0 c 4.714,-0.031 9.428,-0.063 14.142,-0.094 20.392,-15.834 32.386,-59.073 22.215,-82.846 -5.892,-13.771 -13.027,-4.72 -19.583,0.075 -5.912,7.511 -8.392,16.36 -9.91,25.576 -1.501,10.797 -4.763,21.118 -8.771,31.218 C -5.49,-17.043 -7.462,-8.193 0,0" style="fill:#bf2121;fill-opacity:1;fill-rule:nonzero;stroke:none" transform="matrix(1.3333333,0,0,-1.3333333,2377.9703,3595.0436)" />
      <path id="path51" d="m 0,0 c 1.147,29.634 -4.847,59.519 3.12,88.914 0.987,-0.561 1.973,-1.122 2.97,-1.67 5.702,-7.733 4.05,-16.8 4.684,-25.356 8.613,-6.457 10.339,-1.74 8.372,5.772 -1.536,5.868 -5.572,11.171 -1.682,17.495 1.758,1.45 3.75,2.382 5.956,2.917 6.125,0.724 11.083,-1.565 15.276,-5.843 7.307,-7.922 7.429,-20.386 17.021,-26.89 C 69.7,41.656 69.258,40.268 49,33.988 41.339,34.835 33.516,37.64 26.31,32.247 20.9,28.696 13.684,27.454 11.254,20.156 8.962,12.592 12.293,1.899 0,0" style="fill:#7d1a1e;fill-opacity:1;fill-rule:nonzero;stroke:none" transform="matrix(1.3333333,0,0,-1.3333333,2116.3109,3326.81)" />
      <path id="path52" d="m 0,0 c -1.295,0.139 -2.587,0.299 -3.873,0.48 0.134,67.045 0.266,134.088 0.397,201.132 2.218,1.074 4.158,0.643 5.875,-1.074 1.257,-1.892 2.182,-3.932 2.788,-6.123 0.995,-4.419 1.233,-8.913 1.313,-13.424 0.05,-5.575 0.33,-11.15 0.305,-16.727 -1.091,-12.292 0.87,-24.047 6.216,-35.218 0.596,-2.2 0.857,-4.439 0.889,-6.711 -0.446,-6.689 -2.699,-13.158 -2.394,-19.942 C 10.286,93.51 14.821,84.832 12.533,75.909 11.171,68.923 0.72,68.228 2.604,60.798 c -3.627,-2.964 2.833,-2.539 0.198,-0.866 -1.261,0.801 -1.091,1.327 0.265,2.042 0.48,0.253 0.381,1.81 0.803,1.94 C 17.8,68.22 15.335,54.052 20.865,48.809 21.372,46.613 21.348,44.418 20.856,42.222 18.581,37.033 13.879,33.875 10.451,29.663 3.1,21.135 10.217,7.478 0,0" style="fill:#a31f24;fill-opacity:1;fill-rule:nonzero;stroke:none" transform="matrix(1.3333333,0,0,-1.3333333,2121.7632,3651.6084)" />
      <path id="path54" d="m 0,0 c 1.197,-32.489 1.197,-32.493 -30.349,-32.64 -6.851,-0.032 -13.703,-0.022 -20.554,-0.032 -4.181,4.455 -9.979,7.506 -12.473,13.4 -3.26,7.704 -8.267,16.028 -1.969,23.82 5.86,7.25 13.926,4.136 21.242,1.307 3.094,-1.471 5.742,-3.717 8.766,-5.308 8.287,-0.88 11.649,-13.079 21.889,-9.547 l -0.213,-0.101 c 2.631,1.412 11.891,-5.639 7.028,5.538 -0.411,0.945 1.221,2.481 2.328,3.491 l 0.36,0.879 C -2.234,2.471 -0.9,2.296 0,0" style="fill:#9d1f22;fill-opacity:1;fill-rule:nonzero;stroke:none" transform="matrix(1.3333333,0,0,-1.3333333,2420.9941,3121.0488)" />
      <path id="path58" d="m 0,0 c 12.504,-0.067 25.008,-0.134 37.511,-0.202 2.808,-2.081 6.23,-3.434 8.021,-6.733 3.307,-9.224 3.995,-18.146 -3.114,-26.102 -12.151,-4.069 -8.408,-23.871 -24.14,-24.495 -7.097,3.056 -10.177,9.344 -12.949,15.91 C 2.766,-27.857 -5.11,-14.75 0,0" style="fill:#b42023;fill-opacity:1;fill-rule:nonzero;stroke:none" transform="matrix(1.3333333,0,0,-1.3333333,2303.1153,3594.9012)" />
      <path id="path64" d="m 0,0 c -1.34,0.148 -2.657,0.412 -3.948,0.801 0.003,17.549 0.003,35.091 0.003,55.862 -10.558,-8.799 2.277,-23.196 -10.429,-24.152 -9.452,-0.711 -16.423,8.704 -19.148,17.928 -2.872,9.723 -9.124,15.355 -17.408,19.734 C 0.459,70.874 0.479,70.874 0.484,20.74 0.484,13.826 0.169,6.913 0,0" style="fill:#7c1a1e;fill-opacity:1;fill-rule:nonzero;stroke:none" transform="matrix(1.3333333,0,0,-1.3333333,2420.9941,3121.0488)" />
      <path id="path67" d="m 0,0 c 0.28,-6.725 2.684,-13.803 -3.231,-19.502 -1.97,0.347 -3.832,1.001 -5.605,1.929 -8.15,4.081 -16.195,8.32 -22.289,15.403 -6.783,13.363 -22.455,19.463 -27.835,33.986 -0.28,3.466 0.772,6.491 3.023,9.115 12.711,0.09 25.423,0.181 38.135,0.271 -1.693,-11.774 -9.479,-4.67 -13.008,-5.975 C -11.489,37.863 -10.384,20.886 -5.822,7.076 -4.282,4.39 -2.218,2.133 0,0" style="fill:#681417;fill-opacity:1;fill-rule:nonzero;stroke:none" transform="matrix(1.3333333,0,0,-1.3333333,2414.5319,3357.1679)" />
      <path id="path72" d="m 0,0 c -0.129,-12.367 -0.257,-24.735 -0.386,-37.102 -6.583,-5.399 -13.746,-6.611 -21.559,-3.037 -4.302,2.533 -5.691,6.522 -5.494,11.073 -0.53,1.564 4.299,4.837 -1.671,5.189 -1.354,1.088 -2.32,2.321 -3.096,3.827 -1.559,3.682 -2.092,7.469 -2.193,11.369 -0.049,4.271 0.561,8.442 1.491,12.573 3.315,7.414 1.051,14.222 -2.314,20.933 -0.243,6.097 1.599,11.15 7.149,14.355 6.918,-0.142 9.752,-5.252 12.636,-10.314 4.681,-8.963 4.53,-18.399 2.24,-29.012 -0.641,-1.951 3.175,0.143 2.957,0.96 -2.721,10.2 0.688,14.02 10.957,9.069 C 1.874,6.476 1.858,3.17 0,0" style="fill:#bf2221;fill-opacity:1;fill-rule:nonzero;stroke:none" transform="matrix(1.3333333,0,0,-1.3333333,2297.6209,3190.1335)" />
      <path id="path76" d="m 0,0 c -1.546,1.531 -3.092,3.062 -4.637,4.593 6.21,0.031 12.421,0.063 18.63,0.095 -1.639,-20.316 13.32,-36.481 14.054,-56.203 -19.477,-6.064 -6.06,-24.603 -13.336,-35.31 -1.148,-3.408 -2.892,-6.356 -6.205,-8.106 -3.965,0.45 -6.48,2.817 -8.271,6.178 -2.773,20.749 -8.483,41.197 0.894,62.267 C 4.526,-18.852 4.519,-8.66 0,0" style="fill:#cb2320;fill-opacity:1;fill-rule:nonzero;stroke:none" transform="matrix(1.3333333,0,0,-1.3333333,2359.3128,3601.2939)" />
      <path id="path85" d="m 0,0 c -1.558,1.522 -3.116,3.044 -4.674,4.566 -5.808,7.771 -18.014,6.378 -22.703,15.808 -3.174,16.429 -15.2,31.887 -5.543,49.741 0.041,1.405 0.035,2.811 -0.018,4.216 1.606,0.117 3.211,0.234 4.816,0.35 C -18.467,62.687 -10.987,50.024 -8.741,34.099 -6.861,20.773 1.691,10.828 14.006,4.659 10.704,-1.004 4.084,3.309 0,0" style="fill:#af2224;fill-opacity:1;fill-rule:nonzero;stroke:none" transform="matrix(1.3333333,0,0,-1.3333333,2371.7537,3126.9728)" />
      <path id="path90" d="m 0,0 c 1.265,-12.252 -15.139,-18.232 -11.317,-31.594 0.237,-0.83 -2.775,-3.577 -4.475,-3.783 -4.698,-0.569 -7.097,2.839 -7.106,6.898 -0.023,9.908 -3.135,16.328 -14.451,15.31 -8.717,0.705 -16.078,4.843 -23.349,9.212 -1.592,0.033 -3.184,0.067 -4.776,0.101 0.009,1.383 0.048,2.765 0.117,4.146 C -43.571,0.193 -21.786,0.096 0,0" style="fill:#c02321;fill-opacity:1;fill-rule:nonzero;stroke:none" transform="matrix(1.3333333,0,0,-1.3333333,2303.0105,3028.2091)" />
      <path id="path92" d="m 0,0 c 1.754,-1.216 3.509,-2.433 5.263,-3.649 5.226,2.392 8.805,1.705 9.204,-4.924 -46.843,-0.091 -93.686,-0.182 -140.529,-0.272 -0.14,1.32 -0.259,2.64 -0.356,3.963 13.169,12.812 32.826,3.07 46.667,13.506 4.208,1.986 8.536,3.515 13.291,3.102 8.665,-3.159 15.182,-12.049 25.928,-9.765 7.425,-0.082 14.843,-0.185 22.256,0.3 3.226,0.274 6.351,1.245 9.598,1.419 C -5.247,3.729 -2.247,2.742 0,0" style="fill:#9f2024;fill-opacity:1;fill-rule:nonzero;stroke:none" transform="matrix(1.3333333,0,0,-1.3333333,2365.1985,3720.2923)" />
      <path id="path93" d="m 0,0 c 0.522,-10.561 1.044,-21.122 1.566,-31.683 -2.117,-6.707 -7.38,-9.01 -13.711,-9.848 -3.554,-0.225 -6.977,0.368 -10.245,1.779 -8.706,6.805 -16.148,14.704 -20.819,24.909 1.843,12.575 12.108,14.802 21.841,17.702 C -17.07,3.642 -13.54,-14.374 -8.587,2.37 -5.196,3.463 -2.138,3.384 0,0" style="fill:#c22221;fill-opacity:1;fill-rule:nonzero;stroke:none" transform="matrix(1.3333333,0,0,-1.3333333,2295.9265,3259.0972)" />
      <path id="path95" d="M 0,0 C 4.98,1.883 9.96,3.766 14.943,5.651 25.43,5.342 35.916,5.032 46.398,4.718 c 0.062,-2.979 0.126,-5.953 0.191,-8.927 -1.035,-2.874 -1.594,-5.728 -0.961,-8.857 1.456,-7.195 12.708,-14.982 1.695,-21.45 -10.422,-6.121 -20.52,-2.287 -27.038,8.524 -2.696,4.995 -1.555,11.42 -5.888,15.798 C 9.901,-6.363 0.13,-9.9 0,0" style="fill:#981f24;fill-opacity:1;fill-rule:nonzero;stroke:none" transform="matrix(1.3333333,0,0,-1.3333333,2278.0885,3308.8776)" />
      <path id="path96" d="M 0,0 C 5.689,-5.362 17.81,-2.509 18.391,-14.398 11.62,-14.9 4.517,-6.09 -0.913,-11.944 -6.985,-18.491 0.015,-26.19 2.82,-32.769 c 2.045,-4.795 6.44,-8.585 6.272,-14.425 -4.718,0.004 -9.436,0.007 -14.153,0.011 -8.061,4.826 -3.658,26.229 -22.406,16.808 -2.161,-0.209 -4.21,0.184 -6.158,1.134 -5.121,8.133 -2.732,16.166 0.347,24.189 3.203,0.061 6.405,0.121 9.608,0.181 1.842,2.337 4.224,3.815 7.104,4.513 2.753,0.596 5.554,0.811 8.363,0.914 C -5.447,0.779 -2.739,0.188 0,0" style="fill:#c72421;fill-opacity:1;fill-rule:nonzero;stroke:none" transform="matrix(1.3333333,0,0,-1.3333333,2341.0005,3101.6857)" />
      <path id="path102" d="M 0,0 C 7.663,-5.109 13.762,-10.835 14.406,5.909 15.435,32.715 13.75,58.03 -4.677,79.434 -0.066,79.33 4.544,79.227 9.155,79.123 18.903,70.226 21.879,59.235 21.127,46.175 19.988,26.403 21.839,6.54 20.22,-13.259 9.914,-19.814 0.041,-23.533 -7.065,-9.098 -7.009,-4.286 -4.411,-1.438 0,0" style="fill:#d02420;fill-opacity:1;fill-rule:nonzero;stroke:none" transform="matrix(1.3333333,0,0,-1.3333333,2403.0612,3701.0807)" />
      <path id="path104" d="m 0,0 c 0.359,11.107 0.718,22.214 1.078,33.32 1.539,1.607 3.388,2.144 5.551,1.642 10.015,-5.418 21.814,-5.75 31.888,-11.056 1.647,-1.278 3.131,-2.729 4.472,-4.326 1.666,-0.124 3.331,-0.248 4.997,-0.372 C 52.774,11.199 51.587,5.189 42.227,1.895 37.552,1.054 33.067,2.098 28.637,3.351 17.28,9.496 13.518,-11.882 1.721,-4.159 1.138,-2.777 0.564,-1.39 0,0" style="fill:#bb2222;fill-opacity:1;fill-rule:nonzero;stroke:none" transform="matrix(1.3333333,0,0,-1.3333333,2120.8156,3196.5328)" />
      <path id="path108" d="m 0,0 c -0.34,2.005 -0.681,4.01 -1.021,6.015 -5.02,8.175 -7.262,16.537 -1.747,25.435 4.872,5.373 11.263,4.288 17.435,4.108 7.98,-0.498 15.994,-0.317 23.978,-0.379 6.93,0.612 14.531,-2.104 20.34,4.148 16.137,13.374 18.947,12.491 24.868,-7.756 0.091,-1.081 0.18,-2.164 0.27,-3.248 C 68.718,20.652 52.147,23.812 36.312,24.664 16.807,25.714 1.561,23.855 0,0" style="fill:#821b1f;fill-opacity:1;fill-rule:nonzero;stroke:none" transform="matrix(1.3333333,0,0,-1.3333333,2297.5552,3471.11)" />
      <path id="path117" d="M 0,0 C -13.157,3.663 -15.574,15.386 -20.553,27.386 -8.315,26.527 2.55,32.213 14.024,28.052 14.022,20.254 14.021,12.455 14.02,4.657 8.951,4.296 3.121,6.226 0,0" style="fill:#a92025;fill-opacity:1;fill-rule:nonzero;stroke:none" transform="matrix(1.3333333,0,0,-1.3333333,2278.1568,3551.3617)" />
      <path id="path118" d="m 0,0 c -10.531,10.58 -1.2,37.042 -30.199,33.182 7.729,6.313 16.493,1.375 21.071,8.22 4.55,-0.255 9.098,-0.508 13.647,-0.761 C 6.898,26.662 12.008,12.379 0,0" style="fill:#ac2124;fill-opacity:1;fill-rule:nonzero;stroke:none" transform="matrix(1.3333333,0,0,-1.3333333,2402.9652,3357.4319)" />
      <path id="path123" d="M 0,0 C 5.361,-13.621 9.218,-27.576 9.417,-42.345 9.372,-43.471 9.327,-44.598 9.285,-45.726 8.193,-50.95 9.418,-58.089 0.256,-56.661 -9.21,-40.65 -8.575,-21.851 -14.063,-4.74 -15.094,2.919 0.504,-0.714 -4.361,9.549 -2.906,6.367 -1.453,3.183 0,0" style="fill:#921f23;fill-opacity:1;fill-rule:nonzero;stroke:none" transform="matrix(1.3333333,0,0,-1.3333333,2303.1153,3594.9012)" />
      <path id="path124" d="M 0,0 C -1.264,31.377 7.323,63.661 -8.63,93.684 -0.193,94.875 3.058,89.087 3.262,82.694 4.191,53.484 8.262,24.15 1.177,-4.878 0.001,-4.015 -0.565,-3.004 -0.522,-1.846 -0.476,-0.615 -0.302,0 0,0" style="fill:#bb2122;fill-opacity:1;fill-rule:nonzero;stroke:none" transform="matrix(1.3333333,0,0,-1.3333333,2426.7753,3720.4939)" />
      <path id="path126" d="m 0,0 c -2.947,0.109 -5.893,0.219 -8.84,0.328 -5.545,-0.649 -10.285,3.412 -15.852,2.702 -7.329,-1.322 -13.492,0.622 -18.303,6.444 -3.325,9.07 -0.751,15.815 7.952,20.128 7.991,-1.419 7.475,-10.428 12.724,-14.306 7.734,-0.224 15.468,-0.449 23.203,-0.675 C 0.59,9.747 0.295,4.874 0,0" style="fill:#731619;fill-opacity:1;fill-rule:nonzero;stroke:none" transform="matrix(1.3333333,0,0,-1.3333333,2295.9265,3259.0972)" />
      <path id="path127" d="m 0,0 c 0.392,-1.625 0.784,-3.249 1.176,-4.876 -10.232,-7.964 -21.972,-1.948 -32.891,-3.547 -3.07,1.638 -6.14,3.275 -9.207,4.918 -0.089,2.854 -0.18,5.701 -0.272,8.549 5.348,4.962 11.016,8.662 18.624,4.74 C -19.911,-4.699 -7.834,2.544 0,0" style="fill:#df291e;fill-opacity:1;fill-rule:nonzero;stroke:none" transform="matrix(1.3333333,0,0,-1.3333333,2426.7753,3720.4939)" />
      <path id="path130" d="M 0,0 C 12.32,-1.433 9.619,25.972 27.31,14.225 32.207,10.438 24.392,1.707 33.088,-0.646 31.824,-10.711 22.478,-4.744 17.955,-8.331 16.452,-8.728 14.94,-9.087 13.419,-9.41 c -2.333,-2.358 -5.118,-2.919 -8.261,-2.081 -2.984,1.487 -3.863,4.464 -5.088,7.197 0,0 -2.047,-0.341 -2.049,-0.341 C -1.32,-3.09 -0.66,-1.545 0,0" style="fill:#cf2620;fill-opacity:1;fill-rule:nonzero;stroke:none" transform="matrix(1.3333333,0,0,-1.3333333,2123.1101,3202.0784)" />
      <path id="path131" d="M 0,0 C 1.224,6.885 -3.021,14.912 4.004,20.87 12.376,18.204 7.038,7.653 14.02,4.657 14.029,-4.7 14.037,-14.057 14.046,-23.413 2.031,-20.008 7.816,-5.924 0,0" style="fill:#b52023;fill-opacity:1;fill-rule:nonzero;stroke:none" transform="matrix(1.3333333,0,0,-1.3333333,2278.1568,3551.3617)" />
      <path id="path132" d="m 0,0 c 3.475,6.762 8.933,11.323 16.194,7.326 10.737,-5.908 6.603,-17.001 7.069,-26.339 -3.056,0.014 -6.111,0.028 -9.166,0.042 C 9.883,-12.286 -2.682,-11.808 0,0" style="fill:#e22c27;fill-opacity:1;fill-rule:nonzero;stroke:none" transform="matrix(1.3333333,0,0,-1.3333333,2303.2355,3139.2452)" />
      <path id="path133" d="m 0,0 c 5.556,-5.685 15.206,-8.329 14.094,-18.97 -14.855,1.954 -13.909,-11.17 -18.307,-19.194 -0.506,3.18 -1.015,6.363 -1.523,9.545 -5.033,6.53 -7.08,14.797 -12.372,21.204 -2.557,4.987 -1.157,8.39 4.092,10.254 3.579,0.599 6.679,-0.421 9.392,-2.754 C -3.084,-0.043 -1.543,-0.072 0,0" style="fill:#961f22;fill-opacity:1;fill-rule:nonzero;stroke:none" transform="matrix(1.3333333,0,0,-1.3333333,2303.2355,3139.2452)" />
      <path id="path139" d="m 0,0 c -1.186,0.027 -2.372,0.053 -3.555,0.081 -0.203,13.995 -0.408,27.991 -0.612,41.986 7.186,8.477 2.781,18.768 4.405,28.116 7.47,1.119 8.416,-4.696 10.257,-9.594 C 11.64,51.336 11.673,42.099 9.903,32.899 4.613,22.544 10.128,8.899 0,0" style="fill:#aa2123;fill-opacity:1;fill-rule:nonzero;stroke:none" transform="matrix(1.3333333,0,0,-1.3333333,2121.8648,3382.9003)" />
      <path id="path159" d="M 0,0 C 4.52,13.214 4.352,26.95 4.52,40.645 13.438,27.933 7.288,13.674 8.679,0.195 5.783,0.132 2.892,0.066 0,0" style="fill:#a22023;fill-opacity:1;fill-rule:nonzero;stroke:none" transform="matrix(1.3333333,0,0,-1.3333333,2402.9652,3357.4319)" />
      <path id="path166" d="m 0,0 c 20.438,-1.26 2.66,-15.884 6.987,-22.973 -2.379,4.55 -4.758,9.099 -7.134,13.648 C -0.096,-6.217 -0.048,-3.109 0,0" style="fill:#961f23;fill-opacity:1;fill-rule:nonzero;stroke:none" transform="matrix(1.3333333,0,0,-1.3333333,2116.6163,3039.67)" />
      <path id="path180" d="m 0,0 c 6.319,-9.708 5.875,-19.339 -0.327,-28.907 0.003,-0.004 -0.991,1.34 -0.991,1.34 -2.06,7.11 -3.294,14.339 -3.123,21.776 C -3.679,-3.31 -2.194,-1.382 0,0" style="fill:#821b1f;fill-opacity:1;fill-rule:nonzero;stroke:none" transform="matrix(1.3333333,0,0,-1.3333333,2410.1507,3394.7984)" />
      <path id="path181" d="m 0,0 c -0.643,-1.357 -1.013,-2.786 -1.11,-4.285 -9.218,-1.548 -10.214,5.232 -9.828,11.181 0.306,4.69 3.758,8.32 9.646,5.636 C -1.143,11.156 -0.694,9.885 0.054,8.721 0.036,5.814 0.018,2.907 0,0" style="fill:#e22c25;fill-opacity:1;fill-rule:nonzero;stroke:none" transform="matrix(1.3333333,0,0,-1.3333333,2410.1507,3394.7984)" />
      <path id="path249" d="m 0,0 c -10.404,5.961 -26.381,-1.387 -32.925,13.789 -3.341,12.576 -3.613,25.138 0.192,37.678 7.032,0.251 9.676,-6.381 14.653,-9.368 C -6.724,35.282 -1.531,39.958 0.101,51.6 1.602,51.528 3.102,51.442 4.602,51.343 13.423,33.301 6.136,16.702 0,0" style="fill:#881d21;fill-opacity:1;fill-rule:nonzero;stroke:none" transform="matrix(1.3333333,0,0,-1.3333333,2172.0056,3170.6145)" />
      <path id="path250" d="m 0,0 c -3.206,-0.06 -6.411,-0.119 -9.617,-0.179 -6.201,0.912 -12.403,2.008 -18.598,-0.045 l -4.811,-13.877 c -6.584,-7.339 -13.967,-10.829 -23.318,-4.841 2.757,9.509 -14.553,25.765 9.458,28.127 9.887,9.763 21.402,-0.451 32.129,2.603 2.826,0.091 -1.932,4.451 -0.473,1.693 -10.088,-4.271 -18.89,-0.274 -27.634,4.318 -1.035,2.511 -0.668,4.778 1.087,6.838 6.313,3.203 12.247,1.548 18.09,-1.335 7.855,5.878 15.587,1.051 23.358,-0.267 C 6.489,15.452 0.445,7.686 0,0" style="fill:#b42123;fill-opacity:1;fill-rule:nonzero;stroke:none" transform="matrix(1.3333333,0,0,-1.3333333,2297.0703,3139.1323)" />
      <path id="path251" d="M 0,0 C 9.2,0.569 9.478,7.264 9.641,14.036 15.36,10.75 21.415,8.939 28.083,9.793 29.414,8.118 30.082,6.222 30.026,4.086 28.487,-3.059 29.44,-9.501 35.427,-14.479 c 5.232,-4.841 10.99,-9.249 13.432,-16.364 0.524,-3.075 0.267,-6.183 0.328,-9.286 0.22,-2.12 -0.096,-4.156 -0.875,-6.135 -1.633,-1.441 -3.522,-2.21 -5.71,-2.241 -9.819,1.53 -17.153,7.631 -24.677,13.393 -4.245,4.352 -7.402,9.534 -10.886,14.471 -3.209,4.944 -6.259,9.988 -8.745,15.36 C -2.06,-3.224 -1.532,-1.448 0,0" style="fill:#d02725;fill-opacity:1;fill-rule:nonzero;stroke:none" transform="matrix(1.3333333,0,0,-1.3333333,2171.9383,3189.6341)" />
      <path id="path252" d="M 0,0 C -7.799,17.952 7.591,33.825 4.603,51.344 10.294,44.383 18.88,38.229 21.09,30.299 26.023,12.595 23.143,9.421 4.597,0.14 3.067,0.019 1.535,-0.029 0,0" style="fill:#982024;fill-opacity:1;fill-rule:nonzero;stroke:none" transform="matrix(1.3333333,0,0,-1.3333333,2172.0056,3170.6145)" />
      <path id="path253" d="m 0,0 c -0.018,-1.46 -0.06,-2.918 -0.125,-4.377 -5.063,-2.951 -6.971,0.923 -9.142,4.228 -24.472,2.415 -24.472,2.415 -22.515,37.771 6.546,-4.974 1.284,-13.98 7.462,-17.581 5.962,-3.477 12.534,-9.653 14.834,3.307 3.153,-3.105 6.307,-6.209 9.461,-9.313 C 4.161,9.365 3.698,4.685 0,0" style="fill:#bf2221;fill-opacity:1;fill-rule:nonzero;stroke:none" transform="matrix(1.3333333,0,0,-1.3333333,2240.6927,3108.2716)" />
      <path id="path254" d="m 0,0 c -0.015,1.581 -0.031,3.162 -0.046,4.746 3.14,3.049 6.281,6.096 9.422,9.143 7.773,1.613 15.547,3.225 23.319,4.839 C 45.729,15.377 43.926,8.213 37.537,-0.128 36.555,0.074 35.572,0.275 34.589,0.454 29.836,2.489 25.048,2.57 20.234,0.611 18.357,-0.207 16.443,-0.865 14.508,-1.512 9.475,-2.9 4.388,-4.656 0,0" style="fill:#cf2620;fill-opacity:1;fill-rule:nonzero;stroke:none" transform="matrix(1.3333333,0,0,-1.3333333,2209.4444,3182.9075)" />
      <path id="path255" d="m 0,0 c 3.048,-1.411 6.097,-2.822 9.144,-4.23 2.311,-0.173 4.698,-0.043 6.924,-0.579 8.638,-2.078 17.226,-4.368 25.461,-9.004 -12.289,0 -24.577,0 -36.865,0.001 C 3.347,-9.128 -12.639,-9.398 0,0" style="fill:#951f23;fill-opacity:1;fill-rule:nonzero;stroke:none" transform="matrix(1.3333333,0,0,-1.3333333,2228.3363,3108.4708)" />
      <path id="path273" d="m 0,0 c -0.063,-12.558 -0.126,-25.116 -0.191,-37.676 -1.464,0.092 -2.928,0.124 -4.392,0.092 0.001,13.205 -0.012,26.412 0.041,39.619 0.002,0.607 0.47,1.615 0.927,1.753 C -0.063,4.861 -0.709,1.759 0,0" style="fill:#9c2024;fill-opacity:1;fill-rule:nonzero;stroke:none" transform="matrix(1.3333333,0,0,-1.3333333,2128.3616,3101.9917)" />
      <path id="path279" d="m 0,0 c 22.264,-11.415 8.05,-35.987 18.619,-51.621 5.86,-9.655 2.57,-19.996 2.271,-30.128 C 12.422,-91.142 6.853,-85.75 1.733,-78.014 -0.948,-65.89 5.34,-52.068 -5.183,-41.4 -16.47,-26.887 -20.748,-8.474 -31.823,6.156 -37.016,14.315 -46.689,20.767 -42.096,32.694 -27.757,36.18 -8.449,24.585 -4.723,9.784 -3.779,6.034 -3.377,2.41 0,0" style="fill:#841c20;fill-opacity:1;fill-rule:nonzero;stroke:none" transform="matrix(1.3333333,0,0,-1.3333333,2284.3641,3601.2207)" />
      <path id="path280" d="m 0,0 c -3.151,-0.009 -6.303,-0.019 -9.454,-0.028 -7.205,-2.045 -9.236,3.918 -12.502,8.006 -3.577,6.483 -6.574,13.283 -10.451,19.621 -7.653,10.485 -10.091,23.128 -14.548,34.954 -1.188,3.125 -1.851,6.229 0.571,9.123 17.082,7.314 17.529,-7.54 22.271,-17.264 -1.547,15.387 -8.368,23.162 -24.326,18.792 -6.795,1.504 -10.25,5.565 -9.757,12.678 1.915,5.457 6.386,7.344 11.529,8.331 22.892,-0.579 37.721,-11.4 43.196,-34.058 C -3.895,49.833 -0.95,41.187 8.843,36.009 13.749,31.397 21.951,27.589 18.147,19.382 14.867,12.306 6.967,17.574 1.312,16.233 -1.7,17.046 1.029,12.151 0.953,15.27 0.922,16.554 1.456,16.616 2.701,16.432 11.856,15.075 18.025,11.066 13.728,0.911 10.401,-6.953 5.093,-7.345 0,0" style="fill:#891d21;fill-opacity:1;fill-rule:nonzero;stroke:none" transform="matrix(1.3333333,0,0,-1.3333333,2215.6463,3470.302)" />
      <path id="path281" d="m 0,0 c 4.516,-1.949 9.106,-3.226 10.569,3.378 2.85,12.866 -9.444,8.473 -15.119,12.659 5.451,6.289 14.569,-1.105 19.466,5.437 -0.313,6.616 -8.265,6.271 -10.18,11.33 2.549,2.924 5.897,3.96 9.631,4.12 10.878,-1.041 21.28,-3.613 30.564,-9.733 5.089,-4.877 12.618,-8.898 6.578,-17.87 0.94,-10.896 10.672,-21.781 0.038,-32.69 -2.973,2.526 -8.063,2.104 -10.035,5.015 -11.568,17.078 -13.454,1.39 -18.101,-5.072 C 12.8,-18.423 2.56,-13.05 0,0" style="fill:#8f1e23;fill-opacity:1;fill-rule:nonzero;stroke:none" transform="matrix(1.3333333,0,0,-1.3333333,2215.6463,3470.302)" />
      <path id="path282" d="m 0,0 c -2.035,-3.669 -5.478,-4.568 -9.298,-4.725 -4.08,-10.252 7.341,-5.155 9.318,-9.41 l 0.008,-0.009 c 13.402,-5.645 28.8,-8.445 34.903,-24.509 2.946,-8.339 -0.108,-15.293 -4.987,-21.833 -12.42,-4.434 -14.802,10.902 -24.278,12.295 -11.981,4.864 -16.715,19.462 -30.182,22.378 -4.911,3.552 -7.85,8.437 -9.656,14.107 -1.686,5.828 -3.324,11.664 0.729,17.249 8.141,5.073 16.32,0.842 24.504,0.124 C -5.363,4.723 -2.217,3.086 0,0" style="fill:#af2124;fill-opacity:1;fill-rule:nonzero;stroke:none" transform="matrix(1.3333333,0,0,-1.3333333,2196.9145,3538.8511)" />
      <path id="path283" d="m 0,0 c -3.085,0.001 -6.171,0.001 -9.256,0.002 -5.598,6.737 -2.028,12.747 1.433,18.777 C -1.986,24.911 3.039,31.831 9.452,37.462 17.193,29.775 23.091,20.805 26.91,10.65 28.471,6.496 29.948,0.866 25.013,-1.762 19.613,-4.639 18.184,3.276 13.757,4.131 8.407,8.433 5.563,6.095 3.969,0.439 2.645,0.305 1.322,0.159 0,0" style="fill:#bc2122;fill-opacity:1;fill-rule:nonzero;stroke:none" transform="matrix(1.3333333,0,0,-1.3333333,2196.9145,3538.8511)" />
      <path id="path284" d="M 0,0 C 2.639,8.046 -7.296,15.922 0.353,25.269 9.658,16.626 22.811,12.989 28.135,0.057 18.765,-4.08 9.396,-8.692 0,0" style="fill:#871d21;fill-opacity:1;fill-rule:nonzero;stroke:none" transform="matrix(1.3333333,0,0,-1.3333333,2246.8615,3501.5368)" />
      <path id="path285" d="m 0,0 c 0.358,-10.07 -2.019,-18.094 -14.107,-18.85 -6.066,-2.954 -8.987,2.493 -13.1,4.844 -1.643,1.276 -3.079,2.748 -4.395,4.357 -2.19,3.678 -4.275,7.377 -0.404,11.276 13.227,1.408 11.448,15.142 18.046,21.994 3.035,-3.233 6.071,-6.465 9.105,-9.699 C -4.664,8.783 -4.888,3.5 0,0" style="fill:#cd241f;fill-opacity:1;fill-rule:nonzero;stroke:none" transform="matrix(1.3333333,0,0,-1.3333333,2209.5168,3488.9015)" />
      <path id="path286" d="m 0,0 c -6.345,14.188 -28.055,6.868 -32.737,23.384 7.824,-1.317 15.628,5.049 23.462,0.06 C -4.601,15.641 0.071,7.837 4.744,0.034 3.174,-1.595 1.594,-1.69 0,0" style="fill:#a22024;fill-opacity:1;fill-rule:nonzero;stroke:none" transform="matrix(1.3333333,0,0,-1.3333333,2240.6012,3588.8868)" />
      <path id="path287" d="m 0,0 c 0.598,7.105 -6.12,9.518 -9.164,14.288 -4.2,4.038 -2.604,7.616 0.865,11.06 1.872,1.153 3.897,1.917 6.056,2.341 3.329,0.356 6.496,-0.179 9.449,-1.81 0.737,-0.791 1.468,-1.593 2.2,-2.395 C 9.24,14.349 9.074,5.214 8.904,-3.916 5.934,-2.607 2.967,-1.304 0,0" style="fill:#c52221;fill-opacity:1;fill-rule:nonzero;stroke:none" transform="matrix(1.3333333,0,0,-1.3333333,2284.3251,3457.8743)" />
      <path id="path288" d="M 0,0 C -5.65,1.556 -11.95,-7.503 -16.366,-0.434 -19.269,4.211 -13.242,7.12 -9.318,9.41 -6.212,6.273 -3.106,3.137 0,0" style="fill:#a22024;fill-opacity:1;fill-rule:nonzero;stroke:none" transform="matrix(1.3333333,0,0,-1.3333333,2196.9415,3557.6977)" />
      <path id="path289" d="M 0,0 C 1.09,3.208 -1.066,8.19 3.403,9.232 5.016,9.609 7.635,5.67 9.791,3.697 8.843,-3.681 6.287,-6.788 0,0" style="fill:#7d191e;fill-opacity:1;fill-rule:nonzero;stroke:none" transform="matrix(1.3333333,0,0,-1.3333333,2202.2065,3538.2659)" />
      <path id="path292" d="m 0,0 c -3.108,0.005 -6.216,0.009 -9.323,0.015 -10.95,17.542 0.993,34.455 1.864,51.64 0.25,4.948 7.398,4.162 11.954,4.381 C 7.776,38.984 11.058,21.933 14.344,4.884 12.664,3.261 10.98,1.636 9.297,0.011 6.193,3.498 3.095,3.498 0,0" style="fill:#dc2a21;fill-opacity:1;fill-rule:nonzero;stroke:none" transform="matrix(1.3333333,0,0,-1.3333333,2321.8697,3108.2001)" />
      <path id="path293" d="M 0,0 C 8.362,-1.602 20.137,5.444 23.348,-9.213 26.86,-24.921 15.764,-19.168 11.125,-16.004 6.111,-12.584 3.602,-5.491 0,0" style="fill:#d22620;fill-opacity:1;fill-rule:nonzero;stroke:none" transform="matrix(1.3333333,0,0,-1.3333333,2222.0797,3033.4856)" />
      <path id="path294" d="M 0,0 C -0.008,4.679 -0.017,9.357 -0.025,14.036 1.293,19.966 4.514,25.745 8.198,16.64 10.821,10.154 14.212,5.073 18.598,0.155 12.397,0.104 6.199,0.052 0,0" style="fill:#d32520;fill-opacity:1;fill-rule:nonzero;stroke:none" transform="matrix(1.3333333,0,0,-1.3333333,2240.6927,3108.2716)" />
      <path id="path304" d="M 0,0 C 3.38,5.428 8.867,4.522 14.006,4.66 17.164,1.587 20.322,-1.485 23.481,-4.557 13.675,-13.241 7.847,-1.417 0,0" style="fill:#bc1f22;fill-opacity:1;fill-rule:nonzero;stroke:none" transform="matrix(1.3333333,0,0,-1.3333333,2371.7537,3126.9728)" />
      <path id="path305" d="m 0,0 c -1.122,-4.604 3.09,-10.436 -2.561,-13.658 -1.045,-0.596 -4.468,2.979 -6.794,4.629 C -8.911,-3.249 -6.375,0.365 0,0" style="fill:#c32120;fill-opacity:1;fill-rule:nonzero;stroke:none" transform="matrix(1.3333333,0,0,-1.3333333,2415.2537,3121.1448)" />
      <path id="path311" d="m 0,0 c -14.265,-18.138 -34.393,-6.538 -51.522,-10.16 -5.513,5.098 -8.101,11.7 -9.673,18.824 5.887,8.118 -1.659,20.145 7.915,27.226 9.193,3.918 18.479,3.698 27.835,0.744 C -14.61,31.858 -10.71,19.462 -0.058,13.943 5.285,11.174 4.169,4.73 0,0" style="fill:#c62320;fill-opacity:1;fill-rule:nonzero;stroke:none" transform="matrix(1.3333333,0,0,-1.3333333,2265.3401,3713.2493)" />
      <path id="path312" d="m 0,0 c -12.724,7.355 -30.101,-4.636 -41.102,9.885 4.86,8.291 0.973,17.416 2.475,26.017 1.845,13.343 22.52,4.379 22.982,19.418 1.511,1.821 3.433,2.718 5.791,2.735 2.175,-0.932 3.828,-2.422 5.015,-4.459 C -1.746,37.743 2.763,22.133 3.41,5.848 3.19,3.364 2.046,1.417 0,0" style="fill:#a62025;fill-opacity:1;fill-rule:nonzero;stroke:none" transform="matrix(1.3333333,0,0,-1.3333333,2177.0264,3689.2435)" />
      <path id="path313" d="m 0,0 c 0.24,1.633 0.481,3.266 0.721,4.898 -2.435,8.167 -4.756,16.325 1.641,23.889 8.075,-1.764 8.554,-7.749 7.962,-14.328 C 13.45,5.445 21.804,-4.729 5.044,-9.337 3.36,-6.227 1.68,-3.113 0,0" style="fill:#d42621;fill-opacity:1;fill-rule:nonzero;stroke:none" transform="matrix(1.3333333,0,0,-1.3333333,2177.0264,3689.2435)" />
      <path id="path314" d="m 0,0 c -1.483,-9.349 3.555,-19.778 -4.636,-28.015 -0.113,6.118 -0.226,12.233 -0.343,18.346 C -2.291,2.768 -9.337,16.504 0.043,28.053 8.139,18.69 5.956,9.342 0,0" style="fill:#b62023;fill-opacity:1;fill-rule:nonzero;stroke:none" transform="matrix(1.3333333,0,0,-1.3333333,2128.4047,3638.7129)" />
      <path id="path338" d="m 0,0 c -5.801,-3.182 -11.87,-5.307 -18.625,-4.739 0.17,7.338 5.292,14.031 1.291,22.127 -2.663,5.389 -2.821,12.689 3.55,16.296 5.873,3.324 8.821,-4.478 13.804,-5.583 C 1.608,20.326 3.195,12.55 4.783,4.775 3.189,3.184 1.595,1.592 0,0" style="fill:#d42620;fill-opacity:1;fill-rule:nonzero;stroke:none" transform="matrix(1.3333333,0,0,-1.3333333,2396.6824,3707.4487)" />
      <path id="path340" d="m 0,0 c 5.527,0.292 10.511,1.895 14.462,5.991 -3.325,2.598 -6.649,5.197 -9.974,7.795 0.551,3.576 2.558,6.106 5.62,7.877 24.091,1.791 27.623,-0.647 32.001,-23.848 1.016,-5.387 2.984,-8.513 8.609,-8.852 16.91,-11.435 4.371,-21.307 -1.627,-31.555 -13.695,-7.518 -20.531,5.061 -29.931,10.178 -4.012,3.399 -7.508,7.343 -11.168,11.121 -4.259,5.621 -8.846,11.102 -9.377,18.614 C -0.929,-1.786 -0.465,-0.893 0,0" style="fill:#951f23;fill-opacity:1;fill-rule:nonzero;stroke:none" transform="matrix(1.3333333,0,0,-1.3333333,2178.3987,3276.5656)" />
      <path id="path341" d="m 0,0 c -0.178,3.849 -1.049,7.354 -4.712,9.468 6.251,3.112 12.501,6.224 18.752,9.337 3.592,3.337 7.976,2.168 12.153,2.137 12.222,-12.856 -6.089,-21.699 -4.309,-33.199 -0.199,-2.089 -0.805,-4.053 -1.698,-5.941 -1.443,-1.59 -3.245,-2.518 -5.346,-2.903 C 1.552,-19.939 5.293,-6.794 0,0" style="fill:#a32025;fill-opacity:1;fill-rule:nonzero;stroke:none" transform="matrix(1.3333333,0,0,-1.3333333,2128.464,3301.9464)" />
      <path id="path342" d="m 0,0 c 3.167,-0.131 6.334,-0.261 9.502,-0.393 -0.112,-5.798 3.807,-9.631 6.437,-14.224 2.211,-3.861 8.955,-10.86 0.945,-12.52 C 10.509,-28.458 2.746,-43.306 -4.514,-28.043 1.185,-19.37 -5.775,-8.66 0,0" style="fill:#9f2024;fill-opacity:1;fill-rule:nonzero;stroke:none" transform="matrix(1.3333333,0,0,-1.3333333,2128.3316,3214.098)" />
      <path id="path343" d="m 0,0 c -1.647,-1.658 -3.295,-3.316 -4.943,-4.975 -10.973,6.046 -10.251,18.175 -14.433,27.753 7.783,-5.709 7.765,9.357 14.827,5.567 5.534,-3.1 8.561,-7.861 9.344,-14.108 C 5.736,8.636 4.208,3.867 0,0" style="fill:#a32024;fill-opacity:1;fill-rule:nonzero;stroke:none" transform="matrix(1.3333333,0,0,-1.3333333,2190.9755,3251.5492)" />
      <path id="path344" d="m 0,0 c -4.397,-3.299 -7.59,-9.809 -14.823,-5.563 -4.528,1.99 -9.052,3.983 -13.574,5.983 4.674,2.843 9.347,5.679 14.02,8.515 -1.382,4.444 0.249,5.975 4.659,4.818 C -3.783,11.073 -0.6,6.45 0,0" style="fill:#bb2222;fill-opacity:1;fill-rule:nonzero;stroke:none" transform="matrix(1.3333333,0,0,-1.3333333,2184.9105,3213.7556)" />
      <path id="path345" d="M 0,0 C -1.486,-9.352 3.601,-19.764 -4.516,-28.045 -4.294,-17.122 -4.074,-6.201 -3.85,4.721 -2.564,3.147 -1.282,1.574 0,0" style="fill:#b62023;fill-opacity:1;fill-rule:nonzero;stroke:none" transform="matrix(1.3333333,0,0,-1.3333333,2128.3316,3214.098)" />
      <path id="path346" d="M 0,0 C -4.687,0.021 -9.375,0.041 -14.061,0.061 -6.325,7.091 1.483,6.642 9.35,0.289 9.351,0.291 9.149,-0.01 9.149,-0.01 6.096,-2.79 3.047,-2.6 0,0" style="fill:#951f23;fill-opacity:1;fill-rule:nonzero;stroke:none" transform="matrix(1.3333333,0,0,-1.3333333,2165.9309,3276.9531)" />
      <path id="path347" d="m 0,0 c -1.94,-11.347 11.266,-34.747 -18.843,-23.678 -8.488,-1.93 -16.063,0.286 -23.07,5.081 -14.041,9.699 -8.847,24.123 -9.136,37.2 12.405,-0.542 4.918,12.044 10.554,15.998 C -25.531,38.082 -16.99,29.265 -9.5,18.436 -3.793,13.6 -0.693,7.42 0,0" style="fill:#d22621;fill-opacity:1;fill-rule:nonzero;stroke:none" transform="matrix(1.3333333,0,0,-1.3333333,2190.9036,3457.4069)" />
      <path id="path348" d="m 0,0 c 0.014,9.351 0.027,18.702 0.042,28.053 4.649,1.557 9.297,3.114 13.945,4.67 6.921,-2.112 12.236,-5.304 9.399,-13.977 V -6.62 C 13.189,-7.514 10.605,10.776 0,0" style="fill:#9c2024;fill-opacity:1;fill-rule:nonzero;stroke:none" transform="matrix(1.3333333,0,0,-1.3333333,2128.4047,3638.7129)" />
      <path id="path349" d="m 0,0 c -9.818,7.222 -20.64,12.117 -32.718,14.093 -4.804,-3.183 -6.513,0.841 -8.704,3.739 -0.007,5.177 -0.015,10.353 -0.022,15.53 3.758,1.926 7.612,0.975 11.445,0.462 5.524,-0.533 10.982,-0.725 15.74,2.937 C -9.506,24.507 -4.753,12.254 0,0" style="fill:#bc2322;fill-opacity:1;fill-rule:nonzero;stroke:none" transform="matrix(1.3333333,0,0,-1.3333333,2178.2363,3432.8255)" />
      <path id="path350" d="m 0,0 c -2.763,2.535 -6.505,4.561 -8.128,7.687 -9.796,18.87 -2.375,-14.309 -10.408,1.055 -1.113,5.507 -1.026,14.315 9.295,19.548 3.348,1.461 5.508,-0.372 7.515,-2.668 C 1.264,20.709 4.231,15.767 8.815,12.054 11.614,8.767 12.744,5.146 11.03,0.959 7.698,-3.315 3.81,-1.205 0,0" style="fill:#bd1f22;fill-opacity:1;fill-rule:nonzero;stroke:none" transform="matrix(1.3333333,0,0,-1.3333333,2147.1121,3588.7851)" />
      <path id="path351" d="m 0,0 c 2.901,-1.247 5.802,-2.493 8.704,-3.74 -0.905,-7.507 16.319,-6.78 8.156,-17.192 -7.119,-9.08 -11.448,1.364 -16.99,3.266 C -0.084,-11.777 -0.042,-5.888 0,0" style="fill:#e22c27;fill-opacity:1;fill-rule:nonzero;stroke:none" transform="matrix(1.3333333,0,0,-1.3333333,2123.0067,3409.0489)" />
      <path id="path352" d="m 0,0 c 8.695,2.87 16.324,0.897 23.07,-5.081 1.603,-3.091 3.205,-6.182 4.808,-9.273 -4.137,-4.272 -9.559,-3.081 -14.612,-3.504 -2.049,-0.047 -4.062,0.25 -6.036,0.801 -6.104,1.749 -4.825,8.134 -7.532,12.03 C -0.201,-3.352 -0.101,-1.676 0,0" style="fill:#b52123;fill-opacity:1;fill-rule:nonzero;stroke:none" transform="matrix(1.3333333,0,0,-1.3333333,2135.0199,3482.2028)" />
      <path id="path353" d="m 0,0 c 3.096,-3.139 6.193,-6.277 9.289,-9.416 5.642,-7.239 2.18,-13.066 -2.88,-18.649 -9.474,-4.086 -7.366,5.951 -10.98,9.023 C -5.411,-12.127 -3.239,-5.935 0,0" style="fill:#a02124;fill-opacity:1;fill-rule:nonzero;stroke:none" transform="matrix(1.3333333,0,0,-1.3333333,2134.6171,3488.906)" />
      <path id="path354" d="m 0,0 c 3.114,-3.011 6.228,-6.022 9.341,-9.033 6.002,-4.789 6.996,-11.588 7.471,-18.599 -1.272,-3.525 -3.119,-6.151 -7.508,-4.782 -1.535,1.611 -3.07,3.221 -4.604,4.834 C 2.711,-18.457 -1.63,-9.738 0,0" style="fill:#8e1f23;fill-opacity:1;fill-rule:nonzero;stroke:none" transform="matrix(1.3333333,0,0,-1.3333333,2128.5229,3514.2948)" />
      <path id="path355" d="m 0,0 c -2.878,1.729 -5.756,3.457 -8.63,5.189 -0.124,1.394 -0.401,2.755 -0.83,4.085 2.389,10.796 -4.951,23.029 4.836,32.732 2.033,-1.568 3.444,-3.573 4.247,-6.007 C -1.9,23.987 8.655,12.091 0,0" style="fill:#e52b23;fill-opacity:1;fill-rule:nonzero;stroke:none" transform="matrix(1.3333333,0,0,-1.3333333,2134.4796,3395.2651)" />
      <path id="path356" d="m 0,0 c 3.128,4.832 6.215,0.49 9.32,-0.042 8.776,-4.451 10.666,-10.617 4.669,-18.747 -1.546,0.003 -3.09,0.033 -4.634,0.088 -3.133,4.66 -6.266,9.319 -9.399,13.978 C -0.029,-3.149 -0.015,-1.574 0,0" style="fill:#c62321;fill-opacity:1;fill-rule:nonzero;stroke:none" transform="matrix(1.3333333,0,0,-1.3333333,2147.1121,3588.7851)" />
      <path id="path365" d="m 0,0 c -1.925,-1.714 -3.849,-3.428 -5.773,-5.142 -7.555,4.376 -15.31,8.549 -18.027,17.834 -2.559,8.782 -4.551,17.479 4.77,23.893 7.438,6.849 8.146,19.089 18.745,23.406 C 0.834,39.999 6.078,20.026 0,0" style="fill:#a92025;fill-opacity:1;fill-rule:nonzero;stroke:none" transform="matrix(1.3333333,0,0,-1.3333333,2353.4997,3718.7956)" />
      <path id="path366" d="M 0,0 C -2.425,19.986 -5.751,39.968 -0.286,59.991 7.952,68.265 2.977,78.72 4.36,88.126 17.317,67.444 0.36,45.05 8.106,23.684 10.781,16.306 8.691,7.199 8.776,-1.12 5.849,-0.748 2.925,-0.374 0,0" style="fill:#bd2022;fill-opacity:1;fill-rule:nonzero;stroke:none" transform="matrix(1.3333333,0,0,-1.3333333,2353.4997,3718.7956)" />
      <path id="path367" d="m 0,0 c -2.278,-7.797 -2.389,-15.604 -0.097,-23.42 -2.557,-3.394 -0.343,-10.462 -7.787,-10.097 -3.899,2.097 -3.742,6.072 -4.493,9.643 -1.128,12.809 -0.414,25.46 3.019,37.894 0,0 0.015,-0.027 0.016,-0.028 C -6.228,9.327 -3.114,4.664 0,0" style="fill:#c22221;fill-opacity:1;fill-rule:nonzero;stroke:none" transform="matrix(1.3333333,0,0,-1.3333333,2328.1263,3670.0159)" />
      <path id="path383" d="M 0,0 C 5.284,-10.368 13.91,-10.594 23.829,-7.986 21.028,0.971 6.386,9.521 23.158,18.527 32.888,7.888 47.82,1.747 51.428,-14.184 c 1.65,-1.657 2.173,-3.614 1.594,-5.879 -5.367,-6.983 -3.741,-17.287 -11.039,-23.367 -2.289,-0.522 -4.272,0.046 -5.945,1.692 -0.728,5.894 -2.329,11.838 -0.632,15.172 0.722,-5.375 -3.428,-13.527 4.522,-20.11 2.887,-8.069 11.27,-17.561 -5.278,-20.626 C 3.202,-67.46 -5.015,-38.221 -20.084,-20.144 -28.516,-10.03 -16.463,2.365 0,0" style="fill:#a92025;fill-opacity:1;fill-rule:nonzero;stroke:none" transform="matrix(1.3333333,0,0,-1.3333333,2309.3335,3339.1901)" />
      <path id="path384" d="m 0,0 c 0.059,1.645 0.117,3.291 0.175,4.935 7.631,-4.995 15.263,-9.988 22.894,-14.987 -11.616,-5.74 -6.202,-11.29 0.182,-16.825 -0.068,-7.764 -0.134,-15.531 -0.205,-23.289 -6.437,2.957 -2.273,15.042 -11.743,14.56 -5.514,-0.28 -5.664,-6.25 -6.308,-10.756 C -7.777,-45.35 -4.687,-35.44 -5.487,-27.708 -2.964,-18.615 -6.952,-8.221 0,0" style="fill:#a22023;fill-opacity:1;fill-rule:nonzero;stroke:none" transform="matrix(1.3333333,0,0,-1.3333333,2377.6712,3364.6805)" />
      <path id="path390" d="m 0,0 c 1.449,0.261 2.899,0.518 4.349,0.771 7.771,4.247 13.975,2.378 18.813,-4.82 0,0 0.017,0.001 0.018,0.001 -0.043,-4.647 -0.086,-9.295 -0.129,-13.943 -4.48,-3.431 -3.883,-8.102 -3.122,-12.816 -0.681,-0.652 -1.366,-1.301 -2.052,-1.95 -5.524,-4.06 -7.257,-10.029 -8.242,-16.374 -1.305,-3.089 -2.892,-3.242 -4.762,-0.457 -0.194,2.687 -0.388,5.374 -0.582,8.061 -2.899,3.375 -1.993,8.149 -4.323,11.731 C -4.823,-19.861 -6.205,-9.925 0,0" style="fill:#a02024;fill-opacity:1;fill-rule:nonzero;stroke:none" transform="matrix(1.3333333,0,0,-1.3333333,2228.5864,3177.6821)" />
      <path id="path391" d="m 0,0 c 11.058,-4.931 9.689,-14.345 8.534,-23.683 -9.075,0.125 -7.019,-8.605 -11.502,-14.965 -2.277,12.405 -4.261,23.21 -6.245,34.015 C -7.324,-0.737 -2.528,-2.624 0,0" style="fill:#b42123;fill-opacity:1;fill-rule:nonzero;stroke:none" transform="matrix(1.3333333,0,0,-1.3333333,2284.218,3145.8211)" />
      <path id="path392" d="m 0,0 c -2.008,-3.659 -5.442,-4.482 -9.214,-4.632 -3.12,3.141 -6.241,6.283 -9.362,9.424 6.179,9.379 12.39,4.648 18.6,0.045 C -0.567,3.704 -1.288,2.61 -1.647,1.408 -1.731,1.127 -0.582,0.479 0,0" style="fill:#c92220;fill-opacity:1;fill-rule:nonzero;stroke:none" transform="matrix(1.3333333,0,0,-1.3333333,2284.218,3145.8211)" />
      <path id="path393" d="m 0,0 c -6.827,1.654 -9.179,6.848 -10.305,13.012 -0.004,-0.004 0.84,0.938 0.84,0.938 1.511,2.008 2.938,1.951 4.281,-0.175 1.573,-0.086 3.145,-0.172 4.718,-0.257 l 0.01,0.003 C -0.304,9.014 -0.152,4.507 0,0" style="fill:#a02024;fill-opacity:1;fill-rule:nonzero;stroke:none" transform="matrix(1.3333333,0,0,-1.3333333,2266.1681,3238.702)" />
      <path id="path394" d="m 0,0 -2.148,-0.031 c 0,0 -2.14,0.197 -2.137,0.201 -3.663,6.213 -7.494,12.474 4.334,13.828 C 0.032,9.333 0.016,4.667 0,0" style="fill:#ca2524;fill-opacity:1;fill-rule:nonzero;stroke:none" transform="matrix(1.3333333,0,0,-1.3333333,2259.2564,3220.3353)" />
      <path id="path395" d="M 0,0 C 2.271,3.827 4.139,8.343 9.844,7.278 10.658,7.126 11.937,4.816 11.631,4.056 9.375,-1.549 4.108,0.81 0.011,0.004 0.011,0.004 0,0 0,0" style="fill:#cd2422;fill-opacity:1;fill-rule:nonzero;stroke:none" transform="matrix(1.3333333,0,0,-1.3333333,2265.5465,3220.6785)" />
      <path id="path412" d="m 0,0 c 0.732,16.866 -23.609,15.796 -23.198,32.432 -14.312,12.597 -16.053,31.703 -24.293,47.446 -1.973,3.769 2.421,6.585 5.572,8.736 9.189,-3.291 11.92,-13.063 18.769,-18.702 4.926,-1.29 8.469,-4.941 8.706,-9.431 1.004,-19.033 12.46,-31.701 25.256,-43.765 1.061,-2.082 1.604,-4.288 1.683,-6.619 C 12.118,7.749 11.054,5.768 9.319,4.147 6.212,2.765 3.106,1.383 0,0" style="fill:#b62123;fill-opacity:1;fill-rule:nonzero;stroke:none" transform="matrix(1.3333333,0,0,-1.3333333,2265.3401,3713.2493)" />
      <path id="path413" d="m 0,0 c 0.099,1.689 0.197,3.378 0.296,5.067 3.218,2.583 6.267,2.597 9.105,-0.599 3.848,-5.854 7.462,-12.461 15.489,-4.783 0.58,1.018 1.16,2.035 1.74,3.053 0.547,-1.035 1.095,-2.071 1.642,-3.107 1.524,-1.469 3.049,-2.938 4.573,-4.407 2.667,-8.8 -7.107,-4.982 -9.142,-9.013 C 11.722,-16.206 3.933,-11.416 0,0" style="fill:#ce2620;fill-opacity:1;fill-rule:nonzero;stroke:none" transform="matrix(1.3333333,0,0,-1.3333333,2277.7652,3707.7199)" />
      <path id="path414" d="m 0,0 c 3.05,3.007 6.1,6.013 9.146,9.016 0.411,3.807 0.92,7.571 4.825,9.631 C 18.426,12.543 22.882,6.438 27.331,0.337 18.216,0.227 9.108,0.114 0,0" style="fill:#d2251f;fill-opacity:1;fill-rule:nonzero;stroke:none" transform="matrix(1.3333333,0,0,-1.3333333,2309.3693,3726.1052)" />
      <path id="path415" d="m 0,0 c -4.907,9.388 19.811,18.645 0.123,28.098 -12.313,8.778 -6.774,20.376 -4.957,31.386 l 0.165,1.529 C 8.384,57.849 2.219,49.568 0.282,42.414 7.486,35.313 15.679,28.984 18.767,18.679 22.184,14.895 26.308,11.666 28.235,6.682 32.042,-6.2 30.553,-17.298 14.631,-18.11 3.879,-18.658 -5.708,-14.556 0,0" style="fill:#ab2124;fill-opacity:1;fill-rule:nonzero;stroke:none" transform="matrix(1.3333333,0,0,-1.3333333,2240.6361,3332.8801)" />
      <path id="path416" d="m 0,0 c 5.311,0.75 10.44,0.912 13.892,-4.319 0.114,-9.366 -2.227,-17.882 -8.334,-25.6 -13.361,6.759 4.11,19.231 -5.556,26.094 -1.624,0.849 -2.163,1.698 -1.625,2.55 C -1.088,-0.427 -0.55,0 0,0" style="fill:#d42622;fill-opacity:1;fill-rule:nonzero;stroke:none" transform="matrix(1.3333333,0,0,-1.3333333,2265.6183,3252.8977)" />
      <path id="path417" d="m 0,0 c 0.01,-1.275 0.01,-2.551 0.002,-3.826 -6.154,-4.584 -12.307,-9.169 -18.459,-13.751 -1.153,6.334 1.012,13.549 -4.949,18.602 0.167,1.927 0.334,3.852 0.503,5.788 1.59,0.157 3.177,0.304 4.764,0.46 C -12.092,4.854 -6.046,2.427 0,0" style="fill:#d52725;fill-opacity:1;fill-rule:nonzero;stroke:none" transform="matrix(1.3333333,0,0,-1.3333333,2265.6183,3252.8977)" />
      <path id="path418" d="M 0,0 C -3.541,2.261 -4.469,5.768 -4.605,9.653 -1.498,9.43 1.609,9.208 4.717,8.98 9.522,0.862 17.969,9.963 23.443,5.014 27.354,-0.971 24.955,-5.154 19.151,-7.411 10.793,-10.661 4.538,-7.251 0,0" style="fill:#801b1f;fill-opacity:1;fill-rule:nonzero;stroke:none" transform="matrix(1.3333333,0,0,-1.3333333,2271.798,3320.8459)" />
      <path id="path419" d="M 0,0 C 8.579,-1.904 18.918,-12.038 23.444,5.013 30.136,0.041 27.593,-7.247 28.152,-13.758 4.5,-26.95 3.389,-33.431 25.268,-46.451 c 6.828,-4.064 13.082,-4.793 12.614,-14.679 -0.762,-16.051 16.692,-10.298 23.027,-18.135 -0.843,-0.662 -1.686,-1.325 -2.528,-1.99 -8.318,-1.586 -17.08,1.868 -25.179,-2.22 -4.8,1.396 -9.6,2.791 -14.4,4.187 0,0 -0.379,-0.218 -0.379,-0.218 -10.427,7.327 -8.08,21.439 -16.054,30.042 -3.341,2.921 -6.464,7.846 -11.526,4.301 -5.978,-4.187 -4.093,-10.847 -3.415,-16.863 -1.032,-3.968 -4.023,-7.092 -7.645,-6.314 -11.991,2.576 -6.23,-6.625 -7.794,-10.936 -3.122,-0.004 -6.245,-0.008 -9.367,-0.012 -11.44,3.751 -15.908,11.679 -14.026,23.412 4.012,6.976 8.709,13.285 16.228,16.82 4.933,6.131 1.649,11.027 -2.344,15.789 -6.433,6.864 -15.24,12.008 -16.53,22.624 0.239,2.197 1.136,4.087 2.673,5.674 11.94,0.502 15.986,-14.722 28.006,-14.057 0.959,-10.489 7.051,-15.477 17.06,-13.434 C 9.273,-19.276 -2.504,-7.43 0,0" style="fill:#a32025;fill-opacity:1;fill-rule:nonzero;stroke:none" transform="matrix(1.3333333,0,0,-1.3333333,2271.798,3320.8459)" />
      <path id="path420" d="M 0,0 C 0.798,4.15 -1.74,11.123 4.64,11.129 11.015,11.134 8.505,4.163 9.297,0.011 6.198,0.008 3.099,0.004 0,0" style="fill:#e42b26;fill-opacity:1;fill-rule:nonzero;stroke:none" transform="matrix(1.3333333,0,0,-1.3333333,2321.8697,3108.2)" />
      <path id="path427" d="M 0,0 C -1.553,-1.606 -3.105,-3.212 -4.659,-4.818 -24.506,-6.207 -6.053,5.116 -9.322,9.229 -6.218,7.6 -3.114,5.971 -0.01,4.34 0.026,2.892 0.03,1.446 0,0" style="fill:#da2a23;fill-opacity:1;fill-rule:nonzero;stroke:none" transform="matrix(1.3333333,0,0,-1.3333333,2171.9531,3195.4181)" />
      <path id="path431" d="m 0,0 c 0.744,-6.453 -1.928,-13.792 4.838,-18.686 -6.549,-7.913 -15.322,-3.727 -23.226,-4.265 -1.75,0.831 -2.372,1.733 -1.872,2.709 0.516,1.011 1.047,1.518 1.599,1.518 0,0 0.008,0.011 0.008,0.011 13.365,3.311 1,13.022 4.663,18.746 -1.32,1.041 -1.745,2.063 -1.28,3.07 0.461,0.997 0.916,1.496 1.37,1.496 1.459,0.103 2.917,0.213 4.375,0.329 C -5.617,4.702 -9.122,-9.85 0,0" style="fill:#bd2222;fill-opacity:1;fill-rule:nonzero;stroke:none" transform="matrix(1.3333333,0,0,-1.3333333,2377.8803,3401.5823)" />
      <path id="path432" d="M 0,0 C 0.019,-1.416 0.109,-2.827 0.27,-4.231 -9.055,-4.22 -18.381,-4.214 -27.703,-4.203 -19.403,3.383 -9.238,-1.363 0,0" style="fill:#a92025;fill-opacity:1;fill-rule:nonzero;stroke:none" transform="matrix(1.3333333,0,0,-1.3333333,2352.9993,3426.5477)" />
      <path id="path437" d="m 0,0 -1.698,0.143 c 0,0 -1.703,-0.082 -1.694,-0.085 -9.321,9.109 -2.51,18.967 -1.311,28.565 0.426,5.091 -0.559,10.669 4.844,14.045 C 0.094,28.445 0.047,14.222 0,0" style="fill:#b42023;fill-opacity:1;fill-rule:nonzero;stroke:none" transform="matrix(1.3333333,0,0,-1.3333333,2315.4611,3708.212)" />
      <path id="path440" d="m 0,0 c -0.149,1.421 -0.292,2.843 -0.429,4.265 0.037,9.328 0.074,18.657 0.111,27.984 C 7.578,27.739 6.304,14.074 18.274,13.636 24.179,7.454 23.057,1.237 18.363,-4.996 14.379,-5.171 10.862,-6.234 8.793,-10.042 -0.098,-11.914 3.454,-2.89 0,0" style="fill:#961f23;fill-opacity:1;fill-rule:nonzero;stroke:none" transform="matrix(1.3333333,0,0,-1.3333333,2128.8863,3344.9424)" />
      <path id="path472" d="m 0,0 c 0.028,-10.719 -1.144,-21.627 4.956,-31.387 -2.717,-2.534 -5.378,-7.098 -8.166,-7.177 -5.573,-0.159 -4.308,4.509 -3.191,8.367 6.706,23.139 -1.285,34.314 -26.013,31.709 -0.187,5.348 -0.634,10.781 4.796,14.237 C -18.411,10.501 -9.206,5.25 0,0" style="fill:#7b191d;fill-opacity:1;fill-rule:nonzero;stroke:none" transform="matrix(1.3333333,0,0,-1.3333333,2234.1911,3253.5681)" />
      <path id="path473" d="m 0,0 c 3.239,-8.955 -1.288,-19.102 4.254,-27.703 -4.604,-3.153 -9.225,-2.84 -13.858,-0.067 -8.069,6.656 -22.827,11.98 -4.752,23.849 C -9.571,-2.613 -4.786,-1.306 0,0" style="fill:#b02024;fill-opacity:1;fill-rule:nonzero;stroke:none" transform="matrix(1.3333333,0,0,-1.3333333,2228.5864,3177.6821)" />
      <path id="path474" d="m 0,0 c 4.62,0.024 9.24,0.048 13.859,0.069 0.011,-4.61 0.024,-9.218 0.037,-13.826 C 9.263,-9.171 4.631,-4.586 0,0" style="fill:#ca2524;fill-opacity:1;fill-rule:nonzero;stroke:none" transform="matrix(1.3333333,0,0,-1.3333333,2215.7817,3214.7091)" />
      <path id="path475" d="M 0,0 C -5.887,3.105 -11.996,5.345 -18.813,4.818 -10.552,10.979 -3.424,12.718 0,0" style="fill:#bf2221;fill-opacity:1;fill-rule:nonzero;stroke:none" transform="matrix(1.3333333,0,0,-1.3333333,2259.4692,3183.0808)" />
      <path id="path486" d="m 0,0 c -26.939,9.423 -26.895,34.53 -32.69,56.243 1.533,7.787 3.065,15.574 4.597,23.361 1.58,0.011 3.162,0.022 4.743,0.033 C -7.963,67.62 -9.627,45.435 4.618,32.737 8.792,21.019 10.479,9.651 0,0" style="fill:#a32025;fill-opacity:1;fill-rule:nonzero;stroke:none" transform="matrix(1.3333333,0,0,-1.3333333,2278.0599,3695.024)" />
      <path id="path487" d="M 0,0 C 1.54,10.913 3.081,21.826 4.62,32.738 15.328,21.252 13.95,8.307 9.182,-5.051 6.145,-4.855 3.11,-4.657 0.075,-4.457 0.077,-2.97 0.052,-1.485 0,0" style="fill:#921f23;fill-opacity:1;fill-rule:nonzero;stroke:none" transform="matrix(1.3333333,0,0,-1.3333333,2278.0599,3695.024)" />
      <path id="path488" d="m 0,0 c -0.03,6.211 -0.059,12.422 -0.089,18.633 -0.001,0 0.057,0.057 0.057,0.057 7.26,3.574 11.057,-2.513 15.931,-5.63 2.33,-1.748 4.694,-3.464 7.262,-4.864 C 30.327,4.526 38.909,6.688 45.994,2.697 47.717,1.555 49.13,0.111 50.25,-1.625 52.927,-7.087 56.043,-12.413 56.124,-18.77 49.888,-23.45 43.652,-28.129 37.416,-32.808 35.582,-9.74 20.027,-2.319 0,0" style="fill:#a32025;fill-opacity:1;fill-rule:nonzero;stroke:none" transform="matrix(1.3333333,0,0,-1.3333333,2153.3708,3351.6041)" />
      <path id="path489" d="M 0,0 C 23.753,5.998 33.258,-6.166 26.13,-33.528 9.258,-31.106 22.355,-2.682 0.839,-4.35 -0.518,-3.609 -1.094,-2.718 -0.891,-1.676 -0.674,-0.559 -0.378,0 0,0" style="fill:#74171b;fill-opacity:1;fill-rule:nonzero;stroke:none" transform="matrix(1.3333333,0,0,-1.3333333,2153.2073,3370.5556)" />
      <path id="path490" d="m 0,0 c 0.092,-1.486 0.369,-2.936 0.836,-4.351 1.23,-1.858 2.456,-3.717 3.68,-5.583 -0.583,-14.979 -10.6,-9.568 -18.561,-8.599 -3.674,12.327 -6.069,24.796 -4.198,37.741 2.934,-3.344 5.866,-6.689 8.796,-10.038 C -6.299,6.112 -3.149,3.056 0,0" style="fill:#ca2320;fill-opacity:1;fill-rule:nonzero;stroke:none" transform="matrix(1.3333333,0,0,-1.3333333,2153.2073,3370.5556)" />
      <path id="path491" d="m 0,0 c -3.516,3.003 -7.208,5.825 -10.494,9.061 -2.995,2.948 -4.251,7.001 -1.63,10.497 3.353,4.474 6.936,1.128 9.965,-1.059 C 3.382,14.498 8.72,12.04 14.039,18.713 25.679,17.952 31.997,11.81 32.831,0.124 29.205,-1.957 28.288,-5.37 28.241,-9.208 18.829,-6.138 9.414,-3.069 0,0" style="fill:#b02124;fill-opacity:1;fill-rule:nonzero;stroke:none" transform="matrix(1.3333333,0,0,-1.3333333,2234.4499,3426.5477)" />
      <path id="path492" d="m 0,0 c 0.042,-20.793 17.761,-35.695 18.721,-56.181 -10.905,0.01 -21.809,0.02 -32.713,0.031 -5.329,3.436 -4.547,8.898 -4.662,14.062 0.089,1.032 0.177,2.063 0.248,3.095 -2.44,11.869 3.897,24.723 -4.137,35.93 C -26.717,3.844 -35.839,8.478 -32.69,18.763 -14.313,25.542 -14.736,-0.434 0,0" style="fill:#c12121;fill-opacity:1;fill-rule:nonzero;stroke:none" transform="matrix(1.3333333,0,0,-1.3333333,2209.4481,3595.0977)" />
      <path id="path493" d="m 0,0 c 4.652,-6.268 9.303,-12.536 13.955,-18.804 4.001,-11.249 8.797,-22.659 -6.112,-30.066 -9.227,2.103 -2.676,11.992 -7.92,16.068 0,0 0.004,-0.015 0.004,-0.016 0.73,6.819 -1.506,12.898 -4.669,18.747 -0.039,3.848 -0.779,7.354 -4.565,9.377 -4.539,5.509 -4.172,11.519 -1.811,17.733 1.797,2.517 3.823,2.716 6.078,0.599 C -3.36,9.092 -1.68,4.546 0,0" style="fill:#db2a23;fill-opacity:1;fill-rule:nonzero;stroke:none" transform="matrix(1.3333333,0,0,-1.3333333,2165.8613,3570.08)" />
      <path id="path494" d="m 0,0 c 3.153,-3.061 6.307,-6.121 9.46,-9.182 -1.535,-6.205 -3.069,-12.409 -4.602,-18.612 -7.802,1.538 -15.604,3.076 -23.406,4.613 -3.908,6.76 -3.011,13.461 0.232,20.13 C -12.591,0.192 -4.989,-7.743 0,0" style="fill:#b52123;fill-opacity:1;fill-rule:nonzero;stroke:none" transform="matrix(1.3333333,0,0,-1.3333333,2178.0952,3501.7904)" />
      <path id="path495" d="m 0,0 c 3.848,-6.328 4.072,-12.626 -0.161,-18.886 1.447,-4.797 2.893,-9.594 4.336,-14.395 -1.403,0.168 -2.807,0.294 -4.216,0.374 -1.637,-2.305 -3.196,-2.253 -4.677,0.156 -1.578,6.211 -3.157,12.422 -4.734,18.634 1.508,6.22 3.014,12.439 4.52,18.659 1.588,0.008 3.175,0.015 4.763,0.023 C 1.116,3.597 1.568,2.598 1.191,1.568 0.808,0.523 0.412,0 0,0" style="fill:#c32121;fill-opacity:1;fill-rule:nonzero;stroke:none" transform="matrix(1.3333333,0,0,-1.3333333,2153.5783,3507.5165)" />
      <path id="path496" d="M 0,0 C -0.08,1.521 -0.137,3.042 -0.17,4.565 4.516,9.686 9.255,3.069 13.958,4.63 15.442,4.6 16.919,4.49 18.389,4.297 17.966,-21.575 5.626,3.584 0,0" style="fill:#a82025;fill-opacity:1;fill-rule:nonzero;stroke:none" transform="matrix(1.3333333,0,0,-1.3333333,2153.5783,3507.5165)" />
      <path id="path497" d="m 0,0 c -6.264,6.196 -12.528,12.393 -18.792,18.589 -10.946,8.066 -6.466,17.277 0.968,22.835 8.62,6.444 15.572,1.732 17.787,-8.826 C 4.685,22.17 10.151,11.847 4.516,-0.026 L 2.258,-0.054 Z" style="fill:#9b2024;fill-opacity:1;fill-rule:nonzero;stroke:none" transform="matrix(1.3333333,0,0,-1.3333333,2278.2243,3426.3825)" />
      <path id="path498" d="M 0,0 C -1.518,10.875 -3.036,21.75 -4.553,32.625 11.373,26.354 3.364,10.17 9.091,-0.325 6.058,-0.218 3.029,-0.109 0,0" style="fill:#b02124;fill-opacity:1;fill-rule:nonzero;stroke:none" transform="matrix(1.3333333,0,0,-1.3333333,2284.2455,3426.4175)" />
      <path id="path506" d="m 0,0 c 5.31,-3.334 4.591,-8.804 4.923,-13.901 3.668,-4.348 13.089,-4.995 9.154,-14.233 0,0 0.035,0.084 0.036,0.085 C 6.347,-34.643 10.505,-43.73 9.173,-51.671 1.682,-35.234 -0.318,-17.823 0,0" style="fill:#c62321;fill-opacity:1;fill-rule:nonzero;stroke:none" transform="matrix(1.3333333,0,0,-1.3333333,2165.7593,3613.8164)" />
      <path id="path517" d="m 0,0 c -1.558,1.564 -3.117,3.128 -4.675,4.693 -3.953,5.41 -7.169,11.557 -14.045,14.043 -9.331,14.5 10.572,20.518 9.468,32.63 C -6.2,51.362 -3.15,51.361 -0.101,51.357 2.901,45.08 9.757,40.804 9.503,32.839 12.737,28.241 15.426,23.286 18.717,18.724 23.231,10.757 29.466,4.513 37.441,0.008 38.912,-7.678 35.847,-10.831 28.117,-9.317 28.11,-7.772 28.098,-6.226 28.082,-4.681 20.094,5.115 8.781,-5.038 0,0" style="fill:#b12124;fill-opacity:1;fill-rule:nonzero;stroke:none" transform="matrix(1.3333333,0,0,-1.3333333,2178.2653,3345.4392)" />
      <path id="path518" d="M 0,0 C -3.918,4.152 -14.034,4.256 -9.215,14.114 -3.322,13.767 -0.261,10.617 0.055,4.751 0.037,3.168 0.019,1.584 0,0" style="fill:#ab2124;fill-opacity:1;fill-rule:nonzero;stroke:none" transform="matrix(1.3333333,0,0,-1.3333333,2203.2211,3320.4733)" />
      <path id="path519" d="M 0,0 C 11.411,2.049 12.292,-6.434 14.045,-14.043 9.369,-10.919 4.693,-7.794 0.017,-4.67 0.006,-3.113 0,-1.557 0,0" style="fill:#ab2124;fill-opacity:1;fill-rule:nonzero;stroke:none" transform="matrix(1.3333333,0,0,-1.3333333,2153.3047,3320.4581)" />
      <path id="path520" d="M 0,0 C 1.556,-0.119 3.114,-0.171 4.676,-0.156 4.658,-6.393 4.64,-12.629 4.622,-18.865 -1.519,-16.164 -4.81,-11.564 -4.771,-4.747 -3.18,-3.164 -1.59,-1.582 0,0" style="fill:#a31f24;fill-opacity:1;fill-rule:nonzero;stroke:none" transform="matrix(1.3333333,0,0,-1.3333333,2147.2879,3551.1847)" />
      <path id="path527" d="m 0,0 c -2.36,-1.74 -4.719,-3.481 -7.079,-5.221 -0.813,3.382 -1.627,6.763 -2.443,10.146 2.661,7.778 -5.754,20.116 9.367,22.755 C -0.104,18.451 -0.052,9.225 0,0" style="fill:#c82320;fill-opacity:1;fill-rule:nonzero;stroke:none" transform="matrix(1.3333333,0,0,-1.3333333,2377.8803,3401.5823)" />
      <path id="path528" d="M 0,0 C -0.018,-1.523 -0.047,-3.045 -0.09,-4.567 -7.075,2.281 -5.079,10.226 -3.203,19.266 2.362,12.805 -1.209,6.025 0,0" style="fill:#9c2024;fill-opacity:1;fill-rule:nonzero;stroke:none" transform="matrix(1.3333333,0,0,-1.3333333,2359.3467,3395.4505)" />
      <path id="path534" d="M 0,0 C 3.108,3.109 6.216,6.217 9.324,9.325 15.372,4.203 16.5,-3.476 17.813,-10.311 19.317,-18.146 13.242,-15.025 9.336,-14.077 3.181,-11.402 0.035,-6.733 0,0" style="fill:#ab2124;fill-opacity:1;fill-rule:nonzero;stroke:none" transform="matrix(1.3333333,0,0,-1.3333333,2215.7547,3357.8624)" />
      <path id="path541" d="M 0,0 C 9.964,2.056 21.475,13.397 28.082,-4.681 18.703,-3.231 8.238,-8.295 0,0" style="fill:#ab2124;fill-opacity:1;fill-rule:nonzero;stroke:none" transform="matrix(1.3333333,0,0,-1.3333333,2178.2653,3345.4392)" />
      <path id="path542" d="M 0,0 C -3.053,4.743 -6.106,9.487 -9.156,14.231 7.286,19.158 -3.051,32.823 -0.045,42.133 8.158,31.576 8.183,9.01 0,0" style="fill:#d42621;fill-opacity:1;fill-rule:nonzero;stroke:none" transform="matrix(1.3333333,0,0,-1.3333333,2184.5287,3651.3288)" />
      </g></svg>