<?xml version='1.0' encoding='utf-8'?>
<svg xmlns="http://www.w3.org/2000/svg" version="1.1" width="69.732" height="101.961" viewBox="2254.740 4360.100 69.732 101.961"><g id="object"><path id="path98" d="m 0,0 c -0.353,9.479 1.049,18.701 7.786,26.301 8.271,9.332 24.076,8.332 29.873,-1.925 1.024,-1.811 3.704,-4.222 0.382,-5.933 -2.439,-1.255 -5.158,-3.78 -8.407,-1.031 -2.597,2.197 -3.669,7.026 -8.951,4.763 C 15.747,20.061 13.434,15.93 12.345,11.393 9.934,1.345 11.1,-8.802 14.179,-18.489 c 1.103,-3.471 3.976,-7.018 9.027,-6.538 4.923,0.468 6.809,3.726 7.826,7.874 0.974,3.973 1.123,7.539 -4.111,8.822 -3.925,0.962 -2.823,4.648 -2.839,7.144 -0.022,3.463 3.161,2.722 5.397,2.821 14.552,0.651 15.347,-0.323 12.329,-14.972 -0.523,-2.539 -0.929,-5.12 -1.683,-7.591 -1.849,-6.064 -4.984,-11.206 -11.569,-12.943 -8.153,-2.15 -15.17,-0.448 -20.75,6.4 C 1.269,-19.447 -0.46,-10.177 0,0" style="fill:#c33c36;fill-opacity:1;fill-rule:nonzero;stroke:none" transform="matrix(1.3333333,0,0,-1.3333333,2260.8317,4409.7355)" />
      </g></svg>