<?xml version='1.0' encoding='utf-8'?>
<svg xmlns="http://www.w3.org/2000/svg" version="1.1" width="48.190" height="100.747" viewBox="2671.660 4181.810 48.190 100.747"><g id="object"><path id="path154" d="m 0,0 c 0,9.666 0.094,20.51 -0.048,31.352 -0.054,4.128 1.411,6.256 5.735,6.119 4.964,-0.156 9.932,-0.212 14.899,-0.225 3.306,-0.01 6.336,-0.317 6.5,-4.618 0.161,-4.2 -2.385,-6.632 -6.107,-6.026 -8.503,1.384 -8.523,-3.358 -8.346,-9.538 0.147,-5.158 2.41,-7.316 7.165,-7.594 3.209,-0.187 5.444,-1.136 5.283,-5.036 -0.149,-3.585 -1.943,-5.329 -5.305,-5.167 -6.881,0.331 -6.344,-4.559 -6.936,-9.058 -0.721,-5.483 2.356,-6.959 6.856,-7.74 3.299,-0.574 7.612,-0.32 7.2,-5.74 -0.425,-5.578 -4.211,-6.04 -8.597,-5.744 -2.121,0.143 -4.258,0.043 -6.388,0.07 -11.057,0.137 -11.932,0.9 -11.555,12.202 C 0.53,-11.542 0.894,-6.367 0,0" style="fill:#494f57;fill-opacity:1;fill-rule:nonzero;stroke:none" transform="matrix(1.3333333,0,0,-1.3333333,2677.7215,4237.7801)" />
      </g></svg>