<?xml version='1.0' encoding='utf-8'?>
<svg xmlns="http://www.w3.org/2000/svg" version="1.1" width="458.959" height="1168.000" viewBox="1587.100 1412.230 458.959 1168.000"><g id="object"><path id="path13" d="M 0,0 C 0.036,1.942 -0.795,3.167 -2.833,3.306 -4.47,3.418 -5.664,2.732 -5.715,1.004 -5.772,-0.892 -4.67,-2.103 -2.804,-2.406 -1.022,-2.695 -0.264,-1.588 0,0 m -0.238,255.528 c -1.257,1.689 -2.365,4.346 -5.09,4.609 -2.469,0.238 -2.353,-2.531 -2.737,-4.144 -0.645,-2.717 1.219,-3.733 3.573,-3.863 1.997,-0.111 3.651,0.53 4.254,3.398 M -11.233,162.51 c -0.152,2.269 -1.077,4.216 -3.718,4.147 -2.304,-0.06 -4.348,-1.509 -4.242,-3.894 0.104,-2.381 2.659,-3.35 4.575,-3.83 2.372,-0.595 3.219,1.332 3.385,3.577 m -68.972,83.564 c -0.722,2.305 -2.599,2.936 -4.449,2.878 -2.27,-0.071 -4.259,-1.425 -4.429,-3.781 -0.198,-2.744 2.487,-3.567 4.378,-3.693 2.802,-0.187 3.313,2.729 4.5,4.596 M -4.704,123.778 c 3.675,4.482 1.298,8.293 1.087,11.998 -0.101,1.764 2.496,4.766 -1.312,4.646 -2.666,-0.083 -4.339,-3.005 -3.618,-5.905 0.803,-3.228 2.22,-6.303 3.843,-10.739 m -12.777,-548.222 c -0.794,3.505 -3.01,5.932 -6.185,5.937 -2.861,0.004 -2.908,-3.362 -3.015,-5.459 -0.155,-3.034 2.286,-3.698 4.831,-3.592 2.161,0.09 4.244,0.44 4.369,3.114 m 8.529,608.199 c 3.408,-0.075 6.728,2.753 6.073,4.036 -1.833,3.586 -6.99,1.824 -10.152,4.298 -1.133,0.886 -2.75,-0.738 -2.558,-2.358 0.478,-4.027 4.033,-4.705 6.637,-5.976 m 26.26,18.589 c -0.721,3.872 -4.652,4.15 -7.34,5.06 -2.247,0.762 -5.56,-0.709 -5.267,-3.996 0.425,-4.776 5.937,-2.301 8.389,-4.945 0.851,-0.918 3.67,1.228 4.218,3.881 M -9.159,-312.367 c 0.801,0.118 4.641,-0.188 3.899,2.688 -0.939,3.64 -5.088,5.12 -8.846,5.555 -2.308,0.267 -4.619,-0.999 -4.081,-3.642 0.783,-3.855 3.864,-5.049 9.028,-4.601 m -36.598,524.891 c 4.596,-2.332 3.898,-5.943 4.536,-9.089 3.424,1.657 8.149,-2.973 10.386,1.011 2.287,4.071 -2.278,5.951 -5.07,7.782 -2.44,1.601 -5.284,1.754 -9.852,0.296 m 79.469,-3.067 c -3.446,-0.097 -7.084,-4.699 -7.244,-8.423 -0.208,-4.838 3.511,-5.879 6.46,-5.298 4.779,0.942 4.072,6.404 5.422,9.848 0.909,2.317 -2.397,3.471 -4.638,3.873 M 20.909,-312.244 c -0.66,1.044 -1.622,2.121 -2.086,3.381 -1.477,4.014 -5.991,3.103 -8.588,5.505 -3.022,2.796 -5.446,3.587 -6.126,-2.544 -0.932,-8.412 -1.548,-8.271 6.836,-8.512 1.557,-0.045 3.081,-0.964 4.634,-1.435 2.986,-0.904 4.238,0.919 5.33,3.605 m 23.522,1.012 c -2.445,-0.312 -6.043,0.301 -6.524,-2.707 -0.461,-2.877 1.155,-5.924 4.504,-7.176 2.935,-1.098 5.858,-1.743 8.959,-0.55 1.776,0.683 3.731,1.293 5.06,-0.782 0.934,-1.458 1.74,-3.272 3.591,-1.243 1.427,1.565 0.293,3.518 -0.795,4.434 -4.338,3.648 -8.132,8.49 -14.795,8.024 M 29.295,139.881 c -0.201,-1.818 -1.85,-4.221 1.519,-4.323 2.212,-0.067 3.254,1.745 3.446,3.809 0.152,1.641 0.062,3.306 0.051,4.961 -0.022,3.264 -0.964,7.051 4.857,5.52 2.013,-0.53 3.295,1.538 3.619,3.595 0.612,3.877 0.15,7.766 -2.236,10.814 -1.418,1.813 -2.715,-0.459 -3.887,-1.523 -2.035,-1.847 -2.894,-0.163 -3.572,1.425 -0.996,2.331 -4.31,3.77 -4.632,2.197 -0.855,-4.173 -8.591,-3.806 -5.9,-9.395 1.625,-3.376 7.193,-4.898 4.251,-10.543 -0.463,-0.888 3.471,-3.629 2.484,-6.537 m -30.2,37.84 c -3.727,-0.365 -8.979,-2.13 -8.879,-5.002 0.149,-4.258 3.384,-11.819 5.701,-11.972 7.878,-0.519 9.193,-5.929 11.67,-11.041 2.457,-5.072 7.423,-2.859 11.238,-3.271 1.41,-0.152 1.685,4.416 0.37,4.559 -6.828,0.738 -5.793,7.056 -8.023,10.8 -1.875,3.149 -6.7,4.595 -5.436,9.801 1.25,5.148 -2.295,6.274 -6.641,6.126 M 38.951,-294.41 c 6.716,-0.021 11.305,3.271 13.617,10.653 0.922,2.944 -1.348,3.211 -2.967,3.497 -2.736,0.483 -3.45,-1.765 -4.241,-3.818 -0.895,-2.323 -2.774,-3.393 -5.09,-2.521 -2.825,1.065 -2.385,3.95 -1.085,5.299 3.648,3.783 -1.341,10.028 4.169,13.187 0.909,0.521 -0.472,2.056 -1.466,2.722 -1.707,1.145 -3.455,3.443 -5.586,1.851 -3.071,-2.292 -6.573,-4.217 -7.279,-8.884 -0.715,-4.722 2.196,-9.202 1.22,-13.346 -1.648,-6.994 0.536,-9.256 8.708,-8.64 M 2.21,-329.694 c -2.955,0.13 -5.904,-1.385 -5.459,-3.526 0.573,-2.761 2.741,-6.678 6.55,-5.5 6.549,2.026 10.994,1.618 12.523,-6.184 0.363,-1.85 2.746,-2.509 4.597,-2.944 2.976,-0.697 4.777,-3.084 6.833,-4.913 1.583,-1.407 3.143,-3.67 -0.146,-5.714 -2.547,-1.583 -3.628,-3.722 -0.237,-5.992 3.178,-2.126 6.348,-3.455 9.568,-0.519 2.002,1.825 -0.271,23.022 -2.696,23.497 -5.723,1.119 -5.939,11.249 -13.901,8.161 -0.187,-0.072 -1.172,0.978 -1.176,1.51 -0.053,6.695 -4.067,3.913 -7.143,2.951 -3.158,-0.987 -6.21,-2.479 -9.313,-0.827 m 18.603,40.226 c 1.011,-0.013 4.132,0.165 2.503,2.56 -3.434,5.048 -1.963,8.463 1.487,12.496 1.364,1.594 1.346,4.442 1.753,6.755 0.225,1.282 -0.601,2.374 -1.795,2.738 -1.274,0.387 -2.794,-0.374 -2.671,-1.568 0.666,-6.481 -2.455,-5.299 -6.189,-3.296 -1.314,0.705 -2.42,-0.088 -3.019,-1.067 -2.017,-3.302 -3.913,-3.183 -6.674,-0.624 -2.856,2.646 -6.098,4.85 -4.06,9.396 0.623,1.389 2.741,2.484 0.914,4.182 -1.399,1.301 -3.122,0.604 -4.655,-0.104 -1.734,-0.8 -4.504,-2.878 -3.569,-3.641 4.287,-3.496 -0.432,-8.196 2.337,-11.883 3.261,-4.342 -0.232,-7.818 -3.625,-8.71 -5.005,-1.318 -7.218,-4.089 -7.85,-8.632 -0.262,-1.877 -3.875,-3.593 -1.014,-5.38 2.488,-1.555 3.425,1.14 4.509,3.019 1.47,2.546 3.937,2.331 6.287,1.5 3.74,-1.323 7.729,-0.576 10.95,0.512 4.534,1.532 8.741,2.997 14.381,1.747 m -3.881,406.331 c 1.397,-2.806 2.522,-5.237 1.959,-8.935 -0.639,-4.194 3.8,-5.26 7.477,-5.162 1.888,0.05 3.721,0.947 3.254,3.545 -0.71,3.959 -8.381,10.592 -12.468,10.782 1.459,2.818 5.727,5.566 0.19,8.549 -7.068,3.808 -7.184,4.792 -2.224,11.544 1.203,1.637 4.506,3.14 1.798,5.828 -1.868,1.855 -4.47,1.468 -6.664,0.399 -2.329,-1.135 -4.49,-2.623 -6.684,-4.02 -1.288,-0.82 -2.509,-2.341 -1.067,-3.403 5.332,-3.932 1.42,-8.028 0.546,-12.066 -0.369,-1.704 -2.715,-3.774 -0.454,-4.994 2.545,-1.374 4.97,-1.55 1.931,-5.079 -2.128,-2.47 -3.13,-2.448 -6.526,-1.505 -5.112,1.419 -8.267,4.31 -11.825,7.586 -5.562,5.123 -17.206,2.743 -18.636,-3.355 -0.839,-3.578 5.255,-14.024 -6.787,-7.287 -0.15,0.084 -0.512,-0.026 -0.67,-0.165 -1.773,-1.563 -2,-4.012 -1.919,-5.852 0.17,-3.833 1.791,-7.269 5.554,-9.246 2.143,-1.125 3.365,-0.261 4.848,1.316 2.083,2.213 4.735,3.893 6.797,6.122 3.156,3.415 7.273,1.926 9.272,0.161 3.066,-2.705 0.451,-5.444 -2.647,-6.949 -4.299,-2.09 -4.818,-5.169 -2.48,-9.032 0.795,-1.314 0.582,-3.849 2.78,-3.554 2.616,0.351 1.744,2.856 2,4.616 0.279,1.918 -1.062,5.413 1.797,5.257 5.97,-0.327 10.319,-5.766 16.713,-6.051 2.336,-0.105 0.627,-4.323 2.712,-6.171 3.581,2.237 3.457,6.222 3.982,9.42 0.612,3.725 -4.045,4.41 -7.153,7.743 8.331,0.37 10.611,4.611 8.534,10.88 -2.003,6.048 0.628,8.329 6.06,9.078 M 88.27,-571.364 c 0.006,-0.918 0.011,-1.837 0.017,-2.755 -3.738,-0.526 -1.827,-2.999 -1.691,-4.874 0.583,-8.054 -1.91,-10.78 -9.937,-10.907 -6.617,-0.105 -13.198,0.816 -19.755,1.038 -11.433,0.389 -22.91,-0.881 -34.374,-1.005 -11.999,-0.131 -24.111,-0.633 -35.965,0.778 -7.046,0.839 -13.63,-2.267 -20.388,-0.554 -3.548,0.899 -6.516,1.183 -10.093,-0.784 -4.026,-2.214 -9.542,1.764 -8.728,5.994 2.356,12.244 -0.809,24.274 -0.943,36.408 -0.018,1.616 -0.919,3.522 0.883,4.488 2.282,1.223 2.356,-1.464 3.511,-2.307 1.991,-1.454 3.87,-5.595 6.813,-2.235 2.234,2.55 1.663,6.132 -1.785,7.763 -3.459,1.636 -3.975,4.922 -5.719,7.629 -3.261,5.062 -1.62,10.33 -1.813,15.551 -0.244,6.557 -2.392,13.026 -2.461,19.422 -0.186,17.349 2.796,34.629 1.525,52.075 -0.294,4.038 0.962,8.274 4.872,11.074 -2.129,1.356 -4.885,1.382 -5.515,4.253 -0.231,1.054 -1.842,1.861 -1.106,3.067 0.356,0.582 2.277,1.006 2.391,0.821 2.308,-3.723 5.302,-2.628 8.721,-1.979 1.907,0.361 4.405,-3.966 6.205,0.392 1.355,3.278 2.656,6.797 -0.026,10.054 -1.937,2.353 -4.206,4.456 -6.572,0.382 -0.833,-1.436 -1.089,-3.325 -3.451,-1.621 -3.851,2.78 -7.674,5.091 -6.656,11.179 0.738,4.405 2.889,10.267 1.384,13.121 -4.039,7.659 -2.251,14.881 -2.074,22.524 0.153,6.633 2.394,13.229 -0.585,20.145 -2.664,6.184 -0.191,12.993 1.795,19.123 1.269,3.915 5.905,1.607 8.919,2.506 1.467,0.438 2.74,1.419 2.55,2.991 -0.301,2.478 -2.095,1.718 -3.798,1.492 -7.793,-1.034 -9.459,0.425 -7.994,7.431 0.571,2.727 -0.502,4.975 -0.689,7.359 -0.504,6.421 -4.691,13.309 -1.902,18.939 3.403,6.871 3.082,12.107 -0.318,18.41 -0.762,1.413 -3.967,10.249 4.82,4.824 1.972,-1.218 2.969,0.597 3.33,2.384 0.234,1.158 1.807,2.945 -0.703,3.251 -6.449,0.787 -7.763,6.143 -7.732,10.589 0.206,30.176 -3.229,60.262 -1.766,90.477 0.756,15.606 2.075,31.325 -2.236,46.826 -0.991,3.565 -1.288,8.041 2.09,11.398 2.188,2.175 2.001,4.706 0.268,7.093 -1.356,1.867 -1.908,4.052 -1.295,6.07 2.013,6.621 0.653,13.024 -0.275,19.609 -1.278,9.075 5.684,15.205 14.779,13.781 6.555,-1.027 12.81,0.871 18.705,3.134 3.631,1.394 3.212,6.554 5.265,9.444 3.177,4.472 5.64,10.754 13.289,9.135 4.723,-1 3.933,3.862 5.708,5.903 1.445,1.662 1.022,4.309 -1.246,5.503 -2.459,1.294 -4.902,1.456 -6.633,-1.607 -1.563,-2.765 -3.814,-2.067 -4.884,0.197 -2.551,5.397 -6.216,10.361 -6.402,16.744 -0.241,8.227 -2.716,9.605 -10.191,6.008 -1.013,-0.487 -1.726,-1.695 -3.233,-1.165 -1.971,2.418 0.028,5.264 -0.297,9.816 -2.272,-3.938 -4.9,-5.04 -6.968,-6.876 -2.382,-2.116 -5.497,-4.507 -8.101,-2.718 -2.548,1.751 -2.061,6.282 -0.566,8.549 2.94,4.455 -0.759,4.183 -2.809,5.616 -2.032,1.421 -5.058,0.798 -5.845,4.975 -1.47,7.807 4.115,8.14 9.386,9.601 -11.294,6.504 -11.358,6.505 -11.183,17.107 0.325,19.622 1.644,39.242 -0.01,58.865 -0.415,4.926 -2.78,11.163 -0.654,14.52 4.434,7.001 2.271,17.263 12.427,21.789 5.791,2.581 5.959,4.186 8.551,-2.574 0.622,-1.622 0.853,-4.537 3.381,-3.54 4.815,1.899 9.667,4.134 11.384,9.797 0.513,1.695 0.363,4.456 -1.118,4.159 -5.846,-1.176 -8.59,5.063 -13.867,5.075 -4.852,0.011 -6.557,5.049 -10.092,7.304 -1.696,1.083 0.039,2.394 0.944,3.407 1.041,1.166 2.11,1.805 3.649,0.723 1.468,-1.033 1.455,-3.694 3.839,-3.59 5.878,7.723 3.69,16.765 4.208,25.296 0.215,3.54 -0.96,7.352 -3.738,9.692 -2.949,2.484 -6.503,5.381 -10.02,5.715 -3.025,0.288 -1.127,-4.27 -1.905,-6.556 -0.702,-2.061 -2.157,-2.469 -3.888,-2.004 -1.722,0.462 -3.163,1.486 -1.893,3.589 3.561,5.898 -0.891,5.781 -4.549,5.924 -3.296,0.129 -6.765,0.417 -9.878,-0.412 -5.443,-1.45 -5.432,2.61 -6.053,5.548 -0.926,4.377 2.749,3.429 5.103,3.625 3.048,0.254 6.117,0.316 9.178,0.347 1.638,0.017 3.161,0.669 3.075,2.213 -0.278,5.023 -5.656,5.905 -8.064,9.31 -1.974,2.791 -3.595,0.394 -5.169,-0.893 -2.233,-1.825 -4.303,-4.879 -6.749,-5.222 -7.574,-1.062 -8.471,-2.461 -4.559,-9.56 0.843,-1.531 2.118,-3.125 1.183,-5.739 -4.702,4.079 -11.183,-1.153 -15.775,3.632 -0.557,0.581 -1.38,0.325 -1.488,-0.503 -0.479,-3.648 -4.825,-6.414 -2.881,-10.418 1.063,-2.189 0.934,-4.034 -0.699,-4.959 -3.999,-2.264 -9.463,-3.035 -7.767,-9.837 0.056,-0.225 -2.498,-1.727 -3.635,-1.523 -8.01,1.438 -15.399,0.73 -22.634,-3.625 -4.515,-2.718 -10.294,-0.632 -15.337,-2.066 0,0 -0.125,0.118 -0.124,0.118 0.187,0.961 -0.262,1.48 -1.169,1.68 -0.402,0.196 -0.484,0.484 -0.246,0.863 2.239,13.167 0.342,26.381 0.385,39.571 0.002,0.751 -0.908,1.505 -1.393,2.257 0.011,0.942 0.021,1.884 0.032,2.826 2.214,2.492 2.744,4.949 -0.151,7.336 -1.028,2.665 -0.888,5.371 -0.281,8.093 2.674,1.976 2.66,4.018 0.151,6.122 -1.462,4.125 -0.933,8.235 0.085,12.343 2.696,2.555 2.693,5.085 -0.072,7.588 -0.718,3.894 -2.429,7.938 1.682,11.1 8.266,-0.157 16.541,-0.799 24.776,0.513 0.687,-0.033 1.374,-0.065 2.061,-0.098 3.035,-2.958 5.159,-0.75 7.312,1.29 l 2.751,-0.296 c 3.452,-2.27 6.869,-3.051 10.186,0.246 4.412,1.563 8.513,-0.828 12.789,-1.005 2.751,-2.023 5.51,-3.88 8.532,-0.421 3.741,1.958 7.428,0.163 11.137,-0.16 2.656,-2.342 5.185,-3.165 7.328,0.614 1.435,0.696 2.833,0.388 4.222,-0.151 7.351,-2.263 14.854,-0.794 22.286,-0.803 5.227,-0.007 7.244,-2.481 7.085,-7.439 -0.05,-1.545 -2.276,-4.217 0.932,-4.409 2.696,-0.161 4.02,2.535 3.698,5.079 -0.366,2.88 -0.953,5.491 2.717,6.545 0.633,0.129 1.265,0.257 1.898,0.386 2.316,-0.119 4.724,-0.752 6.679,1.181 1.899,0.036 3.831,0.279 5.541,-0.877 3.516,-1.741 -0.073,-5.845 2.494,-8.068 4.365,7.433 4.368,7.313 14.32,7.583 3.429,0.093 7.053,-0.828 10.287,1.185 2.443,0.318 4.858,0.359 7.169,-0.69 8.474,-1.101 16.9,-1.289 25.181,1.315 2.513,-0.459 5.026,-0.917 7.539,-1.376 2.914,-2.64 5.848,-2.873 8.808,-0.076 0.938,0.146 1.876,0.292 2.812,0.438 4.637,-1.245 9.272,-1.515 13.899,0.054 1.56,0.028 3.12,0.056 4.679,0.084 7.568,-1.595 15.236,-1.203 22.799,-0.444 5.118,0.513 10.603,-2.678 15.366,1.392 1.433,0.57 2.839,0.465 4.226,-0.162 5.587,-2.965 11.019,-2.067 16.377,0.659 2.196,-0.448 4.392,-0.895 6.588,-1.343 4.659,-1.654 9.29,-1.47 13.898,0.209 1.518,-0.042 3.036,-0.084 4.553,-0.126 1.957,-1.717 4.236,-1.23 6.485,-0.948 2.001,-3.061 1.899,-6.437 1.473,-9.862 -1.618,-1.308 -1.603,-2.676 -0.149,-4.097 0.065,-2.896 0.13,-5.792 0.195,-8.688 -1.551,-1.398 -1.609,-2.788 0.022,-4.17 -0.021,-3.829 -0.041,-7.658 -0.062,-11.488 -2.129,-5.72 -5.882,-11.468 0.299,-17.042 0.009,-0.929 0.018,-1.859 0.028,-2.788 -1.859,-0.907 -3.164,-2.395 -2.476,-4.434 2.23,-6.609 0.662,-13.374 1.138,-20.043 0.172,-2.422 -0.745,-5.251 2.047,-6.931 0.042,-0.578 0.085,-1.157 0.125,-1.733 -0.493,0.109 -1.096,0.442 -1.118,-0.459 -0.002,-0.07 0.675,-0.155 1.037,-0.233 0.273,-0.365 0.235,-0.694 -0.115,-0.988 0.008,-0.979 0.016,-1.956 0.025,-2.934 0.265,-0.867 0.044,-1.542 -0.783,-1.976 -5.097,-0.636 -9.749,2.752 -14.456,2.391 -10.935,-0.837 -21.868,-0.316 -32.786,-0.907 -14.511,-0.787 -29.031,-1.42 -43.554,-1.928 -3.075,-0.108 -6.08,-0.39 -6.78,-3.664 -1.074,-5.02 -2.029,-10.203 -1.965,-15.304 0.189,-15.234 1.805,-30.425 1.496,-45.695 -0.061,-3.043 -1.379,-6.734 2.064,-9.133 0.087,-1.289 0.174,-2.578 0.261,-3.868 -2.231,-0.046 -3.587,-1.027 -3.549,-3.41 0.11,-6.887 2.474,-13.702 0.356,-20.706 -0.402,-1.331 1.771,-1.847 3.246,-1.873 0.038,-1.784 0.076,-3.567 0.114,-5.351 -3.812,-3.864 -3.868,-7.761 -0.102,-11.691 0.147,-0.893 0.295,-1.785 0.442,-2.678 -1.443,-0.976 -1.363,-1.929 0.044,-2.861 -0.11,-0.895 -0.22,-1.79 -0.33,-2.686 -3.861,-2.969 -3.611,-5.898 0.084,-8.794 0.075,-0.909 0.149,-1.818 0.224,-2.728 -3.139,-7.359 -0.06,-15.323 -2.173,-22.824 -0.299,-1.064 1.569,-1.466 2.762,-1.593 0.757,-2.298 0.39,-4.6 0.032,-6.902 -0.018,-0.656 -0.037,-1.312 -0.055,-1.969 0.379,-1.628 0.897,-3.254 0.092,-4.905 -3.11,-3.398 -3.099,-6.855 -0.197,-10.367 0.079,-0.812 0.158,-1.623 0.236,-2.434 -2.358,-1.247 -2.19,-2.313 0.23,-3.219 0.015,-0.836 0.031,-1.672 0.046,-2.507 -3.751,-3.35 -3.386,-6.797 -0.245,-10.31 -0.033,-0.816 -0.066,-1.631 -0.099,-2.447 -2.888,-2.471 -3.045,-4.978 -0.097,-7.524 0.274,-2.78 0.548,-5.56 0.821,-8.34 -2.139,-2.825 -2.051,-5.657 -0.028,-8.495 0.076,-2.844 0.153,-5.687 0.23,-8.53 -2.485,-2.84 -2.015,-5.697 -0.048,-8.562 -0.042,-0.954 -0.085,-1.909 -0.128,-2.864 -1.684,-2.616 -2.071,-5.361 -2.175,-8.555 -0.218,-6.677 0.494,-13.738 -4.66,-19.41 -1.958,-2.155 -2.398,-4.757 1.165,-6.209 2.346,-0.955 3.963,-3.501 2.635,-4.972 -4.644,-5.147 -1.608,-8.836 1.26,-13.03 0.816,-1.194 0.682,-3.235 0.548,-4.852 -1.556,-18.718 2.608,-37.409 0.142,-56.163 -0.551,-4.198 -0.268,-8.904 3.757,-12.046 -0.035,-0.859 -0.069,-1.718 -0.103,-2.577 -6.049,-3.551 -3.172,-6.874 0.26,-10.183 0.552,-1.857 0.452,-3.684 -0.254,-5.482 -3.229,-0.954 -2.358,-3.728 -2.487,-5.926 -0.131,-2.209 -0.112,-4.403 -2.575,-5.325 -3.338,-1.25 -2.77,-2.744 -1.069,-5.281 2.211,-3.298 5.496,-7.556 4.196,-10.931 -3.406,-8.839 3.957,-17.246 -0.085,-26.046 -1.088,-2.369 2.776,-7.427 0.103,-9.207 -3.2,-2.131 -5.765,2.847 -8.965,3.99 -0.815,0.29 -1.542,0.829 -4.468,2.448 2.007,0.664 3.084,0.763 3.834,1.31 4.191,3.058 5.125,8.146 1.944,11.034 -3.938,3.578 -8.213,-0.328 -11.8,-3.114 -5.009,-3.89 -0.992,-5.771 1.674,-7.996 1.65,-1.376 1.616,-3.305 1.71,-5.207 0.186,-3.761 -1.761,-8.896 6.071,-6.07 3.009,1.087 7.282,-1.725 9.348,-5.252 0.927,-1.581 1.802,-2.722 3.718,-2.705 0.045,-0.83 0.09,-1.659 0.135,-2.489 -2.521,-1.102 -2.424,-2.147 0.069,-3.138 0.013,-0.858 0.028,-1.716 0.041,-2.574 -3.829,-2.946 -3.586,-5.87 0.046,-8.777 0.094,-2.334 0.187,-4.668 0.281,-7.002 -2.773,-8.606 -0.485,-17.621 -2.05,-26.347 -0.181,-1.012 1.318,-2.325 2.038,-3.499 0.09,-0.94 0.181,-1.879 0.272,-2.819 -1.686,-0.758 -2.361,-1.922 -2.302,-3.897 0.802,-26.777 1.527,-53.555 2.246,-80.334 0.405,-15.087 0.206,-30.164 1.03,-45.273 1.067,-19.556 0.674,-39.223 0.14,-58.821 -0.187,-6.868 -0.284,-13.563 1.596,-20.123 0.466,-1.626 -3.631,-4.86 1.528,-4.949" style="fill:#08282e;fill-opacity:1;fill-rule:nonzero;stroke:none" transform="matrix(1.3333333,0,0,-1.3333333,1807.0493,1780.9623)" />
      <path id="path22" d="m 0,0 c -4.463,-2.051 -8.645,-1.138 -11.291,-4.558 -0.924,-1.195 -2.705,-1.867 -1.076,-4.032 1.632,-2.171 2.408,-0.774 3.836,0.073 C -5.447,-6.687 -2.835,-4.453 0,0 m -66.57,-21.44 c 5.042,1.434 10.822,-0.652 15.337,2.066 7.234,4.355 14.623,5.063 22.633,3.625 1.138,-0.205 3.691,1.298 3.635,1.523 -1.696,6.802 3.769,7.573 7.767,9.837 1.633,0.924 1.762,2.77 0.7,4.959 -1.944,4.004 2.402,6.77 2.88,10.418 0.108,0.828 0.931,1.083 1.488,0.503 4.592,-4.785 11.074,0.447 15.775,-3.633 0.935,2.614 -0.339,4.209 -1.183,5.739 -3.912,7.1 -3.015,8.498 4.559,9.561 2.447,0.343 4.516,3.397 6.749,5.222 1.574,1.287 3.195,3.683 5.169,0.893 2.409,-3.405 7.786,-4.287 8.065,-9.311 C 27.089,18.419 25.566,17.767 23.928,17.75 20.867,17.719 17.799,17.657 14.75,17.403 12.397,17.207 8.721,18.154 9.647,13.778 10.268,10.84 10.258,6.78 15.7,8.229 c 3.113,0.83 6.583,0.542 9.878,0.413 3.658,-0.143 8.11,-0.026 4.549,-5.924 -1.27,-2.103 0.171,-3.127 1.893,-3.589 1.731,-0.465 3.187,-0.057 3.888,2.004 0.778,2.286 -1.12,6.844 1.905,6.556 3.517,-0.334 7.072,-3.231 10.021,-5.715 2.777,-2.34 3.953,-6.153 3.738,-9.692 -0.518,-8.531 1.669,-17.573 -4.209,-25.296 -2.384,-0.104 -2.37,2.557 -3.839,3.59 -1.539,1.082 -2.608,0.442 -3.649,-0.723 -0.904,-1.013 -2.64,-2.324 -0.943,-3.407 3.534,-2.255 5.239,-7.293 10.091,-7.304 5.278,-0.012 8.022,-6.251 13.868,-5.076 1.48,0.298 1.63,-2.464 1.117,-4.158 -1.717,-5.663 -6.569,-7.898 -11.384,-9.797 -2.528,-0.997 -2.759,1.918 -3.381,3.54 -2.592,6.759 -2.76,5.155 -8.551,2.574 -10.156,-4.526 -7.993,-14.788 -12.427,-21.789 -2.126,-3.357 0.239,-9.594 0.654,-14.52 1.654,-19.623 0.336,-39.243 0.011,-58.865 -0.176,-10.602 -0.112,-10.603 11.182,-17.107 -5.271,-1.461 -10.856,-1.794 -9.386,-9.601 0.787,-4.177 3.813,-3.554 5.845,-4.975 2.05,-1.433 5.749,-1.161 2.809,-5.617 -1.495,-2.266 -1.982,-6.797 0.567,-8.548 2.603,-1.789 5.718,0.602 8.101,2.718 2.067,1.836 4.696,2.938 6.967,6.876 0.326,-4.552 -1.674,-7.398 0.297,-9.817 1.507,-0.53 2.22,0.678 3.234,1.166 7.475,3.596 9.949,2.219 10.19,-6.008 0.186,-6.383 3.851,-11.348 6.402,-16.744 1.07,-2.264 3.321,-2.962 4.884,-0.197 1.731,3.063 4.175,2.9 6.633,1.607 2.268,-1.194 2.692,-3.841 1.246,-5.503 -1.775,-2.042 -0.985,-6.903 -5.708,-5.903 -7.649,1.619 -10.112,-4.663 -13.288,-9.135 -2.054,-2.891 -1.635,-8.05 -5.266,-9.444 -5.895,-2.263 -12.149,-4.161 -18.705,-3.134 -9.095,1.424 -16.057,-4.707 -14.778,-13.781 0.927,-6.586 2.287,-12.988 0.275,-19.609 -0.614,-2.019 -0.062,-4.203 1.294,-6.071 1.733,-2.386 1.92,-4.918 -0.268,-7.092 -3.378,-3.357 -3.081,-7.833 -2.09,-11.399 4.311,-15.5 2.993,-31.219 2.237,-46.825 -1.464,-30.216 1.972,-60.301 1.765,-90.477 -0.03,-4.447 1.283,-9.802 7.733,-10.589 2.51,-0.306 0.936,-2.094 0.702,-3.251 -0.361,-1.787 -1.357,-3.602 -3.329,-2.385 -8.788,5.425 -5.583,-3.41 -4.821,-4.823 3.401,-6.303 3.721,-11.539 0.318,-18.41 -2.788,-5.63 1.398,-12.518 1.902,-18.94 0.187,-2.383 1.26,-4.631 0.69,-7.358 -1.465,-7.006 0.2,-8.465 7.993,-7.431 1.703,0.226 3.497,0.986 3.798,-1.492 0.191,-1.572 -1.082,-2.554 -2.55,-2.991 -3.013,-0.899 -7.65,1.409 -8.919,-2.507 -1.986,-6.129 -4.459,-12.938 -1.795,-19.122 2.979,-6.917 0.738,-13.512 0.585,-20.145 -0.177,-7.643 -1.965,-14.865 2.074,-22.524 1.505,-2.854 -0.646,-8.716 -1.383,-13.121 -1.019,-6.088 2.805,-8.4 6.655,-11.179 2.363,-1.705 2.618,0.184 3.452,1.62 2.365,4.075 4.634,1.972 6.572,-0.381 2.682,-3.257 1.38,-6.776 0.025,-10.054 -1.8,-4.358 -4.298,-0.031 -6.204,-0.393 -3.42,-0.649 -6.414,-1.743 -8.721,1.98 -0.115,0.185 -2.036,-0.239 -2.392,-0.821 -0.736,-1.206 0.875,-2.013 1.106,-3.067 0.63,-2.871 3.386,-2.897 5.516,-4.253 -3.911,-2.801 -5.167,-7.037 -4.873,-11.074 1.271,-17.446 -1.711,-34.726 -1.524,-52.076 0.068,-6.395 2.216,-12.865 2.46,-19.422 0.194,-5.22 -1.448,-10.488 1.813,-15.55 1.745,-2.708 2.26,-5.994 5.72,-7.63 3.448,-1.63 4.018,-5.213 1.785,-7.762 -2.943,-3.36 -4.823,0.78 -6.814,2.235 -1.155,0.843 -1.229,3.53 -3.511,2.307 -1.802,-0.966 -0.901,-2.873 -0.883,-4.488 0.134,-12.135 3.299,-24.165 0.943,-36.409 -0.814,-4.23 4.702,-8.208 8.728,-5.993 3.577,1.966 6.545,1.683 10.093,0.784 6.758,-1.713 13.342,1.393 20.388,0.554 11.854,-1.412 23.966,-0.909 35.965,-0.779 11.464,0.125 22.942,1.395 34.374,1.006 6.557,-0.222 13.138,-1.143 19.755,-1.039 8.027,0.128 10.52,2.853 9.937,10.908 -0.135,1.875 -2.046,4.348 1.691,4.874 3.087,-5.369 1.23,-11.031 0.674,-16.508 -0.305,-3.011 -3.212,-3.503 -6.06,-3.678 -21.047,-1.297 -42.102,-0.208 -63.151,-0.356 -20.794,-0.146 -41.591,-0.041 -62.384,-0.257 -9.083,-0.094 -12.26,2.093 -12.793,11.003 -1.861,31.124 -1.168,62.294 -1.355,93.449 -0.12,19.793 -0.805,39.584 -0.785,59.376 0.02,20.61 -0.691,41.237 -1.316,61.792 -0.573,18.852 0.769,37.673 -0.561,56.552 -1.551,22.002 -0.55,44.172 -1.614,66.223 -0.876,18.146 0.386,36.289 -1.035,54.449 -0.613,7.835 1.027,16.273 0.188,23.909 -1.37,12.46 -1.407,24.87 -1.29,37.232 0.245,25.997 -1.729,51.952 -0.134,78.025 0.618,10.102 -0.264,20.834 -1.013,31.271 -1.159,16.175 1.213,32.4 0.305,48.655 -0.785,14.042 -0.775,28.129 -1.105,42.197 -0.326,13.848 -0.576,27.698 -0.978,41.544 -0.252,8.665 3.186,16.383 5.875,24.307 0.074,0.22 0.238,0.409 0.352,0.616 1.83,3.319 1.275,8.518 7.534,8.296 1.505,-0.054 4.6,2.421 3.478,5.17 -0.944,2.315 -3.406,2.773 -6.089,2.36 -5.437,-0.835 -10.688,-1.149 -10.095,7.068 0.185,2.575 -0.023,4.836 3.454,4.833 3.064,-0.004 3.549,2.064 3.012,4.357 -0.651,2.786 -2.715,3.578 -5.426,2.95 -12.608,-2.921 -25.291,-0.306 -37.917,-0.662 -5.985,-0.169 -12.507,-0.315 -17.922,0.244 -11.876,1.227 -22.392,-5.329 -33.901,-3.468 -1.549,0.25 -2.735,0.614 -2.941,2.371" style="fill:#494f57;fill-opacity:1;fill-rule:nonzero;stroke:none" transform="matrix(1.3333333,0,0,-1.3333333,1686.8677,1526.7739)" />
      <path id="path201" d="m 0,0 c -5.16,0.089 -1.062,3.323 -1.528,4.949 -1.88,6.56 -1.783,13.255 -1.596,20.123 0.534,19.599 0.926,39.265 -0.141,58.821 -0.824,15.109 -0.625,30.186 -1.03,45.273 -0.718,26.779 -1.444,53.558 -2.245,80.334 -0.059,1.975 0.616,3.139 2.301,3.897 2.114,-2.38 1.49,-5.318 1.532,-8.065 0.482,-31.149 1.792,-62.275 1.83,-93.442 C -0.834,76.676 0.194,41.464 0.733,6.25 0.765,4.171 0.257,2.083 0,0" style="fill:#494f57;fill-opacity:1;fill-rule:nonzero;stroke:none" transform="matrix(1.3333333,0,0,-1.3333333,1924.7432,2542.7812)" />
      <path id="path219" d="m 0,0 c -3.443,2.399 -2.125,6.09 -2.064,9.133 0.309,15.269 -1.307,30.461 -1.496,45.695 -0.063,5.1 0.891,10.284 1.965,15.304 0.7,3.274 3.706,3.556 6.781,3.663 14.522,0.509 29.043,1.142 43.553,1.928 10.918,0.592 21.851,0.07 32.786,0.908 4.708,0.361 9.36,-3.027 14.456,-2.391 -1.235,-4.762 -5.159,-2.401 -7.63,-2.404 C 70.408,71.815 52.474,72.712 34.515,72.001 24.715,71.613 14.963,70.116 5.084,71.005 1.254,71.35 0.826,67.87 0.796,64.974 0.696,55.537 0.828,46.097 0.708,36.66 0.554,24.439 0.243,12.22 0,0" style="fill:#494f57;fill-opacity:1;fill-rule:nonzero;stroke:none" transform="matrix(1.3333333,0,0,-1.3333333,1910.1251,1651.798)" />
      <path id="path220" d="m 0,0 c -1.917,-0.016 -2.792,1.124 -3.718,2.705 -2.066,3.527 -6.339,6.339 -9.348,5.253 -7.832,-2.827 -5.885,2.308 -6.071,6.069 -0.094,1.902 -0.061,3.831 -1.711,5.207 -2.666,2.225 -6.683,4.106 -1.674,7.997 3.588,2.786 7.862,6.691 11.801,3.113 3.18,-2.888 2.247,-7.976 -1.945,-11.034 -0.75,-0.547 -1.826,-0.646 -3.833,-1.31 2.925,-1.619 3.652,-2.157 4.467,-2.448 3.201,-1.143 5.766,-6.121 8.966,-3.99 2.673,1.78 -1.191,6.838 -0.104,9.207 4.042,8.8 -3.321,17.208 0.086,26.047 1.3,3.374 -1.985,7.632 -4.197,10.93 -1.701,2.537 -2.268,4.032 1.069,5.281 2.464,0.922 2.445,3.116 2.575,5.325 0.13,2.198 -0.741,4.972 2.488,5.926 2.394,-3.76 1.395,-8.372 0.306,-11.522 C -4.074,53.406 1.154,44.91 0.377,35.775 -0.628,23.948 1.321,11.931 0,0" style="fill:#494f57;fill-opacity:1;fill-rule:nonzero;stroke:none" transform="matrix(1.3333333,0,0,-1.3333333,1917.9832,2182.7251)" />
      <path id="path223" d="m 0,0 c -4.025,3.142 -4.308,7.848 -3.756,12.046 2.465,18.754 -1.699,37.445 -0.143,56.163 0.134,1.617 0.269,3.658 -0.548,4.852 -2.868,4.194 -5.904,7.883 -1.26,13.03 1.328,1.471 -0.289,4.017 -2.635,4.972 -3.563,1.452 -3.123,4.054 -1.165,6.209 5.155,5.672 4.442,12.733 4.66,19.41 0.104,3.194 0.491,5.939 2.175,8.555 3.101,-9.139 0.381,-18.506 1.049,-27.756 0.668,-9.252 1.38,-18.668 1.024,-27.798 C -1.334,50.788 2.619,31.941 -0.543,13.082 -1.269,8.747 1.869,4.457 0,0" style="fill:#494f57;fill-opacity:1;fill-rule:nonzero;stroke:none" transform="matrix(1.3333333,0,0,-1.3333333,1916.5795,2059.3649)" />
      <path id="path325" d="m 0,0 c -3.67,-1.054 -3.083,-3.665 -2.717,-6.545 0.322,-2.544 -1.002,-5.24 -3.698,-5.079 -3.208,0.192 -0.982,2.864 -0.932,4.409 0.159,4.957 -1.858,7.432 -7.085,7.438 -7.432,0.01 -14.935,-1.459 -22.286,0.804 C -24.392,3.749 -12.132,4.177 0,0" style="fill:#494f57;fill-opacity:1;fill-rule:nonzero;stroke:none" transform="matrix(1.3333333,0,0,-1.3333333,1767.0547,1422.8247)" />
      <path id="path348" d="m 0,0 c 0.485,-0.752 1.395,-1.506 1.392,-2.257 -0.042,-13.19 1.855,-26.404 -0.384,-39.571 -0.45,0.509 -1.3,1.026 -1.291,1.528 C -0.055,-26.867 -1.969,-13.417 0,0" style="fill:#494f57;fill-opacity:1;fill-rule:nonzero;stroke:none" transform="matrix(1.3333333,0,0,-1.3333333,1594.7111,1496.0421)" />
      <path id="path363" d="m 0,0 c -4.763,-4.07 -10.249,-0.879 -15.367,-1.392 -7.563,-0.759 -15.231,-1.151 -22.799,0.444 8.147,3.973 16.828,0.56 25.249,1.651 C -8.897,1.224 -4.193,1.953 0,0" style="fill:#494f57;fill-opacity:1;fill-rule:nonzero;stroke:none" transform="matrix(1.3333333,0,0,-1.3333333,1966.3497,1420.0421)" />
      <path id="path370" d="m 0,0 c -3.234,-2.013 -6.858,-1.093 -10.287,-1.186 -9.952,-0.269 -9.955,-0.15 -14.32,-7.582 -2.567,2.222 1.022,6.327 -2.494,8.068 C -18.153,2.866 -9.104,2.483 0,0" style="fill:#494f57;fill-opacity:1;fill-rule:nonzero;stroke:none" transform="matrix(1.3333333,0,0,-1.3333333,1822.0135,1420.9712)" />
      <path id="path373" d="m 0,0 c -1.475,0.026 -3.648,0.542 -3.245,1.873 2.117,7.005 -0.247,13.819 -0.357,20.707 -0.038,2.383 1.318,3.363 3.549,3.41 C 0.278,17.327 1.835,8.667 0,0" style="fill:#494f57;fill-opacity:1;fill-rule:nonzero;stroke:none" transform="matrix(1.3333333,0,0,-1.3333333,1910.544,1691.6083)" />
      <path id="path375" d="M 0,0 C -0.72,1.174 -2.219,2.487 -2.038,3.499 -0.473,12.225 -2.761,21.24 0.012,29.846 2.414,19.897 2.307,9.948 0,0" style="fill:#494f57;fill-opacity:1;fill-rule:nonzero;stroke:none" transform="matrix(1.3333333,0,0,-1.3333333,1918.7292,2254.4927)" />
      <path id="path376" d="m 0,0 c -2.791,1.68 -1.875,4.509 -2.047,6.931 -0.475,6.669 1.092,13.434 -1.138,20.043 -0.688,2.039 0.617,3.527 2.476,4.434 C 1.392,20.981 0.55,10.487 0,0" style="fill:#494f57;fill-opacity:1;fill-rule:nonzero;stroke:none" transform="matrix(1.3333333,0,0,-1.3333333,2039.2049,1541.7144)" />
      <path id="path400" d="m 0,0 c -1.193,0.127 -3.062,0.53 -2.762,1.594 2.113,7.5 -0.966,15.464 2.172,22.823 C 2.075,16.338 0.792,8.163 0,0" style="fill:#494f57;fill-opacity:1;fill-rule:nonzero;stroke:none" transform="matrix(1.3333333,0,0,-1.3333333,1911.9644,1773.2161)" />
      <path id="path413" d="M 0,0 C -8.235,-1.312 -16.511,-0.669 -24.776,-0.513 -16.585,2.908 -8.337,3.587 0,0" style="fill:#494f57;fill-opacity:1;fill-rule:nonzero;stroke:none" transform="matrix(1.3333333,0,0,-1.3333333,1629.6736,1421.4812)" />
      <path id="path414" d="M 0,0 C -8.28,-2.604 -16.706,-2.416 -25.18,-1.315 -16.94,2.059 -8.505,1.692 0,0" style="fill:#494f57;fill-opacity:1;fill-rule:nonzero;stroke:none" transform="matrix(1.3333333,0,0,-1.3333333,1865.1461,1420.1385)" />
      <path id="path436" d="M 0,0 C -6.18,5.574 -2.427,11.323 -0.298,17.042 1.665,11.394 0.314,5.688 0,0" style="fill:#494f57;fill-opacity:1;fill-rule:nonzero;stroke:none" transform="matrix(1.3333333,0,0,-1.3333333,2038.222,1496.12)" />
      <path id="path463" d="M 0,0 C -5.358,-2.726 -10.789,-3.624 -16.376,-0.659 -10.925,-0.264 -5.553,2.115 0,0" style="fill:#494f57;fill-opacity:1;fill-rule:nonzero;stroke:none" transform="matrix(1.3333333,0,0,-1.3333333,1993.8193,1419.3791)" />
      <path id="path484" d="M 0,0 C -4.608,-1.679 -9.24,-1.863 -13.898,-0.209 -9.306,2.583 -4.662,1.897 0,0" style="fill:#494f57;fill-opacity:1;fill-rule:nonzero;stroke:none" transform="matrix(1.3333333,0,0,-1.3333333,2021.1351,1420.8915)" />
      <path id="path514" d="M 0,0 C -4.627,-1.569 -9.262,-1.299 -13.899,-0.054 -9.275,2.404 -4.641,2.249 0,0" style="fill:#494f57;fill-opacity:1;fill-rule:nonzero;stroke:none" transform="matrix(1.3333333,0,0,-1.3333333,1909.224,1421.4184)" />
      <path id="path524" d="M 0,0 C -3.766,3.93 -3.71,7.827 0.102,11.691 1.05,7.786 0.795,3.891 0,0" style="fill:#494f57;fill-opacity:1;fill-rule:nonzero;stroke:none" transform="matrix(1.3333333,0,0,-1.3333333,1910.5596,1714.3303)" />
      <path id="path538" d="M 0,0 C -3.432,3.309 -6.309,6.632 -0.259,10.184 -0.308,6.786 1.154,3.426 0,0" style="fill:#494f57;fill-opacity:1;fill-rule:nonzero;stroke:none" transform="matrix(1.3333333,0,0,-1.3333333,1916.7888,2076.3785)" />
      <path id="path558" d="M 0,0 C -2.903,3.512 -2.913,6.969 0.196,10.367 1.752,6.881 1.276,3.433 0,0" style="fill:#494f57;fill-opacity:1;fill-rule:nonzero;stroke:none" transform="matrix(1.3333333,0,0,-1.3333333,1911.7937,1805.4067)" />
      <path id="path559" d="M 0,0 C -3.141,3.513 -3.506,6.96 0.245,10.309 1.588,6.839 0.874,3.418 0,0" style="fill:#494f57;fill-opacity:1;fill-rule:nonzero;stroke:none" transform="matrix(1.3333333,0,0,-1.3333333,1912.1492,1830.0324)" />
      <path id="path577" d="M 0,0 C -3.318,-3.297 -6.734,-2.516 -10.186,-0.246 -6.803,0.329 -3.432,1.436 0,0" style="fill:#494f57;fill-opacity:1;fill-rule:nonzero;stroke:none" transform="matrix(1.3333333,0,0,-1.3333333,1659.4203,1419.9579)" />
      <path id="path596" d="M 0,0 C -3.632,2.907 -3.875,5.831 -0.046,8.777 1.234,5.858 1.25,2.932 0,0" style="fill:#494f57;fill-opacity:1;fill-rule:nonzero;stroke:none" transform="matrix(1.3333333,0,0,-1.3333333,1918.3711,2205.362)" />
      <path id="path600" d="M 0,0 C -1.967,2.865 -2.438,5.721 0.048,8.561 2.001,5.697 2.242,2.841 0,0" style="fill:#494f57;fill-opacity:1;fill-rule:nonzero;stroke:none" transform="matrix(1.3333333,0,0,-1.3333333,1913.1883,1888.5629)" />
      <path id="path601" d="M 0,0 C -2.022,2.839 -2.11,5.67 0.029,8.495 1.659,5.658 2.239,2.824 0,0" style="fill:#494f57;fill-opacity:1;fill-rule:nonzero;stroke:none" transform="matrix(1.3333333,0,0,-1.3333333,1912.9447,1865.7744)" />
      <path id="path608" d="M 0,0 C -3.695,2.896 -3.945,5.825 -0.084,8.794 0.464,5.868 0.912,2.94 0,0" style="fill:#494f57;fill-opacity:1;fill-rule:nonzero;stroke:none" transform="matrix(1.3333333,0,0,-1.3333333,1910.88,1737.022)" />
      <path id="path616" d="M 0,0 C -2.96,-2.798 -5.894,-2.565 -8.808,0.076 -5.863,1.065 -2.929,0.886 0,0" style="fill:#494f57;fill-opacity:1;fill-rule:nonzero;stroke:none" transform="matrix(1.3333333,0,0,-1.3333333,1886.9423,1422.0737)" />
      <path id="path619" d="M 0,0 C -3.022,-3.459 -5.781,-1.602 -8.532,0.421 -5.597,2.131 -2.82,0.621 0,0" style="fill:#494f57;fill-opacity:1;fill-rule:nonzero;stroke:none" transform="matrix(1.3333333,0,0,-1.3333333,1687.8479,1421.8592)" />
      <path id="path638" d="M 0,0 C -2.153,-2.04 -4.277,-4.248 -7.312,-1.29 -4.979,-0.274 -2.901,2.198 0,0" style="fill:#494f57;fill-opacity:1;fill-rule:nonzero;stroke:none" transform="matrix(1.3333333,0,0,-1.3333333,1642.1709,1419.8921)" />
      <path id="path650" d="M 0,0 C -2.948,2.547 -2.792,5.053 0.097,7.524 1.609,4.996 1.273,2.492 0,0" style="fill:#494f57;fill-opacity:1;fill-rule:nonzero;stroke:none" transform="matrix(1.3333333,0,0,-1.3333333,1911.8884,1843.3276)" />
      <path id="path656" d="M 0,0 C -2.143,-3.779 -4.672,-2.956 -7.329,-0.614 -4.97,0.596 -2.538,0.932 0,0" style="fill:#494f57;fill-opacity:1;fill-rule:nonzero;stroke:none" transform="matrix(1.3333333,0,0,-1.3333333,1712.4685,1421.2544)" />
      <path id="path1015" d="m 0,0 c -5.429,-0.745 -8.06,-3.025 -6.057,-9.074 2.077,-6.269 -0.203,-10.51 -8.534,-10.879 3.108,-3.334 7.765,-4.019 7.154,-7.743 -0.526,-3.198 -0.402,-7.184 -3.983,-9.421 -2.085,1.849 -0.376,6.067 -2.712,6.171 -6.394,0.285 -10.742,5.724 -16.713,6.051 -2.859,0.156 -1.517,-3.339 -1.796,-5.256 -0.257,-1.76 0.615,-4.266 -2.001,-4.617 -2.197,-0.295 -1.984,2.24 -2.78,3.554 -2.338,3.863 -1.819,6.942 2.481,9.032 3.097,1.505 5.712,4.244 2.647,6.95 -1.999,1.764 -6.117,3.253 -9.273,-0.162 -2.061,-2.229 -4.714,-3.909 -6.797,-6.122 -1.483,-1.576 -2.705,-2.441 -4.848,-1.315 -3.763,1.977 -5.384,5.412 -5.553,9.245 -0.082,1.84 0.146,4.289 1.918,5.852 0.158,0.139 0.52,0.249 0.671,0.165 12.042,-6.737 5.947,3.71 6.787,7.288 1.43,6.097 13.073,8.477 18.636,3.354 3.557,-3.276 6.713,-6.167 11.824,-7.586 3.396,-0.943 4.398,-0.965 6.526,1.506 3.039,3.528 0.614,3.704 -1.931,5.078 -2.261,1.221 0.086,3.29 0.454,4.994 0.874,4.038 4.787,8.135 -0.546,12.066 -1.441,1.062 -0.221,2.583 1.067,3.403 2.194,1.397 4.355,2.885 6.684,4.02 2.194,1.069 4.796,1.456 6.665,-0.398 C 2.697,23.468 -0.605,21.964 -1.808,20.327 -6.769,13.575 -6.653,12.592 0.415,8.783 5.952,5.8 1.685,3.052 0.226,0.234 Z" style="fill:#494f57;fill-opacity:1;fill-rule:nonzero;stroke:none" transform="matrix(1.3333333,0,0,-1.3333333,1829.6209,1625.1505)" />
      <path id="path1016" d="m 0,0 c -5.64,1.25 -9.847,-0.215 -14.381,-1.747 -3.222,-1.088 -7.211,-1.835 -10.95,-0.512 -2.35,0.83 -4.818,1.046 -6.287,-1.5 -1.084,-1.879 -2.021,-4.574 -4.509,-3.019 -2.861,1.787 0.752,3.503 1.013,5.38 0.633,4.543 2.846,7.314 7.851,8.631 3.393,0.893 6.885,4.369 3.624,8.711 -2.768,3.686 1.951,8.387 -2.336,11.883 -0.936,0.762 1.835,2.841 3.569,3.641 1.532,0.708 3.256,1.404 4.655,0.104 1.826,-1.699 -0.292,-2.793 -0.914,-4.182 -2.039,-4.546 1.203,-6.75 4.059,-9.396 2.762,-2.559 4.658,-2.678 6.675,0.624 0.598,0.979 1.705,1.772 3.019,1.067 3.734,-2.003 6.855,-3.185 6.189,3.296 -0.123,1.194 1.397,1.955 2.671,1.568 1.193,-0.364 2.02,-1.456 1.794,-2.738 C 5.336,19.498 5.354,16.65 3.99,15.056 0.54,11.023 -0.932,7.608 2.502,2.56 4.131,0.165 1.011,-0.013 0,0" style="fill:#494f57;fill-opacity:1;fill-rule:nonzero;stroke:none" transform="matrix(1.3333333,0,0,-1.3333333,1834.8003,2166.9195)" />
      <path id="path1017" d="m 0,0 c 3.102,-1.651 6.155,-0.16 9.312,0.827 3.077,0.962 7.09,3.744 7.144,-2.951 0.004,-0.532 0.989,-1.582 1.176,-1.51 7.962,3.088 8.178,-7.042 13.9,-8.161 2.426,-0.474 4.698,-21.672 2.697,-23.497 -3.22,-2.936 -6.39,-1.607 -9.568,0.519 -3.392,2.27 -2.31,4.409 0.236,5.992 3.29,2.045 1.729,4.307 0.147,5.714 -2.056,1.829 -3.857,4.216 -6.833,4.914 -1.851,0.434 -4.235,1.094 -4.597,2.943 -1.529,7.802 -5.975,8.21 -12.524,6.184 -3.808,-1.178 -5.976,2.739 -6.55,5.5 C -5.904,-1.385 -2.955,0.13 0,0" style="fill:#494f57;fill-opacity:1;fill-rule:nonzero;stroke:none" transform="matrix(1.3333333,0,0,-1.3333333,1809.9965,2220.5544)" />
      <path id="path1018" d="m 0,0 c -8.171,-0.616 -10.355,1.645 -8.707,8.64 0.976,4.143 -1.935,8.624 -1.221,13.346 0.706,4.667 4.209,6.592 7.279,8.884 2.131,1.591 3.879,-0.707 5.586,-1.851 0.995,-0.667 2.375,-2.201 1.466,-2.722 -5.509,-3.16 -0.521,-9.405 -4.168,-13.188 -1.3,-1.348 -1.741,-4.234 1.084,-5.298 2.316,-0.873 4.195,0.197 5.09,2.521 0.791,2.052 1.505,4.3 4.242,3.817 1.618,-0.286 3.888,-0.553 2.967,-3.496 C 11.306,3.27 6.716,-0.021 0,0" style="fill:#494f57;fill-opacity:1;fill-rule:nonzero;stroke:none" transform="matrix(1.3333333,0,0,-1.3333333,1858.9833,2173.5083)" />
      <path id="path1019" d="m 0,0 c 4.346,0.148 7.891,-0.978 6.641,-6.125 -1.264,-5.207 3.561,-6.653 5.436,-9.801 2.23,-3.745 1.196,-10.062 8.024,-10.801 1.315,-0.142 1.04,-4.71 -0.37,-4.558 -3.816,0.411 -8.782,-1.802 -11.239,3.271 C 6.015,-22.903 4.7,-17.492 -3.177,-16.973 -5.495,-16.82 -8.73,-9.26 -8.879,-5.001 -8.979,-2.129 -3.727,-0.364 0,0" style="fill:#494f57;fill-opacity:1;fill-rule:nonzero;stroke:none" transform="matrix(1.3333333,0,0,-1.3333333,1805.8423,1544.0015)" />
      <path id="path1020" d="m 0,0 c 0.987,2.908 -2.947,5.649 -2.485,6.536 2.943,5.646 -2.625,7.167 -4.251,10.544 -2.69,5.589 5.046,5.222 5.901,9.395 0.322,1.573 3.636,0.134 4.632,-2.197 0.678,-1.588 1.537,-3.272 3.571,-1.425 1.173,1.064 2.47,3.335 3.888,1.523 2.386,-3.049 2.848,-6.937 2.236,-10.814 C 13.167,11.505 11.885,9.437 9.873,9.966 4.052,11.497 4.994,7.711 5.016,4.446 5.027,2.792 5.117,1.127 4.964,-0.514 4.773,-2.578 3.731,-4.39 1.519,-4.323 -1.85,-4.221 -0.202,-1.819 0,0" style="fill:#494f57;fill-opacity:1;fill-rule:nonzero;stroke:none" transform="matrix(1.3333333,0,0,-1.3333333,1846.1096,1594.4539)" />
      <path id="path1021" d="m 0,0 c 6.663,0.466 10.457,-4.376 14.795,-8.024 1.088,-0.916 2.222,-2.869 0.795,-4.434 -1.85,-2.029 -2.657,-0.215 -3.591,1.244 -1.329,2.074 -3.284,1.464 -5.06,0.781 -3.101,-1.193 -6.024,-0.548 -8.959,0.55 -3.349,1.253 -4.965,4.3 -4.504,7.176 C -6.043,0.302 -2.445,-0.312 0,0" style="fill:#494f57;fill-opacity:1;fill-rule:nonzero;stroke:none" transform="matrix(1.3333333,0,0,-1.3333333,1866.2905,2195.9384)" />
      <path id="path1022" d="m 0,0 c -1.091,-2.686 -2.343,-4.51 -5.33,-3.605 -1.553,0.47 -3.077,1.39 -4.634,1.435 -8.384,0.24 -7.768,0.099 -6.835,8.512 0.68,6.131 3.103,5.339 6.125,2.544 C -8.077,6.483 -3.563,7.395 -2.085,3.381 -1.622,2.121 -0.66,1.044 0,0" style="fill:#494f57;fill-opacity:1;fill-rule:nonzero;stroke:none" transform="matrix(1.3333333,0,0,-1.3333333,1834.9277,2197.2869)" />
      <path id="path1023" d="m 0,0 c 2.242,-0.403 5.547,-1.556 4.639,-3.873 -1.351,-3.445 -0.644,-8.907 -5.423,-9.849 -2.948,-0.581 -6.668,0.461 -6.46,5.298 C -7.083,-4.7 -3.446,-0.097 0,0" style="fill:#494f57;fill-opacity:1;fill-rule:nonzero;stroke:none" transform="matrix(1.3333333,0,0,-1.3333333,1851.998,1501.6857)" />
      <path id="path1024" d="M 0,0 C 4.569,1.458 7.412,1.304 9.852,-0.296 12.644,-2.128 17.21,-4.007 14.923,-8.079 12.685,-12.063 7.96,-7.432 4.536,-9.09 3.898,-5.943 4.596,-2.333 0,0" style="fill:#494f57;fill-opacity:1;fill-rule:nonzero;stroke:none" transform="matrix(1.3333333,0,0,-1.3333333,1746.0393,1497.5965)" />
      <path id="path1025" d="m 0,0 c 4.087,-0.19 11.758,-6.823 12.468,-10.782 0.466,-2.599 -1.366,-3.495 -3.254,-3.545 -3.677,-0.098 -8.116,0.968 -7.478,5.161 0.564,3.699 -0.562,6.13 -1.96,8.934 C -0.226,-0.234 0,0 0,0" style="fill:#494f57;fill-opacity:1;fill-rule:nonzero;stroke:none" transform="matrix(1.3333333,0,0,-1.3333333,1829.9217,1624.838)" />
      <path id="path1026" d="M 0,0 C -5.163,-0.448 -8.245,0.747 -9.028,4.601 -9.566,7.245 -7.255,8.51 -4.947,8.243 -1.189,7.809 2.96,6.328 3.899,2.688 4.641,-0.188 0.801,0.119 0,0" style="fill:#494f57;fill-opacity:1;fill-rule:nonzero;stroke:none" transform="matrix(1.3333333,0,0,-1.3333333,1794.8371,2197.4521)" />
      <path id="path1027" d="m 0,0 c -0.548,-2.653 -3.367,-4.799 -4.218,-3.881 -2.452,2.645 -7.964,0.169 -8.39,4.946 C -12.9,4.351 -9.587,5.822 -7.34,5.061 -4.652,4.15 -0.721,3.873 0,0" style="fill:#494f57;fill-opacity:1;fill-rule:nonzero;stroke:none" transform="matrix(1.3333333,0,0,-1.3333333,1830.1268,1511.1707)" />
      <path id="path1028" d="M 0,0 C -2.604,1.271 -6.159,1.949 -6.637,5.977 -6.829,7.596 -5.212,9.221 -4.079,8.335 -0.917,5.86 4.24,7.622 6.072,4.036 6.728,2.753 3.408,-0.075 0,0" style="fill:#494f57;fill-opacity:1;fill-rule:nonzero;stroke:none" transform="matrix(1.3333333,0,0,-1.3333333,1795.1137,1535.9559)" />
      <path id="path1029" d="M 0,0 C -0.126,-2.674 -2.208,-3.025 -4.37,-3.114 -6.914,-3.22 -9.355,-2.557 -9.2,0.477 -9.093,2.574 -9.047,5.941 -6.185,5.936 -3.01,5.931 -0.794,3.505 0,0" style="fill:#494f57;fill-opacity:1;fill-rule:nonzero;stroke:none" transform="matrix(1.3333333,0,0,-1.3333333,1783.7416,2346.8871)" />
      <path id="path1030" d="m 0,0 c -1.623,4.436 -3.039,7.512 -3.842,10.74 -0.721,2.899 0.951,5.822 3.617,5.905 3.809,0.119 1.212,-2.883 1.313,-4.647 C 1.299,8.294 3.675,4.482 0,0" style="fill:#494f57;fill-opacity:1;fill-rule:nonzero;stroke:none" transform="matrix(1.3333333,0,0,-1.3333333,1800.7767,1615.9253)" />
      <path id="path1031" d="m 0,0 c -1.187,-1.867 -1.698,-4.783 -4.5,-4.596 -1.891,0.126 -4.576,0.949 -4.378,3.693 0.17,2.356 2.159,3.71 4.429,3.781 C -2.599,2.936 -0.722,2.304 0,0" style="fill:#494f57;fill-opacity:1;fill-rule:nonzero;stroke:none" transform="matrix(1.3333333,0,0,-1.3333333,1700.1092,1452.8635)" />
      <path id="path1032" d="m 0,0 c -0.166,-2.246 -1.012,-4.172 -3.385,-3.577 -1.916,0.48 -4.47,1.449 -4.575,3.83 -0.106,2.385 1.939,3.834 4.242,3.894 C -1.077,4.216 -0.151,2.269 0,0" style="fill:#494f57;fill-opacity:1;fill-rule:nonzero;stroke:none" transform="matrix(1.3333333,0,0,-1.3333333,1792.0716,1564.282)" />
      <path id="path1033" d="m 0,0 c -0.603,-2.869 -2.257,-3.509 -4.254,-3.399 -2.354,0.13 -4.218,1.146 -3.572,3.863 0.383,1.613 0.267,4.383 2.736,4.144 C -2.365,4.345 -1.256,1.688 0,0" style="fill:#494f57;fill-opacity:1;fill-rule:nonzero;stroke:none" transform="matrix(1.3333333,0,0,-1.3333333,1806.7317,1440.2576)" />
      <path id="path1034" d="m 0,0 c -0.265,-1.585 -1.023,-2.692 -2.806,-2.403 -1.865,0.303 -2.967,1.514 -2.911,3.41 0.052,1.728 1.245,2.414 2.882,2.302 C -0.796,3.17 0.035,1.945 0,0" style="fill:#494f57;fill-opacity:1;fill-rule:nonzero;stroke:none" transform="matrix(1.3333333,0,0,-1.3333333,1807.0513,1780.9663)" />
      <path id="path1075" d="m 0,0 c -2.835,-4.453 -5.447,-6.687 -8.531,-8.517 -1.428,-0.847 -2.204,-2.244 -3.836,-0.073 -1.629,2.165 0.152,2.837 1.076,4.032 C -8.645,-1.138 -4.463,-2.051 0,0" style="fill:#dedbe1;fill-opacity:1;fill-rule:nonzero;stroke:none" transform="matrix(1.3333333,0,0,-1.3333333,1686.8677,1526.7739)" />
      </g></svg>