<?xml version='1.0' encoding='utf-8'?>
<svg xmlns="http://www.w3.org/2000/svg" version="1.1" width="157.365" height="177.785" viewBox="2147.030 2198.470 157.365 177.785"><defs id="defs1"><clipPath clipPathUnits="userSpaceOnUse" id="clipPath46">
      <path d="M 0,3370.3901 H 2383.9401 V -2.5000001e-5 H 0 Z" id="path46" />
    </clipPath>
  </defs><g id="object"><path id="path33" d="m 0,0 c -7.602,0.16 -11.079,6.099 -9.983,12.221 6.884,38.434 -15.79,64.285 -37.019,91.147 -3.715,4.701 -12.511,10.954 -4.772,17.725 6.778,5.93 17.673,3.136 21.028,-3.552 21.829,-43.507 42.206,-28.57 63.805,-0.085 4.197,5.536 12.358,9.133 18.593,3.262 C 57.949,114.787 50.815,109.267 47.44,105.01 25.552,77.401 3.2,50.267 9.432,11.149 10.264,5.928 6.926,0.994 0,0" style="fill:#424242;fill-opacity:1;fill-rule:nonzero;stroke:none" transform="matrix(1.3333333,0,0,-1.3333333,2226.1757,2370.2601)" />
      </g></svg>