<?xml version='1.0' encoding='utf-8'?>
<svg xmlns="http://www.w3.org/2000/svg" version="1.1" width="998.043" height="626.984" viewBox="1681.520 798.398 998.043 626.984"><defs id="defs1"><clipPath clipPathUnits="userSpaceOnUse" id="clipPath4">
      <path d="M 122.5624,2051.5417 H 2506.5025 V -1318.8484 H 122.5624 Z" id="path4" />
    </clipPath>
    <clipPath clipPathUnits="userSpaceOnUse" id="clipPath6">
      <path d="M -503.42171,2051.917 H 1880.5183 V -1318.4731 H -503.42171 Z" id="path6" />
    </clipPath>
  </defs><g id="object"><path id="path8" d="m 0,0 c -15.499,-17.771 -18.66,-39.819 -25.03,-60.126 -11.311,-36.063 -18.407,-73.423 -32.731,-108.571 -3.126,-7.669 -6.738,-15.761 -12.225,-21.729 -14.535,-15.808 -33.667,-12.64 -41.331,7.441 -17.715,46.413 -28.497,94.943 -41.619,142.754 -3.052,11.12 -6.5,22.133 -10.368,35.235 -12.104,-7.531 -9.756,-17.34 -10.227,-25.567 -3.517,-61.451 0.279,-122.857 1.743,-184.269 1.379,-57.88 -18.018,-82.08 -71.96,-88.119 -24.62,-2.756 -31.439,4.754 -24.197,28.476 30.137,98.721 34.835,200.071 31.722,302.228 -0.541,17.727 -3.046,35.298 -12.743,50.853 -11.429,18.335 -4.77,33.029 11.141,43.131 33.537,21.291 70.839,30.362 110.523,28.956 15.923,-0.565 24.002,-11.298 27.792,-25.105 8.01,-29.181 14.991,-58.643 22.891,-87.856 2.095,-7.745 2.761,-19.696 12.298,-19.76 9.665,-0.065 9.825,12.161 12.574,19.682 7.213,19.732 15.075,39.365 20.309,59.648 7.592,29.418 26.033,45.866 54.724,52.92 22.154,5.447 44.168,9.867 67.233,6.149 18.127,-2.923 25.399,-12.197 19.382,-29.853 -34.344,-100.783 -17.302,-203.021 -8.335,-304.929 1.221,-13.874 6.074,-27.612 18.417,-37.515 15.724,-12.615 12.354,-27.468 -0.824,-38.748 -25.132,-21.512 -54.8,-32.399 -88.337,-30.38 -21.143,1.273 -24.748,17.689 -26.93,33.85 -4.52,33.491 -3.51,67.213 -2.136,100.863 1.613,39.517 3.941,79.006 5.531,118.524 C 7.708,-21.354 8.758,-10.329 0,0" style="fill:#1c2a2f;fill-opacity:1;fill-rule:nonzero;stroke:none" transform="matrix(1.3333333,0,0,-1.3333333,2048.4308,1014.7257)" />
      <path id="path14" d="m 0,0 c -14.317,-43.238 -52.907,-45.301 -86.25,-51.115 -15.792,-2.753 -30.485,11.199 -28.5,32.863 4.23,46.162 3.795,92.381 0.512,138.61 -1.568,22.081 -3.76,43.359 -22.361,59.33 -12.716,10.919 -7.369,23.289 1.929,33.078 19.256,20.274 43.969,31.096 71.198,34.802 20.317,2.766 26.226,-10.968 26.103,-28.376 -0.308,-43.748 -0.911,-87.533 4.306,-131.052 2.191,-18.274 6.01,-36.396 9.948,-54.399 2.098,-9.589 5.642,-19.085 18.503,-23.643 1.026,10.374 2.746,19.155 2.578,27.9 -0.332,17.263 12.421,26.978 24.115,31.977 12.317,5.266 28.148,6.739 40.756,-6.154 9.049,-9.255 16.396,-24.271 35.318,-13.351 7.791,4.496 21.265,0.248 21.754,14.794 0.522,15.542 -11.531,23.713 -23.329,25.958 -15.976,3.04 -28.831,10.837 -42.928,17.445 -32.556,15.262 -54.536,36.354 -50.774,75.381 3.749,38.899 27.499,65.737 69.342,76.545 26.382,6.815 53.425,7.997 79.592,-0.867 21.945,-7.434 33.108,-26.669 26.464,-44.924 -8.02,-22.038 -24.971,-25.018 -45.239,-18.072 -11.398,3.906 -23.074,5.105 -34.78,2.22 -8.196,-2.019 -17.02,-4.767 -17.907,-15.021 -0.845,-9.764 7.876,-11.842 14.621,-14.817 19.199,-8.467 39.093,-15.564 57.646,-25.246 38.38,-20.029 56.309,-53.678 51.763,-95.11 -4.654,-42.407 -29.193,-68.232 -69.037,-80.852 -23.707,-7.508 -48.026,-9.049 -72.391,-5.73 C 37.545,-34.365 14.544,-25.448 0,0" style="fill:#1c2a2f;fill-opacity:1;fill-rule:nonzero;stroke:none" transform="matrix(1.3333333,0,0,-1.3333333,2400.1379,1315.7068)" />
      <path id="path24" d="m 0,0 c -21.746,0.021 -36.208,2.719 -42.707,17.926 -6.929,16.212 1.069,29.567 12.972,40.179 C -13.371,72.694 5.923,79.811 28.176,77.83 39.627,76.811 50.339,73.57 55.199,62.424 60.54,50.173 59.273,37.716 50.627,26.822 35.984,8.374 15.877,1.508 0,0" style="fill:#1c2a2f;fill-opacity:1;fill-rule:nonzero;stroke:none" transform="matrix(1.3333333,0,0,-1.3333333,2268.8943,936.48653)" />
      </g></svg>