<?xml version='1.0' encoding='utf-8'?>
<svg xmlns="http://www.w3.org/2000/svg" version="1.1" width="289.728" height="419.701" viewBox="2677.630 927.047 289.728 419.701"><defs id="defs1"><clipPath clipPathUnits="userSpaceOnUse" id="clipPath4">
      <path d="M 122.5624,2051.5417 H 2506.5025 V -1318.8484 H 122.5624 Z" id="path4" />
    </clipPath>
    <clipPath clipPathUnits="userSpaceOnUse" id="clipPath6">
      <path d="M -503.42171,2051.917 H 1880.5183 V -1318.4731 H -503.42171 Z" id="path6" />
    </clipPath>
  </defs><g id="object"><path id="path18" d="m 0,0 c 8.752,-0.026 25.091,-0.04 39.236,-8.588 15.972,-9.651 24.285,-24.51 17.162,-42.764 -7.24,-18.556 -22.888,-23.467 -41.516,-17.745 -13.004,3.994 -25.676,7.98 -39.195,1.775 -6.99,-3.207 -15.049,-5.954 -15.818,-14.37 -0.844,-9.241 7.459,-12.18 14.596,-14.887 16.497,-6.255 33.33,-11.706 49.536,-18.631 45.656,-19.512 68.613,-56.105 63.939,-100.648 -4.628,-44.095 -32.84,-74.297 -80.629,-84.987 -31.739,-7.1 -63.588,-7.668 -93.96,5.907 -27.811,12.429 -39.467,40.903 -29.713,69.38 9.928,28.984 43.504,38.412 66.958,18.936 5.088,-4.224 10.178,-9.425 16.178,-11.376 14.211,-4.621 27.61,-1.304 34.549,12.618 7.221,14.489 -4.874,22.309 -15.011,27.336 -16.491,8.178 -34.152,14.019 -51.387,20.67 -30.471,11.757 -52.169,30.369 -52.56,66.056 -0.394,35.868 18.485,64.765 51.427,79.641 C -47.384,-3.178 -27.644,-0.34 0,0" style="fill:#1c2a2f;fill-opacity:1;fill-rule:nonzero;stroke:none" transform="matrix(1.3333333,0,0,-1.3333333,2843.3099,933.04733)" />
      </g></svg>