<?xml version='1.0' encoding='utf-8'?>
<svg xmlns="http://www.w3.org/2000/svg" version="1.1" width="378.025" height="438.910" viewBox="1307.910 245.442 378.025 438.910"><g id="object"><path id="path15" d="m 0,0 v -164.901 c 37.791,-2.881 74.314,-6.086 96.356,31.753 20.048,34.414 19.987,69.745 -1.271,103.649 C 72.539,6.459 36.794,2.712 0,0 m -78.977,76.834 c 43.758,0 87.991,3.323 131.534,-0.744 73.247,-6.844 119.568,-51.9 134.784,-124.047 17.891,-84.831 -28.183,-171.028 -107.856,-187.255 -48.739,-9.926 -100.396,-5.833 -150.767,-6.846 -4.099,-0.082 -12.037,9.029 -12.043,13.876 -0.12,100.223 0.649,200.447 1.304,300.671 0.004,0.661 0.882,1.317 3.044,4.345" style="fill:#231916;fill-opacity:1;fill-rule:nonzero;stroke:none" transform="matrix(1.3333333,0,0,-1.3333333,1425.0305,355.59293)" />
      </g></svg>