<?xml version='1.0' encoding='utf-8'?>
<svg xmlns="http://www.w3.org/2000/svg" version="1.1" width="228.265" height="242.314" viewBox="1702.090 2670.560 228.265 242.314"><g id="object"><path id="path35" d="m 0,0 c -19.684,-1.231 -36.655,-5.559 -51.283,13.81 -12.148,16.085 -40.772,12.15 -54.362,-3.346 -16.345,-18.639 -15.046,-52.29 2.668,-69.069 14.935,-14.148 41.438,-16.604 52.326,-0.314 13.697,20.491 30.521,16.718 48.723,15.418 2.039,-33.469 -24.612,-61.571 -61.241,-65.416 -50.83,-5.335 -91.532,23.819 -97.949,70.16 -7.103,51.297 21.344,92.377 69.637,100.561 C -46.319,69.458 -8.567,44.97 0,0" style="fill:#231916;fill-opacity:1;fill-rule:nonzero;stroke:none" transform="matrix(1.3333333,0,0,-1.3333333,1924.3535,2760.8189)" />
      </g></svg>