<?xml version='1.0' encoding='utf-8'?>
<svg xmlns="http://www.w3.org/2000/svg" version="1.1" width="2322.748" height="273.788" viewBox="433.466 3920.080 2322.748 273.788"><defs id="defs1"><clipPath clipPathUnits="userSpaceOnUse" id="clipPath31">
      <path d="M 0,3370.3901 H 2383.9401 V -2.5000001e-5 H 0 Z" id="path31" />
    </clipPath>
  </defs><g id="object"><path id="path20" d="m 18.328162,-14.40607 c 15.703125,10.4775717 46.675782,18.7790322 75.035157,18.7790322 69.363281,0 102.960941,-39.2707442 102.960941,-84.6466882 0,-43.199834 -25.3125,-67.177354 -75.04688,-86.379514 -40.570311,-15.71636 -58.453124,-29.23646 -58.453124,-56.71993 0,-20.06858 15.269531,-44.06625 55.406254,-44.06625 26.61328,0 46.24218,8.72459 55.83984,13.96338 l 10.46484,-30.96929 c -13.07812,-7.41489 -34.89843,-14.40666 -65.0039,-14.40666 -57.140628,0 -95.097659,34.03196 -95.097659,79.85119 0,41.44685 29.660156,66.31094 77.648439,83.31684 39.70312,15.27308 55.40625,30.98943 55.40625,58.472909 0,29.659587 -22.6875,50.171448 -61.51172,50.171448 -26.179688,0 -51.046875,-8.724593 -68.050781,-19.202165 z M 335.92094,5.910425e-4 377.80375,-153.13315 c 10.91015,-37.96104 17.44922,-66.75422 22.6875,-95.97052 h 0.86719 c 3.92578,29.65959 10.04296,58.45276 19.19531,95.97052 L 457.64359,5.910425e-4 h 39.70313 L 580.66703,-294.03633 h -38.82422 l -38.83594,148.31808 c -9.15234,36.65135 -17.44922,69.373613 -23.55468,101.652593 H 478.585 C 474.2139,-75.03494 466.36234,-109.93331 458.07719,-144.83169 l -35.77735,-149.20464 h -39.6914 l -39.26954,148.31808 c -10.03125,37.96105 -19.19531,72.859421 -24,102.095875 h -0.86718 c -5.23828,-28.37004 -13.08985,-65.001245 -21.8086,-101.652595 L 261.75297,-294.03633 H 221.61625 L 296.21781,5.910425e-4 Z M 617.3057,-294.03633 V 5.910425e-4 h 37.95703 V -294.03633 Z m 89.44043,279.63026 c 15.70313,10.4775717 46.67578,18.7790322 75.03516,18.7790322 69.36328,0 102.96093,-39.2707442 102.96093,-84.6466882 0,-43.199834 -25.3125,-67.177354 -75.04687,-86.379514 -40.57031,-15.71636 -58.45313,-29.23646 -58.45313,-56.71993 0,-20.06858 15.26954,-44.06625 55.40625,-44.06625 26.61329,0 46.24219,8.72459 55.83985,13.96338 l 10.46484,-30.96929 c -13.07812,-7.41489 -34.89844,-14.40666 -65.0039,-14.40666 -57.14063,0 -95.09766,34.03196 -95.09766,79.85119 0,41.44685 29.66016,66.31094 77.64844,83.31684 39.70312,15.27308 55.40625,30.98943 55.40625,58.472909 0,29.659587 -22.6875,50.171448 -61.51172,50.171448 -26.17969,0 -51.04688,-8.724593 -68.05078,-19.202165 z m 215.07715,0 c 15.70312,10.4775717 46.67578,18.7790322 75.03516,18.7790322 69.36326,0 102.96096,-39.2707442 102.96096,-84.6466882 0,-43.199834 -25.3125,-67.177354 -75.0469,-86.379514 -40.57031,-15.71636 -58.45313,-29.23646 -58.45313,-56.71993 0,-20.06858 15.26953,-44.06625 55.40623,-44.06625 26.6133,0 46.2422,8.72459 55.8399,13.96338 l 10.4648,-30.96929 c -13.0781,-7.41489 -34.8984,-14.40666 -65.0039,-14.40666 -57.14062,0 -95.09765,34.03196 -95.09765,79.85119 0,41.44685 29.66015,66.31094 77.64845,83.31684 39.7031,15.27308 55.4062,30.98943 55.4062,58.472909 0,29.659587 -22.6875,50.171448 -61.51168,50.171448 -26.17969,0 -51.04688,-8.724593 -68.05078,-19.202165 z M 1303.5528,-92.484127 1334.959,5.910425e-4 h 40.5703 L 1275.1934,-294.03633 h -45.8086 L 1129.4825,5.910425e-4 h 39.2578 L 1199.2793,-92.484127 Z m -96.4219,-29.679733 28.793,-85.06982 c 5.6718,-17.87232 10.4765,-35.76479 14.8359,-53.21398 h 0.8789 c 4.3594,17.00591 8.7188,34.45509 15.2695,53.65726 l 28.793,84.62654 z m 211.585,-171.87247 V 5.910425e-4 h 37.957 V -294.03633 Z M 1522.9805,5.910425e-4 h 37.957 V -127.3825 h 35.7774 c 34.4648,1.3097 50.168,16.56262 58.8984,57.143064 8.2852,36.651351 14.8242,61.9587157 19.6289,70.2400270425 H 1714.5 C 1708.3946,-11.343395 1701.4219,-39.693286 1691.8243,-80.717008 c -6.9844,-30.526002 -20.5079,-51.481142 -43.1954,-59.319172 v -1.3097 c 30.9727,-10.47757 55.4063,-36.20807 55.4063,-75.03553 0,-22.68797 -8.2852,-42.75655 -23.1211,-55.85352 -18.3281,-16.58277 -44.4961,-23.99766 -85.0781,-23.99766 -26.168,0 -53.6602,2.19626 -72.8555,6.1052 z M 1560.9375,-263.51033 c 6.1055,-1.73283 19.1954,-3.48581 37.5235,-3.48581 40.1367,0.44328 67.6172,17.00591 67.6172,54.96695 0,33.58868 -25.7344,55.85352 -66.3164,55.85352 h -38.8243 z m 0,0" style="fill:#2e3e38;fill-opacity:1;fill-rule:nonzero;stroke:none" aria-label="SWISSAIR" transform="matrix(-1.3333333,0,0,-0.77546596,2755.9688,3942.7973)" />
      <path id="path21" d="m 0,0 c -15.706,6.089 -46.68,10.91 -75.037,10.91 -69.365,0 -102.957,-22.835 -102.957,-49.223 0,-25.119 25.303,-39.074 75.036,-50.238 40.573,-9.135 58.459,-17 58.459,-32.985 0,-11.672 -15.269,-25.627 -55.405,-25.627 -26.612,0 -46.243,5.075 -55.841,8.12 l -10.47,-18.015 c 13.088,-4.314 34.901,-8.373 65.003,-8.373 57.149,0 95.104,19.791 95.104,46.432 0,24.104 -29.665,38.567 -77.654,48.462 -39.7,8.881 -55.405,18.015 -55.405,34 0,17.254 22.686,29.179 61.513,29.179 26.175,0 51.042,-5.075 68.056,-11.164 z" style="fill:none;stroke:#2e3e38;stroke-width:20;stroke-linecap:butt;stroke-linejoin:miter;stroke-miterlimit:10;stroke-dasharray:none;stroke-opacity:1" transform="matrix(1.3333333,0,0,-1.3333333,2731.5384,3953.9615)" />
      <path id="path22" d="m 0,0 -41.881,-89.059 c -10.906,-22.074 -17.45,-38.82 -22.685,-55.82 h -0.873 c -3.926,17.254 -10.034,34 -19.195,55.82 L -121.716,0 h -39.7 l -83.326,-171.013 h 38.827 l 38.828,86.267 c 9.161,21.314 17.45,40.344 23.558,59.12 h 0.872 c 4.363,-18.015 12.216,-38.313 20.504,-58.612 l 35.774,-86.775 h 39.699 l 39.264,86.267 c 10.034,22.075 19.195,42.373 23.994,59.373 h 0.873 c 5.235,-16.492 13.088,-37.805 21.813,-59.119 l 34.901,-86.521 H 114.3 L 39.7,0 Z" style="fill:none;stroke:#2e3e38;stroke-width:20;stroke-linecap:butt;stroke-linejoin:miter;stroke-miterlimit:10;stroke-dasharray:none;stroke-opacity:1" transform="matrix(1.3333333,0,0,-1.3333333,2308.0768,3942.7973)" />
      <path id="path23" d="M 0,0 V 171.013 H -37.955 V 0 Z" style="fill:none;stroke:#2e3e38;stroke-width:20;stroke-linecap:butt;stroke-linejoin:miter;stroke-miterlimit:10;stroke-dasharray:none;stroke-opacity:1" transform="matrix(1.3333333,0,0,-1.3333333,1932.8977,4170.8149)" />
      <path id="path24" d="m 0,0 c -15.706,6.089 -46.68,10.91 -75.037,10.91 -69.365,0 -102.957,-22.835 -102.957,-49.223 0,-25.119 25.303,-39.074 75.036,-50.238 40.573,-9.135 58.459,-17 58.459,-32.985 0,-11.672 -15.269,-25.627 -55.405,-25.627 -26.612,0 -46.243,5.075 -55.841,8.12 l -10.47,-18.015 c 13.088,-4.314 34.901,-8.373 65.003,-8.373 57.149,0 95.104,19.791 95.104,46.432 0,24.104 -29.665,38.567 -77.654,48.462 -39.7,8.881 -55.405,18.015 -55.405,34 0,17.254 22.686,29.179 61.513,29.179 26.175,0 51.042,-5.075 68.056,-11.164 z" style="fill:none;stroke:#2e3e38;stroke-width:20;stroke-linecap:butt;stroke-linejoin:miter;stroke-miterlimit:10;stroke-dasharray:none;stroke-opacity:1" transform="matrix(1.3333333,0,0,-1.3333333,1813.6543,3953.9615)" />
      <path id="path25" d="m 0,0 c -15.706,6.089 -46.68,10.91 -75.037,10.91 -69.365,0 -102.957,-22.835 -102.957,-49.223 0,-25.119 25.303,-39.074 75.036,-50.238 40.573,-9.135 58.459,-17 58.459,-32.985 0,-11.672 -15.269,-25.627 -55.405,-25.627 -26.612,0 -46.243,5.075 -55.841,8.12 l -10.47,-18.015 c 13.088,-4.314 34.901,-8.373 65.003,-8.373 57.149,0 95.104,19.791 95.104,46.432 0,24.104 -29.665,38.567 -77.654,48.462 -39.7,8.881 -55.405,18.015 -55.405,34 0,17.254 22.686,29.179 61.513,29.179 26.175,0 51.042,-5.075 68.056,-11.164 z" style="fill:none;stroke:#2e3e38;stroke-width:20;stroke-linecap:butt;stroke-linejoin:miter;stroke-miterlimit:10;stroke-dasharray:none;stroke-opacity:1" transform="matrix(1.3333333,0,0,-1.3333333,1526.888,3953.9615)" />
      <path id="path26" d="M 0,0 -31.411,53.791 H -71.983 L 28.357,-117.223 H 74.164 L 174.067,53.791 H 134.804 L 104.266,0 Z M 96.413,-17.253 67.62,-66.73 C 61.949,-77.133 57.15,-87.537 52.787,-97.686 h -0.872 c -4.363,9.896 -8.726,20.045 -15.269,31.209 L 7.853,-17.253 Z" style="fill:none;stroke:#2e3e38;stroke-width:20;stroke-linecap:butt;stroke-linejoin:miter;stroke-miterlimit:10;stroke-dasharray:none;stroke-opacity:1" transform="matrix(1.3333333,0,0,-1.3333333,1017.9199,4014.518)" />
      <path id="path27" d="M 0,0 V 171.013 H -37.955 V 0 Z" style="fill:none;stroke:#2e3e38;stroke-width:20;stroke-linecap:butt;stroke-linejoin:miter;stroke-miterlimit:10;stroke-dasharray:none;stroke-opacity:1" transform="matrix(1.3333333,0,0,-1.3333333,864.35613,4170.8149)" />
      <path id="path28" d="m 0,0 h -37.955 v -74.089 h -35.773 c -34.464,0.761 -50.17,9.642 -58.895,33.239 -8.289,21.313 -14.833,36.029 -19.632,40.85 h -39.263 c 6.107,-6.597 13.087,-23.089 22.685,-46.94 6.98,-17.761 20.504,-29.94 43.19,-34.507 v -0.761 c -30.974,-6.09 -55.405,-21.06 -55.405,-43.642 0,-13.193 8.289,-24.865 23.122,-32.477 18.322,-9.641 44.498,-13.955 85.071,-13.955 26.175,0 53.66,1.269 72.855,3.553 z m -37.955,-153.252 c -6.108,-1.015 -19.195,-2.03 -37.518,-2.03 -40.136,0.254 -67.62,9.895 -67.62,31.97 0,19.537 25.739,32.477 66.311,32.477 h 38.827 z" style="fill:none;stroke:#2e3e38;stroke-width:20;stroke-linecap:butt;stroke-linejoin:miter;stroke-miterlimit:10;stroke-dasharray:none;stroke-opacity:1" transform="matrix(1.3333333,0,0,-1.3333333,725.336,3942.7973)" />
      </g></svg>