<?xml version='1.0' encoding='utf-8'?>
<svg xmlns="http://www.w3.org/2000/svg" version="1.1" width="586.874" height="458.463" viewBox="186.097 1651.770 586.874 458.463"><defs id="defs1"><clipPath clipPathUnits="userSpaceOnUse" id="clipPath4">
      <path d="M -2384.1568,2286.7354 H -0.21670001 V -1083.6547 H -2384.1568 Z" id="path4" />
    </clipPath>
    <clipPath clipPathUnits="userSpaceOnUse" id="clipPath6">
      <path d="M -2384.0266,1933.815 H -0.086575 v -3370.39 H -2384.0266 Z" id="path6" />
    </clipPath>
    <clipPath clipPathUnits="userSpaceOnUse" id="clipPath8">
      <path d="M -2384.1847,2520.3537 H -0.24460001 V -850.0364 H -2384.1847 Z" id="path8" />
    </clipPath>
    <clipPath clipPathUnits="userSpaceOnUse" id="clipPath10">
      <path d="M -1378.8652,3371.3417 H 1005.0749 V 0.95157502 h -2383.9401 z" id="path10" />
    </clipPath>
    <clipPath clipPathUnits="userSpaceOnUse" id="clipPath12">
      <path d="M -2383.8391,1819.185 H 0.100925 v -3370.39 H -2383.8391 Z" id="path12" />
    </clipPath>
    <clipPath clipPathUnits="userSpaceOnUse" id="clipPath14">
      <path d="M -2384.2639,1767.3618 H -0.32387501 V -1603.0283 H -2384.2639 Z" id="path14" />
    </clipPath>
  </defs><g id="object"><path id="path15" d="m 0,0 c 18.654,1.898 24.775,-7.645 28.542,-25.172 13.673,-63.624 29.359,-126.815 49.481,-190.627 10.122,38.609 20.353,77.191 30.329,115.838 6.932,26.854 14.144,53.664 19.99,80.761 2.987,13.844 8.696,19.211 23.741,19.311 53.627,0.355 54.463,-3.025 64.082,-55.578 10.108,-55.23 27.006,-109.218 44.896,-163.804 14.429,60.185 28.628,120.426 43.471,180.508 3.133,12.68 0.369,32.68 12.781,36.044 19.257,5.218 40.851,2.521 61.415,1.888 9.541,-0.294 4.85,-8.023 3.628,-12.651 -14.968,-56.683 -30.114,-113.319 -45.253,-169.956 -11.284,-42.221 -23.53,-84.213 -33.512,-126.738 -4.245,-18.084 -12.091,-23.947 -30.678,-23.492 -49.054,1.199 -49.228,0.251 -61.195,47.65 -12.028,47.639 -23.656,95.378 -35.601,143.037 -1.995,7.956 -4.713,15.73 -11.91,23.564 -17.235,-70.309 -34.47,-140.619 -51.705,-210.928 -71.858,-8.798 -72.575,-8.994 -91.152,59.009 -18.704,68.469 -36.114,137.299 -53.326,206.162 -3.949,15.8 -13.903,29.263 -14.525,46.533 -0.471,13.097 1.221,19.094 15.761,17.758 C -20.606,-1.815 -10.255,-0.379 0,0" style="fill:#9e998f;fill-opacity:1;fill-rule:nonzero;stroke:none" transform="matrix(1.3333333,0,0,-1.3333333,254.18787,1658.3393)" />
      </g></svg>