<?xml version='1.0' encoding='utf-8'?>
<svg xmlns="http://www.w3.org/2000/svg" version="1.1" width="1949.150" height="124.859" viewBox="602.535 724.695 1949.150 124.859"><g id="object"><path id="path4" d="m 3.5986672,-2.1218844 c 3.1289062,1.83984378 7.6406248,3.04687503 12.5156248,3.04687503 10.59375,0 16.675781,-5.53125003 16.675781,-13.35937463 0,-6.632813 -3.960937,-10.5 -11.695312,-13.441407 -5.800781,-2.214843 -8.472656,-3.867187 -8.472656,-7.558593 0,-3.316407 2.671875,-6.082032 7.453125,-6.082032 4.148437,0 7.371093,1.476563 9.117187,2.589844 l 2.027344,-5.894531 c -2.484375,-1.476563 -6.445313,-2.765625 -10.957031,-2.765625 -9.574219,0 -15.3750003,5.894531 -15.3750003,13.078125 0,5.34375 3.7734375,9.761719 11.7773433,12.609375 5.988282,2.214844 8.296875,4.335937 8.296875,8.203125 0,3.6796874 -2.765625,6.6328124 -8.660156,6.6328124 -4.054687,0 -8.2851561,-1.6640625 -10.6874998,-3.2226563 z M 45.036167,-55.254697 v 10.675781 h -6.914062 v 6.175782 h 6.914062 v 24.316406 c 0,5.2499999 0.832031,9.1992186 3.128906,11.6015624 1.933594,2.20312498 4.96875,3.41015623 8.753907,3.41015623 3.128906,0 5.613281,-0.46875 7.183593,-1.11328125 l -0.375,-6.07031248 c -1.007812,0.2695312 -2.578125,0.5507812 -4.699218,0.5507812 -4.511719,0 -6.070313,-3.1289062 -6.070313,-8.6601561 v -24.035156 h 11.601563 v -6.175782 H 52.958042 v -12.796875 z m 63.914063,34.441406 c 0.0937,-0.832031 0.26953,-2.121093 0.26953,-3.773437 0,-8.203125 -3.86719,-21 -18.410155,-21 -12.984375,0 -20.90625,10.59375 -20.90625,24.035156 0,13.4414064 8.191406,22.47656263 21.914062,22.47656263 7.089844,0 11.976563,-1.4765625 14.824223,-2.76562503 l -1.38282,-5.8007812 c -3.03515,1.2890625 -6.52734,2.296875 -12.33984,2.296875 -8.097657,0 -15.09375,-4.5117188 -15.28125,-15.4687504 z m -31.21875,-5.800781 c 0.644531,-5.625 4.230468,-13.171875 12.433593,-13.171875 9.117188,0 11.320317,8.015625 11.226567,13.171875 z m 71.9209,-38.777344 v 26.613282 h -0.1875 c -2.01563,-3.585938 -6.6211,-6.808594 -13.44141,-6.808594 -10.86328,0 -20.07422,9.117187 -19.98047,23.941406 0,13.5351564 8.28516,22.6523439 19.05469,22.6523439 7.27734,0 12.71484,-3.7734375 15.19922,-8.7421875 h 0.1875 l 0.36328,7.734374975 h 7.27734 C 157.8555,-3.0359469 157.76175,-7.5476656 157.76175,-11.508603 v -53.882813 z m 0,46.699219 c 0,1.289063 -0.0937,2.390625 -0.36328,3.492188 -1.47657,6.0820309 -6.44532,9.6679684 -11.88282,9.6679684 -8.7539,0 -13.17187,-7.4531254 -13.17187,-16.4765624 0,-9.855469 4.96875,-17.226563 13.35937,-17.226563 6.07032,0 10.5,4.242188 11.69532,9.398438 0.26953,1.007812 0.36328,2.390625 0.36328,3.398437 z m 57.37793,-2.121094 c 0.0937,-0.832031 0.26953,-2.121093 0.26953,-3.773437 0,-8.203125 -3.86719,-21 -18.41016,-21 -12.98437,0 -20.90625,10.59375 -20.90625,24.035156 0,13.4414064 8.19141,22.47656263 21.91407,22.47656263 7.08984,0 11.97656,-1.4765625 14.82421,-2.76562503 l -1.38281,-5.8007812 c -3.03515,1.2890625 -6.52734,2.296875 -12.33984,2.296875 -8.09766,0 -15.09375,-4.5117188 -15.28125,-15.4687504 z m -31.21875,-5.800781 c 0.64453,-5.625 4.23047,-13.171875 12.43359,-13.171875 9.11719,0 11.32031,8.015625 11.22656,13.171875 z m 41.53125,26.613281375 h 8.09765 V -65.391416 h -8.09765 z m 29.83301,0 V -44.578916 h -8.09766 V -7.90625e-4 Z M 243.13285,-62.168759 c -2.95313,0 -5.07422,2.214843 -5.07422,5.0625 0,2.765625 2.02734,4.980468 4.88672,4.980468 3.22265,0 5.25,-2.214843 5.15625,-4.980468 0,-2.847657 -1.9336,-5.0625 -4.96875,-5.0625 z m 7.45312,81.421875 c 4.32422,0 10.21875,-1.476563 13.81641,-5.074219 3.96094,-4.054688 5.34375,-9.6679689 5.34375,-18.3281251 V -44.578916 h -8.10938 v 37.3007816 c 0,10.6875 -0.83203,14.1796875 -3.03515,16.7578125 -1.9336,2.1210939 -5.15625,3.1406249 -8.84766,3.4101559 z m 15.19922,-81.421875 c -3.04687,0 -5.15625,2.214843 -5.15625,5.0625 0,2.671875 1.93359,4.980468 4.96875,4.980468 3.22266,0 5.15625,-2.308593 5.0625,-4.980468 0,-2.847657 -1.93359,-5.0625 -4.875,-5.0625 z m 25.22461,-3.222657 h -8.00391 V -7.90625e-4 h 8.00391 V -16.758603 l 4.14844,-4.605469 15.38672,21.363281375 h 9.84375 L 300.77152,-26.250791 317.99808,-44.578916 h -9.76172 l -13.07812,15.386719 c -1.28907,1.558594 -2.85938,3.492188 -3.96094,5.0625 h -0.1875 z m 49.18066,20.8125 16.94532,44.578125375 h 7.73437 L 382.37796,-44.578916 h -8.47265 l -8.66016,25.054688 c -1.47656,4.054687 -2.76562,7.734375 -3.77344,11.4140624 h -0.28125 c -0.92578,-3.6796874 -2.12109,-7.3593754 -3.58593,-11.4140624 l -8.75391,-25.054688 z m 81.5127,44.578125375 C 421.14066,-3.0359469 420.96488,-6.8211031 420.96488,-10.688291 v -16.664062 c 0,-8.929688 -3.31641,-18.234375 -16.94531,-18.234375 -5.625,0 -10.96875,1.558594 -14.64844,3.960937 l 1.83984,5.34375 c 3.14063,-2.027343 7.46485,-3.316406 11.61328,-3.316406 9.11719,0 10.125,6.621094 10.125,10.3125 v 0.914063 c -17.22656,-0.08203 -26.80078,5.8125 -26.80078,16.582031 0,6.4453124 4.60547,12.7968749 13.62891,12.7968749 6.35156,0 11.14453,-3.1289063 13.6289,-6.6210938 h 0.28125 l 0.64454,5.613281275 z M 413.13675,-15.012509 c 0,0.832031 -0.1875,1.746093 -0.46875,2.578125 -1.28906,3.7734371 -4.96875,7.4648434 -10.76953,7.4648434 -4.14844,0 -7.64062,-2.4960938 -7.64062,-7.7460934 0,-8.648438 10.03125,-10.21875 18.8789,-10.03125 z m 20.90332,15.011718375 h 8.09766 V -26.801572 c 0,-1.382812 0.1875,-2.765625 0.55078,-3.773437 1.38281,-4.511719 5.53125,-8.285157 10.875,-8.285157 7.64063,0 10.3125,5.976563 10.3125,13.160157 V -7.90625e-4 h 8.10938 V -26.614072 c 0,-15.292969 -9.58594,-18.972656 -15.75,-18.972656 -7.3711,0 -12.52735,4.136719 -14.74219,8.378906 h -0.17578 l -0.46875,-7.371094 h -7.1836 c 0.28125,3.691407 0.375,7.464844 0.375,12.070313 z m 102.68555,0 C 536.16312,-3.0359469 535.98734,-6.8211031 535.98734,-10.688291 v -16.664062 c 0,-8.929688 -3.31641,-18.234375 -16.94531,-18.234375 -5.625,0 -10.96875,1.558594 -14.64844,3.960937 l 1.83984,5.34375 c 3.14063,-2.027343 7.46485,-3.316406 11.61328,-3.316406 9.11719,0 10.125,6.621094 10.125,10.3125 v 0.914063 c -17.22656,-0.08203 -26.80078,5.8125 -26.80078,16.582031 0,6.4453124 4.60547,12.7968749 13.62891,12.7968749 6.35156,0 11.14453,-3.1289063 13.62891,-6.6210938 H 528.71 l 0.64453,5.613281275 z M 528.15921,-15.012509 c 0,0.832031 -0.1875,1.746093 -0.46875,2.578125 -1.28906,3.7734371 -4.96875,7.4648434 -10.76953,7.4648434 -4.14843,0 -7.64062,-2.4960938 -7.64062,-7.7460934 0,-8.648438 10.03125,-10.21875 18.8789,-10.03125 z m 27.53907,15.011718375 0.36328,-7.371093775 h 0.28125 c 3.30469,5.8945313 8.47265,8.3789063 14.91797,8.3789063 9.9375,0 19.98047,-7.9101563 19.98047,-23.8476559 0.0937,-13.535157 -7.73438,-22.746094 -18.78516,-22.746094 -7.18359,0 -12.33984,3.222656 -15.19922,8.191406 h -0.1875 v -27.996094 h -8.00391 v 53.882813 c 0,3.9609374 -0.1875,8.4726561 -0.375,11.507812375 z M 557.06937,-25.875791 c 0,-1.289062 0.28125,-2.402343 0.46875,-3.316406 1.65234,-6.175781 6.80859,-9.949219 12.33984,-9.949219 8.66016,0 13.26563,7.640625 13.26563,16.582032 0,10.21875 -5.07422,17.1210934 -13.54688,17.1210934 -5.89453,0 -10.59375,-3.8671875 -12.15234,-9.4804684 -0.1875,-0.925782 -0.375,-1.933594 -0.375,-2.953125 z m 51.0293,25.875000375 0.36328,-7.371093775 h 0.28125 c 3.30469,5.8945313 8.47265,8.3789063 14.91797,8.3789063 9.9375,0 19.98047,-7.9101563 19.98047,-23.8476559 0.0937,-13.535157 -7.73438,-22.746094 -18.78516,-22.746094 -7.18359,0 -12.33984,3.222656 -15.19922,8.191406 h -0.1875 v -27.996094 h -8.00391 v 53.882813 c 0,3.9609374 -0.1875,8.4726561 -0.375,11.507812375 z M 609.46976,-25.875791 c 0,-1.289062 0.28125,-2.402343 0.46875,-3.316406 1.65234,-6.175781 6.80859,-9.949219 12.33984,-9.949219 8.66016,0 13.26563,7.640625 13.26563,16.582032 0,10.21875 -5.07422,17.1210934 -13.54688,17.1210934 -5.89453,0 -10.59375,-3.8671875 -12.15234,-9.4804684 -0.1875,-0.925782 -0.375,-1.933594 -0.375,-2.953125 z m 80.2207,5.0625 c 0.0937,-0.832031 0.26954,-2.121093 0.26954,-3.773437 0,-8.203125 -3.86719,-21 -18.41016,-21 -12.98438,0 -20.90625,10.59375 -20.90625,24.035156 0,13.4414064 8.19141,22.47656263 21.91406,22.47656263 7.08985,0 11.97656,-1.4765625 14.82422,-2.76562503 l -1.38281,-5.8007812 c -3.03516,1.2890625 -6.52735,2.296875 -12.33985,2.296875 -8.09765,0 -15.09375,-4.5117188 -15.28125,-15.4687504 z m -31.21875,-5.800781 c 0.64454,-5.625 4.23047,-13.171875 12.4336,-13.171875 9.11719,0 11.32031,8.015625 11.22656,13.171875 z m 41.53418,26.613281375 h 7.92188 V -26.895322 c 0,-1.382812 0.17578,-2.765625 0.64453,-3.960937 1.28906,-4.054688 4.96875,-8.097657 10.03125,-8.097657 6.17578,0 9.30469,5.15625 9.30469,12.246094 V -7.90625e-4 h 7.92187 V -27.539853 c 0,-1.476563 0.26953,-2.941406 0.64453,-4.054688 1.38282,-3.960937 4.96875,-7.359375 9.57422,-7.359375 6.53906,0 9.66797,5.15625 9.66797,13.722657 V -7.90625e-4 h 7.92188 V -26.250791 c 0,-15.46875 -8.74219,-19.335937 -14.63672,-19.335937 -4.24219,0 -7.1836,1.101562 -9.85547,3.128906 -1.83985,1.382813 -3.59766,3.316406 -4.98047,5.800781 h -0.17578 c -1.9336,-5.25 -6.53906,-8.929687 -12.6211,-8.929687 -7.37109,0 -11.50781,3.960937 -14.0039,8.191406 h -0.26953 l -0.375,-7.183594 h -7.08985 c 0.28125,3.691407 0.375,7.464844 0.375,12.070313 z M 814.11136,-44.578916 h -8.10937 v 27.351563 c 0,1.476562 -0.28125,2.953125 -0.73828,4.148437 -1.47657,3.5976566 -5.25,7.3710941 -10.6875,7.3710941 -7.35938,0 -9.9375,-5.7187501 -9.9375,-14.1914061 v -24.679688 h -8.10938 v 26.0625 c 0,15.6562504 8.37891,19.5234379 15.38672,19.5234379 7.91016,0 12.60937,-4.6875 14.73047,-8.2851563 h 0.1875 l 0.45703,7.277343775 h 7.18359 C 814.19339,-3.5046969 814.11136,-7.5476656 814.11136,-12.153134 Z m 10.31543,42.4570316 c 3.12891,1.83984378 7.64063,3.04687503 12.51563,3.04687503 10.59375,0 16.67578,-5.53125003 16.67578,-13.35937463 0,-6.632813 -3.96094,-10.5 -11.69531,-13.441407 -5.80079,-2.214843 -8.47266,-3.867187 -8.47266,-7.558593 0,-3.316407 2.67187,-6.082032 7.45312,-6.082032 4.14844,0 7.3711,1.476563 9.11719,2.589844 l 2.02735,-5.894531 c -2.48438,-1.476563 -6.44532,-2.765625 -10.95704,-2.765625 -9.57421,0 -15.375,5.894531 -15.375,13.078125 0,5.34375 3.77344,9.761719 11.77735,12.609375 5.98828,2.214844 8.29687,4.335937 8.29687,8.203125 0,3.6796874 -2.76562,6.6328124 -8.66015,6.6328124 -4.05469,0 -8.28516,-1.6640625 -10.6875,-3.2226563 z m 75.42188,-18.6914066 c 0.0937,-0.832031 0.26953,-2.121093 0.26953,-3.773437 0,-8.203125 -3.86719,-21 -18.41016,-21 -12.98437,0 -20.90625,10.59375 -20.90625,24.035156 0,13.4414064 8.19141,22.47656263 21.91406,22.47656263 7.08985,0 11.97657,-1.4765625 14.82422,-2.76562503 l -1.38281,-5.8007812 c -3.03516,1.2890625 -6.52734,2.296875 -12.33984,2.296875 -8.09766,0 -15.09375,-4.5117188 -15.28125,-15.4687504 z m -31.21875,-5.800781 c 0.64453,-5.625 4.23047,-13.171875 12.43359,-13.171875 9.11719,0 11.32031,8.015625 11.22656,13.171875 z m 78.83496,-17.964844 h -8.10938 v 27.351563 c 0,1.476562 -0.28125,2.953125 -0.73828,4.148437 -1.47656,3.5976566 -5.25,7.3710941 -10.6875,7.3710941 -7.35937,0 -9.9375,-5.7187501 -9.9375,-14.1914061 v -24.679688 h -8.10937 v 26.0625 c 0,15.6562504 8.3789,19.5234379 15.38672,19.5234379 7.91015,0 12.60937,-4.6875 14.73046,-8.2851563 h 0.1875 l 0.45704,7.277343775 h 7.18359 C 947.54691,-3.5046969 947.46488,-7.5476656 947.46488,-12.153134 Z m 13.4414,44.578125375 h 7.92188 V -26.895322 c 0,-1.382812 0.17578,-2.765625 0.64453,-3.960937 1.28906,-4.054688 4.96875,-8.097657 10.03125,-8.097657 6.17578,0 9.30469,5.15625 9.30469,12.246094 V -7.90625e-4 h 7.92187 V -27.539853 c 0,-1.476563 0.26953,-2.941406 0.64453,-4.054688 1.38282,-3.960937 4.96877,-7.359375 9.57427,-7.359375 6.539,0 9.6679,5.15625 9.6679,13.722657 V -7.90625e-4 h 7.9219 V -26.250791 c 0,-15.46875 -8.7422,-19.335937 -14.6367,-19.335937 -4.2422,0 -7.1836,1.101562 -9.8555,3.128906 -1.83983,1.382813 -3.59765,3.316406 -4.98046,5.800781 h -0.17578 c -1.93359,-5.25 -6.53906,-8.929687 -12.62109,-8.929687 -7.3711,0 -11.50782,3.960937 -14.00391,8.191406 h -0.26953 l -0.375,-7.183594 h -7.08985 c 0.28125,3.691407 0.375,7.464844 0.375,12.070313 z M 1093.0616,-20.813291 c 0.094,-0.832031 0.2695,-2.121093 0.2695,-3.773437 0,-8.203125 -3.8672,-21 -18.4102,-21 -12.9843,0 -20.9062,10.59375 -20.9062,24.035156 0,13.4414064 8.1914,22.47656263 21.914,22.47656263 7.0899,0 11.9766,-1.4765625 14.8243,-2.76562503 l -1.3828,-5.8007812 c -3.0352,1.2890625 -6.5274,2.296875 -12.3399,2.296875 -8.0976,0 -15.0937,-4.5117188 -15.2812,-15.4687504 z m -31.2188,-5.800781 c 0.6445,-5.625 4.2305,-13.171875 12.4336,-13.171875 9.1172,0 11.3203,8.015625 11.2266,13.171875 z m 49.6289,26.613281375 V -44.578916 h -8.0976 V -7.90625e-4 Z m -4.043,-62.167968375 c -2.9531,0 -5.0742,2.214843 -5.0742,5.0625 0,2.765625 2.0274,4.980468 4.8867,4.980468 3.2227,0 5.25,-2.214843 5.1563,-4.980468 0,-2.847657 -1.9336,-5.0625 -4.9688,-5.0625 z m 17.4961,62.167968375 h 8.0977 V -26.801572 c 0,-1.382812 0.1875,-2.765625 0.5508,-3.773437 1.3828,-4.511719 5.5312,-8.285157 10.875,-8.285157 7.6406,0 10.3125,5.976563 10.3125,13.160157 V -7.90625e-4 h 8.1094 V -26.614072 c 0,-15.292969 -9.586,-18.972656 -15.75,-18.972656 -7.3711,0 -12.5274,4.136719 -14.7422,8.378906 h -0.1758 l -0.4688,-7.371094 h -7.1836 c 0.2813,3.691407 0.375,7.464844 0.375,12.070313 z M 1206.4229,-65.391416 v 26.613282 h -0.1875 c -2.0156,-3.585938 -6.6211,-6.808594 -13.4414,-6.808594 -10.8633,0 -20.0742,9.117187 -19.9805,23.941406 0,13.5351564 8.2852,22.6523439 19.0547,22.6523439 7.2773,0 12.7148,-3.7734375 15.1992,-8.7421875 h 0.1875 l 0.3633,7.734374975 h 7.2773 C 1214.626,-3.0359469 1214.5323,-7.5476656 1214.5323,-11.508603 v -53.882813 z m 0,46.699219 c 0,1.289063 -0.094,2.390625 -0.3633,3.492188 -1.4766,6.0820309 -6.4453,9.6679684 -11.8828,9.6679684 -8.7539,0 -13.1719,-7.4531254 -13.1719,-16.4765624 0,-9.855469 4.9688,-17.226563 13.3594,-17.226563 6.0703,0 10.5,4.242188 11.6953,9.398438 0.2695,1.007812 0.3633,2.390625 0.3633,3.398437 z m 21.5537,18.691406375 h 8.0977 V -26.895322 c 0,-1.558594 0.094,-2.765625 0.5507,-3.867187 1.4766,-4.417969 5.625,-8.097657 10.875,-8.097657 7.6407,0 10.3125,6.070313 10.3125,13.253907 V -7.90625e-4 h 8.1094 V -26.520322 c 0,-15.386719 -9.5859,-19.066406 -15.5742,-19.066406 -3.0352,0 -5.8945,0.914062 -8.2852,2.296875 -2.4843,1.382812 -4.5117,3.410156 -5.8007,5.71875 h -0.1875 v -27.820313 h -8.0977 z M 1297.9668,-45.586728 c -12.3398,0 -22.1015,8.742187 -22.1015,23.671875 0,14.0859374 9.2929,22.9218749 21.3632,22.9218749 10.7696,0 22.1954,-7.1835938 22.1954,-23.6601559 0,-13.628907 -8.6602,-22.933594 -21.4571,-22.933594 z m -0.1875,6.070312 c 9.5742,0 13.3594,9.585938 13.3594,17.132813 0,10.042969 -5.8008,17.3203124 -13.5469,17.3203124 -7.9218,0 -13.5351,-7.3710934 -13.5351,-17.1328124 0,-8.472656 4.1484,-17.320313 13.7226,-17.320313 z m 25.6934,-5.0625 16.9453,44.578125375 h 7.7344 L 1365.6602,-44.578916 h -8.4727 l -8.6601,25.054688 c -1.4766,4.054687 -2.7656,7.734375 -3.7735,11.4140624 h -0.2812 c -0.9258,-3.6796874 -2.1211,-7.3593754 -3.5859,-11.4140624 l -8.754,-25.054688 z m 84.7324,23.765625 c 0.094,-0.832031 0.2695,-2.121093 0.2695,-3.773437 0,-8.203125 -3.8671,-21 -18.4101,-21 -12.9844,0 -20.9063,10.59375 -20.9063,24.035156 0,13.4414064 8.1914,22.47656263 21.9141,22.47656263 7.0898,0 11.9766,-1.4765625 14.8242,-2.76562503 l -1.3828,-5.8007812 c -3.0352,1.2890625 -6.5273,2.296875 -12.3398,2.296875 -8.0977,0 -15.0938,-4.5117188 -15.2813,-15.4687504 z m -31.2187,-5.800781 c 0.6445,-5.625 4.2304,-13.171875 12.4336,-13.171875 9.1171,0 11.3203,8.015625 11.2265,13.171875 z m 41.5312,26.613281375 h 8.0977 V -26.801572 c 0,-1.382812 0.1875,-2.765625 0.5507,-3.773437 1.3829,-4.511719 5.5313,-8.285157 10.875,-8.285157 7.6407,0 10.3125,5.976563 10.3125,13.160157 V -7.90625e-4 h 8.1094 V -26.614072 c 0,-15.292969 -9.5859,-18.972656 -15.75,-18.972656 -7.3711,0 -12.5273,4.136719 -14.7422,8.378906 h -0.1757 l -0.4688,-7.371094 h -7.1836 c 0.2813,3.691407 0.375,7.464844 0.375,12.070313 z m 0,0" style="fill:#231916;fill-opacity:1;fill-rule:nonzero;stroke:none" aria-label="stedelijk van abbemuseum eindhoven" transform="matrix(1.3333333,0,0,1.3333333,603.73693,817.88387)" />
      </g></svg>