<?xml version='1.0' encoding='utf-8'?>
<svg xmlns="http://www.w3.org/2000/svg" version="1.1" width="80.635" height="144.508" viewBox="2157.650 4208.250 80.635 144.508"><g id="object"><path id="path355" d="m 0,0 c -2.756,-0.217 -5.493,-0.338 -8.147,0.725 -1.978,0.793 -3.521,2.044 -3.136,4.299 0.28,1.641 1.751,2.539 3.445,2.704 3.909,0.381 7.859,0.482 11.73,1.095 8.375,1.328 15.723,4.827 21.771,10.916 2.537,2.553 4.674,5.348 5.811,8.762 1.466,4.402 1.285,8.628 -2.52,11.882 -3.577,3.059 -7.21,6.079 -11.033,8.816 -5.801,4.153 -11.128,8.762 -15.244,14.617 -5.725,8.144 -5.678,15.691 0.246,23.901 2.287,3.169 4.775,6.26 7.575,8.97 1.962,1.898 4.692,2.922 7.609,2.421 1.685,-0.29 2.653,-1.535 3.224,-3.087 0.496,-1.348 -0.203,-2.512 -1.171,-3.04 C 14.789,90.055 11.226,85.555 8.041,80.453 5.114,75.765 5.468,71.514 8.443,67.292 c 2.489,-3.532 5.228,-6.845 9.003,-9.218 3.656,-2.299 7.13,-4.892 10.639,-7.419 1.592,-1.148 3.292,-2.255 4.572,-3.708 C 40.721,37.79 43.5,29.457 34.726,17.227 27.674,7.398 12.767,0.188 0,0" style="fill:#1e4a94;fill-opacity:1;fill-rule:nonzero;stroke:none" transform="matrix(1.3333333,0,0,-1.3333333,2178.7737,4346.5671)" />
      </g></svg>