<?xml version='1.0' encoding='utf-8'?>
<svg xmlns="http://www.w3.org/2000/svg" version="1.1" width="271.422" height="364.595" viewBox="761.191 2656.860 271.422 364.595"><g id="object"><path id="path139" d="m 0,0 c -0.038,1.279 -0.077,2.557 -0.113,3.835 0.513,2.644 1.676,5.355 1.42,7.924 -1.16,11.686 0.584,23.156 1.972,34.666 0.228,1.891 1.296,4.204 0.572,5.587 -2.194,4.192 -1.39,8.23 -0.692,12.457 0.512,3.097 0.059,6.198 -1.023,9.174 0.006,1.168 0.012,2.336 0.022,3.501 0.203,1.798 0.403,3.598 0.602,5.399 0.887,4.915 1.86,9.725 1.421,14.878 -0.354,4.145 0.857,8.433 1.466,12.644 0.233,1.617 1.169,2.827 2.785,3.394 -0.001,-2.054 0.744,-3.632 2.526,-4.843 2.223,-1.509 4.286,-3.252 6.418,-4.895 2.168,-2.349 5.389,-3.119 7.466,-1.328 6.165,5.316 13.903,4.515 20.943,6.37 0.862,0.044 1.724,0.087 2.586,0.131 1.948,-0.419 3.73,-1.087 4.436,-3.204 0.682,-2.045 1.62,-2.404 3.165,-0.683 1.524,1.697 3.873,2.658 4.53,5.126 0.717,0.257 1.399,0.586 2.046,0.987 5.475,0.044 10.998,-0.678 16.337,1.276 5.375,1.967 11.048,1.207 16.589,1.654 1.974,0.16 2.686,3.594 4.873,2.278 2.516,-1.512 4.148,-1.259 6.016,0.903 1.518,1.757 3.497,3.106 5.154,4.754 0.926,0.921 1.739,1.389 2.986,0.674 7.477,-4.288 14.388,-1.868 20.827,2.27 2.365,1.52 3.971,1.826 6.28,0.354 1.609,-1.026 3.499,-2.133 5.309,-2.217 4.97,-0.229 7.68,-3.576 10.459,-6.859 0.66,-0.78 1.044,-2.227 0.826,-3.204 -0.27,-1.214 -1.782,-1.623 -2.835,-1.14 -3.84,1.763 -8.249,-0.54 -11.418,0.683 -4.962,1.914 -8.032,-1.967 -12.157,-1.958 -2.254,0.005 -4.502,-1.228 -6.769,-1.842 C 111.105,104.978 96.508,104.073 83.006,98.402 78.383,96.46 73.031,96.304 68.311,94.533 62.362,92.302 56.25,90.922 50.056,90.059 39.547,88.594 29.401,86.051 19.519,82.159 15.669,80.643 14.431,78.108 13.713,74.383 13.141,71.413 14.081,68.958 14.892,66.385 16.81,60.3 16.204,54.892 11.206,50.403 10.053,49.368 9.122,48.075 8.15,46.853 5.581,43.62 5.689,38.593 9.276,35.775 c 2.003,-1.572 3.371,-2.773 3.743,-5.35 0.727,-5.028 1.784,-10.007 2.687,-15.009 0.309,-1.716 1.263,-2.823 2.983,-3.129 1.154,-0.205 2.371,-0.11 3.499,-0.391 13.445,-3.355 14.416,-4.443 7.11,-16.902 -0.687,0.212 -1.39,0.339 -2.108,0.382 -2.075,1.999 -4.625,2.279 -7.323,2.024 -1.561,0.036 -3.122,0.073 -4.683,0.109 -3.027,-3.073 -3.028,-3.104 -0.085,-6.856 -0.03,-3.963 -0.06,-7.927 -0.089,-11.89 -2.143,-0.466 -3.264,-1.545 -2.491,-3.91 0.347,-1.061 0.517,-2.179 0.768,-3.271 0.216,-1.694 0.433,-3.389 0.649,-5.083 -0.517,-0.297 -1.035,-0.594 -1.552,-0.89 0.733,-0.551 1.466,-1.101 2.199,-1.651 -0.575,-2.24 -1.149,-4.479 -1.724,-6.719 -2.755,-4.438 -2.744,-4.938 0.197,-8.745 l 0.424,-0.755 c -1.325,-2.16 -3.6,-2.849 -5.776,-3.602 -2.761,-0.956 -4.461,0.298 -4.197,3.438 0.418,4.983 0.563,9.847 -2.032,14.369 -0.16,0.909 -0.32,1.817 -0.48,2.722 2.887,3.305 2.049,7.273 1.715,11.023 -0.663,7.438 -1.604,14.802 0.615,22.21 C 3.819,-0.453 1.453,-0.228 0,0" style="fill:#1e4a94;fill-opacity:1;fill-rule:nonzero;stroke:none" transform="matrix(1.3333333,0,0,-1.3333333,795.8148,2848.0257)" />
      <path id="path140" d="m 0,0 c -1.085,0.057 -2.182,-0.347 -2.567,-1.505 -0.176,-0.531 0.19,-1.633 0.651,-1.909 1.219,-0.731 3.471,0.639 3.345,2.011 C 1.384,-0.919 0.545,-0.508 0,0 m -11.557,-6.323 c -0.204,2.292 -2.324,3.847 -4.873,3.37 -1.159,-0.217 -2.214,-1.162 -1.977,-2.376 0.329,-1.677 3.715,-3.228 5.67,-2.676 0.512,0.144 0.795,1.098 1.18,1.682 m -25.209,-12.416 c 7.305,12.46 6.333,13.548 -7.111,16.902 -1.128,0.282 -2.345,0.187 -3.499,0.392 -1.721,0.306 -2.674,1.413 -2.984,3.129 -0.902,5.002 -1.959,9.981 -2.686,15.009 -0.372,2.577 -1.74,3.778 -3.743,5.35 -3.587,2.818 -3.696,7.845 -1.126,11.078 0.972,1.222 1.903,2.515 3.055,3.55 4.999,4.489 5.605,9.897 3.687,15.982 -0.811,2.573 -1.751,5.028 -1.179,7.998 0.718,3.725 1.955,6.26 5.806,7.776 9.882,3.891 20.028,6.435 30.537,7.9 6.194,0.863 12.306,2.243 18.255,4.474 4.72,1.771 10.072,1.927 14.695,3.869 13.502,5.671 28.099,6.576 42.019,10.344 2.267,0.614 4.515,1.847 6.769,1.842 4.125,-0.009 7.195,3.872 12.157,1.958 3.169,-1.223 7.578,1.08 11.417,-0.683 1.053,-0.483 2.566,-0.074 2.836,1.14 0.217,0.977 -0.166,2.424 -0.826,3.204 -2.779,3.283 -5.489,6.63 -10.459,6.859 -1.81,0.083 -3.701,1.191 -5.309,2.217 -2.309,1.472 -3.916,1.166 -6.281,-0.354 -6.438,-4.138 -13.349,-6.558 -20.826,-2.27 -1.247,0.715 -2.06,0.247 -2.986,-0.674 -1.657,-1.648 -3.636,-2.997 -5.154,-4.754 -1.868,-2.162 -3.501,-2.415 -6.016,-0.903 -2.187,1.315 -2.899,-2.118 -4.873,-2.278 C 23.868,99.871 18.195,100.631 12.82,98.664 7.481,96.71 1.958,97.432 -3.519,97.386 c 1.261,2.77 4.604,1.546 6.385,3.324 1.453,5.66 5.277,8.766 10.932,8.883 4.547,0.093 9.132,2.725 13.745,-0.075 0.73,-0.443 2.387,-0.04 3.251,0.527 6.839,4.48 13.92,8.264 22.253,9.113 0.438,0.045 0.755,1.271 1.133,1.934 9.424,1.343 18.841,2.697 28.263,4.053 0.783,-1.272 1.646,-2.502 2.324,-3.826 1.775,-3.471 4.498,-4.812 8.304,-3.916 1.496,-1.565 2.991,-3.129 4.487,-4.699 -1.614,-1.549 -2.399,-3.012 0.403,-4.124 2.851,-0.679 3.563,-3.076 4.348,-5.42 -2.347,-1.598 -2.688,-3.179 0.03,-4.74 -0.13,-1.186 -0.261,-2.373 -0.387,-3.56 -1.579,-2.386 -2.877,-4.787 -0.395,-7.392 -0.452,-1.386 -0.786,-2.826 -1.381,-4.148 -1.345,-2.987 -1.754,0.457 -2.673,0.446 C 93.445,92.684 86.22,94.829 77.117,93.763 69.314,92.848 61.668,91.288 54.043,89.506 48.698,88.257 43.3,87.222 37.99,85.843 26.618,82.891 15.314,79.682 3.933,76.768 -2.523,75.115 -9.018,73.386 -15.604,72.53 c -5.573,-0.725 -10.517,-2.791 -15.641,-4.73 -3.764,-1.424 -6.028,-3.497 -6.118,-7.594 -0.049,-2.258 -1.156,-3.611 -3.338,-4.147 -4.654,-1.142 -6.027,-4.466 -5.997,-8.846 0.061,-9.021 0.168,-18.045 -0.011,-27.062 -0.112,-5.629 1.42,-9.961 6.994,-12.325 1.354,-0.575 2.338,-2.025 3.484,-3.069 2.395,-3.094 5.879,-1.646 8.907,-2.117 0.081,-1.938 0.42,-3.758 2.262,-4.879 0.542,-0.95 0.997,-1.062 1.149,-0.29 0.035,0.174 -0.484,0.457 -0.748,0.69 -0.125,1.934 -0.879,3.509 -2.584,4.544 3.034,3.692 6.299,1.094 9.532,0.394 8.428,-1.823 8.414,-1.795 9.439,-10.677 0.118,-1.025 0.784,-1.301 2.197,-0.403 0.261,3.893 -0.546,8.686 2.146,12.704 C -2.093,4.439 -0.255,4.156 1.575,3.872 2.295,3.709 3.024,3.546 3.752,3.382 5.435,2.813 7.118,2.245 8.791,1.68 c 2.647,-1.892 4.827,-4.09 3.82,-7.728 -0.831,-3.005 -1.303,-5.801 -0.549,-9.067 0.947,-4.097 -0.584,-5.679 -5.043,-5.615 -11.225,0.162 -22.535,-1.59 -33.674,1.323 -0.837,0.219 -2.014,-0.867 -3.033,-1.347 -1.515,-0.09 -3.03,-0.18 -4.546,-0.27 -0.844,0.762 -1.688,1.523 -2.532,2.285" style="fill:#3675ba;fill-opacity:1;fill-rule:nonzero;stroke:none" transform="matrix(1.3333333,0,0,-1.3333333,883.90173,2829.7163)" />
      <path id="path148" d="M 0,0 C -0.309,0.585 -0.557,1.639 -0.955,1.7 -2.146,1.88 -3.277,1.302 -3.457,0.004 -3.539,-0.583 -2.958,-1.769 -2.566,-1.82 -1.344,-1.979 -0.445,-1.212 0,0 M 29.224,9.213 C 29.205,5.528 28.419,2.143 25.014,0.076 21.863,-1.837 18.55,-2.769 15.096,-0.565 11.861,1.5 10.771,-3.083 7.875,-2.787 2.796,-2.269 -2.143,-3.719 -6.707,-5.711 c -6.556,-2.861 -13.611,-3.491 -20.424,-4.918 -10.283,-2.153 -20.676,-3.748 -30.842,-6.529 -5.716,-1.563 -12.139,-2.742 -17.399,-0.78 -8.47,3.16 -16.136,-0.35 -24.117,-0.676 -5.096,-0.207 -8.187,-4.396 -10.276,-8.711 -1.709,-3.53 -3.122,-7.191 -5.742,-10.172 -0.447,-0.509 -1.475,-1.012 -2.006,-0.834 -1.01,0.338 -2.348,0.985 -2.665,1.835 -0.67,1.795 -0.696,3.819 -1.118,5.721 -1.834,8.26 -5.974,11.768 -14.56,12.389 -1.55,0.112 -3.127,0.018 -4.653,0.263 -1.775,0.285 -2.404,1.802 -2.927,3.312 5.278,-0.13 9.595,2.543 14.05,4.812 l 0.405,-0.398 c 2.117,-2.889 4.541,-5.426 7.898,-6.896 0.529,-0.85 1.059,-1.699 1.589,-2.548 4.442,-4.592 4.741,-4.601 7.487,-0.225 0.313,1.697 0.625,3.394 0.938,5.09 1.545,0.156 3.105,0.219 4.629,0.49 1.873,0.333 3.748,0.736 5.565,1.294 3.057,0.939 1.784,7.171 6.888,5.706 0.325,1.505 0.756,2.997 0.95,4.52 0.29,2.279 0.332,4.592 0.666,6.863 0.08,0.544 0.884,1.35 1.38,1.369 0.612,0.024 1.47,-0.501 1.839,-1.047 1.186,-1.757 0.668,-4.77 5.477,-5.238 -2.873,4.3 -1.954,8.28 -1.253,12.364 0.292,1.698 -1.891,1.997 -3.49,1.917 l -0.071,0.096 c 0.992,1.212 2.133,2.122 3.813,2.156 7.25,0.143 14.499,0.312 21.752,0.472 0.189,-0.699 0.326,-1.409 0.414,-2.129 l -0.233,-0.199 c -0.804,-0.13 -1.608,-0.26 -2.411,-0.391 -1.917,-0.738 -2.093,-2.508 -2.466,-4.161 -1.604,-0.226 -3.207,-0.453 -4.81,-0.679 -2.31,0.059 -5.333,0.573 -5.938,-2.22 -0.988,-4.556 -1.445,-9.571 1.763,-13.447 2.748,-3.319 6.55,-5.455 11.275,-4.662 9.193,-0.827 9.193,-0.827 9.744,7.961 0.024,0.385 0.052,0.769 0.077,1.154 2.268,0.952 4.535,1.904 6.802,2.856 4.189,-4.912 4.213,-4.925 6.883,-0.108 0.691,1.248 0.72,3.452 2.935,2.35 0.834,-0.415 1.358,-1.82 1.645,-2.876 0.374,-1.375 -0.768,-3.367 1.221,-4.037 1.885,-0.633 3.919,-0.311 5.623,0.82 0.572,0.379 1.31,1.608 1.141,1.837 -2.615,3.555 -2.984,7.998 -4.774,11.777 -1.495,3.157 -5.737,1.019 -8.623,2.127 -2.127,0.816 -2.233,4.148 -5.514,3.671 -0.159,-2.293 -0.319,-4.606 -0.478,-6.919 -3.047,1.393 -3.206,5.292 -6.119,7.343 -0.327,-1.83 -0.582,-3.262 -0.837,-4.692 -2.374,1.466 -3.426,4.712 -6.694,4.974 0.685,2.08 2.185,3.06 4.305,3.318 6.174,0.751 12.341,1.647 18.556,0.354 -0.115,-0.985 -1.091,-2.31 0.156,-2.852 1.184,-0.515 1.867,0.708 2.233,1.803 0.119,0.354 0.203,0.721 0.303,1.082 5.778,2.748 11.575,0.124 17.148,-0.579 6.191,-0.781 12.312,-1.9 18.553,-1.502 5.358,0.342 9.021,-1.694 11.042,-6.67 0.715,-1.757 0.903,-3.852 3.003,-4.729 0.226,-1.052 0.54,-1.222 0.817,-0.461 0.029,0.082 -0.5,0.367 -0.771,0.557 0.181,1.523 0.362,3.046 0.538,4.568 0.543,0.833 1.09,1.665 1.638,2.497 1.674,1.654 3.275,2.13 4.699,-0.284 0.133,-3.143 1.768,-4.645 4.918,-4.477 1.462,0.077 2.923,0.167 4.384,0.252" style="fill:#548dc7;fill-opacity:1;fill-rule:nonzero;stroke:none" transform="matrix(1.3333333,0,0,-1.3333333,978.3748,2964.2973)" />
      <path id="path177" d="m 0,0 c 1.019,0.48 2.196,1.566 3.032,1.347 11.14,-2.913 22.45,-1.161 33.675,-1.323 4.459,-0.064 5.989,1.518 5.043,5.615 -0.755,3.266 -0.283,6.062 0.549,9.067 1.007,3.638 -1.173,5.836 -3.82,7.728 2.043,1.771 3.878,3.885 7.006,3.571 6.933,-0.697 13.648,0.448 20.519,1.443 5.254,0.76 11.324,0.702 16.65,-1.853 0.163,-2.584 -0.556,-5.879 3.886,-5.209 3.623,0.547 6.846,0.417 8.942,-3.314 1.471,-2.62 1.851,-5.732 0.334,-6.099 -2.368,-0.574 -2.769,2.26 -4.477,2.917 -0.304,0.117 -0.707,-0.025 -1.689,-0.087 V 4.751 c 0,0 0.032,-0.034 0.033,-0.035 C 87.734,4.723 86.181,3.923 84.978,2.408 84.286,2.494 83.592,2.55 82.896,2.574 79.173,5.25 75.103,5.073 71.246,3.329 68.41,2.046 66.203,2.576 63.901,4.147 c 2.191,3.551 7.248,2.684 9.536,6.375 1.463,2.359 1.62,4.769 -1.01,5.567 -4.587,1.39 -7.669,5.966 -12.147,6.527 -5.704,0.715 -6.854,-6.991 -12.085,-8.262 -1.893,-0.46 -3.087,-2.313 -2.694,-4.611 0.388,-2.269 2.312,-2.993 4.006,-3.893 2.529,-1.344 5.258,-1.455 7.996,-0.902 1.604,0.324 3.055,0.467 4.178,-1.003 1.282,-4.669 -2.448,-6.293 -5.178,-8.526 C 44.832,-4.425 33.16,-4.208 21.487,-4.137 14.049,-4.092 6.752,-3.516 0,0" style="fill:#548dc7;fill-opacity:1;fill-rule:nonzero;stroke:none" transform="matrix(1.3333333,0,0,-1.3333333,844.31827,2857.3883)" />
      <path id="path188" d="m 0,0 c -4.456,-2.269 -8.772,-4.942 -14.05,-4.812 -0.719,0.677 -1.437,1.354 -2.153,2.024 -6.971,8.146 -8.268,14.379 -4.157,21.809 1.315,2.377 3.199,4.089 6.607,2.77 3.578,-1.385 2.071,1.77 2.362,3.245 4.22,3.76 6.365,7.514 4.499,13.932 -1.862,6.407 -2.616,13.598 0.832,20.182 2.595,-4.525 2.451,-9.389 2.032,-14.372 -0.264,-3.14 1.436,-4.394 4.197,-3.438 2.177,0.753 4.451,1.442 5.771,3.606 C 8.805,41.444 7.302,37.354 7.47,33.484 6.533,34.183 5.534,34.818 4.671,35.602 3.449,36.712 2.162,37.525 0.513,36.729 -1.021,35.988 -2.312,34.281 -1.815,32.992 0.277,27.566 -2.358,21.375 1.102,16.24 1.843,15.14 1.76,13.539 0.644,13.161 -5.59,11.046 -3.293,8.068 -0.663,4.577 0.15,3.498 -0.189,1.55 0,0" style="fill:#3675ba;fill-opacity:1;fill-rule:nonzero;stroke:none" transform="matrix(1.3333333,0,0,-1.3333333,805.86067,2977.6297)" />
      <path id="path214" d="m 0,0 c -0.166,3.867 1.336,7.957 -1.528,11.459 0.005,-0.004 -0.419,0.752 -0.42,0.748 -0.066,2.914 -0.131,5.831 -0.195,8.749 0.574,2.239 1.149,4.479 1.726,6.719 -0.215,0.848 -0.432,1.694 -0.649,2.54 -0.217,1.695 -0.433,3.389 -0.652,5.082 2.042,2.04 1.841,4.621 1.725,7.183 0.03,3.963 0.06,7.926 0.09,11.886 0.029,2.285 0.057,4.572 0.085,6.859 1.56,-0.036 3.121,-0.072 4.682,-0.108 1.998,-2.278 4.665,-2.137 7.324,-2.025 0.718,-0.042 1.42,-0.169 2.108,-0.382 0.844,-0.762 1.688,-1.524 2.533,-2.285 C 13.589,53.333 7.71,56.833 5.323,52.051 3.528,48.455 4.17,44.365 4.028,40.46 3.971,38.894 4.026,37.274 3.643,35.778 0.539,23.654 1.302,11.695 4.969,-0.168 c 0,0 -0.499,-0.455 -0.497,-0.452 -1.39,0.07 -2.781,0.139 -4.172,0.207 z" style="fill:#548dc7;fill-opacity:1;fill-rule:nonzero;stroke:none" transform="matrix(1.3333333,0,0,-1.3333333,815.81813,2932.9809)" />
      <path id="path218" d="m 0,0 c -0.292,-1.475 1.216,-4.63 -2.362,-3.245 -3.409,1.319 -5.292,-0.393 -6.607,-2.77 -4.111,-7.43 -2.815,-13.663 4.157,-21.81 -8.734,-0.428 -10.361,0.388 -11.005,7.823 -0.461,5.332 -3.239,10.53 -0.813,16.178 1.073,2.498 2.377,4.165 4.895,4.236 C -7.83,0.521 -3.912,0.161 0,0" style="fill:#548dc7;fill-opacity:1;fill-rule:nonzero;stroke:none" transform="matrix(1.3333333,0,0,-1.3333333,790.67307,2944.2479)" />
      <path id="path219" d="m 0,0 c -1.616,-0.567 -2.552,-1.777 -2.786,-3.394 -0.608,-4.211 -1.819,-8.499 -1.466,-12.644 0.44,-5.153 -0.534,-9.963 -1.417,-14.876 -0.414,0.003 -0.831,0.034 -1.244,0.097 -0.658,13.219 0.943,26.302 2.441,39.386 0.172,1.5 0.772,2.972 1.321,4.401 0.715,1.86 3.796,2.49 4.753,0.87 C 4.086,9.634 8.008,5.743 5.371,0.105 4.141,2.263 2.877,4.1 0.9,0.683 0.727,0.382 0.306,0.224 0,0" style="fill:#548dc7;fill-opacity:1;fill-rule:nonzero;stroke:none" transform="matrix(1.3333333,0,0,-1.3333333,807.05813,2696.7472)" />
      <path id="path220" d="m 0,0 c 1.082,-2.976 1.535,-6.078 1.024,-9.174 -0.699,-4.228 -1.503,-8.266 0.692,-12.458 0.723,-1.383 -0.345,-3.696 -0.573,-5.586 -1.388,-11.51 -3.132,-22.98 -1.971,-34.666 0.255,-2.57 -0.908,-5.28 -1.421,-7.925 -1.99,2.134 -2.811,4.704 -2.341,7.525 2.059,12.335 0.973,24.805 1.498,37.2 0.329,7.758 1.452,15.398 1.941,23.112 C -1.108,-1.293 -0.4,-0.656 0,0" style="fill:#3675ba;fill-opacity:1;fill-rule:nonzero;stroke:none" transform="matrix(1.3333333,0,0,-1.3333333,798.66267,2749.8344)" />
      <path id="path227" d="M 0,0 C 1.453,-0.228 3.819,-0.453 3.325,-2.101 1.106,-9.509 2.047,-16.873 2.71,-24.311 3.044,-28.061 3.882,-32.029 0.995,-35.334 -2.36,-24.982 -2.586,-14.269 -2.622,-3.548 -2.627,-1.932 -1.382,-0.812 0,0" style="fill:#3675ba;fill-opacity:1;fill-rule:nonzero;stroke:none" transform="matrix(1.3333333,0,0,-1.3333333,795.8148,2848.0257)" />
      <path id="path229" d="m 0,0 c -1.781,-1.778 -5.124,-0.554 -6.385,-3.324 -0.645,-0.399 -1.327,-0.728 -2.044,-0.979 -4.133,0.452 -8.404,2.242 -12.13,-1.245 -0.863,-0.044 -1.725,-0.087 -2.585,-0.132 -2.163,3.066 -5.488,1.594 -8.302,2.12 1.539,1.976 3.729,2.997 6.048,3.349 5.784,0.878 11.501,1.499 16.903,4.315 C -4.678,6.093 -1.824,3.498 0,0" style="fill:#548dc7;fill-opacity:1;fill-rule:nonzero;stroke:none" transform="matrix(1.3333333,0,0,-1.3333333,887.7228,2695.4365)" />
      <path id="path230" d="m 0,0 c -3.028,0.471 -6.512,-0.977 -8.907,2.117 2.141,1.439 3.52,3.763 7.061,2.94 4.089,-0.951 8.478,-0.802 12.737,-0.79 4.334,0.012 8.553,-0.227 12.507,-2.183 -2.697,-4.02 -1.89,-8.812 -2.15,-12.705 -1.414,-0.898 -2.08,-0.622 -2.198,0.403 C 18.025,-1.337 18.04,-1.364 9.611,0.459 6.378,1.159 3.114,3.757 0.079,0.065 0.079,0.065 0,0 0,0" style="fill:#548dc7;fill-opacity:1;fill-rule:nonzero;stroke:none" transform="matrix(1.3333333,0,0,-1.3333333,847.4692,2826.1961)" />
      <path id="path237" d="m 0,0 c 5.576,-4.882 11.135,-9.406 19.429,-8.728 2.849,0.234 5.804,-2.111 9.031,-1.233 0,0 0.07,-0.096 0.071,-0.093 -6.96,-3.119 -13.883,-3.113 -20.522,0.724 -2.397,1.385 -4.775,2.233 -7.49,2.28 l -0.629,0.367 c -0.13,2.076 -0.26,4.153 -0.389,6.229 z" style="fill:#548dc7;fill-opacity:1;fill-rule:nonzero;stroke:none" transform="matrix(1.3333333,0,0,-1.3333333,822.44307,2933.2052)" />
      <path id="path239" d="m 0,0 c 2.814,-0.526 6.139,0.946 8.302,-2.12 -7.042,-1.854 -14.78,-1.052 -20.944,-6.369 -2.077,-1.791 -5.298,-1.021 -7.465,1.33 10e-4,0 0.446,0.548 0.446,0.548 2.075,1.159 4.15,2.318 6.226,3.478 1.737,0.496 3.475,0.993 5.207,1.487 2.408,-0.669 4.767,-1.018 6.701,1.137 C -1.089,-0.126 -0.58,0.044 0,0" style="fill:#3675ba;fill-opacity:1;fill-rule:nonzero;stroke:none" transform="matrix(1.3333333,0,0,-1.3333333,845.79413,2700.1832)" />
      <path id="path247" d="m 0,0 c 0.306,0.224 0.727,0.382 0.9,0.683 1.977,3.417 3.241,1.58 4.471,-0.578 1.255,-1.83 2.515,-3.661 3.773,-5.49 0.081,-1.265 0.164,-2.534 0.247,-3.803 0,0 -0.445,-0.548 -0.446,-0.548 C 6.812,-8.095 4.748,-6.352 2.526,-4.843 0.744,-3.632 -0.002,-2.054 0,0" style="fill:#3675ba;fill-opacity:1;fill-rule:nonzero;stroke:none" transform="matrix(1.3333333,0,0,-1.3333333,807.05813,2696.7472)" />
      <path id="path261" d="M 0,0 C 0.279,0.975 0.558,1.949 0.841,2.912 2.294,3.155 3.736,3.519 5.196,3.608 5.708,3.64 6.262,2.998 6.797,2.663 6.349,2.106 5.996,1.212 5.435,1.054 3.665,0.554 1.818,0.33 0,0" style="fill:#548dc7;fill-opacity:1;fill-rule:nonzero;stroke:none" transform="matrix(1.3333333,0,0,-1.3333333,1017.5543,2951.8845)" />
      <path id="path276" d="M 0,0 C -0.083,1.269 -0.166,2.538 -0.247,3.803 1.918,3.695 4.081,3.589 6.235,3.481 4.15,2.318 2.075,1.159 0,0" style="fill:#548dc7;fill-opacity:1;fill-rule:nonzero;stroke:none" transform="matrix(1.3333333,0,0,-1.3333333,819.5792,2708.9977)" />
      <path id="path566" d="M 0,0 C 3.727,3.487 7.997,1.697 12.13,1.245 11.474,-1.228 9.125,-2.19 7.601,-3.887 6.055,-5.608 5.118,-5.249 4.436,-3.203 3.73,-1.087 1.948,-0.419 0,0" style="fill:#3675ba;fill-opacity:1;fill-rule:nonzero;stroke:none" transform="matrix(1.3333333,0,0,-1.3333333,860.31013,2702.8341)" />
      <path id="path572" d="m 0,0 c -0.387,-0.583 -0.67,-1.536 -1.182,-1.681 -1.955,-0.552 -5.341,0.999 -5.67,2.676 -0.237,1.214 0.818,2.159 1.977,2.376 C -2.326,3.848 -0.205,2.293 0,0" style="fill:#548dc7;fill-opacity:1;fill-rule:nonzero;stroke:none" transform="matrix(1.3333333,0,0,-1.3333333,868.49467,2838.1484)" />
      <path id="path587" d="m 0,0 c -0.189,1.55 0.15,3.498 -0.663,4.577 -2.63,3.491 -4.927,6.469 1.307,8.584 1.116,0.378 1.199,1.979 0.458,3.079 -3.46,5.135 -0.825,11.326 -2.917,16.752 -0.497,1.289 0.794,2.996 2.328,3.737 1.649,0.796 2.936,-0.017 4.158,-1.127 0.863,-0.784 1.862,-1.419 2.799,-2.118 -0.002,0.003 0.298,-0.41 0.296,-0.408 0.036,-1.456 0.05,-2.915 0.116,-4.371 0.16,-3.503 2.192,-3.034 4.444,-2.07 0,0 0.629,-0.366 0.623,-0.366 1.797,-2.948 3.681,-5.849 5.375,-8.858 1.3,-2.31 1.196,-4.455 -1.585,-5.697 -1.058,-0.473 -2.544,-1.299 -1.721,-2.257 3.697,-4.301 1.855,-9.721 3.299,-14.434 -0.313,-1.696 -0.626,-3.393 -0.941,-5.082 -2.496,0.077 -4.99,0.147 -7.485,0.217 -0.529,0.849 -1.059,1.699 -1.577,2.549 0.852,2.039 0.353,3.572 -1.567,4.752 C 4.78,-1.332 2.766,-0.384 0.405,-0.398 0.405,-0.398 0,0 0,0" style="fill:#1e4a94;fill-opacity:1;fill-rule:nonzero;stroke:none" transform="matrix(1.3333333,0,0,-1.3333333,805.86067,2977.6297)" />
      <path id="path588" d="m 0,0 c -1.444,4.713 0.398,10.132 -3.299,14.434 -0.823,0.957 0.663,1.784 1.721,2.257 2.781,1.242 2.885,3.387 1.585,5.697 -1.694,3.009 -3.578,5.91 -5.375,8.857 2.722,-0.047 5.1,-0.895 7.497,-2.28 6.639,-3.837 13.562,-3.843 20.522,-0.724 1.599,0.077 3.781,-0.222 3.49,-1.92 -0.701,-4.084 -1.62,-8.064 1.253,-12.364 -4.809,0.468 -4.291,3.481 -5.477,5.238 -0.369,0.546 -1.227,1.071 -1.839,1.047 -0.497,-0.019 -1.3,-0.825 -1.38,-1.369 C 18.363,16.602 18.321,14.289 18.031,12.01 17.837,10.487 17.406,8.995 17.081,7.49 11.978,8.955 13.251,2.723 10.193,1.784 8.376,1.226 6.502,0.823 4.629,0.49 3.105,0.219 1.544,0.156 0,0" style="fill:#3675ba;fill-opacity:1;fill-rule:nonzero;stroke:none" transform="matrix(1.3333333,0,0,-1.3333333,830.2832,2984.2653)" />
      <path id="path589" d="m 0,0 c -2.267,-0.952 -4.534,-1.904 -6.802,-2.856 -4.807,-1.386 -5.896,-6.777 -9.82,-9.115 -4.726,-0.793 -8.527,1.343 -11.275,4.662 -3.209,3.876 -2.752,8.892 -1.764,13.447 0.606,2.793 3.629,2.279 5.937,2.223 0.632,-1.837 1.07,-3.778 1.951,-5.49 0.906,-1.758 -0.376,-4.503 2.287,-5.792 1.212,3.902 1.206,3.894 4.051,1.815 1.088,-0.795 2.302,-0.747 2.229,0.752 -0.187,3.818 1.412,4.966 4.981,4.08 2.839,-0.704 3.449,0.465 2.462,3.052 -0.549,1.44 -0.767,3.006 -1.134,4.515 0.255,1.431 0.511,2.862 0.837,4.692 2.914,-2.051 3.073,-5.949 6.121,-7.34 C 0.149,5.764 -2.055,2.897 0,0" style="fill:#1e4a94;fill-opacity:1;fill-rule:nonzero;stroke:none" transform="matrix(1.3333333,0,0,-1.3333333,913.4316,2964.2056)" />
      <path id="path590" d="m 0,0 c -2.055,2.897 0.149,5.764 0.061,8.645 0.158,2.31 0.318,4.623 0.476,6.916 3.282,0.477 3.388,-2.855 5.514,-3.671 2.886,-1.108 7.129,1.03 8.624,-2.127 1.789,-3.779 2.158,-8.222 4.773,-11.777 0.169,-0.229 -0.569,-1.458 -1.141,-1.837 -1.704,-1.131 -3.738,-1.453 -5.622,-0.82 -1.99,0.67 -0.848,2.662 -1.221,4.037 C 11.177,0.422 10.652,1.827 9.818,2.242 7.603,3.344 7.574,1.14 6.883,-0.108 4.214,-4.925 4.189,-4.912 0,0" style="fill:#3675ba;fill-opacity:1;fill-rule:nonzero;stroke:none" transform="matrix(1.3333333,0,0,-1.3333333,913.4316,2964.2056)" />
      <path id="path591" d="m 0,0 c 0.367,-1.509 0.585,-3.075 1.134,-4.515 0.987,-2.587 0.377,-3.756 -2.462,-3.051 -3.569,0.885 -5.168,-0.263 -4.981,-4.08 0.073,-1.499 -1.141,-1.548 -2.229,-0.753 -2.845,2.079 -2.839,2.087 -4.051,-1.815 -2.663,1.289 -1.381,4.034 -2.287,5.793 -0.881,1.711 -1.319,3.652 -1.951,5.489 1.605,0.223 3.208,0.45 4.812,0.676 1.161,-0.745 2.113,-0.671 2.362,0.85 0.177,1.081 0.079,2.206 0.103,3.312 0.804,0.13 1.608,0.26 2.411,0.391 0.314,-0.121 0.627,-0.243 0.94,-0.365 C -6.434,2.12 -6.67,2.308 -6.905,2.496 -6.993,3.215 -7.13,3.925 -7.32,4.624 -7.323,4.623 -6.701,4.972 -6.698,4.974 -3.425,4.712 -2.373,1.467 0,0" style="fill:#3675ba;fill-opacity:1;fill-rule:nonzero;stroke:none" transform="matrix(1.3333333,0,0,-1.3333333,904.23547,2949.1484)" />
      <path id="path592" d="M 0,0 C 3.924,2.338 5.013,7.729 9.82,9.115 9.795,8.731 9.768,8.346 9.743,7.961 9.193,-0.827 9.193,-0.827 0,0" style="fill:#3675ba;fill-opacity:1;fill-rule:nonzero;stroke:none" transform="matrix(1.3333333,0,0,-1.3333333,891.26867,2980.1669)" />
      <path id="path593" d="M 0,0 C 2.361,0.014 4.375,-0.934 6.342,-2.143 8.262,-3.323 8.761,-4.856 7.909,-6.895 4.541,-5.426 2.117,-2.889 0,0" style="fill:#3675ba;fill-opacity:1;fill-rule:nonzero;stroke:none" transform="matrix(1.3333333,0,0,-1.3333333,806.40027,2978.1601)" />
      <path id="path594" d="M 0,0 C 2.494,-0.07 4.989,-0.14 7.485,-0.217 4.741,-4.601 4.443,-4.592 0,0" style="fill:#3675ba;fill-opacity:1;fill-rule:nonzero;stroke:none" transform="matrix(1.3333333,0,0,-1.3333333,819.04933,2990.7525)" />
      <path id="path610" d="m 0,0 c -0.735,-0.126 -1.476,-0.191 -2.22,-0.199 -1.122,1.467 -2.573,1.324 -4.177,1 -2.739,-0.553 -5.468,-0.442 -7.997,0.902 -1.694,0.9 -3.617,1.624 -4.006,3.893 -0.393,2.298 0.801,4.151 2.694,4.611 5.231,1.271 6.381,8.977 12.085,8.262 C 0.857,17.908 3.939,13.332 8.526,11.942 11.156,11.144 11,8.734 9.537,6.375 7.248,2.684 2.191,3.551 0,0" style="fill:#3675ba;fill-opacity:1;fill-rule:nonzero;stroke:none" transform="matrix(1.3333333,0,0,-1.3333333,929.51907,2851.8591)" />
      <path id="path621" d="M 0,0 C -2.252,-0.964 -4.284,-1.433 -4.444,2.069 -4.511,3.526 -4.524,4.985 -4.56,6.44 -3.167,6.37 -1.776,6.301 -0.387,6.231 -0.259,4.152 -0.13,2.076 0,0" style="fill:#3675ba;fill-opacity:1;fill-rule:nonzero;stroke:none" transform="matrix(1.3333333,0,0,-1.3333333,822.29587,2942.1157)" />
      </g></svg>