<?xml version='1.0' encoding='utf-8'?>
<svg xmlns="http://www.w3.org/2000/svg" version="1.1" width="313.778" height="81.700" viewBox="719.893 3697.600 313.778 81.700"><g id="object"><path id="path30" d="m 0,0 c 2.14,2.897 5.711,3.168 8.618,3.715 34.091,6.41 68.173,12.84 102.598,17.414 5.228,0.695 12.944,-1.995 16.594,5.278 3.583,-2.241 7.374,-2.118 11.514,-1.899 10.97,0.582 21.861,2.654 32.942,1.641 3.185,-0.291 4.917,-1.251 5.302,-4.338 1.072,-8.602 2.095,-17.209 3.143,-25.813 0.326,-2.68 -0.798,-2.52 -3.248,-2.667 -23.755,-1.424 -47.487,-3.222 -71.227,-4.886 -1.592,-0.111 -3.426,-0.969 -4.713,0.524 -2.104,2.44 2.151,3.22 1.514,5.821 -49.961,-3.58 -99.223,-12.342 -148.604,-20.641 5.783,4.715 13.051,4.428 19.529,6.574 7.543,2.5 16.238,1.708 23.596,4.528 9.078,3.48 18.434,3.997 27.692,5.411 11.727,1.79 23.524,3.49 35.461,3.353 1.773,-0.021 3.761,0.416 3.794,2.366 0.057,3.383 -2.837,1.896 -4.218,1.654 -8.549,-1.5 -17.365,0.428 -25.924,-3.495 -3.418,-1.566 -9.017,0.808 -13.666,-0.391 -0.492,-0.126 -1.633,1.003 -1.977,1.772 C 16.462,0.969 15.844,1.129 10.143,0.014 7.06,-0.589 3.891,-1.825 0.652,-0.521 0.396,-0.396 0.179,-0.222 0,0" style="fill:#c33c36;fill-opacity:1;fill-rule:nonzero;stroke:none" transform="matrix(1.3333333,0,0,-1.3333333,786.64907,3738.8323)" />
      </g></svg>