<?xml version='1.0' encoding='utf-8'?>
<svg xmlns="http://www.w3.org/2000/svg" version="1.1" width="54.000" height="102.568" viewBox="2063.680 4068.390 54.000 102.568"><g id="object"><path id="path168" d="m 0,0 c 8.066,-0.217 10.808,-2.372 10.485,-8.225 -0.152,-2.746 -0.864,-4.754 -4.29,-3.51 -4.297,1.559 -8.979,2.333 -10.922,-2.795 -1.863,-4.918 1.198,-9.03 4.817,-12.355 1.727,-1.585 3.597,-3.021 5.46,-4.449 6.799,-5.21 9.312,-11.815 7.945,-20.436 -1.783,-11.247 -12.352,-18.599 -23.217,-15.384 -3.69,1.092 -6.542,3.152 -5.747,7.593 0.822,4.595 3.965,4.68 7.544,3.391 4.332,-1.559 7.625,0.188 9.439,3.862 1.886,3.818 0.177,7.561 -2.667,10.269 -3.397,3.235 -7.39,5.835 -10.928,8.933 -5.455,4.776 -7.167,15.373 -3.938,23.046 C -12.852,-2.533 -8.456,0.227 0,0" style="fill:#494f57;fill-opacity:1;fill-rule:nonzero;stroke:none" transform="matrix(1.3333333,0,0,-1.3333333,2093.206,4074.4075)" />
      </g></svg>