<?xml version='1.0' encoding='utf-8'?>
<svg xmlns="http://www.w3.org/2000/svg" version="1.1" width="153.808" height="185.634" viewBox="1728.410 1877.270 153.808 185.634"><defs id="defs1"><clipPath clipPathUnits="userSpaceOnUse" id="clipPath46">
      <path d="M 0,3370.3901 H 2383.9401 V -2.5000001e-5 H 0 Z" id="path46" />
    </clipPath>
  </defs><g id="object"><path id="path13" d="m 0,0 c -9.447,0.442 -22.615,0.342 -22.751,-20.911 -0.134,-20.969 12.45,-21.767 27.647,-21.392 16.153,0.399 34.722,-0.437 34.036,22.114 C 38.309,0.258 20.631,-0.263 0,0 m -43.514,-40.347 c 0,1.754 0,3.507 0,5.261 0.004,56.153 18.974,69.845 74.722,53.932 27.813,-7.94 41.427,-40.186 23.469,-62.67 -12.641,-15.826 -15.228,-27.799 -2.681,-43.473 3.368,-4.207 9.625,-10.595 2.066,-15.695 -6.456,-4.356 -13.918,-1.92 -18.592,4.399 -5.716,7.726 -10.727,15.99 -15.784,24.181 -7.314,11.847 -18.611,11.799 -30.233,10.157 -11.923,-1.684 -11.345,-11.32 -12.188,-20.097 -0.719,-7.495 1.038,-18.275 -9.964,-18.204 -12.932,0.083 -10.224,12.007 -10.559,20.129 -0.576,14.005 -0.159,28.051 -0.159,42.08 z" style="fill:#424242;fill-opacity:1;fill-rule:nonzero;stroke:none" transform="matrix(1.3333333,0,0,-1.3333333,1792.4984,1916.6452)" />
      </g></svg>