<?xml version='1.0' encoding='utf-8'?>
<svg xmlns="http://www.w3.org/2000/svg" version="1.1" width="1516.572" height="185.543" viewBox="898.384 3850.990 1516.572 185.543"><g id="object"><path id="path4" d="m 91.829064,-15.796217 c -6.070312,2.953125 -15.445312,4.863281 -24.644531,4.863281 -28.476563,0 -44.964844,-18.398437 -44.964844,-47.050781 0,-30.714844 18.222656,-48.257813 45.65625,-48.257813 9.714844,0 17.882813,2.08594 23.601563,4.86328 l 3.65625,-12.32812 c -3.996094,-2.07422 -13.195313,-5.20313 -27.785157,-5.20313 -36.269531,0 -61.1015622,24.820314 -61.1015622,61.453127 0,38.367187 24.8320312,59.1914058 57.8085942,59.1914058 14.238281,0 25.347656,-2.7773437 30.902343,-5.5546875 z M 128.10738,6.578125e-4 V -84.011061 H 112.82613 V 6.578125e-4 Z M 120.46676,-117.17512 c -5.55469,0 -9.55078,4.17187 -9.55078,9.55078 0,5.20312 3.82031,9.374998 9.19922,9.374998 6.08203,0 9.90234,-4.171878 9.72656,-9.374998 0,-5.37891 -3.64453,-9.55078 -9.375,-9.55078 z m 90.27246,-6.07032 v 50.167973 h -0.35156 c -3.82031,-6.773438 -12.50391,-12.84375 -25.34766,-12.84375 -20.48437,0 -37.83984,17.179687 -37.66406,45.128906 0,25.511719 15.62109,42.7031251 35.92969,42.7031251 13.71093,0 23.95312,-7.1132813 28.64062,-16.4882811 h 0.35156 l 0.69141,14.5781248125 h 13.71094 C 226.18453,-5.7298109 226.00875,-14.237623 226.00875,-21.702467 V -123.24544 Z m 0,88.007817 c 0,2.425781 -0.17578,4.511718 -0.70312,6.597656 -2.77735,11.460937 -12.15235,18.222656 -22.38282,18.222656 -16.5,0 -24.83203,-14.0625 -24.83203,-31.066406 0,-18.574219 9.375,-32.460938 25.17188,-32.460938 11.46093,0 19.79297,7.980469 22.04297,17.707032 0.52734,1.910156 0.70312,4.511718 0.70312,6.421875 z m 108.14356,-3.996094 c 0.16406,-1.558594 0.51562,-3.984375 0.51562,-7.113281 0,-15.445313 -7.28906,-39.574219 -34.72266,-39.574219 -24.46875,0 -39.39843,19.957031 -39.39843,45.304687 0,25.335938 15.44531,42.3515628 41.30859,42.3515628 13.37109,0 22.57031,-2.7773437 27.94922,-5.203125 l -2.60156,-10.9335938 c -5.73047,2.425781 -12.32813,4.335938 -23.26172,4.335938 -15.26953,0 -28.46485,-8.507813 -28.81641,-29.167969 z m -58.85157,-10.933594 c 1.21875,-10.59375 7.98047,-24.820312 23.4375,-24.820312 17.17969,0 21.35157,15.105468 21.17578,24.820312 z m 135.57715,-73.078129 v 50.167973 h -0.35156 c -3.82031,-6.773438 -12.50391,-12.84375 -25.34766,-12.84375 -20.48437,0 -37.83984,17.179687 -37.66406,45.128906 0,25.511719 15.62109,42.7031251 35.92969,42.7031251 13.71093,0 23.95312,-7.1132813 28.64062,-16.4882811 h 0.35156 L 397.85836,6.578125e-4 H 411.5693 C 411.05367,-5.7298109 410.87789,-14.237623 410.87789,-21.702467 V -123.24544 Z m 0,88.007817 c 0,2.425781 -0.17578,4.511718 -0.70312,6.597656 -2.77735,11.460937 -12.15235,18.222656 -22.38282,18.222656 -16.5,0 -24.83203,-14.0625 -24.83203,-31.066406 0,-18.574219 9.375,-32.460938 25.17188,-32.460938 11.46093,0 19.79297,7.980469 22.04297,17.707032 0.52734,1.910156 0.70312,4.511718 0.70312,6.421875 z m 108.14356,-3.996094 c 0.16406,-1.558594 0.51562,-3.984375 0.51562,-7.113281 0,-15.445313 -7.28906,-39.574219 -34.72266,-39.574219 -24.46875,0 -39.39843,19.957031 -39.39843,45.304687 0,25.335938 15.44531,42.3515628 41.30859,42.3515628 13.37109,0 22.57031,-2.7773437 27.94922,-5.203125 L 496.8027,-14.401686 c -5.73047,2.425781 -12.32813,4.335938 -23.26172,4.335938 -15.26953,0 -28.46485,-8.507813 -28.81641,-29.167969 z m -58.85157,-10.933594 c 1.21875,-10.59375 7.98047,-24.820312 23.4375,-24.820312 17.17969,0 21.35157,15.105468 21.17578,24.820312 z m 172.37696,-73.078129 v 50.167973 h -0.35157 c -3.82031,-6.773438 -12.5039,-12.84375 -25.34765,-12.84375 -20.48438,0 -37.83985,17.179687 -37.66406,45.128906 0,25.511719 15.62109,42.7031251 35.92968,42.7031251 13.71094,0 23.95313,-7.1132813 28.64063,-16.4882811 h 0.35156 l 0.69141,14.5781248125 h 13.71093 C 632.72262,-5.7298109 632.54684,-14.237623 632.54684,-21.702467 V -123.24544 Z m 0,88.007817 c 0,2.425781 -0.17578,4.511718 -0.70313,6.597656 -2.77734,11.460937 -12.15234,18.222656 -22.38281,18.222656 -16.5,0 -24.83203,-14.0625 -24.83203,-31.066406 0,-18.574219 9.375,-32.460938 25.17187,-32.460938 11.46094,0 19.79297,7.980469 22.04297,17.707032 0.52735,1.910156 0.70313,4.511718 0.70313,6.421875 z m 108.14355,-3.996094 c 0.16406,-1.558594 0.51563,-3.984375 0.51563,-7.113281 0,-15.445313 -7.28907,-39.574219 -34.72266,-39.574219 -24.46875,0 -39.39844,19.957031 -39.39844,45.304687 0,25.335938 15.44531,42.3515628 41.3086,42.3515628 13.37109,0 22.57031,-2.7773437 27.94921,-5.203125 l -2.60156,-10.9335938 c -5.73047,2.425781 -12.32812,4.335938 -23.26172,4.335938 -15.26953,0 -28.46484,-8.507813 -28.8164,-29.167969 z M 666.5693,-50.167311 c 1.21875,-10.59375 7.98047,-24.820312 23.4375,-24.820312 17.17969,0 21.35156,15.105468 21.17578,24.820312 z m 115.6084,49.81640631 c 7.64062,0.8671875 16.66406,1.39453129 27.42187,1.39453129 22.7461,0 40.79297,-5.90625 51.73828,-16.8398436 10.9336,-10.757813 16.82813,-26.390625 16.82813,-45.480469 0,-18.925781 -6.07031,-32.460937 -16.48828,-42.011714 -10.24219,-9.53907 -25.6875,-14.57813 -47.39063,-14.57813 -11.97656,0 -22.91015,1.04297 -32.10937,2.42578 z M 797.28317,-104.33137 c 3.98437,-0.86719 9.89062,-1.5586 17.69531,-1.5586 31.94531,0 47.5664,17.531253 47.39062,45.128909 0,31.59375 -17.53125,49.652344 -49.8164,49.652344 -5.90625,0 -11.46094,-0.175781 -15.26953,-0.867188 z m 168.20507,65.097653 c 0.16407,-1.558594 0.51563,-3.984375 0.51563,-7.113281 0,-15.445313 -7.28906,-39.574219 -34.72266,-39.574219 -24.46875,0 -39.39843,19.957031 -39.39843,45.304687 0,25.335938 15.44531,42.3515628 41.30859,42.3515628 13.37109,0 22.57031,-2.7773437 27.94922,-5.203125 l -2.60156,-10.9335938 c -5.73047,2.425781 -12.32813,4.335938 -23.26172,4.335938 -15.26953,0 -28.46485,-8.507813 -28.81641,-29.167969 z m -58.85156,-10.933594 c 1.21875,-10.59375 7.98047,-24.820312 23.4375,-24.820312 17.17969,0 21.35156,15.105468 21.17578,24.820312 z m 148.59672,-33.84375 h -15.2813 v 51.550781 c 0,2.777344 -0.5156,5.554688 -1.3828,7.816407 -2.7773,6.761718 -9.9023,13.886718 -20.1445,13.886718 -13.8868,0 -18.75003,-10.769531 -18.75003,-26.742187 v -46.511719 h -15.26953 v 49.125 c 0,29.5078126 15.79686,36.7968751 28.99216,36.7968751 14.9297,0 23.7774,-8.859375 27.7735,-15.6210941 h 0.3398 l 0.8672,13.7109378125 h 13.5469 C 1055.3974,-6.5969984 1055.2334,-14.237623 1055.2334,-22.909498 Z m 19.4384,80.0156251 c 5.8946,3.48046871 14.4024,5.7304687 23.6016,5.7304687 19.9688,0 31.418,-10.4179687 31.418,-25.1718748 0,-12.492188 -7.4649,-19.78125 -22.043,-25.335938 -10.9336,-4.171875 -15.9727,-7.300781 -15.9727,-14.238281 0,-6.246094 5.0391,-11.460937 14.0625,-11.460937 7.8165,0 13.8868,2.777343 17.1915,4.863281 l 3.8203,-11.109375 c -4.6875,-2.777344 -12.1524,-5.203125 -20.6602,-5.203125 -18.0586,0 -28.9922,11.109375 -28.9922,24.644531 0,10.066406 7.1133,18.398438 22.2188,23.777344 11.2851,4.171875 15.6211,8.167969 15.6211,15.457031 0,6.9375 -5.2032,12.4921876 -16.3125,12.4921876 -7.6407,0 -15.6211,-3.1171876 -20.1328,-6.0703126 z m 0,0" style="fill:#ce4f2d;fill-opacity:1;fill-rule:nonzero;stroke:none" aria-label="Cidede de Deus" transform="matrix(1.3333333,0,0,1.3333333,899.38547,4024.6515)" />
      <path id="path5" d="m 0,0 c -6.075,-2.95 -15.449,-4.86 -24.649,-4.86 -28.468,0 -44.959,18.4 -44.959,47.042 0,30.724 18.227,48.256 45.653,48.256 9.721,0 17.88,-2.083 23.608,-4.86 l 3.645,12.324 c -3.992,2.083 -13.192,5.208 -27.774,5.208 -36.279,0 -61.102,-24.823 -61.102,-61.449 0,-38.362 24.823,-59.193 57.805,-59.193 14.233,0 25.343,2.778 30.898,5.555 z" style="fill:none;stroke:#ce4f2d;stroke-width:5;stroke-linecap:butt;stroke-linejoin:miter;stroke-miterlimit:10;stroke-dasharray:none;stroke-opacity:1" transform="matrix(1.3333333,0,0,-1.3333333,1021.8209,4003.5903)" />
      <path id="path6" d="M 0,0 V 84.016 H -15.275 V 0 Z m -7.638,117.17 c -5.554,0 -9.547,-4.166 -9.547,-9.547 0,-5.208 3.819,-9.374 9.2,-9.374 6.075,0 9.895,4.166 9.721,9.374 0,5.381 -3.646,9.547 -9.374,9.547 z" style="fill:none;stroke:#ce4f2d;stroke-width:5;stroke-linecap:butt;stroke-linejoin:miter;stroke-miterlimit:10;stroke-dasharray:none;stroke-opacity:1" transform="matrix(1.3333333,0,0,-1.3333333,1070.1927,4024.6515)" />
      <path id="path7" d="m 0,0 v -50.167 h -0.347 c -3.819,6.771 -12.498,12.846 -25.344,12.846 -20.483,0 -37.841,-17.185 -37.668,-45.132 0,-25.518 15.623,-42.702 35.932,-42.702 13.714,0 23.955,7.117 28.642,16.49 h 0.347 l 0.694,-14.581 H 15.97 c -0.521,5.728 -0.695,14.234 -0.695,21.698 V 0 Z m 0,-88.008 c 0,-2.43 -0.174,-4.513 -0.694,-6.596 -2.778,-11.458 -12.151,-18.227 -22.393,-18.227 -16.491,0 -24.823,14.06 -24.823,31.072 0,18.573 9.374,32.46 25.17,32.46 11.457,0 19.789,-7.984 22.046,-17.705 0.52,-1.91 0.694,-4.514 0.694,-6.423 z" style="fill:none;stroke:#ce4f2d;stroke-width:5;stroke-linecap:butt;stroke-linejoin:miter;stroke-miterlimit:10;stroke-dasharray:none;stroke-opacity:1" transform="matrix(1.3333333,0,0,-1.3333333,1180.36,3860.3233)" />
      <path id="path8" d="m 0,0 c 0.174,1.562 0.521,3.992 0.521,7.117 0,15.449 -7.291,39.577 -34.717,39.577 -24.476,0 -39.404,-19.962 -39.404,-45.305 0,-25.344 15.449,-42.356 41.313,-42.356 13.367,0 22.566,2.779 27.948,5.208 l -2.604,10.936 c -5.728,-2.43 -12.325,-4.339 -23.261,-4.339 -15.275,0 -28.468,8.505 -28.815,29.162 z m -58.845,10.936 c 1.215,10.588 7.985,24.823 23.434,24.823 17.185,0 21.351,-15.103 21.177,-24.823 z" style="fill:none;stroke:#ce4f2d;stroke-width:5;stroke-linecap:butt;stroke-linejoin:miter;stroke-miterlimit:10;stroke-dasharray:none;stroke-opacity:1" transform="matrix(1.3333333,0,0,-1.3333333,1324.5501,3972.3443)" />
      <path id="path9" d="m 0,0 v -50.167 h -0.347 c -3.819,6.771 -12.498,12.846 -25.344,12.846 -20.483,0 -37.841,-17.185 -37.668,-45.132 0,-25.518 15.623,-42.702 35.932,-42.702 13.714,0 23.955,7.117 28.642,16.49 h 0.347 l 0.694,-14.581 H 15.97 c -0.521,5.728 -0.695,14.234 -0.695,21.698 V 0 Z m 0,-88.008 c 0,-2.43 -0.174,-4.513 -0.694,-6.596 -2.778,-11.458 -12.151,-18.227 -22.393,-18.227 -16.491,0 -24.823,14.06 -24.823,31.072 0,18.573 9.374,32.46 25.17,32.46 11.457,0 19.789,-7.984 22.046,-17.705 0.52,-1.91 0.694,-4.514 0.694,-6.423 z" style="fill:none;stroke:#ce4f2d;stroke-width:5;stroke-linecap:butt;stroke-linejoin:miter;stroke-miterlimit:10;stroke-dasharray:none;stroke-opacity:1" transform="matrix(1.3333333,0,0,-1.3333333,1426.8489,3860.3233)" />
      <path id="path10" d="m 0,0 c 0.174,1.562 0.521,3.992 0.521,7.117 0,15.449 -7.291,39.577 -34.717,39.577 -24.476,0 -39.404,-19.962 -39.404,-45.305 0,-25.344 15.449,-42.356 41.313,-42.356 13.367,0 22.566,2.779 27.948,5.208 l -2.604,10.936 c -5.728,-2.43 -12.325,-4.339 -23.261,-4.339 -15.275,0 -28.468,8.505 -28.815,29.162 z m -58.845,10.936 c 1.215,10.588 7.985,24.823 23.434,24.823 17.185,0 21.351,-15.103 21.177,-24.823 z" style="fill:none;stroke:#ce4f2d;stroke-width:5;stroke-linecap:butt;stroke-linejoin:miter;stroke-miterlimit:10;stroke-dasharray:none;stroke-opacity:1" transform="matrix(1.3333333,0,0,-1.3333333,1571.0391,3972.3443)" />
      <path id="path11" d="m 0,0 v -50.167 h -0.347 c -3.819,6.771 -12.498,12.846 -25.344,12.846 -20.483,0 -37.841,-17.185 -37.668,-45.132 0,-25.518 15.623,-42.702 35.932,-42.702 13.714,0 23.955,7.117 28.642,16.49 h 0.347 l 0.694,-14.581 H 15.97 c -0.521,5.728 -0.695,14.234 -0.695,21.698 V 0 Z m 0,-88.008 c 0,-2.43 -0.174,-4.513 -0.694,-6.596 -2.778,-11.458 -12.151,-18.227 -22.393,-18.227 -16.491,0 -24.823,14.06 -24.823,31.072 0,18.573 9.374,32.46 25.17,32.46 11.457,0 19.789,-7.984 22.046,-17.705 0.52,-1.91 0.694,-4.514 0.694,-6.423 z" style="fill:none;stroke:#ce4f2d;stroke-width:5;stroke-linecap:butt;stroke-linejoin:miter;stroke-miterlimit:10;stroke-dasharray:none;stroke-opacity:1" transform="matrix(1.3333333,0,0,-1.3333333,1722.4017,3860.3233)" />
      <path id="path12" d="m 0,0 c 0.174,1.562 0.521,3.992 0.521,7.117 0,15.449 -7.291,39.577 -34.717,39.577 -24.476,0 -39.404,-19.962 -39.404,-45.305 0,-25.344 15.449,-42.356 41.313,-42.356 13.367,0 22.566,2.779 27.948,5.208 l -2.604,10.936 c -5.728,-2.43 -12.325,-4.339 -23.261,-4.339 -15.275,0 -28.468,8.505 -28.815,29.162 z m -58.845,10.936 c 1.215,10.588 7.985,24.823 23.434,24.823 17.185,0 21.351,-15.103 21.177,-24.823 z" style="fill:none;stroke:#ce4f2d;stroke-width:5;stroke-linecap:butt;stroke-linejoin:miter;stroke-miterlimit:10;stroke-dasharray:none;stroke-opacity:1" transform="matrix(1.3333333,0,0,-1.3333333,1866.5917,3972.3443)" />
      <path id="path13" d="m 0,0 c 7.638,-0.868 16.665,-1.39 27.427,-1.39 22.74,0 40.792,5.903 51.728,16.838 10.936,10.763 16.838,26.386 16.838,45.48 0,18.921 -6.076,32.461 -16.491,42.008 -10.241,9.547 -25.69,14.581 -47.389,14.581 -11.977,0 -22.913,-1.041 -32.113,-2.43 z m 15.102,103.978 c 3.993,0.867 9.895,1.561 17.706,1.561 31.94,0 47.562,-17.531 47.389,-45.132 0,-31.593 -17.532,-49.645 -49.82,-49.645 -5.901,0 -11.456,0.174 -15.275,0.868 z" style="fill:none;stroke:#ce4f2d;stroke-width:5;stroke-linecap:butt;stroke-linejoin:miter;stroke-miterlimit:10;stroke-dasharray:none;stroke-opacity:1" transform="matrix(1.3333333,0,0,-1.3333333,1942.2715,4024.188)" />
      <path id="path14" d="m 0,0 c 0.174,1.562 0.521,3.992 0.521,7.117 0,15.449 -7.291,39.577 -34.717,39.577 -24.476,0 -39.404,-19.962 -39.404,-45.305 0,-25.344 15.449,-42.356 41.313,-42.356 13.367,0 22.566,2.779 27.948,5.208 l -2.604,10.936 c -5.728,-2.43 -12.325,-4.339 -23.261,-4.339 -15.275,0 -28.468,8.505 -28.815,29.162 z m -58.845,10.936 c 1.215,10.588 7.985,24.823 23.434,24.823 17.185,0 21.351,-15.103 21.177,-24.823 z" style="fill:none;stroke:#ce4f2d;stroke-width:5;stroke-linecap:butt;stroke-linejoin:miter;stroke-miterlimit:10;stroke-dasharray:none;stroke-opacity:1" transform="matrix(1.3333333,0,0,-1.3333333,2186.6757,3972.3443)" />
      <path id="path15" d="m 0,0 h -15.276 v -51.555 c 0,-2.777 -0.52,-5.555 -1.389,-7.811 -2.777,-6.771 -9.894,-13.887 -20.135,-13.887 -13.887,0 -18.747,10.762 -18.747,26.732 V 0 h -15.276 v -49.125 c 0,-29.51 15.796,-36.8 28.989,-36.8 14.928,0 23.781,8.853 27.773,15.622 h 0.348 l 0.867,-13.713 H 0.694 C 0.173,-77.419 0,-69.781 0,-61.103 Z" style="fill:none;stroke:#ce4f2d;stroke-width:5;stroke-linecap:butt;stroke-linejoin:miter;stroke-miterlimit:10;stroke-dasharray:none;stroke-opacity:1" transform="matrix(1.3333333,0,0,-1.3333333,2306.3327,3912.6307)" />
      <path id="path16" d="m 0,0 c 5.902,-3.472 14.407,-5.729 23.607,-5.729 19.963,0 31.419,10.416 31.419,25.17 0,12.499 -7.464,19.789 -22.045,25.344 -10.936,4.166 -15.97,7.291 -15.97,14.235 0,6.249 5.034,11.456 14.061,11.456 7.811,0 13.886,-2.778 17.185,-4.861 l 3.819,11.11 C 47.389,79.503 39.924,81.933 31.419,81.933 13.366,81.933 2.43,70.823 2.43,57.283 2.43,47.216 9.547,38.884 24.649,33.502 35.932,29.336 40.271,25.344 40.271,18.053 40.271,11.109 35.064,5.555 23.955,5.555 16.317,5.555 8.332,8.68 3.819,11.631 Z" style="fill:none;stroke:#ce4f2d;stroke-width:5;stroke-linecap:butt;stroke-linejoin:miter;stroke-miterlimit:10;stroke-dasharray:none;stroke-opacity:1" transform="matrix(1.3333333,0,0,-1.3333333,2332.2532,4019.3285)" />
      </g></svg>