<?xml version='1.0' encoding='utf-8'?>
<svg xmlns="http://www.w3.org/2000/svg" version="1.1" width="180.054" height="175.264" viewBox="1915.940 494.706 180.054 175.264"><g id="object"><path id="path7" d="m 0,0 c -0.2,1.022 -0.378,1.712 -0.467,2.413 -1.016,8.008 -6.958,8.861 -13.149,8.588 -6.455,-0.284 -12.064,7.892 -17.561,3.853 -4.697,-3.452 -6.022,-10.885 -10.182,-15.872 -3.459,-4.148 -5.964,-9.119 -7.589,-14.353 -1.111,-3.583 -1.1,-6.911 2.967,-9.104 13.44,-7.248 20.81,-6.719 32.085,3.078 C -7.193,-15.573 -2.332,-8.42 0,0 m -59.649,30.888 c 4.348,2.486 7.626,6.122 10.895,9.832 7.961,9.035 17.76,9.416 27.249,2.116 5.344,-4.11 11.441,-6.904 18.389,-8.421 C 8.159,31.954 20.115,28.743 27.079,18.94 39.256,1.799 36.121,-10.859 17.697,-24.344 9.906,-30.046 4.487,-37.16 -1.597,-44.299 -10.808,-55.107 -20.9,-66.777 -38.154,-63.473 c -4.343,0.832 -7.656,-0.144 -7.222,-5.701 0.178,-2.284 -0.542,-4.384 -2.846,-5.166 -2.176,-0.739 -3.4,1.106 -4.662,2.496 -1.816,2.002 -4.012,3.298 -6.72,3.622 -3.099,0.37 -5.59,2 -6.496,4.823 -2.524,7.87 -9.755,10.071 -15.849,13.465 -7.322,4.079 -10.387,11.499 -9.638,20.086 1.41,16.146 9.777,29.301 16.863,43.075 0,-10e-4 0.04,0.09 0.039,0.089 5.145,5.504 10.321,10.983 14.505,17.294 l 0.399,-0.114 z" style="fill:#d2d5d9;fill-opacity:1;fill-rule:nonzero;stroke:none" transform="matrix(1.3333333,0,0,-1.3333333,2044.1981,564.6248)" />
      </g></svg>