<?xml version='1.0' encoding='utf-8'?>
<svg xmlns="http://www.w3.org/2000/svg" version="1.1" width="710.468" height="205.848" viewBox="1431.430 3074.760 710.468 205.848"><defs id="defs1"><clipPath clipPathUnits="userSpaceOnUse" id="clipPath15">
      <path d="M -2112.3133,3347.3976 H 271.62681 V -22.992476 H -2112.3133 Z" id="path15" />
    </clipPath>
  </defs><g id="object"><path id="path3" d="m 0,0 c -7.082,1.005 -14.156,1.017 -21.222,-0.159 -1.202,0.191 -2.403,0.379 -3.604,0.568 -1.391,2.868 -3.796,3.846 -6.845,3.839 -6.106,-0.014 -12.212,0.098 -18.319,0.098 -23.487,-0.001 -46.98,0.282 -70.458,-0.177 -11.008,-0.215 -15.55,-5.217 -12.553,-13.902 -0.945,-4.434 2.361,-4.595 5.129,-4.741 6.113,-0.322 12.242,-0.433 18.364,-0.445 14.841,-0.027 29.707,0.605 44.513,-0.096 10.843,-0.514 17.847,-5.576 17.663,-13.164 -0.15,-6.215 -5.181,-7.605 -8.342,-10.915 -1.372,-0.197 -2.743,-0.394 -4.115,-0.591 -0.92,1.217 -1.763,1.103 -2.542,-0.145 -1.073,-0.03 -2.146,-0.059 -3.218,-0.089 -0.828,0.359 -1.653,1.024 -2.483,1.03 -38.058,0.278 -76.108,-0.09 -114.151,-1.234 -2.213,-0.067 -4.399,-0.105 -4.314,-3.22 -1.256,-0.292 -2.513,-0.584 -3.769,-0.876 -4.439,0.394 -8.843,0.736 -8.649,-5.791 -3.586,-2.134 -7.592,-3.242 -11.247,-5.469 -15.896,-9.688 -32.044,-18.99 -49.181,-26.404 -3.652,-1.58 -6.256,-5.973 -11.172,-4.151 0.514,1.014 0.823,2.222 1.572,3.012 7.467,7.868 17.519,12.009 26.61,17.275 12.82,7.426 24.782,16.135 36.179,25.207 14.548,11.58 25.94,26.699 33.369,43.993 1.498,3.487 4.728,6.157 4.853,10.408 0.23,7.787 1.002,15.56 0.142,23.352 0.099,1.024 0.196,2.049 0.294,3.073 7.004,6.144 14.959,10.658 23.336,14.745 17.591,8.584 28.236,2.887 29.734,-16.504 0.218,-2.821 0.133,-5.747 3.405,-7.082 0.18,-1.515 1.393,-1.888 2.531,-1.885 27.315,0.081 54.631,0.211 81.946,0.358 0.437,0.002 0.872,0.333 1.308,0.51 3.731,-1.87 7.759,-1.832 11.782,-1.832 40.147,0.002 80.293,0.008 120.44,-0.002 3.796,-0.001 7.553,0.094 10.895,2.248 2.787,2.349 6.185,2.06 9.453,2.057 36.342,-0.03 72.684,-0.115 109.027,-0.164 4.288,-0.006 8.58,0.133 11.677,-3.623 0.11,-0.924 -0.125,-2.33 0.394,-2.712 5.564,-4.097 5.971,-9.988 3.326,-15.078 C 249.11,6.224 243.259,5.538 237.547,5.591 218.68,5.767 199.808,5.792 180.94,5.633 161.625,5.469 142.312,5.002 122.998,4.708 119.142,4.65 116.268,3.865 117.708,-1.008 L 117.151,-1.1 c 0,0 -0.305,0.474 -0.304,0.473 -5.86,1.999 -11.822,1.112 -17.77,0.633 C 83.379,1.75 67.646,0.266 51.931,0.454 35.035,0.657 18.127,1.13 1.242,-0.024 0.834,0.268 0.42,0.276 0,0" style="fill:#c12d40;fill-opacity:1;fill-rule:nonzero;stroke:none" transform="matrix(1.3333333,0,0,-1.3333333,1798.1179,3159.3207)" />
      </g></svg>