<?xml version='1.0' encoding='utf-8'?>
<svg xmlns="http://www.w3.org/2000/svg" version="1.1" width="144.597" height="275.851" viewBox="81.002 4236.260 144.597 275.851"><g id="object"><path id="path69" d="m 0,0 c -3.169,-3.035 -3.895,-6.297 -5.042,-9.443 -3.551,-9.734 -7.391,-19.362 -11.044,-29.059 -2.013,-5.341 -5.659,-8.413 -11.384,-9.277 -6.821,-1.03 -13.594,-2.371 -20.389,-3.572 -1.699,-0.3 -3.393,-0.545 -4.82,0.875 -0.038,0.76 -0.39,1.734 -0.074,2.385 9.798,20.196 19.263,40.568 29.655,60.456 6.985,13.368 14.442,26.575 23.81,38.534 2.395,3.058 4.242,3.192 5.768,0.255 10.156,-19.545 20.304,-39.095 30.374,-58.685 1.169,-2.276 2.129,-4.745 2.669,-7.236 0.645,-2.976 4.399,-4.873 3.327,-8.102 -1.176,-3.544 -5.031,-4.503 -7.935,-6.281 -1.46,-0.894 -3.062,-1.664 -4.702,-2.142 C 16.517,-35.284 17.461,-38.068 11.55,-23.216 9.314,-17.597 6.873,-12.052 4.297,-6.581 3.242,-4.34 1.583,-2.384 0,0" style="fill:#494643;fill-opacity:1;fill-rule:nonzero;stroke:none" transform="matrix(1.3333333,0,0,-1.3333333,162.2104,4437.3371)" />
      <path id="path135" d="m 0,0 c -0.856,0.243 -2.124,0.518 -3.332,0.959 -5.213,1.902 -6.032,4.05 -3.127,8.632 5.303,8.365 10.854,16.576 15.999,25.035 4.028,6.622 7.756,13.442 11.333,20.321 3.59,6.907 2.486,13.097 -3.008,18.869 -8.014,8.421 -15.769,17.09 -21.409,27.416 -3.176,5.815 -1.376,12.013 4.699,14.423 0.955,0.379 2.695,-0.064 3.524,-0.77 1.612,-1.373 2.937,-3.129 4.203,-4.856 7.179,-9.798 15.952,-18.074 24.934,-26.14 4.166,-3.741 6.165,-3.481 8.745,1.814 3.772,7.741 7.055,15.721 10.484,23.626 1.027,2.37 1.869,4.823 2.75,7.254 1.019,2.811 3.011,4.167 5.949,3.759 6.404,-0.888 12.817,-1.756 19.165,-2.958 1.754,-0.332 2.684,-2.239 1.899,-4.102 -0.654,-1.554 -1.668,-2.995 -2.707,-4.344 C 73.793,100.751 67.433,92.602 61.087,84.443 51.271,71.821 42.708,58.357 34.651,44.579 26.352,30.387 15.87,17.748 6.509,4.314 5.038,2.203 3.309,0.181 0,0" style="fill:#494643;fill-opacity:1;fill-rule:nonzero;stroke:none" transform="matrix(1.3333333,0,0,-1.3333333,97.830133,4402.8123)" />
      </g></svg>