<?xml version='1.0' encoding='utf-8'?>
<svg xmlns="http://www.w3.org/2000/svg" version="1.1" width="89.526" height="164.785" viewBox="212.037 1723.250 89.526 164.785"><g id="object"><path id="path167" d="m 0,0 c -5.273,-2.323 -9.921,-4.407 -14.603,-6.411 -1.372,-0.587 -3.738,1.552 -3.062,3.026 2.994,6.532 0.087,12.759 -0.875,18.986 -2.764,17.876 -5.93,35.691 -9.002,53.519 -0.511,2.967 -1.278,5.896 -2.05,8.809 -0.665,2.511 -2.58,3.45 -4.924,2.86 -3.751,-0.946 -7.39,-2.336 -11.139,-3.294 -2.696,-0.689 -5.318,0.902 -5.838,3.664 -0.633,3.362 -1.001,6.804 -1.114,10.224 -0.076,2.326 1.385,4.215 3.625,4.802 14.957,3.914 29.948,7.703 44.933,11.512 0.829,0.21 1.706,0.234 2.562,0.338 2.537,0.308 4.185,-1.067 4.986,-3.191 0.904,-2.398 1.553,-4.933 1.967,-7.465 C 5.856,94.99 4.55,93.368 2.348,92.359 -2.17,90.288 -9.139,90.862 -10.55,85.503 -11.764,80.892 -9.73,75.389 -8.982,70.302 -6.852,55.824 -4.466,41.381 -2.538,26.877 -1.352,17.958 -0.823,8.952 0,0" style="fill:#494643;fill-opacity:1;fill-rule:nonzero;stroke:none" transform="matrix(1.3333333,0,0,-1.3333333,288.18333,1873.3584)" />
      </g></svg>