<?xml version='1.0' encoding='utf-8'?>
<svg xmlns="http://www.w3.org/2000/svg" version="1.1" width="107.622" height="128.464" viewBox="1291.850 4028.800 107.622 128.464"><g id="object"><path id="path334" d="m 0,0 c 4.313,2.541 9.884,2.744 13.082,7.466 1.165,1.72 3.577,1.824 5.384,0.736 3.458,-2.082 6.723,-1.087 10.204,-0.133 8.719,2.393 17.509,4.522 26.678,3.933 1.945,-0.125 3.913,-0.206 5.816,-0.583 1.614,-0.32 3.115,-1.525 3.207,-3.074 C 64.486,6.398 62.572,5.894 61.023,6.112 46.374,8.174 33.225,2.114 19.632,-1.478 16.449,-2.319 14.169,-4.28 13.318,-7.79 c -1.11,-4.577 -2.758,-9.026 -2.479,-13.856 0.164,-2.835 1.581,-4.182 4.599,-3.687 10.532,1.724 21.103,1.986 31.729,1.255 2.807,-0.192 5.528,-0.475 7.568,-2.639 0.457,-0.485 0.78,-1.415 0.658,-2.04 -0.122,-0.619 -0.837,-1.52 -1.375,-1.583 -1.52,-0.177 -3.099,-0.118 -4.625,0.079 -11.893,1.532 -23.521,-0.878 -35.189,-2.42 -4.886,-0.645 -5.795,-1.861 -6.414,-6.878 -0.48,-3.895 -0.823,-7.824 -0.912,-11.745 -0.103,-4.539 1.503,-6.058 5.593,-4.964 9.529,2.549 19.282,3.665 28.986,5.168 6.666,1.033 13.313,0.908 19.985,0.608 2.387,-0.108 4.689,-0.66 6.704,-3.682 -7.642,-1.062 -14.864,-2.208 -22.123,-3.039 -10.562,-1.21 -20.901,-3.493 -31.166,-6.142 -4.917,-1.268 -4.861,-1.421 -5.45,-7.183 -0.118,-1.147 -0.341,-2.297 -0.649,-3.408 -0.366,-1.321 -2.716,-1.684 -3.909,-0.866 -2.501,1.717 -3.403,4.267 -3.82,7.028 -1.004,6.646 -0.734,13.327 -0.316,20.002 0.197,3.138 0.432,6.275 0.667,9.411 0.245,3.26 -0.334,5.883 -3.228,8.219 -2.609,2.105 -2.235,3.67 0.994,5.054 2.736,1.172 4.826,2.3 5.213,5.541 0.231,1.936 0.974,3.804 1.334,5.732 1.302,6.972 1.037,7.449 -6.057,11.97 C 0.35,-1.351 0.471,-0.733 0,0" style="fill:#4b475f;fill-opacity:1;fill-rule:nonzero;stroke:none" transform="matrix(1.3333333,0,0,-1.3333333,1302.6087,4050.9367)" />
      </g></svg>