<?xml version='1.0' encoding='utf-8'?>
<svg xmlns="http://www.w3.org/2000/svg" version="1.1" width="212.537" height="249.384" viewBox="1790.790 4159.010 212.537 249.384"><g id="object"><path id="path24" d="m 0,0 v -50.918 c 17.313,5.819 31.636,8.826 43.629,15.825 3.364,1.963 2.594,21.253 -0.965,22.988 C 30.058,-5.957 15.426,-3.967 0,0 M -2.016,-138.712 H -46.95 V 35.577 c 32.018,0 64.769,4.192 95.941,-1.038 41.016,-6.881 57.478,-59.076 33.613,-95.887 -3.896,-6.01 -8.785,-11.377 -13.379,-17.25 11.512,-19.177 22.64,-37.715 34.228,-57.019 -46.587,-9.887 -49.63,-8.602 -71.998,28.494 -2.515,4.172 -4.145,9.559 -7.773,12.21 -4.769,3.483 -11.743,7.42 -16.582,6.25 -3.944,-0.954 -8.086,-8.892 -8.713,-14.142 -1.323,-11.09 -0.403,-22.446 -0.403,-35.907" style="fill:#231916;fill-opacity:1;fill-rule:nonzero;stroke:none" transform="matrix(1.3333333,0,0,-1.3333333,1859.3875,4214.5667)" />
      </g></svg>