<?xml version='1.0' encoding='utf-8'?>
<svg xmlns="http://www.w3.org/2000/svg" version="1.1" width="345.624" height="398.341" viewBox="1424.600 900.831 345.624 398.341"><g id="object"><path id="path5" d="m 0,0 v -179.545 c -14.711,-0.665 -26.585,-1.201 -40.859,-1.846 V 98.395 c 20.128,8.906 34.218,4.095 46.913,-15.933 24.221,-38.211 50.891,-74.87 76.685,-112.379 48.039,40.156 57.023,113.21 126.62,138.282 V -179.851 H 170.91 V -0.044 C 168.27,0.934 165.63,1.912 162.989,2.89 145.351,-22.624 127.938,-48.296 110.017,-73.609 89.825,-102.13 79.335,-102.156 59.703,-73.827 42.278,-48.683 25.31,-23.222 8.141,2.099 5.427,1.399 2.714,0.699 0,0" style="fill:#ffffff;fill-opacity:1;fill-rule:nonzero;stroke:none" transform="matrix(1.3333333,0,0,-1.3333333,1485.0801,1051.3179)" />
      </g></svg>