<?xml version='1.0' encoding='utf-8'?>
<svg xmlns="http://www.w3.org/2000/svg" version="1.1" width="65.852" height="102.453" viewBox="2550.270 3955.840 65.852 102.453"><g id="object"><path id="path60" d="m 0,0 c 0,11.199 0.342,18.773 -0.101,26.3 -0.401,6.801 4.053,5.447 7.937,5.588 4.314,0.157 5.161,-1.54 5.245,-5.98 0.276,-14.471 -0.424,-28.989 1.251,-43.42 0.439,-3.788 2.492,-6.272 6.411,-6.201 3.94,0.071 5.793,2.728 6.178,6.459 1.082,10.493 0.537,20.991 0.186,31.497 -0.165,4.937 0.121,9.9 0.413,14.839 0.168,2.85 2.474,3.255 4.683,3.027 2.865,-0.296 6.578,0.717 7.412,-3.642 0.353,-1.842 0.448,-3.757 0.459,-5.639 C 40.152,9.12 40.29,-4.589 40.187,-18.296 40.095,-30.402 32.416,-36.049 17.005,-35.658 7.202,-35.41 0.41,-28.418 0.542,-18.288 0.637,-10.971 -0.6,-3.673 0,0" style="fill:#494f57;fill-opacity:1;fill-rule:nonzero;stroke:none" transform="matrix(1.3333333,0,0,-1.3333333,2556.4889,4004.7201)" />
      </g></svg>