<?xml version='1.0' encoding='utf-8'?>
<svg xmlns="http://www.w3.org/2000/svg" version="1.1" width="454.429" height="1175.103" viewBox="784.176 197.689 454.429 1175.103"><g id="object"><path id="path9" d="M 0,0 C -0.053,1.886 -0.736,3.232 -2.889,3.172 -4.692,3.123 -5.271,1.911 -5.311,0.344 -5.355,-1.397 -5.167,-3.083 -2.884,-3.197 -0.688,-3.307 -0.131,-1.819 0,0 m -87.369,-8.867 c 0.156,1.549 -0.782,2.557 -1.453,2.107 -2.409,-1.618 -6.628,-0.912 -6.968,-5.319 -0.098,-1.265 0.102,-3.057 1.206,-2.431 2.712,1.538 4.993,3.838 7.215,5.643 m 43.241,364.358 c -0.061,2.23 -0.492,4.455 -3.178,4.584 -2.321,0.112 -3.211,-1.883 -3.138,-3.825 0.083,-2.199 1.094,-4.157 3.733,-4.173 2.184,-0.014 2.499,1.675 2.583,3.414 m -65.177,-493.501 c -2.151,-0.977 -3.075,-2.896 -2.53,-4.604 0.923,-2.892 0.28,-7.417 4.162,-7.91 2.037,-0.259 2.823,3.312 2.573,5.724 -0.299,2.898 -1.819,5.136 -4.205,6.79 m 12.147,-66.182 c -2.264,-0.173 -5.14,-0.981 -4.283,-2.774 1.963,-4.105 7.528,-3.587 10.67,-6.677 0.811,-0.797 2.57,0.454 2.314,1.675 -0.999,4.777 -5.046,6.271 -8.701,7.776 M 5.556,79.096 c -4.027,6.664 -10.302,7.994 -13.763,4.039 -1.845,-2.107 -1.22,-3.834 0.046,-5.651 1.237,-1.774 3.534,-1.714 3.997,-0.123 1.753,6.014 5.621,2.255 9.72,1.735 M -9.988,72.084 c -3.838,-0.81 -3.417,6.775 -7.567,3.699 -2.61,-1.934 -4.849,-4.397 -7.113,-6.758 -1.31,-1.367 -2.679,-3.141 -0.588,-4.822 2.215,-1.782 4.151,-0.678 5.071,1.575 1.82,4.452 4.775,6.701 10.197,6.306 m 111.833,342.855 c 0.758,0.171 4.768,-0.292 4.302,3.398 -0.311,2.46 -2.561,5.926 -6.064,5.692 -3.009,-0.202 -6.396,-1.812 -6.2,-5.391 0.168,-3.055 2.858,-4.531 7.962,-3.699 m -211.113,-537.435 c -0.069,1.491 0.057,3.41 -0.292,5.237 -0.496,2.597 -1.54,5.625 -4.812,4.613 -2.837,-0.878 -2.286,-3.912 -1.218,-6.059 1.751,-3.522 4.09,-6.627 2.395,-11.079 -0.644,-1.692 1.507,-3.336 3.276,-4.092 0.659,-0.281 2.208,0.02 2.434,0.493 0.815,1.705 -0.367,3.237 -1.326,4.447 -1.588,2.005 -0.85,3.996 -0.457,6.44 m 1.779,-79.16 c -0.822,6.701 -4.155,10.931 -10.798,12.007 -2.13,0.345 -4.969,2.655 -6.064,-0.711 -0.959,-2.949 2.317,-3.743 4.333,-4.679 4.237,-1.967 8.654,-3.562 12.529,-6.617 m 47.068,548.79 c 2.052,2.091 8.179,-1.71 8.504,3.77 0.272,4.592 -3.283,6.151 -7.681,3.656 -0.223,-0.126 -0.809,0.363 -1.214,0.589 -1.718,0.962 -3.599,1.721 -5.054,-0.117 -1.422,-1.797 0.402,-3.518 0.715,-5.278 0.389,-2.186 1.686,-3.257 4.73,-2.62 M 94.906,157.776 c -1.751,3.114 -2.027,7.333 -6.067,7.422 -4.355,0.095 -5.48,-3.742 -6.074,-7.22 -0.495,-2.896 1.557,-4.7 4.09,-4.396 3.008,0.361 6.044,1.537 8.051,4.194 M -84.357,-159.315 c 1.605,0.241 1.911,1.36 2.087,2.541 0.35,2.345 2.283,4.524 -0.515,7 -2.648,2.344 -6.137,2.14 -8.823,3.959 -1.905,1.29 -3.586,1.309 -4.561,-0.947 -0.828,-1.916 -0.48,-3.809 1.713,-4.624 3.615,-1.344 6.731,-3.191 8.575,-6.771 0.279,-0.542 1.065,-0.823 1.524,-1.158 M 10.16,87.891 c 4.552,1.691 9.125,3.23 13.539,5.138 1.114,0.482 1.875,2.132 1.169,3.669 -0.564,1.225 -1.862,1.887 -2.87,1.224 C 17.893,95.221 12.724,96.679 8.611,94.304 7.095,93.429 4.522,93.009 5.003,90.661 5.518,88.149 8.279,88.616 10.16,87.891 m -79.597,225.45 c -5.268,-1.304 -10.308,-2.903 -15.052,-5.798 -4.277,-2.609 -3.577,-5.791 -0.886,-7.748 2.78,-2.021 4.015,-4.36 5.072,-7.249 1.664,-4.546 4.836,-2.187 5.203,-0.066 1.003,5.791 5.552,7.469 9.435,10.218 2.187,1.549 3.527,3.881 2.426,6.789 -1.071,2.83 -3.435,3.682 -6.198,3.854 m -67.737,-363.544 c 2.027,-3.098 6.96,-0.982 7.155,-6.103 0.356,-9.341 3.818,-18.099 6.396,-27.007 0.808,-2.792 2.483,-2.271 4.357,-1.64 1.78,0.6 4.655,1.835 3.101,3.548 -5.178,5.71 -3.379,13.594 -6.904,19.573 -1.838,3.117 -3.832,5.624 -2.072,9.528 0.717,1.589 0.384,3.877 -1.479,5.068 -2.004,1.281 -3.893,0.965 -5.804,-0.609 -1.206,-0.993 -2.856,-1.448 -4.75,-2.358 m 16.759,17.061 c 3.637,4.375 9.08,8.693 11.307,14.29 1.868,4.697 2.57,8.169 8.379,8.586 3.216,0.23 4.73,2.905 3.945,6.276 -0.45,1.934 -12.4,6.231 -15.081,5.283 -2.609,-0.923 -4.598,-2.523 -3.482,-5.814 0.073,-0.212 0.287,-0.373 0.409,-0.573 2.809,-4.593 1.374,-8.537 -1.903,-12.166 -3.203,-3.548 -5.689,-7.496 -6.642,-12.234 -0.319,-1.586 -0.574,-3.426 3.068,-3.648 m 210.406,212.81 c 0.483,-2.012 1.33,-5.427 2.12,-8.854 0.82,-3.558 2.729,-6.285 6.552,-6.376 3.201,-0.076 5.407,2.572 6.037,5.202 0.88,3.672 0.362,9.137 -3.105,9.937 -8.014,1.849 -3.343,6.318 -3.291,10.005 0.022,1.557 3.957,1.221 1.635,3.278 -2.083,1.846 -3.74,0.599 -5.074,-1.611 -2.623,-4.346 -4.27,-3.638 -5.51,1.061 -1.226,4.647 -4.285,7.844 -9.24,8.586 -2.199,0.33 -4.896,0.165 -3.428,-3.2 1.202,-2.756 -2.071,-8.092 3.786,-8.113 6.407,-0.023 9.696,-2.485 9.518,-9.915 m -99.081,5.087 c 0,-21.484 0.144,-42.97 -0.104,-64.451 -0.06,-5.254 1.55,-7.488 6.862,-8.583 4.656,-0.959 8.844,0.164 13.245,0.459 16.086,1.076 26.902,12.41 27.076,28.3 0.291,26.715 -0.822,53.416 -0.749,80.141 0.054,20.254 0.703,40.531 0.297,60.81 -0.718,35.921 -0.296,71.866 -1.015,107.787 -0.397,19.853 -11.797,29.512 -30.458,31.427 -14.354,1.473 -17.747,-1.164 -17.562,-11.266 0.428,-23.372 1.03,-46.747 1.034,-70.121 0.007,-51.504 0.042,-103.006 1.374,-154.503 m 163.924,272.286 c 0.367,-0.244 0.527,-0.586 0.481,-1.024 -0.587,-5.62 0.574,-10.474 3.473,-15.684 4.355,-7.83 4.428,-17.241 6.577,-25.918 1.58,-6.378 2.968,-12.902 -0.714,-19.152 -0.91,-1.544 -0.324,-2.703 0.98,-3.617 2.557,-1.789 2.384,-4.546 2.32,-7.091 -0.348,-13.827 2.057,-27.598 0.311,-41.492 -0.812,-6.465 -0.454,-13.193 0.262,-19.704 0.928,-8.423 0.086,-16.844 0.317,-25.242 0.261,-9.504 1.267,-19.248 -0.32,-28.684 -1.577,-9.379 4.488,-19.968 -4.319,-28.178 -1.934,-1.802 -0.558,-3.605 0.792,-3.903 5.03,-1.112 3.787,-4.43 3.476,-7.805 -0.325,-3.519 -0.333,-7.099 -0.109,-10.63 0.427,-6.727 0.98,-13.34 -7.017,-16.484 -1.621,-0.637 -2.693,-2.152 -2.4,-3.952 0.28,-1.722 2.231,-1.95 3.404,-1.991 5.743,-0.201 7.741,-3.244 7.342,-8.608 -0.094,-1.258 0.823,-2.157 2.116,-2.494 -0.03,-0.848 -0.06,-1.695 -0.09,-2.543 -3.023,-4.475 -3.188,-24.388 -0.216,-28.481 0.105,-0.144 0.445,-0.117 0.676,-0.169 -0.008,-2.329 -0.015,-4.657 -0.022,-6.986 -5.663,-4.343 -0.934,-8.617 0.084,-12.916 -0.036,-1.385 -0.072,-2.771 -0.108,-4.157 -3.967,-1.143 -2.716,-4.505 -2.612,-6.984 0.264,-6.327 -3.906,-12.28 -1.453,-18.735 -0.206,-2.307 -0.412,-4.614 -0.619,-6.922 -1.641,-0.368 -2.15,-1.682 -2.419,-3.078 -1.87,-9.693 -6.42,-18.324 -10.653,-27.086 -1.048,-2.168 -1.106,-4.488 -0.716,-6.831 0,0 -0.034,-0.081 -0.034,-0.081 -3.89,-1.905 -5.536,-4.896 -4.448,-9.207 0.035,-0.293 -0.093,-0.467 -0.383,-0.522 -4.623,-0.941 -9.952,-7.511 -10.11,-12.461 -0.535,-0.741 -1.069,-1.482 -1.604,-2.222 -2.013,0.11 -4.14,-0.402 -5.06,-2.036 C 126.314,23.843 115.497,19.781 107.099,12.896 103.426,9.885 98.682,7.723 94.073,6.413 86.058,4.133 78.919,-2.3 69.62,0.767 69.083,0.944 67.834,-0.03 67.389,-0.757 65.615,-3.653 62.673,-3.204 59.988,-3.976 55.667,-5.218 51.184,-2.708 47.46,-4.211 33.635,-9.792 18.97,-3.231 5.155,-7.666 c -0.972,-0.312 -2.292,0.68 -3.433,0.633 -3.843,-0.158 -7.644,-0.968 -10.294,-3.918 -2.455,-2.735 -1.157,-29.375 1.262,-32.589 0.114,-1.382 0.228,-2.763 0.342,-4.146 -0.69,-0.383 -1.888,-0.677 -1.974,-1.166 -0.253,-1.439 0.915,-1.678 2.086,-1.658 0.044,-4.724 0.088,-9.449 0.132,-14.174 -1.377,-0.861 -1.6,-2.223 -1.601,-3.684 -0.005,-14.861 -0.021,-29.721 -0.007,-44.582 0.002,-1.878 -0.108,-3.89 2.317,-4.577 -0.027,-1.318 -0.054,-2.637 -0.081,-3.956 -1.998,-0.613 -2.238,-2.247 -2.241,-3.963 -0.014,-6.159 0.002,-12.319 0.012,-18.479 0.006,-3.591 -0.799,-7.349 -5.103,-6.759 -3.55,0.486 -4.667,-0.518 -5.499,-3.483 -1.072,-3.82 1.927,-4.652 4.186,-5.351 6.101,-1.889 7.57,-6.275 7.837,-11.99 0.473,-10.117 -0.461,-20.193 -0.28,-30.325 0.692,-38.572 -0.43,-77.167 1.484,-115.732 0.32,-6.446 -3.564,-9.827 -9.771,-8.561 -10.036,2.046 -20.438,0.901 -30.088,0.136 -14.424,-1.145 -28.85,-0.512 -43.248,-1.614 -16.38,-1.253 -32.939,-0.343 -49.415,-0.074 -4.323,0.07 -8.809,0.408 -8.617,7.147 0.232,8.133 -1.355,16.361 -0.686,24.426 1.114,13.418 -0.276,26.781 0.143,40.196 0.733,23.44 -1.575,46.962 -1.339,70.437 0.198,19.564 -1.503,39.157 0.525,58.704 0.231,2.227 -0.424,4.21 -2.608,5.352 0.011,0.794 0.023,1.589 0.034,2.384 2.445,1.61 2.174,4.281 1.855,6.442 -1.186,8.021 0.25,16.007 -0.081,24.005 -0.502,12.18 -1.162,24.445 -0.879,36.541 0.513,21.941 1.269,43.847 0.115,65.779 -0.118,2.232 0.679,5.875 1.616,5.701 5.575,-1.037 10.658,4.834 16.023,1.239 3.207,-2.149 6.922,-2.835 10.124,-2.56 11.105,0.957 21.905,-1.796 32.887,-1.851 2.207,-0.011 4.771,-0.027 4.991,2.669 0.234,2.883 -2.498,2.973 -4.592,3.185 -15.933,1.617 -31.75,4.37 -47.844,4.446 -3.906,0.019 -8.517,-0.186 -11.637,1.085 -4.86,1.981 -0.644,7.633 -1.631,11.563 -0.115,0.459 -0.302,0.917 -0.324,1.381 -0.649,13.412 -0.223,26.834 -0.916,40.27 -0.747,14.473 0.374,29.041 0.622,43.569 0.036,2.072 0.358,4.36 -1.918,5.709 0.103,1.392 0.206,2.785 0.31,4.178 3.764,4.929 0.662,9.754 -0.223,14.612 0.078,0.82 0.156,1.641 0.234,2.461 3.267,4.075 0.989,7.981 -0.366,11.914 0.105,2.185 0.21,4.37 0.315,6.554 2.652,4.971 -0.48,9.837 -0.267,14.763 0.011,0.655 0.022,1.31 0.033,1.965 3.382,3.963 0.625,7.735 -0.358,11.562 0.084,1.11 0.169,2.219 0.253,3.329 0.232,6.167 1.34,12.46 0.473,18.469 -1.083,7.504 2.38,15.25 -1.512,22.475 0.041,1.426 0.082,2.852 0.123,4.278 2.161,3.859 2.459,7.67 -0.293,11.403 -0.013,1.315 -0.026,2.63 -0.039,3.946 2.069,3.366 2.769,6.766 0.255,10.246 -0.022,0.931 -0.044,1.862 -0.066,2.793 2.077,5.725 3.213,11.445 -0.096,17.14 -0.775,1.91 -0.251,3.777 0.191,5.646 2.293,3.852 2.456,7.664 -0.215,11.422 0.013,1.394 0.025,2.788 0.037,4.182 2.475,3.915 2.766,7.798 -0.166,11.636 -0.676,1.295 -0.491,2.565 0.118,3.821 2.86,2.103 1.713,5.215 1.654,7.831 -0.134,5.837 -0.917,11.656 -1.19,17.493 -0.456,9.777 1.254,19.6 -0.586,29.354 -0.036,2.338 -0.071,4.675 -0.107,7.013 1.526,8.441 0.396,16.943 0.539,25.414 0.306,18.085 0.782,36.177 0.534,54.257 -0.232,16.885 -1.428,33.754 -1.932,50.638 -0.125,4.2 0.82,8.429 1.204,12.65 0.193,2.123 1.497,2.028 3.235,2.585 9.26,2.967 18.406,-0.652 27.732,-0.081 20.011,1.224 40.188,-0.558 60.296,-0.532 17.299,0.022 34.57,1.068 51.905,0.034 13.365,-0.797 26.887,0.637 40.201,-0.519 10.867,-0.944 22.125,-0.754 32.485,-5.422 4.454,-2.007 8.965,-4.124 13.673,-5.291 22.473,-5.569 39.942,-19.343 56.739,-34.202 2.966,-2.623 7.233,-7.073 5.882,-9.915 -3.523,-7.413 0.68,-7.432 5.572,-8.187 1.235,-0.191 2.304,-1.463 3.449,-2.238 0.422,-0.174 0.611,-0.488 0.567,-0.943 -1.259,-5.874 2.814,-8.774 6.6,-11.834" style="fill:#08282e;fill-opacity:1;fill-rule:nonzero;stroke:none" transform="matrix(1.3333333,0,0,-1.3333333,1000.9832,924.2948)" />
      <path id="path41" d="m 0,0 c 2.184,-1.142 2.839,-3.125 2.608,-5.352 -2.029,-19.547 -0.327,-39.14 -0.525,-58.704 -0.237,-23.475 2.072,-46.997 1.339,-70.437 -0.419,-13.415 0.971,-26.778 -0.143,-40.196 -0.669,-8.065 0.918,-16.293 0.686,-24.426 -0.192,-6.739 4.294,-7.077 8.617,-7.147 16.476,-0.269 33.035,-1.179 49.415,0.074 14.397,1.102 28.824,0.469 43.248,1.614 9.65,0.765 20.052,1.91 30.088,-0.136 6.207,-1.266 10.091,2.115 9.771,8.561 -1.914,38.565 -0.792,77.16 -1.484,115.732 -0.181,10.132 0.753,20.209 0.28,30.325 -0.268,5.715 -1.736,10.101 -7.837,11.99 -2.259,0.699 -5.258,1.531 -4.186,5.351 0.832,2.965 1.949,3.969 5.499,3.483 4.304,-0.59 5.109,3.168 5.103,6.759 -0.01,6.16 -0.026,12.32 -0.013,18.479 0.004,1.716 0.244,3.35 2.242,3.963 0.679,-11.749 2.182,-23.428 -0.226,-35.262 -0.839,-4.121 1.485,-8.781 1.53,-13.204 0.321,-30.958 0.138,-61.923 0.698,-92.875 0.35,-19.318 -0.346,-38.671 1.411,-57.956 0.573,-6.298 -2.529,-9.85 -8.975,-9.953 -25.238,-0.404 -50.476,-0.836 -75.715,-1.058 -17.461,-0.155 -34.926,-0.078 -52.387,0.083 -8.92,0.083 -11.181,2.147 -10.856,10.963 0.902,24.526 -0.767,49.033 0.336,73.597 0.81,18.053 -0.722,36.254 -0.619,54.406 0.116,20.507 -0.084,41.016 -0.118,61.524 C -0.219,-6.535 -0.075,-3.267 0,0" style="fill:#494f57;fill-opacity:1;fill-rule:nonzero;stroke:none" transform="matrix(1.3333333,0,0,-1.3333333,799.91133,1086.1828)" />
      <path id="path88" d="m 0,0 c -1.145,0.775 -2.214,2.048 -3.449,2.238 -4.892,0.755 -9.095,0.775 -5.572,8.188 1.351,2.842 -2.916,7.291 -5.882,9.915 -16.797,14.858 -34.266,28.633 -56.739,34.201 -4.708,1.167 -9.219,3.284 -13.673,5.291 -10.36,4.668 -21.618,4.479 -32.486,5.422 -13.313,1.156 -26.835,-0.278 -40.2,0.519 -17.335,1.034 -34.606,-0.012 -51.905,-0.034 -20.109,-0.025 -40.285,1.757 -60.296,0.532 -9.327,-0.571 -18.472,3.048 -27.732,0.082 -1.738,-0.557 -3.042,-0.462 -3.235,-2.586 -0.384,-4.221 -1.329,-8.449 -1.204,-12.65 0.503,-16.884 1.7,-33.753 1.931,-50.637 0.249,-18.08 -0.227,-36.173 -0.533,-54.257 -0.143,-8.472 0.987,-16.974 -0.539,-25.415 -3.463,6.226 -1.163,12.976 -1.392,19.405 -0.939,26.272 -1.078,52.572 -1.618,78.859 -0.284,13.857 -0.697,27.712 -1.233,41.561 -0.234,6.062 2.14,9.23 8.4,9.774 8.024,0.697 15.99,-0.424 23.992,-0.427 16.119,-0.004 32.292,0.238 48.353,-0.441 13.595,-0.575 27.205,-0.122 40.732,-0.184 13.655,-0.063 27.563,0.257 41.143,0.008 19.902,-0.365 40.304,0.699 59.798,-6.701 11.175,-4.242 22.466,-8.2 33.481,-12.875 8.083,-3.431 14.704,-9.166 21.611,-14.337 11.26,-8.43 21.824,-17.655 26.88,-31.472 C -0.886,2.662 -0.455,1.327 0,0" style="fill:#494f57;fill-opacity:1;fill-rule:nonzero;stroke:none" transform="matrix(1.3333333,0,0,-1.3333333,1197.8727,297.8712)" />
      <path id="path150" d="m 0,0 c 2.277,-1.349 1.954,-3.636 1.919,-5.709 -0.248,-14.528 -1.37,-29.095 -0.623,-43.569 0.693,-13.436 0.267,-26.858 0.916,-40.269 0.022,-0.465 0.209,-0.922 0.325,-1.382 0.986,-3.93 -3.23,-9.582 1.63,-11.562 3.12,-1.271 7.731,-1.067 11.637,-1.085 16.094,-0.077 31.912,-2.83 47.844,-4.447 2.095,-0.212 4.826,-0.302 4.592,-3.185 -0.219,-2.696 -2.784,-2.679 -4.991,-2.668 -10.982,0.054 -21.782,2.808 -32.887,1.851 -3.202,-0.276 -6.917,0.411 -10.124,2.56 -5.365,3.594 -10.448,-2.277 -16.023,-1.24 -0.937,0.175 -1.734,-3.469 -1.616,-5.701 1.154,-21.931 0.398,-43.838 -0.115,-65.778 -0.283,-12.097 0.377,-24.362 0.88,-36.541 0.33,-7.999 -1.106,-15.985 0.08,-24.006 0.319,-2.161 0.59,-4.832 -1.855,-6.442 -2.273,17.325 -0.583,34.733 -1.014,52.098 -0.473,19.051 -0.532,38.126 -0.181,57.179 0.177,9.605 -1.422,19.273 0.626,28.822 0.928,4.324 -1.093,8.302 -1.131,12.54 -0.231,26.106 -1.051,52.214 -0.732,78.31 C -0.762,-13.547 -1.499,-6.678 0,0" style="fill:#494f57;fill-opacity:1;fill-rule:nonzero;stroke:none" transform="matrix(1.3333333,0,0,-1.3333333,797.8376,750.77387)" />
      <path id="path166" d="m 0,0 c -1.292,0.338 -2.209,1.237 -2.116,2.494 0.4,5.364 -1.599,8.407 -7.342,8.608 -1.172,0.041 -3.123,0.269 -3.403,1.992 -0.293,1.799 0.779,3.314 2.4,3.952 7.997,3.143 7.444,9.756 7.017,16.484 -0.224,3.53 -0.216,7.11 0.108,10.629 0.312,3.375 1.554,6.693 -3.476,7.805 -1.349,0.298 -2.725,2.101 -0.792,3.903 8.807,8.211 2.742,18.8 4.32,28.179 1.587,9.435 0.58,19.179 0.319,28.683 -0.231,8.398 0.611,16.819 -0.316,25.242 -0.717,6.511 -1.075,13.24 -0.262,19.704 1.745,13.894 -0.659,27.665 -0.311,41.492 0.064,2.545 0.236,5.302 -2.32,7.092 -1.305,0.913 -1.891,2.072 -0.981,3.616 3.683,6.25 2.294,12.774 0.715,19.152 -2.149,8.677 -2.223,18.088 -6.578,25.918 -2.898,5.211 -4.059,10.065 -3.472,15.684 5.663,-11.522 9.8,-23.54 11.687,-36.276 4.432,-29.917 4.385,-59.997 4.55,-90.176 C -0.123,120.219 -0.296,96.235 -0.11,72.271 0.016,56.105 1.192,39.874 -0.508,23.663 -1.081,18.191 0.092,12.525 0.579,6.958 0.787,4.582 1.117,2.244 0,0" style="fill:#494f57;fill-opacity:1;fill-rule:nonzero;stroke:none" transform="matrix(1.3333333,0,0,-1.3333333,1230.0572,677.1112)" />
      <path id="path202" d="m 0,0 c -2.419,3.214 -3.717,29.854 -1.262,32.589 2.65,2.95 6.451,3.76 10.294,3.918 1.141,0.047 2.461,-0.945 3.433,-0.633 13.815,4.435 28.48,-2.125 42.305,3.455 3.724,1.503 8.207,-1.007 12.528,0.235 2.685,0.772 5.627,0.323 7.401,3.219 0.445,0.727 1.694,1.701 2.231,1.524 9.299,-3.067 16.438,3.366 24.453,5.646 4.609,1.31 9.353,3.472 13.026,6.483 8.398,6.885 19.215,10.947 24.92,21.075 0.92,1.634 3.047,2.146 5.06,2.036 -2.334,-9.005 -10.354,-12.98 -16.726,-18.11 C 111.646,48.541 93.608,38.932 73.145,36.104 55.535,33.67 37.706,31.714 19.829,32.5 15.114,32.707 10.557,30.794 5.757,32.271 2.831,33.171 1.584,31.044 1.479,28.181 1.298,23.236 0.128,18.375 0.883,13.333 1.547,8.897 1.296,4.378 0,0" style="fill:#494f57;fill-opacity:1;fill-rule:nonzero;stroke:none" transform="matrix(1.3333333,0,0,-1.3333333,991.23653,982.34813)" />
      <path id="path320" d="m 0,0 c 1.84,-9.754 0.13,-19.577 0.587,-29.354 0.272,-5.837 1.055,-11.656 1.189,-17.493 0.06,-2.616 1.207,-5.728 -1.654,-7.831 -2.156,16.406 -1.468,32.91 -1.669,49.382 C -1.57,-3.415 -1.419,-1.5 0,0" style="fill:#494f57;fill-opacity:1;fill-rule:nonzero;stroke:none" transform="matrix(1.3333333,0,0,-1.3333333,795.99587,412.80933)" />
      <path id="path324" d="m 0,0 c -2.425,0.687 -2.315,2.699 -2.317,4.577 -0.014,14.86 0.002,29.721 0.007,44.582 10e-4,1.46 0.224,2.822 1.602,3.684 C 2.161,40.247 -0.494,27.493 0.347,14.828 0.673,9.915 0.141,4.945 0,0" style="fill:#494f57;fill-opacity:1;fill-rule:nonzero;stroke:none" transform="matrix(1.3333333,0,0,-1.3333333,992.96293,1080.9969)" />
      <path id="path350" d="M 0,0 C 3.892,-7.225 0.43,-14.971 1.512,-22.475 2.379,-28.484 1.271,-34.777 1.04,-40.944 -3.379,-31.505 0.921,-21.527 -0.706,-11.858 -1.346,-8.053 -0.286,-3.961 0,0" style="fill:#494f57;fill-opacity:1;fill-rule:nonzero;stroke:none" transform="matrix(1.3333333,0,0,-1.3333333,796.36,601.064)" />
      <path id="path364" d="m 0,0 c -0.39,2.343 -0.332,4.663 0.716,6.831 4.233,8.762 8.782,17.393 10.652,27.086 0.27,1.396 0.778,2.71 2.42,3.078 C 14.641,30.971 12.156,25.596 9.983,20.351 7.096,13.382 5.215,5.848 0,0" style="fill:#494f57;fill-opacity:1;fill-rule:nonzero;stroke:none" transform="matrix(1.3333333,0,0,-1.3333333,1205.8608,843.62813)" />
      <path id="path395" d="M 0,0 C -0.231,0.052 -0.571,0.025 -0.676,0.169 -3.648,4.262 -3.483,24.176 -0.46,28.651 0.911,19.12 0.936,9.568 0,0" style="fill:#494f57;fill-opacity:1;fill-rule:nonzero;stroke:none" transform="matrix(1.3333333,0,0,-1.3333333,1230.5508,718.7016)" />
      <path id="path412" d="M 0,0 C -2.453,6.455 1.717,12.408 1.452,18.735 1.349,21.214 0.097,24.575 4.064,25.719 3.977,16.946 3.926,8.167 0,0" style="fill:#494f57;fill-opacity:1;fill-rule:nonzero;stroke:none" transform="matrix(1.3333333,0,0,-1.3333333,1225.0705,785.07173)" />
      <path id="path451" d="M 0,0 C 0.157,4.951 5.487,11.52 10.11,12.462 8.3,7.041 4.623,3.137 0,0" style="fill:#494f57;fill-opacity:1;fill-rule:nonzero;stroke:none" transform="matrix(1.3333333,0,0,-1.3333333,1185.894,873.32307)" />
      <path id="path456" d="M 0,0 C 3.309,-5.695 2.173,-11.415 0.096,-17.14 -0.875,-11.432 -0.12,-5.714 0,0" style="fill:#494f57;fill-opacity:1;fill-rule:nonzero;stroke:none" transform="matrix(1.3333333,0,0,-1.3333333,796.20587,534.65573)" />
      <path id="path469" d="M 0,0 C 0.885,-4.858 3.986,-9.683 0.222,-14.612 -0.194,-9.746 -2.871,-4.915 0,0" style="fill:#494f57;fill-opacity:1;fill-rule:nonzero;stroke:none" transform="matrix(1.3333333,0,0,-1.3333333,797.9544,725.72013)" />
      <path id="path478" d="M 0,0 C -3.785,3.06 -7.858,5.96 -6.6,11.834 -2.98,8.681 -0.801,4.725 0,0" style="fill:#494f57;fill-opacity:1;fill-rule:nonzero;stroke:none" transform="matrix(1.3333333,0,0,-1.3333333,1207.4281,314.90667)" />
      <path id="path479" d="M 0,0 C -0.213,-4.926 2.919,-9.792 0.266,-14.763 -1.656,-9.875 -2.682,-4.971 0,0" style="fill:#494f57;fill-opacity:1;fill-rule:nonzero;stroke:none" transform="matrix(1.3333333,0,0,-1.3333333,797.842,678.13067)" />
      <path id="path483" d="M 0,0 C -1.018,4.299 -5.747,8.573 -0.084,12.916 1.329,8.62 2.534,4.322 0,0" style="fill:#494f57;fill-opacity:1;fill-rule:nonzero;stroke:none" transform="matrix(1.3333333,0,0,-1.3333333,1230.6336,745.23747)" />
      <path id="path497" d="M 0,0 C 0.983,-3.827 3.74,-7.599 0.358,-11.561 -1.627,-7.765 -1.898,-3.916 0,0" style="fill:#494f57;fill-opacity:1;fill-rule:nonzero;stroke:none" transform="matrix(1.3333333,0,0,-1.3333333,797.4084,660.0952)" />
      <path id="path515" d="M 0,0 C 1.354,-3.934 3.632,-7.839 0.365,-11.914 -0.425,-7.964 -2.46,-4.051 0,0" style="fill:#494f57;fill-opacity:1;fill-rule:nonzero;stroke:none" transform="matrix(1.3333333,0,0,-1.3333333,797.77853,706.55293)" />
      <path id="path526" d="M 0,0 C 2.752,-3.733 2.454,-7.544 0.292,-11.403 -0.272,-7.614 -0.95,-3.828 0,0" style="fill:#494f57;fill-opacity:1;fill-rule:nonzero;stroke:none" transform="matrix(1.3333333,0,0,-1.3333333,796.134,580.15573)" />
      <path id="path529" d="M 0,0 C 2.67,-3.759 2.508,-7.57 0.215,-11.422 -0.356,-7.624 -1.45,-3.836 0,0" style="fill:#494f57;fill-opacity:1;fill-rule:nonzero;stroke:none" transform="matrix(1.3333333,0,0,-1.3333333,796.17453,511.89827)" />
      <path id="path530" d="M 0,0 C 2.933,-3.837 2.641,-7.721 0.166,-11.635 -0.832,-7.771 -0.847,-3.891 0,0" style="fill:#494f57;fill-opacity:1;fill-rule:nonzero;stroke:none" transform="matrix(1.3333333,0,0,-1.3333333,796.0016,490.8088)" />
      <path id="path548" d="M 0,0 C 2.513,-3.48 1.814,-6.881 -0.255,-10.247 -1.907,-6.788 -1.36,-3.384 0,0" style="fill:#494f57;fill-opacity:1;fill-rule:nonzero;stroke:none" transform="matrix(1.3333333,0,0,-1.3333333,796.42227,561.23293)" />
      <path id="path610" d="M 0,0 C -1.088,4.311 0.557,7.302 4.448,9.207 4.23,5.527 2.946,2.362 0,0" style="fill:#494f57;fill-opacity:1;fill-rule:nonzero;stroke:none" transform="matrix(1.3333333,0,0,-1.3333333,1199.8851,856.01213)" />
      <path id="path943" d="m 0,0 c 0.178,7.43 -3.111,9.892 -9.518,9.916 -5.857,0.021 -2.584,5.356 -3.786,8.112 -1.468,3.365 1.229,3.53 3.429,3.201 4.954,-0.743 8.013,-3.94 9.239,-8.587 1.24,-4.699 2.888,-5.407 5.51,-1.061 1.334,2.211 2.991,3.457 5.074,1.611 C 12.27,11.135 8.336,11.471 8.313,9.914 8.261,6.227 3.59,1.758 11.604,-0.091 c 3.467,-0.8 3.985,-6.264 3.105,-9.937 -0.63,-2.63 -2.836,-5.278 -6.037,-5.202 C 4.849,-15.139 2.94,-12.412 2.12,-8.854 1.33,-5.427 0.483,-2.012 0,0" style="fill:#494f57;fill-opacity:1;fill-rule:nonzero;stroke:none" transform="matrix(1.3333333,0,0,-1.3333333,1120.9711,684.73747)" />
      <path id="path944" d="m 0,0 c -3.643,0.222 -3.387,2.062 -3.068,3.647 0.953,4.739 3.439,8.686 6.642,12.235 3.276,3.629 4.712,7.573 1.903,12.165 -0.123,0.201 -0.337,0.361 -0.409,0.574 -1.117,3.291 0.873,4.89 3.482,5.814 2.681,0.948 14.631,-3.349 15.081,-5.283 0.784,-3.371 -0.729,-6.046 -3.945,-6.277 C 13.877,22.459 13.175,18.987 11.307,14.29 9.08,8.693 3.637,4.375 0,0" style="fill:#494f57;fill-opacity:1;fill-rule:nonzero;stroke:none" transform="matrix(1.3333333,0,0,-1.3333333,840.43,968.48387)" />
      <path id="path945" d="m 0,0 c 1.894,0.909 3.543,1.365 4.75,2.358 1.91,1.573 3.8,1.89 5.804,0.609 1.863,-1.192 2.195,-3.479 1.479,-5.069 -1.76,-3.903 0.233,-6.41 2.071,-9.528 3.525,-5.978 1.727,-13.863 6.905,-19.572 1.553,-1.713 -1.321,-2.948 -3.102,-3.548 -1.873,-0.631 -3.549,-1.152 -4.357,1.64 -2.577,8.908 -6.04,17.665 -6.395,27.007 C 6.96,-0.982 2.027,-3.098 0,0" style="fill:#494f57;fill-opacity:1;fill-rule:nonzero;stroke:none" transform="matrix(1.3333333,0,0,-1.3333333,818.0848,991.2316)" />
      <path id="path946" d="m 0,0 c -0.032,2.32 -1.765,2.269 -3.4,2.34 -2.837,0.125 -5.963,0.577 -6.458,-3.44 -0.253,-2.057 1.44,-2.888 3.139,-3.053 C -3.571,-4.458 -1.325,-3.017 0,0 M -3.724,6.167 C -0.962,5.994 1.402,5.142 2.473,2.312 3.574,-0.596 2.234,-2.928 0.047,-4.477 c -3.883,-2.748 -8.432,-4.427 -9.434,-10.218 -0.367,-2.121 -3.539,-4.48 -5.203,0.066 -1.058,2.889 -2.293,5.228 -5.073,7.249 -2.691,1.957 -3.39,5.139 0.886,7.748 4.745,2.896 9.784,4.495 15.053,5.799" style="fill:#494f57;fill-opacity:1;fill-rule:nonzero;stroke:none" transform="matrix(1.3333333,0,0,-1.3333333,913.36667,514.72827)" />
      <path id="path947" d="m 0,0 c -1.881,0.725 -4.642,0.258 -5.157,2.77 -0.481,2.348 2.092,2.768 3.608,3.643 4.113,2.375 9.282,0.917 13.387,3.618 1.008,0.663 2.306,10e-4 2.87,-1.225 C 15.414,7.27 14.653,5.62 13.539,5.138 9.125,3.23 4.552,1.69 0,0" style="fill:#494f57;fill-opacity:1;fill-rule:nonzero;stroke:none" transform="matrix(1.3333333,0,0,-1.3333333,1014.5299,807.10653)" />
      <path id="path948" d="m 0,0 c -0.458,0.334 -1.244,0.616 -1.524,1.158 -1.843,3.58 -4.96,5.426 -8.575,6.77 -2.193,0.816 -2.541,2.709 -1.712,4.625 0.975,2.255 2.655,2.237 4.56,0.947 2.687,-1.819 6.176,-1.615 8.823,-3.959 C 4.37,7.064 2.437,4.886 2.087,2.541 1.911,1.36 1.606,0.241 0,0" style="fill:#494f57;fill-opacity:1;fill-rule:nonzero;stroke:none" transform="matrix(1.3333333,0,0,-1.3333333,888.50653,1136.7144)" />
      <path id="path949" d="m 0,0 c -2.007,-2.657 -5.043,-3.833 -8.051,-4.194 -2.533,-0.304 -4.585,1.5 -4.09,4.396 0.594,3.478 1.719,7.315 6.074,7.22 C -2.027,7.333 -1.751,3.115 0,0" style="fill:#494f57;fill-opacity:1;fill-rule:nonzero;stroke:none" transform="matrix(1.3333333,0,0,-1.3333333,1127.5243,713.92693)" />
      <path id="path950" d="M 0,0 C -3.044,-0.637 -4.341,0.434 -4.73,2.619 -5.043,4.38 -6.867,6.101 -5.445,7.897 -3.99,9.735 -2.109,8.976 -0.391,8.015 0.013,7.789 0.6,7.299 0.823,7.426 5.221,9.921 8.776,8.362 8.504,3.77 8.179,-1.711 2.052,2.091 0,0" style="fill:#494f57;fill-opacity:1;fill-rule:nonzero;stroke:none" transform="matrix(1.3333333,0,0,-1.3333333,920.42187,461.44907)" />
      <path id="path951" d="m 0,0 c -3.875,3.055 -8.292,4.649 -12.529,6.617 -2.016,0.936 -5.292,1.73 -4.333,4.679 1.095,3.365 3.934,1.056 6.064,0.71 C -4.155,10.931 -0.823,6.7 0,0" style="fill:#494f57;fill-opacity:1;fill-rule:nonzero;stroke:none" transform="matrix(1.3333333,0,0,-1.3333333,857.66467,1193.1688)" />
      <path id="path952" d="m 0,0 c -0.393,-2.443 -1.131,-4.435 0.458,-6.439 0.958,-1.21 2.14,-2.743 1.325,-4.447 -0.226,-0.474 -1.774,-0.775 -2.434,-0.494 -1.769,0.756 -3.92,2.4 -3.276,4.092 C -2.232,-2.836 -4.57,0.27 -6.322,3.791 -7.39,5.938 -7.941,8.972 -5.104,9.85 -1.831,10.863 -0.788,7.834 -0.292,5.238 0.057,3.41 -0.069,1.492 0,0" style="fill:#494f57;fill-opacity:1;fill-rule:nonzero;stroke:none" transform="matrix(1.3333333,0,0,-1.3333333,855.292,1087.6232)" />
      <path id="path953" d="m 0,0 c -5.104,-0.832 -7.794,0.644 -7.961,3.698 -0.197,3.58 3.19,5.19 6.2,5.391 C 1.742,9.324 3.992,5.858 4.302,3.398 4.769,-0.292 0.759,0.171 0,0" style="fill:#494f57;fill-opacity:1;fill-rule:nonzero;stroke:none" transform="matrix(1.3333333,0,0,-1.3333333,1136.7759,371.0424)" />
      <path id="path954" d="m 0,0 c -5.422,0.396 -8.377,-1.854 -10.196,-6.306 -0.921,-2.253 -2.857,-3.356 -5.072,-1.575 -2.09,1.682 -0.722,3.455 0.589,4.822 2.263,2.361 4.502,4.824 7.112,6.758 C -3.416,6.776 -3.837,-0.81 0,0" style="fill:#494f57;fill-opacity:1;fill-rule:nonzero;stroke:none" transform="matrix(1.3333333,0,0,-1.3333333,987.66547,828.18307)" />
      <path id="path955" d="m 0,0 c -4.099,0.521 -7.967,4.279 -9.72,-1.735 -0.463,-1.59 -2.76,-1.651 -3.997,0.123 -1.266,1.817 -1.891,3.545 -0.046,5.652 C -10.302,7.994 -4.026,6.664 0,0" style="fill:#494f57;fill-opacity:1;fill-rule:nonzero;stroke:none" transform="matrix(1.3333333,0,0,-1.3333333,1008.3909,818.83387)" />
      <path id="path956" d="M 0,0 C 3.654,-1.505 7.701,-2.999 8.701,-7.775 8.956,-8.997 7.198,-10.248 6.387,-9.451 3.244,-6.361 -2.321,-6.879 -4.283,-2.774 -5.141,-0.98 -2.265,-0.173 0,0" style="fill:#494f57;fill-opacity:1;fill-rule:nonzero;stroke:none" transform="matrix(1.3333333,0,0,-1.3333333,871.43973,1196.5509)" />
      <path id="path957" d="m 0,0 c 2.386,-1.654 3.906,-3.892 4.206,-6.79 0.249,-2.413 -0.537,-5.983 -2.573,-5.724 -3.883,0.493 -3.24,5.018 -4.163,7.91 C -3.075,-2.896 -2.151,-0.977 0,0" style="fill:#494f57;fill-opacity:1;fill-rule:nonzero;stroke:none" transform="matrix(1.3333333,0,0,-1.3333333,855.24307,1108.3077)" />
      <path id="path958" d="M 0,0 C -0.081,-1.735 -0.396,-3.424 -2.58,-3.41 -5.219,-3.394 -6.23,-1.436 -6.313,0.763 -6.386,2.705 -5.496,4.7 -3.175,4.588 -0.489,4.459 -0.058,2.234 0,0" style="fill:#494f57;fill-opacity:1;fill-rule:nonzero;stroke:none" transform="matrix(1.3333333,0,0,-1.3333333,942.14187,450.312)" />
      <path id="path959" d="m 0,0 c -2.222,-1.805 -4.503,-4.106 -7.216,-5.644 -1.103,-0.625 -1.303,1.167 -1.206,2.431 0.341,4.408 4.56,3.702 6.969,5.319 C -0.783,2.557 0.156,1.549 0,0" style="fill:#494f57;fill-opacity:1;fill-rule:nonzero;stroke:none" transform="matrix(1.3333333,0,0,-1.3333333,884.4916,936.11707)" />
      <path id="path960" d="m 0,0 c -0.129,-1.819 -0.687,-3.307 -2.883,-3.197 -2.283,0.115 -2.471,1.8 -2.426,3.541 0.039,1.568 0.618,2.779 2.421,2.829 C -0.735,3.232 -0.052,1.886 0,0" style="fill:#494f57;fill-opacity:1;fill-rule:nonzero;stroke:none" transform="matrix(1.3333333,0,0,-1.3333333,1000.9815,924.29507)" />
      <path id="path1107" d="m 0,0 c -1.325,-3.017 -3.571,-4.458 -6.719,-4.153 -1.699,0.165 -3.392,0.996 -3.139,3.053 0.495,4.017 3.621,3.565 6.458,3.44 C -1.765,2.269 -0.032,2.32 0,0" style="fill:#dedbe1;fill-opacity:1;fill-rule:nonzero;stroke:none" transform="matrix(1.3333333,0,0,-1.3333333,913.36667,514.72827)" />
      </g></svg>