<?xml version='1.0' encoding='utf-8'?>
<svg xmlns="http://www.w3.org/2000/svg" version="1.1" width="241.874" height="293.047" viewBox="767.517 3567.310 241.874 293.047"><defs id="defs1"><clipPath clipPathUnits="userSpaceOnUse" id="clipPath37">
      <path d="M 0,3370.3901 H 2383.9401 V -2.5000001e-5 H 0 Z" id="path37" />
    </clipPath>
  </defs><g id="object"><path id="path4" d="m 0,0 c 2.526,0.003 5.052,0.015 7.577,0.002 36.236,-0.19 40.152,-5.873 29.056,-42.19 -3.701,-12.112 -7.233,-24.644 1.464,-35.638 1.949,-2.463 11.613,-2.739 13.881,-0.359 10.062,10.561 5.573,23.2 2.241,35.215 -10.343,37.304 -6.454,42.697 31.391,43.081 0.842,0.009 1.684,0.01 2.526,0.016 48.709,0.35 44.882,0.875 37.922,-47.284 -5.923,-40.984 -8.106,-83.727 2.343,-125.107 7.739,-30.644 2.805,-38.145 -27.971,-38.297 -52.564,-0.258 -51.993,-0.349 -43.959,50.461 1.839,11.628 5.804,25.376 -4.109,35.845 -3.249,3.431 -10.652,3.89 -14.136,0.194 -9.901,-10.503 -5.86,-24.207 -3.988,-35.792 8.268,-51.142 8.839,-51.049 -43.754,-50.598 -30.908,0.264 -35.474,7.108 -28.28,37.869 9.696,41.454 7.861,84.09 2.22,125.22 C -42.182,0.809 -45.684,0.329 0,0" style="fill:#d7bb98;fill-opacity:1;fill-rule:nonzero;stroke:none" transform="matrix(1.3333333,0,0,-1.3333333,827.8728,3573.5621)" />
      </g></svg>