<?xml version='1.0' encoding='utf-8'?>
<svg xmlns="http://www.w3.org/2000/svg" version="1.1" width="118.933" height="178.540" viewBox="1545.860 938.324 118.933 178.540"><defs id="defs1"><clipPath clipPathUnits="userSpaceOnUse" id="clipPath46">
      <path d="M 0,3370.3901 H 2383.9401 V -2.5000001e-5 H 0 Z" id="path46" />
    </clipPath>
  </defs><g id="object"><path id="path42" d="m 0,0 c 0,15.705 -0.234,31.415 0.129,47.111 0.125,5.42 2.537,10.627 8.863,11.166 8.081,0.689 10.649,-5.158 10.799,-11.728 0.476,-20.94 1.647,-41.96 0.385,-62.818 -1.315,-21.72 7.011,-29.87 28.694,-28.894 10.865,0.489 30.672,6.475 30.942,-8.852 C 80.14,-72.652 59.691,-65.006 48.405,-65.089 -8.382,-65.502 0.126,-72.069 0,0" style="fill:#424242;fill-opacity:1;fill-rule:nonzero;stroke:none" transform="matrix(1.3333333,0,0,-1.3333333,1552.3752,1022.1004)" />
      </g></svg>