<?xml version='1.0' encoding='utf-8'?>
<svg xmlns="http://www.w3.org/2000/svg" version="1.1" width="2622.660" height="2621.110" viewBox="289.704 294.597 2622.660 2621.110"><defs id="defs1"><clipPath clipPathUnits="userSpaceOnUse" id="clipPath6">
      <path d="M 0,3370.3901 H 2383.9401 V -2.5000001e-5 H 0 Z" id="path6" />
    </clipPath>
  </defs><g id="object"><path id="path3" d="m 1039.505,2021.368 h 289.92 v 273.279 h -289.92 z m -18.827,275.451 c -19.311,0 -35.046,0.018 -50.781,0 -234.307,-0.293 -468.615,-0.592 -702.922,-0.88 -9.425,-0.012 -19.694,-2.225 -28.006,0.835 -6.582,2.425 -13.232,10.745 -14.988,17.679 -0.905,3.572 8.083,12.836 13.866,14.215 10.205,2.431 21.379,0.844 32.148,0.852 235.654,0.199 471.308,0.386 706.962,0.572 13.087,0.011 26.173,0 45.445,0 v 813.156 c 4.278,0.028 8.556,0.056 12.834,0.084 v -813.806 c 60.98,0 116.202,5.413 169.948,-1.193 94.884,-11.66 160.808,22.979 227.388,92.046 231.664,240.319 470.877,473.362 707.244,709.148 4.682,4.67 9.667,9.038 16.517,15.415 7.862,-7.325 15.087,-14.056 23.442,-21.84 -109.093,-109.395 -216.325,-217.112 -323.767,-324.619 -156.067,-156.163 -312.633,-311.834 -467.782,-468.903 -12.417,-12.57 -21.455,-34.19 -21.927,-51.875 -2.255,-84.491 -1.01,-169.074 -1.01,-260.767 h 814.399 c 0.01,-4.507 0.012,-9.015 0.018,-13.522 H 1365.21 c 0,-21.993 0,-37.713 -10e-4,-53.432 -0.063,-242.388 -0.054,-484.775 -0.334,-727.162 -0.021,-18.612 5.771,-44.616 -32.311,-30.85 v 807.383 c -15.467,0.959 -28.27,2.381 -41.079,2.444 -72.715,0.357 -145.471,-0.952 -218.129,1.178 -29.761,0.872 -50.188,-9.632 -70.364,-30.245 C 757.207,1721.61 510.787,1471.109 264.46,1220.518 c -10.76,-10.946 -22.204,-21.219 -33.329,-31.805 -3.118,2.765 -6.235,5.53 -9.353,8.295 8.177,10.107 15.572,20.982 24.644,30.209 248.226,252.47 496.429,504.966 745.358,756.742 20.274,20.505 30.569,40.414 29.687,70.362 -2.33,79.034 -0.789,158.182 -0.789,242.498" style="fill:#231916;fill-opacity:1;fill-rule:nonzero;stroke:none" transform="matrix(1.3333333,0,0,-1.3333333,0,4493.8533)" />
      </g></svg>