<?xml version='1.0' encoding='utf-8'?>
<svg xmlns="http://www.w3.org/2000/svg" version="1.1" width="179.831" height="334.646" viewBox="1818.450 3420.750 179.831 334.646"><g id="object"><path id="path5" d="m 0,0 c -14.509,1.656 -26.372,3.01 -38.962,4.448 v 27.925 c 12.62,0.923 23.839,1.744 37.569,2.749 0.908,16.034 1.804,31.868 2.787,49.227 H 34.285 C 35.408,68.683 36.541,52.885 37.818,35.08 53.552,34.302 68.703,33.553 85.295,32.732 V 3.693 C 70.087,2.701 54.961,1.714 37.842,0.598 c 0,-35.717 -2.552,-70.776 0.814,-105.258 2.655,-27.199 27.892,-17.929 45.161,-19.335 6.709,-29.514 4.26,-32.735 -25.08,-33.574 -41.01,-1.173 -57.221,13.111 -58.517,54.214 C -0.855,-69.245 0,-35.073 0,0" style="fill:#ffffff;fill-opacity:1;fill-rule:nonzero;stroke:none" transform="matrix(1.3333333,0,0,-1.3333333,1876.3992,3539.2123)" />
      </g></svg>