<?xml version='1.0' encoding='utf-8'?>
<svg xmlns="http://www.w3.org/2000/svg" version="1.1" width="2348.640" height="374.406" viewBox="357.547 3951.110 2348.640 374.406"><g id="object"><path id="path9" d="M 18.84495,-3.140625e-4 V -17.215158 L 32.403544,-40.44172 h -5.941407 l -5.824218,11.15625 c -1.558594,3.070312 -2.941407,5.707031 -4.078125,8.34375 h -0.117188 c -1.265625,-2.824219 -2.460937,-5.273438 -4.019531,-8.34375 L 6.7160437,-40.44172 H 0.78635625 L 13.559794,-17.156564 V -3.140625e-4 Z M 44.576395,-29.695627 c -8.039062,0 -14.390625,5.695313 -14.390625,15.410157 0,9.1874997 6.058594,14.94140594 13.910157,14.94140594 7.019531,0 14.460937,-4.67578124 14.460937,-15.42187494 0,-8.871094 -5.636719,-14.929688 -13.980469,-14.929688 z m -0.117187,3.960938 c 6.246094,0 8.707031,6.234375 8.707031,11.15625 0,6.5390624 -3.785156,11.2734374 -8.824219,11.2734374 -5.15625,0 -8.824218,-4.7929687 -8.824218,-11.1562504 0,-5.519531 2.707031,-11.273437 8.941406,-11.273437 z m 45.055664,-3.304688 h -5.273438 v 17.824219 c 0,0.949219 -0.1875,1.9101564 -0.480468,2.6953127 -0.960938,2.34375 -3.421875,4.8046875 -6.960938,4.8046875 -4.804687,0 -6.480469,-3.7265625 -6.480469,-9.2460942 v -16.078125 h -5.285156 v 16.980469 c 0,10.1953127 5.460938,12.71484394 10.019531,12.71484394 5.167969,0 8.226563,-3.05859374 9.609375,-5.39062504 h 0.117188 l 0.292969,4.7343750375 h 4.6875 C 89.573466,-2.2854703 89.514872,-4.9221891 89.514872,-7.9221891 Z m 9.963867,-6.960937 v 6.960937 h -4.5 v 4.019532 h 4.5 v 15.8437497 c 0,3.4101562 0.539061,6 2.039061,7.5585937 1.26563,1.44140629 3.2461,2.21484379 5.70703,2.21484379 2.03907,0 3.65625,-0.29296875 4.67578,-0.71484375 l -0.23437,-3.96093754 c -0.66797,0.1757813 -1.6875,0.3632813 -3.07031,0.3632813 -2.92969,0 -3.96094,-2.0507813 -3.96094,-5.6484375 V -25.019845 h 7.57031 v -4.019532 h -7.57031 v -8.34375 z M 118.14378,-3.140625e-4 h 5.27344 V -17.519845 c 0,-1.019532 0.0586,-1.804688 0.36328,-2.519532 0.96093,-2.882812 3.65625,-5.285156 7.07812,-5.285156 4.98047,0 6.72656,3.960938 6.72656,8.648438 V -3.140625e-4 h 5.27344 V -17.28547 c 0,-10.019532 -6.23437,-12.410157 -10.13672,-12.410157 -1.98047,0 -3.84375,0.597657 -5.40234,1.5 -1.61719,0.890625 -2.94141,2.214844 -3.77344,3.714844 h -0.1289 V -42.59797 h -5.27344 z m 51.29297,0 V -29.039377 h -5.27344 V -3.140625e-4 Z M 166.80003,-40.500314 c -1.92188,0 -3.30469,1.441406 -3.30469,3.304687 0,1.792969 1.32422,3.234375 3.1875,3.234375 2.09766,0 3.42188,-1.441406 3.36328,-3.234375 0,-1.863281 -1.26562,-3.304687 -3.24609,-3.304687 z m 9.36328,39.1171874 c 2.03906,1.20703129 4.98047,1.98046879 8.15625,1.98046879 6.90234,0 10.86328,-3.59765629 10.86328,-8.69531249 0,-4.3242187 -2.57812,-6.8437497 -7.62891,-8.7656247 -3.77343,-1.441407 -5.51953,-2.519532 -5.51953,-4.921875 0,-2.15625 1.7461,-3.949219 4.86328,-3.949219 2.70704,0 4.80469,0.949219 5.94141,1.675781 l 1.32422,-3.84375 c -1.62891,-0.960937 -4.20703,-1.792969 -7.14844,-1.792969 -6.23437,0 -10.01953,3.832032 -10.01953,8.519532 0,3.480468 2.46094,6.351562 7.6875,8.214843 3.90234,1.441407 5.40234,2.824219 5.40234,5.3437504 0,2.4023438 -1.80468,4.3125 -5.64843,4.3125 -2.63672,0 -5.40235,-1.078125 -6.96094,-2.0976562 z m 38.51953,1.3828125375 h 5.27344 V -17.461252 c 0,-0.902343 0.1289,-1.804687 0.36328,-2.460937 0.90234,-2.941406 3.59766,-5.402344 7.07812,-5.402344 4.98047,0 6.72657,3.902344 6.72657,8.589844 V -3.140625e-4 h 5.27343 V -17.344064 c 0,-9.960938 -6.23437,-12.351563 -10.2539,-12.351563 -4.80469,0 -8.16797,2.695313 -9.60938,5.460938 h -0.11718 l -0.29297,-4.804688 h -4.6875 c 0.1875,2.402344 0.24609,4.863282 0.24609,7.863282 z M 260.27464,-29.695627 c -8.03907,0 -14.39063,5.695313 -14.39063,15.410157 0,9.1874997 6.0586,14.94140594 13.91016,14.94140594 7.01953,0 14.46094,-4.67578124 14.46094,-15.42187494 0,-8.871094 -5.63672,-14.929688 -13.98047,-14.929688 z m -0.11719,3.960938 c 6.24609,0 8.70703,6.234375 8.70703,11.15625 0,6.5390624 -3.78516,11.2734374 -8.82422,11.2734374 -5.15625,0 -8.82422,-4.7929687 -8.82422,-11.1562504 0,-5.519531 2.70703,-11.273437 8.94141,-11.273437 z m 21.96094,-10.265625 v 6.960937 h -4.5 v 4.019532 h 4.5 v 15.8437497 c 0,3.4101562 0.53906,6 2.03906,7.5585937 1.26562,1.44140629 3.24609,2.21484379 5.70703,2.21484379 2.03906,0 3.65625,-0.29296875 4.67578,-0.71484375 l -0.23437,-3.96093754 c -0.66797,0.1757813 -1.6875,0.3632813 -3.07032,0.3632813 -2.92968,0 -3.96093,-2.0507813 -3.96093,-5.6484375 V -25.019845 h 7.57031 v -4.019532 h -7.57031 v -8.34375 z M 334.38694,-3.140625e-4 C 334.02366,-1.9807828 333.90647,-4.4417203 333.90647,-6.9612516 V -17.824533 c 0,-5.8125 -2.16797,-11.871094 -11.05078,-11.871094 -3.65625,0 -7.13672,1.019532 -9.53906,2.578125 l 1.20703,3.480469 c 2.03906,-1.324219 4.86328,-2.167969 7.55859,-2.167969 5.94141,0 6.59766,4.324219 6.59766,6.726563 v 0.597656 c -11.21484,-0.05859 -17.46094,3.785156 -17.46094,10.8046877 0,4.1953125 3,8.33203124 8.88282,8.33203124 4.13671,0 7.2539,-2.03906254 8.88281,-4.31250004 h 0.17578 l 0.42187,3.6562500375 z M 328.7971,-9.7854703 c 0,0.5507812 -0.11719,1.1484375 -0.29297,1.6875 -0.84375,2.4609375 -3.24609,4.8632812 -7.01953,4.8632812 -2.70703,0 -4.98047,-1.6289062 -4.98047,-5.0507812 0,-5.6367187 6.53906,-6.6562497 12.29297,-6.5390627 z m 27.54199,-26.2148437 v 6.960937 h -4.5 v 4.019532 h 4.5 v 15.8437497 c 0,3.4101562 0.53906,6 2.03906,7.5585937 1.26563,1.44140629 3.2461,2.21484379 5.70703,2.21484379 2.03907,0 3.65625,-0.29296875 4.67579,-0.71484375 l -0.23438,-3.96093754 c -0.66797,0.1757813 -1.6875,0.3632813 -3.07031,0.3632813 -2.92969,0 -3.96094,-2.0507813 -3.96094,-5.6484375 V -25.019845 h 7.57031 v -4.019532 h -7.57031 v -8.34375 z M 380.27757,-3.140625e-4 V -29.039377 h -5.27344 V -3.140625e-4 Z M 377.64085,-40.500314 c -1.92188,0 -3.30469,1.441406 -3.30469,3.304687 0,1.792969 1.32422,3.234375 3.1875,3.234375 2.09766,0 3.42188,-1.441406 3.36328,-3.234375 0,-1.863281 -1.26562,-3.304687 -3.24609,-3.304687 z m 11.40234,40.4999999375 h 5.15625 V -17.519845 c 0,-0.902344 0.11719,-1.804688 0.42188,-2.578125 0.84375,-2.636719 3.23437,-5.285157 6.53906,-5.285157 4.01953,0 6.05859,3.363282 6.05859,7.980469 V -3.140625e-4 h 5.15625 V -17.94172 c 0,-0.960938 0.1875,-1.921875 0.42188,-2.636719 0.90234,-2.578125 3.24609,-4.804688 6.24609,-4.804688 4.25391,0 6.29297,3.363282 6.29297,8.941407 V -3.140625e-4 h 5.16797 V -17.09797 c 0,-10.078125 -5.70703,-12.597657 -9.53906,-12.597657 -2.76563,0 -4.6875,0.714844 -6.42188,2.039063 -1.20703,0.890625 -2.34375,2.15625 -3.24609,3.773437 h -0.11719 c -1.25391,-3.421875 -4.25391,-5.8125 -8.21484,-5.8125 -4.80469,0 -7.5,2.578125 -9.12891,5.332032 h -0.17578 l -0.23438,-4.675782 h -4.6289 c 0.1875,2.402344 0.24609,4.863282 0.24609,7.863282 z M 462.41429,-13.558908 c 0.0703,-0.539062 0.1875,-1.382812 0.1875,-2.460937 0,-5.34375 -2.51954,-13.675782 -12,-13.675782 -8.46094,0 -13.61719,6.890625 -13.61719,15.65625 0,8.7539067 5.33203,14.63671919 14.27344,14.63671919 4.61718,0 7.80468,-0.9609375 9.65625,-1.79296879 l -0.89063,-3.7851562 c -1.98047,0.84375 -4.26562,1.5 -8.03906,1.5 -5.28516,0 -9.84375,-2.9414063 -9.96094,-10.0781252 z m -20.33204,-3.785156 c 0.42188,-3.65625 2.75391,-8.578125 8.09766,-8.578125 5.94141,0 7.38281,5.226562 7.32422,8.578125 z m 52.07227,-12.351563 c -8.03906,0 -14.39062,5.695313 -14.39062,15.410157 0,9.1874997 6.05859,14.94140594 13.91015,14.94140594 7.01953,0 14.46094,-4.67578124 14.46094,-15.42187494 0,-8.871094 -5.63672,-14.929688 -13.98047,-14.929688 z m -0.11719,3.960938 c 6.2461,0 8.70703,6.234375 8.70703,11.15625 0,6.5390624 -3.78515,11.2734374 -8.82421,11.2734374 -5.15625,0 -8.82422,-4.7929687 -8.82422,-11.1562504 0,-5.519531 2.70703,-11.273437 8.9414,-11.273437 z M 520.55686,-3.140625e-4 V -25.019845 h 7.01954 v -4.019532 h -7.01954 v -1.558593 c 0,-4.441407 1.14844,-8.402344 5.64844,-8.402344 1.5,0 2.57813,0.304687 3.35156,0.65625 l 0.72657,-4.078125 c -1.01953,-0.421875 -2.64844,-0.84375 -4.5,-0.84375 -2.46094,0 -5.09766,0.785156 -7.07813,2.707031 -2.46094,2.34375 -3.36328,6.058594 -3.36328,10.136719 v 1.382812 h -4.07812 v 4.019532 h 4.07812 V -3.140625e-4 Z m 24.48633,0 h 5.27344 V -42.59797 h -5.27344 z m 19.43262,0 V -29.039377 h -5.27344 V -3.140625e-4 Z M 561.83909,-40.500314 c -1.92187,0 -3.30469,1.441406 -3.30469,3.304687 0,1.792969 1.32422,3.234375 3.1875,3.234375 2.09766,0 3.42188,-1.441406 3.36328,-3.234375 0,-1.863281 -1.26562,-3.304687 -3.24609,-3.304687 z M 578.99534,-3.140625e-4 V -25.019845 h 7.01953 v -4.019532 h -7.01953 v -1.558593 c 0,-4.441407 1.14844,-8.402344 5.64844,-8.402344 1.5,0 2.57812,0.304687 3.35156,0.65625 l 0.72656,-4.078125 c -1.01953,-0.421875 -2.64843,-0.84375 -4.5,-0.84375 -2.46093,0 -5.09765,0.785156 -7.07812,2.707031 -2.46094,2.34375 -3.36328,6.058594 -3.36328,10.136719 v 1.382812 h -4.07813 v 4.019532 h 4.07813 V -3.140625e-4 Z M 613.3137,-13.558908 c 0.0703,-0.539062 0.1875,-1.382812 0.1875,-2.460937 0,-5.34375 -2.51953,-13.675782 -12,-13.675782 -8.46094,0 -13.61719,6.890625 -13.61719,15.65625 0,8.7539067 5.33203,14.63671919 14.27344,14.63671919 4.61719,0 7.80469,-0.9609375 9.65625,-1.79296879 l -0.89063,-3.7851562 c -1.98046,0.84375 -4.26562,1.5 -8.03906,1.5 -5.28515,0 -9.84375,-2.9414063 -9.96094,-10.0781252 z m -20.33203,-3.785156 c 0.42187,-3.65625 2.7539,-8.578125 8.09765,-8.578125 5.94141,0 7.38282,5.226562 7.32422,8.578125 z m 27.35449,24.3632812 c 1.6875,-2.8242188 4.32422,-9.4804688 5.76563,-14.578125 l -5.82422,0.5976562 c -0.65625,4.3828125 -2.27344,10.8046875 -3.59766,14.34375 z m 2.46094,-27.5390622 c 2.16797,0 3.53906,-1.617188 3.53906,-3.714844 0,-2.226563 -1.37109,-3.785156 -3.53906,-3.785156 -2.03906,0 -3.53906,1.558593 -3.53906,3.785156 0,2.097656 1.4414,3.714844 3.53906,3.714844 z M 650.45628,-3.140625e-4 V -29.039377 h -5.27344 V -3.140625e-4 Z M 647.81956,-40.500314 c -1.92188,0 -3.30469,1.441406 -3.30469,3.304687 0,1.792969 1.32422,3.234375 3.1875,3.234375 2.09766,0 3.42188,-1.441406 3.36328,-3.234375 0,-1.863281 -1.26562,-3.304687 -3.24609,-3.304687 z m 12.59766,4.5 v 6.960937 h -4.5 v 4.019532 h 4.5 v 15.8437497 c 0,3.4101562 0.53906,6 2.03906,7.5585937 1.26562,1.44140629 3.24609,2.21484379 5.70703,2.21484379 2.03906,0 3.65625,-0.29296875 4.67578,-0.71484375 l -0.23437,-3.96093754 c -0.66797,0.1757813 -1.6875,0.3632813 -3.07032,0.3632813 -2.92968,0 -3.96093,-2.0507813 -3.96093,-5.6484375 V -25.019845 h 7.57031 v -4.019532 h -7.57031 v -8.34375 z M 697.0764,-3.140625e-4 V -29.039377 h -5.27344 V -3.140625e-4 Z M 694.43968,-40.500314 c -1.92188,0 -3.30469,1.441406 -3.30469,3.304687 0,1.792969 1.32422,3.234375 3.1875,3.234375 2.09766,0 3.42187,-1.441406 3.36328,-3.234375 0,-1.863281 -1.26562,-3.304687 -3.24609,-3.304687 z m 9.36328,39.1171874 c 2.03906,1.20703129 4.98047,1.98046879 8.15625,1.98046879 6.90234,0 10.86328,-3.59765629 10.86328,-8.69531249 0,-4.3242187 -2.57813,-6.8437497 -7.62891,-8.7656247 -3.77343,-1.441407 -5.51953,-2.519532 -5.51953,-4.921875 0,-2.15625 1.7461,-3.949219 4.86328,-3.949219 2.70703,0 4.80469,0.949219 5.94141,1.675781 l 1.32422,-3.84375 c -1.62891,-0.960937 -4.20703,-1.792969 -7.14844,-1.792969 -6.23437,0 -10.01953,3.832032 -10.01953,8.519532 0,3.480468 2.46094,6.351562 7.6875,8.214843 3.90234,1.441407 5.40234,2.824219 5.40234,5.3437504 0,2.4023438 -1.80468,4.3125 -5.64843,4.3125 -2.63672,0 -5.40235,-1.078125 -6.96094,-2.0976562 z M 763.2053,-3.140625e-4 C 762.84202,-1.9807828 762.72483,-4.4417203 762.72483,-6.9612516 V -17.824533 c 0,-5.8125 -2.16797,-11.871094 -11.05078,-11.871094 -3.65625,0 -7.13672,1.019532 -9.53906,2.578125 l 1.20703,3.480469 c 2.03906,-1.324219 4.86328,-2.167969 7.55859,-2.167969 5.94141,0 6.59766,4.324219 6.59766,6.726563 v 0.597656 c -11.21484,-0.05859 -17.46094,3.785156 -17.46094,10.8046877 0,4.1953125 3,8.33203124 8.88282,8.33203124 4.13671,0 7.2539,-2.03906254 8.88281,-4.31250004 h 0.17578 l 0.42187,3.6562500375 z M 757.61546,-9.7854703 c 0,0.5507812 -0.11719,1.1484375 -0.29297,1.6875 -0.84375,2.4609375 -3.24609,4.8632812 -7.01953,4.8632812 -2.70703,0 -4.98047,-1.6289062 -4.98047,-5.0507812 0,-5.6367187 6.53906,-6.6562497 12.29297,-6.5390627 z m 24.30761,8.4023437 c 2.03907,1.20703129 4.98047,1.98046879 8.15625,1.98046879 6.90235,0 10.86329,-3.59765629 10.86329,-8.69531249 0,-4.3242187 -2.57813,-6.8437497 -7.62891,-8.7656247 -3.77344,-1.441407 -5.51953,-2.519532 -5.51953,-4.921875 0,-2.15625 1.74609,-3.949219 4.86328,-3.949219 2.70703,0 4.80469,0.949219 5.94141,1.675781 l 1.32421,-3.84375 c -1.6289,-0.960937 -4.20703,-1.792969 -7.14843,-1.792969 -6.23438,0 -10.01953,3.832032 -10.01953,8.519532 0,3.480468 2.46093,6.351562 7.6875,8.214843 3.90234,1.441407 5.40234,2.824219 5.40234,5.3437504 0,2.4023438 -1.80469,4.3125 -5.64844,4.3125 -2.63672,0 -5.40234,-1.078125 -6.96094,-2.0976562 z m 26.99415,-34.6171874 v 6.960937 h -4.5 v 4.019532 h 4.5 v 15.8437497 c 0,3.4101562 0.53906,6 2.03906,7.5585937 1.26562,1.44140629 3.24609,2.21484379 5.70703,2.21484379 2.03906,0 3.65625,-0.29296875 4.67578,-0.71484375 l -0.23437,-3.96093754 c -0.66797,0.1757813 -1.6875,0.3632813 -3.07032,0.3632813 -2.92968,0 -3.96093,-2.0507813 -3.96093,-5.6484375 V -25.019845 h 7.57031 v -4.019532 h -7.57031 v -8.34375 z M 848.46507,-3.140625e-4 C 848.10179,-1.9807828 847.9846,-4.4417203 847.9846,-6.9612516 V -17.824533 c 0,-5.8125 -2.16797,-11.871094 -11.05078,-11.871094 -3.65625,0 -7.13672,1.019532 -9.53907,2.578125 l 1.20704,3.480469 c 2.03906,-1.324219 4.86328,-2.167969 7.55859,-2.167969 5.94141,0 6.59766,4.324219 6.59766,6.726563 v 0.597656 c -11.21485,-0.05859 -17.46094,3.785156 -17.46094,10.8046877 0,4.1953125 3,8.33203124 8.88281,8.33203124 4.13672,0 7.25391,-2.03906254 8.88281,-4.31250004 h 0.17578 l 0.42188,3.6562500375 z M 842.87522,-9.7854703 c 0,0.5507812 -0.11718,1.1484375 -0.29297,1.6875 -0.84375,2.4609375 -3.24609,4.8632812 -7.01953,4.8632812 -2.70703,0 -4.98047,-1.6289062 -4.98047,-5.0507812 0,-5.6367187 6.53907,-6.6562497 12.29297,-6.5390627 z m 14.58399,-26.2148437 v 6.960937 h -4.5 v 4.019532 h 4.5 v 15.8437497 c 0,3.4101562 0.53906,6 2.03906,7.5585937 1.26563,1.44140629 3.24609,2.21484379 5.70703,2.21484379 2.03906,0 3.65625,-0.29296875 4.67578,-0.71484375 l -0.23437,-3.96093754 c -0.66797,0.1757813 -1.6875,0.3632813 -3.07031,0.3632813 -2.92969,0 -3.96094,-2.0507813 -3.96094,-5.6484375 V -25.019845 h 7.57031 v -4.019532 h -7.57031 v -8.34375 z m 41.63672,22.441406 c 0.0703,-0.539062 0.1875,-1.382812 0.1875,-2.460937 0,-5.34375 -2.51953,-13.675782 -12,-13.675782 -8.46094,0 -13.61719,6.890625 -13.61719,15.65625 0,8.7539067 5.33203,14.63671919 14.27344,14.63671919 4.61718,0 7.80468,-0.9609375 9.65625,-1.79296879 l -0.89063,-3.7851562 c -1.98047,0.84375 -4.26562,1.5 -8.03906,1.5 -5.28516,0 -9.84375,-2.9414063 -9.96094,-10.0781252 z m -20.33203,-3.785156 c 0.42187,-3.65625 2.7539,-8.578125 8.09765,-8.578125 5.94141,0 7.38281,5.226562 7.32422,8.578125 z m 52.07226,-12.351563 c -8.03906,0 -14.39062,5.695313 -14.39062,15.410157 0,9.1874997 6.05859,14.94140594 13.91015,14.94140594 7.01953,0 14.46094,-4.67578124 14.46094,-15.42187494 0,-8.871094 -5.63672,-14.929688 -13.98047,-14.929688 z m -0.11719,3.960938 c 6.2461,0 8.70703,6.234375 8.70703,11.15625 0,6.5390624 -3.78515,11.2734374 -8.82421,11.2734374 -5.15625,0 -8.82422,-4.7929687 -8.82422,-11.1562504 0,-5.519531 2.70703,-11.273437 8.9414,-11.273437 z m 26.5166,25.7343749375 V -25.019845 h 7.01954 v -4.019532 h -7.01954 v -1.558593 c 0,-4.441407 1.14844,-8.402344 5.64844,-8.402344 1.5,0 2.57813,0.304687 3.35156,0.65625 l 0.72657,-4.078125 c -1.01953,-0.421875 -2.64844,-0.84375 -4.5,-0.84375 -2.46094,0 -5.09766,0.785156 -7.07813,2.707031 -2.46094,2.34375 -3.36328,6.058594 -3.36328,10.136719 v 1.382812 h -4.07812 v 4.019532 h 4.07812 V -3.140625e-4 Z m 24.48633,0 h 5.15625 V -17.519845 c 0,-0.902344 0.11719,-1.804688 0.42188,-2.578125 0.84375,-2.636719 3.23437,-5.285157 6.53906,-5.285157 4.01953,0 6.05859,3.363282 6.05859,7.980469 V -3.140625e-4 h 5.15622 V -17.94172 c 0,-0.960938 0.1875,-1.921875 0.4219,-2.636719 0.9024,-2.578125 3.2461,-4.804688 6.2461,-4.804688 4.2539,0 6.293,3.363282 6.293,8.941407 V -3.140625e-4 h 5.1679 V -17.09797 c 0,-10.078125 -5.707,-12.597657 -9.539,-12.597657 -2.7656,0 -4.6875,0.714844 -6.4219,2.039063 -1.207,0.890625 -2.3437,2.15625 -3.2461,3.773437 h -0.1172 c -1.2539,-3.421875 -4.25388,-5.8125 -8.21482,-5.8125 -4.80469,0 -7.5,2.578125 -9.12891,5.332032 h -0.17578 l -0.23437,-4.675782 h -4.62891 c 0.1875,2.402344 0.24609,4.863282 0.24609,7.863282 z m 55.3154,0 V -29.039377 h -5.2734 V -3.140625e-4 Z M 1034.4006,-40.500314 c -1.9219,0 -3.3047,1.441406 -3.3047,3.304687 0,1.792969 1.3242,3.234375 3.1875,3.234375 2.0977,0 3.4219,-1.441406 3.3633,-3.234375 0,-1.863281 -1.2656,-3.304687 -3.2461,-3.304687 z m 11.4024,40.4999999375 h 5.2734 V -17.461252 c 0,-0.902343 0.1289,-1.804687 0.3633,-2.460937 0.9023,-2.941406 3.5976,-5.402344 7.0781,-5.402344 4.9805,0 6.7266,3.902344 6.7266,8.589844 V -3.140625e-4 h 5.2734 V -17.344064 c 0,-9.960938 -6.2344,-12.351563 -10.2539,-12.351563 -4.8047,0 -8.168,2.695313 -9.6094,5.460938 h -0.1172 l -0.2929,-4.804688 h -4.6875 c 0.1875,2.402344 0.2461,4.863282 0.2461,7.863282 z M 1098.8948,-42.59797 v 17.332031 h -0.1172 c -1.3243,-2.332031 -4.3243,-4.429688 -8.7539,-4.429688 -7.0899,0 -13.0899,5.929688 -13.0196,15.597657 0,8.8124997 5.3907,14.75390594 12.4102,14.75390594 4.7461,0 8.2851,-2.46093754 9.9023,-5.69531254 h 0.1172 l 0.2461,5.0390625375 h 4.7344 C 1104.2385,-1.9807828 1104.1799,-4.9221891 1104.1799,-7.5003141 V -42.59797 Z m 0,30.421875 c 0,0.832031 -0.059,1.558593 -0.2344,2.2734372 -0.961,3.9609375 -4.2071,6.3046875 -7.7461,6.3046875 -5.6953,0 -8.5781,-4.8632813 -8.5781,-10.7460937 0,-6.421875 3.2461,-11.214844 8.707,-11.214844 3.9609,0 6.832,2.753906 7.6172,6.117188 0.1758,0.65625 0.2344,1.558593 0.2344,2.226562 z m 14.3408,19.1953122 c 1.6875,-2.8242188 4.3242,-9.4804688 5.7656,-14.578125 l -5.8242,0.5976562 c -0.6563,4.3828125 -2.2735,10.8046875 -3.5977,14.34375 z m 2.4609,-27.5390622 c 2.168,0 3.5391,-1.617188 3.5391,-3.714844 0,-2.226563 -1.3711,-3.785156 -3.5391,-3.785156 -2.039,0 -3.539,1.558593 -3.539,3.785156 0,2.097656 1.4414,3.714844 3.539,3.714844 z m 27.6592,20.5195309375 V -29.039377 h -5.2734 V -3.140625e-4 Z M 1140.719,-40.500314 c -1.9219,0 -3.3047,1.441406 -3.3047,3.304687 0,1.792969 1.3242,3.234375 3.1875,3.234375 2.0976,0 3.4219,-1.441406 3.3633,-3.234375 0,-1.863281 -1.2657,-3.304687 -3.2461,-3.304687 z m 12.6006,4.5 v 6.960937 h -4.5 v 4.019532 h 4.5 v 15.8437497 c 0,3.4101562 0.539,6 2.039,7.5585937 1.2656,1.44140629 3.2461,2.21484379 5.7071,2.21484379 2.039,0 3.6562,-0.29296875 4.6757,-0.71484375 l -0.2343,-3.96093754 c -0.668,0.1757813 -1.6875,0.3632813 -3.0704,0.3632813 -2.9296,0 -3.9609,-2.0507813 -3.9609,-5.6484375 V -25.019845 h 7.5703 v -4.019532 h -7.5703 v -8.34375 z m 36.6562,35.9999999375 V -29.039377 h -5.2734 V -3.140625e-4 Z M 1187.3391,-40.500314 c -1.9219,0 -3.3047,1.441406 -3.3047,3.304687 0,1.792969 1.3242,3.234375 3.1875,3.234375 2.0977,0 3.4219,-1.441406 3.3633,-3.234375 0,-1.863281 -1.2656,-3.304687 -3.2461,-3.304687 z m 9.3633,39.1171874 c 2.039,1.20703129 4.9804,1.98046879 8.1562,1.98046879 6.9024,0 10.8633,-3.59765629 10.8633,-8.69531249 0,-4.3242187 -2.5781,-6.8437497 -7.6289,-8.7656247 -3.7734,-1.441407 -5.5195,-2.519532 -5.5195,-4.921875 0,-2.15625 1.7461,-3.949219 4.8632,-3.949219 2.7071,0 4.8047,0.949219 5.9415,1.675781 l 1.3242,-3.84375 c -1.6289,-0.960937 -4.2071,-1.792969 -7.1485,-1.792969 -6.2343,0 -10.0195,3.832032 -10.0195,8.519532 0,3.480468 2.4609,6.351562 7.6875,8.214843 3.9023,1.441407 5.4023,2.824219 5.4023,5.3437504 0,2.4023438 -1.8046,4.3125 -5.6484,4.3125 -2.6367,0 -5.4023,-1.078125 -6.9609,-2.0976562 z m 38.5195,1.3828125375 h 5.2734 V -17.461252 c 0,-0.902343 0.1289,-1.804687 0.3633,-2.460937 0.9024,-2.941406 3.5977,-5.402344 7.0781,-5.402344 4.9805,0 6.7266,3.902344 6.7266,8.589844 V -3.140625e-4 h 5.2734 V -17.344064 c 0,-9.960938 -6.2343,-12.351563 -10.2539,-12.351563 -4.8046,0 -8.1679,2.695313 -9.6093,5.460938 h -0.1172 l -0.293,-4.804688 h -4.6875 c 0.1875,2.402344 0.2461,4.863282 0.2461,7.863282 z M 1280.8166,-29.695627 c -8.039,0 -14.3906,5.695313 -14.3906,15.410157 0,9.1874997 6.0586,14.94140594 13.9102,14.94140594 7.0195,0 14.4609,-4.67578124 14.4609,-15.42187494 0,-8.871094 -5.6367,-14.929688 -13.9805,-14.929688 z m -0.1172,3.960938 c 6.2461,0 8.7071,6.234375 8.7071,11.15625 0,6.5390624 -3.7852,11.2734374 -8.8242,11.2734374 -5.1563,0 -8.8243,-4.7929687 -8.8243,-11.1562504 0,-5.519531 2.7071,-11.273437 8.9414,-11.273437 z m 21.9581,-10.265625 v 6.960937 h -4.5 v 4.019532 h 4.5 v 15.8437497 c 0,3.4101562 0.539,6 2.039,7.5585937 1.2656,1.44140629 3.2461,2.21484379 5.707,2.21484379 2.0391,0 3.6563,-0.29296875 4.6758,-0.71484375 l -0.2343,-3.96093754 c -0.668,0.1757813 -1.6875,0.3632813 -3.0704,0.3632813 -2.9296,0 -3.9609,-2.0507813 -3.9609,-5.6484375 V -25.019845 h 7.5703 v -4.019532 h -7.5703 v -8.34375 z M 1354.926,-3.140625e-4 C 1354.5627,-1.9807828 1354.4455,-4.4417203 1354.4455,-6.9612516 V -17.824533 c 0,-5.8125 -2.1679,-11.871094 -11.0507,-11.871094 -3.6563,0 -7.1368,1.019532 -9.5391,2.578125 l 1.207,3.480469 c 2.0391,-1.324219 4.8633,-2.167969 7.5586,-2.167969 5.9414,0 6.5977,4.324219 6.5977,6.726563 v 0.597656 c -11.2149,-0.05859 -17.461,3.785156 -17.461,10.8046877 0,4.1953125 3,8.33203124 8.8828,8.33203124 4.1368,0 7.254,-2.03906254 8.8829,-4.31250004 h 0.1757 l 0.4219,3.6562500375 z M 1349.3362,-9.7854703 c 0,0.5507812 -0.1172,1.1484375 -0.293,1.6875 -0.8438,2.4609375 -3.2461,4.8632812 -7.0195,4.8632812 -2.7071,0 -4.9805,-1.6289062 -4.9805,-5.0507812 0,-5.6367187 6.5391,-6.6562497 12.293,-6.5390627 z m 26.3466,9.7851562375 h 5.1563 V -17.519845 c 0,-0.902344 0.1172,-1.804688 0.4219,-2.578125 0.8437,-2.636719 3.2343,-5.285157 6.539,-5.285157 4.0196,0 6.0586,3.363282 6.0586,7.980469 V -3.140625e-4 h 5.1563 V -17.94172 c 0,-0.960938 0.1875,-1.921875 0.4218,-2.636719 0.9024,-2.578125 3.2461,-4.804688 6.2461,-4.804688 4.2539,0 6.293,3.363282 6.293,8.941407 V -3.140625e-4 h 5.168 V -17.09797 c 0,-10.078125 -5.7071,-12.597657 -9.5391,-12.597657 -2.7656,0 -4.6875,0.714844 -6.4219,2.039063 -1.207,0.890625 -2.3437,2.15625 -3.2461,3.773437 h -0.1171 c -1.2539,-3.421875 -4.2539,-5.8125 -8.2149,-5.8125 -4.8047,0 -7.5,2.578125 -9.1289,5.332032 H 1380.3 l -0.2343,-4.675782 h -4.629 c 0.1875,2.402344 0.2461,4.863282 0.2461,7.863282 z m 70.9219,0 C 1446.2414,-1.9807828 1446.1242,-4.4417203 1446.1242,-6.9612516 V -17.824533 c 0,-5.8125 -2.1679,-11.871094 -11.0507,-11.871094 -3.6563,0 -7.1368,1.019532 -9.5391,2.578125 l 1.207,3.480469 c 2.0391,-1.324219 4.8633,-2.167969 7.5586,-2.167969 5.9414,0 6.5977,4.324219 6.5977,6.726563 v 0.597656 c -11.2149,-0.05859 -17.461,3.785156 -17.461,10.8046877 0,4.1953125 3,8.33203124 8.8829,8.33203124 4.1367,0 7.2539,-2.03906254 8.8828,-4.31250004 h 0.1758 L 1441.8,-3.140625e-4 Z M 1441.0149,-9.7854703 c 0,0.5507812 -0.1172,1.1484375 -0.293,1.6875 -0.8437,2.4609375 -3.2461,4.8632812 -7.0195,4.8632812 -2.7071,0 -4.9805,-1.6289062 -4.9805,-5.0507812 0,-5.6367187 6.5391,-6.6562497 12.293,-6.5390627 z m 14.584,-26.2148437 v 6.960937 h -4.5 v 4.019532 h 4.5 v 15.8437497 c 0,3.4101562 0.539,6 2.039,7.5585937 1.2656,1.44140629 3.2461,2.21484379 5.7071,2.21484379 2.039,0 3.6562,-0.29296875 4.6757,-0.71484375 l -0.2343,-3.96093754 c -0.668,0.1757813 -1.6875,0.3632813 -3.0704,0.3632813 -2.9296,0 -3.9609,-2.0507813 -3.9609,-5.6484375 V -25.019845 h 7.5703 v -4.019532 h -7.5703 v -8.34375 z m 19.8603,0 v 6.960937 h -4.5 v 4.019532 h 4.5 v 15.8437497 c 0,3.4101562 0.5391,6 2.0391,7.5585937 1.2656,1.44140629 3.2461,2.21484379 5.707,2.21484379 2.0391,0 3.6563,-0.29296875 4.6758,-0.71484375 l -0.2344,-3.96093754 c -0.668,0.1757813 -1.6875,0.3632813 -3.0703,0.3632813 -2.9297,0 -3.9609,-2.0507813 -3.9609,-5.6484375 V -25.019845 h 7.5703 v -4.019532 h -7.5703 v -8.34375 z m 41.6367,22.441406 c 0.07,-0.539062 0.1875,-1.382812 0.1875,-2.460937 0,-5.34375 -2.5195,-13.675782 -12,-13.675782 -8.4609,0 -13.6172,6.890625 -13.6172,15.65625 0,8.7539067 5.3321,14.63671919 14.2735,14.63671919 4.6172,0 7.8047,-0.9609375 9.6562,-1.79296879 l -0.8906,-3.7851562 c -1.9805,0.84375 -4.2656,1.5 -8.0391,1.5 -5.2851,0 -9.8437,-2.9414063 -9.9609,-10.0781252 z m -20.332,-3.785156 c 0.4219,-3.65625 2.7539,-8.578125 8.0977,-8.578125 5.9414,0 7.3828,5.226562 7.3242,8.578125 z m 27.0586,17.3437499375 h 5.2148 V -15.480783 c 0,-0.902344 0.1172,-1.734375 0.2461,-2.460937 0.7149,-3.960938 3.3516,-6.773438 7.0782,-6.773438 0.7148,0 1.2539,0.05859 1.7929,0.175781 v -4.980468 c -0.4804,-0.117188 -0.8906,-0.175782 -1.5,-0.175782 -3.539,0 -6.7148,2.460938 -8.039,6.351563 h -0.2344 l -0.1758,-5.695313 h -4.6289 c 0.1875,2.695313 0.2461,5.636719 0.2461,9.058594 z M 1568.4563,-29.695627 c -8.0391,0 -14.3906,5.695313 -14.3906,15.410157 0,9.1874997 6.0585,14.94140594 13.9101,14.94140594 7.0195,0 14.4609,-4.67578124 14.4609,-15.42187494 0,-8.871094 -5.6367,-14.929688 -13.9804,-14.929688 z m -0.1172,3.960938 c 6.2461,0 8.707,6.234375 8.707,11.15625 0,6.5390624 -3.7851,11.2734374 -8.8242,11.2734374 -5.1562,0 -8.8242,-4.7929687 -8.8242,-11.1562504 0,-5.519531 2.707,-11.273437 8.9414,-11.273437 z m 26.5166,25.7343749375 V -25.019845 h 7.0195 v -4.019532 h -7.0195 v -1.558593 c 0,-4.441407 1.1484,-8.402344 5.6484,-8.402344 1.5,0 2.5782,0.304687 3.3516,0.65625 l 0.7266,-4.078125 c -1.0196,-0.421875 -2.6485,-0.84375 -4.5,-0.84375 -2.461,0 -5.0977,0.785156 -7.0782,2.707031 -2.4609,2.34375 -3.3633,6.058594 -3.3633,10.136719 v 1.382812 h -4.0781 v 4.019532 h 4.0781 V -3.140625e-4 Z m 24.4863,0 h 5.2149 V -15.480783 c 0,-0.902344 0.1172,-1.734375 0.2461,-2.460937 0.7148,-3.960938 3.3515,-6.773438 7.0781,-6.773438 0.7148,0 1.2539,0.05859 1.793,0.175781 v -4.980468 c -0.4805,-0.117188 -0.8907,-0.175782 -1.5,-0.175782 -3.5391,0 -6.7149,2.460938 -8.0391,6.351563 h -0.2344 l -0.1758,-5.695313 h -4.6289 c 0.1875,2.695313 0.2461,5.636719 0.2461,9.058594 z M 1650.6604,-29.695627 c -8.0391,0 -14.3906,5.695313 -14.3906,15.410157 0,9.1874997 6.0585,14.94140594 13.9101,14.94140594 7.0195,0 14.4609,-4.67578124 14.4609,-15.42187494 0,-8.871094 -5.6367,-14.929688 -13.9804,-14.929688 z m -0.1172,3.960938 c 6.2461,0 8.707,6.234375 8.707,11.15625 0,6.5390624 -3.7851,11.2734374 -8.8242,11.2734374 -5.1562,0 -8.8242,-4.7929687 -8.8242,-11.1562504 0,-5.519531 2.707,-11.273437 8.9414,-11.273437 z m 18.7266,24.3515624 c 2.039,1.20703129 4.9804,1.98046879 8.1562,1.98046879 6.9023,0 10.8633,-3.59765629 10.8633,-8.69531249 0,-4.3242187 -2.5781,-6.8437497 -7.6289,-8.7656247 -3.7735,-1.441407 -5.5196,-2.519532 -5.5196,-4.921875 0,-2.15625 1.7461,-3.949219 4.8633,-3.949219 2.7071,0 4.8047,0.949219 5.9414,1.675781 l 1.3243,-3.84375 c -1.629,-0.960937 -4.2071,-1.792969 -7.1485,-1.792969 -6.2344,0 -10.0195,3.832032 -10.0195,8.519532 0,3.480468 2.4609,6.351562 7.6875,8.214843 3.9023,1.441407 5.4023,2.824219 5.4023,5.3437504 0,2.4023438 -1.8047,4.3125 -5.6484,4.3125 -2.6367,0 -5.4024,-1.078125 -6.9609,-2.0976562 z m 21.955,-27.6562504 10.7461,26.7539067 c 0.2344,0.6679687 0.3516,1.0898437 0.3516,1.38281249 0,0.3046875 -0.1758,0.7265625 -0.4219,1.265625 -1.1953,2.69531251 -3,4.73437501 -4.4297,5.87109371 -1.5703,1.3242188 -3.3047,2.1679688 -4.6289,2.5898438 l 1.3242,4.4414063 c 1.3243,-0.246094 3.9024,-1.148438 6.4805,-3.4218751 3.5977,-3.1289062 6.1758,-8.2265625 9.9609,-18.1875 l 7.9219,-20.6953129 h -5.5781 l -5.7656,17.039063 c -0.7149,2.0976562 -1.3242,4.3242187 -1.8633,6.0585937 h -0.1172 c -0.4805,-1.734375 -1.1953,-4.0195313 -1.8633,-5.9414067 l -6.3515,-17.15625 z m -1667.047819,96 c -1.5,0.65625 -3.480469,1.441407 -6.480469,1.441407 -5.753906,0 -10.0781245,-4.136719 -10.0781245,-10.863282 0,-6.058593 3.5976565,-10.980468 10.2656245,-10.980468 2.882813,0 4.851563,0.65625 6.117188,1.382812 l 1.195312,-4.078125 c -1.429687,-0.726562 -4.195312,-1.5 -7.3125,-1.5 -9.4804683,0 -15.5976558,6.480469 -15.5976558,15.421875 0,8.871094 5.6953125,14.8125 14.4492188,14.8125 3.902344,0 6.960937,-0.960937 8.34375,-1.675781 z m 7.086914,5.039063 h 5.273438 V 54.480155 c 0,-1.019532 0.05859,-1.804688 0.363281,-2.519532 0.960938,-2.882812 3.65625,-5.285156 7.078125,-5.285156 4.980469,0 6.726563,3.960938 6.726563,8.648438 v 16.675781 h 5.273437 V 54.71453 c 0,-10.019532 -6.234375,-12.410157 -10.136719,-12.410157 -1.980468,0 -3.84375,0.597657 -5.402343,1.5 -1.617188,0.890625 -2.941407,2.214844 -3.773438,3.714844 H 36.537333 V 29.40203 h -5.273438 z m 56.63086,-13.558594 c 0.07031,-0.539062 0.1875,-1.382812 0.1875,-2.460937 0,-5.34375 -2.519532,-13.675782 -12,-13.675782 -8.460938,0 -13.617188,6.890625 -13.617188,15.65625 0,8.753907 5.332031,14.636719 14.273438,14.636719 4.617187,0 7.804687,-0.960937 9.65625,-1.792969 L 85.50413,67.019217 c -1.980469,0.84375 -4.265625,1.5 -8.039063,1.5 -5.285156,0 -9.84375,-2.941406 -9.960937,-10.078125 z M 67.562723,54.655936 c 0.421875,-3.65625 2.753907,-8.578125 8.097657,-8.578125 5.941406,0 7.382812,5.226562 7.324218,8.578125 z m 50.393557,3.785156 c 0.0703,-0.539062 0.1875,-1.382812 0.1875,-2.460937 0,-5.34375 -2.51953,-13.675782 -12,-13.675782 -8.460939,0 -13.617189,6.890625 -13.617189,15.65625 0,8.753907 5.332031,14.636719 14.273439,14.636719 4.61719,0 7.80469,-0.960937 9.65625,-1.792969 l -0.89063,-3.785156 c -1.98047,0.84375 -4.26562,1.5 -8.03906,1.5 -5.28516,0 -9.843749,-2.941406 -9.960937,-10.078125 z M 97.624247,54.655936 c 0.421875,-3.65625 2.753903,-8.578125 8.097653,-8.578125 5.94141,0 7.38282,5.226562 7.32422,8.578125 z M 129.89768,29.40203 h -5.21484 v 42.597656 h 5.21484 V 61.077811 l 2.70704,-3 10.01953,13.921875 h 6.41015 L 136.26097,54.90203 147.47581,42.960623 h -6.35156 l -8.51953,10.019532 c -0.84375,1.019531 -1.86329,2.285156 -2.58985,3.304687 h -0.11719 z m 20.88575,41.214843 c 2.03906,1.207032 4.98047,1.980469 8.15625,1.980469 6.90234,0 10.86328,-3.597656 10.86328,-8.695312 0,-4.324219 -2.57813,-6.84375 -7.62891,-8.765625 -3.77344,-1.441407 -5.51953,-2.519532 -5.51953,-4.921875 0,-2.15625 1.74609,-3.949219 4.86328,-3.949219 2.70703,0 4.80469,0.949219 5.94141,1.675781 l 1.32422,-3.84375 c -1.62891,-0.960937 -4.20703,-1.792969 -7.14844,-1.792969 -6.23438,0 -10.01953,3.832032 -10.01953,8.519532 0,3.480468 2.46094,6.351562 7.6875,8.214843 3.90234,1.441407 5.40234,2.824219 5.40234,5.34375 0,2.402344 -1.80469,4.3125 -5.64844,4.3125 -2.63671,0 -5.40234,-1.078125 -6.96093,-2.097656 z m 25.49121,8.402344 c 1.6875,-2.824219 4.32422,-9.480469 5.70703,-14.578125 l -5.88281,0.597656 c -0.65625,4.382813 -2.27344,10.804688 -3.59766,14.34375 z m 24.78808,-7.019531 h 5.21485 V 56.519217 c 0,-0.902344 0.11718,-1.734375 0.24609,-2.460937 0.71484,-3.960938 3.35156,-6.773438 7.07813,-6.773438 0.71484,0 1.2539,0.05859 1.79296,0.175781 v -4.980468 c -0.48046,-0.117188 -0.89062,-0.175782 -1.5,-0.175782 -3.53906,0 -6.71484,2.460938 -8.03906,6.351563 h -0.23437 l -0.17578,-5.695313 h -4.62891 c 0.1875,2.695313 0.24609,5.636719 0.24609,9.058594 z m 42.34571,-13.558594 c 0.0703,-0.539062 0.1875,-1.382812 0.1875,-2.460937 0,-5.34375 -2.51953,-13.675782 -12,-13.675782 -8.46094,0 -13.61719,6.890625 -13.61719,15.65625 0,8.753907 5.33203,14.636719 14.27344,14.636719 4.61718,0 7.80468,-0.960937 9.65625,-1.792969 l -0.89063,-3.785156 c -1.98047,0.84375 -4.26562,1.5 -8.03906,1.5 -5.28516,0 -9.84375,-2.941406 -9.96094,-10.078125 z M 223.0764,54.655936 c 0.42187,-3.65625 2.7539,-8.578125 8.09765,-8.578125 5.94141,0 7.38281,5.226562 7.32422,8.578125 z M 269.93089,29.40203 v 17.332031 h -0.11719 c -1.32422,-2.332031 -4.32422,-4.429688 -8.75391,-4.429688 -7.08984,0 -13.08984,5.929688 -13.01953,15.597657 0,8.8125 5.39063,14.753906 12.41016,14.753906 4.74609,0 8.28515,-2.460938 9.90234,-5.695313 h 0.11719 l 0.24609,5.039063 h 4.73438 c -0.17578,-1.980469 -0.23438,-4.921875 -0.23438,-7.5 V 29.40203 Z m 0,30.421875 c 0,0.832031 -0.0586,1.558593 -0.23438,2.273437 -0.96094,3.960938 -4.20703,6.304688 -7.74609,6.304688 -5.69531,0 -8.57813,-4.863282 -8.57813,-10.746094 0,-6.421875 3.2461,-11.214844 8.70703,-11.214844 3.96094,0 6.83204,2.753906 7.61719,6.117188 0.17578,0.65625 0.23438,1.558593 0.23438,2.226562 z m 26.76562,12.175781 h 5.27344 V 29.40203 h -5.27344 z m 19.43262,0 V 42.960623 h -5.27344 v 29.039063 z m -2.63672,-40.5 c -1.92187,0 -3.30469,1.441406 -3.30469,3.304687 0,1.792969 1.32422,3.234375 3.1875,3.234375 2.09766,0 3.42188,-1.441406 3.36328,-3.234375 0,-1.863281 -1.26562,-3.304687 -3.24609,-3.304687 z m 11.40527,52.382812 h 5.21485 V 68.097342 h 0.11719 c 1.74609,2.882813 5.10937,4.558594 8.9414,4.558594 6.84375,0 13.20703,-5.15625 13.20703,-15.597656 0,-8.824219 -5.28515,-14.753907 -12.30468,-14.753907 -4.73438,0 -8.15625,2.097657 -10.32422,5.636719 h -0.11719 l -0.23438,-4.980469 h -4.74609 c 0.12891,2.753907 0.24609,5.753907 0.24609,9.480469 z m 5.21485,-28.6875 c 0,-0.714843 0.1875,-1.5 0.36328,-2.15625 1.01953,-3.960937 4.38281,-6.539062 7.98047,-6.539062 5.57812,0 8.63672,4.980469 8.63672,10.804687 0,6.65625 -3.23438,11.214844 -8.8125,11.214844 -3.78516,0 -6.96094,-2.519531 -7.92188,-6.175781 -0.1289,-0.667969 -0.24609,-1.382813 -0.24609,-2.167969 z m 26.88574,15.421875 c 2.03906,1.207032 4.98047,1.980469 8.15625,1.980469 6.90234,0 10.86328,-3.597656 10.86328,-8.695312 0,-4.324219 -2.57812,-6.84375 -7.6289,-8.765625 -3.77344,-1.441407 -5.51954,-2.519532 -5.51954,-4.921875 0,-2.15625 1.7461,-3.949219 4.86329,-3.949219 2.70703,0 4.80468,0.949219 5.9414,1.675781 l 1.32422,-3.84375 c -1.62891,-0.960937 -4.20703,-1.792969 -7.14844,-1.792969 -6.23437,0 -10.01953,3.832032 -10.01953,8.519532 0,3.480468 2.46094,6.351562 7.6875,8.214843 3.90235,1.441407 5.40235,2.824219 5.40235,5.34375 0,2.402344 -1.80469,4.3125 -5.64844,4.3125 -2.63672,0 -5.40235,-1.078125 -6.96094,-2.097656 z m 59.40234,1.382813 c -0.36328,-1.980469 -0.48046,-4.441406 -0.48046,-6.960938 V 54.175467 c 0,-5.8125 -2.16797,-11.871094 -11.05079,-11.871094 -3.65625,0 -7.13671,1.019532 -9.53906,2.578125 l 1.20703,3.480469 c 2.03907,-1.324219 4.86328,-2.167969 7.5586,-2.167969 5.9414,0 6.59765,4.324219 6.59765,6.726563 v 0.597656 c -11.21484,-0.05859 -17.46093,3.785156 -17.46093,10.804688 0,4.195312 3,8.332031 8.88281,8.332031 4.13672,0 7.2539,-2.039063 8.88281,-4.3125 h 0.17578 l 0.42188,3.65625 z m -5.58984,-9.785156 c 0,0.550781 -0.11719,1.148437 -0.29297,1.6875 -0.84375,2.460937 -3.24609,4.863281 -7.01953,4.863281 -2.70703,0 -4.98047,-1.628906 -4.98047,-5.050781 0,-5.636719 6.53906,-6.65625 12.29297,-6.539063 z m 13.62598,9.785156 h 5.27343 V 54.538748 c 0,-0.902343 0.12891,-1.804687 0.36329,-2.460937 0.90234,-2.941406 3.59765,-5.402344 7.07812,-5.402344 4.98047,0 6.72656,3.902344 6.72656,8.589844 v 16.734375 h 5.27344 v -17.34375 c 0,-9.960938 -6.23437,-12.351563 -10.25391,-12.351563 -4.80468,0 -8.16796,2.695313 -9.60937,5.460938 h -0.11719 l -0.29297,-4.804688 h -4.6875 c 0.1875,2.402344 0.2461,4.863282 0.2461,7.863282 z M 477.52854,29.40203 v 17.332031 h -0.11718 c -1.32422,-2.332031 -4.32422,-4.429688 -8.75391,-4.429688 -7.08984,0 -13.08984,5.929688 -13.01953,15.597657 0,8.8125 5.39062,14.753906 12.41015,14.753906 4.7461,0 8.28516,-2.460938 9.90235,-5.695313 h 0.11719 l 0.24609,5.039063 h 4.73437 c -0.17578,-1.980469 -0.23437,-4.921875 -0.23437,-7.5 V 29.40203 Z m 0,30.421875 c 0,0.832031 -0.0586,1.558593 -0.23437,2.273437 -0.96094,3.960938 -4.20703,6.304688 -7.7461,6.304688 -5.69531,0 -8.57812,-4.863282 -8.57812,-10.746094 0,-6.421875 3.24609,-11.214844 8.70703,-11.214844 3.96094,0 6.83203,2.753906 7.61719,6.117188 0.17578,0.65625 0.23437,1.558593 0.23437,2.226562 z m 24.7295,10.792968 c 2.03906,1.207032 4.98046,1.980469 8.15625,1.980469 6.90234,0 10.86328,-3.597656 10.86328,-8.695312 0,-4.324219 -2.57813,-6.84375 -7.62891,-8.765625 -3.77344,-1.441407 -5.51953,-2.519532 -5.51953,-4.921875 0,-2.15625 1.74609,-3.949219 4.86328,-3.949219 2.70703,0 4.80469,0.949219 5.94141,1.675781 l 1.32422,-3.84375 c -1.62891,-0.960937 -4.20704,-1.792969 -7.14844,-1.792969 -6.23438,0 -10.01953,3.832032 -10.01953,8.519532 0,3.480468 2.46093,6.351562 7.6875,8.214843 3.90234,1.441407 5.40234,2.824219 5.40234,5.34375 0,2.402344 -1.80469,4.3125 -5.64844,4.3125 -2.63672,0 -5.40234,-1.078125 -6.96093,-2.097656 z m 50.09179,-27.65625 h -5.27343 v 17.824219 c 0,0.949219 -0.1875,1.910156 -0.48047,2.695313 -0.96094,2.34375 -3.42188,4.804687 -6.96094,4.804687 -4.80469,0 -6.48047,-3.726562 -6.48047,-9.246094 V 42.960623 h -5.28516 v 16.980469 c 0,10.195313 5.46094,12.714844 10.01954,12.714844 5.16796,0 8.22656,-3.058594 9.60937,-5.390625 h 0.11719 l 0.29297,4.734375 h 4.6875 c -0.1875,-2.285156 -0.2461,-4.921875 -0.2461,-7.921875 z m 8.76563,40.921875 h 5.21484 V 68.097342 h 0.11719 c 1.74609,2.882813 5.10937,4.558594 8.94141,4.558594 6.84375,0 13.20703,-5.15625 13.20703,-15.597656 0,-8.824219 -5.28516,-14.753907 -12.30469,-14.753907 -4.73438,0 -8.15625,2.097657 -10.32422,5.636719 h -0.11719 l -0.23437,-4.980469 h -4.7461 c 0.12891,2.753907 0.2461,5.753907 0.2461,9.480469 z m 5.21484,-28.6875 c 0,-0.714843 0.1875,-1.5 0.36328,-2.15625 1.01953,-3.960937 4.38282,-6.539062 7.98047,-6.539062 5.57813,0 8.63672,4.980469 8.63672,10.804687 0,6.65625 -3.23437,11.214844 -8.8125,11.214844 -3.78516,0 -6.96094,-2.519531 -7.92187,-6.175781 -0.12891,-0.667969 -0.2461,-1.382813 -0.2461,-2.167969 z m 28.92774,28.6875 h 5.21484 V 68.097342 h 0.11719 c 1.74609,2.882813 5.10937,4.558594 8.9414,4.558594 6.84375,0 13.20703,-5.15625 13.20703,-15.597656 0,-8.824219 -5.28515,-14.753907 -12.30468,-14.753907 -4.73438,0 -8.15625,2.097657 -10.32422,5.636719 h -0.11719 l -0.23437,-4.980469 h -4.7461 c 0.12891,2.753907 0.2461,5.753907 0.2461,9.480469 z m 5.21484,-28.6875 c 0,-0.714843 0.1875,-1.5 0.36328,-2.15625 1.01953,-3.960937 4.38281,-6.539062 7.98047,-6.539062 5.57812,0 8.63672,4.980469 8.63672,10.804687 0,6.65625 -3.23438,11.214844 -8.8125,11.214844 -3.78516,0 -6.96094,-2.519531 -7.92188,-6.175781 -0.1289,-0.667969 -0.24609,-1.382813 -0.24609,-2.167969 z m 28.9248,16.804688 h 5.27344 V 29.40203 h -5.27344 z M 666.8889,58.441092 c 0.0703,-0.539062 0.1875,-1.382812 0.1875,-2.460937 0,-5.34375 -2.51954,-13.675782 -12,-13.675782 -8.46094,0 -13.61719,6.890625 -13.61719,15.65625 0,8.753907 5.33203,14.636719 14.27344,14.636719 4.61718,0 7.80468,-0.960937 9.65625,-1.792969 l -0.89063,-3.785156 c -1.98047,0.84375 -4.26562,1.5 -8.03906,1.5 -5.28516,0 -9.84375,-2.941406 -9.96094,-10.078125 z m -20.33204,-3.785156 c 0.42188,-3.65625 2.75391,-8.578125 8.09766,-8.578125 5.94141,0 7.38281,5.226562 7.32422,8.578125 z M 691.551,29.40203 h -5.21484 V 71.999686 H 691.551 V 61.077811 l 2.70704,-3 10.01953,13.921875 h 6.41015 L 697.91429,54.90203 709.12913,42.960623 h -6.35156 l -8.51953,10.019532 c -0.84375,1.019531 -1.86329,2.285156 -2.58985,3.304687 H 691.551 Z m 23.94727,42.597656 h 5.27344 V 54.538748 c 0,-0.902343 0.1289,-1.804687 0.36328,-2.460937 0.90234,-2.941406 3.59766,-5.402344 7.07812,-5.402344 4.98047,0 6.72657,3.902344 6.72657,8.589844 v 16.734375 h 5.27343 v -17.34375 c 0,-9.960938 -6.23437,-12.351563 -10.2539,-12.351563 -4.80469,0 -8.16797,2.695313 -9.60938,5.460938 h -0.11718 l -0.29297,-4.804688 h -4.6875 c 0.1875,2.402344 0.24609,4.863282 0.24609,7.863282 z m 56.63086,-13.558594 c 0.0703,-0.539062 0.1875,-1.382812 0.1875,-2.460937 0,-5.34375 -2.51953,-13.675782 -12,-13.675782 -8.46094,0 -13.61719,6.890625 -13.61719,15.65625 0,8.753907 5.33203,14.636719 14.27344,14.636719 4.61719,0 7.80469,-0.960937 9.65625,-1.792969 l -0.89063,-3.785156 c -1.98046,0.84375 -4.26562,1.5 -8.03906,1.5 -5.28515,0 -9.84375,-2.941406 -9.96094,-10.078125 z M 751.7971,54.655936 c 0.42187,-3.65625 2.7539,-8.578125 8.09765,-8.578125 5.94141,0 7.38282,5.226562 7.32422,8.578125 z m 50.39062,3.785156 c 0.0703,-0.539062 0.1875,-1.382812 0.1875,-2.460937 0,-5.34375 -2.51953,-13.675782 -12,-13.675782 -8.46093,0 -13.61718,6.890625 -13.61718,15.65625 0,8.753907 5.33203,14.636719 14.27343,14.636719 4.61719,0 7.80469,-0.960937 9.65625,-1.792969 l -0.89062,-3.785156 c -1.98047,0.84375 -4.26563,1.5 -8.03906,1.5 -5.28516,0 -9.84375,-2.941406 -9.96094,-10.078125 z m -20.33203,-3.785156 c 0.42188,-3.65625 2.75391,-8.578125 8.09766,-8.578125 5.9414,0 7.38281,5.226562 7.32422,8.578125 z m 25.02246,15.960937 c 2.03907,1.207032 4.98047,1.980469 8.15625,1.980469 6.90235,0 10.86328,-3.597656 10.86328,-8.695312 0,-4.324219 -2.57812,-6.84375 -7.6289,-8.765625 -3.77344,-1.441407 -5.51953,-2.519532 -5.51953,-4.921875 0,-2.15625 1.74609,-3.949219 4.86328,-3.949219 2.70703,0 4.80469,0.949219 5.9414,1.675781 l 1.32422,-3.84375 c -1.6289,-0.960937 -4.20703,-1.792969 -7.14843,-1.792969 -6.23438,0 -10.01954,3.832032 -10.01954,8.519532 0,3.480468 2.46094,6.351562 7.6875,8.214843 3.90235,1.441407 5.40235,2.824219 5.40235,5.34375 0,2.402344 -1.80469,4.3125 -5.64844,4.3125 -2.63672,0 -5.40234,-1.078125 -6.96094,-2.097656 z m 26.0918,8.402344 c 1.6875,-2.824219 4.32422,-9.480469 5.76562,-14.578125 l -5.82421,0.597656 c -0.65625,4.382813 -2.27344,10.804688 -3.59766,14.34375 z m 2.46094,-27.539062 c 2.16797,0 3.53906,-1.617188 3.53906,-3.714844 0,-2.226563 -1.37109,-3.785156 -3.53906,-3.785156 -2.03907,0 -3.53907,1.558593 -3.53907,3.785156 0,2.097656 1.44141,3.714844 3.53907,3.714844 z m 27.65918,20.519531 V 42.960623 h -5.27344 v 29.039063 z m -2.63672,-40.5 c -1.92188,0 -3.30469,1.441406 -3.30469,3.304687 0,1.792969 1.32422,3.234375 3.1875,3.234375 2.09766,0 3.42188,-1.441406 3.36328,-3.234375 0,-1.863281 -1.26562,-3.304687 -3.24609,-3.304687 z m 12.59765,4.5 v 6.960937 h -4.5 v 4.019532 h 4.5 v 15.84375 c 0,3.410156 0.53907,6 2.03907,7.558593 1.26562,1.441407 3.24609,2.214844 5.70703,2.214844 2.03906,0 3.65625,-0.292969 4.67578,-0.714844 l -0.23438,-3.960937 c -0.66796,0.175781 -1.6875,0.363281 -3.07031,0.363281 -2.92969,0 -3.96094,-2.050781 -3.96094,-5.648437 v -15.65625 h 7.57032 v -4.019532 h -7.57032 v -8.34375 z m 36.65918,36 V 42.960623 h -5.27343 v 29.039063 z m -2.63671,-40.5 c -1.92188,0 -3.30469,1.441406 -3.30469,3.304687 0,1.792969 1.32422,3.234375 3.1875,3.234375 2.09765,0 3.42187,-1.441406 3.36328,-3.234375 0,-1.863281 -1.26563,-3.304687 -3.24609,-3.304687 z m 9.36328,39.117187 c 2.03906,1.207032 4.98047,1.980469 8.15625,1.980469 6.90234,0 10.86328,-3.597656 10.86328,-8.695312 0,-4.324219 -2.57813,-6.84375 -7.62891,-8.765625 -3.77344,-1.441407 -5.51953,-2.519532 -5.51953,-4.921875 0,-2.15625 1.74609,-3.949219 4.86328,-3.949219 2.70703,0 4.80469,0.949219 5.94141,1.675781 l 1.32422,-3.84375 c -1.62891,-0.960937 -4.20703,-1.792969 -7.14844,-1.792969 -6.23438,0 -10.01953,3.832032 -10.01953,8.519532 0,3.480468 2.46094,6.351562 7.6875,8.214843 3.90234,1.441407 5.40234,2.824219 5.40234,5.34375 0,2.402344 -1.80469,4.3125 -5.64844,4.3125 -2.63671,0 -5.40234,-1.078125 -6.96093,-2.097656 z m 59.40234,1.382813 c -0.36328,-1.980469 -0.48047,-4.441406 -0.48047,-6.960938 V 54.175467 c 0,-5.8125 -2.16797,-11.871094 -11.05078,-11.871094 -3.65625,0 -7.13672,1.019532 -9.53906,2.578125 l 1.20703,3.480469 c 2.03906,-1.324219 4.86328,-2.167969 7.55859,-2.167969 5.94141,0 6.59766,4.324219 6.59766,6.726563 v 0.597656 c -11.21484,-0.05859 -17.46094,3.785156 -17.46094,10.804688 0,4.195312 3,8.332031 8.88281,8.332031 4.13672,0 7.25391,-2.039063 8.88282,-4.3125 h 0.17578 l 0.42187,3.65625 z m -5.58984,-9.785156 c 0,0.550781 -0.11719,1.148437 -0.29297,1.6875 -0.84375,2.460937 -3.2461,4.863281 -7.01953,4.863281 -2.70703,0 -4.98047,-1.628906 -4.98047,-5.050781 0,-5.636719 6.53906,-6.65625 12.29297,-6.539063 z m 26.34668,9.785156 h 5.15627 V 54.480155 c 0,-0.902344 0.1172,-1.804688 0.4219,-2.578125 0.8437,-2.636719 3.2343,-5.285157 6.539,-5.285157 4.0195,0 6.0586,3.363282 6.0586,7.980469 v 17.402344 h 5.1563 V 54.05828 c 0,-0.960938 0.1875,-1.921875 0.4218,-2.636719 0.9024,-2.578125 3.2461,-4.804688 6.2461,-4.804688 4.2539,0 6.293,3.363282 6.293,8.941407 v 16.441406 h 5.168 V 54.90203 c 0,-10.078125 -5.7071,-12.597657 -9.5391,-12.597657 -2.7656,0 -4.6875,0.714844 -6.4219,2.039063 -1.207,0.890625 -2.3437,2.15625 -3.2461,3.773437 h -0.1172 c -1.2539,-3.421875 -4.2539,-5.8125 -8.2148,-5.8125 -4.8047,0 -7.5,2.578125 -9.1289,5.332032 h -0.1758 l -0.2344,-4.675782 h -4.62887 c 0.1875,2.402344 0.2461,4.863282 0.2461,7.863282 z m 70.92477,0 c -0.3632,-1.980469 -0.4804,-4.441406 -0.4804,-6.960938 V 54.175467 c 0,-5.8125 -2.168,-11.871094 -11.0508,-11.871094 -3.6563,0 -7.1367,1.019532 -9.5391,2.578125 l 1.2071,3.480469 c 2.039,-1.324219 4.8632,-2.167969 7.5585,-2.167969 5.9415,0 6.5977,4.324219 6.5977,6.726563 v 0.597656 c -11.2148,-0.05859 -17.4609,3.785156 -17.4609,10.804688 0,4.195312 3,8.332031 8.8828,8.332031 4.1367,0 7.2539,-2.039063 8.8828,-4.3125 h 0.1758 l 0.4218,3.65625 z m -5.5898,-9.785156 c 0,0.550781 -0.1172,1.148437 -0.293,1.6875 -0.8437,2.460937 -3.2461,4.863281 -7.0195,4.863281 -2.707,0 -4.9805,-1.628906 -4.9805,-5.050781 0,-5.636719 6.5391,-6.65625 12.293,-6.539063 z m 14.5752,-26.214844 v 6.960937 h -4.5 v 4.019532 h 4.5 v 15.84375 c 0,3.410156 0.539,6 2.039,7.558593 1.2657,1.441407 3.2461,2.214844 5.7071,2.214844 2.039,0 3.6562,-0.292969 4.6758,-0.714844 l -0.2344,-3.960937 c -0.668,0.175781 -1.6875,0.363281 -3.0703,0.363281 -2.9297,0 -3.961,-2.050781 -3.961,-5.648437 v -15.65625 h 7.5703 v -4.019532 h -7.5703 v -8.34375 z m 19.8603,0 v 6.960937 h -4.5 v 4.019532 h 4.5 v 15.84375 c 0,3.410156 0.5391,6 2.0391,7.558593 1.2656,1.441407 3.2461,2.214844 5.707,2.214844 2.0391,0 3.6563,-0.292969 4.6758,-0.714844 l -0.2344,-3.960937 c -0.6679,0.175781 -1.6875,0.363281 -3.0703,0.363281 -2.9297,0 -3.9609,-2.050781 -3.9609,-5.648437 v -15.65625 h 7.5703 v -4.019532 h -7.5703 v -8.34375 z m 41.6368,22.441406 c 0.07,-0.539062 0.1875,-1.382812 0.1875,-2.460937 0,-5.34375 -2.5196,-13.675782 -12,-13.675782 -8.461,0 -13.6172,6.890625 -13.6172,15.65625 0,8.753907 5.332,14.636719 14.2734,14.636719 4.6172,0 7.8047,-0.960937 9.6563,-1.792969 l -0.8907,-3.785156 c -1.9804,0.84375 -4.2656,1.5 -8.039,1.5 -5.2852,0 -9.8438,-2.941406 -9.961,-10.078125 z m -20.3321,-3.785156 c 0.4219,-3.65625 2.7539,-8.578125 8.0977,-8.578125 5.9414,0 7.3828,5.226562 7.3242,8.578125 z m 27.0586,17.34375 h 5.2149 V 56.519217 c 0,-0.902344 0.1171,-1.734375 0.2461,-2.460937 0.7148,-3.960938 3.3515,-6.773438 7.0781,-6.773438 0.7148,0 1.2539,0.05859 1.7929,0.175781 v -4.980468 c -0.4804,-0.117188 -0.8906,-0.175782 -1.5,-0.175782 -3.539,0 -6.7148,2.460938 -8.039,6.351563 h -0.2344 l -0.1758,-5.695313 h -4.6289 c 0.1875,2.695313 0.2461,5.636719 0.2461,9.058594 z m 44.6338,-29.695313 c -8.0391,0 -14.3906,5.695313 -14.3906,15.410157 0,9.1875 6.0586,14.941406 13.9101,14.941406 7.0196,0 14.461,-4.675781 14.461,-15.421875 0,-8.871094 -5.6367,-14.929688 -13.9805,-14.929688 z m -0.1172,3.960938 c 6.2461,0 8.707,6.234375 8.707,11.15625 0,6.539062 -3.7851,11.273437 -8.8242,11.273437 -5.1562,0 -8.8242,-4.792968 -8.8242,-11.15625 0,-5.519531 2.707,-11.273437 8.9414,-11.273437 z m 26.5195,25.734375 V 46.980155 h 7.0196 v -4.019532 h -7.0196 V 41.40203 c 0,-4.441407 1.1485,-8.402344 5.6485,-8.402344 1.5,0 2.5781,0.304687 3.3515,0.65625 l 0.7266,-4.078125 c -1.0195,-0.421875 -2.6484,-0.84375 -4.5,-0.84375 -2.4609,0 -5.0976,0.785156 -7.0781,2.707031 -2.461,2.34375 -3.3633,6.058594 -3.3633,10.136719 v 1.382812 h -4.0781 v 4.019532 h 4.0781 v 25.019531 z m 25.6817,-36 v 6.960937 h -4.5 v 4.019532 h 4.5 v 15.84375 c 0,3.410156 0.5391,6 2.0391,7.558593 1.2656,1.441407 3.246,2.214844 5.707,2.214844 2.039,0 3.6562,-0.292969 4.6758,-0.714844 l -0.2344,-3.960937 c -0.668,0.175781 -1.6875,0.363281 -3.0703,0.363281 -2.9297,0 -3.961,-2.050781 -3.961,-5.648437 v -15.65625 h 7.5704 v -4.019532 h -7.5704 v -8.34375 z m 18.6621,36 h 5.2734 V 54.480155 c 0,-1.019532 0.059,-1.804688 0.3633,-2.519532 0.961,-2.882812 3.6563,-5.285156 7.0781,-5.285156 4.9805,0 6.7266,3.960938 6.7266,8.648438 v 16.675781 h 5.2734 V 54.71453 c 0,-10.019532 -6.2343,-12.410157 -10.1367,-12.410157 -1.9804,0 -3.8437,0.597657 -5.4023,1.5 -1.6172,0.890625 -2.9414,2.214844 -3.7735,3.714844 h -0.1289 V 29.40203 h -5.2734 z m 56.6338,-13.558594 c 0.07,-0.539062 0.1875,-1.382812 0.1875,-2.460937 0,-5.34375 -2.5195,-13.675782 -12,-13.675782 -8.4609,0 -13.6172,6.890625 -13.6172,15.65625 0,8.753907 5.332,14.636719 14.2734,14.636719 4.6172,0 7.8047,-0.960937 9.6563,-1.792969 l -0.8906,-3.785156 c -1.9805,0.84375 -4.2657,1.5 -8.0391,1.5 -5.2852,0 -9.8437,-2.941406 -9.9609,-10.078125 z m -20.332,-3.785156 c 0.4218,-3.65625 2.7539,-8.578125 8.0976,-8.578125 5.9414,0 7.3828,5.226562 7.3242,8.578125 z m 36.4746,-11.695313 8.7656,29.039063 h 4.793 l 4.6875,-13.804688 c 1.0195,-3.117187 1.9101,-6.117187 2.6367,-9.597656 h 0.1172 c 0.7265,3.421875 1.5586,6.304688 2.5781,9.539063 l 4.4414,13.863281 h 4.8047 l 9.3633,-29.039063 h -5.2266 l -4.1367,14.578125 c -0.961,3.421875 -1.7461,6.480469 -2.2266,9.421875 h -0.1758 c -0.6562,-2.941406 -1.5,-6 -2.5781,-9.480468 l -4.5,-14.519532 h -4.4414 l -4.7461,14.824219 c -0.9492,3.117188 -1.9101,6.234375 -2.5781,9.175781 h -0.1758 c -0.5391,-3 -1.3242,-6 -2.1562,-9.246093 l -3.8438,-14.753907 z m 52.7373,29.039063 V 42.960623 h -5.2735 v 29.039063 z m -2.6367,-40.5 c -1.9219,0 -3.3047,1.441406 -3.3047,3.304687 0,1.792969 1.3242,3.234375 3.1875,3.234375 2.0976,0 3.4218,-1.441406 3.3632,-3.234375 0,-1.863281 -1.2656,-3.304687 -3.246,-3.304687 z m 11.4052,40.5 h 5.2735 V 29.40203 h -5.2735 z m 14.1592,0 h 5.2734 V 29.40203 h -5.2734 z m 13.9102,7.019531 c 1.6875,-2.824219 4.3242,-9.480469 5.707,-14.578125 l -5.8828,0.597656 c -0.6563,4.382813 -2.2735,10.804688 -3.5977,14.34375 z m 45.6738,-7.019531 c -0.3633,-1.980469 -0.4805,-4.441406 -0.4805,-6.960938 V 54.175467 c 0,-5.8125 -2.1679,-11.871094 -11.0508,-11.871094 -3.6562,0 -7.1367,1.019532 -9.539,2.578125 l 1.207,3.480469 c 2.0391,-1.324219 4.8633,-2.167969 7.5586,-2.167969 5.9414,0 6.5977,4.324219 6.5977,6.726563 v 0.597656 c -11.2149,-0.05859 -17.461,3.785156 -17.461,10.804688 0,4.195312 3,8.332031 8.8828,8.332031 4.1368,0 7.2539,-2.039063 8.8828,-4.3125 h 0.1758 l 0.4219,3.65625 z m -5.5899,-9.785156 c 0,0.550781 -0.1171,1.148437 -0.2929,1.6875 -0.8438,2.460937 -3.2461,4.863281 -7.0196,4.863281 -2.707,0 -4.9804,-1.628906 -4.9804,-5.050781 0,-5.636719 6.539,-6.65625 12.2929,-6.539063 z m 46.1397,21.667968 h 5.2852 V 50.941092 c 0,-3 0.058,-5.519531 0.1757,-7.980469 h -4.9804 l -0.1758,4.382813 h -0.1172 c -1.4414,-2.824219 -4.4414,-5.039063 -8.9414,-5.039063 -6.1172,0 -13.1367,4.792969 -13.1367,15.65625 0,8.824219 5.5195,14.695313 12.2929,14.695313 4.6875,0 7.9219,-2.273438 9.4805,-5.15625 h 0.1172 z m 0,-23.707031 c 0,0.785156 -0.1758,1.804688 -0.4102,2.519531 -1.207,3.667969 -4.1484,5.765625 -7.5703,5.765625 -5.8125,0 -8.5781,-5.039062 -8.5781,-10.804687 0,-6.539063 3.3047,-11.15625 8.7656,-11.15625 3.961,0 6.7735,2.765625 7.5586,6 0.1758,0.65625 0.2344,1.5 0.2344,2.214844 z m 38.2793,-17.214844 h -5.2734 v 17.824219 c 0,0.949219 -0.1875,1.910156 -0.4805,2.695313 -0.961,2.34375 -3.4219,4.804687 -6.961,4.804687 -4.8046,0 -6.4804,-3.726562 -6.4804,-9.246094 V 42.960623 h -5.2852 v 16.980469 c 0,10.195313 5.461,12.714844 10.0196,12.714844 5.1679,0 8.2265,-3.058594 9.6093,-5.390625 h 0.1172 l 0.293,4.734375 h 4.6875 c -0.1875,-2.285156 -0.2461,-4.921875 -0.2461,-7.921875 z m 29.6484,29.039063 c -0.3633,-1.980469 -0.4804,-4.441406 -0.4804,-6.960938 V 54.175467 c 0,-5.8125 -2.168,-11.871094 -11.0508,-11.871094 -3.6563,0 -7.1367,1.019532 -9.5391,2.578125 l 1.207,3.480469 c 2.0391,-1.324219 4.8633,-2.167969 7.5586,-2.167969 5.9414,0 6.5977,4.324219 6.5977,6.726563 v 0.597656 c -11.2148,-0.05859 -17.4609,3.785156 -17.4609,10.804688 0,4.195312 3,8.332031 8.8828,8.332031 4.1367,0 7.2539,-2.039063 8.8828,-4.3125 h 0.1758 l 0.4218,3.65625 z m -5.5898,-9.785156 c 0,0.550781 -0.1172,1.148437 -0.293,1.6875 -0.8437,2.460937 -3.2461,4.863281 -7.0195,4.863281 -2.707,0 -4.9805,-1.628906 -4.9805,-5.050781 0,-5.636719 6.5391,-6.65625 12.293,-6.539063 z m 13.6289,9.785156 h 5.2734 V 29.40203 h -5.2734 z m 19.4326,0 V 42.960623 h -5.2734 v 29.039063 z m -2.6367,-40.5 c -1.9219,0 -3.3047,1.441406 -3.3047,3.304687 0,1.792969 1.3242,3.234375 3.1875,3.234375 2.0977,0 3.4219,-1.441406 3.3633,-3.234375 0,-1.863281 -1.2656,-3.304687 -3.2461,-3.304687 z m 12.5976,4.5 v 6.960937 h -4.5 v 4.019532 h 4.5 v 15.84375 c 0,3.410156 0.5391,6 2.0391,7.558593 1.2656,1.441407 3.2461,2.214844 5.707,2.214844 2.0391,0 3.6563,-0.292969 4.6758,-0.714844 l -0.2344,-3.960937 c -0.6679,0.175781 -1.6875,0.363281 -3.0703,0.363281 -2.9297,0 -3.9609,-2.050781 -3.9609,-5.648437 v -15.65625 h 7.5703 v -4.019532 h -7.5703 v -8.34375 z m 15.3633,6.960937 10.7461,26.753907 c 0.2344,0.667968 0.3516,1.089843 0.3516,1.382812 0,0.304688 -0.1758,0.726563 -0.4219,1.265625 -1.1953,2.695313 -3,4.734375 -4.4297,5.871094 -1.5703,1.324219 -3.3047,2.167969 -4.6289,2.589844 l 1.3242,4.441406 c 1.3243,-0.246094 3.9024,-1.148438 6.4805,-3.421875 3.5977,-3.128906 6.1758,-8.226563 9.9609,-18.1875 l 7.9219,-20.695313 h -5.5781 l -5.7656,17.039063 c -0.7149,2.097656 -1.3243,4.324219 -1.8633,6.058594 h -0.1172 c -0.4805,-1.734375 -1.1953,-4.019532 -1.8633,-5.941407 l -6.3515,-17.15625 z m 57.1143,-0.65625 c -8.0391,0 -14.3906,5.695313 -14.3906,15.410157 0,9.1875 6.0586,14.941406 13.9101,14.941406 7.0195,0 14.461,-4.675781 14.461,-15.421875 0,-8.871094 -5.6368,-14.929688 -13.9805,-14.929688 z m -0.1172,3.960938 c 6.2461,0 8.707,6.234375 8.707,11.15625 0,6.539062 -3.7851,11.273437 -8.8242,11.273437 -5.1562,0 -8.8242,-4.792968 -8.8242,-11.15625 0,-5.519531 2.707,-11.273437 8.9414,-11.273437 z m 26.5195,25.734375 V 46.980155 h 7.0196 v -4.019532 h -7.0196 V 41.40203 c 0,-4.441407 1.1485,-8.402344 5.6485,-8.402344 1.5,0 2.5781,0.304687 3.3515,0.65625 l 0.7266,-4.078125 c -1.0195,-0.421875 -2.6484,-0.84375 -4.5,-0.84375 -2.4609,0 -5.0977,0.785156 -7.0781,2.707031 -2.461,2.34375 -3.3633,6.058594 -3.3633,10.136719 v 1.382812 h -4.0781 v 4.019532 h 4.0781 V 71.999686 Z M 5.579325,107.99969 v 6.96093 h -4.5 v 4.01953 h 4.5 v 15.84375 c 0,3.41016 0.5390625,6 2.0390625,7.5586 1.265625,1.4414 3.2460935,2.21484 5.7070315,2.21484 2.039062,0 3.65625,-0.29297 4.675781,-0.71484 l -0.234375,-3.96094 c -0.667969,0.17578 -1.6875,0.36328 -3.070313,0.36328 -2.929687,0 -3.960937,-2.05078 -3.960937,-5.64844 v -15.65625 h 7.570312 v -4.01953 h -7.570312 v -8.34375 z m 18.662109,36 h 5.273438 v -17.51954 c 0,-1.01953 0.05859,-1.80468 0.363281,-2.51953 0.960938,-2.88281 3.65625,-5.28515 7.078125,-5.28515 4.980469,0 6.726563,3.96093 6.726563,8.64843 v 16.67579 h 5.273437 v -17.28516 c 0,-10.01953 -6.234375,-12.41016 -10.136719,-12.41016 -1.980468,0 -3.84375,0.59766 -5.402343,1.5 -1.617188,0.89063 -2.941407,2.21485 -3.773438,3.71485 h -0.128906 v -18.11719 h -5.273438 z m 56.633789,-13.5586 c 0.07031,-0.53906 0.1875,-1.38281 0.1875,-2.46094 0,-5.34375 -2.519531,-13.67578 -12,-13.67578 -8.460937,0 -13.617187,6.89063 -13.617187,15.65625 0,8.75391 5.332031,14.63672 14.273437,14.63672 4.617188,0 7.804688,-0.96094 9.65625,-1.79297 l -0.890625,-3.78515 c -1.980468,0.84375 -4.265625,1.5 -8.039062,1.5 -5.285156,0 -9.84375,-2.94141 -9.960938,-10.07813 z m -20.332031,-3.78515 c 0.421875,-3.65625 2.753906,-8.57813 8.097656,-8.57813 5.941407,0 7.382813,5.22656 7.324219,8.57813 z m 45.052738,17.34375 v -29.03907 h -5.27344 v 29.03907 z m -2.63672,-40.5 c -1.92188,0 -3.30469,1.4414 -3.30469,3.30468 0,1.79297 1.32422,3.23438 3.1875,3.23438 2.09766,0 3.42188,-1.44141 3.36328,-3.23438 0,-1.86328 -1.26562,-3.30468 -3.24609,-3.30468 z m 11.40234,40.5 h 5.15625 v -17.51954 c 0,-0.90234 0.11719,-1.80468 0.42188,-2.57812 0.84375,-2.63672 3.23437,-5.28516 6.53906,-5.28516 4.01953,0 6.05859,3.36328 6.05859,7.98047 v 17.40235 h 5.15625 v -17.94141 c 0,-0.96094 0.1875,-1.92188 0.42188,-2.63672 0.90234,-2.57812 3.24609,-4.80469 6.24609,-4.80469 4.25391,0 6.29297,3.36328 6.29297,8.94141 v 16.44141 h 5.16797 v -17.09766 c 0,-10.07813 -5.70703,-12.59766 -9.53906,-12.59766 -2.76563,0 -4.6875,0.71485 -6.42188,2.03907 -1.20703,0.89062 -2.34375,2.15625 -3.24609,3.77343 h -0.11719 c -1.25391,-3.42187 -4.25391,-5.8125 -8.21484,-5.8125 -4.80469,0 -7.5,2.57813 -9.12891,5.33203 h -0.17578 l -0.23438,-4.67578 h -4.6289 c 0.1875,2.40235 0.24609,4.86328 0.24609,7.86328 z m 70.92481,0 c -0.36329,-1.98047 -0.48047,-4.44141 -0.48047,-6.96094 v -10.86328 c 0,-5.8125 -2.16797,-11.8711 -11.05078,-11.8711 -3.65625,0 -7.13672,1.01953 -9.53907,2.57813 l 1.20703,3.48047 c 2.03907,-1.32422 4.86329,-2.16797 7.5586,-2.16797 5.9414,0 6.59765,4.32422 6.59765,6.72656 v 0.59766 c -11.21484,-0.0586 -17.46093,3.78515 -17.46093,10.80468 0,4.19532 3,8.33204 8.88281,8.33204 4.13672,0 7.25391,-2.03907 8.88281,-4.3125 h 0.17578 l 0.42188,3.65625 z m -5.58985,-9.78516 c 0,0.55078 -0.11719,1.14844 -0.29297,1.6875 -0.84375,2.46094 -3.24609,4.86328 -7.01953,4.86328 -2.70703,0 -4.98047,-1.62891 -4.98047,-5.05078 0,-5.63672 6.53907,-6.65625 12.29297,-6.53906 z m 34.02832,-19.25391 -0.24609,4.38282 h -0.11719 c -1.26562,-2.40235 -4.01953,-5.03907 -9.05859,-5.03907 -6.66797,0 -13.07813,5.57813 -13.07813,15.41016 0,8.05078 5.15625,14.16797 12.35157,14.16797 4.5,0 7.6289,-2.16797 9.24609,-4.86328 h 0.11719 v 3.24609 c 0,7.3125 -3.96094,10.13672 -9.36328,10.13672 -3.59766,0 -6.59766,-1.07813 -8.51954,-2.28516 l -1.3125,4.01953 c 2.33204,1.5586 6.17579,2.40235 9.65625,2.40235 3.65625,0 7.73438,-0.84375 10.5586,-3.48047 2.82422,-2.51953 4.13672,-6.59766 4.13672,-13.25391 v -16.86328 c 0,-3.53906 0.1289,-5.88281 0.24609,-7.98047 z m -0.84375,16.67578 c 0,0.90235 -0.11718,1.92188 -0.42187,2.82422 -1.13672,3.36328 -4.07813,5.40235 -7.32422,5.40235 -5.69531,0 -8.57813,-4.7461 -8.57813,-10.44141 0,-6.72656 3.59766,-10.98047 8.64844,-10.98047 3.83203,0 6.41016,2.51953 7.3711,5.57813 0.24609,0.71484 0.30468,1.5 0.30468,2.40234 z m 18.89063,12.36329 v -29.03907 h -5.27344 v 29.03907 z m -2.63672,-40.5 c -1.92188,0 -3.30469,1.4414 -3.30469,3.30468 0,1.79297 1.32422,3.23438 3.1875,3.23438 2.09766,0 3.42188,-1.44141 3.36328,-3.23438 0,-1.86328 -1.26562,-3.30468 -3.24609,-3.30468 z m 11.40234,40.5 h 5.27344 v -17.46094 c 0,-0.90235 0.12891,-1.80469 0.36328,-2.46094 0.90235,-2.94141 3.59766,-5.40234 7.07813,-5.40234 4.98047,0 6.72656,3.90234 6.72656,8.58984 v 16.73438 h 5.27344 v -17.34375 c 0,-9.96094 -6.23438,-12.35157 -10.25391,-12.35157 -4.80469,0 -8.16797,2.69532 -9.60937,5.46094 h -0.11719 l -0.29297,-4.80469 h -4.6875 c 0.1875,2.40235 0.24609,4.86328 0.24609,7.86328 z m 54.18164,0 c -0.36328,-1.98047 -0.48047,-4.44141 -0.48047,-6.96094 v -10.86328 c 0,-5.8125 -2.16796,-11.8711 -11.05078,-11.8711 -3.65625,0 -7.13672,1.01953 -9.53906,2.57813 l 1.20703,3.48047 c 2.03906,-1.32422 4.86328,-2.16797 7.5586,-2.16797 5.9414,0 6.59765,4.32422 6.59765,6.72656 v 0.59766 c -11.21484,-0.0586 -17.46094,3.78515 -17.46094,10.80468 0,4.19532 3,8.33204 8.88282,8.33204 4.13672,0 7.2539,-2.03907 8.88281,-4.3125 h 0.17578 l 0.42188,3.65625 z m -5.58984,-9.78516 c 0,0.55078 -0.11719,1.14844 -0.29297,1.6875 -0.84375,2.46094 -3.24609,4.86328 -7.01953,4.86328 -2.70703,0 -4.98047,-1.62891 -4.98047,-5.05078 0,-5.63672 6.53906,-6.65625 12.29297,-6.53906 z m 14.58984,-26.21484 v 6.96093 h -4.5 v 4.01953 h 4.5 v 15.84375 c 0,3.41016 0.53907,6 2.03907,7.5586 1.26562,1.4414 3.24609,2.21484 5.70703,2.21484 2.03906,0 3.65625,-0.29297 4.67578,-0.71484 l -0.23438,-3.96094 c -0.66797,0.17578 -1.6875,0.36328 -3.07031,0.36328 -2.92969,0 -3.96094,-2.05078 -3.96094,-5.64844 v -15.65625 h 7.57032 v -4.01953 h -7.57032 v -8.34375 z m 23.93848,36 v -29.03907 h -5.27344 v 29.03907 z m -2.63672,-40.5 c -1.92187,0 -3.30469,1.4414 -3.30469,3.30468 0,1.79297 1.32422,3.23438 3.1875,3.23438 2.09766,0 3.42188,-1.44141 3.36328,-3.23438 0,-1.86328 -1.26562,-3.30468 -3.24609,-3.30468 z m 23.69531,10.80468 c -8.03906,0 -14.39062,5.69532 -14.39062,15.41016 0,9.1875 6.05859,14.94141 13.91015,14.94141 7.01954,0 14.46094,-4.67579 14.46094,-15.42188 0,-8.87109 -5.63672,-14.92969 -13.98047,-14.92969 z m -0.11718,3.96094 c 6.24609,0 8.70703,6.23438 8.70703,11.15625 0,6.53906 -3.78516,11.27344 -8.82422,11.27344 -5.15625,0 -8.82422,-4.79297 -8.82422,-11.15625 0,-5.51953 2.70703,-11.27344 8.94141,-11.27344 z m 20.76269,25.73438 h 5.27344 v -17.46094 c 0,-0.90235 0.12891,-1.80469 0.36328,-2.46094 0.90234,-2.94141 3.59766,-5.40234 7.07813,-5.40234 4.98046,0 6.72656,3.90234 6.72656,8.58984 v 16.73438 h 5.27344 v -17.34375 c 0,-9.96094 -6.23438,-12.35157 -10.25391,-12.35157 -4.80469,0 -8.16797,2.69532 -9.60938,5.46094 h -0.11718 l -0.29297,-4.80469 h -4.6875 c 0.1875,2.40235 0.24609,4.86328 0.24609,7.86328 z m 33.65332,7.01953 c 1.6875,-2.82422 4.32422,-9.48047 5.70703,-14.57813 l -5.88281,0.59766 c -0.65625,4.38281 -2.27344,10.80469 -3.59766,14.34375 z m 45.6709,-7.01953 c -0.36328,-1.98047 -0.48047,-4.44141 -0.48047,-6.96094 v -10.86328 c 0,-5.8125 -2.16797,-11.8711 -11.05078,-11.8711 -3.65625,0 -7.13672,1.01953 -9.53906,2.57813 l 1.20703,3.48047 c 2.03906,-1.32422 4.86328,-2.16797 7.55859,-2.16797 5.94141,0 6.59766,4.32422 6.59766,6.72656 v 0.59766 c -11.21484,-0.0586 -17.46094,3.78515 -17.46094,10.80468 0,4.19532 3,8.33204 8.88281,8.33204 4.13672,0 7.25391,-2.03907 8.88282,-4.3125 h 0.17578 l 0.42187,3.65625 z m -5.58984,-9.78516 c 0,0.55078 -0.11719,1.14844 -0.29297,1.6875 -0.84375,2.46094 -3.2461,4.86328 -7.01953,4.86328 -2.70703,0 -4.98047,-1.62891 -4.98047,-5.05078 0,-5.63672 6.53906,-6.65625 12.29297,-6.53906 z m 22.74902,-19.25391 11.03906,29.03907 h 5.03906 l 11.40235,-29.03907 h -5.53125 l -5.63672,16.32422 c -0.96094,2.63672 -1.79297,5.03906 -2.46094,7.42969 h -0.17578 c -0.59766,-2.39063 -1.38281,-4.79297 -2.34375,-7.42969 l -5.69531,-16.32422 z m 37.73145,29.03907 v -29.03907 h -5.27344 v 29.03907 z m -2.63672,-40.5 c -1.92188,0 -3.30469,1.4414 -3.30469,3.30468 0,1.79297 1.32422,3.23438 3.1875,3.23438 2.09766,0 3.42187,-1.44141 3.36328,-3.23438 0,-1.86328 -1.26562,-3.30468 -3.24609,-3.30468 z m 31.80468,11.46093 -0.24609,4.38282 h -0.11719 c -1.26562,-2.40235 -4.01953,-5.03907 -9.05859,-5.03907 -6.66797,0 -13.07813,5.57813 -13.07813,15.41016 0,8.05078 5.15625,14.16797 12.35157,14.16797 4.5,0 7.6289,-2.16797 9.24609,-4.86328 h 0.11719 v 3.24609 c 0,7.3125 -3.96094,10.13672 -9.36328,10.13672 -3.59766,0 -6.59766,-1.07813 -8.51953,-2.28516 l -1.3125,4.01953 c 2.33203,1.5586 6.17578,2.40235 9.65625,2.40235 3.65625,0 7.73437,-0.84375 10.55859,-3.48047 2.82422,-2.51953 4.13672,-6.59766 4.13672,-13.25391 v -16.86328 c 0,-3.53906 0.1289,-5.88281 0.24609,-7.98047 z m -0.84375,16.67578 c 0,0.90235 -0.11718,1.92188 -0.42187,2.82422 -1.13672,3.36328 -4.07813,5.40235 -7.32422,5.40235 -5.69531,0 -8.57812,-4.7461 -8.57812,-10.44141 0,-6.72656 3.59765,-10.98047 8.64843,-10.98047 3.83203,0 6.41016,2.51953 7.3711,5.57813 0.24609,0.71484 0.30468,1.5 0.30468,2.40234 z m 26.27637,-17.33203 c -8.03906,0 -14.39062,5.69532 -14.39062,15.41016 0,9.1875 6.05859,14.94141 13.91015,14.94141 7.01953,0 14.46094,-4.67579 14.46094,-15.42188 0,-8.87109 -5.63672,-14.92969 -13.98047,-14.92969 z m -0.11719,3.96094 c 6.2461,0 8.70703,6.23438 8.70703,11.15625 0,6.53906 -3.78515,11.27344 -8.82421,11.27344 -5.15625,0 -8.82422,-4.79297 -8.82422,-11.15625 0,-5.51953 2.70703,-11.27344 8.9414,-11.27344 z m 20.7627,25.73438 h 5.21484 v -15.48047 c 0,-0.90235 0.11719,-1.73438 0.2461,-2.46094 0.71484,-3.96094 3.35156,-6.77344 7.07812,-6.77344 0.71485,0 1.25391,0.0586 1.79297,0.17578 v -4.98047 c -0.48047,-0.11718 -0.89062,-0.17578 -1.5,-0.17578 -3.53906,0 -6.71484,2.46094 -8.03906,6.35157 h -0.23438 l -0.17578,-5.69532 h -4.6289 c 0.1875,2.69532 0.24609,5.63672 0.24609,9.0586 z m 44.63379,-29.69532 c -8.03906,0 -14.39063,5.69532 -14.39063,15.41016 0,9.1875 6.0586,14.94141 13.91016,14.94141 7.01953,0 14.46094,-4.67579 14.46094,-15.42188 0,-8.87109 -5.63672,-14.92969 -13.98047,-14.92969 z m -0.11719,3.96094 c 6.24609,0 8.70703,6.23438 8.70703,11.15625 0,6.53906 -3.78515,11.27344 -8.82422,11.27344 -5.15625,0 -8.82422,-4.79297 -8.82422,-11.15625 0,-5.51953 2.70704,-11.27344 8.94141,-11.27344 z m 26.5166,25.73438 v -25.01954 h 7.01953 v -4.01953 h -7.01953 v -1.55859 c 0,-4.44141 1.14844,-8.40234 5.64844,-8.40234 1.5,0 2.57812,0.30468 3.35156,0.65625 l 0.72656,-4.07813 c -1.01953,-0.42187 -2.64843,-0.84375 -4.5,-0.84375 -2.46093,0 -5.09765,0.78516 -7.07812,2.70703 -2.46094,2.34375 -3.36328,6.0586 -3.36328,10.13672 v 1.38281 h -4.07813 v 4.01953 h 4.07813 v 25.01954 z m 25.68164,-36 v 6.96093 h -4.5 v 4.01953 h 4.5 v 15.84375 c 0,3.41016 0.53907,6 2.03907,7.5586 1.26562,1.4414 3.24609,2.21484 5.70703,2.21484 2.03906,0 3.65625,-0.29297 4.67578,-0.71484 l -0.23438,-3.96094 c -0.66797,0.17578 -1.6875,0.36328 -3.07031,0.36328 -2.92969,0 -3.96094,-2.05078 -3.96094,-5.64844 v -15.65625 h 7.57032 v -4.01953 h -7.57032 v -8.34375 z m 18.66504,36 h 5.27344 v -17.51954 c 0,-1.01953 0.0586,-1.80468 0.36328,-2.51953 0.96094,-2.88281 3.65625,-5.28515 7.07813,-5.28515 4.98046,0 6.72656,3.96093 6.72656,8.64843 v 16.67579 h 5.27344 v -17.28516 c 0,-10.01953 -6.23438,-12.41016 -10.13672,-12.41016 -1.98047,0 -3.84375,0.59766 -5.40235,1.5 -1.61718,0.89063 -2.9414,2.21485 -3.77343,3.71485 h -0.12891 v -18.11719 h -5.27344 z m 56.63379,-13.5586 c 0.0703,-0.53906 0.1875,-1.38281 0.1875,-2.46094 0,-5.34375 -2.51953,-13.67578 -12,-13.67578 -8.46094,0 -13.61719,6.89063 -13.61719,15.65625 0,8.75391 5.33203,14.63672 14.27344,14.63672 4.61719,0 7.80469,-0.96094 9.65625,-1.79297 l -0.89062,-3.78515 c -1.98047,0.84375 -4.26563,1.5 -8.03907,1.5 -5.28515,0 -9.84375,-2.94141 -9.96093,-10.07813 z m -20.33203,-3.78515 c 0.42187,-3.65625 2.75391,-8.57813 8.09766,-8.57813 5.9414,0 7.38281,5.22656 7.32421,8.57813 z m 63.11133,3.78515 c 0.0703,-0.53906 0.1875,-1.38281 0.1875,-2.46094 0,-5.34375 -2.51953,-13.67578 -12,-13.67578 -8.46094,0 -13.61719,6.89063 -13.61719,15.65625 0,8.75391 5.33203,14.63672 14.27344,14.63672 4.61719,0 7.80469,-0.96094 9.65625,-1.79297 l -0.89063,-3.78515 c -1.98047,0.84375 -4.26562,1.5 -8.03906,1.5 -5.28516,0 -9.84375,-2.94141 -9.96094,-10.07813 z m -20.33203,-3.78515 c 0.42187,-3.65625 2.7539,-8.57813 8.09765,-8.57813 5.94141,0 7.38282,5.22656 7.32422,8.57813 z m 27.05859,17.34375 h 5.15625 v -17.51954 c 0,-0.90234 0.11719,-1.80468 0.42188,-2.57812 0.84375,-2.63672 3.23437,-5.28516 6.53906,-5.28516 4.01953,0 6.05859,3.36328 6.05859,7.98047 v 17.40235 h 5.15625 v -17.94141 c 0,-0.96094 0.1875,-1.92188 0.42188,-2.63672 0.90234,-2.57812 3.24609,-4.80469 6.24609,-4.80469 4.25391,0 6.29297,3.36328 6.29297,8.94141 v 16.44141 h 5.16797 v -17.09766 c 0,-10.07813 -5.70703,-12.59766 -9.53906,-12.59766 -2.76563,0 -4.6875,0.71485 -6.42188,2.03907 -1.20703,0.89062 -2.34375,2.15625 -3.24609,3.77343 h -0.11719 c -1.25391,-3.42187 -4.25391,-5.8125 -8.21484,-5.8125 -4.80469,0 -7.5,2.57813 -9.12891,5.33203 h -0.17578 l -0.23438,-4.67578 h -4.6289 c 0.1875,2.40235 0.24609,4.86328 0.24609,7.86328 z m 62.33496,-29.69532 c -8.03906,0 -14.39062,5.69532 -14.39062,15.41016 0,9.1875 6.05859,14.94141 13.91015,14.94141 7.01953,0 14.46094,-4.67579 14.46094,-15.42188 0,-8.87109 -5.63672,-14.92969 -13.98047,-14.92969 z m -0.11719,3.96094 c 6.2461,0 8.70703,6.23438 8.70703,11.15625 0,6.53906 -3.78515,11.27344 -8.82421,11.27344 -5.15625,0 -8.82422,-4.79297 -8.82422,-11.15625 0,-5.51953 2.70703,-11.27344 8.9414,-11.27344 z m 21.95801,-10.26562 v 6.96093 h -4.5 v 4.01953 h 4.5 v 15.84375 c 0,3.41016 0.53906,6 2.03906,7.5586 1.26563,1.4414 3.2461,2.21484 5.70704,2.21484 2.03906,0 3.65625,-0.29297 4.67578,-0.71484 l -0.23438,-3.96094 c -0.66797,0.17578 -1.6875,0.36328 -3.07031,0.36328 -2.92969,0 -3.96094,-2.05078 -3.96094,-5.64844 v -15.65625 h 7.57031 v -4.01953 h -7.57031 v -8.34375 z m 23.93848,36 v -29.03907 h -5.27344 v 29.03907 z m -2.63672,-40.5 c -1.92188,0 -3.30469,1.4414 -3.30469,3.30468 0,1.79297 1.32422,3.23438 3.1875,3.23438 2.09766,0 3.42188,-1.44141 3.36328,-3.23438 0,-1.86328 -1.26562,-3.30468 -3.24609,-3.30468 z m 23.69531,10.80468 c -8.03906,0 -14.39062,5.69532 -14.39062,15.41016 0,9.1875 6.05859,14.94141 13.91015,14.94141 7.01953,0 14.46094,-4.67579 14.46094,-15.42188 0,-8.87109 -5.63672,-14.92969 -13.98047,-14.92969 z m -0.11719,3.96094 c 6.2461,0 8.70704,6.23438 8.70704,11.15625 0,6.53906 -3.78516,11.27344 -8.82422,11.27344 -5.15625,0 -8.82422,-4.79297 -8.82422,-11.15625 0,-5.51953 2.70703,-11.27344 8.9414,-11.27344 z m 20.76563,25.73438 h 5.27344 v -17.46094 c 0,-0.90235 0.1289,-1.80469 0.36328,-2.46094 0.90234,-2.94141 3.59765,-5.40234 7.07812,-5.40234 4.98047,0 6.72657,3.90234 6.72657,8.58984 v 16.73438 h 5.27343 v -17.34375 c 0,-9.96094 -6.23437,-12.35157 -10.2539,-12.35157 -4.80469,0 -8.16797,2.69532 -9.60938,5.46094 h -0.11719 l -0.29296,-4.80469 h -4.6875 c 0.1875,2.40235 0.24609,4.86328 0.24609,7.86328 z m 31.25976,-1.38282 c 2.03907,1.20703 4.98047,1.98047 8.15625,1.98047 6.90235,0 10.86328,-3.59765 10.86328,-8.69531 0,-4.32422 -2.57812,-6.84375 -7.6289,-8.76563 -3.77344,-1.4414 -5.51953,-2.51953 -5.51953,-4.92187 0,-2.15625 1.74609,-3.94922 4.86328,-3.94922 2.70703,0 4.80469,0.94922 5.94141,1.67578 l 1.32421,-3.84375 c -1.6289,-0.96094 -4.20703,-1.79297 -7.14843,-1.79297 -6.23438,0 -10.01953,3.83203 -10.01953,8.51953 0,3.48047 2.46093,6.35157 7.6875,8.21485 3.90234,1.4414 5.40234,2.82422 5.40234,5.34375 0,2.40234 -1.80469,4.3125 -5.64844,4.3125 -2.63672,0 -5.40234,-1.07813 -6.96094,-2.09766 z m 26.09183,8.40235 c 1.6875,-2.82422 4.3242,-9.48047 5.7656,-14.57813 l -5.8242,0.59766 c -0.6563,4.38281 -2.2735,10.80469 -3.5977,14.34375 z m 2.4609,-27.53907 c 2.168,0 3.5391,-1.61718 3.5391,-3.71484 0,-2.22656 -1.3711,-3.78516 -3.5391,-3.78516 -2.0391,0 -3.5391,1.5586 -3.5391,3.78516 0,2.09766 1.4415,3.71484 3.5391,3.71484 z m 27.6592,20.51954 v -29.03907 h -5.2734 v 29.03907 z m -2.6367,-40.5 c -1.9219,0 -3.3047,1.4414 -3.3047,3.30468 0,1.79297 1.3242,3.23438 3.1875,3.23438 2.0976,0 3.4219,-1.44141 3.3633,-3.23438 0,-1.86328 -1.2657,-3.30468 -3.2461,-3.30468 z m 12.6006,4.5 v 6.96093 h -4.5 v 4.01953 h 4.5 v 15.84375 c 0,3.41016 0.539,6 2.039,7.5586 1.2656,1.4414 3.2461,2.21484 5.7071,2.21484 2.039,0 3.6562,-0.29297 4.6757,-0.71484 l -0.2343,-3.96094 c -0.668,0.17578 -1.6875,0.36328 -3.0704,0.36328 -2.9296,0 -3.9609,-2.05078 -3.9609,-5.64844 v -15.65625 h 7.5703 v -4.01953 h -7.5703 v -8.34375 z m 36.6562,36 v -29.03907 h -5.2734 v 29.03907 z m -2.6367,-40.5 c -1.9219,0 -3.3047,1.4414 -3.3047,3.30468 0,1.79297 1.3242,3.23438 3.1875,3.23438 2.0977,0 3.4219,-1.44141 3.3633,-3.23438 0,-1.86328 -1.2656,-3.30468 -3.2461,-3.30468 z m 9.3662,39.11718 c 2.0391,1.20703 4.9805,1.98047 8.1562,1.98047 6.9024,0 10.8633,-3.59765 10.8633,-8.69531 0,-4.32422 -2.5781,-6.84375 -7.6289,-8.76563 -3.7734,-1.4414 -5.5195,-2.51953 -5.5195,-4.92187 0,-2.15625 1.7461,-3.94922 4.8633,-3.94922 2.707,0 4.8047,0.94922 5.9414,1.67578 l 1.3242,-3.84375 c -1.6289,-0.96094 -4.207,-1.79297 -7.1484,-1.79297 -6.2344,0 -10.0196,3.83203 -10.0196,8.51953 0,3.48047 2.461,6.35157 7.6875,8.21485 3.9024,1.4414 5.4024,2.82422 5.4024,5.34375 0,2.40234 -1.8047,4.3125 -5.6485,4.3125 -2.6367,0 -5.4023,-1.07813 -6.9609,-2.09766 z m 39.7148,-34.61718 v 6.96093 h -4.5 v 4.01953 h 4.5 v 15.84375 c 0,3.41016 0.5391,6 2.0391,7.5586 1.2656,1.4414 3.2461,2.21484 5.707,2.21484 2.0391,0 3.6563,-0.29297 4.6758,-0.71484 l -0.2344,-3.96094 c -0.6679,0.17578 -1.6875,0.36328 -3.0703,0.36328 -2.9297,0 -3.9609,-2.05078 -3.9609,-5.64844 v -15.65625 h 7.5703 v -4.01953 h -7.5703 v -8.34375 z m 18.6622,36 h 5.2734 v -17.51954 c 0,-1.01953 0.059,-1.80468 0.3633,-2.51953 0.9609,-2.88281 3.6562,-5.28515 7.0781,-5.28515 4.9805,0 6.7266,3.96093 6.7266,8.64843 v 16.67579 h 5.2734 v -17.28516 c 0,-10.01953 -6.2344,-12.41016 -10.1367,-12.41016 -1.9805,0 -3.8438,0.59766 -5.4024,1.5 -1.6172,0.89063 -2.9414,2.21485 -3.7734,3.71485 h -0.1289 v -18.11719 h -5.2734 z m 56.6337,-13.5586 c 0.07,-0.53906 0.1875,-1.38281 0.1875,-2.46094 0,-5.34375 -2.5195,-13.67578 -12,-13.67578 -8.4609,0 -13.6171,6.89063 -13.6171,15.65625 0,8.75391 5.332,14.63672 14.2734,14.63672 4.6172,0 7.8047,-0.96094 9.6562,-1.79297 l -0.8906,-3.78515 c -1.9805,0.84375 -4.2656,1.5 -8.039,1.5 -5.2852,0 -9.8438,-2.94141 -9.961,-10.07813 z m -20.332,-3.78515 c 0.4219,-3.65625 2.7539,-8.57813 8.0977,-8.57813 5.9414,0 7.3828,5.22656 7.3242,8.57813 z m 45.5332,17.34375 v -25.01954 h 7.0195 v -4.01953 h -7.0195 v -1.55859 c 0,-4.44141 1.1485,-8.40234 5.6485,-8.40234 1.5,0 2.5781,0.30468 3.3515,0.65625 l 0.7266,-4.07813 c -1.0196,-0.42187 -2.6485,-0.84375 -4.5,-0.84375 -2.461,0 -5.0977,0.78516 -7.0781,2.70703 -2.461,2.34375 -3.3633,6.0586 -3.3633,10.13672 v 1.38281 h -4.0782 v 4.01953 h 4.0782 v 25.01954 z m 11.7656,0 h 5.2149 v -15.48047 c 0,-0.90235 0.1172,-1.73438 0.2461,-2.46094 0.7148,-3.96094 3.3515,-6.77344 7.0781,-6.77344 0.7148,0 1.2539,0.0586 1.793,0.17578 v -4.98047 c -0.4805,-0.11718 -0.8907,-0.17578 -1.5,-0.17578 -3.5391,0 -6.7149,2.46094 -8.0391,6.35157 h -0.2344 l -0.1757,-5.69532 h -4.629 c 0.1875,2.69532 0.2461,5.63672 0.2461,9.0586 z m 42.3516,-13.5586 c 0.07,-0.53906 0.1875,-1.38281 0.1875,-2.46094 0,-5.34375 -2.5195,-13.67578 -12,-13.67578 -8.4609,0 -13.6172,6.89063 -13.6172,15.65625 0,8.75391 5.332,14.63672 14.2735,14.63672 4.6171,0 7.8046,-0.96094 9.6562,-1.79297 l -0.8906,-3.78515 c -1.9805,0.84375 -4.2656,1.5 -8.0391,1.5 -5.2851,0 -9.8437,-2.94141 -9.9609,-10.07813 z m -20.332,-3.78515 c 0.4218,-3.65625 2.7539,-8.57813 8.0976,-8.57813 5.9414,0 7.3828,5.22656 7.3242,8.57813 z m 25.0224,15.96093 c 2.0391,1.20703 4.9805,1.98047 8.1563,1.98047 6.9023,0 10.8633,-3.59765 10.8633,-8.69531 0,-4.32422 -2.5782,-6.84375 -7.6289,-8.76563 -3.7735,-1.4414 -5.5196,-2.51953 -5.5196,-4.92187 0,-2.15625 1.7461,-3.94922 4.8633,-3.94922 2.707,0 4.8047,0.94922 5.9414,1.67578 l 1.3242,-3.84375 c -1.6289,-0.96094 -4.207,-1.79297 -7.1484,-1.79297 -6.2344,0 -10.0195,3.83203 -10.0195,8.51953 0,3.48047 2.4609,6.35157 7.6875,8.21485 3.9023,1.4414 5.4023,2.82422 5.4023,5.34375 0,2.40234 -1.8047,4.3125 -5.6484,4.3125 -2.6368,0 -5.4024,-1.07813 -6.961,-2.09766 z m 25.7989,1.38282 h 5.2734 v -17.51954 c 0,-1.01953 0.059,-1.80468 0.3633,-2.51953 0.9609,-2.88281 3.6562,-5.28515 7.0781,-5.28515 4.9805,0 6.7266,3.96093 6.7266,8.64843 v 16.67579 h 5.2734 v -17.28516 c 0,-10.01953 -6.2344,-12.41016 -10.1367,-12.41016 -1.9805,0 -3.8438,0.59766 -5.4024,1.5 -1.6171,0.89063 -2.9414,2.21485 -3.7734,3.71485 h -0.1289 v -18.11719 h -5.2734 z m 33.2988,0 h 5.2734 v -17.46094 c 0,-0.90235 0.1289,-1.80469 0.3633,-2.46094 0.9023,-2.94141 3.5977,-5.40234 7.0781,-5.40234 4.9805,0 6.7266,3.90234 6.7266,8.58984 v 16.73438 h 5.2734 v -17.34375 c 0,-9.96094 -6.2343,-12.35157 -10.2539,-12.35157 -4.8047,0 -8.1679,2.69532 -9.6094,5.46094 h -0.1171 l -0.293,-4.80469 h -4.6875 c 0.1875,2.40235 0.2461,4.86328 0.2461,7.86328 z m 56.6338,-13.5586 c 0.07,-0.53906 0.1875,-1.38281 0.1875,-2.46094 0,-5.34375 -2.5196,-13.67578 -12,-13.67578 -8.461,0 -13.6172,6.89063 -13.6172,15.65625 0,8.75391 5.332,14.63672 14.2734,14.63672 4.6172,0 7.8047,-0.96094 9.6563,-1.79297 l -0.8906,-3.78515 c -1.9805,0.84375 -4.2657,1.5 -8.0391,1.5 -5.2852,0 -9.8438,-2.94141 -9.9609,-10.07813 z m -20.3321,-3.78515 c 0.4219,-3.65625 2.754,-8.57813 8.0977,-8.57813 5.9414,0 7.3828,5.22656 7.3242,8.57813 z m 25.0196,15.96093 c 2.039,1.20703 4.9804,1.98047 8.1562,1.98047 6.9024,0 10.8633,-3.59765 10.8633,-8.69531 0,-4.32422 -2.5781,-6.84375 -7.6289,-8.76563 -3.7734,-1.4414 -5.5195,-2.51953 -5.5195,-4.92187 0,-2.15625 1.7461,-3.94922 4.8633,-3.94922 2.707,0 4.8046,0.94922 5.9414,1.67578 l 1.3242,-3.84375 c -1.6289,-0.96094 -4.2071,-1.79297 -7.1485,-1.79297 -6.2343,0 -10.0195,3.83203 -10.0195,8.51953 0,3.48047 2.4609,6.35157 7.6875,8.21485 3.9024,1.4414 5.4024,2.82422 5.4024,5.34375 0,2.40234 -1.8047,4.3125 -5.6485,4.3125 -2.6367,0 -5.4023,-1.07813 -6.9609,-2.09766 z m 23.7597,0 c 2.0391,1.20703 4.9805,1.98047 8.1563,1.98047 6.9023,0 10.8633,-3.59765 10.8633,-8.69531 0,-4.32422 -2.5782,-6.84375 -7.6289,-8.76563 -3.7735,-1.4414 -5.5196,-2.51953 -5.5196,-4.92187 0,-2.15625 1.7461,-3.94922 4.8633,-3.94922 2.707,0 4.8047,0.94922 5.9414,1.67578 l 1.3242,-3.84375 c -1.6289,-0.96094 -4.207,-1.79297 -7.1484,-1.79297 -6.2344,0 -10.0195,3.83203 -10.0195,8.51953 0,3.48047 2.4609,6.35157 7.6875,8.21485 3.9023,1.4414 5.4023,2.82422 5.4023,5.34375 0,2.40234 -1.8047,4.3125 -5.6484,4.3125 -2.6367,0 -5.4024,-1.07813 -6.961,-2.09766 z m 50.8125,-28.3125 c -8.039,0 -14.3906,5.69532 -14.3906,15.41016 0,9.1875 6.0586,14.94141 13.9102,14.94141 7.0195,0 14.4609,-4.67579 14.4609,-15.42188 0,-8.87109 -5.6367,-14.92969 -13.9805,-14.92969 z m -0.1171,3.96094 c 6.246,0 8.707,6.23438 8.707,11.15625 0,6.53906 -3.7852,11.27344 -8.8242,11.27344 -5.1563,0 -8.8243,-4.79297 -8.8243,-11.15625 0,-5.51953 2.7071,-11.27344 8.9415,-11.27344 z m 26.5195,25.73438 v -25.01954 h 7.0195 v -4.01953 h -7.0195 v -1.55859 c 0,-4.44141 1.1484,-8.40234 5.6484,-8.40234 1.5,0 2.5781,0.30468 3.3516,0.65625 l 0.7265,-4.07813 c -1.0195,-0.42187 -2.6484,-0.84375 -4.5,-0.84375 -2.4609,0 -5.0976,0.78516 -7.0781,2.70703 -2.4609,2.34375 -3.3633,6.0586 -3.3633,10.13672 v 1.38281 h -4.0781 v 4.01953 h 4.0781 v 25.01954 z m 25.6816,-36 v 6.96093 h -4.5 v 4.01953 h 4.5 v 15.84375 c 0,3.41016 0.5391,6 2.0391,7.5586 1.2656,1.4414 3.2461,2.21484 5.707,2.21484 2.0391,0 3.6563,-0.29297 4.6758,-0.71484 l -0.2344,-3.96094 c -0.6679,0.17578 -1.6875,0.36328 -3.0703,0.36328 -2.9297,0 -3.9609,-2.05078 -3.9609,-5.64844 v -15.65625 h 7.5703 v -4.01953 h -7.5703 v -8.34375 z m 18.6621,36 h 5.2735 v -17.51954 c 0,-1.01953 0.059,-1.80468 0.3633,-2.51953 0.9609,-2.88281 3.6562,-5.28515 7.0781,-5.28515 4.9804,0 6.7265,3.96093 6.7265,8.64843 v 16.67579 h 5.2735 v -17.28516 c 0,-10.01953 -6.2344,-12.41016 -10.1367,-12.41016 -1.9805,0 -3.8438,0.59766 -5.4024,1.5 -1.6172,0.89063 -2.9414,2.21485 -3.7734,3.71485 h -0.1289 v -18.11719 h -5.2735 z m 56.6338,-13.5586 c 0.07,-0.53906 0.1875,-1.38281 0.1875,-2.46094 0,-5.34375 -2.5195,-13.67578 -12,-13.67578 -8.4609,0 -13.6172,6.89063 -13.6172,15.65625 0,8.75391 5.3321,14.63672 14.2735,14.63672 4.6172,0 7.8047,-0.96094 9.6562,-1.79297 l -0.8906,-3.78515 c -1.9805,0.84375 -4.2656,1.5 -8.0391,1.5 -5.2851,0 -9.8437,-2.94141 -9.9609,-10.07813 z m -20.332,-3.78515 c 0.4219,-3.65625 2.7539,-8.57813 8.0976,-8.57813 5.9415,0 7.3829,5.22656 7.3243,8.57813 z m 59.5723,-25.25391 v 17.33203 h -0.1172 c -1.3242,-2.33203 -4.3242,-4.42969 -8.7539,-4.42969 -7.0899,0 -13.0899,5.92969 -13.0196,15.59766 0,8.8125 5.3907,14.75391 12.4102,14.75391 4.7461,0 8.2851,-2.46094 9.9023,-5.69532 h 0.1172 l 0.2461,5.03907 h 4.7344 c -0.1758,-1.98047 -0.2344,-4.92188 -0.2344,-7.5 v -35.09766 z m 0,30.42187 c 0,0.83204 -0.059,1.5586 -0.2344,2.27344 -0.961,3.96094 -4.207,6.30469 -7.7461,6.30469 -5.6953,0 -8.5781,-4.86328 -8.5781,-10.74609 0,-6.42188 3.2461,-11.21485 8.707,-11.21485 3.9609,0 6.832,2.75391 7.6172,6.11719 0.1758,0.65625 0.2344,1.55859 0.2344,2.22656 z m 37.3798,-1.38281 c 0.07,-0.53906 0.1875,-1.38281 0.1875,-2.46094 0,-5.34375 -2.5195,-13.67578 -12,-13.67578 -8.4609,0 -13.6171,6.89063 -13.6171,15.65625 0,8.75391 5.332,14.63672 14.2734,14.63672 4.6172,0 7.8047,-0.96094 9.6562,-1.79297 l -0.8906,-3.78515 c -1.9805,0.84375 -4.2656,1.5 -8.039,1.5 -5.2852,0 -9.8438,-2.94141 -9.961,-10.07813 z m -20.332,-3.78515 c 0.4219,-3.65625 2.7539,-8.57813 8.0977,-8.57813 5.9414,0 7.3828,5.22656 7.3242,8.57813 z m 50.3906,3.78515 c 0.07,-0.53906 0.1875,-1.38281 0.1875,-2.46094 0,-5.34375 -2.5195,-13.67578 -12,-13.67578 -8.4609,0 -13.6172,6.89063 -13.6172,15.65625 0,8.75391 5.3321,14.63672 14.2735,14.63672 4.6172,0 7.8047,-0.96094 9.6562,-1.79297 l -0.8906,-3.78515 c -1.9805,0.84375 -4.2656,1.5 -8.0391,1.5 -5.2851,0 -9.8437,-2.94141 -9.9609,-10.07813 z m -20.332,-3.78515 c 0.4219,-3.65625 2.7539,-8.57813 8.0977,-8.57813 5.9414,0 7.3828,5.22656 7.3242,8.57813 z m 27.0615,29.22656 h 5.2149 v -15.78516 h 0.1172 c 1.7461,2.88281 5.1093,4.5586 8.9414,4.5586 6.8437,0 13.207,-5.15625 13.207,-15.59766 0,-8.82422 -5.2852,-14.75391 -12.3047,-14.75391 -4.7344,0 -8.1562,2.09766 -10.3242,5.63672 h -0.1172 l -0.2344,-4.98047 h -4.7461 c 0.1289,2.75391 0.2461,5.75391 0.2461,9.48047 z m 5.2149,-28.6875 c 0,-0.71485 0.1875,-1.5 0.3633,-2.15625 1.0195,-3.96094 4.3828,-6.53906 7.9804,-6.53906 5.5781,0 8.6367,4.98046 8.6367,10.80468 0,6.65625 -3.2343,11.21485 -8.8125,11.21485 -3.7851,0 -6.9609,-2.51953 -7.9218,-6.17578 -0.1289,-0.66797 -0.2461,-1.38282 -0.2461,-2.16797 z M 2.34495,214.61687 c 2.0390625,1.20703 4.9804687,1.98047 8.15625,1.98047 6.902344,0 10.863281,-3.59765 10.863281,-8.69531 0,-4.32422 -2.578125,-6.84375 -7.628906,-8.76563 -3.7734375,-1.4414 -5.5195313,-2.51953 -5.5195313,-4.92187 0,-2.15625 1.7460938,-3.94922 4.8632813,-3.94922 2.707031,0 4.804687,0.94922 5.941406,1.67578 l 1.324219,-3.84375 c -1.628906,-0.96094 -4.207031,-1.79297 -7.148438,-1.79297 -6.2343745,0 -10.0195308,3.83203 -10.0195308,8.51953 0,3.48047 2.4609375,6.35157 7.6874998,8.21485 3.902344,1.4414 5.402344,2.82422 5.402344,5.34375 0,2.40234 -1.804688,4.3125 -5.648438,4.3125 -2.6367183,0 -5.4023433,-1.07813 -6.960937,-2.09766 z m 25.798828,13.26563 h 5.214844 v -15.78516 h 0.117187 c 1.746094,2.88281 5.109375,4.5586 8.941407,4.5586 6.84375,0 13.207031,-5.15625 13.207031,-15.59766 0,-8.82422 -5.285156,-14.75391 -12.304688,-14.75391 -4.734375,0 -8.15625,2.09766 -10.324218,5.63672 h -0.117188 l -0.234375,-4.98047 h -4.746094 c 0.128907,2.75391 0.246094,5.75391 0.246094,9.48047 z m 5.214844,-28.6875 c 0,-0.71485 0.1875,-1.5 0.363281,-2.15625 1.019531,-3.96094 4.382813,-6.53906 7.980469,-6.53906 5.578125,0 8.636719,4.98046 8.636719,10.80468 0,6.65625 -3.234375,11.21485 -8.8125,11.21485 -3.785157,0 -6.960938,-2.51953 -7.921875,-6.17578 -0.128907,-0.66797 -0.246094,-1.38282 -0.246094,-2.16797 z m 28.924805,16.80469 h 5.214843 v -15.48047 c 0,-0.90235 0.117188,-1.73438 0.246094,-2.46094 0.714844,-3.96094 3.351563,-6.77344 7.078125,-6.77344 0.714844,0 1.253906,0.0586 1.792969,0.17578 v -4.98047 c -0.480469,-0.11718 -0.890625,-0.17578 -1.5,-0.17578 -3.539063,0 -6.714844,2.46094 -8.039063,6.35157 H 66.84202 l -0.175781,-5.69532 h -4.628906 c 0.1875,2.69532 0.246094,5.63672 0.246094,9.0586 z m 25.133789,0 v -29.03907 h -5.273438 v 29.03907 z m -2.636719,-40.5 c -1.921875,0 -3.304688,1.4414 -3.304688,3.30468 0,1.79297 1.324219,3.23438 3.1875,3.23438 2.097657,0 3.421875,-1.44141 3.363282,-3.23438 0,-1.86328 -1.265625,-3.30468 -3.246094,-3.30468 z m 11.402344,40.5 h 5.273439 v -17.46094 c 0,-0.90235 0.1289,-1.80469 0.36328,-2.46094 0.90234,-2.94141 3.59766,-5.40234 7.07812,-5.40234 4.98047,0 6.72657,3.90234 6.72657,8.58984 v 16.73438 h 5.27343 v -17.34375 c 0,-9.96094 -6.23437,-12.35157 -10.2539,-12.35157 -4.80469,0 -8.16797,2.69532 -9.60938,5.46094 h -0.11718 l -0.29297,-4.80469 h -4.687503 c 0.1875,2.40235 0.246094,4.86328 0.246094,7.86328 z m 53.701169,-29.03907 -0.24609,4.38282 h -0.11719 c -1.26562,-2.40235 -4.01953,-5.03907 -9.05859,-5.03907 -6.66797,0 -13.07813,5.57813 -13.07813,15.41016 0,8.05078 5.15625,14.16797 12.35156,14.16797 4.5,0 7.62891,-2.16797 9.2461,-4.86328 h 0.11719 v 3.24609 c 0,7.3125 -3.96094,10.13672 -9.36329,10.13672 -3.59765,0 -6.59765,-1.07813 -8.51953,-2.28516 l -1.3125,4.01953 c 2.33203,1.5586 6.17578,2.40235 9.65625,2.40235 3.65625,0 7.73438,-0.84375 10.5586,-3.48047 2.82422,-2.51953 4.13672,-6.59766 4.13672,-13.25391 v -16.86328 c 0,-3.53906 0.1289,-5.88281 0.24609,-7.98047 z m -0.84375,16.67578 c 0,0.90235 -0.11719,1.92188 -0.42187,2.82422 -1.13672,3.36328 -4.07813,5.40235 -7.32422,5.40235 -5.69531,0 -8.57813,-4.7461 -8.57813,-10.44141 0,-6.72656 3.59766,-10.98047 8.64844,-10.98047 3.83203,0 6.41016,2.51953 7.37109,5.57813 0.2461,0.71484 0.30469,1.5 0.30469,2.40234 z m 11.94434,10.98047 c 2.03906,1.20703 4.98047,1.98047 8.15625,1.98047 6.90234,0 10.86328,-3.59765 10.86328,-8.69531 0,-4.32422 -2.57813,-6.84375 -7.62891,-8.76563 -3.77343,-1.4414 -5.51953,-2.51953 -5.51953,-4.92187 0,-2.15625 1.7461,-3.94922 4.86328,-3.94922 2.70703,0 4.80469,0.94922 5.94141,1.67578 l 1.32422,-3.84375 c -1.62891,-0.96094 -4.20703,-1.79297 -7.14844,-1.79297 -6.23437,0 -10.01953,3.83203 -10.01953,8.51953 0,3.48047 2.46094,6.35157 7.6875,8.21485 3.90234,1.4414 5.40234,2.82422 5.40234,5.34375 0,2.40234 -1.80468,4.3125 -5.64843,4.3125 -2.63672,0 -5.40235,-1.07813 -6.96094,-2.09766 z m 50.8125,-28.3125 c -8.03906,0 -14.39063,5.69532 -14.39063,15.41016 0,9.1875 6.0586,14.94141 13.91016,14.94141 7.01953,0 14.46094,-4.67579 14.46094,-15.42188 0,-8.87109 -5.63672,-14.92969 -13.98047,-14.92969 z m -0.11719,3.96094 c 6.24609,0 8.70703,6.23438 8.70703,11.15625 0,6.53906 -3.78515,11.27344 -8.82422,11.27344 -5.15625,0 -8.82422,-4.79297 -8.82422,-11.15625 0,-5.51953 2.70704,-11.27344 8.94141,-11.27344 z m 26.5166,25.73438 v -25.01954 h 7.01953 v -4.01953 h -7.01953 v -1.55859 c 0,-4.44141 1.14844,-8.40234 5.64844,-8.40234 1.5,0 2.57812,0.30468 3.35156,0.65625 l 0.72656,-4.07813 c -1.01953,-0.42187 -2.64843,-0.84375 -4.5,-0.84375 -2.46093,0 -5.09765,0.78516 -7.07812,2.70703 -2.46094,2.34375 -3.36328,6.0586 -3.36328,10.13672 v 1.38281 h -4.07813 v 4.01953 h 4.07813 v 25.01954 z m 24.48633,0 h 5.27344 v -42.59766 h -5.27344 z m 19.43262,0 v -29.03907 h -5.27344 v 29.03907 z m -2.63672,-40.5 c -1.92188,0 -3.30469,1.4414 -3.30469,3.30468 0,1.79297 1.32422,3.23438 3.1875,3.23438 2.09766,0 3.42188,-1.44141 3.36328,-3.23438 0,-1.86328 -1.26562,-3.30468 -3.24609,-3.30468 z m 17.15918,40.5 v -25.01954 h 7.01953 v -4.01953 h -7.01953 v -1.55859 c 0,-4.44141 1.14844,-8.40234 5.64844,-8.40234 1.5,0 2.57812,0.30468 3.35156,0.65625 l 0.72656,-4.07813 c -1.01953,-0.42187 -2.64844,-0.84375 -4.5,-0.84375 -2.46094,0 -5.09766,0.78516 -7.07812,2.70703 -2.46094,2.34375 -3.36329,6.0586 -3.36329,10.13672 v 1.38281 h -4.07812 v 4.01953 h 4.07812 v 25.01954 z m 34.31836,-13.5586 c 0.0703,-0.53906 0.1875,-1.38281 0.1875,-2.46094 0,-5.34375 -2.51953,-13.67578 -12,-13.67578 -8.46094,0 -13.61719,6.89063 -13.61719,15.65625 0,8.75391 5.33203,14.63672 14.27344,14.63672 4.61719,0 7.80469,-0.96094 9.65625,-1.79297 l -0.89063,-3.78515 c -1.98047,0.84375 -4.26562,1.5 -8.03906,1.5 -5.28516,0 -9.84375,-2.94141 -9.96094,-10.07813 z m -20.33203,-3.78515 c 0.42187,-3.65625 2.7539,-8.57813 8.09765,-8.57813 5.94141,0 7.38282,5.22656 7.32422,8.57813 z m 28.61132,18 c 2.22657,0 3.60938,-1.61719 3.60938,-3.77344 0,-2.22656 -1.44141,-3.78516 -3.55078,-3.78516 -2.09766,0 -3.59766,1.5586 -3.59766,3.78516 0,2.15625 1.44141,3.77344 3.53906,3.77344 z m 0,0" style="fill:#231916;fill-opacity:1;fill-rule:nonzero;stroke:none" aria-label="Youth is not a time of life; it is a state of mind; it is not a matter of rosy &#10;cheeks, red lips and supple knees; it is a matter of the will, a quality of &#10;the imagination, a vigor of the emotions; it is the freshness of the deep &#10;springs of life. " transform="matrix(1.3333333,0,0,1.3333333,362.4984,4014.8012)" />
    </g></svg>