<?xml version='1.0' encoding='utf-8'?>
<svg xmlns="http://www.w3.org/2000/svg" version="1.1" width="555.801" height="104.934" viewBox="1736.910 4071.910 555.801 104.934"><g id="object"><path id="path50" d="M 6.5966422,-3.28125e-4 V -6.0237656 L 11.342736,-14.156578 H 9.2567984 l -2.0390625,3.914062 C 6.6786734,-9.1761094 6.1982047,-8.2503281 5.7997672,-7.3245469 H 5.7528922 C 5.3075797,-8.3206406 4.8974234,-9.1761094 4.3466422,-10.242516 L 2.3544547,-14.156578 H 0.26851719 L 4.7450797,-6.0120469 V -3.28125e-4 Z M 15.599572,-10.394859 c -2.8125,0 -5.039063,1.9921871 -5.039063,5.4023434 0,3.2109375 2.121094,5.22656247 4.875,5.22656247 2.460938,0 5.0625,-1.64062497 5.0625,-5.40234377 0,-3.1054687 -1.980468,-5.2265621 -4.898437,-5.2265621 z m -0.03516,1.3828121 c 2.179687,0 3.035156,2.1914063 3.035156,3.9140625 0,2.2851563 -1.3125,3.9375 -3.082031,3.9375 -1.804688,0 -3.082032,-1.6757812 -3.082032,-3.9023437 0,-1.9335938 0.9375,-3.9492188 3.128907,-3.9492188 z m 15.773437,-1.1484371 h -1.851562 v 6.2343746 c 0,0.3398438 -0.05859,0.6679688 -0.164063,0.9492188 -0.339844,0.8085937 -1.207031,1.6757812 -2.4375,1.6757812 -1.6875,0 -2.273437,-1.3007812 -2.273437,-3.234375 v -5.6249996 h -1.851563 v 5.9414059 c 0,3.56249997 1.921875,4.45312497 3.515625,4.45312497 1.804688,0 2.871094,-1.078125 3.351563,-1.89843747 h 0.04687 l 0.105468,1.664062475 h 1.640625 C 31.349572,-0.79720313 31.337853,-1.7229844 31.337853,-2.7776719 Z m 3.483399,-2.4375 v 2.4375 H 33.23922 v 1.4062496 h 1.582032 v 5.5429688 c 0,1.1953125 0.1875,2.0976562 0.714843,2.64843747 0.433594,0.50390625 1.125,0.7734375 1.992188,0.7734375 0.714844,0 1.277344,-0.10546875 1.640625,-0.2578125 l -0.09375,-1.38281247 c -0.222656,0.070312 -0.585938,0.1289062 -1.066406,0.1289062 -1.03125,0 -1.382813,-0.7148437 -1.382813,-1.9804687 v -5.4726563 h 2.648438 v -1.4062496 h -2.648438 v -2.917969 z m 6.530273,12.597655875 h 1.851563 V -6.1292344 c 0,-0.3632812 0.01172,-0.6328125 0.117187,-0.890625 0.339844,-1.0078125 1.289063,-1.8398437 2.484375,-1.8398437 1.734375,0 2.34375,1.3828125 2.34375,3.0234375 v 5.835937475 h 1.851563 V -6.0472031 c 0,-3.5039063 -2.179688,-4.3476559 -3.550782,-4.3476559 -0.691406,0 -1.335937,0.210937 -1.886718,0.5273434 -0.5625,0.3164062 -1.03125,0.7734375 -1.324219,1.3007812 h -0.03516 v -6.3398436 h -1.851563 z m 17.958984,0 V -10.160484 H 57.458947 V -3.28125e-4 Z M 58.384728,-14.180016 c -0.679687,0 -1.160156,0.503907 -1.160156,1.160157 0,0.632812 0.46875,1.136718 1.113281,1.136718 0.738281,0 1.195313,-0.503906 1.171875,-1.136718 0,-0.65625 -0.433594,-1.160157 -1.125,-1.160157 z m 3.272461,13.69921912 c 0.714844,0.421875 1.746094,0.69140625 2.859375,0.69140625 2.414063,0 3.796875,-1.26562497 3.796875,-3.04687497 0,-1.5117188 -0.902344,-2.390625 -2.671875,-3.0703125 -1.324219,-0.5039063 -1.921875,-0.8789063 -1.921875,-1.7109375 0,-0.7617188 0.597656,-1.3945313 1.699219,-1.3945313 0.9375,0 1.675781,0.3398438 2.074219,0.5859375 l 0.457031,-1.3359375 c -0.5625,-0.3398441 -1.464844,-0.6328121 -2.496094,-0.6328121 -2.179687,0 -3.503906,1.3476559 -3.503906,2.9765621 0,1.21875 0.855469,2.2265625 2.683594,2.8828125 1.371093,0.5039063 1.898437,0.984375 1.898437,1.8632813 0,0.84375 -0.632812,1.5117187 -1.980469,1.5117187 -0.925781,0 -1.886718,-0.375 -2.4375,-0.7265625 z m 13.482422,0.480468755 h 1.851562 V -6.1057969 c 0,-0.3164062 0.03516,-0.6328125 0.117188,-0.8671875 0.316406,-1.03125 1.265625,-1.8867187 2.484375,-1.8867187 1.734375,0 2.34375,1.359375 2.34375,3 v 5.859374975 h 1.851562 V -6.0706406 c 0,-3.4804688 -2.179687,-4.3242184 -3.585937,-4.3242184 -1.6875,0 -2.859375,0.9492184 -3.363281,1.9101559 H 76.79196 L 76.686486,-10.160484 H 75.05758 c 0.05859,0.8320309 0.08203,1.6992184 0.08203,2.7421871 z M 91.094689,-10.394859 c -2.8125,0 -5.039062,1.9921871 -5.039062,5.4023434 0,3.2109375 2.121093,5.22656247 4.875,5.22656247 2.460937,0 5.0625,-1.64062497 5.0625,-5.40234377 0,-3.1054687 -1.980469,-5.2265621 -4.898438,-5.2265621 z m -0.03516,1.3828121 c 2.179687,0 3.035156,2.1914063 3.035156,3.9140625 0,2.2851563 -1.3125,3.9375 -3.082031,3.9375 -1.804688,0 -3.082031,-1.6757812 -3.082031,-3.9023437 0,-1.9335938 0.9375,-3.9492188 3.128906,-3.9492188 z m 7.6875,-3.5859371 v 2.4375 h -1.582031 v 1.4062496 h 1.582031 v 5.5429688 c 0,1.1953125 0.1875,2.0976562 0.714844,2.64843747 0.433593,0.50390625 1.125007,0.7734375 1.992187,0.7734375 0.71485,0 1.27735,-0.10546875 1.64063,-0.2578125 l -0.0937,-1.38281247 c -0.22266,0.070312 -0.58594,0.1289062 -1.06641,0.1289062 -1.03125,0 -1.38281,-0.7148437 -1.38281,-1.9804687 v -5.4726563 h 2.64844 v -1.4062496 h -2.64844 v -2.917969 z M 117.02828,-3.28125e-4 C 116.9111,-0.69173438 116.86422,-1.5589219 116.86422,-2.4378281 v -3.796875 c 0,-2.0390625 -0.75,-4.1601559 -3.86719,-4.1601559 -1.27734,0 -2.49609,0.351562 -3.33984,0.9023434 l 0.42187,1.21875 c 0.71485,-0.4570313 1.69922,-0.7617188 2.64844,-0.7617188 2.07422,0 2.3086,1.5117188 2.3086,2.3554688 v 0.2109375 c -3.92579,-0.023437 -6.10547,1.3242187 -6.10547,3.7851562 0,1.4648438 1.04297,2.91796877 3.10547,2.91796877 1.45312,0 2.54296,-0.71484375 3.10546,-1.51171877 h 0.0703 l 0.14062,1.277343775 z M 115.08297,-3.4222031 c 0,0.1875 -0.0469,0.3984375 -0.10547,0.5859375 -0.29297,0.8671875 -1.13672,1.6992187 -2.46094,1.6992187 -0.9375,0 -1.74609,-0.5625 -1.74609,-1.7578125 0,-1.9804687 2.29688,-2.3320312 4.3125,-2.296875 z m 9.63867,-9.1757809 v 2.4375 h -1.58203 v 1.4062496 h 1.58203 v 5.5429688 c 0,1.1953125 0.1875,2.0976562 0.71485,2.64843747 0.43359,0.50390625 1.125,0.7734375 1.99218,0.7734375 0.71485,0 1.27735,-0.10546875 1.64063,-0.2578125 l -0.0937,-1.38281247 c -0.22266,0.070312 -0.58594,0.1289062 -1.06641,0.1289062 -1.03125,0 -1.38281,-0.7148437 -1.38281,-1.9804687 v -5.4726563 h 2.64844 v -1.4062496 h -2.64844 v -2.917969 z m 8.38184,12.597655875 V -10.160484 h -1.85156 V -3.28125e-4 Z M 132.1777,-14.180016 c -0.67969,0 -1.16016,0.503907 -1.16016,1.160157 0,0.632812 0.46875,1.136718 1.11328,1.136718 0.73828,0 1.19531,-0.503906 1.17188,-1.136718 0,-0.65625 -0.4336,-1.160157 -1.125,-1.160157 z m 3.9873,14.179687875 h 1.80469 V -6.1292344 c 0,-0.3164062 0.0469,-0.6328125 0.14062,-0.9023437 0.30469,-0.9257813 1.13672,-1.8515625 2.29688,-1.8515625 1.40625,0 2.12109,1.171875 2.12109,2.7890625 v 6.093749975 h 1.80469 V -6.2815781 c 0,-0.328125 0.0586,-0.6679688 0.14063,-0.9257813 0.3164,-0.9023437 1.13671,-1.6757812 2.1914,-1.6757812 1.48828,0 2.20313,1.171875 2.20313,3.1289062 v 5.753906275 h 1.80468 V -5.9886094 c 0,-3.5273437 -1.99218,-4.4062496 -3.33984,-4.4062496 -0.96094,0 -1.64062,0.246093 -2.25,0.7148434 -0.41016,0.3164062 -0.80859,0.75 -1.125,1.3242187 h -0.0469 c -0.44532,-1.1953125 -1.48829,-2.0390621 -2.8711,-2.0390621 -1.6875,0 -2.625,0.9023434 -3.19922,1.8632809 h -0.0586 l -0.082,-1.6289059 h -1.61719 c 0.0586,0.8320309 0.082,1.6992184 0.082,2.7421871 z M 161.84957,-4.7464219 c 0.0234,-0.1875 0.0586,-0.4804687 0.0586,-0.8554687 0,-1.875 -0.87891,-4.7929684 -4.19532,-4.7929684 -2.96484,0 -4.76953,2.4140621 -4.76953,5.4843746 0,3.0585938 1.875,5.12109377 5.00391,5.12109377 1.61719,0 2.73047,-0.33984375 3.375,-0.6328125 l -0.31641,-1.32421877 c -0.6914,0.2929688 -1.48828,0.5273438 -2.8125,0.5273438 -1.85156,0 -3.44531,-1.03125 -3.48047,-3.5273438 z m -7.125,-1.3242187 c 0.15235,-1.2773438 0.97266,-3 2.83594,-3 2.08594,0 2.58984,1.828125 2.56641,3 z m 18.22852,-4.3242184 c -2.8125,0 -5.03906,1.9921871 -5.03906,5.4023434 0,3.2109375 2.12109,5.22656247 4.875,5.22656247 2.46093,0 5.0625,-1.64062497 5.0625,-5.40234377 0,-3.1054687 -1.98047,-5.2265621 -4.89844,-5.2265621 z m -0.0352,1.3828121 c 2.17969,0 3.03516,2.1914063 3.03516,3.9140625 0,2.2851563 -1.3125,3.9375 -3.08203,3.9375 -1.80469,0 -3.08203,-1.6757812 -3.08203,-3.9023437 0,-1.9335938 0.9375,-3.9492188 3.1289,-3.9492188 z m 9.28125,9.011718775 V -8.7542344 h 2.46094 v -1.4062496 h -2.46094 v -0.550782 c 0,-1.558593 0.39844,-2.941406 1.96875,-2.941406 0.52735,0 0.90235,0.105469 1.1836,0.234375 l 0.24609,-1.429687 c -0.35156,-0.140625 -0.92578,-0.292969 -1.57031,-0.292969 -0.86719,0 -1.79297,0.269531 -2.48438,0.949219 -0.85547,0.808593 -1.17187,2.121093 -1.17187,3.539062 v 0.492188 h -1.42969 v 1.4062496 h 1.42969 v 8.753906275 z m 8.56641,0 h 1.85156 V -14.906578 h -1.85156 z m 6.80859,0 V -10.160484 h -1.85156 V -3.28125e-4 Z M 196.6484,-14.180016 c -0.67969,0 -1.16016,0.503907 -1.16016,1.160157 0,0.632812 0.46875,1.136718 1.11329,1.136718 0.73828,0 1.19531,-0.503906 1.17187,-1.136718 0,-0.65625 -0.43359,-1.160157 -1.125,-1.160157 z m 6.00293,14.179687875 V -8.7542344 h 2.46094 v -1.4062496 h -2.46094 v -0.550782 c 0,-1.558593 0.39844,-2.941406 1.96875,-2.941406 0.52734,0 0.90234,0.105469 1.18359,0.234375 l 0.2461,-1.429687 c -0.35157,-0.140625 -0.92578,-0.292969 -1.57032,-0.292969 -0.86718,0 -1.79296,0.269531 -2.48437,0.949219 -0.85547,0.808593 -1.17188,2.121093 -1.17188,3.539062 v 0.492188 h -1.42968 v 1.4062496 h 1.42968 V -3.28125e-4 Z M 214.66305,-4.7464219 c 0.0234,-0.1875 0.0586,-0.4804687 0.0586,-0.8554687 0,-1.875 -0.8789,-4.7929684 -4.19531,-4.7929684 -2.96484,0 -4.76953,2.4140621 -4.76953,5.4843746 0,3.0585938 1.875,5.12109377 5.0039,5.12109377 1.61719,0 2.73047,-0.33984375 3.375,-0.6328125 l -0.3164,-1.32421877 c -0.69141,0.2929688 -1.48828,0.5273438 -2.8125,0.5273438 -1.85156,0 -3.44531,-1.03125 -3.48047,-3.5273438 z m -7.125,-1.3242187 c 0.15234,-1.2773438 0.97265,-3 2.83594,-3 2.08593,0 2.58984,1.828125 2.5664,3 z m 9.58301,8.53125 c 0.58593,-0.9960938 1.51172,-3.31640628 2.01562,-5.109375 l -2.03906,0.2109375 c -0.23438,1.53515622 -0.79688,3.7851562 -1.26563,5.015625 z m 0.85547,-9.6445313 c 0.76171,0 1.24218,-0.5625 1.24218,-1.3007812 0,-0.7734375 -0.48047,-1.3242188 -1.24218,-1.3242188 -0.71485,0 -1.23047,0.5507813 -1.23047,1.3242188 0,0.7382812 0.5039,1.3007812 1.23047,1.3007812 z m 9.6914,7.183593775 V -10.160484 h -1.85156 V -3.28125e-4 Z M 226.74215,-14.180016 c -0.67969,0 -1.16016,0.503907 -1.16016,1.160157 0,0.632812 0.46875,1.136718 1.11329,1.136718 0.73828,0 1.19531,-0.503906 1.17187,-1.136718 0,-0.65625 -0.43359,-1.160157 -1.125,-1.160157 z m 4.40918,1.582032 v 2.4375 h -1.58203 v 1.4062496 h 1.58203 v 5.5429688 c 0,1.1953125 0.1875,2.0976562 0.71484,2.64843747 0.4336,0.50390625 1.125,0.7734375 1.99219,0.7734375 0.71484,0 1.27734,-0.10546875 1.64063,-0.2578125 l -0.0937,-1.38281247 c -0.22266,0.070312 -0.58594,0.1289062 -1.06641,0.1289062 -1.03125,0 -1.38281,-0.7148437 -1.38281,-1.9804687 v -5.4726563 h 2.64843 v -1.4062496 h -2.64843 v -2.917969 z M 243.98336,-3.28125e-4 V -10.160484 H 242.1318 V -3.28125e-4 Z M 243.05758,-14.180016 c -0.67969,0 -1.16016,0.503907 -1.16016,1.160157 0,0.632812 0.46875,1.136718 1.11328,1.136718 0.73829,0 1.19532,-0.503906 1.17188,-1.136718 0,-0.65625 -0.43359,-1.160157 -1.125,-1.160157 z m 3.27246,13.69921912 c 0.71484,0.421875 1.74609,0.69140625 2.85938,0.69140625 2.41406,0 3.79687,-1.26562497 3.79687,-3.04687497 0,-1.5117188 -0.90234,-2.390625 -2.67187,-3.0703125 -1.32422,-0.5039063 -1.92188,-0.8789063 -1.92188,-1.7109375 0,-0.7617188 0.59766,-1.3945313 1.69922,-1.3945313 0.9375,0 1.67578,0.3398438 2.07422,0.5859375 l 0.45703,-1.3359375 c -0.5625,-0.3398441 -1.46484,-0.6328121 -2.49609,-0.6328121 -2.17969,0 -3.50391,1.3476559 -3.50391,2.9765621 0,1.21875 0.85547,2.2265625 2.68359,2.8828125 1.3711,0.5039063 1.89844,0.984375 1.89844,1.8632813 0,0.84375 -0.63281,1.5117187 -1.98047,1.5117187 -0.92578,0 -1.88672,-0.375 -2.4375,-0.7265625 z m 20.78613,0.480468755 C 266.99899,-0.69173438 266.95211,-1.5589219 266.95211,-2.4378281 v -3.796875 c 0,-2.0390625 -0.75,-4.1601559 -3.86719,-4.1601559 -1.27734,0 -2.49609,0.351562 -3.33984,0.9023434 l 0.42187,1.21875 c 0.71485,-0.4570313 1.69922,-0.7617188 2.64844,-0.7617188 2.07422,0 2.3086,1.5117188 2.3086,2.3554688 v 0.2109375 c -3.92579,-0.023437 -6.10547,1.3242187 -6.10547,3.7851562 0,1.4648438 1.04297,2.91796877 3.10547,2.91796877 1.45312,0 2.54296,-0.71484375 3.10546,-1.51171877 h 0.0703 l 0.14062,1.277343775 z M 265.17086,-3.4222031 c 0,0.1875 -0.0469,0.3984375 -0.10547,0.5859375 -0.29297,0.8671875 -1.13672,1.6992187 -2.46094,1.6992187 -0.9375,0 -1.74609,-0.5625 -1.74609,-1.7578125 0,-1.9804687 2.29688,-2.3320312 4.3125,-2.296875 z m 8.50195,2.94140622 c 0.71485,0.421875 1.7461,0.69140625 2.85938,0.69140625 2.41406,0 3.79687,-1.26562497 3.79687,-3.04687497 0,-1.5117188 -0.90234,-2.390625 -2.67187,-3.0703125 -1.32422,-0.5039063 -1.92188,-0.8789063 -1.92188,-1.7109375 0,-0.7617188 0.59766,-1.3945313 1.69922,-1.3945313 0.9375,0 1.67578,0.3398438 2.07422,0.5859375 l 0.45703,-1.3359375 c -0.5625,-0.3398441 -1.46484,-0.6328121 -2.49609,-0.6328121 -2.17969,0 -3.50391,1.3476559 -3.50391,2.9765621 0,1.21875 0.85547,2.2265625 2.6836,2.8828125 1.37109,0.5039063 1.89843,0.984375 1.89843,1.8632813 0,0.84375 -0.63281,1.5117187 -1.98046,1.5117187 -0.92579,0 -1.88672,-0.375 -2.4375,-0.7265625 z m 9.45411,-12.11718712 v 2.4375 h -1.58204 v 1.4062496 h 1.58204 v 5.5429688 c 0,1.1953125 0.1875,2.0976562 0.71484,2.64843747 0.43359,0.50390625 1.125,0.7734375 1.99219,0.7734375 0.71484,0 1.27734,-0.10546875 1.64062,-0.2578125 l -0.0937,-1.38281247 c -0.22265,0.070312 -0.58594,0.1289062 -1.0664,0.1289062 -1.03125,0 -1.38282,-0.7148437 -1.38282,-1.9804687 v -5.4726563 h 2.64844 v -1.4062496 h -2.64844 v -2.917969 z M 296.95504,-3.28125e-4 C 296.83785,-0.69173438 296.79098,-1.5589219 296.79098,-2.4378281 v -3.796875 c 0,-2.0390625 -0.75,-4.1601559 -3.86719,-4.1601559 -1.27734,0 -2.49609,0.351562 -3.33984,0.9023434 l 0.42187,1.21875 c 0.71485,-0.4570313 1.69922,-0.7617188 2.64844,-0.7617188 2.07422,0 2.30859,1.5117188 2.30859,2.3554688 v 0.2109375 c -3.92578,-0.023437 -6.10547,1.3242187 -6.10547,3.7851562 0,1.4648438 1.04297,2.91796877 3.10547,2.91796877 1.45313,0 2.54297,-0.71484375 3.10547,-1.51171877 h 0.0703 l 0.14063,1.277343775 z M 295.00973,-3.4222031 c 0,0.1875 -0.0469,0.3984375 -0.10547,0.5859375 -0.29297,0.8671875 -1.13672,1.6992187 -2.46094,1.6992187 -0.9375,0 -1.74609,-0.5625 -1.74609,-1.7578125 0,-1.9804687 2.29687,-2.3320312 4.3125,-2.296875 z m 5.10644,-9.1757809 v 2.4375 h -1.58203 v 1.4062496 h 1.58203 v 5.5429688 c 0,1.1953125 0.1875,2.0976562 0.71485,2.64843747 0.43359,0.50390625 1.125,0.7734375 1.99218,0.7734375 0.71485,0 1.27735,-0.10546875 1.64063,-0.2578125 l -0.0937,-1.38281247 c -0.22266,0.070312 -0.58594,0.1289062 -1.06641,0.1289062 -1.03125,0 -1.38281,-0.7148437 -1.38281,-1.9804687 v -5.4726563 h 2.64844 v -1.4062496 h -2.64844 v -2.917969 z m 14.56934,7.8515621 c 0.0234,-0.1875 0.0586,-0.4804687 0.0586,-0.8554687 0,-1.875 -0.8789,-4.7929684 -4.19531,-4.7929684 -2.96484,0 -4.76953,2.4140621 -4.76953,5.4843746 0,3.0585938 1.875,5.12109377 5.00391,5.12109377 1.61718,0 2.73046,-0.33984375 3.375,-0.6328125 l -0.31641,-1.32421877 c -0.69141,0.2929688 -1.48828,0.5273438 -2.8125,0.5273438 -1.85156,0 -3.44531,-1.03125 -3.48047,-3.5273438 z m -7.125,-1.3242187 c 0.15234,-1.2773438 0.97266,-3 2.83594,-3 2.08593,0 2.58984,1.828125 2.5664,3 z m 18.23144,-4.3242184 c -2.8125,0 -5.03906,1.9921871 -5.03906,5.4023434 0,3.2109375 2.1211,5.22656247 4.875,5.22656247 2.46094,0 5.0625,-1.64062497 5.0625,-5.40234377 0,-3.1054687 -1.98047,-5.2265621 -4.89844,-5.2265621 z m -0.0351,1.3828121 c 2.17969,0 3.03515,2.1914063 3.03515,3.9140625 0,2.2851563 -1.3125,3.9375 -3.08203,3.9375 -1.80468,0 -3.08203,-1.6757812 -3.08203,-3.9023437 0,-1.9335938 0.9375,-3.9492188 3.12891,-3.9492188 z m 9.27832,9.011718775 V -8.7542344 h 2.46094 v -1.4062496 h -2.46094 v -0.550782 c 0,-1.558593 0.39844,-2.941406 1.96875,-2.941406 0.52734,0 0.90234,0.105469 1.18359,0.234375 l 0.2461,-1.429687 c -0.35157,-0.140625 -0.92578,-0.292969 -1.57032,-0.292969 -0.86718,0 -1.79296,0.269531 -2.48437,0.949219 -0.85547,0.808593 -1.17188,2.121093 -1.17188,3.539062 v 0.492188 h -1.42968 v 1.4062496 h 1.42968 v 8.753906275 z m 8.56933,0 h 1.80469 V -6.1292344 c 0,-0.3164062 0.0469,-0.6328125 0.14063,-0.9023437 0.30468,-0.9257813 1.13672,-1.8515625 2.29687,-1.8515625 1.40625,0 2.1211,1.171875 2.1211,2.7890625 v 6.093749975 h 1.80468 V -6.2815781 c 0,-0.328125 0.0586,-0.6679688 0.14063,-0.9257813 0.3164,-0.9023437 1.13672,-1.6757812 2.1914,-1.6757812 1.48829,0 2.20313,1.171875 2.20313,3.1289062 v 5.753906275 h 1.80469 V -5.9886094 c 0,-3.5273437 -1.99219,-4.4062496 -3.33985,-4.4062496 -0.96093,0 -1.64062,0.246093 -2.25,0.7148434 -0.41015,0.3164062 -0.80859,0.75 -1.125,1.3242187 h -0.0469 c -0.44531,-1.1953125 -1.48828,-2.0390621 -2.8711,-2.0390621 -1.6875,0 -2.625,0.9023434 -3.19921,1.8632809 h -0.0586 l -0.082,-1.6289059 h -1.61719 c 0.0586,0.8320309 0.082,1.6992184 0.082,2.7421871 z m 19.36524,0 V -10.160484 h -1.85156 V -3.28125e-4 Z M 362.04391,-14.180016 c -0.67969,0 -1.16016,0.503907 -1.16016,1.160157 0,0.632812 0.46875,1.136718 1.11328,1.136718 0.73828,0 1.19532,-0.503906 1.17188,-1.136718 0,-0.65625 -0.4336,-1.160157 -1.125,-1.160157 z m 3.9873,14.179687875 h 1.85157 V -6.1057969 c 0,-0.3164062 0.0351,-0.6328125 0.11718,-0.8671875 0.31641,-1.03125 1.26563,-1.8867187 2.48438,-1.8867187 1.73437,0 2.34375,1.359375 2.34375,3 v 5.859374975 h 1.85156 V -6.0706406 c 0,-3.4804688 -2.17969,-4.3242184 -3.58594,-4.3242184 -1.6875,0 -2.85937,0.9492184 -3.36328,1.9101559 h -0.0469 l -0.10547,-1.6757809 h -1.62891 c 0.0586,0.8320309 0.082,1.6992184 0.082,2.7421871 z M 384.61422,-14.906578 v 6.0703124 h -0.0352 c -0.46875,-0.8203125 -1.51171,-1.5585934 -3.07031,-1.5585934 -2.47265,0 -4.58203,2.0742184 -4.55859,5.4609371 0,3.0820313 1.88672,5.16796877 4.34765,5.16796877 1.66407,0 2.89454,-0.8671875 3.46875,-2.00390627 h 0.0352 l 0.082,1.769531275 h 1.66406 c -0.0586,-0.691406255 -0.082,-1.722656275 -0.082,-2.624999975 V -14.906578 Z m 0,10.6406249 c 0,0.2929687 -0.0234,0.5507812 -0.082,0.796875 -0.33984,1.3945312 -1.46484,2.203125 -2.70703,2.203125 -1.99219,0 -3,-1.6992188 -3,-3.75 0,-2.25 1.125,-3.9257813 3.03515,-3.9257813 1.39454,0 2.40235,0.9609375 2.67188,2.1328125 0.0586,0.234375 0.082,0.5507813 0.082,0.7851563 z m 5.02148,6.7265625 c 0.58594,-0.9960938 1.51172,-3.31640628 2.01563,-5.109375 l -2.03906,0.2109375 c -0.23438,1.53515622 -0.79688,3.7851562 -1.26563,5.015625 z m 0.85547,-9.6445313 c 0.76172,0 1.24219,-0.5625 1.24219,-1.3007812 0,-0.7734375 -0.48047,-1.3242188 -1.24219,-1.3242188 -0.71484,0 -1.23047,0.5507813 -1.23047,1.3242188 0,0.7382812 0.50391,1.3007812 1.23047,1.3007812 z m 9.69141,7.183593775 V -10.160484 h -1.85156 V -3.28125e-4 Z M 399.2568,-14.180016 c -0.67969,0 -1.16016,0.503907 -1.16016,1.160157 0,0.632812 0.46875,1.136718 1.11328,1.136718 0.73828,0 1.19532,-0.503906 1.17188,-1.136718 0,-0.65625 -0.4336,-1.160157 -1.125,-1.160157 z m 4.40918,1.582032 v 2.4375 h -1.58203 v 1.4062496 h 1.58203 v 5.5429688 c 0,1.1953125 0.1875,2.0976562 0.71484,2.64843747 0.4336,0.50390625 1.125,0.7734375 1.99219,0.7734375 0.71484,0 1.27734,-0.10546875 1.64062,-0.2578125 l -0.0937,-1.38281247 c -0.22265,0.070312 -0.58593,0.1289062 -1.0664,0.1289062 -1.03125,0 -1.38281,-0.7148437 -1.38281,-1.9804687 v -5.4726563 h 2.64843 v -1.4062496 h -2.64843 v -2.917969 z M 3.3857047,25.200844 V 15.040687 H 1.5341422 V 25.200844 Z M 2.4599234,11.021156 c -0.6796875,0 -1.1601562,0.503906 -1.1601562,1.160156 0,0.632813 0.46875,1.136719 1.1132812,1.136719 0.7382813,0 1.1953125,-0.503906 1.171875,-1.136719 0,-0.65625 -0.4335937,-1.160156 -1.125,-1.160156 z m 3.2753907,13.699219 c 0.7148437,0.421875 1.7460937,0.691406 2.859375,0.691406 2.4140629,0 3.7968749,-1.265625 3.7968749,-3.046875 0,-1.511719 -0.902344,-2.390625 -2.6718749,-3.070312 -1.3242188,-0.503907 -1.921875,-0.878907 -1.921875,-1.710938 0,-0.761719 0.5976562,-1.394531 1.6992187,-1.394531 0.9375002,0 1.6757812,0.339844 2.0742192,0.585937 l 0.457031,-1.335937 c -0.5625,-0.339844 -1.464844,-0.632813 -2.4960939,-0.632813 -2.1796875,0 -3.5039063,1.347657 -3.5039063,2.976563 0,1.21875 0.8554688,2.226562 2.6835938,2.882812 1.3710934,0.503907 1.8984374,0.984375 1.8984374,1.863282 0,0.84375 -0.6328124,1.511718 -1.9804687,1.511718 -0.9257812,0 -1.8867187,-0.375 -2.4375,-0.726562 z m 13.4824219,0.480469 h 1.851562 v -6.105469 c 0,-0.316406 0.03516,-0.632813 0.117188,-0.867188 0.316406,-1.03125 1.265625,-1.886718 2.484375,-1.886718 1.734375,0 2.34375,1.359375 2.34375,3 v 5.859375 h 1.851562 v -6.070313 c 0,-3.480469 -2.179687,-4.324219 -3.585937,-4.324219 -1.6875,0 -2.859375,0.949219 -3.363281,1.910157 h -0.04687 L 20.764616,15.040687 H 19.13571 c 0.05859,0.832032 0.08203,1.699219 0.08203,2.742188 z M 35.172814,14.806312 c -2.8125,0 -5.039062,1.992188 -5.039062,5.402344 0,3.210938 2.121093,5.226563 4.875,5.226563 2.460937,0 5.0625,-1.640625 5.0625,-5.402344 0,-3.105469 -1.980469,-5.226563 -4.898438,-5.226563 z m -0.03516,1.382813 c 2.179687,0 3.035156,2.191406 3.035156,3.914062 0,2.285157 -1.3125,3.9375 -3.082031,3.9375 -1.804688,0 -3.082031,-1.675781 -3.082031,-3.902343 0,-1.933594 0.9375,-3.949219 3.128906,-3.949219 z m 7.68457,-3.585938 v 2.4375 h -1.582031 v 1.40625 h 1.582031 v 5.542969 c 0,1.195313 0.1875,2.097656 0.714844,2.648438 0.433594,0.503906 1.125,0.773437 1.992187,0.773437 0.714844,0 1.277344,-0.105469 1.640625,-0.257812 l -0.09375,-1.382813 c -0.222656,0.07031 -0.585937,0.128906 -1.066406,0.128906 -1.03125,0 -1.382812,-0.714843 -1.382812,-1.980468 v -5.472657 h 2.648437 v -1.40625 h -2.648437 v -2.917968 z m 18.28125,12.597657 c -0.117187,-0.691407 -0.164062,-1.558594 -0.164062,-2.4375 v -3.796875 c 0,-2.039063 -0.75,-4.160157 -3.867188,-4.160157 -1.277344,0 -2.496094,0.351563 -3.339844,0.902344 l 0.421875,1.21875 c 0.714844,-0.457031 1.699219,-0.761719 2.648438,-0.761719 2.074219,0 2.308594,1.511719 2.308594,2.355469 v 0.210938 c -3.925782,-0.02344 -6.105469,1.324218 -6.105469,3.785156 0,1.464844 1.042969,2.917969 3.105469,2.917969 1.453125,0 2.542968,-0.714844 3.105468,-1.511719 h 0.07031 l 0.140625,1.277344 z m -1.945312,-3.421875 c 0,0.1875 -0.04687,0.398437 -0.105469,0.585937 -0.292969,0.867188 -1.136719,1.699219 -2.460938,1.699219 -0.9375,0 -1.746093,-0.5625 -1.746093,-1.757813 0,-1.980468 2.296875,-2.332031 4.3125,-2.296875 z m 9.219726,3.421875 h 1.804688 v -6.128907 c 0,-0.316406 0.04687,-0.632812 0.140625,-0.902343 0.304687,-0.925782 1.136718,-1.851563 2.296875,-1.851563 1.40625,0 2.121093,1.171875 2.121093,2.789063 v 6.09375 h 1.804688 v -6.28125 c 0,-0.328125 0.05859,-0.667969 0.140625,-0.925782 0.316406,-0.902343 1.136719,-1.675781 2.191406,-1.675781 1.488281,0 2.203125,1.171875 2.203125,3.128906 v 5.753907 h 1.804688 v -5.988282 c 0,-3.527343 -1.992188,-4.40625 -3.339844,-4.40625 -0.960938,0 -1.640625,0.246094 -2.25,0.714844 -0.410156,0.316406 -0.808594,0.75 -1.125,1.324219 h -0.04687 c -0.445313,-1.195313 -1.488281,-2.039063 -2.871094,-2.039063 -1.6875,0 -2.625,0.902344 -3.199219,1.863282 h -0.05859 l -0.08203,-1.628907 h -1.617187 c 0.05859,0.832032 0.08203,1.699219 0.08203,2.742188 z m 24.814453,0 c -0.117187,-0.691407 -0.164062,-1.558594 -0.164062,-2.4375 v -3.796875 c 0,-2.039063 -0.75,-4.160157 -3.867188,-4.160157 -1.277343,0 -2.496093,0.351563 -3.339843,0.902344 l 0.421875,1.21875 c 0.714843,-0.457031 1.699218,-0.761719 2.648437,-0.761719 2.074219,0 2.308594,1.511719 2.308594,2.355469 v 0.210938 c -3.925781,-0.02344 -6.105469,1.324218 -6.105469,3.785156 0,1.464844 1.042969,2.917969 3.105469,2.917969 1.453125,0 2.542969,-0.714844 3.105469,-1.511719 h 0.07031 l 0.140625,1.277344 z m -1.945312,-3.421875 c 0,0.1875 -0.04687,0.398437 -0.105469,0.585937 -0.292969,0.867188 -1.136719,1.699219 -2.460937,1.699219 -0.9375,0 -1.746094,-0.5625 -1.746094,-1.757813 0,-1.980468 2.296875,-2.332031 4.3125,-2.296875 z m 5.106445,-9.175782 v 2.4375 h -1.582031 v 1.40625 h 1.582031 v 5.542969 c 0,1.195313 0.1875,2.097656 0.714844,2.648438 0.433594,0.503906 1.125,0.773437 1.992187,0.773437 0.714844,0 1.277345,-0.105469 1.640625,-0.257812 l -0.0937,-1.382813 c -0.22265,0.07031 -0.58593,0.128906 -1.066406,0.128906 -1.03125,0 -1.382812,-0.714843 -1.382812,-1.980468 v -5.472657 h 2.648438 v -1.40625 h -2.648438 v -2.917968 z m 6.949226,0 v 2.4375 h -1.58203 v 1.40625 h 1.58203 v 5.542969 c 0,1.195313 0.1875,2.097656 0.71484,2.648438 0.43359,0.503906 1.125,0.773437 1.99219,0.773437 0.71484,0 1.27734,-0.105469 1.64062,-0.257812 l -0.0937,-1.382813 c -0.22265,0.07031 -0.58593,0.128906 -1.0664,0.128906 -1.03125,0 -1.38282,-0.714843 -1.38282,-1.980468 v -5.472657 h 2.64844 v -1.40625 h -2.64844 v -2.917968 z m 14.57226,7.851563 c 0.0234,-0.1875 0.0586,-0.480469 0.0586,-0.855469 0,-1.875 -0.87891,-4.792969 -4.19532,-4.792969 -2.96484,0 -4.76953,2.414063 -4.76953,5.484375 0,3.058594 1.875,5.121094 5.00391,5.121094 1.61719,0 2.73047,-0.339844 3.375,-0.632812 l -0.31641,-1.324219 c -0.6914,0.292969 -1.48828,0.527344 -2.8125,0.527344 -1.85156,0 -3.44531,-1.03125 -3.48047,-3.527344 z m -7.125,-1.324219 c 0.15235,-1.277344 0.97266,-3 2.83594,-3 2.08594,0 2.58984,1.828125 2.56641,3 z m 9.47754,6.070313 h 1.82813 v -5.414063 c 0,-0.316406 0.0352,-0.609375 0.082,-0.867187 0.24609,-1.382813 1.17187,-2.367188 2.47265,-2.367188 0.25782,0 0.44532,0.01172 0.63282,0.05859 v -1.746094 c -0.16407,-0.03516 -0.31641,-0.05859 -0.52735,-0.05859 -1.23047,0 -2.34375,0.855469 -2.8125,2.226563 h -0.082 l -0.0586,-1.992188 h -1.61719 c 0.0586,0.9375 0.082,1.96875 0.082,3.164063 z m 15.61817,-10.394532 c -2.8125,0 -5.03907,1.992188 -5.03907,5.402344 0,3.210938 2.1211,5.226563 4.875,5.226563 2.46094,0 5.0625,-1.640625 5.0625,-5.402344 0,-3.105469 -1.98047,-5.226563 -4.89843,-5.226563 z m -0.0352,1.382813 c 2.17969,0 3.03516,2.191406 3.03516,3.914062 0,2.285157 -1.3125,3.9375 -3.08204,3.9375 -1.80468,0 -3.08203,-1.675781 -3.08203,-3.902343 0,-1.933594 0.9375,-3.949219 3.12891,-3.949219 z m 9.28125,9.011719 v -8.753907 h 2.46094 v -1.40625 h -2.46094 v -0.550781 c 0,-1.558594 0.39844,-2.941406 1.96875,-2.941406 0.52734,0 0.90234,0.105469 1.18359,0.234375 l 0.2461,-1.429688 c -0.35157,-0.140625 -0.92578,-0.292968 -1.57032,-0.292968 -0.86718,0 -1.79296,0.269531 -2.48437,0.949218 -0.85547,0.808594 -1.17188,2.121094 -1.17188,3.539063 v 0.492187 h -1.42968 v 1.40625 h 1.42968 v 8.753907 z m 8.56641,0 h 1.82812 v -5.414063 c 0,-0.316406 0.0352,-0.609375 0.082,-0.867187 0.2461,-1.382813 1.17188,-2.367188 2.47266,-2.367188 0.25781,0 0.44531,0.01172 0.63281,0.05859 v -1.746094 c -0.16406,-0.03516 -0.31641,-0.05859 -0.52734,-0.05859 -1.23047,0 -2.34375,0.855469 -2.8125,2.226563 h -0.082 l -0.0586,-1.992188 h -1.61719 c 0.0586,0.9375 0.082,1.96875 0.082,3.164063 z m 10.95996,-10.394532 c -2.8125,0 -5.03907,1.992188 -5.03907,5.402344 0,3.210938 2.1211,5.226563 4.875,5.226563 2.46094,0 5.0625,-1.640625 5.0625,-5.402344 0,-3.105469 -1.98046,-5.226563 -4.89843,-5.226563 z m -0.0352,1.382813 c 2.17969,0 3.03516,2.191406 3.03516,3.914062 0,2.285157 -1.3125,3.9375 -3.08203,3.9375 -1.80469,0 -3.08204,-1.675781 -3.08204,-3.902343 0,-1.933594 0.9375,-3.949219 3.12891,-3.949219 z m 6.54785,8.53125 c 0.71485,0.421875 1.7461,0.691406 2.85938,0.691406 2.41406,0 3.79687,-1.265625 3.79687,-3.046875 0,-1.511719 -0.90234,-2.390625 -2.67187,-3.070312 -1.32422,-0.503907 -1.92188,-0.878907 -1.92188,-1.710938 0,-0.761719 0.59766,-1.394531 1.69922,-1.394531 0.9375,0 1.67578,0.339844 2.07422,0.585937 l 0.45703,-1.335937 c -0.5625,-0.339844 -1.46484,-0.632813 -2.49609,-0.632813 -2.17969,0 -3.50391,1.347657 -3.50391,2.976563 0,1.21875 0.85547,2.226562 2.68359,2.882812 1.3711,0.503907 1.89844,0.984375 1.89844,1.863282 0,0.84375 -0.63281,1.511718 -1.98047,1.511718 -0.92578,0 -1.88672,-0.375 -2.4375,-0.726562 z m 7.68164,-9.679688 3.76172,9.363282 c 0.082,0.234375 0.12891,0.375 0.12891,0.480468 0,0.105469 -0.0703,0.257813 -0.15235,0.445313 -0.42187,0.9375 -1.04296,1.652344 -1.55859,2.050781 -0.53906,0.46875 -1.14844,0.761719 -1.60547,0.902344 l 0.45703,1.558594 c 0.45703,-0.08203 1.35938,-0.398438 2.26172,-1.195313 1.26563,-1.089844 2.16797,-2.882812 3.49219,-6.363281 l 2.76562,-7.242188 h -1.94531 l -2.01562,5.964844 c -0.25782,0.726563 -0.46875,1.511719 -0.65625,2.121094 h -0.0352 c -0.17578,-0.609375 -0.42187,-1.40625 -0.65625,-2.085938 l -2.22656,-6 z m 22.61719,8.390625 c -0.52734,0.234375 -1.21875,0.503907 -2.26172,0.503907 -2.01562,0 -3.52734,-1.441407 -3.52734,-3.796875 0,-2.121094 1.2539,-3.84375 3.58594,-3.84375 1.00781,0 1.69921,0.234375 2.14453,0.480468 l 0.42187,-1.417968 c -0.5039,-0.257813 -1.47656,-0.527344 -2.5664,-0.527344 -3.31641,0 -5.46094,2.261719 -5.46094,5.390625 0,3.117187 1.99219,5.191406 5.0625,5.191406 1.35937,0 2.4375,-0.339844 2.91797,-0.585937 z m 2.48145,1.769532 h 1.85156 v -6.128907 c 0,-0.363281 0.0117,-0.632812 0.11719,-0.890625 0.33984,-1.007812 1.28906,-1.839843 2.48437,-1.839843 1.73438,0 2.34375,1.382812 2.34375,3.023437 v 5.835938 h 1.85156 v -6.046875 c 0,-3.503907 -2.17968,-4.347657 -3.55078,-4.347657 -0.6914,0 -1.33594,0.210938 -1.88672,0.527344 -0.5625,0.316406 -1.03125,0.773438 -1.32422,1.300781 h -0.0351 v -6.339843 h -1.85156 z m 19.82519,-4.746094 c 0.0234,-0.1875 0.0586,-0.480469 0.0586,-0.855469 0,-1.875 -0.8789,-4.792969 -4.19531,-4.792969 -2.96484,0 -4.76953,2.414063 -4.76953,5.484375 0,3.058594 1.875,5.121094 5.00391,5.121094 1.61718,0 2.73047,-0.339844 3.375,-0.632812 l -0.31641,-1.324219 c -0.69141,0.292969 -1.48828,0.527344 -2.8125,0.527344 -1.85156,0 -3.44531,-1.03125 -3.48047,-3.527344 z m -7.125,-1.324219 c 0.15234,-1.277344 0.97266,-3 2.83594,-3 2.08594,0 2.58984,1.828125 2.5664,3 z m 17.64551,1.324219 c 0.0234,-0.1875 0.0586,-0.480469 0.0586,-0.855469 0,-1.875 -0.8789,-4.792969 -4.19531,-4.792969 -2.96484,0 -4.76953,2.414063 -4.76953,5.484375 0,3.058594 1.875,5.121094 5.0039,5.121094 1.61719,0 2.73047,-0.339844 3.375,-0.632812 l -0.3164,-1.324219 c -0.69141,0.292969 -1.48828,0.527344 -2.8125,0.527344 -1.85156,0 -3.44531,-1.03125 -3.48047,-3.527344 z m -7.125,-1.324219 c 0.15234,-1.277344 0.97265,-3 2.83594,-3 2.08593,0 2.58984,1.828125 2.5664,3 z m 11.30566,-8.835937 h -1.82812 v 14.90625 h 1.82812 v -3.820313 l 0.9375,-1.054687 3.51563,4.875 h 2.23828 l -4.46484,-5.988282 3.92578,-4.171875 h -2.22657 l -2.98828,3.503907 c -0.29297,0.351562 -0.64453,0.796875 -0.90234,1.148437 h -0.0352 z m 7.30664,14.425781 c 0.71485,0.421875 1.7461,0.691406 2.85938,0.691406 2.41406,0 3.79687,-1.265625 3.79687,-3.046875 0,-1.511719 -0.90234,-2.390625 -2.67187,-3.070312 -1.32422,-0.503907 -1.92188,-0.878907 -1.92188,-1.710938 0,-0.761719 0.59766,-1.394531 1.69922,-1.394531 0.9375,0 1.67578,0.339844 2.07422,0.585937 l 0.45703,-1.335937 c -0.5625,-0.339844 -1.46484,-0.632813 -2.49609,-0.632813 -2.17969,0 -3.50391,1.347657 -3.50391,2.976563 0,1.21875 0.85547,2.226562 2.6836,2.882812 1.37109,0.503907 1.89843,0.984375 1.89843,1.863282 0,0.84375 -0.63281,1.511718 -1.98047,1.511718 -0.92578,0 -1.88671,-0.375 -2.4375,-0.726562 z m 8.92676,2.941406 c 0.58594,-0.996094 1.51172,-3.316406 1.99219,-5.109375 l -2.0625,0.210938 c -0.23438,1.535156 -0.79688,3.785156 -1.25391,5.015625 z m 8.67188,-2.460937 h 1.82812 v -5.414063 c 0,-0.316406 0.0352,-0.609375 0.082,-0.867187 0.2461,-1.382813 1.17188,-2.367188 2.47266,-2.367188 0.25781,0 0.44531,0.01172 0.63281,0.05859 v -1.746094 c -0.16406,-0.03516 -0.31641,-0.05859 -0.52734,-0.05859 -1.23047,0 -2.34375,0.855469 -2.8125,2.226563 h -0.082 l -0.0586,-1.992188 h -1.61719 c 0.0586,0.9375 0.082,1.96875 0.082,3.164063 z m 14.82129,-4.746094 c 0.0234,-0.1875 0.0586,-0.480469 0.0586,-0.855469 0,-1.875 -0.87891,-4.792969 -4.19531,-4.792969 -2.96485,0 -4.76953,2.414063 -4.76953,5.484375 0,3.058594 1.875,5.121094 5.0039,5.121094 1.61719,0 2.73047,-0.339844 3.375,-0.632812 l -0.3164,-1.324219 c -0.69141,0.292969 -1.48829,0.527344 -2.8125,0.527344 -1.85157,0 -3.44532,-1.03125 -3.48047,-3.527344 z m -7.125,-1.324219 c 0.15234,-1.277344 0.97265,-3 2.83593,-3 2.08594,0 2.58985,1.828125 2.56641,3 z m 16.40625,-8.835937 v 6.070312 H 287.41 c -0.46875,-0.820312 -1.51172,-1.558594 -3.07031,-1.558594 -2.47266,0 -4.58203,2.074219 -4.5586,5.460938 0,3.082031 1.88672,5.167969 4.34766,5.167969 1.66406,0 2.89453,-0.867188 3.46875,-2.003907 h 0.0352 l 0.082,1.769532 h 1.66406 c -0.0586,-0.691407 -0.082,-1.722657 -0.082,-2.625 v -12.28125 z m 0,10.640625 c 0,0.292968 -0.0234,0.550781 -0.082,0.796875 -0.33984,1.394531 -1.46484,2.203125 -2.70703,2.203125 -1.99218,0 -3,-1.699219 -3,-3.75 0,-2.25 1.125,-3.925782 3.03516,-3.925782 1.39453,0 2.40234,0.960938 2.67187,2.132813 0.0586,0.234375 0.082,0.550781 0.082,0.785156 z m 9.36914,4.265625 h 1.85156 v -14.90625 h -1.85156 z m 6.80859,0 V 15.040687 h -1.85156 v 10.160157 z m -0.92578,-14.179688 c -0.67969,0 -1.16016,0.503906 -1.16016,1.160156 0,0.632813 0.46875,1.136719 1.11328,1.136719 0.73828,0 1.19532,-0.503906 1.17188,-1.136719 0,-0.65625 -0.4336,-1.160156 -1.125,-1.160156 z m 3.9873,18.339844 h 1.82813 v -5.519531 h 0.0352 c 0.60938,1.007812 1.79297,1.59375 3.12891,1.59375 2.40234,0 4.62891,-1.804688 4.62891,-5.460938 0,-3.09375 -1.85157,-5.167969 -4.3125,-5.167969 -1.65235,0 -2.85938,0.738282 -3.60938,1.96875 h -0.0469 l -0.082,-1.734375 h -1.65235 c 0.0352,0.960938 0.082,2.015625 0.082,3.316407 z m 1.82813,-10.042969 c 0,-0.246094 0.0586,-0.527344 0.11719,-0.75 0.36328,-1.394531 1.53515,-2.296875 2.80078,-2.296875 1.94531,0 3.02343,1.746094 3.02343,3.785156 0,2.332032 -1.13671,3.925782 -3.09375,3.925782 -1.3125,0 -2.42578,-0.878907 -2.76562,-2.167969 -0.0469,-0.222656 -0.082,-0.480469 -0.082,-0.75 z m 9.40429,5.402344 c 0.71485,0.421875 1.7461,0.691406 2.85938,0.691406 2.41406,0 3.79687,-1.265625 3.79687,-3.046875 0,-1.511719 -0.90234,-2.390625 -2.67187,-3.070312 -1.32422,-0.503907 -1.92188,-0.878907 -1.92188,-1.710938 0,-0.761719 0.59766,-1.394531 1.69922,-1.394531 0.9375,0 1.67578,0.339844 2.07422,0.585937 l 0.45703,-1.335937 c -0.5625,-0.339844 -1.46484,-0.632813 -2.49609,-0.632813 -2.17969,0 -3.50391,1.347657 -3.50391,2.976563 0,1.21875 0.85547,2.226562 2.6836,2.882812 1.37109,0.503907 1.89843,0.984375 1.89843,1.863282 0,0.84375 -0.63281,1.511718 -1.98046,1.511718 -0.92579,0 -1.88672,-0.375 -2.4375,-0.726562 z m 20.78614,0.480469 c -0.11719,-0.691407 -0.16406,-1.558594 -0.16406,-2.4375 v -3.796875 c 0,-2.039063 -0.75,-4.160157 -3.86719,-4.160157 -1.27735,0 -2.4961,0.351563 -3.33985,0.902344 l 0.42188,1.21875 c 0.71484,-0.457031 1.69922,-0.761719 2.64844,-0.761719 2.07422,0 2.30859,1.511719 2.30859,2.355469 v 0.210938 c -3.92578,-0.02344 -6.10547,1.324218 -6.10547,3.785156 0,1.464844 1.04297,2.917969 3.10547,2.917969 1.45313,0 2.54297,-0.714844 3.10547,-1.511719 h 0.0703 l 0.14063,1.277344 z m -1.94531,-3.421875 c 0,0.1875 -0.0469,0.398437 -0.10547,0.585937 -0.29297,0.867188 -1.13672,1.699219 -2.46094,1.699219 -0.9375,0 -1.74609,-0.5625 -1.74609,-1.757813 0,-1.980468 2.29687,-2.332031 4.3125,-2.296875 z m 4.7666,3.421875 h 1.85156 v -6.105469 c 0,-0.316406 0.0352,-0.632813 0.11719,-0.867188 0.3164,-1.03125 1.26562,-1.886718 2.48437,-1.886718 1.73438,0 2.34375,1.359375 2.34375,3 v 5.859375 h 1.85156 v -6.070313 c 0,-3.480469 -2.17968,-4.324219 -3.58593,-4.324219 -1.6875,0 -2.85938,0.949219 -3.36328,1.910157 h -0.0469 l -0.10547,-1.675782 h -1.6289 c 0.0586,0.832032 0.082,1.699219 0.082,2.742188 z m 18.58007,-14.90625 v 6.070312 h -0.0351 c -0.46875,-0.820312 -1.51172,-1.558594 -3.07031,-1.558594 -2.47266,0 -4.58204,2.074219 -4.5586,5.460938 0,3.082031 1.88672,5.167969 4.34766,5.167969 1.66406,0 2.89453,-0.867188 3.46875,-2.003907 h 0.0351 l 0.082,1.769532 h 1.66406 c -0.0586,-0.691407 -0.082,-1.722657 -0.082,-2.625 v -12.28125 z m 0,10.640625 c 0,0.292968 -0.0234,0.550781 -0.082,0.796875 -0.33984,1.394531 -1.46484,2.203125 -2.70703,2.203125 -1.99219,0 -3,-1.699219 -3,-3.75 0,-2.25 1.125,-3.925782 3.03516,-3.925782 1.39453,0 2.40234,0.960938 2.67187,2.132813 0.0586,0.234375 0.082,0.550781 0.082,0.785156 z M 0.81929844,49.918617 c 0.71484376,0.421875 1.74609376,0.691406 2.85937496,0.691406 2.4140625,0 3.796875,-1.265625 3.796875,-3.046875 0,-1.511718 -0.9023437,-2.390625 -2.671875,-3.070312 -1.3242187,-0.503906 -1.921875,-0.878906 -1.921875,-1.710938 0,-0.761718 0.5976563,-1.394531 1.6992188,-1.394531 0.9375,0 1.6757812,0.339844 2.0742187,0.585938 l 0.4570313,-1.335938 c -0.5625,-0.339844 -1.4648438,-0.632812 -2.4960938,-0.632812 -2.1796875,0 -3.5039062,1.347656 -3.5039062,2.976562 0,1.21875 0.8554687,2.226563 2.6835937,2.882813 1.3710938,0.503906 1.8984375,0.984375 1.8984375,1.863281 0,0.84375 -0.6328125,1.511719 -1.9804687,1.511719 -0.9257813,0 -1.8867188,-0.375 -2.4375,-0.726563 z M 18.359338,40.23893 h -1.851563 v 6.234375 c 0,0.339843 -0.05859,0.667968 -0.164062,0.949218 -0.339844,0.808594 -1.207032,1.675782 -2.4375,1.675782 -1.6875,0 -2.273438,-1.300782 -2.273438,-3.234375 v -5.625 H 9.7812125 v 5.941406 c 0,3.5625 1.9218755,4.453125 3.5156255,4.453125 1.804687,0 2.871093,-1.078125 3.351562,-1.898438 h 0.04687 l 0.105469,1.664063 h 1.640625 c -0.07031,-0.796875 -0.08203,-1.722656 -0.08203,-2.777344 z m 3.061523,14.320312 h 1.828125 v -5.519531 h 0.03516 c 0.609375,1.007812 1.792969,1.59375 3.128906,1.59375 2.402344,0 4.628907,-1.804688 4.628907,-5.460938 0,-3.09375 -1.851563,-5.167968 -4.3125,-5.167968 -1.652344,0 -2.859375,0.738281 -3.609375,1.96875 h -0.04687 L 22.991173,40.23893 H 21.33883 c 0.03516,0.960937 0.08203,2.015625 0.08203,3.316406 z m 1.828125,-10.042969 c 0,-0.246093 0.05859,-0.527343 0.117187,-0.75 0.363282,-1.394531 1.535157,-2.296875 2.800782,-2.296875 1.945312,0 3.023437,1.746094 3.023437,3.785157 0,2.332031 -1.136719,3.925781 -3.09375,3.925781 -1.3125,0 -2.425781,-0.878906 -2.765625,-2.167969 -0.04687,-0.222656 -0.08203,-0.480469 -0.08203,-0.75 z m 10.12207,10.042969 h 1.828125 v -5.519531 h 0.03516 c 0.609375,1.007812 1.792968,1.59375 3.128906,1.59375 2.402344,0 4.628906,-1.804688 4.628906,-5.460938 0,-3.09375 -1.851562,-5.167968 -4.3125,-5.167968 -1.652344,0 -2.859375,0.738281 -3.609375,1.96875 H 35.0234 L 34.94137,40.23893 h -1.652344 c 0.03516,0.960937 0.08203,2.015625 0.08203,3.316406 z m 1.828125,-10.042969 c 0,-0.246093 0.05859,-0.527343 0.117188,-0.75 0.363281,-1.394531 1.535156,-2.296875 2.800781,-2.296875 1.945313,0 3.023438,1.746094 3.023438,3.785157 0,2.332031 -1.136719,3.925781 -3.09375,3.925781 -1.3125,0 -2.425782,-0.878906 -2.765625,-2.167969 -0.04687,-0.222656 -0.08203,-0.480469 -0.08203,-0.75 z m 10.122071,5.882813 h 1.851562 v -14.90625 h -1.851562 z m 13.12207,-4.746094 c 0.02344,-0.1875 0.05859,-0.480469 0.05859,-0.855469 0,-1.875 -0.878907,-4.792968 -4.195313,-4.792968 -2.964844,0 -4.769531,2.414062 -4.769531,5.484375 0,3.058593 1.875,5.121093 5.003906,5.121093 1.617188,0 2.730469,-0.339843 3.375,-0.632812 l -0.316406,-1.324219 c -0.691406,0.292969 -1.488281,0.527344 -2.8125,0.527344 -1.851563,0 -3.445313,-1.03125 -3.480469,-3.527344 z m -7.125,-1.324219 c 0.152344,-1.277343 0.972656,-3 2.835937,-3 2.085938,0 2.589844,1.828125 2.566407,3 z m 15.758789,-8.835937 h -1.828125 v 14.90625 h 1.828125 v -3.820313 l 0.9375,-1.054687 3.515625,4.875 h 2.238281 l -4.464844,-5.988281 3.925782,-4.171875 h -2.226563 l -2.988281,3.503906 c -0.292969,0.351562 -0.644531,0.796875 -0.902344,1.148437 h -0.03516 z m 8.375977,14.90625 h 1.851562 v -6.105469 c 0,-0.316406 0.03516,-0.632812 0.117188,-0.867187 0.316406,-1.03125 1.265625,-1.886719 2.484375,-1.886719 1.734375,0 2.34375,1.359375 2.34375,3 v 5.859375 h 1.851562 v -6.070313 c 0,-3.480468 -2.179687,-4.324218 -3.585937,-4.324218 -1.6875,0 -2.859375,0.949218 -3.363282,1.910156 h -0.04687 L 76.999963,40.23893 h -1.628907 c 0.05859,0.832031 0.08203,1.699218 0.08203,2.742187 z m 19.822265,-4.746094 c 0.02344,-0.1875 0.05859,-0.480469 0.05859,-0.855469 0,-1.875 -0.878906,-4.792968 -4.195313,-4.792968 -2.964843,0 -4.769531,2.414062 -4.769531,5.484375 0,3.058593 1.875,5.121093 5.003906,5.121093 1.617188,0 2.730469,-0.339843 3.375,-0.632812 l -0.316406,-1.324219 c -0.691406,0.292969 -1.488281,0.527344 -2.8125,0.527344 -1.851562,0 -3.445312,-1.03125 -3.480469,-3.527344 z m -7.125,-1.324219 c 0.152344,-1.277343 0.972656,-3 2.835938,-3 2.085937,0 2.589843,1.828125 2.566406,3 z m 17.645507,1.324219 c 0.0234,-0.1875 0.0586,-0.480469 0.0586,-0.855469 0,-1.875 -0.8789,-4.792968 -4.19531,-4.792968 -2.964842,0 -4.769529,2.414062 -4.769529,5.484375 0,3.058593 1.875,5.121093 5.003909,5.121093 1.61718,0 2.73047,-0.339843 3.375,-0.632812 l -0.31641,-1.324219 c -0.69141,0.292969 -1.48828,0.527344 -2.8125,0.527344 -1.85156,0 -3.445312,-1.03125 -3.480468,-3.527344 z m -7.124999,-1.324219 c 0.152344,-1.277343 0.972656,-3 2.835939,-3 2.08594,0 2.58984,1.828125 2.5664,3 z m 8.765629,5.589844 c 0.71484,0.421875 1.74609,0.691406 2.85937,0.691406 2.41406,0 3.79688,-1.265625 3.79688,-3.046875 0,-1.511718 -0.90235,-2.390625 -2.67188,-3.070312 -1.32422,-0.503906 -1.92187,-0.878906 -1.92187,-1.710938 0,-0.761718 0.59765,-1.394531 1.69921,-1.394531 0.9375,0 1.67579,0.339844 2.07422,0.585938 l 0.45703,-1.335938 c -0.5625,-0.339844 -1.46484,-0.632812 -2.49609,-0.632812 -2.17969,0 -3.50391,1.347656 -3.50391,2.976562 0,1.21875 0.85547,2.226563 2.6836,2.882813 1.37109,0.503906 1.89844,0.984375 1.89844,1.863281 0,0.84375 -0.63282,1.511719 -1.98047,1.511719 -0.92578,0 -1.88672,-0.375 -2.4375,-0.726563 z m 9.13476,2.941406 c 0.58594,-0.996093 1.51172,-3.316406 2.01563,-5.109375 l -2.03907,0.210938 c -0.23437,1.535156 -0.79687,3.785156 -1.26562,5.015625 z m 0.85547,-9.644531 c 0.76172,0 1.24219,-0.5625 1.24219,-1.300781 0,-0.773438 -0.48047,-1.324219 -1.24219,-1.324219 -0.71484,0 -1.23047,0.550781 -1.23047,1.324219 0,0.738281 0.50391,1.300781 1.23047,1.300781 z m 0,0" style="fill:#231916;fill-opacity:1;fill-rule:nonzero;stroke:none" aria-label="Youth is not a time of life; it is a state of mind; it &#10;is not a matter of rosy cheeks, red lips and &#10;supple knees; " transform="matrix(1.3333333,0,0,1.3333333,1742.5521,4098.102)" />
      </g></svg>