<?xml version='1.0' encoding='utf-8'?>
<svg xmlns="http://www.w3.org/2000/svg" version="1.1" width="112.031" height="102.879" viewBox="398.018 4182.880 112.031 102.879"><g id="object"><path id="path54" d="m 0,0 c 0,-6.631 -0.203,-13.271 0.067,-19.891 0.202,-4.948 1.319,-9.989 7.841,-9.526 6.167,0.437 5.95,4.705 5.77,9.833 -0.469,13.367 0.074,26.768 -0.01,40.154 -0.033,5.236 2.623,6.201 7.168,6.114 4.812,-0.093 6.588,-2.909 6.292,-6.762 C 26.709,14.477 28.02,8.989 27.232,3.759 25.843,-5.466 27.398,-14.605 26.823,-23.796 26.158,-34.434 20.439,-41.473 9.806,-41.47 c -5.341,0.002 -10.757,0.921 -15.826,3.403 -4.113,2.015 -6.161,5.258 -6.488,9.342 -0.917,11.456 -1.396,22.945 -0.476,34.437 0.395,4.934 -1.627,9.65 -0.673,14.761 0.985,5.28 3.932,6.257 8.462,6.205 4.856,-0.056 5.133,-3.361 5.187,-6.776 C 0.098,13.269 0.023,6.634 0.023,0 0.015,0 0.008,0 0,0" style="fill:#494f57;fill-opacity:1;fill-rule:nonzero;stroke:none" transform="matrix(1.3333333,0,0,-1.3333333,467.39627,4224.4669)" />
      <path id="path151" d="m 0,0 c 0,-10.572 0.078,-21.144 -0.035,-31.715 -0.052,-4.869 2.173,-6.784 6.918,-6.533 3.986,0.211 6.753,-1.16 7.24,-5.81 0.501,-4.778 -0.72,-7.291 -6.051,-6.756 -3.282,0.33 -6.616,0.185 -9.927,0.182 -10.638,-0.01 -12.377,2.199 -11.628,13.115 1.076,15.693 0.516,31.403 -0.452,47.087 -0.259,4.2 0.416,6.894 5.547,6.624 3.965,-0.209 8.487,1.23 7.694,-5.589 C -1.1,7.114 -0.765,3.538 -0.765,0 -0.51,0 -0.255,0 0,0" style="fill:#494f57;fill-opacity:1;fill-rule:nonzero;stroke:none" transform="matrix(1.3333333,0,0,-1.3333333,422.66067,4210.8097)" />
      </g></svg>