<?xml version='1.0' encoding='utf-8'?>
<svg xmlns="http://www.w3.org/2000/svg" version="1.1" width="432.741" height="55.333" viewBox="189.415 620.294 432.741 55.333"><g id="object"><path id="path75" d="M 0.61030469,-16.335761 5.5321797,1.765625e-4 H 8.2392109 L 10.87593,-7.7693547 c 0.574218,-1.7460937 1.078125,-3.4335933 1.476562,-5.4023433 h 0.07031 c 0.410156,1.933593 0.878906,3.5507808 1.453125,5.3671871 L 16.37202,1.765625e-4 h 2.707032 L 24.340773,-16.335761 h -2.929687 l -2.332031,8.2031251 c -0.539063,1.921875 -0.984375,3.6445312 -1.253907,5.296875 h -0.09375 c -0.375,-1.6523438 -0.855468,-3.375 -1.453125,-5.3320313 l -2.53125,-8.1679688 h -2.507812 l -2.6601563,8.3320313 c -0.5390625,1.7578125 -1.078125,3.515625 -1.453125,5.1679688 H 7.0204609 c -0.3046875,-1.6875 -0.7382812,-3.375 -1.2070312,-5.203125 L 3.6454609,-16.335761 Z m 25.25097631,0 4.921875,16.3359375625 h 2.707031 L 36.126906,-7.7693547 c 0.574219,-1.7460937 1.078125,-3.4335933 1.476563,-5.4023433 h 0.07031 c 0.410156,1.933593 0.878906,3.5507808 1.453125,5.3671871 L 41.623,1.765625e-4 h 2.707031 L 49.59175,-16.335761 h -2.929688 l -2.332031,8.2031251 c -0.539062,1.921875 -0.984375,3.6445312 -1.253906,5.296875 h -0.09375 c -0.375,-1.6523438 -0.855469,-3.375 -1.453125,-5.3320313 L 38.998,-16.335761 h -2.507813 l -2.660156,8.3320313 c -0.539062,1.7578125 -1.078125,3.515625 -1.453125,5.1679688 h -0.105469 c -0.304687,-1.6875 -0.738281,-3.375 -1.207031,-5.203125 l -2.167969,-8.2968751 z m 25.250977,0 4.921875,16.3359375625 h 2.707031 L 61.377883,-7.7693547 c 0.574219,-1.7460937 1.078125,-3.4335933 1.476562,-5.4023433 h 0.07031 c 0.410156,1.933593 0.878906,3.5507808 1.453125,5.3671871 l 2.496094,7.8046874625 h 2.707031 L 74.842727,-16.335761 h -2.929688 l -2.332031,8.2031251 c -0.539063,1.921875 -0.984375,3.6445312 -1.253906,5.296875 h -0.09375 c -0.375,-1.6523438 -0.855469,-3.375 -1.453125,-5.3320313 l -2.53125,-8.1679688 h -2.507813 l -2.660156,8.3320313 c -0.539063,1.7578125 -1.078125,3.515625 -1.453125,5.1679688 h -0.105469 c -0.304687,-1.6875 -0.738281,-3.375 -1.207031,-5.203125 L 54.147414,-16.335761 Z M 77.781203,0.37517656 c 1.242188,0 2.027344,-0.9140625 2.027344,-2.13281246 0,-1.2421875 -0.808594,-2.1210938 -1.992188,-2.1210938 -1.183593,0 -2.027343,0.8789063 -2.027343,2.1210938 0,1.21874996 0.808593,2.13281246 1.992187,2.13281246 z m 6.37793,-20.63671856 v 3.925781 h -2.53125 v 2.261719 h 2.53125 v 8.9062498 c 0,1.921875 0.304687,3.375 1.148437,4.25390626 0.703125,0.80859375 1.816407,1.25390625 3.210938,1.25390625 1.148437,0 2.050781,-0.17578125 2.625,-0.41015625 L 91.014602,-2.2966984 c -0.375,0.1054687 -0.949219,0.1992187 -1.722657,0.1992187 -1.652343,0 -2.226562,-1.1484375 -2.226562,-3.1640625 v -8.8124998 h 4.253906 v -2.261719 h -4.253906 v -4.699219 z m 8.639648,3.925781 6.046875,15.0585938 c 0.128906,0.36328126 0.199219,0.59765626 0.199219,0.77343751 0,0.1640625 -0.105469,0.3984375 -0.234375,0.703125 C 98.130812,1.7228328 97.123,2.8712703 96.314406,3.5158016 95.4355,4.2540828 94.451125,4.7228328 93.712844,4.9689266 l 0.738281,2.4960937 c 0.738281,-0.140625 2.191406,-0.6445312 3.644531,-1.9335937 2.027344,-1.7460938 3.480464,-4.61718754 5.601564,-10.21875 l 4.46484,-11.6484376 h -3.14062 l -3.2461,9.5859376 c -0.39843,1.1835937 -0.73828,2.4257812 -1.04297,3.4101562 h -0.0703 c -0.26953,-0.984375 -0.667966,-2.2617187 -1.042966,-3.3398437 L 96.044875,-16.335761 Z M 110.85445,6.6798641 h 2.9414 v -8.8710938 h 0.0703 c 0.97266,1.61718751 2.8711,2.56640626 5.02735,2.56640626 3.84375,0 7.42969,-2.90624996 7.42969,-8.77734376 0,-4.9687498 -2.97657,-8.3085938 -6.92579,-8.3085938 -2.66015,0 -4.59375,1.183594 -5.80078,3.175781 h -0.0703 l -0.14062,-2.800781 h -2.66016 c 0.0703,1.546875 0.12891,3.234375 0.12891,5.332031 z m 2.9414,-16.1367188 c 0,-0.3984375 0.10547,-0.8437503 0.19922,-1.2070313 0.57422,-2.238281 2.47266,-3.679687 4.48828,-3.679687 3.14063,0 4.86328,2.800781 4.86328,6.0703121 0,3.75 -1.8164,6.3164062 -4.95703,6.3164062 -2.13281,0 -3.91406,-1.4179687 -4.46484,-3.4804687 -0.0586,-0.375 -0.12891,-0.7734375 -0.12891,-1.21875 z m 23.19141,-7.2539063 c -4.52344,0 -8.10938,3.210938 -8.10938,8.6718751 0,5.1679687 3.41016,8.41406246 7.83985,8.41406246 3.94922,0 8.13281,-2.63671876 8.13281,-8.68359376 0,-4.9921878 -3.17578,-8.4023438 -7.86328,-8.4023438 z m -0.0703,2.226563 c 3.51562,0 4.89843,3.515625 4.89843,6.2812496 0,3.6796875 -2.13281,6.3515625 -4.96875,6.3515625 -2.89453,0 -4.95703,-2.7070313 -4.95703,-6.28125 0,-3.1054691 1.52344,-6.3515621 5.02735,-6.3515621 z m 18.60351,-2.226563 c -4.52344,0 -8.10937,3.210938 -8.10937,8.6718751 0,5.1679687 3.41015,8.41406246 7.83984,8.41406246 3.94922,0 8.13281,-2.63671876 8.13281,-8.68359376 0,-4.9921878 -3.17578,-8.4023438 -7.86328,-8.4023438 z m -0.0703,2.226563 c 3.51562,0 4.89844,3.515625 4.89844,6.2812496 0,3.6796875 -2.13282,6.3515625 -4.96875,6.3515625 -2.89454,0 -4.95704,-2.7070313 -4.95704,-6.28125 0,-3.1054691 1.52344,-6.3515621 5.02735,-6.3515621 z m 22.82226,11.6484371 c -0.84375,0.375 -1.95703,0.8085937 -3.64453,0.8085937 -3.24609,0 -5.67187,-2.3320312 -5.67187,-6.1054687 0,-3.4101561 2.02734,-6.1875001 5.77734,-6.1875001 1.61719,0 2.73047,0.375 3.4336,0.785156 l 0.67968,-2.296875 c -0.80859,-0.410156 -2.36718,-0.84375 -4.11328,-0.84375 -5.34375,0 -8.78906,3.644532 -8.78906,8.6718753 0,5.0039063 3.21094,8.34375001 8.14453,8.34375001 2.19141,0 3.91406,-0.5390625 4.6875,-0.94921875 z m 6.95508,2.8359374625 V -16.335761 h -2.97656 V 1.765625e-4 Z M 183.73921,-22.792792 c -1.07812,0 -1.85156,0.808594 -1.85156,1.863281 0,1.007813 0.73828,1.816406 1.78125,1.816406 1.18359,0 1.93359,-0.808593 1.89844,-1.816406 0,-1.054687 -0.71485,-1.863281 -1.82813,-1.863281 z M 190.1523,1.765625e-4 h 2.9414 V -8.7068547 c 0,-0.515625 0.0703,-0.984375 0.12891,-1.3828123 0.41016,-2.238281 1.89844,-3.820313 3.98437,-3.820313 0.41016,0 0.71485,0.03516 1.01954,0.105469 v -2.800781 c -0.26954,-0.07031 -0.50391,-0.105469 -0.84375,-0.105469 -1.99219,0 -3.78516,1.382813 -4.52344,3.574219 h -0.14063 l -0.0937,-3.199219 h -2.60156 c 0.0937,1.511719 0.12891,3.164063 0.12891,5.097656 z M 211.99605,-2.8357609 c -0.84375,0.375 -1.95703,0.8085937 -3.64453,0.8085937 -3.2461,0 -5.67188,-2.3320312 -5.67188,-6.1054687 0,-3.4101561 2.02734,-6.1875001 5.77734,-6.1875001 1.61719,0 2.73047,0.375 3.4336,0.785156 l 0.67969,-2.296875 c -0.8086,-0.410156 -2.36719,-0.84375 -4.11329,-0.84375 -5.34375,0 -8.78906,3.644532 -8.78906,8.6718753 0,5.0039063 3.21094,8.34375001 8.14453,8.34375001 2.19141,0 3.91407,-0.5390625 4.6875,-0.94921875 z m 3.97851,2.8359374625 h 2.97656 V -9.8552922 c 0,-0.5742188 0.0352,-1.0195308 0.19922,-1.4179688 0.53907,-1.628906 2.0625,-2.976562 3.98438,-2.976562 2.80078,0 3.78515,2.226562 3.78515,4.8632808 V 1.765625e-4 h 2.96485 V -9.7263859 c 0,-5.6367191 -3.50391,-6.9843751 -5.70703,-6.9843751 -1.11328,0 -2.15625,0.339844 -3.03516,0.84375 -0.91406,0.503906 -1.65234,1.253906 -2.12109,2.097656 h -0.0703 v -10.207031 h -2.97656 z M 247.84663,-7.6287297 c 0.0352,-0.3046875 0.10547,-0.7734375 0.10547,-1.3828125 0,-3.0117188 -1.41797,-7.6992188 -6.76172,-7.6992188 -4.75781,0 -7.66406,3.878906 -7.66406,8.8125001 0,4.921875 3.01172,8.23828121 8.03906,8.23828121 2.60157,0 4.39453,-0.5390625 5.4375,-1.01953125 l -0.5039,-2.12109376 c -1.11328,0.46875 -2.40235,0.84375 -4.52344,0.84375 -2.97656,0 -5.54297,-1.6523437 -5.61328,-5.671875 z m -11.44922,-2.1328125 c 0.2461,-2.0507808 1.5586,-4.8281248 4.5586,-4.8281248 3.35156,0 4.16015,2.941406 4.125,4.8281248 z m 16.11036,10.13671876 c 1.24218,0 2.02734,-0.9140625 2.02734,-2.13281246 0,-1.2421875 -0.80859,-2.1210938 -1.99219,-2.1210938 -1.18359,0 -2.02734,0.8789063 -2.02734,2.1210938 0,1.21874996 0.80859,2.13281246 1.99219,2.13281246 z m 16.84277,-3.21093746 c -0.84375,0.375 -1.95703,0.8085937 -3.64453,0.8085937 -3.2461,0 -5.67188,-2.3320312 -5.67188,-6.1054687 0,-3.4101561 2.02735,-6.1875001 5.77735,-6.1875001 1.61718,0 2.73047,0.375 3.43359,0.785156 l 0.67969,-2.296875 c -0.8086,-0.410156 -2.36719,-0.84375 -4.11328,-0.84375 -5.34375,0 -8.78907,3.644532 -8.78907,8.6718753 0,5.0039063 3.21094,8.34375001 8.14454,8.34375001 2.1914,0 3.91406,-0.5390625 4.6875,-0.94921875 z m 10.70215,-13.8750001 c -4.52344,0 -8.10938,3.210938 -8.10938,8.6718751 0,5.1679687 3.41016,8.41406246 7.83985,8.41406246 3.94921,0 8.13281,-2.63671876 8.13281,-8.68359376 0,-4.9921878 -3.17578,-8.4023438 -7.86328,-8.4023438 z m -0.0703,2.226563 c 3.51563,0 4.89844,3.515625 4.89844,6.2812496 0,3.6796875 -2.13281,6.3515625 -4.96875,6.3515625 -2.89453,0 -4.95703,-2.7070313 -4.95703,-6.28125 0,-3.1054691 1.52344,-6.3515621 5.02734,-6.3515621 z M 291.66011,1.765625e-4 h 2.90625 V -9.8552922 c 0,-0.5039058 0.0703,-1.0195308 0.23437,-1.4531248 0.48047,-1.488281 1.82813,-2.976563 3.67969,-2.976563 2.26172,0 3.41016,1.898438 3.41016,4.5000003 V 1.765625e-4 h 2.90625 V -10.089667 c 0,-0.550781 0.10547,-1.089844 0.23437,-1.488281 0.50391,-1.453125 1.82813,-2.707032 3.51563,-2.707032 2.39062,0 3.53906,1.898438 3.53906,5.0390628 V 1.765625e-4 h 2.90625 V -9.6209172 c 0,-5.6718748 -3.21094,-7.0898438 -5.36719,-7.0898438 -1.55859,0 -2.63672,0.398438 -3.60937,1.148438 -0.67969,0.503906 -1.32422,1.21875 -1.82813,2.121093 h -0.0703 c -0.70312,-1.921875 -2.39062,-3.269531 -4.61719,-3.269531 -2.70703,0 -4.21875,1.453125 -5.13281,3 h -0.10547 l -0.1289,-2.625 h -2.60157 c 0.0937,1.347656 0.12891,2.730469 0.12891,4.417969 z m 0,0" style="fill:#231916;fill-opacity:1;fill-rule:nonzero;stroke:none" aria-label="www.typoocirche.com" transform="matrix(1.3333333,0,0,1.3333333,195.50267,658.91773)" />
      <path id="path76" d="m 0,0 4.929,-16.339 h 2.7 l 2.633,7.764 c 0.574,1.756 1.081,3.444 1.486,5.402 h 0.067 c 0.405,-1.925 0.878,-3.545 1.452,-5.368 l 2.498,-7.798 h 2.701 L 23.732,0 h -2.937 l -2.329,-8.203 c -0.541,-1.924 -0.979,-3.646 -1.249,-5.3 h -0.102 c -0.371,1.654 -0.844,3.376 -1.451,5.334 L 13.132,0 H 10.634 L 7.967,-8.338 c -0.54,-1.756 -1.081,-3.511 -1.452,-5.165 H 6.414 c -0.304,1.688 -0.743,3.376 -1.215,5.198 L 3.038,0 Z" style="fill:none;stroke:#231916;stroke-width:1;stroke-linecap:butt;stroke-linejoin:miter;stroke-miterlimit:10;stroke-dasharray:none;stroke-opacity:1" transform="matrix(1.3333333,0,0,-1.3333333,196.3128,637.13267)" />
      <path id="path77" d="m 0,0 4.929,-16.339 h 2.7 l 2.633,7.764 c 0.574,1.756 1.081,3.444 1.486,5.402 h 0.067 c 0.405,-1.925 0.878,-3.545 1.452,-5.368 l 2.498,-7.798 h 2.701 L 23.732,0 h -2.937 l -2.329,-8.203 c -0.541,-1.924 -0.979,-3.646 -1.249,-5.3 h -0.102 c -0.371,1.654 -0.844,3.376 -1.451,5.334 L 13.132,0 H 10.634 L 7.967,-8.338 c -0.54,-1.756 -1.081,-3.511 -1.452,-5.165 H 6.414 c -0.304,1.688 -0.743,3.376 -1.215,5.198 L 3.038,0 Z" style="fill:none;stroke:#231916;stroke-width:1;stroke-linecap:butt;stroke-linejoin:miter;stroke-miterlimit:10;stroke-dasharray:none;stroke-opacity:1" transform="matrix(1.3333333,0,0,-1.3333333,229.97987,637.13267)" />
      <path id="path78" d="m 0,0 4.928,-16.339 h 2.701 l 2.633,7.764 c 0.574,1.756 1.081,3.444 1.486,5.402 h 0.067 c 0.405,-1.925 0.878,-3.545 1.452,-5.368 l 2.498,-7.798 h 2.701 L 23.732,0 h -2.937 l -2.329,-8.203 c -0.54,-1.924 -0.979,-3.646 -1.249,-5.3 h -0.102 c -0.371,1.654 -0.844,3.376 -1.451,5.334 L 13.132,0 H 10.634 L 7.967,-8.338 c -0.54,-1.756 -1.081,-3.511 -1.452,-5.165 H 6.414 c -0.304,1.688 -0.743,3.376 -1.216,5.198 L 3.038,0 Z" style="fill:none;stroke:#231916;stroke-width:1;stroke-linecap:butt;stroke-linejoin:miter;stroke-miterlimit:10;stroke-dasharray:none;stroke-opacity:1" transform="matrix(1.3333333,0,0,-1.3333333,263.6472,637.13267)" />
      <path id="path79" d="m 0,0 c 1.249,0 2.025,0.911 2.025,2.126 0,1.249 -0.81,2.127 -1.991,2.127 -1.182,0 -2.026,-0.878 -2.026,-2.127 C -1.992,0.911 -1.182,0 0,0 Z" style="fill:none;stroke:#231916;stroke-width:1;stroke-linecap:butt;stroke-linejoin:miter;stroke-miterlimit:10;stroke-dasharray:none;stroke-opacity:1" transform="matrix(1.3333333,0,0,-1.3333333,299.20547,659.41253)" />
      <path id="path80" d="M 0,0 V -3.916 H -2.532 V -6.178 H 0 v -8.912 c 0,-1.924 0.304,-3.376 1.147,-4.253 0.709,-0.811 1.824,-1.249 3.207,-1.249 1.148,0 2.06,0.168 2.634,0.405 l -0.135,2.228 c -0.372,-0.102 -0.946,-0.203 -1.722,-0.203 -1.654,0 -2.228,1.148 -2.228,3.173 v 8.811 h 4.253 v 2.262 H 2.903 v 4.692 z" style="fill:none;stroke:#231916;stroke-width:1;stroke-linecap:butt;stroke-linejoin:miter;stroke-miterlimit:10;stroke-dasharray:none;stroke-opacity:1" transform="matrix(1.3333333,0,0,-1.3333333,307.71187,631.91133)" />
      <path id="path81" d="m 0,0 6.043,-15.056 c 0.135,-0.371 0.202,-0.608 0.202,-0.777 0,-0.168 -0.101,-0.405 -0.236,-0.709 -0.675,-1.519 -1.688,-2.666 -2.498,-3.308 -0.878,-0.742 -1.857,-1.215 -2.599,-1.451 l 0.742,-2.498 c 0.743,0.135 2.195,0.641 3.646,1.924 2.026,1.755 3.477,4.625 5.604,10.229 L 15.36,0 H 12.22 L 8.979,-9.587 c -0.404,-1.182 -0.742,-2.431 -1.046,-3.41 H 7.866 c -0.27,0.979 -0.676,2.262 -1.047,3.342 L 3.241,0 Z" style="fill:none;stroke:#231916;stroke-width:1;stroke-linecap:butt;stroke-linejoin:miter;stroke-miterlimit:10;stroke-dasharray:none;stroke-opacity:1" transform="matrix(1.3333333,0,0,-1.3333333,319.23333,637.13267)" />
      <path id="path82" d="m 0,0 h 2.937 v 8.878 h 0.067 c 0.979,-1.62 2.87,-2.565 5.03,-2.565 3.849,0 7.427,2.903 7.427,8.777 0,4.962 -2.971,8.304 -6.92,8.304 -2.667,0 -4.591,-1.181 -5.807,-3.173 H 2.667 L 2.532,23.023 H -0.135 C -0.067,21.47 0,19.782 0,17.689 Z m 2.937,16.136 c 0,0.406 0.101,0.844 0.203,1.216 0.573,2.228 2.464,3.679 4.489,3.679 3.14,0 4.861,-2.802 4.861,-6.076 0,-3.747 -1.823,-6.313 -4.962,-6.313 -2.127,0 -3.916,1.418 -4.456,3.477 -0.068,0.371 -0.135,0.777 -0.135,1.215 z" style="fill:none;stroke:#231916;stroke-width:1;stroke-linecap:butt;stroke-linejoin:miter;stroke-miterlimit:10;stroke-dasharray:none;stroke-opacity:1" transform="matrix(1.3333333,0,0,-1.3333333,343.31347,667.82987)" />
      <path id="path83" d="m 0,0 c -4.523,0 -8.102,-3.207 -8.102,-8.676 0,-5.164 3.41,-8.405 7.832,-8.405 3.95,0 8.135,2.633 8.135,8.675 C 7.865,-3.409 4.692,0 0,0 Z m -0.067,-2.228 c 3.51,0 4.894,-3.511 4.894,-6.279 0,-3.68 -2.126,-6.347 -4.962,-6.347 -2.903,0 -4.963,2.701 -4.963,6.28 0,3.105 1.519,6.346 5.031,6.346 z" style="fill:none;stroke:#231916;stroke-width:1;stroke-linecap:butt;stroke-linejoin:miter;stroke-miterlimit:10;stroke-dasharray:none;stroke-opacity:1" transform="matrix(1.3333333,0,0,-1.3333333,378.15133,636.63787)" />
      <path id="path84" d="m 0,0 c -4.523,0 -8.102,-3.207 -8.102,-8.676 0,-5.164 3.41,-8.405 7.832,-8.405 3.95,0 8.135,2.633 8.135,8.675 C 7.865,-3.409 4.692,0 0,0 Z m -0.067,-2.228 c 3.51,0 4.894,-3.511 4.894,-6.279 0,-3.68 -2.126,-6.347 -4.962,-6.347 -2.903,0 -4.963,2.701 -4.963,6.28 0,3.105 1.519,6.346 5.031,6.346 z" style="fill:none;stroke:#231916;stroke-width:1;stroke-linecap:butt;stroke-linejoin:miter;stroke-miterlimit:10;stroke-dasharray:none;stroke-opacity:1" transform="matrix(1.3333333,0,0,-1.3333333,402.8616,636.63787)" />
      <path id="path85" d="m 0,0 c -0.844,-0.371 -1.958,-0.81 -3.646,-0.81 -3.241,0 -5.671,2.33 -5.671,6.11 0,3.409 2.025,6.178 5.773,6.178 1.62,0 2.734,-0.372 3.442,-0.776 l 0.676,2.295 c -0.81,0.405 -2.363,0.844 -4.118,0.844 -5.334,0 -8.778,-3.646 -8.778,-8.676 0,-4.996 3.207,-8.338 8.136,-8.338 2.194,0 3.916,0.54 4.692,0.945 z" style="fill:none;stroke:#231916;stroke-width:1;stroke-linecap:butt;stroke-linejoin:miter;stroke-miterlimit:10;stroke-dasharray:none;stroke-opacity:1" transform="matrix(1.3333333,0,0,-1.3333333,433.19827,655.1372)" />
      <path id="path86" d="M 0,0 V 16.339 H -2.971 V 0 Z m -1.485,22.787 c -1.08,0 -1.857,-0.811 -1.857,-1.857 0,-1.013 0.742,-1.823 1.789,-1.823 1.181,0 1.924,0.81 1.89,1.823 0,1.046 -0.709,1.857 -1.822,1.857 z" style="fill:none;stroke:#231916;stroke-width:1;stroke-linecap:butt;stroke-linejoin:miter;stroke-miterlimit:10;stroke-dasharray:none;stroke-opacity:1" transform="matrix(1.3333333,0,0,-1.3333333,442.4704,658.91773)" />
      <path id="path87" d="m 0,0 h 2.937 v 8.709 c 0,0.507 0.067,0.979 0.135,1.385 0.405,2.228 1.89,3.814 3.983,3.814 0.405,0 0.709,-0.033 1.013,-0.101 v 2.802 C 7.798,16.676 7.562,16.71 7.224,16.71 5.232,16.71 3.443,15.326 2.701,13.132 H 2.565 L 2.464,16.339 H -0.135 C -0.034,14.82 0,13.166 0,11.241 Z" style="fill:none;stroke:#231916;stroke-width:1;stroke-linecap:butt;stroke-linejoin:miter;stroke-miterlimit:10;stroke-dasharray:none;stroke-opacity:1" transform="matrix(1.3333333,0,0,-1.3333333,449.04133,658.91773)" />
      <path id="path88" d="m 0,0 c -0.844,-0.371 -1.958,-0.81 -3.646,-0.81 -3.241,0 -5.671,2.33 -5.671,6.11 0,3.409 2.025,6.178 5.773,6.178 1.62,0 2.734,-0.372 3.442,-0.776 l 0.676,2.295 c -0.81,0.405 -2.363,0.844 -4.118,0.844 -5.334,0 -8.778,-3.646 -8.778,-8.676 0,-4.996 3.207,-8.338 8.136,-8.338 2.194,0 3.916,0.54 4.692,0.945 z" style="fill:none;stroke:#231916;stroke-width:1;stroke-linecap:butt;stroke-linejoin:miter;stroke-miterlimit:10;stroke-dasharray:none;stroke-opacity:1" transform="matrix(1.3333333,0,0,-1.3333333,478.16373,655.1372)" />
      <path id="path89" d="m 0,0 h 2.971 v 9.857 c 0,0.574 0.033,1.013 0.202,1.418 0.54,1.621 2.059,2.971 3.984,2.971 2.801,0 3.781,-2.228 3.781,-4.861 V 0 h 2.97 v 9.722 c 0,5.638 -3.511,6.988 -5.705,6.988 -1.114,0 -2.161,-0.337 -3.038,-0.844 C 4.253,15.36 3.511,14.617 3.038,13.773 H 2.971 V 23.968 H 0 Z" style="fill:none;stroke:#231916;stroke-width:1;stroke-linecap:butt;stroke-linejoin:miter;stroke-miterlimit:10;stroke-dasharray:none;stroke-opacity:1" transform="matrix(1.3333333,0,0,-1.3333333,483.47427,658.91773)" />
      <path id="path90" d="m 0,0 c 0.034,0.304 0.101,0.776 0.101,1.384 0,3.004 -1.418,7.697 -6.751,7.697 -4.76,0 -7.663,-3.882 -7.663,-8.811 0,-4.929 3.004,-8.237 8.034,-8.237 2.599,0 4.388,0.54 5.435,1.013 l -0.507,2.126 c -1.113,-0.472 -2.396,-0.843 -4.523,-0.843 -2.971,0 -5.536,1.654 -5.604,5.671 z m -11.444,2.126 c 0.236,2.06 1.553,4.828 4.557,4.828 3.343,0 4.153,-2.937 4.119,-4.828 z" style="fill:none;stroke:#231916;stroke-width:1;stroke-linecap:butt;stroke-linejoin:miter;stroke-miterlimit:10;stroke-dasharray:none;stroke-opacity:1" transform="matrix(1.3333333,0,0,-1.3333333,525.96387,648.7452)" />
      <path id="path91" d="m 0,0 c 1.249,0 2.025,0.911 2.025,2.126 0,1.249 -0.81,2.127 -1.991,2.127 -1.182,0 -2.026,-0.878 -2.026,-2.127 C -1.992,0.911 -1.182,0 0,0 Z" style="fill:none;stroke:#231916;stroke-width:1;stroke-linecap:butt;stroke-linejoin:miter;stroke-miterlimit:10;stroke-dasharray:none;stroke-opacity:1" transform="matrix(1.3333333,0,0,-1.3333333,532.17547,659.41253)" />
      <path id="path92" d="m 0,0 c -0.844,-0.371 -1.958,-0.81 -3.646,-0.81 -3.241,0 -5.671,2.33 -5.671,6.11 0,3.409 2.025,6.178 5.773,6.178 1.62,0 2.734,-0.372 3.442,-0.776 l 0.676,2.295 c -0.81,0.405 -2.363,0.844 -4.118,0.844 -5.334,0 -8.778,-3.646 -8.778,-8.676 0,-4.996 3.207,-8.338 8.136,-8.338 2.194,0 3.916,0.54 4.692,0.945 z" style="fill:none;stroke:#231916;stroke-width:1;stroke-linecap:butt;stroke-linejoin:miter;stroke-miterlimit:10;stroke-dasharray:none;stroke-opacity:1" transform="matrix(1.3333333,0,0,-1.3333333,554.63507,655.1372)" />
      <path id="path93" d="m 0,0 c -4.523,0 -8.102,-3.207 -8.102,-8.676 0,-5.164 3.41,-8.405 7.832,-8.405 3.95,0 8.135,2.633 8.135,8.675 C 7.865,-3.409 4.692,0 0,0 Z m -0.067,-2.228 c 3.51,0 4.894,-3.511 4.894,-6.279 0,-3.68 -2.126,-6.347 -4.962,-6.347 -2.903,0 -4.963,2.701 -4.963,6.28 0,3.105 1.519,6.346 5.031,6.346 z" style="fill:none;stroke:#231916;stroke-width:1;stroke-linecap:butt;stroke-linejoin:miter;stroke-miterlimit:10;stroke-dasharray:none;stroke-opacity:1" transform="matrix(1.3333333,0,0,-1.3333333,568.90333,636.63787)" />
      <path id="path94" d="m 0,0 h 2.903 v 9.857 c 0,0.507 0.068,1.013 0.237,1.452 0.472,1.485 1.822,2.97 3.679,2.97 2.262,0 3.41,-1.89 3.41,-4.489 V 0 h 2.903 v 10.094 c 0,0.54 0.101,1.08 0.236,1.485 0.507,1.451 1.823,2.7 3.511,2.7 2.397,0 3.544,-1.89 3.544,-5.029 V 0 h 2.904 v 9.621 c 0,5.671 -3.207,7.089 -5.368,7.089 -1.553,0 -2.633,-0.405 -3.612,-1.147 -0.675,-0.507 -1.317,-1.216 -1.823,-2.127 H 12.457 C 11.748,15.36 10.06,16.71 7.832,16.71 5.131,16.71 3.612,15.258 2.701,13.706 H 2.599 L 2.464,16.339 H -0.135 C -0.034,14.988 0,13.604 0,11.917 Z" style="fill:none;stroke:#231916;stroke-width:1;stroke-linecap:butt;stroke-linejoin:miter;stroke-miterlimit:10;stroke-dasharray:none;stroke-opacity:1" transform="matrix(1.3333333,0,0,-1.3333333,584.3864,658.91773)" />
    </g></svg>