<?xml version='1.0' encoding='utf-8'?>
<svg xmlns="http://www.w3.org/2000/svg" version="1.1" width="150.920" height="181.388" viewBox="1490.240 619.299 150.920 181.388"><defs id="defs1"><clipPath clipPathUnits="userSpaceOnUse" id="clipPath46">
      <path d="M 0,3370.3901 H 2383.9401 V -2.5000001e-5 H 0 Z" id="path46" />
    </clipPath>
  </defs><g id="object"><path id="path16" d="m 0,0 c -11.563,5.597 -38.391,-10.957 -38.736,11.488 -0.258,16.75 26.341,6.341 40.719,9.176 5.086,1.002 10.499,0.219 15.736,0.609 9.289,0.694 18.581,3.552 19.887,13.736 1.521,11.868 -9.367,13.6 -17.706,15.189 -9.392,1.79 -19.108,2.101 -28.707,2.541 -22.911,1.049 -33.077,14.993 -33.846,35.776 -0.799,21.59 10.905,35.097 32.658,36.919 17.413,1.458 35.031,0.792 52.549,0.515 7.691,-0.121 17.591,0.176 16.958,-11.23 -0.522,-9.393 -9.433,-8.888 -16.287,-9.177 -14.002,-0.59 -28.101,0.045 -42.011,-1.326 C -9,103.21 -21.713,101.819 -20.51,87.102 -19.469,74.35 -8.18,74.222 1.606,73.746 8.607,73.405 15.671,73.793 22.619,73.046 46.447,70.482 62.432,54.557 61.456,34.812 60.365,12.72 46.732,0.993 20.825,0.034 14.698,-0.193 8.556,0 0,0" style="fill:#424242;fill-opacity:1;fill-rule:nonzero;stroke:none" transform="matrix(1.3333333,0,0,-1.3333333,1553.1583,793.75667)" />
      </g></svg>