<?xml version='1.0' encoding='utf-8'?>
<svg xmlns="http://www.w3.org/2000/svg" version="1.1" width="56.562" height="101.066" viewBox="796.379 3956.960 56.562 101.066"><g id="object"><path id="path191" d="m 0,0 c 3.302,0 6.618,0.189 9.9,-0.063 2.373,-0.182 5.778,0.672 6.08,-3.17 0.24,-3.057 0.188,-6.589 -3.664,-7.561 -5.471,-1.382 -6.505,-4.844 -6.374,-9.982 0.327,-12.773 -0.074,-25.563 0.209,-38.338 0.127,-5.713 -2.568,-7.694 -7.683,-7.615 -2.426,0.037 -4.109,1.078 -4.194,3.769 -0.316,10.033 -1.446,20.136 -0.612,30.074 0.504,5.999 -1.457,11.633 -0.626,17.569 0.429,3.061 -2.908,3.98 -5.545,4.31 -3.937,0.494 -5.008,2.781 -4.834,6.402 0.196,4.091 3.226,4.277 5.993,4.461 3.769,0.252 7.567,0.063 11.353,0.063 C 0.002,-0.054 0.001,-0.027 0,0" style="fill:#494f57;fill-opacity:1;fill-rule:nonzero;stroke:none" transform="matrix(1.3333333,0,0,-1.3333333,825.52707,3963.0481)" />
      </g></svg>