<?xml version='1.0' encoding='utf-8'?>
<svg xmlns="http://www.w3.org/2000/svg" version="1.1" width="172.777" height="184.100" viewBox="1110.970 521.389 172.777 184.100"><g id="object"><path id="path32" d="m 0,0 c -2.177,4.481 2.879,11.878 -5.179,15.432 -4.343,1.915 -8.612,4.545 -13.41,3.75 -4.457,-0.739 -2.434,-6.078 -4.844,-8.673 -9.111,-9.813 -8.985,-21.669 -7.249,-33.894 1.102,-7.766 9.473,-15.625 14.918,-13.705 6.76,2.383 16.744,17.151 15.992,24.336 C -0.192,-8.74 -0.368,-4.784 0,0 m -16.396,61.987 c 4.158,0.225 10.185,-1.727 15.828,-5.852 5.332,-3.898 10.982,-7.51 16.894,-10.435 11.859,-5.868 17.303,-16.3 20.71,-28.091 2.425,-8.394 3.7,-17.115 5.946,-25.568 2.81,-10.576 -1.224,-19.511 -6.155,-28.236 -4.798,-8.493 -13.796,-9.534 -22.032,-10.855 -5.148,-0.825 -10.091,-1.605 -15.024,-3.463 -14.436,-5.438 -29.034,-10.448 -43.567,-15.63 -7.694,-2.743 -14.386,0.746 -16.555,8.533 -0.429,1.54 -0.882,3.551 -2.021,4.343 -13.883,9.652 -13.879,25.15 -14.272,38.985 -0.462,16.278 4.062,32.027 20.29,41.053 3.214,1.788 2.353,4.539 1.231,7.448 -4.078,10.569 -4.031,10.806 5.706,17.045 9.229,5.913 18.874,10.838 33.021,10.723" style="fill:#d2d5d9;fill-opacity:1;fill-rule:nonzero;stroke:none" transform="matrix(1.3333333,0,0,-1.3333333,1219.2073,610.06133)" />
      </g></svg>