<?xml version='1.0' encoding='utf-8'?>
<svg xmlns="http://www.w3.org/2000/svg" version="1.1" width="63.336" height="100.289" viewBox="1490.870 4362.240 63.336 100.289"><g id="object"><path id="path97" d="m 0,0 c 0.61,-8.735 1.675,-17.482 0.241,-26.202 -1.121,-6.814 -4.431,-10.774 -11.787,-11.852 -17.611,-2.58 -26.189,4.065 -25.451,21.311 0.524,12.262 -0.204,24.464 -0.541,36.683 -0.14,5.106 1.642,7.497 6.675,7.589 5.783,0.104 4.663,-4.351 4.716,-7.566 0.2,-12.053 0.1,-24.111 0.18,-36.167 0.014,-2.113 -0.05,-4.368 0.632,-6.307 1.317,-3.748 4.25,-7.295 8.081,-6.656 4.035,0.673 7.46,3.565 7.35,8.976 -0.278,13.636 -0.219,27.28 -0.228,40.921 -0.003,6.284 2.443,8.026 7.528,6.224 2.876,-1.019 2.615,-2.851 2.61,-4.976 C -0.01,14.652 0,7.326 0,0" style="fill:#c33c36;fill-opacity:1;fill-rule:nonzero;stroke:none" transform="matrix(1.3333333,0,0,-1.3333333,1546.9284,4405.0767)" />
      </g></svg>