<?xml version='1.0' encoding='utf-8'?>
<svg xmlns="http://www.w3.org/2000/svg" version="1.1" width="56.209" height="100.925" viewBox="2178.070 4181.710 56.209 100.925"><g id="object"><path id="path189" d="m 0,0 c 3.551,0 7.111,-0.15 10.651,0.041 3.889,0.21 5.617,-1.569 5.953,-5.304 0.345,-3.824 -1.185,-6.09 -5.067,-5.971 -3.788,0.115 -4.549,-1.551 -4.863,-5.073 C 5.751,-26.666 6.834,-36.97 6.807,-47.295 6.792,-52.7 6.346,-58.111 5.915,-63.504 c -0.27,-3.376 -3.036,-3.052 -5.364,-3.122 -2.766,-0.083 -4.942,0.265 -5.579,3.862 -1.297,7.319 -0.076,14.637 -0.522,21.953 -0.474,7.775 -0.512,15.605 -0.182,23.387 0.187,4.416 -1.111,6.922 -5.576,7.16 -3.858,0.204 -5.421,1.914 -5.172,5.844 0.29,4.596 3.345,4.402 6.538,4.361 C -6.628,-0.101 -3.314,-0.068 0,-0.068 0,-0.045 0,-0.023 0,0" style="fill:#494f57;fill-opacity:1;fill-rule:nonzero;stroke:none" transform="matrix(1.3333333,0,0,-1.3333333,2206.0789,4187.7852)" />
      </g></svg>