<?xml version='1.0' encoding='utf-8'?>
<svg xmlns="http://www.w3.org/2000/svg" version="1.1" width="66.432" height="102.274" viewBox="1434.750 3956.050 66.432 102.274"><g id="object"><path id="path53" d="m 0,0 c 0,12.979 0.171,25.961 -0.097,38.934 -0.089,4.292 0.471,6.92 5.548,6.61 4.171,-0.255 8.296,0.048 7.804,-6.186 -0.333,-4.236 0.028,-8.522 -0.174,-12.774 -0.231,-4.891 1.973,-6.785 6.777,-6.786 4.415,0 7.318,0.7 6.926,6.19 -0.301,4.215 0.804,8.556 0.309,12.725 -0.51,4.293 -0.25,6.835 4.923,6.98 4.498,0.125 7.346,0.236 7.507,-6.063 0.406,-15.916 1.299,-31.813 0.517,-47.743 -0.068,-1.392 0.195,-2.818 0.436,-4.205 1.345,-7.735 -3.007,-11.422 -10.4,-8.845 -2.42,0.843 -2.274,2.939 -2.209,4.69 0.203,5.416 -1.395,10.745 -0.414,16.217 0.793,4.421 -0.949,7.571 -5.907,7.506 -4.481,-0.059 -8.504,-0.652 -7.862,-7.1 0.537,-5.39 -10e-4,-10.88 0.091,-16.323 0.078,-4.598 -2.492,-5.642 -6.419,-5.232 -3.608,0.376 -7.19,0.287 -6.683,5.83 0.472,5.151 0.101,10.379 0.101,15.573 C 0.516,-0.001 0.258,-0.001 0,0" style="fill:#494f57;fill-opacity:1;fill-rule:nonzero;stroke:none" transform="matrix(1.3333333,0,0,-1.3333333,1440.8932,4023.0177)" />
      </g></svg>