<?xml version='1.0' encoding='utf-8'?>
<svg xmlns="http://www.w3.org/2000/svg" version="1.1" width="146.858" height="177.359" viewBox="90.979 3680.110 146.858 177.359"><g id="object"><path id="path34" d="m 0,0 c 0.031,-2.082 -0.731,-3.535 -2.425,-4.372 -0.765,-0.378 -1.612,-0.632 -2.45,-0.816 -24.944,-5.479 -18.681,-7.932 -25.358,14.554 -2.698,9.082 -4.281,18.494 -6.455,27.736 -0.388,1.649 -0.999,3.314 -1.86,4.761 -0.753,1.267 -2.446,1.298 -3.14,0.176 -2.029,-3.283 -4.178,-6.607 -5.485,-10.203 -6.208,-17.086 -15.268,-32.852 -22.597,-49.415 -2.637,-5.958 -4.703,-6.719 -11.255,-4.989 -3.75,0.991 -7.47,2.127 -11.142,3.375 -3.054,1.039 -7.901,-0.692 -8.778,3.619 -0.741,3.639 0.671,7.523 3.126,10.829 3.077,4.143 5.816,8.54 8.64,12.867 8.543,13.089 14.652,27.377 20.442,41.81 6.282,15.658 13.689,30.746 22.574,45.092 1.123,1.812 2.488,3.534 4.014,5.017 0.943,0.917 2.418,0.78 3.302,-0.406 1.029,-1.377 2.033,-2.816 2.774,-4.36 C -21.657,65.267 -10.307,34.08 -0.411,2.336 -0.156,1.521 -0.109,0.64 0,0" style="fill:#494643;fill-opacity:1;fill-rule:nonzero;stroke:none" transform="matrix(1.3333333,0,0,-1.3333333,231.83573,3820.2992)" />
      </g></svg>