<?xml version='1.0' encoding='utf-8'?>
<svg xmlns="http://www.w3.org/2000/svg" version="1.1" width="407.278" height="685.304" viewBox="109.538 1455.640 407.278 685.304"><defs id="defs1"><clipPath clipPathUnits="userSpaceOnUse" id="clipPath4">
      <path d="M 122.5624,2051.5417 H 2506.5025 V -1318.8484 H 122.5624 Z" id="path4" />
    </clipPath>
    <clipPath clipPathUnits="userSpaceOnUse" id="clipPath6">
      <path d="M -503.42171,2051.917 H 1880.5183 V -1318.4731 H -503.42171 Z" id="path6" />
    </clipPath>
  </defs><g id="object"><path id="path9" d="m 0,0 c 4.206,0 8.414,0.085 12.617,-0.013 69.391,-1.604 91.813,-34.046 70.252,-100.761 -5.199,-16.087 -14.557,-21.873 -30.468,-16.162 -7.901,2.836 -15.341,7.339 -23.425,9.204 -14.295,3.299 -28.4,3.381 -39.406,-9.189 -11.814,-13.492 -3.714,-26.295 3.382,-36.74 19.334,-28.454 41.724,-54.859 60.627,-83.573 42.463,-64.503 40.819,-133.011 11.235,-201.202 -14.121,-32.547 -43.633,-50.75 -77.68,-59.236 -61.74,-15.388 -119.442,-8.175 -165.689,39.286 -38.063,39.062 -35.175,128.32 2.829,167.533 7.825,8.074 16.995,14.476 27.808,16.304 18.008,3.043 31.664,-0.976 32.321,-23.694 0.36,-12.47 1.853,-25.45 5.878,-37.154 7.244,-21.063 21.884,-33.717 45.954,-30.35 20.952,2.93 29.71,17.111 24.133,37.646 -5.64,20.763 -17.933,37.809 -30.12,54.884 -14.645,20.519 -29.314,41.041 -44.657,61.037 -29.682,38.679 -32.75,81.652 -21.147,126.949 12.332,48.14 53.764,79.742 110.342,84.564 C -16.867,0.044 -8.408,-0.569 0,-0.569 0,-0.379 0,-0.19 0,0" style="fill:#1c2a2f;fill-opacity:1;fill-rule:nonzero;stroke:none" transform="matrix(1.3333333,0,0,-1.3333333,389.81213,1461.688)" />
      </g></svg>