<?xml version='1.0' encoding='utf-8'?>
<svg xmlns="http://www.w3.org/2000/svg" version="1.1" width="1510.360" height="1007.619" viewBox="837.866 1750.370 1510.360 1007.619"><g id="object"><path id="path3" d="m 0,0 c -0.253,-1.553 -0.506,-3.106 -0.759,-4.659 -19.812,0 -39.648,0.642 -59.43,-0.122 -57.746,-2.23 -87.504,-36.065 -76.393,-92.044 6.993,-35.232 18.671,-70.118 33.052,-103.062 7.704,-17.646 23.147,-34.426 39.302,-45.414 56.392,-38.356 119.89,-41.297 184.669,-28.972 51.154,9.734 86.131,40.931 107.875,87.515 13.375,28.653 18.483,58.847 17.635,90.525 -0.63,23.537 -10.52,40.757 -30.547,51.775 -12.062,6.637 -24.796,13.896 -38.044,16.218 C 118.401,-17.909 59.147,-9.258 0,0 m 843.515,-98.062 c -1.546,22.054 -2.579,37.205 -3.675,52.352 -1.953,27.011 -17.066,44.48 -41.995,51.748 -17.528,5.111 -36.26,8.549 -54.447,8.516 C 676.265,14.431 610.46,2.876 546.819,-17.647 c -26.438,-8.525 -51.546,-23.184 -74.893,-38.63 -17.94,-11.868 -23.409,-31.243 -19.574,-54.266 6.042,-36.276 24.338,-66.511 41.049,-98.035 16.513,-31.154 41.995,-48.136 75.25,-55.67 66.931,-15.163 131.182,-4.982 193.592,20.937 39.382,16.356 64.184,46.239 73.921,87.232 4.989,21.007 5.568,43.062 7.351,58.017 M -206.391,-310.897 c 49.604,20.114 103.581,15.568 152.369,23.254 -19.748,17.332 -43.507,33.924 -61.81,55.207 -30.426,35.38 -44.648,79.185 -52.335,124.723 -3.791,22.456 -10.599,42.165 -30.995,54.928 -3.154,1.974 -7.214,5.727 -7.345,8.806 -1.323,31.222 -8.984,62.972 13.321,91.406 54.629,69.642 148.041,121.246 254.419,65.286 5.772,-3.036 12.34,-4.625 18.628,-6.6 19.892,-6.248 22.3,-12.86 10.594,-29.585 C 78.443,59.364 63.403,53.356 43.946,62.237 25.47,70.671 8.208,82.036 -8.852,93.234 c -20.552,13.491 -34.241,13.255 -49.406,-6.992 -13.369,-17.846 -23.525,-38.1 -36.819,-60.141 32.044,-1.879 61.897,-3.182 91.676,-5.459 92.976,-7.11 185.93,-14.332 275.143,-44.925 11.726,-4.021 24.609,-4.626 36.928,-6.964 15.052,-2.856 17.029,-11.187 10.905,-25.169 -3.665,-8.368 -2.08,-19.696 -0.769,-29.412 1.547,-11.468 2.477,-19.445 -12.167,-23.932 -8.234,-2.523 -15.71,-11.969 -20.564,-20.072 -8.098,-13.517 -14.513,-28.179 -20.42,-42.85 -26.126,-64.89 -31.527,-72.202 -84.374,-109.865 117.346,-0.017 234.688,-0.017 352.03,-0.017 0.486,1.259 0.973,2.517 1.46,3.776 -7.26,4.763 -14.614,9.389 -21.762,14.314 -31.493,21.702 -51.416,52.721 -68.828,85.748 -6.476,12.283 -13.036,24.523 -19.549,36.786 -7.183,13.526 -17.913,20.136 -33.732,19.681 -18.413,-0.528 -36.666,29.656 -29.929,47.379 2.479,6.521 2.821,13.854 3.906,19.591 134.051,51.522 272.189,92.803 417.951,103.894 0.708,2.096 1.417,4.193 2.125,6.289 -16.645,17.973 -32.057,37.414 -50.668,53.046 -5.765,4.842 -22.43,2.805 -30.255,-2.155 -17.139,-10.864 -31.892,-25.524 -47.48,-38.799 -23.39,-19.921 -32.831,-18.783 -52.523,3.593 -11.02,12.524 -8.018,22.129 4.182,29.09 20.031,11.431 40.436,22.614 61.725,31.367 89.234,36.686 178.458,12.673 238.364,-63.557 3.715,-4.728 5.878,-11.625 6.388,-17.711 0.878,-10.491 -0.985,-21.209 -0.126,-31.703 1.521,-18.603 -4.983,-32.914 -14.763,-49.105 -11.828,-19.583 -18.849,-43.715 -21.845,-66.676 -8.39,-64.284 -29.184,-120.858 -85.241,-158.829 -12.885,-8.728 -27.129,-15.45 -40.616,-27.961 h 156.436 c 0.222,-2.866 0.444,-5.731 0.667,-8.597 -16.787,-1.945 -33.557,-4.057 -50.365,-5.788 -17.76,-1.829 -35.72,-2.303 -53.29,-5.202 -16.941,-2.795 -33.497,-7.93 -50.423,-15.885 43.703,-34.616 101.507,-35.546 145.812,-65.036 -0.043,-2.342 -0.087,-4.684 -0.13,-7.026 -10.052,-3.272 -19.893,-8.293 -30.19,-9.538 -73.505,-8.881 -147.21,-16.173 -220.628,-25.694 -36.646,-4.753 -72.919,-12.666 -109.146,-20.183 -9.788,-2.031 -18.793,-7.833 -28.158,-11.904 0.042,-2.046 0.084,-4.093 0.126,-6.139 8.191,-3.067 16.178,-7.976 24.605,-8.908 65.662,-7.253 131.403,-13.804 197.133,-20.438 28.266,-2.853 56.609,-5.009 84.82,-8.303 8.149,-0.951 15.964,-4.758 23.931,-7.256 0.475,-1.921 0.95,-3.842 1.425,-5.763 -9.303,-4.511 -18.166,-11.156 -27.981,-13.176 -52.413,-10.791 -104.732,-22.939 -157.702,-29.939 -110.722,-14.631 -221.822,-26.419 -332.798,-39.095 -9.686,-1.107 -19.609,-0.147 -30.168,3.652 23.857,4.001 47.809,7.52 71.546,12.137 23.979,4.664 47.87,9.932 71.535,15.97 7.69,1.962 14.547,7.185 21.785,10.917 0.031,2.13 0.061,4.261 0.092,6.391 -11.201,4.08 -22.096,9.875 -33.656,11.934 -44.238,7.881 -88.671,14.673 -133.065,21.658 -56.792,8.936 -113.693,17.216 -170.363,26.856 -11.534,1.962 -22.255,8.709 -33.35,13.25 0.014,2.428 0.029,4.857 0.044,7.285 9.533,4.718 18.688,10.553 28.671,13.948 31.878,10.841 64.397,19.881 95.929,31.604 9.498,3.531 16.587,13.544 24.779,20.588 -9.053,6.936 -17.231,17.963 -27.305,20.116 -50.333,10.757 -100.896,21.209 -151.883,27.954 -74.669,9.878 -149.804,16.197 -224.651,24.805 -14.518,1.669 -28.629,6.877 -42.927,10.453 0.119,2.654 0.238,5.307 0.357,7.961" style="fill:#ce4f2d;fill-opacity:1;fill-rule:nonzero;stroke:none" transform="matrix(1.3333333,0,0,-1.3333333,1122.3239,1953.5819)" />
      </g></svg>