<?xml version='1.0' encoding='utf-8'?>
<svg xmlns="http://www.w3.org/2000/svg" version="1.1" width="63.748" height="102.210" viewBox="1291.930 3955.610 63.748 102.210"><g id="object"><path id="path72" d="m 0,0 c -2.43,-6.356 -1.634,-12.223 -1.326,-18.062 0.234,-4.453 -0.459,-7.584 -6.354,-7.654 -5.579,-0.067 -7.094,2.539 -7.131,7.202 -0.137,17.186 -0.335,34.371 -0.273,51.556 0.013,3.541 -0.404,7.524 5.467,8.071 5.082,0.472 7.72,-0.272 7.492,-5.901 -0.123,-3.055 0.171,-6.13 0.335,-9.193 0.106,-1.986 -1.118,-4.78 1.65,-5.501 3.043,-0.793 2.942,2.313 3.629,4.124 1.421,3.751 2.783,7.529 4.022,11.343 1.681,5.173 8.824,7.699 13.063,4.613 2.024,-1.474 0.63,-2.928 0.181,-4.371 -1.808,-5.81 -5.242,-10.871 -7.162,-16.747 -2.309,-7.065 -1.572,-13.478 0.772,-19.91 2.565,-7.037 5.74,-13.856 8.769,-20.717 1.423,-3.225 0.156,-4.473 -2.944,-4.405 -4.725,0.104 -8.779,0.121 -11.124,6.185 C 6.609,-13.015 5.117,-5.905 0,0" style="fill:#494f57;fill-opacity:1;fill-rule:nonzero;stroke:none" transform="matrix(1.3333333,0,0,-1.3333333,1318.0607,4017.5348)" />
      </g></svg>