<?xml version='1.0' encoding='utf-8'?>
<svg xmlns="http://www.w3.org/2000/svg" version="1.1" width="3096.820" height="4379.919" viewBox="61.618 61.371 3096.820 4379.919"><defs id="defs1"><clipPath clipPathUnits="userSpaceOnUse" id="clipPath53">
      <path d="M 0,3370.3901 H 2383.9401 V -2.5000001e-5 H 0 Z" id="path53" />
    </clipPath>
  </defs><g id="object"><path id="path2" d="m 0,0 c 3.922,-0.018 7.843,-0.035 11.723,-0.052 45.064,-2.231 90.169,-2.24 135.274,0.015 7.216,0.04 14.433,0.08 21.612,0.121 62.89,-2.689 125.819,-2.195 188.751,-0.167 9.452,0.017 18.904,0.033 28.318,0.05 1.704,-1.777 3.444,-1.816 5.181,0.006 2.759,0.007 5.519,0.014 8.239,0.022 3.189,-0.458 6.416,-1.314 9.644,-1.318 77.656,-0.11 155.313,-0.273 232.968,-0.04 15.422,0.047 30.942,-1.633 46.298,1.315 5.043,-0.008 10.086,-0.017 15.088,-0.024 22.81,-2.027 45.663,-2.424 68.517,-0.036 4.963,0.027 9.926,0.054 14.851,0.082 39.557,-2.33 79.153,-2.285 118.748,0.014 7.241,-0.003 14.481,-0.006 21.682,-0.008 42.813,-2.359 85.668,-2.173 128.523,-0.06 6.143,0.022 12.285,0.045 18.388,0.069 3.92,-2.132 7.877,-2.156 11.831,0.011 2.757,-0.003 5.513,-0.005 8.23,-0.007 15,-2.316 30.042,-2.239 45.087,-0.049 6.141,0.011 12.282,0.023 18.385,0.035 2.799,-1.971 5.636,-1.98 8.472,0.008 2.758,0 5.517,0 8.237,0.002 13.895,-2.188 27.831,-2.262 41.769,-0.03 9.494,0 18.988,0 28.442,0.001 11.656,-2.197 23.353,-2.173 35.051,-0.017 18.344,0.01 36.688,0.02 54.992,0.031 23.978,-2.466 47.994,-2.404 72.009,0.024 12.771,-0.012 25.543,-0.025 38.275,-0.036 3.905,-2.13 7.847,-2.083 11.786,0.017 13.298,0.053 26.596,0.105 39.884,0.158 7.43,-7.315 6.945,-16.604 6.944,-26.031 -0.064,-806.665 -0.04,-1613.33 -0.134,-2419.995 0,-14.98 -1.349,-29.961 -2.068,-44.942 -1.66,-0.174 -3.32,-0.501 -4.98,-0.501 -212.098,-0.065 -424.197,-0.016 -636.294,-0.371 -12.992,-0.021 -14.313,6.272 -14.215,16.533 0.337,35.063 -0.144,70.134 0.353,105.192 0.192,13.509 -4.628,22.017 -17.751,26.469 -50.496,17.132 -103.216,20.612 -155.639,26.017 -28.423,1.835 -56.847,3.669 -85.271,5.504 -15.103,2.609 -30.737,0.603 -45.605,5.249 -0.165,12.21 -0.434,24.421 -0.478,36.632 -0.266,73.27 -0.48,146.54 -0.711,219.81 15.836,9.357 34.267,9.969 51.446,12.633 26.673,4.137 51.885,11.753 76.676,21.584 6.923,2.745 12.317,7.575 12.159,15.988 -0.812,43.201 2.226,86.436 -1.122,129.617 3.2,7.353 -1.795,8.522 -7.055,8.923 -8.669,0.661 -17.367,0.936 -26.052,1.374 -23.976,6.394 -48.343,4.164 -72.648,3.29 -8.087,2.28 -16.188,2.327 -24.304,0.153 -2.102,0.225 -4.203,0.451 -6.305,0.676 -4.157,38.593 -0.946,77.285 -1.483,115.926 -0.073,5.213 3.416,7.79 8.495,8.404 5.473,0.662 10.925,1.5 16.387,2.261 6.811,-1.091 13.588,-1.399 20.247,0.907 22.465,0.286 44.874,1.222 66.976,5.74 60.677,4.561 120.493,14.844 180.351,25.501 81.791,14.563 162.177,34.433 240.34,62.216 64.019,22.755 126.271,50.236 180.774,91.845 53.344,40.725 92.658,89.246 80.834,162.743 7.245,-6.732 5.857,1.283 4.986,3.539 -7.226,18.728 -2.42,38.462 -5.302,57.504 4.579,4.543 3.188,10.422 3.196,15.796 0.141,99.942 0.214,199.884 0.078,299.826 -0.01,7.028 1.08,14.569 -3.683,20.9 0.246,3.105 0.493,6.21 0.739,9.315 1.385,-1.6 2.77,-3.199 4.155,-4.799 0.361,2.057 1.039,4.114 1.035,6.171 -0.06,30.353 -3.589,60.876 -2.641,90.876 0.971,30.74 -5.528,59.262 -19.083,84.074 -19.527,35.742 -43.028,69.905 -75.268,96.661 -28.971,24.045 -58.974,46.451 -91.05,66.281 -26.77,16.549 -51.391,36.45 -80.294,49.721 -30.921,14.198 -59.862,33.251 -92.675,42.645 -34.013,9.738 -65.697,25.524 -99.66,35.189 -18.241,5.191 -35.533,15.743 -53.946,17.869 -34.488,3.983 -66.28,17.67 -100.111,24.301 -40.481,7.933 -81.458,14.298 -121.806,23.487 -34.904,7.948 -71.068,8.86 -106.577,12.364 -45.037,4.444 -90.669,3.352 -135.989,7.039 -25.257,2.054 -50.542,-0.796 -75.893,-4.113 -36.053,-4.719 -72.543,-0.244 -109.147,-6.261 -34.989,-5.751 -70.715,-7.669 -105.905,-14.144 -34.885,-6.419 -69.978,-10.84 -104.562,-19.767 -36.085,-9.314 -72.372,-17.824 -108.36,-27.72 -48.363,-13.298 -95.561,-30.359 -141.637,-49.274 -54.005,-22.172 -105.637,-50.329 -156.391,-79.543 -17.642,-10.155 -32.75,-23.867 -48.65,-36.546 -19.837,-15.817 -40.939,-30.279 -58.76,-48.299 -27.399,-27.704 -55.695,-54.182 -72.85,-91.217 -8.279,-17.873 -19.469,-35.519 -20.449,-54.29 -2.404,-46.035 -0.532,-92.294 -0.381,-138.467 -0.08,-110.31 -0.157,-220.616 -0.235,-330.922 -0.863,-22.176 -1.641,-44.352 0.659,-66.497 -4.115,-34.219 1.866,-65.742 24.772,-92.743 0.614,-2.097 0.651,-4.666 1.926,-6.222 51.254,-62.608 119.216,-99.996 193.449,-127.878 3.188,-4.39 8.297,-5.296 12.9,-7.127 48.476,-19.282 98.482,-33.834 148.743,-47.467 27.246,-7.391 54.611,-14.581 82.767,-17.932 22.082,-4.64 43.98,-10.875 66.301,-13.439 19.646,-2.258 38.44,-10.991 58.739,-7.841 6.884,-6.296 9.63,-13.759 9.124,-23.375 -0.664,-12.606 0.341,-25.299 0.629,-37.954 -12.761,-55.019 13.425,-89.346 59.333,-114.388 36.092,-19.688 73.46,-35.776 113.42,-45.296 15.533,-3.7 24.511,-9.602 21.678,-27.869 -1.844,-11.884 0.068,-24.351 0.295,-36.547 -20.77,-11.536 -40.905,-24.475 -62.478,-34.238 -21.936,-9.925 -42.706,-21.402 -61.596,-36.037 -7.471,-5.787 -17.061,-11.514 -17.018,-22.995 0.169,-45.401 0.656,-90.802 1.026,-136.203 4.599,-8.128 -3.414,-17.68 2.671,-25.514 32.688,-42.088 71.457,-75.508 125.592,-86.229 8.951,-1.772 11.405,-5.952 11.32,-14.726 -0.399,-41.163 -0.729,-82.344 0.206,-123.49 0.326,-14.34 -4.559,-17.446 -18.104,-17.416 -187.491,0.419 -374.984,0.342 -562.476,0.26 -126.28,-0.056 -252.56,-0.312 -378.841,-0.478 -0.457,0.793 -1.144,1.196 -2.06,1.207 -0.158,123.574 -0.408,247.148 -0.455,370.722 -0.094,248.279 -0.085,496.557 -0.103,744.836 -0.024,332.532 -0.032,665.064 -0.048,997.555 3.032,5.739 1.387,11.953 1.391,17.926 0.078,112.283 0.203,224.567 -0.267,336.847 -0.066,15.654 4.995,21.808 21.162,21.668 31.572,-0.271 63.204,-1.842 94.752,1.1 8.369,0.008 16.737,0.016 25.066,0.025 5.408,-0.469 10.856,-1.345 16.305,-1.349 93.752,-0.066 187.505,-0.049 281.257,0.049 6.004,0.006 12.006,0.822 18.008,1.26 10.67,0.002 21.339,0.005 31.968,0.008 5.122,-3.121 10.8,-1.457 16.196,-1.46 94.928,-0.06 189.855,0.003 284.782,0.182 C -12.013,-1.374 -5.811,-2.819 0,0" style="fill:#f0a719;fill-opacity:1;fill-rule:nonzero;stroke:none" transform="matrix(1.3333333,0,0,-1.3333333,1145.7821,67.5532)" />
      <path id="path3" d="m 0,0 c 11.82,-73.486 -27.494,-122.007 -80.838,-162.732 -54.502,-41.609 -116.755,-69.09 -180.773,-91.845 -78.164,-27.782 -158.55,-47.653 -240.34,-62.215 -59.858,-10.658 -119.674,-20.94 -180.325,-25.499 -18.213,3.457 -36.872,-3.852 -55.146,2.52 -6.018,2.098 -10.604,-1.601 -11.857,-8.263 -6.659,-2.305 -13.435,-1.997 -20.249,-0.907 -10.272,-0.789 -20.566,-1.838 -34.89,2.515 11.876,4.394 11.818,11.29 11.68,18.624 -0.641,33.95 -1.111,67.904 -1.422,101.858 -0.225,24.589 -0.354,49.184 0.026,73.768 0.103,6.652 -1.562,9.345 -8.368,8.363 -15.863,-2.287 -31.743,-3.909 -47.444,-7.78 -59.946,-14.78 -118.086,-34.532 -173.667,-61.451 -48.483,-23.482 -95.877,-48.682 -133.825,-88.298 -16.875,-17.618 -26.282,-37.44 -25.874,-62.527 1.353,-83.143 1.831,-166.3 2.645,-249.451 -0.519,-0.438 -1.091,-0.79 -1.715,-1.057 -0.23,12.206 -2.141,24.672 -0.298,36.557 2.833,18.266 -6.145,24.169 -21.678,27.869 -39.959,9.519 -77.328,25.608 -113.419,45.295 -45.909,25.043 -72.094,59.369 -59.334,114.397 12.368,35.866 32.131,66.626 60.763,91.942 50.926,45.027 111.229,72.881 174.098,95.822 90.495,33.023 184.028,54.11 279.263,67.615 65.434,9.279 131.088,16.539 197.408,12.812 2.835,-16.857 14.472,-21.78 29.317,-19.799 14.771,1.971 16.633,13.87 17.526,26.214 0.847,11.697 -1.591,22.263 -9.495,30.851 -11.176,12.143 -21.399,25.477 -36.829,32.904 -9.18,3.86 -18.224,8.087 -27.559,11.522 -85.13,31.324 -174.002,37.242 -263.537,38.564 -14.069,8.2 -29.698,2.595 -43.584,1.865 -46.376,-2.437 -92.985,-2.405 -139.158,-8.603 -42.821,-5.748 -85.622,-11.556 -126.644,-25.917 -27.898,-9.767 -55.015,-21.088 -75.518,-43.69 -16.463,-18.148 -18.07,-43.15 -4.138,-60.186 7.599,-9.292 18.956,-10.943 29.214,-14.875 -11.439,-10.393 -23.23,-20.428 -34.24,-31.257 -20.521,-20.183 -33.21,-43.486 -30.681,-73.802 1.512,-18.126 0.02,-36.489 0.325,-54.738 0.107,-6.436 -1.042,-11.85 -6.283,-15.923 -20.3,-3.151 -39.093,5.583 -58.74,7.84 -22.32,2.565 -44.219,8.8 -66.287,13.435 -0.134,3.387 -2.614,3.988 -5.238,5.258 -18.079,8.745 -39.002,4.068 -57.282,12.938 -12.058,5.851 -25.291,11.434 -38.384,12.535 -25.659,2.157 -48.176,13.972 -72.506,19.955 -24.031,5.91 -45.913,19.137 -71.014,21.844 -74.233,27.882 -142.194,65.27 -193.449,127.878 -1.274,1.557 -1.311,4.125 -1.923,6.216 1.876,9.75 -12.306,17.873 -2.749,28.735 1.527,1.735 -2.443,3.03 -4.427,3.32 -5.847,0.855 -5.167,5.895 -7.071,9.647 -9.785,19.275 -4.445,39.88 -5.984,59.856 -0.598,7.074 3.08,12.854 5.821,18.881 20.795,45.721 56.308,78.182 97.028,105.288 90.13,59.998 191.231,94 294.951,120.602 172.005,44.116 347.556,61.969 524.626,66.46 133.547,3.386 266.738,-3.166 399.288,-19.785 119.819,-15.022 238.019,-38.033 352.751,-76.804 71.885,-24.291 141.707,-52.9 203.598,-97.77 C -53.315,88.001 -17.647,54.238 -1.663,4.594 L -1.899,4.716 C -1.266,3.144 -0.633,1.572 0,0" style="fill:#6f5c68;fill-opacity:1;fill-rule:nonzero;stroke:none" transform="matrix(1.3333333,0,0,-1.3333333,2927.2829,1908.2565)" />
      <path id="path4" d="m 0,0 c -0.412,-44.853 -0.824,-89.706 -1.236,-134.56 -11.42,-2.237 -22.831,-4.515 -34.26,-6.703 -54.925,-10.514 -110.021,-20.176 -164.218,-34.229 -14.665,-3.803 -23.838,-8.848 -22.88,-27.635 1.775,-34.829 0.094,-69.833 -0.148,-104.765 -47.81,-2.287 -95.417,3.673 -143.194,3.56 -19.846,-0.047 -22.929,4.001 -22.629,24.024 1.277,85.285 3.965,170.575 3.374,255.844 -0.152,22.01 -1.912,44.524 -3.796,66.703 -4.111,48.407 25.73,74.421 61.9,95.69 62.453,36.725 129.819,61.801 199.173,82.225 26.499,7.804 52.586,17.053 79.382,23.965 1.664,0.429 2.745,3.117 4.096,4.756 14.416,2.523 28.831,5.045 43.247,7.567 0.231,-73.27 0.445,-146.54 0.711,-219.809 C -0.434,24.421 -0.165,12.211 0,0" style="fill:#463c49;fill-opacity:1;fill-rule:nonzero;stroke:none" transform="matrix(1.3333333,0,0,-1.3333333,1867.9088,3143.2056)" />
      <path id="path5" d="m 0,0 c 8.985,6.786 15.927,12.195 23.054,17.347 4.014,2.902 9.043,4.942 9.078,10.912 0.141,24.374 0.226,48.748 0.146,73.122 -0.013,3.941 -1.807,9.796 -6.4,5.475 C 15.691,97.269 0.386,90.332 -0.834,74.661 -2.7,50.682 -3.572,26.478 0,0 m 1849.257,65.128 c 0,-6.097 1.015,-12.403 -0.181,-18.256 -4.397,-21.519 8.876,-32.523 24.166,-42.588 6.256,-4.117 10.132,-3.986 9.974,5.082 -0.259,14.964 -1.881,30.181 0.205,44.845 3.181,22.364 -7.232,36.79 -23.282,49.279 -2.472,1.924 -4.416,5.779 -8.243,3.853 -3.576,-1.801 -2.502,-5.825 -2.551,-8.954 -0.178,-11.085 -0.069,-22.173 -0.088,-33.261 m 33.801,162.605 c 0,25.241 -1.017,48.894 0.449,72.393 0.685,10.989 1.357,19.424 -8.693,26.952 -8.278,6.202 -12.702,17.294 -25.566,21.356 0,-23.184 1.824,-44.948 -0.458,-66.272 -2.9,-27.108 11.099,-41.611 34.268,-54.429 M 32.422,354.493 C 18.47,339.361 1.293,331.794 -0.577,313.85 c -2.681,-25.731 -2.551,-51.761 -3.366,-77.671 -0.104,-3.323 -1.537,-8.651 4.993,-8.157 7.049,0.533 31.117,24.839 31.217,32.614 0.383,29.766 0.155,59.541 0.155,93.857 m 1816.89,-113.701 c 0,-36.313 0.49,-68.285 -0.259,-100.228 -0.271,-11.579 2.931,-20.186 11.601,-27.647 7.369,-6.341 16.031,-10.973 22.461,-21.046 0,37.176 0.035,71.266 -0.035,105.355 -0.012,5.934 0.979,11.847 -4.828,16.669 -8.895,7.386 -17.013,15.708 -28.94,26.897 M 0.115,98.807 c 11.641,10.46 30.882,14.432 31.771,32.07 1.623,32.207 0.526,64.552 0.439,96.839 -0.01,3.825 0.064,8.246 -6.27,6.812 -9.815,-2.221 -30.117,-27.739 -30.148,-38.436 -0.09,-32.211 5.216,-64.221 4.208,-97.285 m 1675.916,198.772 c 0,13.321 -0.562,26.675 0.188,39.954 0.545,9.63 -2.667,15.294 -11.652,19.134 -26.487,11.321 -52.671,23.349 -79.054,34.917 -8.923,3.912 -13.687,1.186 -13.623,-9.155 0.179,-28.864 0.176,-57.73 0.082,-86.594 -0.022,-6.826 2.483,-12.138 8.657,-14.832 27.319,-11.922 54.782,-23.512 82.125,-35.378 9.135,-3.964 13.55,-1.91 13.335,8.658 -0.292,14.427 -0.073,28.863 -0.058,43.296 M 309.694,464.159 h 0.099 c 0,14.431 -0.278,28.869 0.087,43.29 0.299,11.779 -4.117,15.573 -15.028,10.189 -26.336,-12.996 -52.619,-26.102 -78.995,-39.016 -6.547,-3.206 -10.294,-7.396 -10.209,-15.348 0.305,-28.684 0.149,-57.373 0.013,-86.06 -0.043,-9.243 3.35,-12.133 12.249,-8.197 25.739,11.383 51.636,22.41 77.383,33.774 9.853,4.348 15.676,10.969 14.642,23.091 -1.081,12.673 -0.241,25.511 -0.241,38.277 m 1262.264,0.665 h 0.054 c 0,-15.54 0.241,-31.085 -0.108,-46.617 -0.16,-7.092 2.496,-11.348 9.021,-14.066 27.055,-11.269 54.132,-22.501 80.938,-34.342 9.998,-4.416 14.356,-3.022 14.249,8.649 -0.267,28.858 -0.17,57.72 -0.041,86.579 0.027,6.07 -1.41,10.149 -7.649,13.01 -28.193,12.927 -56.14,26.392 -84.154,39.709 -8.521,4.05 -12.458,1.554 -12.354,-7.967 0.165,-14.983 0.044,-29.969 0.044,-44.955 M 309.771,340.557 h -0.083 c 0,13.907 -0.38,27.827 0.121,41.716 0.396,10.997 -1.195,15.61 -13.695,9.668 -27.071,-12.868 -54.676,-24.634 -82.263,-36.379 -8.54,-3.635 -11.433,-9.233 -11.043,-18.134 1.232,-28.177 2.169,-56.368 2.901,-84.563 0.273,-10.557 5.05,-10.427 12.91,-7.004 21.344,9.294 42.437,19.442 64.427,26.897 21.682,7.35 30.948,19.952 26.951,42.806 -1.416,8.096 -0.226,16.649 -0.226,24.993 M 1572.001,207.72 c 0,-17.211 0.342,-34.432 -0.138,-51.629 -0.257,-9.178 2.914,-13.958 12.054,-16.754 26.992,-8.257 53.852,-17.021 80.43,-26.521 9.463,-3.382 11.778,-1.086 11.721,8.111 -0.202,32.57 -0.115,65.141 0.046,97.711 0.031,6.27 -2.111,10.434 -8.046,13.031 -28.36,12.408 -56.734,24.793 -84.882,37.671 -9.978,4.565 -11.371,0.166 -11.259,-8.323 0.234,-17.763 0.071,-35.531 0.074,-53.297 m -1262.21,-1.267 c 0,18.31 -0.203,36.624 0.085,54.93 0.145,9.21 -2.336,12.148 -11.601,7.804 -27.055,-12.687 -54.188,-25.243 -81.658,-36.99 -8.643,-3.696 -11.223,-8.589 -11.078,-17.568 0.485,-29.955 1.717,-60.034 -0.416,-89.845 -1.298,-18.142 3.836,-15.893 16.74,-11.366 25.568,8.972 50.341,20.577 77.079,25.873 9.634,1.908 10.926,7.73 10.891,15.558 -0.078,17.201 -0.024,34.402 -0.042,51.604 M 1789.308,402.31 c 0,-112.683 0.027,-222.842 -0.063,-333.002 0,-6.854 2.4,-11.374 8.62,-14.715 7.806,-4.194 14.85,-9.808 22.661,-13.991 5.135,-2.749 10.507,-8.992 16.409,-5.558 5.182,3.015 2.417,10.269 2.424,15.58 0.131,96.31 -0.671,192.631 0.678,288.922 0.275,19.613 -7.509,31.447 -21.155,41.955 -8.711,6.708 -17.978,12.695 -29.574,20.809 M 92.481,402.227 C 82.092,395.315 74.473,390.751 67.412,385.446 51.647,373.601 40.992,361.261 41.432,337.876 43.254,241.065 42.111,144.2 42.268,47.355 42.276,42.312 39.987,36.438 44.727,32.014 56.075,38.65 66.453,46.721 78.21,51.03 89.937,55.326 92.658,61.646 92.593,73.273 92.155,150.634 92.44,228 92.479,305.364 c 0.016,31.528 0.002,63.055 0.002,96.863 m 524.391,8.097 c 0,-17.256 -0.018,-34.512 0.01,-51.769 0.01,-6.426 -0.342,-11.899 9.723,-10.688 45.074,5.427 90.212,10.382 135.399,14.772 9.602,0.934 12.101,4.773 12.014,13.586 -0.314,31.726 -0.594,63.467 0.124,95.18 0.287,12.646 -4.162,17.048 -16.475,15.731 -44.085,-4.715 -88.2,-9.163 -132.327,-13.479 -7.733,-0.756 -8.551,-5.502 -8.527,-11.564 0.069,-17.256 0.024,-34.512 0.059,-51.769 m 647.87,-1.986 c 0,17.224 -0.017,34.447 0.01,51.671 0.01,6.569 -1.002,12.618 -9.095,13.404 -44.58,4.327 -88.86,11.499 -133.661,13.824 -11.012,0.571 -14.651,-3.618 -14.477,-14.362 0.504,-31.106 0.903,-62.242 0,-93.327 -0.357,-12.237 3.832,-16.639 15.434,-17.783 44.532,-4.39 89.012,-9.311 133.498,-14.162 9.042,-0.987 8.229,5.265 8.269,10.732 0.123,16.667 0.045,33.335 0.027,50.003 M 1107.755,287.856 h 0.083 c 0,-16.685 0.685,-33.408 -0.229,-50.042 -0.666,-12.114 4.436,-14.449 15.467,-15.292 41.935,-3.201 83.842,-7.068 125.609,-11.971 12.509,-1.469 16.183,2.353 16.088,13.796 -0.217,26.138 -0.025,52.279 -0.03,78.419 -0.01,30.157 -0.022,30.149 -28.627,34.49 -1.638,0.249 -3.206,1.014 -4.844,1.191 -36.318,3.913 -72.648,7.71 -108.958,11.694 -10.651,1.168 -15.209,-2.701 -14.733,-13.906 0.683,-16.1 0.174,-32.25 0.174,-48.379 m -333.951,-0.729 h 0.1 c 0,15.014 -1.057,30.123 0.291,45.015 1.407,15.534 -4.931,19.566 -19.107,17.944 -41.252,-4.719 -82.513,-9.516 -123.881,-12.944 -12.16,-1.008 -14.647,-5.668 -14.486,-16.443 0.471,-31.689 0.86,-63.414 -0.205,-95.074 -0.529,-15.734 6.629,-17.387 19.253,-15.678 41.682,5.645 83.328,11.936 125.485,12.776 9.105,0.181 12.994,3.17 12.7,12.695 -0.529,17.221 -0.15,34.471 -0.15,51.709 m 334.008,281.301 h -0.07 c 0,-18.339 0.208,-36.682 -0.092,-55.016 -0.14,-8.532 2.319,-12.134 11.779,-14.004 14.286,-2.824 28.681,-2.519 42.952,-4.363 29.062,-3.755 58.376,-5.504 87.544,-8.5 12.061,-1.239 15.327,3.957 15.071,15.297 -0.615,27.218 -0.202,54.458 -0.235,81.689 -0.036,29.194 -8.258,38.849 -37.168,39.653 -35.973,1 -71.109,8.648 -106.762,12.135 -12.074,1.18 -13.199,-2.583 -13.085,-11.874 0.223,-18.336 0.066,-36.677 0.066,-55.017 m -333.944,0.97 h -0.056 c 0,18.334 -0.212,36.671 0.099,54.999 0.135,7.972 -0.62,11.305 -10.895,10.499 -45.3,-3.554 -89.986,-11.214 -134.839,-17.859 -7.324,-1.085 -11.136,-4.176 -11.141,-11.632 -0.026,-36.666 -0.115,-73.332 -0.046,-109.998 0.013,-6.976 1.969,-11.233 10.953,-10.176 44.459,5.232 88.954,10.238 133.527,14.349 10.783,0.995 12.683,5.742 12.505,14.819 -0.36,18.326 -0.107,36.665 -0.107,54.999 m 915.071,-286.035 c 0,-55.071 0.323,-110.144 -0.252,-165.209 -0.126,-12.085 4.021,-17.947 15.417,-21.61 14.751,-4.74 28.988,-11.182 43.227,-17.394 31.398,-13.697 31.93,-13.824 31.858,22.27 -0.055,27.16 -2.591,54.312 -2.751,81.475 -0.423,71.638 -0.359,143.281 0.055,214.919 0.065,11.375 -3.49,18.674 -13.413,24.35 -19.722,11.283 -38.992,23.37 -58.299,35.365 -11.153,6.929 -16.236,6.511 -16.06,-8.958 0.627,-55.063 0.245,-110.138 0.218,-165.208 M 192.644,281.246 h 0.088 c 0,18.346 0.006,36.692 -0.002,55.038 -0.015,38.359 -0.213,76.72 0.052,115.077 0.078,11.362 -3.76,14.417 -13.739,8.52 -9.981,-5.899 -19.857,-11.978 -29.919,-17.735 -25.167,-14.397 -48.25,-27.689 -47.068,-64.148 3.256,-100.472 -1.945,-201.067 2.422,-301.614 0.65,-14.97 4.266,-9.442 11.696,-6.001 19.119,8.853 38.047,18.676 58.053,24.878 15.433,4.784 18.987,12.6 18.747,27.551 -0.848,52.799 -0.33,105.621 -0.33,158.434 m 130.077,60.3 c 0,-57.888 -0.046,-115.775 0.025,-173.663 0.025,-20.516 0.343,-20.788 21.016,-15.552 30.121,7.629 59.987,16.412 90.356,22.839 11.165,2.363 12.781,7.143 12.861,16.687 0.713,85.153 3.168,170.32 2.074,255.445 -0.469,36.439 -0.715,72.975 -1.951,109.451 -0.391,11.537 -3.423,14.753 -14.796,11.052 -32.662,-10.629 -65.079,-21.851 -97.093,-34.337 -10.105,-3.942 -12.758,-9.66 -12.677,-19.929 0.452,-57.328 0.217,-114.661 0.185,-171.993 m 1236.256,-5.828 h 0.106 c 0,58.442 -0.124,116.885 0.111,175.325 0.044,10.898 -1.465,19.234 -13.773,23.239 -29.522,9.609 -58.606,20.561 -88.089,30.299 -23.726,7.837 -25.47,6.408 -25.218,-18.807 0.818,-81.829 2.202,-163.654 2.651,-245.485 0.201,-36.539 -4.379,-73.064 -0.042,-109.65 0.88,-7.432 0.305,-12.798 10.638,-15.088 32.858,-7.281 66.102,-13.506 97.827,-25.086 12.653,-4.619 16.222,-2.226 16.066,11.601 -0.655,57.878 -0.277,115.767 -0.277,173.652 M 459.999,381.271 h -0.083 c 0,-60.627 0.04,-121.253 -0.04,-181.879 -0.013,-9.941 0.913,-18.204 14.492,-15.856 38.18,6.601 75.639,17.211 114.413,20.518 11.102,0.947 16.502,5.916 15.33,18.31 -3.343,35.357 5.826,70.749 0.006,106.26 -1.498,9.145 1.148,18.79 1.603,28.099 1.21,24.746 1.963,49.747 -0.223,74.37 -3.101,34.922 -1.935,69.848 -0.366,104.532 0.925,20.445 -0.297,40.815 0.685,61.202 0.398,8.272 -2.773,13.148 -14.446,11.288 -41.166,-6.559 -80.719,-19.297 -121.039,-29.041 -10.137,-2.449 -10.483,-9.181 -10.452,-17.591 0.225,-60.07 0.12,-120.141 0.12,-180.212 m 814.973,34.271 c 0,-70.672 0.39,-129.122 -0.269,-187.56 -0.169,-14.985 4.635,-22.843 19.868,-24.565 37.47,-4.235 74.224,-12.609 111.131,-20.056 10.821,-2.183 16.575,0.334 16.367,13.232 -0.6,37.167 -0.203,74.351 -0.199,111.528 0.01,84.049 -0.204,168.099 0.283,252.146 0.066,11.305 -2.908,16.754 -14.194,20.098 -37.304,11.052 -75.471,18.331 -113.214,27.441 -21.311,5.144 -22.695,4.822 -21.393,-16.031 3.92,-62.813 -0.173,-125.654 1.62,-176.233 m -488.006,16.202 c 0,-62.305 0.396,-124.613 -0.298,-186.91 -0.16,-14.311 3.251,-20.362 18.533,-18.758 37.603,3.945 75.403,4.14 113.164,3.289 12.523,-0.282 12.884,6.784 12.878,15.97 -0.023,40.798 0.947,81.568 0.316,122.402 -1.344,86.939 -0.577,173.914 2.543,260.832 0.4,11.153 -2.62,15.416 -14.775,15.762 -37.855,1.076 -75.421,-3.868 -113.182,-4.041 -14.197,-0.065 -19.811,-6.251 -19.586,-21.637 0.913,-62.292 0.379,-124.604 0.407,-186.909 m 307.793,127.122 c 0,21.709 -0.242,43.422 0.119,65.125 0.144,8.644 -2.144,12.936 -11.78,13.958 -40.341,4.282 -80.732,6.556 -121.303,6.141 -8.981,-0.091 -11.153,-4.348 -11.328,-12.405 -0.631,-29.081 -3.616,-58.239 -2.252,-87.205 1.877,-39.818 0.606,-79.714 0.808,-119.418 0.176,-34.608 3.89,-69.591 -0.997,-104.416 -3.778,-26.925 3.507,-54.123 0.458,-81.294 -0.963,-8.573 5.526,-9.733 12.181,-9.73 38.349,0.017 76.74,0.628 114.919,-3.655 15.792,-1.772 19.545,4.519 19.459,19.603 -0.597,104.429 -0.315,208.863 -0.284,313.296 M -47.468,250.61 c 2.288,30.335 18.583,54.346 36.446,77.046 44.755,56.878 102.686,97.997 164.428,134.186 112.206,65.767 233.153,109.47 358.71,141.42 123.285,31.371 248.702,48.27 375.69,52.016 97.831,2.885 195.593,-1.37 292.552,-15.631 165.858,-24.394 326.963,-65.599 478.083,-140.318 72.519,-35.856 141.542,-77.147 200.097,-133.935 29.849,-28.947 54.959,-61.17 68.621,-101.154 -0.241,-3.127 -0.488,-6.232 -0.734,-9.338 -4.458,-4.969 -4.53,-4.993 -6.507,0.949 -5.451,16.376 -12.21,31.918 -27.152,46.625 0,-104.072 0.042,-204.2 -0.096,-304.329 -0.01,-6.718 2.926,-10.795 7.352,-15.649 14.558,-15.966 29.935,-32.034 25.717,-56.696 -19.534,34.107 -48.037,59.302 -80.316,80.713 -105.24,69.807 -222.826,110 -343.556,142.223 -130.824,34.918 -264.084,55.013 -399.085,65.063 -102.243,7.611 -204.474,8.074 -306.598,1.345 C 676.361,207.251 557.563,191.122 440.395,163.824 333.46,138.911 228.665,107.665 129.64,59.623 63.454,27.513 -1.458,-6.985 -43.482,-71.361 c -3.336,22.735 10.873,37.598 24.567,52.015 5.516,5.807 7.98,11.009 7.968,18.794 -0.146,95.055 0.009,190.11 -0.105,285.164 -0.006,5.157 1.885,10.873 -3.035,17.089 -14.258,-15.589 -18.02,-37.335 -33.381,-51.091" style="fill:#6f5c68;fill-opacity:1;fill-rule:nonzero;stroke:none" transform="matrix(1.3333333,0,0,-1.3333333,357.74493,1718.0261)" />
      <path id="path6" d="m 0,0 c -0.814,83.151 -1.292,166.308 -2.645,249.451 -0.408,25.087 8.999,44.909 25.874,62.527 37.948,39.616 85.342,64.816 133.825,88.298 55.58,26.919 113.72,46.672 173.667,61.451 15.701,3.871 31.58,5.493 47.443,7.78 6.807,0.982 8.472,-1.711 8.369,-8.363 -0.38,-24.584 -0.251,-49.179 -0.026,-73.768 0.311,-33.954 0.781,-67.908 1.422,-101.858 0.138,-7.334 0.196,-14.23 -11.68,-18.624 14.324,-4.353 24.618,-3.304 34.89,-2.515 -5.459,-0.76 -10.911,-1.598 -16.384,-2.261 -5.08,-0.614 -8.568,-3.19 -8.496,-8.404 0.538,-38.641 -2.674,-77.333 1.474,-115.916 -5.792,-11.993 -0.911,-24.853 -2.998,-37.153 C 335.131,94.709 286.001,86.052 237.241,75.194 155.949,57.09 76.996,31.641 0,0" style="fill:#463c49;fill-opacity:1;fill-rule:nonzero;stroke:none" transform="matrix(1.3333333,0,0,-1.3333333,1353.0603,2726.0165)" />
      <path id="path7" d="m 0,0 c -0.364,2.47 -0.727,4.939 -1.093,7.415 4.216,24.668 -11.161,40.736 -25.72,56.701 -4.426,4.854 -7.361,8.932 -7.352,15.65 0.139,100.128 0.096,200.257 0.096,304.328 14.943,-14.707 21.702,-30.248 27.152,-46.625 1.978,-5.942 2.05,-5.918 6.508,-0.949 4.763,-6.329 3.673,-13.87 3.682,-20.898 C 3.409,215.68 3.336,115.738 3.196,15.796 3.188,10.422 4.578,4.543 0,0" style="fill:#463c49;fill-opacity:1;fill-rule:nonzero;stroke:none" transform="matrix(1.3333333,0,0,-1.3333333,2926.8575,1826.8505)" />
      <path id="path8" d="m 0,0 c -15.062,-8.514 -32.1,-7.003 -48.344,-9.404 -28.461,-4.206 -56.975,-8.051 -85.467,-12.047 2.087,12.3 -2.794,25.16 2.997,37.154 2.112,-0.235 4.213,-0.461 6.301,-0.679 8.057,-5.936 16.225,2.406 24.318,-0.16 24.305,0.874 48.672,3.104 72.649,-3.291 -0.741,-0.769 -3.914,-0.519 -1.166,-2.723 0.339,-0.273 1.059,-0.011 1.547,-0.168 C -18.12,5.758 -4.953,15.703 0,0" style="fill:#6f5c68;fill-opacity:1;fill-rule:nonzero;stroke:none" transform="matrix(1.3333333,0,0,-1.3333333,2044.4555,2563.2225)" />
      <path id="path9" d="m 0,0 c 25.101,-2.707 46.983,-15.934 71.014,-21.844 24.33,-5.984 46.847,-17.798 72.506,-19.956 13.093,-1.101 26.326,-6.684 38.384,-12.534 18.28,-8.87 39.203,-4.193 57.282,-12.939 2.624,-1.269 5.104,-1.871 5.238,-5.257 -28.17,3.355 -55.535,10.545 -82.781,17.936 C 111.382,-40.96 61.376,-26.409 12.901,-7.127 8.298,-5.296 3.188,-4.39 0,0" style="fill:#463c49;fill-opacity:1;fill-rule:nonzero;stroke:none" transform="matrix(1.3333333,0,0,-1.3333333,585.53107,2221.7669)" />
      <path id="path10" d="m 0,0 c 0.525,-3.813 -1.167,-6.168 -4.774,-7.268 0.079,110.302 0.157,220.608 0.237,330.918 0.001,0.005 1.269,-0.754 1.27,-0.744 0.266,-2.743 0.764,-5.497 0.763,-8.25 C -2.562,221.835 -2.743,129.014 -2.672,36.193 -2.662,24.11 -4.211,11.813 0,0" style="fill:#6f5c68;fill-opacity:1;fill-rule:nonzero;stroke:none" transform="matrix(1.3333333,0,0,-1.3333333,297.48653,1820.9505)" />
      <path id="path11" d="m 0,0 c 1.517,2.944 3.034,5.888 4.548,8.82 1.534,-19.988 -3.805,-40.593 5.98,-59.868 1.904,-3.751 1.224,-8.792 7.07,-9.646 1.985,-0.29 5.955,-1.585 4.428,-3.321 -9.557,-10.861 4.625,-18.984 2.748,-28.734 C 1.866,-65.742 -4.115,-34.219 0,0" style="fill:#463c49;fill-opacity:1;fill-rule:nonzero;stroke:none" transform="matrix(1.3333333,0,0,-1.3333333,292.00187,1919.3091)" />
      <path id="path12" d="M 0,0 C 1.252,6.661 5.839,10.361 11.857,8.263 30.131,1.891 48.79,9.2 67.003,5.743 44.874,1.222 22.465,0.286 0,0" style="fill:#463c49;fill-opacity:1;fill-rule:nonzero;stroke:none" transform="matrix(1.3333333,0,0,-1.3333333,1928.2447,2372.3016)" />
      <path id="path13" d="M 0,0 C -23.792,0.003 -47.586,-0.11 -71.377,0.1 -76.47,0.145 -82.978,-2.238 -85.271,5.504 -56.847,3.669 -28.424,1.834 0,0" style="fill:#463c49;fill-opacity:1;fill-rule:nonzero;stroke:none" transform="matrix(1.3333333,0,0,-1.3333333,2042.4105,3157.5423)" />
      <path id="path14" d="m 0,0 c -4.953,15.703 -18.12,5.758 -27.165,8.682 -0.488,0.157 -1.208,-0.105 -1.547,0.168 -2.748,2.204 0.425,1.954 1.166,2.723 8.684,-0.437 17.382,-0.712 26.051,-1.373 C 3.765,9.799 8.76,8.63 5.56,1.276 3.706,0.849 1.853,0.425 0,0" style="fill:#463c49;fill-opacity:1;fill-rule:nonzero;stroke:none" transform="matrix(1.3333333,0,0,-1.3333333,2044.4555,2563.2225)" />
      <path id="path15" d="M 0,0 C -8.093,2.567 -16.261,-5.775 -24.318,0.16 -16.189,2.327 -8.087,2.28 0,0" style="fill:#463c49;fill-opacity:1;fill-rule:nonzero;stroke:none" transform="matrix(1.3333333,0,0,-1.3333333,1910.8625,2543.4044)" />
      <path id="path16" d="m 0,0 c -105.771,-20.301 -204.149,-60.258 -297.704,-112.71 -21.258,-11.918 -41.446,-25.744 -62.126,-38.694 -10.255,3.93 -21.613,5.582 -29.212,14.874 -13.932,17.035 -12.325,42.037 4.138,60.185 20.503,22.602 47.62,33.923 75.519,43.69 41.022,14.362 83.822,20.169 126.643,25.917 46.173,6.198 92.783,6.167 139.158,8.603 C -29.698,2.595 -14.069,8.201 0,0" style="fill:#463c49;fill-opacity:1;fill-rule:nonzero;stroke:none" transform="matrix(1.3333333,0,0,-1.3333333,1652.4077,1910.6728)" />
      <path id="path17" d="M 0,0 C 0.172,23.39 0.344,46.781 0.517,70.171 15.949,62.743 26.172,49.409 37.348,37.266 45.252,28.678 47.69,18.112 46.843,6.415 45.95,-5.929 44.088,-17.828 29.317,-19.799 14.472,-21.779 2.835,-16.857 0,0" style="fill:#463c49;fill-opacity:1;fill-rule:nonzero;stroke:none" transform="matrix(1.3333333,0,0,-1.3333333,2039.8443,2071.014)" />
      <path id="path19" d="m 0,0 c -4.211,11.813 -2.662,24.11 -2.672,36.193 -0.071,92.821 0.11,185.642 0.168,278.463 10e-4,2.753 -0.497,5.507 -0.763,8.25 0.33,1.618 0.661,3.245 0.993,4.885 15.361,13.768 19.123,35.515 33.381,51.103 4.92,-6.215 3.029,-11.931 3.035,-17.088 C 34.256,266.751 34.101,171.696 34.247,76.641 34.259,68.857 31.795,63.654 26.279,57.847 12.584,43.43 -1.624,28.567 1.712,5.832 1.144,3.891 0.572,1.945 0,0" style="fill:#463c49;fill-opacity:1;fill-rule:nonzero;stroke:none" transform="matrix(1.3333333,0,0,-1.3333333,297.4864,1820.9505)" />
      <path id="path20" d="m 0,0 c -0.015,-104.432 -0.298,-208.867 0.3,-313.296 0.086,-15.083 -3.667,-21.375 -19.459,-19.603 -38.179,4.283 -76.571,3.673 -114.919,3.655 -6.655,-0.003 -13.144,1.157 -12.182,9.73 3.05,27.171 -4.236,54.37 -0.457,81.294 4.886,34.825 1.172,69.808 0.997,104.416 -0.202,39.704 1.068,79.6 -0.808,119.419 -1.364,28.965 1.621,58.123 2.251,87.204 0.175,8.057 2.348,12.314 11.329,12.406 40.57,0.414 80.962,-1.86 121.303,-6.142 C -2.01,78.061 0.279,73.77 0.135,65.125 -0.227,43.422 0.015,21.709 0,0" style="fill:#463c49;fill-opacity:1;fill-rule:nonzero;stroke:none" transform="matrix(1.3333333,0,0,-1.3333333,1817.396,972.87187)" />
      <path id="path21" d="m 0,0 c -0.014,62.305 0.52,124.617 -0.393,186.909 -0.225,15.386 5.389,21.572 19.586,21.637 37.761,0.173 75.327,5.117 113.182,4.041 12.155,-0.346 15.175,-4.609 14.775,-15.762 -3.12,-86.918 -3.887,-173.893 -2.543,-260.833 0.631,-40.833 -0.339,-81.603 -0.316,-122.401 0.006,-9.186 -0.355,-16.253 -12.879,-15.971 -37.76,0.851 -75.56,0.657 -113.164,-3.288 -15.282,-1.604 -18.692,4.447 -18.533,18.758 C 0.41,-124.614 0.014,-62.305 0,0" style="fill:#463c49;fill-opacity:1;fill-rule:nonzero;stroke:none" transform="matrix(1.3333333,0,0,-1.3333333,1407.0079,1142.3673)" />
      <path id="path22" d="m 0,0 c -1.793,50.579 2.3,113.42 -1.621,176.233 -1.301,20.853 0.082,21.175 21.394,16.031 37.743,-9.11 75.91,-16.389 113.214,-27.442 11.286,-3.343 14.26,-8.792 14.194,-20.098 -0.487,-84.046 -0.275,-168.096 -0.284,-252.145 -0.003,-37.178 -0.4,-74.361 0.199,-111.529 0.208,-12.897 -5.545,-15.415 -16.366,-13.231 -36.908,7.446 -73.661,15.82 -111.131,20.056 -15.234,1.722 -20.037,9.58 -19.868,24.565 C 0.39,-129.122 0,-70.673 0,0" style="fill:#463c49;fill-opacity:1;fill-rule:nonzero;stroke:none" transform="matrix(1.3333333,0,0,-1.3333333,2057.7013,1163.9699)" />
      <path id="path23" d="m 0,0 c 0,60.071 0.105,120.142 -0.12,180.212 -0.031,8.41 0.315,15.142 10.452,17.592 40.32,9.744 79.873,22.482 121.039,29.04 11.673,1.86 14.844,-3.015 14.446,-11.287 -0.982,-20.388 0.239,-40.757 -0.685,-61.202 -1.569,-34.685 -2.735,-69.61 0.366,-104.532 2.186,-24.623 1.433,-49.625 0.223,-74.371 -0.455,-9.309 -3.101,-18.953 -1.603,-28.098 5.82,-35.512 -3.349,-70.903 -0.006,-106.261 1.172,-12.394 -4.228,-17.362 -15.33,-18.309 -38.774,-3.307 -76.233,-13.917 -114.413,-20.519 -13.579,-2.347 -14.505,5.916 -14.492,15.856 0.08,60.626 0.04,121.253 0.04,181.879 z" style="fill:#463c49;fill-opacity:1;fill-rule:nonzero;stroke:none" transform="matrix(1.3333333,0,0,-1.3333333,971.07053,1209.6655)" />
      <path id="path24" d="m 0,0 c 0,-57.885 -0.379,-115.775 0.276,-173.652 0.157,-13.828 -3.412,-16.22 -16.066,-11.601 -31.724,11.58 -64.969,17.805 -97.827,25.086 -10.333,2.29 -9.757,7.656 -10.638,15.087 -4.336,36.586 0.243,73.112 0.043,109.651 -0.449,81.83 -1.834,163.655 -2.651,245.484 -0.252,25.216 1.492,26.645 25.218,18.808 29.483,-9.738 58.566,-20.69 88.089,-30.299 C -1.249,194.559 0.26,186.223 0.217,175.325 -0.018,116.884 0.106,58.442 0.106,0 Z" style="fill:#463c49;fill-opacity:1;fill-rule:nonzero;stroke:none" transform="matrix(1.3333333,0,0,-1.3333333,2436.3748,1270.4019)" />
      <path id="path25" d="m 0,0 c 0.016,57.332 0.251,114.665 -0.201,171.993 -0.081,10.269 2.571,15.987 12.677,19.928 32.014,12.486 64.43,23.708 97.093,34.337 11.373,3.702 14.405,0.485 14.796,-11.051 1.235,-36.476 1.482,-73.012 1.95,-109.451 1.095,-85.125 -1.361,-170.293 -2.073,-255.445 -0.08,-9.544 -1.697,-14.324 -12.861,-16.687 -30.369,-6.427 -60.235,-15.21 -90.356,-22.839 C 0.352,-194.451 0.034,-194.179 0.009,-173.664 -0.062,-115.776 -0.016,-57.888 0,0" style="fill:#463c49;fill-opacity:1;fill-rule:nonzero;stroke:none" transform="matrix(1.3333333,0,0,-1.3333333,788.0548,1262.6311)" />
      <path id="path26" d="m 0,0 c 0,-52.813 -0.518,-105.635 0.33,-158.434 0.24,-14.951 -3.314,-22.767 -18.747,-27.551 -20.006,-6.202 -38.934,-16.025 -58.053,-24.878 -7.43,-3.441 -11.046,-8.969 -11.696,6.001 -4.367,100.547 0.834,201.142 -2.422,301.614 -1.182,36.459 21.901,49.751 47.068,64.148 10.062,5.757 19.938,11.836 29.919,17.735 9.979,5.897 13.817,2.842 13.739,-8.52 C -0.127,131.758 0.071,93.397 0.087,55.038 0.094,36.692 0.088,18.346 0.088,0 Z" style="fill:#463c49;fill-opacity:1;fill-rule:nonzero;stroke:none" transform="matrix(1.3333333,0,0,-1.3333333,614.5968,1343.0317)" />
      <path id="path27" d="m 0,0 c 0.014,55.071 0.396,110.146 -0.231,165.209 -0.176,15.468 4.907,15.886 16.06,8.957 19.307,-11.995 38.576,-24.081 58.299,-35.364 9.922,-5.677 13.478,-12.976 13.412,-24.351 -0.413,-71.637 -0.477,-143.281 -0.055,-214.919 0.16,-27.162 2.697,-54.314 2.751,-81.474 0.073,-36.095 -0.459,-35.968 -31.857,-22.271 -14.24,6.212 -28.476,12.655 -43.228,17.395 -11.395,3.662 -15.542,9.524 -15.417,21.61 C 0.309,-110.144 -0.014,-55.07 0,0" style="fill:#463c49;fill-opacity:1;fill-rule:nonzero;stroke:none" transform="matrix(1.3333333,0,0,-1.3333333,2609.6749,1340.2095)" />
      <path id="path28" d="m 0,0 c 0,-18.334 -0.252,-36.673 0.107,-55 0.178,-9.076 -1.722,-13.823 -12.505,-14.818 -44.573,-4.111 -89.068,-9.118 -133.527,-14.349 -8.984,-1.057 -10.94,3.199 -10.953,10.176 -0.069,36.666 0.021,73.332 0.046,109.998 0.005,7.456 3.818,10.547 11.141,11.632 44.853,6.644 89.54,14.305 134.839,17.859 C -0.577,66.304 0.178,62.971 0.043,54.999 -0.268,36.671 -0.056,18.333 -0.056,0 Z" style="fill:#463c49;fill-opacity:1;fill-rule:nonzero;stroke:none" transform="matrix(1.3333333,0,0,-1.3333333,1389.562,958.82853)" />
      <path id="path29" d="M 0,0 C 0,18.339 0.158,36.681 -0.066,55.017 -0.179,64.308 0.946,68.071 13.02,66.89 48.673,63.404 83.808,55.755 119.781,54.756 c 28.91,-0.804 37.132,-10.459 37.168,-39.653 0.034,-27.231 -0.38,-54.472 0.236,-81.689 0.256,-11.34 -3.011,-16.536 -15.072,-15.297 -29.167,2.996 -58.482,4.745 -87.543,8.5 -14.272,1.844 -28.667,1.539 -42.952,4.363 -9.46,1.87 -11.919,5.472 -11.78,14.003 0.3,18.335 0.092,36.678 0.092,55.017 z" style="fill:#463c49;fill-opacity:1;fill-rule:nonzero;stroke:none" transform="matrix(1.3333333,0,0,-1.3333333,1834.8203,960.12187)" />
      <path id="path30" d="m 0,0 c 0,-17.238 -0.38,-34.488 0.15,-51.709 0.293,-9.525 -3.595,-12.514 -12.701,-12.695 -42.156,-0.84 -83.802,-7.131 -125.484,-12.776 -12.625,-1.709 -19.783,-0.056 -19.253,15.678 1.065,31.66 0.676,63.386 0.204,95.074 -0.16,10.775 2.327,15.435 14.486,16.443 41.369,3.428 82.63,8.225 123.881,12.944 C -4.54,64.581 1.797,60.549 0.391,45.015 -0.957,30.123 0.1,15.014 0.1,0 Z" style="fill:#463c49;fill-opacity:1;fill-rule:nonzero;stroke:none" transform="matrix(1.3333333,0,0,-1.3333333,1389.4776,1335.1903)" />
      <path id="path31" d="m 0,0 c 0,16.129 0.509,32.279 -0.175,48.379 -0.475,11.205 4.083,15.074 14.734,13.906 36.31,-3.984 72.64,-7.781 108.958,-11.694 1.638,-0.177 3.206,-0.942 4.843,-1.191 28.606,-4.341 28.622,-4.333 28.627,-34.49 0.006,-26.14 -0.186,-52.281 0.031,-78.419 0.095,-11.443 -3.58,-15.265 -16.088,-13.796 -41.767,4.903 -83.675,8.77 -125.609,11.972 C 4.29,-64.491 -0.812,-62.156 -0.147,-50.042 0.768,-33.407 0.082,-16.685 0.082,0 Z" style="fill:#463c49;fill-opacity:1;fill-rule:nonzero;stroke:none" transform="matrix(1.3333333,0,0,-1.3333333,1834.7453,1334.2183)" />
      <path id="path32" d="m 0,0 c 0.009,-16.668 0.087,-33.336 -0.036,-50.003 -0.04,-5.467 0.773,-11.719 -8.269,-10.733 -44.486,4.852 -88.966,9.772 -133.498,14.163 -11.602,1.144 -15.791,5.546 -15.434,17.782 0.907,31.085 0.508,62.221 0.004,93.327 -0.174,10.745 3.465,14.934 14.477,14.362 C -97.955,76.574 -53.675,69.402 -9.095,65.074 -1.002,64.289 0.01,58.24 0,51.67 -0.026,34.447 -0.009,17.223 0,0" style="fill:#463c49;fill-opacity:1;fill-rule:nonzero;stroke:none" transform="matrix(1.3333333,0,0,-1.3333333,2044.0795,1173.5751)" />
      <path id="path33" d="m 0,0 c -0.017,17.257 0.027,34.513 -0.042,51.769 -0.024,6.062 0.794,10.808 8.527,11.564 44.127,4.316 88.242,8.764 132.327,13.479 12.314,1.317 16.762,-3.085 16.475,-15.731 -0.718,-31.713 -0.438,-63.454 -0.124,-95.18 0.088,-8.813 -2.411,-12.652 -12.014,-13.586 C 99.963,-52.075 54.824,-57.03 9.75,-62.457 -0.315,-63.668 0.037,-58.195 0.027,-51.769 -0.001,-34.512 0.018,-17.256 0,0" style="fill:#463c49;fill-opacity:1;fill-rule:nonzero;stroke:none" transform="matrix(1.3333333,0,0,-1.3333333,1180.2181,1170.9276)" />
      <path id="path34" d="m 0,0 c 0,-33.808 0.013,-65.335 -0.003,-96.864 -0.038,-77.364 -0.323,-154.729 0.114,-232.09 0.066,-11.627 -2.655,-17.947 -14.382,-22.244 -11.757,-4.308 -22.135,-12.379 -33.483,-19.015 -4.74,4.424 -2.451,10.297 -2.459,15.341 -0.157,96.845 0.985,193.71 -0.836,290.521 -0.441,23.385 10.215,35.725 25.98,47.57 C -18.008,-11.476 -10.39,-6.912 0,0" style="fill:#463c49;fill-opacity:1;fill-rule:nonzero;stroke:none" transform="matrix(1.3333333,0,0,-1.3333333,481.05347,1181.7235)" />
      <path id="path35" d="m 0,0 c 11.596,-8.114 20.862,-14.101 29.573,-20.809 13.647,-10.508 21.43,-22.342 21.155,-41.955 -1.349,-96.291 -0.547,-192.612 -0.678,-288.922 -0.007,-5.311 2.759,-12.565 -2.424,-15.58 -5.901,-3.434 -11.273,2.808 -16.408,5.558 -7.811,4.183 -14.855,9.797 -22.662,13.99 -6.219,3.342 -8.625,7.862 -8.619,14.716 C 0.026,-222.843 0,-112.683 0,0" style="fill:#463c49;fill-opacity:1;fill-rule:nonzero;stroke:none" transform="matrix(1.3333333,0,0,-1.3333333,2743.4896,1181.6128)" />
      <path id="path36" d="m 0,0 c 0.009,-17.201 -0.045,-34.402 0.033,-51.603 0.036,-7.829 -1.257,-13.651 -10.89,-15.559 -26.738,-5.296 -51.511,-16.901 -77.08,-25.872 -12.904,-4.528 -18.037,-6.777 -16.74,11.365 2.133,29.812 0.901,59.89 0.417,89.845 -0.145,8.979 2.434,13.872 11.078,17.569 27.47,11.747 54.603,24.303 81.658,36.989 9.264,4.344 11.745,1.406 11.6,-7.803 C -0.212,36.625 -0.009,18.311 0,0" style="fill:#463c49;fill-opacity:1;fill-rule:nonzero;stroke:none" transform="matrix(1.3333333,0,0,-1.3333333,770.81107,1442.756)" />
      <path id="path37" d="m 0,0 c -0.001,17.766 0.162,35.534 -0.072,53.297 -0.112,8.489 1.28,12.888 11.259,8.323 28.147,-12.878 56.521,-25.263 84.881,-37.671 5.935,-2.597 8.078,-6.761 8.047,-13.031 -0.162,-32.569 -0.248,-65.141 -0.047,-97.71 0.057,-9.198 -2.257,-11.494 -11.72,-8.111 -26.578,9.5 -53.438,18.263 -80.431,26.52 -9.139,2.796 -12.31,7.576 -12.054,16.754 C 0.344,-34.431 0.001,-17.211 0,0" style="fill:#463c49;fill-opacity:1;fill-rule:nonzero;stroke:none" transform="matrix(1.3333333,0,0,-1.3333333,2453.7443,1441.0665)" />
      <path id="path38" d="m 0,0 c 0,-8.344 -1.19,-16.896 0.227,-24.993 3.997,-22.854 -5.27,-35.455 -26.951,-42.806 -21.991,-7.454 -43.083,-17.603 -64.427,-26.897 -7.86,-3.422 -12.637,-3.553 -12.911,7.005 -0.732,28.194 -1.668,56.386 -2.901,84.562 -0.389,8.901 2.504,14.499 11.043,18.135 27.588,11.744 55.193,23.51 82.263,36.378 12.5,5.942 14.092,1.329 13.695,-9.668 C -0.463,27.827 -0.083,13.907 -0.083,0 Z" style="fill:#463c49;fill-opacity:1;fill-rule:nonzero;stroke:none" transform="matrix(1.3333333,0,0,-1.3333333,770.77227,1263.9504)" />
      <path id="path39" d="M 0,0 C 0,14.985 0.12,29.971 -0.044,44.955 -0.148,54.476 3.788,56.972 12.31,52.921 40.324,39.605 68.271,26.14 96.464,13.213 c 6.239,-2.861 7.676,-6.94 7.649,-13.01 -0.129,-28.86 -0.226,-57.722 0.04,-86.579 0.108,-11.671 -4.25,-13.066 -14.248,-8.649 -26.807,11.84 -53.884,23.073 -80.939,34.342 -6.524,2.717 -9.18,6.974 -9.021,14.065 C 0.295,-31.085 0.054,-15.54 0.054,0 Z" style="fill:#463c49;fill-opacity:1;fill-rule:nonzero;stroke:none" transform="matrix(1.3333333,0,0,-1.3333333,2453.6895,1098.2603)" />
      <path id="path40" d="M 0,0 C 0,-12.766 -0.839,-25.604 0.241,-38.277 1.275,-50.399 -4.548,-57.02 -14.4,-61.368 c -25.748,-11.364 -51.644,-22.391 -77.383,-33.774 -8.899,-3.936 -12.293,-1.046 -12.249,8.197 0.135,28.687 0.291,57.377 -0.014,86.06 -0.084,7.952 3.662,12.143 10.21,15.348 26.376,12.914 52.658,26.02 78.994,39.016 C -3.931,58.864 0.486,55.069 0.187,43.291 -0.179,28.869 0.1,14.431 0.1,0 Z" style="fill:#463c49;fill-opacity:1;fill-rule:nonzero;stroke:none" transform="matrix(1.3333333,0,0,-1.3333333,770.66987,1099.1479)" />
      <path id="path41" d="m 0,0 c -0.008,-14.432 -0.227,-28.869 0.066,-43.295 0.214,-10.569 -4.201,-12.622 -13.336,-8.658 -27.343,11.865 -54.806,23.456 -82.125,35.377 -6.174,2.694 -8.679,8.006 -8.657,14.832 0.094,28.865 0.097,57.73 -0.082,86.594 -0.064,10.341 4.701,13.067 13.623,9.155 C -64.128,82.438 -37.944,70.409 -11.457,59.088 -2.472,55.248 0.74,49.584 0.195,39.955 -0.555,26.676 0.007,13.322 0,0" style="fill:#463c49;fill-opacity:1;fill-rule:nonzero;stroke:none" transform="matrix(1.3333333,0,0,-1.3333333,2592.4435,1321.2547)" />
      <path id="path42" d="m 0,0 c 1.009,33.063 -4.298,65.074 -4.207,97.285 0.03,10.697 20.332,36.215 30.147,38.436 6.335,1.434 6.261,-2.988 6.271,-6.812 C 32.297,96.622 33.394,64.277 31.771,32.07 30.883,14.432 11.641,10.46 0,0" style="fill:#463c49;fill-opacity:1;fill-rule:nonzero;stroke:none" transform="matrix(1.3333333,0,0,-1.3333333,357.89787,1586.2833)" />
      <path id="path43" d="m 0,0 c 11.927,-11.189 20.045,-19.511 28.94,-26.897 5.808,-4.822 4.817,-10.735 4.829,-16.669 0.07,-34.089 0.034,-68.179 0.034,-105.355 -6.429,10.073 -15.091,14.705 -22.46,21.046 -8.671,7.461 -11.873,16.068 -11.602,27.647 C 0.49,-68.285 0,-36.313 0,0" style="fill:#463c49;fill-opacity:1;fill-rule:nonzero;stroke:none" transform="matrix(1.3333333,0,0,-1.3333333,2823.4939,1396.9701)" />
      <path id="path44" d="m 0,0 c 0,-34.316 0.228,-64.091 -0.155,-93.857 -0.1,-7.775 -24.168,-32.081 -31.217,-32.614 -6.53,-0.494 -5.097,4.835 -4.993,8.157 0.815,25.91 0.685,51.94 3.366,77.671 C -31.129,-22.699 -13.952,-15.132 0,0" style="fill:#463c49;fill-opacity:1;fill-rule:nonzero;stroke:none" transform="matrix(1.3333333,0,0,-1.3333333,400.97427,1245.3689)" />
      <path id="path45" d="m 0,0 c -23.169,12.818 -37.169,27.321 -34.268,54.428 2.281,21.325 0.458,43.088 0.458,66.273 12.864,-4.063 17.287,-15.155 25.566,-21.357 C 1.805,91.816 1.134,83.381 0.448,72.393 -1.017,48.894 0,25.24 0,0" style="fill:#463c49;fill-opacity:1;fill-rule:nonzero;stroke:none" transform="matrix(1.3333333,0,0,-1.3333333,2868.4892,1414.3816)" />
      <path id="path46" d="m 0,0 c 0.009,11.087 -0.099,22.176 0.078,33.26 0.05,3.129 -1.024,7.154 2.551,8.954 3.827,1.927 5.771,-1.929 8.244,-3.852 16.05,-12.489 26.463,-26.916 23.282,-49.279 -2.087,-14.665 -0.465,-29.881 -0.205,-44.845 0.157,-9.068 -3.719,-9.2 -9.974,-5.082 C 8.686,-50.779 -4.587,-39.776 -0.191,-18.257 1.005,-12.403 -0.009,-6.098 0,0" style="fill:#463c49;fill-opacity:1;fill-rule:nonzero;stroke:none" transform="matrix(1.3333333,0,0,-1.3333333,2823.4333,1631.1883)" />
      <path id="path47" d="m 0,0 c -3.572,26.478 -2.7,50.682 -0.834,74.661 1.22,15.671 16.525,22.608 26.712,32.195 4.593,4.321 6.387,-1.534 6.4,-5.475 C 32.358,77.007 32.273,52.633 32.132,28.259 32.097,22.289 27.068,20.249 23.054,17.347 15.927,12.195 8.985,6.786 0,0" style="fill:#463c49;fill-opacity:1;fill-rule:nonzero;stroke:none" transform="matrix(1.3333333,0,0,-1.3333333,357.74493,1718.0261)" />
      <path id="path48" d="m 0,0 c -0.841,40.056 -0.254,80.141 -0.24,120.216 0.074,208.164 0.142,416.329 0.211,624.494 -1.479,1.471 -1.484,2.965 -0.073,4.483 -0.03,1.849 -0.058,3.697 -0.086,5.545 -1.967,2.582 -1.819,5.12 0.154,7.621 -0.254,1.972 -0.507,3.945 -0.76,5.918 -1.104,0.296 -2.208,0.592 -3.25,0.879 -1.597,-0.185 -3.257,-0.512 -4.917,-0.512 -212.098,-0.065 -424.197,-0.016 -636.294,-0.371 -12.992,-0.021 -14.313,6.272 -14.215,16.533 0.337,35.062 -0.144,70.134 0.353,105.192 0.191,13.51 -4.628,22.017 -17.751,26.469 -50.496,17.132 -103.216,20.612 -155.639,26.017 -23.792,0.003 -47.586,-0.11 -71.377,0.1 -5.093,0.045 -11.601,-2.338 -13.894,5.404 -15.103,2.609 -30.737,0.603 -45.605,5.249 -0.412,-44.853 -0.824,-89.706 -1.236,-134.56 86.362,15.434 172.841,30.363 256.934,56.12 10.568,3.237 21.211,7.077 30.802,12.452 12.739,7.139 14.759,2.518 14.568,-9.629 -0.464,-29.464 -0.128,-58.942 -0.057,-88.415 0.108,-44.114 0.165,-44.214 -43.2,-60.048 -79.973,-29.203 -163.249,-47.037 -244.648,-71.192 -75.621,-22.439 -152.08,-13.442 -228.357,-15.571 -2.487,-0.07 -5.031,1.92 -7.548,2.951 -47.811,-2.288 -95.417,3.673 -143.194,3.56 -19.846,-0.048 -22.929,4 -22.629,24.024 1.277,85.285 3.965,170.575 3.374,255.844 -0.153,22.009 -1.912,44.524 -3.796,66.703 -4.111,48.407 25.73,74.42 61.9,95.69 62.453,36.724 129.819,61.801 199.173,82.225 26.499,7.804 52.585,17.053 79.382,23.964 1.664,0.429 2.745,3.118 4.097,4.755 -42.805,-2.191 -84.389,-12.052 -126.013,-21.037 -80.344,-17.343 -159.567,-38.878 -235.654,-70.47 -40.947,-17 -82.118,-33.982 -114.448,-66.045 -2.73,-2.707 -4.93,-5.949 -7.373,-8.946 4.602,-8.132 -3.411,-17.684 2.674,-25.518 32.688,-42.088 71.457,-75.508 125.592,-86.229 8.951,-1.772 11.405,-5.952 11.32,-14.726 -0.399,-41.162 -0.729,-82.344 0.206,-123.49 0.326,-14.339 -4.559,-17.446 -18.104,-17.416 -187.491,0.419 -374.984,0.342 -562.476,0.26 -126.28,-0.056 -252.561,-0.312 -378.841,-0.478 -0.523,-9.869 -1.045,-19.738 -1.57,-29.606 0.019,-34.389 0.038,-68.779 0.058,-103.169 1.903,-17.952 1.868,-35.902 -0.06,-53.849 0.018,-106.757 0.038,-213.515 0.058,-320.272 1.998,-16.835 1.822,-33.668 -0.034,-50.5 0,-35.452 0,-70.904 0,-106.357 -0.028,-1.337 -0.055,-2.674 -0.083,-4.01 0.033,-17.637 0.067,-35.274 0.101,-52.911 1.83,-17.956 1.946,-35.918 0.202,-53.888 -0.336,-12.473 9.142,-8.763 15.444,-8.784 60.112,-0.202 120.225,-0.09 180.338,-0.092 464.759,-0.017 929.519,-0.048 1394.278,-0.056 235.44,-0.003 470.881,0.124 706.321,-0.213 C -3.563,-15.71 0.268,-12.747 0,0" style="fill:#6f5c68;fill-opacity:1;fill-rule:nonzero;stroke:none" transform="matrix(1.3333333,0,0,-1.3333333,3152.4196,4414.1879)" />
      <path id="path49" d="m 58.617231,-10.077472 c -3.878906,1.8750001 -9.867187,3.0937501 -15.738281,3.0937501 -18.175781,0 -28.699219,-11.7421871 -28.699219,-30.0234371 0,-19.617188 11.636719,-30.796875 29.144532,-30.796875 6.199218,0 11.414062,1.324218 15.070312,3.09375 l 2.320313,-7.863282 c -2.542969,-1.324218 -8.414063,-3.328125 -17.71875,-3.328125 -23.167969,0 -39.0117192,15.84375 -39.0117192,39.222657 0,24.492187 15.8437502,37.7929684 36.9023442,37.7929684 9.082031,0 16.171875,-1.78125003 19.722656,-3.5507813 z M 111.35161,-42.995441 H 82.324263 v -23.589843 h 30.691407 v -8.097657 H 72.69145 V 6.53125e-4 h 41.98828 V -8.0852844 H 82.324263 V -35.014972 H 111.35161 Z M 136.28618,6.53125e-4 V -31.909503 c 0,-12.410156 -0.22266,-21.386719 -0.77344,-30.808594 l 0.32812,-0.105469 c 3.77344,8.085938 8.75391,16.617188 13.95704,24.925782 L 173.51665,6.53125e-4 h 9.75 V -74.682941 h -9.08204 v 31.253907 c 0,11.625 0.21094,20.71875 1.10157,30.691406 l -0.22266,0.105469 c -3.53906,-7.640625 -7.86328,-15.515625 -13.40625,-24.269532 l -23.92969,-37.78125 H 127.20415 V 6.53125e-4 Z m 78.00586,0 h 9.75 V -66.479816 h 22.82812 v -8.203125 H 191.5811 v 8.203125 h 22.71094 z m 40.88964,0 h 9.63282 V -32.354816 h 9.08203 c 8.7539,0.339844 12.75,4.207032 14.96484,14.519532 2.10938,9.3046871 3.76172,15.7265621 4.98047,17.835937125 h 9.97266 C 302.26762,-2.8821594 300.49809,-10.077472 298.06059,-20.495441 c -1.78125,-7.757812 -5.21484,-13.078125 -10.96875,-15.070312 v -0.328125 c 7.86328,-2.660156 14.0625,-9.199219 14.0625,-19.066406 0,-5.753907 -2.09766,-10.851563 -5.87109,-14.179688 -4.65235,-4.207031 -11.29688,-6.09375 -21.59766,-6.09375 -6.65625,0 -13.62891,0.550781 -18.50391,1.546875 z M 264.8145,-66.925128 c 1.55859,-0.445313 4.875,-0.878906 9.52734,-0.878906 10.19531,0.105468 17.17969,4.3125 17.17969,13.957031 0,8.53125 -6.53906,14.179687 -16.83985,14.179687 h -9.86718 z m 80.54297,-8.976563 c -19.94532,0 -34.6875,15.515625 -34.6875,39.222657 0,22.605468 13.85156,37.8984371 33.57421,37.8984371 19.06641,0 34.6875,-13.6289061 34.6875,-39.3398441 0,-22.160156 -13.18359,-37.78125 -33.57421,-37.78125 z m -0.44532,7.875 c 16.06641,0 23.82422,15.503907 23.82422,30.351563 0,16.957031 -8.64844,31.0312499 -23.92969,31.0312499 -15.1875,0 -23.82421,-14.2968749 -23.82421,-30.2578129 0,-16.394531 7.96875,-31.125 23.92968,-31.125 z M 424.02543,6.53125e-4 V -31.909503 c 0,-12.410156 -0.22265,-21.386719 -0.77343,-30.808594 l 0.32812,-0.105469 c 3.77344,8.085938 8.75391,16.617188 13.95703,24.925782 L 461.2559,6.53125e-4 h 9.75 V -74.682941 h -9.08203 v 31.253907 c 0,11.625 0.21094,20.71875 1.10156,30.691406 l -0.22265,0.105469 c -3.53906,-7.640625 -7.86328,-15.515625 -13.40625,-24.269532 l -23.92969,-37.78125 H 414.9434 V 6.53125e-4 Z M 487.85161,-74.682941 V 6.53125e-4 h 9.63281 V -74.682941 Z m 65.1416,31.6875 h -29.02735 v -23.589843 h 30.69141 v -8.097657 H 514.33305 V 6.53125e-4 h 41.98828 V -8.0852844 H 523.96586 V -35.014972 h 29.02735 z M 633.66508,6.53125e-4 h 9.41016 L 638.4229,-74.682941 h -12.29297 l -13.30078,36.128907 c -3.31641,9.410156 -5.97657,17.613281 -7.86329,25.148437 h -0.32812 c -1.88672,-7.757812 -4.44141,-15.960937 -7.53516,-25.148437 l -12.75,-36.128907 H 572.05961 L 566.84477,6.53125e-4 h 9.19922 L 578.03618,-32.014972 c 0.66797,-11.191406 1.21875,-23.71875 1.4414,-33.023437 h 0.22266 c 2.10937,8.859375 5.09766,18.503906 8.64844,29.027343 l 12.07031,35.56640662 h 7.3125 L 620.91508,-36.679034 c 3.77344,-10.300782 6.87891,-19.605469 9.42188,-28.359375 h 0.32812 c -0.10547,9.304687 0.5625,21.832031 1.11328,32.238281 z M 696.59184,-42.995441 H 667.5645 v -23.589843 h 30.6914 v -8.097657 H 657.93168 V 6.53125e-4 h 41.98829 V -8.0852844 H 667.5645 V -35.014972 h 29.02734 z M 739.14555,6.53125e-4 V -31.804034 l 25.04297,-42.878907 h -10.96875 l -10.74609,20.613282 c -2.88282,5.648437 -5.4375,10.523437 -7.53516,15.398437 h -0.22266 c -2.33203,-5.203125 -4.54687,-9.75 -7.42968,-15.398437 l -10.52344,-20.613282 h -10.96875 l 23.60156,42.996094 V 6.53125e-4 Z M 810.60649,-42.995441 h -29.02734 v -23.589843 h 30.6914 v -8.097657 H 771.94633 V 6.53125e-4 h 41.98828 V -8.0852844 H 781.57915 V -35.014972 h 29.02734 z M 826.46196,6.53125e-4 h 9.63281 V -32.354816 h 9.08203 c 8.75391,0.339844 12.75,4.207032 14.96485,14.519532 2.10937,9.3046871 3.76171,15.7265621 4.98046,17.835937125 h 9.97266 C 873.5479,-2.8821594 871.77836,-10.077472 869.34086,-20.495441 c -1.78125,-7.757812 -5.21484,-13.078125 -10.96875,-15.070312 v -0.328125 c 7.86329,-2.660156 14.0625,-9.199219 14.0625,-19.066406 0,-5.753907 -2.09765,-10.851563 -5.87109,-14.179688 -4.65234,-4.207031 -11.29687,-6.09375 -21.59766,-6.09375 -6.65625,0 -13.6289,0.550781 -18.5039,1.546875 z M 836.09477,-66.925128 c 1.55859,-0.445313 4.875,-0.878906 9.52734,-0.878906 10.19532,0.105468 17.17969,4.3125 17.17969,13.957031 0,8.53125 -6.53906,14.179687 -16.83984,14.179687 h -9.86719 z m 0,0" style="fill:#ffffff;fill-opacity:1;fill-rule:nonzero;stroke:none" aria-label="CENTRO NIEMEYER" transform="matrix(1.3333333,0,0,1.3333333,1027.7031,3937.3351)" />
      <path id="path50" d="m 2.8711203,-0.07159375 c 1.0898438,0.140625 2.8242188,0.29296875 5.0976563,0.29296875 4.1484374,0 7.0195314,-0.75 8.7890624,-2.3789062 1.289063,-1.2421875 2.15625,-2.90625 2.15625,-5.0859375 0,-3.7851563 -2.835937,-5.7773433 -5.25,-6.3867183 v -0.07031 c 2.683594,-0.984375 4.300781,-3.140625 4.300781,-5.589844 0,-2.003906 -0.785156,-3.503906 -2.109375,-4.488281 -1.582031,-1.289062 -3.703125,-1.851562 -6.9843747,-1.851562 -2.3085937,0 -4.5703125,0.222656 -6,0.527343 z m 3.28125,-22.80468725 c 0.5273438,-0.117188 1.3945313,-0.222656 2.90625,-0.222656 3.3164067,0 5.5898437,1.171875 5.5898437,4.148437 0,2.449219 -2.039062,4.265625 -5.5195312,4.265625 H 6.1523703 Z m 0,10.6875 h 2.71875 c 3.5859377,0 6.5624997,1.429687 6.5624997,4.8984373 0,3.703125 -3.128906,4.9453125 -6.5273434,4.9453125 -1.171875,0 -2.109375,-0.035156 -2.7539063,-0.1523438 z m 14.7949217,-6.082031 6.761719,16.8398433 c 0.140625,0.4101562 0.222656,0.67968745 0.222656,0.86718745 0,0.1875 -0.117187,0.4453125 -0.269531,0.78515625 -0.75,1.6992188 -1.886719,2.9882813 -2.789063,3.703125 -0.984375,0.8320313 -2.074218,1.359375 -2.90625,1.6171875 l 0.832032,2.8007813 C 23.630886,8.190125 25.248073,7.627625 26.87698,6.1862188 29.138698,4.2291875 30.755886,1.01825 33.134792,-5.2512812 L 38.12698,-18.270812 h -3.515625 l -3.621094,10.7226558 c -0.457031,1.3242187 -0.832031,2.71875 -1.171875,3.8085937 h -0.08203 c -0.292969,-1.0898437 -0.75,-2.53125 -1.160157,-3.7382812 L 24.568386,-18.270812 Z m 0,0" style="fill:#ffffff;fill-opacity:1;fill-rule:nonzero;stroke:none" aria-label="By" transform="matrix(1.3333333,0,0,1.3333333,1589.2929,4053.0173)" />
      <path id="path51" d="m 19.980489,-39.211252 c -10.3124999,0 -17.9179687,8.015625 -17.9179687,20.261719 0,11.6835939 7.1484375,19.58203144 17.3437497,19.58203144 9.84375,0 17.90625,-7.04296874 17.90625,-20.32031244 0,-11.449219 -6.808593,-19.523438 -17.332031,-19.523438 z m -0.234375,4.066407 c 8.296875,0 12.304688,8.015625 12.304688,15.679687 0,8.765625 -4.464844,16.0312502 -12.363282,16.0312502 -7.839843,0 -12.3046872,-7.3828122 -12.3046872,-15.6210942 0,-8.472656 4.1250002,-16.089843 12.3632812,-16.089843 z m 22.092773,33.2578122 c 2.0625,1.37109374 6.128907,2.46093749 9.84375,2.46093749 9.105469,0 13.511719,-5.15624999 13.511719,-11.10937469 0,-5.660157 -3.316406,-8.8125 -9.84375,-11.332032 -5.320312,-2.0625 -7.675781,-3.832031 -7.675781,-7.441406 0,-2.625 2.003906,-5.777344 7.277344,-5.777344 3.480468,0 6.058593,1.148438 7.324218,1.828125 l 1.371094,-4.054687 c -1.722656,-0.972656 -4.582031,-1.898438 -8.53125,-1.898438 -7.5,0 -12.46875,4.464844 -12.46875,10.476563 0,5.4375 3.890625,8.707031 10.183594,10.933594 5.203125,2.003906 7.265625,4.066406 7.265625,7.675781 0,3.8906249 -2.976563,6.5742187 -8.074219,6.5742187 -3.433594,0 -6.691406,-1.1367188 -8.917969,-2.5195313 z m 56.094727,-3.3164063 c -2.003906,0.9726563 -5.097656,1.59375 -8.132812,1.59375 -9.386719,0 -14.824219,-6.0585937 -14.824219,-15.5039059 0,-10.136719 6.011719,-15.914063 15.058594,-15.914063 3.199218,0 5.894531,0.691406 7.78125,1.605469 l 1.195312,-4.066406 c -1.3125,-0.691407 -4.347656,-1.722657 -9.152344,-1.722657 -11.964843,0 -20.144531,8.191407 -20.144531,20.261719 0,12.6562502 8.179688,19.52343769 19.054688,19.52343769 4.699218,0 8.355468,-0.9140625 10.195312,-1.82812499 z m 27.416016,-6.9257809 4.11328,12.1289059375 h 5.33203 L 121.62307,-38.578439 h -6 L 102.50979,-3.140625e-4 h 5.15625 L 111.67385,-12.12922 Z m -12.65625,-3.902344 3.78516,-11.15625 c 0.73828,-2.34375 1.37109,-4.6875 1.94531,-6.984375 h 0.11719 c 0.5625,2.238281 1.13671,4.523437 2.0039,7.042969 l 3.77344,11.097656 z M 140.4551,-3.140625e-4 h 4.98047 V -16.711252 h 4.69922 c 4.51171,0.175782 6.57421,2.167969 7.72265,7.5000004 1.08985,4.8046875 1.94531,8.1210938 2.57813,9.2109375375 h 5.14453 C 164.78322,-1.4885953 163.86916,-5.2034391 162.60354,-10.594064 c -0.91407,-3.996094 -2.6836,-6.75 -5.66016,-7.78125 v -0.164063 c 4.06641,-1.382812 7.26562,-4.757812 7.26562,-9.84375 0,-2.976562 -1.08984,-5.613281 -3.03515,-7.335937 -2.40235,-2.167969 -5.83594,-3.140625 -11.15625,-3.140625 -3.4336,0 -7.04297,0.28125 -9.5625,0.796875 z M 145.43557,-34.570627 c 0.79687,-0.222656 2.51953,-0.457031 4.92187,-0.457031 5.26172,0.05859 8.8711,2.226563 8.8711,7.207031 0,4.40625 -3.375,7.335938 -8.69532,7.335938 h -5.09765 z M 188.0801,-3.140625e-4 V -16.488595 c 0,-6.410157 -0.11719,-11.039063 -0.41016,-15.902344 l 0.17578,-0.05859 c 1.94532,4.171875 4.52344,8.578125 7.21875,12.878906 l 12.2461,19.5703129375 h 5.02734 V -38.578439 h -4.6875 v 16.136719 c 0,6.011718 0.11719,10.710937 0.57422,15.8554684 l -0.11719,0.058594 c -1.82812,-3.9492194 -4.0664,-8.0156254 -6.92578,-12.5273444 l -12.36328,-19.523437 h -5.4375 V -3.140625e-4 Z M 221.04494,-38.578439 V -3.140625e-4 h 4.98047 V -38.578439 Z m 33.65918,16.371094 h -15 v -12.1875 h 15.85547 v -4.183594 H 234.72365 V -3.140625e-4 h 21.69141 V -4.1839078 H 239.70412 V -18.082345 h 15 z m 41.66016,22.2070309375 h 4.86328 L 298.82522,-38.578439 h -6.35157 l -6.86718,18.65625 c -1.71094,4.875 -3.09375,9.105469 -4.06641,12.9960937 H 281.376 c -0.97266,-4.0078127 -2.29688,-8.2382817 -3.89063,-12.9960937 l -6.58594,-18.65625 h -6.35156 l -2.69531,38.5781249375 h 4.75781 L 267.64162,-16.53547 c 0.33985,-5.789063 0.6211,-12.257813 0.73828,-17.0625 h 0.11719 c 1.08984,4.582031 2.625,9.5625 4.46484,15 l 6.23438,18.36328094 h 3.77344 l 6.82031,-18.71484394 c 1.94531,-5.320312 3.53906,-10.125 4.86328,-14.648437 h 0.16406 c -0.0469,4.804687 0.29297,11.273437 0.57422,16.652343 z M 328.88088,-22.207345 h -15 v -12.1875 h 15.85547 v -4.183594 H 308.90041 V -3.140625e-4 h 21.69141 V -4.1839078 H 313.88088 V -18.082345 h 15 z M 350.86233,-3.140625e-4 V -16.430002 l 12.92578,-22.148437 h -5.66016 l -5.55469,10.652344 c -1.48828,2.917968 -2.80078,5.4375 -3.89062,7.945312 h -0.11719 c -1.19531,-2.683594 -2.34375,-5.027344 -3.83203,-7.945312 l -5.4375,-10.652344 h -5.67188 l 12.19922,22.207031 V -3.140625e-4 Z M 387.77639,-22.207345 h -15 v -12.1875 h 15.85547 v -4.183594 H 367.79592 V -3.140625e-4 h 21.69141 V -4.1839078 H 372.77639 V -18.082345 h 15 z m 8.17969,22.2070309375 h 4.98046 V -16.711252 h 4.69922 c 4.51172,0.175782 6.57422,2.167969 7.72266,7.5000004 1.08984,4.8046875 1.94531,8.1210938 2.57812,9.2109375375 h 5.14454 C 420.2842,-1.4885953 419.37014,-5.2034391 418.10451,-10.594064 c -0.91406,-3.996094 -2.68359,-6.75 -5.66015,-7.78125 v -0.164063 c 4.0664,-1.382812 7.26562,-4.757812 7.26562,-9.84375 0,-2.976562 -1.08984,-5.613281 -3.03515,-7.335937 -2.40235,-2.167969 -5.83594,-3.140625 -11.15625,-3.140625 -3.4336,0 -7.04297,0.28125 -9.5625,0.796875 z M 400.93654,-34.570627 c 0.79688,-0.222656 2.51954,-0.457031 4.92188,-0.457031 5.26172,0.05859 8.87109,2.226563 8.87109,7.207031 0,4.40625 -3.375,7.335938 -8.69531,7.335938 h -5.09766 z m 0,0" style="fill:#ffffff;fill-opacity:1;fill-rule:nonzero;stroke:none" aria-label="OSCAR NIEMEYER" transform="matrix(1.3333333,0,0,1.3333333,1346.6211,4135.8012)" />
      </g></svg>