<?xml version='1.0' encoding='utf-8'?>
<svg xmlns="http://www.w3.org/2000/svg" version="1.1" width="218.589" height="422.925" viewBox="2678.920 662.138 218.589 422.925"><g id="object"><path id="path14" d="m 0,0 c 2.44,-1.063 4.807,-0.785 7.124,0.39 4.187,-0.379 8.375,-0.737 12.559,-1.141 2.407,-0.233 2.895,-2.142 3.377,-4.024 -2.725,-2.025 -5.45,-4.05 -8.18,-6.081 -0.132,2.579 -1.564,3.842 -3.688,2.234 -2.617,-1.981 -4.606,-3.446 -8.191,-1.563 -1.641,0.863 -4.613,-0.356 -5.972,-2.721 -1.193,-0.06 -2.385,-0.12 -3.58,-0.187 -1.878,2.239 -3.799,1.911 -5.747,0.096 -6.657,-0.078 -13.316,-0.275 -19.971,-0.201 -7.065,0.078 -14.036,-0.162 -21.006,-1.702 -4.526,-1.001 -9.283,-0.951 -13.941,-1.37 -1.66,2.305 -3.319,2.48 -4.983,0.01 -2.393,1.407 -5.022,0.833 -7.577,0.895 -1.285,2.009 -3.097,2.354 -5.241,1.654 -4.634,1.51 -9.106,3.95 -14.257,2.474 -8.482,0.042 -9.085,-0.583 -9.735,-10.104 -0.136,-3.051 -0.024,-6.138 -0.464,-9.145 -0.66,-4.51 -2.936,-7.826 -7.862,-8.568 -0.706,1.324 -1.408,2.652 -2.111,3.981 -0.813,11.685 -0.737,23.352 0.714,34.991 0.006,2.358 0.011,4.716 0.015,7.073 2.863,9.725 5.461,19.415 5.881,29.72 0.298,7.312 2.406,14.547 3.647,21.826 0.457,2.682 0.566,5.431 1.146,8.081 0.862,3.938 -0.654,6.878 -3.501,9.289 -3.594,3.044 -7.291,5.966 -8.028,11.066 2.905,1.361 0.421,5.383 3.088,6.667 1.625,-0.538 3.036,-1.104 4.499,-1.463 1.503,-0.369 3.048,-0.619 4.589,-0.774 3.601,-0.362 5.246,0.545 5.961,3.936 1.589,7.544 2.918,15.144 4.353,22.721 1.077,4.905 2.536,9.763 3.15,14.726 1.145,9.258 2.956,18.354 5.35,27.351 1.603,2.501 3.21,5.001 4.817,7.5 1.506,0.013 3.013,0.025 4.519,0.038 0.315,-1.034 0.63,-2.068 0.944,-3.102 0.216,-2.42 0.227,-4.927 2.717,-6.377 0.381,-0.538 0.506,-1.13 0.374,-1.776 -3.666,-4.821 -6.311,-9.921 -4.437,-16.254 0.734,-2.481 -0.292,-4.628 -1.369,-6.715 -1.07,-2.075 -3.343,-4.092 -3.292,-6.088 0.257,-9.898 -3.662,-19.069 -4.46,-28.743 -0.256,-3.099 -0.791,-6.197 -0.77,-9.293 0.02,-2.827 2.085,-3.967 4.716,-4.166 l 4.443,-2.78 c 0.474,-1.095 1.178,-1.561 2.313,-0.845 2.421,0.57 4.84,0.883 7.25,-0.056 0.203,-1.377 0.098,-3.273 2.268,-1.352 l 4.747,0.492 c 1.085,-2.215 2.485,-3.082 4.56,-1.067 1.692,-0.106 3.385,-0.213 5.076,-0.319 2.355,-3.656 5.042,-2.412 7.772,-0.522 0.611,0.104 1.141,-0.055 1.593,-0.478 0.631,-1.743 1.339,-2.145 2.187,-0.127 l -0.047,-0.064 c 2.337,-0.064 4.675,-0.127 7.013,-0.19 2.428,-0.106 4.856,-0.211 7.284,-0.316 0.596,-3.052 1.48,-6.087 1.681,-9.166 0.119,-1.824 -1.339,-5.094 -2.451,-4.648 -2.978,1.195 -5.114,-0.572 -7.606,-0.73 -2.129,-0.136 -2.739,2.389 -3.941,3.863 -3.334,4.086 -3.808,4.154 -8.295,0.23 -1.526,-1.335 -2.793,-2.946 -4.956,-2.242 -6.532,2.125 -13.235,0.905 -19.856,1.202 -2.396,0.108 -4.332,0.092 -5.56,2.992 -1.043,2.462 -4.206,5.148 -6.355,4.295 -3.702,-1.469 -8.333,-2.698 -9.808,-7.388 -0.696,-2.21 -1.309,-4.521 -1.435,-6.816 -0.175,-3.183 -0.335,-6.391 -2.135,-9.041 -3.879,-5.709 -3.698,-11.716 -1.912,-17.958 -0.118,-1.254 -0.236,-2.507 -0.353,-3.761 -4.388,-6.293 -3.006,-13.09 -1.424,-19.767 0.216,-0.91 2.578,-1.311 3.947,-1.947 10.237,-4.809 21.227,-4.178 32.084,-4.378 14.378,-0.266 28.758,-0.407 43.137,-0.601 3.803,-1.055 7.638,-0.442 11.467,-0.215 1.556,-1.295 3.208,-1.77 5.055,-0.591 C -6.198,0.845 -5.317,0.82 -4.436,0.793 -2.958,0.528 -1.479,0.264 0,0" style="fill:#3675ba;fill-opacity:1;fill-rule:nonzero;stroke:none" transform="matrix(1.3333333,0,0,-1.3333333,2860.762,1026.9907)" />
      <path id="path16" d="m 0,0 c -1.506,-0.012 -3.013,-0.025 -4.519,-0.037 -1.15,0.956 -2.187,2.535 -3.469,2.769 -8.674,1.584 -16.731,0.782 -22.502,-7.063 -3.731,-2.733 -6.575,-5.909 -8.022,-10.607 -1.077,-3.497 -3.634,-6.539 -5.531,-9.791 -1.353,-0.949 -2.708,-1.893 -4.062,-2.836 -5.036,3.993 -5.73,8.425 -2.806,14.367 3.246,6.598 6.787,13.132 8.451,20.491 0.971,4.295 3.831,7.657 8.287,9.199 9.953,-1.304 19.433,0.585 28.652,4.241 0.572,-0.071 1.104,0.045 1.598,0.348 3.682,-3.184 7.401,-3.108 11.153,-0.131 0,0 0.882,-0.27 0.886,-0.266 5.707,-1.208 11.216,-3.288 17.31,-2.256 5.112,0.867 5.169,0.53 7.087,7.153 0,0 -0.306,0.105 -0.306,0.106 1.379,0.306 2.013,1.28 2.304,2.563 0,0 0.016,0.008 0.015,0.008 2.58,1.665 2.297,4.561 3.023,7.024 2.229,2.799 4.187,5.716 4.155,9.503 1.739,1.155 2.23,2.893 2.262,4.844 0.388,0.383 0.427,0.799 0.121,1.254 1.376,0.863 2.381,1.983 2.6,3.661 2.727,5.477 5.798,10.862 4.632,17.381 2.297,1.382 3.924,3.306 4.773,5.864 4.604,6.384 9.207,12.768 13.81,19.152 3.189,1.332 5.526,4.42 9.314,4.524 1.043,-1.641 1.951,-3.387 3.155,-4.9 2.866,-3.602 4.196,-7.2 2.171,-11.871 -1.735,-3.998 -0.904,-8.464 -0.892,-12.749 -1.761,-1.518 -1.755,-3.032 -0.005,-4.547 0,0 -0.067,-0.059 -0.067,-0.065 C 80.87,65.597 80.804,62.892 80.92,60.12 78.987,60.259 77.053,60.391 75.121,60.537 71.573,60.803 68.664,59.285 67.91,55.97 66.006,47.6 60.084,40.881 58.718,32.265 58.263,29.4 55.996,26.823 54.563,24.113 53.528,23.012 52.054,22.09 51.525,20.785 c -1.77,-4.367 -0.184,-6.781 4.306,-6.914 3.086,-0.09 6.175,-0.025 9.263,-0.03 1.201,-0.01 2.402,-0.019 3.608,-0.03 1.396,-2.311 3.587,-2.523 5.955,-2.269 1.909,-0.893 3.811,-1.033 5.704,0.051 0.802,-1.343 2.1,-1.713 3.532,-1.822 4.97,-3.558 5.347,-9.481 7.47,-14.504 -0.359,-1.466 -0.717,-2.933 -1.074,-4.399 -5.233,-0.268 -10.464,1.468 -15.699,0.017 -0.821,0.012 -1.641,0.027 -2.46,0.042 -2.358,0.094 -4.716,0.187 -7.074,0.275 -1.406,0.245 -2.812,0.495 -4.218,0.746 -5.829,1.876 -11.658,3.939 -17.445,-0.126 -2.837,-0.78 -4.958,-2.18 -4.832,-5.542 0,0 0.084,0.077 0.088,0.072 -3.28,0.055 -4.692,-2.06 -5.571,-4.797 -4.138,-0.32 -7.556,0.343 -8.291,5.393 -0.38,2.602 -1.098,5.157 -1.711,7.723 -0.603,2.523 -2.339,3.726 -4.837,3.972 C 12.322,1.292 6.245,1.767 0,0" style="fill:#548dc7;fill-opacity:1;fill-rule:nonzero;stroke:none" transform="matrix(1.3333333,0,0,-1.3333333,2755.1009,803.42467)" />
      <path id="path38" d="m 0,0 c -1.785,6.242 -1.967,12.249 1.912,17.958 1.8,2.65 1.961,5.858 2.135,9.041 0.127,2.294 0.74,4.606 1.435,6.816 1.476,4.69 6.107,5.919 9.808,7.387 2.15,0.853 5.313,-1.832 6.355,-4.294 1.228,-2.9 3.165,-2.884 5.561,-2.992 6.62,-0.297 13.324,0.923 19.855,-1.202 2.163,-0.704 3.43,0.907 4.956,2.242 4.487,3.923 4.961,3.856 8.296,-0.23 1.202,-1.474 1.811,-3.999 3.94,-3.863 2.492,0.158 4.629,1.925 7.607,0.73 1.111,-0.446 2.569,2.824 2.451,4.648 -0.201,3.079 -1.085,6.113 -1.681,9.166 0.802,0.437 1.605,0.874 2.407,1.308 1.571,-0.324 3.143,-0.645 4.714,-0.966 3.104,-0.09 6.207,-0.18 9.312,-0.269 1.818,-2.7 4.633,-2.08 7.234,-2.174 0.387,-0.422 0.816,-0.47 1.295,-0.147 1.178,-0.789 2.347,-1.577 3.517,-2.364 2.221,-3.07 4.442,-6.14 6.666,-9.21 -2.158,-3.099 -4.89,-4.638 -8.902,-4.463 -4.191,0.183 -8.663,1.324 -12.489,-1.664 -16.225,-1.145 -32.338,-0.898 -48.181,3.472 -1.782,0.491 -3.818,0.064 -5.735,0.065 -2.288,0.306 -4.608,0.467 -6.859,0.951 -3.37,0.725 -6.651,1.952 -10.045,2.466 C 10.628,33.159 7.471,30.79 6.454,25.826 5.915,23.194 5.777,20.479 5.458,17.802 1.287,12.884 2.703,7.11 2.971,1.51 1.985,1.005 0.993,0.502 0,0" style="fill:#548dc7;fill-opacity:1;fill-rule:nonzero;stroke:none" transform="matrix(1.3333333,0,0,-1.3333333,2726.1041,984.15053)" />
      <path id="path57" d="m 0,0 c -2.631,0.199 -4.696,1.339 -4.715,4.166 -0.022,3.096 0.513,6.193 0.769,9.293 0.799,9.674 4.717,18.845 4.461,28.743 -0.052,1.996 2.221,4.013 3.292,6.088 1.077,2.087 2.103,4.234 1.369,6.715 -1.875,6.332 0.771,11.433 4.435,16.251 1.274,-1.446 1.197,-3.203 1.143,-4.954 C 8.806,63.281 9.035,59.881 9.057,56.517 8.666,51.043 5.925,45.958 6.383,40.344 c 0,0 0.281,-0.057 0.281,-0.058 C 5.314,39.957 4.713,39.089 4.812,37.717 3.866,35.385 3.334,33.016 4.187,30.527 4.125,28.172 4.061,25.818 3.997,23.463 3.98,21.565 3.964,19.668 3.951,17.765 1.618,16.892 -0.103,15.523 -0.475,12.833 -1.071,8.519 -1.318,4.235 0,0" style="fill:#548dc7;fill-opacity:1;fill-rule:nonzero;stroke:none" transform="matrix(1.3333333,0,0,-1.3333333,2747.664,913.44253)" />
      <path id="path95" d="m 0,0 c 1.19,-0.931 2.381,-1.863 3.573,-2.79 -2.728,-1.886 -5.414,-3.129 -7.769,0.527 0.85,0.767 1.699,1.535 2.549,2.298 C -1.097,0.012 -0.549,0.003 0,0" style="fill:#548dc7;fill-opacity:1;fill-rule:nonzero;stroke:none" transform="matrix(1.3333333,0,0,-1.3333333,2794.1364,918.32733)" />
      <path id="path492" d="m 0,0 c 1.979,-3.074 1.769,-7.689 6.728,-8.702 1.65,-0.336 1.62,-2.554 0.894,-3.974 -1.571,-3.075 -3.373,-6.032 -5.09,-9.038 -1.378,0.636 -3.74,1.037 -3.956,1.947 C -3.006,-13.09 -4.388,-6.293 0,0" style="fill:#548dc7;fill-opacity:1;fill-rule:nonzero;stroke:none" transform="matrix(1.3333333,0,0,-1.3333333,2725.634,989.16547)" />
      </g></svg>