<?xml version='1.0' encoding='utf-8'?>
<svg xmlns="http://www.w3.org/2000/svg" version="1.1" width="1266.150" height="1019.120" viewBox="-0.899 3480.260 1266.150 1019.120"><defs id="defs1"><clipPath clipPathUnits="userSpaceOnUse" id="clipPath6">
      <path d="M -2394.4488,3086.5223 H -10.508725 V -283.86783 H -2394.4488 Z" id="path6" />
    </clipPath>
  </defs><g id="object"><path id="path3" d="m 0,0 c 3.892,-3.796 0.734,-7.961 0.626,-11.966 -3.759,-4.282 -8.657,-8.18 -5.548,-16.367 4.416,4.35 8.586,7.083 9.467,12.482 C 16.73,-5.605 24.968,9.705 46.345,15.817 32.909,2.409 24.695,-9.212 20.459,-23.361 17.683,-32.632 8.821,-36.302 1.865,-41.785 -47.991,-81.088 -103.03,-113.247 -152.107,-153.61 c -2.947,-2.424 -6.42,-4.492 -8.635,-7.477 -41.73,-56.241 -103.213,-87.152 -158.968,-125.77 -66.837,-46.295 -132.18,-94.808 -185.057,-157.842 -23.188,-27.641 -52.131,-48.378 -84.801,-63.675 -18.55,-8.685 -34.646,-19.514 -48.485,-35.525 -24.604,-28.465 -53.747,-52.574 -85.273,-73.186 -38.332,-25.063 -71.474,-56.911 -109.605,-82.12 0.489,0.321 0.889,0.684 1.22,1.089 -16.981,-6.218 -28.685,-19.742 -42.461,-30.432 -5.989,-4.646 -10.637,-12.38 -20.094,-10.752 v 260.179 c 14.291,-11.545 20.285,-1.776 22.619,10.273 1.767,9.122 0.431,19.025 -0.568,28.47 -2.706,25.61 11.476,43.307 27.535,60.123 1.241,1.299 4.65,0.528 8.841,0.861 -5.843,-13.268 -11.44,-24.939 -16.075,-36.98 -2.026,-5.265 -2.941,-12.809 1.997,-16.022 6.253,-4.069 11.561,1.648 16.567,5.813 7.2,5.988 7.633,15.918 14.395,23.547 0.971,-4.564 2.182,-8.101 2.365,-11.69 0.209,-4.084 0.796,-7.967 4.953,-9.289 5.113,-1.626 8.577,1.8 10.935,5.725 4.568,7.604 8.884,15.374 12.987,23.24 3.204,6.143 5.624,12.805 14.054,15.465 5.154,-17.093 9.972,-36.312 31.11,-37.771 22.171,-1.531 20.022,25.203 34.216,34.344 5.481,-2.993 -2.475,-12.484 6.094,-13.435 6.777,-0.751 12.236,2.468 16.458,7.789 9.467,11.932 11.074,26.747 15.218,42.559 8.859,-22.929 2.381,-43.503 -2.248,-64.138 -1.046,-4.661 -5.318,-10.287 0.864,-13.516 4.223,-2.207 8.215,2.202 11.653,4.84 10.326,7.926 19.848,17.444 21.165,30.611 2.178,21.767 13.298,37.838 27.741,52.824 8.706,9.035 16.52,18.929 27.662,26.587 -5.04,-8.56 -10.288,-17.006 -15.055,-25.715 -3.97,-7.252 -7.754,-14.658 -10.89,-22.295 -1.88,-4.579 -4.136,-11.251 0.67,-14.073 5.14,-3.017 8.975,2.678 12.118,6.712 1.836,2.355 1.304,6.377 5.62,7.428 7.058,-4.438 -1.793,-13.355 5.298,-18.589 16.035,7.794 15.416,32.365 36.238,36.962 v -22.154 c 16.142,15.786 13.315,41.994 34.792,54.741 20.558,12.202 27.431,35.406 38.57,55.352 6.487,-31.85 -18.391,-53.145 -30.456,-83.518 21.959,10.272 31.544,25.759 40.358,41.227 6.548,11.492 11.13,24.201 15.669,36.701 2.258,6.222 5.019,13.068 9.954,15.827 13.099,7.325 20.771,18.197 25.914,31.553 2.075,5.387 7.973,5.828 11.56,9.237 0.33,0.314 1.034,0.236 1.564,0.34 -0.36,-0.068 -1.027,-0.105 -1.037,-0.208 -0.891,-8.894 2.784,-14.288 11.959,-11.695 9.553,2.7 16.144,9.826 19.897,19.1 7.714,19.067 21.621,36.15 16.42,59.261 -1.532,6.81 -2.902,13.146 -7.469,19.327 17.023,-8.896 25.599,-25.632 21.482,-43.079 -1.925,-8.161 -5.229,-16.353 0.085,-23.676 3.016,-4.157 8.111,-1.746 11.829,1.329 8.415,6.959 13.615,15.685 11.058,26.702 -1.961,8.454 -5.099,16.482 1.669,30.554 -0.891,-22.617 15.643,-30.969 20.253,-46.094 2.48,-8.137 9.995,-7.511 15.968,-4.464 18.808,9.596 34.208,22.071 35.873,45.528 1.227,17.285 0.618,34.242 -4.496,50.974 -2.002,6.55 -5.068,13.222 -1.672,22.922 5.357,-14.712 13.443,-24.348 26.423,-30.844 12.033,-6.022 10.881,-18.83 9.42,-30.618 -0.509,-4.106 -2.246,-9.581 3.088,-11.682 5.062,-1.993 8.764,2.626 10.883,5.915 10.357,16.079 20.032,32.598 30.679,50.167 2.883,-8.522 5.808,-17.17 8.963,-26.499 11.445,8.765 8.141,20.043 8.514,30.347 l 0.254,0.209 c 8.604,-3.461 5.765,-15.168 14.943,-19.665 3.689,7.509 7.088,15.246 11.201,22.582 4.559,8.133 9.898,7.352 11.942,-1.245 3.643,-15.325 8.979,-7.037 15.023,-2.06 21.99,18.107 36.995,43.164 60.96,61.293 1.008,-15.681 -15.989,-20.106 -17.981,-34.04 17.193,2.045 29.225,11.858 39.4,23.919 4.942,5.857 9.885,11.174 16.632,14.748 z" style="fill:#d5c22b;fill-opacity:1;fill-rule:nonzero;stroke:none" transform="matrix(1.3333333,0,0,-1.3333333,1197.4559,3507.3495)" />
      <path id="path15" d="M 0,0 C -1.025,8.043 2.713,16.052 -6.531,18.952 -15.574,21.789 -16.381,11.309 -21.006,6.795 -24.826,32.051 -2.965,58.326 49.241,87.9 31.598,59.366 8.827,33.649 0,0" style="fill:#d5c22b;fill-opacity:1;fill-rule:nonzero;stroke:none" transform="matrix(1.3333333,0,0,-1.3333333,224.84293,4030.3304)" />
      </g></svg>