<?xml version='1.0' encoding='utf-8'?>
<svg xmlns="http://www.w3.org/2000/svg" version="1.1" width="3166.545" height="4457.417" viewBox="18.044 2.988 3166.545 4457.417"><defs id="defs1"><clipPath clipPathUnits="userSpaceOnUse" id="clipPath8">
      <path d="M -1148.4961,2089.633 H 1235.444 v -3370.3901 h -2383.9401 z" id="path8" />
    </clipPath>
    <clipPath clipPathUnits="userSpaceOnUse" id="clipPath12">
      <path d="M -2389.6702,1124.431 H -5.7301751 V -2245.9591 H -2389.6702 Z" id="path12" />
    </clipPath>
  </defs><g id="object"><path id="path3" d="m 0,0 c -93.076,39.795 -189.254,30.561 -284.835,15.147 -159.436,-25.71 -314.156,-72.844 -471.658,-107.464 -57.03,-12.536 -114.525,-22.576 -173.292,-19.691 -76.81,3.77 -131.1,86.091 -102.513,157.7 31.257,78.296 87.3,140.505 138.928,205.37 11.163,14.024 23.098,27.444 34.882,40.964 41.135,47.198 41.169,47.169 111.812,39.964 -10.264,-22.647 -28.856,-37.414 -43.741,-54.482 -61.2,-70.178 -121.267,-141.159 -172.934,-218.865 -15.029,-22.603 -26.849,-46.764 -34.933,-72.4 -3.116,-9.881 -13.107,-25.813 5.804,-30.798 16.046,-4.23 34.228,-12.908 46.618,10.319 65.718,123.199 166.342,219.194 253.493,325.818 31.876,38.998 66.827,50.998 118.096,39.92 C -683.21,210.623 -797.035,96.701 -888.532,-44.019 c 35.997,6.715 67.323,6.027 95.013,22.871 34.309,6.177 68.61,12.349 102.91,18.522 33.756,9.804 69.816,12.14 100.756,31.072 34.909,7.547 69.818,15.093 104.727,22.64 35.08,12.199 76.217,4.516 105.709,35.627 66.375,70.017 136.508,136.672 199.835,209.297 33.677,38.62 69.765,44.885 119.884,35.615 -79.867,-81.965 -157.033,-161.16 -234.2,-240.354 37.423,3.021 75.24,-12.263 103.22,16.235 61.286,62.424 125.233,122.641 181.898,189.046 33.917,39.748 70.816,42.3 120.523,35.624 C 31.102,249.265 -46.193,169.794 -123.06,90.764 -79.679,62.963 -48.23,70.56 -17.805,108.698 13.543,147.99 50.828,182.66 86.541,218.325 c 41.641,41.584 79.233,87.306 125.798,123.887 h 53.927 c 13.844,-8.648 8.741,-15.223 -0.575,-24.773 C 179.846,229.442 95.288,140.174 8.533,53.092 -8.958,35.535 -10.717,23.807 5.594,7.404 3.729,4.936 1.865,2.468 0,0" style="fill:#161516;fill-opacity:1;fill-rule:nonzero;stroke:none" transform="matrix(1.3333333,0,0,-1.3333333,2293.2908,465.27027)" />
      <path id="path4" d="M 0,0 C -78.7,38.964 -161.852,31.517 -244.273,20.529 -421.237,-3.063 -591.51,-58.092 -765.992,-93.567 c -49.517,-10.067 -99.338,-17.993 -149.805,-20.815 -75.322,-4.212 -99.88,8.947 -138.197,73.327 96.283,-31.885 188.592,-4.187 280.897,15.016 140.338,29.197 276.876,74.692 418.485,98.727 100.954,17.135 201.742,30.203 304.184,-8.126 -27.284,24.288 -16.837,39.886 3.761,60.711 99.971,101.072 197.994,204.074 296.551,306.542 6.699,6.965 17.133,11.79 16.29,24.021 h 67.408 c 12.82,-15.068 0.336,-23.274 -8.683,-32.634 C 220.234,314.596 115.725,205.84 10.941,97.35 -32.361,52.517 -32.617,52.764 4.132,5.442 2.754,3.628 1.377,1.814 0,0" style="fill:#161516;fill-opacity:1;fill-rule:nonzero;stroke:none" transform="matrix(1.3333333,0,0,-1.3333333,2428.2285,616.76907)" />
      <path id="path5" d="m 0,0 c -0.157,-11.488 -9.188,-17.55 -15.912,-24.532 -140.64,-146.037 -281.843,-291.534 -421.9,-438.126 -22.57,-23.623 -40.671,-41.106 -64.698,-3.519 -2.828,4.425 -8.644,6.941 -13.074,10.342 1.378,1.813 2.755,3.627 4.133,5.441 29.434,29.075 59.472,57.565 88.194,87.326 116.589,120.81 232.774,242.011 349.108,363.068 z" style="fill:#161516;fill-opacity:1;fill-rule:nonzero;stroke:none" transform="matrix(1.3333333,0,0,-1.3333333,3115.6725,8.9877333)" />
      <path id="path6" d="m 0,0 c 23.94,-11.366 11.688,-23.474 0.38,-34.924 -90.469,-91.612 -178.772,-185.232 -261.754,-283.726 -5.572,-6.613 -23.382,-12.187 -7.937,-26.187 -34.304,-6.174 -68.605,-12.346 -102.914,-18.523 36.633,63.155 87.4,115.194 135.552,168.974 59.306,66.238 118.364,132.856 182.747,194.386 z" style="fill:#478958;fill-opacity:1;fill-rule:nonzero;stroke:none" transform="matrix(1.3333333,0,0,-1.3333333,1731.5657,8.9877333)" />
      <path id="path7" d="M 0,0 C 10.903,7.427 10.413,18.849 15.847,26.832 33.528,52.806 27.986,71.623 2.739,90.87 c -30.178,23.007 -56.648,50.849 -85.045,76.237 -7.811,6.984 -13.936,18.525 -29.305,13.471 C -75.288,119.583 -43.131,56.778 0,0 m -214.497,424.229 c 1.12,-8.702 1.13,-14.183 2.587,-19.248 13.55,-47.114 35.595,-86.437 77.769,-116.822 66.89,-48.191 125.302,-107.225 188.388,-164.905 7.934,18.561 14.438,33.847 21.003,49.107 3.83,8.903 4.147,16.102 -4.318,23.769 -89.547,81.098 -179.251,161.943 -285.429,228.099 m -18.681,89.493 c -4.361,-13.38 4.557,-18.33 15.665,-24.165 24.764,-13.01 49.468,-26.506 72.633,-42.123 81.159,-54.717 155.667,-117.792 227.863,-183.73 6.532,-5.966 11.979,-19.182 24.121,-12.791 16.182,8.518 20.732,57.357 7.11,69.447 -60.453,53.654 -121.531,106.609 -187.415,153.589 -39.289,28.017 -80.414,52.547 -127.447,66.444 -25.619,7.57 -36.371,1.36 -32.53,-26.671 m 320.772,-633.19 c 110.72,271.956 220.607,541.868 331.138,813.362 -66.086,2.498 -66.212,2.549 -87.521,-50.02 C 307.739,585.966 284.9,527.8 261.135,470.014 194.747,308.59 130.313,146.296 60.006,-13.408 39.514,-59.956 50.364,-88.213 87.594,-119.468 M 998.923,827.165 C 959.049,811.724 924.16,818.18 906.65,772.966 829.365,573.404 748.474,375.218 667.25,177.206 583.108,-27.92 508.717,-237.435 397.751,-430.695 c -16.416,-28.591 14.379,-29.565 25.321,-41.266 14.181,-15.165 18.383,2.532 23.588,10.365 60.478,91.019 106.512,189.693 147.838,290.259 110.344,268.529 218.59,537.92 327.576,807.007 24.626,60.8 48.874,121.754 76.849,191.495 m 131.176,23.417 c -48.363,0.633 -79.458,-14.007 -85.839,-62.57 -1.702,-12.953 -8.967,-25.225 -13.996,-37.681 C 917.461,470.978 805.157,191.422 691.54,-87.599 636.159,-223.604 577.782,-358.295 493.939,-480.169 c -6,-8.721 -29.516,-19.36 -4.679,-33.776 16.61,-9.642 29.849,-18.869 47.843,3.925 71.518,90.598 126.697,190.673 170.555,296.365 110.763,266.926 218.274,535.202 327.265,802.865 34.606,84.986 68.722,170.12 95.176,261.372 M 547.173,716.346 C 516.717,710.949 488.268,713.182 471.921,671.929 364.519,400.906 253.098,131.474 142.785,-138.394 c -16.27,-39.802 -7.161,-65.846 32.928,-89.779 13.272,-16.564 26.544,-33.129 39.816,-49.693 10.416,-19.971 26.704,-34.337 44.819,-46.96 13.247,-13.96 26.493,-27.92 39.739,-41.88 13.931,-17.297 29.907,-32.234 51.407,-46.218 186.945,391.243 329.534,798.365 500.982,1201.721 -33.764,-10.369 -63.126,-6.153 -83.183,-29.983 -23.324,5.415 -43.89,-5.459 -65.349,-11.064 -28.777,0.619 -55.805,-5.743 -80.811,-20.236 -25.32,-3.723 -50.64,-7.446 -75.96,-11.168 M 258.941,-660.051 c -4.658,4.286 -8.722,11.288 -14.062,12.456 -102.952,22.515 -182.959,84.633 -256.211,154.492 -205.934,196.394 -362.962,426.25 -461.37,694.403 -9.98,27.196 -16.252,55.995 -21.806,84.525 -12.793,65.722 -2.353,86.824 59.726,124.742 -18.459,-48.085 -10.317,-93.896 3.579,-139.351 47.421,-155.114 127.474,-293.773 218.883,-426.046 104.497,-151.213 221.519,-291.399 373.955,-397.766 56.655,-39.533 117.911,-68.948 187.349,-78.241 23.12,-3.094 46.199,-4.359 76.724,4.904 -31.829,9.15 -56.895,14.808 -80.851,23.517 -92.704,33.701 -168.769,93.09 -237.574,161.426 -198.051,196.699 -354.063,422.345 -459.933,681.33 -18.623,45.555 -32.249,92.995 -37.772,142.608 -5.107,45.873 10.089,78.881 52.723,98.141 1.285,-1.267 2.571,-2.534 3.858,-3.799 -16.399,-66.159 6.007,-126.742 29.261,-186.22 76.253,-195.037 188.127,-369.063 319.329,-531.102 90.029,-111.189 186.891,-215.929 309.444,-292.436 66.903,-41.766 137.927,-74.687 220.889,-67.258 -0.279,11.465 -7.196,16.349 -16.331,18.672 -117.471,29.873 -208.604,102.478 -291.715,185.233 -217.262,216.334 -386.385,465.025 -497.571,751.981 -14.924,38.515 -18.409,78.694 -26.262,118.362 -11.159,56.364 86.571,122.03 140.173,101.801 66.476,-25.087 120.947,-67.419 176.122,-109.122 37.546,-28.378 72.665,-60.057 107.941,-91.309 15.564,-13.788 20.952,-12.857 28.846,7.822 36.758,96.287 75.041,192.006 114.112,287.381 7.3,17.821 5.557,22.21 -13.893,24.819 -54.259,7.275 -107.294,18.491 -131.715,77.349 1.693,2.33 3.387,4.66 5.08,6.99 75.533,-36.417 155.605,-30.446 234.774,-21.7 193.608,21.388 378.415,82.944 566.897,127.783 86.028,20.465 172.239,39.838 261.227,43.829 32.988,1.479 43.357,-10.592 39.614,-42.415 -1.715,-14.577 -5.526,-18.465 -19.631,-18.831 -14.767,-0.384 -30.043,0.51 -35.714,-21.44 C 1145.954,688.476 1077.998,539.3 1016.63,387.74 948.5,219.477 880.861,51.006 811.233,-116.637 756.255,-249.01 697.432,-379.668 607.395,-493.174 c -13.773,-17.363 -29.16,-33.445 -44.181,-50.554 22.721,-17.954 40.93,-15.475 61.977,3.853 70.574,64.808 121.678,143.398 165.768,227.182 73.77,140.182 129.685,288.157 187.5,435.196 75.458,191.909 158.129,380.97 227.433,575.296 11.513,32.282 20.853,65.339 31.674,99.549 17.75,-117.102 -7.922,-223.16 -53.915,-329.351 C 1095.595,264.689 1016.828,57.38 931.632,-147.196 881.1,-268.535 822.654,-386.041 735.271,-486.487 c -25.78,-29.636 -55.645,-54.601 -92.787,-81.464 24.124,-6.745 39.619,0.853 54.624,8.405 83.273,41.913 140.241,110.796 188.26,187.723 78.795,126.228 132.24,264.489 187.572,401.808 52.138,129.393 104.892,258.538 157.455,387.759 1.49,3.663 3.894,6.955 8.488,9.608 -0.301,-66.303 9.05,-130.945 -20.301,-196.188 -68.018,-151.197 -124.061,-307.605 -192.765,-458.652 -25.601,-56.285 -55.192,-110.391 -90.236,-161.239 -10.374,-15.052 -10.528,-23.844 2.928,-36.403 27.895,-26.036 53.246,-54.83 81.509,-80.43 25.746,-23.321 -4.891,-28.548 -11.645,-40.594 -8.421,-15.02 -18.846,-14.74 -31.38,-1.183 -24.374,26.362 -51.315,50.352 -75.663,76.735 -24.738,26.806 -30.229,-5.422 -43.304,-13.024 -15.486,-9.004 -17.837,-19.374 -3.073,-33.463 26.715,-25.495 51.117,-53.409 77.752,-78.995 24.083,-23.134 -8.425,-24.271 -13.573,-35.34 -5.235,-11.258 -15.545,-17.047 -28.456,-2.776 -21.807,24.104 -47.261,44.928 -68.841,69.211 -19.453,21.891 -38.018,32.971 -64.77,12.205 -6.637,-5.152 -15.736,-7.131 -31.495,-13.929 39.257,-37.411 75.201,-72.44 112.103,-106.431 13.8,-12.712 19.418,-21.595 2.003,-36.998 -14.983,-13.251 -24.065,-23.044 -42.137,-2.932 -31.488,35.041 -65.793,67.56 -99.098,100.955 -38.733,38.837 -41.738,39.275 -97.958,15.965 50.117,-52.602 99.149,-104.815 149.168,-156.067 13.665,-14.002 24.724,-23.453 3.534,-41.565 -17.193,-14.696 -26.656,-20.41 -45.054,-0.057 -43.636,48.271 -92.681,91.731 -135.323,140.8 -32.298,37.166 -64.788,56.617 -113.445,27.911 1.145,-13.255 15.662,-19.988 25.007,-29.64 60.919,-62.921 121.56,-126.164 184.275,-187.266 23.21,-22.614 0.436,-29.003 -9.18,-40.692 -11.544,-14.032 -24.069,-20.375 -38.328,-2.579 -40.491,50.535 -86.883,95.076 -134.307,139.16 -22.296,20.726 -41.787,46.093 -63.593,68.365 -44.853,45.811 -52.842,47.09 -113.314,21.384 -17.127,0.835 -34.404,3.454 -50.982,-3.651" style="fill:#161516;fill-opacity:1;fill-rule:nonzero;stroke:none" transform="matrix(1.3333333,0,0,-1.3333333,1531.3281,2786.1773)" clip-path="url(#clipPath8)" />
      <path id="path9" d="m 0,0 c 3.655,17.657 -9.518,26.18 -19.75,36.241 -131.185,129.004 -262.39,257.988 -391.037,384.467 5.496,20.651 19.724,12.963 26.821,20.201 -0.805,1.085 -1.532,3.146 -2.583,3.328 -89.245,15.407 -163.626,60.651 -230.027,119.039 -201.155,176.882 -343.782,393.978 -436.762,644.37 -10.93,29.434 -17.008,60.207 -20.588,91.572 -7.775,68.133 -0.779,83.318 62.244,123.256 -26.042,-63.913 -10.085,-124.094 11.658,-181.02 100.612,-263.402 253.59,-490.884 472.422,-671.269 70.275,-57.928 148.327,-100.456 242.513,-110.668 -16.814,-3.873 -33.628,-7.746 -50.805,-11.703 -1.21,-14.103 10.709,-19.187 17.944,-26.505 C -204.324,306.394 -90.428,191.746 23.541,77.17 56.058,44.479 56.273,44.654 22.603,12.686 17.755,8.084 12.614,3.791 7.605,-0.648 5.067,-0.434 2.534,-0.217 0,0" style="fill:#161516;fill-opacity:1;fill-rule:nonzero;stroke:none" transform="matrix(1.3333333,0,0,-1.3333333,2019.2317,4331.8565)" />
      <path id="path10" d="m 0,0 c -98.749,14.318 -177.746,67.937 -248.236,132.831 -211.533,194.74 -368.951,426.136 -461.019,699.928 -10.704,31.832 -17.984,64.801 -17.067,98.979 1.124,41.913 16.161,62.751 59.031,79.858 -19.404,-95.197 18.004,-179.011 55.783,-260.659 109.572,-236.809 256.36,-446.97 458.538,-614.944 C -89.546,83.299 -19.853,40.814 62.555,23.381 70.92,21.611 78.604,16.624 92.011,10.768 75.249,6.253 63.186,3.004 51.116,-0.25 34.013,-12.184 17.02,-3.269 0,0" style="fill:#161516;fill-opacity:1;fill-rule:nonzero;stroke:none" transform="matrix(1.3333333,0,0,-1.3333333,1693.0412,3695.5295)" />
      <path id="path11" d="M 0,0 C -78.506,22.542 -152.651,9.63 -227.673,-3.604 -414.1,-36.49 -594.171,-96.329 -779.922,-131.649 c -96.966,-18.438 -194.036,-34.381 -293.691,-19.281 -46.608,7.062 -77.168,36.998 -110.412,64.455 -4.116,3.4 -8.224,6.998 -2.197,13.317 7.197,7.545 13.473,4.427 21.006,1.159 49.188,-21.337 101.446,-28.138 153.837,-23.132 114.998,10.988 227.952,34.31 339.918,62.775 144.177,36.653 287.138,78.794 434.549,101.383 55.287,8.472 110.893,12.931 166.137,-3.041 C -35.667,55.836 -7.273,31.461 0,0" style="fill:#161516;fill-opacity:1;fill-rule:nonzero;stroke:none" transform="matrix(1.3333333,0,0,-1.3333333,3186.2269,1499.2413)" clip-path="url(#clipPath12)" />
      <path id="path13" d="m 0,0 c 189.194,-56.711 366.838,11.548 546.396,52.495 133.155,30.365 264.252,69.972 400.344,86.547 43.541,5.303 87.237,7.337 130.552,-3.109 41.338,-9.969 71.154,-34.574 94.698,-72.508 C 1021.95,98.026 881.426,59.462 740.712,25.542 587.264,-11.448 435.657,-56.745 278.421,-76.359 228.322,-82.609 178.222,-86.73 127.389,-81.886 69.956,-76.413 25.31,-54.007 0,0" style="fill:#161516;fill-opacity:1;fill-rule:nonzero;stroke:none" transform="matrix(1.3333333,0,0,-1.3333333,1511.1985,1439.2144)" />
      <path id="path14" d="m 0,0 c 155.68,-43.019 300.221,4.636 447.017,37.855 142.836,32.323 283.499,75.151 429.022,94.718 50.743,6.824 101.81,12.764 153.89,5.174 50.621,-7.377 85.936,-33.492 119.791,-80.843 -52.186,17.063 -97.737,22.732 -144.685,19.786 C 884.568,69.133 768.472,38.83 652,10.689 514.827,-22.452 378.805,-60.703 238.125,-77.376 197.826,-82.152 157.46,-83.198 117.115,-80.231 64.426,-76.356 22.164,-55.616 0,0" style="fill:#161516;fill-opacity:1;fill-rule:nonzero;stroke:none" transform="matrix(1.3333333,0,0,-1.3333333,1417.414,1285.7876)" />
      <path id="path15" d="m 0,0 c -78.786,29.455 -158.966,19.78 -238.791,7.056 -199.851,-31.858 -392.992,-94.983 -592.604,-128.119 -40.955,-6.799 -82.081,-11.667 -123.634,-12.934 -91.312,-2.784 -111.489,6.959 -166.052,81.87 141.281,-49.979 276.354,-3.012 411.59,25.836 150.952,32.201 298.701,79.434 452.113,100.148 64.064,8.651 128.86,15.12 192.235,-9.527 C -34.124,52.266 -13.225,30.865 4.322,4.404 2.854,2.963 1.414,1.495 0,0" style="fill:#161516;fill-opacity:1;fill-rule:nonzero;stroke:none" transform="matrix(1.3333333,0,0,-1.3333333,2806.0745,1055.6971)" />
      <path id="path16" d="m 0,0 c -80.66,10.895 -144.299,55.888 -203.957,105.997 -110.95,93.19 -198.466,206.404 -273.828,329.635 -57.934,94.733 -106.562,193.616 -138.551,300.139 -10.689,35.596 -16.103,72.385 -12.771,109.743 3.296,36.945 25.707,61.325 63.124,70.438 -26.014,-52.584 -12.001,-105.877 5.625,-154.931 C -467.77,503.345 -322.335,281.55 -108.661,106.595 -71.221,75.94 -26.584,58.523 11.529,29.754 25.177,19.453 43.484,15.109 62.159,15.848 70.303,16.17 83.056,16.839 84.501,5.922 86.061,-5.865 71.094,-2.834 65.144,-8.723 54.606,-9.472 44.068,-10.22 33.529,-10.968 31.956,-9.382 31.007,-7.483 30.683,-5.272 21.94,5.126 10.547,0.101 0,0" style="fill:#d0241e;fill-opacity:1;fill-rule:nonzero;stroke:none" transform="matrix(1.3333333,0,0,-1.3333333,1284.6081,3768.0236)" />
      <path id="path17" d="m 0,0 c 81.061,-33.031 164.538,-25.427 244.094,-7.781 65.214,14.465 130.607,32.427 195.76,47.916 136.154,32.37 270.187,75.788 410.71,88.506 48.32,4.374 96.341,5.712 144.135,-3.331 37.571,-7.109 70.189,-22.68 89.142,-58.992 -7.546,-6.904 -16.382,-9.402 -28.654,-6.71 C 947.934,83.134 844.794,59.349 740.773,34.973 695.401,24.341 648.591,17.93 602.926,7.317 516.729,-12.715 430.789,-33.858 344.688,-54.307 315.208,-61.309 284.927,-61.768 255.05,-65.039 217.914,-69.104 181.508,-80.768 143.482,-80.457 77.989,-79.921 31.158,-74.709 0,0" style="fill:#d0241e;fill-opacity:1;fill-rule:nonzero;stroke:none" transform="matrix(1.3333333,0,0,-1.3333333,1222.8648,975.4468)" />
      <path id="path18" d="m 0,0 c 133.828,-32.25 259.589,12.416 386.623,41.727 146.384,33.775 290.884,76.596 440.959,92.175 60.526,6.284 120.99,5.111 179.18,-17.525 29.518,-11.483 50.003,-31.425 66.063,-63.664 -40.902,9.924 -77.447,19.929 -115.657,19.77 C 869.499,72.119 785.071,52.27 699.201,37.186 527.94,7.103 362.924,-51.117 189.699,-70.759 160.533,-74.066 131.408,-75.44 102.333,-73.201 53.882,-69.47 16.285,-49.268 0.241,0.202 Z" style="fill:#478958;fill-opacity:1;fill-rule:nonzero;stroke:none" transform="matrix(1.3333333,0,0,-1.3333333,1129.1493,827.08507)" />
      <path id="path19" d="m 0,0 c -92.288,-39.058 -169.672,-9.7 -241.961,37.619 -168.233,110.119 -280.706,268.364 -374.247,442.107 -41.472,77.032 -75.067,157.178 -93.18,243.257 -15.177,72.119 0.195,112.635 54.648,139.305 -21.782,-135.05 42.185,-246.151 100.436,-357.526 C -463.209,330.591 -345.066,178.22 -180.486,66.15 -127.292,29.928 -68.858,6.662 0,0" style="fill:#478958;fill-opacity:1;fill-rule:nonzero;stroke:none" transform="matrix(1.3333333,0,0,-1.3333333,1252.9773,3794.5056)" />
      <path id="path20" d="m 0,0 c -0.118,-206.159 105.269,-368.478 217.19,-527.044 55.152,-78.137 123.095,-145.549 201.472,-201.36 61.444,-43.753 125.942,-80.573 213.858,-81.969 -65.317,-26.016 -121.036,-25.043 -177.06,-1.576 -90.089,37.736 -162.27,99.952 -226.469,171.027 -130.547,144.529 -224.633,309.728 -272.034,499.853 -6.555,26.291 -7.641,53.13 -4.717,80.197 C -44.219,-28.09 -24.785,-9.639 0,0" style="fill:#161516;fill-opacity:1;fill-rule:nonzero;stroke:none" transform="matrix(1.3333333,0,0,-1.3333333,230.3436,2751.9735)" />
      <path id="path21" d="m 0,0 c -25.226,-112.289 21.745,-208.762 67.753,-304.56 73.836,-153.739 173.068,-287.824 311.578,-390.369 53.9,-39.904 112.487,-68.734 179.645,-81.463 -34.355,-17.152 -69.942,-21.86 -107.006,-12.7 -65.452,16.176 -121.306,50.63 -171.189,94.542 C 117.289,-550.628 8.079,-372.544 -49.948,-162.928 -56.51,-139.226 -60.607,-114.87 -60.213,-89.9 -59.42,-39.665 -48.414,-22.679 0,0" style="fill:#161516;fill-opacity:1;fill-rule:nonzero;stroke:none" transform="matrix(1.3333333,0,0,-1.3333333,104.36267,2843.3887)" />
      <path id="path22" d="M 0,0 C 10.547,0.101 21.94,5.126 30.683,-5.272 23.284,-6.625 14.308,-0.269 7.737,-10.968 h 25.792 c 10.539,0.748 21.077,1.496 31.615,2.245 120.99,-121.587 241.942,-243.213 363.021,-364.713 14.734,-14.786 26.46,-33.731 50.175,-36.67 7.796,-0.966 9.318,-6.475 9.631,-14.572 0.941,-24.316 12.921,-18.41 25.11,-7.821 18.145,-35.624 -8.612,-49.555 -30.937,-66.224 -11.662,-8.707 -14.719,2.884 -21.676,6.834 -28.129,15.969 -37.214,53.636 -71.524,62.3 l 0.584,-0.483 c 0.201,15.837 -13.169,22.669 -22.155,31.814 C 250.938,-279.761 134.383,-161.379 17.166,-43.657 4.264,-30.7 -3.841,-18.346 0,0" style="fill:#161516;fill-opacity:1;fill-rule:nonzero;stroke:none" transform="matrix(1.3333333,0,0,-1.3333333,1284.6081,3768.0236)" />
      <path id="path23" d="m 0,0 c 17.02,-3.269 34.013,-12.184 51.116,-0.25 13.797,-29.137 40.352,-47.136 61.756,-69.419 83.762,-87.204 168.184,-173.785 253.367,-259.6 14.405,-14.511 17.046,-23.424 0.698,-37.399 -14.252,-12.183 -24.65,-24.849 -43.778,-5.169 C 213.833,-259.359 103.86,-147.507 -6.422,-35.965 -23.143,-19.053 -15.479,-9.59 0,0" style="fill:#74856f;fill-opacity:1;fill-rule:nonzero;stroke:none" transform="matrix(1.3333333,0,0,-1.3333333,1693.0412,3695.5295)" />
      <path id="path24" d="m 0,0 c 16.578,7.105 33.855,4.486 50.982,3.651 91.018,-92.315 182.014,-184.654 273.165,-276.84 8.814,-8.914 15.376,-22.605 2.903,-26.93 -14.097,-4.887 -24.174,-28.362 -43.074,-13.934 -14.167,10.815 -26.826,23.737 -39.438,36.435 C 162.96,-195.48 81.802,-112.924 -0.11,-31.121 -12.119,-19.128 -22.489,-10.39 0,0" style="fill:#74856f;fill-opacity:1;fill-rule:nonzero;stroke:none" transform="matrix(1.3333333,0,0,-1.3333333,1876.5832,3666.2451)" />
      <path id="path25" d="M 0,0 C -1.117,2.23 -2.234,4.459 -3.35,6.688 -0.54,6.787 2.27,6.885 5.08,6.987 3.387,4.66 1.693,2.33 0,0" style="fill:#161516;fill-opacity:1;fill-rule:nonzero;stroke:none" transform="matrix(1.3333333,0,0,-1.3333333,1711.0464,1755.16)" />
      <path id="path26" d="M 0,0 C 2.954,-2.487 8.133,-4.642 4.551,-9.387 0.852,-14.286 -2.256,-8.602 -5.594,-7.404 -3.729,-4.936 -1.864,-2.468 0,0" style="fill:#161516;fill-opacity:1;fill-rule:nonzero;stroke:none" transform="matrix(1.3333333,0,0,-1.3333333,2300.7488,455.39827)" />
      <path id="path28" d="M 0,0 C 2.43,1.102 6.737,3.489 6.999,3.107 9.393,-0.391 7.143,-2.465 3.858,-3.799 2.571,-2.534 1.285,-1.267 0,0" style="fill:#161516;fill-opacity:1;fill-rule:nonzero;stroke:none" transform="matrix(1.3333333,0,0,-1.3333333,1081.0632,2144.7249)" />
      <path id="path29" d="M 0,0 C 2.953,-1.169 6.333,-2.668 3.595,-6.253 2.926,-7.129 -1.57,-5.082 -4.314,-4.392 -2.908,-2.91 -1.468,-1.441 0,0" style="fill:#161516;fill-opacity:1;fill-rule:nonzero;stroke:none" transform="matrix(1.3333333,0,0,-1.3333333,2811.8372,1049.8247)" />
      <path id="path30" d="m 0,0 c 83.583,106.281 182.59,198.244 274.841,296.484 16.092,17.137 35.636,11.768 53.446,9.958 15.662,-1.591 8.264,-12.768 4.025,-22.508 -17.983,-41.323 -52.684,-68.818 -83.03,-99.259 C 207.594,142.856 171.658,95.092 121.938,61.1 111.523,53.979 101.367,39.527 104.794,22.646 69.818,15.093 34.909,7.547 0,0" style="fill:#d0241e;fill-opacity:1;fill-rule:nonzero;stroke:none" transform="matrix(1.3333333,0,0,-1.3333333,1506.8208,427.34227)" />
      <path id="path31" d="m 0,0 c 32.682,73.963 63.13,148.957 94.015,223.473 27.026,65.204 57.594,130.117 84.638,195.851 89.408,217.309 176.769,435.46 264.929,653.27 21.472,5.588 42.039,16.461 65.349,11.012 -24.287,-62.41 -47.87,-125.064 -72.96,-187.109 C 361.187,711.568 286.14,526.744 210.547,342.145 162.046,223.701 113.343,105.314 58.094,-10.217 52.827,-21.23 45.91,-31.454 39.749,-41.962 26.493,-27.92 13.246,-13.96 0,0" style="fill:#d0241e;fill-opacity:1;fill-rule:nonzero;stroke:none" transform="matrix(1.3333333,0,0,-1.3333333,1878.4589,3219.2793)" />
      <path id="path32" d="m 0,0 c 39.092,96.353 78.132,192.726 117.287,289.053 85.978,211.524 172.039,423.014 257.921,634.577 2.951,7.27 11.395,16.468 -3.752,20.888 25.324,3.723 50.643,7.446 75.969,11.172 C 430.718,887.967 398.974,825.936 373.078,761.758 282.939,538.365 191.599,315.455 100.395,92.493 80.893,44.817 60.043,-2.308 39.815,-49.69 26.544,-33.129 13.272,-16.564 0,0" style="fill:#478958;fill-opacity:1;fill-rule:nonzero;stroke:none" transform="matrix(1.3333333,0,0,-1.3333333,1765.6123,3090.4081)" />
      <path id="path79" d="M 9.6787016,6.3125e-4 H 20.75292 V -37.171244 h 10.429688 c 10.054687,0.386719 14.636719,4.839844 17.191406,16.675781 2.414063,10.6992192 4.324219,18.0820317 5.71875,20.49609425 H 65.553702 C 63.772452,-3.3040563 61.733389,-11.577494 58.932608,-23.542338 56.893545,-32.460306 52.956045,-38.565775 46.334952,-40.86265 v -0.375 c 9.035156,-3.058594 16.160156,-10.570313 16.160156,-21.902344 0,-6.609375 -2.414063,-12.46875 -6.738281,-16.289062 -5.355469,-4.839844 -12.984375,-6.996094 -24.832032,-6.996094 -7.628906,0 -15.65625,0.632812 -21.2460934,1.78125 z M 20.75292,-76.886088 c 1.78125,-0.503906 5.589844,-1.019531 10.945313,-1.019531 11.707031,0.128906 19.722656,4.96875 19.722656,16.042969 0,9.796875 -7.511719,16.289062 -19.347656,16.289062 H 20.75292 Z M 127.79198,-28.7689 c 0.12891,-1.148438 0.38672,-2.929688 0.38672,-5.214844 0,-11.332031 -5.34375,-29.027344 -25.46484,-29.027344 -17.941408,0 -28.886721,14.636719 -28.886721,33.222657 0,18.585937 11.320313,31.066406 30.292971,31.066406 9.79687,0 16.54687,-2.0390625 20.49609,-3.8203125 l -1.91015,-8.0273435 c -4.20704,1.7929685 -9.03516,3.1874997 -17.0625,3.1874997 -11.20313,0 -20.871098,-6.2343747 -21.128911,-21.3867187 z m -43.148435,-8.015625 c 0.890625,-7.769531 5.859375,-18.199219 17.179685,-18.199219 12.60938,0 15.65625,11.074219 15.53907,18.199219 z M 191.56249,-28.7689 c 0.12891,-1.148438 0.38672,-2.929688 0.38672,-5.214844 0,-11.332031 -5.34375,-29.027344 -25.46484,-29.027344 -17.94141,0 -28.88672,14.636719 -28.88672,33.222657 0,18.585937 11.32031,31.066406 30.29297,31.066406 9.79687,0 16.54687,-2.0390625 20.49609,-3.8203125 l -1.91016,-8.0273435 c -4.20703,1.7929685 -9.03515,3.1874997 -17.0625,3.1874997 -11.20312,0 -20.87109,-6.2343747 -21.1289,-21.3867187 z m -43.14844,-8.015625 c 0.89063,-7.769531 5.85938,-18.199219 17.17969,-18.199219 12.60938,0 15.65625,11.074219 15.53906,18.199219 z m 99.4043,-53.589844 v 36.785156 h -0.24609 c -2.80079,-4.96875 -9.16407,-9.421875 -18.58594,-9.421875 -15.02344,0 -27.75,12.609375 -27.6211,33.09375 0,18.714844 11.44922,31.3125005 26.34375,31.3125005 10.05469,0 17.56641,-5.2148438 21,-12.0820315 h 0.25782 L 249.48241,6.3125e-4 H 259.5371 C 259.15038,-4.1946813 259.02147,-10.440775 259.02147,-15.913431 v -74.460938 z m 0,64.535156 c 0,1.78125 -0.11719,3.304688 -0.50391,4.839844 -2.03906,8.402344 -8.90625,13.3593752 -16.41797,13.3593752 -12.09375,0 -18.21093,-10.3125002 -18.21093,-22.7812502 0,-13.617187 6.8789,-23.800781 18.45703,-23.800781 8.40234,0 14.51953,5.847656 16.17187,12.984375 0.38672,1.394531 0.50391,3.304687 0.50391,4.710937 z m 57.16113,-59.953125 V 6.3125e-4 H 316.0537 V -40.218119 h 41.4961 V 6.3125e-4 h 11.1914 V -85.792338 h -11.1914 v 35.894532 h -41.4961 v -35.894532 z m 108.69727,22.78125 c -17.0625,0 -30.55078,12.09375 -30.55078,32.71875 0,19.476563 12.85547,31.6875005 29.53125,31.6875005 14.89453,0 30.66797,-9.9257813 30.66797,-32.7070315 0,-18.84375 -11.96485,-31.699219 -29.64844,-31.699219 z m -0.25781,8.402344 c 13.24218,0 18.45703,13.242188 18.45703,23.683594 0,13.863281 -8.01563,23.9296875 -18.71485,23.9296875 -10.94531,0 -18.71484,-10.1835935 -18.71484,-23.6835935 0,-11.707032 5.73047,-23.929688 18.97266,-23.929688 z m 95.58984,-6.996094 h -11.20313 v 37.804688 c 0,2.039062 -0.375,4.066406 -1.01953,5.730469 -2.03906,4.957031 -7.2539,10.1835935 -14.76562,10.1835935 -10.1836,0 -13.7461,-7.8984375 -13.7461,-19.6054685 V -61.604838 H 457.07128 V -25.5814 c 0,21.6328125 11.58984,26.9765625 21.25781,26.9765625 10.94531,0 17.4375,-6.4804688 20.36719,-11.4492185 h 0.25781 L 499.5869,6.3125e-4 h 9.92579 c -0.375,-4.83984375 -0.50391,-10.44140625 -0.50391,-16.80468725 z m 14.25879,58.6757817 c 4.32422,2.5429688 10.55859,4.2070313 17.30859,4.2070313 14.63672,0 23.03906,-7.640625 23.03906,-18.457031 0,-9.164063 -5.47265,-14.519532 -16.17187,-18.585938 -8.01563,-3.058594 -11.70703,-5.34375 -11.70703,-10.441406 0,-4.582031 3.6914,-8.402344 10.3125,-8.402344 5.73047,0 10.18359,2.039063 12.59765,3.5625 l 2.80079,-8.144531 c -3.4336,-2.039063 -8.90625,-3.820313 -15.14063,-3.820313 -13.24219,0 -21.25781,8.144532 -21.25781,18.082032 0,7.382812 5.21484,13.488281 16.28906,17.4375 8.27344,3.046875 11.46094,5.976562 11.46094,11.332031 0,5.085937 -3.82031,9.1640625 -11.96485,9.1640625 -5.60156,0 -11.46093,-2.296875 -14.76562,-4.4648435 z M 627.50878,-28.7689 c 0.12891,-1.148438 0.38672,-2.929688 0.38672,-5.214844 0,-11.332031 -5.34375,-29.027344 -25.46485,-29.027344 -17.9414,0 -28.88671,14.636719 -28.88671,33.222657 0,18.585937 11.32031,31.066406 30.29296,31.066406 9.79688,0 16.54688,-2.0390625 20.4961,-3.8203125 l -1.91016,-8.0273435 c -4.20703,1.7929685 -9.03515,3.1874997 -17.0625,3.1874997 -11.20312,0 -20.87109,-6.2343747 -21.1289,-21.3867187 z m -43.14844,-8.015625 c 0.89063,-7.769531 5.85938,-18.199219 17.17969,-18.199219 12.60937,0 15.65625,11.074219 15.53906,18.199219 z M 691.91796,1.3951625 c 15.78516,0 28.125,-9.6679688 28.125,-24.0468755 0,-10.066406 -6.36328,-17.320312 -16.67578,-21.386718 v -0.386719 c 10.18359,-4.839844 13.6289,-12.339844 13.6289,-19.347656 0,-10.3125 -8.02734,-20.367188 -24.05859,-20.367188 -14.51953,0 -25.59375,8.917969 -25.59375,22.019531 0,7.136719 3.94922,14.261719 13.11328,18.585938 l 0.12891,0.386719 c -10.1836,4.324218 -16.41797,11.707031 -16.41797,22.148437 0,12.0937502 10.44141,22.3945315 27.75,22.3945315 z m 0.25781,-8.1445313 c -10.57031,0 -16.93359,-7.3828122 -16.55859,-15.7851562 0,-7.886719 5.22656,-14.25 14.89453,-17.050781 11.20312,3.175781 18.21094,8.015625 18.21094,18.070312 0,8.53125 -6.49219,14.7656252 -16.54688,14.7656252 z m 0.11719,-69.3632812 c 10.05469,0 14.00391,6.867187 14.00391,13.488281 0,7.511719 -5.47266,12.597656 -12.59766,15.023438 -9.55078,-2.554688 -15.78516,-7.007813 -15.78516,-15.28125 0,-7.125 5.08594,-13.230469 14.37891,-13.230469 z M 783.31249,6.3125e-4 V -9.2923375 H 746.14062 V -9.55015 l 6.62109,-6.105469 c 17.4375,-16.804687 28.51172,-29.144531 28.51172,-44.425781 0,-11.835938 -7.51172,-24.058594 -25.33594,-24.058594 -9.53906,0 -17.69531,3.5625 -23.41406,8.402344 l 3.5625,7.898437 c 3.82031,-3.1875 10.05469,-7.007812 17.5664,-7.007812 12.33985,0 16.41797,7.769531 16.41797,16.171875 -0.1289,12.46875 -9.67968,23.167969 -30.80859,43.277344 l -8.77734,8.519531 V 6.3125e-4 Z m 43.40332,0 h 11.07422 V -34.370463 c 2.54297,0.644532 5.58984,0.761719 8.90625,0.761719 10.81641,0 20.36719,-3.175781 26.21484,-9.410156 4.33594,-4.464844 6.6211,-10.570313 6.6211,-18.328125 0,-7.640625 -2.80078,-13.875 -7.51172,-17.953125 -5.08594,-4.582031 -13.10156,-7.125 -24.0586,-7.125 -8.90625,0 -15.90234,0.761719 -21.24609,1.652344 z M 837.79003,-76.757181 c 1.89844,-0.503907 5.58984,-0.890625 10.42969,-0.890625 12.22265,0 20.23828,5.472656 20.23828,16.804687 0,11.835938 -8.14453,18.328125 -21.50391,18.328125 -3.6914,0 -6.75,-0.257812 -9.16406,-0.890625 z M 903.20995,6.3125e-4 V -61.604838 H 892.00683 V 6.3125e-4 Z M 897.60839,-85.921244 c -4.07813,0 -7.00781,3.058594 -7.00781,7.007813 0,3.808593 2.80078,6.867187 6.75,6.867187 4.45312,0 7.2539,-3.058594 7.125,-6.867187 0,-3.949219 -2.67188,-7.007813 -6.86719,-7.007813 z m 66.18164,75.234375 c -3.17578,1.3945315 -7.38281,3.0468752 -13.74609,3.0468752 -12.21094,0 -21.38672,-8.7773442 -21.38672,-23.0390622 0,-12.855469 7.64062,-23.285157 21.77343,-23.285157 6.10547,0 10.3125,1.394532 12.98438,2.917969 l 2.54297,-8.648437 c -3.0586,-1.535157 -8.90625,-3.1875 -15.52735,-3.1875 -20.10937,0 -33.09375,13.746093 -33.09375,32.71875 0,18.832031 12.09375,31.441406 30.66797,31.441406 8.28516,0 14.76563,-2.0390625 17.69532,-3.5742188 z m 56.25877,0 c -3.1758,1.3945315 -7.3828,3.0468752 -13.7461,3.0468752 -12.21091,0 -21.38669,-8.7773442 -21.38669,-23.0390622 0,-12.855469 7.64062,-23.285157 21.77339,-23.285157 6.1055,0 10.3125,1.394532 12.9844,2.917969 l 2.543,-8.648437 c -3.0586,-1.535157 -8.9063,-3.1875 -15.5274,-3.1875 -20.10933,0 -33.09371,13.746093 -33.09371,32.71875 0,18.832031 12.09375,31.441406 30.66801,31.441406 8.2851,0 14.7656,-2.0390625 17.6953,-3.5742188 z m 59.3203,10.68750025 c -0.7617,-4.19531255 -1.0195,-9.42187505 -1.0195,-14.76562525 v -23.039062 c 0,-12.351563 -4.582,-25.207032 -23.4258,-25.207032 -7.7578,0 -15.1406,2.167969 -20.2383,5.472657 l 2.5547,7.382812 c 4.3242,-2.800781 10.3008,-4.582031 16.0313,-4.582031 12.6094,0 14.0039,9.164062 14.0039,14.261719 v 1.277343 c -23.8008,-0.128906 -37.043,8.015625 -37.043,22.910157 0,8.9062497 6.3633,17.6835935 18.8438,17.6835935 8.7773,0 15.3984,-4.3242188 18.832,-9.1640625 h 0.3867 l 0.8906,7.76953125 z M 1067.5332,-20.753275 c 0,1.148437 -0.2578,2.425781 -0.6445,3.574219 -1.7813,5.214843 -6.8672,10.300781 -14.8828,10.300781 -5.7305,0 -10.5704,-3.433594 -10.5704,-10.6875 0,-11.964844 13.875,-14.132813 26.0977,-13.875 z m 70.8896,-69.621094 v 36.785156 h -0.2461 c -2.8007,-4.96875 -9.164,-9.421875 -18.5859,-9.421875 -15.0234,0 -27.75,12.609375 -27.6211,33.09375 0,18.714844 11.4492,31.3125005 26.3438,31.3125005 10.0547,0 17.5664,-5.2148438 21,-12.0820315 h 0.2578 l 0.5156,10.68750025 h 10.0547 C 1149.7549,-4.1946813 1149.626,-10.440775 1149.626,-15.913431 v -74.460938 z m 0,64.535156 c 0,1.78125 -0.1171,3.304688 -0.5039,4.839844 -2.039,8.402344 -8.9062,13.3593752 -16.4179,13.3593752 -12.0938,0 -18.211,-10.3125002 -18.211,-22.7812502 0,-13.617187 6.8789,-23.800781 18.4571,-23.800781 8.4023,0 14.5195,5.847656 16.1718,12.984375 0.3868,1.394531 0.5039,3.304687 0.5039,4.710937 z M 1179.415,6.3125e-4 V -61.604838 h -11.2031 V 6.3125e-4 Z m -5.6015,-85.92187525 c -4.0782,0 -7.0078,3.058594 -7.0078,7.007813 0,3.808593 2.8007,6.867187 6.75,6.867187 4.4531,0 7.2539,-3.058594 7.125,-6.867187 0,-3.949219 -2.6719,-7.007813 -6.8672,-7.007813 z m 24.1816,85.92187525 h 11.2031 V -90.374369 h -11.2031 z m 30.041,0 h 11.2031 V -90.374369 h -11.2031 z m 21.8936,-61.60546925 22.7812,56.7656255 c 0.5157,1.40625 0.7617,2.296875 0.7617,2.9296875 0,0.6328125 -0.375,1.5234375 -0.8906,2.671875 -2.5429,5.7304687 -6.3633,10.054687 -9.4219,12.480469 -3.3046,2.800781 -6.996,4.582031 -9.7968,5.472656 l 2.8008,9.421875 c 2.8007,-0.515625 8.2734,-2.425781 13.746,-7.265625 7.6407,-6.609375 13.1133,-17.4375 21.129,-38.566406 l 16.8046,-43.910157 h -11.8359 l -12.2227,36.152344 c -1.5234,4.453125 -2.8007,9.164063 -3.9492,12.855469 h -0.2461 c -1.0195,-3.691406 -2.5547,-8.53125 -3.9492,-12.609375 l -13.4883,-36.398438 z m 153.123,50.027344 c -4.4531,2.1562502 -11.332,3.5625002 -18.0703,3.5625002 -20.8828,0 -32.9765,-13.5000002 -32.9765,-34.5000002 0,-22.523437 13.371,-35.390625 33.4804,-35.390625 7.125,0 13.1133,1.535156 17.3086,3.574219 l 2.6719,-9.046875 c -2.918,-1.523438 -9.668,-3.808594 -20.3672,-3.808594 -26.6016,0 -44.8008,18.199219 -44.8008,45.058594 0,28.125 18.1992,43.40625 42.3867,43.40625 10.4414,0 18.586,-2.0390625 22.6641,-4.078125 z M 1429.6543,6.3125e-4 V -61.604838 h -11.2031 V 6.3125e-4 Z m -5.6016,-85.92187525 c -4.0781,0 -7.0078,3.058594 -7.0078,7.007813 0,3.808593 2.8008,6.867187 6.75,6.867187 4.4531,0 7.2539,-3.058594 7.125,-6.867187 0,-3.949219 -2.6719,-7.007813 -6.8672,-7.007813 z m 24.1846,85.92187525 h 11.0742 V -32.835306 c 0,-1.910157 0.2578,-3.691407 0.5039,-5.226563 1.5352,-8.402344 7.1367,-14.378906 15.0235,-14.378906 1.5234,0 2.6718,0.128906 3.8203,0.375 v -10.558594 c -1.0196,-0.257812 -1.9102,-0.386719 -3.1875,-0.386719 -7.5,0 -14.25,5.226563 -17.0508,13.5 h -0.5156 l -0.375,-12.09375 h -9.8086 c 0.3867,5.730469 0.5156,11.964844 0.5156,19.21875 z M 1530.585,-10.686869 c -3.1758,1.3945315 -7.3829,3.0468752 -13.7461,3.0468752 -12.211,0 -21.3868,-8.7773442 -21.3868,-23.0390622 0,-12.855469 7.6407,-23.285157 21.7735,-23.285157 6.1054,0 10.3125,1.394532 12.9844,2.917969 l 2.5429,-8.648437 c -3.0586,-1.535157 -8.9062,-3.1875 -15.5273,-3.1875 -20.1094,0 -33.0938,13.746093 -33.0938,32.71875 0,18.832031 12.0938,31.441406 30.668,31.441406 8.2852,0 14.7656,-2.0390625 17.6953,-3.5742188 z m 66.5742,-50.917969 h -11.2032 v 37.804688 c 0,2.039062 -0.375,4.066406 -1.0195,5.730469 -2.039,4.957031 -7.2539,10.1835935 -14.7656,10.1835935 -10.1836,0 -13.7461,-7.8984375 -13.7461,-19.6054685 v -34.113282 h -11.2031 V -25.5814 c 0,21.6328125 11.5898,26.9765625 21.2578,26.9765625 10.9453,0 17.4375,-6.4804688 20.3672,-11.4492185 h 0.2578 l 0.6328,10.05468725 h 9.9258 c -0.375,-4.83984375 -0.5039,-10.44140625 -0.5039,-16.80468725 z m 14.2588,58.6757817 c 4.3242,2.5429688 10.5586,4.2070313 17.3086,4.2070313 14.6367,0 23.039,-7.640625 23.039,-18.457031 0,-9.164063 -5.4726,-14.519532 -16.1719,-18.585938 -8.0156,-3.058594 -11.707,-5.34375 -11.707,-10.441406 0,-4.582031 3.6914,-8.402344 10.3125,-8.402344 5.7305,0 10.1836,2.039063 12.5977,3.5625 l 2.8007,-8.144531 c -3.4335,-2.039063 -8.9062,-3.820313 -15.1406,-3.820313 -13.2422,0 -21.2578,8.144532 -21.2578,18.082032 0,7.382812 5.2149,13.488281 16.2891,17.4375 8.2734,3.046875 11.4609,5.976562 11.4609,11.332031 0,5.085937 -3.8203,9.1640625 -11.9648,9.1640625 -5.6016,0 -11.461,-2.296875 -14.7657,-4.4648435 z m 82.0986,2.92968755 h 47.7305 V -9.2923375 h -36.6563 V -85.792338 h -11.0742 z m 84.0088,-63.01171925 c -17.0625,0 -30.5508,12.09375 -30.5508,32.71875 0,19.476563 12.8555,31.6875005 29.5313,31.6875005 14.8945,0 30.6679,-9.9257813 30.6679,-32.7070315 0,-18.84375 -11.9648,-31.699219 -29.6484,-31.699219 z m -0.2578,8.402344 c 13.2422,0 18.457,13.242188 18.457,23.683594 0,13.863281 -8.0156,23.9296875 -18.7148,23.9296875 -10.9454,0 -18.7149,-10.1835935 -18.7149,-23.6835935 0,-11.707032 5.7305,-23.929688 18.9727,-23.929688 z m 44.0361,54.60937525 h 11.2031 V -37.042338 c 0,-1.910156 0.2578,-3.820312 0.7617,-5.214843 1.9102,-6.234375 7.6407,-11.460938 15.0235,-11.460938 10.5586,0 14.25,8.273438 14.25,18.210938 V 6.3125e-4 h 11.2031 V -36.784525 c 0,-21.128906 -13.2422,-26.226563 -21.7617,-26.226563 -10.1836,0 -17.3203,5.730469 -20.3672,11.589844 h -0.2578 l -0.6328,-10.183594 h -9.9375 c 0.3867,5.085938 0.5156,10.3125 0.5156,16.675782 z M 1933.9473,-90.374369 v 36.785156 h -0.2461 c -2.8008,-4.96875 -9.1641,-9.421875 -18.586,-9.421875 -15.0234,0 -27.75,12.609375 -27.6211,33.09375 0,18.714844 11.4493,31.3125005 26.3438,31.3125005 10.0547,0 17.5664,-5.2148438 21,-12.0820315 h 0.2578 l 0.5156,10.68750025 h 10.0547 c -0.3867,-4.19531255 -0.5156,-10.44140625 -0.5156,-15.91406225 v -74.460938 z m 0,64.535156 c 0,1.78125 -0.1172,3.304688 -0.5039,4.839844 -2.0391,8.402344 -8.9063,13.3593752 -16.418,13.3593752 -12.0938,0 -18.211,-10.3125002 -18.211,-22.7812502 0,-13.617187 6.879,-23.800781 18.4571,-23.800781 8.4023,0 14.5195,5.847656 16.1719,12.984375 0.3867,1.394531 0.5039,3.304687 0.5039,4.710937 z m 55.8867,-37.171875 c -17.0625,0 -30.5508,12.09375 -30.5508,32.71875 0,19.476563 12.8555,31.6875005 29.5312,31.6875005 14.8946,0 30.668,-9.9257813 30.668,-32.7070315 0,-18.84375 -11.9648,-31.699219 -29.6484,-31.699219 z m -0.2578,8.402344 c 13.2422,0 18.457,13.242188 18.457,23.683594 0,13.863281 -8.0156,23.9296875 -18.7148,23.9296875 -10.9454,0 -18.7149,-10.1835935 -18.7149,-23.6835935 0,-11.707032 5.7305,-23.929688 18.9727,-23.929688 z m 44.039,54.60937525 h 11.2032 V -37.042338 c 0,-1.910156 0.2578,-3.820312 0.7617,-5.214843 1.9101,-6.234375 7.6406,-11.460938 15.0234,-11.460938 10.5586,0 14.25,8.273438 14.25,18.210938 V 6.3125e-4 h 11.2031 V -36.784525 c 0,-21.128906 -13.2422,-26.226563 -21.7617,-26.226563 -10.1836,0 -17.3203,5.730469 -20.3672,11.589844 h -0.2578 l -0.6328,-10.183594 h -9.9375 c 0.3867,5.085938 0.5156,10.3125 0.5156,16.675782 z m 119.0127,0 12.2227,-44.68359425 c 3.1758,-11.074218 5.0859,-19.464843 6.6094,-27.996093 h 0.2578 c 1.1484,8.648437 2.9297,17.050781 5.6015,27.996093 l 10.8164,44.68359425 h 11.5899 L 2224.0303,-85.792338 H 2212.71 l -11.3321,43.277344 c -2.6719,10.699219 -5.0976,20.238281 -6.8789,29.660156 h -0.2461 c -1.2773,-9.035156 -3.5625,-19.21875 -5.9883,-29.402343 l -10.4414,-43.535157 h -11.5781 l -11.4609,43.277344 c -2.918,11.074219 -5.6016,21.257813 -6.9961,29.789063 h -0.2578 c -1.5235,-8.273438 -3.8203,-18.972657 -6.3633,-29.660157 l -10.1836,-43.40625 h -11.707 l 21.7617,85.79296925 z m 79.5528,1.39453125 c 4.7109,0 7.6289,-3.4335938 7.6289,-8.015625 0,-4.7109375 -3.0469,-8.0156255 -7.5,-8.0156255 -4.4649,0 -7.6407,3.304688 -7.6407,8.0156255 0,4.5820312 3.0586,8.015625 7.5118,8.015625 z m 42.249,-1.39453125 h 10.8281 V -82.733744 h -9.5508 l -18.0703,9.667969 2.1563,8.53125 14.3906,-7.769531 h 0.2461 z m 0,0" style="fill:#009944;fill-opacity:1;fill-rule:nonzero;stroke:none" aria-label="Reed House 82 Piccadilly Circus London W.1" transform="matrix(1.3333333,0,0,1.3333333,74.950533,4414.6085)" />
      <path id="path80" d="M 0,0 H 11.074 V 37.167 H 21.511 C 31.566,36.785 36.149,32.33 38.694,20.493 41.113,9.801 43.022,2.418 44.422,0 h 11.456 c -1.782,3.31 -3.819,11.583 -6.619,23.548 -2.036,8.909 -5.982,15.019 -12.601,17.31 v 0.382 c 9.037,3.055 16.165,10.565 16.165,21.893 0,6.619 -2.418,12.473 -6.746,16.292 -5.346,4.837 -12.983,7.001 -24.82,7.001 C 13.62,86.426 5.601,85.789 0,84.644 Z m 11.074,76.88 c 1.782,0.509 5.6,1.017 10.947,1.017 C 33.73,77.771 41.75,72.934 41.75,61.86 41.75,52.06 34.24,45.567 22.402,45.567 H 11.074 Z" style="fill:none;stroke:#009944;stroke-width:3;stroke-linecap:butt;stroke-linejoin:miter;stroke-miterlimit:10;stroke-dasharray:none;stroke-opacity:1" transform="matrix(1.3333333,0,0,-1.3333333,87.848267,4414.6085)" />
      <path id="path81" d="m 0,0 c 0.127,1.146 0.382,2.927 0.382,5.218 0,11.329 -5.346,29.021 -25.457,29.021 -17.947,0 -28.893,-14.637 -28.893,-33.221 0,-18.583 11.328,-31.057 30.293,-31.057 9.801,0 16.547,2.036 20.493,3.818 l -1.909,8.019 c -4.201,-1.782 -9.037,-3.182 -17.056,-3.182 -11.202,0 -20.875,6.237 -21.129,21.384 z m -43.149,8.019 c 0.891,7.764 5.855,18.201 17.183,18.201 12.601,0 15.656,-11.074 15.528,-18.201 z" style="fill:none;stroke:#009944;stroke-width:3;stroke-linecap:butt;stroke-linejoin:miter;stroke-miterlimit:10;stroke-dasharray:none;stroke-opacity:1" transform="matrix(1.3333333,0,0,-1.3333333,245.33987,4376.2531)" />
      <path id="path82" d="m 0,0 c 0.127,1.146 0.382,2.927 0.382,5.218 0,11.329 -5.346,29.021 -25.457,29.021 -17.947,0 -28.893,-14.637 -28.893,-33.221 0,-18.583 11.328,-31.057 30.293,-31.057 9.801,0 16.547,2.036 20.493,3.818 l -1.909,8.019 c -4.201,-1.782 -9.037,-3.182 -17.056,-3.182 -11.202,0 -20.875,6.237 -21.129,21.384 z m -43.149,8.019 c 0.891,7.764 5.855,18.201 17.183,18.201 12.601,0 15.656,-11.074 15.528,-18.201 z" style="fill:none;stroke:#009944;stroke-width:3;stroke-linecap:butt;stroke-linejoin:miter;stroke-miterlimit:10;stroke-dasharray:none;stroke-opacity:1" transform="matrix(1.3333333,0,0,-1.3333333,330.36387,4376.2531)" />
      <path id="path83" d="m 0,0 v -36.784 h -0.254 c -2.801,4.964 -9.165,9.419 -18.584,9.419 -15.019,0 -27.748,-12.602 -27.62,-33.094 0,-18.711 11.455,-31.312 26.347,-31.312 10.055,0 17.565,5.218 21.002,12.091 H 1.146 L 1.655,-90.371 H 11.71 c -0.382,4.2 -0.509,10.437 -0.509,15.91 V 0 Z m 0,-64.532 c 0,-1.782 -0.127,-3.31 -0.509,-4.837 -2.037,-8.401 -8.91,-13.365 -16.42,-13.365 -12.092,0 -18.201,10.31 -18.201,22.784 0,13.619 6.873,23.802 18.456,23.802 8.401,0 14.51,-5.855 16.165,-12.983 0.382,-1.4 0.509,-3.309 0.509,-4.71 z" style="fill:none;stroke:#009944;stroke-width:3;stroke-linecap:butt;stroke-linejoin:miter;stroke-miterlimit:10;stroke-dasharray:none;stroke-opacity:1" transform="matrix(1.3333333,0,0,-1.3333333,405.37493,4294.1137)" />
      <path id="path84" d="m 0,0 v -85.789 h 11.074 v 40.222 H 52.568 V -85.789 H 63.77 V 0 H 52.568 V -35.894 H 11.074 l 0,35.894 z" style="fill:none;stroke:#009944;stroke-width:3;stroke-linecap:butt;stroke-linejoin:miter;stroke-miterlimit:10;stroke-dasharray:none;stroke-opacity:1" transform="matrix(1.3333333,0,0,-1.3333333,481.57293,4300.2231)" />
      <path id="path85" d="m 0,0 c -17.056,0 -30.548,-12.093 -30.548,-32.712 0,-19.475 12.856,-31.694 29.53,-31.694 14.892,0 30.675,9.928 30.675,32.712 C 29.657,-12.856 17.692,0 0,0 Z m -0.254,-8.401 c 13.237,0 18.456,-13.238 18.456,-23.675 0,-13.874 -8.019,-23.929 -18.711,-23.929 -10.947,0 -18.711,10.183 -18.711,23.675 0,11.71 5.728,23.929 18.966,23.929 z" style="fill:none;stroke:#009944;stroke-width:3;stroke-linecap:butt;stroke-linejoin:miter;stroke-miterlimit:10;stroke-dasharray:none;stroke-opacity:1" transform="matrix(1.3333333,0,0,-1.3333333,626.50587,4330.6007)" />
      <path id="path86" d="m 0,0 h -11.201 v -37.804 c 0,-2.036 -0.382,-4.073 -1.018,-5.727 -2.037,-4.964 -7.256,-10.183 -14.765,-10.183 -10.183,0 -13.747,7.892 -13.747,19.602 V 0 h -11.201 v -36.021 c 0,-21.639 11.583,-26.985 21.257,-26.985 10.946,0 17.437,6.492 20.365,11.456 h 0.254 l 0.637,-10.055 H 0.509 C 0.127,-56.769 0,-51.168 0,-44.804 Z" style="fill:none;stroke:#009944;stroke-width:3;stroke-linecap:butt;stroke-linejoin:miter;stroke-miterlimit:10;stroke-dasharray:none;stroke-opacity:1" transform="matrix(1.3333333,0,0,-1.3333333,753.61973,4332.4679)" />
      <path id="path87" d="m 0,0 c 4.328,-2.546 10.565,-4.2 17.311,-4.2 14.637,0 23.038,7.637 23.038,18.456 0,9.164 -5.473,14.51 -16.165,18.583 -8.019,3.055 -11.71,5.346 -11.71,10.437 0,4.582 3.691,8.401 10.31,8.401 5.728,0 10.183,-2.036 12.601,-3.564 l 2.801,8.146 C 34.749,58.296 29.275,60.078 23.039,60.078 9.801,60.078 1.782,51.932 1.782,42.004 1.782,34.621 7.001,28.512 18.075,24.565 26.348,21.511 29.53,18.583 29.53,13.237 29.53,8.146 25.711,4.073 17.565,4.073 11.965,4.073 6.11,6.364 2.8,8.527 Z" style="fill:none;stroke:#009944;stroke-width:3;stroke-linecap:butt;stroke-linejoin:miter;stroke-miterlimit:10;stroke-dasharray:none;stroke-opacity:1" transform="matrix(1.3333333,0,0,-1.3333333,772.6256,4410.7049)" />
      <path id="path88" d="m 0,0 c 0.127,1.146 0.382,2.927 0.382,5.218 0,11.329 -5.346,29.021 -25.457,29.021 -17.947,0 -28.893,-14.637 -28.893,-33.221 0,-18.583 11.328,-31.057 30.293,-31.057 9.801,0 16.547,2.036 20.493,3.818 l -1.909,8.019 c -4.201,-1.782 -9.037,-3.182 -17.056,-3.182 -11.202,0 -20.875,6.237 -21.129,21.384 z m -43.149,8.019 c 0.891,7.764 5.855,18.201 17.183,18.201 12.601,0 15.656,-11.074 15.528,-18.201 z" style="fill:none;stroke:#009944;stroke-width:3;stroke-linecap:butt;stroke-linejoin:miter;stroke-miterlimit:10;stroke-dasharray:none;stroke-opacity:1" transform="matrix(1.3333333,0,0,-1.3333333,911.61973,4376.2531)" />
      <path id="path89" d="m 0,0 c 15.783,0 28.129,9.674 28.129,24.057 0,10.055 -6.363,17.31 -16.673,21.383 v 0.382 c 10.182,4.837 13.619,12.347 13.619,19.348 0,10.309 -8.019,20.365 -24.057,20.365 -14.51,0 -25.584,-8.91 -25.584,-22.02 0,-7.128 3.946,-14.256 13.11,-18.583 l 0.127,-0.382 C -21.511,40.222 -27.748,32.84 -27.748,22.402 -27.748,10.311 -17.311,0 0,0 Z m 0.254,8.146 c -10.564,0 -16.928,7.383 -16.546,15.784 0,7.891 5.218,14.256 14.892,17.055 C 9.801,37.804 16.801,32.967 16.801,22.911 16.801,14.384 10.31,8.146 0.254,8.146 Z m 0.128,69.371 c 10.055,0 14.001,-6.874 14.001,-13.493 0,-7.509 -5.473,-12.601 -12.601,-15.019 -9.547,2.545 -15.783,7 -15.783,15.273 0,7.128 5.091,13.239 14.383,13.239 z" style="fill:none;stroke:#009944;stroke-width:3;stroke-linecap:butt;stroke-linejoin:miter;stroke-miterlimit:10;stroke-dasharray:none;stroke-opacity:1" transform="matrix(1.3333333,0,0,-1.3333333,997.49093,4416.4757)" />
      <path id="path90" d="m 0,0 v 9.292 h -37.167 v 0.254 l 6.619,6.11 c 17.438,16.801 28.511,29.148 28.511,44.422 0,11.837 -7.509,24.057 -25.329,24.057 -9.547,0 -17.693,-3.565 -23.421,-8.402 l 3.564,-7.891 c 3.819,3.182 10.056,7.001 17.566,7.001 12.346,0 16.419,-7.765 16.419,-16.165 -0.127,-12.474 -9.673,-23.166 -30.803,-43.277 L -52.823,6.873 V 0 Z" style="fill:none;stroke:#009944;stroke-width:3;stroke-linecap:butt;stroke-linejoin:miter;stroke-miterlimit:10;stroke-dasharray:none;stroke-opacity:1" transform="matrix(1.3333333,0,0,-1.3333333,1119.3417,4414.6085)" />
      <path id="path91" d="m 0,0 h 11.074 v 34.366 c 2.546,-0.636 5.6,-0.763 8.91,-0.763 10.819,0 20.365,3.182 26.22,9.418 4.328,4.456 6.619,10.566 6.619,18.33 0,7.637 -2.8,13.874 -7.51,17.947 -5.091,4.582 -13.11,7.128 -24.056,7.128 -8.91,0 -15.911,-0.764 -21.257,-1.655 z m 11.074,76.752 c 1.909,0.51 5.6,0.892 10.437,0.892 12.219,0 20.239,-5.474 20.239,-16.802 0,-11.838 -8.147,-18.329 -21.512,-18.329 -3.691,0 -6.746,0.255 -9.164,0.89 z" style="fill:none;stroke:#009944;stroke-width:3;stroke-linecap:butt;stroke-linejoin:miter;stroke-miterlimit:10;stroke-dasharray:none;stroke-opacity:1" transform="matrix(1.3333333,0,0,-1.3333333,1177.2083,4414.6085)" />
      <path id="path92" d="M 0,0 V 61.605 H -11.201 V 0 Z m -5.601,85.917 c -4.072,0 -7,-3.056 -7,-7.001 0,-3.818 2.8,-6.873 6.746,-6.873 4.455,0 7.255,3.055 7.128,6.873 0,3.945 -2.673,7.001 -6.874,7.001 z" style="fill:none;stroke:#009944;stroke-width:3;stroke-linecap:butt;stroke-linejoin:miter;stroke-miterlimit:10;stroke-dasharray:none;stroke-opacity:1" transform="matrix(1.3333333,0,0,-1.3333333,1279.2064,4414.6085)" />
      <path id="path93" d="m 0,0 c -3.182,-1.399 -7.382,-3.055 -13.747,-3.055 -12.219,0 -21.383,8.784 -21.383,23.039 0,12.856 7.637,23.293 21.765,23.293 6.11,0 10.31,-1.4 12.983,-2.927 l 2.546,8.655 c -3.055,1.527 -8.91,3.182 -15.529,3.182 -20.111,0 -33.093,-13.747 -33.093,-32.712 0,-18.838 12.091,-31.439 30.675,-31.439 8.273,0 14.765,2.036 17.692,3.564 z" style="fill:none;stroke:#009944;stroke-width:3;stroke-linecap:butt;stroke-linejoin:miter;stroke-miterlimit:10;stroke-dasharray:none;stroke-opacity:1" transform="matrix(1.3333333,0,0,-1.3333333,1359.9883,4400.3533)" />
      <path id="path94" d="m 0,0 c -3.182,-1.399 -7.382,-3.055 -13.747,-3.055 -12.219,0 -21.383,8.784 -21.383,23.039 0,12.856 7.637,23.293 21.765,23.293 6.11,0 10.31,-1.4 12.983,-2.927 l 2.546,8.655 c -3.055,1.527 -8.91,3.182 -15.529,3.182 -20.111,0 -33.093,-13.747 -33.093,-32.712 0,-18.838 12.091,-31.439 30.675,-31.439 8.273,0 14.765,2.036 17.692,3.564 z" style="fill:none;stroke:#009944;stroke-width:3;stroke-linecap:butt;stroke-linejoin:miter;stroke-miterlimit:10;stroke-dasharray:none;stroke-opacity:1" transform="matrix(1.3333333,0,0,-1.3333333,1435.0013,4400.3533)" />
      <path id="path95" d="m 0,0 c -0.764,4.2 -1.018,9.419 -1.018,14.765 v 23.039 c 0,12.345 -4.583,25.202 -23.42,25.202 -7.765,0 -15.147,-2.164 -20.239,-5.474 l 2.546,-7.383 c 4.328,2.801 10.31,4.583 16.038,4.583 12.601,0 14.001,-9.165 14.001,-14.255 v -1.274 c -23.802,0.128 -37.039,-8.018 -37.039,-22.911 0,-8.909 6.364,-17.692 18.838,-17.692 8.782,0 15.401,4.328 18.837,9.165 h 0.382 L -10.183,0 Z m -11.837,20.747 c 0,-1.145 -0.255,-2.418 -0.637,-3.563 -1.782,-5.219 -6.873,-10.311 -14.892,-10.311 -5.728,0 -10.565,3.437 -10.565,10.692 0,11.965 13.874,14.128 26.094,13.874 z" style="fill:none;stroke:#009944;stroke-width:3;stroke-linecap:butt;stroke-linejoin:miter;stroke-miterlimit:10;stroke-dasharray:none;stroke-opacity:1" transform="matrix(1.3333333,0,0,-1.3333333,1514.086,4414.6085)" />
      <path id="path96" d="m 0,0 v -36.784 h -0.254 c -2.801,4.964 -9.165,9.419 -18.584,9.419 -15.019,0 -27.748,-12.602 -27.62,-33.094 0,-18.711 11.455,-31.312 26.347,-31.312 10.055,0 17.565,5.218 21.002,12.091 H 1.146 L 1.655,-90.371 H 11.71 c -0.382,4.2 -0.509,10.437 -0.509,15.91 V 0 Z m 0,-64.532 c 0,-1.782 -0.127,-3.31 -0.509,-4.837 -2.037,-8.401 -8.91,-13.365 -16.42,-13.365 -12.092,0 -18.201,10.31 -18.201,22.784 0,13.619 6.873,23.802 18.456,23.802 8.401,0 14.51,-5.855 16.165,-12.983 0.382,-1.4 0.509,-3.309 0.509,-4.71 z" style="fill:none;stroke:#009944;stroke-width:3;stroke-linecap:butt;stroke-linejoin:miter;stroke-miterlimit:10;stroke-dasharray:none;stroke-opacity:1" transform="matrix(1.3333333,0,0,-1.3333333,1592.832,4294.1137)" />
      <path id="path97" d="M 0,0 V 61.605 H -11.201 V 0 Z m -5.601,85.917 c -4.072,0 -7,-3.056 -7,-7.001 0,-3.818 2.8,-6.873 6.746,-6.873 4.455,0 7.255,3.055 7.128,6.873 0,3.945 -2.673,7.001 -6.874,7.001 z" style="fill:none;stroke:#009944;stroke-width:3;stroke-linecap:butt;stroke-linejoin:miter;stroke-miterlimit:10;stroke-dasharray:none;stroke-opacity:1" transform="matrix(1.3333333,0,0,-1.3333333,1647.4779,4414.6085)" />
      <path id="path98" d="M 0,0 H 11.201 V 90.371 H 0 Z" style="fill:none;stroke:#009944;stroke-width:3;stroke-linecap:butt;stroke-linejoin:miter;stroke-miterlimit:10;stroke-dasharray:none;stroke-opacity:1" transform="matrix(1.3333333,0,0,-1.3333333,1672.2545,4414.6085)" />
      <path id="path99" d="M 0,0 H 11.201 V 90.371 H 0 Z" style="fill:none;stroke:#009944;stroke-width:3;stroke-linecap:butt;stroke-linejoin:miter;stroke-miterlimit:10;stroke-dasharray:none;stroke-opacity:1" transform="matrix(1.3333333,0,0,-1.3333333,1712.3053,4414.6085)" />
      <path id="path100" d="m 0,0 22.784,-56.769 c 0.509,-1.4 0.763,-2.291 0.763,-2.927 0,-0.637 -0.381,-1.528 -0.89,-2.673 -2.546,-5.728 -6.365,-10.056 -9.419,-12.474 -3.31,-2.801 -7.001,-4.582 -9.801,-5.473 l 2.8,-9.419 c 2.8,0.509 8.273,2.419 13.746,7.255 7.638,6.619 13.111,17.438 21.13,38.567 L 57.914,0 H 46.077 l -12.22,-36.148 c -1.527,-4.456 -2.8,-9.165 -3.945,-12.856 h -0.255 c -1.018,3.691 -2.546,8.527 -3.946,12.601 L 12.219,0 Z" style="fill:none;stroke:#009944;stroke-width:3;stroke-linecap:butt;stroke-linejoin:miter;stroke-miterlimit:10;stroke-dasharray:none;stroke-opacity:1" transform="matrix(1.3333333,0,0,-1.3333333,1741.4941,4332.4679)" />
      <path id="path101" d="m 0,0 c -4.455,-2.164 -11.328,-3.564 -18.074,-3.564 -20.875,0 -32.967,13.492 -32.967,34.494 0,22.529 13.365,35.384 33.476,35.384 7.128,0 13.11,-1.527 17.311,-3.563 l 2.672,9.037 c -2.927,1.527 -9.673,3.818 -20.365,3.818 -26.602,0 -44.804,-18.201 -44.804,-45.058 0,-28.13 18.202,-43.403 42.386,-43.403 10.437,0 18.583,2.036 22.656,4.072 z" style="fill:none;stroke:#009944;stroke-width:3;stroke-linecap:butt;stroke-linejoin:miter;stroke-miterlimit:10;stroke-dasharray:none;stroke-opacity:1" transform="matrix(1.3333333,0,0,-1.3333333,1945.6549,4399.1645)" />
      <path id="path102" d="M 0,0 V 61.605 H -11.201 V 0 Z m -5.601,85.917 c -4.072,0 -7,-3.056 -7,-7.001 0,-3.818 2.8,-6.873 6.746,-6.873 4.455,0 7.255,3.055 7.128,6.873 0,3.945 -2.673,7.001 -6.874,7.001 z" style="fill:none;stroke:#009944;stroke-width:3;stroke-linecap:butt;stroke-linejoin:miter;stroke-miterlimit:10;stroke-dasharray:none;stroke-opacity:1" transform="matrix(1.3333333,0,0,-1.3333333,1981.1237,4414.6085)" />
      <path id="path103" d="m 0,0 h 11.074 v 32.839 c 0,1.909 0.255,3.691 0.509,5.219 1.527,8.401 7.128,14.383 15.02,14.383 1.527,0 2.672,-0.128 3.818,-0.381 v 10.564 c -1.018,0.254 -1.909,0.382 -3.182,0.382 -7.51,0 -14.256,-5.219 -17.056,-13.492 H 9.674 L 9.292,61.605 H -0.509 C -0.127,55.878 0,49.641 0,42.386 Z" style="fill:none;stroke:#009944;stroke-width:3;stroke-linecap:butt;stroke-linejoin:miter;stroke-miterlimit:10;stroke-dasharray:none;stroke-opacity:1" transform="matrix(1.3333333,0,0,-1.3333333,2005.9004,4414.6085)" />
      <path id="path104" d="m 0,0 c -3.182,-1.399 -7.382,-3.055 -13.747,-3.055 -12.219,0 -21.383,8.784 -21.383,23.039 0,12.856 7.637,23.293 21.765,23.293 6.11,0 10.31,-1.4 12.983,-2.927 l 2.546,8.655 c -3.055,1.527 -8.91,3.182 -15.529,3.182 -20.111,0 -33.093,-13.747 -33.093,-32.712 0,-18.838 12.091,-31.439 30.675,-31.439 8.273,0 14.765,2.036 17.692,3.564 z" style="fill:none;stroke:#009944;stroke-width:3;stroke-linecap:butt;stroke-linejoin:miter;stroke-miterlimit:10;stroke-dasharray:none;stroke-opacity:1" transform="matrix(1.3333333,0,0,-1.3333333,2115.7044,4400.3533)" />
      <path id="path105" d="m 0,0 h -11.201 v -37.804 c 0,-2.036 -0.382,-4.073 -1.018,-5.727 -2.037,-4.964 -7.256,-10.183 -14.765,-10.183 -10.183,0 -13.747,7.892 -13.747,19.602 V 0 h -11.201 v -36.021 c 0,-21.639 11.583,-26.985 21.257,-26.985 10.946,0 17.437,6.492 20.365,11.456 h 0.254 l 0.637,-10.055 H 0.509 C 0.127,-56.769 0,-51.168 0,-44.804 Z" style="fill:none;stroke:#009944;stroke-width:3;stroke-linecap:butt;stroke-linejoin:miter;stroke-miterlimit:10;stroke-dasharray:none;stroke-opacity:1" transform="matrix(1.3333333,0,0,-1.3333333,2204.4641,4332.4679)" />
      <path id="path106" d="m 0,0 c 4.328,-2.546 10.565,-4.2 17.311,-4.2 14.637,0 23.038,7.637 23.038,18.456 0,9.164 -5.473,14.51 -16.165,18.583 -8.019,3.055 -11.71,5.346 -11.71,10.437 0,4.582 3.691,8.401 10.31,8.401 5.728,0 10.183,-2.036 12.601,-3.564 l 2.801,8.146 C 34.749,58.296 29.275,60.078 23.039,60.078 9.801,60.078 1.782,51.932 1.782,42.004 1.782,34.621 7.001,28.512 18.075,24.565 26.348,21.511 29.53,18.583 29.53,13.237 29.53,8.146 25.711,4.073 17.565,4.073 11.965,4.073 6.11,6.364 2.8,8.527 Z" style="fill:none;stroke:#009944;stroke-width:3;stroke-linecap:butt;stroke-linejoin:miter;stroke-miterlimit:10;stroke-dasharray:none;stroke-opacity:1" transform="matrix(1.3333333,0,0,-1.3333333,2223.47,4410.7049)" />
      <path id="path107" d="M 0,0 H 47.731 V 9.292 H 11.074 V 85.789 H 0 Z" style="fill:none;stroke:#009944;stroke-width:3;stroke-linecap:butt;stroke-linejoin:miter;stroke-miterlimit:10;stroke-dasharray:none;stroke-opacity:1" transform="matrix(1.3333333,0,0,-1.3333333,2332.9323,4414.6085)" />
      <path id="path108" d="m 0,0 c -17.056,0 -30.548,-12.093 -30.548,-32.712 0,-19.475 12.856,-31.694 29.53,-31.694 14.892,0 30.675,9.928 30.675,32.712 C 29.657,-12.856 17.692,0 0,0 Z m -0.254,-8.401 c 13.237,0 18.456,-13.238 18.456,-23.675 0,-13.874 -8.019,-23.929 -18.711,-23.929 -10.947,0 -18.711,10.183 -18.711,23.675 0,11.71 5.728,23.929 18.966,23.929 z" style="fill:none;stroke:#009944;stroke-width:3;stroke-linecap:butt;stroke-linejoin:miter;stroke-miterlimit:10;stroke-dasharray:none;stroke-opacity:1" transform="matrix(1.3333333,0,0,-1.3333333,2444.9408,4330.6007)" />
      <path id="path109" d="m 0,0 h 11.201 v 37.04 c 0,1.909 0.255,3.818 0.764,5.218 1.909,6.237 7.637,11.456 15.019,11.456 10.565,0 14.256,-8.274 14.256,-18.202 V 0 h 11.201 v 36.785 c 0,21.129 -13.237,26.221 -21.765,26.221 -10.183,0 -17.311,-5.729 -20.366,-11.583 H 10.056 L 9.419,61.605 H -0.509 C -0.127,56.514 0,51.295 0,44.932 Z" style="fill:none;stroke:#009944;stroke-width:3;stroke-linecap:butt;stroke-linejoin:miter;stroke-miterlimit:10;stroke-dasharray:none;stroke-opacity:1" transform="matrix(1.3333333,0,0,-1.3333333,2503.3203,4414.6085)" />
      <path id="path110" d="m 0,0 v -36.784 h -0.254 c -2.801,4.964 -9.165,9.419 -18.584,9.419 -15.019,0 -27.748,-12.602 -27.62,-33.094 0,-18.711 11.455,-31.312 26.347,-31.312 10.055,0 17.565,5.218 21.002,12.091 H 1.146 L 1.655,-90.371 H 11.71 c -0.382,4.2 -0.509,10.437 -0.509,15.91 V 0 Z m 0,-64.532 c 0,-1.782 -0.127,-3.31 -0.509,-4.837 -2.037,-8.401 -8.91,-13.365 -16.42,-13.365 -12.092,0 -18.201,10.31 -18.201,22.784 0,13.619 6.873,23.802 18.456,23.802 8.401,0 14.51,-5.855 16.165,-12.983 0.382,-1.4 0.509,-3.309 0.509,-4.71 z" style="fill:none;stroke:#009944;stroke-width:3;stroke-linecap:butt;stroke-linejoin:miter;stroke-miterlimit:10;stroke-dasharray:none;stroke-opacity:1" transform="matrix(1.3333333,0,0,-1.3333333,2653.5143,4294.1137)" />
      <path id="path111" d="m 0,0 c -17.056,0 -30.548,-12.093 -30.548,-32.712 0,-19.475 12.856,-31.694 29.53,-31.694 14.892,0 30.675,9.928 30.675,32.712 C 29.657,-12.856 17.692,0 0,0 Z m -0.254,-8.401 c 13.237,0 18.456,-13.238 18.456,-23.675 0,-13.874 -8.019,-23.929 -18.711,-23.929 -10.947,0 -18.711,10.183 -18.711,23.675 0,11.71 5.728,23.929 18.966,23.929 z" style="fill:none;stroke:#009944;stroke-width:3;stroke-linecap:butt;stroke-linejoin:miter;stroke-miterlimit:10;stroke-dasharray:none;stroke-opacity:1" transform="matrix(1.3333333,0,0,-1.3333333,2728.0169,4330.6007)" />
      <path id="path112" d="m 0,0 h 11.201 v 37.04 c 0,1.909 0.255,3.818 0.764,5.218 1.909,6.237 7.637,11.456 15.019,11.456 10.565,0 14.256,-8.274 14.256,-18.202 V 0 h 11.201 v 36.785 c 0,21.129 -13.237,26.221 -21.765,26.221 -10.183,0 -17.311,-5.729 -20.366,-11.583 H 10.056 L 9.419,61.605 H -0.509 C -0.127,56.514 0,51.295 0,44.932 Z" style="fill:none;stroke:#009944;stroke-width:3;stroke-linecap:butt;stroke-linejoin:miter;stroke-miterlimit:10;stroke-dasharray:none;stroke-opacity:1" transform="matrix(1.3333333,0,0,-1.3333333,2786.3972,4414.6085)" />
      <path id="path113" d="m 0,0 12.219,44.677 c 3.182,11.073 5.092,19.474 6.619,28.002 h 0.254 C 20.238,64.023 22.02,55.623 24.693,44.677 L 35.512,0 H 47.095 L 71.406,85.789 H 60.078 L 48.75,42.513 C 46.077,31.821 43.658,22.274 41.876,12.855 h -0.254 c -1.273,9.038 -3.564,19.22 -5.983,29.403 L 25.202,85.789 H 13.619 L 2.164,42.513 C -0.764,31.439 -3.437,21.257 -4.837,12.729 h -0.254 c -1.528,8.273 -3.819,18.964 -6.365,29.657 l -10.183,43.403 h -11.71 L -11.583,0 Z" style="fill:none;stroke:#009944;stroke-width:3;stroke-linecap:butt;stroke-linejoin:miter;stroke-miterlimit:10;stroke-dasharray:none;stroke-opacity:1" transform="matrix(1.3333333,0,0,-1.3333333,2945.0761,4414.6085)" />
      <path id="path114" d="m 0,0 c 4.709,0 7.637,3.437 7.637,8.02 0,4.709 -3.054,8.018 -7.51,8.018 -4.455,0 -7.637,-3.309 -7.637,-8.018 C -7.51,3.437 -4.455,0 0,0 Z" style="fill:none;stroke:#009944;stroke-width:3;stroke-linecap:butt;stroke-linejoin:miter;stroke-miterlimit:10;stroke-dasharray:none;stroke-opacity:1" transform="matrix(1.3333333,0,0,-1.3333333,3051.1459,4416.4757)" />
      <path id="path115" d="M 0,0 H 10.819 V 82.734 H 1.273 l -18.075,-9.673 2.164,-8.528 14.383,7.764 H 0 Z" style="fill:none;stroke:#009944;stroke-width:3;stroke-linecap:butt;stroke-linejoin:miter;stroke-miterlimit:10;stroke-dasharray:none;stroke-opacity:1" transform="matrix(1.3333333,0,0,-1.3333333,3107.4876,4414.6085)" />
    </g></svg>