<?xml version='1.0' encoding='utf-8'?>
<svg xmlns="http://www.w3.org/2000/svg" version="1.1" width="495.023" height="675.275" viewBox="1793.810 1111.090 495.023 675.275"><defs id="defs1"><clipPath clipPathUnits="userSpaceOnUse" id="clipPath29">
      <path d="M 0,3370.3901 H 2383.9401 V -2.5000001e-5 H 0 Z" id="path29" />
    </clipPath>
  </defs><g id="object"><path id="path3" d="M 0,0 C -16.381,39.385 -33.714,77.036 -33.139,119.964 -44.377,91.979 -42.269,64.283 -43.296,36.807 -44.846,-4.625 -45.054,-4.617 0,0 m -85.604,47.236 c 0,-15.016 0.234,-30.037 -0.098,-45.045 -0.167,-7.562 4.566,-9.478 10.329,-10.054 7.246,-0.724 6.941,4.986 6.648,9.521 -2.395,36.993 9.64,71.585 17.188,106.959 1.594,7.471 9.015,18.42 -2.28,22.51 -10.717,3.881 -15.932,-7.378 -21.474,-14.959 -15.493,-21.192 -8.768,-45.672 -10.313,-68.932 m 42.27,-151.82 c -19.538,-51.947 -11.858,-105.398 -40.91,-149.978 -6.12,-9.39 -3.076,-25.236 17.26,-23.809 18.751,1.315 37.667,0.28 58.304,0.28 -15.478,57.049 -5.124,117.209 -34.654,173.507 m 43.79,236.62 c 35.606,-17.157 70.559,-9.186 105.01,-9.747 12.86,-0.209 24.897,-0.378 32.498,13.661 3.841,7.095 49.021,9.282 53.704,3.559 4.159,-5.082 1.71,-9.542 -4.43,-9.258 -15.39,0.713 -20.421,-9.56 -24.128,-21.34 -1.507,-4.789 -2.763,-8.833 -8.773,-9.358 C 115.888,96.195 79.791,79.449 40.765,79.452 27.096,79.452 27.826,70.478 29.311,61.484 34.833,28.022 40.678,-5.387 46.358,-38.823 c 0.772,-4.542 3.55,-9.737 -0.323,-13.504 -4.397,-4.275 -8.407,0.739 -12.566,2.173 -18.452,6.361 -24.615,0.217 -25.123,-19.189 -1.733,-66.133 20.975,-129.765 19.161,-195.828 -0.105,-3.834 0.261,-8.543 2.364,-11.407 5.563,-7.575 14.389,-15.607 5.434,-24.105 -6.407,-6.081 -16.791,-2.036 -24.43,2.286 -9.754,5.519 -19.945,3.667 -30.151,3.578 -49.518,-0.433 -99.134,-2.603 -149.258,5.669 12.183,19.003 35.648,15.523 47.46,34.769 20.214,32.936 15.047,68.79 18.922,103.436 2.522,22.555 -0.477,45.856 -2.346,68.713 -0.794,9.706 8.418,26.839 -14.92,24.7 -5.411,-0.497 -2.981,7.572 -2.749,11.958 0.615,11.59 5.647,22.915 1.954,37.231 -9.495,-9.675 -15.904,-19.12 -17.381,-31.004 -0.685,-5.509 -1.548,-9.083 -7.791,-9.097 -6.749,-0.016 -10.226,3.693 -11.011,9.981 -1.093,8.75 -0.413,17.248 3.095,25.608 11.026,26.268 21.152,52.929 32.785,78.919 6.184,13.816 12.462,26.86 11.917,42.754 -0.573,16.727 8.823,26.507 25.881,27.739 21.382,1.544 36.454,7.112 38.574,33.706 1.567,19.656 22.804,28.296 39.799,20.662 16.862,-7.575 21.648,-23.49 12.658,-41.259 -3.15,-6.228 -5.704,-12.758 -7.857,-17.63" style="fill:#251d16;fill-opacity:1;fill-rule:nonzero;stroke:none" transform="matrix(1.3333333,0,0,-1.3333333,2024.52,1375.3351)" />
      <path id="path18" d="m 0,0 c 1.544,23.259 -5.181,47.738 10.312,68.93 5.542,7.581 10.757,18.84 21.474,14.959 11.294,-4.09 3.874,-15.038 2.28,-22.51 C 26.518,26.005 14.483,-8.587 16.877,-45.579 c 0.294,-4.536 0.598,-10.246 -6.648,-9.522 -5.763,0.576 -10.496,2.493 -10.328,10.054 C 0.233,-30.039 -0.001,-15.018 0,0" style="fill:#ffffff;fill-opacity:1;fill-rule:nonzero;stroke:none" transform="matrix(1.3333333,0,0,-1.3333333,1910.3832,1312.3517)" />
      <path id="path19" d="m 0,0 c -45.054,-4.617 -44.846,-4.625 -43.296,36.807 1.027,27.476 -1.081,55.172 10.157,83.157 C -33.714,77.036 -16.381,39.385 0,0" style="fill:#ffffff;fill-opacity:1;fill-rule:nonzero;stroke:none" transform="matrix(1.3333333,0,0,-1.3333333,2024.52,1375.3351)" />
      </g></svg>