<?xml version='1.0' encoding='utf-8'?>
<svg xmlns="http://www.w3.org/2000/svg" version="1.1" width="217.076" height="170.396" viewBox="1104.680 331.847 217.076 170.396"><g id="object"><path id="path19" d="m 0,0 c 11.646,5.373 16.496,23.938 30.333,16.324 11.718,-6.448 6.631,-21.578 6.608,-32.962 -0.023,-11.717 2.368,-23.756 -3.02,-35.25 -2.907,-6.2 -2.262,-10.907 6.023,-14.287 10.142,-4.138 13.47,1.349 15.568,8.424 2.648,8.928 5.314,17.639 2.113,27.805 -4.246,13.483 -5.981,27.785 -8.398,41.804 -1.295,7.512 -4.842,18.041 6.559,19.194 11.855,1.199 9.174,-10.137 9.899,-17.527 0.305,-3.106 0.051,-6.267 0.051,-11.166 12.348,5.37 11.751,19.67 21.256,25.035 3.289,1.856 7.142,5.115 10.374,1.022 1.508,-1.91 1.939,-6.749 0.585,-8.528 -20.413,-26.803 -19.702,-61.294 -33.224,-90.613 -4.261,-9.239 -7.648,-17.09 -19.59,-16.93 -11.434,0.153 -8.886,12.717 -13.39,15.588 -28.628,18.251 3.142,48.319 -15.909,68.158 -9.786,-5.625 -10.09,-17.435 -14.533,-26.735 -3.609,-7.553 -4.442,-19.663 -15.755,-17.56 -11.071,2.059 -4.401,13.165 -5.501,20.212 -0.768,4.916 -0.148,10.049 -0.148,22.255 -8.576,-16.544 -13.797,-26.615 -19.016,-36.687 -1.925,-3.714 -4.513,-6.643 -9.121,-6.149 -4.977,0.535 -6.621,4.828 -6.68,8.558 -0.264,16.599 -0.092,33.213 0.317,49.812 0.14,5.65 3.869,8.547 9.558,7.862 12.44,-1.499 1.038,-14.35 8.415,-18.435 C -9.755,28.655 -9.755,28.655 0,0" style="fill:#e6e5e5;fill-opacity:1;fill-rule:nonzero;stroke:none" transform="matrix(1.3333333,0,0,-1.3333333,1184.0688,379.36733)" />
      </g></svg>