<?xml version='1.0' encoding='utf-8'?>
<svg xmlns="http://www.w3.org/2000/svg" version="1.1" width="2604.840" height="2633.110" viewBox="294.070 937.076 2604.840 2633.110"><defs id="defs1"><clipPath clipPathUnits="userSpaceOnUse" id="clipPath26">
      <path d="M 0,3370.3901 H 2383.9401 V -2.5000001e-5 H 0 Z" id="path26" />
    </clipPath>
  </defs><g id="object"><path id="path3" d="M 0,0 V 29.367 C 9.991,22.538 16.271,18.246 22.552,13.953 16.253,10.056 9.954,6.159 0,0" style="fill:#ffffff;fill-opacity:1;fill-rule:nonzero;stroke:none" transform="matrix(1.3333333,0,0,-1.3333333,845.40147,2180.6803)" />
      <path id="path4" d="m 0,0 c -199.709,0.075 -399.419,0.217 -599.126,-0.418 -6.577,-0.021 -14.594,-6.729 -19.451,-12.437 -27.365,-32.163 -50.624,-68.606 -81.402,-96.946 -144.703,-133.243 -372.262,-130.509 -515.295,3.843 -147.898,138.92 -178.653,361.946 -71.664,534.455 67.493,108.825 165.421,176.192 293.634,187.616 161.518,14.393 285.038,-54.149 371.967,-189.674 7.777,-12.124 15.479,-16.649 29.885,-16.61 192.41,0.514 384.821,0.342 577.232,0.341 H 5.692 c -64.942,371.879 -430.82,785.831 -977.63,777.743 -524.58,-7.76 -959.105,-429.932 -966.876,-967.904 -7.905,-547.31 424.708,-984.222 957.229,-997.478 C -434.678,-791.083 -62.342,-381.238 5.71,-1.12 3.811,-0.731 1.906,-0.001 0,0" style="fill:#ffffff;fill-opacity:1;fill-rule:nonzero;stroke:none" transform="matrix(1.3333333,0,0,-1.3333333,2885.2979,2527.1152)" />
      <path id="path5" d="M 10.194361,-90.462844 V -0.00141071 H 21.877955 V -90.462844 Z M 75.028345,-0.00141071 107.3721,-90.462844 H 94.891627 l -15.304688,44.690159 c -4.019531,11.819387 -7.78125,23.225763 -10.335937,33.696793 H 68.993189 C 66.567408,-22.680543 63.215845,-33.686056 59.32522,-45.906306 L 45.227564,-90.462844 H 32.618189 L 62.13772,-0.00141071 Z M 156.22756,-28.450542 165.89553,-0.00141071 H 178.376 L 147.50881,-90.462844 h -14.09765 l -30.73828,90.46143329 h 12.08203 l 9.39844,-28.44913129 z m -29.66015,-9.134819 8.85937,-26.165426 c 1.7461,-5.502757 3.22266,-11.005513 4.5586,-16.374649 h 0.26953 c 1.34765,5.235515 2.68359,10.60465 4.69922,16.50827 l 8.85937,26.031805 z M 202.6719,-0.00141071 V -38.654329 c 0,-15.038439 -0.26953,-25.910331 -0.94922,-37.316708 l 0.41016,-0.133621 c 4.55859,9.802924 10.60547,20.140333 16.91015,30.198352 l 28.72266,45.90489529 h 11.8125 V -90.462844 h -11.00391 v 37.851192 c 0,14.090944 0.25782,25.096458 1.33594,37.170939 l -0.26953,0.133621 c -4.28906,-9.256293 -9.52734,-18.779827 -16.24219,-29.384478 l -28.99219,-45.771274 h -12.75 v 90.46143329 z m 0,0" style="fill:#231916;fill-opacity:1;fill-rule:nonzero;stroke:none" aria-label="IVAN" transform="matrix(1.3333333,0,0,1.2862871,422.0208,2103.6385)" />
      <path id="path6" d="M 0,0 V -87.27 H 11.677 V 0 Z" style="fill:none;stroke:#231916;stroke-width:7;stroke-linecap:butt;stroke-linejoin:miter;stroke-miterlimit:10;stroke-dasharray:none;stroke-opacity:1" transform="matrix(1.3333333,0,0,-1.3333333,435.62173,1987.2784)" />
      <path id="path7" d="M 0,0 32.347,87.27 H 19.864 L 4.563,44.153 C 0.537,32.759 -3.221,21.753 -5.771,11.653 H -6.04 c -2.416,10.229 -5.771,20.847 -9.663,32.63 L -29.796,87.27 H -42.412 L -12.885,0 Z" style="fill:none;stroke:#231916;stroke-width:7;stroke-linecap:butt;stroke-linejoin:miter;stroke-miterlimit:10;stroke-dasharray:none;stroke-opacity:1" transform="matrix(1.3333333,0,0,-1.3333333,522.05667,2103.6385)" />
      <path id="path8" d="m 0,0 9.664,-27.45 h 12.482 l -30.87,87.27 h -14.093 l -30.736,-87.27 h 12.08 L -32.078,0 Z m -29.662,8.805 8.858,25.248 c 1.745,5.309 3.221,10.618 4.564,15.797 h 0.268 c 1.342,-5.05 2.684,-10.229 4.698,-15.926 L -2.416,8.805 Z" style="fill:none;stroke:#231916;stroke-width:7;stroke-linecap:butt;stroke-linejoin:miter;stroke-miterlimit:10;stroke-dasharray:none;stroke-opacity:1" transform="matrix(1.3333333,0,0,-1.3333333,630.3268,2067.0383)" />
      <path id="path9" d="M 0,0 V 37.291 C 0,51.792 -0.268,62.28 -0.939,73.286 l 0.402,0.13 C 4.027,63.964 10.066,53.994 16.375,44.283 L 45.097,0 H 56.908 V 87.27 H 45.902 V 50.756 c 0,-13.595 0.269,-24.213 1.343,-35.866 l -0.269,-0.129 c -4.295,8.934 -9.529,18.127 -16.24,28.356 L 1.745,87.27 h -12.75 V 0 Z" style="fill:none;stroke:#231916;stroke-width:7;stroke-linecap:butt;stroke-linejoin:miter;stroke-miterlimit:10;stroke-dasharray:none;stroke-opacity:1" transform="matrix(1.3333333,0,0,-1.3333333,692.2448,2103.6385)" />
      <path id="path10" d="m 71.002955,-12.207434 c -4.699219,2.2715576 -11.953125,3.7535363 -19.066407,3.7535363 -22.007812,0 -34.757812,-14.2245653 -34.757812,-36.3692133 0,-23.760248 14.097656,-37.316708 35.296875,-37.316708 7.511719,0 13.828125,1.615599 18.257812,3.753536 l 2.8125,-9.523535 c -3.082031,-1.6156 -10.195312,-4.032925 -21.46875,-4.032925 -28.054687,0 -47.2499996,19.192838 -47.2499996,47.520495 0,29.663867 19.1953126,45.7591272 44.6953126,45.7591272 11.003906,0 19.59375,-2.13793643 23.894531,-4.2880202 z M 88.042017,-90.460765 V 6.6891495e-4 H 99.725611 V -42.405785 H 143.48342 V 6.6891495e-4 H 155.2842 V -90.460765 h -11.80078 v 37.851192 H 99.725611 v -37.851192 z m 134.361333,38.385676 h -35.16797 v -28.582752 h 37.17187 v -9.802924 H 175.55178 V 6.6891495e-4 h 50.8711 V -9.8022554 h -39.1875 V -42.405785 h 35.16797 z M 241.58401,6.6891495e-4 H 253.2676 V -39.186733 h 11.00391 c 10.60547,0.400863 15.43359,5.101893 18.11719,17.577238 2.55468,11.272756 4.57031,19.0592171 6.04687,21.61016391495 h 12.07031 C 298.63088,-3.4856251 296.48635,-12.207434 293.53323,-24.828547 c -2.15625,-9.389914 -6.31641,-15.840165 -13.28906,-18.257491 v -0.400863 c 9.52734,-3.219052 17.03906,-11.139134 17.03906,-23.079995 0,-6.984736 -2.54297,-13.155597 -7.11328,-17.188523 -5.63672,-5.089746 -13.6875,-7.373451 -26.16797,-7.373451 -8.05078,0 -16.51172,0.668105 -22.41797,1.870694 z M 253.2676,-81.070851 c 1.875,-0.534484 5.90625,-1.068968 11.54297,-1.068968 12.33985,0.133621 20.80078,5.235514 20.80078,16.909133 0,10.337408 -7.92187,17.176375 -20.40234,17.176375 H 253.2676 Z m 0,0" style="fill:#231916;fill-opacity:1;fill-rule:nonzero;stroke:none" aria-label="CHER" transform="matrix(1.3333333,0,0,1.2862871,422.0208,2254.8077)" />
      <path id="path11" d="m 0,0 c -4.698,-2.201 -11.945,-3.625 -19.059,-3.625 -22.012,0 -34.762,13.725 -34.762,35.089 0,22.918 14.092,35.995 35.299,35.995 7.516,0 13.824,-1.553 18.253,-3.625 l 2.819,9.193 c -3.087,1.554 -10.2,3.885 -21.475,3.885 -28.051,0 -47.244,-18.516 -47.244,-45.836 0,-28.616 19.193,-44.154 44.694,-44.154 11.006,0 19.596,2.073 23.891,4.144 z" style="fill:none;stroke:#231916;stroke-width:7;stroke-linecap:butt;stroke-linejoin:miter;stroke-miterlimit:10;stroke-dasharray:none;stroke-opacity:1" transform="matrix(1.3333333,0,0,-1.3333333,516.6888,2239.0975)" />
      <path id="path12" d="m 0,0 v -87.27 h 11.677 v 40.916 H 55.431 V -87.27 H 67.243 V 0 H 55.431 V -36.514 H 11.677 V 0 Z" style="fill:none;stroke:#231916;stroke-width:7;stroke-linecap:butt;stroke-linejoin:miter;stroke-miterlimit:10;stroke-dasharray:none;stroke-opacity:1" transform="matrix(1.3333333,0,0,-1.3333333,539.414,2138.4477)" />
      <path id="path13" d="M 0,0 H -35.165 V 27.58 H 2.014 v 9.451 h -48.855 v -87.27 H 4.027 v 9.452 H -35.165 V -9.323 H 0 Z" style="fill:none;stroke:#231916;stroke-width:7;stroke-linecap:butt;stroke-linejoin:miter;stroke-miterlimit:10;stroke-dasharray:none;stroke-opacity:1" transform="matrix(1.3333333,0,0,-1.3333333,718.54693,2187.8228)" />
      <path id="path14" d="M 0,0 H 11.677 V 37.809 H 22.683 C 33.286,37.42 38.117,32.888 40.802,20.847 43.352,9.97 45.365,2.46 46.841,0 h 12.08 c -1.879,3.366 -4.026,11.783 -6.979,23.954 -2.148,9.064 -6.308,15.279 -13.288,17.609 v 0.389 c 9.53,3.108 17.046,10.747 17.046,22.271 0,6.733 -2.55,12.689 -7.114,16.573 -5.637,4.92 -13.69,7.121 -26.172,7.121 C 14.361,87.917 5.905,87.27 0,86.105 Z m 11.677,78.207 c 1.879,0.518 5.905,1.035 11.542,1.035 12.348,-0.129 20.804,-5.049 20.804,-16.314 0,-9.97 -7.919,-16.574 -20.401,-16.574 H 11.677 Z" style="fill:none;stroke:#231916;stroke-width:7;stroke-linecap:butt;stroke-linejoin:miter;stroke-miterlimit:10;stroke-dasharray:none;stroke-opacity:1" transform="matrix(1.3333333,0,0,-1.3333333,744.13613,2254.8077)" />
      <path id="path15" d="M 88.709986,-0.00132487 H 100.12405 L 94.48733,-90.462759 H 79.592798 l -16.113281,43.754812 c -4.019531,11.406377 -7.242187,21.342922 -9.527344,30.465594 H 53.553736 C 51.26858,-25.632267 48.186548,-35.568812 44.42483,-46.707947 L 28.991236,-90.462759 H 14.096705 L 7.7802984,-0.00132487 H 18.92483 L 21.338892,-38.787864 c 0.808594,-13.55646 1.476563,-28.72852 1.746094,-40.001276 h 0.269531 c 2.542969,10.738271 6.175781,22.41189 10.464844,35.166624 L 48.45608,-0.53580897 h 8.847656 L 73.276392,-44.424242 c 4.570313,-12.487492 8.320313,-23.760248 11.414063,-34.364898 h 0.398437 c -0.128906,11.272756 0.667969,26.444816 1.347656,39.053781 z m 74.765624,-28.44913113 9.66797,28.44913113 h 12.48047 L 154.75686,-90.462759 H 140.6592 l -30.73828,90.46143413 h 12.08203 l 9.39844,-28.44913113 z m -29.66016,-9.134819 8.85938,-26.165426 c 1.74609,-5.502757 3.22266,-11.005514 4.55859,-16.374649 h 0.26953 c 1.34766,5.235514 2.6836,10.60465 4.69922,16.50827 l 8.85938,26.031805 z M 220.2471,-0.00132487 V -38.520622 l 30.33984,-51.942137 h -13.28906 l -13.01953,24.962837 c -3.49219,6.851115 -6.57422,12.754734 -9.12891,18.658354 h -0.26953 c -2.8125,-6.304483 -5.4961,-11.807239 -8.98828,-18.658354 l -12.75,-24.962837 h -13.28907 l 28.58204,52.075758 v 38.38567613 z m 92.20312,0 V -9.8042491 h -39.1875 v -0.2672419 l 6.98438,-6.438104 c 18.38671,-17.71086 30.05859,-30.732836 30.05859,-46.840243 0,-12.487492 -7.92188,-25.3637 -26.70703,-25.3637 -10.06641,0 -18.65625,3.753536 -24.69141,8.85543 l 3.75,8.320945 c 4.03125,-3.352673 10.60547,-7.385598 18.52735,-7.385598 13.01953,0 17.30859,8.187325 17.30859,17.042754 -0.12891,13.155598 -10.19531,24.428353 -32.47266,45.637654 l -9.26953,8.9890507 v 7.25197743 z m 0,0" style="fill:#e60013;fill-opacity:1;fill-rule:nonzero;stroke:none" aria-label="MAY2" transform="matrix(1.3333333,0,0,1.2862871,422.0208,2405.9783)" />
      <path id="path16" d="M 0,0 H 11.409 L 5.771,87.271 H -9.126 L -25.233,45.06 C -29.259,34.054 -32.48,24.472 -34.762,15.667 h -0.403 c -2.281,9.063 -5.368,18.646 -9.127,29.393 L -59.727,87.271 H -74.625 L -80.933,0 h 11.141 l 2.415,37.42 c 0.806,13.078 1.477,27.709 1.745,38.586 h 0.268 c 2.551,-10.36 6.175,-21.624 10.469,-33.925 l 14.63,-41.563 h 8.858 l 15.972,42.34 c 4.563,12.042 8.322,22.918 11.409,33.148 h 0.402 c -0.134,-10.877 0.671,-25.508 1.342,-37.68 z" style="fill:none;stroke:#e60013;stroke-width:7;stroke-linecap:butt;stroke-linejoin:miter;stroke-miterlimit:10;stroke-dasharray:none;stroke-opacity:1" transform="matrix(1.3333333,0,0,-1.3333333,540.31053,2405.9783)" />
      <path id="path17" d="m 0,0 9.664,-27.45 h 12.482 l -30.87,87.27 h -14.093 l -30.736,-87.27 h 12.08 L -32.078,0 Z m -29.662,8.805 8.858,25.249 c 1.745,5.308 3.221,10.617 4.564,15.796 h 0.268 c 1.342,-5.05 2.684,-10.229 4.698,-15.926 L -2.416,8.805 Z" style="fill:none;stroke:#e60013;stroke-width:7;stroke-linecap:butt;stroke-linejoin:miter;stroke-miterlimit:10;stroke-dasharray:none;stroke-opacity:1" transform="matrix(1.3333333,0,0,-1.3333333,639.9876,2369.3781)" />
      <path id="path18" d="m 0,0 v 37.161 l 30.333,50.11 H 17.045 L 4.026,63.187 C 0.537,56.583 -2.55,50.886 -5.1,45.188 h -0.269 c -2.818,6.086 -5.503,11.395 -8.992,17.999 l -12.751,24.084 h -13.287 l 28.588,-50.24 V 0 Z" style="fill:none;stroke:#e60013;stroke-width:7;stroke-linecap:butt;stroke-linejoin:miter;stroke-miterlimit:10;stroke-dasharray:none;stroke-opacity:1" transform="matrix(1.3333333,0,0,-1.3333333,715.6868,2405.9783)" />
      <path id="path19" d="m 0,0 v 9.452 h -39.191 v 0.259 l 6.979,6.215 c 18.388,17.092 30.065,29.651 30.065,45.189 0,12.042 -7.919,24.472 -26.709,24.472 -10.067,0 -18.657,-3.625 -24.697,-8.546 l 3.759,-8.027 c 4.026,3.236 10.603,7.121 18.522,7.121 13.019,0 17.314,-7.899 17.314,-16.445 C -14.093,47.002 -24.159,36.125 -46.439,15.667 L -55.7,6.992 V 0 Z" style="fill:none;stroke:#e60013;stroke-width:7;stroke-linecap:butt;stroke-linejoin:miter;stroke-miterlimit:10;stroke-dasharray:none;stroke-opacity:1" transform="matrix(1.3333333,0,0,-1.3333333,838.62693,2405.9783)" />
      <path id="path20" d="M 57.045923,-52.075106 H 21.877955 V -80.657858 H 59.04983 v -9.802925 H 10.194361 V 6.5109881e-4 H 61.065455 V -9.8022732 h -39.1875 V -42.405803 H 57.045923 Z M 76.229517,6.5109881e-4 H 87.913111 V -40.935972 h 34.218749 v -9.657156 H 87.913111 v -30.06473 h 37.042969 v -9.802925 H 76.229517 Z m 65.364253,0 h 11.6836 V -40.935972 h 34.21875 v -9.657156 h -34.21875 v -30.06473 h 37.04297 v -9.802925 h -48.72657 z m 0,0" style="fill:#231916;fill-opacity:1;fill-rule:nonzero;stroke:none" aria-label="EFF" transform="matrix(1.3333333,0,0,1.2862871,422.0208,2557.1476)" />
      <path id="path21" d="M 0,0 H -35.165 V 27.58 H 2.014 v 9.452 h -48.855 v -87.27 H 4.027 v 9.452 h -39.192 v 31.464 l 35.165,0 z" style="fill:none;stroke:#231916;stroke-width:7;stroke-linecap:butt;stroke-linejoin:miter;stroke-miterlimit:10;stroke-dasharray:none;stroke-opacity:1" transform="matrix(1.3333333,0,0,-1.3333333,498.0768,2490.1632)" />
      <path id="path22" d="m 0,0 h 11.677 v 39.492 h 34.225 v 9.322 H 11.677 v 29.004 h 37.044 v 9.453 H 0 Z" style="fill:none;stroke:#231916;stroke-width:7;stroke-linecap:butt;stroke-linejoin:miter;stroke-miterlimit:10;stroke-dasharray:none;stroke-opacity:1" transform="matrix(1.3333333,0,0,-1.3333333,523.666,2557.1476)" />
      <path id="path23" d="m 0,0 h 11.677 v 39.492 h 34.225 v 9.322 H 11.677 v 29.004 h 37.044 v 9.453 H 0 Z" style="fill:none;stroke:#231916;stroke-width:7;stroke-linecap:butt;stroke-linejoin:miter;stroke-miterlimit:10;stroke-dasharray:none;stroke-opacity:1" transform="matrix(1.3333333,0,0,-1.3333333,610.81773,2557.1476)" />
      </g></svg>