<?xml version='1.0' encoding='utf-8'?>
<svg xmlns="http://www.w3.org/2000/svg" version="1.1" width="1338.680" height="145.016" viewBox="368.652 3772.950 1338.680 145.016"><g id="object"><path id="path8" d="M 44.90767,-22.452506 52.524858,6.1875e-4 h 9.855469 L 38.017045,-71.378287 H 26.895952 L 2.6498578,6.1875e-4 H 12.177202 L 19.59517,-22.452506 Z m -23.402343,-7.195313 6.984375,-20.660156 c 1.371093,-4.335937 2.542968,-8.683594 3.597656,-12.914062 h 0.210937 c 1.066407,4.125 2.121094,8.367187 3.714844,13.019531 l 6.984375,20.554687 z M 105.15376,6.1875e-4 V -44.155631 h 20.54297 V 6.1875e-4 h 9.22266 V -51.257194 h -29.76563 v -2.542968 c 0,-8.15625 2.85938,-15.035157 12.71485,-15.035157 4.54687,0 8.57812,1.371094 10.79297,2.964844 l 2.64843,-7.089844 c -2.64843,-1.910156 -8.25,-3.398437 -13.01953,-3.398437 -14.40234,0 -22.347653,8.789062 -22.347653,22.347656 v 2.753906 h -7.195313 v 7.101563 h 7.195313 V 6.1875e-4 Z m 45.22559,0 h 9.31641 V -75.186881 h -9.31641 z m 24.99023,0 h 9.10547 V -30.925162 c 0,-1.582032 0.21094,-3.175782 0.73828,-4.546875 1.48829,-4.664063 5.71875,-9.328125 11.54297,-9.328125 7.10157,0 10.69922,5.929687 10.69922,14.085937 V 6.1875e-4 h 9.10547 V -31.663444 c 0,-1.699218 0.31641,-3.386718 0.73828,-4.664062 1.59375,-4.546875 5.71875,-8.472656 11.01563,-8.472656 7.52343,0 11.12109,5.929687 11.12109,15.785156 V 6.1875e-4 h 9.10547 V -30.186881 c 0,-17.789063 -10.05469,-22.230469 -16.83984,-22.230469 -4.86329,0 -8.25,1.265625 -11.33204,3.597656 -2.10937,1.582032 -4.125,3.808594 -5.71875,6.667969 h -0.21093 c -2.21485,-6.035156 -7.51172,-10.265625 -14.50782,-10.265625 -8.47265,0 -13.23046,4.546875 -16.08984,9.421875 h -0.31641 l -0.43359,-8.261719 h -8.14453 c 0.31641,4.242188 0.42187,8.578125 0.42187,13.875 z m 118.38575,0 0.43359,-8.47265625 h 0.31641 c 3.80859,6.7734375 9.73828,9.6328125 17.15625,9.6328125 11.4375,0 22.98047,-9.1054687 22.98047,-27.421875 0.10546,-15.574219 -8.89454,-26.15625 -21.60938,-26.15625 -8.26172,0 -14.19141,3.703125 -17.47266,9.421875 h -0.21093 v -32.191406 h -9.21094 v 61.945312 c 0,4.558594 -0.21094,9.7500003 -0.42188,13.24218775 z m 1.59375,-29.75390575 c 0,-1.488282 0.3164,-2.753907 0.52734,-3.820313 1.91016,-7.089844 7.83984,-11.4375 14.19141,-11.4375 9.96093,0 15.24609,8.789063 15.24609,19.066406 0,11.753907 -5.82422,19.699219 -15.5625,19.699219 -6.77344,0 -12.17578,-4.453125 -13.98047,-10.910156 -0.21094,-1.054688 -0.42187,-2.226563 -0.42187,-3.386719 z m 43.51757,-21.503907 18.96094,47.2382815 c 0.42188,1.1601563 0.63281,1.8984375 0.63281,2.4257813 0,0.5390625 -0.3164,1.2773437 -0.73828,2.22656245 -2.12109,4.76953125 -5.29687,8.36718755 -7.83984,10.38281275 -2.75391,2.332031 -5.82422,3.808594 -8.15625,4.546875 l 2.33203,7.839844 c 2.33203,-0.421875 6.89063,-2.015625 11.4375,-6.035157 6.35156,-5.507812 10.91016,-14.5078122 17.57813,-32.085937 l 13.98046,-36.539063 h -9.84375 l -10.17187,30.082032 c -1.26563,3.703125 -2.33203,7.617187 -3.28125,10.6875 h -0.21094 c -0.84375,-3.070313 -2.12109,-7.089844 -3.28125,-10.476563 l -11.22656,-30.292969 z m 94.04297,26.894532 c 0,13.980468 -4.875,17.695312 -13.13672,17.695312 -3.07031,0 -5.82421,-0.6445312 -7.72265,-1.3828125 l -1.38281,7.5234375 c 2.33203,0.94921875 6.45703,1.6875 9.85546,1.6875 12.28125,0 21.59766,-5.8242187 21.59766,-24.773437 v -47.765625 h -9.21094 z M 466.47798,6.1875e-4 V -51.257194 h -9.3164 V 6.1875e-4 Z M 461.81392,-71.483756 c -3.38672,0 -5.82422,2.542969 -5.82422,5.824219 0,3.175781 2.33203,5.71875 5.61328,5.71875 3.71485,0 6.03516,-2.542969 5.92969,-5.71875 0,-3.28125 -2.21484,-5.824219 -5.71875,-5.824219 z M 481.9438,6.1875e-4 h 9.10547 V -30.925162 c 0,-1.582032 0.21094,-3.175782 0.73828,-4.546875 1.48828,-4.664063 5.71875,-9.328125 11.54297,-9.328125 7.10156,0 10.69922,5.929687 10.69922,14.085937 V 6.1875e-4 h 9.10547 V -31.663444 c 0,-1.699218 0.31641,-3.386718 0.73828,-4.664062 1.59375,-4.546875 5.71875,-8.472656 11.01563,-8.472656 7.52343,0 11.12109,5.929687 11.12109,15.785156 V 6.1875e-4 h 9.10547 V -30.186881 c 0,-17.789063 -10.05469,-22.230469 -16.83985,-22.230469 -4.86328,0 -8.25,1.265625 -11.33203,3.597656 -2.10937,1.582032 -4.125,3.808594 -5.71875,6.667969 h -0.21093 c -2.21485,-6.035156 -7.51172,-10.265625 -14.50782,-10.265625 -8.47265,0 -13.23047,4.546875 -16.08984,9.421875 h -0.31641 l -0.43359,-8.261719 h -8.14453 c 0.3164,4.242188 0.42187,8.578125 0.42187,13.875 z M 607.64205,-24.362662 c 0,13.980468 -4.875,17.695312 -13.13672,17.695312 -3.07032,0 -5.82422,-0.6445312 -7.72266,-1.3828125 l -1.38281,7.5234375 c 2.33203,0.94921875 6.45703,1.6875 9.85547,1.6875 12.28125,0 21.59765,-5.8242187 21.59765,-24.773437 v -47.765625 h -9.21093 z M 668.74947,6.1875e-4 C 668.10494,-3.4915687 667.894,-7.839225 667.894,-12.280631 v -19.171875 c 0,-10.277344 -3.8086,-20.964844 -19.48828,-20.964844 -6.45703,0 -12.59766,1.792969 -16.82813,4.546875 l 2.10938,6.140625 c 3.60937,-2.320312 8.57812,-3.808594 13.34765,-3.808594 10.48828,0 11.64844,7.628907 11.64844,11.859375 v 1.066407 c -19.80469,-0.105469 -30.82031,6.667968 -30.82031,19.054687 0,7.4179688 5.29687,14.71875 15.67969,14.71875 7.30078,0 12.80859,-3.5976562 15.66796,-7.6171875 h 0.31641 l 0.75,6.45703125 z M 658.894,-17.2611 c 0,0.949219 -0.21094,2.015625 -0.52735,2.964844 -1.48828,4.347656 -5.71875,8.5781248 -12.38671,8.5781248 -4.76954,0 -8.78907,-2.859375 -8.78907,-8.8945308 0,-9.960938 11.54297,-11.753907 21.70313,-11.542969 z M 682.93501,6.1875e-4 h 9.21094 V -27.327506 c 0,-1.582031 0.21094,-3.070313 0.42188,-4.335938 1.27734,-6.996093 5.92968,-11.964843 12.49218,-11.964843 1.27735,0 2.22657,0.105468 3.1875,0.316406 v -8.789063 c -0.85546,-0.210937 -1.59375,-0.316406 -2.64843,-0.316406 -6.25782,0 -11.8711,4.335938 -14.19141,11.226563 h -0.42187 l -0.32813,-10.066407 h -8.14453 c 0.31641,4.769532 0.42187,9.960938 0.42187,15.996094 z m 35.05372,0 h 9.10546 V -30.925162 c 0,-1.582032 0.21094,-3.175782 0.73829,-4.546875 1.48828,-4.664063 5.71875,-9.328125 11.54296,-9.328125 7.10157,0 10.69922,5.929687 10.69922,14.085937 V 6.1875e-4 h 9.10547 V -31.663444 c 0,-1.699218 0.31641,-3.386718 0.73828,-4.664062 1.59375,-4.546875 5.71875,-8.472656 11.01563,-8.472656 7.52344,0 11.12109,5.929687 11.12109,15.785156 V 6.1875e-4 h 9.10547 V -30.186881 c 0,-17.789063 -10.05469,-22.230469 -16.83984,-22.230469 -4.86328,0 -8.25,1.265625 -11.33203,3.597656 -2.10938,1.582032 -4.125,3.808594 -5.71875,6.667969 h -0.21094 c -2.21485,-6.035156 -7.51172,-10.265625 -14.50781,-10.265625 -8.47266,0 -13.23047,4.546875 -16.08985,9.421875 h -0.3164 l -0.4336,-8.261719 h -8.14453 c 0.31641,4.242188 0.42188,8.578125 0.42188,13.875 z M 849.19771,-51.257194 h -9.32813 v 31.453125 c 0,1.699219 -0.3164,3.386719 -0.84375,4.769532 -1.6875,4.125 -6.03515,8.4726558 -12.28125,8.4726558 -8.47265,0 -11.4375,-6.5742188 -11.4375,-16.3124998 v -28.382813 h -9.3164 v 29.976563 c 0,17.9999998 9.63281,22.441406 17.68359,22.441406 9.10547,0 14.50781,-5.390625 16.94531,-9.5273437 h 0.21094 l 0.52735,8.36718745 h 8.26171 C 849.30318,-4.0189125 849.19771,-8.682975 849.19771,-13.97985 Z m 11.84766,48.8203128 c 3.60937,2.1210937 8.80078,3.4921875 14.40234,3.4921875 12.1875,0 19.17187,-6.3515625 19.17187,-15.3515623 0,-7.628906 -4.54687,-12.070313 -13.45312,-15.457031 -6.66797,-2.542969 -9.73828,-4.453125 -9.73828,-8.683594 0,-3.820313 3.07031,-6.996094 8.57812,-6.996094 4.76953,0 8.47266,1.699219 10.48828,2.964844 l 2.33204,-6.773438 c -2.85938,-1.699218 -7.41797,-3.175781 -12.60938,-3.175781 -11.01562,0 -17.68359,6.773438 -17.68359,15.035156 0,6.140625 4.33593,11.226563 13.55859,14.507813 6.87891,2.542969 9.52734,4.980469 9.52734,9.421875 0,4.2421873 -3.17578,7.628906 -9.94921,7.628906 -4.66407,0 -9.53907,-1.9101562 -12.29297,-3.703125 z m 80.49023,-6.4570313 c -2.64844,1.1601563 -6.14062,2.5429688 -11.4375,2.5429688 -10.17187,0 -17.78906,-7.3125003 -17.78906,-19.1718753 0,-10.699218 6.35156,-19.382812 18.10547,-19.382812 5.08593,0 8.57812,1.171875 10.80468,2.4375 l 2.1211,-7.195313 c -2.54297,-1.277343 -7.41797,-2.648437 -12.92578,-2.648437 -16.73438,0 -27.53907,11.4375 -27.53907,27.210937 0,15.6796878 10.06641,26.1562503 25.52344,26.1562503 6.89063,0 12.29297,-1.68750005 14.71875,-2.9648438 z m 12.49805,8.89453125 h 9.3164 V -30.925162 c 0,-1.792969 0.10547,-3.175782 0.63282,-4.441407 1.69921,-5.085937 6.45703,-9.328125 12.5039,-9.328125 8.78906,0 11.85938,6.996094 11.85938,15.257813 V 6.1875e-4 h 9.3164 V -30.503287 c 0,-17.683594 -11.01562,-21.914063 -17.89453,-21.914063 -3.5039,0 -6.78515,1.054688 -9.53906,2.648438 -2.85938,1.582031 -5.17969,3.914062 -6.66797,6.5625 h -0.21094 v -31.980469 h -9.3164 z m 0,0" style="fill:#231916;fill-opacity:1;fill-rule:nonzero;stroke:none" aria-label="A flm by Jim Jarmusch" transform="matrix(1.3333333,0,0,1.3333333,371.1192,3880.7648)" />
      </g></svg>