<?xml version='1.0' encoding='utf-8'?>
<svg xmlns="http://www.w3.org/2000/svg" version="1.1" width="86.189" height="146.016" viewBox="357.181 4709.920 86.189 146.016"><g id="object"><path id="path130" d="m 0,0 c 2.859,15.646 0.493,33.713 -0.029,51.796 -0.1,3.449 -0.014,6.908 0.108,10.357 0.136,3.862 2.061,6.41 5.786,7.675 10.666,3.621 21.745,5.344 32.817,6.966 4.681,0.686 6.277,-0.864 7.184,-5.356 0.34,-1.682 0.512,-3.42 0.55,-5.138 0.053,-2.397 -1.075,-4.215 -3.453,-4.794 -5.451,-1.328 -10.988,-2.321 -16.406,-3.765 -6.589,-1.757 -7.389,-3.1 -7.075,-10.175 0.058,-1.293 0.101,-2.594 0.284,-3.872 0.959,-6.725 1.271,-9.382 9.844,-7.556 2.088,0.445 4.257,0.626 6.394,0.667 0.709,0.013 1.729,-0.621 2.1,-1.255 1.662,-2.842 -0.906,-9.744 -4.124,-10.863 -3.255,-1.132 -6.623,-1.94 -9.95,-2.862 -1.851,-0.513 -3.092,-1.75 -3.215,-3.575 -0.404,-6.007 -0.717,-12.026 -0.838,-18.045 -0.038,-1.879 1.384,-3.316 3.32,-3.13 3.852,0.368 7.663,1.145 11.503,1.665 5.115,0.692 10.233,1.393 15.371,1.869 1.144,0.105 2.566,-0.455 3.53,-1.159 3.268,-2.385 1.969,-13.168 -1.737,-15.156 -0.377,-0.203 -0.788,-0.363 -1.202,-0.473 -13.351,-3.545 -26.702,-7.1 -40.643,-7.38 -1.287,-0.025 -2.588,0.072 -3.867,0.237 -4.526,0.583 -6.088,2.137 -6.221,6.619 C -0.109,-11.959 0,-7.207 0,0" style="fill:#494643;fill-opacity:1;fill-rule:nonzero;stroke:none" transform="matrix(1.3333333,0,0,-1.3333333,363.278,4818.5211)" />
      </g></svg>