<?xml version='1.0' encoding='utf-8'?>
<svg xmlns="http://www.w3.org/2000/svg" version="1.1" width="512.871" height="340.105" viewBox="70.289 1296.260 512.871 340.105"><defs id="defs1"><clipPath clipPathUnits="userSpaceOnUse" id="clipPath8">
      <path d="M -1148.4961,2089.633 H 1235.444 v -3370.3901 h -2383.9401 z" id="path8" />
    </clipPath>
    <clipPath clipPathUnits="userSpaceOnUse" id="clipPath12">
      <path d="M -2389.6702,1124.431 H -5.7301751 V -2245.9591 H -2389.6702 Z" id="path12" />
    </clipPath>
  </defs><g id="object"><path id="path78" d="M 14.050822,-8.71875e-4 V -34.653216 h 9.714844 v -5.578125 h -9.714844 v -2.15625 c 0,-6.152343 1.570312,-11.636718 7.804687,-11.636718 2.074219,0 3.574219,0.421875 4.652344,0.914062 l 0.996094,-5.648437 c -1.40625,-0.585938 -3.65625,-1.160157 -6.222656,-1.160157 -3.410157,0 -7.066407,1.078125 -9.808594,3.738282 -3.4101564,3.234375 -4.6523439,8.390625 -4.6523439,14.039062 v 1.910156 H 1.1601969 v 5.578125 H 6.8203531 V -8.71875e-4 Z m 16.286133,0 h 7.230468 V -21.446184 c 0,-1.242188 0.164063,-2.402344 0.328125,-3.410157 0.996094,-5.484375 4.652344,-9.386718 9.808594,-9.386718 0.996094,0 1.746094,0.08203 2.496094,0.246093 v -6.890625 c -0.667969,-0.164062 -1.253906,-0.257812 -2.085938,-0.257812 -4.898437,0 -9.304687,3.410156 -11.132812,8.8125 h -0.328125 l -0.257813,-7.898438 h -6.398437 c 0.257812,3.75 0.339844,7.816407 0.339844,12.550782 z M 73.722697,-41.145403 c -11.144531,0 -19.957031,7.898437 -19.957031,21.363281 0,12.7148439 8.402343,20.69531262 19.289062,20.69531262 9.726563,0 20.027344,-6.48046872 20.027344,-21.36328162 0,-12.292968 -7.816406,-20.695312 -19.359375,-20.695312 z m -0.175781,5.496094 c 8.648437,0 12.058593,8.636718 12.058593,15.457031 0,9.058594 -5.238281,15.6210936 -12.222656,15.6210936 -7.148437,0 -12.210937,-6.6445316 -12.210937,-15.4570316 0,-7.652343 3.738281,-15.621093 12.375,-15.621093 z M 102.30766,-8.71875e-4 h 7.14844 V -24.270403 c 0,-1.242188 0.16406,-2.496094 0.57421,-3.574219 1.17188,-3.65625 4.48829,-7.3125 9.0586,-7.3125 5.5664,0 8.40234,4.652344 8.40234,11.050781 V -8.71875e-4 h 7.14844 V -24.856341 c 0,-1.324218 0.24609,-2.648437 0.57422,-3.65625 1.2539,-3.574218 4.48828,-6.644531 8.64844,-6.644531 5.89453,0 8.71875,4.652344 8.71875,12.386719 V -8.71875e-4 h 7.14843 V -23.684466 c 0,-13.96875 -7.88672,-17.460937 -13.20703,-17.460937 -3.83203,0 -6.49219,1.007812 -8.89453,2.835937 -1.66406,1.242188 -3.24609,2.988282 -4.48828,5.226563 h -0.16406 c -1.7461,-4.734375 -5.90625,-8.0625 -11.39063,-8.0625 -6.64453,0 -10.38281,3.574219 -12.63281,7.40625 h -0.24609 l -0.33985,-6.492188 h -6.39844 c 0.25782,3.328125 0.33985,6.738282 0.33985,10.898438 z M 6.0703531,61.748152 h 7.3124999 v -24.1875 c 0,-1.242188 0.164063,-2.496094 0.492188,-3.410157 1.253906,-4.066406 4.992187,-7.476562 9.808593,-7.476562 6.902344,0 9.316407,5.402344 9.316407,11.882812 v 23.191407 h 7.3125 V 37.724714 c 0,-13.792969 -8.648438,-17.121094 -14.214844,-17.121094 -6.644531,0 -11.308594,3.75 -13.300781,7.570313 h -0.164063 l -0.410156,-6.65625 H 5.7305094 c 0.2578125,3.328125 0.3398437,6.738281 0.3398437,10.898437 z M 69.234416,20.60362 c -11.144532,0 -19.957032,7.898438 -19.957032,21.363282 0,12.714843 8.402344,20.695312 19.289063,20.695312 9.726562,0 20.027344,-6.480469 20.027344,-21.363281 0,-12.292969 -7.816407,-20.695313 -19.359375,-20.695313 z m -0.175782,5.496094 c 8.648438,0 12.058594,8.636719 12.058594,15.457031 0,9.058594 -5.238281,15.621094 -12.222656,15.621094 -7.148438,0 -12.210938,-6.644531 -12.210938,-15.457031 0,-7.652344 3.738282,-15.621094 12.375,-15.621094 z m 23.188477,-4.582031 15.292969,40.230469 h 6.98437 l 15.78516,-40.230469 h -7.64062 l -7.81641,22.605469 c -1.32422,3.667968 -2.49609,6.984375 -3.41016,10.3125 h -0.24609 c -0.83203,-3.328125 -1.91016,-6.644532 -3.23438,-10.3125 l -7.89843,-22.605469 z m 76.467769,21.445312 c 0.082,-0.75 0.2461,-1.910156 0.2461,-3.410156 0,-7.394531 -3.49219,-18.949219 -16.62891,-18.949219 -11.71875,0 -18.86719,9.5625 -18.86719,21.691407 0,12.140625 7.40625,20.285156 19.78125,20.285156 6.39844,0 10.80469,-1.335938 13.38282,-2.496094 l -1.24219,-5.238281 c -2.74219,1.171875 -5.90625,2.085937 -11.14453,2.085937 -7.3125,0 -13.62891,-4.078125 -13.79297,-13.96875 z m -28.18359,-5.238281 c 0.58594,-5.0625 3.83203,-11.882812 11.22656,-11.882812 8.22657,0 10.21875,7.230468 10.13672,11.882812 z m 37.48828,24.023438 h 7.14844 V 37.47862 c 0,-1.242187 0.16406,-2.496093 0.57422,-3.574218 1.17187,-3.65625 4.48828,-7.3125 9.05859,-7.3125 5.56641,0 8.40235,4.652343 8.40235,11.050781 v 24.105469 h 7.14843 V 36.892683 c 0,-1.324219 0.2461,-2.648438 0.57422,-3.65625 1.25391,-3.574219 4.48828,-6.644531 8.64844,-6.644531 5.89453,0 8.71875,4.652343 8.71875,12.386718 v 22.769532 h 7.14844 V 38.064558 c 0,-13.96875 -7.88672,-17.460938 -13.20703,-17.460938 -3.83204,0 -6.49219,1.007813 -8.89454,2.835938 -1.66406,1.242187 -3.24609,2.988281 -4.48828,5.226562 h -0.16406 c -1.74609,-4.734375 -5.90625,-8.0625 -11.39062,-8.0625 -6.64454,0 -10.38282,3.574219 -12.63282,7.40625 h -0.24609 l -0.33984,-6.492187 h -6.39844 c 0.25781,3.328125 0.33984,6.738281 0.33984,10.898437 z m 75.28711,0 0.33984,-6.644532 h 0.2461 c 2.98828,5.320313 7.64062,7.558594 13.46484,7.558594 8.97656,0 18.03516,-7.148437 18.03516,-21.527344 0.082,-12.210937 -6.98438,-20.53125 -16.95703,-20.53125 -6.48047,0 -11.13282,2.917969 -13.71094,7.40625 h -0.16406 V 2.7442453 h -7.23047 V 51.365339 c 0,3.5625 -0.16406,7.640625 -0.33985,10.382813 z m 1.25391,-23.355469 c 0,-1.160156 0.24609,-2.15625 0.41015,-2.988281 1.5,-5.566407 6.15235,-8.976563 11.14453,-8.976563 7.80469,0 11.96485,6.902344 11.96485,14.953125 0,9.234375 -4.57031,15.46875 -12.22266,15.46875 -5.32031,0 -9.55078,-3.492187 -10.96875,-8.566406 -0.16406,-0.832031 -0.32812,-1.746094 -0.32812,-2.660156 z m 72.38965,4.570312 c 0.082,-0.75 0.24609,-1.910156 0.24609,-3.410156 0,-7.394531 -3.49219,-18.949219 -16.62891,-18.949219 -11.71875,0 -18.86718,9.5625 -18.86718,21.691407 0,12.140625 7.40625,20.285156 19.78125,20.285156 6.39843,0 10.80468,-1.335938 13.38281,-2.496094 l -1.24219,-5.238281 c -2.74219,1.171875 -5.90625,2.085937 -11.14453,2.085937 -7.3125,0 -13.62891,-4.078125 -13.79297,-13.96875 z m -28.1836,-5.238281 c 0.58594,-5.0625 3.83203,-11.882812 11.22656,-11.882812 8.22657,0 10.21875,7.230468 10.13672,11.882812 z m 37.48828,24.023438 h 7.23047 V 40.302839 c 0,-1.242187 0.16406,-2.402344 0.32813,-3.410156 0.99609,-5.484375 4.65234,-9.386719 9.80859,-9.386719 0.99609,0 1.74609,0.08203 2.49609,0.246094 v -6.890625 c -0.66796,-0.164063 -1.2539,-0.257813 -2.08593,-0.257813 -4.89844,0 -9.30469,3.410157 -11.13282,8.8125 h -0.32812 l -0.25781,-7.898437 h -6.39844 c 0.25781,3.75 0.33984,7.816406 0.33984,12.550781 z M 3.4922281,120.75499 c 2.6601563,1.74609 7.9804689,3.65625 14.0390629,3.65625 12.972656,0 19.699218,-7.5586 19.699218,-16.20703 0,-7.5586 -5.402343,-12.550785 -12.046875,-13.875004 v -0.164062 c 6.644532,-2.414063 9.972657,-7.148438 9.972657,-12.726563 0,-6.5625 -4.816407,-12.878906 -15.457032,-12.878906 -5.824218,0 -11.3085934,2.074219 -14.1328121,4.160156 l 1.9101562,5.320313 c 2.3320313,-1.664063 6.4804689,-3.574219 10.8046879,-3.574219 6.738281,0 9.480468,3.820312 9.480468,8.144531 0,6.398438 -6.738281,9.140625 -12.058593,9.140625 h -4.066407 v 5.484375 h 4.066407 c 7.066406,0 13.886718,3.246094 13.96875,10.804684 0.08203,4.48828 -2.824219,10.46485 -12.222657,10.46485 -5.0625,0 -9.8906246,-2.07422 -11.9648434,-3.39844 z m 45.2109379,2.74218 h 7.230468 v -21.44531 c 0,-1.24219 0.164063,-2.402341 0.328125,-3.410154 0.996094,-5.484375 4.652344,-9.386719 9.808594,-9.386719 0.996094,0 1.746094,0.08203 2.496094,0.246094 v -6.890625 c -0.667969,-0.164062 -1.253906,-0.257812 -2.085938,-0.257812 -4.898437,0 -9.304687,3.410156 -11.132812,8.8125 h -0.328125 l -0.257813,-7.898438 h -6.398437 c 0.257812,3.75 0.339844,7.816406 0.339844,12.550781 z M 102.47172,64.493269 v 24.011718 h -0.16406 c -1.82813,-3.234375 -5.988283,-6.152343 -12.140627,-6.152343 -9.796875,0 -18.117188,8.238281 -18.035156,21.609376 0,12.22265 7.488281,20.44922 17.214843,20.44922 6.5625,0 11.46094,-3.41016 13.71094,-7.89844 h 0.16406 l 0.32813,6.98437 h 6.57421 c -0.25781,-2.74218 -0.33984,-6.82031 -0.33984,-10.38281 V 64.493269 Z m 0,42.128901 c 0,1.17188 -0.082,2.16797 -0.32812,3.16407 -1.33594,5.48437 -5.824223,8.71875 -10.722661,8.71875 -7.898437,0 -11.882812,-6.72657 -11.882812,-14.8711 0,-8.894528 4.488281,-15.539059 12.046875,-15.539059 5.484375,0 9.480468,3.820313 10.558598,8.472656 0.24609,0.914063 0.32812,2.167969 0.32812,3.082032 z m 38.7334,-32.988276 v 9.632812 h -6.23438 v 5.578125 h 6.23438 v 21.937499 c 0,4.73438 0.73828,8.30859 2.82422,10.47656 1.74609,1.99219 4.48828,3.07032 7.88672,3.07032 2.83593,0 5.07421,-0.42188 6.49218,-0.9961 l -0.33984,-5.48437 c -0.91406,0.24609 -2.32031,0.49218 -4.23047,0.49218 -4.07812,0 -5.49609,-2.82421 -5.49609,-7.80468 V 88.844831 H 158.8184 V 83.266706 H 148.34184 V 71.723737 Z m 42.38379,8.71875 c -11.14453,0 -19.95703,7.898437 -19.95703,21.363276 0,12.71485 8.40234,20.69532 19.28906,20.69532 9.72656,0 20.02734,-6.48047 20.02734,-21.36328 0,-12.292973 -7.8164,-20.695316 -19.35937,-20.695316 z m -0.17578,5.496093 c 8.64843,0 12.05859,8.636719 12.05859,15.457033 0,9.05859 -5.23828,15.62109 -12.22266,15.62109 -7.14843,0 -12.21093,-6.64453 -12.21093,-15.45703 0,-7.652343 3.73828,-15.621093 12.375,-15.621093 z m 78.53906,35.648433 v -6.07031 h -24.26953 v -0.16406 l 4.32422,-3.98438 c 11.39062,-10.96875 18.62109,-19.031245 18.62109,-29.003901 0,-7.734375 -4.91016,-15.714844 -16.53516,-15.714844 -6.23437,0 -11.55468,2.332031 -15.29296,5.484375 l 2.32031,5.15625 c 2.49609,-2.074219 6.5625,-4.570313 11.47265,-4.570313 8.0625,0 10.72266,5.074219 10.72266,10.558594 -0.082,8.144531 -6.31641,15.117189 -20.12109,28.253909 l -5.73047,5.5664 v 4.48828 z m 37.65234,0 v -14.70703 h 7.5586 v -5.74218 h -7.5586 V 69.473737 h -7.89843 l -24.10547,34.488283 v 4.82812 h 25.10156 v 14.70703 z m -24.59765,-20.44921 v -0.16407 l 13.20703,-18.363278 c 1.5,-2.496093 2.82422,-4.816406 4.48828,-7.980468 h 0.24609 c -0.16406,2.824218 -0.24609,5.648437 -0.24609,8.472656 v 18.03516 z m 41.71875,-29.414066 v 9.632812 h -6.23438 v 5.578125 h 6.23438 v 21.937499 c 0,4.73438 0.73828,8.30859 2.82422,10.47656 1.74609,1.99219 4.48828,3.07032 7.88671,3.07032 2.83594,0 5.07422,-0.42188 6.49219,-0.9961 l -0.33984,-5.48437 c -0.91406,0.24609 -2.32031,0.49218 -4.23047,0.49218 -4.07813,0 -5.49609,-2.82421 -5.49609,-7.80468 V 88.844831 h 10.47656 V 83.266706 H 323.86235 V 71.723737 Z m 25.8457,49.863276 h 7.3125 V 99.227644 c 0,-1.40625 0.082,-2.496094 0.49219,-3.492188 1.33593,-3.984375 5.07422,-7.3125 9.80859,-7.3125 6.90234,0 9.31641,5.484375 9.31641,11.964844 v 23.10937 h 7.3125 V 99.567487 c 0,-13.886718 -8.64844,-17.214843 -14.05078,-17.214843 -2.74219,0 -5.32032,0.832031 -7.47657,2.085937 -2.25,1.242188 -4.07812,3.070313 -5.23828,5.144531 h -0.16406 V 64.493269 h -7.3125 z M 19.617228,185.2462 h 7.066406 v -54.02344 h -6.234375 l -11.8007809,6.31641 1.4062499,5.5664 9.398438,-5.0625 h 0.164062 z m 30.996094,0.83203 c 1.746094,0.082 4.066406,0 6.726562,-0.42188 5.824219,-0.65625 11.554688,-3.15234 15.714844,-7.23046 5.320313,-5.14454 9.304688,-13.45313 9.304688,-25.34766 0,-13.79297 -6.820313,-22.76953 -17.871094,-22.76953 -11.050781,0 -18.445313,8.97656 -18.445313,19.19531 0,9.23438 6.234375,16.54688 15.949219,16.54688 5.402344,0 9.726563,-2.16797 12.726563,-5.82422 h 0.246093 c -0.996093,6.39843 -3.574218,11.14453 -7.148437,14.3789 -3.082031,2.90625 -7.066406,4.65235 -11.308594,5.23828 -2.484375,0.2461 -4.3125,0.41016 -5.894531,0.2461 z M 63.914103,135.8751 c 7.640625,0 11.050781,7.06641 11.050781,16.28907 0,1.17187 -0.246093,2.0039 -0.667968,2.66015 -1.910157,3.2461 -5.730469,5.66016 -10.640625,5.66016 -6.316407,0 -10.382813,-4.74609 -10.382813,-11.47266 0,-7.65234 4.40625,-13.13672 10.640625,-13.13672 z m 55.924807,-5.48437 c -1.32422,0 -3.15235,0.082 -5.32031,0.42187 -6.8086,0.83204 -12.79688,3.57422 -17.285161,7.98047 -5.320312,5.3086 -9.140625,13.71094 -9.140625,24.35157 0,14.03906 7.558594,23.01562 19.113286,23.01562 11.22656,0 17.95312,-9.14062 17.95312,-19.03125 0,-10.55859 -6.72656,-17.44922 -16.28906,-17.44922 -5.97656,0 -10.464846,2.82422 -13.042971,6.23438 h -0.257812 c 1.253906,-8.89453 7.324223,-17.29688 18.785153,-19.20703 2.07422,-0.32813 3.9961,-0.41016 5.48438,-0.32813 z m -12.63281,50.12109 c -7.64063,0 -11.718755,-6.57422 -11.882817,-15.45703 0,-1.33594 0.328125,-2.41406 0.832031,-3.24609 1.992188,-3.90235 6.070316,-6.64453 10.476566,-6.64453 6.72656,0 11.13281,4.65234 11.13281,12.375 0,7.73437 -4.24219,12.97265 -10.55859,12.97265 z m 25.42968,-49.28906 v 6.07031 h 26.42578 v 0.16407 l -23.42578,47.78906 h 7.5586 l 23.51953,-49.19531 v -4.82813 z m 0,0" style="fill:#009944;fill-opacity:1;fill-rule:nonzero;stroke:none" aria-label="from&#10;november&#10;3rd to 24th&#10;1967" transform="matrix(1.3333333,0,0,1.3333333,74.742133,1382.1496)" />
      </g></svg>