<?xml version='1.0' encoding='utf-8'?>
<svg xmlns="http://www.w3.org/2000/svg" version="1.1" width="65.708" height="101.157" viewBox="2719.550 3955.790 65.708 101.157"><g id="object"><path id="path73" d="m 0,0 c -0.89,6.042 -1.927,11.845 -5.418,16.85 -1.899,2.723 -3.953,6.326 -7.633,5.239 -4.037,-1.192 -2.674,-5.557 -2.705,-8.63 -0.092,-9.14 0.287,-18.285 0.183,-27.425 -0.031,-2.726 -0.494,-5.364 2.504,-6.648 2.856,-1.222 4.847,0.538 6.88,2.351 C -0.578,-13.257 -1.712,-6.117 0,0 m 12.131,1.66 c 1.749,-26.81 -15.404,-37.319 -35.322,-34.432 -2.93,0.424 -4.781,1.145 -4.761,4.68 0.105,18.391 0.211,36.785 -0.073,55.173 -0.087,5.634 2.299,6.652 7.249,6.544 C -7.855,33.343 3.773,30.912 9.468,17.468 11.888,11.755 12.103,5.563 12.131,1.66" style="fill:#494f57;fill-opacity:1;fill-rule:nonzero;stroke:none" transform="matrix(1.3333333,0,0,-1.3333333,2762.9196,4006.6292)" />
      </g></svg>