<?xml version='1.0' encoding='utf-8'?>
<svg xmlns="http://www.w3.org/2000/svg" version="1.1" width="237.646" height="292.843" viewBox="1719.960 3959.460 237.646 292.843"><defs id="defs1"><clipPath clipPathUnits="userSpaceOnUse" id="clipPath37">
      <path d="M 0,3370.3901 H 2383.9401 V -2.5000001e-5 H 0 Z" id="path37" />
    </clipPath>
  </defs><g id="object"><path id="path6" d="M 0,0 C -0.002,9.98 -2.281,19.559 -13.901,20.274 -27.219,21.093 -24.62,9.621 -24.14,2.1 c 0.507,-7.917 -5.506,-20.844 9.402,-21.372 C -3.07,-19.686 -0.025,-10.225 0,0 m -39.936,65.444 c 20.136,-0.476 40.178,-0.62 60.334,-2.973 40.928,-4.779 62.842,-51.806 37.96,-86.268 -8.372,-11.596 -10.434,-15.178 -1.83,-30.718 12.62,-22.796 13.79,-52.553 14.045,-80.169 0.054,-5.787 -3.932,-8.954 -9.744,-9.369 -3.353,-0.24 -6.721,-0.284 -10.082,-0.429 -52.06,-2.231 -52.014,-2.231 -52.766,49.76 -0.097,6.693 -0.357,13.496 -1.653,20.027 -1.276,6.436 -6.41,10.099 -12.818,10.042 -8.78,-0.078 -6.929,-7.463 -7.922,-12.959 -2.692,-14.893 6.199,-27.602 7.563,-41.789 1.676,-17.438 -2.456,-27.845 -22.911,-25.336 -9.948,1.221 -20.17,0.161 -30.267,0.241 -27.069,0.213 -33.119,6.637 -25.727,33.509 5.767,20.964 9.21,41.145 -1.257,60.847 -5.674,10.679 6.353,14.435 6.203,22.477 -0.311,16.748 2.16,33.582 -2.374,50.175 -10.773,39.424 -7.897,43.073 33.05,42.935 6.732,-0.022 13.464,-0.003 20.196,-0.003" style="fill:#d7bb98;fill-opacity:1;fill-rule:nonzero;stroke:none" transform="matrix(1.3333333,0,0,-1.3333333,1857.5091,4052.7268)" />
      </g></svg>