<?xml version='1.0' encoding='utf-8'?>
<svg xmlns="http://www.w3.org/2000/svg" version="1.1" width="2190.966" height="337.665" viewBox="482.149 3447.400 2190.966 337.665"><g id="object"><path id="path3" d="m 0,0 c -15.502,-66.421 -29.931,-128.256 -44.366,-190.09 -1.629,-6.978 -3.746,-13.878 -4.832,-20.938 -1.848,-12.017 -7.376,-17.942 -20.55,-17.382 -20.519,0.871 -41.101,0.23 -65.496,0.23 6.288,30.017 11.9,56.814 17.885,85.386 h -96.191 c -5.531,-22.969 -11.717,-45.824 -16.341,-68.99 -2.52,-12.625 -8.53,-17.046 -21.079,-16.579 -20.493,0.763 -41.036,0.206 -65.197,0.206 12.325,54.12 23.907,105.033 35.536,155.934 0.886,3.877 2.211,7.65 3.161,11.514 16.716,67.985 21.094,70.768 95.461,58.37 -5.538,-25.98 -11.067,-51.918 -16.971,-79.615 h 96.113 c 5.603,23.1 10.256,45.628 16.928,67.541 1.76,5.78 9.492,13.375 14.935,13.762 C -48.959,0.917 -26.737,0 0,0" style="fill:#ffffff;fill-opacity:1;fill-rule:nonzero;stroke:none" transform="matrix(1.3333333,0,0,-1.3333333,2282.928,3465.0736)" />
      <path id="path4" d="m 0,0 c 0.922,38.109 -14.337,56.729 -47.38,57.813 -45.966,1.508 -78.064,-30.886 -79.037,-79.765 -0.706,-35.476 18.531,-56.9 52.101,-58.025 C -33.326,-81.35 -1.13,-46.703 0,0 m -83.934,-130.828 c -3.414,0.207 -11.412,0.281 -19.304,1.235 -45.331,5.481 -84.308,21.847 -100.363,68.645 -16.746,48.81 -1.165,91.79 33.065,127.144 46.919,48.461 149.6,59.358 207.745,24.48 C 78.241,66.063 92.9,13.782 73.387,-38.351 51.069,-97.976 -2.492,-130.391 -83.934,-130.828" style="fill:#ffffff;fill-opacity:1;fill-rule:nonzero;stroke:none" transform="matrix(1.3333333,0,0,-1.3333333,2557.8711,3602.5964)" />
      <path id="path5" d="m 0,0 c 26.801,0 49.67,-1.375 72.197,0.797 7.22,0.696 15.977,9.625 19.408,16.952 2.281,4.872 -2.995,19.33 -5.982,19.663 C 62.392,39.997 38.409,43.105 15.778,39.336 9.056,38.216 5.902,15.681 0,0 m -10.315,-53.045 c -5.859,-23.926 -10.238,-44.964 -16.499,-65.427 -1.855,-6.062 -8.703,-14.595 -13.792,-14.978 -22.004,-1.655 -44.204,-0.709 -70.47,-0.709 7.836,35.17 14.843,67.401 22.225,99.547 8.37,36.444 17.706,72.68 25.314,109.279 2.903,13.963 7.952,20.634 23.281,20.361 44.572,-0.794 89.167,-0.26 133.753,-0.426 5.534,-0.021 11.099,-0.909 16.591,-1.765 41.992,-6.541 63.663,-26.41 65.708,-60.104 2.307,-38.023 -22.303,-71.722 -60.941,-80.447 -16.894,-3.815 -34.653,-4.52 -52.072,-5.125 -23.752,-0.826 -47.555,-0.206 -73.098,-0.206" style="fill:#ffffff;fill-opacity:1;fill-rule:nonzero;stroke:none" transform="matrix(1.3333333,0,0,-1.3333333,636.25,3590.1452)" />
      <path id="path6" d="m 0,0 c 20.676,0 40.399,0.441 60.074,-0.326 4.62,-0.181 10.324,-3.387 13.408,-7.008 17.628,-20.699 42.67,-28.08 67.442,-16.847 6.641,3.012 13.67,11.458 14.702,18.29 0.667,4.409 -8.328,12.981 -14.598,15.251 -22.405,8.111 -45.512,14.276 -68.323,21.275 -25.265,7.753 -44.608,21.568 -47.931,50.04 -3.482,29.825 10.337,53.195 35.83,64.459 51.37,22.696 105.037,24.339 157.63,2.751 21.511,-8.83 33.421,-26.081 30.316,-53.996 -19.454,-1.744 -38.955,-3.921 -58.516,-4.928 -4.609,-0.238 -11.233,2.108 -13.843,5.584 -15.541,20.695 -36.855,15.134 -56.863,12.576 -5.469,-0.7 -13.597,-8.092 -14.016,-12.97 -0.408,-4.746 6.521,-12.941 11.929,-14.882 23.917,-8.584 48.348,-15.801 72.782,-22.859 24.776,-7.158 43.582,-20.247 47.39,-47.522 3.955,-28.331 -9.893,-49.437 -31.16,-65.705 C 165.409,-88.058 66.714,-89.233 23.613,-59.829 5.298,-47.334 -1.492,-32.268 0,0" style="fill:#ffffff;fill-opacity:1;fill-rule:nonzero;stroke:none" transform="matrix(1.3333333,0,0,-1.3333333,849.51907,3670.9428)" />
      <path id="path7" d="m 0,0 c -20.291,-2.09 -40.596,-4.522 -60.971,-5.975 -3.815,-0.272 -9.073,2.362 -11.697,5.371 -31.996,36.685 -81.97,35.219 -110.412,-3.566 -22.127,-30.173 -20.588,-74.674 3.247,-93.854 26.325,-21.184 70.635,-13.911 96.182,15.176 3.571,4.067 10.045,8.342 14.899,8.042 19.673,-1.213 39.238,-4.176 61.879,-6.853 -11.045,-30.369 -30.946,-49.122 -55.778,-62.312 -46.026,-24.448 -94.628,-25.934 -143.866,-11.287 -77.479,23.049 -90.92,122.249 -37.431,182.966 46.331,52.593 150.417,67.213 209.325,29.277 C -13.826,43.592 -2.781,26.27 0,0" style="fill:#ffffff;fill-opacity:1;fill-rule:nonzero;stroke:none" transform="matrix(1.3333333,0,0,-1.3333333,1872.2153,3558.4789)" />
      <path id="path8" d="m 0,0 c -37.755,-43.026 -74.938,-86.575 -113.53,-128.837 -16.751,-18.344 -28.912,-37.842 -30.621,-62.836 -1.577,-23.047 -11.429,-34.32 -36.437,-31.004 -16.299,2.162 -33.117,0.408 -50.904,0.408 0,6.389 -1.165,10.671 0.177,13.915 16.448,39.766 8.658,77.073 -7.872,115.089 -13.245,30.459 -22.198,62.785 -34.582,98.712 27.651,0 52.687,0.905 77.545,-0.794 4.747,-0.324 10.762,-10.31 12.805,-16.89 7.06,-22.744 12.623,-45.952 20.154,-74.231 19.362,25.219 37.493,45.928 52.172,68.848 12.424,19.398 27.78,25.996 49.848,24.26 C -41.699,5.103 -21.937,6.318 -2.27,6.318 -1.513,4.212 -0.757,2.106 0,0" style="fill:#ffffff;fill-opacity:1;fill-rule:nonzero;stroke:none" transform="matrix(1.3333333,0,0,-1.3333333,1552.04,3472.7227)" />
      </g></svg>