<?xml version='1.0' encoding='utf-8'?>
<svg xmlns="http://www.w3.org/2000/svg" version="1.1" width="53.748" height="101.198" viewBox="1161.080 4361.230 53.748 101.198"><g id="object"><path id="path152" d="m 0,0 c 2.339,-0.953 5.145,0.202 7.439,-1.582 2.285,-1.776 3.586,-4.022 2.634,-6.771 -0.958,-2.764 -3.166,-1.677 -5.347,-1.333 -3.866,0.609 -7.304,-0.436 -9.503,-4.171 -2.205,-3.745 -0.667,-6.712 1.53,-9.756 2.83,-3.92 6.983,-6.298 10.498,-9.416 9.637,-8.546 9.972,-22.431 0.781,-30.5 -3.734,-3.278 -14.371,-4.425 -18.615,-2.269 -3.59,1.823 -3.374,5.132 -2.858,7.951 0.573,3.137 3.351,1.573 5.188,1.083 4.873,-1.297 8.419,0.493 10.689,4.664 2.316,4.255 0.394,7.644 -2.795,10.677 -4.553,4.33 -10.473,6.969 -13.513,13.218 -4.884,10.041 -3.256,18.962 5.206,25.935 C -5.874,0.031 -2.984,-0.546 0,0" style="fill:#c33c36;fill-opacity:1;fill-rule:nonzero;stroke:none" transform="matrix(1.3333333,0,0,-1.3333333,1189.2139,4367.2325)" />
      </g></svg>