<?xml version='1.0' encoding='utf-8'?>
<svg xmlns="http://www.w3.org/2000/svg" version="1.1" width="936.961" height="176.312" viewBox="205.926 3576.600 936.961 176.312"><g id="object"><path id="path12" d="M 35.344736,-21.233777 H 22.020517 v 4.195313 h 8.214844 v 12.0585937 c -1.195313,0.5976562 -3.539063,1.078125 -6.949219,1.078125 -9.421875,0 -15.6093748,-6.0585938 -15.6093748,-16.3124997 0,-10.148438 6.4218748,-16.265625 16.2656248,-16.265625 4.078125,0 6.773438,0.785156 8.941406,1.746093 l 1.253907,-4.265625 c -1.734375,-0.84375 -5.402344,-1.863281 -10.078125,-1.863281 -13.558594,0 -21.8437503,8.824219 -21.9023441,20.882813 0,6.304687 2.1679688,11.6953122 5.6484375,15.0585934 3.9609376,3.7851563 8.9999996,5.34375004 15.1171876,5.34375004 5.460937,0 10.078125,-1.3828125 12.421875,-2.22656254 z m 31.429687,7.675782 c 0.07031,-0.539063 0.1875,-1.382813 0.1875,-2.460938 0,-5.34375 -2.519531,-13.675781 -12,-13.675781 -8.460937,0 -13.617187,6.890625 -13.617187,15.65625 0,8.7539062 5.332031,14.63671869 14.273437,14.63671869 4.617188,0 7.804688,-0.9609375 9.65625,-1.79296879 l -0.890625,-3.7851562 c -1.980468,0.84375 -4.265625,1.5 -8.039062,1.5 -5.285156,0 -9.84375,-2.9414063 -9.960938,-10.0781247 z m -20.332031,-3.785157 c 0.421875,-3.65625 2.753906,-8.578125 8.097656,-8.578125 5.941407,0 7.382813,5.226563 7.324219,8.578125 z M 73.503916,5.984375e-4 h 5.15625 V -17.518933 c 0,-0.902344 0.117187,-1.804687 0.421875,-2.578125 0.84375,-2.636719 3.234375,-5.285156 6.539062,-5.285156 4.019531,0 6.058594,3.363281 6.058594,7.980469 V 5.984375e-4 h 5.15625 V -17.940808 c 0,-0.960937 0.1875,-1.921875 0.421875,-2.636719 0.902344,-2.578125 3.246098,-4.804687 6.246098,-4.804687 4.2539,0 6.29296,3.363281 6.29296,8.941406 V 5.984375e-4 h 5.16797 V -17.097058 c 0,-10.078125 -5.70703,-12.597656 -9.53906,-12.597656 -2.76562,0 -4.6875,0.714844 -6.421874,2.039062 -1.207032,0.890625 -2.34375,2.15625 -3.246094,3.773438 h -0.117188 c -1.253906,-3.421875 -4.253906,-5.8125 -8.214843,-5.8125 -4.804688,0 -7.5,2.578125 -9.128907,5.332031 h -0.175781 l -0.234375,-4.675781 h -4.628906 c 0.1875,2.402344 0.246094,4.863281 0.246094,7.863281 z m 70.921874,0 C 144.06251,-1.9798703 143.94532,-4.4408078 143.94532,-6.9603391 V -17.82362 c 0,-5.8125 -2.16797,-11.871094 -11.05078,-11.871094 -3.65625,0 -7.13672,1.019531 -9.53906,2.578125 l 1.20703,3.480469 c 2.03906,-1.324219 4.86328,-2.167969 7.55859,-2.167969 5.94141,0 6.59766,4.324219 6.59766,6.726562 v 0.597657 c -11.21484,-0.05859 -17.46094,3.785156 -17.46094,10.8046872 0,4.1953125 3,8.33203124 8.88281,8.33203124 4.13672,0 7.25391,-2.03906254 8.88282,-4.31250004 h 0.17578 L 139.6211,5.984375e-4 Z M 138.83595,-9.7845578 c 0,0.5507812 -0.11719,1.1484375 -0.29297,1.6875 -0.84375,2.4609375 -3.2461,4.8632812 -7.01953,4.8632812 -2.70703,0 -4.98047,-1.6289062 -4.98047,-5.0507812 0,-5.6367192 6.53906,-6.6562502 12.29297,-6.5390622 z m 13.62597,9.7851562375 h 5.27344 V -17.460339 c 0,-0.902344 0.12891,-1.804688 0.36328,-2.460938 0.90235,-2.941406 3.59766,-5.402343 7.07813,-5.402343 4.98047,0 6.72656,3.902343 6.72656,8.589843 V 5.984375e-4 h 5.27344 V -17.343152 c 0,-9.960937 -6.23438,-12.351562 -10.25391,-12.351562 -4.80469,0 -8.16797,2.695312 -9.60937,5.460937 h -0.11719 l -0.29297,-4.804687 h -4.6875 c 0.1875,2.402344 0.24609,4.863281 0.24609,7.863281 z M 198.59864,-40.440808 v 23.824219 c 0,12.5390624 6.23438,17.27343744 14.51953,17.27343744 8.76563,0 15.30469,-5.09765624 15.30469,-17.51953144 v -23.578125 h -5.28516 v 23.941406 c 0,8.9414067 -3.84375,12.9023442 -9.84375,12.9023442 -5.39062,0 -9.41015,-3.84375 -9.41015,-12.9023442 v -23.941406 z m 38.7041,40.4414064375 h 5.27344 V -17.460339 c 0,-0.902344 0.12891,-1.804688 0.36328,-2.460938 0.90235,-2.941406 3.59766,-5.402343 7.07813,-5.402343 4.98047,0 6.72656,3.902343 6.72656,8.589843 V 5.984375e-4 h 5.27344 V -17.343152 c 0,-9.960937 -6.23438,-12.351562 -10.25391,-12.351562 -4.80469,0 -8.16797,2.695312 -9.60937,5.460937 h -0.11719 l -0.29297,-4.804687 h -4.6875 c 0.1875,2.402344 0.24609,4.863281 0.24609,7.863281 z m 38.57227,0 V -29.038464 h -5.27344 V 5.984375e-4 Z M 273.23829,-40.499402 c -1.92187,0 -3.30469,1.441407 -3.30469,3.304688 0,1.792969 1.32422,3.234375 3.1875,3.234375 2.09766,0 3.42188,-1.441406 3.36328,-3.234375 0,-1.863281 -1.26562,-3.304688 -3.24609,-3.304688 z m 7.80762,11.460938 11.03906,29.0390624375 h 5.03906 L 308.52638,-29.038464 h -5.53125 l -5.63672,16.324219 c -0.96094,2.636718 -1.79297,5.0390622 -2.46094,7.4296872 h -0.17578 c -0.59766,-2.390625 -1.38281,-4.7929692 -2.34375,-7.4296872 l -5.69531,-16.324219 z m 55.18945,15.480469 c 0.0703,-0.539063 0.1875,-1.382813 0.1875,-2.460938 0,-5.34375 -2.51953,-13.675781 -12,-13.675781 -8.46094,0 -13.61719,6.890625 -13.61719,15.65625 0,8.7539062 5.33203,14.63671869 14.27344,14.63671869 4.61719,0 7.80469,-0.9609375 9.65625,-1.79296879 l -0.89062,-3.7851562 c -1.98047,0.84375 -4.26563,1.5 -8.03907,1.5 -5.28515,0 -9.84375,-2.9414063 -9.96093,-10.0781247 z m -20.33203,-3.785157 c 0.42187,-3.65625 2.75391,-8.578125 8.09766,-8.578125 5.9414,0 7.38281,5.226563 7.32421,8.578125 z M 342.96192,5.984375e-4 h 5.21485 V -15.47987 c 0,-0.902344 0.11718,-1.734375 0.24609,-2.460938 0.71484,-3.960937 3.35156,-6.773437 7.07813,-6.773437 0.71484,0 1.2539,0.05859 1.79296,0.175781 v -4.980469 c -0.48046,-0.117187 -0.89062,-0.175781 -1.5,-0.175781 -3.53906,0 -6.71484,2.460937 -8.03906,6.351562 h -0.23437 l -0.17578,-5.695312 h -4.62891 c 0.1875,2.695312 0.24609,5.636719 0.24609,9.058594 z M 360.54298,-1.3822141 c 2.03906,1.20703129 4.98047,1.98046879 8.15625,1.98046879 6.90234,0 10.86328,-3.59765629 10.86328,-8.69531249 0,-4.3242192 -2.57813,-6.8437502 -7.62891,-8.7656252 -3.77343,-1.441406 -5.51953,-2.519531 -5.51953,-4.921875 0,-2.15625 1.7461,-3.949219 4.86328,-3.949219 2.70703,0 4.80469,0.949219 5.94141,1.675782 l 1.32422,-3.84375 c -1.62891,-0.960938 -4.20703,-1.792969 -7.14844,-1.792969 -6.23437,0 -10.01953,3.832031 -10.01953,8.519531 0,3.480469 2.46094,6.351563 7.6875,8.214844 3.90234,1.441406 5.40234,2.824219 5.40234,5.3437499 0,2.4023438 -1.80468,4.3125 -5.64843,4.3125 -2.63672,0 -5.40235,-1.078125 -6.96094,-2.0976562 z M 407.22462,5.984375e-4 C 406.86134,-1.9798703 406.74415,-4.4408078 406.74415,-6.9603391 V -17.82362 c 0,-5.8125 -2.16797,-11.871094 -11.05078,-11.871094 -3.65625,0 -7.13672,1.019531 -9.53906,2.578125 l 1.20703,3.480469 c 2.03906,-1.324219 4.86328,-2.167969 7.55859,-2.167969 5.94141,0 6.59766,4.324219 6.59766,6.726562 v 0.597657 c -11.21485,-0.05859 -17.46094,3.785156 -17.46094,10.8046872 0,4.1953125 3,8.33203124 8.88281,8.33203124 4.13672,0 7.25391,-2.03906254 8.88281,-4.31250004 h 0.17579 l 0.42187,3.6562500375 z M 401.63477,-9.7845578 c 0,0.5507812 -0.11718,1.1484375 -0.29296,1.6875 -0.84375,2.4609375 -3.2461,4.8632812 -7.01954,4.8632812 -2.70703,0 -4.98046,-1.6289062 -4.98046,-5.0507812 0,-5.6367192 6.53906,-6.6562502 12.29296,-6.5390622 z m 13.62891,9.7851562375 h 5.27344 V -42.597058 h -5.27344 z M 463.26075,-23.284558 h -15.71484 v -12.773437 h 16.61719 v -4.382813 H 442.31935 V 5.984375e-4 h 22.74609 V -4.3822141 H 447.54591 V -18.960339 h 15.71484 z m 4.98047,-5.753906 9.84375,14.214844 -10.32422,14.8242184375 h 5.82422 L 477.78028,-6.5384641 c 1.07813,-1.7460937 2.09766,-3.3046875 3.0586,-5.0390629 h 0.11718 c 1.01954,1.7343754 1.98047,3.3632817 3.12891,5.0390629 l 4.25391,6.5390625375 h 6 L 484.14356,-14.999402 l 9.90235,-14.039062 h -5.70703 l -4.07813,6.175781 c -0.96094,1.558594 -1.92187,3.058594 -2.88281,4.804688 h -0.17578 c -0.96094,-1.617188 -1.86328,-3.117188 -2.94141,-4.746094 l -4.13672,-6.234375 z m 31.20117,40.921875 h 5.21485 V -3.9017453 h 0.11718 c 1.7461,2.8828125 5.10938,4.55859374 8.94141,4.55859374 6.84375,0 13.20703,-5.15625004 13.20703,-15.59765644 0,-8.824219 -5.28516,-14.753906 -12.30469,-14.753906 -4.73437,0 -8.15625,2.097656 -10.32422,5.636719 h -0.11718 l -0.23438,-4.980469 h -4.74609 c 0.1289,2.753906 0.24609,5.753906 0.24609,9.480469 z m 5.21485,-28.6875 c 0,-0.714844 0.1875,-1.5 0.36328,-2.15625 1.01953,-3.960938 4.38281,-6.539063 7.98047,-6.539063 5.57812,0 8.63671,4.980469 8.63671,10.804688 0,6.6562499 -3.23437,11.2148437 -8.8125,11.2148437 -3.78515,0 -6.96093,-2.5195313 -7.92187,-6.1757813 -0.12891,-0.6679684 -0.24609,-1.3828124 -0.24609,-2.1679684 z m 41.21777,-12.890625 c -8.03906,0 -14.39063,5.695312 -14.39063,15.410156 0,9.1875002 6.0586,14.94140644 13.91016,14.94140644 7.01953,0 14.46094,-4.67578124 14.46094,-15.42187544 0,-8.871093 -5.63672,-14.929687 -13.98047,-14.929687 z m -0.11719,3.960937 c 6.2461,0 8.70703,6.234375 8.70703,11.15625 0,6.5390629 -3.78515,11.2734379 -8.82422,11.2734379 -5.15625,0 -8.82421,-4.7929687 -8.82421,-11.1562499 0,-5.519531 2.70703,-11.273438 8.9414,-11.273438 z m 18.72656,24.3515629 c 2.03907,1.20703129 4.98047,1.98046879 8.15625,1.98046879 6.90235,0 10.86329,-3.59765629 10.86329,-8.69531249 0,-4.3242192 -2.57813,-6.8437502 -7.62891,-8.7656252 -3.77344,-1.441406 -5.51953,-2.519531 -5.51953,-4.921875 0,-2.15625 1.74609,-3.949219 4.86328,-3.949219 2.70703,0 4.80469,0.949219 5.94141,1.675782 l 1.32421,-3.84375 c -1.6289,-0.960938 -4.20703,-1.792969 -7.14843,-1.792969 -6.23438,0 -10.01953,3.832031 -10.01953,8.519531 0,3.480469 2.46093,6.351563 7.6875,8.214844 3.90234,1.441406 5.40234,2.824219 5.40234,5.3437499 0,2.4023438 -1.80469,4.3125 -5.64844,4.3125 -2.63672,0 -5.40234,-1.078125 -6.96094,-2.0976562 z M 595.55665,5.984375e-4 V -29.038464 h -5.27344 V 5.984375e-4 Z M 592.91993,-40.499402 c -1.92187,0 -3.30469,1.441407 -3.30469,3.304688 0,1.792969 1.32422,3.234375 3.1875,3.234375 2.09766,0 3.42188,-1.441406 3.36328,-3.234375 0,-1.863281 -1.26562,-3.304688 -3.24609,-3.304688 z m 12.59766,4.5 v 6.960938 h -4.5 v 4.019531 h 4.5 v 15.8437502 c 0,3.4101562 0.53906,6 2.03906,7.5585937 1.26562,1.44140629 3.24609,2.21484379 5.70703,2.21484379 2.03906,0 3.65625,-0.29296875 4.67578,-0.71484375 l -0.23437,-3.96093754 c -0.66797,0.1757813 -1.6875,0.3632813 -3.07032,0.3632813 -2.92968,0 -3.96093,-2.0507813 -3.96093,-5.6484375 V -25.018933 h 7.57031 v -4.019531 h -7.57031 v -8.34375 z M 629.45606,5.984375e-4 V -29.038464 h -5.27343 V 5.984375e-4 Z M 626.81935,-40.499402 c -1.92188,0 -3.30469,1.441407 -3.30469,3.304688 0,1.792969 1.32422,3.234375 3.1875,3.234375 2.09765,0 3.42187,-1.441406 3.36328,-3.234375 0,-1.863281 -1.26563,-3.304688 -3.24609,-3.304688 z m 23.69531,10.804688 c -8.03906,0 -14.39063,5.695312 -14.39063,15.410156 0,9.1875002 6.0586,14.94140644 13.91016,14.94140644 7.01953,0 14.46094,-4.67578124 14.46094,-15.42187544 0,-8.871093 -5.63672,-14.929687 -13.98047,-14.929687 z m -0.11719,3.960937 c 6.24609,0 8.70703,6.234375 8.70703,11.15625 0,6.5390629 -3.78515,11.2734379 -8.82422,11.2734379 -5.15625,0 -8.82422,-4.7929687 -8.82422,-11.1562499 0,-5.519531 2.70704,-11.273438 8.94141,-11.273438 z M 671.1631,5.984375e-4 h 5.27343 V -17.460339 c 0,-0.902344 0.12891,-1.804688 0.36328,-2.460938 0.90235,-2.941406 3.59766,-5.402343 7.07813,-5.402343 4.98047,0 6.72656,3.902343 6.72656,8.589843 V 5.984375e-4 h 5.27344 V -17.343152 c 0,-9.960937 -6.23438,-12.351562 -10.25391,-12.351562 -4.80468,0 -8.16797,2.695312 -9.60937,5.460937 h -0.11719 l -0.29297,-4.804687 h -4.6875 c 0.1875,2.402344 0.2461,4.863281 0.2461,7.863281 z M 4.5595797,79.981067 H 9.7861422 V 63.785755 c 1.1953128,0.292968 2.6367188,0.351562 4.1953128,0.351562 5.097656,0 9.597656,-1.5 12.363281,-4.441406 2.039062,-2.097656 3.117187,-4.980469 3.117187,-8.636719 0,-3.597656 -1.324218,-6.539062 -3.539062,-8.460937 -2.402344,-2.15625 -6.1875,-3.351563 -11.34375,-3.351563 -4.195313,0 -7.5000001,0.351563 -10.0195313,0.773438 z M 9.7861422,43.805286 c 0.8906248,-0.246094 2.6367188,-0.421875 4.9101558,-0.421875 5.765625,0 9.539063,2.578125 9.539063,7.921875 0,5.578125 -3.832031,8.636719 -10.136719,8.636719 -1.734375,0 -3.175781,-0.117188 -4.3124998,-0.421875 z M 55.626962,79.981067 C 55.263681,78.000598 55.146494,75.539661 55.146494,73.02013 V 62.156848 c 0,-5.8125 -2.167969,-11.871093 -11.050782,-11.871093 -3.65625,0 -7.136718,1.019531 -9.539062,2.578125 l 1.207031,3.480468 c 2.039063,-1.324218 4.863281,-2.167968 7.558594,-2.167968 5.941406,0 6.597656,4.324218 6.597656,6.726562 v 0.597656 c -11.214844,-0.05859 -17.460937,3.785157 -17.460937,10.804688 0,4.195312 3,8.332031 8.882812,8.332031 4.136719,0 7.253906,-2.039062 8.882813,-4.3125 H 50.4004 l 0.421875,3.65625 z m -5.589843,-9.785156 c 0,0.550781 -0.117188,1.148437 -0.292969,1.6875 -0.84375,2.460937 -3.246094,4.863281 -7.019531,4.863281 -2.707032,0 -4.980469,-1.628906 -4.980469,-5.050781 0,-5.636719 6.539062,-6.65625 12.292969,-6.539063 z M 59.58497,50.942005 70.624033,79.981067 h 5.039062 L 87.065439,50.942005 h -5.53125 L 75.89747,67.266223 c -0.960937,2.636719 -1.792968,5.039063 -2.460937,7.429688 h -0.175781 c -0.597657,-2.390625 -1.382813,-4.792969 -2.34375,-7.429688 L 65.221689,50.942005 Z M 97.316416,79.981067 V 50.942005 h -5.273438 v 29.039062 z m -2.636719,-40.5 c -1.921875,0 -3.304688,1.441406 -3.304688,3.304688 0,1.792968 1.324219,3.234375 3.1875,3.234375 2.097657,0 3.421875,-1.441407 3.363282,-3.234375 0,-1.863282 -1.265625,-3.304688 -3.246094,-3.304688 z m 23.695313,10.804688 c -8.03906,0 -14.39063,5.695312 -14.39063,15.410156 0,9.1875 6.0586,14.941406 13.91016,14.941406 7.01953,0 14.46094,-4.675781 14.46094,-15.421875 0,-8.871094 -5.63672,-14.929687 -13.98047,-14.929687 z m -0.11719,3.960937 c 6.2461,0 8.70703,6.234375 8.70703,11.15625 0,6.539063 -3.78515,11.273438 -8.82422,11.273438 -5.15625,0 -8.82421,-4.792969 -8.82421,-11.15625 0,-5.519532 2.70703,-11.273438 8.9414,-11.273438 z m 20.76563,25.734375 h 5.27343 V 62.52013 c 0,-0.902344 0.12891,-1.804688 0.36329,-2.460938 0.90234,-2.941406 3.59765,-5.402344 7.07812,-5.402344 4.98047,0 6.72656,3.902344 6.72656,8.589844 v 16.734375 h 5.27344 v -17.34375 c 0,-9.960937 -6.23437,-12.351562 -10.25391,-12.351562 -4.80468,0 -8.16796,2.695312 -9.60937,5.460937 h -0.11719 l -0.29297,-4.804687 h -4.6875 c 0.1875,2.402343 0.2461,4.863281 0.2461,7.863281 z m 46.19531,-0.117187 c 1.74609,0.234375 4.5,0.480468 8.09766,0.480468 6.60937,0 11.16796,-1.207031 13.98046,-3.785156 2.03907,-1.980469 3.42188,-4.617187 3.42188,-8.097656 0,-6 -4.5,-9.175781 -8.34375,-10.136719 v -0.128906 c 4.26562,-1.558594 6.84375,-4.980469 6.84375,-8.871094 0,-3.1875 -1.25391,-5.578125 -3.36328,-7.148437 -2.51953,-2.039063 -5.8711,-2.929688 -11.09766,-2.929688 -3.65625,0 -7.2539,0.351563 -9.53906,0.832031 z m 5.22656,-36.246094 c 0.83203,-0.175781 2.21485,-0.351563 4.61719,-0.351563 5.27344,0 8.88281,1.851563 8.88281,6.597657 0,3.902343 -3.24609,6.773437 -8.76562,6.773437 h -4.73438 z m 0,16.980469 h 4.3125 c 5.70703,0 10.44141,2.285156 10.44141,7.804687 0,5.882813 -4.98047,7.863281 -10.38281,7.863281 -1.85157,0 -3.35157,-0.07031 -4.3711,-0.246093 z m 48,19.382812 c -0.36328,-1.980469 -0.48047,-4.441406 -0.48047,-6.960937 V 62.156848 c 0,-5.8125 -2.16797,-11.871093 -11.05078,-11.871093 -3.65625,0 -7.13672,1.019531 -9.53906,2.578125 l 1.20703,3.480468 c 2.03906,-1.324218 4.86328,-2.167968 7.55859,-2.167968 5.94141,0 6.59766,4.324218 6.59766,6.726562 v 0.597656 c -11.21484,-0.05859 -17.46094,3.785157 -17.46094,10.804688 0,4.195312 3,8.332031 8.88282,8.332031 4.13671,0 7.2539,-2.039062 8.88281,-4.3125 h 0.17578 l 0.42187,3.65625 z m -5.58984,-9.785156 c 0,0.550781 -0.11719,1.148437 -0.29297,1.6875 -0.84375,2.460937 -3.24609,4.863281 -7.01953,4.863281 -2.70703,0 -4.98047,-1.628906 -4.98047,-5.050781 0,-5.636719 6.53906,-6.65625 12.29297,-6.539063 z m 13.62597,9.785156 h 5.21485 V 64.500598 c 0,-0.902343 0.11719,-1.734375 0.24609,-2.460937 0.71485,-3.960938 3.35156,-6.773438 7.07813,-6.773438 0.71484,0 1.2539,0.05859 1.79297,0.175782 v -4.980469 c -0.48047,-0.117188 -0.89063,-0.175781 -1.5,-0.175781 -3.53907,0 -6.71485,2.460937 -8.03907,6.351562 h -0.23437 l -0.17578,-5.695312 h -4.62891 c 0.1875,2.695312 0.24609,5.636718 0.24609,9.058593 z m 31.31543,-29.695312 c -8.03906,0 -14.39062,5.695312 -14.39062,15.410156 0,9.1875 6.05859,14.941406 13.91016,14.941406 7.01953,0 14.46093,-4.675781 14.46093,-15.421875 0,-8.871094 -5.63672,-14.929687 -13.98047,-14.929687 z m -0.11718,3.960937 c 6.24609,0 8.70703,6.234375 8.70703,11.15625 0,6.539063 -3.78516,11.273438 -8.82422,11.273438 -5.15625,0 -8.82422,-4.792969 -8.82422,-11.15625 0,-5.519532 2.70703,-11.273438 8.94141,-11.273438 z m 44.09472,12.175781 c 0.0703,-0.539062 0.1875,-1.382812 0.1875,-2.460937 0,-5.34375 -2.51953,-13.675781 -12,-13.675781 -8.46093,0 -13.61718,6.890625 -13.61718,15.65625 0,8.753906 5.33203,14.636718 14.27343,14.636718 4.61719,0 7.80469,-0.960937 9.65625,-1.792968 l -0.89062,-3.785157 c -1.98047,0.84375 -4.26563,1.5 -8.03906,1.5 -5.28516,0 -9.84375,-2.941406 -9.96094,-10.078125 z m -20.33203,-3.785156 c 0.42188,-3.65625 2.75391,-8.578125 8.09766,-8.578125 5.9414,0 7.38281,5.226563 7.32422,8.578125 z m 39.35449,-12.351562 c -8.03906,0 -14.39062,5.695312 -14.39062,15.410156 0,9.1875 6.05859,14.941406 13.91016,14.941406 7.01953,0 14.46093,-4.675781 14.46093,-15.421875 0,-8.871094 -5.63672,-14.929687 -13.98047,-14.929687 z m -0.11718,3.960937 c 6.24609,0 8.70703,6.234375 8.70703,11.15625 0,6.539063 -3.78516,11.273438 -8.82422,11.273438 -5.15625,0 -8.82422,-4.792969 -8.82422,-11.15625 0,-5.519532 2.70703,-11.273438 8.94141,-11.273438 z m 20.76269,25.734375 h 5.27344 V 62.52013 c 0,-0.902344 0.12891,-1.804688 0.36328,-2.460938 0.90234,-2.941406 3.59766,-5.402344 7.07813,-5.402344 4.98046,0 6.72656,3.902344 6.72656,8.589844 v 16.734375 h 5.27344 v -17.34375 c 0,-9.960937 -6.23438,-12.351562 -10.25391,-12.351562 -4.80469,0 -8.16797,2.695312 -9.60938,5.460937 h -0.11718 l -0.29297,-4.804687 h -4.6875 c 0.1875,2.402343 0.24609,4.863281 0.24609,7.863281 z m 54.18457,0 c -0.36328,-1.980469 -0.48047,-4.441406 -0.48047,-6.960937 V 62.156848 c 0,-5.8125 -2.16797,-11.871093 -11.05078,-11.871093 -3.65625,0 -7.13672,1.019531 -9.53906,2.578125 l 1.20703,3.480468 c 2.03906,-1.324218 4.86328,-2.167968 7.55859,-2.167968 5.94141,0 6.59766,4.324218 6.59766,6.726562 v 0.597656 c -11.21484,-0.05859 -17.46094,3.785157 -17.46094,10.804688 0,4.195312 3,8.332031 8.88282,8.332031 4.13671,0 7.2539,-2.039062 8.88281,-4.3125 h 0.17578 l 0.42187,3.65625 z m -5.58984,-9.785156 c 0,0.550781 -0.11719,1.148437 -0.29297,1.6875 -0.84375,2.460937 -3.24609,4.863281 -7.01953,4.863281 -2.70703,0 -4.98047,-1.628906 -4.98047,-5.050781 0,-5.636719 6.53906,-6.65625 12.29297,-6.539063 z m 0,0" style="fill:#dcdddd;fill-opacity:1;fill-rule:nonzero;stroke:none" aria-label="Geman Universal Exposition &#10;Pavion Baroeona" transform="matrix(1.3333333,0,0,1.3333333,209.04947,3639.3937)" />
      </g></svg>