<?xml version='1.0' encoding='utf-8'?>
<svg xmlns="http://www.w3.org/2000/svg" version="1.1" width="93.855" height="51.501" viewBox="191.401 298.920 93.855 51.501"><g id="object"><path id="path12" d="m 1.9228047,-21.948606 v 2.472656 H 12.65718 v 0.05859 L 3.1415547,6.125e-4 H 6.2118672 L 15.762648,-19.991575 v -1.957031 z M 19.77925,6.6803 h 2.941406 v -8.8710938 h 0.07031 c 0.972656,1.61718755 2.871093,2.5664063 5.027343,2.5664063 3.84375,0 7.429688,-2.90625 7.429688,-8.7773438 0,-4.9687497 -2.976563,-8.3085937 -6.925781,-8.3085937 -2.660157,0 -4.59375,1.183594 -5.800782,3.175781 h -0.07031 L 22.3105,-16.335325 h -2.660156 c 0.07031,1.546875 0.128906,3.234375 0.128906,5.332031 z m 2.941406,-16.1367188 c 0,-0.3984375 0.105469,-0.8437502 0.199219,-1.2070312 0.574219,-2.238281 2.472656,-3.679688 4.488281,-3.679688 3.140625,0 4.863281,2.800782 4.863281,6.070313 0,3.75 -1.816406,6.3164062 -4.957031,6.3164062 -2.132812,0 -3.914062,-1.4179687 -4.464844,-3.4804687 -0.05859,-0.375 -0.128906,-0.7734375 -0.128906,-1.21875 z M 38.986281,6.125e-4 h 2.90625 v -9.8554688 c 0,-0.5039067 0.07031,-1.0195317 0.234375,-1.4531247 0.480469,-1.488282 1.828125,-2.976563 3.679688,-2.976563 2.261718,0 3.410156,1.898438 3.410156,4.5000002 V 6.125e-4 H 52.123 V -10.089231 c 0,-0.550782 0.105469,-1.089844 0.234375,-1.488282 0.503906,-1.453125 1.828125,-2.707031 3.515625,-2.707031 2.390625,0 3.539062,1.898438 3.539062,5.0390627 V 6.125e-4 h 2.90625 v -9.6210938 c 0,-5.6718747 -3.210937,-7.0898437 -5.367187,-7.0898437 -1.558594,0 -2.636719,0.398437 -3.609375,1.148437 -0.679688,0.503907 -1.324219,1.21875 -1.828125,2.121094 h -0.07031 c -0.703125,-1.921875 -2.390625,-3.269531 -4.617187,-3.269531 -2.707031,0 -4.21875,1.453125 -5.132813,3 h -0.105468 l -0.128907,-2.625 h -2.601562 c 0.09375,1.347656 0.128906,2.730469 0.128906,4.417969 z m 0,0" style="fill:#231916;fill-opacity:1;fill-rule:nonzero;stroke:none" aria-label="7pm" transform="matrix(1.3333333,0,0,1.3333333,195.50267,334.84293)" />
      <path id="path13" d="m 0,0 v -2.464 h 10.735 v -0.068 l -9.52,-19.41 h 3.072 l 9.554,19.984 V 0 Z" style="fill:none;stroke:#231916;stroke-width:1;stroke-linecap:butt;stroke-linejoin:miter;stroke-miterlimit:10;stroke-dasharray:none;stroke-opacity:1" transform="matrix(1.3333333,0,0,-1.3333333,198.068,305.5864)" />
      <path id="path14" d="m 0,0 h 2.937 v 8.878 h 0.067 c 0.979,-1.62 2.87,-2.565 5.03,-2.565 3.849,0 7.427,2.903 7.427,8.777 0,4.962 -2.971,8.304 -6.92,8.304 -2.667,0 -4.591,-1.181 -5.807,-3.173 H 2.667 L 2.532,23.023 H -0.135 C -0.068,21.47 0,19.782 0,17.689 Z m 2.937,16.136 c 0,0.406 0.101,0.844 0.202,1.216 0.574,2.228 2.465,3.679 4.49,3.679 3.14,0 4.861,-2.802 4.861,-6.076 0,-3.747 -1.823,-6.313 -4.962,-6.313 -2.127,0 -3.916,1.418 -4.456,3.477 -0.068,0.371 -0.135,0.777 -0.135,1.215 z" style="fill:none;stroke:#231916;stroke-width:1;stroke-linecap:butt;stroke-linejoin:miter;stroke-miterlimit:10;stroke-dasharray:none;stroke-opacity:1" transform="matrix(1.3333333,0,0,-1.3333333,221.87787,343.75507)" />
      <path id="path15" d="m 0,0 h 2.903 v 9.857 c 0,0.507 0.068,1.013 0.236,1.452 0.473,1.485 1.823,2.97 3.68,2.97 2.262,0 3.41,-1.89 3.41,-4.489 V 0 h 2.903 v 10.094 c 0,0.54 0.101,1.08 0.236,1.485 0.506,1.451 1.823,2.7 3.511,2.7 2.397,0 3.545,-1.89 3.545,-5.029 V 0 h 2.902 v 9.621 c 0,5.671 -3.207,7.089 -5.367,7.089 -1.553,0 -2.633,-0.405 -3.612,-1.147 -0.675,-0.507 -1.316,-1.216 -1.823,-2.127 H 12.457 C 11.748,15.36 10.06,16.71 7.832,16.71 5.131,16.71 3.612,15.258 2.701,13.706 H 2.599 L 2.464,16.339 H -0.135 C -0.034,14.988 0,13.604 0,11.917 Z" style="fill:none;stroke:#231916;stroke-width:1;stroke-linecap:butt;stroke-linejoin:miter;stroke-miterlimit:10;stroke-dasharray:none;stroke-opacity:1" transform="matrix(1.3333333,0,0,-1.3333333,247.48827,334.84293)" />
      </g></svg>