<?xml version='1.0' encoding='utf-8'?>
<svg xmlns="http://www.w3.org/2000/svg" version="1.1" width="57.039" height="104.304" viewBox="2615.110 3954.190 57.039 104.304"><g id="object"><path id="path120" d="m 0,0 c -8.556,0.45 -12.097,3.35 -11.171,9.141 0.497,3.108 1.152,5.432 5.437,4.052 4.533,-1.46 9.322,-1.17 11.529,3.933 2.043,4.724 -1.178,8.14 -4.413,11.034 -2.992,2.677 -6.243,5.074 -9.444,7.509 -6.778,5.157 -6.426,12.369 -5.103,19.44 1.235,6.601 4.931,11.531 11.941,13.548 5.195,1.494 9.857,-0.399 14.418,-1.89 3.75,-1.227 2.739,-5.118 2.066,-8.054 C 14.493,55.371 12.113,57.07 10.135,57.453 6.594,58.139 2.84,58.86 0.831,54.709 -1.29,50.328 -0.396,46.433 3.499,43.369 6.265,41.193 8.569,38.56 11.593,36.57 19.164,31.588 21.737,21.678 18.424,12.577 15.496,4.532 8.224,-0.433 0,0" style="fill:#494f57;fill-opacity:1;fill-rule:nonzero;stroke:none" transform="matrix(1.3333333,0,0,-1.3333333,2639.6955,4052.4565)" />
      </g></svg>