<?xml version='1.0' encoding='utf-8'?>
<svg xmlns="http://www.w3.org/2000/svg" version="1.1" width="112.235" height="101.735" viewBox="1498.610 3955.780 112.235 101.735"><g id="object"><path id="path80" d="m 0,0 c -3.811,-1.152 -3.576,-4.486 -4.13,-7.348 -0.502,-2.599 -0.163,-4.825 3.089,-5.052 2.924,-0.203 5.065,0.886 5.319,4.164 C 4.556,-4.643 2.914,-2.023 0,0 m 16.685,-33.73 c -5.189,-1.35 -7.334,2.056 -8.337,5.77 -1.172,4.339 -3.52,5.539 -7.688,5.325 -4.342,-0.223 -8.013,-0.812 -9.028,-5.945 -0.628,-3.176 -1.737,-5.563 -5.938,-5.55 -5.408,0.016 -7.469,0.854 -5.926,7.233 4.043,16.709 7.229,33.628 10.604,50.493 1.067,5.332 2.734,9.505 9.324,9.341 6.373,-0.159 8.704,-3.363 9.983,-9.478 3.564,-17.042 7.708,-33.976 12.155,-50.812 1.497,-5.667 0.702,-7.811 -5.149,-6.377" style="fill:#494f57;fill-opacity:1;fill-rule:nonzero;stroke:none" transform="matrix(1.3333333,0,0,-1.3333333,1532.2509,4005.6983)" />
      <path id="path148" d="m 0,0 c 3.07,0 6.141,-0.016 9.211,0.005 3.419,0.022 6.735,0.197 7.092,-4.698 0.301,-4.124 -0.457,-7.025 -5.308,-7.223 -4.363,-0.178 -5.356,-3.051 -5.359,-6.787 -0.011,-13.658 -0.117,-27.315 -0.096,-40.973 0.005,-3.414 0.432,-6.957 -4.342,-7.364 -4.284,-0.366 -6.55,1.036 -7.729,5.92 -1.712,7.09 -0.16,14.112 -0.302,21.027 -0.146,7.168 -1.444,14.519 -0.235,21.716 0.707,4.209 -0.825,6.553 -4.885,6.794 -5.025,0.299 -5.318,3.374 -5.263,7.283 0.071,5.052 3.835,3.924 6.601,4.128 C -7.094,0.088 -3.54,-0.109 0,-0.109 0,-0.073 0,-0.036 0,0" style="fill:#494f57;fill-opacity:1;fill-rule:nonzero;stroke:none" transform="matrix(1.3333333,0,0,-1.3333333,1583.0309,3962.0565)" />
      </g></svg>