<?xml version='1.0' encoding='utf-8'?>
<svg xmlns="http://www.w3.org/2000/svg" version="1.1" width="797.459" height="1197.480" viewBox="586.418 1255.910 797.459 1197.480"><defs id="defs1"><clipPath clipPathUnits="userSpaceOnUse" id="clipPath3">
      <path d="M -1490.7273,3121.9783 H 893.21272 V -248.41181 H -1490.7273 Z" id="path3" />
    </clipPath>
    <clipPath clipPathUnits="userSpaceOnUse" id="clipPath5">
      <path d="M -2387.0094,4.2025001 H -3.0693251 V -3366.1876 H -2387.0094 Z" id="path5" />
    </clipPath>
  </defs><g id="object"><path id="path7" d="m 0,0 c 0,-11.882 -0.767,-23.821 0.122,-35.636 6.933,-92.214 65.091,-158.389 151.874,-173.272 100.07,-17.162 183.367,22.3 220.982,107.705 31.79,72.178 30.592,145.905 -1.738,217.661 C 349.576,164.54 312.417,197.525 261.2,213.095 164.116,242.609 65.27,204.92 23.638,122.128 4.369,83.809 -1.71,42.497 0,0 m -65.202,-391.424 h 78.68 c 0.958,-2.801 2.243,-5.844 3.046,-9.01 24.596,-96.89 87.17,-139.892 187.206,-131.787 64.093,5.194 113.447,33.977 148.667,86.336 60.433,89.842 66.591,193.084 73.366,302.477 -15.786,-20.203 -26.603,-36.249 -39.581,-50.297 -81.065,-87.749 -182.003,-103.112 -290.709,-71.007 -102.615,30.307 -155.026,107.549 -171.606,210.262 -10.805,66.938 -5.164,133.038 22.832,195.422 46.89,104.482 133.998,145.105 242.999,148.296 139.761,4.091 238.904,-61.219 280.94,-199.052 49.935,-163.734 52.341,-330.206 -9.646,-492.373 -39.036,-102.125 -109.985,-173.833 -222.437,-192.225 -76.616,-12.531 -151.472,-4.28 -217.231,41.433 -55.228,38.393 -80.396,94.188 -86.526,161.525" style="fill:#231916;fill-opacity:1;fill-rule:nonzero;stroke:none" transform="matrix(1.3333333,0,0,-1.3333333,700.77053,1647.8425)" />
      </g></svg>