<?xml version='1.0' encoding='utf-8'?>
<svg xmlns="http://www.w3.org/2000/svg" version="1.1" width="2322.590" height="813.168" viewBox="431.024 1334.710 2322.590 813.168"><defs id="defs1"><clipPath clipPathUnits="userSpaceOnUse" id="clipPath37">
      <path d="M 0,3370.3901 H 2383.9401 V -2.5000001e-5 H 0 Z" id="path37" />
    </clipPath>
  </defs><g id="object"><path id="path19" d="m 0,0 c -6.418,-19.357 -15.554,-37.157 -27.41,-53.652 -1.35,-5.732 -4.959,-8.123 -10.758,-7.274 -9.558,-4.595 -15.314,-12.69 -19.251,-22.028 -16.447,-39.012 -48.825,-56.073 -87.763,-64.265 -2.325,-7.757 -6.872,-9.751 -13.888,-5.328 -102.09,-27.665 -197.086,-11.733 -285.216,46.405 -7.065,-1.241 -13.107,-0.839 -13.601,8.47 -48.721,30.905 -71.75,78.845 -87.34,131.718 -0.818,1.69 -1.343,3.114 -1.635,4.32 -0.044,-0.386 -0.081,-0.77 -0.134,-1.157 0.053,0.387 0.09,0.771 0.134,1.157 -0.489,2.02 -0.306,3.412 0.312,4.367 0.529,18.02 -8.02,34.176 -11.585,50.812 -1.339,2.679 -1.822,6.328 -1.042,11.353 -21.023,32.683 -21.054,66.095 -0.09,96.864 -0.606,1.54 -1.793,4.409 -1.737,4.433 22.396,9.798 25.892,34.622 40.48,50.534 0.719,0.784 3.188,-0.036 4.842,-0.109 12.553,19.357 32.577,26.421 52.501,33.347 17.83,16.634 45.811,4.691 67.382,12.941 -0.265,0.472 -0.534,0.942 -0.817,1.409 16.355,-8.431 19.293,-26.818 31.838,-37.434 0.148,4.199 1.702,8.975 0.233,12.488 -10.651,25.493 6.241,31.836 24.974,34.435 35.942,4.985 72.236,2.178 108.387,2.38 5.883,0.033 11.769,-0.455 17.653,-0.701 1.797,0.088 3.594,0.177 5.391,0.266 34.8,-0.336 69.745,0.054 99.843,-21.784 7.393,-0.5 15.39,5.941 22.143,-1.924 C -19.999,274.865 18.829,225.014 20.162,156.748 21.203,103.439 16.905,50.981 0,0 m -862.641,152.763 c -8.055,-58.593 -18.788,-116.997 -47.232,-169.433 -34.712,-63.99 -87.142,-108.822 -158.248,-128.564 -63.69,-17.683 -128.238,-27.664 -194.09,-11.425 -89.347,22.033 -143.047,81.828 -171.522,165.979 -15.167,44.822 -17.545,92.432 -22.078,134.568 -0.425,72.309 51.713,135.177 120.2,152.232 121.588,30.281 242.092,23.786 361.456,-10.415 55.133,-15.796 94.829,-49.933 109.166,-108.077 1.979,-8.028 3.454,-16.816 2.348,-24.865 m 994.45,185.147 c -79.347,15.44 -159.839,23.193 -240.097,29.794 -67.028,5.514 -135.01,4.201 -202.281,0.569 -61.076,-3.297 -122.232,-11.091 -181.643,-27.36 -58.265,-15.955 -116.043,-34.386 -176.145,-41.887 -77.091,-9.621 -150.336,9.489 -221.963,35.401 -11.576,4.188 -21.253,13.458 -34.739,13.464 -30.405,0.016 -59.563,9.256 -89.56,12.944 -61.556,7.569 -122.553,19.403 -193.647,17.446 -36.514,8.988 -79.645,-10.273 -124.249,-9.512 -64.901,1.107 -128.651,-0.861 -191.748,-22.57 -55.853,-19.216 -56.55,-15.23 -55.849,-76.156 0.262,-22.79 5.823,-40.955 25.367,-54.327 21.566,-14.756 29.777,-37.593 35.599,-61.99 13.081,-54.807 13.972,-111.833 30.638,-165.954 22.487,-73.025 66.236,-129.985 131.038,-170.064 32.933,-20.369 71.366,-21.875 108.321,-29.844 59.935,-12.924 116.488,6.277 174.506,9.105 22.962,1.119 48.601,3.318 70.084,18.056 54.431,37.341 116.911,63.152 146.635,131.01 16.339,37.299 40.22,71.714 53.295,111.062 10.897,32.796 21.973,65.486 36.298,97.02 10.021,22.057 27.84,30.034 50.618,31.067 22.399,1.015 39.434,-6.669 49.382,-27.672 11.91,-25.148 21.162,-51.496 32.508,-76.735 25.003,-55.613 28.481,-120.319 76.136,-167.132 14.086,-13.836 29.071,-27.056 43.787,-40.116 27.744,-24.62 52.629,-52.404 93.389,-59.633 35.894,-6.367 69.646,-26.97 105.496,-30.973 67.932,-7.585 136.524,-1.44 201.966,19.371 85.664,27.242 144.362,85.765 173.981,170.224 20.305,57.902 23.98,119.754 33.139,180.195 4.258,28.102 5.912,57.675 39.013,69.939 5.655,2.095 9.614,7.292 10.574,13.437 3.898,24.933 8.122,49.847 10.844,74.917 1.555,14.325 -5.484,23.945 -20.693,26.904" style="fill:#5c3218;fill-opacity:1;fill-rule:nonzero;stroke:none" transform="matrix(1.3333333,0,0,-1.3333333,2543.9944,1848.2789)" />
      <path id="path22" d="m 0,0 c -10.569,0.648 -22.348,3.917 -26.293,-10.404 -1.247,-4.527 2.5,-14.356 7.774,-13.052 C -8.275,-20.924 1.714,-15.027 0,0 m 76.342,-307.189 c -9.658,37.78 -27.362,72.242 -42.606,107.835 -8.823,20.599 -32.971,24.428 -39.685,45.953 -1.946,6.24 -9.996,0.016 -10.404,-6.817 -0.241,-4.033 2.157,-9.116 -3.913,-9.777 -4.723,-0.514 -6.897,3.317 -7.923,7.985 -6.859,31.217 -12.448,33.416 -40.415,16.25 -7.717,-4.737 -15.42,-9.497 -23.38,-14.4 -1.074,2.902 -2.258,4.446 -2.023,5.732 1.695,9.299 22.566,13.175 12.245,22.773 -12.57,11.688 -19.595,34.354 -42.389,31.37 -61.758,-8.085 -124.501,-7.068 -185.67,-20.31 -6.742,13.944 6.091,10.046 10.816,10.464 40.129,3.553 80.304,6.696 120.512,9.206 17.583,1.098 35.121,1.435 53.061,7.798 -13.334,14.333 -30.663,11.453 -45.572,11.861 -43.782,1.201 -86.839,8.896 -130.351,12.208 -11.342,0.863 -25.26,0.971 -22.415,19.309 16.926,-3.849 33.233,-2.007 48.933,5.371 -4.536,-6.584 -3.642,-9.663 5.129,-10.943 19.884,-2.901 39.588,-9.466 59.414,-9.664 21.191,-0.212 42.845,-14.348 64.74,-0.966 -9.785,17.377 -28.074,6.962 -39.556,15.497 -0.235,7.515 5.124,10.86 10.533,14.168 14.18,-13.589 33.301,-13.928 50.714,-18.78 4.039,-1.126 8.415,-0.988 9.964,4.241 1.231,4.151 -1.725,5.894 -4.884,7.279 -33.338,14.624 -65.234,32.566 -100.169,43.514 12.677,-1.552 24.838,-4.352 36.752,-9.581 19.047,-8.361 38.757,-15.225 58.249,-22.556 3.737,-1.406 8.682,-3.758 11.074,0.971 1.678,3.318 2.593,9.623 0.683,11.74 -14.825,16.439 -11.111,43.025 -31.188,56.335 22.263,-10.136 35.237,-32.131 56.142,-43.968 4.769,-2.7 9.507,-8.451 15.479,-4.279 8.241,5.757 -1.199,11.68 -0.916,17.656 l 0.22,0.157 c 4.482,-2.125 8.963,-4.25 13.444,-6.375 l 0.59,-0.883 c 3.133,-7.468 7.067,-17.801 15.636,-15.201 9.044,2.744 2.935,14.443 5.089,21.878 24.592,-5 42.324,4.79 45.366,27.689 5.622,42.313 9.569,84.849 14.213,127.292 1.797,0.089 3.594,0.178 5.396,0.261 C 29.263,126.316 16.673,93.265 15.215,58.839 14.238,35.793 14.257,13.549 18.019,-9.802 c 2.086,-12.943 7.011,-30.302 2.552,-44.827 -5.925,-19.299 -0.59,-26.538 19.338,-25.548 8.164,0.405 16.479,-2.241 24.721,-3.498 42.025,-5.033 84.055,-10.066 126.084,-15.1 -43.051,-8.294 -85.09,4.472 -127.653,6.386 -11.642,0.523 -23.165,3.845 -36.763,1.78 54.61,-50.077 119.902,-81.237 181.712,-117.695 -1.358,-5.721 -4.967,-8.112 -10.764,-7.264 -50.037,35.731 -109.698,56.52 -154.91,99.715 -5.1,4.873 -9.812,6.35 -14.766,0.452 -4.271,-5.086 -4.762,-10.418 -0.032,-15.733 5.34,-6.001 18.675,-9.545 6.693,-21.072 -6.302,-0.724 -5.442,-5.067 -3.843,-8.795 7.368,-17.182 15.037,-34.234 22.597,-51.333 l -0.343,-0.084 c 1.631,-8.73 3.75,-17.247 10.405,-23.779 5.236,-23.465 16.404,-44.475 27.18,-65.647 -2.322,-7.774 -6.869,-9.767 -13.885,-5.345" style="fill:#d7bb98;fill-opacity:1;fill-rule:nonzero;stroke:none" transform="matrix(1.3333333,0,0,-1.3333333,2230.1119,1642.0903)" />
      <path id="path23" d="m 0,0 c -7.345,2.231 -12.801,6.279 -16.947,13.218 -11.386,19.058 -26.418,31.095 -50.948,30.16 -8.69,-0.331 -6.017,19.985 -20.04,19.447 -0.601,1.539 -1.788,4.406 -1.731,4.431 22.395,9.798 25.892,34.621 40.48,50.534 0.719,0.784 3.188,-0.036 4.842,-0.11 -0.271,-12.123 2.034,-23.592 -2.855,-36.394 C -52.945,66.238 -44.8,52.531 -29.717,44.412 -13.445,35.652 0.343,24.371 6.509,5.997 4.345,4.001 2.172,2 0,0" style="fill:#d7bb98;fill-opacity:1;fill-rule:nonzero;stroke:none" transform="matrix(1.3333333,0,0,-1.3333333,1915.5443,1663.0268)" />
      <path id="path24" d="m 0,0 c -11.569,3.797 -19.586,10.692 -25.832,21.854 -10.625,18.984 -22.152,37.857 -36.001,54.534 -14.049,16.918 -11.428,38.635 -22.14,56.275 16.355,-8.431 19.292,-26.818 31.834,-37.43 -0.003,0.004 0.386,-0.31 0.386,-0.309 17.082,-31.864 34.166,-63.728 51.249,-95.593 z" style="fill:#d7bb98;fill-opacity:1;fill-rule:nonzero;stroke:none" transform="matrix(1.3333333,0,0,-1.3333333,2127.1372,1619.4073)" />
      <path id="path25" d="M 0,0 C 26.204,20.381 52.409,40.763 78.613,61.144 64.54,30.068 34.485,15.299 13.591,-8.481 6.536,-9.712 0.494,-9.309 0,0" style="fill:#d7bb98;fill-opacity:1;fill-rule:nonzero;stroke:none" transform="matrix(1.3333333,0,0,-1.3333333,1933.4781,1978.5076)" />
      <path id="path26" d="m 0,0 c -6.012,-2.29 -11.858,-5.62 -18.077,-6.605 -7.671,-1.215 -7.421,3.386 -4.077,8.53 C -14.75,1.425 -6.753,7.866 0,0" style="fill:#d7bb98;fill-opacity:1;fill-rule:nonzero;stroke:none" transform="matrix(1.3333333,0,0,-1.3333333,2429.1223,1458.8888)" />
      <path id="path27" d="m 0,0 c -10.052,9.585 -20.105,19.17 -32.201,30.703 12.328,4.165 14.509,-6.798 20.919,-7.729 C -8.883,14.643 4.347,11.637 0,0" style="fill:#d7bb98;fill-opacity:1;fill-rule:nonzero;stroke:none" transform="matrix(1.3333333,0,0,-1.3333333,1978.508,1505.6268)" />
      <path id="path28" d="M 0,0 C -7.275,3.11 -12.153,8.626 -15.62,15.559 -3.978,16.833 -1.206,9.202 0,0" style="fill:#d7bb98;fill-opacity:1;fill-rule:nonzero;stroke:none" transform="matrix(1.3333333,0,0,-1.3333333,1998.7579,1525.7133)" />
      <path id="path29" d="m 0,0 c -3.21,5.679 -6.42,11.359 -9.629,17.038 l -0.77,0.434 c 1.767,-4.6 4.683,-7.905 9.816,-8.716 C -0.387,5.836 -0.194,2.918 0,0" style="fill:#d7bb98;fill-opacity:1;fill-rule:nonzero;stroke:none" transform="matrix(1.3333333,0,0,-1.3333333,2039.0663,1593.0744)" />
      <path id="path30" d="M 0,0 C -5.984,-4.623 -8.467,-1.204 -10.016,4.361 -5.122,6.479 -3.264,1.625 0,0" style="fill:#d7bb98;fill-opacity:1;fill-rule:nonzero;stroke:none" transform="matrix(1.3333333,0,0,-1.3333333,2011.6757,1531.0327)" />
      <path id="path31" d="m 0,0 c -1.517,3.575 -3.035,7.15 -4.553,10.726 -0.001,10e-4 -0.505,-0.668 -0.506,-0.669 1.759,-3.3 3.519,-6.6 5.279,-9.9 z" style="fill:#d7bb98;fill-opacity:1;fill-rule:nonzero;stroke:none" transform="matrix(1.3333333,0,0,-1.3333333,2133.2097,1633.7095)" />
      <path id="path34" d="M 0,0 C -2.609,-1.745 -5.217,-3.49 -7.827,-5.234 -6.951,-0.899 -3.631,-0.216 0,0" style="fill:#d7bb98;fill-opacity:1;fill-rule:nonzero;stroke:none" transform="matrix(1.3333333,0,0,-1.3333333,1873.5743,1694.7215)" />
      </g></svg>