<?xml version='1.0' encoding='utf-8'?>
<svg xmlns="http://www.w3.org/2000/svg" version="1.1" width="127.472" height="157.394" viewBox="301.808 3295.550 127.472 157.394"><g id="object"><path id="path45" d="m 0,0 c -5.777,8.264 -8.364,18.36 -12.927,27.442 -4.602,9.161 -8.981,18.413 -15.387,26.201 -3.746,-0.655 -3.266,-3.286 -3.6,-5.126 -1.616,-8.904 -2.999,-17.851 -4.538,-26.77 -0.512,-2.97 -1.126,-5.933 -1.895,-8.847 -1.411,-5.346 -2.901,-6.291 -8.256,-5.579 -4.471,0.595 -5.879,2.282 -5.15,7.03 0.849,5.531 1.878,11.049 3.142,16.5 4.778,20.609 8.235,41.406 9.366,62.557 0.046,0.86 0.082,1.728 0.227,2.575 0.211,1.23 0.511,2.598 1.979,2.76 0.743,0.082 1.822,-0.329 2.309,-0.896 3.651,-4.242 7.179,-8.589 10.772,-12.881 3.591,-4.291 7.122,-8.637 10.864,-12.794 1.721,-1.913 4.201,-1.469 5.224,0.876 1.893,4.338 3.463,8.816 5.29,13.184 2.49,5.953 4.931,11.936 7.703,17.759 2.299,4.83 3.864,5.578 9.222,4.779 5.539,-0.826 11.047,-1.885 16.532,-3.021 3.138,-0.65 4.35,-2.639 3.555,-5.67 C 33.447,96.33 32.518,92.526 31.071,88.945 25.568,75.32 22.483,60.951 17.935,47.036 13.252,32.705 8.634,18.352 3.903,4.037 3.401,2.52 2.788,0.823 0,0" style="fill:#494643;fill-opacity:1;fill-rule:nonzero;stroke:none" transform="matrix(1.3333333,0,0,-1.3333333,377.05453,3446.9395)" />
      </g></svg>