<?xml version='1.0' encoding='utf-8'?>
<svg xmlns="http://www.w3.org/2000/svg" version="1.1" width="74.924" height="70.805" viewBox="2642.950 574.411 74.924 70.805"><g id="object"><path id="path12" d="m 0,0 c -0.671,4.079 0.329,8.148 6.772,8.801 1.237,0.126 2.773,1.201 3.452,2.287 5.184,8.288 13.526,6.15 21.06,6.444 1.487,0.059 4.004,-0.764 4.382,-1.792 C 39.028,6.589 49.3,0.323 46.553,-11.49 45.522,-15.921 43.771,-18.546 39.64,-20.371 32.167,-23.672 24.11,-24.477 16.307,-26.151 8.541,-27.817 3.941,-23.866 2.631,-15.792 1.842,-10.923 -0.489,-6.332 0,0" style="fill:#d2d5d9;fill-opacity:1;fill-rule:nonzero;stroke:none" transform="matrix(1.3333333,0,0,-1.3333333,2649.1845,603.84653)" />
      </g></svg>