<?xml version='1.0' encoding='utf-8'?>
<svg xmlns="http://www.w3.org/2000/svg" version="1.1" width="589.681" height="1042.170" viewBox="821.232 1338.830 589.681 1042.170"><defs id="defs1"><clipPath clipPathUnits="userSpaceOnUse" id="clipPath18">
      <path d="M 0,3370.3901 H 2383.9401 V -2.5000001e-5 H 0 Z" id="path18" />
    </clipPath>
  </defs><g id="object"><path id="path3" d="m 0,0 c -17.387,-4.773 -12.963,-20.396 -15.962,-29.886 -16.395,-51.886 -30.296,-104.559 -45.207,-156.917 -1.73,-6.077 -4.086,-12.028 -6.691,-17.793 -7.085,-15.676 -19.615,-23 -36.359,-19.758 -17.134,3.319 -25.06,15.559 -25.155,32.625 -0.112,20.233 7.97,38.721 13.661,57.584 17.836,59.117 36.461,117.997 54.743,176.98 12.797,41.287 50.394,70.333 93.462,71.249 28.545,0.608 57.112,0.259 85.669,0.213 72.41,-0.117 105.398,-25.273 125.573,-94.198 17.568,-60.022 36.166,-119.742 53.92,-179.71 3.12,-10.541 5.473,-21.578 6.148,-32.512 1.078,-17.446 -8.277,-29.079 -25.126,-32.34 -16.58,-3.209 -30.026,3.134 -35.538,20.052 -12.251,37.597 -23.715,75.449 -35.657,113.147 -8.671,27.372 -18.074,54.525 -26.105,82.08 -2.336,8.014 -6.64,11.09 -13.084,8.701 -9.344,-3.464 -0.993,-8.914 0.232,-13.111 30.571,-104.72 61.22,-209.418 92.144,-314.034 7.059,-23.879 6.462,-25.188 -19.314,-25.264 -15.865,-0.047 -31.815,-1.031 -47.573,0.273 -18.219,1.508 -24.539,-4.074 -24.274,-23.539 1.104,-80.897 0.553,-161.818 0.284,-242.729 -0.086,-26.026 -13.249,-39.401 -36.901,-38.939 -21.375,0.418 -34.745,14.973 -35.699,38.924 -0.126,3.168 -0.037,6.345 -0.04,9.518 -0.052,76.15 -0.1,152.301 -0.161,228.451 -0.005,5.552 0.031,11.109 -0.201,16.654 -0.257,6.14 -2.366,11.035 -9.664,10.794 -7.142,-0.237 -9.201,-5.192 -9.398,-11.279 -0.231,-7.132 -0.246,-14.272 -0.247,-21.408 -0.011,-75.359 0.028,-150.717 -0.022,-226.075 -0.008,-11.91 0.203,-23.974 -8.939,-33.498 -11.677,-12.166 -25.987,-15.19 -41.431,-10.044 -17.337,5.776 -23.818,19.453 -23.837,37.026 -0.085,79.324 -1.031,158.659 0.056,237.966 0.298,21.744 -5.887,30.278 -27.877,28.218 -16.523,-1.548 -33.295,-0.263 -49.939,-0.775 -11.962,-0.369 -18.481,2.961 -14.238,16.394 20.951,66.337 36.913,134.118 59.705,199.983 13.597,39.294 15.85,81.926 31.629,120.968 C 4.246,-11.904 1.062,-5.841 0,0" style="fill:#ece8df;fill-opacity:1;fill-rule:nonzero;stroke:none" transform="matrix(1.3333333,0,0,-1.3333333,999.7324,1497.4181)" />
      </g></svg>