<?xml version='1.0' encoding='utf-8'?>
<svg xmlns="http://www.w3.org/2000/svg" version="1.1" width="83.105" height="149.582" viewBox="2100.070 490.851 83.105 149.582"><g id="object"><path id="path29" d="m 0,0 c -3.26,7.043 -0.8,12.753 3.648,18.445 2.478,3.171 3.347,7.294 1.889,11.459 0.796,0.787 0.961,1.72 0.641,2.766 3.162,3.884 4.503,9.182 3.804,13.258 -2.205,12.858 5.126,23.659 6.223,35.679 0.128,1.399 0.649,2.76 0.982,4.141 1.1,4.56 1.229,10.682 5.945,12.144 5.176,1.604 8.29,-4.329 12.027,-7.264 1.92,-1.508 3.251,-4.111 4.177,-6.482 4.279,-10.963 6.272,-22.624 11.397,-33.451 3.29,-6.951 -1.53,-14.33 -4.823,-20.79 C 42.46,23.139 39.4,16.337 37.302,9.019 34.53,-0.652 28.993,-4.616 19.161,-3.628 14.474,-3.158 10.041,-1.448 5.578,-4.61 3.588,-6.02 2.297,-3.439 0.678,-2.699 0.452,-1.8 0.226,-0.9 0,0" style="fill:#d2d5d9;fill-opacity:1;fill-rule:nonzero;stroke:none" transform="matrix(1.3333333,0,0,-1.3333333,2108.0592,627.73413)" />
      </g></svg>