<?xml version='1.0' encoding='utf-8'?>
<svg xmlns="http://www.w3.org/2000/svg" version="1.1" width="73.952" height="115.670" viewBox="2962.870 2354.260 73.952 115.670"><g id="object"><path id="path110" d="M 0,0 C 22.556,-6.174 30.887,-17.383 28.958,-37.107 28.067,-46.218 25.46,-53.262 16.479,-54.235 5.055,-55.473 5.082,-46.027 4.753,-38.058 4.273,-26.428 5.502,-14.691 0,0" style="fill:#342a1a;fill-opacity:1;fill-rule:nonzero;stroke:none" transform="matrix(1.3333333,0,0,-1.3333333,2968.8663,2391.472)" />
      <path id="path174" d="M 0,0 C 3.477,-2.329 5.68,-3.124 5.676,-3.906 5.629,-12.235 13.44,-19.442 9.244,-28.115 8.721,-29.195 4.52,-29.951 3.466,-29.09 -6.104,-21.271 -3.155,-11.587 0,0" style="fill:#342a1a;fill-opacity:1;fill-rule:nonzero;stroke:none" transform="matrix(1.3333333,0,0,-1.3333333,3016.8489,2360.2583)" />
      </g></svg>