<?xml version='1.0' encoding='utf-8'?>
<svg xmlns="http://www.w3.org/2000/svg" version="1.1" width="426.460" height="608.948" viewBox="738.055 2444.110 426.460 608.948"><g id="object"><path id="path61" d="m 0,0 c 30.171,42.128 57.872,79.224 83.845,117.492 29.331,43.218 40.833,90.248 22.446,141.226 -31.071,86.141 -148.203,117.079 -225.337,59.199 -37.972,-28.493 -53.09,-67.483 -49.866,-115.64 h 91.884 c 2.376,6.949 3.993,13.308 6.664,19.187 8.465,18.632 29.838,26.807 51.642,20.661 C 3.736,235.796 8.427,219.37 2.723,200.189 -2.05,184.139 -8.966,168.011 -18.25,154.139 -68.066,79.706 -119.109,6.096 -169.169,-68.174 c -6.134,-9.1 -8.924,-20.453 -13.803,-32.045 h 310.845 l 0,100.219 z" style="fill:#231916;fill-opacity:1;fill-rule:nonzero;stroke:none" transform="matrix(1.3333333,0,0,-1.3333333,988.01773,2913.4339)" />
      </g></svg>