<?xml version='1.0' encoding='utf-8'?>
<svg xmlns="http://www.w3.org/2000/svg" version="1.1" width="688.108" height="1938.390" viewBox="-6.000 1323.330 688.108 1938.390"><defs id="defs1"><clipPath clipPathUnits="userSpaceOnUse" id="clipPath4">
      <path d="M -0.9784,2441.734 H 2382.9617 V -928.65612 H -0.9784 Z" id="path4" />
    </clipPath>
    <clipPath clipPathUnits="userSpaceOnUse" id="clipPath8">
      <path d="M 0,3370.3901 H 2383.9401 V -2.5000001e-5 H 0 Z" id="path8" />
    </clipPath>
  </defs><g id="object"><path id="path3" d="m 0,0 c 0.001,1.65 0.002,3.301 0.004,4.951 0.02,25.854 0.09,25.354 26.25,26.121 95.812,2.807 184.911,28.635 266.696,78.936 5.915,3.638 11.406,7.961 17.094,11.966 -0.68,2.095 -1.361,4.189 -2.041,6.283 -8.414,0 -16.827,0.016 -25.241,-0.002 -86.002,-0.187 -172.018,0.378 -257.998,-1.114 -20.936,-0.363 -26.045,6.538 -25.369,25.791 1.207,34.36 1.277,68.822 0.04,103.178 -0.638,17.685 5.348,22.451 22.62,22.343 133.631,-0.831 267.27,-0.404 400.899,-1.391 17.09,-0.126 28.212,4.382 33.241,20.421 13.79,43.988 27.478,88.015 40.503,132.234 5.144,17.46 -1.626,24.44 -20.863,24.32 -149.508,-0.929 -299.022,-0.877 -448.534,-1.286 -27.534,-0.075 -27.543,-0.406 -27.56,27.023 -0.02,33.74 0.695,67.501 -0.332,101.21 -0.512,16.792 3.878,22.906 22.115,22.792 153.476,-0.957 306.957,-0.861 460.437,-1.057 24.368,-0.031 25.968,0.209 23.084,25.519 -4.998,43.871 -12.002,87.521 -18.589,131.2 -2.056,13.633 -9.971,19.619 -24.77,19.534 -146.192,-0.844 -292.39,-0.771 -438.579,-1.959 -18.246,-0.148 -24.594,4.549 -23.963,23.062 1.194,35.021 1.225,70.142 -0.001,105.16 -0.641,18.3 5.52,23.827 23.701,23.692 119.737,-0.891 239.482,-0.792 359.224,-1.012 7.556,-0.014 15.112,-10e-4 22.667,-10e-4 1.122,1.972 2.243,3.944 3.365,5.917 -13.645,18.932 -25.661,39.349 -41.28,56.48 -30.695,33.667 -62.639,66.309 -95.784,97.552 -8.509,8.021 -23.378,12.855 -35.399,13.001 -70.102,0.854 -140.227,-0.354 -210.344,-0.363 -26.02,0 -25.99,0.62 -25.932,26.932 0.076,35.06 0.58,70.13 -0.073,105.177 -0.29,15.554 5.959,21.459 21.116,20.911 18.16,-0.657 36.363,-0.155 59.512,-0.155 -15.398,20.938 -28.185,37.236 -39.798,54.331 -28.106,41.375 -40.748,86.662 -41.081,137.037 H -0.979 V -0.061 C -0.652,-0.041 -0.326,-0.02 0,0" style="fill:#dcdddd;fill-opacity:1;fill-rule:nonzero;stroke:none" transform="matrix(1.3333333,0,0,-1.3333333,1.3045333,3255.6452)" clip-path="url(#clipPath4)" />
      </g></svg>