<?xml version='1.0' encoding='utf-8'?>
<svg xmlns="http://www.w3.org/2000/svg" version="1.1" width="48.620" height="101.852" viewBox="2282.450 4068.190 48.620 101.852"><g id="object"><path id="path115" d="m 0,0 c 0,8.726 0.2,17.458 -0.073,26.176 -0.171,5.449 2.231,7.755 7.414,7.72 4.71,-0.033 9.422,0.02 14.127,-0.141 4.617,-0.157 5.817,-3.465 5.912,-7.262 0.108,-4.268 -2.489,-4.98 -6.158,-4.329 -4.818,0.855 -7.798,-1.128 -8.325,-6.169 -0.48,-4.59 0.117,-8.554 5.734,-9.57 3.525,-0.638 6.796,-1.045 6.603,-6.334 -0.183,-5.038 -2.788,-5.718 -6.72,-5.973 -7.004,-0.454 -5.192,-6.45 -5.628,-10.316 -0.469,-4.156 2.785,-5.276 6.703,-5.021 4.003,0.261 7.736,-0.149 7.288,-5.902 -0.407,-5.226 -2.944,-7.012 -7.974,-6.139 -1.825,0.316 -3.768,-0.034 -5.656,-0.1 C 0.365,-33.811 0.344,-33.813 0.266,-21.251 0.221,-14.168 0.258,-7.084 0.258,0 0.172,0 0.086,0 0,0" style="fill:#494f57;fill-opacity:1;fill-rule:nonzero;stroke:none" transform="matrix(1.3333333,0,0,-1.3333333,2288.5603,4119.3885)" />
      </g></svg>