<?xml version='1.0' encoding='utf-8'?>
<svg xmlns="http://www.w3.org/2000/svg" version="1.1" width="140.747" height="201.478" viewBox="1968.910 586.862 140.747 201.478"><g id="object"><path id="path18" d="m 0,0 c 7.884,2.234 8.451,9.978 12.131,15.677 5.726,8.869 14.457,15.506 25.785,14.1 11.056,-1.373 10.219,-11.892 13.301,-19.782 12.141,-31.079 9.889,-63.965 13.203,-96.148 1.122,-10.89 -1.58,-19.115 -14.585,-19.285 -13.059,-0.17 -11.854,9.701 -13.023,18.314 -3.431,25.29 3.306,51.647 -7.026,79.278 C 14.098,-21.471 14.112,-39.319 6.921,-53.536 0.698,-65.84 1.136,-88.891 -18.719,-85.43 c -21.419,3.732 -10.035,24.916 -11.17,38.355 -1.665,19.702 -0.706,39.645 -0.484,59.481 0.128,11.394 1.025,24.992 15.96,24.232 C 1.437,35.833 -1.747,21.53 -1.901,10.659 -1.951,7.103 -4.788,3.151 0,0" style="fill:#df647d;fill-opacity:1;fill-rule:nonzero;stroke:none" transform="matrix(1.3333333,0,0,-1.3333333,2017.4572,641.75333)" />
      </g></svg>