<?xml version='1.0' encoding='utf-8'?>
<svg xmlns="http://www.w3.org/2000/svg" version="1.1" width="882.152" height="222.117" viewBox="1093.070 3791.230 882.152 222.117"><g id="object"><path id="path14" d="M 3.6430953,-0.00130625 H 7.8266891 V -12.962244 c 0.9609375,0.246094 2.109375,0.292969 3.3515629,0.292969 4.089843,0 7.6875,-1.207031 9.890625,-3.550781 1.628906,-1.6875 2.496093,-3.984375 2.496093,-6.914063 0,-2.882812 -1.054687,-5.238281 -2.835937,-6.773437 -1.910156,-1.722657 -4.933594,-2.683594 -9.070313,-2.683594 -3.3515622,0 -5.9999997,0.28125 -8.0156247,0.621094 z M 7.8266891,-28.946619 c 0.7148437,-0.1875 2.109375,-0.339844 3.9374999,-0.339844 4.605469,0 7.628906,2.074219 7.628906,6.339844 0,4.464844 -3.070312,6.914063 -8.109375,6.914063 -1.3945309,0 -2.5546872,-0.09375 -3.4570309,-0.339844 z M 41.860869,-10.173181 45.3179,-0.00130625 h 4.464844 L 38.731963,-32.356775 H 33.6929 L 22.700713,-0.00130625 h 4.324218 L 30.388213,-10.173181 Z m -10.617188,-3.269532 3.175782,-9.363281 c 0.621093,-1.96875 1.148437,-3.925781 1.628906,-5.847656 h 0.09375 c 0.480469,1.863281 0.960937,3.785156 1.6875,5.894531 l 3.164062,9.316406 z m 23.282227,13.44140675 h 4.183594 V -14.016931 h 3.9375 c 3.785156,0.140625 5.519531,1.828125 6.46875,6.2929685 0.914062,4.03125 1.640625,6.80859375 2.167968,7.72265625 h 4.3125 C 74.928252,-1.2434938 74.166533,-4.3724 73.100127,-8.8841188 c -0.761719,-3.3515622 -2.25,-5.6601562 -4.746094,-6.5273442 v -0.140625 c 3.410156,-1.148437 6.09375,-3.984375 6.09375,-8.261718 0,-2.496094 -0.914063,-4.699219 -2.542969,-6.140625 -2.015625,-1.828125 -4.898437,-2.636719 -9.363281,-2.636719 -2.871094,0 -5.894531,0.234375 -8.015625,0.667969 z M 58.709502,-28.993494 c 0.667968,-0.1875 2.109375,-0.386719 4.125,-0.386719 4.417968,0.04687 7.441406,1.875 7.441406,6.046875 0,3.703125 -2.835938,6.152344 -7.300781,6.152344 h -4.265625 z m 38.589843,18.820313 3.457035,10.17187475 h 4.46484 L 94.170439,-32.356775 H 89.131377 L 78.139189,-0.00130625 h 4.324219 L 85.826689,-10.173181 Z m -10.617187,-3.269532 3.175781,-9.363281 c 0.621094,-1.96875 1.148438,-3.925781 1.628906,-5.847656 h 0.09375 c 0.480469,1.863281 0.960938,3.785156 1.6875,5.894531 l 3.164063,9.316406 z m 51.169922,13.44140675 h 4.08984 L 139.9263,-32.356775 h -5.33203 l -5.76563,15.65625 c -1.42969,4.078125 -2.58984,7.6289062 -3.39844,10.8867187 h -0.15234 c -0.80859,-3.3515625 -1.92187,-6.9023437 -3.25781,-10.8867187 l -5.51953,-15.65625 h -5.33203 l -2.25,32.35546875 h 3.98437 l 0.85547,-13.87499975 c 0.29297,-4.839844 0.52734,-10.265625 0.63281,-14.296875 h 0.0937 c 0.91406,3.832031 2.20313,8.015625 3.73828,12.574218 l 5.23828,15.41015675 h 3.16407 L 132.3325,-15.891931 c 1.64062,-4.464844 2.97656,-8.496094 4.08984,-12.28125 h 0.14063 c -0.0469,4.03125 0.23437,9.457031 0.48047,13.96875 z m 23.625,-32.88281275 c -8.64844,0 -15.03516,6.726563 -15.03516,16.992188 0,9.7968747 6,16.4179685 14.55469,16.4179685 8.25,0 15.02344,-5.90625 15.02344,-17.0390625 0,-9.597656 -5.71875,-16.371094 -14.54297,-16.371094 z m -0.19922,3.410156 c 6.96094,0 10.32422,6.714844 10.32422,13.148438 0,7.3476562 -3.75,13.4414062 -10.37109,13.4414062 -6.57422,0 -10.32422,-6.1875 -10.32422,-13.1015622 0,-7.101563 3.45703,-13.488282 10.37109,-13.488282 z m 20.11231,-2.882812 v 19.054687 c 0,10.0312505 4.99218,13.8281255 11.61328,13.8281255 7.00781,0 12.24609,-4.078125 12.24609,-14.0156255 v -18.867187 h -4.23047 v 19.160156 c 0,7.1484377 -3.07031,10.3125002 -7.86328,10.3125002 -4.32422,0 -7.53516,-3.0703125 -7.53516,-10.3125002 v -19.160156 z m 35.03906,32.35546875 V -13.829431 c 0,-5.367188 -0.0937,-9.257813 -0.33985,-13.335938 l 0.15235,-0.04687 c 1.6289,3.503906 3.78515,7.195313 6.04687,10.792969 l 10.26563,16.41796875 h 4.23047 V -32.356775 h -3.9375 v 13.535156 c 0,5.039063 0.0937,8.9765627 0.48047,13.3007815 l -0.0937,0.046875 c -1.53516,-3.3164063 -3.41016,-6.7148435 -5.8125,-10.5117185 l -10.3711,-16.371094 h -4.55859 v 32.35546875 z m 33.7998,0 h 4.21875 V -28.805994 h 9.89063 v -3.550781 h -23.95313 v 3.550781 h 9.84375 z m 27.87891,0 h 4.18359 V -12.962244 c 0.96094,0.246094 2.10938,0.292969 3.35157,0.292969 4.08984,0 7.6875,-1.207031 9.89062,-3.550781 1.62891,-1.6875 2.49609,-3.984375 2.49609,-6.914063 0,-2.882812 -1.05468,-5.238281 -2.83593,-6.773437 -1.91016,-1.722657 -4.9336,-2.683594 -9.07032,-2.683594 -3.35156,0 -6,0.28125 -8.01562,0.621094 z m 4.18359,-28.94531275 c 0.71485,-0.1875 2.10938,-0.339844 3.9375,-0.339844 4.60547,0 7.62891,2.074219 7.62891,6.339844 0,4.464844 -3.07031,6.914063 -8.10938,6.914063 -1.39453,0 -2.55468,-0.09375 -3.45703,-0.339844 z m 21.35157,28.94531275 h 4.18359 V -14.016931 h 3.9375 c 3.78516,0.140625 5.51953,1.828125 6.46875,6.2929685 0.91406,4.03125 1.64062,6.80859375 2.16797,7.72265625 h 4.3125 c -0.66797,-1.24218755 -1.42969,-4.37109375 -2.4961,-8.88281255 -0.76171,-3.3515622 -2.25,-5.6601562 -4.74609,-6.5273442 v -0.140625 c 3.41016,-1.148437 6.09375,-3.984375 6.09375,-8.261718 0,-2.496094 -0.91406,-4.699219 -2.54297,-6.140625 -2.01562,-1.828125 -4.89844,-2.636719 -9.36328,-2.636719 -2.87109,0 -5.89453,0.234375 -8.01562,0.667969 z m 4.18359,-28.99218775 c 0.66797,-0.1875 2.10937,-0.386719 4.125,-0.386719 4.41797,0.04687 7.44141,1.875 7.44141,6.046875 0,3.703125 -2.83594,6.152344 -7.30079,6.152344 h -4.26562 z M 346.2261,-18.6224 h -12.57422 v -10.230469 h 13.28907 v -3.503906 h -17.47266 v 32.35546875 h 18.19922 V -3.5052125 H 333.65188 V -15.165369 h 12.57422 z m 5.2295,17.0390625 c 1.72265,1.1484375 5.13281,2.0625 8.26171,2.0625 7.62891,0 11.32032,-4.3242188 11.32032,-9.3164063 0,-4.7460942 -2.77735,-7.3828122 -8.25,-9.5039062 -4.46485,-1.722656 -6.4336,-3.210938 -6.4336,-6.234375 0,-2.214844 1.67578,-4.851563 6.09375,-4.851563 2.92969,0 5.08594,0.960938 6.14063,1.535157 l 1.16015,-3.410157 c -1.4414,-0.808593 -3.84375,-1.582031 -7.16015,-1.582031 -6.28125,0 -10.46485,3.75 -10.46485,8.789063 0,4.558593 3.26954,7.289062 8.54297,9.164062 4.3711,1.6875 6.10547,3.410156 6.10547,6.433594 0,3.2695312 -2.49609,5.5195312 -6.77344,5.5195312 -2.88281,0 -5.61328,-0.9609375 -7.48828,-2.109375 z M 393.5054,-18.6224 h -12.57422 v -10.230469 h 13.28906 v -3.503906 h -17.47265 v 32.35546875 h 18.19922 V -3.5052125 H 380.93118 V -15.165369 h 12.57422 z m 10.7959,18.62109375 V -13.829431 c 0,-5.367188 -0.0937,-9.257813 -0.33985,-13.335938 l 0.15235,-0.04687 c 1.6289,3.503906 3.78515,7.195313 6.04687,10.792969 l 10.26563,16.41796875 h 4.23047 V -32.356775 h -3.9375 v 13.535156 c 0,5.039063 0.0937,8.9765627 0.48047,13.3007815 l -0.0937,0.046875 c -1.53516,-3.3164063 -3.41016,-6.7148435 -5.8125,-10.5117185 l -10.3711,-16.371094 h -4.55859 v 32.35546875 z m 33.7998,0 h 4.21875 V -28.805994 h 9.89063 v -3.550781 h -23.95313 v 3.550781 h 9.84375 z m 15.78516,-1.58203125 c 1.72266,1.1484375 5.13281,2.0625 8.26172,2.0625 7.6289,0 11.32031,-4.3242188 11.32031,-9.3164063 0,-4.7460942 -2.77734,-7.3828122 -8.25,-9.5039062 -4.46484,-1.722656 -6.43359,-3.210938 -6.43359,-6.234375 0,-2.214844 1.67578,-4.851563 6.09375,-4.851563 2.92968,0 5.08593,0.960938 6.14062,1.535157 l 1.16016,-3.410157 c -1.44141,-0.808593 -3.84375,-1.582031 -7.16016,-1.582031 -6.28125,0 -10.46484,3.75 -10.46484,8.789063 0,4.558593 3.26953,7.289062 8.54297,9.164062 4.37109,1.6875 6.10547,3.410156 6.10547,6.433594 0,3.2695312 -2.4961,5.5195312 -6.77344,5.5195312 -2.88281,0 -5.61328,-0.9609375 -7.48828,-2.109375 z M 10.275908,46.560217 c 0,6.339844 -2.2148439,8.015625 -5.9531252,8.015625 -1.3945312,0 -2.6484375,-0.292969 -3.50390624,-0.621094 l -0.6328125,3.410157 c 1.05468754,0.421875 2.92968754,0.761718 4.46484374,0.761718 5.5664062,0 9.7968752,-2.636718 9.7968752,-11.226562 V 25.243811 H 10.275908 Z M 37.964384,57.59928 c -0.28125,-1.582032 -0.375,-3.550782 -0.375,-5.566407 v -8.695312 c 0,-4.652344 -1.734375,-9.503906 -8.835937,-9.503906 -2.929688,0 -5.707031,0.820312 -7.628906,2.074218 l 0.960937,2.777344 c 1.628906,-1.054687 3.878906,-1.722656 6.046875,-1.722656 4.746094,0 5.273438,3.457031 5.273438,5.367187 v 0.480469 c -8.976563,-0.04687 -13.96875,3.023438 -13.96875,8.648438 0,3.351562 2.402343,6.667968 7.113281,6.667968 3.304687,0 5.800781,-1.628906 7.101562,-3.457031 h 0.140625 l 0.339844,2.929688 z m -4.464843,-7.828125 c 0,0.433593 -0.09375,0.914062 -0.234375,1.347656 -0.667969,1.96875 -2.589844,3.890625 -5.613282,3.890625 -2.167968,0 -3.984375,-1.300781 -3.984375,-4.03125 0,-4.511719 5.226563,-5.332031 9.832032,-5.238281 z m 10.901367,7.828125 h 4.125 V 43.583655 c 0,-0.714844 0.09375,-1.441407 0.339844,-2.0625 0.667968,-2.109375 2.589843,-4.230469 5.226562,-4.230469 3.222656,0 4.851563,2.695312 4.851563,6.386719 V 57.59928 h 4.125 V 43.243811 c 0,-0.761719 0.152343,-1.535156 0.339843,-2.109375 0.714844,-2.0625 2.589844,-3.84375 4.992188,-3.84375 3.410156,0 5.039062,2.695312 5.039062,7.160156 V 57.59928 h 4.125 V 43.923498 c 0,-8.0625 -4.558593,-10.089843 -7.628906,-10.089843 -2.203125,0 -3.738281,0.585937 -5.132812,1.640625 -0.960938,0.714843 -1.875,1.722656 -2.589844,3.023437 h -0.105469 c -1.007812,-2.742187 -3.398437,-4.664062 -6.574219,-4.664062 -3.832031,0 -6,2.074218 -7.289062,4.277343 h -0.152344 l -0.1875,-3.738281 h -3.691406 c 0.140625,1.910156 0.1875,3.878906 0.1875,6.28125 z M 103.10013,46.747717 c 0.0469,-0.433594 0.15234,-1.101562 0.15234,-1.96875 0,-4.265625 -2.01562,-10.945312 -9.609375,-10.945312 -6.761718,0 -10.886718,5.53125 -10.886718,12.539062 0,7.007813 4.265625,11.707031 11.414062,11.707031 3.703125,0 6.246091,-0.773437 7.734371,-1.441406 l -0.71484,-3.023437 c -1.59375,0.667968 -3.410156,1.195312 -6.433593,1.195312 -4.230469,0 -7.875,-2.34375 -7.96875,-8.0625 z M 86.834502,43.72428 c 0.328125,-2.929688 2.203125,-6.855469 6.480468,-6.855469 4.746094,0 5.90625,4.171875 5.847657,6.855469 z m 20.015628,12.773437 c 1.6289,0.960938 3.98437,1.582031 6.52734,1.582031 5.51953,0 8.68359,-2.882812 8.68359,-6.960937 0,-3.457031 -2.0625,-5.472656 -6.09375,-7.007813 -3.02343,-1.148437 -4.41796,-2.015625 -4.41796,-3.9375 0,-1.722656 1.39453,-3.164062 3.89062,-3.164062 2.15625,0 3.84375,0.761719 4.74609,1.347656 l 1.06641,-3.082031 c -1.30078,-0.761719 -3.36328,-1.441406 -5.71875,-1.441406 -4.99219,0 -8.01562,3.082031 -8.01562,6.820312 0,2.789063 1.96875,5.085938 6.14062,6.574219 3.12891,1.160156 4.32422,2.261719 4.32422,4.277344 0,1.921875 -1.44141,3.457031 -4.51172,3.457031 -2.10937,0 -4.32422,-0.867188 -5.56641,-1.6875 z m 29.32617,-0.480469 c 1.72265,1.148438 5.13281,2.0625 8.26172,2.0625 7.6289,0 11.32031,-4.324218 11.32031,-9.316406 0,-4.746094 -2.77734,-7.382812 -8.25,-9.503906 -4.46484,-1.722656 -6.43359,-3.210938 -6.43359,-6.234375 0,-2.214844 1.67578,-4.851563 6.09375,-4.851563 2.92968,0 5.08593,0.960938 6.14062,1.535157 l 1.16016,-3.410157 c -1.44141,-0.808593 -3.84375,-1.582031 -7.16016,-1.582031 -6.28125,0 -10.46484,3.75 -10.46484,8.789063 0,4.558593 3.26953,7.289062 8.54297,9.164062 4.37109,1.6875 6.10546,3.410156 6.10546,6.433594 0,3.269531 -2.49609,5.519531 -6.77343,5.519531 -2.88282,0 -5.61328,-0.960937 -7.48828,-2.109375 z m 31.44433,1.582032 h 4.21875 V 28.794592 h 9.89063 v -3.550781 h -23.95313 v 3.550781 h 9.84375 z M 202.08255,38.978186 H 189.50833 V 28.747717 h 13.28906 V 25.243811 H 185.32474 V 57.59928 h 18.19921 V 54.095373 H 189.50833 V 42.435217 h 12.57422 z m 16.94531,18.621094 4.60547,-16.851563 c 1.19531,-4.171875 1.92187,-7.335937 2.49609,-10.558594 h 0.0937 c 0.4336,3.269532 1.10157,6.433594 2.10938,10.558594 l 4.07812,16.851563 h 4.3711 l 9.16406,-32.355469 h -4.26563 l -4.27734,16.324219 c -1.00781,4.03125 -1.91016,7.628906 -2.58984,11.179687 h -0.0937 C 234.2388,49.337561 233.37161,45.50553 232.45755,41.66178 l -3.92578,-16.417969 h -4.3711 l -4.32422,16.324219 c -1.10156,4.171875 -2.10937,8.015625 -2.63671,11.226562 h -0.0937 c -0.57422,-3.117187 -1.44141,-7.148437 -2.40235,-11.179687 l -3.84375,-16.371094 h -4.41797 l 8.21485,32.355469 z m 44.92676,-10.171875 3.45703,10.171875 h 4.46484 L 260.82571,25.243811 h -5.03906 L 244.79446,57.59928 h 4.32422 l 3.36328,-10.171875 z m -10.61719,-3.269532 3.17578,-9.363281 c 0.6211,-1.96875 1.14844,-3.925781 1.62891,-5.847656 h 0.0937 c 0.48047,1.863281 0.96094,3.785156 1.6875,5.894531 l 3.16406,9.316406 z m 23.28223,13.441407 h 4.18359 V 43.583655 h 3.9375 c 3.78516,0.140625 5.51953,1.828125 6.46875,6.292968 0.91406,4.03125 1.64063,6.808594 2.16797,7.722657 h 4.3125 c -0.66797,-1.242188 -1.42969,-4.371094 -2.49609,-8.882813 -0.76172,-3.351562 -2.25,-5.660156 -4.7461,-6.527344 v -0.140625 c 3.41016,-1.148437 6.09375,-3.984375 6.09375,-8.261718 0,-2.496094 -0.91406,-4.699219 -2.54297,-6.140625 -2.01562,-1.828125 -4.89843,-2.636719 -9.36328,-2.636719 -2.87109,0 -5.89453,0.234375 -8.01562,0.667969 z m 4.18359,-28.992188 c 0.66797,-0.1875 2.10938,-0.386719 4.125,-0.386719 4.41797,0.04687 7.44141,1.875 7.44141,6.046875 0,3.703125 -2.83594,6.152344 -7.30078,6.152344 h -4.26563 z m 28.22461,28.992188 h 4.21875 V 28.794592 h 9.89063 v -3.550781 h -23.95313 v 3.550781 h 9.84375 z m 44.44043,0 c -0.28125,-1.582032 -0.375,-3.550782 -0.375,-5.566407 v -8.695312 c 0,-4.652344 -1.73437,-9.503906 -8.83594,-9.503906 -2.92968,0 -5.70703,0.820312 -7.6289,2.074218 l 0.96093,2.777344 c 1.62891,-1.054687 3.87891,-1.722656 6.04688,-1.722656 4.74609,0 5.27344,3.457031 5.27344,5.367187 v 0.480469 c -8.97657,-0.04687 -13.96875,3.023438 -13.96875,8.648438 0,3.351562 2.40234,6.667968 7.11328,6.667968 3.30469,0 5.80078,-1.628906 7.10156,-3.457031 h 0.14063 l 0.33984,2.929688 z m -4.46484,-7.828125 c 0,0.433593 -0.0937,0.914062 -0.23438,1.347656 -0.66797,1.96875 -2.58984,3.890625 -5.61328,3.890625 -2.16797,0 -3.98437,-1.300781 -3.98437,-4.03125 0,-4.511719 5.22656,-5.332031 9.83203,-5.238281 z m 10.90136,7.828125 h 4.21875 V 43.63053 c 0,-0.714844 0.10547,-1.441407 0.29297,-1.96875 0.71485,-2.355469 2.88282,-4.324219 5.66016,-4.324219 3.98437,0 5.37891,3.128906 5.37891,6.867187 V 57.59928 h 4.23046 v -13.875 c 0,-7.96875 -4.99218,-9.890625 -8.21484,-9.890625 -3.84375,0 -6.52734,2.167968 -7.67578,4.371093 h -0.0937 l -0.24609,-3.832031 h -3.73829 c 0.14063,1.910156 0.1875,3.878906 0.1875,6.28125 z m 42.4834,-34.078125 v 13.875 h -0.10547 c -1.05468,-1.875 -3.44531,-3.5625 -7.00781,-3.5625 -5.66016,0 -10.45312,4.757812 -10.40625,12.480468 0,7.066407 4.3125,11.8125 9.9375,11.8125 3.78516,0 6.62109,-1.96875 7.91016,-4.558593 h 0.10547 l 0.1875,4.03125 h 3.79687 c -0.15234,-1.582032 -0.19922,-3.9375 -0.19922,-6 V 23.521155 Z m 0,24.339843 c 0,0.667969 -0.0469,1.242188 -0.19922,1.816407 -0.76172,3.164062 -3.35156,5.039062 -6.1875,5.039062 -4.55859,0 -6.86718,-3.890625 -6.86718,-8.589844 0,-5.132812 2.58984,-8.976562 6.96093,-8.976562 3.16407,0 5.47266,2.214844 6.09375,4.898437 0.15235,0.527344 0.19922,1.242188 0.19922,1.769532 z m 21.54492,9.738282 h 4.1836 V 45.259436 l 3.07031,-3.550781 10.65234,15.890625 h 4.94532 L 434.1636,38.978186 445.87063,25.243811 h -5.17968 l -9.89063,12.152344 c -0.82031,1.054687 -1.67578,2.203125 -2.54297,3.445312 h -0.14062 V 25.243811 h -4.1836 z m 30.57422,0 V 34.372717 H 450.2886 V 57.59928 Z m -2.10937,-32.402344 c -1.53516,0 -2.63672,1.160156 -2.63672,2.636719 0,1.441406 1.05469,2.601562 2.54297,2.601562 1.67578,0 2.74219,-1.160156 2.68359,-2.601562 0,-1.476563 -1.00781,-2.636719 -2.58984,-2.636719 z m 9.12304,32.402344 h 4.125 V 43.583655 c 0,-0.714844 0.0937,-1.441407 0.33985,-2.0625 0.66797,-2.109375 2.58984,-4.230469 5.22656,-4.230469 3.22266,0 4.85156,2.695312 4.85156,6.386719 V 57.59928 h 4.125 V 43.243811 c 0,-0.761719 0.15235,-1.535156 0.33985,-2.109375 0.71484,-2.0625 2.58984,-3.84375 4.99218,-3.84375 3.41016,0 5.03907,2.695312 5.03907,7.160156 V 57.59928 h 4.125 V 43.923498 c 0,-8.0625 -4.5586,-10.089843 -7.62891,-10.089843 -2.20312,0 -3.73828,0.585937 -5.13281,1.640625 -0.96094,0.714843 -1.875,1.722656 -2.58985,3.023437 h -0.10546 c -1.00782,-2.742187 -3.39844,-4.664062 -6.57422,-4.664062 -3.83203,0 -6,2.074218 -7.28907,4.277343 h -0.15234 l -0.1875,-3.738281 h -3.69141 c 0.14063,1.910156 0.1875,3.878906 0.1875,6.28125 z m 54.28418,0 V 43.771155 c 0,-5.367188 -0.0937,-9.257813 -0.33984,-13.335938 l 0.15234,-0.04687 c 1.62891,3.503906 3.78516,7.195313 6.04688,10.792969 L 531.9302,57.59928 h 4.23047 V 25.243811 h -3.9375 v 13.535156 c 0,5.039063 0.0937,8.976563 0.48047,13.300781 l -0.0937,0.04687 c -1.53515,-3.316406 -3.41015,-6.714843 -5.8125,-10.511718 L 516.4263,25.243811 h -4.5586 V 57.59928 Z m 40.76075,-32.882813 c -8.64844,0 -15.03516,6.726563 -15.03516,16.992188 0,9.796875 6,16.417968 14.55469,16.417968 8.25,0 15.02344,-5.90625 15.02344,-17.039062 0,-9.597656 -5.71875,-16.371094 -14.54297,-16.371094 z m -0.19922,3.410156 c 6.96094,0 10.32422,6.714844 10.32422,13.148438 0,7.347656 -3.75,13.441406 -10.3711,13.441406 -6.57422,0 -10.32422,-6.1875 -10.32422,-13.101562 0,-7.101563 3.45704,-13.488282 10.3711,-13.488282 z m 31.87793,29.472657 11.5664,-32.355469 h -4.46484 l -5.47266,15.984375 c -1.4414,4.230469 -2.78906,8.308594 -3.6914,12.046875 h -0.10547 c -0.85547,-3.785156 -2.0625,-7.722656 -3.45703,-12.09375 l -5.03906,-15.9375 h -4.51172 l 10.57031,32.355469 z m 29.03906,-10.171875 3.45703,10.171875 h 4.46485 L 614.15481,25.243811 h -5.03906 L 598.12356,57.59928 h 4.32422 l 3.36328,-10.171875 z m -10.61719,-3.269532 3.17578,-9.363281 c 0.6211,-1.96875 1.14844,-3.925781 1.62891,-5.847656 h 0.0937 c 0.48047,1.863281 0.96094,3.785156 1.6875,5.894531 l 3.16406,9.316406 z m 23.28223,13.441407 h 4.18359 V 45.259436 l 3.07032,-3.550781 10.65234,15.890625 h 4.94531 L 640.17923,38.978186 651.88626,25.243811 h -5.17969 l -9.89062,12.152344 c -0.82032,1.054687 -1.67578,2.203125 -2.54297,3.445312 h -0.14063 V 25.243811 h -4.18359 z M 3.6430953,82.844397 V 115.19987 H 7.8266891 V 82.844397 Z M 15.455595,115.19987 h 4.21875 v -13.96875 c 0,-0.71485 0.105469,-1.441411 0.292969,-1.968754 0.714844,-2.355469 2.882813,-4.324219 5.660156,-4.324219 3.984375,0 5.378907,3.128906 5.378907,6.867183 v 13.39454 h 4.230468 v -13.875 c 0,-7.968754 -4.992187,-9.890629 -8.214843,-9.890629 -3.84375,0 -6.527344,2.167968 -7.675782,4.371093 h -0.09375 l -0.246093,-3.832031 h -3.738282 c 0.140625,1.910156 0.1875,3.878906 0.1875,6.28125 z m 53.668946,-10.17188 3.457031,10.17188 h 4.464844 L 65.995634,82.844397 H 60.956572 L 49.964384,115.19987 h 4.324219 l 3.363281,-10.17188 z m -10.617188,-3.26953 3.175781,-9.363282 c 0.621094,-1.96875 1.148438,-3.925781 1.628907,-5.847656 h 0.09375 c 0.480468,1.863281 0.960937,3.785156 1.6875,5.894531 l 3.164062,9.316407 z m 22.995117,13.44141 h 4.21875 V 81.121741 h -4.21875 z m 15.934571,0 V 95.184241 h 5.613279 v -3.210938 h -5.613279 v -1.253906 c 0,-3.550781 0.914062,-6.714844 4.511719,-6.714844 1.20703,0 2.0625,0.234375 2.69531,0.527344 l 0.57422,-3.269531 c -0.82031,-0.339844 -2.10937,-0.667969 -3.59766,-0.667969 -1.968746,0 -4.089839,0.621094 -5.671871,2.15625 -1.96875,1.875 -2.683593,4.851562 -2.683593,8.109375 v 1.113281 h -3.269532 v 3.210938 h 3.269532 v 20.015629 z m 9.410159,0 h 4.17187 v -12.38672 c 0,-0.71485 0.10547,-1.39453 0.19922,-1.96875 0.57422,-3.164066 2.68359,-5.425784 5.66016,-5.425784 0.57422,0 1.00781,0.05859 1.4414,0.152343 v -3.984375 c -0.38672,-0.09375 -0.71484,-0.152343 -1.19531,-0.152343 -2.83594,0 -5.37891,1.96875 -6.43359,5.097656 h -0.19922 l -0.14063,-4.558594 h -3.6914 c 0.14062,2.15625 0.1875,4.511719 0.1875,7.242188 z m 33.88476,-10.85157 c 0.0469,-0.43359 0.15235,-1.10156 0.15235,-1.96875 0,-4.265622 -2.01563,-10.945309 -9.60938,-10.945309 -6.76172,0 -10.88672,5.53125 -10.88672,12.539059 0,7.00782 4.26563,11.70703 11.41406,11.70703 3.70313,0 6.2461,-0.77343 7.73438,-1.4414 l -0.71484,-3.02344 c -1.59375,0.66797 -3.41016,1.19531 -6.4336,1.19531 -4.23047,0 -7.875,-2.34375 -7.96875,-8.0625 z m -16.26562,-3.02343 c 0.32812,-2.929692 2.20312,-6.855473 6.48047,-6.855473 4.74609,0 5.90625,4.171875 5.84765,6.855473 z m 37.48828,-20.203129 v 13.875 h -0.10547 c -1.05469,-1.875 -3.44531,-3.5625 -7.00781,-3.5625 -5.66016,0 -10.45313,4.757812 -10.40625,12.480469 0,7.06641 4.3125,11.8125 9.9375,11.8125 3.78515,0 6.62109,-1.96875 7.91015,-4.55859 h 0.10547 l 0.1875,4.03125 h 3.79688 c -0.15235,-1.58204 -0.19922,-3.9375 -0.19922,-6 V 81.121741 Z m 0,24.339839 c 0,0.66797 -0.0469,1.24219 -0.19922,1.81641 -0.76172,3.16406 -3.35156,5.03906 -6.1875,5.03906 -4.55859,0 -6.86719,-3.89062 -6.86719,-8.58984 0,-5.132813 2.58985,-8.976563 6.96094,-8.976563 3.16406,0 5.47266,2.214844 6.09375,4.898437 0.15234,0.527346 0.19922,1.242186 0.19922,1.769536 z m 21.54492,-22.617183 v 32.355473 h 4.18359 V 100.0358 h 15.64454 v 15.16407 h 4.21875 V 82.844397 h -4.21875 V 96.379553 H 187.68313 V 82.844397 Z m 35.85645,32.355473 V 91.973303 h -4.21875 v 23.226567 z m -2.10938,-32.402348 c -1.53516,0 -2.63672,1.160156 -2.63672,2.636719 0,1.441406 1.05469,2.601562 2.54297,2.601562 1.67578,0 2.74219,-1.160156 2.68359,-2.601562 0,-1.476563 -1.00781,-2.636719 -2.58984,-2.636719 z m 24.96387,28.371098 c -1.20703,0.52734 -2.78906,1.14843 -5.19141,1.14843 -4.60547,0 -8.0625,-3.30468 -8.0625,-8.68359 0,-4.851563 2.88281,-8.789063 8.21485,-8.789063 2.29687,0 3.8789,0.527344 4.88671,1.113281 l 0.96094,-3.269531 c -1.14844,-0.574219 -3.35156,-1.195313 -5.84765,-1.195313 -7.59375,0 -12.48047,5.179688 -12.48047,12.328126 0,7.10156 4.55859,11.85937 11.5664,11.85937 3.11719,0 5.56641,-0.77343 6.66797,-1.34765 z m 5.66015,4.03125 h 4.21875 v -14.01563 c 0,-0.82031 0.0586,-1.441406 0.29297,-2.015624 0.77344,-2.308594 2.92969,-4.230469 5.66016,-4.230469 3.98437,0 5.37891,3.175781 5.37891,6.914063 v 13.34766 h 4.23046 v -13.82813 c 0,-8.015624 -4.99218,-9.937499 -8.12109,-9.937499 -1.58203,0 -3.07031,0.480468 -4.3125,1.207031 -1.30078,0.714844 -2.35547,1.769531 -3.02344,2.976562 h -0.10547 V 81.121741 h -4.21875 z m 45.31055,-10.85157 c 0.0469,-0.43359 0.15234,-1.10156 0.15234,-1.96875 0,-4.265622 -2.01562,-10.945309 -9.60937,-10.945309 -6.76172,0 -10.88672,5.53125 -10.88672,12.539059 0,7.00782 4.26563,11.70703 11.41406,11.70703 3.70313,0 6.2461,-0.77343 7.73438,-1.4414 l -0.71485,-3.02344 c -1.59375,0.66797 -3.41015,1.19531 -6.43359,1.19531 -4.23047,0 -7.875,-2.34375 -7.96875,-8.0625 z m -16.26562,-3.02343 c 0.32812,-2.929692 2.20312,-6.855473 6.48046,-6.855473 4.7461,0 5.90625,4.171875 5.84766,6.855473 z m 40.3125,3.02343 c 0.0469,-0.43359 0.15234,-1.10156 0.15234,-1.96875 0,-4.265622 -2.01563,-10.945309 -9.60938,-10.945309 -6.76171,0 -10.88671,5.53125 -10.88671,12.539059 0,7.00782 4.26562,11.70703 11.41406,11.70703 3.70312,0 6.24609,-0.77343 7.73437,-1.4414 l -0.71484,-3.02344 c -1.59375,0.66797 -3.41016,1.19531 -6.43359,1.19531 -4.23047,0 -7.875,-2.34375 -7.96875,-8.0625 z m -16.26563,-3.02343 c 0.32813,-2.929692 2.20313,-6.855473 6.48047,-6.855473 4.74609,0 5.90625,4.171875 5.84766,6.855473 z m 37.48828,9.84375 c -1.20703,0.52734 -2.78906,1.14843 -5.1914,1.14843 -4.60547,0 -8.0625,-3.30468 -8.0625,-8.68359 0,-4.851563 2.88281,-8.789063 8.21484,-8.789063 2.29687,0 3.87891,0.527344 4.88672,1.113281 l 0.96094,-3.269531 c -1.14844,-0.574219 -3.35157,-1.195313 -5.84766,-1.195313 -7.59375,0 -12.48047,5.179688 -12.48047,12.328126 0,7.10156 4.55859,11.85937 11.56641,11.85937 3.11718,0 5.5664,-0.77343 6.66797,-1.34765 z m 5.66016,4.03125 h 4.21875 v -14.01563 c 0,-0.82031 0.0586,-1.441406 0.29297,-2.015624 0.77343,-2.308594 2.92968,-4.230469 5.66015,-4.230469 3.98438,0 5.37891,3.175781 5.37891,6.914063 v 13.34766 h 4.23047 v -13.82813 c 0,-8.015624 -4.99219,-9.937499 -8.1211,-9.937499 -1.58203,0 -3.07031,0.480468 -4.3125,1.207031 -1.30078,0.714844 -2.35546,1.769531 -3.02343,2.976562 h -0.10547 V 81.121741 h -4.21875 z m 26.01855,-32.449223 c -0.52734,3.457031 -1.78125,8.449219 -2.83593,11.285156 l 2.69531,-0.339844 c 1.33594,-2.203125 3.39844,-7.347656 4.51172,-11.378906 z m 3.89063,31.347653 c 1.6289,0.96094 3.98437,1.58203 6.52734,1.58203 5.51953,0 8.6836,-2.88281 8.6836,-6.96093 0,-3.45703 -2.0625,-5.47266 -6.09375,-7.00782 -3.02344,-1.14843 -4.41797,-2.015621 -4.41797,-3.937496 0,-1.722656 1.39453,-3.164062 3.89062,-3.164062 2.15625,0 3.84375,0.761719 4.7461,1.347656 l 1.0664,-3.082031 c -1.30078,-0.761719 -3.36328,-1.441406 -5.71875,-1.441406 -4.99219,0 -8.01562,3.082031 -8.01562,6.820312 0,2.789067 1.96875,5.085937 6.14062,6.574217 3.12891,1.16016 4.32422,2.26172 4.32422,4.27735 0,1.92187 -1.44141,3.45703 -4.51172,3.45703 -2.10937,0 -4.32422,-0.86719 -5.5664,-1.6875 z m 59.03027,1.10157 h 4.08985 l -2.01563,-32.355473 h -5.33203 l -5.76563,15.65625 c -1.42968,4.078123 -2.58984,7.628903 -3.39843,10.886723 h -0.15235 c -0.80859,-3.35157 -1.92187,-6.90235 -3.25781,-10.886723 l -5.51953,-15.65625 h -5.33203 l -2.25,32.355473 h 3.98437 l 0.85547,-13.875 c 0.29297,-4.839848 0.52735,-10.265629 0.63281,-14.296879 h 0.0937 c 0.91407,3.832031 2.20313,8.015625 3.73829,12.574218 l 5.23828,15.410161 h 3.16406 l 5.70703,-15.703129 c 1.64063,-4.464844 2.97656,-8.496094 4.08984,-12.28125 h 0.14063 c -0.0469,4.03125 0.23437,9.457031 0.48047,13.968749 z m 27.36035,0 c -0.28125,-1.58204 -0.375,-3.55079 -0.375,-5.56641 v -8.69531 c 0,-4.652347 -1.73437,-9.503909 -8.83593,-9.503909 -2.92969,0 -5.70704,0.820312 -7.62891,2.074218 l 0.96094,2.777344 c 1.6289,-1.054687 3.8789,-1.722656 6.04687,-1.722656 4.7461,0 5.27344,3.457031 5.27344,5.367187 v 0.480466 c -8.97656,-0.0469 -13.96875,3.02344 -13.96875,8.64844 0,3.35156 2.40234,6.66797 7.11328,6.66797 3.30469,0 5.80078,-1.62891 7.10156,-3.45703 h 0.14063 l 0.33984,2.92969 z m -4.46484,-7.82813 c 0,0.43359 -0.0937,0.91406 -0.23438,1.34766 -0.66796,1.96875 -2.58984,3.89062 -5.61328,3.89062 -2.16797,0 -3.98437,-1.30078 -3.98437,-4.03125 0,-4.51172 5.22656,-5.33203 9.83203,-5.23828 z m 10.90137,7.82813 h 4.125 v -14.01563 c 0,-0.71484 0.0937,-1.441406 0.33984,-2.062499 0.66797,-2.109375 2.58984,-4.230469 5.22656,-4.230469 3.22266,0 4.85157,2.695312 4.85157,6.386718 v 13.92188 h 4.125 V 100.8444 c 0,-0.76172 0.15234,-1.535159 0.33984,-2.109378 0.71484,-2.0625 2.58984,-3.84375 4.99219,-3.84375 3.41015,0 5.03906,2.695312 5.03906,7.160158 v 13.14844 h 4.125 v -13.67579 c 0,-8.062496 -4.55859,-10.089839 -7.62891,-10.089839 -2.20312,0 -3.73828,0.585937 -5.13281,1.640625 -0.96094,0.714843 -1.875,1.722656 -2.58984,3.023437 h -0.10547 c -1.00781,-2.742187 -3.39844,-4.664062 -6.57422,-4.664062 -3.83203,0 -6,2.074218 -7.28906,4.277343 h -0.15235 l -0.1875,-3.738281 h -3.6914 c 0.14062,1.910156 0.1875,3.878906 0.1875,6.28125 z m 56.73047,0 c -0.28125,-1.58204 -0.375,-3.55079 -0.375,-5.56641 v -8.69531 c 0,-4.652347 -1.73438,-9.503909 -8.83594,-9.503909 -2.92969,0 -5.70703,0.820312 -7.62891,2.074218 l 0.96094,2.777344 c 1.62891,-1.054687 3.87891,-1.722656 6.04687,-1.722656 4.7461,0 5.27344,3.457031 5.27344,5.367187 v 0.480466 c -8.97656,-0.0469 -13.96875,3.02344 -13.96875,8.64844 0,3.35156 2.40235,6.66797 7.11328,6.66797 3.30469,0 5.80078,-1.62891 7.10157,-3.45703 h 0.14062 l 0.33984,2.92969 z m -4.46485,-7.82813 c 0,0.43359 -0.0937,0.91406 -0.23437,1.34766 -0.66797,1.96875 -2.58985,3.89062 -5.61328,3.89062 -2.16797,0 -3.98438,-1.30078 -3.98438,-4.03125 0,-4.51172 5.22656,-5.33203 9.83203,-5.23828 z m 10.9043,7.82813 h 4.17187 v -12.38672 c 0,-0.71485 0.10547,-1.39453 0.19922,-1.96875 0.57422,-3.164066 2.6836,-5.425784 5.66016,-5.425784 0.57422,0 1.00781,0.05859 1.4414,0.152343 v -3.984375 c -0.38671,-0.09375 -0.71484,-0.152343 -1.19531,-0.152343 -2.83594,0 -5.3789,1.96875 -6.43359,5.097656 h -0.19922 l -0.14063,-4.558594 h -3.6914 c 0.14062,2.15625 0.1875,4.511719 0.1875,7.242188 z m 15.88183,9.5039 h 4.17188 v -12.62109 h 0.10547 c 1.38281,2.29687 4.07812,3.64453 7.14844,3.64453 5.47265,0 10.55859,-4.125 10.55859,-12.48047 0,-7.054687 -4.21875,-11.812499 -9.84375,-11.812499 -3.78516,0 -6.52734,1.6875 -8.25,4.523437 h -0.0937 l -0.19922,-3.984375 h -3.78516 c 0.0937,2.203125 0.1875,4.605469 0.1875,7.582031 z m 4.17188,-22.94531 c 0,-0.57422 0.15234,-1.19531 0.29297,-1.72266 0.82031,-3.175778 3.5039,-5.238278 6.38672,-5.238278 4.46484,0 6.91406,3.984375 6.91406,8.636718 0,5.33203 -2.60156,8.97656 -7.06641,8.97656 -3.02343,0 -5.5664,-2.01562 -6.32812,-4.93359 -0.0937,-0.53906 -0.19922,-1.11328 -0.19922,-1.73438 z m 27.36035,13.44141 V 91.973303 h -4.21875 v 23.226567 z m -2.10937,-32.402348 c -1.53516,0 -2.63672,1.160156 -2.63672,2.636719 0,1.441406 1.05468,2.601562 2.54297,2.601562 1.67578,0 2.74218,-1.160156 2.68359,-2.601562 0,-1.476563 -1.00781,-2.636719 -2.58984,-2.636719 z m 27.78808,21.550778 c 0.0469,-0.43359 0.15235,-1.10156 0.15235,-1.96875 0,-4.265622 -2.01563,-10.945309 -9.60938,-10.945309 -6.76172,0 -10.88672,5.53125 -10.88672,12.539059 0,7.00782 4.26563,11.70703 11.41406,11.70703 3.70313,0 6.2461,-0.77343 7.73438,-1.4414 l -0.71484,-3.02344 c -1.59375,0.66797 -3.41016,1.19531 -6.4336,1.19531 -4.23047,0 -7.875,-2.34375 -7.96875,-8.0625 z m -16.26562,-3.02343 c 0.32812,-2.929692 2.20312,-6.855473 6.48047,-6.855473 4.74609,0 5.90625,4.171875 5.84765,6.855473 z m 37.49121,9.84375 c -1.20703,0.52734 -2.78906,1.14843 -5.19141,1.14843 -4.60547,0 -8.0625,-3.30468 -8.0625,-8.68359 0,-4.851563 2.88281,-8.789063 8.21485,-8.789063 2.29687,0 3.8789,0.527344 4.88671,1.113281 l 0.96094,-3.269531 c -1.14844,-0.574219 -3.35156,-1.195313 -5.84765,-1.195313 -7.59375,0 -12.48047,5.179688 -12.48047,12.328126 0,7.10156 4.55859,11.85937 11.5664,11.85937 3.11719,0 5.56641,-0.77343 6.66797,-1.34765 z m 0,0" style="fill:#ffffff;fill-opacity:1;fill-rule:nonzero;stroke:none" aria-label="PARAMOUNT PRESENTS&#10;James STEWART and Kim NOVAK&#10;In Alfred Hicheech’s Mamarpiec " transform="matrix(1.3333333,0,0,1.3333333,1098.8261,3841.0799)" />
    </g></svg>