<?xml version='1.0' encoding='utf-8'?>
<svg xmlns="http://www.w3.org/2000/svg" version="1.1" width="1894.600" height="2590.370" viewBox="50.174 1655.600 1894.600 2590.370"><defs id="defs1"><clipPath clipPathUnits="userSpaceOnUse" id="clipPath11">
      <path d="M -2297.4972,2808.5926 H 86.442877 V -561.79751 H -2297.4972 Z" id="path11" />
    </clipPath>
  </defs><g id="object"><path id="path2" d="m 0,0 c -20.04,-0.969 -38.014,-1.733 -55.975,-2.729 -33.341,-1.848 -66.424,-5.83 -99.342,-11.516 -41.825,-7.225 -82.989,-17.137 -123.246,-30.465 -38.101,-12.613 -75.206,-27.813 -111.393,-45.285 -22.988,-11.1 -45.188,-23.578 -67.341,-36.183 -19.246,-10.951 -37.509,-23.458 -55.821,-35.856 -18.618,-12.607 -37.197,-25.276 -55.051,-38.994 -18.757,-14.411 -36.54,-29.902 -53.563,-46.29 -22.706,-21.858 -44.12,-44.94 -64.384,-69.063 -9.153,-10.896 -17.682,-22.319 -26.411,-33.568 -7.124,-9.18 -13.936,-18.607 -21.214,-27.66 -19.336,-24.048 -36.155,-49.821 -49.916,-77.326 -15.427,-30.833 -28.955,-62.564 -39.347,-95.569 -11.285,-35.844 -20.575,-72.101 -24.805,-109.509 -2.106,-18.625 -3.82,-37.283 -3.836,-56.068 -0.006,-7.856 -1.048,-15.713 -1.011,-23.567 0.121,-25.899 2.126,-51.699 5.74,-77.326 5.983,-42.431 15.829,-83.977 30.429,-124.304 5.74,-15.856 12.375,-31.36 19.634,-46.615 15.174,-31.888 32.965,-62.279 52.634,-91.523 14.654,-21.786 31.508,-41.948 48.663,-61.845 23.171,-26.875 50.477,-49.057 78.44,-70.577 17.858,-13.743 36.959,-25.626 55.761,-37.963 1.877,-1.232 3.868,-2.3 5.86,-3.34 2.217,-1.158 4.346,-0.947 6.18,0.836 1.882,1.829 3.739,3.685 5.56,5.576 19.516,20.254 39.467,40.06 60.013,59.277 16.705,15.625 32.751,31.908 48.265,48.74 10.157,11.02 21.114,21.302 31.658,31.97 27.672,27.996 55.263,56.073 82.99,84.014 12.149,12.243 24.552,24.233 36.837,36.341 1.869,1.842 3.767,3.658 5.57,5.564 1.774,1.875 2.088,4 0.279,5.992 -1.758,1.936 -3.685,3.728 -5.609,5.506 -16.787,15.514 -33.563,31.042 -50.399,46.505 -15.462,14.201 -31.025,28.293 -46.484,42.498 -9.66,8.876 -19.079,18.018 -28.834,26.787 -32.895,29.571 -65.937,58.978 -98.819,88.563 -8.356,7.518 -16.342,15.449 -24.453,23.238 -0.785,0.753 -1.489,1.767 -1.804,2.791 -0.468,1.519 -0.076,3.348 1.584,3.617 3.664,0.593 7.405,0.961 11.116,0.973 23.25,0.076 46.501,0.033 69.752,0.022 80.627,-0.037 161.255,-0.044 241.883,-0.148 13.155,-0.017 11.123,1.29 21.816,-8.508 25.695,-23.544 51.686,-46.765 77.464,-70.219 24.117,-21.942 48.201,-43.922 72.142,-66.055 33.029,-30.534 65.823,-61.322 98.896,-91.808 14.88,-13.717 30.275,-26.874 45.286,-40.452 19.733,-17.851 39.622,-35.542 58.418,-54.398 9.184,-9.214 9.163,-9.519 0.51,-18.865 -15.786,-17.051 -31.704,-33.979 -47.459,-51.059 -13.72,-14.874 -27.285,-29.891 -40.932,-44.832 -2.023,-2.214 -4.022,-4.463 -6.194,-6.524 -15.515,-14.724 -29.89,-30.547 -44.495,-46.144 -9.677,-10.335 -9.494,-8.953 -18.552,-0.848 -27.375,24.493 -54.874,48.848 -82.117,73.486 -11.951,10.808 -23.382,22.19 -35.088,33.269 -3.539,3.348 -7.141,6.637 -10.856,9.786 -1.544,1.31 -3.539,1.382 -5.143,-0.043 -2.237,-1.988 -4.451,-4.032 -6.447,-6.256 -11.268,-12.554 -22.281,-25.342 -33.741,-37.716 -12.986,-14.022 -26.279,-27.763 -39.571,-41.499 -22.949,-23.714 -44.831,-48.403 -66.901,-72.921 -14.291,-15.879 -28.598,-31.744 -42.806,-47.698 -2.12,-2.381 -6.263,-4.548 -4.448,-8.215 1.264,-2.555 5.311,-2.302 8.277,-2.559 15.686,-1.364 31.354,-2.951 47.132,-2.978 21.373,-0.037 42.773,-0.632 64.082,1.248 28.767,2.537 57.406,6.145 85.549,12.916 31.029,7.464 61.596,16.438 91.073,28.766 14.514,6.07 29.188,11.84 43.003,19.462 6.394,3.527 13.066,4.886 20.436,4.857 64.126,-0.252 128.253,-0.241 192.38,-0.329 4.123,0 8.259,-0.018 12.366,-0.325 4.281,-0.32 6.191,-1.949 6.553,-6.239 0.693,-8.209 1.313,-16.453 1.342,-24.685 0.155,-43.876 0.115,-87.753 0.146,-131.629 0.047,-64.501 0.066,-129.002 0.153,-193.503 0.119,-88.125 0.304,-176.25 0.425,-264.376 0.021,-15.279 -0.464,-15.778 -15.863,-15.743 -65.627,0.149 -131.255,0.357 -196.882,0.562 -2.621,0.01 -5.271,0 -7.856,0.364 -4.332,0.608 -6.667,3.017 -7.229,7.322 -0.29,2.22 -0.199,4.489 -0.279,6.736 -1.571,43.857 -1.028,87.737 -1.364,131.607 -0.481,62.624 -0.62,125.25 -0.906,187.876 -0.041,8.998 -0.018,17.998 -0.173,26.995 -0.049,2.894 -1.952,4.066 -4.532,2.992 -2.419,-1.007 -4.774,-2.177 -7.108,-3.373 -54.649,-28.006 -111.959,-48.737 -171.601,-63.248 -30.635,-7.452 -61.524,-13.47 -92.761,-17.624 -11.882,-1.581 -23.879,-2.283 -35.816,-3.461 -31.778,-3.135 -63.642,-3.32 -95.505,-2.382 -37.121,1.092 -74.073,4.079 -110.671,10.849 -23.601,4.365 -47.21,8.668 -70.364,15.023 -6.501,1.785 -10.827,-0.584 -14.95,-4.923 -9.039,-9.512 -18.316,-18.806 -27.156,-28.499 -18.689,-20.491 -37.175,-41.166 -55.714,-61.792 -25.061,-27.883 -50.159,-55.726 -75.736,-83.146 -23.77,-25.484 -46.709,-51.743 -70.026,-77.651 -8.275,-9.193 -16.583,-18.356 -24.877,-27.533 -0.501,-0.554 -0.968,-1.15 -1.521,-1.647 -3.811,-3.422 -7.133,-3.804 -11.037,-0.497 -6.002,5.084 -11.78,10.443 -17.509,15.838 -25.93,24.414 -51.68,49.021 -77.756,73.278 -15.641,14.55 -31.791,28.553 -47.655,42.865 -6.678,6.025 -13.218,12.206 -19.8,18.337 -1.096,1.021 -2.168,2.087 -3.11,3.247 -2.272,2.795 -2.637,5.311 -0.632,8.241 1.889,2.762 4.129,5.328 6.47,7.731 31.39,32.219 61.977,65.215 94.012,96.811 11.203,11.05 21.838,22.675 32.92,33.852 17.156,17.302 34.531,34.385 51.697,51.677 9.509,9.579 18.841,19.338 28.134,29.128 3.69,3.889 3.425,5.711 -1.065,9.023 -5.429,4.004 -10.928,7.918 -16.503,11.717 -23.904,16.288 -45.786,35.1 -67.501,54.108 -23.426,20.507 -46.065,41.841 -67.085,64.847 -22.803,24.957 -43.056,51.888 -62.208,79.706 -21.302,30.94 -39.578,63.676 -57.335,96.687 -13.325,24.773 -24.296,50.642 -34.218,77.015 -14.957,39.757 -26.276,80.516 -35.628,121.865 -7.037,31.114 -11.172,62.676 -14.209,94.421 -2.719,28.414 -3.284,56.902 -2.965,85.368 0.344,30.734 2.957,61.363 7.055,91.874 6.307,46.957 16.44,93.049 31.214,138.021 11.115,33.836 24.361,66.875 39.091,99.369 15.852,34.969 34.597,68.217 56.169,99.856 12.869,18.875 26.443,37.29 40.62,55.247 11.62,14.719 23.642,29.066 36.131,43.056 13.002,14.564 26.902,28.208 41.011,41.661 22.53,21.482 45.693,42.246 70.74,60.785 39.481,29.222 78.836,58.661 121.47,83.267 27.605,15.933 55.792,30.732 84.743,44.163 27.939,12.962 56.482,24.291 85.523,34.381 42.209,14.666 85.333,26.162 129.252,34.29 30.574,5.657 61.367,10.072 92.39,12.931 44.862,4.134 89.751,5.471 134.768,3.957 24.735,-0.832 49.435,-2.191 74.029,-4.809 C -80.865,17.594 -46.833,11.974 -13.049,4.932 -9.157,4.12 -4.997,3.636 0,0" style="fill:#e7d520;fill-opacity:1;fill-rule:nonzero;stroke:none" transform="matrix(1.3333333,0,0,-1.3333333,1602.1263,1697.1444)" />
      </g></svg>