<?xml version='1.0' encoding='utf-8'?>
<svg xmlns="http://www.w3.org/2000/svg" version="1.1" width="47.592" height="100.484" viewBox="2541.840 4069.250 47.592 100.484"><g id="object"><path id="path174" d="m 0,0 c 2.604,0 5.208,-0.008 7.812,0.002 4.222,0.016 4.885,-3.056 5.279,-6.218 0.501,-4.008 -2.379,-3.806 -5.059,-3.983 -4.195,-0.278 -8.223,-0.987 -8.495,-6.438 -0.262,-5.267 0.163,-9.987 7.246,-10.301 3.325,-0.148 5.019,-2.147 4.629,-5.755 -0.369,-3.421 -1.339,-6.214 -5.438,-5.831 -7.792,0.728 -6.644,-4.793 -6.659,-9.385 -0.017,-5.362 2.08,-8.663 8.187,-7.715 3.124,0.485 5.774,0.021 5.945,-4.015 0.165,-3.901 -1.225,-6.452 -5.55,-6.52 -0.237,-0.004 -0.473,-0.037 -0.71,-0.033 -17.947,0.328 -20.59,-4.087 -19.588,18.316 0.587,13.127 0.823,26.371 -0.672,39.551 C -13.907,-0.972 -11.776,0.198 0,0" style="fill:#494f57;fill-opacity:1;fill-rule:nonzero;stroke:none" transform="matrix(1.3333333,0,0,-1.3333333,2565.4816,4075.276)" />
      </g></svg>