<?xml version='1.0' encoding='utf-8'?>
<svg xmlns="http://www.w3.org/2000/svg" version="1.1" width="56.911" height="100.972" viewBox="1072.570 3956.480 56.911 100.972"><g id="object"><path id="path179" d="m 0,0 c 2.704,0.125 5.069,0.168 7.422,0.359 3.875,0.314 5.521,-1.594 5.904,-5.287 0.382,-3.675 -0.822,-6.53 -4.636,-6.353 -5.372,0.25 -5.78,-3.061 -5.768,-6.755 0.041,-13.436 0.158,-26.873 0.415,-40.307 0.083,-4.326 0.352,-8.271 -5.846,-7.933 -5.229,0.285 -6.223,2.716 -6.171,7.83 0.141,13.834 -0.766,27.675 -1.055,41.518 -0.089,4.295 -1.555,6.753 -6.124,6.615 -4.058,-0.123 -4.465,2.528 -4.429,5.658 0.041,3.507 2.114,4.142 5.115,4.285 C -10.001,-0.122 -4.865,1.056 0,0" style="fill:#494f57;fill-opacity:1;fill-rule:nonzero;stroke:none" transform="matrix(1.3333333,0,0,-1.3333333,1105.6259,3963.0579)" />
      </g></svg>