<?xml version='1.0' encoding='utf-8'?>
<svg xmlns="http://www.w3.org/2000/svg" version="1.1" width="114.640" height="196.116" viewBox="327.955 2212.670 114.640 196.116"><defs id="defs1"><clipPath clipPathUnits="userSpaceOnUse" id="clipPath59">
      <path d="M 0,3370.3901 H 2383.9401 V -2.5000001e-5 H 0 Z" id="path59" />
    </clipPath>
  </defs><g id="object"><path id="path23" d="M 0,0 C 17.353,2.713 28.539,-7.988 34.126,-23.937 40.137,-41.099 33.601,-57.312 17.53,-63.763 -2.035,-71.617 4.669,-82.085 11.354,-92.491 c 5.877,-9.15 13.976,-16.999 21.76,-24.752 4.851,-4.832 9.313,-8.781 4.077,-15.881 -5.324,-7.219 -10.387,-4.741 -15.878,-0.111 -27.841,23.48 -49.975,50.866 -57.41,87.494 C -41.904,-17.129 -28.642,-0.162 0,0" style="fill:#ffffff;fill-opacity:1;fill-rule:nonzero;stroke:none" transform="matrix(1.3333333,0,0,-1.3333333,383.8704,2219.2283)" />
      </g></svg>