<?xml version='1.0' encoding='utf-8'?>
<svg xmlns="http://www.w3.org/2000/svg" version="1.1" width="49.513" height="101.366" viewBox="2861.360 4069.220 49.513 101.366"><g id="object"><path id="path156" d="m 0,0 c 3.049,0.147 5.89,0.495 8.709,0.368 3.853,-0.174 5.256,-2.66 5.065,-6.271 -0.191,-3.607 -2.491,-5.377 -5.657,-4.763 -5.163,1 -9.203,0.858 -9.27,-5.717 -0.055,-5.532 0.836,-10.595 8.122,-10.834 2.932,-0.096 4.921,-1.412 4.989,-4.753 0.072,-3.52 -1.746,-5.29 -5.048,-5.599 -6.058,-0.568 -7.586,-4.577 -8.019,-9.814 -0.357,-4.329 0.909,-6.848 5.632,-7.025 1.863,-0.071 3.724,-0.628 5.554,-1.087 3.431,-0.861 3.114,-3.613 3.111,-6.256 -0.005,-2.923 -1.39,-4.359 -4.288,-4.421 -0.707,-0.015 -1.412,-0.146 -2.12,-0.181 -20.011,-0.979 -23.083,2.363 -20.192,22.916 1.322,9.403 -0.177,18.727 0.078,28.084 0.083,3.054 0.585,6.11 0.487,9.152 -0.192,5.945 2.987,7.3 8.106,6.521 C -3.112,0.072 -1.442,0.09 0,0" style="fill:#494f57;fill-opacity:1;fill-rule:nonzero;stroke:none" transform="matrix(1.3333333,0,0,-1.3333333,2886.4847,4075.9124)" />
      </g></svg>