<?xml version='1.0' encoding='utf-8'?>
<svg xmlns="http://www.w3.org/2000/svg" version="1.1" width="1005.222" height="73.920" viewBox="1167.230 3245.050 1005.222 73.920"><defs id="defs1"><clipPath clipPathUnits="userSpaceOnUse" id="clipPath4">
      <path d="M -1519.8112,1342.3302 H 864.12885 V -2028.0599 H -1519.8112 Z" id="path4" />
    </clipPath>
  </defs><g id="object"><path id="path22" d="M 27.679169,-13.839231 32.378388,6.125e-4 H 38.4487 L 23.436981,-44.003294 H 16.581513 L 1.6283875,6.125e-4 H 7.5112 l 4.570313,-13.8398435 z m -14.425781,-4.441407 4.3125,-12.726562 c 0.84375,-2.683594 1.558593,-5.355469 2.214843,-7.96875 h 0.128907 c 0.65625,2.542969 1.3125,5.15625 2.285156,8.027344 l 4.3125,12.667968 z M 56.53952,-2.1556375 c 2.355469,1.5703125 6.984375,2.8125 11.226563,2.8125 10.382812,0 15.410156,-5.8828125 15.410156,-12.6679685 0,-6.46875 -3.785156,-10.054688 -11.226562,-12.925782 -6.070313,-2.355468 -8.753907,-4.371093 -8.753907,-8.484375 0,-3.011718 2.285157,-6.597656 8.296875,-6.597656 3.984375,0 6.914063,1.300781 8.355469,2.085938 l 1.570313,-4.628907 c -1.96875,-1.113281 -5.226563,-2.15625 -9.738282,-2.15625 -8.542968,0 -14.226562,5.085938 -14.226562,11.941407 0,6.210937 4.441406,9.925781 11.625,12.46875 5.941406,2.285156 8.285156,4.640625 8.285156,8.753906 0,4.4414062 -3.398437,7.5117187 -9.199219,7.5117187 -3.925781,0 -7.640625,-1.3125 -10.183593,-2.8828125 z m 34.400391,2.15625 h 5.683594 V -17.624388 c 1.300781,0.328125 2.871093,0.386719 4.570315,0.386719 5.55468,0 10.4414,-1.628906 13.45312,-4.828125 2.21485,-2.285156 3.38672,-5.414062 3.38672,-9.398437 0,-3.914063 -1.42969,-7.113282 -3.84375,-9.210938 -2.61328,-2.34375 -6.72656,-3.65625 -12.33984,-3.65625 -4.570315,0 -8.167972,0.398438 -10.910159,0.855469 z m 5.683594,-39.3632815 c 0.984375,-0.269531 2.871093,-0.457031 5.355465,-0.457031 6.26953,0 10.38282,2.800781 10.38282,8.613281 0,6.070313 -4.1836,9.398438 -11.03907,9.398438 -1.886715,0 -3.457028,-0.128907 -4.699215,-0.457032 z m 29.047855,-4.640625 V 6.125e-4 h 5.68359 V -44.003294 Z M 141.27487,6.125e-4 h 5.6836 V -16.780638 l 4.18359,-4.828125 14.48437,21.6093755 h 6.72657 l -17.16797,-25.3359375 15.92578,-18.667969 h -7.04297 l -13.45312,16.523438 c -1.11329,1.429687 -2.28516,3 -3.45704,4.699218 h -0.19921 v -21.222656 h -5.6836 z m 58.18067,-25.3359375 h -17.10938 v -13.898438 h 18.08203 v -4.769531 H 176.66257 V 6.125e-4 h 24.75 V -4.7689188 H 182.34616 V -20.624388 h 17.10938 z m 32.17968,10.324219 c 0,8.613281 -3,10.8984372 -8.09765,10.8984372 -1.88672,0 -3.58594,-0.3867187 -4.75782,-0.84375 l -0.85546,4.6289063 c 1.4414,0.5859375 3.98437,1.04296875 6.07031,1.04296875 7.58203,0 13.32422,-3.58593755 13.32422,-15.26953125 v -29.449219 h -5.6836 z M 264.603,-44.718138 c -11.75391,0 -20.42578,9.140625 -20.42578,23.109375 0,13.3125005 8.15625,22.32421925 19.78125,22.32421925 11.22656,0 20.42578,-8.02734375 20.42578,-23.16796925 0,-13.066406 -7.76953,-22.265625 -19.78125,-22.265625 z m -0.25782,4.628907 c 9.46875,0 14.03907,9.140625 14.03907,17.894531 0,9.984375 -5.09766,18.28125 -14.10938,18.28125 -8.9414,0 -14.02734,-8.425781 -14.02734,-17.824219 0,-9.667969 4.69922,-18.351562 14.09765,-18.351562 z M 297.1196,6.125e-4 V -18.796263 c 0,-7.3125 -0.12891,-12.609375 -0.45703,-18.152343 l 0.19922,-0.07031 c 2.21484,4.769531 5.15625,9.796875 8.22656,14.695313 L 319.0571,6.125e-4 h 5.74219 V -44.003294 h -5.35547 v 18.410156 c 0,6.855469 0.14062,12.210938 0.65625,18.0820317 l -0.12891,0.070312 c -2.08594,-4.4999997 -4.62891,-9.1406247 -7.89844,-14.2968747 l -14.09765,-22.265625 h -6.21094 V 6.125e-4 Z m 34.60254,0 h 32.12109 v -4.7695313 h -24.60937 v -0.1875 l 24.28125,-35.5898442 v -3.457031 h -29.70703 v 4.769531 h 22.33593 v 0.199219 l -24.42187,35.7070315 z m 61.89551,-25.3359375 h -17.10938 v -13.898438 h 18.08203 v -4.769531 H 370.82468 V 6.125e-4 h 24.75 V -4.7689188 H 376.50827 V -20.624388 h 17.10938 z M 416.78854,6.125e-4 h 24.49219 V -4.7689188 H 422.47214 V -44.003294 h -5.6836 z m 46.09278,-44.7187505 c -11.75391,0 -20.42578,9.140625 -20.42578,23.109375 0,13.3125005 8.15625,22.32421925 19.78125,22.32421925 11.22656,0 20.42578,-8.02734375 20.42578,-23.16796925 0,-13.066406 -7.76953,-22.265625 -19.78125,-22.265625 z m -0.25782,4.628907 c 9.46875,0 14.03907,9.140625 14.03907,17.894531 0,9.984375 -5.09766,18.28125 -14.10938,18.28125 -8.9414,0 -14.02734,-8.425781 -14.02734,-17.824219 0,-9.667969 4.69922,-18.351562 14.09765,-18.351562 z M 505.97702,6.125e-4 521.70358,-44.003294 h -6.07031 l -7.44141,21.738281 c -1.95703,5.753907 -3.78515,11.296875 -5.02734,16.3945317 h -0.12891 C 501.86374,-11.026731 500.22311,-16.3822 498.3364,-22.323606 l -6.85547,-21.679688 H 485.3403 L 499.70749,6.125e-4 Z m 43.28613,-25.3359375 h -17.10937 v -13.898438 h 18.08203 v -4.769531 H 526.47018 V 6.125e-4 h 24.75 v -4.7695313 h -19.0664 V -20.624388 h 17.10937 z m 20.95313,23.1796875 c 2.35547,1.5703125 6.98437,2.8125 11.22656,2.8125 10.38281,0 15.41016,-5.8828125 15.41016,-12.6679685 0,-6.46875 -3.78516,-10.054688 -11.22657,-12.925782 -6.07031,-2.355468 -8.7539,-4.371093 -8.7539,-8.484375 0,-3.011718 2.28515,-6.597656 8.29687,-6.597656 3.98438,0 6.91407,1.300781 8.35547,2.085938 l 1.57031,-4.628907 c -1.96875,-1.113281 -5.22656,-2.15625 -9.73828,-2.15625 -8.54297,0 -14.22656,5.085938 -14.22656,11.941407 0,6.210937 4.44141,9.925781 11.625,12.46875 5.94141,2.285156 8.28516,4.640625 8.28516,8.753906 0,4.4414062 -3.39844,7.5117187 -9.19922,7.5117187 -3.92578,0 -7.64063,-1.3125 -10.1836,-2.8828125 z m 42.75586,2.15625 h 5.7539 V -39.175169 h 13.44141 v -4.828125 h -32.57812 v 4.828125 h 13.38281 z m 40.15429,-44.7187505 c -11.7539,0 -20.42578,9.140625 -20.42578,23.109375 0,13.3125005 8.15625,22.32421925 19.78125,22.32421925 11.22657,0 20.42578,-8.02734375 20.42578,-23.16796925 0,-13.066406 -7.76953,-22.265625 -19.78125,-22.265625 z m -0.25781,4.628907 c 9.46875,0 14.03906,9.140625 14.03906,17.894531 0,9.984375 -5.09765,18.28125 -14.10937,18.28125 -8.94141,0 -14.02734,-8.425781 -14.02734,-17.824219 0,-9.667969 4.69921,-18.351562 14.09765,-18.351562 z M 680.28464,6.125e-4 h 5.68359 V -19.065794 h 5.35547 c 5.15625,0.199219 7.51172,2.484375 8.8125,8.554688 1.24219,5.4843747 2.21484,9.269531 2.94141,10.5117185 h 5.87109 c -0.91406,-1.6992188 -1.95703,-5.9414063 -3.39844,-12.0820315 -1.04297,-4.570312 -3.05859,-7.699219 -6.45703,-8.871094 v -0.199218 c 4.62891,-1.570313 8.28516,-5.414063 8.28516,-11.226563 0,-3.398437 -1.23047,-6.398437 -3.45703,-8.355469 -2.74219,-2.484375 -6.65625,-3.597656 -12.72657,-3.597656 -3.92578,0 -8.02734,0.328125 -10.91015,0.914063 z m 5.68359,-39.4335935 c 0.91406,-0.257813 2.8711,-0.515625 5.61328,-0.515625 6.01172,0.05859 10.125,2.542968 10.125,8.214843 0,5.027344 -3.85547,8.367188 -9.92578,8.367188 h -5.8125 z M 730.22995,6.125e-4 V -18.737669 l 14.75391,-25.265625 h -6.45703 l -6.33985,12.140625 c -1.6875,3.328125 -3.19922,6.210938 -4.42969,9.082031 h -0.14062 c -1.37109,-3.070312 -2.67188,-5.753906 -4.37109,-9.082031 l -6.19922,-12.140625 h -6.46875 l 13.91015,25.335938 V 6.125e-4 Z m 0,0" style="fill:#ffffff;fill-opacity:1;fill-rule:nonzero;stroke:none" aria-label="A SPIKE JONZE LOVE STORY" transform="matrix(1.3333333,0,0,1.3333333,1171.9851,3311.3429)" />
      <path id="path23" d="m 0,0 4.701,-13.841 h 6.071 L -4.244,30.162 h -6.855 l -14.95,-44.003 h 5.875 L -15.604,0 Z m -14.428,4.439 4.308,12.732 c 0.849,2.677 1.567,5.353 2.22,7.965 h 0.131 c 0.653,-2.547 1.306,-5.158 2.285,-8.031 L -1.175,4.439 Z" style="fill:none;stroke:#ffffff;stroke-width:1;stroke-linecap:butt;stroke-linejoin:miter;stroke-miterlimit:10;stroke-dasharray:none;stroke-opacity:1" transform="matrix(1.3333333,0,0,-1.3333333,1208.8939,3292.8885)" />
      <path id="path24" d="m 0,0 c 2.35,-1.566 6.985,-2.808 11.229,-2.808 10.381,0 15.408,5.876 15.408,12.666 0,6.464 -3.787,10.055 -11.229,12.927 -6.072,2.351 -8.749,4.374 -8.749,8.487 0,3.003 2.285,6.594 8.292,6.594 3.982,0 6.92,-1.305 8.356,-2.089 l 1.567,4.636 c -1.958,1.109 -5.223,2.154 -9.728,2.154 -8.552,0 -14.232,-5.092 -14.232,-11.947 0,-6.202 4.44,-9.924 11.621,-12.47 5.941,-2.285 8.291,-4.635 8.291,-8.749 0,-4.439 -3.394,-7.507 -9.205,-7.507 -3.917,0 -7.639,1.305 -10.185,2.873 z" style="fill:none;stroke:#ffffff;stroke-width:1;stroke-linecap:butt;stroke-linejoin:miter;stroke-miterlimit:10;stroke-dasharray:none;stroke-opacity:1" transform="matrix(1.3333333,0,0,-1.3333333,1247.3692,3308.4705)" />
      <path id="path25" d="m 0,0 h 5.68 v 17.628 c 1.306,-0.327 2.872,-0.393 4.57,-0.393 5.549,0 10.446,1.633 13.449,4.832 2.22,2.285 3.395,5.418 3.395,9.402 0,3.917 -1.436,7.116 -3.852,9.205 C 20.63,43.024 16.518,44.33 10.903,44.33 6.333,44.33 2.742,43.938 0,43.481 Z m 5.68,39.368 c 0.979,0.261 2.872,0.457 5.353,0.457 6.268,0 10.381,-2.807 10.381,-8.618 0,-6.071 -4.178,-9.401 -11.034,-9.401 -1.893,0 -3.46,0.131 -4.7,0.457 z" style="fill:none;stroke:#ffffff;stroke-width:1;stroke-linecap:butt;stroke-linejoin:miter;stroke-miterlimit:10;stroke-dasharray:none;stroke-opacity:1" transform="matrix(1.3333333,0,0,-1.3333333,1293.2435,3311.3429)" />
      <path id="path26" d="M 0,0 V -44.003 H 5.68 V 0 Z" style="fill:none;stroke:#ffffff;stroke-width:1;stroke-linecap:butt;stroke-linejoin:miter;stroke-miterlimit:10;stroke-dasharray:none;stroke-opacity:1" transform="matrix(1.3333333,0,0,-1.3333333,1339.5533,3252.6724)" />
      <path id="path27" d="M 0,0 H 5.68 V 16.778 L 9.858,21.61 24.352,0 h 6.725 L 13.906,25.331 29.836,44.003 H 22.785 L 9.336,27.485 C 8.226,26.05 7.051,24.482 5.875,22.785 H 5.68 V 44.003 H 0 Z" style="fill:none;stroke:#ffffff;stroke-width:1;stroke-linecap:butt;stroke-linejoin:miter;stroke-miterlimit:10;stroke-dasharray:none;stroke-opacity:1" transform="matrix(1.3333333,0,0,-1.3333333,1360.3581,3311.3429)" />
      <path id="path28" d="M 0,0 H -17.105 V 13.906 H 0.979 v 4.766 H -22.785 V -25.331 H 1.958 v 4.766 H -17.105 V -4.7 L 0,-4.7 Z" style="fill:none;stroke:#ffffff;stroke-width:1;stroke-linecap:butt;stroke-linejoin:miter;stroke-miterlimit:10;stroke-dasharray:none;stroke-opacity:1" transform="matrix(1.3333333,0,0,-1.3333333,1437.9187,3277.5681)" />
      <path id="path29" d="m 0,0 c 0,-8.617 -3.003,-10.902 -8.095,-10.902 -1.894,0 -3.591,0.391 -4.766,0.848 l -0.849,-4.635 c 1.436,-0.587 3.982,-1.044 6.072,-1.044 7.573,0 13.318,3.59 13.318,15.276 V 28.987 H 0 Z" style="fill:none;stroke:#ffffff;stroke-width:1;stroke-linecap:butt;stroke-linejoin:miter;stroke-miterlimit:10;stroke-dasharray:none;stroke-opacity:1" transform="matrix(1.3333333,0,0,-1.3333333,1480.8313,3291.3221)" />
      <path id="path30" d="m 0,0 c -11.751,0 -20.435,-9.141 -20.435,-23.111 0,-13.32 8.161,-22.328 19.782,-22.328 11.23,0 20.435,8.03 20.435,23.176 C 19.782,-9.206 12.013,0 0,0 Z m -0.261,-4.636 c 9.467,0 14.036,-9.139 14.036,-17.888 0,-9.989 -5.092,-18.281 -14.102,-18.281 -8.944,0 -14.036,8.422 -14.036,17.824 0,9.663 4.7,18.345 14.102,18.345 z" style="fill:none;stroke:#ffffff;stroke-width:1;stroke-linecap:butt;stroke-linejoin:miter;stroke-miterlimit:10;stroke-dasharray:none;stroke-opacity:1" transform="matrix(1.3333333,0,0,-1.3333333,1524.7911,3251.714)" />
      <path id="path31" d="m 0,0 v 18.803 c 0,7.312 -0.131,12.6 -0.457,18.149 l 0.196,0.066 C 1.958,32.252 4.896,27.225 7.965,22.328 L 21.937,0 h 5.745 v 44.003 h -5.354 v -18.41 c 0,-6.856 0.13,-12.209 0.653,-18.085 l -0.13,-0.066 c -2.09,4.505 -4.636,9.141 -7.9,14.298 L 0.849,44.003 H -5.354 L -5.354,0 Z" style="fill:none;stroke:#ffffff;stroke-width:1;stroke-linecap:butt;stroke-linejoin:miter;stroke-miterlimit:10;stroke-dasharray:none;stroke-opacity:1" transform="matrix(1.3333333,0,0,-1.3333333,1568.1413,3311.3429)" />
      <path id="path32" d="M 0,0 H 32.121 V 4.766 H 7.508 v 0.196 l 24.287,35.581 v 3.46 H 2.089 V 39.237 H 24.417 V 39.042 L 0,3.33 Z" style="fill:none;stroke:#ffffff;stroke-width:1;stroke-linecap:butt;stroke-linejoin:miter;stroke-miterlimit:10;stroke-dasharray:none;stroke-opacity:1" transform="matrix(1.3333333,0,0,-1.3333333,1614.2767,3311.3429)" />
      <path id="path33" d="M 0,0 H -17.105 V 13.906 H 0.979 v 4.766 H -22.785 V -25.331 H 1.958 v 4.766 H -17.105 V -4.7 L 0,-4.7 Z" style="fill:none;stroke:#ffffff;stroke-width:1;stroke-linecap:butt;stroke-linejoin:miter;stroke-miterlimit:10;stroke-dasharray:none;stroke-opacity:1" transform="matrix(1.3333333,0,0,-1.3333333,1696.7988,3277.5681)" />
      <path id="path34" d="M 0,0 H 24.482 V 4.766 H 5.68 V 44.003 H 0 Z" style="fill:none;stroke:#ffffff;stroke-width:1;stroke-linecap:butt;stroke-linejoin:miter;stroke-miterlimit:10;stroke-dasharray:none;stroke-opacity:1" transform="matrix(1.3333333,0,0,-1.3333333,1727.6999,3311.3429)" />
      <path id="path35" d="m 0,0 c -11.751,0 -20.435,-9.141 -20.435,-23.111 0,-13.32 8.161,-22.328 19.782,-22.328 11.23,0 20.435,8.03 20.435,23.176 C 19.782,-9.206 12.013,0 0,0 Z m -0.261,-4.636 c 9.467,0 14.036,-9.139 14.036,-17.888 0,-9.989 -5.092,-18.281 -14.102,-18.281 -8.944,0 -14.036,8.422 -14.036,17.824 0,9.663 4.7,18.345 14.102,18.345 z" style="fill:none;stroke:#ffffff;stroke-width:1;stroke-linecap:butt;stroke-linejoin:miter;stroke-miterlimit:10;stroke-dasharray:none;stroke-opacity:1" transform="matrix(1.3333333,0,0,-1.3333333,1789.1563,3251.714)" />
      <path id="path36" d="M 0,0 15.734,44.003 H 9.663 L 2.22,22.263 C 0.261,16.518 -1.567,10.968 -2.807,5.876 h -0.131 c -1.175,5.157 -2.807,10.511 -4.7,16.452 l -6.856,21.675 H -20.63 L -6.267,0 Z" style="fill:none;stroke:#ffffff;stroke-width:1;stroke-linecap:butt;stroke-linejoin:miter;stroke-miterlimit:10;stroke-dasharray:none;stroke-opacity:1" transform="matrix(1.3333333,0,0,-1.3333333,1846.6081,3311.3429)" />
      <path id="path37" d="M 0,0 H -17.105 V 13.906 H 0.979 v 4.766 H -22.785 V -25.331 H 1.958 v 4.766 H -17.105 V -4.7 L 0,-4.7 Z" style="fill:none;stroke:#ffffff;stroke-width:1;stroke-linecap:butt;stroke-linejoin:miter;stroke-miterlimit:10;stroke-dasharray:none;stroke-opacity:1" transform="matrix(1.3333333,0,0,-1.3333333,1904.3223,3277.5681)" />
      <path id="path38" d="m 0,0 c 2.35,-1.566 6.985,-2.808 11.229,-2.808 10.381,0 15.408,5.876 15.408,12.666 0,6.464 -3.787,10.055 -11.229,12.927 -6.072,2.351 -8.749,4.374 -8.749,8.487 0,3.003 2.285,6.594 8.292,6.594 3.982,0 6.92,-1.305 8.356,-2.089 l 1.567,4.636 c -1.958,1.109 -5.223,2.154 -9.728,2.154 -8.552,0 -14.232,-5.092 -14.232,-11.947 0,-6.202 4.44,-9.924 11.621,-12.47 5.941,-2.285 8.291,-4.635 8.291,-8.749 0,-4.439 -3.394,-7.507 -9.205,-7.507 -3.917,0 -7.639,1.305 -10.185,2.873 z" style="fill:none;stroke:#ffffff;stroke-width:1;stroke-linecap:butt;stroke-linejoin:miter;stroke-miterlimit:10;stroke-dasharray:none;stroke-opacity:1" transform="matrix(1.3333333,0,0,-1.3333333,1932.2631,3308.4705)" />
      <path id="path39" d="m 0,0 h 5.746 v 39.172 h 13.448 v 4.831 H -13.384 V 39.172 H 0 Z" style="fill:none;stroke:#ffffff;stroke-width:1;stroke-linecap:butt;stroke-linejoin:miter;stroke-miterlimit:10;stroke-dasharray:none;stroke-opacity:1" transform="matrix(1.3333333,0,0,-1.3333333,1989.28,3311.3429)" />
      <path id="path40" d="m 0,0 c -11.751,0 -20.435,-9.141 -20.435,-23.111 0,-13.32 8.161,-22.328 19.782,-22.328 11.23,0 20.435,8.03 20.435,23.176 C 19.782,-9.206 12.013,0 0,0 Z m -0.261,-4.636 c 9.467,0 14.036,-9.139 14.036,-17.888 0,-9.989 -5.092,-18.281 -14.102,-18.281 -8.944,0 -14.036,8.422 -14.036,17.824 0,9.663 4.7,18.345 14.102,18.345 z" style="fill:none;stroke:#ffffff;stroke-width:1;stroke-linecap:butt;stroke-linejoin:miter;stroke-miterlimit:10;stroke-dasharray:none;stroke-opacity:1" transform="matrix(1.3333333,0,0,-1.3333333,2042.8151,3251.714)" />
      <path id="path41" d="m 0,0 h 5.68 v 19.063 h 5.353 c 5.158,-0.195 7.509,-2.48 8.814,-8.552 C 21.087,5.027 22.067,1.24 22.785,0 h 5.876 c -0.914,1.697 -1.959,5.941 -3.395,12.078 -1.045,4.57 -3.069,7.704 -6.463,8.879 v 0.196 c 4.635,1.567 8.291,5.419 8.291,11.23 0,3.394 -1.24,6.397 -3.46,8.356 C 20.892,43.22 16.975,44.33 10.903,44.33 6.986,44.33 2.873,44.003 0,43.416 Z m 5.68,39.434 c 0.914,0.26 2.872,0.522 5.614,0.522 6.007,-0.065 10.12,-2.547 10.12,-8.227 0,-5.027 -3.852,-8.356 -9.924,-8.356 H 5.68 Z" style="fill:none;stroke:#ffffff;stroke-width:1;stroke-linecap:butt;stroke-linejoin:miter;stroke-miterlimit:10;stroke-dasharray:none;stroke-opacity:1" transform="matrix(1.3333333,0,0,-1.3333333,2079.0273,3311.3429)" />
      <path id="path42" d="M 0,0 V 18.737 L 14.755,44.003 H 8.292 L 1.958,31.86 C 0.261,28.53 -1.24,25.658 -2.481,22.785 h -0.13 c -1.371,3.069 -2.677,5.745 -4.375,9.075 l -6.202,12.143 h -6.463 L -5.745,18.672 V 0 Z" style="fill:none;stroke:#ffffff;stroke-width:1;stroke-linecap:butt;stroke-linejoin:miter;stroke-miterlimit:10;stroke-dasharray:none;stroke-opacity:1" transform="matrix(1.3333333,0,0,-1.3333333,2145.6204,3311.3429)" />
      </g></svg>