<?xml version='1.0' encoding='utf-8'?>
<svg xmlns="http://www.w3.org/2000/svg" version="1.1" width="508.893" height="956.058" viewBox="2362.850 1834.130 508.893 956.058"><g id="object"><path id="path9" d="m 0,0 c 0.021,1.243 0.042,2.487 0.061,3.727 5.582,14.75 5.636,29.476 -0.218,44.173 -0.01,2.324 -0.02,4.647 -0.029,6.969 3.53,16.749 0.993,24.571 -9.291,24.86 -21.809,0.613 -43.649,0.339 -65.472,0.078 -6.312,-0.076 -9.773,-2.879 -11.746,-10.208 -6.998,-25.997 0.782,-51.933 -0.622,-77.979 -1.151,-21.369 0.678,-43.569 1.56,-65.319 0.884,-21.829 -2.373,-43.965 -1.628,-66.125 0.506,-15.02 3.695,-19.088 18.912,-18.165 4.177,0.254 8.366,0.422 12.55,0.449 27.635,0.178 55.294,-1.225 82.892,1.315 1.433,-0.015 2.865,-0.03 4.296,-0.044 3.979,-1.95 8.238,-0.886 12.377,-1.197 18.311,-1.375 36.609,0.212 54.01,-9.809 32.507,-18.72 45.194,-47.403 45.743,-82.879 0.471,-30.544 -0.124,-61.107 -0.344,-91.661 -0.294,-40.686 -1.542,-81.389 -0.677,-122.049 0.449,-21.08 -4.302,-39.673 -15.226,-57.333 -3.047,-4.927 -10.453,-6.265 -10.44,-13.387 -0.506,-0.392 -1.007,-0.788 -1.504,-1.19 -1.61,-0.163 -3.605,0.232 -4.77,-0.574 -15.848,-10.944 -33.919,-14.145 -52.482,-13.902 -40.894,0.533 -81.886,1.651 -122.664,0.888 -28.991,-0.542 -57.678,-0.681 -86.187,3.41 -25.336,3.635 -47.846,13.144 -62.502,36.629 -10.442,16.729 -9.147,34.66 -10.585,52.978 -3.233,41.178 3.529,82.054 1.652,123.097 -0.335,7.328 2.693,10.627 10.426,10.461 37.322,-0.804 74.661,0.594 111.993,-1.473 12.301,-0.682 16.884,-5.965 15.265,-17.282 -3.513,-24.543 -1.214,-49.204 -1.85,-73.8 -0.357,-13.832 0.454,-27.695 0.803,-41.543 0.152,-6.028 2.381,-11.746 8.878,-11.845 22.184,-0.336 44.352,-2.556 66.572,-0.683 6.441,0.544 7.954,4.261 9.158,9.779 2.473,11.327 0.533,22.607 0.673,33.895 0.716,57.384 2.414,114.766 0.73,172.16 -0.423,14.412 -3.352,17.991 -16.637,17.822 -46.019,-0.585 -92.021,0.495 -137.944,2.882 -25.651,1.334 -45.944,13.807 -59.281,36.581 -9.03,15.421 -12.104,30.91 -12.109,49.578 -0.009,29.881 -1.645,60.056 -1.665,89.984 -0.018,27.076 -1.637,54.174 -0.092,81.4 1.288,22.69 1.781,45.308 3.988,68.078 3.532,36.444 41.279,61.239 74.791,61.462 16.329,0.108 32.659,0.323 48.987,0.241 18.755,-0.095 37.424,1.815 56.262,1.001 17.528,-0.758 35.164,1.821 52.757,-0.539 4.397,-0.59 9.213,-2.287 12.78,2.289 3.168,0.194 6.337,0.388 9.504,0.581 1.602,-2.167 3.263,-2.24 4.985,-0.138 1.703,-0.078 3.407,-0.156 5.11,-0.234 1.661,-2.195 3.319,-2.176 4.974,0.007 5.125,-0.128 10.25,-0.256 15.373,-0.384 15.432,-6.302 32.769,-7.748 46.314,-19.037 4.22,-3.516 7.271,-9.419 14.037,-9.296 0.536,-0.915 1.073,-1.831 1.606,-2.742 0.121,-6.103 0.213,-12.233 8.823,-12.205 0.354,-0.97 0.708,-1.939 1.06,-2.905 2.592,-15.917 7.268,-31.407 7.103,-47.904 -0.102,-10.107 -1.153,-20.784 3.548,-30.528 -0.091,-1.856 -0.182,-3.712 -0.274,-5.563 -0.555,-7.17 -1.593,-14.346 -1.579,-21.52 0.049,-25 0.458,-49.998 0.742,-74.997 0.099,-8.704 -0.982,-14.874 -12.8,-14.874 -17.411,0 -34.821,-0.236 -52.237,0.28 -24.919,0.737 -49.842,1.321 -74.763,1.97 0,0 -0.739,0.738 -0.735,0.735 0.052,25.053 0.125,50.11 0.113,75.166 C 3.054,-3.894 2.699,-1.322 0,0" style="fill:#0c2f31;fill-opacity:1;fill-rule:nonzero;stroke:none" transform="matrix(1.3333333,0,0,-1.3333333,2672.9557,2050.5051)" />
      </g></svg>