<?xml version='1.0' encoding='utf-8'?>
<svg xmlns="http://www.w3.org/2000/svg" version="1.1" width="152.143" height="45.785" viewBox="192.257 512.269 152.143 45.785"><g id="object"><path id="path61" d="M 2.5673359,-0.00133125 H 15.223586 V -2.4622688 H 5.5087422 V -22.759144 H 2.5673359 Z M 24.847609,-16.712269 c -4.523437,0 -8.109375,3.210938 -8.109375,8.6718752 0,5.1679688 3.410157,8.41406255 7.839844,8.41406255 3.949219,0 8.132813,-2.63671875 8.132813,-8.68359375 0,-4.992188 -3.175782,-8.402344 -7.863282,-8.402344 z m -0.07031,2.226563 c 3.515625,0 4.898437,3.515625 4.898437,6.2812497 0,3.6796875 -2.132812,6.3515625 -4.96875,6.3515625 -2.894531,0 -4.957031,-2.7070312 -4.957031,-6.28125 0,-3.1054692 1.523438,-6.3515622 5.027344,-6.3515622 z m 11.677734,14.48437475 h 2.976563 V -9.8216438 c 0,-0.5156252 0.07031,-1.0195312 0.199218,-1.3828122 0.503907,-1.664063 2.027344,-3.046875 3.984375,-3.046875 2.800782,0 3.785157,2.191406 3.785157,4.8281247 v 9.42187505 h 2.964843 V -9.76305 c 0,-5.601563 -3.503906,-6.949219 -5.765625,-6.949219 -2.707031,0 -4.59375,1.523438 -5.402343,3.070313 h -0.07031 l -0.164062,-2.695313 H 36.32613 c 0.09375,1.347656 0.128906,2.730469 0.128906,4.417969 z M 66.334914,-23.977894 v 9.761719 h -0.07031 c -0.738282,-1.3125 -2.425782,-2.496094 -4.921875,-2.496094 -3.984375,0 -7.359375,3.339844 -7.335938,8.777344 0,4.9570312 3.046875,8.30859375 6.996094,8.30859375 2.660156,0 4.652344,-1.38281255 5.566406,-3.21093755 h 0.07031 l 0.128906,2.83593755 h 2.671875 C 69.334914,-1.1146125 69.311477,-2.7669563 69.311477,-4.2200813 V -23.977894 Z m 0,17.121094 c 0,0.46875 -0.03516,0.8789062 -0.128906,1.2890625 -0.550781,2.2265625 -2.367188,3.5390625 -4.359375,3.5390625 -3.210938,0 -4.828125,-2.7304688 -4.828125,-6.046875 0,-3.609375 1.816406,-6.304688 4.898437,-6.304688 2.226563,0 3.84375,1.546875 4.289063,3.445313 0.09375,0.363281 0.128906,0.867187 0.128906,1.2421875 z m 14.821289,-9.855469 c -4.523437,0 -8.109375,3.210938 -8.109375,8.6718752 0,5.1679688 3.410156,8.41406255 7.839844,8.41406255 3.949219,0 8.132812,-2.63671875 8.132812,-8.68359375 0,-4.992188 -3.175781,-8.402344 -7.863281,-8.402344 z m -0.07031,2.226563 c 3.515625,0 4.898437,3.515625 4.898437,6.2812497 0,3.6796875 -2.132812,6.3515625 -4.96875,6.3515625 -2.894531,0 -4.957031,-2.7070312 -4.957031,-6.28125 0,-3.1054692 1.523437,-6.3515622 5.027344,-6.3515622 z m 11.677734,14.48437475 h 2.976562 V -9.8216438 c 0,-0.5156252 0.07031,-1.0195312 0.199219,-1.3828122 0.503906,-1.664063 2.027344,-3.046875 3.984375,-3.046875 2.800777,0 3.785157,2.191406 3.785157,4.8281247 v 9.42187505 h 2.96484 V -9.76305 c 0,-5.601563 -3.50391,-6.949219 -5.76562,-6.949219 -2.707033,0 -4.593752,1.523438 -5.402346,3.070313 H 95.4355 l -0.164063,-2.695313 h -2.636718 c 0.09375,1.347656 0.128906,2.730469 0.128906,4.417969 z m 0,0" style="fill:#231916;fill-opacity:1;fill-rule:nonzero;stroke:none" aria-label="London" transform="matrix(1.3333333,0,0,1.3333333,195.50267,550.8924)" />
      <path id="path62" d="M 0,0 H 12.659 V 2.464 H 2.937 V 22.753 H 0 Z" style="fill:none;stroke:#231916;stroke-width:1;stroke-linecap:butt;stroke-linejoin:miter;stroke-miterlimit:10;stroke-dasharray:none;stroke-opacity:1" transform="matrix(1.3333333,0,0,-1.3333333,198.92347,550.8924)" />
      <path id="path63" d="m 0,0 c -4.524,0 -8.102,-3.207 -8.102,-8.676 0,-5.164 3.41,-8.405 7.832,-8.405 3.949,0 8.135,2.633 8.135,8.675 C 7.865,-3.409 4.692,0 0,0 Z m -0.068,-2.228 c 3.511,0 4.895,-3.511 4.895,-6.279 0,-3.68 -2.127,-6.347 -4.962,-6.347 -2.903,0 -4.962,2.701 -4.962,6.28 0,3.105 1.519,6.346 5.029,6.346 z" style="fill:none;stroke:#231916;stroke-width:1;stroke-linecap:butt;stroke-linejoin:miter;stroke-miterlimit:10;stroke-dasharray:none;stroke-opacity:1" transform="matrix(1.3333333,0,0,-1.3333333,228.62987,528.6124)" />
      <path id="path64" d="m 0,0 h 2.971 v 9.824 c 0,0.506 0.067,1.012 0.202,1.384 0.506,1.654 2.026,3.038 3.983,3.038 2.802,0 3.782,-2.194 3.782,-4.828 V 0 h 2.97 v 9.756 c 0,5.604 -3.511,6.954 -5.773,6.954 -2.7,0 -4.591,-1.519 -5.401,-3.072 H 2.667 L 2.498,16.339 H -0.135 C -0.034,14.988 0,13.604 0,11.917 Z" style="fill:none;stroke:#231916;stroke-width:1;stroke-linecap:butt;stroke-linejoin:miter;stroke-miterlimit:10;stroke-dasharray:none;stroke-opacity:1" transform="matrix(1.3333333,0,0,-1.3333333,244.11333,550.8924)" />
      <path id="path65" d="m 0,0 v -9.756 h -0.067 c -0.743,1.317 -2.431,2.498 -4.929,2.498 -3.983,0 -7.359,-3.342 -7.326,-8.777 0,-4.962 3.038,-8.304 6.988,-8.304 2.667,0 4.659,1.384 5.57,3.207 h 0.068 l 0.135,-2.836 h 2.666 c -0.101,1.114 -0.134,2.768 -0.134,4.22 L 2.971,0 Z m 0,-17.115 c 0,-0.472 -0.034,-0.878 -0.135,-1.283 -0.54,-2.228 -2.363,-3.544 -4.355,-3.544 -3.207,0 -4.827,2.734 -4.827,6.042 0,3.612 1.823,6.313 4.895,6.313 2.228,0 3.848,-1.553 4.287,-3.443 C -0.034,-13.401 0,-13.908 0,-14.279 Z" style="fill:none;stroke:#231916;stroke-width:1;stroke-linecap:butt;stroke-linejoin:miter;stroke-miterlimit:10;stroke-dasharray:none;stroke-opacity:1" transform="matrix(1.3333333,0,0,-1.3333333,283.94693,518.93533)" />
      <path id="path66" d="m 0,0 c -4.523,0 -8.102,-3.207 -8.102,-8.676 0,-5.164 3.41,-8.405 7.832,-8.405 3.95,0 8.135,2.633 8.135,8.675 C 7.865,-3.409 4.692,0 0,0 Z m -0.067,-2.228 c 3.51,0 4.894,-3.511 4.894,-6.279 0,-3.68 -2.126,-6.347 -4.962,-6.347 -2.903,0 -4.963,2.701 -4.963,6.28 0,3.105 1.519,6.346 5.031,6.346 z" style="fill:none;stroke:#231916;stroke-width:1;stroke-linecap:butt;stroke-linejoin:miter;stroke-miterlimit:10;stroke-dasharray:none;stroke-opacity:1" transform="matrix(1.3333333,0,0,-1.3333333,303.70667,528.6124)" />
      <path id="path67" d="m 0,0 h 2.971 v 9.824 c 0,0.506 0.067,1.012 0.202,1.384 0.507,1.654 2.026,3.038 3.984,3.038 2.801,0 3.781,-2.194 3.781,-4.828 V 0 h 2.97 v 9.756 c 0,5.604 -3.511,6.954 -5.772,6.954 -2.701,0 -4.592,-1.519 -5.402,-3.072 H 2.667 L 2.498,16.339 H -0.135 C -0.034,14.988 0,13.604 0,11.917 Z" style="fill:none;stroke:#231916;stroke-width:1;stroke-linecap:butt;stroke-linejoin:miter;stroke-miterlimit:10;stroke-dasharray:none;stroke-opacity:1" transform="matrix(1.3333333,0,0,-1.3333333,319.18973,550.8924)" />
      </g></svg>