<?xml version='1.0' encoding='utf-8'?>
<svg xmlns="http://www.w3.org/2000/svg" version="1.1" width="1401.500" height="57.219" viewBox="883.008 2868.220 1401.500 57.219"><g id="object"><path id="path49" d="M 11.307603,-3.0625e-4 V -10.336244 l 8.132813,-13.933593 h -3.5625 l -3.492188,6.703125 c -0.9375,1.839843 -1.769531,3.421875 -2.4492186,5.003906 h -0.070312 c -0.7617188,-1.699219 -1.4765625,-3.164063 -2.4140625,-5.003906 l -3.421875,-6.703125 H 0.46775937 l 7.66406253,13.96875 V -3.0625e-4 Z M 26.747056,-17.824525 c -4.828125,0 -8.636719,3.421875 -8.636719,9.2578125 0,5.5078125 3.632813,8.96484375 8.34375,8.96484375 4.21875,0 8.683594,-2.81249995 8.683594,-9.25781245 0,-5.3203128 -3.386719,-8.9648438 -8.390625,-8.9648438 z m -0.07031,2.378906 c 3.738281,0 5.214843,3.75 5.214843,6.7031253 0,3.9140625 -2.261718,6.7617187 -5.285156,6.7617187 -3.09375,0 -5.296875,-2.8828125 -5.296875,-6.6914062 0,-3.3164058 1.617188,-6.7734378 5.367188,-6.7734378 z m 27.029297,-1.980468 H 50.54198 v 10.6992183 c 0,0.5742187 -0.105469,1.1484375 -0.28125,1.6171875 -0.585937,1.40625 -2.0625,2.8828125 -4.183594,2.8828125 -2.882812,0 -3.890625,-2.2382813 -3.890625,-5.5546875 v -9.6445308 h -3.164062 v 10.195312 c 0,6.1171875 3.28125,7.62890625 6.011719,7.62890625 3.09375,0 4.933593,-1.83984375 5.765625,-3.24609375 h 0.07031 l 0.175781,2.84765625 h 2.8125 C 53.741197,-1.3714 53.706041,-2.9534312 53.706041,-4.7581187 Z m 5.985351,-4.171875 v 4.171875 h -2.707031 v 2.414062 h 2.707031 v 9.5039063 c 0,2.0507812 0.316406,3.5976562 1.21875,4.5351562 0.761719,0.8671875 1.945313,1.3359375 3.421875,1.3359375 1.21875,0 2.191406,-0.1875 2.8125,-0.43359375 L 66.992173,-2.449525 c -0.386718,0.1054688 -1.007812,0.2226563 -1.828125,0.2226563 -1.769531,0 -2.378906,-1.2304688 -2.378906,-3.3867188 v -9.3984375 h 4.535156 v -2.414062 h -4.535156 v -5.003907 z M 70.879869,-3.0625e-4 H 74.05565 V -10.512025 c 0,-0.609375 0.03516,-1.078125 0.210937,-1.511719 0.574219,-1.734375 2.191407,-3.164062 4.253907,-3.164062 2.976562,0 4.03125,2.367187 4.03125,5.179687 V -3.0625e-4 h 3.164062 V -10.3714 c 0,-6.011719 -3.75,-7.453125 -6.082031,-7.453125 -1.195313,0 -2.308594,0.363281 -3.246094,0.902344 -0.972656,0.539062 -1.757812,1.335937 -2.261719,2.238281 h -0.07031 v -10.875 h -3.175781 z m 30.788081,0 V -17.426087 H 98.492173 V -3.0625e-4 Z M 100.0742,-24.304994 c -1.148433,0 -1.980464,0.867188 -1.980464,1.980469 0,1.089844 0.796875,1.945313 1.910154,1.945313 1.26563,0 2.05078,-0.855469 2.01563,-1.945313 0,-1.113281 -0.75,-1.980469 -1.94532,-1.980469 z m 5.625,23.4726565 c 1.21875,0.7265625 2.98829,1.1953125 4.89844,1.1953125 4.13672,0 6.51563,-2.1679687 6.51563,-5.2265625 0,-2.5898437 -1.54688,-4.1015625 -4.58203,-5.2499995 -2.26172,-0.867188 -3.30469,-1.511719 -3.30469,-2.953125 0,-1.300782 1.04297,-2.378907 2.91797,-2.378907 1.61718,0 2.87109,0.574219 3.5625,1.007813 l 0.78515,-2.296875 c -0.97265,-0.585938 -2.51953,-1.089844 -4.27734,-1.089844 -3.75,0 -6.01172,2.308594 -6.01172,5.121094 0,2.085937 1.47656,3.8085935 4.60547,4.9218748 2.34375,0.8671875 3.24609,1.6992187 3.24609,3.2109375 0,1.4414062 -1.08984,2.5898437 -3.38672,2.5898437 -1.58203,0 -3.24609,-0.6445312 -4.18359,-1.2539062 z m 23.10645,0.83203125 h 3.17578 V -10.476869 c 0,-0.539062 0.0703,-1.078125 0.21094,-1.476562 0.53906,-1.757813 2.15625,-3.234375 4.2539,-3.234375 2.97657,0 4.03125,2.332031 4.03125,5.144531 V -3.0625e-4 h 3.16407 V -10.406556 c 0,-5.976563 -3.75,-7.417969 -6.15235,-7.417969 -2.88281,0 -4.89843,1.628906 -5.76562,3.28125 h -0.0703 l -0.17579,-2.882812 h -2.8125 c 0.10547,1.441406 0.14063,2.917968 0.14063,4.722656 z M 156.16893,-17.824525 c -4.82812,0 -8.63672,3.421875 -8.63672,9.2578125 0,5.5078125 3.63281,8.96484375 8.34375,8.96484375 4.21875,0 8.6836,-2.81249995 8.6836,-9.25781245 0,-5.3203128 -3.38672,-8.9648438 -8.39063,-8.9648438 z m -0.0703,2.378906 c 3.73828,0 5.21484,3.75 5.21484,6.7031253 0,3.9140625 -2.26172,6.7617187 -5.28515,6.7617187 -3.09375,0 -5.29688,-2.8828125 -5.29688,-6.6914062 0,-3.3164058 1.61719,-6.7734378 5.36719,-6.7734378 z m 13.17773,-6.152343 v 4.171875 h -2.70703 v 2.414062 h 2.70703 v 9.5039063 c 0,2.0507812 0.31641,3.5976562 1.21875,4.5351562 0.76172,0.8671875 1.94532,1.3359375 3.42188,1.3359375 1.21875,0 2.1914,-0.1875 2.8125,-0.43359375 L 176.57713,-2.449525 c -0.38671,0.1054688 -1.00781,0.2226563 -1.82812,0.2226563 -1.76953,0 -2.37891,-1.2304688 -2.37891,-3.3867188 v -9.3984375 h 4.53516 v -2.414062 h -4.53516 v -5.003907 z M 200.62401,-3.0625e-4 C 200.41307,-1.1839 200.34276,-2.6604625 200.34276,-4.1721812 v -6.5156248 c 0,-3.492188 -1.30078,-7.136719 -6.63281,-7.136719 -2.19141,0 -4.27735,0.621094 -5.71875,1.546875 l 0.71484,2.097656 c 1.23047,-0.796875 2.91797,-1.300781 4.54688,-1.300781 3.5625,0 3.94921,2.589844 3.94921,4.03125 v 0.363281 c -6.72656,-0.03516 -10.46484,2.261719 -10.46484,6.480469 0,2.5195313 1.79297,5.00390625 5.32031,5.00390625 2.48438,0 4.35938,-1.23046875 5.33203,-2.58984375 h 0.10547 l 0.25782,2.19140625 z M 197.28417,-5.8714 c 0,0.328125 -0.082,0.6914063 -0.1875,1.0078125 -0.50391,1.4765625 -1.94532,2.9179688 -4.20704,2.9179688 -1.61718,0 -2.98828,-0.9726563 -2.98828,-3.0234375 0,-3.3867188 3.92578,-3.9960938 7.38282,-3.9257813 z m 16.52343,-15.726562 v 4.171875 h -2.70703 v 2.414062 h 2.70703 v 9.5039063 c 0,2.0507812 0.31641,3.5976562 1.21875,4.5351562 0.76172,0.8671875 1.94532,1.3359375 3.42188,1.3359375 1.21875,0 2.1914,-0.1875 2.8125,-0.43359375 L 221.10838,-2.449525 c -0.38671,0.1054688 -1.00781,0.2226563 -1.82812,0.2226563 -1.76953,0 -2.37891,-1.2304688 -2.37891,-3.3867188 v -9.3984375 h 4.53516 v -2.414062 h -4.53516 v -5.003907 z M 228.17186,-3.0625e-4 V -17.426087 h -3.17578 V -3.0625e-4 Z M 226.57811,-24.304994 c -1.14844,0 -1.98047,0.867188 -1.98047,1.980469 0,1.089844 0.79688,1.945313 1.91016,1.945313 1.26562,0 2.05078,-0.855469 2.01562,-1.945313 0,-1.113281 -0.75,-1.980469 -1.94531,-1.980469 z m 6.84375,24.30468775 h 3.09375 V -10.512025 c 0,-0.539062 0.082,-1.078125 0.25781,-1.546875 0.50391,-1.582031 1.94532,-3.164062 3.92578,-3.164062 2.41407,0 3.63282,2.015625 3.63282,4.78125 V -3.0625e-4 h 3.09375 V -10.769837 c 0,-0.574219 0.10547,-1.148438 0.25781,-1.582032 0.53906,-1.546875 1.94531,-2.871093 3.73828,-2.871093 2.55469,0 3.78516,2.015625 3.78516,5.3554683 v 9.86718745 h 3.09375 V -10.265931 c 0,-6.046875 -3.42188,-7.558594 -5.71875,-7.558594 -1.66407,0 -2.8125,0.433594 -3.85547,1.230469 -0.72656,0.539062 -1.40625,1.289062 -1.94531,2.261719 h -0.0703 c -0.76172,-2.050782 -2.55468,-3.492188 -4.93359,-3.492188 -2.88281,0 -4.5,1.546875 -5.47266,3.210938 h -0.10547 l -0.14062,-2.8125 h -2.77734 c 0.10546,1.441406 0.14062,2.917968 0.14062,4.722656 z M 277.4492,-8.1331187 c 0.0352,-0.328125 0.10547,-0.8320313 0.10547,-1.4765625 0,-3.2109378 -1.51172,-8.2148438 -7.19531,-8.2148438 -5.07422,0 -8.16797,4.148438 -8.16797,9.3984375 0,5.2617188 3.19922,8.7890625 8.56641,8.7890625 2.76562,0 4.67578,-0.57421875 5.78906,-1.078125 l -0.53906,-2.2734375 c -1.1836,0.5039063 -2.55469,0.9023438 -4.81641,0.9023438 -3.17578,0 -5.90625,-1.7695313 -5.97656,-6.046875 z m -12.19921,-2.2734373 c 0.24609,-2.191406 1.65234,-5.144531 4.86328,-5.144531 3.5625,0 4.41797,3.128906 4.38281,5.144531 z m 31.24511,-7.417969 c -4.82812,0 -8.63672,3.421875 -8.63672,9.2578125 0,5.5078125 3.63282,8.96484375 8.34375,8.96484375 4.21875,0 8.6836,-2.81249995 8.6836,-9.25781245 0,-5.3203128 -3.38672,-8.9648438 -8.39063,-8.9648438 z m -0.0703,2.378906 c 3.73828,0 5.21484,3.75 5.21484,6.7031253 0,3.9140625 -2.26171,6.7617187 -5.28515,6.7617187 -3.09375,0 -5.29688,-2.8828125 -5.29688,-6.6914062 0,-3.3164058 1.61719,-6.7734378 5.36719,-6.7734378 z M 312.333,-3.0625e-4 V -15.012025 h 4.21875 v -2.414062 H 312.333 v -0.9375 c 0,-2.660157 0.69141,-5.039063 3.38672,-5.039063 0.90235,0 1.54688,0.1875 2.01563,0.398438 l 0.43359,-2.449219 c -0.60937,-0.246094 -1.58203,-0.503906 -2.70703,-0.503906 -1.47656,0 -3.05859,0.46875 -4.24219,1.617187 -1.47656,1.40625 -2.01562,3.644531 -2.01562,6.082031 v 0.832032 h -2.44922 v 2.414062 h 2.44922 V -3.0625e-4 Z m 14.68946,0 h 3.17578 V -25.5589 h -3.17578 z m 11.66894,0 V -17.426087 h -3.17578 V -3.0625e-4 Z M 337.09764,-24.304994 c -1.14844,0 -1.98047,0.867188 -1.98047,1.980469 0,1.089844 0.79688,1.945313 1.91016,1.945313 1.26562,0 2.05078,-0.855469 2.01562,-1.945313 0,-1.113281 -0.75,-1.980469 -1.94531,-1.980469 z M 347.39842,-3.0625e-4 V -15.012025 h 4.21875 v -2.414062 h -4.21875 v -0.9375 c 0,-2.660157 0.69141,-5.039063 3.38672,-5.039063 0.90235,0 1.54688,0.1875 2.01563,0.398438 l 0.43359,-2.449219 c -0.60937,-0.246094 -1.58203,-0.503906 -2.70703,-0.503906 -1.47656,0 -3.05859,0.46875 -4.24219,1.617187 -1.47656,1.40625 -2.01562,3.644531 -2.01562,6.082031 v 0.832032 h -2.44922 v 2.414062 h 2.44922 V -3.0625e-4 Z m 20.58985,-8.13281245 c 0.0351,-0.328125 0.10547,-0.8320313 0.10547,-1.4765625 0,-3.2109378 -1.51172,-8.2148438 -7.19532,-8.2148438 -5.07422,0 -8.16797,4.148438 -8.16797,9.3984375 0,5.2617188 3.19922,8.7890625 8.56641,8.7890625 2.76563,0 4.67578,-0.57421875 5.78906,-1.078125 l -0.53906,-2.2734375 c -1.18359,0.5039063 -2.55469,0.9023438 -4.81641,0.9023438 -3.17578,0 -5.90625,-1.7695313 -5.97656,-6.046875 z m -12.19922,-2.2734373 c 0.24609,-2.191406 1.65234,-5.144531 4.86328,-5.144531 3.5625,0 4.41797,3.128906 4.38281,5.144531 z m 16.4209,14.613281 c 1.00781,-1.6875 2.58984,-5.6835937 3.45703,-8.7421875 l -3.49219,0.3632813 c -0.39844,2.625 -1.37109,6.4804687 -2.16797,8.6015625 z m 1.47656,-16.523437 c 1.28906,0 2.12109,-0.972657 2.12109,-2.226563 0,-1.335937 -0.83203,-2.273437 -2.12109,-2.273437 -1.23047,0 -2.13281,0.9375 -2.13281,2.273437 0,1.253906 0.86718,2.226563 2.13281,2.226563 z M 390.28026,-3.0625e-4 V -17.426087 h -3.17578 V -3.0625e-4 Z M 388.68651,-24.304994 c -1.14844,0 -1.98047,0.867188 -1.98047,1.980469 0,1.089844 0.79688,1.945313 1.91016,1.945313 1.26562,0 2.05078,-0.855469 2.01562,-1.945313 0,-1.113281 -0.75,-1.980469 -1.94531,-1.980469 z m 7.57031,2.707032 v 4.171875 h -2.70703 v 2.414062 h 2.70703 v 9.5039063 c 0,2.0507812 0.31641,3.5976562 1.21875,4.5351562 0.76172,0.8671875 1.94531,1.3359375 3.42188,1.3359375 1.21875,0 2.1914,-0.1875 2.8125,-0.43359375 L 403.5576,-2.449525 c -0.38672,0.1054688 -1.00781,0.2226563 -1.82812,0.2226563 -1.76953,0 -2.37891,-1.2304688 -2.37891,-3.3867188 v -9.3984375 h 4.53516 v -2.414062 h -4.53516 v -5.003907 z m 21.9961,21.59765575 V -17.426087 h -3.17579 V -3.0625e-4 Z M 416.65917,-24.304994 c -1.14844,0 -1.98047,0.867188 -1.98047,1.980469 0,1.089844 0.79687,1.945313 1.91015,1.945313 1.26563,0 2.05078,-0.855469 2.01563,-1.945313 0,-1.113281 -0.75,-1.980469 -1.94531,-1.980469 z m 5.62207,23.4726565 c 1.21875,0.7265625 2.98828,1.1953125 4.89843,1.1953125 4.13672,0 6.51563,-2.1679687 6.51563,-5.2265625 0,-2.5898437 -1.54688,-4.1015625 -4.58203,-5.2499995 -2.26172,-0.867188 -3.30469,-1.511719 -3.30469,-2.953125 0,-1.300782 1.04297,-2.378907 2.91797,-2.378907 1.61719,0 2.87109,0.574219 3.5625,1.007813 l 0.78515,-2.296875 c -0.97265,-0.585938 -2.51953,-1.089844 -4.27734,-1.089844 -3.75,0 -6.01172,2.308594 -6.01172,5.121094 0,2.085937 1.47656,3.8085935 4.60547,4.9218748 2.34375,0.8671875 3.24609,1.6992187 3.24609,3.2109375 0,1.4414062 -1.08984,2.5898437 -3.38671,2.5898437 -1.58204,0 -3.2461,-0.6445312 -4.1836,-1.2539062 z m 35.63378,0.83203125 C 457.70409,-1.1839 457.63377,-2.6604625 457.63377,-4.1721812 v -6.5156248 c 0,-3.492188 -1.30078,-7.136719 -6.63281,-7.136719 -2.1914,0 -4.27734,0.621094 -5.71875,1.546875 l 0.71485,2.097656 c 1.23046,-0.796875 2.91796,-1.300781 4.54687,-1.300781 3.5625,0 3.94922,2.589844 3.94922,4.03125 v 0.363281 c -6.72656,-0.03516 -10.46484,2.261719 -10.46484,6.480469 0,2.5195313 1.79296,5.00390625 5.32031,5.00390625 2.48437,0 4.35937,-1.23046875 5.33203,-2.58984375 h 0.10547 l 0.25781,2.19140625 z M 454.57518,-5.8714 c 0,0.328125 -0.082,0.6914063 -0.1875,1.0078125 -0.50391,1.4765625 -1.94531,2.9179688 -4.20703,2.9179688 -1.61719,0 -2.98828,-0.9726563 -2.98828,-3.0234375 0,-3.3867188 3.92578,-3.9960938 7.38281,-3.9257813 z m 14.57813,5.0390625 c 1.21875,0.7265625 2.98828,1.1953125 4.89843,1.1953125 4.13672,0 6.51563,-2.1679687 6.51563,-5.2265625 0,-2.5898437 -1.54688,-4.1015625 -4.58203,-5.2499995 -2.26172,-0.867188 -3.30469,-1.511719 -3.30469,-2.953125 0,-1.300782 1.04297,-2.378907 2.91797,-2.378907 1.61719,0 2.87109,0.574219 3.5625,1.007813 l 0.78515,-2.296875 c -0.97265,-0.585938 -2.51953,-1.089844 -4.27734,-1.089844 -3.75,0 -6.01172,2.308594 -6.01172,5.121094 0,2.085937 1.47656,3.8085935 4.60547,4.9218748 2.34375,0.8671875 3.24609,1.6992187 3.24609,3.2109375 0,1.4414062 -1.08984,2.5898437 -3.38671,2.5898437 -1.58204,0 -3.2461,-0.6445312 -4.1836,-1.2539062 z m 16.20117,-20.7656245 v 4.171875 h -2.70703 v 2.414062 h 2.70703 v 9.5039063 c 0,2.0507812 0.3164,3.5976562 1.21875,4.5351562 0.76172,0.8671875 1.94531,1.3359375 3.42187,1.3359375 1.21875,0 2.19141,-0.1875 2.8125,-0.43359375 L 492.65526,-2.449525 c -0.38672,0.1054688 -1.00781,0.2226563 -1.82813,0.2226563 -1.76953,0 -2.3789,-1.2304688 -2.3789,-3.3867188 v -9.3984375 h 4.53515 v -2.414062 h -4.53515 v -5.003907 z M 509.07323,-3.0625e-4 C 508.86229,-1.1839 508.79198,-2.6604625 508.79198,-4.1721812 v -6.5156248 c 0,-3.492188 -1.30078,-7.136719 -6.63281,-7.136719 -2.19141,0 -4.27735,0.621094 -5.71875,1.546875 l 0.71484,2.097656 c 1.23047,-0.796875 2.91797,-1.300781 4.54687,-1.300781 3.5625,0 3.94922,2.589844 3.94922,4.03125 v 0.363281 c -6.72656,-0.03516 -10.46484,2.261719 -10.46484,6.480469 0,2.5195313 1.79297,5.00390625 5.32031,5.00390625 2.48438,0 4.35938,-1.23046875 5.33203,-2.58984375 h 0.10547 l 0.25781,2.19140625 z M 505.73338,-5.8714 c 0,0.328125 -0.082,0.6914063 -0.1875,1.0078125 -0.5039,1.4765625 -1.94531,2.9179688 -4.20703,2.9179688 -1.61718,0 -2.98828,-0.9726563 -2.98828,-3.0234375 0,-3.3867188 3.92578,-3.9960938 7.38281,-3.9257813 z m 8.74512,-15.726562 v 4.171875 h -2.70703 v 2.414062 h 2.70703 v 9.5039063 c 0,2.0507812 0.31641,3.5976562 1.21875,4.5351562 0.76172,0.8671875 1.94531,1.3359375 3.42188,1.3359375 1.21875,0 2.1914,-0.1875 2.8125,-0.43359375 L 521.77928,-2.449525 c -0.38672,0.1054688 -1.00781,0.2226563 -1.82812,0.2226563 -1.76953,0 -2.37891,-1.2304688 -2.37891,-3.3867188 v -9.3984375 h 4.53516 v -2.414062 h -4.53516 v -5.003907 z m 24.97852,13.4648433 c 0.0351,-0.328125 0.10547,-0.8320313 0.10547,-1.4765625 0,-3.2109378 -1.51172,-8.2148438 -7.19532,-8.2148438 -5.07422,0 -8.16797,4.148438 -8.16797,9.3984375 0,5.2617188 3.19922,8.7890625 8.56641,8.7890625 2.76563,0 4.67578,-0.57421875 5.78906,-1.078125 l -0.53906,-2.2734375 c -1.18359,0.5039063 -2.55469,0.9023438 -4.81641,0.9023438 -3.17578,0 -5.90625,-1.7695313 -5.97656,-6.046875 z M 527.2578,-10.406556 c 0.24609,-2.191406 1.65234,-5.144531 4.86328,-5.144531 3.5625,0 4.41797,3.128906 4.38281,5.144531 z m 31.24512,-7.417969 c -4.82813,0 -8.63672,3.421875 -8.63672,9.2578125 0,5.5078125 3.63281,8.96484375 8.34375,8.96484375 4.21875,0 8.68359,-2.81249995 8.68359,-9.25781245 0,-5.3203128 -3.38672,-8.9648438 -8.39062,-8.9648438 z m -0.0703,2.378906 c 3.73828,0 5.21485,3.75 5.21485,6.7031253 0,3.9140625 -2.26172,6.7617187 -5.28516,6.7617187 -3.09375,0 -5.29687,-2.8828125 -5.29687,-6.6914062 0,-3.3164058 1.61718,-6.7734378 5.36718,-6.7734378 z M 574.34081,-3.0625e-4 V -15.012025 h 4.21875 v -2.414062 h -4.21875 v -0.9375 c 0,-2.660157 0.6914,-5.039063 3.38671,-5.039063 0.90235,0 1.54688,0.1875 2.01563,0.398438 l 0.43359,-2.449219 c -0.60937,-0.246094 -1.58203,-0.503906 -2.70703,-0.503906 -1.47656,0 -3.05859,0.46875 -4.24219,1.617187 -1.47656,1.40625 -2.01562,3.644531 -2.01562,6.082031 v 0.832032 h -2.44922 v 2.414062 h 2.44922 V -3.0625e-4 Z m 14.68945,0 h 3.09375 V -10.512025 c 0,-0.539062 0.082,-1.078125 0.25781,-1.546875 0.50391,-1.582031 1.94531,-3.164062 3.92578,-3.164062 2.41407,0 3.63282,2.015625 3.63282,4.78125 V -3.0625e-4 h 3.09375 V -10.769837 c 0,-0.574219 0.10546,-1.148438 0.25781,-1.582032 0.53906,-1.546875 1.94531,-2.871093 3.73828,-2.871093 2.55469,0 3.78516,2.015625 3.78516,5.3554683 v 9.86718745 h 3.09375 V -10.265931 c 0,-6.046875 -3.42188,-7.558594 -5.71875,-7.558594 -1.66407,0 -2.8125,0.433594 -3.85547,1.230469 -0.72657,0.539062 -1.40625,1.289062 -1.94532,2.261719 h -0.0703 c -0.76172,-2.050782 -2.55469,-3.492188 -4.93359,-3.492188 -2.88281,0 -4.5,1.546875 -5.47266,3.210938 h -0.10547 l -0.14062,-2.8125 h -2.77735 c 0.10547,1.441406 0.14063,2.917968 0.14063,4.722656 z m 33.19922,0 V -17.426087 H 619.0537 V -3.0625e-4 Z M 620.63573,-24.304994 c -1.14844,0 -1.98047,0.867188 -1.98047,1.980469 0,1.089844 0.79687,1.945313 1.91016,1.945313 1.26562,0 2.05078,-0.855469 2.01562,-1.945313 0,-1.113281 -0.75,-1.980469 -1.94531,-1.980469 z m 6.84082,24.30468775 h 3.17578 V -10.476869 c 0,-0.539062 0.0703,-1.078125 0.21094,-1.476562 0.53906,-1.757813 2.15625,-3.234375 4.2539,-3.234375 2.97657,0 4.03125,2.332031 4.03125,5.144531 V -3.0625e-4 h 3.16407 V -10.406556 c 0,-5.976563 -3.75,-7.417969 -6.15235,-7.417969 -2.88281,0 -4.89844,1.628906 -5.76562,3.28125 h -0.0703 l -0.17578,-2.882812 h -2.8125 c 0.10547,1.441406 0.14063,2.917968 0.14063,4.722656 z M 659.33983,-25.5589 v 10.40625 h -0.0703 c -0.79688,-1.40625 -2.58985,-2.671875 -5.26172,-2.671875 -4.24219,0 -7.83985,3.5625 -7.80469,9.3632813 0,5.296875 3.23438,8.85937495 7.45313,8.85937495 2.83593,0 4.96875,-1.47656245 5.9414,-3.42187495 h 0.0703 l 0.14063,3.02343745 h 2.84766 C 662.53905,-1.1839 662.50389,-2.9534312 662.50389,-4.5003062 V -25.5589 Z m 0,18.2460938 c 0,0.5039062 -0.0352,0.9375 -0.14063,1.3710937 -0.57421,2.3789063 -2.51953,3.7851563 -4.65234,3.7851563 -3.41016,0 -5.14453,-2.9179688 -5.14453,-6.4453125 0,-3.8554683 1.94531,-6.7382813 5.22656,-6.7382813 2.36719,0 4.10156,1.664063 4.57031,3.679688 0.10547,0.386718 0.14063,0.9375 0.14063,1.324218 z m 8.60742,11.5195312 c 1.00781,-1.6875 2.58985,-5.6835937 3.45703,-8.7421875 l -3.49218,0.3632813 c -0.39844,2.625 -1.3711,6.4804687 -2.16797,8.6015625 z m 1.47656,-16.523437 c 1.28907,0 2.1211,-0.972657 2.1211,-2.226563 0,-1.335937 -0.83203,-2.273437 -2.1211,-2.273437 -1.23046,0 -2.13281,0.9375 -2.13281,2.273437 0,1.253906 0.86719,2.226563 2.13281,2.226563 z M 686.02049,-3.0625e-4 V -17.426087 h -3.17578 V -3.0625e-4 Z M 684.42674,-24.304994 c -1.14843,0 -1.98047,0.867188 -1.98047,1.980469 0,1.089844 0.79688,1.945313 1.91016,1.945313 1.26563,0 2.05078,-0.855469 2.01563,-1.945313 0,-1.113281 -0.75,-1.980469 -1.94532,-1.980469 z m 7.56739,2.707032 v 4.171875 h -2.70703 v 2.414062 h 2.70703 v 9.5039063 c 0,2.0507812 0.3164,3.5976562 1.21875,4.5351562 0.76172,0.8671875 1.94531,1.3359375 3.42187,1.3359375 1.21875,0 2.19141,-0.1875 2.8125,-0.43359375 L 699.29491,-2.449525 c -0.38672,0.1054688 -1.00781,0.2226563 -1.82813,0.2226563 -1.76953,0 -2.3789,-1.2304688 -2.3789,-3.3867188 v -9.3984375 h 4.53515 v -2.414062 h -4.53515 v -5.003907 z M 713.99315,-3.0625e-4 V -17.426087 h -3.17578 V -3.0625e-4 Z M 712.3994,-24.304994 c -1.14844,0 -1.98047,0.867188 -1.98047,1.980469 0,1.089844 0.79688,1.945313 1.91016,1.945313 1.26562,0 2.05078,-0.855469 2.01562,-1.945313 0,-1.113281 -0.75,-1.980469 -1.94531,-1.980469 z m 5.62207,23.4726565 c 1.21875,0.7265625 2.98828,1.1953125 4.89844,1.1953125 4.13672,0 6.51562,-2.1679687 6.51562,-5.2265625 0,-2.5898437 -1.54687,-4.1015625 -4.58203,-5.2499995 -2.26172,-0.867188 -3.30469,-1.511719 -3.30469,-2.953125 0,-1.300782 1.04297,-2.378907 2.91797,-2.378907 1.61719,0 2.8711,0.574219 3.5625,1.007813 l 0.78516,-2.296875 c -0.97266,-0.585938 -2.51953,-1.089844 -4.27734,-1.089844 -3.75,0 -6.01172,2.308594 -6.01172,5.121094 0,2.085937 1.47656,3.8085935 4.60547,4.9218748 2.34375,0.8671875 3.24609,1.6992187 3.24609,3.2109375 0,1.4414062 -1.08984,2.5898437 -3.38672,2.5898437 -1.58203,0 -3.24609,-0.6445312 -4.18359,-1.2539062 z m 23.10645,0.83203125 h 3.17578 V -10.476869 c 0,-0.539062 0.0703,-1.078125 0.21093,-1.476562 0.53907,-1.757813 2.15625,-3.234375 4.25391,-3.234375 2.97656,0 4.03125,2.332031 4.03125,5.144531 V -3.0625e-4 h 3.16406 V -10.406556 c 0,-5.976563 -3.75,-7.417969 -6.15234,-7.417969 -2.88281,0 -4.89844,1.628906 -5.76563,3.28125 h -0.0703 l -0.17578,-2.882812 h -2.8125 c 0.10547,1.441406 0.14063,2.917968 0.14063,4.722656 z M 768.4912,-17.824525 c -4.82813,0 -8.63672,3.421875 -8.63672,9.2578125 0,5.5078125 3.63281,8.96484375 8.34375,8.96484375 4.21875,0 8.68359,-2.81249995 8.68359,-9.25781245 0,-5.3203128 -3.38672,-8.9648438 -8.39062,-8.9648438 z m -0.0703,2.378906 c 3.73829,0 5.21485,3.75 5.21485,6.7031253 0,3.9140625 -2.26172,6.7617187 -5.28516,6.7617187 -3.09375,0 -5.29687,-2.8828125 -5.29687,-6.6914062 0,-3.3164058 1.61718,-6.7734378 5.36718,-6.7734378 z m 13.17774,-6.152343 v 4.171875 h -2.70703 v 2.414062 h 2.70703 v 9.5039063 c 0,2.0507812 0.3164,3.5976562 1.21875,4.5351562 0.76172,0.8671875 1.94531,1.3359375 3.42187,1.3359375 1.21875,0 2.19141,-0.1875 2.8125,-0.43359375 L 788.8994,-2.449525 c -0.38672,0.1054688 -1.00781,0.2226563 -1.82813,0.2226563 -1.76953,0 -2.3789,-1.2304688 -2.3789,-3.3867188 v -9.3984375 h 4.53515 v -2.414062 h -4.53515 v -5.003907 z M 812.9492,-3.0625e-4 C 812.73827,-1.1839 812.66795,-2.6604625 812.66795,-4.1721812 v -6.5156248 c 0,-3.492188 -1.30078,-7.136719 -6.63281,-7.136719 -2.1914,0 -4.27734,0.621094 -5.71875,1.546875 l 0.71485,2.097656 c 1.23046,-0.796875 2.91796,-1.300781 4.54687,-1.300781 3.5625,0 3.94922,2.589844 3.94922,4.03125 v 0.363281 c -6.72656,-0.03516 -10.46484,2.261719 -10.46484,6.480469 0,2.5195313 1.79296,5.00390625 5.32031,5.00390625 2.48437,0 4.35937,-1.23046875 5.33203,-2.58984375 h 0.10547 l 0.25781,2.19140625 z M 809.60936,-5.8714 c 0,0.328125 -0.082,0.6914063 -0.1875,1.0078125 -0.50391,1.4765625 -1.94531,2.9179688 -4.20703,2.9179688 -1.61719,0 -2.98828,-0.9726563 -2.98828,-3.0234375 0,-3.3867188 3.92578,-3.9960938 7.38281,-3.9257813 z m 15.79688,5.87109375 h 3.09375 V -10.512025 c 0,-0.539062 0.082,-1.078125 0.25781,-1.546875 0.5039,-1.582031 1.94531,-3.164062 3.92578,-3.164062 2.41406,0 3.63281,2.015625 3.63281,4.78125 V -3.0625e-4 h 3.09375 V -10.769837 c 0,-0.574219 0.10547,-1.148438 0.25781,-1.582032 0.53907,-1.546875 1.94532,-2.871093 3.73829,-2.871093 2.55468,0 3.78515,2.015625 3.78515,5.3554683 v 9.86718745 h 3.09375 V -10.265931 c 0,-6.046875 -3.42187,-7.558594 -5.71875,-7.558594 -1.66406,0 -2.8125,0.433594 -3.85547,1.230469 -0.72656,0.539062 -1.40625,1.289062 -1.94531,2.261719 h -0.0703 c -0.76172,-2.050782 -2.55469,-3.492188 -4.9336,-3.492188 -2.88281,0 -4.5,1.546875 -5.47265,3.210938 h -0.10547 l -0.14063,-2.8125 h -2.77734 c 0.10547,1.441406 0.14063,2.917968 0.14063,4.722656 z m 42.55078,0 C 867.74608,-1.1839 867.67577,-2.6604625 867.67577,-4.1721812 v -6.5156248 c 0,-3.492188 -1.30078,-7.136719 -6.63282,-7.136719 -2.1914,0 -4.27734,0.621094 -5.71875,1.546875 l 0.71485,2.097656 c 1.23047,-0.796875 2.91797,-1.300781 4.54687,-1.300781 3.5625,0 3.94922,2.589844 3.94922,4.03125 v 0.363281 c -6.72656,-0.03516 -10.46484,2.261719 -10.46484,6.480469 0,2.5195313 1.79297,5.00390625 5.32031,5.00390625 2.48438,0 4.35938,-1.23046875 5.33203,-2.58984375 h 0.10547 l 0.25781,2.19140625 z M 864.61717,-5.8714 c 0,0.328125 -0.082,0.6914063 -0.1875,1.0078125 -0.5039,1.4765625 -1.94531,2.9179688 -4.20703,2.9179688 -1.61719,0 -2.98828,-0.9726563 -2.98828,-3.0234375 0,-3.3867188 3.92578,-3.9960938 7.38281,-3.9257813 z m 8.74512,-15.726562 v 4.171875 h -2.70703 v 2.414062 h 2.70703 v 9.5039063 c 0,2.0507812 0.31641,3.5976562 1.21875,4.5351562 0.76172,0.8671875 1.94531,1.3359375 3.42188,1.3359375 1.21875,0 2.1914,-0.1875 2.8125,-0.43359375 L 880.66307,-2.449525 c -0.38672,0.1054688 -1.00781,0.2226563 -1.82812,0.2226563 -1.76953,0 -2.37891,-1.2304688 -2.37891,-3.3867188 v -9.3984375 h 4.53516 v -2.414062 h -4.53516 v -5.003907 z m 11.91797,0 v 4.171875 h -2.70703 v 2.414062 h 2.70703 v 9.5039063 c 0,2.0507812 0.31641,3.5976562 1.21875,4.5351562 0.76172,0.8671875 1.94531,1.3359375 3.42187,1.3359375 1.21875,0 2.19141,-0.1875 2.8125,-0.43359375 L 892.58104,-2.449525 c -0.38672,0.1054688 -1.00781,0.2226563 -1.82812,0.2226563 -1.76954,0 -2.37891,-1.2304688 -2.37891,-3.3867188 v -9.3984375 h 4.53516 v -2.414062 h -4.53516 v -5.003907 z m 24.97559,13.4648433 c 0.0352,-0.328125 0.10546,-0.8320313 0.10546,-1.4765625 0,-3.2109378 -1.51171,-8.2148438 -7.19531,-8.2148438 -5.07422,0 -8.16797,4.148438 -8.16797,9.3984375 0,5.2617188 3.19922,8.7890625 8.56641,8.7890625 2.76562,0 4.67578,-0.57421875 5.78906,-1.078125 l -0.53906,-2.2734375 c -1.18359,0.5039063 -2.55469,0.9023438 -4.81641,0.9023438 -3.17578,0 -5.90625,-1.7695313 -5.97656,-6.046875 z m -12.19922,-2.2734373 c 0.24609,-2.191406 1.65234,-5.144531 4.86328,-5.144531 3.5625,0 4.41797,3.128906 4.38281,5.144531 z m 16.23339,10.40624975 h 3.14063 V -9.293275 c 0,-0.5390625 0.0703,-1.042969 0.14062,-1.476562 0.4336,-2.367188 2.01563,-4.066407 4.24219,-4.066407 0.4336,0 0.76172,0.03516 1.07813,0.117188 v -2.988281 c -0.28125,-0.08203 -0.53907,-0.117188 -0.89063,-0.117188 -2.13281,0 -4.03125,1.476563 -4.82812,3.820313 h -0.14063 l -0.10547,-3.421875 h -2.77734 c 0.10547,1.617187 0.14062,3.386718 0.14062,5.4375 z M 941.07616,-17.824525 c -4.82813,0 -8.63672,3.421875 -8.63672,9.2578125 0,5.5078125 3.63281,8.96484375 8.34375,8.96484375 4.21875,0 8.68359,-2.81249995 8.68359,-9.25781245 0,-5.3203128 -3.38672,-8.9648438 -8.39062,-8.9648438 z m -0.0703,2.378906 c 3.73828,0 5.21484,3.75 5.21484,6.7031253 0,3.9140625 -2.26172,6.7617187 -5.28516,6.7617187 -3.09375,0 -5.29687,-2.8828125 -5.29687,-6.6914062 0,-3.3164058 1.61719,-6.7734378 5.36719,-6.7734378 z m 15.9082,15.44531275 V -15.012025 h 4.21875 v -2.414062 h -4.21875 v -0.9375 c 0,-2.660157 0.6914,-5.039063 3.38672,-5.039063 0.90234,0 1.54687,0.1875 2.01562,0.398438 l 0.4336,-2.449219 c -0.60938,-0.246094 -1.58204,-0.503906 -2.70704,-0.503906 -1.47656,0 -3.05859,0.46875 -4.24218,1.617187 -1.47657,1.40625 -2.01563,3.644531 -2.01563,6.082031 v 0.832032 h -2.44922 v 2.414062 h 2.44922 V -3.0625e-4 Z m 14.68652,0 h 3.14063 V -9.293275 c 0,-0.5390625 0.0703,-1.042969 0.14062,-1.476562 0.4336,-2.367188 2.01563,-4.066407 4.24219,-4.066407 0.43359,0 0.76172,0.03516 1.07812,0.117188 v -2.988281 c -0.28125,-0.08203 -0.53906,-0.117188 -0.89062,-0.117188 -2.13281,0 -4.03125,1.476563 -4.82813,3.820313 h -0.14062 l -0.10547,-3.421875 h -2.77734 c 0.10547,1.617187 0.14062,3.386718 0.14062,5.4375 z M 990.39452,-17.824525 c -4.82813,0 -8.63672,3.421875 -8.63672,9.2578125 0,5.5078125 3.63281,8.96484375 8.34375,8.96484375 4.21875,0 8.68359,-2.81249995 8.68359,-9.25781245 0,-5.3203128 -3.38672,-8.9648438 -8.39062,-8.9648438 z m -0.0703,2.378906 c 3.73829,0 5.21485,3.75 5.21485,6.7031253 0,3.9140625 -2.26172,6.7617187 -5.28516,6.7617187 -3.09375,0 -5.29687,-2.8828125 -5.29687,-6.6914062 0,-3.3164058 1.61718,-6.7734378 5.36718,-6.7734378 z m 11.23538,14.6132815 c 1.2187,0.7265625 2.9882,1.1953125 4.8984,1.1953125 4.1367,0 6.5156,-2.1679687 6.5156,-5.2265625 0,-2.5898437 -1.5469,-4.1015625 -4.582,-5.2499995 -2.2617,-0.867188 -3.3047,-1.511719 -3.3047,-2.953125 0,-1.300782 1.043,-2.378907 2.918,-2.378907 1.6172,0 2.8711,0.574219 3.5625,1.007813 l 0.7851,-2.296875 c -0.9726,-0.585938 -2.5195,-1.089844 -4.2773,-1.089844 -3.75,0 -6.0117,2.308594 -6.0117,5.121094 0,2.085937 1.4765,3.8085935 4.6054,4.9218748 2.3438,0.8671875 3.2461,1.6992187 3.2461,3.2109375 0,1.4414062 -1.0898,2.5898437 -3.3867,2.5898437 -1.582,0 -3.2461,-0.6445312 -4.1836,-1.2539062 z m 13.1777,-16.5937495 6.4453,16.054687 c 0.1406,0.3984375 0.2109,0.65625 0.2109,0.83203125 0,0.17578125 -0.1054,0.43359375 -0.2578,0.75 -0.7148,1.62890625 -1.7929,2.84765625 -2.6601,3.52734375 -0.9375,0.796875 -1.9805,1.3007813 -2.7657,1.5585938 l 0.7852,2.6601562 c 0.7969,-0.140625 2.3438,-0.6796875 3.8906,-2.0507812 2.1563,-1.875 3.7032,-4.9335938 5.9766,-10.9101563 l 4.7461,-12.4218745 h -3.3399 l -3.457,10.2304683 c -0.4336,1.2539062 -0.7969,2.5898437 -1.1133,3.6328125 h -0.082 c -0.2813,-1.0429688 -0.7148,-2.4140625 -1.1133,-3.5625 l -3.8086,-10.3007808 z m 19.251,17.42578075 h 3.1406 V -9.293275 c 0,-0.5390625 0.07,-1.042969 0.1406,-1.476562 0.4336,-2.367188 2.0156,-4.066407 4.2422,-4.066407 0.4336,0 0.7617,0.03516 1.0781,0.117188 v -2.988281 c -0.2812,-0.08203 -0.539,-0.117188 -0.8906,-0.117188 -2.1328,0 -4.0312,1.476563 -4.8281,3.820313 h -0.1406 l -0.1055,-3.421875 h -2.7774 c 0.1055,1.617187 0.1407,3.386718 0.1407,5.4375 z m 0,0" style="fill:#231916;fill-opacity:1;fill-rule:nonzero;stroke:none" aria-label="Youth is not a time of life; it is a state of mind; it is not a matter of rosyr " transform="matrix(1.3333333,0,0,1.3333333,888.38413,2908.8285)" />
      </g></svg>