<?xml version='1.0' encoding='utf-8'?>
<svg xmlns="http://www.w3.org/2000/svg" version="1.1" width="1931.780" height="422.847" viewBox="551.376 3915.740 1931.780 422.847"><g id="object"><path id="path5" d="M 32.555627,6.390625e-4 H 69.821252 V -115.6517 c 8.566406,2.13281 18.84375,2.5664 29.988281,2.5664 36.410157,0 68.531247,-10.71094 88.242187,-31.69922 14.56641,-14.98828 22.27734,-35.55468 22.27734,-61.6875 0,-25.69922 -9.43359,-46.6875 -25.27734,-60.39843 -17.13281,-15.41016 -44.12109,-23.97657 -80.96484,-23.97657 -29.976566,0 -53.542972,2.56641 -71.531253,5.56641 z M 69.821252,-258.29233 c 6.421875,-1.72266 18.84375,-3 35.121098,-3 41.13281,0 68.10937,18.41016 68.10937,56.54297 0,39.83203 -27.41016,61.67578 -72.38672,61.67578 -12.421873,0 -22.699217,-0.85547 -30.843748,-3 z M 245.87203,-14.132173 c 15.42188,10.2773433 45.83203,18.4218746 73.67578,18.4218746 68.10938,0 101.09766,-38.5546876 101.09766,-83.1093746 0,-42.398437 -24.84375,-65.964847 -73.67578,-84.808597 -39.84375,-15.42187 -57.39844,-28.69922 -57.39844,-55.6875 0,-19.71093 14.98828,-43.26562 54.39844,-43.26562 26.13281,0 45.39844,8.5664 54.83203,13.71094 l 10.27734,-30.42188 c -12.85546,-7.27734 -34.26562,-14.13281 -63.82031,-14.13281 -56.12109,0 -93.38672,33.41015 -93.38672,78.38672 0,40.69922 29.13282,65.10937 76.24219,81.82031 38.98828,14.98828 54.41016,30.41016 54.41016,57.398437 0,29.132812 -22.27735,49.265625 -60.39844,49.265625 -25.71094,0 -50.12109,-8.566407 -66.83203,-18.855469 z M 573.57223,6.390625e-4 V -122.94077 l 96.80859,-165.77343 h -42.41015 l -41.55469,79.67578 c -11.13281,21.84375 -20.98828,40.69922 -29.1211,59.54297 h -0.85546 c -9,-20.13282 -17.56641,-37.69922 -28.71094,-59.54297 l -40.6875,-79.67578 h -42.41016 l 91.24219,166.20703 V 6.390625e-4 Z M 881.98922,-38.975923 c -15,7.277343 -38.13281,11.988281 -60.83203,11.988281 -70.25391,0 -110.94141,-45.398438 -110.94141,-116.085938 0,-75.82031 44.97657,-119.07422 112.65235,-119.07422 23.98828,0 44.12109,5.13281 58.2539,11.98828 l 9,-30.41015 c -9.85547,-5.14453 -32.55468,-12.85547 -68.53125,-12.85547 -89.53125,0 -150.78515,61.2539 -150.78515,151.64062 0,94.664065 61.2539,146.0742216 142.64062,146.0742216 35.1211,0 62.54297,-6.8554688 76.24219,-13.7109375 z M 936.38473,-288.7142 V 6.390625e-4 h 37.26562 V -135.36264 H 1113.291 V 6.390625e-4 h 37.6992 V -288.7142 h -37.6992 v 120.79687 H 973.65035 V -288.7142 Z m 396.22847,-4.71094 c -77.1093,0 -134.0742,59.97656 -134.0742,151.64062 0,87.386722 53.543,146.4960966 129.7852,146.4960966 73.6875,0 134.0859,-52.6874996 134.0859,-152.0624966 0,-85.67578 -50.9765,-146.07422 -129.7969,-146.07422 z m -1.7109,30.41015 c 62.1094,0 92.0977,59.97657 92.0977,117.375 0,65.542973 -33.4102,119.94141 -92.5313,119.94141 -58.6875,0 -92.0976,-55.265625 -92.0976,-116.94141 0,-63.39843 30.8437,-120.375 92.5312,-120.375 z m 0,0" style="fill:#ffffff;fill-opacity:1;fill-rule:nonzero;stroke:none" aria-label="PSYCHO" transform="matrix(1.3333333,0,0,1.3333333,520.63547,4319.6359)" />
      <path id="path6" d="m 0,0 h 37.267 v 115.656 c 8.567,-2.142 18.847,-2.57 29.984,-2.57 36.411,0 68.538,10.709 88.242,31.698 14.564,14.992 22.274,35.554 22.274,61.683 0,25.702 -9.424,46.691 -25.273,60.398 -17.134,15.421 -44.12,23.989 -80.959,23.989 -29.985,0 -53.544,-2.571 -71.535,-5.57 z m 37.267,258.298 c 6.425,1.714 18.847,2.999 35.125,2.999 41.122,0 68.108,-18.42 68.108,-56.543 0,-39.837 -27.415,-61.684 -72.392,-61.684 -12.422,0 -22.703,0.858 -30.841,2.999 z" style="fill:none;stroke:#ffffff;stroke-width:10;stroke-linecap:butt;stroke-linejoin:miter;stroke-miterlimit:10;stroke-dasharray:none;stroke-opacity:1" transform="matrix(1.3333333,0,0,-1.3333333,564.04227,4319.6359)" />
      <path id="path7" d="m 0,0 c 15.421,-10.28 45.834,-18.419 73.677,-18.419 68.109,0 101.092,38.552 101.092,83.101 0,42.407 -24.845,65.966 -73.677,84.814 -39.837,15.421 -57.4,28.699 -57.4,55.687 0,19.704 14.993,43.263 54.402,43.263 26.129,0 45.405,-8.567 54.829,-13.708 l 10.281,30.413 c -12.851,7.283 -34.269,14.136 -63.826,14.136 -56.114,0 -93.381,-33.411 -93.381,-78.389 0,-40.693 29.128,-65.109 76.248,-81.815 38.98,-14.993 54.401,-30.413 54.401,-57.399 0,-29.129 -22.275,-49.262 -60.398,-49.262 -25.702,0 -50.118,8.567 -66.824,18.848 z" style="fill:none;stroke:#ffffff;stroke-width:10;stroke-linecap:butt;stroke-linejoin:miter;stroke-miterlimit:10;stroke-dasharray:none;stroke-opacity:1" transform="matrix(1.3333333,0,0,-1.3333333,848.46813,4300.7883)" />
      <path id="path8" d="M 0,0 V 122.938 L 96.809,288.711 H 54.401 L 12.851,209.037 C 1.713,187.191 -8.139,168.344 -16.277,149.496 h -0.857 c -8.995,20.133 -17.563,37.695 -28.7,59.541 l -40.694,79.674 h -42.407 L -37.695,122.51 V 0 Z" style="fill:none;stroke:#ffffff;stroke-width:10;stroke-linecap:butt;stroke-linejoin:miter;stroke-miterlimit:10;stroke-dasharray:none;stroke-opacity:1" transform="matrix(1.3333333,0,0,-1.3333333,1285.3887,4319.6359)" />
      <path id="path9" d="m 0,0 c -14.993,-7.282 -38.124,-11.994 -60.827,-11.994 -70.25,0 -110.944,45.405 -110.944,116.084 0,75.819 44.978,119.083 112.658,119.083 23.988,0 44.12,-5.141 58.256,-11.994 l 8.996,30.413 c -9.852,5.14 -32.556,12.85 -68.537,12.85 -89.526,0 -150.781,-61.254 -150.781,-151.637 0,-94.666 61.255,-146.069 142.642,-146.069 35.125,0 62.54,6.854 76.247,13.707 z" style="fill:none;stroke:#ffffff;stroke-width:10;stroke-linecap:butt;stroke-linejoin:miter;stroke-miterlimit:10;stroke-dasharray:none;stroke-opacity:1" transform="matrix(1.3333333,0,0,-1.3333333,1696.6041,4267.6619)" />
      <path id="path10" d="m 0,0 v -288.711 h 37.267 v 135.36 h 139.644 v -135.36 h 37.695 V 0 H 176.911 V -120.796 H 37.267 L 37.267,0 Z" style="fill:none;stroke:#ffffff;stroke-width:10;stroke-linecap:butt;stroke-linejoin:miter;stroke-miterlimit:10;stroke-dasharray:none;stroke-opacity:1" transform="matrix(1.3333333,0,0,-1.3333333,1769.1308,3934.688)" />
      <path id="path11" d="m 0,0 c -77.104,0 -134.075,-59.97 -134.075,-151.638 0,-87.383 53.544,-146.497 129.791,-146.497 73.678,0 134.076,52.688 134.076,152.067 C 129.792,-60.397 78.817,0 0,0 Z m -1.713,-30.413 c 62.111,0 92.096,-59.97 92.096,-117.369 0,-65.538 -33.412,-119.94 -92.525,-119.94 -58.685,0 -92.096,55.258 -92.096,116.942 0,63.396 30.842,120.367 92.525,120.367 z" style="fill:none;stroke:#ffffff;stroke-width:10;stroke-linecap:butt;stroke-linejoin:miter;stroke-miterlimit:10;stroke-dasharray:none;stroke-opacity:1" transform="matrix(1.3333333,0,0,-1.3333333,2297.4316,3928.4055)" />
      </g></svg>