<?xml version='1.0' encoding='utf-8'?>
<svg xmlns="http://www.w3.org/2000/svg" version="1.1" width="149.692" height="176.056" viewBox="1276.950 2198.940 149.692 176.056"><defs id="defs1"><clipPath clipPathUnits="userSpaceOnUse" id="clipPath46">
      <path d="M 0,3370.3901 H 2383.9401 V -2.5000001e-5 H 0 Z" id="path46" />
    </clipPath>
  </defs><g id="object"><path id="path37" d="m 0,0 c 13.079,0 26.171,0.344 39.232,-0.144 6.594,-0.246 12.225,-3.565 11.749,-11.211 -0.403,-6.489 -6.104,-8.723 -11.398,-8.206 -27.334,2.671 -29.173,-14.278 -28.217,-34.752 0.772,-16.544 0.384,-33.167 -0.125,-49.736 -0.234,-7.611 0.011,-17.835 -10.334,-18.281 -11.492,-0.496 -9.861,10.235 -10.049,17.551 -0.492,19.19 -0.789,38.418 -0.128,57.595 0.631,18.273 -5.86,28.129 -25.567,27.334 -7.143,-0.289 -17.971,-1.863 -17.401,9.971 0.509,10.545 10.555,10.029 18.205,10.336 11.327,0.455 22.686,0.118 34.032,0.118 C -0.001,0.383 0,0.192 0,0" style="fill:#424242;fill-opacity:1;fill-rule:nonzero;stroke:none" transform="matrix(1.3333333,0,0,-1.3333333,1352.6285,2205.8629)" />
      </g></svg>