<?xml version='1.0' encoding='utf-8'?>
<svg xmlns="http://www.w3.org/2000/svg" version="1.1" width="116.423" height="197.995" viewBox="2739.530 826.255 116.423 197.995"><defs id="defs1"><clipPath clipPathUnits="userSpaceOnUse" id="clipPath59">
      <path d="M 0,3370.3901 H 2383.9401 V -2.5000001e-5 H 0 Z" id="path59" />
    </clipPath>
  </defs><g id="object"><path id="path16" d="m 0,0 c 26.447,-0.67 43.409,-20.33 37.686,-43.155 -9.205,-36.711 -27.842,-68.021 -57.913,-91.923 -5.583,-4.438 -10.132,-7.033 -16.134,-0.359 -6.379,7.095 -1.906,11.059 2.941,15.723 6.267,6.032 13.05,11.786 18.126,18.743 10.295,14.11 19.128,27.248 -5.56,38.557 -15.379,7.044 -17.748,23.87 -12.128,39.562 C -27.2,-6.704 -13.765,-0.643 0,0" style="fill:#ffffff;fill-opacity:1;fill-rule:nonzero;stroke:none" transform="matrix(1.3333333,0,0,-1.3333333,2798.2269,832.25533)" />
      </g></svg>