<?xml version='1.0' encoding='utf-8'?>
<svg xmlns="http://www.w3.org/2000/svg" version="1.1" width="2732.839" height="4379.218" viewBox="425.801 62.904 2732.839 4379.218"><g id="object"><path id="path4" d="M 0,0 C -0.108,1.039 0.051,2.048 0.478,3.029 2.564,1.82 4.649,0.612 6.733,-0.596 4.358,-1.879 2.084,-2.015 0,0" style="fill:#5b6346;fill-opacity:1;fill-rule:nonzero;stroke:none" transform="matrix(1.3333333,0,0,-1.3333333,3027.8844,3648.1895)" />
      <path id="path5" d="M 0,0 C 0.361,-1.429 0.722,-2.858 1.084,-4.286 0.969,-30.423 0.854,-56.562 0.74,-82.7 c -1.51,-17.489 -1.497,-34.978 -0.01,-52.467 -0.443,-14.168 -0.887,-28.336 -1.33,-42.504 -18.951,8.294 -37.779,16.882 -56.873,24.833 -128.117,53.349 -256.284,106.578 -384.448,159.817 -133.654,55.521 -267.352,110.936 -400.972,166.54 -75.857,31.566 -151.174,64.483 -227.539,94.764 -49.546,19.647 -97.441,43.362 -148.214,59.929 -7.797,15.843 -21.261,27.064 -32.524,40.106 -53.244,61.661 -106.745,123.11 -159.192,185.446 -14.853,17.653 -33.68,32.372 -43.111,54.38 5.128,-1.686 10.4,-3.026 15.363,-5.106 286.948,-120.236 573.879,-240.517 860.794,-360.833 C -384.864,161.501 -192.438,80.737 0,0" style="fill:#504253;fill-opacity:1;fill-rule:nonzero;stroke:none" transform="matrix(1.3333333,0,0,-1.3333333,3151.1937,1709.4015)" />
      <path id="path6" d="m 0,0 c -0.457,-1.051 -0.914,-2.102 -1.37,-3.151 -83.913,-9.917 -167.441,-22.505 -250.793,-36.3 -38.701,-4.578 -77.822,-6.981 -115.978,-14.367 -35.571,-6.886 -71.788,-9.241 -107.046,-17.559 -12.373,1.981 -22.585,9.203 -33.878,13.783 -9.084,3.684 -17.203,11.639 -28.414,8.041 -3.238,10.844 -13.444,13.263 -21.812,17.624 -16.147,8.416 -32.426,16.604 -48.883,24.394 -31.068,14.708 -62.301,29.067 -93.466,43.571 -6.398,3.333 -12.796,6.667 -19.194,10 -15.952,7.731 -32.002,15.266 -47.835,23.234 -29.804,15.001 -61.096,27.047 -89.419,44.988 47.245,7.717 94.464,15.6 141.74,23.124 182.67,29.072 365.343,58.119 548.046,86.977 55.856,8.822 111.814,17.009 167.725,25.487 0.242,-1.44 0.485,-2.88 0.728,-4.32 C -1.37,163.685 -1.105,81.843 0,0" style="fill:#312634;fill-opacity:1;fill-rule:nonzero;stroke:none" transform="matrix(1.3333333,0,0,-1.3333333,3152.0091,3757.3792)" />
      <path id="path7" d="m 0,0 c 11.21,3.599 19.329,-4.356 28.413,-8.04 11.293,-4.58 21.506,-11.802 33.878,-13.783 51.445,-16.688 102.791,-13.068 153.802,1.614 24.318,7 49.11,13.464 69.222,30.312 83.353,13.795 166.88,26.383 250.793,36.3 0.314,-44.483 0.849,-88.965 0.887,-133.447 0.047,-54.809 -0.319,-109.619 -0.507,-164.428 -47.602,-5.586 -95.224,-11.013 -142.786,-16.915 -8.036,-0.997 -14.774,0.624 -21.875,4.058 -123.61,59.781 -247.364,119.265 -370.874,179.253 -12.476,6.06 -24.205,7.283 -37.746,5.192 -17.557,-2.71 -35.029,-7.482 -53.108,-5.844 1.574,6.305 7.122,9.337 11.362,13.283 C -52.466,-48.182 -26.201,-24.125 0,0" style="fill:#7a6779;fill-opacity:1;fill-rule:nonzero;stroke:none" transform="matrix(1.3333333,0,0,-1.3333333,2435.3715,3823.4515)" />
      <path id="path8" d="m 0,0 c 1.601,-0.098 3.46,0.302 4.76,-0.374 9.946,-5.168 25.853,-6.668 27.868,-16.805 1.554,-7.817 -13.948,-12.972 -22.027,-19.041 -57.462,-43.166 -115.09,-86.111 -172.609,-129.201 -2.523,-1.89 -4.5,-4.509 -6.732,-6.785 -7.575,-5.356 -16.217,-5.197 -24.975,-5.195 -56.952,0.011 -113.904,-0.136 -170.809,-0.231 -9.965,0.005 -19.977,0.01 -29.99,0.014 -21.668,-0.12 -43.336,-0.24 -65,-0.359 -0.265,0.554 -0.627,1.038 -1.078,1.454 4.152,18.699 -10.841,31.057 -16.446,46.317 -22.16,60.327 -47.133,119.621 -71.063,179.298 6.267,1.397 11.641,-1.368 17.19,-3.56 36.782,-14.526 73.385,-29.544 110.456,-43.294 28.838,-10.695 55.957,-26.084 86.553,-32.003 3.595,-5.313 9.38,-7.274 14.925,-9.357 53.315,-20.029 102.259,-10.391 147.786,22.02 13.341,5.967 27.807,3.875 41.712,5.452 C -86.42,-6.77 -43.365,-1.575 0,0" style="fill:#7a6779;fill-opacity:1;fill-rule:nonzero;stroke:none" transform="matrix(1.3333333,0,0,-1.3333333,2851.6592,4197.9785)" />
      <path id="path9" d="m 0,0 c 2.048,2.523 4.769,1.951 7.437,1.616 0.261,-12.452 10.07,-15.771 19.119,-18.864 18.243,-6.236 35.379,-14.538 52.703,-22.972 17.479,-8.509 34.86,-19.629 55.628,-19.83 0.472,-3.258 0.945,-6.515 1.417,-9.772 -0.699,-1.943 -1.398,-3.886 -2.097,-5.83 -21.294,-10.691 -35.632,-29.79 -53.486,-44.635 -8.047,-6.692 -18.078,-12.225 -21.424,-23.469 -1.879,-0.699 -3.757,-1.399 -5.636,-2.098 -85.237,0.079 -170.474,0.158 -255.712,0.237 0,-0.001 -0.358,0.322 -0.358,0.322 36.93,31.861 76.947,59.734 115.677,89.261 24.506,18.683 48.035,38.722 74.262,55.098 C -8.314,-0.624 -4.157,-0.312 0,0" style="fill:#20141e;fill-opacity:1;fill-rule:nonzero;stroke:none" transform="matrix(1.3333333,0,0,-1.3333333,2970.3663,4240.2165)" />
      <path id="path10" d="m 0,0 c -1.79,-3.267 -0.771,-6.473 0.208,-9.68 0.165,-5.538 0.329,-11.076 0.493,-16.614 0,0 -0.918,0.281 -0.918,0.281 -68.977,52.19 -137.722,104.69 -207.051,156.408 -25.616,19.11 -49.276,40.992 -77.676,56.276 -4.537,6.944 -10.883,3.246 -16.231,2.194 -78.695,-15.481 -157.342,-31.204 -236,-46.869 2.071,2.499 4.279,4.457 7.567,5.712 77.195,29.462 156.047,51.318 239.6,48.899 C -158.149,192.789 -64.394,130.936 -9.894,10.38 -7.955,6.09 -7.17,0.842 -1.525,-0.679 l 1.053,-0.313 z" style="fill:#20141e;fill-opacity:1;fill-rule:nonzero;stroke:none" transform="matrix(1.3333333,0,0,-1.3333333,3150.8733,3046.1219)" />
      <path id="path11" d="m 0,0 c -20.769,0.201 -38.15,11.321 -55.628,19.83 -17.324,8.435 -34.46,16.736 -52.703,22.972 -9.049,3.094 -18.858,6.412 -19.119,18.864 42.684,4.757 85.368,9.514 128.052,14.271 C 0.901,73.517 1.2,71.097 1.499,68.678 0.999,45.785 0.5,22.893 0,0" style="fill:#322634;fill-opacity:1;fill-rule:nonzero;stroke:none" transform="matrix(1.3333333,0,0,-1.3333333,3150.2159,4320.2837)" />
      <path id="path12" d="M 0,0 C 3.346,11.244 13.377,16.776 21.425,23.469 39.278,38.313 53.616,57.412 74.91,68.104 76.013,44.349 80.678,20.476 72.555,-2.974 48.461,0.234 24.009,-5.288 0,0" style="fill:#7a6779;fill-opacity:1;fill-rule:nonzero;stroke:none" transform="matrix(1.3333333,0,0,-1.3333333,3049.4284,4431.8909)" />
      <path id="path13" d="M 0,0 C 10.012,-0.004 20.024,-0.009 29.99,-0.014 19.961,-1.426 9.98,-1.208 0,0" style="fill:#a4ba7e;fill-opacity:1;fill-rule:nonzero;stroke:none" transform="matrix(1.3333333,0,0,-1.3333333,2325.6411,4434.8024)" />
      <path id="path14" d="m 0,0 c -34.26,-4.322 -68.493,-8.874 -102.789,-12.884 -23.033,-2.694 -25.692,-7.677 -14.736,-30.073 11.634,-16.931 24.68,-32.855 39.304,-47.117 47.908,-46.723 91.319,-97.679 138.187,-145.385 39.596,-40.303 78.949,-80.948 116.442,-123.187 42.844,-48.267 88.142,-94.178 132.339,-141.116 40.093,-42.579 78.954,-86.308 119.924,-128.133 26.784,-27.342 55.808,-53.247 77.538,-86.109 -7.576,-4.959 -15.095,9.202 -21.885,-0.46 -36.98,15.152 -73.957,30.314 -110.947,45.445 -3.475,1.421 -7.471,2.174 -7.649,7.1 3.743,-0.427 7.595,-0.441 11.204,-1.384 4.97,-1.297 9.933,-2.416 13.612,1.999 4.777,5.732 0.064,10.151 -3.077,14.406 -8.626,11.688 -18.567,22.648 -28.673,32.64 -28.856,28.528 -55.654,58.987 -84.527,87.542 -51.133,50.57 -97.158,106.185 -148.223,157 -25.799,25.674 -49.788,53.188 -75.929,78.493 -17.695,17.129 -29.843,39.445 -48.727,54.514 -17.864,14.253 -32.975,31.209 -48.008,47.42 -44.592,48.088 -91.218,94.233 -135.256,142.817 -2.811,3.101 -6.508,3.701 -10.311,4.15 -1.068,12.632 9.105,14.712 17.418,18.061 47.366,19.082 94.812,37.965 142.231,56.915 C -17.467,25.98 -10.861,10.869 0,0" style="fill:#2c202d;fill-opacity:1;fill-rule:nonzero;stroke:none" transform="matrix(1.3333333,0,0,-1.3333333,1614.3053,331.24493)" />
      <path id="path15" d="M 0,0 C 0.359,-0.721 0.651,-1.414 0.87,-2.084 0.651,-1.414 0.359,-0.721 0,0 m -2.229,-11.321 v 0 c -0.833,0.743 -1.665,1.486 -2.497,2.23 0.832,-0.744 1.665,-1.487 2.497,-2.23 M 27.032,486.571 C -33.141,464.014 -95.385,448.396 -157.497,432.59 -381.409,375.606 -608.35,333.994 -836.763,299.922 c -126.615,-18.887 -253.498,-35.609 -380.757,-49.5 -4.3,-0.469 -8.516,-1.706 -12.772,-2.586 11.634,-16.931 24.679,-32.855 39.304,-47.117 47.908,-46.723 91.319,-97.679 138.186,-145.385 39.596,-40.303 78.949,-80.948 116.443,-123.187 42.843,-48.267 88.142,-94.178 132.338,-141.116 40.093,-42.579 78.955,-86.308 119.925,-128.133 26.783,-27.342 55.808,-53.247 77.538,-86.109 -7.577,-4.959 -15.095,9.202 -21.885,-0.46 222.653,-91.381 445.305,-182.763 667.957,-274.145 0.23,6.519 0.657,13.039 0.659,19.558 0.041,160.744 0.039,321.489 0.04,482.234 10e-4,222.317 -0.006,444.635 0.016,666.953 10e-4,9.033 2.527,19.975 -13.197,15.642" style="fill:#1d131b;fill-opacity:1;fill-rule:nonzero;stroke:none" transform="matrix(1.3333333,0,0,-1.3333333,3097.9951,718.9692)" />
      <path id="path16" d="m 0,0 c 0.279,-58.861 0.77,-117.723 0.8,-176.584 0.11,-209.906 0.077,-419.812 0.008,-629.718 -0.002,-6.431 1.455,-13.123 -1.973,-19.247 -5.646,1.521 -6.43,6.769 -8.37,11.059 -54.499,120.556 -148.255,182.41 -280.113,186.227 -83.553,2.419 -162.405,-19.436 -239.6,-48.898 -3.288,-1.255 -5.496,-3.213 -7.569,-5.713 -5.289,-1.032 -10.577,-2.055 -15.861,-3.098 -122.131,-24.119 -244.223,-48.439 -366.417,-72.238 -36.199,-7.05 -71.887,-16.903 -108.753,-20.412 1.067,5.985 6.255,8.548 10.096,12.267 40.536,39.254 81.038,78.543 121.55,117.822 3.645,1.059 7.23,2.424 10.942,3.133 104.384,19.954 208.817,39.658 313.107,60.096 8.216,1.61 18.857,-1.603 24.664,8.162 0.408,11.187 0.809,22.367 1.209,33.548 18.554,2.198 31.781,13.806 44.22,26.056 70.23,69.158 116.746,151.521 134.844,248.739 6.468,34.745 9.383,70.171 -2.681,104.812 1.001,15.684 -4.484,29.532 -12.103,42.775 -1.876,5.065 -3.241,10.395 -5.706,15.155 -37.931,73.262 -100.915,116.717 -175.09,146.791 -26.462,23.247 -52.698,46.759 -79.506,69.6 -9.691,8.257 -17,19.799 -30.291,23.458 -5.796,5.21 -11.616,0.735 -16.909,-0.647 -35.794,-9.342 -71.429,-19.294 -107.145,-28.94 -178.619,-48.243 -357.257,-96.419 -535.858,-144.729 -16.821,-4.55 -21.282,-23.117 -9.46,-37.686 -0.308,-7.179 6.211,-8.4 10.39,-11.04 47.937,-30.274 96.044,-60.278 144.106,-90.354 -7.582,0.735 -11.664,-5.119 -16.553,-9.113 -39.055,-31.901 -77.991,-63.947 -116.963,-95.949 -16.997,42.45 -33.941,84.921 -51.002,127.346 -33.024,82.125 -64.718,164.823 -99.609,246.149 -29.139,67.92 -55.024,137.141 -84.63,204.822 -9.245,21.136 -14.094,44.285 -28.199,63.252 -0.565,14.596 -10.539,25.84 -14.035,39.395 -2.276,8.824 -6.855,10.087 -15.646,7.098 -40.993,-13.936 -82.27,-27.034 -123.446,-40.432 -1.429,18.405 -1.223,36.863 0.945,55.124 6.432,54.194 8.686,108.696 12.803,163.059 93.547,27.578 187.095,55.156 280.642,82.734 48.8,-56.044 97.758,-111.952 146.205,-168.3 6.354,-7.39 12.071,-9.266 21.077,-6.445 19.148,5.997 38.541,11.212 57.834,16.747 50.773,-16.567 98.668,-40.283 148.214,-59.929 76.365,-30.281 151.681,-63.198 227.539,-94.765 133.62,-55.603 267.318,-111.018 400.972,-166.539 C -313.157,131.411 -184.99,78.182 -56.873,24.833 -37.779,16.882 -18.951,8.293 0,0" style="fill:#7a6779;fill-opacity:1;fill-rule:nonzero;stroke:none" transform="matrix(1.3333333,0,0,-1.3333333,3150.3939,1946.2959)" />
      <path id="path17" d="m 0,0 c -19.293,-5.535 -38.686,-10.749 -57.834,-16.747 -9.006,-2.82 -14.723,-0.945 -21.077,6.445 -48.447,56.348 -97.405,112.256 -146.205,168.302 -21.318,26.262 -42.749,52.433 -63.913,78.818 -12.33,15.371 -12.541,18.362 -4.76,33.097 15.533,6.912 32.49,8.475 48.67,12.953 4.034,1.116 7.305,-0.406 10.293,-2.936 9.43,-22.007 28.257,-36.727 43.11,-54.38 C -139.269,163.217 -85.768,101.767 -32.524,40.106 -21.261,27.064 -7.797,15.843 0,0" style="fill:#312634;fill-opacity:1;fill-rule:nonzero;stroke:none" transform="matrix(1.3333333,0,0,-1.3333333,1526.3324,1271.7856)" />
      <path id="path18" d="m 0,0 c -28.085,-9.408 -57.668,-10.274 -86.582,-14.749 -60.17,-9.313 -120.594,-16.977 -180.796,-26.092 -16.566,-2.508 -31.126,-0.975 -44.831,11.504 29.548,24.855 59.036,49.604 88.462,74.427 49.85,42.052 99.66,84.151 149.487,126.229 31.164,-14.505 62.397,-28.864 93.465,-43.572 16.457,-7.79 32.736,-15.978 48.883,-24.394 8.368,-4.361 18.575,-6.78 21.813,-17.624 C 63.7,61.602 37.435,37.546 11.362,13.283 7.123,9.337 1.574,6.305 0,0" style="fill:#20141e;fill-opacity:1;fill-rule:nonzero;stroke:none" transform="matrix(1.3333333,0,0,-1.3333333,2315.5032,3937.7552)" />
      <path id="path19" d="m 0,0 c 24.183,-8.046 45.914,-21.425 69.037,-31.782 6.385,-2.86 12.353,-6.736 19.568,-7.359 28.323,-17.941 59.616,-29.987 89.42,-44.987 15.832,-7.968 31.882,-15.504 47.834,-23.235 -8.761,1.887 -14.26,-4.051 -20.071,-8.715 -36.453,-29.257 -72.75,-58.71 -109.228,-87.936 -4.102,-3.287 -7.354,-8.291 -13.539,-8.339 -4.007,9.434 -8.098,18.837 -11.994,28.32 -18.27,44.461 -37.58,88.542 -54.148,133.63 C 10.813,-33.896 -1.887,-19.23 0,0" style="fill:#7a6779;fill-opacity:1;fill-rule:nonzero;stroke:none" transform="matrix(1.3333333,0,0,-1.3333333,1889.7512,3552.8479)" />
      <path id="path20" d="m 0,0 c -20.112,-16.849 -44.904,-23.313 -69.222,-30.312 -51.011,-14.682 -102.357,-18.303 -153.802,-1.615 35.258,8.319 71.476,10.673 107.046,17.559 C -77.821,-6.981 -38.7,-4.578 0,0" style="fill:#20141e;fill-opacity:1;fill-rule:nonzero;stroke:none" transform="matrix(1.3333333,0,0,-1.3333333,2815.7913,3809.9803)" />
      <path id="path21" d="m 0,0 c -1.109,0.58 -2.219,1.159 -3.323,1.739 84.471,13.38 168.963,26.611 253.369,40.363 8.704,1.418 14.765,-2.45 21.325,-5.966 C 334.74,2.18 398.125,-31.748 461.256,-66.14 c 9.043,-4.927 17.492,-7.049 27.806,-5.746 111.381,14.07 222.935,26.848 334.135,42.207 29.31,4.048 50.912,-9.81 73.121,-21.957 43.162,-23.606 89.209,-40.692 133.099,-62.55 44.821,-22.32 90.353,-43.209 135.496,-64.887 3.807,-1.828 7.028,-4.878 10.524,-7.36 -43.362,-1.575 -86.418,-6.77 -129.476,-11.65 -13.906,-1.576 -28.371,0.516 -41.714,-5.449 -1.899,2.304 -4.101,2.907 -7.148,2.238 -27.011,-5.936 -54.852,-4.095 -81.986,-8.414 -24.426,-3.887 -49.126,-3.538 -73.575,-6.489 -30.596,5.919 -57.715,21.307 -86.553,32.003 -37.072,13.749 -73.674,28.767 -110.457,43.294 -5.549,2.192 -10.922,4.957 -17.189,3.56 -0.001,-0.001 0.124,-0.121 0.124,-0.121 -0.848,0.963 -1.696,1.926 -2.544,2.889 -17.845,11.296 -38.155,17.364 -56.851,26.836 -6.713,3.401 -13.83,3.852 -20.753,2.781 -36.941,-5.715 -73.718,-12.568 -110.737,-17.685 -34.134,-4.718 -68.197,-11.718 -103.008,-8.285 -4.26,0.42 -8.77,1.083 -12.577,2.877 -58.774,27.691 -120.505,48.09 -180.48,72.839 C 105.499,-40.76 69.764,-27.885 34.996,-12.682 27.183,2.172 13.171,-0.076 0,0" style="fill:#322634;fill-opacity:1;fill-rule:nonzero;stroke:none" transform="matrix(1.3333333,0,0,-1.3333333,1284.4063,3949.402)" />
      <path id="path22" d="M 0,0 C -4.157,-0.312 -8.314,-0.624 -12.47,-0.936 -8.503,1.902 -4.35,2.254 0,0" style="fill:#322634;fill-opacity:1;fill-rule:nonzero;stroke:none" transform="matrix(1.3333333,0,0,-1.3333333,2970.3663,4240.2165)" />
      <path id="path23" d="m 0,0 c 24.449,2.951 49.149,2.602 73.575,6.49 27.134,4.318 54.976,2.477 81.986,8.413 3.047,0.669 5.25,0.066 7.148,-2.238 C 117.184,-19.749 68.24,-29.386 14.925,-9.357 9.38,-7.275 3.595,-5.313 0,0" style="fill:#20141e;fill-opacity:1;fill-rule:nonzero;stroke:none" transform="matrix(1.3333333,0,0,-1.3333333,2406.4564,4237.6648)" />
      <path id="path24" d="m 0,0 c -0.253,-60.14 -0.506,-120.28 -0.759,-180.419 -36.341,-9.177 -73.632,-12.912 -110.505,-18.957 -113.65,-18.632 -227.43,-36.47 -341.141,-54.731 -6.489,-1.041 -12.868,-2.098 -19.416,-0.985 -0.826,5.993 -6.265,7.043 -10.33,9.367 -38.622,22.087 -77.006,44.618 -116.092,65.854 -19.899,10.812 -37.841,25.469 -60.163,31.691 -4.719,3.605 -9.118,7.761 -14.208,10.73 -46.356,27.041 -92.254,54.96 -139.584,80.187 -16.819,8.965 -31.86,23.239 -52.589,24.142 -5.332,13.304 -18.457,14.874 -29.494,19.589 -11.444,9.451 -24.972,15.032 -38.452,20.706 -1.632,4.573 -5.89,6.128 -9.591,8.307 -29.771,17.532 -59.548,35.054 -89.324,52.578 8.861,2.228 17.635,4.908 26.595,6.613 125.074,23.809 250.16,47.55 375.269,71.172 113.331,21.397 226.693,42.628 340.042,63.932 2.936,-1.309 6.228,-2.134 8.755,-3.997 63.223,-46.59 126.378,-93.271 189.514,-139.979 30.043,-22.226 59.06,-45.856 90.547,-66.102 z" style="fill:#312634;fill-opacity:1;fill-rule:nonzero;stroke:none" transform="matrix(1.3333333,0,0,-1.3333333,3151.8961,3128.5009)" />
      <path id="path25" d="m 0,0 c 20.729,-0.903 35.77,-15.178 52.589,-24.143 47.33,-25.227 93.228,-53.146 139.584,-80.186 5.09,-2.969 9.489,-7.125 14.208,-10.73 -0.569,-5.727 -5.651,-7.8 -9.243,-10.806 -37.966,-31.77 -76.425,-62.959 -114.022,-95.156 -23.878,-20.448 -50.584,-37.667 -71.292,-61.77 -5.611,-3.268 -10.898,-3.153 -16.962,-0.243 -68.102,32.684 -136.245,65.284 -204.586,97.463 -9.743,4.588 -7.796,7.582 -1.162,12.998 C -140.526,-115.129 -70.278,-57.545 0,0" style="fill:#20141e;fill-opacity:1;fill-rule:nonzero;stroke:none" transform="matrix(1.3333333,0,0,-1.3333333,1998.8464,3172.6619)" />
      <path id="path26" d="m 0,0 c -24.656,0.238 -47.935,-7.28 -71.821,-11.762 -29.143,-5.468 -58.506,-10.383 -87.89,-14.625 -12.764,-1.843 -25.925,-4.61 -37.272,-8.521 -28.809,-9.929 -53.615,-3.842 -79.095,8.799 -35.243,17.484 -70.915,34.105 -106.423,51.053 -44.66,21.315 -88.941,43.489 -134.176,63.503 -23.227,10.277 -46.079,20.874 -67.681,34.165 77.018,14.029 154.047,27.948 231.001,42.275 6.461,1.203 11.649,0.076 17.16,-2.562 C -226.853,109.99 -117.484,57.706 -8.154,5.344 -5.249,3.953 -2.71,1.798 0,0" style="fill:#322634;fill-opacity:1;fill-rule:nonzero;stroke:none" transform="matrix(1.3333333,0,0,-1.3333333,1878.528,3546.982)" />
      <path id="path27" d="m 0,0 c 20.708,24.103 47.414,41.322 71.292,61.77 37.597,32.197 76.057,63.386 114.022,95.156 3.592,3.006 8.674,5.079 9.243,10.806 22.322,-6.222 40.265,-20.88 60.163,-31.691 39.087,-21.236 77.47,-43.767 116.092,-65.854 4.065,-2.325 9.505,-3.374 10.331,-9.367 C 352.529,51.647 322.574,49.507 293.189,44.631 199.754,29.128 106.144,14.687 12.611,-0.227 8.342,-0.908 4.162,-2.751 0,0" style="fill:#7a6779;fill-opacity:1;fill-rule:nonzero;stroke:none" transform="matrix(1.3333333,0,0,-1.3333333,2014.6116,3549.7164)" />
      <path id="path28" d="M 0,0 C 13.475,-5.679 27.003,-11.261 38.447,-20.712 24.64,-40.783 3.662,-53.054 -14.21,-68.647 c -26.228,-22.882 -53.366,-44.719 -80.112,-66.997 -23.419,58.834 -46.81,117.677 -70.338,176.466 -1.574,3.933 -4.184,7.452 -6.311,11.157 -2.118,6.32 -4.236,12.644 -6.354,18.969 C -142.882,56.669 -108.459,42.344 -73.99,28.127 -49.591,18.063 -25.731,6.566 0,0" style="fill:#7a6779;fill-opacity:1;fill-rule:nonzero;stroke:none" transform="matrix(1.3333333,0,0,-1.3333333,1908.2589,3118.9283)" />
      <path id="path29" d="m 0,0 c -25.354,25.27 -55.545,44.656 -83.064,67.294 -26.616,21.896 -54.009,43.041 -81.124,64.439 -43.152,34.054 -86.59,67.747 -130.094,101.351 -5.644,4.359 -11.391,8.298 -14.744,14.792 69.441,25.464 138.776,51.213 208.335,76.343 159.644,57.677 319.396,115.052 479.105,172.549 6.309,-12.876 21.187,-16.923 29.055,-28.181 18.383,-26.306 44.017,-45.922 64.541,-70.439 27.077,-32.343 56.66,-62.688 86.394,-92.674 21.028,-21.204 39.644,-44.788 61.641,-64.779 19.765,-17.962 35.851,-38.998 54.527,-57.738 27.045,-27.135 50.077,-57.961 78.109,-84.187 16.62,-15.55 35.452,-29.713 48.272,-48.015 9.123,-13.025 26.352,-21.762 26.405,-40.767 -45.683,15.213 -89.128,35.983 -133.64,54.089 -140.484,57.142 -280.67,115.019 -420.903,172.778 -7.405,3.05 -14.001,4.064 -21.887,1.268 -16.378,-5.807 -32.896,-11.615 -49.808,-15.416 -17.965,-4.037 -12.516,-17.975 -10.894,-27.07 2.156,-12.095 11.039,-0.333 16.887,-1.25 1.567,-0.245 3.235,0.158 4.856,0.263 -7.781,-14.734 -7.57,-17.725 4.76,-33.097 21.164,-26.385 42.595,-52.555 63.913,-78.817 C 187.095,55.156 93.547,27.578 0,0" style="fill:#2c202d;fill-opacity:1;fill-rule:nonzero;stroke:none" transform="matrix(1.3333333,0,0,-1.3333333,851.98827,1171.4328)" />
      <path id="path30" d="m 0,0 c -0.053,19.005 -17.282,27.741 -26.406,40.767 -12.819,18.302 -31.652,32.465 -48.272,48.015 -28.031,26.226 -51.064,57.051 -78.108,84.187 -18.676,18.739 -34.762,39.776 -54.527,57.738 -21.997,19.991 -40.614,43.574 -61.641,64.779 -29.734,29.985 -59.317,60.33 -86.394,92.674 -20.524,24.517 -46.158,44.132 -64.541,70.438 -7.868,11.259 -22.746,15.306 -29.054,28.178 0.376,30.349 0.75,60.702 1.124,91.055 3.815,-0.449 7.512,-1.049 10.323,-4.15 44.038,-48.585 90.664,-94.73 135.255,-142.817 15.033,-16.212 30.144,-33.167 48.008,-47.421 18.885,-15.068 31.033,-37.384 48.728,-54.514 26.14,-25.305 50.129,-52.818 75.929,-78.492 51.065,-50.815 97.09,-106.43 148.222,-157 28.873,-28.555 55.672,-59.014 84.527,-87.542 10.107,-9.992 20.047,-20.952 28.674,-32.64 3.14,-4.255 7.854,-8.674 3.076,-14.406 -3.679,-4.415 -8.641,-3.297 -13.611,-1.999 -3.609,0.942 -7.461,0.956 -11.205,1.384 C 98.729,-42.84 89.146,-37.35 79.224,-33.215 52.792,-22.202 26.405,-11.079 0,0" style="fill:#312634;fill-opacity:1;fill-rule:nonzero;stroke:none" transform="matrix(1.3333333,0,0,-1.3333333,1955.1327,1158.1151)" />
      <path id="path31" d="M 0,0 C 9.359,11.353 22.284,9.849 30.486,2.34 49.013,-14.618 68.052,-31.368 83.567,-51.416 73.734,-52.595 63.906,-53.774 54.078,-54.953 43.216,-44.084 36.61,-28.974 21.539,-22.3 28.623,-2.425 26.447,0.822 6.435,0.223 4.29,0.159 2.145,0.075 0,0" style="fill:#615262;fill-opacity:1;fill-rule:nonzero;stroke:none" transform="matrix(1.3333333,0,0,-1.3333333,1542.2023,257.97347)" />
      <path id="path33" d="m 0,0 c 4.871,12.525 -1.789,26.251 4.031,38.678 28.4,-15.283 52.061,-37.165 77.676,-56.274 69.329,-51.719 138.074,-104.219 207.051,-156.409 1.582,-12.022 1.23,-24.048 0.059,-36.074 -31.488,20.247 -60.505,43.877 -90.548,66.103 C 135.134,-97.268 71.978,-50.587 8.756,-3.997 6.228,-2.134 2.936,-1.309 0,0" style="fill:#615262;fill-opacity:1;fill-rule:nonzero;stroke:none" transform="matrix(1.3333333,0,0,-1.3333333,2765.5732,2848.7995)" />
      <path id="path34" d="M 0,0 C 2.145,0.075 4.29,0.159 6.435,0.223 26.447,0.822 28.623,-2.425 21.539,-22.3 -25.88,-41.25 -73.326,-60.133 -120.692,-79.215 c -8.313,-3.349 -18.485,-5.428 -17.417,-18.06 -0.386,-30.353 -0.76,-60.706 -1.136,-91.055 -159.71,-57.494 -319.463,-114.868 -479.107,-172.545 -69.558,-25.13 -138.893,-50.88 -208.334,-76.344 -11.604,8.872 -2.712,20.999 -4.914,31.403 -3.103,14.662 5.22,18.406 18.216,22.132 16.262,4.663 31.113,13.956 47.141,20.364 60.087,24.023 119.305,50.22 178.82,75.67 39.694,16.974 79.22,34.35 119.102,50.868 8.271,3.425 12.331,8.271 12.993,16.634 0.901,11.377 2.028,22.752 2.432,34.15 0.904,25.52 3.37,27.342 26.976,35.211 46.708,15.572 92.657,33.457 139.519,48.522 31.089,9.994 61.513,21.831 92.485,32.126 25.588,8.505 50.997,18.174 76.419,27.495 34.078,12.495 68.393,24.35 102.728,36.126 C -9.59,-4.742 -4.343,-3.512 0,0" style="fill:#7a6779;fill-opacity:1;fill-rule:nonzero;stroke:none" transform="matrix(1.3333333,0,0,-1.3333333,1542.2023,257.97347)" />
      <path id="path35" d="m 0,0 c -48.062,30.076 -96.169,60.08 -144.105,90.354 -4.18,2.64 -10.698,3.861 -10.391,11.041 139.01,35.925 277.997,71.939 417.038,107.742 82.176,21.16 164.438,41.985 246.661,62.961 15.025,-0.698 21.248,-14.028 31.149,-21.954 66.996,-53.636 130.183,-111.751 195.902,-166.887 27.007,-22.659 52.243,-47.465 81.317,-67.641 12.066,-34.64 9.15,-70.065 2.682,-104.81 -18.098,-97.219 -64.614,-179.581 -134.844,-248.74 -12.439,-12.249 -25.665,-23.858 -44.22,-26.055 -28.439,20.833 -56.787,41.788 -85.334,62.47 -59.349,42.997 -118.63,86.093 -178.329,128.601 -16.117,11.476 -29.876,26.904 -50.097,32.046 -2.595,9.463 -9.117,4.857 -14.296,3.731 -23.508,-5.108 -46.962,-10.46 -70.435,-15.725 -15.902,11.015 -30.849,23.878 -47.895,32.676 -40.97,21.145 -77.571,49.157 -117.336,72.025 C 55.472,-35.516 36.319,-17.962 11.728,-9.816 9.805,-4.171 3.786,-3.419 0,0" style="fill:#312634;fill-opacity:1;fill-rule:nonzero;stroke:none" transform="matrix(1.3333333,0,0,-1.3333333,1567.1016,2185.7685)" />
      <path id="path36" d="m 0,0 c -5.535,2.397 -9.483,7.88 -16.059,8.252 -9.314,11.97 -22.634,18.28 -35.549,25.162 -14.332,18.255 -36.628,26.316 -53.277,41.702 -16.189,14.962 -37.89,22.844 -52.468,40.025 110.239,24.962 220.479,49.923 330.719,74.885 5.296,-0.217 9.002,-3.77 12.887,-6.578 65.643,-47.45 130.694,-95.74 196.992,-142.253 35.56,-24.948 68.567,-53.56 106.618,-74.949 -5.799,-9.759 -16.44,-6.546 -24.656,-8.156 -104.29,-20.437 -208.723,-40.141 -313.108,-60.096 -3.711,-0.709 -7.297,-2.074 -10.942,-3.132 -2.161,4.611 -5.959,7.62 -9.975,10.513 C 87.436,-63.109 43.722,-31.549 0,0" style="fill:#312634;fill-opacity:1;fill-rule:nonzero;stroke:none" transform="matrix(1.3333333,0,0,-1.3333333,1767.2473,2670.8215)" />
      <path id="path37" d="m 0,0 c 43.722,-31.549 87.436,-63.109 131.182,-94.625 4.016,-2.893 7.814,-5.902 9.975,-10.513 -40.511,-39.28 -81.013,-78.569 -121.55,-117.823 -3.84,-3.719 -9.028,-6.282 -10.095,-12.267 -3.434,-1.438 -6.441,-3.312 -10.731,-1.56 -61.175,24.99 -122.431,49.785 -186.272,75.684 28.96,24.49 56.113,47.517 83.339,70.458 30.784,25.94 61.714,51.709 92.365,77.805 C -7.421,-9.124 -1.209,-6.745 0,0" style="fill:#20141e;fill-opacity:1;fill-rule:nonzero;stroke:none" transform="matrix(1.3333333,0,0,-1.3333333,1767.2473,2670.8215)" />
      <path id="path38" d="M 0,0 C 5.491,10.461 -0.315,22.281 3.953,32.891 24.175,27.75 37.934,12.322 54.051,0.845 c 59.699,-42.507 118.98,-85.603 178.329,-128.601 28.547,-20.681 56.895,-41.637 85.333,-62.469 -0.399,-11.182 -0.8,-22.362 -1.208,-33.549 -38.059,21.382 -71.066,49.995 -106.626,74.943 C 143.581,-102.318 78.53,-54.028 12.887,-6.578 9.002,-3.77 5.296,-0.217 0,0" style="fill:#615262;fill-opacity:1;fill-rule:nonzero;stroke:none" transform="matrix(1.3333333,0,0,-1.3333333,1998.4019,2417.4533)" />
      <path id="path39" d="M 0,0 C 10.726,12.553 2.296,27.737 5.672,41.299 18.965,37.639 26.274,26.098 35.965,17.84 62.772,-5.001 89.008,-28.513 115.47,-51.769 c 1.515,-2.203 2.672,-4.796 4.6,-6.531 30.333,-27.304 60.61,-54.674 91.219,-81.667 28.128,-24.804 56.637,-49.176 84.977,-73.739 7.619,-13.243 13.104,-27.091 12.104,-42.775 -29.076,20.174 -54.312,44.981 -81.319,67.639 C 161.332,-133.705 98.145,-75.59 31.149,-21.955 21.248,-14.028 15.025,-0.698 0,0" style="fill:#615262;fill-opacity:1;fill-rule:nonzero;stroke:none" transform="matrix(1.3333333,0,0,-1.3333333,2246.0388,1822.9707)" />
      <path id="path40" d="m 0,0 c -15.742,0.253 -29.589,-4.412 -44.622,-9.944 -18.966,-6.98 -39.359,-14.833 -60.048,-15.858 -22.511,-1.115 -35.469,16.325 -48.458,31.864 41.177,13.397 82.454,26.495 123.447,40.432 8.79,2.988 13.37,1.725 15.646,-7.099 C -10.539,25.84 -0.565,14.596 0,0" style="fill:#322634;fill-opacity:1;fill-rule:nonzero;stroke:none" transform="matrix(1.3333333,0,0,-1.3333333,1037.8276,1470.4256)" />
      <path id="path41" d="m 0,0 c -28.341,24.563 -56.85,48.935 -84.977,73.739 -30.609,26.993 -60.887,54.362 -91.22,81.667 -1.928,1.735 -3.084,4.328 -4.599,6.531 C -106.621,131.872 -43.637,88.417 -5.706,15.155 -3.241,10.395 -1.876,5.065 0,0" style="fill:#20141e;fill-opacity:1;fill-rule:nonzero;stroke:none" transform="matrix(1.3333333,0,0,-1.3333333,2641.0607,2107.9117)" />
      <path id="path42" d="m 0,0 c 69.785,18.42 139.572,36.831 209.352,55.267 13.667,3.61 23.504,-6.319 35.159,-9.82 0.342,-5.63 4.434,-8.601 8.519,-11.222 28.294,-18.159 56.415,-36.608 85.114,-54.105 24.894,-15.177 48.302,-32.504 76.783,-42.037 44.197,-14.795 87.37,-32.652 130.977,-49.21 2.572,-12.389 11.485,-22.467 12.864,-35.292 -27.582,-2.537 -53.999,-10.706 -80.882,-16.649 -26.339,-5.822 -52.8,-11.095 -79.131,-16.948 -13.67,-3.039 -27.171,-6.834 -40.759,-10.246 -16.25,-4.082 -31.393,-5.233 -46.168,6.557 -11.714,9.348 -25.903,15.56 -38.841,23.415 -17.228,10.459 -34.957,20.494 -52.256,30.362 -24.876,14.191 -50.035,28.434 -75.191,42.375 -27.288,15.123 -52.492,34.19 -80.339,48.056 C 46.487,-30.178 29.522,-17.95 10.42,-9.6 5.723,-7.547 1.84,-4.978 0,0" style="fill:#322634;fill-opacity:1;fill-rule:nonzero;stroke:none" transform="matrix(1.3333333,0,0,-1.3333333,751.51707,2400.3737)" />
      <path id="path43" d="m 0,0 c 73.881,16.106 147.764,32.208 221.642,48.326 4.447,0.97 8.544,0.256 12.672,-1.656 20.243,-9.376 40.548,-18.618 60.832,-27.907 0.198,-5.474 4.77,-6.918 8.505,-8.879 22.615,-11.873 45.212,-23.784 67.969,-35.378 64.371,-32.796 127.519,-68.16 195.506,-93.388 2.118,-6.325 4.237,-12.649 6.354,-18.969 -28.138,-5.055 -56.113,-10.863 -84.071,-16.807 -27.416,-5.828 -54.992,-12.162 -82.815,-15.853 -14.613,-1.939 -29.11,-5.221 -42.485,-9.627 -20.646,-6.801 -36.797,-1.544 -53.971,8.291 -32.703,18.728 -65.736,36.842 -99.25,54.16 -37.096,19.168 -72.474,41.646 -109.437,61.093 C 67.149,-38.548 32.277,-21.637 0,0" style="fill:#322634;fill-opacity:1;fill-rule:nonzero;stroke:none" transform="matrix(1.3333333,0,0,-1.3333333,915.6572,2865.8216)" />
      <path id="path44" d="M 0,0 C -1.379,12.824 -10.292,22.902 -12.864,35.292 9.487,27.41 31.808,19.439 54.198,11.668 c 32.507,-11.281 63.65,-26.385 97.224,-34.671 12.914,-6.882 26.234,-13.193 35.549,-25.162 -23.094,-24.457 -50.842,-43.513 -76.139,-65.415 -14.279,-12.363 -29.542,-23.589 -44.364,-35.326 -1.126,7.372 -1.815,14.461 -6.411,21.254 -5.295,7.827 -12.459,17.866 -11.284,25.835 2.128,14.43 -5.034,18.549 -15.229,22.565 C 22.07,-52.959 14.272,-25.109 0,0" style="fill:#7a6779;fill-opacity:1;fill-rule:nonzero;stroke:none" transform="matrix(1.3333333,0,0,-1.3333333,1496.5417,2595.5987)" />
      <path id="path45" d="m 0,0 c 10.194,-4.016 17.357,-8.135 15.228,-22.565 -1.175,-7.969 5.99,-18.008 11.285,-25.835 4.595,-6.793 5.284,-13.882 6.41,-21.254 -2.136,-1.951 -4.274,-3.901 -6.407,-5.847 -3.756,20.362 -12.8,38.808 -21.475,57.28 C 2.22,-12.215 -1.261,-6.918 0,0" style="fill:#615262;fill-opacity:1;fill-rule:nonzero;stroke:none" transform="matrix(1.3333333,0,0,-1.3333333,1541.2676,2701.268)" />
      <path id="path46" d="M 0,0 C 13.171,-0.076 27.183,2.172 34.996,-12.682 22.868,-9.731 9.643,-9.81 0,0" style="fill:#20141e;fill-opacity:1;fill-rule:nonzero;stroke:none" transform="matrix(1.3333333,0,0,-1.3333333,1284.4063,3949.402)" />
      <path id="path48" d="m 0,0 c -67.987,25.228 -131.135,60.593 -195.506,93.388 -22.758,11.594 -45.355,23.505 -67.969,35.378 -3.736,1.961 -8.307,3.405 -8.506,8.879 39.43,-12.678 76.333,-31.471 114.39,-47.457 78.799,-33.1 157.346,-66.802 235.996,-100.256 29.776,-17.525 59.553,-35.046 89.324,-52.578 3.701,-2.18 7.959,-3.734 9.591,-8.307 -25.726,6.571 -49.586,18.068 -73.985,28.132 C 68.866,-28.604 34.443,-14.279 0,0" style="fill:#615262;fill-opacity:1;fill-rule:nonzero;stroke:none" transform="matrix(1.3333333,0,0,-1.3333333,1671.8255,3024.3311)" />
      <path id="path49" d="m 0,0 c -82.013,-19.125 -164.035,-38.209 -246.015,-57.474 -5.011,-1.177 -9.489,-1.114 -14.255,0.669 -45.271,16.935 -90.581,33.768 -135.852,50.705 -1.389,0.52 -2.478,1.843 -4.74,3.588 56.866,48.722 113.379,97.142 169.892,145.562 24.591,-8.146 43.744,-25.7 65.739,-38.349 C -125.466,81.833 -88.865,53.82 -47.896,32.675 -30.85,23.878 -15.902,11.014 0,0" style="fill:#20141e;fill-opacity:1;fill-rule:nonzero;stroke:none" transform="matrix(1.3333333,0,0,-1.3333333,1890.6991,2389.5893)" />
      <path id="path50" d="m 0,0 c -33.574,8.286 -64.717,23.39 -97.224,34.671 -22.39,7.771 -44.71,15.742 -67.062,23.624 -43.607,16.558 -86.78,34.415 -130.977,49.209 -28.481,9.533 -51.889,26.861 -76.783,42.038 -28.699,17.497 -56.82,35.946 -85.114,54.104 -4.085,2.622 -8.177,5.593 -8.519,11.223 44.367,-13.294 86.833,-31.771 130.152,-47.912 72.013,-26.833 143.788,-54.307 215.7,-81.413 4.529,-1.708 9.38,-2.565 14.081,-3.817 14.579,-17.181 36.28,-25.063 52.469,-40.025 C -36.629,26.316 -14.333,18.254 0,0" style="fill:#615262;fill-opacity:1;fill-rule:nonzero;stroke:none" transform="matrix(1.3333333,0,0,-1.3333333,1698.4372,2626.2692)" />
      </g></svg>