<?xml version='1.0' encoding='utf-8'?>
<svg xmlns="http://www.w3.org/2000/svg" version="1.1" width="169.688" height="102.389" viewBox="2589.140 4068.090 169.688 102.389"><g id="object"><path id="path87" d="m 0,0 c -3.989,-6.929 -2.926,-13.093 -4.167,-18.796 -0.739,-3.396 1.781,-5.308 5.199,-5.04 3.277,0.256 4.576,2.675 3.918,5.562 C 3.661,-12.613 1.94,-7.05 0,0 m 14.934,-45.007 c -3.614,-0.01 -5.637,1.829 -6.507,5.292 -1.083,4.315 -4.019,5.873 -8.406,5.994 -4.593,0.127 -6.835,-2.037 -8.376,-6.029 -1.672,-4.33 -8.157,-6.506 -12.161,-4.568 -2.604,1.259 -1.392,3.048 -0.97,4.804 3.686,15.364 7.374,30.728 11.034,46.098 0.49,2.055 0.673,4.193 1.275,6.209 1.24,4.148 1.439,9.241 7.383,9.789 6.655,0.614 11.01,-2.695 11.935,-9.022 2.528,-17.274 8.374,-33.763 11.519,-50.876 1.218,-6.628 -0.039,-8.177 -6.726,-7.691" style="fill:#494f57;fill-opacity:1;fill-rule:nonzero;stroke:none" transform="matrix(1.3333333,0,0,-1.3333333,2723.4015,4104.2935)" />
      <path id="path106" d="m 0,0 c 0.293,5.138 -2.672,7.551 -7.107,8.099 -3.228,0.398 -5.315,-2.324 -4.556,-4.881 1.294,-4.366 -1.644,-10.224 4.031,-13.023 1.434,-0.707 3.245,0.059 4.33,1.614 C -1.547,-5.677 0.492,-3.283 0,0 m -23.652,-33.966 c 0,16.193 0.074,31.481 -0.043,46.768 -0.037,4.833 2.663,6.084 6.722,5.976 4.727,-0.126 9.485,-0.055 14.171,-0.583 8.425,-0.949 17.006,-9.708 16.257,-17.729 -1.059,-11.348 -4.058,-18.285 -15.82,-20.264 -8.036,-1.353 -10.01,-3.732 -8.712,-11.918 0.569,-3.589 0.27,-7.001 0.026,-10.541 -0.329,-4.796 -2.363,-6.605 -7.194,-6.313 -5.322,0.322 -6.12,3.471 -5.846,7.721 0.167,2.593 0.331,5.187 0.439,6.883" style="fill:#494f57;fill-opacity:1;fill-rule:nonzero;stroke:none" transform="matrix(1.3333333,0,0,-1.3333333,2627.3217,4099.3527)" />
      <path id="path142" d="m 0,0 c -0.998,7.68 0.642,15.705 -0.714,23.738 -0.632,3.749 -1.615,6.287 -5.806,6.569 -5.866,0.394 -4.544,5.029 -4.74,8.534 -0.257,4.601 3.15,3.628 5.937,3.593 7.767,-0.098 15.54,-0.306 23.3,-0.094 3.297,0.091 5.183,-0.83 4.946,-4.182 -0.195,-2.742 1.178,-6.92 -3.863,-6.702 -6.384,0.276 -7.257,-4.396 -6.802,-8.496 1.513,-13.629 -1.041,-27.276 0.669,-40.863 0.592,-4.698 -1.278,-6.935 -6.285,-6.991 -4.532,-0.051 -7.282,0.722 -6.768,6.183 C 0.449,-12.605 -1.298,-6.457 0,0" style="fill:#494f57;fill-opacity:1;fill-rule:nonzero;stroke:none" transform="matrix(1.3333333,0,0,-1.3333333,2665.0161,4131.2792)" />
      </g></svg>