<?xml version='1.0' encoding='utf-8'?>
<svg xmlns="http://www.w3.org/2000/svg" version="1.1" width="149.558" height="176.303" viewBox="2147.510 935.509 149.558 176.303"><defs id="defs1"><clipPath clipPathUnits="userSpaceOnUse" id="clipPath46">
      <path d="M 0,3370.3901 H 2383.9401 V -2.5000001e-5 H 0 Z" id="path46" />
    </clipPath>
  </defs><g id="object"><path id="path36" d="m 0,0 c 12.237,0 24.487,0.338 36.704,-0.141 6.263,-0.245 12.711,-2.275 13.024,-10.111 0.34,-8.466 -6.616,-10.168 -12.666,-9.655 -26.33,2.236 -27.338,-14.4 -26.579,-33.604 0.656,-16.589 0.484,-33.239 -0.098,-49.836 -0.284,-8.074 2.126,-20.056 -11.034,-19.475 -10.647,0.471 -9.291,11.119 -9.461,18.641 -0.416,18.356 -0.893,36.758 -0.063,55.083 0.872,19.248 -5.194,30.401 -26.558,28.92 -6.754,-0.468 -15.894,-0.815 -16.641,8.457 -0.884,10.975 8.809,11.558 16.653,11.859 C -24.496,0.608 -12.242,0.262 0,0.262 0,0.175 0,0.087 0,0" style="fill:#424242;fill-opacity:1;fill-rule:nonzero;stroke:none" transform="matrix(1.3333333,0,0,-1.3333333,2224.7471,942.022)" />
      </g></svg>