<?xml version='1.0' encoding='utf-8'?>
<svg xmlns="http://www.w3.org/2000/svg" version="1.1" width="117.860" height="354.727" viewBox="122.114 949.370 117.860 354.727"><g id="object"><path id="path10" d="m 0,0 c -0.214,-5.408 1.799,-7.142 7.033,-5.407 6.921,2.295 13.737,4.924 20.536,7.568 3.248,1.262 6.151,3.149 7.614,6.553 2.794,6.498 4.398,13.044 0.783,19.821 -1.212,2.273 -2.642,4.529 -3.316,6.973 C 28.905,49.086 18.581,56.605 7.355,63.291 6.403,63.858 4.541,64.078 3.816,63.524 3.044,62.934 2.605,61.086 2.903,60.039 6.56,47.193 4.123,34.46 2.471,21.693 1.537,14.476 0.818,7.232 0,0 m -15.287,-17.294 c 0.409,8.73 0.579,15.584 -0.544,22.468 -0.47,2.885 -0.301,6.154 0.587,8.924 1.931,6.022 -0.056,11.989 0.406,17.963 0.121,1.561 -0.53,3.76 -1.642,4.741 -6.095,5.381 -4.803,12.153 -2.274,17.901 3.907,8.876 3.4,17.347 1.727,26.471 -3.008,16.408 -1.286,17.501 14.884,15.25 C 10.975,94.598 23.202,89.611 32.629,78.542 41.113,68.58 49.275,58.78 53.571,46.279 59.174,29.975 60.264,13.407 55.648,-3.276 51.59,-17.946 40.459,-26.081 27.186,-31.111 15.889,-35.393 3.78,-36.962 -8.242,-38.288 c -3.976,-0.438 -5.845,1.115 -6.118,4.759 -0.45,6.014 -0.696,12.044 -0.927,16.235" style="fill:#494643;fill-opacity:1;fill-rule:nonzero;stroke:none" transform="matrix(1.3333333,0,0,-1.3333333,155.92933,1085.1055)" />
      <path id="path182" d="m 0,0 c -13.166,7.979 -26.642,15.382 -36.045,28.312 -3.406,4.685 -5.87,9.355 -5.883,15.313 -0.009,4.29 -0.191,8.731 -1.296,12.836 -2.875,10.689 0.957,19.812 6.9,27.86 5.589,7.566 12.316,14.454 20.769,19.094 6.416,3.522 12.941,6.816 18.841,11.211 1.343,1.001 2.963,1.794 4.578,2.239 5.687,1.566 8.568,-1.091 8.753,-7.197 0.135,-4.465 -1.161,-7.283 -5.718,-8.662 -8.3,-2.514 -15.552,-7.306 -23.12,-11.371 -13.987,-7.513 -19.861,-25.146 -13.932,-39.737 4.121,-10.14 9.082,-19.442 18.25,-25.98 2.079,-1.482 3.584,-3.744 5.569,-5.384 C 3.988,13.312 4.938,7.382 0,0" style="fill:#494643;fill-opacity:1;fill-rule:nonzero;stroke:none" transform="matrix(1.3333333,0,0,-1.3333333,194.654,1298.0931)" />
      </g></svg>