<?xml version='1.0' encoding='utf-8'?>
<svg xmlns="http://www.w3.org/2000/svg" version="1.1" width="390.942" height="447.600" viewBox="1822.350 3104.520 390.942 447.600"><g id="object"><path id="path10" d="m 0,0 v 153.538 h 89.423 v -321.147 c -20.827,-6.323 -36.62,-1.473 -52.278,14.452 -45.625,46.404 -92.894,91.192 -143.017,140.023 V -168.05 h -88.9 c 0,9.351 -0.001,18.081 0,26.812 0.02,90.392 -0.15,180.786 0.359,271.175 0.05,8.835 4.284,17.646 6.575,26.468 11.821,-3.265 26.946,-2.973 34.916,-10.381 C -107.013,103.358 -62.826,58.841 -17.964,15.045 -13.613,10.797 -8.635,7.192 0,0" style="fill:#231916;fill-opacity:1;fill-rule:nonzero;stroke:none" transform="matrix(1.3333333,0,0,-1.3333333,2088.0659,3319.0644)" />
      </g></svg>