<?xml version='1.0' encoding='utf-8'?>
<svg xmlns="http://www.w3.org/2000/svg" version="1.1" width="257.390" height="149.278" viewBox="960.795 3273.740 257.390 149.278"><defs id="defs1"><clipPath clipPathUnits="userSpaceOnUse" id="clipPath59">
      <path d="M 0,3370.3901 H 2383.9401 V -2.5000001e-5 H 0 Z" id="path59" />
    </clipPath>
  </defs><g id="object"><path id="path28" d="m 0,0 c -10.673,-10.492 -4.154,-23.945 -6.192,-35.924 -1.489,-8.75 3.62,-24.942 -5.809,-24.522 -13.303,0.592 -4.971,16.479 -6.905,25.527 -0.971,4.544 -0.469,9.468 -0.208,14.197 0.564,10.211 -2.119,16.169 -14.287,16.272 -12.382,0.105 -15.894,-4.459 -16.665,-16.567 -0.862,-13.538 5.77,-38.092 -5.02,-38.383 -15.94,-0.43 -2.471,22.139 -8.75,33.153 -2.334,4.094 -5.447,8.198 -6.206,12.64 -1.463,8.563 -14.576,18.711 4.66,25.379 7.101,2.462 -0.644,16.621 6.711,24.738 10.338,-2.221 8.548,-11.216 8.926,-18.192 0.443,-8.153 1.99,-13.661 12.022,-13.198 9.377,0.433 17.276,1.161 18.561,13.172 0.684,6.399 -3.069,17.919 6.204,17.668 C -1.49,35.648 -7.903,23.554 -6.353,16.714 -5.18,11.532 -6.95,5.366 -0.389,2.516 0.372,1.753 0.502,0.915 0,0" style="fill:#ffffff;fill-opacity:1;fill-rule:nonzero;stroke:none" transform="matrix(1.3333333,0,0,-1.3333333,1133.1896,3331.268)" />
      <path id="path29" d="M 0,0 C 0.502,0.915 0.372,1.753 -0.389,2.516 2.038,4.461 5.769,5.925 6.692,8.425 18.807,41.256 20.753,42.364 59.247,34.797 54.089,25.46 45.493,29.598 38.72,28.182 30.947,26.556 18.72,34.429 17.896,17.345 17.15,1.863 28.67,7.978 35.484,5.469 37.412,4.76 38.96,3.017 44.837,-1.312 10.35,0.244 18.241,-21.674 18.14,-38.801 17.97,-67.674 44.973,-43.997 54.088,-58.829 40.757,-66.733 25.478,-64.907 12.986,-60.747 3.131,-57.465 10.014,-43.672 8.472,-34.699 6.45,-22.925 13.701,-8.926 0,0" style="fill:#ffffff;fill-opacity:1;fill-rule:nonzero;stroke:none" transform="matrix(1.3333333,0,0,-1.3333333,1133.1896,3331.268)" />
      <path id="path30" d="M 0,0 C 16.339,5.414 30.894,5.429 54.025,1.146 25.423,-4.839 28.053,-21.009 28.489,-36.742 c 0.534,-19.289 0.127,-38.605 0.127,-57.909 -3.286,-0.078 -6.573,-0.156 -9.859,-0.234 0,21.935 -0.788,43.909 0.279,65.792 C 19.737,-14.736 18.854,-3.075 0,0" style="fill:#ffffff;fill-opacity:1;fill-rule:nonzero;stroke:none" transform="matrix(1.3333333,0,0,-1.3333333,966.7952,3286.6349)" />
      </g></svg>