<?xml version='1.0' encoding='utf-8'?>
<svg xmlns="http://www.w3.org/2000/svg" version="1.1" width="880.841" height="1256.790" viewBox="1422.220 1218.700 880.841 1256.790"><defs id="defs1"><clipPath clipPathUnits="userSpaceOnUse" id="clipPath3">
      <path d="M -1490.7273,3121.9783 H 893.21272 V -248.41181 H -1490.7273 Z" id="path3" />
    </clipPath>
    <clipPath clipPathUnits="userSpaceOnUse" id="clipPath5">
      <path d="M -2387.0094,4.2025001 H -3.0693251 V -3366.1876 H -2387.0094 Z" id="path5" />
    </clipPath>
  </defs><g id="object"><path id="path6" d="m 0,0 c -1.203,-1.867 -2.406,-3.735 -3.61,-5.602 15,-20.511 13.543,-41.92 1.196,-63.922 1.794,-1.211 3.588,-2.422 5.383,-3.633 28.635,12.023 57.271,24.046 85.907,36.069 -0.32,3.101 -0.641,6.201 -0.961,9.302 C 58.61,-18.524 29.305,-9.262 0,0 m -83.03,-73.979 c 1.052,1.754 2.105,3.508 3.157,5.261 -11.5,22.062 -12.33,43.665 3.014,64.57 -1.025,1.603 -2.05,3.207 -3.075,4.81 -30.959,-10.506 -61.917,-21.012 -92.876,-31.518 0.117,-3.374 0.235,-6.748 0.352,-10.122 29.809,-11 59.619,-22.001 89.428,-33.001 m -144.023,90.695 c 122.412,71.317 246.06,71.851 369.554,3.444 32.826,41.832 43.79,103.389 28.543,156.334 -24.001,83.347 -97.106,140.084 -194.778,151.168 -86.551,9.823 -178.789,-37.22 -219.279,-111.835 -35.174,-64.819 -28.483,-150.558 15.96,-199.111 m -6.25,-98.621 c -68.126,-64.223 -81.84,-176.661 -32.285,-259.707 68.115,-114.151 224.776,-157.18 347.017,-95.314 92.935,47.035 141.732,129.269 133.091,227.478 -4.563,51.865 -26.968,95.844 -63.822,131.813 -128.013,-88.385 -254.957,-89.357 -384.001,-4.27 m 438.177,60.059 c 21.665,-38.713 48.876,-75.393 63.951,-116.521 44.631,-121.759 0.68,-252.499 -106.191,-331.062 -132.899,-97.697 -321.356,-84.778 -439.614,30.136 -107.952,104.899 -118.411,269.561 -24.565,387.001 5.653,7.074 11.443,14.039 14.005,17.178 -15.214,39.548 -35.217,75.23 -42.42,113.332 -21.508,113.767 21.87,203.609 115.404,268.256 137.601,95.104 336.702,56.008 422.024,-82.485 56.219,-91.256 54.08,-184.124 -0.659,-275.982 -2.46,-4.127 -5.245,-8.061 -7.878,-12.084 1.981,0.743 3.962,1.487 5.943,2.231" style="fill:#231916;fill-opacity:1;fill-rule:nonzero;stroke:none" transform="matrix(1.3333333,0,0,-1.3333333,1915.5661,1756.2827)" />
      </g></svg>