<?xml version='1.0' encoding='utf-8'?>
<svg xmlns="http://www.w3.org/2000/svg" version="1.1" width="59.100" height="98.555" viewBox="1706.610 4362.300 59.100 98.555"><g id="object"><path id="path113" d="m 0,0 c 0.021,4.626 -1.826,7.411 -5.467,9.576 -3.361,1.998 -5.418,0.432 -7.238,-1.777 -1.724,-2.093 -0.654,-14.698 1.131,-16.248 2.598,-2.256 5.247,-1.821 7.591,0.333 C -1.507,-5.841 0.464,-3.208 0,0 m -10.319,-16.684 c -4.115,-8.247 -2.296,-15.155 -2.628,-21.832 -0.175,-3.527 0.479,-7.062 -5.084,-7.109 -5.246,-0.045 -4.916,3.33 -4.993,6.608 -0.399,16.97 -0.659,33.944 -1.112,50.913 -0.136,5.118 2.037,7.441 7.132,7.147 3.762,-0.218 7.568,-0.072 11.287,-0.58 6.279,-0.86 12.532,-2.731 14.499,-9.533 2.05,-7.092 3.093,-14.878 -2.874,-20.695 -4.459,-4.346 -4.36,-8.398 -1.856,-13.24 2.279,-4.406 2.487,-9.54 5.151,-13.895 1.012,-1.653 3.932,-5.063 -0.062,-6.284 -3.003,-0.919 -7.205,-1.589 -9.053,3.009 -3.199,7.959 -6.479,15.884 -10.407,25.491" style="fill:#c33c36;fill-opacity:1;fill-rule:nonzero;stroke:none" transform="matrix(1.3333333,0,0,-1.3333333,1744.7965,4393.7248)" />
      </g></svg>