<?xml version='1.0' encoding='utf-8'?>
<svg xmlns="http://www.w3.org/2000/svg" version="1.1" width="2227.370" height="1744.060" viewBox="451.787 2017.180 2227.370 1744.060"><g id="object"><path id="path3" d="m 0,0 c -2.192,-1.406 -4.854,-2.656 -6.956,-4.532 -31.483,-28.094 -65.81,-51.581 -105.63,-66.49 -3.019,-1.13 -6.647,-4.894 -7.078,-7.858 -1.162,-7.987 7.555,-8.804 11.555,-9.936 25.932,-7.343 46.657,-22.471 59.427,-45.107 7.665,-13.589 20.733,-18.571 30.151,-28.668 4.272,-4.581 9.025,-7.089 14.976,-2.147 4.028,3.347 5.628,6.75 4.523,12.338 -9.232,46.712 -10.605,93.176 4.939,139.096 C 7.602,-8.298 9.363,-1.487 0,0 m 32.666,-427.794 c 29.484,0.726 37.655,28.179 56.169,41.114 22.997,16.068 56.911,13.676 71.437,42.872 1.761,3.539 10.408,-4.875 11.494,1.656 0.511,3.072 -5.575,7.853 -12.04,10.075 -66.904,22.989 -102.789,78.649 -139.165,133.774 -5.487,8.314 0.514,22.357 -22.893,29.328 54.04,-84.45 75.638,-168.182 34.998,-258.819 m -46.719,-76.212 c -29.378,-16.955 -53.561,-32.739 -80.192,-45.163 -80.188,-37.409 -162.621,-43.732 -245.968,-20.337 -80.309,22.543 -132.861,81.498 -174.817,150.763 -44.903,74.132 -82.309,153.327 -135.053,222.006 -39.66,51.642 -85.02,100.152 -139.899,137.367 -17.839,12.098 -23.514,16.42 1.05,29.961 87.269,48.108 154.704,119.773 212.551,198.899 30.693,41.982 58.533,86.615 89.14,128.949 41.548,57.47 93.159,106.872 161.267,127.134 42.684,12.699 87.892,21.502 137.648,10.192 46.487,-10.568 94.152,-16.118 135.068,-40.706 C 31.471,344.143 86.915,273.601 83.895,168.476 83.172,143.31 75.88,119.944 66.694,96.881 c 15.37,-10.298 25.512,4.572 33.083,10.117 36.307,26.592 76.117,39.099 120.056,47.749 27.763,5.465 54.861,8.778 82.525,8.84 84.398,0.191 153.222,-30.716 210.002,-95.705 59.451,-68.045 95.421,-150.111 145.319,-223.65 50.681,-74.694 105.643,-145.289 182.242,-195.977 6.448,-4.267 17.565,-6.838 16.066,-18.283 -1.445,-11.028 -12.095,-9.752 -19.204,-13.855 -38.976,-22.499 -71.565,-53.28 -104.841,-83.234 -65.899,-59.322 -112.113,-133.436 -160.246,-206.606 -37.176,-56.512 -79.396,-108.226 -139.877,-144.446 -98.006,-58.693 -251.204,-51.739 -346.652,14.977 -49.516,34.611 -85.499,76.37 -103.818,132.685 -15.144,46.556 -16.262,94.129 0.879,141.141 2.225,6.103 2.011,13.094 3.719,25.36" style="fill:#e52e63;fill-opacity:1;fill-rule:nonzero;stroke:none" transform="matrix(1.3333333,0,0,-1.3333333,1531.6605,2611.1436)" />
      </g></svg>