<?xml version='1.0' encoding='utf-8'?>
<svg xmlns="http://www.w3.org/2000/svg" version="1.1" width="2781.988" height="3954.459" viewBox="341.812 406.638 2781.988 3954.459"><defs id="defs1"><clipPath clipPathUnits="userSpaceOnUse" id="clipPath21">
      <path d="M 0,3370.3901 H 2383.9401 V -2.5000001e-5 H 0 Z" id="path21" />
    </clipPath>
  </defs><g id="object"><path id="path4" d="m 0,0 c 34.723,36.728 78.455,62.605 115.814,96.155 12.786,11.484 25.468,23.084 38.193,34.619 4.53,-4.224 7.876,0.436 9.701,2.584 17.817,20.976 41.318,23.425 66.488,21.774 10.205,-0.669 20.762,1.43 30.693,-0.343 37.185,-6.639 57.402,11.867 68.998,44.371 l -0.046,-0.071 c 36.312,0.442 72.623,0.884 108.934,1.326 63.475,-23.923 126.949,-47.847 190.424,-71.77 3.076,-0.347 6.152,-0.693 9.228,-1.039 3.145,-5.792 8.687,-4.553 13.758,-4.693 48.404,-21.313 97.925,-39.6 148.581,-54.81 0.519,-1.238 1.436,-1.72 2.75,-1.446 6.817,-68.58 6.817,-68.344 -61.509,-68.326 -20.345,0.006 -40.825,2.681 -61.063,-1.715 -83.653,0.089 -167.307,0.177 -250.961,0.265 -5.248,2.551 -10.465,2.685 -15.644,-0.2 -5.883,-0.003 -11.767,-0.007 -17.65,-0.01 -14.683,3.528 -29.389,3.305 -44.113,0.28 -98.191,0.154 -196.383,0.308 -294.574,0.462 -4.716,2.233 -9.465,2.266 -14.245,0.211 -6.303,-0.05 -12.607,-0.1 -18.91,-0.149 -1.676,0.053 -3.352,0.106 -5.029,0.159 C 16.58,-2.595 13.342,-2.823 10.104,-3.052 6.736,-2.035 3.368,-1.018 0,0" style="fill:#190908;fill-opacity:1;fill-rule:nonzero;stroke:none" transform="matrix(1.3333333,0,0,-1.3333333,2042.6149,4347.4601)" />
      <path id="path5" d="m 0,0 c -37.868,-13.175 -74.711,-30.09 -116.844,-24.617 -12.493,1.623 -21.677,3.629 -29.718,14.767 -45.797,63.437 -92.577,126.163 -138.76,189.323 -4.487,6.138 -7.175,13.591 -10.698,20.433 -0.856,10.197 -13.221,16.804 -8.921,28.608 19.179,4.605 38.522,8.637 57.467,14.057 9.318,2.666 16.832,1.78 23.952,-4.414 13.414,-16.393 26.075,-33.474 42.735,-46.91 0,0 0.418,-0.496 0.417,-0.496 9.998,-15.13 21.353,-28.995 36.606,-39.222 0,0 -0.119,0.127 -0.116,0.129 10.336,-17.756 24.966,-31.312 43.34,-45.869 -1.115,6.325 -1.375,9.406 -2.214,12.321 -13.985,48.622 -27.489,97.394 -42.413,145.727 -4.667,15.117 -1.045,20.922 14.123,21.051 5.526,0.047 11.047,0.642 16.57,0.987 4.779,-0.117 9.558,-0.234 14.337,-0.351 17.432,0.005 34.864,0.01 52.297,0.016 12.769,0.133 17.213,-6.779 18.899,-18.915 6.181,-44.484 13.347,-88.832 20.143,-133.231 0.812,-14.77 3.099,-29.255 8.395,-43.153 C -0.91,88.676 -0.778,87.168 -0.007,85.716 -0.105,64.8 2.666,44.325 9.44,24.469 9.749,22.701 10.058,20.934 10.367,19.167 10.481,10.847 7.418,4.246 0,0" style="fill:#190908;fill-opacity:1;fill-rule:nonzero;stroke:none" transform="matrix(1.3333333,0,0,-1.3333333,755.6072,1174.2921)" />
      <path id="path6" d="m 0,0 c -11.107,12.136 -24.623,18.219 -37.443,25.366 -7.55,4.209 -12.712,3.08 -11.585,-6.338 1.747,-14.596 -7.439,-34.791 3.416,-42.366 11.034,-7.7 23.809,9.99 35.942,16.285 C -6.358,-5.334 -3.556,-2.635 0,0 m -136.442,113.547 c 6.772,5.914 15.038,3.994 22.78,4.036 30.135,0.162 60.673,-3.086 90.308,0.752 38.958,5.046 58.556,-14.004 79.911,-43.026 28.214,-38.345 40.964,-73.137 8.266,-113.781 -5.752,-7.151 -3.355,-12.415 3.438,-17.823 13.571,-10.805 26.115,-22.924 39.898,-33.434 10.819,-8.25 9.026,-13.673 -0.099,-22.21 -25.454,-23.811 -34.788,-24.194 -62.186,-2.071 -13.487,10.89 -28.282,20.163 -42.515,30.125 -16.208,11.343 -27.94,-1.233 -41.14,-7.387 -14.067,-6.559 -8.144,-17.52 -5.95,-26.676 3.497,-14.59 8.146,-29.01 13.615,-42.992 5.285,-13.51 0.048,-17.367 -12.47,-16.675 -0.789,0.043 -1.586,-0.075 -2.378,-0.064 -17.385,0.247 -37.576,-4.944 -51.416,2.188 -15.838,8.162 -5,30.292 -7.385,46.13 -9.549,63.427 -18.369,126.964 -27.459,190.46 1.958,17.85 -2.035,35.109 -5.218,52.448" style="fill:#190908;fill-opacity:1;fill-rule:nonzero;stroke:none" transform="matrix(1.3333333,0,0,-1.3333333,1196.0152,823.93867)" />
      <path id="path7" d="m 0,0 c 13.805,1.046 26.281,21.016 41.761,0.753 14.698,-19.238 30.181,-32.822 17.906,-63.679 -15.323,-38.523 -33.816,-62.052 -77.673,-64.331 -27.224,-1.415 -54.072,-10.582 -81.022,-16.568 -13.303,-2.955 -20.633,1.325 -24.102,15.067 -5.41,21.434 -13.122,42.292 -18.39,63.755 -7.546,30.752 6.131,59.437 12.099,88.426 11.234,54.571 12.829,54.202 68.725,54.285 26.924,0.039 53.885,-0.544 80.76,0.67 C 39.989,79.278 43.032,64.822 47.04,51.557 51.698,36.137 38.401,33.441 28.642,29.22 11.318,21.727 -6.252,14.801 -23.718,7.639 -37.669,2.147 -51.432,-3.924 -65.652,-8.6 c -7.302,-2.4 -11.488,-6.292 -10.007,-13.406 3.763,-18.077 1.506,-37.439 10.269,-54.938 25.486,16.851 26.238,16.845 26.467,42.85 0.118,13.434 5.574,20.212 17.761,24.072 C -13.79,-7.687 -7.033,-3.406 0,0" style="fill:#190908;fill-opacity:1;fill-rule:nonzero;stroke:none" transform="matrix(1.3333333,0,0,-1.3333333,1936.2512,603.26613)" />
      <path id="path8" d="m 0,0 c 11.205,12.917 22.296,25.936 33.655,38.716 7.619,8.573 14.142,9.237 19.093,-2.93 C 79.37,-29.633 86.69,-11.749 28.264,-40.146 18.932,-44.682 4.687,-44.953 3.87,-59.333 3.167,-71.698 -2.264,-87.795 7.334,-95.528 c 7.535,-6.071 19.832,5.121 29.46,9.793 37.964,18.422 37.885,18.586 38.371,-23.044 0.569,-48.584 0.587,-48.65 -46.588,-61.914 -18.296,-5.143 -36.67,-10.017 -55.062,-14.812 -10.349,-2.698 -15.485,0.7 -18.002,12.097 -15.101,68.384 -30.881,136.621 -46.837,204.812 -2.593,11.084 -1.27,19.809 7.1,28.066 24.259,23.932 48.197,48.193 71.993,72.587 11.025,11.303 19.848,11.545 27.266,-3.498 1.373,-2.783 3.886,-4.98 5.674,-7.584 C 37.825,96.045 38.306,95.21 12.021,79.531 -2.542,70.844 -9.817,61.021 -7.572,43.542 -5.975,31.11 -7.262,18.307 -7.262,5.67 -4.841,3.78 -2.421,1.89 0,0" style="fill:#190908;fill-opacity:1;fill-rule:nonzero;stroke:none" transform="matrix(1.3333333,0,0,-1.3333333,891.7324,861.47347)" />
      <path id="path9" d="m 0,0 c 0,25.362 -0.589,50.742 0.224,76.077 0.477,14.825 -4.222,24.322 -19.912,20.958 -49.026,-10.512 -59.299,30.394 -78.241,58.734 -8.894,13.306 6.658,13.646 13.238,15.389 27.485,7.28 55.338,13.168 83.021,19.712 25.223,5.962 50.452,11.911 75.582,18.246 18.634,4.698 63.894,-21.718 67.043,-39.437 0.671,-3.779 -1.502,-5.723 -3.945,-7.781 -4.206,-3.541 -7.765,-8.93 -12.585,-10.493 C 78.161,136.403 69.688,102.475 74.362,59.093 77.232,32.458 74.065,5.228 75.179,-21.671 75.807,-36.835 71.184,-47.09 58.302,-55.236 43.614,-64.523 30.009,-75.511 15.818,-85.599 c -3.658,-2.6 -6.746,-7.776 -12.161,-5.442 -5.738,2.474 -3.354,8.21 -3.384,12.583 C 0.096,-52.306 0.186,-26.153 0.186,0 Z" style="fill:#190908;fill-opacity:1;fill-rule:nonzero;stroke:none" transform="matrix(1.3333333,0,0,-1.3333333,1390.4,833.95813)" />
      <path id="path10" d="M 0,0 C 12.659,8.01 24.99,19.104 26.477,31.682 27.807,42.938 13.859,52.47 1.767,56.674 -4.612,58.892 -30.775,30.292 -28.243,23.866 -23.331,11.402 -10.469,7.283 0,0 M 102.869,42.286 C 91.891,15.469 83.747,-17.121 66.032,-43.212 54.327,-60.452 29.573,-69.744 9.329,-79.952 c -13.205,-6.659 -25.184,5.96 -37.883,8.764 -51.331,11.333 -53.155,59.837 -70.954,95.225 -5.922,11.774 10.889,26.791 14.175,41.228 9.125,40.089 32.766,61.914 74.483,65.44 15.468,1.307 30.588,7.537 45.703,12.067 30.684,9.197 33.407,9.144 41.853,-20.779 7.3,-25.863 21.611,-49.209 26.163,-79.707" style="fill:#190908;fill-opacity:1;fill-rule:nonzero;stroke:none" transform="matrix(1.3333333,0,0,-1.3333333,2160.4869,610.16747)" />
      <path id="path11" d="m 0,0 c -24.107,2.527 -25.062,16.852 -22.545,37.358 7.311,59.576 14,119.338 17.475,179.227 1.689,29.094 23.46,35.264 41.322,46.304 8.127,5.023 18.873,15.664 27.046,10.564 8.597,-5.364 1.472,-18.635 0.592,-28.262 C 58.006,180.786 50.682,116.496 45.919,52.014 44.556,33.564 35.839,25.937 20.862,20.374 11.056,16.731 -2.195,15.871 -0.194,-0.173 -0.196,-0.174 0,0 0,0" style="fill:#190908;fill-opacity:1;fill-rule:nonzero;stroke:none" transform="matrix(1.3333333,0,0,-1.3333333,1612.2903,869.61413)" />
      <path id="path12" d="M 0,0 C -0.025,3.195 -0.051,6.389 -0.076,9.584 4,19.025 3.032,32.626 19.15,31.927 34.019,31.281 39.445,22.611 39.461,9.044 39.472,-1.06 47.085,-8.55 48.977,-19.294 36.282,-1.687 12.983,-14.69 0,0" style="fill:#190908;fill-opacity:1;fill-rule:nonzero;stroke:none" transform="matrix(1.3333333,0,0,-1.3333333,2646.5169,4055.9453)" />
      <path id="path13" d="m 0,0 c 5.102,-0.772 14.066,3.327 16.964,-6.012 3.21,-10.347 -4.032,-13.688 -12.689,-15.673 -2.76,-0.633 -6.078,-2.966 -7.293,-5.432 -3.604,-7.313 -4.388,-19.369 -16.496,-13.012 -4.863,2.553 -9.585,12.469 -8.45,17.764 1.928,8.996 3.337,21.198 16.997,22.327 C -7.827,0.221 -4.647,0 0,0" style="fill:#190908;fill-opacity:1;fill-rule:nonzero;stroke:none" transform="matrix(1.3333333,0,0,-1.3333333,2221.9161,4114.0783)" />
      <path id="path14" d="m 0,0 c 0.133,-5.945 -2.969,-8.73 -8.703,-8.585 -4.895,0.124 -10.361,0.948 -10.735,6.818 -0.42,6.592 4.619,9.762 10.641,10.439 C -2.725,9.356 -0.508,5.365 0,0" style="fill:#190908;fill-opacity:1;fill-rule:nonzero;stroke:none" transform="matrix(1.3333333,0,0,-1.3333333,2245.4965,4082.4652)" />
      <path id="path15" d="M 0,0 C -4.814,-4.271 -9.564,-4.177 -14.247,0.211 -9.465,2.266 -4.716,2.233 0,0" style="fill:#c7b091;fill-opacity:1;fill-rule:nonzero;stroke:none" transform="matrix(1.3333333,0,0,-1.3333333,2119.9505,4350.91)" />
      <path id="path18" d="M 0,0 V 0 C -0.453,-5.89 -0.404,-11.678 0.043,-17.386 -0.404,-11.678 -0.453,-5.89 0,0 m -456.999,1042.555 c -1.404,0.099 -2.751,0.081 -4.049,-0.045 1.298,0.126 2.645,0.144 4.049,0.045 z m -7.805,-0.734 c 0.805,0.22 1.629,0.397 2.474,0.528 -0.845,-0.131 -1.669,-0.308 -2.474,-0.528 M -761.591,333.303 c 1.092,2.783 3.338,5.84 6.291,8.88 -2.952,-3.04 -5.198,-6.096 -6.291,-8.879 3.887,-0.475 6.601,-2.122 8.141,-4.943 -1.54,2.821 -4.254,4.467 -8.141,4.942 m -9.444,0.08 c -2.465,15.7 -1.197,34.613 -15.7,39.249 14.503,-4.636 13.236,-23.548 15.702,-39.247 2.15,-0.051 4.301,-0.102 6.452,-0.154 -2.151,0.051 -4.302,0.102 -6.454,0.152 m -473.294,1112.581 c 1.707,-0.418 3.057,-1.291 4.024,-2.612 -0.97,1.322 -2.319,2.194 -4.024,2.612 M 61.781,-400.815 c -7.648,68.365 -12.114,137.093 -23.76,205.002 -0.137,1.821 -0.275,3.647 -0.412,5.472 -0.574,11.068 -0.591,22.195 -1.806,33.191 -21.239,192.282 -42.658,384.544 -63.969,576.818 -21.919,197.775 -44.392,395.49 -65.307,593.371 -7.489,70.853 -18.974,141.351 -20.997,212.753 -12.68,45.202 -12.798,92.118 -18.354,138.257 -10.201,84.713 -18.671,169.634 -27.735,254.482 -0.669,6.257 -0.316,12.623 -0.438,18.938 -4.492,36.86 -9.087,73.71 -13.447,110.588 -4.635,39.198 -5.775,40.909 -37.046,18.139 -26.454,-19.262 -50.236,-17.185 -75.871,-1.461 -6.722,4.124 -14.303,7.051 -20.47,11.839 -16.072,12.48 -27.113,6.356 -32.015,-10.158 -6.21,-20.922 -21.482,-27.067 -40.018,-31.222 -30.816,-6.906 -61.446,-14.646 -92.154,-22.035 -10.427,1.659 -19.573,-3.12 -29.212,-5.633 -16.174,-4.216 -32.271,-11.268 -49.278,-3.102 -6.195,4.718 -12.157,9.827 -18.699,14.035 -4.296,2.763 -6.676,10.103 -13.165,7.721 -7.743,-2.842 -2.583,-9.266 -2.542,-14.163 0.056,-6.842 -2.543,-13.421 -8.396,-15.617 -22.338,-8.38 -42.333,-24.817 -68.411,-20.936 -10.096,-21.103 -35.699,-29.371 -49.206,-25.167 -18.214,5.669 -23.009,-3.377 -32.357,-10.542 -31.814,-24.385 -58.977,-54.592 -93.935,-75.042 -0.345,3.213 -0.697,6.428 -1.05,9.643 -11.605,4.62 -17.712,-8.138 -27.657,-8.75 -27.209,-16.56 -54.707,-32.678 -81.548,-49.823 -22.439,-14.333 -45.544,-23.724 -73.041,-20.496 -10.482,1.23 -22.139,2.127 -31.552,-5.716 -6.275,6.215 -14.223,5.106 -22.032,5.369 -59.553,2.007 -113.73,-20.052 -168.947,-37.48 -8.885,1.605 -14.276,-5.306 -21.28,-8.454 -49.242,-22.129 -90.177,-66.059 -151.4,-57.141 -11.242,1.638 -13.225,-4.893 -7.342,-14.686 8.483,-14.122 16.015,-28.815 23.953,-43.265 4.513,-2.019 4.469,-6.165 4.856,-10.112 5.558,-1.909 7.027,-6.895 8.66,-11.76 1.382,0.173 2.703,0.558 3.962,1.155 0,0 0.324,-0.306 0.325,-0.303 0.598,-3.773 0.062,-8.28 1.962,-11.205 58.091,-89.47 109.712,-182.837 165.115,-273.923 28.545,-46.93 56.581,-94.175 84.394,-141.543 8.74,-14.885 20.18,-28.347 25.059,-45.381 16.053,-19.615 27.338,-42.044 38.187,-64.726 -10e-4,0.003 0.224,-0.576 0.224,-0.576 4.794,-3.463 8.32,-7.745 8.961,-13.886 12.851,-10.663 13.851,-29.901 28.437,-39.316 1.61,-4.391 2.596,-9.154 4.931,-13.122 26.055,-44.286 51.527,-88.945 78.77,-132.494 23.018,-36.794 41.84,-76.236 69.127,-110.346 0,0 0.069,-0.09 0.069,-0.088 26.144,-51.489 54.936,-101.387 88.935,-148.159 5.266,4.962 10.531,9.924 15.796,14.886 -5.265,-4.962 -10.53,-9.924 -15.794,-14.887 2.12,-2.916 4.238,-5.832 6.357,-8.748 1.217,-1.764 2.433,-3.527 3.65,-5.29 -0.861,-13.66 7.079,-23.038 15.628,-32.123 1.183,-1.97 2.367,-3.943 3.551,-5.916 3.525,-7.032 6.634,-14.31 10.637,-21.057 70.051,-118.09 139.636,-236.463 210.626,-353.987 29.125,-48.217 54.769,-98.627 88.539,-144.001 -0.301,-1.789 0.335,-3.139 1.908,-4.047 6.165,-19.802 18.735,-36.249 29.721,-53.197 24.784,-38.235 43.408,-80.347 72.798,-115.647 0.578,-8.295 4.329,-14.948 10.525,-20.334 l 0.207,-1.468 c 0,0 1.412,-0.451 1.416,-0.452 4.202,-10.355 8.472,-20.673 17.181,-28.294 1.671,-4.376 2.733,-9.116 5.103,-13.073 50.591,-84.434 101.328,-168.78 152.037,-253.143 6.244,-2.272 5.093,-9.455 8.857,-13.349 4.986,-2.997 10.323,-3.519 15.916,-2.131 29.414,3.434 58.881,1.366 88.323,0.864 2.05,0.08 4.111,0.169 6.172,0.258 14.232,40.076 14.232,40.082 61.351,40.219 13.364,0.04 26.731,0.226 40.091,0.012 31.345,-0.503 31.344,-0.585 31.834,31.343 -11.219,94.868 -22.887,189.684 -33.508,284.618" style="fill:#f3e9d7;fill-opacity:1;fill-rule:nonzero;stroke:none" transform="matrix(1.3333333,0,0,-1.3333333,2494.4593,3103.8148)" />
      </g></svg>