<?xml version='1.0' encoding='utf-8'?>
<svg xmlns="http://www.w3.org/2000/svg" version="1.1" width="58.272" height="99.369" viewBox="1334.870 4362.020 58.272 99.369"><g id="object"><path id="path132" d="m 0,0 c 1.164,-2.854 -2.173,-9.953 5.059,-10.283 4.34,-0.198 8.165,4.266 7.744,9.306 C 12.378,4.113 9.929,9.198 4.017,9.317 -0.921,9.416 -0.41,4.912 0,0 m -11.257,-12.706 c 0,8.269 0.23,16.547 -0.097,24.803 -0.163,4.136 1.914,5.729 5.287,5.974 4.305,0.313 8.707,0.512 12.968,-0.027 10.444,-1.32 16.374,-7.933 16.439,-17.661 0.075,-11.359 -4.812,-17.547 -15.912,-19.423 -5.422,-0.916 -7.867,-3.474 -7.331,-9.063 0.405,-4.222 0.57,-8.496 0.428,-12.734 -0.112,-3.318 -0.471,-6.253 -5.5,-6.309 -4.975,-0.056 -5.542,2.624 -5.587,6.088 -0.123,9.449 -0.043,18.902 -0.043,28.353 -0.217,0 -0.435,0 -0.652,-10e-4" style="fill:#c33c36;fill-opacity:1;fill-rule:nonzero;stroke:none" transform="matrix(1.3333333,0,0,-1.3333333,1356.0207,4392.5304)" />
      </g></svg>