<?xml version='1.0' encoding='utf-8'?>
<svg xmlns="http://www.w3.org/2000/svg" version="1.1" width="47.825" height="100.654" viewBox="2017.670 4068.950 47.825 100.654"><g id="object"><path id="path157" d="m 0,0 c 0.005,7.776 0.183,15.554 -0.069,23.318 -0.131,4.048 1.003,6.125 5.34,6.503 4.724,0.412 9.412,0.253 14.124,0.284 3.979,0.026 6.182,-0.745 6.252,-5.358 0.068,-4.474 -1.694,-5.677 -5.907,-5.51 -6.663,0.263 -5.911,-5.335 -6.916,-9.501 -1.113,-4.613 1.82,-6.04 5.355,-6.456 4.377,-0.515 6.114,-2.765 6.011,-6.99 -0.117,-4.768 -3.372,-5.028 -6.877,-5.004 -4.057,0.028 -5.494,-1.947 -4.672,-5.85 0.288,-1.365 0.553,-2.819 0.391,-4.18 -0.758,-6.343 2.361,-8.302 7.958,-6.811 4.802,1.279 5.204,-2.011 5.562,-5.002 0.393,-3.283 -0.089,-6.26 -4.798,-5.722 -2.8,0.32 -5.663,0.198 -8.494,0.118 C -1.441,-36.577 1.314,-37.83 0.109,-23.307 -0.532,-15.589 -0.005,-7.774 0,0" style="fill:#494f57;fill-opacity:1;fill-rule:nonzero;stroke:none" transform="matrix(1.3333333,0,0,-1.3333333,2023.9469,4115.0968)" />
      </g></svg>