<?xml version='1.0' encoding='utf-8'?>
<svg xmlns="http://www.w3.org/2000/svg" version="1.1" width="160.835" height="285.098" viewBox="923.532 1487.270 160.835 285.098"><g id="object"><path id="path132" d="m 0,0 c -0.131,-4.551 2.187,-8.949 0.861,-13.606 -0.068,-0.238 0.995,-0.881 1.605,-1.191 0.279,-0.141 0.959,-0.065 1.08,0.137 2.952,4.946 6.097,9.827 5.609,15.994 C 8.888,4.715 5.456,6.502 2.369,4.864 0.363,3.798 0.074,1.967 0,0 m 9.686,-20.708 c -0.16,-1.373 -0.321,-2.747 -0.48,-4.12 -3.94,-0.803 -7.714,-0.721 -11.408,1.297 -1.255,0.684 -3.013,0.447 -4.541,0.631 0,0 -0.022,0.181 -0.023,0.183 0.019,2.352 -0.486,4.859 0.165,7.019 1.521,5.055 1.622,9.943 0.434,15.074 -0.698,3.015 -0.971,6.325 0.302,9.305 2.819,6.602 3.182,13.609 3.984,20.589 0.473,4.123 1.021,8.1 2.828,12.233 2.021,4.623 1.475,10.634 1.078,15.97 -0.365,4.904 0.298,8.639 3.202,13.03 2.83,4.279 3.569,10.297 4.074,15.659 0.488,5.172 1.45,10.059 3.468,14.778 0.937,2.194 1.243,4.406 1.397,6.813 0.841,13.143 5.605,25.177 11.644,36.637 1.72,3.264 5.338,5.532 5.299,9.818 1.536,0.576 2.435,1.685 2.723,3.297 0,0 0.682,0.857 0.676,0.856 3.968,3.439 7.427,7.751 13.447,7.649 2.274,-0.039 3.602,-0.958 3.782,-3.285 0.089,-1.152 0.125,-2.307 0.185,-3.461 0,0 -0.324,-0.464 -0.32,-0.462 -2.747,-3.428 -2.747,-3.428 0.087,-7.073 9.058,-5.504 13.477,-14.885 18.986,-23.241 4.5,-6.827 7.718,-14.395 10.346,-22.218 1.608,-4.786 4.135,-9.262 6.249,-13.877 0.41,-5.204 0.594,-5.459 4.79,-6.657 0,0 0.662,-0.223 0.657,-0.223 3.455,-3.99 5.183,-8.511 4.228,-13.851 0.081,-1.705 0.161,-3.41 0.241,-5.115 -0.687,-1.788 -4.219,-2.818 -1.286,-5.574 2.747,-2.581 1.466,-5.745 0.732,-8.694 -0.413,-1.656 -3.634,-1.877 -4.93,-0.639 -1.543,1.473 -1.873,3.29 -2.078,5.231 -0.383,3.613 -1.571,7.024 -4.799,8.855 -4.394,2.493 -5.287,6.226 -5.234,10.771 0.016,1.387 -1.004,2.785 -1.549,4.179 -2.977,7.75 -4.403,16.13 -9.486,23.032 -0.879,1.195 -1.633,2.687 -1.853,4.131 -1.986,13.02 -10.078,22.421 -18.532,31.618 -1.522,1.655 -3.653,1.263 -4.59,-0.911 C 38.285,126.267 34.443,113.409 32.177,100.365 30.563,91.075 28.19,82.03 26.24,72.858 25.901,71.262 25.143,69.957 23.702,69.11 c -0.171,3.09 -0.27,6.188 -0.587,9.263 -0.05,0.482 -1.061,1.142 -1.682,1.207 -0.561,0.059 -1.654,-0.507 -1.724,-0.928 -0.504,-3.056 -0.809,-6.144 -1.177,-9.222 -1.57,-0.179 -3.853,-0.836 -3.553,-2.172 0.88,-3.909 -1.38,-6.473 -2.913,-9.441 -0.313,-0.606 -0.251,-1.526 -0.075,-2.23 0.172,-0.688 0.566,-1.491 1.118,-1.877 0.996,-0.695 2.115,-0.637 2.984,0.402 3.507,4.191 2.913,9.368 3.425,14.285 1.379,0.222 2.763,0.437 4.147,0.652 C 22.996,61.483 22.977,53.786 19.2,46.845 15.744,48.779 12.568,45.227 9.015,46.32 8.07,46.611 7.767,44.656 8.402,43.658 12.292,37.549 9.696,31.864 6.617,26.778 3.883,22.261 3.475,17.331 2.269,12.531 1.918,11.135 2.532,9.456 4.277,8.772 c 1.369,-0.537 2.198,0.344 2.99,1.182 4.869,5.159 6.095,11.666 5.942,18.319 -0.142,6.154 1.32,11.355 5.864,15.575 1.113,-2.684 0.84,-5.545 0.044,-8.078 -2.844,-9.044 -2.543,-18.518 -4.19,-27.71 -1.72,-9.594 -3.492,-19.179 -5.241,-28.768" style="fill:#5c567e;fill-opacity:1;fill-rule:nonzero;stroke:none" transform="matrix(1.3333333,0,0,-1.3333333,938.77867,1714.6212)" />
      <path id="path337" d="M 0,0 C 1.484,1.766 2.969,3.532 4.452,5.29 6.646,1.429 10.499,2.851 13.75,2.357 13.178,-1.575 12.606,-5.507 12.034,-9.439 c -0.231,-3.151 -0.462,-6.302 -0.694,-9.453 -0.149,-0.812 -0.299,-1.624 -0.449,-2.436 -1.488,-1.694 -2.505,-4.174 -5.384,-3.734 -3.034,0.464 -4.729,2.651 -5.511,5.346 -0.527,1.814 -0.505,3.834 -0.473,5.758 C -0.398,-9.304 -0.169,-4.653 0,0" style="fill:#46a3a4;fill-opacity:1;fill-rule:nonzero;stroke:none" transform="matrix(1.3333333,0,0,-1.3333333,1059.1775,1732.8816)" />
      <path id="path552" d="m 0,0 c -0.043,-1.005 -0.086,-2.011 -0.129,-3.006 -4.542,-4.212 -6.004,-9.412 -5.863,-15.566 0.154,-6.654 -1.072,-13.16 -5.942,-18.319 -0.791,-0.838 -1.621,-1.72 -2.989,-1.182 -1.745,0.684 -2.359,2.362 -2.008,3.759 1.206,4.8 1.614,9.73 4.348,14.246 3.079,5.087 5.674,10.772 1.785,16.881 -0.635,0.997 -0.332,2.953 0.613,2.662 C -6.632,-1.618 -3.456,1.934 0,0" style="fill:#1c3238;fill-opacity:1;fill-rule:nonzero;stroke:none" transform="matrix(1.3333333,0,0,-1.3333333,964.37907,1652.1609)" />
      <path id="path553" d="M 0,0 C 0.075,1.969 0.364,3.8 2.371,4.866 5.458,6.504 8.889,4.717 9.157,1.336 9.645,-4.831 6.5,-9.712 3.547,-14.658 c -0.12,-0.202 -0.801,-0.278 -1.08,-0.137 -0.61,0.31 -1.672,0.953 -1.605,1.191 C 2.188,-8.947 -0.13,-4.549 0,0" style="fill:#1c3238;fill-opacity:1;fill-rule:nonzero;stroke:none" transform="matrix(1.3333333,0,0,-1.3333333,938.77667,1714.6239)" />
      <path id="path554" d="m 0,0 c -0.518,-4.91 0.077,-10.088 -3.43,-14.279 -0.869,-1.038 -1.988,-1.097 -2.984,-0.401 -0.552,0.386 -0.947,1.188 -1.119,1.876 -0.175,0.704 -0.238,1.624 0.076,2.23 1.533,2.968 3.793,5.532 2.913,9.441 -0.301,1.336 1.982,1.993 3.553,2.172 C -0.635,0.718 -0.304,0.371 0,0" style="fill:#1c3238;fill-opacity:1;fill-rule:nonzero;stroke:none" transform="matrix(1.3333333,0,0,-1.3333333,964.80987,1623.4337)" />
      <path id="path555" d="M 0,0 C 0.368,3.078 0.672,6.167 1.177,9.223 1.246,9.643 2.34,10.21 2.901,10.151 3.521,10.085 4.533,9.426 4.582,8.943 4.9,5.868 4.999,2.77 5.17,-0.32 5.17,-0.319 5.133,-0.382 5.133,-0.381 3.749,-0.596 2.365,-0.811 0.986,-1.032 0.687,-0.668 0.356,-0.322 0,0" style="fill:#1c3238;fill-opacity:1;fill-rule:nonzero;stroke:none" transform="matrix(1.3333333,0,0,-1.3333333,963.48867,1622.0483)" />
      <path id="path624" d="m 0,0 c -0.215,-1.543 -0.43,-3.087 -0.645,-4.631 -3.251,0.493 -7.104,-0.928 -9.298,2.933 10e-4,0.008 0.003,0.697 0.004,0.703 3.011,1.823 5.012,4.251 4.835,7.996 0,0 -0.031,0.191 -0.031,0.191 C -0.806,6.663 -1.173,2.782 0,0" style="fill:#3675ba;fill-opacity:1;fill-rule:nonzero;stroke:none" transform="matrix(1.3333333,0,0,-1.3333333,1078.3705,1723.5636)" />
      <path id="path625" d="M 0,0 C 0.177,-3.745 -1.824,-6.173 -4.835,-7.997 -5.189,-4.147 -4.69,-0.807 0,0" style="fill:#46a3a4;fill-opacity:1;fill-rule:nonzero;stroke:none" transform="matrix(1.3333333,0,0,-1.3333333,1071.5652,1714.2287)" />
      </g></svg>