<?xml version='1.0' encoding='utf-8'?>
<svg xmlns="http://www.w3.org/2000/svg" version="1.1" width="154.718" height="184.938" viewBox="1427.170 1246.310 154.718 184.938"><defs id="defs1"><clipPath clipPathUnits="userSpaceOnUse" id="clipPath46">
      <path d="M 0,3370.3901 H 2383.9401 V -2.5000001e-5 H 0 Z" id="path46" />
    </clipPath>
  </defs><g id="object"><path id="path11" d="m 0,0 c 14.455,0.788 32.497,-2.128 31.889,20.333 -0.547,20.175 -16.405,21.93 -32.12,21.928 -14.214,-0.002 -29,1.265 -29.584,-19.796 C -30.423,0.525 -16.159,-0.69 0,0 m -51.097,3.007 c 0,0.878 -10e-4,1.755 0,2.633 0.096,59.906 11.083,68.722 70.441,56.528 34.426,-7.072 48.625,-44.5 24.741,-69.898 -11.665,-12.405 -8.386,-20.825 -1.476,-32.067 3.819,-6.214 12.728,-14.169 3.869,-20.357 -10.183,-7.112 -17.564,1.413 -22.97,10.3 -4.102,6.742 -8.271,13.463 -12.818,19.906 -6.541,9.27 -16.162,9.787 -26.032,7.754 -10.102,-2.081 -10.129,-10.593 -10.914,-18.573 -0.826,-8.382 1.079,-20.063 -11.39,-20.013 -13.424,0.054 -12.873,12.178 -13.186,21.667 -0.463,14.027 -0.12,28.079 -0.12,42.12 z" style="fill:#424242;fill-opacity:1;fill-rule:nonzero;stroke:none" transform="matrix(1.3333333,0,0,-1.3333333,1501.2956,1341.5197)" />
      </g></svg>