<?xml version='1.0' encoding='utf-8'?>
<svg xmlns="http://www.w3.org/2000/svg" version="1.1" width="48.794" height="100.764" viewBox="1822.960 3955.980 48.794 100.764"><g id="object"><path id="path193" d="m 0,0 c 0,-8.736 0.093,-17.473 -0.031,-26.208 -0.093,-6.606 1.295,-11.557 9.487,-11.303 4.058,0.126 4.962,-3.215 5.07,-6.402 0.086,-2.547 -1.005,-4.515 -4.196,-4.49 -4.255,0.033 -8.519,-0.383 -12.769,-0.26 -8.629,0.249 -10.89,2.551 -10.348,11.3 0.974,15.706 0.491,31.383 -0.247,47.069 -0.208,4.415 0.498,8.106 6.236,8.18 5.655,0.072 7.483,-2.513 6.679,-7.963 C -0.597,6.681 -0.207,3.312 -0.207,0 -0.138,0 -0.069,0 0,0" style="fill:#494f57;fill-opacity:1;fill-rule:nonzero;stroke:none" transform="matrix(1.3333333,0,0,-1.3333333,1846.3844,3985.8287)" />
      </g></svg>