<?xml version='1.0' encoding='utf-8'?>
<svg xmlns="http://www.w3.org/2000/svg" version="1.1" width="92.887" height="130.634" viewBox="2292.610 4036.520 92.887 130.634"><g id="object"><path id="path32" d="m 0,0 c -3.502,0.586 -5.897,2.54 -6.171,6.12 -0.45,5.87 -0.57,11.767 -0.763,17.654 -0.411,12.56 -0.241,25.168 -3.086,37.521 -0.705,3.061 -1.625,6.071 -2.428,9.11 -0.406,1.536 -0.763,3.284 0.831,4.204 2.201,1.271 3.593,-0.473 4.94,-1.9 1.973,-2.09 2.822,-4.675 3.291,-7.437 0.725,-4.266 1.379,-8.547 2.254,-12.782 0.878,-4.246 3.014,-5.991 7.329,-6.226 8.318,-0.452 15.417,2.229 21.289,8.222 5.46,5.571 6.113,13.019 1.534,19.235 -5.207,7.067 -14.095,9.443 -22.052,5.722 -2.106,-0.985 -3.869,-2.709 -5.984,-3.666 -1.487,-0.673 -3.157,0.059 -4.18,1.378 -1.01,1.301 -1.278,2.888 -0.34,4.382 0.615,0.981 1.341,1.932 2.18,2.725 6.088,5.76 22.612,6.75 28.481,0.106 1.812,-2.051 4.199,-3.604 5.951,-5.696 8.849,-10.569 8.795,-20.466 -0.361,-30.643 -3.088,-3.432 -6.81,-6.293 -10.187,-9.365 2.382,-4.282 6.14,-6.54 9.616,-9.089 4.119,-3.02 8.123,-6.234 12.456,-8.914 4.015,-2.484 3.869,-5.435 2.048,-9 10e-4,0.001 -0.902,0.087 -0.902,0.087 0,0 -0.796,-0.435 -0.797,-0.436 -5.038,3.709 -10.08,7.414 -15.115,11.127 C 22.556,27.806 14.784,32.364 6.62,36.216 3.6,37.641 0.959,36.075 0.686,32.839 0.094,25.813 -0.48,18.78 0.523,11.722 1.072,7.863 1.894,3.972 0.725,0.068 Z" style="fill:#cd4152;fill-opacity:1;fill-rule:nonzero;stroke:none" transform="matrix(1.3333333,0,0,-1.3333333,2315.6708,4161.1523)" />
      </g></svg>