<?xml version='1.0' encoding='utf-8'?>
<svg xmlns="http://www.w3.org/2000/svg" version="1.1" width="266.740" height="408.938" viewBox="1241.580 3443.280 266.740 408.938"><defs id="defs1"><clipPath clipPathUnits="userSpaceOnUse" id="clipPath59">
      <path d="M 0,3370.3901 H 2383.9401 V -2.5000001e-5 H 0 Z" id="path59" />
    </clipPath>
  </defs><g id="object"><path id="path4" d="m 0,0 c 0,-21.353 0.319,-42.714 -0.128,-64.058 -0.241,-11.488 2.948,-16.465 15.932,-17.038 49.204,-2.17 87.811,30.168 90.019,76.982 2.22,47.06 -35.433,83.067 -86.487,84.057 C 5.253,80.215 -0.971,76.763 -0.258,61.677 0.711,41.16 -0.017,20.563 0,0 m 122.844,-187.675 c -23.962,-7.439 -37.484,-1.477 -49.407,15.061 -14.325,19.869 -31.671,37.543 -47.376,56.444 -5.015,6.035 -10.733,9.901 -18.43,7.963 -9.717,-2.448 -7.154,-10.982 -7.276,-17.747 -0.242,-13.483 0.551,-27.019 -0.371,-40.445 -0.658,-9.577 6.283,-24.037 -12.944,-24.398 -18.877,-0.355 -13.953,13.605 -13.985,23.611 -0.239,73.782 -0.359,147.567 0.189,221.345 0.12,16.199 -0.762,28.866 -22.151,25.749 -4.28,-0.624 -11.479,-0.248 -9.505,6.47 2.342,7.97 5.353,19.308 15.395,18.992 36.223,-1.142 73.557,7.458 108.418,-7.086 39.73,-16.575 63.526,-46.874 66.569,-90.673 3.249,-46.758 -16.994,-82.731 -58.324,-102.977 -21.164,-10.368 -16.015,-16.228 -4.495,-28.892 17.939,-19.721 34.547,-40.652 53.693,-63.417" style="fill:#ffffff;fill-opacity:1;fill-rule:nonzero;stroke:none" transform="matrix(1.3333333,0,0,-1.3333333,1325.9083,3591.7693)" />
      <path id="path32" d="M 0,0 C -0.008,20.563 0.719,41.16 -0.25,61.677 -0.962,76.763 5.262,80.215 19.345,79.943 70.398,78.953 108.051,42.946 105.831,-4.114 103.623,-50.928 65.016,-83.266 15.812,-81.096 2.828,-80.523 -0.36,-75.546 -0.12,-64.058 0.327,-42.714 0.008,-21.353 0,0" style="fill:#5d5746;fill-opacity:1;fill-rule:nonzero;stroke:none" transform="matrix(1.3333333,0,0,-1.3333333,1325.8972,3591.7693)" />
      </g></svg>