<?xml version='1.0' encoding='utf-8'?>
<svg xmlns="http://www.w3.org/2000/svg" version="1.1" width="132.294" height="182.208" viewBox="1926.760 1250.340 132.294 182.208"><defs id="defs1"><clipPath clipPathUnits="userSpaceOnUse" id="clipPath46">
      <path d="M 0,3370.3901 H 2383.9401 V -2.5000001e-5 H 0 Z" id="path46" />
    </clipPath>
  </defs><g id="object"><path id="path15" d="m 0,0 c -6.123,0 -12.286,0.449 -18.363,-0.083 -19.566,-1.711 -26.981,5.615 -23.285,26.007 3.929,21.674 -1.251,43.477 -2.865,65.243 -2.193,29.568 4.306,35.894 33.137,36.124 14.859,0.118 29.733,0.008 44.579,-0.541 6.571,-0.244 12.246,-3.205 12.111,-10.971 C 45.174,107.774 38.893,105.936 32.559,105.6 21.212,104.999 9.827,105.145 -1.533,104.738 -9.852,104.44 -14.327,99.802 -14.763,91.546 -15.245,82.444 -11.786,75.99 -1.862,75.406 7.73,74.841 17.371,75.141 26.974,74.699 34.669,74.345 44.526,75.331 45.079,64.485 45.636,53.536 36.004,53.307 28.125,52.861 18.526,52.316 8.895,52.356 -0.72,52.08 -10.454,51.8 -14.835,46.457 -14.812,37.008 -14.788,27.222 -9.408,22.752 -0.116,22.418 11.241,22.011 22.619,22.032 33.96,21.385 39.47,21.071 44.55,18.529 45.221,12.408 46.063,4.724 40.752,1.056 34.076,0.708 22.746,0.119 11.363,0.546 0.002,0.546 0.002,0.364 0.001,0.182 0,0" style="fill:#e60013;fill-opacity:1;fill-rule:nonzero;stroke:none" transform="matrix(1.3333333,0,0,-1.3333333,1992.6307,1426.1173)" />
      </g></svg>