<?xml version='1.0' encoding='utf-8'?>
<svg xmlns="http://www.w3.org/2000/svg" version="1.1" width="377.012" height="455.942" viewBox="1499.810 3878.670 377.012 455.942"><defs id="defs1"><clipPath clipPathUnits="userSpaceOnUse" id="clipPath4">
      <path d="M -2384.1568,2286.7354 H -0.21670001 V -1083.6547 H -2384.1568 Z" id="path4" />
    </clipPath>
    <clipPath clipPathUnits="userSpaceOnUse" id="clipPath6">
      <path d="M -2384.0266,1933.815 H -0.086575 v -3370.39 H -2384.0266 Z" id="path6" />
    </clipPath>
    <clipPath clipPathUnits="userSpaceOnUse" id="clipPath8">
      <path d="M -2384.1847,2520.3537 H -0.24460001 V -850.0364 H -2384.1847 Z" id="path8" />
    </clipPath>
    <clipPath clipPathUnits="userSpaceOnUse" id="clipPath10">
      <path d="M -1378.8652,3371.3417 H 1005.0749 V 0.95157502 h -2383.9401 z" id="path10" />
    </clipPath>
    <clipPath clipPathUnits="userSpaceOnUse" id="clipPath12">
      <path d="M -2383.8391,1819.185 H 0.100925 v -3370.39 H -2383.8391 Z" id="path12" />
    </clipPath>
    <clipPath clipPathUnits="userSpaceOnUse" id="clipPath14">
      <path d="M -2384.2639,1767.3618 H -0.32387501 V -1603.0283 H -2384.2639 Z" id="path14" />
    </clipPath>
  </defs><g id="object"><path id="path27" d="m 0,0 c 0.203,56.251 0.148,112.505 0.808,168.751 0.147,12.509 -4.43,16.751 -16.649,16.371 -21.378,-0.666 -42.816,0.431 -64.185,-0.375 -13.713,-0.517 -20.101,3.043 -19.605,18.346 1.681,51.892 -6.674,43.291 41.673,43.631 68.951,0.484 137.922,-0.72 206.855,0.47 20.161,0.348 27.557,-5.87 24.565,-25.408 -0.71,-4.637 -0.491,-9.557 0.138,-14.234 2.286,-17.006 -3.34,-24.43 -21.923,-22.86 -19.671,1.662 -39.611,-0.165 -59.406,0.438 C 79.275,185.525 73.655,180.964 73.86,167.375 74.554,121.446 74.491,75.506 74.717,29.57 74.186,-2.167 73.179,-33.907 73.349,-65.641 73.421,-78.998 70.793,-85.063 55.148,-85.416 1.12,-86.632 1.176,-87.356 0.847,-33.313 0.779,-22.208 0.293,-11.104 0,0" style="fill:#9e998f;fill-opacity:1;fill-rule:nonzero;stroke:none" transform="matrix(1.3333333,0,0,-1.3333333,1638.688,4214.2823)" />
      </g></svg>