<?xml version='1.0' encoding='utf-8'?>
<svg xmlns="http://www.w3.org/2000/svg" version="1.1" width="111.672" height="56.642" viewBox="2404.490 219.401 111.672 56.642"><defs id="defs1"><clipPath clipPathUnits="userSpaceOnUse" id="clipPath11">
      <path d="M -2297.4972,2808.5926 H 86.442877 V -561.79751 H -2297.4972 Z" id="path11" />
    </clipPath>
  </defs><g id="object"><path id="path6" d="m 0,0 c -10.825,0 -21.651,-0.071 -32.474,0.04 -3.597,0.037 -4.646,1.598 -3.698,5.054 7.568,27.603 40.209,36.958 61.96,19.22 6.328,-5.16 10.24,-11.757 12.287,-19.55 C 38.747,2.207 37.471,0.376 34.701,0.192 30.983,-0.056 27.247,-0.079 23.518,-0.098 15.679,-0.137 7.839,-0.11 0,-0.11 0,-0.073 0,-0.037 0,0" style="fill:#cf2727;fill-opacity:1;fill-rule:nonzero;stroke:none" transform="matrix(1.3333333,0,0,-1.3333333,2459.1629,269.88387)" />
      </g></svg>