<?xml version='1.0' encoding='utf-8'?>
<svg xmlns="http://www.w3.org/2000/svg" version="1.1" width="190.501" height="247.576" viewBox="338.240 4161.020 190.501 247.576"><g id="object"><path id="path39" d="m 0,0 c -10.371,1.667 -17.387,2.795 -25.513,4.101 v 36.52 h 71.078 c 0,-43.46 2.691,-87.227 -0.899,-130.473 -2.61,-31.434 -36.473,-49.231 -75.254,-45.786 -34.666,3.08 -55.704,24.518 -56.646,57.884 -0.223,7.91 -0.033,15.832 -0.033,25.204 h 40.903 c 0.693,-6.467 1.397,-13.351 2.176,-20.227 1.598,-14.09 9.092,-25.048 23.415,-20.948 8.312,2.379 18.873,13.568 19.832,21.794 C 1.756,-48.81 0,-25.169 0,0" style="fill:#231916;fill-opacity:1;fill-rule:nonzero;stroke:none" transform="matrix(1.3333333,0,0,-1.3333333,460.6968,4221.1807)" />
      </g></svg>