<?xml version='1.0' encoding='utf-8'?>
<svg xmlns="http://www.w3.org/2000/svg" version="1.1" width="1602.220" height="180.656" viewBox="813.137 2399.750 1602.220 180.656"><g id="object"><path id="path1325" d="M 8.8823391,-78.775175 V -2.5022268e-4 H 19.054214 V -78.775175 Z M 46.402847,-2.5022268e-4 V -33.659723 c 0,-13.09147 -0.234375,-22.557726 -0.820313,-32.498802 l 0.351563,-0.113052 c 3.972656,8.531689 9.234375,17.530661 14.730469,26.295992 L 85.672378,-2.5022268e-4 H 95.961441 V -78.775175 h -9.585938 v 32.958548 c 0,12.269956 0.234375,21.856801 1.171875,32.378213 l -0.234375,0.113052 C 83.574722,-21.389768 79.016128,-29.687815 73.168472,-38.920429 L 47.926284,-78.775175 H 36.816909 V -2.5022268e-4 Z m 102.275393,0 h 10.27734 V -70.130433 h 24.08203 v -8.644742 h -58.32422 v 8.644742 h 23.96485 z M 191.80324,-78.775175 V -2.5022268e-4 h 10.17187 V -36.938244 h 38.09766 V -2.5022268e-4 h 10.28906 V -78.775175 h -10.28906 v 32.958548 h -38.09766 v -32.958548 z m 117,33.425832 h -30.6211 v -24.894143 h 32.37891 v -8.531689 H 268.01027 V -2.5022268e-4 h 44.29687 V -8.5319393 h -34.125 V -36.938244 h 30.6211 z m 57.38965,20.568003 8.41406,24.78108977732 h 10.875 L 358.59914,-78.775175 H 346.31789 L 319.55226,-2.5022268e-4 H 330.0757 L 338.25539,-24.78134 Z m -25.82813,-7.943817 7.71094,-22.791367 c 1.52344,-4.793423 2.80078,-9.586845 3.97265,-14.259678 h 0.23438 c 1.17187,4.55978 2.34375,9.232614 4.08984,14.37273 l 7.71094,22.678315 z M 403.0132,-2.5022268e-4 h 10.27734 V -70.130433 h 24.08203 v -8.644742 h -58.32422 v 8.644742 H 403.0132 Z M 486.93117,-45.349343 h -30.6211 v -24.894143 h 32.37891 v -8.531689 H 446.1382 V -2.5022268e-4 h 44.29687 V -8.5319393 h -34.125 V -36.938244 h 30.6211 z m 57.38965,20.568003 8.41406,24.78108977732 h 10.875 L 536.72707,-78.775175 H 524.44582 L 497.68019,-2.5022268e-4 h 10.52344 L 516.38332,-24.78134 Z m -25.82813,-7.943817 7.71094,-22.791367 c 1.52344,-4.793423 2.80078,-9.586845 3.97265,-14.259678 h 0.23438 c 1.17187,4.55978 2.34375,9.232614 4.08984,14.37273 l 7.71094,22.678315 z m 52.71094,28.8660509 c 4.20703,2.8037 12.5039,5.0270642 20.09765,5.0270642 18.58594,0 27.58594,-10.5214117 27.58594,-22.6707781 0,-11.576568 -6.77344,-18.005482 -20.09765,-23.145598 -10.875,-4.20555 -15.66797,-7.830765 -15.66797,-15.194245 0,-5.373759 4.08984,-11.802673 14.84765,-11.802673 7.125,0 12.38672,2.336417 14.96485,3.738267 l 2.80078,-8.298048 c -3.50391,-1.989722 -9.35156,-3.858855 -17.41406,-3.858855 -15.31641,0 -25.47657,9.119561 -25.47657,21.389517 0,11.101747 7.94532,17.764303 20.80078,22.324084 10.64063,4.092498 14.84766,8.298048 14.84766,15.661528 0,7.951354 -6.08203,13.4457012 -16.48828,13.4457012 -7.00781,0 -13.67578,-2.3439534 -18.23438,-5.1476532 z M 698.25539,-24.78134 706.66945,-2.5022268e-4 h 10.875 L 690.66164,-78.775175 H 678.38039 L 651.61476,-2.5022268e-4 H 662.1382 L 670.31789,-24.78134 Z m -25.82813,-7.943817 7.71094,-22.791367 c 1.52344,-4.793423 2.80078,-9.586845 3.97265,-14.259678 h 0.23438 c 1.17187,4.55978 2.34375,9.232614 4.08984,14.37273 l 7.71094,22.678315 z m 53.29395,-46.050018 v 46.396712 c 0,24.4268594 12.15234,33.6670103 28.28906,33.6670103 17.0625,0 29.80078,-9.9410759 29.80078,-34.1342933 v -45.929429 h -10.28906 v 46.630354 c 0,17.417609 -7.47656,25.1353209 -19.16016,25.1353209 -10.52344,0 -18.35156,-7.4840699 -18.35156,-25.1353209 v -46.630354 z m 135.70605,37.39774 h -25.95703 v 8.184995 h 16.01953 v 23.4922923 c -2.34375,1.1682084 -6.90234,2.102775 -13.55859,2.102775 -18.35157,0 -30.38672,-11.8026723 -30.38672,-31.7903403 0,-19.754025 12.5039,-31.677287 31.67578,-31.677287 7.94531,0 13.20703,1.522439 17.41406,3.391573 l 2.44922,-8.298048 c -3.38672,-1.635492 -10.51172,-3.625214 -19.62891,-3.625214 -26.42578,0 -42.55078,17.183967 -42.66796,40.67626 0,12.269956 4.20703,22.791367 10.99218,29.3333338 7.71094,7.3634808 17.53125,10.40835921 29.44922,10.40835921 10.64063,0 19.64063,-2.69064751 24.19922,-4.32613921 z m 15.42188,-37.39774 v 46.396712 c 0,24.4268594 12.15234,33.6670103 28.28906,33.6670103 17.0625,0 29.80078,-9.9410759 29.80078,-34.1342933 v -45.929429 h -10.28906 v 46.630354 c 0,17.417609 -7.47657,25.1353209 -19.16016,25.1353209 -10.52344,0 -18.35156,-7.4840699 -18.35156,-25.1353209 v -46.630354 z m 71.76855,74.9160689 c 4.20703,2.8037 12.50391,5.0270642 20.09766,5.0270642 18.58593,0 27.58593,-10.5214117 27.58593,-22.6707781 0,-11.576568 -6.77343,-18.005482 -20.09765,-23.145598 -10.875,-4.20555 -15.66797,-7.830765 -15.66797,-15.194245 0,-5.373759 4.08984,-11.802673 14.84766,-11.802673 7.125,0 12.38671,2.336417 14.96484,3.738267 l 2.80078,-8.298048 c -3.50391,-1.989722 -9.35156,-3.858855 -17.41406,-3.858855 -15.31641,0 -25.47656,9.119561 -25.47656,21.389517 0,11.101747 7.94531,17.764303 20.80078,22.324084 10.64062,4.092498 14.84765,8.298048 14.84765,15.661528 0,7.951354 -6.08203,13.4457012 -16.48828,13.4457012 -7.00781,0 -13.67578,-2.3439534 -18.23437,-5.1476532 z m 76.56151,3.85885587732 h 10.2774 V -70.130433 h 24.082 v -8.644742 h -58.3242 v 8.644742 h 23.9648 z m 86.6074,0 h 9.9375 V -75.971475 h -8.7656 l -16.6055,8.878383 1.9922,7.830764 13.2071,-7.129839 h 0.2343 z m 79.1309,0 V -20.688843 h 10.6289 v -8.064405 h -10.6289 v -47.218227 h -11.1094 l -33.8906,48.507024 v 6.775608 h 35.2969 V -2.5022268e-4 Z M 1156.312,-28.753248 v -0.233642 l 18.586,-25.828709 c 2.1093,-3.504625 3.9726,-6.783145 6.3164,-11.222337 h 0.3515 c -0.2343,3.971908 -0.3515,7.951354 -0.3515,11.923262 v 25.361426 z m 0,0" style="fill:#9f9fa0;fill-opacity:1;fill-rule:nonzero;stroke:none" aria-label="IN THEATEAS AUGUST 14" transform="matrix(1.3333333,0,0,2.0731534,807.2936,2571.7388)" />
      </g></svg>