<?xml version='1.0' encoding='utf-8'?>
<svg xmlns="http://www.w3.org/2000/svg" version="1.1" width="435.851" height="498.620" viewBox="1886.960 3606.260 435.851 498.620"><g id="object"><path id="path9" d="m 0,0 h 92.041 v -131.427 c 48.229,-12.54 86.223,13.211 92.343,61.543 2.856,22.559 3.482,45.401 5.233,69.689 h 94.965 c 21.417,-67.759 -7.947,-150.966 -65.321,-188.424 32.744,-53.942 65.532,-107.766 97.908,-161.838 1.7,-2.839 -0.109,-7.78 -0.396,-14.264 -33.953,0 -67.17,-0.915 -100.25,0.797 -6.375,0.329 -13.861,9.975 -18.026,16.991 -19.534,32.907 -39.756,65.588 -56.395,99.966 -10.832,22.378 -25.024,26.881 -48.568,19.084 V -362.908 H 0 Z" style="fill:#231916;fill-opacity:1;fill-rule:nonzero;stroke:none" transform="matrix(1.3333333,0,0,-1.3333333,1892.9621,3612.2557)" />
      </g></svg>