<?xml version='1.0' encoding='utf-8'?>
<svg xmlns="http://www.w3.org/2000/svg" version="1.1" width="220.420" height="102.423" viewBox="2126.230 3955.070 220.420 102.423"><g id="object"><path id="path33" d="m 0,0 c -3.858,-6.428 -2.255,-12.546 -4.445,-17.769 -0.655,-1.563 -1.356,-3.955 0.908,-5.05 2.152,-1.041 4.674,-1.339 6.813,0.015 2.258,1.428 1.468,3.425 0.826,5.638 C 2.604,-11.999 1.565,-6.699 0,0 m -37.245,-44.866 c -2.846,0.131 -3.791,0.186 -4.736,0.215 -11.741,0.364 -11.243,0.377 -11.57,12.25 -0.446,16.203 -0.553,32.384 -0.162,48.585 0.132,5.445 2.611,7.31 7.562,6.284 4.966,-1.029 9.901,0.199 14.841,-0.165 3.265,-0.241 5.615,-1.252 4.587,-5.274 -0.835,-3.266 -0.306,-7.792 -5.847,-6.823 -4.378,0.765 -8.706,1.199 -7.975,-5.044 0.558,-4.764 -0.994,-12.269 8.421,-9.923 3.027,0.754 3.933,-1.159 3.762,-3.557 -0.25,-3.505 1.117,-8.316 -4.747,-8.508 -5.512,-0.181 -7.608,-3.116 -7.484,-8.143 0.096,-3.873 1.326,-6.779 5.943,-7.375 2.848,-0.366 6.408,-0.212 7.523,-4.08 0.596,-2.067 1.228,-4.58 3.702,-4.506 2.983,0.09 3.27,3.213 3.766,5.325 2.702,11.498 5.177,23.049 7.691,34.59 1.203,5.519 2.817,11.011 3.34,16.6 0.551,5.89 4.295,6.782 8.762,6.921 4.309,0.134 7.119,-0.96 8.366,-6.315 4.155,-17.832 9.344,-35.421 12.732,-53.446 0.475,-2.523 3.148,-6.404 -0.938,-6.858 -3.65,-0.406 -9.079,-3.223 -11.581,3.162 -1.534,3.913 -3.31,7.936 -8.887,7.659 -3.446,-0.172 -6.437,-1.069 -6.97,-4.637 -0.871,-5.832 -4.333,-7.804 -9.35,-6.356 -7.711,2.224 -15.095,-1.402 -20.751,-0.581" style="fill:#494f57;fill-opacity:1;fill-rule:nonzero;stroke:none" transform="matrix(1.3333333,0,0,-1.3333333,2204.1668,3991.3912)" />
      <path id="path50" d="m 0,0 c 0,-8.965 -0.428,-17.958 0.143,-26.887 0.415,-6.494 -3.694,-5.902 -7.645,-6.304 -4.768,-0.486 -6.267,1.931 -6.131,6.338 0.167,5.432 0.024,10.874 -0.01,16.312 -0.039,6.127 -4.481,5.445 -8.541,5.653 -4.533,0.232 -5.865,-1.774 -5.171,-6.036 0.991,-6.076 -1.594,-12.131 -0.071,-18.329 0.705,-2.867 -1.512,-4.393 -4.41,-3.817 -3.035,0.604 -7.247,-1.881 -8.359,3.884 -2.027,10.5 -1.749,20.798 -0.299,31.389 1.067,7.799 0.343,15.949 -0.454,23.855 -0.425,4.206 -0.604,7.231 4.388,7.542 4.358,0.272 9.033,0.454 7.956,-6.334 -0.713,-4.49 1.591,-8.865 0.488,-13.389 -0.883,-3.618 0.338,-6.905 4.211,-6.305 3.781,0.585 10.094,-1.565 10.448,5.384 0.237,4.66 0.402,9.412 -0.726,14.101 -1.215,5.046 1.767,6.853 6.241,7.025 4.01,0.153 7.627,0.1 7.461,-5.719 C -0.751,18.916 -0.554,9.456 -0.554,0.001 -0.37,0.001 -0.185,0.001 0,0" style="fill:#494f57;fill-opacity:1;fill-rule:nonzero;stroke:none" transform="matrix(1.3333333,0,0,-1.3333333,2340.4249,4006.7635)" />
      <path id="path175" d="m 0,0 c 3.541,0 7.093,-0.181 10.62,0.047 4.191,0.271 5.994,-1.886 6.667,-5.636 0.763,-4.253 -1.831,-5.137 -5.241,-5.772 -8.117,-1.513 -5.852,-8.953 -5.489,-13.105 1.065,-12.165 -0.299,-24.318 0.85,-36.423 0.321,-3.383 -0.937,-5.581 -4.626,-5.589 -3.738,-0.009 -8.038,-0.696 -8.21,5.064 -0.238,8.012 -0.471,16.026 -0.577,24.04 -0.087,6.604 -0.19,13.219 0.105,19.812 0.193,4.293 -1.053,6.767 -5.635,7.151 -3.567,0.299 -5.575,2.143 -5.212,6.077 0.377,4.078 3.167,4.014 6.142,3.957 3.534,-0.069 7.071,-0.017 10.607,-0.017 C 0.001,-0.262 0,-0.131 0,0" style="fill:#494f57;fill-opacity:1;fill-rule:nonzero;stroke:none" transform="matrix(1.3333333,0,0,-1.3333333,2254.0481,3962.032)" />
      </g></svg>