<?xml version='1.0' encoding='utf-8'?>
<svg xmlns="http://www.w3.org/2000/svg" version="1.1" width="212.625" height="108.640" viewBox="1020.440 3576.790 212.625 108.640"><defs id="defs1"><clipPath clipPathUnits="userSpaceOnUse" id="clipPath15">
      <path d="M -2112.3133,3347.3976 H 271.62681 V -22.992476 H -2112.3133 Z" id="path15" />
    </clipPath>
  </defs><g id="object"><path id="path17" d="m 0,0 c 0.254,-0.262 0.563,-0.376 0.926,-0.342 1.767,-5.909 7.923,-7.312 11.525,-11.261 7.604,-8.337 12.955,-18.302 18.44,-28.057 2.304,-4.097 3.085,-9.088 4.32,-13.736 0.893,-3.364 -1.505,-5.544 -4,-6.524 -2.817,-1.106 -2.862,2.297 -4.003,3.817 -1.743,2.324 -3.384,4.725 -5.069,7.093 0,0 -0.247,0.292 -0.247,0.291 -3.007,5.892 -7.902,9.915 -13.03,13.904 -14.146,11.008 -29.514,18.565 -47.555,21.333 -10.349,1.587 -20.087,1.086 -30.381,-0.019 -15.01,-1.611 -27.606,-7.337 -39.321,-16.171 -1.461,-1.102 -3.127,-3.818 -5.372,-1.811 -1.652,1.477 -1.631,4.205 -0.49,5.979 6.894,10.716 15.186,20.057 26.56,26.331 9.286,5.122 19.33,7.381 29.541,10.005 14.149,3.634 26.648,0.061 39.591,-3.84 C -12.207,5.076 -7.054,0.015 0,0" style="fill:#231916;fill-opacity:1;fill-rule:nonzero;stroke:none" transform="matrix(1.3333333,0,0,-1.3333333,1179.8629,3599.2443)" />
    </g></svg>