<?xml version='1.0' encoding='utf-8'?>
<svg xmlns="http://www.w3.org/2000/svg" version="1.1" width="3113.383" height="4398.983" viewBox="55.702 51.897 3113.383 4398.983"><defs id="defs1"><clipPath clipPathUnits="userSpaceOnUse" id="clipPath23">
      <path d="M 0,3370.3901 H 2383.9401 V -2.5000001e-5 H 0 Z" id="path23" />
    </clipPath>
  </defs><g id="object"><path id="path2" d="m 0,0 c -0.016,-65.795 -0.031,-131.59 -0.046,-197.385 -4.994,0.212 -9.988,0.609 -14.982,0.609 -215.157,0.004 -430.314,-0.112 -645.471,-0.007 -73.92,0.036 -147.84,0.614 -221.76,0.945 -0.191,9.989 0.265,20.041 -0.697,29.956 -2.601,26.825 -1.778,54.004 -0.091,80.435 2.997,46.972 -2.178,93.688 0.321,140.556 1.548,29.041 -4.569,58.683 -1.328,87.387 3.426,30.355 -2.626,60.354 1.395,90.38 0.34,2.544 -2.674,2.991 -5.067,2.326 -74.003,-0.196 -148.006,-0.551 -222.009,-0.561 -362.833,-0.048 -725.665,0.02 -1088.498,-0.213 -5.76,-0.004 -13.5,4.314 -17.467,-4.328 -6.708,-4.637 -5.282,-11.712 -5.309,-18.241 -0.1,-24.883 -0.068,-49.767 -0.081,-74.65 -0.06,-111.455 -0.118,-222.91 -0.176,-334.365 l 0.483,-1.049 c -33.5,-2.429 -66.341,-9.443 -99.493,-14.29 -0.357,16.679 -1.025,33.358 -1.026,50.038 -0.068,717.525 -0.075,1435.05 -0.091,2152.575 0,23.909 0,23.933 23.172,23.936 124.69,0.018 249.38,0.027 374.071,0.029 632.77,0.012 1265.541,0.021 1898.312,0.025 25.906,0 25.903,-0.029 25.901,-26.28 C 0.045,1652.166 0.03,1316.504 -0.014,980.842 c -10e-4,-6.674 -0.349,-13.348 -0.535,-20.022 -6.164,2.27 -12.28,4.683 -18.501,6.784 -28.471,9.612 -55.163,24.023 -84.499,31.293 -0.012,138.514 -0.024,277.029 -0.04,415.543 -0.001,4.45 0.015,8.901 -0.078,13.349 -0.114,5.492 -2.103,9.637 -7.92,11.244 -35.923,9.922 -69.753,25.547 -104.554,38.522 -67.577,25.195 -135.05,50.67 -202.549,76.073 -49.776,18.733 -99.527,37.536 -149.289,56.308 -36.551,-6.974 -71.453,-19.802 -107.08,-30.067 -47.926,-13.809 -96.132,-26.664 -143.93,-40.894 -35.571,-10.59 -71.178,-21.372 -106.903,-31.081 -32.433,-8.815 -64.635,-18.563 -97.047,-27.457 -58.099,-15.942 -115.654,-33.859 -173.506,-50.711 -61.64,-17.955 -123.314,-35.796 -185.103,-53.223 -7.809,-2.202 -11.817,-5.68 -11.32,-13.604 1.571,-25.051 -3.331,-49.856 -3.096,-74.777 0.633,-67.215 0.711,-134.453 1.617,-201.653 0.562,-41.693 -0.348,-83.908 -1.095,-125.841 -0.637,-35.756 -0.293,-71.628 -0.231,-107.442 0.116,-66.644 -2.461,-133.278 2.036,-200.006 2.689,-39.91 -1.327,-80.284 -2.554,-120.443 -0.96,-31.401 2.29,-62.735 0.66,-94.219 -0.553,-10.685 -3.476,-25.742 12.688,-31.119 1.223,-4.127 4.479,-5.293 8.166,-7.044 26.17,-12.429 55.149,-15.195 82.369,-24.734 57.866,-20.278 117.502,-35.572 176.591,-52.276 67.342,-19.036 134.615,-38.358 201.886,-57.598 C -679.321,198.672 -445.46,129.33 -211.314,60.979 -140.94,40.436 -70.441,20.315 0,0" style="fill:#cfc5bb;fill-opacity:1;fill-rule:nonzero;stroke:none" transform="matrix(1.3333333,0,0,-1.3333333,3157.6579,2743.3739)" />
      <path id="path3" d="m 0,0 c -51.136,0.551 -102.363,1.524 -153.398,0.858 -188.628,-2.462 -377.242,-0.8 -565.855,-0.982 -526.521,-0.507 -1053.042,-0.186 -1579.562,-0.247 -7.668,-0.001 -15.696,1.64 -22.654,-3.403 0.046,157.873 0.025,315.745 0.351,473.616 0.015,7.362 -3.086,14.901 0.446,22.203 33.153,4.845 65.994,11.86 99.493,14.289 -10e-4,-106.044 -0.062,-212.088 0.14,-318.132 0.013,-6.528 -3.543,-15.051 6.388,-18.459 4.498,-4.854 10.385,-3.057 15.758,-3.058 432.348,-0.101 864.696,-0.06 1297.043,-0.503 15.512,-0.016 19.637,4.486 19.555,19.732 -0.576,107.231 -0.25,214.467 -0.212,321.701 l -0.148,1.086 c 73.92,-0.331 147.84,-0.909 221.76,-0.945 215.157,-0.105 430.314,0.011 645.471,0.007 4.994,0 9.988,-0.397 14.982,-0.609 0.25,-32.219 0.501,-64.438 0.751,-96.657 0.01,-1.125 0.02,-2.25 0.029,-3.375 C 0.381,301.354 0.423,195.585 0.466,89.817 0.445,88.695 0.424,87.572 0.403,86.449 0.269,57.633 0.134,28.816 0,0" style="fill:#7a664f;fill-opacity:1;fill-rule:nonzero;stroke:none" transform="matrix(1.3333333,0,0,-1.3333333,3158.1852,3682.7587)" />
      <path id="path4" d="m 0,0 c -70.441,20.315 -140.94,40.436 -211.314,60.979 -234.146,68.351 -468.007,137.693 -702.517,204.768 -67.271,19.24 -134.544,38.562 -201.886,57.598 -59.089,16.704 -118.725,31.998 -176.591,52.276 -27.22,9.539 -56.199,12.305 -82.369,24.734 -3.687,1.751 -6.943,2.917 -8.166,7.044 27.407,2.731 54.909,0.517 82.482,3.173 44.734,4.308 89.835,4.784 134.778,6.934 193.647,9.264 387.292,18.547 580.938,27.823 56.675,-1.031 112.926,-7.996 169.349,-12.424 98.597,-7.738 197.13,-16.333 295.624,-25.29 13.947,-1.268 16.509,3.104 16.482,15.932 -0.397,191.783 -0.322,383.567 -0.359,575.35 29.336,-7.27 56.028,-21.681 84.499,-31.293 6.221,-2.101 12.337,-4.514 18.501,-6.784 C -0.252,906.352 0.28,851.884 0.303,797.416 0.415,533.828 0.391,270.24 0.397,6.652 0.397,4.435 0.138,2.217 0,0" style="fill:#48392b;fill-opacity:1;fill-rule:nonzero;stroke:none" transform="matrix(1.3333333,0,0,-1.3333333,3157.6579,2743.3739)" />
      <path id="path5" d="M 0,0 C -0.148,11.259 -0.295,22.519 -0.443,33.778 3.682,22.57 2.786,11.297 0,0" style="fill:#b3ac9e;fill-opacity:1;fill-rule:nonzero;stroke:none" transform="matrix(1.3333333,0,0,-1.3333333,3159.9196,3727.9407)" />
      <path id="path6" d="M 0,0 C -1.626,4.491 -1.539,9.004 -0.177,13.534 2.528,9.057 2.422,4.544 0,0" style="fill:#b3ac9e;fill-opacity:1;fill-rule:nonzero;stroke:none" transform="matrix(1.3333333,0,0,-1.3333333,3160.1807,3754.6111)" />
      <path id="path9" d="m 0,0 c -9.933,3.408 -6.377,11.932 -6.389,18.459 -0.203,106.044 -0.142,212.088 -0.14,318.132 0,0 -0.483,1.049 -0.483,1.049 10.402,-1.826 20.954,-3.057 31.166,-5.632 12.284,-3.099 15.318,1.568 15.287,13.305 -0.331,125.768 -0.252,251.537 -0.324,377.306 -0.002,4.884 1.039,10.069 -3.94,13.699 -12.517,9.126 -22.706,21.238 -36.623,28.578 3.967,8.642 11.707,4.324 17.467,4.328 362.833,0.233 725.665,0.164 1088.498,0.213 74.003,0.01 148.006,0.365 222.008,0.561 0.353,-7.4 -6.091,-10.443 -10.305,-14.048 -16.849,-14.416 -21.466,-31.778 -21.277,-53.973 1.019,-119.225 0.31,-238.465 0.198,-357.7 -3.498,-4.433 -2.96,-8.903 -0.123,-13.395 0.357,-2.111 0.715,-4.223 1.072,-6.334 -0.12,-94.011 -0.232,-188.021 -0.363,-282.031 C 1295.697,19.3 1295.669,19.369 1272.243,19.37 873.923,19.388 475.603,19.132 77.286,19.926 48.853,19.983 23.626,14.974 0,0" style="fill:#48392b;fill-opacity:1;fill-rule:nonzero;stroke:none" transform="matrix(1.3333333,0,0,-1.3333333,205.31893,3456.4349)" />
      <path id="path10" d="m 0,0 c -193.646,-9.276 -387.291,-18.559 -580.938,-27.822 -44.943,-2.15 -90.044,-2.626 -134.777,-6.935 -27.573,-2.656 -55.075,-0.441 -82.483,-3.173 -16.164,5.377 -13.241,20.434 -12.688,31.119 1.63,31.484 -1.62,62.818 -0.66,94.22 1.227,40.158 5.243,80.532 2.554,120.442 -4.496,66.728 -1.919,133.362 -2.035,200.006 -0.063,35.814 -0.407,71.686 0.23,107.442 0.748,41.933 1.657,84.148 1.095,125.841 -0.906,67.2 -0.983,134.439 -1.617,201.653 -0.235,24.922 4.667,49.726 3.096,74.778 -0.497,7.924 3.511,11.401 11.32,13.603 61.789,17.428 123.464,35.269 185.103,53.224 57.852,16.851 115.407,34.768 173.507,50.711 32.411,8.893 64.613,18.642 97.046,27.456 35.725,9.71 71.332,20.492 106.903,31.081 47.798,14.23 96.004,27.086 143.93,40.894 35.627,10.265 70.529,23.094 107.082,30.067 -0.938,-9.366 -2.684,-18.731 -2.697,-28.099 -0.167,-118.29 -0.067,-236.58 -0.067,-354.871 0,-253.572 -0.087,-507.144 0.2,-760.716 C 14.117,9.688 12.789,1.559 0,0" style="fill:#e2d9d2;fill-opacity:1;fill-rule:nonzero;stroke:none" transform="matrix(1.3333333,0,0,-1.3333333,2378.1311,2149.6021)" />
      <path id="path11" d="m 0,0 c 0.049,-237.56 0.101,-475.12 0.141,-712.679 0.005,-27.326 -0.025,-27.332 26.469,-30.915 1.651,-0.223 3.344,-0.131 4.993,-0.359 43.893,-6.095 87.825,-11.929 131.663,-18.402 46.56,-6.876 92.934,-15.067 139.57,-21.333 31.085,-4.177 33.076,-2.991 30.846,29.116 -3.377,48.623 0.327,97.198 -1.118,145.823 -0.947,31.862 1.375,64.331 1.315,96.501 -0.109,58.736 -3.173,117.718 -1.037,176.142 1.847,50.522 -4.367,100.681 -0.199,151.244 3.421,41.497 -0.145,83.629 -1.544,125.448 -1.496,44.735 5.067,89.467 -0.362,134.169 -28.676,10.263 -57.271,20.759 -86.044,30.743 -77.217,26.795 -154.55,53.254 -231.72,80.183 -9.486,3.311 -13.917,3.715 -13.779,-8.708 C -0.149,117.986 -0.201,58.992 0,0 m -86.664,-833.002 c 12.789,1.559 14.117,9.687 14.104,20.921 -0.287,253.571 -0.2,507.144 -0.2,760.716 0,118.29 -0.1,236.581 0.067,354.871 0.013,9.368 1.759,18.733 2.697,28.099 49.76,-18.772 99.511,-37.575 149.287,-56.308 67.5,-25.403 134.972,-50.878 202.549,-76.073 34.801,-12.975 68.632,-28.6 104.554,-38.522 5.817,-1.607 7.806,-5.752 7.92,-11.244 0.093,-4.448 0.077,-8.899 0.078,-13.349 0.016,-138.514 0.028,-277.029 0.04,-415.543 0.037,-191.784 -0.038,-383.567 0.359,-575.35 0.027,-12.828 -2.535,-17.2 -16.482,-15.932 -98.494,8.957 -197.027,17.552 -295.623,25.29 -56.424,4.428 -112.675,11.393 -169.35,12.424" style="fill:#b3ac9e;fill-opacity:1;fill-rule:nonzero;stroke:none" transform="matrix(1.3333333,0,0,-1.3333333,2493.6831,1038.9324)" />
      <path id="path12" d="m 0,0 c 13.917,-7.339 24.106,-19.452 36.622,-28.578 4.979,-3.63 3.938,-8.815 3.941,-13.698 0.071,-125.77 -0.007,-251.539 0.323,-377.307 0.031,-11.737 -3.003,-16.404 -15.286,-13.305 -10.213,2.575 -20.765,3.806 -31.166,5.632 0.058,111.455 0.116,222.91 0.175,334.365 0.014,24.883 -0.018,49.767 0.082,74.65 C -5.283,-11.712 -6.709,-4.637 0,0" style="fill:#b3ac9e;fill-opacity:1;fill-rule:nonzero;stroke:none" transform="matrix(1.3333333,0,0,-1.3333333,203.3916,2436.5737)" />
      <path id="path13" d="m 0,0 c 0.112,119.235 0.821,238.475 -0.197,357.701 -0.19,22.194 4.427,39.556 21.277,53.972 4.213,3.605 10.657,6.649 10.304,14.049 2.394,0.664 5.409,0.217 5.068,-2.327 -4.02,-30.026 2.032,-60.025 -1.395,-90.38 -3.24,-28.704 2.877,-58.346 1.328,-87.387 -2.498,-46.868 2.676,-93.584 -0.321,-140.556 -1.687,-26.431 -2.509,-53.61 0.092,-80.435 0.961,-9.915 0.505,-19.967 0.696,-29.956 0,0 0.148,-1.086 0.148,-1.086 -12.016,-4.442 -24.034,-8.883 -36.051,-13.324 -0.357,2.112 -0.714,4.223 -1.071,6.333 C 1.547,-8.946 1.1,-4.476 0,0" style="fill:#e2d9d2;fill-opacity:1;fill-rule:nonzero;stroke:none" transform="matrix(1.3333333,0,0,-1.3333333,1932.1757,2997.3991)" />
      <path id="path14" d="m 0,0 c 12.017,4.441 24.035,8.882 36.052,13.324 -0.039,-107.234 -0.365,-214.47 0.211,-321.701 0.082,-15.245 -4.043,-19.748 -19.555,-19.732 -432.347,0.444 -864.695,0.402 -1297.043,0.503 -5.373,0.002 -11.26,-1.796 -15.758,3.059 23.628,14.973 48.854,19.982 77.287,19.925 398.318,-0.793 796.638,-0.538 1194.957,-0.556 23.427,-10e-4 23.454,-0.07 23.486,23.147 C -0.232,-188.021 -0.119,-94.011 0,0" style="fill:#9f8b75;fill-opacity:1;fill-rule:nonzero;stroke:none" transform="matrix(1.3333333,0,0,-1.3333333,1933.4411,3023.7044)" />
      <path id="path15" d="M 0,0 C 1.1,-4.476 1.547,-8.946 -0.123,-13.396 -2.959,-8.903 -3.498,-4.433 0,0" style="fill:#7a664f;fill-opacity:1;fill-rule:nonzero;stroke:none" transform="matrix(1.3333333,0,0,-1.3333333,1932.1757,2997.3991)" />
      <path id="path16" d="m 0,0 c 5.428,-44.702 -1.135,-89.434 0.362,-134.169 1.399,-41.819 4.964,-83.951 1.544,-125.448 -4.169,-50.563 2.046,-100.723 0.198,-151.245 -2.135,-58.423 0.928,-117.405 1.038,-176.141 0.06,-32.17 -2.263,-64.64 -1.316,-96.501 1.446,-48.625 -2.258,-97.2 1.119,-145.823 2.23,-32.107 0.239,-33.293 -30.846,-29.116 -46.637,6.266 -93.011,14.457 -139.57,21.333 -43.838,6.473 -87.77,12.307 -131.664,18.401 -1.649,0.229 -3.342,0.137 -4.992,0.36 -26.494,3.583 -26.464,3.589 -26.469,30.914 -0.041,237.56 -0.093,475.12 -0.141,712.681 C -220.492,-49.835 -110.246,-24.918 0,0" style="fill:#9f8b75;fill-opacity:1;fill-rule:nonzero;stroke:none" transform="matrix(1.3333333,0,0,-1.3333333,2934.6664,939.25893)" />
      <path id="path17" d="m 0,0 c -110.246,-24.918 -220.492,-49.835 -330.737,-74.754 -0.201,58.991 -0.149,117.985 -0.806,176.972 -0.138,12.422 4.293,12.019 13.778,8.708 77.17,-26.929 154.504,-53.388 231.721,-80.183 C -57.272,20.759 -28.676,10.263 0,0" style="fill:#48392b;fill-opacity:1;fill-rule:nonzero;stroke:none" transform="matrix(1.3333333,0,0,-1.3333333,2934.6664,939.25893)" />
      <path id="path18" d="M 0,0 C -0.01,-4.861 -0.6,-9.826 -0.104,-14.598 -0.6,-9.826 -0.011,-4.861 -0.011,0 0.011,2.222 0.016,4.444 0.01,6.667 0.016,4.444 0.011,2.222 0,0 m -150.384,-0.345 c 4.162,-2.228 7.292,-5.268 8.858,-9.341 -1.569,4.076 -4.698,7.114 -8.858,9.341 m -42.169,-198.769 c -4.999,3.949 -7.499,5.925 -9.714,5.805 2.216,0.12 4.717,-1.854 9.717,-5.802 -10e-4,-0.001 -0.002,-0.002 -0.003,-0.003 M -297.16,-0.331 c 0.007,0.555 0.006,1.109 0.007,1.663 -10e-4,-0.554 0,-1.108 -0.004,-1.663 -0.034,-25.822 -0.034,-33.636 8.765,-35.712 -8.799,2.076 -8.8,9.89 -8.768,35.712 M 980.501,-240.29 c 0.022,7.757 0.044,15.514 0.067,23.271 0.572,4.34 1.642,8.678 1.645,13.018 0.09,121.628 0.091,243.256 -10e-4,364.884 -0.003,4.34 -1.087,8.679 -1.668,13.019 v 0.001 c 0.011,2.186 0.022,4.373 0.032,6.56 -1.626,4.49 -1.539,9.004 -0.177,13.534 l -0.019,6.468 c -0.147,11.26 -0.295,22.519 -0.443,33.778 0,0 -0.858,0.109 -0.858,0.109 -51.136,0.551 -102.363,1.524 -153.398,0.858 -188.627,-2.461 -377.241,-0.8 -565.855,-0.982 -526.52,-0.507 -1053.041,-0.186 -1579.562,-0.247 -7.668,-0.001 -15.695,1.64 -22.654,-3.403 -0.17,-185.57 -0.343,-371.141 -0.496,-556.712 0,-3.237 -0.629,-6.804 3.255,-8.615 6.221,-3.581 13.059,-2.151 19.625,-2.151 759.83,-0.065 1519.66,-0.062 2279.491,0.036 6.487,10e-4 13.408,-1.836 19.389,2.57 0.643,1.259 1.285,2.518 1.928,3.777 v 10e-4 c 2.248,30.083 2.914,60.161 -0.301,90.226" style="fill:#48392b;fill-opacity:1;fill-rule:nonzero;stroke:none" transform="matrix(1.3333333,0,0,-1.3333333,1852.7459,3995.2279)" />
      <path id="path19" d="m 73.241222,-0.00129531 h 9.410156 L 77.999034,-74.684889 H 65.706066 l -13.300782,36.128906 c -3.316406,9.410156 -5.976562,17.613281 -7.863281,25.148438 h -0.328125 c -1.886719,-7.757813 -4.441406,-15.960938 -7.535156,-25.148438 l -12.75,-36.128906 H 11.635753 L 6.4209094,-0.00129531 H 15.620128 L 17.612316,-32.01692 c 0.667968,-11.191407 1.21875,-23.71875 1.441406,-33.023438 h 0.222656 c 2.109375,8.859375 5.097656,18.503906 8.648438,29.027344 l 12.070312,35.56640619 h 7.3125 L 60.491222,-36.680983 c 3.773437,-10.300781 6.878906,-19.605469 9.421875,-28.359375 h 0.328125 c -0.105469,9.304688 0.5625,21.832031 1.113281,32.238281 z M 97.393566,-74.684889 v 43.992187 c 0,23.1562504 11.519534,31.9101567 26.812504,31.9101567 16.18359,0 28.2539,-9.421875 28.2539,-32.3554687 v -43.546875 h -9.75 v 44.214844 c 0,16.511718 -7.08984,23.8242184 -18.16406,23.8242184 -9.97266,0 -17.40234,-7.0898434 -17.40234,-23.8242184 v -44.214844 z m 68.030274,71.0273437 c 3.98437,2.66015624 11.85937,4.7695312 19.05469,4.7695312 17.625,0 26.15625,-9.9726562 26.15625,-21.5039059 0,-10.96875 -6.4336,-17.0625 -19.06641,-21.9375 -10.30078,-3.984375 -14.83594,-7.417969 -14.83594,-14.402344 0,-5.097656 3.86719,-11.191406 14.0625,-11.191406 6.76172,0 11.75391,2.214843 14.19141,3.550781 l 2.64844,-7.875 c -3.31641,-1.875 -8.85938,-3.65625 -16.5,-3.65625 -14.51953,0 -24.16407,8.648437 -24.16407,20.285156 0,10.523438 7.53516,16.839844 19.72266,21.152344 10.08984,3.878906 14.07422,7.875 14.07422,14.847656 0,7.535156 -5.75391,12.7500002 -15.62109,12.7500002 -6.64454,0 -12.96094,-2.2148438 -17.28516,-4.8750002 z m 97.06055,-39.3398437 h -29.02735 v -23.589844 h 30.69141 v -8.097656 h -40.32422 v 74.68359369 h 41.98828 V -8.0872328 H 233.45704 V -35.01692 h 29.02735 z m 15.73535,-31.6875 v 43.992187 c 0,23.1562504 11.51953,31.9101567 26.8125,31.9101567 16.18359,0 28.2539,-9.421875 28.2539,-32.3554687 v -43.546875 h -9.75 v 44.214844 c 0,16.511718 -7.08984,23.8242184 -18.16406,23.8242184 -9.97265,0 -17.40234,-7.0898434 -17.40234,-23.8242184 v -44.214844 z m 95.29687,74.46093744 c 4.875,0.55078125 10.62891,0.890625 17.4961,0.890625 14.51953,0 26.03906,-3.77343754 33.02343,-10.74609344 6.98438,-6.878907 10.7461,-16.851563 10.7461,-29.039063 0,-12.070312 -3.87891,-20.71875 -10.52344,-26.8125 -6.53906,-6.09375 -16.39453,-9.304687 -30.24609,-9.304687 -7.65235,0 -14.625,0.667968 -20.4961,1.546875 z m 9.63282,-66.36328144 c 2.55468,-0.5625 6.3164,-1.007812 11.30859,-1.007812 20.37891,0 30.35156,11.191406 30.24609,28.816406 0,20.167969 -11.1914,31.6874999 -31.80468,31.6874999 -3.76172,0 -7.3125,-0.1171875 -9.75,-0.5507812 z m 102.82031,23.589844 h -29.02735 v -23.589844 h 30.69141 v -8.097656 h -40.32422 v 74.68359369 h 41.98828 V -8.0872328 H 456.94239 V -35.01692 h 29.02735 z m 35.56933,39.3398437 c 3.98438,2.66015624 11.85938,4.7695312 19.05469,4.7695312 17.625,0 26.15625,-9.9726562 26.15625,-21.5039059 0,-10.96875 -6.43359,-17.0625 -19.06641,-21.9375 -10.30078,-3.984375 -14.83593,-7.417969 -14.83593,-14.402344 0,-5.097656 3.86718,-11.191406 14.0625,-11.191406 6.76172,0 11.7539,2.214843 14.1914,3.550781 l 2.64844,-7.875 c -3.31641,-1.875 -8.85937,-3.65625 -16.5,-3.65625 -14.51953,0 -24.16406,8.648437 -24.16406,20.285156 0,10.523438 7.53515,16.839844 19.72265,21.152344 10.08985,3.878906 14.07422,7.875 14.07422,14.847656 0,7.535156 -5.7539,12.7500002 -15.62109,12.7500002 -6.64453,0 -12.96094,-2.2148438 -17.28516,-4.8750002 z m 97.06055,-39.3398437 h -29.02734 v -23.589844 h 30.6914 v -8.097656 h -40.32422 v 74.68359369 h 41.98829 V -8.0872328 H 589.57228 V -35.01692 h 29.02734 z m 15.85254,42.99609369 h 9.63281 V -32.356764 h 9.08203 c 8.75391,0.339844 12.75,4.207031 14.96485,14.519531 2.10937,9.3046877 3.76172,15.7265627 4.98047,17.83593769 h 9.97265 c -1.54687,-2.88281249 -3.3164,-10.07812469 -5.7539,-20.49609369 -1.78125,-7.757813 -5.21485,-13.078125 -10.96875,-15.070313 v -0.328125 c 7.86328,-2.660156 14.0625,-9.199218 14.0625,-19.066406 0,-5.753906 -2.09766,-10.851562 -5.8711,-14.179687 -4.65234,-4.207032 -11.29687,-6.09375 -21.59765,-6.09375 -6.65625,0 -13.62891,0.550781 -18.50391,1.546875 z m 9.63281,-66.92578169 c 1.5586,-0.445312 4.875,-0.878906 9.52735,-0.878906 10.19531,0.105469 17.17968,4.3125 17.17968,13.957031 0,8.53125 -6.53906,14.179688 -16.83984,14.179688 h -9.86719 z m 49.98047,66.92578169 h 9.63281 V -32.356764 h 9.08203 c 8.75391,0.339844 12.75,4.207031 14.96485,14.519531 2.10937,9.3046877 3.76172,15.7265627 4.98047,17.83593769 h 9.97265 C 741.15138,-2.8841078 739.38185,-10.07942 736.94435,-20.497389 735.1631,-28.255202 731.7295,-33.575514 725.9756,-35.567702 v -0.328125 c 7.86328,-2.660156 14.0625,-9.199218 14.0625,-19.066406 0,-5.753906 -2.09766,-10.851562 -5.8711,-14.179687 -4.65234,-4.207032 -11.29687,-6.09375 -21.59765,-6.09375 -6.65625,0 -13.62891,0.550781 -18.50391,1.546875 z m 9.63281,-66.92578169 c 1.5586,-0.445312 4.875,-0.878906 9.52735,-0.878906 10.19531,0.105469 17.17968,4.3125 17.17968,13.957031 0,8.53125 -6.53906,14.179688 -16.83984,14.179688 h -9.86719 z m 89.08594,43.441407 7.98047,23.48437469 h 10.30078 L 785.57716,-74.684889 h -11.625 L 748.56935,-0.00129531 H 758.542 L 766.29982,-23.48567 Z m -24.49219,-7.535157 7.3125,-21.609375 c 1.44141,-4.546875 2.66016,-9.082031 3.77344,-13.523437 h 0.22266 c 1.10156,4.324219 2.21484,8.753906 3.8789,13.628906 l 7.3125,21.503906 z m 53.74805,31.01953169 h 41.54297 V -8.0872328 H 831.67286 V -74.684889 h -9.63281 z m 72.79688,0 26.69531,-74.68359369 h -10.30078 l -12.63282,36.902344 c -3.32812,9.75 -6.42187,19.171875 -8.53125,27.8085934 h -0.22265 c -1.99219,-8.7539064 -4.75781,-17.8359374 -7.98047,-27.9257814 l -11.625,-36.785156 H 859.8213 l 24.375,74.68359369 z M 968.28712,-42.997389 h -29.02734 v -23.589844 h 30.6914 v -8.097656 h -40.32422 v 74.68359369 h 41.98829 V -8.0872328 H 939.25978 V -35.01692 h 29.02734 z m 12.08203,39.3398437 c 3.98438,2.66015624 11.85938,4.7695312 19.05469,4.7695312 17.62496,0 26.15626,-9.9726562 26.15626,-21.5039059 0,-10.96875 -6.4336,-17.0625 -19.0664,-21.9375 -10.3008,-3.984375 -14.83595,-7.417969 -14.83595,-14.402344 0,-5.097656 3.86718,-11.191406 14.06245,-11.191406 6.7618,0 11.754,2.214843 14.1915,3.550781 l 2.6484,-7.875 c -3.3164,-1.875 -8.8594,-3.65625 -16.5,-3.65625 -14.51954,0 -24.16407,8.648437 -24.16407,20.285156 0,10.523438 7.53515,16.839844 19.72267,21.152344 10.0898,3.878906 14.0742,7.875 14.0742,14.847656 0,7.535156 -5.7539,12.7500002 -15.6211,12.7500002 -6.64452,0 -12.96093,-2.2148438 -17.28515,-4.8750002 z m 0,0" style="fill:#ffffff;fill-opacity:1;fill-rule:nonzero;stroke:none" aria-label="MUSEU DE SERRALVES" transform="matrix(1.3333333,0,0,1.3333333,1033.0716,4036.5681)" />
      <path id="path20" d="m 2.8713703,-0.0707125 c 1.0898438,0.140625 2.8242188,0.29296875 5.0976563,0.29296875 4.1484374,0 7.0195314,-0.75 8.7890624,-2.37890625 1.289063,-1.2421875 2.15625,-2.90625 2.15625,-5.0859375 0,-3.7851565 -2.835937,-5.7773435 -5.25,-6.3867185 v -0.07031 c 2.683594,-0.984375 4.300781,-3.140625 4.300781,-5.589844 0,-2.003906 -0.785156,-3.503906 -2.109375,-4.488281 -1.582031,-1.289062 -3.703125,-1.851562 -6.9843747,-1.851562 -2.3085937,0 -4.5703125,0.222656 -6,0.527343 z M 6.1526203,-22.8754 c 0.5273438,-0.117188 1.3945313,-0.222656 2.90625,-0.222656 3.3164067,0 5.5898437,1.171875 5.5898437,4.148437 0,2.449219 -2.039062,4.265625 -5.5195312,4.265625 H 6.1526203 Z m 0,10.6875 h 2.71875 c 3.5859377,0 6.5624997,1.429687 6.5624997,4.8984375 0,3.703125 -3.128906,4.9453125 -6.5273434,4.9453125 -1.171875,0 -2.109375,-0.035156 -2.7539063,-0.1523438 z m 14.7949217,-6.082031 6.761719,16.8398435 c 0.140625,0.4101562 0.222656,0.6796875 0.222656,0.8671875 0,0.1875 -0.117187,0.4453125 -0.269531,0.78515625 -0.75,1.69921875 -1.886719,2.98828125 -2.789063,3.70312495 -0.984375,0.8320313 -2.074218,1.359375 -2.90625,1.6171875 L 22.799105,8.34335 C 23.631136,8.1910062 25.248323,7.6285062 26.87723,6.1871 29.138948,4.2300687 30.756136,1.0191312 33.135042,-5.2504 l 4.992188,-13.019531 h -3.515625 l -3.621094,10.722656 c -0.457031,1.3242187 -0.832031,2.71875 -1.171875,3.8085937 h -0.08203 c -0.292969,-1.0898437 -0.75,-2.53125 -1.160157,-3.7382812 L 24.568636,-18.269931 Z m 0,0" style="fill:#ffffff;fill-opacity:1;fill-rule:nonzero;stroke:none" aria-label="By" transform="matrix(1.3333333,0,0,1.3333333,1724.9176,4152.2505)" />
      <path id="path21" d="m 24.270491,-12.130273 4.113281,12.12890581 h 5.332031 L 20.543928,-38.579492 h -6 L 1.4306469,-0.00136719 h 5.15625 L 10.594709,-12.130273 Z m -12.65625,-3.902344 3.785156,-11.15625 c 0.738281,-2.34375 1.371094,-4.6875 1.945312,-6.984375 h 0.117188 c 0.5625,2.238281 1.136719,4.523437 2.003906,7.042969 l 3.773438,11.097656 z m 27.761718,16.03124981 h 21.46875 V -4.1849609 H 44.356428 V -38.579492 h -4.980469 z m 37.608399,0 13.792969,-38.57812481 h -5.320313 l -6.527344,19.066406 c -1.722656,5.027344 -3.316406,9.8906251 -4.40625,14.3554688 h -0.117187 c -1.03125,-4.5117187 -2.460938,-9.2109378 -4.125,-14.4140628 l -6,-19.007812 h -5.378906 l 12.585937,38.57812481 z m 34.628902,-12.12890581 4.11329,12.12890581 h 5.33203 L 107.8867,-38.579492 h -6 L 88.77342,-0.00136719 h 5.15625 L 97.937483,-12.130273 Z m -12.656246,-3.902344 3.785156,-11.15625 c 0.73828,-2.34375 1.37109,-4.6875 1.94531,-6.984375 h 0.11719 c 0.5625,2.238281 1.13672,4.523437 2.00391,7.042969 l 3.77343,11.097656 z m 27.761716,16.03124981 h 4.98047 V -16.712305 h 4.69922 c 4.51172,0.175782 6.57422,2.167969 7.72266,7.5000003 1.08984,4.8046875 1.94531,8.1210938 2.57812,9.21093751 h 5.14453 c -0.79687,-1.48828121 -1.71093,-5.20312501 -2.97656,-10.59374981 -0.91406,-3.996094 -2.68359,-6.75 -5.66016,-7.78125 v -0.164063 c 4.06641,-1.382812 7.26563,-4.757812 7.26563,-9.84375 0,-2.976562 -1.08984,-5.613281 -3.03516,-7.335937 -2.40234,-2.167969 -5.83593,-3.140625 -11.15625,-3.140625 -3.43359,0 -7.04297,0.28125 -9.5625,0.796875 z M 131.6992,-34.57168 c 0.79688,-0.222656 2.51953,-0.457031 4.92188,-0.457031 5.26172,0.05859 8.87109,2.226563 8.87109,7.207031 0,4.40625 -3.375,7.335938 -8.69531,7.335938 h -5.09766 z m 41.61621,-4.640625 c -10.3125,0 -17.91797,8.015625 -17.91797,20.261719 0,11.6835938 7.14844,19.58203131 17.34375,19.58203131 9.84375,0 17.90625,-7.04296871 17.90625,-20.32031231 0,-11.449219 -6.80859,-19.523438 -17.33203,-19.523438 z m -0.23437,4.066407 c 8.29687,0 12.30469,8.015625 12.30469,15.679687 0,8.765625 -4.46485,16.0312501 -12.36329,16.0312501 -7.83984,0 -12.30468,-7.3828121 -12.30468,-15.6210941 0,-8.472656 4.125,-16.089843 12.36328,-16.089843 z m 34.22754,33.2578121 c 2.0625,1.37109371 6.1289,2.46093746 9.84375,2.46093746 9.10547,0 13.51172,-5.15624996 13.51172,-11.10937456 0,-5.660157 -3.31641,-8.8125 -9.84375,-11.332032 -5.32032,-2.0625 -7.67579,-3.832031 -7.67579,-7.441406 0,-2.625 2.00391,-5.777344 7.27735,-5.777344 3.48047,0 6.05859,1.148438 7.32422,1.828125 l 1.37109,-4.054687 c -1.72266,-0.972656 -4.58203,-1.898438 -8.53125,-1.898438 -7.5,0 -12.46875,4.464844 -12.46875,10.476563 0,5.4375 3.89063,8.707031 10.18359,10.933594 5.20313,2.003906 7.26563,4.066406 7.26563,7.675781 0,3.8906248 -2.97656,6.5742186 -8.07422,6.5742186 -3.43359,0 -6.69141,-1.1367188 -8.91797,-2.5195313 z m 30.16113,-36.6914061 v 38.57812481 h 4.98047 V -38.579492 Z m 11.05371,38.57812481 h 28.14844 V -4.1849609 h -21.57422 v -0.1640625 l 21.29297,-31.1953126 v -3.035156 h -26.03906 v 4.183594 h 19.57031 v 0.164062 l -21.39844,31.3125001 z m 54.19922,-12.12890581 4.11328,12.12890581 h 5.33203 L 298.99608,-38.579492 h -6 L 279.8828,-0.00136719 h 5.15625 l 4.00781,-12.12890581 z m -12.65625,-3.902344 3.78516,-11.15625 c 0.73828,-2.34375 1.37109,-4.6875 1.94531,-6.984375 h 0.11719 c 0.5625,2.238281 1.13671,4.523437 2.0039,7.042969 l 3.77344,11.097656 z m 0,0" style="fill:#ffffff;fill-opacity:1;fill-rule:nonzero;stroke:none" aria-label="ALVARO SIZA" transform="matrix(1.3333333,0,0,1.3333333,1557.7565,4252.9667)" />
      </g></svg>