<?xml version='1.0' encoding='utf-8'?>
<svg xmlns="http://www.w3.org/2000/svg" version="1.1" width="100.970" height="158.917" viewBox="338.593 2650.240 100.970 158.917"><g id="object"><path id="path77" d="m 0,0 c -0.432,0 -0.87,0.048 -1.294,-0.008 -4.977,-0.651 -11.73,2.729 -14.567,-2.213 -3.159,-5.505 -1.495,-12.608 -0.348,-18.989 0.407,-2.268 2.132,-3.68 4.218,-4.544 4.46,-1.848 9.216,-2.126 13.937,-2.685 5.988,-0.71 11.954,-1.622 17.912,-2.554 1.71,-0.267 3.543,-0.956 4.047,-2.773 1.518,-5.468 1.714,-11.058 0.362,-16.571 -0.198,-0.807 -2.033,-1.568 -3.185,-1.702 -1.681,-0.195 -3.44,0.126 -5.149,0.349 -17.546,2.291 -35.093,4.573 -52.629,6.94 -4.052,0.547 -5.195,1.96 -4.779,6.107 1.121,11.166 2.591,22.298 3.596,33.474 1.468,16.334 2.624,32.696 3.976,49.041 0.32,3.862 0.701,7.739 1.432,11.537 0.328,1.702 2.057,3.279 3.845,2.453 7.778,-3.592 16.051,-2.566 24.17,-3.015 1.725,-0.095 3.455,-0.118 5.175,-0.26 2.945,-0.244 4.758,-1.797 5.164,-4.783 0.233,-1.705 0.499,-3.425 0.51,-5.139 0.026,-3.688 -1.411,-5.552 -5.199,-6.1 -4.678,-0.678 -9.428,-0.847 -14.116,-1.465 -2.483,-0.327 -3.756,-2.037 -3.181,-4.586 3.112,-13.774 0.71,-14.267 15.92,-14.566 2.584,-0.051 5.175,-0.351 7.739,-0.702 7.557,-1.035 8.921,-2.55 9.056,-9.788 C 16.723,1.455 15.329,-0.004 9.063,-0.209 6.045,-0.307 3.021,-0.226 0,-0.226 0,-0.151 0,-0.075 0,0" style="fill:#494643;fill-opacity:1;fill-rule:nonzero;stroke:none" transform="matrix(1.3333333,0,0,-1.3333333,399.99987,2733.6901)" />
      </g></svg>