<?xml version='1.0' encoding='utf-8'?>
<svg xmlns="http://www.w3.org/2000/svg" version="1.1" width="113.352" height="198.826" viewBox="2746.350 1287.560 113.352 198.826"><defs id="defs1"><clipPath clipPathUnits="userSpaceOnUse" id="clipPath59">
      <path d="M 0,3370.3901 H 2383.9401 V -2.5000001e-5 H 0 Z" id="path59" />
    </clipPath>
  </defs><g id="object"><path id="path22" d="m 0,0 c 28.347,0.752 42.732,-25.179 35.115,-52.576 -9.18,-33.015 -28.062,-57.877 -52.807,-79.557 -4.611,-4.04 -9.234,-13.013 -17.418,-4.277 -8.537,9.112 -0.704,13.51 5.174,18.968 5.784,5.371 11.818,10.886 16.044,17.433 8.616,13.348 18.583,26.114 -5.916,36.516 -15.133,6.426 -18.749,22.951 -13.713,39.094 C -28.365,-7.871 -15.28,-1.458 0,0" style="fill:#ffffff;fill-opacity:1;fill-rule:nonzero;stroke:none" transform="matrix(1.3333333,0,0,-1.3333333,2804.1856,1293.5825)" />
      </g></svg>