<?xml version='1.0' encoding='utf-8'?>
<svg xmlns="http://www.w3.org/2000/svg" version="1.1" width="345.745" height="200.488" viewBox="1760.310 305.570 345.745 200.488"><g id="object"><path id="path26" d="m 0,0 c 9.816,2.596 9.844,10.495 12.042,17.064 2.08,6.218 5.341,12.193 12.455,12.747 7.594,0.591 11.206,-5.78 12.813,-11.778 2.061,-7.693 2.856,-18.272 12.008,-17.642 12.505,0.86 6.881,13.536 8.794,21.113 1.533,6.073 1.785,12.465 2.678,18.704 1.474,10.297 4.453,16.722 13.401,4.544 2.431,-3.308 4.317,-7.749 7.915,-1.629 3.89,6.616 9.342,9.473 15.53,5.037 6.431,-4.611 -1.495,-9.686 -1.464,-14.817 C 96.237,22.277 95.288,11.188 95.707,0.146 96.03,-8.347 90.889,-14.42 85.265,-9.157 73.6,1.761 68.756,-5.649 60.325,-12.775 45.135,-25.614 35.817,-6.776 24.054,-4.902 14.663,-3.406 7.775,-27.504 -8.584,-18.99 c -12.305,6.405 -14.702,19.888 -15.515,32.719 -0.696,10.963 -0.441,21.995 -0.354,32.995 0.048,6.058 -1.64,14.371 7.754,14.22 9.941,-0.16 10.112,-9.23 9.703,-16.028 C -7.937,29.26 -8.711,13.92 0,0" style="fill:#e6e5e5;fill-opacity:1;fill-rule:nonzero;stroke:none" transform="matrix(1.3333333,0,0,-1.3333333,1799.0752,427.9008)" />
      <path id="path52" d="m 0,0 c 25.226,8.086 33.752,22.941 30.81,45.76 -0.765,5.926 -0.049,13.958 9.446,12.621 10.823,-1.524 5.055,-9.974 4.468,-15.002 C 42.781,26.739 33.211,6.488 65.048,10.887 63.99,7.867 63.534,5.176 62.97,5.153 37.253,4.119 37.456,-13.278 39.463,-31.813 c 1.442,-13.313 3.125,-26.603 4.352,-39.934 0.465,-5.059 -1.598,-10.559 -6.728,-11.05 -6.177,-0.591 -6.366,5.377 -6.794,10.158 -1.333,14.899 -4.235,29.832 -3.794,44.67 C 27.015,-10.591 25.739,2.808 0,0" style="fill:#e6e5e5;fill-opacity:1;fill-rule:nonzero;stroke:none" transform="matrix(1.3333333,0,0,-1.3333333,1936.4744,389.60787)" />
      <path id="path73" d="m 0,0 c 6.778,-13.194 0.078,-27.742 5.426,-40.695 8.189,-2.703 9.114,5.269 13.367,7.875 11.382,6.975 17.678,4.466 18.974,-9.203 1.427,-15.052 -4.651,-30.166 5.578,-49.765 -24.757,14.009 -8.522,34.348 -18.123,47.034 -15.592,0.207 -10.073,-15.468 -16.441,-22.238 -4.03,-4.285 -5.404,-13.023 -13.746,-9.557 -6.291,2.613 -5.449,9.722 -3.913,14.728 C -2.703,-41.7 -11.257,-19.804 0,0" style="fill:#e6e5e5;fill-opacity:1;fill-rule:nonzero;stroke:none" transform="matrix(1.3333333,0,0,-1.3333333,2042.2657,335.82013)" />
      </g></svg>