<?xml version='1.0' encoding='utf-8'?>
<svg xmlns="http://www.w3.org/2000/svg" version="1.1" width="595.994" height="78.300" viewBox="360.681 361.921 595.994 78.300"><defs id="defs1"><clipPath clipPathUnits="userSpaceOnUse" id="clipPath59">
      <path d="M 0,3370.3901 H 2383.9401 V -2.5000001e-5 H 0 Z" id="path59" />
    </clipPath>
  </defs><g id="object"><path id="path34" d="m 14.484169,-15.574597 c 0,8.9414064 -3.105469,11.3085939 -8.3906252,11.3085939 -1.96875,0 -3.7265625,-0.4101563 -4.9453125,-0.8789063 L 0.269325,-0.34022188 c 1.4882813,0.609375 4.1367188,1.08984375 6.2929688,1.08984375 7.8632812,0 13.8164062,-3.72656247 13.8164062,-15.84374987 V -45.633191 H 14.484169 Z M 53.835731,-26.273816 H 36.093544 v -14.425781 h 18.75 v -4.933594 H 30.199013 V -3.78125e-4 H 55.863075 V -4.9456906 H 36.093544 V -21.398816 h 17.742187 z m 33.246094,11.917969 4.875,14.355468875 h 6.292969 L 82.675575,-45.633191 H 75.574013 L 60.058388,-3.78125e-4 h 6.09375 L 70.898231,-14.355847 Z m -14.964844,-4.605469 4.464844,-13.207031 c 0.878906,-2.765625 1.628906,-5.542969 2.308594,-8.25 h 0.128906 c 0.679688,2.636719 1.359375,5.34375 2.378906,8.320313 l 4.464844,13.136718 z M 110.51347,-3.78125e-4 V -19.500378 c 0,-7.582031 -0.14063,-13.066406 -0.48047,-18.820313 l 0.21093,-0.07031 c 2.29688,4.945312 5.34375,10.160156 8.53125,15.234375 l 14.48438,23.156249875 h 5.96484 V -45.633191 h -5.55468 v 19.089844 c 0,7.113281 0.14062,12.667969 0.67968,18.7617189 l -0.14062,0.058594 c -2.16797,-4.6640629 -4.80469,-9.4804689 -8.19141,-14.8242189 l -14.625,-23.085938 h -6.43359 V -3.78125e-4 Z m 53.35839,-0.140625005 c 2.97657,0.33984375 6.50391,0.55078125 10.69922,0.55078125 8.8711,0 15.91407,-2.30859372 20.17969,-6.57421872 4.26563,-4.1953124 6.5625,-10.2890624 6.5625,-17.7421874 0,-7.371094 -2.36719,-12.65625 -6.43359,-16.382813 -3.98438,-3.726562 -10.01953,-5.683593 -18.48047,-5.683593 -4.67578,0 -8.94141,0.398437 -12.52735,0.949218 z M 169.7664,-40.699597 c 1.55859,-0.328125 3.85546,-0.609375 6.90234,-0.609375 12.45703,0 18.55078,6.84375 18.49219,17.613281 0,12.316407 -6.84375,19.3593754 -19.44141,19.3593754 -2.29687,0 -4.46484,-0.070312 -5.95312,-0.3398438 z m 39.13476,-4.933594 v 26.871094 c 0,14.1562501 7.04297,19.51171887 16.39453,19.51171887 9.87891,0 17.26172,-5.76562497 17.26172,-19.78124987 v -26.601563 h -5.95312 v 27.011719 c 0,10.0898439 -4.33594,14.5546876 -11.10938,14.5546876 -6.09375,0 -10.62891,-4.3242187 -10.62891,-14.5546876 v -27.011719 z m 53.22363,30.058594 c 0,8.9414064 -3.10546,11.3085939 -8.39062,11.3085939 -1.96875,0 -3.72656,-0.4101563 -4.94531,-0.8789063 l -0.87891,4.80468752 c 1.48828,0.609375 4.13672,1.08984375 6.29297,1.08984375 7.86328,0 13.81641,-3.72656247 13.81641,-15.84374987 v -30.539063 h -5.89454 z m 39.28125,1.21875 4.875,14.355468875 h 6.29297 L 296.99979,-45.633191 h -7.10156 L 274.38261,-3.78125e-4 h 6.09375 L 285.22245,-14.355847 Z m -14.96484,-4.605469 4.46484,-13.207031 c 0.87891,-2.765625 1.62891,-5.542969 2.3086,-8.25 h 0.1289 c 0.67969,2.636719 1.35938,5.34375 2.37891,8.320313 l 4.46484,13.136718 z m 32.83887,18.960937875 h 5.89453 V -19.769909 h 5.55469 c 5.34375,0.199218 7.78125,2.566406 9.14062,8.871093 1.27734,5.6835941 2.29688,9.6093754 3.04688,10.898437875 h 6.09375 C 348.06132,-1.7581906 346.97147,-6.1644406 345.48319,-12.527722 c -1.07812,-4.734375 -3.17578,-7.992187 -6.70312,-9.210937 v -0.199219 c 4.80468,-1.628906 8.60156,-5.625 8.60156,-11.648438 0,-3.515625 -1.28906,-6.632812 -3.58594,-8.660156 -2.84765,-2.578125 -6.91406,-3.726562 -13.20703,-3.726562 -4.06641,0 -8.33203,0.339843 -11.30859,0.949218 z M 325.1746,-40.898816 c 0.94922,-0.269531 2.97656,-0.539062 5.82422,-0.539062 6.22265,0.07031 10.48828,2.636719 10.48828,8.53125 0,5.214844 -3.9961,8.660156 -10.28906,8.660156 h -6.02344 z m 30.53906,40.75781287 c 2.97656,0.33984375 6.50391,0.55078125 10.69922,0.55078125 8.87109,0 15.91406,-2.30859372 20.17969,-6.57421872 4.26562,-4.1953124 6.5625,-10.2890624 6.5625,-17.7421874 0,-7.371094 -2.36719,-12.65625 -6.4336,-16.382813 -3.98437,-3.726562 -10.01953,-5.683593 -18.48047,-5.683593 -4.67578,0 -8.9414,0.398437 -12.52734,0.949218 z m 5.89453,-40.55859387 c 1.5586,-0.328125 3.85547,-0.609375 6.90235,-0.609375 12.45703,0 18.55078,6.84375 18.49218,17.613281 0,12.316407 -6.84375,19.3593754 -19.4414,19.3593754 -2.29688,0 -4.46485,-0.070312 -5.95313,-0.3398438 z M 406.36796,-3.78125e-4 V -19.500378 c 0,-7.582031 -0.14063,-13.066406 -0.48047,-18.820313 l 0.21094,-0.07031 c 2.29687,4.945312 5.34375,10.160156 8.53125,15.234375 l 14.48437,23.156249875 h 5.96485 V -45.633191 h -5.55469 v 19.089844 c 0,7.113281 0.14062,12.667969 0.67969,18.7617189 l -0.14063,0.058594 c -2.16797,-4.6640629 -4.80469,-9.4804689 -8.19141,-14.8242189 l -14.625,-23.085938 h -6.43359 V -3.78125e-4 Z m 0,0" style="fill:#ffffff;fill-opacity:1;fill-rule:nonzero;stroke:none" aria-label="JEAN DUJARDN" transform="matrix(1.3333333,0,0,1.3333333,368.5784,431.22707)" />
      <path id="path35" d="m 0,0 c 0,-8.938 -3.115,-11.309 -8.397,-11.309 -1.964,0 -3.724,0.407 -4.943,0.881 l -0.88,-4.808 c 1.49,-0.61 4.13,-1.084 6.297,-1.084 7.855,0 13.814,3.725 13.814,15.846 v 30.54 H 0 Z" style="fill:none;stroke:#ffffff;stroke-width:3;stroke-linecap:butt;stroke-linejoin:miter;stroke-miterlimit:10;stroke-dasharray:none;stroke-opacity:1" transform="matrix(1.3333333,0,0,-1.3333333,387.9,410.4608)" />
      <path id="path36" d="M 0,0 H -17.742 V 14.424 H 1.016 v 4.943 H -23.633 V -26.274 H 2.031 v 4.943 h -19.773 v 16.456 l 17.742,0 z" style="fill:none;stroke:#ffffff;stroke-width:3;stroke-linecap:butt;stroke-linejoin:miter;stroke-miterlimit:10;stroke-dasharray:none;stroke-opacity:1" transform="matrix(1.3333333,0,0,-1.3333333,440.35747,396.19507)" />
      <path id="path37" d="m 0,0 4.876,-14.356 h 6.298 L -4.401,31.285 h -7.111 l -15.507,-45.641 h 6.095 L -16.184,0 Z m -14.965,4.604 4.469,13.206 c 0.88,2.776 1.625,5.552 2.302,8.261 h 0.136 c 0.677,-2.641 1.354,-5.35 2.37,-8.329 L -1.219,4.604 Z" style="fill:none;stroke:#ffffff;stroke-width:3;stroke-linecap:butt;stroke-linejoin:miter;stroke-miterlimit:10;stroke-dasharray:none;stroke-opacity:1" transform="matrix(1.3333333,0,0,-1.3333333,484.68813,412.08573)" />
      <path id="path38" d="m 0,0 v 19.502 c 0,7.584 -0.135,13.07 -0.474,18.826 l 0.203,0.067 C 2.031,33.452 5.079,28.238 8.261,23.159 L 22.753,0 h 5.959 V 45.641 H 23.159 V 26.545 c 0,-7.11 0.135,-12.663 0.677,-18.757 L 23.701,7.72 c -2.167,4.672 -4.808,9.48 -8.194,14.83 L 0.88,45.641 H -5.553 V 0 Z" style="fill:none;stroke:#ffffff;stroke-width:3;stroke-linecap:butt;stroke-linejoin:miter;stroke-miterlimit:10;stroke-dasharray:none;stroke-opacity:1" transform="matrix(1.3333333,0,0,-1.3333333,515.928,431.22707)" />
      <path id="path39" d="m 0,0 c 2.979,-0.338 6.501,-0.542 10.699,-0.542 8.871,0 15.914,2.303 20.18,6.569 4.266,4.199 6.568,10.293 6.568,17.742 0,7.381 -2.37,12.663 -6.433,16.387 C 27.019,43.88 20.992,45.844 12.527,45.844 7.855,45.844 3.589,45.438 0,44.896 Z m 5.891,40.563 c 1.558,0.338 3.86,0.609 6.907,0.609 12.46,0 18.555,-6.839 18.487,-17.607 0,-12.324 -6.839,-19.366 -19.434,-19.366 -2.303,0 -4.47,0.067 -5.96,0.338 z" style="fill:none;stroke:#ffffff;stroke-width:3;stroke-linecap:butt;stroke-linejoin:miter;stroke-miterlimit:10;stroke-dasharray:none;stroke-opacity:1" transform="matrix(1.3333333,0,0,-1.3333333,587.07387,431.04667)" />
      <path id="path40" d="m 0,0 v -26.884 c 0,-14.153 7.042,-19.502 16.388,-19.502 9.886,0 17.267,5.756 17.267,19.773 V 0 h -5.959 v -27.019 c 0,-10.09 -4.334,-14.559 -11.105,-14.559 -6.095,0 -10.632,4.334 -10.632,14.559 L 5.959,0 Z" style="fill:none;stroke:#ffffff;stroke-width:3;stroke-linecap:butt;stroke-linejoin:miter;stroke-miterlimit:10;stroke-dasharray:none;stroke-opacity:1" transform="matrix(1.3333333,0,0,-1.3333333,647.11427,370.37227)" />
      <path id="path41" d="m 0,0 c 0,-8.938 -3.115,-11.309 -8.396,-11.309 -1.964,0 -3.725,0.407 -4.944,0.881 l -0.88,-4.808 c 1.49,-0.61 4.13,-1.084 6.297,-1.084 7.856,0 13.815,3.725 13.815,15.846 v 30.54 H 0 Z" style="fill:none;stroke:#ffffff;stroke-width:3;stroke-linecap:butt;stroke-linejoin:miter;stroke-miterlimit:10;stroke-dasharray:none;stroke-opacity:1" transform="matrix(1.3333333,0,0,-1.3333333,718.07973,410.4608)" />
      <path id="path42" d="m 0,0 4.875,-14.356 h 6.298 L -4.402,31.285 h -7.11 l -15.507,-45.641 h 6.095 L -16.185,0 Z m -14.965,4.604 4.469,13.206 c 0.88,2.776 1.625,5.552 2.302,8.261 h 0.135 c 0.678,-2.641 1.355,-5.35 2.371,-8.329 L -1.219,4.604 Z" style="fill:none;stroke:#ffffff;stroke-width:3;stroke-linecap:butt;stroke-linejoin:miter;stroke-miterlimit:10;stroke-dasharray:none;stroke-opacity:1" transform="matrix(1.3333333,0,0,-1.3333333,770.44693,412.08573)" />
      <path id="path43" d="m 0,0 h 5.891 v 19.773 h 5.553 C 16.793,19.57 19.231,17.2 20.586,10.902 21.873,5.214 22.888,1.287 23.633,0 h 6.095 c -0.949,1.761 -2.032,6.162 -3.522,12.527 -1.083,4.741 -3.183,7.991 -6.704,9.21 v 0.203 c 4.808,1.625 8.601,5.621 8.601,11.647 0,3.521 -1.287,6.637 -3.59,8.668 -2.844,2.573 -6.907,3.724 -13.204,3.724 -4.063,0 -8.33,-0.338 -11.309,-0.948 z m 5.891,40.901 c 0.948,0.27 2.98,0.541 5.824,0.541 6.23,-0.067 10.496,-2.64 10.496,-8.532 0,-5.214 -3.995,-8.667 -10.293,-8.667 H 5.891 Z" style="fill:none;stroke:#ffffff;stroke-width:3;stroke-linecap:butt;stroke-linejoin:miter;stroke-miterlimit:10;stroke-dasharray:none;stroke-opacity:1" transform="matrix(1.3333333,0,0,-1.3333333,794.28293,431.22707)" />
      <path id="path44" d="m 0,0 c 2.979,-0.338 6.501,-0.542 10.699,-0.542 8.871,0 15.914,2.303 20.18,6.569 4.266,4.199 6.568,10.293 6.568,17.742 0,7.381 -2.37,12.663 -6.433,16.387 C 27.019,43.88 20.992,45.844 12.527,45.844 7.855,45.844 3.589,45.438 0,44.896 Z m 5.891,40.563 c 1.558,0.338 3.86,0.609 6.907,0.609 12.46,0 18.555,-6.839 18.487,-17.607 0,-12.324 -6.839,-19.366 -19.434,-19.366 -2.303,0 -4.47,0.067 -5.96,0.338 z" style="fill:none;stroke:#ffffff;stroke-width:3;stroke-linecap:butt;stroke-linejoin:miter;stroke-miterlimit:10;stroke-dasharray:none;stroke-opacity:1" transform="matrix(1.3333333,0,0,-1.3333333,842.85773,431.04667)" />
      <path id="path45" d="m 0,0 v 19.502 c 0,7.584 -0.135,13.07 -0.474,18.826 l 0.203,0.067 C 2.031,33.452 5.079,28.238 8.261,23.159 L 22.753,0 h 5.959 V 45.641 H 23.159 V 26.545 c 0,-7.11 0.135,-12.663 0.677,-18.757 L 23.701,7.72 c -2.167,4.672 -4.808,9.48 -8.194,14.83 L 0.88,45.641 H -5.553 V 0 Z" style="fill:none;stroke:#ffffff;stroke-width:3;stroke-linecap:butt;stroke-linejoin:miter;stroke-miterlimit:10;stroke-dasharray:none;stroke-opacity:1" transform="matrix(1.3333333,0,0,-1.3333333,910.39227,431.22707)" />
      </g></svg>