<?xml version='1.0' encoding='utf-8'?>
<svg xmlns="http://www.w3.org/2000/svg" version="1.1" width="41.242" height="155.577" viewBox="140.559 2651.640 41.242 155.577"><g id="object"><path id="path198" d="m 0,0 c -1.656,-21.455 -3.246,-42.916 -5.004,-64.363 -0.577,-7.038 -3.099,-8.695 -10.297,-7.694 -2.575,0.359 -3.889,1.813 -4.034,4.197 -0.498,8.16 -1.728,16.395 -1.107,24.48 1.517,19.745 0.895,39.662 4.492,59.242 0.778,4.234 1.488,8.503 2.65,12.638 1.579,5.623 6.007,7.792 12.135,6.495 C 0.406,34.663 0.987,33.487 1.169,32.304 1.428,30.624 1.29,28.869 1.202,27.152 0.738,18.107 0.236,9.064 -0.253,0.02 -0.168,0.013 -0.084,0.007 0,0" style="fill:#494643;fill-opacity:1;fill-rule:nonzero;stroke:none" transform="matrix(1.3333333,0,0,-1.3333333,174.0436,2704.7835)" />
      </g></svg>