<?xml version='1.0' encoding='utf-8'?>
<svg xmlns="http://www.w3.org/2000/svg" version="1.1" width="243.524" height="102.768" viewBox="1499.680 4067.930 243.524 102.768"><g id="object"><path id="path43" d="m 0,0 c 0,-3.07 -0.035,-6.139 0.008,-9.208 0.065,-4.618 -1.047,-7.626 -6.788,-7.4 -5.934,0.233 -6.543,3.097 -6.539,8.216 0.01,13.971 1.314,27.951 -0.188,41.935 -0.372,3.458 0.572,7.045 0.756,10.58 0.137,2.62 -0.271,5.484 3.423,5.916 3.446,0.404 7.08,1.584 9.411,-2.576 3.094,-5.523 6.72,-10.831 8.278,-17.019 0.605,-2.406 2.087,-4.188 2.925,-6.367 0.287,-0.748 1.193,-1.736 1.851,-1.763 1.39,-0.058 2.012,1.269 1.969,2.451 -0.213,5.868 2.21,11.554 0.618,17.586 -1.409,5.337 1.228,7.611 6.833,7.817 5.461,0.202 6.14,-2.215 6.122,-6.855 -0.069,-18.036 0.195,-36.075 0.476,-54.11 0.04,-2.617 0.015,-5.251 -3.06,-5.281 -3.635,-0.036 -8.21,-2.197 -10.376,3.159 C 12.723,-5.514 9.624,1.848 6.571,9.23 5.588,11.608 4.813,15.031 1.798,14.531 -1.398,14.001 0.643,10.576 0.277,8.483 -0.21,5.703 -0.196,2.834 -0.397,0.003 -0.265,0.002 -0.132,0.001 0,0" style="fill:#494f57;fill-opacity:1;fill-rule:nonzero;stroke:none" transform="matrix(1.3333333,0,0,-1.3333333,1523.8017,4142.1797)" />
      <path id="path90" d="m 0,0 c -4.923,-4.222 -2.339,-10.645 -3.849,-16.148 -0.506,-1.844 -0.303,-3.947 1.854,-4.782 1.773,-0.686 3.907,-0.733 5.425,0.399 1.628,1.212 1.881,3.532 1.067,5.183 C 2.008,-10.302 2.868,-4.336 0,0 m 0.688,23.791 c 4.172,0.638 5.879,-0.719 7.16,-4.862 5.49,-17.752 9.637,-35.812 13.393,-53.975 0.519,-2.505 3.347,-6.667 -1.806,-7.215 -3.991,-0.424 -10.043,-2.303 -11.065,4.199 -1.235,7.852 -6.865,6.613 -11.792,6.72 -3.705,0.081 -4.258,-3.521 -4.835,-6.126 -1.577,-7.117 -6.862,-5.434 -11.246,-4.664 -3.259,0.573 -2.073,3.53 -1.504,5.832 3.567,14.409 7.109,28.825 10.618,43.249 0.781,3.212 1.505,6.445 2.064,9.702 0.911,5.307 3.681,8.055 9.013,7.14" style="fill:#494f57;fill-opacity:1;fill-rule:nonzero;stroke:none" transform="matrix(1.3333333,0,0,-1.3333333,1599.4869,4107.0849)" />
      <path id="path138" d="m 0,0 c -9.652,1.859 -18.051,7.487 -21.78,17.184 -7.039,18.3 -6.023,33.324 10.994,46.841 4.587,3.644 10.019,5.014 16.023,3.349 3.631,-1.008 4.97,-3.296 4.973,-6.745 C 10.213,57.376 8.196,56.005 5.295,55.653 -16.873,52.965 -15.511,27.131 -4.29,14.833 -2.734,13.127 0.365,12.658 2.852,12.013 6.271,11.125 10.722,12.256 9.64,5.816 8.678,0.09 4.994,0.078 0,0" style="fill:#494f57;fill-opacity:1;fill-rule:nonzero;stroke:none" transform="matrix(1.3333333,0,0,-1.3333333,1669.7321,4164.7019)" />
      <path id="path172" d="m 0,0 c 1.093,16.623 10.265,32.656 28.393,33.182 4.446,0.13 6.831,-1.104 7.116,-5.573 0.257,-4.026 -1.334,-6.129 -5.757,-6.045 -8.912,0.17 -12.811,-6.748 -15.46,-13.233 -5.589,-13.685 2.548,-27.716 16.874,-30.305 3.992,-0.721 4.156,-2.807 3.86,-6.005 -0.347,-3.75 -1.328,-6.05 -5.847,-6.045 C 17.022,-34.008 5.631,-25.492 2.39,-12.834 1.238,-8.339 -0.847,-3.849 0,0" style="fill:#494f57;fill-opacity:1;fill-rule:nonzero;stroke:none" transform="matrix(1.3333333,0,0,-1.3333333,1689.8267,4118.8089)" />
      </g></svg>