<?xml version='1.0' encoding='utf-8'?>
<svg xmlns="http://www.w3.org/2000/svg" version="1.1" width="3122.589" height="3173.676" viewBox="43.380 1161.070 3122.589 3173.676"><g id="object"><path id="path3" d="m 0,0 c 0.303,1.409 0.607,2.818 0.91,4.227 -18.876,5.762 -37.66,11.862 -56.678,17.11 -7.123,1.966 -17.498,10.397 -19.342,-6.08 C -76.421,3.54 -70.367,-0.235 -59.59,-0.081 -39.731,0.202 -19.864,0 0,0 m -331.293,-38.873 c -2.058,0.376 -4.117,0.752 -6.175,1.128 -12.282,-23.257 -24.616,-46.486 -36.794,-69.797 -1.959,-3.751 -5.844,-9.529 -1.776,-11.884 10.342,-5.99 22.24,-2.262 33.48,-2.165 9.262,0.079 11.286,6.744 11.276,14.58 -0.03,22.713 -0.011,45.426 -0.011,68.138 m -402.916,-458.602 c -0.556,-1.501 -1.111,-3.002 -1.667,-4.502 45.719,-16.047 91.37,-32.295 137.225,-47.944 7.771,-2.652 19.303,-10.913 24.018,-1.865 7.364,14.127 4.821,31.333 1.809,46.901 -2.085,10.776 -12.921,7.206 -20.264,7.254 -47.038,0.306 -94.08,0.156 -141.121,0.156 m 403.012,304.029 c 0,12.401 -1.034,24.909 0.23,37.18 2.183,21.208 -10.088,22.208 -26.074,21.853 -14.829,-0.33 -28.41,1.783 -27.023,-20.681 1.47,-23.823 1.377,-47.891 -0.212,-71.707 -1.349,-20.21 6.074,-25.795 25.765,-25.394 19.757,0.402 30.313,4.872 27.483,26.889 -1.345,10.457 -0.231,21.23 -0.169,31.86 m 255.639,-269.279 c 1.739,-0.305 3.477,-0.609 5.216,-0.913 28.726,54.934 57.102,110.056 86.408,164.679 8.016,14.94 1.663,16.132 -10.878,15.807 -20.388,-0.529 -40.801,-0.632 -61.193,-0.303 -12.593,0.203 -19.876,-3.124 -19.744,-17.779 0.482,-53.826 0.191,-107.66 0.191,-161.491 m -134.417,271.849 c 0,11.491 -1.032,23.096 0.231,34.446 2.119,19.039 -3.591,28.943 -24.424,25.727 -5.181,-0.8 -10.588,-0.137 -15.891,-0.146 -70.997,-0.119 -70.997,-0.119 -70.645,-72.099 0.237,-48.662 0.237,-48.662 49.452,-48.553 61.212,0.135 61.212,0.135 61.277,60.625 m 962.068,635.663 c -2.334,5.528 -2.481,6.783 -2.988,6.95 -122.926,40.512 -245.892,80.902 -368.807,121.444 -14.895,4.913 -18.809,-1.437 -18.565,-15.279 0.531,-30.155 1.025,-60.349 0.024,-90.477 -0.596,-17.93 7.182,-23.29 23.719,-22.831 25.706,0.714 51.446,0.193 77.172,0.193 95.691,0.001 191.381,0 289.445,0 M -75.57,-140.29 h 0.162 c 0,-19.487 -0.065,-38.974 0.011,-58.46 0.298,-76.176 0.303,-75.668 77.607,-73.988 17.968,0.39 24.915,5.4 24.84,24.232 -0.266,66.407 1.072,132.819 1.572,199.23 0.289,38.444 -0.311,38.886 -37.398,38.917 -12.401,0.011 -24.927,-1.288 -37.174,0.044 -22.499,2.446 -31.827,-4.469 -30.18,-29.036 2.246,-33.508 0.56,-67.28 0.56,-100.939 m -495.387,543.312 c -1.872,0.283 -3.744,0.567 -5.615,0.85 -5.674,-10.859 -11.375,-21.704 -17.017,-32.579 -53.067,-102.279 -105.786,-204.741 -159.473,-306.694 -10.378,-19.708 -8.14,-25.196 15.031,-24.484 47.839,1.469 95.763,1.002 143.633,0.209 16.963,-0.281 24.167,5.229 23.579,22.714 -0.865,25.686 -0.146,51.423 -0.142,77.139 0.011,87.615 0.004,175.23 0.004,262.845 m 253.759,-666.019 c -0.014,-2.079 -0.028,-4.159 -0.042,-6.238 1.31,-0.962 2.616,-2.76 3.929,-2.765 70.195,-0.249 140.391,-0.147 210.583,-0.611 15.902,-0.106 16.314,9.672 16.301,21.112 -0.086,72.881 -0.276,145.763 0.144,218.642 0.087,15.11 -3.677,22.676 -20.848,22.417 -64.87,-0.979 -129.758,-0.974 -194.638,-0.886 -12.804,0.017 -19.907,-3.006 -19.385,-17.799 0.876,-24.856 0.882,-49.782 0.107,-74.642 -0.445,-14.278 5.691,-18.635 18.979,-18.398 27.543,0.492 55.119,-0.481 82.647,0.313 15.082,0.435 20.605,-5.365 20.345,-20.215 -0.559,-31.985 -1.149,-64.042 0.403,-95.966 1.002,-20.641 -7.085,-26.128 -26.379,-25.311 -30.665,1.299 -61.426,0.347 -92.146,0.347 m -253.824,35.661 c 0,77.245 -0.508,154.497 0.356,231.733 0.217,19.398 -5.243,26.568 -25.587,26.064 -50.576,-1.253 -101.216,-0.787 -151.811,0.065 -15.26,0.257 -20.187,-5.148 -20.15,-19.928 0.397,-158.93 0.567,-317.86 0.198,-476.789 -0.039,-16.681 6.2,-21.277 21.977,-21.012 47.931,0.807 95.925,1.577 143.81,-0.071 23.97,-0.825 32.246,5.9 31.749,30.876 -1.519,76.327 -0.552,152.704 -0.542,229.062 m 10.753,2.544 c 0,-79.077 0.434,-158.158 -0.33,-237.228 -0.173,-17.889 4.322,-24.984 23.648,-24.826 143.044,1.167 286.096,1.536 429.146,1.548 16.092,10e-4 21.76,5.047 21.495,21.382 -0.834,51.52 -1.158,103.08 0.023,154.585 0.448,19.547 -4.863,26.239 -25.283,25.854 -67.504,-1.272 -135.047,-0.845 -202.572,-0.522 -65.055,0.31 -80.87,16.08 -80.69,78.852 0.025,8.886 -0.772,17.868 0.255,26.637 2.862,24.434 -2.741,50.048 9.42,73.193 14.869,28.297 31.187,55.9 44.674,84.831 7.779,16.686 18.75,20.434 35.639,20.275 64.853,-0.613 129.719,-0.043 194.58,0.221 11.228,0.045 23.926,-2.668 23.785,16.008 -0.131,17.37 -11.896,14.478 -22.13,14.471 -142.162,-0.095 -284.325,-0.619 -426.485,-0.105 -19.845,0.071 -25.881,-5.988 -25.598,-25.945 1.083,-76.397 0.438,-152.819 0.423,-229.231 M 794.626,-566.204 c -15.374,0 -24.907,0.086 -34.438,-0.014 -122.379,-1.288 -244.757,-3.319 -367.136,-3.309 -24.631,0.002 -31.386,-6.856 -31.31,-31.321 0.801,-255.98 0.414,-511.963 0.677,-767.945 0.006,-5.978 -4.549,-13.965 6.368,-19.983 141.397,273.13 282.571,545.828 425.839,822.572 m -440.753,502.16 c 0.106,10e-4 0.212,0.002 0.319,0.003 0,156.374 -0.295,312.749 0.364,469.12 0.084,20.056 -4.556,28.031 -26.491,27.941 -287.91,-1.173 -575.824,-1.668 -863.737,-1.59 -20.184,0.005 -25.516,-6.22 -25.353,-25.875 0.937,-112.849 1.087,-225.711 0.251,-338.56 -0.156,-21.13 6.404,-27.014 27.216,-26.863 122.624,0.896 245.317,-1.795 367.863,1.426 62.712,1.648 121.219,-9.621 179.398,-30.378 16.914,-6.034 23.78,-13.202 23.555,-31.802 -0.977,-80.851 -0.495,-161.722 -0.226,-242.585 0.046,-13.711 -3.068,-25.802 -9.736,-38.001 -30.673,-56.108 -61.314,-112.266 -90.234,-169.285 -9.797,-19.317 -21.7,-25.986 -43.351,-25.908 -142.175,0.511 -284.356,-0.388 -426.534,-1.085 -8.479,-0.042 -21.038,4.31 -24.606,-4.581 -6.649,-16.565 -5.711,-35.611 -0.821,-52.248 3.625,-12.337 18.777,-6.425 28.611,-6.422 283.47,0.095 566.941,0.968 850.408,0.376 27.941,-0.058 33.84,9.163 33.652,35.179 -1.113,153.706 -0.548,307.424 -0.548,461.138 m 449.762,500.622 c -139.375,-0.673 -278.75,-1.661 -418.125,-1.643 -18.758,0.002 -24.05,-5.881 -24.019,-24.37 0.52,-315.168 0.605,-630.337 0,-945.505 -0.039,-20.628 6.718,-25.158 25.993,-24.9 138.462,1.854 276.939,2.672 415.411,3.819 -0.065,-6.772 -0.13,-13.545 -0.196,-20.318 -23.742,-44.63 -47.834,-89.078 -71.168,-133.921 -115.148,-221.286 -232.379,-441.546 -343.134,-665.013 -21.418,-43.214 -43.844,-50.043 -85.279,-50.316 -599.441,-3.945 -1198.887,-5.518 -1798.338,-5.567 -8.854,-10e-4 -17.707,0.541 -26.561,0.83 0.363,3.426 0.727,6.851 1.09,10.276 29.289,-0.501 58.58,-1.506 87.867,-1.423 348.401,0.987 696.816,0.552 1045.197,3.791 237.289,2.207 474.572,2.609 711.858,3.043 22.212,0.041 28.46,6.392 28.392,28.455 -0.805,263.079 -0.9,526.161 -0.379,789.24 0.042,21.334 -7.008,27.182 -27.52,26.967 -111.978,-1.176 -223.969,-1.381 -335.956,-1.522 -181.694,-0.228 -363.389,-0.054 -545.083,-0.362 -15.734,-0.027 -29.443,5.983 -43.61,10.934 -52.833,18.463 -105.433,37.608 -158.473,55.446 -15.033,5.056 -20.609,12.636 -20.556,28.748 0.546,166.202 0.39,332.406 0.29,498.61 -0.006,10.044 2.16,19.069 6.834,28.037 64.476,123.687 129.039,247.331 192.694,371.44 8.171,15.931 17.972,20.689 35.289,20.674 218.641,-0.188 437.283,0.25 655.924,0.841 70.198,0.189 140.402,2.197 210.585,1.481 24.22,-0.247 31.098,9.2 29.818,31.47 -1.375,23.925 -1.882,48.068 -0.274,71.949 1.63,24.22 -6.981,32.4 -31.584,32.051 -98.638,-1.399 -197.302,-1.036 -295.957,-1.263 -515.47,-1.187 -1030.941,-2.355 -1546.411,-3.528 0.2,3.488 0.402,6.975 0.603,10.461 94.184,0.074 188.37,0.041 282.554,0.247 172.432,0.376 344.881,-0.532 517.29,1.653 344.84,4.368 689.684,1.456 1034.519,3.089 37.357,0.176 71.852,-7.941 106.54,-19.455 109.394,-36.313 219.043,-71.86 328.368,-108.378 18.252,-6.097 38.957,-3.223 55.266,-15.746 0.08,-3.441 0.16,-6.882 0.241,-10.322" style="fill:#eae5d7;fill-opacity:1;fill-rule:nonzero;stroke:none" transform="matrix(1.3333333,0,0,-1.3333333,2078.4213,1954.3745)" />
      <path id="path6" d="m 1.4056594,-0.83253594 c 1.21875,0.7265625 2.9882812,1.1953125 4.8984375,1.1953125 4.1367191,0 6.5156251,-2.16796876 6.5156251,-5.22656246 0,-2.5898438 -1.546875,-4.1015625 -4.5820314,-5.2500001 -2.2617187,-0.867187 -3.3046875,-1.511719 -3.3046875,-2.953125 0,-1.300781 1.0429688,-2.378906 2.9179688,-2.378906 1.6171875,0 2.8710941,0.574219 3.5625001,1.007812 l 0.785156,-2.296875 c -0.972656,-0.585937 -2.5195311,-1.089843 -4.2773436,-1.089843 -3.75,0 -6.0117188,2.308593 -6.0117188,5.121093 0,2.085938 1.4765625,3.8085941 4.6054688,4.9218753 2.34375,0.8671875 3.2460937,1.6992188 3.2460937,3.2109375 0,1.4414063 -1.0898437,2.5898438 -3.3867187,2.5898438 -1.5820313,0 -3.2460938,-0.6445313 -4.1835938,-1.2539063 z M 17.606831,-21.598161 v 4.171875 H 14.8998 v 2.414063 h 2.707031 v 9.5039058 c 0,2.0507813 0.316406,3.5976563 1.21875,4.53515626 0.761719,0.8671875 1.945313,1.3359375 3.421875,1.3359375 1.21875,0 2.191406,-0.1875 2.8125,-0.43359375 L 24.907612,-2.4497234 c -0.386718,0.1054687 -1.007812,0.2226562 -1.828125,0.2226562 -1.769531,0 -2.378906,-1.2304687 -2.378906,-3.3867187 v -9.3984371 h 4.535156 v -2.414063 h -4.535156 v -5.003906 z m 24.978516,13.4648438 c 0.03516,-0.328125 0.105469,-0.8320312 0.105469,-1.4765625 0,-3.2109373 -1.511719,-8.2148433 -7.195313,-8.2148433 -5.074219,0 -8.167969,4.148437 -8.167969,9.3984371 0,5.2617187 3.199219,8.78906246 8.566407,8.78906246 2.765625,0 4.675781,-0.57421875 5.789062,-1.078125 L 41.143941,-2.9887859 c -1.183594,0.5039062 -2.554688,0.9023437 -4.816407,0.9023437 -3.175781,0 -5.90625,-1.7695312 -5.976562,-6.046875 z M 30.386128,-10.406755 c 0.246094,-2.191406 1.652344,-5.144531 4.863281,-5.144531 3.5625,0 4.417969,3.128906 4.382813,5.144531 z m 28.113281,-15.152343 v 10.40625 h -0.07031 c -0.796875,-1.40625 -2.589844,-2.671875 -5.261719,-2.671875 -4.242187,0 -7.839844,3.5625 -7.804687,9.3632808 0,5.296875 3.234375,8.85937501 7.453125,8.85937501 2.835937,0 4.96875,-1.47656251 5.941406,-3.42187501 h 0.07031 l 0.140625,3.0234375125 h 2.847657 C 61.698628,-1.1840984 61.663472,-2.9536297 61.663472,-4.5005047 V -25.559098 Z m 0,18.2460933 c 0,0.5039063 -0.03516,0.9375 -0.140625,1.3710938 -0.574218,2.3789062 -2.519531,3.7851562 -4.652343,3.7851562 -3.410157,0 -5.144532,-2.9179687 -5.144532,-6.4453125 0,-3.8554688 1.945313,-6.7382808 5.226563,-6.7382808 2.367187,0 4.101562,1.664062 4.570312,3.679687 0.105469,0.386719 0.140625,0.9375 0.140625,1.324219 z m 22.426758,-0.8203125 c 0.03516,-0.328125 0.105469,-0.8320312 0.105469,-1.4765625 0,-3.2109373 -1.511719,-8.2148433 -7.195313,-8.2148433 -5.074218,0 -8.167968,4.148437 -8.167968,9.3984371 0,5.2617187 3.199218,8.78906246 8.566406,8.78906246 2.765625,0 4.675781,-0.57421875 5.789062,-1.078125 L 79.484761,-2.9887859 c -1.183594,0.5039062 -2.554688,0.9023437 -4.816406,0.9023437 -3.175782,0 -5.90625,-1.7695312 -5.976563,-6.046875 z M 68.726948,-10.406755 c 0.246094,-2.191406 1.652344,-5.144531 4.863282,-5.144531 3.5625,0 4.417968,3.128906 4.382812,5.144531 z M 84.957417,-5.046875e-4 h 3.175781 V -25.559098 h -3.175781 z m 11.671875,0 V -17.426286 H 93.453511 V -5.046875e-4 Z M 95.035542,-24.305192 c -1.148437,0 -1.980469,0.867187 -1.980469,1.980469 0,1.089843 0.796875,1.945312 1.910157,1.945312 1.265625,0 2.050781,-0.855469 2.015625,-1.945312 0,-1.113282 -0.75,-1.980469 -1.945313,-1.980469 z m 2.915039,31.8281248 c 1.699219,0 3.996089,-0.5742187 5.402339,-1.9804687 1.54688,-1.5820313 2.08594,-3.7734375 2.08594,-7.1601563 V -17.426286 h -3.16406 v 14.5781251 c 0,4.1835937 -0.32813,5.5429687 -1.18359,6.5507812 -0.76172,0.8320313 -2.015629,1.2304688 -3.457035,1.3359375 z m 5.941409,-31.8281248 c -1.1836,0 -2.01563,0.867187 -2.01563,1.980469 0,1.042968 0.76172,1.945312 1.94531,1.945312 1.26563,0 2.01563,-0.902344 1.98047,-1.945312 0,-1.113282 -0.75,-1.980469 -1.91015,-1.980469 z m 9.87304,-1.253906 h -3.14062 V -5.046875e-4 h 3.14062 V -6.5512859 l 1.61719,-1.8046875 6.01172,8.3554687125 h 3.84375 L 117.57363,-10.26613 l 6.73828,-7.160156 h -3.82031 l -5.10938,6.011719 c -0.5039,0.609375 -1.11328,1.371094 -1.54687,1.9804686 h -0.0703 z m 19.21875,8.132812 6.6211,17.4257813125 h 3.02344 L 149.47207,-17.426286 h -3.31641 l -3.375,9.7968751 c -0.58594,1.5820312 -1.08984,3.0234375 -1.47656,4.4648437 h -0.11719 c -0.35156,-1.4414062 -0.82031,-2.8828125 -1.39453,-4.4648437 L 136.3705,-17.426286 Z M 164.84121,-5.046875e-4 C 164.63027,-1.1840984 164.55996,-2.6606609 164.55996,-4.1723797 v -6.5156253 c 0,-3.492187 -1.30079,-7.136718 -6.63282,-7.136718 -2.1914,0 -4.27734,0.621093 -5.71875,1.546875 l 0.71485,2.097656 c 1.23047,-0.796875 2.91797,-1.300781 4.54687,-1.300781 3.5625,0 3.94922,2.589843 3.94922,4.03125 v 0.363281 c -6.72656,-0.03516 -10.46484,2.2617186 -10.46484,6.4804686 0,2.5195312 1.79297,5.00390621 5.32031,5.00390621 2.48437,0 4.35937,-1.23046875 5.33203,-2.58984371 h 0.10547 l 0.25781,2.1914062125 z M 161.50136,-5.8715984 c 0,0.328125 -0.082,0.6914062 -0.1875,1.0078125 -0.5039,1.4765625 -1.94531,2.9179687 -4.20703,2.9179687 -1.61719,0 -2.98828,-0.9726562 -2.98828,-3.0234375 0,-3.3867187 3.92578,-3.9960937 7.38281,-3.9257812 z m 8.16504,5.8710937125 h 3.17578 V -10.477067 c 0,-0.539063 0.0703,-1.078125 0.21094,-1.476563 0.53906,-1.757812 2.15625,-3.234375 4.25391,-3.234375 2.97656,0 4.03125,2.332032 4.03125,5.144532 V -5.046875e-4 h 3.16406 V -10.406755 c 0,-5.976562 -3.75,-7.417968 -6.15234,-7.417968 -2.88282,0 -4.89844,1.628906 -5.76563,3.28125 h -0.0703 l -0.17578,-2.882813 h -2.8125 c 0.10547,1.441406 0.14062,2.917969 0.14062,4.722656 z m 40.13672,0 C 209.59218,-1.1840984 209.52187,-2.6606609 209.52187,-4.1723797 v -6.5156253 c 0,-3.492187 -1.30078,-7.136718 -6.63281,-7.136718 -2.19141,0 -4.27735,0.621093 -5.71875,1.546875 l 0.71484,2.097656 c 1.23047,-0.796875 2.91797,-1.300781 4.54688,-1.300781 3.5625,0 3.94922,2.589843 3.94922,4.03125 v 0.363281 c -6.72657,-0.03516 -10.46485,2.2617186 -10.46485,6.4804686 0,2.5195312 1.79297,5.00390621 5.32031,5.00390621 2.48438,0 4.35938,-1.23046875 5.33204,-2.58984371 h 0.10546 l 0.25782,2.1914062125 z M 206.46328,-5.8715984 c 0,0.328125 -0.082,0.6914062 -0.1875,1.0078125 -0.50391,1.4765625 -1.94532,2.9179687 -4.20703,2.9179687 -1.61719,0 -2.98829,-0.9726562 -2.98829,-3.0234375 0,-3.3867187 3.92579,-3.9960937 7.38282,-3.9257812 z M 217.21816,-5.046875e-4 217.3705,-2.8833172 h 0.10547 c 1.30078,2.30859376 3.31641,3.28125001 5.83594,3.28125001 3.87891,0 7.80469,-3.09375001 7.80469,-9.32812501 0.0351,-5.2851558 -3.02344,-8.8945308 -7.33594,-8.8945308 -2.8125,0 -4.82813,1.265625 -5.94141,3.210937 h -0.0703 v -10.945312 h -3.14062 v 21.0585933 c 0,1.546875 -0.0703,3.3164063 -0.14063,4.5000000125 z M 217.76894,-10.113786 c 0,-0.503906 0.10547,-0.9375 0.17578,-1.300781 0.64453,-2.414063 2.66016,-3.890625 4.82813,-3.890625 3.375,0 5.17968,2.988281 5.17968,6.4804686 0,3.9960937 -1.98046,6.703125 -5.29687,6.703125 -2.29688,0 -4.13672,-1.5117188 -4.74609,-3.7148438 -0.0703,-0.3515625 -0.14063,-0.75 -0.14063,-1.1484375 z M 237.70253,-5.046875e-4 237.85488,-2.8833172 h 0.10547 c 1.30078,2.30859376 3.3164,3.28125001 5.83593,3.28125001 3.87891,0 7.80469,-3.09375001 7.80469,-9.32812501 0.0352,-5.2851558 -3.02344,-8.8945308 -7.33594,-8.8945308 -2.8125,0 -4.82812,1.265625 -5.9414,3.210937 h -0.0703 v -10.945312 h -3.14063 v 21.0585933 c 0,1.546875 -0.0703,3.3164063 -0.14062,4.5000000125 z M 238.25332,-10.113786 c 0,-0.503906 0.10546,-0.9375 0.17578,-1.300781 0.64453,-2.414063 2.66015,-3.890625 4.82812,-3.890625 3.375,0 5.17969,2.988281 5.17969,6.4804686 0,3.9960937 -1.98047,6.703125 -5.29688,6.703125 -2.29687,0 -4.13671,-1.5117188 -4.74609,-3.7148438 -0.0703,-0.3515625 -0.14062,-0.75 -0.14062,-1.1484375 z m 31.34765,1.9804688 c 0.0352,-0.328125 0.10547,-0.8320312 0.10547,-1.4765625 0,-3.2109373 -1.51172,-8.2148433 -7.19531,-8.2148433 -5.07422,0 -8.16797,4.148437 -8.16797,9.3984371 0,5.2617187 3.19922,8.78906246 8.56641,8.78906246 2.76562,0 4.67578,-0.57421875 5.78906,-1.078125 l -0.53906,-2.27343746 c -1.1836,0.5039062 -2.55469,0.9023437 -4.81641,0.9023437 -3.17578,0 -5.90625,-1.7695312 -5.97656,-6.046875 z m -12.19922,-2.2734378 c 0.2461,-2.191406 1.65235,-5.144531 4.86328,-5.144531 3.5625,0 4.41797,3.128906 4.38282,5.144531 z m 16.23047,10.4062503125 h 3.09375 V -10.512223 c 0,-0.539063 0.082,-1.078125 0.25781,-1.546875 0.50391,-1.582032 1.94532,-3.164063 3.92579,-3.164063 2.41406,0 3.63281,2.015625 3.63281,4.78125 V -5.046875e-4 h 3.09375 V -10.770036 c 0,-0.574219 0.10547,-1.148437 0.25781,-1.582031 0.53906,-1.546875 1.94531,-2.871094 3.73828,-2.871094 2.55469,0 3.78516,2.015625 3.78516,5.3554688 v 9.8671875125 h 3.09375 V -10.26613 c 0,-6.046875 -3.42188,-7.558593 -5.71875,-7.558593 -1.66406,0 -2.8125,0.433593 -3.85547,1.230468 -0.72656,0.539063 -1.40625,1.289063 -1.94531,2.261719 h -0.0703 c -0.76171,-2.050781 -2.55468,-3.492187 -4.93359,-3.492187 -2.88281,0 -4.5,1.546875 -5.47266,3.210937 h -0.10546 l -0.14063,-2.8125 h -2.77734 c 0.10547,1.441406 0.14062,2.917969 0.14062,4.722656 z M 318.23378,-17.426286 h -3.16406 v 10.6992188 c 0,0.5742188 -0.10547,1.1484375 -0.28125,1.6171875 -0.58594,1.40625 -2.0625,2.8828125 -4.18359,2.8828125 -2.88281,0 -3.89063,-2.2382812 -3.89063,-5.5546875 v -9.6445313 h -3.16406 v 10.1953126 c 0,6.1171875 3.28125,7.62890621 6.01172,7.62890621 3.09375,0 4.93359,-1.83984371 5.76562,-3.24609371 h 0.0703 l 0.17578,2.8476562125 h 2.8125 C 318.26894,-1.3715984 318.23378,-2.9536297 318.23378,-4.7583172 Z m 4.04004,16.59375006 c 1.21875,0.7265625 2.98828,1.1953125 4.89844,1.1953125 4.13672,0 6.51563,-2.16796876 6.51563,-5.22656246 0,-2.5898438 -1.54688,-4.1015625 -4.58204,-5.2500001 -2.26171,-0.867187 -3.30468,-1.511719 -3.30468,-2.953125 0,-1.300781 1.04297,-2.378906 2.91797,-2.378906 1.61718,0 2.87109,0.574219 3.5625,1.007812 l 0.78515,-2.296875 c -0.97265,-0.585937 -2.51953,-1.089843 -4.27734,-1.089843 -3.75,0 -6.01172,2.308593 -6.01172,5.121093 0,2.085938 1.47656,3.8085941 4.60547,4.9218753 2.34375,0.8671875 3.24609,1.6992188 3.24609,3.2109375 0,1.4414063 -1.08984,2.5898438 -3.38672,2.5898438 -1.58203,0 -3.24609,-0.6445313 -4.18359,-1.2539063 z m 29.47852,-7.30078126 c 0.0352,-0.328125 0.10547,-0.8320312 0.10547,-1.4765625 0,-3.2109373 -1.51172,-8.2148433 -7.19531,-8.2148433 -5.07422,0 -8.16797,4.148437 -8.16797,9.3984371 0,5.2617187 3.19922,8.78906246 8.5664,8.78906246 2.76563,0 4.67578,-0.57421875 5.78907,-1.078125 l -0.53907,-2.27343746 c -1.18359,0.5039062 -2.55468,0.9023437 -4.8164,0.9023437 -3.17578,0 -5.90625,-1.7695312 -5.97657,-6.046875 z m -12.19922,-2.2734378 c 0.24609,-2.191406 1.65234,-5.144531 4.86328,-5.144531 3.5625,0 4.41797,3.128906 4.38281,5.144531 z m 30.80859,-7.019531 h -3.16406 v 10.6992188 c 0,0.5742188 -0.10547,1.1484375 -0.28125,1.6171875 -0.58594,1.40625 -2.0625,2.8828125 -4.18359,2.8828125 -2.88281,0 -3.89063,-2.2382812 -3.89063,-5.5546875 v -9.6445313 h -3.16406 v 10.1953126 c 0,6.1171875 3.28125,7.62890621 6.01172,7.62890621 3.09375,0 4.93359,-1.83984371 5.76562,-3.24609371 h 0.0703 l 0.17578,2.8476562125 h 2.8125 C 370.39687,-1.3715984 370.36171,-2.9536297 370.36171,-4.7583172 Z m 5.25879,17.4257813125 h 3.09375 V -10.512223 c 0,-0.539063 0.082,-1.078125 0.25782,-1.546875 0.5039,-1.582032 1.94531,-3.164063 3.92578,-3.164063 2.41406,0 3.63281,2.015625 3.63281,4.78125 V -5.046875e-4 h 3.09375 V -10.770036 c 0,-0.574219 0.10547,-1.148437 0.25781,-1.582031 0.53906,-1.546875 1.94531,-2.871094 3.73828,-2.871094 2.55469,0 3.78516,2.015625 3.78516,5.3554688 v 9.8671875125 h 3.09375 V -10.26613 c 0,-6.046875 -3.42188,-7.558593 -5.71875,-7.558593 -1.66406,0 -2.8125,0.433593 -3.85547,1.230468 -0.72656,0.539063 -1.40625,1.289063 -1.94531,2.261719 h -0.0703 c -0.76172,-2.050781 -2.55469,-3.492187 -4.9336,-3.492187 -2.88281,0 -4.5,1.546875 -5.47265,3.210937 h -0.10547 l -0.14063,-2.8125 h -2.77734 c 0.10547,1.441406 0.14062,2.917969 0.14062,4.722656 z M 427.27968,-8.1333172 c 0.0352,-0.328125 0.10547,-0.8320312 0.10547,-1.4765625 0,-3.2109373 -1.51172,-8.2148433 -7.19531,-8.2148433 -5.07422,0 -8.16797,4.148437 -8.16797,9.3984371 0,5.2617187 3.19922,8.78906246 8.56641,8.78906246 2.76562,0 4.67578,-0.57421875 5.78906,-1.078125 l -0.53906,-2.27343746 c -1.1836,0.5039062 -2.55469,0.9023437 -4.81641,0.9023437 -3.17578,0 -5.90625,-1.7695312 -5.97656,-6.046875 z m -12.19922,-2.2734378 c 0.2461,-2.191406 1.65235,-5.144531 4.86329,-5.144531 3.5625,0 4.41796,3.128906 4.38281,5.144531 z M 434.48964,-5.046875e-4 V -17.426286 h -3.17578 V -5.046875e-4 Z M 432.89589,-24.305192 c -1.14843,0 -1.98047,0.867187 -1.98047,1.980469 0,1.089843 0.79688,1.945312 1.91016,1.945312 1.26563,0 2.05078,-0.855469 2.01563,-1.945312 0,-1.113282 -0.75,-1.980469 -1.94532,-1.980469 z m 6.84082,24.3046873125 h 3.17579 V -10.477067 c 0,-0.539063 0.0703,-1.078125 0.21093,-1.476563 0.53907,-1.757812 2.15625,-3.234375 4.25391,-3.234375 2.97656,0 4.03125,2.332032 4.03125,5.144532 V -5.046875e-4 h 3.16406 V -10.406755 c 0,-5.976562 -3.75,-7.417968 -6.15234,-7.417968 -2.88281,0 -4.89844,1.628906 -5.76563,3.28125 h -0.0703 l -0.17578,-2.882813 h -2.8125 c 0.10547,1.441406 0.14062,2.917969 0.14062,4.722656 z M 471.6,-25.559098 v 10.40625 h -0.0703 c -0.79687,-1.40625 -2.58984,-2.671875 -5.26172,-2.671875 -4.24218,0 -7.83984,3.5625 -7.80468,9.3632808 0,5.296875 3.23437,8.85937501 7.45312,8.85937501 2.83594,0 4.96875,-1.47656251 5.94141,-3.42187501 h 0.0703 l 0.14063,3.0234375125 h 2.84765 C 474.79921,-1.1840984 474.76406,-2.9536297 474.76406,-4.5005047 V -25.559098 Z m 0,18.2460933 c 0,0.5039063 -0.0352,0.9375 -0.14063,1.3710938 -0.57422,2.3789062 -2.51953,3.7851562 -4.65234,3.7851562 -3.41016,0 -5.14453,-2.9179687 -5.14453,-6.4453125 0,-3.8554688 1.94531,-6.7382808 5.22656,-6.7382808 2.36719,0 4.10156,1.664062 4.57031,3.679687 0.10547,0.386719 0.14063,0.9375 0.14063,1.324219 z m 8.41992,7.3125000125 h 3.17578 V -10.512223 c 0,-0.609375 0.0351,-1.078125 0.21094,-1.511719 0.57421,-1.734375 2.1914,-3.164063 4.2539,-3.164063 2.97656,0 4.03125,2.367188 4.03125,5.179688 V -5.046875e-4 h 3.16406 V -10.371598 c 0,-6.011719 -3.75,-7.453125 -6.08203,-7.453125 -1.19531,0 -2.30859,0.363281 -3.24609,0.902343 -0.97266,0.539063 -1.75781,1.335938 -2.26172,2.238282 h -0.0703 v -10.875 h -3.17578 z M 507.3832,-17.824723 c -4.82813,0 -8.63672,3.421875 -8.63672,9.2578121 0,5.5078125 3.63281,8.96484371 8.34375,8.96484371 4.21875,0 8.68359,-2.81250001 8.68359,-9.25781251 0,-5.3203123 -3.38672,-8.9648433 -8.39062,-8.9648433 z m -0.0703,2.378906 c 3.73828,0 5.21484,3.75 5.21484,6.7031248 0,3.9140625 -2.26172,6.7617188 -5.28516,6.7617188 -3.09375,0 -5.29687,-2.8828125 -5.29687,-6.6914063 0,-3.3164063 1.61719,-6.7734373 5.36719,-6.7734373 z m 10.04296,-1.980469 6.6211,17.4257813125 h 3.02344 L 533.84414,-17.426286 h -3.31641 l -3.375,9.7968751 c -0.58594,1.5820312 -1.08984,3.0234375 -1.47656,4.4648437 h -0.11719 c -0.35156,-1.4414062 -0.82031,-2.8828125 -1.39453,-4.4648437 l -3.42188,-9.7968751 z m 33.11719,9.2929688 c 0.0352,-0.328125 0.10547,-0.8320312 0.10547,-1.4765625 0,-3.2109373 -1.51172,-8.2148433 -7.19531,-8.2148433 -5.07422,0 -8.16797,4.148437 -8.16797,9.3984371 0,5.2617187 3.19922,8.78906246 8.56641,8.78906246 2.76562,0 4.67578,-0.57421875 5.78906,-1.078125 l -0.53906,-2.27343746 c -1.1836,0.5039062 -2.55469,0.9023437 -4.81641,0.9023437 -3.17578,0 -5.90625,-1.7695312 -5.97656,-6.046875 z m -12.19922,-2.2734378 c 0.2461,-2.191406 1.65235,-5.144531 4.86328,-5.144531 3.5625,0 4.41797,3.128906 4.38282,5.144531 z M 554.5043,-5.046875e-4 h 3.17578 V -10.477067 c 0,-0.539063 0.0703,-1.078125 0.21094,-1.476563 0.53906,-1.757812 2.15625,-3.234375 4.25391,-3.234375 2.97656,0 4.03125,2.332032 4.03125,5.144532 V -5.046875e-4 h 3.16406 V -10.406755 c 0,-5.976562 -3.75,-7.417968 -6.15234,-7.417968 -2.88282,0 -4.89844,1.628906 -5.76563,3.28125 h -0.0703 l -0.17578,-2.882813 h -2.8125 c 0.10547,1.441406 0.14062,2.917969 0.14062,4.722656 z m 0,0" style="fill:#ffffff;fill-opacity:1;fill-rule:nonzero;stroke:none" aria-label="st&#10;edelijk v&#10;an abbemuseum eindho&#10;v&#10;en" transform="matrix(0,-1.3333333,1.3333333,0,3149.9343,4330.6164)" />
      <path id="path7" d="M 0.866725,-23.227411 7.8745375,-8.484375e-4 h 3.8320315 l 3.75,-11.0390625625 c 0.820312,-2.496094 1.535156,-4.898437 2.109375,-7.675781 h 0.09375 c 0.574218,2.730469 1.253906,5.039062 2.0625,7.628906 l 3.5625,11.0859375625 h 3.832031 L 34.605006,-23.227411 h -4.171875 l -3.316406,11.660156 c -0.761719,2.7304691 -1.394531,5.1796878 -1.769531,7.5351566 H 25.19485 c -0.527344,-2.3554688 -1.195313,-4.8046875 -2.0625,-7.5820316 l -3.597656,-11.613281 h -3.550782 l -3.796875,11.847656 c -0.761718,2.4960941 -1.535156,4.9921878 -2.0625,7.3476566 H 9.9839125 C 9.5503187,-6.4344422 8.929225,-8.8367859 8.2612562,-11.42663 L 5.179225,-23.227411 Z m 47.329102,-0.539062 c -6.433594,0 -11.519532,4.570312 -11.519532,12.339843 0,7.3476566 4.839844,11.95312531 11.132813,11.95312531 5.613281,0 11.566406,-3.73828121 11.566406,-12.33984331 0,-7.101563 -4.511719,-11.953125 -11.179687,-11.953125 z m -0.105469,3.175781 c 4.992187,0 6.960937,4.992187 6.960937,8.929687 0,5.2265628 -3.023437,9.0234378 -7.054687,9.0234378 -4.125,0 -7.054688,-3.84375 -7.054688,-8.9296878 0,-4.417968 2.167969,-9.023437 7.148438,-9.023437 z M 64.704616,-8.484375e-4 h 4.171875 V -12.387567 c 0,-0.714844 0.105468,-1.394531 0.199218,-1.96875 0.574219,-3.164063 2.683594,-5.425781 5.660157,-5.425781 0.574218,0 1.007812,0.05859 1.441406,0.152343 v -3.984375 c -0.386719,-0.09375 -0.714844,-0.152343 -1.195313,-0.152343 -2.835937,0 -5.378906,1.96875 -6.433593,5.097656 h -0.199219 l -0.140625,-4.558594 h -3.691406 c 0.140625,2.15625 0.1875,4.511719 0.1875,7.242188 z M 84.764186,-34.078973 H 80.592311 V -8.484375e-4 h 4.171875 V -8.7313172 l 2.167969,-2.4023438 8.015625,11.1328125625 h 5.13281 L 89.861842,-13.67663 l 8.964844,-9.550781 h -5.085938 l -6.808593,8.015625 c -0.679688,0.808594 -1.488282,1.816406 -2.0625,2.636719 h -0.105469 z m 25.631834,10.851562 8.83594,23.2265625625 h 4.03125 L 132.3804,-23.227411 h -4.41797 l -4.51172,13.054688 c -0.76172,2.1093746 -1.44141,4.0312496 -1.96875,5.9531246 h -0.14063 c -0.48046,-1.921875 -1.10156,-3.84375 -1.875,-5.9531246 l -4.55859,-13.054688 z M 152.87649,-8.484375e-4 C 152.59524,-1.5828797 152.50149,-3.5516297 152.50149,-5.5672547 v -8.6953123 c 0,-4.652344 -1.73437,-9.503906 -8.83594,-9.503906 -2.92968,0 -5.70703,0.820312 -7.6289,2.074218 l 0.96093,2.777344 c 1.62891,-1.054687 3.87891,-1.722656 6.04688,-1.722656 4.74609,0 5.27344,3.457031 5.27344,5.367187 v 0.480469 c -8.97657,-0.04687 -13.96875,3.023438 -13.96875,8.6484376 0,3.3515625 2.40234,6.66796871 7.11328,6.66796871 3.30469,0 5.80078,-1.62890621 7.10156,-3.45703121 h 0.14063 l 0.33984,2.9296874625 z M 148.41165,-7.8289734 c 0,0.4335937 -0.0937,0.9140625 -0.23438,1.3476562 -0.66797,1.96875 -2.58984,3.890625 -5.61328,3.890625 -2.16797,0 -3.98437,-1.3007812 -3.98437,-4.03125 0,-4.5117188 5.22656,-5.3320308 9.83203,-5.2382808 z m 10.90136,7.8281249625 h 4.21875 V -13.969598 c 0,-0.714844 0.10547,-1.441407 0.29297,-1.96875 0.71485,-2.355469 2.88282,-4.324219 5.66016,-4.324219 3.98437,0 5.37891,3.128906 5.37891,6.867187 V -8.484375e-4 h 4.23046 V -13.875848 c 0,-7.96875 -4.99218,-9.890625 -8.21484,-9.890625 -3.84375,0 -6.52734,2.167968 -7.67578,4.371093 h -0.0937 l -0.24609,-3.832031 h -3.73829 c 0.14063,1.910156 0.1875,3.878906 0.1875,6.28125 z m 36.81446,0 h 4.21875 V -34.078973 h -4.21875 z M 217.30032,-23.766473 c -6.4336,0 -11.51953,4.570312 -11.51953,12.339843 0,7.3476566 4.83984,11.95312531 11.13281,11.95312531 5.61328,0 11.56641,-3.73828121 11.56641,-12.33984331 0,-7.101563 -4.51172,-11.953125 -11.17969,-11.953125 z m -0.10547,3.175781 c 4.99219,0 6.96094,4.992187 6.96094,8.929687 0,5.2265628 -3.02344,9.0234378 -7.05469,9.0234378 -4.125,0 -7.05469,-3.84375 -7.05469,-8.9296878 0,-4.417968 2.16797,-9.023437 7.14844,-9.023437 z m 32.45801,-13.488281 v 13.875 h -0.10547 c -1.05469,-1.875 -3.44531,-3.5625 -7.00781,-3.5625 -5.66016,0 -10.45313,4.757812 -10.40625,12.480468 0,7.0664066 4.3125,11.81250031 9.9375,11.81250031 3.78515,0 6.62109,-1.96875001 7.91015,-4.55859371 h 0.10547 l 0.1875,4.0312499625 h 3.79688 C 253.91848,-1.5828797 253.87161,-3.9383484 253.87161,-6.0008484 V -34.078973 Z m 0,24.3398433 c 0,0.6679688 -0.0469,1.2421875 -0.19922,1.8164063 -0.76172,3.1640625 -3.35156,5.0390625 -6.1875,5.0390625 -4.55859,0 -6.86719,-3.890625 -6.86719,-8.5898441 0,-5.132812 2.58985,-8.976562 6.96094,-8.976562 3.16406,0 5.47266,2.214844 6.09375,4.898437 0.15234,0.527344 0.19922,1.242188 0.19922,1.769532 z m 21.07031,-14.0273433 c -6.43359,0 -11.51953,4.570312 -11.51953,12.339843 0,7.3476566 4.83984,11.95312531 11.13281,11.95312531 5.61328,0 11.56641,-3.73828121 11.56641,-12.33984331 0,-7.101563 -4.51172,-11.953125 -11.17969,-11.953125 z m -0.10547,3.175781 c 4.99219,0 6.96094,4.992187 6.96094,8.929687 0,5.2265628 -3.02344,9.0234378 -7.05469,9.0234378 -4.125,0 -7.05469,-3.84375 -7.05469,-8.9296878 0,-4.417968 2.16797,-9.023437 7.14844,-9.023437 z m 16.61426,20.5898435625 h 4.21875 V -13.969598 c 0,-0.714844 0.10547,-1.441407 0.29297,-1.96875 0.71484,-2.355469 2.88281,-4.324219 5.66015,-4.324219 3.98438,0 5.37891,3.128906 5.37891,6.867187 V -8.484375e-4 h 4.23047 V -13.875848 c 0,-7.96875 -4.99219,-9.890625 -8.21484,-9.890625 -3.84375,0 -6.52735,2.167968 -7.67579,4.371093 h -0.0937 l -0.24609,-3.832031 h -3.73828 c 0.14062,1.910156 0.1875,3.878906 0.1875,6.28125 z M 313.53176,1.9210266 326.97317,-32.883661 h -3.25781 L 310.32083,1.9210266 Z m 20.97657,-35.9999996 h -4.17188 V -8.484375e-4 h 4.17188 V -8.7313172 l 2.16797,-2.4023438 8.01562,11.1328125625 h 5.13281 L 339.60598,-13.67663 l 8.96485,-9.550781 h -5.08594 l -6.80859,8.015625 c -0.67969,0.808594 -1.48829,1.816406 -2.0625,2.636719 h -0.10547 z m 19.15429,34.0781245625 h 4.17188 V -12.387567 c 0,-0.714844 0.10547,-1.394531 0.19922,-1.96875 0.57422,-3.164063 2.68359,-5.425781 5.66015,-5.425781 0.57422,0 1.00782,0.05859 1.44141,0.152343 v -3.984375 c -0.38672,-0.09375 -0.71484,-0.152343 -1.19531,-0.152343 -2.83594,0 -5.37891,1.96875 -6.4336,5.097656 h -0.19922 l -0.14062,-4.558594 h -3.69141 c 0.14063,2.15625 0.1875,4.511719 0.1875,7.242188 z m 20.10938,0 V -23.227411 h -4.21875 V -8.484375e-4 Z M 371.66262,-32.403192 c -1.53515,0 -2.63672,1.160156 -2.63672,2.636719 0,1.441406 1.05469,2.601562 2.54297,2.601562 1.67578,0 2.74219,-1.160156 2.6836,-2.601562 0,-1.476563 -1.00782,-2.636719 -2.58985,-2.636719 z m 9.12012,32.4023435625 h 4.21875 V -13.969598 c 0,-0.714844 0.10547,-1.441407 0.29297,-1.96875 0.71484,-2.355469 2.88281,-4.324219 5.66016,-4.324219 3.98437,0 5.3789,3.128906 5.3789,6.867187 V -8.484375e-4 h 4.23047 V -13.875848 c 0,-7.96875 -4.99219,-9.890625 -8.21484,-9.890625 -3.84375,0 -6.52735,2.167968 -7.67578,4.371093 h -0.0937 l -0.2461,-3.832031 h -3.73828 c 0.14063,1.910156 0.1875,3.878906 0.1875,6.28125 z m 42.9668,-23.2265625625 -0.19922,3.503906 h -0.0937 c -1.00781,-1.921875 -3.21094,-4.042968 -7.24219,-4.042968 -5.33203,0 -10.46484,4.464843 -10.46484,12.339843 0,6.4335941 4.125,11.33203156 9.8789,11.33203156 3.60938,0 6.10547,-1.73437496 7.39453,-3.89062496 h 0.0937 v 2.5898437 c 0,5.859375 -3.16406,8.109375 -7.48828,8.109375 -2.87109,0 -5.27343,-0.8554687 -6.80859,-1.8164062 l -1.05469,3.2109375 c 1.86328,1.2539062 4.94531,1.9218754 7.72266,1.9218754 2.92969,0 6.19922,-0.6679692 8.44922,-2.7890629 2.26172,-2.015625 3.3164,-5.2734375 3.3164,-10.6054688 V -16.852411 c 0,-2.824219 0.0937,-4.699219 0.1875,-6.375 z m -0.67969,13.3359376 c 0,0.7265625 -0.0937,1.5351562 -0.32813,2.2617187 -0.91406,2.6835938 -3.26953,4.3125 -5.85937,4.3125 -4.55859,0 -6.86719,-3.7851562 -6.86719,-8.3437503 0,-5.378906 2.88281,-8.789062 6.91406,-8.789062 3.07032,0 5.13282,2.015625 5.90625,4.464844 0.1875,0.574218 0.23438,1.195312 0.23438,1.921875 z m 40.03125,-0.9609376 c 0.0469,-0.433594 0.15234,-1.101562 0.15234,-1.96875 0,-4.265625 -2.01562,-10.945312 -9.60937,-10.945312 -6.76172,0 -10.88672,5.53125 -10.88672,12.539062 0,7.0078126 4.26562,11.70703131 11.41406,11.70703131 3.70313,0 6.2461,-0.7734375 7.73438,-1.44140625 l -0.71485,-3.02343746 c -1.59375,0.6679687 -3.41015,1.1953125 -6.43359,1.1953125 -4.23047,0 -7.875,-2.34375 -7.96875,-8.0625001 z m -16.26563,-3.023437 c 0.32813,-2.929688 2.20313,-6.855469 6.48047,-6.855469 4.7461,0 5.90625,4.171875 5.84766,6.855469 z M 472.69876,-8.484375e-4 V -23.227411 h -4.21875 V -8.484375e-4 Z M 470.58938,-32.403192 c -1.53516,0 -2.63672,1.160156 -2.63672,2.636719 0,1.441406 1.05469,2.601562 2.54297,2.601562 1.67578,0 2.74219,-1.160156 2.68359,-2.601562 0,-1.476563 -1.00781,-2.636719 -2.58984,-2.636719 z m 9.12305,32.4023435625 h 4.21875 V -13.969598 c 0,-0.714844 0.10547,-1.441407 0.29297,-1.96875 0.71484,-2.355469 2.88281,-4.324219 5.66015,-4.324219 3.98438,0 5.37891,3.128906 5.37891,6.867187 V -8.484375e-4 h 4.23047 V -13.875848 c 0,-7.96875 -4.99219,-9.890625 -8.21485,-9.890625 -3.84375,0 -6.52734,2.167968 -7.67578,4.371093 h -0.0937 l -0.24609,-3.832031 h -3.73828 c 0.14062,1.910156 0.1875,3.878906 0.1875,6.28125 z M 522.19583,-34.078973 v 13.875 h -0.10547 c -1.05469,-1.875 -3.44531,-3.5625 -7.00781,-3.5625 -5.66016,0 -10.45313,4.757812 -10.40625,12.480468 0,7.0664066 4.3125,11.81250031 9.9375,11.81250031 3.78515,0 6.62109,-1.96875001 7.91015,-4.55859371 h 0.10547 l 0.1875,4.0312499625 h 3.79688 C 526.46145,-1.5828797 526.41458,-3.9383484 526.41458,-6.0008484 V -34.078973 Z m 0,24.3398433 c 0,0.6679688 -0.0469,1.2421875 -0.19922,1.8164063 -0.76172,3.1640625 -3.35156,5.0390625 -6.1875,5.0390625 -4.5586,0 -6.86719,-3.890625 -6.86719,-8.5898441 0,-5.132812 2.58984,-8.976562 6.96094,-8.976562 3.16406,0 5.47265,2.214844 6.09375,4.898437 0.15234,0.527344 0.19922,1.242188 0.19922,1.769532 z m 11.22949,9.7382812625 h 4.21875 V -14.016473 c 0,-0.820313 0.0586,-1.441407 0.29297,-2.015625 0.77343,-2.308594 2.92968,-4.230469 5.66015,-4.230469 3.98438,0 5.37891,3.175781 5.37891,6.914062 V -8.484375e-4 h 4.23047 V -13.828973 c 0,-8.015625 -4.99219,-9.9375 -8.1211,-9.9375 -1.58203,0 -3.07031,0.480468 -4.3125,1.207031 -1.30078,0.714844 -2.35546,1.769531 -3.02343,2.976562 h -0.10547 v -14.496093 h -4.21875 z M 569.90872,-23.766473 c -6.4336,0 -11.51953,4.570312 -11.51953,12.339843 0,7.3476566 4.83984,11.95312531 11.13281,11.95312531 5.61328,0 11.5664,-3.73828121 11.5664,-12.33984331 0,-7.101563 -4.51171,-11.953125 -11.17968,-11.953125 z m -0.10547,3.175781 c 4.99219,0 6.96094,4.992187 6.96094,8.929687 0,5.2265628 -3.02344,9.0234378 -7.05469,9.0234378 -4.125,0 -7.05469,-3.84375 -7.05469,-8.9296878 0,-4.417968 2.16797,-9.023437 7.14844,-9.023437 z m 16.61133,20.5898435625 h 4.17187 V -12.387567 c 0,-0.714844 0.10547,-1.394531 0.19922,-1.96875 0.57422,-3.164063 2.68359,-5.425781 5.66016,-5.425781 0.57422,0 1.00781,0.05859 1.4414,0.152343 v -3.984375 c -0.38672,-0.09375 -0.71484,-0.152343 -1.19531,-0.152343 -2.83594,0 -5.37891,1.96875 -6.43359,5.097656 h -0.19922 l -0.14063,-4.558594 h -3.6914 c 0.14062,2.15625 0.1875,4.511719 0.1875,7.242188 z M 620.29934,-10.852411 c 0.0469,-0.433594 0.15235,-1.101562 0.15235,-1.96875 0,-4.265625 -2.01563,-10.945312 -9.60938,-10.945312 -6.76172,0 -10.88672,5.53125 -10.88672,12.539062 0,7.0078126 4.26563,11.70703131 11.41406,11.70703131 3.70313,0 6.2461,-0.7734375 7.73438,-1.44140625 l -0.71484,-3.02343746 c -1.59375,0.6679687 -3.41016,1.1953125 -6.4336,1.1953125 -4.23047,0 -7.875,-2.34375 -7.96875,-8.0625001 z m -16.26562,-3.023437 c 0.32812,-2.929688 2.20312,-6.855469 6.48047,-6.855469 4.74609,0 5.90625,4.171875 5.84765,6.855469 z m 21.64746,13.8749995625 h 4.21875 V -13.969598 c 0,-0.714844 0.10547,-1.441407 0.29297,-1.96875 0.71484,-2.355469 2.88281,-4.324219 5.66015,-4.324219 3.98438,0 5.37891,3.128906 5.37891,6.867187 V -8.484375e-4 h 4.23047 V -13.875848 c 0,-7.96875 -4.99219,-9.890625 -8.21485,-9.890625 -3.84375,0 -6.52734,2.167968 -7.67578,4.371093 h -0.0937 l -0.24609,-3.832031 h -3.73828 c 0.14062,1.910156 0.1875,3.878906 0.1875,6.28125 z M -606.77097,25.153448 h -4.17188 v 34.078125 h 4.17188 v -8.730468 l 2.16797,-2.402344 8.01562,11.132812 h 5.13282 l -10.21875,-13.675781 8.96484,-9.550781 h -5.08594 l -6.80859,8.015625 c -0.67969,0.808594 -1.48828,1.816406 -2.0625,2.636719 h -0.10547 z m 28.18359,10.3125 c -6.43359,0 -11.51953,4.570313 -11.51953,12.339844 0,7.347656 4.83985,11.953125 11.13281,11.953125 5.61329,0 11.56641,-3.738281 11.56641,-12.339844 0,-7.101562 -4.51172,-11.953125 -11.17969,-11.953125 z m -0.10547,3.175782 c 4.99219,0 6.96094,4.992187 6.96094,8.929687 0,5.226563 -3.02344,9.023438 -7.05469,9.023438 -4.125,0 -7.05468,-3.84375 -7.05468,-8.929688 0,-4.417969 2.16797,-9.023437 7.14843,-9.023437 z m 16.61133,20.589843 h 4.21875 v -13.96875 c 0,-0.714843 0.10547,-1.441406 0.29297,-1.96875 0.71485,-2.355468 2.88281,-4.324218 5.66016,-4.324218 3.98437,0 5.3789,3.128906 5.3789,6.867187 v 13.394531 h 4.23047 v -13.875 c 0,-7.96875 -4.99218,-9.890625 -8.21484,-9.890625 -3.84375,0 -6.52734,2.167969 -7.67578,4.371094 h -0.0937 l -0.2461,-3.832031 h -3.73828 c 0.14063,1.910156 0.1875,3.878906 0.1875,6.28125 z m 30.86133,0 V 36.005011 h -4.21875 v 23.226562 z m -2.10937,-32.402343 c -1.53516,0 -2.63672,1.160156 -2.63672,2.636718 0,1.441407 1.05468,2.601563 2.54297,2.601563 1.67578,0 2.74218,-1.160156 2.68359,-2.601563 0,-1.476562 -1.00781,-2.636718 -2.58984,-2.636718 z m 9.12011,32.402343 h 4.21875 v -13.96875 c 0,-0.714843 0.10547,-1.441406 0.29297,-1.96875 0.71485,-2.355468 2.88281,-4.324218 5.66016,-4.324218 3.98437,0 5.3789,3.128906 5.3789,6.867187 v 13.394531 h 4.23047 v -13.875 c 0,-7.96875 -4.99218,-9.890625 -8.21484,-9.890625 -3.84375,0 -6.52734,2.167969 -7.67578,4.371094 h -0.0937 l -0.2461,-3.832031 h -3.73828 c 0.14063,1.910156 0.1875,3.878906 0.1875,6.28125 z m 30.81446,-34.078125 h -4.17188 v 34.078125 h 4.17188 v -8.730468 l 2.16796,-2.402344 8.01563,11.132812 h 5.13281 l -10.21875,-13.675781 8.96485,-9.550781 h -5.08594 l -6.8086,8.015625 c -0.67968,0.808594 -1.48828,1.816406 -2.0625,2.636719 h -0.10546 z m 19.15429,34.078125 h 4.21875 V 25.153448 h -4.21875 z m 15.54785,0 V 36.005011 h -4.21875 v 23.226562 z m -2.10937,-32.402343 c -1.53516,0 -2.63672,1.160156 -2.63672,2.636718 0,1.441407 1.05469,2.601563 2.54297,2.601563 1.67578,0 2.74219,-1.160156 2.68359,-2.601563 0,-1.476562 -1.00781,-2.636718 -2.58984,-2.636718 z m 3.89648,42.433593 c 2.25,0 5.32032,-0.761718 7.19532,-2.636718 2.0625,-2.109375 2.78906,-5.039063 2.78906,-9.550782 V 36.005011 h -4.23047 v 19.429687 c 0,5.578125 -0.43359,7.394532 -1.58203,8.742188 -1.00781,1.101562 -2.68359,1.628906 -4.60547,1.769531 z m 7.91016,-42.433593 c -1.58203,0 -2.68359,1.160156 -2.68359,2.636718 0,1.394532 1.00781,2.601563 2.58984,2.601563 1.6875,0 2.69531,-1.207031 2.63672,-2.601563 0,-1.476562 -1.00781,-2.636718 -2.54297,-2.636718 z m 13.15137,-1.675782 h -4.17188 v 34.078125 h 4.17188 v -8.730468 l 2.16797,-2.402344 8.01562,11.132812 h 5.13281 l -10.21875,-13.675781 8.96485,-9.550781 h -5.08594 l -6.80859,8.015625 c -0.67969,0.808594 -1.48829,1.816406 -2.0625,2.636719 h -0.10547 z m 37.00781,23.226563 c 0.0469,-0.433594 0.15234,-1.101563 0.15234,-1.96875 0,-4.265625 -2.01562,-10.945313 -9.60937,-10.945313 -6.76172,0 -10.88672,5.53125 -10.88672,12.539063 0,7.007812 4.26562,11.707031 11.41406,11.707031 3.70313,0 6.2461,-0.773437 7.73438,-1.441406 l -0.71485,-3.023438 c -1.59375,0.667969 -3.41015,1.195313 -6.43359,1.195313 -4.23047,0 -7.875,-2.34375 -7.96875,-8.0625 z m -16.26563,-3.023438 c 0.32813,-2.929687 2.20313,-6.855468 6.48047,-6.855468 4.7461,0 5.90625,4.171875 5.84766,6.855468 z m 31.82227,13.875 h 4.125 V 45.215948 c 0,-0.714843 0.0937,-1.441406 0.33984,-2.0625 0.66797,-2.109375 2.58985,-4.230468 5.22657,-4.230468 3.22265,0 4.85156,2.695312 4.85156,6.386718 v 13.921875 h 4.125 V 44.876105 c 0,-0.761719 0.15234,-1.535157 0.33984,-2.109375 0.71485,-2.0625 2.58985,-3.84375 4.99219,-3.84375 3.41016,0 5.03906,2.695312 5.03906,7.160156 v 13.148437 h 4.125 V 45.555792 c 0,-8.0625 -4.55859,-10.089844 -7.6289,-10.089844 -2.20313,0 -3.73828,0.585938 -5.13282,1.640625 -0.96093,0.714844 -1.875,1.722657 -2.58984,3.023438 h -0.10547 c -1.00781,-2.742188 -3.39844,-4.664063 -6.57422,-4.664063 -3.83203,0 -6,2.074219 -7.28906,4.277344 h -0.15234 l -0.1875,-3.738281 h -3.69141 c 0.14063,1.910156 0.1875,3.878906 0.1875,6.28125 z m 56.73047,0 c -0.28125,-1.582031 -0.375,-3.550781 -0.375,-5.566406 v -8.695312 c 0,-4.652344 -1.73438,-9.503907 -8.83594,-9.503907 -2.92969,0 -5.70703,0.820313 -7.6289,2.074219 l 0.96093,2.777344 c 1.62891,-1.054688 3.87891,-1.722656 6.04688,-1.722656 4.74609,0 5.27344,3.457031 5.27344,5.367187 v 0.480469 c -8.97657,-0.04687 -13.96875,3.023437 -13.96875,8.648437 0,3.351563 2.40234,6.667969 7.11328,6.667969 3.30468,0 5.80078,-1.628906 7.10156,-3.457031 h 0.14062 l 0.33985,2.929687 z m -4.46484,-7.828125 c 0,0.433594 -0.0937,0.914063 -0.23438,1.347657 -0.66797,1.96875 -2.58984,3.890625 -5.61328,3.890625 -2.16797,0 -3.98438,-1.300782 -3.98438,-4.03125 0,-4.511719 5.22657,-5.332032 9.83204,-5.238282 z m 27.60058,7.828125 c -0.28125,-1.582031 -0.375,-3.550781 -0.375,-5.566406 v -8.695312 c 0,-4.652344 -1.73437,-9.503907 -8.83594,-9.503907 -2.92968,0 -5.70703,0.820313 -7.6289,2.074219 l 0.96094,2.777344 c 1.6289,-1.054688 3.8789,-1.722656 6.04687,-1.722656 4.74609,0 5.27344,3.457031 5.27344,5.367187 v 0.480469 c -8.97656,-0.04687 -13.96875,3.023437 -13.96875,8.648437 0,3.351563 2.40234,6.667969 7.11328,6.667969 3.30469,0 5.80078,-1.628906 7.10156,-3.457031 h 0.14063 l 0.33984,2.929687 z m -4.46484,-7.828125 c 0,0.433594 -0.0937,0.914063 -0.23438,1.347657 -0.66797,1.96875 -2.58984,3.890625 -5.61328,3.890625 -2.16797,0 -3.98437,-1.300782 -3.98437,-4.03125 0,-4.511719 5.22656,-5.332032 9.83203,-5.238282 z m 11.67187,-20.976562 v 5.578125 h -3.59765 v 3.210937 h 3.59765 v 12.667969 c 0,2.742188 0.4336,4.804688 1.62891,6.046875 1.00781,1.160156 2.58984,1.78125 4.55859,1.78125 1.64063,0 2.92969,-0.246094 3.75,-0.574219 l -0.19922,-3.175781 c -0.52734,0.152344 -1.33593,0.292969 -2.4375,0.292969 -2.35546,0 -3.17578,-1.628906 -3.17578,-4.511719 V 39.215948 h 6.04688 v -3.210937 h -6.04688 v -6.679688 z m 24.4834,5.039062 c -6.43359,0 -11.51953,4.570313 -11.51953,12.339844 0,7.347656 4.83984,11.953125 11.13281,11.953125 5.61328,0 11.56641,-3.738281 11.56641,-12.339844 0,-7.101562 -4.51172,-11.953125 -11.17969,-11.953125 z m -0.10547,3.175782 c 4.99219,0 6.96094,4.992187 6.96094,8.929687 0,5.226563 -3.02344,9.023438 -7.05469,9.023438 -4.125,0 -7.05469,-3.84375 -7.05469,-8.929688 0,-4.417969 2.16797,-9.023437 7.14844,-9.023437 z m 32.45508,16.558593 c -1.20703,0.527344 -2.78906,1.148438 -5.19141,1.148438 -4.60546,0 -8.0625,-3.304688 -8.0625,-8.683594 0,-4.851562 2.88282,-8.789062 8.21485,-8.789062 2.29687,0 3.8789,0.527343 4.88672,1.113281 l 0.96093,-3.269531 c -1.14843,-0.574219 -3.35156,-1.195313 -5.84765,-1.195313 -7.59375,0 -12.48047,5.179688 -12.48047,12.328125 0,7.101563 4.55859,11.859375 11.56641,11.859375 3.11718,0 5.5664,-0.773437 6.66796,-1.347656 z m 5.66016,4.03125 h 4.21875 V 45.215948 c 0,-0.820312 0.0586,-1.441406 0.29297,-2.015625 0.77343,-2.308593 2.92968,-4.230468 5.66015,-4.230468 3.98438,0 5.37891,3.175781 5.37891,6.914062 v 13.347656 h 4.23047 V 45.403448 c 0,-8.015625 -4.99219,-9.9375 -8.1211,-9.9375 -1.58203,0 -3.07031,0.480469 -4.3125,1.207032 -1.30078,0.714843 -2.35547,1.769531 -3.02343,2.976562 h -0.10547 V 25.153448 h -4.21875 z m 43.34179,0 c -0.28125,-1.582031 -0.375,-3.550781 -0.375,-5.566406 v -8.695312 c 0,-4.652344 -1.73437,-9.503907 -8.83593,-9.503907 -2.92969,0 -5.70704,0.820313 -7.62891,2.074219 l 0.96094,2.777344 c 1.6289,-1.054688 3.8789,-1.722656 6.04687,-1.722656 4.7461,0 5.27344,3.457031 5.27344,5.367187 v 0.480469 c -8.97656,-0.04687 -13.96875,3.023437 -13.96875,8.648437 0,3.351563 2.40234,6.667969 7.11328,6.667969 3.30469,0 5.80078,-1.628906 7.10156,-3.457031 h 0.14063 l 0.33984,2.929687 z m -4.46484,-7.828125 c 0,0.433594 -0.0937,0.914063 -0.23438,1.347657 -0.66796,1.96875 -2.58984,3.890625 -5.61328,3.890625 -2.16797,0 -3.98437,-1.300782 -3.98437,-4.03125 0,-4.511719 5.22656,-5.332032 9.83203,-5.238282 z m 10.90137,17.332032 h 4.17187 V 56.114386 h 0.10547 c 1.38281,2.296875 4.07813,3.644531 7.14844,3.644531 5.47265,0 10.55859,-4.125 10.55859,-12.480469 0,-7.054687 -4.21875,-11.8125 -9.84375,-11.8125 -3.78515,0 -6.52734,1.6875 -8.25,4.523438 h -0.0937 l -0.19922,-3.984375 h -3.78515 c 0.0937,2.203125 0.1875,4.605469 0.1875,7.582031 z m 4.17187,-22.945313 c 0,-0.574219 0.15235,-1.195312 0.29297,-1.722656 0.82031,-3.175781 3.50391,-5.238281 6.38672,-5.238281 4.46484,0 6.91406,3.984375 6.91406,8.636718 0,5.332032 -2.60156,8.976563 -7.0664,8.976563 -3.02344,0 -5.56641,-2.015625 -6.32813,-4.933594 -0.0937,-0.539062 -0.19922,-1.113281 -0.19922,-1.734375 z m 23.13867,22.945313 h 4.17188 V 56.114386 h 0.10547 c 1.38281,2.296875 4.07812,3.644531 7.14844,3.644531 5.47265,0 10.55859,-4.125 10.55859,-12.480469 0,-7.054687 -4.21875,-11.8125 -9.84375,-11.8125 -3.78516,0 -6.52734,1.6875 -8.25,4.523438 h -0.0937 l -0.19922,-3.984375 h -3.78516 c 0.0937,2.203125 0.1875,4.605469 0.1875,7.582031 z m 4.17188,-22.945313 c 0,-0.574219 0.15234,-1.195312 0.29297,-1.722656 0.82031,-3.175781 3.5039,-5.238281 6.38672,-5.238281 4.46484,0 6.91406,3.984375 6.91406,8.636718 0,5.332032 -2.60156,8.976563 -7.06641,8.976563 -3.02343,0 -5.5664,-2.015625 -6.32812,-4.933594 -0.0937,-0.539062 -0.19922,-1.113281 -0.19922,-1.734375 z m 27.36035,13.441406 V 36.005011 h -4.21875 v 23.226562 z m -2.10937,-32.402343 c -1.53516,0 -2.63672,1.160156 -2.63672,2.636718 0,1.441407 1.05468,2.601563 2.54297,2.601563 1.67578,0 2.74218,-1.160156 2.68359,-2.601563 0,-1.476562 -1.00781,-2.636718 -2.58984,-2.636718 z m 3.89355,42.433593 c 2.25,0 5.32031,-0.761718 7.19531,-2.636718 2.0625,-2.109375 2.78907,-5.039063 2.78907,-9.550782 V 36.005011 h -4.23047 v 19.429687 c 0,5.578125 -0.4336,7.394532 -1.58203,8.742188 -1.00782,1.101562 -2.6836,1.628906 -4.60547,1.769531 z m 7.91016,-42.433593 c -1.58203,0 -2.6836,1.160156 -2.6836,2.636718 0,1.394532 1.00782,2.601563 2.58985,2.601563 1.6875,0 2.69531,-1.207031 2.63672,-2.601563 0,-1.476562 -1.00782,-2.636718 -2.54297,-2.636718 z m 20.118161,3.597656 v 5.578125 h -3.597657 v 3.210937 h 3.597657 v 12.667969 c 0,2.742188 0.433593,4.804688 1.628906,6.046875 1.007812,1.160156 2.589844,1.78125 4.558594,1.78125 1.640625,0 2.929687,-0.246094 3.75,-0.574219 l -0.199219,-3.175781 c -0.527344,0.152344 -1.335938,0.292969 -2.4375,0.292969 -2.355469,0 -3.175781,-1.628906 -3.175781,-4.511719 V 39.215948 h 6.046875 v -3.210937 h -6.046875 v -6.679688 z m 24.483398,5.039062 c -6.433594,0 -11.519531,4.570313 -11.519531,12.339844 0,7.347656 4.839844,11.953125 11.132812,11.953125 5.613282,0 11.566407,-3.738281 11.566407,-12.339844 0,-7.101562 -4.511719,-11.953125 -11.179688,-11.953125 z m -0.105469,3.175782 c 4.992188,0 6.960938,4.992187 6.960938,8.929687 0,5.226563 -3.023438,9.023438 -7.054688,9.023438 -4.125,0 -7.054687,-3.84375 -7.054687,-8.929688 0,-4.417969 2.167969,-9.023437 7.148437,-9.023437 z m 17.575196,-8.214844 v 5.578125 h -3.597657 v 3.210937 h 3.597657 v 12.667969 c 0,2.742188 0.433593,4.804688 1.628906,6.046875 1.007812,1.160156 2.589844,1.78125 4.558594,1.78125 1.640625,0 2.929687,-0.246094 3.75,-0.574219 l -0.199219,-3.175781 c -0.527344,0.152344 -1.335938,0.292969 -2.4375,0.292969 -2.355469,0 -3.175781,-1.628906 -3.175781,-4.511719 V 39.215948 h 6.046875 v -3.210937 h -6.046875 v -6.679688 z m 28.558593,28.804687 0.1875,-3.84375 h 0.152344 c 1.722656,3.070313 4.40625,4.371094 7.769531,4.371094 5.191407,0 10.4179691,-4.125 10.4179691,-12.433594 0.046875,-7.054687 -4.0312501,-11.859375 -9.7968751,-11.859375 -3.738281,0 -6.421875,1.6875 -7.910156,4.277344 h -0.105469 V 25.153448 h -4.171875 v 28.078125 c 0,2.0625 -0.09375,4.417969 -0.1875,6 z m 0.714844,-13.488281 c 0,-0.667969 0.152344,-1.242187 0.246094,-1.722656 0.867187,-3.222656 3.550781,-5.191406 6.433594,-5.191406 4.511718,0 6.914062,3.984375 6.914062,8.636718 0,5.332032 -2.648437,8.929688 -7.066406,8.929688 -3.070313,0 -5.519531,-2.015625 -6.328125,-4.945313 -0.09375,-0.480468 -0.199219,-1.007812 -0.199219,-1.535156 z m 41.80957,2.636719 c 0.04687,-0.433594 0.152344,-1.101563 0.152344,-1.96875 0,-4.265625 -2.015625,-10.945313 -9.6093748,-10.945313 -6.7617188,0 -10.8867188,5.53125 -10.8867188,12.539063 0,7.007812 4.265625,11.707031 11.4140625,11.707031 3.7031251,0 6.2460941,-0.773437 7.7343751,-1.441406 l -0.714844,-3.023438 c -1.59375,0.667969 -3.410156,1.195313 -6.4335936,1.195313 -4.2304687,0 -7.875,-2.34375 -7.96875,-8.0625 z M 1.4907484,45.356573 c 0.328125,-2.929687 2.203125,-6.855468 6.4804688,-6.855468 4.7460938,0 5.9062498,4.171875 5.8476558,6.855468 z m 21.6445316,13.875 h 4.21875 v -13.96875 c 0,-0.714843 0.105468,-1.441406 0.292968,-1.96875 0.714844,-2.355468 2.882813,-4.324218 5.660157,-4.324218 3.984375,0 5.378906,3.128906 5.378906,6.867187 v 13.394531 h 4.230469 v -13.875 c 0,-7.96875 -4.992188,-9.890625 -8.214844,-9.890625 -3.84375,0 -6.527344,2.167969 -7.675781,4.371094 h -0.09375 L 26.686061,36.005011 H 22.94778 c 0.140625,1.910156 0.1875,3.878906 0.1875,6.28125 z M 59.618678,35.465948 c -6.433594,0 -11.519531,4.570313 -11.519531,12.339844 0,7.347656 4.839844,11.953125 11.132812,11.953125 5.613282,0 11.566407,-3.738281 11.566407,-12.339844 0,-7.101562 -4.511719,-11.953125 -11.179688,-11.953125 z m -0.105469,3.175782 c 4.992188,0 6.960938,4.992187 6.960938,8.929687 0,5.226563 -3.023438,9.023438 -7.054688,9.023438 -4.125,0 -7.054687,-3.84375 -7.054687,-8.929688 0,-4.417969 2.167969,-9.023437 7.148437,-9.023437 z m 16.614258,20.589843 h 4.171875 V 46.844855 c 0,-0.714844 0.105469,-1.394532 0.199219,-1.96875 0.574219,-3.164063 2.683594,-5.425782 5.660156,-5.425782 0.574219,0 1.007813,0.05859 1.441406,0.152344 v -3.984375 c -0.386718,-0.09375 -0.714843,-0.152344 -1.195312,-0.152344 -2.835938,0 -5.378906,1.96875 -6.433594,5.097657 h -0.199219 l -0.140625,-4.558594 h -3.691406 c 0.140625,2.15625 0.1875,4.511719 0.1875,7.242187 z M 107.18801,25.153448 v 13.875 h -0.10546 c -1.05469,-1.875 -3.44532,-3.5625 -7.00782,-3.5625 -5.660153,0 -10.453122,4.757813 -10.406247,12.480469 0,7.066406 4.3125,11.8125 9.9375,11.8125 3.785157,0 6.621097,-1.96875 7.910157,-4.558594 h 0.10547 l 0.1875,4.03125 h 3.79687 c -0.15234,-1.582031 -0.19922,-3.9375 -0.19922,-6 V 25.153448 Z m 0,24.339844 c 0,0.667969 -0.0469,1.242188 -0.19921,1.816406 -0.76172,3.164063 -3.35157,5.039063 -6.1875,5.039063 -4.558598,0 -6.867192,-3.890625 -6.867192,-8.589844 0,-5.132812 2.589844,-8.976562 6.960942,-8.976562 3.16406,0 5.47265,2.214843 6.09375,4.898437 0.15234,0.527344 0.19921,1.242188 0.19921,1.769531 z m 29.89454,-1.113281 c 0.0469,-0.433594 0.15234,-1.101563 0.15234,-1.96875 0,-4.265625 -2.01563,-10.945313 -9.60938,-10.945313 -6.76171,0 -10.88671,5.53125 -10.88671,12.539063 0,7.007812 4.26562,11.707031 11.41406,11.707031 3.70312,0 6.24609,-0.773437 7.73437,-1.441406 l -0.71484,-3.023438 c -1.59375,0.667969 -3.41016,1.195313 -6.43359,1.195313 -4.23047,0 -7.875,-2.34375 -7.96875,-8.0625 z m -16.26563,-3.023438 c 0.32813,-2.929687 2.20313,-6.855468 6.48047,-6.855468 4.74609,0 5.90625,4.171875 5.84766,6.855468 z m 21.64746,13.875 h 4.17188 V 46.844855 c 0,-0.714844 0.10546,-1.394532 0.19921,-1.96875 0.57422,-3.164063 2.6836,-5.425782 5.66016,-5.425782 0.57422,0 1.00781,0.05859 1.44141,0.152344 v -3.984375 c -0.38672,-0.09375 -0.71485,-0.152344 -1.19532,-0.152344 -2.83593,0 -5.3789,1.96875 -6.43359,5.097657 h -0.19922 l -0.14062,-4.558594 h -3.69141 c 0.14063,2.15625 0.1875,4.511719 0.1875,7.242187 z m 20.10645,0 V 36.005011 h -4.21875 V 59.231573 Z M 160.46145,26.82923 c -1.53515,0 -2.63672,1.160156 -2.63672,2.636718 0,1.441407 1.05469,2.601563 2.54297,2.601563 1.67578,0 2.74219,-1.160156 2.6836,-2.601563 0,-1.476562 -1.00782,-2.636718 -2.58985,-2.636718 z m 9.12305,32.402343 h 4.21875 v -13.96875 c 0,-0.714843 0.10547,-1.441406 0.29297,-1.96875 0.71484,-2.355468 2.88281,-4.324218 5.66015,-4.324218 3.98438,0 5.37891,3.128906 5.37891,6.867187 v 13.394531 h 4.23047 v -13.875 c 0,-7.96875 -4.99219,-9.890625 -8.21485,-9.890625 -3.84375,0 -6.52734,2.167969 -7.67578,4.371094 h -0.0937 l -0.24609,-3.832031 H 169.397 c 0.14062,1.910156 0.1875,3.878906 0.1875,6.28125 z m 42.96387,-23.226562 -0.19922,3.503906 h -0.0937 c -1.00782,-1.921875 -3.21094,-4.042969 -7.24219,-4.042969 -5.33203,0 -10.46484,4.464844 -10.46484,12.339844 0,6.433594 4.125,11.332031 9.8789,11.332031 3.60938,0 6.10547,-1.734375 7.39453,-3.890625 h 0.0937 v 2.589844 c 0,5.859375 -3.16406,8.109375 -7.48828,8.109375 -2.87109,0 -5.27344,-0.855469 -6.80859,-1.816406 l -1.05469,3.210937 c 1.86328,1.253907 4.94531,1.921875 7.72266,1.921875 2.92968,0 6.19922,-0.667968 8.44922,-2.789062 2.26171,-2.015625 3.3164,-5.273438 3.3164,-10.605469 V 42.380011 c 0,-2.824219 0.0937,-4.699219 0.1875,-6.375 z m -0.67969,13.335937 c 0,0.726563 -0.0937,1.535157 -0.32813,2.261719 -0.91406,2.683594 -3.26953,4.3125 -5.85937,4.3125 -4.5586,0 -6.86719,-3.785156 -6.86719,-8.34375 0,-5.378906 2.88281,-8.789062 6.91406,-8.789062 3.07032,0 5.13282,2.015625 5.90625,4.464843 0.1875,0.574219 0.23438,1.195313 0.23438,1.921875 z m 37.20703,-24.1875 v 13.875 h -0.10547 c -1.05469,-1.875 -3.44531,-3.5625 -7.00781,-3.5625 -5.66016,0 -10.45313,4.757813 -10.40625,12.480469 0,7.066406 4.3125,11.8125 9.9375,11.8125 3.78515,0 6.62109,-1.96875 7.91015,-4.558594 h 0.10547 l 0.1875,4.03125 h 3.79688 c -0.15235,-1.582031 -0.19922,-3.9375 -0.19922,-6 V 25.153448 Z m 0,24.339844 c 0,0.667969 -0.0469,1.242188 -0.19922,1.816406 -0.76172,3.164063 -3.35156,5.039063 -6.1875,5.039063 -4.55859,0 -6.86719,-3.890625 -6.86719,-8.589844 0,-5.132812 2.58985,-8.976562 6.96094,-8.976562 3.16406,0 5.47266,2.214843 6.09375,4.898437 0.15234,0.527344 0.19922,1.242188 0.19922,1.769531 z m 29.89746,-1.113281 c 0.0469,-0.433594 0.15234,-1.101563 0.15234,-1.96875 0,-4.265625 -2.01562,-10.945313 -9.60937,-10.945313 -6.76172,0 -10.88672,5.53125 -10.88672,12.539063 0,7.007812 4.26563,11.707031 11.41406,11.707031 3.70313,0 6.2461,-0.773437 7.73438,-1.441406 l -0.71485,-3.023438 c -1.59375,0.667969 -3.41015,1.195313 -6.43359,1.195313 -4.23047,0 -7.875,-2.34375 -7.96875,-8.0625 z m -16.26562,-3.023438 c 0.32812,-2.929687 2.20312,-6.855468 6.48046,-6.855468 4.7461,0 5.90625,4.171875 5.84766,6.855468 z m 21.64453,13.875 h 4.17187 V 46.844855 c 0,-0.714844 0.10547,-1.394532 0.19922,-1.96875 0.57422,-3.164063 2.68359,-5.425782 5.66016,-5.425782 0.57422,0 1.00781,0.05859 1.4414,0.152344 v -3.984375 c -0.38672,-0.09375 -0.71484,-0.152344 -1.19531,-0.152344 -2.83594,0 -5.37891,1.96875 -6.43359,5.097657 h -0.19922 l -0.14063,-4.558594 h -3.6914 c 0.14062,2.15625 0.1875,4.511719 0.1875,7.242187 z m 29.3291,0 0.1875,-3.84375 h 0.15234 c 1.72266,3.070313 4.40625,4.371094 7.76953,4.371094 5.19141,0 10.41797,-4.125 10.41797,-12.433594 0.0469,-7.054687 -4.03125,-11.859375 -9.79687,-11.859375 -3.73828,0 -6.42188,1.6875 -7.91016,4.277344 h -0.10547 V 25.153448 h -4.17187 v 28.078125 c 0,2.0625 -0.0937,4.417969 -0.1875,6 z m 0.71484,-13.488281 c 0,-0.667969 0.15235,-1.242187 0.2461,-1.722656 0.86718,-3.222656 3.55078,-5.191406 6.43359,-5.191406 4.51172,0 6.91406,3.984375 6.91406,8.636718 0,5.332032 -2.64844,8.929688 -7.0664,8.929688 -3.07032,0 -5.51954,-2.015625 -6.32813,-4.945313 -0.0937,-0.480468 -0.19922,-1.007812 -0.19922,-1.535156 z m 32.98242,-10.277344 c -6.43359,0 -11.51953,4.570313 -11.51953,12.339844 0,7.347656 4.83985,11.953125 11.13281,11.953125 5.61329,0 11.56641,-3.738281 11.56641,-12.339844 0,-7.101562 -4.51172,-11.953125 -11.17969,-11.953125 z m -0.10547,3.175782 c 4.99219,0 6.96094,4.992187 6.96094,8.929687 0,5.226563 -3.02344,9.023438 -7.05469,9.023438 -4.125,0 -7.05468,-3.84375 -7.05468,-8.929688 0,-4.417969 2.16797,-9.023437 7.14843,-9.023437 z m 26.45801,-3.175782 c -6.43359,0 -11.51953,4.570313 -11.51953,12.339844 0,7.347656 4.83985,11.953125 11.13281,11.953125 5.61329,0 11.56641,-3.738281 11.56641,-12.339844 0,-7.101562 -4.51172,-11.953125 -11.17969,-11.953125 z m -0.10547,3.175782 c 4.99219,0 6.96094,4.992187 6.96094,8.929687 0,5.226563 -3.02344,9.023438 -7.05469,9.023438 -4.125,0 -7.05468,-3.84375 -7.05468,-8.929688 0,-4.417969 2.16797,-9.023437 7.14843,-9.023437 z m 13.64063,-2.636719 7.00781,23.226562 h 3.83203 l 3.75,-11.039062 c 0.82032,-2.496094 1.53516,-4.898438 2.10938,-7.675781 h 0.0937 c 0.57422,2.730468 1.2539,5.039062 2.0625,7.628906 l 3.5625,11.085937 h 3.83203 l 7.48828,-23.226562 h -4.17187 l -3.31641,11.660156 c -0.76172,2.730469 -1.39453,5.179688 -1.76953,7.535156 h -0.15235 c -0.52734,-2.355468 -1.19531,-4.804687 -2.0625,-7.582031 l -3.59765,-11.613281 h -3.55078 l -3.79688,11.847656 c -0.76172,2.496094 -1.53515,4.992188 -2.0625,7.347656 h -0.14062 c -0.4336,-2.402343 -1.05469,-4.804687 -1.72266,-7.394531 l -3.08203,-11.800781 z m 42.13769,-10.851563 h -4.17187 v 34.078125 h 4.17187 v -8.730468 l 2.16797,-2.402344 8.01563,11.132812 h 5.13281 l -10.21875,-13.675781 8.96484,-9.550781 h -5.08593 l -6.8086,8.015625 c -0.67968,0.808594 -1.48828,1.816406 -2.0625,2.636719 h -0.10547 z m 37.97461,10.851563 h -4.23047 v 14.25 c 0,0.773437 -0.14062,1.535156 -0.375,2.15625 -0.77343,1.875 -2.74218,3.84375 -5.5664,3.84375 -3.84375,0 -5.19141,-2.976563 -5.19141,-7.394531 V 36.005011 h -4.21875 v 13.582031 c 0,8.15625 4.35938,10.171875 8.01563,10.171875 4.125,0 6.57422,-2.449219 7.67578,-4.324219 h 0.0937 l 0.24609,3.796875 h 3.73828 c -0.14062,-1.828125 -0.1875,-3.9375 -0.1875,-6.339843 z m 7.00489,23.226562 h 4.17187 V 46.844855 c 0,-0.714844 0.10547,-1.394532 0.19922,-1.96875 0.57422,-3.164063 2.68359,-5.425782 5.66016,-5.425782 0.57422,0 1.00781,0.05859 1.4414,0.152344 v -3.984375 c -0.38672,-0.09375 -0.71484,-0.152344 -1.19531,-0.152344 -2.83594,0 -5.37891,1.96875 -6.43359,5.097657 h -0.19922 l -0.14063,-4.558594 h -3.6914 c 0.14062,2.15625 0.1875,4.511719 0.1875,7.242187 z m 20.10644,0 V 36.005011 h -4.21875 V 59.231573 Z M 492.3804,26.82923 c -1.53516,0 -2.63672,1.160156 -2.63672,2.636718 0,1.441407 1.05469,2.601563 2.54297,2.601563 1.67578,0 2.74218,-1.160156 2.68359,-2.601563 0,-1.476562 -1.00781,-2.636718 -2.58984,-2.636718 z m 7.49414,31.300781 c 1.6289,0.960937 3.98437,1.582031 6.52734,1.582031 5.51953,0 8.68359,-2.882812 8.68359,-6.960937 0,-3.457032 -2.0625,-5.472657 -6.09375,-7.007813 -3.02343,-1.148437 -4.41796,-2.015625 -4.41796,-3.9375 0,-1.722656 1.39453,-3.164062 3.89062,-3.164062 2.15625,0 3.84375,0.761718 4.74609,1.347656 l 1.06641,-3.082031 c -1.30078,-0.761719 -3.36328,-1.441407 -5.71875,-1.441407 -4.99219,0 -8.01562,3.082032 -8.01562,6.820313 0,2.789062 1.96875,5.085937 6.14062,6.574219 3.12891,1.160156 4.32422,2.261718 4.32422,4.277343 0,1.921875 -1.44141,3.457032 -4.51172,3.457032 -2.10937,0 -4.32422,-0.867188 -5.56641,-1.6875 z m 21.59765,-27.703125 v 5.578125 h -3.59765 v 3.210937 h 3.59765 v 12.667969 c 0,2.742188 0.4336,4.804688 1.62891,6.046875 1.00781,1.160156 2.58984,1.78125 4.55859,1.78125 1.64063,0 2.92969,-0.246094 3.75,-0.574219 l -0.19922,-3.175781 c -0.52734,0.152344 -1.33593,0.292969 -2.4375,0.292969 -2.35546,0 -3.17578,-1.628906 -3.17578,-4.511719 V 39.215948 h 6.04688 v -3.210937 h -6.04688 v -6.679688 z m 28.56153,28.804687 0.1875,-3.84375 h 0.15234 c 1.72266,3.070313 4.40625,4.371094 7.76953,4.371094 5.19141,0 10.41797,-4.125 10.41797,-12.433594 0.0469,-7.054687 -4.03125,-11.859375 -9.79687,-11.859375 -3.73829,0 -6.42188,1.6875 -7.91016,4.277344 h -0.10547 V 25.153448 h -4.17187 v 28.078125 c 0,2.0625 -0.0937,4.417969 -0.1875,6 z m 0.71484,-13.488281 c 0,-0.667969 0.15234,-1.242187 0.24609,-1.722656 0.86719,-3.222656 3.55079,-5.191406 6.4336,-5.191406 4.51172,0 6.91406,3.984375 6.91406,8.636718 0,5.332032 -2.64844,8.929688 -7.06641,8.929688 -3.07031,0 -5.51953,-2.015625 -6.32812,-4.945313 -0.0937,-0.480468 -0.19922,-1.007812 -0.19922,-1.535156 z m 23.81543,14.015625 c 1.76953,0 2.87109,-1.300781 2.87109,-3.023437 0,-1.78125 -1.14843,-3.023438 -2.82421,-3.023438 -1.6875,0 -2.88282,1.242188 -2.88282,3.023438 0,1.722656 1.14844,3.023437 2.83594,3.023437 z m 8.10938,-0.527344 h 4.21875 v -13.96875 c 0,-0.714843 0.10546,-1.441406 0.29296,-1.96875 0.71485,-2.355468 2.88282,-4.324218 5.66016,-4.324218 3.98438,0 5.37891,3.128906 5.37891,6.867187 v 13.394531 h 4.23047 v -13.875 c 0,-7.96875 -4.99219,-9.890625 -8.21485,-9.890625 -3.84375,0 -6.52734,2.167969 -7.67578,4.371094 h -0.0937 l -0.24609,-3.832031 h -3.73828 c 0.14062,1.910156 0.1875,3.878906 0.1875,6.28125 z m 28.46777,0.527344 c 1.76953,0 2.87109,-1.300781 2.87109,-3.023437 0,-1.78125 -1.14843,-3.023438 -2.82422,-3.023438 -1.6875,0 -2.88281,1.242188 -2.88281,3.023438 0,1.722656 1.14844,3.023437 2.83594,3.023437 z m 24.80566,-0.527344 c -0.28125,-1.582031 -0.375,-3.550781 -0.375,-5.566406 v -8.695312 c 0,-4.652344 -1.73437,-9.503907 -8.83593,-9.503907 -2.92969,0 -5.70704,0.820313 -7.62891,2.074219 l 0.96094,2.777344 c 1.6289,-1.054688 3.8789,-1.722656 6.04687,-1.722656 4.7461,0 5.27344,3.457031 5.27344,5.367187 v 0.480469 c -8.97656,-0.04687 -13.96875,3.023437 -13.96875,8.648437 0,3.351563 2.40234,6.667969 7.11328,6.667969 3.30469,0 5.80078,-1.628906 7.10156,-3.457031 h 0.14063 l 0.33984,2.929687 z m -4.46484,-7.828125 c 0,0.433594 -0.0937,0.914063 -0.23438,1.347657 -0.66796,1.96875 -2.58984,3.890625 -5.61328,3.890625 -2.16797,0 -3.98437,-1.300782 -3.98437,-4.03125 0,-4.511719 5.22656,-5.332032 9.83203,-5.238282 z m 12.72949,8.355469 c 1.76953,0 2.8711,-1.300781 2.8711,-3.023437 0,-1.78125 -1.14844,-3.023438 -2.82422,-3.023438 -1.6875,0 -2.88282,1.242188 -2.88282,3.023438 0,1.722656 1.14844,3.023437 2.83594,3.023437 z M 13.827662,359.2345 v 13.875 h -0.105468 c -1.054688,-1.875 -3.445313,-3.5625 -7.0078128,-3.5625 -5.6601562,0 -10.453125,4.75782 -10.40625,12.48047 0,7.06641 4.31250005,11.8125 9.9375,11.8125 3.7851558,0 6.6210938,-1.96875 7.9101558,-4.55859 h 0.105469 l 0.1875,4.03125 h 3.796875 c -0.152344,-1.58203 -0.199219,-3.9375 -0.199219,-6 V 359.2345 Z m 0,24.33985 c 0,0.66797 -0.04687,1.24218 -0.199218,1.8164 -0.761719,3.16407 -3.351563,5.03907 -6.1875003,5.03907 -4.5585937,0 -6.86718745,-3.89063 -6.86718745,-8.58985 0,-5.13281 2.58984375,-8.97656 6.96093745,-8.97656 3.1640623,0 5.4726563,2.21484 6.0937503,4.89844 0.152343,0.52734 0.199218,1.24218 0.199218,1.76953 z m 27.928711,9.73828 c -0.28125,-1.58203 -0.375,-3.55078 -0.375,-5.56641 v -8.69531 c 0,-4.65234 -1.734375,-9.50391 -8.835937,-9.50391 -2.929688,0 -5.707031,0.82032 -7.628906,2.07422 l 0.960937,2.77735 c 1.628906,-1.05469 3.878906,-1.72266 6.046875,-1.72266 4.746094,0 5.273438,3.45703 5.273438,5.36719 v 0.48047 c -8.976563,-0.0469 -13.96875,3.02343 -13.96875,8.64843 0,3.35157 2.402343,6.66797 7.113281,6.66797 3.304687,0 5.800781,-1.6289 7.101562,-3.45703 h 0.140625 l 0.339844,2.92969 z M 37.29153,385.4845 c 0,0.4336 -0.09375,0.91407 -0.234375,1.34766 -0.667969,1.96875 -2.589844,3.89062 -5.613282,3.89062 -2.167968,0 -3.984375,-1.30078 -3.984375,-4.03125 0,-4.51171 5.226563,-5.33203 9.832032,-5.23828 z m 27.225586,-15.39843 -0.199219,3.5039 h -0.09375 c -1.007813,-1.92187 -3.210938,-4.04297 -7.242188,-4.04297 -5.332031,0 -10.464843,4.46485 -10.464843,12.33985 0,6.43359 4.125,11.33203 9.878906,11.33203 3.609375,0 6.105469,-1.73438 7.394531,-3.89063 h 0.09375 v 2.58985 c 0,5.85937 -3.164062,8.10937 -7.488281,8.10937 -2.871094,0 -5.273438,-0.85547 -6.808594,-1.8164 l -1.054687,3.21093 c 1.863281,1.25391 4.945312,1.92188 7.722656,1.92188 2.929687,0 6.199219,-0.66797 8.449219,-2.78906 2.261718,-2.01563 3.316406,-5.27344 3.316406,-10.60547 v -13.48828 c 0,-2.82422 0.09375,-4.69922 0.1875,-6.375 z M 63.837428,383.422 c 0,0.72657 -0.09375,1.53516 -0.328125,2.26172 -0.914062,2.6836 -3.269531,4.3125 -5.859375,4.3125 -4.558594,0 -6.867187,-3.78515 -6.867187,-8.34375 0,-5.3789 2.882812,-8.78906 6.914062,-8.78906 3.070313,0 5.132813,2.01562 5.90625,4.46484 0.1875,0.57422 0.234375,1.19532 0.234375,1.92188 z m 29.853516,-0.96093 c 0.04687,-0.4336 0.152343,-1.10157 0.152343,-1.96875 0,-4.26563 -2.015625,-10.94532 -9.609375,-10.94532 -6.761718,0 -10.886718,5.53125 -10.886718,12.53907 0,7.00781 4.265625,11.70703 11.414062,11.70703 3.703125,0 6.246094,-0.77344 7.734375,-1.44141 l -0.714844,-3.02344 c -1.59375,0.66797 -3.410156,1.19532 -6.433593,1.19532 -4.230469,0 -7.875,-2.34375 -7.96875,-8.0625 z m -16.265625,-3.02344 c 0.328125,-2.92969 2.203125,-6.85547 6.480468,-6.85547 4.746094,0 5.90625,4.17187 5.847657,6.85547 z m 21.647461,13.875 h 4.21875 V 359.2345 h -4.21875 z m 15.54492,0 v -23.22656 h -4.21875 v 23.22656 z m -2.10937,-32.40235 c -1.53516,0 -2.63672,1.16016 -2.63672,2.63672 0,1.44141 1.05469,2.60157 2.54297,2.60157 1.67578,0 2.74218,-1.16016 2.68359,-2.60157 0,-1.47656 -1.00781,-2.63672 -2.58984,-2.63672 z m 3.89648,42.4336 c 2.25,0 5.32031,-0.76172 7.19531,-2.63672 2.0625,-2.10938 2.78907,-5.03906 2.78907,-9.55078 v -21.07031 h -4.23047 v 19.42968 c 0,5.57813 -0.4336,7.39453 -1.58203,8.74219 -1.00782,1.10156 -2.6836,1.62891 -4.60547,1.76953 z m 7.91016,-42.4336 c -1.58203,0 -2.6836,1.16016 -2.6836,2.63672 0,1.39453 1.00782,2.60157 2.58985,2.60157 1.6875,0 2.69531,-1.20704 2.63672,-2.60157 0,-1.47656 -1.00782,-2.63672 -2.54297,-2.63672 z m 13.15136,-1.67578 h -4.17187 v 34.07813 h 4.17187 v -8.73047 l 2.16797,-2.40234 8.01563,11.13281 h 5.13281 l -10.21875,-13.67578 8.96484,-9.55078 h -5.08593 l -6.8086,8.01562 c -0.67968,0.80859 -1.48828,1.81641 -2.0625,2.63672 h -0.10547 z m 16.71387,32.97657 c 1.62891,0.96093 3.98438,1.58203 6.52735,1.58203 5.51953,0 8.68359,-2.88282 8.68359,-6.96094 0,-3.45703 -2.0625,-5.47266 -6.09375,-7.00781 -3.02344,-1.14844 -4.41797,-2.01563 -4.41797,-3.9375 0,-1.72266 1.39453,-3.16407 3.89063,-3.16407 2.15625,0 3.84375,0.76172 4.74609,1.34766 l 1.06641,-3.08203 c -1.30079,-0.76172 -3.36329,-1.44141 -5.71875,-1.44141 -4.99219,0 -8.01563,3.08203 -8.01563,6.82032 0,2.78906 1.96875,5.08593 6.14063,6.57421 3.1289,1.16016 4.32421,2.26172 4.32421,4.27735 0,1.92187 -1.4414,3.45703 -4.51171,3.45703 -2.10938,0 -4.32422,-0.86719 -5.56641,-1.6875 z m 47.13574,-22.125 -0.19922,3.5039 h -0.0937 c -1.00781,-1.92187 -3.21093,-4.04297 -7.24218,-4.04297 -5.33203,0 -10.46485,4.46485 -10.46485,12.33985 0,6.43359 4.125,11.33203 9.87891,11.33203 3.60937,0 6.10547,-1.73438 7.39453,-3.89063 h 0.0937 v 2.58985 c 0,5.85937 -3.16406,8.10937 -7.48828,8.10937 -2.87109,0 -5.27344,-0.85547 -6.80859,-1.8164 l -1.05469,3.21093 c 1.86328,1.25391 4.94531,1.92188 7.72265,1.92188 2.92969,0 6.19922,-0.66797 8.44922,-2.78906 2.26172,-2.01563 3.31641,-5.27344 3.31641,-10.60547 v -13.48828 c 0,-2.82422 0.0937,-4.69922 0.1875,-6.375 z m -0.67968,13.33593 c 0,0.72657 -0.0937,1.53516 -0.32813,2.26172 -0.91406,2.6836 -3.26953,4.3125 -5.85937,4.3125 -4.5586,0 -6.86719,-3.78515 -6.86719,-8.34375 0,-5.3789 2.88281,-8.78906 6.91406,-8.78906 3.07031,0 5.13281,2.01562 5.90625,4.46484 0.1875,0.57422 0.23438,1.19532 0.23438,1.92188 z m 29.85644,-0.96093 c 0.0469,-0.4336 0.15235,-1.10157 0.15235,-1.96875 0,-4.26563 -2.01563,-10.94532 -9.60938,-10.94532 -6.76172,0 -10.88672,5.53125 -10.88672,12.53907 0,7.00781 4.26563,11.70703 11.41406,11.70703 3.70313,0 6.2461,-0.77344 7.73438,-1.44141 l -0.71484,-3.02344 c -1.59375,0.66797 -3.41016,1.19532 -6.4336,1.19532 -4.23047,0 -7.875,-2.34375 -7.96875,-8.0625 z m -16.26562,-3.02344 c 0.32812,-2.92969 2.20312,-6.85547 6.48047,-6.85547 4.74609,0 5.90625,4.17187 5.84765,6.85547 z m 31.48828,-9.89063 c -6.4336,0 -11.51953,4.57032 -11.51953,12.33985 0,7.34765 4.83984,11.95312 11.13281,11.95312 5.61328,0 11.56641,-3.73828 11.56641,-12.33984 0,-7.10156 -4.51172,-11.95313 -11.17969,-11.95313 z m -0.10547,3.17578 c 4.99219,0 6.96094,4.99219 6.96094,8.92969 0,5.22656 -3.02344,9.02344 -7.05469,9.02344 -4.125,0 -7.05469,-3.84375 -7.05469,-8.92969 0,-4.41797 2.16797,-9.02344 7.14844,-9.02344 z m 16.61426,30.09375 h 4.17187 v -12.62109 h 0.10547 c 1.38281,2.29688 4.07813,3.64453 7.14844,3.64453 5.47265,0 10.55859,-4.125 10.55859,-12.48047 0,-7.05468 -4.21875,-11.8125 -9.84375,-11.8125 -3.78515,0 -6.52734,1.6875 -8.25,4.52344 h -0.0937 l -0.19922,-3.98437 h -3.78515 c 0.0937,2.20312 0.1875,4.60546 0.1875,7.58203 z m 4.17187,-22.94531 c 0,-0.57422 0.15235,-1.19531 0.29297,-1.72265 0.82031,-3.17579 3.50391,-5.23829 6.38672,-5.23829 4.46484,0 6.91406,3.98438 6.91406,8.63672 0,5.33203 -2.60156,8.97657 -7.0664,8.97657 -3.02344,0 -5.56641,-2.01563 -6.32813,-4.9336 -0.0937,-0.53906 -0.19922,-1.11328 -0.19922,-1.73437 z m 41.80664,2.58985 c 0.0469,-0.4336 0.15235,-1.10157 0.15235,-1.96875 0,-4.26563 -2.01563,-10.94532 -9.60938,-10.94532 -6.76172,0 -10.88672,5.53125 -10.88672,12.53907 0,7.00781 4.26563,11.70703 11.41406,11.70703 3.70313,0 6.2461,-0.77344 7.73438,-1.44141 l -0.71484,-3.02344 c -1.59375,0.66797 -3.41016,1.19532 -6.4336,1.19532 -4.23047,0 -7.875,-2.34375 -7.96875,-8.0625 z m -16.26562,-3.02344 c 0.32812,-2.92969 2.20312,-6.85547 6.48047,-6.85547 4.74609,0 5.90625,4.17187 5.84765,6.85547 z m 21.64746,13.875 h 4.21875 v -13.96875 c 0,-0.71485 0.10547,-1.44141 0.29297,-1.96875 0.71484,-2.35547 2.88281,-4.32422 5.66015,-4.32422 3.98438,0 5.37891,3.12891 5.37891,6.86719 v 13.39453 h 4.23047 v -13.875 c 0,-7.96875 -4.99219,-9.89063 -8.21485,-9.89063 -3.84375,0 -6.52734,2.16797 -7.67578,4.3711 h -0.0937 l -0.24609,-3.83203 H 313.397 c 0.14062,1.91015 0.1875,3.8789 0.1875,6.28125 z m 42.4834,-34.07813 v 13.875 h -0.10547 c -1.05469,-1.875 -3.44531,-3.5625 -7.00781,-3.5625 -5.66016,0 -10.45313,4.75782 -10.40625,12.48047 0,7.06641 4.3125,11.8125 9.9375,11.8125 3.78515,0 6.62109,-1.96875 7.91015,-4.55859 h 0.10547 l 0.1875,4.03125 h 3.79688 c -0.15235,-1.58203 -0.19922,-3.9375 -0.19922,-6 V 359.2345 Z m 0,24.33985 c 0,0.66797 -0.0469,1.24218 -0.19922,1.8164 -0.76172,3.16407 -3.35156,5.03907 -6.1875,5.03907 -4.5586,0 -6.86719,-3.89063 -6.86719,-8.58985 0,-5.13281 2.58984,-8.97656 6.96094,-8.97656 3.16406,0 5.47265,2.21484 6.09375,4.89844 0.15234,0.52734 0.19922,1.24218 0.19922,1.76953 z m 18.52148,-13.48828 8.83594,23.22656 h 4.03125 l 9.11719,-23.22656 h -4.41797 l -4.51172,13.05468 c -0.76172,2.10938 -1.44141,4.03125 -1.96875,5.95313 h -0.14063 c -0.48047,-1.92188 -1.10156,-3.84375 -1.875,-5.95313 l -4.55859,-13.05468 z m 42.47168,23.22656 c -0.28125,-1.58203 -0.375,-3.55078 -0.375,-5.56641 v -8.69531 c 0,-4.65234 -1.73437,-9.50391 -8.83594,-9.50391 -2.92968,0 -5.70703,0.82032 -7.6289,2.07422 l 0.96093,2.77735 c 1.62891,-1.05469 3.87891,-1.72266 6.04688,-1.72266 4.74609,0 5.27344,3.45703 5.27344,5.36719 v 0.48047 c -8.97657,-0.0469 -13.96875,3.02343 -13.96875,8.64843 0,3.35157 2.40234,6.66797 7.11328,6.66797 3.30469,0 5.80078,-1.6289 7.10156,-3.45703 h 0.14063 l 0.33984,2.92969 z m -4.46484,-7.82813 c 0,0.4336 -0.0937,0.91407 -0.23438,1.34766 -0.66797,1.96875 -2.58984,3.89062 -5.61328,3.89062 -2.16797,0 -3.98437,-1.30078 -3.98437,-4.03125 0,-4.51171 5.22656,-5.33203 9.83203,-5.23828 z m 10.90429,7.82813 h 4.21875 v -13.96875 c 0,-0.71485 0.10547,-1.44141 0.29297,-1.96875 0.71485,-2.35547 2.88282,-4.32422 5.66016,-4.32422 3.98437,0 5.37891,3.12891 5.37891,6.86719 v 13.39453 h 4.23046 v -13.875 c 0,-7.96875 -4.99218,-9.89063 -8.21484,-9.89063 -3.84375,0 -6.52734,2.16797 -7.67578,4.3711 h -0.0937 l -0.24609,-3.83203 h -3.73829 c 0.14063,1.91015 0.1875,3.8789 0.1875,6.28125 z m 44.64258,0 h 4.07813 v -31.19531 h -3.59766 l -6.82031,3.64453 0.82031,3.21093 5.41406,-2.92968 h 0.10547 z m 25.86621,-31.72266 c -6.33984,0 -10.85156,5.75391 -10.85156,16.21875 0.10547,10.32422 4.23047,16.03125 10.32422,16.03125 6.91406,0 10.85156,-5.85937 10.85156,-16.46484 0,-9.9375 -3.75,-15.78516 -10.32422,-15.78516 z m -0.23437,3.25781 c 4.35937,0 6.32812,5.03907 6.32812,12.72657 0,7.95703 -2.0625,13.00781 -6.375,13.00781 -3.84375,0 -6.33984,-4.61719 -6.33984,-12.72656 0,-8.4961 2.68359,-13.00782 6.38672,-13.00782 z m 13.72558,13.92188 v 3.11719 h 11.85938 v -3.11719 z m 24.62696,14.54297 h 4.07812 v -31.19531 h -3.59765 l -6.82032,3.64453 0.82032,3.21093 5.41406,-2.92968 h 0.10547 z m 16.02246,-31.19531 v 3.5039 h 15.26953 v 0.0937 l -13.53516,27.59766 h 4.3711 l 13.58203,-28.41797 v -2.77734 z m 55.01367,7.96875 h -4.23047 v 14.25 c 0,0.77343 -0.14062,1.53515 -0.375,2.15625 -0.77344,1.875 -2.74219,3.84375 -5.56641,3.84375 -3.84375,0 -5.1914,-2.97657 -5.1914,-7.39454 v -12.85546 h -4.21875 v 13.58203 c 0,8.15625 4.35937,10.17187 8.01562,10.17187 4.125,0 6.57422,-2.44922 7.67578,-4.32422 h 0.0937 l 0.2461,3.79688 h 3.73828 c -0.14063,-1.82813 -0.1875,-3.9375 -0.1875,-6.33985 z m 26.44922,0 h -4.23047 v 14.25 c 0,0.77343 -0.14063,1.53515 -0.375,2.15625 -0.77344,1.875 -2.74219,3.84375 -5.56641,3.84375 -3.84375,0 -5.1914,-2.97657 -5.1914,-7.39454 v -12.85546 h -4.21875 v 13.58203 c 0,8.15625 4.35937,10.17187 8.01562,10.17187 4.125,0 6.57422,-2.44922 7.67578,-4.32422 h 0.0937 l 0.2461,3.79688 h 3.73828 c -0.14063,-1.82813 -0.1875,-3.9375 -0.1875,-6.33985 z m 7.00488,23.22656 h 4.17188 v -12.38672 c 0,-0.71484 0.10547,-1.39453 0.19922,-1.96875 0.57421,-3.16406 2.68359,-5.42578 5.66015,-5.42578 0.57422,0 1.00781,0.0586 1.44141,0.15234 v -3.98437 c -0.38672,-0.0937 -0.71485,-0.15235 -1.19531,-0.15235 -2.83594,0 -5.37891,1.96875 -6.4336,5.09766 h -0.19922 l -0.14062,-4.55859 h -3.69141 c 0.14063,2.15625 0.1875,4.51171 0.1875,7.24218 z m -422.19726,59.23242 h 18.85546 v -3.36328 h -13.58203 v -0.0937 c 1.05469,-1.19531 2.01563,-2.35547 2.97657,-3.64453 l 10.37109,-13.48828 0.0469,-2.63672 H 215.3814 v 3.39843 h 12.57422 v 0.10547 c -1.05469,1.24219 -2.01562,2.34375 -3.02344,3.59766 l -10.51171,13.67578 z m 32.68652,-23.76563 c -6.43359,0 -11.51953,4.57032 -11.51953,12.33985 0,7.34765 4.83984,11.95312 11.13281,11.95312 5.61328,0 11.56641,-3.73828 11.56641,-12.33984 0,-7.10156 -4.51172,-11.95313 -11.17969,-11.95313 z m -0.10547,3.17579 c 4.99219,0 6.96094,4.99218 6.96094,8.92968 0,5.22657 -3.02344,9.02344 -7.05469,9.02344 -4.125,0 -7.05469,-3.84375 -7.05469,-8.92969 0,-4.41797 2.16797,-9.02343 7.14844,-9.02343 z m 16.61426,20.58984 h 4.21875 V 438.5763 c 0,-0.71484 0.10547,-1.44141 0.29297,-1.96875 0.71484,-2.35547 2.88281,-4.32422 5.66015,-4.32422 3.98438,0 5.37891,3.12891 5.37891,6.86719 v 13.39453 h 4.23047 v -13.875 c 0,-7.96875 -4.99219,-9.89063 -8.21485,-9.89063 -3.84375,0 -6.52734,2.16797 -7.67578,4.3711 h -0.0937 l -0.24609,-3.83203 h -3.73828 c 0.14062,1.91015 0.1875,3.8789 0.1875,6.28125 z m 42.4834,-34.07813 v 13.875 h -0.10547 c -1.05469,-1.875 -3.44531,-3.5625 -7.00781,-3.5625 -5.66016,0 -10.45313,4.75782 -10.40625,12.48047 0,7.06641 4.3125,11.8125 9.9375,11.8125 3.78515,0 6.62109,-1.96875 7.91015,-4.55859 h 0.10547 l 0.1875,4.03125 h 3.79688 c -0.15235,-1.58203 -0.19922,-3.9375 -0.19922,-6 v -28.07813 z m 0,24.33985 c 0,0.66797 -0.0469,1.24219 -0.19922,1.8164 -0.76172,3.16407 -3.35156,5.03907 -6.1875,5.03907 -4.5586,0 -6.86719,-3.89063 -6.86719,-8.58985 0,-5.13281 2.58984,-8.97656 6.96094,-8.97656 3.16406,0 5.47265,2.21484 6.09375,4.89844 0.15234,0.52734 0.19922,1.24219 0.19922,1.76953 z m 27.92871,9.73828 c -0.28125,-1.58203 -0.375,-3.55078 -0.375,-5.56641 v -8.69531 c 0,-4.65234 -1.73438,-9.50391 -8.83594,-9.50391 -2.92969,0 -5.70703,0.82032 -7.62891,2.07422 l 0.96094,2.77735 c 1.62891,-1.05469 3.87891,-1.72266 6.04688,-1.72266 4.74609,0 5.27343,3.45703 5.27343,5.36719 v 0.48047 c -8.97656,-0.0469 -13.96875,3.02343 -13.96875,8.64843 0,3.35157 2.40235,6.66797 7.11329,6.66797 3.30468,0 5.80078,-1.6289 7.10156,-3.45703 h 0.14062 l 0.33985,2.92969 z m -4.46485,-7.82813 c 0,0.4336 -0.0937,0.91407 -0.23437,1.34766 -0.66797,1.96875 -2.58984,3.89063 -5.61328,3.89063 -2.16797,0 -3.98438,-1.30079 -3.98438,-4.03125 0,-4.51172 5.22657,-5.33204 9.83203,-5.23829 z m 27.22559,-15.39843 -0.19922,3.5039 h -0.0937 c -1.00781,-1.92187 -3.21094,-4.04297 -7.24219,-4.04297 -5.33203,0 -10.46484,4.46485 -10.46484,12.33985 0,6.43359 4.125,11.33203 9.87891,11.33203 3.60937,0 6.10546,-1.73438 7.39453,-3.89063 h 0.0937 v 2.58985 c 0,5.85937 -3.16407,8.10937 -7.48828,8.10937 -2.8711,0 -5.27344,-0.85547 -6.8086,-1.8164 l -1.05469,3.21093 c 1.86329,1.25391 4.94532,1.92188 7.72266,1.92188 2.92969,0 6.19922,-0.66797 8.44922,-2.78906 2.26172,-2.01563 3.31641,-5.27344 3.31641,-10.60547 v -13.48828 c 0,-2.82422 0.0937,-4.69922 0.1875,-6.375 z m -0.67969,13.33593 c 0,0.72657 -0.0937,1.53516 -0.32812,2.26172 -0.91407,2.6836 -3.26953,4.3125 -5.85938,4.3125 -4.55859,0 -6.86719,-3.78515 -6.86719,-8.34375 0,-5.3789 2.88282,-8.78906 6.91407,-8.78906 3.07031,0 5.13281,2.01563 5.90625,4.46484 0.1875,0.57422 0.23437,1.19532 0.23437,1.92188 z m 18.48047,-13.33593 8.83594,23.22656 h 4.03125 l 9.11719,-23.22656 h -4.41797 l -4.51172,13.05468 c -0.76172,2.10938 -1.44141,4.03125 -1.96875,5.95313 h -0.14063 c -0.48047,-1.92188 -1.10156,-3.84375 -1.875,-5.95313 l -4.55859,-13.05468 z m 42.47754,23.22656 c -0.28125,-1.58203 -0.375,-3.55078 -0.375,-5.56641 v -8.69531 c 0,-4.65234 -1.73437,-9.50391 -8.83594,-9.50391 -2.92968,0 -5.70703,0.82032 -7.6289,2.07422 l 0.96093,2.77735 c 1.62891,-1.05469 3.87891,-1.72266 6.04688,-1.72266 4.74609,0 5.27344,3.45703 5.27344,5.36719 v 0.48047 c -8.97657,-0.0469 -13.96875,3.02343 -13.96875,8.64843 0,3.35157 2.40234,6.66797 7.11328,6.66797 3.30469,0 5.80078,-1.6289 7.10156,-3.45703 h 0.14063 l 0.33984,2.92969 z m -4.46484,-7.82813 c 0,0.4336 -0.0937,0.91407 -0.23438,1.34766 -0.66797,1.96875 -2.58984,3.89063 -5.61328,3.89063 -2.16797,0 -3.98437,-1.30079 -3.98437,-4.03125 0,-4.51172 5.22656,-5.33204 9.83203,-5.23829 z m 10.90136,7.82813 h 4.21875 V 438.5763 c 0,-0.71484 0.10547,-1.44141 0.29297,-1.96875 0.71485,-2.35547 2.88281,-4.32422 5.66016,-4.32422 3.98437,0 5.3789,3.12891 5.3789,6.86719 v 13.39453 h 4.23047 v -13.875 c 0,-7.96875 -4.99218,-9.89063 -8.21484,-9.89063 -3.84375,0 -6.52734,2.16797 -7.67578,4.3711 h -0.0937 l -0.2461,-3.83203 h -3.73828 c 0.14063,1.91015 0.1875,3.8789 0.1875,6.28125 z m 44.64551,0 h 4.07813 v -31.19531 h -3.59766 l -6.82031,3.64453 0.82031,3.21094 5.41406,-2.92969 h 0.10547 z m 32.48731,0 v -8.49609 h 4.37109 v -3.31641 h -4.37109 v -19.38281 h -4.5586 l -13.92187,19.91015 v 2.78907 h 14.49609 v 8.49609 z m -14.20313,-11.8125 v -0.0937 l 7.62891,-10.60547 c 0.86718,-1.44141 1.64062,-2.78906 2.58984,-4.60547 h 0.15234 c -0.0937,1.62891 -0.15234,3.25781 -0.15234,4.89844 v 10.40625 z m 21.07324,-2.73047 v 3.11719 h 11.85938 v -3.11719 z m 24.62696,14.54297 h 4.07812 v -31.19531 h -3.59765 l -6.82032,3.64453 0.82032,3.21094 5.41406,-2.92969 h 0.10547 z m 25.52636,0.52734 c 5.95313,0 10.61719,-3.64453 10.61719,-9.07031 0,-3.79687 -2.40234,-6.52734 -6.29297,-8.0625 v -0.15234 c 3.84375,-1.81641 5.13281,-4.65235 5.13281,-7.28907 0,-3.89062 -3.02343,-7.67578 -9.07031,-7.67578 -5.47265,0 -9.64453,3.35157 -9.64453,8.29688 0,2.69531 1.48828,5.3789 4.94531,7.00781 l 0.0469,0.14063 c -3.84375,1.64062 -6.1875,4.41796 -6.1875,8.35546 0,4.5586 3.92578,8.44922 10.45312,8.44922 z m 0.10547,-3.07031 c -3.98437,0 -6.38672,-2.78906 -6.24609,-5.95312 0,-2.97657 1.96875,-5.37891 5.61328,-6.4336 4.23047,1.20703 6.86719,3.02344 6.86719,6.82031 0,3.21094 -2.44922,5.56641 -6.23438,5.56641 z m 0.0469,-26.15625 c 3.78515,0 5.27343,2.58984 5.27343,5.08594 0,2.82422 -2.0625,4.74609 -4.74609,5.66015 -3.59766,-0.96093 -5.95312,-2.63671 -5.95312,-5.7539 0,-2.69531 1.92187,-4.99219 5.42578,-4.99219 z m 45.35742,5.47266 h -4.23047 v 14.25 c 0,0.77343 -0.14062,1.53515 -0.375,2.15625 -0.77344,1.875 -2.74219,3.84375 -5.56641,3.84375 -3.84375,0 -5.1914,-2.97657 -5.1914,-7.39453 v -12.85547 h -4.21875 v 13.58203 c 0,8.15625 4.35937,10.17187 8.01562,10.17187 4.125,0 6.57422,-2.44922 7.67578,-4.32422 h 0.0937 l 0.2461,3.79688 h 3.73828 c -0.14063,-1.82813 -0.1875,-3.9375 -0.1875,-6.33984 z m 26.44922,0 h -4.23047 v 14.25 c 0,0.77343 -0.14063,1.53515 -0.375,2.15625 -0.77344,1.875 -2.74219,3.84375 -5.56641,3.84375 -3.84375,0 -5.1914,-2.97657 -5.1914,-7.39453 v -12.85547 h -4.21875 v 13.58203 c 0,8.15625 4.35937,10.17187 8.01562,10.17187 4.125,0 6.57422,-2.44922 7.67578,-4.32422 h 0.0937 l 0.2461,3.79688 h 3.73828 c -0.14063,-1.82813 -0.1875,-3.9375 -0.1875,-6.33984 z m 7.00488,23.22656 h 4.17188 v -12.38672 c 0,-0.71484 0.10546,-1.39453 0.19921,-1.96875 0.57422,-3.16406 2.6836,-5.42578 5.66016,-5.42578 0.57422,0 1.00781,0.0586 1.44141,0.15234 v -3.98437 c -0.38672,-0.0937 -0.71485,-0.15235 -1.19532,-0.15235 -2.83593,0 -5.3789,1.96875 -6.43359,5.09766 h -0.19922 l -0.14062,-4.55859 h -3.69141 c 0.14063,2.15625 0.1875,4.51172 0.1875,7.24218 z m -798.04394,25.15137 v 13.875 h -0.10547 c -1.05469,-1.875 -3.44532,-3.5625 -7.00782,-3.5625 -5.66015,0 -10.45312,4.75781 -10.40625,12.48047 0,7.0664 4.3125,11.8125 9.9375,11.8125 3.78516,0 6.6211,-1.96875 7.91016,-4.5586 h 0.10547 l 0.1875,4.03125 h 3.79687 c -0.15234,-1.58203 -0.19921,-3.9375 -0.19921,-6 v -28.07812 z m 0,24.33984 c 0,0.66797 -0.0469,1.24219 -0.19922,1.81641 -0.76172,3.16406 -3.35157,5.03906 -6.1875,5.03906 -4.5586,0 -6.86719,-3.89063 -6.86719,-8.58984 0,-5.13282 2.58984,-8.97657 6.96094,-8.97657 3.16406,0 5.47265,2.21485 6.09375,4.89844 0.15234,0.52734 0.19922,1.24219 0.19922,1.76953 z m 15.44824,9.73828 v -23.22656 h -4.21875 v 23.22656 z m -2.10938,-32.40234 c -1.53515,0 -2.63672,1.16015 -2.63672,2.63672 0,1.4414 1.05469,2.60156 2.54297,2.60156 1.67578,0 2.74219,-1.16016 2.6836,-2.60156 0,-1.47657 -1.00782,-2.63672 -2.58985,-2.63672 z m 9.12012,32.40234 h 4.21875 v -13.96875 c 0,-0.71484 0.10547,-1.4414 0.29297,-1.96875 0.71484,-2.35547 2.88281,-4.32422 5.66015,-4.32422 3.98438,0 5.37891,3.12891 5.37891,6.86719 v 13.39453 h 4.23047 v -13.875 c 0,-7.96875 -4.99219,-9.89062 -8.21484,-9.89062 -3.84375,0 -6.52735,2.16797 -7.67579,4.37109 h -0.0937 l -0.24609,-3.83203 h -3.73828 c 0.14062,1.91016 0.1875,3.87891 0.1875,6.28125 z m 42.486328,-34.07812 v 13.875 h -0.105469 c -1.054687,-1.875 -3.445309,-3.5625 -7.007809,-3.5625 -5.66016,0 -10.45313,4.75781 -10.40625,12.48047 0,7.0664 4.3125,11.8125 9.9375,11.8125 3.78515,0 6.621091,-1.96875 7.910153,-4.5586 h 0.105469 l 0.1875,4.03125 h 3.796875 c -0.152344,-1.58203 -0.199219,-3.9375 -0.199219,-6 v -28.07812 z m 0,24.33984 c 0,0.66797 -0.04687,1.24219 -0.199219,1.81641 -0.761718,3.16406 -3.351559,5.03906 -6.187499,5.03906 -4.55859,0 -6.86719,-3.89063 -6.86719,-8.58984 0,-5.13282 2.58985,-8.97657 6.96094,-8.97657 3.164062,0 5.472656,2.21485 6.093749,4.89844 0.152344,0.52734 0.199219,1.24219 0.199219,1.76953 z m 27.925781,9.73828 c -0.28125,-1.58203 -0.375,-3.55078 -0.375,-5.5664 v -8.69532 c 0,-4.65234 -1.734375,-9.5039 -8.835937,-9.5039 -2.929688,0 -5.707031,0.82031 -7.628906,2.07422 l 0.960937,2.77734 c 1.628906,-1.05469 3.878906,-1.72266 6.046875,-1.72266 4.746094,0 5.273438,3.45703 5.273438,5.36719 v 0.48047 c -8.976563,-0.0469 -13.96875,3.02344 -13.96875,8.64844 0,3.35156 2.402343,6.66797 7.113281,6.66797 3.304687,0 5.800781,-1.62891 7.101562,-3.45704 h 0.140625 l 0.339844,2.92969 z m -4.464843,-7.82812 c 0,0.43359 -0.09375,0.91406 -0.234375,1.34765 -0.667969,1.96875 -2.589844,3.89063 -5.613282,3.89063 -2.167968,0 -3.984375,-1.30078 -3.984375,-4.03125 0,-4.51172 5.226563,-5.33203 9.832032,-5.23828 z m 27.225586,-15.39844 -0.199219,3.50391 h -0.09375 c -1.007813,-1.92188 -3.210938,-4.04297 -7.242188,-4.04297 -5.332031,0 -10.464843,4.46484 -10.464843,12.33984 0,6.43359 4.125,11.33203 9.878906,11.33203 3.609375,0 6.105469,-1.73437 7.394531,-3.89062 h 0.09375 v 2.58984 c 0,5.85938 -3.164062,8.10938 -7.488281,8.10938 -2.871094,0 -5.273438,-0.85547 -6.808594,-1.81641 l -1.054687,3.21094 c 1.863281,1.2539 4.945312,1.92187 7.722656,1.92187 2.929687,0 6.199219,-0.66797 8.449219,-2.78906 2.261718,-2.01563 3.316406,-5.27344 3.316406,-10.60547 v -13.48828 c 0,-2.82422 0.09375,-4.69922 0.1875,-6.375 z m -0.679688,13.33594 c 0,0.72656 -0.09375,1.53515 -0.328125,2.26172 -0.914062,2.68359 -3.269531,4.3125 -5.859375,4.3125 -4.558594,0 -6.867187,-3.78516 -6.867187,-8.34375 0,-5.37891 2.882812,-8.78907 6.914062,-8.78907 3.070313,0 5.132813,2.01563 5.90625,4.46485 0.1875,0.57422 0.234375,1.19531 0.234375,1.92187 z m 9.125977,-4.65235 v 3.11719 h 11.859375 v -3.11719 z m 36.3251949,3.69141 c 0.046875,-0.43359 0.15234379,-1.10156 0.15234379,-1.96875 0,-4.26563 -2.01562499,-10.94531 -9.60937469,-10.94531 -6.761719,0 -10.886719,5.53125 -10.886719,12.53906 0,7.00781 4.265625,11.70703 11.4140624,11.70703 3.703125,0 6.2460938,-0.77344 7.734375,-1.44141 l -0.7148437,-3.02343 c -1.59375,0.66797 -3.4101563,1.19531 -6.4335938,1.19531 -4.2304689,0 -7.8749999,-2.34375 -7.9687499,-8.0625 z m -16.2656249,-3.02344 c 0.328125,-2.92969 2.203125,-6.85547 6.480469,-6.85547 4.7460934,0 5.9062497,4.17188 5.8476559,6.85547 z m 21.6445312,13.875 h 4.21875 v -13.96875 c 0,-0.71484 0.1054687,-1.4414 0.2929687,-1.96875 0.7148438,-2.35547 2.8828121,-4.32422 5.6601561,-4.32422 3.984375,0 5.378906,3.12891 5.378906,6.86719 v 13.39453 h 4.230469 v -13.875 c 0,-7.96875 -4.992187,-9.89062 -8.214844,-9.89062 -3.84375,0 -6.5273433,2.16797 -7.6757808,4.37109 h -0.09375 L 7.9126234,488.54798 H 4.1743422 c 0.140625,1.91016 0.1875,3.87891 0.1875,6.28125 z M 57.022975,477.69642 v 13.875 h -0.105469 c -1.054687,-1.875 -3.445312,-3.5625 -7.007812,-3.5625 -5.660157,0 -10.453125,4.75781 -10.40625,12.48047 0,7.0664 4.3125,11.8125 9.9375,11.8125 3.785156,0 6.621093,-1.96875 7.910156,-4.5586 h 0.105469 l 0.1875,4.03125 h 3.796875 c -0.152344,-1.58203 -0.199219,-3.9375 -0.199219,-6 v -28.07812 z m 0,24.33984 c 0,0.66797 -0.04687,1.24219 -0.199219,1.81641 -0.761719,3.16406 -3.351562,5.03906 -6.1875,5.03906 -4.558594,0 -6.867187,-3.89063 -6.867187,-8.58984 0,-5.13282 2.589843,-8.97657 6.960937,-8.97657 3.164063,0 5.472656,2.21485 6.09375,4.89844 0.152344,0.52734 0.199219,1.24219 0.199219,1.76953 z m 21.073242,-14.02734 c -6.433594,0 -11.519531,4.57031 -11.519531,12.33984 0,7.34766 4.839844,11.95313 11.132812,11.95313 5.613282,0 11.566407,-3.73829 11.566407,-12.33985 0,-7.10156 -4.511719,-11.95312 -11.179688,-11.95312 z m -0.105469,3.17578 c 4.992188,0 6.960938,4.99219 6.960938,8.92969 0,5.22656 -3.023438,9.02343 -7.054688,9.02343 -4.125,0 -7.054687,-3.84375 -7.054687,-8.92968 0,-4.41797 2.167969,-9.02344 7.148437,-9.02344 z m 16.611329,20.58984 h 4.21875 v -13.96875 c 0,-0.71484 0.105468,-1.4414 0.292968,-1.96875 0.714844,-2.35547 2.882815,-4.32422 5.660155,-4.32422 3.98438,0 5.37891,3.12891 5.37891,6.86719 v 13.39453 h 4.23047 v -13.875 c 0,-7.96875 -4.99219,-9.89062 -8.21485,-9.89062 -3.84375,0 -6.527341,2.16797 -7.675778,4.37109 h -0.09375 l -0.246094,-3.83203 h -3.738281 c 0.140625,1.91016 0.1875,3.87891 0.1875,6.28125 z m 42.483393,-34.07812 v 13.875 h -0.10546 c -1.05469,-1.875 -3.44532,-3.5625 -7.00782,-3.5625 -5.66015,0 -10.45312,4.75781 -10.40625,12.48047 0,7.0664 4.3125,11.8125 9.9375,11.8125 3.78516,0 6.6211,-1.96875 7.91016,-4.5586 h 0.10547 l 0.1875,4.03125 h 3.79687 c -0.15234,-1.58203 -0.19922,-3.9375 -0.19922,-6 v -28.07812 z m 0,24.33984 c 0,0.66797 -0.0469,1.24219 -0.19921,1.81641 -0.76172,3.16406 -3.35157,5.03906 -6.1875,5.03906 -4.5586,0 -6.86719,-3.89063 -6.86719,-8.58984 0,-5.13282 2.58984,-8.97657 6.96094,-8.97657 3.16406,0 5.47265,2.21485 6.09375,4.89844 0.15234,0.52734 0.19921,1.24219 0.19921,1.76953 z m 29.89747,-1.11328 c 0.0469,-0.43359 0.15234,-1.10156 0.15234,-1.96875 0,-4.26563 -2.01563,-10.94531 -9.60938,-10.94531 -6.76171,0 -10.88671,5.53125 -10.88671,12.53906 0,7.00781 4.26562,11.70703 11.41406,11.70703 3.70312,0 6.24609,-0.77344 7.73437,-1.44141 l -0.71484,-3.02343 c -1.59375,0.66797 -3.41016,1.19531 -6.43359,1.19531 -4.23047,0 -7.875,-2.34375 -7.96875,-8.0625 z m -16.26563,-3.02344 c 0.32813,-2.92969 2.20313,-6.85547 6.48047,-6.85547 4.74609,0 5.90625,4.17188 5.84766,6.85547 z m 21.64453,13.875 h 4.17188 v -12.38672 c 0,-0.71484 0.10547,-1.39453 0.19922,-1.96875 0.57421,-3.16406 2.68359,-5.42578 5.66015,-5.42578 0.57422,0 1.00781,0.0586 1.44141,0.15235 v -3.98438 c -0.38672,-0.0937 -0.71485,-0.15234 -1.19531,-0.15234 -2.83594,0 -5.37891,1.96875 -6.4336,5.09765 h -0.19922 l -0.14062,-4.55859 h -3.69141 c 0.14063,2.15625 0.1875,4.51172 0.1875,7.24219 z m 31.06055,-34.07812 v 13.875 h -0.10547 c -1.05469,-1.875 -3.44531,-3.5625 -7.00781,-3.5625 -5.66016,0 -10.45313,4.75781 -10.40625,12.48047 0,7.0664 4.3125,11.8125 9.9375,11.8125 3.78515,0 6.62109,-1.96875 7.91015,-4.5586 h 0.10547 l 0.1875,4.03125 h 3.79688 c -0.15235,-1.58203 -0.19922,-3.9375 -0.19922,-6 v -28.07812 z m 0,24.33984 c 0,0.66797 -0.0469,1.24219 -0.19922,1.81641 -0.76172,3.16406 -3.35156,5.03906 -6.1875,5.03906 -4.55859,0 -6.86719,-3.89063 -6.86719,-8.58984 0,-5.13282 2.58985,-8.97657 6.96094,-8.97657 3.16406,0 5.47266,2.21485 6.09375,4.89844 0.15234,0.52734 0.19922,1.24219 0.19922,1.76953 z m 27.92871,9.73828 c -0.28125,-1.58203 -0.375,-3.55078 -0.375,-5.5664 v -8.69532 c 0,-4.65234 -1.73438,-9.5039 -8.83594,-9.5039 -2.92969,0 -5.70703,0.82031 -7.6289,2.07422 l 0.96093,2.77734 c 1.62891,-1.05469 3.87891,-1.72266 6.04688,-1.72266 4.74609,0 5.27344,3.45703 5.27344,5.36719 v 0.48047 c -8.97657,-0.0469 -13.96875,3.02344 -13.96875,8.64844 0,3.35156 2.40234,6.66797 7.11328,6.66797 3.30468,0 5.80078,-1.62891 7.10156,-3.45704 h 0.14062 l 0.33985,2.92969 z m -4.46484,-7.82812 c 0,0.43359 -0.0937,0.91406 -0.23438,1.34765 -0.66797,1.96875 -2.58984,3.89063 -5.61328,3.89063 -2.16797,0 -3.98438,-1.30078 -3.98438,-4.03125 0,-4.51172 5.22657,-5.33203 9.83204,-5.23828 z m 27.22558,-15.39844 -0.19922,3.50391 h -0.0937 c -1.00781,-1.92188 -3.21093,-4.04297 -7.24218,-4.04297 -5.33204,0 -10.46485,4.46484 -10.46485,12.33984 0,6.43359 4.125,11.33203 9.87891,11.33203 3.60937,0 6.10547,-1.73437 7.39453,-3.89062 h 0.0937 v 2.58984 c 0,5.85938 -3.16406,8.10938 -7.48828,8.10938 -2.8711,0 -5.27344,-0.85547 -6.8086,-1.81641 l -1.05468,3.21094 c 1.86328,1.2539 4.94531,1.92187 7.72265,1.92187 2.92969,0 6.19922,-0.66797 8.44922,-2.78906 2.26172,-2.01563 3.31641,-5.27344 3.31641,-10.60547 v -13.48828 c 0,-2.82422 0.0937,-4.69922 0.1875,-6.375 z m -0.67969,13.33594 c 0,0.72656 -0.0937,1.53515 -0.32812,2.26172 -0.91406,2.68359 -3.26953,4.3125 -5.85938,4.3125 -4.55859,0 -6.86718,-3.78516 -6.86718,-8.34375 0,-5.37891 2.88281,-8.78907 6.91406,-8.78907 3.07031,0 5.13281,2.01563 5.90625,4.46485 0.1875,0.57422 0.23437,1.19531 0.23437,1.92187 z m 8.30274,-13.33594 8.83594,23.22656 h 4.03125 l 9.11718,-23.22656 h -4.41796 l -4.51172,13.05469 c -0.76172,2.10937 -1.44141,4.03125 -1.96875,5.95312 h -0.14063 c -0.48047,-1.92187 -1.10156,-3.84375 -1.875,-5.95312 l -4.55859,-13.05469 z m 35.33496,-0.53906 c -6.43359,0 -11.51953,4.57031 -11.51953,12.33984 0,7.34766 4.83984,11.95313 11.13281,11.95313 5.61328,0 11.56641,-3.73829 11.56641,-12.33985 0,-7.10156 -4.51172,-11.95312 -11.17969,-11.95312 z m -0.10547,3.17578 c 4.99219,0 6.96094,4.99219 6.96094,8.92969 0,5.22656 -3.02344,9.02343 -7.05469,9.02343 -4.125,0 -7.05469,-3.84375 -7.05469,-8.92968 0,-4.41797 2.16797,-9.02344 7.14844,-9.02344 z m 16.61426,20.58984 h 4.21875 v -13.96875 c 0,-0.71484 0.10547,-1.4414 0.29297,-1.96875 0.71484,-2.35547 2.88281,-4.32422 5.66015,-4.32422 3.98438,0 5.37891,3.12891 5.37891,6.86719 v 13.39453 h 4.23047 v -13.875 c 0,-7.96875 -4.99219,-9.89062 -8.21484,-9.89062 -3.84375,0 -6.52735,2.16797 -7.67579,4.37109 h -0.0937 l -0.24609,-3.83203 h -3.73828 c 0.14062,1.91016 0.1875,3.87891 0.1875,6.28125 z m 42.4834,-34.07812 v 13.875 h -0.10547 c -1.05469,-1.875 -3.44531,-3.5625 -7.00781,-3.5625 -5.66016,0 -10.45313,4.75781 -10.40625,12.48047 0,7.0664 4.3125,11.8125 9.9375,11.8125 3.78515,0 6.62109,-1.96875 7.91015,-4.5586 h 0.10547 l 0.1875,4.03125 h 3.79688 c -0.15235,-1.58203 -0.19922,-3.9375 -0.19922,-6 v -28.07812 z m 0,24.33984 c 0,0.66797 -0.0469,1.24219 -0.19922,1.81641 -0.76172,3.16406 -3.35156,5.03906 -6.1875,5.03906 -4.5586,0 -6.86719,-3.89063 -6.86719,-8.58984 0,-5.13282 2.58984,-8.97657 6.96094,-8.97657 3.16406,0 5.47265,2.21485 6.09375,4.89844 0.15234,0.52734 0.19922,1.24219 0.19922,1.76953 z m 18.52148,-13.48828 8.83594,23.22656 h 4.03125 l 9.11719,-23.22656 h -4.41797 l -4.51172,13.05469 c -0.76172,2.10937 -1.44141,4.03125 -1.96875,5.95312 h -0.14063 c -0.48046,-1.92187 -1.10156,-3.84375 -1.875,-5.95312 l -4.55859,-13.05469 z m 42.47754,23.22656 c -0.28125,-1.58203 -0.375,-3.55078 -0.375,-5.5664 v -8.69532 c 0,-4.65234 -1.73437,-9.5039 -8.83594,-9.5039 -2.92968,0 -5.70703,0.82031 -7.6289,2.07422 l 0.96093,2.77734 c 1.62891,-1.05469 3.87891,-1.72266 6.04688,-1.72266 4.74609,0 5.27344,3.45703 5.27344,5.36719 v 0.48047 c -8.97657,-0.0469 -13.96875,3.02344 -13.96875,8.64844 0,3.35156 2.40234,6.66797 7.11328,6.66797 3.30469,0 5.80078,-1.62891 7.10156,-3.45704 h 0.14063 l 0.33984,2.92969 z m -4.46484,-7.82812 c 0,0.43359 -0.0937,0.91406 -0.23438,1.34765 -0.66797,1.96875 -2.58984,3.89063 -5.61328,3.89063 -2.16797,0 -3.98437,-1.30078 -3.98437,-4.03125 0,-4.51172 5.22656,-5.33203 9.83203,-5.23828 z m 10.90429,7.82812 h 4.21875 v -13.96875 c 0,-0.71484 0.10547,-1.4414 0.29297,-1.96875 0.71485,-2.35547 2.88282,-4.32422 5.66016,-4.32422 3.98437,0 5.37891,3.12891 5.37891,6.86719 v 13.39453 h 4.23046 v -13.875 c 0,-7.96875 -4.99218,-9.89062 -8.21484,-9.89062 -3.84375,0 -6.52734,2.16797 -7.67578,4.37109 h -0.0937 l -0.24609,-3.83203 h -3.73829 c 0.14063,1.91016 0.1875,3.87891 0.1875,6.28125 z m 55.38868,0 v -3.5039 h -14.01563 v -0.0937 l 2.49609,-2.3086 c 6.57422,-6.32812 10.75782,-10.99219 10.75782,-16.74609 0,-4.46485 -2.83594,-9.07031 -9.55078,-9.07031 -3.60938,0 -6.67969,1.33593 -8.83594,3.16406 l 1.34765,2.97656 c 1.42969,-1.20703 3.78516,-2.63672 6.6211,-2.63672 4.65234,0 6.1875,2.91797 6.1875,6.09375 -0.0469,4.69922 -3.64453,8.73047 -11.61328,16.3125 l -3.31641,3.22266 v 2.58984 z m 15.12011,-31.72265 c -6.33984,0 -10.85156,5.7539 -10.85156,16.21875 0.10547,10.32421 4.23047,16.03125 10.32422,16.03125 6.91406,0 10.85156,-5.85938 10.85156,-16.46485 0,-9.9375 -3.75,-15.78515 -10.32422,-15.78515 z m -0.23437,3.25781 c 4.35937,0 6.32812,5.03906 6.32812,12.72656 0,7.95703 -2.0625,13.00781 -6.375,13.00781 -3.84375,0 -6.33984,-4.61718 -6.33984,-12.72656 0,-8.49609 2.68359,-13.00781 6.38672,-13.00781 z m 13.72558,13.92187 v 3.11719 h 11.85938 v -3.11719 z m 35.37305,14.54297 v -3.5039 h -14.01562 v -0.0937 l 2.49609,-2.3086 c 6.57422,-6.32812 10.75781,-10.99219 10.75781,-16.74609 0,-4.46485 -2.83594,-9.07031 -9.55078,-9.07031 -3.60937,0 -6.67969,1.33593 -8.83594,3.16406 l 1.34766,2.97656 c 1.42969,-1.20703 3.78516,-2.63672 6.62109,-2.63672 4.65235,0 6.1875,2.91797 6.1875,6.09375 -0.0469,4.69922 -3.64453,8.73047 -11.61328,16.3125 l -3.3164,3.22266 v 2.58984 z m 24.62402,0 v -3.5039 h -14.01562 v -0.0937 l 2.49609,-2.3086 c 6.57422,-6.32812 10.75782,-10.99219 10.75782,-16.74609 0,-4.46485 -2.83594,-9.07031 -9.55079,-9.07031 -3.60937,0 -6.67968,1.33593 -8.83593,3.16406 l 1.34765,2.97656 c 1.42969,-1.20703 3.78516,-2.63672 6.6211,-2.63672 4.65234,0 6.1875,2.91797 6.1875,6.09375 -0.0469,4.69922 -3.64453,8.73047 -11.61328,16.3125 l -3.31641,3.22266 v 2.58984 z m 35.66602,-23.22656 h -4.23047 v 14.25 c 0,0.77344 -0.14062,1.53516 -0.375,2.15625 -0.77344,1.875 -2.74219,3.84375 -5.56641,3.84375 -3.84375,0 -5.1914,-2.97656 -5.1914,-7.39453 v -12.85547 h -4.21875 v 13.58203 c 0,8.15625 4.35937,10.17188 8.01562,10.17188 4.125,0 6.57422,-2.44922 7.67578,-4.32422 h 0.0937 l 0.2461,3.79687 h 3.73828 c -0.14063,-1.82812 -0.1875,-3.9375 -0.1875,-6.33984 z m 26.44922,0 h -4.23047 v 14.25 c 0,0.77344 -0.14063,1.53516 -0.375,2.15625 -0.77344,1.875 -2.74219,3.84375 -5.56641,3.84375 -3.84375,0 -5.1914,-2.97656 -5.1914,-7.39453 v -12.85547 h -4.21875 v 13.58203 c 0,8.15625 4.35937,10.17188 8.01562,10.17188 4.125,0 6.57422,-2.44922 7.67578,-4.32422 h 0.0937 l 0.2461,3.79687 h 3.73828 c -0.14063,-1.82812 -0.1875,-3.9375 -0.1875,-6.33984 z m 7.00488,23.22656 h 4.17188 v -12.38672 c 0,-0.71484 0.10547,-1.39453 0.19922,-1.96875 0.57421,-3.16406 2.68359,-5.42578 5.66015,-5.42578 0.57422,0 1.00781,0.0586 1.44141,0.15235 v -3.98438 c -0.38672,-0.0937 -0.71485,-0.15234 -1.19531,-0.15234 -2.83594,0 -5.37891,1.96875 -6.4336,5.09765 h -0.19922 l -0.14062,-4.55859 h -3.69141 c 0.14063,2.15625 0.1875,4.51172 0.1875,7.24219 z m 0,0" style="fill:#231916;fill-opacity:1;fill-rule:nonzero;stroke:none" aria-label="work van lodon/kring eindhoren&#10;koninklijke maatochappij tot benordering der boowkurist b.n.a.&#10;dagelijks geopend van 10-17 uur&#10;zondag van 14-18 uur&#10;dindag-en donderdagvond van 20-22 uur" transform="matrix(1.3333333,0,0,1.3333333,1282.5319,3632.2316)" />
      <text id="text7" xml:space="preserve" transform="matrix(1.3333333,0,0,1.6317767,290.31507,3287.8351)"><tspan id="tspan7" style="font-variant:normal;font-weight:normal;font-stretch:condensed;font-size:266.647px;font-family:Impact;writing-mode:lr-tb;fill:#3f3b3a;fill-opacity:1;fill-rule:nonzero;stroke:none" x="0" y="0">architectuur</tspan></text>
    </g></svg>