<?xml version='1.0' encoding='utf-8'?>
<svg xmlns="http://www.w3.org/2000/svg" version="1.1" width="61.841" height="63.534" viewBox="2370.220 373.776 61.841 63.534"><g id="object"><path id="path16" d="m 0,0 c 1.74,0.516 3.02,2.57 5.155,1.703 3.451,-1.401 5.473,0.212 7.919,2.633 6.3,6.236 12.189,5.043 16.031,-2.846 0.924,-1.897 1.562,-3.942 2.222,-5.955 4.944,-15.067 -2.942,-25.432 -19.061,-24.376 -4.305,0.282 -8.769,-3.629 -12.761,0.199 -3.275,3.142 -1.7,8.213 -4.095,11.807 0.06,1.675 0.121,3.349 0.183,5.024 2.782,2.413 5.11,5.024 4.008,9.139 C -0.266,-1.781 -0.133,-0.89 0,0" style="fill:#d2d5d9;fill-opacity:1;fill-rule:nonzero;stroke:none" transform="matrix(1.3333333,0,0,-1.3333333,2382.3445,390.86667)" />
      </g></svg>