<?xml version='1.0' encoding='utf-8'?>
<svg xmlns="http://www.w3.org/2000/svg" version="1.1" width="60.423" height="104.148" viewBox="341.426 4180.940 60.423 104.148"><g id="object"><path id="path128" d="m 0,0 c 0.502,-3.295 -0.271,-5.036 -3.903,-5.348 -11.875,-1.019 -20.932,-14.778 -17.649,-26.326 2.645,-9.303 6.089,-17.508 18.003,-17.314 4.555,0.075 4.179,-3.593 3.914,-6.741 -0.284,-3.377 -1.272,-5.665 -5.549,-5.607 -12.957,0.176 -23.437,7.906 -28.191,20.731 -3.528,9.518 -3.042,18.801 0.283,28.171 C -28.484,0.55 -17.874,5.63 -5.542,7.671 -0.247,8.548 -0.151,3.641 0,0" style="fill:#494f57;fill-opacity:1;fill-rule:nonzero;stroke:none" transform="matrix(1.3333333,0,0,-1.3333333,395.17507,4197.3071)" />
      </g></svg>