<?xml version='1.0' encoding='utf-8'?>
<svg xmlns="http://www.w3.org/2000/svg" version="1.1" width="414.359" height="145.807" viewBox="381.303 2144.070 414.359 145.807"><defs id="defs1"><clipPath clipPathUnits="userSpaceOnUse" id="clipPath32">
      <path d="M 0,3370.3901 H 2383.9401 V -2.5000001e-5 H 0 Z" id="path32" />
    </clipPath>
  </defs><g id="object"><path id="path5" d="m 9.8422922,-0.25716719 c 5.6953128,0.64453125 12.4218748,1.03125 20.4492188,1.03125 16.96875,0 30.433594,-4.39453121 38.589844,-12.55078081 8.15625,-8.027344 12.5625,-19.6875 12.5625,-33.925782 0,-14.121093 -4.535157,-24.210937 -12.304688,-31.335937 -7.640625,-7.125 -19.160156,-10.875 -35.34375,-10.875 -8.941406,0 -17.097656,0.773437 -23.9531248,1.804687 z M 21.104011,-77.811855 c 2.976562,-0.65625 7.382812,-1.171875 13.207031,-1.171875 23.824219,0 35.472656,13.078125 35.34375,33.667969 0,23.566406 -13.078125,37.0312501 -37.160156,37.0312501 -4.394531,0 -8.542969,-0.1289063 -11.390625,-0.6445313 z M 140.74952,6.453125e-4 C 139.96436,-4.2766984 139.70655,-9.5852922 139.70655,-15.022792 v -23.4375 c 0,-12.550781 -4.66406,-25.628906 -23.82422,-25.628906 -7.89844,0 -15.41016,2.203125 -20.589843,5.566406 l 2.589844,7.511719 c 4.406249,-2.847657 10.488279,-4.664063 16.324219,-4.664063 12.80859,0 14.23828,9.316406 14.23828,14.496094 v 1.300781 c -24.21094,-0.128906 -37.67578,8.15625 -37.67578,23.308594 0,9.0585936 6.46875,17.9999998 19.16016,17.9999998 8.92968,0 15.66796,-4.40625 19.16015,-9.328125 h 0.38672 l 0.91406,7.8984375125 z M 128.70264,-21.104823 c 0,1.160156 -0.25781,2.460937 -0.64453,3.621093 -1.8164,5.308594 -6.99609,10.4882816 -15.15234,10.4882816 -5.82422,0 -10.7461,-3.4921876 -10.7461,-10.8749996 0,-12.164063 14.10938,-14.367188 26.54297,-14.109375 z M 149.29542,-62.67123 173.11964,6.453125e-4 h 10.875 L 208.59229,-62.67123 h -11.90625 l -12.17578,35.226563 c -2.07422,5.695312 -3.89062,10.875 -5.30859,16.054687 h -0.38672 c -1.30078,-5.179687 -2.97656,-10.359375 -5.05078,-16.054687 L 161.45948,-62.67123 Z M 230.7378,6.453125e-4 V -62.67123 H 219.34717 V 6.453125e-4 Z M 225.04249,-87.397792 c -4.14844,0 -7.125,3.105469 -7.125,7.125 0,3.878906 2.84765,6.984375 6.86718,6.984375 4.52344,0 7.3711,-3.105469 7.24219,-6.984375 0,-4.019531 -2.71875,-7.125 -6.98437,-7.125 z m 67.32715,-4.535156 v 37.417968 h -0.25782 c -2.84765,-5.050781 -9.32812,-9.574218 -18.91406,-9.574218 -15.26953,0 -28.21875,12.820312 -28.08984,33.65625 0,19.042968 11.64843,31.8632808 26.80078,31.8632808 10.23047,0 17.87109,-5.3085937 21.36328,-12.3046878 h 0.25781 l 0.51563,10.8750003125 h 10.23047 C 303.88917,-4.2766984 303.76026,-10.616542 303.76026,-16.182948 v -75.75 z m 0,65.648437 c 0,1.816406 -0.12891,3.363281 -0.51563,4.921875 -2.07422,8.542969 -9.07031,13.5937501 -16.71094,13.5937501 -12.29297,0 -18.51562,-10.4882811 -18.51562,-23.1796871 0,-13.851563 6.99609,-24.210938 18.77344,-24.210938 8.55468,0 14.76562,5.953125 16.45312,13.207031 0.38672,1.429688 0.51563,3.363282 0.51563,4.792969 z m 0,0" style="fill:#ffffff;fill-opacity:1;fill-rule:nonzero;stroke:none" aria-label="David" transform="matrix(1.3333333,0,0,1.3333333,378.8496,2277.3077)" />
      <path id="path6" d="m 0,0 c 5.697,-0.647 12.43,-1.036 20.458,-1.036 16.962,0 30.428,4.402 38.585,12.56 8.158,8.028 12.56,19.681 12.56,33.924 0,14.114 -4.532,24.213 -12.3,31.334 C 51.663,83.904 40.139,87.659 23.954,87.659 15.02,87.659 6.863,86.882 0,85.846 Z m 11.265,77.56 c 2.978,0.647 7.381,1.165 13.207,1.165 23.825,0 35.478,-13.078 35.348,-33.665 0,-23.566 -13.077,-37.032 -37.161,-37.032 -4.402,0 -8.545,0.129 -11.394,0.648 z" style="fill:none;stroke:#ffffff;stroke-width:7;stroke-linecap:butt;stroke-linejoin:miter;stroke-miterlimit:10;stroke-dasharray:none;stroke-opacity:1" transform="matrix(1.3333333,0,0,-1.3333333,391.97,2276.9627)" />
      <path id="path7" d="m 0,0 c -0.777,4.272 -1.036,9.582 -1.036,15.02 v 23.436 c 0,12.56 -4.661,25.637 -23.824,25.637 -7.899,0 -15.409,-2.201 -20.588,-5.568 l 2.59,-7.509 c 4.402,2.848 10.487,4.661 16.314,4.661 12.819,0 14.243,-9.323 14.243,-14.502 V 39.88 c -24.213,0.13 -37.679,-8.157 -37.679,-23.307 0,-9.063 6.474,-17.997 19.163,-17.997 8.935,0 15.668,4.403 19.164,9.322 h 0.388 L -10.359,0 Z m -12.042,21.105 c 0,-1.165 -0.259,-2.459 -0.647,-3.626 -1.813,-5.308 -6.992,-10.487 -15.149,-10.487 -5.827,0 -10.747,3.496 -10.747,10.876 0,12.172 14.113,14.373 26.543,14.113 z" style="fill:none;stroke:#ffffff;stroke-width:7;stroke-linecap:butt;stroke-linejoin:miter;stroke-miterlimit:10;stroke-dasharray:none;stroke-opacity:1" transform="matrix(1.3333333,0,0,-1.3333333,566.5084,2277.3077)" />
      <path id="path8" d="M 0,0 23.825,-62.669 H 34.701 L 59.302,0 H 47.39 L 35.219,-35.219 c -2.072,-5.697 -3.885,-10.877 -5.309,-16.055 h -0.388 c -1.295,5.178 -2.978,10.358 -5.05,16.055 L 12.171,0 Z" style="fill:none;stroke:#ffffff;stroke-width:7;stroke-linecap:butt;stroke-linejoin:miter;stroke-miterlimit:10;stroke-dasharray:none;stroke-opacity:1" transform="matrix(1.3333333,0,0,-1.3333333,577.9024,2193.7492)" />
      <path id="path9" d="M 0,0 V 62.669 H -11.395 V 0 Z m -5.697,87.4 c -4.144,0 -7.122,-3.108 -7.122,-7.122 0,-3.884 2.849,-6.992 6.862,-6.992 4.533,0 7.381,3.108 7.251,6.992 0,4.014 -2.718,7.122 -6.991,7.122 z" style="fill:none;stroke:#ffffff;stroke-width:7;stroke-linecap:butt;stroke-linejoin:miter;stroke-miterlimit:10;stroke-dasharray:none;stroke-opacity:1" transform="matrix(1.3333333,0,0,-1.3333333,686.49213,2277.3077)" />
      <path id="path10" d="m 0,0 v -37.42 h -0.259 c -2.848,5.05 -9.323,9.582 -18.904,9.582 -15.279,0 -28.227,-12.819 -28.097,-33.666 0,-19.033 11.653,-31.851 26.802,-31.851 10.229,0 17.869,5.308 21.365,12.299 h 0.259 l 0.518,-10.876 h 10.229 c -0.389,4.273 -0.518,10.618 -0.518,16.186 l 0,75.746 z m 0,-65.647 c 0,-1.813 -0.129,-3.367 -0.518,-4.92 -2.071,-8.546 -9.064,-13.596 -16.703,-13.596 -12.3,0 -18.515,10.488 -18.515,23.178 0,13.854 6.991,24.213 18.774,24.213 8.546,0 14.761,-5.957 16.444,-13.207 C -0.129,-51.404 0,-53.347 0,-54.771 Z" style="fill:none;stroke:#ffffff;stroke-width:7;stroke-linecap:butt;stroke-linejoin:miter;stroke-miterlimit:10;stroke-dasharray:none;stroke-opacity:1" transform="matrix(1.3333333,0,0,-1.3333333,768.66733,2154.7323)" />
      </g></svg>