<?xml version='1.0' encoding='utf-8'?>
<svg xmlns="http://www.w3.org/2000/svg" version="1.1" width="73.859" height="101.778" viewBox="1721.740 3955.340 73.859 101.778"><g id="object"><path id="path89" d="m 0,0 c 7.081,1.184 7.952,-4.44 9.21,-9.108 1.596,-5.92 2.622,-11.996 3.822,-18.019 0.477,-2.394 1.084,-5.173 3.715,-5.369 2.875,-0.215 3.417,2.763 4.007,5.011 1.974,7.519 4.177,14.999 5.702,22.611 1.497,7.471 7.354,5.406 11.2,4.67 4.654,-0.892 2.359,-5.085 1.528,-8.22 -4.353,-16.426 -8.548,-32.894 -12.982,-49.297 -1.129,-4.176 -1.688,-9.12 -8.072,-8.987 -4.087,0.086 -6.629,1.323 -7.585,5.655 C 6.437,-42.425 -0.848,-24.714 -5.358,-6.159 -6.957,0.417 -5.039,0.665 0,0" style="fill:#494f57;fill-opacity:1;fill-rule:nonzero;stroke:none" transform="matrix(1.3333333,0,0,-1.3333333,1735.6168,3962.1736)" />
      </g></svg>