<?xml version='1.0' encoding='utf-8'?>
<svg xmlns="http://www.w3.org/2000/svg" version="1.1" width="30.482" height="101.173" viewBox="1867.850 3955.920 30.482 101.173"><g id="object"><path id="path187" d="m 0,0 c 0,-8.981 -0.087,-17.962 0.039,-26.941 0.058,-4.112 -1.283,-6.314 -5.776,-5.756 -4.112,0.509 -8.348,0.646 -8.01,6.57 0.893,15.646 0.954,31.288 -0.056,46.938 -0.164,2.538 0.874,5.131 0.929,7.708 0.089,4.194 1.736,5.863 6.131,5.539 4.317,-0.319 6.5,-1.797 6.427,-6.393 C -0.464,18.446 -0.36,9.223 -0.36,0.001 -0.24,0.001 -0.12,0 0,0" style="fill:#494f57;fill-opacity:1;fill-rule:nonzero;stroke:none" transform="matrix(1.3333333,0,0,-1.3333333,1892.2759,4007.3875)" />
      </g></svg>