<?xml version='1.0' encoding='utf-8'?>
<svg xmlns="http://www.w3.org/2000/svg" version="1.1" width="225.807" height="301.942" viewBox="1002.770 3955.030 225.807 301.942"><defs id="defs1"><clipPath clipPathUnits="userSpaceOnUse" id="clipPath37">
      <path d="M 0,3370.3901 H 2383.9401 V -2.5000001e-5 H 0 Z" id="path37" />
    </clipPath>
  </defs><g id="object"><path id="path8" d="m 0,0 c 13.669,0.797 28.537,-1.966 43.049,-6.711 28.996,-9.48 37.006,-24.545 29.435,-53.961 -1.396,-5.423 -3.801,-11.13 -9.259,-9.81 -18.697,4.521 -45.295,-15.408 -55.163,17.463 -1.567,5.219 -6.852,7.522 -12.367,6.354 -4.37,-0.927 -7.371,-4.258 -8.106,-8.715 -1.181,-7.166 0.315,-14.262 7.353,-17.196 10.829,-4.514 22.241,-7.633 33.419,-11.305 42.506,-13.961 55.583,-34.253 49.894,-77.465 -4.368,-33.186 -28.117,-52.648 -67.629,-55.469 -17.815,-1.272 -35.687,-0.322 -52.596,4.917 -16.912,5.238 -36.476,7.531 -35.787,34.279 0.949,36.889 18.48,50.059 55.128,38.43 7.214,-2.29 8.67,-7.107 9.354,-13.098 0.99,-8.656 1.979,-17.664 13.148,-18.369 6.808,-0.429 10.701,4.475 11.699,10.997 1.49,9.744 0.338,19.831 -9.209,24.199 -10.589,4.844 -22.468,6.84 -33.743,10.216 -37.255,11.153 -50.909,29.393 -49.342,65.773 C -78.883,-16.783 -55.937,0.49 0,0" style="fill:#d7bb98;fill-opacity:1;fill-rule:nonzero;stroke:none" transform="matrix(1.3333333,0,0,-1.3333333,1116.5581,3961.2095)" />
      </g></svg>