<?xml version='1.0' encoding='utf-8'?>
<svg xmlns="http://www.w3.org/2000/svg" version="1.1" width="75.329" height="109.560" viewBox="1512.380 2949.600 75.329 109.560"><g id="object"><path id="path53" d="m 0,0 c 8.231,-5.633 15.234,-10.426 22.237,-15.219 -7.628,-4.953 -15.255,-9.907 -22.989,-14.929 9.428,-4.644 19.158,-9.436 28.887,-14.229 -1.016,-2.652 -2.033,-5.305 -3.049,-7.958 h -44.448 v 72.929 c 11.01,0 21.308,0.716 31.427,-0.321 4.607,-0.472 8.858,-4.411 13.27,-6.777 C 21.079,10.275 17.128,6.483 12.477,4.005 8.328,1.795 3.405,1.039 0,0" style="fill:#231916;fill-opacity:1;fill-rule:nonzero;stroke:none" transform="matrix(1.3333333,0,0,-1.3333333,1544.2,2983.3833)" />
      </g></svg>