<?xml version='1.0' encoding='utf-8'?>
<svg xmlns="http://www.w3.org/2000/svg" version="1.1" width="153.727" height="192.260" viewBox="1937.940 929.217 153.727 192.260"><defs id="defs1"><clipPath clipPathUnits="userSpaceOnUse" id="clipPath46">
      <path d="M 0,3370.3901 H 2383.9401 V -2.5000001e-5 H 0 Z" id="path46" />
    </clipPath>
  </defs><g id="object"><path id="path8" d="M 0,0 C -5.249,0 -10.532,-0.381 -15.741,0.078 -27.23,1.09 -44.04,-2.923 -42.23,16.059 c 1.709,17.912 18.02,13.164 29.399,12.159 12.332,-1.09 24.36,-1.614 36.458,1.157 6.931,1.588 14.882,2.796 14.189,12.111 -0.678,9.108 -8.769,9.856 -15.759,10.354 -8.716,0.621 -17.543,-0.048 -26.219,0.847 -27.156,2.801 -39.632,15.446 -39.499,39.277 0.131,23.245 16.513,40.841 40.95,42.254 16.56,0.957 33.238,0.323 49.846,-0.185 8.794,-0.269 15.149,-4.362 15.049,-14.411 -0.101,-10.11 -6.555,-13.718 -15.404,-13.976 -16.615,-0.484 -33.251,-0.325 -49.857,-0.969 -7.947,-0.307 -17.178,-1.331 -16.318,-12.331 0.699,-8.942 9.134,-9.284 16.092,-10.071 C 7.941,81.004 19.724,81.632 30.351,78.405 50.154,72.392 65.584,60.576 62.154,36.886 58.83,13.937 43.152,2.625 20.982,-0.071 14.085,-0.91 7,-0.201 0,-0.201 Z" style="fill:#e60013;fill-opacity:1;fill-rule:nonzero;stroke:none" transform="matrix(1.3333333,0,0,-1.3333333,2002.1532,1114.8355)" />
      </g></svg>