<?xml version='1.0' encoding='utf-8'?>
<svg xmlns="http://www.w3.org/2000/svg" version="1.1" width="116.083" height="195.164" viewBox="2733.300 2211.620 116.083 195.164"><defs id="defs1"><clipPath clipPathUnits="userSpaceOnUse" id="clipPath59">
      <path d="M 0,3370.3901 H 2383.9401 V -2.5000001e-5 H 0 Z" id="path59" />
    </clipPath>
  </defs><g id="object"><path id="path25" d="m 0,0 c 32.228,-0.122 48.459,-20.051 43.295,-44.063 -7.952,-36.97 -30.587,-64.277 -57.389,-89.268 -7.468,-6.963 -13.696,-3.773 -17.547,0.912 -4.787,5.824 -1.227,10.706 6.112,14.076 5.434,2.494 10.187,7.647 13.829,12.646 10.004,13.732 15.423,26.703 -2.816,39.819 -13.851,9.961 -18.139,25.888 -12.725,42.145 C -21.998,-7.986 -9.474,-0.223 0,0" style="fill:#ffffff;fill-opacity:1;fill-rule:nonzero;stroke:none" transform="matrix(1.3333333,0,0,-1.3333333,2784.3961,2217.6225)" />
      </g></svg>