<?xml version='1.0' encoding='utf-8'?>
<svg xmlns="http://www.w3.org/2000/svg" version="1.1" width="204.247" height="274.808" viewBox="1582.940 4138.700 204.247 274.808"><g id="object"><path id="path342" d="m 0,0 c -0.342,9.034 -0.553,18.075 -1.07,27.098 -0.306,5.352 1.014,10.957 -2.292,15.951 -0.668,1.008 1.713,3.282 2.901,2.878 1.105,-0.376 2.255,-0.752 3.22,-1.383 3.287,-2.149 6.81,-4.069 9.692,-6.684 C 29.337,22.546 47.415,8.507 62.53,-8.711 c 0.519,-0.591 1.08,-1.146 1.6,-1.736 1.039,-1.18 2.126,-2.464 3.888,-1.953 2.491,0.723 2.12,2.988 2.179,4.851 0.074,2.355 -0.021,4.722 -0.169,7.076 -1.036,16.487 -2.104,32.972 -3.166,49.457 -0.171,2.657 -1.34,5.694 1.889,7.309 2.175,1.088 5.142,-1.846 5.848,-5.925 0.602,-3.481 1.056,-7.021 1.166,-10.547 0.539,-17.289 2.403,-34.52 2.093,-51.851 -0.083,-4.683 0.511,-9.444 1.381,-14.059 0.829,-4.399 0.013,-8.626 -0.375,-12.904 -0.081,-0.898 -1.177,-2.062 -2.084,-2.449 -1.606,-0.685 -3.104,0.268 -4.145,1.472 -0.743,0.859 -1.548,2.062 -1.542,3.107 0.05,7.798 -4.868,13.211 -9.318,18.546 -8.564,10.265 -17.56,20.179 -27.821,28.854 -6.907,5.84 -13.661,11.862 -20.516,17.765 -1.167,1.004 -2.48,2.013 -4.184,1.395 C 6.981,28.871 6.741,26.742 6.748,24.843 6.783,15.406 6.972,5.969 7.117,-3.468 c 0.2,-12.974 0.426,-25.947 0.594,-38.921 0.022,-1.629 -0.473,-3.223 -2.434,-3.356 -1.686,-0.116 -3.021,0.844 -3.74,2.348 -1.752,3.667 -1.624,7.585 -1.578,11.547 C 0.084,-21.235 0.002,-10.617 0,0" style="fill:#1e4a94;fill-opacity:1;fill-rule:nonzero;stroke:none" transform="matrix(1.3333333,0,0,-1.3333333,1675.0563,4346.5001)" />
      <path id="path344" d="m 0,0 c -8.131,1.567 -16.506,-4.547 -25.66,-7.643 -1.58,-0.534 -2.794,-2.664 -3.805,-4.289 -8.338,-13.398 -11.844,-28.108 -11.593,-43.789 0.163,-10.122 4.654,-17.065 17.011,-19.292 16.387,-2.952 30.792,2.296 40.381,16.08 8.036,11.55 11.135,25.194 8.902,39.284 C 22.604,-3.044 15.417,-0.078 0,0 M -0.654,6.286 C 20.637,9.179 32.428,-8.271 33.083,-23.635 33.734,-38.912 30.197,-53.244 21.235,-65.89 16.29,-72.868 9.137,-77.232 1.336,-79.948 c -11.819,-4.115 -23.553,-4.485 -35.216,1.908 -9.743,5.339 -14.317,13.365 -14.329,23.825 -0.019,16.753 4.778,32.487 12.015,47.491 1.39,2.882 3.748,4.957 6.573,6.542 5.906,3.313 12.201,5.364 18.937,5.951 3.514,0.307 7.05,0.37 10.03,0.517" style="fill:#cd4152;fill-opacity:1;fill-rule:nonzero;stroke:none" transform="matrix(1.3333333,0,0,-1.3333333,1653.2159,4153.506)" />
      </g></svg>