<?xml version='1.0' encoding='utf-8'?>
<svg xmlns="http://www.w3.org/2000/svg" version="1.1" width="94.843" height="169.650" viewBox="205.644 2651.550 94.843 169.650"><g id="object"><path id="path104" d="m 0,0 c 9.833,7.786 17.859,14.199 25.955,20.523 3.612,2.822 5.685,2.005 7.885,-2.302 C 35.858,14.272 35.41,10.962 32.754,7.464 30.071,3.929 26.386,1.695 23.057,-1.011 20.38,-3.187 17.612,-5.25 14.947,-7.44 8.31,-12.892 8.939,-12.547 13.729,-19.46 c 6.534,-9.431 16.753,-16.235 20.004,-28.039 0.411,-1.494 2.093,-2.686 3.299,-3.907 5.47,-5.532 5.478,-5.508 -0.556,-9.262 -1.096,-0.682 -2.07,-1.564 -3.179,-2.221 -3.496,-2.071 -4.777,-1.865 -7.428,1.863 -3.246,4.564 -6.233,9.312 -9.332,13.981 -2.385,3.593 -4.726,7.215 -7.173,10.765 -1.284,1.862 -3.02,3.093 -5.45,2.506 -2.256,-0.545 -3.909,-1.96 -4.392,-4.231 -1.611,-7.576 -3.151,-15.168 -4.572,-22.782 -0.472,-2.529 -0.485,-5.141 -0.739,-7.713 -0.557,-5.632 -3.087,-7.482 -8.475,-6.114 -2.656,0.674 -4.687,1.965 -4.829,5.147 -0.884,19.779 -3.319,39.476 -0.985,59.379 1.502,12.801 0.414,25.877 3.739,38.535 0.546,2.079 0.712,4.258 1.254,6.338 2.052,7.882 3.496,8.858 11.848,8.264 C 1.589,42.706 2.785,41.724 2.567,36.674 2.288,30.229 1.682,23.777 0.796,17.387 0.089,12.288 -0.862,7.258 0,0" style="fill:#494643;fill-opacity:1;fill-rule:nonzero;stroke:none" transform="matrix(1.3333333,0,0,-1.3333333,239.72667,2715.1349)" />
      </g></svg>