<?xml version='1.0' encoding='utf-8'?>
<svg xmlns="http://www.w3.org/2000/svg" version="1.1" width="32.822" height="240.215" viewBox="342.275 3147.420 32.822 240.215"><g id="object"><path id="path33" d="m 1.5951078,2.03125e-5 h 1.828125 V -6.1288859 h 1.7226563 c 1.6640625,0.058594 2.4140625,0.796875 2.8359375,2.7421875 0.3984375,1.7695312 0.7148437,2.98828121 0.9492187,3.3867187125 H 10.817764 C 10.524795,-0.55076094 10.184952,-1.9101359 9.7279203,-3.8906047 9.3880766,-5.3554484 8.7318266,-6.3632609 7.6419828,-6.7382609 v -0.070312 c 1.5,-0.5039063 2.6718752,-1.734375 2.6718752,-3.6093751 0,-1.089844 -0.3984377,-2.050782 -1.1132814,-2.683594 -0.8789063,-0.796875 -2.1445313,-1.160156 -4.1015625,-1.160156 -1.2539063,0 -2.578125,0.105468 -3.5039063,0.292968 z M 3.4232328,-12.679667 c 0.2929688,-0.09375 0.9257813,-0.175781 1.8046875,-0.175781 1.9335938,0.02344 3.2578125,0.820312 3.2578125,2.648437 0,1.6171876 -1.2421875,2.6835938 -3.1875,2.6835938 h -1.875 z m 9.4453122,-1.476563 v 8.3437503 c 0,4.3828125 2.191407,6.04687501 5.085938,6.04687501 3.070312,0 5.355469,-1.79296871 5.355469,-6.14062501 V -14.15623 h -1.851563 v 8.3789066 c 0,3.1289062 -1.335937,4.5117187 -3.445312,4.5117187 -1.886719,0 -3.292969,-1.3359375 -3.292969,-4.5117187 V -14.15623 Z M 28.20253,2.03125e-5 V -6.0468547 c 0,-2.3554687 -0.03516,-4.0546873 -0.140625,-5.8359373 l 0.05859,-0.02344 c 0.714844,1.535157 1.664063,3.1523441 2.648438,4.7226566 L 35.257217,2.03125e-5 H 37.10878 V -14.15623 h -1.722657 v 5.9296878 c 0,2.203125 0.04687,3.9257813 0.210938,5.8125 l -0.04687,0.023437 c -0.667969,-1.453125 -1.488281,-2.9414062 -2.53125,-4.6054687 L 28.472061,-14.15623 H 26.479873 V 2.03125e-5 Z m 16.546875,0 H 46.57753 V -6.4101359 h 5.355468 V -7.9218547 H 46.57753 v -4.6992183 h 5.800781 V -14.15623 H 44.749405 Z M 60.707413,-14.390605 c -3.773438,0 -6.5625,2.941407 -6.5625,7.4414066 0,4.2773437 2.625,7.18359371 6.351562,7.18359371 3.621094,0 6.574219,-2.58984371 6.574219,-7.45312501 0,-4.2070313 -2.496094,-7.1718753 -6.363281,-7.1718753 z m -0.08203,1.5 c 3.046875,0 4.523438,2.9414066 4.523438,5.7539066 0,3.2109375 -1.640625,5.8710937 -4.546875,5.8710937 -2.871094,0 -4.511719,-2.7070312 -4.511719,-5.7304687 0,-3.1054686 1.511719,-5.8945316 4.535156,-5.8945316 z M 69.443741,2.03125e-5 h 1.828125 V -6.1288859 h 1.722656 c 1.664062,0.058594 2.414062,0.796875 2.835937,2.7421875 0.398438,1.7695312 0.714844,2.98828121 0.949219,3.3867187125 h 1.886719 C 78.373428,-0.55076094 78.033584,-1.9101359 77.576553,-3.8906047 77.236709,-5.3554484 76.580459,-6.3632609 75.490616,-6.7382609 v -0.070312 c 1.5,-0.5039063 2.671875,-1.734375 2.671875,-3.6093751 0,-1.089844 -0.398438,-2.050782 -1.113282,-2.683594 -0.878906,-0.796875 -2.144531,-1.160156 -4.101562,-1.160156 -1.253906,0 -2.578125,0.105468 -3.503906,0.292968 z M 71.271866,-12.679667 c 0.292968,-0.09375 0.925781,-0.175781 1.804687,-0.175781 1.933594,0.02344 3.257813,0.820312 3.257813,2.648437 0,1.6171876 -1.242188,2.6835938 -3.1875,2.6835938 h -1.875 z M 89.23378,2.03125e-5 V -6.0234172 l 4.746093,-8.1328128 h -2.085937 l -2.039063,3.914063 c -0.539062,1.0664061 -1.019531,1.9921873 -1.417968,2.9179686 h -0.04687 c -0.445313,-0.9960938 -0.855469,-1.8515625 -1.40625,-2.9179686 L 84.991597,-14.15623 H 82.90566 l 4.476562,8.1445316 V 2.03125e-5 Z M 100.56288,-14.390605 c -3.773436,0 -6.562499,2.941407 -6.562499,7.4414066 0,4.2773437 2.625,7.18359371 6.351559,7.18359371 3.6211,0 6.57422,-2.58984371 6.57422,-7.45312501 0,-4.2070313 -2.49609,-7.1718753 -6.36328,-7.1718753 z m -0.082,1.5 c 3.04688,0 4.52344,2.9414066 4.52344,5.7539066 0,3.2109375 -1.64063,5.8710937 -4.54688,5.8710937 -2.871091,0 -4.511716,-2.7070312 -4.511716,-5.7304687 0,-3.1054686 1.511719,-5.8945316 4.535156,-5.8945316 z m 8.79785,-1.265625 v 8.3437503 c 0,4.3828125 2.19141,6.04687501 5.08594,6.04687501 3.07031,0 5.35547,-1.79296871 5.35547,-6.14062501 V -14.15623 h -1.85156 v 8.3789066 c 0,3.1289062 -1.33594,4.5117187 -3.44532,4.5117187 -1.88672,0 -3.29297,-1.3359375 -3.29297,-4.5117187 V -14.15623 Z M 122.89003,2.03125e-5 h 1.82812 V -6.1288859 h 1.72266 c 1.66406,0.058594 2.41406,0.796875 2.83594,2.7421875 0.39844,1.7695312 0.71484,2.98828121 0.94922,3.3867187125 h 1.88672 C 131.81972,-0.55076094 131.47987,-1.9101359 131.02284,-3.8906047 130.683,-5.3554484 130.02675,-6.3632609 128.9369,-6.7382609 v -0.070312 c 1.5,-0.5039063 2.67188,-1.734375 2.67188,-3.6093751 0,-1.089844 -0.39844,-2.050782 -1.11328,-2.683594 -0.87891,-0.796875 -2.14453,-1.160156 -4.10156,-1.160156 -1.25391,0 -2.57813,0.105468 -3.50391,0.292968 z M 124.71815,-12.679667 c 0.29297,-0.09375 0.92579,-0.175781 1.80469,-0.175781 1.9336,0.02344 3.25781,0.820312 3.25781,2.648437 0,1.6171876 -1.24218,2.6835938 -3.1875,2.6835938 h -1.875 z M 138.64003,2.03125e-5 h 7.875 V -1.5351359 h -6.04688 V -14.15623 h -1.82812 z M 148.55116,-14.15623 V 2.03125e-5 h 1.82813 V -14.15623 Z M 153.56972,2.03125e-5 h 1.82812 V -6.4101359 h 5.35547 v -1.5117188 h -5.35547 v -4.6992183 h 5.80078 v -1.535157 h -7.6289 z M 171.13319,-8.1445109 h -5.50781 v -4.4765621 h 5.8125 v -1.535157 h -7.64062 V 2.03125e-5 h 7.95703 V -1.5351359 h -6.12891 v -5.0976563 h 5.50781 z m 0,0" style="fill:#e60013;fill-opacity:1;fill-rule:nonzero;stroke:none" aria-label="RUN FOR &#10;Y&#10;OUR LIFE" transform="matrix(0,-1.3333333,1.3333333,0,368.12107,3383.0995)" />
      <path id="path34" d="m 0,0 v 1.827 h -6.132 v 1.722 c 0.063,1.659 0.798,2.415 2.751,2.835 1.764,0.399 2.982,0.714 3.381,0.945 v 1.89 C -0.546,8.925 -1.911,8.589 -3.885,8.127 -5.355,7.791 -6.363,7.14 -6.741,6.048 h -0.063 c -0.504,1.491 -1.743,2.667 -3.612,2.667 -1.092,0 -2.058,-0.399 -2.688,-1.113 -0.798,-0.882 -1.155,-2.142 -1.155,-4.095 0,-1.26 0.105,-2.583 0.294,-3.507 z m -12.684,1.827 c -0.084,0.294 -0.168,0.924 -0.168,1.806 0.021,1.932 0.819,3.255 2.646,3.255 1.617,0 2.688,-1.239 2.688,-3.192 V 1.827 Z" style="fill:none;stroke:#e60013;stroke-width:1;stroke-linecap:butt;stroke-linejoin:miter;stroke-miterlimit:10;stroke-dasharray:none;stroke-opacity:1" transform="matrix(1.3333333,0,0,-1.3333333,368.12107,3380.9712)" />
      <path id="path35" d="m 0,0 h 8.337 c 4.39,0 6.049,2.184 6.049,5.082 0,3.066 -1.785,5.355 -6.133,5.355 H 0 V 8.589 h 8.379 c 3.129,0 4.516,-1.344 4.516,-3.444 0,-1.89 -1.344,-3.297 -4.516,-3.297 L 0,1.848 Z" style="fill:none;stroke:#e60013;stroke-width:1;stroke-linecap:butt;stroke-linejoin:miter;stroke-miterlimit:10;stroke-dasharray:none;stroke-opacity:1" transform="matrix(1.3333333,0,0,-1.3333333,349.24867,3365.9353)" />
      <path id="path36" d="m 0,0 h -6.048 c -2.352,0 -4.053,-0.042 -5.838,-0.147 l -0.021,0.063 c 1.533,0.714 3.15,1.659 4.725,2.646 L 0,7.056 V 8.904 H -14.154 V 7.182 h 5.922 c 2.205,0 3.927,0.042 5.817,0.21 L -2.394,7.35 C -3.843,6.678 -5.334,5.859 -6.993,4.809 l -7.161,-4.536 v -1.995 l 14.154,0 z" style="fill:none;stroke:#e60013;stroke-width:1;stroke-linecap:butt;stroke-linejoin:miter;stroke-miterlimit:10;stroke-dasharray:none;stroke-opacity:1" transform="matrix(1.3333333,0,0,-1.3333333,368.12107,3345.4959)" />
      <path id="path37" d="M 0,0 V 1.827 H -6.405 V 7.182 H -7.917 V 1.827 h -4.704 v 5.796 h -1.533 V 0 Z" style="fill:none;stroke:#e60013;stroke-width:1;stroke-linecap:butt;stroke-linejoin:miter;stroke-miterlimit:10;stroke-dasharray:none;stroke-opacity:1" transform="matrix(1.3333333,0,0,-1.3333333,368.12107,3323.4321)" />
      <path id="path38" d="m 0,0 c 0,-3.78 2.939,-6.573 7.434,-6.573 4.284,0 7.182,2.625 7.182,6.363 0,3.612 -2.583,6.573 -7.455,6.573 C 2.961,6.363 0,3.864 0,0 Z m 1.491,-0.084 c 0,3.045 2.94,4.515 5.754,4.515 3.213,0 5.88,-1.638 5.88,-4.536 0,-2.877 -2.709,-4.515 -5.733,-4.515 -3.108,0 -5.901,1.512 -5.901,4.536 z" style="fill:none;stroke:#e60013;stroke-width:1;stroke-linecap:butt;stroke-linejoin:miter;stroke-miterlimit:10;stroke-dasharray:none;stroke-opacity:1" transform="matrix(1.3333333,0,0,-1.3333333,348.94147,3302.1521)" />
      <path id="path39" d="m 0,0 v 1.827 h -6.132 v 1.722 c 0.063,1.659 0.798,2.415 2.751,2.835 1.764,0.399 2.982,0.714 3.381,0.945 v 1.89 C -0.546,8.925 -1.911,8.589 -3.885,8.127 -5.355,7.791 -6.363,7.14 -6.741,6.048 h -0.063 c -0.504,1.491 -1.743,2.667 -3.612,2.667 -1.092,0 -2.058,-0.399 -2.688,-1.113 -0.798,-0.882 -1.155,-2.142 -1.155,-4.095 0,-1.26 0.105,-2.583 0.294,-3.507 z m -12.684,1.827 c -0.084,0.294 -0.168,0.924 -0.168,1.806 0.021,1.932 0.819,3.255 2.646,3.255 1.617,0 2.688,-1.239 2.688,-3.192 V 1.827 Z" style="fill:none;stroke:#e60013;stroke-width:1;stroke-linecap:butt;stroke-linejoin:miter;stroke-miterlimit:10;stroke-dasharray:none;stroke-opacity:1" transform="matrix(1.3333333,0,0,-1.3333333,368.12107,3290.5044)" />
      <path id="path40" d="m 0,0 h -6.027 l -8.127,4.746 V 2.667 l 3.906,-2.037 c 1.071,-0.546 1.995,-1.029 2.919,-1.428 V -0.84 c -0.987,-0.441 -1.848,-0.861 -2.919,-1.407 l -3.906,-1.995 v -2.079 l 8.148,4.473 H 0 Z" style="fill:none;stroke:#e60013;stroke-width:1;stroke-linecap:butt;stroke-linejoin:miter;stroke-miterlimit:10;stroke-dasharray:none;stroke-opacity:1" transform="matrix(1.3333333,0,0,-1.3333333,368.12107,3264.1287)" />
      <path id="path41" d="m 0,0 c 0,-3.78 2.939,-6.573 7.434,-6.573 4.284,0 7.182,2.625 7.182,6.363 0,3.612 -2.583,6.573 -7.455,6.573 C 2.961,6.363 0,3.864 0,0 Z m 1.491,-0.084 c 0,3.045 2.94,4.515 5.754,4.515 3.213,0 5.88,-1.638 5.88,-4.536 0,-2.877 -2.709,-4.515 -5.733,-4.515 -3.108,0 -5.901,1.512 -5.901,4.536 z" style="fill:none;stroke:#e60013;stroke-width:1;stroke-linecap:butt;stroke-linejoin:miter;stroke-miterlimit:10;stroke-dasharray:none;stroke-opacity:1" transform="matrix(1.3333333,0,0,-1.3333333,348.94147,3249.0089)" />
      <path id="path42" d="m 0,0 h 8.337 c 4.39,0 6.049,2.184 6.049,5.082 0,3.066 -1.785,5.355 -6.133,5.355 H 0 V 8.589 h 8.379 c 3.129,0 4.516,-1.344 4.516,-3.444 0,-1.89 -1.344,-3.297 -4.516,-3.297 L 0,1.848 Z" style="fill:none;stroke:#e60013;stroke-width:1;stroke-linecap:butt;stroke-linejoin:miter;stroke-miterlimit:10;stroke-dasharray:none;stroke-opacity:1" transform="matrix(1.3333333,0,0,-1.3333333,349.24867,3237.3892)" />
      <path id="path43" d="m 0,0 v 1.827 h -6.132 v 1.722 c 0.063,1.659 0.798,2.415 2.751,2.835 1.764,0.399 2.982,0.714 3.381,0.945 v 1.89 C -0.546,8.925 -1.911,8.589 -3.885,8.127 -5.355,7.791 -6.363,7.14 -6.741,6.048 h -0.063 c -0.504,1.491 -1.743,2.667 -3.612,2.667 -1.092,0 -2.058,-0.399 -2.688,-1.113 -0.798,-0.882 -1.155,-2.142 -1.155,-4.095 0,-1.26 0.105,-2.583 0.294,-3.507 z m -12.684,1.827 c -0.084,0.294 -0.168,0.924 -0.168,1.806 0.021,1.932 0.819,3.255 2.646,3.255 1.617,0 2.688,-1.239 2.688,-3.192 V 1.827 Z" style="fill:none;stroke:#e60013;stroke-width:1;stroke-linecap:butt;stroke-linejoin:miter;stroke-miterlimit:10;stroke-dasharray:none;stroke-opacity:1" transform="matrix(1.3333333,0,0,-1.3333333,368.12107,3219.2452)" />
      <path id="path44" d="M 0,0 V 7.875 H -1.533 V 1.827 H -14.154 V 0 Z" style="fill:none;stroke:#e60013;stroke-width:1;stroke-linecap:butt;stroke-linejoin:miter;stroke-miterlimit:10;stroke-dasharray:none;stroke-opacity:1" transform="matrix(1.3333333,0,0,-1.3333333,368.12107,3198.2459)" />
      <path id="path45" d="M 0,0 H 14.154 V 1.827 H 0 Z" style="fill:none;stroke:#e60013;stroke-width:1;stroke-linecap:butt;stroke-linejoin:miter;stroke-miterlimit:10;stroke-dasharray:none;stroke-opacity:1" transform="matrix(1.3333333,0,0,-1.3333333,349.24867,3185.0304)" />
      <path id="path46" d="M 0,0 V 1.827 H -6.405 V 7.182 H -7.917 V 1.827 h -4.704 v 5.796 h -1.533 V 0 Z" style="fill:none;stroke:#e60013;stroke-width:1;stroke-linecap:butt;stroke-linejoin:miter;stroke-miterlimit:10;stroke-dasharray:none;stroke-opacity:1" transform="matrix(1.3333333,0,0,-1.3333333,368.12107,3178.3384)" />
      <path id="path47" d="M 0,0 V -5.502 H -4.473 V 0.315 H -6.006 V -7.329 H 8.148 V 0.63 H 6.615 V -5.502 H 1.513 V 0 Z" style="fill:none;stroke:#e60013;stroke-width:1;stroke-linecap:butt;stroke-linejoin:miter;stroke-miterlimit:10;stroke-dasharray:none;stroke-opacity:1" transform="matrix(1.3333333,0,0,-1.3333333,357.25653,3154.9308)" />
      </g></svg>