<?xml version='1.0' encoding='utf-8'?>
<svg xmlns="http://www.w3.org/2000/svg" version="1.1" width="55.678" height="98.427" viewBox="1770.520 4362.620 55.678 98.427"><g id="object"><path id="path107" d="m 0,0 c 0.049,-2.962 -0.876,-7.561 4.022,-7.022 4.299,0.474 6.259,4.166 5.996,8.94 C 9.805,5.778 9.258,10.073 4.963,9.646 0.292,9.182 -0.794,4.71 0,0 m -0.293,-25.416 c 1.737,-3.448 -1.95,-10.519 4.059,-11.591 3.956,-0.705 7.928,4.483 7.923,9.282 -0.006,4.913 -2.905,9.683 -7.925,10.325 -4.445,0.569 -3.884,-4.132 -4.057,-8.016 m -10.156,12.629 c 0,8.708 0.172,17.421 -0.075,26.122 -0.116,4.102 1.553,5.51 5.386,5.377 7.833,-0.274 16.176,1.844 21.871,-6.377 4.152,-5.995 5.457,-12.021 1.812,-18.496 -2.562,-4.55 -2.853,-8.175 0.573,-12.865 6.762,-9.254 1.892,-21.64 -8.748,-25.226 -5.271,-1.776 -10.562,-1.717 -15.854,-1.8 -4.474,-0.07 -4.845,3.681 -4.861,7.127 -0.038,8.713 -0.012,17.426 -0.012,26.139 -0.031,0 -0.061,-0.001 -0.092,-0.001" style="fill:#c33c36;fill-opacity:1;fill-rule:nonzero;stroke:none" transform="matrix(1.3333333,0,0,-1.3333333,1790.564,4393.6396)" />
      </g></svg>