<?xml version='1.0' encoding='utf-8'?>
<svg xmlns="http://www.w3.org/2000/svg" version="1.1" width="314.637" height="43.219" viewBox="2745.110 4220.050 314.637 43.219"><g id="object"><path id="path92" d="m 4.8996828,6.25e-4 h 2.109375 V -14.401719 H 11.95437 V -16.17125 H -0.02219219 v 1.769531 H 4.8996828 Z m 8.6191402,0 h 2.109375 v -7.0078125 c 0,-0.4101562 0.02344,-0.7148437 0.140625,-1.0078125 0.386719,-1.1484375 1.464844,-2.109375 2.835938,-2.109375 1.992187,0 2.683594,1.5820313 2.683594,3.4570313 V 6.25e-4 h 2.109375 v -6.9140625 c 0,-4.0078125 -2.496094,-4.9687495 -4.054688,-4.9687495 -0.785156,0 -1.535156,0.246093 -2.15625,0.597656 -0.644531,0.363281 -1.183594,0.890625 -1.511719,1.488281 h -0.04687 v -7.242187 h -2.109375 z m 22.646485,-5.4257812 c 0.02344,-0.2109375 0.07031,-0.5507813 0.07031,-0.984375 0,-2.1328125 -1.007812,-5.4726558 -4.792968,-5.4726558 -3.386719,0 -5.449219,2.7656245 -5.449219,6.2695308 0,3.5039062 2.132812,5.8476562 5.707031,5.8476562 1.851563,0 3.117188,-0.375 3.867188,-0.71484375 L 35.20437,-1.9915625 c -0.785156,0.3398438 -1.699218,0.5976563 -3.210937,0.5976563 -2.109375,0 -3.9375,-1.171875 -3.984375,-4.03125 z M 28.032495,-6.936875 c 0.164063,-1.4648437 1.101563,-3.433594 3.234375,-3.433594 2.378907,0 2.953125,2.0859378 2.929688,3.433594 z m 18.073242,6.9375 h 2.109375 v -14.402344 h 4.945313 V -16.17125 H 41.183862 v 1.769531 h 4.921875 z m 6.28125,-11.613281 4.300782,10.6992185 c 0.09375,0.26953125 0.140625,0.43359375 0.140625,0.55078125 0,0.12890625 -0.07031,0.29296875 -0.164063,0.50390625 -0.480469,1.078125 -1.195312,1.8984375 -1.78125,2.3554688 -0.621094,0.5273437 -1.3125,0.8671875 -1.839844,1.03125 l 0.527344,1.78125 C 54.097925,5.20375 55.129175,4.8521875 56.160425,3.938125 57.601831,2.6842188 58.633081,0.64515625 60.1448,-3.3392187 l 3.164062,-8.2734373 H 61.0823 l -2.308594,6.8085935 c -0.28125,0.84375 -0.527344,1.734375 -0.738281,2.4257813 h -0.04687 c -0.199219,-0.6914063 -0.480469,-1.6054688 -0.75,-2.3789063 l -2.542969,-6.8554685 z m 12.84961,16.3710935 h 2.085937 v -6.3164062 h 0.04687 c 0.691407,1.14843745 2.039063,1.82812495 3.574219,1.82812495 2.730469,0 5.273438,-2.07421875 5.273438,-6.24609375 0,-3.5273437 -2.109375,-5.9062495 -4.910157,-5.9062495 -1.898437,0 -3.269531,0.84375 -4.136718,2.2617183 h -0.04687 l -0.09375,-1.9921873 h -1.898438 c 0.04687,1.101562 0.105469,2.2968748 0.105469,3.785156 z m 2.085937,-11.4726562 c 0,-0.2929688 0.07031,-0.609375 0.140625,-0.8671875 0.410157,-1.5820313 1.746094,-2.6132808 3.1875,-2.6132808 2.238282,0 3.457032,1.992187 3.457032,4.3124995 0,2.671875 -1.289063,4.4882813 -3.527344,4.4882813 -1.511719,0 -2.777344,-1.0078125 -3.164063,-2.4726563 -0.04687,-0.2578125 -0.09375,-0.5507812 -0.09375,-0.8554687 z m 16.482422,-5.1679683 c -3.210937,0 -5.753906,2.2851558 -5.753906,6.1757808 0,3.6679687 2.425781,5.97656245 5.566406,5.97656245 2.8125,0 5.789063,-1.87499995 5.789063,-6.17578125 0,-3.5507812 -2.261719,-5.976562 -5.601563,-5.976562 z m -0.04687,1.582031 c 2.496094,0 3.480469,2.4960935 3.480469,4.4648435 0,2.625 -1.511719,4.5117188 -3.527344,4.5117188 -2.0625,0 -3.527344,-1.9101563 -3.527344,-4.4648438 0,-2.203125 1.078125,-4.5117185 3.574219,-4.5117185 z m 16.467774,-1.3125 -0.0937,1.7460935 h -0.0469 c -0.503912,-0.9609375 -1.617193,-2.0156245 -3.632818,-2.0156245 -2.660156,0 -5.226562,2.2382808 -5.226562,6.1757808 0,3.2109375 2.0625,5.6601562 4.945312,5.6601562 1.792969,0 3.046875,-0.8671875 3.691406,-1.9453125 h 0.04687 v 1.30078125 c 0,2.91796875 -1.582031,4.05468755 -3.738281,4.05468755 -1.441406,0 -2.648437,-0.4335938 -3.410156,-0.9140625 l -0.527344,1.6054687 c 0.9375,0.6210938 2.472656,0.9609375 3.867188,0.9609375 1.453125,0 3.09375,-0.3398437 4.218745,-1.3945312 1.125,-1.0078125 1.65235,-2.6367188 1.65235,-5.296875 v -6.75 c 0,-1.4179688 0.0469,-2.3554688 0.10547,-3.1874998 z m -0.339844,6.6679685 c 0,0.3632813 -0.04687,0.7734375 -0.164063,1.125 -0.457031,1.3476563 -1.628906,2.1679688 -2.929687,2.1679688 -2.285156,0 -3.433594,-1.8984375 -3.433594,-4.1835938 0,-2.6835937 1.441406,-4.3828125 3.457031,-4.3828125 1.535157,0 2.566407,1.0078125 2.953125,2.2265625 0.09375,0.2929688 0.117188,0.5976563 0.117188,0.9609375 z M 105.34109,6.25e-4 h 2.08594 v -6.1875 c 0,-0.3632812 0.0469,-0.703125 0.0937,-0.984375 0.28125,-1.59375 1.34765,-2.71875 2.83593,-2.71875 0.28125,0 0.50391,0.023437 0.71485,0.070312 v -1.992188 c -0.1875,-0.04687 -0.36328,-0.07031 -0.59766,-0.07031 -1.41797,0 -2.69531,0.984375 -3.22265,2.5429688 h -0.0937 l -0.0703,-2.2734378 h -1.85156 c 0.0703,1.078125 0.10547,2.2500003 0.10547,3.621094 z m 16.07226,0 c -0.14062,-0.796875 -0.1875,-1.78125 -0.1875,-2.7890625 V -7.124375 c 0,-2.3320312 -0.86718,-4.757812 -4.41796,-4.757812 -1.46485,0 -2.85938,0.410156 -3.82032,1.03125 l 0.48047,1.3945308 c 0.82031,-0.5273438 1.94531,-0.8671878 3.02344,-0.8671878 2.37891,0 2.64844,1.7343753 2.64844,2.6953128 v 0.234375 c -4.48828,-0.023437 -6.98438,1.5117187 -6.98438,4.3242187 0,1.6757813 1.19531,3.33984375 3.55078,3.33984375 1.65235,0 2.90625,-0.8203125 3.55078,-1.73437495 h 0.0703 l 0.16406,1.4648437 z m -2.22656,-3.9140625 c 0,0.2226563 -0.0469,0.4570313 -0.11719,0.6796875 -0.33984,0.9726563 -1.30078,1.9335938 -2.8125,1.9335938 -1.07812,0 -1.99218,-0.6445313 -1.99218,-2.015625 0,-2.25 2.61328,-2.6601563 4.92187,-2.6132813 z m 5.45215,3.9140625 h 2.10938 v -7.0078125 c 0,-0.4101562 0.0234,-0.7148437 0.14062,-1.0078125 0.38672,-1.1484375 1.46484,-2.109375 2.83594,-2.109375 1.99219,0 2.68359,1.5820313 2.68359,3.4570313 V 6.25e-4 h 2.10938 v -6.9140625 c 0,-4.0078125 -2.4961,-4.9687495 -4.05469,-4.9687495 -0.78516,0 -1.53516,0.246093 -2.15625,0.597656 -0.64453,0.363281 -1.18359,0.890625 -1.51172,1.488281 h -0.0469 v -7.242187 h -2.10938 z m 13.31836,4.7578125 h 2.08594 v -6.3164062 h 0.0469 c 0.69141,1.14843745 2.03906,1.82812495 3.57422,1.82812495 2.73047,0 5.27344,-2.07421875 5.27344,-6.24609375 0,-3.5273437 -2.10938,-5.9062495 -4.91016,-5.9062495 -1.89844,0 -3.26953,0.84375 -4.13672,2.2617183 h -0.0469 l -0.0937,-1.9921873 h -1.89844 c 0.0469,1.101562 0.10547,2.2968748 0.10547,3.785156 z m 2.08594,-11.4726562 c 0,-0.2929688 0.0703,-0.609375 0.14062,-0.8671875 0.41016,-1.5820313 1.7461,-2.6132808 3.1875,-2.6132808 2.23828,0 3.45703,1.992187 3.45703,4.3124995 0,2.671875 -1.28906,4.4882813 -3.52734,4.4882813 -1.51172,0 -2.77734,-1.0078125 -3.16406,-2.4726563 -0.0469,-0.2578125 -0.0937,-0.5507812 -0.0937,-0.8554687 z M 153.72195,6.25e-4 v -11.613281 h -2.10938 V 6.25e-4 Z m -1.05469,-16.195312 c -0.77344,0 -1.32422,0.574218 -1.32422,1.3125 0,0.726562 0.52735,1.300781 1.27735,1.300781 0.83203,0 1.35937,-0.574219 1.33593,-1.300781 0,-0.738282 -0.5039,-1.3125 -1.28906,-1.3125 z M 165.13894,-2.015 c -0.59766,0.2578125 -1.38281,0.5742188 -2.58984,0.5742188 -2.29688,0 -4.03125,-1.6523438 -4.03125,-4.3476563 0,-2.4140625 1.4414,-4.3828125 4.10156,-4.3828125 1.16016,0 1.94531,0.2578125 2.44922,0.5507813 l 0.48047,-1.6406253 c -0.57422,-0.28125 -1.67578,-0.597656 -2.92969,-0.597656 -3.78516,0 -6.23438,2.5898438 -6.23438,6.1757813 0,3.5507812 2.27344,5.9179687 5.77735,5.9179687 1.57031,0 2.78906,-0.375 3.33984,-0.66796875 z m 18.86426,-0.1640625 c -0.83203,0.3984375 -2.13281,0.6679688 -3.39844,0.6679688 -3.9375,0 -6.22266,-2.5429688 -6.22266,-6.5039063 0,-4.253906 2.51954,-6.667969 6.31641,-6.667969 1.33594,0 2.47266,0.28125 3.25781,0.667969 l 0.50391,-1.699219 c -0.55078,-0.292968 -1.81641,-0.726562 -3.83203,-0.726562 -5.01563,0 -8.44922,3.433594 -8.44922,8.4960935 0,5.3085938 3.43359,8.1796875 7.99219,8.1796875 1.96875,0 3.5039,-0.375 4.26562,-0.76171875 z m 5.02441,2.1796875 v -11.613281 h -2.10937 V 6.25e-4 Z m -1.05469,-16.195312 c -0.77343,0 -1.32421,0.574218 -1.32421,1.3125 0,0.726562 0.52734,1.300781 1.27734,1.300781 0.83203,0 1.35937,-0.574219 1.33594,-1.300781 0,-0.738282 -0.50391,-1.3125 -1.28907,-1.3125 z m 4.56153,16.195312 h 2.08594 v -6.1875 c 0,-0.3632812 0.0469,-0.703125 0.0937,-0.984375 0.28125,-1.59375 1.34765,-2.71875 2.83593,-2.71875 0.28125,0 0.50391,0.023437 0.71485,0.070312 v -1.992188 c -0.1875,-0.04687 -0.36328,-0.07031 -0.59766,-0.07031 -1.41797,0 -2.69531,0.984375 -3.22266,2.5429688 h -0.0937 l -0.0703,-2.2734378 h -1.85156 c 0.0703,1.078125 0.10547,2.2500003 0.10547,3.621094 z M 208.053,-2.015 c -0.59765,0.2578125 -1.38281,0.5742188 -2.58984,0.5742188 -2.29688,0 -4.03125,-1.6523438 -4.03125,-4.3476563 0,-2.4140625 1.44141,-4.3828125 4.10156,-4.3828125 1.16016,0 1.94531,0.2578125 2.44922,0.5507813 l 0.48047,-1.6406253 c -0.57422,-0.28125 -1.67578,-0.597656 -2.92969,-0.597656 -3.78515,0 -6.23437,2.5898438 -6.23437,6.1757813 0,3.5507812 2.27343,5.9179687 5.77734,5.9179687 1.57031,0 2.78906,-0.375 3.33984,-0.66796875 z m 2.8418,2.015625 h 2.10937 v -17.039062 h -2.10937 z m 14.99121,-5.4257812 c 0.0234,-0.2109375 0.0703,-0.5507813 0.0703,-0.984375 0,-2.1328125 -1.00781,-5.4726558 -4.79297,-5.4726558 -3.38671,0 -5.44921,2.7656245 -5.44921,6.2695308 0,3.5039062 2.13281,5.8476562 5.70703,5.8476562 1.85156,0 3.11718,-0.375 3.86718,-0.71484375 l -0.36328,-1.51171875 c -0.78515,0.3398438 -1.69922,0.5976563 -3.21093,0.5976563 -2.10938,0 -3.9375,-1.171875 -3.98438,-4.03125 z M 217.7532,-6.936875 c 0.16406,-1.4648437 1.10156,-3.433594 3.23437,-3.433594 2.37891,0 2.95313,2.0859378 2.92969,3.433594 z m 0,0" style="fill:#231916;fill-opacity:1;fill-rule:nonzero;stroke:none" aria-label="The Typograhpic Circle" transform="matrix(1.3333333,0,0,1.3333333,2751.8069,4249.4367)" />
      <path id="path93" d="m 0,0 h 2.112 v 14.4 h 4.944 v 1.776 H -4.92 V 14.4 l 4.92,0 z" style="fill:none;stroke:#231916;stroke-width:1;stroke-linecap:butt;stroke-linejoin:miter;stroke-miterlimit:10;stroke-dasharray:none;stroke-opacity:1" transform="matrix(1.3333333,0,0,-1.3333333,2758.3349,4249.4367)" />
      <path id="path94" d="m 0,0 h 2.112 v 7.008 c 0,0.408 0.024,0.72 0.144,1.008 0.384,1.152 1.464,2.112 2.832,2.112 1.992,0 2.688,-1.584 2.688,-3.456 V 0 h 2.112 v 6.912 c 0,4.008 -2.496,4.968 -4.056,4.968 -0.792,0 -1.536,-0.24 -2.16,-0.6 C 3.024,10.92 2.496,10.392 2.16,9.792 H 2.112 V 17.04 H 0 Z" style="fill:none;stroke:#231916;stroke-width:1;stroke-linecap:butt;stroke-linejoin:miter;stroke-miterlimit:10;stroke-dasharray:none;stroke-opacity:1" transform="matrix(1.3333333,0,0,-1.3333333,2769.8232,4249.4367)" />
      <path id="path95" d="m 0,0 c 0.024,0.216 0.072,0.552 0.072,0.984 0,2.136 -1.008,5.472 -4.8,5.472 -3.384,0 -5.448,-2.76 -5.448,-6.264 0,-3.504 2.136,-5.856 5.712,-5.856 1.848,0 3.12,0.384 3.864,0.721 l -0.36,1.511 c -0.792,-0.336 -1.704,-0.6 -3.216,-0.6 -2.112,0 -3.936,1.177 -3.984,4.032 z m -8.136,1.512 c 0.168,1.465 1.104,3.432 3.24,3.432 2.376,0 2.952,-2.088 2.928,-3.432 z" style="fill:none;stroke:#231916;stroke-width:1;stroke-linecap:butt;stroke-linejoin:miter;stroke-miterlimit:10;stroke-dasharray:none;stroke-opacity:1" transform="matrix(1.3333333,0,0,-1.3333333,2800.0309,4242.2049)" />
      <path id="path96" d="m 0,0 h 2.112 v 14.4 h 4.944 v 1.776 H -4.92 V 14.4 l 4.92,0 z" style="fill:none;stroke:#231916;stroke-width:1;stroke-linecap:butt;stroke-linejoin:miter;stroke-miterlimit:10;stroke-dasharray:none;stroke-opacity:1" transform="matrix(1.3333333,0,0,-1.3333333,2813.2789,4249.4367)" />
      <path id="path97" d="m 0,0 4.296,-10.704 c 0.096,-0.264 0.144,-0.432 0.144,-0.552 0,-0.12 -0.072,-0.288 -0.168,-0.504 -0.48,-1.08 -1.2,-1.896 -1.776,-2.352 -0.624,-0.529 -1.32,-0.865 -1.848,-1.033 l 0.528,-1.775 c 0.528,0.096 1.56,0.456 2.592,1.368 1.44,1.247 2.472,3.287 3.984,7.272 L 10.92,0 H 8.688 L 6.384,-6.816 C 6.096,-7.656 5.856,-8.544 5.64,-9.24 H 5.592 C 5.4,-8.544 5.112,-7.632 4.848,-6.864 L 2.304,0 Z" style="fill:none;stroke:#231916;stroke-width:1;stroke-linecap:butt;stroke-linejoin:miter;stroke-miterlimit:10;stroke-dasharray:none;stroke-opacity:1" transform="matrix(1.3333333,0,0,-1.3333333,2821.6624,4233.9484)" />
      <path id="path98" d="M 0,0 H 2.088 V 6.312 H 2.136 C 2.832,5.16 4.176,4.488 5.712,4.488 c 2.736,0 5.28,2.064 5.28,6.24 0,3.528 -2.112,5.904 -4.92,5.904 -1.896,0 -3.264,-0.84 -4.128,-2.256 H 1.896 L 1.8,16.368 H -0.096 C -0.048,15.264 0,14.063 0,12.576 Z m 2.088,11.472 c 0,0.288 0.072,0.6 0.144,0.864 0.408,1.584 1.752,2.616 3.192,2.616 2.232,0 3.456,-1.992 3.456,-4.32 C 8.88,7.968 7.584,6.144 5.352,6.144 3.84,6.144 2.568,7.152 2.184,8.616 2.136,8.88 2.088,9.168 2.088,9.479 Z" style="fill:none;stroke:#231916;stroke-width:1;stroke-linecap:butt;stroke-linejoin:miter;stroke-miterlimit:10;stroke-dasharray:none;stroke-opacity:1" transform="matrix(1.3333333,0,0,-1.3333333,2838.7829,4255.7727)" />
      <path id="path99" d="m 0,0 c -3.216,0 -5.76,-2.28 -5.76,-6.168 0,-3.672 2.424,-5.976 5.568,-5.976 2.808,0 5.784,1.873 5.784,6.168 C 5.592,-2.424 3.336,0 0,0 Z m -0.048,-1.584 c 2.496,0 3.48,-2.496 3.48,-4.464 0,-2.616 -1.512,-4.512 -3.528,-4.512 -2.064,0 -3.528,1.92 -3.528,4.464 0,2.208 1.08,4.512 3.576,4.512 z" style="fill:none;stroke:#231916;stroke-width:1;stroke-linecap:butt;stroke-linejoin:miter;stroke-miterlimit:10;stroke-dasharray:none;stroke-opacity:1" transform="matrix(1.3333333,0,0,-1.3333333,2863.5499,4233.5968)" />
      <path id="path100" d="m 0,0 -0.096,-1.752 h -0.048 c -0.504,0.96 -1.608,2.016 -3.624,2.016 -2.664,0 -5.232,-2.232 -5.232,-6.168 0,-3.216 2.064,-5.664 4.944,-5.664 1.8,0 3.048,0.864 3.696,1.944 h 0.048 v -1.296 c 0,-2.929 -1.584,-4.057 -3.744,-4.057 -1.44,0 -2.64,0.433 -3.408,0.913 l -0.528,-1.608 c 0.936,-0.624 2.472,-0.96 3.864,-0.96 1.464,0 3.096,0.336 4.224,1.392 1.128,1.008 1.656,2.639 1.656,5.303 v 6.745 C 1.752,-1.776 1.8,-0.84 1.848,0 Z m -0.336,-6.672 c 0,-0.36 -0.048,-0.768 -0.168,-1.128 -0.456,-1.345 -1.632,-2.16 -2.928,-2.16 -2.28,0 -3.432,1.896 -3.432,4.176 0,2.687 1.44,4.391 3.456,4.391 1.536,0 2.568,-1.007 2.952,-2.231 0.096,-0.288 0.12,-0.601 0.12,-0.96 z" style="fill:none;stroke:#231916;stroke-width:1;stroke-linecap:butt;stroke-linejoin:miter;stroke-miterlimit:10;stroke-dasharray:none;stroke-opacity:1" transform="matrix(1.3333333,0,0,-1.3333333,2885.4379,4233.9484)" />
      <path id="path101" d="m 0,0 h 2.088 v 6.192 c 0,0.36 0.048,0.696 0.096,0.984 0.288,1.584 1.344,2.712 2.832,2.712 0.288,0 0.504,-0.024 0.72,-0.072 v 1.992 C 5.544,11.856 5.376,11.88 5.136,11.88 3.72,11.88 2.448,10.896 1.92,9.336 H 1.824 l -0.072,2.28 H -0.096 C -0.024,10.536 0,9.36 0,7.992 Z" style="fill:none;stroke:#231916;stroke-width:1;stroke-linecap:butt;stroke-linejoin:miter;stroke-miterlimit:10;stroke-dasharray:none;stroke-opacity:1" transform="matrix(1.3333333,0,0,-1.3333333,2892.2536,4249.4367)" />
      <path id="path102" d="m 0,0 c -0.144,0.792 -0.192,1.776 -0.192,2.784 v 4.344 c 0,2.328 -0.864,4.752 -4.416,4.752 -1.464,0 -2.856,-0.408 -3.816,-1.032 l 0.48,-1.392 c 0.816,0.528 1.944,0.864 3.024,0.864 2.376,0 2.64,-1.728 2.64,-2.688 v -0.24 c -4.488,0.024 -6.984,-1.512 -6.984,-4.32 0,-1.68 1.2,-3.336 3.552,-3.336 1.656,0 2.904,0.816 3.552,1.728 h 0.072 L -1.92,0 Z M -2.232,3.912 C -2.232,3.696 -2.28,3.456 -2.352,3.24 -2.688,2.256 -3.648,1.296 -5.16,1.296 c -1.08,0 -1.992,0.648 -1.992,2.016 0,2.256 2.616,2.664 4.92,2.616 z" style="fill:none;stroke:#231916;stroke-width:1;stroke-linecap:butt;stroke-linejoin:miter;stroke-miterlimit:10;stroke-dasharray:none;stroke-opacity:1" transform="matrix(1.3333333,0,0,-1.3333333,2913.6937,4249.4367)" />
      <path id="path103" d="m 0,0 h 2.112 v 7.008 c 0,0.408 0.024,0.72 0.144,1.008 0.384,1.152 1.464,2.112 2.832,2.112 1.992,0 2.688,-1.584 2.688,-3.456 V 0 h 2.112 v 6.912 c 0,4.008 -2.496,4.968 -4.056,4.968 -0.792,0 -1.536,-0.24 -2.16,-0.6 C 3.024,10.92 2.496,10.392 2.16,9.792 H 2.112 V 17.04 H 0 Z" style="fill:none;stroke:#231916;stroke-width:1;stroke-linecap:butt;stroke-linejoin:miter;stroke-miterlimit:10;stroke-dasharray:none;stroke-opacity:1" transform="matrix(1.3333333,0,0,-1.3333333,2917.9821,4249.4367)" />
      <path id="path104" d="M 0,0 H 2.088 V 6.312 H 2.136 C 2.832,5.16 4.176,4.488 5.712,4.488 c 2.736,0 5.28,2.064 5.28,6.24 0,3.528 -2.112,5.904 -4.92,5.904 -1.896,0 -3.264,-0.84 -4.128,-2.256 H 1.896 L 1.8,16.368 H -0.096 C -0.048,15.264 0,14.063 0,12.576 Z m 2.088,11.472 c 0,0.288 0.072,0.6 0.144,0.864 0.408,1.584 1.752,2.616 3.192,2.616 2.232,0 3.456,-1.992 3.456,-4.32 C 8.88,7.968 7.584,6.144 5.352,6.144 3.84,6.144 2.568,7.152 2.184,8.616 2.136,8.88 2.088,9.168 2.088,9.479 Z" style="fill:none;stroke:#231916;stroke-width:1;stroke-linecap:butt;stroke-linejoin:miter;stroke-miterlimit:10;stroke-dasharray:none;stroke-opacity:1" transform="matrix(1.3333333,0,0,-1.3333333,2935.7412,4255.7727)" />
      <path id="path105" d="M 0,0 V 11.616 H -2.112 V 0 Z m -1.056,16.2 c -0.768,0 -1.32,-0.576 -1.32,-1.32 0,-0.72 0.528,-1.296 1.272,-1.296 0.84,0 1.368,0.576 1.344,1.296 0,0.744 -0.504,1.32 -1.296,1.32 z" style="fill:none;stroke:#231916;stroke-width:1;stroke-linecap:butt;stroke-linejoin:miter;stroke-miterlimit:10;stroke-dasharray:none;stroke-opacity:1" transform="matrix(1.3333333,0,0,-1.3333333,2956.7647,4249.4367)" />
      <path id="path106" d="m 0,0 c -0.6,-0.264 -1.392,-0.575 -2.592,-0.575 -2.304,0 -4.032,1.655 -4.032,4.344 0,2.423 1.44,4.391 4.104,4.391 1.152,0 1.944,-0.264 2.448,-0.552 l 0.48,1.632 c -0.576,0.288 -1.68,0.601 -2.928,0.601 -3.792,0 -6.24,-2.593 -6.24,-6.168 0,-3.553 2.28,-5.929 5.784,-5.929 1.56,0 2.784,0.384 3.336,0.672 z" style="fill:none;stroke:#231916;stroke-width:1;stroke-linecap:butt;stroke-linejoin:miter;stroke-miterlimit:10;stroke-dasharray:none;stroke-opacity:1" transform="matrix(1.3333333,0,0,-1.3333333,2971.9964,4246.7492)" />
      <path id="path107" d="m 0,0 c -0.84,-0.407 -2.136,-0.672 -3.408,-0.672 -3.936,0 -6.216,2.544 -6.216,6.504 0,4.248 2.52,6.673 6.312,6.673 1.344,0 2.472,-0.288 3.264,-0.673 l 0.504,1.704 c -0.552,0.288 -1.824,0.721 -3.84,0.721 -5.016,0 -8.448,-3.433 -8.448,-8.496 0,-5.305 3.432,-8.185 7.992,-8.185 1.968,0 3.504,0.384 4.272,0.769 z" style="fill:none;stroke:#231916;stroke-width:1;stroke-linecap:butt;stroke-linejoin:miter;stroke-miterlimit:10;stroke-dasharray:none;stroke-opacity:1" transform="matrix(1.3333333,0,0,-1.3333333,2997.1481,4246.5252)" />
      <path id="path108" d="M 0,0 V 11.616 H -2.112 V 0 Z m -1.056,16.2 c -0.768,0 -1.32,-0.576 -1.32,-1.32 0,-0.72 0.528,-1.296 1.272,-1.296 0.84,0 1.368,0.576 1.344,1.296 0,0.744 -0.504,1.32 -1.296,1.32 z" style="fill:none;stroke:#231916;stroke-width:1;stroke-linecap:butt;stroke-linejoin:miter;stroke-miterlimit:10;stroke-dasharray:none;stroke-opacity:1" transform="matrix(1.3333333,0,0,-1.3333333,3003.8363,4249.4367)" />
      <path id="path109" d="m 0,0 h 2.088 v 6.192 c 0,0.36 0.048,0.696 0.096,0.984 0.288,1.584 1.344,2.712 2.832,2.712 0.288,0 0.504,-0.024 0.72,-0.072 v 1.992 C 5.544,11.856 5.376,11.88 5.136,11.88 3.72,11.88 2.448,10.896 1.92,9.336 H 1.824 l -0.072,2.28 H -0.096 C -0.024,10.536 0,9.36 0,7.992 Z" style="fill:none;stroke:#231916;stroke-width:1;stroke-linecap:butt;stroke-linejoin:miter;stroke-miterlimit:10;stroke-dasharray:none;stroke-opacity:1" transform="matrix(1.3333333,0,0,-1.3333333,3008.5081,4249.4367)" />
      <path id="path110" d="m 0,0 c -0.6,-0.264 -1.392,-0.575 -2.592,-0.575 -2.304,0 -4.032,1.655 -4.032,4.344 0,2.423 1.44,4.391 4.104,4.391 1.152,0 1.944,-0.264 2.448,-0.552 l 0.48,1.632 c -0.576,0.288 -1.68,0.601 -2.928,0.601 -3.792,0 -6.24,-2.593 -6.24,-6.168 0,-3.553 2.28,-5.929 5.784,-5.929 1.56,0 2.784,0.384 3.336,0.672 z" style="fill:none;stroke:#231916;stroke-width:1;stroke-linecap:butt;stroke-linejoin:miter;stroke-miterlimit:10;stroke-dasharray:none;stroke-opacity:1" transform="matrix(1.3333333,0,0,-1.3333333,3029.2119,4246.7492)" />
      <path id="path111" d="M 0,0 H 2.112 V 17.04 H 0 Z" style="fill:none;stroke:#231916;stroke-width:1;stroke-linecap:butt;stroke-linejoin:miter;stroke-miterlimit:10;stroke-dasharray:none;stroke-opacity:1" transform="matrix(1.3333333,0,0,-1.3333333,3032.988,4249.4367)" />
      <path id="path112" d="m 0,0 c 0.024,0.216 0.072,0.552 0.072,0.984 0,2.136 -1.008,5.472 -4.8,5.472 -3.384,0 -5.448,-2.76 -5.448,-6.264 0,-3.504 2.136,-5.856 5.712,-5.856 1.848,0 3.12,0.384 3.864,0.721 l -0.36,1.511 c -0.792,-0.336 -1.704,-0.6 -3.216,-0.6 -2.112,0 -3.936,1.177 -3.984,4.032 z m -8.136,1.512 c 0.168,1.465 1.104,3.432 3.24,3.432 2.376,0 2.952,-2.088 2.928,-3.432 z" style="fill:none;stroke:#231916;stroke-width:1;stroke-linecap:butt;stroke-linejoin:miter;stroke-miterlimit:10;stroke-dasharray:none;stroke-opacity:1" transform="matrix(1.3333333,0,0,-1.3333333,3052.988,4242.2049)" />
      </g></svg>