<?xml version='1.0' encoding='utf-8'?>
<svg xmlns="http://www.w3.org/2000/svg" version="1.1" width="126.146" height="102.105" viewBox="2816.800 3955.210 126.146 102.105"><g id="object"><path id="path66" d="M 0,0 C -0.3,3.395 -2.185,6.341 -6.072,6.967 -9.524,7.525 -9.729,4.645 -9.273,2.206 -8.59,-1.455 -11.279,-7.13 -6.512,-8.284 -2.388,-9.282 -0.748,-4.49 0,0 m -9.123,-28.361 c 1.246,-3.133 -2.127,-9.145 4.441,-9.005 3.898,0.083 5.258,4.267 4.919,8.091 -0.362,4.074 -1.145,8.939 -6.14,8.871 -4.979,-0.069 -2.622,-4.901 -3.22,-7.957 m -3.156,46.227 C 5.268,20.273 12.098,9.09 11.658,-2.003 c -0.01,-0.233 0.169,-0.559 0.066,-0.691 -7.203,-9.236 -0.002,-17.724 1.387,-26.497 1.451,-9.165 -5.556,-18.242 -14.966,-19.201 -1.172,-0.12 -2.365,-0.015 -3.545,-0.067 -19.953,-0.876 -15.64,-2.764 -16.662,16.751 -0.772,14.742 -0.422,29.542 -0.726,44.313 -0.071,3.422 0.611,5.556 4.593,5.29 2.351,-0.157 4.721,-0.029 5.916,-0.029" style="fill:#494f57;fill-opacity:1;fill-rule:nonzero;stroke:none" transform="matrix(1.3333333,0,0,-1.3333333,2853.1904,3986.0379)" />
      <path id="path121" d="m 0,0 c 3.344,17.434 -5.157,31.498 -13.01,45.748 -0.342,0.621 -0.793,1.23 -0.942,1.9 -0.554,2.508 -4.452,5.793 -1.214,7.244 3.604,1.615 8.936,3.155 12.301,-1.292 2.241,-2.961 3.604,-6.595 5.309,-9.953 0.736,-1.452 1.088,-3.349 3.141,-3.384 2.217,-0.038 3.312,1.617 4.037,3.435 0.607,1.523 1.007,3.128 1.518,4.69 2.186,6.681 6.334,9.076 13.05,7.392 3.142,-0.787 4.516,-2.196 2.083,-5.473 C 20.315,42.277 18.229,32.331 13.775,23.504 11.115,18.233 12.91,10.612 13.1,4.06 c 0.067,-2.324 0.31,-4.637 0.288,-7 -0.055,-5.819 -2.117,-8.615 -8.501,-7.961 -6.357,0.651 -5.225,4.799 -5.023,8.778 C -0.1,-1.415 -0.046,-0.708 0,0" style="fill:#494f57;fill-opacity:1;fill-rule:nonzero;stroke:none" transform="matrix(1.3333333,0,0,-1.3333333,2900.2529,4036.5727)" />
      </g></svg>