<?xml version='1.0' encoding='utf-8'?>
<svg xmlns="http://www.w3.org/2000/svg" version="1.1" width="87.538" height="109.312" viewBox="1998.150 4084.670 87.538 109.312"><g id="object"><path id="path360" d="m 0,0 c 3.541,18.282 0.428,36.893 2.721,55.237 0.29,2.324 0.363,4.697 0.902,6.96 0.358,1.5 1.419,2.919 3.349,2.487 C 8.635,64.313 9.767,63.046 9.825,61.392 9.922,58.67 9.71,55.933 9.563,53.206 8.763,38.296 7.939,23.388 7.143,8.478 7.102,7.7 7.219,6.91 7.31,6.13 7.622,3.439 9.521,1.794 12.07,2.141 13.618,2.353 15.13,2.82 16.667,3.129 27.493,5.3 38.461,5.934 49.465,5.942 54.34,5.946 56.995,4.231 56.564,1.74 55.93,-1.929 52.66,-1.843 50.103,-2.088 43.854,-2.687 37.528,-2.579 31.302,-3.325 23.913,-4.21 16.539,-5.158 9.349,-7.495 2.628,-9.679 -0.457,-6.871 0,0" style="fill:#cd4152;fill-opacity:1;fill-rule:nonzero;stroke:none" transform="matrix(1.3333333,0,0,-1.3333333,2004.2067,4177.0183)" />
      </g></svg>