<?xml version='1.0' encoding='utf-8'?>
<svg xmlns="http://www.w3.org/2000/svg" version="1.1" width="63.272" height="101.889" viewBox="2218.810 4068.080 63.272 101.889"><g id="object"><path id="path65" d="m 0,0 c 1.566,-3.119 -1.94,-9.475 4.653,-10.147 4.844,-0.494 7.433,3.303 7.602,8.292 0.179,5.28 -1.189,9.589 -7.328,9.984 C -0.848,8.499 0.81,3.683 0,0 m 1.731,-24.13 c -2.309,-5.981 -0.864,-11.439 -0.99,-16.818 -0.09,-3.862 -0.65,-6.832 -5.742,-7.012 -5.014,-0.177 -7.125,2.203 -7.174,6.592 -0.144,12.972 0.009,25.946 -0.019,38.92 -0.011,5.195 -0.231,10.389 -0.285,15.584 -0.046,4.375 2.05,6.585 6.562,6.284 4.95,-0.331 9.973,-0.186 14.844,-0.982 15.032,-2.457 21.507,-18.51 11.661,-30.652 -4.92,-6.069 -3.756,-10.919 -1.278,-16.716 2.033,-4.757 3.889,-9.592 6.02,-14.304 1.404,-3.106 0.525,-4.33 -2.762,-4.55 -5.703,-0.381 -9.895,0.958 -12.188,7.069 -2.088,5.566 -3.212,11.812 -8.649,16.585" style="fill:#494f57;fill-opacity:1;fill-rule:nonzero;stroke:none" transform="matrix(1.3333333,0,0,-1.3333333,2241.4447,4100.0059)" />
      </g></svg>