<?xml version='1.0' encoding='utf-8'?>
<svg xmlns="http://www.w3.org/2000/svg" version="1.1" width="352.739" height="458.002" viewBox="2556.910 236.915 352.739 458.002"><g id="object"><path id="path16" d="m 0,0 c 23.742,0 44.043,0.572 64.271,-0.385 5.339,-0.253 11.86,-4.028 15.438,-8.23 20.052,-23.546 58.914,-30.227 83.477,-12.265 5.72,4.183 11.959,13.946 10.785,19.67 -1.459,7.111 -9.414,16.491 -16.246,18.214 -19.572,4.935 -39.95,6.851 -60.089,9.32 -68.447,8.392 -100.251,47.821 -92.434,115.019 5.127,44.079 41.918,75.329 100.047,84.98 65.312,10.843 128.059,-27.958 138.939,-86.11 0.851,-4.55 0.112,-9.397 0.112,-17.266 -22.622,0 -44.412,-0.474 -66.147,0.401 -4.321,0.174 -9.505,4.7 -12.467,8.603 -16.788,22.123 -42.137,28.892 -66.27,14.035 -8.29,-5.103 -17.552,-17.731 -16.737,-25.969 0.819,-8.29 12.423,-19.652 21.405,-22.174 21.767,-6.113 44.827,-7.48 67.243,-11.455 53.904,-9.56 78.093,-32.223 83.494,-77.493 5.262,-44.095 -18.529,-82.534 -64.13,-101.519 -46.945,-19.544 -93.89,-18.552 -139.145,5.028 C 18.015,-70.125 -0.582,-42.589 0,0" style="fill:#231916;fill-opacity:1;fill-rule:nonzero;stroke:none" transform="matrix(1.3333333,0,0,-1.3333333,2562.9232,547.1024)" />
      </g></svg>