<?xml version='1.0' encoding='utf-8'?>
<svg xmlns="http://www.w3.org/2000/svg" version="1.1" width="126.183" height="105.586" viewBox="1801.790 4179.230 126.183 105.586"><g id="object"><path id="path76" d="m 0,0 c -2.098,6.617 -1.028,13.434 -3.365,19.741 -1.422,3.836 -4.538,5.521 -8.121,5.773 -3.284,0.232 -6.149,-1.931 -7.092,-4.955 -3.815,-12.234 -4.232,-24.648 0.991,-36.531 2.908,-6.615 9.499,-6.392 13.398,-0.136 C -1.067,-11.1 -1.873,-5.142 0,0 m -34.187,2.63 c -0.487,5.264 -0.305,9.48 0.534,13.71 2.479,12.485 11.149,20.711 22.93,21.57 C -2.9,38.48 7.355,30.203 10.302,19.471 13.456,7.985 13.897,-3.926 10.193,-15.429 6.954,-25.49 -2.629,-33.23 -11.704,-32.151 c -11.803,1.403 -18.983,8.059 -21.797,21.662 -0.96,4.641 -1.409,9.363 -0.686,13.119" style="fill:#494f57;fill-opacity:1;fill-rule:nonzero;stroke:none" transform="matrix(1.3333333,0,0,-1.3333333,1904.8836,4235.8141)" />
      <path id="path143" d="m 0,0 c 0.888,9.921 -0.777,19.833 -0.662,29.754 0.04,3.442 -0.109,7.342 -5.796,6.528 -4.812,-0.688 -4.141,3.266 -4.404,6.263 -0.282,3.22 0.22,5.727 4.248,5.745 8.275,0.039 16.551,0.182 24.825,0.136 2.611,-0.015 5.081,-1.311 4.463,-4.203 -0.55,-2.573 0.929,-7.259 -3.808,-7.092 -8.224,0.291 -7.05,-5.428 -6.788,-10.131 0.506,-9.091 0.965,-18.176 0.177,-27.243 -0.313,-3.612 0.227,-7.026 0.577,-10.544 0.499,-5.012 -0.806,-8.694 -7.083,-8.711 -6.248,-0.017 -5.882,3.967 -5.77,8.174 C 0.079,-7.552 0,-3.775 0,0" style="fill:#494f57;fill-opacity:1;fill-rule:nonzero;stroke:none" transform="matrix(1.3333333,0,0,-1.3333333,1822.3561,4252.3025)" />
      </g></svg>