<?xml version='1.0' encoding='utf-8'?>
<svg xmlns="http://www.w3.org/2000/svg" version="1.1" width="156.873" height="176.890" viewBox="1722.290 938.190 156.873 176.890"><defs id="defs1"><clipPath clipPathUnits="userSpaceOnUse" id="clipPath46">
      <path d="M 0,3370.3901 H 2383.9401 V -2.5000001e-5 H 0 Z" id="path46" />
    </clipPath>
  </defs><g id="object"><path id="path30" d="M 0,0 C 0,9.629 -0.438,19.284 0.134,28.879 0.618,37 2.452,45.713 13.39,44.345 c 9.539,-1.193 9.188,-9.24 8.102,-16.384 -2.952,-19.411 1.056,-38.399 3.128,-57.498 2.016,-18.58 12.315,-28.917 31.259,-28.056 17.911,0.814 26.646,12.163 27.457,29.206 0.914,19.227 0.474,38.514 1.075,57.761 0.227,7.272 2.355,14.682 11.329,15.042 9.011,0.36 11.902,-6.746 12.201,-14.105 1.105,-27.171 0.356,-54.848 -7.474,-80.528 C 94.09,-71.132 74.057,-80.025 52.081,-79.117 27.549,-78.104 11.737,-64.253 3.346,-41.629 -1.659,-28.132 -0.105,-13.966 0,0" style="fill:#424242;fill-opacity:1;fill-rule:nonzero;stroke:none" transform="matrix(1.3333333,0,0,-1.3333333,1728.6987,1003.5073)" />
      </g></svg>