<?xml version='1.0' encoding='utf-8'?>
<svg xmlns="http://www.w3.org/2000/svg" version="1.1" width="65.981" height="102.542" viewBox="991.945 4068.940 65.981 102.542"><g id="object"><path id="path67" d="m 0,0 c 0,-6.618 0.045,-13.235 -0.015,-19.852 -0.044,-4.883 0.864,-9.513 6.64,-9.93 6.443,-0.464 6.921,5.231 7.057,9.427 0.421,12.958 0.299,25.941 0.106,38.91 -0.106,7.19 3.94,10.054 10.734,7.19 1.191,-0.502 2.147,-1.079 2.074,-2.466 -0.946,-18.015 2.441,-36.14 -1.398,-54.086 -0.578,-2.701 -1.935,-4.698 -4.162,-6.329 -5.859,-4.292 -20.082,-5.341 -25.713,-1.774 -7.152,4.532 -9.806,12.427 -8.091,22.356 0.984,5.701 0.317,11.711 -0.069,17.296 -0.456,6.591 1.094,13.168 -0.321,19.64 -0.899,4.108 0.629,5.88 4.72,5.525 3.43,-0.299 8.225,1.705 8.235,-4.656 C -0.191,14.168 -0.2,7.084 -0.2,0 -0.133,0 -0.067,0 0,0" style="fill:#494f57;fill-opacity:1;fill-rule:nonzero;stroke:none" transform="matrix(1.3333333,0,0,-1.3333333,1015.8204,4110.7336)" />
      </g></svg>