<?xml version='1.0' encoding='utf-8'?>
<svg xmlns="http://www.w3.org/2000/svg" version="1.1" width="511.014" height="1308.099" viewBox="68.759 1277.490 511.014 1308.099"><g id="object"><path id="path114" d="m 0,0 c -1.548,-0.104 -3.186,-0.591 -4.629,-0.251 -12.173,2.865 -24.514,4.942 -34.863,13.15 -6.765,5.365 -10.341,5.13 -16.708,-1.031 -9.211,-8.915 -20.762,-13.826 -31.456,-20.225 -1.004,-0.601 -2.389,-0.727 -3.181,-1.5 -7.836,-7.646 -18.314,-10.484 -27.695,-15.291 -8.735,-4.477 -17.804,-8.263 -26.214,-13.425 -8.822,-5.414 -18.324,-6.695 -28.34,-3.454 -3.648,1.181 -6.193,3.335 -7.394,6.946 -0.492,1.481 -0.184,3.488 -1.081,4.532 -5.401,6.287 -1.142,11.415 2.762,15.197 4.777,4.627 10.949,7.834 18.26,4.736 3.06,-1.297 3.872,-2.745 3.683,-7.278 -0.135,-3.257 1.052,-4.264 4.042,-3.005 5.429,2.287 10.868,4.593 16.118,7.256 15.765,7.997 31.471,16.112 47.137,24.3 6.606,3.452 13.046,7.218 19.581,10.807 3.184,1.749 3.995,4.62 3.986,7.952 -0.016,5.837 -2.612,10.865 -6.089,15.063 -5.466,6.599 -10.828,13.294 -18.635,17.747 -6.057,3.455 -11.196,8.502 -16.812,12.75 -5.64,4.266 -11.18,8.722 -18.345,10.338 -1.511,0.341 -3.015,1.006 -4.345,1.813 -13.739,8.34 -28.154,15.419 -42.399,22.812 -7.733,4.014 -14.755,9.101 -20.424,15.635 -7.951,9.165 -16.32,18.019 -23.041,28.207 -1.302,1.974 -2.769,3.769 -3.104,6.251 -0.538,3.99 -2.274,7.457 -4.8,10.612 -0.947,1.183 -1.598,2.74 -1.965,4.23 -5.087,20.662 -6.923,40.999 5.576,60.092 5.776,8.822 12.775,16.723 18.369,25.73 3.431,5.525 9.135,9.648 13.868,14.349 2.791,2.77 5.68,5.441 8.523,8.154 1.539,0.512 3.081,1.029 4.623,1.545 0.859,-2.047 2.018,-4.027 2.501,-6.16 0.587,-2.594 2.417,-2.394 4.232,-2.561 -2.365,-6.652 -4.387,-13.422 -10.582,-17.919 -2.552,-1.853 -4.306,-4.711 -4.447,-8.051 -0.227,-5.348 -3.057,-8.666 -7.684,-10.879 -1.379,-0.659 -2.63,-1.654 -3.807,-2.653 -3.113,-2.642 -5.284,-5.822 -5.097,-10.13 0.259,-5.983 -1.626,-11.409 -3.192,-17.13 -2.46,-8.988 -2.984,-18.624 -0.496,-27.953 2.228,-8.353 4.952,-16.576 7.044,-24.96 1.409,-5.645 4.27,-10.269 8.795,-13.57 11.034,-8.052 21.566,-16.739 33.71,-23.346 8.945,-4.868 18.017,-9.555 26.813,-14.687 6.646,-3.878 14.227,-5.64 20.336,-11.003 5.512,-4.839 12.69,-7.796 19.179,-11.501 3.705,-2.116 7.645,-5.595 11.914,-3.29 4.959,2.677 3.485,8.233 3.283,12.789 -0.615,13.869 1.681,27.45 4.373,40.911 1.365,6.825 3.575,13.77 6.914,19.828 3.119,5.66 3.794,11.122 2.606,16.955 -0.667,3.279 -0.53,6.065 0.805,9.082 3.332,7.527 5.85,15.49 9.887,22.601 2.399,4.226 6.572,7.993 10.815,10.493 6.225,3.667 12.228,9.067 20.543,6.95 19.957,4.566 36.641,-3.57 53.424,-12.868 10.331,-5.723 16.503,-14.097 20.789,-24.434 4.205,-10.141 9.892,-19.558 12.857,-30.353 2.734,-9.953 3.626,-20.054 5.09,-30.128 0.215,-1.485 -0.07,-3.2 -0.625,-4.612 C 72.516,109.875 71.862,103.215 70.63,96.66 69.179,88.94 66.855,81.666 62.601,74.752 58.124,67.474 55.591,59.031 51.63,51.398 46.939,42.358 41.752,33.565 36.491,24.839 35.352,22.949 32.985,21.799 31.188,20.31 26.81,19.765 22.695,21.576 18.482,21.837 13.909,22.12 9.65,18.848 4.816,19.469 c -0.387,0.05 -0.783,0.026 -1.174,0.036 11.447,14.687 19.664,31.111 26.071,48.507 2.975,8.079 5.965,16.13 8.152,24.497 4.493,17.194 8.107,34.368 4.003,52.208 -0.791,3.436 -1.35,6.962 -1.608,10.477 -1.492,20.271 -12.037,35.35 -27.424,47.485 -8.467,6.678 -14.871,5.694 -23.58,-2.898 3.933,-3.161 7.964,-6.179 11.723,-9.504 2.266,-2.005 1.227,-4.216 -0.539,-6.126 -0.435,-0.499 -0.905,-0.964 -1.408,-1.393 -1.291,-2.631 -2.591,-4.898 -6.253,-3.063 -7.683,3.848 -7.907,3.721 -11.758,-2.747 -1.609,-2.701 -3.402,-5.306 -4.82,-8.102 -2.484,-4.895 -4.598,-9.917 -5.019,-15.538 -0.152,-2.036 0.331,-3.57 1.035,-5.46 1.931,-5.177 4.177,-9.974 7.965,-14.119 1.655,-1.81 1.506,-4.424 -0.326,-6.452 -1.494,-1.653 -3.603,-1.925 -5.413,-1.105 -3.495,1.584 -6.804,3.58 -10.303,5.467 -0.5,-0.551 -1.222,-1.005 -1.432,-1.63 -3.746,-11.166 -5.991,-22.715 -8.068,-34.256 -1.171,-6.505 -1.928,-13.353 -1.221,-19.867 1.056,-9.722 2.964,-19.457 5.618,-28.875 3.243,-11.504 10.858,-19.474 21.86,-24.82 6.676,-3.244 13.494,-3.805 20.469,-4.646 C -0.712,11.823 -0.215,5.901 0,0" style="fill:#e6dd4a;fill-opacity:1;fill-rule:nonzero;stroke:none" transform="matrix(1.3333333,0,0,-1.3333333,444.5196,2248.352)" />
      <path id="path122" d="m 0,0 c -1.814,-8.95 0.641,-17.528 0.338,-26.12 -0.168,-4.756 -0.172,-8.553 5.735,-9.244 0.429,-0.051 0.864,-1.263 1.047,-1.997 0.849,-3.397 3.126,-3.059 5.392,-1.913 3.508,1.774 6.622,3.983 9.035,7.314 2.75,3.797 6.198,7.079 9.149,10.74 6.387,7.921 12.898,15.761 18.913,23.96 11.504,15.681 10.305,33.093 2.857,49.208 -9.005,19.486 -23.129,35.436 -42.351,46.098 -3.799,2.108 -7.69,3.759 -12.318,2.894 -5.18,-0.968 -7.153,-2.812 -6.597,-7.818 0.82,-7.383 1.999,-14.727 3.017,-22.088 1.93,-13.965 4.348,-27.886 5.614,-41.911 C 0.71,19.389 0,9.51 0,0 m -19.632,113.466 c 0.392,-0.011 0.788,0.013 1.174,-0.037 4.834,-0.62 9.093,2.652 13.666,2.368 4.214,-0.261 8.328,-2.072 12.706,-1.526 0.878,-0.779 1.635,-1.931 2.663,-2.275 11.562,-3.879 19.489,-12.918 28.598,-20.211 6.088,-4.874 10.262,-11.837 16.805,-16.321 5.408,-9.92 12.176,-19.188 14.732,-30.477 0.606,-2.677 0.741,-5.477 1.506,-8.1 3.421,-11.737 0.413,-22.435 -5.152,-32.698 -1.29,-2.378 -2.788,-4.866 -4.803,-6.582 -4.316,-3.673 -7.585,-8.018 -9.537,-13.23 -3.286,-8.778 -10.335,-14.646 -16.156,-21.446 -4.043,-4.723 -8.376,-9.22 -12.818,-13.575 -5.88,-5.767 -11.901,-11.636 -19.818,-14.38 -6.034,-2.093 -8.687,-5.877 -9.608,-11.897 -0.798,-5.219 -3.415,-9.59 -8.356,-12.162 -1.99,0.997 -3.979,1.994 -5.967,2.992 -0.146,2.353 -0.844,4.826 -0.357,7.038 3.989,18.12 2.975,36.739 5.667,54.98 0.861,5.839 0.949,11.669 0.124,17.592 -0.7,5.028 -0.878,10.21 -0.572,15.28 1.026,16.95 -0.915,33.65 -3.155,50.397 -1.551,11.593 -2.781,23.223 -4.983,34.742 -0.216,5.923 -0.713,11.846 1.35,17.561 0.753,0.651 1.522,1.309 2.291,1.967" style="fill:#dc7c44;fill-opacity:1;fill-rule:nonzero;stroke:none" transform="matrix(1.3333333,0,0,-1.3333333,475.55133,2373.6325)" />
      <path id="path133" d="m 0,0 c 0.382,-5.075 0.657,-10.161 1.2,-15.218 0.204,-1.904 0.564,-4.092 1.658,-5.544 3.165,-4.201 4.715,-8.948 6.077,-13.914 2.312,-8.432 5.898,-8.821 13.276,-7.414 4.584,0.874 8.961,2.862 13.715,3.202 3.899,0.278 7.8,0.919 11.689,0.844 7.39,-0.143 14.845,1.04 22.217,-0.903 0.058,-2.534 -1.98,-3.267 -3.728,-3.814 -9.706,-3.035 -19.417,-6.072 -29.219,-8.773 -4.643,-1.28 -8.783,-3.328 -12.617,-6.102 -2.068,-1.496 -3.115,-3.732 -2.55,-6.187 1.679,-7.292 2.63,-14.66 2.997,-22.121 0.036,-0.753 0.206,-1.666 0.666,-2.204 4.368,-5.117 4.137,-11.618 5.755,-17.621 1.915,-7.108 3.527,-14.288 6.285,-21.293 3.811,-9.679 7.447,-19.721 7.837,-30.521 0.153,-4.227 1.667,-8.46 2.946,-12.571 0.846,-2.721 0.127,-4.492 -1.974,-6.078 -1.252,-0.946 -2.32,-2.15 -3.621,-3.01 -6.446,-4.262 -13.852,-3.229 -19.016,2.548 -5.19,5.806 -8.676,13.016 -15.066,17.902 -1.063,0.813 -0.578,3.65 -0.854,5.935 2.099,-2.387 3.805,-4.439 5.635,-6.372 1.388,-1.466 3.182,-2.143 5.201,-2.481 2.836,-0.474 4.879,1.031 4.475,3.622 -0.242,1.55 -0.554,3.104 -1.007,4.604 -5.203,17.219 -9.169,34.819 -16.081,51.516 -1.791,4.329 -3.307,8.821 -3.476,13.635 -0.188,5.36 -3.689,9.403 -5.864,13.959 -0.764,1.6 -2.536,1.806 -4.111,1.361 -3.411,-0.964 -6.7,-2.239 -9.459,-4.588 -1.527,-1.299 -3.214,-2.24 -5.32,-2.077 1.174,4.323 5.882,5.841 7.697,9.72 -3.331,3.781 -7.125,3.061 -11.405,1.704 -3.383,-1.073 -4.318,0.507 -3.926,5.491 1.505,-0.643 2.986,-0.635 4.55,-0.086 5.613,1.969 10.434,5.346 15.375,8.516 -0.53,-2.239 -1.297,-4.453 -1.541,-6.723 -0.462,-4.288 1.859,-6.722 6.721,-6.5 2.71,0.124 4.816,-0.485 5.688,-2.809 1.397,-3.718 3.408,-6.885 6.233,-9.619 2.042,-1.976 2.973,-4.203 2.578,-7.263 -0.222,-1.715 1.032,-3.622 1.622,-5.442 -0.152,-0.23 -0.304,-0.46 -0.456,-0.69 0.118,0.262 0.237,0.525 0.356,0.787 7.034,1.213 7.343,1.36 5.776,6.782 -1.173,4.06 -0.885,8.635 -4.074,12.091 -0.678,0.735 -1.144,2.449 -0.756,3.254 2.039,4.24 -0.52,9.646 3.448,13.316 1.09,1.009 0.823,2.171 0.282,3.185 -1.475,2.762 -2.816,6.147 -5.751,7.203 -5.235,1.883 -6.653,6.151 -8.276,10.566 -0.938,2.552 -1.382,5.747 -3.188,7.431 -4.883,4.55 -3.617,10.969 -5.82,16.27 -0.39,0.939 -0.224,2.517 0.338,3.372 C -4.776,-5.944 -4.023,-1.718 0,0" style="fill:#dc7c44;fill-opacity:1;fill-rule:nonzero;stroke:none" transform="matrix(1.3333333,0,0,-1.3333333,174.10907,2337.1233)" />
      <path id="path141" d="M 0,0 C -0.236,0.827 -0.436,1.909 -0.856,2.898 -1.273,3.876 -2.021,4.844 -3.209,4.397 -3.671,4.223 -4.035,3.146 -4.02,2.491 -3.995,1.42 -3.784,0.28 -3.33,-0.678 c 0.236,-0.499 1.201,-0.973 1.765,-0.9 C -1.054,-1.512 -0.641,-0.688 0,0 m -13.529,38.83 c 0.354,-1.545 0.571,-3.064 1.063,-4.487 0.506,-1.46 1.42,-2.715 3.131,-2.942 1.861,-0.247 2.593,1.239 3.537,2.414 3.101,3.857 0.134,7.24 -0.883,10.737 -0.307,1.054 -1.276,2.117 -2.579,1.654 -0.985,-0.349 -2.155,-1.058 -2.575,-1.929 -0.81,-1.682 -1.148,-3.591 -1.694,-5.447 M -1.481,68.255 C -2.023,57.364 -3.302,46.432 0.6,35.817 1.987,32.044 1.709,28.101 1.683,24.16 1.639,17.518 1.399,10.86 3.61,4.388 5.518,-1.2 4.683,-7.193 5.997,-12.992 c 1.805,-7.963 2.714,-16.12 4.448,-24.17 2.372,-11.016 2.791,-22.454 3.972,-33.719 0.117,-1.113 0.026,-2.476 -0.535,-3.366 -0.543,-0.862 -1.861,-1.84 -2.762,-1.77 -4.026,0.309 -6.704,3.501 -6.754,7.676 -0.152,12.6 -1.796,24.941 -5.505,37.046 -1.481,4.832 -2.297,9.882 -2.429,15.067 -0.073,2.912 -0.896,6.398 -4.489,7.528 -2.525,0.794 -5.63,-2.601 -6.031,-7.361 -0.526,-6.26 -0.517,-12.544 -3.488,-18.329 -1.955,-3.808 -3.833,-7.658 -5.666,-11.527 -3.857,-8.137 -7.479,-16.396 -8.767,-25.381 -0.488,-3.398 -3.637,-5.452 -4.165,-8.052 -1.77,-8.718 -7.492,-14.223 -13.503,-19.848 -2.553,-2.39 -4.497,-5.432 -6.709,-8.171 -0.697,0.114 -1.309,0.381 -1.828,0.807 -0.686,3.279 -2.813,5.79 -4.535,8.517 3.555,4.16 6.221,8.974 10.399,12.732 2.53,2.275 4.353,5.637 5.733,8.838 7.891,18.304 16.51,36.302 23.265,55.095 1.22,3.394 1.804,6.673 2.028,10.258 0.486,7.785 2.342,15.288 4.672,22.82 2.169,7.008 1.243,14.625 -1.525,21.647 -1.436,3.643 -3.398,7.077 -5.068,10.631 -3.594,7.649 -3.708,15.597 0.82,22.529 3.47,5.314 4.458,10.709 4.608,16.628 4.105,-5.141 5.121,-10.349 0.364,-15.69 -2.506,-2.813 -3.14,-6.193 -2.881,-9.803 0.083,-1.158 0.416,-2.421 1.89,-2.446 0.663,-0.012 1.397,0.46 1.989,0.87 1.025,0.713 2.067,4.662 2.844,-0.164 0.243,-1.511 0.753,-3.058 1.496,-4.39 1.042,-1.869 2.902,-2.569 4.964,-2.041 1.647,0.421 2.617,1.75 2.594,3.441 -0.06,4.275 -0.239,8.55 -0.439,12.822 -0.085,1.819 0.888,2.841 2.334,3.613 0.389,-0.368 0.783,-0.732 1.181,-1.09" style="fill:#5c567e;fill-opacity:1;fill-rule:nonzero;stroke:none" transform="matrix(1.3333333,0,0,-1.3333333,399.1504,1723.1993)" />
      <path id="path145" d="m 0,0 c -1.519,3.701 -3.283,7.15 -6.299,9.769 -3.721,3.23 -7.171,2.791 -9.893,-1.09 -6.885,-9.812 -10.241,-21.003 -12.663,-32.548 -0.321,-1.532 -0.157,-3.189 -0.615,-4.664 -5.593,-18.008 -3.63,-36.557 -4.038,-54.936 -0.095,-4.301 -0.215,-8.602 -0.304,-12.903 -0.265,-12.831 1.121,-23.082 4.913,-34.569 0.455,-1.379 1.942,-2.386 2.771,-3.68 1.353,-2.113 0.384,-3.923 -1.465,-4.882 -8.082,-4.195 -16.968,-0.553 -19.626,7.994 -0.812,2.61 -1.724,5.326 -1.786,8.012 -0.373,16.045 -3.79,31.946 -1.518,48.152 0.968,6.9 -0.083,14.074 -0.101,21.123 -0.019,7.066 0.09,14.109 2.641,20.893 0.816,2.171 1.134,4.6 1.293,6.937 1.321,19.422 11.177,35.709 19.239,52.653 0.669,1.406 1.574,2.725 2.527,3.964 1.088,1.415 2.688,1.726 4.159,0.832 3.671,-2.232 7.553,-4.21 10.067,-7.956 C -5.898,15.95 -0.868,8.92 0,0" style="fill:#dc7c44;fill-opacity:1;fill-rule:nonzero;stroke:none" transform="matrix(1.3333333,0,0,-1.3333333,393.7104,2295.5607)" />
      <path id="path149" d="m 0,0 c 0.094,-0.889 0.031,-1.698 0.295,-2.38 0.254,-0.658 0.73,-1.383 1.315,-1.729 1.154,-0.681 2.102,0.055 2.792,0.937 0.459,0.585 0.904,1.319 0.992,2.032 C 5.798,2.098 8.441,5.396 5.261,8.564 5.081,8.743 4.568,8.79 4.322,8.67 0.621,6.855 0.583,3.228 0,0 m -13.534,-82.781 c 0.047,-0.777 0.378,-1.68 0.098,-2.313 -6.401,-14.461 -8.812,-30.059 -12.883,-45.179 -1.336,-4.962 -2.963,-9.77 -5.198,-14.394 -1.227,-2.541 -3.208,-3.282 -5.787,-2.824 -2.619,0.466 -4.245,1.951 -4.311,4.741 -0.12,5.066 -0.106,10.002 0.766,15.153 2.783,16.436 10.069,31.308 15.152,46.926 1.216,3.736 2.488,7.418 3.368,11.257 1.393,6.074 2.429,12.164 5.87,17.723 2.688,4.343 2.742,9.756 2.835,14.908 0.05,2.735 0.017,5.513 0.486,8.191 1.257,7.183 5.592,13.908 3.123,21.634 2.194,7.297 1.884,14.803 1.531,22.246 -0.262,5.51 2.063,10.836 0.689,16.395 -1.209,4.886 -2.113,9.847 -3.235,15.168 1.879,0.471 3.346,0.8 4.791,1.206 10.157,2.858 17.69,-0.182 22.319,-9.856 0.503,-1.051 1.05,-2.126 1.79,-3.012 1.697,-2.031 3.598,-2.896 5.989,-0.822 1.167,1.013 2.591,1.73 3.899,2.582 -0.183,-1.926 0.071,-4.032 -0.633,-5.745 -2.181,-5.301 -8.714,-6.39 -12.319,-2.15 -0.973,1.145 -1.356,2.77 -2.163,4.079 -1.841,2.984 -3.525,6.115 -5.74,8.801 -2.54,3.08 -6.449,3.42 -9.665,1.893 -3.574,-1.698 -0.8,-4.803 -0.174,-7.175 0.588,-2.229 1.27,-4.835 2.822,-6.328 C 3.752,26.607 4.946,21.592 7.145,17.105 11.608,7.999 13.179,-1.313 8.158,-10.914 5.436,-16.118 5.68,-21.429 8.929,-26.466 8.126,-31.224 6.96,-35.83 3.584,-39.531 c -5.622,-0.181 -9.484,-3.122 -12.137,-7.853 -1.145,-2.044 -2.569,-4.085 -3.07,-6.307 -1.133,-5.024 -2.43,-9.801 -6.178,-13.677 -0.904,-0.934 -1.15,-2.914 -1.029,-4.357 0.411,-4.884 -0.553,-9.326 -3.455,-13.293 -1.227,-1.676 -2.056,-3.661 -1.246,-5.492 1.995,-4.508 -0.465,-7.373 -3.105,-10.392 -0.794,-0.908 -0.735,-2.224 0.712,-2.614 0.623,-0.168 1.678,0.151 2.125,0.631 2.202,2.367 3.426,5.259 3.521,8.478 0.153,5.142 2.448,8.938 6.744,11.626" style="fill:#dc7c44;fill-opacity:1;fill-rule:nonzero;stroke:none" transform="matrix(1.3333333,0,0,-1.3333333,130.31707,2365.9073)" />
      <path id="path158" d="m 0,0 c -3.252,5.034 -3.496,10.345 -0.774,15.549 5.022,9.6 3.451,18.913 -1.012,28.019 -2.199,4.487 -3.393,9.502 -7.259,13.219 -1.553,1.493 -2.235,4.099 -2.823,6.328 -0.625,2.372 -3.4,5.477 0.175,7.175 3.215,1.527 7.125,1.187 9.664,-1.893 2.215,-2.686 3.9,-5.818 5.74,-8.801 0.808,-1.309 1.191,-2.935 2.164,-4.079 3.605,-4.24 10.138,-3.151 12.318,2.15 0.705,1.713 0.45,3.819 0.634,5.745 0,-10e-4 0.25,0.411 0.25,0.411 3.201,-0.849 4.85,3.398 8.302,2.49 1.686,-5.48 -3.259,-9.985 -2.332,-15.3 -0.379,-0.989 -0.757,-1.977 -1.135,-2.964 -4.023,-1.716 -4.776,-5.942 -6.863,-9.12 -0.561,-0.855 -0.728,-2.433 -0.337,-3.372 2.203,-5.301 0.936,-11.72 5.819,-16.271 1.806,-1.683 2.25,-4.878 3.188,-7.43 1.623,-4.416 3.041,-8.684 8.277,-10.566 2.934,-1.056 4.275,-4.441 5.75,-7.204 0.541,-1.013 0.809,-2.175 -0.282,-3.184 -3.967,-3.67 -1.409,-9.076 -3.448,-13.316 -0.387,-0.805 0.079,-2.519 0.757,-3.255 3.188,-3.456 2.9,-8.03 4.074,-12.09 1.566,-5.422 1.258,-5.569 -5.777,-6.782 0,0 0.1,-0.097 0.1,-0.097 -0.589,1.82 -1.844,3.727 -1.622,5.442 0.395,3.06 -0.536,5.287 -2.577,7.262 -2.825,2.734 -4.837,5.902 -6.233,9.62 -0.873,2.324 -2.978,2.933 -5.688,2.809 -4.862,-0.223 -7.183,2.212 -6.722,6.5 0.245,2.27 1.011,4.484 1.54,6.718 -0.003,-0.004 0.328,1.085 0.328,1.085 5.379,3.74 5.326,5.097 -0.331,8.604 -0.17,1.685 -0.34,3.369 -0.51,5.054 1.097,3.335 -0.534,5.978 -2.265,8.539 C 9.975,18.645 8.061,18.051 6.93,15.648 6.631,15.013 6.818,14.148 6.782,13.388 6.526,12.757 6.083,12.311 5.452,12.049 2.551,11.017 2.199,8.89 2.971,6.28 1.981,4.186 0.99,2.093 0,0" style="fill:#cd2726;fill-opacity:1;fill-rule:nonzero;stroke:none" transform="matrix(1.3333333,0,0,-1.3333333,142.22573,2401.1912)" />
      <path id="path160" d="m 0,0 c -0.732,2.705 -0.572,5.383 0.244,8.043 0.115,1.76 0.227,3.517 0.34,5.275 0.92,17.612 2.189,35.214 2.639,52.838 0.31,12.126 -0.491,24.282 -0.855,36.423 -0.082,2.735 -0.768,5.49 -0.565,8.19 0.983,13.129 -2.477,25.762 -4.633,38.46 -1.289,7.598 -5.2,14.743 -7.859,22.117 -1.463,4.056 -2.862,8.14 -4.088,12.271 -0.293,0.989 -0.185,2.765 0.438,3.221 1.383,1.009 2.906,0.038 4.193,-0.859 2.633,-1.837 4.656,-4.156 5.89,-7.172 1.486,-3.63 3.057,-7.227 4.649,-10.812 1.268,-2.856 2.326,-5.865 4.008,-8.462 2.563,-3.955 5.53,-7.415 3.535,-12.825 -0.694,-1.883 0.714,-4.541 1.156,-6.848 -0.177,-1.163 -0.633,-2.363 -0.475,-3.476 2.039,-14.365 3.866,-28.703 4.165,-43.281 0.16,-7.811 0.425,-15.554 -0.153,-23.362 -0.347,-4.676 -0.486,-9.586 0.574,-14.086 1.063,-4.513 1.598,-8.327 -1.529,-12.156 C 10.39,41.927 10.271,39.706 11.166,37.865 14.151,31.719 9.934,25.587 11.304,19.477 8.453,16.655 9.35,14.105 11.477,11.235 12.264,10.172 12.232,8.129 11.912,6.68 10.473,0.174 8.871,-6.301 7.11,-12.727 6.887,-13.543 5.462,-14.317 4.46,-14.562 3.176,-14.877 2.052,-13.958 2.325,-12.611 3.248,-8.056 0.971,-4.162 0,0" style="fill:#3675ba;fill-opacity:1;fill-rule:nonzero;stroke:none" transform="matrix(1.3333333,0,0,-1.3333333,232.26893,1533.1756)" />
      <path id="path172" d="m 0,0 c -1.637,-0.25 -2.577,-1.283 -2.737,-2.84 -0.058,-0.569 0.563,-1.736 0.834,-1.724 1.648,0.073 2.578,1.194 2.728,2.756 C 0.88,-1.236 0.294,-0.602 0,0 m -62.275,-81.432 c -0.453,1.472 -1.481,3.032 -1.27,4.401 2.174,14.121 1.259,28.771 7.105,42.275 0.619,1.433 1.472,2.97 1.444,4.444 -0.175,9.143 4.174,16.678 9.07,23.66 6.451,9.199 11.798,19.369 20.967,26.451 0.599,0.462 0.853,1.432 1.482,1.783 3.724,2.082 7.596,5.797 11.257,5.621 4.714,-0.227 9.605,-3.09 13.807,-5.776 C 5.271,19.072 7.305,14.911 7.118,10.288 7.008,7.578 6.802,4.627 5.668,2.247 2.146,-5.145 -0.584,-12.977 -5.675,-19.56 c -1.002,3.429 2.9,6.37 1.325,9.956 -2.49,-0.177 -3.927,-1.556 -4.881,-3.193 -4.114,-7.064 -8.514,-14.012 -11.976,-21.393 -3.453,-7.359 -7.945,-13.26 -15.64,-16.337 0.69,1.368 1.077,3.055 2.122,4.051 5.483,5.227 9.218,11.49 12.441,18.312 2.815,5.959 6.014,12.013 10.303,16.925 4.557,5.218 6.438,11.614 9.794,17.309 2.512,4.261 -0.615,8.229 -5.81,9.032 -4.239,0.655 -7.527,-1.837 -11.281,-2.749 -3.815,3.468 -4.63,3.688 -7.356,1.616 -0.499,-0.379 -1.016,-1.48 -0.812,-1.915 1.262,-2.69 3.867,-1.42 5.927,-1.799 -1.794,-2.608 -3.089,-5.657 -6.246,-7.059 -4.098,1.144 -7.347,0.843 -9.253,-3.874 -1.112,-2.751 -3.358,-5.028 -4.96,-7.601 -1.394,-2.238 -0.297,-3.56 3.784,-4.751 -0.316,-0.853 -0.632,-1.706 -0.947,-2.558 -3.819,0.135 -7.164,-0.93 -8.632,-4.731 -4.905,-12.702 -11.547,-24.957 -10.198,-39.329 0.173,-1.846 -0.476,-4.013 -1.393,-5.672 -2.813,-5.091 -2.362,-10.671 -2.911,-16.112" style="fill:#5c567e;fill-opacity:1;fill-rule:nonzero;stroke:none" transform="matrix(1.3333333,0,0,-1.3333333,278.44907,1690.3775)" />
      <path id="path173" d="m 0,0 c 0.549,5.44 0.099,11.021 2.912,16.112 0.916,1.659 1.566,3.825 1.392,5.671 -1.349,14.373 5.293,26.628 10.199,39.329 1.468,3.802 4.812,4.867 8.632,4.734 C 16.46,51.157 11.39,36.02 10.424,19.757 c -0.067,-1.13 -0.07,-2.476 1.52,-2.628 0.703,-0.067 1.601,0.08 2.149,0.485 4.798,3.548 7.874,8.588 11.335,13.291 7.696,3.077 12.188,8.977 15.64,16.337 3.463,7.381 7.862,14.328 11.977,21.392 0.953,1.637 2.391,3.016 4.881,3.194 1.575,-3.587 -2.327,-6.527 -1.325,-9.956 C 48.376,47.102 42.273,31.046 30.111,18.653 28.27,16.777 27.246,14.1 25.845,11.794 c -1.293,-0.227 -2.144,-0.89 -2.252,-2.286 0,0 -0.129,-0.12 -0.129,-0.12 C 22.071,9.261 21.277,8.482 21.006,7.133 20.281,6.318 19.556,5.503 18.831,4.688 17.552,4.41 16.746,3.699 16.674,2.32 15.845,1.359 15.016,0.398 14.188,-0.562 c -1.229,-0.024 -1.914,-0.599 -1.899,-1.882 0,0 -0.381,-0.48 -0.381,-0.479 -0.83,0.086 -1.43,-0.267 -1.8,-1.06 C 5.829,-8.054 4.943,-8.047 2.413,-3.92 1.612,-2.614 0.804,-1.313 0,-0.01 0,-0.01 0,0 0,0" style="fill:#4b475f;fill-opacity:1;fill-rule:nonzero;stroke:none" transform="matrix(1.3333333,0,0,-1.3333333,195.4152,1798.9528)" />
      <path id="path174" d="m 0,0 c -0.405,0.636 -0.66,1.328 -0.764,2.075 5.722,0.634 11.399,1.364 14.927,6.806 0.502,0.587 1.121,1 1.856,1.237 1.383,0.145 2.236,0.893 2.556,2.247 3.696,4.592 8.703,7.639 13.567,10.636 8.456,5.212 17.301,9.791 25.978,14.635 12.769,1.3 25.218,4.104 37.413,8.081 1.219,-0.168 2.438,-0.336 3.658,-0.506 0.666,-0.328 1.369,-0.518 2.11,-0.571 0,0 0.306,-0.234 0.307,-0.233 0.076,-2.331 0.509,-4.924 -1.911,-6.323 -3.286,-1.899 -6.746,-5.707 -10.477,-3.761 -4.686,2.443 -7.215,0.685 -10.061,-2.337 -1.048,-1.114 -2.111,-2.325 -3.41,-3.069 -3.043,-1.744 -5.647,0.867 -8.507,1.17 C 66.32,26.603 65.294,23.666 60.703,23.16 54.017,22.424 49.396,16.329 42.61,15.412 42.03,15.333 41.309,14.413 41.105,13.746 40.053,10.295 36.27,9.929 34.379,7.718 30.37,3.033 22.689,2.47 20.831,-4.526 20.786,-4.698 19.346,-4.834 18.915,-4.51 17.096,-3.143 15.33,-3.511 13.41,-4.184 7.932,-6.105 3.525,-4.424 0,0" style="fill:#3675ba;fill-opacity:1;fill-rule:nonzero;stroke:none" transform="matrix(1.3333333,0,0,-1.3333333,235.96907,1565.8709)" />
      <path id="path176" d="m 0,0 c 3.525,-4.424 7.932,-6.105 13.41,-4.184 1.92,0.673 3.686,1.041 5.505,-0.326 0.431,-0.324 1.871,-0.188 1.916,-0.016 1.858,6.996 9.539,7.559 13.548,12.244 1.891,2.211 5.674,2.577 6.726,6.028 0.204,0.667 0.925,1.587 1.505,1.666 6.786,0.917 11.407,7.012 18.093,7.748 4.591,0.506 5.617,3.443 6.539,6.927 2.86,-0.303 5.464,-2.914 8.507,-1.17 1.299,0.744 2.362,1.955 3.41,3.069 2.846,3.022 5.375,4.78 10.061,2.337 3.731,-1.946 7.191,1.862 10.477,3.761 2.42,1.399 1.987,3.992 1.911,6.323 4.385,-0.926 5.269,-5.604 8.391,-7.861 9.354,2.454 9.354,2.454 7.146,-7.417 -2.435,-2.081 -5.239,-0.584 -7.767,-0.393 -9.026,0.68 -18.144,-0.037 -26.682,-2.043 C 75.789,25.071 69.281,20.464 63.426,16.074 58.939,12.711 54.327,10.165 49.215,8.069 37.401,3.224 27.875,-4.955 18.741,-13.632 18.179,-14.166 17.525,-14.603 16.913,-15.085 8.089,-13.629 -0.177,-11.547 0,0" style="fill:#548dc7;fill-opacity:1;fill-rule:nonzero;stroke:none" transform="matrix(1.3333333,0,0,-1.3333333,235.96907,1565.8709)" />
      <path id="path184" d="m 0,0 c 0.519,-0.426 1.131,-0.693 1.827,-0.808 1.864,-3.397 3.9,-6.709 5.571,-10.196 2.755,-5.749 6.728,-10.262 11.694,-14.325 7.946,-6.5 12.702,-15.68 18.254,-24.12 0.972,-1.478 0.93,-3.723 1.047,-5.633 0.123,-2.001 -2.41,-4.138 -4.738,-4.274 -1.852,-0.108 -3.107,0.978 -3.418,2.556 -1.606,8.13 -6.955,13.78 -12.531,19.277 -1.647,1.624 -3.344,3.362 -5.347,4.431 -8.545,4.56 -14.761,11.364 -19.673,19.538 -0.602,1 -1.376,1.897 -2.071,2.838 0.082,0.71 -0.007,1.401 -0.269,2.069 C -5.487,-6.824 -3.374,-2.708 0,0" style="fill:#e6dd4a;fill-opacity:1;fill-rule:nonzero;stroke:none" transform="matrix(1.3333333,0,0,-1.3333333,321.5324,1865.2813)" />
      <path id="path185" d="m 0,0 c 6.15,3.734 12.69,5.018 19.967,4.655 6.117,-0.305 10.489,-2.641 13.619,-7.518 1.669,-2.602 2.763,-5.573 4.109,-8.355 -1.13,-4.524 -4.5,-6.91 -8.441,-8.744 -0.652,0.959 -1.268,1.944 -1.959,2.872 -4.971,6.677 -6.868,7.373 -14.688,5.366 -2.982,-0.766 -5.941,-2.217 -8.927,-2.261 -8.138,-0.118 -12.798,-4.242 -15.148,-11.633 -6.721,-0.216 -11.165,4.359 -16.197,7.696 6.045,5.518 12.802,9.923 20.386,13.034 1.075,-0.207 2.155,-0.614 3.223,-0.585 C -0.053,-5.361 0.332,-4.783 0,0" style="fill:#e6dd4a;fill-opacity:1;fill-rule:nonzero;stroke:none" transform="matrix(1.3333333,0,0,-1.3333333,260.65653,1834.4196)" />
      <path id="path186" d="m 0,0 c -2.102,5.13 -3.726,10.319 -1.808,15.902 1.058,3.076 3.8,4.283 6.135,1.58 2.292,-2.654 4.913,-4.783 5.321,-8.739 0.27,-2.618 1.527,-5.225 2.753,-7.627 0.942,-1.846 3.042,-3.019 4.93,-1.816 5.544,3.532 12.875,2.37 17.939,7.042 0.521,0.479 1.382,0.77 2.107,0.819 11.329,0.78 22.492,0.604 34.042,-6.994 -19.078,3.534 -34.037,-2.598 -47.989,-12.295 -2.238,-1.555 -4.548,-3.008 -6.824,-4.508 -0.398,0.359 -0.792,0.722 -1.18,1.09 -0.304,5.044 -4.253,8.627 -5.303,13.456 C 9.234,1.994 7.531,5.912 6.047,9.85 5.393,11.586 3.616,11.839 2.179,11.396 1.353,11.141 0.417,9.828 0.313,8.904 -0.019,5.959 2.29,2.914 0,0" style="fill:#5c567e;fill-opacity:1;fill-rule:nonzero;stroke:none" transform="matrix(1.3333333,0,0,-1.3333333,375.03387,1610.0125)" />
      <path id="path187" d="m 0,0 c -3.528,-5.442 -9.205,-6.172 -14.927,-6.806 -1.789,0.976 -3.018,2.533 -3.055,4.491 -0.111,6.001 -1.421,12.094 1.046,17.952 0.968,-4.158 3.245,-8.053 2.323,-12.607 -0.273,-1.347 0.85,-2.266 2.135,-1.952 1.002,0.245 2.427,1.019 2.65,1.835 1.76,6.427 3.363,12.901 4.802,19.408 0.32,1.449 0.352,3.491 -0.436,4.554 -2.127,2.871 -3.023,5.421 -0.173,8.242 -1.369,6.11 2.848,12.243 -0.137,18.388 -0.895,1.842 -0.776,4.063 0.508,5.635 3.127,3.829 2.591,7.643 1.529,12.155 -1.06,4.501 -0.921,9.41 -0.575,14.086 0.579,7.808 0.314,15.551 0.154,23.362 -0.299,14.578 -2.126,28.917 -4.165,43.281 -0.158,1.113 0.298,2.314 0.475,3.477 4.282,-4.798 4.251,-11.097 4.451,-16.704 0.254,-7.097 1.641,-13.966 2.271,-20.958 0.246,-2.721 0.704,-5.436 0.761,-8.16 C -0.011,92.814 -0.921,75.934 0.374,59.076 0.582,56.373 0.18,53.561 -0.332,50.875 -3.073,36.488 -2.441,21.933 -2.674,7.42 -2.719,4.62 -2.49,1.897 0,0" style="fill:#548dc7;fill-opacity:1;fill-rule:nonzero;stroke:none" transform="matrix(1.3333333,0,0,-1.3333333,254.8532,1554.0297)" />
      <path id="path191" d="m 0,0 c -4.295,-2.688 -6.591,-6.485 -6.743,-11.627 -0.096,-3.218 -1.319,-6.111 -3.522,-8.477 -0.447,-0.481 -1.501,-0.799 -2.124,-0.631 -1.447,0.39 -1.507,1.705 -0.713,2.614 2.64,3.018 5.1,5.884 3.106,10.391 -0.811,1.832 0.018,3.817 1.245,5.493 2.903,3.967 3.867,8.408 3.456,13.292 -0.122,1.443 0.124,3.423 1.028,4.358 3.748,3.875 5.045,8.653 6.179,13.677 0.501,2.222 1.924,4.262 3.07,6.306 2.652,4.732 6.515,7.673 12.133,7.857 -0.166,-0.576 -0.4,-1.127 -0.705,-1.647 -0.392,-4.984 0.543,-6.564 3.927,-5.491 4.279,1.356 8.073,2.077 11.404,-1.705 -1.815,-3.878 -6.523,-5.397 -7.697,-9.719 -0.28,-0.718 -0.793,-1.167 -1.542,-1.349 C 8.781,22.043 3.501,12.461 0.36,0.78 Z" style="fill:#cd2726;fill-opacity:1;fill-rule:nonzero;stroke:none" transform="matrix(1.3333333,0,0,-1.3333333,112.27133,2476.2816)" />
      <path id="path199" d="m 0,0 c 0.261,-0.668 0.351,-1.358 0.269,-2.068 -5.568,-0.641 -10.168,-3.685 -14.984,-6.147 -2.459,-1.257 -4.863,-2.539 -7.705,-2.142 -12.244,1.711 -24.29,4.197 -35.612,9.417 4.485,0.354 8.908,0.851 11.567,5.238 6.364,-1.442 12.816,-4.303 19.076,-3.931 6.264,0.372 12.336,3.975 18.492,6.161 C -4.976,5.655 -2.723,2.507 0,0" style="fill:#5c567e;fill-opacity:1;fill-rule:nonzero;stroke:none" transform="matrix(1.3333333,0,0,-1.3333333,308.66093,1876.8111)" />
      <path id="path203" d="m 0,0 c 2.29,2.914 -0.019,5.959 0.313,8.904 0.104,0.924 1.04,2.237 1.866,2.492 1.437,0.443 3.214,0.19 3.868,-1.546 1.484,-3.938 3.187,-7.856 4.076,-11.94 1.05,-4.829 4.999,-8.412 5.303,-13.456 -1.446,-0.772 -2.42,-1.793 -2.335,-3.612 0.2,-4.272 0.38,-8.547 0.439,-12.822 0.024,-1.691 -0.946,-3.02 -2.593,-3.442 -2.062,-0.527 -3.922,0.172 -4.965,2.042 -0.743,1.332 -1.252,2.879 -1.496,4.39 -0.777,4.826 -1.818,0.876 -2.844,0.164 -0.591,-0.411 -1.326,-0.882 -1.988,-0.871 -1.474,0.026 -1.807,1.289 -1.89,2.447 -0.26,3.609 0.375,6.99 2.88,9.803 4.757,5.341 3.741,10.549 -0.363,15.69 C -0.048,-1.203 -0.138,-0.619 0,0" style="fill:#1c3238;fill-opacity:1;fill-rule:nonzero;stroke:none" transform="matrix(1.3333333,0,0,-1.3333333,375.03387,1610.0125)" />
      <path id="path211" d="m 0,0 c -1.901,-3.835 -3.045,-7.389 -2.192,-12.151 2.548,-14.229 2.153,-14.3 8.537,-24.888 -2.136,-1.826 -4.275,-3.65 -6.414,-5.473 -3.619,9.392 -7.238,18.784 -10.856,28.176 -1.835,7.044 -1.161,14.305 -1.854,21.448 0.804,-1.303 1.613,-2.604 2.413,-3.91 2.53,-4.126 3.416,-4.134 7.695,-0.063 C -2.108,2.838 -1.512,2.634 -0.883,2.527 -0.589,1.684 -0.294,0.842 0,0" style="fill:#5c567e;fill-opacity:1;fill-rule:nonzero;stroke:none" transform="matrix(1.3333333,0,0,-1.3333333,212.4536,1808.4489)" />
      <path id="path212" d="M 0,0 C 2.139,1.823 4.278,3.647 6.414,5.473 7.12,5.262 7.839,5.138 8.561,5.108 13.588,1.775 18.033,-2.8 24.754,-2.583 c 0.333,-0.628 0.67,-1.255 1.009,-1.88 C 23.1,-8.849 18.678,-9.346 14.193,-9.699 11.385,-10.18 8.229,-8.981 5.84,-11.406 4.045,-11.225 2.214,-11.425 1.628,-8.831 1.145,-6.698 -0.014,-4.719 -0.888,-2.679 -0.601,-1.792 -0.301,-0.896 0,0" style="fill:#4b475f;fill-opacity:1;fill-rule:nonzero;stroke:none" transform="matrix(1.3333333,0,0,-1.3333333,212.36147,1865.132)" />
      <path id="path215" d="m 0,0 c -0.927,5.316 4.018,9.82 2.332,15.3 -3.452,0.908 -5.101,-3.338 -8.302,-2.49 0.816,6.285 3.207,12.017 6.328,17.45 0.494,0.86 1.723,1.592 2.732,1.798 1.712,0.348 2.992,-0.767 3.74,-2.221 C 9.067,25.49 9.572,20.755 8.49,16.133 7.078,10.103 5.174,4.138 0,0" style="fill:#dc7c44;fill-opacity:1;fill-rule:nonzero;stroke:none" transform="matrix(1.3333333,0,0,-1.3333333,175.62173,2333.174)" />
      <path id="path221" d="m 0,0 c -2.723,2.507 -4.976,5.655 -8.9,6.526 0.714,1.768 2.829,2.97 2.15,5.305 3.942,1.835 7.311,4.221 8.442,8.745 C 2.836,19.423 3.973,18.293 5.114,17.163 6.84,14.437 8.967,11.926 9.653,8.647 6.279,5.939 4.167,1.823 0,0" style="fill:#4b475f;fill-opacity:1;fill-rule:nonzero;stroke:none" transform="matrix(1.3333333,0,0,-1.3333333,308.66093,1876.8111)" />
      <path id="path222" d="M 0,0 C 3.141,11.681 8.421,21.263 22.142,22.562 20.666,17.895 16.285,15.632 13.44,12.093 8.977,6.542 8.661,5.742 9.538,-2.785 6.755,0.115 3.492,0.513 0,0" style="fill:#dc7c44;fill-opacity:1;fill-rule:nonzero;stroke:none" transform="matrix(1.3333333,0,0,-1.3333333,112.75147,2475.2419)" />
      <path id="path233" d="m 0,0 c -12.196,-3.977 -24.645,-6.781 -37.413,-8.081 9.372,5.897 20.021,7.606 30.668,9.139 C -4.592,1.368 -2.253,0.386 0,0" style="fill:#548dc7;fill-opacity:1;fill-rule:nonzero;stroke:none" transform="matrix(1.3333333,0,0,-1.3333333,363.3468,1504.9148)" />
      <path id="path244" d="M 0,0 C -0.19,4.938 -0.19,4.923 4.964,4.811 5.676,4.796 6.393,5.015 7.101,5.126 7.095,5.127 7.293,4.887 7.286,4.888 7.61,0.105 7.225,-0.473 3.222,-0.584 2.154,-0.614 1.074,-0.207 0,0" style="fill:#4b475f;fill-opacity:1;fill-rule:nonzero;stroke:none" transform="matrix(1.3333333,0,0,-1.3333333,250.9516,1840.9373)" />
      <path id="path576" d="m 0,0 c 0.546,1.856 0.884,3.765 1.694,5.447 0.42,0.871 1.59,1.58 2.575,1.93 C 5.572,7.84 6.541,6.776 6.847,5.722 7.865,2.226 10.832,-1.158 7.731,-5.015 6.787,-6.19 6.055,-7.676 4.193,-7.428 2.483,-7.202 1.569,-5.947 1.063,-4.487 0.57,-3.063 0.353,-1.544 0,0" style="fill:#1c3238;fill-opacity:1;fill-rule:nonzero;stroke:none" transform="matrix(1.3333333,0,0,-1.3333333,381.112,1671.4265)" />
      <path id="path577" d="m 0,0 c -0.641,-0.688 -1.054,-1.512 -1.565,-1.578 -0.564,-0.073 -1.529,0.401 -1.765,0.9 -0.454,0.958 -0.665,2.098 -0.69,3.169 -0.015,0.655 0.349,1.732 0.811,1.906 1.188,0.447 1.936,-0.521 2.353,-1.499 C -0.436,1.909 -0.236,0.827 0,0" style="fill:#4b475f;fill-opacity:1;fill-rule:nonzero;stroke:none" transform="matrix(1.3333333,0,0,-1.3333333,399.1504,1723.1993)" />
      <path id="path602" d="m 0,0 c -3.241,0.247 -4.387,3.282 -6.571,4.935 0.034,0.757 -0.153,1.621 0.146,2.257 1.131,2.402 3.045,2.996 4.16,1.346 C -0.534,5.978 1.097,3.335 0,0" style="fill:#dc7c44;fill-opacity:1;fill-rule:nonzero;stroke:none" transform="matrix(1.3333333,0,0,-1.3333333,160.03253,2389.9161)" />
      <path id="path603" d="M 0,0 C -0.818,2.835 -1.243,5.684 -0.331,8.594 5.326,5.097 5.378,3.74 0,0" style="fill:#dc7c44;fill-opacity:1;fill-rule:nonzero;stroke:none" transform="matrix(1.3333333,0,0,-1.3333333,161.15427,2408.1268)" />
      <path id="path605" d="m 0,0 c -3.477,-5.41 -6.954,-10.82 -10.43,-16.228 -4.079,1.193 -5.177,2.515 -3.783,4.753 1.603,2.573 3.848,4.85 4.96,7.601 C -7.346,0.843 -4.098,1.144 0,0" style="fill:#4b475f;fill-opacity:1;fill-rule:nonzero;stroke:none" transform="matrix(1.3333333,0,0,-1.3333333,241.42853,1686.116)" />
      <path id="path606" d="m 0,0 c -0.747,-0.699 -1.493,-1.398 -2.24,-2.098 -2.061,0.379 -4.666,-0.891 -5.928,1.799 -0.203,0.435 0.314,1.537 0.812,1.915 C -4.629,3.688 -3.814,3.468 0,0" style="fill:#4b475f;fill-opacity:1;fill-rule:nonzero;stroke:none" transform="matrix(1.3333333,0,0,-1.3333333,252.74467,1673.9071)" />
      <path id="path647" d="M 0,0 C 5.249,-1.234 4.867,-4.665 3.758,-8.955 0.264,-7.143 -0.819,-4.43 -1.401,-1.387 -0.905,-0.963 -0.435,-0.499 0,0" style="fill:#e6dd4a;fill-opacity:1;fill-rule:nonzero;stroke:none" transform="matrix(1.3333333,0,0,-1.3333333,445.10653,2002.818)" />
      </g></svg>