<?xml version='1.0' encoding='utf-8'?>
<svg xmlns="http://www.w3.org/2000/svg" version="1.1" width="373.078" height="176.776" viewBox="1166.000 3045.170 373.078 176.776"><defs id="defs1"><clipPath clipPathUnits="userSpaceOnUse" id="clipPath18">
      <path d="M 0,3370.3901 H 2383.9401 V -2.5000001e-5 H 0 Z" id="path18" />
    </clipPath>
  </defs><g id="object"><path id="path8" d="m 0,0 c 20.363,0 40.738,-0.423 61.083,0.175 10.518,0.309 14.358,-3.63 13.213,-13.868 -1.478,-13.198 2.767,-17.601 17.532,-15.451 27.843,4.054 38.01,-5.221 39.46,-33.175 0.779,-14.994 -0.559,-30.089 -0.646,-45.14 -0.053,-9.233 -4.645,-12.499 -13.427,-12.234 -8.299,0.25 -11.084,4.88 -11.12,12.188 -0.066,13.479 0.191,26.962 -0.054,40.437 -0.168,9.259 -1.944,18.127 -13.984,17.848 -10.343,-0.24 -16.116,-6.977 -16.927,-16.569 -1.067,-12.608 -0.7,-25.343 -0.809,-38.024 -0.073,-8.493 -0.723,-16.126 -12.3,-15.872 -11.456,0.25 -12.077,8.134 -12.057,16.429 0.05,20.618 0.047,41.24 0.518,61.85 0.255,11.179 0.201,19.787 -15.743,18.249 -13.339,-1.288 -25.847,0.324 -24.91,-19.134 0.915,-18.994 0.704,-38.057 0.493,-57.085 -0.099,-9.007 2.537,-20.028 -12.701,-20.42 -14.876,-0.382 -13.717,9.767 -13.795,19.36 -0.155,19.03 -0.833,38.085 -0.101,57.084 0.522,13.56 -2.691,21.422 -18.232,19.731 -9.172,-0.998 -17.558,-0.136 -17.48,12.942 0.09,15.096 11.109,10.243 18.691,10.684 C -22.231,0.648 -11.101,0.17 0.001,0.17 0.001,0.113 0,0.057 0,0" style="fill:#ece8df;fill-opacity:1;fill-rule:nonzero;stroke:none" transform="matrix(1.3333333,0,0,-1.3333333,1241.3159,3051.7161)" />
      <path id="path11" d="M 0,0 C -6.946,15.881 -16.043,19.006 -27.861,12.683 -31.662,10.649 -37.449,4.943 -33.277,1.769 -24.059,-5.243 -12.894,-1.277 0,0 m -61.626,-10.69 c -0.104,27.45 15.289,45.976 39.401,47.421 26.959,1.615 42.713,-11.785 45.431,-37.092 1.337,-12.444 -2.269,-17.742 -15.159,-17.123 -11.049,0.531 -22.169,-0.188 -33.249,-0.613 -3.718,-0.142 -8.504,0.707 -9.904,-4.257 -1.65,-5.853 3.046,-8.236 6.994,-10.826 8.459,-5.551 16.165,-2.3 24.686,0.771 7.504,2.705 19.103,7.614 22.784,-2.239 3.411,-9.128 -7.425,-14.085 -15.133,-18.192 -32.34,-17.228 -65.705,4.123 -65.851,42.15" style="fill:#ece8df;fill-opacity:1;fill-rule:nonzero;stroke:none" transform="matrix(1.3333333,0,0,-1.3333333,1501.7859,3137.4361)" />
      </g></svg>