<?xml version='1.0' encoding='utf-8'?>
<svg xmlns="http://www.w3.org/2000/svg" version="1.1" width="447.265" height="474.624" viewBox="1978.190 3869.540 447.265 474.624"><defs id="defs1"><clipPath clipPathUnits="userSpaceOnUse" id="clipPath4">
      <path d="M -2384.1568,2286.7354 H -0.21670001 V -1083.6547 H -2384.1568 Z" id="path4" />
    </clipPath>
    <clipPath clipPathUnits="userSpaceOnUse" id="clipPath6">
      <path d="M -2384.0266,1933.815 H -0.086575 v -3370.39 H -2384.0266 Z" id="path6" />
    </clipPath>
    <clipPath clipPathUnits="userSpaceOnUse" id="clipPath8">
      <path d="M -2384.1847,2520.3537 H -0.24460001 V -850.0364 H -2384.1847 Z" id="path8" />
    </clipPath>
    <clipPath clipPathUnits="userSpaceOnUse" id="clipPath10">
      <path d="M -1378.8652,3371.3417 H 1005.0749 V 0.95157502 h -2383.9401 z" id="path10" />
    </clipPath>
    <clipPath clipPathUnits="userSpaceOnUse" id="clipPath12">
      <path d="M -2383.8391,1819.185 H 0.100925 v -3370.39 H -2383.8391 Z" id="path12" />
    </clipPath>
    <clipPath clipPathUnits="userSpaceOnUse" id="clipPath14">
      <path d="M -2384.2639,1767.3618 H -0.32387501 V -1603.0283 H -2384.2639 Z" id="path14" />
    </clipPath>
  </defs><g id="object"><path id="path19" d="m 0,0 c 1.008,24.933 -2.938,48.817 -14.537,71.189 -16.856,32.509 -43.98,45.424 -79.89,44.062 -34.8,-1.321 -59,-18.5 -71.976,-49.246 -16.57,-39.26 -17.64,-80.129 -2.333,-120.334 13.755,-36.126 41.24,-54.972 77.724,-55.166 40.08,-0.214 67.27,18.47 82.062,56.11 C -2.189,-36.179 0.584,-18.374 0,0 m -248.372,-47.973 c -6.72,44.412 -6.757,88.18 11.491,130.452 25.792,59.745 71.859,90.413 136.001,94.45 C -31.87,181.273 20.807,154.573 53.357,92.397 72.293,56.224 76.371,17.184 72.752,-22.969 54.441,-133.885 -24.335,-187.04 -134.74,-164.483 c -57.448,11.737 -90.755,47.329 -107.838,101.184 -1.649,5.198 -3.849,10.221 -5.794,15.326" style="fill:#9e998f;fill-opacity:1;fill-rule:nonzero;stroke:none" transform="matrix(1.3333333,0,0,-1.3333333,2320.8537,4112.052)" />
      </g></svg>