<?xml version='1.0' encoding='utf-8'?>
<svg xmlns="http://www.w3.org/2000/svg" version="1.1" width="111.938" height="57.935" viewBox="1610.140 219.930 111.938 57.935"><defs id="defs1"><clipPath clipPathUnits="userSpaceOnUse" id="clipPath11">
      <path d="M -2297.4972,2808.5926 H 86.442877 V -561.79751 H -2297.4972 Z" id="path11" />
    </clipPath>
  </defs><g id="object"><path id="path7" d="m 0,0 c -9.333,0 -18.666,0.005 -27.999,-0.005 -1.493,-0.002 -2.99,-0.162 -4.479,-0.095 -3.34,0.152 -4.774,1.961 -4.072,5.111 1.501,6.732 4.525,12.785 9.566,17.431 13.055,12.036 30.616,16.924 49.308,5.163 C 30.641,22.372 35.521,14.606 38.023,5.253 38.745,2.552 37.557,0.788 34.724,0.734 25.019,0.547 15.31,0.54 5.602,0.47 3.734,0.456 1.867,0.468 0,0.468 0,0.312 0,0.156 0,0" style="fill:#cf2727;fill-opacity:1;fill-rule:nonzero;stroke:none" transform="matrix(1.3333333,0,0,-1.3333333,1665.1091,271.70973)" />
      </g></svg>