<?xml version='1.0' encoding='utf-8'?>
<svg xmlns="http://www.w3.org/2000/svg" version="1.1" width="67.639" height="101.082" viewBox="2534.090 4181.570 67.639 101.082"><g id="object"><path id="path68" d="m 0,0 c 0,9.013 0.176,17.179 -0.074,25.331 -0.126,4.127 0.257,6.964 5.455,6.796 4.628,-0.149 7.061,-1.888 7.092,-6.752 0.105,-16.495 0.481,-32.989 0.428,-49.483 -0.028,-8.59 -2.485,-10.887 -8.809,-10.29 -4.348,0.411 -5.131,3.912 -6.394,6.754 -4.002,9.003 -7.682,18.149 -11.486,27.24 -0.722,-0.088 -1.444,-0.176 -2.165,-0.264 0,-8.685 -0.286,-17.384 0.122,-26.05 0.199,-4.212 0.741,-7.667 -4.972,-7.886 -5.332,-0.205 -7.673,1.895 -7.634,7.503 0.121,17.057 -0.192,34.117 -0.183,51.177 0.002,3.001 -1.491,7.058 3.585,7.869 4.571,0.73 8.619,0.059 10.648,-4.765 2.843,-6.76 5.555,-13.575 8.311,-20.372 C -5.115,4.438 -4.271,1.991 0,0" style="fill:#494f57;fill-opacity:1;fill-rule:nonzero;stroke:none" transform="matrix(1.3333333,0,0,-1.3333333,2578.5187,4230.4915)" />
      </g></svg>