<?xml version='1.0' encoding='utf-8'?>
<svg xmlns="http://www.w3.org/2000/svg" version="1.1" width="679.973" height="233.230" viewBox="1939.130 3942.720 679.973 233.230"><g id="object"><path id="path27" d="M 14.637159,-0.00129375 V -26.684888 c 0,-10.371093 -0.1875,-17.871093 -0.644531,-25.746093 l 0.269531,-0.09375 c 3.152344,6.761718 7.324219,13.898437 11.671875,20.835937 l 19.828125,31.68750025 h 8.15625 V -62.438794 H 46.312941 V -36.3177 c 0,9.726562 0.1875,17.320312 0.9375,25.664062 l -0.1875,0.09375 C 44.098097,-16.958325 40.477003,-23.532544 35.848097,-30.845044 L 15.844191,-62.438794 H 7.0434094 v 62.43750025 z m 62.165039,0 V -44.837231 h -8.15625 V -0.00129375 Z M 72.724073,-62.532544 c -2.964843,0 -5.097656,2.226563 -5.097656,5.097656 0,2.777344 2.039063,5.003907 4.910156,5.003907 3.246094,0 5.285157,-2.226563 5.191407,-5.003907 0,-2.871093 -1.945313,-5.097656 -5.003907,-5.097656 z m 17.598633,62.53125025 h 8.15625 V -26.954419 c 0,-1.394531 0.1875,-2.789062 0.550782,-3.796875 1.394532,-4.546875 5.554692,-8.34375 10.933592,-8.34375 7.6875,0 10.3711,6.023438 10.3711,13.253906 v 25.83984425 h 8.15624 V -26.778638 c 0,-15.375 -9.63281,-19.078125 -15.84374,-19.078125 -7.40625,0 -12.59766,4.171875 -14.824224,8.425782 h -0.175781 l -0.46875,-7.40625 h -7.230469 c 0.28125,3.703125 0.375,7.5 0.375,12.140625 z M 160.73482,-45.856763 c -12.42188,0 -22.24219,8.800782 -22.24219,23.8125 0,14.1679692 9.36328,23.0625005 21.49219,23.0625005 10.83984,0 22.32421,-7.2304688 22.32421,-23.8125005 0,-13.710937 -8.70703,-23.0625 -21.57421,-23.0625 z m -0.1875,6.117188 c 9.63281,0 13.42968,9.632812 13.42968,17.226562 0,10.101563 -5.83593,17.414063 -13.61718,17.414063 -7.96875,0 -13.61719,-7.40625 -13.61719,-17.226563 0,-8.519531 4.17187,-17.414062 13.80469,-17.414062 z m 32.33203,39.73828125 h 8.0625 V -25.009106 c 1.85156,0.457031 4.0664,0.550781 6.48047,0.550781 7.875,0 14.82421,-2.320313 19.07812,-6.855469 3.15234,-3.246094 4.81641,-7.6875 4.81641,-13.335937 0,-5.566407 -2.03907,-10.101563 -5.46094,-13.066407 -3.70313,-3.328125 -9.53906,-5.179687 -17.50781,-5.179687 -6.48047,0 -11.57813,0.550781 -15.46875,1.195312 z m 8.0625,-55.86328125 c 1.38281,-0.363281 4.0664,-0.644531 7.59375,-0.644531 8.89453,0 14.73047,3.984375 14.73047,12.222656 0,8.625 -5.92969,13.347656 -15.65625,13.347656 -2.69532,0 -4.91016,-0.1875 -6.66797,-0.65625 z m 39.45996,55.86328125 h 8.0625 V -23.895825 c 0,-1.394531 0.1875,-2.695313 0.36328,-3.808594 1.11328,-6.105469 5.19141,-10.464844 10.93359,-10.464844 1.11328,0 1.94532,0.09375 2.77735,0.28125 v -7.6875 c -0.73828,-0.1875 -1.38282,-0.28125 -2.3086,-0.28125 -5.47265,0 -10.38281,3.796875 -12.42187,9.820313 h -0.36328 l -0.28125,-8.800781 h -7.13672 c 0.28125,4.171875 0.375,8.707031 0.375,13.992187 z M 288.76509,-45.856763 c -12.42188,0 -22.24219,8.800782 -22.24219,23.8125 0,14.1679692 9.36328,23.0625005 21.49219,23.0625005 10.83984,0 22.32422,-7.2304688 22.32422,-23.8125005 0,-13.710937 -8.70703,-23.0625 -21.57422,-23.0625 z m -0.1875,6.117188 c 9.63281,0 13.42969,9.632812 13.42969,17.226562 0,10.101563 -5.83594,17.414063 -13.61719,17.414063 -7.96875,0 -13.61719,-7.40625 -13.61719,-17.226563 0,-8.519531 4.17188,-17.414062 13.80469,-17.414062 z m 62.625,-26.039063 v 26.777344 h -0.1875 c -2.03906,-3.609375 -6.66797,-6.855469 -13.52344,-6.855469 -10.93359,0 -20.20312,9.175782 -20.10937,24.082032 0,13.6171872 8.34375,22.7929685 19.18359,22.7929685 7.3125,0 12.78516,-3.796875 15.28125,-8.8007813 h 0.1875 l 0.36328,7.78125005 h 7.32422 c -0.28125,-3.05859375 -0.375,-7.59375005 -0.375,-11.57812525 v -54.199219 z m 0,46.96875 c 0,1.300782 -0.0937,2.414063 -0.375,3.527344 -1.47656,6.105469 -6.48047,9.7265627 -11.95313,9.7265627 -8.80078,0 -13.24218,-7.5117187 -13.24218,-16.5820317 0,-9.914062 5.0039,-17.332031 13.42968,-17.332031 6.11719,0 10.5586,4.265625 11.76563,9.457031 0.28125,1.019532 0.375,2.402344 0.375,3.421875 z m 29.83008,18.80859425 V -44.837231 h -8.15625 V -0.00129375 Z M 376.95454,-62.532544 c -2.96484,0 -5.09765,2.226563 -5.09765,5.097656 0,2.777344 2.03906,5.003907 4.91015,5.003907 3.2461,0 5.28516,-2.226563 5.19141,-5.003907 0,-2.871093 -1.94531,-5.097656 -5.00391,-5.097656 z m 49.10156,17.695313 -0.375,6.761718 h -0.1875 c -1.94531,-3.703125 -6.19921,-7.78125 -13.98046,-7.78125 -10.28907,0 -20.20313,8.613282 -20.20313,23.8125 0,12.4101567 7.96875,21.85546925 19.08984,21.85546925 6.94922,0 11.76563,-3.32812505 14.26172,-7.50000005 h 0.1875 v 5.0039063 c 0,11.296875 -6.11718,15.6562495 -14.44922,15.6562495 -5.55468,0 -10.19531,-1.675781 -13.16015,-3.5273433 l -2.03906,6.2109373 c 3.62109,2.402344 9.55078,3.703125 14.91796,3.703125 5.64844,0 11.95313,-1.300781 16.30079,-5.367187 4.35937,-3.890625 6.39843,-10.1953128 6.39843,-20.4726565 V -32.520825 c 0,-5.460938 0.1875,-9.070313 0.36328,-12.316406 z m -1.30078,25.757812 c 0,1.382813 -0.1875,2.964844 -0.64453,4.347656 -1.75781,5.1914067 -6.30469,8.3437505 -11.30859,8.3437505 -8.80078,0 -13.24219,-7.3242185 -13.24219,-16.1250005 0,-10.371093 5.55469,-16.957031 13.33594,-16.957031 5.92969,0 9.91406,3.890625 11.40234,8.625 0.36328,1.101563 0.45703,2.308594 0.45703,3.703125 z m 29.17676,19.07812525 V -44.837231 h -8.15625 V -0.00129375 Z M 449.85396,-62.532544 c -2.96485,0 -5.09766,2.226563 -5.09766,5.097656 0,2.777344 2.03906,5.003907 4.91016,5.003907 3.24609,0 5.28515,-2.226563 5.1914,-5.003907 0,-2.871093 -1.94531,-5.097656 -5.0039,-5.097656 z m 36.59472,16.675781 c -12.42187,0 -22.24218,8.800782 -22.24218,23.8125 0,14.1679692 9.36328,23.0625005 21.49218,23.0625005 10.83985,0 22.32422,-7.2304688 22.32422,-23.8125005 0,-13.710937 -8.70703,-23.0625 -21.57422,-23.0625 z m -0.1875,6.117188 c 9.63282,0 13.42969,9.632812 13.42969,17.226562 0,10.101563 -5.83594,17.414063 -13.61719,17.414063 -7.96875,0 -13.61718,-7.40625 -13.61718,-17.226563 0,-8.519531 4.17187,-17.414062 13.80468,-17.414062 z M 7.0434094,99.124683 H 15.105909 V 74.11687 c 1.851563,0.457032 4.066407,0.550782 6.480469,0.550782 7.875,0 14.824219,-2.320313 19.078125,-6.855469 3.152344,-3.246094 4.816406,-7.6875 4.816406,-13.335938 0,-5.566406 -2.039062,-10.101562 -5.460937,-13.066406 -3.703125,-3.328125 -9.539063,-5.179687 -17.507813,-5.179687 -6.480468,0 -11.578125,0.550781 -15.4687496,1.195312 z M 15.105909,43.261402 c 1.382813,-0.363282 4.066407,-0.644532 7.59375,-0.644532 8.894532,0 14.730469,3.984375 14.730469,12.222657 0,8.625 -5.929687,13.347656 -15.65625,13.347656 -2.695312,0 -4.910156,-0.1875 -6.667969,-0.65625 z M 85.875441,99.124683 C 85.324659,96.066089 85.137159,92.269214 85.137159,88.378589 V 71.609058 c 0,-8.988281 -3.339843,-18.339844 -17.050781,-18.339844 -5.648437,0 -11.015625,1.570313 -14.730469,3.984375 l 1.851563,5.367188 c 3.152344,-2.027344 7.511719,-3.328125 11.671875,-3.328125 9.175781,0 10.195312,6.667968 10.195312,10.371093 v 0.925782 c -17.320312,-0.09375 -26.953125,5.835937 -26.953125,16.675781 0,6.492187 4.628907,12.878902 13.710938,12.878902 6.386719,0 11.203125,-3.15234 13.710937,-6.667965 h 0.269532 l 0.65625,5.648438 z M 77.262159,84.019214 c 0,0.84375 -0.1875,1.769531 -0.46875,2.601563 -1.289062,3.796875 -5.003906,7.5 -10.839843,7.5 -4.160157,0 -7.6875,-2.496094 -7.6875,-7.78125 0,-8.707032 10.101562,-10.277344 18.996093,-10.101563 z M 95.139113,96.99187 c 3.152343,1.851563 7.687497,3.05859 12.597657,3.05859 10.65234,0 16.76953,-5.554683 16.76953,-13.429683 0,-6.667969 -3.98437,-10.558594 -11.76562,-13.523438 -5.83594,-2.226562 -8.51954,-3.890625 -8.51954,-7.605469 0,-3.328125 2.6836,-6.105468 7.5,-6.105468 4.17188,0 7.41797,1.476562 9.17579,2.589843 l 2.03906,-5.929687 c -2.50781,-1.476563 -6.49219,-2.777344 -11.02735,-2.777344 -9.63281,0 -15.468746,5.929688 -15.468746,13.160156 0,5.367188 3.796876,9.808594 11.859376,12.691407 6.02344,2.214843 8.33203,4.347656 8.33203,8.238281 0,3.703125 -2.77734,6.667969 -8.70703,6.667969 -4.07813,0 -8.332032,-1.664063 -10.746095,-3.234375 z M 136.82857,43.542652 v 10.746093 h -6.94922 v 6.210938 h 6.94922 v 24.457031 c 0,5.273438 0.83203,9.257813 3.15234,11.671875 1.94531,2.214844 5.00391,3.421871 8.80078,3.421871 3.15234,0 5.64844,-0.457027 7.21875,-1.113277 l -0.36328,-6.117188 c -1.01953,0.28125 -2.58984,0.5625 -4.72266,0.5625 -4.54687,0 -6.11718,-3.152343 -6.11718,-8.707031 V 60.499683 h 11.67187 V 54.288745 H 144.79732 V 41.409839 Z m 64.29199,34.640625 c 0.0937,-0.832032 0.28125,-2.121094 0.28125,-3.796875 0,-8.238282 -3.89063,-21.117188 -18.52735,-21.117188 -13.0664,0 -21.03515,10.652344 -21.03515,24.175781 0,13.523438 8.25,22.605465 22.05469,22.605465 7.125,0 12.03515,-1.476558 14.90625,-2.77734 l -1.38282,-5.835937 c -3.05859,1.300781 -6.57422,2.320312 -12.41015,2.320312 -8.15625,0 -15.19922,-4.546875 -15.38672,-15.574218 z m -31.40625,-5.835938 c 0.65625,-5.648437 4.26562,-13.242187 12.5039,-13.242187 9.17579,0 11.40235,8.0625 11.3086,13.242187 z m 41.7832,26.777344 h 8.0625 V 75.230152 c 0,-1.394532 0.1875,-2.695313 0.36328,-3.808594 1.11328,-6.105469 5.19141,-10.464844 10.9336,-10.464844 1.11328,0 1.94531,0.09375 2.77734,0.28125 v -7.6875 c -0.73828,-0.1875 -1.38281,-0.28125 -2.30859,-0.28125 -5.47266,0 -10.38282,3.796875 -12.42188,9.820313 h -0.36328 l -0.28125,-8.800782 h -7.13672 c 0.28125,4.171875 0.375,8.707032 0.375,13.992188 z m 30.66504,0 h 8.15625 V 72.171558 c 0,-1.394531 0.1875,-2.789063 0.55078,-3.796875 1.39453,-4.546875 5.55469,-8.34375 10.93359,-8.34375 7.6875,0 10.3711,6.023437 10.3711,13.253906 v 25.839844 h 8.15625 V 72.347339 c 0,-15.375 -9.63281,-19.078125 -15.84375,-19.078125 -7.40625,0 -12.59766,4.171875 -14.82422,8.425781 h -0.17578 l -0.46875,-7.40625 h -7.23047 c 0.28125,3.703125 0.375,7.5 0.375,12.140625 z m 83.65137,0 c -0.55078,-3.058594 -0.73828,-6.855469 -0.73828,-10.746094 V 71.609058 c 0,-8.988281 -3.33985,-18.339844 -17.05079,-18.339844 -5.64843,0 -11.01562,1.570313 -14.73046,3.984375 l 1.85156,5.367188 c 3.15234,-2.027344 7.51172,-3.328125 11.67187,-3.328125 9.17578,0 10.19532,6.667968 10.19532,10.371093 v 0.925782 c -17.32032,-0.09375 -26.95313,5.835937 -26.95313,16.675781 0,6.492187 4.62891,12.878902 13.71094,12.878902 6.38672,0 11.20312,-3.15234 13.71094,-6.667965 h 0.26953 l 0.65625,5.648438 z m -8.61328,-15.105469 c 0,0.84375 -0.1875,1.769531 -0.46875,2.601563 -1.28907,3.796875 -5.00391,7.5 -10.83985,7.5 -4.16015,0 -7.6875,-2.496094 -7.6875,-7.78125 0,-8.707032 10.10156,-10.277344 18.9961,-10.101563 z m 29.09179,-50.671875 h -8.0625 v 65.777344 h 8.0625 V 82.261402 l 4.17188,-4.628907 15.46875,21.492188 h 9.90234 L 356.11275,72.722339 373.43306,54.288745 h -9.82031 l -13.14844,15.46875 c -1.30078,1.582032 -2.88281,3.527344 -3.98438,5.097657 h -0.1875 z m 0,0" style="fill:#d22824;fill-opacity:1;fill-rule:nonzero;stroke:none" aria-label="NinoProdigio&#10;Pasternak" transform="matrix(1.3333333,0,0,1.3333333,1935.7416,4036.4236)" />
      </g></svg>