<?xml version='1.0' encoding='utf-8'?>
<svg xmlns="http://www.w3.org/2000/svg" version="1.1" width="95.409" height="170.065" viewBox="101.107 4037.960 95.409 170.065"><g id="object"><path id="path147" d="m 0,0 c -7.418,0.289 -13.377,2.555 -18.49,6.873 -9.589,8.1 -17.854,17.487 -26.029,26.959 -2.35,2.723 -3.359,5.931 -3.806,9.434 -1.735,13.612 0.912,26.573 5.758,39.205 0.454,1.184 1.188,2.317 2.004,3.297 11.148,13.395 23.521,25.233 40.334,31.334 1.209,0.438 2.493,0.682 3.755,0.955 5.962,1.289 7.453,0.288 8.863,-5.947 0.286,-1.262 0.534,-2.533 0.751,-3.808 1.306,-7.683 0.796,-8.531 -6.773,-11.233 -0.811,-0.29 -1.673,-0.436 -2.483,-0.726 -16.971,-6.068 -26.949,-20.585 -26.316,-38.59 0.304,-8.656 2.067,-17.009 5.132,-25.192 2.58,-6.891 6.633,-11.936 13.454,-14.776 2.377,-0.989 4.605,-2.332 6.927,-3.46 C 4.962,13.41 7.436,13.169 7.926,10.613 8.375,8.271 4.97,1.31 3.058,0.587 1.885,0.143 0.561,0.099 0,0" style="fill:#494643;fill-opacity:1;fill-rule:nonzero;stroke:none" transform="matrix(1.3333333,0,0,-1.3333333,172.25173,4202.0251)" />
      </g></svg>