<?xml version='1.0' encoding='utf-8'?>
<svg xmlns="http://www.w3.org/2000/svg" version="1.1" width="858.074" height="1188.560" viewBox="239.486 2616.670 858.074 1188.560"><g id="object"><path id="path11" d="m 0,0 -0.237,-0.324 0.301,-0.073 z m 137.761,-406.409 c -0.179,-0.152 -0.358,-0.304 -0.538,-0.457 0.161,-0.172 0.314,-0.47 0.484,-0.48 0.17,-0.011 0.357,0.269 0.536,0.422 -0.161,0.171 -0.321,0.343 -0.482,0.515 M 73.409,-551.12 c 2.161,0.355 3.933,0.937 3.339,2.057 -1.595,3.009 -3.777,5.706 -5.726,8.526 -0.686,-1.376 -4.293,0.899 -3.174,-1.91 1.302,-3.269 3.82,-6.053 5.561,-8.673 m 65.159,175.099 c -2.059,2.506 -4.378,5.145 -7.813,6 -0.752,0.188 -3.63,-1.818 -2.544,-3.374 1.767,-2.534 2.669,-6.539 6.591,-6.629 1.64,-0.037 3.478,1.377 3.766,4.003 M -9.38,48.922 c 1.3,-5.328 -0.405,-9.618 -1.678,-13.334 -2.495,-7.284 -0.551,-16.425 -9.101,-21.857 -1.365,-0.867 -5.522,-3.605 -6.107,-6.614 -1.205,-6.198 -5.626,-5.367 -9.812,-5.269 -3.718,0.086 -6.709,1.845 -9.449,4.312 -2.29,2.062 -4.732,0.729 -6.179,-1.052 -1.176,-1.446 0.123,-3.419 1.792,-3.912 7.326,-2.163 13.862,-8.774 22.496,-4.013 1.702,0.939 4.155,1.094 4.013,-1.882 -0.291,-6.135 4.972,-2.416 5.991,-2.423 4.547,-0.032 -0.332,2.395 0.273,3.103 2.24,2.615 0.522,6.385 2.329,8.63 7.545,9.373 9.453,20.733 11.777,31.921 1.899,9.144 3.296,18.394 4.846,27.609 C 2.072,65.69 2.674,67.58 0.538,68.397 -0.749,68.89 -1.936,68.074 -2.477,67.085 -5.751,61.101 -8.178,54.803 -9.38,48.922 m 155.167,-448.061 c 13.483,3.395 26.48,21.255 23.804,32.708 -1.104,0.137 -1.876,-0.479 -2.14,-1.39 -2.801,-9.636 -9.04,-16.715 -16.468,-23.109 -2.379,-2.049 -4.514,-4.742 -5.412,-8.028 -3.766,0.294 -4.052,-2.756 -6.135,-5.756 3.809,1.279 8.74,-0.372 6.351,5.575 m -129.28,8.702 c 8.017,3.313 8.146,10.86 12.437,15.418 6.634,7.045 12.924,15.163 21.052,19.577 14.137,7.678 25.988,19.081 41.746,24.241 7.362,2.412 14.323,7.41 20.188,12.663 6.307,5.65 14.018,7.59 21.209,10.848 17.28,7.829 30.076,-0.897 42.735,-11.645 15.26,-12.959 15.229,-29.949 14.556,-47.53 -0.882,-23.048 -8.373,-43.704 -22.982,-61.398 -5.618,-6.804 -12.656,-12.647 -21.459,-15.597 -11.598,-3.887 -22.4,-10.036 -34.717,-11.921 -4.816,-0.737 -4.342,-4.643 -4.317,-8.339 0.186,-27.443 -0.354,-54.889 -5.884,-81.87 -3.364,-16.417 -7.119,-32.742 -13.1,-48.589 -2.893,-7.664 -3.86,-16.427 -3.825,-25.027 0.031,-7.311 -3.606,-10.657 -10.788,-10.581 -26.446,0.281 -52.589,-3.2 -78.608,-7.123 -20.586,-3.104 -41.234,-6.79 -61.252,-12.376 -19.408,-5.416 -38.957,-11.032 -57.271,-19.836 -6.205,-2.982 -12.772,-4.849 -19.21,-7.135 -2.789,-0.99 -3.643,-0.505 -4.834,2.653 -6.735,17.864 -8.667,36.638 -11.156,55.3 -2.211,16.577 -4.877,33.303 -3.685,49.946 0.79,11.038 -2.427,21.492 -1.707,32.353 0.709,10.699 -0.598,21.478 -0.238,32.146 0.752,22.304 0.489,44.588 0.513,66.885 0.032,30.15 0.216,60.308 0.965,90.447 0.431,17.342 0.144,34.831 4.831,51.827 5.373,19.485 11.907,38.603 18.001,57.862 6.447,20.378 8.084,41.817 13.084,62.499 4.977,20.584 6.711,41.893 15.132,61.739 11.363,26.779 19.244,54.904 31.411,81.446 5.705,12.445 10.322,25.519 15.636,38.159 10.907,25.945 20.803,52.622 40.124,74.148 7.62,8.49 22.985,8.278 30.522,-0.64 7.882,-9.327 9.732,-20.752 8.85,-31.838 C 13.296,33.568 11.726,18.64 6.287,4.598 1.121,-8.737 -1.41,-22.951 -7.362,-36.036 c -1.854,-4.078 0.097,-8.437 -0.129,-12.661 -0.074,-1.376 -0.086,-3.11 -1.989,-3.189 -1.481,-0.062 -1.764,1.368 -1.828,2.534 -0.191,3.462 -3.355,4.259 -5.547,6.492 -0.578,-11.775 -10.569,-18.238 -14.896,-27.906 7.064,-0.835 7.864,6.005 11.753,8.863 3.424,2.516 5.493,9.079 10.534,6.501 4.154,-2.125 1.256,-7.783 1.169,-11.796 -0.394,-18.057 -6.544,-34.964 -11.334,-52.078 -2.292,-8.186 -6.436,-15.855 -9.755,-23.752 -0.272,-0.648 -0.987,-1.293 -0.92,-1.872 0.514,-4.414 -1.168,-6.043 -5.379,-8.477 -5.239,-3.028 -9.657,-8.761 -12.269,-14.779 -2.568,-5.916 -4.439,-12.145 -7.111,-18.2 5.304,3.427 9.561,7.715 12.101,13.478 1.702,3.862 3.242,7.725 6.19,10.929 3.31,3.598 4.949,2.011 5.262,-1.714 0.568,-6.751 1.349,-13.61 0.75,-20.309 -1.465,-16.381 -4.498,-32.601 -5.365,-49.065 -0.158,-2.981 -0.918,-5.816 -4.155,-7.516 -8.504,-4.466 -16.801,-9.316 -25.062,-14.211 -4.234,-2.509 -8.998,-4.136 -12.461,-7.947 -1.079,-1.188 -2.55,-2.242 -1.42,-4.97 14.254,9.762 30.465,15.613 44.715,25.328 12.504,8.525 23.552,18.307 33.45,29.674 6.562,7.536 16.117,10.546 25.396,11.161 18.259,1.21 35.939,-0.551 47.972,-17.718 5.8,-8.275 11.18,-16.335 12.081,-26.798 0.354,-4.116 -1.089,-5.476 -4.698,-6.22 -9.463,-1.951 -19.07,-3.242 -27.832,-7.941 -8.425,-4.519 -16.197,-10.036 -23.675,-15.801 -10.928,-8.426 -21.451,-16.587 -35.471,-20.099 -8.85,-2.217 -17.522,-6.225 -26.198,-9.621 -1.793,-0.702 -3.006,-2.903 -4.469,-4.43 -0.935,-0.976 -2.502,-1.821 -1.447,-3.495 1.23,-1.955 2.693,-1.054 4.252,-0.206 11.857,6.447 24.89,9.352 37.825,12.603 2.677,0.673 5.307,2.031 7.616,3.582 9.078,6.098 18.252,11.845 26.443,19.435 13.416,12.431 28.648,21.138 48.55,20.463 8.946,-0.303 17.122,-1.861 25.604,-3.823 16.882,-3.904 25.395,-15.8 30.872,-30.846 1.415,-3.887 0.511,-7.163 -4.1,-8.039 -15.949,-3.03 -28.017,-13.179 -41.132,-21.642 -7.569,-4.884 -16.384,-7.831 -24.622,-11.685 -13.779,-6.446 -26.225,-14.696 -35.443,-27.068 -4.401,-5.907 -10.875,-9.74 -15.048,-15.935 -2.614,-3.881 -3.841,-7.881 -4.911,-13.635" style="fill:#c33c36;fill-opacity:1;fill-rule:nonzero;stroke:none" transform="matrix(1.3333333,0,0,-1.3333333,837.3652,2750.1533)" />
      <path id="path21" d="m 0,0 c 3.077,-4.642 5.089,-11.563 13.374,-6.339 2.426,1.529 5.975,-0.469 5.592,-4.212 -0.248,-2.417 1.728,-7 -4.455,-6.076 -7.276,1.088 -10.962,-4.204 -11.94,-10.115 -1.172,-7.074 -2.502,-7.235 -6.705,-1.914 -1.327,1.679 -3.503,3.377 -6.264,2.114 -1.6,-0.733 -3.169,-1.684 -2.675,-3.652 1.942,-7.73 0.631,-15.579 0.967,-23.361 0.167,-3.87 3.52,-3.197 5.337,-4.687 1.371,-1.125 2.21,-1.101 3.221,0.668 3.201,5.6 7.068,4.202 10.657,0.474 2.433,-2.527 4.411,-3.644 6.607,0.103 0.712,1.216 1.706,2.626 3.34,1.579 1.463,-0.937 1.478,-2.811 2.08,-4.323 0.651,-1.635 -3.427,-3.667 0.051,-4.288 3.359,-0.6 2.868,2.394 2.238,4.426 -1.864,6.005 3.25,7.989 6.308,11.07 1.724,1.738 3.257,1.265 4.303,-1.157 1.052,-2.433 0.501,-4.264 -0.655,-6.596 -1.479,-2.982 -1.747,-6.429 1.367,-9.052 2.838,-2.39 5.228,-0.89 7.66,0.768 0.963,0.656 2.125,1.035 3.041,1.74 2.691,2.072 6.507,4.789 8.53,1.58 1.681,-2.668 -2.583,-4.707 -5.39,-5.971 -0.51,-0.23 -0.846,-0.846 -1.227,-1.246 4.463,-2.967 8.597,-7.889 13.515,-0.872 0.628,0.896 2.966,-0.125 2.509,-1.191 -2.436,-5.686 0.024,-11.351 -0.506,-16.891 -0.234,-2.448 -3.718,-4.63 -5.829,-6.834 -0.989,-1.034 -2.604,-0.969 -2.796,0.418 -1.037,7.474 -9.108,7.329 -12.672,12.001 -1.506,1.975 -3.564,2.319 -5.727,1.386 -5.202,-2.241 -7.359,0.727 -8.991,4.957 -1.171,3.037 -1.895,6.429 -6.704,3.303 -2.729,-1.775 -5.312,-0.328 -7.669,2.709 -3.503,4.514 -8.805,7.573 -14.698,6.375 -6.019,-1.224 -7.256,-6.766 -7.972,-12.109 -0.25,-1.87 -1.081,-3.895 -0.623,-5.568 0.588,-2.148 0.162,-6.54 5.025,-3.94 1.35,0.722 3.234,0.495 4.88,0.601 1.843,0.119 4.417,2.045 4.82,-1.764 0.281,-2.649 -0.414,-4.875 -3.376,-5.301 -2.217,-0.319 -3.877,-1.696 -5.833,-2.397 -3.565,-1.277 -4.064,-3.894 -3.169,-6.8 0.94,-3.053 3.655,-6.508 6.384,-5.742 9.055,2.541 17.987,-1.134 26.979,0.435 3.609,0.63 7.192,2.084 11.17,1.201 15.466,-3.43 31.26,-0.413 46.881,-2.193 13.983,-1.593 27.953,2.776 42.067,1.224 4.122,-0.454 7.014,1.722 6.961,6.152 -0.097,8.183 -0.414,16.368 -0.837,24.542 -0.305,5.878 -1.936,11.863 -1.226,17.584 2.048,16.511 0.514,33.017 0.521,49.491 0.008,17.557 0.106,35.141 -0.894,52.736 -1.096,19.27 -0.409,38.647 -0.306,57.977 0.163,30.669 -2.237,61.277 -1.519,91.98 0.6,25.662 0.792,51.384 -1.98,77.009 -0.274,2.535 -0.127,3.452 -2.885,2.761 -1.591,-0.399 -2.835,0.576 -2.823,2.286 0.011,1.713 1.427,2.245 2.883,2.598 1.665,0.403 4.884,-0.224 4.111,2.462 -1.86,6.462 1.33,12.565 0.367,19.031 -1.435,9.623 1.213,14.22 8.652,14.955 13.615,1.347 27.497,2.12 40.994,1.348 15.987,-0.914 31.883,0.47 47.838,-0.347 10.89,-0.557 11.195,1.201 11.113,12.225 -0.069,9.239 -0.033,18.48 -0.058,27.72 -0.039,14.452 -0.414,28.913 -0.001,43.352 0.207,7.219 -5.91,7.622 -9.604,10.647 -1.529,1.253 -4.154,1.423 -5.018,-0.566 -1.685,-3.878 -3.581,-2.343 -5.836,-0.932 -2.336,1.462 -4.989,1.225 -7.601,1.233 -10.279,0.03 -20.482,-7 -30.912,-0.191 -1.342,0.875 -3.73,-0.785 -5.397,-0.792 -9.375,-0.041 -18.673,-1.249 -28.106,-1.006 -9.39,0.242 -18.177,5.287 -27.973,2.523 -3.208,-0.905 -7.354,0.889 -10.896,2.006 -2.346,0.74 -3.999,3.002 -3.324,5.588 0.723,2.774 3.195,0.714 4.812,1.114 4.161,1.031 8.778,1.612 12.586,1.199 7.99,-0.866 8.354,3.96 7.658,8.716 -1.986,13.56 0.277,27.025 0.083,40.527 -0.088,6.166 -2.082,12.667 -0.941,18.284 2.695,13.273 -0.04,26.412 0.041,39.477 0.123,19.692 0.611,39.573 -1.125,59.27 -1.956,22.206 2.121,44.298 0.504,66.459 -0.475,6.504 3.077,8.425 9.041,10.117 9.681,2.746 19.139,-0.058 28.581,0.027 7.464,0.067 14.614,2.092 22.237,1.73 11.99,-0.57 24.235,-1.159 36.35,0.663 3.149,0.473 5.493,4.558 9.148,2.013 3.601,-2.508 7.963,-1.102 11.954,-2.245 3.358,-0.963 9.594,0.184 8.61,6.306 -2.27,14.117 1.408,28.013 0.704,42.054 -0.777,15.516 -0.958,31.062 -1.367,46.595 -0.079,3.016 -0.365,5.832 -4.176,6.289 -4.217,0.506 -8.444,1.349 -12.665,1.335 -23.757,-0.08 -47.521,-0.069 -71.267,-0.71 -13.741,-0.371 -27.435,1.312 -41.242,-0.252 -7.65,-0.866 -15.664,-2.108 -23.208,-1.215 -8.849,1.048 -17.377,0.843 -26.045,-0.409 -1.849,-0.267 -4.075,0.05 -4.598,-2.381 -0.53,-2.456 -1.514,-4.087 -4.272,-3.296 -2.024,0.581 -4.273,1.229 -4.284,3.985 -0.006,1.473 0.326,2.974 -1.943,2.779 -1.385,-0.119 -2.164,-0.965 -2.34,-2.242 -0.774,-5.594 -5.801,-4.891 -9.066,-7.007 -0.85,1.87 -0.044,2.821 0.332,3.91 0.659,1.91 4.492,-0.304 3.81,2.878 -0.566,2.644 -3.106,2.508 -5.166,2.896 -7.434,1.402 -14.959,0.322 -22.315,-0.106 -9.856,-0.574 -10.242,-2.204 -5.515,-9.657 0.135,-0.212 -0.302,-0.787 -0.972,-2.381 -2.985,3.446 -9.812,1.351 -9.246,8.917 0.083,1.11 -1.741,2.89 -3.095,2.26 -5.745,-2.67 -11.545,-0.165 -17.294,-0.412 -5.062,-0.216 -6.647,-1.521 -7.147,-6.849 -1.285,-13.683 1.631,-27.133 0.837,-40.916 -0.909,-15.784 -1.791,-31.946 0.825,-47.836 0.808,-4.904 2.189,-9.898 1.123,-14.775 -2.396,-10.96 2.14,-21.427 1.759,-32.256 -0.18,-5.142 3.545,-6.798 7.434,-3.664 2.031,1.638 3.597,1.194 5.683,1.272 3.702,0.139 7.27,-2.282 11.063,-0.254 3.668,1.961 6.898,0.412 9.606,-2.137 1.693,-1.593 2.109,-3.837 0.834,-5.868 -2.047,-3.261 -5.255,-4.597 -9.035,-4.749 -2.236,-0.09 -4.195,1.53 -6.782,-0.02 -4.179,-2.502 -6.298,-1.107 -5.069,4.004 0.322,1.339 0.706,3.11 -0.941,3.704 -1.706,0.615 -2.505,-0.953 -2.932,-2.323 -0.699,-2.239 -1.841,-3.824 -4.415,-3.864 -7.44,-0.116 -7.07,-4.578 -6.511,-10.253 0.52,-5.288 3.842,-10.302 2.249,-15.613 -1.477,-4.92 -1.44,-9.806 -1.338,-14.755 0.281,-13.646 3.157,-27.384 0.486,-40.9 -2.332,-11.805 2.038,-23.014 1.142,-34.719 -1.114,-14.545 0.156,-29.257 -0.328,-43.872 -0.234,-7.069 -0.074,-14.085 0.15,-21.124 0.106,-3.349 1.272,-5.714 5.224,-4.513 3.097,0.942 6.529,0.625 6.985,-2.495 0.524,-3.58 -2.74,-5.835 -6.245,-6.441 -6.072,-1.05 -7.717,-3.398 -5.016,-9.118 1.42,-3.01 1.891,-5.143 -0.034,-8.156 -1.137,-1.78 -0.968,-4.575 -0.919,-6.903 0.437,-21.104 0.972,-42.205 1.507,-63.306 0.029,-1.111 -0.217,-2.536 1.288,-2.952 1.409,-0.389 2.011,0.863 2.82,1.681 3.099,3.135 6.491,3.413 10.785,0.615 -4.004,-1.554 -3.282,-6.304 -6.417,-8.199 -9.916,-5.994 -9.939,-5.914 -3.832,-15.082 0.477,-0.716 0.914,-1.986 0.602,-2.618 -2.667,-5.389 0.088,-9.047 3.077,-13.343 2.54,-3.65 3.218,-8.447 -3.583,-9.293 -2.515,-0.312 -3.241,-1.343 -2.548,-3.768 0.729,-2.549 0.353,-5.089 -0.156,-7.705 -0.469,-2.407 -4.03,-7.333 3.579,-4.883 3.375,1.086 2.971,-2.895 2.432,-5.037 -0.596,-2.362 -2.753,-3.776 -4.608,-5.251 -2.445,-1.945 -3.905,-4.876 -2.822,-7.439 1.334,-3.158 4.084,-0.023 6.223,-0.068 0.878,-0.018 1.858,0.673 2.807,-0.859 -1.428,-6.593 -1.862,-13.537 -0.015,-20.574 0.671,-2.559 0.011,-5.581 -3.937,-4.936 -2.52,0.412 -2.317,-0.82 -2.732,-2.697 -2.56,-11.576 1.386,-23.124 -0.213,-34.723 -1.649,-11.966 2.977,-24.006 -0.082,-36.065 -2.391,-9.42 1.895,-18.892 0.962,-27.969 -2.562,-24.922 0.595,-49.802 -0.963,-74.653 -0.45,-7.187 2.08,-14.108 2.171,-21.041 0.1,-7.557 -1.521,-13.577 4.006,-21.444 C -1.837,-8.495 -2.435,-0.784 0,0 m 71.823,-109.259 c -17.269,0 -34.539,0.072 -51.809,-0.033 -7.8,-0.047 -15.6,-0.394 -23.396,-0.702 -8.513,-0.337 -12.232,2.465 -12.332,10.787 -0.217,17.99 0.032,35.987 0.123,53.981 0.068,13.436 2.163,27.184 0.846,40.171 -1.254,12.367 -0.886,24.758 -2.007,37.087 -1.47,16.161 -0.442,32.551 -0.449,48.843 -0.008,21.303 0.11,42.605 0.013,63.908 -0.106,23.064 -0.71,46.131 -0.505,69.191 0.156,17.486 -1.403,34.932 -1.191,52.366 0.565,46.47 -2.793,92.878 -2.009,139.314 0.526,31.203 -0.179,62.4 -0.669,93.554 -0.406,25.82 -0.85,51.695 -1.398,77.534 -0.273,12.846 -0.468,25.794 -0.082,38.721 0.409,13.694 -0.877,27.651 -1.145,41.485 -0.329,16.964 -1.541,33.887 -1.334,50.888 0.225,18.452 -0.824,36.925 -1.535,55.38 -0.164,4.25 1.391,6.256 5.526,6.361 10.451,0.266 20.903,0.506 31.355,0.755 6.331,0.151 12.667,0.333 18.991,0.353 10.241,0.033 20.487,-1.086 30.609,-0.629 13.31,0.599 26.632,0.977 39.94,1.231 18.419,0.351 36.853,-0.19 55.28,-0.148 28.979,0.067 57.959,0.206 86.936,0.531 7.264,0.082 11.137,-3.879 10.653,-12.297 -0.595,-10.351 0.885,-20.712 0.346,-30.987 -0.952,-18.131 0.845,-36.182 0.483,-54.262 -0.218,-10.918 -5.504,-14.52 -16.538,-13.168 -6.756,0.827 -13.695,1.368 -20.446,0.795 -17.146,-1.456 -34.308,-0.804 -51.457,-1.177 -10.254,-0.223 -20.517,-0.085 -30.776,-0.033 -5.525,0.028 -8.937,-3.478 -8.594,-9.653 2.116,-38.055 0.487,-76.133 0.858,-114.198 0.349,-35.709 0.83,-71.417 1.405,-107.123 0.074,-4.562 -3.244,-9.804 0.927,-13.598 4.725,-4.299 11.63,-3.096 16.988,-2.932 10.947,0.334 21.914,0.791 32.835,0.282 10.109,-0.471 19.91,1.108 29.853,1.951 6.393,0.543 13.428,0.047 20.092,-0.738 4.976,-0.586 6.425,-4.831 7.464,-9.192 2.672,-11.211 0.368,-22.532 0.886,-33.796 0.624,-13.55 -0.35,-27.201 0.767,-40.693 1.345,-16.245 -0.208,-18.249 -16.34,-18.168 -28.816,0.144 -57.635,-0.238 -86.452,-0.411 -4.473,-0.027 -6.425,-2.676 -6.428,-6.788 -0.011,-22.237 -0.017,-44.475 0.156,-66.711 0.111,-14.329 0.661,-28.654 0.787,-42.984 0.174,-19.806 -0.618,-39.603 1.033,-59.417 0.956,-11.475 0.274,-23.084 0.411,-34.631 0.376,-31.916 0.862,-63.83 1.179,-95.746 0.329,-33.125 0.553,-66.251 0.741,-99.377 0.09,-15.883 -2.139,-17.674 -18.701,-17.334 -13.955,0.287 -27.921,0.06 -41.882,0.06 -0.003,0.465 -0.005,0.931 -0.008,1.397" style="fill:#494f57;fill-opacity:1;fill-rule:nonzero;stroke:none" transform="matrix(1.3333333,0,0,-1.3333333,281.57573,3651.5693)" />
      <path id="path215" d="m 0,0 c -2.252,-1.103 -4.043,-4.177 -7.131,-0.799 -1.283,1.405 -3.288,-0.201 -3.902,-1.775 -1.499,-3.835 -1.364,-3.92 -4.747,-4.371 -4.165,-0.556 -8.337,-1.056 -12.508,-1.565 -6.422,-0.783 -10.153,2.098 -11.305,8.502 -0.344,1.918 0.049,3.238 1.821,4.072 13.23,6.227 27.442,8.841 42.623,11.475 C -2.113,11.493 1.648,5.194 0.194,0.169 Z" style="fill:#c33c36;fill-opacity:1;fill-rule:nonzero;stroke:none" transform="matrix(1.3333333,0,0,-1.3333333,678.6176,3786.7581)" />
      <path id="path987" d="m 0,0 c 1.202,5.881 3.628,12.179 6.902,18.162 0.541,0.989 1.728,1.805 3.015,1.313 2.137,-0.817 1.534,-2.707 1.274,-4.256 C 9.64,6.004 8.244,-3.246 6.344,-12.39 4.02,-23.578 2.112,-34.938 -5.432,-44.311 c -1.808,-2.245 -0.09,-6.016 -2.329,-8.631 -0.606,-0.707 4.273,-3.134 -0.274,-3.102 -1.019,0.007 -6.281,-3.712 -5.99,2.423 0.141,2.976 -2.311,2.82 -4.013,1.882 -8.635,-4.761 -15.17,1.849 -22.496,4.012 -1.67,0.493 -2.968,2.467 -1.793,3.913 1.448,1.781 3.89,3.114 6.18,1.052 2.74,-2.467 5.731,-4.226 9.449,-4.312 4.185,-0.098 8.607,-0.929 9.812,5.269 0.585,3.009 4.741,5.747 6.106,6.614 8.551,5.431 6.607,14.572 9.102,21.857 C -0.406,-9.619 1.299,-5.328 0,0" style="fill:#dedbe1;fill-opacity:1;fill-rule:nonzero;stroke:none" transform="matrix(1.3333333,0,0,-1.3333333,824.85893,2684.9236)" />
      <path id="path988" d="m 0,0 c 0.895,3.285 3.03,5.979 5.41,8.027 7.428,6.395 13.667,13.474 16.467,23.11 0.265,0.91 1.036,1.527 2.14,1.39 C 26.693,21.073 13.697,3.214 0.214,-0.181 Z" style="fill:#dedbe1;fill-opacity:1;fill-rule:nonzero;stroke:none" transform="matrix(1.3333333,0,0,-1.3333333,1031.4629,3282.0967)" />
      <path id="path989" d="m 0,0 c -0.288,-2.626 -2.126,-4.04 -3.766,-4.003 -3.922,0.09 -4.823,4.094 -6.591,6.629 C -11.443,4.182 -8.565,6.187 -7.813,6 -4.377,5.145 -2.059,2.506 0,0" style="fill:#dedbe1;fill-opacity:1;fill-rule:nonzero;stroke:none" transform="matrix(1.3333333,0,0,-1.3333333,1022.1221,3251.5144)" />
      <path id="path990" d="m 0,0 c -1.741,2.62 -4.259,5.405 -5.561,8.673 -1.119,2.809 2.487,0.534 3.174,1.91 C -0.438,7.763 1.744,5.066 3.339,2.058 3.933,0.937 2.161,0.355 0,0" style="fill:#dedbe1;fill-opacity:1;fill-rule:nonzero;stroke:none" transform="matrix(1.3333333,0,0,-1.3333333,935.244,3484.9803)" />
      <path id="path991" d="m 0,0 c 2.389,-5.948 -2.542,-4.297 -6.352,-5.576 2.084,3 2.369,6.05 6.137,5.757 C -0.214,0.181 0,0 0,0" style="fill:#dedbe1;fill-opacity:1;fill-rule:nonzero;stroke:none" transform="matrix(1.3333333,0,0,-1.3333333,1031.7484,3282.338)" />
      <path id="path1074" d="m 0,0 c -2.492,-0.741 -2.252,-2.75 -1.937,-4.534 0.426,-2.408 1.591,-4.579 4.439,-4.349 1.554,0.125 2.207,1.667 1.618,3.204 C 3.263,-3.441 3.42,-0.389 0,0 m -57.583,-75.962 c 2.932,1.002 2.977,3.368 2.867,5.783 -0.121,2.635 -1.543,3.795 -4.154,3.584 -2.926,-0.237 -3.351,-2.244 -3.062,-4.54 0.32,-2.545 1.672,-4.322 4.349,-4.827 m -20.73,-404.56 c -2.993,-0.96 -2.52,-4.393 -3.164,-6.74 -0.765,-2.789 -1.612,-7.1 2.013,-7.843 2.788,-0.571 2.477,3.753 3.284,6.009 0.55,1.534 0.964,3.157 1.142,4.774 0.206,1.861 -0.807,3.096 -3.275,3.8 m 21.947,384.357 c 2.043,1.288 6.188,1.059 6.342,4.764 0.084,2.003 -2.242,4.55 -4.823,4.33 -3.262,-0.277 -5.747,-2.132 -5.663,-5.984 0.052,-2.393 1.332,-3.379 4.144,-3.11 m 0.903,66.556 c 1.991,0.089 3.705,1.587 3.178,3.953 -0.723,3.241 -0.849,8.063 -5.187,8.016 -2.534,-0.027 -3.051,-4.211 -3.157,-6.979 -0.114,-3.009 1.332,-4.913 5.166,-4.99 m 48.782,-389.7 c -2.398,-0.3 -4.328,-2.973 -4.976,-6.277 -0.414,-2.116 1.539,-3.45 3.676,-3.308 3.757,0.251 6.049,2.649 6.803,6.119 0.653,3.003 -1.703,3.393 -5.503,3.466 m -8.251,-408.793 c -0.374,-0.409 -1.194,-0.886 -1.208,-1.385 -0.108,-3.9 -1.468,-7.987 1.854,-11.408 1.44,-1.483 2.94,-2.756 4.87,-1.599 1.95,1.17 0.427,2.986 0.095,4.464 -0.515,2.294 -1.148,4.572 -1.91,6.795 -0.553,1.616 -1.646,2.846 -3.701,3.133 m 8.185,371.289 c 0.473,6.495 -2.448,9.496 -4.68,12.792 -0.52,0.768 -1.38,1.626 -2.313,0.949 -0.627,-0.455 -0.921,-1.489 -1.174,-2.321 -1.173,-3.86 2.104,-6.544 2.704,-9.952 0.38,-2.158 -0.561,-5.77 2.594,-5.653 3.176,0.117 2.809,3.722 2.869,4.185 m -45.032,-324.403 c -0.93,2.421 -2.575,6.491 -3.175,5.104 -1.747,-4.043 -5.353,-3.149 -7.781,-4.841 -2.329,-1.622 -2.387,-3.972 -1.669,-6.304 0.523,-1.698 2.729,-3.211 3.736,-2.451 3.286,2.48 7.298,4.479 8.889,8.492 m 42.651,750.108 c -1.863,-4.46 -4.067,-7.249 -7.177,-9.552 -2.591,-1.918 -2.311,-5.533 -0.567,-7.712 2.301,-2.875 4.65,-0.384 6.492,1.397 4.507,4.356 5.192,9.286 1.252,15.867 m -3.079,-43.402 c -0.051,2.455 0.024,4.392 -1.768,5.634 -1.238,0.858 -2.653,1.042 -3.973,0.313 -4.721,-2.609 -6.86,-12.075 -3.776,-16.807 1.949,-2.992 4.288,-3.063 5.776,0.171 1.645,3.578 2.639,7.456 3.741,10.689 m 7.168,67.409 c 0.467,3.551 1.248,6.611 -1.809,8.291 -1.587,0.872 -4.602,1.114 -5.275,-0.269 -2.219,-4.554 -10.157,-7.397 -4.687,-14.574 1.199,-1.573 1.406,-3.94 1.932,-5.977 0.394,-1.528 1.003,-2.403 2.806,-2.423 5.56,-0.061 8.75,3.807 7.732,9.469 -0.37,2.059 -0.534,4.155 -0.699,5.483 m -24.394,-329.627 c 1.219,-0.314 2.139,-0.516 3.037,-0.789 9.637,-2.923 19.409,-3.601 29.416,-2.321 2.735,0.35 5.053,0.816 6.914,2.903 0.816,0.915 1.73,1.913 0.874,3.046 -0.442,0.584 -1.87,1.092 -2.442,0.808 -6.737,-3.35 -12.979,0.384 -19.482,0.908 -20.722,1.671 -41.51,2.696 -62.292,3.308 -3.855,0.113 -8.563,-0.031 -12.077,-3.231 -1.364,-1.242 -2.316,-2.345 -1.746,-4.201 0.382,-1.245 1.404,-2.064 2.595,-2.121 6.802,-0.325 14.274,-2.437 20.275,-0.356 11.861,4.112 23.778,-2.947 34.928,2.046 m -55.945,-416.407 c -2.436,-0.785 -1.838,-8.496 -7.382,-0.602 -5.526,7.867 -3.906,13.887 -4.005,21.443 -0.091,6.934 -2.622,13.855 -2.171,21.042 1.557,24.851 -1.6,49.73 0.962,74.653 0.933,9.077 -3.352,18.549 -0.962,27.969 3.06,12.058 -1.566,24.099 0.083,36.065 1.598,11.598 -2.348,23.147 0.213,34.723 0.415,1.877 0.212,3.109 2.732,2.697 3.947,-0.645 4.608,2.377 3.936,4.936 -1.847,7.036 -1.412,13.981 0.015,20.574 -0.949,1.532 -1.929,0.841 -2.806,0.859 -2.139,0.045 -4.889,-3.091 -6.224,0.068 -1.082,2.563 0.377,5.494 2.823,7.438 1.854,1.475 4.012,2.889 4.607,5.251 0.54,2.143 0.944,6.124 -2.431,5.037 -7.61,-2.45 -4.048,2.477 -3.58,4.883 0.51,2.617 0.886,5.157 0.157,7.705 -0.693,2.425 0.033,3.456 2.548,3.769 6.8,0.845 6.122,5.643 3.582,9.293 -2.989,4.295 -5.744,7.954 -3.077,13.343 0.313,0.632 -0.125,1.901 -0.602,2.618 -6.106,9.168 -6.083,9.088 3.833,15.082 3.135,1.894 2.413,6.645 6.417,8.198 -4.294,2.799 -7.687,2.52 -10.785,-0.614 -0.809,-0.818 -1.412,-2.07 -2.821,-1.681 -1.505,0.416 -1.259,1.841 -1.287,2.951 -0.536,21.102 -1.07,42.203 -1.508,63.307 -0.048,2.328 -0.217,5.123 0.92,6.902 1.925,3.014 1.454,5.147 0.033,8.157 -2.7,5.72 -1.056,8.068 5.016,9.118 3.505,0.606 6.77,2.861 6.246,6.441 -0.457,3.119 -3.889,3.436 -6.985,2.495 -3.953,-1.202 -5.118,1.164 -5.225,4.512 -0.223,7.039 -0.384,14.056 -0.149,21.125 0.484,14.615 -0.786,29.327 0.328,43.872 0.896,11.705 -3.474,22.914 -1.142,34.719 2.67,13.516 -0.205,27.254 -0.487,40.9 -0.102,4.949 -0.139,9.835 1.338,14.755 1.594,5.31 -1.728,10.325 -2.249,15.612 -0.558,5.676 -0.928,10.138 6.512,10.253 2.574,0.04 3.716,1.625 4.414,3.865 0.428,1.369 1.226,2.938 2.933,2.323 1.647,-0.594 1.262,-2.365 0.94,-3.705 -1.229,-5.11 0.891,-6.506 5.069,-4.003 2.587,1.549 4.546,-0.07 6.782,0.02 3.78,0.152 6.989,1.488 9.036,4.749 1.274,2.031 0.858,4.275 -0.834,5.868 -2.709,2.549 -5.938,4.098 -9.606,2.137 -3.794,-2.028 -7.362,0.393 -11.063,0.254 -2.086,-0.079 -3.652,0.366 -5.684,-1.272 -3.888,-3.135 -7.614,-1.479 -7.433,3.663 0.38,10.83 -4.155,21.297 -1.759,32.257 1.066,4.877 -0.316,9.87 -1.123,14.775 -2.616,15.89 -1.734,32.052 -0.825,47.836 0.794,13.783 -2.122,27.233 -0.837,40.916 0.5,5.327 2.084,6.632 7.147,6.849 5.748,0.246 11.549,-2.258 17.293,0.412 1.354,0.63 3.179,-1.15 3.096,-2.26 -0.566,-7.566 6.261,-5.471 9.246,-8.918 0.669,1.595 1.107,2.17 0.972,2.382 -4.728,7.452 -4.341,9.083 5.515,9.656 7.356,0.428 14.881,1.508 22.315,0.107 2.06,-0.389 4.599,-0.253 5.166,-2.896 0.681,-3.182 -3.151,-0.969 -3.81,-2.878 -0.377,-1.09 -1.183,-2.041 -0.332,-3.91 3.265,2.116 8.292,1.413 9.065,7.007 0.177,1.277 0.956,2.122 2.34,2.241 2.27,0.195 1.937,-1.305 1.943,-2.779 0.012,-2.755 2.261,-3.403 4.285,-3.984 2.758,-0.791 3.742,0.84 4.271,3.296 0.524,2.43 2.749,2.113 4.599,2.381 8.668,1.252 17.195,1.457 26.044,0.409 7.545,-0.893 15.558,0.349 23.208,1.215 13.808,1.564 27.501,-0.12 41.243,0.252 23.745,0.641 47.51,0.63 71.267,0.709 4.22,0.015 8.448,-0.829 12.665,-1.334 3.81,-0.457 4.096,-3.274 4.176,-6.289 0.408,-15.534 0.589,-31.08 1.367,-46.595 0.703,-14.042 -2.974,-27.937 -0.705,-42.054 0.984,-6.122 -5.251,-7.269 -8.609,-6.307 -3.992,1.144 -8.353,-0.262 -11.955,2.246 -3.654,2.545 -5.998,-1.54 -9.147,-2.014 -12.115,-1.821 -24.36,-1.232 -36.35,-0.662 -7.623,0.362 -14.773,-1.663 -22.237,-1.73 -9.443,-0.085 -18.9,2.719 -28.581,-0.027 -5.964,-1.693 -9.517,-3.613 -9.042,-10.117 1.618,-22.162 -2.46,-44.253 -0.503,-66.459 1.736,-19.697 1.248,-39.578 1.125,-59.27 -0.082,-13.066 2.654,-26.204 -0.042,-39.477 -1.14,-5.617 0.853,-12.119 0.942,-18.284 0.194,-13.502 -2.069,-26.968 -0.084,-40.527 0.697,-4.756 0.332,-9.583 -7.657,-8.717 -3.808,0.413 -8.425,-0.167 -12.587,-1.198 -1.616,-0.401 -4.088,1.66 -4.812,-1.114 -0.674,-2.586 0.979,-4.848 3.325,-5.588 3.541,-1.117 7.687,-2.912 10.896,-2.006 9.796,2.764 18.582,-2.282 27.972,-2.523 9.433,-0.243 18.732,0.965 28.107,1.006 1.667,0.007 4.055,1.667 5.396,0.792 10.431,-6.809 20.633,0.22 30.912,0.19 2.612,-0.007 5.266,0.23 7.602,-1.232 2.254,-1.412 4.15,-2.947 5.835,0.932 0.865,1.989 3.49,1.819 5.019,0.566 3.693,-3.025 9.81,-3.428 9.604,-10.648 -0.413,-14.438 -0.039,-28.899 0,-43.351 0.025,-9.24 -0.01,-18.481 0.058,-27.721 0.082,-11.023 -0.223,-12.782 -11.112,-12.224 -15.956,0.817 -31.852,-0.568 -47.838,0.347 -13.497,0.772 -27.38,-0.002 -40.994,-1.348 -7.439,-0.735 -10.087,-5.332 -8.653,-14.955 0.964,-6.466 -2.227,-12.569 -0.367,-19.031 0.774,-2.686 -2.445,-2.059 -4.111,-2.462 -1.455,-0.353 -2.871,-0.886 -2.883,-2.598 -0.011,-1.71 1.233,-2.685 2.824,-2.286 2.758,0.691 2.61,-0.226 2.884,-2.761 2.773,-25.625 2.581,-51.347 1.981,-77.009 -0.719,-30.703 1.682,-61.311 1.518,-91.98 -0.102,-19.33 -0.789,-38.707 0.306,-57.977 1.001,-17.595 0.902,-35.179 0.894,-52.737 -0.007,-16.473 1.528,-32.979 -0.52,-49.491 -0.71,-5.72 0.92,-11.705 1.225,-17.583 0.424,-8.174 0.741,-16.359 0.838,-24.542 0.052,-4.43 -2.839,-6.606 -6.962,-6.153 -14.113,1.553 -28.083,-2.816 -42.067,-1.223 -15.62,1.78 -31.414,-1.238 -46.88,2.193 -3.979,0.883 -7.562,-0.571 -11.17,-1.201 -8.993,-1.569 -17.925,2.106 -26.979,-0.435 -2.73,-0.766 -5.445,2.689 -6.384,5.742 -0.895,2.906 -0.397,5.523 3.168,6.8 1.956,0.701 3.617,2.078 5.834,2.397 2.961,0.426 3.657,2.652 3.376,5.301 -0.403,3.808 -2.978,1.882 -4.82,1.763 -1.646,-0.105 -3.53,0.122 -4.88,-0.6 -4.864,-2.6 -4.438,1.792 -5.026,3.94 -0.458,1.673 0.374,3.698 0.624,5.568 0.715,5.343 1.952,10.885 7.972,12.109 5.892,1.198 11.195,-1.861 14.698,-6.375 2.356,-3.037 4.94,-4.484 7.669,-2.71 4.809,3.127 5.533,-0.265 6.704,-3.302 1.631,-4.231 3.789,-7.198 8.991,-4.957 2.163,0.932 4.22,0.589 5.727,-1.387 3.564,-4.671 11.635,-4.526 12.671,-12.001 0.193,-1.386 1.807,-1.451 2.797,-0.418 2.111,2.204 5.595,4.387 5.829,6.835 0.529,5.54 -1.93,11.204 0.505,16.891 0.457,1.066 -1.881,2.087 -2.508,1.191 -4.918,-7.018 -9.053,-2.095 -13.515,0.871 0.381,0.401 0.717,1.017 1.227,1.247 2.807,1.264 7.071,3.303 5.389,5.97 -2.022,3.21 -5.838,0.493 -8.529,-1.579 -0.917,-0.705 -2.079,-1.084 -3.041,-1.74 -2.432,-1.659 -4.822,-3.158 -7.66,-0.768 -3.114,2.622 -2.846,6.07 -1.368,9.051 1.157,2.333 1.707,4.164 0.656,6.597 -1.046,2.422 -2.58,2.894 -4.304,1.157 -3.057,-3.081 -8.171,-5.065 -6.308,-11.071 0.631,-2.031 1.122,-5.025 -2.237,-4.425 -3.478,0.621 0.6,2.653 -0.051,4.287 -0.602,1.513 -0.617,3.387 -2.08,4.324 -1.634,1.047 -2.629,-0.364 -3.341,-1.579 -2.196,-3.747 -4.174,-2.63 -6.606,-0.104 -3.589,3.728 -7.457,5.127 -10.657,-0.473 -1.012,-1.77 -1.85,-1.794 -3.221,-0.669 -1.817,1.491 -5.17,0.818 -5.337,4.688 -0.337,7.782 0.975,15.631 -0.967,23.361 -0.495,1.968 1.075,2.919 2.675,3.651 2.761,1.264 4.937,-0.434 6.264,-2.114 4.203,-5.32 5.532,-5.16 6.704,1.915 0.979,5.911 4.664,11.203 11.941,10.115 6.183,-0.924 4.207,3.659 4.454,6.075 0.384,3.744 -3.165,5.742 -5.592,4.212 -8.285,-5.223 -10.296,1.698 -13.373,6.34" style="fill:#08282e;fill-opacity:1;fill-rule:nonzero;stroke:none" transform="matrix(1.3333333,0,0,-1.3333333,395.4136,2647.3889)" />
      <path id="path1111" d="m 0,0 c -11.15,-4.993 -23.067,2.066 -34.928,-2.046 -6.001,-2.081 -13.473,0.03 -20.275,0.355 -1.192,0.057 -2.213,0.877 -2.595,2.122 -0.57,1.856 0.382,2.959 1.746,4.201 3.514,3.2 8.222,3.344 12.076,3.231 C -23.193,7.251 -2.405,6.226 18.317,4.555 24.82,4.031 31.061,0.297 37.799,3.647 38.371,3.931 39.798,3.423 40.24,2.839 41.097,1.706 40.183,0.708 39.367,-0.207 37.506,-2.294 35.187,-2.76 32.452,-3.11 22.446,-4.391 12.674,-3.712 3.037,-0.789 2.139,-0.516 1.219,-0.314 0,0" style="fill:#494f57;fill-opacity:1;fill-rule:nonzero;stroke:none" transform="matrix(1.3333333,0,0,-1.3333333,356.16987,3096.3595)" />
      <path id="path1112" d="m 0,0 c 0.165,-1.328 0.329,-3.424 0.699,-5.483 1.018,-5.662 -2.172,-9.53 -7.732,-9.469 -1.803,0.02 -2.412,0.895 -2.806,2.424 -0.526,2.036 -0.733,4.403 -1.932,5.976 -5.47,7.177 2.468,10.02 4.687,14.574 0.673,1.383 3.688,1.141 5.275,0.269 C 1.248,6.611 0.467,3.551 0,0" style="fill:#494f57;fill-opacity:1;fill-rule:nonzero;stroke:none" transform="matrix(1.3333333,0,0,-1.3333333,388.69493,2656.8571)" />
      <path id="path1113" d="m 0,0 c -1.102,-3.233 -2.095,-7.111 -3.741,-10.689 -1.488,-3.234 -3.827,-3.162 -5.776,-0.17 -3.083,4.731 -0.944,14.198 3.776,16.806 1.32,0.729 2.736,0.545 3.973,-0.313 C 0.024,4.392 -0.05,2.455 0,0" style="fill:#494f57;fill-opacity:1;fill-rule:nonzero;stroke:none" transform="matrix(1.3333333,0,0,-1.3333333,379.1372,2746.736)" />
      <path id="path1114" d="m 0,0 c 3.94,-6.581 3.255,-11.511 -1.251,-15.867 -1.843,-1.781 -4.192,-4.272 -6.493,-1.397 -1.743,2.179 -2.024,5.794 0.567,7.712 C -4.067,-7.249 -1.863,-4.461 0,0" style="fill:#494f57;fill-opacity:1;fill-rule:nonzero;stroke:none" transform="matrix(1.3333333,0,0,-1.3333333,383.2424,2688.8661)" />
      <path id="path1115" d="m 0,0 c -1.591,-4.013 -5.603,-6.012 -8.889,-8.492 -1.007,-0.759 -3.212,0.754 -3.735,2.452 -0.719,2.331 -0.66,4.681 1.668,6.303 2.428,1.692 6.034,0.798 7.781,4.841 C -2.575,6.492 -0.93,2.421 0,0" style="fill:#494f57;fill-opacity:1;fill-rule:nonzero;stroke:none" transform="matrix(1.3333333,0,0,-1.3333333,326.37453,3689.0109)" />
      <path id="path1116" d="m 0,0 c -0.06,-0.462 0.307,-4.068 -2.869,-4.185 -3.155,-0.117 -2.214,3.495 -2.594,5.653 -0.6,3.408 -3.877,6.092 -2.704,9.952 0.253,0.833 0.547,1.867 1.174,2.321 C -6.06,14.418 -5.2,13.56 -4.68,12.793 -2.448,9.496 0.473,6.495 0,0" style="fill:#494f57;fill-opacity:1;fill-rule:nonzero;stroke:none" transform="matrix(1.3333333,0,0,-1.3333333,386.41773,3256.4735)" />
      <path id="path1117" d="m 0,0 c 2.055,-0.286 3.147,-1.517 3.701,-3.132 0.762,-2.224 1.395,-4.502 1.91,-6.795 0.332,-1.479 1.855,-3.295 -0.095,-4.464 -1.93,-1.158 -3.43,0.115 -4.87,1.598 -3.322,3.421 -1.962,7.508 -1.854,11.409 C -1.194,-0.885 -0.374,-0.409 0,0" style="fill:#494f57;fill-opacity:1;fill-rule:nonzero;stroke:none" transform="matrix(1.3333333,0,0,-1.3333333,375.5044,3751.5255)" />
      <path id="path1118" d="M 0,0 C 3.8,-0.073 6.155,-0.463 5.503,-3.466 4.749,-6.936 2.456,-9.334 -1.3,-9.585 -3.437,-9.727 -5.391,-8.393 -4.976,-6.277 -4.328,-2.973 -2.399,-0.3 0,0" style="fill:#494f57;fill-opacity:1;fill-rule:nonzero;stroke:none" transform="matrix(1.3333333,0,0,-1.3333333,386.506,3206.4677)" />
      <path id="path1119" d="m 0,0 c -3.833,0.077 -5.28,1.981 -5.165,4.99 0.105,2.768 0.622,6.952 3.156,6.979 C 2.329,12.016 2.455,7.194 3.178,3.953 3.706,1.587 1.992,0.089 0,0" style="fill:#494f57;fill-opacity:1;fill-rule:nonzero;stroke:none" transform="matrix(1.3333333,0,0,-1.3333333,321.4624,2686.8675)" />
      <path id="path1120" d="M 0,0 C -2.812,-0.269 -4.092,0.717 -4.144,3.109 -4.228,6.962 -1.743,8.817 1.518,9.094 4.1,9.313 6.426,6.767 6.342,4.764 6.187,1.059 2.043,1.288 0,0" style="fill:#494f57;fill-opacity:1;fill-rule:nonzero;stroke:none" transform="matrix(1.3333333,0,0,-1.3333333,320.25933,2775.6089)" />
      <path id="path1121" d="M 0,0 C 2.468,-0.704 3.481,-1.939 3.275,-3.8 3.097,-5.417 2.683,-7.04 2.133,-8.574 1.326,-10.83 1.637,-15.154 -1.151,-14.583 -4.776,-13.84 -3.929,-9.529 -3.164,-6.741 -2.52,-4.393 -2.993,-0.96 0,0" style="fill:#494f57;fill-opacity:1;fill-rule:nonzero;stroke:none" transform="matrix(1.3333333,0,0,-1.3333333,290.99627,3288.0848)" />
      <path id="path1122" d="M 0,0 C -2.676,0.505 -4.028,2.283 -4.349,4.827 -4.638,7.123 -4.212,9.13 -1.287,9.367 1.324,9.579 2.747,8.419 2.867,5.783 2.978,3.368 2.933,1.002 0,0" style="fill:#494f57;fill-opacity:1;fill-rule:nonzero;stroke:none" transform="matrix(1.3333333,0,0,-1.3333333,318.63573,2748.6719)" />
      <path id="path1123" d="M 0,0 C 3.42,-0.389 3.263,-3.441 4.12,-5.679 4.709,-7.216 4.056,-8.758 2.502,-8.883 -0.346,-9.113 -1.511,-6.942 -1.937,-4.534 -2.252,-2.75 -2.492,-0.741 0,0" style="fill:#494f57;fill-opacity:1;fill-rule:nonzero;stroke:none" transform="matrix(1.3333333,0,0,-1.3333333,395.4136,2647.3889)" />
    </g></svg>