<?xml version='1.0' encoding='utf-8'?>
<svg xmlns="http://www.w3.org/2000/svg" version="1.1" width="235.875" height="293.767" viewBox="1954.470 3957.390 235.875 293.767"><defs id="defs1"><clipPath clipPathUnits="userSpaceOnUse" id="clipPath37">
      <path d="M 0,3370.3901 H 2383.9401 V -2.5000001e-5 H 0 Z" id="path37" />
    </clipPath>
  </defs><g id="object"><path id="path15" d="M 0,0 C 11.02,12.958 12.004,27.019 11.083,40.971 10.111,55.706 16.762,61.398 30.31,59.713 45.511,57.823 65.776,68.339 74.88,53.342 84.411,37.644 74.465,19.892 64.878,4.236 55.242,-11.501 48.488,-28.986 39.081,-44.883 26.228,-66.606 24.193,-88.244 32.02,-112.419 c 9.778,-30.201 3.461,-37.558 -27.831,-37.351 -50.112,0.331 -49.987,0.311 -42.066,51.225 2.389,15.358 1.306,30.806 -8.326,43.539 -16.77,22.168 -25.558,48.155 -37.006,72.895 -13.117,28.343 -4.665,41.868 26.357,42.045 6.733,0.038 13.514,-0.509 20.191,0.106 17.832,1.643 26.952,-4.244 24.895,-24.009 C -13.042,23.762 -11.279,11.247 0,0" style="fill:#d7bb98;fill-opacity:1;fill-rule:nonzero;stroke:none" transform="matrix(1.3333333,0,0,-1.3333333,2079.36,4045.4545)" />
      </g></svg>