<?xml version='1.0' encoding='utf-8'?>
<svg xmlns="http://www.w3.org/2000/svg" version="1.1" width="114.392" height="198.285" viewBox="328.230 2658.490 114.392 198.285"><defs id="defs1"><clipPath clipPathUnits="userSpaceOnUse" id="clipPath59">
      <path d="M 0,3370.3901 H 2383.9401 V -2.5000001e-5 H 0 Z" id="path59" />
    </clipPath>
  </defs><g id="object"><path id="path17" d="m 0,0 c -0.216,18.225 9.018,30.448 26.107,34.956 17.779,4.69 33.504,-0.664 42.593,-17.501 8.577,-15.887 7.13,-34.472 -8.811,-41.852 -29.521,-13.667 -13.76,-27.815 -4.308,-42.985 2.055,-3.298 4.874,-6.403 8.003,-8.692 7.389,-5.404 18.823,-10.333 10.013,-21.111 -8.957,-10.96 -25.487,-4.684 -28.902,2.148 C 29.079,-63.788 0.676,-38.271 0,0" style="fill:#ffffff;fill-opacity:1;fill-rule:nonzero;stroke:none" transform="matrix(1.3333333,0,0,-1.3333333,334.23533,2713.2635)" />
      </g></svg>