<?xml version='1.0' encoding='utf-8'?>
<svg xmlns="http://www.w3.org/2000/svg" version="1.1" width="179.382" height="103.726" viewBox="2364.380 4067.190 179.382 103.726"><g id="object"><path id="path92" d="m 0,0 c -4.803,-4.418 -1.759,-10.822 -4.27,-15.82 -1.08,-2.149 -0.978,-4.116 1.122,-5.571 1.881,-1.304 4.083,-1.395 6.012,-0.413 2.327,1.182 2.245,3.907 1.539,5.62 C 2.199,-10.84 2.948,-4.78 0,0 m -0.294,23.529 c 8.002,1.737 8.794,-4.62 9.884,-8.848 4.407,-17.09 8.148,-34.351 12.055,-51.568 0.58,-2.556 1.053,-5.779 -2.679,-6.058 -4.043,-0.303 -9.446,-1.489 -10.717,4.085 -1.078,4.728 -2.826,6.887 -7.778,7.15 -5.384,0.286 -7.866,-2.451 -9.018,-7.011 -1.597,-6.328 -6.583,-4.631 -10.345,-3.922 -4.055,0.764 -2.398,4.501 -1.812,7.062 3.939,17.217 7.959,34.416 12.072,51.592 1.086,4.538 2.41,9.183 8.338,7.518" style="fill:#494f57;fill-opacity:1;fill-rule:nonzero;stroke:none" transform="matrix(1.3333333,0,0,-1.3333333,2399.0981,4106.2669)" />
      <path id="path137" d="m 0,0 c 4.664,0.008 7.331,-1.524 7.637,-6.08 0.307,-4.579 -1.672,-6.143 -6.192,-6.486 -9.716,-0.736 -17.708,-11.538 -16.197,-21.997 1.54,-10.661 4.189,-20.773 17.676,-22.223 3.257,-0.351 4.856,-2.282 4.153,-6.003 -0.7,-3.707 -1.887,-6.281 -6.25,-5.982 -12.289,0.842 -21.363,6.976 -25.69,18.209 -6.763,17.558 -4.764,36.86 13.942,47.441 C -7.219,-1.027 -3.202,-1.185 0,0" style="fill:#494f57;fill-opacity:1;fill-rule:nonzero;stroke:none" transform="matrix(1.3333333,0,0,-1.3333333,2473.1945,4073.1891)" />
      <path id="path177" d="m 0,0 c 0.946,-0.038 1.913,0.03 2.835,-0.144 2.686,-0.509 5.976,-0.207 6.098,-4.37 0.117,-3.998 -1.561,-5.523 -5.74,-6.283 -12.304,-2.239 -16.756,-9.331 -16.508,-24.715 0.19,-11.814 6.384,-19.512 17.704,-21.046 3.629,-0.492 4.042,-2.096 4.273,-5.02 0.255,-3.238 -0.735,-4.897 -4.078,-5.205 -10.016,-0.921 -18.222,2.658 -24.141,10.559 -10.917,14.575 -8.79,37.143 4.33,50.004 C -10.422,-1.509 -6.523,0.083 0,0" style="fill:#494f57;fill-opacity:1;fill-rule:nonzero;stroke:none" transform="matrix(1.3333333,0,0,-1.3333333,2525.8449,4074.5672)" />
      </g></svg>