<?xml version='1.0' encoding='utf-8'?>
<svg xmlns="http://www.w3.org/2000/svg" version="1.1" width="236.108" height="236.047" viewBox="2902.810 4105.650 236.108 236.047"><g id="object"><path id="path6" d="m 0,0 c 1.586,37.749 -20.139,26.886 -32.685,29.619 -2.112,0.46 -6.264,-8.447 -9.474,-13.026 C -29.546,11.629 -16.934,6.665 0,0 m -70.57,40.05 c 1.899,-1.928 3.797,-3.855 5.696,-5.783 15.323,5.47 30.646,10.939 44.509,15.888 C -5.004,44.683 10.55,39.143 26.103,33.603 3.526,59.025 2.117,81.667 30.423,104.775 H -73.766 c 32.6,-23.887 31.907,-44.529 3.196,-64.725 m 50.118,108.793 c 47.663,0.615 85.15,-35.88 85.427,-83.166 0.274,-46.584 -38.085,-85.14 -84.425,-84.86 -45.639,0.276 -82.579,36.622 -83.63,82.285 -1.096,47.577 35.091,85.128 82.628,85.741" style="fill:#231916;fill-opacity:1;fill-rule:nonzero;stroke:none" transform="matrix(1.3333333,0,0,-1.3333333,3046.2852,4310.1215)" />
      <path id="path7" d="m 0,0 c 28.711,20.197 29.404,40.838 -3.197,64.725 h 104.19 C 72.687,41.617 74.096,18.975 96.672,-6.447 81.119,-0.907 65.566,4.633 50.205,10.105 36.342,5.157 21.018,-0.313 5.695,-5.782 3.797,-3.855 1.898,-1.928 0,0" style="fill:#ffffff;fill-opacity:1;fill-rule:nonzero;stroke:none" transform="matrix(1.3333333,0,0,-1.3333333,2952.1924,4256.7217)" />
      <path id="path8" d="m 0,0 c -16.934,6.665 -29.546,11.629 -42.159,16.593 3.21,4.579 7.362,13.486 9.474,13.026 C -20.139,26.886 1.586,37.749 0,0" style="fill:#ffffff;fill-opacity:1;fill-rule:nonzero;stroke:none" transform="matrix(1.3333333,0,0,-1.3333333,3046.2852,4310.1215)" />
    </g></svg>