<?xml version='1.0' encoding='utf-8'?>
<svg xmlns="http://www.w3.org/2000/svg" version="1.1" width="766.639" height="335.461" viewBox="74.326 512.909 766.639 335.461"><defs id="defs1"><clipPath clipPathUnits="userSpaceOnUse" id="clipPath8">
      <path d="M -1148.4961,2089.633 H 1235.444 v -3370.3901 h -2383.9401 z" id="path8" />
    </clipPath>
    <clipPath clipPathUnits="userSpaceOnUse" id="clipPath12">
      <path d="M -2389.6702,1124.431 H -5.7301751 V -2245.9591 H -2389.6702 Z" id="path12" />
    </clipPath>
  </defs><g id="object"><path id="path49" d="M 12.013163,-8.515625e-4 H 25.759256 V -42.66882 c 3.164063,0.785156 6.960938,0.949218 11.0625,0.949218 13.441406,0 25.289063,-3.949218 32.554688,-11.695312 5.378906,-5.53125 8.226562,-13.125 8.226562,-22.757813 0,-9.480468 -3.480469,-17.226562 -9.328125,-22.289062 -6.316406,-5.683591 -16.277344,-8.847661 -29.871094,-8.847661 -11.0625,0 -19.757812,0.94922 -26.390624,2.05079 z M 25.759256,-95.297727 c 2.378906,-0.632812 6.960938,-1.101562 12.960938,-1.101562 15.175781,0 25.125,6.785156 25.125,20.859375 0,14.695312 -10.113282,22.757812 -26.707032,22.757812 -4.582031,0 -8.378906,-0.316406 -11.378906,-1.113281 z m 131.487304,18.808594 h -13.89844 v 46.933594 c 0,2.53125 -0.48047,5.0625 -1.26562,7.113281 -2.53125,6.164063 -9.01172,12.6445314 -18.33985,12.6445314 -12.64453,0 -17.0625,-9.7968754 -17.0625,-24.3398434 V -76.489133 H 92.769998 v 44.71875 c 0,26.8710939 14.378902,33.5039064 26.390622,33.5039064 13.59375,0 21.65625,-8.0507812 25.28907,-14.2148434 h 0.3164 l 0.78516,12.4804684375 h 12.32812 C 157.41062,-6.0008516 157.24656,-12.961789 157.24656,-20.860227 Z M 191.69676,-8.515625e-4 192.32957,-12.645383 h 0.48047 c 5.68359,10.1132814 14.54297,14.3789064 25.60547,14.3789064 17.0625,0 34.28906,-13.5820314 34.28906,-40.9335934 0.16406,-23.226563 -13.27735,-39.035157 -32.23828,-39.035157 -12.32813,0 -21.17578,5.53125 -26.07422,14.074219 h -0.31641 v -48.046872 h -13.75781 v 92.449216 c 0,6.796875 -0.30469,14.5429687 -0.62109,19.7578124375 z M 194.07566,-44.414914 c 0,-2.203125 0.46875,-4.101563 0.78516,-5.683594 2.84765,-10.59375 11.69531,-17.074219 21.17578,-17.074219 14.85937,0 22.75781,13.125 22.75781,28.453125 0,17.542969 -8.68359,29.3906254 -23.22656,29.3906254 -10.11328,0 -18.17578,-6.6328124 -20.85938,-16.2773434 -0.3164,-1.582032 -0.63281,-3.316407 -0.63281,-5.050782 z m 76.16895,44.4140624375 h 13.91015 V -112.20788 h -13.91015 z m 51.20801,0 V -76.489133 H 307.54246 V -8.515625e-4 Z M 314.5034,-106.67663 c -5.0625,0 -8.69532,3.79687 -8.69532,8.69531 0,4.734375 3.48047,8.53125 8.37891,8.53125 5.53125,0 9.01172,-3.796875 8.84766,-8.53125 0,-4.89844 -3.31641,-8.69531 -8.53125,-8.69531 z m 82.18066,93.398435 c -3.94922,1.746093 -9.16406,3.7968747 -17.07422,3.7968747 -15.16406,0 -26.54297,-10.9101567 -26.54297,-28.6054687 0,-15.960938 9.48047,-28.921875 27.02344,-28.921875 7.58203,0 12.79688,1.734375 16.11328,3.632812 l 3.16406,-10.746093 c -3.79687,-1.898438 -11.0625,-3.949219 -19.27734,-3.949219 -24.97266,0 -41.09766,17.0625 -41.09766,40.617187 0,23.390625 15.02344,39.0351567 38.09766,39.0351567 10.26563,0 18.32813,-2.53125001 21.96094,-4.4296875 z M 429.23582,-8.515625e-4 V -76.489133 H 415.32566 V -8.515625e-4 Z M 422.2866,-106.67663 c -5.0625,0 -8.69531,3.79687 -8.69531,8.69531 0,4.734375 3.48047,8.53125 8.3789,8.53125 5.53125,0 9.01172,-3.796875 8.84766,-8.53125 0,-4.89844 -3.31641,-8.69531 -8.53125,-8.69531 z m 33.18457,11.847653 v 18.339844 h -11.84766 v 10.582031 h 11.84766 v 41.730469 c 0,9 1.42969,15.7968752 5.37891,19.9101564 3.3164,3.79687504 8.53125,5.8476563 15.01172,5.8476563 5.36718,0 9.64453,-0.79687501 12.32812,-1.89843751 L 487.55711,-10.746945 c -1.73438,0.46875 -4.42969,0.9492184 -8.0625,0.9492184 -7.7461,0 -10.42969,-5.3789064 -10.42969,-14.8593754 v -41.25 h 19.91016 v -10.582031 h -19.91016 v -21.972656 z m 40.44141,18.339844 28.28906,70.4882814 c 0.63281,1.734375 0.94922,2.8359375 0.94922,3.6328125 0,0.7851563 -0.46875,1.89843754 -1.10156,3.31640629 -3.16407,7.11328121 -7.89844,12.48046881 -11.69532,15.49218781 -4.11328,3.46875 -8.69531,5.683593 -12.17578,6.785156 l 3.48047,11.695312 c 3.48047,-0.632812 10.27734,-3 17.07422,-9 9.48047,-8.226562 16.27734,-21.6562496 26.22656,-47.894531 l 20.8711,-54.515625 h -14.70704 l -15.16406,44.882813 c -1.89844,5.53125 -3.48047,11.378906 -4.89844,15.960937 h -0.3164 c -1.26563,-4.582031 -3.16406,-10.59375 -4.89844,-15.644531 l -16.75781,-45.199219 z m 0,0" style="fill:#009944;fill-opacity:1;fill-rule:nonzero;stroke:none" aria-label="Publicity" transform="matrix(1.3333333,0,0,1.3333333,74.9512,670.52067)" />
      <path id="path50" d="m 0,0 h 13.75 v 42.671 c 3.16,-0.79 6.953,-0.948 11.062,-0.948 13.434,0 25.287,3.951 32.557,11.694 5.373,5.532 8.218,13.118 8.218,22.759 0,9.482 -3.477,17.226 -9.325,22.283 -6.322,5.69 -16.278,8.851 -29.869,8.851 C 15.33,107.31 6.638,106.361 0,105.255 Z m 13.75,95.298 c 2.37,0.633 6.953,1.107 12.958,1.107 15.172,0 25.129,-6.796 25.129,-20.862 0,-14.697 -10.114,-22.757 -26.709,-22.757 -4.583,0 -8.376,0.316 -11.378,1.106 z" style="fill:none;stroke:#009944;stroke-width:3;stroke-linecap:butt;stroke-linejoin:miter;stroke-miterlimit:10;stroke-dasharray:none;stroke-opacity:1" transform="matrix(1.3333333,0,0,-1.3333333,90.966133,670.52067)" />
      <path id="path51" d="m 0,0 h -13.908 v -46.938 c 0,-2.529 -0.474,-5.058 -1.264,-7.112 -2.529,-6.163 -9.008,-12.643 -18.333,-12.643 -12.643,0 -17.068,9.798 -17.068,24.338 V 0 H -64.48 v -44.726 c 0,-26.866 14.381,-33.504 26.392,-33.504 13.591,0 21.651,8.06 25.287,14.224 h 0.316 l 0.79,-12.486 H 0.632 C 0.158,-70.486 0,-63.532 0,-55.63 Z" style="fill:none;stroke:#009944;stroke-width:3;stroke-linecap:butt;stroke-linejoin:miter;stroke-miterlimit:10;stroke-dasharray:none;stroke-opacity:1" transform="matrix(1.3333333,0,0,-1.3333333,284.61787,568.53173)" />
      <path id="path52" d="M 0,0 0.632,12.643 H 1.106 C 6.795,2.529 15.646,-1.738 26.708,-1.738 c 17.069,0 34.295,13.591 34.295,40.932 C 61.162,62.426 47.728,78.23 28.763,78.23 16.436,78.23 7.586,72.699 2.687,64.165 H 2.371 v 48.044 h -13.75 V 19.755 c 0,-6.796 -0.316,-14.54 -0.632,-19.755 z m 2.371,44.409 c 0,2.213 0.474,4.11 0.79,5.69 2.844,10.589 11.694,17.068 21.177,17.068 14.856,0 22.758,-13.117 22.758,-28.447 0,-17.543 -8.692,-29.396 -23.232,-29.396 -10.114,0 -18.175,6.638 -20.862,16.279 -0.315,1.58 -0.631,3.318 -0.631,5.057 z" style="fill:none;stroke:#009944;stroke-width:3;stroke-linecap:butt;stroke-linejoin:miter;stroke-miterlimit:10;stroke-dasharray:none;stroke-opacity:1" transform="matrix(1.3333333,0,0,-1.3333333,330.554,670.52067)" />
      <path id="path53" d="M 0,0 H 13.907 V 112.209 H 0 Z" style="fill:none;stroke:#009944;stroke-width:3;stroke-linecap:butt;stroke-linejoin:miter;stroke-miterlimit:10;stroke-dasharray:none;stroke-opacity:1" transform="matrix(1.3333333,0,0,-1.3333333,435.27933,670.52067)" />
      <path id="path54" d="M 0,0 V 76.492 H -13.907 V 0 Z m -6.954,106.677 c -5.057,0 -8.692,-3.793 -8.692,-8.692 0,-4.741 3.477,-8.534 8.376,-8.534 5.532,0 9.009,3.793 8.851,8.534 0,4.899 -3.319,8.692 -8.535,8.692 z" style="fill:none;stroke:#009944;stroke-width:3;stroke-linecap:butt;stroke-linejoin:miter;stroke-miterlimit:10;stroke-dasharray:none;stroke-opacity:1" transform="matrix(1.3333333,0,0,-1.3333333,503.5508,670.52067)" />
      <path id="path55" d="m 0,0 c -3.951,-1.738 -9.167,-3.793 -17.068,-3.793 -15.172,0 -26.551,10.905 -26.551,28.605 0,15.962 9.482,28.922 27.025,28.922 7.586,0 12.801,-1.738 16.12,-3.635 l 3.161,10.747 c -3.793,1.896 -11.063,3.951 -19.281,3.951 -24.971,0 -41.091,-17.069 -41.091,-40.617 0,-23.39 15.014,-39.036 38.088,-39.036 10.272,0 18.332,2.529 21.968,4.425 z" style="fill:none;stroke:#009944;stroke-width:3;stroke-linecap:butt;stroke-linejoin:miter;stroke-miterlimit:10;stroke-dasharray:none;stroke-opacity:1" transform="matrix(1.3333333,0,0,-1.3333333,603.8528,652.82013)" />
      <path id="path56" d="M 0,0 V 76.492 H -13.907 V 0 Z m -6.954,106.677 c -5.057,0 -8.692,-3.793 -8.692,-8.692 0,-4.741 3.477,-8.534 8.376,-8.534 5.532,0 9.009,3.793 8.851,8.534 0,4.899 -3.319,8.692 -8.535,8.692 z" style="fill:none;stroke:#009944;stroke-width:3;stroke-linecap:butt;stroke-linejoin:miter;stroke-miterlimit:10;stroke-dasharray:none;stroke-opacity:1" transform="matrix(1.3333333,0,0,-1.3333333,647.2604,670.52067)" />
      <path id="path57" d="M 0,0 V -18.333 H -11.853 V -28.921 H 0 v -41.723 c 0,-9.008 1.422,-15.804 5.374,-19.913 3.318,-3.793 8.534,-5.848 15.013,-5.848 5.374,0 9.641,0.791 12.327,1.897 l -0.632,10.43 c -1.738,-0.474 -4.425,-0.948 -8.06,-0.948 -7.744,0 -10.431,5.374 -10.431,14.856 v 41.249 h 19.913 v 10.588 H 13.591 V 3.635 Z" style="fill:none;stroke:#009944;stroke-width:3;stroke-linecap:butt;stroke-linejoin:miter;stroke-miterlimit:10;stroke-dasharray:none;stroke-opacity:1" transform="matrix(1.3333333,0,0,-1.3333333,682.23893,544.0884)" />
      <path id="path58" d="m 0,0 28.289,-70.486 c 0.632,-1.739 0.948,-2.845 0.948,-3.635 0,-0.79 -0.474,-1.897 -1.106,-3.319 -3.161,-7.112 -7.902,-12.485 -11.695,-15.488 -4.109,-3.477 -8.692,-5.689 -12.169,-6.796 l 3.477,-11.694 c 3.477,0.631 10.273,3.002 17.068,9.008 9.483,8.218 16.278,21.651 26.235,47.886 L 71.909,0 H 57.21 L 42.039,-44.884 c -1.897,-5.531 -3.477,-11.379 -4.899,-15.962 h -0.317 c -1.264,4.583 -3.16,10.589 -4.899,15.646 L 15.172,0 Z" style="fill:none;stroke:#009944;stroke-width:3;stroke-linecap:butt;stroke-linejoin:miter;stroke-miterlimit:10;stroke-dasharray:none;stroke-opacity:1" transform="matrix(1.3333333,0,0,-1.3333333,736.17973,568.53173)" />
      <path id="path59" d="M 66.540506,-0.00131406 C 65.591287,-5.2161578 65.274881,-11.696627 65.274881,-18.329439 v -28.605469 c 0,-15.328125 -5.695312,-31.300781 -29.085937,-31.300781 -9.632813,0 -18.808594,2.695312 -25.125,6.796875 l 3.164062,9.175781 c 5.367188,-3.480469 12.796875,-5.695312 19.910156,-5.695312 15.644532,0 17.378907,11.378906 17.378907,17.695312 v 1.582031 C 21.9741,-48.833345 5.5326937,-38.720064 5.5326937,-20.227877 c 0,11.0625004 7.8984373,21.9609379 23.3906253,21.9609379 10.898437,0 19.125,-5.3671875 23.390625,-11.3789062 h 0.46875 l 1.113281,9.64453124 z M 51.833475,-25.759127 c 0,1.417969 -0.316406,3 -0.785156,4.417969 -2.214844,6.480469 -8.53125,12.8085939 -18.492188,12.8085939 -7.113281,0 -13.113281,-4.2656249 -13.113281,-13.2773439 0,-14.859375 17.226562,-17.542969 32.390625,-17.226562 z M 87.707498,-0.00131406 H 101.61765 V -45.985689 c 0,-2.378906 0.31641,-4.746094 0.94922,-6.480469 2.36719,-7.746094 9.48047,-14.226562 18.65625,-14.226562 13.11328,0 17.69532,10.277343 17.69532,22.59375 v 44.09765594 h 13.91015 V -45.669283 c 0,-26.238281 -16.4414,-32.566406 -27.02344,-32.566406 -12.64453,0 -21.49218,7.113281 -25.28906,14.390625 h -0.3164 L 99.402811,-76.489595 H 87.086405 c 0.46875,6.316406 0.621093,12.796875 0.621093,20.695312 z M 227.57957,-112.20835 v 45.667973 h -0.31641 c -3.48047,-6.164062 -11.3789,-11.695312 -23.07422,-11.695312 -18.64453,0 -34.45312,15.65625 -34.30078,41.097656 0,23.226563 14.22656,38.8710939 32.71875,38.8710939 12.48047,0 21.8086,-6.4804687 26.07422,-15.0117189 h 0.31641 l 0.63281,13.27734394 h 12.49219 C 241.64207,-5.2161578 241.48972,-12.962252 241.48972,-19.759127 v -92.449223 z m 0,80.121098 c 0,2.214844 -0.16406,4.113282 -0.63281,6.011719 -2.53125,10.429688 -11.0625,16.5937502 -20.39063,16.5937502 -15.01172,0 -22.59375,-12.8085942 -22.59375,-28.2890622 0,-16.910157 8.53125,-29.554688 22.91016,-29.554688 10.42968,0 18.02343,7.265625 20.07422,16.125 0.46875,1.734375 0.63281,4.101563 0.63281,5.847656 z m 0,0" style="fill:#009944;fill-opacity:1;fill-rule:nonzero;stroke:none" aria-label="and " transform="matrix(1.3333333,0,0,1.3333333,74.9512,838.05253)" />
      <path id="path60" d="m 0,0 c -0.948,5.215 -1.264,11.695 -1.264,18.333 v 28.605 c 0,15.33 -5.69,31.292 -29.08,31.292 -9.64,0 -18.807,-2.687 -25.128,-6.795 l 3.16,-9.167 c 5.374,3.477 12.802,5.69 19.914,5.69 15.646,0 17.384,-11.379 17.384,-17.701 v -1.581 c -29.553,0.158 -45.99,-9.956 -45.99,-28.447 0,-11.062 7.902,-21.967 23.39,-21.967 10.905,0 19.123,5.373 23.39,11.379 h 0.474 L -12.644,0 Z m -14.698,25.761 c 0,-1.423 -0.316,-3.003 -0.79,-4.426 -2.213,-6.479 -8.534,-12.801 -18.491,-12.801 -7.112,0 -13.117,4.267 -13.117,13.276 0,14.856 17.226,17.542 32.398,17.226 z" style="fill:none;stroke:#009944;stroke-width:3;stroke-linecap:butt;stroke-linejoin:miter;stroke-miterlimit:10;stroke-dasharray:none;stroke-opacity:1" transform="matrix(1.3333333,0,0,-1.3333333,163.66467,838.05253)" />
      <path id="path61" d="m 0,0 h 13.907 v 45.99 c 0,2.37 0.317,4.741 0.948,6.479 2.371,7.744 9.483,14.224 18.649,14.224 13.118,0 17.701,-10.273 17.701,-22.6 V 0 h 13.908 v 45.674 c 0,26.235 -16.437,32.556 -27.026,32.556 -12.643,0 -21.493,-7.112 -25.286,-14.381 h -0.316 l -0.79,12.643 H -0.632 C -0.158,70.17 0,63.69 0,55.788 Z" style="fill:none;stroke:#009944;stroke-width:3;stroke-linecap:butt;stroke-linejoin:miter;stroke-miterlimit:10;stroke-dasharray:none;stroke-opacity:1" transform="matrix(1.3333333,0,0,-1.3333333,191.9004,838.05253)" />
      <path id="path62" d="m 0,0 v -45.674 h -0.316 c -3.477,6.164 -11.379,11.695 -23.074,11.695 -18.649,0 -34.453,-15.646 -34.295,-41.09 0,-23.232 14.224,-38.878 32.714,-38.878 12.486,0 21.81,6.479 26.077,15.013 h 0.316 l 0.633,-13.275 H 14.54 c -0.475,5.215 -0.632,12.959 -0.632,19.755 l 0,92.454 z m 0,-80.127 c 0,-2.212 -0.158,-4.109 -0.632,-6.005 -2.529,-10.431 -11.063,-16.595 -20.388,-16.595 -15.013,0 -22.599,12.802 -22.599,28.289 0,16.911 8.534,29.554 22.915,29.554 10.431,0 18.017,-7.27 20.072,-16.12 C -0.158,-62.742 0,-65.113 0,-66.852 Z" style="fill:none;stroke:#009944;stroke-width:3;stroke-linecap:butt;stroke-linejoin:miter;stroke-miterlimit:10;stroke-dasharray:none;stroke-opacity:1" transform="matrix(1.3333333,0,0,-1.3333333,378.38667,688.44053)" />
      </g></svg>