<?xml version='1.0' encoding='utf-8'?>
<svg xmlns="http://www.w3.org/2000/svg" version="1.1" width="3036.950" height="206.520" viewBox="78.328 147.688 3036.950 206.520"><defs id="defs1"><clipPath clipPathUnits="userSpaceOnUse" id="clipPath4">
      <path d="M 122.5624,2051.5417 H 2506.5025 V -1318.8484 H 122.5624 Z" id="path4" />
    </clipPath>
    <clipPath clipPathUnits="userSpaceOnUse" id="clipPath6">
      <path d="M -503.42171,2051.917 H 1880.5183 V -1318.4731 H -503.42171 Z" id="path6" />
    </clipPath>
  </defs><g id="object"><path id="path34" d="M 50.884241,-30.573575 H 31.700647 v 6.046875 h 11.835937 v 17.3554687 c -1.722656,0.8671875 -5.097656,1.5585938 -10.019531,1.5585938 -13.558594,0 -22.464844,-8.7304685 -22.464844,-23.4960935 0,-14.601563 9.246094,-23.414063 23.414063,-23.414063 5.871094,0 9.761719,1.125 12.867187,2.507813 l 1.816407,-6.128907 c -2.507813,-1.207031 -7.769532,-2.683593 -14.507813,-2.683593 -19.523437,0 -31.4414061,12.703125 -31.5351561,30.058593 0,9.070313 3.1171875,16.851563 8.1210941,21.6914067 5.707031,5.4375 12.960937,7.68750005 21.773437,7.68750005 7.851563,0 14.507813,-1.99218755 17.882813,-3.19921875 z M 62.107873,6.4375e-4 h 7.511719 V -22.288419 c 0,-1.289062 0.175781,-2.496094 0.351563,-3.539062 1.03125,-5.695313 4.839843,-9.761719 10.195312,-9.761719 1.03125,0 1.804688,0.09375 2.589844,0.257812 v -7.171875 c -0.691406,-0.164062 -1.300781,-0.257812 -2.167969,-0.257812 -5.085937,0 -9.667969,3.550781 -11.566406,9.164062 h -0.351563 l -0.257812,-8.214843 H 61.76803 c 0.257812,3.890625 0.339843,8.121093 0.339843,13.042968 z M 123.08639,-19.522794 c 0.0937,-0.773437 0.26953,-1.980469 0.26953,-3.539062 0,-7.6875 -3.63281,-19.699219 -17.28516,-19.699219 -12.175777,0 -19.605465,9.9375 -19.605465,22.546875 0,12.609375 7.6875,21.08203125 20.554685,21.08203125 6.65625,0 11.23828,-1.3828125 13.91016,-2.58984375 l -1.28906,-5.4492188 c -2.85938,1.2070313 -6.14063,2.15625 -11.57813,2.15625 -7.60547,0 -14.167967,-4.2304687 -14.343748,-14.5078127 z m -29.273438,-5.4375 c 0.597656,-5.273437 3.972656,-12.351562 11.660158,-12.351562 8.54297,0 10.61719,7.511718 10.53515,12.351562 z m 68.320308,-16.851562 -0.33984,6.316406 h -0.17578 c -1.81641,-3.457031 -5.78906,-7.265625 -13.04297,-7.265625 -9.58594,0 -18.83203,8.039062 -18.83203,22.207031 0,11.5664065 7.42969,20.3789065 17.80078,20.3789065 6.46875,0 10.96875,-3.1054688 13.30078,-6.9960938 h 0.16406 v 4.6640625 c 0,10.546875 -5.69531,14.6015628 -13.46484,14.6015628 -5.19141,0 -9.50391,-1.558594 -12.26953,-3.2812503 l -1.89844,5.7890623 c 3.36328,2.238281 8.89453,3.457031 13.89844,3.457031 5.27344,0 11.14453,-1.21875 15.21094,-5.015625 4.05468,-3.632812 5.95312,-9.5039058 5.95312,-19.0898433 V -30.315763 c 0,-5.097656 0.17578,-8.472656 0.35156,-11.496093 z m -1.20703,24.023437 c 0,1.289063 -0.17578,2.753906 -0.60937,4.054688 -1.64063,4.8398435 -5.8711,7.769531 -10.53516,7.769531 -8.20312,0 -12.35156,-6.820313 -12.35156,-15.023438 0,-9.679687 5.17969,-15.808593 12.44531,-15.808593 5.51953,0 9.23438,3.632812 10.61719,8.027343 0.35156,1.042969 0.43359,2.167969 0.43359,3.457032 z M -44.488806,83.616855 h 7.511719 V 61.421542 l 5.53125,-6.398437 19.183593,28.59375 h 8.8945315 L -26.090369,50.10123 -5.0083375,25.398105 h -9.3281245 l -17.800782,21.855468 c -1.464843,1.898438 -3.023437,3.972657 -4.570312,6.222657 h -0.269531 V 25.398105 h -7.511719 z m 55.03125,0 v -41.8125 H 2.936975 v 41.8125 z M 6.73385,25.316073 c -2.7539062,0 -4.7460937,2.0625 -4.7460937,4.746094 0,2.589844 1.8984375,4.664063 4.5820312,4.664063 3.0234375,0 4.9218755,-2.074219 4.8281255,-4.664063 0,-2.683594 -1.804688,-4.746094 -4.664063,-4.746094 z m 16.415039,58.300782 h 7.605469 V 58.480136 c 0,-1.300781 0.164062,-2.589844 0.515625,-3.539063 1.300781,-4.230468 5.179687,-7.78125 10.195312,-7.78125 7.171875,0 9.667969,5.625 9.667969,12.351563 v 24.105469 h 7.605469 V 58.655917 c 0,-14.34375 -8.988281,-17.800781 -14.777344,-17.800781 -6.902344,0 -11.742187,3.890625 -13.816406,7.863281 h -0.175781 l -0.421875,-6.914062 h -6.738282 c 0.257813,3.457031 0.339844,6.996093 0.339844,11.320312 z m 47.941406,0 h 7.605469 V 58.480136 c 0,-1.300781 0.164063,-2.589844 0.515625,-3.539063 1.300781,-4.230468 5.179688,-7.78125 10.195313,-7.78125 7.171875,0 9.667968,5.625 9.667968,12.351563 v 24.105469 h 7.60547 V 58.655917 c 0,-14.34375 -8.988282,-17.800781 -14.777345,-17.800781 -6.902343,0 -11.742187,3.890625 -13.816406,7.863281 h -0.175781 l -0.421875,-6.914062 h -6.738281 c 0.257812,3.457031 0.339843,6.996093 0.339843,11.320312 z M 152.62936,64.093417 c 0.0937,-0.773437 0.26953,-1.980469 0.26953,-3.539062 0,-7.6875 -3.63281,-19.699219 -17.28516,-19.699219 -12.17578,0 -19.60547,9.9375 -19.60547,22.546875 0,12.609375 7.6875,21.082031 20.55469,21.082031 6.65625,0 11.23828,-1.382812 13.91016,-2.589844 l -1.28906,-5.449218 c -2.85938,1.207031 -6.14063,2.15625 -11.57813,2.15625 -7.60547,0 -14.16797,-4.230469 -14.34375,-14.507813 z m -29.27344,-5.4375 c 0.59766,-5.273437 3.97266,-12.351562 11.66016,-12.351562 8.54297,0 10.61718,7.511718 10.53515,12.351562 z m 69.01172,24.960938 c -0.51563,-2.847657 -0.69141,-6.386719 -0.69141,-10.019532 V 57.964511 c 0,-8.378906 -3.10547,-17.109375 -15.89062,-17.109375 -5.27344,0 -10.27735,1.476562 -13.73438,3.714844 l 1.72266,5.015625 c 2.94141,-1.898438 6.99609,-3.117188 10.88672,-3.117188 8.55469,0 9.5039,6.222656 9.5039,9.679688 v 0.867187 c -16.14843,-0.09375 -25.13671,5.4375 -25.13671,15.550781 0,6.035157 4.32421,12 12.78515,12 5.95313,0 10.45313,-2.941406 12.78516,-6.222656 h 0.25781 l 0.60938,5.273438 z M 184.3403,69.542636 c 0,0.773437 -0.17579,1.640625 -0.4336,2.414062 -1.20703,3.539063 -4.66406,6.996094 -10.11328,6.996094 -3.87891,0 -7.16016,-2.332031 -7.16016,-7.253906 0,-8.121094 9.41016,-9.585938 17.70704,-9.421875 z m 19.60253,14.074219 h 7.51172 V 61.327792 c 0,-1.289062 0.17578,-2.496094 0.35157,-3.539062 1.03125,-5.695313 4.83984,-9.761719 10.19531,-9.761719 1.03125,0 1.80469,0.09375 2.58984,0.257812 v -7.171875 c -0.6914,-0.164062 -1.30078,-0.257812 -2.16797,-0.257812 -5.08593,0 -9.66797,3.550781 -11.5664,9.164062 h -0.35157 l -0.25781,-8.214843 h -6.64453 c 0.25781,3.890625 0.33984,8.121093 0.33984,13.042968 z M 436.65963,6.4375e-4 h 7.59375 V -51.831388 h 17.80078 v -6.386718 H 418.9526 v 6.386718 h 17.70703 z M 479.84322,-42.761075 c -11.57812,0 -20.73046,8.214844 -20.73046,22.207031 0,13.2070315 8.73046,21.5039065 20.03906,21.5039065 10.11328,0 20.82422,-6.7382813 20.82422,-22.1953125 0,-12.785156 -8.1211,-21.515625 -20.13282,-21.515625 z m -0.17578,5.707031 c 8.98828,0 12.52735,8.976563 12.52735,16.066406 0,9.410157 -5.4375,16.242188 -12.69141,16.242188 -7.42969,0 -12.70312,-6.914063 -12.70312,-16.066406 0,-7.957032 3.89062,-16.242188 12.86718,-16.242188 z M 509.55905,6.4375e-4 h 7.60546 V -25.136075 c 0,-1.300781 0.16407,-2.589844 0.51563,-3.539063 1.30078,-4.230468 5.17969,-7.78125 10.19531,-7.78125 7.17188,0 9.66797,5.625 9.66797,12.351563 V 6.4375e-4 h 7.60547 V -24.960294 c 0,-14.34375 -8.98828,-17.800781 -14.77734,-17.800781 -6.90235,0 -11.74219,3.890625 -13.81641,7.863281 h -0.17578 l -0.42188,-6.914062 h -6.73828 c 0.25781,3.457031 0.33985,6.996093 0.33985,11.320312 z m 55.54687,0 V -41.811856 h -7.60547 V 6.4375e-4 Z M 561.29733,-58.300138 c -2.75391,0 -4.7461,2.0625 -4.7461,4.746094 0,2.589844 1.89844,4.664063 4.58203,4.664063 3.02344,0 4.92188,-2.074219 4.82813,-4.664063 0,-2.683594 -1.80469,-4.746094 -4.66406,-4.746094 z m -160.667,134.053711 c -3.02343,1.476563 -7.6875,2.425782 -12.25781,2.425782 -14.16797,0 -22.38281,-9.164063 -22.38281,-23.414063 0,-15.292969 9.07031,-24.011719 22.72266,-24.011719 4.83984,0 8.89453,1.03125 11.7539,2.414063 l 1.80469,-6.128906 c -1.98047,-1.03125 -6.5625,-2.589844 -13.81641,-2.589844 -18.05859,0 -30.41015,12.351562 -30.41015,30.574219 0,19.089843 12.35156,29.460937 28.76953,29.460937 7.07812,0 12.60937,-1.382812 15.375,-2.765625 z m 27.47168,-34.898437 c -11.57812,0 -20.73046,8.214844 -20.73046,22.207031 0,13.207031 8.73046,21.503906 20.03906,21.503906 10.11328,0 20.82422,-6.738281 20.82422,-22.195312 0,-12.785156 -8.1211,-21.515625 -20.13282,-21.515625 z m -0.17578,5.707031 c 8.98828,0 12.52735,8.976563 12.52735,16.066406 0,9.410157 -5.4375,16.242188 -12.69141,16.242188 -7.42969,0 -12.70312,-6.914063 -12.70312,-16.066406 0,-7.957032 3.89062,-16.242188 12.86718,-16.242188 z m 29.8916,37.054688 h 7.60547 V 22.292636 h -7.60547 z m 20.38477,0 h 7.60547 V 22.292636 h -7.60547 z m 53.98535,-19.523438 c 0.0937,-0.773437 0.26953,-1.980469 0.26953,-3.539062 0,-7.6875 -3.63281,-19.699219 -17.28515,-19.699219 -12.17578,0 -19.60547,9.9375 -19.60547,22.546875 0,12.609375 7.6875,21.082031 20.55469,21.082031 6.65625,0 11.23828,-1.382812 13.91015,-2.589844 l -1.28906,-5.449218 c -2.85938,1.207031 -6.14063,2.15625 -11.57813,2.15625 -7.60546,0 -14.16796,-4.230469 -14.34375,-14.507813 z m -29.27344,-5.4375 c 0.59766,-5.273437 3.97266,-12.351562 11.66016,-12.351562 8.54297,0 10.61719,7.511718 10.53516,12.351562 z m 40.68457,-26.871094 v 10.019532 h -6.48046 v 5.789062 h 6.48046 v 22.804688 c 0,4.921875 0.77344,8.636718 2.92969,10.886718 1.81641,2.074219 4.66406,3.199219 8.20313,3.199219 2.9414,0 5.27343,-0.433594 6.73828,-1.042969 l -0.33985,-5.695312 c -0.94921,0.257812 -2.42578,0.515625 -4.40625,0.515625 -4.23046,0 -5.70703,-2.941406 -5.70703,-8.121094 V 47.593417 h 10.88672 v -5.789062 h -10.88672 v -12 z m 28.59375,0 v 10.019532 h -6.48046 v 5.789062 h 6.48046 v 22.804688 c 0,4.921875 0.77344,8.636718 2.92969,10.886718 1.81641,2.074219 4.66406,3.199219 8.20313,3.199219 2.9414,0 5.27343,-0.433594 6.73828,-1.042969 l -0.33985,-5.695312 c -0.94921,0.257812 -2.42578,0.515625 -4.40625,0.515625 -4.23046,0 -5.70703,-2.941406 -5.70703,-8.121094 V 47.593417 h 10.88672 V 41.804355 H 579.6108 v -12 z m 59.93555,32.308594 c 0.0937,-0.773437 0.26953,-1.980469 0.26953,-3.539062 0,-7.6875 -3.63281,-19.699219 -17.28515,-19.699219 -12.17579,0 -19.60547,9.9375 -19.60547,22.546875 0,12.609375 7.6875,21.082031 20.55468,21.082031 6.65625,0 11.23829,-1.382812 13.91016,-2.589844 l -1.28906,-5.449218 c -2.85938,1.207031 -6.14063,2.15625 -11.57813,2.15625 -7.60547,0 -14.16797,-4.230469 -14.34375,-14.507813 z m -29.27344,-5.4375 c 0.59766,-5.273437 3.97266,-12.351562 11.66016,-12.351562 8.54297,0 10.61719,7.511718 10.53516,12.351562 z M 809.91061,-2.8470125 c 3.10547,2.07421875 9.23437,3.71484375 14.84765,3.71484375 13.73438,0 20.39063,-7.78125005 20.39063,-16.75781225 0,-8.554688 -5.01563,-13.300782 -14.85938,-17.109375 -8.02734,-3.105469 -11.57812,-5.789063 -11.57812,-11.226563 0,-3.972656 3.02344,-8.71875 10.98047,-8.71875 5.26172,0 9.15234,1.722656 11.05078,2.753906 l 2.07422,-6.128906 c -2.58985,-1.464844 -6.91406,-2.847656 -12.86719,-2.847656 -11.32031,0 -18.83203,6.738281 -18.83203,15.808594 0,8.203125 5.87109,13.125 15.375,16.5 7.86328,3.023437 10.96875,6.128906 10.96875,11.566406 0,5.8828125 -4.48828,9.9375 -12.17578,9.9375 -5.19141,0 -10.11328,-1.7226563 -13.47656,-3.796875 z m 46.73437,-48.9843755 v 10.019532 h -6.48047 v 5.789062 h 6.48047 v 22.804688 c 0,4.9218747 0.77344,8.6367185 2.92969,10.8867185 1.81641,2.07421875 4.66406,3.19921875 8.20313,3.19921875 2.9414,0 5.27343,-0.43359375 6.73828,-1.04296875 L 874.17623,-5.87045 c -0.94922,0.2578125 -2.42578,0.515625 -4.40625,0.515625 -4.23047,0 -5.70703,-2.9414063 -5.70703,-8.121094 v -22.546875 h 10.88672 v -5.789062 h -10.88672 v -12 z m 59.93555,32.308594 c 0.0937,-0.773437 0.26953,-1.980469 0.26953,-3.539062 0,-7.6875 -3.63281,-19.699219 -17.28516,-19.699219 -12.17578,0 -19.60546,9.9375 -19.60546,22.546875 0,12.609375 7.6875,21.08203125 20.55468,21.08203125 6.65625,0 11.23828,-1.3828125 13.91016,-2.58984375 l -1.28906,-5.4492188 c -2.85938,1.2070313 -6.14063,2.15625 -11.57813,2.15625 -7.60547,0 -14.16797,-4.2304687 -14.34375,-14.5078127 z m -29.27344,-5.4375 c 0.59766,-5.273437 3.97266,-12.351562 11.66016,-12.351562 8.54297,0 10.61719,7.511718 10.53515,12.351562 z m 33.77344,-16.851562 15.89062,41.81249975 h 7.25391 L 960.64303,-41.811856 h -7.94531 l -8.1211,23.496093 c -1.38281,3.808594 -2.58984,7.265625 -3.53906,10.710938 h -0.26953 c -0.85547,-3.445313 -1.98047,-6.902344 -3.36328,-10.710938 l -8.20313,-23.496093 z m 79.46187,22.289062 c 0.094,-0.773437 0.2696,-1.980469 0.2696,-3.539062 0,-7.6875 -3.63284,-19.699219 -17.28518,-19.699219 -12.17578,0 -19.60547,9.9375 -19.60547,22.546875 0,12.609375 7.6875,21.08203125 20.55469,21.08203125 6.65625,0 11.23828,-1.3828125 13.91015,-2.58984375 l -1.28906,-5.4492188 c -2.85937,1.2070313 -6.14062,2.15625 -11.57812,2.15625 -7.60547,0 -14.16797,-4.2304687 -14.34375,-14.5078127 z m -29.27339,-5.4375 c 0.59765,-5.273437 3.97265,-12.351562 11.66015,-12.351562 8.54297,0 10.61719,7.511718 10.53516,12.351562 z M 849.46432,75.753573 c -3.02344,1.476563 -7.6875,2.425782 -12.25781,2.425782 -14.16797,0 -22.38282,-9.164063 -22.38282,-23.414063 0,-15.292969 9.07032,-24.011719 22.72266,-24.011719 4.83984,0 8.89453,1.03125 11.75391,2.414063 l 1.80468,-6.128906 c -1.98047,-1.03125 -6.5625,-2.589844 -13.8164,-2.589844 -18.0586,0 -30.41016,12.351562 -30.41016,30.574219 0,19.089843 12.35156,29.460937 28.76953,29.460937 7.07813,0 12.60938,-1.382812 15.375,-2.765625 z m 40.16894,7.863282 c -0.51562,-2.847657 -0.6914,-6.386719 -0.6914,-10.019532 V 57.964511 c 0,-8.378906 -3.10547,-17.109375 -15.89063,-17.109375 -5.27343,0 -10.27734,1.476562 -13.73437,3.714844 l 1.72265,5.015625 c 2.94141,-1.898438 6.9961,-3.117188 10.88672,-3.117188 8.55469,0 9.50391,6.222656 9.50391,9.679688 v 0.867187 c -16.14844,-0.09375 -25.13672,5.4375 -25.13672,15.550781 0,6.035157 4.32422,12 12.78516,12 5.95312,0 10.45312,-2.941406 12.78515,-6.222656 h 0.25782 l 0.60937,5.273438 z m -8.02734,-14.074219 c 0,0.773437 -0.17578,1.640625 -0.43359,2.414062 -1.20703,3.539063 -4.66407,6.996094 -10.11328,6.996094 -3.87891,0 -7.16016,-2.332031 -7.16016,-7.253906 0,-8.121094 9.41016,-9.585938 17.70703,-9.421875 z m 19.60254,14.074219 h 7.51172 V 61.327792 c 0,-1.289062 0.17578,-2.496094 0.35156,-3.539062 1.03125,-5.695313 4.83984,-9.761719 10.19531,-9.761719 1.03125,0 1.80469,0.09375 2.58985,0.257812 v -7.171875 c -0.69141,-0.164062 -1.30078,-0.257812 -2.16797,-0.257812 -5.08594,0 -9.66797,3.550781 -11.56641,9.164062 h -0.35156 l -0.25781,-8.214843 h -6.64453 c 0.25781,3.890625 0.33984,8.121093 0.33984,13.042968 z M 962.1899,64.093417 c 0.0937,-0.773437 0.26954,-1.980469 0.26954,-3.539062 0,-7.6875 -3.63282,-19.699219 -17.28516,-19.699219 -12.17578,0 -19.60547,9.9375 -19.60547,22.546875 0,12.609375 7.6875,21.082031 20.55469,21.082031 6.65625,0 11.23828,-1.382812 13.91015,-2.589844 l -1.28906,-5.449218 c -2.85937,1.207031 -6.14062,2.15625 -11.57812,2.15625 -7.60547,0 -14.16797,-4.230469 -14.34375,-14.507813 z m -29.27343,-5.4375 c 0.59765,-5.273437 3.97265,-12.351562 11.66015,-12.351562 8.54297,0 10.61719,7.511718 10.53516,12.351562 z m 38.95312,24.960938 h 7.60547 V 22.292636 h -7.60547 z m 20.38477,0 h 7.60547 V 22.292636 h -7.60547 z M 1236.7104,6.4375e-4 h 7.5117 V -23.319669 c 1.7344,0.433594 3.8086,0.515625 6.0469,0.515625 7.3477,0 13.8281,-2.15625 17.8008,-6.386719 2.9297,-3.023437 4.4883,-7.171875 4.4883,-12.445312 0,-5.179688 -1.8985,-9.410156 -5.0977,-12.175781 -3.457,-3.105469 -8.8945,-4.839844 -16.3242,-4.839844 -6.0469,0 -10.793,0.515625 -14.4258,1.125 z M 1244.2221,-52.0892 c 1.3008,-0.339844 3.8086,-0.597656 7.0899,-0.597656 8.2968,0 13.7343,3.714843 13.7343,11.402343 0,8.027344 -5.5312,12.433594 -14.6015,12.433594 -2.5078,0 -4.5703,-0.175781 -6.2227,-0.609375 z m 66,52.08984375 c -0.5156,-2.84765625 -0.6914,-6.38671875 -0.6914,-10.01953175 V -25.6517 c 0,-8.378906 -3.1054,-17.109375 -15.8906,-17.109375 -5.2734,0 -10.2773,1.476562 -13.7344,3.714844 l 1.7227,5.015625 c 2.9414,-1.898438 6.9961,-3.117188 10.8867,-3.117188 8.5547,0 9.5039,6.222656 9.5039,9.679688 v 0.867187 c -16.1484,-0.09375 -25.1367,5.4375 -25.1367,15.550781 0,6.0351567 4.3242,12.0000005 12.7851,12.0000005 5.9532,0 10.4532,-2.9414063 12.7852,-6.2226563 h 0.2578 l 0.6094,5.27343755 z m -8.0273,-14.07421875 c 0,0.773437 -0.1758,1.640625 -0.4336,2.414062 -1.207,3.539063 -4.6641,6.9960942 -10.1133,6.9960942 -3.8789,0 -7.1601,-2.3320312 -7.1601,-7.2539062 0,-8.121094 9.4101,-9.585938 17.707,-9.421875 z m 54.583,-27.738281 h -7.5938 v 25.664062 c 0,1.382813 -0.2578,2.753906 -0.6914,3.878906 -1.3828,3.3750005 -4.9218,6.914063 -10.0195,6.914063 -6.9141,0 -9.3281,-5.355469 -9.3281,-13.300781 v -23.15625 h -7.6055 v 24.445312 c 0,14.683594 7.8633,18.3164065 14.4258,18.3164065 7.4297,0 11.8359,-4.40625 13.8164,-7.7695313 h 0.1758 l 0.4336,6.82031255 h 6.7383 C 1356.8715,-3.2806063 1356.7778,-7.0774813 1356.7778,-11.4017 Z M 1369.393,6.4375e-4 h 7.6055 V -61.323575 h -7.6055 z M 1216.1528,83.441073 c 3.8086,0.433594 8.2969,0.691407 13.6523,0.691407 11.3086,0 20.2969,-2.929688 25.7344,-8.378907 5.4492,-5.355468 8.3789,-13.125 8.3789,-22.628906 0,-9.410156 -3.0234,-16.148437 -8.2031,-20.90625 -5.0977,-4.746094 -12.7852,-7.253906 -23.5781,-7.253906 -5.9649,0 -11.4024,0.515625 -15.9844,1.207031 z m 7.5117,-51.738281 c 1.9922,-0.433594 4.9336,-0.773437 8.8125,-0.773437 15.9024,0 23.6719,8.71875 23.5899,22.453125 0,15.726562 -8.7305,24.703125 -24.7969,24.703125 -2.9297,0 -5.6953,-0.08203 -7.6055,-0.433594 z m 79.8193,51.914063 c -0.5156,-2.847657 -0.6914,-6.386719 -0.6914,-10.019532 V 57.964511 c 0,-8.378906 -3.1054,-17.109375 -15.8906,-17.109375 -5.2734,0 -10.2773,1.476562 -13.7344,3.714844 l 1.7227,5.015625 c 2.9414,-1.898438 6.9961,-3.117188 10.8867,-3.117188 8.5547,0 9.5039,6.222656 9.5039,9.679688 v 0.867187 c -16.1484,-0.09375 -25.1367,5.4375 -25.1367,15.550781 0,6.035157 4.3242,12 12.7852,12 5.9531,0 10.4531,-2.941406 12.7851,-6.222656 h 0.2578 l 0.6094,5.273438 z m -8.0273,-14.074219 c 0,0.773437 -0.1758,1.640625 -0.4336,2.414062 -1.207,3.539063 -4.6641,6.996094 -10.1133,6.996094 -3.8789,0 -7.1601,-2.332031 -7.1601,-7.253906 0,-8.121094 9.4101,-9.585938 17.707,-9.421875 z m 19.6025,14.074219 h 7.6055 V 58.480136 c 0,-1.300781 0.1641,-2.589844 0.5156,-3.539063 1.3008,-4.230468 5.1797,-7.78125 10.1954,-7.78125 7.1718,0 9.6679,5.625 9.6679,12.351563 v 24.105469 h 7.6055 V 58.655917 c 0,-14.34375 -8.9883,-17.800781 -14.7774,-17.800781 -6.9023,0 -11.7421,3.890625 -13.8164,7.863281 h -0.1757 l -0.4219,-6.914062 h -6.7383 c 0.2578,3.457031 0.3398,6.996093 0.3398,11.320312 z m 65.6485,-42.761719 c -11.5781,0 -20.7305,8.214844 -20.7305,22.207031 0,13.207031 8.7305,21.503906 20.0391,21.503906 10.1133,0 20.8242,-6.738281 20.8242,-22.195312 0,-12.785156 -8.1211,-21.515625 -20.1328,-21.515625 z m -0.1758,5.707031 c 8.9883,0 12.5273,8.976563 12.5273,16.066406 0,9.410157 -5.4375,16.242188 -12.6914,16.242188 -7.4296,0 -12.7031,-6.914063 -12.7031,-16.066406 0,-7.957032 3.8906,-16.242188 12.8672,-16.242188 z m 252.5801,-64.87793 6.2226,18.31640675 h 8.0391 l -19.875,-58.21874975 h -9.0703 L 1598.6469,6.4375e-4 h 7.7813 l 6.0469,-18.31640675 z m -19.0899,-5.871093 5.7071,-16.839844 c 1.125,-3.539063 2.0742,-7.089844 2.9297,-10.535156 h 0.1757 c 0.8672,3.363281 1.7344,6.820312 3.0235,10.617187 l 5.707,16.757813 z m 47.6016,24.18749975 0.3398,-6.91406255 h 0.2579 c 3.1171,5.53125 7.957,7.8632813 13.9921,7.8632813 9.3399,0 18.75,-7.4296875 18.75,-22.3710935 0.082,-12.703125 -7.2539,-21.339844 -17.625,-21.339844 -6.7382,0 -11.5664,3.023437 -14.25,7.6875 h -0.1757 v -26.25 h -7.5118 v 50.53125 c 0,3.7148437 -0.1757,7.9453125 -0.3398,10.79296875 z m 1.2891,-24.26953175 c 0,-1.207031 0.2578,-2.25 0.4336,-3.117187 1.5585,-5.777344 6.3984,-9.328125 11.5781,-9.328125 8.1211,0 12.4336,7.171875 12.4336,15.550781 0,9.585938 -4.7461,16.0664065 -12.6914,16.0664065 -5.5313,0 -9.9375,-3.6210938 -11.4024,-8.8945315 -0.1758,-0.867187 -0.3515,-1.816406 -0.3515,-2.765625 z M 1712.1577,6.4375e-4 V -41.811856 h -7.6055 V 6.4375e-4 Z m -3.8086,-58.30078175 c -2.7539,0 -4.7461,2.0625 -4.7461,4.746094 0,2.589844 1.8984,4.664063 4.582,4.664063 3.0235,0 4.9219,-2.074219 4.8281,-4.664063 0,-2.683594 -1.8046,-4.746094 -4.664,-4.746094 z m 45.7822,16.488282 -0.3398,6.316406 h -0.1758 c -1.8164,-3.457031 -5.7891,-7.265625 -13.043,-7.265625 -9.5859,0 -18.832,8.039062 -18.832,22.207031 0,11.5664065 7.4297,20.3789065 17.8008,20.3789065 6.4687,0 10.9687,-3.1054688 13.3007,-6.9960938 h 0.1641 v 4.6640625 c 0,10.546875 -5.6953,14.6015628 -13.4648,14.6015628 -5.1914,0 -9.5039,-1.558594 -12.2696,-3.2812503 l -1.8984,5.7890623 c 3.3633,2.238281 8.8945,3.457031 13.8984,3.457031 5.2735,0 11.1446,-1.21875 15.211,-5.015625 4.0547,-3.632812 5.9531,-9.5039058 5.9531,-19.0898433 V -30.315763 c 0,-5.097656 0.1758,-8.472656 0.3516,-11.496093 z m -1.207,24.023437 c 0,1.289063 -0.1758,2.753906 -0.6094,4.054688 -1.6406,4.8398435 -5.8711,7.769531 -10.5352,7.769531 -8.2031,0 -12.3515,-6.820313 -12.3515,-15.023438 0,-9.679687 5.1797,-15.808593 12.4453,-15.808593 5.5195,0 9.2344,3.632812 10.6172,8.027343 0.3515,1.042969 0.4336,2.167969 0.4336,3.457032 z m 50.1855,17.78906275 c -0.5156,-2.84765625 -0.6914,-6.38671875 -0.6914,-10.01953175 V -25.6517 c 0,-8.378906 -3.1054,-17.109375 -15.8906,-17.109375 -5.2734,0 -10.2773,1.476562 -13.7344,3.714844 l 1.7227,5.015625 c 2.9414,-1.898438 6.9961,-3.117188 10.8867,-3.117188 8.5547,0 9.5039,6.222656 9.5039,9.679688 v 0.867187 c -16.1484,-0.09375 -25.1367,5.4375 -25.1367,15.550781 0,6.0351567 4.3242,12.0000005 12.7851,12.0000005 5.9532,0 10.4532,-2.9414063 12.7852,-6.2226563 h 0.2578 l 0.6094,5.27343755 z m -8.0273,-14.07421875 c 0,0.773437 -0.1758,1.640625 -0.4336,2.414062 -1.207,3.539063 -4.6641,6.9960942 -10.1133,6.9960942 -3.8789,0 -7.1601,-2.3320312 -7.1601,-7.2539062 0,-8.121094 9.4101,-9.585938 17.707,-9.421875 z M 1822.2934,6.4375e-4 V -41.811856 h -7.6054 V 6.4375e-4 Z m -3.8086,-58.30078175 c -2.7539,0 -4.7461,2.0625 -4.7461,4.746094 0,2.589844 1.8985,4.664063 4.5821,4.664063 3.0234,0 4.9218,-2.074219 4.8281,-4.664063 0,-2.683594 -1.8047,-4.746094 -4.6641,-4.746094 z m 16.4151,58.30078175 h 7.6054 V -61.323575 h -7.6054 z M 1609.185,83.441073 c 2.5078,0.351563 6.4805,0.691407 11.6602,0.691407 9.5039,0 16.0664,-1.722657 20.1328,-5.4375 2.9297,-2.847657 4.9219,-6.65625 4.9219,-11.660157 0,-8.636718 -6.4805,-13.21875 -12.0118,-14.601562 V 52.25748 c 6.1407,-2.238282 9.8555,-7.160157 9.8555,-12.785157 0,-4.570312 -1.8164,-8.027343 -4.8398,-10.277343 -3.6328,-2.929688 -8.4727,-4.230469 -15.9844,-4.230469 -5.2617,0 -10.4531,0.515625 -13.7344,1.207031 z m 7.5117,-52.171875 c 1.2188,-0.257812 3.1993,-0.515625 6.6563,-0.515625 7.6055,0 12.7851,2.671875 12.7851,9.503907 0,5.613281 -4.664,9.761718 -12.6093,9.761718 h -6.8321 z m 0,24.445313 h 6.2227 c 8.2031,0 15.0352,3.28125 15.0352,11.226562 0,8.472657 -7.1719,11.320313 -14.9415,11.320313 -2.6835,0 -4.8398,-0.08203 -6.3164,-0.339844 z m 39.0498,27.902344 h 7.5118 V 61.327792 c 0,-1.289062 0.1757,-2.496094 0.3515,-3.539062 1.0313,-5.695313 4.8399,-9.761719 10.1953,-9.761719 1.0313,0 1.8047,0.09375 2.5899,0.257812 v -7.171875 c -0.6914,-0.164062 -1.3008,-0.257812 -2.168,-0.257812 -5.0859,0 -9.668,3.550781 -11.5664,9.164062 h -0.3516 l -0.2578,-8.214843 h -6.6445 c 0.2578,3.890625 0.3398,8.121093 0.3398,13.042968 z m 60.9786,-19.523438 c 0.094,-0.773437 0.2695,-1.980469 0.2695,-3.539062 0,-7.6875 -3.6328,-19.699219 -17.2852,-19.699219 -12.1757,0 -19.6054,9.9375 -19.6054,22.546875 0,12.609375 7.6875,21.082031 20.5547,21.082031 6.6562,0 11.2382,-1.382812 13.9101,-2.589844 l -1.2891,-5.449218 c -2.8593,1.207031 -6.1406,2.15625 -11.5781,2.15625 -7.6054,0 -14.1679,-4.230469 -14.3437,-14.507813 z m -29.2735,-5.4375 c 0.5977,-5.273437 3.9727,-12.351562 11.6602,-12.351562 8.5429,0 10.6172,7.511718 10.5351,12.351562 z m 36.0117,22.96875 c 2.9414,1.734375 7.1719,2.859375 11.7539,2.859375 9.9375,0 15.6329,-5.191406 15.6329,-12.527344 0,-6.222656 -3.7149,-9.84375 -10.9688,-12.609375 -5.4375,-2.074218 -7.9453,-3.632812 -7.9453,-7.089843 0,-3.105469 2.5078,-5.695313 6.9961,-5.695313 3.8906,0 6.9141,1.382813 8.5547,2.414063 l 1.8984,-5.53125 c -2.332,-1.371094 -6.0469,-2.589844 -10.2773,-2.589844 -8.9883,0 -14.4258,5.53125 -14.4258,12.269531 0,5.015625 3.5391,9.152344 11.0508,11.835938 5.6133,2.074218 7.7812,4.054687 7.7812,7.6875 0,3.457031 -2.6015,6.222656 -8.1211,6.222656 -3.8086,0 -7.7812,-1.558594 -10.0195,-3.023438 z m 37.1485,1.992188 h 7.6054 V 22.292636 h -7.6054 z m 27.9931,0 v -41.8125 h -7.6054 v 41.8125 z m -3.8086,-58.300782 c -2.7539,0 -4.746,2.0625 -4.746,4.746094 0,2.589844 1.8984,4.664063 4.582,4.664063 3.0234,0 4.9219,-2.074219 4.8281,-4.664063 0,-2.683594 -1.8047,-4.746094 -4.6641,-4.746094 z m 16.4151,58.300782 h 7.6055 V 58.480136 c 0,-1.300781 0.164,-2.589844 0.5156,-3.539063 1.3008,-4.230468 5.1797,-7.78125 10.1953,-7.78125 7.1719,0 9.668,5.625 9.668,12.351563 v 24.105469 h 7.6054 V 58.655917 c 0,-14.34375 -8.9882,-17.800781 -14.7773,-17.800781 -6.9024,0 -11.7422,3.890625 -13.8164,7.863281 h -0.1758 l -0.4219,-6.914062 h -6.7383 c 0.2579,3.457031 0.3399,6.996093 0.3399,11.320312 z m 288.7676,-101.932618 6.2226,18.31640675 h 8.0391 l -19.875,-58.21874975 h -9.0703 L 2055.5141,6.4375e-4 h 7.7813 l 6.0468,-18.31640675 z m -19.0899,-5.871093 5.7071,-16.839844 c 1.125,-3.539063 2.0742,-7.089844 2.9296,-10.535156 h 0.1758 c 0.8672,3.363281 1.7344,6.820312 3.0235,10.617187 l 5.707,16.757813 z M 2112.268,6.4375e-4 h 7.6055 V -61.323575 h -7.6055 z m 50.4463,0 c -0.5156,-2.84765625 -0.6914,-6.38671875 -0.6914,-10.01953175 V -25.6517 c 0,-8.378906 -3.1055,-17.109375 -15.8906,-17.109375 -5.2735,0 -10.2774,1.476562 -13.7344,3.714844 l 1.7227,5.015625 c 2.9414,-1.898438 6.9961,-3.117188 10.8867,-3.117188 8.5547,0 9.5039,6.222656 9.5039,9.679688 v 0.867187 c -16.1484,-0.09375 -25.1367,5.4375 -25.1367,15.550781 0,6.0351567 4.3242,12.0000005 12.7851,12.0000005 5.9532,0 10.4532,-2.9414063 12.7852,-6.2226563 h 0.2578 l 0.6094,5.27343755 z M 2154.687,-14.073575 c 0,0.773437 -0.1758,1.640625 -0.4336,2.414062 -1.2071,3.539063 -4.6641,6.9960942 -10.1133,6.9960942 -3.8789,0 -7.1602,-2.3320312 -7.1602,-7.2539062 0,-8.121094 9.4102,-9.585938 17.7071,-9.421875 z m 19.6025,14.07421875 h 7.6055 V -25.136075 c 0,-1.300781 0.164,-2.589844 0.5156,-3.539063 1.3008,-4.230468 5.1797,-7.78125 10.1953,-7.78125 7.1719,0 9.668,5.625 9.668,12.351563 V 6.4375e-4 h 7.6055 V -24.960294 c 0,-14.34375 -8.9883,-17.800781 -14.7774,-17.800781 -6.9023,0 -11.7422,3.890625 -13.8164,7.863281 h -0.1758 l -0.4218,-6.914062 h -6.7383 c 0.2578,3.457031 0.3398,6.996093 0.3398,11.320312 z m -98.7363,65.29980425 6.2226,18.316407 h 8.0391 l -19.875,-58.21875 h -9.0703 l -19.7813,58.21875 h 7.7813 l 6.0469,-18.316407 z m -19.0899,-5.871093 5.7071,-16.839844 c 1.125,-3.539063 2.0742,-7.089844 2.9297,-10.535156 h 0.1757 c 0.8672,3.363281 1.7344,6.820312 3.0235,10.617187 l 5.707,16.757813 z m 41.3789,24.1875 h 7.5118 V 61.327792 c 0,-1.289062 0.1757,-2.496094 0.3515,-3.539062 1.0313,-5.695313 4.8399,-9.761719 10.1953,-9.761719 1.0313,0 1.8047,0.09375 2.5899,0.257812 v -7.171875 c -0.6914,-0.164062 -1.3008,-0.257812 -2.168,-0.257812 -5.0859,0 -9.668,3.550781 -11.5664,9.164062 h -0.3516 l -0.2578,-8.214843 h -6.6445 c 0.2578,3.890625 0.3398,8.121093 0.3398,13.042968 z m 36.1055,-61.324219 h -7.5117 v 61.324219 h 7.5117 V 67.890292 l 3.8906,-4.3125 14.4258,20.039063 h 9.2461 l -18.3984,-24.621094 16.1484,-17.191406 h -9.1523 l -12.2696,14.425781 c -1.207,1.476562 -2.6718,3.28125 -3.7148,4.757812 h -0.1758 z m 42.0733,61.324219 v -41.8125 h -7.6055 v 41.8125 z m -3.8086,-58.300782 c -2.7539,0 -4.7461,2.0625 -4.7461,4.746094 0,2.589844 1.8984,4.664063 4.582,4.664063 3.0234,0 4.9219,-2.074219 4.8281,-4.664063 0,-2.683594 -1.8047,-4.746094 -4.664,-4.746094 z m 16.4179,58.300782 h 7.6055 V 58.480136 c 0,-1.300781 0.1641,-2.589844 0.5156,-3.539063 1.3008,-4.230468 5.1797,-7.78125 10.1953,-7.78125 7.1719,0 9.668,5.625 9.668,12.351563 v 24.105469 h 7.6055 V 58.655917 c 0,-14.34375 -8.9883,-17.800781 -14.7774,-17.800781 -6.9023,0 -11.7422,3.890625 -13.8164,7.863281 h -0.1758 l -0.4218,-6.914062 h -6.7383 c 0.2578,3.457031 0.3398,6.996093 0.3398,11.320312 z m 0,0" style="fill:#231916;fill-opacity:1;fill-rule:nonzero;stroke:none" aria-label="Greg&#10;Kinnear&#10;Toni&#10;Collette&#10;Steve&#10;Carell&#10;Paul&#10;Dano&#10;Abigail&#10;Breslin&#10;Alan&#10;Arkin" transform="matrix(1.3333333,0,0,1.3333333,143.64653,235.45227)" />
      </g></svg>