<?xml version='1.0' encoding='utf-8'?>
<svg xmlns="http://www.w3.org/2000/svg" version="1.1" width="467.397" height="616.547" viewBox="707.148 996.360 467.397 616.547"><g id="object"><path id="path63" d="M 0,0 C 0.428,35.634 20.549,54.29 57.928,53.708 92.964,53.164 111.299,33.64 110.487,-2.258 109.694,-37.303 90.566,-55.248 54.403,-54.874 19.419,-54.512 -0.414,-34.506 0,0 m 223.638,18.105 c -3.68,60.487 -41.347,105.612 -100.871,119.33 -15.444,3.559 -31.573,4.148 -50.189,6.448 29.575,50.818 58.415,100.372 89.849,154.383 -21.316,0 -38.054,-2.531 -53.74,0.457 C 53.185,309.295 22.066,285.685 -2.601,236.162 -31.417,178.307 -70.187,125.459 -103.742,69.897 c -19.582,-32.424 -18.712,-112.951 6.22,-148.881 41.766,-60.191 99.564,-74.778 165.749,-73.092 104.721,2.668 161.759,65.838 155.411,170.181" style="fill:#231916;fill-opacity:1;fill-rule:nonzero;stroke:none" transform="matrix(1.3333333,0,0,-1.3333333,869.72267,1403.9676)" />
      </g></svg>