<?xml version='1.0' encoding='utf-8'?>
<svg xmlns="http://www.w3.org/2000/svg" version="1.1" width="428.973" height="45.406" viewBox="2165.830 1580.800 428.973 45.406"><g id="object"><path id="path47" d="m 19.043011,-3.2820437 c -1.253906,0.6210937 -3.199219,1.0078125 -5.109375,1.0078125 -5.9062501,0 -9.3281251,-3.8085938 -9.3281251,-9.7499998 0,-6.375 3.7851563,-10.007813 9.4687501,-10.007813 2.015625,0 3.714844,0.433594 4.898437,1.007813 l 0.75,-2.554688 c -0.820312,-0.433593 -2.730468,-1.078125 -5.753906,-1.078125 -7.5234373,0 -12.6679686,5.144532 -12.6679686,12.738282 0,7.9570308 5.1445313,12.2812495 11.9882816,12.2812495 2.941406,0 5.25,-0.57421875 6.398437,-1.16015625 z m 4.567383,3.28124995 h 3.140625 V -10.512512 h 2.953125 c 2.835937,0.105468 4.136719,1.3710933 4.851562,4.710937 0.691407,3.0234375 1.230469,5.12109375 1.628907,5.80078125 h 3.234375 c -0.503907,-0.9375 -1.078125,-3.28124995 -1.875,-6.65624995 -0.574219,-2.5195313 -1.6875,-4.2539063 -3.5625,-4.8984373 v -0.105469 c 2.554687,-0.867187 4.570312,-2.988281 4.570312,-6.199219 0,-1.863281 -0.679687,-3.527343 -1.898437,-4.605468 -1.511719,-1.371094 -3.679688,-1.980469 -7.03125,-1.980469 -2.15625,0 -4.417969,0.175781 -6.011719,0.503906 z M 26.751019,-21.739075 c 0.503906,-0.152344 1.582031,-0.292969 3.09375,-0.292969 3.316406,0.03516 5.578125,1.40625 5.578125,4.535157 0,2.777343 -2.121094,4.605468 -5.472656,4.605468 h -3.199219 z m 26.167969,-2.917969 c -6.480469,0 -11.261719,5.039063 -11.261719,12.738282 0,7.3476558 4.5,12.31640575 10.898437,12.31640575 6.199219,0 11.273438,-4.42968745 11.273438,-12.78515575 0,-7.195313 -4.289063,-12.269532 -10.910156,-12.269532 z m -0.140625,2.554688 c 5.214843,0 7.734375,5.039062 7.734375,9.867187 0,5.5078128 -2.800782,10.0781253 -7.769532,10.0781253 -4.933593,0 -7.746093,-4.6523438 -7.746093,-9.8320313 0,-5.332031 2.589843,-10.113281 7.78125,-10.113281 z m 31.423828,18.8203123 c -1.253907,0.6210937 -3.199219,1.0078125 -5.109375,1.0078125 -5.90625,0 -9.328125,-3.8085938 -9.328125,-9.7499998 0,-6.375 3.785156,-10.007813 9.46875,-10.007813 2.015625,0 3.714843,0.433594 4.898437,1.007813 l 0.75,-2.554688 c -0.820312,-0.433593 -2.730469,-1.078125 -5.753906,-1.078125 -7.523438,0 -12.667969,5.144532 -12.667969,12.738282 0,7.9570308 5.144531,12.2812495 11.988281,12.2812495 2.941407,0 5.25,-0.57421875 6.398438,-1.16015625 z M 97.845745,-24.657044 c -6.480468,0 -11.261718,5.039063 -11.261718,12.738282 0,7.3476558 4.5,12.31640575 10.898437,12.31640575 6.199216,0 11.273436,-4.42968745 11.273436,-12.78515575 0,-7.195313 -4.28906,-12.269532 -10.910155,-12.269532 z m -0.140625,2.554688 c 5.21484,0 7.73438,5.039062 7.73438,9.867187 0,5.5078128 -2.80079,10.0781253 -7.769536,10.0781253 -4.933594,0 -7.746094,-4.6523438 -7.746094,-9.8320313 0,-5.332031 2.589844,-10.113281 7.78125,-10.113281 z m 15.11426,22.03124975 c 1.59375,0.17578125 3.45703,0.28125 5.69531,0.28125 4.71094,0 8.46094,-1.21874995 10.72266,-3.49218745 2.27343,-2.2265625 3.49218,-5.4609375 3.49218,-9.4218753 0,-3.925781 -1.2539,-6.738281 -3.42187,-8.71875 -2.12109,-1.980468 -5.32031,-3.023437 -9.82031,-3.023437 -2.48438,0 -4.75782,0.222656 -6.66797,0.503906 z M 115.96,-21.633606 c 0.82032,-0.1875 2.05078,-0.328125 3.66797,-0.328125 6.6211,0 9.86719,3.632812 9.83203,9.363281 0,6.5507813 -3.64453,10.2890625 -10.33593,10.2890625 -1.21875,0 -2.37891,-0.035156 -3.16407,-0.1757812 z m 20.83301,-2.636719 V -7.9375e-4 h 3.14063 V -24.270325 Z m 8.60449,24.26953125 h 13.5 V -2.6257937 H 148.53813 V -24.270325 H 145.3975 Z M 174.96391,-13.969544 h -9.43359 v -7.664062 h 9.97265 v -2.636719 H 162.38969 V -7.9375e-4 h 13.65234 V -2.6257937 H 165.53032 V -11.3797 h 9.43359 z m 12.77051,13.89843775 c 1.59375,0.17578125 3.45703,0.28125 5.69531,0.28125 4.71094,0 8.46094,-1.21874995 10.72266,-3.49218745 2.27343,-2.2265625 3.49218,-5.4609375 3.49218,-9.4218753 0,-3.925781 -1.2539,-6.738281 -3.42187,-8.71875 -2.1211,-1.980468 -5.32031,-3.023437 -9.82031,-3.023437 -2.48438,0 -4.75782,0.222656 -6.66797,0.503906 z m 3.14062,-21.56249975 c 0.82031,-0.1875 2.05078,-0.328125 3.66797,-0.328125 6.62109,0 9.86719,3.632812 9.83203,9.363281 0,6.5507813 -3.64453,10.2890625 -10.33594,10.2890625 -1.21875,0 -2.3789,-0.035156 -3.16406,-0.1757812 z m 20.80078,-2.636719 V -9.97345 c 0,7.5234375 3.75,10.37109375 8.71875,10.37109375 5.25,0 9.17578,-3.05859375 9.17578,-10.51171875 v -14.15625 h -3.16406 v 14.3671875 c 0,5.3671875 -2.30859,7.7460938 -5.90625,7.7460938 -3.23437,0 -5.64844,-2.3085938 -5.64844,-7.7460938 V -24.270325 Z m 26.2793,24.26953125 V -10.371887 c 0,-4.03125 -0.0703,-6.949219 -0.24609,-10.007813 l 0.10547,-0.03516 c 1.23046,2.625 2.84765,5.402344 4.53515,8.097656 l 7.71094,12.31640625 h 3.16406 V -24.270325 h -2.95312 v 10.160156 c 0,3.773438 0.0703,6.7265628 0.36328,9.9726565 l -0.0703,0.035156 c -1.16016,-2.484375 -2.56641,-5.0390625 -4.35938,-7.8867185 l -7.78125,-12.28125 H 235.002 V -7.9375e-4 Z m 20.73633,-0.0703125 c 1.59375,0.17578125 3.45703,0.28125 5.69531,0.28125 4.71094,0 8.46094,-1.21874995 10.72266,-3.49218745 2.27343,-2.2265625 3.49218,-5.4609375 3.49218,-9.4218753 0,-3.925781 -1.2539,-6.738281 -3.42187,-8.71875 -2.12109,-1.980468 -5.32031,-3.023437 -9.82031,-3.023437 -2.48438,0 -4.75782,0.222656 -6.66797,0.503906 z m 3.14062,-21.56249975 c 0.82032,-0.1875 2.05078,-0.328125 3.66797,-0.328125 6.6211,0 9.86719,3.632812 9.83203,9.363281 0,6.5507813 -3.64453,10.2890625 -10.33593,10.2890625 -1.21875,0 -2.37891,-0.035156 -3.16407,-0.1757812 z m 33.40723,7.664062 h -9.43359 v -7.664062 h 9.97265 v -2.636719 H 282.66508 V -7.9375e-4 h 13.65235 V -2.6257937 H 285.80571 V -11.3797 h 9.43359 z m 17.71289,0 h -9.43359 v -7.664062 h 9.97265 v -2.636719 H 300.37797 V -7.9375e-4 h 13.65235 V -2.6257937 H 303.5186 V -11.3797 h 9.43359 z m 0,0" style="fill:#231916;fill-opacity:1;fill-rule:nonzero;stroke:none" aria-label="CROCODILE DUNDEE" transform="matrix(1.3333333,0,0,1.3333333,2170.0976,1619.6729)" />
    </g></svg>