<?xml version='1.0' encoding='utf-8'?>
<svg xmlns="http://www.w3.org/2000/svg" version="1.1" width="292.003" height="298.023" viewBox="1884.550 3566.660 292.003 298.023"><defs id="defs1"><clipPath clipPathUnits="userSpaceOnUse" id="clipPath37">
      <path d="M 0,3370.3901 H 2383.9401 V -2.5000001e-5 H 0 Z" id="path37" />
    </clipPath>
  </defs><g id="object"><path id="path3" d="m 0,0 c 8.676,-22.162 -4.912,-42.913 -4.159,-64.422 1.376,-39.29 -5.056,-78.805 5.861,-117.91 5.473,-19.605 -1.397,-30.35 -25.841,-29.559 -51.698,1.672 -51.416,0.223 -44.504,52.812 1.631,12.404 0.242,25.204 -3.275,38.879 -6.398,-23.388 -12.761,-46.787 -19.211,-70.161 -2.837,-10.283 -3.531,-24.314 -17.294,-24.155 -11.18,0.13 -10.729,13.184 -13.132,21.686 -6.985,24.71 -13.677,49.503 -22.331,73.836 -2.669,-18.682 -3.44,-36.427 1.597,-54.965 8.4,-30.909 2.365,-37.276 -28.668,-37.289 -2.528,-0.001 -5.114,0.355 -7.576,-0.048 -23.806,-3.897 -32.194,9.034 -26.072,28.935 11,35.757 4.126,71.92 6.633,107.785 1.148,16.42 -4.726,31.375 -7.257,47.026 -2.88,17.814 1.484,27.564 23.562,27.488 58.914,-0.203 58.911,0.86 73.855,-55.687 1.479,-5.599 3.094,-11.163 5.678,-20.455 13.295,18.737 13.463,38.161 17.999,55.727 3.822,14.802 10.338,21.104 26.059,20.199 19.303,-1.112 38.736,0.052 58.111,0.232 C 0.035,-0.045 0,0 0,0" style="fill:#d7bb98;fill-opacity:1;fill-rule:nonzero;stroke:none" transform="matrix(1.3333333,0,0,-1.3333333,2165.924,3572.6633)" />
      </g></svg>