<?xml version='1.0' encoding='utf-8'?>
<svg xmlns="http://www.w3.org/2000/svg" version="1.1" width="913.000" height="240.332" viewBox="291.438 3681.000 913.000 240.332"><defs id="defs1"><clipPath clipPathUnits="userSpaceOnUse" id="clipPath6">
      <path d="M 0,3370.3901 H 2383.9401 V -2.5000001e-5 H 0 Z" id="path6" />
    </clipPath>
  </defs><g id="object"><path id="path4" d="M 2.7290125,-0.00132031 H 16.229013 V -2.6263203 H 5.8696375 V -24.270852 H 2.7290125 Z M 32.216317,-17.427102 h -3.164062 v 10.6992192 c 0,0.5742187 -0.105469,1.1484375 -0.28125,1.6171875 -0.585938,1.40625 -2.0625,2.8828125 -4.183594,2.8828125 -2.882813,0 -3.890625,-2.2382813 -3.890625,-5.5546875 v -9.6445317 h -3.164063 v 10.1953129 c 0,6.1171875 3.28125,7.62890629 6.011719,7.62890629 3.09375,0 4.933594,-1.83984379 5.765625,-3.24609379 h 0.07031 l 0.175781,2.84765629 h 2.8125 C 32.251473,-1.3724141 32.216317,-2.9544453 32.216317,-4.7591328 Z m 15.700196,-8.132812 v 10.40625 H 47.8462 c -0.796875,-1.40625 -2.589844,-2.671875 -5.261719,-2.671875 -4.242187,0 -7.839843,3.5625 -7.804687,9.3632812 0,5.296875 3.234375,8.85937499 7.453125,8.85937499 2.835937,0 4.96875,-1.47656249 5.941406,-3.42187499 h 0.07031 l 0.140625,3.02343749 h 2.847656 C 51.115731,-1.1849141 51.080575,-2.9544453 51.080575,-4.5013203 V -25.559914 Z m 0,18.2460937 c 0,0.5039062 -0.03516,0.9375 -0.140625,1.3710937 -0.574219,2.3789063 -2.519532,3.7851563 -4.652344,3.7851563 -3.410156,0 -5.144531,-2.9179688 -5.144531,-6.4453125 0,-3.8554692 1.945312,-6.7382812 5.226562,-6.7382812 2.367188,0 4.101563,1.664062 4.570313,3.679687 0.105468,0.386719 0.140625,0.9375 0.140625,1.324219 z m 5.000976,-10.1132817 5.261719,17.42578169 h 2.882812 l 2.800782,-8.28515629 c 0.609375,-1.8632814 1.148437,-3.6679684 1.582031,-5.7539064 h 0.07031 c 0.433594,2.050781 0.9375,3.773438 1.558594,5.7187502 l 2.660156,8.32031249 h 2.882813 L 78.229989,-17.427102 h -3.128906 l -2.484375,8.7539067 c -0.574219,2.0507812 -1.042969,3.8789062 -1.335938,5.6484375 h -0.105468 c -0.398438,-1.7695313 -0.902344,-3.5976563 -1.546875,-5.6835938 l -2.707032,-8.7187504 h -2.660156 l -2.847656,8.8945317 c -0.574219,1.875 -1.148438,3.7382812 -1.546875,5.5078125 H 59.761239 C 59.433114,-4.8294453 58.964364,-6.6224141 58.460458,-8.5677266 L 56.163583,-17.427102 Z M 83.128427,-0.00132031 V -17.427102 H 79.952645 V -0.00132031 Z M 81.534677,-24.306008 c -1.148438,0 -1.980469,0.867188 -1.980469,1.980469 0,1.089844 0.796875,1.945312 1.910156,1.945312 1.265625,0 2.050781,-0.855468 2.015625,-1.945312 0,-1.113281 -0.75,-1.980469 -1.945312,-1.980469 z m 17.648437,6.878906 -0.152344,2.625 h -0.07031 c -0.75,-1.429687 -2.414063,-3.023437 -5.4375,-3.023437 -3.996094,0 -7.839844,3.351562 -7.839844,9.2578124 0,4.828125 3.09375,8.49609379 7.417969,8.49609379 2.695312,0 4.570312,-1.30078129 5.542969,-2.91796879 h 0.07031 v 1.9453125 c 0,4.3945313 -2.378906,6.0820313 -5.613281,6.0820313 -2.167969,0 -3.960938,-0.6445313 -5.121094,-1.3710938 l -0.785156,2.4140625 c 1.40625,0.9375 3.703125,1.4414063 5.789062,1.4414063 2.203125,0 4.652344,-0.5039063 6.339844,-2.0859375 1.687501,-1.5117188 2.484371,-3.9609375 2.484371,-7.9570313 V -12.634133 c 0,-2.132812 0.0703,-3.527344 0.14063,-4.792969 z m -0.503906,10.0078129 c 0,0.5390625 -0.07031,1.1484375 -0.257813,1.6992188 -0.679687,2.015625 -2.449218,3.234375 -4.394531,3.234375 -3.410156,0 -5.144531,-2.8476563 -5.144531,-6.2578125 0,-4.0429692 2.15625,-6.5976562 5.191406,-6.5976562 2.296875,0 3.84375,1.511719 4.417969,3.351562 0.152344,0.433594 0.1875,0.902344 0.1875,1.441407 z m 34.309572,7.41796879 h 3.05859 L 134.53565,-24.270852 h -3.99609 l -4.32422,11.742188 c -1.07812,3.0585937 -1.94531,5.7187499 -2.55469,8.1679687 h -0.10547 c -0.60937,-2.5195313 -1.4414,-5.1796875 -2.44921,-8.1679687 l -4.13672,-11.742188 h -3.9961 l -1.69922,24.26953169 h 2.98829 L 114.90675,-10.40757 c 0.22265,-3.632813 0.39843,-7.699219 0.46875,-10.722657 h 0.082 c 0.67969,2.871094 1.65234,6.011719 2.80078,9.433594 l 3.92578,11.55468769 h 2.37891 l 4.27734,-11.77734369 c 1.23047,-3.351563 2.23828,-6.375 3.05859,-9.210938 h 0.11719 c -0.0351,3.023438 0.17578,7.089844 0.35156,10.476563 z m 9.93457,0 V -17.427102 h -3.17578 V -0.00132031 Z M 141.3296,-24.306008 c -1.14844,0 -1.98047,0.867188 -1.98047,1.980469 0,1.089844 0.79687,1.945312 1.91016,1.945312 1.26562,0 2.05078,-0.855468 2.01562,-1.945312 0,-1.113281 -0.75,-1.980469 -1.94531,-1.980469 z m 19.40625,16.1718752 c 0.0351,-0.328125 0.10547,-0.8320313 0.10547,-1.4765625 0,-3.2109377 -1.51172,-8.2148437 -7.19532,-8.2148437 -5.07421,0 -8.16796,4.148437 -8.16796,9.3984374 0,5.2617188 3.19921,8.78906254 8.5664,8.78906254 2.76563,0 4.67578,-0.57421875 5.78906,-1.078125 l -0.53906,-2.27343754 c -1.18359,0.5039063 -2.55469,0.9023438 -4.8164,0.9023438 -3.17579,0 -5.90625,-1.7695313 -5.97657,-6.046875 z M 148.53663,-10.40757 c 0.24609,-2.191407 1.65234,-5.144532 4.86328,-5.144532 3.5625,0 4.41797,3.128907 4.38281,5.144532 z m 13.57324,9.57421844 c 1.21875,0.7265625 2.98828,1.1953125 4.89844,1.1953125 4.13672,0 6.51562,-2.16796874 6.51562,-5.22656254 0,-2.5898437 -1.54687,-4.1015625 -4.58203,-5.2500004 -2.26172,-0.867187 -3.30468,-1.511718 -3.30468,-2.953125 0,-1.300781 1.04296,-2.378906 2.91796,-2.378906 1.61719,0 2.8711,0.574219 3.5625,1.007813 l 0.78516,-2.296875 c -0.97266,-0.585938 -2.51953,-1.089844 -4.27734,-1.089844 -3.75,0 -6.01172,2.308594 -6.01172,5.121094 0,2.085937 1.47656,3.8085934 4.60547,4.9218747 2.34375,0.8671875 3.24609,1.6992187 3.24609,3.2109375 0,1.4414062 -1.08984,2.5898437 -3.38672,2.5898437 -1.58203,0 -3.24609,-0.6445312 -4.18359,-1.2539062 z m 18.07031,-16.59375044 6.6211,17.42578169 h 3.02344 l 6.84375,-17.42578169 h -3.31641 l -3.375,9.7968754 c -0.58594,1.5820313 -1.08984,3.0234375 -1.47656,4.4648438 h -0.11719 c -0.35156,-1.4414063 -0.82031,-2.8828125 -1.39453,-4.4648438 L 183.5669,-17.427102 Z M 210.5962,-0.00132031 C 210.38526,-1.1849141 210.31495,-2.6614766 210.31495,-4.1731953 V -10.68882 c 0,-3.492188 -1.30078,-7.136719 -6.63281,-7.136719 -2.19141,0 -4.27735,0.621094 -5.71875,1.546875 l 0.71484,2.097656 c 1.23047,-0.796875 2.91797,-1.300781 4.54688,-1.300781 3.5625,0 3.94921,2.589844 3.94921,4.03125 v 0.363281 c -6.72656,-0.03516 -10.46484,2.2617189 -10.46484,6.4804689 0,2.5195313 1.79297,5.00390629 5.32031,5.00390629 2.48438,0 4.35938,-1.23046875 5.33203,-2.58984379 h 0.10547 l 0.25782,2.19140629 z m -3.33984,-5.87109379 c 0,0.328125 -0.082,0.6914063 -0.1875,1.0078125 -0.50391,1.4765625 -1.94532,2.9179688 -4.20704,2.9179688 -1.61718,0 -2.98828,-0.9726563 -2.98828,-3.0234375 0,-3.3867188 3.92578,-3.9960938 7.38282,-3.9257813 z m 6.72363,5.87109379 h 3.17578 V -10.477883 c 0,-0.539062 0.0703,-1.078125 0.21094,-1.476562 0.53906,-1.757813 2.15625,-3.234375 4.2539,-3.234375 2.97657,0 4.03125,2.332031 4.03125,5.144531 v 10.04296869 h 3.16407 V -10.40757 c 0,-5.976563 -3.75,-7.417969 -6.15235,-7.417969 -2.88281,0 -4.89843,1.628906 -5.76562,3.28125 h -0.0703 l -0.17579,-2.882813 h -2.8125 c 0.10547,1.441407 0.14063,2.917969 0.14063,4.722657 z M 250.59522,-25.559914 v 10.40625 h -0.0703 c -0.79687,-1.40625 -2.58984,-2.671875 -5.26172,-2.671875 -4.24219,0 -7.83984,3.5625 -7.80469,9.3632812 0,5.296875 3.23438,8.85937499 7.45313,8.85937499 2.83594,0 4.96875,-1.47656249 5.94141,-3.42187499 h 0.0703 l 0.14062,3.02343749 h 2.84766 C 253.79444,-1.1849141 253.75929,-2.9544453 253.75929,-4.5013203 V -25.559914 Z m 0,18.2460937 c 0,0.5039062 -0.0352,0.9375 -0.14062,1.3710937 -0.57422,2.3789063 -2.51953,3.7851563 -4.65235,3.7851563 -3.41015,0 -5.14453,-2.9179688 -5.14453,-6.4453125 0,-3.8554692 1.94532,-6.7382812 5.22657,-6.7382812 2.36718,0 4.10156,1.664062 4.57031,3.679687 0.10547,0.386719 0.14062,0.9375 0.14062,1.324219 z m 20.98535,-0.8203125 c 0.0352,-0.328125 0.10547,-0.8320313 0.10547,-1.4765625 0,-3.2109377 -1.51172,-8.2148437 -7.19531,-8.2148437 -5.07422,0 -8.16797,4.148437 -8.16797,9.3984374 0,5.2617188 3.19922,8.78906254 8.56641,8.78906254 2.76562,0 4.67578,-0.57421875 5.78906,-1.078125 l -0.53906,-2.27343754 c -1.1836,0.5039063 -2.55469,0.9023438 -4.81641,0.9023438 -3.17578,0 -5.90625,-1.7695313 -5.97656,-6.046875 z M 259.38136,-10.40757 c 0.24609,-2.191407 1.65234,-5.144532 4.86328,-5.144532 3.5625,0 4.41797,3.128907 4.38281,5.144532 z m 14.79199,10.40624969 h 3.14062 V -9.2942891 c 0,-0.5390625 0.0703,-1.0429689 0.14063,-1.4765629 0.43359,-2.367187 2.01562,-4.066406 4.24219,-4.066406 0.43359,0 0.76171,0.03516 1.07812,0.117188 v -2.988282 c -0.28125,-0.08203 -0.53906,-0.117187 -0.89062,-0.117187 -2.13282,0 -4.03125,1.476562 -4.82813,3.820312 h -0.14062 l -0.10547,-3.421875 h -2.77735 c 0.10547,1.617188 0.14063,3.386719 0.14063,5.4375 z m 16.6289,0 h 3.14063 V -10.513039 h 2.95312 c 2.83594,0.105469 4.13672,1.3710937 4.85157,4.7109374 0.6914,3.0234375 1.23047,5.12109379 1.6289,5.80078129 h 3.23438 c -0.50391,-0.9375 -1.07813,-3.28124999 -1.875,-6.65624999 -0.57422,-2.5195313 -1.6875,-4.2539067 -3.5625,-4.8984377 v -0.105469 c 2.55469,-0.867187 4.57031,-2.988281 4.57031,-6.199218 0,-1.863282 -0.67969,-3.527344 -1.89844,-4.605469 -1.51172,-1.371094 -3.67968,-1.980469 -7.03125,-1.980469 -2.15625,0 -4.41797,0.175781 -6.01172,0.503906 z m 3.14063,-21.73828169 c 0.50391,-0.152343 1.58203,-0.292968 3.09375,-0.292968 3.31641,0.03516 5.57812,1.40625 5.57812,4.535156 0,2.777344 -2.12109,4.605469 -5.47265,4.605469 h -3.19922 z m 22.20996,3.914063 c -4.82812,0 -8.63672,3.421875 -8.63672,9.2578124 0,5.5078125 3.63281,8.96484379 8.34375,8.96484379 4.21875,0 8.6836,-2.81249999 8.6836,-9.25781249 0,-5.3203127 -3.38672,-8.9648437 -8.39063,-8.9648437 z m -0.0703,2.378906 c 3.73828,0 5.21484,3.75 5.21484,6.7031252 0,3.9140625 -2.26172,6.7617187 -5.28515,6.7617187 -3.09375,0 -5.29688,-2.8828125 -5.29688,-6.6914062 0,-3.3164067 1.61719,-6.7734377 5.36719,-6.7734377 z m 11.00976,15.44531269 h 3.17578 V -10.513039 c 0,-0.609375 0.0352,-1.078125 0.21094,-1.511719 0.57422,-1.734375 2.19141,-3.164062 4.25391,-3.164062 2.97656,0 4.03125,2.367187 4.03125,5.179687 v 10.00781269 h 3.16406 V -10.372414 c 0,-6.011719 -3.75,-7.453125 -6.08203,-7.453125 -1.19531,0 -2.30859,0.363281 -3.24609,0.902344 -0.97266,0.539062 -1.75782,1.335937 -2.26172,2.238281 h -0.0703 v -10.875 h -3.17578 z m 32.5459,-8.13281249 c 0.0352,-0.328125 0.10547,-0.8320313 0.10547,-1.4765625 0,-3.2109377 -1.51172,-8.2148437 -7.19531,-8.2148437 -5.07422,0 -8.16797,4.148437 -8.16797,9.3984374 0,5.2617188 3.19922,8.78906254 8.56641,8.78906254 2.76562,0 4.67578,-0.57421875 5.78906,-1.078125 L 358.1968,-2.9896016 c -1.1836,0.5039063 -2.55469,0.9023438 -4.81641,0.9023438 -3.17578,0 -5.90625,-1.7695313 -5.97656,-6.046875 z M 347.43897,-10.40757 c 0.2461,-2.191407 1.65235,-5.144532 4.86328,-5.144532 3.5625,0 4.41797,3.128907 4.38282,5.144532 z M 23.799325,70.812156 h 3.058594 L 25.3462,46.542625 h -3.996094 l -4.324218,11.742188 c -1.078125,3.058593 -1.945313,5.71875 -2.554688,8.167968 H 14.365731 C 13.756356,63.93325 12.924325,61.273094 11.916513,58.284813 L 7.7797938,46.542625 H 3.7837 L 2.0844813,70.812156 H 5.0727625 L 5.7172938,60.405906 C 5.93995,56.773094 6.1157313,52.706688 6.1860438,49.68325 h 0.082031 c 0.6796875,2.871094 1.6523438,6.011719 2.8007813,9.433594 l 3.9257819,11.554687 h 2.378906 l 4.277344,-11.777343 c 1.230468,-3.351563 2.238281,-6.375 3.058593,-9.210938 h 0.117188 c -0.03516,3.023438 0.175781,7.089844 0.351562,10.476563 z m 20.513672,0 C 44.102059,69.628563 44.031747,68.152 44.031747,66.640281 v -6.515625 c 0,-3.492187 -1.300781,-7.136718 -6.632813,-7.136718 -2.191406,0 -4.277343,0.621093 -5.71875,1.546875 l 0.714844,2.097656 c 1.230469,-0.796875 2.917969,-1.300781 4.546875,-1.300781 3.5625,0 3.949219,2.589843 3.949219,4.03125 v 0.363281 c -6.726563,-0.03516 -10.464844,2.261719 -10.464844,6.480469 0,2.519531 1.792969,5.003906 5.320313,5.003906 2.484375,0 4.359375,-1.230469 5.332031,-2.589844 h 0.105469 l 0.257812,2.191406 z m -3.339844,-5.871093 c 0,0.328125 -0.08203,0.691406 -0.1875,1.007812 -0.503906,1.476563 -1.945312,2.917969 -4.207031,2.917969 -1.617188,0 -2.988281,-0.972656 -2.988281,-3.023438 0,-3.386718 3.925781,-3.996093 7.382812,-3.925781 z m 8.165039,5.871093 h 3.140625 v -9.292968 c 0,-0.539063 0.07031,-1.042969 0.140625,-1.476563 0.433594,-2.367187 2.015625,-4.066406 4.242188,-4.066406 0.433593,0 0.761718,0.03516 1.078125,0.117187 v -2.988281 c -0.28125,-0.08203 -0.539063,-0.117187 -0.890625,-0.117187 -2.132813,0 -4.03125,1.476562 -4.828125,3.820312 H 51.88038 l -0.105469,-3.421875 h -2.777344 c 0.105469,1.617188 0.140625,3.386719 0.140625,5.4375 z m 23.293946,-3.023437 c -0.902344,0.398437 -2.085938,0.867187 -3.890625,0.867187 -3.457032,0 -6.046875,-2.484375 -6.046875,-6.515625 0,-3.644531 2.15625,-6.597656 6.152343,-6.597656 1.734375,0 2.917969,0.398438 3.679688,0.832031 l 0.714844,-2.449218 c -0.855469,-0.433594 -2.519532,-0.902344 -4.394532,-0.902344 -5.683593,0 -9.351562,3.890625 -9.351562,9.257812 0,5.332032 3.421875,8.894532 8.671875,8.894532 2.34375,0 4.171875,-0.574219 5.003906,-1.007813 z m 4.245117,3.023437 h 3.175781 V 60.300438 c 0,-0.609375 0.03516,-1.078125 0.210937,-1.511719 0.574219,-1.734375 2.191407,-3.164063 4.253907,-3.164063 2.976562,0 4.03125,2.367188 4.03125,5.179688 v 10.007812 h 3.164062 V 60.441063 c 0,-6.011719 -3.75,-7.453125 -6.082031,-7.453125 -1.195313,0 -2.308594,0.363281 -3.246094,0.902343 -0.972656,0.539063 -1.757812,1.335938 -2.261719,2.238282 h -0.07031 v -10.875 h -3.175781 z m 41.545895,0 v -2.625 h -10.51172 v -0.07031 l 1.875,-1.734375 c 4.9336,-4.746094 8.0625,-8.238281 8.0625,-12.5625 0,-3.351563 -2.12109,-6.808594 -7.16015,-6.808594 -2.70703,0 -5.00391,1.007813 -6.63281,2.378906 l 1.00781,2.238282 c 1.08984,-0.902344 2.84765,-1.980469 4.96875,-1.980469 3.49219,0 4.65234,2.191406 4.65234,4.570312 -0.0352,3.527344 -2.74219,6.550782 -8.71875,12.234375 l -2.48437,2.414063 v 1.945312 z m 3.96094,-23.402343 v 2.625 h 11.44922 v 0.08203 l -10.14844,20.695312 h 3.26953 L 136.94972,49.49575 v -2.085937 z m 19.2627,27.609375 c 1.00781,-1.6875 2.58984,-5.683594 3.42187,-8.742188 l -3.53906,0.363281 c -0.38672,2.625 -1.35938,6.480469 -2.15625,8.601563 z m 20.73339,-4.207032 h 3.0586 V 47.409813 h -2.69531 l -5.1211,2.742187 0.6211,2.402344 4.0664,-2.191406 h 0.0703 z m 19.14844,0.398438 c 4.46485,0 7.95703,-2.742188 7.95703,-6.808594 0,-2.847656 -1.79297,-4.898437 -4.71093,-6.046875 v -0.105469 c 2.88281,-1.371093 3.85546,-3.492187 3.85546,-5.472656 0,-2.917969 -2.27343,-5.765625 -6.80859,-5.765625 -4.10156,0 -7.24219,2.519531 -7.24219,6.234375 0,2.015625 1.125,4.03125 3.71485,5.25 l 0.0352,0.117188 c -2.88281,1.21875 -4.64062,3.304687 -4.64062,6.257812 0,3.421875 2.95312,6.339844 7.83984,6.339844 z m 0.082,-2.308594 c -2.98828,0 -4.79297,-2.085937 -4.6875,-4.464844 0,-2.226562 1.47657,-4.03125 4.21875,-4.816406 3.16407,0.890625 5.14453,2.261719 5.14453,5.109375 0,2.414063 -1.83984,4.171875 -4.67578,4.171875 z m 0.0352,-19.617187 c 2.83594,0 3.94922,1.945312 3.94922,3.820312 0,2.121094 -1.54688,3.5625 -3.5625,4.242188 -2.69531,-0.714844 -4.46485,-1.980469 -4.46485,-4.324219 0,-2.015625 1.44141,-3.738281 4.07813,-3.738281 z m 18.34863,21.925781 c 4.46485,0 7.95703,-2.742188 7.95703,-6.808594 0,-2.847656 -1.79297,-4.898437 -4.71093,-6.046875 v -0.105469 c 2.88281,-1.371093 3.85546,-3.492187 3.85546,-5.472656 0,-2.917969 -2.27343,-5.765625 -6.80859,-5.765625 -4.10156,0 -7.24219,2.519531 -7.24219,6.234375 0,2.015625 1.125,4.03125 3.71485,5.25 l 0.0352,0.117188 c -2.88281,1.21875 -4.64062,3.304687 -4.64062,6.257812 0,3.421875 2.95312,6.339844 7.83984,6.339844 z m 0.082,-2.308594 c -2.98828,0 -4.79297,-2.085937 -4.6875,-4.464844 0,-2.226562 1.47657,-4.03125 4.21875,-4.816406 3.16407,0.890625 5.14453,2.261719 5.14453,5.109375 0,2.414063 -1.83984,4.171875 -4.67578,4.171875 z m 0.0352,-19.617187 c 2.83594,0 3.94922,1.945312 3.94922,3.820312 0,2.121094 -1.54688,3.5625 -3.5625,4.242188 -2.69531,-0.714844 -4.46485,-1.980469 -4.46485,-4.324219 0,-2.015625 1.44141,-3.738281 4.07813,-3.738281 z m 24.15234,-2.238282 c -0.57422,0 -1.37109,0.04687 -2.30859,0.1875 -2.95313,0.363282 -5.54297,1.546875 -7.48828,3.457032 -2.29688,2.296875 -3.96094,5.941406 -3.96094,10.546875 0,6.082031 3.28125,9.972656 8.28516,9.972656 4.86328,0 7.78125,-3.960938 7.78125,-8.25 0,-4.570313 -2.91797,-7.558594 -7.06641,-7.558594 -2.58984,0 -4.53516,1.230469 -5.64844,2.707031 h -0.10547 c 0.53907,-3.855468 3.16407,-7.488281 8.13282,-8.320312 0.90234,-0.140625 1.73437,-0.175781 2.3789,-0.140625 z m -5.47265,21.714844 c -3.31641,0 -5.07422,-2.847656 -5.14453,-6.691406 0,-0.585938 0.14062,-1.054688 0.35156,-1.40625 0.86719,-1.699219 2.63672,-2.882813 4.54687,-2.882813 2.90625,0 4.81641,2.015625 4.81641,5.367188 0,3.339844 -1.83984,5.613281 -4.57031,5.613281 z m 10.04297,-8.167969 v 2.15625 h 33.84375 v -2.15625 z m 50.04785,2.589844 2.58984,7.628906 h 3.33984 l -8.27343,-24.269531 h -3.78516 l -8.23828,24.269531 h 3.23437 l 2.51954,-7.628906 z m -7.95703,-2.449219 2.36718,-7.019531 c 0.46875,-1.476562 0.86719,-2.953125 1.23047,-4.394531 h 0.0703 c 0.36329,1.40625 0.71485,2.847656 1.25391,4.429687 l 2.37891,6.984375 z m 31.49414,-7.347656 h -3.16407 v 10.699219 c 0,0.574219 -0.10546,1.148437 -0.28125,1.617187 -0.58593,1.40625 -2.0625,2.882813 -4.18359,2.882813 -2.88281,0 -3.89062,-2.238281 -3.89062,-5.554688 v -9.644531 h -3.16407 v 10.195313 c 0,6.117187 3.28125,7.628906 6.01172,7.628906 3.09375,0 4.9336,-1.839844 5.76563,-3.246094 h 0.0703 l 0.17578,2.847656 h 2.8125 c -0.11719,-1.371093 -0.15234,-2.953125 -0.15234,-4.757812 z m 17.50488,0 -0.15234,2.625 h -0.0703 c -0.75,-1.429687 -2.41406,-3.023437 -5.4375,-3.023437 -3.99609,0 -7.83984,3.351562 -7.83984,9.257812 0,4.828125 3.09375,8.496094 7.41797,8.496094 2.69531,0 4.57031,-1.300781 5.54297,-2.917969 h 0.0703 v 1.945313 c 0,4.394531 -2.37891,6.082031 -5.61328,6.082031 -2.16797,0 -3.96094,-0.644531 -5.1211,-1.371094 l -0.78515,2.414063 c 1.40625,0.9375 3.70312,1.441406 5.78906,1.441406 2.20313,0 4.65234,-0.503906 6.33984,-2.085938 1.6875,-1.511718 2.48438,-3.960937 2.48438,-7.957031 V 58.179344 c 0,-2.132813 0.0703,-3.527344 0.14062,-4.792969 z m -0.50391,10.007813 c 0,0.539062 -0.0703,1.148437 -0.25781,1.699218 -0.67969,2.015625 -2.44922,3.234375 -4.39453,3.234375 -3.41016,0 -5.14453,-2.847656 -5.14453,-6.257812 0,-4.042969 2.15625,-6.597656 5.1914,-6.597656 2.29688,0 3.84375,1.511718 4.41797,3.351562 0.15235,0.433594 0.1875,0.902344 0.1875,1.441406 z M 342.1802,53.386375 h -3.16406 v 10.699219 c 0,0.574219 -0.10547,1.148437 -0.28125,1.617187 -0.58594,1.40625 -2.0625,2.882813 -4.18359,2.882813 -2.88281,0 -3.89063,-2.238281 -3.89063,-5.554688 v -9.644531 h -3.16406 v 10.195313 c 0,6.117187 3.28125,7.628906 6.01172,7.628906 3.09375,0 4.93359,-1.839844 5.76562,-3.246094 h 0.0703 l 0.17578,2.847656 h 2.8125 c -0.11719,-1.371093 -0.15235,-2.953125 -0.15235,-4.757812 z m 4.03711,16.59375 c 1.21875,0.726563 2.98828,1.195313 4.89844,1.195313 4.13672,0 6.51563,-2.167969 6.51563,-5.226563 0,-2.589844 -1.54688,-4.101562 -4.58204,-5.25 -2.26171,-0.867187 -3.30468,-1.511719 -3.30468,-2.953125 0,-1.300781 1.04297,-2.378906 2.91797,-2.378906 1.61718,0 2.87109,0.574219 3.5625,1.007812 l 0.78515,-2.296875 c -0.97265,-0.585937 -2.51953,-1.089843 -4.27734,-1.089843 -3.75,0 -6.01172,2.308593 -6.01172,5.121093 0,2.085938 1.47656,3.808594 4.60547,4.921875 2.34375,0.867188 3.24609,1.699219 3.24609,3.210938 0,1.441406 -1.08984,2.589844 -3.38672,2.589844 -1.58203,0 -3.24609,-0.644532 -4.18359,-1.253907 z M 362.41847,49.2145 v 4.171875 h -2.70704 v 2.414063 h 2.70704 v 9.503906 c 0,2.050781 0.3164,3.597656 1.21875,4.535156 0.76171,0.867188 1.94531,1.335938 3.42187,1.335938 1.21875,0 2.19141,-0.1875 2.8125,-0.433594 l -0.15234,-2.378906 c -0.38672,0.105468 -1.00782,0.222656 -1.82813,0.222656 -1.76953,0 -2.3789,-1.230469 -2.3789,-3.386719 v -9.398437 h 4.53515 v -2.414063 h -4.53515 v -5.003906 z m 24.69433,21.597656 h 3.0586 V 47.409813 h -2.69532 l -5.12109,2.742187 0.62109,2.402344 4.06641,-2.191406 h 0.0703 z m 12.02051,-23.402343 v 2.625 h 11.44922 v 0.08203 l -10.14844,20.695312 h 3.26953 L 413.89893,49.49575 v -2.085937 z m 19.26562,27.609375 c 1.00782,-1.6875 2.58985,-5.683594 3.42188,-8.742188 l -3.53906,0.363281 c -0.38672,2.625 -1.35938,6.480469 -2.15625,8.601563 z m 20.7334,-4.207032 h 3.0586 V 47.409813 h -2.69532 l -5.12109,2.742187 0.62109,2.402344 4.06641,-2.191406 h 0.0703 z m 13.42969,0.363282 c 0.75,0.03516 1.75781,0 2.91797,-0.1875 2.51953,-0.28125 5.00391,-1.359375 6.79687,-3.128907 2.3086,-2.226562 4.03125,-5.835937 4.03125,-10.980468 0,-5.976563 -2.9414,-9.867188 -7.73437,-9.867188 -4.79297,0 -7.99219,3.890625 -7.99219,8.320313 0,3.996093 2.69531,7.160156 6.91406,7.160156 2.33204,0 4.20704,-0.9375 5.50782,-2.519531 h 0.10547 c -0.4336,2.777343 -1.54688,4.828125 -3.09375,6.234375 -1.33594,1.253906 -3.0586,2.015625 -4.89844,2.261718 -1.07813,0.117188 -1.875,0.1875 -2.55469,0.117188 z m 5.75391,-21.75 c 3.3164,0 4.79297,3.058593 4.79297,7.054687 0,0.503906 -0.10547,0.867188 -0.29297,1.160156 -0.82032,1.394532 -2.48438,2.449219 -4.60547,2.449219 -2.73047,0 -4.5,-2.0625 -4.5,-4.96875 0,-3.316406 1.91015,-5.695312 4.60547,-5.695312 z m 18.43066,21.785156 c 4.46484,0 7.95703,-2.742188 7.95703,-6.808594 0,-2.847656 -1.79297,-4.898437 -4.71094,-6.046875 v -0.105469 c 2.88282,-1.371093 3.85547,-3.492187 3.85547,-5.472656 0,-2.917969 -2.27343,-5.765625 -6.80859,-5.765625 -4.10156,0 -7.24219,2.519531 -7.24219,6.234375 0,2.015625 1.125,4.03125 3.71485,5.25 l 0.0351,0.117188 c -2.88281,1.21875 -4.64062,3.304687 -4.64062,6.257812 0,3.421875 2.95312,6.339844 7.83984,6.339844 z m 0.082,-2.308594 c -2.98828,0 -4.79297,-2.085937 -4.6875,-4.464844 0,-2.226562 1.47656,-4.03125 4.21875,-4.816406 3.16406,0.890625 5.14453,2.261719 5.14453,5.109375 0,2.414063 -1.83984,4.171875 -4.67578,4.171875 z m 0.0352,-19.617187 c 2.83594,0 3.94922,1.945312 3.94922,3.820312 0,2.121094 -1.54688,3.5625 -3.5625,4.242188 -2.69532,-0.714844 -4.46485,-1.980469 -4.46485,-4.324219 0,-2.015625 1.44141,-3.738281 4.07813,-3.738281 z m 12.63281,21.890625 c 0.75,0.03516 1.75781,0 2.91797,-0.1875 2.51953,-0.28125 5.00391,-1.359375 6.79687,-3.128907 2.3086,-2.226562 4.03125,-5.835937 4.03125,-10.980468 0,-5.976563 -2.9414,-9.867188 -7.73437,-9.867188 -4.79297,0 -7.99219,3.890625 -7.99219,8.320313 0,3.996093 2.69531,7.160156 6.91406,7.160156 2.33204,0 4.20704,-0.9375 5.50782,-2.519531 h 0.10547 c -0.4336,2.777343 -1.54688,4.828125 -3.09375,6.234375 -1.33594,1.253906 -3.0586,2.015625 -4.89844,2.261718 -1.07813,0.117188 -1.875,0.1875 -2.55469,0.117188 z m 5.75391,-21.75 c 3.3164,0 4.79297,3.058593 4.79297,7.054687 0,0.503906 -0.10547,0.867188 -0.29297,1.160156 -0.82032,1.394532 -2.48438,2.449219 -4.60547,2.449219 -2.73047,0 -4.5,-2.0625 -4.5,-4.96875 0,-3.316406 1.91015,-5.695312 4.60547,-5.695312 z M 21.197763,-80.093117 h -7.992188 v 2.519531 h 4.933594 v 7.230469 c -0.714844,0.363281 -2.121094,0.644531 -4.171875,0.644531 -5.6484377,0 -9.3632815,-3.632812 -9.3632815,-9.785156 0,-6.082031 3.8554688,-9.761719 9.7617185,-9.761719 2.449219,0 4.066407,0.46875 5.355469,1.042969 l 0.761719,-2.554688 c -1.042969,-0.503906 -3.246094,-1.113281 -6.046875,-1.113281 -8.1328127,0 -13.1015627,5.296875 -13.136719,12.527344 0,3.785156 1.2890625,7.019531 3.375,9.035156 2.3789063,2.273438 5.402344,3.210938 9.082031,3.210938 3.269532,0 6.046875,-0.832032 7.441407,-1.335938 z m 18.867187,4.605469 c 0.03516,-0.328125 0.105469,-0.832032 0.105469,-1.476563 0,-3.210937 -1.511719,-8.214844 -7.195313,-8.214844 -5.074218,0 -8.167968,4.148438 -8.167968,9.398438 0,5.261719 3.199218,8.789062 8.566406,8.789062 2.765625,0 4.675781,-0.574218 5.789062,-1.078125 l -0.539062,-2.273437 c -1.183594,0.503906 -2.554688,0.902344 -4.816406,0.902344 -3.175782,0 -5.90625,-1.769532 -5.976563,-6.046875 z m -12.199219,-2.273438 c 0.246094,-2.191406 1.652344,-5.144531 4.863282,-5.144531 3.5625,0 4.417968,3.128906 4.382812,5.144531 z m 16.230469,10.40625 h 3.09375 v -10.511719 c 0,-0.539062 0.08203,-1.078125 0.257813,-1.546875 0.503906,-1.582031 1.945312,-3.164062 3.925781,-3.164062 2.414062,0 3.632812,2.015625 3.632812,4.78125 v 10.441406 h 3.09375 v -10.769531 c 0,-0.574219 0.105469,-1.148438 0.257813,-1.582031 0.539062,-1.546875 1.945312,-2.871094 3.738281,-2.871094 2.554688,0 3.785156,2.015625 3.785156,5.355469 v 9.867187 h 3.09375 v -10.265625 c 0,-6.046875 -3.421875,-7.558594 -5.71875,-7.558594 -1.664062,0 -2.8125,0.433594 -3.855468,1.230469 -0.726563,0.539063 -1.40625,1.289063 -1.945313,2.261719 h -0.07031 c -0.761719,-2.050781 -2.554688,-3.492188 -4.933594,-3.492188 -2.882813,0 -4.5,1.546875 -5.472656,3.210938 h -0.105469 l -0.140625,-2.8125 h -2.777344 c 0.105469,1.441406 0.140625,2.917969 0.140625,4.722656 z m 42.550781,0 c -0.210937,-1.183594 -0.28125,-2.660156 -0.28125,-4.171875 v -6.515625 c 0,-3.492187 -1.300781,-7.136719 -6.632812,-7.136719 -2.191406,0 -4.277344,0.621094 -5.71875,1.546875 l 0.714844,2.097657 c 1.230468,-0.796875 2.917968,-1.300782 4.546875,-1.300782 3.5625,0 3.949218,2.589844 3.949218,4.03125 v 0.363282 c -6.726562,-0.03516 -10.464843,2.261718 -10.464843,6.480468 0,2.519532 1.792968,5.003907 5.320312,5.003907 2.484375,0 4.359375,-1.230469 5.332031,-2.589844 h 0.105469 l 0.257813,2.191406 z m -3.339843,-5.871094 c 0,0.328125 -0.08203,0.691407 -0.1875,1.007813 -0.503907,1.476562 -1.945313,2.917969 -4.207032,2.917969 -1.617187,0 -2.988281,-0.972657 -2.988281,-3.023438 0,-3.386719 3.925781,-3.996094 7.382813,-3.925781 z m 8.165039,5.871094 h 3.175781 v -10.476562 c 0,-0.539063 0.07031,-1.078125 0.210937,-1.476563 0.539063,-1.757812 2.15625,-3.234375 4.253907,-3.234375 2.976558,0 4.031248,2.332031 4.031248,5.144531 v 10.042969 h 3.16406 v -10.40625 c 0,-5.976562 -3.75,-7.417969 -6.15234,-7.417969 -2.882812,0 -4.898437,1.628907 -5.765625,3.28125 h -0.07031 l -0.175781,-2.882812 h -2.8125 c 0.105468,1.441406 0.140625,2.917969 0.140625,4.722656 z m 27.682613,-24.269531 v 14.296875 c 0,7.523437 3.75,10.371094 8.71875,10.371094 5.25,0 9.17578,-3.058594 9.17578,-10.511719 v -14.15625 h -3.16406 v 14.367187 c 0,5.367188 -2.30859,7.746094 -5.90625,7.746094 -3.23437,0 -5.64843,-2.308594 -5.64843,-7.746094 v -14.367187 z m 23.22364,24.269531 h 3.17578 v -10.476562 c 0,-0.539063 0.0703,-1.078125 0.21094,-1.476563 0.53906,-1.757812 2.15625,-3.234375 4.2539,-3.234375 2.97656,0 4.03125,2.332031 4.03125,5.144531 v 10.042969 h 3.16406 v -10.40625 c 0,-5.976562 -3.75,-7.417969 -6.15234,-7.417969 -2.88281,0 -4.89844,1.628907 -5.76562,3.28125 h -0.0703 l -0.17578,-2.882812 h -2.8125 c 0.10547,1.441406 0.14063,2.917969 0.14063,4.722656 z m 23.15332,0 v -17.425781 h -3.17578 v 17.425781 z M 163.938,-91.659523 c -1.14844,0 -1.98047,0.867187 -1.98047,1.980468 0,1.089844 0.79687,1.945313 1.91015,1.945313 1.26563,0 2.05079,-0.855469 2.01563,-1.945313 0,-1.113281 -0.75,-1.980468 -1.94531,-1.980468 z m 4.6875,6.878906 6.62109,17.425781 h 3.02344 l 6.84375,-17.425781 h -3.31641 l -3.375,9.796875 c -0.58594,1.582031 -1.08984,3.023437 -1.47656,4.464844 h -0.11719 c -0.35156,-1.441407 -0.82031,-2.882813 -1.39453,-4.464844 l -3.42187,-9.796875 z m 33.11425,9.292969 c 0.0352,-0.328125 0.10547,-0.832032 0.10547,-1.476563 0,-3.210937 -1.51172,-8.214844 -7.19531,-8.214844 -5.07422,0 -8.16797,4.148438 -8.16797,9.398438 0,5.261719 3.19922,8.789062 8.56641,8.789062 2.76562,0 4.67578,-0.574218 5.78906,-1.078125 l -0.53906,-2.273437 c -1.1836,0.503906 -2.55469,0.902344 -4.81641,0.902344 -3.17578,0 -5.90625,-1.769532 -5.97656,-6.046875 z m -12.19921,-2.273438 c 0.24609,-2.191406 1.65234,-5.144531 4.86328,-5.144531 3.5625,0 4.41797,3.128906 4.38281,5.144531 z m 16.23339,10.40625 h 3.14063 v -9.292969 c 0,-0.539062 0.0703,-1.042968 0.14062,-1.476562 0.4336,-2.367188 2.01563,-4.066406 4.24219,-4.066406 0.4336,0 0.76172,0.03516 1.07813,0.117187 v -2.988281 c -0.28125,-0.08203 -0.53907,-0.117188 -0.89063,-0.117188 -2.13281,0 -4.03125,1.476563 -4.82812,3.820313 h -0.14063 l -0.10547,-3.421875 h -2.77734 c 0.10547,1.617187 0.14062,3.386719 0.14062,5.4375 z m 10.55274,-0.832031 c 1.21875,0.726562 2.98828,1.195312 4.89844,1.195312 4.13671,0 6.51562,-2.167968 6.51562,-5.226562 0,-2.589844 -1.54687,-4.101563 -4.58203,-5.25 -2.26172,-0.867188 -3.30469,-1.511719 -3.30469,-2.953125 0,-1.300781 1.04297,-2.378906 2.91797,-2.378906 1.61719,0 2.87109,0.574218 3.5625,1.007812 l 0.78516,-2.296875 c -0.97266,-0.585937 -2.51953,-1.089844 -4.27735,-1.089844 -3.75,0 -6.01172,2.308594 -6.01172,5.121094 0,2.085938 1.47657,3.808594 4.60547,4.921875 2.34375,0.867188 3.2461,1.699219 3.2461,3.210938 0,1.441406 -1.08985,2.589843 -3.38672,2.589843 -1.58203,0 -3.2461,-0.644531 -4.1836,-1.253906 z m 28.00195,0.832031 c -0.21094,-1.183594 -0.28125,-2.660156 -0.28125,-4.171875 v -6.515625 c 0,-3.492187 -1.30078,-7.136719 -6.63281,-7.136719 -2.19141,0 -4.27734,0.621094 -5.71875,1.546875 l 0.71484,2.097657 c 1.23047,-0.796875 2.91797,-1.300782 4.54688,-1.300782 3.5625,0 3.94922,2.589844 3.94922,4.03125 v 0.363282 c -6.72657,-0.03516 -10.46485,2.261718 -10.46485,6.480468 0,2.519532 1.79297,5.003907 5.32032,5.003907 2.48437,0 4.35937,-1.230469 5.33203,-2.589844 h 0.10547 l 0.25781,2.191406 z m -3.33984,-5.871094 c 0,0.328125 -0.082,0.691407 -0.1875,1.007813 -0.50391,1.476562 -1.94531,2.917969 -4.20703,2.917969 -1.61719,0 -2.98828,-0.972657 -2.98828,-3.023438 0,-3.386719 3.92578,-3.996094 7.38281,-3.925781 z m 8.16504,5.871094 h 3.17578 V -92.91343 h -3.17578 z m 28.80761,-13.96875 h -9.43359 v -7.664062 h 9.97266 v -2.636719 h -13.11328 v 24.269531 h 13.65234 v -2.625 h -10.51172 v -8.753906 h 9.43359 z m 2.9795,-3.457031 5.90625,8.53125 -6.1875,8.894531 h 3.49218 l 2.51954,-3.925781 c 0.64453,-1.042969 1.2539,-1.980469 1.82812,-3.023438 h 0.0703 c 0.6211,1.042969 1.19532,2.015625 1.875,3.023438 l 2.55469,3.925781 h 3.59766 l -6.11719,-9 5.94141,-8.425781 h -3.42188 l -2.44922,3.714844 c -0.57422,0.925781 -1.14844,1.828125 -1.72265,2.871093 h -0.10547 c -0.57422,-0.972656 -1.125,-1.863281 -1.76953,-2.835937 l -2.48438,-3.75 z m 18.7207,24.550781 h 3.14062 v -9.46875 h 0.0703 c 1.04297,1.734375 3.05859,2.742188 5.35547,2.742188 4.11328,0 7.92187,-3.09375 7.92187,-9.363282 0,-5.296875 -3.16406,-8.859375 -7.38281,-8.859375 -2.83594,0 -4.88672,1.265625 -6.1875,3.386719 h -0.0703 l -0.14063,-2.988281 H 299.521 c 0.0703,1.652344 0.14063,3.457031 0.14063,5.695312 z m 3.14062,-17.203125 c 0,-0.433594 0.10547,-0.902344 0.21094,-1.300781 0.60938,-2.378906 2.625,-3.925781 4.79297,-3.925781 3.33984,0 5.17969,2.988281 5.17969,6.480468 0,3.996094 -1.94531,6.738282 -5.29688,6.738282 -2.26172,0 -4.17187,-1.511719 -4.74609,-3.714844 -0.0703,-0.386719 -0.14063,-0.820313 -0.14063,-1.289063 z m 24.72657,-7.746094 c -4.82813,0 -8.63672,3.421875 -8.63672,9.257813 0,5.507812 3.63281,8.964844 8.34375,8.964844 4.21875,0 8.68359,-2.8125 8.68359,-9.257813 0,-5.320312 -3.38672,-8.964844 -8.39062,-8.964844 z m -0.0703,2.378907 c 3.73829,0 5.21485,3.75 5.21485,6.703125 0,3.914062 -2.26172,6.761718 -5.28516,6.761718 -3.09375,0 -5.29687,-2.882812 -5.29687,-6.691406 0,-3.316406 1.61718,-6.773437 5.36718,-6.773437 z m 11.23243,14.613281 c 1.21875,0.726562 2.98828,1.195312 4.89843,1.195312 4.13672,0 6.51563,-2.167968 6.51563,-5.226562 0,-2.589844 -1.54688,-4.101563 -4.58203,-5.25 -2.26172,-0.867188 -3.30469,-1.511719 -3.30469,-2.953125 0,-1.300781 1.04297,-2.378906 2.91797,-2.378906 1.61719,0 2.87109,0.574218 3.5625,1.007812 l 0.78516,-2.296875 c -0.97266,-0.585937 -2.51954,-1.089844 -4.27735,-1.089844 -3.75,0 -6.01172,2.308594 -6.01172,5.121094 0,2.085938 1.47657,3.808594 4.60547,4.921875 2.34375,0.867188 3.2461,1.699219 3.2461,3.210938 0,1.441406 -1.08985,2.589843 -3.38672,2.589843 -1.58203,0 -3.2461,-0.644531 -4.1836,-1.253906 z m 18.65039,0.832031 v -17.425781 h -3.17578 v 17.425781 z m -1.59375,-24.304687 c -1.14844,0 -1.98047,0.867187 -1.98047,1.980468 0,1.089844 0.79687,1.945313 1.91015,1.945313 1.26563,0 2.05079,-0.855469 2.01563,-1.945313 0,-1.113281 -0.75,-1.980468 -1.94531,-1.980468 z m 7.56738,2.707031 v 4.171875 h -2.70703 v 2.414062 h 2.70703 v 9.503907 c 0,2.050781 0.31641,3.597656 1.21875,4.535156 0.76172,0.867187 1.94531,1.335937 3.42187,1.335937 1.21875,0 2.19141,-0.1875 2.8125,-0.433593 l -0.15234,-2.378907 c -0.38672,0.105469 -1.00781,0.222657 -1.82812,0.222657 -1.76954,0 -2.37891,-1.230469 -2.37891,-3.386719 v -9.398438 h 4.53516 v -2.414062 h -4.53516 v -5.003906 z m 14.36719,21.597656 v -17.425781 h -3.17578 v 17.425781 z m -1.59375,-24.304687 c -1.14844,0 -1.98047,0.867187 -1.98047,1.980468 0,1.089844 0.79687,1.945313 1.91015,1.945313 1.26563,0 2.05079,-0.855469 2.01563,-1.945313 0,-1.113281 -0.75,-1.980468 -1.94531,-1.980468 z m 14.22363,6.480468 c -4.82812,0 -8.63672,3.421875 -8.63672,9.257813 0,5.507812 3.63281,8.964844 8.34375,8.964844 4.21875,0 8.6836,-2.8125 8.6836,-9.257813 0,-5.320312 -3.38672,-8.964844 -8.39063,-8.964844 z m -0.0703,2.378907 c 3.73828,0 5.21484,3.75 5.21484,6.703125 0,3.914062 -2.26172,6.761718 -5.28515,6.761718 -3.09375,0 -5.29688,-2.882812 -5.29688,-6.691406 0,-3.316406 1.61719,-6.773437 5.36719,-6.773437 z m 12.45117,15.445312 h 3.17578 v -10.476562 c 0,-0.539063 0.0703,-1.078125 0.21094,-1.476563 0.53906,-1.757812 2.15625,-3.234375 4.2539,-3.234375 2.97657,0 4.03125,2.332031 4.03125,5.144531 v 10.042969 h 3.16407 v -10.40625 c 0,-5.976562 -3.75,-7.417969 -6.15235,-7.417969 -2.88281,0 -4.89843,1.628907 -5.76562,3.28125 h -0.0703 l -0.17579,-2.882812 h -2.8125 c 0.10547,1.441406 0.14063,2.917969 0.14063,4.722656 z m 27.71777,0 h 3.14063 v -9.714844 c 0.71484,0.175782 1.58203,0.210938 2.51953,0.210938 3.05859,0 5.75391,-0.902344 7.41797,-2.660156 1.21875,-1.265625 1.86328,-2.988282 1.86328,-5.191407 0,-2.15625 -0.78516,-3.925781 -2.12109,-5.074218 -1.44141,-1.289063 -3.70313,-2.015625 -6.8086,-2.015625 -2.51953,0 -4.5,0.222656 -6.01172,0.46875 z m 3.14063,-21.703125 c 0.53906,-0.152344 1.58203,-0.257812 2.95312,-0.257812 3.45703,0 5.71875,1.546875 5.71875,4.757812 0,3.339844 -2.30859,5.179688 -6.08203,5.179688 -1.04297,0 -1.91015,-0.07031 -2.58984,-0.257813 z m 27.49804,21.703125 c -0.21093,-1.183594 -0.28125,-2.660156 -0.28125,-4.171875 v -6.515625 c 0,-3.492187 -1.30078,-7.136719 -6.63281,-7.136719 -2.1914,0 -4.27734,0.621094 -5.71875,1.546875 l 0.71485,2.097657 c 1.23046,-0.796875 2.91796,-1.300782 4.54687,-1.300782 3.5625,0 3.94922,2.589844 3.94922,4.03125 v 0.363282 c -6.72656,-0.03516 -10.46484,2.261718 -10.46484,6.480468 0,2.519532 1.79296,5.003907 5.32031,5.003907 2.48437,0 4.35937,-1.230469 5.33203,-2.589844 h 0.10547 l 0.25781,2.191406 z m -3.33984,-5.871094 c 0,0.328125 -0.082,0.691407 -0.1875,1.007813 -0.50391,1.476562 -1.94531,2.917969 -4.20703,2.917969 -1.61719,0 -2.98828,-0.972657 -2.98828,-3.023438 0,-3.386719 3.92578,-3.996094 7.38281,-3.925781 z m 5.71875,-11.554687 6.62109,17.425781 h 3.02344 l 6.84375,-17.425781 h -3.3164 l -3.375,9.796875 c -0.58594,1.582031 -1.08985,3.023437 -1.47657,4.464844 h -0.11718 c -0.35157,-1.441407 -0.82032,-2.882813 -1.39454,-4.464844 l -3.42187,-9.796875 z m 22.64942,17.425781 v -17.425781 h -3.17579 v 17.425781 z m -1.59375,-24.304687 c -1.14844,0 -1.98047,0.867187 -1.98047,1.980468 0,1.089844 0.79687,1.945313 1.91015,1.945313 1.26563,0 2.05078,-0.855469 2.01563,-1.945313 0,-1.113281 -0.75,-1.980468 -1.94531,-1.980468 z m 14.22363,6.480468 c -4.82813,0 -8.63672,3.421875 -8.63672,9.257813 0,5.507812 3.63281,8.964844 8.34375,8.964844 4.21875,0 8.68359,-2.8125 8.68359,-9.257813 0,-5.320312 -3.38672,-8.964844 -8.39062,-8.964844 z m -0.0703,2.378907 c 3.73828,0 5.21484,3.75 5.21484,6.703125 0,3.914062 -2.26172,6.761718 -5.28516,6.761718 -3.09375,0 -5.29687,-2.882812 -5.29687,-6.691406 0,-3.316406 1.61719,-6.773437 5.36719,-6.773437 z m 12.45117,15.445312 h 3.17578 v -10.476562 c 0,-0.539063 0.0703,-1.078125 0.21094,-1.476563 0.53906,-1.757812 2.15625,-3.234375 4.2539,-3.234375 2.97656,0 4.03125,2.332031 4.03125,5.144531 v 10.042969 h 3.16406 v -10.40625 c 0,-5.976562 -3.75,-7.417969 -6.15234,-7.417969 -2.88281,0 -4.89844,1.628907 -5.76562,3.28125 h -0.0703 l -0.17578,-2.882812 h -2.8125 c 0.10547,1.441406 0.14063,2.917969 0.14063,4.722656 z m 27.71777,-0.07031 c 1.05469,0.140625 2.70703,0.28125 4.86328,0.28125 3.96094,0 6.70313,-0.714844 8.39063,-2.261719 1.21875,-1.183594 2.05078,-2.777344 2.05078,-4.863281 0,-3.597657 -2.69531,-5.507813 -5.00391,-6.082032 v -0.07031 c 2.55469,-0.9375 4.10156,-2.988281 4.10156,-5.332031 0,-1.910157 -0.75,-3.339844 -2.01562,-4.277344 -1.51172,-1.230469 -3.52734,-1.769531 -6.65625,-1.769531 -2.19141,0 -4.35938,0.222656 -5.73047,0.503906 z m 3.14063,-21.75 c 0.5039,-0.105469 1.32421,-0.210938 2.76562,-0.210938 3.17578,0 5.33203,1.113281 5.33203,3.960938 0,2.34375 -1.94531,4.066406 -5.26172,4.066406 h -2.83593 z m 0,10.195312 h 2.58984 c 3.42187,0 6.25781,1.359375 6.25781,4.675781 0,3.527344 -2.98828,4.722657 -6.22265,4.722657 -1.11329,0 -2.01563,-0.04687 -2.625,-0.152344 z m 28.79296,11.625 c -0.21093,-1.183594 -0.28125,-2.660156 -0.28125,-4.171875 v -6.515625 c 0,-3.492187 -1.30078,-7.136719 -6.63281,-7.136719 -2.1914,0 -4.27734,0.621094 -5.71875,1.546875 l 0.71485,2.097657 c 1.23046,-0.796875 2.91796,-1.300782 4.54687,-1.300782 3.5625,0 3.94922,2.589844 3.94922,4.03125 v 0.363282 c -6.72656,-0.03516 -10.46484,2.261718 -10.46484,6.480468 0,2.519532 1.79296,5.003907 5.32031,5.003907 2.48437,0 4.35937,-1.230469 5.33203,-2.589844 h 0.10547 l 0.25781,2.191406 z m -3.33984,-5.871094 c 0,0.328125 -0.082,0.691407 -0.1875,1.007813 -0.50391,1.476562 -1.94531,2.917969 -4.20703,2.917969 -1.61719,0 -2.98828,-0.972657 -2.98828,-3.023438 0,-3.386719 3.92578,-3.996094 7.38281,-3.925781 z m 8.16504,5.871094 h 3.14062 v -9.292969 c 0,-0.539062 0.0703,-1.042968 0.14063,-1.476562 0.43359,-2.367188 2.01562,-4.066406 4.24219,-4.066406 0.43359,0 0.76172,0.03516 1.07812,0.117187 v -2.988281 c -0.28125,-0.08203 -0.53906,-0.117188 -0.89062,-0.117188 -2.13282,0 -4.03125,1.476563 -4.82813,3.820313 h -0.14062 l -0.10547,-3.421875 h -2.77735 c 0.10547,1.617187 0.14063,3.386719 0.14063,5.4375 z m 18.79395,-17.824219 c -4.82813,0 -8.63672,3.421875 -8.63672,9.257813 0,5.507812 3.63281,8.964844 8.34375,8.964844 4.21875,0 8.68359,-2.8125 8.68359,-9.257813 0,-5.320312 -3.38672,-8.964844 -8.39062,-8.964844 z m -0.0703,2.378907 c 3.73828,0 5.21485,3.75 5.21485,6.703125 0,3.914062 -2.26172,6.761718 -5.28516,6.761718 -3.09375,0 -5.29687,-2.882812 -5.29687,-6.691406 0,-3.316406 1.61718,-6.773437 5.36718,-6.773437 z m 26.45508,7.3125 c 0.0352,-0.328125 0.10547,-0.832032 0.10547,-1.476563 0,-3.210937 -1.51172,-8.214844 -7.19531,-8.214844 -5.07422,0 -8.16797,4.148438 -8.16797,9.398438 0,5.261719 3.19922,8.789062 8.5664,8.789062 2.76563,0 4.67579,-0.574218 5.78907,-1.078125 l -0.53907,-2.273437 c -1.18359,0.503906 -2.55468,0.902344 -4.8164,0.902344 -3.17578,0 -5.90625,-1.769532 -5.97656,-6.046875 z m -12.19922,-2.273438 c 0.2461,-2.191406 1.65235,-5.144531 4.86328,-5.144531 3.5625,0 4.41797,3.128906 4.38282,5.144531 z m 23.61621,-7.417969 c -4.82812,0 -8.63672,3.421875 -8.63672,9.257813 0,5.507812 3.63282,8.964844 8.34375,8.964844 4.21875,0 8.6836,-2.8125 8.6836,-9.257813 0,-5.320312 -3.38672,-8.964844 -8.39063,-8.964844 z m -0.0703,2.378907 c 3.73828,0 5.21484,3.75 5.21484,6.703125 0,3.914062 -2.26171,6.761718 -5.28515,6.761718 -3.09375,0 -5.29688,-2.882812 -5.29688,-6.691406 0,-3.316406 1.61719,-6.773437 5.36719,-6.773437 z m 12.45117,15.445312 h 3.17578 v -10.476562 c 0,-0.539063 0.0703,-1.078125 0.21094,-1.476563 0.53906,-1.757812 2.15625,-3.234375 4.25391,-3.234375 2.97656,0 4.03125,2.332031 4.03125,5.144531 v 10.042969 h 3.16406 v -10.40625 c 0,-5.976562 -3.75,-7.417969 -6.15234,-7.417969 -2.88282,0 -4.89844,1.628907 -5.76563,3.28125 h -0.0703 l -0.17578,-2.882812 h -2.8125 c 0.10547,1.441406 0.14062,2.917969 0.14062,4.722656 z m 32.50781,0 c -0.21093,-1.183594 -0.28125,-2.660156 -0.28125,-4.171875 v -6.515625 c 0,-3.492187 -1.30078,-7.136719 -6.63281,-7.136719 -2.1914,0 -4.27734,0.621094 -5.71875,1.546875 l 0.71485,2.097657 c 1.23046,-0.796875 2.91796,-1.300782 4.54687,-1.300782 3.5625,0 3.94922,2.589844 3.94922,4.03125 v 0.363282 c -6.72656,-0.03516 -10.46484,2.261718 -10.46484,6.480468 0,2.519532 1.79296,5.003907 5.32031,5.003907 2.48437,0 4.35937,-1.230469 5.33203,-2.589844 h 0.10547 l 0.25781,2.191406 z m -3.33984,-5.871094 c 0,0.328125 -0.082,0.691407 -0.1875,1.007813 -0.50391,1.476562 -1.94531,2.917969 -4.20703,2.917969 -1.61719,0 -2.98828,-0.972657 -2.98828,-3.023438 0,-3.386719 3.92578,-3.996094 7.38281,-3.925781 z m 0,0" style="fill:#231916;fill-opacity:1;fill-rule:nonzero;stroke:none" aria-label="Ludwig Mies van der Rohe&#10;March 27, 1886—August 17, 1989&#10;Geman Universal Exposition Pavion Baroeona" transform="matrix(1.3333333,0,0,1.3333333,295.70507,3810.8807)" />
      </g></svg>