<?xml version='1.0' encoding='utf-8'?>
<svg xmlns="http://www.w3.org/2000/svg" version="1.1" width="215.548" height="104.224" viewBox="248.475 3955.200 215.548 104.224"><g id="object"><path id="path34" d="M 0,0 C 0.177,0.16 0.344,0.31 0.51,0.46 0.357,0.622 0.203,0.785 0.049,0.947 -0.107,0.705 -0.262,0.464 -0.418,0.221 -0.264,0.14 -0.11,0.058 0,0 m 26.059,0.865 c -3.146,-8.804 -4.911,-17.514 -5.287,-26.526 -0.181,-4.336 -1.38,-8.448 -7.093,-8.924 -6.06,-0.505 -5.936,3.875 -6.814,7.801 -1.588,7.095 -4.183,13.97 -4.197,21.397 -0.003,1.625 -0.95,3.174 -4.87,4.014 0,-8.612 -0.106,-16.877 0.033,-25.138 0.116,-6.966 -4.806,-10.339 -11.547,-7.94 -2.453,0.873 -2.163,2.466 -2.335,4.42 -0.602,6.858 0.394,13.591 1.07,20.367 1.208,12.098 2.737,24.195 3.164,36.327 0.235,6.661 4.838,5.75 8.261,5.899 C 0.192,32.724 5.472,34.6 6.743,28.163 7.883,22.391 9.04,16.621 10.281,10.87 10.745,8.721 9.972,5.171 13.068,5.188 c 3.281,0.018 2.137,3.46 2.468,5.642 0.806,5.332 0.331,10.697 1.856,16.094 2.421,8.573 9.199,4.647 14.055,5.72 4.784,1.058 4.584,-2.971 5.245,-6.359 2.744,-14.062 3.759,-28.309 4.898,-42.536 0.369,-4.622 3.456,-8.65 2.026,-13.724 -1.177,-4.176 -3.282,-5.15 -7.206,-4.683 -3.832,0.457 -6.713,0.918 -6.874,6.003 -0.314,9.924 -0.619,19.912 -3.477,29.52" style="fill:#494f57;fill-opacity:1;fill-rule:nonzero;stroke:none" transform="matrix(1.3333333,0,0,-1.3333333,399.36707,4006.2144)" />
      <path id="path52" d="m 0,0 c 0.321,-6.975 0.055,-14.095 3.061,-20.709 1.398,-3.074 3.32,-6.206 7.248,-5.514 3.69,0.65 6.132,3.368 7.099,7.078 0.891,3.416 2.148,6.859 2.284,10.327 0.31,7.94 0.671,16.106 -3.125,23.403 -3.35,6.44 -7.032,6.595 -12.305,1.993 C -1.099,11.899 0.972,5.689 0,0 m -13.602,1.114 c 0.221,7.527 1.727,17.622 10.11,25.812 7.657,7.481 27.314,2.774 31.72,-6.048 7.871,-15.76 7.804,-31.356 0.889,-47.014 -4.047,-9.166 -12.857,-11.857 -21.813,-11.533 -9.008,0.326 -14.838,6.344 -18.145,14.652 -2.679,6.731 -2.914,13.775 -2.761,24.131" style="fill:#494f57;fill-opacity:1;fill-rule:nonzero;stroke:none" transform="matrix(1.3333333,0,0,-1.3333333,325.25773,4003.1661)" />
      <path id="path119" d="m 0,0 c -9.07,-0.351 -12.71,2.418 -12.152,8.768 0.34,3.872 1.818,5.254 5.448,3.475 5.355,-2.625 9.476,-0.548 11.918,4.053 2.431,4.579 -0.472,7.936 -4.152,10.734 -6.561,4.988 -13.647,9.662 -15.271,18.654 -2.927,16.204 7.607,22.962 20.831,23.244 3.018,0.064 5.522,-2.482 7.548,-4.91 2.083,-2.497 0.924,-5.037 -0.199,-7.304 C 12.629,54.005 10.718,56.376 9.076,56.65 5.812,57.195 2.252,58.353 0.07,54.823 -2.119,51.281 -1.652,47.732 0.986,44.294 2.792,41.941 5.155,40.608 7.511,39.016 13.71,34.825 19.174,29.805 18.759,21.471 18.35,13.263 16.932,5.486 8.125,1.421 5.329,0.131 2.589,0.554 0,0" style="fill:#494f57;fill-opacity:1;fill-rule:nonzero;stroke:none" transform="matrix(1.3333333,0,0,-1.3333333,274.07667,4053.1069)" />
      </g></svg>