<?xml version='1.0' encoding='utf-8'?>
<svg xmlns="http://www.w3.org/2000/svg" version="1.1" width="689.005" height="377.185" viewBox="74.538 847.972 689.005 377.185"><defs id="defs1"><clipPath clipPathUnits="userSpaceOnUse" id="clipPath8">
      <path d="M -1148.4961,2089.633 H 1235.444 v -3370.3901 h -2383.9401 z" id="path8" />
    </clipPath>
    <clipPath clipPathUnits="userSpaceOnUse" id="clipPath12">
      <path d="M -2389.6702,1124.431 H -5.7301751 V -2245.9591 H -2389.6702 Z" id="path12" />
    </clipPath>
  </defs><g id="object"><path id="path63" d="M 93.083475,-55.946689 H 57.997537 v 11.0625 h 21.65625 v 31.769531 c -3.164062,1.582031 -9.328125,2.835938 -18.328125,2.835938 -24.820312,0 -41.097656,-15.960938 -41.097656,-42.984375 0,-26.707032 16.910156,-42.820313 42.832031,-42.820313 10.746094,0 17.859375,2.050781 23.542969,4.582031 l 3.328125,-11.226563 c -4.59375,-2.21484 -14.226562,-4.89844 -26.554687,-4.89844 -35.71875,0 -57.527344,23.226566 -57.6914065,54.996097 0,16.59375 5.6953125,30.820313 14.8593745,39.667969 10.429688,9.9609374 23.707032,14.0624999 39.832032,14.0624999 14.378906,0 26.542968,-3.6328125 32.707031,-5.8476562 z m 20.542965,55.94531244 h 13.75782 V -40.770908 c 0,-2.378906 0.3164,-4.582031 0.63281,-6.480469 1.89844,-10.429687 8.84765,-17.859375 18.64453,-17.859375 1.89844,0 3.31641,0.152344 4.74609,0.46875 v -13.113281 c -1.26562,-0.316406 -2.3789,-0.480469 -3.96093,-0.480469 -9.31641,0 -17.69532,6.480469 -21.17579,16.757813 h -0.63281 l -0.46875,-15.011719 h -12.16406 c 0.46875,7.113281 0.62109,14.847656 0.62109,23.859375 z m 105.89649,0 C 218.57371,-5.2162203 218.2573,-11.696689 218.2573,-18.329502 V -46.93497 c 0,-15.328125 -5.69531,-31.300782 -29.08593,-31.300782 -9.63282,0 -18.8086,2.695313 -25.125,6.796875 l 3.16406,9.175782 c 5.36719,-3.480469 12.79687,-5.695313 19.91015,-5.695313 15.64454,0 17.37891,11.378906 17.37891,17.695313 v 1.582031 c -29.54297,-0.152344 -45.98437,9.960937 -45.98437,28.453125 0,11.0624999 7.89843,21.9609374 23.39062,21.9609374 10.89844,0 19.125,-5.3671875 23.39063,-11.3789062 h 0.46875 l 1.11328,9.64453124 z M 204.8159,-25.759189 c 0,1.417969 -0.31641,3 -0.78516,4.417969 -2.21484,6.480468 -8.53125,12.8085934 -18.49219,12.8085934 -7.11328,0 -13.11328,-4.2656254 -13.11328,-13.2773434 0,-14.859375 17.22656,-17.542969 32.39063,-17.226563 z m 35.87402,57.046875 h 13.75781 V -10.27872 h 0.31641 c 4.58203,7.5937497 13.42969,12.0117184 23.54297,12.0117184 18.02344,0 34.76953,-13.5820314 34.76953,-41.0859374 0,-23.226563 -13.91016,-38.882813 -32.40234,-38.882813 -12.48047,0 -21.49219,5.53125 -27.17579,14.859375 h -0.3164 l -0.63281,-13.113281 h -12.48047 c 0.3164,7.265625 0.62109,15.164063 0.62109,24.972656 z m 13.75781,-75.539063 c 0,-1.898437 0.46875,-3.949218 0.94922,-5.695312 2.6836,-10.429688 11.53125,-17.226563 21.01172,-17.226563 14.70703,0 22.75781,13.125 22.75781,28.453125 0,17.542969 -8.53125,29.5546879 -23.22656,29.5546879 -9.96094,0 -18.33984,-6.6445309 -20.85937,-16.2773439 -0.31641,-1.746094 -0.63282,-3.632812 -0.63282,-5.695312 z m 76.16895,44.25000044 h 13.91015 V -46.149814 c 0,-2.683594 0.16407,-4.734375 0.94922,-6.632813 2.53125,-7.59375 9.64453,-13.910156 18.65625,-13.910156 13.11328,0 17.69532,10.429688 17.69532,22.757813 v 43.93359344 h 13.91015 V -45.517002 c 0,-26.390625 -16.4414,-32.71875 -26.70703,-32.71875 -5.21484,0 -10.125,1.582032 -14.22656,3.960938 -4.26563,2.367187 -7.7461,5.847656 -9.96094,9.796875 h -0.31641 v -47.730471 h -13.91015 z m 101.62207,0 V -76.489658 H 418.32859 V -0.00137656 Z M 425.28953,-106.67716 c -5.0625,0 -8.69531,3.79688 -8.69531,8.695315 0,4.734375 3.48047,8.53125 8.3789,8.53125 5.53125,0 9.01172,-3.796875 8.84766,-8.53125 0,-4.898435 -3.31641,-8.695315 -8.53125,-8.695315 z m 82.18066,93.39844 c -3.94921,1.746093 -9.16406,3.7968747 -17.07421,3.7968747 -15.16407,0 -26.54297,-10.9101567 -26.54297,-28.6054687 0,-15.960938 9.48047,-28.921875 27.02343,-28.921875 7.58204,0 12.79688,1.734375 16.11329,3.632812 l 3.16406,-10.746093 c -3.79688,-1.898438 -11.0625,-3.949219 -19.27735,-3.949219 -24.97265,0 -41.09765,17.0625 -41.09765,40.617187 0,23.390625 15.02344,39.0351567 38.09765,39.0351567 10.26563,0 18.32813,-2.53125001 21.96094,-4.4296875 z m 0,0" style="fill:#009944;fill-opacity:1;fill-rule:nonzero;stroke:none" aria-label="Graphic" transform="matrix(1.3333333,0,0,1.3333333,74.9512,1005.5839)" />
      <path id="path64" d="m 0,0 h -35.085 v -11.063 h 21.651 v -31.766 c -3.16,-1.58 -9.324,-2.845 -18.332,-2.845 -24.813,0 -41.091,15.963 -41.091,42.987 0,26.709 16.911,42.83 42.829,42.83 10.747,0 17.859,-2.055 23.549,-4.584 l 3.318,11.221 c -4.583,2.213 -14.223,4.899 -26.55,4.899 -35.718,0 -57.527,-23.232 -57.685,-54.998 0,-16.594 5.689,-30.818 14.855,-39.668 10.431,-9.956 23.707,-14.066 39.827,-14.066 14.381,0 26.55,3.636 32.714,5.848 z" style="fill:none;stroke:#009944;stroke-width:3;stroke-linecap:butt;stroke-linejoin:miter;stroke-miterlimit:10;stroke-dasharray:none;stroke-opacity:1" transform="matrix(1.3333333,0,0,-1.3333333,199.06573,930.9888)" />
      <path id="path65" d="m 0,0 h 13.75 v 40.774 c 0,2.371 0.315,4.583 0.631,6.48 1.897,10.431 8.851,17.859 18.649,17.859 1.897,0 3.319,-0.158 4.741,-0.474 v 13.117 c -1.264,0.316 -2.37,0.474 -3.951,0.474 -9.324,0 -17.7,-6.48 -21.177,-16.752 H 12.011 L 11.537,76.492 H -0.632 C -0.158,69.38 0,61.636 0,52.627 Z" style="fill:none;stroke:#009944;stroke-width:3;stroke-linecap:butt;stroke-linejoin:miter;stroke-miterlimit:10;stroke-dasharray:none;stroke-opacity:1" transform="matrix(1.3333333,0,0,-1.3333333,226.45893,1005.5839)" />
      <path id="path66" d="m 0,0 c -0.948,5.215 -1.264,11.695 -1.264,18.333 v 28.605 c 0,15.33 -5.69,31.292 -29.08,31.292 -9.64,0 -18.807,-2.687 -25.128,-6.795 l 3.16,-9.167 c 5.374,3.477 12.802,5.69 19.914,5.69 15.646,0 17.384,-11.379 17.384,-17.701 v -1.581 c -29.553,0.158 -45.99,-9.956 -45.99,-28.447 0,-11.062 7.902,-21.967 23.39,-21.967 10.905,0 19.123,5.373 23.39,11.379 h 0.474 L -12.644,0 Z m -14.698,25.761 c 0,-1.423 -0.316,-3.003 -0.79,-4.426 -2.213,-6.479 -8.534,-12.801 -18.491,-12.801 -7.112,0 -13.117,4.267 -13.117,13.276 0,14.856 17.226,17.542 32.398,17.226 z" style="fill:none;stroke:#009944;stroke-width:3;stroke-linecap:butt;stroke-linejoin:miter;stroke-miterlimit:10;stroke-dasharray:none;stroke-opacity:1" transform="matrix(1.3333333,0,0,-1.3333333,367.64253,1005.5839)" />
      <path id="path67" d="m 0,0 h 13.75 v 41.564 h 0.315 c 4.583,-7.585 13.434,-12.01 23.548,-12.01 18.017,0 34.769,13.591 34.769,41.09 0,23.232 -13.907,38.878 -32.398,38.878 -12.485,0 -21.493,-5.531 -27.183,-14.856 h -0.316 l -0.632,13.118 H -0.632 C -0.316,100.514 0,92.612 0,82.813 Z m 13.75,75.543 c 0,1.897 0.474,3.951 0.948,5.69 2.686,10.431 11.536,17.226 21.019,17.226 14.698,0 22.758,-13.117 22.758,-28.447 0,-17.543 -8.535,-29.554 -23.232,-29.554 -9.957,0 -18.333,6.638 -20.862,16.278 -0.316,1.739 -0.631,3.636 -0.631,5.69 z" style="fill:none;stroke:#009944;stroke-width:3;stroke-linecap:butt;stroke-linejoin:miter;stroke-miterlimit:10;stroke-dasharray:none;stroke-opacity:1" transform="matrix(1.3333333,0,0,-1.3333333,395.87827,1047.3064)" />
      <path id="path68" d="m 0,0 h 13.907 v 46.148 c 0,2.686 0.158,4.741 0.948,6.638 2.529,7.586 9.641,13.907 18.649,13.907 13.118,0 17.701,-10.431 17.701,-22.758 V 0 h 13.908 v 45.516 c 0,26.393 -16.437,32.714 -26.709,32.714 -5.216,0 -10.115,-1.58 -14.224,-3.951 -4.267,-2.37 -7.744,-5.847 -9.956,-9.799 h -0.317 v 47.729 l -13.907,0 z" style="fill:none;stroke:#009944;stroke-width:3;stroke-linecap:butt;stroke-linejoin:miter;stroke-miterlimit:10;stroke-dasharray:none;stroke-opacity:1" transform="matrix(1.3333333,0,0,-1.3333333,515.77533,1005.5839)" />
      <path id="path69" d="M 0,0 V 76.492 H -13.907 V 0 Z m -6.954,106.677 c -5.057,0 -8.692,-3.793 -8.692,-8.692 0,-4.741 3.477,-8.534 8.376,-8.534 5.532,0 9.009,3.793 8.851,8.534 0,4.899 -3.319,8.692 -8.535,8.692 z" style="fill:none;stroke:#009944;stroke-width:3;stroke-linecap:butt;stroke-linejoin:miter;stroke-miterlimit:10;stroke-dasharray:none;stroke-opacity:1" transform="matrix(1.3333333,0,0,-1.3333333,651.26693,1005.5839)" />
      <path id="path70" d="m 0,0 c -3.951,-1.738 -9.167,-3.793 -17.068,-3.793 -15.172,0 -26.551,10.905 -26.551,28.605 0,15.962 9.482,28.922 27.025,28.922 7.586,0 12.801,-1.739 16.12,-3.635 l 3.161,10.747 c -3.793,1.896 -11.063,3.951 -19.281,3.951 -24.971,0 -41.091,-17.069 -41.091,-40.617 0,-23.39 15.014,-39.036 38.088,-39.036 10.272,0 18.332,2.529 21.968,4.425 z" style="fill:none;stroke:#009944;stroke-width:3;stroke-linecap:butt;stroke-linejoin:miter;stroke-miterlimit:10;stroke-dasharray:none;stroke-opacity:1" transform="matrix(1.3333333,0,0,-1.3333333,751.56907,987.88333)" />
      <path id="path71" d="m 12.013163,-0.31774531 c 6.949218,0.78515625 15.175781,1.265625 24.972656,1.265625 20.695312,0 37.136718,-5.37890629 47.097656,-15.32812469 9.949219,-9.796875 15.328125,-24.023438 15.328125,-41.414063 0,-17.226562 -5.53125,-29.542969 -15.011719,-38.238281 -9.328125,-8.695311 -23.390625,-13.277341 -43.148437,-13.277341 -10.910157,0 -20.859375,0.94922 -29.238281,2.21484 z M 25.759256,-94.981808 c 3.632813,-0.796875 9.011719,-1.417969 16.125,-1.417969 29.074219,0 43.300781,15.960938 43.136719,41.085938 0,28.757812 -15.960938,45.199219 -45.351563,45.199219 -5.378906,0 -10.429687,-0.164063 -13.910156,-0.796875 z m 153.146484,59.261719 c 0.15234,-1.417969 0.46875,-3.632813 0.46875,-6.480469 0,-14.0625 -6.63281,-36.035156 -31.60547,-36.035156 -22.28906,0 -35.88281,18.175781 -35.88281,41.25 0,23.074219 14.07422,38.5664062 37.61719,38.5664062 12.17578,0 20.54297,-2.53125001 25.4414,-4.7460938 l -2.36718,-9.9492184 c -5.21485,2.203125 -11.21485,3.9492184 -21.17579,3.9492184 -13.91015,0 -25.92187,-7.7460934 -26.23828,-26.5546874 z m -53.57812,-9.949219 c 1.10156,-9.644531 7.26562,-22.605469 21.32812,-22.605469 15.64453,0 19.44141,13.746094 19.28906,22.605469 z m 65.90332,42.0351564 c 5.36718,3.16406254 13.11328,5.2148438 21.49218,5.2148438 18.17578,0 28.60547,-9.4804688 28.60547,-22.9218752 0,-11.378906 -6.79687,-18.011719 -20.07422,-23.074219 -9.94922,-3.785156 -14.53125,-6.632812 -14.53125,-12.949218 0,-5.695313 4.58203,-10.429688 12.79688,-10.429688 7.11328,0 12.64453,2.519531 15.64453,4.417969 L 238.645,-73.48962 c -4.26563,-2.53125 -11.0625,-4.746094 -18.8086,-4.746094 -16.4414,0 -26.39062,10.125 -26.39062,22.441406 0,9.175781 6.48047,16.757813 20.22656,21.65625 10.27735,3.796875 14.22656,7.429688 14.22656,14.0625 0,6.328125 -4.74609,11.3789064 -14.85937,11.3789064 -6.94922,0 -14.22656,-2.8359374 -18.32813,-5.5312504 z m 81.86132,3.63281254 V -76.48962 H 259.18211 V -0.00133906 Z M 266.14305,-106.67712 c -5.0625,0 -8.69532,3.79687 -8.69532,8.695312 0,4.734375 3.48047,8.53125 8.37891,8.53125 5.53125,0 9.01172,-3.796875 8.84766,-8.53125 0,-4.898442 -3.31641,-8.695312 -8.53125,-8.695312 z m 83.76269,30.1875 -0.63281,11.53125 h -0.31641 c -3.3164,-6.316407 -10.59375,-13.277344 -23.87109,-13.277344 -17.54297,0 -34.45313,14.707031 -34.45313,40.617187 0,21.175782 13.59375,37.30078169 32.56641,37.30078169 11.84766,0 20.0625,-5.68359379 24.32812,-12.79687469 h 0.31641 v 8.5312497 c 0,19.2773433 -10.42969,26.7070313 -24.64453,26.7070313 -9.49219,0 -17.39063,-2.847656 -22.44141,-6 l -3.48047,10.582031 c 6.16407,4.113281 16.27735,6.328125 25.44141,6.328125 9.64453,0 20.39063,-2.214844 27.82031,-9.175781 7.42969,-6.632813 10.89844,-17.3789063 10.89844,-34.921875 v -44.414063 c 0,-9.316406 0.31641,-15.480468 0.63281,-21.011718 z m -2.21484,43.933593 c 0,2.367188 -0.31641,5.050782 -1.10157,7.429688 -3.01171,8.847656 -10.75781,14.214844 -19.28906,14.214844 -15.01172,0 -22.59375,-12.480469 -22.59375,-27.492188 0,-17.707031 9.48047,-28.921875 22.75781,-28.921875 10.11329,0 16.91016,6.632813 19.42969,14.695313 0.63281,1.898437 0.79688,3.949218 0.79688,6.328125 z m 35.86816,32.55468794 h 13.91016 V -45.985714 c 0,-2.378906 0.3164,-4.746094 0.94922,-6.480469 2.36718,-7.746094 9.48046,-14.226562 18.65625,-14.226562 13.11328,0 17.69531,10.277343 17.69531,22.59375 v 44.09765594 h 13.91015 V -45.669308 c 0,-26.238281 -16.4414,-32.566406 -27.02343,-32.566406 -12.64453,0 -21.49219,7.113281 -25.28907,14.390625 h -0.3164 l -0.79688,-12.644531 h -12.3164 c 0.46875,6.316406 0.62109,12.796875 0.62109,20.695312 z m 0,0" style="fill:#009944;fill-opacity:1;fill-rule:nonzero;stroke:none" aria-label="Design" transform="matrix(1.3333333,0,0,1.3333333,74.9512,1173.1151)" />
      <path id="path72" d="m 0,0 c 6.954,-0.79 15.172,-1.264 24.97,-1.264 20.703,0 37.14,5.373 47.096,15.33 9.957,9.798 15.33,24.022 15.33,41.406 0,17.227 -5.531,29.554 -15.014,38.246 -9.324,8.693 -23.39,13.276 -43.145,13.276 -10.904,0 -20.861,-0.949 -29.237,-2.213 z m 13.75,94.667 c 3.634,0.79 9.008,1.422 16.12,1.422 29.079,0 43.303,-15.962 43.145,-41.091 0,-28.763 -15.962,-45.199 -45.358,-45.199 -5.373,0 -10.431,0.158 -13.907,0.79 z" style="fill:none;stroke:#009944;stroke-width:3;stroke-linecap:butt;stroke-linejoin:miter;stroke-miterlimit:10;stroke-dasharray:none;stroke-opacity:1" transform="matrix(1.3333333,0,0,-1.3333333,90.966133,1172.6939)" />
      <path id="path73" d="m 0,0 c 0.158,1.422 0.474,3.635 0.474,6.479 0,14.066 -6.638,36.034 -31.608,36.034 -22.283,0 -35.875,-18.175 -35.875,-41.249 0,-23.074 14.066,-38.562 37.613,-38.562 12.169,0 20.546,2.529 25.445,4.741 l -2.37,9.957 c -5.216,-2.212 -11.221,-3.951 -21.178,-3.951 -13.908,0 -25.918,7.744 -26.235,26.551 z m -53.576,9.957 c 1.107,9.64 7.27,22.599 21.336,22.599 15.646,0 19.439,-13.749 19.281,-22.599 z" style="fill:none;stroke:#009944;stroke-width:3;stroke-linecap:butt;stroke-linejoin:miter;stroke-miterlimit:10;stroke-dasharray:none;stroke-opacity:1" transform="matrix(1.3333333,0,0,-1.3333333,313.48307,1125.492)" />
      <path id="path74" d="m 0,0 c 5.374,-3.161 13.117,-5.215 21.494,-5.215 18.174,0 28.605,9.482 28.605,22.916 0,11.379 -6.796,18.016 -20.071,23.073 -9.957,3.793 -14.54,6.638 -14.54,12.96 0,5.689 4.583,10.431 12.801,10.431 7.112,0 12.644,-2.529 15.646,-4.426 l 3.477,10.115 c -4.267,2.529 -11.063,4.741 -18.807,4.741 -16.436,0 -26.393,-10.114 -26.393,-22.442 0,-9.166 6.48,-16.752 20.23,-21.651 10.272,-3.793 14.224,-7.428 14.224,-14.065 0,-6.322 -4.742,-11.379 -14.856,-11.379 -6.954,0 -14.224,2.844 -18.333,5.531 z" style="fill:none;stroke:#009944;stroke-width:3;stroke-linecap:butt;stroke-linejoin:miter;stroke-miterlimit:10;stroke-dasharray:none;stroke-opacity:1" transform="matrix(1.3333333,0,0,-1.3333333,329.918,1168.2687)" />
      <path id="path75" d="M 0,0 V 76.492 H -13.907 V 0 Z m -6.954,106.677 c -5.057,0 -8.692,-3.793 -8.692,-8.692 0,-4.741 3.477,-8.534 8.376,-8.534 5.532,0 9.009,3.793 8.851,8.534 0,4.899 -3.319,8.692 -8.535,8.692 z" style="fill:none;stroke:#009944;stroke-width:3;stroke-linecap:butt;stroke-linejoin:miter;stroke-miterlimit:10;stroke-dasharray:none;stroke-opacity:1" transform="matrix(1.3333333,0,0,-1.3333333,439.07027,1173.1151)" />
      <path id="path76" d="m 0,0 -0.632,-11.537 h -0.316 c -3.319,6.322 -10.589,13.275 -23.864,13.275 -17.542,0 -34.453,-14.697 -34.453,-40.616 0,-21.178 13.592,-37.298 32.557,-37.298 11.853,0 20.07,5.69 24.338,12.801 h 0.316 v -8.534 c 0,-19.28 -10.431,-26.708 -24.654,-26.708 -9.483,0 -17.385,2.845 -22.442,6.005 l -3.477,-10.589 c 6.163,-4.109 16.278,-6.321 25.444,-6.321 9.641,0 20.388,2.212 27.815,9.166 7.429,6.638 10.905,17.385 10.905,34.927 v 44.409 c 0,9.325 0.317,15.489 0.632,21.02 z m -2.212,-43.936 c 0,-2.37 -0.316,-5.057 -1.106,-7.427 -3.003,-8.85 -10.747,-14.224 -19.282,-14.224 -15.013,0 -22.599,12.485 -22.599,27.499 0,17.701 9.482,28.921 22.758,28.921 10.114,0 16.91,-6.637 19.439,-14.697 0.632,-1.897 0.79,-3.951 0.79,-6.322 z" style="fill:none;stroke:#009944;stroke-width:3;stroke-linecap:butt;stroke-linejoin:miter;stroke-miterlimit:10;stroke-dasharray:none;stroke-opacity:1" transform="matrix(1.3333333,0,0,-1.3333333,541.4792,1071.1261)" />
      <path id="path77" d="m 0,0 h 13.907 v 45.99 c 0,2.37 0.317,4.741 0.948,6.479 2.371,7.744 9.483,14.224 18.649,14.224 13.118,0 17.701,-10.273 17.701,-22.6 V 0 h 13.908 v 45.674 c 0,26.235 -16.437,32.556 -27.026,32.556 -12.643,0 -21.493,-7.112 -25.286,-14.381 h -0.316 l -0.79,12.643 H -0.632 C -0.158,70.17 0,63.69 0,55.788 Z" style="fill:none;stroke:#009944;stroke-width:3;stroke-linecap:butt;stroke-linejoin:miter;stroke-miterlimit:10;stroke-dasharray:none;stroke-opacity:1" transform="matrix(1.3333333,0,0,-1.3333333,586.362,1173.1151)" />
      </g></svg>