<?xml version='1.0' encoding='utf-8'?>
<svg xmlns="http://www.w3.org/2000/svg" version="1.1" width="112.594" height="203.158" viewBox="451.094 1752.380 112.594 203.158"><defs id="defs1"><clipPath clipPathUnits="userSpaceOnUse" id="clipPath59">
      <path d="M 0,3370.3901 H 2383.9401 V -2.5000001e-5 H 0 Z" id="path59" />
    </clipPath>
  </defs><g id="object"><path id="path20" d="m 0,0 c 17.215,-0.515 29.867,-7.577 35.117,-23.88 5.204,-16.162 -0.229,-29.198 -13.77,-39.661 -5.549,-4.288 -18.001,-2.416 -15.579,-14.354 2.191,-10.801 6.194,-21.197 16.027,-27.875 11.007,-7.476 22.481,-14.923 14.31,-30.921 -1.72,-3.367 -3.774,-8.668 -10.273,-5.909 -28.833,12.241 -67.075,80.267 -61.938,112.233 C -32.889,-10.346 -19.679,-0.557 0,0" style="fill:#ffffff;fill-opacity:1;fill-rule:nonzero;stroke:none" transform="matrix(1.3333333,0,0,-1.3333333,505.8588,1758.3757)" />
      </g></svg>