<?xml version='1.0' encoding='utf-8'?>
<svg xmlns="http://www.w3.org/2000/svg" version="1.1" width="30.584" height="101.186" viewBox="1694.050 3955.930 30.584 101.186"><g id="object"><path id="path183" d="m 0,0 c 0,-12.97 0.092,-25.941 -0.058,-38.909 -0.043,-3.693 1.507,-8.511 -5.032,-8.922 -6.391,-0.402 -8.738,3.187 -8.344,8.618 0.941,12.961 -0.205,25.887 -0.125,38.828 0.024,3.996 -0.478,8.009 -0.244,11.985 0.195,3.326 -0.392,7.493 5.233,7.427 4.865,-0.056 8.458,-0.926 8.109,-6.979 C -0.692,8.044 -0.505,4.016 -0.505,0 -0.337,0 -0.168,0 0,0" style="fill:#494f57;fill-opacity:1;fill-rule:nonzero;stroke:none" transform="matrix(1.3333333,0,0,-1.3333333,1718.5339,3987.3016)" />
      </g></svg>