<?xml version='1.0' encoding='utf-8'?>
<svg xmlns="http://www.w3.org/2000/svg" version="1.1" width="102.954" height="116.138" viewBox="1457.810 4011.390 102.954 116.138"><g id="object"><path id="path358" d="M 0,0 C 7.391,0.576 15.59,1.244 23.619,3.264 25.08,3.631 26.718,3.923 28.144,3.626 29.738,3.294 30.813,1.783 30.72,0.135 30.666,-0.831 29.864,-1.973 29.062,-2.621 28.199,-3.319 26.973,-3.79 25.856,-3.916 17.281,-4.877 8.706,-5.868 0.108,-6.573 c -7.574,-0.62 -14.887,1.044 -21.875,3.795 -11.352,4.469 -16.427,12.561 -15.645,24.783 0.476,7.451 2.16,14.593 4.726,21.716 3.3,9.162 9.656,15.199 17.53,19.822 7.151,4.197 15.259,6.219 23.404,7.565 4.269,0.706 8.664,0.237 12.374,-2.504 0.509,-0.376 0.646,-1.318 0.852,-2.028 0.289,-0.992 -0.158,-1.54 -1.202,-1.611 -2.338,-0.158 -4.689,-0.566 -7.01,-0.437 -9.897,0.547 -18.341,-3.607 -26.699,-8.043 -3.564,-1.891 -5.881,-5.116 -8.323,-8.208 -7.22,-9.14 -8.654,-20.088 -9.07,-31.076 C -31.089,10.338 -26.892,5.632 -20.45,2.925 -14.117,0.265 -7.513,-0.01 0,0" style="fill:#4b475f;fill-opacity:1;fill-rule:nonzero;stroke:none" transform="matrix(1.3333333,0,0,-1.3333333,1513.7993,4112.5936)" />
      </g></svg>