<?xml version='1.0' encoding='utf-8'?>
<svg xmlns="http://www.w3.org/2000/svg" version="1.1" width="2322.745" height="273.788" viewBox="456.358 299.986 2322.745 273.788"><defs id="defs1"><clipPath clipPathUnits="userSpaceOnUse" id="clipPath31">
      <path d="M 0,3370.3901 H 2383.9401 V -2.5000001e-5 H 0 Z" id="path31" />
    </clipPath>
  </defs><g id="object"><path id="path11" d="m 18.327197,-14.405551 c 15.703125,10.4775712 46.675781,18.7790317 75.035156,18.7790317 69.363277,0 102.960937,-39.2707437 102.960937,-84.6466877 0,-43.199833 -25.3125,-67.177353 -75.04687,-86.379513 -40.570317,-15.71636 -58.453129,-29.23646 -58.453129,-56.71993 0,-20.06858 15.269531,-44.06625 55.406249,-44.06625 26.61328,0 46.24219,8.72459 55.83984,13.96338 l 10.46485,-30.96929 c -13.07813,-7.41489 -34.89844,-14.40666 -65.00391,-14.40666 -57.140623,0 -95.097654,34.03196 -95.097654,79.85119 0,41.44685 29.660156,66.31093 77.648434,83.31684 39.70313,15.27307 55.40625,30.98943 55.40625,58.472907 0,29.659587 -22.6875,50.171448 -61.511716,50.171448 -26.179687,0 -51.046875,-8.724593 -68.050781,-19.202164 z M 335.91997,0.00110955 377.80278,-153.13263 c 10.91016,-37.96105 17.44922,-66.75422 22.6875,-95.97052 h 0.86719 c 3.92578,29.65958 10.04297,58.45276 19.19531,95.97052 L 457.64263,0.00110955 h 39.70312 L 580.66606,-294.03582 h -38.82421 l -38.83594,148.31809 c -9.15235,36.65135 -17.44922,69.373612 -23.55469,101.652592 h -0.86719 c -4.37109,-30.969284 -12.22265,-65.867652 -20.50781,-100.766032 l -35.77734,-149.20465 h -39.69141 l -39.26953,148.31809 c -10.03125,37.96105 -19.19531,72.859419 -24,102.095874 h -0.86719 C 313.23247,-71.991896 305.38091,-108.6231 296.66216,-145.27445 L 261.752,-294.03582 H 221.61528 L 296.21685,0.00110955 Z M 617.30474,-294.03582 V 0.00110955 h 37.95703 V -294.03582 Z m 89.44336,279.630269 c 15.70312,10.4775712 46.67578,18.7790317 75.03515,18.7790317 69.36328,0 102.96094,-39.2707437 102.96094,-84.6466877 0,-43.199833 -25.3125,-67.177353 -75.04688,-86.379513 -40.57031,-15.71636 -58.45312,-29.23646 -58.45312,-56.71993 0,-20.06858 15.26953,-44.06625 55.40625,-44.06625 26.61328,0 46.24219,8.72459 55.83984,13.96338 l 10.46485,-30.96929 c -13.07813,-7.41489 -34.89844,-14.40666 -65.00391,-14.40666 -57.14062,0 -95.09766,34.03196 -95.09766,79.85119 0,41.44685 29.66016,66.31093 77.64844,83.31684 39.70313,15.27307 55.40625,30.98943 55.40625,58.472907 0,29.659587 -22.6875,50.171448 -61.51172,50.171448 -26.17968,0 -51.04687,-8.724593 -68.05078,-19.202164 z m 215.07421,0 c 15.70313,10.4775712 46.67579,18.7790317 75.03516,18.7790317 69.36333,0 102.96093,-39.2707437 102.96093,-84.6466877 0,-43.199833 -25.3125,-67.177353 -75.0469,-86.379513 -40.57028,-15.71636 -58.45309,-29.23646 -58.45309,-56.71993 0,-20.06858 15.26953,-44.06625 55.40629,-44.06625 26.6132,0 46.2421,8.72459 55.8398,13.96338 l 10.4648,-30.96929 c -13.0781,-7.41489 -34.8984,-14.40666 -65.0039,-14.40666 -57.14059,0 -95.09762,34.03196 -95.09762,79.85119 0,41.44685 29.66016,66.31093 77.64842,83.31684 39.7031,15.27307 55.4063,30.98943 55.4063,58.472907 0,29.659587 -22.6875,50.171448 -61.51175,50.171448 -26.17969,0 -51.04687,-8.724593 -68.05078,-19.202164 z m 381.72949,-78.078057 31.4063,92.48471755 h 40.5703 L 1275.1924,-294.03582 h -45.8086 L 1129.4815,0.00110955 h 39.2578 l 30.5391,-92.48471755 z m -96.4219,-29.679732 28.793,-85.06983 c 5.6719,-17.87231 10.4766,-35.76478 14.8359,-53.21397 h 0.8789 c 4.3594,17.00591 8.7188,34.45509 15.2696,53.65726 l 28.7929,84.62654 z m 211.585,-171.87248 V 0.00110955 h 37.957 V -294.03582 Z M 1522.9795,0.00110955 h 37.9571 V -127.38198 h 35.7773 c 34.4649,1.3097 50.168,16.56262 58.8985,57.143062 8.2851,36.651351 14.8242,61.9587162 19.6289,70.24002755 h 39.2578 c -6.1055,-11.34398655 -13.0782,-39.69387655 -22.6758,-80.71759855 -6.9844,-30.526001 -20.5078,-51.481141 -43.1953,-59.319171 v -1.3097 c 30.9726,-10.47757 55.4062,-36.20807 55.4062,-75.03553 0,-22.68797 -8.2851,-42.75655 -23.1211,-55.85352 -18.3281,-16.58277 -44.4961,-23.99767 -85.0781,-23.99767 -26.168,0 -53.6601,2.19626 -72.8555,6.10521 z M 1560.9366,-263.50981 c 6.1054,-1.73283 19.1953,-3.48581 37.5234,-3.48581 40.1367,0.44328 67.6172,17.0059 67.6172,54.96695 0,33.58868 -25.7344,55.85352 -66.3164,55.85352 h -38.8242 z m 0,0" style="fill:#2e3e38;fill-opacity:1;fill-rule:nonzero;stroke:none" aria-label="SWISSAIR" transform="matrix(1.3333333,0,0,0.77546596,456.6028,551.05773)" />
      <path id="path12" d="m 0,0 c 15.706,-6.089 46.68,-10.91 75.037,-10.91 69.365,0 102.957,22.835 102.957,49.223 0,25.119 -25.303,39.074 -75.036,50.238 -40.573,9.135 -58.459,17 -58.459,32.985 0,11.672 15.269,25.627 55.405,25.627 26.612,0 46.243,-5.075 55.841,-8.12 l 10.47,18.015 c -13.088,4.314 -34.901,8.373 -65.003,8.373 -57.149,0 -95.104,-19.791 -95.104,-46.432 0,-24.104 29.665,-38.567 77.654,-48.462 39.7,-8.881 55.405,-18.015 55.405,-34 0,-17.254 -22.686,-29.179 -61.513,-29.179 -26.175,0 -51.042,5.075 -68.056,11.164 z" style="fill:none;stroke:#2e3e38;stroke-width:20;stroke-linecap:butt;stroke-linejoin:miter;stroke-miterlimit:10;stroke-dasharray:none;stroke-opacity:1" transform="matrix(1.3333333,0,0,-1.3333333,481.0332,539.89373)" />
      <path id="path13" d="m 0,0 41.881,89.059 c 10.906,22.074 17.45,38.82 22.685,55.82 h 0.873 c 3.926,-17.254 10.034,-34 19.195,-55.82 L 121.716,0 h 39.7 l 83.326,171.013 H 205.915 L 167.087,84.746 c -9.161,-21.314 -17.45,-40.344 -23.558,-59.12 h -0.872 c -4.363,18.015 -12.216,38.313 -20.504,58.612 L 86.379,171.013 H 46.68 L 7.416,84.746 C -2.618,62.671 -11.779,42.373 -16.578,25.373 h -0.873 c -5.235,16.492 -13.088,37.805 -21.813,59.119 l -34.901,86.521 H -114.3 L -39.7,0 Z" style="fill:none;stroke:#2e3e38;stroke-width:20;stroke-linecap:butt;stroke-linejoin:miter;stroke-miterlimit:10;stroke-dasharray:none;stroke-opacity:1" transform="matrix(1.3333333,0,0,-1.3333333,904.4948,551.05773)" />
      <path id="path14" d="M 0,0 V -171.013 H 37.955 V 0 Z" style="fill:none;stroke:#2e3e38;stroke-width:20;stroke-linecap:butt;stroke-linejoin:miter;stroke-miterlimit:10;stroke-dasharray:none;stroke-opacity:1" transform="matrix(1.3333333,0,0,-1.3333333,1279.6739,323.04013)" />
      <path id="path15" d="m 0,0 c 15.706,-6.089 46.68,-10.91 75.037,-10.91 69.365,0 102.957,22.835 102.957,49.223 0,25.119 -25.303,39.074 -75.036,50.238 -40.573,9.135 -58.459,17 -58.459,32.985 0,11.672 15.269,25.627 55.405,25.627 26.612,0 46.243,-5.075 55.841,-8.12 l 10.47,18.015 c -13.088,4.314 -34.901,8.373 -65.003,8.373 -57.149,0 -95.104,-19.791 -95.104,-46.432 0,-24.104 29.665,-38.567 77.654,-48.462 39.7,-8.881 55.405,-18.015 55.405,-34 0,-17.254 -22.686,-29.179 -61.513,-29.179 -26.175,0 -51.042,5.075 -68.056,11.164 z" style="fill:none;stroke:#2e3e38;stroke-width:20;stroke-linecap:butt;stroke-linejoin:miter;stroke-miterlimit:10;stroke-dasharray:none;stroke-opacity:1" transform="matrix(1.3333333,0,0,-1.3333333,1398.9173,539.89373)" />
      <path id="path16" d="m 0,0 c 15.706,-6.089 46.68,-10.91 75.037,-10.91 69.365,0 102.957,22.835 102.957,49.223 0,25.119 -25.303,39.074 -75.036,50.238 -40.573,9.135 -58.459,17 -58.459,32.985 0,11.672 15.269,25.627 55.405,25.627 26.612,0 46.243,-5.075 55.841,-8.12 l 10.47,18.015 c -13.088,4.314 -34.901,8.373 -65.003,8.373 -57.149,0 -95.104,-19.791 -95.104,-46.432 0,-24.104 29.665,-38.567 77.654,-48.462 39.7,-8.881 55.405,-18.015 55.405,-34 0,-17.254 -22.686,-29.179 -61.513,-29.179 -26.175,0 -51.042,5.075 -68.056,11.164 z" style="fill:none;stroke:#2e3e38;stroke-width:20;stroke-linecap:butt;stroke-linejoin:miter;stroke-miterlimit:10;stroke-dasharray:none;stroke-opacity:1" transform="matrix(1.3333333,0,0,-1.3333333,1685.6836,539.89373)" />
      <path id="path17" d="m 0,0 31.411,-53.791 h 40.572 l -100.34,171.014 h -45.807 l -99.903,-171.014 h 39.263 L -104.266,0 Z M -96.413,17.253 -67.62,66.73 c 5.671,10.403 10.47,20.807 14.833,30.956 h 0.872 c 4.363,-9.896 8.726,-20.045 15.269,-31.209 L -7.853,17.253 Z" style="fill:none;stroke:#2e3e38;stroke-width:20;stroke-linecap:butt;stroke-linejoin:miter;stroke-miterlimit:10;stroke-dasharray:none;stroke-opacity:1" transform="matrix(1.3333333,0,0,-1.3333333,2194.6517,479.33707)" />
      <path id="path18" d="M 0,0 V -171.013 H 37.955 V 0 Z" style="fill:none;stroke:#2e3e38;stroke-width:20;stroke-linecap:butt;stroke-linejoin:miter;stroke-miterlimit:10;stroke-dasharray:none;stroke-opacity:1" transform="matrix(1.3333333,0,0,-1.3333333,2348.2155,323.04013)" />
      <path id="path19" d="M 0,0 H 37.955 V 74.089 H 73.728 C 108.192,73.328 123.898,64.447 132.623,40.85 140.912,19.537 147.456,4.821 152.255,0 h 39.263 c -6.107,6.597 -13.087,23.089 -22.685,46.94 -6.98,17.761 -20.504,29.94 -43.19,34.507 v 0.761 c 30.974,6.09 55.405,21.06 55.405,43.642 0,13.193 -8.289,24.865 -23.122,32.477 -18.322,9.641 -44.498,13.955 -85.071,13.955 -26.175,0 -53.66,-1.269 -72.855,-3.553 z m 37.955,153.252 c 6.108,1.015 19.195,2.03 37.518,2.03 40.136,-0.254 67.62,-9.895 67.62,-31.97 0,-19.537 -25.739,-32.477 -66.311,-32.477 H 37.955 Z" style="fill:none;stroke:#2e3e38;stroke-width:20;stroke-linecap:butt;stroke-linejoin:miter;stroke-miterlimit:10;stroke-dasharray:none;stroke-opacity:1" transform="matrix(1.3333333,0,0,-1.3333333,2487.2357,551.05773)" />
      </g></svg>