<?xml version='1.0' encoding='utf-8'?>
<svg xmlns="http://www.w3.org/2000/svg" version="1.1" width="2959.746" height="3055.550" viewBox="100.444 1007.970 2959.746 3055.550"><g id="object"><path id="path3" d="m 0,0 0.469,-0.332 0.067,0.544 z m -1057.071,145.617 c -0.151,0.131 -0.299,0.363 -0.454,0.368 -0.188,0.006 -0.381,-0.182 -0.571,-0.286 0.248,-0.221 0.497,-0.443 0.746,-0.664 0.093,0.194 0.186,0.388 0.279,0.582 M 117.609,-56.611 c -0.128,0.333 -0.229,0.683 -0.409,0.986 -0.037,0.063 -0.515,-0.008 -0.534,-0.084 -0.088,-0.332 -0.081,-0.689 -0.108,-1.036 0.349,0.043 0.699,0.087 1.051,0.134 M -602.584,1079.69 c -0.578,-0.771 -1.044,-1.181 -1.2,-1.687 -0.08,-0.263 0.487,-1.025 0.591,-0.993 0.524,0.157 1.27,0.409 1.4,0.805 0.128,0.391 -0.387,0.993 -0.791,1.875 M -1097.995,-23.584 c -0.186,0.385 -0.325,1.261 -0.787,1.494 -0.773,0.389 -1.37,-0.318 -1.369,-1.062 0,-0.616 0.243,-1.55 0.676,-1.779 0.767,-0.406 1.205,0.326 1.48,1.347 m 296.854,11.363 c -1.104,-0.191 -2.545,-0.156 -2.66,-1.603 -0.145,-1.826 1.46,-2.134 2.8,-2.258 1.142,-0.105 2.479,0.165 2.62,1.601 0.187,1.908 -1.359,2.068 -2.76,2.26 m -302.623,-23.023 c 1.983,0.876 3.316,2.45 3.603,4.667 0.181,1.402 -0.812,2.25 -2.175,1.903 -2.26,-0.576 -3.526,-2.194 -3.61,-4.543 -0.046,-1.299 0.504,-2.261 2.182,-2.027 m 11.612,0.367 c -0.124,1.595 -0.532,3.227 -2.259,3.056 -2.424,-0.241 -2.279,-2.624 -2.666,-4.353 -0.293,-1.307 0.438,-2.501 1.763,-2.479 2.368,0.039 2.94,1.9 3.162,3.776 M 149.947,-76.495 c 0.822,-3.934 -0.171,-7.42 2.856,-9.649 1.185,-0.873 2.147,0.596 2.381,1.748 0.759,3.724 -0.824,6.085 -5.237,7.901 m -997.448,-111.931 c 0.762,-2.287 2.866,-1.769 4.579,-1.812 2.057,-0.052 4.683,-0.376 4.966,2.507 0.272,2.766 -2.052,3.402 -4.279,3.458 -2.685,0.066 -4.297,-1.499 -5.266,-4.153 m 677.404,1917.739 c 3.602,6.048 2.106,11.512 2.219,16.766 0.031,1.437 -0.608,2.828 -2.313,3.053 -1.774,0.234 -2.139,-1.296 -2.956,-2.434 -4.6,-6.405 -0.825,-11.309 3.05,-17.385 M -763.073,-13.113 c 2.745,-0.101 6.301,0.03 5.574,2.825 -0.789,3.03 -2.918,8.072 -5.711,7.875 -2.874,-0.204 -8.868,0.932 -9.237,-3.236 -0.509,-5.742 5.953,-5.497 9.374,-7.464 m -303.743,-123.169 c -0.284,3.817 -7.724,12.046 -9.762,11.159 -7.459,-3.247 -0.574,-10.831 -4.306,-15.552 -1.011,-1.28 1.574,-2.701 2.539,-1.957 3.615,2.785 10.286,0.779 11.529,6.35 m 333.052,116.606 c 1.261,-0.403 3.468,-0.823 4.506,1.81 1.086,2.754 -1.331,3.682 -3.037,4.792 -2.352,1.531 -4.868,2.811 -7.19,4.383 -1.858,1.258 -3.707,4.167 -5.89,1.59 -2.704,-3.19 -4.181,-7.668 -3.446,-11.583 0.472,-2.517 4.424,-3.02 7.368,-1.896 2.206,0.842 4.354,1.849 7.689,0.904 m -149.853,-175.093 c 1.868,0.916 3.745,1.814 5.603,2.751 9.759,4.921 11.555,12.833 4.579,21.181 -1.809,2.165 -3.759,5.895 -7.314,3.747 -2.981,-1.803 -4.964,-4.998 -4.241,-8.998 0.501,-2.768 0.472,-5.802 1.665,-8.234 1.794,-3.662 1.601,-6.696 -0.292,-10.447 m 643.432,2014.614 c 3.506,-3.794 6.52,-1.753 9.294,-0.214 2.888,1.602 5.832,1.407 7.88,-0.565 2.225,-2.142 -0.825,-3.607 -1.913,-5.197 -0.858,-1.255 -1.592,-2.482 -0.297,-3.752 1.254,-1.23 3.051,-1.9 4.582,-1.165 5.078,2.44 11.326,5.015 13.067,9.981 1.84,5.248 -0.215,11.642 -3.378,16.886 -0.775,1.285 -2.119,1.907 -3.584,2.022 -7.176,0.564 -14.238,-0.27 -20.898,-2.917 -4.155,-1.651 -4.69,-6.876 -2.249,-8.577 7.649,-5.332 0.549,-5.2 -2.504,-6.502 m -147.779,-1587.381 0.279,-0.289 -0.263,0.304 c -1.343,4.115 -0.856,9.263 -7.056,12.019 1.533,-5.389 -0.526,-11.418 7.04,-12.034 M 95.95,626.058 c -4.193,-1.198 -3.677,-5.105 -4.485,-8.109 -3.803,-14.15 -9.143,-27.537 -19.939,-37.893 -2.805,-2.69 -6.653,-4.54 -10.327,-6.018 -5.179,-2.084 -8.887,-5.526 -12.862,-9.379 -6.354,-6.159 -14.607,-9.809 -22.732,-13.655 -14.792,-7.002 -31.452,-8.349 -45.867,-15.765 -8.015,-4.125 -16.839,-2.502 -24.251,-5.201 -8.82,-3.213 -17.909,-5.738 -26.702,-9.058 -6.193,-2.338 -12.17,-7.549 -17.674,-8.051 -10.561,-0.964 -19.499,-6.627 -29.824,-7.494 -5.399,-0.454 -10.687,-1.395 -16.176,-0.77 -5.167,0.589 -10.032,-0.079 -14.436,-3.794 -3.515,-2.966 -8.477,-3.032 -12.919,-3.03 -4.365,0.003 -7.481,5.371 -5.72,10.234 1.883,5.2 1.519,7.125 -4.301,4.643 -3.389,-1.445 -7.987,0.684 -10.43,-4.148 -0.687,-1.359 -2.624,0.543 -3.036,2.427 -2.184,9.989 -19.329,16.734 -27.593,10.973 -2.386,-1.663 -2.368,-3.978 -2.173,-6.331 0.942,-11.351 0.385,-22.947 4.074,-33.892 3.281,-9.732 7.308,-19.214 11.02,-28.8 0.502,-1.298 1.475,-2.533 1.575,-3.848 0.963,-12.554 7.776,-22.405 14.326,-32.524 2.525,-3.902 4.428,-8.224 7.064,-12.172 3.666,-5.489 6.649,-11.347 12.77,-14.739 1.263,-0.699 2.413,-2.563 2.625,-4.032 0.92,-6.373 3.495,-10.282 10.762,-8.758 1.6,0.336 2.652,-0.718 3.3,-2.123 5.729,-12.419 12.311,-24.352 15.558,-37.964 2.001,-8.383 4.546,-17.543 12.893,-22.892 2.104,-1.348 1.522,-3.61 1.726,-5.749 1.087,-11.42 0.742,-22.852 4.343,-34.206 2.117,-6.678 2.034,-14.436 4.853,-21.122 6.489,-15.389 10.698,-31.528 16.383,-47.152 1.96,-5.386 6.028,-10.034 6.772,-16.129 0.142,-1.163 1.445,-2.468 2.552,-3.182 5.084,-3.282 9.636,-6.382 2.104,-11.967 -2.155,-1.598 -0.536,-3.306 0.851,-4.735 4.593,-4.731 9.156,-9.492 13.725,-14.247 0.477,-0.496 1.391,-1.145 1.299,-1.533 -2.208,-9.341 6.077,-16.497 5.259,-25.564 -0.274,-3.026 -1.276,-7.088 0.924,-8.941 6.842,-5.762 5.683,-12.846 4.855,-20.203 -0.691,-6.134 3.869,-11.007 4.482,-16.886 0.259,-2.479 1.674,-4.921 -2.806,-5.494 -2.981,-0.38 -3.058,-3.889 -3.045,-6.491 0.016,-3.061 0.691,-6.142 0.487,-9.175 -0.234,-3.466 1.186,-10.685 3.003,-13.033 3.486,-4.506 6.841,-7.567 13.596,-8.357 8.913,-1.043 18.853,-2.068 25.343,-10.477 3.902,-5.055 6.819,-9.805 1.832,-15.742 -1.359,-1.616 -1.68,-3.524 -0.108,-5.151 2.426,-2.51 4.749,-6.55 8.5,-5.54 5.21,1.402 9.443,-2.096 14.432,-1.402 4.205,0.584 3.52,-3.592 4.198,-6.111 0.857,-3.182 0.741,-5.904 6.033,-5.758 7.7,0.214 12.398,-6.419 16.979,-11.594 5.533,-6.252 8.763,-7 15.53,-1.331 5.054,4.234 7.723,3.469 9.524,-2.728 1.731,-5.958 12.219,-14.888 18.313,-15.652 1.627,-0.204 2.473,0.812 3.637,1.674 6.661,4.939 13.076,2.258 14.952,-6.111 1.845,-8.233 8.744,-10.897 15.254,-5.862 3.749,2.899 7.028,2.247 11.645,0.845 9.977,-3.029 14.987,-6.453 8.295,-17.292 -1.603,-2.598 2.334,-5.451 5.474,-6.064 3.262,-0.637 4.072,1.973 3.864,4.524 -0.614,7.515 3.98,5.842 8.216,4.8 4.173,-1.027 8.043,-4.853 9.048,-7.354 4.047,-10.075 13.559,-14.108 20.298,-21.089 5.867,-6.078 13.94,-10.435 14.277,-20.834 0.127,-3.944 4.08,-3.459 7.039,-0.974 6.558,5.507 8.081,4.92 13.577,-1.368 5.87,-6.714 12.279,-13.023 18.975,-18.916 2.627,-2.313 4.148,-4.613 3.984,-7.754 -0.319,-6.158 4.057,-8.627 8.24,-11.333 0.758,-0.49 2.132,-1.221 2.514,-0.926 7.459,5.769 13.451,-1.256 20.027,-2.429 2.552,-0.456 4.419,-0.323 6.663,0.633 9.025,3.847 12.57,1.657 13.788,-8.035 0.701,-5.574 -3.42,-9.639 -4.309,-14.754 -0.317,-1.826 -3.305,-1.348 -5.114,-0.84 -3.869,1.087 -7.638,2.553 -11.534,3.517 -3.788,0.937 -7.038,0.407 -8.32,-4.189 -1.254,-4.497 1.146,-5.973 4.899,-6.783 9.34,-2.015 17.764,-5.573 24.472,-12.889 2.075,-2.263 4.982,-4.387 8.363,-5.171 1.402,-0.324 3.575,-1.23 3.182,-2.327 -1.774,-4.953 1.017,-10.769 -1.68,-14.94 -6.289,-9.729 -4.788,-19.103 -1.173,-29.064 4.061,-11.19 7.749,-23.249 4.694,-34.663 -3.061,-11.435 -6.744,-22.987 -12.172,-33.878 -3.7,-7.425 -10.177,-12.407 -14.075,-18.896 -4.852,-8.079 -13.738,-12.784 -16.668,-22.024 -0.335,-1.057 -1.184,-2.488 -2.081,-2.745 -8.078,-2.313 -11.64,-9.048 -15.639,-15.436 -1.926,-3.076 -4.746,-4.307 -8.487,-3.91 -13.793,1.466 -27.067,-2.312 -40.561,-4.051 -14.304,-1.844 -27.44,-8.84 -41.831,-9.574 -17.528,-0.893 -34.742,0.855 -51.551,7.035 -9.395,3.453 -18.952,7.009 -29.234,7.993 -4.503,0.431 -9.679,2.149 -12.984,5.06 -6.993,6.158 -15.79,6.929 -23.793,10.051 -5.402,2.107 -12.914,2.546 -8.905,12.152 1.425,3.413 -4.924,6.819 -9.588,4.43 -3.873,-1.984 -6.793,-1.715 -10.62,-0.257 -2.946,1.123 -6.59,1.128 -9.807,0.717 -23.748,-3.04 -47.562,-1.603 -71.366,-1.584 -6.792,0.005 -13.55,-1.527 -20.36,0.33 -1.43,0.39 -3.85,0.111 -4.709,-0.849 -5.456,-6.101 -13.797,-4.414 -20.178,-7.846 -0.408,-0.219 -1.027,-0.54 -1.33,-0.386 -8.224,4.183 -8.696,0.473 -6.51,-6.241 0.117,-0.361 -1.139,-1.512 -1.922,-1.751 -1.489,-0.453 -3.344,0.211 -3.406,1.639 -0.16,3.646 -1.23,4.036 -4.212,2.177 -3.347,-2.087 -5.164,-0.889 -5.575,3.068 -0.722,6.957 -4.995,9.394 -11.347,7.598 -8.724,-2.465 -17.98,1.709 -26.494,-2.452 -1.053,-0.515 -2.6,-0.488 -3.254,-1.269 -4.099,-4.89 -6.651,-4.37 -9.107,1.612 -1.184,2.883 -4.531,1.512 -7.078,1.096 -12.859,-2.103 -25.82,-2.858 -38.682,-0.712 -10.115,1.688 -20.007,4.686 -30.094,6.59 -8.591,1.622 -14.009,7.299 -18.088,14.032 -3.958,6.534 -9.329,10.487 -16.3,12.519 -2.811,0.82 -4.607,1.279 -2.516,4.546 1.514,2.366 0.687,4.186 -1.233,6.23 -4.001,4.257 -7.619,8.878 -11.35,13.386 -1.075,1.298 -2.057,2.882 -1.631,4.553 1.188,4.654 2.639,9.241 4.094,14.222 5.332,-7.415 6.704,-7.414 12.638,-0.722 1.681,1.896 3.201,4.813 6.261,3.767 6.476,-2.213 6.453,2.332 5.829,5.949 -0.821,4.767 2.95,8.391 2.14,13.124 -0.56,3.267 -0.851,6.104 -4.528,7.102 -3.558,0.965 -4.729,-0.451 -5.635,-4.055 -0.875,-3.484 -6.179,-3.089 -8.47,0.17 -5.046,7.176 -7.996,15.225 -10.258,23.607 -1.677,6.217 2.547,6.051 6.668,7.138 2.531,0.668 6.391,-2.391 7.335,1.372 0.933,3.721 -3.039,5.423 -5.505,7.517 -1.584,1.345 -3.875,1.699 -4.866,3.927 -1.844,4.143 -0.873,6.889 4.364,10.477 -3.534,3.41 -8.625,2.61 -12.272,4.95 -3.035,1.947 -7.988,3.576 -1.452,7.71 3.068,1.94 2.187,4.567 -0.834,5.975 -3.278,1.528 -5.36,4.552 -9.768,5.005 -4.999,0.514 -2.799,5.815 -1.335,8.029 4.603,6.967 8.284,13.414 1.05,20.911 -1.366,1.415 0.626,2.356 1.82,3.048 2.384,1.382 4.412,3.459 7.642,1.16 9.436,-6.715 14.321,-5.24 17.792,5.023 1.515,4.481 -0.392,6.626 -5.124,5.764 -9.216,-1.677 -15.181,0.22 -17.313,5.434 -1.639,4.009 -0.762,6.961 3.926,6.597 7.868,-0.611 13.998,4.694 21.419,5.598 3.135,0.382 4.217,2.988 0.401,4.358 -9.623,3.455 -16.047,13.908 -27.845,12.613 -1.591,-0.175 -3.427,0.608 -3.755,2.593 -0.376,2.277 1.233,3.477 3.045,4.233 2.494,1.04 5.159,0.889 7.704,0.317 5.978,-1.345 9.002,2.987 9.728,7.033 0.869,4.85 -4.028,5.378 -7.947,5.728 -2.587,0.231 -5.114,0.741 -7.756,0.184 -1.827,-0.385 -4.039,-0.591 -4.885,1.684 -0.85,2.284 0.916,3.731 2.621,4.407 5.358,2.124 10.743,4.304 16.303,5.748 3.582,0.93 4.483,1.479 4.295,5.885 -0.215,5.011 -5.874,10.46 0.43,15.717 1.602,1.336 -1.664,2.67 -3.251,3.524 -5.883,3.167 -6.674,6.094 -1.562,9.757 5.05,3.619 4.615,7.723 5.164,13.197 1.369,13.664 -6.263,25.541 -5.811,38.728 0.089,2.594 -1.081,2.432 -2.919,2.574 -4.347,0.335 -6.222,4.312 -5.032,7.023 2.266,5.163 -0.754,8.57 -3.531,10.282 -5.861,3.613 -6.917,10.874 -12.787,14.433 -3.516,2.13 -2.119,13.068 1.908,15.986 4.207,3.047 4.77,6.629 3.695,11.143 -0.546,2.29 -0.483,5.389 -2.752,6.186 -2.996,1.052 -2.51,-2.645 -3.757,-4.087 -1.67,-1.93 -4.104,-2.211 -5.758,-0.93 -2.728,2.115 0.084,4.134 0.938,6.127 0.986,2.298 6.999,1.461 4.281,5.652 -2.264,3.49 -5.548,-0.081 -8.39,-0.421 -0.43,-0.052 -0.893,0.163 -1.62,0.312 2.767,4.989 2.625,8.688 -3.453,11.414 -4.913,2.203 -5.613,11.11 -1.556,14.89 1.896,1.768 2.067,3.528 1.755,5.701 -0.234,1.628 -1.28,3.899 -0.578,4.784 6.144,7.741 -1.171,11.124 -4.831,15.618 -4.074,5.002 -6.032,9.987 -1.53,15.88 2.787,3.648 1.144,8.186 -1.051,10.556 -7.032,7.589 -4.629,16.074 -3.497,24.429 0.511,3.77 -0.089,7.081 -1.641,10.295 -0.946,1.961 -3.242,4.289 -4.962,2.263 -7.052,-8.307 -10.823,0.076 -13.074,3.486 -6.623,10.037 -11.838,21 -17.661,31.569 -1.089,1.975 -1.729,3.935 -0.75,6.072 1.798,3.929 0.113,6.649 -1.856,10.27 -3.305,6.075 -3.949,13.211 -3.772,20.331 0.181,7.272 -1.639,13.894 -8.037,18.56 -2.726,1.987 -5.566,1.666 -6.852,-0.59 -2.743,-4.807 -8.407,-8.219 -8.152,-14.427 0.326,-7.955 -7.972,-10.39 -10.008,-17.093 -2.861,-9.422 -8.687,-18.376 -10.297,-27.665 -1.609,-9.279 -4.467,-20.392 3.958,-29.479 3.314,-3.575 1.471,-9.181 0.855,-13.781 -0.395,-2.941 -0.238,-5.605 0.529,-8.354 -0.223,-0.225 -0.454,-0.444 -0.691,-0.655 -5.447,-0.292 -8.173,-2.962 -7.989,-8.618 0.178,-5.432 -1.708,-10.076 -5.606,-14.051 -5.138,-5.242 -7.821,-11.559 -7.342,-19.081 0.21,-3.308 -1.774,-5.366 -4.76,-6.252 -3.204,-0.952 -4.785,-2.954 -4.703,-6.207 0.351,-13.792 -2.914,-25.668 -17.228,-31.244 -6.768,-2.636 -9.821,-7.13 -10.468,-14.413 -0.392,-4.405 -1.141,-11.653 -8.979,-5.495 -1.27,0.998 -2.351,0.304 -2.84,-0.885 -1.328,-3.23 -4.563,-6.284 -3.236,-9.88 4.378,-11.866 -3.541,-19.7 -8.849,-28.304 -3.629,-5.883 -6.013,-13.229 -14.302,-14.703 -2.032,-0.362 -4.141,-1.784 -6.002,0.145 -2.132,2.209 -0.679,4.451 0.364,6.533 1.795,3.584 3.027,7.425 5.534,10.692 2.984,3.89 -0.939,8.392 0.627,12.409 1.491,3.825 2.499,7.62 1.665,12.147 -5.225,-0.724 -7.017,-4.817 -9.134,-8.644 -5.199,-9.397 -10.451,-18.765 -15.749,-28.106 -1.007,-1.776 -1.463,-3.501 -0.539,-5.37 3.388,-6.85 3.402,-6.843 0.24,-12.95 4.328,0.154 8.118,0.167 6.22,-6.177 -2.084,-6.965 -4.528,-9.166 -10.676,-7.621 -5.19,1.304 -10.027,2.857 -15.89,1.454 -10.01,-2.396 -11.612,-11.103 -15.318,-18.037 -2.226,-4.163 -4.558,-8.785 -3.898,-14.142 0.391,-3.173 -1.052,-5.444 -4.583,-2.808 -2.94,2.195 -6.262,1.919 -9.539,2.009 -2.917,0.08 -5.744,0.307 -7.815,2.65 -1.661,1.879 -4.913,3.185 -4.206,6.086 0.783,3.213 4.398,-0.399 6.096,1.612 -1.645,6.894 -11.846,13.705 -18.31,11.925 -3.431,-0.944 -4.291,-3.2 -2.152,-6.528 1.414,-2.199 4.358,-4.325 2.094,-7.533 -2.155,-3.055 -5.192,-1.45 -7.866,-1.042 -8.128,1.241 -15.646,-2.169 -23.572,-2.914 -0.391,-3.226 1.343,-5.302 3.718,-7.109 1.193,-0.908 2.008,-2.163 1.126,-3.677 -0.886,-1.521 -2.419,-1.535 -3.722,-0.767 -2.832,1.67 -6.123,0.818 -8.952,1.746 -3.8,1.248 -8.256,3.024 -3.568,8.242 1.507,1.678 1.952,4.15 0.369,5.018 -3.566,1.956 -5.937,6.523 -10.688,5.829 -4.382,-0.639 -8.703,-1.628 -13.031,-2.846 -6.914,-1.947 -6.113,-4.833 -3.347,-9.577 2.035,-3.49 3.936,-3.644 6.565,-0.851 1.879,1.997 4.009,3.692 6.742,1.533 1.239,-0.979 2.907,-3.08 0.251,-3.752 -9.057,-2.293 -1.01,-4.626 0.004,-6.61 0.513,-1.004 2.318,-1.349 3.398,-1.918 -0.065,-1.474 -0.844,-2.153 -1.803,-2.077 -12.07,0.953 -23.759,3.258 -34.59,9.1 -7.845,4.232 -15.536,8.942 -24.527,10.545 -2.942,0.525 -5.422,0.401 -8.606,-0.862 -4.631,-1.836 -10.13,0.347 -14.392,3.095 -4.444,2.867 -7.393,3.344 -8.798,-2.553 -0.848,-3.556 -3.947,-5.328 -6.156,-7.61 -2.857,-2.952 -3.773,0.52 -4.735,2.547 -1.169,2.463 -1.688,6.47 -5.135,5.583 -3.181,-0.819 -2.15,-4.74 -2.401,-7.501 -0.579,-6.354 -1.109,-12.719 -1.961,-19.038 -0.431,-3.204 -0.655,-6.208 1.912,-8.555 1.385,-1.266 2.483,-2.31 0.78,-4.032 -1.346,-1.362 -3.09,-1.846 -4.413,-0.442 -3.457,3.667 -6.984,3.257 -11.433,1.739 -4.365,-1.49 -12.979,0.39 -3.469,-7.386 1.982,-1.62 -0.384,-3.39 -0.894,-5.077 -0.688,-2.274 -1.561,-5.058 0.776,-6.467 2.1,-1.266 2.966,1.662 4.324,2.771 5.413,4.423 9.757,3.058 11.309,-3.853 1.288,-5.733 3.044,-11.551 -0.245,-17.275 -1.299,-2.261 0.428,-3.965 1.136,-5.929 1.965,-5.446 -0.427,-10.286 -5.853,-10.439 -3.899,-0.11 -5.91,-1.935 -8.363,-4.244 -2.748,-2.588 -5.944,-5.442 -9.199,-0.263 -1.455,2.315 -3.346,2.087 -4.169,-0.318 -2.619,-7.653 -6.366,-3.867 -9.787,-1.009 -1.711,1.428 -2.718,4.733 -5.514,2.596 -2.946,-2.254 0.114,-3.996 1.273,-5.857 2.043,-3.281 3.967,-6.636 6.413,-10.753 -8.409,3.564 -10.473,2.009 -9.784,-5.664 0.419,-4.673 2.646,-5.698 6.645,-4.118 3.964,1.566 8.07,2.898 11.784,4.933 4.304,2.358 8.227,4.339 13.182,1.541 2.451,-1.384 4.412,0.753 6.175,2.37 2.192,2.011 4.691,3.101 7.753,2.85 3.455,-0.285 4.563,-1.584 3.173,-5.111 -1.966,-4.99 -4.262,-8.175 -10.412,-5.516 -4.376,1.891 -8.869,-0.52 -13.258,-1.106 -3.295,-0.44 -3.224,-2.985 -1.337,-5.31 2.303,-2.837 1.912,-5.153 -0.168,-8.229 -3.439,-5.086 -5.155,-10.963 -5.242,-17.955 4.67,2.234 8.016,4.675 9.575,9.308 1.05,3.12 2.484,6.152 4.094,9.028 1.323,2.362 3.823,2.55 6.294,2.231 2.56,-0.33 2.669,-2.074 2.587,-4.178 -0.14,-3.637 2.507,-4.037 5.285,-4.221 2.544,-0.17 5.825,0.266 6.206,-3.222 0.347,-3.171 -2.944,-4.113 -5.104,-5.165 -2.718,-1.323 -5.907,-2.786 -8.746,-2.535 -6.862,0.606 -7.654,-3.438 -7.228,-8.356 0.562,-6.504 -0.192,-10.8 -8.542,-11.023 -3.986,-0.106 -8.665,-2.022 -11.731,-5.789 -2.79,-3.427 -7.453,-4.05 -10.417,-2.385 -7.553,4.243 -8.274,-2.706 -9.378,-5.877 -3.511,-10.077 -9.455,-16.075 -20.53,-15.933 -3.766,0.049 -6.538,-1.864 -7.988,-4.989 -2.218,-4.779 -6.659,-8 -8.459,-13.062 -1.073,-3.018 -3.54,-3.43 -6.411,-2.021 -3.641,1.786 -7.308,3.429 -8.705,7.754 -1.37,4.24 -3.544,4.545 -6.632,1.374 -4.238,-4.351 -8.154,-8.972 -14.961,-9.841 -3.584,-0.458 -3.982,-4.996 -6.128,-7.418 -3.275,-3.699 -6.303,-9.887 -11.648,-1.787 -1.562,2.367 -3.874,0.938 -5.666,-0.243 -7.493,-4.94 -14.829,-9.025 -22.012,0.621 -1.347,1.808 -3.87,1.304 -6.038,0.91 -7.707,-1.401 -15.543,-0.61 -23.343,-1.5 -11.216,-1.28 -13.06,2.053 -13.697,13.685 -0.445,8.118 -4.122,16.36 -8.867,22.493 -3.075,3.976 -11.067,4.667 -17.052,5.761 -11.079,2.025 -13.251,4.739 -10.155,15.276 0.777,2.645 -1.179,4.492 -1.27,6.817 -0.056,1.422 -0.288,3.005 1.234,3.764 1.653,0.824 2.57,-0.44 3.416,-1.639 0.941,-1.333 1.653,-3.1 2.946,-3.852 2.275,-1.324 5.387,-4.699 7.386,-1.909 2.467,3.445 -2.501,3.287 -4.15,4.623 -4.995,4.048 -5.649,13.382 -0.815,18.078 4.92,4.778 -0.964,6.392 -2.622,9.017 -2.072,3.28 -4.093,2.203 -5.702,-0.846 -2.084,-3.948 -7.601,-6.013 -6.005,-12.06 0.531,-2.012 -1.58,-2.871 -3.361,-1.596 -1.934,1.385 -3.611,2.348 -5.467,0.056 -2.417,2.54 -4.687,5.37 -3.99,9.024 0.444,2.329 1.038,3.772 -1.721,5.083 -10.087,4.798 -10.544,5.824 -9.684,16.76 0.322,4.091 1.266,8.121 3.445,11.473 3.504,5.39 0.059,9.371 -3.459,10.998 -3.755,1.737 -9.442,2.613 -10.025,-5.291 -0.257,-3.476 -3.659,-6.034 -7.569,-6.478 -4.265,-0.484 -4.708,2.743 -5.6,5.839 -1.64,5.701 -5.848,9.943 -6.46,16.725 -0.889,9.849 -0.089,18.835 3.512,27.823 2.404,5.999 1.921,12.393 2.703,18.618 1.501,11.943 -1.179,24.486 4.717,35.872 1.089,2.101 1.148,4.299 0.813,7.079 -0.632,5.244 4.933,8.388 8.457,11.57 2.735,2.469 4.018,-1.351 5.193,-3.676 1.52,-3.01 3.452,-2.092 4.705,0.167 1.365,2.46 2.805,5.087 3.275,7.804 3.924,22.65 11.376,44.047 21.766,64.533 2.872,5.663 4.534,11.943 6.704,17.957 0.313,0.868 0.776,2.01 0.469,2.724 -5.746,13.379 3.528,24.618 5.55,36.827 1.516,9.156 1.77,9.316 -5.774,14.869 -4.263,3.139 -4.789,9.898 -4.027,15.567 0.632,4.706 4.104,3.386 7.175,2.713 2.997,-0.655 3.246,1.222 2.532,3.344 -0.747,2.22 -1.532,4.516 -2.794,6.458 -3.315,5.098 -4.682,10.254 -3.286,16.459 1.044,4.64 1.893,9.417 -1.696,14.145 -3.502,4.612 -1.121,8.47 4.657,7.834 4.639,-0.511 6.006,1.84 6.78,5.317 0.508,2.288 0.695,4.686 0.713,7.038 0.078,10.674 1.162,21.086 7.246,30.309 0.722,1.094 1.027,2.256 0.161,3.261 -4.028,4.673 -2.871,9.719 -0.709,14.514 1.399,3.101 0.756,4.326 -2.352,4.925 -2.331,0.449 -2.855,2.192 -2.747,4.291 0.117,2.261 1.388,3.298 3.528,3.738 5.482,1.13 6.658,5.368 7.003,10.091 0.427,5.846 -0.987,11.811 1.125,17.549 1.91,5.193 3.793,9.41 10.924,10.021 6.561,0.562 3.56,7.331 3.543,11.134 -0.019,4.276 -2.782,2.512 -5.916,1.542 -9.762,-3.024 -12.081,-0.504 -10.648,9.656 0.462,3.27 2.159,5.98 5.063,5.834 3.89,-0.196 9.309,1.973 11.448,-2.777 2.715,-6.028 6.647,-3.451 7.63,-0.582 3.169,9.252 12.03,13.078 17.348,20.133 0.694,0.92 2.192,2.025 2.012,2.692 -2.278,8.438 4.292,8.926 9.423,11.169 7.879,3.445 14.102,9.602 19.932,15.478 5.107,5.147 10.729,5.093 16.619,5.959 3.244,0.476 6.784,-0.398 9.656,1.688 2.236,1.624 8.386,2.585 1.156,6.485 -3.284,1.771 -1.38,4.232 1.448,4.798 6.626,1.325 13.487,3.759 19.256,-2.444 2.081,-2.239 4.869,-1.675 7.359,-0.969 11.965,3.393 23.921,5.836 36.149,1.186 0.85,-0.323 1.982,-0.496 2.805,-0.216 15.41,5.258 24.958,-5.361 35.087,-13.427 5.723,-4.559 12.624,-6.279 18.627,-9.959 1.239,-0.76 2.975,-1.005 3.966,0.22 6.372,7.869 13.88,3.788 21.154,2.147 2.078,-0.469 4.091,-1.283 6.186,-1.605 4.41,-0.678 8.296,-1.055 6.374,5.861 -1.308,4.705 4.542,10.916 7.921,8.593 10.311,-7.088 16.334,1.211 22.857,5.788 4.833,3.392 10.614,6.234 10.817,14.892 0.085,3.66 7.623,8.537 10.491,13.849 3.807,7.052 10.245,12.721 11.239,21.254 0.266,2.289 1.868,3.81 3.205,5.426 6.895,8.329 8.657,18.348 9.07,28.638 0.112,2.796 -0.249,5.085 2.644,6.518 0.572,0.284 1.315,1.071 1.287,1.589 -0.791,15.022 10.694,26.833 10.449,42.318 -0.1,6.311 -0.341,15.294 5.42,21.71 3.002,3.344 3.133,8.451 3.068,12.887 -0.103,7.039 1.457,13.513 4.121,19.965 4.587,11.112 4.301,23.455 8.344,34.746 0.668,1.866 -0.041,3.733 -1.032,5.432 -0.861,1.477 -1.83,3.6 -0.7,4.67 6.576,6.224 5.06,14.883 7.272,22.407 0.878,2.984 0.708,7.906 4.546,7.891 2.766,-0.01 3.693,-4.711 5.196,-7.428 0.861,-1.556 0.189,-3.909 1.813,-5.221 2.989,-2.414 2.933,-4.324 -0.222,-6.686 -2.217,-1.66 -2.871,-4.323 -1.841,-7.068 0.549,-1.467 1.778,-2.4 3.341,-1.912 2.794,0.872 3.746,3.356 4.609,5.868 2.675,7.791 1.826,15.901 2.078,23.893 0.081,2.557 -0.865,5.05 -2.969,6.994 -2.217,2.049 -2.078,4.838 -0.92,7.253 1.415,2.949 3.788,1.601 6.131,0.924 6.311,-1.825 5.691,1.993 4.426,5.904 -2.446,7.561 -1.787,14.893 1.202,22.148 0.557,1.352 0.924,2.818 2.691,2.802 2.163,-0.02 2.71,-1.658 2.837,-3.405 0.312,-4.31 1.286,-8.433 3.32,-12.259 0.766,-1.442 1.523,-3.168 3.607,-2.819 2.222,0.372 3.248,2.079 3.163,4.121 -0.292,6.98 0.491,14.291 -5.346,19.799 -0.506,0.478 -0.906,1.107 -1.23,1.731 -1.079,2.076 -2.641,4.15 -0.884,6.563 0.705,0.967 1.821,1.826 3.044,1.335 3.199,-1.283 -0.035,-4.353 1.721,-6.603 3.792,1.8 3.054,5.304 2.395,7.804 -2.725,10.35 -2.304,20.901 -2.686,31.409 -0.126,3.481 0.047,6.578 4.582,7.462 2.597,0.506 4.378,2.978 2.967,5.382 -2.331,3.97 -3.476,0.577 -4.79,-1.287 -0.665,-0.944 -1.825,-0.834 -2.254,0.156 -0.64,1.477 -1.451,3.214 -1.201,4.67 0.44,2.551 2.756,4.561 5.06,3.99 3.133,-0.776 4.4,-0.018 4.961,2.851 0.317,1.623 1.076,3.786 -0.399,4.663 -2.261,1.345 -3.725,-1.197 -5.437,-2.232 -1.494,-0.903 -2.454,-3.451 -4.697,-1.88 -1.601,1.121 -0.6,3.026 -0.649,4.636 -0.443,14.63 6.042,28.229 6.293,42.767 0.058,3.374 3.487,4.918 5.323,7.32 2.398,3.138 4.305,5.85 -0.406,8.673 -1.03,0.617 -2.182,2.492 -1.963,3.505 1.841,8.529 -3.394,16.342 -2.01,25.052 0.778,4.897 0.835,12.208 -8.72,11.824 7.434,7.759 3.332,15.708 0.984,22.961 -1.823,5.631 -0.876,11.285 -2.272,16.772 -0.285,1.116 0.154,2.519 1.362,3.032 1.505,0.638 1.887,-0.858 2.555,-1.741 1.661,-2.195 3.694,-3.147 6.014,-1.122 1.96,1.709 1.58,3.694 0.143,5.693 -3.73,5.188 -1.24,10.897 -1.567,16.408 -0.392,6.617 2.923,9.646 6.929,14.082 3.247,3.595 9.4,8.263 5.851,15.925 -1.826,3.943 -0.634,8.855 0.339,13.311 1.75,8.007 0.65,16.237 2.143,24.421 0.892,4.892 -0.029,10.173 2.958,14.777 0.122,0.189 0.25,0.505 0.176,0.673 -4.907,11.056 4.801,19.177 5.906,29.045 0.259,2.309 0.466,4.187 -1.384,5.766 -1.893,1.616 -3.392,3.046 -1.705,5.95 1.492,2.568 -0.839,3.863 -2.784,4.779 -6.123,2.884 -4.51,7.176 -2.165,11.553 3.255,6.075 8.54,11.442 6.493,19.308 -0.174,0.666 0.239,1.729 -0.124,2.066 -7.92,7.355 0.535,13.963 1.114,20.87 0.276,3.29 3.296,3.685 5.793,1.258 1.27,-1.234 0.495,-5.287 3.816,-3.481 2.74,1.49 6.003,4.178 5.241,7.451 -0.983,4.217 0.44,5.855 3.69,7.898 4.153,2.61 3.73,8.121 -0.393,12.108 -1.089,1.053 -3.493,1.176 -2.846,3.467 0.744,2.636 2.657,0.791 4.099,0.882 5.872,0.374 8.186,4.545 8.726,10.765 0.815,9.407 1.103,18.345 -2.532,27.434 -1.628,4.069 2.13,5.249 5.669,3.522 3.644,-1.778 7.324,-1.739 11.076,-0.947 1.692,0.357 3.136,1.557 3.231,3.361 0.097,1.839 -1.616,2.19 -3.027,2.23 -3.404,0.096 -2.67,1.889 -2.349,4.265 0.62,4.591 -0.344,9.375 2.598,13.615 1.257,1.813 0.308,3.822 -1.561,4.824 -2.887,1.548 -2.463,-1.537 -3.617,-2.637 -4.543,-4.328 -2.975,-10.05 -3.98,-15.167 -0.417,-2.124 -0.528,-4.391 -3.407,-4.621 -1.754,-0.14 -3.29,0.449 -4.448,1.785 -2.017,2.328 -0.315,3.999 1.232,5.439 3.095,2.882 2.713,7.336 0.724,9.039 -7.363,6.306 -1.408,12.392 0.055,17.982 1.112,4.252 3.342,8.71 6.474,12.475 2.998,3.605 2.012,7.014 -1.641,10.434 -6.248,5.852 -9.367,13.382 -12.132,21.663 -2.433,7.287 -2.519,15.48 -7.338,22.049 -1.849,2.521 -2.149,5.44 -0.431,8.675 1.461,2.749 0.295,5.824 -2.503,7.279 -2.782,1.447 -3.267,-1.616 -4.605,-3.095 -1.233,-1.364 -2.887,-2.36 -4.4,-3.457 -2.47,-1.79 -3.117,-3.645 -1.451,-6.617 4.524,-8.071 6.158,-17.1 7.915,-26.053 0.274,-1.395 0.593,-3.172 -0.72,-3.956 -1.804,-1.076 -2.929,0.884 -4.253,1.729 -5.493,3.507 -4.783,10.03 -6.832,15.095 -1.955,4.832 -5.866,7.913 -8.157,12.263 -0.736,1.398 -2.403,1.808 -3.657,0.659 -2.584,-2.368 -5.573,-4.598 -5.471,-8.667 0.049,-1.981 2.142,-4.702 -0.424,-5.725 -3.067,-1.221 -3.092,2.818 -4.812,4.136 -6.023,4.616 -6.559,12.329 -10.212,18.312 -2.236,3.662 -12.062,12.929 -16.326,12.985 -2.45,0.032 -2.348,-1.408 -2.084,-3.357 1.04,-7.705 3.788,-14.608 9.263,-20.207 3.448,-3.526 5.05,-7.896 6.594,-12.396 0.489,-1.424 1.237,-2.606 -0.373,-3.66 -1.51,-0.988 -2.711,-0.253 -3.738,0.858 -1.765,1.911 -3.961,3.613 -5.139,5.845 -8.121,15.395 -15.549,31.09 -22.16,47.237 -3.016,7.366 -5.205,15.795 -12.144,21.176 -0.515,0.4 -0.871,1.151 -1.055,1.808 -1.705,6.081 -3.357,12.176 -5.009,18.271 -0.054,0.201 0.116,0.638 0.089,0.646 -9.712,2.795 -2.6,10.892 -4.944,16.192 -3.06,6.921 -4.263,14.647 -6.482,21.962 -1.099,3.626 -1.594,6.927 1.495,9.835 1.54,1.45 2.006,3.529 1.312,5.261 -2.678,6.676 -1.354,14.636 -4.579,20.562 -7.471,13.723 -6.543,29.137 -10.288,43.549 -1.883,7.248 -4.23,14.715 -4.955,22.466 -0.761,8.129 -2.434,16.36 -3.264,24.351 -1.053,10.151 -4.766,19.904 -3.559,30.73 0.719,6.46 0.409,13.807 -0.095,20.729 -0.855,11.737 2.155,22.623 7.23,33.036 1.192,2.445 3.206,4.232 6.14,4.166 2.939,-0.067 5.154,1.329 6.61,3.52 3.336,5.021 8.927,7.839 12.069,13.111 2.673,4.485 1.627,7.534 -2.257,10.27 -1.826,1.286 -4.818,1.949 -3.361,5.2 1.203,2.683 3.802,4.122 6.421,3.441 7.764,-2.017 9.57,1.944 9.522,8.488 -0.02,2.696 1.381,4.982 2.975,7.098 1.827,2.425 3.839,3.273 5.154,-0.208 1.449,-3.833 5.944,-4.551 7.618,-8.184 0.718,-1.559 3.926,-1.852 4.26,-0.601 1.986,7.434 10.808,10.007 12.165,17.773 1.122,6.416 4.194,12.035 6.781,17.942 3.766,8.6 10.468,14.241 15.81,21.106 5.559,7.145 11.09,14.028 13.733,22.81 2.131,7.083 8.716,10.402 13.171,15.514 3.683,4.226 8.508,7.572 8.481,14.117 -0.012,2.78 2.564,4.422 4.202,6.405 8.719,10.556 17.209,21.319 31.403,25.197 2.275,0.622 4.082,3.114 5.991,4.866 1.122,1.028 1.818,2.378 -0.017,3.42 -1.708,0.97 -6.303,0.957 -2.691,4.032 2.74,2.332 5.486,9.381 10.714,4.028 7.017,-7.186 12.194,0 17.491,1.966 4.373,1.626 8.409,5.081 6.806,12.134 -1.107,4.874 5.25,4.302 8.415,5.082 4.053,0.999 10.331,2.958 6.935,-5.693 3.212,-0.69 4.251,1.632 5.971,2.698 4.227,2.619 8.368,5.195 13.857,3.872 5.12,-1.234 8.474,0.609 10,6.194 2.184,7.992 8.967,10.696 16.366,6.664 2.482,-1.353 4.157,-1.453 6.387,0.171 6.862,4.998 13.353,3.572 19.266,-1.724 3.079,-2.757 5.272,-1.829 9.158,-0.781 10.696,2.887 21.945,3.729 32.977,5.363 0.204,0.03 0.494,-0.101 0.652,-0.253 10.16,-9.769 21.171,-5.707 32.162,-1.991 l -0.058,0.057 c 2.665,-8.484 11.79,-12.728 21.877,-9.122 5.7,2.037 10.51,0.811 15.713,-0.834 8.181,-2.585 16.363,-3.542 24.053,1.585 1.876,1.251 3.404,0.739 5.269,-0.084 2.343,-1.034 4.868,-1.786 7.389,-2.256 4.36,-0.813 6.033,1.433 4.36,5.269 -1.958,4.491 -2.726,9.653 -6.8,13.101 -1.524,1.289 -2.813,3.301 -0.843,4.824 2.865,2.215 3.497,-1.046 4.484,-2.605 4.651,-7.35 11.688,-13.52 11.044,-23.489 -0.202,-3.132 2.177,-3.312 5.214,-3.83 7.954,-1.356 14.539,2.728 21.787,3.955 7.112,1.204 10.145,-2.017 8.538,-9.053 -0.256,-1.123 -1.203,-2.302 0.041,-3.188 1.349,-0.961 3.083,-0.297 3.898,0.623 2.328,2.63 4.337,5.548 6.406,8.401 4.935,6.802 8.642,6.606 12.046,-0.892 2.568,-5.657 5.963,-8.347 12.779,-6.937 8.368,1.731 22.713,-6.769 27.009,-14.801 0.756,-1.413 1.868,-2.869 3.195,-3.696 2.979,-1.858 4.736,-4.657 3.785,-7.701 -1.159,-3.711 -3.784,-0.577 -5.783,-0.228 -1.048,0.183 -1.878,-0.228 -2.333,-1.159 -0.663,-1.355 0.188,-2.052 1.176,-2.89 11.105,-9.427 12.947,-16.201 8.128,-29.801 -0.404,-1.139 -1.154,-2.239 0.047,-3.185 1.18,-0.93 2.227,-0.182 3.066,0.704 2.46,2.596 5.849,5.186 8.103,1.184 2.129,-3.779 -0.657,-7.052 -4.852,-8.551 -2.441,-0.872 -4.718,-2.227 -7.184,-3.001 -4.611,-1.448 -9.094,-2.102 -10.397,4.411 -0.651,3.251 -2.94,4.456 -5.864,5.372 -4.906,1.538 -6.688,4.819 -4.813,9.892 0.734,1.985 0.792,4.549 3.412,4.823 2.799,0.293 2.223,-2.46 2.919,-4.04 0.989,-2.246 3.517,-4.107 4.77,-2.027 2.195,3.645 6.256,3.701 9.11,5.914 -1.663,2.705 -3.599,1.012 -5.27,0.945 -2.603,-0.103 -4.793,1.454 -4.453,3.531 1.489,9.095 -7.73,15.176 -6.397,24.182 0.302,2.041 -0.95,4.566 -3.314,4.913 -2.935,0.431 -3.6,-2.631 -4.847,-4.482 -0.581,-0.864 -0.889,-2.469 -0.483,-3.352 4.404,-9.574 0.354,-13.581 -9.092,-14.396 -1.698,-0.147 -2.952,-1.47 -3.674,-3.07 -0.596,-1.323 -1.074,-2.896 -0.049,-4.028 1.442,-1.591 2.437,0.067 3.458,0.927 1.322,1.112 2.578,3.824 4.456,1.573 1.688,-2.023 -0.265,-4.174 -1.942,-5.336 -2.3,-1.593 -5.043,-2.531 -7.494,-3.93 -1.161,-0.662 -2.769,-1.59 -1.986,-3.221 0.4,-0.832 1.897,-1.624 2.881,-1.604 4.372,0.09 5.705,-2.512 6.147,-6.21 0.422,-3.535 4.132,-4.386 5.763,-6.778 7.152,-10.492 14.532,-20.533 27.82,-23.807 2.684,-0.661 4.006,-3.173 5.875,-4.745 1.842,-0.096 1.843,1.257 2.13,2.335 0.464,1.747 1.227,3.259 3.369,2.736 2.222,-0.542 2.747,-2.404 2.771,-4.415 0.026,-2.246 -1.021,-4.048 -2.363,-5.791 -0.998,-1.295 -2.762,-3.54 -2.361,-4.138 5.558,-8.285 -5.535,-14.772 -2.301,-22.784 0.653,-1.618 -0.117,-3.805 -1.948,-4.986 -5.57,-3.589 -2.497,-5.837 1.455,-6.978 3.852,-1.112 7.946,-0.982 9.673,-5.794 2.049,-5.709 1.479,-11.195 -0.79,-16.541 -0.856,-2.017 -3.736,-3.473 -1.146,-6.02 2.481,-2.441 4.971,-1.975 7.636,-0.047 1.464,1.06 3.313,1.59 5.266,2.487 1.779,-6.385 -1.36,-10.301 -5.264,-13.996 -5.337,-5.05 -4.129,-10.905 2.694,-13.144 1.49,-0.489 3.672,0.018 3.857,-2.242 0.168,-2.055 -1.723,-2.566 -3.259,-3.203 -1.312,-0.543 -2.838,-1.901 -3.867,-1.586 -8.526,2.611 -10.157,-3.666 -12.469,-9.252 -1.093,-2.64 -2.041,-5.402 -6.11,-3.766 -2.257,0.907 -2.676,-1.433 -2.948,-2.981 -1.561,-8.898 0.114,-16.825 7.325,-22.927 1.561,-1.321 4.861,-1.495 4.546,-3.949 -0.864,-6.719 3.929,-13.563 -0.526,-20.122 -0.532,-0.783 -1.105,-1.54 -1.697,-2.277 -5.432,-6.754 -6.868,-13.158 -1.197,-21.124 4.457,-6.26 3.086,-14.043 0.558,-21.153 -0.822,-2.31 -2.619,-3.438 -5.057,-1.937 -3.262,2.009 -5.073,1.503 -5.975,-2.541 -1.94,-8.701 -5.291,-17.132 -4.115,-26.355 0.368,-2.876 0.646,-5.358 3.052,-7.561 4.614,-4.224 2.748,-12.251 -3.493,-13.306 -5.012,-0.847 -5.784,-3.746 -5.757,-7.303 0.067,-8.601 -1.92,-16.758 -3.73,-25.086 -1.3,-5.975 -1.148,-12.594 0.59,-18.695 1.233,-4.325 1.28,-7.861 -2.582,-10.753 -5.339,-3.999 -2.715,-10.185 -3.765,-15.258 -1.541,-7.45 -5.792,-11.909 -12.054,-15.042 -3.014,-1.509 -4.474,-3.541 -1.458,-5.749 4.255,-3.115 3.415,-7.44 3.903,-11.543 l 0.022,0.021 c -3.152,-0.684 -5.458,-2.777 -7.752,-4.812 -1.476,-1.31 -2.692,-3.166 -1.289,-4.988 1.786,-2.319 4.12,-4.247 1.004,-7.131 -3.258,-3.015 -5.971,-6.949 -11.127,-6.837 -2.632,0.057 -5.447,3.532 -7.786,0.365 -2.218,-3.003 -3.297,-6.833 -3.357,-10.589 -0.118,-7.251 -8.179,-15.485 -15.53,-15.431 -9.841,0.073 -9.91,0.056 -7.569,-9.582 1.516,-6.238 -0.172,-9.84 -7.03,-11.035 -5.304,-0.925 -11.316,-1.205 -11.606,-9.579 -0.127,-3.659 -5.686,-4.887 -8.889,-5.913 -2.515,-0.806 -5.928,2.643 -7.032,5.33 -1.596,3.882 -2.722,2.836 -3.918,0.311 -1.659,-3.501 -4.18,-6.899 -1.483,-11.261 1.016,-1.642 0.759,-4.122 0.919,-6.232 0.237,-3.136 -1.109,-5.662 -3.829,-7.078 -3.415,-1.778 -4.002,2.274 -7.235,4.128 1.062,-7.125 6.89,-10.797 8.237,-16.543 0.464,-1.977 3.078,-4.01 2.171,-5.791 -6.594,-12.951 6.193,-19.208 9.671,-28.62 0.982,-2.659 2.689,-5.176 2.449,-8.039 -1.378,-16.469 5.9,-32.105 4.49,-48.599 -0.481,-5.63 4.324,-9.853 5.206,-15.267 1.129,-6.921 -1.155,-13.844 0.355,-20.835 0.718,-3.325 0.75,-6.261 4.335,-8.166 3.319,-1.764 3.829,-4.674 2.151,-8.441 -3.186,-7.15 -2.924,-14.642 -0.801,-22.112 0.449,-1.579 1.096,-3.297 0.878,-4.841 -2.426,-17.152 3.313,-33.738 3.629,-50.796 0.179,-9.638 3.841,-19.826 3.317,-29.669 -0.524,-9.825 5.883,-16.516 7.883,-24.996 0.208,-0.877 0.703,-1.973 1.409,-2.402 9.496,-5.773 16.825,-14.531 26.898,-19.493 0.424,-0.209 0.847,-0.674 1.243,-0.644 9.811,0.725 19.732,0.873 29.36,2.627 3.174,0.577 6.368,2.534 9.929,2.287 11.662,-0.809 22.078,4.217 33.016,6.842 3.593,0.862 7.44,0.733 11.178,0.902 3.884,0.175 7.5,0.763 10.233,3.968 1.508,1.769 3.652,1.967 5.877,1.778 9.294,-0.788 18.234,1.033 27.09,3.626 4.425,1.295 9.043,0.314 13.659,1.147 7.388,1.333 15.009,-0.259 22.428,-1.604 2.893,-0.524 5.432,-0.291 8.253,0.657 3.364,1.13 6.882,0.73 10.371,-0.715 9.682,-4.011 18.778,-2.729 27.204,3.598 3.609,2.711 7.6,4.329 12.198,5.198 3.599,0.681 8.806,-1.42 10.578,4.73 0.647,2.248 2.945,0.173 3.858,-0.938 2.775,-3.376 6.127,-4.056 10.152,-2.933 5.304,1.479 9.261,-2.256 13.015,-4.517 7.847,-4.725 15.816,-9.057 23.132,-15.168 8.834,-7.379 10.876,-16.998 15.669,-25.764 0.444,-0.812 0.557,-1.804 0.817,-2.71 -2.997,-2.76 -1.283,-4.627 1.341,-5.979 2.227,-1.147 4.3,-2.312 4.11,-5.145 -0.852,-12.783 1.326,-25.436 1.562,-38.154 0.347,-18.659 -0.046,-37.331 0.101,-55.996 0.044,-5.572 -1.139,-10.811 -2.956,-15.941 -4.536,-12.807 -4.005,-26.379 -5.999,-39.563 -0.833,-5.511 0.257,-11.312 0.457,-16.981 0.068,-1.901 -0.017,-3.908 1.408,-5.364 12.128,-12.388 14.02,-28.717 17.221,-44.542 0.607,-3.002 1.153,-5.959 1.036,-9.111 -0.478,-12.906 -6.062,-25.224 -4.277,-38.416 0.254,-1.876 -0.796,-4.261 -1.95,-5.918 -1.833,-2.632 -2.175,-5.553 -3.076,-8.447 -3.007,-9.662 3.987,-18.386 2.037,-27.815" style="fill:#040f15;fill-opacity:1;fill-rule:nonzero;stroke:none" transform="matrix(1.3333333,0,0,-1.3333333,1605.8024,3526.2392)" />
      <path id="path4" d="m 0,0 c -5.961,2.795 -12.241,4.086 -18.816,3.982 -2.578,1.616 -5.222,2.991 -8.431,2.257 -4.054,1.409 -8.269,1.776 -12.506,1.673 -2.261,-0.055 -5.297,0.487 -6.257,-2.082 -1.188,-3.179 1.849,-4.259 4.034,-5.516 0.62,-1.986 1.44,-2.782 2.787,-0.471 l 0.027,-0.22 c 6.712,-8.468 16.903,-11.751 25.641,-17.2 0.441,-0.276 0.883,-0.552 1.324,-0.826 3.471,-7.205 3.084,-14.844 3.294,-22.607 0.205,-7.591 -0.723,-14.904 -1.874,-22.287 0,0 0.133,-0.052 0.136,-0.053 -4.588,-7.122 -6.447,-15.373 -8.908,-23.251 -5.407,-17.313 -13.54,-32.827 -25.18,-46.843 -3.888,-4.681 -10.038,-6.799 -12.58,-12.575 0,0 -0.009,-0.015 -0.009,-0.015 -5.694,-0.109 -11.387,-0.217 -17.081,-0.326 -1.333,0.149 -2.667,0.298 -4.001,0.447 -0.789,1.058 -1.797,1.377 -3.04,0.905 -1.052,0.942 -2.167,1.315 -3.424,0.37 -0.369,1.175 -1.209,1.653 -2.393,1.625 -6.461,4.909 -13.356,8.893 -21.547,10.124 -1.386,4.299 -5.019,3.725 -8.334,3.841 -0.756,0.699 -1.583,0.789 -2.482,0.292 -0.624,0.029 -1.245,0.058 -1.867,0.087 -0.583,0.659 -1.134,0.706 -1.642,-0.089 -1.732,3.702 -5.007,2.728 -7.991,2.635 0,0 -0.051,0.026 -0.051,0.026 -5.378,4.476 -12.121,5.098 -18.564,6.567 -0.759,0.201 -1.518,0.403 -2.28,0.605 -1.716,3.057 -4.408,3.524 -7.532,2.841 0,0 0.055,-0.035 0.054,-0.035 -0.752,3.363 -3.252,3.095 -5.775,2.779 0,0 -0.019,0.006 -0.018,0.005 -0.85,3.067 -3.598,2.496 -5.788,3.067 -4.316,1.124 -8.76,1.242 -13.147,2.437 -9.051,2.467 -16.952,7.807 -26.504,9.197 -6.557,0.955 -12.67,4.669 -19.119,6.719 -12.963,4.121 -25.943,8.227 -39.055,11.832 -19.538,5.371 -40.19,6.572 -58.725,15.779 -1.809,0.899 -4.117,1.015 -6.814,-0.603 3.482,-4.746 9.01,-6.568 13.309,-9.715 10.543,-7.716 24.054,-9.138 35.353,-15.611 3.5,-2.005 6.251,-5.825 10.887,-5.756 1.153,-1.387 2.457,-2.385 4.408,-1.71 1.203,-2.186 3.011,-3.131 5.5,-2.678 0.502,-0.157 1.004,-0.314 1.502,-0.469 0.834,-2.902 3.133,-2.852 5.478,-2.71 0,0 0.218,-0.122 0.217,-0.12 0.609,-3.616 3.432,-2.532 5.68,-2.672 12.197,-7.291 20.354,-17.95 25.738,-30.912 2.529,-6.089 2.356,-12.732 -0.7,-17.945 -10.204,-17.408 -13.536,-37.699 -23.669,-54.99 -5.097,-8.696 -10.976,-17.075 -17.475,-24.775 -10.148,-12.023 -20.506,-23.933 -34.958,-31.395 -9.684,-5.001 -19.839,-5.175 -28.437,-0.106 -14.123,8.326 -28.694,13.82 -44.979,15.404 -7.018,0.683 -13.302,3.695 -19.686,7.154 -12.803,6.936 -25.579,13.953 -39.551,18.85 -10.764,3.772 -19.875,11.656 -28.911,18.818 -4.757,3.771 -9.786,6.837 -15.487,8.074 -10.765,2.335 -20.851,7.513 -32.16,7.547 -6.413,0.02 -10.048,5.964 -15.691,7.696 -0.429,0.436 -0.86,0.874 -1.291,1.312 0,0 10e-4,0.051 0.002,0.051 -3.058,6.76 -9.753,8.464 -15.66,11.265 0,0 -0.098,0.056 -0.097,0.056 -0.391,2.487 -1.994,3.103 -4.231,2.741 0,0 -0.063,0.021 -0.062,0.021 -0.572,2.176 -1.942,3.065 -4.164,2.578 -0.312,0.4 -0.717,0.548 -1.213,0.441 -1.309,4.431 -5.136,4.288 -8.63,4.75 -0.186,1.477 -1.121,2.089 -2.507,2.174 -7.892,5.302 -15.014,11.932 -24.578,14.387 0,0 -0.007,-0.02 -0.006,-0.02 -2.434,2.457 -4.745,5.052 -7.324,7.346 -11.83,10.526 -26.041,18.323 -35.806,31.239 -0.47,0.622 -1.614,0.734 -2.444,1.084 -1.059,0.959 -2.117,1.917 -3.174,2.876 -0.919,3.771 -3.886,5.74 -6.783,7.807 -5.56,3.968 -12.146,7.097 -16.402,12.171 -9.876,11.775 -22.117,20.949 -32.778,31.83 -14.581,14.883 -33.46,23.822 -50.994,34.461 -9.655,5.859 -18.716,12.294 -27.568,19.205 -5.785,4.517 -10.161,10.953 -15.567,14.937 -7.861,5.792 -15.807,11.577 -23.127,18.012 -12.043,10.589 -24.846,20.823 -25.678,39.083 -0.186,4.073 -2.505,8.069 -3.952,12.061 -1.61,4.44 -3.83,8.703 -3.616,13.625 0.324,7.446 -2.049,14.398 -3.875,21.462 -2.542,9.834 -5.405,19.698 1.578,29.086 0.764,1.027 1.164,2.838 0.858,4.068 -2.87,11.548 1.822,22.507 2.935,33.666 2.177,21.815 -2.968,41.314 -14.851,59.154 -3.113,4.673 -4.474,9.223 -4.594,14.477 -0.392,17.111 2.561,33.806 6.588,50.332 0.669,2.741 1.791,5.344 1.81,8.247 0.181,26.251 0.652,52.504 0.489,78.753 -0.082,13.182 -2.25,26.379 1.026,39.465 l 0.037,0.02 c 1.875,4.624 3.536,9.306 3.798,14.357 2.901,2.059 3.314,4.84 2.325,8.027 1.76,6.436 3.327,12.944 7.043,18.641 0,0 -0.156,0.031 -0.157,0.031 1.88,2.599 3.09,5.44 3.146,8.698 1.906,1.36 2.199,3.238 1.72,5.363 0.397,0.548 0.796,1.097 1.196,1.646 0.843,0.378 1.304,0.82 0.243,1.523 2.377,0.399 2.946,1.862 2.349,4.011 0,0 0.042,-0.025 0.039,-0.024 5.641,4.289 4.19,10.567 4.578,16.329 3.3,1.756 2.927,5.162 3.459,8.057 2.915,15.854 7.042,31.308 14.249,45.833 0.924,1.862 1.462,4.05 1.62,6.13 0.344,4.517 1.464,8.104 6.246,10.059 2.89,1.182 4.929,4.296 5.328,7.242 1.78,13.178 10.978,22.724 16.046,34.229 5.336,12.116 10.868,24.078 17.003,35.816 5.725,10.953 7.379,23.399 10.913,35.12 5.073,16.831 11.032,33.157 18.782,48.886 1.149,2.331 2.451,4.69 3.012,7.186 1.204,5.367 2.703,9.936 7.933,13.338 3.92,2.549 4.808,8.083 5.436,12.768 0.665,4.968 2.833,8.895 6.105,12.507 18.424,20.335 30.355,44.644 41.965,69.117 1.282,2.702 1.622,5.906 2.102,8.924 1.746,10.974 4.988,21.038 14.017,28.576 4.125,3.444 5.967,9.144 9.239,13.089 10.861,13.093 8.804,29.24 11.951,44.046 1.791,8.43 6.479,15.09 9.729,22.61 6.079,14.063 3.484,28.876 3.006,43.474 -0.109,3.311 -0.654,6.636 -0.458,9.922 0.416,6.991 6.182,9.759 12.054,5.934 3.482,-2.268 5.382,-5.811 7.508,-9.253 2.335,-3.778 5.203,-4.782 8.128,-0.257 4.999,7.734 10.956,14.661 17.215,21.434 5.059,5.473 12.147,6.957 18.01,10.776 3.564,2.322 6.387,-2.366 8.735,-4.549 4.034,-3.749 7.511,-3.331 11.018,-0.052 11.083,10.36 25.616,10.594 39.205,13.604 1.132,0.251 2.393,-0.11 3.543,0.097 10.372,1.864 17.666,-2.356 22.71,-11.254 0.567,-1 1.48,-1.9 2.428,-2.572 14.664,-10.395 22.151,-27.298 35.301,-38.977 6.938,-6.162 10.317,-13.921 12.89,-22.337 1.466,-4.797 5.268,-7.879 8.425,-11.272 7.978,-8.576 8.739,-18.77 6.436,-29.164 -1.277,-5.767 -1.559,-11.105 -0.384,-16.749 1.97,-9.459 0.999,-18.611 -1.461,-28.038 -4.095,-15.697 -5.365,-31.962 -7.792,-47.994 -1.318,-8.706 -4.935,-16.611 -10.87,-23.199 -2.086,-2.316 -4.313,-4.403 -5.145,-7.495 -5.843,-21.708 -16.654,-41.102 -27.677,-60.461 -3.228,-5.669 -4.882,-12.235 -7.262,-18.388 -10.282,-26.583 -20.571,-53.163 -30.838,-79.752 -0.509,-1.317 -1.235,-2.712 -1.197,-4.052 0.294,-10.395 -3.486,-19.72 -8.995,-27.946 -10.072,-15.039 -13.584,-32.155 -18.276,-49.11 -2.752,-9.943 -6.102,-19.827 -9.435,-29.654 -5.061,-14.924 -2.976,-13.982 10.039,-16.107 9.371,-1.53 19.609,-0.736 29.467,-0.513 23.191,0.523 46.633,5.399 69.751,-2.486 12.402,-4.23 25.914,-1.226 38.776,-3.381 12.795,-2.143 25.663,-3.528 38.448,-6.138 12.055,-2.46 24.585,-5.046 37.096,-4.587 13.406,0.492 26.189,-3.436 39.435,-4.305 18.683,-1.224 37.436,-0.779 56.033,-2.545 24.494,-2.325 49,-4.809 73.291,-8.966 4.883,-0.836 9.896,-1.222 14.853,-1.262 17.838,-0.145 34.344,-7.183 51.706,-9.792 5.737,-0.861 11.347,-0.167 17.009,-0.127 27.544,0.19 54.797,-2.666 81.809,-7.857 10.006,-1.923 18.772,-7.646 28.529,-10.195 8.133,-2.124 14.823,-7.829 23.352,-8.642 -0.401,-2.105 1.335,-3.005 2.584,-3.764 7.87,-4.781 15.845,-9.389 23.785,-14.054 0.273,-0.465 0.676,-0.663 1.208,-0.593 6.934,-8.373 14.936,-15.698 22.806,-23.152 -0.066,-0.808 0.283,-1.105 1.068,-0.87 0.334,-0.972 0.944,-1.509 2.031,-1.298 0,0 -0.343,-0.206 -0.34,-0.204 -1.002,-2.923 0.547,-3.71 3.08,-3.673 0.169,-0.384 0.464,-0.568 0.876,-0.547 -0.229,-1.546 0.367,-2.464 1.997,-2.578 0,0 0.188,-0.161 0.188,-0.161 1.793,-3.639 5.567,-7.248 2.193,-11.453 -3.49,-4.35 -3.96,-9.624 -3.164,-14.084 2.103,-11.784 -5.201,-16.613 -13.803,-19.94 -4.847,-1.876 -6.426,-5.07 -4.694,-8.444 5.208,-10.139 5.382,-19.009 -0.983,-29.148 -3.722,-5.93 -2.53,-14.223 -2.572,-21.599 -0.049,-8.823 -5.572,-15.197 -11.779,-20.231 -4.098,-3.323 -9.976,-4.74 -14.979,-6.625 -14.118,-5.321 -29.035,-6.487 -43.875,-2.229 -10.535,3.023 -20.943,3.787 -32.074,3.186 -13.248,-0.714 -26.148,-3.564 -39.361,-4.233 -11.023,-0.559 -22.375,-1.513 -32.82,-4.749 -12.247,-3.794 -24.401,-6.695 -37.154,-7.611 -8.743,-0.629 -17.669,0.899 -27.3,-1.833 7.507,-4.138 14.618,-4.858 21.926,-4.649 11.898,-1.765 21.656,-9.254 33.001,-12.401 10.226,-2.837 20.666,-4.894 30.92,-7.636 11.966,-3.2 22.478,-9.942 33.892,-14.554 6.206,-2.508 12.609,-3.992 18.934,-5.58 23.72,-5.956 47.149,-13.094 67.733,-26.307 13.069,-8.388 26.375,-17.279 36.655,-29.314 7.913,-9.264 11.162,-19.657 5.835,-32.036 -7.665,-17.813 -9.091,-37.04 -11.117,-56.104 C 107.059,74.31 104.329,58.022 97.133,42.813 94.347,36.925 88.642,33.655 85.163,28.543 76.264,15.469 64.439,6.398 49.662,0.968 46.684,-0.127 43.543,-0.935 40.621,-0.147 27.869,3.292 15.244,-0.517 2.566,-0.408 1.71,-0.274 0.855,-0.137 0,0" style="fill:#c92424;fill-opacity:1;fill-rule:nonzero;stroke:none" transform="matrix(1.3333333,0,0,-1.3333333,2871.5944,2845.0804)" />
      <path id="path14" d="m 0,0 c -1.28,5.226 -1.34,10.923 -2.349,16.407 -1.264,6.873 0.86,12.906 2.207,19.366 3.787,18.157 6.257,36.597 10.313,54.686 2.671,11.911 3.503,24.008 5.703,35.892 1.554,8.396 -0.27,16.951 2.43,25.164 0.577,1.754 -0.117,4.147 2.728,3.803 2.106,-0.255 3.6,-2.128 3.17,-4.084 -1.894,-8.608 0.912,-17.318 -1.219,-26.015 -2.35,-9.596 -0.737,-19.748 -2.391,-29.418 C 19.005,86.521 16.005,77.44 13.078,68.45 11.908,64.859 10.043,61.411 10.13,57.613 10.628,35.703 2.512,14.057 8.159,-8.01 8.692,-10.094 7.766,-11.803 5.522,-12.317 3.477,-12.785 2.452,-11.504 1.963,-9.733 1.105,-6.624 -1.613,-3.936 0,0" style="fill:#040f15;fill-opacity:1;fill-rule:nonzero;stroke:none" transform="matrix(1.3333333,0,0,-1.3333333,151.1824,3392.4804)" />
      <path id="path17" d="M 0,0 C -3.642,0.155 -6.928,0.661 -7.082,4.626 -7.288,9.933 -2.978,12.37 1.054,12.648 5.083,12.925 7.846,8.653 8.008,5.108 8.258,-0.347 2.57,1.56 0,0" style="fill:#040f15;fill-opacity:1;fill-rule:nonzero;stroke:none" transform="matrix(1.3333333,0,0,-1.3333333,242.2264,3070.0924)" />
      <path id="path18" d="m 0,0 c 1.954,-1.034 3.976,-1.119 6.134,-0.777 3.01,0.477 3.42,-2.007 3.795,-3.989 0.514,-2.719 -0.35,-5.225 -2.873,-6.596 -2.384,-1.297 -4.061,0.3 -5.18,2.19 -1.286,2.174 -1.877,4.74 -4.256,6.243 -0.537,0.339 -0.873,1.797 -0.601,2.449 C -2.386,0.951 -1.085,0.306 0,0" style="fill:#040f15;fill-opacity:1;fill-rule:nonzero;stroke:none" transform="matrix(1.3333333,0,0,-1.3333333,1495.2547,3230.1003)" />
      <path id="path19" d="m 0,0 c -0.287,-2.479 -1.399,-3.886 -3.266,-3.485 -3.55,0.762 -5.673,3.388 -6.146,6.859 -0.29,2.125 1.681,2.712 3.44,2.298 C -2.72,4.908 -0.893,2.603 0,0" style="fill:#040f15;fill-opacity:1;fill-rule:nonzero;stroke:none" transform="matrix(1.3333333,0,0,-1.3333333,771.7252,2437.0949)" />
      <path id="path20" d="m 0,0 c -1.463,2.039 -1.936,2.395 -1.957,2.777 -0.148,2.655 -1.938,5.338 0.001,7.93 0.179,0.238 1.579,0.052 1.814,-0.317 C 1.755,7.414 1.005,4.474 0,0" style="fill:#040f15;fill-opacity:1;fill-rule:nonzero;stroke:none" transform="matrix(1.3333333,0,0,-1.3333333,1042.0289,3182.3267)" />
      <path id="path21" d="m 0,0 c -0.062,-2.792 -1.36,-4.712 -3.691,-5.565 -1.359,-0.497 -2.201,0.768 -1.781,2.061 0.709,2.18 1.536,4.602 3.667,5.625 C -0.617,2.691 -0.145,0.992 0,0" style="fill:#040f15;fill-opacity:1;fill-rule:nonzero;stroke:none" transform="matrix(1.3333333,0,0,-1.3333333,679.08413,1314.8253)" />
      </g></svg>