<?xml version='1.0' encoding='utf-8'?>
<svg xmlns="http://www.w3.org/2000/svg" version="1.1" width="63.721" height="101.961" viewBox="2719.100 4181.280 63.721 101.961"><g id="object"><path id="path58" d="m 0,0 c -0.098,4.524 -2.642,7.927 -7.371,9.393 -2.332,0.723 -5.15,0.45 -5.176,-2.854 -0.034,-4.41 0.159,-8.906 1.031,-13.208 0.576,-2.843 3.597,-2.795 5.851,-1.979 C -2.014,-7.327 -0.229,-4.393 0,0 m -11.716,19.545 c 3.526,-0.201 7.195,0.162 10.551,-0.699 13.928,-3.574 18.492,-20.775 8.192,-31.916 -3.149,-3.407 -3.661,-5.909 -1.946,-9.891 2.332,-5.417 4.211,-11.036 6.124,-16.623 0.818,-2.387 4.069,-5.749 0.202,-7.161 -3.643,-1.329 -8.712,-2.213 -11.441,2.484 -2.353,4.05 -4.092,8.454 -6.152,12.677 -0.666,1.365 -0.519,3.763 -2.78,3.456 -2.689,-0.365 -1.719,-2.947 -2.041,-4.622 -0.58,-3.01 -1.287,-6.062 -1.294,-9.099 -0.009,-3.922 -1.554,-5.585 -5.458,-5.602 -3.818,-0.016 -6.171,1.172 -7.049,5.288 -1.306,6.118 0.552,12.11 -0.036,18.31 -1.124,11.853 -0.499,23.87 -0.61,35.82 -0.05,5.448 1.966,8.543 8.057,7.498 1.838,-0.316 3.776,-0.049 5.668,-0.049 0.004,0.043 0.009,0.086 0.013,0.129" style="fill:#494f57;fill-opacity:1;fill-rule:nonzero;stroke:none" transform="matrix(1.3333333,0,0,-1.3333333,2759.1341,4213.4993)" />
      </g></svg>