<?xml version='1.0' encoding='utf-8'?>
<svg xmlns="http://www.w3.org/2000/svg" version="1.1" width="203.835" height="407.969" viewBox="1509.840 3444.330 203.835 407.969"><defs id="defs1"><clipPath clipPathUnits="userSpaceOnUse" id="clipPath59">
      <path d="M 0,3370.3901 H 2383.9401 V -2.5000001e-5 H 0 Z" id="path59" />
    </clipPath>
  </defs><g id="object"><path id="path8" d="m 0,0 c 0,37.292 -0.848,74.611 0.367,111.863 0.585,17.927 -3.593,27.138 -23.297,24.453 -7.781,-1.06 -15.843,0.01 -23.777,-0.013 -8.905,-0.025 -12.685,4.306 -12.784,13.201 -0.1,9.007 3.485,12.839 12.641,12.819 39.669,-0.085 79.34,0.125 119.009,0.348 9.256,0.052 12.45,-4.602 12.212,-13.358 -0.232,-8.564 -3.514,-12.284 -12.574,-13.505 -14.892,-2.006 -35.355,8.972 -43.436,-6.723 -6.51,-12.643 -2.084,-31.037 -2.107,-46.88 -0.095,-64.269 0.168,-128.539 -0.251,-192.805 -0.063,-9.648 5.546,-24.044 -13.691,-23.699 -17.885,0.321 -11.847,13.524 -11.955,22.426 C -0.097,-74.587 0.165,-37.292 0.165,0 Z" style="fill:#ffffff;fill-opacity:1;fill-rule:nonzero;stroke:none" transform="matrix(1.3333333,0,0,-1.3333333,1595.1593,3667.2223)" />
      </g></svg>