<?xml version='1.0' encoding='utf-8'?>
<svg xmlns="http://www.w3.org/2000/svg" version="1.1" width="363.920" height="71.680" viewBox="1425.550 2055.390 363.920 71.680"><defs id="defs1"><clipPath clipPathUnits="userSpaceOnUse" id="clipPath4">
      <path d="M -1894.0401,2218.9927 H 489.89999 V -1151.3974 H -1894.0401 Z" id="path4" />
    </clipPath>
  </defs><g id="object"><path id="path7" d="M 4.5576563,-40.440752 V 6.546875e-4 H 9.7842188 V -18.960283 H 29.342813 V 6.546875e-4 H 34.61625 V -40.440752 h -5.273437 v 16.921875 H 9.7842188 v -16.921875 z m 39.1201167,0 V 6.546875e-4 h 5.226563 V -40.440752 Z M 72.655313,6.546875e-4 87.11625,-40.440752 h -5.578125 l -6.84375,19.980469 c -1.792969,5.285156 -3.46875,10.382813 -4.617187,15.0585939 H 69.96 C 68.881875,-10.136064 67.381875,-15.057939 65.635781,-20.518877 L 59.342813,-40.440752 H 53.694375 L 66.901406,6.546875e-4 Z M 104.21977,-40.440752 V 6.546875e-4 h 5.22656 V -40.440752 Z m 12.29882,38.4609379 c 2.15625,1.44140629 6.42188,2.57812504 10.32422,2.57812504 9.53907,0 14.15625,-5.40234374 14.15625,-11.63671894 0,-5.941406 -3.48047,-9.246094 -10.32422,-11.882812 -5.57812,-2.15625 -8.03906,-4.019532 -8.03906,-7.792969 0,-2.765625 2.09766,-6.070313 7.62891,-6.070313 3.65625,0 6.35156,1.207032 7.67578,1.921875 l 1.44141,-4.253906 c -1.80469,-1.019531 -4.80469,-1.980469 -8.94141,-1.980469 -7.86328,0 -13.07813,4.675782 -13.07813,10.980469 0,5.695313 4.07813,9.117188 10.67579,11.460938 5.46093,2.097656 7.61718,4.253906 7.61718,8.039062 0,4.0781252 -3.11718,6.9023439 -8.46093,6.9023439 -3.59766,0 -7.01954,-1.2070312 -9.35157,-2.6484375 z m 49.2627,1.9804687875 V -17.284502 c 0,-6.714843 -0.11719,-11.578125 -0.42188,-16.675781 l 0.17579,-0.05859 c 2.05078,4.382813 4.74609,9 7.57031,13.5 L 185.93754,6.546875e-4 h 5.28516 V -40.440752 h -4.92188 v 16.921875 c 0,6.304688 0.11719,11.214844 0.59766,16.6171879 l -0.11719,0.058594 c -1.92188,-4.1367189 -4.26563,-8.3906249 -7.26563,-13.1367189 l -12.94921,-20.460938 h -5.70704 V 6.546875e-4 Z M 216.7227,-41.097002 c -10.80469,0 -18.78516,8.402344 -18.78516,21.234375 0,12.2460942 7.5,20.51953169 18.1875,20.51953169 10.3125,0 18.77344,-7.37109379 18.77344,-21.29296869 0,-12 -7.13672,-20.460938 -18.17578,-20.460938 z m -0.2461,4.253907 c 8.70703,0 12.90235,8.402343 12.90235,16.441406 0,9.1875 -4.67579,16.8046874 -12.96094,16.8046874 -8.21485,0 -12.90235,-7.7460934 -12.90235,-16.3828124 0,-8.882813 4.32422,-16.863281 12.96094,-16.863281 z M 247.85355,6.546875e-4 h 5.28516 V -35.999345 h 12.36328 v -4.441407 h -29.9414 v 4.441407 h 12.29296 z m 0,0" style="fill:#231916;fill-opacity:1;fill-rule:nonzero;stroke:none" aria-label="HIV IS NOT" transform="matrix(1.3333333,0,0,1.3333333,1427.47,2118.1905)" />
      <path id="path8" d="m 0,0 v -40.44 h 5.22 v 18.96 h 19.56 v -18.96 h 5.28 V 0 H 24.78 V -16.92 H 5.22 L 5.22,0 Z" style="fill:none;stroke:#231916;stroke-width:3;stroke-linecap:butt;stroke-linejoin:miter;stroke-miterlimit:10;stroke-dasharray:none;stroke-opacity:1" transform="matrix(1.3333333,0,0,-1.3333333,1433.5501,2064.2707)" />
      <path id="path9" d="M 0,0 V -40.44 H 5.22 V 0 Z" style="fill:none;stroke:#231916;stroke-width:3;stroke-linecap:butt;stroke-linejoin:miter;stroke-miterlimit:10;stroke-dasharray:none;stroke-opacity:1" transform="matrix(1.3333333,0,0,-1.3333333,1485.7096,2064.2707)" />
      <path id="path10" d="M 0,0 14.46,40.44 H 8.88 L 2.04,20.46 C 0.24,15.18 -1.44,10.08 -2.58,5.4 H -2.7 c -1.08,4.74 -2.58,9.66 -4.32,15.12 l -6.3,19.92 h -5.64 L -5.76,0 Z" style="fill:none;stroke:#231916;stroke-width:3;stroke-linecap:butt;stroke-linejoin:miter;stroke-miterlimit:10;stroke-dasharray:none;stroke-opacity:1" transform="matrix(1.3333333,0,0,-1.3333333,1524.3496,2118.1905)" />
      <path id="path11" d="M 0,0 V -40.44 H 5.22 V 0 Z" style="fill:none;stroke:#231916;stroke-width:3;stroke-linecap:butt;stroke-linejoin:miter;stroke-miterlimit:10;stroke-dasharray:none;stroke-opacity:1" transform="matrix(1.3333333,0,0,-1.3333333,1566.4284,2064.2707)" />
      <path id="path12" d="m 0,0 c 2.16,-1.44 6.42,-2.58 10.32,-2.58 9.54,0 14.16,5.4 14.16,11.64 0,5.94 -3.48,9.24 -10.32,11.88 -5.58,2.16 -8.04,4.02 -8.04,7.8 0,2.76 2.1,6.06 7.62,6.06 3.66,0 6.36,-1.2 7.68,-1.92 l 1.44,4.26 c -1.8,1.02 -4.8,1.98 -8.94,1.98 -7.86,0 -13.08,-4.68 -13.08,-10.98 0,-5.7 4.08,-9.12 10.68,-11.46 5.46,-2.1 7.62,-4.26 7.62,-8.04 0,-4.08 -3.12,-6.9 -8.46,-6.9 -3.6,0 -7.02,1.2 -9.36,2.64 z" style="fill:none;stroke:#231916;stroke-width:3;stroke-linecap:butt;stroke-linejoin:miter;stroke-miterlimit:10;stroke-dasharray:none;stroke-opacity:1" transform="matrix(1.3333333,0,0,-1.3333333,1582.8281,2115.5505)" />
      <path id="path13" d="M 0,0 V 17.28 C 0,24 -0.12,28.86 -0.42,33.96 l 0.18,0.06 c 2.04,-4.38 4.74,-9 7.56,-13.5 L 20.16,0 h 5.28 V 40.44 H 20.52 V 23.52 c 0,-6.3 0.12,-11.22 0.6,-16.62 L 21,6.84 c -1.92,4.14 -4.26,8.4 -7.26,13.14 L 0.78,40.44 h -5.7 L -4.92,0 Z" style="fill:none;stroke:#231916;stroke-width:3;stroke-linecap:butt;stroke-linejoin:miter;stroke-miterlimit:10;stroke-dasharray:none;stroke-opacity:1" transform="matrix(1.3333333,0,0,-1.3333333,1648.5072,2118.1905)" />
      <path id="path14" d="m 0,0 c -10.8,0 -18.78,-8.4 -18.78,-21.24 0,-12.24 7.5,-20.52 18.18,-20.52 10.32,0 18.78,7.38 18.78,21.3 C 18.18,-8.46 11.04,0 0,0 Z m -0.24,-4.26 c 8.7,0 12.9,-8.4 12.9,-16.44 0,-9.18 -4.68,-16.8 -12.96,-16.8 -8.22,0 -12.9,7.74 -12.9,16.38 0,8.88 4.32,16.86 12.96,16.86 z" style="fill:none;stroke:#231916;stroke-width:3;stroke-linecap:butt;stroke-linejoin:miter;stroke-miterlimit:10;stroke-dasharray:none;stroke-opacity:1" transform="matrix(1.3333333,0,0,-1.3333333,1716.4264,2063.3904)" />
      <path id="path15" d="m 0,0 h 5.28 v 36 h 12.36 v 4.44 H -12.3 V 36 H 0 Z" style="fill:none;stroke:#231916;stroke-width:3;stroke-linecap:butt;stroke-linejoin:miter;stroke-miterlimit:10;stroke-dasharray:none;stroke-opacity:1" transform="matrix(1.3333333,0,0,-1.3333333,1757.9467,2118.1905)" />
      </g></svg>