<?xml version='1.0' encoding='utf-8'?>
<svg xmlns="http://www.w3.org/2000/svg" version="1.1" width="437.146" height="55.333" viewBox="188.791 350.231 437.146 55.333"><g id="object"><path id="path16" d="M 6.8915547,1.015625e-4 H 9.8563984 V -20.261617 h 6.9609376 v -2.496094 H -0.03422656 v 2.496094 H 6.8915547 Z m 12.1113283,0 h 2.976562 V -9.8553672 c 0,-0.5742188 0.03516,-1.0195308 0.199219,-1.4179688 0.539063,-1.628906 2.0625,-2.976562 3.984375,-2.976562 2.800781,0 3.785156,2.226562 3.785156,4.8632808 V 1.015625e-4 h 2.964844 V -9.7264609 c 0,-5.6367191 -3.503906,-6.9843751 -5.707031,-6.9843751 -1.113281,0 -2.15625,0.339844 -3.035156,0.84375 -0.914063,0.503906 -1.652344,1.253906 -2.121094,2.097656 h -0.07031 V -23.976461 H 19.002883 Z M 50.874953,-7.6288047 c 0.03516,-0.3046875 0.105469,-0.7734375 0.105469,-1.3828125 0,-3.0117188 -1.417969,-7.6992188 -6.761719,-7.6992188 -4.757812,0 -7.664062,3.878906 -7.664062,8.8125001 0,4.921875 3.011718,8.23828121 8.039062,8.23828121 2.601563,0 4.394531,-0.5390625 5.4375,-1.01953125 L 49.527297,-2.8006797 c -1.113281,0.46875 -2.402344,0.84375 -4.523438,0.84375 -2.976562,0 -5.542968,-1.6523437 -5.613281,-5.671875 z M 39.425734,-9.7616172 c 0.246094,-2.0507808 1.558594,-4.8281248 4.558594,-4.8281248 3.351563,0 4.160156,2.941406 4.125,4.8281248 z M 64.852492,1.015625e-4 h 2.964844 V -20.261617 h 6.960937 v -2.496094 H 57.926711 v 2.496094 h 6.925781 z M 73.694289,-16.335836 79.741164,-1.2772422 c 0.128906,0.36328126 0.199219,0.59765626 0.199219,0.77343751 0,0.1640625 -0.105469,0.3984375 -0.234375,0.703125 -0.679688,1.52343749 -1.6875,2.67187499 -2.496094,3.31640629 -0.878906,0.7382812 -1.863281,1.2070312 -2.601562,1.453125 l 0.738281,2.4960937 c 0.738281,-0.140625 2.191406,-0.6445312 3.644531,-1.9335937 2.027344,-1.7460938 3.480469,-4.61718754 5.601563,-10.21875 L 89.05757,-16.335836 h -3.140625 l -3.246093,9.5859376 c -0.398438,1.1835937 -0.738282,2.4257812 -1.042969,3.4101562 h -0.07031 c -0.269531,-0.984375 -0.667968,-2.2617187 -1.042968,-3.3398437 L 76.940383,-16.335836 Z M 91.749953,6.6797891 h 2.941406 v -8.8710938 h 0.07031 c 0.972656,1.61718751 2.871094,2.56640626 5.027344,2.56640626 3.843757,0 7.429687,-2.90624996 7.429687,-8.77734376 0,-4.9687498 -2.97656,-8.3085938 -6.92578,-8.3085938 -2.660157,0 -4.593751,1.183594 -5.800782,3.175781 h -0.07031 l -0.140625,-2.800781 h -2.660156 c 0.07031,1.546875 0.128906,3.234375 0.128906,5.332031 z m 2.941406,-16.1367188 c 0,-0.3984375 0.105469,-0.8437503 0.199219,-1.2070313 0.574219,-2.238281 2.472656,-3.679687 4.488281,-3.679687 3.140621,0 4.863281,2.800781 4.863281,6.0703121 0,3.75 -1.81641,6.3164062 -4.957031,6.3164062 -2.132812,0 -3.914062,-1.4179687 -4.464843,-3.4804687 -0.05859,-0.375 -0.128907,-0.7734375 -0.128907,-1.21875 z M 117.8857,-16.710836 c -4.52344,0 -8.10938,3.210938 -8.10938,8.6718751 0,5.1679687 3.41016,8.41406246 7.83984,8.41406246 3.94922,0 8.13282,-2.63671876 8.13282,-8.68359376 0,-4.9921878 -3.17578,-8.4023438 -7.86328,-8.4023438 z m -0.0703,2.226563 c 3.51563,0 4.89844,3.515625 4.89844,6.2812496 0,3.6796875 -2.13281,6.3515625 -4.96875,6.3515625 -2.89453,0 -4.95703,-2.7070313 -4.95703,-6.28125 0,-3.1054691 1.52344,-6.3515621 5.02734,-6.3515621 z m 23.15918,-1.851563 -0.14062,2.460938 h -0.0586 c -0.71484,-1.347657 -2.26172,-2.835938 -5.09765,-2.835938 -3.75,0 -7.3711,3.140625 -7.3711,8.6718751 0,4.5234375 2.90625,7.96874996 6.96094,7.96874996 2.53125,0 4.28906,-1.20703126 5.20313,-2.73046876 h 0.0586 v 1.81640626 c 0,4.12500004 -2.22656,5.70703124 -5.26172,5.70703124 -2.02734,0 -3.71484,-0.609375 -4.79297,-1.2773437 l -0.75,2.2617187 c 1.32422,0.8789063 3.48047,1.3476563 5.4375,1.3476563 2.0625,0 4.35938,-0.46875 5.94141,-1.9570313 1.59375,-1.4179687 2.33203,-3.7148437 2.33203,-7.4648437 v -9.4804691 c 0,-1.992187 0.0703,-3.316406 0.14062,-4.488281 z m -0.46875,9.3867188 c 0,0.5039063 -0.0703,1.078125 -0.24609,1.5820313 -0.63281,1.8867187 -2.29688,3.0351562 -4.11328,3.0351562 -3.21094,0 -4.82813,-2.6601562 -4.82813,-5.8710937 0,-3.7851566 2.02735,-6.1757816 4.86328,-6.1757816 2.15625,0 3.60938,1.417969 4.14844,3.140625 0.14063,0.398438 0.17578,0.84375 0.17578,1.3476566 z m 7.65235,6.9492187625 h 2.9414 V -8.7069297 c 0,-0.515625 0.0703,-0.984375 0.12891,-1.3828123 0.41015,-2.238281 1.89844,-3.820313 3.98437,-3.820313 0.41016,0 0.71485,0.03516 1.01953,0.105469 v -2.800781 c -0.26953,-0.07031 -0.5039,-0.105469 -0.84375,-0.105469 -1.99218,0 -3.78515,1.382813 -4.52343,3.574219 h -0.14063 l -0.0937,-3.199219 h -2.60156 c 0.0937,1.511719 0.12891,3.164063 0.12891,5.097656 z m 22.62597,0 C 170.58491,-1.1131797 170.5146,-2.4959922 170.5146,-3.9139609 v -6.1171871 c 0,-3.269532 -1.21875,-6.679688 -6.21094,-6.679688 -2.0625,0 -4.01953,0.574219 -5.36718,1.453125 l 0.66797,1.957031 c 1.14843,-0.738281 2.74218,-1.21875 4.2539,-1.21875 3.35156,0 3.71485,2.4375 3.71485,3.785157 v 0.339843 c -6.31641,-0.03516 -9.82032,2.1210941 -9.82032,6.0703128 0,2.3671875 1.6875,4.69921876 4.99219,4.69921876 2.33203,0 4.08984,-1.1484375 5.00391,-2.43749996 h 0.0937 L 168.0771,1.015625e-4 Z M 167.64351,-5.5077109 c 0,0.3046875 -0.0703,0.6445312 -0.16406,0.9492187 -0.48047,1.3828125 -1.82813,2.7304688 -3.96094,2.7304688 -1.51172,0 -2.80078,-0.9023438 -2.80078,-2.8359375 0,-3.1640625 3.67968,-3.7382813 6.92578,-3.6796875 z m 7.6582,5.5078124625 h 2.97656 V -9.8553672 c 0,-0.5742188 0.0352,-1.0195308 0.19922,-1.4179688 0.53906,-1.628906 2.0625,-2.976562 3.98438,-2.976562 2.80078,0 3.78515,2.226562 3.78515,4.8632808 V 1.015625e-4 h 2.96485 V -9.7264609 c 0,-5.6367191 -3.50391,-6.9843751 -5.70703,-6.9843751 -1.11329,0 -2.15625,0.339844 -3.03516,0.84375 -0.91406,0.503906 -1.65234,1.253906 -2.12109,2.097656 h -0.0703 v -10.207031 h -2.97656 z M 194.03706,6.6797891 h 2.94141 v -8.8710938 h 0.0703 c 0.97266,1.61718751 2.87109,2.56640626 5.02734,2.56640626 3.84375,0 7.42969,-2.90624996 7.42969,-8.77734376 0,-4.9687498 -2.97656,-8.3085938 -6.92578,-8.3085938 -2.66016,0 -4.59375,1.183594 -5.80078,3.175781 h -0.0703 l -0.14063,-2.800781 h -2.66015 c 0.0703,1.546875 0.1289,3.234375 0.1289,5.332031 z m 2.94141,-16.1367188 c 0,-0.3984375 0.10547,-0.8437503 0.19922,-1.2070313 0.57422,-2.238281 2.47265,-3.679687 4.48828,-3.679687 3.14062,0 4.86328,2.800781 4.86328,6.0703121 0,3.75 -1.81641,6.3164062 -4.95703,6.3164062 -2.13281,0 -3.91406,-1.4179687 -4.46485,-3.4804687 -0.0586,-0.375 -0.1289,-0.7734375 -0.1289,-1.21875 z M 216.22066,1.015625e-4 V -16.335836 h -2.97657 V 1.015625e-4 Z M 214.73237,-22.792867 c -1.07812,0 -1.85156,0.808594 -1.85156,1.863281 0,1.007813 0.73828,1.816406 1.78125,1.816406 1.1836,0 1.9336,-0.808593 1.89844,-1.816406 0,-1.054687 -0.71484,-1.863281 -1.82813,-1.863281 z m 17.55469,19.9570311 c -0.84375,0.375 -1.95703,0.8085937 -3.64453,0.8085937 -3.24609,0 -5.67187,-2.3320312 -5.67187,-6.1054687 0,-3.4101561 2.02734,-6.1875001 5.77734,-6.1875001 1.61719,0 2.73047,0.375 3.43359,0.785156 l 0.67969,-2.296875 c -0.80859,-0.410156 -2.36719,-0.84375 -4.11328,-0.84375 -5.34375,0 -8.78906,3.644532 -8.78906,8.6718753 0,5.0039063 3.21093,8.34375001 8.14453,8.34375001 2.1914,0 3.91406,-0.5390625 4.6875,-0.94921875 z m 26.53418,-0.234375 c -1.18359,0.5742187 -3,0.9375 -4.79297,0.9375 -5.54297,0 -8.74218,-3.5742188 -8.74218,-9.1406251 0,-5.976562 3.53906,-9.386719 8.87109,-9.386719 1.89844,0 3.48047,0.398438 4.59375,0.9375 l 0.71484,-2.390625 c -0.77343,-0.410156 -2.5664,-1.007812 -5.40234,-1.007812 -7.05469,0 -11.88281,4.816406 -11.88281,11.941406 0,7.4648438 4.82812,11.51953131 11.23828,11.51953131 2.76562,0 4.93359,-0.5390625 6.01172,-1.078125 z m 7.05762,3.0703124625 V -16.335836 H 262.9023 V 1.015625e-4 Z M 264.39058,-22.792867 c -1.07813,0 -1.85156,0.808594 -1.85156,1.863281 0,1.007813 0.73828,1.816406 1.78125,1.816406 1.18359,0 1.93359,-0.808593 1.89843,-1.816406 0,-1.054687 -0.71484,-1.863281 -1.82812,-1.863281 z m 6.41015,22.7929685625 h 2.94141 V -8.7069297 c 0,-0.515625 0.0703,-0.984375 0.12891,-1.3828123 0.41015,-2.238281 1.89843,-3.820313 3.98437,-3.820313 0.41016,0 0.71485,0.03516 1.01953,0.105469 v -2.800781 c -0.26953,-0.07031 -0.5039,-0.105469 -0.84375,-0.105469 -1.99218,0 -3.78515,1.382813 -4.52343,3.574219 h -0.14063 l -0.0937,-3.199219 h -2.60156 c 0.0937,1.511719 0.1289,3.164063 0.1289,5.097656 z M 292.64741,-2.8358359 c -0.84375,0.375 -1.95703,0.8085937 -3.64453,0.8085937 -3.24609,0 -5.67187,-2.3320312 -5.67187,-6.1054687 0,-3.4101561 2.02734,-6.1875001 5.77734,-6.1875001 1.61719,0 2.73047,0.375 3.4336,0.785156 l 0.67968,-2.296875 c -0.80859,-0.410156 -2.36718,-0.84375 -4.11328,-0.84375 -5.34375,0 -8.78906,3.644532 -8.78906,8.6718753 0,5.0039063 3.21094,8.34375001 8.14453,8.34375001 2.19141,0 3.91406,-0.5390625 4.6875,-0.94921875 z m 3.97852,2.8359374625 h 2.97656 V -23.976461 h -2.97656 z M 317.7314,-7.6288047 c 0.0351,-0.3046875 0.10547,-0.7734375 0.10547,-1.3828125 0,-3.0117188 -1.41797,-7.6992188 -6.76172,-7.6992188 -4.75781,0 -7.66406,3.878906 -7.66406,8.8125001 0,4.921875 3.01171,8.23828121 8.03906,8.23828121 2.60156,0 4.39453,-0.5390625 5.4375,-1.01953125 l -0.50391,-2.12109376 c -1.11328,0.46875 -2.40234,0.84375 -4.52344,0.84375 -2.97656,0 -5.54296,-1.6523437 -5.61328,-5.671875 z m -11.44922,-2.1328125 c 0.24609,-2.0507808 1.55859,-4.8281248 4.55859,-4.8281248 3.35157,0 4.16016,2.941406 4.125,4.8281248 z m 0,0" style="fill:#231916;fill-opacity:1;fill-rule:nonzero;stroke:none" aria-label="The Typograhpic Circle" transform="matrix(1.3333333,0,0,1.3333333,195.50267,388.85533)" />
      <path id="path17" d="m 0,0 h 2.971 v 20.255 h 6.954 v 2.498 H -6.92 V 20.255 H 0 Z" style="fill:none;stroke:#231916;stroke-width:1;stroke-linecap:butt;stroke-linejoin:miter;stroke-miterlimit:10;stroke-dasharray:none;stroke-opacity:1" transform="matrix(1.3333333,0,0,-1.3333333,204.68453,388.85533)" />
      <path id="path18" d="m 0,0 h 2.971 v 9.857 c 0,0.574 0.033,1.013 0.202,1.418 0.54,1.621 2.059,2.971 3.983,2.971 2.802,0 3.782,-2.228 3.782,-4.861 V 0 h 2.97 v 9.722 c 0,5.638 -3.511,6.988 -5.705,6.988 -1.114,0 -2.16,-0.337 -3.038,-0.844 C 4.253,15.36 3.511,14.617 3.038,13.773 H 2.971 V 23.968 H 0 Z" style="fill:none;stroke:#231916;stroke-width:1;stroke-linecap:butt;stroke-linejoin:miter;stroke-miterlimit:10;stroke-dasharray:none;stroke-opacity:1" transform="matrix(1.3333333,0,0,-1.3333333,220.84373,388.85533)" />
      <path id="path19" d="m 0,0 c 0.034,0.304 0.101,0.776 0.101,1.384 0,3.004 -1.418,7.697 -6.751,7.697 -4.76,0 -7.663,-3.882 -7.663,-8.811 0,-4.929 3.004,-8.237 8.034,-8.237 2.599,0 4.388,0.54 5.435,1.013 l -0.506,2.126 c -1.114,-0.472 -2.397,-0.843 -4.524,-0.843 -2.971,0 -5.536,1.654 -5.604,5.671 z m -11.444,2.126 c 0.236,2.06 1.553,4.828 4.557,4.828 3.342,0 4.153,-2.937 4.119,-4.828 z" style="fill:none;stroke:#231916;stroke-width:1;stroke-linecap:butt;stroke-linejoin:miter;stroke-miterlimit:10;stroke-dasharray:none;stroke-opacity:1" transform="matrix(1.3333333,0,0,-1.3333333,263.33333,378.6828)" />
      <path id="path20" d="m 0,0 h 2.971 v 20.255 h 6.954 v 2.498 H -6.92 V 20.255 H 0 Z" style="fill:none;stroke:#231916;stroke-width:1;stroke-linecap:butt;stroke-linejoin:miter;stroke-miterlimit:10;stroke-dasharray:none;stroke-opacity:1" transform="matrix(1.3333333,0,0,-1.3333333,281.96707,388.85533)" />
      <path id="path21" d="m 0,0 6.043,-15.056 c 0.135,-0.371 0.202,-0.608 0.202,-0.777 0,-0.168 -0.101,-0.405 -0.236,-0.709 -0.675,-1.519 -1.688,-2.666 -2.498,-3.308 -0.878,-0.742 -1.857,-1.215 -2.599,-1.451 l 0.742,-2.498 c 0.743,0.135 2.195,0.641 3.646,1.924 2.026,1.755 3.477,4.625 5.604,10.229 L 15.36,0 H 12.22 L 8.979,-9.587 c -0.404,-1.182 -0.742,-2.431 -1.046,-3.41 H 7.866 c -0.27,0.979 -0.676,2.262 -1.047,3.342 L 3.241,0 Z" style="fill:none;stroke:#231916;stroke-width:1;stroke-linecap:butt;stroke-linejoin:miter;stroke-miterlimit:10;stroke-dasharray:none;stroke-opacity:1" transform="matrix(1.3333333,0,0,-1.3333333,293.76013,367.07013)" />
      <path id="path22" d="m 0,0 h 2.937 v 8.878 h 0.067 c 0.979,-1.62 2.87,-2.565 5.03,-2.565 3.849,0 7.427,2.903 7.427,8.777 0,4.962 -2.971,8.304 -6.92,8.304 -2.667,0 -4.591,-1.181 -5.807,-3.173 H 2.667 L 2.532,23.023 H -0.135 C -0.067,21.47 0,19.782 0,17.689 Z m 2.937,16.136 c 0,0.406 0.101,0.844 0.203,1.216 0.573,2.228 2.464,3.679 4.489,3.679 3.14,0 4.861,-2.802 4.861,-6.076 0,-3.747 -1.823,-6.313 -4.962,-6.313 -2.127,0 -3.916,1.418 -4.456,3.477 -0.068,0.371 -0.135,0.777 -0.135,1.215 z" style="fill:none;stroke:#231916;stroke-width:1;stroke-linecap:butt;stroke-linejoin:miter;stroke-miterlimit:10;stroke-dasharray:none;stroke-opacity:1" transform="matrix(1.3333333,0,0,-1.3333333,317.84013,397.76733)" />
      <path id="path23" d="m 0,0 c -4.523,0 -8.102,-3.207 -8.102,-8.676 0,-5.164 3.41,-8.405 7.832,-8.405 3.95,0 8.135,2.633 8.135,8.675 C 7.865,-3.409 4.692,0 0,0 Z m -0.067,-2.228 c 3.51,0 4.894,-3.511 4.894,-6.279 0,-3.68 -2.126,-6.347 -4.962,-6.347 -2.903,0 -4.963,2.701 -4.963,6.28 0,3.105 1.519,6.346 5.031,6.346 z" style="fill:none;stroke:#231916;stroke-width:1;stroke-linecap:butt;stroke-linejoin:miter;stroke-miterlimit:10;stroke-dasharray:none;stroke-opacity:1" transform="matrix(1.3333333,0,0,-1.3333333,352.67747,366.57533)" />
      <path id="path24" d="m 0,0 -0.135,-2.464 h -0.068 c -0.709,1.35 -2.261,2.835 -5.097,2.835 -3.747,0 -7.359,-3.139 -7.359,-8.676 0,-4.523 2.903,-7.966 6.954,-7.966 2.532,0 4.287,1.215 5.199,2.734 h 0.067 v -1.823 c 0,-4.119 -2.228,-5.705 -5.266,-5.705 -2.025,0 -3.713,0.607 -4.794,1.283 l -0.742,-2.262 c 1.316,-0.878 3.477,-1.35 5.435,-1.35 2.059,0 4.354,0.472 5.941,1.957 1.587,1.418 2.329,3.714 2.329,7.461 v 9.486 c 0,1.992 0.068,3.308 0.136,4.49 z m -0.473,-9.385 c 0,-0.506 -0.067,-1.08 -0.236,-1.586 -0.641,-1.891 -2.295,-3.039 -4.118,-3.039 -3.207,0 -4.828,2.667 -4.828,5.874 0,3.781 2.026,6.178 4.862,6.178 2.16,0 3.611,-1.418 4.152,-3.14 0.135,-0.404 0.168,-0.843 0.168,-1.35 z" style="fill:none;stroke:#231916;stroke-width:1;stroke-linecap:butt;stroke-linejoin:miter;stroke-miterlimit:10;stroke-dasharray:none;stroke-opacity:1" transform="matrix(1.3333333,0,0,-1.3333333,383.46453,367.07013)" />
      <path id="path25" d="m 0,0 h 2.937 v 8.709 c 0,0.507 0.067,0.979 0.135,1.385 0.405,2.228 1.89,3.814 3.983,3.814 0.405,0 0.709,-0.033 1.013,-0.101 v 2.802 C 7.798,16.676 7.562,16.71 7.224,16.71 5.232,16.71 3.443,15.326 2.701,13.132 H 2.565 L 2.464,16.339 H -0.135 C -0.034,14.82 0,13.166 0,11.241 Z" style="fill:none;stroke:#231916;stroke-width:1;stroke-linecap:butt;stroke-linejoin:miter;stroke-miterlimit:10;stroke-dasharray:none;stroke-opacity:1" transform="matrix(1.3333333,0,0,-1.3333333,393.05107,388.85533)" />
      <path id="path26" d="m 0,0 c -0.203,1.114 -0.27,2.498 -0.27,3.916 v 6.11 c 0,3.275 -1.215,6.684 -6.211,6.684 -2.06,0 -4.018,-0.574 -5.368,-1.452 l 0.675,-1.957 c 1.148,0.742 2.735,1.215 4.254,1.215 3.342,0 3.713,-2.431 3.713,-3.781 v -0.338 c -6.313,0.034 -9.823,-2.126 -9.823,-6.076 0,-2.363 1.688,-4.692 4.996,-4.692 2.329,0 4.084,1.147 4.996,2.43 h 0.101 L -2.701,0 Z m -3.139,5.502 c 0,-0.303 -0.068,-0.641 -0.169,-0.945 -0.473,-1.384 -1.823,-2.734 -3.95,-2.734 -1.519,0 -2.802,0.911 -2.802,2.836 0,3.173 3.68,3.747 6.921,3.679 z" style="fill:none;stroke:#231916;stroke-width:1;stroke-linecap:butt;stroke-linejoin:miter;stroke-miterlimit:10;stroke-dasharray:none;stroke-opacity:1" transform="matrix(1.3333333,0,0,-1.3333333,423.208,388.85533)" />
      <path id="path27" d="m 0,0 h 2.971 v 9.857 c 0,0.574 0.033,1.013 0.202,1.418 0.54,1.621 2.059,2.971 3.984,2.971 2.801,0 3.781,-2.228 3.781,-4.861 V 0 h 2.97 v 9.722 c 0,5.638 -3.511,6.988 -5.705,6.988 -1.114,0 -2.161,-0.337 -3.038,-0.844 C 4.253,15.36 3.511,14.617 3.038,13.773 H 2.971 V 23.968 H 0 Z" style="fill:none;stroke:#231916;stroke-width:1;stroke-linecap:butt;stroke-linejoin:miter;stroke-miterlimit:10;stroke-dasharray:none;stroke-opacity:1" transform="matrix(1.3333333,0,0,-1.3333333,429.23987,388.85533)" />
      <path id="path28" d="m 0,0 h 2.937 v 8.878 h 0.067 c 0.979,-1.62 2.87,-2.565 5.03,-2.565 3.849,0 7.427,2.903 7.427,8.777 0,4.962 -2.971,8.304 -6.92,8.304 -2.667,0 -4.591,-1.181 -5.807,-3.173 H 2.667 L 2.532,23.023 H -0.135 C -0.067,21.47 0,19.782 0,17.689 Z m 2.937,16.136 c 0,0.406 0.101,0.844 0.203,1.216 0.573,2.228 2.464,3.679 4.489,3.679 3.14,0 4.861,-2.802 4.861,-6.076 0,-3.747 -1.823,-6.313 -4.962,-6.313 -2.127,0 -3.916,1.418 -4.456,3.477 -0.068,0.371 -0.135,0.777 -0.135,1.215 z" style="fill:none;stroke:#231916;stroke-width:1;stroke-linecap:butt;stroke-linejoin:miter;stroke-miterlimit:10;stroke-dasharray:none;stroke-opacity:1" transform="matrix(1.3333333,0,0,-1.3333333,454.2204,397.76733)" />
      <path id="path29" d="M 0,0 V 16.339 H -2.971 V 0 Z m -1.485,22.787 c -1.08,0 -1.857,-0.811 -1.857,-1.857 0,-1.013 0.742,-1.823 1.789,-1.823 1.181,0 1.924,0.81 1.89,1.823 0,1.046 -0.709,1.857 -1.822,1.857 z" style="fill:none;stroke:#231916;stroke-width:1;stroke-linecap:butt;stroke-linejoin:miter;stroke-miterlimit:10;stroke-dasharray:none;stroke-opacity:1" transform="matrix(1.3333333,0,0,-1.3333333,483.79133,388.85533)" />
      <path id="path30" d="m 0,0 c -0.844,-0.371 -1.958,-0.81 -3.646,-0.81 -3.241,0 -5.671,2.33 -5.671,6.11 0,3.409 2.025,6.178 5.773,6.178 1.62,0 2.734,-0.372 3.442,-0.776 l 0.676,2.295 c -0.81,0.405 -2.363,0.844 -4.118,0.844 -5.334,0 -8.778,-3.646 -8.778,-8.676 0,-4.996 3.207,-8.338 8.136,-8.338 2.194,0 3.916,0.54 4.692,0.945 z" style="fill:none;stroke:#231916;stroke-width:1;stroke-linecap:butt;stroke-linejoin:miter;stroke-miterlimit:10;stroke-dasharray:none;stroke-opacity:1" transform="matrix(1.3333333,0,0,-1.3333333,505.21587,385.07467)" />
      <path id="path31" d="m 0,0 c -1.182,-0.574 -3.004,-0.945 -4.793,-0.945 -5.537,0 -8.744,3.578 -8.744,9.148 0,5.975 3.545,9.385 8.878,9.385 1.891,0 3.477,-0.405 4.592,-0.945 l 0.708,2.397 c -0.776,0.405 -2.565,1.012 -5.401,1.012 -7.055,0 -11.883,-4.827 -11.883,-11.95 0,-7.46 4.828,-11.511 11.242,-11.511 2.768,0 4.928,0.54 6.008,1.08 z" style="fill:none;stroke:#231916;stroke-width:1;stroke-linecap:butt;stroke-linejoin:miter;stroke-miterlimit:10;stroke-dasharray:none;stroke-opacity:1" transform="matrix(1.3333333,0,0,-1.3333333,540.59347,384.7596)" />
      <path id="path32" d="M 0,0 V 16.339 H -2.971 V 0 Z m -1.485,22.787 c -1.08,0 -1.857,-0.811 -1.857,-1.857 0,-1.013 0.742,-1.823 1.789,-1.823 1.181,0 1.924,0.81 1.89,1.823 0,1.046 -0.709,1.857 -1.822,1.857 z" style="fill:none;stroke:#231916;stroke-width:1;stroke-linecap:butt;stroke-linejoin:miter;stroke-miterlimit:10;stroke-dasharray:none;stroke-opacity:1" transform="matrix(1.3333333,0,0,-1.3333333,550.00027,388.85533)" />
      <path id="path33" d="m 0,0 h 2.937 v 8.709 c 0,0.507 0.067,0.979 0.135,1.385 0.405,2.228 1.89,3.814 3.983,3.814 0.405,0 0.709,-0.033 1.013,-0.101 v 2.802 C 7.798,16.676 7.562,16.71 7.224,16.71 5.232,16.71 3.443,15.326 2.701,13.132 H 2.565 L 2.464,16.339 H -0.135 C -0.034,14.82 0,13.166 0,11.241 Z" style="fill:none;stroke:#231916;stroke-width:1;stroke-linecap:butt;stroke-linejoin:miter;stroke-miterlimit:10;stroke-dasharray:none;stroke-opacity:1" transform="matrix(1.3333333,0,0,-1.3333333,556.572,388.85533)" />
      <path id="path34" d="m 0,0 c -0.844,-0.371 -1.958,-0.81 -3.646,-0.81 -3.241,0 -5.671,2.33 -5.671,6.11 0,3.409 2.025,6.178 5.773,6.178 1.62,0 2.734,-0.372 3.442,-0.776 l 0.676,2.295 c -0.81,0.405 -2.363,0.844 -4.118,0.844 -5.334,0 -8.778,-3.646 -8.778,-8.676 0,-4.996 3.207,-8.338 8.136,-8.338 2.194,0 3.916,0.54 4.692,0.945 z" style="fill:none;stroke:#231916;stroke-width:1;stroke-linecap:butt;stroke-linejoin:miter;stroke-miterlimit:10;stroke-dasharray:none;stroke-opacity:1" transform="matrix(1.3333333,0,0,-1.3333333,585.69373,385.07467)" />
      <path id="path35" d="M 0,0 H 2.971 V 23.968 H 0 Z" style="fill:none;stroke:#231916;stroke-width:1;stroke-linecap:butt;stroke-linejoin:miter;stroke-miterlimit:10;stroke-dasharray:none;stroke-opacity:1" transform="matrix(1.3333333,0,0,-1.3333333,591.00427,388.85533)" />
      <path id="path36" d="m 0,0 c 0.034,0.304 0.101,0.776 0.101,1.384 0,3.004 -1.418,7.697 -6.751,7.697 -4.76,0 -7.663,-3.882 -7.663,-8.811 0,-4.929 3.004,-8.237 8.034,-8.237 2.599,0 4.388,0.54 5.435,1.013 l -0.507,2.126 c -1.113,-0.472 -2.396,-0.843 -4.523,-0.843 -2.971,0 -5.536,1.654 -5.604,5.671 z m -11.444,2.126 c 0.236,2.06 1.553,4.828 4.557,4.828 3.343,0 4.153,-2.937 4.119,-4.828 z" style="fill:none;stroke:#231916;stroke-width:1;stroke-linecap:butt;stroke-linejoin:miter;stroke-miterlimit:10;stroke-dasharray:none;stroke-opacity:1" transform="matrix(1.3333333,0,0,-1.3333333,619.13573,378.6828)" />
      </g></svg>