<?xml version='1.0' encoding='utf-8'?>
<svg xmlns="http://www.w3.org/2000/svg" version="1.1" width="48.600" height="101.693" viewBox="460.991 3956.880 48.600 101.693"><g id="object"><path id="path110" d="m 0,0 c -2.45,-0.16 -3.867,-0.266 -5.285,-0.343 -9.025,-0.493 -9.574,0.617 -9.384,9.361 0.194,8.9 -0.095,17.879 -0.006,26.758 0.084,8.398 -0.651,16.857 0.25,25.279 0.405,3.788 1.971,5.231 5.796,5.512 4.514,0.332 8.948,0.031 13.429,-0.127 3.913,-0.137 6.267,-0.343 6.667,-5.585 0.442,-5.792 -2.965,-4.683 -6.032,-5.177 -4.344,-0.7 -7.281,-2.252 -7.143,-7.714 0.127,-5.044 1.82,-7.442 6.87,-7.694 4.093,-0.204 5.716,-2.613 5.368,-6.674 -0.332,-3.872 -1.718,-6.313 -6.129,-5.89 -6.564,0.629 -5.643,-4.399 -5.712,-8.152 -0.073,-3.957 0.839,-8.178 6.104,-7.582 5.743,0.649 7.93,-1.693 7.771,-7.057 C 12.382,-1.221 7.98,-0.638 3.896,-0.444 2.252,-0.366 0.618,-0.073 0,0" style="fill:#494f57;fill-opacity:1;fill-rule:nonzero;stroke:none" transform="matrix(1.3333333,0,0,-1.3333333,486.8284,4051.8329)" />
      </g></svg>