<?xml version='1.0' encoding='utf-8'?>
<svg xmlns="http://www.w3.org/2000/svg" version="1.1" width="56.733" height="101.251" viewBox="1000.570 4183.000 56.733 101.251"><g id="object"><path id="path185" d="m 0,0 c 3.078,0 6.157,0.006 9.235,-0.001 3.021,-0.007 6.41,0.766 6.514,-4.116 0.082,-3.868 0.067,-7.367 -5.268,-7.036 -4.872,0.303 -4.468,-3.418 -4.503,-6.323 -0.12,-10.165 0.029,-20.334 0.028,-30.501 -0.001,-4.252 -0.218,-8.506 -0.166,-12.757 0.071,-5.857 -3.706,-6.285 -8.126,-6.05 -5.192,0.275 -4.083,3.901 -4.117,7.208 -0.147,14.145 -0.508,28.288 -0.655,42.433 -0.043,4.172 -1.103,6.864 -5.992,6.74 -2.823,-0.071 -5.265,0.948 -4.634,4.618 0.548,3.193 1.4,6.047 5.628,5.885 C -8.043,-0.053 -4.019,0.067 0,0.067 0,0.045 0,0.022 0,0" style="fill:#494f57;fill-opacity:1;fill-rule:nonzero;stroke:none" transform="matrix(1.3333333,0,0,-1.3333333,1030.2865,4189.1384)" />
      </g></svg>