<?xml version='1.0' encoding='utf-8'?>
<svg xmlns="http://www.w3.org/2000/svg" version="1.1" width="633.000" height="343.557" viewBox="1863.790 1680.800 633.000 343.557"><defs id="defs1"><clipPath clipPathUnits="userSpaceOnUse" id="clipPath10">
      <path d="M 0,3370.3901 H 2383.9401 V -2.5000001e-5 H 0 Z" id="path10" />
    </clipPath>
  </defs><g id="object"><path id="path4" d="m 0,0 c -10.491,24.25 -20.694,47.837 -29.585,68.39 -13.963,0 -24.094,-0.08 -34.223,0.017 -18.77,0.181 -24.252,-5.103 -23.728,-24.03 0.414,-14.96 2.376,-29.947 1.697,-44.832 -0.265,-5.796 -4.574,-13.345 -9.395,-16.506 -6.078,-3.987 -15.861,-7.631 -21.687,-5.363 -7.436,2.895 -8.411,12.037 -7.403,21.662 1.923,18.346 0.66,37.028 0.695,55.57 0.02,10.995 -1.717,20.11 -16.52,16.079 -1.829,-0.498 -4.25,0.169 -6.113,0.962 -16.756,7.143 -28.612,3.903 -36.895,-11.675 -6.481,-12.189 -12.323,-24.845 -17.067,-37.8 -6.833,-18.653 -23.748,-12.371 -36.574,-18.451 -7.66,22.425 -0.987,40.302 8.091,58.213 6.554,12.931 12.066,26.447 17.044,40.068 0.928,2.54 -2.019,8.621 -4.694,9.904 -5.289,2.536 -13.09,5.695 -17.269,3.554 -11.386,-5.831 -21.407,-14.317 -32.005,-21.698 -14.474,-10.079 -28.645,-20.651 -43.609,-29.944 -8.221,-5.107 -15.869,-3.169 -18.208,7.748 -0.891,4.162 -1.993,8.882 -0.912,12.767 6.901,24.799 12.701,50.3 35.33,66.874 8.843,6.478 14.341,14.874 3.66,23.276 -15.461,12.162 -5.162,28.726 -8.979,42.741 -0.297,1.09 4.437,5.071 5.128,4.681 9.812,-5.523 25.392,-9.821 27.705,-17.84 5.514,-19.111 19.817,-29.86 33.256,-38.614 27.174,-17.699 56.994,-31.469 86.278,-45.717 9.177,-4.465 20.021,-6.147 30.312,-7.466 7.846,-1.006 16.058,1.274 24.046,0.878 33.199,-1.646 62.804,6.22 89.411,27.489 19.831,15.853 42.759,27.807 62.809,43.422 10.434,8.125 17.323,20.688 26.415,30.7 4.05,4.459 11.024,11.589 14.149,10.469 6.808,-2.439 14.572,-8.269 17.379,-14.705 9.358,-21.458 7.348,-22.964 -11.452,-39.049 -8.436,-7.217 -15.163,-17.446 -19.797,-27.615 -1.992,-4.371 1.653,-13.591 5.646,-17.931 8.169,-8.878 18.473,-15.755 27.598,-23.797 C 144.691,81.143 142.78,65.689 110.763,46.649 98.822,61.436 86.506,76.673 74.214,91.929 72.54,94.006 71.033,96.216 69.372,98.303 56.214,114.848 48.864,115.721 32.123,102.76 12.047,87.218 12.376,87.342 21.741,62.544 26.298,50.479 31.603,38.03 32.622,25.436 34.6,0.974 32.331,-1.625 0,0" style="fill:#231916;fill-opacity:1;fill-rule:nonzero;stroke:none" transform="matrix(1.3333333,0,0,-1.3333333,2308.1997,1987.6633)" />
      </g></svg>