<?xml version='1.0' encoding='utf-8'?>
<svg xmlns="http://www.w3.org/2000/svg" version="1.1" width="588.665" height="568.130" viewBox="1745.710 1131.500 588.665 568.130"><g id="object"><path id="path5" d="m 0,0 v 142.941 c 79.564,0 157.026,-0.472 234.48,0.185 43.474,0.368 66.517,19.976 69.493,56.394 3.693,45.208 -20.078,71.264 -68.377,71.966 -64.666,0.941 -129.356,0.246 -194.035,0.253 -12.988,0.002 -25.977,0.001 -41.199,0.001 v 142.487 c 91.753,0 183.132,6.98 272.976,-1.779 C 383.84,401.675 440.676,314.954 431.547,190.914 426.131,117.321 407.34,50.831 333.091,16.572 315.957,8.666 296.755,1.054 278.376,0.734 186.445,-0.869 94.472,0 0,0" style="fill:#231916;fill-opacity:1;fill-rule:nonzero;stroke:none" transform="matrix(1.3333333,0,0,-1.3333333,1751.7109,1693.3195)" />
      </g></svg>