<?xml version='1.0' encoding='utf-8'?>
<svg xmlns="http://www.w3.org/2000/svg" version="1.1" width="53.833" height="136.827" viewBox="156.527 3298.660 53.833 136.827"><g id="object"><path id="path189" d="m 0,0 c -0.107,-13.365 -0.185,-26.718 -1.448,-40.044 -0.202,-2.138 -0.447,-4.287 -0.899,-6.382 -0.497,-2.303 -3.527,-4.434 -5.928,-3.906 -6.265,1.379 -12.504,2.903 -18.693,4.591 -3.477,0.948 -4.764,2.966 -4.243,6.867 0.856,6.398 1.698,12.832 3.166,19.106 4.32,18.456 8.902,36.851 13.502,55.239 0.604,2.415 1.083,5.066 3.662,6.543 5.164,2.956 10.708,0.196 10.816,-5.823 C 0.153,24.13 0,12.064 0,0" style="fill:#494643;fill-opacity:1;fill-rule:nonzero;stroke:none" transform="matrix(1.3333333,0,0,-1.3333333,204.2908,3362.2656)" />
      </g></svg>