<?xml version='1.0' encoding='utf-8'?>
<svg xmlns="http://www.w3.org/2000/svg" version="1.1" width="420.174" height="473.317" viewBox="205.454 901.966 420.174 473.317"><defs id="defs1"><clipPath clipPathUnits="userSpaceOnUse" id="clipPath4">
      <path d="M -2384.1568,2286.7354 H -0.21670001 V -1083.6547 H -2384.1568 Z" id="path4" />
    </clipPath>
    <clipPath clipPathUnits="userSpaceOnUse" id="clipPath6">
      <path d="M -2384.0266,1933.815 H -0.086575 v -3370.39 H -2384.0266 Z" id="path6" />
    </clipPath>
    <clipPath clipPathUnits="userSpaceOnUse" id="clipPath8">
      <path d="M -2384.1847,2520.3537 H -0.24460001 V -850.0364 H -2384.1847 Z" id="path8" />
    </clipPath>
    <clipPath clipPathUnits="userSpaceOnUse" id="clipPath10">
      <path d="M -1378.8652,3371.3417 H 1005.0749 V 0.95157502 h -2383.9401 z" id="path10" />
    </clipPath>
    <clipPath clipPathUnits="userSpaceOnUse" id="clipPath12">
      <path d="M -2383.8391,1819.185 H 0.100925 v -3370.39 H -2383.8391 Z" id="path12" />
    </clipPath>
    <clipPath clipPathUnits="userSpaceOnUse" id="clipPath14">
      <path d="M -2384.2639,1767.3618 H -0.32387501 V -1603.0283 H -2384.2639 Z" id="path14" />
    </clipPath>
  </defs><g id="object"><path id="path18" d="m 0,0 c 24.24,-8.826 48.876,-15.518 69.638,-33.178 21.667,-18.43 33.142,-41.164 39.728,-67.496 1.043,-4.169 2.639,-9.336 -1.927,-13.044 -11.398,-9.255 -65.994,1.609 -70.731,14.994 -16.359,46.233 -98.06,50.829 -129.558,13.254 -30.104,-35.912 -30.653,-77.918 -22.942,-121.027 10.686,-59.743 56.356,-89.605 114.228,-75.331 24.339,6.003 45.741,29.153 49.448,52.498 1.711,10.775 -0.426,16.978 -12.823,16.314 -7.917,-0.424 -15.877,-0.093 -23.816,-0.019 -34.367,0.32 -41.787,10.361 -34.112,44.349 1.837,8.135 6.149,10.13 13.202,10.147 37.319,0.091 74.639,0.056 111.955,0.461 10.288,0.111 14.149,-4.509 14.154,-14.255 0.025,-50.818 0.234,-101.635 0.329,-152.453 0.014,-7.784 -1.649,-14.975 -11.592,-13.926 -14.034,1.481 -31.296,-7.123 -40.305,11.139 -2.683,5.439 -2.814,12.138 -4.818,21.574 -45.08,-49.027 -99.205,-45.098 -155.374,-28.504 -62.945,28.289 -91.51,78.929 -93.881,145.948 -3.259,92.127 43.398,164.015 118.244,184.587 15.684,4.311 31.493,1.99 47.106,4.198 4.81,-0.047 9.62,-0.094 14.43,-0.141 C -6.278,0.06 -3.139,0.03 0,0" style="fill:#9e998f;fill-opacity:1;fill-rule:nonzero;stroke:none" transform="matrix(1.3333333,0,0,-1.3333333,463.93067,908.27293)" />
      </g></svg>