<?xml version='1.0' encoding='utf-8'?>
<svg xmlns="http://www.w3.org/2000/svg" version="1.1" width="54.101" height="98.378" viewBox="1211.890 4363.150 54.101 98.378"><g id="object"><path id="path184" d="m 0,0 c 0,4.903 0.06,9.806 -0.017,14.707 -0.079,5.01 0.425,10.339 -7.428,9.772 -2.791,-0.202 -2.9,2.575 -2.817,4.774 0.085,2.262 0.481,4.312 3.457,4.296 7.955,-0.042 15.913,0.017 23.866,-0.15 2.2,-0.047 4.052,-0.908 4.222,-3.766 0.177,-2.981 -1.421,-4.904 -3.884,-4.941 -7.454,-0.111 -7.102,-5.12 -7.084,-10.2 0.045,-12.991 0.109,-25.983 -0.02,-38.972 -0.03,-3.064 0.69,-6.473 -4.781,-6.741 -5.551,-0.273 -5.063,3.6 -5.195,6.285 C -0.086,-16.641 0.171,-8.313 0.171,0.003 0.114,0.002 0.057,0.001 0,0" style="fill:#c33c36;fill-opacity:1;fill-rule:nonzero;stroke:none" transform="matrix(1.3333333,0,0,-1.3333333,1231.6005,4413.8815)" />
      </g></svg>