<?xml version='1.0' encoding='utf-8'?>
<svg xmlns="http://www.w3.org/2000/svg" version="1.1" width="104.130" height="153.353" viewBox="250.179 3101.220 104.130 153.353"><g id="object"><path id="path116" d="m 0,0 c -1.951,-0.161 -2.91,-1.41 -3.209,-3.137 -0.282,-1.626 -0.267,-3.311 1.367,-4.356 1.381,-0.883 3.561,1.119 3.741,3.589 C 2.015,-2.314 1.845,-0.689 0,0 M -2.768,49.299 C 3.132,35.037 7.918,23.571 12.609,12.068 14.073,8.479 15.132,4.724 16.631,1.152 22.82,-13.602 24.99,-29.46 29.296,-44.73 c 0.471,-1.672 -0.241,-3.419 -2.162,-4.16 -1.203,-0.464 -2.439,-0.846 -3.667,-1.243 -12.371,-4.008 -11.68,-2.006 -14.496,7.383 -1.485,4.952 -3.129,9.871 -5.018,14.68 -1.38,3.513 -1.948,7.538 -5.267,10.126 -3.519,-0.922 -4.039,-4.124 -5.292,-6.674 -4.366,-8.881 -8.466,-17.899 -13.043,-26.669 -3.232,-6.192 -13.46,-7.276 -18.757,-2.275 -1.358,1.284 -1.473,3.123 -1.008,4.824 2.271,8.307 4.411,16.66 7.006,24.867 3.767,11.914 7.719,23.777 11.917,35.545 2.453,6.877 5.344,13.617 8.403,20.251 2.306,5.002 5.189,9.738 9.32,17.374" style="fill:#494643;fill-opacity:1;fill-rule:nonzero;stroke:none" transform="matrix(1.3333333,0,0,-1.3333333,309.06053,3172.9531)" />
      </g></svg>