<?xml version='1.0' encoding='utf-8'?>
<svg xmlns="http://www.w3.org/2000/svg" version="1.1" width="649.421" height="335.461" viewBox="66.741 177.845 649.421 335.461"><defs id="defs1"><clipPath clipPathUnits="userSpaceOnUse" id="clipPath8">
      <path d="M -1148.4961,2089.633 H 1235.444 v -3370.3901 h -2383.9401 z" id="path8" />
    </clipPath>
    <clipPath clipPathUnits="userSpaceOnUse" id="clipPath12">
      <path d="M -2389.6702,1124.431 H -5.7301751 V -2245.9591 H -2389.6702 Z" id="path12" />
    </clipPath>
  </defs><g id="object"><path id="path33" d="M 32.239725,-3.265625e-4 H 46.149881 V -94.828452 H 78.704569 V -106.52376 H -0.1509 v 11.695308 H 32.239725 Z M 111.25926,-78.234702 c -21.175785,0 -37.933598,15.023438 -37.933598,40.617188 0,24.1875 15.972657,39.3515624 36.667968,39.3515624 18.49219,0 38.08594,-12.3281254 38.08594,-40.6171874 0,-23.378906 -14.84766,-39.351563 -36.82031,-39.351563 z m -0.31641,10.441407 c 16.44141,0 22.92187,16.429687 22.92187,29.390625 0,17.226562 -9.96093,29.7070309 -23.23828,29.7070309 -13.593746,0 -23.226559,-12.6445309 -23.226559,-29.3906249 0,-14.542969 7.113281,-29.707031 23.542969,-29.707031 z m 106.83691,-44.414065 v 45.667971 h -0.3164 c -3.48047,-6.164063 -11.37891,-11.695313 -23.07422,-11.695313 -18.64453,0 -34.45313,15.65625 -34.30078,41.097657 0,23.226562 14.22656,38.8710934 32.71875,38.8710934 12.48047,0 21.80859,-6.4804687 26.07422,-15.0117184 h 0.3164 l 0.63282,13.2773434375 h 12.49218 C 231.84226,-5.2151703 231.68992,-12.961264 231.68992,-19.758139 v -92.449221 z m 0,80.121096 c 0,2.214844 -0.16406,4.113281 -0.63281,6.011719 -2.53125,10.429687 -11.0625,16.5937497 -20.39062,16.5937497 -15.01172,0 -22.59375,-12.8085937 -22.59375,-28.2890627 0,-16.910156 8.53125,-29.554687 22.91015,-29.554687 10.42969,0 18.02344,7.265625 20.07422,16.125 0.46875,1.734375 0.63281,4.101562 0.63281,5.847656 z m 91.9834,32.0859374375 C 308.81394,-5.2151703 308.49754,-11.695639 308.49754,-18.328452 V -46.93392 c 0,-15.328125 -5.69531,-31.300782 -29.08594,-31.300782 -9.63281,0 -18.80859,2.695313 -25.125,6.796875 l 3.16406,9.175782 c 5.36719,-3.480469 12.79688,-5.695313 19.91016,-5.695313 15.64453,0 17.37891,11.378906 17.37891,17.695313 v 1.582031 c -29.54297,-0.152344 -45.98438,9.960937 -45.98438,28.453125 0,11.0624999 7.89844,21.9609374 23.39063,21.9609374 10.89843,0 19.125,-5.3671875 23.39062,-11.3789062 h 0.46875 l 1.11328,9.6445312375 z M 295.05613,-25.758139 c 0,1.417969 -0.3164,3 -0.78515,4.417969 -2.21485,6.480468 -8.53125,12.8085934 -18.49219,12.8085934 -7.11328,0 -13.11328,-4.2656254 -13.11328,-13.2773434 0,-14.859375 17.22656,-17.542969 32.39062,-17.226563 z m 24.49805,-50.730469 28.28906,70.4882814 c 0.63281,1.734375 0.94922,2.8359375 0.94922,3.6328125 0,0.7851563 -0.46875,1.89843754 -1.10156,3.31640629 -3.16407,7.11328121 -7.89844,12.48046881 -11.69532,15.49218781 -4.11328,3.46875 -8.69531,5.683593 -12.17578,6.785156 l 3.48047,11.695312 c 3.48047,-0.632812 10.27735,-3 17.07422,-9 9.48047,-8.226562 16.27734,-21.6562496 26.22656,-47.894531 l 20.8711,-54.515625 h -14.70703 l -15.16407,44.882813 c -1.89843,5.53125 -3.48047,11.378906 -4.89843,15.960937 h -0.31641 c -1.26563,-4.582031 -3.16406,-10.59375 -4.89844,-15.644531 l -16.75781,-45.199219 z m 92.45508,-30.351562 c -1.73438,11.378906 -5.84766,27.820312 -9.31641,37.148437 l 8.84766,-1.113281 c 4.41797,-7.265625 11.21484,-24.175781 14.84765,-37.453126 z m 12.80566,103.2070309 c 5.36719,3.16406254 13.11328,5.2148438 21.49219,5.2148438 18.17578,0 28.60547,-9.4804688 28.60547,-22.9218747 0,-11.378907 -6.79688,-18.011719 -20.07422,-23.074219 -9.94922,-3.785156 -14.53125,-6.632813 -14.53125,-12.949219 0,-5.695312 4.58203,-10.429687 12.79687,-10.429687 7.11328,0 12.64453,2.519531 15.64453,4.417968 l 3.48047,-10.113281 c -4.26562,-2.53125 -11.0625,-4.746094 -18.80859,-4.746094 -16.44141,0 -26.39063,10.125 -26.39063,22.441407 0,9.175781 6.48047,16.757812 20.22657,21.65625 10.27734,3.796875 14.22656,7.429687 14.22656,14.0625 0,6.328125 -4.74609,11.3789059 -14.85938,11.3789059 -6.94921,0 -14.22656,-2.8359379 -18.32812,-5.5312499 z m 0,0" style="fill:#009944;fill-opacity:1;fill-rule:nonzero;stroke:none" aria-label="Today’s" transform="matrix(1.3333333,0,0,1.3333333,74.9512,335.45747)" />
      <path id="path34" d="M 0,0 H 13.908 V 94.824 H 46.464 V 106.52 H -32.398 V 94.824 H 0 Z" style="fill:none;stroke:#009944;stroke-width:3;stroke-linecap:butt;stroke-linejoin:miter;stroke-miterlimit:10;stroke-dasharray:none;stroke-opacity:1" transform="matrix(1.3333333,0,0,-1.3333333,117.93813,335.45747)" />
      <path id="path35" d="m 0,0 c -21.177,0 -37.93,-15.014 -37.93,-40.616 0,-24.18 15.963,-39.352 36.666,-39.352 18.491,0 38.088,12.327 38.088,40.616 C 36.824,-15.962 21.968,0 0,0 Z m -0.316,-10.431 c 16.436,0 22.916,-16.436 22.916,-29.395 0,-17.227 -9.956,-29.712 -23.232,-29.712 -13.592,0 -23.232,12.643 -23.232,29.396 0,14.539 7.112,29.711 23.548,29.711 z" style="fill:none;stroke:#009944;stroke-width:3;stroke-linecap:butt;stroke-linejoin:miter;stroke-miterlimit:10;stroke-dasharray:none;stroke-opacity:1" transform="matrix(1.3333333,0,0,-1.3333333,223.29747,231.1508)" />
      <path id="path36" d="m 0,0 v -45.674 h -0.316 c -3.477,6.164 -11.379,11.695 -23.074,11.695 -18.649,0 -34.453,-15.646 -34.295,-41.09 0,-23.232 14.224,-38.878 32.714,-38.878 12.486,0 21.81,6.479 26.077,15.013 h 0.316 l 0.632,-13.275 H 14.54 c -0.475,5.215 -0.632,12.959 -0.632,19.755 V 0 Z m 0,-80.127 c 0,-2.212 -0.158,-4.109 -0.632,-6.005 -2.529,-10.431 -11.063,-16.595 -20.388,-16.595 -15.013,0 -22.599,12.802 -22.599,28.289 0,16.911 8.534,29.554 22.915,29.554 10.431,0 18.017,-7.27 20.072,-16.12 C -0.158,-62.742 0,-65.113 0,-66.852 Z" style="fill:none;stroke:#009944;stroke-width:3;stroke-linecap:butt;stroke-linejoin:miter;stroke-miterlimit:10;stroke-dasharray:none;stroke-opacity:1" transform="matrix(1.3333333,0,0,-1.3333333,365.32227,185.84547)" />
      <path id="path37" d="m 0,0 c -0.948,5.215 -1.265,11.695 -1.265,18.333 v 28.605 c 0,15.33 -5.689,31.292 -29.079,31.292 -9.64,0 -18.807,-2.687 -25.128,-6.795 l 3.16,-9.167 c 5.374,3.477 12.802,5.69 19.914,5.69 15.646,0 17.384,-11.379 17.384,-17.701 v -1.581 c -29.553,0.158 -45.99,-9.956 -45.99,-28.447 0,-11.062 7.902,-21.967 23.39,-21.967 10.905,0 19.123,5.373 23.39,11.379 h 0.474 L -12.644,0 Z m -14.698,25.761 c 0,-1.423 -0.316,-3.003 -0.79,-4.426 -2.213,-6.479 -8.534,-12.801 -18.491,-12.801 -7.112,0 -13.117,4.267 -13.117,13.276 0,14.856 17.226,17.542 32.398,17.226 z" style="fill:none;stroke:#009944;stroke-width:3;stroke-linecap:butt;stroke-linejoin:miter;stroke-miterlimit:10;stroke-dasharray:none;stroke-opacity:1" transform="matrix(1.3333333,0,0,-1.3333333,487.96093,335.45747)" />
      <path id="path38" d="m 0,0 28.289,-70.486 c 0.632,-1.739 0.948,-2.845 0.948,-3.635 0,-0.79 -0.474,-1.897 -1.106,-3.319 -3.161,-7.112 -7.902,-12.485 -11.695,-15.488 -4.109,-3.477 -8.692,-5.689 -12.169,-6.796 l 3.477,-11.694 c 3.477,0.631 10.273,3.002 17.068,9.008 9.483,8.218 16.278,21.651 26.235,47.886 L 71.909,0 H 57.21 L 42.039,-44.884 c -1.897,-5.531 -3.477,-11.379 -4.899,-15.962 h -0.317 c -1.264,4.583 -3.16,10.589 -4.899,15.646 L 15.172,0 Z" style="fill:none;stroke:#009944;stroke-width:3;stroke-linecap:butt;stroke-linejoin:miter;stroke-miterlimit:10;stroke-dasharray:none;stroke-opacity:1" transform="matrix(1.3333333,0,0,-1.3333333,501.02533,233.46853)" />
      <path id="path39" d="m 0,0 c -1.738,-11.379 -5.848,-27.815 -9.324,-37.14 l 8.85,1.107 c 4.425,7.27 11.221,24.18 14.856,37.455 z" style="fill:none;stroke:#009944;stroke-width:3;stroke-linecap:butt;stroke-linejoin:miter;stroke-miterlimit:10;stroke-dasharray:none;stroke-opacity:1" transform="matrix(1.3333333,0,0,-1.3333333,624.29493,193.01027)" />
      <path id="path40" d="m 0,0 c 5.374,-3.161 13.117,-5.215 21.494,-5.215 18.174,0 28.605,9.482 28.605,22.916 0,11.379 -6.796,18.016 -20.071,23.073 -9.957,3.793 -14.54,6.638 -14.54,12.96 0,5.689 4.583,10.431 12.801,10.431 7.112,0 12.644,-2.529 15.646,-4.426 l 3.477,10.115 c -4.267,2.529 -11.063,4.741 -18.807,4.741 -16.436,0 -26.393,-10.114 -26.393,-22.442 0,-9.166 6.48,-16.752 20.23,-21.651 10.272,-3.793 14.224,-7.428 14.224,-14.065 0,-6.322 -4.742,-11.379 -14.856,-11.379 -6.954,0 -14.224,2.844 -18.333,5.531 z" style="fill:none;stroke:#009944;stroke-width:3;stroke-linecap:butt;stroke-linejoin:miter;stroke-miterlimit:10;stroke-dasharray:none;stroke-opacity:1" transform="matrix(1.3333333,0,0,-1.3333333,641.36267,330.6112)" />
      <path id="path41" d="M 12.013163,-106.52383 V -3.890625e-4 H 25.759256 V -106.52383 Z m 42.981445,11.695316 V -76.48867 H 43.146952 v 10.582031 h 11.847656 v 41.730469 c 0,9 1.429687,15.7968747 5.378906,19.9101559 3.316406,3.79687504 8.53125,5.8476563 15.011719,5.8476563 5.367187,0 9.644531,-0.79687501 12.328125,-1.89843751 L 87.080545,-10.746483 c -1.734375,0.46875 -4.429687,0.9492189 -8.0625,0.9492189 -7.746093,0 -10.429687,-5.3789059 -10.429687,-14.8593749 v -41.25 H 88.498514 V -76.48867 H 68.588358 V -98.461327 Z M 159.15086,-3.890625e-4 C 158.20164,-5.2152328 157.88523,-11.695702 157.88523,-18.328514 v -28.605469 c 0,-15.328125 -5.69531,-31.300781 -29.08593,-31.300781 -9.63282,0 -18.8086,2.695312 -25.125,6.796875 l 3.16406,9.175781 c 5.36719,-3.480469 12.79687,-5.695312 19.91015,-5.695312 15.64454,0 17.37891,11.378906 17.37891,17.695312 v 1.582031 c -29.54297,-0.152343 -45.984375,9.960938 -45.984375,28.453125 0,11.0625004 7.898435,21.9609379 23.390625,21.9609379 10.89844,0 19.125,-5.3671875 23.39063,-11.3789062 h 0.46875 l 1.11328,9.6445312375 z M 144.44383,-25.758202 c 0,1.417969 -0.31641,3 -0.78516,4.417969 -2.21484,6.480469 -8.53125,12.8085939 -18.49219,12.8085939 -7.11328,0 -13.11328,-4.2656249 -13.11328,-13.2773439 0,-14.859375 17.22656,-17.542969 32.39063,-17.226562 z m 35.87402,25.7578129375 h 13.91016 V -112.20742 h -13.91016 z m 51.20801,0 V -76.48867 H 217.6157 V -3.890625e-4 Z M 224.57664,-106.67617 c -5.0625,0 -8.69531,3.79687 -8.69531,8.695312 0,4.734375 3.48047,8.53125 8.3789,8.53125 5.53125,0 9.01172,-3.796875 8.84766,-8.53125 0,-4.898442 -3.31641,-8.695312 -8.53125,-8.695312 z M 309.60496,-3.890625e-4 C 308.65574,-5.2152328 308.33933,-11.695702 308.33933,-18.328514 v -28.605469 c 0,-15.328125 -5.69531,-31.300781 -29.08593,-31.300781 -9.63282,0 -18.8086,2.695312 -25.125,6.796875 l 3.16406,9.175781 c 5.36719,-3.480469 12.79687,-5.695312 19.91016,-5.695312 15.64453,0 17.3789,11.378906 17.3789,17.695312 v 1.582031 c -29.54297,-0.152343 -45.98437,9.960938 -45.98437,28.453125 0,11.0625004 7.89843,21.9609379 23.39062,21.9609379 10.89844,0 19.125,-5.3671875 23.39063,-11.3789062 h 0.46875 l 1.11328,9.6445312375 z M 294.89793,-25.758202 c 0,1.417969 -0.31641,3 -0.78516,4.417969 -2.21484,6.480469 -8.53125,12.8085939 -18.49219,12.8085939 -7.11328,0 -13.11328,-4.2656249 -13.11328,-13.2773439 0,-14.859375 17.22657,-17.542969 32.39063,-17.226562 z m 35.87402,25.7578129375 h 13.91016 V -45.984764 c 0,-2.378906 0.3164,-4.746094 0.94922,-6.480469 2.36718,-7.746094 9.48047,-14.226562 18.65625,-14.226562 13.11328,0 17.69531,10.277343 17.69531,22.59375 V -3.890625e-4 h 13.91016 V -45.668358 c 0,-26.238281 -16.44141,-32.566406 -27.02344,-32.566406 -12.64453,0 -21.49219,7.113281 -25.28906,14.390625 h -0.31641 l -0.79688,-12.644531 h -12.3164 c 0.46875,6.316406 0.62109,12.796875 0.62109,20.695312 z m 0,0" style="fill:#009944;fill-opacity:1;fill-rule:nonzero;stroke:none" aria-label="Italian" transform="matrix(1.3333333,0,0,1.3333333,74.9512,502.9888)" />
      <path id="path42" d="M 0,0 V -106.52 H 13.75 V 0 Z" style="fill:none;stroke:#009944;stroke-width:3;stroke-linecap:butt;stroke-linejoin:miter;stroke-miterlimit:10;stroke-dasharray:none;stroke-opacity:1" transform="matrix(1.3333333,0,0,-1.3333333,90.966133,360.96267)" />
      <path id="path43" d="M 0,0 V -18.333 H -11.853 V -28.921 H 0 v -41.723 c 0,-9.008 1.422,-15.804 5.374,-19.913 3.318,-3.793 8.534,-5.848 15.013,-5.848 5.374,0 9.641,0.791 12.327,1.897 l -0.632,10.43 c -1.738,-0.474 -4.425,-0.948 -8.06,-0.948 -7.744,0 -10.431,5.374 -10.431,14.856 v 41.249 h 19.913 v 10.588 H 13.591 V 3.635 Z" style="fill:none;stroke:#009944;stroke-width:3;stroke-linecap:butt;stroke-linejoin:miter;stroke-miterlimit:10;stroke-dasharray:none;stroke-opacity:1" transform="matrix(1.3333333,0,0,-1.3333333,148.28,376.5564)" />
      <path id="path44" d="m 0,0 c -0.948,5.215 -1.265,11.695 -1.265,18.333 v 28.605 c 0,15.33 -5.689,31.292 -29.079,31.292 -9.64,0 -18.807,-2.687 -25.128,-6.795 l 3.16,-9.167 c 5.374,3.477 12.802,5.69 19.914,5.69 15.646,0 17.384,-11.379 17.384,-17.701 v -1.581 c -29.553,0.158 -45.99,-9.956 -45.99,-28.447 0,-11.062 7.902,-21.967 23.39,-21.967 10.905,0 19.123,5.373 23.39,11.379 h 0.474 L -12.644,0 Z m -14.698,25.761 c 0,-1.423 -0.316,-3.003 -0.79,-4.426 -2.213,-6.479 -8.534,-12.801 -18.491,-12.801 -7.112,0 -13.117,4.267 -13.117,13.276 0,14.856 17.226,17.542 32.398,17.226 z" style="fill:none;stroke:#009944;stroke-width:3;stroke-linecap:butt;stroke-linejoin:miter;stroke-miterlimit:10;stroke-dasharray:none;stroke-opacity:1" transform="matrix(1.3333333,0,0,-1.3333333,287.1432,502.9888)" />
      <path id="path45" d="M 0,0 H 13.907 V 112.209 H 0 Z" style="fill:none;stroke:#009944;stroke-width:3;stroke-linecap:butt;stroke-linejoin:miter;stroke-miterlimit:10;stroke-dasharray:none;stroke-opacity:1" transform="matrix(1.3333333,0,0,-1.3333333,315.37893,502.9888)" />
      <path id="path46" d="M 0,0 V 76.492 H -13.907 V 0 Z m -6.954,106.677 c -5.057,0 -8.692,-3.793 -8.692,-8.692 0,-4.741 3.477,-8.534 8.376,-8.534 5.532,0 9.009,3.793 8.851,8.534 0,4.899 -3.319,8.692 -8.535,8.692 z" style="fill:none;stroke:#009944;stroke-width:3;stroke-linecap:butt;stroke-linejoin:miter;stroke-miterlimit:10;stroke-dasharray:none;stroke-opacity:1" transform="matrix(1.3333333,0,0,-1.3333333,383.6504,502.9888)" />
      <path id="path47" d="m 0,0 c -0.948,5.215 -1.264,11.695 -1.264,18.333 v 28.605 c 0,15.33 -5.69,31.292 -29.08,31.292 -9.64,0 -18.807,-2.687 -25.128,-6.795 l 3.16,-9.167 c 5.374,3.477 12.802,5.69 19.914,5.69 15.646,0 17.384,-11.379 17.384,-17.701 v -1.581 c -29.553,0.158 -45.99,-9.956 -45.99,-28.447 0,-11.062 7.902,-21.967 23.39,-21.967 10.905,0 19.123,5.373 23.39,11.379 h 0.474 L -12.644,0 Z m -14.698,25.761 c 0,-1.423 -0.316,-3.003 -0.79,-4.426 -2.213,-6.479 -8.534,-12.801 -18.491,-12.801 -7.112,0 -13.117,4.267 -13.117,13.276 0,14.856 17.226,17.542 32.398,17.226 z" style="fill:none;stroke:#009944;stroke-width:3;stroke-linecap:butt;stroke-linejoin:miter;stroke-miterlimit:10;stroke-dasharray:none;stroke-opacity:1" transform="matrix(1.3333333,0,0,-1.3333333,487.74547,502.9888)" />
      <path id="path48" d="m 0,0 h 13.907 v 45.99 c 0,2.37 0.317,4.741 0.948,6.479 2.371,7.744 9.483,14.224 18.649,14.224 13.118,0 17.701,-10.273 17.701,-22.6 V 0 h 13.908 v 45.674 c 0,26.235 -16.437,32.556 -27.026,32.556 -12.643,0 -21.493,-7.112 -25.286,-14.381 h -0.316 l -0.79,12.643 H -0.632 C -0.158,70.17 0,63.69 0,55.788 Z" style="fill:none;stroke:#009944;stroke-width:3;stroke-linecap:butt;stroke-linejoin:miter;stroke-miterlimit:10;stroke-dasharray:none;stroke-opacity:1" transform="matrix(1.3333333,0,0,-1.3333333,515.98107,502.9888)" />
      </g></svg>