<?xml version='1.0' encoding='utf-8'?>
<svg xmlns="http://www.w3.org/2000/svg" version="1.1" width="1009.065" height="926.788" viewBox="1111.890 3398.940 1009.065 926.788"><defs id="defs1"><clipPath clipPathUnits="userSpaceOnUse" id="clipPath46">
      <path d="M 0,3370.3901 H 2383.9401 V -2.5000001e-5 H 0 Z" id="path46" />
    </clipPath>
  </defs><g id="object"><path id="path3" d="m 0,0 c 2.735,-116.268 5.028,-232.55 8.643,-348.791 0.598,-19.211 -3.345,-27.446 -23.959,-30.64 -59.22,-9.175 -116.724,-30.307 -178.039,-24.387 -20.631,20.624 -48.07,22.549 -74.505,26.257 -24.671,3.459 -49.855,3.01 -74.504,5.397 -33.435,3.237 -61.487,32.238 -98.497,23.094 -1.277,-0.315 -3.099,1.341 -4.598,2.198 -23.162,13.238 -48.095,15.923 -74.064,12.477 0.296,110.06 1.047,220.122 0.494,330.179 -0.107,21.179 4.516,30.2 28.049,32.814 57.16,6.348 113.869,16.769 170.759,25.549 17.97,-0.363 35.352,3.5 52.737,7.339 3.729,0.752 7.458,1.504 11.187,2.256 25.477,-0.681 50.11,5.598 74.955,9.659 15.117,2.472 20.556,-1.864 20.16,-17.352 -0.796,-31.208 -0.237,-62.45 -0.237,-93.678 3.078,24.126 2.117,48.299 3.36,72.358 1.149,22.249 13.384,31.635 32.734,23.332 C -83.033,39.915 -40.108,22.932 0,0" style="fill:#efeff0;fill-opacity:1;fill-rule:nonzero;stroke:none" transform="matrix(1.3333333,0,0,-1.3333333,1936.348,3779.0988)" />
      <path id="path4" d="m 0,0 c -40.108,22.932 -83.033,39.915 -125.325,58.061 -19.35,8.303 -31.585,-1.083 -32.734,-23.332 -1.243,-24.059 -0.282,-48.232 -3.36,-72.358 0,31.228 -0.559,62.47 0.237,93.678 0.396,15.488 -5.043,19.824 -20.16,17.352 -24.845,-4.061 -49.478,-10.34 -74.954,-9.659 -4.582,3.477 -7.98,1.083 -11.188,-2.256 -17.385,-3.839 -34.767,-7.702 -52.737,-7.339 -24.686,12.316 -49.504,1.645 -74.167,0.062 -44.824,-2.876 -90.237,0.455 -134.215,-11.949 0.002,0 1.026,1.447 1.026,1.447 l 1.537,-0.883 c 0.882,8.952 -2.343,14.873 -11.899,16.119 -2.883,1.893 -5.766,3.785 -8.65,5.677 -4.346,20.945 -15.532,38.668 -26.294,56.67 -9.898,16.555 -18.822,33.443 5.589,46.119 1.427,0.741 2.715,2.427 3.324,3.968 16.51,41.747 54.127,49.198 91.818,57.802 70.008,15.981 139.853,32.714 209.557,49.978 23.758,5.884 29.704,-6.666 31.407,-25.906 -31.771,5.564 -65.925,-0.288 -88.851,-16.461 -18.873,-13.314 -33.948,-27.787 -58.009,-34.143 -20.244,-5.348 -37.243,-22.048 -56.71,-31.625 -11.303,-5.56 -18.536,-12.44 -21.19,-24.417 -2.833,-12.778 -5.404,-24.494 -19.243,-32.005 -11.411,-6.194 -2.639,-15.77 4.495,-16.492 18.845,-1.906 35.922,-15.816 52.533,-14.474 24.414,1.973 48.329,-5.307 72.007,-0.836 22.504,4.25 45.561,-5.4 66.955,2.034 34,11.812 69.959,9.116 104.286,17.273 15.205,-1.119 30.414,-2.285 44.822,4.509 C -95.912,90.487 -62,73.752 -27.442,58.479 -8.855,50.264 4.671,31.344 27.593,32.488 24.333,16.616 3.547,15.628 0,0" style="fill:#efeff0;fill-opacity:1;fill-rule:nonzero;stroke:none" transform="matrix(1.3333333,0,0,-1.3333333,1936.348,3779.0988)" />
      <path id="path5" d="m 0,0 c -34.328,-8.157 -70.286,-5.461 -104.286,-17.273 -21.395,-7.433 -44.451,2.216 -66.955,-2.034 -23.679,-4.471 -47.594,2.809 -72.007,0.836 -16.611,-1.341 -33.689,12.569 -52.533,14.474 -7.134,0.722 -15.907,10.298 -4.495,16.492 13.838,7.511 16.409,19.227 19.242,32.005 2.655,11.977 9.888,18.857 21.191,24.417 19.467,9.577 36.465,26.277 56.709,31.625 24.061,6.356 39.136,20.829 58.009,34.143 22.926,16.173 57.08,22.025 88.851,16.461 -3.595,-19.403 12.76,-30.985 18.394,-46.79 C -25.455,69.499 -12.65,34.777 0,0" style="fill:#efeff0;fill-opacity:1;fill-rule:nonzero;stroke:none" transform="matrix(1.3333333,0,0,-1.3333333,1703.1285,3642.9591)" />
      <path id="path6" d="m 0,0 c -22.922,-1.144 -36.448,17.776 -55.035,25.991 -34.558,15.273 -68.47,32.008 -102.65,48.135 38.757,40.215 77.936,80.037 116.022,120.877 11.979,12.845 19.646,13.963 33.368,1.413 C 28.444,162.813 66.928,131.117 106.364,97.25 70.403,64.371 35.202,32.186 0,0" style="fill:#efeff0;fill-opacity:1;fill-rule:nonzero;stroke:none" transform="matrix(1.3333333,0,0,-1.3333333,1973.1381,3735.7813)" />
      <path id="path7" d="m 0,0 c 25.969,3.446 50.902,0.761 74.064,-12.476 1.5,-0.857 3.322,-2.514 4.598,-2.198 37.01,9.144 65.062,-19.858 98.497,-23.095 24.649,-2.386 49.833,-1.937 74.504,-5.397 26.435,-3.707 53.874,-5.633 74.506,-26.256 -45.677,-4.906 -90.993,2.515 -136.469,4.213 -38.132,1.423 -76.226,4.1 -114.3,6.745 -19.204,1.335 -38.311,4.001 -57.491,5.74 C 6.241,-51.667 0.358,-44.96 -0.218,-34.015 -0.812,-22.712 -0.126,-11.341 0,0" style="fill:#efeff0;fill-opacity:1;fill-rule:nonzero;stroke:none" transform="matrix(1.3333333,0,0,-1.3333333,1243.6504,4224.9593)" />
      <path id="path44" d="m 0,0 c 2.883,-1.892 5.766,-3.785 8.649,-5.677 2.96,-6.116 4.069,-13.598 11.899,-16.119 l -1.537,0.882 c 0,0 -1.024,-1.446 -1.025,-1.447 C 20.37,-36.268 12.027,-28.874 7.923,-26.955 -16.154,-15.694 -40.034,-4.013 -67.252,9.102 -41.437,14.749 -21.574,0.279 0,0" style="fill:#efeff0;fill-opacity:1;fill-rule:nonzero;stroke:none" transform="matrix(1.3333333,0,0,-1.3333333,1207.5633,3692.9384)" />
      </g></svg>