<?xml version='1.0' encoding='utf-8'?>
<svg xmlns="http://www.w3.org/2000/svg" version="1.1" width="2352.962" height="158.805" viewBox="414.843 3390.270 2352.962 158.805"><defs id="defs1"><clipPath clipPathUnits="userSpaceOnUse" id="clipPath4">
      <path d="M 122.5624,2051.5417 H 2506.5025 V -1318.8484 H 122.5624 Z" id="path4" />
    </clipPath>
    <clipPath clipPathUnits="userSpaceOnUse" id="clipPath6">
      <path d="M -503.42171,2051.917 H 1880.5183 V -1318.4731 H -503.42171 Z" id="path6" />
    </clipPath>
  </defs><g id="object"><path id="path35" d="m 48.116259,-24.059922 8.167969,24.05859387 H 66.831103 L 40.733447,-76.477891 H 28.815478 L 2.8350094,-0.00132813 H 13.053759 L 20.987353,-24.059922 Z m -25.078125,-7.710937 7.488282,-22.125 c 1.476562,-4.652344 2.71875,-9.304688 3.855468,-13.851563 h 0.222657 c 1.136718,4.429688 2.273437,8.964844 3.972656,13.957031 l 7.488281,22.019532 z M 112.67485,-0.00132813 V -47.321641 h 13.27735 v -7.605468 h -13.27735 v -2.941407 c 0,-8.402343 2.15625,-15.890625 10.67578,-15.890625 2.83594,0 4.875,0.5625 6.35157,1.253907 l 1.35937,-7.722657 c -1.93359,-0.796875 -4.99219,-1.582031 -8.50781,-1.582031 -4.65234,0 -9.64453,1.464844 -13.39453,5.097656 -4.65235,4.429688 -6.35156,11.460938 -6.35156,19.183594 v 2.601563 h -7.710942 v 7.605468 h 7.710942 v 47.32031287 z m 61.74024,0 C 173.72368,-3.7513281 173.50103,-8.4036719 173.50103,-13.161484 v -20.542969 c 0,-11.003906 -4.08985,-22.464844 -20.88282,-22.464844 -6.91406,0 -13.5,1.933594 -18.03515,4.875 l 2.26172,6.585938 c 3.86718,-2.496094 9.19921,-4.089844 14.30859,-4.089844 11.22656,0 12.48047,8.167969 12.48047,12.714844 v 1.136718 c -21.22266,-0.117187 -33.02344,7.148438 -33.02344,20.425782 0,7.9335934 5.67188,15.7734371 16.79297,15.7734371 7.82812,0 13.73437,-3.8671875 16.79297,-8.1796875 h 0.33984 l 0.79688,6.92578127 z M 163.85649,-18.493516 c 0,1.019532 -0.22265,2.15625 -0.5625,3.175782 -1.59375,4.652343 -6.1289,9.1874996 -13.27734,9.1874996 -5.10937,0 -9.42187,-3.0585937 -9.42187,-9.5273436 0,-10.664063 12.36328,-12.597656 23.26171,-12.375 z m 25.76075,18.49218787 h 9.76171 V -33.130234 c 0,-1.710938 0.22266,-3.410157 0.78516,-4.886719 1.59375,-4.992188 6.12891,-9.984375 12.375,-9.984375 7.60547,0 11.46094,6.351562 11.46094,15.09375 v 32.90624987 h 9.76172 V -33.927109 c 0,-1.816407 0.33984,-3.632813 0.78515,-4.992188 1.71094,-4.886719 6.12891,-9.082031 11.80078,-9.082031 8.0625,0 11.91797,6.351562 11.91797,16.910156 v 31.08984387 h 9.76172 V -32.345078 c 0,-19.054688 -10.78125,-23.824219 -18.04687,-23.824219 -5.21485,0 -8.84766,1.359375 -12.14063,3.855469 -2.27344,1.699219 -4.42969,4.089844 -6.1289,7.148437 h -0.22266 c -2.37891,-6.46875 -8.0625,-11.003906 -15.55078,-11.003906 -9.07031,0 -14.17969,4.875 -17.25,10.101563 h -0.33985 l -0.44531,-8.859375 h -8.74219 c 0.33985,4.546875 0.45704,9.199218 0.45704,14.871093 z m 104.62207,0 V -54.927109 h -9.98438 V -0.00132813 Z M 289.24712,-76.595078 c -3.63281,0 -6.24609,2.71875 -6.24609,6.246094 0,3.398437 2.49609,6.117187 6.02343,6.117187 3.96094,0 6.45703,-2.71875 6.35157,-6.117187 0,-3.527344 -2.39063,-6.246094 -6.12891,-6.246094 z m 21.55957,76.59374987 h 9.98437 V -80.567734 h -9.98437 z m 19.51465,-54.92578087 20.30859,50.6132809 c 0.45703,1.2539062 0.69141,2.0390625 0.69141,2.6132812 0,0.5625 -0.35156,1.35937502 -0.79688,2.37890627 -2.27343,5.10937503 -5.67187,8.96484373 -8.40234,11.12109363 -2.95313,2.496094 -6.23438,4.089844 -8.73047,4.875 l 2.49609,8.402344 c 2.4961,-0.457031 7.3711,-2.15625 12.2461,-6.46875 6.80859,-5.90625 11.69531,-15.5507814 18.84375,-34.382813 l 14.97656,-39.152343 h -10.55859 l -10.88672,32.226562 c -1.35938,3.972656 -2.4961,8.179688 -3.51563,11.460938 h -0.23437 c -0.90235,-3.28125 -2.26172,-7.59375 -3.51563,-11.226563 l -12.02343,-32.460937 z m 108.02929,-1.242188 c -15.21093,0 -27.23437,10.78125 -27.23437,29.15625 0,17.3671876 11.46094,28.2656251 26.32031,28.2656251 13.27735,0 27.35156,-8.859375 27.35156,-29.1679691 0,-16.792968 -10.66406,-28.253906 -26.4375,-28.253906 z m -0.22265,7.488281 c 11.80078,0 16.45312,11.800782 16.45312,21.105469 0,12.363281 -7.14843,21.3281251 -16.6875,21.3281251 -9.76172,0 -16.67578,-9.0703121 -16.67578,-21.1054691 0,-10.429687 5.09766,-21.328125 16.91016,-21.328125 z m 39.25781,48.67968787 h 9.98438 V -33.024766 c 0,-1.699218 0.22265,-3.398437 0.67968,-4.652343 1.69922,-5.554688 6.8086,-10.207032 13.39453,-10.207032 9.41016,0 12.70313,7.371094 12.70313,16.21875 v 31.66406287 h 9.98437 V -32.790391 c 0,-18.84375 -11.80078,-23.378906 -19.40625,-23.378906 -9.07031,0 -15.42187,5.109375 -18.15234,10.324219 h -0.22266 l -0.57421,-9.082031 h -8.84766 c 0.33984,4.546875 0.45703,9.199218 0.45703,14.871093 z M 566.69438,-68.087266 v 13.160157 h -8.51953 v 7.605468 h 8.51953 v 29.964844 c 0,6.457031 1.01954,11.3437501 3.85547,14.2968751 2.37891,2.71875002 6.12891,4.1953125 10.78125,4.1953125 3.85547,0 6.91407,-0.57421873 8.84766,-1.35937498 l -0.45703,-7.48828122 c -1.24219,0.3398437 -3.17578,0.6796875 -5.78906,0.6796875 -5.55469,0 -7.48829,-3.8671879 -7.48829,-10.6757809 v -29.613282 h 14.29688 v -7.605468 h -14.29688 v -15.773438 z m 35.28809,68.08593787 h 9.98438 V -33.130234 c 0,-1.933594 0.11718,-3.410157 0.67968,-4.769532 1.81641,-5.449218 6.92578,-9.984375 13.39453,-9.984375 9.41016,0 12.70313,7.488282 12.70313,16.335938 v 31.54687487 h 9.98437 V -32.684922 c 0,-18.949219 -11.80078,-23.484375 -19.17187,-23.484375 -3.75,0 -7.26563,1.136719 -10.21875,2.835938 -3.05859,1.699218 -5.55469,4.195312 -7.14844,7.03125 h -0.22265 v -34.265625 h -9.98438 z M 709.10356,-25.641953 c 0.10547,-1.03125 0.33985,-2.613281 0.33985,-4.652344 0,-10.101562 -4.76953,-25.875 -22.69922,-25.875 -15.99609,0 -25.75781,13.042969 -25.75781,29.613281 0,16.5703129 10.10156,27.6914066 27.01172,27.6914066 8.73046,0 14.74218,-1.81640623 18.25781,-3.4101562 l -1.69922,-7.1484375 c -3.73828,1.59375 -8.05078,2.8359375 -15.19922,2.8359375 -9.98437,0 -18.60937,-5.5546874 -18.84375,-19.0546874 z m -38.47265,-7.148438 c 0.79687,-6.925781 5.21484,-16.230468 15.3164,-16.230468 11.23829,0 13.95704,9.867187 13.85157,16.230468 z m 99.18164,32.78906287 27.33984,-76.47656287 h -10.54687 l -12.9375,37.78125 c -3.41016,9.984375 -6.58594,19.628907 -8.74219,28.488282 h -0.22266 c -2.03906,-8.964844 -4.88672,-18.269532 -8.16797,-28.605469 l -11.91796,-37.664063 h -10.66407 l 24.96094,76.47656287 z M 845.4981,-25.641953 c 0.10546,-1.03125 0.33984,-2.613281 0.33984,-4.652344 0,-10.101562 -4.76953,-25.875 -22.69922,-25.875 -15.99609,0 -25.75781,13.042969 -25.75781,29.613281 0,16.5703129 10.10156,27.6914066 27.01172,27.6914066 8.73047,0 14.74218,-1.81640623 18.25781,-3.4101562 l -1.69922,-7.1484375 c -3.73828,1.59375 -8.05078,2.8359375 -15.19922,2.8359375 -9.98437,0 -18.60937,-5.5546874 -18.84375,-19.0546874 z m -38.47266,-7.148438 c 0.79687,-6.925781 5.21484,-16.230468 15.31641,-16.230468 11.23828,0 13.95703,9.867187 13.85156,16.230468 z m 51.17871,32.78906287 h 9.86719 V -29.274766 c 0,-1.699218 0.23437,-3.292968 0.45703,-4.652343 1.35937,-7.488282 6.35156,-12.820313 13.39453,-12.820313 1.35938,0 2.37891,0.105469 3.39844,0.339844 v -9.421875 c -0.90235,-0.222656 -1.69922,-0.339844 -2.83594,-0.339844 -6.69141,0 -12.70312,4.652344 -15.21094,12.023438 h -0.44531 l -0.33984,-10.78125 h -8.74219 c 0.33984,5.109375 0.45703,10.675781 0.45703,17.144531 z m 74.77734,-54.92578087 -0.45703,8.285156 h -0.22265 c -2.37891,-4.535156 -7.60547,-9.527344 -17.13282,-9.527344 -12.59765,0 -24.73828,10.546875 -24.73828,29.15625 0,15.210938 9.76172,26.78906262 23.37891,26.78906262 8.50781,0 14.40234,-4.08984372 17.47266,-9.19921872 h 0.22265 v 6.1289062 c 0,13.8515629 -7.48828,19.1835939 -17.69531,19.1835939 -6.80859,0 -12.48047,-2.050781 -16.11328,-4.3125 l -2.4961,7.59375 c 4.41797,2.953125 11.6836,4.546875 18.26954,4.546875 6.91406,0 14.63671,-1.59375 19.96875,-6.585938 5.33203,-4.769531 7.82812,-12.4804684 7.82812,-25.0781246 V -39.833359 c 0,-6.691407 0.22266,-11.121094 0.45703,-15.09375 z m -1.58203,31.546875 c 0,1.710937 -0.23437,3.632812 -0.79687,5.332031 -2.15625,6.363281 -7.72266,10.2187499 -13.85156,10.2187499 -10.76954,0 -16.21875,-8.9648439 -16.21875,-19.7460939 0,-12.703125 6.80859,-20.765625 16.33593,-20.765625 7.26563,0 12.14063,4.769531 13.95703,10.558594 0.45704,1.359375 0.57422,2.835937 0.57422,4.535156 z m 70.58204,-2.261719 c 0.1055,-1.03125 0.3398,-2.613281 0.3398,-4.652344 0,-10.101562 -4.76949,-25.875 -22.69918,-25.875 -15.99609,0 -25.75781,13.042969 -25.75781,29.613281 0,16.5703129 10.10156,27.6914066 27.01172,27.6914066 8.73046,0 14.74218,-1.81640623 18.25781,-3.4101562 l -1.69922,-7.1484375 c -3.73828,1.59375 -8.05078,2.8359375 -15.19922,2.8359375 -9.98437,0 -18.60937,-5.5546874 -18.84375,-19.0546874 z m -38.47266,-7.148438 c 0.79687,-6.925781 5.21484,-16.230468 15.3164,-16.230468 11.23829,0 13.95704,9.867187 13.85157,16.230468 z m 98.49606,-23.378906 c -15.2109,0 -27.2343,10.78125 -27.2343,29.15625 0,17.3671876 11.4609,28.2656251 26.3203,28.2656251 13.2773,0 27.3515,-8.859375 27.3515,-29.1679691 0,-16.792968 -10.664,-28.253906 -26.4375,-28.253906 z m -0.2226,7.488281 c 11.8008,0 16.4531,11.800782 16.4531,21.105469 0,12.363281 -7.1484,21.3281251 -16.6875,21.3281251 -9.7617,0 -16.6758,-9.0703121 -16.6758,-21.1054691 0,-10.429687 5.0977,-21.328125 16.9102,-21.328125 z m 50.1445,48.67968787 V -47.321641 h 13.2774 v -7.605468 h -13.2774 v -2.941407 c 0,-8.402343 2.1563,-15.890625 10.6758,-15.890625 2.8359,0 4.875,0.5625 6.3516,1.253907 l 1.3593,-7.722657 c -1.9336,-0.796875 -4.9922,-1.582031 -8.5078,-1.582031 -4.6523,0 -9.6445,1.464844 -13.3945,5.097656 -4.6524,4.429688 -6.3516,11.460938 -6.3516,19.183594 v 2.601563 h -7.7109 v 7.605468 h 7.7109 v 47.32031287 z m 85.7959,0 c -0.6914,-3.74999997 -0.9141,-8.40234377 -0.9141,-13.16015587 v -20.542969 c 0,-11.003906 -4.0898,-22.464844 -20.8828,-22.464844 -6.914,0 -13.5,1.933594 -18.0351,4.875 l 2.2617,6.585938 c 3.8672,-2.496094 9.1992,-4.089844 14.3086,-4.089844 11.2265,0 12.4805,8.167969 12.4805,12.714844 v 1.136718 c -21.2227,-0.117187 -33.0235,7.148438 -33.0235,20.425782 0,7.9335934 5.6719,15.7734371 16.793,15.7734371 7.8281,0 13.7344,-3.8671875 16.793,-8.1796875 h 0.3398 l 0.7969,6.92578127 z M 1187.1641,-18.493516 c 0,1.019532 -0.2226,2.15625 -0.5625,3.175782 -1.5937,4.652343 -6.1289,9.1874996 -13.2773,9.1874996 -5.1094,0 -9.4219,-3.0585937 -9.4219,-9.5273436 0,-10.664063 12.3633,-12.597656 23.2617,-12.375 z m 50.1563,18.26953162 c 3.2929,0.4453125 8.5078,0.90234375 15.3164,0.90234375 12.4804,0 21.1054,-2.27343747 26.4375,-7.14843747 3.8554,-3.7382809 6.4687,-8.7421879 6.4687,-15.3164059 0,-11.34375 -8.5078,-17.367188 -15.7734,-19.183594 v -0.222656 c 8.0625,-2.953125 12.9375,-9.421875 12.9375,-16.792969 0,-6.011719 -2.3789,-10.558594 -6.3516,-13.5 -4.7695,-3.867188 -11.1211,-5.566406 -20.9883,-5.566406 -6.9257,0 -13.7343,0.679687 -18.0468,1.59375 z m 9.8671,-68.54296862 c 1.5938,-0.339844 4.2071,-0.679688 8.7422,-0.679688 9.9844,0 16.793,3.515625 16.793,12.480469 0,7.382813 -6.1289,12.820313 -16.5703,12.820313 h -8.9649 z m 0,32.109375 h 8.1797 c 10.7696,0 19.7344,4.3125 19.7344,14.753906 0,11.121094 -9.4101,14.8710939 -19.6289,14.8710939 -3.5156,0 -6.3516,-0.1171875 -8.2852,-0.4570313 z m 51.2959,36.65624987 h 9.8672 V -29.274766 c 0,-1.699218 0.2344,-3.292968 0.4571,-4.652343 1.3593,-7.488282 6.3515,-12.820313 13.3945,-12.820313 1.3594,0 2.3789,0.105469 3.3984,0.339844 v -9.421875 c -0.9023,-0.222656 -1.6992,-0.339844 -2.8359,-0.339844 -6.6914,0 -12.7031,4.652344 -15.2109,12.023438 h -0.4454 l -0.3398,-10.78125 h -8.7422 c 0.3399,5.109375 0.457,10.675781 0.457,17.144531 z m 80.1182,-25.64062487 c 0.1055,-1.03125 0.3399,-2.613281 0.3399,-4.652344 0,-10.101562 -4.7696,-25.875 -22.6993,-25.875 -15.9961,0 -25.7578,13.042969 -25.7578,29.613281 0,16.5703129 10.1016,27.6914066 27.0117,27.6914066 8.7305,0 14.7422,-1.81640623 18.2579,-3.4101562 l -1.6993,-7.1484375 c -3.7382,1.59375 -8.0507,2.8359375 -15.1992,2.8359375 -9.9844,0 -18.6094,-5.5546874 -18.8437,-19.0546874 z m -38.4726,-7.148438 c 0.7968,-6.925781 5.2148,-16.230468 15.3164,-16.230468 11.2382,0 13.957,9.867187 13.8515,16.230468 z m 90.6709,32.78906287 c -0.6915,-3.74999997 -0.9141,-8.40234377 -0.9141,-13.16015587 v -20.542969 c 0,-11.003906 -4.0899,-22.464844 -20.8828,-22.464844 -6.9141,0 -13.5,1.933594 -18.0352,4.875 l 2.2617,6.585938 c 3.8672,-2.496094 9.1993,-4.089844 14.3086,-4.089844 11.2266,0 12.4805,8.167969 12.4805,12.714844 v 1.136718 c -21.2227,-0.117187 -33.0234,7.148438 -33.0234,20.425782 0,7.9335934 5.6718,15.7734371 16.7929,15.7734371 7.8282,0 13.7344,-3.8671875 16.793,-8.1796875 h 0.3398 l 0.7969,6.92578127 z M 1420.2413,-18.493516 c 0,1.019532 -0.2227,2.15625 -0.5625,3.175782 -1.5938,4.652343 -6.1289,9.1874996 -13.2774,9.1874996 -5.1094,0 -9.4219,-3.0585937 -9.4219,-9.5273436 0,-10.664063 12.3633,-12.597656 23.2618,-12.375 z m 35.6279,-62.074218 h -9.8672 v 80.56640587 h 9.8672 V -20.649766 l 5.1094,-5.671875 18.9492,26.32031287 h 12.1406 l -24.1641,-32.34374987 21.211,-22.582031 h -12.0235 l -16.1132,18.949218 c -1.5938,1.933594 -3.5157,4.3125 -4.875,6.246094 h -0.2344 z m 80.792,0 v 32.789062 h -0.2227 c -2.4961,-4.417969 -8.1679,-8.390625 -16.5703,-8.390625 -13.3828,0 -24.7383,11.238281 -24.6211,29.496094 0,16.6874999 10.2071,27.9257811 23.4844,27.9257811 8.9648,0 15.668,-4.6523437 18.7266,-10.78125 h 0.2226 l 0.457,9.52734377 h 8.9649 c -0.3399,-3.74999997 -0.457,-9.30468747 -0.457,-14.17968787 v -66.386718 z m 0,57.527343 c 0,1.59375 -0.1055,2.953125 -0.4453,4.3125 -1.8164,7.488282 -7.9453,11.9179691 -14.6485,11.9179691 -10.7695,0 -16.2187,-9.1875001 -16.2187,-20.3085941 0,-12.140625 6.1289,-21.222656 16.4531,-21.222656 7.4883,0 12.9375,5.214844 14.4141,11.578125 0.3398,1.242188 0.4453,2.941406 0.4453,4.195313 z m 49.8193,-33.128906 c -15.2109,0 -27.2344,10.78125 -27.2344,29.15625 0,17.3671876 11.461,28.2656251 26.3204,28.2656251 13.2773,0 27.3515,-8.859375 27.3515,-29.1679691 0,-16.792968 -10.664,-28.253906 -26.4375,-28.253906 z m -0.2226,7.488281 c 11.8007,0 16.4531,11.800782 16.4531,21.105469 0,12.363281 -7.1485,21.3281251 -16.6875,21.3281251 -9.7617,0 -16.6758,-9.0703121 -16.6758,-21.1054691 0,-10.429687 5.0977,-21.328125 16.9102,-21.328125 z m 32.2177,-6.246093 16.5703,54.92578087 h 9.0821 l 8.8476,-26.09765587 c 1.9336,-5.90625 3.6328,-11.578125 4.9922,-18.152344 h 0.2227 c 1.3711,6.46875 2.9531,11.90625 4.8867,18.035156 l 8.3906,26.21484387 h 9.0821 l 17.6953,-54.92578087 h -9.8672 l -7.8281,27.574218 c -1.8165,6.46875 -3.293,12.257813 -4.1954,17.8242191 h -0.3398 c -1.2539,-5.5664061 -2.8477,-11.3554691 -4.8867,-17.9296871 l -8.5078,-27.46875 h -8.4024 l -8.9648,28.03125 c -1.8047,5.90625 -3.6211,11.800781 -4.875,17.3671871 h -0.3399 c -1.0195,-5.6835941 -2.4961,-11.3554691 -4.0898,-17.4843751 l -7.2539,-27.914062 z m 89.7627,54.92578087 h 9.9844 V -33.024766 c 0,-1.699218 0.2227,-3.398437 0.6797,-4.652343 1.6992,-5.554688 6.8086,-10.207032 13.3945,-10.207032 9.4102,0 12.7031,7.371094 12.7031,16.21875 v 31.66406287 h 9.9844 V -32.790391 c 0,-18.84375 -11.8008,-23.378906 -19.4062,-23.378906 -9.0703,0 -15.4219,5.109375 -18.1524,10.324219 h -0.2226 l -0.5742,-9.082031 h -8.8477 c 0.3398,4.546875 0.457,9.199218 0.457,14.871093 z m 0,0" style="fill:#231916;fill-opacity:1;fill-rule:nonzero;stroke:none" aria-label="A family on the Verge of a Breakdown" transform="matrix(1.3333333,0,0,1.3333333,419.8528,3507.3533)" />
      <path id="path36" d="M 0,0 8.17,-24.057 H 18.724 L -7.375,52.425 h -11.916 l -25.985,-76.482 h 10.213 L -27.12,0 Z m -25.078,7.716 7.49,22.128 c 1.475,4.652 2.723,9.304 3.858,13.844 h 0.227 c 1.134,-4.426 2.269,-8.965 3.971,-13.958 l 7.49,-22.014 z" style="fill:none;stroke:#231916;stroke-width:3;stroke-linecap:butt;stroke-linejoin:miter;stroke-miterlimit:10;stroke-dasharray:none;stroke-opacity:1" transform="matrix(1.3333333,0,0,-1.3333333,484.0032,3475.2779)" />
      <path id="path37" d="m 0,0 v 47.318 h 13.276 v 7.604 H 0 v 2.95 c 0,8.397 2.156,15.886 10.667,15.886 2.836,0 4.879,-0.568 6.354,-1.248 l 1.362,7.717 C 16.454,81.021 13.39,81.814 9.872,81.814 5.22,81.814 0.227,80.34 -3.518,76.708 -8.17,72.283 -9.873,65.247 -9.873,57.531 v -2.609 h -7.715 v -7.604 h 7.715 L -9.873,0 Z" style="fill:none;stroke:#231916;stroke-width:3;stroke-linecap:butt;stroke-linejoin:miter;stroke-miterlimit:10;stroke-dasharray:none;stroke-opacity:1" transform="matrix(1.3333333,0,0,-1.3333333,570.0912,3507.3533)" />
      <path id="path38" d="m 0,0 c -0.681,3.745 -0.908,8.397 -0.908,13.163 v 20.539 c 0,11.007 -4.085,22.468 -20.879,22.468 -6.922,0 -13.504,-1.93 -18.042,-4.88 l 2.269,-6.581 c 3.858,2.496 9.191,4.085 14.298,4.085 11.234,0 12.482,-8.17 12.482,-12.709 V 34.95 C -32,35.063 -43.801,27.801 -43.801,14.524 c 0,-7.943 5.674,-15.772 16.794,-15.772 7.83,0 13.731,3.858 16.795,8.17 h 0.34 L -9.078,0 Z m -10.553,18.496 c 0,-1.021 -0.227,-2.156 -0.568,-3.177 -1.588,-4.652 -6.127,-9.191 -13.276,-9.191 -5.106,0 -9.418,3.063 -9.418,9.531 0,10.667 12.369,12.596 23.262,12.369 z" style="fill:none;stroke:#231916;stroke-width:3;stroke-linecap:butt;stroke-linejoin:miter;stroke-miterlimit:10;stroke-dasharray:none;stroke-opacity:1" transform="matrix(1.3333333,0,0,-1.3333333,652.39587,3507.3533)" />
      <path id="path39" d="m 0,0 h 9.759 v 33.135 c 0,1.702 0.227,3.404 0.794,4.879 1.589,4.993 6.128,9.985 12.369,9.985 7.602,0 11.46,-6.354 11.46,-15.092 V 0 h 9.759 v 33.929 c 0,1.815 0.341,3.631 0.795,4.993 1.702,4.879 6.127,9.077 11.801,9.077 8.056,0 11.915,-6.354 11.915,-16.907 V 0 h 9.759 v 32.34 c 0,19.063 -10.781,23.83 -18.043,23.83 -5.22,0 -8.851,-1.362 -12.141,-3.858 -2.27,-1.703 -4.426,-4.085 -6.128,-7.149 H 41.872 C 39.489,51.631 33.815,56.17 26.326,56.17 17.248,56.17 12.142,51.29 9.078,46.07 H 8.737 L 8.284,54.922 H -0.454 C -0.114,50.383 0,45.73 0,40.057 Z" style="fill:none;stroke:#231916;stroke-width:3;stroke-linecap:butt;stroke-linejoin:miter;stroke-miterlimit:10;stroke-dasharray:none;stroke-opacity:1" transform="matrix(1.3333333,0,0,-1.3333333,672.66933,3507.3533)" />
      <path id="path40" d="M 0,0 V 54.922 H -9.986 V 0 Z m -4.993,76.595 c -3.631,0 -6.241,-2.724 -6.241,-6.241 0,-3.405 2.496,-6.127 6.014,-6.127 3.971,0 6.468,2.722 6.355,6.127 0,3.517 -2.384,6.241 -6.128,6.241 z" style="fill:none;stroke:#231916;stroke-width:3;stroke-linecap:butt;stroke-linejoin:miter;stroke-miterlimit:10;stroke-dasharray:none;stroke-opacity:1" transform="matrix(1.3333333,0,0,-1.3333333,812.16733,3507.3533)" />
      <path id="path41" d="M 0,0 H 9.986 V 80.566 H 0 Z" style="fill:none;stroke:#231916;stroke-width:3;stroke-linecap:butt;stroke-linejoin:miter;stroke-miterlimit:10;stroke-dasharray:none;stroke-opacity:1" transform="matrix(1.3333333,0,0,-1.3333333,834.2552,3507.3533)" />
      <path id="path42" d="m 0,0 20.312,-50.609 c 0.454,-1.249 0.681,-2.043 0.681,-2.611 0,-0.567 -0.341,-1.361 -0.795,-2.383 -2.269,-5.106 -5.674,-8.964 -8.397,-11.121 -2.95,-2.496 -6.241,-4.085 -8.738,-4.879 L 5.56,-80 c 2.497,0.454 7.376,2.156 12.255,6.469 6.809,5.9 11.688,15.546 18.837,34.382 L 51.63,0 H 41.077 L 30.184,-32.228 c -1.362,-3.97 -2.497,-8.169 -3.518,-11.46 h -0.227 c -0.908,3.291 -2.269,7.603 -3.518,11.234 L 10.893,0 Z" style="fill:none;stroke:#231916;stroke-width:3;stroke-linecap:butt;stroke-linejoin:miter;stroke-miterlimit:10;stroke-dasharray:none;stroke-opacity:1" transform="matrix(1.3333333,0,0,-1.3333333,860.278,3434.1241)" />
      <path id="path43" d="m 0,0 c -15.206,0 -27.234,-10.78 -27.234,-29.163 0,-17.361 11.461,-28.255 26.326,-28.255 13.277,0 27.347,8.851 27.347,29.163 C 26.439,-11.461 15.773,0 0,0 Z m -0.227,-7.489 c 11.801,0 16.454,-11.802 16.454,-21.107 0,-12.369 -7.149,-21.333 -16.681,-21.333 -9.759,0 -16.681,9.078 -16.681,21.107 0,10.439 5.107,21.333 16.908,21.333 z" style="fill:none;stroke:#231916;stroke-width:3;stroke-linecap:butt;stroke-linejoin:miter;stroke-miterlimit:10;stroke-dasharray:none;stroke-opacity:1" transform="matrix(1.3333333,0,0,-1.3333333,1004.3112,3432.4601)" />
      <path id="path44" d="m 0,0 h 9.986 v 33.021 c 0,1.702 0.226,3.404 0.681,4.653 1.702,5.559 6.808,10.212 13.39,10.212 9.418,0 12.709,-7.376 12.709,-16.227 V 0 h 9.985 V 32.794 C 46.751,51.631 34.95,56.17 27.347,56.17 18.269,56.17 11.915,51.063 9.191,45.844 H 8.964 L 8.397,54.922 H -0.454 C -0.114,50.383 0,45.73 0,40.057 Z" style="fill:none;stroke:#231916;stroke-width:3;stroke-linecap:butt;stroke-linejoin:miter;stroke-miterlimit:10;stroke-dasharray:none;stroke-opacity:1" transform="matrix(1.3333333,0,0,-1.3333333,1056.3575,3507.3533)" />
      <path id="path45" d="m 0,0 v -13.162 h -8.511 v -7.604 H 0 v -29.957 c 0,-6.467 1.021,-11.347 3.858,-14.298 2.383,-2.722 6.127,-4.198 10.78,-4.198 3.858,0 6.922,0.568 8.851,1.362 l -0.454,7.489 c -1.248,-0.34 -3.177,-0.681 -5.787,-0.681 -5.56,0 -7.489,3.859 -7.489,10.667 v 29.616 h 14.297 v 7.604 H 9.759 V 2.61 Z" style="fill:none;stroke:#231916;stroke-width:3;stroke-linecap:butt;stroke-linejoin:miter;stroke-miterlimit:10;stroke-dasharray:none;stroke-opacity:1" transform="matrix(1.3333333,0,0,-1.3333333,1175.4271,3416.5747)" />
      <path id="path46" d="m 0,0 h 9.986 v 33.135 c 0,1.928 0.113,3.404 0.681,4.765 1.815,5.447 6.921,9.986 13.39,9.986 9.418,0 12.709,-7.49 12.709,-16.34 V 0 h 9.985 v 32.681 c 0,18.95 -11.801,23.489 -19.177,23.489 -3.744,0 -7.262,-1.135 -10.213,-2.837 -3.063,-1.702 -5.56,-4.199 -7.149,-7.035 H 9.986 V 80.566 H 0 Z" style="fill:none;stroke:#231916;stroke-width:3;stroke-linecap:butt;stroke-linejoin:miter;stroke-miterlimit:10;stroke-dasharray:none;stroke-opacity:1" transform="matrix(1.3333333,0,0,-1.3333333,1222.4799,3507.3533)" />
      <path id="path47" d="m 0,0 c 0.114,1.021 0.341,2.609 0.341,4.652 0,10.099 -4.766,25.872 -22.695,25.872 -16,0 -25.759,-13.049 -25.759,-29.617 0,-16.567 10.099,-27.687 27.007,-27.687 8.737,0 14.752,1.815 18.269,3.404 l -1.702,7.148 c -3.744,-1.587 -8.056,-2.836 -15.205,-2.836 -9.986,0 -18.61,5.56 -18.837,19.064 z m -38.467,7.148 c 0.794,6.922 5.219,16.227 15.319,16.227 11.233,0 13.957,-9.872 13.843,-16.227 z" style="fill:none;stroke:#231916;stroke-width:3;stroke-linecap:butt;stroke-linejoin:miter;stroke-miterlimit:10;stroke-dasharray:none;stroke-opacity:1" transform="matrix(1.3333333,0,0,-1.3333333,1365.304,3473.1593)" />
      <path id="path48" d="M 0,0 27.347,76.481 H 16.794 L 3.858,38.694 C 0.454,28.709 -2.723,19.063 -4.879,10.213 h -0.227 c -2.043,8.964 -4.879,18.269 -8.17,28.596 L -25.191,76.481 H -35.857 L -10.894,0 Z" style="fill:none;stroke:#231916;stroke-width:3;stroke-linecap:butt;stroke-linejoin:miter;stroke-miterlimit:10;stroke-dasharray:none;stroke-opacity:1" transform="matrix(1.3333333,0,0,-1.3333333,1446.2468,3507.3533)" />
      <path id="path49" d="m 0,0 c 0.114,1.021 0.341,2.609 0.341,4.652 0,10.099 -4.766,25.872 -22.695,25.872 -16,0 -25.759,-13.049 -25.759,-29.617 0,-16.567 10.099,-27.687 27.007,-27.687 8.737,0 14.752,1.815 18.269,3.404 l -1.702,7.148 c -3.744,-1.587 -8.056,-2.836 -15.205,-2.836 -9.986,0 -18.61,5.56 -18.837,19.064 z m -38.467,7.148 c 0.794,6.922 5.219,16.227 15.319,16.227 11.233,0 13.957,-9.872 13.843,-16.227 z" style="fill:none;stroke:#231916;stroke-width:3;stroke-linecap:butt;stroke-linejoin:miter;stroke-miterlimit:10;stroke-dasharray:none;stroke-opacity:1" transform="matrix(1.3333333,0,0,-1.3333333,1547.1647,3473.1593)" />
      <path id="path50" d="m 0,0 h 9.872 v 29.276 c 0,1.703 0.227,3.291 0.454,4.653 1.362,7.489 6.355,12.822 13.39,12.822 1.362,0 2.383,-0.113 3.404,-0.34 v 9.418 c -0.908,0.228 -1.702,0.341 -2.837,0.341 -6.695,0 -12.709,-4.652 -15.205,-12.028 H 8.624 l -0.34,10.78 H -0.454 C -0.114,49.815 0,44.255 0,37.787 Z" style="fill:none;stroke:#231916;stroke-width:3;stroke-linecap:butt;stroke-linejoin:miter;stroke-miterlimit:10;stroke-dasharray:none;stroke-opacity:1" transform="matrix(1.3333333,0,0,-1.3333333,1564.1093,3507.3533)" />
      <path id="path51" d="m 0,0 -0.454,-8.284 h -0.227 c -2.383,4.539 -7.603,9.532 -17.134,9.532 -12.596,0 -24.738,-10.554 -24.738,-29.163 0,-15.205 9.759,-26.78 23.376,-26.78 8.51,0 14.411,4.086 17.475,9.191 h 0.227 v -6.127 c 0,-13.844 -7.489,-19.178 -17.702,-19.178 -6.808,0 -12.482,2.043 -16.114,4.313 l -2.496,-7.603 c 4.426,-2.95 11.688,-4.539 18.269,-4.539 6.922,0 14.639,1.589 19.972,6.581 5.333,4.766 7.83,12.483 7.83,25.078 v 31.886 c 0,6.696 0.227,11.121 0.453,15.093 z m -1.588,-31.546 c 0,-1.702 -0.227,-3.632 -0.795,-5.334 -2.156,-6.354 -7.716,-10.212 -13.844,-10.212 -10.78,0 -16.227,8.964 -16.227,19.744 0,12.709 6.809,20.766 16.341,20.766 7.262,0 12.141,-4.766 13.957,-10.553 0.454,-1.362 0.568,-2.837 0.568,-4.539 z" style="fill:none;stroke:#231916;stroke-width:3;stroke-linecap:butt;stroke-linejoin:miter;stroke-miterlimit:10;stroke-dasharray:none;stroke-opacity:1" transform="matrix(1.3333333,0,0,-1.3333333,1663.8151,3434.1241)" />
      <path id="path52" d="m 0,0 c 0.114,1.021 0.341,2.609 0.341,4.652 0,10.099 -4.766,25.872 -22.695,25.872 -16,0 -25.759,-13.049 -25.759,-29.617 0,-16.567 10.099,-27.687 27.007,-27.687 8.737,0 14.752,1.815 18.269,3.404 l -1.702,7.148 c -3.744,-1.587 -8.056,-2.836 -15.205,-2.836 -9.986,0 -18.61,5.56 -18.837,19.064 z m -38.467,7.148 c 0.794,6.922 5.219,16.227 15.319,16.227 11.233,0 13.957,-9.872 13.843,-16.227 z" style="fill:none;stroke:#231916;stroke-width:3;stroke-linecap:butt;stroke-linejoin:miter;stroke-miterlimit:10;stroke-dasharray:none;stroke-opacity:1" transform="matrix(1.3333333,0,0,-1.3333333,1755.8028,3473.1593)" />
      <path id="path53" d="m 0,0 c -15.206,0 -27.234,-10.78 -27.234,-29.163 0,-17.361 11.461,-28.255 26.326,-28.255 13.277,0 27.347,8.851 27.347,29.163 C 26.439,-11.461 15.773,0 0,0 Z m -0.227,-7.489 c 11.801,0 16.454,-11.802 16.454,-21.107 0,-12.369 -7.149,-21.333 -16.681,-21.333 -9.759,0 -16.681,9.078 -16.681,21.107 0,10.439 5.107,21.333 16.908,21.333 z" style="fill:none;stroke:#231916;stroke-width:3;stroke-linecap:butt;stroke-linejoin:miter;stroke-miterlimit:10;stroke-dasharray:none;stroke-opacity:1" transform="matrix(1.3333333,0,0,-1.3333333,1835.8379,3432.4601)" />
      <path id="path54" d="m 0,0 v 47.318 h 13.276 v 7.604 H 0 v 2.95 c 0,8.397 2.156,15.886 10.667,15.886 2.836,0 4.879,-0.568 6.354,-1.248 l 1.362,7.717 C 16.454,81.021 13.39,81.814 9.872,81.814 5.22,81.814 0.227,80.34 -3.518,76.708 -8.17,72.283 -9.873,65.247 -9.873,57.531 v -2.609 h -7.715 v -7.604 h 7.715 L -9.873,0 Z" style="fill:none;stroke:#231916;stroke-width:3;stroke-linecap:butt;stroke-linejoin:miter;stroke-miterlimit:10;stroke-dasharray:none;stroke-opacity:1" transform="matrix(1.3333333,0,0,-1.3333333,1902.4083,3507.3533)" />
      <path id="path55" d="m 0,0 c -0.681,3.745 -0.908,8.397 -0.908,13.163 v 20.539 c 0,11.007 -4.085,22.468 -20.879,22.468 -6.922,0 -13.504,-1.93 -18.042,-4.88 l 2.269,-6.581 c 3.858,2.496 9.192,4.085 14.298,4.085 11.234,0 12.482,-8.17 12.482,-12.709 V 34.95 C -32,35.063 -43.801,27.801 -43.801,14.524 c 0,-7.943 5.674,-15.772 16.794,-15.772 7.83,0 13.731,3.858 16.795,8.17 h 0.34 L -9.078,0 Z m -10.553,18.496 c 0,-1.021 -0.227,-2.156 -0.567,-3.177 -1.589,-4.652 -6.128,-9.191 -13.277,-9.191 -5.106,0 -9.418,3.063 -9.418,9.531 0,10.667 12.369,12.596 23.262,12.369 z" style="fill:none;stroke:#231916;stroke-width:3;stroke-linecap:butt;stroke-linejoin:miter;stroke-miterlimit:10;stroke-dasharray:none;stroke-opacity:1" transform="matrix(1.3333333,0,0,-1.3333333,2016.7871,3507.3533)" />
      <path id="path56" d="m 0,0 c 3.291,-0.453 8.511,-0.907 15.319,-0.907 12.482,0 21.106,2.269 26.439,7.148 3.859,3.745 6.469,8.738 6.469,15.32 0,11.347 -8.511,17.361 -15.773,19.176 v 0.228 c 8.056,2.95 12.936,9.418 12.936,16.794 0,6.013 -2.383,10.553 -6.355,13.503 -4.766,3.858 -11.12,5.56 -20.993,5.56 -6.921,0 -13.73,-0.68 -18.042,-1.589 z m 9.872,68.539 c 1.589,0.34 4.199,0.681 8.738,0.681 9.985,0 16.794,-3.518 16.794,-12.483 0,-7.376 -6.128,-12.822 -16.567,-12.822 H 9.872 Z m 0,-32.113 h 8.17 c 10.78,0 19.745,-4.313 19.745,-14.752 0,-11.12 -9.418,-14.865 -19.631,-14.865 -3.518,0 -6.355,0.113 -8.284,0.454 z" style="fill:none;stroke:#231916;stroke-width:3;stroke-linecap:butt;stroke-linejoin:miter;stroke-miterlimit:10;stroke-dasharray:none;stroke-opacity:1" transform="matrix(1.3333333,0,0,-1.3333333,2069.5885,3507.0512)" />
      <path id="path57" d="m 0,0 h 9.872 v 29.276 c 0,1.703 0.227,3.291 0.454,4.653 1.362,7.489 6.355,12.822 13.39,12.822 1.362,0 2.383,-0.113 3.404,-0.34 v 9.418 c -0.908,0.228 -1.702,0.341 -2.837,0.341 -6.695,0 -12.709,-4.652 -15.205,-12.028 H 8.624 l -0.34,10.78 H -0.454 C -0.114,49.815 0,44.255 0,37.787 Z" style="fill:none;stroke:#231916;stroke-width:3;stroke-linecap:butt;stroke-linejoin:miter;stroke-miterlimit:10;stroke-dasharray:none;stroke-opacity:1" transform="matrix(1.3333333,0,0,-1.3333333,2151.1373,3507.3533)" />
      <path id="path58" d="m 0,0 c 0.114,1.021 0.341,2.609 0.341,4.652 0,10.099 -4.766,25.872 -22.695,25.872 -16,0 -25.759,-13.049 -25.759,-29.617 0,-16.567 10.099,-27.687 27.007,-27.687 8.737,0 14.752,1.815 18.269,3.404 l -1.702,7.148 c -3.744,-1.587 -8.056,-2.836 -15.205,-2.836 -9.986,0 -18.61,5.56 -18.837,19.064 z m -38.467,7.148 c 0.794,6.922 5.219,16.227 15.319,16.227 11.233,0 13.957,-9.872 13.843,-16.227 z" style="fill:none;stroke:#231916;stroke-width:3;stroke-linecap:butt;stroke-linejoin:miter;stroke-miterlimit:10;stroke-dasharray:none;stroke-opacity:1" transform="matrix(1.3333333,0,0,-1.3333333,2257.9537,3473.1593)" />
      <path id="path59" d="m 0,0 c -0.681,3.745 -0.908,8.397 -0.908,13.163 v 20.539 c 0,11.007 -4.085,22.468 -20.879,22.468 -6.922,0 -13.504,-1.93 -18.042,-4.88 l 2.269,-6.581 c 3.858,2.496 9.192,4.085 14.298,4.085 11.234,0 12.482,-8.17 12.482,-12.709 V 34.95 C -32,35.063 -43.801,27.801 -43.801,14.524 c 0,-7.943 5.674,-15.772 16.794,-15.772 7.83,0 13.731,3.858 16.795,8.17 h 0.34 L -9.078,0 Z m -10.553,18.496 c 0,-1.021 -0.227,-2.156 -0.567,-3.177 -1.589,-4.652 -6.128,-9.191 -13.277,-9.191 -5.106,0 -9.418,3.063 -9.418,9.531 0,10.667 12.369,12.596 23.262,12.369 z" style="fill:none;stroke:#231916;stroke-width:3;stroke-linecap:butt;stroke-linejoin:miter;stroke-miterlimit:10;stroke-dasharray:none;stroke-opacity:1" transform="matrix(1.3333333,0,0,-1.3333333,2327.5501,3507.3533)" />
      <path id="path60" d="M 0,0 H -9.872 V -80.566 H 0 v 20.652 l 5.106,5.674 18.951,-26.326 h 12.141 l -24.17,32.339 21.22,22.582 H 21.22 L 5.106,-44.595 C 3.518,-46.524 1.589,-48.907 0.227,-50.836 H 0 Z" style="fill:none;stroke:#231916;stroke-width:3;stroke-linecap:butt;stroke-linejoin:miter;stroke-miterlimit:10;stroke-dasharray:none;stroke-opacity:1" transform="matrix(1.3333333,0,0,-1.3333333,2360.9863,3399.9315)" />
      <path id="path61" d="m 0,0 v -32.794 h -0.227 c -2.496,4.426 -8.17,8.398 -16.567,8.398 -13.39,0 -24.737,-11.235 -24.624,-29.504 0,-16.681 10.213,-27.914 23.489,-27.914 8.965,0 15.659,4.652 18.723,10.78 h 0.227 l 0.454,-9.532 h 8.964 c -0.34,3.745 -0.453,9.304 -0.453,14.184 V 0 Z m 0,-57.531 c 0,-1.589 -0.113,-2.95 -0.454,-4.312 -1.816,-7.489 -7.943,-11.915 -14.638,-11.915 -10.78,0 -16.227,9.192 -16.227,20.312 0,12.141 6.128,21.219 16.454,21.219 7.489,0 12.936,-5.219 14.411,-11.574 C -0.113,-45.049 0,-46.751 0,-47.999 Z" style="fill:none;stroke:#231916;stroke-width:3;stroke-linecap:butt;stroke-linejoin:miter;stroke-miterlimit:10;stroke-dasharray:none;stroke-opacity:1" transform="matrix(1.3333333,0,0,-1.3333333,2468.7103,3399.9315)" />
      <path id="path62" d="m 0,0 c -15.206,0 -27.234,-10.78 -27.234,-29.163 0,-17.361 11.461,-28.255 26.326,-28.255 13.277,0 27.347,8.851 27.347,29.163 C 26.439,-11.461 15.773,0 0,0 Z m -0.227,-7.489 c 11.801,0 16.454,-11.802 16.454,-21.107 0,-12.369 -7.149,-21.333 -16.681,-21.333 -9.759,0 -16.681,9.078 -16.681,21.107 0,10.439 5.107,21.333 16.908,21.333 z" style="fill:none;stroke:#231916;stroke-width:3;stroke-linecap:butt;stroke-linejoin:miter;stroke-miterlimit:10;stroke-dasharray:none;stroke-opacity:1" transform="matrix(1.3333333,0,0,-1.3333333,2535.1296,3432.4601)" />
      <path id="path63" d="m 0,0 16.567,-54.922 h 9.078 l 8.851,26.099 c 1.929,5.901 3.631,11.575 4.993,18.156 h 0.227 c 1.362,-6.468 2.951,-11.915 4.879,-18.042 l 8.397,-26.213 H 62.07 L 79.772,0 H 69.9 L 62.07,-27.574 C 60.255,-34.043 58.78,-39.83 57.872,-45.39 h -0.341 c -1.248,5.56 -2.837,11.347 -4.879,17.929 L 44.142,0 H 35.744 L 26.78,-28.028 C 24.964,-33.929 23.149,-39.83 21.9,-45.39 h -0.34 c -1.021,5.673 -2.497,11.347 -4.085,17.475 L 10.213,0 Z" style="fill:none;stroke:#231916;stroke-width:3;stroke-linecap:butt;stroke-linejoin:miter;stroke-miterlimit:10;stroke-dasharray:none;stroke-opacity:1" transform="matrix(1.3333333,0,0,-1.3333333,2577.7969,3434.1241)" />
      <path id="path64" d="m 0,0 h 9.986 v 33.021 c 0,1.702 0.226,3.404 0.681,4.653 1.702,5.559 6.808,10.212 13.39,10.212 9.418,0 12.709,-7.376 12.709,-16.227 V 0 h 9.985 V 32.794 C 46.751,51.631 34.95,56.17 27.347,56.17 18.269,56.17 11.915,51.063 9.191,45.844 H 8.964 L 8.397,54.922 H -0.454 C -0.114,50.383 0,45.73 0,40.057 Z" style="fill:none;stroke:#231916;stroke-width:3;stroke-linecap:butt;stroke-linejoin:miter;stroke-miterlimit:10;stroke-dasharray:none;stroke-opacity:1" transform="matrix(1.3333333,0,0,-1.3333333,2697.4733,3507.3533)" />
    </g></svg>