<?xml version='1.0' encoding='utf-8'?>
<svg xmlns="http://www.w3.org/2000/svg" version="1.1" width="667.607" height="145.818" viewBox="374.482 2446.400 667.607 145.818"><defs id="defs1"><clipPath clipPathUnits="userSpaceOnUse" id="clipPath32">
      <path d="M 0,3370.3901 H 2383.9401 V -2.5000001e-5 H 0 Z" id="path32" />
    </clipPath>
  </defs><g id="object"><path id="path18" d="m 5.4360422,-4.2767156 c 4.1484375,2.71875 12.4335938,5.7070312 21.8789058,5.7070312 20.203125,0 30.691407,-11.7890626 30.691407,-25.2539066 0,-11.777343 -8.414063,-19.546875 -18.773438,-21.621093 v -0.257813 c 10.359375,-3.761719 15.539063,-11.144531 15.539063,-19.816406 0,-10.230469 -7.511719,-20.0625 -24.082032,-20.0625 -9.070312,0 -17.613281,3.234375 -22.0195308,6.46875 l 2.9765628,8.285156 c 3.632812,-2.589844 10.101562,-5.566406 16.839843,-5.566406 10.488282,0 14.753907,5.953125 14.753907,12.691406 0,9.972656 -10.488282,14.238281 -18.773438,14.238281 h -6.339844 v 8.554688 h 6.339844 c 11.003906,0 21.621094,5.039062 21.75,16.828125 0.140625,6.996094 -4.394531,16.3124999 -19.03125,16.3124999 -7.898437,0 -15.410156,-3.2343749 -18.6445311,-5.3085939 z M 100.34913,-85.581403 c -17.097658,0 -29.261721,15.527344 -29.261721,43.757812 0.257813,27.84375 11.390625,43.2539066 27.832032,43.2539066 18.644529,0 29.261719,-15.7968746 29.261719,-44.4140626 0,-26.800781 -10.08984,-42.597656 -27.83203,-42.597656 z m -0.644533,8.800781 c 11.777343,0 17.085933,13.59375 17.085933,34.3125 0,21.492188 -5.5664,35.0859376 -17.214839,35.0859376 -10.359375,0 -17.097657,-12.4218746 -17.097657,-34.3124996 0,-22.910157 7.253907,-35.085938 17.226563,-35.085938 z M 245.87842,6.28125e-4 h 11.01563 L 251.44483,-87.268903 h -14.36719 l -15.53906,42.210937 c -3.87891,11.003907 -6.98437,20.589844 -9.1875,29.390625 h -0.38672 c -2.20312,-9.058593 -5.17969,-18.644531 -8.8125,-29.390625 L 188.26905,-87.268903 H 173.89014 L 167.80811,6.28125e-4 h 10.7461 L 180.88624,-37.417341 c 0.77343,-13.078125 1.41797,-27.714843 1.67578,-38.589843 h 0.26953 c 2.44922,10.359375 5.95312,21.621093 10.08984,33.925781 l 14.1211,41.56640612 h 8.54297 L 230.99561,-42.854841 c 4.39453,-12.046875 8.02735,-22.921875 11.00391,-33.152343 h 0.38672 c -0.12891,10.875 0.64453,25.511718 1.30078,37.675781 z m 73.80176,0 C 318.89503,-4.2767156 318.63721,-9.5853094 318.63721,-15.022809 v -23.4375 c 0,-12.550782 -4.66406,-25.628907 -23.82421,-25.628907 -7.89844,0 -15.41016,2.203125 -20.58985,5.566407 l 2.58985,7.511718 c 4.40625,-2.847656 10.48828,-4.664062 16.32421,-4.664062 12.8086,0 14.23829,9.316406 14.23829,14.496094 v 1.300781 c -24.21094,-0.128906 -37.67579,8.15625 -37.67579,23.308594 0,9.0585934 6.46875,17.9999996 19.16016,17.9999996 8.92969,0 15.66797,-4.40625 19.16016,-9.328125 h 0.38672 l 0.91406,7.898437525 z M 307.63331,-21.104841 c 0,1.160157 -0.25781,2.460938 -0.64453,3.621094 -1.81641,5.308594 -6.9961,10.4882814 -15.15235,10.4882814 -5.82422,0 -10.74609,-3.4921874 -10.74609,-10.8750004 0,-12.164062 14.10937,-14.367187 26.54297,-14.109375 z M 337.03272,6.28125e-4 h 11.26172 V -33.409528 c 0,-1.933594 0.25781,-3.75 0.51563,-5.308594 1.55859,-8.542969 7.2539,-14.625 15.28125,-14.625 1.54687,0 2.71875,0.128906 3.8789,0.386719 v -10.746094 c -1.03125,-0.257812 -1.93359,-0.386719 -3.23437,-0.386719 -7.64063,0 -14.4961,5.308594 -17.35547,13.722657 h -0.51563 l -0.38672,-12.304688 h -9.97265 c 0.39844,5.824219 0.52734,12.175781 0.52734,19.558594 z M 420.80421,-10.874372 c -3.23438,1.4179689 -7.51172,3.1054689 -13.99219,3.1054689 -12.42188,0 -21.75,-8.9296879 -21.75,-23.4374999 0,-13.078125 7.76953,-23.695313 22.14844,-23.695313 6.21093,0 10.48828,1.429688 13.20703,2.976563 l 2.58984,-8.800781 c -3.11719,-1.558594 -9.07031,-3.234375 -15.79687,-3.234375 -20.46094,0 -33.66797,13.980468 -33.66797,33.269531 0,19.171875 12.30468,31.9804686 31.20703,31.9804686 8.41406,0 15.01172,-2.06249998 17.98828,-3.6210937 z M 436.08546,6.28125e-4 h 11.39062 V -37.804059 c 0,-2.203125 0.12891,-3.890625 0.77344,-5.4375 2.07422,-6.222657 7.89844,-11.402344 15.28125,-11.402344 10.74609,0 14.49609,8.554687 14.49609,18.644531 V 6.28125e-4 h 11.40235 V -37.288434 c 0,-21.621094 -13.46485,-26.800782 -21.89063,-26.800782 -4.26562,0 -8.28516,1.289063 -11.64844,3.234375 -3.49218,1.945313 -6.33984,4.792969 -8.15625,8.027344 h -0.25781 v -39.105469 h -11.39062 z m 0,0" style="fill:#ffffff;fill-opacity:1;fill-rule:nonzero;stroke:none" aria-label="30 March" transform="matrix(1.3333333,0,0,1.3333333,378.8496,2579.6476)" />
      <path id="path19" d="m 0,0 c 4.144,-2.719 12.43,-5.696 21.882,-5.696 20.2,0 30.687,11.782 30.687,25.248 0,11.783 -8.416,19.552 -18.774,21.624 v 0.259 c 10.358,3.754 15.538,11.134 15.538,19.81 0,10.229 -7.51,20.069 -24.084,20.069 -9.063,0 -17.609,-3.237 -22.012,-6.473 l 2.978,-8.287 c 3.626,2.59 10.1,5.567 16.833,5.567 10.488,0 14.761,-5.956 14.761,-12.688 0,-9.971 -10.488,-14.244 -18.775,-14.244 h -6.345 v -8.545 h 6.345 c 11.006,0 21.623,-5.05 21.753,-16.833 C 40.916,12.819 36.384,3.496 21.753,3.496 13.854,3.496 6.345,6.733 3.108,8.805 Z" style="fill:none;stroke:#ffffff;stroke-width:7;stroke-linecap:butt;stroke-linejoin:miter;stroke-miterlimit:10;stroke-dasharray:none;stroke-opacity:1" transform="matrix(1.3333333,0,0,-1.3333333,386.10027,2573.9509)" />
      <path id="path20" d="m 0,0 c -17.091,0 -29.263,-15.538 -29.263,-43.765 0.26,-27.838 11.395,-43.246 27.839,-43.246 18.645,0 29.263,15.796 29.263,44.411 C 27.839,-15.797 17.739,0 0,0 Z m -0.647,-8.805 c 11.783,0 17.091,-13.595 17.091,-34.312 0,-21.494 -5.568,-35.089 -17.221,-35.089 -10.358,0 -17.091,12.43 -17.091,34.312 0,22.918 7.251,35.089 17.221,35.089 z" style="fill:none;stroke:#ffffff;stroke-width:7;stroke-linecap:butt;stroke-linejoin:miter;stroke-miterlimit:10;stroke-dasharray:none;stroke-opacity:1" transform="matrix(1.3333333,0,0,-1.3333333,512.64387,2465.5317)" />
      <path id="path21" d="M 0,0 H 11.006 L 5.568,87.271 H -8.805 L -24.342,45.06 c -3.885,-11.006 -6.992,-20.588 -9.194,-29.393 h -0.388 c -2.201,9.063 -5.179,18.646 -8.805,29.393 l -14.89,42.211 H -71.991 L -78.077,0 H -67.33 L -65,37.42 c 0.777,13.078 1.425,27.709 1.684,38.586 h 0.259 c 2.46,-10.36 5.956,-21.624 10.099,-33.925 L -38.844,0.518 h 8.546 l 15.408,42.34 c 4.402,12.042 8.028,22.918 11.006,33.148 h 0.388 c -0.129,-10.877 0.647,-25.508 1.295,-37.68 z" style="fill:none;stroke:#ffffff;stroke-width:7;stroke-linecap:butt;stroke-linejoin:miter;stroke-miterlimit:10;stroke-dasharray:none;stroke-opacity:1" transform="matrix(1.3333333,0,0,-1.3333333,706.6888,2579.6476)" />
      <path id="path22" d="m 0,0 c -0.777,4.272 -1.036,9.582 -1.036,15.02 v 23.436 c 0,12.56 -4.661,25.637 -23.824,25.637 -7.899,0 -15.409,-2.201 -20.588,-5.568 l 2.59,-7.509 c 4.402,2.848 10.487,4.661 16.314,4.661 12.819,0 14.243,-9.323 14.243,-14.502 V 39.88 c -24.213,0.13 -37.679,-8.157 -37.679,-23.307 0,-9.063 6.474,-17.997 19.163,-17.997 8.935,0 15.668,4.403 19.164,9.322 h 0.388 L -10.359,0 Z m -12.042,21.105 c 0,-1.165 -0.259,-2.459 -0.647,-3.626 -1.813,-5.308 -6.992,-10.487 -15.149,-10.487 -5.827,0 -10.747,3.496 -10.747,10.876 0,12.172 14.113,14.373 26.543,14.113 z" style="fill:none;stroke:#ffffff;stroke-width:7;stroke-linecap:butt;stroke-linejoin:miter;stroke-miterlimit:10;stroke-dasharray:none;stroke-opacity:1" transform="matrix(1.3333333,0,0,-1.3333333,805.09173,2579.6476)" />
      <path id="path23" d="m 0,0 h 11.265 v 33.406 c 0,1.943 0.259,3.755 0.518,5.309 1.553,8.546 7.251,14.632 15.279,14.632 1.553,0 2.719,-0.13 3.884,-0.389 v 10.747 c -1.036,0.259 -1.942,0.388 -3.237,0.388 -7.64,0 -14.502,-5.309 -17.351,-13.725 H 9.84 L 9.452,62.669 h -9.97 C -0.129,56.842 0,50.498 0,43.117 Z" style="fill:none;stroke:#ffffff;stroke-width:7;stroke-linecap:butt;stroke-linejoin:miter;stroke-miterlimit:10;stroke-dasharray:none;stroke-opacity:1" transform="matrix(1.3333333,0,0,-1.3333333,828.22467,2579.6476)" />
      <path id="path24" d="m 0,0 c -3.237,-1.424 -7.51,-3.107 -13.984,-3.107 -12.43,0 -21.752,8.934 -21.752,23.436 0,13.077 7.768,23.695 22.141,23.695 6.215,0 10.488,-1.424 13.207,-2.978 l 2.589,8.805 c -3.107,1.553 -9.063,3.237 -15.796,3.237 -20.458,0 -33.665,-13.984 -33.665,-33.276 0,-19.165 12.301,-31.983 31.204,-31.983 8.417,0 15.02,2.072 17.998,3.626 z" style="fill:none;stroke:#ffffff;stroke-width:7;stroke-linecap:butt;stroke-linejoin:miter;stroke-miterlimit:10;stroke-dasharray:none;stroke-opacity:1" transform="matrix(1.3333333,0,0,-1.3333333,939.9232,2565.1463)" />
      <path id="path25" d="m 0,0 h 11.395 v 37.809 c 0,2.201 0.129,3.884 0.776,5.438 2.072,6.215 7.898,11.394 15.279,11.394 10.747,0 14.502,-8.545 14.502,-18.645 V 0 h 11.394 v 37.291 c 0,21.623 -13.466,26.802 -21.882,26.802 -4.273,0 -8.287,-1.295 -11.653,-3.237 -3.497,-1.942 -6.345,-4.791 -8.158,-8.028 H 11.395 V 91.932 L 0,91.932 Z" style="fill:none;stroke:#ffffff;stroke-width:7;stroke-linecap:butt;stroke-linejoin:miter;stroke-miterlimit:10;stroke-dasharray:none;stroke-opacity:1" transform="matrix(1.3333333,0,0,-1.3333333,960.29493,2579.6476)" />
      </g></svg>