<?xml version='1.0' encoding='utf-8'?>
<svg xmlns="http://www.w3.org/2000/svg" version="1.1" width="82.399" height="136.966" viewBox="361.680 3120.770 82.399 136.966"><g id="object"><path id="path169" d="m 0,0 c -0.01,-17.325 -1.902,-36.544 -8.1,-55.193 -1.331,-4.005 -3.289,-6.83 -7.975,-7.182 -3.847,-0.289 -7.634,-1.487 -11.478,-1.681 -8.981,-0.454 -15.87,4.028 -19.037,12.493 -1.345,3.596 -2.329,7.485 -2.589,11.302 -1.377,20.219 -2.654,40.45 -3.57,60.694 -0.338,7.49 0.874,8.201 8.085,7.828 4.462,-0.231 5.836,-1.325 5.253,-5.235 -1.348,-9.026 -0.754,-18.094 -1.06,-27.142 -0.251,-7.421 1.395,-14.58 2.472,-21.827 0.536,-3.601 2.409,-6.406 4.869,-8.922 5.922,-6.056 14.849,-4.514 17.723,3.502 4.543,12.664 7.601,25.633 5.315,39.294 -0.925,5.526 -1.706,11.083 -2.338,16.651 -0.353,3.115 1.064,4.435 4.578,4.915 4.202,0.573 6.338,-0.576 6.575,-4.055 C -0.75,17.705 -0.481,9.952 0,0" style="fill:#494643;fill-opacity:1;fill-rule:nonzero;stroke:none" transform="matrix(1.3333333,0,0,-1.3333333,438.0792,3166.2904)" />
      </g></svg>