<?xml version='1.0' encoding='utf-8'?>
<svg xmlns="http://www.w3.org/2000/svg" version="1.1" width="558.079" height="78.842" viewBox="2281.270 361.379 558.079 78.842"><defs id="defs1"><clipPath clipPathUnits="userSpaceOnUse" id="clipPath59">
      <path d="M 0,3370.3901 H 2383.9401 V -2.5000001e-5 H 0 Z" id="path59" />
    </clipPath>
  </defs><g id="object"><path id="path46" d="m 5.1435891,-0.14100313 c 1.96875,0.28125 5.0742189,0.55078125 9.1406249,0.55078125 7.453125,0 12.597656,-1.359375 15.773438,-4.26562502 2.308593,-2.2382812 3.867187,-5.2148437 3.867187,-9.1406251 0,-6.773437 -5.085937,-10.359375 -9.410156,-11.449219 v -0.128906 c 4.804687,-1.769531 7.710937,-5.625 7.710937,-10.03125 0,-3.585937 -1.417968,-6.292969 -3.785156,-8.050781 -2.847656,-2.308594 -6.632812,-3.316406 -12.527344,-3.316406 -4.136718,0 -8.1914059,0.398437 -10.7695309,0.949218 z M 11.03812,-41.027722 c 0.949219,-0.210937 2.507813,-0.410156 5.214844,-0.410156 5.953125,0 10.019531,2.097656 10.019531,7.441406 0,4.40625 -3.65625,7.652344 -9.890625,7.652344 h -5.34375 z m 0,19.160156 h 4.875 c 6.433594,0 11.777344,2.566407 11.777344,8.800782 0,6.6328121 -5.613281,8.8710934 -11.707031,8.8710934 -2.109375,0 -3.796875,-0.070312 -4.945313,-0.2695313 z m 54.445313,-4.40625 H 47.741245 v -14.425781 h 18.75 v -4.933594 H 41.846714 V -3.78125e-4 H 67.510777 V -4.9456906 H 47.741245 V -21.398816 H 65.483433 Z M 75.16312,-3.78125e-4 h 5.894532 V -19.769909 h 5.554687 c 5.34375,0.199218 7.78125,2.566406 9.140625,8.871093 1.277344,5.6835941 2.296875,9.6093754 3.046875,10.898437875 h 6.093751 C 103.94437,-1.7581906 102.85453,-6.1644406 101.36625,-12.527722 c -1.07813,-4.734375 -3.175786,-7.992187 -6.70313,-9.210937 v -0.199219 c 4.804688,-1.628906 8.60156,-5.625 8.60156,-11.648438 0,-3.515625 -1.28906,-6.632812 -3.585935,-8.660156 -2.847656,-2.578125 -6.914062,-3.726562 -13.207031,-3.726562 -4.066406,0 -8.332031,0.339843 -11.308594,0.949218 z M 81.057652,-40.898816 c 0.949218,-0.269531 2.976562,-0.539062 5.824218,-0.539062 6.222657,0.07031 10.488282,2.636719 10.488282,8.53125 0,5.214844 -3.996094,8.660156 -10.289063,8.660156 h -6.023437 z m 54.172848,14.625 h -17.74218 v -14.425781 h 18.75 v -4.933594 H 111.59378 V -3.78125e-4 h 25.66407 V -4.9456906 H 117.48832 V -21.398816 H 135.2305 Z M 150.46488,-3.78125e-4 V -19.500378 c 0,-7.582031 -0.14063,-13.066406 -0.48047,-18.820313 l 0.21094,-0.07031 c 2.29687,4.945312 5.34375,10.160156 8.53125,15.234375 l 14.48437,23.156249875 h 5.96485 V -45.633191 h -5.55469 v 19.089844 c 0,7.113281 0.14062,12.667969 0.67969,18.7617189 l -0.14063,0.058594 c -2.16797,-4.6640629 -4.80469,-9.4804689 -8.19141,-14.8242189 l -14.625,-23.085938 h -6.43359 V -3.78125e-4 Z M 220.1475,-6.1644406 c -2.37891,1.1484375 -6.03516,1.8984375 -9.6211,1.8984375 -11.10937,0 -17.53125,-7.1718749 -17.53125,-18.3515629 0,-11.988281 7.10156,-18.820312 17.80078,-18.820312 3.79688,0 6.97266,0.808594 9.21094,1.898437 l 1.41797,-4.816406 c -1.55859,-0.808594 -5.14453,-2.027344 -10.82813,-2.027344 -14.15625,0 -23.83593,9.679688 -23.83593,23.964844 0,14.9648439 9.67968,23.09765637 22.54687,23.09765637 5.55469,0 9.89063,-1.08984375 12.0586,-2.16796877 z m 32.23242,-20.1093754 h -17.74219 v -14.425781 h 18.75 v -4.933594 H 228.7432 V -3.78125e-4 h 25.66406 V -4.9456906 H 234.63773 V -21.398816 h 17.74219 z M 276.418,-0.14100313 c 1.96875,0.28125 5.07422,0.55078125 9.14063,0.55078125 7.45312,0 12.59765,-1.359375 15.77344,-4.26562502 2.30859,-2.2382812 3.86718,-5.2148437 3.86718,-9.1406251 0,-6.773437 -5.08593,-10.359375 -9.41015,-11.449219 v -0.128906 c 4.80468,-1.769531 7.71093,-5.625 7.71093,-10.03125 0,-3.585937 -1.41796,-6.292969 -3.78515,-8.050781 -2.84766,-2.308594 -6.63281,-3.316406 -12.52735,-3.316406 -4.13671,0 -8.1914,0.398437 -10.76953,0.949218 z m 5.89453,-40.88671887 c 0.94922,-0.210937 2.50782,-0.410156 5.21485,-0.410156 5.95312,0 10.01953,2.097656 10.01953,7.441406 0,4.40625 -3.65625,7.652344 -9.89063,7.652344 h -5.34375 z m 0,19.160156 h 4.875 c 6.4336,0 11.77735,2.566407 11.77735,8.800782 0,6.6328121 -5.61328,8.8710934 -11.70703,8.8710934 -2.10938,0 -3.79688,-0.070312 -4.94532,-0.2695313 z m 54.44239,-4.40625 h -17.74219 v -14.425781 h 18.75 v -4.933594 H 313.1182 V -3.78125e-4 h 25.66406 V -4.9456906 H 319.01273 V -21.398816 h 17.74219 z m 20.23828,10.699219 c 0,8.9414064 -3.10547,11.3085939 -8.39063,11.3085939 -1.96875,0 -3.72656,-0.4101563 -4.94531,-0.8789063 l -0.87891,4.80468752 c 1.48829,0.609375 4.13672,1.08984375 6.29297,1.08984375 7.86328,0 13.81641,-3.72656247 13.81641,-15.84374987 v -30.539063 h -5.89453 z m 34.20996,-30.808594 c -12.19922,0 -21.19922,9.480469 -21.19922,23.964844 0,13.8164064 8.46094,23.16796887 20.51953,23.16796887 11.64844,0 21.1875,-8.33203127 21.1875,-24.04687487 0,-13.535156 -8.05078,-23.085938 -20.50781,-23.085938 z m -0.28125,4.804688 c 9.82031,0 14.56641,9.480469 14.56641,18.550781 0,10.371094 -5.28516,18.9609376 -14.625,18.9609376 -9.28125,0 -14.56641,-8.7304686 -14.56641,-18.4804686 0,-10.019531 4.875,-19.03125 14.625,-19.03125 z m 0,0" style="fill:#ffffff;fill-opacity:1;fill-rule:nonzero;stroke:none" aria-label="BERENCE BEJO" transform="matrix(1.3333333,0,0,1.3333333,2282.4036,431.22707)" />
      <path id="path47" d="m 0,0 c 1.964,-0.271 5.079,-0.542 9.142,-0.542 7.449,0 12.595,1.355 15.778,4.267 2.302,2.234 3.86,5.214 3.86,9.141 0,6.772 -5.079,10.361 -9.413,11.445 v 0.135 c 4.808,1.761 7.72,5.62 7.72,10.022 0,3.589 -1.422,6.298 -3.793,8.058 -2.844,2.303 -6.636,3.318 -12.527,3.318 C 6.636,45.844 2.573,45.438 0,44.896 Z m 5.891,40.901 c 0.948,0.203 2.506,0.406 5.214,0.406 5.959,0 10.022,-2.099 10.022,-7.449 0,-4.401 -3.656,-7.651 -9.886,-7.651 h -5.35 z m 0,-19.164 h 4.876 c 6.433,0 11.783,-2.573 11.783,-8.803 0,-6.636 -5.621,-8.871 -11.715,-8.871 -2.1,0 -3.793,0.068 -4.944,0.271 z" style="fill:none;stroke:#ffffff;stroke-width:3;stroke-linecap:butt;stroke-linejoin:miter;stroke-miterlimit:10;stroke-dasharray:none;stroke-opacity:1" transform="matrix(1.3333333,0,0,-1.3333333,2289.2656,431.04667)" />
      <path id="path48" d="M 0,0 H -17.742 V 14.424 H 1.016 v 4.943 H -23.633 V -26.274 H 2.031 v 4.943 h -19.773 v 16.456 l 17.742,0 z" style="fill:none;stroke:#ffffff;stroke-width:3;stroke-linecap:butt;stroke-linejoin:miter;stroke-miterlimit:10;stroke-dasharray:none;stroke-opacity:1" transform="matrix(1.3333333,0,0,-1.3333333,2369.7123,396.19507)" />
      <path id="path49" d="m 0,0 h 5.891 v 19.773 h 5.553 C 16.794,19.57 19.231,17.2 20.586,10.902 21.873,5.214 22.888,1.287 23.633,0 h 6.095 c -0.949,1.761 -2.032,6.162 -3.522,12.527 -1.083,4.741 -3.183,7.991 -6.704,9.21 v 0.203 c 4.808,1.625 8.601,5.621 8.601,11.647 0,3.521 -1.287,6.637 -3.59,8.668 -2.844,2.573 -6.907,3.724 -13.204,3.724 -4.063,0 -8.33,-0.338 -11.309,-0.948 z m 5.891,40.901 c 0.948,0.27 2.98,0.541 5.824,0.541 6.23,-0.067 10.496,-2.64 10.496,-8.532 0,-5.214 -3.995,-8.667 -10.293,-8.667 H 5.891 Z" style="fill:none;stroke:#ffffff;stroke-width:3;stroke-linecap:butt;stroke-linejoin:miter;stroke-miterlimit:10;stroke-dasharray:none;stroke-opacity:1" transform="matrix(1.3333333,0,0,-1.3333333,2382.6224,431.22707)" />
      <path id="path50" d="M 0,0 H -17.742 V 14.424 H 1.016 v 4.943 H -23.633 V -26.274 H 2.032 v 4.943 h -19.774 v 16.456 l 17.742,0 z" style="fill:none;stroke:#ffffff;stroke-width:3;stroke-linecap:butt;stroke-linejoin:miter;stroke-miterlimit:10;stroke-dasharray:none;stroke-opacity:1" transform="matrix(1.3333333,0,0,-1.3333333,2462.7077,396.19507)" />
      <path id="path51" d="m 0,0 v 19.502 c 0,7.584 -0.135,13.07 -0.474,18.826 l 0.203,0.067 C 2.031,33.452 5.079,28.238 8.261,23.159 L 22.753,0 h 5.959 V 45.641 H 23.159 V 26.545 c 0,-7.11 0.135,-12.663 0.677,-18.757 L 23.701,7.72 c -2.167,4.672 -4.808,9.48 -8.194,14.83 L 0.88,45.641 H -5.553 V 0 Z" style="fill:none;stroke:#ffffff;stroke-width:3;stroke-linecap:butt;stroke-linejoin:miter;stroke-miterlimit:10;stroke-dasharray:none;stroke-opacity:1" transform="matrix(1.3333333,0,0,-1.3333333,2483.0221,431.22707)" />
      <path id="path52" d="m 0,0 c -2.37,-1.151 -6.027,-1.896 -9.616,-1.896 -11.106,0 -17.539,7.178 -17.539,18.351 0,11.986 7.111,18.825 17.81,18.825 3.792,0 6.975,-0.812 9.209,-1.896 l 1.422,4.808 c -1.557,0.813 -5.146,2.032 -10.834,2.032 -14.153,0 -23.836,-9.684 -23.836,-23.972 0,-14.965 9.683,-23.091 22.549,-23.091 5.553,0 9.887,1.083 12.054,2.167 z" style="fill:none;stroke:#ffffff;stroke-width:3;stroke-linecap:butt;stroke-linejoin:miter;stroke-miterlimit:10;stroke-dasharray:none;stroke-opacity:1" transform="matrix(1.3333333,0,0,-1.3333333,2575.9284,423.01093)" />
      <path id="path53" d="M 0,0 H -17.742 V 14.424 H 1.016 v 4.943 H -23.633 V -26.274 H 2.032 v 4.943 h -19.774 v 16.456 l 17.742,0 z" style="fill:none;stroke:#ffffff;stroke-width:3;stroke-linecap:butt;stroke-linejoin:miter;stroke-miterlimit:10;stroke-dasharray:none;stroke-opacity:1" transform="matrix(1.3333333,0,0,-1.3333333,2618.9036,396.19507)" />
      <path id="path54" d="m 0,0 c 1.964,-0.271 5.079,-0.542 9.142,-0.542 7.448,0 12.595,1.355 15.777,4.267 2.303,2.234 3.86,5.214 3.86,9.141 0,6.772 -5.078,10.361 -9.412,11.445 v 0.135 c 4.808,1.761 7.719,5.62 7.719,10.022 0,3.589 -1.421,6.298 -3.792,8.058 -2.844,2.303 -6.636,3.318 -12.527,3.318 C 6.636,45.844 2.573,45.438 0,44.896 Z m 5.891,40.901 c 0.948,0.203 2.506,0.406 5.214,0.406 5.959,0 10.022,-2.099 10.022,-7.449 0,-4.401 -3.656,-7.651 -9.886,-7.651 h -5.35 z m 0,-19.164 h 4.876 c 6.433,0 11.782,-2.573 11.782,-8.803 0,-6.636 -5.62,-8.871 -11.715,-8.871 -2.099,0 -3.792,0.068 -4.943,0.271 z" style="fill:none;stroke:#ffffff;stroke-width:3;stroke-linecap:butt;stroke-linejoin:miter;stroke-miterlimit:10;stroke-dasharray:none;stroke-opacity:1" transform="matrix(1.3333333,0,0,-1.3333333,2650.9544,431.04667)" />
      <path id="path55" d="M 0,0 H -17.742 V 14.424 H 1.016 v 4.943 H -23.633 V -26.274 H 2.032 v 4.943 h -19.774 v 16.456 l 17.742,0 z" style="fill:none;stroke:#ffffff;stroke-width:3;stroke-linecap:butt;stroke-linejoin:miter;stroke-miterlimit:10;stroke-dasharray:none;stroke-opacity:1" transform="matrix(1.3333333,0,0,-1.3333333,2731.4011,396.19507)" />
      <path id="path56" d="m 0,0 c 0,-8.938 -3.115,-11.309 -8.396,-11.309 -1.964,0 -3.725,0.407 -4.944,0.881 l -0.88,-4.808 c 1.49,-0.61 4.13,-1.084 6.297,-1.084 7.856,0 13.815,3.725 13.815,15.846 v 30.54 H 0 Z" style="fill:none;stroke:#ffffff;stroke-width:3;stroke-linecap:butt;stroke-linejoin:miter;stroke-miterlimit:10;stroke-dasharray:none;stroke-opacity:1" transform="matrix(1.3333333,0,0,-1.3333333,2758.3952,410.4608)" />
      <path id="path57" d="m 0,0 c -12.189,0 -21.195,-9.48 -21.195,-23.972 0,-13.814 8.465,-23.159 20.518,-23.159 11.647,0 21.196,8.33 21.196,24.04 C 20.519,-9.548 12.46,0 0,0 Z m -0.271,-4.808 c 9.819,0 14.56,-9.48 14.56,-18.554 0,-10.361 -5.283,-18.961 -14.627,-18.961 -9.278,0 -14.559,8.736 -14.559,18.487 0,10.022 4.875,19.028 14.626,19.028 z" style="fill:none;stroke:#ffffff;stroke-width:3;stroke-linecap:butt;stroke-linejoin:miter;stroke-miterlimit:10;stroke-dasharray:none;stroke-opacity:1" transform="matrix(1.3333333,0,0,-1.3333333,2803.9903,369.37933)" />
      </g></svg>