<?xml version='1.0' encoding='utf-8'?>
<svg xmlns="http://www.w3.org/2000/svg" version="1.1" width="2147.674" height="702.035" viewBox="936.061 1513.900 2147.674 702.035"><defs id="defs1"><clipPath clipPathUnits="userSpaceOnUse" id="clipPath4">
      <path d="M 122.5624,2051.5417 H 2506.5025 V -1318.8484 H 122.5624 Z" id="path4" />
    </clipPath>
    <clipPath clipPathUnits="userSpaceOnUse" id="clipPath6">
      <path d="M -503.42171,2051.917 H 1880.5183 V -1318.4731 H -503.42171 Z" id="path6" />
    </clipPath>
  </defs><g id="object"><path id="path7" d="m 0,0 c 21.908,14.363 38.126,30.35 61.677,34.565 54.863,9.819 91.842,-17.99 92.433,-73.932 0.434,-41.149 -3.352,-82.329 -4.697,-123.514 -0.991,-30.339 4.496,-40.968 27.705,-57.669 7.975,3.275 5.084,11.307 6.911,17.062 13.523,42.603 57.203,53.135 88.345,21.297 4.59,-4.692 10.001,-9.185 15.897,-11.873 12.342,-5.627 28.934,-6.417 34.652,4.487 6.603,12.591 -10.878,15.709 -19.317,20.471 -16.066,9.066 -33.084,16.453 -49.744,24.459 -39.337,18.901 -53.466,50.331 -48.859,92.974 4.396,40.684 23.205,69.798 61.777,84.424 38.387,14.555 77.707,13.873 116.267,1.499 33.133,-10.632 47.85,-50.221 31.021,-80.272 -11.894,-21.236 -31.056,-19.776 -50.887,-14.182 -13.041,3.678 -31.812,17.659 -37.931,2.594 -6.092,-15.002 17.709,-17.781 29.149,-23.838 79.931,-42.318 101.471,-119.738 52.206,-191.479 -14.126,-20.572 -35.977,-29.348 -58.892,-35.377 -62.327,-16.399 -121.412,-1.438 -165.314,41.737 -26.584,-32.041 -62.427,-40.058 -101.751,-37.802 -21.799,1.251 -33.654,11.961 -33.324,35.395 0.51,36.232 2.179,72.232 8.316,108.065 3.39,19.794 6.582,40.097 -0.561,59.966 -8.435,23.462 -30.322,28.295 -46.881,9.82 -10.352,-11.55 -14.357,-25.917 -16.43,-41.444 -5.603,-41.967 -1.063,-84.052 -2.594,-126.058 -0.772,-21.166 -10.86,-31.96 -29.216,-39 -22.822,-8.753 -46.325,-7.929 -69.832,-6.491 -20.858,1.275 -26.078,13.702 -22.455,33.044 9.444,50.417 27.346,99.006 31.015,150.731 1.98,27.908 -1.203,53.057 -18.989,76.022 -15.955,20.601 -11.663,47.147 8.912,63.834 21.525,17.456 47.282,25.426 74.055,29.847 C -15.788,52.92 -3.186,44.249 -3.151,20.86 -3.143,15.228 -1.51,9.598 0,0" style="fill:#1c2a2f;fill-opacity:1;fill-rule:nonzero;stroke:none" transform="matrix(1.3333333,0,0,-1.3333333,1119.9137,1784.1235)" />
      <path id="path10" d="m 0,0 c 20.008,17.6 39.362,33.298 65.844,37.016 39.908,5.602 75.139,-25.03 77.856,-65.539 3.089,-46.046 7.059,-91.999 8.354,-138.177 0.498,-17.742 5.986,-34.066 22.409,-45.582 19.294,-13.53 22.086,-44.949 5.031,-61.349 -27.942,-26.866 -62.98,-34.717 -100.391,-29.927 -20.187,2.585 -22.255,20.253 -23.489,36.748 -3.15,42.067 0.104,84.023 2.284,125.996 0.613,11.804 0.837,23.533 -2.968,34.987 -3.585,10.791 -8.588,21.112 -20.709,23.129 -13.515,2.248 -22.14,-6.999 -28.156,-17.445 -13.774,-23.916 -10.063,-50.673 -9.907,-76.431 0.163,-26.868 2.093,-53.812 4.92,-80.546 2.097,-19.832 -4.003,-35.207 -20.602,-45.042 -24.069,-14.26 -50.664,-20.31 -78.1,-13.324 -21.607,5.501 -27.732,20.588 -19.728,57.931 8.666,40.423 9.789,81.71 16.568,121.87 10.331,61.212 3.734,122.031 6.897,182.9 1.012,19.463 -4.585,35.94 -20.115,49.262 -19.956,17.118 -20.07,48.05 -0.339,65.415 23.328,20.531 51.411,31.732 81.809,36.603 19.132,3.067 30.467,-4.863 31.852,-25.579 C 2.188,129.987 -1.226,87.229 -2.964,44.407 -3.545,30.083 -5.846,15.442 0,0" style="fill:#1c2a2f;fill-opacity:1;fill-rule:nonzero;stroke:none" transform="matrix(1.3333333,0,0,-1.3333333,1860.5533,1785.4059)" />
      <path id="path13" d="M 0,0 C 0,20.152 1.323,40.419 -0.411,60.42 -1.84,76.896 -8.889,93.964 -27.959,94.49 -47.24,95.022 -57.006,79.713 -61.233,62.075 c -7.229,-30.173 0.06,-60.194 1.986,-90.229 1.02,-15.907 2.332,-32.033 5.96,-47.486 7.411,-31.57 -3.097,-49.053 -38.019,-59.806 -64.115,-19.741 -85.773,-17.995 -74.856,60.923 6.347,45.888 12.223,91.669 5.241,138.111 -2.471,16.434 -8.753,30.573 -19.522,42.911 -30.083,34.467 -24.491,68.402 15.563,88.955 15.803,8.109 31.871,15.577 49.704,19.664 22.148,5.076 33.879,-1.636 37.896,-23.812 1.122,-6.195 -0.738,-15.239 7.078,-17.55 8.08,-2.39 10.515,6.725 14.783,11.294 24.654,26.395 55.209,37.206 89.984,29.526 33.182,-7.329 47.43,-33.856 51.197,-64.796 4.87,-40.006 6.782,-80.374 9.94,-120.588 1.771,-22.559 8.1,-42.107 27.998,-56.437 18.047,-12.998 19.064,-49.482 2.607,-64.249 -25.661,-23.025 -56.599,-32.101 -90.706,-30.723 -21.61,0.872 -28.254,16.047 -29.766,34.072 C 3.377,-58.839 -0.032,-29.526 0,0" style="fill:#1c2a2f;fill-opacity:1;fill-rule:nonzero;stroke:none" transform="matrix(1.3333333,0,0,-1.3333333,2558.7745,1988.004)" />
      <path id="path15" d="m 0,0 c 0.4,6.197 -3.485,8.819 -8.735,10.089 -12.939,3.13 -22.763,-3.05 -31.072,-11.629 -8.892,-9.18 -14.035,-20.485 -14.118,-33.525 -0.028,-4.285 3.596,-4.503 7.018,-4.8 C -31.578,-41.193 0.168,-14.302 0,0 m -37.898,-123.599 c 19.278,-15.401 50.704,-14.632 68.754,0.848 7.631,6.545 13.814,14.832 21.66,21.064 19.161,15.22 42.971,7.36 49.715,-15.843 18.07,-62.176 -4.495,-108.338 -66.056,-129.76 -83.527,-29.066 -161.692,-1.017 -181.921,96.045 -12.69,60.889 -15.969,121.958 16.484,179.102 30.856,54.334 105.495,82.298 164.206,61.344 19.83,-7.077 36.202,-19.798 42.841,-40.088 23.275,-71.14 13.095,-128.452 -69.963,-159.864 -14.028,-5.305 -28.964,-8.213 -45.72,-12.848" style="fill:#1c2a2f;fill-opacity:1;fill-rule:nonzero;stroke:none" transform="matrix(1.3333333,0,0,-1.3333333,2933.3695,1785.5527)" />
      <path id="path19" d="m 0,0 c -0.829,-42.095 0.148,-84.027 9.796,-125.316 3.28,-14.035 8.298,-26.632 18.133,-38.042 17.179,-19.93 11.505,-54.227 -10.913,-67.978 -26.681,-16.364 -56.433,-21.235 -87.247,-17.855 -17.302,1.897 -26.028,11.362 -25.354,30.467 1.893,53.63 9.855,107.078 4.364,160.973 -2.258,22.169 -5.111,42.405 -24.617,58.019 -14.319,11.462 -13.293,46.463 0.328,59.357 23.873,22.596 52.925,35.324 85.644,38.546 C -10.365,100.092 0.26,90.999 0.055,70.521 -0.181,47.016 0,23.507 0,0" style="fill:#1c2a2f;fill-opacity:1;fill-rule:nonzero;stroke:none" transform="matrix(1.3333333,0,0,-1.3333333,2262.1056,1848.3713)" />
      <path id="path22" d="m 0,0 c 5.28,-25.317 -10.897,-40.292 -32.561,-50.783 -24.986,-12.099 -51.365,-17.224 -76.848,-2.3 -16.796,9.837 -17.664,53.257 -2.353,70.856 16.259,18.687 37.979,27.014 61.983,29.356 C -15.016,50.522 -0.695,37.286 0,0" style="fill:#1c2a2f;fill-opacity:1;fill-rule:nonzero;stroke:none" transform="matrix(1.3333333,0,0,-1.3333333,2261.8527,1610.5331)" />
      </g></svg>