<?xml version='1.0' encoding='utf-8'?>
<svg xmlns="http://www.w3.org/2000/svg" version="1.1" width="114.674" height="197.279" viewBox="2746.430 1749.770 114.674 197.279"><defs id="defs1"><clipPath clipPathUnits="userSpaceOnUse" id="clipPath59">
      <path d="M 0,3370.3901 H 2383.9401 V -2.5000001e-5 H 0 Z" id="path59" />
    </clipPath>
  </defs><g id="object"><path id="path19" d="m 0,0 c 24.374,-0.243 40.662,-26.852 33.49,-50.047 -10.226,-33.076 -27.626,-60.476 -54.254,-82.326 -5.662,-4.646 -11.107,-10.627 -18.063,-2.766 -7.082,8.004 -0.002,12.383 5.144,17.437 6.196,6.087 12.651,12.188 17.509,19.298 8.907,13.037 15.849,25.027 -6.171,34.835 -15.198,6.771 -19.104,22.568 -14.329,38.94 C -32.198,-9.28 -17.704,0.177 0,0" style="fill:#ffffff;fill-opacity:1;fill-rule:nonzero;stroke:none" transform="matrix(1.3333333,0,0,-1.3333333,2808.1775,1755.7697)" />
      </g></svg>