<?xml version='1.0' encoding='utf-8'?>
<svg xmlns="http://www.w3.org/2000/svg" version="1.1" width="238.464" height="293.018" viewBox="1019.670 3567.470 238.464 293.018"><defs id="defs1"><clipPath clipPathUnits="userSpaceOnUse" id="clipPath37">
      <path d="M 0,3370.3901 H 2383.9401 V -2.5000001e-5 H 0 Z" id="path37" />
    </clipPath>
  </defs><g id="object"><path id="path5" d="m 0,0 c 2.959,-6.664 -5.305,-19.978 10.3,-19.864 10.468,0.076 12.849,8.712 13.235,17.651 C 23.957,7.57 22.47,17.368 10.814,18.34 -2.423,19.443 1.305,8.033 0,0 m -8.675,63.225 c 17.682,0 35.584,1.795 53.001,-0.351 44.579,-5.493 64.927,-57.159 35.874,-91.638 -8.01,-9.506 -7.042,-11.604 -0.892,-22.79 13.973,-25.419 14.703,-55.599 16.447,-84.554 0.3,-4.979 -3.878,-9.188 -9.915,-9.509 -4.206,-0.224 -8.422,-0.579 -12.626,-0.499 -52.548,0.998 -50.88,-9.108 -51.872,49.18 -0.014,0.842 0.004,1.69 -0.079,2.527 -1.1,11.169 2.118,29.22 -13.703,27.03 -14.734,-2.039 -5.608,-19.455 -6.05,-30.075 -0.196,-4.696 3.493,-9.42 4.524,-14.32 5.91,-28.098 0.841,-34.184 -28.14,-34.317 -6.745,-0.032 -13.49,0.019 -20.234,0.049 -32.728,0.143 -35.669,6.061 -28.429,39.538 8.961,41.44 8.374,84.075 0.839,125.331 -7.958,43.573 -8.511,45.74 35.96,45.713 8.431,-0.006 16.862,-0.001 25.293,-0.001 10e-4,-0.438 10e-4,-0.876 0.002,-1.314" style="fill:#d7bb98;fill-opacity:1;fill-rule:nonzero;stroke:none" transform="matrix(1.3333333,0,0,-1.3333333,1124.4372,3659.5261)" />
      </g></svg>