<?xml version='1.0' encoding='utf-8'?>
<svg xmlns="http://www.w3.org/2000/svg" version="1.1" width="111.805" height="115.733" viewBox="1760.530 2946.770 111.805 115.733"><g id="object"><path id="path47" d="M 0,0 C -12.326,10 -19.37,20.062 -25.742,19.654 -32.018,19.251 -41.904,8.46 -42.253,1.811 -42.577,-4.371 -33.134,-15.261 -26.66,-16.381 -20.602,-17.429 -12.796,-8.378 0,0 m -63.524,3.819 c 1.209,22.696 18.057,38.171 39.805,36.559 21.724,-1.611 36.179,-18.895 34.884,-41.714 -1.281,-22.58 -17.491,-37.048 -40.23,-35.908 -22.403,1.122 -35.739,17.015 -34.459,41.063" style="fill:#231916;fill-opacity:1;fill-rule:nonzero;stroke:none" transform="matrix(1.3333333,0,0,-1.3333333,1851.3413,3006.7567)" />
      </g></svg>