<?xml version='1.0' encoding='utf-8'?>
<svg xmlns="http://www.w3.org/2000/svg" version="1.1" width="777.207" height="69.203" viewBox="1189.700 259.242 777.207 69.203"><g id="object"><path id="path5" d="M 0.60988438,-22.862659 9.3051969,6.21875e-4 H 13.277853 L 22.254416,-22.862659 h -4.347657 l -4.441406,12.84375 c -0.75,2.0859371 -1.417969,3.9726559 -1.933594,5.8593746 H 11.391134 C 10.910666,-6.0462531 10.301291,-7.9329719 9.5395719,-10.018909 L 5.0512906,-22.862659 Z M 42.425314,6.21875e-4 c -0.28125,-1.558593775 -0.375,-3.492187475 -0.375,-5.484374975 v -8.5546879 c 0,-4.582031 -1.699219,-9.351562 -8.695312,-9.351562 -2.882813,0 -5.613282,0.808594 -7.511719,2.039062 l 0.949219,2.730469 c 1.605468,-1.03125 3.820312,-1.699219 5.953125,-1.699219 4.675781,0 5.191406,3.410157 5.191406,5.296875 v 0.46875 c -8.835938,-0.04687 -13.746094,2.976563 -13.746094,8.5078129 0,3.3046875 2.367188,6.56249997 6.996094,6.56249997 3.257812,0 5.71875,-1.60546877 6.996094,-3.39843747 h 0.140625 L 38.651877,6.21875e-4 Z M 38.030783,-7.6985969 c 0,0.421875 -0.09375,0.890625 -0.234375,1.3242188 -0.65625,1.9335937 -2.542969,3.8203125 -5.519531,3.8203125 -2.132813,0 -3.925782,-1.2773438 -3.925782,-3.9609375 0,-4.4414059 5.144532,-5.2499999 9.679688,-5.1562499 z M 48.759298,6.21875e-4 h 4.160157 V -13.745472 c 0,-0.714844 0.09375,-1.417969 0.28125,-1.945312 0.714843,-2.308594 2.835937,-4.253907 5.578125,-4.253907 3.925781,0 5.296875,3.082032 5.296875,6.761719 V 6.21875e-4 h 4.160156 V -13.651722 c 0,-7.851562 -4.921875,-9.738281 -8.085938,-9.738281 -3.785156,0 -6.421875,2.132812 -7.558593,4.300781 h -0.09375 l -0.234375,-3.773437 h -3.691407 c 0.140625,1.886718 0.1875,3.820312 0.1875,6.1875 z m 33.934571,0 h 4.007812 V -30.714222 h -3.539062 l -6.714844,3.597656 0.808594,3.164063 5.332031,-2.882813 h 0.105469 z m 34.822261,0 V -3.4446906 h -13.80468 v -0.09375 l 2.46093,-2.2734375 c 6.46875,-6.2343749 10.58204,-10.8164059 10.58204,-16.4882809 0,-4.394532 -2.78907,-8.929688 -9.39844,-8.929688 -3.55078,0 -6.57422,1.324219 -8.695314,3.117188 l 1.324218,2.929687 c 1.417966,-1.183594 3.726566,-2.601562 6.515626,-2.601562 4.58203,0 6.09375,2.882812 6.09375,6 -0.0469,4.628906 -3.58594,8.601562 -11.42578,16.0664059 l -3.269533,3.1640625 V 6.21875e-4 Z M 134.42922,-28.347034 v 5.484375 h -3.53906 v 3.164062 h 3.53906 v 12.4687501 c 0,2.6953125 0.42188,4.7226563 1.60547,5.953125 0.99609,1.13671877 2.55469,1.74609377 4.48828,1.74609377 1.60547,0 2.88281,-0.234375 3.69141,-0.5625 l -0.19922,-3.11718747 c -0.51563,0.140625 -1.3125,0.28125 -2.40235,0.28125 -2.32031,0 -3.11718,-1.6054688 -3.11718,-4.4414063 V -19.698597 h 5.95312 v -3.164062 h -5.95312 v -6.574219 z m 24.09961,4.957031 c -6.32813,0 -11.34375,4.488281 -11.34375,12.140625 0,7.2304686 4.76953,11.76562487 10.96875,11.76562487 5.51953,0 11.37891,-3.67968747 11.37891,-12.14062487 0,-6.996094 -4.44141,-11.765625 -11.00391,-11.765625 z m -0.0937,3.117187 c 4.91016,0 6.84375,4.921875 6.84375,8.789063 0,5.1562499 -2.97656,8.8828124 -6.9375,8.8828124 -4.06641,0 -6.94922,-3.7734375 -6.94922,-8.7890624 0,-4.347656 2.13281,-8.882813 7.04297,-8.882813 z m 17.29102,-8.074218 v 5.484375 h -3.53907 v 3.164062 h 3.53907 v 12.4687501 c 0,2.6953125 0.42187,4.7226563 1.60546,5.953125 0.9961,1.13671877 2.55469,1.74609377 4.48829,1.74609377 1.60546,0 2.88281,-0.234375 3.6914,-0.5625 l -0.19922,-3.11718747 c -0.51562,0.140625 -1.3125,0.28125 -2.40234,0.28125 -2.32031,0 -3.11719,-1.6054688 -3.11719,-4.4414063 V -19.698597 h 5.95313 v -3.164062 h -5.95313 v -6.574219 z M 218.72805,6.21875e-4 V -3.4446906 h -13.80469 v -0.09375 l 2.46094,-2.2734375 c 6.46875,-6.2343749 10.58203,-10.8164059 10.58203,-16.4882809 0,-4.394532 -2.78906,-8.929688 -9.39844,-8.929688 -3.55078,0 -6.57422,1.324219 -8.69531,3.117188 l 1.32422,2.929687 c 1.41797,-1.183594 3.72656,-2.601562 6.51562,-2.601562 4.58203,0 6.09375,2.882812 6.09375,6 -0.0469,4.628906 -3.58593,8.601562 -11.42578,16.0664059 l -3.26953,3.1640625 V 6.21875e-4 Z M 223.92531,-30.714222 v 3.457031 h 15.02344 v 0.09375 L 225.62453,6.21875e-4 h 4.30078 L 243.29641,-27.972034 v -2.742188 z m 33.40137,29.6250001 c 1.60547,0.94921877 3.92578,1.55859377 6.4336,1.55859377 5.42578,0 8.54296,-2.83593747 8.54296,-6.84374997 0,-3.4101563 -2.02734,-5.3906249 -6,-6.9023439 -2.97656,-1.136719 -4.34765,-1.980469 -4.34765,-3.878906 0,-1.699219 1.37109,-3.117188 3.83203,-3.117188 2.12109,0 3.78516,0.761719 4.67578,1.324219 l 1.04297,-3.023437 c -1.27734,-0.75 -3.30469,-1.417969 -5.625,-1.417969 -4.91016,0 -7.88672,3.023437 -7.88672,6.714844 0,2.742187 1.93359,5.003906 6.04688,6.46875 3.07031,1.1367184 4.2539,2.2265621 4.2539,4.2070309 0,1.8867187 -1.41797,3.3984375 -4.4414,3.3984375 -2.08594,0 -4.25391,-0.84375 -5.48438,-1.6523438 z m 38.70117,-9.5859371 c 0.0469,-0.433594 0.14063,-1.089844 0.14063,-1.945313 0,-4.195312 -1.98047,-10.769531 -9.45703,-10.769531 -6.65625,0 -10.72266,5.4375 -10.72266,12.339844 0,6.8906246 4.20703,11.51953087 11.25,11.51953087 3.63281,0 6.14063,-0.75 7.60547,-1.41796875 l -0.70313,-2.97656252 c -1.57031,0.6679688 -3.36328,1.1835938 -6.33984,1.1835938 -4.16016,0 -7.74609,-2.3085938 -7.83984,-7.9335934 z m -16.01953,-2.976563 c 0.32813,-2.882812 2.16797,-6.761719 6.375,-6.761719 4.67578,0 5.8125,4.113282 5.76563,6.761719 z m 21.30762,23.0039064 h 4.11328 v -12.421875 h 0.0937 c 1.37109,2.26171872 4.01953,3.58593747 7.04297,3.58593747 5.39062,0 10.39453,-4.05468747 10.39453,-12.28124987 0,-6.949219 -4.16016,-11.625 -9.69141,-11.625 -3.72656,0 -6.42187,1.652344 -8.12109,4.441406 h -0.0937 l -0.1875,-3.914062 h -3.73828 c 0.0937,2.167968 0.1875,4.535156 0.1875,7.464843 z m 4.11328,-22.5820314 c 0,-0.5625 0.14063,-1.183594 0.28125,-1.699219 0.80859,-3.117187 3.45703,-5.15625 6.29297,-5.15625 4.39453,0 6.79687,3.925782 6.79687,8.507813 0,5.2499999 -2.55468,8.8359374 -6.94921,8.8359374 -2.97657,0 -5.47266,-1.9804688 -6.23438,-4.8632813 -0.0937,-0.5273437 -0.1875,-1.0898437 -0.1875,-1.6992187 z m 23.72168,-15.117187 v 5.484375 h -3.53906 v 3.164062 h 3.53906 v 12.4687501 c 0,2.6953125 0.42188,4.7226563 1.60547,5.953125 0.99609,1.13671877 2.55469,1.74609377 4.48828,1.74609377 1.60547,0 2.88281,-0.234375 3.69141,-0.5625 l -0.19922,-3.11718747 c -0.51563,0.140625 -1.3125,0.28125 -2.40235,0.28125 -2.32031,0 -3.11718,-1.6054688 -3.11718,-4.4414063 V -19.698597 h 5.95312 v -3.164062 h -5.95312 v -6.574219 z m 32.78906,17.671875 c 0.0469,-0.433594 0.14063,-1.089844 0.14063,-1.945313 0,-4.195312 -1.98047,-10.769531 -9.45703,-10.769531 -6.65625,0 -10.72266,5.4375 -10.72266,12.339844 0,6.8906246 4.20703,11.51953087 11.25,11.51953087 3.63281,0 6.14063,-0.75 7.60547,-1.41796875 l -0.70313,-2.97656252 c -1.57031,0.6679688 -3.36328,1.1835938 -6.33984,1.1835938 -4.16016,0 -7.74609,-2.3085938 -7.83984,-7.9335934 z m -16.01953,-2.976563 c 0.32813,-2.882812 2.16797,-6.761719 6.375,-6.761719 4.67578,0 5.8125,4.113282 5.76563,6.761719 z M 367.22512,6.21875e-4 h 4.06641 V -13.792347 c 0,-0.714844 0.0937,-1.417969 0.32812,-2.039062 0.66797,-2.074219 2.55469,-4.160157 5.15625,-4.160157 3.16406,0 4.76953,2.648438 4.76953,6.292969 V 6.21875e-4 h 4.06641 V -14.132191 c 0,-0.75 0.14062,-1.511718 0.32812,-2.074218 0.70313,-2.027344 2.55469,-3.785157 4.91016,-3.785157 3.36328,0 4.96875,2.648438 4.96875,7.042969 V 6.21875e-4 h 4.05469 V -13.464222 c 0,-7.933594 -4.48828,-9.925781 -7.51172,-9.925781 -2.16797,0 -3.67969,0.574219 -5.05078,1.605469 -0.94922,0.714843 -1.83985,1.699218 -2.55469,2.976562 h -0.0937 c -0.99609,-2.695312 -3.35156,-4.582031 -6.46875,-4.582031 -3.78516,0 -5.90625,2.039062 -7.18359,4.207031 h -0.14063 l -0.1875,-3.679687 h -3.64453 c 0.14062,1.886718 0.1875,3.820312 0.1875,6.1875 z m 42.81738,0 0.1875,-3.785156275 h 0.14063 c 1.69922,3.02343752 4.34765,4.30078127 7.65234,4.30078127 5.10938,0 10.25391,-4.05468747 10.25391,-12.23437487 0.0469,-6.949219 -3.97266,-11.671875 -9.64453,-11.671875 -3.67969,0 -6.32813,1.652344 -7.79297,4.207031 h -0.0937 v -14.367187 h -4.11328 v 27.6445309 c 0,2.0273437 -0.0937,4.3476562 -0.1875,5.906249975 z M 410.74563,-13.276722 c 0,-0.65625 0.14062,-1.230469 0.23437,-1.699219 0.85547,-3.164062 3.50391,-5.109375 6.33985,-5.109375 4.4414,0 6.79687,3.925782 6.79687,8.507813 0,5.2499999 -2.60156,8.7890624 -6.94922,8.7890624 -3.02344,0 -5.42578,-1.9804688 -6.23437,-4.8632813 -0.0937,-0.4804687 -0.1875,-0.9960937 -0.1875,-1.5117187 z m 41.15918,2.601563 c 0.0469,-0.433594 0.14062,-1.089844 0.14062,-1.945313 0,-4.195312 -1.98047,-10.769531 -9.45703,-10.769531 -6.65625,0 -10.72266,5.4375 -10.72266,12.339844 0,6.8906246 4.20704,11.51953087 11.25,11.51953087 3.63282,0 6.14063,-0.75 7.60547,-1.41796875 l -0.70312,-2.97656252 c -1.57031,0.6679688 -3.36328,1.1835938 -6.33985,1.1835938 -4.16015,0 -7.74609,-2.3085938 -7.83984,-7.9335934 z m -16.01953,-2.976563 c 0.32812,-2.882812 2.16796,-6.761719 6.375,-6.761719 4.67578,0 5.8125,4.113282 5.76562,6.761719 z M 457.18996,6.21875e-4 h 4.11328 V -12.186878 c 0,-0.714844 0.0937,-1.371094 0.1875,-1.945313 0.57422,-3.117187 2.64844,-5.332031 5.57813,-5.332031 0.5625,0 0.99609,0.04687 1.41797,0.140625 v -3.925781 c -0.375,-0.09375 -0.70313,-0.140625 -1.1836,-0.140625 -2.78906,0 -5.28515,1.933594 -6.32812,5.015625 h -0.1875 l -0.14063,-4.488281 h -3.64453 c 0.14063,2.121093 0.1875,4.441406 0.1875,7.125 z m 33.18164,0 h 4.00782 V -30.714222 h -3.53907 l -6.71484,3.597656 0.80859,3.164063 5.33203,-2.882813 h 0.10547 z m 17.61621,0.468749995 c 0.9961,0.046875 2.32032,0 3.83204,-0.234375 3.30468,-0.375 6.5625,-1.79296877 8.92968,-4.11328127 3.02344,-2.9296875 5.28516,-7.6523436 5.28516,-14.4023436 0,-7.851563 -3.86719,-12.949219 -10.16016,-12.949219 -6.28125,0 -10.48828,5.097656 -10.48828,10.910156 0,5.25 3.55078,9.410157 9.07031,9.410157 3.08204,0 5.53125,-1.230469 7.23047,-3.316407 h 0.14063 c -0.5625,3.644532 -2.02735,6.3398441 -4.05469,8.1796879 -1.74609,1.6523437 -4.01953,2.6484375 -6.43359,2.9765625 -1.41797,0.140625 -2.44922,0.234375 -3.35157,0.140625 z m 7.5586,-28.53515587 c 4.34765,0 6.28125,4.019531 6.28125,9.257812 0,0.667969 -0.14063,1.136719 -0.375,1.511719 -1.08985,1.851562 -3.25781,3.210937 -6.04688,3.210937 -3.58593,0 -5.90625,-2.683593 -5.90625,-6.515625 0,-4.347656 2.50782,-7.464843 6.04688,-7.464843 z m 32.60742,-2.648438 h -14.69531 l -1.98047,14.742188 c 1.125,-0.140625 2.49609,-0.328125 4.24219,-0.328125 6.15234,0 8.78906,2.835937 8.83593,6.8085934 0,4.1015625 -3.35156,6.65625 -7.27734,6.65625 -2.77734,0 -5.28516,-0.9492188 -6.5625,-1.6992188 l -1.04297,3.1640625 c 1.46484,0.94921877 4.30078,1.88671877 7.66406,1.88671877 6.65625,0 11.42578,-4.48828127 11.42578,-10.48828127 0,-3.8671876 -1.98046,-6.5156246 -4.39453,-7.8867186 -1.88672,-1.136719 -4.2539,-1.652344 -6.60937,-1.652344 -1.13672,0 -1.79297,0.09375 -2.50781,0.1875 l 1.18359,-7.886719 h 11.71875 z m 8.31445,31.18359387 c 0.9961,0.046875 2.32032,0 3.83203,-0.234375 3.30469,-0.375 6.5625,-1.79296877 8.92969,-4.11328127 3.02344,-2.9296875 5.28516,-7.6523436 5.28516,-14.4023436 0,-7.851563 -3.86719,-12.949219 -10.16016,-12.949219 -6.28125,0 -10.48828,5.097656 -10.48828,10.910156 0,5.25 3.55078,9.410157 9.07031,9.410157 3.08203,0 5.53125,-1.230469 7.23047,-3.316407 h 0.14063 c -0.5625,3.644532 -2.02735,6.3398441 -4.05469,8.1796879 -1.74609,1.6523437 -4.01953,2.6484375 -6.43359,2.9765625 -1.41797,0.140625 -2.44922,0.234375 -3.35157,0.140625 z m 7.5586,-28.53515587 c 4.34765,0 6.28125,4.019531 6.28125,9.257812 0,0.667969 -0.14063,1.136719 -0.375,1.511719 -1.08985,1.851562 -3.25782,3.210937 -6.04688,3.210937 -3.58594,0 -5.90625,-2.683593 -5.90625,-6.515625 0,-4.347656 2.50781,-7.464843 6.04688,-7.464843 z m 0,0" style="fill:#231916;fill-opacity:1;fill-rule:nonzero;stroke:none" aria-label="van12 tot 27 september 1959" transform="matrix(1.3333333,0,0,1.3333333,1194.8821,309.97573)" />
      </g></svg>