<?xml version='1.0' encoding='utf-8'?>
<svg xmlns="http://www.w3.org/2000/svg" version="1.1" width="69.802" height="173.678" viewBox="2353.540 459.237 69.802 173.678"><g id="object"><path id="path11" d="M 0,0 C 1.465,4.052 14.664,12.64 19.663,12.359 26.013,12 27.962,6.4 30.143,1.929 c 2.902,-5.949 4.659,-12.446 4.479,-19.218 -0.35,-13.178 2.537,-26.383 -0.85,-39.575 -0.898,-3.498 -0.197,-7.569 0.427,-11.266 2.528,-14.965 -1.789,-24.676 -14.563,-32.749 -3.754,-2.372 -6.426,-6.329 -10.978,-7.618 -3.701,-1.048 -6.05,0.106 -9.745,2.052 -10.144,5.345 -6.272,11.941 -5.241,19.628 1.602,11.94 1.077,24.12 -0.113,36.153 -0.316,3.195 -0.462,6.331 0.907,9.025 6.288,12.375 5.461,25.646 5.378,38.85 C 0.596,-1.899 0.593,-0.966 0,0" style="fill:#d2d5d9;fill-opacity:1;fill-rule:nonzero;stroke:none" transform="matrix(1.3333333,0,0,-1.3333333,2370.0959,481.7244)" />
      </g></svg>