<?xml version='1.0' encoding='utf-8'?>
<svg xmlns="http://www.w3.org/2000/svg" version="1.1" width="550.082" height="45.359" viewBox="1347.960 4373.570 550.082 45.359"><g id="object"><path id="path163" d="m 1.5127031,-1.1848797 c 1.3007813,0.85546876 3.8554688,1.54687501 6.1875,1.54687501 5.7304689,0 8.4960939,-3.24609371 8.4960939,-6.98437501 0,-3.5625003 -2.085938,-5.5429683 -6.1875,-7.1367183 -3.3515626,-1.289063 -4.8281251,-2.402344 -4.8281251,-4.675782 0,-1.652343 1.265625,-3.632812 4.5820312,-3.632812 2.1914059,0 3.8085939,0.714844 4.6054689,1.148437 l 0.855469,-2.554687 c -1.078125,-0.609375 -2.871094,-1.183594 -5.3554691,-1.183594 -4.7226563,0 -7.8515625,2.800781 -7.8515625,6.585938 0,3.421875 2.4492187,5.472656 6.4101562,6.878906 3.2695314,1.2539061 4.5703124,2.5546873 4.5703124,4.8164061 0,2.4492187 -1.875,4.1484375 -5.0742186,4.1484375 -2.15625,0 -4.21875,-0.7265625 -5.6132813,-1.59375 z m 35.8242189,-6.4453125 2.589844,7.62890626 h 3.339843 L 34.993172,-24.270817 h -3.785156 l -8.238282,24.26953106 h 3.234375 l 2.519532,-7.62890626 z m -7.957031,-2.4492188 2.367187,-7.019531 c 0.46875,-1.476563 0.867188,-2.953125 1.230469,-4.394531 h 0.07031 c 0.363282,1.40625 0.714844,2.847656 1.253907,4.429687 l 2.378906,6.984375 z M 58.032234,-0.00128594 66.704109,-24.270817 h -3.339843 l -4.113282,11.988281 c -1.078125,3.1757813 -2.085937,6.2343751 -2.765625,9.0468751 h -0.07031 C 55.770518,-6.0833172 54.868174,-9.0364422 53.825205,-12.317692 L 50.040049,-24.270817 H 46.65333 l 7.921875,24.26953106 z M 73.650398,-24.270817 v 24.26953106 h 3.140625 V -24.270817 Z M 89.526375,-0.00128594 V -10.37238 c 0,-4.03125 -0.07031,-6.949218 -0.246094,-10.007812 l 0.105469,-0.03516 c 1.230469,2.625 2.847656,5.402343 4.535156,8.097656 l 7.710934,12.31640606 h 3.16407 V -24.270817 h -2.95313 v 10.160156 c 0,3.773438 0.0703,6.7265626 0.36328,9.9726563 l -0.0703,0.035156 c -1.16016,-2.484375 -2.566406,-5.0390625 -4.359375,-7.8867183 l -7.78125,-12.28125 H 86.57325 V -0.00128594 Z M 133.04981,-12.739567 h -7.99218 v 2.519531 h 4.93359 v 7.2304688 c -0.71484,0.3632813 -2.12109,0.6445313 -4.17188,0.6445313 -5.64843,0 -9.36328,-3.6328125 -9.36328,-9.7851561 0,-6.082031 3.85547,-9.761719 9.76172,-9.761719 2.44922,0 4.06641,0.46875 5.35547,1.042969 l 0.76172,-2.554688 c -1.04297,-0.503906 -3.24609,-1.113281 -6.04688,-1.113281 -8.13281,0 -13.10156,5.296875 -13.13671,12.527344 0,3.7851561 1.28906,7.0195311 3.375,9.0351561 2.3789,2.27343746 5.40234,3.21093746 9.08203,3.21093746 3.26953,0 6.04687,-0.83203125 7.4414,-1.33593746 z m 21.06153,12.73828106 h 3.14062 V -9.7161297 c 0.71484,0.1757813 1.58203,0.2109375 2.51953,0.2109375 3.0586,0 5.75391,-0.9023438 7.41797,-2.6601558 1.21875,-1.265625 1.86328,-2.988282 1.86328,-5.191407 0,-2.15625 -0.78515,-3.925781 -2.12109,-5.074218 -1.44141,-1.289063 -3.70313,-2.015625 -6.8086,-2.015625 -2.51953,0 -4.5,0.222656 -6.01171,0.46875 z m 3.14062,-21.70312506 c 0.53906,-0.152344 1.58203,-0.257812 2.95313,-0.257812 3.45703,0 5.71875,1.546875 5.71875,4.757812 0,3.339844 -2.3086,5.179688 -6.08204,5.179688 -1.04296,0 -1.91015,-0.07031 -2.58984,-0.257813 z m 20.3291,21.70312506 h 3.14063 V -10.513005 h 2.95312 c 2.83594,0.105469 4.13672,1.3710941 4.85157,4.7109378 0.6914,3.0234375 1.23046,5.12109376 1.6289,5.80078126 h 3.23438 c -0.50391,-0.9375 -1.07813,-3.28124996 -1.875,-6.65624996 -0.57422,-2.5195313 -1.6875,-4.2539061 -3.5625,-4.8984371 v -0.105469 c 2.55468,-0.867188 4.57031,-2.988281 4.57031,-6.199219 0,-1.863281 -0.67969,-3.527344 -1.89844,-4.605469 -1.51172,-1.371093 -3.67969,-1.980468 -7.03125,-1.980468 -2.15625,0 -4.41797,0.175781 -6.01172,0.503906 z m 3.14063,-21.73828106 c 0.5039,-0.152344 1.58203,-0.292969 3.09375,-0.292969 3.3164,0.03516 5.57812,1.40625 5.57812,4.535156 0,2.777344 -2.12109,4.605469 -5.47265,4.605469 h -3.19922 z m 20.54883,-2.53125 v 24.26953106 h 3.14062 V -24.270817 Z m 21.71191,24.26953106 8.67187,-24.26953106 h -3.33984 l -4.11328,11.988281 c -1.07813,3.1757813 -2.08594,6.2343751 -2.76563,9.0468751 h -0.0703 c -0.64453,-2.8476563 -1.54687,-5.8007813 -2.58984,-9.0820311 l -3.78516,-11.953125 h -3.38672 l 7.92188,24.26953106 z m 26.10645,-7.62890626 2.58984,7.62890626 h 3.33984 L 246.74513,-24.270817 h -3.78516 l -8.23828,24.26953106 h 3.23437 l 2.51953,-7.62890626 z m -7.95704,-2.4492188 2.36719,-7.019531 c 0.46875,-1.476563 0.86719,-2.953125 1.23047,-4.394531 h 0.0703 c 0.36328,1.40625 0.71485,2.847656 1.25391,4.429687 l 2.37891,6.984375 z m 23.61621,10.07812506 h 3.16407 V -21.598942 h 7.41797 v -2.671875 h -17.96485 v 2.671875 h 7.38281 z M 294.91798,-13.970036 h -9.4336 v -7.664062 h 9.97266 v -2.636719 H 282.34376 V -0.00128594 H 295.9961 V -2.6262859 h -10.51172 v -8.7539061 h 9.4336 z m 21.40722,13.96875006 h 3.14063 V -10.513005 h 2.95312 c 2.83594,0.105469 4.13672,1.3710941 4.85157,4.7109378 0.6914,3.0234375 1.23046,5.12109376 1.6289,5.80078126 h 3.23438 c -0.50391,-0.9375 -1.07813,-3.28124996 -1.875,-6.65624996 -0.57422,-2.5195313 -1.6875,-4.2539061 -3.5625,-4.8984371 v -0.105469 c 2.55468,-0.867188 4.57031,-2.988281 4.57031,-6.199219 0,-1.863281 -0.67969,-3.527344 -1.89844,-4.605469 -1.51172,-1.371093 -3.67969,-1.980468 -7.03125,-1.980468 -2.15625,0 -4.41797,0.175781 -6.01172,0.503906 z m 3.14063,-21.73828106 c 0.5039,-0.152344 1.58203,-0.292969 3.09375,-0.292969 3.3164,0.03516 5.57812,1.40625 5.57812,4.535156 0,2.777344 -2.12109,4.605469 -5.47265,4.605469 h -3.19922 z m 28.73144,21.73828106 V -10.337223 l 8.13282,-13.933594 h -3.5625 l -3.49219,6.703125 c -0.9375,1.839844 -1.76953,3.421875 -2.44922,5.003906 h -0.0703 c -0.76172,-1.699219 -1.47657,-3.164062 -2.41407,-5.003906 l -3.42187,-6.703125 h -3.5625 l 7.66406,13.96875 v 10.30078106 z m 24.84082,-7.62890626 2.58985,7.62890626 h 3.33984 L 370.69434,-24.270817 h -3.78515 l -8.23828,24.26953106 h 3.23437 l 2.51953,-7.62890626 z m -7.95703,-2.4492188 2.36719,-7.019531 c 0.46875,-1.476563 0.86719,-2.953125 1.23047,-4.394531 h 0.0703 c 0.36328,1.40625 0.71485,2.847656 1.25391,4.429687 l 2.3789,6.984375 z M 389.8047,-0.00128594 V -10.37238 c 0,-4.03125 -0.0703,-6.949218 -0.2461,-10.007812 l 0.10547,-0.03516 c 1.23047,2.625 2.84766,5.402343 4.53516,8.097656 l 7.71093,12.31640606 h 3.16407 V -24.270817 h -2.95313 v 10.160156 c 0,3.773438 0.0703,6.7265626 0.36328,9.9726563 l -0.0703,0.035156 c -1.16016,-2.484375 -2.56641,-5.0390625 -4.35937,-7.8867183 l -7.78125,-12.28125 h -3.42188 v 24.26953076 z m 0,0" style="fill:#ffffff;fill-opacity:1;fill-rule:nonzero;stroke:none" aria-label="SAVING PRIVATE RYAN" transform="matrix(1.3333333,0,0,1.3333333,1351.944,4412.4509)" />
    </g></svg>