<?xml version='1.0' encoding='utf-8'?>
<svg xmlns="http://www.w3.org/2000/svg" version="1.1" width="316.402" height="596.684" viewBox="271.268 1396.090 316.402 596.684"><g id="object"><path id="path20" d="m 0,0 c -27.271,-1.225 -47.442,10.078 -60.908,33.74 -7.559,13.281 -11.529,27.765 -15.887,42.234 -3.756,12.467 -7.647,24.895 -11.318,37.395 -5.748,19.577 -11.819,39.062 -17.921,58.534 -7.217,23.029 -14.686,45.98 -21.884,69.016 -2.074,6.636 -3.567,13.424 -6.304,19.886 -3.565,8.419 0.623,16.32 2.721,24.191 2.643,9.916 6.083,19.618 9.059,29.448 0.893,2.95 1.761,6.249 -1.323,8.469 -3.726,2.683 -7.046,7.039 -12.455,5.318 -5.648,-1.797 -12.172,-5.101 -16.985,-2.768 -4.571,2.215 -4.255,9.842 -5.947,15.113 -6.056,18.876 -11.841,37.839 -17.777,56.753 -1.094,3.488 -0.858,5.455 3.487,6.614 12.162,3.247 24.139,7.182 36.224,10.727 2.235,0.656 3.811,2.012 4.936,3.791 1.63,2.58 3.097,5.299 4.317,8.096 4.73,10.846 5.643,11.86 15.272,5.668 10.771,-6.924 20.713,-4.464 31.321,-0.806 7.325,2.526 14.894,4.337 22.311,6.608 3.198,0.98 4.164,0.232 5.177,-3.244 6.425,-22.057 13.282,-43.988 20.046,-65.945 2.29,-7.432 0.88,-10.109 -6.773,-12.16 -1.359,-0.364 -2.842,-0.271 -4.198,-0.643 -5.495,-1.503 -8.522,-5.192 -10.355,-10.587 -1.733,-5.103 0.905,-7.714 3.929,-11.013 6.763,-7.375 15.299,-12.607 22.955,-18.774 9.901,-7.975 14.933,-18.124 17.59,-29.496 4.989,-21.352 11.987,-42.128 18.611,-62.908 9.513,-29.841 18.545,-59.822 27.8,-89.738 4.08,-13.189 8.767,-26.224 12.106,-39.597 3.408,-13.651 3.954,-27.709 1.394,-41.66 C 48.285,47.159 48.97,42.141 47.72,36.757 44.619,23.412 36.545,15.671 25.807,9.268 17.762,4.47 9.595,-0.005 0,0" style="fill:#c03b34;fill-opacity:1;fill-rule:nonzero;stroke:none" transform="matrix(1.3333333,0,0,-1.3333333,513.908,1986.6549)" />
      </g></svg>