<?xml version='1.0' encoding='utf-8'?>
<svg xmlns="http://www.w3.org/2000/svg" version="1.1" width="151.953" height="183.392" viewBox="2296.630 1880.600 151.953 183.392"><defs id="defs1"><clipPath clipPathUnits="userSpaceOnUse" id="clipPath46">
      <path d="M 0,3370.3901 H 2383.9401 V -2.5000001e-5 H 0 Z" id="path46" />
    </clipPath>
  </defs><g id="object"><path id="path21" d="M 0,0 C 6.212,-15.311 -12.001,-42.98 23.094,-42.389 46.61,-41.992 64.149,-23.257 63.712,0.371 63.275,23.956 44.992,41.849 21.316,41.321 -11.682,40.586 6.458,14.362 0,0 m -20.11,-0.239 c -0.002,6.995 -0.002,13.99 -0.002,20.984 -0.001,43.15 5.407,47.68 49.028,41.067 C 63.539,56.563 86.88,28.101 84.714,-6.229 82.851,-35.745 54.781,-61.913 23.182,-63.593 c -42.164,-2.24 -43.294,-1.203 -43.291,39.748 0,7.869 0,15.737 -10e-4,23.606" style="fill:#424242;fill-opacity:1;fill-rule:nonzero;stroke:none" transform="matrix(1.3333333,0,0,-1.3333333,2329.4507,1972.2997)" />
      </g></svg>