<?xml version='1.0' encoding='utf-8'?>
<svg xmlns="http://www.w3.org/2000/svg" version="1.1" width="193.388" height="256.382" viewBox="2651.610 4154.200 193.388 256.382"><g id="object"><path id="path37" d="m 0,0 c -8.679,-15.73 -18.407,-25.437 -16.859,-32.761 1.578,-7.464 13.976,-16.783 22.149,-17.307 5.789,-0.371 17.943,13.065 17.337,19.388 C 21.812,-22.174 11.447,-14.584 0,0 m -38.537,-147.815 c 10.33,18.566 20.367,36.604 31.603,56.799 -7.539,2.01 -13.5,3.354 -19.305,5.19 -21.352,6.756 -34.112,21.384 -37.817,43.331 -3.709,21.973 -0.076,42.487 17.577,57.687 23.959,20.632 73.315,19.95 97.932,-0.436 C 74.329,-4.19 77.096,-40.085 58.073,-71.912 48.091,-88.613 37.91,-105.195 28,-121.938 7.865,-155.952 4.463,-157.405 -38.537,-147.815" style="fill:#231916;fill-opacity:1;fill-rule:nonzero;stroke:none" transform="matrix(1.3333333,0,0,-1.3333333,2744.7705,4200.6803)" />
      </g></svg>