<?xml version='1.0' encoding='utf-8'?>
<svg xmlns="http://www.w3.org/2000/svg" version="1.1" width="97.393" height="115.808" viewBox="1878.940 4107.580 97.393 115.808"><g id="object"><path id="path351" d="m 0,0 c 0,6.676 -0.034,13.352 0.018,20.027 0.019,2.406 0.491,4.788 2.565,6.303 0.855,0.624 2.253,1.117 3.178,0.859 0.916,-0.255 1.718,-1.438 2.243,-2.394 0.33,-0.601 0.205,-1.567 0.034,-2.312 C 4.816,8.478 6.89,-5.712 6.558,-19.815 6.455,-24.19 7.3,-28.457 9.106,-32.442 c 2.174,-4.797 6.19,-7.076 11.414,-6.51 4.792,0.52 9.038,2.24 12.689,5.62 4.984,4.616 9.142,9.969 11.958,15.963 6.53,13.898 12.063,28.194 10.72,44.079 -0.066,0.776 -0.26,1.76 0.11,2.307 0.603,0.893 1.528,1.716 2.504,2.148 0.508,0.226 1.53,-0.294 2.121,-0.741 2.89,-2.183 2.865,-5.463 2.833,-8.58 -0.12,-11.585 -3.85,-22.383 -7.415,-33.218 -2.984,-9.072 -7.358,-17.321 -13.768,-24.462 -2.915,-3.247 -6.088,-6.068 -10.008,-8.109 -11.548,-6.013 -24.038,-1.669 -29.275,10.224 -2.756,6.259 -3.313,12.888 -3.505,19.574 C -0.651,-9.435 -0.542,-4.716 -0.542,0 -0.361,0 -0.181,0 0,0" style="fill:#cd4152;fill-opacity:1;fill-rule:nonzero;stroke:none" transform="matrix(1.3333333,0,0,-1.3333333,1885.7205,4155.2048)" />
      </g></svg>