<?xml version='1.0' encoding='utf-8'?>
<svg xmlns="http://www.w3.org/2000/svg" version="1.1" width="129.943" height="180.605" viewBox="1888.360 3083.050 129.943 180.605"><defs id="defs1"><clipPath clipPathUnits="userSpaceOnUse" id="clipPath18">
      <path d="M 0,3370.3901 H 2383.9401 V -2.5000001e-5 H 0 Z" id="path18" />
    </clipPath>
  </defs><g id="object"><path id="path10" d="M 0,0 C -1.75,10.337 -1.883,25.036 -19.612,24.742 -36.131,24.468 -36.387,10.209 -37.153,-1.24 -37.936,-12.96 -35.446,-22.774 -19.262,-22.711 -4.092,-22.652 -0.157,-14.813 0,0 m -61.052,-17.427 c 0,3.954 -0.467,7.974 0.081,11.85 2.314,16.371 -9.42,40.921 6.874,46.922 11.497,4.235 30.161,4.965 45.703,4.178 C 14.48,44.363 27.824,22.956 25.22,-7.744 22.967,-34.299 4.745,-53.692 -16.736,-47.787 c -19.993,5.495 -21.924,-2.621 -20.175,-17.833 1.108,-9.632 -1.412,-14.908 -12.342,-15.031 -12.082,-0.136 -11.725,7.452 -11.646,15.771 0.151,15.817 0.044,31.636 0.044,47.454 -0.066,-0.001 -0.131,-0.001 -0.197,-0.001" style="fill:#ece8df;fill-opacity:1;fill-rule:nonzero;stroke:none" transform="matrix(1.3333333,0,0,-1.3333333,1978.2448,3150.1219)" />
      </g></svg>