<?xml version='1.0' encoding='utf-8'?>
<svg xmlns="http://www.w3.org/2000/svg" version="1.1" width="2677.600" height="3739.070" viewBox="266.492 133.756 2677.600 3739.070"><g id="object"><path id="path2" d="m 0,0 c -14.261,0.45 -28.522,1.282 -42.783,1.291 -153.65,0.094 -307.3,0.108 -460.95,-0.05 -10.63,-0.011 -18.611,-1.155 -17.712,14.803 9.668,171.5 46.685,335.589 133.335,485.64 116.347,201.477 288.565,333.367 512.524,392.063 284.843,74.653 559.636,43.107 817.354,-102.196 145.094,-81.805 254.984,-199.179 322.385,-353.109 42.266,-96.526 52.765,-198.765 46.443,-302.86 -6.586,-108.447 -36.911,-209.815 -96.393,-301.566 -62.522,-96.44 -151.334,-157.349 -259.599,-192.144 -6.618,-2.127 -18.88,-1.191 -18.579,-8.95 0.359,-9.231 12.63,-7.099 19.832,-8.925 259.646,-65.807 432.338,-270.911 453.086,-540.345 17.884,-232.233 -42.886,-440.348 -195.889,-618.421 -102.774,-119.613 -232.17,-200.867 -379.156,-254.914 -169.443,-62.304 -344.713,-81.798 -524.259,-69.206 -135.531,9.505 -266.499,37.544 -390.599,93.891 -235.987,107.15 -387.076,288.327 -462.773,534.221 -32.818,106.604 -43.157,216.44 -43.491,327.569 -0.046,15.011 5.447,16.705 18.283,16.677 167.331,-0.361 334.664,-0.198 501.997,-0.166 1.93,-72.743 15.005,-143.446 37.277,-212.71 22.324,-69.427 55.657,-132.676 106.586,-184.998 64.804,-66.578 142.318,-109.627 235.762,-123.507 68.322,-10.148 136.172,-10.37 203.515,2.952 60.358,11.94 115.297,37.785 165.389,74.047 87.374,63.252 138.18,148.861 154.961,254.484 10.887,68.522 7.946,137.011 -6.089,205.239 -17.54,85.267 -65.398,149.713 -136.772,195.892 -79.922,51.71 -171.229,69.002 -264.512,74.82 -62.608,3.904 -125.481,3.544 -188.234,5.12 -5.518,0.138 -11.258,-1.003 -16.279,2.474 109.382,63.269 218.762,126.536 330.024,190.893 -8.995,5.218 -15.355,8.919 -21.725,12.602 -102.401,59.207 -204.804,118.412 -307.206,177.617 6.207,0.077 12.415,0.242 18.623,0.217 81.78,-0.321 163.541,-4.319 244.585,13.593 47.28,10.45 93.142,23.951 135.678,46.613 106.788,56.894 167.831,142.964 168.082,267.502 0.065,32.479 -1.65,64.709 -8.749,96.157 -7.228,32.018 -14.376,64.62 -35.651,91.402 -5.512,18.052 -17.16,31.87 -30.652,44.415 l -0.041,0.06 c -4.983,9.961 -12.118,17.858 -22.095,23.027 -21.494,23.084 -47.32,40.497 -74.537,55.836 -47.388,26.706 -97.225,46.14 -152.409,48.599 -14.647,6.348 -30.501,2.382 -45.014,4.628 -36.499,5.647 -71.488,-2.444 -106.677,-6.787 -22.668,-2.798 -46.011,-8.08 -66.39,-20.53 -11.775,0.398 -21.045,-6.677 -30.726,-11.418 C 129.605,397.377 73.269,323.761 36.724,232.164 6.863,157.319 -2.951,79.789 0,0" style="fill:#030201;fill-opacity:1;fill-rule:nonzero;stroke:none" transform="matrix(1.3333333,0,0,-1.3333333,1055.4576,1383.4672)" />
      <path id="path3" d="m 0,0 c 5.023,-3.475 10.763,-2.334 16.281,-2.473 62.753,-1.576 125.626,-1.215 188.234,-5.119 93.283,-5.818 184.59,-23.111 264.512,-74.82 71.374,-46.179 119.232,-110.625 136.772,-195.892 14.035,-68.228 16.976,-136.718 6.089,-205.24 -16.781,-105.623 -67.587,-191.232 -154.961,-254.484 -50.092,-36.261 -105.031,-62.106 -165.39,-74.047 -67.342,-13.321 -135.192,-13.099 -203.514,-2.951 -93.444,13.879 -170.958,56.929 -235.763,123.506 -50.928,52.322 -84.261,115.571 -106.585,184.999 -22.272,69.264 -35.347,139.967 -37.277,212.71 32.544,84.484 86.41,153.163 155.472,210.788 40.206,33.547 85.153,59.282 131.843,82.265 C -2.873,-0.524 -1.436,-0.262 0,0" style="fill:#dc2624;fill-opacity:1;fill-rule:nonzero;stroke:none" transform="matrix(1.3333333,0,0,-1.3333333,1355.0017,2173.9815)" />
      <path id="path4" d="m 0,0 c -2.951,79.789 6.863,157.319 36.724,232.164 36.545,91.597 92.881,165.213 183.056,209.378 9.681,4.741 18.951,11.816 30.729,11.417 17.521,-5.436 31.82,11.104 49.115,7.194 1.342,-9.562 -11.384,-4.879 -12.911,-13.013 7.203,-1.931 14.521,-4.983 19.181,2.778 2.931,4.88 -0.037,9.299 -6.222,10.278 30.916,9.076 62.654,13.328 94.696,14.721 24.705,1.074 49.479,0.548 74.222,0.734 55.181,-2.461 105.018,-21.895 152.406,-48.601 27.217,-15.339 53.043,-32.752 74.537,-55.837 -5.414,-22.563 -5.244,-22.74 22.095,-23.026 0,0 0.041,-0.06 0.041,-0.06 1.458,-20.85 11.952,-35.464 30.652,-44.415 21.275,-26.782 28.423,-59.384 35.651,-91.402 7.099,-31.448 8.814,-63.678 8.749,-96.157 -0.251,-124.538 -61.294,-210.608 -168.082,-267.502 -42.536,-22.662 -88.398,-36.163 -135.678,-46.613 -81.044,-17.912 -162.805,-13.914 -244.585,-13.593 -6.208,0.025 -12.416,-0.14 -18.624,-0.217 -1.331,-0.095 -2.663,-0.19 -3.994,-0.284 C 170.69,-182.736 121.7,-150.561 80.766,-107.615 49.626,-74.945 19.687,-41.3 0,0" style="fill:#dc2624;fill-opacity:1;fill-rule:nonzero;stroke:none" transform="matrix(1.3333333,0,0,-1.3333333,1055.4576,1383.4672)" />
      <path id="path5" d="m 0,0 c 1.331,0.094 2.663,0.189 3.994,0.284 102.403,-59.205 204.805,-118.409 307.207,-177.616 6.37,-3.683 12.729,-7.384 21.724,-12.603 -111.261,-64.356 -220.642,-127.624 -330.023,-190.893 -1.438,-0.263 -2.875,-0.526 -4.289,-0.76 -0.424,60.869 -1.086,121.709 -1.254,182.55 -0.163,59.019 0.101,118.04 0.404,177.058 C -2.2,-14.649 -0.779,-7.326 0,0" style="fill:#ead249;fill-opacity:1;fill-rule:nonzero;stroke:none" transform="matrix(1.3333333,0,0,-1.3333333,1351.1352,1666.2091)" />
      <path id="path6" d="m 0,0 c 8.362,1.298 14.758,5.805 15.292,15.039 0.6,10.384 -5.945,16.417 -15.697,16.527 -9.16,0.103 -14.458,-6.129 -14.679,-15.47 C -15.314,6.392 -9.239,1.918 0,0 m 76.245,-3.791 c 0.273,-32.397 -23.943,-57.129 -55.832,-57.021 -30.625,0.103 -55.837,24.691 -56.55,55.15 -0.716,30.607 25.706,57.309 56.626,57.225 30.848,-0.084 55.497,-24.555 55.756,-55.354" style="fill:#030201;fill-opacity:1;fill-rule:nonzero;stroke:none" transform="matrix(1.3333333,0,0,-1.3333333,1150.5752,1744.2524)" />
      <path id="path7" d="m 0,0 c -17.295,3.91 -31.594,-12.63 -49.115,-7.193 20.377,12.45 43.719,17.732 66.387,20.53 35.19,4.343 70.179,12.434 106.677,6.787 14.513,-2.246 30.367,1.72 45.014,-4.628 -24.74,-0.183 -49.514,0.342 -74.218,-0.732 C 62.702,13.372 30.964,9.119 0.048,0.043 Z" style="fill:#c82a30;fill-opacity:1;fill-rule:nonzero;stroke:none" transform="matrix(1.3333333,0,0,-1.3333333,1454.9557,769.93013)" />
      <path id="path8" d="M 0,0 C -18.7,8.951 -29.194,23.565 -30.653,44.415 -17.16,31.87 -5.513,18.052 0,0" style="fill:#c82a30;fill-opacity:1;fill-rule:nonzero;stroke:none" transform="matrix(1.3333333,0,0,-1.3333333,2053.2196,978.51733)" />
      <path id="path9" d="M 0,0 C -27.34,0.286 -27.509,0.463 -22.095,23.027 -12.118,17.858 -4.983,9.962 0,0" style="fill:#c82a30;fill-opacity:1;fill-rule:nonzero;stroke:none" transform="matrix(1.3333333,0,0,-1.3333333,2012.2952,919.21827)" />
      <path id="path10" d="m 0,0 c 6.185,-0.979 9.154,-5.398 6.223,-10.278 -4.661,-7.761 -11.979,-4.709 -19.182,-2.778 1.528,8.134 14.253,3.451 12.911,13.013 C -0.048,-0.043 0,0 0,0" style="fill:#c82a30;fill-opacity:1;fill-rule:nonzero;stroke:none" transform="matrix(1.3333333,0,0,-1.3333333,1455.0197,769.87253)" />
      <path id="path11" d="m 0,0 c -9.239,1.918 -15.314,6.392 -15.084,16.096 0.221,9.341 5.519,15.573 14.679,15.47 C 9.347,31.456 15.892,25.423 15.292,15.039 14.758,5.805 8.362,1.298 0,0" style="fill:#fefeff;fill-opacity:1;fill-rule:nonzero;stroke:none" transform="matrix(1.3333333,0,0,-1.3333333,1150.5752,1744.2524)" />
      <path id="path26" d="m 0,0 h -335.616 l 1.304,-191.652 z" style="fill:#cfb825;fill-opacity:1;fill-rule:nonzero;stroke:none" transform="matrix(1.3333333,0,0,-1.3333333,1795.0359,1919.4559)" />
    </g></svg>