<?xml version='1.0' encoding='utf-8'?>
<svg xmlns="http://www.w3.org/2000/svg" version="1.1" width="378.860" height="403.174" viewBox="1428.460 1587.690 378.860 403.174"><defs id="defs1"><clipPath clipPathUnits="userSpaceOnUse" id="clipPath4">
      <path d="M -1894.0401,2218.9927 H 489.89999 V -1151.3974 H -1894.0401 Z" id="path4" />
    </clipPath>
  </defs><g id="object"><path id="path5" d="M 0,0 C 5.014,-0.004 10.028,-0.009 15.042,-0.013 V 34.186 C 10.028,33.841 0.714,33.869 0.647,33.096 -0.303,22.128 0,11.051 0,0 M 37.77,-54.976 C 18.501,-32.118 -0.768,-9.26 -21.217,14.998 -30.865,-8.535 -9.846,-34.599 37.77,-54.976 m 102.817,-134.915 c -34.785,29.508 -70.284,58.225 -104.128,88.776 -26.889,24.273 -30.352,24.73 -57.225,0.139 -32.968,-30.166 -66.903,-59.276 -102.469,-90.65 -9.746,43.081 -1.551,73.487 34.943,95.186 16.838,10.011 29.651,26.69 44.63,39.961 9.978,8.841 8.548,15.655 -0.519,24.826 -43.164,43.659 -39.445,86.515 10.092,121.077 11.638,8.12 23.729,17.408 38.258,4.519 1.729,-1.533 4.583,-2.744 6.815,-2.597 9.396,0.622 22.097,6.153 27.5,1.988 C 54.776,80.776 71.158,66.407 82.114,49.292 99.67,21.865 88.643,-2.413 67.13,-24.469 43.24,-48.963 43.874,-50.018 70.821,-72.507 c 15.86,-13.237 31.381,-27.407 48.997,-37.896 31.155,-18.551 23.738,-48.062 27.273,-74.729 -2.168,-1.587 -4.336,-3.173 -6.504,-4.759" style="fill:#e60013;fill-opacity:1;fill-rule:nonzero;stroke:none" transform="matrix(1.3333333,0,0,-1.3333333,1604.4888,1728.1173)" />
      <path id="path6" d="M 0,0 C 5.014,-0.004 10.028,-0.009 15.042,-0.013 V 34.186 C 10.028,33.841 0.714,33.869 0.647,33.096 -0.303,22.128 0,11.051 0,0 Z M 37.77,-54.976 C 18.501,-32.118 -0.768,-9.26 -21.217,14.998 -30.865,-8.535 -9.846,-34.599 37.77,-54.976 Z m 102.817,-134.915 c -34.785,29.508 -70.284,58.225 -104.128,88.776 -26.889,24.273 -30.352,24.73 -57.225,0.139 -32.968,-30.166 -66.903,-59.276 -102.469,-90.65 -9.746,43.081 -1.551,73.487 34.943,95.186 16.838,10.011 29.651,26.69 44.63,39.961 9.978,8.841 8.548,15.655 -0.519,24.826 -43.164,43.659 -39.445,86.515 10.092,121.077 11.638,8.12 23.729,17.408 38.258,4.519 1.729,-1.533 4.583,-2.744 6.815,-2.597 9.396,0.622 22.097,6.153 27.5,1.988 C 54.776,80.776 71.158,66.407 82.114,49.292 99.67,21.865 88.643,-2.413 67.13,-24.469 43.24,-48.963 43.874,-50.018 70.821,-72.507 c 15.86,-13.237 31.381,-27.407 48.997,-37.896 31.155,-18.551 23.738,-48.062 27.273,-74.729 -2.168,-1.587 -4.336,-3.173 -6.504,-4.759 z" style="fill:none;stroke:#e60013;stroke-width:1;stroke-linecap:butt;stroke-linejoin:miter;stroke-miterlimit:10;stroke-dasharray:none;stroke-opacity:1" transform="matrix(1.3333333,0,0,-1.3333333,1604.4888,1728.1173)" />
      </g></svg>