<?xml version='1.0' encoding='utf-8'?>
<svg xmlns="http://www.w3.org/2000/svg" version="1.1" width="47.951" height="102.772" viewBox="1729.220 4181.450 47.951 102.772"><g id="object"><path id="path125" d="m 0,0 c 0,8.749 0.331,17.515 -0.122,26.24 -0.28,5.373 1.682,7.391 6.804,7.222 4.969,-0.164 9.946,-0.104 14.919,-0.148 3.448,-0.031 5.403,-1.654 5.175,-5.224 -0.223,-3.485 -0.831,-6.885 -5.576,-6.436 -3.902,0.37 -8.79,0.932 -8.41,-4.412 0.322,-4.536 -1.787,-11.938 7.02,-12.105 4.157,-0.078 4.96,-2.688 4.971,-6.2 0.012,-3.796 -2.097,-4.855 -5.408,-4.935 -5.748,-0.14 -6.744,-3.929 -6.686,-8.692 0.061,-5.126 2.773,-7.436 7.582,-7.21 4.688,0.222 6.691,-1.109 6.538,-6.36 -0.156,-5.373 -2.609,-6.417 -7.103,-6.127 -3.304,0.212 -6.696,0.509 -9.933,0.014 -7.146,-1.09 -9.893,1.582 -9.531,8.814 0.425,8.499 0.099,17.036 0.099,25.556 C 0.226,-0.002 0.113,-0.001 0,0" style="fill:#494f57;fill-opacity:1;fill-rule:nonzero;stroke:none" transform="matrix(1.3333333,0,0,-1.3333333,1735.422,4232.0807)" />
      </g></svg>