<?xml version='1.0' encoding='utf-8'?>
<svg xmlns="http://www.w3.org/2000/svg" version="1.1" width="147.201" height="136.627" viewBox="1239.710 4285.970 147.201 136.627"><g id="object"><path id="path345" d="m 0,0 c -0.637,0.853 -1.274,1.705 -1.911,2.558 1.218,2.1 2.654,3.846 5.347,4.097 5.857,0.545 11.696,1.306 17.56,1.735 4.007,0.294 7.462,0.618 10.068,4.672 2.029,3.156 4.698,3.121 6.771,0.182 C 40.403,9.602 43.476,8.589 47.659,8.193 61.823,6.852 75.904,7.544 89.993,9.008 92.315,9.249 94.67,9.555 96.977,9.382 97.896,9.314 99.21,8.159 99.45,7.259 99.669,6.44 98.948,4.9 98.169,4.369 95.145,2.308 91.537,2.158 88.016,1.766 77.042,0.547 66.042,0.903 55.043,1.156 52.687,1.21 50.335,1.41 47.979,1.507 37.181,1.953 36.409,1.295 35.739,-9.017 c -0.127,-1.957 -0.286,-3.933 -0.158,-5.882 0.807,-12.369 1.375,-11.572 12.256,-11.999 9.401,-0.369 18.774,-1.501 28.149,-2.398 1.087,-0.104 2.212,-0.721 3.128,-1.37 0.553,-0.393 1.03,-1.321 1.001,-1.985 -0.028,-0.656 -0.593,-1.52 -1.176,-1.871 -0.974,-0.585 -2.155,-1.179 -3.24,-1.163 -4.309,0.063 -8.619,0.303 -12.921,0.588 -5.09,0.336 -10.169,1.075 -15.258,1.128 -9.882,0.101 -10.692,-0.772 -11.849,-10.262 -0.855,-7.009 -1.897,-13.998 -2.61,-21.021 -0.408,-4.011 -1.828,-7.613 -3.577,-11.128 -0.806,-1.619 -2.455,-1.896 -4.051,-1.476 -1.746,0.458 -2.501,1.97 -2.367,3.591 0.161,1.936 0.601,3.889 1.201,5.744 2.686,8.3 3.46,16.915 4.267,25.515 0.524,5.576 0.398,5.581 -5.815,8.104 -1.081,0.439 -2.343,0.741 -3.13,1.508 -0.749,0.728 -1.2,1.951 -1.358,3.019 -0.076,0.519 0.78,1.215 1.286,1.764 0.254,0.276 0.649,0.455 1.012,0.59 2.456,0.909 6.059,-0.139 7.135,3.029 0.849,2.501 0.717,5.389 0.732,8.106 0.023,4.32 -0.117,8.645 -0.33,12.961 -0.212,4.286 -1.384,5.481 -5.8,5.396 C 18.352,1.396 14.408,1.098 10.547,0.47 7.019,-0.104 3.54,-0.378 0,0" style="fill:#1e4a94;fill-opacity:1;fill-rule:nonzero;stroke:none" transform="matrix(1.3333333,0,0,-1.3333333,1248.2627,4312.5588)" />
      </g></svg>