<?xml version='1.0' encoding='utf-8'?>
<svg xmlns="http://www.w3.org/2000/svg" version="1.1" width="26.008" height="134.505" viewBox="2096.010 4209.350 26.008 134.505"><g id="object"><path id="path362" d="m 0,0 c -0.475,5.467 -0.931,10.935 -1.428,16.4 -0.859,9.441 -0.295,18.807 1.614,28.078 0.386,1.875 1.101,3.735 1.978,5.44 C 2.952,51.451 4.577,51.889 6.2,51.45 7.908,50.988 8.685,49.556 8.687,47.904 8.689,46.761 8.281,45.606 7.975,44.478 4.644,32.17 4.453,19.72 6.097,7.151 7.988,-7.307 5.96,-21.845 6.82,-36.33 c 0.044,-0.735 -0.151,-1.696 -0.616,-2.199 -0.723,-0.783 -1.778,-1.746 -2.684,-1.738 -0.951,0.009 -2.287,0.852 -2.766,1.713 -1.778,3.198 -1.544,6.798 -1.543,10.323 0.003,9.407 0.001,18.814 0.001,28.221 C -0.525,-0.007 -0.263,-0.003 0,0" style="fill:#1e4a94;fill-opacity:1;fill-rule:nonzero;stroke:none" transform="matrix(1.3333333,0,0,-1.3333333,2104.4375,4284.1687)" />
      </g></svg>