<?xml version='1.0' encoding='utf-8'?>
<svg xmlns="http://www.w3.org/2000/svg" version="1.1" width="130.546" height="104.482" viewBox="1955.020 4179.950 130.546 104.482"><g id="object"><path id="path85" d="m 0,0 c -1.565,6.08 -0.681,12.831 -3.108,19.152 -1.315,3.424 -3.57,5.641 -6.921,6.313 -3.542,0.711 -5.717,-2.097 -7.446,-4.532 -4.456,-6.274 -3.549,-30.123 1.127,-36.257 0.427,-0.56 0.846,-1.139 1.347,-1.631 4.42,-4.344 8.237,-3.694 11.285,1.623 C -1.028,-10.644 -0.802,-5.459 0,0 m -32.831,5.633 c -1.153,7.424 1.528,14.101 5.046,21.095 3.879,7.713 9.979,10.892 17.443,10.873 8.217,-0.02 15.394,-4.305 18.683,-11.978 6.36,-14.836 7.521,-30.289 0.582,-45.285 -3.732,-8.066 -10.905,-12.137 -20.021,-12.098 -8.306,0.036 -13.569,4.413 -16.862,11.768 -3.599,8.038 -6.549,16.16 -4.871,25.625" style="fill:#494f57;fill-opacity:1;fill-rule:nonzero;stroke:none" transform="matrix(1.3333333,0,0,-1.3333333,2061.3791,4236.0836)" />
      <path id="path140" d="m 0,0 c 0.273,5.353 -0.755,10.211 -5.888,10.24 -6.098,0.036 -4.145,-6.193 -5.007,-9.819 -0.869,-3.657 0.147,-7.735 4.575,-8.027 C -0.934,-7.96 -0.505,-3.272 0,0 m -22.612,-21.684 c -0.502,12.891 -0.859,24.665 -0.259,36.454 0.109,2.135 -0.404,5.152 2.194,5.228 9.022,0.266 18.305,2.884 26.81,-2.927 7.825,-5.348 7.401,-13.378 6.842,-21.018 -0.468,-6.403 -5.509,-9.734 -11.148,-12.492 -3.55,-1.736 -9.328,0.315 -10.597,-4.175 -1.563,-5.531 -3.004,-11.367 -1.901,-17.422 1.316,-7.221 -0.227,-8.683 -7.003,-8.264 -3.56,0.221 -5.239,1.581 -4.939,5.215 0.566,6.836 -1.286,13.682 0.001,19.401" style="fill:#494f57;fill-opacity:1;fill-rule:nonzero;stroke:none" transform="matrix(1.3333333,0,0,-1.3333333,1991.9299,4215.3723)" />
      </g></svg>