<?xml version='1.0' encoding='utf-8'?>
<svg xmlns="http://www.w3.org/2000/svg" version="1.1" width="452.199" height="310.585" viewBox="2507.080 2218.180 452.199 310.585"><defs id="defs1"><clipPath clipPathUnits="userSpaceOnUse" id="clipPath7">
      <path d="M 0,3370.3901 H 2383.9401 V -2.5000001e-5 H 0 Z" id="path7" />
    </clipPath>
  </defs><g id="object"><path id="path5" d="M 7.6796115,-5.1945352e-4 13.474288,-16.167466 l -2.243444,-0.0084 -2.7385025,7.9969295 C 7.7827006,-6.0665164 7.1036309,-4.0265411 6.6479236,-2.165332 l -0.046778,0.00301 C 6.162799,-4.0482352 5.5656541,-6.0296207 4.8738614,-8.2045496 l -2.5085338,-7.9647994 -2.26608116,0.0048 5.27844806,16.15939152 z M 19.26933,-11.878201 c -3.217856,-0.0044 -5.748092,2.2837729 -5.756428,6.1712285 7.63e-4,3.6637543 2.427455,5.9737108 5.574391,5.97095597 2.807041,0.007361 5.78611,-1.87521407 5.779817,-6.17273247 0.0068,-3.5468083 -2.262979,-5.972546 -5.59778,-5.969452 z m -0.05125,1.576853 c 2.489783,0.0043 3.483305,2.4886057 3.481017,4.46157 0.0047,2.6301177 -1.518177,4.5129895 -3.526225,4.5129581 -2.066521,0.00373 -3.527562,-1.8986118 -3.527795,-4.4585619 -0.0011,-2.2076082 1.072278,-4.5077992 3.573003,-4.5159662 z M 29.25151,7.5765943e-4 29.351115,-1.9197505 l 0.07017,-0.00451 c 0.862434,1.54157779 2.21961,2.19410176 3.898705,2.19180274 2.58334,-0.001738 5.198034,-2.07225294 5.201518,-6.21774164 0.03165,-3.5249234 -2.025327,-5.9291146 -4.89084,-5.9327156 -1.878656,0.0034 -3.233872,0.842096 -3.972019,2.1460641 l -0.04678,0.00301 -2.3e-5,-7.3041191 -2.078216,0.0045 -9.71e-4,14.044642 c 0.007,1.0211899 -0.05892,2.18797954 -0.101331,2.98922849777 z M 29.616541,-6.7396909 c 0.0016,-0.3406473 0.06464,-0.6382768 0.120515,-0.8649866 0.425476,-1.6009197 1.770915,-2.5916555 3.215366,-2.5906065 2.255139,0.0076 3.450964,1.9857384 3.44785,4.3110446 0.0078,2.676896 -1.309931,4.4643679 -3.517539,4.4654276 -1.53876,-0.00673 -2.765718,-1.0081705 -3.176236,-2.4613822 -0.03918,-0.2440822 -0.09157,-0.5108015 -0.09642,-0.7688346 z m 13.679423,6.73849645 0.0046,-11.61408455 -2.101605,0.006 -0.0046,11.614084 z M 42.254305,-16.198202 c -0.774851,0.0029 -1.324984,0.578416 -1.32438,1.318184 -1.48e-4,0.728073 0.517687,1.293661 1.269149,1.292305 0.822382,0.0058 1.361572,-0.557284 1.337579,-1.295547 -6.04e-4,-0.739768 -0.506744,-1.306108 -1.282348,-1.314942 z M 46.810424,0.0047077 48.88864,2.2644558e-4 48.889899,-6.1883942 c 7.4e-5,-0.3640365 0.04843,-0.7076922 0.0896,-0.9804283 0.28514,-1.5918944 1.351827,-2.7173613 2.843057,-2.7193213 0.282174,0.00534 0.506627,0.026133 0.720891,0.071068 l 7.83e-4,-1.9963532 c -0.190874,-0.04644 -0.368549,-0.07024 -0.603193,-0.0669 -1.421062,-0.0026 -2.696334,0.983671 -3.230069,2.544581 l -0.09356,0.00602 -0.0648,-2.28571 -1.843572,0.0011 c 0.06919,1.075902 0.09838,2.2600644 0.103759,3.6219016 z m 7.944107,-8.115e-5 2.078216,-0.004481257 0.0013,-6.188620593 c 7.4e-5,-0.3640365 0.04843,-0.7076922 0.0896,-0.9804283 0.28514,-1.5918945 1.351827,-2.7173613 2.843056,-2.7193213 0.282175,0.00534 0.506628,0.026133 0.720891,0.071068 l 7.84e-4,-1.9963541 c -0.190874,-0.04644 -0.368549,-0.07024 -0.603193,-0.06689 -1.421062,-0.0026 -2.696334,0.98367 -3.230069,2.5445809 l -0.09356,0.00602 -0.0648,-2.2857099 -1.843572,0.0011 c 0.06919,1.075903 0.09838,2.2600652 0.103759,3.6219024 z m 17.563165,-11.61598155 -2.114052,-0.005 4.36e-4,7.1279482 c -0.01026,0.3881778 -0.079,0.7801161 -0.200534,1.081506 -0.374788,0.9283112 -1.356191,1.9191208 -2.777253,1.9165682 -1.926186,-0.0053 -2.596242,-1.4770453 -2.597302,-3.6846535 l 0.0089,-6.4357109 -2.114051,-0.005 -0.0097,6.7880527 c 0.0044,4.08626374 2.194877,5.09620345 4.01506,5.09657382 2.078215,-0.004481 3.27922,-1.23253006 3.829427,-2.17212272 l 0.04678,-0.00301 0.122592,1.90621822955 1.878656,-0.0033901395 c -0.07036,-0.91142596 -0.09127,-1.96694749 -0.09706,-3.15261379 z m 3.506534,11.61432718 2.101604,-0.00598546 -0.0031,-6.98686112 c 7.4e-5,-0.3640365 0.04768,-0.7193869 0.148078,-0.9841888 0.359747,-1.162203 1.435458,-2.1473348 2.832379,-2.1549728 1.984659,0.0015 2.684121,1.5653375 2.686759,3.4322984 l -0.004,6.69374429 2.114052,0.00495704 -9.7e-5,-6.94008283 c 0.0023,-3.9810119 -2.502358,-4.9472559 -4.099591,-4.9502219 -1.925434,0.0064 -3.265608,1.078996 -3.851312,2.1970162 l -0.04678,0.00301 -0.112402,-1.9303592 -1.866961,0.0026 c 0.06167,0.958956 0.102211,1.9545005 0.09706,3.1526134 z M 94.054314,-11.879017 c -3.217855,-0.0044 -5.748092,2.283773 -5.756428,6.1712287 7.64e-4,3.6637542 2.427455,5.97371078 5.574391,5.97095595 2.807041,0.007361 5.786111,-1.87521405 5.779817,-6.17273245 0.0068,-3.5468083 -2.262978,-5.9725452 -5.59778,-5.9694522 z m -0.05125,1.576853 c 2.489783,0.0043 3.483304,2.4886059 3.481017,4.4615702 0.0047,2.6301177 -1.518178,4.5129895 -3.526226,4.5129581 -2.066521,0.00373 -3.527561,-1.8986118 -3.527795,-4.4585619 -0.0011,-2.2076082 1.072279,-4.5077984 3.573004,-4.5159664 z m -20.121943,43.862306 2.078216,-0.0045 0.0047,-6.318013 0.04678,-0.003 c 0.684833,1.153739 2.043514,1.829653 3.582274,1.836379 2.724426,9.31e-4 5.268201,-2.076766 5.270181,-6.245644 -0.0034,-3.522667 -2.118131,-5.911403 -4.912725,-5.907822 -1.902797,-0.0068 -3.280651,0.845104 -4.140669,2.262597 l -0.04678,0.003 -0.09353,-2.002032 -1.89035,0.0041 c 0.04731,1.100796 0.101386,2.306843 0.102594,3.786378 z m 2.080173,-11.477478 c -0.0071,-0.293117 0.06614,-0.614888 0.143905,-0.866491 0.40359,-1.576026 1.746021,-2.61354 3.190472,-2.612492 2.23175,0.0091 3.450964,1.985739 3.44785,4.311045 0.0078,2.676896 -1.285037,4.486253 -3.516035,4.488817 -1.514618,0.0035 -2.789107,-1.006666 -3.176236,-2.461382 -0.04069,-0.267472 -0.09457,-0.55758 -0.09074,-0.863144 z m 20.903544,1.294885 c 0.02155,-0.212759 0.0699,-0.556414 0.06546,-0.990618 0.0042,-2.125747 -1.009137,-5.466035 -4.790589,-5.469445 -3.394026,-0.0048 -5.446776,2.769342 -5.444847,6.268619 0.0019,3.499278 2.126065,5.852179 5.707205,5.844985 1.843572,-0.0011 3.111174,-0.376229 3.864214,-0.718233 l -0.3675,-1.514693 c -0.788124,0.34426 -1.687517,0.601732 -3.202136,0.605196 -2.114051,-0.005 -3.950971,-1.178547 -3.993396,-4.029358 z m -8.14166,-1.51967 c 0.16402,-1.466675 1.106388,-3.42964 3.243828,-3.426187 2.372085,1.05e-4 2.940163,2.077304 2.921403,3.428951 z m 10.83933,6.94757 2.078222,-0.0045 10e-4,-6.188621 c 8e-5,-0.364036 0.0484,-0.707692 0.0896,-0.980428 0.28514,-1.591895 1.35183,-2.717362 2.84306,-2.719322 0.28217,0.0053 0.50662,0.02613 0.72089,0.07107 l 7.8e-4,-1.996353 c -0.19087,-0.04644 -0.36855,-0.07024 -0.60319,-0.06689 -1.42106,-0.0026 -2.69634,0.983671 -3.23007,2.544581 l -0.0936,0.006 -0.0648,-2.28571 -1.843569,0.0011 c 0.06919,1.075902 0.09838,2.260064 0.103758,3.621901 z m -117.014274,23.713069 1.735779,5.078757 2.219303,-0.0018 -5.513844,-16.167738 -2.513172,-0.0028 -5.500808,16.171533 2.172525,0.0012 1.66919,-5.086364 z m -5.295362,-1.632263 1.577064,-4.692921 c 0.324249,-0.983775 0.578331,-1.963039 0.822222,-2.91816 l 0.04678,-0.003 c 0.235587,0.924286 0.485877,1.894598 0.83574,2.95245 l 1.579311,4.65433 z m 29.0314266,-1.781927 -5.31946036,0.0016 -0.0101477,1.668153 3.28802316,-8.5e-5 0.00505,4.826031 c -0.477635,0.242091 -1.4166237,0.431652 -2.7784609,0.437033 -3.7697577,-0.0042 -6.2499966,-2.416362 -6.2559507,-6.526014 -0.00219,-4.05118 2.5767385,-6.49517 6.5102205,-6.501537 1.6323169,7.09e-4 2.7205919,0.306495 3.5787355,0.685795 l 0.5020726,-1.688046 c -0.691411,-0.343052 -2.1504913,-0.754163 -4.0291468,-0.750773 -5.4254638,-0.0034 -8.7334433,3.520889 -8.7517786,8.348425 -0.00202,2.524866 0.8527422,4.677571 2.2425979,6.020828 1.5890029,1.518337 3.6018285,2.140438 6.0440806,2.136031 2.1959136,-3.08e-4 4.0392204,-0.553344 4.9691839,-0.88324 z m 8.2907594,8.494206 2.078216,-0.0045 -0.0015,-7.327508 6.118453,0.0058 0.0071,-1.714932 -6.118453,-0.0058 -0.0053,-5.377933 6.623577,0.0085 0.0049,-1.750015 -8.701792,-0.004 z m 10.994751,0.0063 2.078215,-0.0045 0.0013,-6.188621 c 7.5e-5,-0.364036 0.04843,-0.707692 0.08961,-0.980428 0.28514,-1.591895 1.351826,-2.717362 2.843056,-2.719322 0.282174,0.0053 0.506628,0.02613 0.720891,0.07107 l 7.83e-4,-1.996353 c -0.190874,-0.04644 -0.368549,-0.07024 -0.603193,-0.06689 -1.421062,-0.0026 -2.696333,0.98367 -3.230068,2.54458 l -0.09356,0.006 -0.0648,-2.28571 -1.843572,0.0011 c 0.06919,1.075902 0.09838,2.260064 0.103758,3.621901 z M 38.083862,45.720543 c -3.217855,-0.0044 -5.748092,2.283773 -5.756428,6.171229 7.64e-4,3.663754 2.427455,5.97371 5.574391,5.970956 2.807041,0.0074 5.786111,-1.875214 5.779817,-6.172733 0.0068,-3.546808 -2.262978,-5.972545 -5.59778,-5.969452 z m -0.05125,1.576853 c 2.489783,0.0043 3.483304,2.488606 3.481017,4.46157 0.0047,2.630118 -1.518178,4.51299 -3.526226,4.512958 -2.066521,0.0037 -3.527561,-1.898612 -3.527795,-4.458562 -0.0011,-2.207608 1.072279,-4.507798 3.573004,-4.515966 z m 8.322173,10.306473 2.101605,-0.006 -0.0031,-6.986862 c 7.4e-5,-0.364036 0.04768,-0.719386 0.148078,-0.984188 0.359746,-1.162203 1.435458,-2.147335 2.832379,-2.154973 1.984658,0.0015 2.68412,1.565337 2.686758,3.432298 l -0.004,6.693745 2.114051,0.005 -9.7e-5,-6.940083 c 0.0023,-3.981013 -2.502357,-4.947256 -4.09959,-4.950222 -1.925434,0.0064 -3.265609,1.078996 -3.851312,2.197016 l -0.04678,0.003 -0.112402,-1.930359 -1.866961,0.0026 c 0.06167,0.958956 0.102212,1.954501 0.09706,3.152614 z m 13.693722,-14.402686 0.0028,2.7829 -1.796794,-0.0019 -0.0022,1.608928 1.796793,0.0019 -0.0032,6.341402 c 0.0046,1.350143 0.223596,2.381184 0.816863,3.024121 0.494446,0.567093 1.301299,0.879234 2.287405,0.874531 0.810687,0.0066 1.46032,-0.117402 1.860605,-0.284061 l -0.08984,-1.579521 c -0.254272,0.06332 -0.672269,0.137178 -1.224171,0.137443 -1.185666,0.0058 -1.578961,-0.814405 -1.588103,-2.234715 l 0.0077,-6.271235 3.029238,-0.0069 0.0022,-1.608928 -3.029238,0.0069 -0.0031,-3.334801 z m 12.236867,2.521604 c -3.217856,-0.0044 -5.748092,2.283773 -5.756428,6.171228 7.63e-4,3.663755 2.427455,5.973711 5.574391,5.970956 2.807041,0.0074 5.78611,-1.875214 5.779817,-6.172732 0.0068,-3.546809 -2.262979,-5.972546 -5.59778,-5.969452 z m -0.05125,1.576852 c 2.489782,0.0043 3.483304,2.488607 3.481016,4.461571 0.0047,2.630117 -1.518177,4.512989 -3.526225,4.512958 -2.066521,0.0037 -3.527562,-1.898612 -3.527795,-4.458562 -0.0011,-2.207608 1.072278,-4.507799 3.573004,-4.515967 z m 8.319061,10.303738 2.101605,-0.006 -0.0031,-6.986861 c 7.4e-5,-0.364037 0.04768,-0.719387 0.148078,-0.984189 0.359746,-1.162203 1.435458,-2.147335 2.832379,-2.154973 1.984658,0.0015 2.68412,1.565337 2.686758,3.432298 l -0.004,6.693745 2.114051,0.005 -9.7e-5,-6.940083 c 0.0023,-3.981012 -2.502357,-4.947256 -4.09959,-4.950222 -1.925434,0.0064 -3.265609,1.078996 -3.851312,2.197016 l -0.04678,0.003 -0.112402,-1.93036 -1.866961,0.0026 c 0.06167,0.958956 0.102212,1.954501 0.09706,3.152614 z m 21.218595,-17.041457 10e-5,6.940083 -0.0468,0.003 c -0.53021,-0.940567 -1.71231,-1.792238 -3.496656,-1.78317 -2.83043,-0.0059 -5.225257,2.379321 -5.200013,6.241131 0.0034,3.522667 2.153215,5.909147 4.971198,5.904062 1.902797,0.0068 3.295021,-0.986944 3.951301,-2.285647 l 0.0468,-0.003 0.095,2.025421 1.90204,-0.0049 c -0.0745,-0.793728 -0.0913,-1.966948 -0.0982,-2.988138 l 9.7e-4,-14.044642 z m 0.007,12.165235 c -0.002,0.340647 -0.0296,0.63602 -0.0941,0.91026 -0.3919,1.575275 -1.67018,2.514719 -3.091246,2.512167 -2.28947,0.0063 -3.435509,-1.928018 -3.445594,-4.275962 0.01,-2.584091 1.308427,-4.487757 3.492646,-4.487312 1.584794,-0.008 2.736654,1.103983 3.044594,2.422877 0.0648,0.277662 0.0881,0.640194 0.093,0.898227 z m -322.54399,38.434156 2.07822,-0.0045 0.005,-6.318013 0.0468,-0.003 c 0.68483,1.153739 2.04351,1.829652 3.58227,1.836378 2.72443,9.32e-4 5.2682,-2.076765 5.27018,-6.245643 -0.003,-3.522667 -2.11813,-5.911404 -4.91272,-5.907823 -1.9028,-0.0068 -3.28065,0.845105 -4.14067,2.262597 l -0.0468,0.003 -0.0935,-2.002031 -1.89035,0.0041 c 0.0473,1.100796 0.10138,2.306843 0.10259,3.786378 z m 2.08018,-11.477479 c -0.007,-0.293117 0.0661,-0.614887 0.1439,-0.866491 0.40359,-1.576026 1.74602,-2.61354 3.19047,-2.612491 2.23175,0.0091 3.45097,1.985738 3.44785,4.311045 0.008,2.676896 -1.28503,4.486252 -3.51603,4.488816 -1.51462,0.0035 -2.78911,-1.006666 -3.17624,-2.461382 -0.0407,-0.267471 -0.0946,-0.55758 -0.0907,-0.863143 z m 11.57339,6.721281 2.07821,-0.0045 0.001,-6.188621 c 8e-5,-0.364036 0.0484,-0.707692 0.0896,-0.980428 0.28514,-1.591895 1.35182,-2.717362 2.84305,-2.719322 0.28218,0.0053 0.50663,0.02613 0.7209,0.07107 l 7.8e-4,-1.996353 c -0.19088,-0.04644 -0.36855,-0.07024 -0.60319,-0.06689 -1.42107,-0.0026 -2.69634,0.98367 -3.23007,2.54458 l -0.0936,0.006 -0.0648,-2.28571 -1.84357,0.0011 c 0.0692,1.075902 0.0984,2.260064 0.10376,3.621901 z m 12.51697,-11.884472 c -3.21785,-0.0044 -5.74809,2.283773 -5.75642,6.171229 7.6e-4,3.663754 2.42745,5.97371 5.57439,5.970956 2.80704,0.0074 5.78611,-1.875214 5.77981,-6.172733 0.007,-3.546808 -2.26298,-5.972545 -5.59778,-5.969452 z m -0.0513,1.576853 c 2.48979,0.0043 3.48331,2.488606 3.48102,4.46157 0.005,2.630118 -1.51818,4.51299 -3.52622,4.512958 -2.06652,0.0037 -3.52757,-1.898611 -3.5278,-4.458562 -10e-4,-2.207608 1.07228,-4.507798 3.573,-4.515966 z m 16.47302,-1.314819 -0.0984,1.756032 -0.0468,0.003 c -0.50832,-0.96546 -1.60965,-2.021956 -3.62939,-2.021235 -2.66595,-0.0047 -5.22259,2.238233 -5.22792,6.172467 0.007,3.205409 2.05481,5.657131 4.94371,5.659228 1.7968,0.0019 3.04451,-0.865146 3.69094,-1.951843 l 0.0475,0.0087 0.002,1.303364 c 1.6e-4,2.923987 -1.57165,4.04671 -3.73248,4.044762 -1.44445,-10e-4 -2.65794,-0.427954 -3.40516,-0.908332 l -0.53073,1.607688 c 0.92072,0.621879 2.46884,0.956806 3.86652,0.960863 1.45614,2.96e-4 3.07834,-0.33889 4.20802,-1.39795 1.13343,-1.000587 1.66265,-2.631664 1.65565,-5.296866 l 2.4e-4,-6.752217 c 0.003,-1.409368 0.0484,-2.351704 0.11194,-3.189541 z m -0.34615,6.668777 c -8e-5,0.364036 -0.0439,0.77786 -0.1617,1.137723 -0.45446,1.332696 -1.62257,2.159368 -2.92668,2.149294 -2.28947,0.0063 -3.4442,-1.880487 -3.43883,-4.170709 0.004,-2.677648 1.44459,-4.379085 3.46433,-4.379805 1.53801,-0.005 2.55447,1.010013 2.94919,2.217639 0.089,0.287852 0.10853,0.591911 0.12015,0.955196 z m 5.46491,4.953423 2.07822,-0.0045 10e-4,-6.188621 c 7e-5,-0.364036 0.0484,-0.707692 0.0896,-0.980428 0.28514,-1.591894 1.35183,-2.717361 2.84306,-2.719321 0.28217,0.0053 0.50662,0.02613 0.72089,0.07107 l 7.8e-4,-1.996354 c -0.19087,-0.04644 -0.36855,-0.07024 -0.60319,-0.06689 -1.42106,-0.0026 -2.69634,0.98367 -3.23007,2.54458 l -0.0936,0.006 -0.0648,-2.28571 -1.84358,0.0011 c 0.0692,1.075902 0.0984,2.260065 0.10376,3.621902 z m 16.06382,-0.0085 c -0.1447,-0.789215 -0.18524,-1.78476 -0.19145,-2.794255 l 0.003,-4.333354 c 0.003,-2.325306 -0.86895,-4.746987 -4.41576,-4.753744 -1.46784,4.55e-4 -2.85088,0.406461 -3.82052,1.032482 l 0.48938,1.401169 c 0.81117,-0.533629 1.93994,-0.876311 3.02036,-0.875337 2.38378,-6.46e-4 2.64862,1.743765 2.65107,2.694787 l -0.008,0.235396 c -4.48764,-0.02845 -6.9834,1.517725 -6.97831,4.335708 0.002,1.667401 1.20045,3.328255 3.54915,3.329864 1.6557,-7.95e-4 2.90642,-0.821037 3.55244,-1.731563 l 0.0702,-0.0045 0.16493,1.469006 z m -2.22416,-3.908281 c 0.003,0.22295 -0.0408,0.460602 -0.10916,0.676369 -0.3484,0.973586 -1.30866,1.927807 -2.82328,1.931271 -1.08042,-9.74e-4 -1.99094,-0.646994 -1.99633,-2.008831 -0.004,-2.254387 2.62312,-2.669948 4.92804,-2.618551 z m 5.45682,3.914692 2.05483,-0.003 -0.005,-7.010251 c 7e-5,-0.364036 0.0477,-0.719386 0.16846,-1.032471 0.34388,-1.043753 1.30907,-2.103978 2.62413,-2.106351 1.60893,0.0022 2.41105,1.336297 2.41218,3.179869 l 0.002,6.963472 2.06727,0.008 -0.003,-7.174726 c -0.001,-0.387426 0.079,-0.780117 0.17865,-1.056613 0.35632,-1.03281 1.29772,-1.91536 2.50677,-1.922659 1.69155,0.0086 2.50536,1.341975 2.50792,3.572972 l 1.7e-4,6.576046 2.06652,-0.0037 -0.006,-6.845774 c 0.011,-4.028542 -2.28467,-5.031713 -3.82268,-5.026745 -1.09286,-0.01192 -1.8723,0.284813 -2.55484,0.810169 -0.48105,0.371483 -0.94214,0.870855 -1.31159,1.516992 l -0.0468,0.003 c -0.49956,-1.377027 -1.70012,-2.333197 -3.27397,-2.337667 -1.92543,0.0064 -3.00983,1.039061 -3.66645,2.149899 l -0.0702,0.0045 -0.086,-1.885085 -1.84357,0.0011 c 0.0617,0.958956 0.10221,1.9545 0.0971,3.152613 z m 29.3432,-5.424681 c 0.0216,-0.212759 0.0699,-0.556415 0.0655,-0.990619 0.004,-2.125746 -1.00914,-5.466034 -4.79059,-5.469444 -3.39403,-0.0048 -5.44678,2.769341 -5.44485,6.268619 0.002,3.499278 2.12607,5.852178 5.70721,5.844985 1.84357,-0.0011 3.11117,-0.37623 3.86421,-0.718233 l -0.3675,-1.514693 c -0.78812,0.34426 -1.68751,0.601731 -3.20213,0.605196 -2.11406,-0.005 -3.95097,-1.178547 -3.9934,-4.029358 z m -8.14166,-1.51967 c 0.16403,-1.466676 1.10639,-3.42964 3.24383,-3.426188 2.37209,1.06e-4 2.94017,2.077304 2.92141,3.428951 z m 14.48706,-4.668886 4.3989,11.612717 2.01974,-7.21e-4 4.57262,-11.614286 -2.2193,0.0018 -2.24628,6.520889 c -0.3899,1.058456 -0.7266,2.031289 -0.98294,2.975468 l -0.0702,0.0045 c -0.24953,-0.958617 -0.56924,-1.912722 -0.94249,-2.96907 l -2.27569,-6.53539 z m 17.6529,-0.269247 c -3.21785,-0.0044 -5.74809,2.283773 -5.75642,6.171228 7.6e-4,3.663755 2.42745,5.973711 5.57439,5.970956 2.807034,0.0074 5.786104,-1.875214 5.779811,-6.172732 0.0068,-3.546808 -2.262979,-5.972546 -5.597781,-5.969452 z m -0.0512,1.576853 c 2.489775,0.0043 3.483297,2.488606 3.481009,4.46157 0.0047,2.630118 -1.518177,4.512989 -3.526219,4.512958 -2.06652,0.0037 -3.52756,-1.898612 -3.5278,-4.458562 -0.001,-2.207608 1.07228,-4.507799 3.57301,-4.515966 z m 16.221321,8.283622 c -0.593829,0.261307 -1.372515,0.56973 -2.58157,0.577029 -2.301917,-0.0046 -4.039528,-1.64257 -4.037093,-4.343607 -0.0029,-2.418863 1.444589,-4.379084 4.10979,-4.386087 1.163029,0.0074 1.931038,0.263329 2.443269,0.55919 l 0.48094,-1.651459 c -0.581647,-0.279653 -1.670674,-0.597133 -2.92726,-0.598521 -3.793147,-0.0027 -6.232909,2.596783 -6.23741,6.178675 0.0049,3.546057 2.270912,5.913321 5.782637,5.922335 1.573092,-0.0072 2.782221,-0.37856 3.327016,-0.671942 z m 12.031911,-3.404217 c 0.02155,-0.212759 0.0699,-0.556414 0.06546,-0.990618 0.0042,-2.125746 -1.009136,-5.466035 -4.790589,-5.469445 -3.394026,-0.0048 -5.446776,2.769342 -5.444847,6.26862 0.0019,3.499277 2.126065,5.852178 5.707205,5.844984 1.843572,-0.0011 3.111174,-0.376229 3.864215,-0.718233 l -0.367501,-1.514693 c -0.788124,0.34426 -1.687517,0.601732 -3.202136,0.605196 -2.114051,-0.005 -3.950971,-1.178547 -3.993396,-4.029358 z m -8.14166,-1.51967 c 0.164021,-1.466675 1.106388,-3.42964 3.243829,-3.426187 2.372084,1.05e-4 2.940162,2.077304 2.921402,3.428951 z m 23.823057,-10.095657 9.7e-5,6.940083 -0.04678,0.003 c -0.530208,-0.940567 -1.712305,-1.792238 -3.496651,-1.78317 -2.83043,-0.0059 -5.225257,2.379321 -5.200014,6.241131 0.0034,3.522667 2.153215,5.909147 4.971198,5.904062 1.902797,0.0068 3.295015,-0.986944 3.951299,-2.285647 l 0.04678,-0.003 0.09503,2.025421 1.902045,-0.0049 c -0.07453,-0.793728 -0.09127,-1.966947 -0.09823,-2.988137 l 9.71e-4,-14.044642 z m 0.0073,12.165235 c -0.0016,0.340647 -0.02955,0.63602 -0.09412,0.91026 -0.391895,1.575274 -1.670175,2.514719 -3.091237,2.512166 -2.289471,0.0063 -3.435509,-1.928017 -3.445594,-4.275961 0.01,-2.584091 1.308426,-4.487757 3.492645,-4.487312 1.584787,-0.008 2.736651,1.103983 3.044588,2.422877 0.06483,0.277661 0.08814,0.640194 0.093,0.898227 z m 10.538019,-7.004239 c -3.217855,-0.0044 -5.748092,2.283773 -5.756428,6.171228 7.64e-4,3.663755 2.427456,5.973711 5.574392,5.970956 2.80704,0.0074 5.78611,-1.875214 5.779817,-6.172732 0.0068,-3.546809 -2.262979,-5.972546 -5.597781,-5.969452 z m -0.05125,1.576852 c 2.489783,0.0043 3.483304,2.488607 3.481017,4.461571 0.0047,2.630117 -1.518178,4.512989 -3.526226,4.512958 -2.066521,0.0037 -3.527561,-1.898612 -3.527795,-4.458562 -0.0011,-2.207608 1.072279,-4.507799 3.573004,-4.515967 z m 8.319062,10.303738 2.101604,-0.006 -0.0037,-17.038796 -2.101605,0.006 z m 9.31387,-11.613888 4.398895,11.612717 2.019743,-7.2e-4 4.572625,-11.614287 -2.219303,0.0018 -2.246282,6.520889 c -0.389904,1.058456 -0.7266,2.031289 -0.982938,2.975469 l -0.07017,0.0045 c -0.249538,-0.958617 -0.569243,-1.912722 -0.942496,-2.96907 l -2.27569,-6.53539 z M -7.182076,86.397035 C -7.3267756,85.60782 -7.3673149,84.612276 -7.3735226,83.60278 l 0.00315,-4.333354 c 0.00311,-2.325306 -0.8689494,-4.746987 -4.4157574,-4.753744 -1.467841,4.56e-4 -2.850885,0.406462 -3.820519,1.032483 l 0.489372,1.401168 c 0.811175,-0.533629 1.939946,-0.876311 3.020361,-0.875336 2.3837793,-6.47e-4 2.648624,1.743764 2.6510712,2.694787 l -0.00835,0.235396 c -4.4876402,-0.02845 -6.9833972,1.517724 -6.9783122,4.335707 0.0015,1.667401 1.200455,3.328255 3.549151,3.329864 1.655706,-7.94e-4 2.906423,-0.821037 3.552443,-1.731562 l 0.070167,-0.0045 0.1649322,1.469006 z m -2.2241658,-3.908281 c 0.0026,0.22295 -0.040836,0.460602 -0.10916,0.676369 -0.3483906,0.973586 -1.3086602,1.927807 -2.8232792,1.931272 -1.080415,-9.75e-4 -1.990941,-0.646995 -1.996322,-2.008832 -0.0041,-2.254387 2.623115,-2.669948 4.9280404,-2.618551 z m 5.4568276,3.914692 2.0782156,-0.0045 0.00126,-6.188621 c 7.4e-5,-0.364036 0.048431,-0.707692 0.089605,-0.980428 0.2851401,-1.591895 1.35182632,-2.717361 2.8430561,-2.719321 0.2821744,0.0053 0.5066279,0.02613 0.720891,0.07107 l 7.835e-4,-1.996353 c -0.190874,-0.04644 -0.3685491,-0.07024 -0.603193,-0.06689 -1.42106228,-0.0026 -2.6963339,0.98367 -3.2300687,2.54458 l -0.093557,0.006 -0.064797,-2.28571 -1.8435717,0.0011 c 0.069193,1.075902 0.098377,2.260064 0.1037585,3.621901 z m 9.658286,-0.0046 0.099605,-1.920509 0.070168,-0.0045 c 0.862434,1.541578 2.2196104,2.194102 3.8987058,2.191802 2.5833394,-0.0017 5.1980334,-2.072252 5.2015174,-6.217741 0.03165,-3.524924 -2.025326,-5.929115 -4.89084,-5.932716 -1.8786556,0.0034 -3.233872,0.842096 -3.9720186,2.146064 l -0.046778,0.003 -2.27e-5,-7.30412 -2.0782156,0.0045 -9.716e-4,14.044642 c 0.00696,1.02119 -0.058917,2.187979 -0.1013313,2.989228 z m 0.3650308,-6.740449 c 0.00158,-0.340647 0.064638,-0.638277 0.1205155,-0.864987 0.4254751,-1.600919 1.7709143,-2.591655 3.2153657,-2.590606 2.2551382,0.0076 3.4509642,1.985738 3.4478502,4.311044 0.0078,2.676896 -1.309931,4.464368 -3.5175392,4.465428 C 7.8013346,84.972514 6.5743769,83.97107 6.1638583,82.517858 6.124675,82.273776 6.0722929,82.007056 6.0674413,81.749023 Z M 22.556466,74.520595 c -3.217856,-0.0044 -5.748092,2.283772 -5.756428,6.171228 7.63e-4,3.663754 2.427455,5.973711 5.574391,5.970956 2.807041,0.0074 5.78611,-1.875214 5.779817,-6.172732 0.0068,-3.546809 -2.262979,-5.972546 -5.59778,-5.969452 z m -0.05125,1.576852 c 2.489783,0.0043 3.483305,2.488606 3.481017,4.461571 0.0047,2.630117 -1.518177,4.512989 -3.526225,4.512958 -2.066521,0.0037 -3.527562,-1.898612 -3.527795,-4.458562 -0.0011,-2.207608 1.072278,-4.507799 3.573003,-4.515967 z m 21.74673,10.297416 c -0.1447,-0.789215 -0.185239,-1.784759 -0.191447,-2.794255 l 0.0031,-4.333354 c 0.0031,-2.325306 -0.868949,-4.746987 -4.415758,-4.753744 -1.46784,4.56e-4 -2.850884,0.406462 -3.820518,1.032483 l 0.489372,1.401168 c 0.811174,-0.533629 1.939946,-0.876311 3.020361,-0.875336 2.383779,-6.47e-4 2.648624,1.743764 2.651071,2.694787 l -0.0083,0.235396 c -4.48764,-0.02845 -6.983397,1.517724 -6.978312,4.335707 0.0015,1.667401 1.200455,3.328255 3.54915,3.329864 1.655706,-7.94e-4 2.906424,-0.821037 3.552444,-1.731562 l 0.07017,-0.0045 0.164932,1.469006 z M 42.02778,82.486582 c 0.0026,0.22295 -0.04084,0.460602 -0.10916,0.676369 -0.348391,0.973586 -1.308661,1.927807 -2.82328,1.931272 -1.080414,-9.75e-4 -1.99094,-0.646995 -1.996322,-2.008832 -0.0041,-2.254387 2.623116,-2.669948 4.928041,-2.618551 z m 5.454092,3.917804 2.054826,-0.003 -0.0046,-7.010251 c 7.4e-5,-0.364036 0.04768,-0.719387 0.168459,-1.032471 0.343878,-1.043753 1.309073,-2.103978 2.624132,-2.106351 1.608928,0.0022 2.411046,1.336297 2.41218,3.179869 l 0.0016,6.963472 2.067273,0.008 -0.0034,-7.174727 c -0.0014,-0.387425 0.079,-0.780116 0.17865,-1.056612 0.356325,-1.032811 1.297718,-1.91536 2.506773,-1.922659 1.691542,0.0086 2.505355,1.341975 2.507919,3.572972 l 1.71e-4,6.576046 2.066521,-0.0037 -0.0058,-6.845774 c 0.011,-4.028543 -2.284673,-5.031713 -3.822681,-5.026745 -1.092862,-0.01192 -1.8723,0.284812 -2.554834,0.810169 -0.481056,0.371483 -0.942145,0.870855 -1.311594,1.516992 l -0.04678,0.003 c -0.499562,-1.377027 -1.700122,-2.333197 -3.273966,-2.337667 -1.925434,0.0064 -3.009832,1.039061 -3.666455,2.149898 l -0.07017,0.0045 -0.086,-1.885085 -1.843572,0.0011 c 0.06167,0.958956 0.102212,1.9545 0.09706,3.152613 z M 72.405326,74.520552 c -3.217856,-0.0044 -5.748092,2.283773 -5.756428,6.171229 7.63e-4,3.663754 2.427455,5.97371 5.574391,5.970956 2.807041,0.0074 5.78611,-1.875214 5.779817,-6.172733 0.0068,-3.546808 -2.262979,-5.972546 -5.59778,-5.969452 z m -0.05125,1.576853 c 2.489783,0.0043 3.483305,2.488606 3.481017,4.46157 0.0047,2.630118 -1.518177,4.51299 -3.526225,4.512958 -2.066521,0.0037 -3.527562,-1.898612 -3.527795,-4.458562 -0.0011,-2.207608 1.072278,-4.507799 3.573003,-4.515966 z m 8.31925,10.306661 2.101605,-0.006 -0.0031,-6.986862 c 7.4e-5,-0.364036 0.04768,-0.719386 0.148078,-0.984188 0.359746,-1.162203 1.435457,-2.147335 2.832378,-2.154973 1.984659,0.0015 2.684121,1.565337 2.686759,3.432298 l -0.004,6.693745 2.114051,0.005 -9.7e-5,-6.940083 c 0.0023,-3.981013 -2.502357,-4.947256 -4.09959,-4.950222 -1.925434,0.0064 -3.265609,1.078996 -3.851313,2.197016 l -0.04678,0.003 -0.112402,-1.930359 -1.866961,0.0026 c 0.06167,0.958956 0.102212,1.954501 0.09706,3.152614 z m 21.473254,-11.620845 -0.0984,1.756032 -0.0468,0.003 c -0.50833,-0.965461 -1.60965,-2.021957 -3.629396,-2.021236 -2.665953,-0.0047 -5.222587,2.238234 -5.227915,6.172468 0.0065,3.205408 2.054807,5.65713 4.943709,5.659227 1.796794,0.0019 3.044502,-0.865146 3.690932,-1.951843 l 0.0475,0.0087 0.002,1.303365 c 1.6e-4,2.923986 -1.57165,4.04671 -3.732485,4.044761 -1.444451,-0.001 -2.657945,-0.427954 -3.40516,-0.908332 l -0.530726,1.607689 c 0.920716,0.621878 2.46884,0.956805 3.866513,0.960862 1.456146,2.96e-4 3.078348,-0.33889 4.208018,-1.39795 1.13343,-1.000586 1.66266,-2.631664 1.65565,-5.296866 l 2.5e-4,-6.752217 c 0.003,-1.409367 0.0484,-2.351704 0.11193,-3.189541 z m -0.34615,6.668777 c -7e-5,0.364037 -0.0439,0.77786 -0.16169,1.137723 -0.45447,1.332696 -1.62257,2.159368 -2.926688,2.149295 -2.289471,0.0063 -3.444195,-1.880488 -3.438825,-4.17071 0.0039,-2.677648 1.444588,-4.379084 3.464331,-4.379805 1.538012,-0.005 2.554462,1.010014 2.949192,2.217639 0.089,0.287852 0.10852,0.591912 0.12014,0.955196 z m -138.189945,33.752962 -0.0025,-4.23905 2.195914,-3e-4 -0.0015,-1.6674 -2.195913,3e-4 -6.7e-4,-9.687895 -2.266833,-0.0069 -6.957199,9.959225 -0.0041,1.39767 7.245647,0.004 0.0025,4.23904 z m -7.096944,-5.90827 0.0087,-0.0475 3.81573,-5.30661 c 0.42341,-0.72006 0.803049,-1.39034 1.284593,-2.30203 l 0.07017,-0.005 c -0.04091,0.82464 -0.07088,1.63683 -0.06501,2.45846 l -0.006,5.20252 z m 20.853188,5.89843 0.0041,-1.76171 -7.01025,0.005 -0.003,-0.0468 1.2538,-1.1375 c 3.283764,-3.17041 5.364342,-5.51189 5.36719,-8.3891 -0.0026,-2.231 -1.418256,-4.523771 -4.765504,-4.531619 -1.808488,-0.0011 -3.337958,0.684389 -4.418934,1.587659 l 0.670808,1.48344 c 0.713105,-0.59778 1.887977,-1.3192 3.309039,-1.31665 2.337001,0.002 3.088919,1.46885 3.096896,3.05364 -0.02425,2.36189 -1.821072,4.36806 -5.804742,8.15889 l -1.658672,1.59803 0.0016,1.30336 z m 12.312545,8.1e-4 0.0041,-1.76171 -7.01025,0.005 -0.003,-0.0468 1.2538,-1.1375 c 3.283764,-3.17041 5.364341,-5.51189 5.36719,-8.3891 -0.0026,-2.231 -1.418256,-4.523773 -4.765504,-4.531622 -1.808488,-0.0011 -3.337958,0.684392 -4.418934,1.587662 l 0.670808,1.48344 c 0.713105,-0.59778 1.887977,-1.3192 3.309039,-1.31665 2.337001,0.002 3.088919,1.46885 3.096896,3.05363 -0.02425,2.3619 -1.821072,4.36807 -5.804742,8.1589 l -1.658672,1.59803 0.0016,1.30336 z M 2.7107091,103.32241 c -3.21785556,-0.004 -5.748092,2.28377 -5.7564278,6.17123 7.634e-4,3.66375 2.42745505,5.97371 5.574391,5.97095 2.8070407,0.007 5.7861102,-1.87521 5.7798171,-6.17273 0.00676,-3.54681 -2.2629788,-5.97255 -5.5977803,-5.96945 z m -0.051248,1.57685 c 2.4897826,0.004 3.4833043,2.48861 3.4810166,4.46157 0.00475,2.63012 -1.5181772,4.51299 -3.5262253,4.51296 -2.06652101,0.004 -3.52756137,-1.89861 -3.52779497,-4.45856 -0.00106,-2.20761 1.07227859,-4.5078 3.57300367,-4.51597 z m 8.3196029,15.0596 2.078215,-0.004 0.0047,-6.31801 0.04678,-0.003 c 0.684833,1.15374 2.043514,1.82965 3.582274,1.83638 2.724427,9.3e-4 5.268201,-2.07677 5.270181,-6.24565 -0.0034,-3.52266 -2.118131,-5.9114 -4.912725,-5.90782 -1.902797,-0.007 -3.28065,0.84511 -4.140669,2.2626 l -0.04678,0.003 -0.09352,-2.00203 -1.89035,0.004 c 0.04731,1.10079 0.101385,2.30684 0.102593,3.78638 z m 2.080173,-11.47748 c -0.0071,-0.29311 0.06614,-0.61488 0.143904,-0.86649 0.40359,-1.57602 1.746021,-2.61354 3.190473,-2.61249 2.231749,0.009 3.450964,1.98574 3.44785,4.31105 0.0078,2.67689 -1.285038,4.48625 -3.516035,4.48881 -1.514619,0.003 -2.789107,-1.00666 -3.176237,-2.46138 -0.04069,-0.26747 -0.09457,-0.55758 -0.09074,-0.86314 z m 13.674995,6.7153 0.0046,-11.61409 -2.101604,0.006 -0.0046,11.61408 z M 25.692573,98.999671 c -0.774851,0.0029 -1.324984,0.578416 -1.32438,1.318189 -1.49e-4,0.72807 0.517687,1.29366 1.269149,1.2923 0.822382,0.006 1.361572,-0.55728 1.337579,-1.29555 -6.04e-4,-0.739765 -0.506745,-1.306105 -1.282348,-1.314939 z m 4.556307,16.205829 2.101605,-0.006 -0.0031,-6.98686 c 7.4e-5,-0.36404 0.04768,-0.71939 0.148078,-0.98419 0.359746,-1.1622 1.435458,-2.14734 2.832378,-2.15497 1.984659,0.002 2.684121,1.56533 2.686759,3.43229 l -0.004,6.69375 2.114051,0.005 -9.7e-5,-6.94009 c 0.0023,-3.98101 -2.502357,-4.94725 -4.09959,-4.95022 -1.925434,0.006 -3.265609,1.079 -3.851313,2.19702 l -0.04678,0.003 -0.112402,-1.93036 -1.866961,0.003 c 0.06167,0.95896 0.102212,1.95451 0.09706,3.15262 z m 12.496658,-0.56001 c 0.818134,0.48756 1.988271,0.78808 3.256552,0.78872 2.771204,-0.002 4.346849,-1.43037 4.345376,-3.46181 -0.0061,-1.73756 -1.022514,-2.75255 -3.044365,-3.51498 -1.517141,-0.58352 -2.214568,-1.02013 -2.204569,-1.96021 -0.0089,-0.86841 0.684261,-1.59408 1.929152,-1.59194 1.092109,2.2e-4 1.926864,0.38103 2.392317,0.6799 l 0.523545,-1.53677 c -0.647641,-0.39284 -1.6797,-0.73747 -2.853671,-0.73243 -2.489783,-0.004 -3.999434,1.53719 -4.007738,3.4166 0.0069,1.38523 0.984835,2.53186 3.065159,3.29054 1.563167,0.56881 2.162864,1.12914 2.169072,2.13863 -0.0092,0.95178 -0.723518,1.71403 -2.273973,1.70806 -1.057025,-0.002 -2.141879,-0.43766 -2.766131,-0.832 z m 24.692598,0.54919 0.0041,-1.76171 -7.01025,0.005 -0.003,-0.0468 1.253799,-1.1375 c 3.283764,-3.17041 5.364342,-5.51189 5.367191,-8.3891 -0.0026,-2.231 -1.418256,-4.523771 -4.765505,-4.53162 -1.808488,-0.0011 -3.337958,0.68439 -4.418934,1.58766 l 0.670808,1.48344 c 0.713105,-0.59778 1.887977,-1.3192 3.309039,-1.31665 2.337001,0.002 3.088919,1.46885 3.096896,3.05364 -0.02425,2.36189 -1.821071,4.36806 -5.804742,8.15889 l -1.658672,1.59803 0.0016,1.30336 z m 7.569718,-15.864226 c -3.18202,0.005 -5.42756,2.885536 -5.432019,8.111436 0.05025,5.16367 2.113174,8.02546 5.166553,8.02872 3.4525,0.001 5.424552,-2.93231 5.423746,-8.24008 -0.0024,-4.96712 -1.881951,-7.89941 -5.15828,-7.900076 z m -0.128598,1.652286 c 2.195914,-3.1e-4 3.167551,2.50891 3.167149,6.33714 -0.0016,3.99271 -1.013837,6.51209 -3.186361,6.51089 -1.926186,-0.005 -3.177402,-2.2969 -3.180348,-6.35978 0.0084,-4.25149 1.355989,-6.48712 3.19956,-6.48825 z m 12.440955,-1.654402 c -3.18202,0.005 -5.427561,2.885532 -5.432019,8.111442 0.05025,5.16367 2.113174,8.02545 5.166553,8.02871 3.4525,10e-4 5.424552,-2.93231 5.423746,-8.24008 -0.0024,-4.96711 -1.881951,-7.899406 -5.15828,-7.900072 z m -0.128598,1.652282 c 2.195914,-3.1e-4 3.167551,2.50892 3.167149,6.33715 -0.0016,3.9927 -1.013837,6.51208 -3.186362,6.51089 -1.926186,-0.005 -3.177401,-2.29691 -3.180347,-6.35978 0.0084,-4.2515 1.355988,-6.48712 3.19956,-6.48826 z m 11.803113,14.21907 2.043134,-0.002 -0.005,-15.594342 -1.796794,-0.0019 -3.406092,1.816092 0.409354,1.61769 2.712276,-1.46616 0.04678,-0.003 z M -111.84272,143.2058 c 0.87093,0.57811 2.56766,1.03265 4.12906,1.02618 3.81653,0.001 5.67375,-2.16156 5.66633,-4.65059 -6.5e-4,-2.38378 -1.39994,-3.6912 -4.13283,-4.73671 -2.22893,-0.87829 -3.21639,-1.62505 -3.21986,-3.13967 -5.3e-4,-1.10381 0.85532,-2.4036 3.06292,-2.40466 1.46785,-4.6e-4 2.53232,0.483 3.05399,0.74303 l 0.58468,-1.68162 c -0.71931,-0.41171 -1.91885,-0.80429 -3.57456,-0.80349 -3.14693,0.003 -5.22251,1.8742 -5.22529,4.38737 0.006,2.27777 1.61989,3.64182 4.26415,4.58735 2.19159,0.84546 3.04473,1.6948 3.03725,3.22187 -0.001,1.62062 -1.23187,2.75662 -3.36931,2.75316 -1.44445,-10e-4 -2.80204,-0.4774 -3.74389,-1.06269 z m 12.590475,5.55497 2.078215,-0.004 0.0047,-6.31802 0.04678,-0.003 c 0.684833,1.15374 2.043514,1.82965 3.582274,1.83637 2.724427,9.4e-4 5.268201,-2.07676 5.270181,-6.24564 -0.0034,-3.52267 -2.118131,-5.9114 -4.912725,-5.90782 -1.902797,-0.007 -3.28065,0.8451 -4.140669,2.2626 l -0.04678,0.003 -0.09352,-2.00203 -1.890351,0.004 c 0.04731,1.10079 0.101386,2.30684 0.102594,3.78637 z m 2.080172,-11.47748 c -0.0071,-0.29312 0.06614,-0.61489 0.143905,-0.86649 0.40359,-1.57603 1.746021,-2.61354 3.190472,-2.61249 2.23175,0.009 3.450964,1.98574 3.447851,4.31104 0.0078,2.6769 -1.285038,4.48626 -3.516035,4.48882 -1.514619,0.003 -2.789107,-1.00667 -3.176237,-2.46138 -0.04069,-0.26747 -0.09457,-0.55758 -0.09074,-0.86315 z m 19.910395,6.71355 c -0.1447,-0.78922 -0.185239,-1.78476 -0.191447,-2.79426 l 0.0031,-4.33335 c 0.0031,-2.32531 -0.868949,-4.74699 -4.415757,-4.75375 -1.467841,4.6e-4 -2.850885,0.40646 -3.820519,1.03249 l 0.489372,1.40116 c 0.811175,-0.53362 1.939946,-0.87631 3.020361,-0.87533 2.383779,-6.5e-4 2.648624,1.74376 2.651071,2.69478 l -0.0083,0.2354 c -4.48764,-0.0285 -6.983397,1.51773 -6.978312,4.33571 0.0015,1.6674 1.200455,3.32825 3.54915,3.32986 1.655706,-7.9e-4 2.906424,-0.82103 3.552444,-1.73156 l 0.07017,-0.005 0.164932,1.469 z m -2.224166,-3.90828 c 0.0026,0.22295 -0.04084,0.4606 -0.10916,0.67636 -0.348391,0.97359 -1.30866,1.92781 -2.823279,1.93128 -1.080415,-9.8e-4 -1.990941,-0.647 -1.996323,-2.00884 -0.0041,-2.25438 2.623116,-2.66994 4.928041,-2.61855 z m 7.558432,3.9087 0.0046,-11.61408 -2.101605,0.006 -0.0046,11.61409 z m -1.041659,-16.19701 c -0.774851,0.003 -1.324984,0.57842 -1.32438,1.31819 -1.48e-4,0.72807 0.517687,1.29366 1.269149,1.2923 0.822382,0.006 1.361573,-0.55728 1.33758,-1.29554 -6.04e-4,-0.73977 -0.506745,-1.30611 -1.282349,-1.31495 z m 4.556119,16.20291 2.101605,-0.006 -0.0031,-6.98686 c 7.4e-5,-0.36404 0.04768,-0.71939 0.148078,-0.98419 0.359746,-1.1622 1.435458,-2.14734 2.832379,-2.15497 1.984659,0.002 2.684121,1.56533 2.686759,3.43229 l -0.004,6.69375 2.114052,0.005 -9.7e-5,-6.94009 c 0.0023,-3.98101 -2.502358,-4.94725 -4.099591,-4.95022 -1.925434,0.006 -3.265608,1.079 -3.851312,2.19702 l -0.04678,0.003 -0.112402,-1.93036 -1.866961,0.003 c 0.06167,0.95896 0.102211,1.9545 0.09706,3.15262 z m 32.510348,-5.5e-4 2.043132,-0.002 -1.004319,-16.16418 -2.677648,-0.004 -2.868234,7.80564 c -0.725848,2.04298 -1.303766,3.82985 -1.715291,5.4651 l -0.07092,-0.007 c -0.413114,-1.67616 -0.96239,-3.461 -1.618759,-5.45032 l -2.769237,-7.81886 -2.653507,0.006 -1.132369,16.17243 1.984659,0.002 0.434107,-6.94452 c 0.138184,-2.41619 0.256814,-5.13645 0.303623,-7.1475 l 0.04678,-0.003 c 0.463991,1.91949 1.115436,4.01481 1.883413,6.27879 l 2.609685,7.71169 1.585539,0.004 2.865226,-7.85242 c 0.819818,-2.22518 1.477003,-4.24026 2.02401,-6.14257 l 0.07017,-0.005 c -0.02267,2.02125 0.128429,4.7359 0.250196,6.99446 z m 13.674194,-0.007 c -0.144699,-0.78921 -0.185239,-1.78476 -0.191446,-2.79425 l 0.0031,-4.33336 c 0.0031,-2.3253 -0.86895,-4.74698 -4.415758,-4.75374 -1.467841,4.6e-4 -2.850885,0.40646 -3.820519,1.03248 l 0.489373,1.40117 c 0.811174,-0.53363 1.939946,-0.87631 3.020361,-0.87533 2.383779,-6.5e-4 2.648623,1.74376 2.651071,2.69478 l -0.0083,0.2354 c -4.48764,-0.0284 -6.983396,1.51772 -6.978311,4.33571 0.0015,1.6674 1.200454,3.32825 3.54915,3.32986 1.655706,-7.9e-4 2.906423,-0.82104 3.552443,-1.73156 l 0.07017,-0.005 0.164932,1.46901 z m -2.224166,-3.90828 c 0.0026,0.22295 -0.04083,0.4606 -0.10916,0.67637 -0.34839,0.97359 -1.30866,1.92781 -2.823279,1.93127 -1.080415,-9.7e-4 -1.99094,-0.64699 -1.996322,-2.00883 -0.0041,-2.25438 2.623115,-2.66995 4.928041,-2.61855 z m 5.454092,3.91781 2.078216,-0.004 0.0013,-6.18863 c 7.4e-5,-0.36403 0.04843,-0.70769 0.08961,-0.98042 0.28514,-1.5919 1.351826,-2.71737 2.843056,-2.71933 0.282174,0.005 0.506628,0.0261 0.720891,0.0711 l 7.83e-4,-1.99635 c -0.190874,-0.0464 -0.368549,-0.0702 -0.603193,-0.0669 -1.421062,-0.003 -2.696334,0.98367 -3.230069,2.54458 l -0.09356,0.006 -0.0648,-2.28571 -1.843571,0.001 c 0.06919,1.0759 0.09838,2.26006 0.103758,3.6219 z m 10.0457121,-0.006 0.00463,-11.61408 -2.1016051,0.006 -0.0046,11.61409 z m -1.0416589,-16.19701 c -0.7748512,0.003 -1.3249842,0.57842 -1.3243802,1.31819 -1.48e-4,0.72807 0.517687,1.29366 1.269149,1.2923 0.822382,0.006 1.3615725,-0.55728 1.3375793,-1.29555 -6.039e-4,-0.73976 -0.5067447,-1.3061 -1.2823481,-1.31494 z M 2.898692,143.99674 c -0.1446995,-0.78922 -0.1852389,-1.78476 -0.1914466,-2.79426 l 0.00315,-4.33335 c 0.00311,-2.32531 -0.8689493,-4.74699 -4.4157577,-4.75375 -1.4678406,4.6e-4 -2.8508847,0.40647 -3.8205187,1.03249 l 0.4893723,1.40117 c 0.8111744,-0.53363 1.939946,-0.87632 3.0203609,-0.87534 2.38377916,-6.5e-4 2.64862388,1.74376 2.65107105,2.69479 l -0.008347,0.23539 c -4.48764025,-0.0284 -6.98339695,1.51773 -6.97831175,4.33571 0.00155,1.6674 1.2004547,3.32825 3.5491501,3.32986 1.6557062,-7.9e-4 2.9064234,-0.82103 3.5524434,-1.73156 l 0.0701675,-0.005 0.16493217,1.469 z m -2.2241658,-3.90828 c 0.002595,0.22295 -0.0408356,0.4606 -0.10915996,0.67637 -0.34839055,0.97358 -1.3086603,1.9278 -2.82327924,1.93127 -1.080415,-9.8e-4 -1.9909407,-0.647 -1.9963222,-2.00883 -0.00407,-2.25439 2.6231152,-2.66995 4.92804065,-2.61856 z M 22.152328,141.822 c -0.831894,0.39405 -2.141349,0.66615 -3.40963,0.66551 -3.934234,-0.005 -6.222433,-2.53556 -6.219362,-6.50488 -0.0033,-4.25074 2.51943,-6.65589 6.311825,-6.66492 1.3392,0.008 2.484444,0.28645 3.271668,0.65857 l 0.502073,-1.68805 c -0.547316,-0.2936 -1.820035,-0.72844 -3.839777,-0.72772 -5.013897,0.005 -8.445592,3.43192 -8.43719,8.4926 -0.01089,5.30851 3.427067,8.18755 7.983371,8.1881 1.972212,-0.009 3.510294,-0.37841 4.272021,-0.76794 z m 7.628539,-9.70002 c -3.217856,-0.004 -5.748092,2.28377 -5.756428,6.17123 7.64e-4,3.66375 2.427455,5.97371 5.574391,5.97095 2.807041,0.007 5.78611,-1.87521 5.779817,-6.17273 0.0068,-3.54681 -2.262978,-5.97254 -5.59778,-5.96945 z m -0.05125,1.57685 c 2.489782,0.004 3.483304,2.48861 3.481016,4.46157 0.0047,2.63012 -1.518177,4.51299 -3.526225,4.51296 -2.066521,0.004 -3.527561,-1.89861 -3.527795,-4.45856 -0.0011,-2.20761 1.072279,-4.5078 3.573004,-4.51597 z m 8.319249,10.30666 2.101605,-0.006 -0.0037,-17.0388 -2.101605,0.006 z m 13.565055,-17.04245 9.6e-5,6.94009 -0.04678,0.003 c -0.530208,-0.94057 -1.712305,-1.79224 -3.496651,-1.78317 -2.83043,-0.006 -5.225257,2.37932 -5.200013,6.24113 0.0034,3.52266 2.153214,5.90914 4.971198,5.90406 1.902796,0.007 3.295014,-0.98695 3.951298,-2.28565 l 0.04678,-0.003 0.09503,2.02542 1.902045,-0.005 c -0.07453,-0.79373 -0.09127,-1.96695 -0.09823,-2.98814 l 9.72e-4,-14.04464 z m 0.0073,12.16524 c -0.0016,0.34065 -0.02955,0.63602 -0.09412,0.91026 -0.391895,1.57527 -1.670175,2.51472 -3.091237,2.51217 -2.289471,0.006 -3.435509,-1.92802 -3.445594,-4.27597 0.01,-2.58409 1.308427,-4.48775 3.492646,-4.48731 1.584786,-0.008 2.736651,1.10399 3.044587,2.42288 0.06483,0.27766 0.08814,0.64019 0.093,0.89823 z m 14.954469,-0.55075 c 0.02155,-0.21276 0.0699,-0.55641 0.06546,-0.99062 0.0042,-2.12574 -1.009137,-5.46603 -4.790589,-5.46944 -3.394026,-0.005 -5.446776,2.76934 -5.444847,6.26862 0.0019,3.49928 2.126065,5.85218 5.707205,5.84498 1.843572,-10e-4 3.111174,-0.37623 3.864214,-0.71823 l -0.3675,-1.51469 c -0.788125,0.34426 -1.687517,0.60173 -3.202136,0.60519 -2.114051,-0.005 -3.950971,-1.17854 -3.993396,-4.02935 z m -8.14166,-1.51967 c 0.16402,-1.46667 1.106388,-3.42964 3.243828,-3.42618 2.372085,1e-4 2.940163,2.0773 2.921403,3.42895 z m 10.83933,6.94757 2.078215,-0.004 0.0013,-6.18862 c 7.5e-5,-0.36404 0.04843,-0.70769 0.08961,-0.98043 0.28514,-1.59189 1.351826,-2.71736 2.843056,-2.71932 0.282174,0.005 0.506628,0.0261 0.720891,0.0711 l 7.83e-4,-1.99635 c -0.190874,-0.0464 -0.368549,-0.0702 -0.603193,-0.0669 -1.421062,-0.003 -2.696333,0.98367 -3.230068,2.54458 l -0.09356,0.006 -0.0648,-2.28571 -1.843572,10e-4 c 0.06919,1.07591 0.09838,2.26007 0.103758,3.6219 z m 12.516975,-11.88447 c -3.217856,-0.004 -5.748092,2.28377 -5.756428,6.17123 7.63e-4,3.66375 2.427455,5.97371 5.574391,5.97096 2.807041,0.007 5.78611,-1.87522 5.779817,-6.17274 0.0068,-3.54681 -2.262979,-5.97254 -5.59778,-5.96945 z m -0.05125,1.57685 c 2.489782,0.004 3.483304,2.48861 3.481016,4.46157 0.0047,2.63012 -1.518177,4.51299 -3.526225,4.51296 -2.066521,0.004 -3.527561,-1.89861 -3.527795,-4.45856 -0.0011,-2.20761 1.072279,-4.5078 3.573004,-4.51597 z m 8.319249,10.30667 2.078216,-0.004 0.0013,-6.18862 c 7.4e-5,-0.36403 0.04843,-0.70769 0.08961,-0.98042 0.28514,-1.5919 1.351827,-2.71737 2.843056,-2.71933 0.282175,0.005 0.506628,0.0261 0.720892,0.0711 l 7.83e-4,-1.99635 c -0.190874,-0.0464 -0.368549,-0.0702 -0.603193,-0.0669 -1.421062,-0.003 -2.696334,0.98367 -3.230069,2.54458 l -0.09356,0.006 -0.0648,-2.28571 -1.843572,0.001 c 0.06919,1.0759 0.09838,2.26006 0.103759,3.6219 z m 7.024604,-0.55746 c 0.818134,0.48756 1.988271,0.78809 3.256552,0.78872 2.7712,-0.002 4.34684,-1.43036 4.34537,-3.4618 -0.006,-1.73757 -1.02251,-2.75255 -3.04436,-3.51499 -1.51714,-0.58352 -2.214567,-1.02013 -2.204568,-1.96021 -0.0089,-0.86841 0.684258,-1.59407 1.929148,-1.59193 1.09211,2.2e-4 1.92686,0.38102 2.39232,0.67989 l 0.52354,-1.53677 c -0.64764,-0.39284 -1.6797,-0.73747 -2.85367,-0.73242 -2.489778,-0.004 -3.999429,1.53719 -4.007733,3.4166 0.0069,1.38522 0.984835,2.53186 3.065153,3.29053 1.56317,0.56882 2.16287,1.12914 2.16907,2.13864 -0.009,0.95177 -0.72351,1.71403 -2.27397,1.70805 -1.05702,-0.002 -2.141874,-0.43765 -2.766126,-0.83199 z m -141.487918,29.35302 2.043132,-0.002 -0.0047,-15.59434 -1.796793,-0.002 -3.406092,1.8161 0.409354,1.61769 2.712276,-1.46616 0.04678,-0.003 z m 17.040271,-15.59258 -7.468596,-0.001 -0.998191,7.48575 c 0.582473,-0.0727 1.256247,-0.18648 2.148796,-0.18517 3.123547,-10e-4 4.461699,1.45102 4.485809,3.46926 0.0052,2.08991 -1.684688,3.38463 -3.681041,3.38385 -1.421063,-0.003 -2.685096,-0.48493 -3.332737,-0.87777 l -0.529222,1.63108 c 0.747215,0.48038 2.174972,0.95222 3.889903,0.95936 3.393274,-0.007 5.79487,-2.28678 5.798885,-5.32847 0.0023,-1.97296 -1.01259,-3.32859 -2.230935,-4.01353 -0.952792,-0.57284 -2.155756,-0.83602 -3.365564,-0.84042 -0.575291,0.002 -0.91293,0.047 -1.262263,0.0929 l 0.598743,-4.01937 5.953976,0.005 z m 10.875578,15.591 0.0046,-11.61409 -2.101604,0.006 -0.0046,11.61408 z m -1.041659,-16.19701 c -0.774852,0.003 -1.324984,0.57841 -1.32438,1.31818 -1.49e-4,0.72807 0.517687,1.29366 1.269149,1.29231 0.822382,0.006 1.361572,-0.55729 1.337579,-1.29555 -6.04e-4,-0.73977 -0.506745,-1.30611 -1.282348,-1.31494 z m 3.116294,4.58777 4.398895,11.61272 2.019743,-7.2e-4 4.5726248,-11.61429 -2.2193028,0.002 -2.2462816,6.52089 c -0.3899042,1.05845 -0.7266001,2.03128 -0.9829381,2.97546 l -0.070168,0.005 c -0.2495378,-0.95862 -0.5692431,-1.91273 -0.9424956,-2.96907 l -2.2756897,-6.53539 z M 6.8117887,172.79716 C 6.6670892,172.00795 6.6265498,171.0124 6.6203422,170.00291 l 0.00315,-4.33336 c 0.00311,-2.3253 -0.8689493,-4.74699 -4.4157577,-4.75374 -1.46784057,4.5e-4 -2.85088473,0.40646 -3.8205187,1.03248 l 0.4893723,1.40117 c 0.81117442,-0.53363 1.93994598,-0.87631 3.0203609,-0.87534 2.3837792,-6.4e-4 2.6486239,1.74377 2.6510711,2.69479 l -0.00835,0.23539 c -4.48764028,-0.0284 -6.9833969,1.51773 -6.9783117,4.33571 0.00155,1.6674 1.2004546,3.32826 3.54915,3.32987 1.6557062,-8e-4 2.9064234,-0.82104 3.5524434,-1.73157 l 0.070168,-0.005 0.1649322,1.46901 z m -2.2241658,-3.90828 c 0.0026,0.22295 -0.040836,0.4606 -0.1091599,0.67637 -0.3483906,0.97358 -1.3086603,1.92781 -2.8232793,1.93127 -1.08041494,-9.7e-4 -1.99094065,-0.64699 -1.99632215,-2.00883 -0.004068,-2.25439 2.62311515,-2.66995 4.92804065,-2.61855 z m 10.6118121,3.91197 8.994909,-0.003 0.0041,-1.76171 -6.916694,-10e-4 0.001,-14.40868 -2.078216,0.004 z m 19.595822,-0.004 c -0.144699,-0.78921 -0.185239,-1.78476 -0.191446,-2.79425 l 0.0031,-4.33336 c 0.0031,-2.3253 -0.86895,-4.74698 -4.415758,-4.75374 -1.46784,4.5e-4 -2.850885,0.40646 -3.820519,1.03248 l 0.489373,1.40117 c 0.811174,-0.53363 1.939946,-0.87631 3.020361,-0.87534 2.383779,-6.4e-4 2.648624,1.74377 2.651071,2.69479 l -0.0083,0.2354 c -4.487641,-0.0285 -6.983397,1.51772 -6.978312,4.3357 0.0015,1.6674 1.200454,3.32826 3.54915,3.32987 1.655706,-8e-4 2.906423,-0.82104 3.552443,-1.73157 l 0.07017,-0.005 0.164932,1.46901 z m -2.224166,-3.90828 c 0.0026,0.22295 -0.04084,0.4606 -0.10916,0.67637 -0.34839,0.97359 -1.30866,1.92781 -2.823279,1.93127 -1.080415,-9.7e-4 -1.99094,-0.64699 -1.996322,-2.00883 -0.0041,-2.25439 2.623115,-2.66995 4.928041,-2.61855 z m 5.453904,3.91488 2.078216,-0.004 0.0013,-6.18862 c 7.4e-5,-0.36404 0.04843,-0.70769 0.08961,-0.98043 0.28514,-1.59189 1.351826,-2.71736 2.843056,-2.71932 0.282174,0.005 0.506628,0.0261 0.720891,0.0711 l 7.83e-4,-1.99636 c -0.190874,-0.0464 -0.368549,-0.0702 -0.603193,-0.0669 -1.421062,-0.003 -2.696334,0.98367 -3.230069,2.54458 l -0.09356,0.006 -0.0648,-2.28571 -1.843571,0.001 c 0.06919,1.0759 0.09838,2.26006 0.103758,3.6219 z m 7.944107,-8e-5 2.078216,-0.004 0.0013,-6.18862 c 7.4e-5,-0.36404 0.04843,-0.70769 0.0896,-0.98043 0.285141,-1.5919 1.351827,-2.71736 2.843057,-2.71932 0.282174,0.005 0.506627,0.0261 0.720891,0.0711 l 7.83e-4,-1.99636 c -0.190874,-0.0464 -0.368549,-0.0702 -0.603193,-0.0669 -1.421062,-0.003 -2.696334,0.98367 -3.230069,2.54458 l -0.09356,0.006 -0.0648,-2.28571 -1.843572,0.001 c 0.06919,1.0759 0.09838,2.26006 0.103759,3.6219 z m 12.517164,-11.88155 c -3.217856,-0.004 -5.748093,2.28377 -5.756428,6.17123 7.63e-4,3.66375 2.427455,5.97371 5.574391,5.97096 2.80704,0.007 5.78611,-1.87522 5.779817,-6.17274 0.0068,-3.54681 -2.262979,-5.97254 -5.59778,-5.96945 z m -0.05125,1.57685 c 2.489783,0.004 3.483305,2.48861 3.481017,4.46157 0.0047,2.63012 -1.518177,4.51299 -3.526225,4.51296 -2.066521,0.004 -3.527562,-1.89861 -3.527795,-4.45856 -0.0011,-2.20761 1.072278,-4.5078 3.573003,-4.51597 z m 8.319062,10.30374 2.078215,-0.004 0.0013,-6.18862 c 7.4e-5,-0.36404 0.04843,-0.70769 0.0896,-0.98043 0.28514,-1.59189 1.351826,-2.71736 2.843056,-2.71932 0.282175,0.005 0.506628,0.0261 0.720891,0.0711 l 7.84e-4,-1.99636 c -0.190874,-0.0464 -0.368549,-0.0702 -0.603193,-0.0669 -1.421063,-0.003 -2.696334,0.98367 -3.230069,2.54458 l -0.09356,0.006 -0.0648,-2.28571 -1.843572,0.001 c 0.06919,1.0759 0.09838,2.26007 0.103759,3.6219 z m 12.51424,-11.88111 c -3.217855,-0.004 -5.748092,2.28377 -5.756427,6.17123 7.63e-4,3.66375 2.427455,5.97371 5.574391,5.97096 2.80704,0.007 5.78611,-1.87522 5.779817,-6.17274 0.0068,-3.54681 -2.262979,-5.97254 -5.597781,-5.96945 z m -0.05125,1.57685 c 2.489783,0.004 3.483304,2.48861 3.481017,4.46157 0.0047,2.63012 -1.518177,4.51299 -3.526225,4.51296 -2.066521,0.004 -3.527562,-1.89861 -3.527795,-4.45856 -0.0011,-2.20761 1.072278,-4.5078 3.573003,-4.51597 z m 10.60872,10.30034 0.0024,-10.00516 2.818736,0.007 0.0022,-1.60892 -2.818735,-0.007 -0.0048,-0.62207 c 0.0026,-1.7851 0.453747,-3.35244 2.262235,-3.35132 0.598681,-0.003 1.040406,0.10923 1.3433,0.25416 l 0.294578,-1.62773 c -0.410401,-0.17324 -1.055447,-0.34313 -1.806909,-0.34177 -0.986858,-0.007 -2.046967,0.30778 -2.830652,1.08625 -0.973469,0.93158 -1.336298,2.41104 -1.336255,4.05506 l 2.65e-4,0.5519 -1.632317,-7.1e-4 -0.0022,1.60893 1.632317,7.1e-4 -0.0024,10.00515 z m 9.31449,-11.87814 c -3.217855,-0.004 -5.748092,2.28377 -5.756428,6.17122 7.64e-4,3.66376 2.427455,5.97372 5.574391,5.97096 2.807039,0.007 5.786109,-1.87521 5.779819,-6.17273 0.007,-3.54681 -2.26298,-5.97255 -5.597782,-5.96945 z m -0.05125,1.57685 c 2.489782,0.004 3.483312,2.4886 3.481022,4.46157 0.005,2.63012 -1.51818,4.51299 -3.526231,4.51296 -2.066521,0.004 -3.527561,-1.89861 -3.527795,-4.45856 -0.0011,-2.20761 1.072279,-4.5078 3.573004,-4.51597 z m -48.111988,39.10395 2.043132,-0.002 -1.004319,-16.16418 -2.677648,-0.004 -2.868234,7.80564 c -0.725848,2.04298 -1.303766,3.82985 -1.715291,5.4651 l -0.07092,-0.007 c -0.413114,-1.67616 -0.962389,-3.46099 -1.618759,-5.45031 l -2.769237,-7.81886 -2.653507,0.006 -1.132369,16.17242 1.984659,0.002 0.434107,-6.94452 c 0.138184,-2.41619 0.256814,-5.13644 0.303623,-7.1475 l 0.04678,-0.003 c 0.463991,1.91949 1.115436,4.01481 1.883413,6.27879 l 2.609685,7.71169 1.585539,0.004 2.865226,-7.85242 c 0.819818,-2.22517 1.477003,-4.24026 2.02401,-6.14257 l 0.07017,-0.005 c -0.02267,2.02125 0.128429,4.7359 0.250196,6.99446 z m 7.582806,-0.003 0.0046,-11.61409 -2.101605,0.006 -0.0046,11.61408 z m -1.041659,-16.19701 c -0.774851,0.003 -1.324984,0.57841 -1.32438,1.31818 -1.48e-4,0.72808 0.517687,1.29366 1.269149,1.29231 0.822382,0.006 1.361572,-0.55729 1.337579,-1.29555 -6.04e-4,-0.73977 -0.506744,-1.30611 -1.282348,-1.31494 z m 4.556119,16.20291 2.101605,-0.006 -0.0037,-17.03879 -2.101604,0.006 z m 10.5707,-11.88261 c -3.217856,-0.004 -5.748092,2.28378 -5.756428,6.17123 7.64e-4,3.66376 2.427455,5.97371 5.574391,5.97096 2.807041,0.007 5.78611,-1.87522 5.779817,-6.17273 0.0068,-3.54681 -2.262978,-5.97255 -5.59778,-5.96946 z m -0.05125,1.57686 c 2.489782,0.004 3.483304,2.4886 3.481016,4.46157 0.0047,2.63011 -1.518177,4.51299 -3.526225,4.51296 -2.066521,0.004 -3.527561,-1.89862 -3.527795,-4.45857 -0.0011,-2.20761 1.072279,-4.5078 3.573004,-4.51596 z m 8.319249,10.30666 2.101605,-0.006 -0.0031,-6.98686 c 7.4e-5,-0.36404 0.04768,-0.71939 0.148078,-0.98419 0.359746,-1.1622 1.435458,-2.14733 2.832379,-2.15497 1.984659,0.002 2.684121,1.56534 2.686759,3.4323 l -0.004,6.69374 2.114051,0.005 -9.6e-5,-6.94008 c 0.0023,-3.98102 -2.502358,-4.94726 -4.099591,-4.95023 -1.925434,0.006 -3.265608,1.079 -3.851312,2.19702 l -0.04678,0.003 -0.112402,-1.93036 -1.86696,0.003 c 0.06167,0.95895 0.102211,1.9545 0.09706,3.15261 z m 18.227161,-11.8818 c -3.217855,-0.004 -5.748092,2.28377 -5.756427,6.17123 7.63e-4,3.66375 2.427455,5.97371 5.574391,5.97095 2.80704,0.007 5.78611,-1.87521 5.77981,-6.17273 0.007,-3.54681 -2.26298,-5.97255 -5.597774,-5.96945 z m -0.05125,1.57685 c 2.489784,0.004 3.483304,2.48861 3.481014,4.46157 0.005,2.63012 -1.51818,4.51299 -3.526222,4.51296 -2.066522,0.004 -3.527562,-1.89861 -3.527795,-4.45856 -0.0011,-2.20761 1.072278,-4.5078 3.573003,-4.51597 z m 0,0" style="fill:#ffffff;fill-opacity:1;fill-rule:nonzero;stroke:none" aria-label="V&#10;obir&#10;runo &#10;per&#10;A G F&#10;r&#10;on&#10;t&#10;ond&#10;pr&#10;og&#10;r&#10;ame v&#10;oc&#10;e dol v&#10;ar&#10;bo among&#10;422 opins 2001&#10;Spain M&#10;ar&#10;ia C&#10;older&#10;ors&#10;15 iv&#10;a Lar&#10;r&#10;or&#10;of&#10;o&#10;M&#10;ilono" transform="matrix(1.3305845,0.0855723,-0.0855723,1.3305845,2814.6253,2245.6795)" />
      </g></svg>