<?xml version='1.0' encoding='utf-8'?>
<svg xmlns="http://www.w3.org/2000/svg" version="1.1" width="122.900" height="186.643" viewBox="1937.230 1877.030 122.900 186.643"><defs id="defs1"><clipPath clipPathUnits="userSpaceOnUse" id="clipPath46">
      <path d="M 0,3370.3901 H 2383.9401 V -2.5000001e-5 H 0 Z" id="path46" />
    </clipPath>
  </defs><g id="object"><path id="path23" d="M 0,0 C 0,1.755 0.001,3.51 0,5.265 -0.024,62.551 10.668,71.101 69.179,60.851 76.439,59.579 83.772,58.409 83.071,48.819 82.498,40.983 75.959,39.372 69.659,39.042 59.153,38.493 48.614,38.584 38.09,38.396 28.875,38.231 23.227,34.437 22.875,24.38 22.48,13.066 28.203,8.58 38.886,8.603 48.536,8.624 58.197,8.551 67.831,8.067 74.931,7.71 82.795,6.96 83.162,-2.508 c 0.373,-9.641 -7.339,-10.861 -14.549,-11.221 -10.509,-0.524 -21.047,-0.453 -31.572,-0.679 -9.703,-0.208 -14.204,-5.212 -14.172,-14.905 0.032,-9.824 5.002,-14.489 14.473,-14.735 10.52,-0.274 21.06,-0.085 31.566,-0.605 7.342,-0.363 14.6,-2.152 14.204,-11.686 -0.33,-7.931 -6.786,-9.82 -13.114,-9.921 C 52.459,-66.541 34.91,-66.366 17.367,-66.167 5.112,-66.027 0.457,-58.635 0.409,-47.38 0.341,-31.587 0.391,-15.794 0.391,0 0.261,0 0.13,0 0,0" style="fill:#e60013;fill-opacity:1;fill-rule:nonzero;stroke:none" transform="matrix(1.3333333,0,0,-1.3333333,1943.2251,1969.1291)" />
      </g></svg>