<?xml version='1.0' encoding='utf-8'?>
<svg xmlns="http://www.w3.org/2000/svg" version="1.1" width="260.915" height="418.148" viewBox="966.316 3434.540 260.915 418.148"><defs id="defs1"><clipPath clipPathUnits="userSpaceOnUse" id="clipPath59">
      <path d="M 0,3370.3901 H 2383.9401 V -2.5000001e-5 H 0 Z" id="path59" />
    </clipPath>
  </defs><g id="object"><path id="path3" d="m 0,0 h 0.152 c 0,-17.418 0.414,-34.85 -0.152,-52.25 -0.352,-10.825 2.823,-15.885 14.675,-15.575 24.526,0.642 49.084,0.321 73.625,0.046 9.452,-0.106 14.948,2.69 14.796,13.341 -0.519,36.383 1.006,72.89 -1.535,109.12 C 99.684,81.44 74.851,99.919 48.638,98.923 22.538,97.932 1.599,77.274 0.16,49.869 -0.71,33.289 0,16.626 0,0 m -56.584,-93.702 c 6.05,13.663 7.533,25.083 22.266,26.306 11.108,0.922 6.878,10.895 6.959,17.087 0.418,31.735 -0.17,63.483 0.282,95.217 0.664,46.582 34.268,81.234 78.563,81.714 41.036,0.445 78.129,-37.98 78.402,-82.426 0.414,-67.445 0.127,-134.895 -0.02,-202.342 -0.02,-9.036 2.763,-19.618 -12.918,-19.746 -15.065,-0.123 -13.005,9.48 -13.938,19.081 -2.033,20.914 9.874,47.769 -5.948,61.257 -14.03,11.962 -39.727,2.488 -60.245,3.494 -7.123,0.35 -14.304,-0.385 -21.415,0.059 -11.314,0.706 -15.664,-4.492 -15.455,-15.471 0.334,-17.45 -0.244,-34.918 0.097,-52.368 0.204,-10.42 -2.492,-16.533 -14.616,-16.126 -11.109,0.373 -12.92,6.508 -12.736,15.56 0.275,13.484 -0.929,27.079 0.373,40.444 1.93,19.812 -2.567,32.629 -29.651,28.26" style="fill:#ffffff;fill-opacity:1;fill-rule:nonzero;stroke:none" transform="matrix(1.3333333,0,0,-1.3333333,1047.7617,3609.3779)" />
      <path id="path31" d="m 0,0 c 0,16.626 -0.71,33.289 0.16,49.869 1.439,27.405 22.378,48.063 48.478,49.054 26.213,0.996 51.046,-17.483 52.923,-44.241 2.541,-36.23 1.016,-72.737 1.535,-109.12 0.152,-10.651 -5.344,-13.447 -14.796,-13.341 -24.541,0.275 -49.099,0.596 -73.625,-0.046 C 2.823,-68.135 -0.352,-63.075 0,-52.25 0.566,-34.85 0.152,-17.418 0.152,0 Z" style="fill:#5d5746;fill-opacity:1;fill-rule:nonzero;stroke:none" transform="matrix(1.3333333,0,0,-1.3333333,1047.7617,3609.3779)" />
      </g></svg>