<?xml version='1.0' encoding='utf-8'?>
<svg xmlns="http://www.w3.org/2000/svg" version="1.1" width="209.976" height="266.940" viewBox="2035.000 1915.320 209.976 266.940"><g id="object"><path id="path26" d="m 0,0 h 44.113 c 0,-38.209 0.706,-74.667 -0.276,-111.078 -0.554,-20.575 5.555,-33.522 27.991,-33.483 23.293,0.041 27.515,14.759 26.943,34.428 -0.804,27.648 1.302,55.451 -0.748,82.97 -1.79,24.027 6.886,32.781 30.063,29.017 5.483,-0.891 11.14,-0.71 18.852,-1.142 0,-47.936 2.538,-94.906 -0.899,-141.435 -2.26,-30.581 -36.411,-48.648 -77.812,-47.757 -34.939,0.752 -65.985,21.859 -67.583,51.33 C -1.807,-91.94 0,-46.5 0,0" style="fill:#231916;fill-opacity:1;fill-rule:nonzero;stroke:none" transform="matrix(1.3333333,0,0,-1.3333333,2041.852,1924.908)" />
      </g></svg>