<?xml version='1.0' encoding='utf-8'?>
<svg xmlns="http://www.w3.org/2000/svg" version="1.1" width="66.262" height="119.658" viewBox="1745.010 4123.660 66.262 119.658"><g id="object"><path id="path359" d="m 0,0 c -5.049,0.245 -7.214,-1.246 -7.372,-6.274 -0.23,-7.385 -0.068,-14.788 0.126,-22.179 0.079,-2.969 2.152,-4.415 4.661,-3.493 6.278,2.308 11.885,5.679 16.783,10.325 6.319,5.995 3.815,13.181 -0.823,17.312 C 9.602,-0.95 4.961,-0.538 0,0 m -12.261,-59.395 c -0.16,2.482 -0.437,6.004 -0.604,9.53 -0.799,16.851 -1.562,33.704 -2.36,50.555 -0.083,1.757 0.638,3.058 2.102,3.86 1.373,0.753 2.813,1.468 4.31,1.898 11.326,3.255 26.812,-3.538 32.338,-13.923 2.642,-4.965 2.521,-9.708 0.029,-14.627 -2.396,-4.733 -6.014,-8.283 -10.549,-10.813 -4.795,-2.675 -9.712,-5.158 -14.708,-7.435 -3.378,-1.54 -4.62,-4.114 -4.521,-7.491 0.163,-5.495 0.753,-10.987 0.694,-16.475 -0.036,-3.351 0.11,-7.312 -3.793,-8.989 -2.578,-1.107 -4.345,3.328 -3.674,9.355 0.13,1.17 0.372,2.328 0.736,4.555" style="fill:#cd4152;fill-opacity:1;fill-rule:nonzero;stroke:none" transform="matrix(1.3333333,0,0,-1.3333333,1771.3231,4139.3473)" />
      </g></svg>