<?xml version='1.0' encoding='utf-8'?>
<svg xmlns="http://www.w3.org/2000/svg" version="1.1" width="67.988" height="100.893" viewBox="1299.830 4069.500 67.988 100.893"><g id="object"><path id="path46" d="m 0,0 c 3.363,7.029 1.505,14.364 1.486,21.471 -0.018,6.304 2.425,7.839 8.546,7.625 5.958,-0.208 5.12,-4.176 5.164,-7.229 0.197,-13.678 -0.015,-27.361 -0.082,-41.043 -0.017,-3.536 0.152,-7.089 -0.13,-10.605 -0.221,-2.75 1.426,-6.784 -3.304,-7.311 -4.171,-0.464 -8.523,-1.111 -10.74,4.263 -3.395,8.228 -7.177,16.296 -10.769,24.443 -0.385,0.873 -0.669,1.757 -1.799,1.873 -3.708,-7.853 -1.132,-16.251 -2.016,-24.363 -0.55,-5.044 -2.377,-6.86 -7.611,-6.665 -5.412,0.202 -5.256,3.172 -5.249,7.021 0.031,17.477 -0.121,34.953 -0.155,52.43 -0.006,2.963 -0.799,6.586 3.887,6.879 3.955,0.247 8.199,1.196 10.058,-4.076 2.413,-6.845 6.849,-12.804 8.702,-19.948 C -3.551,2.983 -2.536,0.783 0,0" style="fill:#494f57;fill-opacity:1;fill-rule:nonzero;stroke:none" transform="matrix(1.3333333,0,0,-1.3333333,1341.4485,4114.3199)" />
      </g></svg>