<?xml version='1.0' encoding='utf-8'?>
<svg xmlns="http://www.w3.org/2000/svg" version="1.1" width="611.584" height="1168.273" viewBox="1103.180 1547.240 611.584 1168.273"><g id="object"><path id="path3" d="m 0,0 h 56.185 c 0,25.893 2.516,50.738 -1.141,74.638 C 53.402,85.376 39.42,94.226 31.036,103.932 20.691,94.717 3.472,86.816 1.407,76.017 -3.129,52.295 0,27.108 0,0 m 208.853,-0.719 c 0,30.018 3.201,57.464 -1.396,83.535 -2.188,12.408 -19.225,22.199 -29.536,33.175 -9.675,-11.457 -25.605,-21.874 -27.717,-34.586 -4.346,-26.165 -1.307,-53.557 -1.307,-82.124 z m 110.485,-140.116 h -427.373 c 0,96.118 -4.966,190.718 1.593,284.511 5.12,73.201 54.165,109.878 116.955,102.876 41.242,-4.599 65.126,-31.894 84.248,-69.288 15.817,39.902 36.506,71.364 77.554,81.965 47.637,12.303 99.134,-8.549 122.195,-53.593 12.259,-23.946 22.854,-51.642 23.723,-77.991 2.911,-88.305 1.105,-176.766 1.105,-268.48" style="fill:#231916;fill-opacity:1;fill-rule:nonzero;stroke:none" transform="matrix(1.3333333,0,0,-1.3333333,1278.1056,2521.7352)" />
      <path id="path9" d="M 0,0 V 76.086 C -32.066,63.273 -59.891,52.155 -97.14,37.271 -58.939,22.614 -30.781,11.81 0,0 m -270.798,-22.654 c 12.059,7.267 23.332,16.652 36.301,21.471 C -120.292,41.25 -5.786,82.87 110.127,125.278 V -36.053 c 0.041,-0.051 1.218,-3.056 2.878,-3.352 45.202,-8.047 58.476,-35.327 52.801,-79.047 -3.818,-29.413 -0.727,-59.722 -0.727,-96.624 -147.127,61.554 -290.423,121.504 -433.718,181.455 -0.72,3.656 -1.439,7.311 -2.159,10.967" style="fill:#231916;fill-opacity:1;fill-rule:nonzero;stroke:none" transform="matrix(1.3333333,0,0,-1.3333333,1486.0452,1879.3651)" />
      <path id="path13" d="m 0,0 c 129.195,47.274 258.389,94.548 387.584,141.822 1.114,-3.058 2.229,-6.117 3.343,-9.175 C 262.121,85.83 133.316,39.012 4.51,-7.806 Z" style="fill:#e60013;fill-opacity:1;fill-rule:nonzero;stroke:none" transform="matrix(1.3333333,0,0,-1.3333333,1109.1819,1876.8623)" />
      <path id="path14" d="m 0,0 c 129.195,47.274 258.389,94.548 387.584,141.822 1.114,-3.058 2.229,-6.116 3.343,-9.175 C 262.121,85.83 133.316,39.012 4.51,-7.806 Z" style="fill:#e60013;fill-opacity:1;fill-rule:nonzero;stroke:none" transform="matrix(1.3333333,0,0,-1.3333333,1109.1819,1843.2321)" />
      <path id="path15" d="m 0,0 c 129.195,47.274 258.389,94.548 387.584,141.822 1.114,-3.058 2.229,-6.116 3.343,-9.175 C 262.121,85.83 133.316,39.012 4.51,-7.806 Z" style="fill:#e60013;fill-opacity:1;fill-rule:nonzero;stroke:none" transform="matrix(1.3333333,0,0,-1.3333333,1109.1819,1809.6017)" />
      <path id="path16" d="m 0,0 c 129.195,47.274 258.389,94.548 387.584,141.822 1.114,-3.058 2.229,-6.117 3.343,-9.175 C 262.121,85.829 133.316,39.012 4.51,-7.806 Z" style="fill:#e60013;fill-opacity:1;fill-rule:nonzero;stroke:none" transform="matrix(1.3333333,0,0,-1.3333333,1109.1819,1775.9713)" />
      <path id="path17" d="m 0,0 c 129.195,47.274 258.389,94.548 387.584,141.822 1.114,-3.058 2.229,-6.116 3.343,-9.175 C 262.121,85.83 133.316,39.012 4.51,-7.806 3.007,-5.204 1.503,-2.602 0,0" style="fill:#e60013;fill-opacity:1;fill-rule:nonzero;stroke:none" transform="matrix(1.3333333,0,0,-1.3333333,1109.1819,1742.3409)" />
      </g></svg>