<?xml version='1.0' encoding='utf-8'?>
<svg xmlns="http://www.w3.org/2000/svg" version="1.1" width="573.709" height="516.985" viewBox="1743.810 2197.510 573.709 516.985"><g id="object"><path id="path7" d="m 0,0 c 1.163,33.993 10.044,68.111 -21.653,87.546 -12.024,7.373 -38.293,6.647 -48.943,-1.84 C -97.647,64.15 -93.833,31.907 -88.141,0 Z m 106.662,-0.836 h 109.757 v -140.59 h -417.132 c -1.154,3.275 -3.955,7.501 -3.93,11.71 0.433,71.822 -1.908,143.842 2.692,215.411 6.07,94.443 65.758,152.156 149.37,151.614 84.978,-0.551 145.49,-60.403 154.038,-153.108 2.506,-27.169 3.384,-54.488 5.205,-85.037" style="fill:#231916;fill-opacity:1;fill-rule:nonzero;stroke:none" transform="matrix(1.3333333,0,0,-1.3333333,2022.9644,2519.9316)" />
      </g></svg>