<?xml version='1.0' encoding='utf-8'?>
<svg xmlns="http://www.w3.org/2000/svg" version="1.1" width="154.148" height="183.761" viewBox="1730.750 1251.010 154.148 183.761"><defs id="defs1"><clipPath clipPathUnits="userSpaceOnUse" id="clipPath46">
      <path d="M 0,3370.3901 H 2383.9401 V -2.5000001e-5 H 0 Z" id="path46" />
    </clipPath>
  </defs><g id="object"><path id="path29" d="m 0,0 c 5.29,-16.531 -11.264,-44.306 24.839,-43.319 23.231,0.635 42.34,18.32 42.538,40.417 C 67.582,20.006 44.953,41.467 21.27,40.854 -11.376,40.01 6.047,14.262 0,0 m -15.511,-7.661 c -0.911,14.851 -0.81,29.851 -2.984,44.515 -2.834,19.121 5.61,25.6 23.307,25.269 C 25.88,61.728 47.11,63.037 64.31,47.133 89.101,24.208 94.635,-7.084 78.241,-33.456 61.765,-59.959 23.047,-73.534 -5.162,-63.235 c -9.391,3.429 -10.865,10.52 -10.979,18.707 -0.172,12.271 -0.045,24.546 -0.045,36.819 0.225,0.016 0.45,0.032 0.675,0.048" style="fill:#424242;fill-opacity:1;fill-rule:nonzero;stroke:none" transform="matrix(1.3333333,0,0,-1.3333333,1762.1236,1339.8553)" />
      </g></svg>