<?xml version='1.0' encoding='utf-8'?>
<svg xmlns="http://www.w3.org/2000/svg" version="1.1" width="3097.961" height="4379.965" viewBox="61.116 62.896 3097.961 4379.965"><g id="object"><path id="path2" d="m 0,0 c -5.525,0.793 -11.406,-0.516 -11.387,-6.474 0.03,-8.775 5.797,-2.422 9.327,-2.32 2.059,0.06 4.192,-1.018 6.225,-1.764 6.65,-2.44 14.296,-1.362 14.446,5.64 0.22,10.229 -7.096,0.786 -10.755,2.106 C 5.253,-1.872 2.651,-0.931 0,0 m 471.332,-13.2 c -2.967,7.784 -2.816,19.192 -14.108,17.083 -7.777,-1.452 -10.379,-9.476 -9.614,-22.369 7.614,19.299 15.229,6.956 23.722,5.286 M 328.613,-208.232 c -5.299,-2.794 -14.895,-2.658 -12.029,-12.115 2.274,-7.502 10.236,-7.247 15.478,-4.403 7.934,4.305 5.782,12.832 3.061,19.052 -3.003,6.865 -9.04,7.53 -16.166,3.509 3.541,-4.237 8.197,-1.825 9.656,-6.043 m 141.585,0.166 c -5.479,-2.979 -15.683,-2.478 -12.451,-12.925 2.156,-6.97 8.936,-5.428 14.206,-4.354 10.194,2.079 6.566,10.612 5.667,16.134 -1.565,9.607 -8.434,10.736 -16.913,8.476 1.398,-6.851 7.787,-2.856 9.491,-7.331 m -73.023,-13.621 c 7.279,-4.627 15.44,-7.286 19.723,1.384 4.401,8.907 -1.663,12.958 -9.978,14.725 -2.478,0.527 -5.739,2.129 -4.557,5.555 1.439,4.168 4.482,3.568 7.908,1.754 3.232,-1.71 5.357,0.131 5.535,3.47 0.136,2.564 -2.076,3.685 -4.307,4.12 -6.497,1.264 -12.755,0.381 -15.67,-6.123 -3.253,-7.257 1.589,-10.961 7.687,-13.938 2.995,-1.461 9.206,-0.317 7.994,-6.177 -1.019,-4.925 -6.014,-3.51 -9.713,-3.786 -1.557,-0.117 -3.082,-0.643 -4.622,-0.984 m -224.38,21.664 c -0.176,-10.049 -4.612,-19.117 2.939,-24.993 6.026,-4.689 10.369,2.606 14.325,6.193 5.599,-2.543 -0.579,-10.218 6.119,-12.343 4.063,6.078 6.904,12.4 8.028,19.645 -11.809,-1.033 -21.724,2.501 -31.411,11.498 m 103.781,-26.898 c -1.978,17.156 -12.123,28.546 -12.002,43.067 -6.96,-13.271 -14.284,-25.804 -17.181,-41.773 14.107,12.732 15.208,12.734 29.183,-1.294 m -81.55,189.653 h 0.222 c 0,-8.33 -0.028,-16.66 0.013,-24.99 0.017,-3.349 -0.068,-7.221 4.42,-7.553 4.705,-0.349 4.902,3.491 4.906,6.869 0.02,17.771 0.02,35.542 -0.108,53.312 -0.024,3.434 -0.946,7.138 -5.348,6.727 -4.49,-0.419 -4.063,-4.462 -4.085,-7.711 -0.059,-8.884 -0.02,-17.769 -0.02,-26.654 m -567.585,-3.411 c 0,-3.427 0.029,-5.646 -0.005,-7.865 -0.196,-12.618 3.754,-22.073 18.239,-22.695 14.733,-0.633 21.764,6.479 22.334,22.474 0.236,6.642 -0.113,13.309 -0.305,19.962 -0.099,3.397 -0.441,7.269 -4.996,6.989 -4.191,-0.258 -4.79,-3.903 -4.777,-7.412 0.029,-7.763 0.294,-15.531 0.076,-23.287 -0.184,-6.51 -3.468,-10.142 -10.446,-10.127 -6.953,0.015 -10.075,3.712 -10.611,10.131 -0.276,3.31 0.376,6.774 -0.34,9.955 -1.573,6.989 4.681,19.88 -4.318,19.937 -10.8,0.067 -1.804,-12.821 -4.851,-18.062 m 314.663,20.889 c -9.708,-0.939 -17.481,-4.947 -20.854,-14.312 -4.724,-13.113 -3.207,-24.914 8.418,-34.505 7.668,-6.327 8.186,-13.023 2.717,-20.198 -1.677,-2.2 -1.056,-3.746 0.51,-5.681 2.253,-2.784 5.311,-5.807 8.097,-2.687 4.958,5.553 18.349,9.542 5.858,20.26 -2.936,2.519 -3.067,4.355 0.692,5.61 3.571,1.192 9.057,1.314 7.211,6.679 -1.631,4.739 -6.813,1.761 -10.376,1.793 -11.54,0.104 -15.696,7.021 -15.869,17.181 -0.178,10.46 4.384,16.897 15.855,16.937 3.292,0.012 9.224,-3.212 9.285,2.672 0.073,7.078 -7.327,4.685 -11.544,6.251 m -54.809,-30.208 c -0.035,24.009 -11.612,35.312 -29.441,28.798 -2.579,-0.943 -5.767,-1.374 -5.317,-5.026 0.491,-3.988 3.859,-3.082 6.442,-2.913 7.214,0.471 17.317,1.939 17.451,-7.122 0.123,-8.339 -9.604,-1.94 -14.758,-3.408 -8.537,-2.432 -14.062,-6.604 -13.724,-15.935 0.29,-8.009 4.25,-13.759 12.38,-15.521 16.767,-3.636 26.991,4.489 26.967,21.127 m 1136.112,4.544 c 0.01,-16.129 7.937,-25.619 21.614,-25.875 14.338,-0.269 24.658,10.277 24.704,25.244 0.046,15.027 -10.527,26.525 -24.031,26.132 -13.817,-0.403 -22.296,-10.104 -22.287,-25.501 M 54.615,-46.168 c 0.197,-16.022 8.316,-25.22 22.247,-25.206 14.705,0.014 23.881,10.093 23.69,26.021 -0.188,15.614 -10.036,25.822 -24.488,25.381 C 62.665,-20.38 54.421,-30.449 54.615,-46.168 m 405.956,25.707 c -15.354,-0.118 -24.029,-11.285 -23.031,-27.611 1.024,-16.757 11.757,-25.326 29.368,-23.064 3.925,0.504 10.419,-0.837 9.926,5.658 -0.431,5.689 -5.959,2.892 -9.379,2.915 -8.453,0.057 -19.413,-0.046 -19.012,10.304 0.274,7.08 11.201,1.988 17.104,3.707 4.345,1.265 10.631,-2.883 12.902,3.852 1.832,5.433 0.464,10.858 -2.632,15.818 -3.931,6.297 -9.644,8.771 -15.246,8.421 m 401.587,-29.137 c 0.157,23.091 -7.319,32.081 -24.959,29.414 -3.849,-0.581 -10.574,0.106 -9.545,-6.327 0.887,-5.545 6.424,-1.883 9.833,-2.136 5.62,-0.417 12.928,-0.04 13.158,-6.979 0.297,-8.939 -7.505,-3.077 -11.449,-3.811 -9.087,-1.69 -16.153,-5.041 -16.56,-15.341 -0.316,-8.03 3.314,-13.973 11.556,-16.112 15.461,-4.013 27.859,5.474 27.966,21.292 m -550.087,3.899 c -0.072,-18.094 10.533,-27.579 28.763,-25.434 4.029,0.474 10.46,-0.705 10.051,5.6 -0.356,5.481 -5.987,2.994 -9.411,2.901 -8.123,-0.219 -18.772,0.377 -18.361,9.353 0.471,10.267 11.853,4.526 17.6,4.299 13.946,-0.552 14.651,5.972 11.259,16.186 -3.334,10.041 -11.176,14.022 -20.835,12.344 -13.609,-2.364 -19.058,-12.044 -19.066,-25.249 m 374.245,-5.694 c 0.077,25.738 -7.964,34.845 -26.722,30.949 -3.612,-0.75 -8.817,-0.589 -8.161,-6.039 0.604,-5.024 5.052,-2.482 8.043,-2.469 6.514,0.028 15.796,1.66 15.963,-6.997 0.166,-8.655 -8.657,-2.719 -13.259,-3.597 -8.765,-1.674 -14.603,-5.782 -15.062,-14.872 -0.394,-7.811 2.872,-14.015 11.113,-16.423 8.678,-2.536 16.8,2.529 25.675,2.207 4.731,-0.171 1.232,11.712 2.41,17.241 m 293.381,-41.52 c 9.547,5.908 12.539,14.83 12.159,25.559 -0.333,9.406 -1.02,18.911 -0.071,28.222 1.173,11.519 -0.233,17.471 -14.54,18.038 -17.426,0.691 -27.143,-4.532 -28.803,-20.988 -1.942,-19.266 6.373,-29.183 24.383,-29.116 2.857,0.01 6.803,3.439 8.106,-1.821 0.995,-4.017 -0.502,-7.667 -4.13,-10.067 -4.919,-3.254 -10.447,-3.54 -16.008,-2.706 -5.378,0.806 -10.188,1.241 -10.356,-6.286 -0.24,-2.97 -6.532,-4.293 -2.916,-7.948 6.043,-6.106 26.557,-1.312 32.176,7.113 m -248.949,54.145 c 12.99,1.483 17.164,-5.536 14.678,-16.795 -1.497,-6.782 -2.478,-13.52 1.501,-18.867 4.732,-6.36 5.133,0.202 6.316,3.256 5.673,0.568 7.152,4.125 7.017,9.264 -0.175,6.67 0.345,13.368 -0.015,20.022 -0.463,8.523 4.204,12.805 11.703,13.078 7.777,0.283 9.998,-5.872 10.268,-12.534 0.294,-7.222 0.112,-14.464 0.434,-21.685 0.116,-2.59 0.26,-6.009 4.204,-5.798 3.837,0.204 3.68,3.682 3.755,6.189 0.266,8.893 0.835,17.85 0.094,26.682 -1.13,13.471 -11.126,19.645 -23.607,13.876 -6.537,-3.022 -10.818,-3.572 -17.409,0.155 -8.324,4.707 -29.454,-0.757 -29.675,-6.398 -0.456,-11.659 0.014,-23.355 0.137,-35.035 0.038,-3.612 0.998,-6.88 5.407,-6.567 3.711,0.264 3.609,3.58 3.775,6.324 0.501,8.276 0.949,16.555 1.417,24.833 M 238.495,-65.591 c 0.647,-1.589 1.294,-3.179 1.942,-4.768 -5.966,-7.315 2.145,-7.19 4.902,-7.595 8.093,-1.191 17.063,-3.397 21.998,6.618 15.248,8.297 17.98,21.871 13.666,36.822 -4.716,16.343 -18.942,14.784 -32.839,13.107 0,7.313 1.423,13.799 -0.322,19.276 -2.853,8.951 -6.935,6.548 -9.747,-0.684 -6.921,-20.97 -6.689,-41.895 0.4,-62.776 m -682.038,52.935 c -1.016,-0.395 -2.757,-0.578 -2.943,-1.215 -5.801,-19.881 -3.643,-40.308 -1.536,-60.182 0.857,-8.084 6.903,-3.899 8.43,2.472 8.787,3.112 6.276,10.634 6.32,16.901 0.056,7.849 -1.93,15.484 11.464,13.835 3.59,-0.442 16.401,-3.215 15.794,6.087 -0.537,8.239 -11.717,1.833 -17.017,5.638 -2.349,3.341 -5.881,3.157 -9.357,3.139 -0.107,2.403 -0.214,4.807 -0.32,7.21 10.229,0.502 21.302,-2.77 29.547,6.606 1.481,4.201 3.612,9.298 -3.401,9.762 -9.762,0.646 -19.601,0.146 -29.408,0.118 -7.212,-0.02 -6.695,-5.711 -7.573,-10.371 m 453.96,-27.37 c -4.982,-0.052 -10.197,0.818 -14.895,-0.364 -7.85,-1.977 -11.765,-7.607 -11.126,-16.091 0.629,-8.342 4.854,-13.486 13.066,-14.8 18.096,-2.895 26.07,3.84 26.151,21.773 0.015,3.326 0.151,6.671 -0.127,9.977 -1.299,15.423 -15.663,24.103 -30.025,18.058 -1.778,-0.748 -4.187,-2.596 -4.329,-4.118 -0.359,-3.842 2.824,-3.837 5.703,-3.65 7.641,0.495 16.118,2.795 18.5,-8.36 -0.973,-0.808 -1.945,-1.617 -2.918,-2.425 m 601.735,27.25 c 8.418,6.14 5.255,9.933 -2.843,11.46 -15.039,2.835 -27.677,-1.989 -36.421,-14.574 -8.047,-11.58 -6.663,-33.499 2.107,-44.23 10.196,-12.476 23.947,-12.592 38.174,-10.377 2.961,0.461 5.119,2.423 4.358,5.814 -0.602,2.683 -3.108,2.777 -5.281,2.774 -8.186,-0.009 -16.793,-2.405 -23.712,4.397 -1.178,10.824 2.122,19.33 9.913,27.602 4.836,5.135 13.008,8.458 13.705,17.134 m -900.566,-32.477 c 14.191,1.913 13.466,-7.31 12.646,-16.784 -0.612,-7.072 1.891,-13.527 8.521,-15.707 2.668,-0.876 10.922,-0.271 8.697,7.97 0.008,9.967 0.083,19.935 0.003,29.901 -0.064,8.03 -0.757,17.108 -10.23,18.473 -10.916,1.572 -22.529,1.437 -31.087,-8.092 -11.202,-10.391 -3.605,-23.799 -5.539,-35.678 -0.643,-3.95 -2.027,-9.695 2.736,-11.884 6.097,-2.803 10.101,1.578 13.209,6.452 0.348,8.45 0.696,16.9 1.044,25.349 M 897.67,-70.573 c 14.936,1.129 7.177,12.603 7.79,19.145 0.946,10.076 -1.321,20.388 13.349,22.032 5.02,0.562 5.416,8.14 2.63,7.752 -9.149,-1.273 -19.993,2.449 -27.349,-6.494 -8.215,-14.338 -2.579,-29.808 -3.573,-44.734 -0.149,-2.24 1.454,-4.579 3.962,-3.122 1.58,0.918 2.162,3.555 3.191,5.421 m -506.055,-1.229 c 1.063,1.916 2.875,3.76 3.068,5.76 1.417,14.669 -3.979,31.968 16.574,38.756 2.733,0.903 1.429,6.175 -1.261,6.482 -7.708,0.88 -14.872,-5.632 -23.021,-2.293 -0.667,-4.283 -1.334,-8.565 -2.001,-12.847 -10.855,-11.752 -6.628,-25.301 -2.916,-37.723 1.947,-6.516 6.81,-1.782 9.557,1.865 m -103.87,-124.424 c -0.2,1.619 0.178,4.132 -0.702,4.701 -3.529,2.285 -4.943,-0.026 -4.949,-3.301 -0.017,-8.89 0.062,-17.784 0.383,-26.666 0.041,-1.133 1.744,-2.206 2.449,-3.038 5.86,2.091 0.668,10.792 7.947,11.397 4.708,-2.952 3.673,-10.802 10.876,-12.272 5.452,6.852 7.843,14.813 8.553,25.577 -6.783,-15.674 -13.322,-7.534 -19.817,-2.277 -1.58,1.96 -3.16,3.919 -4.74,5.879 m 67.303,-7.303 c 0.897,-4.283 1.797,-8.566 2.689,-12.851 1.893,-9.091 8.052,-11.454 16.096,-9.35 7.007,1.834 9.42,7.605 8.344,14.177 -1.322,8.07 -6.32,12.982 -14.965,11.876 -4.195,-0.537 -8.192,-2.617 -12.279,-3.998 -3.934,8.227 -11.192,0.485 -11.422,-0.13 -2.52,-6.748 -1.921,-13.685 0.781,-20.474 4.736,6.856 1.227,16.95 10.756,20.75 m 88.439,-7.311 c -3.166,-4.089 -10.667,-7.675 -7.781,-12.742 3.053,-5.361 10.163,-2.25 15.694,-1.21 -0.242,5.376 -10.46,4.927 -5.497,11.839 3.357,2.74 8.699,6.249 5.593,10.271 -4.015,5.201 -10.518,2.845 -15.654,1.372 -1.406,-7.626 11.169,-0.886 7.645,-9.53 m -622.505,141.78 c 1.206,9.072 2.206,18.119 -3.31,26.347 -0.307,12.671 -0.68,25.342 -0.884,38.015 -0.067,4.181 -0.377,8.287 -5.824,7.833 -4.302,-0.359 -4.511,-4.133 -4.385,-7.575 0.214,-5.881 2.041,-11.849 -0.973,-18.028 -17.152,6.248 -27.651,-0.553 -33.111,-16.925 -11.706,-2.327 -11.242,-13.71 -9.862,-19.826 2.21,-9.799 9.162,-21.214 20.113,-21.689 10.105,-0.438 25.137,-9.51 30.691,8.775 1.289,1.169 2.579,2.338 3.868,3.507 1.215,-0.155 2.431,-0.31 3.677,-0.434 m -664.351,-1385.06 c -2.594,5.244 -1.886,10.871 -1.887,16.41 -0.13,505.44 -0.311,1010.88 -0.213,1516.321 0.004,24.388 -1.754,48.873 1.53,73.214 2.406,0.35 4.813,0.701 7.219,1.051 15.316,0.032 30.633,0.065 45.947,0.096 1.416,-0.01 2.833,-0.018 4.251,-0.026 88.763,0.019 177.527,0.038 266.289,0.056 1.423,0.037 2.848,0.076 4.273,0.114 15.309,-0.018 30.617,-0.035 45.924,-0.054 2.488,-0.051 4.978,-0.102 7.469,-0.152 50.95,0.012 101.9,0.023 152.849,0.035 2.49,0.008 4.981,0.017 7.473,0.026 69.857,0.014 139.715,0.028 209.571,0.04 1.422,0.033 2.847,0.067 4.272,0.1 27.581,-0.054 55.162,-0.108 82.741,-0.163 6.897,-1.922 13.794,-2.058 20.687,0.036 9.789,0.049 19.579,0.098 29.367,0.146 3.59,-1.54 7.176,-1.48 10.758,0.034 4.181,-0.101 8.362,-0.201 12.54,-0.303 1.408,-0.033 2.817,-0.066 4.227,-0.099 15.299,-0.005 30.599,-0.009 45.897,-0.015 1.405,0.01 2.811,0.021 4.217,0.032 17.51,0.035 35.02,0.07 52.528,0.104 1.411,0.056 2.824,0.113 4.237,0.17 15.302,-0.011 30.604,-0.021 45.903,-0.033 1.409,-0.001 2.821,0 4.232,0 124.397,-0.057 248.794,-0.113 373.19,-0.171 1.422,0.007 2.845,0.015 4.268,0.022 33.124,0.032 66.249,0.063 99.371,0.093 2.485,-0.031 4.972,-0.061 7.459,-0.092 15.328,-0.026 30.657,-0.053 45.984,-0.08 2.482,0.063 4.966,0.127 7.45,0.191 21.988,0.018 43.975,0.037 65.961,0.055 1.416,0.008 2.835,0.018 4.254,0.027 6.415,-0.018 12.831,-0.037 19.244,-0.056 4.682,-1.813 9.375,-1.755 14.075,-0.061 69.897,-0.072 139.794,-0.144 209.69,-0.217 2.481,0.076 4.964,0.153 7.447,0.229 1.945,0.008 3.889,0.016 5.832,0.023 1.419,0.02 2.839,0.042 4.26,0.063 48.683,-0.058 97.367,-0.116 146.05,-0.175 1.42,0.026 2.842,0.053 4.263,0.08 50.914,-0.028 101.827,-0.056 152.738,-0.085 1.422,-0.016 2.845,-0.032 4.267,-0.048 16.422,-0.017 32.844,-0.034 49.264,-0.052 1.412,-0.092 2.827,-0.184 4.241,-0.277 13.087,0.391 8.245,-9.703 8.261,-15.57 0.287,-100.186 0.218,-200.373 0.215,-300.559 -0.019,-571.062 -0.043,-1142.124 -0.049,-1713.185 0,-5.005 0.224,-10.011 0.344,-15.016 -14.006,13.512 -22.332,31.045 -32.059,47.338 -32.354,54.194 -80.421,81.358 -142.339,85.863 -18.296,1.331 -36.676,2.893 -54.977,2.484 -44.53,-0.995 -79.105,17.415 -107.786,50.481 -20.382,23.499 -41.878,46.117 -63.937,68.062 -77.799,77.398 -166.255,136.768 -274.694,163.089 -74.785,18.152 -150.161,31.133 -227.164,34.021 -134.131,5.032 -268.068,6.646 -400.695,-19.479 -124.33,-24.49 -248.582,-49.249 -375.015,-61.178 -62.856,-5.93 -125.159,-7.365 -187.688,3.795 -113.817,20.312 -218.622,62.862 -315.997,124.547 -2.863,1.814 -5.204,4.423 -8.568,1.152 -30.231,-14.39 -60.643,-28.416 -90.593,-43.37 -10.252,-5.118 -20.989,-10.105 -28.868,-19.084" style="fill:#5b6346;fill-opacity:1;fill-rule:nonzero;stroke:none" transform="matrix(1.3333333,0,0,-1.3333333,1196.2773,273.11467)" />
      <path id="path3" d="m 0,0 c 3.364,3.271 5.705,0.662 8.568,-1.152 97.375,-61.686 202.18,-104.235 315.997,-124.547 62.529,-11.16 124.832,-9.726 187.688,-3.795 126.433,11.928 250.685,36.688 375.015,61.178 132.627,26.124 266.564,24.511 400.695,19.479 77.003,-2.889 152.379,-15.869 227.164,-34.022 108.439,-26.32 196.895,-85.69 274.694,-163.088 22.059,-21.946 43.555,-44.563 63.937,-68.062 28.681,-33.066 63.256,-51.476 107.786,-50.481 18.301,0.408 36.681,-1.153 54.977,-2.484 61.918,-4.505 109.985,-31.67 142.339,-85.863 9.727,-16.293 18.053,-33.826 32.058,-47.339 0.193,-88.456 0.535,-176.912 0.553,-265.368 0.064,-313.298 0.021,-626.596 0,-939.893 -0,-24.855 -0.052,-24.833 -24.714,-24.831 -77.907,0.01 -155.814,-0.066 -233.722,0.093 -6.343,0.013 -13.542,-2.632 -18.744,3.744 2.929,6.542 8.748,9.765 14.87,12.265 28.269,11.548 56.565,23.033 84.951,34.291 41.232,16.352 82.55,32.49 123.831,48.719 4.886,4.917 7.098,10.479 7.046,17.767 -0.324,45.604 -0.519,91.216 0.047,136.815 0.168,13.614 -5.58,17.13 -18.062,16.855 -27.795,-0.614 -55.613,-0.13 -83.421,-0.208 -7.311,-0.021 -14.099,0.955 -20.895,4.329 -104.852,52.043 -209.777,103.939 -314.762,155.714 -43.746,21.574 -88.109,41.953 -131.242,64.678 -12.492,6.582 -29.434,7.547 -36.492,23.11 56.532,19.852 112.735,39.968 174.566,34.927 52.139,-4.25 103.496,-13.698 155.308,-19.973 33.581,-4.067 66.66,-3.025 97.436,13.576 34.932,18.841 72.115,31.615 110.482,41.235 l 19.655,2.691 c 2.084,-2.016 4.358,-1.879 6.733,-0.596 7.491,5.868 7.425,14.001 7.408,22.527 -0.154,78.43 -1.842,156.92 0.777,235.263 1.033,30.872 -10.078,50.464 -32.01,69.516 -54.353,47.217 -107.349,96.001 -160.712,144.353 -40.667,36.847 -80.924,74.149 -121.611,110.974 -53.462,48.387 -107.339,96.317 -160.716,144.797 -43.93,39.9 -86.941,80.825 -131.391,120.13 -10.56,9.339 -19.346,21.737 -33.769,26.415 -2.094,3.81 -5.453,5.152 -9.651,5.397 -18.252,1.062 -36.498,2.227 -54.742,3.413 -36.49,2.37 -72.987,4.647 -109.464,7.201 -60.206,4.215 -120.393,8.693 -180.599,12.917 -35.367,2.482 -70.763,4.553 -106.129,7.049 -60.199,4.249 -120.398,8.523 -180.572,13.107 -36.97,2.817 -73.849,7.651 -110.858,8.863 -23.642,0.774 -47.253,5.847 -71.024,1.997 -5.479,-0.849 -11.181,-0.997 -16.404,-2.654 -62.522,-19.835 -124.974,-39.887 -187.44,-59.897 -143.418,-45.941 -286.875,-91.76 -430.176,-138.063 -12.499,-4.039 -14.998,-1.111 -14.88,11.201 0.523,54.546 0.317,109.1 0.223,163.651 C 0.474,-154.72 0.209,-77.36 0,0" style="fill:#cfc1af;fill-opacity:1;fill-rule:nonzero;stroke:none" transform="matrix(1.3333333,0,0,-1.3333333,231.06667,2128.6691)" />
      <path id="path4" d="m 0,0 c 0.209,-77.36 0.474,-154.72 0.606,-232.079 0.094,-54.551 0.3,-109.105 -0.223,-163.651 -0.118,-12.312 2.381,-15.24 14.88,-11.201 143.301,46.303 286.758,92.122 430.176,138.063 62.466,20.01 124.918,40.062 187.44,59.897 5.223,1.657 10.925,1.805 16.397,2.645 -0.271,-73.926 -0.521,-147.842 -0.832,-221.758 -0.019,-4.602 1.018,-8.788 3.449,-12.658 -51.921,-14.38 -103.882,-28.617 -155.755,-43.165 -163.157,-45.761 -326.281,-91.639 -489.417,-137.471 -9.318,-3.042 -5.85,-11.024 -5.884,-16.95 -0.264,-46.017 -0.148,-92.037 -0.009,-138.056 0.05,-16.48 2.539,-17.388 18.826,-12.488 25.899,7.792 50.819,18.761 77.525,23.902 -0.034,-54.868 -0.063,-109.735 -0.106,-164.602 -0.028,-35.388 -0.039,-35.384 33.401,-22.778 1.028,0.387 2.279,0.265 3.233,0.755 23.03,11.838 48.147,19.164 70.439,32.589 5.858,1.612 12.028,2.518 17.529,4.941 106.395,46.844 214.525,89.027 326.812,119.638 32.543,8.872 64.914,20.029 99.482,18.751 0.245,-84.174 0.49,-168.348 0.736,-252.522 -32.527,-3.602 -64.978,-8.282 -97.597,-10.552 -49.897,-3.473 -94.636,-22.28 -138.931,-43.173 -3.125,-1.474 -3.562,-3.772 -4.263,-6.366 17.761,-18.4 42.855,-27.285 60.808,-44.584 25.229,-24.309 51.881,-16.058 79.474,-9.67 33.56,4.212 67.121,8.423 100.679,12.637 -0.18,-7.181 -0.495,-14.364 -0.515,-21.548 -0.226,-78.546 -0.405,-157.092 -0.597,-235.639 -40.544,-0.026 -81.016,-0.087 -121.604,-2.014 -69.927,-3.32 -140.025,-0.428 -210.084,-3.59 -57.761,-2.607 -115.73,-0.576 -173.607,-0.727 -5.984,-0.016 -12.314,1.565 -17.796,-2.454 -82.083,7.001 -164.166,14.001 -246.248,21.001 0.183,71.739 0.506,143.478 0.522,215.217 0.043,189.627 -0.066,379.253 -0.078,568.88 -0.009,122.893 0.125,245.787 0.031,368.68 -0.036,47.81 -0.554,95.62 -0.76,143.43 -0.024,5.481 -0.961,11.192 2.399,16.215 7.88,8.98 18.617,13.967 28.869,19.085 C -60.643,-28.417 -30.231,-14.39 0,0" style="fill:#948168;fill-opacity:1;fill-rule:nonzero;stroke:none" transform="matrix(1.3333333,0,0,-1.3333333,231.06667,2128.6691)" />
      <path id="path5" d="m 0,0 c 82.083,-7 164.165,-14.001 246.245,-21.002 53.716,-4.669 107.424,-9.463 161.156,-13.982 135.738,-11.415 271.481,-22.794 407.245,-33.895 11.658,-0.952 16.057,-4.917 15.893,-17.357 -0.661,-50.072 0.337,-100.166 -0.423,-150.235 -0.244,-16.098 3.938,-15.794 16.129,-9.065 104.662,57.769 209.66,114.927 314.325,172.689 20.292,11.199 42.048,19.929 60.377,34.575 50.14,-2.29 100.278,-4.599 150.419,-6.84 4.69,-0.21 8.964,-0.664 9.87,-6.466 -53.827,-29.038 -107.576,-58.221 -161.496,-87.084 -125.038,-66.933 -250.183,-133.667 -375.157,-200.72 -4.825,-2.589 -14.125,-3.67 -12.222,-10.997 1.536,-5.915 9.739,-2.801 14.901,-2.829 48.978,-0.266 97.958,-0.32 146.938,-0.282 184.772,0.142 369.545,0.34 554.317,0.518 -5.258,-4.462 -11.604,-3.097 -17.599,-3.098 -228.088,-0.031 -456.175,-0.078 -684.262,0.031 -274.251,0.13 -548.502,0.395 -822.754,0.618 -24.947,0.02 -25.215,0.301 -25.226,25.096 -0.047,103.474 -0.094,206.948 -0.036,310.422 C -1.356,-13.269 -0.474,-6.634 0,0" style="fill:#cfc1af;fill-opacity:1;fill-rule:nonzero;stroke:none" transform="matrix(1.3333333,0,0,-1.3333333,68.9652,3961.838)" />
      <path id="path6" d="m 0,0 c -184.772,-0.177 -369.545,-0.376 -554.317,-0.518 -48.98,-0.037 -97.96,0.017 -146.938,0.282 -5.162,0.028 -13.365,-3.085 -14.901,2.83 -1.903,7.326 7.397,8.408 12.222,10.997 124.974,67.052 250.119,133.786 375.157,200.72 53.92,28.863 107.669,58.046 161.496,87.084 7.747,2.12 15.378,6.888 23.473,1.024 1.286,-7.294 8.201,-9.005 13.1,-11.838 56.698,-32.792 114.047,-64.48 170.289,-98.026 18.62,-11.105 37.288,-10.806 57.383,-10.885 25.941,-0.103 52.093,2.001 77.882,-2.697 63.021,-11.48 122.122,-36.11 182.862,-55.178 47.631,-14.953 94.429,-31.341 145.878,-26.495 26.468,2.493 53.36,0.46 80.059,0.564 4.83,0.019 10.125,-1.773 14.049,2.867 8.46,-2.754 17.17,-2.772 25.968,-2.875 29.114,-0.342 58.263,1.611 87.344,-1.163 C 669.725,80.464 628.408,64.326 587.176,47.974 558.79,36.716 530.493,25.231 502.224,13.684 496.103,11.183 490.283,7.961 487.354,1.418 486.302,0.973 485.25,0.527 484.199,0.082 471.584,-1.734 460.367,1.125 449.435,8.046 432.02,19.073 413.293,27.951 393.615,34.018 301.765,62.338 209.67,70.104 117.12,36.507 80.679,23.279 42.126,16.546 6.348,1.16 4.232,0.773 2.116,0.387 0,0" style="fill:#746247;fill-opacity:1;fill-rule:nonzero;stroke:none" transform="matrix(1.3333333,0,0,-1.3333333,2133.6543,4432.468)" />
      <path id="path7" d="m 0,0 c 35.779,15.386 74.331,22.119 110.772,35.347 92.55,33.597 184.645,25.832 276.495,-2.488 19.678,-6.068 38.405,-14.946 55.82,-25.972 10.932,-6.922 22.149,-9.78 34.764,-7.965 -3.993,-4.238 -9.25,-3.126 -14.119,-3.121 C 314.896,-4.056 166.06,-3.873 17.224,-3.572 11.365,-3.56 4.836,-5.485 0,0" style="fill:#cfc1af;fill-opacity:1;fill-rule:nonzero;stroke:none" transform="matrix(1.3333333,0,0,-1.3333333,2142.1179,4430.9217)" />
      <path id="path12" d="m 0,0 c 14.423,-4.678 23.209,-17.076 33.77,-26.415 44.449,-39.304 87.46,-80.23 131.39,-120.13 53.377,-48.48 107.254,-96.41 160.716,-144.797 40.688,-36.825 80.945,-74.127 121.612,-110.974 53.363,-48.352 106.359,-97.136 160.712,-144.353 21.931,-19.052 33.042,-38.643 32.01,-69.516 -2.62,-78.343 -0.932,-156.833 -0.777,-235.263 0.017,-8.526 0.082,-16.659 -7.408,-22.527 -2.084,1.208 -4.169,2.416 -6.254,3.624 -209.097,54.191 -418.195,108.382 -627.292,162.573 -0.033,76.015 -0.096,152.03 -0.041,228.044 0.004,5.728 -2.14,12.79 6.555,14.847 114.403,-27.896 228.805,-55.793 343.208,-83.689 0.411,0.837 0.822,1.673 1.232,2.51 C 232.365,-440.891 115.296,-335.717 -1.772,-230.542 -0.954,-153.696 -3.205,-76.827 0,0" style="fill:#eee5de;fill-opacity:1;fill-rule:nonzero;stroke:none" transform="matrix(1.3333333,0,0,-1.3333333,2194.1621,2483.6839)" />
      <path id="path13" d="m 0,0 c -3.205,-76.827 -0.954,-153.696 -1.772,-230.542 -45.47,2.984 -90.949,5.834 -136.408,8.977 -141.44,9.78 -282.87,19.719 -424.31,29.504 -85.973,5.947 -171.959,11.725 -257.939,17.58 -2.43,3.871 -3.467,8.056 -3.448,12.658 0.311,73.916 0.56,147.833 0.831,221.758 23.779,3.859 47.39,-1.213 71.032,-1.988 37.008,-1.212 73.887,-6.046 110.857,-8.863 60.175,-4.584 120.373,-8.858 180.572,-13.107 35.366,-2.496 70.762,-4.567 106.13,-7.049 60.205,-4.224 120.393,-8.702 180.599,-12.917 36.477,-2.554 72.973,-4.831 109.463,-7.201 C -46.148,7.624 -27.902,6.459 -9.65,5.397 -5.452,5.153 -2.094,3.811 0,0" style="fill:#b09f89;fill-opacity:1;fill-rule:nonzero;stroke:none" transform="matrix(1.3333333,0,0,-1.3333333,2194.1621,2483.6839)" />
      <path id="path14" d="m 0,0 c -33.56,-4.211 -67.121,-8.422 -100.681,-12.634 -15.838,13.139 -31.677,26.277 -47.515,39.416 37.173,18.419 77.304,27.482 117.73,33.589 33.33,5.036 67.394,5.128 101.11,7.705 54.711,4.181 109.398,8.674 164.107,12.895 32.074,2.474 64.181,4.516 96.252,7.035 53.596,4.211 107.177,8.599 160.757,13.007 36.448,3 72.833,7.423 109.339,8.863 30.544,1.204 61.256,8.966 91.795,-5.223 27.095,-12.588 56.286,-20.586 84.141,-31.643 27.533,-10.93 55.362,-15.552 85.315,-16.513 40.403,-1.296 80.934,-2.245 121.388,-4.912 66.255,-4.367 130.554,-18.35 195.011,-32.404 34.119,-7.439 67.427,-20.117 102.516,-21.232 47.599,-1.513 95.059,-7.437 142.791,-4.92 3.45,0.181 4.594,-2.479 5.025,-5.451 -38.367,-9.619 -75.55,-22.394 -110.482,-41.235 -30.776,-16.6 -63.855,-17.643 -97.436,-13.576 -51.812,6.275 -103.169,15.723 -155.308,19.974 -61.83,5.04 -118.034,-15.076 -174.566,-34.928 -20.421,-0.376 -34.963,14.904 -53.321,20.021 -16.565,5.052 -33.804,4.495 -50.775,5.73 -70.31,5.114 -140.66,9.662 -210.978,14.67 -74.168,5.283 -148.313,10.898 -222.474,16.28 -53.713,3.898 -107.44,7.612 -161.155,11.482 C 128.387,-9.378 64.195,-4.671 0,0" style="fill:#746247;fill-opacity:1;fill-rule:nonzero;stroke:none" transform="matrix(1.3333333,0,0,-1.3333333,1096.2359,3635.2148)" />
      <path id="path15" d="m 0,0 c 18.358,-5.117 32.9,-20.397 53.321,-20.021 7.058,-15.563 24,-16.527 36.492,-23.109 43.133,-22.726 87.497,-43.104 131.242,-64.678 104.985,-51.775 209.91,-103.671 314.762,-155.715 6.797,-3.373 13.584,-4.35 20.895,-4.329 27.809,0.079 55.626,-0.405 83.422,0.208 12.482,0.276 18.229,-3.241 18.061,-16.855 -0.566,-45.599 -0.371,-91.211 -0.047,-136.814 0.052,-7.289 -2.159,-12.85 -7.046,-17.768 -29.081,2.774 -58.23,0.821 -87.344,1.163 -8.798,0.104 -17.508,0.122 -25.969,2.876 -112.717,40.192 -225.456,80.322 -338.141,120.6 -67.779,24.226 -135.474,48.685 -203.207,73.039 6.364,23.014 1.017,46.183 1.101,69.293 0.176,48.634 0.984,97.269 1.998,145.894 C -0.278,-17.482 -3.948,-8.648 0,0" style="fill:#eee5de;fill-opacity:1;fill-rule:nonzero;stroke:none" transform="matrix(1.3333333,0,0,-1.3333333,2213.5264,3718.1032)" />
      <path id="path16" d="m 0,0 c -0.431,2.971 -1.575,5.632 -5.025,5.45 -47.732,-2.517 -95.192,3.407 -142.791,4.92 -35.089,1.116 -68.397,13.794 -102.516,21.233 -64.457,14.054 -128.756,28.036 -195.011,32.404 -40.454,2.667 -80.985,3.615 -121.388,4.911 -29.953,0.962 -57.782,5.584 -85.315,16.513 -27.855,11.058 -57.046,19.056 -84.141,31.644 -30.539,14.188 -61.251,6.427 -91.795,5.222 -36.506,-1.439 -72.891,-5.863 -109.339,-8.862 -53.58,-4.409 -107.161,-8.797 -160.757,-13.007 -32.071,-2.52 -64.178,-4.562 -96.253,-7.036 -54.708,-4.22 -109.395,-8.714 -164.106,-12.895 -33.716,-2.576 -67.78,-2.668 -101.11,-7.704 -40.427,-6.108 -80.557,-15.171 -117.732,-33.589 -30.923,4.947 -61.844,9.892 -92.765,14.838 0.701,2.594 1.138,4.892 4.263,6.366 44.295,20.893 89.034,39.7 138.931,43.173 32.619,2.269 65.07,6.95 97.596,10.551 20.525,1.04 41.065,1.844 61.572,3.162 70.453,4.529 140.899,9.175 211.34,13.893 110.405,7.394 220.805,14.876 331.206,22.336 72.66,4.909 145.319,9.845 217.978,14.769 C -398.06,114.101 -188.963,59.91 20.133,5.72 19.706,4.739 19.548,3.729 19.655,2.691 Z" style="fill:#453121;fill-opacity:1;fill-rule:nonzero;stroke:none" transform="matrix(1.3333333,0,0,-1.3333333,3001.6775,3651.7769)" />
      <path id="path17" d="M 0,0 C -0.108,1.039 0.051,2.048 0.478,3.029 2.564,1.82 4.649,0.612 6.733,-0.596 4.358,-1.879 2.084,-2.015 0,0" style="fill:#5b6346;fill-opacity:1;fill-rule:nonzero;stroke:none" transform="matrix(1.3333333,0,0,-1.3333333,3027.8844,3648.1895)" />
      <path id="path18" d="m 0,0 c -34.567,1.278 -66.939,-9.879 -99.482,-18.751 -112.287,-30.612 -220.417,-72.795 -326.811,-119.639 -5.502,-2.422 -11.671,-3.328 -17.53,-4.939 -15.223,22.905 -30.369,45.86 -45.705,68.689 -6.401,9.528 -8.44,18.042 -0.278,28.415 6.73,8.555 10.738,19.225 16.192,28.821 2.941,5.172 4.158,10.22 -3.484,10.823 -21.116,1.668 -40.162,11.949 -61.114,14.023 0.468,5.489 0.892,10.983 1.416,16.466 0.562,5.877 -2.514,13.772 3.386,16.954 5.894,3.179 12.703,-0.605 18.288,-4.434 12.626,-8.658 27.11,-12.635 41.779,-15.4 42.763,-8.064 85.291,-2.923 127.029,6.178 47.164,10.284 92.476,26.443 132.899,53.963 3.627,2.162 11.918,-0.507 8.872,8.566 9.035,2.121 7.899,9.295 7.887,15.898 -0.059,33.248 -0.126,66.496 -0.19,99.744 61.909,17.511 123.842,34.933 185.694,52.644 7.597,2.176 14.997,3.471 22.911,3.008 66.027,-3.867 132.071,-7.424 198.094,-11.353 140.936,-8.386 281.805,-18.238 422.836,-24.406 30.883,-1.351 51.928,-9.402 65.417,-36.33 2.861,-5.712 12.951,-8.902 6.984,-18.062 -14.917,1.653 -28.516,-4.153 -42.197,-8.269 C 574.68,136.066 491.609,97.263 410.141,54.883 391.638,45.258 371.593,37.52 357.739,20.593 300.891,17.282 244.067,13.472 187.189,10.794 124.75,7.854 62.297,5.341 0,0" style="fill:#cfc1af;fill-opacity:1;fill-rule:nonzero;stroke:none" transform="matrix(1.3333333,0,0,-1.3333333,1095.0252,3162.9032)" />
      <path id="path19" d="m 0,0 c -3.948,-8.648 -0.278,-17.482 -0.46,-26.216 -1.014,-48.625 -1.822,-97.26 -1.998,-145.894 -0.084,-23.11 5.263,-46.279 -1.101,-69.293 -2.157,-0.398 -4.332,-1.223 -6.467,-1.13 -64.573,2.828 -128.993,8.852 -193.686,9.178 -8.095,5.864 -15.726,1.096 -23.473,-1.024 -0.906,5.802 -5.18,6.256 -9.87,6.466 -50.141,2.241 -100.279,4.549 -150.419,6.84 -90.895,5.428 -181.783,10.966 -272.687,16.245 -59.629,3.463 -119.28,6.553 -178.921,9.811 0.192,78.546 0.371,157.092 0.597,235.639 0.02,7.184 0.335,14.367 0.515,21.547 64.197,-4.674 128.39,-9.38 192.588,-14.006 53.715,-3.871 107.442,-7.585 161.155,-11.483 74.162,-5.382 148.306,-10.997 222.474,-16.279 C -191.435,15.393 -121.085,10.844 -50.775,5.73 -33.804,4.495 -16.565,5.052 0,0" style="fill:#b09f89;fill-opacity:1;fill-rule:nonzero;stroke:none" transform="matrix(1.3333333,0,0,-1.3333333,2213.5264,3718.1032)" />
      <path id="path20" d="m 0,0 c 62.297,5.341 124.75,7.854 187.189,10.794 56.878,2.678 113.702,6.488 170.55,9.798 18.247,1.203 36.483,2.597 54.742,3.577 107.402,5.764 214.848,10.824 322.182,17.646 21.281,1.352 43.148,-1.086 64.024,5.674 9.941,-3.867 20.912,2.918 30.659,-2.961 -8.695,-2.057 -6.551,-9.12 -6.555,-14.847 -0.056,-76.015 0.008,-152.03 0.041,-228.045 -72.66,-4.923 -145.318,-9.859 -217.979,-14.769 -110.401,-7.459 -220.8,-14.942 -331.206,-22.336 -70.44,-4.718 -140.886,-9.363 -211.339,-13.892 C 41.8,-250.679 21.26,-251.484 0.736,-252.523 0.49,-168.349 0.245,-84.174 0,0" style="fill:#b09f89;fill-opacity:1;fill-rule:nonzero;stroke:none" transform="matrix(1.3333333,0,0,-1.3333333,1095.0252,3162.9032)" />
      <path id="path21" d="m 0,0 c -9.747,5.88 -20.718,-0.906 -30.658,2.96 0.35,5.419 -2.657,9.559 -5.606,13.511 -22.45,30.08 -44.786,60.25 -67.724,89.956 -5.732,7.423 -7.78,19.185 -20.268,19.923 5.966,9.16 -4.123,12.35 -6.984,18.062 -13.489,26.928 -34.534,34.979 -65.417,36.33 -141.031,6.168 -281.9,16.02 -422.836,24.406 -66.023,3.929 -132.067,7.487 -198.094,11.353 -7.914,0.463 -15.314,-0.832 -22.911,-3.008 -61.852,-17.711 -123.786,-35.133 -185.694,-52.644 -73.056,-19.856 -146.112,-39.712 -219.168,-59.568 0.082,-1.387 0.164,-2.774 0.246,-4.16 70.408,-17.305 140.816,-34.609 211.224,-51.914 3.047,-9.073 -5.244,-6.404 -8.87,-8.565 -2.699,9.853 -10.951,5.833 -16.679,5.884 -44.939,0.401 -89.886,0.565 -134.824,0.097 -16.879,-0.175 -32.902,3.257 -49.044,7.294 -58.445,14.62 -117.021,28.725 -175.393,43.633 -17.53,4.477 -35.771,7.086 -51.894,16.22 163.136,45.832 326.26,91.71 489.417,137.47 51.873,14.549 103.834,28.786 155.755,43.165 85.98,-5.854 171.965,-11.632 257.939,-17.58 141.44,-9.785 282.869,-19.723 424.309,-29.504 45.459,-3.143 90.939,-5.993 136.409,-8.977 C 110.303,129.17 227.371,23.995 344.44,-81.18 c -0.411,-0.836 -0.822,-1.673 -1.232,-2.509 C 228.805,-55.793 114.403,-27.897 0,0" style="fill:#453121;fill-opacity:1;fill-rule:nonzero;stroke:none" transform="matrix(1.3333333,0,0,-1.3333333,2200.82,3103.5327)" />
      <path id="path22" d="m 0,0 c 59.641,-3.257 119.292,-6.347 178.921,-9.81 90.904,-5.28 181.792,-10.818 272.687,-16.246 -18.329,-14.646 -40.085,-23.376 -60.377,-34.574 -104.665,-57.762 -209.663,-114.921 -314.325,-172.69 -12.191,-6.729 -16.373,-7.033 -16.129,9.065 0.76,50.069 -0.238,100.164 0.423,150.236 0.164,12.439 -4.235,16.404 -15.893,17.357 -135.764,11.1 -271.506,22.479 -407.245,33.895 -53.732,4.518 -107.44,9.312 -161.156,13.981 5.485,4.02 11.816,2.439 17.8,2.455 57.876,0.151 115.845,-1.88 173.607,0.727 70.058,3.162 140.156,0.27 210.083,3.59 C -81.016,-0.087 -40.543,-0.026 0,0" style="fill:#746247;fill-opacity:1;fill-rule:nonzero;stroke:none" transform="matrix(1.3333333,0,0,-1.3333333,1094.7504,3978.1264)" />
      <path id="path23" d="m 0,0 c 16.124,-9.134 34.365,-11.743 51.895,-16.22 58.371,-14.908 116.947,-29.012 175.392,-43.632 16.142,-4.038 32.165,-7.47 49.044,-7.295 44.938,0.469 89.885,0.305 134.824,-0.097 5.728,-0.051 13.98,3.969 16.679,-5.884 -40.424,-27.521 -85.736,-43.68 -132.9,-53.964 -41.737,-9.101 -84.266,-14.241 -127.029,-6.178 -14.669,2.766 -29.153,6.742 -41.779,15.4 -5.584,3.829 -12.393,7.613 -18.287,4.435 -5.901,-3.182 -2.825,-11.078 -3.387,-16.955 -0.524,-5.483 -0.948,-10.977 -1.413,-16.467 -4.192,1.088 -8.386,2.176 -12.58,3.265 -26.706,-5.141 -51.627,-16.11 -77.525,-23.902 -16.288,-4.9 -18.777,-3.992 -18.827,12.488 -0.139,46.019 -0.254,92.039 0.009,138.056 C -5.85,-11.024 -9.318,-3.042 0,0" style="fill:#68533c;fill-opacity:1;fill-rule:nonzero;stroke:none" transform="matrix(1.3333333,0,0,-1.3333333,240.02773,2957.1729)" />
      <path id="path24" d="m 0,0 c 4.194,-1.089 8.389,-2.177 12.58,-3.264 20.95,-2.073 39.995,-12.354 61.112,-14.022 7.641,-0.604 6.425,-5.651 3.484,-10.824 -5.455,-9.595 -9.462,-20.265 -16.193,-28.82 -8.161,-10.373 -6.122,-18.887 0.279,-28.416 15.335,-22.828 30.482,-45.783 45.705,-68.689 -22.292,-13.426 -47.41,-20.752 -70.439,-32.589 -0.954,-0.491 -2.205,-0.369 -3.233,-0.756 -33.44,-12.606 -33.429,-12.61 -33.401,22.778 C -0.063,-109.735 -0.035,-54.867 0,0" style="fill:#b09f89;fill-opacity:1;fill-rule:nonzero;stroke:none" transform="matrix(1.3333333,0,0,-1.3333333,360.63907,3148.6296)" />
      <path id="path25" d="m 0,0 c 30.921,-4.946 61.842,-9.891 92.765,-14.838 15.84,-13.139 31.679,-26.278 47.517,-39.416 -27.593,-6.388 -54.245,-14.639 -79.474,9.67 C 42.855,-27.285 17.761,-18.4 0,0" style="fill:#eee5de;fill-opacity:1;fill-rule:nonzero;stroke:none" transform="matrix(1.3333333,0,0,-1.3333333,774.95227,3579.7207)" />
      <path id="path26" d="m 0,0 c 64.692,-0.326 129.113,-6.351 193.686,-9.178 2.135,-0.093 4.31,0.732 6.466,1.129 67.733,-24.354 135.429,-48.812 203.208,-73.039 112.685,-40.278 225.424,-80.407 338.141,-120.6 -3.923,-4.64 -9.218,-2.848 -14.048,-2.867 -26.7,-0.104 -53.591,1.929 -80.059,-0.564 -51.45,-4.846 -98.247,11.542 -145.878,26.495 -60.74,19.068 -119.841,43.698 -182.862,55.178 -25.79,4.698 -51.942,2.594 -77.883,2.697 -20.094,0.079 -38.763,-0.22 -57.382,10.885 C 127.147,-76.318 69.798,-44.63 13.1,-11.839 8.201,-9.005 1.286,-7.294 0,0" style="fill:#453121;fill-opacity:1;fill-rule:nonzero;stroke:none" transform="matrix(1.3333333,0,0,-1.3333333,1941.9107,4029.2425)" />
      <path id="path27" d="m 0,0 c 12.488,-0.738 14.536,-12.5 20.268,-19.923 22.938,-29.706 45.274,-59.876 67.724,-89.957 2.949,-3.951 5.956,-8.091 5.607,-13.51 -20.878,-6.759 -42.745,-4.321 -64.026,-5.673 -107.334,-6.822 -214.78,-11.882 -322.182,-17.646 -18.258,-0.98 -36.495,-2.374 -54.742,-3.577 13.854,16.928 33.899,24.666 52.402,34.291 81.468,42.38 164.539,81.183 252.753,107.726 C -28.516,-4.153 -14.917,1.653 0,0" style="fill:#746247;fill-opacity:1;fill-rule:nonzero;stroke:none" transform="matrix(1.3333333,0,0,-1.3333333,2035.1451,2935.0659)" />
      <path id="path28" d="m 0,0 c -70.408,17.305 -140.817,34.609 -211.225,51.913 -0.082,1.387 -0.164,2.774 -0.246,4.161 C -138.415,75.93 -65.359,95.786 7.697,115.642 7.762,82.394 7.828,49.146 7.888,15.898 7.9,9.295 9.035,2.121 0,0" style="fill:#eee5de;fill-opacity:1;fill-rule:nonzero;stroke:none" transform="matrix(1.3333333,0,0,-1.3333333,822.30067,3043.2563)" />
      <path id="path29" d="m 411.714,2878.622 h 1741.071 v 315.29 H 411.714 Z" style="fill:#5b6346;fill-opacity:1;fill-rule:nonzero;stroke:none" transform="matrix(1.3333333,0,0,-1.3333333,0,4493.8533)" />
      <path id="path30" d="M 8.4248328,5.8125e-4 H 18.057645 V -33.796294 h 28.253907 v -7.980469 H 18.057645 v -24.808593 h 30.585938 v -8.097657 H 8.4248328 Z M 103.03909,-53.624419 h -9.749999 v 32.90625 c 0,1.769531 -0.328125,3.539063 -0.878907,4.980469 -1.769531,4.324219 -6.316406,8.8710937 -12.855468,8.8710937 -8.859375,0 -11.964844,-6.8671877 -11.964844,-17.0624997 v -29.695313 h -9.75 v 31.359375 c 0,18.8320315 10.078125,23.4843752 18.503906,23.4843752 9.527344,0 15.175781,-5.6484375 17.730469,-9.9726562 h 0.222656 L 94.847684,5.8125e-4 H 103.4844 C 103.15628,-4.20645 103.03909,-9.08145 103.03909,-14.624419 Z M 119.21975,5.8125e-4 h 9.75 V -32.2377 c 0,-1.664063 0.22266,-3.328125 0.66797,-4.546875 1.66407,-5.425781 6.64453,-9.972656 13.07813,-9.972656 9.1875,0 12.41015,7.207031 12.41015,15.84375 V 5.8125e-4 h 9.75 V -32.015044 c 0,-18.398437 -11.53125,-22.828125 -18.94921,-22.828125 -8.8711,0 -15.07032,4.980469 -17.73047,10.078125 h -0.22266 l -0.55078,-8.859375 h -8.64844 c 0.33985,4.429688 0.44531,8.976563 0.44531,14.507813 z M 217.2764,-78.667388 v 32.015625 h -0.22266 c -2.4375,-4.3125 -7.96875,-8.191406 -16.17188,-8.191406 -13.07812,0 -24.15234,10.96875 -24.04687,28.804688 0,16.2890622 9.97266,27.2578122 22.93359,27.2578122 8.75391,0 15.29297,-4.546875 18.29297,-10.5234375 h 0.21094 l 0.44531,9.30468755 h 8.75391 C 227.14358,-3.6556688 227.0264,-9.08145 227.0264,-13.850981 v -64.816407 z m 0,56.179688 c 0,1.546875 -0.10547,2.871094 -0.4336,4.207031 -1.78125,7.3125 -7.75781,11.636719 -14.29687,11.636719 -10.52344,0 -15.84375,-8.976563 -15.84375,-19.839844 0,-11.847656 5.97656,-20.71875 16.0664,-20.71875 7.3125,0 12.63282,5.097656 14.07422,11.308594 0.32813,1.21875 0.4336,2.871094 0.4336,4.089844 z M 281.77347,5.8125e-4 C 281.1055,-3.6556688 280.88284,-8.2025438 280.88284,-12.854888 v -20.050781 c 0,-10.746094 -3.98437,-21.9375 -20.39062,-21.9375 -6.76172,0 -13.1836,1.886719 -17.61329,4.757813 l 2.21485,6.433593 c 3.76172,-2.4375 8.97656,-3.996093 13.95703,-3.996093 10.96875,0 12.1875,7.980468 12.1875,12.410156 v 1.113281 c -20.71875,-0.117187 -32.23828,6.984375 -32.23828,19.945313 0,7.7578122 5.54297,15.3984372 16.39453,15.3984372 7.65234,0 13.40625,-3.7617187 16.40625,-7.9804687 h 0.32812 l 0.77344,6.76171875 z M 271.46097,-18.058013 c 0,0.996094 -0.22266,2.097657 -0.55079,3.105469 -1.54687,4.535156 -5.98828,8.964844 -12.96093,8.964844 -4.99219,0 -9.19922,-2.9882813 -9.19922,-9.304688 0,-10.417968 12.08203,-12.292968 22.71094,-12.070312 z m 61.71386,8.7539067 c -2.76562,1.21875 -6.42187,2.6601563 -11.96484,2.6601563 -10.62891,0 -18.60938,-7.652344 -18.60938,-20.0625 0,-11.191406 6.64454,-20.273438 18.94922,-20.273438 5.3086,0 8.96485,1.21875 11.29688,2.554688 l 2.21484,-7.535156 c -2.66015,-1.335938 -7.75781,-2.777344 -13.51172,-2.777344 -17.50781,0 -28.8164,11.964844 -28.8164,28.476562 0,16.4062505 10.53515,27.3750005 26.70703,27.3750005 7.20703,0 12.85547,-1.78125 15.39844,-3.1054688 z M 384.81936,5.8125e-4 C 384.1514,-3.6556688 383.92874,-8.2025438 383.92874,-12.854888 v -20.050781 c 0,-10.746094 -3.98438,-21.9375 -20.39063,-21.9375 -6.76171,0 -13.18359,1.886719 -17.61328,4.757813 l 2.21485,6.433593 c 3.76172,-2.4375 8.97656,-3.996093 13.95703,-3.996093 10.96875,0 12.1875,7.980468 12.1875,12.410156 v 1.113281 c -20.71875,-0.117187 -32.23828,6.984375 -32.23828,19.945313 0,7.7578122 5.54297,15.3984372 16.39453,15.3984372 7.65234,0 13.40625,-3.7617187 16.40625,-7.9804687 h 0.32812 l 0.77344,6.76171875 z M 374.50686,-18.058013 c 0,0.996094 -0.22265,2.097657 -0.55078,3.105469 -1.54687,4.535156 -5.98828,8.964844 -12.96093,8.964844 -4.99219,0 -9.19922,-2.9882813 -9.19922,-9.304688 0,-10.417968 12.08203,-12.292968 22.71093,-12.070312 z m 47.86231,-36.785156 c -14.83594,0 -26.58985,10.523438 -26.58985,28.476563 0,16.9453122 11.19141,27.5859372 25.71094,27.5859372 12.96094,0 26.70703,-8.6367187 26.70703,-28.4765622 0,-16.394532 -10.41797,-27.585938 -25.82812,-27.585938 z m -0.21094,7.3125 c 11.51953,0 16.06641,11.519531 16.06641,20.601563 0,12.082031 -6.98438,20.8359372 -16.28907,20.8359372 -9.52734,0 -16.28906,-8.8593752 -16.28906,-20.6132812 0,-10.195313 4.98047,-20.824219 16.51172,-20.824219 z m 62.15918,-27.152344 V 5.8125e-4 h 9.63281 V -74.683013 Z M 519.5469,5.8125e-4 519.99222,-8.8587938 h 0.32812 c 3.99609,7.0898438 10.19531,10.078125 17.95313,10.078125 11.96484,0 24.04687,-9.5273437 24.04687,-28.6992192 0.10547,-16.289062 -9.31641,-27.363281 -22.60547,-27.363281 -8.64844,0 -14.84765,3.878906 -18.28125,9.855469 h -0.22265 v -33.679688 h -9.64454 v 64.816407 c 0,4.769531 -0.22265,10.1953122 -0.44531,13.85156225 z m 1.66407,-31.13671925 c 0,-1.546875 0.32812,-2.882812 0.55078,-3.984375 1.99218,-7.429687 8.20312,-11.964843 14.84765,-11.964843 10.41797,0 15.96094,9.1875 15.96094,19.945312 0,12.292969 -6.09375,20.6015627 -16.28906,20.6015627 -7.08985,0 -12.75,-4.6523437 -14.625,-11.4140627 -0.22266,-1.101562 -0.44531,-2.320312 -0.44531,-3.539062 z m 96.5039,6.09375 c 0.11719,-0.996093 0.33985,-2.542968 0.33985,-4.535156 0,-9.867187 -4.66407,-25.265625 -22.16016,-25.265625 -15.63281,0 -25.16016,12.738281 -25.16016,28.921875 0,16.1718752 9.86719,27.0351565 26.37891,27.0351565 8.53125,0 14.40234,-1.78125 17.83594,-3.328125 l -1.66407,-6.984375 c -3.65625,1.5585937 -7.86328,2.7773437 -14.84765,2.7773437 -9.75,0 -18.17578,-5.4375002 -18.38672,-18.6210942 z m -37.55859,-6.972656 c 0.77344,-6.761719 5.09765,-15.855469 14.95312,-15.855469 10.96875,0 13.62891,9.644532 13.52344,15.855469 z M 630.12503,5.8125e-4 h 9.64453 V -28.58145 c 0,-1.664063 0.22266,-3.222656 0.44531,-4.546875 1.32422,-7.3125 6.19922,-12.515625 13.06641,-12.515625 1.33594,0 2.33203,0.105469 3.32812,0.328125 v -9.199219 c -0.89062,-0.222656 -1.66406,-0.328125 -2.76562,-0.328125 -6.53906,0 -12.41016,4.535156 -14.84766,11.742188 h -0.44531 l -0.33984,-10.523438 h -8.53125 c 0.33984,4.980469 0.44531,10.417969 0.44531,16.722656 z M 708.35061,-25.042388 c 0.11719,-0.996093 0.33985,-2.542968 0.33985,-4.535156 0,-9.867187 -4.66406,-25.265625 -22.16016,-25.265625 -15.63281,0 -25.16015,12.738281 -25.16015,28.921875 0,16.1718752 9.86718,27.0351565 26.3789,27.0351565 8.53125,0 14.40235,-1.78125 17.83594,-3.328125 l -1.66406,-6.984375 c -3.65625,1.5585937 -7.86328,2.7773437 -14.84766,2.7773437 -9.75,0 -18.17578,-5.4375002 -18.38672,-18.6210942 z m -37.55859,-6.972656 c 0.77344,-6.761719 5.09766,-15.855469 14.95313,-15.855469 10.96875,0 13.6289,9.644532 13.52343,15.855469 z m 123.99023,21.9375 c -3.8789,1.8750002 -9.86718,3.0937502 -15.73828,3.0937502 -18.17578,0 -28.69922,-11.7421872 -28.69922,-30.0234372 0,-19.617188 11.63672,-30.796875 29.14454,-30.796875 6.19921,0 11.41406,1.324218 15.07031,3.09375 l 2.32031,-7.863282 c -2.54297,-1.324218 -8.41406,-3.328125 -17.71875,-3.328125 -23.16797,0 -39.01172,15.84375 -39.01172,39.222657 0,24.492187 15.84375,37.7929685 36.90235,37.7929685 9.08203,0 16.17187,-1.78125 19.72265,-3.5507813 z M 846.30667,5.8125e-4 C 845.6387,-3.6556688 845.41604,-8.2025438 845.41604,-12.854888 v -20.050781 c 0,-10.746094 -3.98437,-21.9375 -20.39062,-21.9375 -6.76172,0 -13.1836,1.886719 -17.61328,4.757813 l 2.21484,6.433593 c 3.76172,-2.4375 8.97656,-3.996093 13.95703,-3.996093 10.96875,0 12.1875,7.980468 12.1875,12.410156 v 1.113281 c -20.71875,-0.117187 -32.23828,6.984375 -32.23828,19.945313 0,7.7578122 5.54297,15.3984372 16.39453,15.3984372 7.65235,0 13.40625,-3.7617187 16.40625,-7.9804687 h 0.32813 l 0.77343,6.76171875 z M 835.99417,-18.058013 c 0,0.996094 -0.22266,2.097657 -0.55078,3.105469 -1.54688,4.535156 -5.98828,8.964844 -12.96094,8.964844 -4.99219,0 -9.19922,-2.9882813 -9.19922,-9.304688 0,-10.417968 12.08203,-12.292968 22.71094,-12.070312 z M 861.14554,5.8125e-4 h 9.52734 V -32.354888 c 0,-1.664062 0.22266,-3.328125 0.78516,-4.757812 1.54687,-4.875 5.97656,-9.75 12.07031,-9.75 7.42969,0 11.1914,6.199219 11.1914,14.730469 V 5.8125e-4 h 9.52735 V -33.128325 c 0,-1.769531 0.33984,-3.550781 0.77344,-4.875 1.66406,-4.769531 5.98828,-8.859375 11.53125,-8.859375 7.86328,0 11.625,6.199219 11.625,16.5 V 5.8125e-4 h 9.53906 V -31.58145 c 0,-18.609375 -10.53516,-23.261719 -17.625,-23.261719 -5.09766,0 -8.63672,1.324219 -11.84766,3.761719 -2.22656,1.664062 -4.32422,3.996094 -5.98828,6.984375 h -0.22266 c -2.32031,-6.316406 -7.86328,-10.746094 -15.17578,-10.746094 -8.87109,0 -13.85156,4.757813 -16.83984,9.855469 h -0.33984 l -0.44532,-8.636719 h -8.53125 c 0.33985,4.429688 0.44532,8.976563 0.44532,14.507813 z m 130.97461,0 C 991.45218,-3.6556688 991.22952,-8.2025438 991.22952,-12.854888 v -20.050781 c 0,-10.746094 -3.98437,-21.9375 -20.39062,-21.9375 -6.76172,0 -13.1836,1.886719 -17.61329,4.757813 l 2.21485,6.433593 c 3.76172,-2.4375 8.97656,-3.996093 13.95703,-3.996093 10.96875,0 12.1875,7.980468 12.1875,12.410156 v 1.113281 c -20.71875,-0.117187 -32.23828,6.984375 -32.23828,19.945313 0,7.7578122 5.54297,15.3984372 16.39453,15.3984372 7.65234,0 13.40625,-3.7617187 16.40625,-7.9804687 h 0.32812 l 0.77344,6.76171875 z M 981.80765,-18.058013 c 0,0.996094 -0.22266,2.097657 -0.55079,3.105469 -1.54687,4.535156 -5.98828,8.964844 -12.96093,8.964844 -4.99219,0 -9.19922,-2.9882813 -9.19922,-9.304688 0,-10.417968 12.08203,-12.292968 22.71094,-12.070312 z M 1006.959,5.8125e-4 h 9.6445 V -28.58145 c 0,-1.664063 0.2227,-3.222656 0.4454,-4.546875 1.3242,-7.3125 6.1992,-12.515625 13.0664,-12.515625 1.3359,0 2.332,0.105469 3.3281,0.328125 v -9.199219 c -0.8906,-0.222656 -1.6641,-0.328125 -2.7656,-0.328125 -6.5391,0 -12.4102,4.535156 -14.8477,11.742188 h -0.4453 l -0.3399,-10.523438 h -8.5312 c 0.3398,4.980469 0.4453,10.417969 0.4453,16.722656 z m 73.0225,-53.62500025 -0.4453,8.085938 h -0.2227 c -2.3203,-4.429688 -7.418,-9.304688 -16.7344,-9.304688 -12.2929,0 -24.1523,10.300781 -24.1523,28.476563 0,14.847656 9.5273,26.144531 22.8281,26.144531 8.3086,0 14.0742,-3.984375 17.0625,-8.9765625 h 0.2227 v 5.9882812 c 0,13.5117183 -7.3125,18.7265623 -17.2852,18.7265623 -6.6445,0 -12.1875,-1.992187 -15.7383,-4.21875 l -2.4375,7.429688 c 4.3242,2.882812 11.4141,4.429687 17.8477,4.429687 6.75,0 14.2851,-1.546875 19.5,-6.421875 5.2031,-4.652344 7.6406,-12.1874998 7.6406,-24.4921873 V -38.89395 c 0,-6.539063 0.2227,-10.851563 0.4453,-14.730469 z m -1.5469,30.796875 c 0,1.664063 -0.2227,3.550781 -0.7852,5.214844 -2.0976,6.199219 -7.5351,9.9726562 -13.5117,9.9726562 -10.5234,0 -15.8437,-8.7539062 -15.8437,-19.2890622 0,-12.410157 6.6445,-20.273438 15.9492,-20.273438 7.0898,0 11.8594,4.652344 13.6289,10.300781 0.4453,1.335938 0.5625,2.777344 0.5625,4.441407 z m 48.5186,-32.015625 c -14.836,0 -26.5899,10.523438 -26.5899,28.476563 0,16.9453122 11.1914,27.5859372 25.7109,27.5859372 12.961,0 26.7071,-8.6367187 26.7071,-28.4765622 0,-16.394532 -10.418,-27.585938 -25.8281,-27.585938 z m -0.211,7.3125 c 11.5195,0 16.0664,11.519531 16.0664,20.601563 0,12.082031 -6.9844,20.8359372 -16.289,20.8359372 -9.5274,0 -16.2891,-8.8593752 -16.2891,-20.6132812 0,-10.195313 4.9805,-20.824219 16.5117,-20.824219 z m 0,0" style="fill:#ffffff;fill-opacity:1;fill-rule:nonzero;stroke:none" aria-label="Fundacao Ibere Camargo" transform="matrix(1.3333333,0,0,1.3333333,808.23173,378.4836)" />
      <path id="path31" d="m 2.8700672,-0.07166563 c 1.0898437,0.140625 2.8242187,0.29296875 5.0976562,0.29296875 4.1484376,0 7.0195316,-0.75 8.7890626,-2.37890622 1.289062,-1.2421875 2.15625,-2.90625 2.15625,-5.0859375 0,-3.7851564 -2.835938,-5.7773434 -5.25,-6.3867184 v -0.07031 c 2.683594,-0.984375 4.300781,-3.140625 4.300781,-5.589844 0,-2.003906 -0.785156,-3.503906 -2.109375,-4.488281 -1.582031,-1.289062 -3.703125,-1.851562 -6.9843748,-1.851562 -2.3085938,0 -4.5703125,0.222656 -6,0.527343 z m 3.28125,-22.80468737 c 0.5273437,-0.117188 1.3945312,-0.222656 2.90625,-0.222656 3.3164058,0 5.5898438,1.171875 5.5898438,4.148437 0,2.449219 -2.039063,4.265625 -5.5195313,4.265625 H 6.1513172 Z m 0,10.6875 h 2.71875 c 3.5859378,0 6.5624998,1.429687 6.5624998,4.8984374 0,3.703125 -3.128906,4.9453125 -6.5273436,4.9453125 -1.171875,0 -2.109375,-0.035156 -2.7539062,-0.1523438 z m 14.7978518,-6.082031 6.761718,16.8398434 c 0.140625,0.4101562 0.222657,0.67968747 0.222657,0.86718747 0,0.1875 -0.117188,0.4453125 -0.269532,0.78515625 -0.75,1.69921878 -1.886718,2.98828128 -2.789062,3.70312498 -0.984375,0.8320313 -2.074219,1.359375 -2.90625,1.6171875 l 0.832031,2.8007813 c 0.832031,-0.1523438 2.449219,-0.7148438 4.078125,-2.15625 2.261719,-1.9570313 3.878906,-5.1679688 6.257813,-11.4375 l 4.992187,-13.0195309 h -3.515625 l -3.621094,10.7226559 c -0.457031,1.3242187 -0.832031,2.71875 -1.171875,3.8085937 h -0.08203 c -0.292969,-1.0898437 -0.75,-2.53125 -1.160156,-3.7382812 L 24.570262,-18.270884 Z m 0,0" style="fill:#ffffff;fill-opacity:1;fill-rule:nonzero;stroke:none" aria-label="By" transform="matrix(1.3333333,0,0,1.3333333,1553.9584,494.16587)" />
      <path id="path32" d="m 24.269522,-12.130223 4.113281,12.12890581 h 5.332031 L 20.542959,-38.579442 h -6 L 1.4296781,-0.00131719 h 5.15625 L 10.593741,-12.130223 Z m -12.65625,-3.902344 3.785156,-11.15625 c 0.738281,-2.34375 1.371094,-4.6875 1.945313,-6.984375 h 0.117187 c 0.5625,2.238281 1.136719,4.523437 2.003906,7.042969 l 3.773438,11.097656 z M 39.041006,-0.00131719 H 44.06835 V -40.641942 H 39.041006 Z M 49.101553,-27.704442 59.636709,-0.00131719 h 4.804688 l 10.875,-27.70312481 h -5.261719 l -5.378906,15.574219 c -0.914063,2.5078121 -1.722656,4.8046871 -2.34375,7.0898433 h -0.175781 c -0.574219,-2.2851562 -1.3125,-4.5820312 -2.226563,-7.0898433 l -5.4375,-15.574219 z M 99.75878,-0.00131719 C 99.418936,-1.8880359 99.301748,-4.2317859 99.301748,-6.6458484 V -17.005223 c 0,-5.542969 -2.0625,-11.332032 -10.535156,-11.332032 -3.480469,0 -6.808594,0.972657 -9.09375,2.460938 l 1.148438,3.328125 c 1.945312,-1.265625 4.628906,-2.0625 7.207031,-2.0625 5.660156,0 6.292969,4.125 6.292969,6.410156 v 0.574219 c -10.699219,-0.05859 -16.652344,3.597656 -16.652344,10.3007811 0,4.0078125 2.859375,7.95703121 8.472656,7.95703121 3.949219,0 6.925781,-1.94531251 8.472656,-4.12500001 h 0.164063 l 0.398437,3.49218751 z M 94.438467,-9.3294422 c 0,0.515625 -0.117187,1.0898438 -0.28125,1.6054688 -0.808594,2.34375 -3.09375,4.6289062 -6.703125,4.6289062 -2.578125,0 -4.746094,-1.546875 -4.746094,-4.8046875 0,-5.3789063 6.234375,-6.3515623 11.730469,-6.2343753 z m 12.999023,9.32812501 h 4.96875 V -14.766942 c 0,-0.855469 0.11719,-1.664063 0.23438,-2.34375 0.6914,-3.785156 3.19921,-6.46875 6.75,-6.46875 0.6914,0 1.20703,0.05859 1.72265,0.164062 v -4.746093 c -0.45703,-0.117188 -0.85547,-0.175782 -1.42969,-0.175782 -3.375,0 -6.41015,2.355469 -7.67578,6.070313 h -0.22265 l -0.17578,-5.4375 h -4.40625 c 0.17578,2.578125 0.23437,5.378906 0.23437,8.648437 z M 137.31151,-28.337255 c -7.67578,0 -13.73437,5.4375 -13.73437,14.71875 0,8.7539066 5.77734,14.25000031 13.27734,14.25000031 6.69141,0 13.79297,-4.46484371 13.79297,-14.70703131 0,-8.472656 -5.3789,-14.261719 -13.33594,-14.261719 z m -0.11718,3.785157 c 5.95312,0 8.29687,5.953125 8.29687,10.640625 0,6.2460933 -3.60937,10.7578121 -8.41406,10.7578121 -4.92188,0 -8.41406,-4.5703125 -8.41406,-10.6406251 0,-5.261719 2.57812,-10.757812 8.53125,-10.757812 z m 30.16113,22.6640621 c 2.0625,1.37109371 6.12891,2.46093746 9.84375,2.46093746 9.10547,0 13.51172,-5.15624996 13.51172,-11.10937456 0,-5.660157 -3.31641,-8.8125 -9.84375,-11.332032 -5.32031,-2.0625 -7.67578,-3.832031 -7.67578,-7.441406 0,-2.625 2.0039,-5.777344 7.27734,-5.777344 3.48047,0 6.05859,1.148438 7.32422,1.828125 l 1.37109,-4.054687 c -1.72265,-0.972656 -4.58203,-1.898438 -8.53125,-1.898438 -7.5,0 -12.46875,4.464844 -12.46875,10.476563 0,5.4375 3.89063,8.707031 10.1836,10.933594 5.20312,2.003906 7.26562,4.066406 7.26562,7.675781 0,3.8906248 -2.97656,6.5742186 -8.07422,6.5742186 -3.43359,0 -6.6914,-1.1367188 -8.91797,-2.5195313 z m 35.02734,1.88671871 V -27.704442 h -5.02734 V -0.00131719 Z M 199.86327,-38.638036 c -1.82812,0 -3.14062,1.382813 -3.14062,3.152344 0,1.710937 1.2539,3.09375 3.03515,3.09375 2.00391,0 3.25782,-1.382813 3.19922,-3.09375 0,-1.769531 -1.19531,-3.152344 -3.09375,-3.152344 z m 7.73438,38.63671881 h 22.48828 V -4.0091297 h -16.19531 v -0.1171875 c 1.26562,-1.4296875 2.40234,-2.8007812 3.55078,-4.3476562 l 12.36328,-16.0781246 0.0586,-3.152344 h -21.11719 v 4.066406 h 14.98829 v 0.117188 c -1.25391,1.488281 -2.40235,2.800781 -3.59766,4.289062 l -12.53906,16.3125001 z m 47.55761,0 C 254.81542,-1.8880359 254.69823,-4.2317859 254.69823,-6.6458484 V -17.005223 c 0,-5.542969 -2.0625,-11.332032 -10.53515,-11.332032 -3.48047,0 -6.8086,0.972657 -9.09375,2.460938 l 1.14843,3.328125 c 1.94532,-1.265625 4.62891,-2.0625 7.20704,-2.0625 5.66015,0 6.29296,4.125 6.29296,6.410156 v 0.574219 c -10.69921,-0.05859 -16.65234,3.597656 -16.65234,10.3007811 0,4.0078125 2.85938,7.95703121 8.47266,7.95703121 3.94922,0 6.92578,-1.94531251 8.47265,-4.12500001 h 0.16407 l 0.39843,3.49218751 z m -5.32031,-9.32812501 c 0,0.515625 -0.11719,1.0898438 -0.28125,1.6054688 -0.80859,2.34375 -3.09375,4.6289062 -6.70312,4.6289062 -2.57813,0 -4.7461,-1.546875 -4.7461,-4.8046875 0,-5.3789063 6.23438,-6.3515623 11.73047,-6.2343753 z m 0,0" style="fill:#ffffff;fill-opacity:1;fill-rule:nonzero;stroke:none" aria-label="Alvaro Siza" transform="matrix(1.3333333,0,0,1.3333333,1407.1172,594.0916)" />
      </g></svg>