<?xml version='1.0' encoding='utf-8'?>
<svg xmlns="http://www.w3.org/2000/svg" version="1.1" width="625.699" height="52.734" viewBox="1302.480 4001.680 625.699 52.734"><g id="object"><path id="path1338" d="M 3.3393219,6.34375e-4 H 7.1596344 V -11.870459 c 0.8789062,0.222656 1.9335937,0.269531 3.0820316,0.269531 3.738281,0 7.03125,-1.101563 9.058593,-3.257813 1.488282,-1.535156 2.285157,-3.644531 2.285157,-6.328125 0,-2.636718 -0.972657,-4.792968 -2.601563,-6.199218 -1.757812,-1.582032 -4.523437,-2.460938 -8.308594,-2.460938 -3.0703121,0 -5.4843746,0.269531 -7.3359371,0.574219 z M 7.1596344,-26.507178 c 0.6679687,-0.175781 1.9335937,-0.304688 3.6093746,-0.304688 4.21875,0 6.984375,1.886719 6.984375,5.800782 0,4.089843 -2.8125,6.328125 -7.429687,6.328125 -1.2656251,0 -2.3203126,-0.08203 -3.1640626,-0.304688 z M 32.003384,6.34375e-4 h 3.820313 V -12.831397 h 3.609375 c 3.46875,0.128906 5.050781,1.664063 5.929687,5.7539064 0.84375,3.6914062 1.5,6.24609373 1.980469,7.078124975 h 3.960938 C 50.683072,-1.1478031 49.979947,-3.9954594 49.019009,-8.1321781 48.315884,-11.214209 46.944791,-13.323584 44.659634,-14.108741 v -0.128906 c 3.128907,-1.054687 5.589844,-3.65625 5.589844,-7.558594 0,-2.296875 -0.84375,-4.3125 -2.332031,-5.636718 -1.851563,-1.664063 -4.488281,-2.414063 -8.578125,-2.414063 -2.636719,0 -5.402344,0.222656 -7.335938,0.621094 z M 35.823697,-26.554053 c 0.621094,-0.175781 1.933594,-0.351563 3.785156,-0.351563 4.042969,0.04687 6.808594,1.722657 6.808594,5.542969 0,3.386719 -2.589844,5.625 -6.679688,5.625 h -3.914062 z m 40.444336,9.503906 H 64.748502 v -9.363281 h 12.175781 v -3.210938 H 60.928189 V 6.34375e-4 H 77.592252 V -3.2103031 H 64.748502 V -13.886084 h 11.519531 z m 10.075195,15.5976564 c 1.582031,1.05468748 4.699219,1.89843748 7.558594,1.89843748 6.984378,0 10.371098,-3.96093748 10.371098,-8.53124998 0,-4.3593749 -2.55469,-6.7734379 -7.558598,-8.7070309 -4.089844,-1.582032 -5.894531,-2.941407 -5.894531,-5.71875 0,-2.015625 1.535156,-4.429688 5.589843,-4.429688 2.671875,0 4.652346,0.878906 5.624996,1.40625 l 1.05469,-3.128906 c -1.32422,-0.738281 -3.515623,-1.441406 -6.550779,-1.441406 -5.765625,0 -9.585938,3.421875 -9.585938,8.039062 0,4.171875 2.988281,6.679688 7.828125,8.390625 3.996094,1.546875 5.578122,3.128906 5.578122,5.8945314 0,2.9882812 -2.285153,5.0507812 -6.199216,5.0507812 -2.636718,0 -5.144531,-0.8789062 -6.855468,-1.9335937 z M 130.12155,-17.050147 h -11.51953 v -9.363281 h 12.17578 v -3.210938 H 114.7817 V 6.34375e-4 h 16.66407 V -3.2103031 H 118.60202 V -13.886084 h 11.51953 z M 145.2944,6.34375e-4 V -12.655616 c 0,-4.921875 -0.0937,-8.484375 -0.31641,-12.222656 l 0.14063,-0.04687 c 1.48828,3.210938 3.46875,6.597656 5.53125,9.890625 l 9.41015,15.035156375 h 3.86719 V -29.624366 h -3.59765 v 12.398438 c 0,4.605469 0.082,8.2148436 0.43359,12.1757811 l -0.082,0.035156 c -1.41797,-3.0234375 -3.12891,-6.1523431 -5.32031,-9.6210931 l -9.50391,-14.988282 h -4.17188 V 6.34375e-4 Z m 36.2168,0 h 3.86718 V -26.378272 h 9.0586 v -3.246094 h -21.9375 v 3.246094 h 9.01172 z M 201.25729,-1.4524906 c 1.58203,1.05468748 4.69922,1.89843748 7.55859,1.89843748 6.98438,0 10.3711,-3.96093748 10.3711,-8.53124998 0,-4.3593749 -2.55469,-6.7734379 -7.5586,-8.7070309 -4.08984,-1.582032 -5.89453,-2.941407 -5.89453,-5.71875 0,-2.015625 1.53516,-4.429688 5.58985,-4.429688 2.67187,0 4.65234,0.878906 5.625,1.40625 l 1.05468,-3.128906 c -1.32421,-0.738281 -3.51562,-1.441406 -6.55078,-1.441406 -5.76562,0 -9.58593,3.421875 -9.58593,8.039062 0,4.171875 2.98828,6.679688 7.82812,8.390625 3.99609,1.546875 5.57813,3.128906 5.57813,5.8945314 0,2.9882812 -2.28516,5.0507812 -6.19922,5.0507812 -2.63672,0 -5.14453,-0.8789062 -6.85547,-1.9335937 z m 58.32422,-7.8632813 3.16406,9.316406275 h 4.08985 L 256.73385,-29.624366 h -4.61718 L 242.05026,6.34375e-4 h 3.94922 l 3.08203,-9.316406275 z m -9.71484,-2.9882811 2.90625,-8.578125 c 0.57421,-1.804688 1.05468,-3.597656 1.5,-5.355469 h 0.082 c 0.44531,1.710938 0.8789,3.46875 1.53515,5.402344 l 2.90625,8.53125 z M 291.06393,6.34375e-4 h 3.82031 V -13.405616 h 11.21485 v -3.164062 h -11.21485 v -9.84375 h 12.14063 v -3.210938 H 291.06393 Z M 317.74752,-29.624366 V 6.34375e-4 h 3.82032 V -29.624366 Z M 333.52975,6.34375e-4 h 16.48828 V -3.2103031 H 337.35006 V -29.624366 h -3.82031 z m 51.73535,0 h 3.73828 L 387.16354,-29.624366 h -4.88672 l -5.27344,14.332032 c -1.3125,3.726562 -2.36718,6.9843746 -3.11718,9.9726559 h -0.12891 c -0.75,-3.0703125 -1.75781,-6.3281249 -2.98828,-9.9726559 l -5.0625,-14.332032 h -4.875 l -2.0625,29.625000375 h 3.64453 L 363.1987,-12.702491 c 0.26953,-4.441406 0.49218,-9.410156 0.57422,-13.101562 h 0.0937 c 0.83203,3.515625 2.01562,7.347656 3.42187,11.519531 l 4.79297,14.10937513 h 2.90625 l 5.22656,-14.37890613 c 1.5,-4.078125 2.73047,-7.78125 3.73828,-11.25 h 0.12891 c -0.0469,3.691406 0.22266,8.660156 0.44531,12.796875 z m 29.50489,-0.093749995 c 1.27734,0.1875 3.29296,0.36328125 5.92968,0.36328125 4.83985,0 8.17969,-0.890625 10.24219,-2.77734373 1.5,-1.453125 2.50781,-3.3867188 2.50781,-5.9296875 0,-4.3945314 -3.29297,-6.7265624 -6.10547,-7.4296874 v -0.09375 c 3.11719,-1.136719 5.00391,-3.644531 5.00391,-6.503906 0,-2.332032 -0.91406,-4.089844 -2.46094,-5.226563 -1.83984,-1.5 -4.30078,-2.15625 -8.13281,-2.15625 -2.67187,0 -5.30859,0.269531 -6.98437,0.621094 z M 418.5903,-26.636084 c 0.62109,-0.128907 1.6289,-0.269532 3.38672,-0.269532 3.86718,0 6.5039,1.371094 6.5039,4.839844 0,2.859375 -2.36718,4.96875 -6.41015,4.96875 h -3.48047 z m 0,12.433593 h 3.16406 c 4.18359,0 7.65234,1.675782 7.65234,5.7187504 0,4.3125 -3.64453,5.7539062 -7.60546,5.7539062 -1.35938,0 -2.46094,-0.035156 -3.21094,-0.1757812 z M 453.67624,6.34375e-4 V -12.620459 l 9.9375,-17.003907 h -4.35938 l -4.26562,8.179688 c -1.13672,2.238281 -2.14454,4.171875 -2.98829,6.105469 h -0.082 c -0.92578,-2.0625 -1.80468,-3.867188 -2.95312,-6.105469 l -4.17188,-8.179688 h -4.34765 l 9.36328,17.050782 V 6.34375e-4 Z m 0,0" style="fill:#9f9fa0;fill-opacity:1;fill-rule:nonzero;stroke:none" aria-label="PRESENTS A FILM BY" transform="matrix(1.3333333,0,0,1.3333333,1304.0241,4047.8195)" />
    </g></svg>