<?xml version='1.0' encoding='utf-8'?>
<svg xmlns="http://www.w3.org/2000/svg" version="1.1" width="59.012" height="57.297" viewBox="616.430 4032.970 59.012 57.297"><g id="object"><path id="path53" d="m 2.8701656,-0.06971406 c 1.0898438,0.140625 2.8242188,0.29296875 5.0976563,0.29296875 4.1484371,0 7.0195311,-0.75 8.7890621,-2.37890629 1.289063,-1.2421875 2.15625,-2.90625 2.15625,-5.0859375 0,-3.7851559 -2.835937,-5.7773439 -5.25,-6.3867189 v -0.07031 c 2.683594,-0.984375 4.300782,-3.140625 4.300782,-5.589844 0,-2.003906 -0.785157,-3.503906 -2.109375,-4.488281 -1.582032,-1.289063 -3.703125,-1.851563 -6.9843754,-1.851563 -2.3085937,0 -4.5703125,0.222656 -6,0.527344 z m 3.28125,-22.80468794 c 0.5273438,-0.117187 1.3945313,-0.222656 2.90625,-0.222656 3.3164064,0 5.5898434,1.171875 5.5898434,4.148438 0,2.449218 -2.039062,4.265625 -5.5195309,4.265625 H 6.1514156 Z m 0,10.6875 h 2.71875 c 3.5859374,0 6.5625004,1.429688 6.5625004,4.8984379 0,3.703125 -3.128907,4.9453125 -6.5273441,4.9453125 -1.171875,0 -2.109375,-0.035156 -2.7539063,-0.1523437 z m 14.7978514,-6.082031 6.761719,16.8398439 c 0.140625,0.4101563 0.222656,0.67968754 0.222656,0.86718754 0,0.1875 -0.117187,0.4453125 -0.269531,0.78515625 -0.75,1.69921871 -1.886719,2.98828121 -2.789063,3.70312501 -0.984375,0.8320312 -2.074218,1.359375 -2.90625,1.6171875 l 0.832032,2.8007812 c 0.832031,-0.1523437 2.449218,-0.7148437 4.078125,-2.15625 2.261718,-1.9570312 3.878906,-5.1679687 6.257812,-11.4375 L 38.128955,-18.268933 H 34.61333 l -3.621094,10.7226564 c -0.457031,1.3242188 -0.832031,2.71875 -1.171875,3.8085938 h -0.08203 c -0.292969,-1.0898438 -0.75,-2.53125 -1.160157,-3.7382813 L 24.570361,-18.268933 Z m 0,0" style="fill:#ffffff;fill-opacity:1;fill-rule:nonzero;stroke:none" aria-label="By" transform="matrix(1.3333333,0,0,1.3333333,618.6028,4073.1437)" />
      </g></svg>