<?xml version='1.0' encoding='utf-8'?>
<svg xmlns="http://www.w3.org/2000/svg" version="1.1" width="692.392" height="954.282" viewBox="1155.750 1825.760 692.392 954.282"><g id="object"><path id="path5" d="M 0,0 C 1.306,-1.963 -1.2,-7.399 4.358,-6.423 8.869,-5.631 8.24,-0.474 8.543,3.002 8.784,5.766 7.814,9.73 4.286,9.489 -1.327,9.106 1.152,3.879 0,0 m 5.163,-307.132 c -4.893,-7.531 -5.233,-15.27 -0.168,-25.174 4.416,9.577 3.083,17.258 0.168,25.174 M 2.608,19.449 C 9.336,29.383 8.13,37.651 7.294,45.822 7.072,47.985 6.013,49.895 3.373,49.612 1.482,49.41 0.253,47.832 0.521,46.151 1.783,38.221 -1.709,29.888 2.608,19.449 m 1.829,-319.143 c 1.649,26.593 7.804,53.002 0.281,79.375 -5.405,-26.49 -3.888,-53.042 -0.281,-79.375 M -0.504,-193.6 c 4.277,-6.258 -2.935,-16.444 5.352,-16.64 6.204,-0.147 3.348,10.471 3.328,16.329 -0.115,32.589 -1.39,65.204 -0.384,97.752 0.341,11.02 -3.655,21.927 -1.665,32.038 2.724,13.835 -0.95,27.423 1.503,40.993 0.501,2.771 0.679,7.78 -4.297,7.316 -4.089,-0.381 -2.587,-4.614 -2.605,-7.267 -0.126,-17.826 0.701,-35.7 -0.35,-53.466 -0.858,-14.528 1.101,-28.872 -0.259,-43.573 -2.278,-24.622 -0.623,-49.609 -0.623,-73.482 m 184.525,332.987 c -1.728,-0.115 -3.457,-0.23 -5.185,-0.345 -6.567,2.2 -13.335,0.626 -19.997,1.055 -11.163,0.719 -15.117,-3.791 -15.085,-15.582 0.058,-21.408 1.818,-42.735 1.849,-64.107 0.102,-70.494 -0.018,-140.99 -0.142,-211.485 -0.136,-77.668 -0.415,-155.337 -0.538,-233.005 -0.044,-27.695 0.214,-55.391 0.268,-83.086 0.012,-6.286 0.966,-13.235 -8.831,-13.225 -39.464,0.041 -78.928,-0.078 -118.391,0.022 -5.154,0.013 -9.705,0.621 -9.676,8.261 0.151,40.184 -0.134,80.37 -0.435,120.554 -0.032,4.252 1.625,9.283 -3.085,12.362 -3.392,-0.779 -4.203,-3.401 -4.14,-5.814 0.34,-12.963 -1.675,-26.045 -1.045,-38.734 1.411,-28.473 0.976,-56.799 -0.027,-85.228 -0.283,-8.022 -2.705,-10.474 -9.997,-10.376 -11.338,0.154 -22.681,-0.087 -34.021,-0.03 -28.048,0.139 -56.097,0.53 -84.144,0.431 -8.781,-0.031 -10.084,4.657 -10.524,11.962 -2.903,48.206 -1.619,96.459 -1.816,144.688 -0.16,38.96 1.544,77.996 0.83,116.872 -0.908,49.467 1.145,98.944 -1.178,148.352 -0.687,14.607 3.767,29.223 -0.562,43.708 -0.27,0.734 -0.533,1.476 -0.795,2.219 0.281,4.563 0.562,9.125 0.843,13.689 2.433,1.877 2.453,3.598 -0.331,5.137 -0.031,4.924 -0.062,9.848 -0.092,14.771 1.824,2.832 1.615,5.594 -0.287,8.298 -0.029,8.942 -0.059,17.885 -0.09,26.827 2.291,2.177 2.064,4.193 -0.388,6.067 -0.038,27.449 -0.077,54.897 -0.116,82.347 1.791,1.29 1.633,2.331 -0.398,3.135 -0.007,2.39 -0.014,4.779 -0.02,7.17 2.118,0.969 1.959,1.947 0.012,2.932 0.118,1.477 0.237,2.954 0.355,4.432 3.407,8.645 3.459,17.322 0.257,26.032 0.033,3.063 0.066,6.127 0.099,9.19 2.249,1.966 2.416,3.964 0.091,6 0.235,2.941 0.471,5.882 0.706,8.821 2.262,1.971 2.913,3.921 -0.085,5.817 0.702,3.229 2.79,5.051 5.909,5.828 1.611,-2.413 3.285,-3.087 5.09,-0.186 2.561,-0.196 5.122,-0.393 7.681,-0.589 0.684,-2.059 1.517,-1.777 2.433,-0.152 14.285,0.264 28.569,0.529 42.852,0.793 4.179,-2.984 8.373,-3.597 12.592,-0.078 1.697,-0.171 3.394,-0.343 5.091,-0.515 0.699,-1.775 1.587,-1.818 2.644,-0.286 18.897,-0.842 37.917,2.254 56.712,-1.759 C -2.068,201.745 0.55,180.89 -0.245,160.173 -1.487,127.778 3.166,95.512 0.583,63.166 0.385,60.694 0.24,57.529 3.384,57.024 7.74,56.325 7.94,60.108 7.781,62.895 7.14,74.092 6.403,85.216 6.632,96.507 c 0.712,35.165 0.392,70.35 0.501,105.527 0.032,10.027 2.299,18.707 13.634,21.643 6.457,0.165 12.914,0.33 19.369,0.496 5.999,-4.981 12.117,-4.399 18.308,-0.388 3.961,0.051 7.922,0.103 11.881,0.155 6.144,-4.91 12.318,-4.569 18.515,-0.1 3.995,0.18 7.991,0.36 11.986,0.541 4.191,-5.442 8.654,-4.698 13.263,-0.579 6.51,0.186 13.02,0.371 19.528,0.557 5.911,-5.627 12.063,-4.677 18.326,-0.667 2.119,-0.009 4.239,-0.018 6.357,-0.026 6.281,-4.584 12.547,-4.188 18.801,0.06 3.872,0.044 7.745,0.087 11.616,0.131 10.883,-5.328 21.881,-3.642 32.901,-0.53 3.55,-0.091 7.099,-0.183 10.646,-0.275 12.485,-3.469 24.943,-4.284 37.336,0.432 13.99,-4.332 29.5,2.224 42.946,-5.995 1.015,-0.007 2.031,-0.014 3.047,-0.021 1.218,-0.82 2.436,-1.641 3.654,-2.46 0.819,-1.675 1.742,-3.188 4.025,-2.561 0.769,-0.147 1.514,-0.375 2.234,-0.684 0,0 0.341,-0.376 0.341,-0.376 0.254,-0.733 0.755,-1.203 1.498,-1.409 0.647,-2.935 2.565,-3.604 5.236,-2.924 0,0 0.633,-0.445 0.63,-0.441 13.619,-14.726 25.577,-30.609 27.791,-51.237 1.315,-12.255 0.509,-24.734 0.715,-37.111 0.743,-44.724 2.2,-89.451 2.024,-134.171 -0.114,-29.118 2.517,-58.142 1.487,-87.335 -0.361,-10.212 -1.753,-20.852 -0.478,-31.004 2.239,-17.835 0.332,-35.579 1.049,-53.304 0.525,-12.951 -1.128,-25.875 -0.104,-38.633 2.043,-25.462 0.705,-50.831 -0.195,-76.208 -0.93,-26.215 -3.416,-52.34 -3.244,-78.642 0.185,-28.4 -1.78,-56.823 -1.262,-85.208 0.236,-12.917 -4.561,-15.222 -16.033,-15.022 -33.538,0.583 -67.097,0.278 -100.644,-0.065 -18.459,-0.188 -18.754,-0.305 -18.742,18.72 0.038,64.195 0.227,128.391 0.172,192.587 -0.085,99.907 -0.161,199.816 -0.589,299.722 -0.134,31.457 -1.297,62.911 -2.194,94.361 -0.178,6.234 -0.154,14.233 -8.153,15.069 -10.137,1.059 -20.52,2.766 -30.79,0.255" style="fill:#0c2f31;fill-opacity:1;fill-rule:nonzero;stroke:none" transform="matrix(1.3333333,0,0,-1.3333333,1353.1125,2132.2252)" />
      </g></svg>