<?xml version='1.0' encoding='utf-8'?>
<svg xmlns="http://www.w3.org/2000/svg" version="1.1" width="144.505" height="35.573" viewBox="2746.370 4374.450 144.505 35.573"><g id="object"><path id="path144" d="m 1.0090578,-0.79820781 c 0.8671875,0.5859375 2.5664063,1.03125 4.125,1.03125 3.8203125,0 5.6718752,-2.15624999 5.6718752,-4.65234379 0,-2.3789062 -1.3945314,-3.6914062 -4.1367189,-4.7460937 -2.2265625,-0.8671877 -3.2109375,-1.6171877 -3.2109375,-3.1289067 0,-1.101562 0.84375,-2.414062 3.046875,-2.414062 1.4648437,0 2.5429687,0.480469 3.0703125,0.761719 l 0.5742189,-1.699219 c -0.7148439,-0.410156 -1.9218752,-0.796875 -3.5742189,-0.796875 -3.140625,0 -5.2265625,1.875 -5.2265625,4.394531 0,2.2734377 1.6289062,3.6445314 4.265625,4.5820314 2.1914062,0.84375 3.046875,1.6992188 3.046875,3.2226563 0,1.6289062 -1.2421875,2.7539062 -3.375,2.7539062 -1.4414063,0 -2.8125,-0.4804687 -3.75,-1.0546875 z m 17.4667972,0.796875 2.308593,-8.42578129 c 0.597657,-2.0859379 0.960938,-3.6679689 1.242188,-5.2734379 h 0.04687 c 0.222656,1.628907 0.5625,3.210938 1.066406,5.2734379 l 2.039063,8.42578129 h 2.179687 L 31.940698,-16.173208 h -2.132812 l -2.132813,8.1562502 c -0.503906,2.015625 -0.960937,3.8203125 -1.300781,5.5898437 h -0.04687 c -0.234375,-1.6992187 -0.667969,-3.6210937 -1.125,-5.5429687 l -1.96875,-8.2031252 h -2.191406 l -2.15625,8.1562502 c -0.550781,2.0859375 -1.054688,4.0078125 -1.324219,5.6132812 h -0.04687 c -0.28125,-1.5585937 -0.714844,-3.5742187 -1.195312,-5.5898437 L 14.39773,-16.173208 h -2.203125 l 4.101562,16.17187519 z m 26.762695,0 -5.039063,-8.30859379 4.921875,-7.8632814 h -2.402343 l -2.203125,3.785156 c -0.597657,1.03125 -1.007813,1.78125 -1.464844,2.7421879 h -0.07031 c -0.433593,-0.8671879 -0.890625,-1.6874999 -1.488281,-2.7421879 l -2.144531,-3.785156 h -2.414063 l 4.746094,7.9921877 -4.945312,8.17968749 H 35.13699 L 37.0823,-3.5521141 c 0.84375,-1.4179687 1.289062,-2.2851562 1.746094,-3.2226562 h 0.04687 c 0.503906,0.9375 1.042968,1.828125 1.875,3.1992187 l 2.0625,3.57421879 z M 52.299097,-15.598989 v 1.746094 h 7.628906 v 0.04687 l -6.773437,13.80468719 h 2.191406 L 62.131128,-14.204458 v -1.394531 z M 67.035425,-0.00133281 V -6.9153953 c 0,-2.6835938 -0.05859,-4.6289067 -0.175781,-6.6679687 l 0.07031,-0.02344 c 0.820313,1.746094 1.898438,3.597657 3.023438,5.4023442 l 5.144531,8.20312499 H 77.2073 V -16.173208 h -1.96875 v 6.7617189 c 0,2.5195313 0.04687,4.4882813 0.234375,6.6445313 l -0.04687,0.035156 C 74.664336,-4.3958643 73.726836,-6.095083 72.531524,-7.9935205 L 67.340117,-16.173208 H 65.06668 v 16.17187499 z m 18.641602,0 2.308593,-8.42578129 c 0.597657,-2.0859379 0.960938,-3.6679689 1.242188,-5.2734379 h 0.04687 c 0.222656,1.628907 0.5625,3.210938 1.066406,5.2734379 l 2.039063,8.42578129 h 2.179687 L 99.14187,-16.173208 h -2.132812 l -2.132813,8.1562502 c -0.503906,2.015625 -0.960937,3.8203125 -1.300781,5.5898437 h -0.04687 c -0.234375,-1.6992187 -0.667969,-3.6210937 -1.125,-5.5429687 l -1.96875,-8.2031252 h -2.191406 l -2.15625,8.1562502 c -0.550781,2.0859375 -1.054688,4.0078125 -1.324219,5.6132812 h -0.04687 c -0.28125,-1.5585937 -0.714844,-3.5742187 -1.195312,-5.5898437 l -1.921875,-8.1796877 h -2.203125 l 4.101562,16.17187519 z m 0,0" style="fill:#231916;fill-opacity:1;fill-rule:nonzero;stroke:none" aria-label="SWX 7NW" transform="matrix(1.3333333,0,0,1.3333333,2751.8069,4403.0369)" />
      <path id="path145" d="m 0,0 c 0.864,-0.576 2.568,-1.032 4.128,-1.032 3.816,0 5.664,2.16 5.664,4.656 C 9.792,6 8.4,7.32 5.664,8.376 3.432,9.24 2.448,9.984 2.448,11.496 c 0,1.104 0.84,2.424 3.048,2.424 1.464,0 2.544,-0.48 3.072,-0.768 l 0.576,1.704 c -0.72,0.408 -1.92,0.792 -3.576,0.792 -3.144,0 -5.232,-1.872 -5.232,-4.392 0,-2.28 1.632,-3.648 4.272,-4.584 2.184,-0.84 3.048,-1.704 3.048,-3.216 0,-1.632 -1.248,-2.76 -3.384,-2.76 -1.44,0 -2.808,0.48 -3.744,1.056 z" style="fill:none;stroke:#231916;stroke-width:1;stroke-linecap:butt;stroke-linejoin:miter;stroke-miterlimit:10;stroke-dasharray:none;stroke-opacity:1" transform="matrix(1.3333333,0,0,-1.3333333,2753.1507,4401.9809)" />
      <path id="path146" d="m 0,0 2.304,8.424 c 0.6,2.088 0.96,3.672 1.248,5.28 H 3.6 C 3.816,12.072 4.152,10.488 4.656,8.424 L 6.696,0 H 8.88 l 4.584,16.176 H 11.328 L 9.192,8.016 C 8.688,6 8.232,4.2 7.896,2.424 H 7.848 C 7.608,4.128 7.176,6.048 6.72,7.968 L 4.752,16.176 H 2.568 L 0.408,8.016 C -0.144,5.928 -0.648,4.008 -0.912,2.4 H -0.96 c -0.288,1.56 -0.72,3.576 -1.2,5.592 l -1.92,8.184 H -6.288 L -2.184,0 Z" style="fill:none;stroke:#231916;stroke-width:1;stroke-linecap:butt;stroke-linejoin:miter;stroke-miterlimit:10;stroke-dasharray:none;stroke-opacity:1" transform="matrix(1.3333333,0,0,-1.3333333,2776.4469,4403.0369)" />
      <path id="path147" d="m 0,0 -5.04,8.304 4.92,7.872 h -2.4 l -2.208,-3.792 c -0.6,-1.032 -1.008,-1.776 -1.464,-2.736 h -0.072 c -0.432,0.864 -0.888,1.68 -1.488,2.736 l -2.136,3.792 h -2.424 L -7.56,8.184 -12.504,0 h 2.4 l 1.944,3.552 c 0.84,1.416 1.296,2.28 1.752,3.216 H -6.36 C -5.856,5.832 -5.328,4.944 -4.488,3.576 L -2.424,0 Z" style="fill:none;stroke:#231916;stroke-width:1;stroke-linecap:butt;stroke-linejoin:miter;stroke-miterlimit:10;stroke-dasharray:none;stroke-opacity:1" transform="matrix(1.3333333,0,0,-1.3333333,2812.1267,4403.0369)" />
      <path id="path148" d="M 0,0 V -1.752 H 7.632 V -1.8 L 0.864,-15.6 H 3.048 L 9.84,-1.392 V 0 Z" style="fill:none;stroke:#231916;stroke-width:1;stroke-linecap:butt;stroke-linejoin:miter;stroke-miterlimit:10;stroke-dasharray:none;stroke-opacity:1" transform="matrix(1.3333333,0,0,-1.3333333,2821.5341,4382.2375)" />
      <path id="path149" d="m 0,0 v 6.912 c 0,2.688 -0.048,4.632 -0.168,6.672 l 0.072,0.024 C 0.72,11.856 1.8,10.008 2.928,8.208 L 8.064,0 h 2.112 V 16.176 H 8.208 V 9.408 c 0,-2.52 0.048,-4.488 0.24,-6.648 L 8.4,2.736 C 7.632,4.392 6.696,6.096 5.496,7.992 l -5.184,8.184 h -2.28 L -1.968,0 Z" style="fill:none;stroke:#231916;stroke-width:1;stroke-linecap:butt;stroke-linejoin:miter;stroke-miterlimit:10;stroke-dasharray:none;stroke-opacity:1" transform="matrix(1.3333333,0,0,-1.3333333,2841.182,4403.0369)" />
      <path id="path150" d="m 0,0 2.304,8.424 c 0.6,2.088 0.96,3.672 1.248,5.28 H 3.6 C 3.816,12.072 4.152,10.488 4.656,8.424 L 6.696,0 H 8.88 l 4.584,16.176 H 11.328 L 9.192,8.016 C 8.688,6 8.232,4.2 7.896,2.424 H 7.848 C 7.608,4.128 7.176,6.048 6.72,7.968 L 4.752,16.176 H 2.568 L 0.408,8.016 C -0.144,5.928 -0.648,4.008 -0.912,2.4 H -0.96 c -0.288,1.56 -0.72,3.576 -1.2,5.592 l -1.92,8.184 H -6.288 L -2.184,0 Z" style="fill:none;stroke:#231916;stroke-width:1;stroke-linecap:butt;stroke-linejoin:miter;stroke-miterlimit:10;stroke-dasharray:none;stroke-opacity:1" transform="matrix(1.3333333,0,0,-1.3333333,2866.0452,4403.0369)" />
      </g></svg>