<?xml version='1.0' encoding='utf-8'?>
<svg xmlns="http://www.w3.org/2000/svg" version="1.1" width="1396.320" height="1499.820" viewBox="1293.120 2582.990 1396.320 1499.820"><defs id="defs1"><clipPath clipPathUnits="userSpaceOnUse" id="clipPath10">
      <path d="M 0,3370.3901 H 2383.9401 V -2.5000001e-5 H 0 Z" id="path10" />
    </clipPath>
  </defs><g id="object"><path id="path5" d="m 38.087373,-6.5511516 c -2.519531,1.21875 -6.410156,2.015625 -10.21875,2.015625 -11.8125,0 -18.6562496,-7.6289064 -18.6562496,-19.5117184 0,-12.75 7.5703126,-20.015625 18.9374996,-20.015625 4.03125,0 7.417969,0.867187 9.796875,2.015625 l 1.511719,-5.109375 c -1.652344,-0.867188 -5.472656,-2.167969 -11.519531,-2.167969 -15.046875,0 -25.3476563,10.300781 -25.3476563,25.488281 0,15.9140627 10.3007813,24.55078144 23.9765623,24.55078144 5.90625,0 10.511719,-1.1484375 12.820313,-2.29687504 z m 27.28418,-42.7734374 c -12.960937,0 -22.535156,10.089844 -22.535156,25.488281 0,14.6953127 9,24.63281269 21.820312,24.63281269 12.386719,0 22.535157,-8.85937499 22.535157,-25.57031269 0,-14.390625 -8.566407,-24.550781 -21.820313,-24.550781 z m -0.28125,5.121094 c 10.441406,0 15.480469,10.078125 15.480469,19.722656 0,11.015625 -5.625,20.1562499 -15.550781,20.1562499 -9.867188,0 -15.480469,-9.2812499 -15.480469,-19.6523439 0,-10.652344 5.179687,-20.226562 15.550781,-20.226562 z M 137.4448,-3.703125e-4 h 6.11718 L 140.53855,-48.527714 h -7.99219 l -8.63672,23.472656 c -2.15625,6.117188 -3.89063,11.449219 -5.10938,16.3476564 h -0.22265 c -1.21875,-5.0507814 -2.8711,-10.3710934 -4.88672,-16.3476564 l -8.28516,-23.472656 H 97.413545 L 94.026827,-3.703125e-4 h 5.976563 L 101.30417,-20.81287 c 0.43359,-7.265625 0.78516,-15.398438 0.9375,-21.457032 h 0.14063 c 1.37109,5.765625 3.3164,12.035157 5.61328,18.867188 l 7.85156,23.10937494 h 4.74609 l 8.57813,-23.54296894 c 2.44922,-6.691406 4.46484,-12.738281 6.11719,-18.433594 h 0.21093 c -0.0703,6.058594 0.36328,14.191407 0.72657,20.953125 z M 153.2153,-0.14099531 c 2.08594,0.28125 5.40235,0.57421875 9.71485,0.57421875 7.92187,0 13.39453,-1.44140624 16.78125,-4.53515624 2.44922,-2.3789063 4.10156,-5.5429688 4.10156,-9.7265622 0,-7.195313 -5.40234,-11.015625 -10.00781,-12.164063 v -0.140625 c 5.10937,-1.875 8.21484,-5.976562 8.21484,-10.664062 0,-3.808594 -1.51172,-6.691407 -4.04297,-8.566407 -3.02344,-2.449218 -7.05469,-3.527343 -13.3125,-3.527343 -4.39453,0 -8.71875,0.433593 -11.44922,1.007812 z m 6.25782,-43.48828169 c 1.00781,-0.222656 2.67187,-0.433593 5.55468,-0.433593 6.32813,0 10.65235,2.226562 10.65235,7.921875 0,4.675781 -3.89063,8.132812 -10.51172,8.132812 h -5.69531 z m 0,20.367188 h 5.1914 c 6.84375,0 12.52735,2.742187 12.52735,9.363281 0,7.0546877 -5.97657,9.4335939 -12.45704,9.4335939 -2.22656,0 -4.03125,-0.070312 -5.26171,-0.2929687 z m 52.42089,-26.0625 c -12.96093,0 -22.53515,10.089844 -22.53515,25.488281 0,14.6953127 9,24.63281269 21.82031,24.63281269 12.38672,0 22.53516,-8.85937499 22.53516,-25.57031269 0,-14.390625 -8.56641,-24.550781 -21.82032,-24.550781 z m -0.28125,5.121094 c 10.44141,0 15.48047,10.078125 15.48047,19.722656 0,11.015625 -5.625,20.1562499 -15.55078,20.1562499 -9.86719,0 -15.48047,-9.2812499 -15.48047,-19.6523439 0,-10.652344 5.17969,-20.226562 15.55078,-20.226562 z M 974.45065,166.89514 c -2.88281,-3.09375 -5.40234,-5.83594 -7.99218,-8.56641 3.59765,-4.25391 5.68359,-10.30078 6.98437,-17.92969 h -5.76562 c -0.9375,6.11719 -2.44922,10.80469 -4.67578,14.17969 -3.09375,-3.45703 -7.71094,-8.77734 -11.8125,-13.53516 v -0.21093 c 7.71093,-3.82032 10.65234,-7.85157 10.65234,-12.96094 0,-6.26953 -4.67578,-10.30078 -10.72266,-10.30078 -8.0625,0 -12.3164,6.04687 -12.3164,11.95312 0,3.45703 1.51172,6.98438 4.03125,10.16016 v 0.21094 c -5.54297,3.02343 -9.50391,7.55859 -9.50391,14.17968 0,7.27735 5.47266,13.61719 14.90625,13.61719 5.33203,0 10.00781,-1.66406 14.19141,-5.55469 1.86328,2.02735 3.16406,3.38672 4.53515,4.75782 z m -25.13671,-3.96094 c -5.82422,0 -9.92579,-4.24219 -9.92579,-9.79688 0,-5.10937 3.66797,-8.20312 6.25782,-9.85546 5.40234,6.1875 10.80468,12.09375 13.67578,15.25781 -2.29688,2.51953 -5.82422,4.39453 -10.00781,4.39453 z m 1.37109,-41.03906 c 3.96094,0 5.61328,3.3164 5.61328,6.26953 0,4.10156 -3.16406,6.6914 -8.0625,9.5039 -2.08594,-2.60156 -3.66797,-5.26171 -3.66797,-8.71875 0,-3.73828 2.08594,-7.05468 6.11719,-7.05468 z m -555.4043,464.3291 c -1.14843,0 -2.74218,0.0703 -4.60547,0.36328 -5.90625,0.71484 -11.08593,3.09375 -14.97656,6.91406 -4.60547,4.60547 -7.92187,11.8711 -7.92187,21.09375 0,12.16407 6.55078,19.94532 16.55859,19.94532 9.71484,0 15.55078,-7.92188 15.55078,-16.48829 0,-9.15234 -5.83594,-15.1289 -14.10937,-15.1289 -5.17969,0 -9.07032,2.44922 -11.3086,5.40234 h -0.21093 c 1.07812,-7.69922 6.33984,-14.97656 16.26562,-16.6289 1.80469,-0.29297 3.45703,-0.36329 4.75781,-0.29297 z m -10.94531,43.41797 c -6.62109,0 -10.14844,-5.69531 -10.30078,-13.39453 0,-1.14844 0.29297,-2.08594 0.72656,-2.8125 1.72266,-3.375 5.25,-5.75391 9.07031,-5.75391 5.83594,0 9.64454,4.03125 9.64454,10.72266 0,6.70312 -3.66797,11.23828 -9.14063,11.23828 z m 24.84375,4.8164 c 1.51172,0.082 3.52734,0 5.82422,-0.35156 5.05078,-0.57422 10.01953,-2.74219 13.61719,-6.26953 4.60547,-4.46484 8.0625,-11.66016 8.0625,-21.96094 0,-11.95312 -5.90625,-19.72265 -15.48047,-19.72265 -9.57422,0 -15.98438,7.76953 -15.98438,16.6289 0,7.99219 5.40235,14.33203 13.82813,14.33203 4.67578,0 8.41406,-1.875 11.01562,-5.03906 h 0.21094 c -0.86719,5.54297 -3.09375,9.64453 -6.1875,12.45703 -2.67187,2.51953 -6.12891,4.03125 -9.79687,4.53516 -2.15625,0.21094 -3.73829,0.35156 -5.10938,0.21094 z m 11.51953,-43.48828 c 6.6211,0 9.57422,6.12891 9.57422,14.1211 0,1.00781 -0.21094,1.72265 -0.57422,2.29687 -1.65234,2.8125 -4.96875,4.89844 -9.22265,4.89844 -5.47266,0 -9,-4.10156 -9,-9.9375 0,-6.62109 3.82031,-11.37891 9.22265,-11.37891 z M 22.319795,720.14318 h 6.257813 v -21.02343 h 5.90625 c 5.695312,0.21093 8.285156,2.73047 9.726562,9.43359 1.359375,6.04688 2.449219,10.21875 3.234375,11.58984 h 6.480469 c -1.007812,-1.875 -2.15625,-6.55078 -3.738281,-13.32421 -1.160156,-5.03907 -3.386719,-8.4961 -7.136719,-9.78516 v -0.22266 c 5.121094,-1.72265 9.152344,-5.97656 9.152344,-12.375 0,-3.75 -1.371094,-7.0664 -3.820313,-9.22265 -3.023437,-2.73047 -7.347656,-3.96094 -14.039062,-3.96094 -4.324219,0 -8.859375,0.36328 -12.023438,1.00781 z m 6.257813,-43.48828 c 1.007812,-0.29297 3.175781,-0.57422 6.199219,-0.57422 6.621093,0.0703 11.15625,2.80079 11.15625,9.07032 0,5.54297 -4.242188,9.21093 -10.945313,9.21093 h -6.410156 z m 61.423828,8.63672 h -6.339844 v 21.38672 c 0,1.14844 -0.210937,2.30859 -0.574219,3.24609 -1.148437,2.80079 -4.101562,5.75391 -8.355468,5.75391 -5.753907,0 -7.769532,-4.46484 -7.769532,-11.08594 V 685.29162 H 60.62253 v 20.37891 c 0,12.24609 6.550781,15.26953 12.023437,15.26953 6.199219,0 9.867188,-3.67969 11.519531,-6.48047 h 0.140625 l 0.363282,5.68359 h 5.613281 c -0.210938,-2.73046 -0.28125,-5.90625 -0.28125,-9.5039 z m 35.572264,34.85156 c -0.43359,-2.3789 -0.58594,-5.33203 -0.58594,-8.35546 v -13.03125 c 0,-6.98438 -2.58984,-14.25 -13.24218,-14.25 -4.39453,0 -8.56641,1.21875 -11.44922,3.09375 l 1.4414,4.17187 c 2.44922,-1.58203 5.83594,-2.58984 9.07032,-2.58984 7.125,0 7.92187,5.17968 7.92187,8.0625 v 0.72656 c -13.46484,-0.0703 -20.953123,4.53516 -20.953123,12.96094 0,5.03906 3.597653,10.00781 10.652343,10.00781 4.96875,0 8.71875,-2.44922 10.66406,-5.19141 h 0.21094 l 0.50391,4.39453 z m -6.70312,-11.73046 c 0,0.64453 -0.14063,1.35937 -0.35157,2.01562 -1.01953,2.94141 -3.89062,5.82422 -8.42578,5.82422 -3.24609,0 -5.97656,-1.94531 -5.97656,-6.04688 0,-6.76171 7.83984,-7.99218 14.75391,-7.85156 z m 31.82519,11.73046 h 6.25781 v -21.96093 h 18.36329 v -5.17969 h -18.36329 v -16.13672 h 19.875 v -5.25 h -26.13281 z m 56.66895,0 c -0.4336,-2.3789 -0.58594,-5.33203 -0.58594,-8.35546 v -13.03125 c 0,-6.98438 -2.58984,-14.25 -13.24219,-14.25 -4.39453,0 -8.5664,1.21875 -11.44922,3.09375 l 1.44141,4.17187 c 2.44922,-1.58203 5.83594,-2.58984 9.07031,-2.58984 7.125,0 7.92188,5.17968 7.92188,8.0625 v 0.72656 c -13.46485,-0.0703 -20.95313,4.53516 -20.95313,12.96094 0,5.03906 3.59766,10.00781 10.65235,10.00781 4.96875,0 8.71875,-2.44922 10.66406,-5.19141 h 0.21094 l 0.5039,4.39453 z m -6.70313,-11.73046 c 0,0.64453 -0.14062,1.35937 -0.35156,2.01562 -1.01953,2.94141 -3.89063,5.82422 -8.42578,5.82422 -3.2461,0 -5.97656,-1.94531 -5.97656,-6.04688 0,-6.76171 7.83984,-7.99218 14.7539,-7.85156 z m 16.35352,11.73046 h 6.25781 v -18.57421 c 0,-1.07813 0.14063,-2.08594 0.29297,-2.95313 0.85547,-4.75781 4.03125,-8.13281 8.49609,-8.13281 0.85547,0 1.51172,0.0703 2.15625,0.21094 v -5.97657 c -0.57422,-0.14062 -1.07812,-0.21093 -1.80468,-0.21093 -4.24219,0 -8.0625,2.95312 -9.64454,7.6289 h -0.29296 l -0.21094,-6.84375 h -5.54297 c 0.21094,3.2461 0.29297,6.77344 0.29297,10.875 z m 23.83008,0 h 6.1875 v -21.02343 c 0,-1.07813 0.14062,-2.15625 0.5039,-3.09375 1.00781,-3.17578 3.89063,-6.33985 7.85156,-6.33985 4.81641,0 7.26563,4.03125 7.26563,9.57422 v 20.88281 h 6.19922 v -21.52734 c 0,-1.14844 0.21094,-2.30859 0.5039,-3.16406 1.07813,-3.10547 3.87891,-5.76563 7.48829,-5.76563 5.10937,0 7.55859,4.03125 7.55859,10.73438 v 19.72265 h 6.1875 v -20.51953 c 0,-12.09375 -6.84375,-15.11718 -11.44922,-15.11718 -3.31641,0 -5.61328,0.85546 -7.69922,2.44921 -1.4414,1.07813 -2.8125,2.58985 -3.89062,4.53516 h -0.14063 c -1.51172,-4.11328 -5.12109,-6.98437 -9.86719,-6.98437 -5.76562,0 -9,3.09375 -10.94531,6.41015 h -0.21094 l -0.29296,-5.625 h -5.54297 c 0.21093,2.88281 0.29297,5.83594 0.29297,9.4336 z m 88.05761,-16.27734 c 0.0703,-0.64453 0.21094,-1.65234 0.21094,-2.94141 0,-6.41015 -3.02344,-16.41796 -14.40234,-16.41796 -10.14844,0 -16.34766,8.27343 -16.34766,18.78515 0,10.51172 6.41016,17.56641 17.14453,17.56641 5.54297,0 9.35156,-1.14844 11.58985,-2.15625 l -1.07813,-4.53516 c -2.37891,1.00781 -5.10937,1.80469 -9.65625,1.80469 -6.32812,0 -11.80078,-3.52734 -11.94141,-12.10547 z m -24.41015,-4.53516 c 0.5039,-4.38281 3.30468,-10.28906 9.71484,-10.28906 7.125,0 8.85938,6.25781 8.78906,10.28906 z M 375.98288,669.026 v 20.80078 h -0.14062 c -1.58203,-2.80078 -5.19141,-5.32031 -10.51172,-5.32031 -8.4961,0 -15.70313,7.125 -15.63281,18.71484 0,10.58203 6.48046,17.71875 14.90625,17.71875 5.69531,0 9.9375,-2.95313 11.88281,-6.84375 h 0.14062 l 0.29297,6.04687 h 5.6836 c -0.21094,-2.3789 -0.28125,-5.90625 -0.28125,-9 V 669.026 Z m 0,36.5039 c 0,1.00782 -0.0703,1.875 -0.29297,2.73047 -1.14843,4.75781 -5.03906,7.5586 -9.28125,7.5586 -6.84375,0 -10.30078,-5.82422 -10.30078,-12.87891 0,-7.71094 3.89063,-13.46484 10.44141,-13.46484 4.75781,0 8.21484,3.30468 9.14062,7.33593 0.22266,0.79688 0.29297,1.875 0.29297,2.67188 z m 44.86231,-1.66406 c 0.0703,-0.64453 0.21093,-1.65234 0.21093,-2.94141 0,-6.41015 -3.02343,-16.41796 -14.40234,-16.41796 -10.14844,0 -16.34766,8.27343 -16.34766,18.78515 0,10.51172 6.41016,17.56641 17.14453,17.56641 5.54297,0 9.35157,-1.14844 11.58985,-2.15625 l -1.07813,-4.53516 c -2.3789,1.00781 -5.10937,1.80469 -9.65625,1.80469 -6.32812,0 -11.80078,-3.52734 -11.9414,-12.10547 z m -24.41016,-4.53516 c 0.50391,-4.38281 3.30469,-10.28906 9.71484,-10.28906 7.125,0 8.85938,6.25781 8.78907,10.28906 z m 73.00488,5.54297 5.17969,15.26953 h 6.70313 l -16.5586,-48.52734 h -7.55859 l -16.48828,48.52734 h 6.48047 l 5.03906,-15.26953 z m -15.91406,-4.88672 4.75781,-14.03906 c 0.9375,-2.95312 1.72266,-5.90625 2.44922,-8.78906 h 0.14063 c 0.71484,2.8125 1.4414,5.68359 2.51953,8.85937 l 4.74609,13.96875 z m 34.49707,20.15625 h 6.1875 v -21.02343 c 0,-1.07813 0.14063,-2.15625 0.50391,-3.09375 1.00781,-3.17578 3.89062,-6.33985 7.85156,-6.33985 4.81641,0 7.26562,4.03125 7.26562,9.57422 v 20.88281 h 6.19922 v -21.52734 c 0,-1.14844 0.21094,-2.30859 0.50391,-3.16406 1.07812,-3.10547 3.87891,-5.76563 7.48828,-5.76563 5.10938,0 7.55859,4.03125 7.55859,10.73438 v 19.72265 h 6.1875 v -20.51953 c 0,-12.09375 -6.84375,-15.11718 -11.44921,-15.11718 -3.31641,0 -5.61329,0.85546 -7.69922,2.44921 -1.44141,1.07813 -2.8125,2.58985 -3.89063,4.53516 h -0.14062 c -1.51172,-4.11328 -5.1211,-6.98437 -9.86719,-6.98437 -5.76563,0 -9,3.09375 -10.94531,6.41015 h -0.21094 l -0.29297,-5.625 h -5.54297 c 0.21094,2.88281 0.29297,5.83594 0.29297,9.4336 z m 74.80078,-35.63671 c -9.64453,0 -17.28515,6.83203 -17.28515,18.5039 0,11.01563 7.27734,17.92969 16.71093,17.92969 8.42578,0 17.35547,-5.625 17.35547,-18.50391 0,-10.66406 -6.77344,-17.92968 -16.78125,-17.92968 z m -0.14062,4.74609 c 7.48828,0 10.4414,7.48828 10.4414,13.39453 0,7.85156 -4.53515,13.53516 -10.59375,13.53516 -6.1875,0 -10.58203,-5.75391 -10.58203,-13.39453 0,-6.6211 3.2461,-13.53516 10.73438,-13.53516 z m 52.92187,14.61328 c 0.0703,-0.64453 0.21094,-1.65234 0.21094,-2.94141 0,-6.41015 -3.02344,-16.41796 -14.40234,-16.41796 -10.14844,0 -16.34766,8.27343 -16.34766,18.78515 0,10.51172 6.41016,17.56641 17.14453,17.56641 5.54297,0 9.35156,-1.14844 11.58984,-2.15625 l -1.07812,-4.53516 c -2.37891,1.00781 -5.10938,1.80469 -9.65625,1.80469 -6.32813,0 -11.80078,-3.52734 -11.94141,-12.10547 z m -24.41015,-4.53516 c 0.5039,-4.38281 3.30468,-10.28906 9.71484,-10.28906 7.125,0 8.85937,6.25781 8.78906,10.28906 z M 647.42429,669.026 v 20.80078 h -0.14063 c -1.58203,-2.80078 -5.1914,-5.32031 -10.51172,-5.32031 -8.49609,0 -15.70312,7.125 -15.63281,18.71484 0,10.58203 6.48047,17.71875 14.90625,17.71875 5.69531,0 9.9375,-2.95313 11.88281,-6.84375 h 0.14063 l 0.29297,6.04687 h 5.68359 c -0.21094,-2.3789 -0.28125,-5.90625 -0.28125,-9 V 669.026 Z m 0,36.5039 c 0,1.00782 -0.0703,1.875 -0.29297,2.73047 -1.14844,4.75781 -5.03906,7.5586 -9.28125,7.5586 -6.84375,0 -10.30078,-5.82422 -10.30078,-12.87891 0,-7.71094 3.89062,-13.46484 10.4414,-13.46484 4.75782,0 8.21485,3.30468 9.14063,7.33593 0.22266,0.79688 0.29297,1.875 0.29297,2.67188 z m 31.6084,-21.02343 c -9.64454,0 -17.28516,6.83203 -17.28516,18.5039 0,11.01563 7.27734,17.92969 16.71094,17.92969 8.42578,0 17.35547,-5.625 17.35547,-18.50391 0,-10.66406 -6.77344,-17.92968 -16.78125,-17.92968 z m -0.14063,4.74609 c 7.48828,0 10.44141,7.48828 10.44141,13.39453 0,7.85156 -4.53516,13.53516 -10.59375,13.53516 -6.1875,0 -10.58203,-5.75391 -10.58203,-13.39453 0,-6.6211 3.24609,-13.53516 10.73437,-13.53516 z m 66.08789,-15.91406 h -22.38281 l -3.02344,22.46484 c 1.72266,-0.21094 3.8086,-0.50391 6.46875,-0.50391 9.36328,0 13.39453,4.32422 13.46485,10.3711 0,6.26953 -5.10938,10.14844 -11.08594,10.14844 -4.24219,0 -8.0625,-1.44141 -10.00781,-2.58985 l -1.58204,4.82813 c 2.23829,1.4414 6.55079,2.88281 11.66016,2.88281 10.16016,0 17.42578,-6.84375 17.42578,-15.98438 0,-5.90625 -3.02344,-9.9375 -6.6914,-12.02343 -2.88282,-1.73438 -6.48047,-2.51953 -10.07813,-2.51953 -1.73437,0 -2.74219,0.14062 -3.82031,0.28125 l 1.80469,-12.02344 h 17.84765 z m 24.62988,-0.78516 c -9.5039,0 -16.27734,8.63672 -16.27734,24.32813 0.14063,15.48046 6.33984,24.05859 15.48047,24.05859 10.37109,0 16.27734,-8.78906 16.27734,-24.70313 0,-14.90625 -5.625,-23.68359 -15.48047,-23.68359 z m -0.36328,4.89844 c 6.55078,0 9.50391,7.55859 9.50391,19.07812 0,11.95313 -3.09375,19.51172 -9.57422,19.51172 -5.76562,0 -9.50391,-6.91406 -9.50391,-19.07812 0,-12.75 4.03125,-19.51172 9.57422,-19.51172 z M 16.199678,806.5426 h 6.257813 v -21.96094 h 18.363281 v -5.17969 H 22.457491 v -16.13672 h 19.875 v -5.25 H 16.199678 Z m 56.668945,0 c -0.433593,-2.37891 -0.585937,-5.33203 -0.585937,-8.35547 v -13.03125 c 0,-6.98438 -2.589844,-14.25 -13.242188,-14.25 -4.394531,0 -8.566406,1.21875 -11.449218,3.09375 l 1.441406,4.17187 c 2.449219,-1.58203 5.835937,-2.58984 9.070312,-2.58984 7.125,0 7.921875,5.17969 7.921875,8.0625 v 0.72656 c -13.464843,-0.0703 -20.953125,4.53516 -20.953125,12.96094 0,5.03906 3.597657,10.00781 10.652344,10.00781 4.96875,0 8.71875,-2.44922 10.664063,-5.1914 h 0.210937 l 0.503906,4.39453 z m -6.703125,-11.73047 c 0,0.64453 -0.140625,1.35937 -0.351562,2.01562 -1.019531,2.94141 -3.890625,5.82422 -8.425781,5.82422 -3.246094,0 -5.976563,-1.94531 -5.976563,-6.04687 0,-6.76172 7.839844,-7.99219 14.753906,-7.85156 z m 11.452149,-23.12109 13.242187,34.85156 h 6.046875 l 13.687501,-34.85156 h -6.62109 l -6.773442,19.58203 c -1.148437,3.17578 -2.15625,6.05859 -2.953125,8.92968 h -0.210937 c -0.726563,-2.87109 -1.664063,-5.7539 -2.8125,-8.92968 l -6.84375,-19.58203 z m 52.989253,-0.78516 c -9.64453,0 -17.28515,6.83203 -17.28515,18.50391 0,11.01562 7.27734,17.92968 16.71094,17.92968 8.42578,0 17.35546,-5.625 17.35546,-18.5039 0,-10.66407 -6.77343,-17.92969 -16.78125,-17.92969 z m -0.14062,4.74609 c 7.48828,0 10.44141,7.48828 10.44141,13.39453 0,7.85157 -4.53516,13.53516 -10.59375,13.53516 -6.1875,0 -10.58204,-5.75391 -10.58204,-13.39453 0,-6.62109 3.2461,-13.53516 10.73438,-13.53516 z m 24.91406,30.89063 h 6.25781 v -18.57422 c 0,-1.07813 0.14063,-2.08594 0.29297,-2.95313 0.85547,-4.75781 4.03125,-8.13281 8.4961,-8.13281 0.85547,0 1.51172,0.0703 2.15625,0.21094 v -5.97656 c -0.57422,-0.14063 -1.07813,-0.21094 -1.80469,-0.21094 -4.24219,0 -8.0625,2.95312 -9.64453,7.62891 h -0.29297 l -0.21094,-6.84375 h -5.54297 c 0.21094,3.24609 0.29297,6.77343 0.29297,10.875 z m 38.80957,0 h 6.32813 v -51.11719 h -6.32813 z m 45,-16.27735 c 0.0703,-0.64453 0.21094,-1.65234 0.21094,-2.9414 0,-6.41016 -3.02344,-16.41797 -14.40234,-16.41797 -10.14844,0 -16.34766,8.27344 -16.34766,18.78516 0,10.51171 6.41016,17.5664 17.14453,17.5664 5.54297,0 9.35156,-1.14844 11.58985,-2.15625 l -1.07813,-4.53515 c -2.37891,1.00781 -5.10937,1.80468 -9.65625,1.80468 -6.32812,0 -11.80078,-3.52734 -11.94141,-12.10547 z m -24.41015,-4.53515 c 0.5039,-4.38281 3.30468,-10.28906 9.71484,-10.28906 7.125,0 8.85938,6.25781 8.78906,10.28906 z m 28.14843,-14.03906 13.24219,34.85156 h 6.04688 l 13.6875,-34.85156 h -6.6211 l -6.77343,19.58203 c -1.14844,3.17578 -2.15625,6.05859 -2.95313,8.92968 h -0.21094 c -0.72656,-2.87109 -1.66406,-5.7539 -2.8125,-8.92968 l -6.84375,-19.58203 z m 63.72364,34.85156 c -0.4336,-2.37891 -0.58594,-5.33203 -0.58594,-8.35547 v -13.03125 c 0,-6.98438 -2.58984,-14.25 -13.24219,-14.25 -4.39453,0 -8.5664,1.21875 -11.44922,3.09375 l 1.44141,4.17187 c 2.44922,-1.58203 5.83594,-2.58984 9.07031,-2.58984 7.125,0 7.92188,5.17969 7.92188,8.0625 v 0.72656 c -13.46485,-0.0703 -20.95313,4.53516 -20.95313,12.96094 0,5.03906 3.59766,10.00781 10.65235,10.00781 4.96875,0 8.71875,-2.44922 10.66406,-5.1914 h 0.21094 l 0.5039,4.39453 z m -6.70313,-11.73047 c 0,0.64453 -0.14062,1.35937 -0.35156,2.01562 -1.01953,2.94141 -3.89063,5.82422 -8.42578,5.82422 -3.2461,0 -5.97656,-1.94531 -5.97656,-6.04687 0,-6.76172 7.83984,-7.99219 14.7539,-7.85156 z m 16.35352,11.73047 h 6.25781 v -18.57422 c 0,-1.07813 0.14062,-2.08594 0.29297,-2.95313 0.85547,-4.75781 4.03125,-8.13281 8.49609,-8.13281 0.85547,0 1.51172,0.0703 2.15625,0.21094 v -5.97656 c -0.57422,-0.14063 -1.07812,-0.21094 -1.80469,-0.21094 -4.24218,0 -8.0625,2.95312 -9.64453,7.62891 h -0.29297 l -0.21093,-6.84375 h -5.54297 c 0.21094,3.24609 0.29297,6.77343 0.29297,10.875 z m 36.35742,-1.65235 c 2.44922,1.44141 5.97656,2.36719 9.78516,2.36719 8.28515,0 13.03125,-4.3125 13.03125,-10.42969 0,-5.1914 -3.09375,-8.21484 -9.14063,-10.51171 -4.53516,-1.73438 -6.62109,-3.03516 -6.62109,-5.90625 0,-2.58985 2.08593,-4.75782 5.82422,-4.75782 3.24609,0 5.76562,1.16016 7.13671,2.01563 l 1.58204,-4.60547 c -1.94532,-1.14844 -5.03907,-2.15625 -8.56641,-2.15625 -7.48828,0 -12.02344,4.60547 -12.02344,10.21875 0,4.18359 2.95313,7.62891 9.21094,9.86719 4.67578,1.72265 6.48047,3.38672 6.48047,6.41015 0,2.8711 -2.15625,5.17969 -6.77344,5.17969 -3.16406,0 -6.46875,-1.30078 -8.34375,-2.51953 z m 60.11719,-33.19921 h -6.33985 v 21.38671 c 0,1.14844 -0.21093,2.3086 -0.57422,3.2461 -1.14843,2.80078 -4.10156,5.7539 -8.35546,5.7539 -5.75391,0 -7.76954,-4.46484 -7.76954,-11.08593 v -19.30078 h -6.33984 v 20.3789 c 0,12.2461 6.55078,15.26953 12.02344,15.26953 6.19922,0 9.86719,-3.67968 11.51953,-6.48047 h 0.14062 l 0.36329,5.6836 h 5.61328 c -0.21094,-2.73047 -0.28125,-5.90625 -0.28125,-9.50391 z m 35.57226,34.85156 c -0.43359,-2.37891 -0.58594,-5.33203 -0.58594,-8.35547 v -13.03125 c 0,-6.98438 -2.58984,-14.25 -13.24218,-14.25 -4.39453,0 -8.56641,1.21875 -11.44922,3.09375 l 1.4414,4.17187 c 2.44922,-1.58203 5.83594,-2.58984 9.07032,-2.58984 7.125,0 7.92187,5.17969 7.92187,8.0625 v 0.72656 c -13.46484,-0.0703 -20.95312,4.53516 -20.95312,12.96094 0,5.03906 3.59765,10.00781 10.65234,10.00781 4.96875,0 8.71875,-2.44922 10.66406,-5.1914 h 0.21094 l 0.50391,4.39453 z m -6.70312,-11.73047 c 0,0.64453 -0.14063,1.35937 -0.35157,2.01562 -1.01953,2.94141 -3.89062,5.82422 -8.42578,5.82422 -3.24609,0 -5.97656,-1.94531 -5.97656,-6.04687 0,-6.76172 7.83984,-7.99219 14.75391,-7.85156 z m 37.94531,11.73047 v -34.85156 h -6.32813 v 34.85156 z m -3.16406,-48.59766 c -2.3086,0 -3.96094,1.72266 -3.96094,3.96094 0,2.15625 1.58203,3.87891 3.82031,3.87891 2.51953,0 4.10156,-1.72266 4.03125,-3.87891 0,-2.23828 -1.51172,-3.96094 -3.89062,-3.96094 z m 37.43554,-2.51953 v 20.80078 h -0.14062 c -1.58203,-2.80078 -5.19141,-5.32031 -10.51172,-5.32031 -8.49609,0 -15.70312,7.125 -15.63281,18.71484 0,10.58203 6.48047,17.71875 14.90625,17.71875 5.69531,0 9.9375,-2.95312 11.88281,-6.84375 h 0.14063 l 0.29296,6.04688 h 5.6836 c -0.21094,-2.37891 -0.28125,-5.90625 -0.28125,-9 v -42.11719 z m 0,36.50391 c 0,1.00781 -0.0703,1.875 -0.29296,2.73047 -1.14844,4.75781 -5.03907,7.55859 -9.28125,7.55859 -6.84375,0 -10.30079,-5.82422 -10.30079,-12.87891 0,-7.71093 3.89063,-13.46484 10.44141,-13.46484 4.75781,0 8.21484,3.30469 9.14063,7.33594 0.22265,0.79687 0.29296,1.875 0.29296,2.67187 z m 44.86231,-1.66407 c 0.0703,-0.64453 0.21094,-1.65234 0.21094,-2.9414 0,-6.41016 -3.02344,-16.41797 -14.40235,-16.41797 -10.14843,0 -16.34765,8.27344 -16.34765,18.78516 0,10.51171 6.41015,17.5664 17.14453,17.5664 5.54297,0 9.35156,-1.14844 11.58984,-2.15625 l -1.07812,-4.53515 c -2.37891,1.00781 -5.10938,1.80468 -9.65625,1.80468 -6.32813,0 -11.80078,-3.52734 -11.94141,-12.10547 z m -24.41016,-4.53515 c 0.50391,-4.38281 3.30469,-10.28906 9.71485,-10.28906 7.125,0 8.85937,6.25781 8.78906,10.28906 z m 32.47559,20.8125 h 6.32812 v -20.95313 c 0,-1.07812 0.14063,-2.15625 0.4336,-2.95312 1.07812,-3.52735 4.32422,-6.48047 8.49609,-6.48047 5.97656,0 8.0625,4.6875 8.0625,10.30078 v 20.08594 h 6.33984 v -20.8125 c 0,-11.95313 -7.48828,-14.82422 -12.3164,-14.82422 -5.75391,0 -9.78516,3.23437 -11.51953,6.55078 h -0.14063 l -0.36328,-5.76562 h -5.61328 c 0.21094,2.88281 0.29297,5.83593 0.29297,9.43359 z m 41.10058,-43.19531 v 8.34375 h -5.39062 v 4.82812 h 5.39062 v 19.00781 c 0,4.10157 0.65625,7.19532 2.44922,9.07032 1.51172,1.73437 3.89063,2.66015 6.84375,2.66015 2.44922,0 4.39453,-0.35156 5.61328,-0.85547 l -0.28125,-4.75781 c -0.79687,0.22266 -2.01562,0.43359 -3.67968,0.43359 -3.52735,0 -4.7461,-2.44921 -4.7461,-6.76171 v -18.79688 h 9.07032 v -4.82812 h -9.07032 v -10.00782 z m 28.73145,43.19531 v -34.85156 h -6.32813 v 34.85156 z m -3.16406,-48.59766 c -2.3086,0 -3.96094,1.72266 -3.96094,3.96094 0,2.15625 1.58203,3.87891 3.82031,3.87891 2.51953,0 4.10156,-1.72266 4.03125,-3.87891 0,-2.23828 -1.51172,-3.96094 -3.89062,-3.96094 z m 37.43847,-2.51953 v 20.80078 h -0.14062 c -1.58203,-2.80078 -5.19141,-5.32031 -10.51172,-5.32031 -8.49609,0 -15.70312,7.125 -15.63281,18.71484 0,10.58203 6.48047,17.71875 14.90625,17.71875 5.69531,0 9.9375,-2.95312 11.88281,-6.84375 h 0.14063 l 0.29296,6.04688 h 5.6836 c -0.21094,-2.37891 -0.28125,-5.90625 -0.28125,-9 v -42.11719 z m 0,36.50391 c 0,1.00781 -0.0703,1.875 -0.29296,2.73047 -1.14844,4.75781 -5.03907,7.55859 -9.28125,7.55859 -6.84375,0 -10.30079,-5.82422 -10.30079,-12.87891 0,-7.71093 3.89063,-13.46484 10.44141,-13.46484 4.75781,0 8.21484,3.30469 9.14063,7.33594 0.22265,0.79687 0.29296,1.875 0.29296,2.67187 z m 41.90625,14.61328 c -0.43359,-2.37891 -0.58593,-5.33203 -0.58593,-8.35547 v -13.03125 c 0,-6.98438 -2.58985,-14.25 -13.24219,-14.25 -4.39453,0 -8.56641,1.21875 -11.44922,3.09375 l 1.44141,4.17187 c 2.44922,-1.58203 5.83593,-2.58984 9.07031,-2.58984 7.125,0 7.92187,5.17969 7.92187,8.0625 v 0.72656 c -13.46484,-0.0703 -20.95312,4.53516 -20.95312,12.96094 0,5.03906 3.59766,10.00781 10.65234,10.00781 4.96875,0 8.71875,-2.44922 10.66407,-5.1914 h 0.21093 l 0.50391,4.39453 z m -6.70312,-11.73047 c 0,0.64453 -0.14063,1.35937 -0.35156,2.01562 -1.01953,2.94141 -3.89063,5.82422 -8.42578,5.82422 -3.2461,0 -5.97657,-1.94531 -5.97657,-6.04687 0,-6.76172 7.83985,-7.99219 14.75391,-7.85156 z m 40.10742,-39.38672 v 20.80078 h -0.14062 c -1.58204,-2.80078 -5.19141,-5.32031 -10.51172,-5.32031 -8.4961,0 -15.70313,7.125 -15.63282,18.71484 0,10.58203 6.48047,17.71875 14.90625,17.71875 5.69532,0 9.9375,-2.95312 11.88282,-6.84375 h 0.14062 l 0.29297,6.04688 h 5.68359 c -0.21093,-2.37891 -0.28125,-5.90625 -0.28125,-9 v -42.11719 z m 0,36.50391 c 0,1.00781 -0.0703,1.875 -0.29297,2.73047 -1.14844,4.75781 -5.03906,7.55859 -9.28125,7.55859 -6.84375,0 -10.30078,-5.82422 -10.30078,-12.87891 0,-7.71093 3.89063,-13.46484 10.44141,-13.46484 4.75781,0 8.21484,3.30469 9.14062,7.33594 0.22266,0.79687 0.29297,1.875 0.29297,2.67187 z m 44.86231,-1.66407 c 0.0703,-0.64453 0.21093,-1.65234 0.21093,-2.9414 0,-6.41016 -3.02343,-16.41797 -14.40234,-16.41797 -10.14844,0 -16.34766,8.27344 -16.34766,18.78516 0,10.51171 6.41016,17.5664 17.14453,17.5664 5.54297,0 9.35157,-1.14844 11.58985,-2.15625 l -1.07813,-4.53515 c -2.3789,1.00781 -5.10937,1.80468 -9.65625,1.80468 -6.32812,0 -11.80078,-3.52734 -11.9414,-12.10547 z m -24.41016,-4.53515 c 0.50391,-4.38281 3.30469,-10.28906 9.71484,-10.28906 7.125,0 8.85938,6.25781 8.78907,10.28906 z M -63.792509,892.94494 h 6.257812 v -19.4414 c 1.441406,0.36328 3.175781,0.43359 5.050781,0.43359 6.117188,0 11.519532,-1.80469 14.824219,-5.33203 2.449219,-2.51953 3.75,-5.97656 3.75,-10.35938 0,-4.32422 -1.582031,-7.85156 -4.253906,-10.16015 -2.882813,-2.58985 -7.417969,-4.03125 -13.605469,-4.03125 -5.039062,0 -9,0.43359 -12.023437,0.9375 z m 6.257812,-43.41797 c 1.089844,-0.28125 3.175781,-0.5039 5.90625,-0.5039 6.914063,0 11.449219,3.09375 11.449219,9.5039 0,6.70313 -4.605469,10.3711 -12.164063,10.3711 -2.085937,0 -3.820312,-0.14063 -5.191406,-0.50391 z m 30.685547,43.41797 h 6.257813 v -18.57422 c 0,-1.07812 0.140625,-2.08593 0.292968,-2.95312 0.855469,-4.75781 4.03125,-8.13281 8.496094,-8.13281 0.855469,0 1.511719,0.0703 2.15625,0.21093 v -5.97656 c -0.574219,-0.14062 -1.078125,-0.21094 -1.804687,-0.21094 -4.242188,0 -8.0625,2.95313 -9.644532,7.62891 h -0.292968 l -0.210938,-6.84375 h -5.542969 c 0.210938,3.24609 0.292969,6.77344 0.292969,10.875 z m 37.576172,-35.63672 c -9.6445314,0 -17.2851564,6.83203 -17.2851564,18.50391 0,11.01562 7.27734378,17.92969 16.7109374,17.92969 8.425781,0 17.355469,-5.625 17.355469,-18.50391 0,-10.66406 -6.773438,-17.92969 -16.78125,-17.92969 z m -0.140625,4.7461 c 7.488281,0 10.441406,7.48828 10.441406,13.39453 0,7.85156 -4.535156,13.53515 -10.59375,13.53515 -6.1874999,0 -10.58203112,-5.7539 -10.58203112,-13.39453 0,-6.62109 3.24609372,-13.53515 10.73437512,-13.53515 z m 48.667969,-20.22657 v 20.80079 h -0.140625 c -1.582032,-2.80079 -5.191407,-5.32032 -10.511719,-5.32032 -8.496094,0 -15.703125,7.125 -15.632813,18.71485 0,10.58203 6.480469,17.71875 14.90625,17.71875 5.695313,0 9.9375,-2.95313 11.882813,-6.84375 h 0.140625 l 0.292969,6.04687 h 5.683593 c -0.210937,-2.3789 -0.28125,-5.90625 -0.28125,-9 v -42.11719 z m 0,36.50391 c 0,1.00781 -0.07031,1.875 -0.292969,2.73047 -1.148438,4.75781 -5.039063,7.55859 -9.28125,7.55859 -6.84375,0 -10.300781,-5.82422 -10.300781,-12.8789 0,-7.71094 3.890625,-13.46485 10.441406,-13.46485 4.757812,0 8.214844,3.30469 9.140625,7.33594 0.222656,0.79688 0.292969,1.875 0.292969,2.67188 z m 46.010744,-20.23828 h -6.339846 v 21.38672 c 0,1.14844 -0.210937,2.30859 -0.574219,3.24609 -1.148437,2.80078 -4.101562,5.75391 -8.355468,5.75391 -5.753907,0 -7.769532,-4.46485 -7.769532,-11.08594 v -19.30078 h -6.339843 v 20.37891 c 0,12.24609 6.550781,15.26953 12.023437,15.26953 6.199219,0 9.867188,-3.67969 11.519531,-6.48047 h 0.140625 l 0.363282,5.68359 h 5.613283 c -0.21094,-2.73047 -0.28125,-5.90625 -0.28125,-9.5039 z m 34.27148,28.80469 c -1.80469,0.78515 -4.17187,1.72265 -7.78125,1.72265 -6.90234,0 -12.09375,-4.96875 -12.09375,-13.03125 0,-7.26562 4.32422,-13.17187 12.31641,-13.17187 3.45703,0 5.83594,0.79687 7.34765,1.65234 l 1.42969,-4.89844 c -1.72265,-0.85546 -5.03906,-1.79296 -8.77734,-1.79296 -11.37891,0 -18.72656,7.76953 -18.72656,18.5039 0,10.65235 6.84375,17.77735 17.35546,17.77735 4.6875,0 8.35547,-1.14844 10.00782,-2.01563 z m 33.55664,6.04687 c -0.43359,-2.3789 -0.58593,-5.33203 -0.58593,-8.35547 v -13.03125 c 0,-6.98437 -2.58985,-14.25 -13.24219,-14.25 -4.39453,0 -8.56641,1.21875 -11.44922,3.09375 l 1.44141,4.17188 c 2.44921,-1.58203 5.83593,-2.58985 9.07031,-2.58985 7.125,0 7.92187,5.17969 7.92187,8.0625 v 0.72657 c -13.46484,-0.0703 -20.95312,4.53515 -20.95312,12.96093 0,5.03907 3.59765,10.00782 10.65234,10.00782 4.96875,0 8.71875,-2.44922 10.66406,-5.19141 h 0.21094 l 0.50391,4.39453 z m -6.70312,-11.73047 c 0,0.64453 -0.14063,1.35938 -0.35156,2.01563 -1.01954,2.9414 -3.89063,5.82422 -8.42579,5.82422 -3.24609,0 -5.97656,-1.94532 -5.97656,-6.04688 0,-6.76172 7.83985,-7.99219 14.75391,-7.85156 z m 31.10449,-23.90625 c -9.64453,0 -17.28516,6.83203 -17.28516,18.50391 0,11.01562 7.27735,17.92969 16.71094,17.92969 8.42578,0 17.35547,-5.625 17.35547,-18.50391 0,-10.66406 -6.77344,-17.92969 -16.78125,-17.92969 z m -0.14062,4.7461 c 7.48828,0 10.4414,7.48828 10.4414,13.39453 0,7.85156 -4.53515,13.53515 -10.59375,13.53515 -6.1875,0 -10.58203,-5.7539 -10.58203,-13.39453 0,-6.62109 3.24609,-13.53515 10.73438,-13.53515 z m 27.64746,6.26953 c 2.66015,0 4.32421,-1.94531 4.32421,-4.46485 -0.082,-2.67187 -1.73437,-4.53515 -4.2539,-4.53515 -2.51953,0 -4.32422,1.86328 -4.32422,4.53515 0,2.51954 1.73437,4.46485 4.25391,4.46485 z m 0,25.41797 c 2.66015,0 4.32421,-1.94532 4.32421,-4.46485 -0.082,-2.67187 -1.73437,-4.53515 -4.2539,-4.53515 -2.51953,0 -4.32422,1.86328 -4.32422,4.53515 0,2.51953 1.73437,4.46485 4.25391,4.46485 z m 52.70214,-16.06641 5.17969,15.26953 h 6.70313 L 273.0278,844.4176 h -7.55859 l -16.48828,48.52734 h 6.48047 l 5.03906,-15.26953 z m -15.91406,-4.88672 4.75781,-14.03906 c 0.9375,-2.95313 1.72266,-5.90625 2.44922,-8.78906 h 0.14063 c 0.71484,2.8125 1.4414,5.68359 2.51953,8.85937 l 4.74609,13.96875 z m 34.49707,20.15625 h 6.32813 v -51.11719 h -6.32813 z m 45,-16.27734 c 0.0703,-0.64453 0.21094,-1.65235 0.21094,-2.94141 0,-6.41015 -3.02344,-16.41797 -14.40234,-16.41797 -10.14844,0 -16.34766,8.27344 -16.34766,18.78516 0,10.51172 6.41016,17.56641 17.14453,17.56641 5.54297,0 9.35156,-1.14844 11.58984,-2.15625 l -1.07812,-4.53516 c -2.37891,1.00781 -5.10938,1.80469 -9.65625,1.80469 -6.32813,0 -11.80078,-3.52735 -11.94141,-12.10547 z m -24.41015,-4.53516 c 0.5039,-4.38281 3.30468,-10.28906 9.71484,-10.28906 7.125,0 8.85937,6.25781 8.78906,10.28906 z m 28.14257,-14.03906 11.8125,17.0625 -12.38671,17.78906 h 6.98437 l 5.03906,-7.85156 c 1.30078,-2.08594 2.51953,-3.96094 3.67969,-6.04688 h 0.14063 c 1.21875,2.08594 2.3789,4.03125 3.73828,6.04688 l 5.12109,7.85156 h 7.19531 l -12.24609,-18 11.88281,-16.85156 h -6.83203 l -4.89844,7.41797 c -1.16015,1.875 -2.30859,3.66797 -3.45703,5.76562 h -0.22265 c -1.14844,-1.94531 -2.22657,-3.75 -3.52735,-5.69531 l -4.96875,-7.48828 z m 62.50489,34.85156 c -0.4336,-2.3789 -0.58594,-5.33203 -0.58594,-8.35547 v -13.03125 c 0,-6.98437 -2.58984,-14.25 -13.24219,-14.25 -4.39453,0 -8.5664,1.21875 -11.44922,3.09375 l 1.44141,4.17188 c 2.44922,-1.58203 5.83594,-2.58985 9.07031,-2.58985 7.125,0 7.92188,5.17969 7.92188,8.0625 v 0.72657 c -13.46485,-0.0703 -20.95313,4.53515 -20.95313,12.96093 0,5.03907 3.59766,10.00782 10.65235,10.00782 4.96875,0 8.71875,-2.44922 10.66406,-5.19141 h 0.21094 l 0.5039,4.39453 z m -6.70313,-11.73047 c 0,0.64453 -0.14062,1.35938 -0.35156,2.01563 -1.01953,2.9414 -3.89063,5.82422 -8.42578,5.82422 -3.2461,0 -5.97656,-1.94532 -5.97656,-6.04688 0,-6.76172 7.83984,-7.99219 14.7539,-7.85156 z m 16.35352,11.73047 h 6.32812 v -20.95312 c 0,-1.07813 0.14063,-2.15625 0.4336,-2.95313 1.07812,-3.52734 4.32422,-6.48047 8.49609,-6.48047 5.97656,0 8.0625,4.6875 8.0625,10.30078 v 20.08594 h 6.33984 v -20.8125 c 0,-11.95312 -7.48828,-14.82422 -12.3164,-14.82422 -5.75391,0 -9.78516,3.23438 -11.51953,6.55078 h -0.14063 l -0.36328,-5.76562 h -5.61328 c 0.21094,2.88281 0.29297,5.83594 0.29297,9.43359 z m 63.71191,-51.11719 v 20.80079 h -0.14062 c -1.58203,-2.80079 -5.19141,-5.32032 -10.51172,-5.32032 -8.4961,0 -15.70313,7.125 -15.63281,18.71485 0,10.58203 6.48046,17.71875 14.90625,17.71875 5.69531,0 9.9375,-2.95313 11.88281,-6.84375 h 0.14062 l 0.29297,6.04687 h 5.6836 c -0.21094,-2.3789 -0.28125,-5.90625 -0.28125,-9 v -42.11719 z m 0,36.50391 c 0,1.00781 -0.0703,1.875 -0.29297,2.73047 -1.14843,4.75781 -5.03906,7.55859 -9.28125,7.55859 -6.84375,0 -10.30078,-5.82422 -10.30078,-12.8789 0,-7.71094 3.89063,-13.46485 10.44141,-13.46485 4.75781,0 8.21484,3.30469 9.14062,7.33594 0.22266,0.79688 0.29297,1.875 0.29297,2.67188 z m 16.85449,14.61328 h 6.25782 v -18.57422 c 0,-1.07812 0.14062,-2.08593 0.29297,-2.95312 0.85546,-4.75781 4.03125,-8.13281 8.49609,-8.13281 0.85547,0 1.51172,0.0703 2.15625,0.21093 v -5.97656 c -0.57422,-0.14062 -1.07813,-0.21094 -1.80469,-0.21094 -4.24219,0 -8.0625,2.95313 -9.64453,7.62891 h -0.29297 l -0.21094,-6.84375 h -5.54296 c 0.21093,3.24609 0.29296,6.77344 0.29296,10.875 z M 548.5737,876.6676 c 0.0703,-0.64453 0.21094,-1.65235 0.21094,-2.94141 0,-6.41015 -3.02344,-16.41797 -14.40234,-16.41797 -10.14844,0 -16.34766,8.27344 -16.34766,18.78516 0,10.51172 6.41016,17.56641 17.14453,17.56641 5.54297,0 9.35156,-1.14844 11.58984,-2.15625 l -1.07812,-4.53516 c -2.37891,1.00781 -5.10938,1.80469 -9.65625,1.80469 -6.32813,0 -11.80078,-3.52735 -11.94141,-12.10547 z m -24.41015,-4.53516 c 0.5039,-4.38281 3.30468,-10.28906 9.71484,-10.28906 7.125,0 8.85937,6.25781 8.78906,10.28906 z m 67.60253,-28.51172 c -12.96093,0 -22.53515,10.08985 -22.53515,25.48828 0,14.69532 9,24.63282 21.82031,24.63282 12.38672,0 22.53516,-8.85938 22.53516,-25.57032 0,-14.39062 -8.56641,-24.55078 -21.82032,-24.55078 z m -0.28125,5.1211 c 10.44141,0 15.48047,10.07812 15.48047,19.72265 0,11.01563 -5.625,20.15625 -15.55078,20.15625 -9.86719,0 -15.48047,-9.28125 -15.48047,-19.65234 0,-10.65234 5.17969,-20.22656 15.55078,-20.22656 z m 27.57422,42.55078 c 2.44922,1.4414 5.97657,2.36719 9.78516,2.36719 8.28516,0 13.03125,-4.3125 13.03125,-10.42969 0,-5.19141 -3.09375,-8.21485 -9.14063,-10.51172 -4.53515,-1.73438 -6.62109,-3.03516 -6.62109,-5.90625 0,-2.58984 2.08594,-4.75781 5.82422,-4.75781 3.24609,0 5.76562,1.16015 7.13672,2.01562 l 1.58203,-4.60547 c -1.94531,-1.14843 -5.03906,-2.15625 -8.56641,-2.15625 -7.48828,0 -12.02343,4.60547 -12.02343,10.21875 0,4.1836 2.95312,7.62891 9.21093,9.86719 4.67578,1.72266 6.48047,3.38672 6.48047,6.41016 0,2.87109 -2.15625,5.17968 -6.77344,5.17968 -3.16406,0 -6.46875,-1.30078 -8.34375,-2.51953 z m 32.39356,-41.54297 v 8.34375 h -5.39063 v 4.82812 h 5.39063 v 19.00782 c 0,4.10156 0.65625,7.19531 2.44922,9.07031 1.51172,1.73437 3.89062,2.66016 6.84375,2.66016 2.44922,0 4.39453,-0.35157 5.61328,-0.85547 l -0.28125,-4.75782 c -0.79688,0.22266 -2.01563,0.4336 -3.67969,0.4336 -3.52734,0 -4.74609,-2.44922 -4.74609,-6.76172 V 862.9215 h 9.07031 v -4.82812 h -9.07031 v -10.00781 z m 22.40039,43.19531 h 6.25781 v -18.57422 c 0,-1.07812 0.14063,-2.08593 0.29297,-2.95312 0.85547,-4.75781 4.03125,-8.13281 8.49609,-8.13281 0.85547,0 1.51172,0.0703 2.15625,0.21093 v -5.97656 c -0.57422,-0.14062 -1.07812,-0.21094 -1.80468,-0.21094 -4.24219,0 -8.0625,2.95313 -9.64454,7.62891 h -0.29296 l -0.21094,-6.84375 h -5.54297 c 0.21094,3.24609 0.29297,6.77344 0.29297,10.875 z m 37.5791,-35.63672 c -9.64453,0 -17.28516,6.83203 -17.28516,18.50391 0,11.01562 7.27735,17.92969 16.71094,17.92969 8.42578,0 17.35547,-5.625 17.35547,-18.50391 0,-10.66406 -6.77344,-17.92969 -16.78125,-17.92969 z m -0.14062,4.7461 c 7.48828,0 10.4414,7.48828 10.4414,13.39453 0,7.85156 -4.53515,13.53515 -10.59375,13.53515 -6.1875,0 -10.58203,-5.7539 -10.58203,-13.39453 0,-6.62109 3.24609,-13.53515 10.73438,-13.53515 z m 20.08593,-3.96094 13.24219,34.85156 h 6.04688 l 13.6875,-34.85156 h -6.6211 l -6.77344,19.58203 c -1.14843,3.17578 -2.15625,6.05859 -2.95312,8.92969 h -0.21094 c -0.72656,-2.8711 -1.66406,-5.75391 -2.8125,-8.92969 l -6.84375,-19.58203 z m 36.07617,33.19922 c 2.44922,1.4414 5.97657,2.36719 9.78516,2.36719 8.28516,0 13.03125,-4.3125 13.03125,-10.42969 0,-5.19141 -3.09375,-8.21485 -9.14062,-10.51172 -4.53516,-1.73438 -6.6211,-3.03516 -6.6211,-5.90625 0,-2.58984 2.08594,-4.75781 5.82422,-4.75781 3.24609,0 5.76563,1.16015 7.13672,2.01562 l 1.58203,-4.60547 c -1.94531,-1.14843 -5.03906,-2.15625 -8.56641,-2.15625 -7.48828,0 -12.02343,4.60547 -12.02343,10.21875 0,4.1836 2.95312,7.62891 9.21093,9.86719 4.67579,1.72266 6.48047,3.38672 6.48047,6.41016 0,2.87109 -2.15625,5.17968 -6.77343,5.17968 -3.16407,0 -6.46875,-1.30078 -8.34375,-2.51953 z m 37.21875,-49.46485 h -6.25781 v 51.11719 h 6.25781 v -13.10156 l 3.2461,-3.59766 12.02344,16.69922 h 7.69921 l -15.33984,-20.51953 13.46484,-14.33203 h -7.6289 l -10.21875,12.02344 c -1.00781,1.23047 -2.23828,2.74218 -3.10547,3.96093 h -0.14063 z m 23.82715,16.26563 12.89063,32.12109 c 0.29297,0.78516 0.43359,1.28907 0.43359,1.65235 0,0.36328 -0.21094,0.86718 -0.5039,1.51172 -1.44141,3.23437 -3.59766,5.68359 -5.33204,7.05468 -1.86328,1.58203 -3.96093,2.58985 -5.54296,3.09375 l 1.58203,5.33203 c 1.59375,-0.29296 4.6875,-1.37109 7.78125,-4.10156 4.32422,-3.75 7.41797,-9.86719 11.95312,-21.82031 l 9.50391,-24.84375 h -6.70313 l -6.90234,20.44922 c -0.86719,2.51953 -1.59375,5.1914 -2.23828,7.27734 h -0.14063 c -0.57422,-2.08594 -1.4414,-4.82812 -2.23828,-7.13672 l -7.6289,-20.58984 z m 36.14356,43.27734 c 2.01562,-3.38672 5.1914,-11.3789 6.84375,-17.49609 l -7.05469,0.71484 c -0.79687,5.26172 -2.74219,12.96094 -4.32422,17.21485 z M -1.5102828,953.85607 H -17.494658 v 5.03907 h 9.8671877 v 14.47265 c -1.4414063,0.71485 -4.2539067,1.30078 -8.3554687,1.30078 -11.308594,0 -18.726563,-7.27734 -18.726563,-19.59375 0,-12.16406 7.710938,-19.51171 19.511719,-19.51171 4.898438,0 8.1445314,0.9375 10.7343752,2.09765 l 1.5117187,-5.12109 c -2.0859375,-1.00781 -6.4804687,-2.22656 -12.0937499,-2.22656 -16.277344,0 -26.214844,10.58203 -26.285156,25.05468 0,7.5586 2.589843,14.03907 6.773437,18.07032 4.746094,4.53515 10.792969,6.41015 18.140625,6.41015 6.5507814,0 12.0937502,-1.65234 14.9062502,-2.66015 z m 38.5195308,-9.36328 h -6.339843 v 21.38672 c 0,1.14844 -0.210938,2.3086 -0.574219,3.2461 -1.148438,2.80078 -4.101563,5.7539 -8.355469,5.7539 -5.753906,0 -7.769531,-4.46484 -7.769531,-11.08594 V 944.49279 H 7.6303422 v 20.37891 c 0,12.24609 6.5507808,15.26953 12.0234378,15.26953 6.199218,0 9.867187,-3.67969 11.519531,-6.48047 h 0.140625 l 0.363281,5.6836 h 5.613281 c -0.210937,-2.73047 -0.28125,-5.90625 -0.28125,-9.50391 z m 8.06836,33.19922 c 2.449219,1.44141 5.976562,2.36719 9.785156,2.36719 8.285156,0 13.03125,-4.3125 13.03125,-10.42969 0,-5.1914 -3.09375,-8.21484 -9.140625,-10.51172 -4.535156,-1.73437 -6.621094,-3.03515 -6.621094,-5.90625 0,-2.58984 2.085938,-4.75781 5.824219,-4.75781 3.246094,0 5.765625,1.16016 7.136719,2.01563 l 1.582031,-4.60547 c -1.945312,-1.14844 -5.039062,-2.15625 -8.566406,-2.15625 -7.488281,0 -12.023438,4.60547 -12.023438,10.21875 0,4.18359 2.953125,7.6289 9.210938,9.86718 4.675781,1.72266 6.480469,3.38672 6.480469,6.41016 0,2.87109 -2.15625,5.17969 -6.773438,5.17969 -3.164062,0 -6.46875,-1.30078 -8.34375,-2.51953 z m 32.390625,-41.54297 v 8.34375 h -5.390625 v 4.82813 h 5.390625 v 19.00781 c 0,4.10156 0.65625,7.19531 2.449219,9.07031 1.511718,1.73438 3.890625,2.66016 6.84375,2.66016 2.449218,0 4.394531,-0.35156 5.613281,-0.85547 l -0.28125,-4.75781 c -0.796875,0.22265 -2.015625,0.43359 -3.679688,0.43359 -3.527343,0 -4.746093,-2.44922 -4.746093,-6.76172 v -18.79687 h 9.070312 v -4.82813 h -9.070312 v -10.00781 z m 47.455077,43.19532 c -0.43359,-2.37891 -0.58594,-5.33204 -0.58594,-8.35547 v -13.03125 c 0,-6.98438 -2.58984,-14.25 -13.24218,-14.25 -4.39454,0 -8.56641,1.21875 -11.449223,3.09375 l 1.441403,4.17187 c 2.44922,-1.58203 5.83594,-2.58984 9.07032,-2.58984 7.125,0 7.92187,5.17969 7.92187,8.0625 v 0.72656 c -13.46484,-0.0703 -20.953124,4.53516 -20.953124,12.96094 0,5.03906 3.597654,10.00781 10.652344,10.00781 4.96875,0 8.71875,-2.44922 10.66406,-5.19141 h 0.21094 l 0.50391,4.39454 z m -6.70312,-11.73047 c 0,0.64453 -0.14063,1.35937 -0.35157,2.01562 -1.01953,2.94141 -3.89062,5.82422 -8.42578,5.82422 -3.24609,0 -5.97656,-1.94531 -5.97656,-6.04687 0,-6.76172 7.83984,-7.99219 14.75391,-7.85157 z m 11.45214,-23.1211 13.24219,34.85157 h 6.04688 l 13.6875,-34.85157 h -6.6211 l -6.77343,19.58203 c -1.14844,3.17579 -2.15625,6.0586 -2.95313,8.92969 h -0.21094 c -0.72656,-2.87109 -1.66406,-5.7539 -2.8125,-8.92969 l -6.84375,-19.58203 z m 52.99219,-0.78515 c -9.64453,0 -17.28515,6.83203 -17.28515,18.5039 0,11.01563 7.27734,17.92969 16.71093,17.92969 8.42578,0 17.35547,-5.625 17.35547,-18.50391 0,-10.66406 -6.77344,-17.92968 -16.78125,-17.92968 z m -0.14062,4.74609 c 7.48828,0 10.4414,7.48828 10.4414,13.39453 0,7.85156 -4.53515,13.53516 -10.59375,13.53516 -6.1875,0 -10.58203,-5.75391 -10.58203,-13.39453 0,-6.6211 3.2461,-13.53516 10.73438,-13.53516 z m 82.50586,30.89063 h 6.11718 l -3.02343,-48.52735 h -7.99219 l -8.63672,23.47266 c -2.15625,6.11719 -3.89062,11.44922 -5.10937,16.34765 h -0.22266 c -1.21875,-5.05078 -2.87109,-10.37109 -4.88672,-16.34765 l -8.28516,-23.47266 h -7.99218 l -3.38672,48.52735 h 5.97656 l 1.30078,-20.8125 c 0.4336,-7.26563 0.78516,-15.39844 0.9375,-21.45704 h 0.14063 c 1.37109,5.76563 3.3164,12.03516 5.61328,18.86719 l 7.85156,23.10938 h 4.74609 l 8.57813,-23.54297 c 2.44922,-6.69141 4.46484,-12.73828 6.11719,-18.4336 h 0.21093 c -0.0703,6.0586 0.36329,14.19141 0.72657,20.95313 z m 57.88769,0 h 6.11719 l -3.02344,-48.52735 h -7.99219 l -8.63671,23.47266 c -2.15625,6.11719 -3.89063,11.44922 -5.10938,16.34765 h -0.22266 c -1.21875,-5.05078 -2.87109,-10.37109 -4.88671,-16.34765 l -8.28516,-23.47266 h -7.99219 l -3.38672,48.52735 h 5.97657 l 1.30078,-20.8125 c 0.43359,-7.26563 0.78515,-15.39844 0.9375,-21.45704 h 0.14062 c 1.3711,5.76563 3.31641,12.03516 5.61328,18.86719 l 7.85157,23.10938 h 4.74609 l 8.57812,-23.54297 c 2.44922,-6.69141 4.46485,-12.73828 6.11719,-18.4336 h 0.21094 c -0.0703,6.0586 0.36328,14.19141 0.72656,20.95313 z m 58.83106,-16.27735 c 0.0703,-0.64453 0.21093,-1.65234 0.21093,-2.9414 0,-6.41016 -3.02343,-16.41797 -14.40234,-16.41797 -10.14844,0 -16.34766,8.27343 -16.34766,18.78515 0,10.51172 6.41016,17.56641 17.14454,17.56641 5.54296,0 9.35156,-1.14844 11.58984,-2.15625 l -1.07813,-4.53516 c -2.3789,1.00782 -5.10937,1.80469 -9.65625,1.80469 -6.32812,0 -11.80078,-3.52734 -11.9414,-12.10547 z m -24.41016,-4.53515 c 0.50391,-4.38282 3.30469,-10.28907 9.71484,-10.28907 7.125,0 8.85938,6.25782 8.78907,10.28907 z m 47.9502,20.67187 c 3.16406,0.35156 6.91406,0.57422 11.3789,0.57422 9.4336,0 16.92188,-2.44922 21.45703,-6.98438 4.53516,-4.46484 6.98438,-10.94531 6.98438,-18.86718 0,-7.85157 -2.51953,-13.46485 -6.84375,-17.42578 -4.25391,-3.96094 -10.65235,-6.04688 -19.65235,-6.04688 -4.96875,0 -9.5039,0.43359 -13.32421,1.00781 z m 6.25781,-43.13672 c 1.66406,-0.35156 4.11328,-0.64453 7.34765,-0.64453 13.25391,0 19.73438,7.27734 19.65235,18.72656 0,13.10157 -7.26563,20.58985 -20.66016,20.58985 -2.44922,0 -4.74609,-0.0703 -6.33984,-0.36328 z m 66.53906,43.27735 c -0.43359,-2.37891 -0.58594,-5.33204 -0.58594,-8.35547 v -13.03125 c 0,-6.98438 -2.58984,-14.25 -13.24218,-14.25 -4.39454,0 -8.56641,1.21875 -11.44922,3.09375 l 1.4414,4.17187 c 2.44922,-1.58203 5.83594,-2.58984 9.07032,-2.58984 7.125,0 7.92187,5.17969 7.92187,8.0625 v 0.72656 c -13.46484,-0.0703 -20.95312,4.53516 -20.95312,12.96094 0,5.03906 3.59765,10.00781 10.65234,10.00781 4.96875,0 8.71875,-2.44922 10.66406,-5.19141 h 0.21094 l 0.50391,4.39454 z m -6.70312,-11.73047 c 0,0.64453 -0.14063,1.35937 -0.35157,2.01562 -1.01953,2.94141 -3.89062,5.82422 -8.42578,5.82422 -3.24609,0 -5.97656,-1.94531 -5.97656,-6.04687 0,-6.76172 7.83984,-7.99219 14.75391,-7.85157 z m 16.35058,11.73047 h 6.32813 v -20.95313 c 0,-1.07812 0.14062,-2.15625 0.43359,-2.95312 1.07813,-3.52735 4.32422,-6.48047 8.49609,-6.48047 5.97657,0 8.0625,4.6875 8.0625,10.30078 v 20.08594 h 6.33985 v -20.8125 c 0,-11.95313 -7.48828,-14.82422 -12.31641,-14.82422 -5.7539,0 -9.78515,3.23437 -11.51953,6.55078 h -0.14062 l -0.36329,-5.76563 h -5.61328 c 0.21094,2.88282 0.29297,5.83594 0.29297,9.4336 z m 46.28906,0 v -34.85157 h -6.32812 v 34.85157 z m -3.16406,-48.59766 c -2.30859,0 -3.96094,1.72266 -3.96094,3.96094 0,2.15625 1.58204,3.8789 3.82032,3.8789 2.51953,0 4.10156,-1.72265 4.03125,-3.8789 0,-2.23828 -1.51172,-3.96094 -3.89063,-3.96094 z m 41.69238,32.32031 c 0.0703,-0.64453 0.21094,-1.65234 0.21094,-2.9414 0,-6.41016 -3.02344,-16.41797 -14.40234,-16.41797 -10.14844,0 -16.34766,8.27343 -16.34766,18.78515 0,10.51172 6.41016,17.56641 17.14453,17.56641 5.54297,0 9.35157,-1.14844 11.58985,-2.15625 l -1.07813,-4.53516 c -2.3789,1.00782 -5.10937,1.80469 -9.65625,1.80469 -6.32812,0 -11.80078,-3.52734 -11.9414,-12.10547 z m -24.41015,-4.53515 c 0.5039,-4.38282 3.30469,-10.28907 9.71484,-10.28907 7.125,0 8.85938,6.25782 8.78906,10.28907 z m 32.47265,20.8125 h 6.32813 v -51.11719 h -6.32813 z m 32.4668,-0.14063 c 3.16406,0.35156 6.91406,0.57422 11.37891,0.57422 9.43359,0 16.92187,-2.44922 21.45703,-6.98438 4.53515,-4.46484 6.98437,-10.94531 6.98437,-18.86718 0,-7.85157 -2.51953,-13.46485 -6.84375,-17.42578 -4.2539,-3.96094 -10.65234,-6.04688 -19.65234,-6.04688 -4.96875,0 -9.50391,0.43359 -13.32422,1.00781 z m 6.25781,-43.13672 c 1.66407,-0.35156 4.11328,-0.64453 7.34766,-0.64453 13.25391,0 19.73437,7.27734 19.65234,18.72656 0,13.10157 -7.26562,20.58985 -20.66015,20.58985 -2.44922,0 -4.7461,-0.0703 -6.33985,-0.36328 z m 47.8125,43.27735 v -34.85157 h -6.32812 v 34.85157 z m -3.16406,-48.59766 c -2.30859,0 -3.96094,1.72266 -3.96094,3.96094 0,2.15625 1.58203,3.8789 3.82032,3.8789 2.51953,0 4.10156,-1.72265 4.03125,-3.8789 0,-2.23828 -1.51172,-3.96094 -3.89063,-3.96094 z m 26.70996,46.21875 c 2.58985,1.73437 7.69922,3.09375 12.38672,3.09375 11.44922,0 16.99219,-6.48047 16.99219,-13.95703 0,-7.13672 -4.1836,-11.09766 -12.38672,-14.26172 -6.69141,-2.58984 -9.64453,-4.82813 -9.64453,-9.36328 0,-3.30469 2.51953,-7.26563 9.14062,-7.26563 4.39453,0 7.62891,1.44141 9.21094,2.29688 l 1.73438,-5.10938 c -2.15625,-1.21875 -5.76563,-2.3789 -10.73438,-2.3789 -9.42187,0 -15.69141,5.625 -15.69141,13.18359 0,6.83203 4.89844,10.94531 12.82032,13.74609 6.55078,2.51954 9.14062,5.10938 9.14062,9.65625 0,4.88672 -3.75,8.27344 -10.14844,8.27344 -4.32421,0 -8.42578,-1.4414 -11.23828,-3.16406 z m 63.00586,2.37891 c -0.43359,-2.37891 -0.58594,-5.33204 -0.58594,-8.35547 v -13.03125 c 0,-6.98438 -2.58984,-14.25 -13.24218,-14.25 -4.39453,0 -8.56641,1.21875 -11.44922,3.09375 l 1.4414,4.17187 c 2.44922,-1.58203 5.83594,-2.58984 9.07032,-2.58984 7.125,0 7.92187,5.17969 7.92187,8.0625 v 0.72656 c -13.46484,-0.0703 -20.95312,4.53516 -20.95312,12.96094 0,5.03906 3.59765,10.00781 10.65234,10.00781 4.96875,0 8.71875,-2.44922 10.66406,-5.19141 h 0.21094 l 0.50391,4.39454 z m -6.70312,-11.73047 c 0,0.64453 -0.14063,1.35937 -0.35157,2.01562 -1.01953,2.94141 -3.89062,5.82422 -8.42578,5.82422 -3.24609,0 -5.97656,-1.94531 -5.97656,-6.04687 0,-6.76172 7.83984,-7.99219 14.75391,-7.85157 z m 16.35058,11.73047 h 6.32813 v -51.11719 h -6.32813 z m 12.66797,-34.85157 13.24219,34.85157 h 6.04687 l 13.6875,-34.85157 h -6.62109 l -6.77344,19.58203 c -1.14844,3.17579 -2.15625,6.0586 -2.95312,8.92969 h -0.21094 c -0.72656,-2.87109 -1.66406,-5.7539 -2.8125,-8.92969 l -6.84375,-19.58203 z m 52.98926,-0.78515 c -9.64453,0 -17.28516,6.83203 -17.28516,18.5039 0,11.01563 7.27735,17.92969 16.71094,17.92969 8.42578,0 17.35547,-5.625 17.35547,-18.50391 0,-10.66406 -6.77344,-17.92968 -16.78125,-17.92968 z m -0.14063,4.74609 c 7.48829,0 10.44141,7.48828 10.44141,13.39453 0,7.85156 -4.53516,13.53516 -10.59375,13.53516 -6.1875,0 -10.58203,-5.75391 -10.58203,-13.39453 0,-6.6211 3.24609,-13.53516 10.73437,-13.53516 z M 92.951631,1017.2164 v 48.5274 h 6.257813 V 1042.986 H 122.6821 v 22.7578 h 6.33984 v -48.5274 h -6.33984 v 20.3086 H 99.209444 v -20.3086 z m 61.488279,12.8907 c -9.64453,0 -17.28515,6.832 -17.28515,18.5039 0,11.0156 7.27734,17.9296 16.71093,17.9296 8.42579,0 17.35547,-5.625 17.35547,-18.5039 0,-10.664 -6.77343,-17.9296 -16.78125,-17.9296 z m -0.14062,4.746 c 7.48828,0 10.4414,7.4883 10.4414,13.3946 0,7.8515 -4.53515,13.5351 -10.59375,13.5351 -6.1875,0 -10.58203,-5.7539 -10.58203,-13.3945 0,-6.6211 3.2461,-13.5352 10.73438,-13.5352 z m 22.46484,29.2383 c 2.44922,1.4414 5.97656,2.3672 9.78516,2.3672 8.28515,0 13.03125,-4.3125 13.03125,-10.4297 0,-5.1914 -3.09375,-8.2148 -9.14063,-10.5117 -4.53515,-1.7344 -6.62109,-3.0351 -6.62109,-5.9062 0,-2.5899 2.08594,-4.7579 5.82422,-4.7579 3.24609,0 5.76562,1.1602 7.13672,2.0157 l 1.58203,-4.6055 c -1.94531,-1.1484 -5.03906,-2.1562 -8.56641,-2.1562 -7.48828,0 -12.02344,4.6054 -12.02344,10.2187 0,4.1836 2.95313,7.6289 9.21094,9.8672 4.67578,1.7226 6.48047,3.3867 6.48047,6.4101 0,2.8711 -2.15625,5.1797 -6.77344,5.1797 -3.16406,0 -6.46875,-1.3007 -8.34375,-2.5195 z m 32.39063,-41.5429 v 8.3437 h -5.39063 v 4.8281 h 5.39063 v 19.0078 c 0,4.1016 0.65625,7.1954 2.44922,9.0704 1.51171,1.7343 3.89062,2.6601 6.84375,2.6601 2.44921,0 4.39453,-0.3515 5.61328,-0.8555 l -0.28125,-4.7578 c -0.79688,0.2227 -2.01563,0.4336 -3.67969,0.4336 -3.52734,0 -4.74609,-2.4492 -4.74609,-6.7617 v -18.7969 h 9.07031 v -4.8281 h -9.07031 v -10.0078 z m 49.97754,26.9179 c 0.0703,-0.6445 0.21093,-1.6523 0.21093,-2.9414 0,-6.4101 -3.02343,-16.4179 -14.40234,-16.4179 -10.14844,0 -16.34766,8.2734 -16.34766,18.7851 0,10.5117 6.41016,17.5664 17.14453,17.5664 5.54297,0 9.35157,-1.1484 11.58985,-2.1562 l -1.07813,-4.5352 c -2.3789,1.0078 -5.10937,1.8047 -9.65625,1.8047 -6.32812,0 -11.80078,-3.5273 -11.9414,-12.1055 z m -24.41016,-4.5351 c 0.50391,-4.3828 3.30469,-10.2891 9.71484,-10.2891 7.125,0 8.85938,6.2578 8.78907,10.2891 z m 30.02637,19.1601 c 2.44922,1.4414 5.97656,2.3672 9.78515,2.3672 8.28516,0 13.03125,-4.3125 13.03125,-10.4297 0,-5.1914 -3.09375,-8.2148 -9.14062,-10.5117 -4.53516,-1.7344 -6.6211,-3.0351 -6.6211,-5.9062 0,-2.5899 2.08594,-4.7579 5.82422,-4.7579 3.2461,0 5.76563,1.1602 7.13672,2.0157 l 1.58203,-4.6055 c -1.94531,-1.1484 -5.03906,-2.1562 -8.5664,-2.1562 -7.48828,0 -12.02344,4.6054 -12.02344,10.2187 0,4.1836 2.95312,7.6289 9.21094,9.8672 4.67578,1.7226 6.48047,3.3867 6.48047,6.4101 0,2.8711 -2.15625,5.1797 -6.77344,5.1797 -3.16406,0 -6.46875,-1.3007 -8.34375,-2.5195 z m 28.51172,0 c 2.44921,1.4414 5.97656,2.3672 9.78515,2.3672 8.28516,0 13.03125,-4.3125 13.03125,-10.4297 0,-5.1914 -3.09375,-8.2148 -9.14062,-10.5117 -4.53516,-1.7344 -6.6211,-3.0351 -6.6211,-5.9062 0,-2.5899 2.08594,-4.7579 5.82422,-4.7579 3.2461,0 5.76563,1.1602 7.13672,2.0157 l 1.58203,-4.6055 c -1.94531,-1.1484 -5.03906,-2.1562 -8.5664,-2.1562 -7.48829,0 -12.02344,4.6054 -12.02344,10.2187 0,4.1836 2.95312,7.6289 9.21094,9.8672 4.67578,1.7226 6.48046,3.3867 6.48046,6.4101 0,2.8711 -2.15625,5.1797 -6.77343,5.1797 -3.16407,0 -6.46875,-1.3007 -8.34375,-2.5195 z m 33.6914,-22.9687 c 2.66016,0 4.32422,-1.9453 4.32422,-4.4649 -0.082,-2.6718 -1.73437,-4.5351 -4.25391,-4.5351 -2.51953,0 -4.32421,1.8633 -4.32421,4.5351 0,2.5196 1.73437,4.4649 4.2539,4.4649 z m 0,25.4179 c 2.66016,0 4.32422,-1.9453 4.32422,-4.4648 -0.082,-2.6719 -1.73437,-4.5352 -4.25391,-4.5352 -2.51953,0 -4.32421,1.8633 -4.32421,4.5352 0,2.5195 1.73437,4.4648 4.2539,4.4648 z m 27.65039,-0.7968 h 6.25781 v -19.4414 c 1.44141,0.3632 3.17579,0.4336 5.05079,0.4336 6.11718,0 11.51953,-1.8047 14.82421,-5.3321 2.44922,-2.5195 3.75,-5.9765 3.75,-10.3593 0,-4.3243 -1.58203,-7.8516 -4.2539,-10.1602 -2.88281,-2.5898 -7.41797,-4.0313 -13.60547,-4.0313 -5.03906,0 -9,0.4336 -12.02344,0.9375 z m 6.25781,-43.418 c 1.08985,-0.2812 3.17579,-0.5039 5.90625,-0.5039 6.91407,0 11.44922,3.0937 11.44922,9.5039 0,6.7031 -4.60547,10.3711 -12.16406,10.3711 -2.08594,0 -3.82031,-0.1406 -5.19141,-0.5039 z m 30.68262,43.418 h 6.25781 v -18.5742 c 0,-1.0782 0.14063,-2.086 0.29297,-2.9532 0.85547,-4.7578 4.03125,-8.1328 8.4961,-8.1328 0.85547,0 1.51172,0.07 2.15625,0.211 v -5.9766 c -0.57422,-0.1406 -1.07813,-0.2109 -1.80469,-0.2109 -4.24219,0 -8.0625,2.9531 -9.64453,7.6289 h -0.29297 l -0.21094,-6.8438 h -5.54297 c 0.21094,3.2461 0.29297,6.7734 0.29297,10.875 z m 30.1582,0 v -34.8516 h -6.32812 v 34.8516 z m -3.16406,-48.5977 c -2.30859,0 -3.96094,1.7227 -3.96094,3.961 0,2.1562 1.58204,3.8789 3.82032,3.8789 2.51953,0 4.10156,-1.7227 4.03125,-3.8789 0,-2.2383 -1.51172,-3.961 -3.89063,-3.961 z m 11.23535,46.9453 c 2.44922,1.4414 5.97657,2.3672 9.78516,2.3672 8.28516,0 13.03125,-4.3125 13.03125,-10.4297 0,-5.1914 -3.09375,-8.2148 -9.14062,-10.5117 -4.53516,-1.7344 -6.6211,-3.0351 -6.6211,-5.9062 0,-2.5899 2.08594,-4.7579 5.82422,-4.7579 3.24609,0 5.76563,1.1602 7.13672,2.0157 l 1.58203,-4.6055 c -1.94531,-1.1484 -5.03906,-2.1562 -8.56641,-2.1562 -7.48828,0 -12.02343,4.6054 -12.02343,10.2187 0,4.1836 2.95312,7.6289 9.21093,9.8672 4.67579,1.7226 6.48047,3.3867 6.48047,6.4101 0,2.8711 -2.15625,5.1797 -6.77343,5.1797 -3.16407,0 -6.46875,-1.3007 -8.34375,-2.5195 z m 54.71485,-4.3945 c -1.80469,0.7852 -4.17188,1.7227 -7.78125,1.7227 -6.90235,0 -12.09375,-4.9688 -12.09375,-13.0313 0,-7.2656 4.32422,-13.1719 12.3164,-13.1719 3.45704,0 5.83594,0.7969 7.34766,1.6524 l 1.42969,-4.8985 c -1.72266,-0.8554 -5.03906,-1.7929 -8.77735,-1.7929 -11.3789,0 -18.72656,7.7695 -18.72656,18.5039 0,10.6523 6.84375,17.7773 17.35547,17.7773 4.6875,0 8.35547,-1.1484 10.00781,-2.0156 z m 14.83008,6.0469 v -34.8516 h -6.32813 v 34.8516 z m -3.16407,-48.5977 c -2.30859,0 -3.96093,1.7227 -3.96093,3.961 0,2.1562 1.58203,3.8789 3.82031,3.8789 2.51953,0 4.10156,-1.7227 4.03125,-3.8789 0,-2.2383 -1.51172,-3.961 -3.89063,-3.961 z m 13.68457,48.5977 h 6.32813 v -51.1172 h -6.32813 z m 42.04688,0 c -0.4336,-2.3789 -0.58594,-5.3321 -0.58594,-8.3555 v -13.0312 c 0,-6.9844 -2.58984,-14.25 -13.24219,-14.25 -4.39453,0 -8.5664,1.2187 -11.44922,3.0937 l 1.44141,4.1719 c 2.44922,-1.5821 5.83594,-2.5899 9.07031,-2.5899 7.125,0 7.92188,5.1797 7.92188,8.0625 v 0.7266 c -13.46485,-0.07 -20.95313,4.5352 -20.95313,12.9609 0,5.0391 3.59766,10.0078 10.65235,10.0078 4.96875,0 8.71875,-2.4492 10.66406,-5.1914 h 0.21094 l 0.5039,4.3946 z m -6.70313,-11.7305 c 0,0.6445 -0.14062,1.3594 -0.35156,2.0156 -1.01953,2.9414 -3.89062,5.8242 -8.42578,5.8242 -3.24609,0 -5.97656,-1.9453 -5.97656,-6.0468 0,-6.7617 7.83984,-7.9922 14.7539,-7.8516 z m 31.82813,11.7305 h 27 v -5.2617 h -20.74219 v -43.2657 h -6.25781 z m 40.10156,0 v -34.8516 h -6.32812 v 34.8516 z m -3.16406,-48.5977 c -2.3086,0 -3.96094,1.7227 -3.96094,3.961 0,2.1562 1.58203,3.8789 3.82031,3.8789 2.51953,0 4.10157,-1.7227 4.03125,-3.8789 0,-2.2383 -1.51172,-3.961 -3.89062,-3.961 z m 13.68164,48.5977 h 6.1875 v -21.0235 c 0,-1.0781 0.14062,-2.1562 0.50391,-3.0937 1.00781,-3.1758 3.89062,-6.3399 7.85156,-6.3399 4.8164,0 7.26562,4.0313 7.26562,9.5743 v 20.8828 h 6.19922 v -21.5274 c 0,-1.1484 0.21094,-2.3086 0.50391,-3.164 1.07812,-3.1055 3.8789,-5.7657 7.48828,-5.7657 5.10937,0 7.55859,4.0313 7.55859,10.7344 v 19.7227 h 6.1875 v -20.5196 c 0,-12.0937 -6.84375,-15.1171 -11.44922,-15.1171 -3.3164,0 -5.61328,0.8554 -7.69921,2.4492 -1.44141,1.0781 -2.8125,2.5898 -3.89063,4.5351 h -0.14062 c -1.51172,-4.1133 -5.1211,-6.9843 -9.86719,-6.9843 -5.76563,0 -9,3.0937 -10.94531,6.4101 h -0.21094 l -0.29297,-5.625 h -5.54297 c 0.21094,2.8828 0.29297,5.8359 0.29297,9.4336 z m 85.10449,0 c -0.43359,-2.3789 -0.58594,-5.3321 -0.58594,-8.3555 v -13.0312 c 0,-6.9844 -2.58984,-14.25 -13.24218,-14.25 -4.39453,0 -8.56641,1.2187 -11.44922,3.0937 l 1.4414,4.1719 c 2.44922,-1.5821 5.83594,-2.5899 9.07032,-2.5899 7.125,0 7.92187,5.1797 7.92187,8.0625 v 0.7266 c -13.46484,-0.07 -20.95312,4.5352 -20.95312,12.9609 0,5.0391 3.59765,10.0078 10.65234,10.0078 4.96875,0 8.71875,-2.4492 10.66406,-5.1914 h 0.21094 l 0.50391,4.3946 z m -6.70312,-11.7305 c 0,0.6445 -0.14063,1.3594 -0.35157,2.0156 -1.01953,2.9414 -3.89062,5.8242 -8.42578,5.8242 -3.24609,0 -5.97656,-1.9453 -5.97656,-6.0468 0,-6.7617 7.83984,-7.9922 14.75391,-7.8516 z m 0,0" style="fill:#231916;fill-opacity:1;fill-rule:nonzero;stroke:none" aria-label="COMBO&#10;&amp;&#10;69&#10;Rua Farme de Amoedo 50&#10;Favor levar sua identidade&#10;Producao: Alexandre Ostrovsky,&#10;Gustavo MM e Daniel Di Salvo&#10;Hostess: Priscila Lima" transform="matrix(1.3333333,0,0,1.3333333,1384.1739,2654.7544)" />
      <path id="path6" d="M 0,0 H 647.615" style="fill:none;stroke:#231916;stroke-width:3;stroke-linecap:butt;stroke-linejoin:miter;stroke-miterlimit:10;stroke-dasharray:none;stroke-opacity:1" transform="matrix(1.3333333,0,0,-1.3333333,1727.384,2654.7545)" />
      <path id="path7" d="M 0,0 H 905.022" style="fill:none;stroke:#231916;stroke-width:3;stroke-linecap:butt;stroke-linejoin:miter;stroke-miterlimit:10;stroke-dasharray:none;stroke-opacity:1" transform="matrix(1.3333333,0,0,-1.3333333,1384.1741,3077.0191)" />
      <path id="path8" d="M 0,0 H 905.022" style="fill:none;stroke:#231916;stroke-width:3;stroke-linecap:butt;stroke-linejoin:miter;stroke-miterlimit:10;stroke-dasharray:none;stroke-opacity:1" transform="matrix(1.3333333,0,0,-1.3333333,1384.1741,2877.2801)" />
      </g></svg>