<?xml version='1.0' encoding='utf-8'?>
<svg xmlns="http://www.w3.org/2000/svg" version="1.1" width="111.797" height="113.734" viewBox="1831.230 3976.810 111.797 113.734"><g id="object"><path id="path356" d="m 0,0 c 0.353,-10.48 0.586,-23.03 4.78,-35.05 4.304,-12.335 14.256,-16.333 26.042,-10.593 8.084,3.938 13.813,10.327 18.072,17.977 4.203,7.55 7.126,15.709 9.481,24.015 1.947,6.863 2.714,13.817 0.129,20.795 -0.313,0.844 0.076,2.492 0.741,3.043 1.5,1.243 3.094,0.156 4.063,-0.998 1.227,-1.463 2.454,-3.165 2.941,-4.964 1.547,-5.711 2.486,-11.463 0.276,-17.33 -3.035,-8.056 -5.442,-16.369 -8.848,-24.257 -3.452,-7.994 -8.869,-14.775 -15.601,-20.406 -5.917,-4.948 -12.632,-7.771 -20.446,-7.794 -9.758,-0.028 -19.467,6.798 -22.395,16.012 -5.404,17.012 -7.155,34.45 -5.828,52.221 0.059,0.778 0.041,1.634 0.366,2.304 0.653,1.347 1.133,3.066 3.183,2.868 1.757,-0.17 3.002,-1.261 3.146,-2.913 C 0.303,12.617 0.038,10.265 0.005,7.929 -0.021,5.968 0,4.006 0,0" style="fill:#4b475f;fill-opacity:1;fill-rule:nonzero;stroke:none" transform="matrix(1.3333333,0,0,-1.3333333,1846.5895,4010.4596)" />
      </g></svg>