<?xml version='1.0' encoding='utf-8'?>
<svg xmlns="http://www.w3.org/2000/svg" version="1.1" width="890.853" height="394.521" viewBox="1080.190 488.160 890.853 394.521"><g id="object"><path id="path6" d="m 0,0 c -18.336,-27.862 -21.715,-54.969 -29.737,-80.292 -3.918,-12.365 -8.12,-26.536 -22.16,-26.283 -15.765,0.285 -19.921,14.549 -20.71,28.887 -0.696,12.631 -5.177,23.71 -17.714,37.417 -1.897,-25.172 -4.608,-45.095 -4.518,-65.006 0.072,-16.117 -3.586,-27.14 -21.646,-26.681 -17.326,0.44 -21.631,11.828 -22.686,27.328 -1.189,17.481 6.931,32.436 10.322,48.612 8.003,38.192 8.788,77.174 13.79,115.681 1.164,8.959 0.822,18.193 12.293,19.972 11.954,1.855 17.082,-6.29 20.527,-15.813 8.579,-23.716 18.961,-46.824 21.982,-72.351 0.661,-5.585 1.947,-14.522 9.111,-15.427 8.147,-1.03 8.57,8.344 10.74,13.574 8.472,20.421 15.069,41.619 26.333,60.857 6.552,11.19 13.427,22.262 28.665,20.373 15.391,-1.908 13.596,-17.112 15.405,-26.104 8.731,-43.387 15.022,-87.26 22.518,-130.901 2.68,-15.6 5.854,-31.15 9.655,-46.512 3.337,-13.485 3.966,-25.079 -12.234,-30.397 -17.251,-5.663 -19.771,6.704 -23.269,18.524 C 19.438,-120.115 14.945,-95.176 13.865,-69.8 12.92,-47.608 8.336,-26.458 0,0" style="fill:#df647d;fill-opacity:1;fill-rule:nonzero;stroke:none" transform="matrix(1.3333333,0,0,-1.3333333,1271.9065,632.30227)" />
      <path id="path9" d="m 0,0 c 9.415,5.172 10.013,13.287 12.25,20.541 4.02,13.031 9.575,25.96 19.033,35.29 6.354,6.268 12.564,18.951 26.695,10.323 C 74.33,56.17 59.975,47.96 56.447,40.782 37.58,2.391 19.182,-35.763 15.553,-79.53 c -2.202,-26.547 -17.535,-48.934 -28.61,-72.435 -6.586,-13.976 -19.456,-20.72 -35.127,-20.278 -45.489,1.283 -89.115,8.465 -125.429,39.403 -8.289,7.062 -11.379,14.739 -7.418,26.561 15.633,-3.818 29.257,-13.582 42.477,-20.694 23.242,-12.505 48.861,-11.55 72.703,-18.422 14.636,-4.218 32.37,14.05 39.477,31.376 7.934,19.344 10.557,40.956 3.104,60.568 -12.119,31.886 -13.137,65.115 -16.847,98.123 -0.439,3.911 -1.117,8.429 0.337,11.791 3.307,7.641 6.362,16.769 15.901,18.412 10.559,1.819 12.612,-8.648 15.946,-14.868 4.857,-9.063 5.621,-19.526 4.584,-30.131 C -4.302,20.14 -5.861,9.894 0,0" style="fill:#df647d;fill-opacity:1;fill-rule:nonzero;stroke:none" transform="matrix(1.3333333,0,0,-1.3333333,1877.52,646.99587)" />
      <path id="path12" d="M 0,0 C -2.107,9.318 0.064,19.436 -14.192,18.104 -41.913,15.515 -62.917,1.731 -60.488,-15.297 -57.234,-38.101 -35.501,-37.033 -21.359,-36.993 3.062,-36.925 -7.322,-11.823 0,0 M 28.864,72.091 C 30.459,25.856 17.636,-18.925 14.857,-64.781 14.01,-78.747 6.46,-91.346 -8.913,-73.538 c -5.358,6.206 -12.366,5.851 -19.454,6.702 -38.64,4.638 -57.02,22.213 -56.344,53.409 0.684,31.545 25.173,53.811 61.49,55.784 4.74,0.257 9.512,0.088 14.264,-0.053 10.225,-0.303 14.146,4.961 13.782,14.73 -0.358,9.601 -4.819,14.57 -14.603,14.788 -12.938,0.288 -25.079,-2.816 -36.466,-8.664 -8.011,-4.115 -15.282,-4.931 -19.042,4.708 -3.453,8.853 -2.126,16.332 7.623,21.916 32.559,18.65 64.761,12.211 86.962,-18.218 z" style="fill:#df647d;fill-opacity:1;fill-rule:nonzero;stroke:none" transform="matrix(1.3333333,0,0,-1.3333333,1473.564,698.9836)" />
      <path id="path17" d="m 0,0 c 0.712,4.609 1.51,9.207 2.117,13.83 1.104,8.401 3.624,15.249 13.779,16.218 9.655,0.921 18.716,-1.166 20.725,-11.171 5.751,-28.64 16.247,-16.342 28.302,-4.555 8.48,8.292 17.357,15.742 31.253,7.815 9.425,-5.377 11.455,-10.063 4.262,-17.939 -9.474,-10.375 -18.712,-21.042 -28.934,-30.644 -22.55,-21.182 -28.973,-45.835 -17.485,-74.652 3.14,-7.875 2.249,-15.407 0.992,-23.313 -2.119,-13.334 -10.016,-19.506 -23.041,-18.499 -13.136,1.016 -16.239,10.338 -16.781,21.777 -1.57,33.172 2.394,66.627 -5.327,99.504 C 7.934,-13.422 8.252,-4.463 -0.423,0.513 -0.435,0.526 0,0 0,0" style="fill:#df647d;fill-opacity:1;fill-rule:nonzero;stroke:none" transform="matrix(1.3333333,0,0,-1.3333333,1512.6289,603.56427)" />
      <path id="path20" d="m 0,0 c -4.355,-36.268 5.773,-72.6 -2.37,-108.829 -1.201,-5.342 -1.717,-11.034 -3.982,-15.896 -3.945,-8.471 -10.416,-14.621 -20.696,-11.338 -10.358,3.309 -15.1,10.491 -12.749,21.921 11.758,57.152 10.438,114.578 3.699,172.178 -1.365,11.67 -2.304,23.829 4.046,34.81 5.076,8.777 13.028,11.099 22.389,8.998 C -0.755,99.845 0.015,92.703 0.009,85.249 -0.013,56.833 0,28.416 0,0" style="fill:#df647d;fill-opacity:1;fill-rule:nonzero;stroke:none" transform="matrix(1.3333333,0,0,-1.3333333,1790.9129,630.91653)" />
      <path id="path36" d="M 0,0 C -0.582,18.363 1.711,36.483 4.381,54.575 6.446,68.562 13.615,76.682 28.627,73.611 45.319,70.197 39.652,58.696 37.723,47.871 33.459,23.955 25.921,0.328 32.38,-24.624 35.274,-35.799 34.893,-49.532 20.658,-51.413 6.655,-53.263 -0.255,-42.815 -0.029,-28.577 0.122,-19.054 0,-9.526 0,0" style="fill:#df647d;fill-opacity:1;fill-rule:nonzero;stroke:none" transform="matrix(1.3333333,0,0,-1.3333333,1665.3336,696.72147)" />
      <path id="path94" d="M 0,0 C 9.336,-0.919 19.561,-2.84 17.297,-14.357 15.254,-24.746 15.249,-39.32 -1.422,-39.638 -15.478,-39.906 -17.896,-29.125 -18.494,-18.843 -19.206,-6.6 -12.232,-0.038 0,0" style="fill:#df647d;fill-opacity:1;fill-rule:nonzero;stroke:none" transform="matrix(1.3333333,0,0,-1.3333333,1701.7037,513.1652)" />
      </g></svg>