<?xml version='1.0' encoding='utf-8'?>
<svg xmlns="http://www.w3.org/2000/svg" version="1.1" width="1468.820" height="37.734" viewBox="204.676 4039.600 1468.820 37.734"><g id="object"><path id="path11" d="m 13.887205,5.921875e-4 h 1.78125 L 14.789548,-14.155658 h -2.332031 l -2.5195311,6.8437502 c -0.6328125,1.7929687 -1.1367187,3.3398437 -1.5,4.7695312 H 8.3793922 C 8.0278297,-4.0072203 7.5356422,-5.5658141 6.9497047,-7.3119078 L 4.5356422,-14.155658 H 2.2036109 L 1.2192359,5.921875e-4 h 1.7460938 l 0.375,-6.0703124875 c 0.1289062,-2.1210938 0.234375,-4.4882817 0.2695312,-6.2578127 h 0.046875 c 0.3984375,1.675781 0.9609375,3.5039064 1.640625,5.5078127 l 2.2851563,6.73828124 H 8.9653297 L 11.461423,-6.9486266 c 0.714844,-1.9570312 1.3125,-3.7148434 1.792969,-5.3789064 h 0.05859 c -0.02344,1.769531 0.105469,4.1367189 0.210937,6.1171877 z m 11.958984,0 C 25.729002,-0.69081406 25.682127,-1.5580016 25.682127,-2.4369078 v -3.796875 c 0,-2.0390625 -0.75,-4.1601562 -3.867188,-4.1601562 -1.277344,0 -2.496094,0.351562 -3.339844,0.9023437 l 0.421875,1.21875 c 0.714844,-0.4570313 1.699219,-0.7617188 2.648438,-0.7617188 2.074219,0 2.308594,1.5117188 2.308594,2.3554688 v 0.2109375 c -3.925782,-0.023437 -6.105469,1.3242187 -6.105469,3.7851562 0,1.4648438 1.042969,2.91796879 3.105469,2.91796879 1.453125,0 2.542968,-0.71484375 3.105468,-1.51171879 h 0.07031 L 24.170408,5.921875e-4 Z M 23.900877,-3.4212828 c 0,0.1875 -0.04687,0.3984375 -0.105469,0.5859375 -0.292969,0.8671875 -1.136719,1.6992187 -2.460938,1.6992187 -0.9375,0 -1.746093,-0.5625 -1.746093,-1.7578125 0,-1.9804687 2.296875,-2.3320312 4.3125,-2.296875 z m 4.766601,3.4218749875 h 1.828125 V -5.4134703 c 0,-0.3164063 0.03516,-0.609375 0.08203,-0.8671875 0.246094,-1.3828125 1.171875,-2.3671875 2.472657,-2.3671875 0.257812,0 0.445312,0.011719 0.632812,0.058594 v -1.7460937 c -0.164062,-0.03516 -0.316406,-0.05859 -0.527344,-0.05859 -1.230468,0 -2.34375,0.855469 -2.8125,2.2265627 h -0.08203 l -0.05859,-1.9921877 h -1.617187 c 0.05859,0.9375002 0.08203,1.9687502 0.08203,3.1640627 z M 42.249509,-1.7689391 c -0.527343,0.234375 -1.21875,0.5039063 -2.261718,0.5039063 -2.015625,0 -3.527344,-1.4414063 -3.527344,-3.796875 0,-2.1210938 1.253906,-3.84375 3.585937,-3.84375 1.007813,0 1.699219,0.234375 2.144532,0.4804687 l 0.421875,-1.4179687 c -0.503907,-0.2578122 -1.476563,-0.5273442 -2.566407,-0.5273442 -3.316406,0 -5.460937,2.2617192 -5.460937,5.3906254 0,3.1171875 1.992187,5.19140629 5.0625,5.19140629 1.359375,0 2.4375,-0.33984375 2.917969,-0.5859375 z m 2.481446,1.7695312875 h 1.851562 V -6.1283141 c 0,-0.3632812 0.01172,-0.6328125 0.117188,-0.890625 0.339843,-1.0078125 1.289062,-1.8398437 2.484375,-1.8398437 1.734375,0 2.34375,1.3828125 2.34375,3.0234375 V 5.921875e-4 h 1.851562 V -6.0462828 c 0,-3.5039063 -2.179687,-4.3476562 -3.550781,-4.3476562 -0.691406,0 -1.335938,0.210937 -1.886719,0.5273437 -0.5625,0.3164062 -1.03125,0.7734375 -1.324219,1.3007812 h -0.03516 v -6.3398439 h -1.851562 z m 24.228515,0 V -1.5345641 h -6.128906 v -0.035156 l 1.089844,-1.0078125 c 2.882812,-2.7773438 4.710937,-4.8164063 4.710937,-7.3359375 0,-1.9453129 -1.242187,-3.9726569 -4.183593,-3.9726569 -1.570313,0 -2.917969,0.597657 -3.867188,1.394532 l 0.585938,1.300781 c 0.632812,-0.527344 1.664062,-1.160156 2.90625,-1.160156 2.039062,0 2.707031,1.289062 2.707031,2.6718749 -0.02344,2.0625 -1.59375,3.8203125 -5.085938,7.1367187 l -1.441406,1.40625 V 5.921875e-4 Z M 71.270994,-13.651752 v 1.535157 h 6.679687 v 0.04687 L 72.032713,5.921875e-4 h 1.910156 L 79.884275,-12.433002 v -1.21875 z m 11.24414,16.1132817 c 0.585938,-0.9960938 1.511719,-3.31640626 1.992188,-5.109375 l -2.0625,0.2109375 c -0.234375,1.53515624 -0.796875,3.7851562 -1.253906,5.015625 z M 94.605955,5.921875e-4 h 1.78125 V -13.651752 h -1.570313 l -2.988281,1.59375 0.363281,1.40625 2.367188,-1.277343 h 0.04687 z M 105.77685,0.23496719 c 2.60157,0 4.64063,-1.59374999 4.64063,-3.97265629 0,-1.6640625 -1.05469,-2.859375 -2.75391,-3.5273437 v -0.058594 c 1.6875,-0.8085937 2.25,-2.0390625 2.25,-3.1992182 0,-1.699219 -1.32422,-3.363282 -3.97265,-3.363282 -2.39063,0 -4.21875,1.476563 -4.21875,3.644532 0,1.1718745 0.65625,2.3437495 2.16796,3.0585932 l 0.0117,0.070312 c -1.67578,0.703125 -2.70703,1.921875 -2.70703,3.6445313 0,2.0039062 1.72266,3.70312499 4.58203,3.70312499 z m 0.0469,-1.34765629 c -1.7461,0 -2.80078,-1.21875 -2.73047,-2.6015625 0,-1.3007812 0.85547,-2.3554687 2.44922,-2.8125 1.85156,0.515625 3.01172,1.3242188 3.01172,2.9765625 0,1.40625 -1.07813,2.4375 -2.73047,2.4375 z m 0.0117,-11.4492189 c 1.66406,0 2.30859,1.136719 2.30859,2.226563 0,1.2421872 -0.90234,2.0859372 -2.07422,2.4843747 -1.57031,-0.421875 -2.60156,-1.1601563 -2.60156,-2.5195317 0,-1.183593 0.84375,-2.191406 2.36719,-2.191406 z m 10.71386,12.79687519 c 2.60157,0 4.64063,-1.59374999 4.64063,-3.97265629 0,-1.6640625 -1.05469,-2.859375 -2.75391,-3.5273437 v -0.058594 c 1.6875,-0.8085937 2.25,-2.0390625 2.25,-3.1992182 0,-1.699219 -1.32422,-3.363282 -3.97265,-3.363282 -2.39063,0 -4.21875,1.476563 -4.21875,3.644532 0,1.1718745 0.65625,2.3437495 2.16797,3.0585932 l 0.0117,0.070312 c -1.67578,0.703125 -2.70703,1.921875 -2.70703,3.6445313 0,2.0039062 1.72266,3.70312499 4.58203,3.70312499 z m 0.0469,-1.34765629 c -1.74609,0 -2.80078,-1.21875 -2.73047,-2.6015625 0,-1.3007812 0.85547,-2.3554687 2.44922,-2.8125 1.85156,0.515625 3.01172,1.3242188 3.01172,2.9765625 0,1.40625 -1.07813,2.4375 -2.73047,2.4375 z m 0.0117,-11.4492189 c 1.66406,0 2.30859,1.136719 2.30859,2.226563 0,1.2421872 -0.90234,2.0859372 -2.07422,2.4843747 -1.57031,-0.421875 -2.60156,-1.1601563 -2.60156,-2.5195317 0,-1.183593 0.84375,-2.191406 2.36719,-2.191406 z m 14.09179,-1.300781 c -0.32812,0 -0.79687,0.02344 -1.33593,0.105469 -1.72266,0.210937 -3.23438,0.902343 -4.3711,2.015625 -1.34765,1.347656 -2.30859,3.4687497 -2.30859,6.1523434 0,3.5507813 1.91016,5.82421879 4.82812,5.82421879 2.83594,0 4.53516,-2.30859379 4.53516,-4.81640629 0,-2.6601562 -1.69922,-4.40625 -4.11328,-4.40625 -1.51172,0 -2.64844,0.7148438 -3.29297,1.5703125 h -0.0703 c 0.3164,-2.2382812 1.85156,-4.3593754 4.74609,-4.8515624 0.52735,-0.08203 1.00781,-0.09375 1.38281,-0.08203 z m -3.1875,12.6679687 c -1.93359,0 -2.96484,-1.6640625 -3,-3.9023438 0,-0.3398437 0.082,-0.609375 0.21094,-0.8203125 0.50391,-0.9960937 1.53516,-1.6875 2.64844,-1.6875 1.69922,0 2.8125,1.1835938 2.8125,3.1289063 0,1.9570312 -1.07813,3.28125 -2.67188,3.28125 z m 5.86231,-4.7695313 v 1.265625 h 19.73437 v -1.265625 z m 29.18555,1.5117188 1.51171,4.4531249875 h 1.94532 L 161.18896,-14.155658 h -2.20312 L 154.18115,5.921875e-4 h 1.88672 L 157.54443,-4.4525328 Z m -4.64063,-1.4296875 1.38281,-4.0898438 c 0.26953,-0.8671879 0.50391,-1.7226559 0.71485,-2.5664059 h 0.0469 c 0.19922,0.820312 0.41016,1.664062 0.72656,2.5898434 l 1.39454,4.0664063 z m 18.38086,-4.2773437 h -1.85156 v 6.2343749 c 0,0.3398438 -0.0586,0.6679688 -0.16406,0.9492188 -0.33985,0.8085937 -1.20704,1.6757812 -2.4375,1.6757812 -1.6875,0 -2.27344,-1.3007812 -2.27344,-3.234375 v -5.6249999 h -1.85156 v 5.9414062 c 0,3.56249999 1.92187,4.45312499 3.51562,4.45312499 1.80469,0 2.87109,-1.078125 3.35156,-1.89843749 h 0.0469 l 0.10547,1.6640624875 h 1.64062 c -0.0703,-0.7968749975 -0.082,-1.7226562875 -0.082,-2.7773437875 z m 10.19824,0 -0.082,1.5234374 h -0.0469 c -0.4336,-0.8320312 -1.40625,-1.7578124 -3.16407,-1.7578124 -2.33203,0 -4.58203,1.9570312 -4.58203,5.4023437 0,2.8125 1.80469,4.94531249 4.32422,4.94531249 1.58203,0 2.67188,-0.75 3.23438,-1.69921879 h 0.0469 v 1.13671879 c 0,2.56640621 -1.38281,3.55078121 -3.28125,3.55078121 -1.2539,0 -2.30859,-0.375 -2.97656,-0.796875 l -0.46875,1.40625 c 0.82031,0.5390625 2.16797,0.84375 3.38672,0.84375 1.27734,0 2.70703,-0.3046875 3.6914,-1.21875 0.98438,-0.890625 1.45313,-2.32031246 1.45313,-4.640625 v -5.90625 c 0,-1.2421875 0.0352,-2.0625 0.082,-2.7890624 z m -0.29297,5.8359374 c 0,0.3164063 -0.0469,0.6679688 -0.15234,0.984375 -0.39844,1.171875 -1.41797,1.8867188 -2.55469,1.8867188 -1.99218,0 -3,-1.6523438 -3,-3.6445313 0,-2.3554687 1.25391,-3.84375 3.02344,-3.84375 1.33594,0 2.23828,0.8789063 2.57813,1.9453125 0.082,0.2578125 0.10546,0.5273438 0.10546,0.84375 z m 13.40332,-5.8359374 h -1.85156 v 6.2343749 c 0,0.3398438 -0.0586,0.6679688 -0.16406,0.9492188 -0.33984,0.8085937 -1.20703,1.6757812 -2.4375,1.6757812 -1.6875,0 -2.27344,-1.3007812 -2.27344,-3.234375 v -5.6249999 h -1.85156 v 5.9414062 c 0,3.56249999 1.92187,4.45312499 3.51562,4.45312499 1.80469,0 2.8711,-1.078125 3.35157,-1.89843749 h 0.0469 l 0.10547,1.6640624875 h 1.64063 C 199.6206,-0.79628281 199.60888,-1.7220641 199.60888,-2.7767516 Z m 2.34961,9.67968744 c 0.71485,0.421875 1.7461,0.69140625 2.85938,0.69140625 2.41406,0 3.79687,-1.26562499 3.79687,-3.04687499 0,-1.5117188 -0.90234,-2.390625 -2.67187,-3.0703125 -1.32422,-0.5039063 -1.92188,-0.8789063 -1.92188,-1.7109375 0,-0.7617188 0.59766,-1.3945313 1.69922,-1.3945313 0.9375,0 1.67578,0.3398438 2.07422,0.5859375 l 0.45703,-1.3359375 c -0.5625,-0.3398434 -1.46484,-0.6328124 -2.49609,-0.6328124 -2.17969,0 -3.50391,1.3476562 -3.50391,2.9765624 0,1.21875 0.85547,2.2265625 2.6836,2.8828125 1.37109,0.5039063 1.89843,0.984375 1.89843,1.8632813 0,0.84375 -0.63281,1.5117187 -1.98047,1.5117187 -0.92578,0 -1.88671,-0.375 -2.4375,-0.7265625 z m 9.45118,-12.11718744 v 2.4375 h -1.58204 v 1.4062499 h 1.58204 v 5.5429688 c 0,1.1953125 0.1875,2.0976562 0.71484,2.64843749 0.43359,0.50390625 1.125,0.7734375 1.99219,0.7734375 0.71484,0 1.27734,-0.10546875 1.64062,-0.2578125 l -0.0937,-1.38281249 c -0.22265,0.070312 -0.58594,0.1289062 -1.0664,0.1289062 -1.03125,0 -1.38282,-0.7148437 -1.38282,-1.9804687 v -5.4726563 h 2.64844 v -1.4062499 h -2.64844 v -2.917969 z M 225.81494,5.921875e-4 h 1.78125 V -13.651752 h -1.57031 l -2.98828,1.59375 0.36328,1.40625 2.36718,-1.277343 h 0.0469 z M 232.82568,-13.651752 v 1.535157 h 6.67969 v 0.04687 L 233.5874,5.921875e-4 h 1.91016 L 241.43896,-12.433002 v -1.21875 z m 11.24121,16.1132817 c 0.58594,-0.9960938 1.51172,-3.31640626 1.99219,-5.109375 l -2.0625,0.2109375 c -0.23438,1.53515624 -0.79688,3.7851562 -1.25391,5.015625 z M 256.15771,5.921875e-4 h 1.78125 V -13.651752 h -1.57031 l -2.98828,1.59375 0.36328,1.40625 2.36719,-1.277343 h 0.0469 z M 263.9917,0.21152969 c 0.44531,0.0234375 1.03125,0 1.69922,-0.10546875 1.47656,-0.1640625 2.91796,-0.796875 3.97265,-1.82812504 1.34766,-1.3007812 2.35547,-3.3984375 2.35547,-6.4101562 0,-3.4804687 -1.72266,-5.7539067 -4.52344,-5.7539067 -2.78906,0 -4.66406,2.273438 -4.66406,4.8515629 0,2.3320313 1.58203,4.1835938 4.04297,4.1835938 1.35937,0 2.44922,-0.5507813 3.21094,-1.4648438 h 0.0586 c -0.24609,1.6171875 -0.90234,2.8125 -1.80469,3.6328125 -0.77343,0.7265625 -1.78125,1.171875 -2.85937,1.3242188 -0.6211,0.058594 -1.08985,0.09375 -1.48828,0.058594 z m 3.36328,-12.67968769 c 1.93359,0 2.78906,1.78125 2.78906,4.1132814 0,0.2929688 -0.0586,0.5039063 -0.16406,0.6679688 -0.48047,0.8203125 -1.45313,1.4296875 -2.69531,1.4296875 -1.59375,0 -2.625,-1.1953125 -2.625,-2.8945313 0,-1.9335934 1.11328,-3.3164064 2.69531,-3.3164064 z M 278.104,0.23496719 c 2.60156,0 4.64063,-1.59374999 4.64063,-3.97265629 0,-1.6640625 -1.05469,-2.859375 -2.75391,-3.5273437 v -0.058594 c 1.6875,-0.8085937 2.25,-2.0390625 2.25,-3.1992182 0,-1.699219 -1.32422,-3.363282 -3.97266,-3.363282 -2.39062,0 -4.21875,1.476563 -4.21875,3.644532 0,1.1718745 0.65625,2.3437495 2.16797,3.0585932 l 0.0117,0.070312 c -1.67578,0.703125 -2.70703,1.921875 -2.70703,3.6445313 0,2.0039062 1.72266,3.70312499 4.58203,3.70312499 z m 0.0469,-1.34765629 c -1.7461,0 -2.80078,-1.21875 -2.73047,-2.6015625 0,-1.3007812 0.85547,-2.3554687 2.44922,-2.8125 1.85156,0.515625 3.01172,1.3242188 3.01172,2.9765625 0,1.40625 -1.07813,2.4375 -2.73047,2.4375 z m 0.0117,-11.4492189 c 1.66406,0 2.30859,1.136719 2.30859,2.226563 0,1.2421872 -0.90234,2.0859372 -2.07422,2.4843747 -1.57031,-0.421875 -2.60156,-1.1601563 -2.60156,-2.5195317 0,-1.183593 0.84375,-2.191406 2.36719,-2.191406 z m 7.37402,12.77343769 c 0.44531,0.0234375 1.03125,0 1.69922,-0.10546875 1.47656,-0.1640625 2.91797,-0.796875 3.97265,-1.82812504 1.34766,-1.3007812 2.35547,-3.3984375 2.35547,-6.4101562 0,-3.4804687 -1.72265,-5.7539067 -4.52344,-5.7539067 -2.78906,0 -4.66406,2.273438 -4.66406,4.8515629 0,2.3320313 1.58203,4.1835938 4.04297,4.1835938 1.35938,0 2.44922,-0.5507813 3.21094,-1.4648438 h 0.0586 c -0.24609,1.6171875 -0.90234,2.8125 -1.80469,3.6328125 -0.77343,0.7265625 -1.78125,1.171875 -2.85937,1.3242188 -0.62109,0.058594 -1.08984,0.09375 -1.48828,0.058594 z M 288.8999,-12.468158 c 1.93359,0 2.78906,1.78125 2.78906,4.1132814 0,0.2929688 -0.0586,0.5039063 -0.16406,0.6679688 -0.48047,0.8203125 -1.45313,1.4296875 -2.69531,1.4296875 -1.59375,0 -2.625,-1.1953125 -2.625,-2.8945313 0,-1.9335934 1.11328,-3.3164064 2.69531,-3.3164064 z M 814.15478,5.921875e-4 h 1.78125 L 815.05713,-14.155658 h -2.33203 l -2.51954,6.8437502 c -0.63281,1.7929687 -1.13671,3.3398437 -1.5,4.7695312 h -0.0586 c -0.35156,-1.4648437 -0.84375,-3.0234375 -1.42969,-4.7695312 l -2.41406,-6.8437502 h -2.33203 L 801.48681,5.921875e-4 h 1.7461 l 0.375,-6.0703124875 c 0.1289,-2.1210938 0.23437,-4.4882817 0.26953,-6.2578127 h 0.0469 c 0.39844,1.675781 0.96094,3.5039064 1.64063,5.5078127 l 2.28516,6.73828124 h 1.38281 L 811.729,-6.9486266 c 0.71485,-1.9570312 1.3125,-3.7148434 1.79297,-5.3789064 h 0.0586 c -0.0234,1.769531 0.10547,4.1367189 0.21094,6.1171877 z m 11.95899,0 C 825.99658,-0.69081406 825.9497,-1.5580016 825.9497,-2.4369078 v -3.796875 c 0,-2.0390625 -0.75,-4.1601562 -3.86718,-4.1601562 -1.27735,0 -2.4961,0.351562 -3.33985,0.9023437 l 0.42188,1.21875 c 0.71484,-0.4570313 1.69922,-0.7617188 2.64844,-0.7617188 2.07421,0 2.30859,1.5117188 2.30859,2.3554688 v 0.2109375 c -3.92578,-0.023437 -6.10547,1.3242187 -6.10547,3.7851562 0,1.4648438 1.04297,2.91796879 3.10547,2.91796879 1.45312,0 2.54297,-0.71484375 3.10547,-1.51171879 h 0.0703 l 0.14063,1.2773437875 z M 824.16845,-3.4212828 c 0,0.1875 -0.0469,0.3984375 -0.10546,0.5859375 -0.29297,0.8671875 -1.13672,1.6992187 -2.46094,1.6992187 -0.9375,0 -1.7461,-0.5625 -1.7461,-1.7578125 0,-1.9804687 2.29688,-2.3320312 4.3125,-2.296875 z m 4.76661,3.4218749875 h 1.82812 V -5.4134703 c 0,-0.3164063 0.0352,-0.609375 0.082,-0.8671875 0.2461,-1.3828125 1.17188,-2.3671875 2.47266,-2.3671875 0.25781,0 0.44531,0.011719 0.63281,0.058594 v -1.7460937 c -0.16406,-0.03516 -0.31641,-0.05859 -0.52734,-0.05859 -1.23047,0 -2.34375,0.855469 -2.8125,2.2265627 h -0.082 l -0.0586,-1.9921877 h -1.61719 c 0.0586,0.9375002 0.082,1.9687502 0.082,3.1640627 z M 842.51709,-1.7689391 c -0.52735,0.234375 -1.21875,0.5039063 -2.26172,0.5039063 -2.01563,0 -3.52735,-1.4414063 -3.52735,-3.796875 0,-2.1210938 1.25391,-3.84375 3.58594,-3.84375 1.00781,0 1.69922,0.234375 2.14453,0.4804687 l 0.42188,-1.4179687 c -0.50391,-0.2578122 -1.47656,-0.5273442 -2.56641,-0.5273442 -3.3164,0 -5.46094,2.2617192 -5.46094,5.3906254 0,3.1171875 1.99219,5.19140629 5.0625,5.19140629 1.35938,0 2.4375,-0.33984375 2.91797,-0.5859375 z m 2.48437,1.7695312875 h 1.85156 V -6.1283141 c 0,-0.3632812 0.0117,-0.6328125 0.11719,-0.890625 0.33985,-1.0078125 1.28906,-1.8398437 2.48438,-1.8398437 1.73437,0 2.34375,1.3828125 2.34375,3.0234375 V 5.921875e-4 h 1.85156 V -6.0462828 c 0,-3.5039063 -2.17969,-4.3476562 -3.55078,-4.3476562 -0.69141,0 -1.33594,0.210937 -1.88672,0.5273437 -0.5625,0.3164062 -1.03125,0.7734375 -1.32422,1.3007812 h -0.0352 v -6.3398439 h -1.85156 z m 24.22559,0 V -1.5345641 h -6.12891 v -0.035156 l 1.08985,-1.0078125 c 2.88281,-2.7773438 4.71093,-4.8164063 4.71093,-7.3359375 0,-1.9453129 -1.24218,-3.9726569 -4.18359,-3.9726569 -1.57031,0 -2.91797,0.597657 -3.86719,1.394532 l 0.58594,1.300781 c 0.63281,-0.527344 1.66406,-1.160156 2.90625,-1.160156 2.03906,0 2.70703,1.289062 2.70703,2.6718749 -0.0234,2.0625 -1.59375,3.8203125 -5.08594,7.1367187 l -1.4414,1.40625 V 5.921875e-4 Z M 871.5415,-13.651752 v 1.535157 h 6.67969 v 0.04687 L 872.30322,5.921875e-4 h 1.91016 L 880.15478,-12.433002 v -1.21875 z m 11.24121,16.1132817 c 0.58594,-0.9960938 1.51172,-3.31640626 1.99219,-5.109375 l -2.0625,0.2109375 c -0.23438,1.53515624 -0.79688,3.7851562 -1.25391,5.015625 z M 894.87353,5.921875e-4 h 1.78125 V -13.651752 h -1.57031 l -2.98828,1.59375 0.36328,1.40625 2.36719,-1.277343 h 0.0469 z m 11.1709,0.2343750025 c 2.60156,0 4.64063,-1.59374999 4.64063,-3.97265629 0,-1.6640625 -1.05469,-2.859375 -2.75391,-3.5273437 v -0.058594 c 1.6875,-0.8085937 2.25,-2.0390625 2.25,-3.1992182 0,-1.699219 -1.32422,-3.363282 -3.97266,-3.363282 -2.39062,0 -4.21875,1.476563 -4.21875,3.644532 0,1.1718745 0.65625,2.3437495 2.16797,3.0585932 l 0.0117,0.070312 c -1.67578,0.703125 -2.70703,1.921875 -2.70703,3.6445313 0,2.0039062 1.72266,3.70312499 4.58203,3.70312499 z m 0.0469,-1.34765629 c -1.7461,0 -2.80079,-1.21875 -2.73047,-2.6015625 0,-1.3007812 0.85547,-2.3554687 2.44922,-2.8125 1.85156,0.515625 3.01171,1.3242188 3.01171,2.9765625 0,1.40625 -1.07812,2.4375 -2.73046,2.4375 z m 0.0117,-11.4492189 c 1.66407,0 2.3086,1.136719 2.3086,2.226563 0,1.2421872 -0.90235,2.0859372 -2.07422,2.4843747 -1.57031,-0.421875 -2.60156,-1.1601563 -2.60156,-2.5195317 0,-1.183593 0.84375,-2.191406 2.36718,-2.191406 z m 10.7168,12.79687519 c 2.60156,0 4.64063,-1.59374999 4.64063,-3.97265629 0,-1.6640625 -1.05469,-2.859375 -2.75391,-3.5273437 v -0.058594 c 1.6875,-0.8085937 2.25,-2.0390625 2.25,-3.1992182 0,-1.699219 -1.32422,-3.363282 -3.97266,-3.363282 -2.39062,0 -4.21875,1.476563 -4.21875,3.644532 0,1.1718745 0.65625,2.3437495 2.16797,3.0585932 l 0.0117,0.070312 c -1.67578,0.703125 -2.70703,1.921875 -2.70703,3.6445313 0,2.0039062 1.72266,3.70312499 4.58203,3.70312499 z m 0.0469,-1.34765629 c -1.7461,0 -2.80078,-1.21875 -2.73047,-2.6015625 0,-1.3007812 0.85547,-2.3554687 2.44922,-2.8125 1.85156,0.515625 3.01172,1.3242188 3.01172,2.9765625 0,1.40625 -1.07813,2.4375 -2.73047,2.4375 z m 0.0117,-11.4492189 c 1.66406,0 2.30859,1.136719 2.30859,2.226563 0,1.2421872 -0.90234,2.0859372 -2.07422,2.4843747 -1.57031,-0.421875 -2.60156,-1.1601563 -2.60156,-2.5195317 0,-1.183593 0.84375,-2.191406 2.36719,-2.191406 z m 14.08886,-1.300781 c -0.32812,0 -0.79687,0.02344 -1.33593,0.105469 -1.72266,0.210937 -3.23438,0.902343 -4.3711,2.015625 -1.34765,1.347656 -2.30859,3.4687497 -2.30859,6.1523434 0,3.5507813 1.91015,5.82421879 4.82812,5.82421879 2.83594,0 4.53516,-2.30859379 4.53516,-4.81640629 0,-2.6601562 -1.69922,-4.40625 -4.11328,-4.40625 -1.51172,0 -2.64844,0.7148438 -3.29297,1.5703125 h -0.0703 c 0.3164,-2.2382812 1.85156,-4.3593754 4.74609,-4.8515624 0.52734,-0.08203 1.00781,-0.09375 1.38281,-0.08203 z m -3.1875,12.6679687 c -1.93359,0 -2.96484,-1.6640625 -3,-3.9023438 0,-0.3398437 0.082,-0.609375 0.21094,-0.8203125 0.50391,-0.9960937 1.53516,-1.6875 2.64844,-1.6875 1.69922,0 2.8125,1.1835938 2.8125,3.1289063 0,1.9570312 -1.07813,3.28125 -2.67188,3.28125 z m 5.86231,-4.7695313 v 1.265625 h 19.73437 v -1.265625 z m 29.18847,1.5117188 1.51172,4.4531249875 h 1.94532 L 961.45947,-14.155658 h -2.20312 L 954.45166,5.921875e-4 h 1.88672 L 957.81494,-4.4525328 Z m -4.64062,-1.4296875 1.38281,-4.0898438 c 0.26953,-0.8671879 0.50391,-1.7226559 0.71485,-2.5664059 h 0.0469 c 0.19922,0.820312 0.41016,1.664062 0.72656,2.5898434 l 1.39453,4.0664063 z m 18.38086,-4.2773437 h -1.85156 v 6.2343749 c 0,0.3398438 -0.0586,0.6679688 -0.16407,0.9492188 -0.33984,0.8085937 -1.20703,1.6757812 -2.4375,1.6757812 -1.6875,0 -2.27343,-1.3007812 -2.27343,-3.234375 v -5.6249999 h -1.85157 v 5.9414062 c 0,3.56249999 1.92188,4.45312499 3.51563,4.45312499 1.80469,0 2.87109,-1.078125 3.35156,-1.89843749 h 0.0469 l 0.10546,1.6640624875 h 1.64063 C 976.58252,-0.79628281 976.5708,-1.7220641 976.5708,-2.7767516 Z m 10.19824,0 -0.082,1.5234374 h -0.0469 c -0.43359,-0.8320312 -1.40625,-1.7578124 -3.16406,-1.7578124 -2.33203,0 -4.58203,1.9570312 -4.58203,5.4023437 0,2.8125 1.80469,4.94531249 4.32422,4.94531249 1.58203,0 2.67187,-0.75 3.23437,-1.69921879 h 0.0469 v 1.13671879 c 0,2.56640621 -1.38281,3.55078121 -3.28125,3.55078121 -1.25391,0 -2.30859,-0.375 -2.97656,-0.796875 l -0.46875,1.40625 c 0.82031,0.5390625 2.16797,0.84375 3.38672,0.84375 1.27734,0 2.70703,-0.3046875 3.6914,-1.21875 0.98438,-0.890625 1.45313,-2.32031246 1.45313,-4.640625 v -5.90625 c 0,-1.2421875 0.0351,-2.0625 0.082,-2.7890624 z m -0.29297,5.8359374 c 0,0.3164063 -0.0469,0.6679688 -0.15234,0.984375 -0.39844,1.171875 -1.41797,1.8867188 -2.55469,1.8867188 -1.99219,0 -3,-1.6523438 -3,-3.6445313 0,-2.3554687 1.25391,-3.84375 3.02344,-3.84375 1.33594,0 2.23828,0.8789063 2.57812,1.9453125 0.082,0.2578125 0.10547,0.5273438 0.10547,0.84375 z m 13.40332,-5.8359374 h -1.85156 v 6.2343749 c 0,0.3398438 -0.0586,0.6679688 -0.16406,0.9492188 -0.33985,0.8085937 -1.20703,1.6757812 -2.4375,1.6757812 -1.6875,0 -2.27344,-1.3007812 -2.27344,-3.234375 v -5.6249999 h -1.85156 v 5.9414062 c 0,3.56249999 1.92187,4.45312499 3.51562,4.45312499 1.80469,0 2.8711,-1.078125 3.35156,-1.89843749 h 0.0469 l 0.10547,1.6640624875 h 1.64062 c -0.0703,-0.7968749975 -0.082,-1.7226562875 -0.082,-2.7773437875 z m 2.3496,9.67968744 c 0.7148,0.421875 1.7461,0.69140625 2.8594,0.69140625 2.414,0 3.7969,-1.26562499 3.7969,-3.04687499 0,-1.5117188 -0.9024,-2.390625 -2.6719,-3.0703125 -1.3242,-0.5039063 -1.9219,-0.8789063 -1.9219,-1.7109375 0,-0.7617188 0.5977,-1.3945313 1.6992,-1.3945313 0.9375,0 1.6758,0.3398438 2.0742,0.5859375 l 0.4571,-1.3359375 c -0.5625,-0.3398434 -1.4649,-0.6328124 -2.4961,-0.6328124 -2.1797,0 -3.5039,1.3476562 -3.5039,2.9765624 0,1.21875 0.8554,2.2265625 2.6836,2.8828125 1.3711,0.5039063 1.8984,0.984375 1.8984,1.8632813 0,0.84375 -0.6328,1.5117187 -1.9805,1.5117187 -0.9257,0 -1.8867,-0.375 -2.4375,-0.7265625 z m 9.4512,-12.11718744 v 2.4375 h -1.5821 v 1.4062499 h 1.5821 v 5.5429688 c 0,1.1953125 0.1875,2.0976562 0.7148,2.64843749 0.4336,0.50390625 1.125,0.7734375 1.9922,0.7734375 0.7148,0 1.2773,-0.10546875 1.6406,-0.2578125 l -0.094,-1.38281249 c -0.2227,0.070312 -0.586,0.1289062 -1.0664,0.1289062 -1.0313,0 -1.3828,-0.7148437 -1.3828,-1.9804687 v -5.4726563 h 2.6484 v -1.4062499 h -2.6484 v -2.917969 z m 14.4052,12.5976561875 h 1.7813 V -13.651752 h -1.5703 l -2.9883,1.59375 0.3633,1.40625 2.3672,-1.277343 h 0.047 z M 1033.0962,-13.651752 v 1.535157 h 6.6797 v 0.04687 l -5.918,12.0703121875 h 1.9102 L 1041.7095,-12.433002 v -1.21875 z m 11.2412,16.1132817 c 0.5859,-0.9960938 1.5117,-3.31640626 1.9922,-5.109375 l -2.0625,0.2109375 c -0.2344,1.53515624 -0.7969,3.7851562 -1.2539,5.015625 z m 12.0908,-2.4609375125 h 1.7813 V -13.651752 h -1.5703 l -2.9883,1.59375 0.3633,1.40625 2.3671,-1.277343 h 0.047 z m 7.8311,0.2109375025 c 0.4453,0.0234375 1.0312,0 1.6992,-0.10546875 1.4766,-0.1640625 2.918,-0.796875 3.9726,-1.82812504 1.3477,-1.3007812 2.3555,-3.3984375 2.3555,-6.4101562 0,-3.4804687 -1.7226,-5.7539067 -4.5234,-5.7539067 -2.7891,0 -4.6641,2.273438 -4.6641,4.8515629 0,2.3320313 1.582,4.1835938 4.043,4.1835938 1.3594,0 2.4492,-0.5507813 3.2109,-1.4648438 h 0.059 c -0.2461,1.6171875 -0.9023,2.8125 -1.8047,3.6328125 -0.7734,0.7265625 -1.7812,1.171875 -2.8593,1.3242188 -0.6211,0.058594 -1.0899,0.09375 -1.4883,0.058594 z m 3.3633,-12.67968769 c 1.9335,0 2.789,1.78125 2.789,4.1132814 0,0.2929688 -0.059,0.5039063 -0.164,0.6679688 -0.4805,0.8203125 -1.4532,1.4296875 -2.6954,1.4296875 -1.5937,0 -2.625,-1.1953125 -2.625,-2.8945313 0,-1.9335934 1.1133,-3.3164064 2.6954,-3.3164064 z m 10.7519,12.70312519 c 2.6016,0 4.6406,-1.59374999 4.6406,-3.97265629 0,-1.6640625 -1.0547,-2.859375 -2.7539,-3.5273437 v -0.058594 c 1.6875,-0.8085937 2.25,-2.0390625 2.25,-3.1992182 0,-1.699219 -1.3242,-3.363282 -3.9726,-3.363282 -2.3907,0 -4.2188,1.476563 -4.2188,3.644532 0,1.1718745 0.6563,2.3437495 2.168,3.0585932 l 0.012,0.070312 c -1.6758,0.703125 -2.707,1.921875 -2.707,3.6445313 0,2.0039062 1.7226,3.70312499 4.582,3.70312499 z m 0.047,-1.34765629 c -1.7461,0 -2.8008,-1.21875 -2.7305,-2.6015625 0,-1.3007812 0.8555,-2.3554687 2.4492,-2.8125 1.8516,0.515625 3.0118,1.3242188 3.0118,2.9765625 0,1.40625 -1.0782,2.4375 -2.7305,2.4375 z m 0.012,-11.4492189 c 1.6641,0 2.3086,1.136719 2.3086,2.226563 0,1.2421872 -0.9023,2.0859372 -2.0742,2.4843747 -1.5703,-0.421875 -2.6016,-1.1601563 -2.6016,-2.5195317 0,-1.183593 0.8438,-2.191406 2.3672,-2.191406 z m 7.374,12.77343769 c 0.4453,0.0234375 1.0313,0 1.6992,-0.10546875 1.4766,-0.1640625 2.918,-0.796875 3.9727,-1.82812504 1.3477,-1.3007812 2.3555,-3.3984375 2.3555,-6.4101562 0,-3.4804687 -1.7227,-5.7539067 -4.5235,-5.7539067 -2.789,0 -4.664,2.273438 -4.664,4.8515629 0,2.3320313 1.582,4.1835938 4.0429,4.1835938 1.3594,0 2.4493,-0.5507813 3.211,-1.4648438 h 0.059 c -0.2461,1.6171875 -0.9024,2.8125 -1.8047,3.6328125 -0.7735,0.7265625 -1.7813,1.171875 -2.8594,1.3242188 -0.6211,0.058594 -1.0898,0.09375 -1.4883,0.058594 z m 3.3633,-12.67968769 c 1.9336,0 2.7891,1.78125 2.7891,4.1132814 0,0.2929688 -0.059,0.5039063 -0.1641,0.6679688 -0.4805,0.8203125 -1.4531,1.4296875 -2.6953,1.4296875 -1.5938,0 -2.625,-1.1953125 -2.625,-2.8945313 0,-1.9335934 1.1133,-3.3164064 2.6953,-3.3164064 z m 0,0" style="fill:#dcdddd;fill-opacity:1;fill-rule:nonzero;stroke:none" aria-label="March 27, 1886—August 17, 1989March 27, 1886—August 17, 1989" transform="matrix(1.3333333,0,0,1.3333333,209.05013,4065.4719)" />
      </g></svg>