<?xml version='1.0' encoding='utf-8'?>
<svg xmlns="http://www.w3.org/2000/svg" version="1.1" width="72.015" height="101.216" viewBox="1263.060 4361.390 72.015 101.216"><g id="object"><path id="path82" d="m 0,0 c 0.375,-6.69 1.28,-13.199 4.118,-19.269 1.532,-3.275 4.437,-4.944 7.987,-4.989 3.581,-0.045 5.859,2.615 6.644,5.468 2.826,10.278 4.271,20.868 1.238,31.266 -1.399,4.8 -4.084,10.767 -10.144,10.316 C 4.417,22.389 2.171,17.345 1.696,11.893 1.35,7.91 0.581,3.963 0,0 m -11.237,-0.394 c -0.034,7.36 0.268,14.568 3.625,21.435 3.425,7.006 8.912,10.885 16.425,11.675 8.837,0.929 16.502,-2.705 19.787,-10.566 6.594,-15.781 7.804,-32.187 -1.838,-47.413 -8.714,-13.759 -26.553,-9.934 -33.066,1.617 -4.138,7.339 -4.847,15.17 -4.933,23.252" style="fill:#c33c36;fill-opacity:1;fill-rule:nonzero;stroke:none" transform="matrix(1.3333333,0,0,-1.3333333,1284.0452,4411.2001)" />
      </g></svg>