<?xml version='1.0' encoding='utf-8'?>
<svg xmlns="http://www.w3.org/2000/svg" version="1.1" width="54.432" height="101.806" viewBox="2039.000 4360.510 54.432 101.806"><g id="object"><path id="path147" d="M 0,0 C 2.794,1.042 5.169,-0.442 7.688,-1.81 10.764,-3.479 10.3,-6.245 9.706,-8.616 8.918,-11.757 6.341,-9.66 5.057,-9.169 c -4.948,1.893 -7.42,-0.912 -9.926,-4.34 -2.754,-3.767 -0.617,-6.629 1.413,-9.609 3.144,-4.616 8.396,-6.853 12.127,-10.84 5.362,-5.731 7.393,-16.247 4.034,-22.255 -4.86,-8.695 -12.561,-12.173 -21.843,-10.283 -3.319,0.675 -5.158,2.246 -5.342,5.523 -0.183,3.261 -1.325,6.691 4.854,4.513 7.299,-2.574 11.441,0.4 12.646,6.722 0.823,4.314 -1.905,6.569 -4.523,8.925 -4.381,3.944 -9.508,7.081 -12.805,12.179 -7.025,10.858 -1.802,25.8 9.956,28.674 C -2.891,0.397 -1.614,0.543 0,0" style="fill:#c33c36;fill-opacity:1;fill-rule:nonzero;stroke:none" transform="matrix(1.3333333,0,0,-1.3333333,2068.3063,4366.9899)" />
      </g></svg>