<?xml version='1.0' encoding='utf-8'?>
<svg xmlns="http://www.w3.org/2000/svg" version="1.1" width="71.343" height="100.726" viewBox="1232.480 4069.760 71.343 100.726"><g id="object"><path id="path95" d="m 0,0 c -1.39,-6.328 -2.487,-11.069 -3.456,-15.837 -0.493,-2.428 -0.361,-4.837 2.215,-6.127 1.691,-0.847 3.733,-1.606 5.31,-0.097 1.904,1.822 1.239,4.213 0.98,6.621 C 4.517,-10.494 2.559,-6.088 0,0 m 16.748,-44.167 c -4.275,-0.566 -7.035,0.937 -7.878,6.197 -0.814,5.078 -5.267,5.45 -9.472,5.272 -3.918,-0.165 -6.776,-1.407 -6.905,-6.183 -0.198,-7.319 -5.857,-5.692 -9.95,-5.135 -5.326,0.725 -3.091,4.737 -2.405,7.788 3.931,17.485 9.304,34.628 12.406,52.311 0.807,4.603 3.61,5.972 8.1,5.892 4.426,-0.08 7.615,-0.468 8.799,-5.825 3.544,-16.04 7.55,-31.976 11.398,-47.948 0.438,-1.815 0.893,-3.642 1.548,-5.385 2.365,-6.295 1.622,-7.335 -5.641,-6.984" style="fill:#494f57;fill-opacity:1;fill-rule:nonzero;stroke:none" transform="matrix(1.3333333,0,0,-1.3333333,1266.3653,4105.0596)" />
      </g></svg>