<?xml version='1.0' encoding='utf-8'?>
<svg xmlns="http://www.w3.org/2000/svg" version="1.1" width="108.180" height="188.130" viewBox="133.303 2407.030 108.180 188.130"><g id="object"><path id="path14" d="m 0,0 c -0.076,-1.422 -0.104,-1.847 -0.12,-2.272 -0.064,-1.73 0.027,-3.53 1.787,-4.362 2.207,-1.044 4.318,-0.208 5.702,1.521 2.645,3.305 5.195,6.72 7.429,10.31 2.324,3.734 1.412,6.055 -2.643,8.132 C 4.669,17.164 2.747,16.229 1.184,7.853 0.638,4.926 0.292,1.963 0,0 m 3.042,-64.643 c -0.128,-3.899 1.427,-5.208 5.527,-4.532 2.511,0.415 5.029,0.884 7.475,1.574 3.52,0.992 5.819,3.418 6.921,6.872 0.701,2.2 0.416,4.315 -2,5.262 -1.959,0.768 -4.057,1.235 -6.131,1.644 -8.628,1.704 -10.863,0.116 -11.78,-8.275 -0.092,-0.839 -0.012,-1.696 -0.012,-2.545 m 14.16,44.36 c 0.858,-2.736 3.336,-3.725 5.537,-4.95 8.1,-4.508 14.085,-11.172 19.67,-18.42 3.383,-4.392 4.504,-9.021 4.513,-14.406 0.017,-11.879 -5.32,-21.481 -12.233,-30.498 -0.483,-0.63 -1.455,-1.351 -2.136,-1.293 -5.961,0.511 -10.652,-2.985 -15.853,-4.845 -2.572,-0.921 -5.146,-0.743 -7.587,0.24 -10.392,4.184 -20.75,8.452 -31.108,12.718 -2.238,0.922 -3.533,2.806 -3.152,5.091 2.194,13.156 0.887,26.657 4.482,39.715 3.319,12.051 5.376,24.39 5.863,36.954 0.267,6.89 0.907,13.766 1.419,20.645 0.886,11.898 1.329,12.404 13.608,14.478 4.24,0.716 8.52,1.6 12.791,1.652 7.239,0.088 13.001,-2.532 17.481,-8.926 10.073,-14.378 10.349,-14.345 2.705,-30.13 -2.672,-5.516 -5.947,-10.491 -11.527,-13.55 -1.89,-1.036 -3.693,-2.254 -4.473,-4.475" style="fill:#494643;fill-opacity:1;fill-rule:nonzero;stroke:none" transform="matrix(1.3333333,0,0,-1.3333333,172.92053,2462.096)" />
      </g></svg>