<?xml version='1.0' encoding='utf-8'?>
<svg xmlns="http://www.w3.org/2000/svg" version="1.1" width="3185.773" height="4501.023" viewBox="-1.183 -1.165 3185.773 4501.023"><defs id="defs1"><clipPath clipPathUnits="userSpaceOnUse" id="clipPath3">
      <path d="M -182.4642,3138.986 H 2201.4759 V -231.40413 H -182.4642 Z" id="path3" />
    </clipPath>
    <clipPath clipPathUnits="userSpaceOnUse" id="clipPath7">
      <path d="m -1195.5642,3.9327001 h 2383.94 V -3366.4574 h -2383.94 z" id="path7" />
    </clipPath>
    <clipPath clipPathUnits="userSpaceOnUse" id="clipPath55">
      <path d="M -1124.533,94.374902 H 1259.4071 V -3276.0152 H -1124.533 Z" id="path55" />
    </clipPath>
    <clipPath clipPathUnits="userSpaceOnUse" id="clipPath75">
      <path d="M -1451.014,762.56994 H 932.92605 V -2607.8201 H -1451.014 Z" id="path75" />
    </clipPath>
    <clipPath clipPathUnits="userSpaceOnUse" id="clipPath81">
      <path d="M -1607.9116,2719.0744 H 776.02844 V -651.31572 H -1607.9116 Z" id="path81" />
    </clipPath>
    <clipPath clipPathUnits="userSpaceOnUse" id="clipPath85">
      <path d="M -1825.7886,2691.8215 H 558.15141 V -678.56862 H -1825.7886 Z" id="path85" />
    </clipPath>
    <clipPath clipPathUnits="userSpaceOnUse" id="clipPath87">
      <path d="M -1478.4468,2694.8311 H 905.4933 V -675.55902 h -2383.9401 z" id="path87" />
    </clipPath>
    <clipPath clipPathUnits="userSpaceOnUse" id="clipPath89">
      <path d="M -1732.944,2715.1987 H 650.99602 V -655.19134 H -1732.944 Z" id="path89" />
    </clipPath>
  </defs><g id="object"><path id="path2" d="m 0,0 c 12.872,-5.935 22.579,-4.251 32.077,-4.021 2.569,0.062 5.298,0.98 5.612,4.041 0.458,4.456 -3.113,5.389 -6.285,5.353 C 22.109,5.268 12.347,7.777 0,0 m 460.21,10.246 c -0.229,10e-4 -0.457,10e-4 -0.686,10e-4 0,12.431 0.125,24.864 -0.089,37.292 -0.052,3.04 -0.221,6.947 -4.709,7.132 -4.685,0.192 -4.911,-3.835 -4.932,-6.83 -0.179,-25.519 -0.193,-51.04 -0.028,-76.559 0.02,-2.991 0.309,-7.032 4.941,-6.892 5.661,0.172 5.349,4.91 5.416,8.563 0.227,12.427 0.087,24.862 0.087,37.293 M 241.137,9.021 h -0.145 c 0,-12.393 0.092,-24.786 -0.034,-37.178 -0.076,-7.544 3.679,-10.834 10.881,-9.954 4.728,0.578 11.592,-2.85 13.497,4.05 2.363,8.564 -5.742,6.118 -9.91,7.897 -6.535,2.788 -4.113,8.928 -4.194,13.694 -0.331,19.563 -0.163,39.134 -0.286,58.702 -0.02,3.159 -0.053,7.286 -3.912,7.826 -5.624,0.786 -5.764,-4.113 -5.823,-7.859 -0.196,-12.39 -0.074,-24.785 -0.074,-37.178 M 66.481,5.15 h -0.81 c 0,13.754 0.116,27.509 -0.077,41.26 -0.052,3.752 -0.069,8.461 -5.885,7.961 -3.97,-0.341 -5.223,-3.625 -5.217,-7.054 0.042,-26.847 0.12,-53.696 0.42,-80.542 0.042,-3.787 0.694,-8.488 6.217,-7.962 5.286,0.504 5.162,5.383 5.244,9.028 0.282,12.431 0.108,24.872 0.108,37.309 m 115.551,6.375 c -0.162,0 -0.324,0 -0.485,0 0,11.699 0.112,23.4 -0.063,35.097 -0.059,3.98 -1.074,8.411 -6.169,8.023 -4.769,-0.364 -5.457,-4.313 -5.318,-8.652 0.564,-17.536 1.086,-35.079 1.173,-52.621 0.035,-7.077 4.173,-16.188 -10.018,-16.545 -6.185,-0.156 -5.568,-7.42 -0.516,-11.674 8.525,-7.178 19.69,-2.871 21.091,9.389 1.393,12.18 0.305,24.643 0.305,36.983 m 107.04,-53.433 c 7.579,3.214 4.541,10.561 4.845,16.486 1.182,22.994 -6.57,47.026 7.765,68.426 2.477,3.698 6.68,8.026 3.089,11.156 -4.067,3.546 -10.695,2.301 -13.398,-3.146 -3.807,-7.671 -6.354,-9.586 -10.357,-0.342 -2.208,5.098 -6.912,6.489 -11.363,3.787 -6.909,-4.195 0.003,-8.695 1.75,-11.021 10.593,-14.105 10.447,-30.11 10.138,-46.405 -0.198,-10.418 0.088,-20.85 0.359,-31.27 0.104,-4.022 0.771,-8.028 7.172,-7.671 m 74.525,-0.247 c 4.54,2.401 13.114,-3.9 15.514,6.036 2.458,10.177 -5.963,8.922 -11.767,11.079 -8.235,3.059 -4.635,9.85 -2.77,14.909 5.338,14.48 3.775,30.592 11.548,44.647 2.45,4.43 2.986,13.032 -2.803,16.002 -6.788,3.483 -15.467,3.335 -22.644,0.344 -4.745,-1.977 -2.808,-8.648 1.028,-8.543 21.888,0.601 11.258,-12.011 8.927,-20.921 -3.775,-14.425 -6.767,-29.239 -12.375,-42.954 -6.616,-16.182 0.845,-19.788 15.342,-20.599 M -9.436,8.589 c -0.042,0 -0.083,10e-4 -0.125,10e-4 0,12.44 0.081,24.88 -0.042,37.319 -0.046,4.598 -0.077,9.911 -6.897,9.156 -5.31,-0.587 -4.395,-5.356 -5.137,-9.075 -1.117,-5.592 4.213,-15.782 -5.851,-15.337 -8.569,0.379 -5.001,10.332 -5.814,16.366 -0.441,3.272 -0.689,6.783 -4.597,7.641 -1.623,0.357 -4.051,-0.069 -5.246,-1.123 -6.128,-5.405 -0.552,-39.193 6.542,-38.568 20.52,1.805 14.592,-11.722 14.814,-22.085 0.169,-7.855 0.093,-15.717 0.367,-23.568 0.113,-3.237 0.599,-6.811 4.874,-7.223 5.106,-0.492 6.99,2.916 7.048,7.212 0.176,13.093 0.064,26.189 0.064,39.284 m 109.012,581.81 c 1.619,-13.546 -2.052,-27.718 4.523,-40.643 3.363,-6.611 8.949,-10.676 15.955,-6.313 6.782,4.224 5.824,9.846 0.816,16.174 -9.852,12.448 -12.458,52.448 -1.85,63.919 11.022,11.919 -4.462,15.413 -4.678,23.554 -0.13,4.897 -9.545,5.392 -10.933,2.12 -3.126,-7.37 -15.243,-13.643 -9.589,-21.296 9.129,-12.358 4.058,-25.082 5.756,-37.515 M 509.11,6.637 c -0.063,0 -0.126,0 -0.188,0 0,12.398 0.11,24.799 -0.061,37.195 -0.059,4.297 1.312,10.247 -4.988,11.008 -6.734,0.814 -5.788,-5.063 -6.572,-9.467 -1.002,-5.622 3.556,-15.395 -6.697,-15.066 -8.302,0.267 -4.549,9.148 -5.407,14.385 -0.806,4.916 -0.113,13.116 -7.673,9.244 -8.316,-4.26 -2.991,-14.177 -3.674,-21.521 -0.49,-5.277 -2.191,-14.516 6.179,-13.761 20.89,1.884 16.984,-11.892 16.997,-23.811 0.012,-9.787 -0.003,-19.578 0.29,-29.358 0.095,-3.164 0.699,-6.768 4.903,-7.238 5.314,-0.595 6.772,3.145 6.825,7.307 0.176,13.692 0.066,27.388 0.066,41.083 M 210.453,-21.525 c -0.986,3.636 -2.747,7.255 -2.826,10.91 -0.409,18.971 -0.318,37.952 -0.579,56.927 -0.051,3.74 0.185,8.617 -5.301,8.648 -5.005,0.029 -6.082,-4.214 -6.201,-8.325 -0.306,-10.471 -0.711,-20.952 -0.559,-31.421 0.218,-14.963 -1.574,-30.098 4.84,-44.524 4.583,-10.308 13.194,-9.691 21.608,-8.626 8.571,1.084 6.404,8.317 6.382,13.945 -0.083,22.26 -0.049,44.524 -0.495,66.777 -0.089,4.439 2.566,12.299 -5.705,11.626 -5.456,-0.444 -4.056,-7.169 -4.343,-11.484 -1.424,-21.353 1.693,-42.992 -6.821,-64.453 M 119.05,36.801 c 0.463,9.595 -5.474,17.329 -17.019,20.133 C 91.26,59.549 82.104,55.059 77.703,45.56 73.048,35.513 73.318,22.31 84.775,18.492 c 20.707,-6.9 15.823,-18.596 10.207,-32.381 -1.927,-4.732 -2.27,-10.114 -3.294,-15.208 -0.697,-3.469 -0.344,-6.645 3.71,-7.655 4.329,-1.078 5.705,2.241 6.515,5.377 5.646,21.872 14.339,42.953 17.137,68.176 M 496.698,301.48 c -5.869,0 -11.747,0.216 -17.602,-0.062 -5.609,-0.266 -12.635,1.055 -13.306,-7.578 -0.603,-7.754 5.38,-7.951 10.62,-7.845 10.534,0.213 10.817,-6.597 10.896,-14.353 0.289,-28.067 0.582,-56.141 1.499,-84.191 0.201,-6.125 -4.275,-16.452 7.145,-16.813 11.458,-0.361 8.081,9.99 8.065,16.25 -0.071,28.062 -0.902,56.122 -1.275,84.184 -0.082,6.201 -2.067,13.619 7.617,15.281 5.698,0.978 15.271,-2.223 13.683,8.569 -1.605,10.913 -11.201,5.631 -17.566,6.484 -3.204,0.429 -6.514,0.075 -9.776,0.074 M 2.983,241.724 c -0.049,0 -0.098,0 -0.147,0 0,13.045 0.697,26.144 -0.298,39.113 -0.488,6.367 5.316,18.285 -7.969,17.545 -12.172,-0.679 -7.202,-12.044 -7.308,-18.726 -0.413,-26.076 0.412,-52.168 0.281,-78.252 -0.063,-12.405 -3.196,-21.756 -17.593,-10.363 -4.987,3.947 -10.574,4.267 -13.676,-0.316 -3.08,-4.551 -0.114,-9.898 3.952,-13.884 8.51,-8.342 19.196,-8.921 29.268,-5.877 9.694,2.93 12.865,12.658 13.283,21.854 0.739,16.271 0.207,32.601 0.207,48.906 m 539.049,-7.658 h -0.136 c 0,-18.261 0.153,-36.524 -0.077,-54.782 -0.088,-6.924 3.129,-9.236 9.534,-8.943 5.184,0.236 8.22,1.136 7.866,7.865 -1.953,37.045 1.221,74.243 -3.237,111.238 -0.521,4.331 1.429,9.702 -5.795,9.878 -7.382,0.18 -8.194,-4.746 -8.176,-10.475 0.057,-18.26 0.021,-36.52 0.021,-54.781 m 180.916,0.569 h -0.079 c 0,-11.776 -0.003,-23.553 0,-35.33 0.009,-31.532 0.454,-32.019 31.348,-28.993 6.038,0.591 14.265,-1.239 14.464,8.82 0.209,10.561 -8.2,8.926 -14.083,8.295 -15.023,-1.612 -17.09,6.337 -16.789,18.755 0.616,25.499 0.467,51.034 -0.146,76.536 -0.141,5.903 4.647,16.799 -7.513,16.15 -11.042,-0.59 -6.754,-10.88 -6.999,-17.134 -0.615,-15.678 -0.203,-31.397 -0.203,-47.099 M 436.072,4.124 c -1.199,11.223 0.754,23.278 -5.063,34.075 -3.683,6.838 -3.068,17.625 -15.282,17.059 -11.557,-0.536 -16.096,-8.576 -20.068,-17.695 -6.288,-14.437 -3.352,-29.432 -3.016,-44.252 0.295,-12.995 15.799,-33.902 24.695,-32.041 15.153,3.17 16.337,16.524 17.844,28.899 0.55,4.508 0.594,9.076 0.89,13.955 M 282.666,235.659 h -0.18 c 0,-15.658 -0.528,-31.341 0.251,-46.959 0.328,-6.57 -4.871,-18.36 8.158,-17.714 12.343,0.612 6.452,12.011 7.121,18.681 0.97,9.687 0.279,19.547 0.179,29.332 -0.096,9.381 -0.949,19.057 13.295,17.991 4.404,-0.329 7.464,2.099 7.812,6.832 0.4,5.43 -2.028,8.976 -7.667,9.071 -7.995,0.135 -13.46,1.483 -13.849,11.737 -0.509,13.437 0.621,23.546 18.069,21.144 4.427,-0.609 9.668,-0.371 9.821,6.329 0.083,3.63 -1.988,5.625 -5.497,6.953 -21.805,8.25 -37.603,-1.901 -37.522,-24.26 0.047,-13.046 0.009,-26.092 0.009,-39.137 m -129.32,358.348 c 2.191,0.053 4.382,0.106 6.573,0.159 0,-13.419 -0.055,-26.838 0.028,-40.257 0.032,-5.204 -0.477,-11.301 7.367,-10.976 7.52,0.312 7.168,6.111 6.905,11.449 -0.87,17.601 -1.789,35.199 -2.685,52.798 -0.362,7.114 -3.517,13.828 -9.913,15.609 -10.019,2.788 -11.603,8.83 -10.651,17.449 0.626,5.673 -0.002,11.119 -7.573,10.469 -7.648,-0.656 -7.645,-5.138 -7.361,-12.318 1.107,-28.031 0.677,-56.122 0.797,-84.191 0.02,-4.69 -3.266,-10.895 5.75,-11.071 7.233,-0.141 8.491,4.328 8.744,10.118 0.594,13.591 1.337,27.175 2.019,40.762 M 434.885,200.514 c -0.274,-5.125 0.875,-9.782 -3.824,-11.446 -3.862,-1.367 -6.005,2.043 -7.032,5.031 -1.51,4.39 -2.985,6.981 -8.047,3.801 -4.105,-2.579 -7.146,-4.902 -6.105,-10.746 2.019,-11.334 16.641,-19.355 27.186,-14.077 15.24,7.628 16.025,21.093 12.899,35.291 -4.615,20.958 -17.246,38.68 -24.609,58.577 -3.031,8.192 -3.93,16.026 7.74,11.727 6.388,-2.354 10.812,-4.82 14.342,1.619 4.41,8.043 -3.315,11.912 -7.981,15.18 -14.694,10.291 -30.83,1.848 -31.394,-16.16 -0.351,-11.206 3.906,-21.439 7.342,-31.991 5.385,-16.537 17.125,-30.429 19.483,-46.806 M 259.947,413.463 c -0.309,0 -0.618,0 -0.927,0 0,14.37 0.118,28.742 -0.044,43.11 -0.098,8.645 1.071,15.894 12.222,15.702 5.717,-0.099 10.723,1.03 9.962,8.515 -0.774,7.613 -6.811,6.729 -11.841,6.789 -12.408,0.148 -24.82,-0.005 -37.231,-0.056 -4.593,-0.019 -9.941,0.388 -10.843,-5.626 -0.949,-6.33 2.676,-10.148 9.087,-9.746 12.662,0.795 12.898,-6.951 12.801,-16.39 -0.296,-28.738 -0.045,-57.482 0.086,-86.223 0.03,-6.467 -0.229,-15.553 7.526,-15.583 8.608,-0.034 9.45,8.708 9.288,16.401 -0.301,14.363 -0.086,28.737 -0.086,43.107 M 167.519,170.438 c 17.053,0 31.959,-0.136 46.861,0.082 4.634,0.067 9.723,1.481 10.017,6.986 0.289,5.425 -4.538,7.563 -9.127,8.538 -3.141,0.667 -6.526,0.718 -9.74,0.404 -11.995,-1.175 -16.628,0.945 -11.697,14.998 9.893,28.194 17.59,57.16 26.148,85.821 1.677,5.613 4.638,12.136 -5.676,11.969 -13.043,-0.21 -26.088,-0.557 -39.121,-1.111 -4.585,-0.195 -6.834,-3.073 -6.777,-7.777 0.061,-5.151 3.297,-6.596 7.62,-6.752 3.257,-0.118 6.561,-0.334 9.778,0.05 12.27,1.464 17.719,0.425 12.129,-15.093 -11.412,-31.678 -20.124,-64.329 -30.415,-98.115 M 4.27,606.452 c -0.395,10e-4 -0.789,10e-4 -1.183,10e-4 0,18.263 0.089,36.527 -0.059,54.79 -0.04,4.952 1.172,11.044 -6.889,11.404 -8.601,0.384 -9.098,-5.406 -9.082,-11.674 0.015,-5.869 0.034,-11.74 -0.01,-17.609 -0.044,-5.692 -2.975,-8.173 -8.633,-7.867 -4.818,0.261 -7.019,2.897 -7.108,7.431 -0.128,6.52 -0.07,13.045 -0.068,19.567 0.002,5.792 -1.218,10.148 -8.572,10.046 -7.76,-0.108 -7.841,-5.338 -7.88,-10.66 -0.067,-9.131 0.685,-18.308 0.012,-27.386 -0.887,-11.963 3.77,-17.176 15.732,-15.164 14.835,2.495 17.395,-5.242 16.561,-17.947 -0.938,-14.291 -0.279,-28.69 -0.196,-43.042 0.04,-7.005 -1.557,-15.978 8.739,-16.457 11.418,-0.53 8.555,8.915 8.6,15.646 0.109,16.306 0.036,32.614 0.036,48.921 M 364.998,420.475 c 0,-10.472 0,-20.944 0,-31.416 0,-2.619 0.03,-5.238 -10e-4,-7.856 -0.323,-27.263 -0.326,-27.261 27.614,-26.744 1.308,0.025 2.622,0.031 3.927,-0.05 8.32,-0.514 14.289,2.105 14.592,11.53 0.363,11.278 -8.553,8.537 -13.99,7.716 -14.593,-2.204 -18.833,3.954 -17.091,17.417 0.749,5.789 0.212,11.771 -0.03,17.654 -0.352,8.596 2.198,14.034 12.199,12.932 6.224,-0.686 11.82,-0.403 12.115,8.373 0.301,8.956 -5.554,9.345 -11.656,8.948 -14.689,-0.958 -12.295,9.512 -13.233,18.465 -1.163,11.107 4.981,12.858 14.029,13.636 6.259,0.538 17.335,-3.518 17.171,7.141 -0.197,12.774 -12.047,5.085 -18.529,6.961 -3.01,0.87 -6.555,-0.32 -9.765,0.111 -13.824,1.855 -18.482,-4.007 -17.543,-17.703 1.073,-15.637 0.249,-31.404 0.191,-47.115 M 92.69,170.07 c 15.972,0 29.532,-0.17 43.085,0.075 6.264,0.114 16.244,-1.227 16.433,6.072 0.236,9.105 -8.987,11.416 -17.578,10.271 -15.117,-2.014 -15.207,5.144 -11.335,16.704 7.026,20.979 13.007,42.306 19.533,63.454 10.174,32.969 10.209,33.087 -24.032,32.096 -9.249,-0.268 -23.554,2.991 -23.768,-9.804 -0.186,-11.162 13.525,-8.901 22.194,-8.665 9.563,0.26 14.057,-1.919 8.563,-12.011 -2.105,-3.866 -3.171,-8.104 -4.424,-12.372 -8.137,-27.709 -13.087,-56.512 -28.671,-85.82 m 250.369,64.653 c 0.054,10e-4 0.107,10e-4 0.161,10e-4 0,-17.005 0.013,-34.01 -0.007,-51.015 -0.008,-6.763 -0.224,-13.961 9.527,-13.343 10.613,0.673 23.187,-4.713 30.967,5.674 3.86,5.153 0.515,11.545 -7.83,11.31 -8.806,-0.249 -19.645,-0.69 -16.276,12.015 3.015,11.372 -12.609,30.424 12.202,33.643 8.205,1.065 7.768,8.504 9.341,13.286 2.18,6.624 -5.26,7.252 -8.829,6.905 -14.3,-1.395 -12.926,7.75 -14.136,17.316 -1.738,13.746 7.296,9.53 14.307,11.361 6.146,1.605 19.657,3.741 11.393,13.811 -7.827,9.539 -22.1,2.808 -33.438,2.983 -10.329,0.16 -7.126,-9.068 -7.255,-14.899 -0.364,-16.342 -0.127,-32.697 -0.127,-49.048 m 271.645,-6.392 c -1.211,-0.15 -2.422,-0.301 -3.634,-0.451 -5.162,20.493 -10.515,40.942 -15.388,61.504 -1.812,7.647 -5.313,11.972 -13.515,9.481 -8.035,-2.441 -3.638,-8.079 -2.88,-12.834 3.57,-22.378 9.533,-44.339 14.432,-66.357 3.111,-13.981 5.031,-29.053 11.375,-42.583 2.722,-5.806 6.497,-7.508 12.335,-6.812 5.174,0.616 5.715,4.432 6.32,8.389 5.465,35.723 11.095,71.422 16.283,107.185 0.828,5.709 4.295,14.335 -6.571,14.661 -9.49,0.285 -8.706,-8.044 -9.705,-14.199 -3.135,-19.309 -6.051,-38.653 -9.052,-57.984 m -87.239,229.492 c -6.271,6.741 -7.093,15.555 -9.693,23.418 -2.005,6.065 -5.58,6.498 -10.379,5.699 -5.243,-0.874 -5.414,-5.436 -5.012,-9.071 0.495,-4.476 1.624,-9.202 3.756,-13.127 14.554,-26.794 11.351,-53.71 1.506,-80.922 -1.76,-4.866 -1.869,-10.315 -3.483,-15.252 -2.021,-6.179 -0.387,-10.093 5.659,-12.283 7.812,-2.83 8.786,3.452 10.284,8.161 3.25,10.214 2.7,21.688 10.686,32.65 4.569,-11.228 8.272,-20.808 12.372,-30.214 2.201,-5.047 1.977,-13.567 11.278,-10.751 11.329,3.429 8.542,11.542 4.703,18.678 -17.41,32.366 -26.195,65.041 -6.804,100.019 1.859,3.353 5.831,10.538 -2.958,12.459 -6.464,1.413 -11.101,-0.28 -12.893,-8.012 -1.718,-7.412 -3.489,-15.145 -9.022,-21.452 m -74.008,-85.412 c -2.459,11.867 -5.52,20.463 -5.795,29.147 -0.765,24.204 -0.309,48.444 -0.494,72.669 -0.038,4.918 1.622,11.398 -6.251,12.019 -8.39,0.662 -9.209,-5.283 -9.218,-11.695 -0.041,-28.787 -1.37,-57.647 0.33,-86.329 0.77,-12.993 5.323,-28.285 22.362,-29.967 17.889,-1.766 20.3,12.855 23.24,25.815 6.909,30.46 4.592,61.2 2.635,91.918 -0.348,5.475 -1.455,11 -8.53,10.843 -8.091,-0.179 -6.509,-6.741 -6.544,-11.664 -0.153,-21.614 0.341,-43.242 -0.299,-64.838 -0.351,-11.889 -0.226,-24.371 -11.436,-37.918 m -329.526,48.474 c 0.097,17.878 -2.508,35.324 -11.13,51.171 -8.707,16.004 -30.009,16.774 -40.312,1.997 -16.382,-23.494 -16.081,-80.644 0.553,-105.002 11.579,-16.955 28.524,-16.825 38.953,0.776 9.269,15.642 11.019,33.286 11.936,51.058 m 190.185,-15.607 c 5.28,-12.782 9.331,-24.715 15.387,-35.781 2.899,-5.296 2.705,-15.91 13.292,-12.04 12.092,4.419 1.237,11.977 1.098,17.891 -0.114,4.865 -3.741,9.562 -5.295,14.496 -5.074,16.103 -10.165,31.63 0.025,48.546 4.661,7.738 7.54,17.783 6.372,28.098 -2.43,21.446 -17.297,19.593 -33.133,20.594 -18.637,1.177 -14.255,-10.691 -14.263,-20.266 -0.028,-33.355 0.294,-66.711 0.658,-100.064 0.055,-4.963 -1.247,-12.869 4.979,-13.026 5.995,-0.15 11.527,4.548 11.059,13.175 -0.692,12.758 -0.179,25.582 -0.179,38.377 M 80.503,226.789 c -0.275,0 -0.55,0 -0.825,0.001 -0.872,18.24 -1.351,36.512 -2.773,54.71 -0.786,10.056 -3.315,19.56 -17.231,18.024 -12.17,-1.342 -20.693,-5.535 -21.942,-19.576 -2.868,-32.249 -6.502,-64.43 -9.638,-96.657 -0.513,-5.264 -3.991,-12.314 5.838,-13.321 9.151,-0.937 10.747,4.791 11.204,12.068 1.023,16.278 2.399,32.533 3.421,48.811 0.361,5.759 1.31,10.223 8.691,9.907 7.465,-0.321 5.64,-5.813 5.856,-9.932 0.854,-16.293 1.422,-32.601 2.212,-48.897 0.281,-5.778 -0.393,-12.704 8.624,-12.037 7.796,0.578 6.436,6.955 6.496,11.876 0.184,15.006 0.067,30.015 0.067,45.023 m 625.54,3.095 c -0.995,0.001 -1.99,0.002 -2.984,0.004 0,14.351 0.063,28.702 -0.019,43.052 -0.076,13.332 -3.367,27.32 -18.238,28.031 -15.894,0.759 -19.975,-13.756 -22.48,-27.276 -5.444,-29.387 -6.307,-59.211 -8.68,-88.885 -0.446,-5.569 -4.955,-13.932 6.365,-14.755 11.301,-0.821 10.076,7.813 10.64,14.677 1.335,16.265 2.386,32.554 3.53,48.835 0.392,5.58 1.525,11.095 8.644,10.32 6.045,-0.657 5.705,-6.35 5.886,-10.736 0.727,-17.615 1.164,-35.243 1.78,-52.864 0.185,-5.268 -0.004,-10.869 7.954,-10.437 7.516,0.408 7.595,5.668 7.598,11.076 0.01,16.319 0.004,32.639 0.004,48.958 M 48.457,674.251 c -10.562,0.623 -20.524,-9.436 -19.09,-19.465 3.722,-26.046 -6.021,-50.552 -4.667,-75.84 0.507,-9.459 3.067,-19.259 9.744,-27.117 11.921,-14.031 25.425,-13.236 35.664,1.62 10.183,14.775 9.822,31.595 6.076,47.038 -3.203,13.208 -3.813,24.747 -0.472,37.855 4.914,19.278 -7.026,35.692 -27.255,35.909 M 160.536,431.916 c 0.792,0.068 1.583,0.135 2.374,0.203 7.685,-22.114 15.514,-44.18 22.962,-66.374 2.069,-6.164 4.562,-11.15 12.058,-9.937 7.72,1.249 5.664,7.704 5.679,12.502 0.107,34.723 0.104,69.447 -0.143,104.168 -0.043,5.974 2.399,14.477 -7.994,14.583 -10.516,0.108 -7.543,-8.492 -8.196,-14.429 -1.561,-14.187 3.485,-29.029 -4.967,-43.256 -0.977,16.218 -12.349,28.009 -15.724,43.103 -1.558,6.968 -4.702,16.124 -14.164,15.404 -10.727,-0.818 -10.116,-10.348 -10.007,-18.172 0.465,-33.399 0.994,-66.799 1.885,-100.188 0.154,-5.747 -2.828,-14.479 7.769,-14.695 10.595,-0.216 8.132,8.697 8.268,14.341 0.504,20.905 0.2,41.829 0.2,62.747 m -163.6,10.646 c -11.386,12.168 -15.132,25.709 -21.979,37.415 -3.501,5.986 -7.912,8.65 -14.41,7.226 -7.335,-1.607 -5.589,-7.964 -5.57,-12.817 0.133,-34.038 0.418,-68.077 0.88,-102.112 0.092,-6.818 -1.69,-15.995 9.678,-15.263 12.053,0.775 7.165,10.41 7.09,16.613 -0.288,23.765 -3.434,47.533 -0.676,71.63 6.076,-1.381 5.821,-6.018 7.33,-9.311 12.109,-26.433 12.164,-26.52 30.827,-4.742 2.337,2.728 4.421,4.966 7.948,4.059 4.736,-1.217 5.207,-5.412 5.214,-9.397 0.029,-18.984 -0.161,-37.968 -0.047,-56.952 0.032,-5.325 -2.94,-12.823 6.709,-13.104 8.091,-0.237 9.309,5.433 9.301,11.928 -0.045,36.004 -0.004,72.007 -0.083,108.011 -0.01,4.392 1.086,9.708 -4.981,11.303 -5.335,1.402 -9.162,0.272 -13.367,-4.713 C 11.103,470.84 4.625,457.577 -3.064,442.562 m -175.467,-677.899 c 0,769.514 0,1539.027 0,2308.54 4.56,-0.181 9.436,0.635 13.632,-0.696 51.127,-16.206 102.718,-30.963 152.829,-50.329 32.957,-12.737 64.739,-28.21 97.333,-41.506 42.051,-17.154 85.213,-31.824 126.751,-50.29 48.939,-21.755 96.531,-45.919 135.677,-83.976 29.455,-28.635 53.965,-60.884 63.372,-100.875 13.139,-55.862 12.38,-113.882 22.963,-170.449 8.987,-48.03 26.009,-92.886 45.754,-136.739 20.095,-44.629 41.558,-88.136 51.465,-136.887 6.721,-33.071 17.701,-65.599 37.631,-94.22 11.585,-16.636 26.012,-26.493 46.321,-25.128 15.397,1.035 30.648,3.801 44.214,12.3 23.814,14.92 41.86,33.604 39.169,64.23 -4.734,53.876 -23.566,104.277 -39.393,155.405 -8.585,27.733 -21.016,54.597 -20.229,84.547 0.164,6.224 -1.59,13.877 6.881,16.511 7.008,2.179 12.066,-1.377 17.484,-5.927 26.36,-22.136 35.382,-54.061 46.794,-84.104 17.478,-46.015 28.939,-94.172 48.084,-139.677 14.75,-35.057 36.476,-63.004 74.956,-73.863 26.814,-7.567 58.214,8.777 70.924,33.048 14.086,26.899 2.353,51.218 -5.6,74.854 -16.492,49.015 -43.093,93.548 -70.198,137.294 -15.726,25.382 -27.165,53.214 -45.865,76.934 -8.54,10.833 -1.287,25.7 11.7,31.75 16.342,7.613 28.49,1.067 40.221,-9.448 42.276,-37.892 63.628,-89.944 92.419,-136.905 31.612,-51.561 57.743,-107.817 119.923,-131.343 10.049,-43.797 17.83,-87.981 22.537,-132.687 -14.26,-16.995 -26.898,-34.676 -33.813,-56.386 -6.359,-19.965 -10.289,-40.822 -23.101,-58.684 -13.458,-18.763 -17.807,-41.371 -20.166,-63.933 -5.434,-51.975 5.439,-102.605 12.491,-153.708 9.606,-69.602 31.627,-134.28 67.148,-194.746 37.579,-63.97 91.531,-111.172 153.933,-148.992 12.034,-7.293 23.106,-20.042 39.846,-18.424 3.182,-2.276 5.305,-4.574 6.007,-9.16 4.741,-30.979 14.513,-61.001 23.576,-90.634 22.338,-73.039 34.27,-147.818 43.868,-223.02 6.81,-53.354 8.321,-107.363 13.896,-160.903 5.644,-54.201 13.298,-108.195 20.248,-162.257 2.04,-15.866 17.072,-34.675 7.153,-45.922 -9.309,-10.557 -31.009,-3.253 -47.206,-3.261 -503.876,-0.243 -1007.753,-0.272 -1511.629,-0.334" style="fill:#de0f6d;fill-opacity:1;fill-rule:nonzero;stroke:none" transform="matrix(1.3333333,0,0,-1.3333333,243.2856,4185.3145)" clip-path="url(#clipPath3)" />
      <path id="path4" d="m 0,0 c 0,219.271 0.121,438.541 -0.32,657.811 -0.025,12.355 2.894,15.022 15.082,15 234.978,-0.414 469.957,-0.306 704.936,-0.306 5.063,-22.432 14.409,-43.17 24.246,-63.844 12.533,-26.341 28.618,-51.372 32.153,-81.302 -2,-3.99 -3.231,-8.676 -6.117,-11.862 -24.71,-27.271 -29.319,-59.485 -23.397,-94.171 4.284,-25.09 23.648,-47.614 51.818,-48.159 9.739,-0.189 19.477,-0.396 29.212,-0.596 8.747,-28.095 17.498,-56.19 26.249,-84.284 -30.094,-16.734 -57.921,-35.027 -71.661,-69.476 -22.113,-55.444 -4.402,-95.47 45.71,-114.19 27.336,-10.212 55.239,-7.243 83.15,-3.075 5.361,-20.923 10.719,-41.847 16.078,-62.771 -1.757,-8.53 -8.87,-13.756 -12.811,-20.714 -8.926,-15.759 -18.259,-31.115 -13.245,-51.762 8.87,-36.53 31.843,-55.528 67.481,-61.733 7.614,-26.834 15.651,-53.557 22.748,-80.528 12.392,-47.097 24.205,-94.346 36.26,-141.532 -21.467,-1.101 -42.567,-4.452 -63.727,-8.367 -40.23,-7.444 -79.566,-18.286 -119.161,-28.266 -39.384,-9.927 -74.099,-32.305 -114.824,-39.455 -42.917,-7.534 -83.815,-3.561 -121.185,16.603 -58.635,31.639 -111.636,72.432 -165.956,110.823 -87.715,61.993 -167.556,135.183 -267.626,179.304 C 115.541,-60.596 58.287,-29.126 0,0" style="fill:#de0f6d;fill-opacity:1;fill-rule:nonzero;stroke:none" transform="matrix(1.3333333,0,0,-1.3333333,5.2437333,901.9168)" />
      <path id="path5" d="m 0,0 c 58.287,-29.126 115.541,-60.596 175.093,-86.852 100.07,-44.121 179.911,-117.311 267.626,-179.304 54.32,-38.391 107.321,-79.184 165.956,-110.823 37.37,-20.164 78.268,-24.137 121.185,-16.603 40.725,7.15 75.44,29.528 114.824,39.455 39.595,9.98 78.931,20.822 119.161,28.266 21.16,3.915 42.26,7.266 63.727,8.367 7.649,-0.26 15.3,-0.52 22.95,-0.78 10.194,-1.489 20.335,-2.679 30.527,-4.886 31.07,-6.729 59.127,-20.908 88.276,-32.404 7.269,-8.374 16.955,-13.149 26.665,-17.888 24.438,-18.323 48.876,-36.646 73.314,-54.969 8.433,-8.898 16.866,-17.797 25.299,-26.694 21.434,-19.984 37.256,-44.27 54.032,-68.053 23.82,-33.771 36.697,-70.204 36.517,-111.563 -0.068,-15.661 -5.945,-25.987 -21.044,-31.087 -5.437,-1.837 -10.41,-5.048 -15.594,-7.632 -8.031,1.665 -15.817,0.126 -23.573,-1.804 -21.687,2.528 -42.188,9.23 -62.2,17.658 -8.521,6.677 -17.043,13.354 -25.564,20.03 -21.215,15.689 -41.06,34.03 -56.235,54.622 -20.378,27.654 -43.031,49.035 -76.031,58.809 -17.5,2.682 -19.649,-5.476 -12.851,-18.913 4.725,-9.34 11.969,-16.744 20.793,-22.494 41.239,-33.627 81.759,-68.182 126.192,-97.688 7.285,-9.093 16.821,-15.27 26.869,-20.786 23.19,-18.057 45.124,-37.868 71.629,-51.295 l -0.2,0.194 c -0.803,-2.776 0.672,-3.989 3.114,-4.538 8.888,-9.149 16.892,-19.693 31.437,-19.911 0.141,-6.779 3.412,-11.466 7.846,-16.802 42.929,-51.662 66.714,-108.378 43.694,-176.5 -5.487,-6.573 -10.974,-13.145 -16.461,-19.717 -27.342,-19.583 -54.721,-9.363 -82.098,-0.1 -8.021,7.301 -16.042,14.601 -24.062,21.902 -10.144,12.265 -21.149,23.925 -30.273,36.906 -28.997,41.254 -56.27,83.877 -98.043,114.122 -7.225,9.678 -16.827,16.352 -27.434,21.759 -11.389,9.284 -23.945,16.579 -37.136,23.062 -10.773,5.295 -19.488,4.546 -28.046,-4.281 -9.015,-9.298 -11.135,-20.507 -4.403,-30.228 24.301,-35.094 54.343,-64.639 90.693,-87.436 5.736,-11.345 16.994,-16.632 26.345,-24.012 52.207,-38.2 87.674,-88.778 105.151,-150.545 8.848,-31.272 12.252,-64.386 -11.655,-92.823 -10.416,-12.389 -25.848,-17.892 -37.797,-28.137 -7.76,0.065 -15.813,2.89 -23.001,-2.439 -62.181,23.527 -88.313,79.783 -119.924,131.344 -28.791,46.961 -50.144,99.013 -92.42,136.905 -11.731,10.514 -23.878,17.061 -40.221,9.448 -12.987,-6.05 -20.24,-20.917 -11.7,-31.75 18.7,-23.721 30.139,-51.553 45.866,-76.934 27.104,-43.746 53.705,-88.279 70.197,-137.295 7.953,-23.635 19.687,-47.955 5.6,-74.854 -12.71,-24.271 -44.109,-40.614 -70.924,-33.047 -38.48,10.858 -60.205,38.805 -74.955,73.863 -19.146,45.505 -30.606,93.661 -48.085,139.677 -11.411,30.043 -20.433,61.968 -46.794,84.104 -5.418,4.55 -10.475,8.106 -17.483,5.927 -8.472,-2.634 -6.718,-10.287 -6.881,-16.511 -0.788,-29.95 11.644,-56.814 20.229,-84.547 15.827,-51.129 34.659,-101.529 39.392,-155.405 2.691,-30.626 -15.354,-49.31 -39.169,-64.23 -13.565,-8.499 -28.816,-11.265 -44.213,-12.3 -20.309,-1.365 -34.737,8.492 -46.322,25.128 -19.93,28.621 -30.91,61.149 -37.63,94.22 -9.907,48.751 -31.37,92.258 -51.465,136.887 -19.745,43.853 -36.768,88.708 -45.754,136.739 -10.584,56.566 -9.824,114.587 -22.964,170.448 -9.406,39.992 -33.917,72.241 -63.371,100.876 -39.146,38.057 -86.739,62.221 -135.678,83.976 -41.538,18.465 -84.699,33.136 -126.751,50.29 -32.594,13.296 -64.376,28.769 -97.333,41.505 -50.111,19.367 -101.702,34.123 -152.828,50.33 -4.196,1.33 -9.073,0.515 -13.633,0.696 C 0,-259.563 0,-129.782 0,0" style="fill:#211f1e;fill-opacity:1;fill-rule:nonzero;stroke:none" transform="matrix(1.3333333,0,0,-1.3333333,5.2437333,901.9168)" />
      <path id="path6" d="m 0,0 h 1191.631 c -0.062,-53.494 -0.056,-106.989 -0.202,-160.482 -0.226,-82.828 -0.556,-165.655 -0.842,-248.482 -49.715,14.819 -100.039,27.497 -150.87,37.507 -47.719,9.396 -95.224,19.372 -142.162,32.079 -76.805,20.791 -151.205,48.707 -225.802,76.052 -38.281,14.032 -76.152,29.441 -115.087,41.356 -37.118,11.359 -75.317,19.242 -113.151,28.185 -40.321,9.53 -80.62,19.253 -121.211,27.502 -33.605,6.829 -66.093,16.963 -98.088,28.883 -42.486,15.828 -84.649,32.28 -128.481,44.55 -16.953,4.745 -35.387,1.796 -50.989,11.361 -9.202,15.918 -18.83,31.609 -27.459,47.831 C 11.37,-22.534 0.958,-13.661 0,0" style="fill:#de0f6d;fill-opacity:1;fill-rule:nonzero;stroke:none" transform="matrix(1.3333333,0,0,-1.3333333,1594.0856,5.2436)" clip-path="url(#clipPath7)" />
      <path id="path8" d="m 0,0 h 133.714 c 10.476,-30.63 21.523,-61.038 35.154,-90.442 -15.694,-4.032 -29.092,-11.829 -35.581,-27.119 -4.142,-9.761 -7.679,-8.313 -15.309,-3.929 -26.082,14.986 -54.01,25.803 -83.011,33.814 -5.844,16.068 -12.744,31.355 -21.713,46.238 C 6.056,-29.493 -5.168,-16.752 0,0" style="fill:#de0f6d;fill-opacity:1;fill-rule:nonzero;stroke:none" transform="matrix(1.3333333,0,0,-1.3333333,1274.2197,5.2436)" />
      <path id="path9" d="m 0,0 h 94.387 c 13.121,-28.214 26.241,-56.428 39.354,-84.635 -33.369,0.644 -65.973,-3.13 -96.905,-16.636 C 21.883,-68.486 4.684,-36.519 0,0" style="fill:#de0f6d;fill-opacity:1;fill-rule:nonzero;stroke:none" transform="matrix(1.3333333,0,0,-1.3333333,1106.4212,5.2436)" />
      <path id="path10" d="m 0,0 h 58.992 c 0.966,-6.215 2.007,-12.225 3.865,-18.443 9.515,-31.851 23.874,-61.648 36.543,-92.164 -12.475,-11.826 -30.403,-13.961 -43.602,-24.508 -5.207,20.183 -15.384,38.264 -24.133,56.945 C 19.724,-52.672 5.775,-27.994 0,0" style="fill:#de0f6d;fill-opacity:1;fill-rule:nonzero;stroke:none" transform="matrix(1.3333333,0,0,-1.3333333,996.30347,5.2436)" />
      <path id="path11" d="M 0,0 H 55.059 C 58.583,-6.244 62.412,-12.338 65.576,-18.76 75.892,-39.702 92.821,-57.074 98.781,-80.35 77.082,-90.065 53.962,-82.733 31.725,-85.956 23.012,-65.541 18.769,-43.485 7.708,-23.811 3.802,-16.865 -0.581,-8.93 0,0" style="fill:#de0f6d;fill-opacity:1;fill-rule:nonzero;stroke:none" transform="matrix(1.3333333,0,0,-1.3333333,1483.9677,5.2436)" />
      <path id="path12" d="m 0,0 c 5.775,-27.994 19.724,-52.672 31.665,-78.17 8.749,-18.681 18.926,-36.762 24.131,-56.95 -7.025,-4.814 -12.535,-13.095 -22.992,-10.025 -3.537,29.929 -19.622,54.96 -32.155,81.301 C -9.188,-43.17 -18.534,-22.432 -23.597,0 Z" style="fill:#f6ebf1;fill-opacity:1;fill-rule:nonzero;stroke:none" transform="matrix(1.3333333,0,0,-1.3333333,996.30347,5.2436)" />
      <path id="path13" d="m 0,0 c -12.663,30.516 -27.021,60.313 -36.537,92.163 -1.857,6.219 -2.899,12.229 -3.865,18.444 h 23.597 C -12.121,74.087 5.078,42.121 20.028,9.334 13.896,5.051 7.588,1.151 0,0" style="fill:#f6ebf1;fill-opacity:1;fill-rule:nonzero;stroke:none" transform="matrix(1.3333333,0,0,-1.3333333,1128.8285,152.7192)" />
      <path id="path14" d="M 0,0 C -13.121,28.214 -26.242,56.428 -39.362,84.642 H -7.9 C -13.069,67.89 -1.845,55.149 5.354,43.204 14.323,28.321 21.223,13.034 27.055,-3.04 18.028,-2.03 9.014,-1.015 0,0" style="fill:#f6ebf1;fill-opacity:1;fill-rule:nonzero;stroke:none" transform="matrix(1.3333333,0,0,-1.3333333,1284.7535,118.09973)" />
      <path id="path15" d="m 0,0 c -5.963,23.276 -22.892,40.648 -33.208,61.589 -3.164,6.422 -6.993,12.516 -10.517,18.761 h 27.529 C -15.238,66.688 -4.825,57.816 1.091,46.692 9.72,30.469 19.349,14.779 28.569,-1.123 18.917,-4.389 9.37,-4.467 0,0" style="fill:#f6ebf1;fill-opacity:1;fill-rule:nonzero;stroke:none" transform="matrix(1.3333333,0,0,-1.3333333,1615.6799,112.3768)" />
      <path id="path16" d="M 0,0 C -0.581,-8.93 3.802,-16.865 7.708,-23.811 18.769,-43.485 23.012,-65.541 31.724,-85.956 25.001,-87.451 18.279,-88.947 11.557,-90.442 -2.074,-61.038 -13.121,-30.63 -23.597,0 Z" style="fill:#f6ebf1;fill-opacity:1;fill-rule:nonzero;stroke:none" transform="matrix(1.3333333,0,0,-1.3333333,1483.9677,5.2436)" />
      <path id="path17" d="m 0,0 c 14.045,-60.969 27.558,-122.067 42.275,-182.873 17.183,-70.999 34.28,-142.237 58.538,-211.085 33.711,-95.679 60.169,-193.586 92.86,-289.53 1.251,-3.671 1.793,-7.584 2.665,-11.385 -16.74,-1.619 -27.812,11.13 -39.845,18.423 -62.402,37.821 -116.354,85.023 -153.934,148.992 -35.521,60.466 -57.542,125.144 -67.147,194.746 -7.053,51.103 -17.926,101.733 -12.492,153.709 2.36,22.562 6.708,45.17 20.167,63.933 12.812,17.862 16.741,38.718 23.101,58.684 C -26.898,-34.677 -14.259,-16.995 0,0" style="fill:#211f1e;fill-opacity:1;fill-rule:nonzero;stroke:none" transform="matrix(1.3333333,0,0,-1.3333333,1668.9092,2645.2779)" />
      <path id="path18" d="m 0,0 c 7.689,15.015 14.167,28.278 23.864,39.774 4.205,4.985 8.032,6.115 13.367,4.713 6.068,-1.595 4.972,-6.911 4.981,-11.303 0.08,-36.004 0.039,-72.007 0.083,-108.011 0.008,-6.495 -1.21,-12.165 -9.3,-11.928 -9.65,0.281 -6.678,7.779 -6.71,13.104 -0.114,18.984 0.077,37.968 0.047,56.952 -0.006,3.985 -0.477,8.18 -5.213,9.397 -3.528,0.907 -5.611,-1.331 -7.949,-4.059 -18.663,-21.778 -18.718,-21.691 -30.827,4.741 -1.509,3.294 -1.254,7.931 -7.33,9.312 -2.758,-24.097 0.388,-47.865 0.676,-71.63 0.076,-6.203 4.963,-15.838 -7.09,-16.613 -11.368,-0.732 -9.585,8.445 -9.678,15.263 -0.462,34.035 -0.747,68.074 -0.88,102.112 -0.019,4.853 -1.765,11.21 5.571,12.817 6.498,1.424 10.909,-1.24 14.409,-7.226 C -15.132,25.709 -11.386,12.168 0,0" style="fill:#f6ebf1;fill-opacity:1;fill-rule:nonzero;stroke:none" transform="matrix(1.3333333,0,0,-1.3333333,239.19987,3595.2319)" />
      <path id="path19" d="m 0,0 c 0,-20.917 0.303,-41.842 -0.201,-62.747 -0.136,-5.644 2.328,-14.556 -8.267,-14.34 -10.598,0.216 -7.616,8.948 -7.769,14.694 -0.892,33.389 -1.421,66.789 -1.885,100.188 -0.109,7.825 -0.72,17.355 10.007,18.172 C 1.347,56.687 4.491,47.531 6.048,40.563 9.423,25.469 20.796,13.678 21.772,-2.54 c 8.453,14.227 3.406,29.069 4.968,43.256 0.653,5.937 -2.32,14.537 8.195,14.429 10.393,-0.106 7.952,-8.609 7.994,-14.583 0.248,-34.721 0.251,-69.445 0.143,-104.167 -0.015,-4.799 2.042,-11.253 -5.679,-12.503 -7.496,-1.213 -9.989,3.773 -12.058,9.938 C 17.888,-43.977 10.058,-21.911 2.373,0.203 1.582,0.135 0.791,0.068 0,0" style="fill:#f6ebf1;fill-opacity:1;fill-rule:nonzero;stroke:none" transform="matrix(1.3333333,0,0,-1.3333333,457.33413,3609.4268)" />
      <path id="path20" d="m 0,0 c -1.374,4.651 -0.591,11.305 -7.419,11.627 -7.239,0.342 -7.064,-6.254 -7.322,-11.049 -0.263,-4.866 -0.66,-11.234 6.562,-11.428 C -1.416,-11.033 -0.933,-5.054 0,0 m 1.751,-57.189 c -1.682,8.264 1.807,22.873 -9.793,23.427 -11.304,0.539 -11.164,-13.79 -11.341,-23.125 -0.189,-9.983 -1.197,-24.973 11.143,-25.077 11.891,-0.099 8.544,14.79 9.991,24.775 M -11.293,29.838 C 8.936,29.621 20.876,13.208 15.963,-6.07 c -3.342,-13.109 -2.732,-24.648 0.471,-37.856 3.746,-15.442 4.107,-32.262 -6.076,-47.037 -10.239,-14.857 -23.742,-15.651 -35.664,-1.62 -6.677,7.858 -9.237,17.658 -9.743,27.117 -1.354,25.287 8.388,49.793 4.666,75.84 -1.433,10.029 8.529,20.087 19.09,19.464" style="fill:#f6ebf1;fill-opacity:1;fill-rule:nonzero;stroke:none" transform="matrix(1.3333333,0,0,-1.3333333,322.95187,3326.0981)" />
      <path id="path21" d="m 0,0 c 0,-16.319 0.006,-32.639 -0.003,-48.958 -0.004,-5.408 -0.083,-10.668 -7.599,-11.076 -7.958,-0.432 -7.769,5.169 -7.954,10.437 -0.616,17.621 -1.053,35.248 -1.78,52.864 -0.181,4.386 0.159,10.079 -5.886,10.736 -7.119,0.774 -8.252,-4.74 -8.644,-10.32 -1.144,-16.281 -2.195,-32.57 -3.53,-48.835 -0.564,-6.864 0.661,-15.498 -10.639,-14.677 -11.32,0.823 -6.812,9.186 -6.366,14.755 2.373,29.674 3.236,59.498 8.68,88.885 2.505,13.52 6.586,28.035 22.48,27.275 C -6.37,70.375 -3.079,56.388 -3.003,43.056 -2.921,28.706 -2.984,14.354 -2.984,0.004 -1.989,0.002 -0.995,0.001 0,0" style="fill:#f6ebf1;fill-opacity:1;fill-rule:nonzero;stroke:none" transform="matrix(1.3333333,0,0,-1.3333333,1184.6761,3878.8024)" />
      <path id="path22" d="m 0,0 c 0,-15.008 0.117,-30.017 -0.067,-45.023 -0.06,-4.92 1.3,-11.298 -6.496,-11.875 -9.017,-0.668 -8.343,6.258 -8.623,12.036 -0.791,16.297 -1.358,32.604 -2.213,48.897 -0.216,4.119 1.609,9.612 -5.856,9.932 -7.381,0.317 -8.33,-4.147 -8.691,-9.906 -1.022,-16.278 -2.398,-32.534 -3.42,-48.811 -0.457,-7.278 -2.053,-13.005 -11.204,-12.068 -9.83,1.006 -6.351,8.057 -5.839,13.32 3.137,32.227 6.77,64.408 9.638,96.658 1.249,14.04 9.773,18.233 21.942,19.576 C -6.913,74.271 -4.384,64.767 -3.598,54.711 -2.175,36.513 -1.697,18.242 -0.824,0.001 -0.549,0.001 -0.275,0 0,0" style="fill:#f6ebf1;fill-opacity:1;fill-rule:nonzero;stroke:none" transform="matrix(1.3333333,0,0,-1.3333333,350.62253,3882.9297)" />
      <path id="path23" d="m 0,0 c 13.158,5.872 8.915,17.463 9.735,26.821 0.334,3.812 6.629,11.187 -3.55,11.184 C 0.159,38.003 -2.427,33.025 -1.886,27.044 -1.1,18.357 -3.859,9.392 0,0 m -1.572,-27.318 c 0,-12.796 -0.513,-25.62 0.179,-38.378 0.468,-8.626 -5.064,-13.324 -11.059,-13.174 -6.226,0.156 -4.924,8.062 -4.979,13.025 -0.364,33.353 -0.686,66.71 -0.658,100.064 0.008,9.575 -4.374,21.444 14.263,20.266 15.836,-1.001 30.704,0.853 33.133,-20.594 1.168,-10.315 -1.711,-20.36 -6.372,-28.098 -10.19,-16.916 -5.099,-32.442 -0.025,-48.546 1.554,-4.934 5.181,-9.63 5.295,-14.495 0.139,-5.914 10.994,-13.473 -1.098,-17.892 C 16.52,-79.01 16.714,-68.396 13.815,-63.099 7.759,-52.034 3.708,-40.1 -1.572,-27.318" style="fill:#f6ebf1;fill-opacity:1;fill-rule:nonzero;stroke:none" transform="matrix(1.3333333,0,0,-1.3333333,664.20293,3608.5191)" />
      <path id="path24" d="m 0,0 c -0.822,11.219 -1.807,21.485 -5.384,31.542 -1.828,5.136 -3.644,7.135 -9.262,7.527 -6.131,0.429 -8.08,-2.624 -9.661,-7.233 -7.943,-23.143 -7.8,-46.184 0.788,-69.142 1.696,-4.534 3.812,-8.363 9.627,-7.972 5.942,0.399 6.62,5.005 8.35,9.334 C -0.797,-24.074 -1.611,-11.497 0,0 M 16.667,-2.692 C 15.759,-20.437 14.009,-38.081 4.74,-53.723 -5.689,-71.324 -22.634,-71.454 -34.213,-54.499 -50.847,-30.141 -51.148,27.009 -34.766,50.503 -24.463,65.28 -3.161,64.511 5.546,48.506 14.168,32.659 16.773,15.213 16.667,-2.692" style="fill:#f6ebf1;fill-opacity:1;fill-rule:nonzero;stroke:none" transform="matrix(1.3333333,0,0,-1.3333333,386.29213,3620.5815)" />
      <path id="path25" d="m 0,0 c 11.211,13.546 11.085,26.028 11.437,37.918 0.639,21.596 0.145,43.224 0.299,64.838 0.035,4.923 -1.547,11.485 6.543,11.664 7.076,0.157 8.182,-5.368 8.531,-10.844 1.956,-30.717 4.274,-61.457 -2.636,-91.917 -2.939,-12.96 -5.351,-27.581 -23.24,-25.815 -17.039,1.682 -21.592,16.973 -22.362,29.967 -1.7,28.681 -0.37,57.541 -0.33,86.329 0.009,6.412 0.829,12.357 9.218,11.695 7.873,-0.621 6.214,-7.101 6.251,-12.019 C -6.104,77.591 -6.56,53.35 -5.794,29.147 -5.52,20.463 -2.459,11.867 0,0" style="fill:#f6ebf1;fill-opacity:1;fill-rule:nonzero;stroke:none" transform="matrix(1.3333333,0,0,-1.3333333,847.89427,3688.7661)" />
      <path id="path26" d="m 0,0 c 5.533,6.307 7.303,14.04 9.022,21.452 1.792,7.732 6.428,9.426 12.893,8.013 8.788,-1.922 4.817,-9.106 2.958,-12.46 -19.392,-34.978 -10.606,-67.653 6.804,-100.019 3.839,-7.135 6.625,-15.249 -4.704,-18.678 -9.3,-2.816 -9.076,5.704 -11.277,10.751 -4.1,9.406 -7.803,18.986 -12.372,30.214 -7.986,-10.961 -7.437,-22.436 -10.686,-32.65 -1.499,-4.709 -2.472,-10.991 -10.284,-8.161 -6.046,2.19 -7.681,6.104 -5.66,12.284 1.615,4.936 1.724,10.385 3.484,15.251 9.845,27.212 13.047,54.128 -1.507,80.923 -2.131,3.924 -3.26,8.65 -3.755,13.126 -0.403,3.635 -0.231,8.197 5.011,9.071 4.8,0.799 8.375,0.366 10.38,-5.699 C -7.093,15.555 -6.271,6.741 0,0" style="fill:#f6ebf1;fill-opacity:1;fill-rule:nonzero;stroke:none" transform="matrix(1.3333333,0,0,-1.3333333,946.57253,3574.884)" />
      <path id="path27" d="m 0,0 c 3.001,19.331 5.917,38.675 9.052,57.984 0.999,6.155 0.215,14.484 9.704,14.199 10.867,-0.326 7.4,-8.952 6.571,-14.661 C 20.14,21.759 14.51,-13.94 9.045,-49.663 8.44,-53.62 7.899,-57.436 2.724,-58.052 c -5.837,-0.696 -9.612,1.006 -12.335,6.812 -6.343,13.53 -8.263,28.602 -11.374,42.583 -4.899,22.018 -10.863,43.979 -14.432,66.357 -0.759,4.755 -5.155,10.393 2.88,12.834 8.202,2.491 11.703,-1.834 13.515,-9.481 C -14.149,40.491 -8.796,20.042 -3.634,-0.452 -2.423,-0.301 -1.211,-0.15 0,0" style="fill:#f6ebf1;fill-opacity:1;fill-rule:nonzero;stroke:none" transform="matrix(1.3333333,0,0,-1.3333333,1062.8913,3880.8732)" />
      <path id="path28" d="M 0,0 C 0,16.35 -0.237,32.706 0.127,49.048 0.256,54.879 -2.947,64.107 7.382,63.947 18.72,63.772 32.993,70.503 40.82,60.964 49.084,50.893 35.573,48.758 29.427,47.153 22.416,45.322 13.382,49.538 15.12,35.792 16.33,26.226 14.956,17.081 29.256,18.475 32.825,18.823 40.265,18.195 38.085,11.57 36.512,6.789 36.949,-0.651 28.744,-1.715 3.933,-4.934 19.557,-23.986 16.542,-35.358 c -3.369,-12.706 7.47,-12.264 16.276,-12.016 8.345,0.236 11.69,-6.157 7.83,-11.31 -7.78,-10.387 -20.354,-5.001 -30.967,-5.674 -9.751,-0.618 -9.535,6.58 -9.527,13.344 C 0.174,-34.009 0.161,-17.005 0.161,0 0.107,0 0.054,0 0,0" style="fill:#f6ebf1;fill-opacity:1;fill-rule:nonzero;stroke:none" transform="matrix(1.3333333,0,0,-1.3333333,700.69747,3872.3499)" />
      <path id="path29" d="m 0,0 c 15.584,29.309 20.534,58.111 28.671,85.82 1.253,4.268 2.319,8.507 4.424,12.372 5.494,10.093 1,12.271 -8.563,12.011 -8.669,-0.236 -22.38,-2.496 -22.194,8.666 0.213,12.794 14.519,9.535 23.768,9.803 34.241,0.992 34.206,0.874 24.032,-32.095 C 43.612,75.428 37.631,54.101 30.604,33.122 26.733,21.563 26.823,14.404 41.94,16.418 50.531,17.563 59.754,15.252 59.518,6.148 59.329,-1.151 49.349,0.189 43.085,0.076 29.532,-0.17 15.972,0 0,0" style="fill:#f6ebf1;fill-opacity:1;fill-rule:nonzero;stroke:none" transform="matrix(1.3333333,0,0,-1.3333333,366.8724,3958.5551)" />
      <path id="path30" d="m 0,0 c 0.029,15.711 0.853,31.478 -0.22,47.115 -0.939,13.695 3.719,19.558 17.543,17.702 3.21,-0.43 6.755,0.76 9.765,-0.11 C 33.57,62.831 45.42,70.52 45.617,57.746 45.781,47.087 34.705,51.143 28.447,50.605 19.398,49.827 13.254,48.076 14.417,36.969 15.355,28.016 12.961,17.546 27.65,18.504 33.752,18.901 39.607,18.512 39.306,9.556 39.011,0.78 33.415,0.496 27.191,1.183 17.19,2.285 14.64,-3.153 14.992,-11.75 c 0.242,-5.882 0.779,-11.864 0.03,-17.653 -1.742,-13.464 2.498,-19.621 17.091,-17.417 5.437,0.82 14.353,3.562 13.99,-7.716 -0.303,-9.426 -6.272,-12.044 -14.592,-11.53 -1.305,0.08 -2.618,0.074 -3.927,0.05 -27.94,-0.517 -27.937,-0.519 -27.614,26.744 0.031,2.618 0.002,5.237 10e-4,7.855 0,10.473 0,20.945 0.029,31.417" style="fill:#f6ebf1;fill-opacity:1;fill-rule:nonzero;stroke:none" transform="matrix(1.3333333,0,0,-1.3333333,729.98813,3624.6809)" />
      <path id="path31" d="m 0,0 c 0,-16.307 0.074,-32.615 -0.035,-48.921 -0.046,-6.732 2.817,-16.177 -8.6,-15.646 -10.297,0.478 -8.7,9.452 -8.74,16.457 -0.083,14.351 -0.742,28.751 0.196,43.042 0.834,12.704 -1.726,20.441 -16.561,17.946 -11.962,-2.012 -16.619,3.201 -15.732,15.165 0.674,9.077 -0.079,18.254 -0.012,27.386 0.039,5.322 0.12,10.552 7.881,10.66 7.353,0.102 8.573,-4.255 8.571,-10.046 -0.001,-6.523 -0.059,-13.047 0.068,-19.567 0.089,-4.534 2.291,-7.17 7.108,-7.431 5.658,-0.306 8.59,2.174 8.633,7.866 0.044,5.87 0.026,11.74 0.01,17.61 -0.016,6.268 0.482,12.058 9.082,11.674 8.062,-0.36 6.849,-6.453 6.889,-11.404 C -1.094,36.528 -1.183,18.264 -1.183,0.001 -0.789,0 -0.394,0 0,0" style="fill:#f6ebf1;fill-opacity:1;fill-rule:nonzero;stroke:none" transform="matrix(1.3333333,0,0,-1.3333333,248.9784,3376.7115)" />
      <path id="path32" d="m 0,0 c 10.292,33.786 19.003,66.436 30.415,98.115 5.59,15.517 0.141,16.556 -12.129,15.092 -3.217,-0.383 -6.521,-0.168 -9.778,-0.05 -4.322,0.157 -7.559,1.602 -7.62,6.753 -0.056,4.704 2.192,7.582 6.778,7.776 13.032,0.554 26.077,0.901 39.12,1.112 10.314,0.166 7.353,-6.356 5.677,-11.97 C 43.904,88.168 36.207,59.202 26.314,31.008 21.383,16.954 26.016,14.834 38.011,16.009 c 3.214,0.315 6.6,0.263 9.74,-0.403 4.589,-0.975 9.416,-3.114 9.127,-8.538 C 56.584,1.562 51.495,0.149 46.861,0.081 31.96,-0.137 17.053,0 0,0" style="fill:#f6ebf1;fill-opacity:1;fill-rule:nonzero;stroke:none" transform="matrix(1.3333333,0,0,-1.3333333,466.644,3958.0632)" />
      <path id="path33" d="m 0,0 c 0,-14.37 -0.215,-28.744 0.087,-43.107 0.161,-7.693 -0.681,-16.435 -9.289,-16.401 -7.755,0.03 -7.496,9.116 -7.526,15.583 -0.131,28.741 -0.382,57.485 -0.086,86.223 0.098,9.439 -0.138,17.185 -12.801,16.39 -6.41,-0.402 -10.036,3.416 -9.087,9.747 0.902,6.013 6.25,5.606 10.844,5.625 12.41,0.051 24.822,0.204 37.23,0.056 5.03,-0.059 11.068,0.824 11.842,-6.789 0.761,-7.485 -4.245,-8.614 -9.963,-8.515 C 0.1,59.004 -1.069,51.755 -0.971,43.111 -0.809,28.742 -0.927,14.371 -0.927,0 -0.618,0 -0.309,0 0,0" style="fill:#f6ebf1;fill-opacity:1;fill-rule:nonzero;stroke:none" transform="matrix(1.3333333,0,0,-1.3333333,589.8812,3634.0309)" />
      <path id="path34" d="m 0,0 c -2.357,16.378 -14.097,30.269 -19.483,46.806 -3.436,10.552 -7.692,20.785 -7.341,31.991 0.564,18.008 16.7,26.451 31.393,16.161 C 9.236,91.689 16.96,87.821 12.55,79.777 9.02,73.338 4.596,75.805 -1.792,78.158 -13.461,82.457 -12.563,74.624 -9.531,66.432 -2.169,46.534 10.463,28.812 15.078,7.854 18.204,-6.343 17.419,-19.808 2.179,-27.437 c -10.546,-5.278 -25.167,2.744 -27.187,14.078 -1.041,5.844 2.001,8.167 6.105,10.745 5.063,3.18 6.538,0.589 8.047,-3.801 1.027,-2.987 3.171,-6.398 7.032,-5.03 C 0.875,-9.782 -0.273,-5.124 0,0" style="fill:#f6ebf1;fill-opacity:1;fill-rule:nonzero;stroke:none" transform="matrix(1.3333333,0,0,-1.3333333,823.1316,3917.9631)" />
      <path id="path35" d="m 0,0 c -0.683,-13.587 -1.425,-27.171 -2.02,-40.762 -0.253,-5.79 -1.511,-10.259 -8.743,-10.118 -9.016,0.176 -5.73,6.381 -5.75,11.071 -0.121,28.069 0.31,56.16 -0.798,84.191 -0.283,7.18 -0.287,11.662 7.361,12.318 7.572,0.65 8.199,-4.796 7.573,-10.469 -0.951,-8.619 0.633,-14.661 10.652,-17.45 6.396,-1.78 9.55,-8.494 9.913,-15.608 0.896,-17.599 1.815,-35.197 2.684,-52.798 0.264,-5.338 0.615,-11.137 -6.905,-11.449 C 6.123,-51.399 6.632,-45.302 6.6,-40.098 6.518,-26.679 6.573,-13.26 6.573,0.159 4.382,0.106 2.191,0.053 0,0" style="fill:#f6ebf1;fill-opacity:1;fill-rule:nonzero;stroke:none" transform="matrix(1.3333333,0,0,-1.3333333,447.74747,3393.3052)" />
      <path id="path36" d="m 0,0 c 0,13.046 0.039,26.092 -0.009,39.137 -0.081,22.359 15.717,32.51 37.522,24.26 3.509,-1.328 5.58,-3.323 5.497,-6.953 C 42.857,49.745 37.616,49.506 33.189,50.116 15.742,52.517 14.611,42.408 15.121,28.971 15.51,18.717 20.974,17.369 28.969,17.234 34.608,17.139 37.037,13.594 36.637,8.163 36.288,3.43 33.228,1.002 28.824,1.332 14.58,2.397 15.434,-7.279 15.529,-16.66 c 0.1,-9.784 0.792,-19.645 -0.179,-29.332 -0.669,-6.67 5.222,-18.069 -7.121,-18.681 C -4.8,-65.319 0.4,-53.529 0.072,-46.959 -0.708,-31.341 -0.18,-15.657 -0.18,0 Z" style="fill:#f6ebf1;fill-opacity:1;fill-rule:nonzero;stroke:none" transform="matrix(1.3333333,0,0,-1.3333333,620.1732,3871.1029)" />
      <path id="path37" d="M 0,0 C 12.245,27.409 11.134,52.285 -1.405,68.784 -11.008,46.768 -7.844,25.944 0,0 M 20.659,32.587 C 20.363,27.708 20.318,23.14 19.769,18.632 18.261,6.257 17.078,-7.097 1.925,-10.267 c -8.896,-1.861 -24.4,19.046 -24.695,32.041 -0.336,14.82 -3.272,29.815 3.015,44.251 3.973,9.12 8.512,17.16 20.068,17.696 C 12.527,84.287 11.913,73.5 15.596,66.662 21.412,55.865 19.46,43.81 20.659,32.587" style="fill:#f6ebf1;fill-opacity:1;fill-rule:nonzero;stroke:none" transform="matrix(1.3333333,0,0,-1.3333333,797.17,4223.2651)" />
      <path id="path38" d="m 0,0 c 0,15.702 -0.411,31.42 0.203,47.098 0.245,6.255 -4.043,16.545 6.999,17.134 12.161,0.649 7.372,-10.247 7.514,-16.15 0.613,-25.501 0.761,-51.036 0.145,-76.536 -0.3,-12.417 1.766,-20.367 16.79,-18.755 5.882,0.631 14.291,2.267 14.082,-8.295 -0.199,-10.059 -8.426,-8.228 -14.464,-8.819 -30.893,-3.027 -31.339,-2.539 -31.348,28.993 -0.003,11.777 0,23.553 0,35.33 z" style="fill:#f6ebf1;fill-opacity:1;fill-rule:nonzero;stroke:none" transform="matrix(1.3333333,0,0,-1.3333333,1207.2159,3872.4673)" />
      <path id="path39" d="m 0,0 c 0,18.26 0.036,36.521 -0.021,54.781 -0.018,5.729 0.794,10.655 8.176,10.475 7.224,-0.176 5.273,-5.548 5.795,-9.879 4.458,-36.994 1.284,-74.193 3.236,-111.238 0.355,-6.729 -2.681,-7.628 -7.866,-7.865 -6.404,-0.293 -9.621,2.02 -9.534,8.943 0.231,18.259 0.078,36.522 0.078,54.783 z" style="fill:#f6ebf1;fill-opacity:1;fill-rule:nonzero;stroke:none" transform="matrix(1.3333333,0,0,-1.3333333,965.9952,3873.2259)" />
      <path id="path40" d="m 0,0 c 0,-16.305 0.532,-32.635 -0.207,-48.906 -0.418,-9.196 -3.589,-18.924 -13.282,-21.854 -10.073,-3.044 -20.759,-2.465 -29.268,5.877 -4.067,3.986 -7.033,9.333 -3.953,13.884 3.102,4.583 8.689,4.263 13.676,0.316 14.397,-11.393 17.53,-2.042 17.593,10.363 0.131,26.084 -0.693,52.176 -0.281,78.252 0.106,6.682 -4.864,18.047 7.308,18.726 C 4.871,57.398 -0.933,45.48 -0.445,39.113 0.55,26.144 -0.147,13.045 -0.147,0 -0.098,0 -0.049,0 0,0" style="fill:#f6ebf1;fill-opacity:1;fill-rule:nonzero;stroke:none" transform="matrix(1.3333333,0,0,-1.3333333,247.26253,3863.0159)" />
      <path id="path41" d="m 0,0 c 3.262,0 6.572,0.355 9.777,-0.075 6.364,-0.853 15.96,4.43 17.566,-6.484 1.587,-10.791 -7.986,-7.59 -13.684,-8.568 -9.684,-1.663 -7.699,-9.081 -7.616,-15.281 0.372,-28.063 1.203,-56.122 1.274,-84.185 0.016,-6.259 3.393,-16.611 -8.065,-16.249 -11.42,0.36 -6.944,10.688 -7.145,16.812 -0.917,28.051 -1.21,56.124 -1.499,84.192 -0.079,7.756 -0.362,14.566 -10.896,14.352 -5.24,-0.106 -11.222,0.091 -10.62,7.846 0.671,8.632 7.697,7.311 13.306,7.577 C -11.747,0.216 -5.868,0 0,0" style="fill:#f6ebf1;fill-opacity:1;fill-rule:nonzero;stroke:none" transform="matrix(1.3333333,0,0,-1.3333333,905.54947,3783.3404)" />
      <path id="path42" d="m 0,0 c -0.404,5.371 -3.139,8.335 -8.514,8.364 -5.118,0.028 -8.814,-2.154 -8.857,-7.721 -0.041,-5.369 3.368,-8.188 8.464,-8.365 C -3.802,-7.898 -0.502,-5.349 0,0 M 13.227,1.399 C 10.428,-23.824 1.736,-44.906 -3.91,-66.778 c -0.81,-3.135 -2.186,-6.455 -6.516,-5.376 -4.053,1.009 -4.406,4.186 -3.709,7.655 1.023,5.094 1.366,10.476 3.294,15.207 5.615,13.785 10.5,25.482 -10.207,32.382 -11.457,3.817 -11.727,17.02 -7.072,27.067 4.401,9.499 13.557,13.99 24.328,11.374 C 7.753,18.728 13.689,10.993 13.227,1.399" style="fill:#f6ebf1;fill-opacity:1;fill-rule:nonzero;stroke:none" transform="matrix(1.3333333,0,0,-1.3333333,384.38307,4138.1112)" />
      <path id="path43" d="m 0,0 c 8.514,21.461 5.397,43.099 6.821,64.453 0.288,4.315 -1.113,11.039 4.343,11.484 8.271,0.672 5.616,-7.188 5.705,-11.626 0.446,-22.254 0.412,-44.517 0.495,-66.777 0.022,-5.629 2.189,-12.861 -6.382,-13.945 -8.414,-1.065 -17.025,-1.683 -21.608,8.626 -6.414,14.426 -4.622,29.56 -4.84,44.523 -0.152,10.47 0.253,20.95 0.559,31.422 0.119,4.11 1.196,8.353 6.201,8.325 5.486,-0.032 5.25,-4.909 5.301,-8.648 C -3.144,48.861 -3.235,29.88 -2.826,10.909 -2.747,7.254 -0.985,3.636 0,0" style="fill:#f6ebf1;fill-opacity:1;fill-rule:nonzero;stroke:none" transform="matrix(1.3333333,0,0,-1.3333333,523.88947,4214.014)" />
      <path id="path44" d="m 0,0 c 0,-13.695 0.11,-27.39 -0.066,-41.083 -0.054,-4.162 -1.511,-7.901 -6.826,-7.307 -4.203,0.47 -4.807,4.074 -4.902,7.238 -0.293,9.781 -0.279,19.572 -0.29,29.359 -0.014,11.918 3.892,25.695 -16.998,23.81 -8.369,-0.755 -6.668,8.484 -6.178,13.762 0.682,7.344 -4.642,17.26 3.674,21.52 7.559,3.872 6.867,-4.327 7.672,-9.244 0.858,-5.237 -2.894,-14.118 5.408,-14.385 10.253,-0.329 5.695,9.445 6.696,15.067 0.785,4.403 -0.162,10.281 6.573,9.467 6.3,-0.761 4.929,-6.712 4.988,-11.008 C -0.078,24.799 -0.189,12.399 -0.189,0 -0.126,0 -0.063,0 0,0" style="fill:#f6ebf1;fill-opacity:1;fill-rule:nonzero;stroke:none" transform="matrix(1.3333333,0,0,-1.3333333,922.09933,4176.4657)" />
      <path id="path45" d="m 0,0 c -1.697,12.433 3.374,25.157 -5.756,37.515 -5.654,7.654 6.463,13.927 9.59,21.297 1.388,3.272 10.802,2.776 10.932,-2.12 0.217,-8.141 15.7,-11.635 4.679,-23.554 C 8.836,21.666 11.443,-18.333 21.294,-30.781 26.303,-37.109 27.26,-42.732 20.478,-46.955 13.472,-51.318 7.887,-47.254 4.523,-40.642 -2.052,-27.717 1.619,-13.546 0,0" style="fill:#f6ebf1;fill-opacity:1;fill-rule:nonzero;stroke:none" transform="matrix(1.3333333,0,0,-1.3333333,376.05293,3398.1164)" />
      <path id="path46" d="m 0,0 c 0,-13.095 0.112,-26.192 -0.064,-39.284 -0.058,-4.297 -1.942,-7.704 -7.048,-7.212 -4.275,0.412 -4.761,3.986 -4.874,7.223 -0.274,7.851 -0.199,15.713 -0.367,23.568 -0.222,10.362 5.706,23.89 -14.814,22.084 -7.094,-0.624 -12.67,33.164 -6.542,38.569 1.195,1.054 3.622,1.479 5.246,1.123 3.907,-0.859 4.156,-4.369 4.597,-7.642 0.813,-6.033 -2.755,-15.986 5.814,-16.365 10.064,-0.446 4.734,9.745 5.851,15.337 0.742,3.719 -0.173,8.487 5.137,9.075 6.82,0.755 6.851,-4.558 6.897,-9.156 C -0.044,24.881 -0.125,12.44 -0.125,0 -0.083,0 -0.042,0 0,0" style="fill:#f6ebf1;fill-opacity:1;fill-rule:nonzero;stroke:none" transform="matrix(1.3333333,0,0,-1.3333333,230.70427,4173.8621)" />
      <path id="path47" d="m 0,0 c -14.497,0.811 -21.958,4.417 -15.342,20.599 5.608,13.715 8.599,28.529 12.374,42.954 2.332,8.91 12.962,21.522 -8.927,20.921 -3.835,-0.105 -5.772,6.566 -1.027,8.543 7.176,2.991 15.855,3.139 22.644,-0.344 5.789,-2.97 5.253,-11.572 2.803,-16.002 C 4.752,62.616 6.314,46.504 0.977,32.024 -0.888,26.965 -4.488,20.174 3.747,17.114 9.551,14.957 17.972,16.213 15.514,6.036 13.114,-3.9 4.54,2.401 0,0" style="fill:#f6ebf1;fill-opacity:1;fill-rule:nonzero;stroke:none" transform="matrix(1.3333333,0,0,-1.3333333,728.08173,4241.5211)" />
      <path id="path48" d="m 0,0 c -6.401,-0.357 -7.068,3.649 -7.173,7.671 -0.271,10.42 -0.556,20.852 -0.358,31.27 0.309,16.295 0.455,32.3 -10.138,46.405 -1.747,2.326 -8.66,6.826 -1.751,11.021 4.452,2.702 9.156,1.311 11.364,-3.787 4.003,-9.244 6.549,-7.329 10.356,0.342 2.704,5.447 9.332,6.691 13.398,3.146 C 19.29,92.938 15.087,88.61 12.61,84.912 -1.725,63.512 6.027,39.48 4.845,16.486 4.54,10.561 7.578,3.214 0,0" style="fill:#f6ebf1;fill-opacity:1;fill-rule:nonzero;stroke:none" transform="matrix(1.3333333,0,0,-1.3333333,628.71533,4241.1917)" />
      <path id="path49" d="m 0,0 c 0,-12.339 1.088,-24.803 -0.305,-36.983 -1.402,-12.26 -12.567,-16.567 -21.091,-9.389 -5.053,4.255 -5.67,11.519 0.516,11.674 14.19,0.357 10.053,9.469 10.018,16.545 -0.087,17.542 -0.61,35.086 -1.173,52.621 -0.139,4.339 0.549,8.288 5.318,8.652 5.095,0.388 6.11,-4.043 6.169,-8.023 C -0.374,23.401 -0.486,11.7 -0.486,0 -0.324,0 -0.162,0 0,0" style="fill:#f6ebf1;fill-opacity:1;fill-rule:nonzero;stroke:none" transform="matrix(1.3333333,0,0,-1.3333333,485.99547,4169.9483)" />
      <path id="path50" d="m 0,0 c 0,-12.437 0.174,-24.878 -0.108,-37.309 -0.082,-3.645 0.042,-8.525 -5.244,-9.028 -5.523,-0.526 -6.175,4.175 -6.218,7.962 -0.299,26.846 -0.377,53.694 -0.419,80.542 -0.006,3.428 1.247,6.713 5.217,7.054 5.816,0.5 5.833,-4.21 5.885,-7.961 C -0.694,27.509 -0.81,13.754 -0.81,0 Z" style="fill:#f6ebf1;fill-opacity:1;fill-rule:nonzero;stroke:none" transform="matrix(1.3333333,0,0,-1.3333333,331.92707,4178.4475)" />
      <path id="path51" d="m 0,0 c 0,12.393 -0.122,24.788 0.074,37.178 0.059,3.746 0.199,8.645 5.823,7.858 3.859,-0.539 3.892,-4.666 3.912,-7.825 0.123,-19.568 -0.045,-39.139 0.286,-58.703 0.081,-4.765 -2.341,-10.905 4.194,-13.694 4.168,-1.778 12.273,0.667 9.91,-7.896 -1.905,-6.901 -8.769,-3.473 -13.497,-4.05 -7.202,-0.88 -10.957,2.41 -10.88,9.954 0.125,12.391 0.033,24.785 0.033,37.178 z" style="fill:#f6ebf1;fill-opacity:1;fill-rule:nonzero;stroke:none" transform="matrix(1.3333333,0,0,-1.3333333,564.80147,4173.286)" />
      <path id="path52" d="m 0,0 c 0,-12.432 0.14,-24.866 -0.087,-37.294 -0.066,-3.653 0.246,-8.391 -5.416,-8.562 -4.631,-0.14 -4.921,3.901 -4.94,6.891 -0.165,25.519 -0.151,51.04 0.027,76.559 0.021,2.995 0.247,7.023 4.933,6.83 4.487,-0.185 4.656,-4.092 4.709,-7.132 C -0.56,24.865 -0.685,12.432 -0.685,0.001 -0.457,0 -0.228,0 0,0" style="fill:#f6ebf1;fill-opacity:1;fill-rule:nonzero;stroke:none" transform="matrix(1.3333333,0,0,-1.3333333,856.89827,4171.6525)" />
      <path id="path53" d="M 0,0 C 12.347,7.777 22.109,5.268 31.404,5.373 34.576,5.409 38.147,4.476 37.689,0.02 37.375,-3.041 34.646,-3.959 32.077,-4.021 22.579,-4.251 12.872,-5.935 0,0" style="fill:#f6ebf1;fill-opacity:1;fill-rule:nonzero;stroke:none" transform="matrix(1.3333333,0,0,-1.3333333,243.2856,4185.3145)" />
      <path id="path54" d="m 0,0 c 6.722,1.495 13.444,2.991 20.167,4.486 22.238,3.223 45.358,-4.109 67.057,5.606 9.373,-4.467 18.92,-4.389 28.572,-1.123 15.584,-9.581 34.017,-6.632 50.97,-11.377 43.833,-12.27 85.995,-28.722 128.481,-44.55 31.995,-11.919 64.483,-22.054 98.088,-28.883 40.591,-8.249 80.89,-17.972 121.211,-27.502 37.834,-8.943 76.034,-16.826 113.151,-28.185 38.935,-11.915 76.806,-27.324 115.087,-41.356 74.597,-27.345 148.997,-55.261 225.803,-76.052 46.938,-12.707 94.442,-22.682 142.161,-32.079 50.832,-10.009 101.156,-22.688 150.87,-37.507 0.314,-53.012 0.895,-106.025 0.882,-159.037 -0.022,-93.621 -0.405,-187.243 -0.637,-280.864 -36.458,14.545 -67.179,38.903 -100.302,59.098 -35.719,21.779 -71.29,44.465 -110.983,57.454 -51.381,16.812 -98.809,37.688 -139.011,75.882 -36.993,35.147 -82.578,57.595 -133.326,67.866 -27.779,5.623 -55.728,10.567 -83.246,17.274 -47.999,11.701 -96.391,17.534 -145.753,13.413 -18.123,-1.513 -34.684,-8.209 -49.467,-18.286 -31.236,-21.292 -50.349,-53.337 -71.107,-83.613 -27.423,-39.997 -63.11,-71.095 -102.187,-98.86 -6.14,-4.157 -12.28,-8.313 -18.422,-12.472 -17.366,-11.344 -34.731,-22.687 -52.096,-34.03 -5.656,-4.508 -11.313,-9.015 -16.969,-13.523 -38.333,-25.77 -70.381,-59.108 -106.05,-88.084 -8.728,-1.462 -15.137,-6.557 -20.587,-13.154 -20.583,-7.235 -40.652,-17.285 -63.591,-11.578 -7.778,3.896 -15.964,6.277 -24.688,6.67 -3.87,7.322 -12.337,5.233 -18.334,8.819 -20.421,12.212 -26.003,24.756 -17.539,46.374 4.148,10.593 8.838,20.973 13.293,31.448 5.405,6.691 10.799,13.384 16.194,20.077 20.787,15.198 41.574,30.395 62.361,45.593 6.009,4.37 13.9,6.73 16.14,15.122 33.688,20.472 63.403,45.147 86.637,77.551 8.123,11.329 11.863,22.365 4.335,33.723 -8.28,12.491 -21.449,8.765 -33.508,5.726 -29.002,-7.31 -55.381,-20.682 -81.26,-35.218 -6.125,-3.464 -12.244,-6.925 -18.364,-10.387 -22.556,-11.253 -43.098,-25.524 -62.403,-41.647 -7.481,-2.649 -14.593,-5.914 -20.012,-12.003 -30.835,-15.315 -63.807,-24.091 -97.144,-31.75 -8.601,2.967 -17.465,3.902 -26.51,3.442 -35.638,6.204 -58.611,25.202 -67.482,61.732 -5.013,20.647 4.32,36.003 13.245,51.762 3.942,6.958 11.054,12.185 12.818,20.715 8.831,-1.144 13.86,6.039 20.631,9.398 29.945,16.608 62.767,26.421 94.059,39.849 7.958,1.525 16.577,1.544 21.691,9.536 25.422,3.325 48.114,14.791 71.567,24.005 6.418,2.308 12.83,4.615 19.242,6.922 18.722,6.658 35.962,14.982 48.032,32.175 9.408,13.401 5.498,22.01 -7.636,27.536 -19.008,7.997 -38.399,4.565 -57.549,-0.509 -7.678,1.921 -14.172,-2.429 -21.191,-4.003 -25.776,-7.392 -50.626,-16.981 -73.604,-31.013 -6.112,-2.613 -12.224,-5.225 -18.336,-7.838 -3.78,-2.274 -7.278,-4.86 -11.271,-6.973 -25.335,-13.408 -54.531,-17.653 -78.727,-33.561 -8.373,4.99 -15.445,-0.873 -22.995,-2.755 -27.909,-4.167 -55.811,-7.136 -83.147,3.076 -50.112,18.72 -67.824,58.746 -45.71,114.19 13.74,34.449 41.567,52.743 71.611,69.504 6.674,2.596 13.398,5.164 20.122,7.732 27.857,9.098 55.893,17.547 84.692,23.209 7.572,3.002 16.553,0.896 23.419,6.458 27.653,3.734 55.306,7.467 82.964,11.202 6.157,1.257 12.309,2.511 18.461,3.766 17.456,1.831 34.091,6.672 49.831,14.318 5.212,2.532 14.401,0.985 13.728,10.578 -0.557,7.963 -7.1,12.336 -13.15,15.646 -23.755,13 -48.463,23.837 -74.995,29.995 -8.152,2.63 -16.303,5.26 -24.455,7.889 -8.634,2.268 -17.164,5.111 -25.922,6.69 -22.84,4.119 -45.773,7.458 -68.312,-1.805 -8.703,0.577 -15.888,-2.366 -21.405,-9.191 -25.65,-7.734 -45.439,-26.746 -70.08,-36.423 -7.031,-1.935 -14.063,-3.871 -21.094,-5.807 -9.739,0.199 -19.477,0.406 -29.215,0.595 -28.17,0.545 -47.534,23.069 -51.818,48.159 -5.922,34.687 -1.314,66.9 23.397,94.172 2.886,3.185 4.117,7.871 6.117,11.862 10.458,-3.07 15.968,5.211 22.994,10.025 13.201,10.552 31.128,12.687 43.603,24.513 7.583,1.152 13.89,5.051 20.022,9.335 30.935,13.507 63.539,17.281 96.908,16.637 9.022,-1.022 18.036,-2.037 27.063,-3.047 29.012,-8.005 56.941,-18.822 83.023,-33.808 7.63,-4.384 11.166,-5.832 15.309,3.93 C -29.092,-11.829 -15.694,-4.032 0,0" style="fill:#211f1e;fill-opacity:1;fill-rule:nonzero;stroke:none" transform="matrix(1.3333333,0,0,-1.3333333,1499.3773,125.8332)" clip-path="url(#clipPath55)" />
      <path id="path56" d="m 0,0 c 9.045,0.46 17.91,-0.475 26.51,-3.442 1.394,-7.651 2.314,-15.425 4.257,-22.934 16.96,-65.515 34.103,-130.983 51.191,-196.464 -7.651,0.26 -15.301,0.52 -22.951,0.78 C 46.953,-174.875 35.14,-127.625 22.748,-80.528 15.651,-53.557 7.614,-26.834 0,0" style="fill:#f6ebf1;fill-opacity:1;fill-rule:nonzero;stroke:none" transform="matrix(1.3333333,0,0,-1.3333333,1296.6625,1029.1616)" />
      <path id="path57" d="m 0,0 c -6.724,-2.568 -13.447,-5.136 -20.121,-7.732 -8.702,28.066 -17.452,56.161 -26.2,84.257 7.035,1.936 14.066,3.872 21.091,5.809 C -16.824,54.89 -8.412,27.445 0,0" style="fill:#f6ebf1;fill-opacity:1;fill-rule:nonzero;stroke:none" transform="matrix(1.3333333,0,0,-1.3333333,1170.4888,507.188)" />
      <path id="path58" d="m 0,0 c -6.771,-3.359 -11.8,-10.542 -20.631,-9.398 -5.365,20.923 -10.723,41.847 -16.084,62.77 7.547,1.88 14.619,7.744 22.976,2.785 C -9.17,37.46 -4.585,18.73 0,0" style="fill:#f6ebf1;fill-opacity:1;fill-rule:nonzero;stroke:none" transform="matrix(1.3333333,0,0,-1.3333333,1268.9452,837.68467)" />
      <path id="path59" d="m 0,0 c 35.67,28.977 67.719,62.314 106.051,88.085 18.622,-96.815 38.546,-193.34 60.255,-289.533 17.298,-76.651 39.48,-151.899 65.07,-225.917 12.97,-37.515 27.102,-74.754 35.472,-113.331 16.473,-75.92 33.669,-151.693 46.114,-228.537 8.231,-50.824 24.296,-100.337 35.152,-150.803 3.656,-16.995 11.785,-33.135 10.893,-51.089 -38.235,6.755 -76.762,6.097 -115.325,4.546 -19.082,49.087 -30.836,100.429 -46.193,150.661 -9.853,32.231 -18.442,64.848 -27.598,97.292 23.02,68.122 -0.765,124.838 -43.694,176.5 -4.434,5.336 -7.705,10.023 -7.846,16.803 -7.793,28.705 -15.587,57.41 -23.381,86.116 5.185,2.583 10.158,5.794 15.595,7.631 15.099,5.101 20.976,15.426 21.044,31.087 0.181,41.359 -12.697,77.792 -36.517,111.563 -16.775,23.783 -32.598,48.069 -54.015,68.032 2.668,9.874 -1.134,19.106 -2.991,28.514 C 25.426,-128.246 12.703,-64.125 0,0" style="fill:#de0f6d;fill-opacity:1;fill-rule:nonzero;stroke:none" transform="matrix(1.3333333,0,0,-1.3333333,1676.6341,1214.2397)" />
      <path id="path60" d="m 0,0 c -17.088,65.481 -34.231,130.949 -51.191,196.464 -1.943,7.509 -2.863,15.283 -4.257,22.934 33.337,7.66 66.309,16.435 97.145,31.752 C 51.654,218.305 61.61,185.458 71.565,152.613 67.121,142.136 62.431,131.756 58.284,121.164 49.819,99.545 55.401,87.001 75.822,74.79 81.819,71.204 90.286,73.292 94.156,65.97 102.278,31.527 113.894,-2.082 118.805,-37.292 89.654,-25.794 61.597,-11.615 30.527,-4.887 20.335,-2.68 10.194,-1.49 0,0" style="fill:#de0f6d;fill-opacity:1;fill-rule:nonzero;stroke:none" transform="matrix(1.3333333,0,0,-1.3333333,1405.9397,1326.2817)" />
      <path id="path61" d="m 0,0 c -3.207,-15.559 0.212,-31.145 2.765,-46.01 8.546,-49.754 19.338,-99.122 29.211,-148.649 4.527,-22.712 8.818,-45.47 13.419,-68.167 1.804,-8.903 4.854,-17.619 2.877,-26.906 -26.601,-15.184 -53.202,-30.368 -79.803,-45.552 -11.163,37.123 -13.15,75.949 -21.073,113.671 11.955,10.245 27.387,15.748 37.803,28.137 23.908,28.437 20.503,61.551 11.655,92.823 -17.477,61.768 -52.944,112.345 -105.14,150.538 -2.238,34.587 -15.356,67.026 -20.028,101.139 C -86.543,120.783 -59.27,78.16 -30.273,36.906 -21.149,23.925 -10.144,12.265 0,0" style="fill:#de0f6d;fill-opacity:1;fill-rule:nonzero;stroke:none" transform="matrix(1.3333333,0,0,-1.3333333,1739.6608,2169.6276)" />
      <path id="path62" d="m 0,0 c 19.807,-68.709 39.595,-137.423 59.443,-206.12 2.518,-8.716 6.021,-17.219 4.792,-26.595 -32.381,-4.863 -63.329,-14.921 -94.01,-25.942 -17.149,77.674 -37.765,154.608 -49.914,233.346 -1.285,8.33 -1.631,16.805 -2.411,25.212 C -54.721,-9.362 -27.342,-19.583 0,0" style="fill:#de0f6d;fill-opacity:1;fill-rule:nonzero;stroke:none" transform="matrix(1.3333333,0,0,-1.3333333,1881.2077,2198.6971)" />
      <path id="path63" d="M 0,0 C 22.939,-5.707 43.009,4.343 63.594,11.591 77.6,-48.368 90.533,-108.553 99.939,-169.448 75.501,-151.125 51.063,-132.802 26.621,-114.479 20.873,-75.592 7.951,-38.374 0,0" style="fill:#de0f6d;fill-opacity:1;fill-rule:nonzero;stroke:none" transform="matrix(1.3333333,0,0,-1.3333333,1564.398,1247.2149)" />
      <path id="path64" d="m 0,0 c -36.35,22.797 -66.392,52.342 -90.693,87.436 -6.732,9.721 -4.612,20.93 4.403,30.228 8.558,8.827 17.273,9.576 28.046,4.281 13.191,-6.483 25.747,-13.778 37.136,-23.061 0.434,-5.137 -0.145,-10.62 1.471,-15.353 C -10.346,56.308 -5.34,28.124 0,0" style="fill:#de0f6d;fill-opacity:1;fill-rule:nonzero;stroke:none" transform="matrix(1.3333333,0,0,-1.3333333,1560.1384,2071.0888)" />
      <path id="path65" d="m 0,0 c -44.431,29.503 -84.951,64.059 -126.19,97.685 2.242,14.741 -7.641,27.155 -7.943,41.407 33,-9.774 55.654,-31.155 76.032,-58.808 C -42.927,59.692 -23.081,41.351 -1.889,25.675 -1.274,17.125 -0.637,8.563 0,0" style="fill:#de0f6d;fill-opacity:1;fill-rule:nonzero;stroke:none" transform="matrix(1.3333333,0,0,-1.3333333,1657.3015,1786.2199)" />
      <path id="path66" d="m 0,0 c -9.405,60.894 -22.339,121.08 -36.345,181.039 5.448,6.584 11.856,11.68 20.585,13.141 C -3.059,130.054 9.664,65.933 22.325,1.8 24.182,-7.609 27.984,-16.841 25.316,-26.715 16.866,-17.796 8.433,-8.898 0,0" style="fill:#f6ebf1;fill-opacity:1;fill-rule:nonzero;stroke:none" transform="matrix(1.3333333,0,0,-1.3333333,1697.6495,1473.1453)" />
      <path id="path67" d="m 0,0 c -26.505,13.427 -48.439,33.239 -71.643,51.289 -1.062,8.804 -2.11,17.616 -3.159,26.427 C -54.79,69.288 -34.288,62.585 -12.6,60.061 -9.733,39.764 -0.289,20.842 0,0" style="fill:#de0f6d;fill-opacity:1;fill-rule:nonzero;stroke:none" transform="matrix(1.3333333,0,0,-1.3333333,1788.634,1882.332)" />
      <path id="path68" d="M 0,0 C 7.951,-38.374 20.873,-75.592 26.621,-114.479 16.914,-109.74 7.228,-104.965 -0.04,-96.59 -4.949,-61.382 -16.566,-27.773 -24.688,6.67 -15.964,6.277 -7.777,3.896 0,0" style="fill:#f6ebf1;fill-opacity:1;fill-rule:nonzero;stroke:none" transform="matrix(1.3333333,0,0,-1.3333333,1564.398,1247.2149)" />
      <path id="path69" d="m 0,0 c -5.34,28.124 -10.346,56.308 -19.637,83.531 -1.616,4.733 -1.037,10.216 -1.471,15.353 C -10.501,93.476 -0.899,86.802 6.326,77.124 11,43.007 24.118,10.568 26.356,-24.019 16.994,-16.632 5.736,-11.345 0,0" style="fill:#f6ebf1;fill-opacity:1;fill-rule:nonzero;stroke:none" transform="matrix(1.3333333,0,0,-1.3333333,1560.1384,2071.0888)" />
      <path id="path70" d="m 0,0 c -0.289,20.842 -9.733,39.764 -12.6,60.061 7.754,1.927 15.54,3.465 23.571,1.801 C 18.764,33.156 26.558,4.451 34.351,-24.254 19.807,-24.037 11.802,-13.493 2.921,-4.36 3.041,-2.062 3.28,0.339 -0.2,0.194 Z" style="fill:#f6ebf1;fill-opacity:1;fill-rule:nonzero;stroke:none" transform="matrix(1.3333333,0,0,-1.3333333,1788.634,1882.332)" />
      <path id="path71" d="m 0,0 c 1.048,-8.811 2.096,-17.622 3.159,-26.427 -10.034,5.523 -19.57,11.7 -26.855,20.792 -0.639,8.566 -1.276,17.129 -1.891,25.678 C -17.043,13.353 -8.521,6.677 0,0" style="fill:#f6ebf1;fill-opacity:1;fill-rule:nonzero;stroke:none" transform="matrix(1.3333333,0,0,-1.3333333,1688.8984,1778.7111)" />
      <path id="path72" d="m 0,0 c 0.302,-14.252 10.185,-26.667 7.943,-41.407 -8.825,5.75 -16.069,13.154 -20.794,22.494 C -19.649,-5.476 -17.5,2.682 0,0" style="fill:#f6ebf1;fill-opacity:1;fill-rule:nonzero;stroke:none" transform="matrix(1.3333333,0,0,-1.3333333,1478.458,1600.7635)" />
      <path id="path74" d="m 0,0 c 39.077,27.765 74.764,58.863 102.187,98.86 20.758,30.276 39.871,62.321 71.107,83.613 14.783,10.077 31.344,16.773 49.467,18.286 49.362,4.121 97.754,-1.712 145.753,-13.413 27.517,-6.707 55.467,-11.651 83.246,-17.273 50.748,-10.272 96.333,-32.72 133.326,-67.866 40.201,-38.195 87.63,-59.071 139.011,-75.883 39.693,-12.989 75.263,-35.675 110.983,-57.454 33.123,-20.195 63.843,-44.553 100.302,-59.098 0.205,-17.024 0.587,-34.049 0.588,-51.074 0.029,-815.105 -0.057,-1630.21 0.497,-2445.315 0.014,-20.373 -4.922,-25.742 -25.399,-25.467 -89.75,1.205 -179.527,0.82 -269.289,0.215 -13.953,-0.094 -19.42,3.651 -21.188,17.989 -5.825,47.239 -11.289,94.652 -20.302,141.339 -13.91,72.055 -33.931,142.708 -54.75,213.084 -25.7,86.876 -50.43,174.01 -69.641,262.613 -5.664,26.124 -13.494,51.808 -15.555,78.641 72.672,51.536 106.605,123.868 110.033,210.946 2.803,71.175 0.821,142.444 -8.85,213.158 -7.179,52.493 -17.445,105.409 -41.608,152.22 -40.837,79.114 -108.964,129.415 -191.577,160.626 -8.159,47.467 -15.694,95.05 -24.629,142.37 -12.044,63.777 -25.272,127.33 -37.788,191.02 -9.059,46.094 -17.413,92.302 -29.767,137.719 -19.668,72.312 -43.239,143.31 -69.622,213.404 -28.162,74.82 -56.41,149.608 -84.821,224.334 C 50.244,-169.635 23.374,-85.386 0,0" style="fill:#de0f6d;fill-opacity:1;fill-rule:nonzero;stroke:none" transform="matrix(1.3333333,0,0,-1.3333333,1934.6853,1016.7599)" clip-path="url(#clipPath75)" />
      <path id="path76" d="m 0,0 c 17.365,11.343 34.73,22.686 52.096,34.031 21.934,-82.092 48.408,-162.638 77.625,-242.484 23.788,-65.009 49.825,-129.165 73.091,-194.409 16.662,-46.729 35.376,-93.001 50.429,-140.278 18.036,-56.644 35.645,-113.414 47.367,-172.144 11.163,-55.931 20.918,-112.001 30.935,-168.105 8.373,-46.902 14.768,-94.277 24.806,-140.614 5.838,-26.945 13.555,-53.642 16.989,-81.237 -11.848,4.988 -24.657,8.148 -36.752,11.014 -23.942,5.673 -47.567,16.014 -73.21,12.333 -19.363,69.283 -35.002,139.466 -49.736,209.83 -22.45,107.216 -38.525,215.905 -72.631,320.416 -18.296,56.065 -39.793,111.006 -55.194,168.115 -21.102,78.254 -37.142,157.578 -54.302,236.697 C 20.902,-97.912 14.489,-48.085 0,0" style="fill:#de0f6d;fill-opacity:1;fill-rule:nonzero;stroke:none" transform="matrix(1.3333333,0,0,-1.3333333,1840.6613,1078.7625)" />
      <path id="path77" d="m 0,0 c 82.612,-31.212 150.74,-81.513 191.577,-160.626 24.163,-46.811 34.428,-99.727 41.607,-152.22 9.671,-70.714 11.654,-141.984 8.851,-213.158 -3.428,-87.078 -37.362,-159.41 -110.033,-210.946 -14.048,45.641 -20.79,92.901 -30.436,139.492 C 60.983,-401.441 30.642,-203.647 0.307,-5.863 0.012,-3.938 0.094,-1.956 0,0" style="fill:#211f1e;fill-opacity:1;fill-rule:nonzero;stroke:none" transform="matrix(1.3333333,0,0,-1.3333333,2372.4737,2565.0967)" />
      <path id="path78" d="m 0,0 c 30.682,11.021 61.629,21.079 94.01,25.942 16.443,-35.627 23.499,-74.233 35.199,-111.363 51.309,-162.834 85.7,-330.241 133.215,-494.113 21.465,-74.029 45.113,-147.448 62.933,-222.51 -32.462,-7.297 -65.559,-7.901 -98.576,-9.35 -14.103,56.215 -23.488,113.607 -41.09,168.933 -38.764,121.842 -78.597,243.346 -116.865,365.343 C 40.303,-186.188 17.047,-93.837 0,0" style="fill:#211f1e;fill-opacity:1;fill-rule:nonzero;stroke:none" transform="matrix(1.3333333,0,0,-1.3333333,1841.5075,2543.5737)" />
      <path id="path79" d="m 0,0 c 26.601,15.184 53.202,30.368 79.803,45.552 12.922,-2.415 9.373,-14.178 10.947,-21.681 23.093,-110.058 52.663,-218.336 87.365,-325.266 33.647,-103.685 70.742,-206.278 99.773,-311.425 12.862,-46.583 24.502,-93.518 31.467,-141.454 -36.101,0.712 -69.855,12.55 -104.123,21.948 -28.454,80.038 -52.151,161.602 -77.645,242.588 -12.162,38.634 -21.759,78.131 -35.132,116.321 C 52.698,-259.877 27.617,-142.692 3.528,-25.212 1.827,-16.916 1.152,-8.409 0,0" style="fill:#211f1e;fill-opacity:1;fill-rule:nonzero;stroke:none" transform="matrix(1.3333333,0,0,-1.3333333,1697.6197,2616.6728)" />
      <path id="path80" d="m 0,0 c 33.017,1.449 66.114,2.053 98.576,9.35 9.017,-31.295 16.503,-62.798 21.523,-95.138 4.808,-30.969 15.958,-60.574 21.015,-92.002 6.829,-42.447 8.363,-85.766 19.986,-127.512 8.369,-30.057 15.378,-60.5 22.662,-90.849 7.955,-33.146 13.145,-66.667 14.587,-100.835 1.959,-46.421 2.378,-93.012 10.089,-138.989 2.64,-15.74 -2.661,-19.988 -18.241,-19.44 -33.36,1.174 -66.823,1.251 -100.175,-0.019 -15.251,-0.581 -18.146,4.574 -18.458,18.719 -2.154,97.619 -13.8,194.522 -24.492,291.431 C 34.83,-234.343 21.658,-123.477 1.08,-13.664 0.243,-9.199 0.339,-4.559 0,0" style="fill:#de0f6d;fill-opacity:1;fill-rule:nonzero;stroke:none" transform="matrix(1.3333333,0,0,-1.3333333,2143.8821,3625.4324)" clip-path="url(#clipPath81)" />
      <path id="path82" d="m 0,0 c 38.563,1.551 77.09,2.209 115.325,-4.545 16.363,-46.96 24.406,-95.971 35.144,-144.287 28.339,-127.515 49.626,-256.654 83.513,-382.831 14.754,-54.937 37.203,-107.953 47.923,-164.14 8.077,-42.334 13.714,-85.134 20.438,-127.725 -18.672,1.569 -37.343,1.084 -54.926,-5.608 -5.229,-1.991 -16.328,4.101 -15.63,-8.804 -49.081,168.622 -99.248,336.912 -140.138,507.832 C 66.579,-225.314 33.974,-122.509 4.106,-18.993 2.314,-12.784 1.349,-6.336 0,0" style="fill:#211f1e;fill-opacity:1;fill-rule:nonzero;stroke:none" transform="matrix(1.3333333,0,0,-1.3333333,2001.5433,2503.0121)" />
      <path id="path83" d="m 0,0 c 25.643,3.682 49.267,-6.659 73.21,-12.333 12.094,-2.866 24.904,-6.026 36.751,-11.014 11.696,-72.255 23.895,-144.433 34.989,-216.78 26.865,-175.181 60.29,-349.132 96.677,-522.544 1.202,-5.729 1.774,-11.591 2.641,-17.391 -19.42,-11.022 -40.883,-15.917 -62.352,-20.794 -11.717,113.798 -46.933,222.28 -77.229,331.651 C 69.673,-342.799 50.406,-213.126 19.689,-85.899 12.795,-57.346 6.546,-28.637 0,0" style="fill:#211f1e;fill-opacity:1;fill-rule:nonzero;stroke:none" transform="matrix(1.3333333,0,0,-1.3333333,2191.8299,2521.2868)" />
      <path id="path84" d="m 0,0 c 21.469,4.878 42.932,9.773 62.351,20.794 10.061,-42.108 20.272,-84.182 30.147,-126.334 16.678,-71.19 37.747,-141.179 57.383,-211.564 13.642,-48.902 27.79,-97.61 39.39,-147.146 14.594,-62.315 27.455,-124.582 30.829,-188.601 0.229,-4.345 3.708,-8.543 3.843,-12.866 0.294,-9.437 -0.393,-18.461 -14.41,-16.791 -9.048,1.077 -18.328,0.194 -27.505,0.193 -48.238,-10e-4 -48.21,0.008 -62.117,46.344 -18.071,60.207 -29.193,121.918 -37.764,183.996 -14.634,105.98 -31.544,211.432 -57.389,315.402 C 13.604,-91.701 5.958,-45.943 0,0" style="fill:#de0f6d;fill-opacity:1;fill-rule:nonzero;stroke:none" transform="matrix(1.3333333,0,0,-1.3333333,2434.3848,3589.0952)" clip-path="url(#clipPath85)" />
      <path id="path86" d="m 0,0 c 34.268,-9.397 68.022,-21.235 104.124,-21.948 12.258,-55.479 19.519,-111.695 27.595,-167.911 10.459,-72.808 19.072,-145.789 27.045,-218.831 5.043,-46.191 8.966,-92.634 12.788,-138.964 3.153,-38.231 3.849,-76.692 8.146,-114.831 1.381,-12.256 -1.999,-19.009 -15.656,-16.856 -1.916,0.302 -3.921,0.042 -5.885,0.036 -48.706,-0.156 -48.658,-0.147 -58.242,47.102 -8.545,42.126 -11.674,84.966 -17.149,127.501 -12.578,97.741 -12.274,196.812 -31.08,293.92 C 38.642,-143.426 21.247,-77.206 2.169,-11.375 1.099,-7.684 0.707,-3.796 0,0" style="fill:#de0f6d;fill-opacity:1;fill-rule:nonzero;stroke:none" transform="matrix(1.3333333,0,0,-1.3333333,1971.2623,3593.108)" clip-path="url(#clipPath87)" />
      <path id="path88" d="m 0,0 c -0.697,12.904 10.401,6.813 15.63,8.803 17.584,6.693 36.254,7.178 54.926,5.608 9.364,-46.538 20.184,-92.845 27.647,-139.685 6.398,-40.157 20.102,-78.456 26.462,-118.542 11.141,-70.219 20.548,-140.727 31.669,-210.88 9.96,-62.835 20.814,-126.214 43.6,-186.405 1.829,-4.832 2.766,-10.002 4.858,-17.762 -30.998,0 -60.677,-0.534 -90.321,0.26 -12.03,0.322 -10.349,11.244 -10.887,19.37 -3.332,50.31 -7.143,100.599 -9.64,150.952 -3.033,61.167 -21.476,119.184 -35.497,178.038 -10.768,45.198 -13.627,91.369 -21.055,136.941 C 28.71,-120.032 21.904,-66.327 2.17,-15.482 0.334,-10.753 0.672,-5.181 0,0" style="fill:#de0f6d;fill-opacity:1;fill-rule:nonzero;stroke:none" transform="matrix(1.3333333,0,0,-1.3333333,2310.592,3620.2649)" clip-path="url(#clipPath89)" />
      <path id="path90" d="m 0,0 c -1.447,-9.985 1.9,-24.874 -9.99,-24.774 -12.34,0.103 -11.333,15.093 -11.143,25.076 0.177,9.335 0.036,23.664 11.34,23.125 C 1.807,22.873 -1.682,8.265 0,0" style="fill:#de0f6d;fill-opacity:1;fill-rule:nonzero;stroke:none" transform="matrix(1.3333333,0,0,-1.3333333,325.286,3402.3504)" />
      <path id="path91" d="m 0,0 c -0.933,-5.054 -1.416,-11.033 -8.179,-10.85 -7.222,0.194 -6.825,6.562 -6.562,11.428 0.258,4.795 0.083,11.391 7.322,11.049 C -0.591,11.305 -1.374,4.651 0,0" style="fill:#de0f6d;fill-opacity:1;fill-rule:nonzero;stroke:none" transform="matrix(1.3333333,0,0,-1.3333333,322.95187,3326.0981)" />
      <path id="path92" d="m 0,0 c -3.859,9.392 -1.1,18.357 -1.886,27.044 -0.541,5.981 2.045,10.959 8.071,10.961 10.179,0.003 3.884,-7.372 3.55,-11.184 C 8.915,17.463 13.158,5.872 0,0" style="fill:#de0f6d;fill-opacity:1;fill-rule:nonzero;stroke:none" transform="matrix(1.3333333,0,0,-1.3333333,664.20293,3608.5191)" />
      <path id="path93" d="m 0,0 c -1.611,-11.497 -0.797,-24.074 -5.542,-35.944 -1.73,-4.329 -2.408,-8.935 -8.35,-9.334 -5.815,-0.391 -7.931,3.438 -9.627,7.972 -8.588,22.958 -8.731,45.999 -0.788,69.142 1.581,4.609 3.53,7.662 9.661,7.233 5.618,-0.392 7.434,-2.391 9.262,-7.527 C -1.807,21.485 -0.822,11.219 0,0" style="fill:#de0f6d;fill-opacity:1;fill-rule:nonzero;stroke:none" transform="matrix(1.3333333,0,0,-1.3333333,386.29213,3620.5815)" />
      <path id="path94" d="M 0,0 C -7.844,25.944 -11.008,46.768 -1.405,68.784 11.134,52.285 12.245,27.409 0,0" style="fill:#de0f6d;fill-opacity:1;fill-rule:nonzero;stroke:none" transform="matrix(1.3333333,0,0,-1.3333333,797.17,4223.2651)" />
      <path id="path95" d="m 0,0 c -0.502,-5.349 -3.802,-7.898 -8.907,-7.722 -5.096,0.177 -8.505,2.996 -8.464,8.365 0.043,5.567 3.739,7.749 8.857,7.721 C -3.139,8.335 -0.404,5.371 0,0" style="fill:#de0f6d;fill-opacity:1;fill-rule:nonzero;stroke:none" transform="matrix(1.3333333,0,0,-1.3333333,384.38307,4138.1112)" />
      <path id="path96" d="m 0,0 c -27.653,-3.733 -55.306,-7.466 -82.958,-11.199 -14.584,32.488 -30.417,64.443 -41.845,98.274 22.533,9.267 45.466,5.929 68.307,1.809 8.758,-1.579 17.288,-4.422 25.922,-6.69 C -24.526,53.255 -13.455,26.184 0,0" style="fill:#de0f6d;fill-opacity:1;fill-rule:nonzero;stroke:none" transform="matrix(1.3333333,0,0,-1.3333333,1425.2491,452.69867)" />
      <path id="path97" d="m 0,0 c 25.873,14.534 52.253,27.906 81.255,35.216 12.059,3.039 25.227,6.765 33.508,-5.726 7.528,-11.358 3.788,-22.394 -4.335,-33.723 C 87.193,-36.637 57.479,-61.312 23.792,-81.813 15.862,-54.562 7.931,-27.281 0,0" style="fill:#de0f6d;fill-opacity:1;fill-rule:nonzero;stroke:none" transform="matrix(1.3333333,0,0,-1.3333333,1595.9137,906.03173)" />
      <path id="path98" d="m 0,0 c -8.412,27.445 -16.824,54.89 -25.23,82.334 24.647,9.675 44.436,28.687 70.089,36.43 3.172,-6.408 6.756,-12.657 9.439,-19.272 C 64.586,74.128 74.586,48.647 84.693,23.209 55.893,17.547 27.858,9.098 0,0" style="fill:#de0f6d;fill-opacity:1;fill-rule:nonzero;stroke:none" transform="matrix(1.3333333,0,0,-1.3333333,1170.4888,507.188)" />
      <path id="path99" d="m 0,0 c -20.787,-15.198 -41.574,-30.395 -62.362,-45.593 -8.687,30.155 -17.374,60.309 -26.061,90.463 19.305,16.124 39.847,30.394 62.407,41.652 C -16.594,57.909 -14.295,27.152 0,0" style="fill:#de0f6d;fill-opacity:1;fill-rule:nonzero;stroke:none" transform="matrix(1.3333333,0,0,-1.3333333,1606.1149,1035.24)" />
      <path id="path100" d="m 0,0 c -4.585,18.73 -9.17,37.46 -13.739,56.157 24.213,15.877 53.408,20.121 78.743,33.529 3.993,2.114 7.491,4.7 11.265,6.969 C 79.096,76.746 88.65,58.947 94.059,39.849 62.768,26.421 29.945,16.607 0,0" style="fill:#de0f6d;fill-opacity:1;fill-rule:nonzero;stroke:none" transform="matrix(1.3333333,0,0,-1.3333333,1268.9452,837.68467)" />
      <path id="path101" d="M 0,0 C -23.447,-9.212 -46.139,-20.678 -71.562,-24 -82.328,-7.056 -84.881,13.037 -92.7,31.11 -69.722,45.142 -44.872,54.731 -19.088,62.127 -12.719,41.421 -6.36,20.71 0,0" style="fill:#de0f6d;fill-opacity:1;fill-rule:nonzero;stroke:none" transform="matrix(1.3333333,0,0,-1.3333333,1518.6932,739.83413)" />
      <path id="path102" d="m 0,0 c 26.532,-6.158 51.24,-16.995 74.996,-29.995 6.05,-3.311 12.592,-7.683 13.15,-15.647 0.672,-9.592 -8.517,-8.045 -13.729,-10.577 -15.74,-7.646 -32.375,-12.487 -49.84,-14.33 C 16.378,-47.041 8.189,-23.521 0,0" style="fill:#de0f6d;fill-opacity:1;fill-rule:nonzero;stroke:none" transform="matrix(1.3333333,0,0,-1.3333333,1417.0891,353.6248)" />
      <path id="path103" d="M 0,0 C 19.15,5.074 38.541,8.505 57.549,0.508 70.682,-5.018 74.593,-13.626 65.185,-27.027 53.114,-44.221 35.875,-52.544 17.147,-59.209 11.427,-39.478 5.714,-19.739 0,0" style="fill:#de0f6d;fill-opacity:1;fill-rule:nonzero;stroke:none" transform="matrix(1.3333333,0,0,-1.3333333,1521.4869,651.66587)" />
      <path id="path104" d="m 0,0 c -10.107,25.437 -20.106,50.919 -30.395,76.283 -2.683,6.614 -6.266,12.864 -9.439,19.272 5.515,6.816 12.7,9.758 21.402,9.182 C -6.997,70.902 8.835,38.947 23.42,6.459 16.553,0.896 7.572,3.002 0,0" style="fill:#f6ebf1;fill-opacity:1;fill-rule:nonzero;stroke:none" transform="matrix(1.3333333,0,0,-1.3333333,1283.4121,476.24227)" />
      <path id="path105" d="m 0,0 c 8.687,-30.154 17.375,-60.309 26.062,-90.463 -5.394,-6.693 -10.789,-13.386 -16.194,-20.078 -9.966,32.848 -19.922,65.694 -29.879,98.539 C -14.593,-5.915 -7.481,-2.649 0,0" style="fill:#f6ebf1;fill-opacity:1;fill-rule:nonzero;stroke:none" transform="matrix(1.3333333,0,0,-1.3333333,1488.2169,975.41293)" />
      <path id="path106" d="m 0,0 c -14.295,27.152 -16.594,57.909 -26.016,86.522 6.115,3.457 12.235,6.918 18.36,10.382 C 0.28,69.625 8.211,42.344 16.141,15.093 13.9,6.73 6.008,4.37 0,0" style="fill:#f6ebf1;fill-opacity:1;fill-rule:nonzero;stroke:none" transform="matrix(1.3333333,0,0,-1.3333333,1606.1149,1035.24)" />
      <path id="path107" d="M 0,0 C 8.189,-23.521 16.378,-47.041 24.577,-70.549 18.435,-71.792 12.282,-73.046 6.125,-74.303 -7.335,-48.121 -18.406,-21.051 -24.454,7.889 -16.303,5.259 -8.152,2.63 0,0" style="fill:#f6ebf1;fill-opacity:1;fill-rule:nonzero;stroke:none" transform="matrix(1.3333333,0,0,-1.3333333,1417.0891,353.6248)" />
      <path id="path108" d="m 0,0 c 7.818,-18.073 10.371,-38.165 21.138,-55.11 -5.113,-7.995 -13.732,-8.014 -21.69,-9.539 -5.409,19.098 -14.964,36.898 -17.791,56.807 C -12.224,-5.225 -6.112,-2.613 0,0" style="fill:#f6ebf1;fill-opacity:1;fill-rule:nonzero;stroke:none" transform="matrix(1.3333333,0,0,-1.3333333,1395.0936,698.35467)" />
      <path id="path109" d="m 0,0 c 5.714,-19.739 11.427,-39.478 17.147,-59.209 -6.407,-2.3 -12.819,-4.607 -19.236,-6.916 -6.366,20.709 -12.726,41.419 -19.094,62.126 C -14.173,-2.43 -7.679,1.92 0,0" style="fill:#f6ebf1;fill-opacity:1;fill-rule:nonzero;stroke:none" transform="matrix(1.3333333,0,0,-1.3333333,1521.4869,651.66587)" />
    </g></svg>