<?xml version='1.0' encoding='utf-8'?>
<svg xmlns="http://www.w3.org/2000/svg" version="1.1" width="88.764" height="118.667" viewBox="218.701 4224.870 88.764 118.667"><g id="object"><path id="path162" d="m 0,0 c -0.113,-1.37 1.068,-4.048 2.703,-6.647 1.715,-2.727 4,-3.217 6.273,-1.155 7.028,6.379 8.013,14.731 2.608,23.072 -1.047,1.616 -2.73,2.001 -4.442,0.936 C 1.79,12.878 0.75,7.426 0,0 M 40.046,9.93 C 40.298,5.976 39.54,2.269 37.731,-1.299 32.996,-10.636 26.607,-18.698 18.886,-25.682 c -2.53,-2.288 -5.484,-4.019 -9.001,-4.808 -5.133,-1.152 -9.508,-0.069 -12.785,3.961 -2.981,3.664 -5.695,7.578 -8.225,11.572 -7.189,11.349 -9.328,22.513 -0.861,34.714 5.733,8.26 11.558,16.004 20.292,21.196 1.85,1.1 3.8,2.064 5.533,3.327 9.769,7.125 10.284,6.685 16.289,-3.843 4.955,-8.687 9.65,-23.548 9.918,-30.507" style="fill:#494643;fill-opacity:1;fill-rule:nonzero;stroke:none" transform="matrix(1.3333333,0,0,-1.3333333,248.00733,4296.308)" />
      </g></svg>