<?xml version='1.0' encoding='utf-8'?>
<svg xmlns="http://www.w3.org/2000/svg" version="1.1" width="565.082" height="819.483" viewBox="2291.860 2899.130 565.082 819.483"><defs id="defs1"><clipPath clipPathUnits="userSpaceOnUse" id="clipPath29">
      <path d="M 0,3370.3901 H 2383.9401 V -2.5000001e-5 H 0 Z" id="path29" />
    </clipPath>
  </defs><g id="object"><path id="path4" d="m 0,0 c 5.561,10.563 3.563,21.382 1.716,32.455 -4.43,26.558 -11.525,53.219 -11.465,79.825 0.058,25.659 -2.711,52.802 12.942,77.045 5.284,8.184 7.14,20.383 1.262,31.301 -1.741,3.234 -1.116,8.296 4.004,9.37 4.895,1.027 7.341,-2.801 8.031,-6.743 3.843,-21.935 11.847,-41.15 8.042,-66.705 C 18.689,117.307 27.096,75.4 43.42,37.131 c 2.015,-4.722 4.78,-6.996 10.938,-4.295 18.307,8.03 45.387,1.644 51.709,-13.722 8.101,-19.686 -0.2,-35.959 -17.518,-46.595 -9.52,-5.847 -15.819,-12.254 -16.605,-23.692 -0.617,-8.975 -5.955,-16.177 -10.056,-23.85 -14.58,-27.286 -28.228,-54.905 -31.859,-86.3 -1.504,-13 -7.38,-23.543 -17.512,-32.588 -14.392,-12.85 -30.2,-24.316 -30.329,-47.884 -0.088,-16.02 -17.642,-7.351 -26.629,-11.179 -9.715,-4.136 -10.817,7.918 -9.653,13.987 2.042,10.643 -4.598,11.415 -14.208,11.887 11.809,13.768 27.126,17.699 36.869,30.699 21.132,28.198 29.549,58.043 26.82,92.616 -0.777,9.84 -4.432,12.201 -12.476,12.646 -29.186,1.615 -56.054,14.305 -86.07,14.85 -40.544,0.737 -64.636,30.644 -83.519,62.363 -9.384,15.761 -15.44,18.739 -28.821,5.842 -8.263,-7.963 -19.747,-11.431 -28.478,-19.99 -6.935,-6.799 -19.264,-10.266 -27.852,2.489 -8.379,12.445 -24.968,17.26 -30.986,31.958 -2.69,6.57 -5.266,14.527 1.501,19.751 6.948,5.362 12.232,-1.5 15.793,-5.962 7.5,-9.398 14.617,-9.514 24.049,-3.003 12.327,8.508 27.287,14.098 37.577,24.456 16.201,16.311 28.528,11.213 42.854,-1.241 8.618,-7.492 13.234,-19.978 27.7,-22.723 -1.546,15.669 -1.182,30.918 -4.898,45.099 -5.321,20.31 -23.196,17.721 -37.544,13.878 -9.905,-2.654 -17.763,-5.612 -26.063,2.116 -7.96,7.411 -13.739,1.94 -20.666,-2.764 -9.201,-6.245 -20.213,-2.485 -19.384,7.541 1.345,16.255 -4.842,30.975 -4.667,46.57 0.061,5.387 0.319,12.256 6.573,13.753 5.679,1.36 7.97,-4.866 9.088,-9.125 5.444,-20.753 16.659,-26.141 38.621,-22.514 18.197,3.006 37.652,0.513 56.625,2.814 21.16,2.566 34.024,-10.712 42.614,-27.91 10.956,-21.934 20.742,-44.451 31.035,-66.716 2.041,-4.415 4.514,-8.393 9.788,-9.466 13.735,-12.042 14.161,-22.155 -1.238,-34.574 -12.88,-10.386 -12.023,-35.976 -0.191,-38.324 19.067,-3.786 35.166,-14.286 53.295,-19.585 8.706,-2.545 21.44,-7.668 26.404,1.478 10.666,19.655 31.106,33.581 34.192,57.63 C 27.307,-21.114 27.307,-21.114 0,0" style="fill:#251d16;fill-opacity:1;fill-rule:nonzero;stroke:none" transform="matrix(1.3333333,0,0,-1.3333333,2705.3512,3374.1863)" />
      <path id="path11" d="m 0,0 c 27.307,-21.114 27.307,-21.114 40.243,-22.448 -3.086,-24.049 -23.526,-37.975 -34.192,-57.63 -4.964,-9.146 -17.698,-4.023 -26.404,-1.478 -18.129,5.299 -34.228,15.799 -53.295,19.585 -11.832,2.348 -12.689,27.938 0.191,38.324 15.399,12.419 14.973,22.532 1.238,34.574 8.095,0.218 16.741,-4.796 23.904,3.626 5.116,6.015 4.236,-2.697 6.655,-3.829 C -28.329,4.487 -16.168,-4.987 0,0" style="fill:#ffffff;fill-opacity:1;fill-rule:nonzero;stroke:none" transform="matrix(1.3333333,0,0,-1.3333333,2705.3512,3374.1863)" />
      <path id="path12" d="M 0,0 C 3.156,-59.355 2.29,-112.948 0.307,-166.543 -9.449,-112.978 -9.648,-59.388 0,0" style="fill:#251d16;fill-opacity:1;fill-rule:nonzero;stroke:none" transform="matrix(1.3333333,0,0,-1.3333333,2510.2876,2932.2045)" />
      <path id="path13" d="M 0,0 C -4.203,40.192 -5.067,80.161 -0.573,120.126 6.011,80.06 7.342,39.95 0,0" style="fill:#251d16;fill-opacity:1;fill-rule:nonzero;stroke:none" transform="matrix(1.3333333,0,0,-1.3333333,2746.5603,3065.2957)" />
      <path id="path14" d="m 0,0 v -83.091 c -1.683,-0.042 -3.365,-0.084 -5.048,-0.126 v 83.09 C -3.365,-0.085 -1.683,-0.042 0,0" style="fill:#251d16;fill-opacity:1;fill-rule:nonzero;stroke:none" transform="matrix(1.3333333,0,0,-1.3333333,2772.098,3016.7185)" />
      <path id="path15" d="M 0,0 C 2.251,-38.774 5.52,-77.177 -0.415,-115.553 -5.827,-76.932 -4.458,-38.279 0,0" style="fill:#251d16;fill-opacity:1;fill-rule:nonzero;stroke:none" transform="matrix(1.3333333,0,0,-1.3333333,2529.6561,2996.4625)" />
      <path id="path16" d="M 0,0 C 13.082,-13.714 22.008,-23.07 30.934,-32.427 13.752,-31.527 1.143,-25.692 0,0" style="fill:#251d16;fill-opacity:1;fill-rule:nonzero;stroke:none" transform="matrix(1.3333333,0,0,-1.3333333,2463.5117,3420.9047)" />
      </g></svg>