<?xml version='1.0' encoding='utf-8'?>
<svg xmlns="http://www.w3.org/2000/svg" version="1.1" width="106.978" height="311.272" viewBox="2133.410 2629.380 106.978 311.272"><g id="object"><path id="path23" d="M 0,0 C 0.513,-0.815 1.026,-1.63 1.539,-2.445 1.129,-3.211 0.72,-3.979 0.312,-4.746 -1.795,-5.19 -3.792,-6.444 -3.164,-8.573 c 1.097,-3.715 0.298,-6.826 -1.333,-10.065 -2.077,-4.124 -1.497,-8.337 0.095,-12.47 1.588,-4.124 5.231,-5.527 9.045,-6.667 0.436,-1.594 0.872,-3.189 1.308,-4.783 -1.726,-2.706 -3.548,-6.026 -1.906,-8.749 3.335,-5.532 1.683,-11.245 1.896,-16.9 0.119,-3.144 -0.096,-6.352 3.86,-7.559 1.34,-0.408 1.275,-1.696 1.381,-2.868 0.156,-1.73 5.419,-12.846 6.395,-13.952 0.506,-0.574 0.831,-1.31 1.237,-1.972 0.409,-0.972 0.817,-1.945 1.225,-2.917 -2.042,-2.043 -5.34,-3.186 -2.627,-7.436 3.832,-6.001 5.087,-12.666 2.787,-19.813 -0.734,-2.282 0.397,-3.681 3.043,-1.965 0.441,0.286 1.312,-0.092 1.984,-0.163 -1.037,-6.054 2.777,-11.132 3.349,-16.791 0.251,-2.492 -1.1,-5.263 -2.148,-7.726 -0.617,-1.451 -2.365,-2.124 -3.975,-1.591 -1.434,0.474 -2.826,1.261 -4.041,2.171 -2.227,1.67 -4.267,1.395 -6.377,-0.119 -1.26,-0.903 -2.563,-1.745 -3.847,-2.615 0,0 0.004,-0.002 0.004,-0.002 -0.695,2.18 -1.525,4.327 -2.053,6.546 -0.929,3.909 -3.456,7.889 0.794,11.639 0.776,0.685 0.563,2.917 0.262,4.319 -1.065,4.953 -3.359,9.339 -6.759,13.124 0.138,1.43 0.276,2.86 0.415,4.292 0.504,0.463 1.087,0.866 1.491,1.402 0.577,0.767 0.327,1.364 -0.587,1.48 -0.146,0.019 -0.454,-0.511 -0.534,-0.827 -0.168,-0.664 -0.235,-1.354 -0.343,-2.034 -0.777,0.227 -1.373,0.688 -1.787,1.384 2.661,9.399 1.929,18.478 -2.438,27.268 -0.498,1.003 -0.2,2.38 -0.619,3.448 -1.851,4.723 -2.979,10.048 -5.959,13.934 -4.554,5.938 -7.094,11.861 -6.062,19.373 0.325,2.367 -2.018,3.017 -4.033,3.359 -1.69,2.174 -2.09,4.665 -1.806,7.326 2.674,3.631 1.112,6.382 -1.837,8.845 -0.075,2.61 -0.149,5.219 -0.223,7.829 0.831,9.118 1.686,18.22 -1.78,27.08 -0.685,1.752 -1.517,3.995 -0.982,5.569 1.367,4.018 -0.039,7.657 -0.498,11.459 -0.232,1.918 -0.149,3.894 -0.018,5.831 0.115,1.704 1.203,3.398 2.846,2.967 3.277,-0.859 5.154,4.216 8.555,1.701 0.31,-0.228 0.823,-0.628 0.772,-0.831 -1.165,-4.631 6.24,-8.661 0.864,-13.72 -1.101,-1.036 0.619,-3.274 2.217,-3.143 5.643,0.461 5.796,0.421 4.473,-4.664 C -8.038,9.125 -8.557,6.906 -8.212,4.546 -7.903,2.436 -6.834,0.908 -4.64,0.511 -3.113,0.235 -1.548,0.163 0,0" style="fill:#3675ba;fill-opacity:1;fill-rule:nonzero;stroke:none" transform="matrix(1.3333333,0,0,-1.3333333,2191.4345,2722.1964)" />
      <path id="path39" d="m 0,0 c -3.783,4.729 -5.127,10.096 -3.985,16.018 0.374,1.943 1.007,4.016 -0.427,5.532 -3.863,4.082 -2.58,8.397 -1.431,13.047 0.852,3.451 0.508,7.066 -3.712,8.668 0.008,0.007 0.058,0.806 0.052,0.808 0.36,0.67 1.16,1.44 1.029,1.989 -1.856,7.817 -3.085,15.815 -6.419,23.223 -0.322,5.926 -1.053,11.947 3.904,16.642 3.475,-2.843 7.967,-3.221 11.917,-4.913 l -0.622,0.02 c 0,0 -0.153,-0.603 -0.144,-0.606 -2.885,-0.134 -4.314,-1.871 -3.585,-4.471 0.917,-3.275 2.771,-0.38 4.255,-0.328 0.947,0.034 2.17,-0.639 2.847,-1.381 1.864,-2.045 4.163,-3.256 6.687,-4.17 0,0 -0.053,0.203 -0.05,0.202 -0.32,-2.32 0.558,-4.087 2.478,-5.375 0.263,-1.3 0.527,-2.599 0.789,-3.899 -0.272,-3.759 0.341,-7.226 3.285,-9.921 1.766,-6.706 4.641,-13.162 4.559,-20.286 -1.465,-4.666 -1.417,-4.788 3.217,-8.265 -0.154,-0.616 -0.405,-1.189 -0.755,-1.718 -1.55,0.165 -3.114,0.237 -4.642,0.513 -2.194,0.396 -3.263,1.925 -3.572,4.035 -0.345,2.36 0.174,4.579 0.774,6.884 1.323,5.086 1.17,5.126 -4.472,4.664 -1.599,-0.13 -3.319,2.108 -2.218,3.144 5.377,5.059 -2.028,9.089 -0.864,13.72 0.051,0.203 -0.462,0.602 -0.771,0.831 -3.402,2.515 -5.278,-2.56 -8.556,-1.701 -1.643,0.431 -2.731,-1.264 -2.846,-2.967 -0.13,-1.937 -0.214,-3.913 0.018,-5.831 0.459,-3.802 1.865,-7.441 0.498,-11.459 -0.535,-1.574 0.298,-3.817 0.983,-5.569 C 1.686,18.219 0.832,9.118 0,0" style="fill:#548dc7;fill-opacity:1;fill-rule:nonzero;stroke:none" transform="matrix(1.3333333,0,0,-1.3333333,2159.5849,2749.9536)" />
      <path id="path52" d="m 0,0 c -0.66,-6.395 2.079,-12.287 3.015,-18.441 0.747,-4.915 0,-9.365 -0.964,-13.883 -0.458,-2.145 -1.892,-4.528 -3.615,-5.847 -2.384,-1.824 -4.135,0.674 -5.99,2.07 -2.342,1.763 -5.183,1.619 -7.949,1.386 -2,-0.169 -3.933,-0.26 -5.206,1.718 1.284,0.87 2.587,1.712 3.847,2.616 2.111,1.513 4.15,1.788 6.377,0.119 1.215,-0.911 2.607,-1.698 4.041,-2.172 1.611,-0.533 3.358,0.141 3.975,1.591 1.048,2.463 2.4,5.234 2.148,7.726 -0.571,5.66 -4.386,10.737 -3.349,16.792 -0.672,0.07 -1.543,0.448 -1.984,0.162 -2.645,-1.716 -3.777,-0.317 -3.043,1.965 2.3,7.147 1.045,13.812 -2.787,19.813 -2.713,4.25 0.586,5.393 2.625,7.441 1.418,-1.784 2.838,-3.574 4.258,-5.363 0.094,-2.722 0.188,-5.444 0.283,-8.166 C -4.217,8.005 -3.259,7.104 -2.045,6.39 -2.559,3.877 -1.129,1.987 0,0" style="fill:#548dc7;fill-opacity:1;fill-rule:nonzero;stroke:none" transform="matrix(1.3333333,0,0,-1.3333333,2229.9623,2882.8981)" />
      <path id="path58" d="m 0,0 c -0.407,0.663 -0.731,1.398 -1.238,1.973 -0.975,1.105 -6.239,12.221 -6.395,13.951 -0.105,1.172 -0.04,2.46 -1.381,2.869 -3.955,1.206 -3.74,4.414 -3.859,7.558 -0.214,5.655 1.439,11.368 -1.896,16.9 -1.643,2.723 0.18,6.043 1.905,8.751 1.2,-0.963 2.401,-1.929 3.602,-2.895 0.285,-1.384 0.57,-2.769 0.856,-4.153 -0.179,-0.732 -0.647,-1.53 -0.496,-2.186 1.68,-7.326 3.401,-14.644 5.273,-21.923 0.251,-0.976 1.402,-1.72 2.136,-2.572 C -2.793,12.558 0.99,7.802 1.496,2.427 0.996,1.618 0.498,0.809 0,0" style="fill:#548dc7;fill-opacity:1;fill-rule:nonzero;stroke:none" transform="matrix(1.3333333,0,0,-1.3333333,2216.5205,2848.2739)" />
      <path id="path61" d="m 0,0 c -3.814,1.14 -7.457,2.543 -9.045,6.667 -1.592,4.132 -2.172,8.346 -0.095,12.47 1.631,3.239 2.43,6.349 1.333,10.064 -0.628,2.13 1.368,3.384 3.476,3.828 0.923,-0.423 1.846,-0.845 2.768,-1.268 C -1.664,30.609 -1.766,29.458 -1.861,28.307 -2.049,24.096 -1.583,19.98 -1.086,15.781 -0.473,10.61 1.919,5.381 0,0" style="fill:#548dc7;fill-opacity:1;fill-rule:nonzero;stroke:none" transform="matrix(1.3333333,0,0,-1.3333333,2197.6255,2772.5627)" />
      <path id="path507" d="m 0,0 c -1.728,0.504 -2.419,1.789 -2.459,3.453 -0.136,5.771 -5.331,10.577 -3.188,16.776 -4.16,4.167 -3.818,9.86 -5.107,15.004 -0.279,1.117 -0.51,2.326 -1.111,3.271 -5.622,8.834 -7.322,18.628 -7.246,28.878 2.015,-0.342 4.358,-0.992 4.033,-3.358 -1.032,-7.513 1.509,-13.436 6.062,-19.373 2.981,-3.887 4.108,-9.212 5.96,-13.934 0.418,-1.068 0.12,-2.446 0.619,-3.449 C 1.929,18.478 2.662,9.4 0,0" style="fill:#548dc7;fill-opacity:1;fill-rule:nonzero;stroke:none" transform="matrix(1.3333333,0,0,-1.3333333,2190.2208,2871.7971)" />
      <path id="path508" d="M 0,0 C -0.891,9.325 -1.786,18.65 -2.672,27.976 -2.893,30.309 -3.33,32.684 -1.609,34.71 1.789,30.923 4.083,26.536 5.148,21.583 5.449,20.182 5.661,17.949 4.885,17.264 0.635,13.514 3.163,9.534 4.092,5.625 4.62,3.406 5.45,1.259 6.145,-0.92 4.096,-0.613 2.048,-0.307 0,0" style="fill:#548dc7;fill-opacity:1;fill-rule:nonzero;stroke:none" transform="matrix(1.3333333,0,0,-1.3333333,2194.1628,2925.6689)" />
      <path id="path509" d="M 0,0 C -2.728,2.511 -3.04,5.526 -1.841,8.85 1.112,6.382 2.675,3.631 0,0" style="fill:#548dc7;fill-opacity:1;fill-rule:nonzero;stroke:none" transform="matrix(1.3333333,0,0,-1.3333333,2162.3313,2772.186)" />
      </g></svg>