<?xml version='1.0' encoding='utf-8'?>
<svg xmlns="http://www.w3.org/2000/svg" version="1.1" width="120.992" height="184.196" viewBox="2115.050 1878.540 120.992 184.196"><defs id="defs1"><clipPath clipPathUnits="userSpaceOnUse" id="clipPath46">
      <path d="M 0,3370.3901 H 2383.9401 V -2.5000001e-5 H 0 Z" id="path46" />
    </clipPath>
  </defs><g id="object"><path id="path24" d="M 0,0 C 0,1.749 -0.001,3.498 0,5.246 0.059,64.704 6.064,69.688 66.676,60.72 73.603,59.696 81.959,59.709 81.58,49.983 81.203,40.322 72.703,40.655 65.854,40.286 55.387,39.722 44.88,39.901 34.411,39.359 26.019,38.926 22.008,33.8 21.671,25.661 21.303,16.803 24.035,9.782 34.065,8.993 43.634,8.24 53.287,8.608 62.873,8.008 c 7.54,-0.473 17.821,1.049 18.382,-9.777 0.588,-11.329 -9.768,-10.225 -17.331,-10.683 -8.715,-0.527 -17.477,-0.25 -26.217,-0.437 -10.42,-0.222 -16.284,-4.942 -16.125,-16.048 0.164,-11.437 6.956,-15.022 17.008,-15.195 10.485,-0.181 20.984,-0.135 31.45,-0.696 6.615,-0.354 12.341,-2.95 11.646,-10.982 -0.556,-6.428 -5.885,-8.591 -11.275,-8.709 C 52.068,-64.92 33.708,-65.089 15.364,-64.787 4.299,-64.605 0.43,-57.108 0.328,-47.21 0.167,-31.475 0.286,-15.737 0.286,0 0.19,0 0.095,0 0,0" style="fill:#424242;fill-opacity:1;fill-rule:nonzero;stroke:none" transform="matrix(1.3333333,0,0,-1.3333333,2121.0515,1970.1488)" />
      </g></svg>