<?xml version='1.0' encoding='utf-8'?>
<svg xmlns="http://www.w3.org/2000/svg" version="1.1" width="95.759" height="151.717" viewBox="225.242 4536.600 95.759 151.717"><g id="object"><path id="path76" d="m 0,0 c -1.4,-22.37 -2.717,-44.746 -4.251,-67.107 -0.456,-6.646 -6.638,-9.575 -13.04,-6.546 -1.733,0.82 -2.516,2.356 -2.741,4.098 -0.329,2.56 -0.533,5.146 -0.606,7.726 -0.16,5.605 -0.118,11.215 -0.314,16.818 -0.335,9.588 -3.641,11.995 -13.112,9.774 -2.724,-0.639 -4.802,-2.069 -5.479,-4.836 -0.815,-3.331 -1.624,-6.709 -1.921,-10.111 -0.412,-4.718 -0.29,-9.48 -0.493,-14.219 -0.358,-8.326 -7.702,-12.681 -15.227,-8.991 -2.092,1.026 -2.948,3.055 -3.123,5.301 -2.209,28.384 -3.055,56.804 -2.161,85.265 0.054,1.713 0.166,3.459 0.56,5.115 0.663,2.781 2.549,4.408 5.424,4.719 1.279,0.139 2.578,0.147 3.867,0.138 7.298,-0.054 8.105,-0.836 8.613,-7.911 0.586,-8.169 1.036,-16.356 1.921,-24.494 0.648,-5.967 3.032,-8.161 9.317,-8.214 5.134,-0.044 11.407,-3.307 15.048,-0.134 4.142,3.609 1.54,10.523 2.186,15.962 0.864,7.268 1.05,14.613 1.806,21.896 0.44,4.238 2.706,5.83 7.041,5.682 3.733,-0.127 5.904,-1.733 5.997,-5.323 C -0.475,16.423 -0.621,8.229 -0.621,0.038 -0.414,0.026 -0.207,0.013 0,0" style="fill:#494643;fill-opacity:1;fill-rule:nonzero;stroke:none" transform="matrix(1.3333333,0,0,-1.3333333,315.00093,4582.5219)" />
      </g></svg>