<?xml version='1.0' encoding='utf-8'?>
<svg xmlns="http://www.w3.org/2000/svg" version="1.1" width="306.831" height="1156.800" viewBox="352.408 3155.460 306.831 1156.800"><g id="object"><path id="path11" d="m 0,0 c 3.309,-0.026 6.618,-0.051 9.926,-0.076 2.538,-2.333 5.121,-2.526 7.759,-0.164 5.956,0.022 11.911,0.044 17.865,0.066 2.528,-2.28 4.976,-2.036 7.36,0.235 4.968,-0.176 9.936,-0.352 14.9,-0.528 1.71,-1.788 4.849,-3.523 4.919,-5.374 0.829,-22.024 4.261,-43.98 1.742,-66.108 -0.884,-7.767 -5.339,-9.066 -12.16,-8.998 -15.482,0.155 -30.985,-0.057 -46.452,-0.753 -9.632,-0.433 -14.507,-5.547 -11.908,-15.762 0.031,-1.837 0.062,-3.675 0.094,-5.507 -1.61,-14.371 -3.204,-28.746 2.148,-42.772 -0.157,-2.504 -0.314,-5.009 -0.472,-7.51 -4.715,-14.481 -1.022,-28.465 2.528,-42.457 0.137,-6.73 0.273,-13.46 0.409,-20.185 -1.09,-1.91 -1.011,-3.795 0.142,-5.652 0.018,-3.995 0.037,-7.989 0.054,-11.978 -2.053,-3.954 -1.193,-8.206 -1.194,-12.355 -0.006,-25.53 1.394,-51.03 1.987,-76.53 1.638,-70.466 1.937,-140.964 2.596,-211.451 0.219,-23.441 -0.545,-46.899 0.116,-70.322 0.237,-8.423 -1.672,-17.429 3.115,-25.412 0.24,-4.183 0.479,-8.366 0.718,-12.545 -1.698,-6.095 -1.664,-12.262 -1.624,-18.578 0.065,-10.456 3.007,-20.79 0.941,-31.349 -0.799,-4.086 -1.562,-7.209 -6.561,-7.48 -7.525,-0.408 -15.059,-1.905 -22.541,-1.628 -35.064,1.296 -70.12,1.912 -105.144,-0.493 -9.405,-0.645 -13.771,1.979 -14.258,12.178 -1.943,40.6 -0.953,81.176 -1.009,121.776 -0.069,50.461 1.773,100.935 -0.465,151.451 -2.169,48.974 -0.853,98.064 -2.58,147.118 -2.364,67.088 -2.54,134.252 -3.794,201.382 -0.087,4.702 1.574,10.389 -4.503,13.216 -0.449,2.792 -0.996,5.602 1.469,7.838 2.182,23.807 0.653,47.612 -0.015,71.43 -1.042,37.152 -8.445,75.303 16.103,108.683 5.4,4.078 10.799,8.155 16.198,12.232 8.162,-0.113 15.189,2.886 21.506,7.837 2.291,0.305 4.582,0.609 6.873,0.914 2.644,-2.371 4.462,-1.371 5.839,1.431 3.74,0.125 7.481,0.249 11.22,0.375 14.684,-5.894 29.391,-6.262 44.124,-0.177 3.149,0.276 6.298,0.552 9.447,0.828 1.692,-2.156 3.387,-2.107 5.084,-0.005 2.297,-0.231 4.594,-0.463 6.891,-0.694 8.269,-5.879 17.284,-0.658 25.876,-1.74 1.694,0.01 3.388,0.02 5.08,0.03 7.544,-2.831 15.093,-2.939 22.649,-0.044 2.524,-0.02 5.047,-0.04 7.57,-0.06 3.377,-2.507 7.049,-2.092 10.781,-1.085 0,0 0.482,-0.478 0.481,-0.478 -0.55,-15.37 -2.55,-30.663 1.137,-46.078 1.709,-7.146 1.978,-15.254 -1.283,-22.259 -3.18,-6.829 -10.096,-0.841 -14.774,-3.095 -1.756,-0.846 -3.117,-2.511 -4.658,-3.802 -1.204,-0.041 -2.407,-0.081 -3.61,-0.122 -13.927,5.674 -27.879,4.765 -41.845,0.153 -1.313,-0.579 -2.627,-1.158 -3.939,-1.736 -3.616,-0.653 -5.883,-1.99 -5.817,-6.487 0.302,-20.665 -0.385,-41.371 1.991,-61.945 C -10.295,1.567 -7.354,-3.031 0,0" style="fill:#0c2f31;fill-opacity:1;fill-rule:nonzero;stroke:none" transform="matrix(1.3333333,0,0,-1.3333333,566.066,3370.5901)" />
      </g></svg>