<?xml version='1.0' encoding='utf-8'?>
<svg xmlns="http://www.w3.org/2000/svg" version="1.1" width="320.340" height="596.952" viewBox="208.115 743.262 320.340 596.952"><defs id="defs1"><clipPath clipPathUnits="userSpaceOnUse" id="clipPath4">
      <path d="M 122.5624,2051.5417 H 2506.5025 V -1318.8484 H 122.5624 Z" id="path4" />
    </clipPath>
    <clipPath clipPathUnits="userSpaceOnUse" id="clipPath6">
      <path d="M -503.42171,2051.917 H 1880.5183 V -1318.4731 H -503.42171 Z" id="path6" />
    </clipPath>
  </defs><g id="object"><path id="path16" d="m 0,0 c -29.537,2.48 -64.782,4.681 -98.928,15.038 -19.009,5.766 -25.372,17.078 -19.296,36.261 28.647,90.442 37.861,184.211 47.283,277.953 1.744,17.362 -0.731,33.485 -9.782,48.475 -8.754,14.498 -3.9,25.877 8.795,34.579 24.196,16.587 51.584,24.537 80.505,26.267 21.059,1.26 26.493,-11.832 21.649,-29.73 C 9.073,330.695 3.494,250.185 -6.675,170.367 c -0.638,-5.007 -2.184,-10.081 -1.79,-15.001 1.206,-15.054 -9.902,-33.881 7.406,-44.187 19.166,-11.412 40.477,-8.334 60.267,1.324 13.098,6.392 25.246,22.592 40.68,11.975 16.36,-11.255 10.197,-30.249 7.606,-46.804 C 98.011,17.088 74.024,-1.231 0,0" style="fill:#1c2a2f;fill-opacity:1;fill-rule:nonzero;stroke:none" transform="matrix(1.3333333,0,0,-1.3333333,374.7112,1334.1381)" />
      </g></svg>