<?xml version='1.0' encoding='utf-8'?>
<svg xmlns="http://www.w3.org/2000/svg" version="1.1" width="409.117" height="379.502" viewBox="2775.470 1176.800 409.117 379.502"><defs id="defs1"><clipPath clipPathUnits="userSpaceOnUse" id="clipPath6">
      <path d="M -2235.8854,905.30875 H 148.0547 V -2465.0813 h -2383.9401 z" id="path6" />
    </clipPath>
  </defs><g id="object"><path id="path5" d="m 0,0 c -26.007,0.049 -50.431,-6.518 -72.814,-20.546 -60.522,-37.932 -75.848,-114.748 -33.836,-168.652 49.348,-63.317 146.864,-68.066 202.415,-10.043 19.453,20.318 31.559,43.964 32.66,73.405 C 130.993,-57.178 73.04,-0.306 0,0 m -1.451,-257.361 c -33.588,-0.574 -64.343,8.906 -91.91,29.334 -76.962,57.031 -74.844,165.134 4.237,219.038 62.137,42.353 147.235,34.49 198.075,-18.301 55.317,-57.441 51.548,-142.655 -8.787,-193.967 -29.609,-25.182 -63.618,-37.059 -101.615,-36.104" style="fill:#343333;fill-opacity:1;fill-rule:nonzero;stroke:none" transform="matrix(1.3333333,0,0,-1.3333333,2981.1804,1207.0783)" clip-path="url(#clipPath6)" />
      </g></svg>