<?xml version='1.0' encoding='utf-8'?>
<svg xmlns="http://www.w3.org/2000/svg" version="1.1" width="180.219" height="179.756" viewBox="1875.750 619.827 180.219 179.756"><defs id="defs1"><clipPath clipPathUnits="userSpaceOnUse" id="clipPath46">
      <path d="M 0,3370.3901 H 2383.9401 V -2.5000001e-5 H 0 Z" id="path46" />
    </clipPath>
  </defs><g id="object"><path id="path20" d="M 0,0 C 0.121,23.574 -18.036,41.641 -41.715,41.507 -63.376,41.385 -83.357,21.074 -83.486,-0.954 -83.62,-23.758 -65.204,-41.492 -41.094,-41.777 -18.078,-42.049 -0.122,-23.794 0,0 m -40.716,-62.759 c -37.362,-0.203 -63.489,24.822 -64.255,61.547 -0.703,33.722 29.59,64.523 63.207,64.267 C -9.698,62.81 20.928,32.586 21.179,0.938 21.474,-36.213 -4.127,-62.559 -40.716,-62.759" style="fill:#424242;fill-opacity:1;fill-rule:nonzero;stroke:none" transform="matrix(1.3333333,0,0,-1.3333333,2021.73,709.9028)" />
      </g></svg>