<?xml version='1.0' encoding='utf-8'?>
<svg xmlns="http://www.w3.org/2000/svg" version="1.1" width="56.094" height="102.041" viewBox="1558.970 4182.140 56.094 102.041"><g id="object"><path id="path162" d="m 0,0 c 3.769,0 7.539,0.055 11.307,-0.02 2.378,-0.048 5.193,-0.021 5.066,-3.414 -0.108,-2.885 0.47,-6.673 -3.94,-7.134 -4.902,-0.512 -5.99,-3.282 -5.967,-7.749 0.072,-14.362 -0.372,-28.727 -0.213,-43.087 0.048,-4.328 -1.255,-5.881 -5.526,-6.083 -4.052,-0.19 -5.973,0.797 -6.504,5.2 -1.155,9.587 -0.283,19.146 -0.394,28.715 -0.067,5.842 -0.213,11.695 -0.683,17.515 -0.185,2.292 -2.265,3.783 -4.484,3.913 -5.599,0.327 -5.529,4.01 -5.262,8.046 0.35,5.289 4.263,3.947 7.381,4.016 3.072,0.068 6.146,0.015 9.218,0.015 C 0,-0.044 0,-0.022 0,0" style="fill:#494f57;fill-opacity:1;fill-rule:nonzero;stroke:none" transform="matrix(1.3333333,0,0,-1.3333333,1587.2284,4188.1704)" />
      </g></svg>