<svg xmlns="http://www.w3.org/2000/svg" viewBox="0 0 2000 1120" width="2000" height="1120">
<rect width="2000" height="1120" fill="#F3EBDD"/>
<text x="1000" y="70" text-anchor="middle" font-family="Montserrat, Arial" font-size="40" font-weight="700" fill="#2F2A26">BEAR — pose library (Bear's Cubs host)</text>
<text x="1000" y="106" text-anchor="middle" font-family="Inter, Arial" font-size="20" fill="#2F2A26" opacity="0.7">one pose per beat role · same bear every episode · flat primitives, no gradients</text>
<g transform="translate(260,470)"><ellipse cx="-38" cy="-18" rx="30" ry="22" fill="#7A4E2D"/><ellipse cx="38" cy="-18" rx="30" ry="22" fill="#7A4E2D"/><ellipse cx="0" cy="-110" rx="78" ry="92" fill="#7A4E2D"/><ellipse cx="0" cy="-95" rx="48" ry="60" fill="#E8D9C0"/><circle cx="-52" cy="-286" r="24" fill="#7A4E2D"/><circle cx="52" cy="-286" r="24" fill="#7A4E2D"/><circle cx="-52" cy="-286" r="12" fill="#E8D9C0"/><circle cx="52" cy="-286" r="12" fill="#E8D9C0"/><circle cx="0" cy="-238" r="62" fill="#7A4E2D"/><ellipse cx="0" cy="-220" rx="34" ry="26" fill="#E8D9C0"/><ellipse cx="0" cy="-228" rx="9" ry="7" fill="#2F2A26"/><circle cx="-20" cy="-250" r="7" fill="#2F2A26"/><circle cx="20" cy="-250" r="7" fill="#2F2A26"/><path d="M -14 -210 Q 0 -198 14 -210" fill="none" stroke="#2F2A26" stroke-width="5" stroke-linecap="round"/><line x1="-62" y1="-160" x2="-118" y2="-174" stroke="#7A4E2D" stroke-width="34" stroke-linecap="round"/><line x1="62" y1="-160" x2="108" y2="-252" stroke="#7A4E2D" stroke-width="34" stroke-linecap="round"/><circle cx="108" cy="-252" r="20" fill="#5C3A20"/></g><text x="260" y="522" text-anchor="middle" font-family="Montserrat, Arial" font-size="26" font-weight="600" fill="#2F2A26">HELLO</text><text x="260" y="554" text-anchor="middle" font-family="Inter, Arial" font-size="19" fill="#1F6F5C">open, one paw up</text><g transform="translate(730,470)"><ellipse cx="-38" cy="-18" rx="30" ry="22" fill="#7A4E2D"/><ellipse cx="38" cy="-18" rx="30" ry="22" fill="#7A4E2D"/><ellipse cx="0" cy="-110" rx="78" ry="92" fill="#7A4E2D"/><ellipse cx="0" cy="-95" rx="48" ry="60" fill="#E8D9C0"/><circle cx="-52" cy="-286" r="24" fill="#7A4E2D"/><circle cx="52" cy="-286" r="24" fill="#7A4E2D"/><circle cx="-52" cy="-286" r="12" fill="#E8D9C0"/><circle cx="52" cy="-286" r="12" fill="#E8D9C0"/><circle cx="0" cy="-238" r="62" fill="#7A4E2D"/><ellipse cx="0" cy="-220" rx="34" ry="26" fill="#E8D9C0"/><ellipse cx="0" cy="-228" rx="9" ry="7" fill="#2F2A26"/><circle cx="-20" cy="-250" r="7" fill="#2F2A26"/><circle cx="20" cy="-250" r="7" fill="#2F2A26"/><path d="M -14 -210 Q 0 -198 14 -210" fill="none" stroke="#2F2A26" stroke-width="5" stroke-linecap="round"/><line x1="-62" y1="-160" x2="-118" y2="-174" stroke="#7A4E2D" stroke-width="34" stroke-linecap="round"/><line x1="62" y1="-160" x2="138" y2="-190" stroke="#7A4E2D" stroke-width="34" stroke-linecap="round"/><circle cx="168" cy="-198" r="30" fill="#BF3339"/></g><text x="730" y="522" text-anchor="middle" font-family="Montserrat, Arial" font-size="26" font-weight="600" fill="#2F2A26">TEACH</text><text x="730" y="554" text-anchor="middle" font-family="Inter, Arial" font-size="19" fill="#1F6F5C">shows the exemplar</text><g transform="translate(1200,470)"><ellipse cx="-38" cy="-18" rx="30" ry="22" fill="#7A4E2D"/><ellipse cx="38" cy="-18" rx="30" ry="22" fill="#7A4E2D"/><ellipse cx="0" cy="-110" rx="78" ry="92" fill="#7A4E2D"/><ellipse cx="0" cy="-95" rx="48" ry="60" fill="#E8D9C0"/><circle cx="-52" cy="-286" r="24" fill="#7A4E2D"/><circle cx="52" cy="-286" r="24" fill="#7A4E2D"/><circle cx="-52" cy="-286" r="12" fill="#E8D9C0"/><circle cx="52" cy="-286" r="12" fill="#E8D9C0"/><circle cx="0" cy="-238" r="62" fill="#7A4E2D"/><ellipse cx="0" cy="-220" rx="34" ry="26" fill="#E8D9C0"/><ellipse cx="0" cy="-228" rx="9" ry="7" fill="#2F2A26"/><circle cx="-20" cy="-250" r="7" fill="#2F2A26"/><circle cx="20" cy="-250" r="7" fill="#2F2A26"/><path d="M -14 -210 Q 0 -198 14 -210" fill="none" stroke="#2F2A26" stroke-width="5" stroke-linecap="round"/><line x1="-62" y1="-160" x2="-118" y2="-174" stroke="#7A4E2D" stroke-width="34" stroke-linecap="round"/><line x1="62" y1="-160" x2="150" y2="-152" stroke="#7A4E2D" stroke-width="34" stroke-linecap="round"/><circle cx="150" cy="-152" r="18" fill="#5C3A20"/></g><text x="1200" y="522" text-anchor="middle" font-family="Montserrat, Arial" font-size="26" font-weight="600" fill="#2F2A26">QUESTION</text><text x="1200" y="554" text-anchor="middle" font-family="Inter, Arial" font-size="19" fill="#1F6F5C">points at YOU</text><g transform="translate(1670,470)"><ellipse cx="-38" cy="-18" rx="30" ry="22" fill="#7A4E2D"/><ellipse cx="38" cy="-18" rx="30" ry="22" fill="#7A4E2D"/><ellipse cx="0" cy="-110" rx="78" ry="92" fill="#7A4E2D"/><ellipse cx="0" cy="-95" rx="48" ry="60" fill="#E8D9C0"/><circle cx="-52" cy="-286" r="24" fill="#7A4E2D"/><circle cx="52" cy="-286" r="24" fill="#7A4E2D"/><circle cx="-52" cy="-286" r="12" fill="#E8D9C0"/><circle cx="52" cy="-286" r="12" fill="#E8D9C0"/><circle cx="0" cy="-238" r="62" fill="#7A4E2D"/><ellipse cx="0" cy="-220" rx="34" ry="26" fill="#E8D9C0"/><ellipse cx="0" cy="-228" rx="9" ry="7" fill="#2F2A26"/><line x1="-26" y1="-250" x2="-12" y2="-250" stroke="#2F2A26" stroke-width="5" stroke-linecap="round"/><line x1="12" y1="-250" x2="26" y2="-250" stroke="#2F2A26" stroke-width="5" stroke-linecap="round"/><path d="M -14 -210 Q 0 -198 14 -210" fill="none" stroke="#2F2A26" stroke-width="5" stroke-linecap="round"/><line x1="-62" y1="-160" x2="-118" y2="-174" stroke="#7A4E2D" stroke-width="34" stroke-linecap="round"/><line x1="62" y1="-160" x2="66" y2="-286" stroke="#7A4E2D" stroke-width="34" stroke-linecap="round"/><circle cx="66" cy="-286" r="18" fill="#5C3A20"/></g><text x="1670" y="522" text-anchor="middle" font-family="Montserrat, Arial" font-size="26" font-weight="600" fill="#2F2A26">PAUSE</text><text x="1670" y="554" text-anchor="middle" font-family="Inter, Arial" font-size="19" fill="#1F6F5C">paw to ear, eyes closed</text><g transform="translate(260,970)"><ellipse cx="-38" cy="-18" rx="30" ry="22" fill="#7A4E2D"/><ellipse cx="38" cy="-18" rx="30" ry="22" fill="#7A4E2D"/><ellipse cx="0" cy="-110" rx="78" ry="92" fill="#7A4E2D"/><ellipse cx="0" cy="-95" rx="48" ry="60" fill="#E8D9C0"/><circle cx="-52" cy="-286" r="24" fill="#7A4E2D"/><circle cx="52" cy="-286" r="24" fill="#7A4E2D"/><circle cx="-52" cy="-286" r="12" fill="#E8D9C0"/><circle cx="52" cy="-286" r="12" fill="#E8D9C0"/><circle cx="0" cy="-238" r="62" fill="#7A4E2D"/><ellipse cx="0" cy="-220" rx="34" ry="26" fill="#E8D9C0"/><ellipse cx="0" cy="-228" rx="9" ry="7" fill="#2F2A26"/><circle cx="-20" cy="-250" r="7" fill="#2F2A26"/><circle cx="20" cy="-250" r="7" fill="#2F2A26"/><ellipse cx="0" cy="-208" rx="13" ry="10" fill="#2F2A26"/><line x1="-62" y1="-160" x2="-112" y2="-256" stroke="#7A4E2D" stroke-width="34" stroke-linecap="round"/><line x1="62" y1="-160" x2="112" y2="-256" stroke="#7A4E2D" stroke-width="34" stroke-linecap="round"/></g><text x="260" y="1022" text-anchor="middle" font-family="Montserrat, Arial" font-size="26" font-weight="600" fill="#2F2A26">CONFIRM</text><text x="260" y="1054" text-anchor="middle" font-family="Inter, Arial" font-size="19" fill="#1F6F5C">both paws up</text><g transform="translate(730,970)"><ellipse cx="-38" cy="-18" rx="30" ry="22" fill="#7A4E2D"/><ellipse cx="38" cy="-18" rx="30" ry="22" fill="#7A4E2D"/><ellipse cx="0" cy="-110" rx="78" ry="92" fill="#7A4E2D"/><ellipse cx="0" cy="-95" rx="48" ry="60" fill="#E8D9C0"/><circle cx="-52" cy="-286" r="24" fill="#7A4E2D"/><circle cx="52" cy="-286" r="24" fill="#7A4E2D"/><circle cx="-52" cy="-286" r="12" fill="#E8D9C0"/><circle cx="52" cy="-286" r="12" fill="#E8D9C0"/><circle cx="0" cy="-238" r="62" fill="#7A4E2D"/><ellipse cx="0" cy="-220" rx="34" ry="26" fill="#E8D9C0"/><ellipse cx="0" cy="-228" rx="9" ry="7" fill="#2F2A26"/><circle cx="-20" cy="-250" r="7" fill="#2F2A26"/><circle cx="20" cy="-250" r="7" fill="#2F2A26"/><line x1="-12" y1="-206" x2="12" y2="-206" stroke="#2F2A26" stroke-width="5" stroke-linecap="round"/><line x1="-62" y1="-160" x2="44" y2="-126" stroke="#7A4E2D" stroke-width="34" stroke-linecap="round"/><line x1="62" y1="-160" x2="-44" y2="-126" stroke="#7A4E2D" stroke-width="34" stroke-linecap="round"/></g><text x="730" y="1022" text-anchor="middle" font-family="Montserrat, Arial" font-size="26" font-weight="600" fill="#2F2A26">CONTRAST</text><text x="730" y="1054" text-anchor="middle" font-family="Inter, Arial" font-size="19" fill="#1F6F5C">paws crossed, flat mouth</text><g transform="translate(1200,970)"><ellipse cx="-38" cy="-18" rx="30" ry="22" fill="#7A4E2D"/><ellipse cx="38" cy="-18" rx="30" ry="22" fill="#7A4E2D"/><ellipse cx="0" cy="-110" rx="78" ry="92" fill="#7A4E2D"/><ellipse cx="0" cy="-95" rx="48" ry="60" fill="#E8D9C0"/><circle cx="-52" cy="-286" r="24" fill="#7A4E2D"/><circle cx="52" cy="-286" r="24" fill="#7A4E2D"/><circle cx="-52" cy="-286" r="12" fill="#E8D9C0"/><circle cx="52" cy="-286" r="12" fill="#E8D9C0"/><circle cx="0" cy="-238" r="62" fill="#7A4E2D"/><ellipse cx="0" cy="-220" rx="34" ry="26" fill="#E8D9C0"/><ellipse cx="0" cy="-228" rx="9" ry="7" fill="#2F2A26"/><circle cx="-20" cy="-250" r="7" fill="#2F2A26"/><circle cx="20" cy="-250" r="7" fill="#2F2A26"/><ellipse cx="0" cy="-208" rx="13" ry="10" fill="#2F2A26"/><line x1="-62" y1="-160" x2="-124" y2="-220" stroke="#7A4E2D" stroke-width="34" stroke-linecap="round"/><line x1="62" y1="-160" x2="124" y2="-220" stroke="#7A4E2D" stroke-width="34" stroke-linecap="round"/><circle cx="-150" cy="-330" r="7" fill="#1F6F5C"/><line x1="-143" y1="-330" x2="-143" y2="-354" stroke="#1F6F5C" stroke-width="4"/><circle cx="150" cy="-340" r="7" fill="#1F6F5C"/><line x1="157" y1="-340" x2="157" y2="-364" stroke="#1F6F5C" stroke-width="4"/><circle cx="0" cy="-360" r="7" fill="#1F6F5C"/><line x1="7" y1="-360" x2="7" y2="-384" stroke="#1F6F5C" stroke-width="4"/></g><text x="1200" y="1022" text-anchor="middle" font-family="Montserrat, Arial" font-size="26" font-weight="600" fill="#2F2A26">SONG</text><text x="1200" y="1054" text-anchor="middle" font-family="Inter, Arial" font-size="19" fill="#1F6F5C">sways, notes</text><g transform="translate(1670,970)"><ellipse cx="-38" cy="-18" rx="30" ry="22" fill="#7A4E2D"/><ellipse cx="38" cy="-18" rx="30" ry="22" fill="#7A4E2D"/><ellipse cx="0" cy="-110" rx="78" ry="92" fill="#7A4E2D"/><ellipse cx="0" cy="-95" rx="48" ry="60" fill="#E8D9C0"/><circle cx="-52" cy="-286" r="24" fill="#7A4E2D"/><circle cx="52" cy="-286" r="24" fill="#7A4E2D"/><circle cx="-52" cy="-286" r="12" fill="#E8D9C0"/><circle cx="52" cy="-286" r="12" fill="#E8D9C0"/><circle cx="0" cy="-238" r="62" fill="#7A4E2D"/><ellipse cx="0" cy="-220" rx="34" ry="26" fill="#E8D9C0"/><ellipse cx="0" cy="-228" rx="9" ry="7" fill="#2F2A26"/><circle cx="-20" cy="-250" r="7" fill="#2F2A26"/><circle cx="20" cy="-250" r="7" fill="#2F2A26"/><path d="M -14 -210 Q 0 -198 14 -210" fill="none" stroke="#2F2A26" stroke-width="5" stroke-linecap="round"/><line x1="-62" y1="-160" x2="-108" y2="-252" stroke="#7A4E2D" stroke-width="34" stroke-linecap="round"/><line x1="62" y1="-160" x2="108" y2="-252" stroke="#7A4E2D" stroke-width="34" stroke-linecap="round"/><circle cx="-108" cy="-252" r="20" fill="#5C3A20"/><circle cx="108" cy="-252" r="20" fill="#5C3A20"/></g><text x="1670" y="1022" text-anchor="middle" font-family="Montserrat, Arial" font-size="26" font-weight="600" fill="#2F2A26">CO-VIEW</text><text x="1670" y="1054" text-anchor="middle" font-family="Inter, Arial" font-size="19" fill="#1F6F5C">two-paw goodbye</text>
</svg>